<svg viewBox="0 0 36 24" fill="none" xmlns="http://www.w3.org/2000/svg">
	<path d="M36 24H0V0H36" fill="#FF4B55" />
	<path
		d="M24.908 14.99C24.8639 14.9601 24.8141 14.9396 24.7617 14.9299C24.7093 14.9201 24.6555 14.9213 24.6036 14.9333C24.5516 14.9453 24.5028 14.9679 24.46 14.9997C24.4172 15.0315 24.3815 15.0718 24.355 15.118L23.349 15.237L23.852 14.812C24.217 14.842 24.266 14.734 24.365 14.585C24.464 14.436 24.878 14.507 24.878 14.507C24.818 14.053 24.247 14.309 24.247 14.309C24.1319 14.2827 24.0111 14.3019 23.9099 14.3627C23.8086 14.4235 23.7349 14.521 23.704 14.635L22.984 15.187L21.398 14.717C21.5353 14.5864 21.6419 14.4268 21.71 14.25C21.742 14.068 20.54 13.763 20.17 13.382C19.803 13 19.67 12.395 19.842 12.237C20.013 12.079 20.158 12.527 20.342 12.895C20.526 13.263 20.868 13.553 21.092 13.368C21.316 13.183 20.855 12.908 20.645 12.513C20.6044 12.4609 20.5812 12.3974 20.5785 12.3314C20.5759 12.2654 20.594 12.2002 20.6303 12.1451C20.6666 12.0899 20.7193 12.0475 20.7809 12.0238C20.8426 12.0001 20.9101 11.9963 20.974 12.013C21.144 12.053 21.25 12.868 21.658 13.289C22.066 13.71 22.434 13.632 22.474 13.369C22.514 13.106 21.8 12.781 21.656 12.557C21.511 12.334 21.474 11.895 21.71 11.882C21.947 11.868 22.816 13.162 23.553 13.658C24.355 14.198 25 13.566 24.895 13.303C24.79 13.039 24.303 13.145 23.737 13C23.1454 12.7403 22.6748 12.2651 22.421 11.671C22.25 11.25 22.391 11.25 22.491 11.289C22.8468 11.6743 23.2473 12.0157 23.684 12.306C23.8716 12.4492 24.1046 12.5201 24.3402 12.5056C24.5758 12.4911 24.7984 12.3922 24.967 12.227C25.027 12.128 25.254 11.685 24.513 11.789C24.2041 11.8141 23.8935 11.7688 23.6046 11.6566C23.3157 11.5444 23.056 11.3681 22.845 11.141C22.5 10.875 22.362 10.51 22.52 10.361C22.678 10.212 23.197 10.881 23.987 11.092C24.712 11.285 25.007 10.974 24.987 10.688C24.967 10.401 24.799 10.52 23.98 10.441C23.4082 10.3369 22.8991 10.015 22.56 9.543C22.53 9.493 22.54 9.217 22.954 9.483C23.4399 9.75261 23.9873 9.89212 24.543 9.888C24.977 9.868 25.066 9.286 24.858 9.188C24.65 9.09 24.602 9.237 24.128 9.336C23.5462 9.32359 22.9872 9.10695 22.549 8.724C22.332 8.497 22.569 8.349 22.677 8.368C23.1296 8.59793 23.6222 8.73881 24.128 8.783C24.3435 8.77965 24.5506 8.69909 24.7118 8.55595C24.8729 8.41281 24.9773 8.2166 25.006 8.003C24.986 7.826 24.809 7.678 24.543 7.855C24.3718 7.9847 24.1753 8.07715 23.9662 8.1264C23.7572 8.17566 23.5401 8.18063 23.329 8.141C22.737 8.043 22.46 7.648 22.539 7.5C22.619 7.352 23.191 7.608 24.099 7.51C24.2301 7.51257 24.3602 7.48521 24.4791 7.42999C24.5981 7.37478 24.703 7.29317 24.7857 7.19137C24.8684 7.08956 24.9268 6.97024 24.9565 6.84247C24.9862 6.7147 24.9864 6.58185 24.957 6.454C24.868 6.296 24.651 6.345 24.345 6.631C23.943 6.89665 23.463 7.01858 22.983 6.977C22.52 6.977 22.51 6.75 22.579 6.592C22.648 6.434 23.141 6.474 23.832 6.257C24.1027 6.17383 24.3509 6.03012 24.5578 5.83676C24.7646 5.64339 24.9248 5.40546 25.026 5.141C25.0689 5.0245 25.0652 4.89595 25.0156 4.78213C24.966 4.66831 24.8745 4.57799 24.76 4.53C24.651 4.53 24.72 4.372 24.247 5.053C23.7843 5.53595 23.1853 5.86631 22.53 6C22.4802 5.90229 22.4007 5.82283 22.303 5.773C21.6396 5.96254 21.0136 6.26423 20.452 6.665C20.5517 6.99969 20.5362 7.35816 20.408 7.683C20.121 8.257 19.137 7.898 19.404 6.992C19.5568 6.62952 19.8074 6.31665 20.1277 6.08832C20.448 5.86 20.8255 5.72521 21.218 5.699C21.946 5.617 21.983 5.342 21.983 5.342C21.983 5.342 21.218 5.592 21.205 5.25C21.4649 5.29029 21.7292 5.29366 21.99 5.26C22.577 5.209 22.904 4.792 22.644 4.703C22.384 4.614 22.496 4.882 22.05 5.09C21.7892 5.19857 21.498 5.20923 21.23 5.12C21.385 4.784 22.035 4.956 22.035 4.956C22.042 4.369 21.263 4.579 21.263 4.579C20.921 3.842 18.921 4.697 18.921 4.697L19.395 5.079C19.0486 5.28031 18.7465 5.54955 18.5068 5.87055C18.267 6.19156 18.0947 6.55771 18 6.947C17.9053 6.55771 17.733 6.19156 17.4932 5.87055C17.2535 5.54955 16.9514 5.28031 16.605 5.079L17.079 4.697C17.079 4.697 15.079 3.842 14.737 4.579C14.737 4.579 13.958 4.369 13.966 4.956C13.966 4.956 14.616 4.783 14.77 5.12C14.502 5.20932 14.2107 5.19866 13.95 5.09C13.505 4.881 13.616 4.614 13.356 4.703C13.096 4.793 13.423 5.208 14.01 5.26C14.2712 5.29379 14.5358 5.29042 14.796 5.25C14.782 5.591 14.018 5.342 14.018 5.342C14.018 5.342 14.055 5.617 14.783 5.699C15.1753 5.72539 15.5526 5.86026 15.8727 6.08857C16.1929 6.31689 16.4433 6.62966 16.596 6.992C16.863 7.898 15.88 8.257 15.593 7.682C15.4647 7.35757 15.4489 6.99949 15.548 6.665C14.9867 6.26434 14.361 5.96265 13.698 5.773C13.6003 5.82283 13.5208 5.90229 13.471 6C12.8156 5.86603 12.2166 5.53532 11.754 5.052C11.28 4.372 11.349 4.529 11.241 4.529C11.1261 4.57681 11.0341 4.66721 10.9844 4.78128C10.9346 4.89535 10.9309 5.02425 10.974 5.141C11.0753 5.40531 11.2355 5.64308 11.4423 5.83627C11.6492 6.02947 11.8974 6.173 12.168 6.256C12.859 6.473 13.352 6.434 13.421 6.592C13.491 6.75 13.481 6.977 13.017 6.977C12.537 7.01858 12.057 6.89665 11.655 6.631C11.349 6.345 11.132 6.296 11.043 6.454C11.0136 6.58193 11.0138 6.71487 11.0435 6.84272C11.0733 6.97057 11.1318 7.08994 11.2146 7.19177C11.2975 7.29359 11.4024 7.37518 11.5215 7.43033C11.6406 7.48547 11.7708 7.51272 11.902 7.51C12.81 7.608 13.382 7.352 13.461 7.5C13.54 7.648 13.264 8.043 12.671 8.141C12.46 8.18048 12.2432 8.17544 12.0343 8.12619C11.8254 8.07693 11.6291 7.98456 11.458 7.855C11.191 7.677 11.014 7.825 10.994 8.003C11.0227 8.2166 11.1271 8.41281 11.2882 8.55595C11.4494 8.69909 11.6565 8.77965 11.872 8.783C12.3774 8.73871 12.8697 8.59783 13.322 8.368C13.432 8.348 13.668 8.496 13.452 8.723C13.0135 9.10617 12.4542 9.32282 11.872 9.335C11.399 9.237 11.349 9.089 11.142 9.187C10.935 9.285 11.024 9.868 11.458 9.887C12.0136 9.89142 12.561 9.75226 13.047 9.483C13.461 9.217 13.471 9.493 13.441 9.543C13.1019 10.015 12.5928 10.3369 12.021 10.441C11.201 10.519 11.033 10.401 11.014 10.687C10.995 10.973 11.289 11.285 12.014 11.092C12.804 10.882 13.323 10.214 13.481 10.362C13.639 10.51 13.501 10.875 13.155 11.142C12.944 11.3689 12.6842 11.545 12.3953 11.6571C12.1064 11.7691 11.7958 11.8142 11.487 11.789C10.747 11.685 10.974 12.129 11.033 12.227C11.2016 12.3922 11.4242 12.4911 11.6598 12.5056C11.8954 12.5201 12.1284 12.4492 12.316 12.306C12.753 12.0157 13.1539 11.6743 13.51 11.289C13.61 11.249 13.75 11.249 13.58 11.671C13.3263 12.2652 12.8557 12.7404 12.264 13C11.698 13.144 11.211 13.04 11.106 13.302C11.001 13.565 11.646 14.197 12.448 13.658C13.185 13.162 14.053 11.868 14.29 11.881C14.527 11.894 14.49 12.333 14.345 12.557C14.2 12.781 13.487 13.105 13.527 13.368C13.567 13.631 13.935 13.71 14.343 13.289C14.751 12.869 14.856 12.052 15.027 12.013C15.0909 11.9963 15.1584 12.0001 15.2201 12.0238C15.2817 12.0475 15.3344 12.0899 15.3707 12.1451C15.407 12.2002 15.4251 12.2654 15.4225 12.3314C15.4198 12.3974 15.3966 12.4609 15.356 12.513C15.146 12.908 14.685 13.183 14.909 13.368C15.132 13.552 15.474 13.263 15.659 12.894C15.843 12.526 15.987 12.079 16.159 12.236C16.331 12.393 16.199 13 15.829 13.381C15.461 13.763 14.259 14.068 14.29 14.25C14.3581 14.4269 14.4647 14.5864 14.602 14.717L13.017 15.187L12.297 14.634C12.2659 14.5202 12.1921 14.4229 12.0909 14.3623C11.9897 14.3017 11.869 14.2826 11.754 14.309C11.754 14.309 11.182 14.052 11.122 14.506C11.122 14.506 11.537 14.437 11.635 14.586C11.733 14.735 11.783 14.842 12.149 14.812L12.652 15.236L11.645 15.118C11.6185 15.0719 11.5828 15.0318 11.5401 15.0001C11.4974 14.9684 11.4487 14.9458 11.3969 14.9338C11.3451 14.9218 11.2914 14.9206 11.2391 14.9303C11.1868 14.9399 11.1371 14.9603 11.093 14.99C11.0394 14.9699 10.9821 14.9611 10.9249 14.9643C10.8677 14.9675 10.8118 14.9825 10.7608 15.0085C10.7097 15.0345 10.6646 15.0708 10.6283 15.1151C10.592 15.1594 10.5654 15.2108 10.55 15.266C10.7057 15.232 10.866 15.2253 11.024 15.246C11.024 15.246 11.172 15.582 11.645 15.385L12.642 15.434L12.079 15.71C12.079 15.71 11.369 15.483 11.399 16.075C11.3419 16.1398 11.3087 16.2222 11.3051 16.3085C11.3015 16.3947 11.3275 16.4797 11.379 16.549C11.391 16.4762 11.4172 16.4065 11.4562 16.3439C11.4951 16.2813 11.546 16.2269 11.606 16.184C11.7239 16.2223 11.852 16.214 11.9639 16.1608C12.0759 16.1076 12.1632 16.0136 12.208 15.898L12.928 15.464L13.638 15.809C13.638 15.809 13.618 16.194 14.142 16.036C14.2427 16.1042 14.3216 16.2 14.369 16.312C14.369 16.312 14.596 16.065 14.231 15.779C14.231 15.779 14.142 15.444 13.708 15.572L13.303 15.365L14.8 14.921C15.06 15.167 15.34 15.37 15.437 15.336C15.6611 15.2215 15.8319 15.0242 15.913 14.786C16.046 14.504 16.648 13.523 16.945 13.53C17.243 13.538 17.376 13.776 17.302 14.2C17.1276 14.7704 16.7648 15.2646 16.273 15.602C15.898 15.77 15.839 15.848 15.493 15.819C15.147 15.79 15.03 15.937 15.109 16.135C15.188 16.332 15.576 16.457 15.958 16.312C16.372 16.154 16.53 15.937 16.688 16.066C16.846 16.195 16.52 16.658 16.076 16.796C15.632 16.934 15.296 16.846 15.366 17.122C15.436 17.398 15.908 17.418 16.214 17.24C16.52 17.062 16.866 16.569 16.954 16.727C16.9969 16.8685 16.9943 17.0199 16.9466 17.1598C16.8989 17.2998 16.8084 17.4212 16.688 17.507C16.392 17.723 16.055 17.596 15.988 17.793C15.888 18.079 16.234 18.266 16.5 18.158C16.811 17.995 17.0606 17.7353 17.211 17.418C17.349 17.122 17.606 17.378 17.527 17.654C17.5119 17.8452 17.4514 18.03 17.3505 18.1932C17.2496 18.3563 17.1113 18.493 16.947 18.592L18 20.21L19.053 18.592C18.8889 18.4929 18.7509 18.3561 18.6502 18.193C18.5495 18.0298 18.4891 17.8451 18.474 17.654C18.395 17.378 18.652 17.121 18.79 17.417C18.9402 17.7341 19.1894 17.9938 19.5 18.157C19.767 18.267 20.112 18.079 20.014 17.793C19.946 17.596 19.609 17.723 19.313 17.506C19.1924 17.4204 19.1017 17.299 19.0538 17.159C19.0059 17.0191 19.0032 16.8676 19.046 16.726C19.136 16.569 19.481 17.062 19.786 17.24C20.093 17.417 20.566 17.398 20.636 17.121C20.706 16.844 20.369 16.934 19.925 16.796C19.481 16.658 19.155 16.194 19.313 16.066C19.471 15.938 19.629 16.154 20.043 16.312C20.424 16.457 20.813 16.332 20.892 16.135C20.971 15.938 20.852 15.789 20.507 15.819C20.162 15.849 20.102 15.769 19.727 15.602C19.2354 15.2642 18.8729 14.7696 18.699 14.199C18.624 13.776 18.759 13.538 19.055 13.53C19.353 13.523 19.955 14.504 20.088 14.786C20.1691 15.0242 20.3399 15.2215 20.564 15.336C20.662 15.37 20.942 15.167 21.201 14.921L22.698 15.365L22.293 15.572C21.859 15.444 21.77 15.779 21.77 15.779C21.405 16.065 21.632 16.312 21.632 16.312C21.6794 16.2 21.7583 16.1042 21.859 16.036C22.382 16.194 22.362 15.809 22.362 15.809L23.072 15.464L23.793 15.898C23.8378 16.0136 23.9251 16.1076 24.0371 16.1608C24.149 16.214 24.2771 16.2223 24.395 16.184C24.455 16.2269 24.506 16.2812 24.5449 16.3439C24.5839 16.4065 24.6101 16.4762 24.622 16.549C24.6735 16.4797 24.6995 16.3947 24.6959 16.3085C24.6923 16.2222 24.6591 16.1398 24.602 16.075C24.632 15.483 23.922 15.71 23.922 15.71L23.359 15.434L24.355 15.384C24.829 15.582 24.977 15.247 24.977 15.247C25.135 15.2263 25.2953 15.233 25.451 15.267C25.4358 15.2117 25.4092 15.1602 25.3729 15.1158C25.3367 15.0713 25.2916 15.0349 25.2405 15.0089C25.1894 14.9828 25.1335 14.9677 25.0763 14.9644C25.019 14.9612 24.9617 14.9699 24.908 14.99Z"
		fill="#464655"
	/>
</svg>
