<svg viewBox="0 0 36 24" fill="none" xmlns="http://www.w3.org/2000/svg">
	<path d="M12 24H0V0H12V24Z" fill="#41479B" />
	<path d="M12 0H24V24H12V0Z" fill="#FFE15A" />
	<path
		d="M22.22 14.052C22.2205 13.9648 22.1866 13.881 22.1255 13.8188C22.0644 13.7566 21.9812 13.7211 21.894 13.72C21.8564 13.7204 21.8191 13.7275 21.784 13.741C21.6363 13.6206 21.5382 13.45 21.5085 13.2618C21.4788 13.0736 21.5196 12.881 21.623 12.721C21.6637 12.7533 21.7141 12.771 21.766 12.771C21.8218 12.7702 21.8755 12.7499 21.9178 12.7135C21.96 12.6772 21.9882 12.6272 21.9974 12.5722C22.0066 12.5171 21.9961 12.4607 21.9679 12.4126C21.9397 12.3645 21.8955 12.3278 21.843 12.309C22.0144 12.2332 22.1597 12.1086 22.2605 11.9506C22.3614 11.7926 22.4134 11.6084 22.41 11.421C22.385 10.716 21.818 10.327 21.47 10.483C21.4781 10.4313 21.4683 10.3784 21.4422 10.333C21.4162 10.2876 21.3755 10.2525 21.3268 10.2334C21.2781 10.2143 21.2243 10.2123 21.1743 10.2279C21.1244 10.2435 21.0812 10.2756 21.052 10.319C21.0423 10.2536 21.0512 10.1868 21.0775 10.1262C21.1038 10.0656 21.1466 10.0136 21.201 9.976C21.3094 9.90246 21.3985 9.80387 21.4607 9.68858C21.523 9.57329 21.5565 9.4447 21.5584 9.31371C21.5604 9.18271 21.5308 9.05317 21.472 8.93607C21.4133 8.81897 21.3272 8.71775 21.221 8.641C20.879 8.396 20.224 8.279 20.005 8.614C19.9652 8.67933 19.9524 8.75756 19.9692 8.83219C19.9859 8.90682 20.0311 8.972 20.095 9.014C19.9838 9.09029 19.8574 9.14159 19.7245 9.16437C19.5915 9.18716 19.4553 9.18089 19.325 9.146C18.951 8.98 19.167 8.651 19.25 8.503C19.2946 8.43105 19.318 8.34797 19.3175 8.26332C19.317 8.17867 19.2927 8.09587 19.2472 8.02444C19.2018 7.95301 19.1371 7.89584 19.0607 7.8595C18.9842 7.82316 18.8991 7.80912 18.815 7.819C18.489 7.819 18.326 8.151 18 8.151C17.674 8.151 17.51 7.819 17.184 7.819C17.0999 7.80912 17.0148 7.82316 16.9383 7.8595C16.8619 7.89584 16.7972 7.95301 16.7518 8.02444C16.7063 8.09587 16.682 8.17867 16.6815 8.26332C16.681 8.34797 16.7044 8.43105 16.749 8.503C16.833 8.651 17.049 8.98 16.675 9.146C16.5448 9.18103 16.4086 9.18747 16.2756 9.16485C16.1427 9.14224 16.0163 9.09112 15.905 9.015C15.9692 8.97299 16.0145 8.90762 16.0313 8.83275C16.0481 8.75789 16.0351 8.67942 15.995 8.614C15.775 8.279 15.121 8.396 14.779 8.641C14.6728 8.71775 14.5867 8.81897 14.528 8.93607C14.4692 9.05317 14.4396 9.18271 14.4416 9.31371C14.4435 9.4447 14.477 9.57329 14.5393 9.68858C14.6015 9.80387 14.6906 9.90246 14.799 9.976C14.8534 10.0136 14.8962 10.0656 14.9225 10.1262C14.9488 10.1868 14.9577 10.2536 14.948 10.319C14.9269 10.2881 14.8985 10.2629 14.8654 10.2455C14.8323 10.228 14.7954 10.219 14.758 10.219C14.6966 10.2198 14.6379 10.2448 14.5948 10.2887C14.5518 10.3325 14.5277 10.3915 14.528 10.453C14.528 10.463 14.5287 10.4731 14.53 10.483C14.182 10.327 13.615 10.716 13.59 11.421C13.5866 11.6084 13.6386 11.7926 13.7395 11.9506C13.8403 12.1086 13.9856 12.2332 14.157 12.309C14.1038 12.3273 14.0589 12.3639 14.0301 12.4123C14.0013 12.4606 13.9906 12.5176 13.9998 12.573C14.009 12.6285 14.0376 12.679 14.0805 12.7154C14.1234 12.7518 14.1777 12.7719 14.234 12.772C14.2861 12.7717 14.3365 12.7537 14.377 12.721C14.4805 12.8809 14.5214 13.0734 14.4919 13.2616C14.4624 13.4498 14.3645 13.6205 14.217 13.741C14.1815 13.7278 14.1439 13.721 14.106 13.721C14.0217 13.722 13.941 13.7552 13.8803 13.8137C13.8196 13.8723 13.7836 13.9517 13.7795 14.0359C13.7754 14.1201 13.8036 14.2027 13.8583 14.2669C13.9131 14.331 13.9902 14.3718 14.074 14.381C13.9103 14.5669 13.821 14.8066 13.8232 15.0543C13.8254 15.302 13.919 15.5401 14.086 15.723C14.565 16.366 15.706 16.313 16.256 16.335C16.5396 16.3525 16.808 16.4693 17.014 16.665C16.9568 16.701 16.9119 16.7537 16.8854 16.8159C16.859 16.8781 16.8521 16.947 16.8658 17.0132C16.8795 17.0794 16.9131 17.1399 16.9621 17.1865C17.0111 17.2331 17.0732 17.2636 17.14 17.274C17.1704 17.3244 17.214 17.3656 17.2661 17.393C17.3182 17.4204 17.3768 17.4329 17.4356 17.4293C17.4944 17.4257 17.551 17.4061 17.5994 17.3725C17.6478 17.339 17.686 17.2928 17.71 17.239C17.7995 17.3169 17.8967 17.3856 18 17.444C18.1033 17.3856 18.2005 17.3169 18.29 17.239C18.314 17.2928 18.3522 17.339 18.4006 17.3725C18.449 17.4061 18.5056 17.4257 18.5644 17.4293C18.6232 17.4329 18.6818 17.4204 18.7339 17.393C18.786 17.3656 18.8296 17.3244 18.86 17.274C18.9271 17.2639 18.9895 17.2334 19.0387 17.1867C19.088 17.14 19.1218 17.0794 19.1355 17.0129C19.1492 16.9464 19.1423 16.8774 19.1155 16.815C19.0888 16.7526 19.0436 16.6999 18.986 16.664C19.1917 16.4685 19.4597 16.3517 19.743 16.334C20.293 16.314 21.436 16.366 21.915 15.723C22.0819 15.54 22.1753 15.3018 22.1773 15.0541C22.1794 14.8064 22.0899 14.5667 21.926 14.381C22.0071 14.3723 22.082 14.3339 22.1363 14.2731C22.1906 14.2123 22.2205 14.1335 22.22 14.052Z"
		fill="#DCBE82"
	/>
	<path
		d="M15.064 9.79V14.602C15.0628 14.7317 15.0872 14.8604 15.1358 14.9806C15.1843 15.1009 15.2561 15.2104 15.3471 15.3029C15.438 15.3954 15.5462 15.4691 15.6657 15.5197C15.7851 15.5704 15.9133 15.597 16.043 15.598H17.348C17.4767 15.5884 17.6055 15.6143 17.7204 15.6728C17.8354 15.7313 17.9321 15.8203 18 15.93C18.068 15.8201 18.1648 15.7311 18.28 15.6725C18.3952 15.614 18.5242 15.5882 18.653 15.598H19.957C20.0867 15.597 20.2149 15.5704 20.3343 15.5197C20.4538 15.4691 20.562 15.3954 20.6529 15.3029C20.7439 15.2104 20.8157 15.1009 20.8642 14.9806C20.9128 14.8604 20.9372 14.7317 20.936 14.602V9.79C20.9363 9.76838 20.9322 9.74692 20.9242 9.72686C20.9161 9.70679 20.9042 9.68852 20.889 9.67309C20.8739 9.65767 20.8558 9.64539 20.8359 9.63696C20.816 9.62853 20.7946 9.62413 20.773 9.624H15.227C15.1834 9.62453 15.1418 9.64228 15.1113 9.67338C15.0807 9.70449 15.0637 9.74641 15.064 9.79Z"
		fill="#D2AA73"
	/>
	<path
		d="M20.61 12.777C20.6129 13.1012 20.5519 13.4228 20.4305 13.7234C20.3091 14.024 20.1296 14.2977 19.9024 14.529C19.6751 14.7602 19.4046 14.9444 19.1061 15.071C18.8077 15.1977 18.4872 15.2643 18.163 15.267V12.777H20.61ZM18.513 9.955H18.163V12.445H18.513V9.955ZM19.212 9.955H18.862V12.445H19.212V9.955ZM19.91 9.955H19.56V12.445H19.91V9.955ZM20.61 9.955H20.26V12.445H20.61V9.955ZM16.478 15.266H16.75V12.776H16.478V15.266ZM17.022 15.266H17.294V12.776H17.022V15.266ZM17.565 15.266H17.837V12.776H17.565V15.266ZM15.39 14.602C15.3899 14.7066 15.4145 14.8097 15.4618 14.903C15.509 14.9963 15.5776 15.0772 15.662 15.139V12.777H15.39V14.602ZM15.934 15.255C15.97 15.2618 16.0064 15.2655 16.043 15.266H16.206V12.776H15.934V15.255ZM17.452 10.081C17.4184 10.0584 17.379 10.0461 17.3386 10.0454C17.2981 10.0446 17.2584 10.0556 17.224 10.077C17.1839 10.1015 17.1505 10.1357 17.1269 10.1763C17.1033 10.217 17.0903 10.263 17.089 10.31C17.0863 10.3434 17.0782 10.3762 17.065 10.407L16.885 10.647L16.622 10.326L15.98 11.11L16.15 11.631L15.668 12.276C15.6576 12.29 15.6531 12.3074 15.6556 12.3247C15.658 12.3419 15.6671 12.3575 15.681 12.368C15.6922 12.3765 15.7059 12.3811 15.72 12.381C15.7298 12.3808 15.7394 12.3784 15.7481 12.3739C15.7567 12.3694 15.7643 12.3629 15.77 12.355L16.2 11.781L16.237 11.895H17.007L17.265 11.11L16.97 10.75L17.172 10.48C17.1964 10.433 17.2113 10.3817 17.216 10.329C17.226 10.264 17.231 10.225 17.29 10.189C17.3038 10.1801 17.3199 10.1755 17.3363 10.1759C17.3527 10.1762 17.3686 10.1815 17.382 10.191C17.4007 10.2031 17.4158 10.2199 17.4259 10.2398C17.4359 10.2596 17.4404 10.2818 17.439 10.304C17.434 10.359 17.381 10.39 17.339 10.406C17.323 10.4123 17.31 10.4246 17.3029 10.4403C17.2958 10.456 17.2951 10.4738 17.301 10.49C17.3038 10.498 17.3081 10.5053 17.3138 10.5116C17.3194 10.5178 17.3263 10.5229 17.3339 10.5266C17.3415 10.5302 17.3498 10.5323 17.3582 10.5327C17.3666 10.5331 17.3751 10.5319 17.383 10.529C17.431 10.5158 17.4741 10.4888 17.5068 10.4513C17.5396 10.4137 17.5605 10.3674 17.567 10.318C17.5709 10.2718 17.5623 10.2254 17.542 10.1837C17.5218 10.142 17.4907 10.1065 17.452 10.081Z"
		fill="#FFE15A"
	/>
	<path
		d="M36 0V24H24V0H36ZM17.837 9.955H15.39V12.445H17.837V9.955ZM18.862 9.955H18.512V12.445H18.862V9.955ZM19.562 9.955H19.212V12.445H19.562V9.955ZM19.912 12.445H20.26V9.955H19.91L19.912 12.445ZM15.934 12.777H15.39C15.3896 13.1731 15.4828 13.5637 15.662 13.917V15.14C15.7425 15.199 15.8356 15.2384 15.934 15.255V14.341C16.0168 14.4448 16.1077 14.5418 16.206 14.631V15.267H16.477V14.847C16.5641 14.9062 16.655 14.9596 16.749 15.007V15.267H17.021V15.124C17.11 15.156 17.2008 15.1827 17.293 15.204V15.266H17.565V15.251C17.6553 15.2611 17.7461 15.2661 17.837 15.266V12.776H15.934V12.777ZM19.801 13.157C19.651 13.177 19.418 13.174 19.318 13.18C19.218 13.187 19.166 13.243 19.007 13.197L19.049 13.097C19.0077 13.1008 18.9672 13.1109 18.929 13.127C18.904 13.14 18.845 13.058 18.787 13.072C18.729 13.085 18.67 13.207 18.579 13.269L18.628 13.369C18.6432 13.3617 18.66 13.3582 18.6769 13.3587C18.6937 13.3593 18.7102 13.3638 18.725 13.372C18.7413 13.3887 18.761 13.4018 18.7827 13.4104C18.8044 13.4191 18.8277 13.423 18.851 13.422L18.897 13.441C18.8924 13.4691 18.8947 13.4979 18.9038 13.5249C18.9128 13.552 18.9284 13.5763 18.949 13.596C18.949 13.596 18.871 13.698 18.881 13.715C18.9185 13.7843 18.9519 13.8558 18.981 13.929L19.04 13.817C19.04 13.817 18.952 13.737 18.968 13.727C18.984 13.717 19.043 13.705 19.033 13.678C19.023 13.651 19.078 13.682 19.14 13.691C19.1397 13.7292 19.1451 13.7673 19.156 13.804C19.179 13.8403 19.1895 13.8832 19.186 13.926C19.1852 13.9417 19.1798 13.9569 19.1706 13.9696C19.1614 13.9824 19.1487 13.9923 19.134 13.998L19.221 14.024C19.221 14.024 19.244 13.991 19.26 13.994C19.2541 13.8878 19.2642 13.7812 19.29 13.678C19.3915 13.7009 19.4972 13.6975 19.597 13.668C19.6075 13.6806 19.62 13.6914 19.634 13.7C19.624 13.723 19.616 13.745 19.619 13.752C19.6214 13.7552 19.6246 13.7577 19.6282 13.7593C19.6319 13.7609 19.6358 13.7616 19.6398 13.7613C19.6438 13.761 19.6476 13.7597 19.651 13.7576C19.6543 13.7554 19.6571 13.7525 19.659 13.749L19.669 13.717C19.682 13.7212 19.6954 13.7239 19.709 13.725C19.7062 13.7397 19.7072 13.7548 19.712 13.769C19.7153 13.7715 19.7193 13.773 19.7234 13.7735C19.7275 13.774 19.7317 13.7734 19.7355 13.7718C19.7394 13.7702 19.7427 13.7676 19.7453 13.7643C19.7478 13.761 19.7494 13.7571 19.75 13.753V13.725C19.7683 13.7236 19.7864 13.7202 19.804 13.715L19.694 13.899L19.639 13.922L19.71 13.958L19.775 13.932C19.8064 13.8488 19.8631 13.7775 19.937 13.728C19.937 13.728 20.005 13.893 19.921 13.982L19.995 14.024L20.031 13.949C20.0241 13.866 20.0364 13.7825 20.067 13.705L20.008 13.563L20.018 13.418C20.018 13.418 20.144 13.326 20.083 13.24C20.021 13.154 19.95 13.138 19.801 13.157ZM20.083 14.273C20.021 14.187 19.95 14.171 19.801 14.19C19.652 14.209 19.418 14.207 19.318 14.213C19.218 14.22 19.166 14.276 19.007 14.23L19.049 14.131C19.0077 14.1348 18.9672 14.1449 18.929 14.161C18.904 14.173 18.845 14.091 18.787 14.105C18.729 14.118 18.67 14.24 18.579 14.302L18.628 14.402C18.6432 14.3947 18.66 14.3912 18.6769 14.3917C18.6937 14.3923 18.7102 14.3968 18.725 14.405C18.7413 14.4217 18.761 14.4348 18.7827 14.4434C18.8044 14.4521 18.8277 14.456 18.851 14.455L18.897 14.474C18.8924 14.5021 18.8947 14.5309 18.9038 14.5579C18.9128 14.585 18.9284 14.6093 18.949 14.629C18.949 14.629 18.871 14.731 18.881 14.748C18.9185 14.8173 18.9519 14.8888 18.981 14.962L19.04 14.85C19.04 14.85 18.952 14.77 18.968 14.76C18.984 14.75 19.043 14.738 19.033 14.711C19.023 14.684 19.078 14.715 19.14 14.724C19.1397 14.7622 19.1451 14.8003 19.156 14.837C19.179 14.8733 19.1895 14.9162 19.186 14.959C19.1852 14.9747 19.1798 14.9899 19.1706 15.0026C19.1614 15.0154 19.1487 15.0253 19.134 15.031L19.221 15.057C19.221 15.057 19.244 15.024 19.26 15.027C19.2541 14.9208 19.2642 14.8142 19.29 14.711C19.3915 14.7339 19.4972 14.7305 19.597 14.701C19.6076 14.7132 19.6201 14.7237 19.634 14.732C19.624 14.755 19.616 14.778 19.619 14.785C19.6214 14.7882 19.6246 14.7907 19.6282 14.7923C19.6319 14.7939 19.6358 14.7946 19.6398 14.7943C19.6438 14.794 19.6476 14.7927 19.651 14.7906C19.6543 14.7884 19.6571 14.7855 19.659 14.782L19.669 14.75C19.682 14.7542 19.6954 14.7569 19.709 14.758C19.7062 14.7727 19.7072 14.7878 19.712 14.802C19.7153 14.8045 19.7193 14.806 19.7234 14.8065C19.7275 14.807 19.7317 14.8064 19.7355 14.8048C19.7394 14.8032 19.7427 14.8006 19.7453 14.7973C19.7478 14.794 19.7494 14.7901 19.75 14.786V14.758C19.7683 14.7566 19.7864 14.7532 19.804 14.748L19.694 14.932L19.639 14.955L19.71 14.991L19.775 14.965C19.8064 14.8818 19.8631 14.8105 19.937 14.761C19.937 14.761 20.005 14.925 19.921 15.015L19.995 15.057L20.031 14.982C20.0241 14.899 20.0364 14.8155 20.067 14.738L20.008 14.596L20.018 14.451C20.018 14.451 20.144 14.359 20.083 14.273Z"
		fill="#FF4B55"
	/>
	<path
		d="M18.713 13.015C18.7147 12.991 18.7076 12.9672 18.693 12.948C18.729 12.959 18.739 12.978 18.747 13.018C18.7539 13.0456 18.768 13.0708 18.788 13.091L18.736 13.131C18.713 13.113 18.71 13.057 18.713 13.015ZM18.852 13.421L18.897 13.441C18.9793 13.3849 19.0406 13.3029 19.071 13.208L19.007 13.197C18.9761 13.2841 18.9226 13.3614 18.852 13.421ZM18.932 13.144C18.9464 13.1254 18.9543 13.1025 18.9543 13.079C18.9543 13.0555 18.9464 13.0326 18.932 13.014C18.9176 12.994 18.909 12.9705 18.907 12.946C18.877 12.969 18.877 13.006 18.892 13.056C18.907 13.106 18.845 13.123 18.85 13.128C18.894 13.174 18.932 13.144 18.932 13.144ZM18.762 13.514C18.7601 13.5176 18.7568 13.5204 18.7529 13.5217C18.749 13.523 18.7447 13.5228 18.741 13.521L18.729 13.546L18.769 13.566L18.768 13.567C18.7667 13.5695 18.7659 13.5722 18.7657 13.575C18.7654 13.5778 18.7658 13.5806 18.7668 13.5832C18.7677 13.5859 18.7692 13.5883 18.7711 13.5903C18.7731 13.5923 18.7754 13.5939 18.778 13.595C18.7828 13.597 18.7882 13.5971 18.793 13.5953C18.7979 13.5934 18.8018 13.5897 18.804 13.585L18.844 13.605L18.857 13.579C18.8534 13.5771 18.8506 13.5738 18.8493 13.5699C18.848 13.566 18.8482 13.5617 18.85 13.558L18.87 13.517C18.8756 13.5053 18.8766 13.492 18.8729 13.4796C18.8692 13.4672 18.8611 13.4567 18.85 13.45C18.8442 13.4467 18.8378 13.4447 18.8312 13.444C18.8245 13.4433 18.8178 13.4439 18.8115 13.4459C18.8051 13.4478 18.7992 13.4511 18.7942 13.4554C18.7891 13.4597 18.7849 13.465 18.782 13.471L18.762 13.514ZM19.062 13.868L19.014 13.858L18.981 13.929L19.022 13.995L19.062 13.868ZM19.104 14.051H19.221V14.024L19.133 13.998L19.104 14.051ZM19.577 13.99H19.71V13.958L19.642 13.925L19.577 13.99ZM19.995 14.024L19.921 13.981L19.855 14.048H19.993L19.995 14.024ZM18.735 14.164L18.788 14.124C18.7685 14.104 18.7547 14.0791 18.748 14.052C18.739 14.01 18.729 13.992 18.694 13.981C18.7086 14.0002 18.7157 14.024 18.714 14.048C18.71 14.09 18.713 14.146 18.735 14.164ZM18.851 14.455L18.897 14.474C18.9793 14.4179 19.0406 14.3359 19.071 14.241L19.007 14.23C18.9758 14.3172 18.922 14.3955 18.851 14.455ZM18.85 14.161C18.894 14.207 18.931 14.177 18.931 14.177C18.9457 14.1586 18.9539 14.1359 18.9543 14.1123C18.9546 14.0888 18.9472 14.0658 18.933 14.047C18.9183 14.0271 18.9093 14.0036 18.907 13.979C18.877 14.002 18.877 14.039 18.892 14.089C18.907 14.139 18.845 14.156 18.85 14.161ZM18.85 14.483C18.8442 14.4797 18.8378 14.4777 18.8312 14.477C18.8245 14.4763 18.8178 14.4769 18.8115 14.4789C18.8051 14.4808 18.7992 14.4841 18.7942 14.4884C18.7891 14.4927 18.7849 14.498 18.782 14.504L18.762 14.547C18.7601 14.5506 18.7568 14.5534 18.7529 14.5547C18.749 14.556 18.7447 14.5558 18.741 14.554L18.729 14.579L18.769 14.599L18.768 14.6C18.7667 14.6025 18.7659 14.6052 18.7657 14.608C18.7654 14.6108 18.7658 14.6136 18.7668 14.6162C18.7677 14.6189 18.7692 14.6213 18.7711 14.6233C18.7731 14.6253 18.7754 14.6269 18.778 14.628C18.7828 14.63 18.7882 14.6301 18.793 14.6283C18.7979 14.6264 18.8018 14.6227 18.804 14.618L18.844 14.638L18.857 14.612C18.8534 14.6101 18.8506 14.6068 18.8493 14.6029C18.848 14.599 18.8482 14.5947 18.85 14.591L18.87 14.55C18.8756 14.5383 18.8766 14.525 18.8729 14.5126C18.8692 14.5002 18.8611 14.4897 18.85 14.483ZM18.981 14.962L19.022 15.028L19.062 14.901L19.014 14.891L18.981 14.962ZM19.104 15.084H19.221V15.057L19.133 15.031L19.104 15.084ZM19.577 15.023H19.71V14.991L19.642 14.958L19.577 15.023ZM19.855 15.081H19.993L19.995 15.057L19.921 15.014L19.855 15.081Z"
		fill="#4173CD"
	/>
	<path
		d="M17.676 12.015C17.67 11.9768 17.6533 11.9412 17.6278 11.9121C17.6023 11.8831 17.5691 11.8619 17.532 11.851C17.4977 11.8403 17.461 11.8401 17.4266 11.8505C17.3922 11.8608 17.3617 11.8812 17.339 11.909C17.238 12.029 17.133 12.076 17.045 12.043C17.0051 12.0274 16.9721 11.9979 16.952 11.96H17.054L17.337 11.096L16.622 10.223L15.908 11.096L16.191 11.96H16.283C16.2629 11.9979 16.2299 12.0274 16.19 12.043C16.102 12.076 15.997 12.029 15.896 11.909C15.8732 11.8813 15.8427 11.861 15.8083 11.8507C15.774 11.8403 15.7373 11.8404 15.703 11.851C15.6659 11.8618 15.6326 11.8829 15.6071 11.912C15.5816 11.9411 15.5649 11.9768 15.559 12.015C15.549 12.072 15.559 12.185 15.719 12.293C15.7297 12.2999 15.7423 12.3034 15.755 12.303C15.7657 12.3031 15.7763 12.3005 15.7857 12.2954C15.7951 12.2903 15.8031 12.283 15.809 12.274C15.8182 12.2595 15.8213 12.2419 15.8178 12.2251C15.8142 12.2083 15.8043 12.1936 15.79 12.184C15.717 12.134 15.679 12.08 15.685 12.034C15.6875 12.0203 15.6938 12.0076 15.7032 11.9974C15.7125 11.9871 15.7246 11.9797 15.738 11.976C15.7487 11.9726 15.7603 11.9727 15.771 11.9761C15.7817 11.9795 15.7911 11.9861 15.798 11.995C15.986 12.215 16.152 12.197 16.235 12.165C16.2796 12.1474 16.3195 12.1198 16.3516 12.0842C16.3837 12.0487 16.4071 12.0061 16.42 11.96H16.815C16.8278 12.0063 16.8511 12.0491 16.8832 12.0848C16.9153 12.1206 16.9553 12.1484 17 12.166C17.083 12.197 17.249 12.216 17.436 11.995C17.443 11.9863 17.4525 11.9798 17.4632 11.9766C17.4739 11.9734 17.4854 11.9735 17.496 11.977C17.5093 11.9808 17.5213 11.9883 17.5307 11.9985C17.5401 12.0087 17.5464 12.0214 17.549 12.035C17.556 12.08 17.518 12.134 17.444 12.184C17.4299 12.1937 17.4202 12.2086 17.4168 12.2254C17.4134 12.2422 17.4167 12.2596 17.426 12.274C17.4317 12.2832 17.4397 12.2907 17.4491 12.2959C17.4586 12.3012 17.4692 12.304 17.48 12.304C17.4925 12.3037 17.5046 12.2999 17.515 12.293C17.675 12.185 17.685 12.073 17.676 12.015ZM16.558 11.829H16.283L16.053 11.124L16.558 10.506V11.829ZM16.687 10.506L17.193 11.124L16.962 11.829H16.687V10.506Z"
		fill="#F5F5F5"
	/>
</svg>
