<svg viewBox="0 0 36 24" fill="none" xmlns="http://www.w3.org/2000/svg">
	<path d="M14.276 24H0V0H14.276V24Z" fill="#41479B" />
	<path
		d="M5.075 2.712V4.347C5.07776 4.50524 5.04932 4.66248 4.99131 4.80973C4.9333 4.95698 4.84686 5.09137 4.73691 5.20521C4.62697 5.31906 4.49568 5.41013 4.35053 5.47324C4.20539 5.53634 4.04924 5.57024 3.891 5.573C3.73276 5.57576 3.57552 5.54732 3.42827 5.48931C3.28102 5.4313 3.14663 5.34486 3.03279 5.23491C2.91894 5.12497 2.82787 4.99368 2.76476 4.84854C2.70166 4.70339 2.66776 4.54724 2.665 4.389V2.712H5.075ZM5.477 1.895H2.264C2.21081 1.89539 2.15823 1.90626 2.10924 1.92697C2.06025 1.94769 2.01583 1.97785 1.9785 2.01574C1.94117 2.05363 1.91167 2.09849 1.89168 2.14778C1.87169 2.19707 1.8616 2.24981 1.862 2.303V4.347C1.86016 4.87497 2.06623 5.38244 2.43563 5.75965C2.80504 6.13687 3.30809 6.3535 3.83598 6.3627C4.36388 6.3719 4.87417 6.17293 5.2565 5.80881C5.63882 5.4447 5.86245 4.94471 5.879 4.417V2.302C5.8794 2.24881 5.86931 2.19607 5.84932 2.14678C5.82933 2.09749 5.79983 2.05263 5.7625 2.01474C5.72517 1.97685 5.68075 1.94669 5.63176 1.92597C5.58277 1.90526 5.53019 1.89539 5.477 1.895Z"
		fill="#FF4B55"
	/>
	<path
		d="M36 0V24H14.204V0H36ZM2.555 4.361C2.56107 4.67415 2.68834 4.97275 2.91004 5.194C3.13174 5.41525 3.43059 5.54191 3.74376 5.54735C4.05692 5.55279 4.36 5.43658 4.58924 5.22317C4.81849 5.00975 4.95605 4.71575 4.973 4.403V2.721H2.555V4.361Z"
		fill="#F5F5F5"
	/>
	<path
		d="M24.059 12.22L22.173 14.14C22.0544 14.2611 21.9128 14.3573 21.7565 14.4231C21.6003 14.4888 21.4325 14.5228 21.263 14.523H19.928L18.832 15.36C18.5744 15.557 18.2593 15.6638 17.935 15.664H16.565C16.4485 15.6638 16.3336 15.6361 16.2297 15.5833C16.1259 15.5305 16.0359 15.454 15.967 15.36L15.444 14.65V18.045C15.4444 18.0815 15.4376 18.1176 15.424 18.1515C15.4104 18.1853 15.3902 18.2161 15.3646 18.2421C15.3391 18.2681 15.3087 18.2888 15.2751 18.3031C15.2415 18.3173 15.2055 18.3247 15.169 18.325H12.153C12.1057 18.3242 12.0593 18.3115 12.0183 18.2879C11.9772 18.2644 11.9428 18.2308 11.9182 18.1904C11.8936 18.1499 11.8797 18.1039 11.8778 18.0566C11.8758 18.0094 11.8859 17.9623 11.907 17.92L12.829 16.044V15.157L12.679 15.36C12.6102 15.4539 12.5204 15.5303 12.4167 15.5831C12.313 15.6359 12.1984 15.6636 12.082 15.664H10.712C10.3877 15.6639 10.0725 15.5571 9.815 15.36L8.719 14.523H7.384C7.21448 14.5228 7.0467 14.4888 6.89046 14.4231C6.73421 14.3573 6.59264 14.2611 6.474 14.14L4.588 12.22C4.559 12.1908 4.5392 12.1538 4.53108 12.1134C4.52296 12.0731 4.52686 12.0313 4.54231 11.9931C4.55775 11.955 4.58406 11.9222 4.61796 11.8989C4.65186 11.8756 4.69186 11.8628 4.733 11.862H10.183C10.4455 11.8621 10.6998 11.9529 10.903 12.119L12.14 13.126C12.3429 13.2919 12.5969 13.3827 12.859 13.383H13.576C13.5717 12.8832 13.7661 12.4022 14.1164 12.0457C14.4667 11.6893 14.9442 11.4865 15.444 11.482C15.4935 11.4824 15.5425 11.4925 15.588 11.5118C15.6336 11.5312 15.675 11.5593 15.7097 11.5945C15.7444 11.6298 15.7719 11.6716 15.7905 11.7175C15.809 11.7634 15.8184 11.8125 15.818 11.862H16.084C16.1478 11.8625 16.2108 11.8756 16.2695 11.9005C16.3282 11.9255 16.3815 11.9617 16.4261 12.0072C16.4708 12.0527 16.5061 12.1066 16.5299 12.1658C16.5537 12.2249 16.5657 12.2882 16.565 12.352V12.622H15.994C15.9211 12.6225 15.849 12.6374 15.7818 12.6659C15.7147 12.6943 15.6538 12.7358 15.6027 12.7878C15.5516 12.8398 15.5113 12.9014 15.4841 12.9691C15.4568 13.0367 15.4432 13.1091 15.444 13.182V13.382H15.788C16.05 13.382 16.3039 13.2916 16.507 13.126L17.744 12.119C17.9469 11.9531 18.2009 11.8623 18.463 11.862H23.913C23.9542 11.8626 23.9944 11.8753 24.0284 11.8985C24.0625 11.9218 24.0889 11.9545 24.1045 11.9927C24.1201 12.0309 24.124 12.0728 24.116 12.1132C24.1079 12.1536 24.0881 12.1908 24.059 12.22ZM13.918 6.733L13.748 7.281C13.743 7.29619 13.7428 7.31259 13.7477 7.32785C13.7525 7.34311 13.762 7.35646 13.7749 7.36599C13.7877 7.37552 13.8033 7.38075 13.8193 7.38093C13.8353 7.38112 13.8509 7.37624 13.864 7.367L14.324 7.033L14.783 7.367C14.7961 7.37624 14.8117 7.38112 14.8277 7.38093C14.8437 7.38075 14.8593 7.37552 14.8721 7.36599C14.885 7.35646 14.8945 7.34311 14.8993 7.32785C14.9042 7.31259 14.904 7.29619 14.899 7.281L14.729 6.733L15.183 6.392C15.1958 6.38228 15.2052 6.36886 15.2101 6.35357C15.215 6.33828 15.215 6.32186 15.2102 6.30655C15.2054 6.29124 15.1959 6.27778 15.1832 6.26802C15.1705 6.25826 15.155 6.25267 15.139 6.252L14.574 6.247L14.396 5.702C14.3911 5.68657 14.3815 5.67309 14.3685 5.66353C14.3554 5.65396 14.3397 5.6488 14.3235 5.6488C14.3073 5.6488 14.2916 5.65396 14.2785 5.66353C14.2655 5.67309 14.2559 5.68657 14.251 5.702L14.073 6.247L13.508 6.252C13.4919 6.25247 13.4763 6.25793 13.4634 6.26762C13.4505 6.2773 13.441 6.29075 13.436 6.3061C13.4311 6.32145 13.431 6.33795 13.4359 6.35333C13.4407 6.36872 13.4502 6.38223 13.463 6.392L13.918 6.733ZM5.922 10.295L6.48 10.209L6.74 10.719C6.74727 10.7334 6.75893 10.7451 6.7733 10.7524C6.78766 10.7598 6.80399 10.7623 6.81991 10.7598C6.83583 10.7572 6.85052 10.7497 6.86187 10.7382C6.87321 10.7267 6.88061 10.7119 6.883 10.696L6.976 10.129L7.533 10.035C7.54871 10.0319 7.56308 10.024 7.57414 10.0124C7.5852 10.0008 7.59243 9.98606 7.59483 9.97021C7.59724 9.95437 7.5947 9.93817 7.58758 9.92382C7.58045 9.90947 7.56908 9.89766 7.555 9.89L7.055 9.625L7.138 9.057C7.14038 9.04128 7.13778 9.02521 7.13054 9.01104C7.12331 8.99688 7.11182 8.98535 7.09769 8.97806C7.08356 8.97077 7.06749 8.9681 7.05176 8.97042C7.03603 8.97274 7.02143 8.97994 7.01 8.991L6.607 9.394L6.102 9.137C6.08762 9.1303 6.07152 9.1282 6.05591 9.131C6.04029 9.13379 6.02592 9.14134 6.01476 9.15261C6.0036 9.16388 5.99619 9.17833 5.99355 9.19397C5.9909 9.20961 5.99316 9.22569 6 9.24L6.253 9.754L5.857 10.163C5.84588 10.1745 5.83861 10.1891 5.83617 10.2049C5.83373 10.2206 5.83625 10.2368 5.84339 10.2511C5.85053 10.2653 5.86193 10.277 5.87601 10.2846C5.8901 10.2921 5.90617 10.295 5.922 10.293V10.295ZM21.092 9.89C21.0779 9.89766 21.0666 9.90947 21.0594 9.92382C21.0523 9.93817 21.0498 9.95437 21.0522 9.97021C21.0546 9.98606 21.0618 10.0008 21.0729 10.0124C21.0839 10.024 21.0983 10.0319 21.114 10.035L21.671 10.13L21.764 10.696C21.7667 10.7116 21.7741 10.726 21.7854 10.7372C21.7967 10.7484 21.8111 10.7558 21.8268 10.7583C21.8424 10.7608 21.8585 10.7584 21.8727 10.7514C21.8869 10.7443 21.8985 10.733 21.906 10.719L22.166 10.209L22.725 10.295C22.741 10.2973 22.7574 10.2945 22.7717 10.2869C22.7861 10.2794 22.7977 10.2675 22.8049 10.253C22.8121 10.2385 22.8145 10.2221 22.8118 10.2061C22.8092 10.1901 22.8015 10.1754 22.79 10.164L22.394 9.754L22.646 9.241C22.6532 9.22665 22.6557 9.21042 22.6532 9.19457C22.6508 9.17871 22.6434 9.16403 22.6321 9.15258C22.6209 9.14112 22.6064 9.13346 22.5906 9.13067C22.5748 9.12787 22.5585 9.13009 22.544 9.137L22.039 9.394L21.637 8.991C21.6256 8.97952 21.6109 8.97195 21.595 8.96939C21.5791 8.96683 21.5627 8.96942 21.5483 8.97677C21.534 8.98413 21.5223 8.99587 21.5151 9.01029C21.5078 9.02472 21.5053 9.04108 21.508 9.057L21.592 9.625L21.092 9.89ZM9.311 7.58L9.858 7.718L9.907 8.291C9.90837 8.30686 9.91468 8.32188 9.92505 8.33396C9.93542 8.34604 9.94932 8.35455 9.96478 8.35831C9.98025 8.36207 9.9965 8.36087 10.0113 8.35489C10.026 8.34892 10.0385 8.33846 10.047 8.325L10.346 7.838L10.896 7.968C10.9119 7.97166 10.9285 7.97018 10.9435 7.96377C10.9585 7.95736 10.9711 7.94636 10.9794 7.93235C10.9878 7.91833 10.9915 7.90204 10.9899 7.8858C10.9884 7.86956 10.9818 7.85422 10.971 7.842L10.608 7.402L10.899 6.91C10.9071 6.89623 10.9108 6.88027 10.9094 6.86434C10.9081 6.84841 10.9018 6.83329 10.8915 6.82108C10.8811 6.80888 10.8672 6.8002 10.8518 6.79624C10.8363 6.79228 10.8199 6.79325 10.805 6.799L10.282 7.014L9.912 6.58C9.90144 6.56786 9.8873 6.55939 9.87162 6.5558C9.85593 6.55222 9.83952 6.5537 9.82473 6.56003C9.80994 6.56637 9.79755 6.57724 9.78933 6.59107C9.78111 6.6049 9.77749 6.62098 9.779 6.637L9.819 7.21L9.299 7.434C9.28447 7.44062 9.27233 7.45154 9.2642 7.46528C9.25608 7.47902 9.25237 7.49492 9.25357 7.51084C9.25477 7.52676 9.26082 7.54192 9.27091 7.55429C9.281 7.56666 9.29565 7.57563 9.311 7.58ZM17.749 7.968L18.299 7.838L18.597 8.325C18.6055 8.33846 18.618 8.34892 18.6327 8.35489C18.6475 8.36087 18.6638 8.36207 18.6792 8.35831C18.6947 8.35455 18.7086 8.34604 18.7189 8.33396C18.7293 8.32188 18.7356 8.30686 18.737 8.291L18.787 7.719L19.334 7.58C19.3494 7.57575 19.3631 7.56688 19.3733 7.55457C19.3835 7.54226 19.3897 7.52712 19.391 7.51119C19.3923 7.49526 19.3887 7.47932 19.3807 7.46551C19.3726 7.45171 19.3605 7.44071 19.346 7.434L18.826 7.21L18.866 6.637C18.8676 6.62084 18.8639 6.6046 18.8556 6.59066C18.8472 6.57673 18.8346 6.56583 18.8197 6.55957C18.8047 6.55331 18.7881 6.55201 18.7723 6.55587C18.7565 6.55972 18.7424 6.56853 18.732 6.581L18.362 7.015L17.839 6.799C17.8241 6.79325 17.8077 6.79228 17.7922 6.79624C17.7768 6.8002 17.7629 6.80888 17.7525 6.82108C17.7422 6.83329 17.7359 6.84841 17.7346 6.86434C17.7332 6.88027 17.7369 6.89623 17.745 6.91L18.037 7.403L17.673 7.843C17.6629 7.85537 17.6569 7.87059 17.6558 7.88654C17.6547 7.90248 17.6586 7.91838 17.6669 7.93201C17.6753 7.94564 17.6877 7.95633 17.7024 7.9626C17.7171 7.96887 17.7334 7.97141 17.749 7.968ZM11.329 6.778L11.839 7.022L11.778 7.593C11.7761 7.60879 11.7792 7.62478 11.7869 7.63871C11.7945 7.65265 11.8064 7.66383 11.8207 7.67067C11.8351 7.67752 11.8512 7.67969 11.8669 7.67688C11.8825 7.67407 11.8969 7.66642 11.908 7.655L12.295 7.236L12.81 7.473C12.8248 7.47941 12.8412 7.48104 12.8569 7.47765C12.8726 7.47427 12.8869 7.46604 12.8977 7.45412C12.9085 7.4422 12.9153 7.4272 12.9172 7.41121C12.919 7.39523 12.9158 7.37907 12.908 7.365L12.636 6.861L13.016 6.436C13.0269 6.42415 13.0338 6.40919 13.0358 6.3932C13.0378 6.37721 13.0347 6.36102 13.0269 6.34689C13.0192 6.33276 13.0072 6.3214 12.9927 6.31443C12.9782 6.30745 12.9619 6.3052 12.946 6.308L12.391 6.416L12.111 5.916C12.1031 5.90185 12.0909 5.8906 12.0761 5.8839C12.0613 5.87719 12.0448 5.87539 12.029 5.87874C12.0131 5.88209 11.9987 5.89042 11.9879 5.90252C11.9771 5.91463 11.9705 5.92986 11.969 5.946L11.899 6.516L11.346 6.632C11.3303 6.6356 11.3161 6.64398 11.3054 6.65598C11.2946 6.66797 11.2878 6.683 11.286 6.699C11.2841 6.715 11.2873 6.73118 11.295 6.74533C11.3027 6.75947 11.3146 6.77089 11.329 6.778ZM19.531 8.833L20.095 8.815L20.295 9.352C20.3007 9.36688 20.3109 9.3796 20.3242 9.38836C20.3375 9.39712 20.3532 9.40147 20.3692 9.40081C20.3851 9.40015 20.4004 9.3945 20.4129 9.38466C20.4254 9.37483 20.4346 9.3613 20.439 9.346L20.596 8.795L21.16 8.768C21.1762 8.76708 21.1917 8.76112 21.2044 8.75095C21.2171 8.74078 21.2263 8.72691 21.2307 8.71127C21.2351 8.69564 21.2345 8.67901 21.229 8.66373C21.2235 8.64844 21.2134 8.63525 21.2 8.626L20.733 8.303L20.882 7.749C20.8865 7.73354 20.886 7.71704 20.8805 7.70188C20.8751 7.68673 20.8649 7.67371 20.8516 7.66469C20.8382 7.65568 20.8223 7.65114 20.8062 7.65174C20.7901 7.65233 20.7747 7.65803 20.762 7.668L20.316 8.02L19.844 7.705C19.8306 7.69578 19.8146 7.6911 19.7984 7.69163C19.7822 7.69215 19.7665 7.69787 19.7538 7.70793C19.741 7.718 19.7319 7.73189 19.7276 7.74755C19.7233 7.76322 19.7241 7.77985 19.73 7.795L19.922 8.336L19.481 8.696C19.469 8.70635 19.4605 8.72009 19.4565 8.73541C19.4525 8.75072 19.4533 8.76688 19.4587 8.78175C19.4642 8.79661 19.474 8.80947 19.4869 8.81863C19.4998 8.82778 19.5152 8.83279 19.531 8.833ZM7.485 8.768L8.049 8.795L8.207 9.346C8.21143 9.3613 8.22055 9.37483 8.23309 9.38466C8.24562 9.3945 8.26092 9.40015 8.27684 9.40081C8.29276 9.40147 8.30848 9.39712 8.32179 9.38836C8.3351 9.3796 8.34531 9.36688 8.351 9.352L8.551 8.815L9.115 8.833C9.13105 8.83303 9.14673 8.82811 9.15988 8.81891C9.17303 8.8097 9.18303 8.79666 9.1885 8.78157C9.19396 8.76648 9.19464 8.75006 9.19044 8.73457C9.18623 8.71908 9.17735 8.70526 9.165 8.695L8.724 8.335L8.915 7.795C8.92059 7.77998 8.92129 7.76359 8.917 7.74815C8.91271 7.73271 8.90365 7.71902 8.89112 7.70904C8.87859 7.69906 8.86322 7.69329 8.84722 7.69257C8.83121 7.69184 8.81538 7.69619 8.802 7.705L8.33 8.02L7.884 7.668C7.87135 7.65803 7.85585 7.65233 7.83976 7.65174C7.82366 7.65114 7.80778 7.65568 7.79443 7.66469C7.78108 7.67371 7.77093 7.68673 7.76546 7.70188C7.75999 7.71704 7.75948 7.73354 7.764 7.749L7.914 8.303L7.446 8.626C7.43264 8.63525 7.42251 8.64844 7.41701 8.66373C7.41151 8.67901 7.41092 8.69564 7.41533 8.71127C7.41973 8.72691 7.42891 8.74078 7.44158 8.75095C7.45425 8.76112 7.46878 8.76708 7.485 8.768ZM16.01 6.86L15.738 7.364C15.7306 7.37805 15.7276 7.39405 15.7296 7.40982C15.7317 7.4256 15.7385 7.44036 15.7492 7.45208C15.76 7.4638 15.7741 7.47192 15.7896 7.4753C15.8052 7.47869 15.8214 7.47719 15.836 7.471L16.351 7.235L16.737 7.654C16.748 7.66584 16.7625 7.67387 16.7783 7.67692C16.7942 7.67998 16.8106 7.6779 16.8252 7.67099C16.8398 7.66408 16.8518 7.6527 16.8595 7.63849C16.8672 7.62429 16.8702 7.608 16.868 7.592L16.806 7.022L17.316 6.777C17.3305 6.76997 17.3424 6.75863 17.3502 6.74456C17.3579 6.73048 17.3612 6.71435 17.3594 6.69837C17.3577 6.68238 17.351 6.66733 17.3404 6.65527C17.3297 6.64322 17.3156 6.63474 17.3 6.631L16.747 6.514L16.677 5.944C16.6751 5.92801 16.6683 5.91302 16.6573 5.9012C16.6464 5.88938 16.632 5.88133 16.6162 5.87821C16.6004 5.8751 16.584 5.87708 16.5694 5.88387C16.5549 5.89066 16.5428 5.90191 16.535 5.916L16.255 6.415L15.7 6.307C15.6841 6.3042 15.6678 6.30645 15.6533 6.31343C15.6388 6.3204 15.6268 6.33175 15.6191 6.34589C15.6113 6.36002 15.6082 6.37621 15.6102 6.3922C15.6122 6.40819 15.6191 6.42315 15.63 6.435L16.01 6.86ZM2.26 2.1C2.2197 2.09942 2.18013 2.11078 2.14629 2.13266C2.11244 2.15454 2.08584 2.18595 2.06983 2.22294C2.05382 2.25993 2.04912 2.30083 2.05633 2.34048C2.06354 2.38013 2.08234 2.41676 2.11034 2.44574C2.13835 2.47472 2.17431 2.49476 2.21369 2.50332C2.25308 2.51188 2.29411 2.50859 2.33162 2.49386C2.36914 2.47912 2.40144 2.4536 2.42447 2.42053C2.44749 2.38745 2.46021 2.34829 2.461 2.308V2.304C2.46127 2.2505 2.44041 2.19906 2.40296 2.16086C2.36551 2.12266 2.31349 2.10079 2.26 2.1ZM5.474 2.509C5.5143 2.50958 5.55387 2.49822 5.58771 2.47634C5.62156 2.45446 5.64816 2.42305 5.66417 2.38606C5.68018 2.34907 5.68488 2.30817 5.67767 2.26852C5.67046 2.22887 5.65166 2.19224 5.62366 2.16326C5.59565 2.13428 5.55969 2.11424 5.52031 2.10568C5.48092 2.09712 5.43989 2.10041 5.40238 2.11514C5.36486 2.12988 5.33256 2.1554 5.30953 2.18847C5.28651 2.22155 5.27379 2.26071 5.273 2.301V2.304C5.27247 2.35767 5.29321 2.40936 5.33069 2.44778C5.36817 2.4862 5.42033 2.50821 5.474 2.509ZM2.26 3.734C2.21966 3.73322 2.18 3.74441 2.14603 3.76617C2.11205 3.78793 2.08529 3.81927 2.06913 3.85623C2.05296 3.8932 2.04812 3.93412 2.05522 3.97384C2.06232 4.01355 2.08103 4.05027 2.10899 4.07936C2.13695 4.10844 2.17291 4.12857 2.21232 4.13722C2.25172 4.14587 2.29281 4.14264 2.33038 4.12793C2.36795 4.11323 2.40032 4.08772 2.42339 4.05463C2.44646 4.02153 2.4592 3.98234 2.46 3.942V3.938C2.46027 3.8845 2.43941 3.83306 2.40196 3.79486C2.36451 3.75666 2.31349 3.73479 2.26 3.734ZM5.473 4.143C5.5133 4.14358 5.55287 4.13222 5.58671 4.11034C5.62056 4.08846 5.64716 4.05704 5.66317 4.02006C5.67918 3.98307 5.68388 3.94217 5.67667 3.90252C5.66946 3.86287 5.65066 3.82624 5.62266 3.79726C5.59465 3.76828 5.55869 3.74824 5.51931 3.73968C5.47992 3.73112 5.43889 3.73441 5.40138 3.74914C5.36386 3.76388 5.33156 3.7894 5.30853 3.82247C5.28551 3.85555 5.27279 3.89471 5.272 3.935V3.938C5.27147 3.99167 5.29221 4.04336 5.32969 4.08178C5.36717 4.1202 5.41933 4.14221 5.473 4.143ZM3.867 2.099C3.82666 2.09822 3.787 2.10941 3.75303 2.13117C3.71905 2.15293 3.69229 2.18427 3.67613 2.22123C3.65996 2.2582 3.65512 2.29912 3.66222 2.33884C3.66932 2.37855 3.68803 2.41527 3.71599 2.44436C3.74395 2.47344 3.77991 2.49357 3.81932 2.50222C3.85872 2.51087 3.89981 2.50764 3.93738 2.49293C3.97495 2.47823 4.00732 2.45272 4.03039 2.41963C4.05346 2.38653 4.0662 2.34734 4.067 2.307V2.303C4.06727 2.2495 4.04641 2.19806 4.00896 2.15986C3.97151 2.12166 3.92049 2.09979 3.867 2.099ZM5.072 5.649C5.11234 5.64978 5.152 5.63859 5.18597 5.61683C5.21995 5.59507 5.24671 5.56373 5.26287 5.52677C5.27904 5.4898 5.28388 5.44888 5.27678 5.40916C5.26968 5.36945 5.25097 5.33273 5.22301 5.30364C5.19505 5.27456 5.15909 5.25443 5.11968 5.24578C5.08028 5.23713 5.03919 5.24036 5.00162 5.25507C4.96405 5.26977 4.93168 5.29528 4.90861 5.32837C4.88554 5.36147 4.8728 5.40066 4.872 5.441V5.445C4.87173 5.4985 4.89259 5.54994 4.93004 5.58814C4.96749 5.62634 5.01851 5.64821 5.072 5.649ZM2.685 5.241C2.6447 5.24042 2.60513 5.25178 2.57129 5.27366C2.53744 5.29554 2.51084 5.32695 2.49483 5.36394C2.47882 5.40093 2.47412 5.44183 2.48133 5.48148C2.48854 5.52113 2.50734 5.55776 2.53534 5.58674C2.56335 5.61572 2.59931 5.63576 2.63869 5.64432C2.67808 5.65288 2.71911 5.64959 2.75662 5.63486C2.79414 5.62012 2.82644 5.5946 2.84947 5.56153C2.87249 5.52845 2.88521 5.48929 2.886 5.449V5.445C2.88627 5.3915 2.86541 5.34006 2.82796 5.30186C2.79051 5.26366 2.73949 5.24179 2.686 5.241H2.685Z"
		fill="#FFE15A"
	/>
	<path
		d="M3.61 3.835H4.13V4.187C4.13053 4.22114 4.12432 4.25506 4.11174 4.2868C4.09916 4.31855 4.08045 4.3475 4.05668 4.37202C4.0329 4.39653 4.00454 4.41613 3.97319 4.42968C3.94185 4.44323 3.90814 4.45047 3.874 4.451C3.83986 4.45153 3.80594 4.44532 3.7742 4.43274C3.74245 4.42016 3.7135 4.40145 3.68898 4.37768C3.66447 4.3539 3.64487 4.32554 3.63132 4.29419C3.61777 4.26285 3.61053 4.22914 3.61 4.195V3.835ZM3.61 3.352C3.60881 3.42096 3.63505 3.48756 3.68297 3.53717C3.73089 3.58677 3.79654 3.61531 3.8655 3.6165C3.93446 3.61769 4.00106 3.59145 4.05067 3.54353C4.10027 3.49561 4.12881 3.42996 4.13 3.361V3H3.61V3.352ZM3.61 5.029C3.60881 5.09796 3.63505 5.16456 3.68297 5.21417C3.73089 5.26377 3.79654 5.29231 3.8655 5.2935C3.93446 5.29469 4.00106 5.26845 4.05067 5.22053C4.10027 5.17261 4.12881 5.10696 4.13 5.038V4.678H3.61V5.029ZM4.31 3.835V4.187C4.31461 4.25191 4.3434 4.31273 4.39067 4.35745C4.43794 4.40217 4.50027 4.42754 4.56533 4.42854C4.6304 4.42955 4.69347 4.40612 4.74211 4.36288C4.79074 4.31964 4.82139 4.25974 4.828 4.195V3.835H4.31ZM2.912 4.187C2.90933 4.22236 2.91391 4.25789 2.92548 4.29141C2.93704 4.32493 2.95534 4.35573 2.97925 4.38191C3.00316 4.4081 3.03217 4.42912 3.0645 4.44368C3.09683 4.45824 3.1318 4.46603 3.16725 4.46658C3.20271 4.46713 3.2379 4.46041 3.27066 4.44686C3.30343 4.4333 3.33307 4.41319 3.35778 4.38775C3.38248 4.36231 3.40172 4.33209 3.41431 4.29894C3.4269 4.2658 3.43258 4.23042 3.431 4.195V3.835H2.912V4.187Z"
		fill="#41479B"
	/>
</svg>
