<svg viewBox="0 0 36 24" fill="none" xmlns="http://www.w3.org/2000/svg">
	<path
		d="M36 2.667H0V0H36V2.667ZM36 5.333H0V8H36V5.333ZM36 10.666H0V13.333H36V10.666ZM0 21.333V24H36V21.333H0ZM36 16H0V18.667H36V16Z"
		fill="#FFE15A"
	/>
	<path
		d="M36 2.667V5.333H0V2.667H36ZM0 10.666H36V8H0V10.666ZM0 16H36V13.333H0V16ZM0 21.333H36V18.667H0V21.333Z"
		fill="#FF4B55"
	/>
	<path d="M18 12H0V0H18" fill="#64466E" />
	<path
		d="M16.554 5.319H15.125V3.657H15.329V3.24H13.288V3.655H13.492V5.32H12.675V3.657H12.879V3.24H10.837V3.655H11.042V5.32H9.817V3.24H10.021V2.825H7.979V3.24H8.183V5.318H6.958V3.657H7.162V3.24H5.121V3.655H5.325V5.32H4.508V3.657H4.712V3.24H2.671V3.655H2.875V5.32H1.24V5.735H1.445V9.475H4.303V8.227C4.303 8.11866 4.34604 8.01476 4.42265 7.93815C4.49926 7.86154 4.60316 7.8185 4.7115 7.8185C4.81984 7.8185 4.92374 7.86154 5.00035 7.93815C5.07696 8.01476 5.12 8.11866 5.12 8.227V9.474H7.161V8.227C7.161 8.11866 7.20404 8.01476 7.28065 7.93815C7.35725 7.86154 7.46116 7.8185 7.5695 7.8185C7.67784 7.8185 7.78174 7.86154 7.85835 7.93815C7.93496 8.01476 7.978 8.11866 7.978 8.227V9.474H8.386V8.019C8.386 7.9385 8.40186 7.85879 8.43266 7.78442C8.46347 7.71004 8.50862 7.64247 8.56554 7.58554C8.62247 7.52862 8.69004 7.48347 8.76441 7.45266C8.83879 7.42186 8.9185 7.406 8.999 7.406C9.0795 7.406 9.15921 7.42186 9.23359 7.45266C9.30796 7.48347 9.37553 7.52862 9.43246 7.58554C9.48938 7.64247 9.53453 7.71004 9.56534 7.78442C9.59614 7.85879 9.612 7.9385 9.612 8.019V9.474H10.02V8.227C10.02 8.11879 10.063 8.01502 10.1395 7.9385C10.216 7.86199 10.3198 7.819 10.428 7.819C10.5362 7.819 10.64 7.86199 10.7165 7.9385C10.793 8.01502 10.836 8.11879 10.836 8.227V9.474H12.878V8.227C12.878 8.11866 12.921 8.01476 12.9976 7.93815C13.0743 7.86154 13.1782 7.8185 13.2865 7.8185C13.3948 7.8185 13.4987 7.86154 13.5754 7.93815C13.652 8.01476 13.695 8.11866 13.695 8.227V9.474H16.553V5.734H16.757V5.32L16.554 5.319ZM4.1 6.98H3.283V5.734C3.283 5.62566 3.32604 5.52176 3.40265 5.44515C3.47926 5.36854 3.58316 5.3255 3.6915 5.3255C3.79984 5.3255 3.90374 5.36854 3.98035 5.44515C4.05696 5.52176 4.1 5.62566 4.1 5.734V6.98ZM6.55 6.98H5.733V5.734C5.733 5.62566 5.77604 5.52176 5.85265 5.44515C5.92926 5.36854 6.03316 5.3255 6.1415 5.3255C6.24984 5.3255 6.35374 5.36854 6.43035 5.44515C6.50696 5.52176 6.55 5.62566 6.55 5.734V6.981V6.98ZM9.408 5.733H8.592V4.903C8.592 4.79479 8.63499 4.69102 8.7115 4.6145C8.78802 4.53799 8.89179 4.495 9 4.495C9.10821 4.495 9.21198 4.53799 9.2885 4.6145C9.36501 4.69102 9.408 4.79479 9.408 4.903V5.733ZM12.267 6.98H11.45V5.734C11.45 5.62566 11.493 5.52176 11.5696 5.44515C11.6463 5.36854 11.7502 5.3255 11.8585 5.3255C11.9668 5.3255 12.0707 5.36854 12.1474 5.44515C12.224 5.52176 12.267 5.62566 12.267 5.734V6.981V6.98ZM14.717 6.98H13.9V5.734C13.9 5.62566 13.943 5.52176 14.0196 5.44515C14.0963 5.36854 14.2002 5.3255 14.3085 5.3255C14.4168 5.3255 14.5207 5.36854 14.5974 5.44515C14.674 5.52176 14.717 5.62566 14.717 5.734V6.981V6.98Z"
		fill="#F5F5F5"
	/>
</svg>
