<svg viewBox="0 0 36 24" fill="none" xmlns="http://www.w3.org/2000/svg">
	<path d="M36 24H0V17.684H36V24Z" fill="#73AF00" />
	<path d="M36 0V17.684H4.966V24H0V0H36Z" fill="#FF4B55" />
	<path
		d="M4.014 18.133H4.124V18.342H4.014V18.555H3.904V18.342H3.794V18.133H3.904V17.925H4.014V18.133ZM1.936 20.751H2.154V21.273H1.936V21.799H1.716V22.325H1.498V21.799H1.278V21.273H1.061V20.751H1.279V20.225H1.499V19.703H1.716V20.225H1.936V20.751ZM1.716 20.751H1.498V21.273H1.716V20.751ZM3.903 6.08H4.013V5.87H4.124V5.657H4.014V5.453H3.904V5.657H3.794V5.87H3.904L3.903 6.08ZM2.265 5.454H2.153V5.663H2.045V5.871H2.153V6.084H2.265V5.871H2.373V5.663H2.265V5.454ZM2.703 18.551H2.813V18.342H2.921V18.129H2.813V17.92H2.703V18.129H2.593V18.342H2.703V18.551ZM2.265 17.921H2.153V18.129H2.045V18.342H2.153V18.551H2.265V18.342H2.373V18.129H2.265V17.921ZM2.921 5.663H2.813V5.454H2.703V5.663H2.593V5.871H2.703V6.084H2.813V5.871H2.921V5.663ZM0.95 6.084H1.062V5.871H1.169V5.663H1.062V5.454H0.95V5.663H0.84V5.871H0.948L0.95 6.084ZM0.95 18.551H1.06V18.342H1.167V18.129H1.06V17.92H0.95V18.129H0.84V18.342H0.95V18.551ZM3.687 20.751H3.907V21.273H3.687V21.799H3.47V22.325H3.25V21.799H3.032V21.273H2.812V20.751H3.032V20.225H3.25V19.703H3.469V20.225H3.687V20.751ZM3.469 20.751H3.25V21.273H3.469V20.751ZM3.033 3.254H2.813V2.727H3.033V2.206H3.251V1.68H3.47V2.206H3.688V2.727H3.908V3.254H3.688V3.776H3.47V4.302H3.25V3.776H3.032L3.033 3.254ZM3.251 3.254H3.47V2.727H3.25L3.251 3.254ZM2.703 11.007H3.033V11.428H3.251V11.791H3.47V12.209H3.25V12.581H3.032V12.998H2.702V13.492H2.592V13.728H2.372V13.492H2.264V12.998H1.935V12.58H1.715V12.208H1.497V11.791H1.715V11.428H1.935V11.006H2.265V10.512H2.372V10.272H2.592V10.507H2.702L2.703 11.007ZM2.373 11.424H2.593V10.902H2.373V11.424ZM2.045 11.687H1.825V12.317H2.045V11.687ZM2.593 12.581H2.373V13.102H2.593V12.581ZM2.921 11.687V12.317H3.14V11.687H2.921ZM2.703 11.32V11.528H2.593V11.688H2.373V11.528H2.265V11.32H2.045V11.633H2.154V11.791H2.265V12.209H2.154V12.367H2.045V12.68H2.265V12.472H2.373V12.318H2.593V12.472H2.703V12.68H2.921V12.367H2.813V12.209H2.703V11.791H2.813V11.633H2.921V11.32H2.703ZM4.966 0V24H0V0H4.966ZM4.126 1.68H4.345V1.054H4.126V1.68ZM2.373 1.68H2.593V1.054H2.373V1.68ZM0.621 1.68H0.841V1.054H0.62L0.621 1.68ZM0.621 3.254H0.841V3.776H1.061V4.302H1.279V4.828H1.499V5.35H1.716V4.828H1.936V4.302H2.154V3.776H2.374V3.254H2.593V3.776H2.813V4.302H3.031V4.828H3.251V5.35H3.47V4.828H3.688V4.302H3.908V3.776H4.126V3.254H4.345V2.728H4.127V2.206H3.907V1.68H3.688V1.158H3.47V0.632H3.25V1.158H3.032V1.68H2.812V2.206H2.592V2.728H2.372V2.206H2.152V1.68H1.935V1.158H1.717V0.632H1.497V1.158H1.277V1.68H1.06V2.206H0.84V2.728H0.62L0.621 3.254ZM3.794 6.289V6.602H4.124V6.289H4.234V5.976H4.341V5.558H4.233V5.241H4.124V4.928H3.794V5.241H3.686V5.558H3.576V5.976H3.686V6.289H3.794ZM4.126 7.445H4.345V6.815H4.126V7.445ZM4.345 4.719V4.093H4.126V4.719H4.345ZM2.92 6.606V6.293H3.032V5.976H3.139V5.558H3.032V5.241H2.92V4.932H2.592V5.241H2.372V4.932H2.044V5.241H1.935V5.558H1.825V5.976H1.935V6.293H2.045V6.606H2.372V6.293H2.592V6.606H2.92ZM2.372 6.815V7.445H2.592V6.815H2.372ZM2.592 4.719V4.093H2.372V4.719H2.592ZM0.62 4.719H0.84V4.093H0.62V4.719ZM0.62 5.976H0.73V6.293H0.84V6.606H1.167V6.293H1.277V5.976H1.385V5.558H1.278V5.241H1.168V4.932H0.84V5.241H0.73V5.558H0.62V5.976ZM0.62 7.446H0.84V6.815H0.62V7.446ZM0.62 9.854H0.84V9.437H0.62V9.854ZM0.62 12.317H0.84V11.687H0.62V12.317ZM0.62 14.567H0.84V14.15H0.62V14.567ZM0.62 17.185H0.84V16.559H0.62V17.185ZM0.62 18.446H0.73V18.759H0.84V19.072H1.167V18.759H1.277V18.446H1.385V18.024H1.278V17.711H1.168V17.398H0.84V17.711H0.73V18.024H0.62V18.446ZM0.62 19.912H0.84V19.286H0.62V19.912ZM0.84 22.325H0.62V22.951H0.84V22.325ZM2.592 22.325H2.372V22.951H2.592V22.325ZM4.344 22.325H4.125V22.951H4.344V22.325ZM4.344 20.751H4.125V20.225H3.907V19.703H3.687V19.177H3.47V18.655H3.251V19.177H3.031V19.703H2.813V20.225H2.593V20.751H2.373V20.225H2.153V19.703H1.936V19.177H1.716V18.655H1.498V19.177H1.278V19.703H1.061V20.225H0.841V20.751H0.62V21.273H0.84V21.799H1.06V22.325H1.278V22.847H1.498V23.368H1.717V22.847H1.935V22.325H2.153V21.799H2.373V21.273H2.592V21.799H2.812V22.325H3.032V22.847H3.25V23.368H3.469V22.847H3.687V22.325H3.907V21.799H4.127V21.273H4.344V20.751ZM2.372 17.711V17.398H2.044V17.711H1.935V18.024H1.825V18.446H1.935V18.759H2.045V19.072H2.372V18.759H2.592V19.072H2.92V18.759H3.032V18.446H3.139V18.024H3.032V17.711H2.92V17.398H2.592V17.711H2.372ZM2.592 17.185V16.559H2.372V17.185H2.592ZM2.372 19.285V19.912H2.592V19.286L2.372 19.285ZM4.123 17.712V17.403H3.793V17.712H3.685V18.029H3.575V18.446H3.685V18.759H3.793V19.072H4.123V18.759H4.233V18.446H4.34V18.029H4.232V17.711L4.123 17.712ZM4.343 17.185V16.559H4.125V17.185H4.343ZM4.125 19.285V19.912H4.344V19.286L4.125 19.285ZM4.344 14.15H4.125V14.568H4.344V14.15ZM4.344 8.28H4.125V7.758H3.907V7.232H3.687V6.71H3.47V6.184H3.251V6.71H3.031V7.232H2.813V7.759H2.593V8.28H2.373V7.758H2.153V7.232H1.936V6.71H1.716V6.184H1.498V6.71H1.278V7.232H1.06V7.758H0.841V8.28H0.62V8.806H0.84V9.332H1.058V9.854H1.278V10.376H1.498V9.854H1.715V9.332H1.935V8.806H1.715V8.176H1.935V8.598H2.153V9.437H2.264V9.954L1.935 9.958V10.376H1.715V10.689H1.497V11.215H1.277V10.689H1.06V10.376H0.841V10.063H0.62V11.006H0.84V11.428H1.058V11.791H1.278V12.209H1.058V12.581H0.841V12.998H0.62V13.942H0.84V13.624H1.058V13.311H1.278V12.789H1.498V13.311H1.715V13.624H1.935V14.046L2.265 14.05V14.568H2.153V15.407H1.935V15.829H1.715V15.194H1.935V14.672H1.715V14.15H1.497V13.624H1.277V14.15H1.06V14.672H0.841V15.194H0.62V15.72H0.84V16.242H1.06V16.768H1.278V17.294H1.498V17.816H1.715V17.294H1.935V16.768H2.153V16.242H2.373V15.72H2.592V16.242H2.812V16.768H3.032V17.294H3.25V17.816H3.469V17.294H3.687V16.768H3.907V16.242H4.125V15.72H4.344V15.194H4.125V14.672H3.907V14.15H3.687V13.624H3.47V14.15H3.25V14.672H3.03V15.194H3.25V15.829H3.03V15.407H2.812V14.567H2.702V14.046H3.032V13.624H3.25V13.311H3.469V12.789H3.687V13.311H3.907V13.624H4.127V13.942H4.344V12.998H4.126V12.581H3.906V12.209H3.687V11.791H3.907V11.428H4.127V11.006H4.344V10.063H4.126V10.376H3.906V10.689H3.687V11.215H3.47V10.689H3.25V10.376H3.032V9.96H2.702V9.438H2.812V8.598H3.03V8.177H3.25V8.807H3.03V9.333H3.25V9.855H3.469V10.377H3.687V9.855H3.907V9.333H4.125V8.807H4.344V8.28ZM4.125 9.437V9.854H4.344V9.437H4.125ZM4.125 11.687V12.317H4.344V11.687H4.125ZM1.28 3.254H1.06V2.727H1.278V2.206H1.498V1.68H1.715V2.206H1.935V2.727H2.153V3.254H1.935V3.776H1.715V4.302H1.497V3.776H1.277L1.28 3.254ZM1.5 3.254H1.717V2.727H1.499L1.5 3.254Z"
		fill="#F5F5F5"
	/>
</svg>
