<svg viewBox="0 0 36 24" fill="none" xmlns="http://www.w3.org/2000/svg">
	<path d="M36 24H0V0H36" fill="#F5F5F5" />
	<path
		d="M18 0V12L0 0H18ZM36 0L18 12H36V0ZM0 24L18 12H0V24ZM36 24L18 12V24H36Z"
		fill="#464655"
	/>
	<path
		d="M19.986 10.105H16.014C15.9482 10.1054 15.8831 10.1188 15.8224 10.1444C15.7618 10.17 15.7068 10.2074 15.6606 10.2543C15.6144 10.3012 15.578 10.3568 15.5533 10.4178C15.5287 10.4789 15.5163 10.5442 15.517 10.61V13.137C15.517 13.7955 15.7786 14.4271 16.2443 14.8927C16.7099 15.3584 17.3415 15.62 18 15.62C18.6585 15.62 19.2901 15.3584 19.7557 14.8927C20.2214 14.4271 20.483 13.7955 20.483 13.137V10.61C20.4835 10.5442 20.4711 10.479 20.4464 10.418C20.4217 10.357 20.3852 10.3015 20.3391 10.2546C20.2929 10.2077 20.238 10.1703 20.1774 10.1447C20.1168 10.119 20.0518 10.1055 19.986 10.105ZM19.49 13.137C19.49 13.5322 19.333 13.9112 19.0536 14.1906C18.7742 14.47 18.3952 14.627 18 14.627C17.6048 14.627 17.2258 14.47 16.9464 14.1906C16.667 13.9112 16.51 13.5322 16.51 13.137V11.116H19.49V13.137ZM18.012 9.91L17.629 9.715L18.012 9.52L18.396 9.715L18.012 9.91ZM15.52 9.91L15.329 9.813V9.618L15.52 9.52L15.904 9.715L15.52 9.91ZM20.696 9.618V9.813L20.504 9.91L20.121 9.715L20.504 9.52L20.696 9.618Z"
		fill="#FF4B55"
	/>
	<path
		d="M16.51 11.116H19.49V13.136C19.49 13.5312 19.333 13.9112 19.0536 14.1906C18.7742 14.47 18.3952 14.627 18 14.627C17.6048 14.627 17.2258 14.47 16.9464 14.1906C16.667 13.9112 16.51 13.5312 16.51 13.136V11.116ZM18.683 9.813C18.7025 9.8136 18.7218 9.80834 18.7383 9.79789C18.7549 9.78745 18.7679 9.7723 18.7757 9.7544C18.7836 9.73649 18.7859 9.71665 18.7824 9.69741C18.7789 9.67818 18.7697 9.66044 18.756 9.64647C18.7423 9.63251 18.7248 9.62295 18.7056 9.61903C18.6865 9.61512 18.6666 9.61702 18.6485 9.62449C18.6305 9.63197 18.615 9.64468 18.6043 9.66098C18.5935 9.67729 18.5878 9.69645 18.588 9.716C18.588 9.74138 18.5979 9.76576 18.6157 9.78389C18.6335 9.80203 18.6576 9.81248 18.683 9.813ZM19.833 9.618C19.8135 9.6176 19.7944 9.62301 19.778 9.63354C19.7616 9.64406 19.7488 9.65922 19.741 9.67709C19.7333 9.69496 19.7311 9.71472 19.7346 9.73386C19.7382 9.753 19.7474 9.77065 19.761 9.78456C19.7746 9.79846 19.7921 9.808 19.8111 9.81194C19.8302 9.81589 19.85 9.81407 19.868 9.80672C19.8861 9.79936 19.9015 9.7868 19.9123 9.77065C19.9232 9.75449 19.929 9.73547 19.929 9.716C19.9291 9.70326 19.9268 9.69062 19.922 9.6788C19.9172 9.66698 19.9102 9.65622 19.9013 9.64712C19.8924 9.63802 19.8818 9.63076 19.87 9.62576C19.8583 9.62077 19.8457 9.61813 19.833 9.618ZM17.341 9.813C17.3605 9.8134 17.3796 9.80799 17.396 9.79747C17.4124 9.78694 17.4252 9.77178 17.433 9.75391C17.4407 9.73604 17.4429 9.71628 17.4394 9.69714C17.4358 9.678 17.4266 9.66035 17.413 9.64644C17.3994 9.63254 17.3819 9.623 17.3629 9.61905C17.3438 9.61511 17.324 9.61693 17.306 9.62428C17.2879 9.63164 17.2725 9.6442 17.2617 9.66035C17.2508 9.67651 17.245 9.69553 17.245 9.715C17.2449 9.72774 17.2472 9.74038 17.252 9.7522C17.2568 9.76402 17.2638 9.77478 17.2727 9.78388C17.2816 9.79298 17.2922 9.80024 17.304 9.80523C17.3157 9.81023 17.3283 9.81287 17.341 9.813ZM16.191 9.618C16.1715 9.6176 16.1524 9.62301 16.136 9.63354C16.1196 9.64406 16.1068 9.65922 16.099 9.67709C16.0913 9.69496 16.0891 9.71472 16.0926 9.73386C16.0962 9.753 16.1054 9.77065 16.119 9.78456C16.1326 9.79846 16.1501 9.808 16.1691 9.81194C16.1882 9.81589 16.208 9.81407 16.226 9.80672C16.2441 9.79936 16.2595 9.7868 16.2703 9.77065C16.2812 9.75449 16.287 9.73547 16.287 9.716C16.2873 9.69044 16.2774 9.66582 16.2597 9.64746C16.2419 9.62911 16.2166 9.61853 16.191 9.618ZM16.517 8.51C16.4805 8.48917 16.4533 8.45519 16.441 8.415C16.4353 8.44425 16.4214 8.47129 16.401 8.493C16.3542 8.5285 16.2953 8.5441 16.2371 8.53643C16.1788 8.52875 16.126 8.49841 16.09 8.452C16.044 8.41435 16.0142 8.36047 16.0067 8.30148C15.9993 8.24249 16.0148 8.1829 16.05 8.135C16.081 8.10792 16.1198 8.09139 16.1607 8.0878C16.2017 8.0842 16.2428 8.09373 16.278 8.115C16.2335 8.06491 16.2077 8.00096 16.205 7.934C16.1952 7.87569 16.2082 7.81582 16.2413 7.76685C16.2745 7.71787 16.3252 7.68355 16.383 7.671C16.489 7.666 16.581 7.774 16.587 7.914C16.591 7.97703 16.5749 8.03972 16.541 8.093C16.5666 8.06884 16.5985 8.05251 16.6331 8.04595C16.6676 8.0394 16.7034 8.04288 16.736 8.056C16.7848 8.09021 16.8186 8.14192 16.8304 8.20039C16.8421 8.25885 16.8309 8.31959 16.799 8.37C16.7796 8.42558 16.7393 8.47137 16.6866 8.49754C16.6338 8.52371 16.573 8.52818 16.517 8.51ZM16.492 8.143C16.4682 8.16191 16.4393 8.17338 16.409 8.176C16.3862 8.17641 16.3637 8.17162 16.343 8.162C16.349 8.167 16.355 8.17 16.361 8.176C16.391 8.20744 16.4138 8.24496 16.428 8.286C16.4326 8.25518 16.4417 8.22519 16.455 8.197C16.4654 8.17776 16.4778 8.15967 16.492 8.143ZM19.91 8.452C19.8739 8.49826 19.8209 8.5284 19.7627 8.53589C19.7045 8.54338 19.6457 8.52761 19.599 8.492C19.5788 8.47054 19.5649 8.44388 19.559 8.415C19.5467 8.45519 19.5195 8.48917 19.483 8.51C19.427 8.52818 19.3662 8.52371 19.3134 8.49754C19.2607 8.47137 19.2204 8.42558 19.201 8.37C19.169 8.31971 19.1576 8.25906 19.1692 8.2006C19.1807 8.14214 19.2143 8.09036 19.263 8.056C19.2956 8.04288 19.3314 8.0394 19.3659 8.04595C19.4005 8.05251 19.4324 8.06884 19.458 8.093C19.4239 8.03944 19.4078 7.97637 19.412 7.913C19.419 7.774 19.511 7.666 19.616 7.671C19.6742 7.68311 19.7254 7.71725 19.7589 7.76627C19.7925 7.8153 19.8058 7.8754 19.796 7.934C19.7933 8.00145 19.7672 8.06584 19.722 8.116C19.7571 8.09459 19.7981 8.0849 19.8391 8.08831C19.8801 8.09173 19.9189 8.10808 19.95 8.135C19.985 8.18299 20.0003 8.24252 19.9929 8.30144C19.9855 8.36035 19.9558 8.41421 19.91 8.452ZM19.657 8.162C19.6363 8.17162 19.6138 8.17641 19.591 8.176C19.5603 8.17364 19.5311 8.16214 19.507 8.143C19.5216 8.15956 19.5343 8.17766 19.545 8.197C19.5583 8.22485 19.5674 8.2545 19.572 8.285C19.5862 8.24394 19.609 8.20642 19.639 8.175L19.657 8.162Z"
		fill="#F5F5F5"
	/>
	<path
		d="M17.68 12.504H18.32V12.939C18.32 13.0239 18.2863 13.1053 18.2263 13.1653C18.1663 13.2253 18.0849 13.259 18 13.259C17.9151 13.259 17.8337 13.2253 17.7737 13.1653C17.7137 13.1053 17.68 13.0239 17.68 12.939V12.504ZM17.68 11.907C17.68 11.9919 17.7137 12.0733 17.7737 12.1333C17.8337 12.1933 17.9151 12.227 18 12.227C18.0849 12.227 18.1663 12.1933 18.2263 12.1333C18.2863 12.0733 18.32 11.9919 18.32 11.907V11.472H17.68V11.907ZM17.68 13.981C17.68 14.0659 17.7137 14.1473 17.7737 14.2073C17.8337 14.2673 17.9151 14.301 18 14.301C18.0849 14.301 18.1663 14.2673 18.2263 14.2073C18.2863 14.1473 18.32 14.0659 18.32 13.981V13.546H17.68V13.981ZM18.543 12.504V12.939C18.543 13.024 18.5768 13.1055 18.6369 13.1656C18.697 13.2257 18.7785 13.2595 18.8635 13.2595C18.9485 13.2595 19.03 13.2257 19.0901 13.1656C19.1502 13.1055 19.184 13.024 19.184 12.939V12.504H18.543ZM16.815 12.939C16.815 13.0241 16.8488 13.1058 16.909 13.166C16.9692 13.2262 17.0509 13.26 17.136 13.26C17.2211 13.26 17.3028 13.2262 17.363 13.166C17.4232 13.1058 17.457 13.0241 17.457 12.939V12.504H16.815V12.939Z"
		fill="#41479B"
	/>
	<path
		d="M16.258 10.61C16.2572 10.6589 16.242 10.7064 16.2143 10.7467C16.1865 10.7869 16.1475 10.8181 16.1022 10.8363C16.0568 10.8544 16.0071 10.8588 15.9592 10.8487C15.9114 10.8387 15.8676 10.8148 15.8333 10.78C15.799 10.7451 15.7758 10.7009 15.7665 10.6529C15.7573 10.6049 15.7624 10.5553 15.7813 10.5102C15.8002 10.4651 15.832 10.4266 15.8726 10.3995C15.9133 10.3725 15.9611 10.358 16.01 10.358C16.0429 10.3583 16.0755 10.365 16.1058 10.3779C16.1361 10.3908 16.1635 10.4095 16.1866 10.433C16.2096 10.4565 16.2278 10.4843 16.24 10.5149C16.2523 10.5454 16.2584 10.5781 16.258 10.611V10.61ZM19.982 10.358C19.9318 10.357 19.8824 10.371 19.8401 10.3982C19.7978 10.4254 19.7646 10.4645 19.7447 10.5107C19.7248 10.5568 19.7191 10.6078 19.7283 10.6572C19.7375 10.7066 19.7612 10.7522 19.7963 10.7881C19.8315 10.8239 19.8766 10.8485 19.9258 10.8587C19.975 10.8689 20.0261 10.8642 20.0726 10.8452C20.1191 10.8262 20.159 10.7938 20.187 10.7521C20.215 10.7104 20.23 10.6612 20.23 10.611C20.2304 10.5781 20.2243 10.5454 20.212 10.5149C20.1998 10.4843 20.1816 10.4565 20.1586 10.433C20.1355 10.4095 20.1081 10.3908 20.0778 10.3779C20.0475 10.365 20.0149 10.3583 19.982 10.358ZM16.01 12.379C15.9598 12.378 15.9104 12.392 15.8681 12.4192C15.8258 12.4464 15.7926 12.4855 15.7727 12.5317C15.7528 12.5778 15.7471 12.6288 15.7563 12.6782C15.7655 12.7276 15.7892 12.7732 15.8243 12.8091C15.8595 12.8449 15.9046 12.8695 15.9538 12.8797C16.003 12.8899 16.0541 12.8852 16.1006 12.8662C16.1471 12.8472 16.187 12.8148 16.215 12.7731C16.243 12.7314 16.258 12.6822 16.258 12.632C16.2584 12.5991 16.2523 12.5664 16.24 12.5359C16.2278 12.5053 16.2096 12.4775 16.1866 12.454C16.1635 12.4305 16.1361 12.4118 16.1058 12.3989C16.0755 12.386 16.0429 12.3793 16.01 12.379ZM19.982 12.379C19.9318 12.378 19.8824 12.392 19.8401 12.4192C19.7978 12.4464 19.7646 12.4855 19.7447 12.5317C19.7248 12.5778 19.7191 12.6288 19.7283 12.6782C19.7375 12.7276 19.7612 12.7732 19.7963 12.8091C19.8315 12.8449 19.8766 12.8695 19.9258 12.8797C19.975 12.8899 20.0261 12.8852 20.0726 12.8662C20.1191 12.8472 20.159 12.8148 20.187 12.7731C20.215 12.7314 20.23 12.6822 20.23 12.632C20.2304 12.5991 20.2243 12.5664 20.212 12.5359C20.1998 12.5053 20.1816 12.4775 20.1586 12.454C20.1355 12.4305 20.1081 12.4118 20.0778 12.3989C20.0475 12.386 20.0149 12.3793 19.982 12.379ZM17.996 10.358C17.9458 10.357 17.8964 10.371 17.8541 10.3982C17.8118 10.4254 17.7786 10.4645 17.7587 10.5107C17.7388 10.5568 17.7331 10.6078 17.7423 10.6572C17.7515 10.7066 17.7752 10.7522 17.8103 10.7881C17.8455 10.8239 17.8906 10.8485 17.9398 10.8587C17.989 10.8689 18.0401 10.8642 18.0866 10.8452C18.1331 10.8262 18.173 10.7938 18.201 10.7521C18.229 10.7104 18.244 10.6612 18.244 10.611C18.2444 10.5781 18.2383 10.5454 18.226 10.5149C18.2138 10.4843 18.1956 10.4565 18.1726 10.433C18.1495 10.4095 18.1221 10.3908 18.0918 10.3779C18.0615 10.365 18.0289 10.3583 17.996 10.358ZM17.996 14.925C17.9457 14.924 17.8963 14.938 17.854 14.9653C17.8117 14.9925 17.7785 15.0317 17.7586 15.0779C17.7387 15.1241 17.7331 15.1752 17.7423 15.2246C17.7516 15.274 17.7754 15.3196 17.8107 15.3554C17.846 15.3913 17.8911 15.4158 17.9404 15.4258C17.9897 15.4359 18.0408 15.431 18.0873 15.4119C18.1338 15.3927 18.1736 15.3602 18.2015 15.3183C18.2294 15.2765 18.2442 15.2273 18.244 15.177C18.2443 15.1442 18.2381 15.1116 18.2257 15.0812C18.2134 15.0507 18.1952 15.023 18.1722 14.9996C18.1492 14.9762 18.1218 14.9576 18.0915 14.9448C18.0613 14.932 18.0288 14.9253 17.996 14.925ZM19.486 14.242C19.4358 14.2412 19.3865 14.2554 19.3444 14.2827C19.3022 14.31 19.2692 14.3492 19.2494 14.3954C19.2297 14.4415 19.2241 14.4925 19.2334 14.5419C19.2427 14.5912 19.2665 14.6367 19.3017 14.6724C19.3369 14.7082 19.382 14.7327 19.4312 14.7428C19.4803 14.7529 19.5314 14.7481 19.5779 14.7291C19.6243 14.7101 19.6641 14.6777 19.6921 14.636C19.72 14.5943 19.735 14.5452 19.735 14.495C19.7354 14.462 19.7293 14.4293 19.7169 14.3986C19.7046 14.368 19.6863 14.3402 19.6632 14.3166C19.6401 14.2931 19.6125 14.2744 19.5821 14.2616C19.5516 14.2488 19.519 14.2421 19.486 14.242ZM16.535 14.242C16.4848 14.241 16.4354 14.255 16.3931 14.2822C16.3508 14.3094 16.3176 14.3485 16.2977 14.3947C16.2778 14.4408 16.2721 14.4918 16.2813 14.5412C16.2905 14.5906 16.3141 14.6362 16.3493 14.6721C16.3845 14.7079 16.4296 14.7325 16.4788 14.7427C16.528 14.7529 16.5791 14.7482 16.6256 14.7292C16.6722 14.7102 16.712 14.6778 16.74 14.6361C16.768 14.5944 16.783 14.5452 16.783 14.495C16.7834 14.4621 16.7773 14.4294 16.765 14.3989C16.7528 14.3683 16.7346 14.3405 16.7115 14.317C16.6885 14.2935 16.661 14.2748 16.6308 14.2619C16.6005 14.249 16.5679 14.2423 16.535 14.242ZM21.625 7.675C21.6236 7.71607 21.6092 7.75563 21.5838 7.78798C21.5585 7.82033 21.5235 7.8438 21.484 7.855C21.249 7.92 21.144 8.377 21.125 8.531L21.122 8.551C21.0732 8.77945 20.9445 8.98298 20.7589 9.12489C20.5734 9.26681 20.3432 9.33777 20.11 9.325H20.404C20.4821 9.32579 20.5566 9.3575 20.6114 9.41317C20.6661 9.46884 20.6965 9.54393 20.696 9.622V9.808C20.6965 9.88607 20.6661 9.96116 20.6114 10.0168C20.5566 10.0725 20.4821 10.1042 20.404 10.105H15.62C15.5419 10.1042 15.4674 10.0725 15.4126 10.0168C15.3579 9.96116 15.3275 9.88607 15.328 9.808V9.622C15.3275 9.54393 15.3579 9.46884 15.4126 9.41317C15.4674 9.3575 15.5419 9.32579 15.62 9.325H15.888C15.6551 9.33757 15.4253 9.26663 15.24 9.12494C15.0546 8.98324 14.9259 8.78009 14.877 8.552L14.873 8.532C14.855 8.377 14.75 7.92 14.515 7.856C14.475 7.84481 14.4396 7.82121 14.4139 7.78861C14.3882 7.75601 14.3735 7.71609 14.372 7.67461C14.3704 7.63312 14.3821 7.59221 14.4053 7.55777C14.4284 7.52334 14.462 7.49716 14.501 7.483C14.6925 7.39398 14.9107 7.38146 15.1111 7.44801C15.3114 7.51455 15.4788 7.65513 15.579 7.841C15.5997 7.88813 15.601 7.94149 15.5827 7.98958C15.5643 8.03766 15.5278 8.0766 15.481 8.098C15.4359 8.11759 15.385 8.11895 15.339 8.10179C15.2929 8.08464 15.2553 8.0503 15.234 8.006L15.161 8.093C15.2041 8.21633 15.2349 8.34361 15.253 8.473C15.2874 8.61309 15.3704 8.73643 15.4872 8.82104C15.6041 8.90564 15.7472 8.94603 15.891 8.935C15.9764 8.92462 16.0579 8.89337 16.1284 8.84401C16.1988 8.79465 16.2561 8.72871 16.295 8.652C16.3078 8.62648 16.3261 8.6041 16.3486 8.58647C16.3711 8.56883 16.3972 8.55638 16.425 8.55C16.4527 8.54381 16.4815 8.54392 16.5092 8.55032C16.5369 8.55672 16.5628 8.56926 16.585 8.587C16.7842 8.749 17.0147 8.86815 17.262 8.937C17.3103 8.94911 17.3607 8.95028 17.4095 8.94042C17.4582 8.93056 17.5042 8.90991 17.544 8.88C17.565 8.86287 17.5822 8.84159 17.5946 8.8175C17.607 8.79342 17.6143 8.76703 17.616 8.74C17.6097 8.69097 17.5875 8.64536 17.5529 8.61014C17.5182 8.57492 17.4729 8.55204 17.424 8.545C17.4066 8.54405 17.3892 8.54749 17.3735 8.55501C17.3578 8.56252 17.3442 8.57387 17.334 8.588C17.3236 8.61115 17.3086 8.63198 17.29 8.64925C17.2714 8.66652 17.2495 8.67988 17.2256 8.68855C17.2018 8.69722 17.1764 8.70102 17.1511 8.69972C17.1257 8.69843 17.1009 8.69206 17.078 8.681C17.032 8.65797 16.9969 8.61789 16.9801 8.56931C16.9633 8.52074 16.9661 8.46751 16.988 8.421C17.019 8.36049 17.0623 8.30715 17.1152 8.26443C17.1681 8.22172 17.2293 8.19057 17.295 8.173C17.1792 7.98658 17.0935 7.78309 17.041 7.57L17.616 7.375C17.616 7.375 17.424 6.79 17.999 6.79C18.574 6.79 18.382 7.375 18.382 7.375L18.957 7.57C18.9045 7.78309 18.8188 7.98658 18.703 8.173C18.7689 8.19044 18.8303 8.22153 18.8834 8.26426C18.9364 8.30698 18.9799 8.36038 19.011 8.421C19.0328 8.46763 19.0355 8.52096 19.0185 8.56955C19.0015 8.61814 18.9661 8.65815 18.92 8.681C18.8971 8.69203 18.8722 8.69834 18.8468 8.69957C18.8214 8.7008 18.796 8.69692 18.7721 8.68815C18.7482 8.67938 18.7264 8.66591 18.7078 8.64854C18.6892 8.63116 18.6743 8.61024 18.664 8.587C18.6538 8.57298 18.6401 8.56178 18.6244 8.55444C18.6087 8.54709 18.5913 8.54385 18.574 8.545C18.5251 8.55204 18.4798 8.57492 18.4451 8.61014C18.4105 8.64536 18.3883 8.69097 18.382 8.74C18.3837 8.76703 18.391 8.79342 18.4034 8.8175C18.4158 8.84159 18.433 8.86287 18.454 8.88C18.4936 8.90994 18.5393 8.93068 18.588 8.94071C18.6366 8.95074 18.6868 8.94982 18.735 8.938C18.9831 8.86905 19.2143 8.74955 19.414 8.587C19.4362 8.56926 19.4621 8.55672 19.4898 8.55032C19.5175 8.54392 19.5463 8.54381 19.574 8.55C19.6019 8.55632 19.628 8.56874 19.6505 8.58638C19.673 8.60402 19.6912 8.62644 19.704 8.652C19.7428 8.72858 19.7999 8.79444 19.8702 8.84379C19.9405 8.89314 20.0218 8.92446 20.107 8.935C20.2507 8.94608 20.3937 8.90583 20.5105 8.82142C20.6273 8.73701 20.7104 8.61391 20.745 8.474C20.7631 8.34462 20.7939 8.21734 20.837 8.094L20.764 8.006C20.7427 8.0503 20.7051 8.08464 20.659 8.10179C20.613 8.11895 20.5621 8.11759 20.517 8.098C20.4702 8.0766 20.4337 8.03766 20.4153 7.98958C20.397 7.94149 20.3983 7.88813 20.419 7.841C20.5192 7.65513 20.6866 7.51455 20.8869 7.44801C21.0873 7.38146 21.3055 7.39398 21.497 7.483C21.536 7.49722 21.5694 7.5235 21.5924 7.55803C21.6155 7.59257 21.6269 7.63354 21.625 7.675ZM17.465 9.325H18.534C18.4128 9.30744 18.299 9.25576 18.206 9.176C18.1429 9.12193 18.0919 9.05514 18.0564 8.98001C18.0209 8.90487 18.0017 8.82308 18 8.74C17.9983 8.82308 17.9791 8.90487 17.9436 8.98001C17.9081 9.05514 17.8571 9.12193 17.794 9.176C17.7011 9.25608 17.5873 9.3081 17.466 9.326L17.465 9.325ZM15.892 9.325H17.222L17.203 9.323C16.9547 9.26639 16.7202 9.16102 16.513 9.013C16.4391 9.10759 16.3452 9.18463 16.238 9.23858C16.1308 9.29253 16.012 9.32204 15.892 9.325ZM20.107 9.325C19.9869 9.32193 19.8691 9.29226 19.7618 9.23813C19.6546 9.18401 19.5608 9.10678 19.487 9.012C19.2798 9.16007 19.0453 9.26544 18.797 9.322L18.777 9.325H20.107Z"
		fill="#FFE15A"
	/>
	<path
		d="M19.546 9.716C19.546 9.823 19.417 9.911 19.259 9.911C19.101 9.911 18.971 9.823 18.971 9.716C18.971 9.609 19.1 9.52 19.259 9.52C19.418 9.52 19.546 9.608 19.546 9.716ZM16.766 9.52C16.608 9.52 16.479 9.608 16.479 9.716C16.479 9.824 16.608 9.911 16.767 9.911C16.926 9.911 17.054 9.823 17.054 9.716C17.054 9.609 16.924 9.52 16.766 9.52ZM14.671 7.884C14.573 7.925 14.543 8.08 14.604 8.229C14.665 8.378 14.793 8.466 14.891 8.425C14.989 8.384 15.019 8.229 14.958 8.08C14.897 7.931 14.768 7.843 14.671 7.884ZM21.329 7.885C21.231 7.844 21.102 7.931 21.042 8.081C20.982 8.231 21.011 8.384 21.109 8.426C21.207 8.468 21.335 8.379 21.396 8.23C21.457 8.081 21.426 7.927 21.329 7.885ZM18 7.57C17.841 7.57 17.712 7.744 17.712 7.96C17.712 8.176 17.842 8.35 18 8.35C18.158 8.35 18.287 8.175 18.287 7.96C18.287 7.745 18.159 7.57 18 7.57Z"
		fill="#4173CD"
	/>
</svg>
