<svg viewBox="0 0 36 24" fill="none" xmlns="http://www.w3.org/2000/svg">
	<path d="M36 24H0V0H36" fill="#F5F5F5" />
	<path
		d="M10.002 13.24C9.99815 13.4768 9.90533 13.7035 9.742 13.875C9.68136 13.9403 9.63815 14.0197 9.61636 14.1061C9.59457 14.1925 9.5949 14.283 9.61733 14.3692C9.63975 14.4554 9.68355 14.5346 9.74466 14.5994C9.80578 14.6642 9.88225 14.7126 9.967 14.74C9.967 14.74 9.716 15.348 10.088 15.603C10.2551 15.7038 10.4481 15.7532 10.643 15.745C10.7368 16.1316 10.7484 16.5336 10.677 16.925C10.539 17.385 10.729 18.707 13.9 17.948C13.9 17.948 13.93 18.795 15.2 19.453C15.5708 19.68 15.8658 20.012 16.0478 20.4068C16.2297 20.8017 16.2903 21.2417 16.222 21.671C16.222 21.671 17.971 22.701 19.904 20.266C21.837 17.83 21.975 17.502 23.356 16.94C23.356 16.94 21.193 14.692 21.976 12.725C22.078 12.465 22.195 12.194 22.316 11.914C22.5574 12.8532 23.063 13.7035 23.773 14.364C24.0249 14.5347 24.3139 14.643 24.616 14.68C24.931 14.745 25.203 14.8 25.331 14.998C25.4515 15.2893 25.4643 15.6141 25.367 15.914C24.8683 16.5055 24.2281 16.9613 23.506 17.239L23.287 17.299L23.747 18.841L22.375 20.125L22.4 20.249C22.57 21.11 23.092 21.224 23.307 21.234L23.347 21.236C23.62 21.2119 23.8789 21.1038 24.0879 20.9265C24.2969 20.7492 24.4458 20.5115 24.514 20.246C24.5887 19.969 24.7416 19.7194 24.9544 19.527C25.1672 19.3346 25.4309 19.2075 25.714 19.161L25.852 19.144L25.898 19.011C26.2098 18.0768 26.4525 17.1209 26.624 16.151C26.7059 15.6807 26.7371 15.203 26.717 14.726C26.724 14.712 26.732 14.705 26.739 14.691L26.716 14.678C26.7198 14.1666 26.5575 13.6679 26.2534 13.2567C25.9494 12.8455 25.52 12.5442 25.03 12.398C24.585 12.2326 24.2076 11.9242 23.957 11.521C23.984 11.521 24.007 11.529 24.035 11.529C24.2624 11.5305 24.489 11.5002 24.708 11.439C25.0423 11.3352 25.3518 11.164 25.6174 10.936C25.8829 10.7079 26.0989 10.4278 26.252 10.113C26.485 9.685 28.218 4.846 28.415 4.296L28.552 3.914L26.314 4.4L26.484 3.016L23.584 4.056L23.654 4.266C24.1484 5.7432 24.4325 7.28263 24.498 8.839C24.5045 9.02198 24.4704 9.20413 24.3981 9.37237C24.3258 9.5406 24.2172 9.69074 24.08 9.812C23.7889 9.99661 23.4405 10.0688 23.1 10.015C23.6985 8.73957 23.8219 7.29235 23.448 5.934C22.651 3.807 19.121 1.859 16.452 2.14C13.783 2.421 11.57 3.078 10.833 5.794C10.097 8.511 10.303 9.228 10.394 9.697C10.486 10.165 8.752 12.232 9.066 12.871C9.274 13.294 10.002 13.241 10.002 13.241V13.24ZM22.798 10.784C22.845 10.673 22.891 10.562 22.936 10.449C23.0617 10.4715 23.1893 10.4822 23.317 10.481C23.6838 10.4922 24.0443 10.3838 24.344 10.172C24.5349 10.0122 24.6874 9.81144 24.7903 9.58468C24.8931 9.35791 24.9436 9.11092 24.938 8.862C24.8946 7.32179 24.6258 5.79625 24.14 4.334L25.958 3.683L25.517 7.272L25.954 7.327L26.256 4.872L27.864 4.522C27.097 6.66 26.02 9.612 25.866 9.892C25.7402 10.1547 25.562 10.389 25.3424 10.5804C25.1228 10.7718 24.8664 10.9163 24.589 11.005C23.9853 11.1491 23.3499 11.071 22.799 10.785L22.798 10.784ZM23.889 19.319L24.113 20.072C24.108 20.091 24.097 20.1 24.091 20.119C24.0471 20.2912 23.9531 20.4464 23.8208 20.565C23.6885 20.6836 23.5239 20.7602 23.348 20.785H23.328C23.054 20.773 22.923 20.503 22.861 20.282L23.889 19.319ZM26.265 15.432C26.2477 15.6483 26.2221 15.8637 26.188 16.078C26.0279 16.9791 25.8051 17.868 25.521 18.738C25.0708 18.8444 24.6729 19.1069 24.398 19.479L23.837 17.597C24.8367 17.1219 25.6793 16.3702 26.265 15.431V15.432ZM22.603 11.253L22.628 11.196C22.8887 11.3209 23.1643 11.4123 23.448 11.468C23.552 11.783 23.795 12.31 24.845 12.804C25.573 13.146 26.185 13.436 26.282 14.581C26.1513 14.8054 26.0063 15.0212 25.848 15.227C25.8356 15.0596 25.7854 14.8972 25.701 14.752C25.5787 14.6028 25.4269 14.4803 25.2552 14.3922C25.0835 14.3042 24.8956 14.2523 24.703 14.24C24.4694 14.2129 24.2447 14.1343 24.045 14.01C23.2961 13.2583 22.7932 12.2969 22.603 11.253ZM11.11 7.933C11.176 6.91782 11.4346 5.92448 11.872 5.006L22.477 10.014L21.576 11.989L11.11 7.933Z"
		fill="#464655"
	/>
</svg>
