<svg viewBox="0 0 36 24" fill="none" xmlns="http://www.w3.org/2000/svg">
	<path d="M36 24H0V0H36" fill="#41479B" />
	<path
		d="M19.35 3.708L18.717 4.184L18.954 4.947C18.9611 4.96822 18.9613 4.99115 18.9546 5.01249C18.9479 5.03384 18.9346 5.05251 18.9166 5.06583C18.8986 5.07915 18.8769 5.08644 18.8545 5.08665C18.8321 5.08686 18.8102 5.07998 18.792 5.067L18.152 4.602L17.512 5.067C17.4938 5.0804 17.4718 5.08762 17.4492 5.08761C17.4266 5.08761 17.4046 5.08038 17.3863 5.06698C17.3681 5.05357 17.3547 5.0347 17.348 5.01312C17.3413 4.99153 17.3416 4.96837 17.349 4.947L17.586 4.184L16.954 3.708C16.9362 3.6945 16.923 3.67581 16.9163 3.65451C16.9096 3.63322 16.9096 3.61035 16.9164 3.58907C16.9232 3.56779 16.9364 3.54915 16.9543 3.5357C16.9721 3.52226 16.9937 3.51468 17.016 3.514L17.802 3.507L18.052 2.748C18.0588 2.72681 18.0721 2.70832 18.0901 2.6952C18.1081 2.68208 18.1297 2.67502 18.152 2.67502C18.1743 2.67502 18.1959 2.68208 18.2139 2.6952C18.2319 2.70832 18.2452 2.72681 18.252 2.748L18.502 3.508L19.288 3.514C19.3103 3.51468 19.3319 3.52226 19.3497 3.5357C19.3676 3.54915 19.3808 3.56779 19.3876 3.58907C19.3944 3.61035 19.3944 3.63322 19.3877 3.65451C19.381 3.67581 19.3678 3.6945 19.35 3.708ZM19.288 19.816L18.501 19.81L18.252 19.05C18.2452 19.0288 18.2319 19.0103 18.2139 18.9972C18.1959 18.9841 18.1743 18.977 18.152 18.977C18.1297 18.977 18.1081 18.9841 18.0901 18.9972C18.0721 19.0103 18.0588 19.0288 18.052 19.05L17.802 19.81L17.016 19.816C16.9934 19.8164 16.9715 19.8239 16.9534 19.8374C16.9353 19.8509 16.9219 19.8697 16.915 19.8913C16.9082 19.9128 16.9083 19.9359 16.9153 19.9574C16.9223 19.9789 16.9358 19.9976 16.954 20.011L17.586 20.486L17.349 21.249C17.3416 21.2704 17.3413 21.2935 17.348 21.3151C17.3547 21.3367 17.3681 21.3556 17.3863 21.369C17.4046 21.3824 17.4266 21.3896 17.4492 21.3896C17.4718 21.3896 17.4938 21.3824 17.512 21.369L18.152 20.904L18.792 21.37C18.8102 21.383 18.8321 21.3899 18.8545 21.3896C18.8769 21.3894 18.8986 21.3822 18.9166 21.3688C18.9346 21.3555 18.9479 21.3368 18.9546 21.3155C18.9613 21.2941 18.9611 21.2712 18.954 21.25L18.717 20.486L19.35 20.011C19.3682 19.9976 19.3817 19.9789 19.3887 19.9574C19.3957 19.9359 19.3958 19.9128 19.389 19.8913C19.3821 19.8697 19.3687 19.8509 19.3506 19.8374C19.3325 19.8239 19.3106 19.8164 19.288 19.816ZM27.298 11.665L26.512 11.659L26.263 10.899C26.2565 10.8774 26.2432 10.8585 26.2251 10.8451C26.207 10.8317 26.185 10.8244 26.1625 10.8244C26.14 10.8244 26.118 10.8317 26.0999 10.8451C26.0818 10.8585 26.0685 10.8774 26.062 10.899L25.813 11.659L25.027 11.665C25.0043 11.6652 24.9823 11.6725 24.964 11.686C24.9458 11.6994 24.9322 11.7182 24.9252 11.7398C24.9182 11.7614 24.9182 11.7846 24.9252 11.8062C24.9322 11.8277 24.9457 11.8466 24.964 11.86L25.597 12.335L25.36 13.098C25.3526 13.1194 25.3523 13.1425 25.359 13.1641C25.3657 13.1857 25.3791 13.2046 25.3973 13.218C25.4156 13.2314 25.4376 13.2386 25.4602 13.2386C25.4828 13.2386 25.5048 13.2314 25.523 13.218L26.163 12.753L26.803 13.218C26.8212 13.231 26.8431 13.2379 26.8655 13.2376C26.8879 13.2374 26.9096 13.2302 26.9276 13.2168C26.9456 13.2035 26.9589 13.1848 26.9656 13.1635C26.9723 13.1421 26.9721 13.1192 26.965 13.098L26.728 12.335L27.361 11.86C27.3792 11.8466 27.3927 11.8279 27.3997 11.8064C27.4067 11.7849 27.4068 11.7618 27.4 11.7403C27.3931 11.7187 27.3797 11.6999 27.3616 11.6864C27.3435 11.6729 27.3206 11.6654 27.298 11.665ZM10.781 13.218C10.7992 13.2314 10.8212 13.2386 10.8438 13.2386C10.8664 13.2386 10.8884 13.2314 10.9067 13.218C10.9249 13.2046 10.9383 13.1857 10.945 13.1641C10.9517 13.1425 10.9514 13.1194 10.944 13.098L10.706 12.335L11.339 11.86C11.3572 11.8466 11.3707 11.8279 11.3777 11.8064C11.3847 11.7849 11.3848 11.7618 11.378 11.7403C11.3711 11.7187 11.3577 11.6999 11.3396 11.6864C11.3215 11.6729 11.2996 11.6654 11.277 11.665L10.49 11.659L10.242 10.899C10.2358 10.877 10.2225 10.8577 10.2043 10.8439C10.1861 10.8302 10.1638 10.8227 10.141 10.8227C10.1182 10.8227 10.0959 10.8302 10.0777 10.8439C10.0595 10.8577 10.0462 10.877 10.04 10.899L9.792 11.659L9.005 11.665C8.98242 11.6654 8.96053 11.6729 8.94242 11.6864C8.92431 11.6999 8.91089 11.7187 8.90405 11.7403C8.8972 11.7618 8.89728 11.7849 8.90427 11.8064C8.91125 11.8279 8.9248 11.8466 8.943 11.86L9.576 12.335L9.338 13.098C9.33062 13.1194 9.33026 13.1425 9.33698 13.1641C9.3437 13.1857 9.35714 13.2046 9.37535 13.218C9.39355 13.2314 9.41556 13.2386 9.43817 13.2386C9.46078 13.2386 9.48279 13.2314 9.501 13.218L10.141 12.753L10.781 13.218ZM12.48 7.408L11.693 7.402L11.444 6.642C11.4372 6.62081 11.4239 6.60232 11.4059 6.5892C11.3879 6.57608 11.3663 6.56902 11.344 6.56902C11.3217 6.56902 11.3001 6.57608 11.2821 6.5892C11.2641 6.60232 11.2508 6.62081 11.244 6.642L10.994 7.402L10.208 7.408C10.1853 7.40821 10.1633 7.41554 10.145 7.42897C10.1268 7.44239 10.1132 7.46122 10.1062 7.48279C10.0992 7.50436 10.0992 7.52758 10.1062 7.54916C10.1132 7.57073 10.1267 7.58957 10.145 7.603L10.778 8.078L10.541 8.841C10.5336 8.86237 10.5333 8.88553 10.54 8.90712C10.5467 8.9287 10.5601 8.94757 10.5783 8.96098C10.5966 8.97438 10.6186 8.98161 10.6412 8.98161C10.6638 8.98162 10.6858 8.9744 10.704 8.961L11.344 8.496L11.984 8.962C12.0022 8.97498 12.0241 8.98186 12.0465 8.98165C12.0689 8.98144 12.0906 8.97415 12.1086 8.96083C12.1266 8.94751 12.1399 8.92884 12.1466 8.90749C12.1533 8.88615 12.1531 8.86322 12.146 8.842L11.909 8.078L12.542 7.603C12.5602 7.58962 12.5737 7.57087 12.5807 7.54939C12.5877 7.52791 12.5878 7.50478 12.581 7.48326C12.5741 7.46173 12.5607 7.44289 12.5426 7.42939C12.5245 7.41589 12.5026 7.40841 12.48 7.408ZM26.355 15.56L25.568 15.553L25.319 14.794C25.3122 14.7728 25.2989 14.7543 25.2809 14.7412C25.2629 14.7281 25.2413 14.721 25.219 14.721C25.1967 14.721 25.1751 14.7281 25.1571 14.7412C25.1391 14.7543 25.1258 14.7728 25.119 14.794L24.869 15.554L24.083 15.56C24.0606 15.5605 24.0389 15.5679 24.0209 15.5813C24.0029 15.5947 23.9895 15.6133 23.9826 15.6346C23.9757 15.6559 23.9755 15.6789 23.9822 15.7003C23.9889 15.7217 24.0021 15.7404 24.02 15.754L24.653 16.23L24.416 16.993C24.4086 17.0144 24.4083 17.0375 24.415 17.0591C24.4217 17.0807 24.4351 17.0996 24.4533 17.113C24.4715 17.1264 24.4936 17.1336 24.5162 17.1336C24.5388 17.1336 24.5608 17.1264 24.579 17.113L25.219 16.648L25.859 17.113C25.8772 17.126 25.8991 17.1329 25.9215 17.1326C25.9439 17.1324 25.9656 17.1252 25.9836 17.1118C26.0016 17.0985 26.0149 17.0798 26.0216 17.0585C26.0283 17.0371 26.0281 17.0142 26.021 16.993L25.784 16.23L26.417 15.754C26.4348 15.7405 26.448 15.7218 26.4547 15.7005C26.4614 15.6792 26.4614 15.6564 26.4546 15.6351C26.4478 15.6138 26.4346 15.5951 26.4167 15.5817C26.3989 15.5683 26.3773 15.5607 26.355 15.56ZM23.423 4.425L22.636 4.418L22.387 3.659C22.3805 3.63743 22.3672 3.61853 22.3491 3.60509C22.331 3.59166 22.309 3.58441 22.2865 3.58441C22.264 3.58441 22.242 3.59166 22.2239 3.60509C22.2058 3.61853 22.1925 3.63743 22.186 3.659L21.937 4.419L21.151 4.425C21.1286 4.42548 21.1069 4.43292 21.0889 4.44629C21.0709 4.45966 21.0575 4.4783 21.0506 4.49962C21.0437 4.52094 21.0435 4.54389 21.0502 4.56528C21.0569 4.58667 21.0701 4.60545 21.088 4.619L21.721 5.095L21.484 5.858C21.4766 5.87937 21.4763 5.90253 21.483 5.92412C21.4897 5.9457 21.5031 5.96457 21.5213 5.97798C21.5395 5.99138 21.5616 5.99861 21.5842 5.99861C21.6068 5.99862 21.6288 5.9914 21.647 5.978L22.287 5.513L22.927 5.978C22.9452 5.99098 22.9671 5.99786 22.9895 5.99765C23.0119 5.99744 23.0336 5.99015 23.0516 5.97683C23.0696 5.96351 23.0829 5.94484 23.0896 5.92349C23.0963 5.90215 23.0961 5.87922 23.089 5.858L22.852 5.095L23.485 4.619C23.5028 4.6055 23.516 4.58681 23.5227 4.56552C23.5294 4.54422 23.5294 4.52135 23.5226 4.50007C23.5158 4.4788 23.5026 4.46015 23.4847 4.4467C23.4669 4.43326 23.4453 4.42568 23.423 4.425ZM15.412 18.543L14.625 18.537L14.376 17.777C14.3692 17.7558 14.3559 17.7373 14.3379 17.7242C14.3199 17.7111 14.2983 17.704 14.276 17.704C14.2537 17.704 14.2321 17.7111 14.2141 17.7242C14.1961 17.7373 14.1828 17.7558 14.176 17.777L13.926 18.537L13.14 18.543C13.1174 18.5434 13.0955 18.5509 13.0774 18.5644C13.0593 18.5779 13.0459 18.5967 13.039 18.6183C13.0322 18.6398 13.0323 18.6629 13.0393 18.6844C13.0463 18.7059 13.0598 18.7246 13.078 18.738L13.71 19.213L13.473 19.976C13.4656 19.9974 13.4653 20.0205 13.472 20.0421C13.4787 20.0637 13.4921 20.0826 13.5103 20.096C13.5286 20.1094 13.5506 20.1166 13.5732 20.1166C13.5958 20.1166 13.6178 20.1094 13.636 20.096L14.276 19.631L14.916 20.097C14.9342 20.11 14.9561 20.1169 14.9785 20.1166C15.0009 20.1164 15.0226 20.1092 15.0406 20.0958C15.0586 20.0825 15.0719 20.0638 15.0786 20.0425C15.0853 20.0211 15.0851 19.9982 15.078 19.977L14.841 19.213L15.474 18.738C15.4922 18.7246 15.5057 18.7059 15.5127 18.6844C15.5197 18.6629 15.5198 18.6398 15.513 18.6183C15.5061 18.5967 15.4927 18.5779 15.4746 18.5644C15.4565 18.5509 15.4346 18.5434 15.412 18.543ZM24.653 8.078L24.416 8.841C24.4086 8.86237 24.4083 8.88553 24.415 8.90712C24.4217 8.9287 24.4351 8.94757 24.4533 8.96098C24.4715 8.97438 24.4936 8.98161 24.5162 8.98161C24.5388 8.98162 24.5608 8.9744 24.579 8.961L25.219 8.496L25.859 8.962C25.8772 8.97498 25.8991 8.98186 25.9215 8.98165C25.9439 8.98144 25.9656 8.97415 25.9836 8.96083C26.0016 8.94751 26.0149 8.92884 26.0216 8.90749C26.0283 8.88615 26.0281 8.86322 26.021 8.842L25.784 8.078L26.417 7.603C26.4352 7.58962 26.4487 7.57087 26.4557 7.54939C26.4627 7.52791 26.4628 7.50478 26.456 7.48326C26.4491 7.46173 26.4357 7.44289 26.4176 7.42939C26.3995 7.41589 26.3776 7.40841 26.355 7.408L25.568 7.402L25.319 6.642C25.3122 6.62081 25.2989 6.60232 25.2809 6.5892C25.2629 6.57608 25.2413 6.56902 25.219 6.56902C25.1967 6.56902 25.1751 6.57608 25.1571 6.5892C25.1391 6.60232 25.1258 6.62081 25.119 6.642L24.869 7.402L24.083 7.408C24.0603 7.40821 24.0383 7.41554 24.02 7.42897C24.0018 7.44239 23.9882 7.46122 23.9812 7.48279C23.9742 7.50436 23.9742 7.52758 23.9812 7.54916C23.9882 7.57073 24.0017 7.58957 24.02 7.603L24.653 8.078ZM12.48 15.56L11.693 15.553L11.444 14.794C11.4372 14.7728 11.4239 14.7543 11.4059 14.7412C11.3879 14.7281 11.3663 14.721 11.344 14.721C11.3217 14.721 11.3001 14.7281 11.2821 14.7412C11.2641 14.7543 11.2508 14.7728 11.244 14.794L10.994 15.554L10.208 15.56C10.1856 15.5605 10.1639 15.5679 10.1459 15.5813C10.1279 15.5947 10.1145 15.6133 10.1076 15.6346C10.1007 15.6559 10.1005 15.6789 10.1072 15.7003C10.1139 15.7217 10.1271 15.7404 10.145 15.754L10.778 16.23L10.541 16.993C10.5336 17.0144 10.5333 17.0375 10.54 17.0591C10.5467 17.0807 10.5601 17.0996 10.5783 17.113C10.5966 17.1264 10.6186 17.1336 10.6412 17.1336C10.6638 17.1336 10.6858 17.1264 10.704 17.113L11.344 16.648L11.984 17.113C12.0022 17.126 12.0241 17.1329 12.0465 17.1326C12.0689 17.1324 12.0906 17.1252 12.1086 17.1118C12.1266 17.0985 12.1399 17.0798 12.1466 17.0585C12.1533 17.0371 12.1531 17.0142 12.146 16.993L11.909 16.23L12.542 15.754C12.5598 15.7405 12.573 15.7218 12.5797 15.7005C12.5864 15.6792 12.5864 15.6564 12.5796 15.6351C12.5728 15.6138 12.5596 15.5951 12.5417 15.5817C12.5239 15.5683 12.5023 15.5607 12.48 15.56ZM15.412 4.425L14.625 4.418L14.376 3.659C14.3692 3.63781 14.3559 3.61932 14.3379 3.6062C14.3199 3.59308 14.2983 3.58602 14.276 3.58602C14.2537 3.58602 14.2321 3.59308 14.2141 3.6062C14.1961 3.61932 14.1828 3.63781 14.176 3.659L13.926 4.419L13.14 4.425C13.1177 4.42568 13.0961 4.43326 13.0783 4.4467C13.0604 4.46015 13.0472 4.4788 13.0404 4.50007C13.0336 4.52135 13.0336 4.54422 13.0403 4.56552C13.047 4.58681 13.0602 4.6055 13.078 4.619L13.71 5.095L13.473 5.858C13.4656 5.87937 13.4653 5.90253 13.472 5.92412C13.4787 5.9457 13.4921 5.96457 13.5103 5.97798C13.5286 5.99138 13.5506 5.99861 13.5732 5.99861C13.5958 5.99862 13.6178 5.9914 13.636 5.978L14.276 5.513L14.916 5.978C14.9342 5.99098 14.9561 5.99786 14.9785 5.99765C15.0009 5.99744 15.0226 5.99015 15.0406 5.97683C15.0586 5.96351 15.0719 5.94484 15.0786 5.92349C15.0853 5.90215 15.0851 5.87922 15.078 5.858L14.841 5.095L15.474 4.619C15.4918 4.6055 15.505 4.58681 15.5117 4.56552C15.5184 4.54422 15.5184 4.52135 15.5116 4.50007C15.5048 4.4788 15.4916 4.46015 15.4737 4.4467C15.4559 4.43326 15.4343 4.42568 15.412 4.425ZM23.422 18.543L22.636 18.537L22.387 17.777C22.3805 17.7554 22.3672 17.7365 22.3491 17.7231C22.331 17.7097 22.309 17.7024 22.2865 17.7024C22.264 17.7024 22.242 17.7097 22.2239 17.7231C22.2058 17.7365 22.1925 17.7554 22.186 17.777L21.937 18.537L21.15 18.543C21.1274 18.5434 21.1055 18.5509 21.0874 18.5644C21.0693 18.5779 21.0559 18.5967 21.049 18.6183C21.0422 18.6398 21.0423 18.6629 21.0493 18.6844C21.0563 18.7059 21.0698 18.7246 21.088 18.738L21.721 19.213L21.484 19.976C21.4766 19.9974 21.4763 20.0205 21.483 20.0421C21.4897 20.0637 21.5031 20.0826 21.5213 20.096C21.5395 20.1094 21.5616 20.1166 21.5842 20.1166C21.6068 20.1166 21.6288 20.1094 21.647 20.096L22.287 19.631L22.927 20.097C22.9452 20.11 22.9671 20.1169 22.9895 20.1166C23.0119 20.1164 23.0336 20.1092 23.0516 20.0958C23.0696 20.0825 23.0829 20.0638 23.0896 20.0425C23.0963 20.0211 23.0961 19.9982 23.089 19.977L22.852 19.213L23.485 18.738C23.5032 18.7246 23.5167 18.7059 23.5237 18.6844C23.5307 18.6629 23.5308 18.6398 23.524 18.6183C23.5171 18.5967 23.5037 18.5779 23.4856 18.5644C23.4675 18.5509 23.4446 18.5434 23.422 18.543Z"
		fill="#FFE15A"
	/>
</svg>
