<svg viewBox="0 0 36 24" fill="none" xmlns="http://www.w3.org/2000/svg">
	<path d="M36 24H0V0H36" fill="#F5F5F5" />
	<path
		d="M36 10.105V13.895H19.862V24H16.138V13.895H0V10.105H16.138V0H19.862V10.105H36ZM7.407 5.727L7.22 7.579C7.7829 7.50486 8.3531 7.50486 8.916 7.579C8.855 6.953 8.792 6.341 8.73 5.727L10.55 5.916C10.4772 5.34297 10.4772 4.76303 10.55 4.19C9.936 4.252 9.334 4.315 8.73 4.379C8.79261 3.7614 8.85461 3.14373 8.916 2.526C8.3531 2.60014 7.7829 2.60014 7.22 2.526C7.282 3.152 7.343 3.765 7.406 4.379C6.802 4.316 6.2 4.252 5.586 4.189C5.65897 4.76235 5.65897 5.34265 5.586 5.916C6.2 5.853 6.802 5.79 7.406 5.726L7.407 5.727ZM27.269 5.727L27.083 7.579C27.6459 7.50486 28.2161 7.50486 28.779 7.579C28.718 6.953 28.656 6.341 28.594 5.727L30.414 5.916C30.3412 5.34297 30.3412 4.76303 30.414 4.19C29.799 4.252 29.197 4.315 28.594 4.379L28.779 2.526C28.2161 2.60014 27.6459 2.60014 27.083 2.526L27.269 4.379C26.665 4.316 26.063 4.252 25.449 4.189C25.522 4.76235 25.522 5.34265 25.449 5.916C26.063 5.853 26.666 5.79 27.269 5.726V5.727ZM8.73 18.273L8.916 16.421C8.3531 16.4951 7.7829 16.4951 7.22 16.421C7.282 17.047 7.343 17.66 7.406 18.273L5.586 18.084C5.65897 18.6574 5.65897 19.2376 5.586 19.811C6.2 19.748 6.802 19.685 7.406 19.621L7.22 21.474C7.7829 21.3999 8.3531 21.3999 8.916 21.474C8.855 20.848 8.792 20.235 8.73 19.622L10.55 19.811C10.4771 19.2376 10.4771 18.6574 10.55 18.084C9.936 18.147 9.334 18.209 8.73 18.273ZM28.593 18.273L28.778 16.421C28.2151 16.4951 27.6449 16.4951 27.082 16.421L27.268 18.273L25.448 18.084C25.521 18.6574 25.521 19.2376 25.448 19.811C26.062 19.748 26.665 19.685 27.268 19.621L27.082 21.474C27.6449 21.3999 28.2151 21.3999 28.778 21.474C28.717 20.848 28.655 20.235 28.593 19.622L30.413 19.811C30.3401 19.2376 30.3401 18.6574 30.413 18.084C29.798 18.147 29.196 18.209 28.593 18.273Z"
		fill="#FF4B55"
	/>
</svg>
