<svg viewBox="0 0 36 24" fill="none" xmlns="http://www.w3.org/2000/svg">
	<path
		d="M35.38 24H0V0H36V23.368C36.0008 23.4502 35.9854 23.5318 35.9547 23.608C35.9239 23.6843 35.8785 23.7537 35.8209 23.8124C35.7633 23.8711 35.6948 23.9179 35.6191 23.9501C35.5435 23.9822 35.4622 23.9992 35.38 24Z"
		fill="#F5F5F5"
	/>
	<path
		d="M36 15.79V24H0V15.79H36ZM24.828 13.895H24.207V8.842H24.827V7.58H23.587V4.421H24.207V3.158H20.483V4.42H21.103V7.58H19.241V3.158H19.862V1.895H16.138V3.158H16.758V7.579H14.897V4.421H15.517V3.158H11.793V4.42H12.413V7.58H11.173V8.843H11.793V13.896H11.173V15.159H24.828V13.895Z"
		fill="#FF4B55"
	/>
	<path
		d="M19.241 12V14.526H16.76V12C16.7533 11.8328 16.7804 11.666 16.8398 11.5096C16.8991 11.3532 16.9894 11.2104 17.1053 11.0897C17.2212 10.9691 17.3603 10.8731 17.5142 10.8075C17.6681 10.742 17.8337 10.7082 18.001 10.7082C18.1683 10.7082 18.3339 10.742 18.4878 10.8075C18.6417 10.8731 18.7808 10.9691 18.8967 11.0897C19.0126 11.2104 19.1029 11.3532 19.1622 11.5096C19.2216 11.666 19.2487 11.8328 19.242 12H19.241ZM18.621 6.316C18.621 6.1513 18.5556 5.99335 18.4391 5.87689C18.3227 5.76043 18.1647 5.695 18 5.695C17.8353 5.695 17.6773 5.76043 17.5609 5.87689C17.4444 5.99335 17.379 6.1513 17.379 6.316V8.21H18.621V6.316ZM22.965 6.947C22.965 6.78243 22.8996 6.62461 22.7833 6.50824C22.6669 6.39187 22.5091 6.3265 22.3445 6.3265C22.1799 6.3265 22.0221 6.39187 21.9057 6.50824C21.7894 6.62461 21.724 6.78243 21.724 6.947V8.211H22.965V6.947ZM14.275 6.947C14.275 6.78257 14.2097 6.62487 14.0934 6.50859C13.9771 6.39232 13.8194 6.327 13.655 6.327C13.4906 6.327 13.3329 6.39232 13.2166 6.50859C13.1003 6.62487 13.035 6.78257 13.035 6.947V8.211H14.275V6.947ZM21.725 11.368C21.5604 11.3693 21.3977 11.4031 21.2462 11.4673C21.0946 11.5316 20.9573 11.6251 20.8419 11.7425C20.7265 11.8599 20.6355 11.9989 20.5739 12.1515C20.5123 12.3041 20.4814 12.4674 20.483 12.632V14.526H22.965V12.632C22.9666 12.4676 22.9358 12.3045 22.8743 12.152C22.8128 11.9995 22.7219 11.8605 22.6068 11.7432C22.4917 11.6258 22.3545 11.5323 22.2032 11.4679C22.0519 11.4035 21.8894 11.3696 21.725 11.368ZM14.275 11.368C14.1106 11.3696 13.9481 11.4035 13.7968 11.4679C13.6455 11.5323 13.5083 11.6258 13.3932 11.7432C13.2781 11.8605 13.1872 11.9995 13.1257 12.152C13.0642 12.3045 13.0334 12.4676 13.035 12.632V14.526H15.517V12.632C15.5186 12.4675 15.4877 12.3043 15.4262 12.1517C15.3647 11.9992 15.2737 11.8602 15.1584 11.7428C15.0432 11.6254 14.9059 11.5319 14.7545 11.4676C14.6031 11.4033 14.4405 11.3694 14.276 11.368H14.275Z"
		fill="#464655"
	/>
	<path
		d="M19.707 16.737C19.7072 16.6852 19.6948 16.6342 19.6707 16.5883C19.6467 16.5425 19.6117 16.5032 19.569 16.474L18.31 15.621V15.353L19.38 14.809C19.4542 14.7707 19.5103 14.7048 19.5363 14.6255C19.5624 14.5461 19.5561 14.4598 19.519 14.385C19.5012 14.3481 19.4762 14.315 19.4455 14.2879C19.4148 14.2607 19.379 14.24 19.3401 14.2268C19.3013 14.2137 19.2602 14.2085 19.2193 14.2114C19.1784 14.2143 19.1386 14.2254 19.102 14.244L18 14.805L16.897 14.245C16.8606 14.2266 16.8208 14.2155 16.7801 14.2126C16.7393 14.2097 16.6984 14.2149 16.6597 14.2279C16.621 14.2409 16.5852 14.2615 16.5546 14.2885C16.5239 14.3155 16.4989 14.3483 16.481 14.385C16.4439 14.4598 16.4376 14.5461 16.4637 14.6255C16.4897 14.7048 16.5458 14.7707 16.62 14.809L17.69 15.353V15.621L16.431 16.474C16.3883 16.5033 16.3534 16.5426 16.3293 16.5884C16.3051 16.6342 16.2925 16.6852 16.2925 16.737C16.2925 16.7888 16.3051 16.8398 16.3293 16.8856C16.3534 16.9314 16.3883 16.9707 16.431 17L17.69 17.853V20.526H16.448V21.01C16.4476 21.0511 16.4553 21.0919 16.4707 21.13C16.486 21.1681 16.5088 21.2029 16.5375 21.2322C16.5663 21.2616 16.6006 21.2849 16.6384 21.301C16.6763 21.3171 16.7169 21.3256 16.758 21.326C16.8148 21.3259 16.8705 21.3102 16.919 21.2805C16.9675 21.2509 17.007 21.2085 17.033 21.158H17.69V21.79H17.027C17.0002 21.7424 16.9613 21.7027 16.9143 21.6749C16.8672 21.6472 16.8136 21.6324 16.759 21.632C16.7179 21.6324 16.6773 21.6409 16.6394 21.657C16.6016 21.6731 16.5673 21.6964 16.5385 21.7258C16.5098 21.7551 16.487 21.7899 16.4717 21.828C16.4563 21.8661 16.4486 21.9069 16.449 21.948V22.421H17.689V22.737C17.689 22.8193 17.7217 22.8983 17.7799 22.9566C17.8382 23.0148 17.9172 23.0475 17.9995 23.0475C18.0818 23.0475 18.1608 23.0148 18.2191 22.9566C18.2773 22.8983 18.31 22.8193 18.31 22.737V17.853L19.57 17C19.6127 16.9707 19.6475 16.9314 19.6716 16.8856C19.6956 16.8398 19.7071 16.7888 19.707 16.737ZM18 17.305L17.163 16.737L18 16.169L18.837 16.737L18 17.305Z"
		fill="#FFE15A"
	/>
</svg>
