<svg viewBox="0 0 36 24" fill="none" xmlns="http://www.w3.org/2000/svg">
	<path d="M36 24H0V0H36" fill="#FF4B55" />
	<path
		d="M17.592 10.54L16.303 9.966L16.311 9.831C16.8116 9.90795 17.3016 10.0429 17.771 10.233C17.7838 10.2409 17.7987 10.2444 17.8137 10.2432C17.8286 10.2419 17.8427 10.2359 17.854 10.226L18.924 9.319L19.154 9.529C18.8045 9.90104 18.4171 10.2355 17.998 10.527C17.9843 10.5336 17.973 10.5442 17.9657 10.5575C17.9583 10.5707 17.9553 10.5859 17.957 10.601L18.089 12.027L17.917 12.128C17.7128 11.6495 17.6168 11.1319 17.636 10.612C17.637 10.5969 17.6333 10.5819 17.6255 10.569C17.6176 10.5561 17.6059 10.546 17.592 10.54ZM23.037 5.609L23.126 5.346L22.846 5.556C22.8346 5.56477 22.821 5.57016 22.8066 5.57158C22.7923 5.57299 22.7779 5.57037 22.765 5.564L22.481 5.417L22.544 5.85C22.5458 5.86133 22.5451 5.87292 22.542 5.88396C22.5389 5.895 22.5334 5.90525 22.526 5.914L22.241 6.243L22.591 6.193C22.6101 6.19025 22.6296 6.19479 22.6455 6.20572C22.6614 6.21665 22.6727 6.23317 22.677 6.252L22.757 6.549L22.902 6.19C22.9093 6.17275 22.9224 6.15859 22.939 6.15L23.134 6.05C23.1323 5.96753 23.1516 5.88598 23.19 5.813L23.059 5.693C23.0478 5.68246 23.0399 5.669 23.036 5.65415C23.0321 5.6393 23.0324 5.62366 23.037 5.609ZM19.587 17.262L19.85 17.081L19.447 16.927C19.4363 16.9229 19.4266 16.9164 19.4186 16.9081C19.4107 16.8998 19.4047 16.8899 19.401 16.879L19.257 16.466L19.129 16.802C19.1224 16.8198 19.1095 16.8346 19.0927 16.8434C19.0759 16.8523 19.0564 16.8546 19.038 16.85L18.744 16.777L18.981 17.08C18.9925 17.0948 18.9985 17.1132 18.998 17.132L18.99 17.355C19.0614 17.3938 19.1217 17.4502 19.165 17.519L19.332 17.46C19.3465 17.4551 19.362 17.4546 19.3768 17.4586C19.3916 17.4625 19.4048 17.4706 19.415 17.482L19.598 17.688L19.553 17.338C19.551 17.3235 19.5531 17.3088 19.5589 17.2954C19.5647 17.282 19.5751 17.2704 19.587 17.262ZM11.659 8.722L11.855 8.488L11.482 8.568C11.4639 8.57177 11.4451 8.56893 11.429 8.56L11.237 8.453C11.1715 8.50088 11.0946 8.53087 11.014 8.54L10.991 8.718C10.989 8.73321 10.9826 8.74753 10.9727 8.75923C10.9628 8.77093 10.9497 8.77953 10.935 8.784L10.672 8.858L11.001 8.973C11.0147 8.97807 11.0267 8.98683 11.0357 8.9983C11.0447 9.00977 11.0503 9.02351 11.052 9.038L11.094 9.359L11.409 9.061C11.4174 9.0532 11.4273 9.04736 11.4382 9.0439C11.4491 9.04044 11.4607 9.03945 11.472 9.041L11.899 9.094L11.661 8.827C11.6483 8.81275 11.6412 8.79444 11.6408 8.77537C11.6404 8.7563 11.6469 8.73673 11.659 8.722ZM17.318 19.425L18.09 19.185C18.1207 19.105 18.1547 19.0223 18.192 18.937L17.386 19.162C17.365 19.251 17.34 19.339 17.318 19.425ZM15.075 13.543C14.9828 13.6887 14.8583 13.8113 14.711 13.901C14.5358 13.9455 14.3518 13.941 14.179 13.888C13.9998 13.8388 13.8116 13.8312 13.629 13.866C13.557 13.888 13.469 13.933 13.473 14.031C13.4749 14.0699 13.4875 14.1076 13.5094 14.1398C13.5313 14.1721 13.5616 14.1978 13.597 14.214C13.6983 14.2083 13.7976 14.1839 13.89 14.142C14.1187 14.0445 14.3668 14.0011 14.615 14.015C14.7 14.0207 14.7824 14.047 14.8551 14.0916C14.9277 14.1362 14.9884 14.1977 15.032 14.271C15.0551 14.3105 15.0857 14.3451 15.122 14.373C15.2379 14.2753 15.3242 14.1472 15.371 14.003C15.3855 13.9468 15.3873 13.888 15.3764 13.8309C15.3655 13.7739 15.3422 13.72 15.308 13.673C15.2499 13.6013 15.1665 13.5548 15.075 13.543ZM10.031 6.816C10.0863 6.88 10.1433 6.948 10.202 7.02L10.365 6.186C10.297 6.127 10.23 6.065 10.165 6.006L10.031 6.816ZM16.185 6.102C16.2238 5.923 16.3098 5.75763 16.434 5.623C16.5582 5.48121 16.649 5.31345 16.7 5.132C16.7135 5.09285 16.7134 5.05027 16.6996 5.01122C16.6858 4.97216 16.6591 4.93895 16.624 4.917C16.5886 4.90134 16.5494 4.89594 16.5111 4.90142C16.4727 4.9069 16.4366 4.92304 16.407 4.948C16.3673 5.04292 16.3449 5.14419 16.341 5.247C16.3242 5.49856 16.2515 5.74318 16.128 5.963C16.0861 6.03721 16.0268 6.10011 15.9552 6.14628C15.8836 6.19245 15.8019 6.22049 15.717 6.228C15.6717 6.23164 15.6275 6.24422 15.587 6.265C15.6207 6.41315 15.6952 6.54893 15.802 6.657C15.8446 6.69502 15.8952 6.72288 15.9501 6.73847C16.0051 6.75406 16.0628 6.75698 16.119 6.747C16.2087 6.7255 16.2868 6.67037 16.337 6.593C16.2499 6.44291 16.1979 6.27504 16.185 6.102ZM25.143 5.962C25.0597 5.97333 24.9723 5.983 24.881 5.991L25.465 6.599C25.552 6.575 25.64 6.554 25.725 6.532L25.143 5.962ZM22.848 12.146C22.6528 11.9887 22.4955 11.7894 22.388 11.563C22.3514 11.4848 22.334 11.3991 22.3371 11.3128C22.3403 11.2266 22.3639 11.1423 22.406 11.067C22.4285 11.0268 22.4431 10.9827 22.449 10.937C22.3095 10.882 22.1572 10.8681 22.01 10.897C21.9545 10.9115 21.9029 10.9382 21.8592 10.9752C21.8154 11.0123 21.7805 11.0587 21.757 11.111C21.7237 11.1984 21.7244 11.2951 21.759 11.382C21.9298 11.3937 22.0955 11.445 22.243 11.532C22.3667 11.6671 22.452 11.8328 22.49 12.012C22.5348 12.1951 22.6198 12.3659 22.739 12.512C22.792 12.565 22.873 12.622 22.955 12.571C22.988 12.5498 23.0146 12.5199 23.0319 12.4847C23.0492 12.4494 23.0565 12.4101 23.053 12.371C22.9988 12.2842 22.9294 12.208 22.848 12.146Z"
		fill="#FFE15A"
	/>
	<path
		d="M17.15 20.02L17.887 19.773C17.7322 20.0823 17.487 20.3372 17.184 20.504C17.1747 20.5056 17.1652 20.5046 17.1564 20.5013C17.1476 20.4979 17.1399 20.4923 17.134 20.485C17.1038 20.4243 17.0875 20.3575 17.0865 20.2897C17.0855 20.2218 17.0996 20.1546 17.128 20.093L17.15 20.02ZM17.203 19.836L17.962 19.58C17.978 19.523 17.999 19.447 18.024 19.37L17.268 19.608C17.2467 19.6907 17.225 19.7667 17.203 19.836ZM17.43 18.985L18.28 18.751C18.301 18.706 18.323 18.665 18.345 18.624L17.523 18.564C17.4956 18.7048 17.4646 18.8448 17.43 18.984V18.985ZM18.164 17.978C18.0089 18.0514 17.8384 18.086 17.667 18.079C17.635 18.079 17.598 18.079 17.564 18.076C17.567 18.117 17.57 18.156 17.57 18.196C17.5675 18.2664 17.5601 18.3366 17.548 18.406L18.441 18.472C18.4822 18.408 18.5301 18.3487 18.584 18.295C18.4117 18.2407 18.2634 18.1288 18.164 17.978ZM18.457 17.348C18.4444 17.3475 18.4323 17.3433 18.422 17.336C18.114 17.0884 17.869 16.7715 17.707 16.411C17.645 16.31 17.577 16.193 17.502 16.066C17.3789 16.1721 17.2225 16.2316 17.06 16.234C17.0453 16.2346 17.0305 16.2336 17.016 16.231C17.1184 16.4522 17.2787 16.6415 17.48 16.779C17.878 17 18.528 17.415 18.435 17.681C18.4061 17.7607 18.3568 17.8314 18.292 17.886C18.3452 17.9646 18.4153 18.0305 18.4971 18.0787C18.5789 18.127 18.6704 18.1564 18.765 18.165C18.8693 18.1323 18.957 18.0609 19.0102 17.9655C19.0634 17.8701 19.078 17.7579 19.051 17.652C19.026 17.462 18.603 17.367 18.457 17.348ZM17.545 17.918C18.111 17.956 18.255 17.728 18.289 17.627C18.317 17.554 18.015 17.26 17.405 16.917C17.0705 16.6575 16.8178 16.3072 16.677 15.908C16.5861 15.7016 16.4791 15.5026 16.357 15.313C16.2811 15.2089 16.1921 15.1151 16.092 15.034C16.0464 15.0577 15.9997 15.079 15.952 15.098C15.7828 15.1546 15.6288 15.2494 15.5022 15.3751C15.3756 15.5009 15.2797 15.6541 15.222 15.823C15.8113 16.355 16.4483 16.8317 17.125 17.247C17.2456 17.3147 17.3473 17.4116 17.4207 17.5288C17.4941 17.6461 17.5369 17.7799 17.545 17.918ZM16.481 15.221C16.6101 15.4169 16.7225 15.6233 16.817 15.838C16.855 15.911 16.889 15.984 16.927 16.057C17.0127 16.0795 17.1028 16.0797 17.1886 16.0574C17.2744 16.0352 17.353 15.9913 17.417 15.93C17.307 15.748 17.1944 15.5676 17.079 15.389C16.8898 15.0852 16.6582 14.8101 16.391 14.572C16.3915 14.6422 16.3767 14.7116 16.3477 14.7755C16.3187 14.8394 16.2761 14.8962 16.223 14.942C16.3209 15.0236 16.4077 15.1177 16.481 15.222V15.221ZM15.514 14.072H15.511C15.4623 14.2107 15.3822 14.3363 15.277 14.439C15.57 14.532 15.8471 14.6689 16.099 14.845C16.146 14.8095 16.1834 14.7628 16.2078 14.7092C16.2322 14.6556 16.243 14.5968 16.239 14.538C16.2393 14.5102 16.2413 14.4825 16.245 14.455C16.0285 14.2811 15.7802 14.1511 15.514 14.072ZM15.9 14.949C15.918 14.943 15.93 14.933 15.946 14.927C15.7006 14.7681 15.4335 14.6455 15.153 14.563H15.147C14.9379 14.7307 14.7116 14.8758 14.472 14.996C14.579 15.0795 14.6724 15.179 14.749 15.291C14.857 15.4326 14.9732 15.5679 15.097 15.696C15.17 15.5216 15.2794 15.3647 15.4179 15.2359C15.5564 15.1071 15.7207 15.0093 15.9 14.949ZM14.904 14.363C14.873 14.3069 14.8282 14.2597 14.7737 14.2259C14.7193 14.1921 14.657 14.1728 14.593 14.17C14.3692 14.1617 14.1463 14.2027 13.94 14.29C13.823 14.3476 13.6932 14.3741 13.563 14.367C13.5501 14.363 13.5377 14.3576 13.526 14.351C13.586 14.4836 13.6611 14.6088 13.75 14.724C13.8398 14.8085 13.9568 14.8582 14.08 14.864C14.142 14.876 14.217 14.892 14.291 14.911C14.5425 14.7922 14.7806 14.6467 15.001 14.477C14.9644 14.4428 14.9319 14.4046 14.904 14.363ZM14.207 13.733C14.3509 13.7789 14.5042 13.7868 14.652 13.756C14.7483 13.6952 14.831 13.6152 14.895 13.521L14.798 13.511C14.6195 13.5236 14.4418 13.4783 14.291 13.382C13.937 13.066 13.834 13.037 13.694 13.018C13.5847 13.1314 13.4888 13.2569 13.408 13.392C13.3364 13.5395 13.3208 13.7079 13.364 13.866C13.4166 13.79 13.4952 13.7359 13.585 13.714C13.791 13.6716 14.0041 13.6785 14.207 13.734V13.733ZM17.511 11.236C16.9866 11.4862 16.5091 11.8244 16.099 12.236C15.818 12.5442 15.5581 12.8709 15.321 13.214C15.271 13.284 15.225 13.347 15.178 13.407C15.2816 13.4333 15.3728 13.4948 15.436 13.581C15.4609 13.6176 15.4817 13.6568 15.498 13.698C15.508 13.683 15.514 13.67 15.523 13.654C15.5324 13.6406 15.5451 13.6299 15.56 13.623C15.884 13.486 17.436 12.448 17.785 12.214C17.6226 11.9122 17.5291 11.5782 17.511 11.236ZM14.419 12.135C14.2651 12.3963 14.0757 12.6349 13.856 12.844L13.821 12.882C14.0398 12.9607 14.2364 13.0911 14.394 13.262C14.5203 13.3321 14.6638 13.365 14.808 13.357C14.873 13.36 14.941 13.367 15.01 13.373L15.196 13.119C15.4368 12.7704 15.7007 12.4383 15.986 12.125C16.4223 11.6855 16.9337 11.3275 17.496 11.068C17.4863 10.9332 17.481 10.7981 17.48 10.663L16.245 10.113C15.5232 10.6755 14.9053 11.3598 14.419 12.135ZM9.314 5.365C9.30483 5.36722 9.29641 5.37181 9.28957 5.3783C9.28273 5.38479 9.2777 5.39296 9.275 5.402C9.28558 5.74997 9.40017 6.08678 9.604 6.369L9.716 5.588C9.696 5.566 9.676 5.55 9.662 5.535C9.62101 5.48177 9.56828 5.43873 9.50791 5.40924C9.44755 5.37975 9.38118 5.36461 9.314 5.365ZM9.74 6.523C9.783 6.563 9.84 6.617 9.896 6.673L10.026 5.879C9.96267 5.82233 9.90533 5.76867 9.854 5.718L9.74 6.523ZM10.501 6.305L10.327 7.183C10.357 7.223 10.383 7.261 10.41 7.299L10.83 6.579C10.718 6.49055 10.6083 6.39919 10.501 6.305ZM11.191 6.925C11.205 6.897 11.221 6.863 11.24 6.833C11.202 6.817 11.167 6.803 11.131 6.785C11.0704 6.75142 11.0123 6.71366 10.957 6.672L10.5 7.455C10.5381 7.52117 10.5689 7.59124 10.592 7.664C10.715 7.53264 10.8796 7.44785 11.058 7.424C11.0624 7.24919 11.1079 7.07788 11.191 6.924V6.925ZM11.199 7.803C11.1412 7.74018 11.1008 7.66329 11.082 7.58C10.988 7.59417 10.8983 7.62895 10.8193 7.68185C10.7402 7.73475 10.6739 7.80446 10.625 7.886C10.6058 7.99351 10.6286 8.1043 10.6887 8.19549C10.7488 8.28668 10.8416 8.3513 10.948 8.376C11.126 8.438 11.399 8.096 11.481 7.971C11.487 7.96001 11.496 7.95098 11.507 7.945C11.86 7.77558 12.2487 7.69393 12.64 7.707C12.757 7.696 12.89 7.686 13.035 7.674C12.9969 7.51394 13.0145 7.34568 13.085 7.197C13.091 7.18362 13.0984 7.17089 13.107 7.159C12.8658 7.15392 12.6278 7.21514 12.419 7.336C12.046 7.6 11.391 8.006 11.199 7.803ZM11.311 7.693C11.363 7.751 11.756 7.608 12.329 7.206C12.7039 7.01819 13.1257 6.94481 13.542 6.995C13.7647 7.00424 13.9877 6.99554 14.209 6.969C14.3346 6.94651 14.4566 6.9075 14.572 6.853C14.57 6.806 14.575 6.755 14.579 6.697C14.606 6.51927 14.5921 6.33773 14.5384 6.16617C14.4847 5.99462 14.3926 5.83758 14.269 5.707C13.5354 6.00707 12.831 6.3743 12.165 6.804C12.0535 6.8833 11.9234 6.93258 11.7874 6.94711C11.6513 6.96165 11.5138 6.94095 11.388 6.887C11.101 7.385 11.238 7.617 11.311 7.693ZM14.845 7.331C14.7826 7.29949 14.7279 7.25469 14.6847 7.19975C14.6415 7.14481 14.6109 7.08106 14.595 7.013C14.4801 7.0656 14.3587 7.10259 14.234 7.123C14.0043 7.15296 13.7724 7.163 13.541 7.153C13.461 7.155 13.381 7.153 13.301 7.155C13.2423 7.2233 13.2016 7.30517 13.1826 7.39318C13.1636 7.48119 13.1668 7.57256 13.192 7.659C13.374 7.642 13.579 7.622 13.82 7.592C14.1725 7.55555 14.5178 7.46696 14.845 7.331ZM14.943 7.208C14.9672 7.22054 14.9906 7.23457 15.013 7.25C15.2638 7.12965 15.4889 6.9619 15.676 6.756L15.678 6.753C15.5771 6.64617 15.5021 6.5175 15.459 6.377C15.2477 6.60082 15.004 6.79162 14.736 6.943C14.7457 7.00093 14.7697 7.05553 14.8058 7.10182C14.842 7.1481 14.8891 7.18461 14.943 7.208ZM14.733 6.715C14.731 6.735 14.733 6.751 14.732 6.768C14.9823 6.61457 15.2093 6.42598 15.406 6.208L15.409 6.203C15.3545 5.93681 15.3277 5.6657 15.329 5.394C15.2087 5.45367 15.0798 5.49416 14.947 5.514C14.7738 5.54942 14.6028 5.59517 14.435 5.651C14.5564 5.79762 14.6456 5.96809 14.6969 6.15137C14.7483 6.33465 14.7605 6.52667 14.733 6.715ZM15.693 6.071C15.7571 6.06744 15.8192 6.04744 15.8733 6.01294C15.9274 5.97844 15.9717 5.93059 16.002 5.874C16.1093 5.67366 16.1727 5.45276 16.188 5.226C16.1898 5.09389 16.2245 4.96432 16.289 4.849C16.298 4.83895 16.3081 4.8299 16.319 4.822C16.1754 4.8173 16.0317 4.82972 15.891 4.859C15.779 4.89 15.715 4.971 15.621 5.097C15.583 5.148 15.535 5.209 15.485 5.268C15.4773 5.5495 15.499 5.83104 15.55 6.108C15.596 6.09009 15.644 6.07767 15.693 6.071ZM16.489 6.355C16.557 6.1882 16.676 6.04716 16.829 5.952C17.266 5.77 17.337 5.69 17.416 5.571C17.3657 5.42125 17.2986 5.27767 17.216 5.143C17.1192 5.01248 16.9774 4.92265 16.818 4.891C16.8617 4.97387 16.8741 5.06972 16.853 5.161C16.7986 5.36679 16.6977 5.55735 16.558 5.718C16.4534 5.82933 16.3784 5.96515 16.34 6.113C16.3499 6.22712 16.3829 6.33803 16.437 6.439L16.489 6.355ZM16.295 9.654C16.62 9.697 16.973 9.774 17.277 9.841C17.2916 9.25387 17.2078 8.66844 17.029 8.109C16.884 7.71636 16.713 7.33384 16.517 6.964C16.4802 6.89237 16.4449 6.82002 16.411 6.747C16.3428 6.82932 16.248 6.88522 16.143 6.905C16.0996 6.91132 16.0557 6.91266 16.012 6.909L16.04 6.951C16.0477 6.96615 16.0511 6.98307 16.05 7C16.026 7.355 16.245 9.232 16.295 9.654ZM16.621 6.433C16.5876 6.49271 16.5529 6.55172 16.517 6.61L16.656 6.893C16.855 7.26868 17.0287 7.65721 17.176 8.056C17.3681 8.65176 17.4547 9.27646 17.432 9.902C17.596 9.972 17.728 10.035 17.795 10.069L18.831 9.191C18.6605 8.28665 18.335 7.41856 17.869 6.625C17.7074 6.36678 17.5822 6.08747 17.497 5.795C17.492 5.778 17.485 5.765 17.479 5.747C17.3135 5.91012 17.1111 6.03088 16.889 6.099C16.789 6.139 16.709 6.283 16.621 6.433ZM26.717 6.127C26.4291 5.93947 26.0904 5.84519 25.747 5.857L26.317 6.393L26.39 6.377C26.457 6.37204 26.5219 6.3518 26.5798 6.31782C26.6377 6.28384 26.687 6.23703 26.724 6.181C26.7275 6.17215 26.7287 6.16254 26.7275 6.15309C26.7263 6.14364 26.7227 6.13466 26.717 6.127ZM25.335 5.93L25.906 6.487C25.9873 6.467 26.0633 6.44967 26.134 6.435L25.544 5.884C25.4747 5.90109 25.405 5.91643 25.335 5.93ZM24.538 6.007L24.885 6.767C25.005 6.728 25.145 6.685 25.292 6.646L24.678 6.004L24.538 6.007ZM24.138 5.954C24.1753 6.13221 24.1517 6.31779 24.071 6.481C24.2101 6.58439 24.3225 6.71946 24.399 6.875C24.414 6.903 24.432 6.935 24.446 6.968C24.48 6.945 24.511 6.924 24.546 6.904C24.6074 6.87228 24.6708 6.84488 24.736 6.822L24.36 5.995C24.2851 5.98978 24.211 5.97636 24.139 5.955L24.138 5.954ZM23.108 8.31C23.1154 8.32265 23.1215 8.33606 23.126 8.35C23.2669 8.14994 23.3518 7.91587 23.372 7.672C23.369 7.211 23.41 6.431 23.683 6.385C23.7663 6.37168 23.8516 6.38101 23.93 6.412C23.9715 6.32565 23.9939 6.23137 23.9956 6.13559C23.9973 6.03981 23.9783 5.94479 23.94 5.857C23.8634 5.78022 23.7597 5.73657 23.6512 5.73545C23.5428 5.73433 23.4382 5.77582 23.36 5.851C23.209 5.965 23.333 6.388 23.387 6.527C23.3923 6.53821 23.3944 6.55068 23.393 6.563C23.3311 6.95501 23.178 7.327 22.946 7.649C22.889 7.753 22.822 7.871 22.749 7.999C22.9011 8.05788 23.028 8.16782 23.108 8.31ZM23.708 6.541C23.632 6.551 23.525 6.963 23.528 7.671C23.4684 8.09168 23.2897 8.48653 23.013 8.809C22.8795 8.99073 22.7605 9.18265 22.657 9.383C22.6047 9.50114 22.5677 9.62548 22.547 9.753C22.5892 9.78226 22.6299 9.81363 22.669 9.847C22.7972 9.96967 22.9523 10.0606 23.122 10.1125C23.2916 10.1645 23.4711 10.1759 23.646 10.146C23.8173 9.36161 23.9177 8.56339 23.946 7.761C23.9446 7.62243 23.9781 7.48573 24.0432 7.36343C24.1084 7.24113 24.2032 7.13714 24.319 7.061C24.077 6.539 23.811 6.522 23.708 6.541ZM22.404 9.681C22.4261 9.55526 22.4645 9.43291 22.518 9.317C22.6232 9.10735 22.746 8.90697 22.885 8.718L23.02 8.515C22.9986 8.42813 22.9556 8.3481 22.8949 8.28235C22.8342 8.21661 22.7579 8.16729 22.673 8.139C22.583 8.302 22.484 8.485 22.373 8.704C22.203 9.0209 22.0788 9.36027 22.004 9.712C22.0642 9.67739 22.1314 9.65673 22.2006 9.65154C22.2698 9.64635 22.3393 9.65676 22.404 9.682V9.681ZM22.002 10.738C22.1454 10.714 22.2924 10.7242 22.431 10.768C22.3688 10.4628 22.352 10.1501 22.381 9.84C22.3281 9.81521 22.2697 9.8044 22.2114 9.80861C22.1531 9.81281 22.0968 9.83188 22.048 9.864C22.0244 9.87715 22 9.88884 21.975 9.899C21.9306 10.1768 21.9391 10.4604 22 10.735L22.002 10.738ZM22.567 9.966C22.552 9.953 22.537 9.946 22.525 9.936C22.5076 10.2319 22.5318 10.5288 22.597 10.818L22.6 10.824C22.8465 10.9289 23.0811 11.0596 23.3 11.214C23.3196 11.0787 23.3597 10.9472 23.419 10.824C23.4884 10.6589 23.5482 10.49 23.598 10.318C23.4109 10.337 23.222 10.3154 23.044 10.2546C22.8661 10.1939 22.7034 10.0954 22.567 9.966ZM23.314 11.416C23.0911 11.2508 22.851 11.11 22.598 10.996C22.5861 11.0445 22.5687 11.0915 22.546 11.136C22.5128 11.1915 22.494 11.2545 22.4914 11.3191C22.4888 11.3837 22.5024 11.448 22.531 11.506C22.6317 11.7088 22.775 11.8876 22.951 12.03C23.0577 12.1068 23.1434 12.2093 23.2 12.328C23.2026 12.3412 23.204 12.3546 23.204 12.368C23.2895 12.25 23.3609 12.1225 23.417 11.988C23.4457 11.8667 23.4316 11.7391 23.377 11.627C23.3545 11.5571 23.3335 11.4868 23.314 11.416ZM22.344 12.062C22.3135 11.9119 22.2458 11.772 22.147 11.655C22.0486 11.599 21.9396 11.5643 21.827 11.553L21.867 11.643C21.9643 11.7965 22.0112 11.9766 22.001 12.158C21.901 12.627 21.926 12.732 21.978 12.866C22.128 12.9081 22.2824 12.9326 22.438 12.939C22.5999 12.9307 22.753 12.8623 22.867 12.747C22.7752 12.7367 22.6905 12.6929 22.629 12.624C22.4919 12.461 22.3951 12.2688 22.344 12.062ZM20.139 11.106C20.5396 11.2061 20.9465 11.2786 21.357 11.323C21.441 11.333 21.518 11.344 21.592 11.357C21.5641 11.2522 21.573 11.1411 21.617 11.042C21.6362 11.0022 21.6596 10.9647 21.687 10.93H21.637C21.6206 10.9282 21.6051 10.922 21.592 10.912C21.318 10.69 19.672 9.812 19.302 9.616C19.0874 9.87585 18.8505 10.1164 18.594 10.335C19.061 10.6784 19.5836 10.9389 20.139 11.105V11.106ZM21.644 11.523L21.336 11.48C20.9188 11.4351 20.5051 11.3616 20.098 11.26C19.5062 11.0835 18.9507 10.8024 18.458 10.43C18.3467 10.5037 18.2329 10.5738 18.117 10.64L18.243 12.007C19.0727 12.3748 19.9612 12.5921 20.867 12.649C21.1673 12.6593 21.4646 12.7122 21.75 12.806L21.799 12.818C21.7609 12.5863 21.7777 12.349 21.848 12.125C21.8467 11.9786 21.8052 11.8354 21.728 11.711C21.699 11.651 21.672 11.587 21.644 11.523Z"
		fill="#F5F5F5"
	/>
	<path
		d="M26.858 6.061C26.8521 6.04881 26.8447 6.03739 26.836 6.027C26.6456 5.89234 26.4303 5.79676 26.2027 5.74578C25.9751 5.6948 25.7397 5.68944 25.51 5.73C25.0377 5.88607 24.5285 5.89131 24.053 5.745C23.9558 5.64584 23.8249 5.58673 23.6863 5.57932C23.5476 5.57192 23.4112 5.61676 23.304 5.705L23.201 5.611L23.354 5.157C23.3576 5.14657 23.3591 5.13549 23.3582 5.12448C23.3573 5.11346 23.3542 5.10274 23.349 5.093C23.3437 5.08282 23.3362 5.07394 23.327 5.067C23.3136 5.05686 23.2973 5.05137 23.2805 5.05137C23.2637 5.05137 23.2474 5.05686 23.234 5.067L22.792 5.4L22.417 5.206C22.4043 5.19958 22.3901 5.19683 22.376 5.19807C22.3619 5.19931 22.3484 5.20448 22.337 5.213C22.3253 5.22157 22.3161 5.23317 22.3105 5.24656C22.3048 5.25995 22.3029 5.27462 22.305 5.289L22.385 5.837L21.986 6.297C21.9754 6.30923 21.9688 6.32438 21.967 6.34045C21.9653 6.35651 21.9684 6.37274 21.976 6.387C21.985 6.39958 21.9968 6.40986 22.0106 6.41699C22.0243 6.42411 22.0395 6.42789 22.055 6.428L22.545 6.36L22.667 6.814C22.6707 6.83009 22.6795 6.84455 22.6921 6.85526C22.7046 6.86597 22.7203 6.87235 22.7368 6.87347C22.7533 6.87459 22.7697 6.87039 22.7836 6.86148C22.7975 6.85257 22.8081 6.83943 22.814 6.824L23.035 6.278L23.148 6.22C23.167 6.33759 23.1971 6.45311 23.238 6.565C23.1711 6.92687 23.0268 7.27003 22.815 7.571C22.663 7.834 22.478 8.159 22.235 8.629C21.8551 9.27489 21.7186 10.0353 21.85 10.773C21.7901 10.7767 21.7299 10.7767 21.67 10.773C21.298 10.491 19.381 9.481 19.3 9.437C19.1939 9.34578 19.0883 9.25411 18.983 9.162C18.8098 8.23637 18.4772 7.34785 18 6.536C17.8456 6.28933 17.7261 6.02246 17.645 5.743C17.5738 5.50358 17.4741 5.2736 17.348 5.058C17.042 4.577 16.084 4.645 15.853 4.705C15.7029 4.7583 15.577 4.86368 15.498 5.002C15.458 5.056 15.412 5.114 15.355 5.181C15.2324 5.28828 15.0776 5.35162 14.915 5.361C14.6944 5.40471 14.4771 5.4642 14.265 5.539C13.4984 5.84898 12.763 6.23138 12.069 6.681C11.9346 6.75439 11.7827 6.78964 11.6297 6.78294C11.4767 6.77624 11.3285 6.72785 11.201 6.643C10.6916 6.27675 10.2139 5.86831 9.773 5.422C9.7135 5.34852 9.63663 5.29102 9.54933 5.2547C9.46203 5.21839 9.36706 5.2044 9.273 5.214C9.24485 5.22126 9.21858 5.23448 9.19598 5.25276C9.17338 5.27105 9.15497 5.29398 9.142 5.32C9.13512 5.33196 9.12974 5.34472 9.126 5.358C9.12306 5.83486 9.30558 6.2942 9.635 6.639C10.052 7.014 10.496 7.611 10.471 7.854C10.4454 7.99141 10.471 8.13342 10.5428 8.25332C10.6146 8.37321 10.7278 8.46272 10.861 8.505L10.844 8.645L10.389 8.773C10.3732 8.77805 10.3593 8.7879 10.3494 8.80117C10.3394 8.81445 10.3338 8.83049 10.3334 8.84708C10.333 8.86367 10.3377 8.87999 10.3469 8.89377C10.3562 8.90755 10.3695 8.91811 10.385 8.924L10.905 9.107L10.959 9.532C10.9608 9.54631 10.9666 9.55984 10.9756 9.57112C10.9846 9.5824 10.9965 9.59101 11.01 9.596C11.0236 9.60097 11.0383 9.60201 11.0524 9.599C11.0666 9.59599 11.0796 9.58906 11.09 9.579L11.489 9.202L12.088 9.277C12.1038 9.27865 12.1198 9.27541 12.1337 9.26773C12.1477 9.26004 12.1589 9.24827 12.166 9.234C12.1712 9.21917 12.173 9.20332 12.171 9.18771C12.1691 9.1721 12.1636 9.15714 12.155 9.144L11.822 8.772L12.122 8.413C12.1325 8.40026 12.1388 8.38458 12.1401 8.36811C12.1414 8.35164 12.1375 8.33518 12.129 8.321C12.1209 8.30683 12.1085 8.2956 12.0935 8.28895C12.0786 8.2823 12.062 8.28057 12.046 8.284L11.478 8.407L11.368 8.345C11.4528 8.26254 11.5295 8.17212 11.597 8.075C11.9282 7.92658 12.2882 7.85349 12.651 7.861C12.951 7.84 13.319 7.811 13.837 7.749C14.5754 7.70248 15.2711 7.3865 15.792 6.861C15.8294 6.90916 15.8638 6.95959 15.895 7.012C15.875 7.483 16.141 9.663 16.151 9.757L16.146 9.992C15.4089 10.5659 14.778 11.2644 14.282 12.056C14.135 12.3056 13.9539 12.5334 13.744 12.733C13.5646 12.9053 13.4068 13.0987 13.274 13.309C12.988 13.803 13.477 14.645 13.632 14.829C13.7445 14.9409 13.8937 15.0084 14.052 15.019C14.117 15.031 14.189 15.047 14.273 15.069C14.41 15.107 14.493 15.215 14.628 15.389C14.7651 15.57 14.9148 15.7411 15.076 15.901C15.6888 16.4586 16.3531 16.9569 17.06 17.389C17.368 17.538 17.415 17.959 17.415 18.196C17.3208 18.8223 17.1749 19.4397 16.979 20.042C16.9411 20.1297 16.925 20.2252 16.932 20.3204C16.9389 20.4156 16.9688 20.5078 17.019 20.589C17.0376 20.6116 17.061 20.6298 17.0874 20.6424C17.1139 20.655 17.1427 20.6617 17.172 20.662C17.1854 20.6627 17.1988 20.6617 17.212 20.659C17.6362 20.4455 17.9595 20.0738 18.112 19.624C18.255 19.076 18.582 18.405 18.806 18.32C18.9399 18.2794 19.0543 18.1911 19.1276 18.0719C19.2009 17.9527 19.2281 17.8108 19.204 17.673L19.334 17.627L19.65 17.984C19.6573 17.9922 19.6662 17.9987 19.6762 18.0032C19.6862 18.0077 19.697 18.01 19.708 18.01C19.7195 18.0099 19.7308 18.0072 19.741 18.002C19.756 17.9946 19.7683 17.9828 19.7761 17.9681C19.784 17.9534 19.7871 17.9365 19.785 17.92L19.714 17.365L20.063 17.125C20.0746 17.1167 20.0838 17.1055 20.0896 17.0925C20.0954 17.0795 20.0976 17.0652 20.096 17.051C20.0944 17.0366 20.0889 17.023 20.0801 17.0115C20.0713 17 20.0595 16.9912 20.046 16.986L19.536 16.791L19.334 16.213C19.3289 16.1978 19.3192 16.1846 19.3063 16.1752C19.2935 16.1657 19.278 16.1604 19.262 16.16C19.2468 16.1621 19.2323 16.1677 19.2196 16.1764C19.2069 16.1851 19.1965 16.1966 19.189 16.21L19.009 16.68L18.56 16.568C18.5442 16.5639 18.5275 16.565 18.5124 16.5711C18.4973 16.5772 18.4845 16.5881 18.476 16.602C18.4672 16.616 18.463 16.6323 18.4639 16.6488C18.4648 16.6653 18.4708 16.6811 18.481 16.694L18.841 17.156L18.837 17.284C18.7268 17.2436 18.6129 17.2141 18.497 17.196C18.2172 16.9592 17.9924 16.6644 17.838 16.332C17.6374 15.9841 17.428 15.6413 17.21 15.304C16.8451 14.6567 16.2567 14.1646 15.555 13.92C15.5807 13.8646 15.6098 13.8109 15.642 13.759C16.065 13.566 17.863 12.35 17.941 12.299L17.943 12.296L18.186 12.153C19.0333 12.5293 19.9408 12.7517 20.866 12.81C21.1527 12.8197 21.4365 12.8702 21.709 12.96C21.9434 13.0356 22.1862 13.082 22.432 13.098C22.996 13.113 23.482 12.27 23.564 12.042C23.6055 11.8871 23.5914 11.7225 23.524 11.577C23.5002 11.5041 23.4789 11.4303 23.46 11.356C23.4425 11.192 23.4786 11.0267 23.563 10.885C23.6523 10.6745 23.7269 10.4579 23.786 10.237C23.9673 9.41949 24.0724 8.58692 24.1 7.75C24.078 7.403 24.417 7.158 24.621 7.042C25.2045 6.82199 25.8057 6.65204 26.418 6.534C26.5121 6.52479 26.6025 6.4925 26.6812 6.44C26.7599 6.38749 26.8244 6.31639 26.869 6.233C26.8793 6.20511 26.8835 6.17536 26.8815 6.14571C26.8794 6.11606 26.8721 6.08719 26.858 6.061ZM23.134 6.049L22.939 6.15C22.9224 6.15859 22.9093 6.17275 22.902 6.19L22.757 6.549L22.677 6.252C22.6727 6.23317 22.6614 6.21665 22.6455 6.20572C22.6298 6.19502 22.6108 6.19148 22.592 6.194L22.241 6.243L22.526 5.914C22.5334 5.90525 22.5389 5.895 22.542 5.88396C22.5451 5.87292 22.5458 5.86133 22.544 5.85L22.481 5.417L22.765 5.564C22.7779 5.57037 22.7923 5.57299 22.8066 5.57158C22.821 5.57016 22.8346 5.56477 22.846 5.556L23.126 5.346L23.036 5.609C23.0314 5.62389 23.031 5.63979 23.0351 5.65485C23.0392 5.6699 23.0475 5.68249 23.059 5.693L23.19 5.813C23.1519 5.8854 23.1327 5.96721 23.134 6.049ZM22.946 7.649C23.1778 7.32729 23.3309 6.95566 23.393 6.564C23.3945 6.55135 23.3924 6.53853 23.387 6.527C23.333 6.387 23.209 5.965 23.36 5.851C23.4382 5.77582 23.5428 5.73433 23.6512 5.73545C23.7597 5.73657 23.8634 5.78022 23.94 5.857C23.9783 5.94479 23.9973 6.03981 23.9956 6.13559C23.9939 6.23137 23.9715 6.32565 23.93 6.412C23.8516 6.38101 23.7663 6.37168 23.683 6.385C23.41 6.431 23.369 7.211 23.372 7.672C23.3518 7.91587 23.2669 8.14994 23.126 8.35C23.1215 8.33606 23.1154 8.32265 23.108 8.31C23.028 8.16782 22.9011 8.05788 22.749 7.999C22.822 7.871 22.889 7.753 22.946 7.649ZM22.373 8.704C22.485 8.485 22.584 8.302 22.673 8.14C22.7578 8.1682 22.8342 8.21679 22.8949 8.28235C22.9556 8.3481 22.9986 8.42813 23.02 8.515C22.976 8.584 22.929 8.65 22.885 8.718C22.746 8.90697 22.6232 9.10735 22.518 9.317C22.4644 9.43322 22.426 9.55591 22.404 9.682C22.3393 9.65676 22.2698 9.64635 22.2006 9.65154C22.1314 9.65673 22.0642 9.67739 22.004 9.712C22.0788 9.36027 22.203 9.0209 22.373 8.704ZM21.975 9.899C22 9.88884 22.0244 9.87715 22.048 9.864C22.0968 9.83188 22.1531 9.81281 22.2114 9.80861C22.2695 9.80441 22.3272 9.81539 22.38 9.84C22.3511 10.1498 22.3679 10.4621 22.43 10.767C22.2917 10.7234 22.145 10.7141 22.002 10.738L22 10.736C21.9391 10.4614 21.9307 10.1768 21.975 9.899ZM21.637 10.929L21.687 10.93C21.6596 10.9647 21.6362 11.0022 21.617 11.042C21.573 11.1411 21.5641 11.2522 21.592 11.357C21.5139 11.3441 21.4355 11.3328 21.357 11.323C20.9465 11.2786 20.5396 11.2061 20.139 11.106C19.5836 10.9396 19.0609 10.6788 18.594 10.335C18.8505 10.1164 19.0874 9.87585 19.302 9.616C19.672 9.813 21.318 10.69 21.592 10.912C21.6052 10.9216 21.6207 10.9275 21.637 10.929ZM18.089 12.027L17.917 12.128C17.7128 11.6495 17.6168 11.1319 17.636 10.612C17.637 10.5969 17.6333 10.5819 17.6255 10.569C17.6176 10.5559 17.6061 10.545 17.592 10.539L16.303 9.966L16.311 9.831C16.8116 9.90795 17.3016 10.0429 17.771 10.233C17.7838 10.2409 17.7987 10.2444 17.8137 10.2432C17.8286 10.2419 17.8427 10.2359 17.854 10.226L18.924 9.319L19.154 9.529C18.8045 9.90104 18.4171 10.2355 17.998 10.527C17.9843 10.5336 17.973 10.5442 17.9657 10.5575C17.9583 10.5707 17.9553 10.5859 17.957 10.601L18.089 12.027ZM17.479 5.747C17.485 5.764 17.492 5.779 17.497 5.796C17.5823 6.08814 17.7074 6.36711 17.869 6.625C18.335 7.41856 18.6605 8.28665 18.831 9.191L17.795 10.069C17.6759 10.0093 17.5548 9.95365 17.432 9.902C17.4547 9.27646 17.3681 8.65176 17.176 8.056C17.0287 7.65721 16.855 7.26868 16.656 6.893L16.517 6.61C16.554 6.55 16.589 6.49 16.621 6.433C16.709 6.283 16.789 6.14 16.889 6.099C17.1111 6.03088 17.3135 5.91012 17.479 5.747ZM17.216 5.143C17.2986 5.27767 17.3657 5.42125 17.416 5.571C17.337 5.69 17.266 5.772 16.829 5.952C16.676 6.04716 16.557 6.1882 16.489 6.355L16.437 6.439C16.3829 6.33803 16.3499 6.22712 16.34 6.113C16.3784 5.96515 16.4534 5.82933 16.558 5.718C16.6977 5.55735 16.7986 5.36679 16.853 5.161C16.8741 5.06972 16.8617 4.97387 16.818 4.891C16.9774 4.92265 17.1192 5.01248 17.216 5.143ZM15.621 5.097C15.715 4.971 15.779 4.89 15.891 4.859C16.0317 4.82972 16.1754 4.8173 16.319 4.822C16.3081 4.8299 16.299 4.83895 16.29 4.849C16.2252 4.96423 16.1901 5.09381 16.188 5.226C16.1727 5.45276 16.1093 5.67366 16.002 5.874C15.9717 5.93059 15.9274 5.97844 15.8733 6.01294C15.8192 6.04744 15.7571 6.06744 15.693 6.071C15.644 6.07767 15.596 6.09009 15.55 6.108C15.499 5.83104 15.4773 5.5495 15.485 5.268C15.535 5.208 15.583 5.148 15.622 5.098L15.621 5.097ZM14.947 5.515C15.0801 5.49521 15.2094 5.45472 15.33 5.395C15.3288 5.66637 15.3546 5.93714 15.409 6.203L15.406 6.208C15.2093 6.42598 14.9823 6.61457 14.732 6.768C14.733 6.751 14.731 6.735 14.733 6.715C14.7605 6.52667 14.7483 6.33465 14.6969 6.15137C14.6456 5.96809 14.5564 5.79762 14.435 5.651C14.6028 5.59555 14.7738 5.55014 14.947 5.515ZM12.165 6.805C12.8307 6.37535 13.5347 6.00813 14.268 5.708C14.3914 5.83847 14.4835 5.99534 14.5372 6.16671C14.5909 6.33808 14.6049 6.51943 14.578 6.697C14.575 6.755 14.57 6.806 14.572 6.853C14.4566 6.9075 14.3346 6.94651 14.209 6.969C13.9877 6.99554 13.7647 7.00424 13.542 6.995C13.1257 6.94481 12.7039 7.01819 12.329 7.206C11.756 7.608 11.363 7.751 11.311 7.693C11.237 7.617 11.101 7.385 11.387 6.886C11.5128 6.94027 11.6511 6.96147 11.7874 6.94711C11.9236 6.93275 12.0533 6.88431 12.165 6.805ZM9.604 6.369C9.40017 6.08678 9.28558 5.74997 9.275 5.402C9.2777 5.39296 9.28273 5.38479 9.28957 5.3783C9.29659 5.37199 9.30577 5.36798 9.315 5.366C9.38201 5.36576 9.44818 5.38098 9.50836 5.41046C9.56854 5.43994 9.62112 5.4829 9.662 5.536C9.676 5.55 9.695 5.566 9.716 5.588L9.604 6.369ZM9.896 6.673C9.84525 6.62172 9.79323 6.5717 9.74 6.523L9.854 5.718C9.90533 5.76867 9.96233 5.82233 10.025 5.879L9.896 6.673ZM10.031 6.816L10.164 6.006C10.23 6.064 10.298 6.126 10.365 6.186L10.202 7.02C10.1433 6.948 10.0863 6.88 10.031 6.816ZM10.41 7.299C10.3829 7.25993 10.3552 7.22126 10.327 7.183L10.501 6.305C10.615 6.405 10.729 6.499 10.829 6.578L10.41 7.299ZM10.5 7.455L10.958 6.672C11.0133 6.71366 11.0704 6.75142 11.131 6.785C11.167 6.803 11.202 6.817 11.24 6.833C11.222 6.863 11.205 6.897 11.191 6.925C11.1082 7.07828 11.0627 7.24987 11.058 7.424C10.8796 7.44785 10.715 7.53264 10.592 7.664C10.5689 7.59124 10.5381 7.52117 10.5 7.455ZM11.429 8.56C11.4451 8.56893 11.4639 8.57177 11.482 8.568L11.855 8.488L11.659 8.722C11.6469 8.73673 11.6404 8.7563 11.6408 8.77537C11.6412 8.79444 11.6483 8.81275 11.661 8.827L11.899 9.094L11.472 9.04C11.4607 9.03845 11.4491 9.04044 11.4382 9.0439C11.4273 9.04736 11.4174 9.0532 11.409 9.061L11.094 9.359L11.052 9.038C11.0503 9.02351 11.0447 9.00977 11.0357 8.9983C11.0267 8.98683 11.0147 8.97807 11.001 8.973L10.672 8.858L10.935 8.784C10.9497 8.77953 10.9628 8.77093 10.9727 8.75923C10.9826 8.74753 10.989 8.73321 10.991 8.718L11.014 8.54C11.0946 8.53087 11.1715 8.50088 11.237 8.453L11.429 8.56ZM13.085 7.197C13.0145 7.34568 12.9969 7.51394 13.035 7.674C12.89 7.686 12.757 7.696 12.64 7.707C12.2487 7.69393 11.86 7.77558 11.507 7.945C11.496 7.95098 11.487 7.96001 11.481 7.971C11.399 8.095 11.126 8.438 10.948 8.376C10.8416 8.3513 10.7488 8.28668 10.6887 8.19549C10.6286 8.1043 10.6058 7.99351 10.625 7.886C10.6739 7.80446 10.7402 7.73475 10.8193 7.68185C10.8983 7.62895 10.988 7.59417 11.082 7.58C11.1007 7.66283 11.1407 7.73935 11.198 7.802C11.39 8.006 12.047 7.6 12.419 7.336C12.6278 7.21514 12.8658 7.15392 13.107 7.159C13.0984 7.17089 13.091 7.18362 13.085 7.197ZM13.82 7.592C13.579 7.622 13.374 7.642 13.192 7.659C13.1668 7.57256 13.1636 7.48119 13.1826 7.39318C13.2016 7.30517 13.2423 7.2233 13.301 7.155C13.382 7.153 13.46 7.155 13.541 7.153C13.7724 7.163 14.0043 7.15296 14.234 7.123C14.3584 7.10254 14.4794 7.06555 14.594 7.013C14.6099 7.08106 14.6415 7.14481 14.6847 7.19975C14.7279 7.25469 14.7816 7.29949 14.844 7.331C14.5171 7.46716 14.1722 7.55508 13.82 7.592ZM15.676 6.756C15.4889 6.9619 15.2638 7.12965 15.013 7.25C14.9906 7.23457 14.9672 7.22054 14.943 7.208C14.8891 7.18461 14.842 7.1481 14.8058 7.10182C14.7697 7.05553 14.7457 7.00093 14.736 6.943C15.004 6.79162 15.2477 6.60082 15.459 6.377C15.5021 6.5175 15.5771 6.64617 15.678 6.753L15.676 6.756ZM15.802 6.657C15.6952 6.54893 15.6207 6.41315 15.587 6.265C15.6275 6.24422 15.6717 6.23164 15.717 6.228C15.8019 6.22049 15.8836 6.19245 15.9552 6.14628C16.0268 6.10011 16.0861 6.03721 16.128 5.963C16.2515 5.74318 16.3242 5.49856 16.341 5.247C16.3449 5.14419 16.3673 5.04292 16.407 4.948C16.4366 4.92304 16.4727 4.9069 16.5111 4.90142C16.5494 4.89594 16.5886 4.90134 16.624 4.917C16.6591 4.93895 16.6858 4.97216 16.6996 5.01122C16.7134 5.05027 16.7135 5.09285 16.7 5.132C16.649 5.31345 16.5582 5.48121 16.434 5.623C16.3098 5.75763 16.2238 5.923 16.185 6.102C16.1979 6.27504 16.2499 6.44291 16.337 6.593C16.2868 6.67037 16.2087 6.7255 16.119 6.747C16.0628 6.75698 16.0051 6.75406 15.9501 6.73847C15.8952 6.72288 15.8446 6.69502 15.802 6.657ZM16.051 6.999C16.0516 6.98231 16.0478 6.96576 16.04 6.951L16.012 6.909C16.0554 6.91226 16.099 6.91059 16.142 6.904C16.2473 6.8847 16.3424 6.82915 16.411 6.747C16.443 6.817 16.478 6.887 16.517 6.964C16.713 7.33384 16.884 7.71636 17.029 8.109C17.2078 8.66844 17.2916 9.25387 17.277 9.841C16.976 9.775 16.67 9.706 16.295 9.653C16.245 9.232 16.026 7.355 16.051 6.999ZM13.856 12.844C14.0757 12.6346 14.2652 12.3957 14.419 12.134C14.9053 11.3588 15.5232 10.6755 16.245 10.113L17.48 10.663C17.48 10.739 17.484 10.888 17.496 11.068C16.9337 11.3275 16.4223 11.6855 15.986 12.125C15.7007 12.4383 15.4368 12.7704 15.196 13.119L15.01 13.373C14.941 13.366 14.873 13.36 14.808 13.357C14.6638 13.365 14.5203 13.3321 14.394 13.262C14.2364 13.0911 14.0398 12.9607 13.821 12.882L13.856 12.844ZM13.364 13.866C13.3208 13.7079 13.3364 13.5395 13.408 13.392C13.4888 13.2569 13.5847 13.1314 13.694 13.018C13.834 13.038 13.937 13.066 14.291 13.382C14.4416 13.4787 14.6194 13.5243 14.798 13.512L14.895 13.522C14.8309 13.6159 14.7482 13.6955 14.652 13.756C14.5042 13.7868 14.3509 13.7789 14.207 13.733C14.004 13.6778 13.7909 13.6713 13.585 13.714C13.4952 13.7359 13.4166 13.79 13.364 13.866ZM13.629 13.866C13.8116 13.8312 13.9998 13.8388 14.179 13.888C14.3518 13.941 14.5358 13.9455 14.711 13.901C14.8583 13.8113 14.9828 13.6887 15.075 13.543C15.1665 13.5548 15.2499 13.6013 15.308 13.673C15.3422 13.72 15.3655 13.7739 15.3764 13.8309C15.3873 13.888 15.3855 13.9468 15.371 14.003C15.3242 14.1472 15.2379 14.2753 15.122 14.373C15.0857 14.3451 15.0551 14.3105 15.032 14.271C14.9884 14.1977 14.9277 14.1362 14.8551 14.0916C14.7824 14.047 14.7 14.0207 14.615 14.015C14.3668 14.0011 14.1187 14.0445 13.89 14.142C13.7976 14.1839 13.6983 14.2083 13.597 14.214C13.5616 14.1978 13.5313 14.1721 13.5094 14.1398C13.4875 14.1076 13.4749 14.0699 13.473 14.031C13.47 13.933 13.557 13.889 13.629 13.866ZM14.291 14.911C14.2211 14.8933 14.1507 14.8783 14.08 14.864C13.9568 14.8582 13.8398 14.8085 13.75 14.724C13.6611 14.6088 13.586 14.4836 13.526 14.351C13.5377 14.3576 13.5501 14.363 13.563 14.367C13.6932 14.3741 13.823 14.3476 13.94 14.29C14.1463 14.2027 14.3692 14.1617 14.593 14.17C14.657 14.1728 14.7193 14.1921 14.7737 14.2259C14.8282 14.2597 14.873 14.3069 14.904 14.363C14.9319 14.4046 14.9644 14.4428 15.001 14.477C14.7806 14.6467 14.5425 14.7922 14.291 14.911ZM14.749 15.291C14.6724 15.179 14.579 15.0795 14.472 14.996C14.7116 14.8758 14.9379 14.7307 15.147 14.563H15.153C15.4335 14.6455 15.7006 14.7681 15.946 14.927C15.931 14.933 15.918 14.943 15.9 14.949C15.7207 15.0093 15.5564 15.1071 15.4179 15.2359C15.2794 15.3647 15.17 15.5216 15.097 15.696C14.9732 15.5679 14.857 15.4326 14.749 15.291ZM17.125 17.247C16.4483 16.8317 15.8113 16.355 15.222 15.823C15.2797 15.6541 15.3756 15.5009 15.5022 15.3751C15.6288 15.2494 15.7828 15.1546 15.952 15.098C15.9997 15.079 16.0464 15.0577 16.092 15.034C16.1921 15.1151 16.2811 15.2089 16.357 15.313C16.4791 15.5026 16.5861 15.7016 16.677 15.908C16.8178 16.3072 17.0705 16.6575 17.405 16.917C18.015 17.258 18.317 17.554 18.289 17.627C18.255 17.727 18.112 17.957 17.545 17.918C17.5369 17.7799 17.4941 17.6461 17.4207 17.5288C17.3473 17.4116 17.2456 17.3147 17.125 17.247ZM17.184 20.504C17.1747 20.5056 17.1652 20.5046 17.1564 20.5013C17.1476 20.4979 17.1399 20.4923 17.134 20.485C17.1038 20.4243 17.0875 20.3575 17.0865 20.2897C17.0855 20.2218 17.0996 20.1546 17.128 20.093L17.15 20.02L17.888 19.773C17.733 20.0825 17.4874 20.3374 17.184 20.504ZM17.962 19.58L17.203 19.836C17.225 19.7667 17.2467 19.6907 17.268 19.608L18.024 19.37C18.0017 19.4392 17.981 19.5098 17.962 19.58ZM18.09 19.185L17.318 19.425C17.34 19.34 17.365 19.251 17.386 19.162L18.192 18.937C18.1547 19.023 18.1207 19.1063 18.09 19.185ZM18.28 18.751L17.43 18.985C17.468 18.835 17.498 18.69 17.523 18.564L18.345 18.624L18.279 18.75L18.28 18.751ZM18.441 18.472L17.548 18.406C17.56 18.3372 17.5674 18.2668 17.57 18.197C17.57 18.155 17.567 18.116 17.564 18.076C17.598 18.079 17.635 18.079 17.667 18.079C17.8384 18.086 18.0089 18.0514 18.164 17.978C18.2634 18.1288 18.4117 18.2407 18.584 18.295C18.5301 18.3487 18.4822 18.408 18.441 18.472ZM18.744 16.777L19.038 16.85C19.0564 16.8546 19.0759 16.8523 19.0927 16.8434C19.1095 16.8346 19.1224 16.8198 19.129 16.802L19.257 16.466L19.401 16.879C19.4047 16.8899 19.4107 16.8998 19.4186 16.9081C19.4266 16.9164 19.4363 16.9229 19.447 16.927L19.85 17.081L19.587 17.262C19.5751 17.2704 19.5647 17.282 19.5589 17.2954C19.5531 17.3088 19.551 17.3235 19.553 17.338L19.598 17.688L19.415 17.482C19.4048 17.4706 19.3916 17.4625 19.3768 17.4586C19.362 17.4546 19.3465 17.4551 19.332 17.46L19.165 17.52C19.1218 17.4509 19.0615 17.394 18.99 17.355L18.998 17.132C18.9985 17.1132 18.9925 17.0948 18.981 17.08L18.744 16.777ZM17.707 16.411C17.869 16.7715 18.114 17.0884 18.422 17.336C18.4323 17.3433 18.4444 17.3475 18.457 17.348C18.603 17.368 19.026 17.462 19.051 17.652C19.078 17.7579 19.0634 17.8701 19.0102 17.9655C18.957 18.0609 18.8693 18.1323 18.765 18.165C18.6704 18.1564 18.5789 18.127 18.4971 18.0787C18.4153 18.0305 18.3452 17.9646 18.292 17.886C18.3568 17.8314 18.4061 17.7607 18.435 17.681C18.528 17.415 17.878 17.001 17.48 16.779C17.2787 16.6415 17.1184 16.4522 17.016 16.231C17.0305 16.2336 17.0453 16.2346 17.06 16.234C17.2225 16.2316 17.3789 16.1721 17.502 16.066C17.576 16.193 17.645 16.31 17.707 16.411ZM17.079 15.389C17.212 15.595 17.32 15.772 17.417 15.93C17.353 15.9913 17.2744 16.0352 17.1886 16.0574C17.1028 16.0797 17.0127 16.0795 16.927 16.057C16.89 15.984 16.855 15.91 16.817 15.838C16.7225 15.6233 16.6101 15.4169 16.481 15.221C16.4076 15.1174 16.3208 15.023 16.223 14.942C16.2761 14.8962 16.3187 14.8394 16.3477 14.7755C16.3767 14.7116 16.3915 14.6432 16.391 14.573C16.6581 14.8108 16.8898 15.0855 17.079 15.389ZM16.245 14.455C16.2413 14.4825 16.2393 14.5102 16.239 14.538C16.243 14.5968 16.2322 14.6556 16.2078 14.7092C16.1834 14.7628 16.146 14.8095 16.099 14.845C15.8471 14.6689 15.57 14.532 15.277 14.439C15.3822 14.3363 15.4623 14.2107 15.511 14.072H15.514C15.7798 14.1512 16.0278 14.2812 16.244 14.455H16.245ZM15.56 13.623C15.5451 13.6299 15.5324 13.6406 15.523 13.654L15.498 13.699C15.4817 13.6578 15.4609 13.6176 15.436 13.581C15.3728 13.4948 15.2816 13.4343 15.178 13.408C15.225 13.348 15.271 13.284 15.321 13.214C15.5581 12.8709 15.818 12.5442 16.099 12.236C16.5091 11.8244 16.9866 11.4862 17.511 11.236C17.5291 11.5782 17.6226 11.9122 17.785 12.214C17.436 12.448 15.884 13.486 15.56 13.623ZM21.848 12.125C21.7777 12.349 21.7609 12.5863 21.799 12.818L21.75 12.806C21.4646 12.7122 21.1673 12.6593 20.867 12.649C19.9611 12.5918 19.0727 12.3741 18.243 12.006L18.117 10.64C18.182 10.604 18.309 10.529 18.458 10.43C18.9507 10.8024 19.5062 11.0835 20.098 11.26C20.5051 11.3616 20.9188 11.4351 21.336 11.48L21.644 11.523C21.672 11.587 21.699 11.651 21.728 11.711C21.8052 11.8354 21.8467 11.9786 21.848 12.125ZM22.438 12.939C22.2824 12.9326 22.128 12.9081 21.978 12.866C21.926 12.732 21.901 12.626 22.001 12.158C22.0109 11.9765 21.9636 11.7964 21.866 11.643L21.827 11.553C21.9396 11.5643 22.0486 11.599 22.147 11.655C22.2458 11.772 22.3135 11.9119 22.344 12.062C22.3946 12.269 22.4921 12.4616 22.629 12.625C22.6906 12.6935 22.7754 12.737 22.867 12.747C22.753 12.8623 22.5999 12.9307 22.438 12.939ZM22.955 12.571C22.9176 12.5878 22.8755 12.5912 22.8359 12.5804C22.7963 12.5696 22.7627 12.5455 22.739 12.512C22.6198 12.3659 22.5348 12.1951 22.49 12.012C22.452 11.8328 22.3667 11.6671 22.243 11.532C22.0955 11.445 21.9298 11.3937 21.759 11.382C21.7246 11.2954 21.7239 11.1991 21.757 11.112C21.7803 11.0593 21.8154 11.0126 21.8592 10.9752C21.903 10.9378 21.9543 10.9107 22.01 10.896C22.1573 10.8678 22.3097 10.8813 22.449 10.937C22.4431 10.9827 22.4285 11.0268 22.406 11.067C22.3639 11.1423 22.3403 11.2266 22.3371 11.3128C22.334 11.3991 22.3514 11.4848 22.388 11.563C22.4955 11.7894 22.6528 11.9887 22.848 12.146C22.9294 12.208 22.9988 12.2842 23.053 12.371C23.0565 12.4101 23.0492 12.4494 23.0319 12.4847C23.0146 12.5199 22.988 12.5498 22.955 12.571ZM23.417 11.988C23.3609 12.1225 23.2895 12.25 23.204 12.368C23.204 12.3546 23.2026 12.3412 23.2 12.328C23.1434 12.2093 23.0577 12.1068 22.951 12.03C22.7751 11.8878 22.6328 11.7095 22.532 11.507C22.5032 11.4491 22.4894 11.3849 22.4919 11.3202C22.4943 11.2556 22.5129 11.1926 22.546 11.137C22.5687 11.0918 22.5862 11.0442 22.598 10.995C22.851 11.109 23.0911 11.2498 23.314 11.415C23.334 11.491 23.357 11.565 23.376 11.627C23.4305 11.7388 23.4447 11.866 23.416 11.987L23.417 11.988ZM23.419 10.824C23.3597 10.9472 23.3196 11.0787 23.3 11.214C23.0811 11.0596 22.8465 10.9289 22.6 10.824L22.597 10.818C22.5318 10.5288 22.5076 10.2319 22.525 9.936C22.538 9.946 22.552 9.953 22.567 9.966C22.7034 10.0954 22.8661 10.1939 23.044 10.2546C23.222 10.3154 23.4109 10.337 23.598 10.318C23.5478 10.49 23.4877 10.6589 23.418 10.824H23.419ZM23.946 7.761C23.9177 8.56339 23.8173 9.36161 23.646 10.146C23.4711 10.1759 23.2916 10.1645 23.122 10.1125C22.9523 10.0606 22.7972 9.96967 22.669 9.847C22.6296 9.8136 22.5886 9.78223 22.546 9.753C22.567 9.62543 22.6044 9.50109 22.657 9.383C22.7605 9.18265 22.8795 8.99073 23.013 8.809C23.2897 8.48653 23.4684 8.09168 23.528 7.671C23.525 6.963 23.632 6.551 23.708 6.541C23.812 6.523 24.077 6.539 24.319 7.061C24.2032 7.13714 24.1084 7.24113 24.0432 7.36343C23.9781 7.48573 23.9446 7.62243 23.946 7.761ZM24.546 6.904C24.511 6.924 24.48 6.945 24.446 6.968C24.4317 6.93633 24.416 6.9053 24.399 6.875C24.3225 6.71946 24.2101 6.58439 24.071 6.481C24.1521 6.31793 24.1761 6.13332 24.139 5.955C24.211 5.97636 24.2851 5.98978 24.36 5.995L24.736 6.822C24.6708 6.84482 24.6083 6.87222 24.547 6.904L24.546 6.904ZM24.885 6.767L24.538 6.007C24.584 6.007 24.63 6.007 24.678 6.004L25.292 6.646C25.146 6.685 25.006 6.728 24.885 6.767ZM25.465 6.599L24.881 5.991C24.9723 5.983 25.0597 5.97333 25.143 5.962L25.724 6.533C25.64 6.554 25.552 6.575 25.465 6.599ZM25.906 6.487L25.336 5.93C25.412 5.915 25.487 5.898 25.544 5.884L26.134 6.435C26.0633 6.44967 25.9873 6.467 25.906 6.487ZM26.39 6.377L26.317 6.393L25.747 5.857C26.0904 5.84519 26.4291 5.93947 26.717 6.127C26.7227 6.13466 26.7263 6.14364 26.7275 6.15309C26.7287 6.16254 26.7275 6.17215 26.724 6.181C26.687 6.23703 26.6377 6.28384 26.5798 6.31782C26.5219 6.3518 26.457 6.37204 26.39 6.377Z"
		fill="#464655"
	/>
</svg>
