<svg viewBox="0 0 36 24" fill="none" xmlns="http://www.w3.org/2000/svg">
	<path d="M36 24H0V0H36" fill="#41479B" />
	<path
		d="M18.795 8.171C18.436 8.102 18 7.638 18.155 7.381C18.31 7.124 18.019 6.553 17.67 6.751C17.3907 6.96177 17.0843 7.13399 16.759 7.263C16.429 7.343 16.157 7.599 16.409 7.836C16.661 8.073 17.049 8.546 16.681 9.04C16.313 9.534 16.429 9.197 15.983 9.415C15.537 9.633 15.226 10.065 15.362 10.322C15.498 10.579 15.614 10.678 15.226 10.855C14.838 11.032 14.664 10.915 14.353 10.994C13.8582 11.1493 13.4109 11.4277 13.053 11.803C12.821 12.138 12.317 11.823 12.103 11.783C11.9573 11.77 11.811 11.7983 11.6806 11.8646C11.5503 11.931 11.4413 12.0326 11.366 12.158C11.269 12.415 11.444 12.651 11.812 12.77C12.181 12.888 12.336 12.908 12.162 13.224C12.0803 13.4093 12.0588 13.6156 12.1004 13.8138C12.142 14.012 12.2447 14.1922 12.394 14.329C12.685 14.507 13.248 15.059 13.248 15.434C13.248 15.809 13.17 16.362 13.713 16.441C14.0322 16.4612 14.3442 16.5449 14.6306 16.6872C14.9171 16.8296 15.1722 17.0277 15.381 17.27C15.593 17.6147 15.7379 17.9964 15.808 18.395C15.857 18.7171 15.9551 19.0297 16.099 19.322C16.274 19.678 16.39 20.29 16.215 20.428C16.04 20.566 15.905 20.665 16.041 20.931C16.177 21.197 16.206 21.296 16.458 21.148C16.71 21 16.71 21.158 16.846 21.128C16.982 21.098 17.602 20.872 17.486 20.566C17.369 20.26 17.117 19.559 17.476 19.194C17.835 18.829 18.32 18.77 18.63 18.524C18.94 18.278 19.455 18.237 19.852 17.842C19.9053 17.766 19.9785 17.7061 20.0635 17.6688C20.1485 17.6315 20.2421 17.6183 20.3341 17.6306C20.4262 17.6428 20.5131 17.6801 20.5853 17.7384C20.6576 17.7967 20.7125 17.8737 20.744 17.961C20.812 18.237 20.919 18.77 21.229 18.76C21.539 18.75 21.608 18.75 21.666 18.365C21.724 17.98 22.209 17.122 22.403 17.23C22.597 17.338 22.771 17.25 22.781 17.082C22.8 17.0303 22.8327 16.9846 22.8754 16.9499C22.9182 16.9151 22.9696 16.8925 23.0241 16.8844C23.0786 16.8763 23.1343 16.8831 23.1853 16.904C23.2363 16.9248 23.2808 16.959 23.314 17.003C23.47 17.24 23.809 17.428 23.799 17.132C23.789 16.836 23.392 16.875 23.382 16.549C23.372 16.223 23.702 16.017 23.993 15.879C24.284 15.741 24.11 15.385 24.197 15.188C24.284 14.99 24.76 14.744 24.779 14.546C24.798 14.348 24.663 14.27 24.866 14.221C25.07 14.171 25.322 14.082 25.176 13.855C25.03 13.628 25.08 13.461 25.235 13.352C25.39 13.243 25.463 12.728 25.236 12.662C25.1023 12.6494 24.9675 12.6654 24.8404 12.7088C24.7134 12.7523 24.597 12.8222 24.499 12.914C24.397 13.04 23.981 12.498 23.783 12.364C23.586 12.23 22.316 12.312 22.345 12.089C22.374 11.866 22.907 11.053 22.675 10.925C22.3864 10.7618 22.0847 10.6229 21.773 10.51C21.472 10.411 21.54 10.747 21.375 10.48C21.21 10.213 21.152 9.267 20.968 9.267C20.784 9.267 20.648 9.661 20.57 9.513C20.492 9.365 20.6 8.339 20.172 8.319C19.744 8.299 19.736 8.556 19.494 8.369C19.251 8.181 19.286 8.265 18.795 8.171Z"
		fill="#FF9B55"
	/>
	<path
		d="M17.645 3.655L16.826 4.27L17.133 5.258C17.1371 5.26968 17.1374 5.28238 17.1337 5.29422C17.1301 5.30605 17.1228 5.31642 17.1128 5.3238C17.1029 5.33117 17.0908 5.33517 17.0784 5.33521C17.0661 5.33525 17.054 5.33132 17.044 5.324L16.215 4.722L15.387 5.324C15.377 5.33176 15.3648 5.33606 15.3522 5.33624C15.3396 5.33643 15.3272 5.33249 15.3171 5.32502C15.3069 5.31755 15.2994 5.30697 15.2958 5.29487C15.2922 5.28278 15.2926 5.26983 15.297 5.258L15.605 4.27L14.785 3.655C14.7754 3.64739 14.7683 3.63701 14.7648 3.62526C14.7613 3.61351 14.7614 3.60096 14.7652 3.5893C14.769 3.57764 14.7763 3.56743 14.7861 3.56005C14.7959 3.55266 14.8077 3.54846 14.82 3.548L15.838 3.54L16.16 2.557C16.1639 2.54547 16.1712 2.53544 16.1811 2.52834C16.191 2.52123 16.2028 2.51741 16.215 2.51741C16.2272 2.51741 16.239 2.52123 16.2489 2.52834C16.2588 2.53544 16.2661 2.54547 16.27 2.557L16.593 3.54L17.611 3.548C17.6232 3.54865 17.6349 3.55299 17.6445 3.56045C17.6542 3.56791 17.6613 3.57812 17.665 3.58975C17.6687 3.60137 17.6688 3.61383 17.6652 3.62549C17.6616 3.63715 17.6546 3.64744 17.645 3.655ZM21.2 3.548L20.18 3.54L19.858 2.557C19.8541 2.54547 19.8468 2.53544 19.8369 2.52834C19.827 2.52123 19.8152 2.51741 19.803 2.51741C19.7908 2.51741 19.779 2.52123 19.7691 2.52834C19.7592 2.53544 19.7519 2.54547 19.748 2.557L19.426 3.54L18.407 3.548C18.3948 3.54865 18.3831 3.55299 18.3735 3.56045C18.3638 3.56791 18.3567 3.57812 18.353 3.58975C18.3493 3.60137 18.3492 3.61383 18.3528 3.62549C18.3564 3.63715 18.3634 3.64744 18.373 3.655L19.193 4.27L18.885 5.258C18.8806 5.26983 18.8802 5.28278 18.8838 5.29487C18.8874 5.30697 18.8949 5.31755 18.9051 5.32502C18.9152 5.33249 18.9276 5.33643 18.9402 5.33624C18.9528 5.33606 18.965 5.33176 18.975 5.324L19.803 4.722L20.631 5.324C20.641 5.33176 20.6532 5.33606 20.6658 5.33624C20.6784 5.33643 20.6908 5.33249 20.7009 5.32502C20.7111 5.31755 20.7186 5.30697 20.7222 5.29487C20.7258 5.28278 20.7254 5.26983 20.721 5.258L20.414 4.27L21.233 3.655C21.2426 3.64744 21.2496 3.63715 21.2532 3.62549C21.2568 3.61383 21.2567 3.60137 21.253 3.58975C21.2493 3.57812 21.2422 3.56791 21.2325 3.56045C21.2229 3.55299 21.2112 3.54865 21.199 3.548H21.2ZM14.071 4.15L13.053 4.142L12.731 3.159C12.7271 3.14747 12.7198 3.13744 12.7099 3.13034C12.7 3.12323 12.6882 3.11941 12.676 3.11941C12.6638 3.11941 12.652 3.12323 12.6421 3.13034C12.6322 3.13744 12.6249 3.14747 12.621 3.159L12.298 4.142L11.28 4.15C11.2678 4.15065 11.2561 4.15499 11.2465 4.16245C11.2368 4.16991 11.2297 4.18012 11.226 4.19174C11.2223 4.20336 11.2222 4.21583 11.2258 4.22749C11.2294 4.23915 11.2364 4.24944 11.246 4.257L12.066 4.872L11.758 5.86C11.7536 5.87183 11.7532 5.88478 11.7568 5.89687C11.7604 5.90897 11.7679 5.91955 11.7781 5.92702C11.7882 5.93449 11.8006 5.93843 11.8132 5.93824C11.8258 5.93806 11.838 5.93376 11.848 5.926L12.676 5.324L13.504 5.926C13.514 5.93376 13.5262 5.93806 13.5388 5.93824C13.5514 5.93843 13.5638 5.93449 13.5739 5.92702C13.5841 5.91955 13.5916 5.90897 13.5952 5.89687C13.5988 5.88478 13.5984 5.87183 13.594 5.86L13.286 4.872L14.106 4.257C14.1156 4.24939 14.1227 4.23901 14.1262 4.22726C14.1297 4.21551 14.1296 4.20296 14.1258 4.1913C14.122 4.17965 14.1147 4.16943 14.1049 4.16205C14.0951 4.15466 14.0833 4.15046 14.071 4.15ZM10.722 5.389L9.704 5.38L9.382 4.397C9.37814 4.38547 9.37075 4.37544 9.36088 4.36834C9.35101 4.36123 9.33916 4.35741 9.327 4.35741C9.31484 4.35741 9.30299 4.36123 9.29312 4.36834C9.28325 4.37544 9.27586 4.38547 9.272 4.397L8.949 5.38L7.931 5.388C7.91906 5.38886 7.90766 5.39328 7.89825 5.40068C7.88884 5.40808 7.88186 5.41812 7.8782 5.42952C7.87455 5.44091 7.87438 5.45315 7.87773 5.46464C7.88108 5.47613 7.88779 5.48635 7.897 5.494L8.716 6.11L8.409 7.098C8.4049 7.10969 8.40464 7.12238 8.40828 7.13422C8.41191 7.14605 8.41923 7.15642 8.42918 7.1638C8.43913 7.17117 8.45117 7.17517 8.46356 7.17521C8.47594 7.17525 8.48801 7.17132 8.498 7.164L9.326 6.561L10.155 7.164C10.165 7.17176 10.1772 7.17606 10.1898 7.17624C10.2024 7.17643 10.2148 7.17249 10.2249 7.16502C10.2351 7.15755 10.2426 7.14697 10.2462 7.13487C10.2498 7.12278 10.2494 7.10983 10.245 7.098L9.937 6.11L10.757 5.494C10.7663 5.48629 10.773 5.47598 10.7763 5.4644C10.7796 5.45283 10.7793 5.44052 10.7756 5.42909C10.7718 5.41766 10.7647 5.40762 10.7551 5.4003C10.7456 5.39297 10.734 5.38968 10.722 5.389ZM24.73 4.15L23.711 4.142L23.389 3.159C23.3851 3.14747 23.3778 3.13744 23.3679 3.13034C23.358 3.12323 23.3462 3.11941 23.334 3.11941C23.3218 3.11941 23.31 3.12323 23.3001 3.13034C23.2902 3.13744 23.2829 3.14747 23.279 3.159L22.957 4.142L21.938 4.15C21.9258 4.15065 21.9141 4.15499 21.9045 4.16245C21.8948 4.16991 21.8877 4.18012 21.884 4.19174C21.8803 4.20336 21.8802 4.21583 21.8838 4.22749C21.8874 4.23915 21.8944 4.24944 21.904 4.257L22.724 4.872L22.416 5.86C22.4116 5.87183 22.4112 5.88478 22.4148 5.89687C22.4184 5.90897 22.4259 5.91955 22.4361 5.92702C22.4462 5.93449 22.4586 5.93843 22.4712 5.93824C22.4838 5.93806 22.496 5.93376 22.506 5.926L23.334 5.324L24.163 5.926C24.173 5.93332 24.1851 5.93725 24.1974 5.93721C24.2098 5.93717 24.2219 5.93317 24.2318 5.9258C24.2418 5.91842 24.2491 5.90805 24.2527 5.89621C24.2564 5.88438 24.2561 5.87168 24.252 5.86L23.945 4.872L24.764 4.257C24.7736 4.24944 24.7806 4.23915 24.7842 4.22749C24.7877 4.21583 24.7877 4.20336 24.784 4.19174C24.7803 4.18012 24.7732 4.16991 24.7635 4.16245C24.7539 4.15499 24.7422 4.15065 24.73 4.15ZM28.079 5.389L27.061 5.381L26.738 4.398C26.7341 4.38647 26.7268 4.37644 26.7169 4.36934C26.707 4.36223 26.6952 4.35841 26.683 4.35841C26.6708 4.35841 26.659 4.36223 26.6491 4.36934C26.6392 4.37644 26.6319 4.38647 26.628 4.398L26.306 5.381L25.287 5.389C25.2751 5.38986 25.2637 5.39428 25.2542 5.40168C25.2448 5.40908 25.2379 5.41912 25.2342 5.43052C25.2305 5.44191 25.2304 5.45414 25.2337 5.46564C25.2371 5.47713 25.2438 5.48735 25.253 5.495L26.073 6.111L25.765 7.099C25.7606 7.11083 25.7602 7.12378 25.7638 7.13587C25.7674 7.14797 25.7749 7.15855 25.785 7.16602C25.7952 7.17349 25.8076 7.17743 25.8202 7.17724C25.8328 7.17706 25.845 7.17276 25.855 7.165L26.683 6.562L27.512 7.165C27.522 7.17232 27.5341 7.17625 27.5464 7.17621C27.5588 7.17617 27.5709 7.17217 27.5808 7.1648C27.5908 7.15742 27.5981 7.14705 27.6017 7.13521C27.6054 7.12338 27.6051 7.11068 27.601 7.099L27.294 6.111L28.114 5.495C28.1232 5.48729 28.13 5.47698 28.1333 5.4654C28.1366 5.45383 28.1363 5.44152 28.1326 5.43009C28.1288 5.41866 28.1217 5.40862 28.1121 5.4013C28.1026 5.39397 28.091 5.38968 28.079 5.389Z"
		fill="#F5F5F5"
	/>
</svg>
