<svg viewBox="0 0 36 24" fill="none" xmlns="http://www.w3.org/2000/svg">
	<path d="M36 12H0V0H36V12Z" fill="#41479B" />
	<path d="M0 12H36V24H0V12Z" fill="#FF4B55" />
	<path
		d="M11.533 7.184C11.5291 7.17192 11.5225 7.16084 11.5139 7.15152C11.5053 7.1422 11.4947 7.13486 11.483 7.13C11.481 7.13 11.433 7.11 11.354 7.088C11.3894 7.04454 11.4099 6.99083 11.4124 6.93482C11.415 6.8788 11.3994 6.82347 11.368 6.777C11.4077 6.7554 11.4415 6.72452 11.4667 6.68701C11.4918 6.6495 11.5075 6.60646 11.5124 6.56156C11.5173 6.51667 11.5113 6.47126 11.4949 6.42919C11.4784 6.38713 11.4521 6.34967 11.418 6.32C11.4564 6.29301 11.4874 6.25669 11.5079 6.21446C11.5284 6.17223 11.5379 6.12547 11.5354 6.07858C11.5329 6.03168 11.5185 5.98619 11.4936 5.94638C11.4687 5.90657 11.4341 5.87375 11.393 5.851C11.4243 5.81643 11.4465 5.77457 11.4576 5.72924C11.4686 5.68391 11.4681 5.63654 11.4562 5.59143C11.4443 5.54632 11.4213 5.50491 11.3893 5.47095C11.3573 5.437 11.3173 5.41158 11.273 5.397C11.3 5.35527 11.3153 5.30706 11.3174 5.2574C11.3194 5.20773 11.3081 5.15843 11.2846 5.11462C11.2611 5.07082 11.2263 5.03411 11.1838 5.00832C11.1413 4.98253 11.0927 4.96861 11.043 4.968C11.0574 4.92646 11.0614 4.88205 11.0547 4.83861C11.048 4.79517 11.0308 4.75403 11.0045 4.71875C10.9783 4.68348 10.9439 4.65513 10.9042 4.63618C10.8646 4.61722 10.8209 4.60824 10.777 4.61C10.7517 4.61179 10.7268 4.61718 10.703 4.626C10.703 4.619 10.707 4.614 10.707 4.607C10.7075 4.53211 10.6784 4.46007 10.6259 4.40665C10.5734 4.35323 10.5019 4.32279 10.427 4.322C10.376 4.3232 10.3265 4.3388 10.284 4.367C10.2727 4.3191 10.2486 4.27514 10.2145 4.23973C10.1803 4.20433 10.1372 4.17878 10.0897 4.16579C10.0422 4.1528 9.99212 4.15283 9.94466 4.16589C9.89721 4.17895 9.85414 4.20455 9.82 4.24C9.79888 4.19649 9.76642 4.15949 9.72604 4.13287C9.68565 4.10626 9.63885 4.09103 9.59054 4.08878C9.54223 4.08652 9.4942 4.09734 9.45152 4.12008C9.40884 4.14282 9.37308 4.17665 9.348 4.218C9.31894 4.18495 9.28225 4.1595 9.24111 4.14387C9.19996 4.12824 9.15563 4.1229 9.11195 4.12833C9.06828 4.13375 9.02659 4.14976 8.99052 4.17498C8.95445 4.20019 8.92509 4.23384 8.905 4.273C8.87669 4.23933 8.84059 4.21308 8.79982 4.19655C8.75906 4.18001 8.71487 4.17368 8.6711 4.17812C8.62734 4.18256 8.58532 4.19762 8.5487 4.222C8.51208 4.24638 8.48198 4.27933 8.461 4.318C8.41334 4.27782 8.35333 4.25522 8.291 4.254C8.23457 4.25431 8.17955 4.27166 8.13316 4.30378C8.08676 4.3359 8.05115 4.38129 8.031 4.434C8.00046 4.40287 7.96287 4.37953 7.92142 4.36597C7.87996 4.35241 7.83586 4.34901 7.79282 4.35607C7.74977 4.36313 7.70906 4.38044 7.67411 4.40653C7.63916 4.43262 7.611 4.46674 7.592 4.506C7.57178 4.49313 7.54992 4.48304 7.527 4.476C7.57151 4.4092 7.60114 4.3336 7.61388 4.25434C7.62662 4.17508 7.62217 4.09401 7.60083 4.01662C7.57949 3.93923 7.54177 3.86734 7.49021 3.80581C7.43865 3.74428 7.37446 3.69455 7.302 3.66L7.381 3.5C7.38701 3.4877 7.39013 3.47419 7.39013 3.4605C7.39013 3.44681 7.38701 3.4333 7.381 3.421L7.286 3.229L7.306 3.209L7.496 3.305C7.5078 3.3109 7.52081 3.31397 7.534 3.31397C7.54719 3.31397 7.5602 3.3109 7.572 3.305L8.033 3.07C8.04751 3.06265 8.0597 3.05142 8.06821 3.03757C8.07672 3.02371 8.08123 3.00776 8.08123 2.9915C8.08123 2.97524 8.07672 2.95929 8.06821 2.94543C8.0597 2.93158 8.04751 2.92035 8.033 2.913L7.573 2.679C7.56094 2.67277 7.54757 2.66952 7.534 2.66952C7.52043 2.66952 7.50706 2.67277 7.495 2.679L7.306 2.775L7.286 2.755L7.381 2.562C7.38701 2.5497 7.39013 2.53619 7.39013 2.5225C7.39013 2.50881 7.38701 2.4953 7.381 2.483L7.151 2.014C7.14304 2.00052 7.13171 1.98936 7.11812 1.9816C7.10453 1.97384 7.08915 1.96976 7.0735 1.96976C7.05785 1.96976 7.04247 1.97384 7.02888 1.9816C7.01529 1.98936 7.00396 2.00052 6.996 2.014L6.766 2.484C6.76015 2.49617 6.75711 2.5095 6.75711 2.523C6.75711 2.5365 6.76015 2.54983 6.766 2.562L6.86 2.755L6.84 2.775L6.65 2.678C6.6382 2.6721 6.62519 2.66903 6.612 2.66903C6.59881 2.66903 6.5858 2.6721 6.574 2.678L6.113 2.913C6.09849 2.92035 6.08631 2.93158 6.07779 2.94543C6.06928 2.95929 6.06477 2.97524 6.06477 2.9915C6.06477 3.00776 6.06928 3.02371 6.07779 3.03757C6.08631 3.05142 6.09849 3.06265 6.113 3.07L6.573 3.305C6.58503 3.31131 6.59842 3.3146 6.612 3.3146C6.62559 3.3146 6.63897 3.31131 6.651 3.305L6.84 3.208L6.86 3.228L6.765 3.421C6.75899 3.4333 6.75587 3.44681 6.75587 3.4605C6.75587 3.47419 6.75899 3.4877 6.765 3.5L6.844 3.66C6.77205 3.69425 6.70825 3.74349 6.65689 3.80442C6.60553 3.86535 6.56778 3.93655 6.54619 4.01326C6.5246 4.08997 6.51966 4.17041 6.5317 4.24918C6.54374 4.32795 6.57248 4.40324 6.616 4.47C6.58267 4.47596 6.55078 4.48817 6.522 4.506C6.50295 4.46692 6.47482 4.43298 6.43996 4.40701C6.40509 4.38105 6.36451 4.36382 6.32161 4.35677C6.27872 4.34972 6.23476 4.35305 6.19341 4.36649C6.15207 4.37992 6.11455 4.40308 6.084 4.434C6.06385 4.38129 6.02824 4.3359 5.98184 4.30378C5.93545 4.27166 5.88043 4.25431 5.824 4.254C5.76155 4.2555 5.70152 4.27845 5.654 4.319C5.63316 4.28007 5.6031 4.24684 5.56644 4.22223C5.52977 4.19762 5.48764 4.18238 5.44371 4.17784C5.39979 4.1733 5.35543 4.1796 5.31451 4.19619C5.27359 4.21278 5.23736 4.23915 5.209 4.273C5.18886 4.23404 5.15953 4.20057 5.12355 4.17549C5.08757 4.1504 5.04602 4.13447 5.00249 4.12905C4.95897 4.12363 4.91478 4.1289 4.87374 4.1444C4.83271 4.1599 4.79608 4.18516 4.767 4.218C4.742 4.17639 4.7062 4.14233 4.66341 4.11942C4.62062 4.09651 4.57242 4.0856 4.52394 4.08785C4.47545 4.09011 4.42847 4.10544 4.38799 4.13223C4.34751 4.15901 4.31503 4.19625 4.294 4.24C4.25976 4.20481 4.21669 4.17948 4.1693 4.16663C4.12192 4.15379 4.07195 4.15392 4.02463 4.167C3.9773 4.18008 3.93437 4.20564 3.9003 4.241C3.86624 4.27636 3.84231 4.32022 3.831 4.368C3.78867 4.3394 3.73907 4.32344 3.688 4.322C3.65084 4.32239 3.61411 4.3301 3.57993 4.34469C3.54574 4.35927 3.51476 4.38045 3.48876 4.40701C3.46276 4.43356 3.44225 4.46498 3.42839 4.49947C3.41453 4.53396 3.4076 4.57084 3.408 4.608C3.408 4.614 3.411 4.619 3.411 4.626C3.38749 4.61761 3.36291 4.61256 3.338 4.611C3.29409 4.60924 3.2504 4.61823 3.21075 4.63718C3.1711 4.65613 3.13667 4.68448 3.11046 4.71975C3.08425 4.75503 3.06704 4.79617 3.06034 4.83961C3.05364 4.88305 3.05764 4.92746 3.072 4.969C3.02245 4.96972 2.974 4.98367 2.93166 5.00941C2.88931 5.03514 2.85462 5.07173 2.83116 5.11538C2.8077 5.15902 2.79634 5.20815 2.79825 5.25766C2.80015 5.30718 2.81526 5.35528 2.842 5.397C2.7976 5.41146 2.75752 5.4368 2.72541 5.4707C2.6933 5.50461 2.67018 5.54601 2.65816 5.59113C2.64613 5.63625 2.64558 5.68366 2.65656 5.72905C2.66753 5.77444 2.68969 5.81636 2.721 5.851C2.67992 5.87375 2.6453 5.90657 2.62039 5.94638C2.59547 5.98619 2.58109 6.03168 2.57859 6.07858C2.57609 6.12547 2.58556 6.17223 2.6061 6.21446C2.62663 6.25669 2.65757 6.29301 2.696 6.32C2.66195 6.34967 2.63558 6.38713 2.61914 6.42919C2.6027 6.47126 2.59668 6.51667 2.6016 6.56156C2.60651 6.60646 2.62221 6.6495 2.64735 6.68701C2.6725 6.72452 2.70634 6.7554 2.746 6.777C2.71376 6.82514 2.69824 6.88255 2.70186 6.94038C2.70547 6.99821 2.72801 7.05325 2.766 7.097C2.703 7.115 2.665 7.13 2.663 7.131C2.65136 7.13575 2.64088 7.14294 2.63226 7.15208C2.62363 7.16122 2.61707 7.17211 2.613 7.184C2.60898 7.19619 2.60761 7.2091 2.60899 7.22187C2.61037 7.23463 2.61447 7.24695 2.621 7.258C3.03412 7.98223 3.34061 8.76226 3.531 9.574C3.53406 9.58697 3.54021 9.59902 3.54891 9.60911C3.55761 9.61921 3.56862 9.62706 3.581 9.632C3.754 9.87 5.251 10.055 7.073 10.055C8.895 10.055 10.392 9.87 10.565 9.632C10.5774 9.62706 10.5884 9.61921 10.5971 9.60911C10.6058 9.59902 10.6119 9.58697 10.615 9.574C10.8054 8.76228 11.1119 7.98225 11.525 7.258C11.5315 7.24695 11.5356 7.23463 11.537 7.22187C11.5384 7.2091 11.537 7.19619 11.533 7.184Z"
		fill="#FFE15A"
	/>
	<path
		d="M11.533 7.184C11.5291 7.17192 11.5225 7.16084 11.5139 7.15152C11.5053 7.1422 11.4947 7.13486 11.483 7.13C11.481 7.13 11.433 7.11 11.354 7.088C11.3894 7.04454 11.4099 6.99083 11.4124 6.93482C11.415 6.8788 11.3994 6.82347 11.368 6.777C11.4077 6.7554 11.4415 6.72452 11.4667 6.68701C11.4918 6.6495 11.5075 6.60646 11.5124 6.56156C11.5173 6.51667 11.5113 6.47126 11.4949 6.42919C11.4784 6.38713 11.4521 6.34967 11.418 6.32C11.4564 6.29301 11.4874 6.25669 11.5079 6.21446C11.5284 6.17223 11.5379 6.12547 11.5354 6.07858C11.5329 6.03168 11.5185 5.98619 11.4936 5.94638C11.4687 5.90657 11.4341 5.87375 11.393 5.851C11.4243 5.81643 11.4465 5.77457 11.4576 5.72924C11.4686 5.68391 11.4681 5.63654 11.4562 5.59143C11.4443 5.54632 11.4213 5.50491 11.3893 5.47095C11.3573 5.437 11.3173 5.41158 11.273 5.397C11.3 5.35527 11.3153 5.30706 11.3174 5.2574C11.3194 5.20773 11.3081 5.15843 11.2846 5.11462C11.2611 5.07082 11.2263 5.03411 11.1838 5.00832C11.1413 4.98253 11.0927 4.96861 11.043 4.968C11.0574 4.92646 11.0614 4.88205 11.0547 4.83861C11.048 4.79517 11.0308 4.75403 11.0045 4.71875C10.9783 4.68348 10.9439 4.65513 10.9042 4.63618C10.8646 4.61722 10.8209 4.60824 10.777 4.61C10.7517 4.61179 10.7268 4.61718 10.703 4.626C10.703 4.619 10.707 4.614 10.707 4.607C10.7075 4.53211 10.6784 4.46007 10.6259 4.40665C10.5734 4.35323 10.5019 4.32279 10.427 4.322C10.376 4.3232 10.3265 4.3388 10.284 4.367C10.2727 4.3191 10.2486 4.27514 10.2145 4.23973C10.1803 4.20433 10.1372 4.17878 10.0897 4.16579C10.0422 4.1528 9.99212 4.15283 9.94466 4.16589C9.89721 4.17895 9.85414 4.20455 9.82 4.24C9.79888 4.19649 9.76642 4.15949 9.72604 4.13287C9.68565 4.10626 9.63885 4.09103 9.59054 4.08878C9.54223 4.08652 9.4942 4.09734 9.45152 4.12008C9.40884 4.14282 9.37308 4.17665 9.348 4.218C9.31894 4.18495 9.28225 4.1595 9.24111 4.14387C9.19996 4.12824 9.15563 4.1229 9.11195 4.12833C9.06828 4.13375 9.02659 4.14976 8.99052 4.17498C8.95445 4.20019 8.92509 4.23384 8.905 4.273C8.87669 4.23933 8.84059 4.21308 8.79982 4.19655C8.75906 4.18001 8.71487 4.17368 8.6711 4.17812C8.62734 4.18256 8.58532 4.19762 8.5487 4.222C8.51208 4.24638 8.48198 4.27933 8.461 4.318C8.41334 4.27782 8.35333 4.25522 8.291 4.254C8.23457 4.25431 8.17955 4.27166 8.13316 4.30378C8.08676 4.3359 8.05115 4.38129 8.031 4.434C8.00046 4.40287 7.96287 4.37953 7.92142 4.36597C7.87996 4.35241 7.83586 4.34901 7.79282 4.35607C7.74977 4.36313 7.70906 4.38044 7.67411 4.40653C7.63916 4.43262 7.611 4.46674 7.592 4.506C7.57178 4.49313 7.54992 4.48304 7.527 4.476C7.57151 4.4092 7.60114 4.3336 7.61388 4.25434C7.62662 4.17508 7.62217 4.09401 7.60083 4.01662C7.57949 3.93923 7.54177 3.86734 7.49021 3.80581C7.43865 3.74428 7.37446 3.69455 7.302 3.66L7.381 3.5C7.38701 3.4877 7.39013 3.47419 7.39013 3.4605C7.39013 3.44681 7.38701 3.4333 7.381 3.421L7.286 3.229L7.306 3.209L7.496 3.305C7.5078 3.3109 7.52081 3.31397 7.534 3.31397C7.54719 3.31397 7.5602 3.3109 7.572 3.305L8.033 3.07C8.04751 3.06265 8.0597 3.05142 8.06821 3.03757C8.07672 3.02371 8.08123 3.00776 8.08123 2.9915C8.08123 2.97524 8.07672 2.95929 8.06821 2.94543C8.0597 2.93158 8.04751 2.92035 8.033 2.913L7.573 2.679C7.56094 2.67277 7.54757 2.66952 7.534 2.66952C7.52043 2.66952 7.50706 2.67277 7.495 2.679L7.306 2.775L7.286 2.755L7.381 2.562C7.38701 2.5497 7.39013 2.53619 7.39013 2.5225C7.39013 2.50881 7.38701 2.4953 7.381 2.483L7.151 2.014C7.14304 2.00052 7.13171 1.98936 7.11812 1.9816C7.10453 1.97384 7.08915 1.96976 7.0735 1.96976C7.05785 1.96976 7.04247 1.97384 7.02888 1.9816C7.01529 1.98936 7.00396 2.00052 6.996 2.014L6.766 2.484C6.76015 2.49617 6.75711 2.5095 6.75711 2.523C6.75711 2.5365 6.76015 2.54983 6.766 2.562L6.86 2.755L6.84 2.775L6.65 2.678C6.6382 2.6721 6.62519 2.66903 6.612 2.66903C6.59881 2.66903 6.5858 2.6721 6.574 2.678L6.113 2.913C6.09849 2.92035 6.08631 2.93158 6.07779 2.94543C6.06928 2.95929 6.06477 2.97524 6.06477 2.9915C6.06477 3.00776 6.06928 3.02371 6.07779 3.03757C6.08631 3.05142 6.09849 3.06265 6.113 3.07L6.573 3.305C6.58503 3.31131 6.59842 3.3146 6.612 3.3146C6.62559 3.3146 6.63897 3.31131 6.651 3.305L6.84 3.208L6.86 3.228L6.765 3.421C6.75899 3.4333 6.75587 3.44681 6.75587 3.4605C6.75587 3.47419 6.75899 3.4877 6.765 3.5L6.844 3.66C6.77205 3.69425 6.70825 3.74349 6.65689 3.80442C6.60553 3.86535 6.56778 3.93655 6.54619 4.01326C6.5246 4.08997 6.51966 4.17041 6.5317 4.24918C6.54374 4.32795 6.57248 4.40324 6.616 4.47C6.58267 4.47596 6.55078 4.48817 6.522 4.506C6.50295 4.46692 6.47482 4.43298 6.43996 4.40701C6.40509 4.38105 6.36451 4.36382 6.32161 4.35677C6.27872 4.34972 6.23476 4.35305 6.19341 4.36649C6.15207 4.37992 6.11455 4.40308 6.084 4.434C6.06385 4.38129 6.02824 4.3359 5.98184 4.30378C5.93545 4.27166 5.88043 4.25431 5.824 4.254C5.76155 4.2555 5.70152 4.27845 5.654 4.319C5.63316 4.28007 5.6031 4.24684 5.56644 4.22223C5.52977 4.19762 5.48764 4.18238 5.44371 4.17784C5.39979 4.1733 5.35543 4.1796 5.31451 4.19619C5.27359 4.21278 5.23736 4.23915 5.209 4.273C5.18886 4.23404 5.15953 4.20057 5.12355 4.17549C5.08757 4.1504 5.04602 4.13447 5.00249 4.12905C4.95897 4.12363 4.91478 4.1289 4.87374 4.1444C4.83271 4.1599 4.79608 4.18516 4.767 4.218C4.742 4.17639 4.7062 4.14233 4.66341 4.11942C4.62062 4.09651 4.57242 4.0856 4.52394 4.08785C4.47545 4.09011 4.42847 4.10544 4.38799 4.13223C4.34751 4.15901 4.31503 4.19625 4.294 4.24C4.25976 4.20481 4.21669 4.17948 4.1693 4.16663C4.12192 4.15379 4.07195 4.15392 4.02463 4.167C3.9773 4.18008 3.93437 4.20564 3.9003 4.241C3.86624 4.27636 3.84231 4.32022 3.831 4.368C3.78867 4.3394 3.73907 4.32344 3.688 4.322C3.65084 4.32239 3.61411 4.3301 3.57993 4.34469C3.54574 4.35927 3.51476 4.38045 3.48876 4.40701C3.46276 4.43356 3.44225 4.46498 3.42839 4.49947C3.41453 4.53396 3.4076 4.57084 3.408 4.608C3.408 4.614 3.411 4.619 3.411 4.626C3.38749 4.61761 3.36291 4.61256 3.338 4.611C3.29409 4.60924 3.2504 4.61823 3.21075 4.63718C3.1711 4.65613 3.13667 4.68448 3.11046 4.71975C3.08425 4.75503 3.06704 4.79617 3.06034 4.83961C3.05364 4.88305 3.05764 4.92746 3.072 4.969C3.02245 4.96972 2.974 4.98367 2.93166 5.00941C2.88931 5.03514 2.85462 5.07173 2.83116 5.11538C2.8077 5.15902 2.79634 5.20815 2.79825 5.25766C2.80015 5.30718 2.81526 5.35528 2.842 5.397C2.7976 5.41146 2.75752 5.4368 2.72541 5.4707C2.6933 5.50461 2.67018 5.54601 2.65816 5.59113C2.64613 5.63625 2.64558 5.68366 2.65656 5.72905C2.66753 5.77444 2.68969 5.81636 2.721 5.851C2.67992 5.87375 2.6453 5.90657 2.62039 5.94638C2.59547 5.98619 2.58109 6.03168 2.57859 6.07858C2.57609 6.12547 2.58556 6.17223 2.6061 6.21446C2.62663 6.25669 2.65757 6.29301 2.696 6.32C2.66195 6.34967 2.63558 6.38713 2.61914 6.42919C2.6027 6.47126 2.59668 6.51667 2.6016 6.56156C2.60651 6.60646 2.62221 6.6495 2.64735 6.68701C2.6725 6.72452 2.70634 6.7554 2.746 6.777C2.71376 6.82514 2.69824 6.88255 2.70186 6.94038C2.70547 6.99821 2.72801 7.05325 2.766 7.097C2.703 7.115 2.665 7.13 2.663 7.131C2.65136 7.13575 2.64088 7.14294 2.63226 7.15208C2.62363 7.16122 2.61707 7.17211 2.613 7.184C2.60898 7.19619 2.60761 7.2091 2.60899 7.22187C2.61037 7.23463 2.61447 7.24695 2.621 7.258C3.03412 7.98223 3.34061 8.76226 3.531 9.574C3.53406 9.58697 3.54021 9.59902 3.54891 9.60911C3.55761 9.61921 3.56862 9.62706 3.581 9.632C3.754 9.87 5.251 10.055 7.073 10.055C8.895 10.055 10.392 9.87 10.565 9.632C10.5774 9.62706 10.5884 9.61921 10.5971 9.60911C10.6058 9.59902 10.6119 9.58697 10.615 9.574C10.8054 8.76228 11.1119 7.98225 11.525 7.258C11.5315 7.24695 11.5356 7.23463 11.537 7.22187C11.5384 7.2091 11.537 7.19619 11.533 7.184ZM7.383 2.932L7.533 2.855L7.802 2.992L7.534 3.128L7.384 3.052C7.39197 3.0124 7.39097 2.9716 7.383 2.932ZM6.763 3.052L6.613 3.128L6.344 2.992L6.612 2.855L6.762 2.932C6.75403 2.9716 6.75503 3.0124 6.763 3.052ZM11.363 6.094C11.3626 6.11527 11.3559 6.13595 11.3438 6.15345C11.3317 6.17094 11.3147 6.18447 11.295 6.19234C11.2752 6.20021 11.2535 6.20207 11.2327 6.19768C11.2119 6.19328 11.1929 6.18284 11.178 6.16766C11.163 6.15248 11.153 6.13324 11.149 6.11235C11.1449 6.09145 11.1472 6.06984 11.1554 6.05022C11.1637 6.0306 11.1775 6.01385 11.1952 6.00207C11.2129 5.99029 11.2337 5.984 11.255 5.984C11.2694 5.984 11.2836 5.98686 11.2968 5.99241C11.31 5.99796 11.322 6.00609 11.3321 6.01634C11.3421 6.02658 11.3501 6.03872 11.3554 6.05206C11.3607 6.06539 11.3633 6.07965 11.363 6.094ZM11.293 5.664C11.2926 5.68531 11.2859 5.70603 11.2738 5.72355C11.2616 5.74106 11.2446 5.75459 11.2247 5.76243C11.2049 5.77027 11.1832 5.77206 11.1624 5.76759C11.1415 5.76312 11.1225 5.75258 11.1076 5.7373C11.0927 5.72202 11.0827 5.70268 11.0788 5.68172C11.0749 5.66077 11.0773 5.63912 11.0857 5.61953C11.0941 5.59993 11.1081 5.58325 11.1259 5.57159C11.1438 5.55992 11.1647 5.55381 11.186 5.554C11.2147 5.55453 11.2421 5.56638 11.2621 5.58698C11.2822 5.60758 11.2933 5.63526 11.293 5.664ZM11.133 6.813C11.1549 6.8126 11.1764 6.81874 11.1948 6.83063C11.2131 6.84252 11.2275 6.85961 11.2361 6.87973C11.2447 6.89985 11.2471 6.92208 11.243 6.94358C11.239 6.96507 11.2285 6.98486 11.2131 7.0004C11.1977 7.01595 11.178 7.02655 11.1566 7.03084C11.1351 7.03514 11.1129 7.03294 11.0927 7.02452C11.0725 7.0161 11.0553 7.00185 11.0432 6.98359C11.0311 6.96532 11.0248 6.94388 11.025 6.922C11.0247 6.89326 11.0358 6.86558 11.0559 6.84498C11.0759 6.82438 11.1033 6.81253 11.132 6.812L11.133 6.813ZM11.036 5.143C11.0578 5.1426 11.0793 5.14872 11.0976 5.16056C11.116 5.1724 11.1304 5.18944 11.139 5.2095C11.1477 5.22956 11.1501 5.25174 11.1461 5.27321C11.1421 5.29468 11.1318 5.31446 11.1165 5.33005C11.1012 5.34563 11.0816 5.35631 11.0602 5.36072C11.0388 5.36513 11.0166 5.36307 10.9964 5.3548C10.9762 5.34654 10.9589 5.33245 10.9467 5.31432C10.9345 5.29619 10.928 5.27484 10.928 5.253C10.9279 5.23869 10.9306 5.22449 10.9359 5.21121C10.9413 5.19794 10.9492 5.18585 10.9592 5.17563C10.9692 5.16542 10.9812 5.15728 10.9944 5.15168C11.0075 5.14608 11.0217 5.14313 11.036 5.143ZM10.776 4.786C10.7979 4.7854 10.8194 4.79134 10.8379 4.80306C10.8564 4.81478 10.871 4.83174 10.8797 4.85178C10.8885 4.87182 10.8911 4.89403 10.8872 4.91556C10.8833 4.93709 10.8731 4.95697 10.8578 4.97266C10.8426 4.98834 10.823 4.99912 10.8016 5.00361C10.7802 5.00811 10.7579 5.00611 10.7376 4.99788C10.7174 4.98965 10.7 4.97556 10.6878 4.95741C10.6755 4.93926 10.669 4.91788 10.669 4.896C10.6689 4.88169 10.6716 4.86749 10.6769 4.85421C10.6823 4.84094 10.6902 4.82885 10.7002 4.81863C10.7102 4.80842 10.7222 4.80028 10.7354 4.79468C10.7485 4.78908 10.7627 4.78613 10.777 4.786H10.776ZM10.426 4.498C10.4479 4.4974 10.4694 4.50334 10.4879 4.51506C10.5064 4.52678 10.521 4.54374 10.5297 4.56378C10.5385 4.58382 10.5411 4.60603 10.5372 4.62756C10.5333 4.64909 10.5231 4.66897 10.5078 4.68466C10.4926 4.70034 10.473 4.71112 10.4516 4.71562C10.4302 4.72011 10.4079 4.71811 10.3876 4.70988C10.3674 4.70165 10.35 4.68756 10.3378 4.66941C10.3255 4.65126 10.319 4.62988 10.319 4.608C10.3187 4.57926 10.3298 4.55158 10.3499 4.53098C10.3699 4.51038 10.3973 4.49853 10.426 4.498ZM10.018 4.332C10.0399 4.3314 10.0614 4.33734 10.0799 4.34906C10.0984 4.36078 10.113 4.37774 10.1217 4.39778C10.1305 4.41782 10.1331 4.44003 10.1292 4.46156C10.1253 4.48309 10.1151 4.50297 10.0998 4.51866C10.0846 4.53434 10.065 4.54512 10.0436 4.54961C10.0222 4.55411 9.9999 4.55211 9.97963 4.54388C9.95935 4.53565 9.94199 4.52156 9.92977 4.50341C9.91754 4.48526 9.91101 4.46388 9.911 4.442C9.91073 4.41326 9.92182 4.38558 9.94186 4.36498C9.9619 4.34438 9.98927 4.33253 10.018 4.332ZM9.577 4.263C9.59884 4.2626 9.6203 4.26872 9.63865 4.28056C9.657 4.2924 9.67141 4.30944 9.68004 4.3295C9.68867 4.34956 9.69114 4.37174 9.68712 4.39321C9.68311 4.41468 9.67279 4.43446 9.65749 4.45005C9.64219 4.46563 9.6226 4.47631 9.60121 4.48072C9.57982 4.48513 9.5576 4.48307 9.53738 4.4748C9.51716 4.46654 9.49986 4.45245 9.48769 4.43432C9.47551 4.41619 9.469 4.39484 9.469 4.373C9.46887 4.35869 9.47156 4.34449 9.47691 4.33121C9.48227 4.31794 9.49019 4.30585 9.50022 4.29563C9.51025 4.28542 9.52219 4.27728 9.53536 4.27168C9.54854 4.26608 9.56269 4.26313 9.577 4.263ZM9.145 4.303C9.16688 4.3026 9.18838 4.30874 9.20675 4.32063C9.22512 4.33252 9.23953 4.34961 9.24814 4.36973C9.25674 4.38985 9.25915 4.41208 9.25505 4.43358C9.25095 4.45507 9.24054 4.47486 9.22513 4.4904C9.20973 4.50595 9.19004 4.51655 9.16859 4.52084C9.14713 4.52514 9.12488 4.52294 9.10468 4.51452C9.08448 4.5061 9.06725 4.49185 9.0552 4.47359C9.04314 4.45532 9.0368 4.43388 9.037 4.412C9.03687 4.39769 9.03956 4.38349 9.04491 4.37021C9.05027 4.35694 9.05819 4.34485 9.06822 4.33463C9.07825 4.32442 9.09019 4.31628 9.10336 4.31068C9.11654 4.30508 9.13069 4.30313 9.145 4.303ZM8.698 4.351C8.71987 4.3504 8.74143 4.35634 8.75991 4.36806C8.77839 4.37978 8.79295 4.39674 8.80174 4.41678C8.81053 4.43682 8.81314 4.45903 8.80924 4.48056C8.80534 4.50209 8.79511 4.52197 8.77985 4.53766C8.76459 4.55334 8.745 4.56412 8.72359 4.56861C8.70217 4.57311 8.6799 4.57111 8.65963 4.56288C8.63935 4.55465 8.62199 4.54056 8.60977 4.52241C8.59754 4.50426 8.59101 4.48288 8.591 4.461C8.59073 4.43226 8.60182 4.40458 8.62186 4.38398C8.6419 4.36338 8.66927 4.35153 8.698 4.351ZM8.29 4.43C8.31184 4.4296 8.3333 4.43572 8.35165 4.44756C8.37 4.4594 8.38441 4.47644 8.39304 4.4965C8.40167 4.51656 8.40414 4.53874 8.40012 4.56021C8.39611 4.58168 8.38579 4.60146 8.37049 4.61705C8.35519 4.63263 8.3356 4.64331 8.31421 4.64772C8.29282 4.65213 8.2706 4.65007 8.25038 4.6418C8.23016 4.63354 8.21286 4.61945 8.20069 4.60132C8.18851 4.58319 8.182 4.56184 8.182 4.54C8.18187 4.52569 8.18456 4.51149 8.18991 4.49821C8.19527 4.48494 8.20319 4.47285 8.21322 4.46263C8.22325 4.45242 8.23519 4.44428 8.24836 4.43868C8.26154 4.43308 8.27569 4.43013 8.29 4.43ZM8.096 4.743L8.104 4.749L8.093 4.752L8.096 4.743ZM7.836 4.529C7.85792 4.5284 7.87951 4.53437 7.89801 4.54613C7.91651 4.55789 7.93108 4.57492 7.93984 4.59502C7.9486 4.61512 7.95115 4.63737 7.94717 4.65893C7.94319 4.68049 7.93285 4.70037 7.91749 4.71602C7.90214 4.73166 7.88245 4.74236 7.86097 4.74674C7.83949 4.75112 7.81719 4.74898 7.79693 4.7406C7.77667 4.73221 7.75938 4.71797 7.74728 4.69969C7.73517 4.6814 7.72881 4.65992 7.729 4.638C7.72873 4.60926 7.73982 4.58158 7.75986 4.56098C7.7799 4.54038 7.80727 4.52953 7.836 4.529ZM9.608 4.721C9.83119 4.71262 10.0525 4.76493 10.2483 4.87235C10.4441 4.97977 10.6071 5.13827 10.72 5.331C10.8654 5.58508 10.9472 5.87059 10.9584 6.16314C10.9695 6.45569 10.9097 6.74659 10.784 7.011C10.6586 7.01269 10.5341 7.03187 10.414 7.068C10.546 6.685 10.779 5.732 10.067 5.235C9.455 4.808 8.029 5.26 7.627 5.401C7.61832 5.28319 7.61365 5.16512 7.613 5.047C8.26433 4.86685 8.93321 4.75755 9.608 4.721ZM10.194 7.161V7.164C10.1521 7.18875 10.112 7.21649 10.074 7.247V5.467C10.692 6.043 10.199 7.149 10.194 7.161ZM9.904 7.416L9.898 7.422C9.86228 7.18143 9.75172 6.95821 9.582 6.784V5.247C9.6931 5.26025 9.80104 5.29273 9.901 5.343V7.403L9.904 7.416ZM9.409 5.233V6.663C9.30972 6.61589 9.19844 6.60019 9.09 6.618V5.242C9.19636 5.23207 9.30323 5.22873 9.41 5.232L9.409 5.233ZM8.918 5.261V6.661C8.80358 6.70603 8.6959 6.7666 8.598 6.841V5.315C8.704 5.294 8.81 5.275 8.918 5.261ZM8.428 6.982C8.31048 7.09081 8.20335 7.21033 8.108 7.339V5.435C8.21337 5.40526 8.31939 5.37792 8.426 5.353V6.97L8.428 6.982ZM7.934 5.486V7.184C7.79571 6.65857 7.69775 6.12335 7.641 5.583C7.73798 5.54864 7.83567 5.5163 7.934 5.486ZM7.695 6.941C7.55717 6.78489 7.36676 6.68488 7.16 6.66V5.168C7.218 5.152 7.316 5.124 7.441 5.091C7.4599 5.71492 7.54505 6.33507 7.695 6.941ZM7.073 4.977C7.05116 4.9774 7.0297 4.97128 7.01135 4.95944C6.993 4.9476 6.97859 4.93056 6.96996 4.9105C6.96133 4.89044 6.95886 4.86826 6.96288 4.84679C6.96689 4.82532 6.97721 4.80554 6.99251 4.78995C7.00781 4.77437 7.0274 4.76369 7.04879 4.75928C7.07018 4.75487 7.0924 4.75693 7.11262 4.7652C7.13284 4.77346 7.15014 4.78755 7.16231 4.80568C7.17449 4.82381 7.181 4.84516 7.181 4.867C7.18113 4.88131 7.17844 4.89551 7.17309 4.90879C7.16773 4.92206 7.15981 4.93415 7.14978 4.94437C7.13975 4.95458 7.12781 4.96272 7.11464 4.96832C7.10146 4.97392 7.08731 4.97687 7.073 4.977ZM7.555 4.744C7.5546 4.76531 7.54791 4.78603 7.53576 4.80355C7.52361 4.82106 7.50655 4.83459 7.48673 4.84243C7.4669 4.85027 7.4452 4.85206 7.42436 4.84759C7.40352 4.84312 7.38447 4.83258 7.3696 4.8173C7.35474 4.80202 7.34473 4.78268 7.34084 4.76172C7.33694 4.74077 7.33934 4.71912 7.34772 4.69953C7.3561 4.67993 7.3701 4.66325 7.38794 4.65159C7.40579 4.63992 7.42668 4.63381 7.448 4.634C7.46227 4.63413 7.47637 4.63709 7.48949 4.6427C7.50261 4.64831 7.51449 4.65646 7.52444 4.66669C7.53438 4.67692 7.54221 4.68902 7.54745 4.70229C7.5527 4.71556 7.55527 4.72973 7.555 4.744ZM7.073 2.25L7.207 2.523L7.132 2.675C7.09309 2.66683 7.05291 2.66683 7.014 2.675L6.939 2.523L7.073 2.25ZM7.073 2.845C7.10219 2.8444 7.1309 2.85252 7.15547 2.8683C7.18004 2.88409 7.19934 2.90683 7.21093 2.93364C7.22252 2.96044 7.22586 2.99009 7.22053 3.0188C7.2152 3.04751 7.20144 3.07398 7.18101 3.09484C7.16058 3.1157 7.13439 3.13 7.1058 3.13592C7.07721 3.14184 7.0475 3.13911 7.02046 3.12807C6.99343 3.11704 6.97029 3.09821 6.954 3.07397C6.93771 3.04974 6.92901 3.0212 6.929 2.992C6.92874 2.97287 6.93226 2.95389 6.93936 2.93613C6.94647 2.91837 6.95702 2.90219 6.9704 2.88853C6.98379 2.87486 6.99975 2.86398 7.01735 2.85651C7.03496 2.84904 7.05387 2.84513 7.073 2.845ZM7.207 3.461L7.132 3.613C7.11246 3.6099 7.09276 3.6079 7.073 3.607C7.05323 3.60786 7.03353 3.60986 7.014 3.613L6.939 3.461L7.014 3.308C7.05291 3.31617 7.09309 3.31617 7.132 3.308L7.207 3.461ZM7.073 3.783C7.14864 3.78161 7.22298 3.80277 7.28655 3.84378C7.35011 3.88479 7.40004 3.9438 7.42995 4.01328C7.45986 4.08277 7.46841 4.15958 7.45451 4.23395C7.44061 4.30831 7.40489 4.37685 7.35189 4.43083C7.2989 4.48482 7.23103 4.52181 7.15694 4.53709C7.08285 4.55236 7.00589 4.54524 6.93586 4.51662C6.86583 4.488 6.80591 4.43918 6.76373 4.37638C6.72155 4.31358 6.69901 4.23965 6.699 4.164C6.69847 4.06409 6.73751 3.96803 6.80759 3.89683C6.87767 3.82562 6.9731 3.78406 7.073 3.783ZM6.667 4.635C6.68884 4.6346 6.7103 4.64072 6.72865 4.65256C6.747 4.6644 6.76141 4.68144 6.77004 4.7015C6.77867 4.72156 6.78114 4.74374 6.77712 4.76521C6.77311 4.78668 6.76279 4.80646 6.74749 4.82205C6.73219 4.83763 6.7126 4.84831 6.69121 4.85272C6.66982 4.85713 6.6476 4.85507 6.62738 4.8468C6.60716 4.83854 6.58986 4.82445 6.57769 4.80632C6.56551 4.78819 6.559 4.76684 6.559 4.745C6.55887 4.73069 6.56156 4.71649 6.56691 4.70321C6.57227 4.68994 6.58019 4.67785 6.59022 4.66763C6.60025 4.65742 6.61219 4.64928 6.62536 4.64368C6.63854 4.63808 6.65269 4.63513 6.667 4.635ZM6.694 5.088L6.987 5.168V6.66C6.77311 6.68571 6.57674 6.79103 6.437 6.955C6.58898 6.34361 6.67514 5.71772 6.694 5.088ZM6.18 7.264V5.486C6.328 5.532 6.44 5.57 6.494 5.59C6.43327 6.15535 6.32828 6.71507 6.18 7.264ZM6.278 4.529C6.29992 4.5284 6.32151 4.53437 6.34001 4.54613C6.35851 4.55789 6.37308 4.57492 6.38184 4.59502C6.3906 4.61512 6.39315 4.63737 6.38917 4.65893C6.38519 4.68049 6.37485 4.70037 6.35949 4.71602C6.34414 4.73166 6.32445 4.74236 6.30297 4.74674C6.28149 4.75112 6.25919 4.74898 6.23893 4.7406C6.21867 4.73221 6.20138 4.71797 6.18928 4.69969C6.17717 4.6814 6.17081 4.65992 6.171 4.638C6.17073 4.60926 6.18182 4.58158 6.20186 4.56098C6.2219 4.54038 6.24927 4.52953 6.278 4.529ZM5.824 4.43C5.84587 4.4294 5.86743 4.43534 5.88591 4.44706C5.90439 4.45878 5.91895 4.47574 5.92774 4.49578C5.93653 4.51582 5.93914 4.53803 5.93524 4.55956C5.93134 4.58109 5.92111 4.60097 5.90585 4.61666C5.89059 4.63234 5.871 4.64312 5.84959 4.64761C5.82817 4.65211 5.8059 4.65011 5.78563 4.64188C5.76535 4.63365 5.74799 4.61956 5.73577 4.60141C5.72354 4.58326 5.71701 4.56188 5.717 4.54C5.71673 4.51126 5.72782 4.48358 5.74786 4.46298C5.7679 4.44238 5.79527 4.43053 5.824 4.43ZM5.416 4.351C5.43787 4.3504 5.45943 4.35634 5.47791 4.36806C5.49639 4.37978 5.51095 4.39674 5.51974 4.41678C5.52853 4.43682 5.53114 4.45903 5.52724 4.48056C5.52334 4.50209 5.51311 4.52197 5.49785 4.53766C5.48259 4.55334 5.463 4.56412 5.44159 4.56861C5.42017 4.57311 5.3979 4.57111 5.37763 4.56288C5.35735 4.55465 5.33999 4.54056 5.32777 4.52241C5.31554 4.50426 5.30901 4.48288 5.309 4.461C5.30873 4.43226 5.31982 4.40458 5.33986 4.38398C5.3599 4.36338 5.38727 4.35153 5.416 4.351ZM4.97 4.303C4.99188 4.3026 5.01338 4.30874 5.03175 4.32063C5.05012 4.33252 5.06453 4.34961 5.07314 4.36973C5.08174 4.38985 5.08415 4.41208 5.08005 4.43358C5.07595 4.45507 5.06554 4.47486 5.05014 4.4904C5.03473 4.50595 5.01504 4.51655 4.99359 4.52084C4.97213 4.52514 4.94988 4.52294 4.92968 4.51452C4.90948 4.5061 4.89225 4.49185 4.8802 4.47359C4.86814 4.45532 4.8618 4.43388 4.862 4.412C4.86187 4.39769 4.86456 4.38349 4.86991 4.37021C4.87527 4.35694 4.88319 4.34485 4.89322 4.33463C4.90325 4.32442 4.91519 4.31628 4.92836 4.31068C4.94154 4.30508 4.95569 4.30313 4.97 4.303ZM4.538 4.263C4.55984 4.2626 4.5813 4.26872 4.59965 4.28056C4.618 4.2924 4.63241 4.30944 4.64104 4.3295C4.64967 4.34956 4.65214 4.37174 4.64812 4.39321C4.64411 4.41468 4.63379 4.43446 4.61849 4.45005C4.60319 4.46563 4.5836 4.47631 4.56221 4.48072C4.54082 4.48513 4.5186 4.48307 4.49838 4.4748C4.47816 4.46654 4.46086 4.45245 4.44869 4.43432C4.43651 4.41619 4.43 4.39484 4.43 4.373C4.42987 4.35869 4.43256 4.34449 4.43791 4.33121C4.44327 4.31794 4.45119 4.30585 4.46122 4.29563C4.47125 4.28542 4.48319 4.27728 4.49636 4.27168C4.50954 4.26608 4.52369 4.26313 4.538 4.263ZM4.096 4.332C4.11787 4.3314 4.13943 4.33734 4.15791 4.34906C4.17639 4.36078 4.19095 4.37774 4.19974 4.39778C4.20853 4.41782 4.21114 4.44003 4.20724 4.46156C4.20334 4.48309 4.19311 4.50297 4.17785 4.51866C4.16259 4.53434 4.143 4.54512 4.12159 4.54961C4.10017 4.55411 4.0779 4.55211 4.05763 4.54388C4.03735 4.53565 4.01999 4.52156 4.00777 4.50341C3.99554 4.48526 3.98901 4.46388 3.989 4.442C3.98873 4.41326 3.99982 4.38558 4.01986 4.36498C4.0399 4.34438 4.06727 4.33253 4.096 4.332ZM3.688 4.498C3.70987 4.4974 3.73143 4.50334 3.74991 4.51506C3.76839 4.52678 3.78295 4.54374 3.79174 4.56378C3.80053 4.58382 3.80314 4.60603 3.79924 4.62756C3.79534 4.64909 3.78511 4.66897 3.76985 4.68466C3.75459 4.70034 3.735 4.71112 3.71359 4.71562C3.69217 4.72011 3.6699 4.71811 3.64963 4.70988C3.62935 4.70165 3.61199 4.68756 3.59977 4.66941C3.58754 4.65126 3.58101 4.62988 3.581 4.608C3.58073 4.57926 3.59182 4.55158 3.61186 4.53098C3.6319 4.51038 3.65927 4.49853 3.688 4.498ZM3.338 4.786C3.35984 4.7856 3.3813 4.79172 3.39965 4.80356C3.418 4.8154 3.43241 4.83244 3.44104 4.8525C3.44967 4.87256 3.45214 4.89474 3.44812 4.91621C3.44411 4.93768 3.43379 4.95746 3.41849 4.97305C3.40319 4.98863 3.3836 4.99931 3.36221 5.00372C3.34082 5.00813 3.3186 5.00607 3.29838 4.9978C3.27816 4.98954 3.26086 4.97545 3.24869 4.95732C3.23651 4.93919 3.23 4.91784 3.23 4.896C3.22987 4.88169 3.23256 4.86749 3.23791 4.85421C3.24327 4.84094 3.25119 4.82885 3.26122 4.81863C3.27125 4.80842 3.28319 4.80028 3.29636 4.79468C3.30954 4.78908 3.32369 4.78613 3.338 4.786ZM3.426 5.331C3.53887 5.13827 3.70189 4.97977 3.89771 4.87235C4.09353 4.76493 4.31481 4.71262 4.538 4.721C5.20901 4.75712 5.87418 4.86541 6.522 5.044C6.522 5.164 6.517 5.285 6.509 5.409C6.139 5.278 4.672 4.799 4.048 5.235C3.341 5.728 3.565 6.668 3.697 7.057C3.58771 7.02752 3.47518 7.01174 3.362 7.01C3.23648 6.74572 3.17674 6.455 3.18788 6.16264C3.19903 5.87028 3.28072 5.58496 3.426 5.331ZM6.007 5.435V7.296C5.91155 7.17324 5.80511 7.05944 5.689 6.956V5.353C5.802 5.379 5.909 5.407 6.007 5.435ZM5.516 5.315V6.82C5.41825 6.74953 5.3108 6.69362 5.197 6.654V5.26C5.304 5.275 5.411 5.294 5.516 5.315ZM5.024 5.241V6.616C5.005 6.614 4.986 6.609 4.967 6.609C4.88466 6.60845 4.80339 6.62765 4.73 6.665C4.721 6.669 4.714 6.675 4.705 6.68V5.232C4.81177 5.22873 4.91864 5.23207 5.025 5.242L5.024 5.241ZM4.533 5.247V6.812C4.38126 6.98366 4.2823 7.19547 4.248 7.422C4.238 7.408 4.225 7.396 4.214 7.383V5.343C4.31397 5.29277 4.42191 5.26029 4.533 5.247ZM4.041 5.467V7.221C4.00032 7.19187 3.95754 7.1658 3.913 7.143C3.852 6.999 3.463 6.005 4.041 5.467ZM3.079 5.143C3.10084 5.1426 3.1223 5.14872 3.14065 5.16056C3.159 5.1724 3.17341 5.18944 3.18204 5.2095C3.19067 5.22956 3.19314 5.25174 3.18912 5.27321C3.18511 5.29468 3.17479 5.31446 3.15949 5.33005C3.14419 5.34563 3.1246 5.35631 3.10321 5.36072C3.08182 5.36513 3.0596 5.36307 3.03938 5.3548C3.01916 5.34654 3.00186 5.33245 2.98969 5.31432C2.97751 5.29619 2.971 5.27484 2.971 5.253C2.97087 5.23869 2.97356 5.22449 2.97891 5.21121C2.98427 5.19794 2.99219 5.18585 3.00222 5.17563C3.01225 5.16542 3.02419 5.15728 3.03736 5.15168C3.05054 5.14608 3.06469 5.14313 3.079 5.143ZM3.089 6.923C3.0886 6.94431 3.08191 6.96503 3.06976 6.98255C3.05761 7.00006 3.04055 7.01359 3.02073 7.02143C3.0009 7.02927 2.9792 7.03106 2.95836 7.02659C2.93752 7.02212 2.91847 7.01158 2.9036 6.9963C2.88874 6.98102 2.87873 6.96168 2.87484 6.94072C2.87094 6.91977 2.87334 6.89812 2.88172 6.87853C2.8901 6.85893 2.9041 6.84225 2.92194 6.83059C2.93979 6.81893 2.96068 6.81281 2.982 6.813C3.01074 6.81326 3.0382 6.82486 3.05843 6.84528C3.07865 6.86569 3.09 6.89326 3.09 6.922L3.089 6.923ZM2.929 5.555C2.95088 5.5546 2.97238 5.56074 2.99075 5.57263C3.00912 5.58452 3.02353 5.60161 3.03214 5.62173C3.04074 5.64185 3.04315 5.66408 3.03905 5.68558C3.03495 5.70707 3.02454 5.72686 3.00914 5.7424C2.99373 5.75795 2.97404 5.76855 2.95259 5.77284C2.93113 5.77714 2.90888 5.77494 2.88868 5.76652C2.86848 5.7581 2.85125 5.74385 2.8392 5.72559C2.82714 5.70732 2.8208 5.68588 2.821 5.664C2.82087 5.64969 2.82356 5.63549 2.82891 5.62221C2.83427 5.60894 2.84219 5.59685 2.85222 5.58663C2.86225 5.57642 2.87419 5.56828 2.88736 5.56268C2.90054 5.55708 2.91469 5.55513 2.929 5.555ZM2.752 6.094C2.7524 6.07269 2.75909 6.05197 2.77124 6.03445C2.78339 6.01694 2.80045 6.00341 2.82027 5.99557C2.8401 5.98773 2.8618 5.98594 2.88264 5.99041C2.90348 5.99488 2.92253 6.00542 2.9374 6.0207C2.95226 6.03598 2.96227 6.05532 2.96616 6.07628C2.97006 6.09723 2.96766 6.11888 2.95928 6.13847C2.9509 6.15807 2.9369 6.17475 2.91906 6.18641C2.90121 6.19808 2.88032 6.20419 2.859 6.204C2.84473 6.20387 2.83063 6.20091 2.81751 6.1953C2.80439 6.18969 2.79251 6.18154 2.78257 6.17131C2.77262 6.16108 2.76479 6.14898 2.75955 6.13571C2.7543 6.12244 2.75174 6.10827 2.752 6.094ZM2.773 6.531C2.77339 6.50973 2.78006 6.48905 2.79217 6.47155C2.80427 6.45406 2.82127 6.44053 2.84104 6.43266C2.8608 6.42479 2.88245 6.42293 2.90327 6.42732C2.92409 6.43172 2.94314 6.44216 2.95805 6.45734C2.97295 6.47252 2.98304 6.49176 2.98705 6.51265C2.99106 6.53355 2.9888 6.55516 2.98057 6.57478C2.97234 6.5944 2.9585 6.61115 2.94079 6.62293C2.92307 6.63471 2.90227 6.641 2.881 6.641C2.86669 6.64087 2.85254 6.63792 2.83936 6.63232C2.82619 6.62672 2.81425 6.61858 2.80422 6.60837C2.79419 6.59815 2.78627 6.58606 2.78091 6.57279C2.77556 6.55951 2.77287 6.54531 2.773 6.531ZM10.461 9.466C9.35625 9.17657 8.21355 9.05886 7.073 9.117C5.93245 9.05887 4.78975 9.17658 3.685 9.466C3.49933 8.69505 3.20897 7.95316 2.822 7.261C3.07233 7.15104 3.3544 7.13717 3.61431 7.22202C3.87423 7.30688 4.09377 7.48452 4.231 7.721C4.23955 7.73853 4.25381 7.75264 4.27144 7.76099C4.28907 7.76935 4.30901 7.77147 4.328 7.767C4.34702 7.76209 4.36385 7.75095 4.37581 7.73537C4.38778 7.71978 4.39418 7.70065 4.394 7.681C4.394 7.675 4.399 7.03 4.808 6.821C5.212 6.617 5.866 7.297 6.074 7.721C6.08147 7.7347 6.09254 7.74611 6.106 7.754L6.114 7.759L6.124 7.765C6.13304 7.76793 6.14251 7.76928 6.152 7.769L6.156 7.768H6.161C6.16839 7.76602 6.17547 7.76299 6.182 7.759C6.18979 7.75677 6.1972 7.7534 6.204 7.749C6.21136 7.74212 6.21745 7.73399 6.222 7.725C6.226 7.719 6.232 7.715 6.234 7.708L6.264 7.613C6.339 7.391 6.578 6.831 7.074 6.831C7.494 6.831 7.73 7.234 7.838 7.492C7.873 7.616 7.898 7.695 7.902 7.708C7.90749 7.72552 7.91837 7.74085 7.9331 7.75181C7.94783 7.76277 7.96564 7.76878 7.984 7.769C7.99316 7.76917 8.00228 7.76781 8.011 7.765L8.015 7.762C8.02692 7.75975 8.0382 7.75491 8.04805 7.74782C8.0579 7.74074 8.06607 7.73158 8.072 7.721C8.281 7.297 8.935 6.619 9.339 6.821C9.36561 6.83488 9.39103 6.85094 9.415 6.869L9.481 6.926C9.65344 7.14016 9.74888 7.40607 9.752 7.681C9.75188 7.70078 9.75842 7.72002 9.77058 7.73562C9.78273 7.75123 9.79979 7.76228 9.819 7.767C9.83799 7.77147 9.85793 7.76935 9.87556 7.76099C9.89319 7.75264 9.90745 7.73853 9.916 7.721C10.0534 7.48492 10.2727 7.30759 10.5324 7.22277C10.792 7.13794 11.0738 7.15155 11.324 7.261C10.9368 7.95305 10.6464 8.69498 10.461 9.466ZM11.234 6.64C11.2121 6.6406 11.1905 6.63463 11.172 6.62287C11.1535 6.61111 11.1389 6.59408 11.1302 6.57398C11.1214 6.55388 11.1189 6.53163 11.1228 6.51007C11.1268 6.48851 11.1371 6.46863 11.1525 6.45298C11.1679 6.43734 11.1875 6.42664 11.209 6.42226C11.2305 6.41788 11.2528 6.42002 11.2731 6.4284C11.2933 6.43679 11.3106 6.45103 11.3227 6.46932C11.3348 6.4876 11.3412 6.50908 11.341 6.531C11.3413 6.55974 11.3302 6.58742 11.3101 6.60802C11.2901 6.62862 11.2627 6.63947 11.234 6.64ZM7.535 7.544C7.54974 7.562 7.55684 7.58507 7.55479 7.60824C7.55273 7.63142 7.54168 7.65287 7.524 7.668C7.3076 7.90292 7.1787 8.20521 7.159 8.524V8.619C7.159 8.64194 7.14989 8.66394 7.13367 8.68016C7.11744 8.69639 7.09544 8.7055 7.0725 8.7055C7.04956 8.7055 7.02756 8.69639 7.01134 8.68016C6.99511 8.66394 6.986 8.64194 6.986 8.619V8.524C6.96657 8.20533 6.83804 7.90306 6.622 7.668C6.60417 7.65301 6.59293 7.63163 6.59069 7.60845C6.58844 7.58527 6.59538 7.56213 6.61 7.544C6.61716 7.53508 6.62604 7.5277 6.63612 7.52229C6.6462 7.51689 6.65727 7.51357 6.66866 7.51254C6.68005 7.51152 6.69153 7.5128 6.70242 7.51631C6.7133 7.51983 6.72336 7.5255 6.732 7.533L6.765 7.563C6.78402 7.58075 6.80786 7.59248 6.83353 7.59672C6.85919 7.60096 6.88554 7.59752 6.90926 7.58684C6.93298 7.57615 6.95301 7.5587 6.96684 7.53666C6.98067 7.51463 6.98769 7.489 6.987 7.463V7.447C6.987 7.42419 6.99606 7.40232 7.01219 7.38619C7.02832 7.37006 7.05019 7.361 7.073 7.361C7.09581 7.361 7.11768 7.37006 7.13381 7.38619C7.14994 7.40232 7.159 7.42419 7.159 7.447V7.462C7.15831 7.488 7.16533 7.51363 7.17916 7.53567C7.19299 7.5577 7.21302 7.57515 7.23674 7.58584C7.26046 7.59652 7.28681 7.59996 7.31247 7.59572C7.33814 7.59148 7.36198 7.57975 7.381 7.562L7.414 7.532C7.42268 7.52472 7.43272 7.51924 7.44355 7.5159C7.45437 7.51256 7.46575 7.51141 7.47703 7.51253C7.4883 7.51365 7.49923 7.51701 7.50919 7.52241C7.51915 7.52782 7.52792 7.53516 7.535 7.544ZM9.456 7.973C9.47 8.007 9.456 8.03 9.421 8.03C9.208 8.013 8.948 8.332 8.886 8.476L8.856 8.546C8.84433 8.56581 8.82806 8.58252 8.80857 8.5947C8.78907 8.60689 8.76692 8.6142 8.744 8.616C8.698 8.62 8.675 8.588 8.693 8.547L8.727 8.467C8.81963 8.15692 8.84453 7.83055 8.8 7.51C8.79439 7.48417 8.79609 7.45729 8.80493 7.43238C8.81376 7.40747 8.82937 7.38552 8.85 7.369C8.886 7.353 8.919 7.393 8.928 7.452L8.935 7.506C8.954 7.645 9.071 7.673 9.112 7.578L9.118 7.565C9.136 7.524 9.173 7.522 9.202 7.559C9.21626 7.57709 9.22597 7.59834 9.23032 7.62096C9.23467 7.64358 9.23353 7.66691 9.227 7.689L9.222 7.7C9.21396 7.72111 9.2108 7.74377 9.21274 7.76627C9.21469 7.78878 9.22169 7.81055 9.23323 7.82997C9.24476 7.8494 9.26054 7.86596 9.27937 7.87843C9.29821 7.8909 9.31962 7.89896 9.342 7.902C9.35234 7.90178 9.36269 7.90211 9.373 7.903C9.3915 7.90701 9.40873 7.91549 9.4232 7.92769C9.43766 7.93989 9.44893 7.95545 9.456 7.973ZM10.719 8.238C10.729 8.27 10.714 8.293 10.686 8.296C10.509 8.296 10.27 8.624 10.208 8.767L10.178 8.837C10.1681 8.8563 10.1542 8.8732 10.1371 8.88651C10.12 8.89981 10.1001 8.9092 10.079 8.914C10.04 8.921 10.024 8.892 10.041 8.851L10.076 8.771C10.1747 8.47026 10.2187 8.15427 10.206 7.838C10.2035 7.81233 10.2067 7.78642 10.2156 7.76219C10.2244 7.73796 10.2385 7.71602 10.257 7.698C10.288 7.679 10.313 7.716 10.317 7.772L10.318 7.824C10.324 7.957 10.42 7.975 10.461 7.881L10.466 7.868C10.484 7.826 10.516 7.822 10.536 7.856C10.5469 7.87435 10.5537 7.89485 10.556 7.91608C10.5582 7.93731 10.5558 7.95877 10.549 7.979L10.544 7.991C10.504 8.081 10.562 8.189 10.63 8.177L10.655 8.176C10.683 8.176 10.71 8.206 10.719 8.238ZM5.452 8.548C5.47 8.588 5.447 8.62 5.401 8.617C5.37799 8.61509 5.35578 8.60763 5.33627 8.59527C5.31677 8.5829 5.30055 8.566 5.289 8.546L5.259 8.476C5.197 8.332 4.937 8.013 4.724 8.03C4.69 8.03 4.675 8.007 4.689 7.973C4.69607 7.95545 4.70734 7.93989 4.7218 7.92769C4.73627 7.91549 4.7535 7.90701 4.772 7.903C4.78198 7.90215 4.79199 7.90182 4.802 7.902C4.82438 7.89896 4.84579 7.8909 4.86463 7.87843C4.88346 7.86596 4.89924 7.8494 4.91077 7.82997C4.92231 7.81055 4.92931 7.78878 4.93126 7.76627C4.9332 7.74377 4.93004 7.72111 4.922 7.7L4.918 7.688C4.91147 7.66591 4.91033 7.64258 4.91468 7.61996C4.91903 7.59734 4.92874 7.57609 4.943 7.558C4.972 7.521 5.009 7.523 5.027 7.564L5.033 7.578C5.073 7.672 5.191 7.644 5.209 7.505L5.217 7.451C5.226 7.393 5.259 7.351 5.294 7.368C5.31463 7.38452 5.33024 7.40647 5.33907 7.43138C5.34791 7.45629 5.34961 7.48317 5.344 7.509C5.29962 7.82994 5.32486 8.15668 5.418 8.467L5.452 8.548ZM4.103 8.85C4.121 8.892 4.105 8.92 4.066 8.914C4.04487 8.9092 4.02505 8.89981 4.00794 8.88651C3.99083 8.8732 3.97686 8.8563 3.967 8.837L3.937 8.767C3.875 8.623 3.635 8.295 3.459 8.296C3.43 8.293 3.417 8.27 3.425 8.238C3.435 8.206 3.462 8.176 3.489 8.176L3.515 8.177C3.583 8.189 3.64 8.081 3.601 7.991L3.596 7.979C3.58887 7.9587 3.58624 7.93709 3.58832 7.91568C3.59039 7.89426 3.59711 7.87355 3.608 7.855C3.629 7.822 3.66 7.826 3.678 7.868L3.684 7.881C3.724 7.975 3.821 7.956 3.826 7.824L3.829 7.772C3.832 7.716 3.857 7.679 3.887 7.698C3.90557 7.71597 3.91989 7.73787 3.92889 7.7621C3.93788 7.78633 3.94134 7.81226 3.939 7.838C3.92631 8.15427 3.97034 8.47025 4.069 8.771L4.103 8.85Z"
		fill="#464655"
	/>
</svg>
