<svg viewBox="0 0 36 24" fill="none" xmlns="http://www.w3.org/2000/svg">
	<path d="M0 24H18V0H0V24Z" fill="#F5F5F5" />
	<path
		d="M36 0V24H18V0H36ZM7.448 3.368V5.474H5.743C5.70931 5.55654 5.6597 5.63163 5.597 5.695C5.5351 5.75908 5.46097 5.81008 5.379 5.845V7.579H3.31V5.844C3.22847 5.80926 3.1547 5.75861 3.093 5.695C3.02996 5.6317 2.98001 5.55661 2.946 5.474H1.241V3.368H2.946C2.98001 3.28539 3.02996 3.2103 3.093 3.147C3.15463 3.08305 3.2284 3.03205 3.31 2.997V1.264H5.38V2.998C5.46154 3.03271 5.53532 3.08337 5.597 3.147C5.66006 3.21028 5.71002 3.28538 5.744 3.368H7.448ZM7.241 3.579H5.581C5.57417 3.47183 5.52785 3.371 5.451 3.296C5.37812 3.21818 5.27838 3.17099 5.172 3.164V1.474H3.517V3.164C3.41097 3.17124 3.31163 3.21841 3.239 3.296C3.16223 3.37106 3.11592 3.47186 3.109 3.579H1.45V5.263H3.11C3.11692 5.37014 3.16323 5.47094 3.24 5.546C3.31263 5.62359 3.41197 5.67076 3.518 5.678V7.368H5.173V5.678C5.27938 5.67101 5.37912 5.62382 5.452 5.546C5.52877 5.47094 5.57508 5.37014 5.582 5.263H7.242L7.241 3.579Z"
		fill="#FF4B55"
	/>
	<path
		d="M7.241 3.579H5.172V1.474H3.517L3.517 3.579H1.448V5.263H3.517V7.368H5.173L5.172 5.263H7.242L7.241 3.579Z"
		fill="#CDCDCD"
	/>
	<path
		d="M5.172 4.421C5.16924 4.58418 5.11832 4.74291 5.02563 4.87724C4.93294 5.01157 4.80263 5.11551 4.65105 5.17601C4.49947 5.23651 4.3334 5.25086 4.17369 5.21727C4.01398 5.18368 3.86776 5.10363 3.7534 4.9872C3.63903 4.87076 3.56163 4.72313 3.53092 4.56284C3.5002 4.40255 3.51754 4.23676 3.58075 4.0863C3.64396 3.93583 3.75023 3.8074 3.8862 3.71714C4.02218 3.62689 4.1818 3.57883 4.345 3.579C4.56628 3.58111 4.77768 3.67098 4.93275 3.82886C5.08781 3.98674 5.17387 4.19971 5.172 4.421ZM5.452 5.546C5.308 5.692 5.109 5.727 5.009 5.626C4.98117 5.59342 4.96237 5.55412 4.95447 5.51201C4.94657 5.46989 4.94986 5.42645 4.964 5.386C4.78088 5.50917 4.56519 5.57496 4.3445 5.57496C4.12381 5.57496 3.90812 5.50917 3.725 5.386C3.73917 5.42638 3.74257 5.46975 3.73485 5.51184C3.72714 5.55393 3.70857 5.59328 3.681 5.626C3.581 5.728 3.383 5.693 3.239 5.546C3.17207 5.49434 3.12694 5.41947 3.1125 5.33617C3.09806 5.25286 3.11536 5.16717 3.161 5.096C3.19265 5.06796 3.23128 5.04898 3.27281 5.04106C3.31435 5.03314 3.35725 5.03658 3.397 5.051C3.27607 4.86313 3.21177 4.64442 3.21177 4.421C3.21177 4.19758 3.27607 3.97887 3.397 3.791C3.35725 3.80542 3.31435 3.80886 3.27281 3.80094C3.23128 3.79302 3.19265 3.77404 3.161 3.746C3.11536 3.67483 3.09806 3.58914 3.1125 3.50583C3.12694 3.42253 3.17207 3.34766 3.239 3.296C3.382 3.149 3.58 3.114 3.681 3.216C3.70875 3.24883 3.72741 3.28835 3.73513 3.33063C3.74285 3.37292 3.73936 3.41649 3.725 3.457C3.90802 3.33404 4.12351 3.26838 4.344 3.26838C4.56449 3.26838 4.77998 3.33404 4.963 3.457C4.94886 3.41655 4.94557 3.37311 4.95347 3.33099C4.96137 3.28888 4.98017 3.24958 5.008 3.217C5.108 3.114 5.306 3.15 5.45 3.296C5.51693 3.34766 5.56206 3.42253 5.5765 3.50583C5.59094 3.58914 5.57363 3.67483 5.528 3.746C5.49645 3.77386 5.45799 3.79273 5.41666 3.80065C5.37532 3.80856 5.33261 3.80523 5.293 3.791C5.41404 3.97883 5.47842 4.19755 5.47842 4.421C5.47842 4.64445 5.41404 4.86317 5.293 5.051C5.33275 5.03658 5.37565 5.03314 5.41719 5.04106C5.45872 5.04898 5.49735 5.06796 5.529 5.096C5.57463 5.16717 5.59194 5.25286 5.5775 5.33617C5.56306 5.41947 5.51893 5.49434 5.452 5.546ZM4.345 5.469C4.553 5.47257 4.75737 5.41416 4.93206 5.3012C5.10675 5.18823 5.24388 5.02584 5.32596 4.83468C5.40805 4.64353 5.43139 4.43227 5.39301 4.2278C5.35463 4.02334 5.25626 3.83492 5.11044 3.68655C4.96462 3.53818 4.77793 3.43657 4.57417 3.39465C4.3704 3.35273 4.15876 3.37241 3.96622 3.45117C3.77367 3.52994 3.60892 3.66422 3.49295 3.83694C3.37698 4.00965 3.31503 4.21297 3.315 4.421C3.31287 4.69648 3.42013 4.96156 3.61324 5.15804C3.80634 5.35452 4.06952 5.46636 4.345 5.469Z"
		fill="#B4A08C"
	/>
</svg>
