<svg viewBox="0 0 36 24" fill="none" xmlns="http://www.w3.org/2000/svg">
	<path d="M36 24H0V0H36" fill="#4173CD" />
	<path
		d="M15.636 10.98H15.079V10.13H15.636V10.98ZM15.079 13.81H15.636V12.96H15.079V13.81ZM15.358 16.641H15.914V15.791H15.358V16.641ZM20.086 16.641H20.643V15.791H20.086V16.641ZM20.365 10.98H20.921V10.13H20.365V10.98ZM18.278 10.13H17.722V10.98H18.278V10.13ZM20.365 13.81H20.921V12.96H20.365V13.81ZM17.722 18.056H18.278V17.207H17.722V18.056ZM19.112 12.793C19.113 13.0088 19.0523 13.2203 18.9372 13.4028C18.822 13.5852 18.6572 13.731 18.462 13.823L18.452 13.827C18.432 13.837 18.412 13.844 18.392 13.851L18.354 13.866C18.3202 13.8777 18.2858 13.8877 18.251 13.896L18.207 13.905C18.1851 13.909 18.1631 13.9123 18.141 13.915L18.105 13.92C18.071 13.923 18.035 13.925 18 13.925C17.7753 13.9288 17.5546 13.8656 17.366 13.7435C17.1774 13.6215 17.0293 13.446 16.9407 13.2395C16.8521 13.033 16.827 12.8049 16.8685 12.584C16.91 12.3632 17.0163 12.1597 17.1738 11.9995C17.3313 11.8393 17.533 11.7296 17.7531 11.6843C17.9732 11.6391 18.2017 11.6604 18.4097 11.7455C18.6176 11.8306 18.7956 11.9756 18.9208 12.1622C19.0461 12.3487 19.113 12.5683 19.113 12.793H19.112ZM18.974 12.793C18.9708 12.6011 18.9111 12.4144 18.8021 12.2563C18.6932 12.0982 18.54 11.9759 18.3618 11.9046C18.1836 11.8334 17.9882 11.8163 17.8004 11.8557C17.6125 11.8951 17.4404 11.9891 17.3058 12.1259C17.1712 12.2627 17.08 12.4363 17.0437 12.6248C17.0074 12.8133 17.0276 13.0083 17.1018 13.1853C17.1759 13.3624 17.3008 13.5136 17.4606 13.6199C17.6204 13.7262 17.808 13.783 18 13.783V13.076H18.933C18.9598 12.9841 18.9732 12.8888 18.973 12.793H18.974ZM19.113 15.358C19.1142 15.5877 19.0453 15.8123 18.9156 16.0018C18.7859 16.1914 18.6015 16.3369 18.387 16.419L18.3 16.448L18.257 16.459C18.2394 16.4634 18.2218 16.4674 18.204 16.471L18.15 16.479C18.135 16.481 18.119 16.484 18.103 16.485C18.078 16.488 18.053 16.489 18.027 16.489L18 16.491C17.7754 16.4948 17.5547 16.4316 17.3661 16.3096C17.1775 16.1876 17.0294 16.0122 16.9408 15.8058C16.8522 15.5993 16.827 15.3712 16.8684 15.1504C16.9098 14.9296 17.016 14.7261 17.1735 14.5659C17.3309 14.4056 17.5324 14.2958 17.7525 14.2505C17.9725 14.2051 18.201 14.2263 18.409 14.3112C18.617 14.3961 18.795 14.541 18.9203 14.7274C19.0457 14.9139 19.1128 15.1334 19.113 15.358ZM18.973 15.358C18.9698 15.166 18.91 14.9793 18.8011 14.8212C18.6921 14.6631 18.5388 14.5408 18.3605 14.4695C18.1823 14.3983 17.9869 14.3813 17.799 14.4208C17.6111 14.4602 17.4391 14.5543 17.3045 14.6913C17.1699 14.8282 17.0788 15.0019 17.0426 15.1904C17.0064 15.379 17.0267 15.574 17.1011 15.751C17.1754 15.9281 17.3004 16.0792 17.4603 16.1854C17.6202 16.2916 17.808 16.3482 18 16.348V15.641H18.933C18.9598 15.5491 18.9732 15.4538 18.973 15.358ZM22.613 6.976C22.3811 7.27089 22.2419 7.62796 22.213 8.002L21.385 8.822C21.457 8.87507 21.5155 8.94439 21.5556 9.02433C21.5957 9.10427 21.6164 9.19255 21.616 9.282C21.6171 9.43062 21.5591 9.57358 21.4549 9.67951C21.3506 9.78544 21.2086 9.84568 21.06 9.847H14.94C14.8663 9.84635 14.7935 9.83119 14.7257 9.80239C14.6579 9.77359 14.5964 9.73172 14.5448 9.67916C14.4931 9.6266 14.4524 9.56439 14.4248 9.49607C14.3972 9.42775 14.3833 9.35467 14.384 9.281C14.3837 9.19147 14.4045 9.10313 14.4448 9.02318C14.4852 8.94324 14.5438 8.87396 14.616 8.821L13.788 8.001C13.7589 7.62731 13.6197 7.27062 13.388 6.976C13.388 6.976 13.887 6.899 14.096 7.542L14.501 7.683L14.462 8.079C14.909 8.595 15.133 8.629 15.226 8.596C15.34 8.556 15.393 8.391 15.415 8.264L15.249 8.432C15.0096 8.14531 14.8506 7.80027 14.788 7.43206C14.7255 7.06385 14.7617 6.68565 14.893 6.336C14.9653 6.35299 15.0331 6.38549 15.0916 6.43124C15.1502 6.47699 15.1981 6.53492 15.232 6.601C15.3795 6.5908 15.5275 6.5908 15.675 6.601C15.679 6.75897 15.6615 6.91675 15.623 7.07C15.8821 7.111 16.1194 7.23903 16.296 7.433C16.2184 7.60297 16.1007 7.75156 15.953 7.866C15.9958 8.00514 15.9898 8.15473 15.936 8.29C15.832 8.28874 15.7296 8.26341 15.637 8.216C15.95 8.613 16.097 8.622 16.147 8.603C16.297 8.547 16.335 8.094 16.314 7.791C16.313 7.77617 16.3166 7.7614 16.3246 7.74881C16.3325 7.73622 16.3442 7.72648 16.358 7.721C16.3719 7.7155 16.3872 7.71466 16.4017 7.71863C16.4161 7.7226 16.4289 7.73115 16.438 7.743L16.678 8.053C17.678 6.697 16.888 5.884 16.888 5.884V5.318H17.166V5.601H17.404V5.318H17.642V5.601H17.881V5.318H18.119V5.601H18.358V5.318H18.596V5.601H18.835V5.318H19.113V5.884C19.113 5.884 18.321 6.697 19.323 8.054L19.563 7.743C19.5721 7.73132 19.5846 7.7228 19.5988 7.71867C19.613 7.71454 19.6281 7.715 19.642 7.72C19.6559 7.72567 19.6676 7.73559 19.6755 7.74834C19.6834 7.7611 19.6871 7.77603 19.686 7.791C19.666 8.094 19.703 8.547 19.854 8.604C19.904 8.623 20.05 8.614 20.362 8.218C20.2701 8.26421 20.1689 8.28883 20.066 8.29C20.0123 8.15471 20.0063 8.00515 20.049 7.866C19.9013 7.75159 19.7836 7.60299 19.706 7.433C19.8826 7.23903 20.1199 7.111 20.379 7.07C20.3405 6.91675 20.323 6.75897 20.327 6.601C20.4745 6.5908 20.6225 6.5908 20.77 6.601C20.8041 6.53481 20.8521 6.47682 20.9108 6.43105C20.9695 6.38529 21.0375 6.35286 21.11 6.336C21.2412 6.68573 21.2772 7.06399 21.2145 7.4322C21.1518 7.80041 20.9925 8.14541 20.753 8.432L20.585 8.262C20.607 8.389 20.659 8.555 20.774 8.596C20.867 8.628 21.091 8.595 21.539 8.076L21.5 7.683L21.906 7.542C22.115 6.899 22.612 6.975 22.613 6.976ZM20.034 8.716H20.699C20.6325 8.67302 20.5763 8.61585 20.5344 8.5486C20.4926 8.48135 20.4662 8.40567 20.457 8.327C20.3455 8.48524 20.2013 8.61858 20.034 8.716ZM19.391 8.194V8.715H19.764C19.582 8.601 19.544 8.243 19.542 7.999L19.391 8.194ZM17.722 8.715H18.279C18.279 8.64114 18.2497 8.5703 18.1974 8.51807C18.1452 8.46584 18.0744 8.4365 18.0005 8.4365C17.9266 8.4365 17.8558 8.46584 17.8036 8.51807C17.7513 8.5703 17.722 8.64114 17.722 8.715ZM16.237 8.715H16.61V8.195L16.459 7.999C16.456 8.243 16.419 8.601 16.237 8.715ZM15.302 8.715H15.966C15.7991 8.61752 15.6551 8.48518 15.544 8.327C15.5347 8.4055 15.5082 8.48098 15.4664 8.54805C15.4245 8.61512 15.3684 8.67212 15.302 8.715ZM14.94 8.715H15.01C14.8609 8.6502 14.7257 8.55715 14.612 8.441C14.6503 8.52854 14.6771 8.62063 14.692 8.715L14.668 8.788C14.7507 8.7403 14.8445 8.71513 14.94 8.715ZM21.31 8.715C21.3254 8.61986 21.3529 8.5271 21.392 8.439C21.2772 8.55626 21.1407 8.65001 20.99 8.715H21.06C21.1567 8.71521 21.2516 8.74109 21.335 8.79L21.31 8.715Z"
		fill="#FFE15A"
	/>
	<path
		d="M15.224 18.316C15.172 19.259 15.786 19.376 16.118 19.381C16.5586 19.4322 16.9947 19.5157 17.423 19.631C17.5448 19.6648 17.6747 19.6533 17.7887 19.5987C17.9026 19.5441 17.993 19.4501 18.043 19.334C18.32 19.704 18.59 19.591 18.59 19.591C18.8992 19.3793 19.2608 19.2568 19.635 19.237C19.867 19.222 19.811 18.899 19.811 18.899C20.0165 18.787 20.1955 18.6321 20.336 18.445L20.351 18.453C20.498 18.5019 20.6578 18.4948 20.7999 18.4332C20.9419 18.3716 21.0563 18.2597 21.121 18.119C21.1379 18.0852 21.1615 18.0552 21.1904 18.0307C21.2193 18.0063 21.2528 17.988 21.289 17.977L21.308 18.191C21.479 17.94 21.852 18.032 21.852 18.032C21.469 17.432 21.082 17.709 21.082 17.709L21.232 17.854C21.003 17.971 20.868 18.434 20.532 18.299C20.5046 18.2864 20.4781 18.2717 20.453 18.255C20.5632 18.0469 20.5998 17.8076 20.557 17.576C20.5313 17.5116 20.4883 17.4557 20.4326 17.4144C20.3769 17.3732 20.3109 17.3482 20.2418 17.3424C20.1728 17.3366 20.1035 17.3501 20.0417 17.3815C19.9799 17.4129 19.9281 17.4608 19.892 17.52C19.836 17.6372 19.8202 17.7697 19.8471 17.8968C19.8741 18.0239 19.9422 18.1386 20.041 18.223C19.9146 18.3112 19.7738 18.3769 19.625 18.417C19.081 18.571 18.265 17.843 17.7 17.812C17.4361 17.8382 17.1806 17.9192 16.9498 18.0499C16.719 18.1806 16.5181 18.3581 16.36 18.571C16.3154 18.6263 16.256 18.6676 16.1887 18.6902C16.1213 18.7127 16.049 18.7156 15.9801 18.6983C15.9112 18.6811 15.8487 18.6445 15.8 18.5929C15.7512 18.5412 15.7183 18.4767 15.705 18.407M20.165 17.627C20.27 17.581 20.315 17.663 20.33 17.797C20.3269 17.8874 20.2926 17.974 20.233 18.042C20.116 17.859 20.097 17.657 20.164 17.627H20.165ZM17.832 12.713C17.6308 12.6994 17.4319 12.763 17.276 12.891C17.32 12.668 17.412 12.431 17.606 12.431C17.6248 12.431 17.6429 12.4235 17.6562 12.4102C17.6695 12.3969 17.677 12.3788 17.677 12.36C17.677 12.3412 17.6695 12.3231 17.6562 12.3098C17.6429 12.2965 17.6248 12.289 17.606 12.289C17.5181 12.2943 17.4339 12.3265 17.3648 12.3813C17.2958 12.436 17.2452 12.5106 17.22 12.595C17.174 11.667 17.033 11.664 16.98 11.664C16.9614 11.662 16.9428 11.6675 16.9283 11.6792C16.9138 11.6909 16.9045 11.7079 16.9025 11.7265C16.9005 11.7451 16.906 11.7637 16.9177 11.7782C16.9294 11.7927 16.9464 11.802 16.965 11.804C17.0095 11.9047 17.0346 12.013 17.039 12.123C17.0114 12.0324 16.9575 11.9521 16.8841 11.8923C16.8108 11.8324 16.7213 11.7958 16.627 11.787C16.6082 11.787 16.5901 11.7945 16.5768 11.8078C16.5635 11.8211 16.556 11.8392 16.556 11.858C16.556 11.8768 16.5635 11.8949 16.5768 11.9082C16.5901 11.9215 16.6082 11.929 16.627 11.929C16.817 11.929 16.933 12.165 17.003 12.448C16.9352 12.3428 16.8417 12.2567 16.7312 12.1979C16.6208 12.139 16.4971 12.1095 16.372 12.112C16.3533 12.112 16.3354 12.1194 16.3221 12.1326C16.3089 12.1459 16.3015 12.1638 16.3015 12.1825C16.3015 12.2012 16.3089 12.2191 16.3221 12.2324C16.3354 12.2456 16.3533 12.253 16.372 12.253C16.4975 12.2518 16.6205 12.2883 16.725 12.3578C16.8295 12.4274 16.9107 12.5267 16.958 12.643C16.8079 12.5201 16.6177 12.4571 16.424 12.466C16.4053 12.466 16.3874 12.4734 16.3741 12.4866C16.3609 12.4999 16.3535 12.5178 16.3535 12.5365C16.3535 12.5552 16.3609 12.5731 16.3741 12.5864C16.3874 12.5996 16.4053 12.607 16.424 12.607C16.5122 12.6036 16.6001 12.6182 16.6824 12.65C16.7646 12.6818 16.8396 12.7301 16.9025 12.7919C16.9654 12.8537 17.0151 12.9278 17.0483 13.0095C17.0816 13.0912 17.0978 13.1788 17.096 13.267C17.096 13.278 17.103 13.285 17.106 13.294C17.11 13.302 17.11 13.312 17.116 13.318C17.1226 13.3245 17.1304 13.3296 17.139 13.3331C17.1476 13.3365 17.1568 13.3382 17.166 13.338C17.173 13.338 17.177 13.333 17.184 13.331C17.1942 13.328 17.2034 13.3224 17.2109 13.3149C17.2184 13.3074 17.224 13.2982 17.227 13.288C17.229 13.281 17.235 13.276 17.235 13.268C17.235 13.251 17.247 12.855 17.832 12.855C17.8508 12.855 17.8689 12.8475 17.8822 12.8342C17.8955 12.8209 17.903 12.8028 17.903 12.784C17.903 12.7652 17.8955 12.7471 17.8822 12.7338C17.8689 12.7205 17.8508 12.713 17.832 12.713ZM18.174 12.713C18.3752 12.6994 18.5741 12.763 18.73 12.891C18.686 12.668 18.593 12.431 18.4 12.431C18.3812 12.431 18.3631 12.4235 18.3498 12.4102C18.3365 12.3969 18.329 12.3788 18.329 12.36C18.329 12.3412 18.3365 12.3231 18.3498 12.3098C18.3631 12.2965 18.3812 12.289 18.4 12.289C18.4879 12.2943 18.5721 12.3265 18.6412 12.3813C18.7102 12.436 18.7608 12.5106 18.786 12.595C18.832 11.667 18.973 11.664 19.026 11.664C19.0446 11.662 19.0632 11.6675 19.0777 11.6792C19.0922 11.6909 19.1015 11.7079 19.1035 11.7265C19.1055 11.7451 19.1 11.7637 19.0883 11.7782C19.0766 11.7927 19.0596 11.802 19.041 11.804C18.9962 11.9047 18.9707 12.0129 18.966 12.123C18.9936 12.0323 19.0477 11.9519 19.1213 11.892C19.1948 11.8322 19.2846 11.7956 19.379 11.787C19.3978 11.787 19.4159 11.7945 19.4292 11.8078C19.4425 11.8211 19.45 11.8392 19.45 11.858C19.45 11.8768 19.4425 11.8949 19.4292 11.9082C19.4159 11.9215 19.3978 11.929 19.379 11.929C19.189 11.929 19.073 12.165 19.003 12.448C19.0708 12.3428 19.1643 12.2567 19.2748 12.1979C19.3852 12.139 19.5089 12.1095 19.634 12.112C19.6527 12.112 19.6706 12.1194 19.6839 12.1326C19.6971 12.1459 19.7045 12.1638 19.7045 12.1825C19.7045 12.2012 19.6971 12.2191 19.6839 12.2324C19.6706 12.2456 19.6527 12.253 19.634 12.253C19.5085 12.2518 19.3855 12.2883 19.281 12.3578C19.1765 12.4274 19.0953 12.5267 19.048 12.643C19.1981 12.5201 19.3883 12.4571 19.582 12.466C19.6007 12.466 19.6186 12.4734 19.6319 12.4866C19.6451 12.4999 19.6525 12.5178 19.6525 12.5365C19.6525 12.5552 19.6451 12.5731 19.6319 12.5864C19.6186 12.5996 19.6007 12.607 19.582 12.607C19.4938 12.6036 19.4059 12.6182 19.3236 12.65C19.2414 12.6818 19.1664 12.7301 19.1035 12.7919C19.0406 12.8537 18.9909 12.9278 18.9577 13.0095C18.9244 13.0912 18.9082 13.1788 18.91 13.267C18.91 13.278 18.903 13.285 18.9 13.294C18.896 13.302 18.895 13.312 18.89 13.318C18.8834 13.3245 18.8756 13.3296 18.867 13.3331C18.8584 13.3365 18.8492 13.3382 18.84 13.338C18.833 13.338 18.828 13.333 18.822 13.331C18.8118 13.328 18.8026 13.3224 18.7951 13.3149C18.7876 13.3074 18.782 13.2982 18.779 13.288C18.777 13.281 18.771 13.276 18.771 13.268C18.771 13.251 18.759 12.855 18.174 12.855C18.1552 12.855 18.1371 12.8475 18.1238 12.8342C18.1105 12.8209 18.103 12.8028 18.103 12.784C18.103 12.7652 18.1105 12.7471 18.1238 12.7338C18.1371 12.7205 18.1552 12.713 18.174 12.713ZM17.832 15.279C17.6309 15.2651 17.4321 15.3284 17.276 15.456C17.32 15.234 17.412 14.996 17.606 14.996C17.6248 14.996 17.6429 14.9885 17.6562 14.9752C17.6695 14.9619 17.677 14.9438 17.677 14.925C17.677 14.9062 17.6695 14.8881 17.6562 14.8748C17.6429 14.8615 17.6248 14.854 17.606 14.854C17.5179 14.8594 17.4337 14.8917 17.3646 14.9467C17.2956 15.0016 17.2451 15.0764 17.22 15.161C17.174 14.232 17.033 14.229 16.98 14.229C16.9614 14.227 16.9428 14.2325 16.9283 14.2442C16.9138 14.2559 16.9045 14.2729 16.9025 14.2915C16.9005 14.3101 16.906 14.3287 16.9177 14.3432C16.9294 14.3577 16.9464 14.367 16.965 14.369C17.0096 14.4701 17.0347 14.5786 17.039 14.689C17.0114 14.5984 16.9575 14.5181 16.8841 14.4583C16.8108 14.3984 16.7213 14.3618 16.627 14.353C16.6083 14.353 16.5904 14.3604 16.5771 14.3736C16.5639 14.3869 16.5565 14.4048 16.5565 14.4235C16.5565 14.4422 16.5639 14.4601 16.5771 14.4734C16.5904 14.4866 16.6083 14.494 16.627 14.494C16.817 14.494 16.933 14.73 17.003 15.014C16.9354 14.9086 16.8419 14.8223 16.7314 14.7633C16.6209 14.7043 16.4972 14.6746 16.372 14.677C16.3532 14.677 16.3351 14.6845 16.3218 14.6978C16.3085 14.7111 16.301 14.7292 16.301 14.748C16.301 14.7668 16.3085 14.7849 16.3218 14.7982C16.3351 14.8115 16.3532 14.819 16.372 14.819C16.4974 14.8177 16.6203 14.8541 16.7248 14.9234C16.8293 14.9928 16.9105 15.0919 16.958 15.208C16.8079 15.0851 16.6177 15.0221 16.424 15.031C16.4053 15.031 16.3874 15.0384 16.3741 15.0516C16.3609 15.0649 16.3535 15.0828 16.3535 15.1015C16.3535 15.1202 16.3609 15.1381 16.3741 15.1514C16.3874 15.1646 16.4053 15.172 16.424 15.172C16.5122 15.1686 16.6002 15.1832 16.6826 15.2151C16.765 15.2469 16.8399 15.2953 16.9029 15.3573C16.9658 15.4192 17.0154 15.4933 17.0486 15.5751C17.0819 15.657 17.098 15.7447 17.096 15.833C17.0974 15.8423 17.1008 15.8512 17.106 15.859C17.11 15.867 17.11 15.877 17.116 15.883C17.1226 15.8895 17.1304 15.8946 17.139 15.8981C17.1476 15.9015 17.1568 15.9032 17.166 15.903C17.173 15.903 17.177 15.898 17.184 15.896C17.1942 15.893 17.2034 15.8874 17.2109 15.8799C17.2184 15.8724 17.224 15.8632 17.227 15.853C17.229 15.846 17.235 15.841 17.235 15.833C17.235 15.816 17.247 15.42 17.832 15.42C17.8507 15.42 17.8686 15.4126 17.8819 15.3994C17.8951 15.3861 17.9025 15.3682 17.9025 15.3495C17.9025 15.3308 17.8951 15.3129 17.8819 15.2996C17.8686 15.2864 17.8507 15.279 17.832 15.279ZM18.174 15.279C18.3751 15.2651 18.5739 15.3284 18.73 15.456C18.686 15.234 18.593 14.996 18.4 14.996C18.3812 14.996 18.3631 14.9885 18.3498 14.9752C18.3365 14.9619 18.329 14.9438 18.329 14.925C18.329 14.9062 18.3365 14.8881 18.3498 14.8748C18.3631 14.8615 18.3812 14.854 18.4 14.854C18.4881 14.8594 18.5723 14.8917 18.6414 14.9467C18.7104 15.0016 18.7609 15.0764 18.786 15.161C18.832 14.232 18.973 14.229 19.026 14.229C19.0446 14.227 19.0632 14.2325 19.0777 14.2442C19.0922 14.2559 19.1015 14.2729 19.1035 14.2915C19.1055 14.3101 19.1 14.3287 19.0883 14.3432C19.0766 14.3577 19.0596 14.367 19.041 14.369C18.9961 14.47 18.9706 14.5786 18.966 14.689C18.9936 14.5983 19.0477 14.5179 19.1213 14.458C19.1948 14.3982 19.2846 14.3616 19.379 14.353C19.3977 14.353 19.4156 14.3604 19.4289 14.3736C19.4421 14.3869 19.4495 14.4048 19.4495 14.4235C19.4495 14.4422 19.4421 14.4601 19.4289 14.4734C19.4156 14.4866 19.3977 14.494 19.379 14.494C19.189 14.494 19.073 14.73 19.003 15.014C19.0706 14.9086 19.1641 14.8223 19.2746 14.7633C19.3851 14.7043 19.5088 14.6746 19.634 14.677C19.6528 14.677 19.6709 14.6845 19.6842 14.6978C19.6975 14.7111 19.705 14.7292 19.705 14.748C19.705 14.7668 19.6975 14.7849 19.6842 14.7982C19.6709 14.8115 19.6528 14.819 19.634 14.819C19.5086 14.8177 19.3857 14.8541 19.2812 14.9234C19.1767 14.9928 19.0955 15.0919 19.048 15.208C19.1981 15.0851 19.3883 15.0221 19.582 15.031C19.6007 15.031 19.6186 15.0384 19.6319 15.0516C19.6451 15.0649 19.6525 15.0828 19.6525 15.1015C19.6525 15.1202 19.6451 15.1381 19.6319 15.1514C19.6186 15.1646 19.6007 15.172 19.582 15.172C19.4938 15.1686 19.4058 15.1832 19.3234 15.2151C19.241 15.2469 19.1661 15.2953 19.1031 15.3573C19.0402 15.4192 18.9906 15.4933 18.9574 15.5751C18.9241 15.657 18.908 15.7447 18.91 15.833C18.9086 15.8423 18.9052 15.8512 18.9 15.859C18.896 15.867 18.895 15.877 18.89 15.883C18.8834 15.8895 18.8756 15.8946 18.867 15.8981C18.8584 15.9015 18.8492 15.9032 18.84 15.903C18.833 15.903 18.828 15.898 18.822 15.896C18.8118 15.893 18.8026 15.8874 18.7951 15.8799C18.7876 15.8724 18.782 15.8632 18.779 15.853C18.777 15.846 18.771 15.841 18.771 15.833C18.771 15.816 18.759 15.42 18.174 15.42C18.1553 15.42 18.1374 15.4126 18.1241 15.3994C18.1109 15.3861 18.1035 15.3682 18.1035 15.3495C18.1035 15.3308 18.1109 15.3129 18.1241 15.2996C18.1374 15.2864 18.1553 15.279 18.174 15.279ZM20.294 9.494H19.878C19.8503 9.49387 19.8228 9.48824 19.7972 9.47744C19.7717 9.46664 19.7485 9.45089 19.7291 9.43108C19.7097 9.41128 19.6943 9.38781 19.684 9.36205C19.6737 9.33629 19.6686 9.30875 19.669 9.281C19.6687 9.25334 19.6739 9.2259 19.6843 9.20025C19.6947 9.17461 19.71 9.15127 19.7294 9.13157C19.7489 9.11187 19.772 9.0962 19.7975 9.08546C19.823 9.07473 19.8503 9.06913 19.878 9.069H20.295C20.3226 9.06926 20.3498 9.07495 20.3752 9.08575C20.4006 9.09654 20.4236 9.11223 20.4429 9.13192C20.4622 9.15161 20.4775 9.1749 20.4878 9.20048C20.4981 9.22606 20.5033 9.25342 20.503 9.281C20.5034 9.30866 20.4983 9.33613 20.4881 9.36182C20.4778 9.38752 20.4626 9.41094 20.4433 9.43073C20.4239 9.45052 20.4009 9.4663 20.3754 9.47716C20.35 9.48802 20.3217 9.49374 20.294 9.494ZM16.122 9.494H15.705C15.6773 9.49387 15.6498 9.48824 15.6242 9.47744C15.5987 9.46664 15.5755 9.45089 15.5561 9.43108C15.5367 9.41128 15.5213 9.38781 15.511 9.36205C15.5007 9.33629 15.4956 9.30875 15.496 9.281C15.4957 9.25334 15.5009 9.2259 15.5113 9.20025C15.5217 9.17461 15.537 9.15127 15.5564 9.13157C15.5759 9.11187 15.599 9.0962 15.6245 9.08546C15.65 9.07473 15.6773 9.06913 15.705 9.069H16.122C16.1497 9.06913 16.177 9.07473 16.2025 9.08546C16.228 9.0962 16.2511 9.11187 16.2706 9.13157C16.29 9.15127 16.3053 9.17461 16.3157 9.20025C16.3261 9.2259 16.3313 9.25334 16.331 9.281C16.3314 9.30875 16.3263 9.33629 16.316 9.36205C16.3057 9.38781 16.2903 9.41128 16.2709 9.43108C16.2515 9.45089 16.2283 9.46664 16.2028 9.47744C16.1772 9.48824 16.1497 9.49387 16.122 9.494ZM16.456 17.653C16.3924 17.6487 16.3288 17.6617 16.2719 17.6906C16.2151 17.7194 16.1671 17.7631 16.133 17.817C16.063 17.914 15.873 17.947 15.853 17.82C15.835 17.706 16.229 17.35 16.229 17.35C16.2025 17.3119 16.1638 17.2839 16.1193 17.2706C16.0748 17.2574 16.0271 17.2596 15.984 17.277C15.813 17.321 15.644 17.602 15.644 17.602C15.5928 17.5833 15.5377 17.5779 15.4838 17.5862C15.4299 17.5946 15.3791 17.6166 15.336 17.65L14.748 18.335C14.748 18.335 15.47 18.963 16.39 18.037L16.234 17.986C16.2751 17.8563 16.3521 17.7409 16.456 17.653Z"
		fill="#73AF00"
	/>
	<path
		d="M16.605 19.4L16.822 19.454L16.522 19.611L16.605 19.4ZM16.341 19.33L16.263 19.526L16.541 19.381L16.341 19.33ZM16.13 19.296L16.076 19.446L16.282 19.328L16.13 19.296ZM18.263 19.678L18.59 19.591L18.39 19.49L18.263 19.678ZM18.181 19.368L18.058 19.538L18.363 19.468L18.181 19.368ZM18 19.317L17.942 19.465L18.152 19.354L18 19.317ZM13.812 7.983C13.7802 8.01384 13.7614 8.05572 13.7595 8.10001C13.7577 8.14429 13.7729 8.1876 13.802 8.221C13.8226 8.25952 13.8575 8.28843 13.8992 8.30151C13.9409 8.3146 13.9861 8.31083 14.025 8.291C14.0566 8.26021 14.0752 8.21853 14.077 8.17448C14.0789 8.13044 14.0638 8.08734 14.035 8.054C14.0144 8.01548 13.9795 7.98657 13.9378 7.97349C13.8961 7.9604 13.8509 7.96417 13.812 7.984V7.983ZM21.966 8.055C21.9367 8.08828 21.9213 8.13151 21.923 8.1758C21.9247 8.22008 21.9433 8.26203 21.975 8.293C22.0141 8.31275 22.0593 8.31637 22.101 8.3031C22.1427 8.28982 22.1775 8.2607 22.198 8.222C22.2271 8.1886 22.2423 8.14529 22.2405 8.101C22.2386 8.05672 22.2198 8.01484 22.188 7.984C22.149 7.96456 22.104 7.9611 22.0626 7.97437C22.0211 7.98763 21.9864 8.01656 21.966 8.055ZM21.338 10.131V14.942C21.3489 15.3872 21.2706 15.8301 21.1078 16.2447C20.9449 16.6592 20.7008 17.0369 20.3897 17.3557C20.0787 17.6744 19.707 17.9277 19.2966 18.1007C18.8862 18.2736 18.4454 18.3627 18 18.3627C17.5546 18.3627 17.1138 18.2736 16.7034 18.1007C16.293 17.9277 15.9213 17.6744 15.6103 17.3557C15.2992 17.0369 15.0551 16.6592 14.8922 16.2447C14.7294 15.8301 14.6511 15.3872 14.662 14.942V13.747C14.3919 13.6643 14.1085 13.6341 13.827 13.658V16.924H14.105V17.49H12.715V16.924H12.993V13.99C12.7428 14.2001 12.5509 14.4711 12.436 14.777V12.984C12.6089 12.8653 12.796 12.7689 12.993 12.697V10.697H12.715V10.131H14.105V10.697H13.827V12.527C14.1067 12.5128 14.3871 12.5326 14.662 12.586V10.13C14.6616 10.0931 14.6685 10.0566 14.6823 10.0224C14.696 9.9882 14.7164 9.95707 14.7422 9.93078C14.7681 9.90448 14.7988 9.88355 14.8328 9.86917C14.8667 9.8548 14.9031 9.84726 14.94 9.847H21.06C21.0969 9.84726 21.1335 9.85483 21.1675 9.86927C21.2015 9.88371 21.2323 9.90473 21.2581 9.93113C21.284 9.95753 21.3043 9.98878 21.318 10.0231C21.3317 10.0574 21.3385 10.0941 21.338 10.131ZM19.948 11.263H16.053V14.943C16.0446 15.2039 16.0888 15.4639 16.1829 15.7074C16.277 15.9509 16.419 16.1731 16.6007 16.3606C16.7823 16.5481 16.9998 16.6973 17.2401 16.7991C17.4805 16.9009 17.7389 16.9534 18 16.9534C18.2611 16.9534 18.5195 16.9009 18.7599 16.7991C19.0002 16.6973 19.2177 16.5481 19.3993 16.3606C19.581 16.1731 19.723 15.9509 19.8171 15.7074C19.9112 15.4639 19.9554 15.2039 19.947 14.943L19.948 11.263ZM16.748 9.281C16.7486 9.3222 16.7613 9.36231 16.7847 9.39629C16.808 9.43026 16.8408 9.45658 16.8791 9.47194C16.9173 9.4873 16.9592 9.49101 16.9996 9.48261C17.0399 9.47421 17.0769 9.45407 17.1058 9.42473C17.1347 9.39538 17.1544 9.35814 17.1622 9.31768C17.17 9.27723 17.1657 9.23536 17.1498 9.19734C17.1339 9.15933 17.1071 9.12686 17.0728 9.10402C17.0385 9.08119 16.9982 9.069 16.957 9.069C16.9293 9.06913 16.902 9.07473 16.8765 9.08546C16.851 9.0962 16.8279 9.11187 16.8084 9.13157C16.789 9.15127 16.7737 9.17461 16.7633 9.20025C16.7529 9.2259 16.7477 9.25334 16.748 9.281ZM18.834 9.281C18.8346 9.32216 18.8473 9.36223 18.8706 9.39618C18.8939 9.43013 18.9267 9.45645 18.9648 9.47184C19.003 9.48723 19.0449 9.491 19.0852 9.48269C19.1255 9.47437 19.1625 9.45433 19.1915 9.42508C19.2204 9.39583 19.2401 9.35869 19.2481 9.31829C19.256 9.2779 19.2518 9.23606 19.2361 9.19803C19.2203 9.16 19.1937 9.12746 19.1595 9.10451C19.1254 9.08155 19.0852 9.0692 19.044 9.069C19.0163 9.069 18.9888 9.0745 18.9632 9.08517C18.9376 9.09585 18.9143 9.1115 18.8948 9.13121C18.8753 9.15093 18.8598 9.17431 18.8494 9.20002C18.839 9.22573 18.8337 9.25325 18.834 9.281ZM17.722 7.017C17.723 7.07176 17.7401 7.12501 17.7713 7.17006C17.8024 7.21512 17.8462 7.24997 17.897 7.27025C17.9479 7.29052 18.0036 7.29532 18.0572 7.28403C18.1108 7.27275 18.1599 7.24589 18.1983 7.20682C18.2367 7.16775 18.2626 7.11821 18.273 7.06442C18.2833 7.01064 18.2775 6.955 18.2563 6.90449C18.2351 6.85398 18.1995 6.81086 18.1539 6.78053C18.1083 6.75019 18.0548 6.73401 18 6.734C17.9631 6.73426 17.9267 6.7418 17.8928 6.75617C17.8588 6.77055 17.8281 6.79148 17.8022 6.81778C17.7764 6.84407 17.756 6.8752 17.7423 6.90939C17.7285 6.94358 17.7216 6.98015 17.722 7.017ZM15.157 7.277C15.108 7.29449 15.0678 7.33038 15.0448 7.37706C15.0218 7.42373 15.018 7.47752 15.034 7.527C15.0426 7.57814 15.0711 7.6238 15.1132 7.65398C15.1554 7.68415 15.2078 7.69639 15.259 7.688C15.308 7.67051 15.3482 7.63462 15.3712 7.58794C15.3942 7.54127 15.398 7.48748 15.382 7.438C15.3779 7.41259 15.3688 7.38824 15.3552 7.36634C15.3417 7.34444 15.324 7.32543 15.3031 7.31039C15.2822 7.29534 15.2585 7.28456 15.2335 7.27866C15.2084 7.27276 15.1824 7.27286 15.157 7.277ZM20.62 7.437C20.6037 7.48661 20.6074 7.54065 20.6304 7.58755C20.6534 7.63446 20.6938 7.67051 20.743 7.688C20.7684 7.6923 20.7944 7.69154 20.8195 7.68577C20.8447 7.68 20.8684 7.66933 20.8894 7.65438C20.9104 7.63942 20.9282 7.62047 20.9419 7.59862C20.9555 7.57676 20.9648 7.55242 20.969 7.527C20.985 7.47752 20.9812 7.42373 20.9582 7.37706C20.9352 7.33038 20.895 7.29449 20.846 7.277C20.7948 7.2683 20.7423 7.28026 20.6999 7.31026C20.6575 7.34026 20.6288 7.38584 20.62 7.437ZM23.564 14.777V12.984C23.3911 12.8653 23.204 12.7689 23.007 12.697V10.697H23.285V10.131H21.895V10.697H22.173V12.527C21.8933 12.5128 21.6129 12.5326 21.338 12.586V13.747C21.6081 13.6643 21.8915 13.6341 22.173 13.658V16.924H21.895V17.49H23.285V16.924H23.007V13.99C23.2572 14.2001 23.4491 14.4711 23.564 14.777ZM15.588 17.76C15.5741 17.7596 15.5604 17.7634 15.5486 17.7708C15.5368 17.7783 15.5275 17.789 15.5219 17.8018C15.5163 17.8145 15.5146 17.8287 15.5171 17.8424C15.5196 17.8561 15.5261 17.8688 15.5358 17.8787C15.5455 17.8887 15.558 17.8956 15.5716 17.8985C15.5852 17.9013 15.5994 17.9001 15.6123 17.8948C15.6252 17.8896 15.6363 17.8806 15.644 17.8691C15.6518 17.8575 15.656 17.8439 15.656 17.83C15.6561 17.8209 15.6545 17.8119 15.6511 17.8035C15.6478 17.7951 15.6428 17.7874 15.6365 17.7809C15.6302 17.7744 15.6227 17.7692 15.6143 17.7656C15.606 17.762 15.5971 17.7601 15.588 17.76ZM13.592 5.77C14.1479 5.83742 14.6938 5.97104 15.218 6.168V5.28L15.183 5.268C15.6464 5.11598 16.1243 5.0121 16.609 4.958V4.69C17.5271 4.50463 18.4729 4.50463 19.391 4.69V4.959C19.8757 5.0131 20.3536 5.11698 20.817 5.269L20.782 5.279V6.167C21.3062 5.97004 21.8521 5.83642 22.408 5.769V6.455C22.7987 6.49965 23.185 6.57658 23.563 6.685V5.811C23.4322 5.7765 23.3005 5.74549 23.168 5.718L23.285 5.716V4.885C22.6172 4.86881 21.9505 4.94794 21.305 5.12L21.381 4.59C20.8317 4.36749 20.2565 4.21528 19.669 4.137V3.902C18.5725 3.63401 17.4275 3.63401 16.331 3.902V4.137C15.7435 4.2156 15.1683 4.36815 14.619 4.591L14.695 5.121C14.0496 4.9486 13.3829 4.86913 12.715 4.885V5.716L12.831 5.718C12.6985 5.74552 12.5668 5.77653 12.436 5.811V6.686C12.8143 6.5772 13.2009 6.49993 13.592 6.455V5.77Z"
		fill="#F5F5F5"
	/>
	<path
		d="M16.053 11.263H14.662V10.479C14.6612 10.3968 14.6766 10.3152 14.7073 10.239C14.7381 10.1627 14.7835 10.0933 14.8411 10.0346C14.8987 9.9759 14.9672 9.92913 15.0429 9.89694C15.1185 9.86475 15.1998 9.84778 15.282 9.847H16.052L16.053 11.263ZM18.695 9.847H17.305V11.262H18.695V9.847ZM16.052 12.678H14.662V14.094H16.052V12.678ZM19.948 12.678V14.094H21.338V12.678H19.948ZM21.338 11.263V10.479C21.3388 10.3968 21.3234 10.3152 21.2927 10.239C21.2619 10.1627 21.2165 10.0933 21.1589 10.0346C21.1013 9.9759 21.0328 9.92913 20.9571 9.89694C20.8815 9.86475 20.8002 9.84778 20.718 9.847H19.948V11.263H21.338ZM18 16.923C17.779 16.9229 17.5598 16.8843 17.352 16.809L16.817 18.116C17.5775 18.4142 18.4225 18.4142 19.183 18.116L18.648 16.809C18.4403 16.8847 18.221 16.9226 18 16.923ZM16.086 15.297L14.745 15.687C14.8713 16.2611 15.1442 16.7927 15.537 17.23L16.625 16.345C16.3433 16.0582 16.155 15.6929 16.085 15.297H16.086ZM19.374 16.345L20.462 17.23C20.8552 16.7928 21.1285 16.2612 21.255 15.687L19.915 15.297C19.845 15.6929 19.6557 16.0582 19.374 16.345ZM15.636 12.385V11.536H15.079V12.386L15.636 12.385ZM20.921 12.385V11.536H20.365V12.386L20.921 12.385ZM15.636 15.193V14.343H15.079V15.193H15.636ZM16.834 17.696V16.847H16.278V17.455L15.783 18.039C15.825 18.054 16.031 17.901 16.031 17.901C16.1304 17.8437 16.215 17.7639 16.278 17.668V17.696H16.834ZM19.164 17.696H19.721V16.847H19.164V17.696ZM20.364 14.344V15.193H20.921V14.343L20.364 14.344ZM16.957 10.131H16.4V10.98H16.957V10.131ZM19.577 10.131H19.02V10.98H19.577V10.131ZM16.927 13.076C16.9845 13.3174 17.1216 13.5323 17.3163 13.6861C17.511 13.8399 17.7519 13.9235 18 13.9235C18.2481 13.9235 18.489 13.8399 18.6837 13.6861C18.8784 13.5323 19.0155 13.3174 19.073 13.076H16.927ZM18 16.491C18.2479 16.4889 18.4881 16.4042 18.6825 16.2503C18.8768 16.0963 19.0142 15.8819 19.073 15.641H16.927C16.9858 15.8819 17.1232 16.0963 17.3175 16.2503C17.5119 16.4042 17.7521 16.4889 18 16.491ZM17.791 9.494H18.209C18.2654 9.494 18.3194 9.47161 18.3593 9.43176C18.3991 9.39191 18.4215 9.33786 18.4215 9.2815C18.4215 9.22514 18.3991 9.17109 18.3593 9.13124C18.3194 9.09139 18.2654 9.069 18.209 9.069H17.791C17.7346 9.069 17.6806 9.09139 17.6407 9.13124C17.6009 9.17109 17.5785 9.22514 17.5785 9.2815C17.5785 9.33786 17.6009 9.39191 17.6407 9.43176C17.6806 9.47161 17.7346 9.494 17.791 9.494ZM21.13 9.494C21.172 9.4944 21.2131 9.48232 21.2482 9.45932C21.2833 9.43631 21.3108 9.4034 21.3272 9.36475C21.3436 9.32611 21.3481 9.28347 21.3402 9.24225C21.3324 9.20102 21.3124 9.16306 21.283 9.13317C21.2535 9.10328 21.2158 9.08281 21.1747 9.07436C21.1336 9.0659 21.0909 9.06984 21.052 9.08567C21.0132 9.1015 20.9799 9.12852 20.9564 9.16329C20.9329 9.19806 20.9202 9.23903 20.92 9.281C20.9196 9.30883 20.9247 9.33646 20.9351 9.36228C20.9455 9.38811 20.9609 9.41162 20.9804 9.43144C21 9.45125 21.0233 9.46699 21.0489 9.47773C21.0746 9.48847 21.1022 9.494 21.13 9.494ZM14.87 9.494C14.912 9.49479 14.9534 9.48306 14.9887 9.4603C15.0241 9.43754 15.0519 9.40477 15.0686 9.36617C15.0853 9.32756 15.0901 9.28487 15.0825 9.24351C15.0748 9.20216 15.0551 9.16401 15.0257 9.13392C14.9963 9.10383 14.9586 9.08316 14.9175 9.07454C14.8763 9.06592 14.8335 9.06973 14.7945 9.0855C14.7555 9.10127 14.7221 9.12828 14.6985 9.16309C14.6749 9.1979 14.6622 9.23894 14.662 9.281C14.6616 9.30866 14.6667 9.33613 14.6769 9.36182C14.6872 9.38752 14.7024 9.41094 14.7217 9.43073C14.7411 9.45052 14.7641 9.4663 14.7896 9.47716C14.815 9.48802 14.8423 9.49374 14.87 9.494Z"
		fill="#FF4B55"
	/>
</svg>
