<svg viewBox="0 0 36 24" fill="none" xmlns="http://www.w3.org/2000/svg">
	<path d="M1.241 1.263H34.758V22.737H1.241V1.263Z" fill="#C8414B" />
	<path
		d="M24.037 15.962C24.0337 16.1482 23.9754 16.3292 23.8695 16.4824C23.7636 16.6356 23.6148 16.754 23.4418 16.8229C23.2688 16.8918 23.0793 16.9081 22.8971 16.8696C22.7149 16.8312 22.5481 16.7398 22.4177 16.6069C22.2872 16.474 22.199 16.3055 22.164 16.1226C22.129 15.9397 22.1488 15.7505 22.221 15.5789C22.2931 15.4072 22.4144 15.2607 22.5695 15.1577C22.7247 15.0547 22.9068 14.9998 23.093 15C23.2182 15.0012 23.3418 15.027 23.457 15.076C23.5722 15.125 23.6766 15.1961 23.7642 15.2855C23.8519 15.3748 23.9211 15.4805 23.9679 15.5966C24.0147 15.7127 24.0382 15.8368 24.037 15.962ZM20.084 11.235L19.531 10.589C19.0572 10.7385 18.5486 10.7364 18.076 10.583C17.6034 10.7364 17.0948 10.7385 16.621 10.589L16.068 11.235C16.2169 11.7058 16.2298 12.2092 16.105 12.687C16.0245 13.0661 16.0009 13.455 16.035 13.841H20.117C20.1512 13.455 20.1276 13.066 20.047 12.687C19.9222 12.2092 19.9351 11.7058 20.084 11.235Z"
		fill="#41479B"
	/>
	<path
		d="M16.077 14.09C16.081 14.111 16.084 14.133 16.09 14.155C16.22 14.687 16.64 14.87 17.129 15.082C17.4849 15.2056 17.8085 15.4076 18.076 15.673C18.3435 15.4076 18.6671 15.2056 19.023 15.082C19.511 14.87 19.933 14.686 20.062 14.155L20.075 14.09H16.077Z"
		fill="#73AF00"
	/>
	<path
		d="M0 0V24H36V0H0ZM34.759 22.737H1.24V1.263H34.76L34.759 22.737ZM11.389 12.565L11.573 12.446L11.623 12.696C11.5518 12.7152 11.4901 12.7601 11.45 12.822C11.618 12.9354 11.7538 13.0905 11.844 13.272C11.985 13.661 11.942 14.537 12.145 14.8C12.348 15.063 12.508 15.244 12.508 15.244C12.4773 15.3343 12.4801 15.4326 12.516 15.521C12.5533 15.5792 12.6083 15.6237 12.673 15.648C12.6426 15.8725 12.6726 16.101 12.76 16.31C12.8161 16.4317 12.8926 16.5429 12.986 16.639C12.986 16.639 12.465 16.962 12.834 17.339C12.821 17.4346 12.845 17.5316 12.9011 17.61C12.9573 17.6885 13.0413 17.7425 13.136 17.761C13.139 17.7986 13.15 17.8352 13.1683 17.8683C13.1866 17.9013 13.2117 17.93 13.242 17.9526C13.2723 17.9751 13.3071 17.9909 13.344 17.9989C13.3809 18.0069 13.4191 18.007 13.456 17.999C13.456 17.999 13.603 17.955 13.64 18.029C13.6588 18.1978 13.6588 18.3682 13.64 18.537C13.7187 18.5291 13.7946 18.5035 13.862 18.462L14.132 18.6L14.138 18.293L14.477 18.155C14.477 18.155 14.329 18.18 14.027 17.892C14.027 17.892 14.077 17.861 14.114 17.617C14.2345 17.5226 14.3331 17.4032 14.403 17.267C14.5747 16.9695 14.8544 16.7496 15.184 16.653L15.238 16.897C15.4713 16.6741 15.7412 16.4931 16.036 16.362L16.23 16.622C16.5059 16.1993 16.8156 15.7997 17.156 15.427C17.201 15.447 17.246 15.467 17.29 15.489C17.2367 15.6388 17.1486 15.7738 17.033 15.883C16.9198 15.9803 16.8431 16.1132 16.8156 16.26C16.7882 16.4067 16.8116 16.5584 16.882 16.69C16.636 16.897 16.685 17.085 16.654 17.298C16.624 17.51 15.805 18.061 15.805 18.061C15.8617 18.1523 15.9436 18.2252 16.0409 18.2708C16.1382 18.3164 16.2466 18.3328 16.353 18.318C16.193 18.424 16.242 18.781 16.242 18.781C16.3985 18.8146 16.5615 18.7992 16.709 18.737C16.6848 18.7994 16.6761 18.8668 16.6836 18.9333C16.6911 18.9998 16.7146 19.0635 16.752 19.119C16.9059 19.0458 17.0696 18.9953 17.238 18.969C17.2229 19.077 17.2334 19.187 17.2686 19.2902C17.3039 19.3934 17.3629 19.4869 17.441 19.563L17.657 19.326C17.6754 19.4633 17.7221 19.5953 17.794 19.7137C17.866 19.8321 17.9616 19.9344 18.075 20.014C18.1884 19.9344 18.284 19.8321 18.356 19.7137C18.4279 19.5953 18.4746 19.4633 18.493 19.326L18.709 19.563C18.7871 19.4869 18.8461 19.3934 18.8814 19.2902C18.9166 19.187 18.9271 19.077 18.912 18.969C19.0804 18.9953 19.2441 19.0458 19.398 19.119C19.4354 19.0635 19.4589 18.9998 19.4664 18.9333C19.4739 18.8668 19.4652 18.7994 19.441 18.737C19.5885 18.7992 19.7515 18.8146 19.908 18.781C19.908 18.781 19.958 18.424 19.798 18.318C19.9043 18.3326 20.0125 18.3161 20.1096 18.2705C20.2066 18.2249 20.2884 18.1521 20.345 18.061C20.345 18.061 19.527 17.511 19.496 17.298C19.466 17.085 19.515 16.897 19.268 16.69C19.3385 16.5585 19.3621 16.4069 19.3348 16.2601C19.3075 16.1134 19.2311 15.9804 19.118 15.883C19.0022 15.7738 18.9138 15.6388 18.86 15.489C18.904 15.4683 18.949 15.448 18.995 15.428C19.3351 15.8004 19.6444 16.1997 19.92 16.622L20.114 16.362C20.4088 16.4931 20.6788 16.6741 20.912 16.897L20.966 16.653L20.976 16.642C21.3102 16.8012 21.6357 16.9781 21.951 17.172C22.16 17.335 22.331 17.348 22.836 17.172C23.341 16.997 24.279 16.728 24.14 16.409C24.1331 16.3941 24.1251 16.3797 24.116 16.366C24.1343 16.3024 24.1329 16.2347 24.112 16.1719C24.0912 16.109 24.0517 16.054 23.999 16.014C23.999 16.014 24.001 16.049 23.999 16.094L23.519 15.912C23.5025 15.8637 23.4727 15.821 23.433 15.789C23.433 15.8184 23.431 15.8478 23.427 15.877L23.304 15.83L23.55 15.126C23.531 15.116 23.51 15.109 23.491 15.1C23.4981 15.0181 23.5098 14.9366 23.526 14.856C23.5818 14.8737 23.6342 14.9007 23.681 14.936L23.751 14.679C23.6926 14.6742 23.6345 14.6662 23.577 14.655C23.5963 14.5862 23.6267 14.521 23.667 14.462L23.341 14.362C23.346 14.4372 23.3467 14.5127 23.343 14.588C23.2813 14.564 23.2239 14.5302 23.173 14.488L23.097 14.774C23.1704 14.7794 23.2435 14.7888 23.316 14.802C23.3007 14.8806 23.2667 14.9543 23.217 15.017C23.206 15.015 23.195 15.011 23.183 15.01L22.944 15.694L22.296 15.448C22.2728 15.4863 22.2528 15.5265 22.236 15.568C22.233 15.569 21.986 15.702 21.99 15.897C21.9644 15.9067 21.9413 15.922 21.9223 15.9417C21.9032 15.9614 21.8888 15.9851 21.88 16.011C21.806 16.208 22.258 16.65 22.148 16.706C22.038 16.761 21.471 16.286 21.38 16.206C21.4796 16.1797 21.5762 16.1428 21.668 16.096C21.5476 16.036 21.4359 15.96 21.336 15.87C21.4229 15.8162 21.4964 15.7434 21.551 15.657C21.053 15.57 20.997 15.463 20.997 15.463C21.028 15.4061 21.0509 15.3452 21.065 15.282C20.8709 15.2774 20.6824 15.2166 20.5223 15.1069C20.3621 14.9972 20.2373 14.8433 20.163 14.664L20.187 14.624C20.2593 14.7141 20.3576 14.7797 20.4686 14.8119C20.5795 14.8441 20.6977 14.8414 20.807 14.804L20.631 14.484C20.7771 14.628 20.9667 14.7198 21.1702 14.7451C21.3738 14.7704 21.5801 14.7278 21.757 14.624L21.587 14.437C22.412 14.65 22.615 14.167 22.615 14.167C22.4687 14.1436 22.328 14.0935 22.2 14.019C23.187 14.226 23.205 13.649 23.205 13.649C23.101 13.617 22.781 13.511 22.781 13.511C23.728 13.63 23.759 12.922 23.759 12.922C23.5013 12.9676 23.2389 12.9803 22.978 12.96C24.178 12.872 24.196 12.184 24.196 12.184C23.8872 12.2965 23.5568 12.3369 23.23 12.302C24.608 12.133 24.59 11.282 24.59 11.282C24.1964 11.5542 23.7372 11.7164 23.26 11.752C24.873 11.307 24.75 10.443 24.75 10.443C24.4339 10.7619 24.0289 10.978 23.588 11.063C23.9126 10.9743 24.1981 10.7793 24.3988 10.5091C24.5995 10.239 24.7038 9.9094 24.695 9.573C24.398 10.0066 23.9901 10.3526 23.514 10.575C23.8588 10.3713 24.1395 10.0749 24.3243 9.71962C24.509 9.36429 24.5903 8.96425 24.559 8.565C24.3642 9.05936 24.0478 9.49653 23.639 9.836C24.673 8.437 24.166 7.536 24.166 7.536C24.0226 8.1346 23.7689 8.70126 23.418 9.207C24.212 7.047 23.532 6.425 23.532 6.425C23.5533 7.05873 23.4071 7.68687 23.108 8.246C23.2528 7.8529 23.3053 7.4318 23.2616 7.01518C23.2179 6.59855 23.0792 6.19752 22.856 5.843C22.856 6.48309 22.7743 7.12056 22.613 7.74C22.557 7.653 22.523 7.664 22.523 7.664C22.431 8.24568 22.1809 8.79088 21.8 9.24C21.7933 9.18745 21.7752 9.13698 21.7471 9.09209C21.7189 9.0472 21.6814 9.00896 21.637 8.98C21.6044 9.15241 21.5385 9.31681 21.443 9.464C21.33 9.653 20.796 10.094 20.71 10.482C20.64 10.793 20.943 11.052 21.042 11.114C21.1046 11.1472 21.1544 11.2003 21.1834 11.265C21.2124 11.3297 21.2189 11.4022 21.202 11.471C21.159 11.652 20.839 11.633 20.612 11.627C20.445 11.623 20.383 11.825 20.264 11.929C20.2619 11.7018 20.3072 11.4767 20.397 11.268L20.435 11.179L19.629 10.238L19.567 10.259C19.4771 10.1017 19.4387 9.92024 19.457 9.74C19.5256 9.78498 19.603 9.81497 19.684 9.828C19.6091 9.60372 19.5987 9.3629 19.654 9.133C19.6942 9.20754 19.7536 9.27001 19.826 9.314C19.8208 9.21121 19.8417 9.10877 19.8869 9.01626C19.932 8.92375 19.9998 8.84419 20.084 8.785C20.707 9.058 20.845 8.518 20.845 8.518C20.6779 8.59067 20.4888 8.59426 20.319 8.528C20.4793 8.32081 20.6826 8.15089 20.915 8.03C20.9975 8.00061 21.0881 8.00417 21.168 8.03994C21.2479 8.0757 21.311 8.14092 21.344 8.222C21.551 7.405 20.72 7.649 20.72 7.649C20.72 7.443 20.314 7.33 19.945 7.489C19.8183 7.55295 19.6755 7.57823 19.5345 7.5617C19.3935 7.54516 19.2605 7.48754 19.152 7.396C19.1328 7.44895 19.1248 7.50528 19.1284 7.56148C19.1319 7.61768 19.1471 7.67254 19.1728 7.72264C19.1985 7.77274 19.2342 7.81701 19.2778 7.85268C19.3214 7.88836 19.3718 7.91468 19.426 7.93C19.3004 8.11558 19.108 8.24559 18.889 8.293C18.9604 8.34897 19.044 8.38734 19.133 8.405C18.9486 8.575 18.7441 8.72176 18.524 8.842C18.5861 8.90891 18.6618 8.96176 18.746 8.997C18.5763 9.21074 18.386 9.40735 18.178 9.584C18.2187 9.67348 18.289 9.74623 18.377 9.79C18.3141 9.96076 18.2228 10.1197 18.107 10.26L18.077 10.244L18.047 10.26C17.9312 10.1196 17.8399 9.96074 17.777 9.79C17.8645 9.74578 17.9343 9.67314 17.975 9.584C17.7673 9.40728 17.5774 9.21068 17.408 8.997C17.4918 8.96163 17.5672 8.90879 17.629 8.842C17.4089 8.72177 17.2044 8.57501 17.02 8.405C17.1094 8.38752 17.1933 8.34914 17.265 8.293C17.046 8.24559 16.8536 8.11558 16.728 7.93C16.7822 7.91468 16.8326 7.88836 16.8762 7.85268C16.9198 7.81701 16.9555 7.77274 16.9812 7.72264C17.0069 7.67254 17.0221 7.61768 17.0256 7.56148C17.0292 7.50528 17.0212 7.44895 17.002 7.396C16.8935 7.4879 16.7604 7.54583 16.6192 7.56254C16.478 7.57926 16.335 7.55403 16.208 7.49C15.839 7.33 15.433 7.443 15.433 7.65C15.433 7.65 14.603 7.405 14.81 8.222C14.843 8.14068 14.9062 8.07529 14.9864 8.0395C15.0665 8.00372 15.1574 8.00031 15.24 8.03C15.4719 8.15072 15.6749 8.32028 15.835 8.527C15.6654 8.59358 15.4763 8.59034 15.309 8.518C15.309 8.518 15.447 9.058 16.069 8.786C16.1536 8.84496 16.2218 8.92443 16.2673 9.01695C16.3127 9.10947 16.334 9.21203 16.329 9.315C16.4015 9.2707 16.4609 9.20787 16.501 9.133C16.556 9.363 16.5452 9.60381 16.47 9.828C16.551 9.81494 16.6284 9.78495 16.697 9.74C16.7155 9.92057 16.6771 10.1024 16.587 10.26L16.524 10.238L15.719 11.179L15.757 11.268C15.8466 11.4771 15.8915 11.7026 15.889 11.93C15.769 11.825 15.709 11.623 15.542 11.627C15.314 11.633 14.995 11.652 14.952 11.471C14.9351 11.4022 14.9416 11.3297 14.9706 11.265C14.9996 11.2003 15.0494 11.1472 15.112 11.114C15.21 11.051 15.512 10.793 15.444 10.482C15.357 10.094 14.824 9.652 14.71 9.464C14.6144 9.31652 14.5484 9.15176 14.516 8.979C14.4716 9.00796 14.4341 9.0462 14.4059 9.09109C14.3778 9.13598 14.3597 9.18645 14.353 9.239C13.9721 8.7905 13.7217 8.24605 13.629 7.665C13.629 7.665 13.595 7.654 13.539 7.741C13.378 7.12152 13.2967 6.48405 13.297 5.844C13.0737 6.19847 12.9348 6.59945 12.891 7.01607C12.8471 7.43268 12.8995 7.85381 13.044 8.247C12.7449 7.68789 12.5986 7.05973 12.62 6.426C12.62 6.426 11.94 7.049 12.734 9.208C12.3831 8.70224 12.1295 8.13559 11.986 7.537C11.986 7.537 11.479 8.438 12.512 9.837C12.1034 9.49781 11.7869 9.061 11.592 8.567C11.561 8.96629 11.6428 9.36626 11.8279 9.72141C12.0129 10.0766 12.294 10.3726 12.639 10.576C12.1625 10.3537 11.7543 10.0077 11.457 9.574C11.4483 9.91053 11.5527 10.2403 11.7536 10.5104C11.9545 10.7805 12.2402 10.9755 12.565 11.064C12.1237 10.9792 11.7184 10.7631 11.402 10.444C11.402 10.444 11.279 11.308 12.891 11.753C12.4138 11.7174 11.9546 11.5552 11.561 11.283C11.561 11.283 11.543 12.134 12.921 12.303C12.5945 12.3374 12.2644 12.2967 11.956 12.184C11.956 12.184 11.974 12.873 13.174 12.961C12.9128 12.9815 12.65 12.9687 12.392 12.923C12.392 12.923 12.423 13.63 13.37 13.511C13.37 13.511 13.05 13.618 12.946 13.649C12.946 13.649 12.964 14.226 13.952 14.019C13.8238 14.0943 13.6827 14.1451 13.536 14.169C13.536 14.169 13.739 14.651 14.564 14.438L14.394 14.626C14.571 14.7297 14.7773 14.7721 14.9809 14.7466C15.1845 14.7211 15.374 14.6292 15.52 14.485L15.345 14.804C15.4542 14.8415 15.5723 14.8444 15.6833 14.8124C15.7942 14.7803 15.8926 14.7149 15.965 14.625L15.989 14.664C15.9148 14.8435 15.7901 14.9976 15.6299 15.1075C15.4698 15.2174 15.2812 15.2783 15.087 15.283C15.1008 15.3462 15.1234 15.4071 15.154 15.464C15.154 15.464 15.099 15.571 14.601 15.658C14.6556 15.7443 14.7292 15.8172 14.816 15.871C14.7161 15.961 14.6044 16.037 14.484 16.097C14.5796 16.1459 14.6806 16.1835 14.785 16.209C14.6276 16.3594 14.4238 16.4521 14.207 16.472C13.887 16.478 13.315 16.441 13.315 16.441C13.3057 16.2383 13.2532 16.0398 13.161 15.859C13.014 15.589 12.964 15.569 12.964 15.569C12.964 15.569 12.997 15.353 12.904 15.264C12.811 15.175 12.761 15.133 12.761 15.133C12.7881 14.8958 12.7586 14.6556 12.675 14.432C12.3851 14.0422 12.1683 13.6031 12.035 13.136C12.0186 12.9361 12.0166 12.7352 12.029 12.535L11.882 12.572L11.783 12.366L11.949 12.347L11.882 12.034L11.654 12.122L11.624 11.852L11.353 11.965L11.488 12.209L11.248 12.279L11.389 12.565ZM23.514 16.326L23.786 16.43C23.694 16.542 23.42 16.747 23.352 16.635C23.286 16.527 23.443 16.43 23.514 16.326ZM22.18 15.821L23.17 16.196C23.082 16.336 23.02 16.492 22.748 16.499C22.406 16.509 22.351 16.199 22.278 16.029C22.2564 15.9823 22.2207 15.9435 22.176 15.918C22.176 15.888 22.177 15.854 22.18 15.821ZM18.836 15.105L18.076 15.207L17.315 15.105C17.2535 14.7872 17.1587 14.4768 17.032 14.179H19.119C18.9927 14.4769 18.8971 14.7873 18.836 15.105ZM18.384 13.38C18.54 13.358 18.462 13.672 18.416 13.672H18.217C18.169 13.672 18.044 13.802 18.007 13.841H17.334C17.353 13.291 17.591 13.192 17.591 13.192C17.8482 13.1952 18.1033 13.1462 18.341 13.048C18.3198 13.1025 18.3126 13.1615 18.3201 13.2195C18.3276 13.2775 18.3496 13.3327 18.384 13.38ZM19.324 13.677L19.298 13.682C19.2514 13.682 19.2061 13.6977 19.1695 13.7266C19.1329 13.7554 19.107 13.7957 19.096 13.841H18.678C18.7254 13.7715 18.7688 13.6994 18.808 13.625C18.844 13.549 18.731 13.445 18.724 13.365C18.717 13.285 18.841 13.235 18.841 13.235C18.8962 13.2952 18.9628 13.3439 19.0369 13.378C19.1111 13.4122 19.1914 13.4312 19.273 13.434L19.266 13.294C19.3318 13.3157 19.3938 13.3474 19.45 13.388C19.408 13.482 19.366 13.579 19.325 13.677H19.324ZM16.621 10.589C17.0948 10.7385 17.6034 10.7364 18.076 10.583C18.5486 10.7364 19.0572 10.7385 19.531 10.589L20.084 11.235C19.9634 11.5729 19.9297 11.9357 19.986 12.29L19.958 12.296C19.958 12.296 19.814 12.587 19.63 12.99L19.524 12.98C19.374 12.963 19.388 12.795 19.325 12.6C19.544 12.592 19.882 12.543 19.882 12.314C19.882 12.037 19.623 11.994 19.388 11.998C19.153 12.003 18.808 11.959 18.8 11.773C18.795 11.657 18.986 11.647 19.11 11.687C19.183 11.711 19.632 11.792 19.774 11.487C19.6604 11.4882 19.547 11.4765 19.436 11.452C19.302 11.422 18.753 11.491 18.654 11.706C18.555 11.921 18.874 12.136 19.241 12.136C19.608 12.136 19.658 12.211 19.655 12.302C19.651 12.422 19.36 12.456 19.193 12.454C18.9025 12.4033 18.6065 12.3922 18.313 12.421C18.309 12.407 18.171 12.165 18.171 12.165C18.171 12.165 18.423 12.147 18.455 12.101C18.486 12.054 18.264 11.874 18.264 11.874C18.264 11.874 18.451 11.798 18.458 11.744C18.466 11.684 18.306 11.544 18.306 11.544C18.3512 11.4945 18.3877 11.4377 18.414 11.376C18.447 11.301 18.184 11.28 18.184 11.28C18.198 11.223 18.193 11.167 18.123 11.142C18.069 11.122 17.869 11.199 17.733 11.199C17.6954 11.1972 17.6581 11.2056 17.6248 11.2231C17.5916 11.2407 17.5637 11.2669 17.544 11.299C17.4511 11.3078 17.3595 11.3272 17.271 11.357C17.239 11.386 17.281 11.572 17.281 11.572C17.2436 11.5648 17.2082 11.5495 17.1773 11.5273C17.1463 11.505 17.1207 11.4762 17.102 11.443C17.0926 11.4786 17.0912 11.5158 17.098 11.552C17.1048 11.5882 17.1195 11.6224 17.1411 11.6522C17.1628 11.6819 17.1908 11.7065 17.2231 11.7241C17.2554 11.7418 17.2912 11.752 17.328 11.754L17.375 11.907L17.493 11.922C17.61 11.936 17.553 12.051 17.37 12.051C17.187 12.051 17.109 12.274 17.109 12.274C16.981 12.277 16.911 12.173 16.882 12.039C16.8583 11.8678 16.862 11.694 16.893 11.524C16.921 11.351 16.836 11.301 16.836 11.301L16.78 11.445C16.7822 11.4065 16.77 11.3687 16.7458 11.3387C16.7216 11.3088 16.6871 11.2889 16.649 11.283L16.627 11.463C16.62 11.4473 16.6099 11.4332 16.5974 11.4214C16.5849 11.4096 16.5702 11.4004 16.5541 11.3944C16.538 11.3884 16.5208 11.3856 16.5037 11.3862C16.4865 11.3868 16.4696 11.3908 16.454 11.398C16.454 11.398 16.56 11.788 16.557 11.808C16.553 11.83 16.517 11.848 16.468 11.794C16.419 11.74 16.383 11.776 16.383 11.776C16.436 12.166 16.641 12.108 16.641 12.108C16.6553 12.2329 16.679 12.3566 16.712 12.478C16.7301 12.5502 16.7753 12.6128 16.8382 12.6526C16.9011 12.6925 16.977 12.7066 17.05 12.692C17.05 12.778 17.116 12.902 17.135 13.19C17.1333 13.284 17.1109 13.3764 17.0694 13.4608C17.0279 13.5451 16.9684 13.6193 16.895 13.678C16.8732 13.6774 16.8514 13.6794 16.83 13.684C16.526 12.971 16.193 12.296 16.193 12.296L16.166 12.29C16.2223 11.9357 16.1886 11.5729 16.068 11.235L16.621 10.589ZM16.901 6.855V7.095H19.264V6.855C19.4495 6.74235 19.6011 6.5817 19.7028 6.39002C19.8046 6.19834 19.8526 5.98274 19.842 5.766C19.8 5.388 19.504 4.907 18.376 4.682C18.3748 4.62439 18.357 4.56836 18.3247 4.52063C18.2924 4.47291 18.247 4.43553 18.194 4.413V4.203H18.378V3.977H18.194V3.79H17.972V3.977H17.788V4.203H17.972V4.413C17.9188 4.43538 17.8732 4.4727 17.8407 4.52043C17.8082 4.56817 17.7903 4.62428 17.789 4.682C16.662 4.907 16.366 5.389 16.324 5.766C16.3131 5.98293 16.361 6.19877 16.4628 6.39066C16.5645 6.58255 16.7163 6.74334 16.902 6.856L16.901 6.855ZM19.145 5.631C19.1247 5.51884 19.0887 5.4101 19.038 5.308C19.1442 5.35048 19.2383 5.41852 19.3119 5.50609C19.3855 5.59367 19.4364 5.69806 19.46 5.81C19.4618 5.94357 19.4311 6.07559 19.3707 6.19472C19.3103 6.31385 19.2218 6.41655 19.113 6.494H19.036C19.152 6.22244 19.1897 5.92288 19.145 5.631ZM18.275 5.108C18.399 5.15575 18.5089 5.23404 18.5946 5.33561C18.6802 5.43718 18.7389 5.55873 18.765 5.689C18.8066 5.96777 18.75 6.25232 18.605 6.494H18.275V5.108ZM17.401 5.688C17.4272 5.55788 17.4859 5.43649 17.5715 5.33509C17.6572 5.2337 17.7671 5.15558 17.891 5.108V6.494H17.561C17.4159 6.25235 17.3593 5.96677 17.401 5.688ZM16.705 5.81C16.7286 5.69806 16.7794 5.59367 16.8531 5.50609C16.9267 5.41852 17.0208 5.35048 17.127 5.308C17.0766 5.41014 17.041 5.51888 17.021 5.631C16.9761 5.9232 17.0138 6.22214 17.13 6.494H17.052C16.9431 6.41661 16.8546 6.31392 16.7942 6.19478C16.7337 6.07563 16.7031 5.94359 16.705 5.81Z"
		fill="#E6B432"
	/>
</svg>
