<svg viewBox="0 0 36 24" fill="none" xmlns="http://www.w3.org/2000/svg">
	<path d="M36 0H0V24H36" fill="#41479B" />
	<path
		d="M24.861 11.846L23.081 11.443C22.9641 10.2726 22.4508 9.1773 21.6262 8.33852C20.8016 7.49975 19.7152 6.96787 18.547 6.831L18.152 5.018C18.1413 4.98635 18.1209 4.95886 18.0937 4.93939C18.0665 4.91993 18.0339 4.90946 18.0005 4.90946C17.9671 4.90946 17.9345 4.91993 17.9073 4.93939C17.8801 4.95886 17.8598 4.98635 17.849 5.018L17.454 6.826C16.2851 6.96357 15.1983 7.4963 14.3735 8.33597C13.5488 9.17563 13.0356 10.2718 12.919 11.443L11.139 11.846C11.1048 11.8548 11.0745 11.8747 11.0529 11.9026C11.0313 11.9304 11.0196 11.9647 11.0196 12C11.0196 12.0353 11.0313 12.0696 11.0529 12.0974C11.0745 12.1253 11.1048 12.1452 11.139 12.154L12.919 12.557C13.0359 13.7276 13.5491 14.8232 14.3736 15.6623C15.1982 16.5014 16.2846 17.0337 17.453 17.171L17.849 18.981C17.8565 19.0156 17.8756 19.0466 17.9032 19.0689C17.9307 19.0911 17.9651 19.1032 18.0005 19.1032C18.0359 19.1032 18.0703 19.0911 18.0978 19.0689C18.1254 19.0466 18.1445 19.0156 18.152 18.981L18.548 17.169C19.716 17.0319 20.8022 16.4999 21.6266 15.6612C22.451 14.8224 22.9641 13.7272 23.081 12.557L24.861 12.154C24.8952 12.1452 24.9255 12.1253 24.9471 12.0974C24.9687 12.0696 24.9804 12.0353 24.9804 12C24.9804 11.9647 24.9687 11.9304 24.9471 11.9026C24.9255 11.8747 24.8952 11.8548 24.861 11.846ZM22.767 11.372L19.371 10.604L18.617 7.151C19.6772 7.29891 20.6588 7.79292 21.4093 8.55625C22.1598 9.31957 22.6371 10.3094 22.767 11.372ZM17.383 7.151L16.628 10.605L13.234 11.372C13.3637 10.3095 13.8408 9.31968 14.5911 8.55634C15.3414 7.793 16.3229 7.29895 17.383 7.151ZM11.888 12L16.709 10.91L17.781 12H11.888ZM13.234 12.628L16.629 13.396L17.383 16.85C16.3228 16.7018 15.3413 16.2076 14.591 15.4441C13.8407 14.6806 13.3636 13.6906 13.234 12.628ZM18 18.22L16.929 13.313L18 12.223V18.22ZM18 11.777V5.78L19.071 10.687L18 11.777ZM18.618 16.846L19.371 13.396L22.767 12.628C22.637 13.6902 22.1596 14.6797 21.409 15.4425C20.6585 16.2053 19.6779 16.6987 18.618 16.846ZM19.291 13.09L18.219 12H24.112L19.291 13.09ZM10.086 12C10.0863 12.0415 10.0701 12.0814 10.0411 12.111C10.012 12.1406 9.97246 12.1575 9.931 12.158H1.241C1.1991 12.158 1.15891 12.1414 1.12928 12.1117C1.09965 12.0821 1.083 12.0419 1.083 12C1.083 11.9581 1.09965 11.9179 1.12928 11.8883C1.15891 11.8586 1.1991 11.842 1.241 11.842H9.931C9.97246 11.8425 10.012 11.8594 10.0411 11.889C10.0701 11.9186 10.0863 11.9585 10.086 12ZM34.914 12C34.9143 12.0415 34.8981 12.0814 34.8691 12.111C34.84 12.1406 34.8005 12.1575 34.759 12.158H26.069C26.0271 12.158 25.9869 12.1414 25.9573 12.1117C25.9276 12.0821 25.911 12.0419 25.911 12C25.911 11.9581 25.9276 11.9179 25.9573 11.8883C25.9869 11.8586 26.0271 11.842 26.069 11.842H34.759C34.8005 11.8425 34.84 11.8594 34.8691 11.889C34.8981 11.9186 34.9143 11.9585 34.914 12ZM17.844 3.79V1.262C17.844 1.22076 17.8604 1.18121 17.8895 1.15204C17.9187 1.12288 17.9583 1.1065 17.9995 1.1065C18.0407 1.1065 18.0803 1.12288 18.1095 1.15204C18.1386 1.18121 18.155 1.22076 18.155 1.262V3.79C18.155 3.81035 18.151 3.83051 18.1432 3.84932C18.1354 3.86812 18.124 3.88521 18.1096 3.8996C18.0952 3.91399 18.0781 3.92541 18.0593 3.9332C18.0405 3.94099 18.0204 3.945 18 3.945C17.9796 3.945 17.9595 3.94099 17.9407 3.9332C17.9219 3.92541 17.9048 3.91399 17.8904 3.8996C17.876 3.88521 17.8646 3.86812 17.8568 3.84932C17.849 3.83051 17.844 3.81035 17.844 3.79ZM18.155 20.21V22.737C18.155 22.7574 18.151 22.7775 18.1432 22.7963C18.1354 22.8151 18.124 22.8322 18.1096 22.8466C18.0952 22.861 18.0781 22.8724 18.0593 22.8802C18.0405 22.888 18.0204 22.892 18 22.892C17.9796 22.892 17.9595 22.888 17.9407 22.8802C17.9219 22.8724 17.9048 22.861 17.8904 22.8466C17.876 22.8322 17.8646 22.8151 17.8568 22.7963C17.849 22.7775 17.845 22.7574 17.845 22.737V20.21C17.845 20.1896 17.849 20.1695 17.8568 20.1507C17.8646 20.1319 17.876 20.1148 17.8904 20.1004C17.9048 20.086 17.9219 20.0746 17.9407 20.0668C17.9595 20.059 17.9796 20.055 18 20.055C18.0204 20.055 18.0405 20.059 18.0593 20.0668C18.0781 20.0746 18.0952 20.086 18.1096 20.1004C18.124 20.1148 18.1354 20.1319 18.1432 20.1507C18.151 20.1695 18.155 20.1896 18.155 20.21Z"
		fill="#F5F5F5"
	/>
</svg>
