<svg viewBox="0 0 36 24" fill="none" xmlns="http://www.w3.org/2000/svg">
	<path d="M36 24H0V0H36" fill="#FF4B55" />
	<path
		d="M15.407 10.271L0 0H6.828L15.87 9.713L15.871 9.712C15.6952 9.88011 15.5395 10.068 15.407 10.272V10.271ZM14.897 12C14.9021 11.8919 14.9128 11.784 14.929 11.677L0 10.105V13.895L14.929 12.323C14.9128 12.216 14.9021 12.1081 14.897 12ZM18 8.842C18.1617 8.84581 18.3229 8.86253 18.482 8.892L19.862 0H16.138L17.518 8.892C17.6771 8.86249 17.8383 8.84577 18 8.842ZM20.593 10.272L36 0H29.172L20.13 9.713L20.128 9.712C20.3042 9.88003 20.4602 10.068 20.593 10.272ZM20.128 14.288H20.13L29.172 24H36L20.593 13.729C20.4602 13.933 20.3042 14.12 20.128 14.288ZM21.071 12.324L36 13.893V10.104L21.07 11.677C21.0862 11.784 21.0969 11.8919 21.102 12C21.0969 12.1081 21.0862 12.216 21.07 12.323L21.071 12.324ZM18 15.158C17.8383 15.1542 17.6771 15.1375 17.518 15.108L16.138 24H19.862L18.482 15.108C18.3229 15.1375 18.1617 15.1542 18 15.158ZM15.407 13.728L0 24H6.828L15.87 14.287L15.871 14.288C15.6952 14.1199 15.5395 13.932 15.407 13.728ZM18 9.475C17.4983 9.46626 17.0054 9.60706 16.5841 9.87946C16.1627 10.1519 15.832 10.5435 15.634 11.0045C15.4361 11.4656 15.3798 11.9751 15.4724 12.4682C15.5651 12.9613 15.8024 13.4157 16.1542 13.7734C16.506 14.1312 16.9563 14.3761 17.4478 14.477C17.9393 14.5779 18.4497 14.5302 18.914 14.34C19.3783 14.1498 19.7754 13.8257 20.0549 13.4089C20.3343 12.9922 20.4833 12.5017 20.483 12C20.4886 11.3358 20.2302 10.6966 19.7645 10.2229C19.2989 9.74918 18.6642 9.47981 18 9.474V9.475Z"
		fill="#FFE15A"
	/>
</svg>
