<svg viewBox="0 0 36 24" fill="none" xmlns="http://www.w3.org/2000/svg">
	<path
		d="M35.5861 24H12V0H36V23.368C36 23.718 35.815 24 35.5861 24Z"
		fill="#FF4B55"
	/>
	<path d="M13.034 0H0V24H13.035L13.034 0Z" fill="#73AF00" />
	<path
		d="M13.04 6.32C14.1673 6.30075 15.2749 6.61743 16.2216 7.22974C17.1684 7.84205 17.9115 8.72226 18.3563 9.7583C18.8011 10.7943 18.9275 11.9393 18.7194 13.0475C18.5113 14.1556 17.9782 15.1767 17.1878 15.9808C16.3974 16.7849 15.3857 17.3356 14.2813 17.5627C13.1769 17.7899 12.0299 17.6832 10.9864 17.2563C9.94281 16.8294 9.04993 16.1015 8.4214 15.1655C7.79288 14.2294 7.45716 13.1275 7.457 12C7.44395 10.5067 8.02459 9.06941 9.07122 8.00422C10.1178 6.93903 11.5447 6.3332 13.038 6.32H13.04Z"
		fill="#FFE15A"
	/>
	<path
		d="M14.901 10.105V12.632C14.901 13.1258 14.7048 13.5994 14.3556 13.9486C14.0064 14.2978 13.5328 14.494 13.039 14.494C12.5452 14.494 12.0716 14.2978 11.7224 13.9486C11.3732 13.5994 11.177 13.1258 11.177 12.632V10.105H14.901ZM15.522 8.842H10.557C10.4747 8.84265 10.3934 8.85953 10.3176 8.89165C10.2418 8.92378 10.1731 8.97053 10.1155 9.02923C10.0578 9.08793 10.0122 9.15743 9.98144 9.23375C9.95065 9.31007 9.93521 9.39171 9.936 9.474V12.632C9.9286 13.0442 10.0034 13.4538 10.156 13.8368C10.3087 14.2199 10.5361 14.5686 10.825 14.8628C11.114 15.1569 11.4586 15.3906 11.8388 15.5501C12.219 15.7096 12.6272 15.7917 13.0395 15.7917C13.4518 15.7917 13.86 15.7096 14.2402 15.5501C14.6204 15.3906 14.965 15.1569 15.254 14.8628C15.5429 14.5686 15.7703 14.2199 15.923 13.8368C16.0756 13.4538 16.1504 13.0442 16.143 12.632V9.474C16.1438 9.39179 16.1284 9.31023 16.0977 9.23398C16.0669 9.15773 16.0215 9.08827 15.9639 9.02959C15.9063 8.9709 15.8378 8.92413 15.7621 8.89194C15.6865 8.85975 15.6042 8.84278 15.522 8.842Z"
		fill="#FF4B55"
	/>
	<path
		d="M14.901 10.105V12.632C14.901 13.1258 14.7048 13.5994 14.3556 13.9486C14.0064 14.2978 13.5328 14.494 13.039 14.494C12.5452 14.494 12.0716 14.2978 11.7224 13.9486C11.3732 13.5994 11.177 13.1258 11.177 12.632V10.105H14.901Z"
		fill="#F5F5F5"
	/>
	<path
		d="M10.862 9.474C10.8608 9.53504 10.8416 9.59438 10.8069 9.64456C10.7721 9.69475 10.7233 9.73354 10.6665 9.75609C10.6098 9.77864 10.5477 9.78392 10.4879 9.77129C10.4282 9.75866 10.3735 9.72868 10.3308 9.68509C10.288 9.64151 10.2591 9.58627 10.2476 9.52631C10.2361 9.46634 10.2426 9.40432 10.2662 9.34802C10.2898 9.29173 10.3296 9.24366 10.3804 9.20986C10.4313 9.17605 10.4909 9.15801 10.552 9.158C10.5931 9.15839 10.6337 9.16688 10.6716 9.18297C10.7094 9.19906 10.7437 9.22245 10.7725 9.25179C10.8012 9.28114 10.824 9.31586 10.8393 9.35399C10.8547 9.39212 10.8624 9.4329 10.862 9.474ZM15.517 9.79C15.5797 9.79119 15.6414 9.77368 15.6942 9.73969C15.7469 9.7057 15.7883 9.65677 15.8132 9.59914C15.838 9.54152 15.8451 9.4778 15.8336 9.41611C15.8221 9.35442 15.7925 9.29756 15.7486 9.25276C15.7046 9.20797 15.6483 9.17727 15.5869 9.16458C15.5254 9.1519 15.4616 9.15779 15.4035 9.18152C15.3454 9.20526 15.2957 9.24574 15.2607 9.29783C15.2257 9.34992 15.207 9.41125 15.207 9.474C15.2066 9.5151 15.2143 9.55588 15.2297 9.59401C15.245 9.63214 15.2678 9.66686 15.2965 9.69621C15.3253 9.72555 15.3596 9.74894 15.3974 9.76503C15.4353 9.78112 15.4759 9.78961 15.517 9.79ZM10.552 11.684C10.4893 11.6828 10.4276 11.7003 10.3748 11.7343C10.3221 11.7683 10.2807 11.8172 10.2558 11.8749C10.231 11.9325 10.2239 11.9962 10.2354 12.0579C10.2469 12.1196 10.2765 12.1764 10.3204 12.2212C10.3644 12.266 10.4207 12.2967 10.4821 12.3094C10.5436 12.3221 10.6074 12.3162 10.6655 12.2925C10.7236 12.2687 10.7733 12.2283 10.8083 12.1762C10.8433 12.1241 10.862 12.0628 10.862 12C10.8624 11.9589 10.8547 11.9181 10.8393 11.88C10.824 11.8419 10.8012 11.8071 10.7725 11.7778C10.7437 11.7484 10.7094 11.7251 10.6716 11.709C10.6337 11.6929 10.5931 11.6844 10.552 11.684ZM15.517 11.684C15.4543 11.6828 15.3926 11.7003 15.3398 11.7343C15.2871 11.7683 15.2457 11.8172 15.2208 11.8749C15.196 11.9325 15.1889 11.9962 15.2004 12.0579C15.2119 12.1196 15.2415 12.1764 15.2854 12.2212C15.3294 12.266 15.3857 12.2967 15.4471 12.3094C15.5086 12.3221 15.5724 12.3162 15.6305 12.2925C15.6886 12.2687 15.7383 12.2283 15.7733 12.1762C15.8083 12.1241 15.827 12.0628 15.827 12C15.8274 11.9589 15.8197 11.9181 15.8043 11.88C15.789 11.8419 15.7662 11.8071 15.7374 11.7778C15.7087 11.7484 15.6744 11.7251 15.6366 11.709C15.5987 11.6929 15.5581 11.6844 15.517 11.684ZM13.035 9.158C12.9723 9.15681 12.9106 9.17432 12.8578 9.20831C12.8051 9.2423 12.7637 9.29123 12.7388 9.34886C12.714 9.40648 12.7069 9.4702 12.7184 9.53189C12.7299 9.59358 12.7595 9.65044 12.8034 9.69524C12.8474 9.74003 12.9037 9.77073 12.9651 9.78342C13.0266 9.7961 13.0904 9.79021 13.1485 9.76648C13.2066 9.74274 13.2563 9.70226 13.2913 9.65017C13.3263 9.59808 13.345 9.53675 13.345 9.474C13.3454 9.4329 13.3377 9.39212 13.3223 9.35399C13.307 9.31586 13.2842 9.28114 13.2554 9.25179C13.2267 9.22245 13.1924 9.19906 13.1546 9.18297C13.1167 9.16688 13.0761 9.15839 13.035 9.158ZM14.898 14.013C14.8353 14.0118 14.7736 14.0293 14.7208 14.0633C14.6681 14.0973 14.6267 14.1462 14.6018 14.2039C14.577 14.2615 14.5699 14.3252 14.5814 14.3869C14.5929 14.4486 14.6225 14.5054 14.6664 14.5502C14.7104 14.595 14.7667 14.6257 14.8281 14.6384C14.8896 14.6511 14.9534 14.6452 15.0115 14.6215C15.0696 14.5977 15.1193 14.5573 15.1543 14.5052C15.1893 14.4531 15.208 14.3918 15.208 14.329C15.2084 14.2879 15.2007 14.2471 15.1853 14.209C15.17 14.1709 15.1472 14.1361 15.1185 14.1068C15.0897 14.0774 15.0554 14.0541 15.0176 14.038C14.9797 14.0219 14.9391 14.0134 14.898 14.013ZM11.208 14.013C11.1453 14.0118 11.0836 14.0293 11.0308 14.0633C10.9781 14.0973 10.9367 14.1462 10.9118 14.2039C10.887 14.2615 10.8799 14.3252 10.8914 14.3869C10.9029 14.4486 10.9325 14.5054 10.9764 14.5502C11.0204 14.595 11.0767 14.6257 11.1381 14.6384C11.1996 14.6511 11.2634 14.6452 11.3215 14.6215C11.3796 14.5977 11.4293 14.5573 11.4643 14.5052C11.4993 14.4531 11.518 14.3918 11.518 14.329C11.5184 14.2879 11.5107 14.2471 11.4953 14.209C11.48 14.1709 11.4572 14.1361 11.4284 14.1068C11.3997 14.0774 11.3654 14.0541 11.3276 14.038C11.2897 14.0219 11.2491 14.0134 11.208 14.013Z"
		fill="#FFE15A"
	/>
	<path
		d="M12.638 11.84H13.44V12.384C13.44 12.4904 13.3978 12.5923 13.3225 12.6676C13.2473 12.7428 13.1454 12.785 13.039 12.785C12.9326 12.785 12.8307 12.7428 12.7555 12.6676C12.6802 12.5923 12.638 12.4904 12.638 12.384V11.84ZM12.638 11.094C12.638 11.2004 12.6802 11.3023 12.7555 11.3776C12.8307 11.4528 12.9326 11.495 13.039 11.495C13.1454 11.495 13.2473 11.4528 13.3225 11.3776C13.3978 11.3023 13.44 11.2004 13.44 11.094V10.551H12.638V11.094ZM12.638 13.686C12.638 13.7924 12.6802 13.8943 12.7555 13.9696C12.8307 14.0448 12.9326 14.087 13.039 14.087C13.1454 14.087 13.2473 14.0448 13.3225 13.9696C13.3978 13.8943 13.44 13.7924 13.44 13.686V13.143H12.638V13.686ZM13.718 11.84V12.384C13.718 12.4904 13.7602 12.5923 13.8355 12.6676C13.9107 12.7428 14.0126 12.785 14.119 12.785C14.2254 12.785 14.3273 12.7428 14.4025 12.6676C14.4778 12.5923 14.52 12.4904 14.52 12.384V11.84H13.718ZM11.558 12.384C11.558 12.4904 11.6002 12.5923 11.6755 12.6676C11.7507 12.7428 11.8526 12.785 11.959 12.785C12.0654 12.785 12.1673 12.7428 12.2425 12.6676C12.3178 12.5923 12.36 12.4904 12.36 12.384V11.84H11.559L11.558 12.384Z"
		fill="#41479B"
	/>
</svg>
