<svg viewBox="0 0 36 24" fill="none" xmlns="http://www.w3.org/2000/svg">
	<path d="M36 12H0V0H36V12Z" fill="#F5F5F5" />
	<path d="M0 12H36V24H0V12Z" fill="#82AFFF" />
	<path
		d="M21.898 15.28C21.4191 15.8349 20.8326 16.2868 20.1739 16.6082C19.5152 16.9297 18.7981 17.114 18.066 17.15L18.062 17.059L18.058 17.149C17.3258 17.1131 16.6085 16.9289 15.9496 16.6074C15.2907 16.286 14.704 15.834 14.225 15.279C13.8545 14.6886 13.6233 14.0216 13.5488 13.3286C13.4743 12.6356 13.5585 11.9347 13.795 11.279L13.973 11.329C13.7445 11.9576 13.6618 12.6298 13.7311 13.295C13.8004 13.9602 14.0199 14.601 14.373 15.169C14.8381 15.6973 15.4035 16.1279 16.0365 16.4357C16.6694 16.7435 17.3573 16.9224 18.06 16.962C18.7632 16.9222 19.4515 16.7432 20.085 16.4352C20.7184 16.1272 21.2844 15.6965 21.75 15.168C22.103 14.6001 22.3223 13.9595 22.3916 13.2945C22.4609 12.6295 22.3783 11.9574 22.15 11.329L22.328 11.279C22.5645 11.9347 22.6487 12.6356 22.5742 13.3286C22.4997 14.0216 22.2685 14.6896 21.898 15.28ZM18.144 17.514L18.137 17.505L18.127 17.491L18.11 17.478L18.103 17.472L18.097 17.471C18.0906 17.4682 18.0839 17.4662 18.077 17.465L18.062 17.463C18.0559 17.4634 18.0499 17.4644 18.044 17.466L18.026 17.471L18.02 17.472L18.012 17.479L17.997 17.491L17.987 17.505L17.979 17.515L17.488 18.515C17.477 18.5369 17.4751 18.5623 17.4826 18.5856C17.49 18.609 17.5063 18.6285 17.528 18.64C17.541 18.6467 17.5554 18.6502 17.57 18.65C17.5871 18.6499 17.6037 18.6451 17.6182 18.6361C17.6327 18.6271 17.6444 18.6143 17.652 18.599L18.062 17.766L18.471 18.599C18.4786 18.6143 18.4903 18.6271 18.5048 18.6361C18.5193 18.6451 18.5359 18.6499 18.553 18.65C18.5673 18.65 18.5813 18.6466 18.594 18.64C18.616 18.6288 18.6327 18.6095 18.6406 18.5861C18.6485 18.5627 18.6468 18.5372 18.636 18.515L18.144 17.514Z"
		fill="#B46446"
	/>
	<path
		d="M13.84 11.473C13.7666 11.3318 13.7244 11.1765 13.7163 11.0176C13.7082 10.8587 13.7344 10.6999 13.793 10.552C13.8457 10.403 13.9304 10.2673 14.0411 10.1545C14.1519 10.0417 14.286 9.95447 14.434 9.899C14.5075 10.0403 14.5498 10.1958 14.5579 10.3549C14.566 10.514 14.5398 10.6729 14.481 10.821C14.4282 10.9697 14.3436 11.1051 14.233 11.2177C14.1225 11.3303 13.9877 11.4175 13.84 11.473ZM15.906 15.645C15.8629 15.5087 15.7906 15.3835 15.694 15.2781C15.5975 15.1727 15.479 15.0898 15.347 15.035C15.2766 15.1603 15.2338 15.2992 15.2218 15.4424C15.2097 15.5856 15.2285 15.7297 15.277 15.865C15.3181 15.9923 15.3847 16.11 15.4727 16.2107C15.5607 16.3115 15.6683 16.3932 15.789 16.451C15.6714 16.39 15.5424 16.3541 15.4102 16.3455C15.2781 16.3369 15.1455 16.3558 15.021 16.401C14.8855 16.4463 14.7616 16.5207 14.6579 16.619C14.5542 16.7173 14.4734 16.8371 14.421 16.97C14.5433 17.0419 14.6801 17.0856 14.8214 17.0981C14.9627 17.1105 15.105 17.0914 15.238 17.042C15.3734 16.9965 15.4972 16.9219 15.6007 16.8234C15.7042 16.7249 15.7848 16.605 15.837 16.472C15.907 16.3471 15.9495 16.2087 15.9616 16.0661C15.9736 15.9234 15.954 15.7799 15.906 15.645ZM14.743 15.727C14.8524 15.6351 14.9416 15.5215 15.005 15.3935C15.0684 15.2654 15.1047 15.1257 15.1115 14.9829C15.1184 14.8402 15.0957 14.6976 15.0448 14.5641C14.994 14.4306 14.9161 14.309 14.816 14.207C14.7095 14.2958 14.6219 14.4051 14.5585 14.5284C14.4951 14.6517 14.4572 14.7866 14.447 14.9249C14.4368 15.0632 14.4546 15.2021 14.4993 15.3334C14.544 15.4647 14.6146 15.5856 14.707 15.689C14.6168 15.5856 14.5062 15.502 14.382 15.4436C14.2579 15.3852 14.123 15.3532 13.9858 15.3496C13.8487 15.346 13.7123 15.371 13.5853 15.4228C13.4583 15.4747 13.3434 15.5524 13.248 15.651C13.336 15.7621 13.4466 15.8531 13.5725 15.918C13.6985 15.9829 13.8368 16.0202 13.9783 16.0274C14.1198 16.0346 14.2612 16.0116 14.3931 15.9597C14.5249 15.9079 14.6442 15.8286 14.743 15.727ZM13.955 14.654C14.0912 14.6134 14.217 14.5434 14.3234 14.4491C14.4298 14.3548 14.5143 14.2384 14.571 14.108C14.6331 13.9784 14.6666 13.8369 14.6692 13.6931C14.6718 13.5494 14.6434 13.4068 14.586 13.275C14.4494 13.3154 14.3233 13.3852 14.2165 13.4795C14.1097 13.5738 14.0249 13.6904 13.968 13.821C13.9106 13.9428 13.8782 14.0748 13.8727 14.2093C13.8672 14.3437 13.8887 14.478 13.936 14.604C13.8935 14.4772 13.8257 14.3604 13.7367 14.2607C13.6476 14.161 13.5392 14.0805 13.418 14.024C13.291 13.9608 13.1515 13.9267 13.0097 13.9241C12.8679 13.9215 12.7272 13.9505 12.598 14.009C12.6364 14.1468 12.7045 14.2746 12.7974 14.3834C12.8903 14.4923 13.0059 14.5795 13.136 14.639C13.263 14.7022 13.4025 14.7364 13.5443 14.739C13.6861 14.7416 13.8268 14.7126 13.956 14.654H13.955ZM13.653 13.418C13.7941 13.4283 13.9358 13.4072 14.0679 13.3564C14.1999 13.3056 14.3192 13.2262 14.417 13.124C14.5198 13.024 14.5998 12.903 14.6516 12.7692C14.7034 12.6355 14.7257 12.4922 14.717 12.349C14.5754 12.3382 14.4333 12.3588 14.3006 12.4095C14.168 12.4601 14.0483 12.5395 13.95 12.642C13.8544 12.7362 13.7788 12.8487 13.7276 12.9727C13.6764 13.0967 13.6507 13.2298 13.652 13.364C13.6554 13.2298 13.6318 13.0962 13.5825 12.9713C13.5332 12.8464 13.4592 12.7327 13.365 12.637C13.2681 12.5332 13.1495 12.452 13.0176 12.3995C12.8857 12.3469 12.7437 12.3242 12.602 12.333C12.591 12.4761 12.6111 12.6198 12.6608 12.7545C12.7105 12.8891 12.7887 13.0114 12.89 13.113C12.9867 13.2171 13.1053 13.2984 13.2373 13.3512C13.3692 13.4039 13.5112 13.4267 13.653 13.418ZM13.678 12.343C13.8151 12.377 13.9579 12.3803 14.0964 12.3526C14.2349 12.325 14.3655 12.2671 14.479 12.183C14.597 12.1013 14.6958 11.995 14.7687 11.8714C14.8415 11.7478 14.8867 11.6098 14.901 11.467C14.7635 11.4325 14.62 11.4289 14.481 11.4566C14.342 11.4842 14.2108 11.5424 14.097 11.627C13.9873 11.704 13.8943 11.8025 13.8237 11.9165C13.753 12.0304 13.7062 12.1575 13.686 12.29C13.7111 12.1579 13.7094 12.0222 13.6811 11.8908C13.6528 11.7594 13.5983 11.635 13.521 11.525C13.4427 11.406 13.3391 11.3058 13.2175 11.2315C13.096 11.1571 12.9596 11.1105 12.818 11.095C12.7838 11.2348 12.7802 11.3803 12.8073 11.5216C12.8343 11.6629 12.8916 11.7968 12.975 11.914C13.0534 12.0328 13.1571 12.1328 13.2786 12.207C13.4001 12.2811 13.5365 12.3276 13.678 12.343ZM22.283 11.473C22.3564 11.3318 22.3986 11.1765 22.4067 11.0176C22.4148 10.8587 22.3886 10.6999 22.33 10.552C22.2774 10.4031 22.1928 10.2675 22.0823 10.1546C21.9717 10.0418 21.8378 9.95459 21.69 9.899C21.6163 10.0402 21.5739 10.1957 21.5656 10.3548C21.5573 10.5139 21.5834 10.6729 21.642 10.821C21.6949 10.9698 21.7797 11.1053 21.8904 11.2179C22.0011 11.3305 22.1351 11.4176 22.283 11.473ZM21.103 16.401C20.9782 16.3555 20.8453 16.3364 20.7127 16.345C20.5802 16.3537 20.4509 16.3897 20.333 16.451C20.4538 16.3934 20.5615 16.3119 20.6497 16.2113C20.7379 16.1107 20.8047 15.9932 20.846 15.866C20.8945 15.7307 20.9133 15.5866 20.9012 15.4434C20.8892 15.3002 20.8464 15.1613 20.776 15.036C20.6439 15.0905 20.5253 15.1733 20.4286 15.2785C20.3318 15.3837 20.2593 15.5088 20.216 15.645C20.1679 15.78 20.1492 15.9238 20.1613 16.0666C20.1734 16.2094 20.2159 16.348 20.286 16.473C20.3384 16.6059 20.4192 16.7257 20.5229 16.824C20.6266 16.9223 20.7505 16.9967 20.886 17.042C21.0187 17.0911 21.1607 17.11 21.3016 17.0976C21.4425 17.0851 21.5789 17.0416 21.701 16.97C21.6488 16.837 21.5682 16.7171 21.4647 16.6186C21.3612 16.5201 21.2374 16.4455 21.102 16.4L21.103 16.401ZM21.416 15.689C21.5082 15.5856 21.5788 15.4647 21.6233 15.3336C21.6679 15.2024 21.6856 15.0636 21.6755 14.9254C21.6653 14.7872 21.6274 14.6525 21.5641 14.5293C21.5008 14.406 21.4134 14.2968 21.307 14.208C21.2069 14.31 21.129 14.4316 21.0782 14.5651C21.0273 14.6986 21.0046 14.8412 21.0115 14.9839C21.0183 15.1267 21.0546 15.2664 21.118 15.3945C21.1814 15.5225 21.2706 15.6361 21.38 15.728C21.4788 15.8295 21.5982 15.9088 21.7301 15.9605C21.862 16.0123 22.0034 16.0352 22.1449 16.028C22.2864 16.0207 22.4248 15.9833 22.5506 15.9183C22.6765 15.8533 22.7871 15.7621 22.875 15.651C22.7796 15.5524 22.6647 15.4747 22.5377 15.4228C22.4107 15.371 22.2743 15.346 22.1372 15.3496C22 15.3532 21.8651 15.3852 21.741 15.4436C21.6168 15.502 21.5062 15.5856 21.416 15.689ZM22.706 14.024C22.5846 14.0804 22.476 14.1608 22.3868 14.2606C22.2976 14.3603 22.2296 14.4771 22.187 14.604C22.2343 14.478 22.2558 14.3437 22.2503 14.2093C22.2448 14.0748 22.2124 13.9428 22.155 13.821C22.0981 13.6904 22.0133 13.5738 21.9065 13.4795C21.7997 13.3852 21.6736 13.3154 21.537 13.275C21.4796 13.4068 21.4512 13.5494 21.4538 13.6931C21.4564 13.8369 21.4899 13.9784 21.552 14.108C21.6087 14.2384 21.6932 14.3548 21.7996 14.4491C21.906 14.5434 22.0317 14.6134 22.168 14.654C22.2972 14.7123 22.4376 14.741 22.5793 14.7383C22.721 14.7355 22.8602 14.7013 22.987 14.638C23.1168 14.5785 23.2321 14.4914 23.3249 14.3827C23.4176 14.2741 23.4856 14.1466 23.524 14.009C23.3949 13.9507 23.2545 13.9217 23.1128 13.9243C22.9712 13.9269 22.8329 13.961 22.706 14.024ZM22.471 13.364C22.4724 13.2299 22.4469 13.0969 22.3959 12.9728C22.3448 12.8488 22.2694 12.7363 22.174 12.642C22.0757 12.5395 21.956 12.4601 21.8234 12.4095C21.6907 12.3588 21.5486 12.3382 21.407 12.349C21.3983 12.4922 21.4206 12.6355 21.4724 12.7692C21.5242 12.903 21.6042 13.024 21.707 13.124C21.8048 13.2259 21.9239 13.305 22.0558 13.3557C22.1877 13.4063 22.3291 13.4272 22.47 13.417C22.6117 13.4259 22.7537 13.4032 22.8856 13.3506C23.0175 13.2981 23.1362 13.2169 23.233 13.113C23.3343 13.0114 23.4125 12.8891 23.4622 12.7545C23.5119 12.6198 23.532 12.4761 23.521 12.333C23.3793 12.3242 23.2373 12.3469 23.1054 12.3995C22.9735 12.452 22.8549 12.5332 22.758 12.637C22.6637 12.7328 22.5896 12.8467 22.5403 12.9718C22.491 13.0968 22.4674 13.2296 22.471 13.364ZM21.644 12.182C21.7575 12.2661 21.8881 12.324 22.0266 12.3516C22.1651 12.3793 22.3079 12.376 22.445 12.342C22.5864 12.3267 22.7227 12.2804 22.8443 12.2064C22.9658 12.1325 23.0695 12.0326 23.148 11.914C23.2313 11.7969 23.2884 11.6632 23.3155 11.5221C23.3426 11.3809 23.339 11.2356 23.305 11.096C23.1635 11.1114 23.0271 11.1579 22.9056 11.232C22.7841 11.3062 22.6804 11.4062 22.602 11.525C22.5247 11.635 22.4702 11.7594 22.4419 11.8908C22.4136 12.0222 22.4119 12.1579 22.437 12.29C22.4169 12.1575 22.3702 12.0305 22.2998 11.9166C22.2293 11.8026 22.1365 11.7041 22.027 11.627C21.9131 11.5423 21.7818 11.484 21.6425 11.4563C21.5033 11.4286 21.3596 11.4323 21.222 11.467C21.2364 11.6096 21.2817 11.7474 21.3545 11.8708C21.4274 11.9943 21.5261 12.1004 21.644 12.182Z"
		fill="#41AA5A"
	/>
	<path
		d="M19.142 10.587H16.94C16.7755 10.5883 16.6129 10.622 16.4614 10.6862C16.3099 10.7504 16.1726 10.8438 16.0573 10.9611C15.9419 11.0784 15.8508 11.2173 15.7892 11.3698C15.7275 11.5223 15.6965 11.6855 15.698 11.85V13.824C15.6965 13.9885 15.7275 14.1517 15.7892 14.3042C15.8508 14.4567 15.9419 14.5956 16.0573 14.7129C16.1726 14.8302 16.3099 14.9236 16.4614 14.9878C16.6129 15.052 16.7755 15.0857 16.94 15.087H19.142C19.3065 15.0857 19.4691 15.052 19.6206 14.9878C19.7721 14.9236 19.9094 14.8302 20.0247 14.7129C20.1401 14.5956 20.2312 14.4567 20.2928 14.3042C20.3545 14.1517 20.3855 13.9885 20.384 13.824V11.85C20.3855 11.6855 20.3545 11.5223 20.2928 11.3698C20.2312 11.2173 20.1401 11.0784 20.0247 10.9611C19.9094 10.8438 19.7721 10.7504 19.6206 10.6862C19.4691 10.622 19.3065 10.5883 19.142 10.587Z"
		fill="#8CD7FF"
	/>
	<path
		d="M18.404 12.305H18.553V12.805L18.43 12.963V14.805H17.693V12.963L17.57 12.805V12.305H17.724V12.555H17.97V12.305H18.159V12.555H18.404V12.305ZM18.097 11.513C18.219 11.453 18.251 11.706 18.251 11.706C18.2926 11.6898 18.3299 11.6643 18.36 11.6314C18.3901 11.5985 18.4122 11.559 18.4246 11.5162C18.437 11.4733 18.4393 11.4282 18.4314 11.3843C18.4235 11.3403 18.4056 11.2988 18.379 11.263C18.342 11.2216 18.295 11.1902 18.2425 11.1719C18.19 11.1536 18.1338 11.1489 18.079 11.1583C18.0242 11.1677 17.9727 11.1908 17.9293 11.2256C17.8859 11.2604 17.8521 11.3056 17.831 11.357C17.693 11.638 18.067 12.195 18.067 12.195C18.087 12.023 17.939 11.591 18.097 11.513ZM19.667 12.771V13.021H19.422V12.771H19.232V13.021H18.987V12.771H18.833V13.271L18.956 13.43V15.272H19.694V13.43L19.816 13.271V12.771H19.667ZM19.361 11.979C19.482 11.919 19.514 12.172 19.514 12.172C19.5556 12.1558 19.5929 12.1303 19.623 12.0974C19.6531 12.0645 19.6752 12.025 19.6876 11.9822C19.7 11.9393 19.7023 11.8942 19.6944 11.8503C19.6865 11.8063 19.6686 11.7648 19.642 11.729C19.6049 11.6878 19.558 11.6566 19.5057 11.6385C19.4533 11.6203 19.3972 11.6157 19.3426 11.6251C19.2879 11.6345 19.2366 11.6575 19.1933 11.6921C19.15 11.7268 19.1162 11.7718 19.095 11.823C18.956 12.104 19.33 12.662 19.33 12.662C19.35 12.49 19.203 12.057 19.361 11.979ZM17.141 13.021H16.895V12.771H16.706V13.021H16.46V12.771H16.307V13.271L16.43 13.43V15.272H17.167V13.43L17.29 13.271V12.771H17.141V13.021ZM16.834 11.979C16.956 11.919 16.988 12.172 16.988 12.172C17.0296 12.1558 17.0669 12.1303 17.097 12.0974C17.1271 12.0645 17.1492 12.025 17.1616 11.9822C17.174 11.9393 17.1763 11.8942 17.1684 11.8503C17.1605 11.8063 17.1426 11.7648 17.116 11.729C17.079 11.6876 17.032 11.6562 16.9795 11.6379C16.927 11.6196 16.8708 11.6149 16.816 11.6243C16.7612 11.6337 16.7097 11.6568 16.6663 11.6916C16.6229 11.7264 16.5891 11.7716 16.568 11.823C16.43 12.104 16.803 12.662 16.803 12.662C16.823 12.49 16.675 12.057 16.834 11.979Z"
		fill="#F5F5F5"
	/>
	<path
		d="M20.078 14.939C19.905 14.8483 19.7119 14.8026 19.5166 14.8059C19.3212 14.8092 19.1299 14.8615 18.96 14.958C18.8471 14.8314 18.7086 14.7301 18.5538 14.6607C18.3989 14.5913 18.2312 14.5554 18.0615 14.5554C17.8918 14.5554 17.7241 14.5913 17.5692 14.6607C17.4144 14.7301 17.2759 14.8314 17.163 14.958C16.9932 14.8614 16.8019 14.8089 16.6066 14.8054C16.4112 14.8019 16.2181 14.8475 16.045 14.938C16.4669 15.8461 17.1756 16.5903 18.062 17.056C18.9478 16.5903 19.6562 15.8465 20.078 14.939Z"
		fill="#6EC86E"
	/>
	<path
		d="M20.419 7.623C20.35 7.217 19.836 7.147 19.244 7.108C19.0843 7.10598 18.9268 7.07091 18.7814 7.00499C18.636 6.93907 18.5058 6.84374 18.399 6.725H17.724C17.6172 6.84374 17.487 6.93907 17.3416 7.00499C17.1962 7.07091 17.0387 7.10598 16.879 7.108C16.287 7.148 15.773 7.218 15.704 7.624C15.634 8.03 16.142 8.671 16.142 8.671L16.587 8.304C16.587 8.304 16.042 7.772 16.31 7.577C16.576 7.384 17.35 7.517 17.694 7.054C17.6771 7.17762 17.6943 7.30353 17.744 7.418C17.813 7.62246 17.8375 7.83929 17.816 8.054H18.307C18.2854 7.83929 18.31 7.62245 18.379 7.418C18.4288 7.30355 18.4461 7.17762 18.429 7.054C18.773 7.518 19.547 7.384 19.813 7.577C20.081 7.772 19.536 8.304 19.536 8.304L19.981 8.671C19.981 8.671 20.488 8.03 20.419 7.623ZM17.805 5.57H17.939V5.929C17.9375 5.94602 17.9395 5.96317 17.9449 5.97936C17.9504 5.99555 17.9592 6.01043 17.9707 6.02304C17.9822 6.03566 17.9962 6.04573 18.0119 6.05263C18.0275 6.05952 18.0444 6.06308 18.0615 6.06308C18.0786 6.06308 18.0955 6.05952 18.1111 6.05263C18.1268 6.04573 18.1408 6.03566 18.1523 6.02304C18.1638 6.01043 18.1726 5.99555 18.1781 5.97936C18.1835 5.96317 18.1855 5.94602 18.184 5.929V5.569H18.312C18.3452 5.569 18.3769 5.55583 18.4004 5.53239C18.4238 5.50895 18.437 5.47715 18.437 5.444C18.437 5.41085 18.4238 5.37905 18.4004 5.35561C18.3769 5.33217 18.3452 5.319 18.312 5.319H18.184V5.179C18.1855 5.16198 18.1835 5.14483 18.1781 5.12864C18.1726 5.11245 18.1638 5.09757 18.1523 5.08496C18.1408 5.07234 18.1268 5.06227 18.1111 5.05537C18.0955 5.04848 18.0786 5.04492 18.0615 5.04492C18.0444 5.04492 18.0275 5.04848 18.0119 5.05537C17.9962 5.06227 17.9822 5.07234 17.9707 5.08496C17.9592 5.09757 17.9504 5.11245 17.9449 5.12864C17.9395 5.14483 17.9375 5.16198 17.939 5.179V5.319H17.805C17.7718 5.319 17.7401 5.33217 17.7166 5.35561C17.6932 5.37905 17.68 5.41085 17.68 5.444C17.68 5.47715 17.6932 5.50895 17.7166 5.53239C17.7401 5.55583 17.7718 5.569 17.805 5.569V5.57Z"
		fill="#FFE15A"
	/>
	<path
		d="M18.061 5.803C18.1106 5.80221 18.1593 5.81619 18.201 5.84317C18.2426 5.87016 18.2753 5.90892 18.2948 5.95452C18.3143 6.00013 18.3199 6.05052 18.3107 6.09927C18.3015 6.14803 18.278 6.19295 18.2432 6.22831C18.2084 6.26368 18.1639 6.28789 18.1153 6.29786C18.0667 6.30784 18.0162 6.30313 17.9703 6.28433C17.9244 6.26553 17.8851 6.23349 17.8574 6.1923C17.8298 6.1511 17.815 6.10261 17.815 6.053C17.8147 6.02043 17.8209 5.98813 17.8331 5.95794C17.8453 5.92775 17.8634 5.90026 17.8862 5.87705C17.9091 5.85383 17.9363 5.83535 17.9662 5.82264C17.9962 5.80994 18.0284 5.80326 18.061 5.803Z"
		fill="#FFF0E1"
	/>
	<path
		d="M19.816 8.546C19.85 8.4125 19.842 8.27176 19.793 8.143C19.649 8.144 19.5111 8.20145 19.409 8.303C19.4175 8.16806 19.3938 8.03303 19.34 7.909C19.2635 7.91211 19.1887 7.93275 19.1214 7.96934C19.0542 8.00592 18.9962 8.05747 18.952 8.12C18.9531 8.0333 18.9352 7.94742 18.8994 7.86844C18.8636 7.78947 18.8109 7.71933 18.745 7.663C18.6661 7.69367 18.5952 7.74209 18.538 7.80452C18.4808 7.86695 18.4387 7.9417 18.415 8.023C18.3967 7.92263 18.3553 7.8279 18.294 7.74632C18.2327 7.66474 18.1533 7.59855 18.062 7.553C17.9705 7.59843 17.8909 7.66457 17.8294 7.74616C17.768 7.82774 17.7264 7.92253 17.708 8.023C17.6843 7.9417 17.6422 7.86695 17.585 7.80452C17.5278 7.74209 17.4569 7.69367 17.378 7.663C17.3121 7.71933 17.2594 7.78947 17.2236 7.86844C17.1878 7.94742 17.1699 8.0333 17.171 8.12C17.1268 8.05747 17.0688 8.00592 17.0016 7.96934C16.9343 7.93275 16.8595 7.91211 16.783 7.909C16.7287 8.03325 16.7047 8.16865 16.713 8.304C16.6111 8.20269 16.4737 8.14526 16.33 8.144C16.2812 8.27246 16.2732 8.41282 16.307 8.546C16.1509 8.5002 15.9832 8.51557 15.838 8.589C16.0331 8.6627 16.2093 8.77883 16.354 8.929H19.769C19.9137 8.7788 20.0899 8.66267 20.285 8.589C20.1398 8.51548 19.9721 8.5001 19.816 8.546Z"
		fill="#FFC75A"
	/>
	<path
		d="M19.769 8.929C19.7077 9.09513 19.6202 9.25042 19.51 9.389C19.03 9.45617 18.5465 9.49591 18.062 9.508C17.575 9.49579 17.0892 9.45505 16.607 9.386C16.4992 9.2479 16.4138 9.09367 16.354 8.929C16.354 8.609 17.119 8.349 18.061 8.349C19.004 8.349 19.769 8.609 19.769 8.929Z"
		fill="#FFE15A"
	/>
	<path
		d="M18.062 17.306C17.0597 16.8581 16.2173 16.116 15.6467 15.1781C15.0761 14.2402 14.8041 13.151 14.867 12.055C15.062 10.268 16.029 9.901 16.421 9.825C16.436 9.821 16.451 9.819 16.468 9.816C16.5077 9.80951 16.5478 9.8055 16.588 9.804C16.7268 9.80004 16.863 9.84313 16.9742 9.92628C17.0855 10.0094 17.1654 10.1277 17.201 10.262L18.061 10.554L17.186 10.851C17.142 10.9583 17.0642 11.0484 16.9644 11.1076C16.8646 11.1667 16.7483 11.1918 16.633 11.179C16.5163 11.1742 16.4023 11.1424 16.3 11.086C14.58 14.346 18.06 17.055 18.062 17.056C18.063 17.055 21.542 14.346 19.823 11.086C19.7207 11.1424 19.6067 11.1742 19.49 11.179C19.3747 11.1918 19.2584 11.1667 19.1586 11.1076C19.0588 11.0484 18.981 10.9583 18.937 10.851L18.061 10.554L18.922 10.262C18.9576 10.1276 19.0377 10.0091 19.1492 9.92596C19.2606 9.8428 19.397 9.79982 19.536 9.804C19.5762 9.8055 19.6163 9.80951 19.656 9.816L19.703 9.825C20.094 9.901 21.061 10.268 21.257 12.055C21.3199 13.151 21.0479 14.2402 20.4773 15.1781C19.9067 16.116 19.0643 16.8581 18.062 17.306ZM18.062 9.804C18.876 9.804 19.536 9.58 19.536 9.304C19.536 9.028 18.876 8.804 18.061 8.804C17.246 8.804 16.586 9.028 16.586 9.304C16.586 9.58 17.247 9.804 18.062 9.804ZM17.823 6.772C17.8464 6.81476 17.881 6.85043 17.9229 6.87527C17.9649 6.90012 18.0127 6.91323 18.0615 6.91323C18.1103 6.91323 18.1581 6.90012 18.2001 6.87527C18.242 6.85043 18.2766 6.81476 18.3 6.772C18.476 6.905 18.63 6.702 18.63 6.702C18.6048 6.70615 18.5789 6.70485 18.5542 6.69818C18.5296 6.6915 18.5066 6.67962 18.4869 6.66332C18.4672 6.64702 18.4512 6.62669 18.44 6.60369C18.4288 6.58069 18.4227 6.55557 18.422 6.53C18.422 6.366 18.302 6.157 18.062 6.303C17.821 6.157 17.701 6.366 17.701 6.53C17.7003 6.55557 17.6942 6.58069 17.683 6.60369C17.6718 6.62669 17.6558 6.64702 17.6361 6.66332C17.6164 6.67962 17.5934 6.6915 17.5688 6.69818C17.5441 6.70485 17.5182 6.70615 17.493 6.702C17.493 6.702 17.647 6.905 17.823 6.772Z"
		fill="#FFC75A"
	/>
	<path
		d="M16.049 16.439C16.0482 16.4768 16.0363 16.5135 16.0147 16.5446C15.9931 16.5756 15.9629 16.5996 15.9277 16.6135C15.8926 16.6274 15.8541 16.6307 15.8172 16.6228C15.7802 16.615 15.7463 16.5964 15.7199 16.5694C15.6934 16.5424 15.6755 16.5081 15.6684 16.471C15.6614 16.4339 15.6654 16.3955 15.68 16.3606C15.6947 16.3258 15.7193 16.296 15.7508 16.2751C15.7822 16.2542 15.8192 16.243 15.857 16.243C15.8825 16.2433 15.9077 16.2485 15.9311 16.2585C15.9545 16.2685 15.9758 16.283 15.9936 16.3012C16.0114 16.3194 16.0255 16.341 16.035 16.3646C16.0445 16.3882 16.0493 16.4135 16.049 16.439ZM14.099 12.193C14.0603 12.1924 14.0223 12.2033 13.9899 12.2244C13.9574 12.2455 13.9319 12.2757 13.9167 12.3113C13.9015 12.3468 13.8972 12.3861 13.9044 12.4242C13.9116 12.4622 13.9299 12.4972 13.957 12.5248C13.9842 12.5524 14.0189 12.5712 14.0568 12.579C14.0947 12.5868 14.1341 12.5831 14.1699 12.5684C14.2057 12.5538 14.2364 12.5288 14.2579 12.4966C14.2795 12.4645 14.291 12.4267 14.291 12.388C14.2913 12.3367 14.2712 12.2874 14.2352 12.2509C14.1993 12.2143 14.1503 12.1935 14.099 12.193ZM14.974 16.133C14.9354 16.1324 14.8974 16.1433 14.865 16.1643C14.8325 16.1853 14.8071 16.2155 14.7918 16.251C14.7766 16.2866 14.7722 16.3258 14.7793 16.3638C14.7864 16.4018 14.8047 16.4368 14.8317 16.4644C14.8588 16.492 14.8934 16.511 14.9312 16.5189C14.9691 16.5268 15.0084 16.5232 15.0442 16.5087C15.08 16.4942 15.1107 16.4694 15.1324 16.4374C15.1541 16.4054 15.1658 16.3677 15.166 16.329C15.1663 16.2777 15.1462 16.2284 15.1102 16.1919C15.0743 16.1553 15.0253 16.1345 14.974 16.134V16.133ZM14.467 14.657C14.4284 14.6564 14.3904 14.6673 14.358 14.6883C14.3255 14.7093 14.3001 14.7395 14.2848 14.775C14.2696 14.8106 14.2652 14.8498 14.2723 14.8878C14.2794 14.9258 14.2977 14.9608 14.3247 14.9884C14.3518 15.016 14.3864 15.035 14.4242 15.0429C14.4621 15.0508 14.5014 15.0472 14.5372 15.0327C14.573 15.0182 14.6037 14.9934 14.6254 14.9614C14.6471 14.9294 14.6588 14.8917 14.659 14.853C14.6593 14.8275 14.6545 14.8022 14.645 14.7786C14.6355 14.755 14.6214 14.7334 14.6036 14.7152C14.5858 14.697 14.5645 14.6825 14.5411 14.6725C14.5177 14.6625 14.4925 14.6573 14.467 14.657ZM13.247 13.187C13.2083 13.1862 13.1703 13.1969 13.1377 13.2178C13.1051 13.2387 13.0795 13.2688 13.0641 13.3043C13.0487 13.3398 13.0442 13.3791 13.0512 13.4172C13.0582 13.4552 13.0763 13.4903 13.1033 13.5181C13.1304 13.5458 13.165 13.5648 13.2029 13.5728C13.2407 13.5807 13.2801 13.5773 13.316 13.5628C13.3519 13.5483 13.3826 13.5235 13.4044 13.4915C13.4261 13.4594 13.4378 13.4217 13.438 13.383C13.4383 13.3317 13.4182 13.2824 13.3822 13.2459C13.3463 13.2093 13.2973 13.1885 13.246 13.188L13.247 13.187ZM13.967 11.368C13.9662 11.3302 13.9543 11.2934 13.9326 11.2623C13.911 11.2313 13.8807 11.2073 13.8455 11.1934C13.8103 11.1795 13.7718 11.1763 13.7348 11.1843C13.6978 11.1922 13.6639 11.2109 13.6375 11.238C13.6111 11.2651 13.5933 11.2994 13.5863 11.3366C13.5794 11.3738 13.5835 11.4122 13.5983 11.4471C13.6131 11.4819 13.6379 11.5116 13.6695 11.5324C13.7011 11.5532 13.7382 11.5642 13.776 11.564C13.8015 11.5637 13.8267 11.5585 13.8501 11.5485C13.8735 11.5385 13.8948 11.524 13.9126 11.5058C13.9304 11.4876 13.9445 11.466 13.954 11.4424C13.9635 11.4188 13.9683 11.3935 13.968 11.368H13.967ZM22.025 12.193C21.9863 12.1924 21.9483 12.2033 21.9159 12.2244C21.8834 12.2455 21.8579 12.2757 21.8427 12.3113C21.8275 12.3468 21.8232 12.3861 21.8304 12.4242C21.8376 12.4622 21.8559 12.4972 21.883 12.5248C21.9102 12.5524 21.9449 12.5712 21.9828 12.579C22.0207 12.5868 22.0601 12.5831 22.0959 12.5684C22.1317 12.5538 22.1624 12.5288 22.1839 12.4966C22.2055 12.4645 22.217 12.4267 22.217 12.388C22.2173 12.3367 22.1972 12.2874 22.1612 12.2509C22.1253 12.2143 22.0763 12.1935 22.025 12.193ZM21.655 14.657C21.6163 14.6564 21.5783 14.6673 21.5459 14.6884C21.5134 14.7095 21.4879 14.7397 21.4727 14.7753C21.4575 14.8108 21.4532 14.8501 21.4604 14.8882C21.4676 14.9262 21.4859 14.9612 21.5131 14.9888C21.5402 15.0164 21.5749 15.0352 21.6128 15.043C21.6507 15.0508 21.6901 15.0471 21.7259 15.0324C21.7617 15.0178 21.7924 14.9928 21.8139 14.9606C21.8355 14.9285 21.847 14.8907 21.847 14.852C21.8473 14.8007 21.8272 14.7514 21.7912 14.7149C21.7553 14.6783 21.7063 14.6575 21.655 14.657ZM22.877 13.187C22.8384 13.1864 22.8004 13.1973 22.768 13.2183C22.7355 13.2393 22.7101 13.2695 22.6948 13.305C22.6796 13.3406 22.6752 13.3798 22.6823 13.4178C22.6894 13.4558 22.7077 13.4908 22.7347 13.5184C22.7618 13.546 22.7964 13.565 22.8342 13.5729C22.8721 13.5808 22.9114 13.5772 22.9472 13.5627C22.983 13.5482 23.0137 13.5234 23.0354 13.4914C23.0571 13.4594 23.0688 13.4217 23.069 13.383C23.0693 13.3317 23.0492 13.2824 23.0132 13.2459C22.9773 13.2093 22.9283 13.1875 22.877 13.187ZM22.348 11.173C22.3093 11.1724 22.2713 11.1833 22.2389 11.2044C22.2064 11.2255 22.1809 11.2557 22.1657 11.2913C22.1505 11.3269 22.1462 11.3661 22.1534 11.4042C22.1606 11.4422 22.1789 11.4772 22.206 11.5048C22.2332 11.5324 22.2679 11.5512 22.3058 11.559C22.3437 11.5668 22.3831 11.5631 22.4189 11.5484C22.4547 11.5338 22.4854 11.5088 22.5069 11.4766C22.5285 11.4445 22.54 11.4067 22.54 11.368C22.5403 11.3167 22.5202 11.2674 22.4842 11.2309C22.4483 11.1943 22.3993 11.1735 22.348 11.173ZM20.265 16.243C20.2264 16.2424 20.1884 16.2533 20.156 16.2743C20.1235 16.2953 20.0981 16.3255 20.0828 16.361C20.0676 16.3966 20.0632 16.4358 20.0703 16.4738C20.0774 16.5118 20.0957 16.5468 20.1227 16.5744C20.1498 16.602 20.1844 16.621 20.2222 16.6289C20.2601 16.6368 20.2994 16.6332 20.3352 16.6187C20.371 16.6042 20.4017 16.5794 20.4234 16.5474C20.4451 16.5154 20.4568 16.4777 20.457 16.439C20.4573 16.4135 20.4525 16.3882 20.443 16.3646C20.4335 16.341 20.4194 16.3194 20.4016 16.3012C20.3838 16.283 20.3625 16.2685 20.3391 16.2585C20.3157 16.2485 20.2905 16.2433 20.265 16.243ZM21.149 16.133C21.1104 16.1324 21.0724 16.1433 21.04 16.1643C21.0075 16.1853 20.9821 16.2155 20.9668 16.251C20.9516 16.2866 20.9472 16.3258 20.9543 16.3638C20.9614 16.4018 20.9797 16.4368 21.0067 16.4644C21.0337 16.492 21.0684 16.511 21.1062 16.5189C21.1441 16.5268 21.1834 16.5232 21.2192 16.5087C21.255 16.4942 21.2857 16.4694 21.3074 16.4374C21.3291 16.4054 21.3408 16.3677 21.341 16.329C21.3413 16.2777 21.3212 16.2284 21.2852 16.1919C21.2493 16.1553 21.2003 16.1345 21.149 16.134V16.133ZM21.257 12.055C21.062 10.268 20.094 9.901 19.703 9.825L19.656 9.816C19.6163 9.80951 19.5762 9.8055 19.536 9.804C19.3389 9.80585 19.1505 9.88587 19.0123 10.0265C18.8741 10.1671 18.7974 10.3568 18.799 10.554C18.7988 10.6498 18.8179 10.7446 18.8552 10.8328C18.8924 10.921 18.9471 11.0009 19.0159 11.0675C19.0847 11.1341 19.1662 11.1862 19.2555 11.2207C19.3449 11.2551 19.4403 11.2712 19.536 11.268C19.6316 11.2628 19.7223 11.2238 19.7918 11.1578C19.8612 11.0918 19.9049 11.0033 19.915 10.908C19.9225 10.8575 19.9176 10.806 19.9008 10.7578C19.884 10.7097 19.8557 10.6663 19.8184 10.6315C19.7812 10.5967 19.736 10.5714 19.6868 10.5579C19.6376 10.5444 19.5858 10.5431 19.536 10.554C19.275 10.627 19.403 10.898 19.403 10.898C19.244 10.893 19.085 10.788 19.085 10.513C19.0827 10.453 19.0926 10.3932 19.1142 10.3372C19.1357 10.2812 19.1684 10.2302 19.2104 10.1872C19.2523 10.1443 19.3025 10.1103 19.358 10.0874C19.4134 10.0645 19.473 10.0531 19.533 10.054C19.5615 10.0559 19.5899 10.0592 19.618 10.064L19.648 10.069C20.005 10.139 20.836 10.469 21.012 12.082C21.0543 12.9362 20.8879 13.7878 20.527 14.5632C20.1662 15.3386 19.6218 16.0143 18.941 16.532C18.6591 16.7252 18.3662 16.9002 18.062 17.056C17.7582 16.9002 17.4636 16.7252 17.182 16.532C16.5013 16.0143 15.9569 15.3385 15.5961 14.5632C15.2352 13.7878 15.0687 12.9362 15.111 12.082C15.287 10.47 16.118 10.138 16.475 10.069L16.505 10.063C16.5332 10.0585 16.5615 10.0555 16.59 10.054C16.6499 10.0533 16.7094 10.0647 16.7647 10.0877C16.8201 10.1107 16.8702 10.1447 16.912 10.1876C16.9538 10.2305 16.9864 10.2815 17.0079 10.3375C17.0294 10.3934 17.0393 10.4531 17.037 10.513C17.037 10.788 16.879 10.893 16.72 10.898C16.72 10.898 16.848 10.628 16.587 10.554C16.5372 10.5431 16.4854 10.5444 16.4362 10.5579C16.387 10.5714 16.3418 10.5967 16.3046 10.6315C16.2673 10.6663 16.239 10.7097 16.2222 10.7578C16.2054 10.806 16.2005 10.8575 16.208 10.908C16.2181 11.0033 16.2618 11.0918 16.3312 11.1578C16.4007 11.2238 16.4913 11.2628 16.587 11.268C16.6827 11.2712 16.7781 11.2551 16.8675 11.2207C16.9568 11.1862 17.0383 11.1341 17.1071 11.0675C17.1759 11.0009 17.2306 10.921 17.2678 10.8328C17.3051 10.7446 17.3242 10.6498 17.324 10.554C17.3256 10.3568 17.2489 10.1671 17.1107 10.0265C16.9725 9.88587 16.7851 9.80585 16.588 9.804C16.5478 9.80551 16.5067 9.80952 16.467 9.816C16.452 9.819 16.436 9.821 16.421 9.825C16.029 9.901 15.062 10.268 14.867 12.055C14.8041 13.151 15.0761 14.2402 15.6467 15.1781C16.2171 16.1157 17.0591 16.857 18.061 17.305C19.0631 16.8571 19.9054 16.1152 20.476 15.1775C21.0466 14.2399 21.3197 13.1509 21.257 12.055ZM18.061 10.805C18.1106 10.8058 18.1593 10.7918 18.201 10.7648C18.2426 10.7378 18.2753 10.6991 18.2948 10.6535C18.3143 10.6079 18.3199 10.5575 18.3107 10.5087C18.3015 10.46 18.278 10.4151 18.2432 10.3797C18.2084 10.3443 18.1639 10.3201 18.1153 10.3101C18.0667 10.3002 18.0162 10.3049 17.9703 10.3237C17.9244 10.3425 17.8851 10.3745 17.8574 10.4157C17.8298 10.4569 17.815 10.5054 17.815 10.555C17.8147 10.5876 17.8209 10.6199 17.8331 10.6501C17.8453 10.6802 17.8634 10.7077 17.8862 10.731C17.9091 10.7542 17.9363 10.7727 17.9662 10.7854C17.9962 10.7981 18.0284 10.8047 18.061 10.805Z"
		fill="#FFE15A"
	/>
	<path
		d="M21.147 18.067C21.147 18.067 21.817 18.396 21.802 18.515C20.8862 18.6018 19.9627 18.5614 19.058 18.395V17.973C18.3963 18.0394 17.7297 18.0394 17.068 17.973V18.395C16.1636 18.5613 15.2405 18.6017 14.325 18.515C14.31 18.396 14.979 18.067 14.979 18.067C14.979 18.067 14.221 17.684 14.205 17.555C14.7519 17.6063 15.3021 17.612 15.85 17.572V16.807C17.3057 17.1382 18.8173 17.1382 20.273 16.807V17.572C20.8222 17.6122 21.3738 17.6065 21.922 17.555C21.906 17.684 21.147 18.067 21.147 18.067Z"
		fill="#F5F5F5"
	/>
</svg>
