<svg viewBox="0 0 36 24" fill="none" xmlns="http://www.w3.org/2000/svg">
	<path d="M0 16H36V24H0V16Z" fill="#F5F5F5" />
	<path d="M0 8H36V16H0V8Z" fill="#41479B" />
	<path
		d="M7.65 7.714H12.212L12.166 7.998H7.696L7.65 7.714ZM7.51 6.862L7.557 7.146H12.305L12.352 6.862H7.51Z"
		fill="#FFD350"
	/>
	<path
		d="M13.655 8V14.736C13.6746 15.7434 13.2932 16.7173 12.5949 17.4435C11.8966 18.1698 10.9384 18.589 9.931 18.609C8.92364 18.589 7.96545 18.1698 7.26711 17.4435C6.56876 16.7173 6.18745 15.7434 6.207 14.736V8M6.207 8H0V0H36V8H13.648"
		fill="#FF4B55"
	/>
	<path
		d="M9.838 4.588H9.652V4.398H9.838V4.208H10.024V4.398H10.21V4.588H10.024V4.967H9.838V4.588ZM7.112 6.008C7.08416 5.93004 7.07307 5.84709 7.07944 5.76456C7.08582 5.68202 7.10952 5.60176 7.149 5.529C7.18604 5.45985 7.23755 5.39949 7.30002 5.35203C7.36249 5.30458 7.43445 5.27114 7.511 5.254C8.2763 5.08173 9.05677 4.9856 9.841 4.967H10.021C10.8052 4.9857 11.5857 5.08183 12.351 5.254C12.4274 5.27127 12.4991 5.30477 12.5614 5.35222C12.6237 5.39967 12.6751 5.45996 12.712 5.529C12.7514 5.60178 12.7751 5.68204 12.7815 5.76456C12.7878 5.84709 12.7768 5.93003 12.749 6.008L12.355 7.115C12.3437 7.14747 12.3236 7.17619 12.297 7.198L12.165 7.998H7.696L7.566 7.198C7.53882 7.17673 7.51805 7.14835 7.506 7.116L7.112 6.008ZM8.795 6.862H9.745V5.35C9.36382 5.38682 8.98958 5.47634 8.633 5.616C8.58932 5.70538 8.57767 5.80705 8.6 5.904L8.795 6.862ZM11.22 5.612C10.8663 5.47526 10.4955 5.38745 10.118 5.351V6.861H11.068L11.262 5.905C11.2747 5.85581 11.2775 5.80459 11.2703 5.7543C11.2631 5.70402 11.246 5.65565 11.22 5.612ZM12.273 5.625C12.0431 5.57512 11.812 5.53077 11.58 5.492C11.6439 5.64705 11.6603 5.81762 11.627 5.982L11.447 6.862H12.049L12.399 5.879C12.4088 5.85204 12.4128 5.82332 12.4107 5.79472C12.4086 5.76612 12.4006 5.73827 12.387 5.713C12.3754 5.691 12.3593 5.67176 12.3396 5.65657C12.3199 5.64139 12.2972 5.63062 12.273 5.625ZM7.463 5.879L7.813 6.862H8.414L8.235 5.982C8.20169 5.81762 8.21805 5.64705 8.282 5.492C8.008 5.538 7.768 5.586 7.589 5.625C7.56477 5.63056 7.54203 5.6413 7.52235 5.65649C7.50267 5.67169 7.48651 5.69096 7.475 5.713C7.46144 5.73827 7.45337 5.76612 7.4513 5.79472C7.44923 5.82332 7.45322 5.85204 7.463 5.879ZM8.65 13.59L7.772 15.197H6.951V15.577H7.351L6.834 15.997L7.067 16.293L7.506 15.936L7.333 16.464L7.686 16.584L8.026 15.545L8.672 15.381L8.582 15.014L8.252 15.097L8.976 13.774L8.65 13.59ZM13.026 15.997L12.509 15.577H12.909V15.197H12.088L11.21 13.59L10.884 13.774L11.607 15.097L11.279 15.014L11.189 15.381L11.834 15.545L12.174 16.584L12.527 16.464L12.354 15.936L12.793 16.293L13.026 15.997ZM7.883 8.567L8.163 8.946L8.813 9.136L8.441 9.325H9L8.814 8.567H7.883ZM11.048 9.135L11.7 8.945L11.98 8.567H11.048L10.862 9.325H11.421L11.048 9.135Z"
		fill="#FFE15A"
	/>
	<path
		d="M9.046 7.623C9.046 7.71 8.948 7.781 8.826 7.781C8.704 7.781 8.605 7.71 8.605 7.623C8.605 7.536 8.704 7.465 8.825 7.465C8.946 7.465 9.046 7.535 9.046 7.623ZM11.028 7.465C10.907 7.465 10.808 7.535 10.808 7.623C10.808 7.711 10.907 7.781 11.028 7.781C11.149 7.781 11.249 7.71 11.249 7.623C11.249 7.536 11.15 7.465 11.029 7.465H11.028Z"
		fill="#FF4B55"
	/>
	<path
		d="M10.21 6.945C10.2093 7.01904 10.1794 7.08981 10.1267 7.14181C10.074 7.19382 10.0028 7.22283 9.92876 7.2225C9.85472 7.22217 9.78382 7.19252 9.73158 7.14005C9.67934 7.08757 9.65001 7.01654 9.65001 6.9425C9.65001 6.86846 9.67934 6.79743 9.73158 6.74495C9.78382 6.69248 9.85472 6.66283 9.92876 6.6625C10.0028 6.66217 10.074 6.69118 10.1267 6.74319C10.1794 6.79519 10.2093 6.86596 10.21 6.94V6.945ZM11.225 6.66C11.1689 6.65922 11.1139 6.67506 11.0668 6.70553C11.0197 6.73599 10.9827 6.77972 10.9604 6.83118C10.9381 6.88265 10.9316 6.93956 10.9416 6.99474C10.9517 7.04992 10.9778 7.10089 11.0168 7.14124C11.0557 7.18158 11.1057 7.20949 11.1605 7.22145C11.2153 7.2334 11.2724 7.22886 11.3246 7.20841C11.3769 7.18796 11.4219 7.1525 11.4539 7.10652C11.486 7.06053 11.5038 7.00607 11.505 6.95V6.945C11.5054 6.90788 11.4985 6.87105 11.4846 6.83662C11.4707 6.80219 11.4502 6.77084 11.4242 6.74436C11.3982 6.71788 11.3672 6.6968 11.333 6.68232C11.2988 6.66785 11.2621 6.66026 11.225 6.66ZM12.246 6.66C12.1899 6.65922 12.1349 6.67506 12.0878 6.70553C12.0407 6.73599 12.0037 6.77972 11.9814 6.83118C11.9591 6.88265 11.9526 6.93956 11.9626 6.99474C11.9727 7.04992 11.9988 7.10089 12.0378 7.14124C12.0767 7.18158 12.1267 7.20949 12.1815 7.22145C12.2363 7.2334 12.2934 7.22886 12.3456 7.20841C12.3979 7.18796 12.4429 7.1525 12.4749 7.10652C12.507 7.06053 12.5248 7.00607 12.526 6.95V6.945C12.5264 6.90788 12.5195 6.87105 12.5056 6.83662C12.4917 6.80219 12.4712 6.77084 12.4452 6.74436C12.4192 6.71788 12.3882 6.6968 12.354 6.68232C12.3198 6.66785 12.2831 6.66026 12.246 6.66ZM8.639 6.66C8.58289 6.65902 8.52774 6.6747 8.48053 6.70504C8.43331 6.73538 8.39615 6.77903 8.37372 6.83048C8.3513 6.88193 8.34462 6.93886 8.35453 6.9941C8.36444 7.04935 8.39049 7.10041 8.4294 7.14086C8.46831 7.1813 8.51833 7.20931 8.57315 7.22135C8.62797 7.23338 8.68512 7.22891 8.7374 7.20849C8.78967 7.18807 8.83473 7.15262 8.86687 7.10661C8.89901 7.06061 8.91681 7.00611 8.918 6.95V6.945C8.9184 6.90788 8.91146 6.87105 8.89759 6.83662C8.88372 6.80219 8.86319 6.77084 8.83718 6.74436C8.81116 6.71788 8.78018 6.6968 8.746 6.68232C8.71182 6.66785 8.67512 6.66026 8.638 6.66H8.639ZM7.617 6.66C7.56092 6.65922 7.50587 6.67506 7.45879 6.70553C7.4117 6.73599 7.37469 6.77972 7.35242 6.83118C7.33015 6.88265 7.32361 6.93956 7.33364 6.99474C7.34366 7.04992 7.3698 7.10089 7.40875 7.14124C7.44771 7.18158 7.49773 7.20949 7.55253 7.22145C7.60732 7.2334 7.66442 7.22886 7.71664 7.20841C7.76886 7.18796 7.81385 7.1525 7.84595 7.10652C7.87805 7.06053 7.89581 7.00607 7.897 6.95V6.945C7.8974 6.90788 7.89046 6.87105 7.87659 6.83662C7.86272 6.80219 7.84219 6.77084 7.81618 6.74436C7.79016 6.71788 7.75918 6.6968 7.725 6.68232C7.69082 6.66785 7.65412 6.66026 7.617 6.66Z"
		fill="#FFBE50"
	/>
	<path
		d="M10.148 7.623C10.148 7.71 10.049 7.781 9.928 7.781C9.807 7.781 9.707 7.71 9.707 7.623C9.707 7.536 9.806 7.465 9.927 7.465C10.048 7.465 10.148 7.535 10.148 7.623ZM7.724 7.465C7.602 7.465 7.504 7.535 7.504 7.623C7.504 7.711 7.602 7.781 7.724 7.781C7.846 7.781 7.944 7.71 7.944 7.623C7.944 7.536 7.846 7.465 7.724 7.465ZM12.13 7.465C12.008 7.465 11.91 7.535 11.91 7.623C11.91 7.711 12.008 7.781 12.13 7.781C12.252 7.781 12.351 7.71 12.351 7.623C12.351 7.536 12.251 7.465 12.13 7.465ZM9.931 4.777C9.86498 4.77808 9.80039 4.79643 9.74367 4.83023C9.68694 4.86403 9.64006 4.9121 9.60769 4.96966C9.57533 5.02721 9.5586 5.09224 9.55918 5.15827C9.55976 5.2243 9.57763 5.28902 9.611 5.346H10.251C10.2847 5.28834 10.3027 5.2228 10.303 5.156C10.3038 5.05645 10.2651 4.96064 10.1954 4.8896C10.1256 4.81855 10.0305 4.77806 9.931 4.777Z"
		fill="#41479B"
	/>
	<path
		d="M12.601 8.648C12.5814 8.62287 12.5564 8.60252 12.5278 8.58849C12.4992 8.57446 12.4678 8.56711 12.436 8.567C12.4036 8.56735 12.3717 8.57507 12.3427 8.58956C12.3137 8.60405 12.2883 8.62495 12.2686 8.65066C12.2488 8.67638 12.2352 8.70624 12.2287 8.738C12.2222 8.76977 12.223 8.80259 12.231 8.834L12.279 9.03C12.2996 9.11316 12.2915 9.20083 12.2561 9.27885C12.2208 9.35687 12.1601 9.42068 12.084 9.46L11.234 9.893L10.862 9.514L11.312 8.6C11.3227 8.5792 11.3275 8.55582 11.3256 8.53249C11.3238 8.50916 11.3156 8.48679 11.3018 8.46789C11.2879 8.449 11.2691 8.43432 11.2475 8.42551C11.2258 8.41669 11.2021 8.4141 11.179 8.418L10.303 8.567L9.931 9.325L9.559 8.567L8.683 8.418C8.66 8.41432 8.63643 8.41708 8.61491 8.42598C8.59338 8.43489 8.57475 8.44958 8.56107 8.46844C8.5474 8.48729 8.53922 8.50957 8.53744 8.53279C8.53566 8.55602 8.54035 8.57928 8.551 8.6L9 9.514L8.628 9.894L7.778 9.461C7.70168 9.42164 7.6409 9.35766 7.60551 9.27943C7.57011 9.2012 7.56218 9.1133 7.583 9.03L7.631 8.834C7.63903 8.80259 7.63982 8.76977 7.63331 8.738C7.6268 8.70624 7.61315 8.67638 7.59341 8.65066C7.57367 8.62495 7.54834 8.60405 7.51934 8.58956C7.49033 8.57507 7.45842 8.56735 7.426 8.567C7.39424 8.56699 7.36289 8.57418 7.33431 8.58804C7.30573 8.6019 7.28066 8.62206 7.261 8.647C6.81859 9.21098 6.57842 9.9072 6.579 10.624V14.63C7.20284 14.4262 7.72973 13.9997 8.059 13.432C8.12272 13.3389 8.2072 13.2619 8.30578 13.2071C8.40435 13.1523 8.51431 13.1211 8.627 13.116L8.255 14.251L9 14.441L9.429 13.921L9.559 14.251L8.628 17.472C9.0177 17.7195 9.46983 17.851 9.9315 17.851C10.3932 17.851 10.8453 17.7195 11.235 17.472L10.304 14.252L10.434 13.922L10.862 14.44L11.607 14.251L11.235 13.116C11.3477 13.1211 11.4577 13.1523 11.5562 13.2071C11.6548 13.2619 11.7393 13.3389 11.803 13.432C12.1323 13.9997 12.6592 14.4262 13.283 14.63V10.624C13.2834 9.90755 13.0432 9.21171 12.601 8.648ZM11.234 9.893L10.808 11.456H10.21V9.893H11.234ZM9.652 13.423L9.585 13.405L9.208 12.025H9.652V13.423ZM10.21 12.025H10.654L10.277 13.405L10.21 13.422V12.025ZM9.652 9.893V11.456H9.054L8.628 9.893H9.652Z"
		fill="#F5F5F5"
	/>
</svg>
