<svg viewBox="0 0 36 24" fill="none" xmlns="http://www.w3.org/2000/svg">
	<path d="M36 8H0V0H36V8Z" fill="#F5F5F5" />
	<path d="M36 24H0V16H36V24Z" fill="#FF4B55" />
	<path
		d="M36 16H11.868C11.1555 16.7551 10.3474 17.4137 9.464 17.959L9.31 18.049L9.156 17.959C8.27295 17.4133 7.4651 16.7543 6.753 15.999H0V8H36V16Z"
		fill="#41479B"
	/>
	<path
		d="M9.156 17.959C8.973 17.851 4.656 15.296 4.656 11.369V6H13.966V11.368C13.966 15.296 9.648 17.852 9.464 17.959L9.31 18.049L9.156 17.959Z"
		fill="#FF4B55"
	/>
	<path
		d="M11.749 10.421L10.286 10.617H9.798V9.729H10.091L11.261 9.925L11.103 9.232L11.261 8.54L10.091 8.736H9.798V8.436L9.991 6.947L9.31 7.149L8.63 6.947L8.823 8.436V8.736H8.53L7.36 8.54L7.518 9.232L7.36 9.925L8.53 9.729H8.823V10.617H8.335L6.872 10.421L7.07 11.113L6.872 11.806L8.335 11.61H8.823V13.895H9.798V11.61H10.286L11.749 11.806L11.551 11.113L11.749 10.421Z"
		fill="#F5F5F5"
	/>
	<path
		d="M13.655 6.316V11.368C13.655 15.158 9.31 17.684 9.31 17.684C9.31 17.684 4.966 15.158 4.966 11.368V6.316H13.656M14.276 5.684H4.345V11.368C4.345 15.478 8.812 18.122 9.002 18.233L9.31 18.412L9.618 18.232C9.808 18.122 14.276 15.477 14.276 11.369V5.684Z"
		fill="#F5F5F5"
	/>
</svg>
