<svg viewBox="0 0 36 24" fill="none" xmlns="http://www.w3.org/2000/svg">
	<path d="M36 8H0V0H36V8Z" fill="#F5F5F5" />
	<path
		d="M36 8V16H0V8H6.107C5.99443 6.98415 5.92004 5.96443 5.884 4.943C6.85778 4.49485 7.91704 4.2628 8.989 4.2628C10.061 4.2628 11.1202 4.49485 12.094 4.943C12.094 4.943 12.046 6.533 11.872 8H36Z"
		fill="#41479B"
	/>
	<path
		d="M9.889 10.562C9.99567 10.6385 10.1228 10.6813 10.254 10.685C9.92436 11.0929 9.48568 11.3987 8.989 11.567C8.4923 11.3988 8.0536 11.0929 7.724 10.685C7.85466 10.6808 7.98109 10.6376 8.087 10.561C8.16023 10.5064 8.24914 10.4769 8.3405 10.4769C8.43186 10.4769 8.52077 10.5064 8.594 10.561C8.70876 10.6432 8.84636 10.6873 8.9875 10.6873C9.12864 10.6873 9.26624 10.6432 9.381 10.561C9.45426 10.506 9.54339 10.4762 9.635 10.4762C9.72661 10.4762 9.81574 10.506 9.889 10.561V10.562ZM10.024 7.774L9.679 8.476L8.989 7.072L8.299 8.476L7.954 7.774L7.029 9.344C7.05795 9.46305 7.09402 9.58026 7.137 9.695C7.24655 9.70853 7.35101 9.74908 7.441 9.813C7.51417 9.86777 7.6031 9.89738 7.6945 9.89738C7.7859 9.89738 7.87483 9.86777 7.948 9.813C8.06267 9.73107 8.20007 9.68702 8.341 9.68702C8.48193 9.68702 8.61933 9.73107 8.734 9.813C8.80717 9.86777 8.8961 9.89738 8.9875 9.89738C9.0789 9.89738 9.16783 9.86777 9.241 9.813C9.35582 9.73098 9.4934 9.6869 9.6345 9.6869C9.7756 9.6869 9.91318 9.73098 10.028 9.813C10.1014 9.86809 10.1907 9.89787 10.2825 9.89787C10.3743 9.89787 10.4636 9.86809 10.537 9.813C10.6274 9.74922 10.7322 9.7087 10.842 9.695C10.885 9.58061 10.9211 9.46373 10.95 9.345L10.024 7.774ZM10.282 10.161C10.1408 10.163 10.0027 10.1188 9.889 10.035C9.81574 9.97999 9.72661 9.95025 9.635 9.95025C9.54339 9.95025 9.45426 9.97999 9.381 10.035C9.26624 10.1172 9.12864 10.1613 8.9875 10.1613C8.84636 10.1613 8.70876 10.1172 8.594 10.035C8.52077 9.98038 8.43186 9.95087 8.3405 9.95087C8.24914 9.95087 8.16023 9.98038 8.087 10.035C7.97249 10.1168 7.83525 10.1608 7.6945 10.1608C7.55375 10.1608 7.41651 10.1168 7.302 10.035H7.3C7.36733 10.159 7.43467 10.2733 7.502 10.378C7.56013 10.4108 7.62629 10.4268 7.693 10.424C7.78487 10.4265 7.87472 10.3968 7.947 10.34C8.06167 10.2581 8.19907 10.214 8.34 10.214C8.48093 10.214 8.61833 10.2581 8.733 10.34C8.80617 10.3948 8.8951 10.4244 8.9865 10.4244C9.0779 10.4244 9.16683 10.3948 9.24 10.34C9.35482 10.258 9.4924 10.2139 9.6335 10.2139C9.7746 10.2139 9.91218 10.258 10.027 10.34C10.0991 10.3971 10.189 10.4272 10.281 10.425C10.3489 10.4276 10.4162 10.411 10.475 10.377C10.5417 10.273 10.609 10.1587 10.677 10.034L10.675 10.035C10.561 10.1189 10.4236 10.1632 10.282 10.161Z"
		fill="#F5F5F5"
	/>
	<path
		d="M9.279 6.35C9.28107 6.35223 9.28235 6.35508 9.28265 6.35811C9.28295 6.36114 9.28226 6.36418 9.28068 6.36678C9.2791 6.36938 9.27671 6.3714 9.27388 6.37252C9.27105 6.37364 9.26793 6.37381 9.265 6.373L9.064 6.326L9.004 6.527C9.004 6.53071 9.00253 6.53427 8.9999 6.5369C8.99727 6.53953 8.99371 6.541 8.99 6.541C8.98629 6.541 8.98273 6.53953 8.9801 6.5369C8.97748 6.53427 8.976 6.53071 8.976 6.527L8.916 6.326L8.714 6.373C8.71086 6.37434 8.70734 6.37449 8.7041 6.37342C8.70086 6.37235 8.69812 6.37013 8.6964 6.36718C8.69468 6.36423 8.6941 6.36076 8.69476 6.35741C8.69542 6.35406 8.69729 6.35107 8.7 6.349L8.841 6.195L8.701 6.041C8.69862 6.03891 8.69702 6.03607 8.69646 6.03295C8.69591 6.02982 8.69643 6.02661 8.69794 6.02382C8.69945 6.02103 8.70186 6.01884 8.70477 6.0176C8.70769 6.01636 8.71095 6.01615 8.714 6.017L8.915 6.064L8.976 5.863C8.97681 5.86004 8.97857 5.85743 8.98101 5.85557C8.98345 5.85372 8.98643 5.85271 8.9895 5.85271C8.99257 5.85271 8.99555 5.85372 8.99799 5.85557C9.00043 5.85743 9.00219 5.86004 9.003 5.863L9.063 6.064L9.265 6.017C9.26814 6.01566 9.27166 6.01551 9.2749 6.01658C9.27814 6.01765 9.28088 6.01987 9.2826 6.02282C9.28432 6.02577 9.2849 6.02924 9.28424 6.03259C9.28358 6.03594 9.28171 6.03893 9.279 6.041L9.138 6.195L9.279 6.35ZM8.146 5.227L8.287 5.073C8.28971 5.07093 8.29157 5.06794 8.29224 5.06459C8.2929 5.06124 8.29232 5.05777 8.2906 5.05482C8.28888 5.05187 8.28614 5.04965 8.2829 5.04858C8.27966 5.04751 8.27614 5.04766 8.273 5.049L8.072 5.096L8.012 4.895C8.012 4.89129 8.01052 4.88773 8.0079 4.8851C8.00527 4.88247 8.00171 4.881 7.998 4.881C7.99429 4.881 7.99073 4.88247 7.9881 4.8851C7.98548 4.88773 7.984 4.89129 7.984 4.895L7.924 5.096L7.722 5.049C7.71886 5.04766 7.71534 5.04751 7.7121 5.04858C7.70886 5.04965 7.70612 5.05187 7.7044 5.05482C7.70268 5.05777 7.7021 5.06124 7.70276 5.06459C7.70342 5.06794 7.70529 5.07093 7.708 5.073L7.849 5.227L7.709 5.381C7.70662 5.38309 7.70502 5.38593 7.70446 5.38905C7.70391 5.39218 7.70443 5.39539 7.70594 5.39818C7.70745 5.40097 7.70986 5.40316 7.71278 5.4044C7.71569 5.40564 7.71895 5.40585 7.722 5.405L7.924 5.357L7.984 5.559C7.98481 5.56196 7.98657 5.56457 7.98901 5.56643C7.99145 5.56828 7.99443 5.56929 7.9975 5.56929C8.00057 5.56929 8.00355 5.56828 8.00599 5.56643C8.00843 5.56457 8.01019 5.56196 8.011 5.559L8.071 5.357L8.273 5.405C8.27614 5.40634 8.27966 5.40649 8.2829 5.40542C8.28614 5.40435 8.28888 5.40213 8.2906 5.39918C8.29232 5.39623 8.2929 5.39276 8.29224 5.38941C8.29157 5.38606 8.28971 5.38307 8.287 5.381L8.146 5.227ZM10.278 5.381L10.137 5.227L10.278 5.073C10.2807 5.07093 10.2826 5.06794 10.2832 5.06459C10.2839 5.06124 10.2833 5.05777 10.2816 5.05482C10.2799 5.05187 10.2771 5.04965 10.2739 5.04858C10.2707 5.04751 10.2671 5.04766 10.264 5.049L10.063 5.096L10.003 4.895C10.003 4.89129 10.0015 4.88773 9.9989 4.8851C9.99627 4.88247 9.99271 4.881 9.989 4.881C9.98529 4.881 9.98173 4.88247 9.9791 4.8851C9.97647 4.88773 9.975 4.89129 9.975 4.895L9.915 5.096L9.713 5.049C9.70986 5.04766 9.70634 5.04751 9.7031 5.04858C9.69986 5.04965 9.69712 5.05187 9.6954 5.05482C9.69368 5.05777 9.6931 5.06124 9.69376 5.06459C9.69442 5.06794 9.69629 5.07093 9.699 5.073L9.84 5.227L9.7 5.381C9.69762 5.38309 9.69602 5.38593 9.69546 5.38905C9.69491 5.39218 9.69543 5.39539 9.69694 5.39818C9.69845 5.40097 9.70086 5.40316 9.70378 5.4044C9.70669 5.40564 9.70995 5.40585 9.713 5.405L9.915 5.357L9.975 5.559C9.97581 5.56196 9.97757 5.56457 9.98001 5.56643C9.98245 5.56828 9.98543 5.56929 9.9885 5.56929C9.99157 5.56929 9.99455 5.56828 9.99699 5.56643C9.99943 5.56457 10.0012 5.56196 10.002 5.559L10.062 5.357L10.264 5.405C10.2671 5.40634 10.2707 5.40649 10.2739 5.40542C10.2771 5.40435 10.2799 5.40213 10.2816 5.39918C10.2833 5.39623 10.2839 5.39276 10.2832 5.38941C10.2826 5.38606 10.2807 5.38307 10.278 5.381Z"
		fill="#FFE15A"
	/>
	<path
		d="M36 16V24H0V16H36ZM6.568 10.133C6.78058 10.6562 7.10895 11.1244 7.52843 11.5025C7.94791 11.8806 8.44761 12.1587 8.99 12.316C9.53214 12.1585 10.0316 11.8802 10.4509 11.5022C10.8701 11.1241 11.1984 10.656 11.411 10.133C11.6426 9.5189 11.7886 8.87588 11.845 8.222C12.025 6.802 12.085 5.189 12.094 4.943C11.9767 4.88922 11.858 4.83854 11.738 4.791C11.74 4.903 11.741 5.016 11.741 5.138C11.732 6.77696 11.5176 8.40833 11.103 9.994C10.9214 10.462 10.6374 10.8835 10.2718 11.2275C9.9062 11.5715 9.46822 11.8293 8.99 11.982C8.51181 11.8295 8.07383 11.5719 7.7082 11.2281C7.34256 10.8843 7.05855 10.4629 6.877 9.995C6.46345 8.40873 6.24847 6.77725 6.237 5.138C6.237 5.016 6.24 4.904 6.241 4.791C6.121 4.839 6.003 4.889 5.886 4.943C5.894 5.189 5.954 6.803 6.135 8.222C6.19117 8.87549 6.33686 9.51817 6.568 10.132V10.133Z"
		fill="#FF1722"
	/>
</svg>
