<svg viewBox="0 0 36 24" fill="none" xmlns="http://www.w3.org/2000/svg">
	<path d="M0 5.053H36V18.948H0V5.053Z" fill="#FFD250" />
	<path
		d="M15.828 10.736V16.104H14.586V10.736H15.828ZM13.034 10.106H8.07C7.90432 10.1076 7.74603 10.1748 7.62981 10.2929C7.51359 10.411 7.44893 10.5703 7.45 10.736V14.842C7.45 15.609 8.153 17.052 10.553 17.052C12.953 17.052 13.656 15.609 13.656 14.842V10.737C13.6568 10.6548 13.6414 10.5732 13.6107 10.497C13.5799 10.4207 13.5345 10.3513 13.4769 10.2926C13.4193 10.2339 13.3508 10.1871 13.2751 10.1549C13.1995 10.1228 13.1182 10.1058 13.036 10.105L13.034 10.106ZM5.276 16.104H6.516V10.736H5.276V16.104ZM7.759 8.21C7.75713 7.96121 7.85397 7.72183 8.0283 7.54431C8.20263 7.3668 8.44022 7.26564 8.689 7.263C8.80699 7.26318 8.92382 7.28627 9.033 7.331C9.08474 7.13174 9.20079 6.95512 9.36316 6.82855C9.52553 6.70198 9.72513 6.63254 9.931 6.631C10.1609 6.63172 10.3822 6.71881 10.551 6.875C10.7202 6.71894 10.9418 6.6322 11.172 6.632C11.3777 6.63348 11.5772 6.70278 11.7396 6.82915C11.9019 6.95553 12.0181 7.13192 12.07 7.331C12.1792 7.28627 12.296 7.26318 12.414 7.263C12.5913 7.26002 12.7658 7.30687 12.9178 7.3982C13.0697 7.48954 13.193 7.6217 13.2735 7.77965C13.3541 7.93759 13.3887 8.11498 13.3734 8.29161C13.3581 8.46825 13.2935 8.63704 13.187 8.77878C13.0805 8.92051 12.9363 9.0295 12.7709 9.09334C12.6055 9.15718 12.4255 9.17331 12.2514 9.13988C12.0773 9.10646 11.916 9.02483 11.786 8.90428C11.656 8.78373 11.5625 8.6291 11.516 8.458C11.3553 8.5237 11.1793 8.54213 11.0085 8.51113C10.8377 8.48012 10.6793 8.40098 10.552 8.283C10.4246 8.40117 10.266 8.48043 10.0951 8.51144C9.92408 8.54245 9.74779 8.5239 9.587 8.458C9.52983 8.67789 9.39406 8.86921 9.20537 8.99577C9.01667 9.12233 8.78814 9.17535 8.563 9.14481C8.33786 9.11426 8.13171 9.00227 7.98356 8.83001C7.83541 8.65776 7.75552 8.43718 7.759 8.21ZM12.103 8.21C12.104 8.27109 12.123 8.33053 12.1577 8.38084C12.1923 8.43116 12.2411 8.47011 12.2978 8.49281C12.3545 8.51551 12.4167 8.52094 12.4765 8.50842C12.5363 8.4959 12.5911 8.46599 12.6339 8.42244C12.6768 8.3789 12.7058 8.32366 12.7174 8.26366C12.7289 8.20367 12.7225 8.1416 12.6989 8.08524C12.6753 8.02889 12.6356 7.98076 12.5847 7.94692C12.5338 7.91307 12.4741 7.89501 12.413 7.895C12.3302 7.89579 12.251 7.92939 12.1929 7.98844C12.1348 8.04748 12.1025 8.12716 12.103 8.21ZM10.863 7.579C10.8642 7.64004 10.8834 7.69938 10.9181 7.74956C10.9529 7.79975 11.0017 7.83854 11.0585 7.86109C11.1152 7.88364 11.1773 7.88892 11.2371 7.87629C11.2968 7.86366 11.3515 7.83368 11.3942 7.79009C11.437 7.74651 11.4659 7.69127 11.4774 7.63131C11.4889 7.57134 11.4824 7.50932 11.4588 7.45302C11.4352 7.39673 11.3954 7.34866 11.3446 7.31486C11.2937 7.28105 11.2341 7.26301 11.173 7.263C11.1319 7.26339 11.0913 7.27188 11.0534 7.28797C11.0156 7.30406 10.9813 7.32745 10.9525 7.35679C10.9238 7.38614 10.901 7.42086 10.8857 7.45899C10.8703 7.49712 10.8626 7.5379 10.863 7.579ZM9.621 7.579C9.62218 7.64004 9.64136 7.69938 9.67614 7.74956C9.71091 7.79975 9.75973 7.83854 9.81647 7.86109C9.87321 7.88364 9.93534 7.88892 9.99507 7.87629C10.0548 7.86366 10.1095 7.83368 10.1522 7.79009C10.195 7.74651 10.2239 7.69127 10.2354 7.63131C10.2469 7.57134 10.2404 7.50932 10.2168 7.45302C10.1932 7.39673 10.1534 7.34866 10.1026 7.31486C10.0517 7.28105 9.99205 7.26301 9.931 7.263C9.8899 7.26339 9.84927 7.27188 9.81145 7.28797C9.77362 7.30406 9.73934 7.32745 9.71055 7.35679C9.68176 7.38614 9.65904 7.42086 9.64367 7.45899C9.62831 7.49712 9.6206 7.5379 9.621 7.579ZM8.379 8.21C8.37999 8.27109 8.399 8.33053 8.43366 8.38084C8.46831 8.43116 8.51707 8.47011 8.57379 8.49281C8.63052 8.51551 8.69268 8.52094 8.75249 8.50842C8.81229 8.4959 8.86705 8.46599 8.90991 8.42244C8.95276 8.3789 8.9818 8.32366 8.99336 8.26366C9.00492 8.20367 8.9985 8.1416 8.97489 8.08524C8.95129 8.02889 8.91156 7.98076 8.8607 7.94692C8.80983 7.91307 8.7501 7.89501 8.689 7.895C8.60616 7.89579 8.52701 7.92939 8.46891 7.98844C8.4108 8.04748 8.37847 8.12716 8.379 8.21Z"
		fill="#F5F5F5"
	/>
	<path
		d="M12.103 12.631C11.9371 12.6294 11.7787 12.5621 11.6625 12.4438C11.5462 12.3255 11.4817 12.1659 11.483 12V11.368C11.4817 11.2021 11.5462 11.0425 11.6625 10.9242C11.7787 10.8059 11.9371 10.7386 12.103 10.737C12.1852 10.7377 12.2665 10.7545 12.3422 10.7866C12.4179 10.8186 12.4865 10.8653 12.5442 10.9239C12.6019 10.9825 12.6474 11.0519 12.6783 11.1281C12.7091 11.2043 12.7247 11.2858 12.724 11.368V12C12.7253 12.1659 12.6608 12.3255 12.5445 12.4438C12.4283 12.5621 12.2699 12.6294 12.104 12.631H12.103Z"
		fill="#FFA0D2"
	/>
	<path
		d="M4.655 16.42H7.138V17.052H4.655V16.42ZM13.965 16.42V17.052H16.448V16.421L13.965 16.42ZM10.552 12.315C10.3641 12.3116 10.1794 12.3643 10.0214 12.4662C9.8635 12.5681 9.73948 12.7148 9.66516 12.8874C9.59084 13.0601 9.56959 13.251 9.6041 13.4357C9.63862 13.6205 9.72735 13.7908 9.85898 13.925C9.99062 14.0592 10.1592 14.1512 10.3433 14.1892C10.5274 14.2273 10.7186 14.2097 10.8927 14.1387C11.0667 14.0677 11.2157 13.9465 11.3207 13.7906C11.4256 13.6346 11.4818 13.451 11.482 13.263C11.4841 13.014 11.3874 12.7744 11.2131 12.5967C11.0387 12.4189 10.801 12.3176 10.552 12.315Z"
		fill="#5064AA"
	/>
	<path
		d="M4.965 15.79H6.828V16.421H4.965V15.79ZM4.965 10.737H6.828V10.105H4.965V10.737ZM9.931 12H9.621V11.368H9.931V10.736H8.07V11.368H8.38V12H8.07V12.631H9.932L9.931 12ZM14.586 15.79V16.421H16.448V15.79H14.586ZM12.414 9.474H10.862V6.316H10.242V9.474H8.69V10.105H12.414V9.474ZM11.172 13.894H13.034V14.842C13.034 15.0889 12.9359 15.3257 12.7613 15.5003C12.5867 15.6749 12.3499 15.773 12.103 15.773C11.8561 15.773 11.6193 15.6749 11.4447 15.5003C11.2701 15.3257 11.172 15.0889 11.172 14.842V13.894ZM11.793 14.842C11.793 14.8827 11.801 14.923 11.8166 14.9606C11.8322 14.9982 11.855 15.0324 11.8838 15.0612C11.9126 15.09 11.9468 15.1128 11.9844 15.1284C12.022 15.144 12.0623 15.152 12.103 15.152C12.1437 15.152 12.184 15.144 12.2216 15.1284C12.2592 15.1128 12.2934 15.09 12.3222 15.0612C12.351 15.0324 12.3738 14.9982 12.3894 14.9606C12.405 14.923 12.413 14.8827 12.413 14.842V14.526H11.793V14.842ZM16.138 10.105H14.276V10.737H16.138V10.105ZM7.448 14.842C7.448 15.2536 7.61151 15.6484 7.90257 15.9394C8.19363 16.2305 8.58838 16.394 9 16.394C9.41162 16.394 9.80637 16.2305 10.0974 15.9394C10.3885 15.6484 10.552 15.2536 10.552 14.842V13.262H7.448V14.842Z"
		fill="#FAB446"
	/>
	<path
		d="M10.862 8.842C10.8608 8.90304 10.8416 8.96238 10.8069 9.01256C10.7721 9.06275 10.7233 9.10154 10.6665 9.12409C10.6098 9.14664 10.5477 9.15192 10.4879 9.13929C10.4282 9.12666 10.3735 9.09668 10.3308 9.05309C10.288 9.00951 10.2591 8.95427 10.2476 8.89431C10.2361 8.83434 10.2426 8.77232 10.2662 8.71602C10.2898 8.65973 10.3296 8.61166 10.3804 8.57786C10.4313 8.54405 10.4909 8.52601 10.552 8.526C10.5931 8.52639 10.6337 8.53488 10.6716 8.55097C10.7094 8.56706 10.7437 8.59045 10.7725 8.61979C10.8012 8.64914 10.824 8.68386 10.8393 8.72199C10.8547 8.76012 10.8624 8.8009 10.862 8.842ZM9.31 8.526C9.24726 8.52481 9.18558 8.54232 9.13284 8.57631C9.08009 8.6103 9.03865 8.65923 9.01381 8.71686C8.98897 8.77448 8.98185 8.8382 8.99336 8.89989C9.00487 8.96158 9.03448 9.01844 9.07842 9.06324C9.12237 9.10803 9.17866 9.13873 9.24011 9.15142C9.30157 9.1641 9.36541 9.15821 9.4235 9.13448C9.48159 9.11074 9.5313 9.07026 9.5663 9.01817C9.60129 8.96608 9.61999 8.90475 9.62 8.842C9.6204 8.8009 9.61269 8.76012 9.59733 8.72199C9.58196 8.68386 9.55924 8.64914 9.53045 8.61979C9.50166 8.59045 9.46738 8.56706 9.42955 8.55097C9.39173 8.53488 9.3511 8.52639 9.31 8.526ZM11.793 8.526C11.7303 8.52481 11.6686 8.54232 11.6158 8.57631C11.5631 8.6103 11.5217 8.65923 11.4968 8.71686C11.472 8.77448 11.4649 8.8382 11.4764 8.89989C11.4879 8.96158 11.5175 9.01844 11.5614 9.06324C11.6054 9.10803 11.6617 9.13873 11.7231 9.15142C11.7846 9.1641 11.8484 9.15821 11.9065 9.13448C11.9646 9.11074 12.0143 9.07026 12.0493 9.01817C12.0843 8.96608 12.103 8.90475 12.103 8.842C12.1034 8.8009 12.0957 8.76012 12.0803 8.72199C12.065 8.68386 12.0422 8.64914 12.0134 8.61979C11.9847 8.59045 11.9504 8.56706 11.9126 8.55097C11.8747 8.53488 11.8341 8.52639 11.793 8.526Z"
		fill="#FFD250"
	/>
	<path
		d="M36 0V5.053H0V0H36ZM15.392 9.158H15.022C14.9692 9.15864 14.9173 9.17106 14.87 9.19436C14.8226 9.21765 14.7811 9.25123 14.7484 9.29264C14.7157 9.33405 14.6927 9.38224 14.6811 9.43369C14.6694 9.48514 14.6694 9.53854 14.681 9.59L15.207 12L15.733 9.59C15.7446 9.53862 15.7446 9.4853 15.733 9.43393C15.7214 9.38255 15.6985 9.33441 15.6659 9.29302C15.6333 9.25163 15.5919 9.21803 15.5447 9.19468C15.4975 9.17132 15.4447 9.15879 15.392 9.158ZM13.035 12.631H16.138V12H13.035V12.631ZM16.138 14.526V13.895L14.276 13.263V13.895L16.138 14.526ZM6.082 9.158H5.712C5.65916 9.15849 5.60711 9.17081 5.55965 9.19404C5.5122 9.21727 5.47054 9.25083 5.43774 9.29226C5.40495 9.33368 5.38184 9.38193 5.37012 9.43345C5.3584 9.48497 5.35836 9.53846 5.37 9.59L5.897 12L6.423 9.59C6.43463 9.53854 6.43461 9.48514 6.42294 9.43369C6.41127 9.38224 6.38826 9.33405 6.35557 9.29264C6.32288 9.25123 6.28136 9.21765 6.23402 9.19436C6.18669 9.17106 6.13475 9.15864 6.082 9.158ZM12.103 16.421C12.3087 16.4193 12.512 16.3771 12.7014 16.2967C12.8907 16.2164 13.0624 16.0995 13.2065 15.9527C13.3507 15.806 13.4645 15.6323 13.5414 15.4415C13.6184 15.2507 13.657 15.0467 13.655 14.841V13.263L10.552 13.262V14.842C10.5502 15.0475 10.5888 15.2514 10.6658 15.442C10.7427 15.6326 10.8564 15.8061 11.0005 15.9527C11.1445 16.0994 11.316 16.2162 11.5052 16.2965C11.6943 16.3769 11.8975 16.4192 12.103 16.421ZM10.552 7.579C10.157 7.57945 9.76608 7.65866 9.40206 7.81199C9.03805 7.96532 8.70827 8.1897 8.432 8.472L8.069 8.842L8.69 9.474H12.414L13.034 8.842L12.671 8.472C12.3947 8.1897 12.0649 7.96532 11.7009 7.81199C11.3369 7.65866 10.946 7.57945 10.551 7.579H10.552ZM4.965 12.63H7.448V13.262H8.068V16.097C8.25061 16.2397 8.46333 16.3388 8.69 16.387V13.262H9.31V16.388C9.53642 16.3394 9.7488 16.2399 9.931 16.097V13.262H10.551V10.104H8.07C7.98779 10.1048 7.90654 10.1218 7.83089 10.1539C7.75524 10.1861 7.68667 10.2329 7.6291 10.2916C7.57153 10.3503 7.52608 10.4197 7.49535 10.496C7.46462 10.5722 7.44921 10.6538 7.45 10.736V12H4.964L4.965 12.63ZM6.828 13.894V13.262L4.966 13.894V14.525L6.828 13.894ZM0 24H36V18.948H0V24Z"
		fill="#C8414B"
	/>
</svg>
