<svg viewBox="0 0 36 24" fill="none" xmlns="http://www.w3.org/2000/svg">
	<path d="M36 24H0V0H36" fill="#FF4B55" />
	<path
		d="M24.947 9.474H20.527V5.053C20.527 4.97 20.5107 4.88782 20.4789 4.81114C20.4471 4.73447 20.4006 4.6648 20.3419 4.60611C20.2832 4.54742 20.2135 4.50087 20.1369 4.46911C20.0602 4.43735 19.978 4.421 19.895 4.421H16.105C15.9376 4.42126 15.7771 4.48797 15.6588 4.60646C15.5404 4.72496 15.474 4.88556 15.474 5.053V9.473H11.053C10.8854 9.473 10.7246 9.53959 10.6061 9.65811C10.4876 9.77663 10.421 9.93738 10.421 10.105V13.895C10.4213 14.0624 10.488 14.2229 10.6065 14.3412C10.725 14.4596 10.8856 14.526 11.053 14.526H15.473V18.947C15.473 19.03 15.4893 19.1122 15.5211 19.1889C15.5529 19.2655 15.5994 19.3352 15.6581 19.3939C15.7168 19.4526 15.7865 19.4991 15.8631 19.5309C15.9398 19.5627 16.022 19.579 16.105 19.579H19.895C20.0624 19.5787 20.2229 19.512 20.3412 19.3935C20.4596 19.275 20.526 19.1144 20.526 18.947V14.527H24.947C25.1146 14.527 25.2754 14.4604 25.3939 14.3419C25.5124 14.2234 25.579 14.0626 25.579 13.895V10.105C25.5787 9.93756 25.512 9.77706 25.3935 9.65875C25.275 9.54045 25.1144 9.474 24.947 9.474Z"
		fill="#F5F5F5"
	/>
</svg>
