<svg viewBox="0 0 36 24" fill="none" xmlns="http://www.w3.org/2000/svg">
	<path d="M36 0H17.179V24H36V0Z" fill="#F5F5F5" />
	<path d="M0 24H18V0H0V24Z" fill="#FFE15A" />
	<path
		d="M21.944 14.248C21.9439 14.2793 21.9385 14.3105 21.928 14.34C21.8699 14.3918 21.8151 14.4473 21.764 14.506C21.7352 14.5169 21.7048 14.5226 21.674 14.523C21.6194 14.524 21.5658 14.5087 21.5199 14.4791C21.474 14.4495 21.438 14.4069 21.4164 14.3567C21.3948 14.3066 21.3886 14.2512 21.3987 14.1975C21.4087 14.1438 21.4345 14.0943 21.4728 14.0554C21.511 14.0164 21.56 13.9897 21.6135 13.9787C21.667 13.9677 21.7225 13.9728 21.7731 13.9935C21.8236 14.0141 21.8668 14.0494 21.8973 14.0947C21.9277 14.14 21.944 14.1934 21.944 14.248ZM21.764 16.921C21.7352 16.9102 21.7048 16.9044 21.674 16.904C21.6194 16.903 21.5658 16.9183 21.5199 16.9479C21.474 16.9775 21.438 17.0201 21.4164 17.0703C21.3948 17.1204 21.3886 17.1758 21.3987 17.2295C21.4087 17.2832 21.4345 17.3327 21.4728 17.3716C21.511 17.4106 21.56 17.4373 21.6135 17.4483C21.667 17.4593 21.7225 17.4542 21.7731 17.4335C21.8236 17.4129 21.8668 17.3776 21.8973 17.3323C21.9277 17.287 21.944 17.2336 21.944 17.179C21.9439 17.1476 21.9385 17.1165 21.928 17.087C21.8699 17.0352 21.8151 16.9798 21.764 16.921ZM24.554 13.974C24.5183 13.9743 24.483 13.9816 24.4501 13.9955C24.4172 14.0094 24.3873 14.0296 24.3623 14.0551C24.3372 14.0805 24.3174 14.1107 24.3039 14.1438C24.2905 14.1769 24.2837 14.2123 24.284 14.248C24.2844 14.2794 24.2901 14.3105 24.301 14.34C24.3591 14.3918 24.4139 14.4473 24.465 14.506C24.4938 14.5168 24.5242 14.5226 24.555 14.523C24.6279 14.523 24.6979 14.494 24.7495 14.4425C24.801 14.3909 24.83 14.3209 24.83 14.248C24.83 14.1751 24.801 14.1051 24.7495 14.0535C24.6979 14.002 24.6279 13.973 24.555 13.973L24.554 13.974ZM24.284 17.179C24.2836 17.2148 24.2903 17.2503 24.3036 17.2836C24.317 17.3168 24.3368 17.347 24.3619 17.3726C24.387 17.3981 24.4169 17.4185 24.4498 17.4324C24.4828 17.4464 24.5182 17.4537 24.554 17.454C24.5938 17.4538 24.633 17.4447 24.6688 17.4274C24.7046 17.4101 24.7361 17.385 24.761 17.354C24.5991 17.2951 24.4411 17.226 24.288 17.147C24.2861 17.1576 24.2847 17.1683 24.284 17.179ZM31.934 6.556C31.8859 6.55653 31.84 6.57607 31.8062 6.61036C31.7725 6.64465 31.7537 6.6909 31.754 6.739C31.7556 6.75368 31.759 6.76812 31.764 6.782L31.365 6.884C31.3143 6.8471 31.252 6.82954 31.1895 6.83449C31.127 6.83944 31.0683 6.86657 31.024 6.911C30.9865 6.94931 30.9609 6.99763 30.9503 7.05014C30.9397 7.10266 30.9444 7.15713 30.964 7.207C30.9776 7.24139 30.998 7.27268 31.024 7.299L31.384 7.666C31.4089 7.69131 31.4385 7.71141 31.4712 7.72513C31.5039 7.73885 31.539 7.74592 31.5745 7.74592C31.61 7.74592 31.6451 7.73885 31.6778 7.72513C31.7105 7.71141 31.7401 7.69131 31.765 7.666C31.8091 7.62008 31.8359 7.56029 31.8408 7.49683C31.8457 7.43337 31.8285 7.37017 31.792 7.318L31.892 6.913C31.9059 6.91786 31.9203 6.92088 31.935 6.922C31.9835 6.922 32.0301 6.90272 32.0644 6.8684C32.0987 6.83408 32.118 6.78753 32.118 6.739C32.118 6.69047 32.0987 6.64392 32.0644 6.6096C32.0301 6.57528 31.9825 6.556 31.934 6.556ZM23.125 7.3L22.765 7.666C22.74 7.69171 22.7101 7.71211 22.677 7.726L23.344 8.405L22.369 9.397L23.005 10.045L23.26 9.785L23.132 9.656L23.387 9.397L23.514 9.527L23.642 9.397L23.896 9.657L23.769 9.786L23.896 9.916L23.642 10.174L23.514 10.044L23.26 10.304L23.896 10.951L24.871 9.959L26.393 11.509C26.4264 11.515 26.4574 11.5306 26.482 11.554L26.894 11.974V11.134C26.8951 11.0938 26.9095 11.0551 26.935 11.024L23.185 7.207C23.1715 7.24175 23.1511 7.27339 23.125 7.3ZM29.399 13.532L27.817 11.921L27.307 12.439L27.653 12.791L28.89 14.05C28.9232 14.084 28.9628 14.1111 29.0066 14.1296C29.0504 14.1481 29.0975 14.1576 29.145 14.1576C29.1925 14.1576 29.2396 14.1481 29.2834 14.1296C29.3272 14.1111 29.3668 14.084 29.4 14.05C29.4678 13.9808 29.5058 13.8878 29.5058 13.791C29.5058 13.6942 29.4668 13.6012 29.399 13.532ZM27.254 11.349V11.975L27.562 11.662L27.254 11.349ZM32.384 14.506C32.4128 14.5168 32.4432 14.5226 32.474 14.523C32.5286 14.524 32.5822 14.5087 32.6281 14.4791C32.674 14.4495 32.71 14.4069 32.7316 14.3567C32.7532 14.3066 32.7593 14.2512 32.7493 14.1975C32.7393 14.1438 32.7135 14.0943 32.6752 14.0554C32.637 14.0164 32.588 13.9897 32.5345 13.9787C32.481 13.9677 32.4255 13.9728 32.375 13.9935C32.3244 14.0141 32.2812 14.0494 32.2507 14.0947C32.2203 14.14 32.204 14.1934 32.204 14.248C32.2044 14.2794 32.2101 14.3105 32.221 14.34C32.2791 14.3918 32.3329 14.4473 32.384 14.506ZM32.474 16.904C32.4432 16.9044 32.4128 16.9101 32.384 16.921C32.3332 16.9797 32.2788 17.0352 32.221 17.087C32.2102 17.1165 32.2044 17.1476 32.204 17.179C32.205 17.2322 32.2217 17.2839 32.2519 17.3276C32.2822 17.3714 32.3247 17.4052 32.3741 17.4249C32.4235 17.4445 32.4776 17.4492 32.5297 17.4382C32.5817 17.4272 32.6294 17.4011 32.6666 17.3632C32.7039 17.3252 32.7291 17.2771 32.7391 17.2249C32.7491 17.1726 32.7435 17.1186 32.7229 17.0696C32.7024 17.0205 32.6678 16.9786 32.6235 16.9492C32.5792 16.9197 32.5272 16.904 32.474 16.904ZM29.594 13.974C29.5211 13.974 29.4511 14.003 29.3995 14.0545C29.348 14.1061 29.319 14.1761 29.319 14.249C29.319 14.3219 29.348 14.3919 29.3995 14.4435C29.4511 14.495 29.5211 14.524 29.594 14.524C29.6248 14.5233 29.6553 14.5172 29.684 14.506C29.7351 14.4473 29.7899 14.3918 29.848 14.34C29.8585 14.3105 29.8639 14.2793 29.864 14.248C29.8643 14.2123 29.8575 14.1769 29.8441 14.1438C29.8306 14.1107 29.8108 14.0805 29.7858 14.0551C29.7607 14.0296 29.7308 14.0094 29.6979 13.9955C29.665 13.9816 29.6297 13.9743 29.594 13.974ZM29.388 17.354C29.4127 17.385 29.4441 17.41 29.4797 17.4273C29.5153 17.4446 29.5544 17.4537 29.594 17.454C29.6298 17.4537 29.6652 17.4464 29.6982 17.4324C29.7311 17.4185 29.761 17.3981 29.7861 17.3726C29.8112 17.347 29.831 17.3168 29.8444 17.2836C29.8577 17.2503 29.8644 17.2148 29.864 17.179C29.8636 17.1683 29.8626 17.1576 29.861 17.147C29.7079 17.2264 29.55 17.2949 29.388 17.354Z"
		fill="#D2D2D2"
	/>
	<path
		d="M22.844 15.714C22.8443 15.7497 22.8375 15.7851 22.8241 15.8182C22.8106 15.8513 22.7908 15.8815 22.7657 15.9069C22.7407 15.9324 22.7108 15.9526 22.6779 15.9665C22.645 15.9804 22.6097 15.9877 22.574 15.988C22.5387 15.9881 22.5037 15.9811 22.4711 15.9675C22.4385 15.954 22.4089 15.9341 22.384 15.909C22.3328 15.857 22.3041 15.787 22.3041 15.714C22.3041 15.641 22.3328 15.571 22.384 15.519C22.4088 15.4937 22.4384 15.4737 22.471 15.4599C22.5036 15.4462 22.5386 15.4391 22.574 15.439C22.6098 15.4393 22.6452 15.4466 22.6782 15.4606C22.7111 15.4745 22.741 15.4949 22.7661 15.5204C22.7912 15.546 22.811 15.5762 22.8244 15.6095C22.8377 15.6427 22.8444 15.6782 22.844 15.714ZM23.654 15.439C23.5811 15.439 23.5111 15.468 23.4595 15.5195C23.408 15.5711 23.379 15.6411 23.379 15.714C23.379 15.7869 23.408 15.8569 23.4595 15.9085C23.5111 15.96 23.5811 15.989 23.654 15.989C23.6894 15.9889 23.7244 15.9818 23.757 15.9681C23.7897 15.9543 23.8192 15.9343 23.844 15.909C23.8952 15.857 23.9239 15.787 23.9239 15.714C23.9239 15.641 23.8952 15.571 23.844 15.519C23.8192 15.4937 23.7897 15.4737 23.757 15.4599C23.7244 15.4462 23.6894 15.4391 23.654 15.439ZM23.114 15.439C23.1498 15.4387 23.1852 15.4314 23.2182 15.4174C23.2511 15.4035 23.281 15.3831 23.3061 15.3576C23.3312 15.332 23.351 15.3018 23.3644 15.2685C23.3777 15.2353 23.3844 15.1998 23.384 15.164C23.3842 15.092 23.3562 15.0227 23.306 14.971C23.2812 14.9453 23.2514 14.9248 23.2185 14.9108C23.1856 14.8968 23.1503 14.8896 23.1145 14.8896C23.0787 14.8896 23.0434 14.8968 23.0105 14.9108C22.9776 14.9248 22.9478 14.9453 22.923 14.971C22.8728 15.0227 22.8448 15.092 22.845 15.164C22.8446 15.1998 22.8513 15.2353 22.8646 15.2685C22.878 15.3018 22.8978 15.332 22.9229 15.3576C22.948 15.3831 22.9779 15.4035 23.0108 15.4174C23.0438 15.4314 23.0782 15.4387 23.114 15.439ZM23.114 15.989C23.0783 15.9893 23.043 15.9966 23.0101 16.0105C22.9772 16.0244 22.9473 16.0446 22.9223 16.0701C22.8972 16.0955 22.8774 16.1257 22.8639 16.1588C22.8505 16.1919 22.8437 16.2273 22.844 16.263C22.8438 16.335 22.8718 16.4043 22.922 16.456C22.9468 16.4819 22.9766 16.5025 23.0096 16.5166C23.0426 16.5306 23.0781 16.5379 23.114 16.5379C23.1499 16.5379 23.1854 16.5306 23.2184 16.5166C23.2514 16.5025 23.2812 16.4819 23.306 16.456C23.3562 16.4043 23.3842 16.335 23.384 16.263C23.3844 16.2272 23.3777 16.1917 23.3644 16.1584C23.351 16.1252 23.3312 16.095 23.3061 16.0694C23.281 16.0439 23.2511 16.0235 23.2182 16.0096C23.1852 15.9956 23.1498 15.9883 23.114 15.988V15.989ZM31.764 15.519C31.7392 15.4937 31.7097 15.4737 31.677 15.4599C31.6444 15.4462 31.6094 15.4391 31.574 15.439C31.5011 15.439 31.4311 15.468 31.3795 15.5195C31.328 15.5711 31.299 15.6411 31.299 15.714C31.299 15.7869 31.328 15.8569 31.3795 15.9085C31.4311 15.96 31.5011 15.989 31.574 15.989C31.6094 15.9889 31.6444 15.9818 31.677 15.9681C31.7097 15.9543 31.7392 15.9343 31.764 15.909C31.8152 15.857 31.8439 15.787 31.8439 15.714C31.8439 15.641 31.8152 15.571 31.764 15.519ZM30.494 15.439C30.4586 15.4391 30.4236 15.4462 30.391 15.4599C30.3584 15.4737 30.3288 15.4937 30.304 15.519C30.2528 15.571 30.2241 15.641 30.2241 15.714C30.2241 15.787 30.2528 15.857 30.304 15.909C30.3288 15.9343 30.3584 15.9543 30.391 15.9681C30.4236 15.9818 30.4586 15.9889 30.494 15.989C30.5669 15.989 30.6369 15.96 30.6885 15.9085C30.74 15.8569 30.769 15.7869 30.769 15.714C30.769 15.6411 30.74 15.5711 30.6885 15.5195C30.6369 15.468 30.5669 15.439 30.494 15.439ZM31.034 15.439C31.0698 15.4387 31.1052 15.4314 31.1382 15.4174C31.1711 15.4035 31.201 15.3831 31.2261 15.3576C31.2512 15.332 31.271 15.3018 31.2844 15.2685C31.2977 15.2353 31.3044 15.1998 31.304 15.164C31.3042 15.092 31.2762 15.0227 31.226 14.971C31.2012 14.9453 31.1714 14.9248 31.1385 14.9108C31.1056 14.8968 31.0703 14.8896 31.0345 14.8896C30.9987 14.8896 30.9634 14.8968 30.9305 14.9108C30.8976 14.9248 30.8678 14.9453 30.843 14.971C30.7928 15.0227 30.7648 15.092 30.765 15.164C30.7646 15.1998 30.7713 15.2353 30.7846 15.2685C30.798 15.3018 30.8178 15.332 30.8429 15.3576C30.868 15.3831 30.8979 15.4035 30.9308 15.4174C30.9638 15.4314 30.9982 15.4387 31.034 15.439ZM31.034 15.989C30.9983 15.9893 30.963 15.9966 30.9301 16.0105C30.8972 16.0244 30.8673 16.0446 30.8423 16.0701C30.8172 16.0955 30.7974 16.1257 30.7839 16.1588C30.7705 16.1919 30.7637 16.2273 30.764 16.263C30.7641 16.3352 30.7924 16.4045 30.843 16.456C30.8678 16.4817 30.8976 16.5022 30.9305 16.5162C30.9634 16.5302 30.9987 16.5374 31.0345 16.5374C31.0703 16.5374 31.1056 16.5302 31.1385 16.5162C31.1714 16.5022 31.2012 16.4817 31.226 16.456C31.2762 16.4043 31.3042 16.335 31.304 16.263C31.3044 16.2272 31.2977 16.1917 31.2844 16.1584C31.271 16.1252 31.2512 16.095 31.2261 16.0694C31.201 16.0439 31.1711 16.0235 31.1382 16.0096C31.1052 15.9956 31.0698 15.9883 31.034 15.988V15.989Z"
		fill="#F0C814"
	/>
	<path
		d="M27.975 19.194V19.926H27.222C27.2434 19.985 27.2545 20.0472 27.255 20.11V20.842H26.175V20.11C26.1747 20.0123 26.2006 19.9163 26.2498 19.832C26.299 19.7476 26.3698 19.6779 26.455 19.63C26.5209 19.5912 26.5947 19.5678 26.6709 19.5616C26.7471 19.5554 26.8237 19.5664 26.895 19.594V19.194C26.8953 19.1522 26.9004 19.1106 26.91 19.07C26.9268 18.9954 26.959 18.9252 27.0047 18.8639C27.0503 18.8025 27.1084 18.7515 27.175 18.714C27.2537 18.668 27.3433 18.6437 27.4345 18.6437C27.5257 18.6437 27.6153 18.668 27.694 18.714C27.7792 18.7619 27.85 18.8316 27.8992 18.916C27.9484 19.0003 27.9753 19.0963 27.975 19.194ZM30.31 16.802C30.3015 16.8468 30.2765 16.8867 30.24 16.914C30.13 16.9939 30.0143 17.0657 29.894 17.129L29.861 17.147C29.7079 17.2264 29.55 17.2949 29.388 17.354C28.8163 17.5553 28.2191 17.6752 27.614 17.71V18.145C27.5598 18.1118 27.4975 18.0941 27.434 18.0941C27.3705 18.0941 27.3082 18.1118 27.254 18.145V17.725L27.074 17.728L26.894 17.726V19.061C26.8398 19.0278 26.7775 19.0101 26.714 19.0101C26.6505 19.0101 26.5882 19.0278 26.534 19.061V17.71C25.9289 17.6752 25.3327 17.5553 24.761 17.354C24.5991 17.2951 24.4411 17.226 24.288 17.147L24.255 17.129C24.1344 17.0657 24.0184 16.9938 23.908 16.914C23.87 16.8845 23.8447 16.8415 23.8372 16.7939C23.8298 16.7464 23.8408 16.6977 23.868 16.658C23.8952 16.62 23.9362 16.5942 23.9822 16.5861C24.0282 16.5781 24.0756 16.5884 24.114 16.615L24.119 16.617C24.245 16.7081 24.3788 16.7877 24.519 16.855C25.1549 17.1402 25.838 17.3053 26.534 17.342V14.769C26.0195 15.5099 25.3796 16.1553 24.643 16.676C24.7638 16.4779 24.8459 16.2587 24.885 16.03C25.5265 15.4781 26.0826 14.8341 26.535 14.119V12.876L26.495 12.791L26.841 12.439L26.332 11.921L26.227 11.814C26.1928 11.7794 26.1736 11.7327 26.1736 11.684C26.1736 11.6353 26.1928 11.5886 26.227 11.554C26.2616 11.5217 26.3072 11.5038 26.3545 11.5038C26.4018 11.5038 26.4474 11.5217 26.482 11.554L26.894 11.974V11.134C26.8951 11.0938 26.9095 11.0551 26.935 11.024C26.9508 11.0017 26.9717 10.9835 26.996 10.971C27.0203 10.9584 27.0472 10.9519 27.0745 10.9519C27.1018 10.9519 27.1287 10.9584 27.153 10.971C27.1773 10.9835 27.1982 11.0017 27.214 11.024C27.2391 11.0552 27.2532 11.0939 27.254 11.134V11.974L27.562 11.662L27.667 11.555C27.7016 11.5227 27.7472 11.5048 27.7945 11.5048C27.8418 11.5048 27.8874 11.5227 27.922 11.555C27.9559 11.5896 27.9749 11.6361 27.9749 11.6845C27.9749 11.7329 27.9559 11.7794 27.922 11.814L27.817 11.921L27.307 12.439L27.653 12.791L27.615 12.876V14.12C28.0666 14.8357 28.6224 15.4802 29.264 16.032C29.3034 16.26 29.3855 16.4785 29.506 16.676C28.7691 16.1553 28.1288 15.51 27.614 14.769V17.342C28.3099 17.3056 28.9931 17.1409 29.629 16.856C29.7692 16.7885 29.9031 16.7085 30.029 16.617L30.035 16.615C30.0733 16.5885 30.1205 16.5782 30.1663 16.5862C30.2122 16.5943 30.253 16.6201 30.28 16.658C30.2947 16.6786 30.3049 16.7021 30.3101 16.7269C30.3153 16.7516 30.3152 16.7772 30.31 16.802ZM27.254 14.233C27.1924 14.1343 27.1323 14.0347 27.074 13.934C27.014 14.037 26.954 14.137 26.894 14.234V17.359C27.014 17.3619 27.134 17.3619 27.254 17.359V14.233Z"
		fill="#FF4B55"
	/>
	<path
		d="M28.854 6.086L28.874 6.503C28.874 6.419 28.798 6.34 28.665 6.271L28.706 6.187C28.7373 6.18475 28.7674 6.17433 28.7934 6.15678C28.8193 6.13923 28.8402 6.11417 28.854 6.086ZM25.484 6.271L25.443 6.187C25.4118 6.18465 25.3817 6.17419 25.3557 6.15665C25.3298 6.13911 25.3088 6.11511 25.295 6.087L25.275 6.503C25.275 6.419 25.351 6.34 25.484 6.271ZM25.454 5.823C25.4865 5.82312 25.5184 5.83206 25.5463 5.84886C25.5742 5.86567 25.597 5.88972 25.6122 5.91844C25.6275 5.94717 25.6347 5.9795 25.6331 6.012C25.6315 6.04449 25.6211 6.07594 25.603 6.103L25.65 6.2C25.8108 6.14511 25.9761 6.10429 26.144 6.078L26.124 5.996C26.0915 5.98686 26.0622 5.96883 26.0395 5.94394C26.0167 5.91905 26.0013 5.88828 25.9951 5.85512C25.9889 5.82196 25.9921 5.78772 26.0043 5.75626C26.0165 5.72481 26.0372 5.69739 26.0642 5.67711C26.0912 5.65683 26.1233 5.64449 26.1569 5.64148C26.1905 5.63847 26.2243 5.64492 26.2544 5.66009C26.2845 5.67526 26.3098 5.69856 26.3274 5.72734C26.345 5.75613 26.3542 5.78926 26.354 5.823C26.354 5.84739 26.3491 5.87153 26.3397 5.89402C26.3302 5.91651 26.3164 5.9369 26.299 5.954L26.323 6.052C26.423 6.039 26.529 6.029 26.638 6.022C26.6292 5.987 26.6245 5.95109 26.624 5.915C26.624 5.79565 26.6714 5.68119 26.7558 5.5968C26.8402 5.51241 26.9547 5.465 27.074 5.465C27.1933 5.465 27.3078 5.51241 27.3922 5.5968C27.4766 5.68119 27.524 5.79565 27.524 5.915C27.5239 5.95105 27.5195 5.98697 27.511 6.022C27.621 6.029 27.725 6.039 27.825 6.052L27.849 5.954C27.8317 5.93702 27.818 5.91679 27.8085 5.89448C27.7991 5.87218 27.7942 5.84822 27.794 5.824C27.7938 5.79052 27.803 5.75765 27.8205 5.72909C27.838 5.70053 27.8631 5.67742 27.893 5.66235C27.9229 5.64728 27.9564 5.64085 27.9897 5.64377C28.0231 5.6467 28.055 5.65888 28.0818 5.67893C28.1086 5.69899 28.1293 5.72612 28.1415 5.75729C28.1538 5.78846 28.1571 5.82242 28.1511 5.85536C28.1451 5.88831 28.13 5.91892 28.1076 5.94376C28.0851 5.96861 28.0562 5.9867 28.024 5.996L28.004 6.078C28.1722 6.10418 28.3379 6.145 28.499 6.2L28.546 6.104C28.528 6.07701 28.5176 6.04566 28.5159 6.01324C28.5142 5.98083 28.5214 5.94857 28.5365 5.91988C28.5517 5.89118 28.5743 5.86712 28.6021 5.85025C28.6298 5.83337 28.6615 5.8243 28.694 5.824C28.7246 5.82435 28.7547 5.83264 28.7811 5.84806C28.8076 5.86349 28.8296 5.88552 28.845 5.912L28.831 5.632C28.295 5.3379 27.6824 5.21309 27.074 5.274C26.4658 5.21347 25.8536 5.33863 25.318 5.633L25.304 5.913C25.319 5.88622 25.3407 5.86383 25.367 5.84804C25.3933 5.83226 25.4233 5.82362 25.454 5.823ZM26.32 4.596L26.304 4.531C26.2715 4.52187 26.2422 4.50383 26.2195 4.47894C26.1967 4.45405 26.1813 4.42328 26.1751 4.39012C26.1689 4.35696 26.1721 4.32272 26.1843 4.29126C26.1965 4.25981 26.2172 4.23239 26.2442 4.21211C26.2712 4.19183 26.3033 4.17949 26.3369 4.17648C26.3705 4.17347 26.4043 4.17992 26.4344 4.19509C26.4645 4.21026 26.4898 4.23356 26.5074 4.26234C26.525 4.29113 26.5342 4.32426 26.534 4.358C26.534 4.38239 26.5291 4.40653 26.5197 4.42902C26.5102 4.45151 26.4964 4.4719 26.479 4.489L26.499 4.572C26.6903 4.55143 26.8826 4.54141 27.075 4.542C27.0205 4.54299 26.9668 4.52774 26.921 4.49817C26.8751 4.46861 26.8391 4.42607 26.8175 4.37598C26.7959 4.32588 26.7897 4.27049 26.7996 4.21685C26.8096 4.16321 26.8353 4.11374 26.8734 4.07474C26.9116 4.03574 26.9605 4.00897 27.0139 3.99783C27.0673 3.9867 27.1228 3.9917 27.1734 4.01221C27.2239 4.03271 27.2672 4.06779 27.2978 4.11299C27.3284 4.15818 27.3448 4.21144 27.345 4.266C27.3454 4.3018 27.3387 4.33733 27.3254 4.37055C27.312 4.40377 27.2922 4.43402 27.2671 4.45957C27.242 4.48512 27.2121 4.50546 27.1792 4.51944C27.1462 4.53341 27.1108 4.54174 27.075 4.542C27.2667 4.54148 27.4584 4.5505 27.649 4.571L27.669 4.489C27.6516 4.4719 27.6378 4.45151 27.6283 4.42902C27.6189 4.40653 27.614 4.38239 27.614 4.358C27.614 4.32456 27.6233 4.29178 27.6409 4.26335C27.6586 4.23491 27.6837 4.21194 27.7137 4.19701C27.7436 4.18208 27.7771 4.17579 27.8104 4.17883C27.8437 4.18187 27.8755 4.19413 27.9022 4.21423C27.9289 4.23434 27.9495 4.26149 27.9617 4.29264C27.9738 4.32379 27.9771 4.35772 27.971 4.39061C27.965 4.4235 27.9499 4.45406 27.9275 4.47886C27.905 4.50365 27.8761 4.52171 27.844 4.531L27.829 4.596C27.92 4.61 28.005 4.626 28.082 4.646L28.214 4.376C28.0247 4.04246 27.7187 3.79067 27.355 3.669C27.1721 3.6113 26.9759 3.6113 26.793 3.669C26.4292 3.79058 26.1233 4.0424 25.934 4.376L26.067 4.646C26.144 4.626 26.229 4.61 26.32 4.596ZM27.074 6.881C26.08 6.881 25.274 7.055 25.274 7.268L25.277 7.288C25.2888 7.36616 25.3106 7.44246 25.342 7.515C25.3731 7.48792 25.4128 7.47269 25.454 7.472C25.4865 7.47212 25.5184 7.48106 25.5463 7.49786C25.5742 7.51467 25.597 7.53871 25.6122 7.56744C25.6275 7.59617 25.6347 7.6285 25.6331 7.661C25.6315 7.69349 25.6211 7.72494 25.603 7.752L25.671 7.891C25.8229 7.82042 25.9832 7.76967 26.148 7.74L26.124 7.644C26.0915 7.63485 26.0622 7.61678 26.0394 7.59184C26.0166 7.5669 26.0012 7.53608 25.9951 7.50287C25.9889 7.46966 25.9921 7.43538 26.0044 7.40391C26.0167 7.37244 26.0376 7.34504 26.0646 7.32481C26.0917 7.30458 26.1238 7.29232 26.1575 7.28943C26.1912 7.28653 26.225 7.29312 26.2551 7.30843C26.2852 7.32375 26.3104 7.34718 26.3279 7.37609C26.3454 7.405 26.3544 7.43822 26.354 7.472C26.3538 7.49622 26.3489 7.52018 26.3395 7.54248C26.33 7.56479 26.3163 7.58502 26.299 7.602L26.325 7.708C26.5138 7.68011 26.7042 7.66342 26.895 7.658V7.492C26.8542 7.45555 26.8255 7.40757 26.8126 7.35444C26.7997 7.3013 26.8033 7.24549 26.8228 7.19441C26.8423 7.14333 26.8768 7.09938 26.9219 7.06837C26.9669 7.03736 27.0203 7.02075 27.075 7.02075C27.1297 7.02075 27.1831 7.03736 27.2281 7.06837C27.2732 7.09938 27.3077 7.14333 27.3272 7.19441C27.3467 7.24549 27.3503 7.3013 27.3374 7.35444C27.3245 7.40757 27.2958 7.45555 27.255 7.492V7.658C27.4455 7.66353 27.6355 7.68022 27.824 7.708L27.85 7.603C27.8326 7.5859 27.8188 7.56551 27.8093 7.54302C27.7999 7.52053 27.795 7.49639 27.795 7.472C27.7948 7.43852 27.804 7.40565 27.8215 7.37709C27.839 7.34853 27.8641 7.32542 27.894 7.31035C27.9239 7.29528 27.9574 7.28884 27.9907 7.29177C28.0241 7.2947 28.056 7.30688 28.0828 7.32693C28.1096 7.34699 28.1303 7.37412 28.1425 7.40529C28.1548 7.43646 28.1581 7.47042 28.1521 7.50336C28.1461 7.53631 28.131 7.56692 28.1086 7.59176C28.0861 7.61661 28.0572 7.6347 28.025 7.644L28 7.74C28.1648 7.76973 28.3251 7.82048 28.477 7.891L28.545 7.752C28.527 7.72501 28.5166 7.69366 28.5149 7.66124C28.5132 7.62883 28.5204 7.59657 28.5355 7.56788C28.5507 7.53918 28.5733 7.51512 28.6011 7.49825C28.6288 7.48137 28.6605 7.4723 28.693 7.472C28.7342 7.47269 28.7739 7.48792 28.805 7.515C28.8367 7.44249 28.8589 7.3662 28.871 7.288L28.873 7.268C28.873 7.055 28.069 6.881 27.074 6.881ZM27.074 8.388C26.379 8.388 25.814 8.552 25.814 8.754C25.814 8.956 26.379 9.12 27.074 9.12C27.769 9.12 28.334 8.956 28.334 8.754C28.334 8.552 27.77 8.388 27.074 8.388Z"
		fill="#EBEBEB"
	/>
	<path
		d="M26.793 3.669C26.7555 3.62153 26.7304 3.5655 26.7198 3.50593C26.7093 3.44636 26.7136 3.38511 26.7326 3.32765C26.7515 3.27019 26.7844 3.21832 26.8282 3.17667C26.8721 3.13502 26.9256 3.1049 26.984 3.089V2.864C26.9497 2.84419 26.9229 2.81361 26.9077 2.777C26.8925 2.74039 26.8899 2.6998 26.9001 2.66153C26.9104 2.62325 26.933 2.58943 26.9644 2.56531C26.9959 2.54119 27.0344 2.52812 27.074 2.52812C27.1136 2.52812 27.1521 2.54119 27.1836 2.56531C27.215 2.58943 27.2376 2.62325 27.2479 2.66153C27.2581 2.6998 27.2555 2.74039 27.2403 2.777C27.2251 2.81361 27.1983 2.84419 27.164 2.864V3.089C27.2224 3.1049 27.2759 3.13502 27.3198 3.17667C27.3636 3.21832 27.3965 3.27019 27.4154 3.32765C27.4344 3.38511 27.4387 3.44636 27.4282 3.50593C27.4176 3.5655 27.3925 3.62153 27.355 3.669C27.1721 3.6113 26.9759 3.6113 26.793 3.669ZM26.714 19.0101C26.6505 19.0101 26.5882 19.0278 26.534 19.061C26.4863 19.0891 26.4456 19.1276 26.4149 19.1736C26.3841 19.2197 26.3642 19.2721 26.3566 19.3269C26.349 19.3817 26.3539 19.4376 26.371 19.4902C26.388 19.5429 26.4167 19.591 26.455 19.631C26.5208 19.5921 26.5947 19.568 26.6709 19.5616C26.7471 19.5554 26.8237 19.5664 26.895 19.594V19.194C26.8953 19.1522 26.9004 19.1106 26.91 19.07L26.894 19.061C26.8398 19.0278 26.7775 19.0101 26.714 19.0101ZM27.614 18.145C27.5598 18.1118 27.4975 18.0941 27.434 18.0941C27.3705 18.0941 27.3082 18.1118 27.254 18.145C27.2066 18.1731 27.1662 18.2125 27.1357 18.2584C27.1052 18.3043 27.0855 18.3564 27.0779 18.411C27.0703 18.4656 27.0751 18.5211 27.0919 18.5736C27.1087 18.626 27.1371 18.674 27.175 18.714C27.2537 18.668 27.3433 18.6437 27.4345 18.6437C27.5257 18.6437 27.6153 18.668 27.694 18.714C27.7318 18.674 27.7602 18.6259 27.7769 18.5734C27.7937 18.5209 27.7984 18.4653 27.7907 18.4108C27.783 18.3562 27.7631 18.3041 27.7325 18.2582C27.7019 18.2124 27.6614 18.173 27.614 18.145ZM27.254 11.349L27.562 11.662L27.667 11.555C27.6912 11.5314 27.7218 11.5155 27.755 11.509L29.278 9.959L30.253 10.952L30.889 10.304L30.635 10.045L30.507 10.175L30.253 9.915L30.38 9.786L30.253 9.656L30.507 9.398L30.635 9.528L30.762 9.398L31.016 9.657L30.889 9.787L31.144 10.045L31.78 9.398L30.805 8.405L31.4712 7.72513C31.4379 7.71159 31.4084 7.69139 31.383 7.666L31.023 7.3C30.9969 7.2734 30.9765 7.24176 30.963 7.207L27.213 11.024C27.2385 11.0551 27.2529 11.0938 27.254 11.134V11.349ZM26.841 12.439L26.332 11.921L24.75 13.531C24.6819 13.6002 24.6437 13.6934 24.6437 13.7905C24.6437 13.8876 24.6819 13.9808 24.75 14.05C24.7832 14.084 24.8228 14.1111 24.8666 14.1296C24.9104 14.1481 24.9575 14.1576 25.005 14.1576C25.0525 14.1576 25.0996 14.1481 25.1434 14.1296C25.1872 14.1111 25.2268 14.084 25.26 14.05L26.841 12.439ZM24.465 14.506C24.7438 14.8312 24.9006 15.2429 24.9107 15.6712C24.9207 16.0995 24.7823 16.5181 24.519 16.856C24.3788 16.7885 24.2449 16.7085 24.119 16.617L24.114 16.615C24.1559 16.5536 24.1823 16.4831 24.1909 16.4093C24.1996 16.3355 24.1903 16.2607 24.1637 16.1914C24.1372 16.122 24.0942 16.0601 24.0386 16.0109C23.9829 15.9617 23.9161 15.9268 23.844 15.909C23.8952 15.857 23.9239 15.787 23.9239 15.714C23.9239 15.641 23.8952 15.571 23.844 15.519C23.9245 15.5024 23.999 15.4645 24.0597 15.4092C24.1204 15.3538 24.1651 15.2832 24.189 15.2046C24.2129 15.126 24.2153 15.0424 24.1957 14.9627C24.1762 14.8829 24.1355 14.8098 24.0779 14.7512C24.0204 14.6926 23.9481 14.6506 23.8687 14.6296C23.7893 14.6086 23.7057 14.6094 23.6267 14.6319C23.5477 14.6543 23.4762 14.6977 23.4198 14.7574C23.3634 14.8171 23.324 14.8909 23.306 14.971C23.2812 14.9453 23.2514 14.9248 23.2185 14.9108C23.1856 14.8968 23.1503 14.8896 23.1145 14.8896C23.0787 14.8896 23.0434 14.8968 23.0105 14.9108C22.9776 14.9248 22.9478 14.9453 22.923 14.971C22.9037 14.8933 22.8631 14.8221 22.8071 14.7649C22.7512 14.7076 22.681 14.6663 22.6038 14.6452C22.5265 14.6241 22.4451 14.624 22.3678 14.6449C22.2905 14.6658 22.2202 14.7069 22.1641 14.7641C22.108 14.8212 22.0682 14.8922 22.0487 14.9699C22.0293 15.0476 22.0309 15.129 22.0534 15.2058C22.0759 15.2827 22.1185 15.3521 22.1768 15.407C22.2351 15.4618 22.307 15.5002 22.385 15.518C22.3335 15.57 22.3041 15.6408 22.3041 15.714C22.3041 15.787 22.3328 15.857 22.384 15.909C22.3034 15.9254 22.2297 15.9632 22.1688 16.0184C22.1079 16.0737 22.063 16.1444 22.0389 16.223C22.0148 16.3017 22.0124 16.3854 22.0319 16.4653C22.0514 16.5452 22.0921 16.6183 22.1498 16.677C22.2074 16.7357 22.2798 16.7778 22.3593 16.7988C22.4388 16.8197 22.5226 16.8189 22.6016 16.7962C22.6807 16.7736 22.7522 16.73 22.8086 16.6702C22.865 16.6103 22.9042 16.5363 22.922 16.456C22.9468 16.4819 22.9766 16.5025 23.0096 16.5166C23.0426 16.5306 23.0781 16.5379 23.114 16.5379C23.1499 16.5379 23.1854 16.5306 23.2184 16.5166C23.2514 16.5025 23.2812 16.4819 23.306 16.456C23.3276 16.5564 23.3827 16.6465 23.4623 16.7114C23.542 16.7763 23.6413 16.8121 23.744 16.813C23.776 16.8128 23.8078 16.8091 23.839 16.802C23.8475 16.8468 23.8715 16.8867 23.908 16.914C24.0184 16.9938 24.1344 17.0657 24.255 17.129C23.9278 17.4048 23.5117 17.5526 23.0838 17.5451C22.6559 17.5375 22.2453 17.3741 21.928 17.087C21.7349 16.914 21.5805 16.7032 21.4747 16.4664C21.369 16.2297 21.3143 15.9733 21.3143 15.714C21.3143 15.4547 21.369 15.1983 21.4747 14.9616C21.5805 14.7248 21.7349 14.513 21.928 14.34C22.2529 14.0453 22.6759 13.882 23.1145 13.882C23.5531 13.882 23.9761 14.0453 24.301 14.34C24.3591 14.3918 24.4139 14.4473 24.465 14.506ZM22.75 17.13C22.9882 17.1958 23.2398 17.1958 23.478 17.13C23.3341 17.0782 23.2079 16.9867 23.114 16.866C23.0201 16.9867 22.8939 17.0782 22.75 17.13ZM21.982 15.714C21.8624 15.6174 21.7723 15.4892 21.722 15.344C21.6575 15.5864 21.6575 15.8416 21.722 16.084C21.7724 15.9388 21.8624 15.8106 21.982 15.714ZM23.479 14.298C23.2405 14.232 22.9885 14.232 22.75 14.298C22.8937 14.3496 23.0199 14.4407 23.114 14.561C23.2083 14.4405 23.3349 14.3493 23.479 14.298ZM24.506 15.343C24.4559 15.4881 24.3662 15.6163 24.247 15.713C24.3663 15.81 24.4561 15.9385 24.506 16.084C24.5705 15.8416 24.5705 15.5854 24.506 15.343ZM32.834 15.713C32.8341 15.9722 32.7795 16.2286 32.6739 16.4653C32.5683 16.7021 32.414 16.9139 32.221 17.087C31.9038 17.3743 31.4933 17.5368 31.0654 17.5446C30.6375 17.5523 30.2213 17.4046 29.894 17.129C30.0143 17.0657 30.13 16.9939 30.24 16.914C30.2765 16.8867 30.3015 16.8468 30.31 16.802C30.3409 16.8087 30.3724 16.812 30.404 16.812C30.5066 16.8112 30.6058 16.7755 30.6854 16.7108C30.765 16.6461 30.8202 16.5562 30.842 16.456C30.8668 16.4819 30.8975 16.5021 30.9305 16.5162C30.9634 16.5302 30.9987 16.5374 31.0345 16.5374C31.0703 16.5374 31.1056 16.5302 31.1385 16.5162C31.1714 16.5022 31.2012 16.4817 31.226 16.456C31.2453 16.5336 31.2849 16.6047 31.3409 16.662C31.3968 16.7192 31.4669 16.7605 31.5441 16.7815C31.6213 16.8026 31.7027 16.8028 31.7799 16.7819C31.8572 16.7611 31.9274 16.72 31.9835 16.663C32.0396 16.606 32.0795 16.535 32.0991 16.4574C32.1186 16.3799 32.1171 16.2985 32.0948 16.2217C32.0724 16.1448 32.03 16.0754 31.9718 16.0204C31.9137 15.9655 31.8419 15.927 31.764 15.909C31.8152 15.857 31.8439 15.787 31.8439 15.714C31.8439 15.641 31.8152 15.571 31.764 15.519C31.8445 15.5024 31.919 15.4645 31.9797 15.4092C32.0404 15.3538 32.0851 15.2832 32.109 15.2046C32.1329 15.126 32.1353 15.0424 32.1157 14.9627C32.0962 14.8829 32.0555 14.8098 31.9979 14.7512C31.9404 14.6926 31.8681 14.6506 31.7887 14.6296C31.7093 14.6086 31.6257 14.6094 31.5467 14.6319C31.4677 14.6543 31.3962 14.6977 31.3398 14.7574C31.2834 14.8171 31.244 14.8909 31.226 14.971C31.2012 14.9453 31.1714 14.9248 31.1385 14.9108C31.1056 14.8968 31.0703 14.8896 31.0345 14.8896C30.9987 14.8896 30.9634 14.8968 30.9305 14.9108C30.8975 14.9249 30.8668 14.9451 30.842 14.971C30.8227 14.8933 30.7831 14.8221 30.7271 14.7649C30.6712 14.7076 30.601 14.6663 30.5238 14.6452C30.4465 14.6241 30.3651 14.624 30.2878 14.6449C30.2105 14.6658 30.1402 14.7069 30.0841 14.7641C30.028 14.8212 29.9882 14.8922 29.9687 14.9699C29.9493 15.0476 29.9509 15.129 29.9734 15.2058C29.9959 15.2827 30.0385 15.3521 30.0968 15.407C30.1551 15.4618 30.227 15.5002 30.305 15.518C30.2535 15.57 30.2241 15.6408 30.2241 15.714C30.2241 15.787 30.2528 15.857 30.304 15.909C30.2319 15.9268 30.1661 15.9617 30.1104 16.0109C30.0548 16.0601 30.0118 16.122 29.9853 16.1914C29.9587 16.2607 29.9494 16.3355 29.9581 16.4093C29.9667 16.4831 29.9931 16.5536 30.035 16.615L30.029 16.617C29.9031 16.7085 29.7692 16.7885 29.629 16.856C29.339 16.4873 29.2002 16.022 29.2409 15.5547C29.2816 15.0874 29.4987 14.6531 29.848 14.34C30.1729 14.0453 30.5959 13.882 31.0345 13.882C31.4731 13.882 31.8961 14.0453 32.221 14.34C32.414 14.5131 32.5683 14.7249 32.6739 14.9617C32.7795 15.1984 32.8341 15.4538 32.834 15.713ZM29.902 15.713C29.7828 15.6163 29.693 15.4881 29.643 15.343C29.5783 15.5858 29.5783 15.8412 29.643 16.084C29.693 15.9389 29.7828 15.8097 29.902 15.713ZM31.399 14.298C31.1605 14.232 30.9085 14.232 30.67 14.298C30.8137 14.3495 30.94 14.4407 31.034 14.561C31.1283 14.4405 31.2549 14.3493 31.399 14.298ZM31.399 17.13C31.2548 17.0784 31.1282 16.9868 31.034 16.866C30.9401 16.9867 30.8139 17.0782 30.67 17.13C30.9085 17.196 31.1605 17.196 31.399 17.13ZM32.426 16.084C32.4905 15.8416 32.4905 15.5864 32.426 15.344C32.3759 15.4891 32.2862 15.6173 32.167 15.714C32.2862 15.8107 32.3759 15.9389 32.426 16.084ZM22.214 6.922C22.2287 6.92082 22.2431 6.91779 22.257 6.913L22.357 7.318C22.3203 7.3701 22.303 7.43334 22.3079 7.49686C22.3128 7.56037 22.3397 7.62018 22.384 7.666C22.4212 7.70422 22.469 7.73038 22.5213 7.74108C22.5735 7.75178 22.6278 7.74652 22.677 7.726C22.7101 7.71211 22.74 7.69171 22.765 7.666L23.125 7.299C23.151 7.2727 23.1714 7.2414 23.185 7.207C23.2046 7.15713 23.2093 7.10266 23.1987 7.05014C23.1881 6.99763 23.1625 6.94931 23.125 6.911C23.0807 6.86657 23.022 6.83944 22.9595 6.83449C22.897 6.82954 22.8347 6.8471 22.784 6.884L22.386 6.782C22.3904 6.76805 22.3931 6.75361 22.394 6.739C22.3934 6.70353 22.3824 6.66903 22.3622 6.63983C22.3421 6.61062 22.3138 6.58802 22.2808 6.57486C22.2479 6.56169 22.2118 6.55855 22.1771 6.56583C22.1424 6.57311 22.1106 6.59049 22.0857 6.61578C22.0608 6.64107 22.044 6.67314 22.0373 6.70797C22.0306 6.7428 22.0343 6.77884 22.048 6.81156C22.0617 6.84427 22.0848 6.87221 22.1143 6.89186C22.1438 6.91151 22.1785 6.922 22.214 6.922ZM25.443 6.187L25.484 6.271C25.351 6.341 25.275 6.419 25.275 6.503L25.274 7.268C25.274 7.055 26.08 6.881 27.074 6.881C28.068 6.881 28.874 7.055 28.874 7.268L28.871 7.288H28.874V6.503C28.874 6.419 28.798 6.34 28.665 6.271L28.706 6.187C28.7374 6.18571 28.7679 6.17608 28.7943 6.15911C28.8207 6.14215 28.8422 6.11845 28.8564 6.09045C28.8707 6.06246 28.8772 6.03117 28.8754 5.99981C28.8736 5.96845 28.8634 5.93814 28.846 5.912C28.8307 5.88533 28.8088 5.8631 28.7823 5.8475C28.7558 5.83189 28.7257 5.82345 28.695 5.823C28.6625 5.82312 28.6306 5.83206 28.6027 5.84886C28.5748 5.86567 28.5521 5.88972 28.5368 5.91844C28.5215 5.94717 28.5143 5.9795 28.5159 6.012C28.5175 6.04449 28.5279 6.07694 28.546 6.104L28.499 6.2C28.3382 6.14511 28.1739 6.10429 28.006 6.078L28.026 5.996C28.0585 5.98686 28.0878 5.96883 28.1105 5.94394C28.1333 5.91905 28.1487 5.88828 28.1549 5.85512C28.1611 5.82196 28.1579 5.78772 28.1457 5.75626C28.1335 5.72481 28.1128 5.69739 28.0858 5.67711C28.0588 5.65683 28.0267 5.64449 27.9931 5.64148C27.9595 5.63847 27.9257 5.64492 27.8956 5.66009C27.8655 5.67526 27.8402 5.69856 27.8226 5.72734C27.805 5.75613 27.7958 5.78926 27.796 5.823C27.796 5.84739 27.8009 5.87153 27.8103 5.89402C27.8198 5.91651 27.8336 5.9369 27.851 5.954L27.827 6.052C27.7223 6.03899 27.6163 6.02898 27.511 6.022C27.5198 5.987 27.5255 5.95109 27.526 5.915C27.526 5.85591 27.5144 5.79739 27.4917 5.74279C27.4691 5.6882 27.436 5.63859 27.3942 5.5968C27.3524 5.55502 27.3028 5.52187 27.2482 5.49925C27.1936 5.47664 27.1351 5.465 27.076 5.465C27.0169 5.465 26.9584 5.47664 26.9038 5.49925C26.8492 5.52187 26.7996 5.55502 26.7578 5.5968C26.716 5.63859 26.6829 5.6882 26.6603 5.74279C26.6376 5.79739 26.626 5.85591 26.626 5.915C26.6261 5.95105 26.6295 5.98697 26.638 6.022C26.529 6.029 26.425 6.039 26.325 6.052L26.301 5.954C26.3183 5.93702 26.332 5.91679 26.3415 5.89448C26.3509 5.87218 26.3558 5.84822 26.356 5.824C26.3562 5.79052 26.347 5.75765 26.3295 5.72909C26.312 5.70053 26.2869 5.67742 26.257 5.66235C26.2271 5.64728 26.1936 5.64085 26.1603 5.64377C26.1269 5.6467 26.095 5.65888 26.0682 5.67893C26.0414 5.69899 26.0207 5.72612 26.0085 5.75729C25.9962 5.78846 25.9929 5.82242 25.9989 5.85536C26.0049 5.88831 26.02 5.91892 26.0424 5.94376C26.0649 5.96861 26.0938 5.9867 26.126 5.996L26.146 6.078C25.9781 6.10423 25.8128 6.14506 25.652 6.2L25.604 6.104C25.622 6.07701 25.6324 6.04566 25.6341 6.01324C25.6358 5.98083 25.6286 5.94857 25.6135 5.91988C25.5983 5.89118 25.5757 5.86712 25.5479 5.85025C25.5202 5.83337 25.4885 5.8243 25.456 5.824C25.4254 5.82435 25.3953 5.83264 25.3689 5.84806C25.3424 5.86349 25.3204 5.88552 25.305 5.912C25.2864 5.93993 25.276 5.97248 25.275 6.006C25.2756 6.03395 25.2828 6.06137 25.296 6.086C25.3097 6.11429 25.3298 6.13893 25.3557 6.15665C25.3817 6.17419 25.4118 6.18465 25.443 6.187ZM25.274 7.268V7.288H25.277L25.274 7.268ZM28.334 8.754L28.608 8.277C28.6324 8.25957 28.6528 8.23703 28.6676 8.21096C28.6825 8.18489 28.6915 8.1559 28.694 8.126C28.6926 8.10061 28.6862 8.07575 28.675 8.05291C28.6638 8.03006 28.6482 8.00969 28.629 7.993L28.706 7.835C28.7421 7.83247 28.7766 7.8191 28.805 7.79665C28.8334 7.77419 28.8544 7.74369 28.8652 7.70913C28.876 7.67457 28.8761 7.63756 28.8656 7.60292C28.855 7.56829 28.8333 7.53765 28.805 7.515C28.7739 7.48792 28.7342 7.47269 28.693 7.472C28.6605 7.4723 28.6288 7.48137 28.6011 7.49825C28.5733 7.51512 28.5507 7.53918 28.5355 7.56788C28.5204 7.59657 28.5142 7.62883 28.5159 7.66124C28.5176 7.69366 28.527 7.72501 28.545 7.752L28.478 7.891C28.3258 7.82034 28.1652 7.76959 28 7.74L28.025 7.644C28.0572 7.6347 28.0861 7.61661 28.1086 7.59176C28.131 7.56692 28.1461 7.53631 28.1521 7.50336C28.1583 7.47015 28.1559 7.43538 28.1436 7.40391C28.1313 7.37244 28.1104 7.34504 28.0834 7.32481C28.0563 7.30458 28.0242 7.29232 27.9905 7.28943C27.9568 7.28653 27.923 7.29312 27.8929 7.30843C27.8628 7.32375 27.8376 7.34718 27.8201 7.37609C27.8026 7.405 27.7946 7.43822 27.795 7.472C27.7951 7.52078 27.8135 7.56754 27.848 7.602L27.822 7.708C27.6335 7.68015 27.4435 7.66346 27.253 7.658V7.492C27.2938 7.45555 27.3225 7.40757 27.3354 7.35444C27.3483 7.3013 27.3447 7.24549 27.3252 7.19441C27.3057 7.14333 27.2712 7.09938 27.2261 7.06837C27.1811 7.03736 27.1277 7.02075 27.073 7.02075C27.0183 7.02075 26.9649 7.03736 26.9199 7.06837C26.8748 7.09938 26.8403 7.14333 26.8208 7.19441C26.8013 7.24549 26.7977 7.3013 26.8106 7.35444C26.8235 7.40757 26.8522 7.45555 26.893 7.492V7.658C26.7025 7.66353 26.5125 7.68022 26.324 7.708L26.298 7.603C26.3154 7.5859 26.33 7.56497 26.3395 7.54248C26.3489 7.52018 26.3538 7.49622 26.354 7.472C26.3542 7.43852 26.344 7.40565 26.3265 7.37709C26.309 7.34853 26.2839 7.32542 26.254 7.31035C26.2241 7.29528 26.1906 7.28884 26.1573 7.29177C26.1239 7.2947 26.092 7.30688 26.0652 7.32693C26.0384 7.34699 26.0177 7.37412 26.0055 7.40529C25.9932 7.43646 25.9891 7.46993 25.9951 7.50287C26.0012 7.53608 26.0166 7.5669 26.0394 7.59184C26.0618 7.61669 26.0908 7.6347 26.123 7.644L26.146 7.74C25.9815 7.76981 25.8226 7.82056 25.671 7.891L25.602 7.752C25.6201 7.72494 25.6305 7.69349 25.6321 7.661C25.6337 7.6285 25.6275 7.59617 25.6122 7.56744C25.597 7.53871 25.5732 7.51467 25.5453 7.49786C25.5174 7.48106 25.4855 7.47212 25.453 7.472C25.4118 7.47269 25.3731 7.48792 25.342 7.515C25.3137 7.53765 25.292 7.56829 25.2814 7.60292C25.2709 7.63756 25.271 7.67457 25.2818 7.70913C25.2926 7.74369 25.3136 7.77419 25.342 7.79665C25.3704 7.8191 25.4049 7.83247 25.441 7.835L25.519 7.994C25.4997 8.01049 25.484 8.03066 25.4727 8.05333C25.4613 8.076 25.4546 8.10071 25.453 8.126C25.4558 8.15581 25.465 8.18465 25.48 8.21055C25.4951 8.23645 25.5155 8.25878 25.54 8.276L25.814 8.754C25.814 8.551 26.377 8.387 27.073 8.387C27.769 8.387 28.334 8.551 28.334 8.754ZM25.634 4.907L25.317 5.633C25.8528 5.33815 26.4654 5.21263 27.074 5.273C27.6826 5.21263 28.2952 5.33715 28.831 5.632L28.514 4.907C28.514 4.862 28.48 4.817 28.42 4.777L28.675 4.257C28.6965 4.21367 28.7001 4.16367 28.6851 4.11769C28.6702 4.07172 28.6378 4.03342 28.595 4.011C28.5738 4.00027 28.5506 3.99387 28.5269 3.99219C28.5031 3.99051 28.4793 3.99358 28.4568 4.00121C28.4343 4.00885 28.4135 4.0209 28.3957 4.03666C28.3778 4.05242 28.3633 4.07157 28.353 4.093L28.214 4.376L28.082 4.646C27.9984 4.62568 27.914 4.609 27.829 4.596L27.844 4.531C27.8765 4.52187 27.9068 4.50383 27.9295 4.47894C27.9523 4.45405 27.9677 4.42328 27.9739 4.39012C27.9801 4.35696 27.9769 4.32272 27.9647 4.29126C27.9525 4.25981 27.9318 4.23239 27.9048 4.21211C27.8778 4.19183 27.8457 4.17949 27.8121 4.17648C27.7785 4.17347 27.7447 4.17992 27.7146 4.19509C27.6845 4.21026 27.6592 4.23356 27.6416 4.26234C27.624 4.29113 27.6138 4.32426 27.614 4.358C27.614 4.38239 27.6199 4.40653 27.6293 4.42902C27.6388 4.45151 27.6516 4.4719 27.669 4.489L27.65 4.572C27.4594 4.5515 27.2667 4.54148 27.075 4.542C27.1465 4.5416 27.2159 4.51288 27.2662 4.46213C27.3165 4.41137 27.3447 4.34273 27.3445 4.27125C27.3443 4.19978 27.3158 4.13129 27.2652 4.08082C27.2145 4.03035 27.146 4.002 27.0745 4.002C27.003 4.002 26.9345 4.03035 26.8838 4.08082C26.8332 4.13129 26.8047 4.19978 26.8045 4.27125C26.8043 4.34273 26.8325 4.41137 26.8828 4.46213C26.9331 4.51288 27.0015 4.5416 27.073 4.542C26.8816 4.54152 26.6893 4.55153 26.499 4.572L26.479 4.489C26.4964 4.4719 26.5102 4.45151 26.5197 4.42902C26.5291 4.40653 26.534 4.38239 26.534 4.358C26.534 4.32456 26.5247 4.29178 26.5071 4.26335C26.4895 4.23491 26.4643 4.21194 26.4343 4.19701C26.4044 4.18208 26.3709 4.17579 26.3376 4.17883C26.3043 4.18187 26.2725 4.19413 26.2458 4.21423C26.2191 4.23434 26.1985 4.26149 26.1863 4.29264C26.1742 4.32379 26.1709 4.35772 26.177 4.39061C26.183 4.4235 26.1981 4.45406 26.2205 4.47886C26.243 4.50365 26.2719 4.52171 26.304 4.531L26.32 4.596C26.235 4.60898 26.1506 4.62567 26.067 4.646L25.934 4.376L25.795 4.093C25.7847 4.0717 25.7702 4.05266 25.7525 4.03699C25.7347 4.02131 25.714 4.00932 25.6916 4.00169C25.6692 3.99406 25.6455 3.99096 25.6219 3.99256C25.5983 3.99415 25.5752 4.00042 25.554 4.011C25.5112 4.03342 25.4788 4.07172 25.4639 4.11769C25.4489 4.16367 25.4525 4.21367 25.474 4.257L25.729 4.777C25.669 4.817 25.634 4.862 25.634 4.907Z"
		fill="#E6B432"
	/>
</svg>
