<svg viewBox="0 0 36 24" fill="none" xmlns="http://www.w3.org/2000/svg">
	<path d="M36 12H0V0H36V12Z" fill="#F5F5F5" />
	<path d="M0 12H36V24H0V12Z" fill="#73AF00" />
	<path
		d="M26.104 7.235C26.116 7.198 27.164 6.05 27.164 6.05L28.923 5.202L29.147 5.177L28.374 6.624L28.074 8.183L28.024 8.283C27.987 8.22 27.551 7.023 27.551 7.023C27.551 7.023 26.091 7.273 26.104 7.235ZM28.661 18.915C28.678 18.956 28.261 19.272 28.261 19.272L27.638 19.172C27.638 19.172 26.532 19.413 26.498 19.422C26.465 19.43 25.185 19.405 25.185 19.405C25.185 19.405 24.503 19.688 24.411 19.696C24.2354 19.6912 24.0604 19.6718 23.888 19.638C23.8041 19.5742 23.7405 19.4873 23.705 19.388V18.939L23.472 18.723L23.522 18.373L23.772 18.208L24.037 18.124L23.837 17.659C23.837 17.659 24.037 17.326 24.12 17.309C24.2074 17.3119 24.2929 17.3348 24.37 17.376L24.952 18.124L25.567 18.307L25.767 16.811L25.367 15.863C25.367 15.863 23.439 15.363 23.355 15.33C23.272 15.297 22.275 14.599 22.275 14.599L21.642 14.299L21.526 14.948L21.892 15.38L22.258 15.763L22.274 16.295L21.858 16.611L21.708 16.395L21.293 16.312L19.879 17.492L19.513 18.158L19.53 18.325C19.53 18.325 19.996 18.308 20.129 18.308C20.1959 18.3098 20.2627 18.3155 20.329 18.325C20.2972 18.5791 20.2413 18.8295 20.162 19.073L19.048 18.99L17.983 19.339L16.52 19.455C16.33 19.5279 16.1356 19.5891 15.938 19.638C15.855 19.638 15.771 19.289 15.771 19.289L15.888 18.907L15.555 18.424L15.755 18.025L16.204 18.058L16.137 17.493L16.437 17.31L17.202 17.875L17.751 18.125L18.516 17.609L19.406 16.013L18.69 15.672L18.116 14.982L16.486 15.763L16.016 15.841L16.021 15.88C16.021 15.88 16.154 16.295 16.154 16.345V16.977C15.957 17.066 15.7507 17.1331 15.539 17.177L15.351 16.715L14.803 16.828L13.318 18.586L13.406 19.023C13.406 19.023 13.618 19.073 13.83 19.135C14.1108 19.245 14.3855 19.3698 14.653 19.509L14.79 19.796L13.281 19.721L12.246 20.046L11.759 19.971H10.973L10.499 20.258L10.249 20.17C10.249 20.17 10.125 19.721 10.113 19.659C10.101 19.597 9.863 19.484 9.863 19.484C9.863 19.484 9.826 19.035 9.826 18.973C9.826 18.911 10.188 18.623 10.188 18.623L10.138 18.175L10.262 17.963L10.612 17.85L11.086 18.524L11.746 18.924L12.806 17.376L13.256 15.83C13.256 15.83 12.283 15.23 12.221 15.169C11.8359 15.3734 11.4721 15.6156 11.135 15.892C11.135 15.892 10.487 16.391 10.437 16.416C10.2411 16.415 10.0454 16.4023 9.851 16.378C9.776 16.378 10.075 16.042 10.138 16.004C10.2109 15.8542 10.2614 15.6945 10.288 15.53L9.165 12.175L8.84 12.549L8.491 12.499L8.291 12.1L8.691 11.052L8.179 10.142C8.179 10.142 7.331 10.167 7.293 10.154C7.24609 10.0133 7.22113 9.86627 7.219 9.718C7.219 9.655 7.78 9.431 7.78 9.431L7.443 8.907L7.743 8.495L8.266 8.57L8.678 8.233C8.678 8.233 9.002 8.296 9.078 8.308C9.152 8.321 9.277 8.819 9.277 8.819L9.876 10.441L10.275 12.088L10.874 12.711L11.248 10.791L12.312 8.628L12.678 7.531L12.961 7.381L11.681 7.514L11.713 7.281L10.749 7.431L10.05 7.331L10.732 6.4C10.732 6.4 10.432 5.967 10.4 5.9C10.4083 5.58293 10.436 5.26667 10.483 4.953L9.983 4.753L10.3 4.366L11.347 4.454L12.054 4.57L12.162 4.146C12.162 4.146 12.545 4.046 12.653 4.021C13.0263 4.03779 13.3983 4.07652 13.767 4.137C14.1882 4.00031 14.602 3.8421 15.007 3.663L15.223 3.747L15.289 4.104L16.121 4.063L15.439 5.16L16.138 5.668L16.204 6.142L15.564 5.951L15.526 6.45L16.113 6.811L16.187 7.709L15.527 7.36L15.439 7.747L15.988 8.52L15.901 9.032L15.763 8.932L15.264 8.657L15.127 9.157L15.564 9.481L15.726 9.892L15.102 10.042C15.102 10.042 15.36 10.597 15.415 10.742L15.905 10.358L16.337 9.543L16.453 8.063L16.636 6.948L17.152 6.25L18.05 5.435L19.447 4.985L21.027 5.085L23.505 4.47L25.069 4.021L24.469 5.867L24.869 7.56L24.208 7.722C24.208 7.722 23.41 8.358 23.372 8.382C23.334 8.406 23.098 9.792 23.098 9.792L21.875 9.88L21.426 10.104L22.773 10.416C22.773 10.416 24.208 10.852 24.258 10.84C24.308 10.828 25.468 11.152 25.468 11.152L26.228 10.852L26.64 10.566L26.678 10.054L26.589 9.875C26.389 9.966 25.657 10.182 25.592 10.204C25.3259 10.1837 25.0649 10.1206 24.819 10.017C24.582 9.917 24.395 9.493 24.395 9.493C24.4216 9.16281 24.4843 8.83653 24.582 8.52C24.694 8.308 25.33 8.009 25.468 7.909C25.7769 7.85251 26.0953 7.87838 26.391 7.984C26.488 8.032 26.866 8.233 27.051 8.348V8.271L27.131 8.404L27.151 8.42L27.163 8.456L27.588 9.169L27.775 10.129L27.551 11.289L26.615 12.574L25.418 13.241L26.422 14.57C26.422 14.57 27.17 14.738 27.232 14.763C27.3724 14.8825 27.504 15.0118 27.626 15.15L27.488 15.867L27.108 15.687L26.802 15.767L26.965 17.559L27.247 18.507C27.247 18.507 28.112 18.466 28.17 18.474C28.3502 18.6007 28.5147 18.7484 28.66 18.914L28.661 18.915ZM26.327 9.345L26.091 8.869C25.9518 8.80604 25.8183 8.73109 25.692 8.645C25.68 8.607 25.292 8.832 25.255 8.845C25.2163 9.03369 25.2122 9.22785 25.243 9.418C25.268 9.605 25.443 9.505 25.779 9.468C25.9673 9.4585 26.1527 9.4169 26.327 9.345ZM8.777 6.412C8.8176 6.17098 8.8761 5.93333 8.952 5.701C8.99 5.701 9.502 5.514 9.502 5.514L7.979 4.528C7.979 4.528 8.241 5.738 8.266 5.838C8.4183 6.04496 8.58872 6.23714 8.777 6.412Z"
		fill="#FF4B55"
	/>
	<path
		d="M13.368 5.037C13.254 5.03586 13.1401 5.02785 13.027 5.013L13.011 5.083C13.0033 5.11597 12.9847 5.14538 12.9582 5.16644C12.9317 5.1875 12.8989 5.19898 12.865 5.199C12.8535 5.19906 12.8421 5.19772 12.831 5.195C12.7923 5.18596 12.7588 5.16193 12.7378 5.12818C12.7168 5.09443 12.71 5.05372 12.719 5.015L12.73 4.965C12.7026 4.96001 12.6753 4.95468 12.648 4.949C12.6279 4.94549 12.6088 4.93794 12.5918 4.9268C12.5747 4.91566 12.5601 4.90117 12.5489 4.8842C12.5376 4.86724 12.5299 4.84816 12.5263 4.82813C12.5226 4.8081 12.5231 4.78754 12.5276 4.7677C12.5322 4.74785 12.5407 4.72914 12.5528 4.71271C12.5648 4.69627 12.58 4.68246 12.5975 4.6721C12.6151 4.66174 12.6345 4.65506 12.6547 4.65247C12.6749 4.64987 12.6954 4.65141 12.715 4.657C12.9947 4.72613 13.2842 4.7471 13.571 4.719C13.6091 4.71153 13.6487 4.71915 13.6813 4.74026C13.714 4.76137 13.7371 4.79433 13.7459 4.83218C13.7548 4.87003 13.7485 4.90983 13.7286 4.94319C13.7086 4.97654 13.6765 5.00086 13.639 5.011C13.5499 5.02973 13.459 5.03845 13.368 5.037ZM29.352 5.145C28.7523 6.18474 28.3397 7.32165 28.133 8.504C28.1256 8.536 28.1079 8.56467 28.0826 8.58563C28.0573 8.60658 28.0258 8.61866 27.993 8.62H27.987C27.9555 8.61991 27.9249 8.60991 27.8994 8.59142C27.8739 8.57294 27.8549 8.5469 27.845 8.517L27.468 7.365C27.3578 7.63272 27.263 7.90649 27.184 8.185C27.1767 8.20269 27.1658 8.21869 27.152 8.232C27.172 8.249 27.192 8.262 27.212 8.279C27.5132 8.57149 27.733 8.93745 27.8496 9.34079C27.9662 9.74413 27.9757 10.1709 27.877 10.579C27.7845 11.1984 27.5229 11.7803 27.121 12.2605C26.7191 12.7408 26.1924 13.1008 25.599 13.301C25.7147 13.6199 25.9133 13.9022 26.1743 14.1189C26.4353 14.3356 26.7493 14.4789 27.084 14.534C27.198 14.5435 27.3082 14.5798 27.4055 14.6399C27.5028 14.7 27.5845 14.7823 27.644 14.88C27.8009 15.2911 27.7959 15.7464 27.63 16.154L27.618 16.186C27.6013 16.2197 27.5725 16.2459 27.5374 16.2595C27.5023 16.273 27.4634 16.2728 27.4284 16.2589C27.3934 16.2451 27.3649 16.2186 27.3485 16.1847C27.3321 16.1508 27.3291 16.112 27.34 16.076L27.347 16.058C27.3552 16.0349 27.3546 16.0097 27.3454 15.987C27.3361 15.9643 27.3189 15.9458 27.297 15.935C27.2477 15.901 27.1913 15.8785 27.1321 15.8692C27.0729 15.8598 27.0124 15.8639 26.955 15.881C27.0364 16.1471 27.0726 16.4249 27.062 16.703C27.092 17.255 27.14 18.181 27.36 18.359C27.3685 18.3665 27.3786 18.372 27.3895 18.3749C27.4004 18.3779 27.4119 18.3782 27.423 18.376C28.027 18.281 28.392 18.382 28.631 18.708C28.8405 18.7469 29.0296 18.8585 29.165 19.023C29.1851 19.0581 29.1972 19.0971 29.2007 19.1373C29.2041 19.1775 29.1988 19.218 29.185 19.256C29.1784 19.2746 29.1683 19.2917 29.1551 19.3063C29.1419 19.321 29.126 19.3329 29.1082 19.3414C29.0723 19.3586 29.031 19.3608 28.9935 19.3475C28.956 19.3342 28.9252 19.3066 28.9081 19.2707C28.8909 19.2348 28.8887 19.1935 28.902 19.156C28.8466 19.1083 28.7819 19.0725 28.712 19.051C28.6928 19.1275 28.6542 19.1977 28.6 19.255C28.4932 19.3663 28.3536 19.4407 28.2016 19.4671C28.0496 19.4935 27.8931 19.4707 27.755 19.402C27.518 19.268 27.374 19.317 26.987 19.45C26.913 19.475 26.833 19.503 26.744 19.531C26.3168 19.6424 25.8692 19.651 25.438 19.556C25.346 19.541 25.261 19.528 25.188 19.521C25.0559 19.5348 24.9293 19.5816 24.82 19.657C24.6321 19.7795 24.4158 19.8518 24.192 19.867C24.1137 19.8667 24.0359 19.8549 23.961 19.832C23.8854 19.8124 23.8151 19.7763 23.7552 19.7261C23.6954 19.6759 23.6475 19.613 23.615 19.542L23.612 19.532C23.5869 19.6488 23.5977 19.7704 23.643 19.881C23.6579 19.9176 23.6578 19.9586 23.6426 19.9952C23.6275 20.0317 23.5985 20.0607 23.562 20.076C23.5439 20.0833 23.5245 20.087 23.505 20.087C23.4753 20.0871 23.4463 20.0785 23.4215 20.0621C23.3968 20.0457 23.3775 20.0224 23.366 19.995C23.278 19.781 23.205 19.335 23.563 19.185L23.573 19.182C23.5789 19.1348 23.588 19.088 23.6 19.042C23.5131 19.011 23.4397 18.9509 23.392 18.872C23.3618 18.8227 23.3401 18.7686 23.328 18.712C23.2665 18.7384 23.2126 18.7796 23.171 18.832C23.1572 18.8521 23.1387 18.8685 23.117 18.8799C23.0954 18.8912 23.0714 18.8971 23.047 18.897C23.0201 18.8967 22.9938 18.8892 22.9708 18.8753C22.9478 18.8613 22.929 18.8414 22.9163 18.8177C22.9036 18.794 22.8976 18.7673 22.8987 18.7404C22.8999 18.7136 22.9083 18.6875 22.923 18.665C23.0288 18.5266 23.1819 18.4319 23.353 18.399C23.3786 18.3172 23.4205 18.2413 23.476 18.176C23.5598 18.0828 23.6746 18.0231 23.799 18.008C23.7792 17.961 23.7612 17.9133 23.745 17.865L23.715 17.779C23.684 17.755 23.612 17.799 23.575 17.835C23.5474 17.8612 23.5109 17.876 23.4728 17.8762C23.4347 17.8765 23.398 17.8623 23.37 17.8365C23.342 17.8107 23.3249 17.7752 23.3221 17.7372C23.3193 17.6992 23.3311 17.6616 23.355 17.632C23.4439 17.5025 23.5628 17.3965 23.7016 17.323C23.8404 17.2495 23.9949 17.2107 24.152 17.21C24.2895 17.2251 24.4209 17.2749 24.5338 17.3546C24.6468 17.4344 24.7377 17.5415 24.798 17.666C24.8718 17.7946 24.9725 17.9056 25.0934 17.9914C25.2143 18.0772 25.3523 18.1358 25.498 18.163C25.6935 17.4544 25.6319 16.6995 25.324 16.032C24.2379 15.9882 23.2028 15.5593 22.404 14.822C22.207 14.6588 21.9907 14.5204 21.76 14.41C21.6732 14.5438 21.6361 14.7037 21.655 14.862C21.6806 14.9669 21.7283 15.0651 21.7951 15.15C21.8619 15.2349 21.9461 15.3044 22.042 15.354C22.1575 15.4123 22.256 15.4992 22.3282 15.6066C22.4004 15.714 22.4437 15.8381 22.454 15.967C22.464 16.437 21.922 16.822 21.898 16.838C21.8718 16.8557 21.8407 16.8646 21.8091 16.8635C21.7775 16.8624 21.7471 16.8514 21.7221 16.832C21.6972 16.8126 21.679 16.7858 21.6702 16.7555C21.6614 16.7251 21.6623 16.6928 21.673 16.663C21.706 16.576 21.706 16.521 21.691 16.505C21.651 16.458 21.472 16.46 21.332 16.491C20.7324 16.9432 20.1936 17.4709 19.729 18.061C19.7032 18.1158 19.6822 18.1727 19.666 18.231C19.795 18.2285 19.9232 18.2107 20.048 18.178C20.1158 18.1543 20.189 18.151 20.2587 18.1684C20.3283 18.1858 20.3913 18.2232 20.44 18.276C20.4941 18.3506 20.519 18.4423 20.51 18.534C20.6265 18.5558 20.7326 18.6151 20.8122 18.7028C20.8918 18.7906 20.9406 18.902 20.951 19.02C20.9552 19.0595 20.9436 19.0991 20.9186 19.13C20.8937 19.1609 20.8575 19.1807 20.818 19.185H20.802C20.7653 19.1847 20.73 19.1711 20.7028 19.1466C20.6755 19.1221 20.6582 19.0884 20.654 19.052C20.6484 18.9971 20.6248 18.9456 20.5868 18.9056C20.5488 18.8656 20.4985 18.8394 20.444 18.831C20.426 18.886 20.408 18.94 20.381 19.001C20.3423 19.0887 20.2744 19.1602 20.1889 19.2034C20.1034 19.2467 20.0055 19.2589 19.912 19.238C19.376 19.1062 18.8126 19.1397 18.296 19.334C17.9957 19.4722 17.6686 19.5429 17.338 19.541C17.0477 19.5454 16.7596 19.5925 16.483 19.681C16.3639 19.7226 16.2391 19.7452 16.113 19.748C16.0187 19.7575 15.9238 19.7361 15.8426 19.687C15.7615 19.638 15.6985 19.5639 15.663 19.476C15.6561 19.4551 15.6508 19.4337 15.647 19.412C15.6245 19.4534 15.6131 19.4999 15.614 19.547C15.614 19.5868 15.5982 19.6249 15.5701 19.6531C15.5419 19.6812 15.5038 19.697 15.464 19.697C15.4242 19.697 15.3861 19.6812 15.3579 19.6531C15.3298 19.6249 15.314 19.5868 15.314 19.547C15.31 19.4293 15.3446 19.3135 15.4124 19.2173C15.4803 19.1211 15.5778 19.0497 15.69 19.014C15.7034 18.9806 15.7191 18.9482 15.737 18.917C15.6379 18.8865 15.5518 18.8241 15.4921 18.7394C15.4323 18.6547 15.4024 18.5525 15.407 18.449C15.3568 18.4869 15.3226 18.5422 15.311 18.604C15.3087 18.6247 15.3021 18.6446 15.2916 18.6626C15.2812 18.6806 15.2671 18.6962 15.2503 18.7084C15.2335 18.7206 15.2143 18.7293 15.194 18.7337C15.1737 18.7382 15.1527 18.7383 15.1323 18.7342C15.112 18.7301 15.0927 18.7218 15.0756 18.7099C15.0586 18.6979 15.0443 18.6826 15.0336 18.6648C15.0228 18.647 15.0159 18.6271 15.0132 18.6065C15.0105 18.5859 15.0122 18.565 15.018 18.545C15.044 18.4192 15.1105 18.3055 15.2073 18.2211C15.3041 18.1368 15.4259 18.0865 15.554 18.078C15.5813 18.0426 15.6125 18.0104 15.647 17.982C15.7614 17.9069 15.9004 17.8789 16.035 17.904C15.9978 17.8335 15.9747 17.7564 15.967 17.677C15.9629 17.618 15.9707 17.5589 15.99 17.503C15.9446 17.4736 15.8937 17.4538 15.8404 17.4447C15.7872 17.4356 15.7326 17.4374 15.68 17.45L15.643 17.467L15.631 17.468C15.6148 17.473 15.5979 17.475 15.581 17.474C15.5757 17.4743 15.5703 17.4743 15.565 17.474C15.5419 17.4704 15.52 17.4615 15.501 17.448H15.5L15.494 17.441C15.4821 17.432 15.4716 17.4212 15.463 17.409L15.458 17.396L15.45 17.377C15.4443 17.3616 15.4412 17.3454 15.441 17.329L15.439 17.317C15.449 17.153 15.416 16.882 15.31 16.824C15.236 16.784 15.088 16.838 14.904 16.974C14.154 17.526 13.365 18.629 13.418 18.933C13.5528 18.9849 13.6925 19.0231 13.835 19.047C14.372 19.157 15.041 19.295 14.989 19.812C14.9869 19.8324 14.9807 19.8521 14.9708 19.87C14.9608 19.8879 14.9473 19.9035 14.931 19.916C14.8978 19.94 14.8566 19.9504 14.816 19.945C14.2651 19.8246 13.6954 19.8185 13.142 19.927C12.5942 20.2302 11.949 20.3057 11.346 20.137C11.329 20.13 11.058 20.022 10.919 20.21C10.8645 20.285 10.7933 20.3463 10.711 20.3892C10.6288 20.4321 10.5377 20.4553 10.445 20.457C10.3913 20.4571 10.338 20.4486 10.287 20.432C10.1788 20.396 10.0885 20.3197 10.035 20.219C9.98883 20.2483 9.95095 20.2889 9.925 20.337C9.91487 20.3589 9.90962 20.3828 9.90962 20.407C9.90962 20.4312 9.91487 20.4551 9.925 20.477C9.93856 20.5143 9.93681 20.5554 9.92013 20.5914C9.90345 20.6274 9.8732 20.6553 9.836 20.669C9.81931 20.675 9.80172 20.678 9.784 20.678C9.75358 20.6779 9.7239 20.6686 9.6989 20.6513C9.67389 20.634 9.65475 20.6095 9.644 20.581C9.62011 20.5214 9.60868 20.4576 9.6104 20.3935C9.61212 20.3293 9.62696 20.2662 9.654 20.208C9.72248 20.079 9.83138 19.9761 9.964 19.915C9.96599 19.8481 9.97743 19.7817 9.998 19.718C9.834 19.6411 9.70634 19.5033 9.642 19.334C9.62206 19.272 9.61326 19.207 9.616 19.142C9.57002 19.1678 9.53144 19.205 9.50395 19.25C9.47646 19.295 9.46098 19.3463 9.459 19.399C9.45437 19.4352 9.43668 19.4685 9.40925 19.4927C9.38182 19.5168 9.34653 19.5301 9.31 19.53H9.292C9.25266 19.525 9.21689 19.5046 9.19253 19.4733C9.16817 19.442 9.15719 19.4024 9.162 19.363C9.1717 19.2199 9.23265 19.0852 9.33367 18.9834C9.4347 18.8817 9.56902 18.8197 9.712 18.809L9.722 18.789C9.80082 18.6615 9.91375 18.5586 10.048 18.492C9.99392 18.4076 9.96036 18.3117 9.95 18.212C9.94645 18.1422 9.95967 18.0725 9.98855 18.0088C10.0174 17.9452 10.0611 17.8893 10.116 17.846C10.0745 17.8001 10.0195 17.7686 9.959 17.756C9.94 17.753 9.883 17.748 9.798 17.832C9.76957 17.8585 9.73196 17.8729 9.6931 17.8722C9.65423 17.8715 9.61716 17.8558 9.58968 17.8283C9.56219 17.8008 9.54645 17.7638 9.54576 17.7249C9.54508 17.686 9.5595 17.6484 9.586 17.62C9.63642 17.5633 9.69937 17.5191 9.76985 17.491C9.84033 17.4629 9.91639 17.4516 9.992 17.458C10.1585 17.4877 10.3067 17.5814 10.405 17.719C10.5245 17.7089 10.6439 17.7388 10.7445 17.804C10.8452 17.8691 10.9213 17.9659 10.961 18.079C11.1351 18.3679 11.3866 18.6024 11.687 18.756C12.4461 17.9483 12.9244 16.9172 13.051 15.816C12.8026 15.6953 12.5668 15.5502 12.347 15.383C11.9933 15.6497 11.6068 15.8698 11.197 16.038C11.0883 16.205 10.9394 16.342 10.764 16.4365C10.5886 16.531 10.3922 16.58 10.193 16.579C9.96401 16.5744 9.73812 16.5251 9.528 16.434C9.49855 16.4216 9.47383 16.4002 9.45743 16.3727C9.44103 16.3453 9.43381 16.3134 9.43682 16.2816C9.43983 16.2498 9.45292 16.2198 9.47418 16.1959C9.49543 16.1721 9.52375 16.1556 9.555 16.149C9.58 16.144 10.16 16.018 10.183 15.479C9.72295 14.4666 9.38103 13.4046 9.164 12.314C9.07 12.538 8.93 12.719 8.724 12.736C8.63062 12.7401 8.53754 12.7227 8.452 12.685C8.34636 12.758 8.22038 12.7958 8.092 12.793C8.05586 12.7929 8.01977 12.7902 7.984 12.785C7.94463 12.7795 7.90903 12.7587 7.88503 12.727C7.86103 12.6953 7.85059 12.6554 7.856 12.616C7.85844 12.5964 7.86479 12.5775 7.87468 12.5605C7.88457 12.5434 7.89779 12.5285 7.91356 12.5167C7.92933 12.5048 7.94732 12.4962 7.96647 12.4915C7.98561 12.4867 8.00552 12.4859 8.025 12.489C8.08332 12.4972 8.14274 12.4924 8.199 12.475L8.194 12.469C8.14396 12.3786 8.12199 12.2753 8.1309 12.1724C8.13981 12.0694 8.17918 11.9715 8.244 11.891C8.521 11.451 8.609 11.199 8.558 10.993C8.484 10.697 8.208 10.241 8.052 10.272L7.94 10.297C7.661 10.363 7.199 10.469 7.057 10C6.9739 10.0409 6.90927 10.1116 6.876 10.198C6.86817 10.2167 6.85663 10.2336 6.84209 10.2477C6.82754 10.2618 6.8103 10.2728 6.79138 10.28C6.77247 10.2873 6.75229 10.2906 6.73205 10.2899C6.71181 10.2891 6.69193 10.2843 6.67361 10.2756C6.6553 10.267 6.63892 10.2547 6.62548 10.2395C6.61204 10.2244 6.6018 10.2067 6.59539 10.1875C6.58898 10.1682 6.58652 10.1479 6.58817 10.1277C6.58983 10.1076 6.59555 10.0879 6.605 10.07C6.64447 9.96934 6.7095 9.8807 6.79367 9.81284C6.87785 9.74497 6.97826 9.70022 7.085 9.683C7.09289 9.65882 7.10293 9.63539 7.115 9.613C7.23975 9.46293 7.41581 9.36457 7.609 9.337C7.52095 9.30567 7.44447 9.24838 7.38965 9.17268C7.33484 9.09698 7.30428 9.00643 7.302 8.913C7.29989 8.80443 7.32719 8.69732 7.381 8.603C7.27911 8.59265 7.1769 8.61927 7.093 8.678C7.05955 8.69618 7.02044 8.70097 6.9836 8.69139C6.94675 8.6818 6.91493 8.65857 6.89458 8.62639C6.87423 8.59421 6.86688 8.5555 6.87401 8.51811C6.88115 8.48071 6.90223 8.44743 6.933 8.425C7.03335 8.35399 7.15109 8.31155 7.27367 8.30222C7.39625 8.29288 7.51906 8.317 7.629 8.372C7.66207 8.35234 7.69731 8.33657 7.734 8.325C7.92708 8.29102 8.1259 8.32986 8.292 8.434C8.34807 8.31861 8.43903 8.2238 8.552 8.163C8.48879 8.10255 8.40543 8.06764 8.318 8.065C8.27836 8.06218 8.24147 8.04375 8.2154 8.01375C8.18934 7.98375 8.17625 7.94464 8.179 7.905C8.18 7.88523 8.18498 7.86587 8.19364 7.84808C8.2023 7.83028 8.21447 7.81442 8.22941 7.80144C8.24435 7.78846 8.26176 7.77863 8.28059 7.77254C8.29942 7.76645 8.31929 7.76422 8.339 7.766C8.45099 7.76893 8.56008 7.80219 8.65465 7.86224C8.74923 7.9223 8.82573 8.00689 8.876 8.107C8.892 8.109 8.907 8.105 8.924 8.108C9.0571 8.13607 9.17533 8.21187 9.25638 8.32111C9.33744 8.43035 9.37572 8.56548 9.364 8.701C9.4212 9.18845 9.60001 9.65371 9.884 10.054C10.0546 10.3205 10.1576 10.6247 10.184 10.94C10.207 11.077 10.232 11.226 10.27 11.393C10.3614 11.7841 10.5364 12.1509 10.783 12.468C10.8726 11.4109 11.2105 10.3899 11.769 9.488C12.1132 8.91679 12.3599 8.29225 12.499 7.64C12.2318 7.70052 11.9589 7.73237 11.685 7.735H11.655C11.634 7.73435 11.6134 7.7293 11.5945 7.72017C11.5756 7.71105 11.5588 7.69805 11.5452 7.68202C11.5316 7.666 11.5216 7.6473 11.5157 7.62714C11.5098 7.60698 11.5082 7.58581 11.511 7.565L11.524 7.465C10.9711 7.65213 10.3697 7.63689 9.827 7.422C9.79931 7.40924 9.77616 7.38834 9.76065 7.36209C9.74514 7.33585 9.73799 7.3055 9.74016 7.27508C9.74233 7.24467 9.75372 7.21564 9.77281 7.19187C9.7919 7.16809 9.81778 7.1507 9.847 7.142C10.0166 7.08049 10.1712 6.98384 10.3008 6.85838C10.4304 6.73292 10.532 6.58148 10.599 6.414C10.5831 6.40412 10.5678 6.39344 10.553 6.382C10.4814 6.32295 10.419 6.25351 10.368 6.176C10.1425 6.25133 9.90281 6.27472 9.66697 6.24442C9.43112 6.21412 9.20517 6.1309 9.006 6.001L8.964 6.536C8.96099 6.57349 8.944 6.60849 8.91641 6.63405C8.88881 6.65961 8.85262 6.67387 8.815 6.674C8.78177 6.674 8.74945 6.66311 8.723 6.643C8.39523 6.35794 8.1391 5.99978 7.97528 5.59747C7.81147 5.19515 7.74458 4.75994 7.78 4.327C7.7828 4.29849 7.79371 4.27138 7.81143 4.24888C7.82915 4.22637 7.85295 4.20941 7.88 4.2C7.90722 4.19061 7.93655 4.1892 7.96455 4.19593C7.99254 4.20267 8.01803 4.21726 8.038 4.238C8.49976 4.71078 9.0288 5.11278 9.608 5.431C9.63514 5.44508 9.65733 5.46711 9.6716 5.49415C9.68587 5.52119 9.69153 5.55195 9.68784 5.5823C9.68414 5.61265 9.67125 5.64115 9.65091 5.66397C9.63056 5.68679 9.60373 5.70285 9.574 5.71L9.236 5.792C9.3872 5.88021 9.55532 5.93551 9.72937 5.95429C9.90341 5.97308 10.0795 5.95492 10.246 5.901C10.1851 5.60645 10.2118 5.30049 10.323 5.021C10.1003 4.92031 9.85844 4.86881 9.614 4.87C9.58219 4.86898 9.55153 4.85787 9.52645 4.83828C9.50137 4.81869 9.48318 4.79163 9.47449 4.76101C9.46581 4.73039 9.46709 4.6978 9.47814 4.66796C9.4892 4.63812 9.50946 4.61257 9.536 4.595C10.2773 4.26682 11.1092 4.20465 11.891 4.419C11.8819 4.3515 11.8879 4.28282 11.9086 4.21795C11.9294 4.15308 11.9644 4.09365 12.011 4.044C12.301 3.74 13.07 3.856 13.66 4.004C14.1989 3.83562 14.7198 3.6142 15.215 3.343C15.2386 3.32978 15.2653 3.32318 15.2923 3.3239C15.3193 3.32461 15.3457 3.33262 15.3685 3.34706C15.3914 3.36151 15.4099 3.38186 15.4221 3.40596C15.4343 3.43007 15.4398 3.45703 15.438 3.484L15.396 4.028C15.6611 3.95127 15.9182 3.84948 16.164 3.724C16.1901 3.70957 16.22 3.70327 16.2497 3.7059C16.2795 3.70853 16.3077 3.71997 16.3309 3.73877C16.3541 3.75756 16.3712 3.78285 16.3799 3.81139C16.3887 3.83994 16.3887 3.87044 16.38 3.899C16.251 4.37044 15.9801 4.79079 15.604 5.103C15.8431 5.18885 16.0512 5.344 16.2017 5.54866C16.3522 5.75332 16.4383 5.99818 16.449 6.252C16.451 6.2814 16.4443 6.31074 16.4297 6.33635C16.4151 6.36196 16.3933 6.38271 16.367 6.396C16.3459 6.40668 16.3226 6.41217 16.299 6.412C16.2634 6.41188 16.229 6.39912 16.202 6.376C16.0576 6.2505 15.8723 6.18221 15.681 6.184C15.683 6.25 15.684 6.317 15.683 6.384C15.9096 6.46179 16.1029 6.61453 16.231 6.817C16.353 7.02525 16.4055 7.26691 16.381 7.507C16.4091 7.3323 16.4533 7.16057 16.513 6.994C17.067 5.564 18.233 4.87 20.079 4.87C22.0261 4.91545 23.946 4.40558 25.614 3.4C25.6457 3.37971 25.684 3.37211 25.721 3.3787C25.7581 3.38529 25.7914 3.4056 25.8142 3.43558C25.837 3.46557 25.8477 3.50303 25.8441 3.54054C25.8406 3.57804 25.823 3.61283 25.795 3.638C25.257 4.12308 24.894 4.77217 24.7626 5.48457C24.6311 6.19698 24.7385 6.93285 25.068 7.578L25.071 7.591C25.0774 7.60625 25.0811 7.62249 25.082 7.639C25.0826 7.64632 25.0826 7.65368 25.082 7.661C25.0802 7.67694 25.0758 7.69248 25.069 7.707C25.068 7.71207 25.0666 7.71708 25.065 7.722L25.061 7.726L25.058 7.732C25.0511 7.73951 25.0434 7.74622 25.035 7.752C25.0268 7.76151 25.0174 7.76991 25.007 7.777C24.9949 7.78272 24.9822 7.78676 24.969 7.789C24.9603 7.79256 24.9512 7.79524 24.942 7.797C24.6912 7.7879 24.4415 7.83447 24.2108 7.93338C23.9802 8.03228 23.7743 8.18105 23.608 8.369C23.3306 8.79532 23.2272 9.31174 23.319 9.812C23.3195 9.81866 23.3195 9.82534 23.319 9.832C23.319 9.83971 23.3183 9.84741 23.317 9.855C23.315 9.88847 23.3016 9.92025 23.279 9.945V9.948L23.278 9.95C23.252 9.97305 23.2187 9.98616 23.184 9.987L23.173 9.992L23.162 9.988C23.1544 9.98872 23.1466 9.98872 23.139 9.988C22.6668 9.86724 22.1707 9.87761 21.704 10.018C22.5689 10.1278 23.4151 10.3531 24.22 10.688C24.5247 10.8253 24.8562 10.8928 25.1904 10.8853C25.5245 10.8779 25.8527 10.7958 26.151 10.645C26.2627 10.587 26.3569 10.5003 26.4239 10.3938C26.4908 10.2873 26.5282 10.1648 26.532 10.039V10.031C26.333 10.1796 26.1029 10.281 25.8589 10.3274C25.615 10.3738 25.3636 10.3641 25.124 10.299C24.9331 10.2298 24.7606 10.1179 24.6197 9.9718C24.4788 9.82568 24.3732 9.64924 24.311 9.456C24.2702 9.30993 24.2594 9.15712 24.2791 9.00675C24.2989 8.85639 24.3488 8.71157 24.426 8.581C24.5359 8.38816 24.6837 8.21961 24.8606 8.08554C25.0374 7.95147 25.2397 7.85467 25.455 7.801C25.9543 7.69498 26.4753 7.78713 26.908 8.058C26.9881 7.78091 27.0836 7.50849 27.194 7.242L26.097 7.469C26.0678 7.47481 26.0376 7.47194 26.0101 7.46075C25.9825 7.44955 25.9588 7.43051 25.942 7.406C25.9257 7.3814 25.9169 7.35253 25.9169 7.323C25.9169 7.29347 25.9257 7.2646 25.942 7.24C26.6982 6.06318 27.8749 5.21914 29.232 4.88C29.2649 4.87408 29.2988 4.87929 29.3284 4.89482C29.3579 4.91036 29.3815 4.93532 29.3953 4.96575C29.409 4.99617 29.4123 5.03033 29.4044 5.0628C29.3966 5.09527 29.3781 5.1242 29.352 5.145ZM9.142 5.507C8.76353 5.27181 8.40798 5.00163 8.08 4.7C8.10639 5.25682 8.32112 5.78818 8.689 6.207L8.72 5.8C8.669 5.76 8.618 5.722 8.564 5.674C8.53689 5.64686 8.52121 5.61037 8.52018 5.57203C8.51915 5.53368 8.53285 5.4964 8.55846 5.46784C8.58407 5.43929 8.61965 5.42163 8.65788 5.4185C8.69611 5.41536 8.73408 5.427 8.764 5.451C8.812 5.494 8.857 5.528 8.902 5.564L9.142 5.507ZM17.399 6.127C21.534 5.985 23.801 6.876 24.638 7.305C24.443 6.79354 24.3669 6.24445 24.4154 5.69924C24.464 5.15404 24.6358 4.627 24.918 4.158C23.3968 4.84114 21.7454 5.18575 20.078 5.168C19.5888 5.12993 19.0972 5.19579 18.6353 5.36124C18.1734 5.5267 17.7517 5.78801 17.398 6.128L17.399 6.127ZM17.015 6.636C19.1891 7.13816 21.2277 8.10799 22.989 9.478C22.9667 9.01654 23.1013 8.56112 23.371 8.186C23.6489 7.84998 24.0402 7.62731 24.471 7.56C22.1746 6.58902 19.6736 6.2015 17.191 6.432C17.1802 6.43056 17.1695 6.42822 17.159 6.425C17.11 6.495 17.059 6.561 17.015 6.636ZM16.788 7.116C18.2203 8.12138 19.3293 9.52156 19.98 11.146C20.2319 10.6552 20.6221 10.249 21.1022 9.97746C21.5824 9.70592 22.1316 9.58095 22.682 9.618C20.9575 8.3233 18.9827 7.40113 16.883 6.91C16.853 6.975 16.819 7.034 16.793 7.102L16.788 7.116ZM16.503 8.901L16.513 8.909C17.231 9.81244 17.6575 10.9127 17.736 12.064C17.9436 11.7427 18.2497 11.4973 18.6084 11.3644C18.9671 11.2316 19.3592 11.2185 19.726 11.327C19.1095 9.76556 18.06 8.41255 16.701 7.427C16.6414 7.73497 16.597 8.04567 16.568 8.358C16.548 8.536 16.527 8.718 16.503 8.901ZM16.353 11.571C16.3184 11.571 16.2849 11.5591 16.2581 11.5372C16.2313 11.5153 16.2129 11.4849 16.206 11.451C16.141 11.0712 16.1112 10.6863 16.117 10.301C16 10.5353 15.8199 10.7324 15.597 10.87L15.555 10.894C14.642 11.424 13.964 11.818 13.723 12.576C14.2457 12.5273 14.7404 12.3176 15.139 11.976C15.1665 11.9515 15.2021 11.9379 15.239 11.938C15.2504 11.9382 15.2618 11.9395 15.273 11.942C15.2964 11.9475 15.3182 11.9585 15.3365 11.9742C15.3548 11.9898 15.369 12.0097 15.378 12.032C15.4685 12.2459 15.6052 12.4371 15.7782 12.592C15.9513 12.7469 16.1564 12.8616 16.379 12.928C16.3056 12.7788 16.2704 12.6137 16.2765 12.4476C16.2826 12.2814 16.3299 12.1194 16.414 11.976C16.4279 11.9565 16.4461 11.9407 16.4674 11.9297C16.4886 11.9188 16.5121 11.913 16.536 11.913C16.5604 11.9128 16.5845 11.9187 16.6061 11.93C16.6277 11.9414 16.6462 11.9578 16.66 11.978C16.8583 12.2321 17.1417 12.4061 17.458 12.468C17.4344 11.3459 17.0872 10.2544 16.458 9.325C16.3924 10.0137 16.4065 10.7076 16.5 11.393C16.5076 11.432 16.4995 11.4724 16.4774 11.5054C16.4553 11.5384 16.421 11.5613 16.382 11.569C16.3725 11.571 16.3627 11.571 16.353 11.571ZM15.266 10.147C15.3279 10.2953 15.4171 10.4307 15.529 10.546C15.6667 10.4402 15.7794 10.3053 15.859 10.151C15.8349 10.162 15.8082 10.1664 15.7818 10.1635C15.7554 10.1607 15.7303 10.1509 15.709 10.135C15.6435 10.0897 15.5652 10.0664 15.4855 10.0686C15.4059 10.0707 15.329 10.0982 15.266 10.147ZM15.606 9.777C15.5804 9.67486 15.5262 9.5821 15.4499 9.50951C15.3736 9.43693 15.2783 9.38751 15.175 9.367C15.1516 9.52625 15.1529 9.68816 15.179 9.847C15.3093 9.77589 15.4598 9.75121 15.606 9.777ZM16.078 7.887C15.9393 7.74226 15.7782 7.62071 15.601 7.527L15.576 7.692C15.833 7.8398 16.0238 8.08026 16.1093 8.36413C16.1948 8.648 16.1686 8.95383 16.036 9.219C16.0247 9.24315 16.0071 9.26385 15.9852 9.27897C15.9632 9.29409 15.9376 9.30307 15.911 9.305H15.901C15.8761 9.30518 15.8515 9.29914 15.8295 9.28744C15.8075 9.27575 15.7888 9.25875 15.775 9.238C15.6597 9.05347 15.5136 8.8901 15.343 8.755C15.323 8.822 15.301 8.885 15.28 8.945C15.264 8.99 15.252 9.033 15.24 9.076C15.4422 9.12478 15.622 9.24058 15.75 9.40455C15.878 9.56851 15.9467 9.77099 15.945 9.979C16.1258 9.4444 16.2351 8.88825 16.27 8.325C16.29 8.152 16.31 7.985 16.331 7.821C16.3244 7.84664 16.3111 7.87007 16.2925 7.88888C16.2739 7.90769 16.2506 7.92119 16.225 7.928C16.2127 7.93171 16.1999 7.93373 16.187 7.934C16.1663 7.934 16.1459 7.92974 16.127 7.92148C16.1081 7.91322 16.091 7.90114 16.077 7.886L16.078 7.887ZM15.848 8.832C15.873 8.67959 15.8556 8.52326 15.7977 8.38007C15.7399 8.23687 15.6438 8.11232 15.52 8.02C15.49 8.176 15.457 8.324 15.423 8.464C15.5898 8.55469 15.735 8.68019 15.849 8.832H15.848ZM15.676 6.706C15.669 6.875 15.656 7.046 15.638 7.216C15.8007 7.27956 15.9515 7.37017 16.084 7.484C16.103 7.30697 16.0656 7.12846 15.977 6.974C15.9039 6.85844 15.8 6.76561 15.677 6.706H15.676ZM15.589 5.422C15.6244 5.5737 15.6488 5.72777 15.662 5.883C15.807 5.8706 15.9528 5.8961 16.085 5.957C16.0418 5.83946 15.9757 5.73165 15.8906 5.63982C15.8054 5.54799 15.7029 5.47395 15.589 5.422ZM14.169 4.149C14.235 4.171 14.291 4.189 14.332 4.204C14.5872 4.19652 14.8411 4.16403 15.09 4.107L15.119 3.732C14.8104 3.8887 14.4932 4.02792 14.169 4.149ZM13.367 6.859C13.469 6.7338 13.5405 6.58657 13.5757 6.42897C13.6109 6.27136 13.609 6.10772 13.57 5.951C13.5654 5.91292 13.5756 5.87453 13.5985 5.84372C13.6213 5.81292 13.6551 5.79204 13.6929 5.78538C13.7307 5.77873 13.7696 5.78679 13.8016 5.80792C13.8336 5.82905 13.8563 5.86165 13.865 5.899C13.9118 6.09955 13.9118 6.3082 13.8647 6.50871C13.8177 6.70921 13.7251 6.89617 13.594 7.055C13.5184 7.14095 13.4328 7.2175 13.339 7.283C13.4753 8.15345 13.328 9.04465 12.919 9.825C12.806 10.128 12.689 10.44 12.588 10.76C12.4545 11.1851 12.4479 11.6399 12.5691 12.0687C12.6902 12.4975 12.9338 12.8816 13.27 13.174C13.328 12.874 13.379 12.706 13.384 12.69V12.688C13.592 11.728 14.331 11.26 15.276 10.71C15.0578 10.4569 14.916 10.1471 14.8671 9.81654C14.8183 9.48599 14.8644 9.14837 15 8.843C15.3841 7.71162 15.4702 6.50034 15.25 5.326C15.1358 5.38335 15.0144 5.42505 14.889 5.45C14.8506 5.45437 14.812 5.44376 14.7813 5.42038C14.7505 5.39699 14.7299 5.36265 14.7239 5.32449C14.7178 5.28633 14.7267 5.2473 14.7487 5.21554C14.7707 5.18378 14.8041 5.16174 14.842 5.154C15.0963 5.08753 15.331 4.96142 15.5269 4.78612C15.7227 4.61083 15.8739 4.39139 15.968 4.146C15.4423 4.3658 14.8806 4.48682 14.311 4.503C14.294 4.499 14.276 4.501 14.259 4.495C13.556 4.247 12.461 4.008 12.228 4.25C12.173 4.307 12.176 4.413 12.236 4.564C12.2463 4.58991 12.2491 4.61817 12.2442 4.64561C12.2394 4.67304 12.2269 4.69858 12.2083 4.71935C12.1898 4.74012 12.1657 4.7553 12.139 4.76318C12.1123 4.77107 12.0839 4.77135 12.057 4.764C11.4521 4.60466 10.8217 4.56626 10.202 4.651C10.3675 4.68399 10.5167 4.77255 10.625 4.902C10.6392 4.92357 10.6475 4.94844 10.6493 4.97419C10.651 4.99994 10.6461 5.02571 10.635 5.049C10.5307 5.28433 10.496 5.54458 10.535 5.799L10.64 5.757C10.8573 5.65562 11.0897 5.59043 11.328 5.564C11.911 5.529 12.12 5.797 12.183 5.914C12.2225 5.98142 12.242 6.05872 12.2392 6.13683C12.2364 6.21494 12.2113 6.29062 12.167 6.355C12.1021 6.43837 12.0206 6.50736 11.9276 6.55762C11.8347 6.60788 11.7323 6.63832 11.627 6.647C11.5772 6.65305 11.5271 6.65605 11.477 6.656C11.2696 6.65221 11.0644 6.61333 10.87 6.541C10.749 6.82655 10.5492 7.07177 10.294 7.248C10.7492 7.34629 11.2241 7.29035 11.644 7.089C11.6681 7.07671 11.6952 7.07133 11.7222 7.07345C11.7492 7.07557 11.7751 7.0851 11.797 7.101C11.8193 7.11678 11.8368 7.13835 11.8478 7.16337C11.8587 7.1884 11.8626 7.21593 11.859 7.243L11.833 7.43C12.3969 7.43288 12.9426 7.23025 13.368 6.86L13.367 6.859ZM10.745 6.151C11.0003 6.29983 11.2941 6.36911 11.589 6.35C11.6539 6.34635 11.7173 6.32917 11.7752 6.29954C11.8331 6.26992 11.8841 6.22852 11.925 6.178C11.9349 6.1589 11.9394 6.1375 11.9382 6.11604C11.937 6.09458 11.93 6.07384 11.918 6.056C11.891 6.004 11.767 5.836 11.343 5.863C11.1375 5.88881 10.9374 5.94685 10.75 6.035L10.663 6.07C10.6878 6.09941 10.7153 6.12652 10.745 6.151ZM12.558 12.791C12.1494 13.0585 11.6828 13.2245 11.197 13.275C11.2587 13.4935 11.3439 13.7048 11.451 13.905C11.7159 13.8736 11.9719 13.7895 12.2037 13.6576C12.4356 13.5257 12.6387 13.3487 12.801 13.137C12.7106 13.0282 12.6293 12.9122 12.558 12.79V12.791ZM12.717 8.075C12.6903 8.17167 12.6583 8.26967 12.621 8.369C12.7584 8.42859 12.9096 8.44934 13.058 8.429C13.0827 8.31217 13.1004 8.19395 13.111 8.075C13.0563 8.08181 13.0012 8.08515 12.946 8.085C12.88 8.085 12.801 8.081 12.716 8.075H12.717ZM13.117 7.774C13.1116 7.66272 13.0955 7.55221 13.069 7.444C12.9836 7.48522 12.8957 7.52129 12.806 7.552C12.8028 7.62805 12.7951 7.70385 12.783 7.779C12.8942 7.78918 13.0062 7.7875 13.117 7.774ZM12.288 9.125C12.4635 9.16987 12.642 9.20262 12.822 9.223C12.881 9.058 12.935 8.897 12.98 8.74L12.964 8.743C12.8082 8.73763 12.6546 8.70514 12.51 8.647C12.4427 8.80367 12.3687 8.963 12.288 9.125ZM11.829 10.028C12.0364 10.0806 12.2527 10.0874 12.463 10.048C12.4814 10.0422 12.5008 10.0402 12.52 10.042L12.717 9.513C12.5263 9.48476 12.3371 9.44739 12.15 9.401L12.035 9.624L11.829 10.028ZM11.424 10.916C11.6818 10.9965 11.9535 11.023 12.222 10.994H12.225C12.2438 10.8845 12.2695 10.7763 12.302 10.67C12.335 10.567 12.371 10.466 12.406 10.364C12.3503 10.371 12.2942 10.3743 12.238 10.374C12.0543 10.371 11.8715 10.3475 11.693 10.304C11.596 10.505 11.507 10.71 11.424 10.916ZM11.119 11.982C11.4912 12.0175 11.8665 11.964 12.214 11.826C12.1875 11.6507 12.1794 11.473 12.19 11.296C12.1404 11.3046 12.0903 11.3099 12.04 11.312C11.7955 11.3045 11.5529 11.2662 11.318 11.198C11.2275 11.4527 11.1606 11.7151 11.118 11.982H11.119ZM11.081 12.595C11.0886 12.7241 11.1039 12.8527 11.127 12.98C11.589 12.9381 12.0331 12.7814 12.419 12.524C12.3607 12.3946 12.3126 12.2609 12.275 12.124C11.9673 12.2404 11.6398 12.2951 11.311 12.285C11.2356 12.2851 11.1603 12.2834 11.085 12.28C11.0776 12.3848 11.0763 12.49 11.081 12.595ZM12.105 15.187C11.4236 14.6234 10.9682 13.8331 10.822 12.961C10.4027 12.552 10.11 12.0309 9.979 11.46C9.9443 11.3043 9.91429 11.1475 9.889 10.99C9.86939 10.7204 9.78463 10.4596 9.642 10.23C9.31965 9.77524 9.12084 9.24461 9.065 8.69C9.0738 8.62526 9.0579 8.55958 9.02047 8.50603C8.98304 8.45248 8.92682 8.41498 8.863 8.401C8.79352 8.38766 8.72156 8.40065 8.66112 8.43743C8.60068 8.47421 8.55608 8.53216 8.536 8.6C8.53304 8.60556 8.5297 8.61091 8.526 8.616C8.74326 8.8521 8.89314 9.1422 8.96 9.456C8.96479 9.47511 8.96578 9.49497 8.96289 9.51446C8.96001 9.53395 8.95332 9.55268 8.9432 9.56958C8.93307 9.58648 8.91972 9.60122 8.9039 9.61296C8.88808 9.6247 8.87011 9.63321 8.851 9.638C8.81258 9.64685 8.77223 9.64043 8.73846 9.62009C8.70469 9.59975 8.68015 9.56709 8.67 9.529C8.478 8.764 8.037 8.563 7.8 8.616C7.73998 8.63338 7.68767 8.67068 7.65168 8.72175C7.61569 8.77283 7.59817 8.83464 7.602 8.897C7.60173 8.94245 7.61946 8.98615 7.65132 9.01857C7.68317 9.05098 7.72656 9.06947 7.772 9.07C7.93601 9.07824 8.09412 9.13381 8.22722 9.23C8.36032 9.32618 8.4627 9.45886 8.522 9.612C8.53152 9.64503 8.5294 9.68033 8.516 9.71199C8.5026 9.74365 8.47874 9.76975 8.4484 9.78591C8.41806 9.80208 8.38309 9.80733 8.34934 9.80079C8.31559 9.79426 8.28511 9.77632 8.263 9.75C8.19586 9.69464 8.11773 9.65415 8.03378 9.63123C7.94983 9.6083 7.86196 9.60345 7.776 9.617C7.69867 9.6161 7.62194 9.63068 7.55033 9.65988C7.47871 9.68907 7.41366 9.73229 7.359 9.787C7.34639 9.80301 7.33789 9.82185 7.33423 9.84189C7.33057 9.86194 7.33186 9.88257 7.338 9.902C7.386 10.077 7.485 10.097 7.871 10.005L7.99 9.978C8.444 9.886 8.777 10.635 8.848 10.92C8.86767 11.1222 8.84676 11.3264 8.78648 11.5204C8.72621 11.7144 8.62779 11.8945 8.497 12.05C8.427 12.161 8.411 12.25 8.45 12.313C8.47929 12.3513 8.51696 12.3824 8.56012 12.4039C8.60328 12.4254 8.65079 12.4367 8.699 12.437C8.859 12.424 9.014 11.894 9.053 11.427C9.05601 11.3895 9.073 11.3545 9.10059 11.3289C9.12819 11.3034 9.16438 11.2891 9.202 11.289C9.23995 11.2889 9.27652 11.3032 9.30436 11.329C9.33219 11.3548 9.34922 11.3902 9.352 11.428C9.51687 12.7962 9.89336 14.1304 10.468 15.383C10.4778 15.4029 10.4829 15.4248 10.483 15.447C10.4844 15.6112 10.4433 15.773 10.3638 15.9167C10.2842 16.0603 10.1689 16.181 10.029 16.267C10.2093 16.3049 10.3971 16.2846 10.5651 16.2089C10.7332 16.1332 10.8728 16.0062 10.964 15.846C10.9732 15.828 10.9859 15.812 11.0013 15.7989C11.0168 15.7859 11.0347 15.776 11.054 15.77C11.429 15.6238 11.7825 15.4277 12.105 15.187ZM13.14 13.927C13.1461 13.9207 13.1528 13.915 13.16 13.91C13.177 13.751 13.197 13.606 13.217 13.478C13.2018 13.4768 13.187 13.4731 13.173 13.467C13.1159 13.4346 13.0623 13.3964 13.013 13.353C12.6638 13.7902 12.1664 14.0841 11.615 14.179C11.7708 14.4116 11.9519 14.6263 12.155 14.819C12.5096 14.5516 12.8392 14.2527 13.14 13.926V13.927ZM13.072 15.488C13.073 15.446 13.077 15.406 13.077 15.363C13.078 14.999 13.094 14.679 13.116 14.388C12.86 14.636 12.556 14.885 12.383 15.021C12.597 15.1986 12.8277 15.355 13.072 15.488ZM21.359 14.907C21.3306 14.695 21.3728 14.4796 21.479 14.294C20.8745 14.093 20.2188 14.1093 19.625 14.34C19.7035 14.3913 19.7695 14.4597 19.818 14.54C19.8661 14.6277 19.8959 14.7242 19.9055 14.8237C19.9152 14.9233 19.9044 15.0237 19.874 15.119C19.867 15.149 19.057 18.061 17.907 18.247C17.6843 18.273 17.4587 18.2372 17.255 18.1435C17.0513 18.0499 16.8773 17.902 16.752 17.716C16.546 17.488 16.478 17.433 16.382 17.484C16.271 17.542 16.262 17.604 16.265 17.652C16.2886 17.7398 16.3293 17.8221 16.3847 17.8941C16.4401 17.9662 16.5092 18.0266 16.588 18.072C16.693 18.118 16.78 18.164 16.833 18.193C16.865 18.2115 16.8891 18.2411 16.9006 18.2762C16.9121 18.3113 16.9102 18.3495 16.8953 18.3833C16.8805 18.4171 16.8536 18.4442 16.82 18.4595C16.7863 18.4748 16.7482 18.4771 16.713 18.466C16.6216 18.4349 16.5344 18.3929 16.453 18.341C16.185 18.225 15.911 18.155 15.829 18.219C15.7835 18.2529 15.7485 18.2989 15.728 18.3518C15.7075 18.4047 15.7023 18.4623 15.713 18.518C15.753 18.643 15.937 18.669 16.043 18.673C16.66 18.698 16.908 18.698 16.911 18.698C16.9508 18.698 16.9889 18.7138 17.0171 18.7419C17.0452 18.7701 17.061 18.8082 17.061 18.848C17.061 18.8878 17.0452 18.9259 17.0171 18.9541C16.9889 18.9822 16.9508 18.998 16.911 18.998C16.911 18.998 16.671 18.998 16.081 18.975C16.0246 19.022 15.982 19.0832 15.9575 19.1524C15.9331 19.2216 15.9277 19.296 15.942 19.368C15.998 19.511 16.299 19.425 16.391 19.396C16.6928 19.2992 17.0071 19.2473 17.324 19.242C17.6158 19.2449 17.9046 19.1834 18.17 19.062C18.7452 18.841 19.3739 18.7999 19.973 18.944C19.9993 18.9501 20.0269 18.9471 20.0512 18.9355C20.0756 18.9238 20.0952 18.9043 20.107 18.88C20.228 18.606 20.22 18.486 20.207 18.464C20.207 18.462 20.198 18.462 20.181 18.462C20.1571 18.4626 20.1333 18.4656 20.11 18.471C19.735 18.548 19.525 18.563 19.416 18.427C19.31 18.297 19.378 18.114 19.456 17.939C19.9519 17.3007 20.5276 16.7287 21.169 16.237C21.1858 16.2237 21.2052 16.2141 21.226 16.209C21.307 16.187 21.723 16.092 21.914 16.304C21.9341 16.3258 21.9509 16.3504 21.964 16.377C22.0733 16.2692 22.1407 16.126 22.154 15.973C22.1428 15.8943 22.1121 15.8196 22.0648 15.7557C22.0175 15.6918 21.955 15.6407 21.883 15.607C21.75 15.5355 21.6341 15.4358 21.5436 15.3149C21.4531 15.194 21.3901 15.0548 21.359 14.907ZM19.875 13.945L19.789 12.951C19.5731 12.9646 19.3578 12.988 19.144 13.021L19.408 14.099C19.5602 14.0376 19.7162 13.9862 19.875 13.945ZM19.561 14.692C19.5504 14.6762 19.5384 14.6615 19.525 14.648L18.989 15.664C19.0966 15.7296 19.2105 15.7842 19.329 15.827C19.446 15.515 19.535 15.234 19.585 15.043C19.6045 14.986 19.6124 14.9257 19.6083 14.8656C19.6041 14.8055 19.5881 14.7458 19.561 14.692ZM18.665 14.832C18.541 14.9142 18.415 14.9932 18.287 15.069C18.4241 15.225 18.5758 15.3677 18.74 15.495L19.271 14.486C19.0609 14.5866 18.8584 14.7022 18.665 14.832ZM19.13 14.222L18.848 13.072C18.651 13.1093 18.4553 13.1526 18.261 13.202L18.694 14.46C18.8407 14.3707 18.986 14.2913 19.13 14.222ZM17.971 13.281C17.785 13.334 17.613 13.389 17.456 13.442L17.898 14.944C18.0819 14.8427 18.262 14.7346 18.438 14.62C18.436 14.614 18.43 14.612 18.428 14.606L17.971 13.281ZM17.173 13.541C16.9757 13.6131 16.781 13.6918 16.589 13.777L16.569 13.811L17.065 15.356C17.24 15.28 17.431 15.19 17.629 15.089L17.628 15.086L17.173 13.541ZM16.379 14.197C16.1595 14.6694 16.0675 15.191 16.112 15.71C16.232 15.674 16.476 15.595 16.788 15.471L16.379 14.197ZM16.08 17.213C16.12 17.231 16.153 17.249 16.178 17.263C16.1984 17.247 16.2198 17.2323 16.242 17.219C16.557 17.053 16.779 17.299 16.975 17.515C17.0672 17.6631 17.1988 17.7824 17.3552 17.8596C17.5116 17.9368 17.6864 17.9688 17.86 17.952C18.371 17.869 18.879 16.937 19.22 16.105C18.7526 15.915 18.3405 15.6103 18.022 15.219C17.4408 15.542 16.8275 15.8034 16.192 15.999L16.2 16.019C16.2769 16.1574 16.3246 16.3101 16.3403 16.4676C16.3559 16.6251 16.3391 16.7842 16.291 16.935C16.2434 17.0429 16.1712 17.1382 16.08 17.213ZM20.17 13.885C20.3182 13.8609 20.4679 13.8478 20.618 13.846L20.718 12.968C20.5088 12.9452 20.2984 12.9355 20.088 12.939L20.17 13.885ZM21.343 13.935L21.605 13.159C21.4451 13.1101 21.2833 13.0678 21.12 13.032C21.085 13.024 21.05 13.021 21.015 13.014L20.918 13.859C21.0614 13.8733 21.2035 13.8987 21.343 13.935ZM22.113 14.254L22.611 13.559C22.3772 13.4419 22.1365 13.3393 21.89 13.252L21.629 14.024C21.7967 14.0865 21.9587 14.1634 22.113 14.254ZM22.746 14.708L23.403 14.03C23.2328 13.9126 23.0573 13.8031 22.877 13.702L22.365 14.416C22.4423 14.4707 22.519 14.529 22.595 14.591C22.645 14.634 22.695 14.668 22.746 14.708ZM23.362 15.137L24.083 14.562C23.9427 14.4377 23.7976 14.3189 23.648 14.206L22.985 14.891C23.1137 14.9823 23.2393 15.0643 23.362 15.137ZM24.118 15.5L24.65 15.122C24.5393 15.0002 24.4246 14.8821 24.306 14.768L23.648 15.292C23.8006 15.3703 23.9575 15.4397 24.118 15.5ZM25.138 15.728C25.067 15.628 24.968 15.497 24.846 15.35L24.474 15.614C24.691 15.6741 24.9134 15.7123 25.138 15.728ZM27.012 8.502C26.8144 8.3226 26.5775 8.19199 26.3203 8.12062C26.0631 8.04925 25.7928 8.0391 25.531 8.091C25.355 8.13411 25.1896 8.21254 25.0449 8.32153C24.9001 8.43051 24.7791 8.56778 24.689 8.725C24.6315 8.81985 24.5936 8.92529 24.5776 9.03506C24.5617 9.14483 24.5679 9.25669 24.596 9.364C24.6436 9.51272 24.7246 9.64859 24.8327 9.76124C24.9409 9.87389 25.0733 9.96035 25.22 10.014C25.4423 10.0645 25.6733 10.0624 25.8946 10.0078C26.116 9.95334 26.3216 9.84793 26.495 9.7C26.4696 9.59137 26.4309 9.48626 26.38 9.387C26.2521 9.53966 26.0715 9.6386 25.8739 9.66417C25.6764 9.68974 25.4766 9.64006 25.314 9.525C25.2618 9.47721 25.2197 9.41952 25.19 9.35529C25.1603 9.29106 25.1436 9.22157 25.141 9.15086C25.1384 9.08014 25.1499 9.00962 25.1748 8.94338C25.1997 8.87714 25.2375 8.8165 25.286 8.765C25.368 8.66793 25.4793 8.59999 25.6031 8.57133C25.7269 8.54268 25.8567 8.55484 25.973 8.606C26.2421 8.73414 26.4673 8.93908 26.6202 9.19497C26.773 9.45087 26.8467 9.74629 26.832 10.044C26.8277 10.2202 26.777 10.3921 26.685 10.5424C26.593 10.6927 26.463 10.8161 26.308 10.9C25.9563 11.096 25.5585 11.1944 25.156 11.185C24.7875 11.1897 24.4227 11.1122 24.088 10.958C23.1627 10.5957 22.1931 10.3586 21.205 10.253L21.197 10.25C20.7013 10.5735 20.3167 11.0412 20.095 11.59L20.088 11.602C20.0838 11.6105 20.0788 11.6185 20.073 11.626C20.0677 11.6336 20.0617 11.6406 20.055 11.647C20.0482 11.653 20.0408 11.6584 20.033 11.663C20.0242 11.6687 20.0148 11.6733 20.005 11.677L19.993 11.683L19.973 11.686L19.962 11.687L19.955 11.688L19.947 11.685C19.9335 11.6855 19.9201 11.6842 19.907 11.681C19.6908 11.5944 19.4592 11.5529 19.2264 11.5589C18.9936 11.5649 18.7644 11.6184 18.553 11.716C18.1792 11.9308 17.8952 12.273 17.753 12.68L17.749 12.686C17.7405 12.7099 17.7261 12.7313 17.707 12.748C17.6988 12.7552 17.6898 12.7612 17.68 12.766C17.6588 12.7786 17.6347 12.7854 17.61 12.786H17.604C17.2198 12.7693 16.8555 12.6103 16.582 12.34C16.5701 12.583 16.6329 12.8238 16.762 13.03C16.7762 13.0526 16.7842 13.0785 16.785 13.1052C16.7859 13.1318 16.7796 13.1582 16.7669 13.1816C16.7542 13.2051 16.7354 13.2247 16.7126 13.2385C16.6898 13.2522 16.6637 13.2597 16.637 13.26H16.633C16.3316 13.2434 16.0398 13.1481 15.7867 12.9837C15.5335 12.8193 15.3278 12.5916 15.19 12.323C14.7402 12.6583 14.2012 12.8531 13.641 12.883C13.453 13.6963 13.3644 14.5294 13.377 15.364C13.3592 16.7503 12.7979 18.0742 11.814 19.051C11.7866 19.0759 11.751 19.0898 11.714 19.09C11.6907 19.09 11.6678 19.0845 11.647 19.074C11.2481 18.8814 10.9144 18.5761 10.687 18.196C10.6714 18.135 10.6325 18.0826 10.5786 18.0501C10.5247 18.0175 10.4602 18.0074 10.399 18.022C10.3587 18.0282 10.3218 18.0481 10.2944 18.0783C10.2671 18.1085 10.2511 18.1473 10.249 18.188C10.267 18.415 10.633 18.686 10.834 18.773C10.8521 18.7809 10.8684 18.7922 10.8821 18.8064C10.8957 18.8206 10.9065 18.8374 10.9137 18.8557C10.9208 18.874 10.9244 18.8936 10.924 18.9133C10.9236 18.933 10.9194 18.9524 10.9115 18.9705C10.9036 18.9886 10.8923 19.0049 10.8781 19.0186C10.8639 19.0322 10.8471 19.043 10.8288 19.0502C10.8105 19.0574 10.7909 19.0609 10.7712 19.0605C10.7515 19.0601 10.7321 19.0559 10.714 19.048C10.5429 18.9666 10.3854 18.8593 10.247 18.73C10.1377 18.7698 10.044 18.8438 9.98 18.941C9.95097 18.9845 9.93119 19.0334 9.9219 19.0849C9.91261 19.1363 9.91401 19.1891 9.926 19.24C9.9695 19.3403 10.0501 19.4199 10.151 19.462C10.2997 19.3247 10.4968 19.2521 10.699 19.26C10.7388 19.26 10.7769 19.2758 10.8051 19.3039C10.8332 19.3321 10.849 19.3702 10.849 19.41C10.849 19.4498 10.8332 19.4879 10.8051 19.5161C10.7769 19.5442 10.7388 19.56 10.699 19.56C10.596 19.56 10.262 19.586 10.262 19.934C10.2561 19.9776 10.2645 20.022 10.2859 20.0604C10.3074 20.0988 10.3408 20.1292 10.381 20.147C10.4363 20.1604 10.4944 20.1566 10.5475 20.136C10.6006 20.1155 10.6461 20.0792 10.678 20.032C10.7707 19.9221 10.8969 19.8456 11.0372 19.8141C11.1775 19.7827 11.3243 19.7981 11.455 19.858C11.9739 19.994 12.5253 19.9253 12.995 19.666C13.5215 19.5249 14.0733 19.5065 14.608 19.612C14.3502 19.4682 14.067 19.3758 13.774 19.34C13.6314 19.3128 13.4899 19.2798 13.35 19.241C13.2911 19.2248 13.2383 19.1918 13.1979 19.1459C13.1576 19.1001 13.1315 19.0435 13.123 18.983C13.032 18.458 14.028 17.245 14.727 16.733C15.022 16.515 15.267 16.458 15.455 16.561C15.5398 16.6228 15.609 16.7035 15.657 16.7967C15.7051 16.8899 15.7308 16.9931 15.732 17.098C15.8563 17.0423 15.9567 16.9441 16.015 16.821C16.0758 16.5907 16.0435 16.3457 15.925 16.139C15.8148 15.7053 15.7967 15.2534 15.8718 14.8123C15.9469 14.3712 16.1135 13.9508 16.361 13.578C16.3762 13.5545 16.3976 13.5358 16.423 13.524C17.9053 12.8231 19.5542 12.5515 21.183 12.74C22.9841 13.1482 24.5519 14.2493 25.547 15.805L25.548 15.807L25.55 15.809C25.9497 16.6064 26.018 17.5295 25.74 18.377C25.7293 18.4055 25.7101 18.43 25.6851 18.4473C25.6601 18.4646 25.6304 18.4739 25.6 18.474C25.3828 18.4619 25.1721 18.3957 24.987 18.2815C24.8019 18.1673 24.6483 18.0087 24.54 17.82C24.5029 17.7386 24.4462 17.6675 24.375 17.6133C24.3039 17.559 24.2204 17.5232 24.132 17.509C24.0598 17.5055 23.9878 17.5192 23.922 17.549C23.9541 17.5852 23.9789 17.6273 23.995 17.673L24.028 17.766C24.0495 17.871 24.1042 17.9664 24.184 18.038C24.2824 18.0626 24.3782 18.0968 24.47 18.14C24.5028 18.1559 24.5287 18.1833 24.5428 18.2169C24.5569 18.2506 24.5582 18.2882 24.5466 18.3228C24.535 18.3574 24.5111 18.3865 24.4795 18.4048C24.4479 18.423 24.4108 18.4292 24.375 18.422C24.2681 18.4039 24.1648 18.3688 24.069 18.318C24.0079 18.2958 23.9422 18.2893 23.8779 18.2991C23.8136 18.3089 23.7528 18.3347 23.701 18.374C23.6582 18.4183 23.63 18.4747 23.6204 18.5355C23.6107 18.5963 23.62 18.6586 23.647 18.714C23.6576 18.7351 23.6755 18.7517 23.6974 18.7605C23.7193 18.7693 23.7437 18.7699 23.766 18.762C23.9455 18.7191 24.1316 18.7113 24.314 18.739C24.4879 18.77 24.6669 18.7562 24.834 18.699C24.8525 18.6922 24.8722 18.6892 24.8919 18.69C24.9116 18.6909 24.9309 18.6956 24.9488 18.7039C24.9667 18.7122 24.9827 18.7239 24.9961 18.7385C25.0094 18.753 25.0197 18.77 25.0265 18.7885C25.0333 18.807 25.0363 18.8267 25.0355 18.8464C25.0346 18.8661 25.0299 18.8854 25.0216 18.9033C25.0133 18.9212 25.0016 18.9372 24.987 18.9506C24.9725 18.9639 24.9555 18.9742 24.937 18.981C24.727 19.0535 24.5023 19.0728 24.283 19.037C24.1601 19.0208 24.0354 19.0225 23.913 19.042C23.8619 19.1622 23.8535 19.2963 23.889 19.422C23.9039 19.4534 23.926 19.4809 23.9534 19.5022C23.9809 19.5236 24.0129 19.5382 24.047 19.545C24.1567 19.5653 24.2695 19.5623 24.378 19.5363C24.4865 19.5103 24.5884 19.4618 24.677 19.394C24.8356 19.2846 25.0234 19.2254 25.216 19.224C25.295 19.231 25.386 19.244 25.485 19.26C25.8696 19.3478 26.2695 19.3433 26.652 19.247L26.89 19.167C27.3 19.025 27.55 18.94 27.903 19.143C27.9831 19.1777 28.0719 19.1873 28.1576 19.1705C28.2433 19.1537 28.3219 19.1113 28.383 19.049C28.453 18.975 28.427 18.935 28.419 18.921C28.278 18.704 28.062 18.578 27.47 18.671C27.4175 18.6801 27.3636 18.6777 27.3122 18.6638C27.2607 18.65 27.2129 18.6252 27.172 18.591C26.872 18.348 26.812 17.631 26.763 16.718C26.7617 16.4724 26.7383 16.2274 26.693 15.986C26.6645 15.9284 26.6569 15.8627 26.6715 15.8001C26.6861 15.7376 26.722 15.682 26.773 15.643C26.8771 15.5861 26.9947 15.5589 27.1132 15.5641C27.2317 15.5694 27.3464 15.6071 27.445 15.673C27.4959 15.459 27.4756 15.2343 27.387 15.033C27.3501 14.9743 27.2997 14.9253 27.2401 14.89C27.1804 14.8547 27.1132 14.8341 27.044 14.83C26.6294 14.7624 26.242 14.5801 25.9256 14.3037C25.6093 14.0273 25.3766 13.6678 25.254 13.266C25.0069 12.6071 24.5715 12.0354 24.002 11.622C23.983 11.6139 23.9659 11.602 23.9518 11.587C23.9376 11.572 23.9267 11.5543 23.9197 11.5349C23.9127 11.5155 23.9098 11.4949 23.9111 11.4743C23.9125 11.4537 23.918 11.4337 23.9275 11.4153C23.9369 11.397 23.95 11.3808 23.966 11.3678C23.982 11.3548 24.0005 11.3452 24.0203 11.3396C24.0402 11.334 24.0609 11.3326 24.0814 11.3354C24.1018 11.3382 24.1214 11.3453 24.139 11.356C24.7354 11.7746 25.1991 12.3556 25.475 13.03C26.0255 12.8549 26.5153 12.5277 26.8879 12.0863C27.2605 11.6448 27.5008 11.1071 27.581 10.535C27.6709 10.176 27.6659 9.79973 27.5663 9.44327C27.4667 9.08681 27.276 8.76242 27.013 8.502H27.012ZM25.869 8.887C25.8223 8.86932 25.7729 8.85985 25.723 8.859C25.6835 8.85818 25.6444 8.86651 25.6086 8.88334C25.5729 8.90016 25.5415 8.92503 25.517 8.956C25.493 8.97774 25.4738 9.00417 25.4605 9.03366C25.4471 9.06315 25.44 9.09506 25.4395 9.12741C25.4391 9.15977 25.4453 9.19187 25.4577 9.22174C25.4702 9.2516 25.4887 9.27858 25.512 9.301C25.646 9.42 25.917 9.413 26.211 9.136C26.1192 9.02613 26.0018 8.9406 25.869 8.887ZM28.876 5.294C27.8984 5.64662 27.0428 6.27282 26.411 7.098L27.346 6.905C27.4495 6.68589 27.5745 6.47754 27.719 6.283C27.7444 6.25541 27.7792 6.23833 27.8165 6.2351C27.8538 6.23188 27.891 6.24275 27.9208 6.26558C27.9505 6.2884 27.9706 6.32153 27.9771 6.35844C27.9836 6.39535 27.9761 6.43337 27.956 6.465C27.8386 6.62263 27.7358 6.79066 27.649 6.967L27.656 6.977L27.967 7.927C28.1787 7.02043 28.4833 6.1381 28.876 5.294Z"
		fill="#464655"
	/>
</svg>
