<svg
	color="rgb(var(--foreground, 0, 0, 0))"
	viewBox="0 0 18 14"
	fill="none"
	xmlns="http://www.w3.org/2000/svg"
>
	<path
		d="M0.000976562 13.3317C0.000976562 13.5155 0.0654061 13.6714 0.194265 13.7995C0.323124 13.9332 0.47346 14 0.645272 14H17.3486C17.5258 14 17.6788 13.9332 17.8077 13.7995C17.9365 13.6714 18.001 13.5155 18.001 13.3317C18.001 13.148 17.9365 12.9893 17.8077 12.8556C17.6788 12.722 17.5258 12.6551 17.3486 12.6551H2.21574L13.3137 1.14439C13.4372 1.01074 13.499 0.852029 13.499 0.668258C13.499 0.478918 13.4372 0.320207 13.3137 0.192124C13.1902 0.0640414 13.0372 0 12.8547 0C12.6775 0 12.5245 0.0640414 12.3956 0.192124L0.186211 12.8556C0.13252 12.9113 0.0868826 12.9809 0.0492987 13.0644C0.0170839 13.1535 0.000976562 13.2426 0.000976562 13.3317ZM9.39158 13.3067H10.6882C10.6882 12.3544 10.5701 11.4383 10.3339 10.5585C10.0976 9.6786 9.75937 8.85163 9.3191 8.07757C8.8842 7.3035 8.36608 6.60461 7.76473 5.98091L6.83856 6.92482C7.62782 7.74344 8.25064 8.70127 8.70702 9.79833C9.16339 10.8954 9.39158 12.0648 9.39158 13.3067Z"
		fill="currentColor"
	/>
</svg>
