<svg
	color="rgb(var(--foreground, 0, 0, 0))"
	viewBox="0 0 16 16"
	fill="none"
	xmlns="http://www.w3.org/2000/svg"
>
	<path
		d="M8.00098 11.851C8.70163 11.851 9.34215 11.6758 9.92255 11.3255C10.5082 10.9752 10.9761 10.5098 11.3265 9.92941C11.6768 9.34379 11.852 8.70065 11.852 8C11.852 7.29935 11.6768 6.65621 11.3265 6.07059C10.9761 5.48497 10.5082 5.01699 9.92255 4.66667C9.34215 4.31634 8.70163 4.14118 8.00098 4.14118C7.30032 4.14118 6.65719 4.31634 6.07157 4.66667C5.49117 5.01699 5.02581 5.48497 4.67549 6.07059C4.32516 6.65621 4.15 7.29935 4.15 8C4.15 8.70065 4.32516 9.34379 4.67549 9.92941C5.02581 10.5098 5.49117 10.9752 6.07157 11.3255C6.65719 11.6758 7.30032 11.851 8.00098 11.851ZM8.00098 10.6667C7.51993 10.6667 7.07549 10.5464 6.66764 10.3059C6.26503 10.0601 5.94085 9.73595 5.69509 9.33333C5.45457 8.92549 5.33431 8.48105 5.33431 8C5.33431 7.51373 5.45457 7.06928 5.69509 6.66667C5.94085 6.25882 6.26503 5.93464 6.66764 5.69412C7.07026 5.44837 7.5147 5.32549 8.00098 5.32549C8.48202 5.32549 8.92385 5.44837 9.32647 5.69412C9.73431 5.93464 10.0585 6.25882 10.299 6.66667C10.5448 7.06928 10.6676 7.51373 10.6676 8C10.6676 8.48627 10.5448 8.93072 10.299 9.33333C10.0585 9.73595 9.73692 10.0601 9.33431 10.3059C8.9317 10.5464 8.48725 10.6667 8.00098 10.6667ZM14.5971 5.32549V4.14902L8.04019 4.14118V5.32549H14.5971ZM13.6402 12.4549L14.6363 11.8275L11.3971 6.21177L10.3774 6.8L13.6402 12.4549ZM7.0049 15.0353L8.04019 15.5922L11.2951 9.97647L10.2755 9.38039L7.0049 15.0353ZM1.4049 10.6667V11.8431L7.96176 11.851V10.6667H1.4049ZM2.36176 3.52941L1.36568 4.16471L4.6049 9.78039L5.62451 9.19216L2.36176 3.52941ZM8.99706 0.94902L7.96176 0.4L4.70686 6.01569L5.72647 6.61176L8.99706 0.94902ZM8.00098 16C9.09379 16 10.1212 15.7909 11.0833 15.3726C12.0507 14.9542 12.9029 14.3765 13.6402 13.6392C14.3774 12.902 14.9552 12.0523 15.3735 11.0902C15.7918 10.1229 16.001 9.09281 16.001 8C16.001 6.90719 15.7918 5.87974 15.3735 4.91765C14.9552 3.95033 14.3774 3.09804 13.6402 2.36078C12.9029 1.62353 12.0507 1.04575 11.0833 0.627451C10.116 0.20915 9.08594 0 7.99313 0C6.90032 0 5.87026 0.20915 4.90294 0.627451C3.94085 1.04575 3.09117 1.62353 2.35392 2.36078C1.62189 3.09804 1.04673 3.95033 0.628428 4.91765C0.210127 5.87974 0.000976562 6.90719 0.000976562 8C0.000976562 9.09281 0.210127 10.1229 0.628428 11.0902C1.04673 12.0523 1.62451 12.902 2.36176 13.6392C3.09902 14.3765 3.94869 14.9542 4.91078 15.3726C5.8781 15.7909 6.90817 16 8.00098 16ZM8.00098 14.6667C7.07549 14.6667 6.21013 14.4941 5.4049 14.149C4.59967 13.8039 3.89117 13.3281 3.27941 12.7216C2.67287 12.1098 2.19706 11.4013 1.85196 10.5961C1.51209 9.79085 1.34215 8.92549 1.34215 8C1.34215 7.07451 1.51209 6.20915 1.85196 5.40392C2.19706 4.59869 2.67287 3.8902 3.27941 3.27843C3.88594 2.66667 4.59183 2.19085 5.39706 1.85098C6.20228 1.50588 7.06764 1.33333 7.99313 1.33333C8.91862 1.33333 9.78398 1.50588 10.5892 1.85098C11.3997 2.19085 12.1082 2.66667 12.7147 3.27843C13.3265 3.8902 13.8049 4.59869 14.15 5.40392C14.4951 6.20915 14.6676 7.07451 14.6676 8C14.6676 8.92549 14.4951 9.79085 14.15 10.5961C13.8101 11.4013 13.3343 12.1098 12.7225 12.7216C12.1108 13.3281 11.4023 13.8039 10.5971 14.149C9.79183 14.4941 8.92647 14.6667 8.00098 14.6667Z"
		fill="currentColor"
	/>
</svg>
