<svg
	color="rgb(var(--foreground, 0, 0, 0))"
	viewBox="0 0 19 16"
	fill="none"
	xmlns="http://www.w3.org/2000/svg"
>
	<path
		d="M14.4882 14.9052V7.06708C14.4882 6.41526 14.3163 5.92097 13.9725 5.58419C13.6341 5.24199 13.1372 5.07089 12.4818 5.07089H0.693418V6.23601H12.4012C12.6967 6.23601 12.925 6.32292 13.0861 6.49674C13.2527 6.66513 13.3359 6.8987 13.3359 7.19745V14.9052H14.4882ZM10.1129 5.45383H8.96061V14.9052H10.1129V5.45383ZM2.53057 15.5H16.4704C17.3191 15.5 17.953 15.2882 18.372 14.8645C18.791 14.4462 19.0005 13.8188 19.0005 12.9823V3.0258C19.0005 2.1893 18.791 1.55921 18.372 1.13552C17.953 0.711841 17.3191 0.5 16.4704 0.5H2.53057C1.6872 0.5 1.05333 0.711841 0.628957 1.13552C0.209957 1.55378 0.000488281 2.18387 0.000488281 3.0258V12.9823C0.000488281 13.8188 0.209957 14.4462 0.628957 14.8645C1.05333 15.2882 1.6872 15.5 2.53057 15.5ZM2.54669 14.1882C2.1438 14.1882 1.83492 14.0823 1.62005 13.8705C1.40518 13.6532 1.29774 13.3327 1.29774 12.909V3.09913C1.29774 2.67545 1.40518 2.35497 1.62005 2.1377C1.83492 1.92042 2.1438 1.81179 2.54669 1.81179H16.4543C16.8518 1.81179 17.158 1.92042 17.3728 2.1377C17.5931 2.35497 17.7032 2.67545 17.7032 3.09913V12.909C17.7032 13.3327 17.5931 13.6532 17.3728 13.8705C17.158 14.0823 16.8518 14.1882 16.4543 14.1882H2.54669Z"
		fill="currentColor"
	/>
</svg>
