<svg
	color="rgb(var(--foreground, 0, 0, 0))"
	viewBox="0 0 17 20"
	fill="none"
	xmlns="http://www.w3.org/2000/svg"
>
	<path
		d="M1.00805 18.485C1.67439 19.1563 2.37804 19.4946 3.119 19.4999C3.85997 19.5053 4.55829 19.1803 5.21396 18.525C5.45917 18.2852 5.70172 17.9789 5.9416 17.6059C6.18681 17.233 6.42669 16.8387 6.66124 16.4232C6.89579 16.0129 7.11968 15.6267 7.33291 15.2644C7.55147 14.9021 7.7567 14.6091 7.9486 14.3853L9.65176 16.0955C9.96094 16.4099 10.2914 16.567 10.6433 16.567C11.0004 16.5724 11.3309 16.4232 11.6348 16.1195L12.6663 15.0806C12.9701 14.7716 13.122 14.4439 13.122 14.0976C13.122 13.7513 12.9621 13.421 12.6423 13.1067L6.39737 6.85729C6.08286 6.54295 5.74969 6.38578 5.39787 6.38578C5.05138 6.38046 4.72354 6.52963 4.41436 6.83331L3.38287 7.87221C3.07902 8.17589 2.9271 8.50355 2.9271 8.85518C2.9271 9.2068 3.08435 9.53979 3.39886 9.85412L5.11001 11.5563C4.88612 11.7428 4.59294 11.9452 4.23045 12.1637C3.86796 12.3768 3.48149 12.6032 3.07103 12.843C2.66056 13.0774 2.26876 13.3171 1.89561 13.5622C1.52246 13.802 1.21595 14.0417 0.976068 14.2814C0.320394 14.9368 -0.00477792 15.6347 0.000552765 16.3752C0.00588345 17.1158 0.341717 17.819 1.00805 18.485ZM4.49432 8.58346L5.142 7.95213C5.24861 7.84558 5.35522 7.7923 5.46184 7.7923C5.57378 7.78697 5.6804 7.83758 5.78168 7.94414L11.5628 13.714C11.7707 13.9272 11.7654 14.1429 11.5468 14.3614L10.9231 14.9927C10.7046 15.2271 10.486 15.2298 10.2674 15.0007L8.3564 13.0827C8.20714 12.9335 8.04189 12.8669 7.86065 12.8829C7.68473 12.8936 7.51149 12.9815 7.3409 13.1466C7.18631 13.3011 7.00241 13.5595 6.78918 13.9218C6.57595 14.2841 6.3414 14.6943 6.08553 15.1525C5.82966 15.6107 5.55513 16.0636 5.26194 16.5111C4.97408 16.9586 4.67023 17.3395 4.35039 17.6539C3.96658 18.0428 3.55345 18.2346 3.11101 18.2293C2.67389 18.2293 2.25543 18.0322 1.85563 17.6379C1.46116 17.2437 1.26126 16.8254 1.25593 16.3832C1.25593 15.941 1.4505 15.5281 1.83964 15.1445C2.15415 14.8302 2.53529 14.5265 2.98307 14.2335C3.43085 13.9405 3.88396 13.6661 4.34239 13.4104C4.80083 13.1546 5.2113 12.9229 5.57378 12.7151C5.9416 12.502 6.2028 12.3182 6.35739 12.1637C6.51731 11.9932 6.60527 11.8174 6.62126 11.6362C6.63725 11.4551 6.57062 11.2926 6.42136 11.1488L4.49432 9.23078C4.27576 9.01234 4.27576 8.79657 4.49432 8.58346ZM3.07902 17.4221C3.35089 17.4221 3.58277 17.3236 3.77468 17.1264C3.96658 16.9346 4.06253 16.7029 4.06253 16.4312C4.06253 16.1595 3.96658 15.9277 3.77468 15.7359C3.58277 15.5441 3.35089 15.4482 3.07902 15.4482C2.80716 15.4482 2.57261 15.5441 2.37537 15.7359C2.18347 15.9277 2.08752 16.1595 2.08752 16.4312C2.08752 16.7029 2.18347 16.9346 2.37537 17.1264C2.57261 17.3236 2.80716 17.4221 3.07902 17.4221ZM12.5543 13.8979L16.3524 10.1019C16.7949 9.65966 17.0108 9.18816 17.0001 8.68735C16.9948 8.18122 16.7656 7.69906 16.3125 7.24088L10.0356 0.959515C9.82234 0.751734 9.58246 0.615878 9.31592 0.551945C9.05472 0.482685 8.79352 0.482685 8.53231 0.551945C8.27644 0.621205 8.04988 0.757062 7.85265 0.959515C7.65541 1.16197 7.51948 1.42569 7.44485 1.75068C7.29559 2.39533 7.16766 2.94142 7.06104 3.38895C6.95976 3.83115 6.86114 4.21208 6.76519 4.53174C6.67457 4.84608 6.57329 5.13377 6.46134 5.39483C6.3494 5.65056 6.21346 5.90895 6.05354 6.17001C5.89362 6.43107 5.69106 6.73209 5.44585 7.07306L6.36539 7.99209C6.71721 7.53391 6.99708 7.11834 7.20497 6.7454C7.4182 6.36714 7.59411 5.98088 7.73271 5.58663C7.87664 5.19238 8.01524 4.74485 8.1485 4.24405C8.28177 3.73791 8.44436 3.12789 8.63626 2.41398C8.67358 2.27546 8.72955 2.17423 8.80418 2.1103C8.88414 2.04104 8.97209 2.01174 9.06805 2.02239C9.164 2.02772 9.25729 2.07567 9.34791 2.16624L15.3369 8.14393C15.5235 8.3304 15.6168 8.52752 15.6168 8.7353C15.6168 8.94308 15.5315 9.13222 15.3609 9.3027L11.6588 13.0028L12.5543 13.8979ZM11.2909 9.34266C11.3976 9.44922 11.6001 9.45987 11.8986 9.37463C12.2025 9.28938 12.5437 9.14554 12.9221 8.94308C13.3059 8.7353 13.6738 8.50088 14.0256 8.23983C14.3774 7.97344 14.6546 7.71238 14.8572 7.45665L13.098 5.7065C13.0234 6.41509 12.8182 7.03576 12.4823 7.56854C12.1518 8.10131 11.7627 8.59145 11.3149 9.03898C11.203 9.14554 11.195 9.24676 11.2909 9.34266Z"
		fill="currentColor"
	/>
</svg>
