<svg
	color="rgb(var(--foreground, 0, 0, 0))"
	viewBox="0 0 17 20"
	fill="none"
	xmlns="http://www.w3.org/2000/svg"
>
	<path
		d="M0.960263 18.5473C1.37876 18.9689 1.82678 19.249 2.3043 19.3878C2.78718 19.5319 3.26738 19.5372 3.7449 19.4038C4.22242 19.2704 4.66775 18.9982 5.08089 18.5873C5.3277 18.3418 5.57182 18.0323 5.81327 17.6587C6.05471 17.2852 6.28811 16.8903 6.51345 16.474C6.74416 16.0578 6.96415 15.6549 7.1734 15.2653C7.38265 14.8757 7.57848 14.5422 7.76091 14.2647L9.70855 16.2099C10.009 16.5087 10.3256 16.6581 10.6582 16.6581C10.9962 16.6635 11.3074 16.522 11.5918 16.2339L12.2839 15.5455C12.579 15.2466 12.7239 14.9371 12.7185 14.6169C12.7132 14.2914 12.5603 13.9792 12.2598 13.6803L5.86156 7.30847C5.55573 7.00962 5.23649 6.8602 4.90383 6.8602C4.57654 6.85486 4.26803 6.99628 3.9783 7.28445L3.28616 7.97287C2.99643 8.26104 2.85157 8.57057 2.85157 8.90143C2.85693 9.2323 3.00985 9.54716 3.31031 9.846L5.25795 11.7832C4.98431 11.9646 4.65166 12.1594 4.25998 12.3675C3.86831 12.5757 3.46322 12.7945 3.04472 13.0239C2.62622 13.2481 2.22918 13.4802 1.8536 13.7203C1.48339 13.9605 1.1722 14.2033 0.920023 14.4488C0.506887 14.8597 0.233252 15.3053 0.0991169 15.7856C-0.035018 16.2606 -0.0323353 16.7355 0.107165 17.2105C0.252031 17.6908 0.536397 18.1364 0.960263 18.5473ZM3.10911 17.5066C2.8301 17.5066 2.59403 17.4079 2.40087 17.2105C2.20772 17.0183 2.11114 16.7862 2.11114 16.514C2.11114 16.2419 2.20772 16.0097 2.40087 15.8176C2.59403 15.6255 2.8301 15.5294 3.10911 15.5294C3.38274 15.5294 3.61614 15.6255 3.80929 15.8176C4.00244 16.0097 4.09902 16.2419 4.09902 16.514C4.09902 16.7862 4.00244 17.0183 3.80929 17.2105C3.61614 17.4079 3.38274 17.5066 3.10911 17.5066ZM13.2175 13.3121L16.3402 10.2062C16.7909 9.76329 17.0108 9.291 17.0001 8.78936C16.9894 8.28773 16.756 7.80477 16.2999 7.34049L15.8895 6.92424C15.6802 7.1964 15.3959 7.46857 15.0364 7.74073C14.6769 8.00756 14.2986 8.24237 13.9016 8.44516C13.5099 8.64795 13.1558 8.78936 12.8393 8.86941C12.5281 8.94946 12.3161 8.93078 12.2035 8.81338C12.1659 8.77602 12.1471 8.72533 12.1471 8.66129C12.1471 8.59725 12.1739 8.53855 12.2276 8.48518C12.5549 8.15965 12.8393 7.83145 13.0807 7.50058C13.3275 7.16438 13.526 6.79883 13.6763 6.40392C13.8319 6.00368 13.9338 5.5474 13.9821 5.03509L9.84536 0.912598C9.59319 0.661779 9.29809 0.525697 8.96007 0.50435C8.62205 0.477668 8.30549 0.573726 8.0104 0.792525C7.7153 1.01132 7.50873 1.36087 7.39069 1.84116C7.219 2.52424 7.05267 3.12193 6.89171 3.63424C6.73612 4.14122 6.57784 4.59216 6.41687 4.98706C6.25591 5.37663 6.09227 5.73685 5.92594 6.06772L13.2175 13.3121Z"
		fill="currentColor"
	/>
</svg>
