<svg
	color="rgb(var(--foreground, 0, 0, 0))"
	viewBox="0 0 16 16"
	fill="none"
	xmlns="http://www.w3.org/2000/svg"
>
	<path
		d="M1.34118 8.00001C1.34118 7.64445 1.36732 7.29674 1.41961 6.95687C1.47713 6.61177 1.55556 6.27975 1.6549 5.96079L0.42353 5.44314C0.287582 5.84576 0.183007 6.26144 0.109804 6.6902C0.0366013 7.11896 0 7.55556 0 8.00001C0 8.44445 0.0366013 8.88105 0.109804 9.30981C0.188235 9.73857 0.295425 10.1543 0.431373 10.5569L1.6549 10.0392C1.55556 9.72027 1.47713 9.39086 1.41961 9.05099C1.36732 8.70589 1.34118 8.35556 1.34118 8.00001ZM4.94902 2.0549L4.44706 0.84706C3.66798 1.23922 2.96994 1.74379 2.35294 2.36079C1.73595 2.97778 1.23137 3.67582 0.839217 4.45491L2.06275 4.96471C2.37647 4.34249 2.77909 3.78301 3.27059 3.28628C3.76732 2.78955 4.3268 2.37909 4.94902 2.0549ZM7.99215 1.33333C8.34771 1.33333 8.69803 1.36209 9.04313 1.41961C9.38823 1.4719 9.72287 1.55033 10.0471 1.6549L10.549 0.431373C10.1464 0.290196 9.73071 0.183007 9.30196 0.109804C8.8732 0.0366013 8.43659 0 7.99215 0C7.5477 0 7.10849 0.0366013 6.6745 0.109804C6.24574 0.183007 5.83006 0.290196 5.42744 0.431373L5.94509 1.6549C6.26404 1.55033 6.59607 1.4719 6.94117 1.41961C7.28627 1.36209 7.63659 1.33333 7.99215 1.33333ZM13.9373 4.95687L15.1529 4.45491C14.7608 3.67582 14.2536 2.97778 13.6314 2.36079C13.0091 1.73856 12.3111 1.23137 11.5373 0.839217L11.0353 2.0549C11.6575 2.37386 12.217 2.7817 12.7137 3.27843C13.2105 3.76994 13.6183 4.32942 13.9373 4.95687ZM14.6667 8.00001C14.6667 8.35556 14.6379 8.70589 14.5804 9.05099C14.5281 9.39609 14.4523 9.72811 14.3529 10.0471L15.5686 10.5647C15.7098 10.1621 15.817 9.74642 15.8902 9.31766C15.9634 8.88367 16 8.44445 16 8.00001C16 7.55556 15.9634 7.11896 15.8902 6.6902C15.817 6.25622 15.7098 5.83791 15.5686 5.4353L14.3451 5.95295C14.4497 6.2719 14.5281 6.60393 14.5804 6.94903C14.6379 7.29413 14.6667 7.64445 14.6667 8.00001ZM11.0353 13.9373L11.5373 15.1608C12.3163 14.7686 13.0144 14.2641 13.6314 13.6471C14.2536 13.0248 14.7582 12.3242 15.1451 11.5451L13.9451 11.0431C13.6261 11.6654 13.2157 12.2248 12.7137 12.7216C12.217 13.2183 11.6575 13.6235 11.0353 13.9373ZM7.99999 14.6667C7.63921 14.6667 7.28627 14.6379 6.94117 14.5804C6.59607 14.5281 6.26404 14.4497 5.94509 14.3451L5.43528 15.5686C5.8379 15.7046 6.25359 15.8092 6.68234 15.8824C7.11633 15.9608 7.55555 16 7.99999 16C8.44444 16 8.87842 15.9634 9.30196 15.8902C9.73071 15.817 10.1464 15.7124 10.549 15.5765L10.0392 14.353C9.71503 14.4523 9.383 14.5281 9.04313 14.5804C8.70326 14.6379 8.35555 14.6667 7.99999 14.6667ZM2.06275 11.0431L0.84706 11.5451C1.23922 12.3242 1.74379 13.0222 2.36079 13.6392C2.97778 14.2562 3.67321 14.7608 4.44706 15.153L4.94902 13.9294C4.3268 13.6157 3.76732 13.2131 3.27059 12.7216C2.77909 12.2248 2.37647 11.6654 2.06275 11.0431Z"
		fill="currentColor"
	/>
</svg>
