<svg
	color="rgb(var(--foreground, 0, 0, 0))"
	viewBox="0 0 16 16"
	fill="none"
	xmlns="http://www.w3.org/2000/svg"
>
	<path
		d="M8 16C9.09281 16 10.1203 15.7908 11.0824 15.3725C12.0497 14.9542 12.902 14.3765 13.6392 13.6392C14.3765 12.902 14.9542 12.0523 15.3726 11.0902C15.7909 10.1229 16 9.09281 16 8C16 6.90719 15.7909 5.87974 15.3726 4.91765C14.9542 3.95033 14.3765 3.09804 13.6392 2.36078C12.902 1.62353 12.0497 1.04575 11.0824 0.627451C10.1203 0.20915 9.09281 0 8 0C6.90719 0 5.87712 0.20915 4.9098 0.627451C3.94248 1.04575 3.0902 1.62353 2.35294 2.36078C1.62092 3.09804 1.04575 3.95033 0.627451 4.91765C0.20915 5.87974 0 6.90719 0 8C0 9.09281 0.20915 10.1229 0.627451 11.0902C1.04575 12.0523 1.62353 12.902 2.36078 13.6392C3.09804 14.3765 3.94771 14.9542 4.9098 15.3725C5.87712 15.7908 6.90719 16 8 16ZM8 14.6667V1.33333C8.92549 1.33333 9.79085 1.50588 10.5961 1.85098C11.4013 2.19085 12.1072 2.66667 12.7137 3.27843C13.3255 3.8902 13.8039 4.59869 14.149 5.40392C14.4941 6.20915 14.6667 7.07451 14.6667 8C14.6667 8.92549 14.4941 9.79085 14.149 10.5961C13.8092 11.4013 13.3333 12.1098 12.7216 12.7216C12.115 13.3281 11.4065 13.8039 10.5961 14.149C9.79085 14.4941 8.92549 14.6667 8 14.6667Z"
		fill="currentColor"
	/>
</svg>
