<svg
	color="rgb(var(--foreground, 0, 0, 0))"
	viewBox="0 0 22 16"
	fill="none"
	xmlns="http://www.w3.org/2000/svg"
>
	<path
		d="M0.000488281 8C0.000488281 8.17255 0.0606834 8.32157 0.181074 8.44706C0.301464 8.56732 0.442791 8.62745 0.605056 8.62745H21.3959C21.5582 8.62745 21.6995 8.56732 21.8199 8.44706C21.9403 8.32157 22.0005 8.17255 22.0005 8C22.0005 7.83268 21.9403 7.68889 21.8199 7.56863C21.6995 7.44314 21.5582 7.38039 21.3959 7.38039H0.605056C0.442791 7.38039 0.301464 7.44314 0.181074 7.56863C0.0606834 7.68889 0.000488281 7.83268 0.000488281 8ZM11.0083 16C12.1023 16 13.1309 15.7909 14.094 15.3725C15.0623 14.9542 15.9155 14.3765 16.6536 13.6392C17.3916 12.902 17.97 12.0523 18.3888 11.0902C18.8075 10.1229 19.0169 9.09281 19.0169 8C19.0169 6.90719 18.8049 5.87974 18.3809 4.91765C17.9622 3.95033 17.3838 3.09804 16.6457 2.36078C15.9077 1.62353 15.0545 1.04575 14.0861 0.627451C13.123 0.20915 12.0945 0 11.0005 0C9.90127 0 8.87011 0.20915 7.90698 0.627451C6.94386 1.04575 6.09328 1.62353 5.35524 2.36078C4.61719 3.09804 4.0388 3.95033 3.62005 4.91765C3.20653 5.87974 2.99978 6.90719 2.99978 8C2.99978 9.09281 3.20915 10.1229 3.6279 11.0902C4.04665 12.0523 4.62243 12.902 5.35524 13.6392C6.09328 14.3765 6.94386 14.9542 7.90698 15.3725C8.87534 15.7909 9.90913 16 11.0083 16ZM11.0083 14.6667C10.0819 14.6667 9.21557 14.4941 8.40948 14.149C7.60339 13.8039 6.89414 13.3281 6.28172 12.7216C5.67453 12.1098 5.19821 11.4013 4.85274 10.5961C4.50727 9.79085 4.33454 8.92549 4.33454 8C4.33454 7.07451 4.50465 6.20915 4.84489 5.40392C5.19035 4.59869 5.66668 3.8902 6.27387 3.27843C6.88629 2.66667 7.59554 2.19085 8.40163 1.85098C9.20772 1.50588 10.074 1.33333 11.0005 1.33333C11.9217 1.33333 12.7854 1.50588 13.5915 1.85098C14.4028 2.19085 15.1147 2.66667 15.7271 3.27843C16.3395 3.8902 16.8185 4.59869 17.1639 5.40392C17.5094 6.20915 17.6821 7.07451 17.6821 8C17.6821 8.92549 17.5094 9.79085 17.1639 10.5961C16.8185 11.4013 16.3395 12.1098 15.7271 12.7216C15.1199 13.3281 14.4107 13.8039 13.5993 14.149C12.7933 14.4941 11.9296 14.6667 11.0083 14.6667Z"
		fill="currentColor"
	/>
</svg>
