<svg
	color="rgb(var(--foreground, 0, 0, 0))"
	viewBox="0 0 16 16"
	fill="none"
	xmlns="http://www.w3.org/2000/svg"
>
	<path
		d="M1.34118 8C1.34118 7.64444 1.36732 7.29673 1.41961 6.95686C1.47712 6.61176 1.55556 6.27974 1.6549 5.96078L0.423529 5.44314C0.287582 5.84575 0.183007 6.26144 0.109804 6.6902C0.0366013 7.11895 0 7.55556 0 8C0 8.44444 0.0366013 8.88105 0.109804 9.3098C0.188235 9.73856 0.295425 10.1542 0.431373 10.5569L1.6549 10.0392C1.55556 9.72026 1.47712 9.39085 1.41961 9.05098C1.36732 8.70588 1.34118 8.35556 1.34118 8ZM4.94902 2.0549L4.44706 0.847059C3.66797 1.23922 2.96993 1.74379 2.35294 2.36078C1.73595 2.97778 1.23137 3.67582 0.839216 4.4549L2.06275 4.96471C2.37647 4.34248 2.77909 3.78301 3.27059 3.28627C3.76732 2.78954 4.3268 2.37908 4.94902 2.0549ZM7.99216 1.33333C8.34771 1.33333 8.69804 1.36209 9.04314 1.41961C9.38824 1.4719 9.72288 1.55033 10.0471 1.6549L10.549 0.431373C10.1464 0.290196 9.73072 0.183007 9.30196 0.109804C8.8732 0.0366013 8.4366 0 7.99216 0C7.54771 0 7.1085 0.0366013 6.67451 0.109804C6.24575 0.183007 5.83007 0.290196 5.42745 0.431373L5.9451 1.6549C6.26405 1.55033 6.59608 1.4719 6.94118 1.41961C7.28627 1.36209 7.6366 1.33333 7.99216 1.33333ZM13.9373 4.95686L15.1529 4.4549C14.7608 3.67582 14.2536 2.97778 13.6314 2.36078C13.0092 1.73856 12.3111 1.23137 11.5373 0.839216L11.0353 2.0549C11.6575 2.37386 12.217 2.7817 12.7137 3.27843C13.2105 3.76993 13.6183 4.32941 13.9373 4.95686ZM14.6667 8C14.6667 8.35556 14.6379 8.70588 14.5804 9.05098C14.5281 9.39608 14.4523 9.72811 14.3529 10.0471L15.5686 10.5647C15.7098 10.1621 15.817 9.74641 15.8902 9.31765C15.9634 8.88366 16 8.44444 16 8C16 7.55556 15.9634 7.11895 15.8902 6.6902C15.817 6.25621 15.7098 5.83791 15.5686 5.43529L14.3451 5.95294C14.4497 6.2719 14.5281 6.60392 14.5804 6.94902C14.6379 7.29412 14.6667 7.64444 14.6667 8ZM11.0353 13.9373L11.5373 15.1608C12.3163 14.7686 13.0144 14.2641 13.6314 13.6471C14.2536 13.0248 14.7582 12.3242 15.1451 11.5451L13.9451 11.0431C13.6261 11.6654 13.2157 12.2248 12.7137 12.7216C12.217 13.2183 11.6575 13.6235 11.0353 13.9373ZM8 14.6667C7.63922 14.6667 7.28627 14.6379 6.94118 14.5804C6.59608 14.5281 6.26405 14.4497 5.9451 14.3451L5.43529 15.5686C5.83791 15.7046 6.2536 15.8092 6.68235 15.8824C7.11634 15.9608 7.55556 16 8 16C8.44444 16 8.87843 15.9634 9.30196 15.8902C9.73072 15.817 10.1464 15.7124 10.549 15.5765L10.0392 14.3529C9.71503 14.4523 9.38301 14.5281 9.04314 14.5804C8.70327 14.6379 8.35556 14.6667 8 14.6667ZM2.06275 11.0431L0.847059 11.5451C1.23922 12.3242 1.74379 13.0222 2.36078 13.6392C2.97778 14.2562 3.6732 14.7608 4.44706 15.1529L4.94902 13.9294C4.3268 13.6157 3.76732 13.2131 3.27059 12.7216C2.77909 12.2248 2.37647 11.6654 2.06275 11.0431ZM7.98431 13.4745C8.74771 13.4745 9.46144 13.3333 10.1255 13.051C10.7895 12.7686 11.3699 12.3791 11.8667 11.8824C12.3686 11.3804 12.7608 10.7974 13.0431 10.1333C13.3255 9.46928 13.4641 8.75817 13.4588 8C13.4588 7.2366 13.3176 6.52549 13.0353 5.86667C12.7529 5.20261 12.3608 4.62222 11.8588 4.12549C11.3569 3.62353 10.7739 3.23137 10.1098 2.94902C9.45098 2.66667 8.73987 2.52549 7.97647 2.52549C7.2183 2.52549 6.50719 2.66667 5.84314 2.94902C5.18431 3.22614 4.60392 3.61569 4.10196 4.11765C3.60523 4.61961 3.21569 5.20261 2.93333 5.86667C2.65621 6.52549 2.51765 7.2366 2.51765 8C2.51765 8.7634 2.65882 9.47713 2.94118 10.1412C3.22353 10.8 3.61307 11.3804 4.1098 11.8824C4.61176 12.3791 5.19216 12.7686 5.85098 13.051C6.51503 13.3333 7.22614 13.4745 7.98431 13.4745Z"
		fill="currentColor"
	/>
</svg>
