<svg
	color="rgb(var(--foreground, 0, 0, 0))"
	viewBox="0 0 16 16"
	fill="none"
	xmlns="http://www.w3.org/2000/svg"
>
	<path
		d="M8 16C9.09281 16 10.1203 15.7908 11.0824 15.3725C12.0497 14.9542 12.902 14.3765 13.6392 13.6392C14.3765 12.902 14.9542 12.0523 15.3725 11.0902C15.7908 10.1229 16 9.09281 16 8C16 6.90719 15.7908 5.87974 15.3725 4.91764C14.9542 3.95032 14.3765 3.09804 13.6392 2.36078C12.9072 1.62353 12.0575 1.04575 11.0902 0.627451C10.1229 0.20915 9.09281 0 8 0C6.90719 0 5.87712 0.20915 4.9098 0.627451C3.94771 1.04575 3.09804 1.62353 2.36078 2.36078C1.62353 3.09804 1.04575 3.95032 0.627451 4.91764C0.20915 5.87974 0 6.90719 0 8C0 9.09281 0.20915 10.1229 0.627451 11.0902C1.04575 12.0523 1.62353 12.902 2.36078 13.6392C3.09804 14.3765 3.94771 14.9542 4.9098 15.3725C5.87712 15.7908 6.90719 16 8 16ZM8 14.6667C7.07451 14.6667 6.20653 14.4941 5.39608 14.149C4.59085 13.8039 3.88235 13.3281 3.27059 12.7216C2.66405 12.1098 2.18823 11.4013 1.84314 10.5961C1.50327 9.79084 1.33333 8.92549 1.33333 8C1.33333 7.07451 1.50588 6.20915 1.85098 5.40392C2.19608 4.59869 2.67189 3.89019 3.27843 3.27843C3.89019 2.66667 4.59869 2.19085 5.40392 1.85098C6.21438 1.50588 7.07974 1.33333 8 1.33333V14.6667Z"
		fill="currentColor"
	/>
</svg>
