<svg
	color="rgb(var(--foreground, 0, 0, 0))"
	viewBox="0 0 16 18"
	fill="none"
	xmlns="http://www.w3.org/2000/svg"
>
	<path
		d="M0.000976562 14.2876C0.000976562 14.7513 0.197133 15.1786 0.589446 15.5694C0.98706 15.9602 1.54372 16.2989 2.25943 16.5855C2.98043 16.8773 3.82603 17.1014 4.79621 17.2577C5.77169 17.4192 6.83994 17.5 8.00098 17.5C9.16201 17.5 10.2276 17.4192 11.1978 17.2577C12.1733 17.1014 13.0189 16.8773 13.7346 16.5855C14.4556 16.2989 15.0122 15.9602 15.4046 15.5694C15.8022 15.1786 16.001 14.7513 16.001 14.2876C16.001 14.1625 15.9718 14.014 15.9135 13.8421C15.8605 13.6649 15.7889 13.4929 15.6988 13.3262L8.74849 0.953333C8.64246 0.765747 8.52318 0.643295 8.39064 0.585977C8.2581 0.528659 8.12821 0.5 8.00098 0.5C7.87374 0.5 7.74385 0.528659 7.61131 0.585977C7.47878 0.643295 7.35949 0.765747 7.25346 0.953333L0.303163 13.3262C0.213038 13.4929 0.138816 13.6649 0.0804994 13.8421C0.0274842 14.014 0.000976562 14.1625 0.000976562 14.2876ZM1.24153 14.2876C1.24153 14.2459 1.26009 14.186 1.2972 14.1078C1.33431 14.0244 1.37937 13.9359 1.43239 13.8421L7.85784 2.43839C7.88964 2.37586 7.93736 2.3446 8.00098 2.3446C8.06459 2.3446 8.11231 2.37586 8.14412 2.43839L14.5696 13.8421C14.6226 13.9359 14.6676 14.0244 14.7048 14.1078C14.7419 14.186 14.7604 14.2459 14.7604 14.2876C14.7604 14.5221 14.5775 14.7566 14.2117 14.991C13.8512 15.2255 13.3555 15.4392 12.7246 15.632C12.0938 15.83 11.3727 15.9863 10.5616 16.1009C9.75048 16.2156 8.89693 16.2729 8.00098 16.2729C7.10502 16.2729 6.25147 16.2156 5.44034 16.1009C4.62921 15.9863 3.9082 15.83 3.27732 15.632C2.64644 15.4392 2.14809 15.2255 1.78229 14.991C1.42178 14.7566 1.24153 14.5221 1.24153 14.2876Z"
		fill="currentColor"
	/>
</svg>
