<svg
	color="rgb(var(--foreground, 0, 0, 0))"
	viewBox="0 0 17 18"
	fill="none"
	xmlns="http://www.w3.org/2000/svg"
>
	<path
		d="M17.0005 13.1781C17.0005 12.9915 16.9436 12.8464 16.8299 12.7428C16.7214 12.6392 16.5715 12.5873 16.3803 12.5873H5.20205C5.05218 12.5873 4.97724 12.5122 4.97724 12.3619V1.15295C4.97724 0.96121 4.92039 0.805746 4.8067 0.686557C4.693 0.562186 4.54055 0.5 4.34933 0.5C4.16329 0.5 4.01342 0.562186 3.89972 0.686557C3.78602 0.805746 3.72918 0.96121 3.72918 1.15295V13.147C3.72918 13.3336 3.78344 13.4838 3.89197 13.5979C4.00566 13.7067 4.15553 13.7611 4.34158 13.7611H16.3803C16.5715 13.7611 16.7214 13.7093 16.8299 13.6056C16.9436 13.502 17.0005 13.3595 17.0005 13.1781ZM0.000488281 4.8219C0.000488281 5.00846 0.0547519 5.15356 0.163279 5.2572C0.276975 5.36084 0.426846 5.41267 0.612893 5.41267H11.7989C11.9488 5.41267 12.0237 5.48781 12.0237 5.63809V16.8471C12.0237 17.044 12.0806 17.202 12.1943 17.3212C12.308 17.4404 12.4578 17.5 12.6439 17.5C12.8351 17.5 12.9876 17.4404 13.1013 17.3212C13.215 17.202 13.2718 17.044 13.2718 16.8471V4.86077C13.2718 4.67421 13.215 4.52393 13.1013 4.40992C12.9927 4.29591 12.8454 4.23891 12.6594 4.23891H0.612893C0.426846 4.23891 0.276975 4.29332 0.163279 4.40215C0.0547519 4.50579 0.000488281 4.64571 0.000488281 4.8219Z"
		fill="currentColor"
	/>
</svg>
