<svg
	color="rgb(var(--foreground, 0, 0, 0))"
	viewBox="0 0 15 20"
	fill="none"
	xmlns="http://www.w3.org/2000/svg"
>
	<path
		d="M15.0005 12.943C15.0005 12.7746 14.9443 12.6369 14.8319 12.5297C14.7194 12.4226 14.5738 12.369 14.395 12.369H5.36586C5.21768 12.369 5.14358 12.295 5.14358 12.1471V3.20804C5.14358 3.01416 5.08738 2.85854 4.97496 2.74119C4.86254 2.62384 4.71435 2.56517 4.5304 2.56517C4.34133 2.56517 4.19059 2.62384 4.07817 2.74119C3.96576 2.85854 3.90955 3.01416 3.90955 3.20804V12.9201C3.90955 13.1037 3.9632 13.2517 4.07051 13.3639C4.18293 13.4711 4.33367 13.5247 4.52273 13.5247H14.395C14.5738 13.5247 14.7194 13.4711 14.8319 13.3639C14.9443 13.2568 15.0005 13.1165 15.0005 12.943ZM0.000488281 7.04233C0.000488281 7.21581 0.054142 7.35612 0.16145 7.46326C0.273867 7.56531 0.419499 7.61633 0.598345 7.61633H9.68116C9.82935 7.61633 9.90344 7.69031 9.90344 7.83828V16.8309C9.90344 17.0197 9.95965 17.1727 10.0721 17.2901C10.1845 17.4125 10.3327 17.4738 10.5166 17.4738C10.7006 17.4738 10.8488 17.4125 10.9612 17.2901C11.0787 17.1727 11.1375 17.0197 11.1375 16.8309V7.07295C11.1375 6.88927 11.0813 6.74131 10.9689 6.62906C10.8564 6.51681 10.7082 6.46069 10.5243 6.46069H0.598345C0.419499 6.46069 0.273867 6.51426 0.16145 6.6214C0.054142 6.72855 0.000488281 6.86886 0.000488281 7.04233ZM0.169114 14.2747C0.169114 15.0094 0.322411 15.6497 0.629004 16.1957C0.935597 16.7467 1.36227 17.1753 1.90903 17.4814C2.4609 17.7926 3.10474 17.9483 3.84056 17.9483H3.99386V18.9508C3.99386 19.2366 4.08328 19.41 4.26213 19.4713C4.44098 19.5376 4.63771 19.4891 4.85232 19.3258L6.78386 17.91C6.94226 17.7926 7.02147 17.6676 7.02147 17.535C7.02658 17.4074 6.94737 17.2824 6.78386 17.16L4.85232 15.7518C4.63771 15.5987 4.44098 15.5528 4.26213 15.614C4.08328 15.6752 3.99386 15.8436 3.99386 16.1191V17.0605H3.84823C3.29125 17.0605 2.80837 16.9406 2.39958 16.7008C1.9959 16.461 1.68164 16.1319 1.4568 15.7135C1.23708 15.2951 1.12722 14.8155 1.12722 14.2747V13.1343C1.12722 13.0017 1.08123 12.8894 0.98925 12.7976C0.897273 12.7007 0.784855 12.6522 0.651998 12.6522C0.519141 12.6522 0.404169 12.7007 0.307081 12.7976C0.215103 12.8894 0.169114 13.0017 0.169114 13.1343V14.2747ZM8.27083 2.83303L10.21 4.24124C10.4195 4.3994 10.6137 4.44787 10.7926 4.38665C10.9765 4.32032 11.0685 4.1494 11.0685 3.87388V2.94018H11.2141C11.766 2.94018 12.2438 3.06008 12.6474 3.29988C13.0562 3.53458 13.3705 3.86112 13.5902 4.2795C13.8151 4.69788 13.9275 5.18004 13.9275 5.72597V6.86631C13.9275 6.99386 13.9735 7.10611 14.0654 7.20305C14.1625 7.29489 14.2774 7.34081 14.4103 7.34081C14.538 7.34081 14.6479 7.29489 14.7399 7.20305C14.837 7.10611 14.8855 6.99386 14.8855 6.86631V5.71832C14.8855 4.98871 14.7322 4.34838 14.4256 3.79735C14.1241 3.24631 13.6975 2.81773 13.1457 2.51159C12.5989 2.20546 11.9576 2.0524 11.2218 2.0524H11.0685V1.04217C11.0685 0.761545 10.9765 0.590622 10.7926 0.529396C10.6137 0.463067 10.4195 0.508987 10.21 0.667155L8.27083 2.08301C8.11243 2.20546 8.03067 2.33047 8.02556 2.45802C8.02556 2.58558 8.10732 2.71058 8.27083 2.83303Z"
		fill="currentColor"
	/>
</svg>
