<svg
	color="rgb(var(--foreground, 0, 0, 0))"
	viewBox="0 0 19 18"
	fill="none"
	xmlns="http://www.w3.org/2000/svg"
>
	<path
		d="M9.50049 16.2079C10.2882 16.2079 11.0287 16.0535 11.7219 15.7447C12.4151 15.4414 13.0243 15.0188 13.5494 14.4771C14.0746 13.9353 14.4842 13.3096 14.7783 12.5999C15.0776 11.8848 15.2273 11.1155 15.2273 10.2921C15.2273 9.47403 15.0776 8.71017 14.7783 8.00048C14.4842 7.28537 14.0746 6.65695 13.5494 6.1152C13.0243 5.57345 12.4151 5.15089 11.7219 4.84751C11.0287 4.54414 10.2882 4.39245 9.50049 4.39245C8.71276 4.39245 7.9723 4.54414 7.2791 4.84751C6.58589 5.15089 5.97672 5.57345 5.45157 6.1152C4.92641 6.65695 4.51417 7.28537 4.21483 8.00048C3.9155 8.71017 3.76583 9.47403 3.76583 10.2921C3.76583 11.1101 3.9155 11.8767 4.21483 12.5918C4.51417 13.3069 4.92641 13.9353 5.45157 14.4771C5.97672 15.0188 6.58589 15.4414 7.2791 15.7447C7.9723 16.0535 8.71276 16.2079 9.50049 16.2079ZM9.50049 5.70889C10.1149 5.70889 10.69 5.82808 11.2256 6.06644C11.7665 6.30481 12.2392 6.63528 12.6435 7.05784C13.0531 7.47498 13.3735 7.96256 13.6046 8.52055C13.8356 9.07314 13.9512 9.66364 13.9512 10.2921C13.9512 10.9259 13.8356 11.5218 13.6046 12.0798C13.3735 12.6324 13.0531 13.12 12.6435 13.5425C12.2392 13.9597 11.7665 14.2874 11.2256 14.5258C10.69 14.7642 10.1149 14.8834 9.50049 14.8834C8.88606 14.8834 8.30839 14.7642 7.76749 14.5258C7.23183 14.2874 6.75919 13.9597 6.34958 13.5425C5.93996 13.12 5.61961 12.6324 5.38855 12.0798C5.15748 11.5218 5.04195 10.9259 5.04195 10.2921C5.04195 9.66364 5.15748 9.07314 5.38855 8.52055C5.61961 7.96256 5.93996 7.47498 6.34958 7.05784C6.75919 6.63528 7.23183 6.30481 7.76749 6.06644C8.30839 5.82808 8.88606 5.70889 9.50049 5.70889ZM12.3363 13.9651L13.1555 13.0956L9.88647 9.73136C9.77619 9.61759 9.63703 9.56071 9.46898 9.56071C9.30618 9.56071 9.17227 9.61759 9.06724 9.73136C8.9517 9.86138 8.89394 10.0076 8.89394 10.1702C8.89394 10.3273 8.9517 10.4681 9.06724 10.5927L12.3363 13.9651ZM15.5424 17.4919C15.8102 17.4919 16.0386 17.3944 16.2277 17.1993C16.422 17.0043 16.5191 16.7659 16.5191 16.4842C16.5191 16.2079 16.4246 15.9696 16.2356 15.7691C16.0465 15.5741 15.8154 15.4766 15.5424 15.4766C15.2693 15.4766 15.0356 15.5741 14.8413 15.7691C14.6522 15.9641 14.5577 16.2025 14.5577 16.4842C14.5577 16.7659 14.6522 17.0043 14.8413 17.1993C15.0303 17.3944 15.264 17.4919 15.5424 17.4919ZM18.0158 11.3078C18.2837 11.3078 18.5147 11.2103 18.709 11.0153C18.9033 10.8149 19.0005 10.5738 19.0005 10.2921C19.0005 10.0158 18.9033 9.78011 18.709 9.58509C18.52 9.38464 18.2889 9.28442 18.0158 9.28442C17.748 9.28442 17.5169 9.38193 17.3226 9.57696C17.1283 9.77199 17.0312 10.0104 17.0312 10.2921C17.0312 10.5684 17.1257 10.8067 17.3148 11.0072C17.5038 11.2076 17.7375 11.3078 18.0158 11.3078ZM15.5424 5.12381C15.8102 5.12381 16.0386 5.02629 16.2277 4.83126C16.422 4.63623 16.5191 4.39786 16.5191 4.11616C16.5191 3.83445 16.4246 3.59608 16.2356 3.40105C16.0465 3.20602 15.8154 3.10851 15.5424 3.10851C15.2693 3.10851 15.0356 3.20602 14.8413 3.40105C14.6522 3.59608 14.5577 3.83445 14.5577 4.11616C14.5577 4.39245 14.6522 4.63082 14.8413 4.83126C15.0303 5.02629 15.264 5.12381 15.5424 5.12381ZM9.50049 2.52342C9.76832 2.52342 9.99676 2.42591 10.1858 2.23088C10.3801 2.03043 10.4773 1.78936 10.4773 1.50765C10.4773 1.23136 10.3827 0.995698 10.1937 0.800669C10.0046 0.600223 9.77357 0.5 9.50049 0.5C9.23266 0.5 9.00159 0.597514 8.80729 0.792543C8.61823 0.987572 8.52371 1.22594 8.52371 1.50765C8.52371 1.78936 8.61823 2.03043 8.80729 2.23088C8.99634 2.42591 9.22741 2.52342 9.50049 2.52342ZM3.46649 5.10755C3.73432 5.10755 3.96276 5.01004 4.15181 4.81501C4.34612 4.61998 4.44327 4.38161 4.44327 4.0999C4.44327 3.8182 4.34875 3.57983 4.15969 3.3848C3.97064 3.18977 3.73957 3.09226 3.46649 3.09226C3.19866 3.09226 2.9676 3.18977 2.77329 3.3848C2.58424 3.57983 2.48971 3.8182 2.48971 4.0999C2.48971 4.37619 2.58424 4.61456 2.77329 4.81501C2.96235 5.01004 3.19341 5.10755 3.46649 5.10755ZM0.985148 11.3078C1.25298 11.3078 1.48142 11.2103 1.67047 11.0153C1.86478 10.8149 1.96193 10.5738 1.96193 10.2921C1.96193 10.0158 1.8674 9.78011 1.67835 9.58509C1.48929 9.38464 1.25823 9.28442 0.985148 9.28442C0.717321 9.28442 0.486254 9.38193 0.291948 9.57696C0.0976414 9.77199 0.000488281 10.0104 0.000488281 10.2921C0.000488281 10.5684 0.0950156 10.8067 0.28407 11.0072C0.478377 11.2076 0.712069 11.3078 0.985148 11.3078ZM3.47437 17.5C3.7422 17.5 3.97064 17.4025 4.15969 17.2075C4.354 17.0124 4.45115 16.7741 4.45115 16.4924C4.45115 16.2161 4.35662 15.9777 4.16757 15.7772C3.97851 15.5822 3.74745 15.4847 3.47437 15.4847C3.20654 15.4847 2.97547 15.5822 2.78117 15.7772C2.59211 15.9723 2.49759 16.2106 2.49759 16.4924C2.49759 16.7741 2.59211 17.0124 2.78117 17.2075C2.97022 17.4025 3.20129 17.5 3.47437 17.5Z"
		fill="currentColor"
	/>
</svg>
