<svg
	color="rgb(var(--foreground, 0, 0, 0))"
	viewBox="0 0 19 18"
	fill="none"
	xmlns="http://www.w3.org/2000/svg"
>
	<path
		d="M3.45862 17.4919C3.73169 17.4919 3.96276 17.3944 4.15182 17.1993C4.34087 17.0043 4.4354 16.7659 4.4354 16.4842C4.4354 16.2025 4.33825 15.9642 4.14394 15.7691C3.95488 15.5741 3.72644 15.4766 3.45862 15.4766C3.18554 15.4766 2.95447 15.5741 2.76541 15.7691C2.57636 15.9696 2.48183 16.2079 2.48183 16.4842C2.48183 16.7659 2.57636 17.0043 2.76541 17.1993C2.95972 17.3944 3.19079 17.4919 3.45862 17.4919ZM0.985149 11.3078C1.25823 11.3078 1.48929 11.2076 1.67835 11.0072C1.8674 10.8067 1.96193 10.5684 1.96193 10.2921C1.96193 10.0104 1.86478 9.77199 1.67047 9.57696C1.48142 9.38193 1.25298 9.28442 0.985149 9.28442C0.71207 9.28442 0.478377 9.38464 0.28407 9.58509C0.0950157 9.78012 0.000488281 10.0158 0.000488281 10.2921C0.000488281 10.5738 0.0976415 10.8149 0.291948 11.0153C0.486254 11.2103 0.717321 11.3078 0.985149 11.3078ZM3.45862 5.12381C3.73169 5.12381 3.96276 5.02629 4.15182 4.83126C4.34087 4.63082 4.4354 4.39245 4.4354 4.11616C4.4354 3.83445 4.33825 3.59608 4.14394 3.40105C3.95488 3.20602 3.72644 3.10851 3.45862 3.10851C3.18554 3.10851 2.95447 3.20602 2.76541 3.40105C2.57636 3.59608 2.48183 3.83445 2.48183 4.11616C2.48183 4.39786 2.57636 4.63623 2.76541 4.83126C2.95972 5.02629 3.19079 5.12381 3.45862 5.12381ZM9.50049 2.52342C9.77357 2.52342 10.0046 2.42591 10.1937 2.23088C10.3827 2.03043 10.4773 1.78936 10.4773 1.50765C10.4773 1.22594 10.3801 0.987572 10.1858 0.792543C9.99676 0.597514 9.76832 0.5 9.50049 0.5C9.22741 0.5 8.99635 0.600223 8.80729 0.800669C8.61824 0.995698 8.52371 1.23136 8.52371 1.50765C8.52371 1.78936 8.61824 2.03043 8.80729 2.23088C9.0016 2.42591 9.23267 2.52342 9.50049 2.52342ZM15.5345 5.10755C15.8076 5.10755 16.0386 5.01004 16.2277 4.81501C16.4167 4.61456 16.5113 4.3762 16.5113 4.0999C16.5113 3.8182 16.4141 3.57983 16.2198 3.3848C16.0308 3.18977 15.8023 3.09226 15.5345 3.09226C15.2562 3.09226 15.0225 3.18977 14.8334 3.3848C14.6444 3.57983 14.5498 3.8182 14.5498 4.0999C14.5498 4.38161 14.6444 4.61998 14.8334 4.81501C15.0277 5.01004 15.2614 5.10755 15.5345 5.10755ZM18.0158 11.3078C18.2889 11.3078 18.52 11.2076 18.709 11.0072C18.9033 10.8067 19.0005 10.5684 19.0005 10.2921C19.0005 10.0104 18.9033 9.77199 18.709 9.57696C18.5147 9.38193 18.2837 9.28442 18.0158 9.28442C17.7375 9.28442 17.5038 9.38464 17.3148 9.58509C17.1257 9.78012 17.0312 10.0158 17.0312 10.2921C17.0312 10.5738 17.1283 10.8149 17.3226 11.0153C17.5169 11.2103 17.748 11.3078 18.0158 11.3078ZM15.5266 17.5C15.7997 17.5 16.0308 17.4025 16.2198 17.2075C16.4089 17.0124 16.5034 16.7741 16.5034 16.4924C16.5034 16.2106 16.4062 15.9723 16.2119 15.7772C16.0229 15.5822 15.7944 15.4847 15.5266 15.4847C15.2483 15.4847 15.0146 15.5822 14.8255 15.7772C14.6365 15.9777 14.542 16.2161 14.542 16.4924C14.542 16.7741 14.6365 17.0124 14.8255 17.2075C15.0198 17.4025 15.2535 17.5 15.5266 17.5ZM9.50049 16.2079C10.2882 16.2079 11.0287 16.0535 11.7219 15.7447C12.4151 15.4414 13.0243 15.0188 13.5494 14.4771C14.0746 13.9353 14.4842 13.3069 14.7783 12.5918C15.0776 11.8767 15.2273 11.1101 15.2273 10.2921C15.2273 9.47403 15.0776 8.71017 14.7783 8.00048C14.4842 7.28537 14.0746 6.65695 13.5494 6.1152C13.0243 5.57345 12.4151 5.15089 11.7219 4.84751C11.0287 4.54414 10.2882 4.39245 9.50049 4.39245C8.71276 4.39245 7.9723 4.54414 7.2791 4.84751C6.5859 5.15089 5.97672 5.57345 5.45157 6.1152C4.92642 6.65695 4.51417 7.28537 4.21484 8.00048C3.9155 8.71017 3.76583 9.47403 3.76583 10.2921C3.76583 11.1155 3.9155 11.8848 4.21484 12.5999C4.51417 13.3096 4.92642 13.9353 5.45157 14.4771C5.97672 15.0188 6.5859 15.4414 7.2791 15.7447C7.9723 16.0535 8.71276 16.2079 9.50049 16.2079ZM9.50049 5.70889C10.1149 5.70889 10.69 5.82808 11.2256 6.06644C11.7665 6.30481 12.2392 6.63528 12.6435 7.05784C13.0531 7.47498 13.3735 7.96256 13.6046 8.52055C13.8356 9.07314 13.9512 9.66364 13.9512 10.2921C13.9512 10.9259 13.8356 11.5218 13.6046 12.0798C13.3735 12.6324 13.0531 13.12 12.6435 13.5425C12.2392 13.9597 11.7665 14.2874 11.2256 14.5258C10.69 14.7642 10.1149 14.8834 9.50049 14.8834C8.88606 14.8834 8.3084 14.7642 7.76749 14.5258C7.23183 14.2874 6.7592 13.9597 6.34958 13.5425C5.93996 13.12 5.61962 12.6324 5.38855 12.0798C5.15748 11.5218 5.04195 10.9259 5.04195 10.2921C5.04195 9.66364 5.15748 9.07314 5.38855 8.52055C5.61962 7.96256 5.93996 7.47498 6.34958 7.05784C6.7592 6.63528 7.23183 6.30481 7.76749 6.06644C8.3084 5.82808 8.88606 5.70889 9.50049 5.70889ZM9.50049 11.0153C9.64754 11.0207 9.77882 10.9638 9.89436 10.8446C10.0151 10.72 10.0755 10.5765 10.0755 10.414V5.61138H8.9097V10.3977C8.9097 10.5765 8.96484 10.7228 9.07512 10.8365C9.1854 10.9449 9.32719 11.0045 9.50049 11.0153Z"
		fill="currentColor"
	/>
</svg>
