<svg
	color="rgb(var(--foreground, 0, 0, 0))"
	viewBox="0 0 19 18"
	fill="none"
	xmlns="http://www.w3.org/2000/svg"
>
	<path
		d="M9.5005 16.2079C10.2882 16.2079 11.0287 16.0535 11.7219 15.7447C12.4151 15.4414 13.0243 15.0188 13.5494 14.4771C14.0746 13.9353 14.4842 13.3069 14.7783 12.5918C15.0776 11.8767 15.2273 11.1101 15.2273 10.2921C15.2273 9.47403 15.0776 8.71017 14.7783 8.00048C14.4842 7.28537 14.0746 6.65695 13.5494 6.1152C13.0243 5.57345 12.4151 5.15089 11.7219 4.84751C11.0287 4.54414 10.2882 4.39245 9.5005 4.39245C8.71278 4.39245 7.97228 4.54414 7.27908 4.84751C6.58588 5.15089 5.97671 5.57345 5.45156 6.1152C4.92641 6.65695 4.51416 7.28537 4.21483 8.00048C3.91549 8.71017 3.76582 9.47403 3.76582 10.2921C3.76582 11.1155 3.91549 11.8848 4.21483 12.5999C4.51416 13.3096 4.92641 13.9353 5.45156 14.4771C5.97671 15.0188 6.58588 15.4414 7.27908 15.7447C7.97228 16.0535 8.71278 16.2079 9.5005 16.2079ZM9.5005 5.70889C10.1149 5.70889 10.69 5.82808 11.2256 6.06644C11.7665 6.30481 12.2392 6.63528 12.6435 7.05784C13.0532 7.47498 13.3735 7.96256 13.6046 8.52055C13.8356 9.07314 13.9512 9.66364 13.9512 10.2921C13.9512 10.9259 13.8356 11.5218 13.6046 12.0798C13.3735 12.6324 13.0532 13.12 12.6435 13.5425C12.2392 13.9597 11.7665 14.2874 11.2256 14.5258C10.69 14.7642 10.1149 14.8834 9.5005 14.8834C8.88608 14.8834 8.30838 14.7642 7.76747 14.5258C7.23182 14.2874 6.75918 13.9597 6.34957 13.5425C5.93995 13.12 5.61961 12.6324 5.38854 12.0798C5.15747 11.5218 5.04194 10.9259 5.04194 10.2921C5.04194 9.66364 5.15747 9.07314 5.38854 8.52055C5.61961 7.96256 5.93995 7.47498 6.34957 7.05784C6.75918 6.63528 7.23182 6.30481 7.76747 6.06644C8.30838 5.82808 8.88608 5.70889 9.5005 5.70889ZM6.66466 13.9651L9.92588 10.5927C10.0467 10.4681 10.1071 10.3273 10.1071 10.1702C10.1071 10.0076 10.0467 9.86138 9.92588 9.73136C9.8261 9.61759 9.69218 9.56071 9.52414 9.56071C9.35609 9.56071 9.21692 9.61759 9.10664 9.73136L5.84542 13.0956L6.66466 13.9651ZM3.45861 17.4919C3.73169 17.4919 3.96275 17.3944 4.15181 17.1993C4.34086 17.0043 4.43539 16.7659 4.43539 16.4842C4.43539 16.2025 4.33824 15.9641 4.14393 15.7691C3.95488 15.5741 3.72644 15.4766 3.45861 15.4766C3.18553 15.4766 2.95446 15.5741 2.76541 15.7691C2.57635 15.9696 2.48183 16.2079 2.48183 16.4842C2.48183 16.7659 2.57635 17.0043 2.76541 17.1993C2.95972 17.3944 3.19078 17.4919 3.45861 17.4919ZM0.985147 11.3078C1.25823 11.3078 1.48929 11.2076 1.67835 11.0072C1.8674 10.8067 1.96193 10.5684 1.96193 10.2921C1.96193 10.0104 1.86478 9.77199 1.67047 9.57696C1.48141 9.38193 1.25297 9.28442 0.985147 9.28442C0.712068 9.28442 0.478376 9.38464 0.28407 9.58509C0.0950155 9.78012 0.000488281 10.0158 0.000488281 10.2921C0.000488281 10.5738 0.0976413 10.8149 0.291947 11.0153C0.486253 11.2103 0.71732 11.3078 0.985147 11.3078ZM3.45861 5.1238C3.73169 5.1238 3.96275 5.02629 4.15181 4.83126C4.34086 4.63082 4.43539 4.39245 4.43539 4.11616C4.43539 3.83445 4.33824 3.59608 4.14393 3.40105C3.95488 3.20602 3.72644 3.10851 3.45861 3.10851C3.18553 3.10851 2.95446 3.20602 2.76541 3.40105C2.57635 3.59608 2.48183 3.83445 2.48183 4.11616C2.48183 4.39786 2.57635 4.63623 2.76541 4.83126C2.95972 5.02629 3.19078 5.1238 3.45861 5.1238ZM9.5005 2.52342C9.77358 2.52342 10.0046 2.42591 10.1937 2.23088C10.3828 2.03043 10.4773 1.78936 10.4773 1.50765C10.4773 1.22594 10.3801 0.987572 10.1858 0.792543C9.99677 0.597514 9.76833 0.5 9.5005 0.5C9.22743 0.5 8.99636 0.600223 8.8073 0.800669C8.61825 0.995698 8.52372 1.23136 8.52372 1.50765C8.52372 1.78936 8.61825 2.03043 8.8073 2.23088C9.00161 2.42591 9.23268 2.52342 9.5005 2.52342ZM15.5345 5.10755C15.8076 5.10755 16.0386 5.01004 16.2277 4.81501C16.4167 4.61456 16.5113 4.37619 16.5113 4.0999C16.5113 3.8182 16.4141 3.57983 16.2198 3.3848C16.0308 3.18977 15.8023 3.09226 15.5345 3.09226C15.2562 3.09226 15.0225 3.18977 14.8334 3.3848C14.6444 3.57983 14.5498 3.8182 14.5498 4.0999C14.5498 4.38161 14.6444 4.61998 14.8334 4.81501C15.0277 5.01004 15.2614 5.10755 15.5345 5.10755ZM18.0158 11.3078C18.2889 11.3078 18.52 11.2076 18.709 11.0072C18.9033 10.8067 19.0005 10.5684 19.0005 10.2921C19.0005 10.0104 18.9033 9.77199 18.709 9.57696C18.5147 9.38193 18.2837 9.28442 18.0158 9.28442C17.7375 9.28442 17.5038 9.38464 17.3148 9.58509C17.1257 9.78012 17.0312 10.0158 17.0312 10.2921C17.0312 10.5738 17.1283 10.8149 17.3226 11.0153C17.5169 11.2103 17.748 11.3078 18.0158 11.3078ZM15.5266 17.5C15.7997 17.5 16.0308 17.4025 16.2198 17.2075C16.4089 17.0124 16.5034 16.7741 16.5034 16.4924C16.5034 16.2106 16.4062 15.9723 16.2119 15.7772C16.0229 15.5822 15.7944 15.4847 15.5266 15.4847C15.2483 15.4847 15.0146 15.5822 14.8255 15.7772C14.6365 15.9777 14.542 16.2161 14.542 16.4924C14.542 16.7741 14.6365 17.0124 14.8255 17.2075C15.0198 17.4025 15.2535 17.5 15.5266 17.5Z"
		fill="currentColor"
	/>
</svg>
