<svg
	color="rgb(var(--foreground, 0, 0, 0))"
	viewBox="0 0 16 16"
	fill="none"
	xmlns="http://www.w3.org/2000/svg"
>
	<path
		d="M3.00414 13.1412C3.54229 13.666 4.10631 14.105 4.69621 14.4582C5.29128 14.8114 5.87601 15.094 6.45038 15.306C7.02993 15.5179 7.56808 15.6768 8.06484 15.7828C8.56159 15.8938 8.98073 15.9645 9.32225 15.9947C9.52406 16.0149 9.67929 15.9771 9.78796 15.8812C9.9018 15.7853 9.96648 15.6743 9.982 15.5482C9.99753 15.417 9.96131 15.2883 9.87334 15.1621C9.78537 15.041 9.64566 14.9679 9.4542 14.9426C9.14373 14.9023 8.7634 14.8316 8.31322 14.7307C7.86303 14.6298 7.37662 14.4835 6.854 14.2917C6.33137 14.105 5.80356 13.8577 5.27059 13.5499C4.74278 13.2371 4.24603 12.8511 3.78032 12.3919C3.01966 11.6501 2.41683 10.8352 1.97182 9.94709C1.52681 9.05394 1.24997 8.1507 1.1413 7.23738C1.03264 6.32405 1.09991 5.45866 1.34311 4.6412C1.59149 3.8187 2.02615 3.10469 2.64709 2.49917C3.14902 2.0097 3.7234 1.65144 4.37021 1.42437C5.01703 1.19225 5.6949 1.07367 6.40381 1.06862C7.11272 1.06358 7.81905 1.15188 8.52278 1.33354C9.22652 1.51519 9.88628 1.7675 10.502 2.09044L11.3093 1.32597C10.5538 0.886966 9.75174 0.553929 8.90311 0.326858C8.05449 0.0947415 7.20328 -0.0137478 6.34948 0.00139023C5.50085 0.0165283 4.69104 0.165386 3.92003 0.447963C3.14902 0.730539 2.46598 1.16197 1.87091 1.74227C1.30689 2.29228 0.869639 2.92808 0.559167 3.64966C0.248695 4.36619 0.0675858 5.13066 0.0158404 5.94307C-0.035905 6.75044 0.0391258 7.57546 0.240933 8.41814C0.447914 9.25578 0.781672 10.0783 1.24221 10.8856C1.70274 11.693 2.29005 12.4449 3.00414 13.1412ZM5.82944 10.8781C6.33654 11.3726 6.89539 11.8015 7.50599 12.1648C8.11658 12.5281 8.74788 12.8132 9.39987 13.0201C10.0519 13.2219 10.6987 13.333 11.3403 13.3531C11.9872 13.3683 12.6003 13.2775 13.1799 13.0807C13.7594 12.8788 14.2769 12.5559 14.7322 12.1118C15.198 11.6526 15.5343 11.1203 15.7413 10.5148C15.9483 9.9042 16.031 9.25074 15.9897 8.55439C15.9534 7.85299 15.7982 7.13645 15.524 6.40478C15.2497 5.67311 14.8616 4.9591 14.3597 4.26275L13.568 5.03479C14.0958 5.79674 14.4735 6.5713 14.7012 7.35848C14.9341 8.14566 14.9936 8.88742 14.8797 9.58377C14.7659 10.2751 14.458 10.8655 13.9561 11.3549C13.5007 11.799 12.9807 12.0891 12.3959 12.2254C11.8164 12.3616 11.211 12.3717 10.5797 12.2556C9.94837 12.1345 9.32484 11.9125 8.70907 11.5896C8.09847 11.2616 7.53445 10.8579 7.01699 10.3785L5.82944 10.8781ZM6.84623 9.75029L13.8164 2.96088L12.6598 1.84066L5.69748 8.62251L5.06102 10.0682C5.02479 10.1439 5.03773 10.2145 5.09983 10.2801C5.16709 10.3457 5.24213 10.3634 5.32492 10.3331L6.84623 9.75029ZM14.383 2.41591L15.0039 1.81039C15.154 1.66405 15.229 1.49753 15.229 1.31083C15.2342 1.12413 15.1617 0.962656 15.0117 0.826414L14.8099 0.644757C14.6753 0.523653 14.5149 0.465624 14.3286 0.47067C14.1475 0.47067 13.9871 0.538791 13.8474 0.675033L13.2342 1.28812L14.383 2.41591Z"
		fill="currentColor"
	/>
</svg>
