<svg
	color="rgb(var(--foreground, 0, 0, 0))"
	viewBox="0 0 16 16"
	fill="none"
	xmlns="http://www.w3.org/2000/svg"
>
	<path
		d="M10.1958 6.69336L9.09195 7.8046C8.95397 7.93836 8.80321 8.02067 8.63968 8.05154C8.48125 8.07726 8.33561 8.0181 8.20273 7.87405C8.06475 7.71971 8.00598 7.57052 8.02643 7.42647C8.04687 7.27727 8.13374 7.1255 8.28706 6.97117L9.36792 5.84449L8.70867 5.18855L2.51482 11.4238C2.03955 11.9023 1.68693 12.2856 1.45696 12.5737C1.22699 12.8618 1.06601 13.0984 0.974026 13.2836C0.882038 13.4688 0.810492 13.6438 0.759388 13.8084C0.713394 13.973 0.639293 14.1659 0.537084 14.3872C0.434875 14.6084 0.25601 14.9016 0.000488281 15.2669L0.690397 16C1.03791 15.7428 1.32154 15.5679 1.54128 15.4752C1.76614 15.3826 1.96545 15.3158 2.13921 15.2746C2.31296 15.2386 2.49694 15.1794 2.69113 15.0971C2.89044 15.0148 3.1383 14.8579 3.4347 14.6264C3.73622 14.4 4.12972 14.045 4.61521 13.5614L10.8321 7.34158L10.1958 6.69336ZM12.0202 8.09012L12.2349 7.8509C12.424 7.6554 12.5185 7.44704 12.5185 7.22583C12.5236 7.00461 12.4265 6.79368 12.2272 6.59303L11.9972 6.36924C12.2936 6.10172 12.5926 5.88308 12.8941 5.7133C13.1956 5.54353 13.4895 5.39433 13.7757 5.26572C14.067 5.1371 14.3404 5.00334 14.5959 4.86444C14.8514 4.72039 15.0788 4.54547 15.2781 4.33968C15.6614 3.95384 15.8888 3.53455 15.9604 3.08182C16.037 2.62909 16.0038 2.19437 15.8607 1.77766C15.7227 1.36094 15.5183 1.01882 15.2475 0.751301C14.9817 0.478635 14.6444 0.272849 14.2356 0.133944C13.8268 -0.0049609 13.3949 -0.0358287 12.9401 0.0413408C12.4904 0.11851 12.0713 0.344874 11.6829 0.720433C11.4734 0.921074 11.2997 1.15001 11.1617 1.40724C11.0237 1.66447 10.8883 1.93971 10.7554 2.23296C10.6276 2.52106 10.4794 2.81944 10.3108 3.12812C10.1473 3.43166 9.93262 3.73004 9.66687 4.02329L9.44457 3.79178C9.24526 3.59114 9.03574 3.49339 8.81599 3.49854C8.60135 3.49854 8.39438 3.59371 8.19507 3.78406L7.9651 4.00014C7.72491 4.2265 7.61759 4.44258 7.64314 4.64836C7.66869 4.85415 7.78112 5.05993 7.98043 5.26572L10.7631 8.06697C10.9675 8.26761 11.1719 8.3808 11.3763 8.40652C11.5807 8.43224 11.7954 8.32678 12.0202 8.09012Z"
		fill="currentColor"
	/>
</svg>
