<svg
	color="rgb(var(--foreground, 0, 0, 0))"
	viewBox="0 0 14 14"
	fill="none"
	xmlns="http://www.w3.org/2000/svg"
>
	<path
		d="M0.828029 10.7491L3.38295 13.2381C3.89705 13.7406 4.4475 13.9944 5.0343 13.9997C5.62629 14.0101 6.16895 13.7667 6.66228 13.2695L7.42564 12.4922L1.48234 6.62695L0.734557 7.38071C0.40221 7.71048 0.181511 8.06904 0.0724594 8.45639C-0.0313991 8.84374 -0.0236097 9.23632 0.0958275 9.63414C0.220458 10.0267 0.464525 10.3984 0.828029 10.7491ZM2.21454 5.88889L8.15784 11.7619L13.5169 6.35214C13.8441 6.02237 14.0051 5.65334 13.9999 5.24505C13.9999 4.83153 13.8311 4.45988 13.4936 4.13011L9.8014 0.494781C9.46905 0.16501 9.10036 0.00012463 8.69531 0.00012463C8.29026 -0.00510983 7.92416 0.154541 7.597 0.479077L2.21454 5.88889Z"
		fill="currentColor"
	/>
</svg>
