<svg
	color="rgb(var(--foreground, 0, 0, 0))"
	viewBox="0 0 19 14"
	fill="none"
	xmlns="http://www.w3.org/2000/svg"
>
	<path
		d="M7.83979 13.6778H12.236C12.4096 13.6778 12.557 13.6149 12.678 13.4893C12.8043 13.3689 12.8674 13.2224 12.8674 13.0496C12.8674 12.8769 12.8043 12.7277 12.678 12.6021C12.557 12.4765 12.4096 12.4136 12.236 12.4136H9.1184L7.83979 13.6778ZM14.588 13.6778H18.3686C18.5422 13.6778 18.6896 13.6149 18.8106 13.4893C18.9369 13.3689 19 13.2224 19 13.0496C19 12.8769 18.9369 12.7277 18.8106 12.6021C18.6896 12.4765 18.5422 12.4136 18.3686 12.4136H14.588C14.4144 12.4136 14.2644 12.4765 14.1381 12.6021C14.0171 12.7277 13.9566 12.8769 13.9566 13.0496C13.9566 13.2224 14.0171 13.3689 14.1381 13.4893C14.2644 13.6149 14.4144 13.6778 14.588 13.6778ZM0.839007 10.7491L3.4278 13.2381C3.94871 13.7406 4.50646 13.9944 5.10104 13.9997C5.70088 14.0101 6.25074 13.7667 6.75061 13.2695L7.52408 12.4922L1.50199 6.62695L0.744295 7.38071C0.407542 7.71048 0.183917 8.06904 0.07342 8.45639C-0.0318153 8.84374 -0.0239227 9.23632 0.097098 9.63414C0.22338 10.0267 0.470683 10.3984 0.839007 10.7491ZM2.2439 5.88889L8.26599 11.7619L13.6961 6.35214C14.0276 6.02237 14.1907 5.65334 14.1855 5.24505C14.1855 4.83153 14.0145 4.45988 13.6725 4.13011L9.93134 0.494781C9.59459 0.16501 9.22101 0.00012463 8.81059 0.00012463C8.40017 -0.00510983 8.02921 0.154541 7.69772 0.479077L2.2439 5.88889Z"
		fill="currentColor"
	/>
</svg>
