<svg
	color="rgb(var(--foreground, 0, 0, 0))"
	viewBox="0 0 19 14"
	fill="none"
	xmlns="http://www.w3.org/2000/svg"
>
	<path
		d="M7.84305 13.6722H12.2332C12.4069 13.6722 12.5569 13.6097 12.6833 13.4849C12.8096 13.3652 12.8728 13.2196 12.8728 13.0479C12.8728 12.8762 12.8096 12.7279 12.6833 12.6031C12.5569 12.4782 12.4069 12.4158 12.2332 12.4158H9.12219L7.84305 13.6722ZM14.5941 13.6722H18.3683C18.542 13.6722 18.6894 13.6097 18.8105 13.4849C18.9368 13.3652 19 13.2196 19 13.0479C19 12.8762 18.9368 12.7279 18.8105 12.6031C18.6894 12.4782 18.542 12.4158 18.3683 12.4158H14.5941C14.4204 12.4158 14.2703 12.4782 14.144 12.6031C14.0177 12.7279 13.9545 12.8762 13.9545 13.0479C13.9545 13.2196 14.0177 13.3652 14.144 13.4849C14.2703 13.6097 14.4204 13.6722 14.5941 13.6722ZM0.83146 10.6834L3.42132 13.2352C3.93193 13.7398 4.48727 13.9947 5.08737 13.9999C5.69272 14.0051 6.24543 13.7606 6.74551 13.2664L13.6939 6.39134C14.0256 6.06358 14.1861 5.69681 14.1756 5.29102C14.1703 4.88002 14.0045 4.51065 13.6781 4.18289L9.93548 0.491755C9.60385 0.164001 9.2301 0.000123868 8.81425 0.000123868C8.39839 -0.00507858 8.02465 0.153596 7.69302 0.476148L0.736709 7.33558C0.405079 7.66333 0.183994 8.0197 0.0734505 8.40468C-0.0318285 8.78446 -0.0239326 9.16944 0.0971383 9.55963C0.223473 9.94981 0.468247 10.3244 0.83146 10.6834ZM1.67632 9.84836C1.39207 9.57263 1.24468 9.2813 1.23415 8.97435C1.22889 8.66741 1.36049 8.38387 1.62895 8.12375L8.49841 1.35016C8.59316 1.26172 8.69318 1.2149 8.79845 1.20969C8.909 1.20449 9.00901 1.24611 9.0985 1.33455L12.8254 5.01008C12.9149 5.09853 12.9544 5.19737 12.9438 5.30662C12.9386 5.41588 12.8912 5.51472 12.8017 5.60316L5.94802 12.3846C5.67956 12.6499 5.39531 12.7825 5.09526 12.7825C4.80048 12.7825 4.51886 12.6499 4.2504 12.3846L1.67632 9.84836ZM1.90531 6.96881L7.11662 12.1036L7.85094 11.3779L2.64752 6.24307L1.90531 6.96881Z"
		fill="currentColor"
	/>
</svg>
