<svg
	color="rgb(var(--foreground, 0, 0, 0))"
	viewBox="0 0 16 18"
	fill="none"
	xmlns="http://www.w3.org/2000/svg"
>
	<path
		d="M6.03145 17.5H13.9476C14.6345 17.5 15.1484 17.3382 15.4893 17.0145C15.8301 16.6908 16.0005 16.1924 16.0005 15.5194V7.89731C16.0005 7.22425 15.8301 6.72588 15.4893 6.40219C15.1484 6.07851 14.6345 5.91666 13.9476 5.91666H6.03145C5.34981 5.91666 4.83591 6.07851 4.48976 6.40219C4.14894 6.72588 3.97853 7.22425 3.97853 7.89731V15.5194C3.97853 16.1924 4.14894 16.6908 4.48976 17.0145C4.83591 17.3382 5.34981 17.5 6.03145 17.5ZM6.05542 16.2592C5.78382 16.2592 5.58412 16.2001 5.45632 16.0819C5.32851 15.9638 5.2646 15.7711 5.2646 15.5039V7.92043C5.2646 7.64813 5.32851 7.45289 5.45632 7.33472C5.58412 7.21654 5.78382 7.15746 6.05542 7.15746H13.9236C14.2005 7.15746 14.4002 7.21654 14.5227 7.33472C14.6505 7.45289 14.7144 7.64813 14.7144 7.92043V15.5039C14.7144 15.7711 14.6505 15.9638 14.5227 16.0819C14.4002 16.2001 14.2005 16.2592 13.9236 16.2592H6.05542ZM0.495746 7.38866C0.634206 7.38866 0.754026 7.34242 0.855208 7.24994C0.951064 7.15232 0.998993 7.03929 0.998993 6.91084V5.76253C0.998993 5.21277 1.11349 4.72724 1.34248 4.30594C1.57147 3.88463 1.89631 3.55581 2.31702 3.31947C2.74305 3.07799 3.24629 2.95725 3.82676 2.95725H3.97853V3.89748C3.97853 4.17492 4.07172 4.34704 4.25811 4.41383C4.4445 4.47549 4.64952 4.42668 4.87319 4.2674L6.88617 2.84935C7.05658 2.73118 7.14179 2.60787 7.14179 2.47942C7.14179 2.34584 7.05658 2.21739 6.88617 2.09408L4.87319 0.668324C4.64952 0.50905 4.4445 0.462809 4.25811 0.529601C4.07172 0.591256 3.97853 0.763374 3.97853 1.04596V2.06326H3.81877C3.05192 2.06326 2.38358 2.21739 1.81377 2.52567C1.23863 2.83394 0.793966 3.26552 0.47977 3.82041C0.160249 4.3753 0.000488281 5.0201 0.000488281 5.75482V6.91084C0.000488281 7.03929 0.0510792 7.15232 0.152261 7.24994C0.248117 7.34242 0.362612 7.38866 0.495746 7.38866Z"
		fill="currentColor"
	/>
</svg>
