<svg
	color="rgb(var(--foreground, 0, 0, 0))"
	viewBox="0 0 16 18"
	fill="none"
	xmlns="http://www.w3.org/2000/svg"
>
	<path
		d="M2.05238 17.5H9.96456C10.6512 17.5 11.1648 17.3382 11.5055 17.0145C11.8461 16.6908 12.0165 16.1924 12.0165 15.5194V7.89731C12.0165 7.22425 11.8461 6.72588 11.5055 6.40219C11.1648 6.07851 10.6512 5.91666 9.96456 5.91666H2.05238C1.37108 5.91666 0.857441 6.07851 0.511466 6.40219C0.170814 6.72588 0.000488281 7.22425 0.000488281 7.89731V15.5194C0.000488281 16.1924 0.170814 16.6908 0.511466 17.0145C0.857441 17.3382 1.37108 17.5 2.05238 17.5ZM15.4975 7.38866C15.6359 7.38866 15.753 7.34242 15.8488 7.24994C15.9499 7.15232 16.0005 7.03929 16.0005 6.91084V5.75482C16.0005 5.0201 15.8408 4.3753 15.5214 3.82041C15.2074 3.26552 14.763 2.83394 14.1881 2.52567C13.6133 2.21739 12.9453 2.06326 12.1841 2.06326H12.0165V1.04596C12.0165 0.763374 11.9233 0.591256 11.737 0.529601C11.5507 0.462809 11.3458 0.50905 11.1222 0.668324L9.11027 2.09408C8.93994 2.21226 8.85478 2.33813 8.85478 2.47172C8.85478 2.6053 8.93994 2.73118 9.11027 2.84935L11.1222 4.2674C11.3458 4.42668 11.5507 4.47549 11.737 4.41383C11.9233 4.34704 12.0165 4.17492 12.0165 3.89748V2.95725H12.1761C12.751 2.95725 13.2487 3.07799 13.6692 3.31947C14.095 3.55581 14.4223 3.88463 14.6512 4.30594C14.8854 4.72724 15.0025 5.21277 15.0025 5.76253V6.91084C15.0025 7.03929 15.0504 7.15232 15.1462 7.24994C15.2473 7.34242 15.3644 7.38866 15.4975 7.38866Z"
		fill="currentColor"
	/>
</svg>
