<svg
	color="rgb(var(--foreground, 0, 0, 0))"
	viewBox="0 0 16 18"
	fill="none"
	xmlns="http://www.w3.org/2000/svg"
>
	<path
		d="M6.03144 17.5H13.9476C14.6345 17.5 15.1484 17.3382 15.4893 17.0145C15.8301 16.6908 16.0005 16.1924 16.0005 15.5193V7.89731C16.0005 7.22425 15.8301 6.72588 15.4893 6.40219C15.1484 6.07851 14.6345 5.91666 13.9476 5.91666H6.03144C5.3498 5.91666 4.8359 6.07851 4.48975 6.40219C4.14893 6.72588 3.97852 7.22425 3.97852 7.89731V15.5193C3.97852 16.1924 4.14893 16.6908 4.48975 17.0145C4.8359 17.3382 5.3498 17.5 6.03144 17.5ZM0.495745 7.38866C0.634204 7.38866 0.754025 7.34242 0.855206 7.24994C0.951062 7.15232 0.998991 7.03929 0.998991 6.91084V5.76253C0.998991 5.21277 1.11349 4.72724 1.34248 4.30594C1.57147 3.88463 1.89631 3.55581 2.31701 3.31947C2.74304 3.07799 3.24629 2.95725 3.82675 2.95725H3.97852V3.89748C3.97852 4.17492 4.07171 4.34704 4.2581 4.41383C4.44449 4.47549 4.64951 4.42668 4.87318 4.2674L6.88616 2.84935C7.05657 2.73118 7.14178 2.60787 7.14178 2.47942C7.14178 2.34584 7.05657 2.21739 6.88616 2.09408L4.87318 0.668324C4.64951 0.50905 4.44449 0.462809 4.2581 0.529601C4.07171 0.591256 3.97852 0.763374 3.97852 1.04596V2.06326H3.81876C3.05191 2.06326 2.38358 2.21739 1.81377 2.52567C1.23863 2.83394 0.793965 3.26552 0.479769 3.82041C0.160249 4.3753 0.000488281 5.0201 0.000488281 5.75482V6.91084C0.000488281 7.03929 0.0510791 7.15232 0.152261 7.24994C0.248117 7.34242 0.362612 7.38866 0.495745 7.38866Z"
		fill="currentColor"
	/>
</svg>
