<svg
	color="rgb(var(--foreground, 0, 0, 0))"
	viewBox="0 0 18 16"
	fill="none"
	xmlns="http://www.w3.org/2000/svg"
>
	<path
		d="M1.15512 16H7.23413C7.68783 16 8.02173 15.8922 8.23583 15.6767C8.44994 15.4663 8.55699 15.1327 8.55699 14.6759V5.47676C8.55699 5.25095 8.50601 5.06106 8.40406 4.9071C8.3072 4.75314 8.17976 4.63767 8.02173 4.56069C7.8637 4.47858 7.69293 4.43752 7.50941 4.43752C7.32589 4.43752 7.15002 4.48114 6.9818 4.56839C6.81357 4.6505 6.66574 4.78137 6.5383 4.96099L0.237532 14.1679C0.155968 14.291 0.0947958 14.4193 0.0540142 14.5528C0.0183303 14.6913 0.000488281 14.8273 0.000488281 14.9608C0.000488281 15.243 0.0947959 15.4868 0.283411 15.6921C0.472026 15.8974 0.762595 16 1.15512 16ZM1.63685 14.7452C1.57568 14.7452 1.54509 14.7196 1.54509 14.6682C1.54509 14.6426 1.55274 14.6143 1.56803 14.5836L7.17296 6.12339C7.19335 6.0926 7.21629 6.07721 7.24178 6.07721C7.28256 6.07721 7.30295 6.10287 7.30295 6.15419V14.522C7.30295 14.6092 7.28511 14.6682 7.24943 14.699C7.21884 14.7298 7.16022 14.7452 7.07356 14.7452H1.63685ZM10.7668 16H16.8382C17.2358 16 17.529 15.8974 17.7176 15.6921C17.9062 15.4868 18.0005 15.243 18.0005 14.9608C18.0005 14.8273 17.9801 14.6913 17.9393 14.5528C17.9036 14.4193 17.8425 14.291 17.7558 14.1679L11.455 4.96099C11.3327 4.78137 11.1849 4.6505 11.0115 4.56839C10.8433 4.48114 10.6674 4.43752 10.4839 4.43752C10.3055 4.43752 10.1373 4.47858 9.97925 4.56069C9.82122 4.63767 9.69123 4.75314 9.58927 4.9071C9.49242 5.06106 9.44399 5.25095 9.44399 5.47676V14.6759C9.44399 15.1327 9.54849 15.4663 9.7575 15.6767C9.9716 15.8922 10.3081 16 10.7668 16ZM10.9274 14.7452C10.8357 14.7452 10.7745 14.7298 10.7439 14.699C10.7133 14.6682 10.698 14.6092 10.698 14.522V6.16188C10.698 6.10543 10.7159 6.07721 10.7516 6.07721C10.7821 6.07721 10.8076 6.09517 10.828 6.13109L16.4253 14.5836C16.4457 14.6143 16.4559 14.6426 16.4559 14.6682C16.4559 14.7196 16.4227 14.7452 16.3565 14.7452H10.9274ZM1.1857 2.51301L3.23498 4.04492C3.44399 4.20401 3.65045 4.24507 3.85435 4.16809C4.05826 4.08598 4.16022 3.91149 4.16022 3.64462V2.5438H13.8331V3.64462C13.8331 3.91149 13.9351 4.08598 14.139 4.16809C14.3429 4.24507 14.5519 4.20401 14.766 4.04492L16.8153 2.51301C16.9529 2.40523 17.0217 2.26923 17.0217 2.10501C17.0217 1.94078 16.9529 1.80478 16.8153 1.69701L14.766 0.157401C14.5621 0.00343955 14.3556 -0.0350507 14.1466 0.0419298C13.9376 0.113778 13.8331 0.288268 13.8331 0.565398V1.65082H4.16022V0.565398C4.16022 0.298532 4.05826 0.124042 3.85435 0.0419298C3.65045 -0.0401828 3.44399 -0.00169249 3.23498 0.157401L1.1857 1.69701C1.04297 1.80478 0.971601 1.94335 0.971601 2.11271C0.976699 2.27693 1.04807 2.41037 1.1857 2.51301Z"
		fill="currentColor"
	/>
</svg>
