<svg
	color="rgb(var(--foreground, 0, 0, 0))"
	viewBox="0 0 18 16"
	fill="none"
	xmlns="http://www.w3.org/2000/svg"
>
	<path
		d="M0.000488281 14.9583C0.000488281 15.2412 0.0947958 15.4856 0.283411 15.6913C0.472026 15.8971 0.762595 16 1.15512 16H7.23413C7.68783 16 8.02173 15.892 8.23583 15.6759C8.44994 15.465 8.55699 15.1306 8.55699 14.6727V5.45138C8.55699 5.22503 8.50601 5.03468 8.40406 4.88035C8.3072 4.72602 8.17976 4.61027 8.02173 4.5331C7.8637 4.45079 7.69293 4.40964 7.50941 4.40964C7.32589 4.40964 7.15002 4.45337 6.9818 4.54082C6.81357 4.62313 6.66574 4.75431 6.5383 4.93437L0.237532 14.1634C0.155968 14.2869 0.0947958 14.4155 0.0540142 14.5493C0.0183303 14.6882 0.000488281 14.8245 0.000488281 14.9583ZM9.44399 14.6727C9.44399 15.1306 9.54849 15.465 9.7575 15.6759C9.9716 15.892 10.3081 16 10.7668 16H16.8382C17.2358 16 17.529 15.8971 17.7176 15.6913C17.9062 15.4856 18.0005 15.2412 18.0005 14.9583C18.0005 14.8245 17.9801 14.6882 17.9393 14.5493C17.9036 14.4155 17.8425 14.2869 17.7558 14.1634L11.455 4.93437C11.3327 4.75431 11.1849 4.62313 11.0115 4.54082C10.8433 4.45337 10.6674 4.40964 10.4839 4.40964C10.3055 4.40964 10.1373 4.45079 9.97925 4.5331C9.82122 4.61027 9.69123 4.72602 9.58927 4.88035C9.49242 5.03468 9.44399 5.22503 9.44399 5.45138V14.6727ZM1.1857 2.51907L3.23498 4.05467C3.44399 4.21415 3.65045 4.25531 3.85435 4.17814C4.05826 4.09583 4.16022 3.92092 4.16022 3.65341V2.54993H13.8331V3.65341C13.8331 3.92092 13.9351 4.09583 14.139 4.17814C14.3429 4.25531 14.5519 4.21415 14.766 4.05467L16.8153 2.51907C16.9529 2.41103 17.0217 2.27471 17.0217 2.11008C17.0217 1.94546 16.9529 1.80914 16.8153 1.7011L14.766 0.15778C14.5621 0.00344786 14.3556 -0.0351352 14.1466 0.0420309C13.9376 0.114053 13.8331 0.288963 13.8331 0.566761V1.6548H4.16022V0.566761C4.16022 0.299252 4.05826 0.124342 3.85435 0.0420309C3.65045 -0.0402797 3.44399 -0.00169655 3.23498 0.15778L1.1857 1.7011C1.04297 1.80914 0.971601 1.94804 0.971601 2.1178C0.976699 2.28242 1.04807 2.41618 1.1857 2.51907Z"
		fill="currentColor"
	/>
</svg>
