<svg
	color="rgb(var(--foreground, 0, 0, 0))"
	viewBox="0 0 16 18"
	fill="none"
	xmlns="http://www.w3.org/2000/svg"
>
	<path
		d="M16.0005 16.8377V10.7664C16.0005 10.3127 15.8925 9.97876 15.6765 9.76466C15.4606 9.55055 15.1238 9.4435 14.6662 9.4435H5.44924C5.223 9.4435 5.03275 9.49448 4.87849 9.59643C4.72424 9.69329 4.60597 9.82073 4.5237 9.97876C4.44657 10.1368 4.40801 10.3076 4.40801 10.4911C4.40801 10.6746 4.45172 10.8505 4.53913 11.0187C4.62654 11.1869 4.76023 11.3322 4.94019 11.4545L14.1571 17.7553C14.2805 17.842 14.4116 17.9031 14.5505 17.9388C14.6893 17.9796 14.8256 18 14.9593 18C15.2369 18 15.4786 17.9057 15.6843 17.7171C15.8951 17.5285 16.0005 17.2353 16.0005 16.8377ZM14.6662 8.5565C15.1238 8.5565 15.4606 8.44945 15.6765 8.23534C15.8925 8.02124 16.0005 7.68734 16.0005 7.23364V1.16228C16.0005 0.764656 15.8951 0.471538 15.6843 0.282923C15.4786 0.0943076 15.2369 0 14.9593 0C14.8256 0 14.6893 0.0203908 14.5505 0.0611725C14.4116 0.0968564 14.2805 0.15548 14.1571 0.237043L4.94019 6.54545C4.76023 6.6678 4.62654 6.81308 4.53913 6.98131C4.45172 7.14953 4.40801 7.3254 4.40801 7.50892C4.40801 7.69244 4.44657 7.86321 4.5237 8.02124C4.60597 8.17927 4.72424 8.30926 4.87849 8.41121C5.03275 8.50807 5.223 8.5565 5.44924 8.5565H14.6662ZM2.51837 16.8148L4.05322 14.7655C4.21776 14.5565 4.2589 14.35 4.17663 14.1461C4.09436 13.9371 3.9221 13.8326 3.65987 13.8326H2.54922V4.16737H3.65987C3.9221 4.16737 4.09436 4.06542 4.17663 3.86151C4.2589 3.65251 4.21776 3.4435 4.05322 3.23449L2.51837 1.18522C2.41553 1.04248 2.27927 0.973662 2.10959 0.97876C1.94505 0.97876 1.81136 1.04758 1.70853 1.18522L0.15825 3.23449C0.00399411 3.4384 -0.0371409 3.64486 0.0348454 3.85387C0.111973 4.06287 0.289368 4.16737 0.567029 4.16737H1.65454V13.8326H0.567029C0.299652 13.8326 0.124828 13.9371 0.0425582 14.1461C-0.0397118 14.35 -0.00114776 14.5565 0.15825 14.7655L1.70853 16.8148C1.81136 16.9524 1.94505 17.0212 2.10959 17.0212C2.27927 17.0212 2.41553 16.9524 2.51837 16.8148Z"
		fill="currentColor"
	/>
</svg>
