<svg
	color="rgb(var(--foreground, 0, 0, 0))"
	viewBox="0 0 16 16"
	fill="none"
	xmlns="http://www.w3.org/2000/svg"
>
	<path
		d="M3.78379 12.9138L6.3475 11.875C6.44531 11.8396 6.51995 11.8017 6.57143 11.7612C6.62806 11.7208 6.68726 11.6728 6.74904 11.6172L14.139 4.41357C14.4994 4.05971 14.677 3.68563 14.6718 3.29133C14.6718 2.89703 14.4891 2.51789 14.1236 2.15392L12.5019 0.546378C12.1313 0.187462 11.7426 0.00547642 11.3359 0.000421263C10.9344 -0.00968905 10.5534 0.162186 10.1931 0.516047L2.79537 7.71965C2.73874 7.77526 2.68984 7.83086 2.64865 7.88647C2.61262 7.93702 2.57401 8.00779 2.53282 8.09879L1.45174 10.6163C1.36937 10.8033 1.33848 10.9878 1.35907 11.1698C1.38481 11.3518 1.47233 11.5161 1.62162 11.6627L2.71815 12.747C2.86229 12.8885 3.02703 12.972 3.21236 12.9972C3.39769 13.0225 3.58816 12.9947 3.78379 12.9138ZM3.66796 11.7385C3.59074 11.7638 3.52124 11.7739 3.45946 11.7688C3.39769 11.7638 3.33076 11.7259 3.25869 11.6551L2.73359 11.1395C2.66152 11.0737 2.62291 11.0106 2.61776 10.9499C2.61262 10.8842 2.62549 10.8159 2.65637 10.7452L3.6139 8.53858L10.973 1.36531C11.0862 1.26421 11.2046 1.21113 11.3282 1.20608C11.4517 1.20102 11.565 1.24905 11.668 1.35015L13.2973 2.96527C13.5187 3.1877 13.5109 3.41518 13.2741 3.64772L5.91506 10.821L3.66796 11.7385ZM0.772202 13.293H1.70657C1.81467 13.293 1.89962 13.2803 1.96139 13.255C2.02832 13.2298 2.10296 13.1843 2.18533 13.1186L2.9112 12.5726L1.79923 11.4579L0.548263 12.7546C0.435007 12.8759 0.401545 12.9972 0.447877 13.1186C0.494209 13.2348 0.602317 13.293 0.772202 13.293ZM2.9112 8.53858L6.0695 11.6551L6.79537 10.9499L3.63707 7.82581L2.9112 8.53858ZM9.32047 2.29799L12.4788 5.4145L13.2046 4.71688L10.0463 1.5928L9.32047 2.29799ZM0.617761 16H15.3745C15.5444 16 15.6911 15.9393 15.8147 15.818C15.9382 15.6967 16 15.5526 16 15.3858C16 15.219 15.9382 15.0749 15.8147 14.9536C15.6911 14.8373 15.5444 14.7792 15.3745 14.7792H0.617761C0.447877 14.7792 0.301159 14.8373 0.177606 14.9536C0.0592021 15.0749 0 15.219 0 15.3858C0 15.5526 0.0592021 15.6967 0.177606 15.818C0.301159 15.9393 0.447877 16 0.617761 16Z"
		fill="currentColor"
	/>
</svg>
