<svg
	color="rgb(var(--foreground, 0, 0, 0))"
	viewBox="0 0 16 14"
	fill="none"
	xmlns="http://www.w3.org/2000/svg"
>
	<path
		d="M10.8471 14C11.1965 14 11.5141 13.9096 11.8 13.7287C12.0911 13.5533 12.3214 13.3149 12.4908 13.0135C12.6655 12.7176 12.7528 12.3887 12.7528 12.027C12.7528 11.6653 12.6655 11.3365 12.4908 11.0405C12.3214 10.7391 12.0911 10.5007 11.8 10.3253C11.5141 10.1445 11.1965 10.054 10.8471 10.054C10.4978 10.054 10.1775 10.1445 9.88635 10.3253C9.60049 10.5007 9.37022 10.7391 9.19553 11.0405C9.02084 11.3365 8.93349 11.6653 8.93349 12.027C8.93349 12.3887 9.02084 12.7176 9.19553 13.0135C9.37022 13.3149 9.60049 13.5533 9.88635 13.7287C10.1775 13.9096 10.4978 14 10.8471 14ZM10.8471 12.9888C10.5878 12.9888 10.3681 12.8957 10.1881 12.7093C10.0081 12.523 9.91811 12.2956 9.91811 12.027C9.91811 11.753 10.0081 11.5255 10.1881 11.3447C10.3681 11.1583 10.5878 11.0652 10.8471 11.0652C11.1065 11.0652 11.3262 11.1583 11.5062 11.3447C11.6862 11.5255 11.7762 11.753 11.7762 12.027C11.7762 12.2956 11.6862 12.523 11.5062 12.7093C11.3262 12.8957 11.1065 12.9888 10.8471 12.9888ZM9.58461 11.3611H0.635724C0.461034 11.3611 0.310166 11.4269 0.183119 11.5584C0.061365 11.6845 0.000488281 11.8407 0.000488281 12.027C0.000488281 12.2079 0.061365 12.3641 0.183119 12.4956C0.310166 12.6216 0.461034 12.6847 0.635724 12.6847H9.58461V11.3611ZM15.3891 11.3611H12.2288V12.6847H15.3891C15.5532 12.6847 15.6961 12.6216 15.8179 12.4956C15.9396 12.3641 16.0005 12.2079 16.0005 12.027C16.0005 11.8407 15.9396 11.6845 15.8179 11.5584C15.6961 11.4269 15.5532 11.3611 15.3891 11.3611ZM5.24118 8.98532C5.59056 8.98532 5.90818 8.89489 6.19404 8.71403C6.48519 8.53318 6.71546 8.29477 6.88486 7.99883C7.05955 7.6974 7.14689 7.36583 7.14689 7.00411C7.14689 6.6424 7.05955 6.31357 6.88486 6.01762C6.71546 5.71619 6.48519 5.47778 6.19404 5.30241C5.90818 5.12155 5.59056 5.03112 5.24118 5.03112C4.89181 5.03112 4.57154 5.12155 4.28039 5.30241C3.99453 5.47778 3.76426 5.71619 3.58957 6.01762C3.42018 6.31357 3.33548 6.6424 3.33548 7.00411C3.33548 7.36583 3.42018 7.6974 3.58957 7.99883C3.76426 8.29477 3.99453 8.53318 4.28039 8.71403C4.57154 8.89489 4.89181 8.98532 5.24118 8.98532ZM5.24118 7.96594C4.9818 7.96594 4.76211 7.87277 4.58213 7.68644C4.40214 7.5001 4.31215 7.27266 4.31215 7.00411C4.31215 6.73008 4.40214 6.50264 4.58213 6.32179C4.76211 6.13545 4.9818 6.04228 5.24118 6.04228C5.50587 6.04228 5.72555 6.13545 5.90024 6.32179C6.08022 6.50264 6.17022 6.73008 6.17022 7.00411C6.17022 7.27266 6.08022 7.5001 5.90024 7.68644C5.72555 7.87277 5.50587 7.96594 5.24118 7.96594ZM0.603962 6.33823C0.445153 6.33823 0.304872 6.40399 0.183119 6.53553C0.061365 6.66158 0.000488281 6.81777 0.000488281 7.00411C0.000488281 7.19045 0.061365 7.34664 0.183119 7.4727C0.304872 7.59875 0.445153 7.66177 0.603962 7.66177H3.87543V6.33823H0.603962ZM15.3573 6.33823H6.50372V7.66177H15.3573C15.5373 7.66177 15.6882 7.59875 15.8099 7.4727C15.937 7.34664 16.0005 7.19045 16.0005 7.00411C16.0005 6.81777 15.937 6.66158 15.8099 6.53553C15.6882 6.40399 15.5373 6.33823 15.3573 6.33823ZM10.8471 3.9542C11.1965 3.9542 11.5141 3.86651 11.8 3.69113C12.0911 3.51028 12.3214 3.27187 12.4908 2.97592C12.6655 2.6745 12.7528 2.34292 12.7528 1.98121C12.7528 1.6195 12.6655 1.29066 12.4908 0.994715C12.3214 0.693286 12.0911 0.452143 11.8 0.271286C11.5141 0.0904287 11.1965 0 10.8471 0C10.4978 0 10.1775 0.0904287 9.88635 0.271286C9.60049 0.452143 9.37022 0.693286 9.19553 0.994715C9.02084 1.29066 8.93349 1.6195 8.93349 1.98121C8.93349 2.34292 9.02084 2.6745 9.19553 2.97592C9.37022 3.27187 9.60049 3.51028 9.88635 3.69113C10.1775 3.86651 10.4978 3.9542 10.8471 3.9542ZM10.8471 2.94304C10.5878 2.94304 10.3681 2.84987 10.1881 2.66354C10.0081 2.47172 9.91811 2.24153 9.91811 1.97299C9.91811 1.70444 10.0081 1.477 10.1881 1.29066C10.3681 1.10433 10.5878 1.01116 10.8471 1.01116C11.1065 1.01116 11.3262 1.10433 11.5062 1.29066C11.6862 1.477 11.7762 1.70444 11.7762 1.97299C11.7762 2.24153 11.6862 2.47172 11.5062 2.66354C11.3262 2.84987 11.1065 2.94304 10.8471 2.94304ZM9.62431 1.32355H0.635724C0.461034 1.32355 0.310166 1.38931 0.183119 1.52085C0.061365 1.6469 0.000488281 1.80035 0.000488281 1.98121C0.000488281 2.16755 0.061365 2.32648 0.183119 2.45802C0.310166 2.58407 0.461034 2.64709 0.635724 2.64709H9.62431V1.32355ZM15.3891 1.32355H12.1176V2.64709H15.3891C15.5532 2.64709 15.6961 2.58407 15.8179 2.45802C15.9396 2.32648 16.0005 2.16755 16.0005 1.98121C16.0005 1.80035 15.9396 1.6469 15.8179 1.52085C15.6961 1.38931 15.5532 1.32355 15.3891 1.32355Z"
		fill="currentColor"
	/>
</svg>
