<svg
	color="rgb(var(--foreground, 0, 0, 0))"
	viewBox="0 0 16 16"
	fill="none"
	xmlns="http://www.w3.org/2000/svg"
>
	<path
		d="M0 7.06535C0 7.9736 0.175967 8.78152 0.5279 9.48911C0.885008 10.1914 1.37668 10.7855 2.00291 11.2713C2.63432 11.7518 3.36665 12.1188 4.19991 12.3723C5.03316 12.6205 5.92593 12.7446 6.87822 12.7446C7.05419 12.7446 7.23274 12.7419 7.41388 12.7366C7.59503 12.7261 7.77617 12.7129 7.95731 12.697L7.6856 11.5327C7.56138 11.538 7.43717 11.5432 7.31296 11.5485C7.19392 11.5538 7.07489 11.5564 6.95585 11.5564C6.164 11.5564 5.41873 11.464 4.72004 11.2792C4.02653 11.0944 3.41323 10.8145 2.88016 10.4396C2.34708 10.0647 1.92787 9.59736 1.62251 9.03762C1.32234 8.47789 1.17225 7.8231 1.17225 7.07327C1.17225 6.38152 1.31457 5.73729 1.59923 5.14059C1.88388 4.53861 2.27463 3.99736 2.77147 3.51683C3.27349 3.03102 3.84797 2.6165 4.49491 2.27327C5.14184 1.92475 5.83018 1.65809 6.55993 1.47327C7.29485 1.28845 8.03235 1.19604 8.77245 1.19604C9.585 1.19604 10.3561 1.32013 11.0859 1.56832C11.8156 1.81122 12.46 2.16238 13.0189 2.62178C13.5831 3.07591 14.0256 3.62244 14.3464 4.26139C14.6673 4.89505 14.8278 5.60264 14.8278 6.38416C14.8278 7.10759 14.657 7.79142 14.3154 8.43564C13.9738 9.07459 13.5158 9.64224 12.9413 10.1386C12.372 10.635 11.7354 11.0257 11.0315 11.3109C10.3329 11.596 9.62382 11.7386 8.90442 11.7386C8.62495 11.7386 8.39464 11.6858 8.2135 11.5802C8.03753 11.4746 7.94955 11.3267 7.94955 11.1366C7.94955 10.9149 8.04012 10.7221 8.22126 10.5584C8.4024 10.3894 8.64565 10.2601 8.951 10.1703C9.26153 10.0752 9.60311 10.0277 9.97575 10.0277C10.4208 10.0277 10.8194 10.1307 11.1713 10.3366C11.5284 10.5426 11.8105 10.8224 12.0175 11.1762C12.2245 11.53 12.328 11.9366 12.328 12.396C12.328 12.8713 12.2038 13.3254 11.9554 13.7584C11.7069 14.1967 11.368 14.5558 10.9384 14.8356C10.8245 14.9201 10.7288 15.0073 10.6511 15.097C10.5787 15.1921 10.5425 15.3109 10.5425 15.4535C10.5425 15.6013 10.5968 15.7281 10.7055 15.8337C10.8142 15.9446 10.9617 16 11.148 16C11.2826 16 11.4223 15.9525 11.5672 15.8574C12.1624 15.4614 12.6334 14.9518 12.9801 14.3287C13.3269 13.7109 13.5003 13.0587 13.5003 12.3723C13.5003 11.6964 13.3398 11.0917 13.0189 10.5584C12.6981 10.0198 12.2633 9.59736 11.7147 9.29109C11.1713 8.97954 10.5632 8.82376 9.89035 8.82376C9.29517 8.82376 8.7621 8.92409 8.29113 9.12475C7.82016 9.32013 7.44752 9.59472 7.17322 9.94851C6.9041 10.3023 6.76954 10.7116 6.76954 11.1762C6.76954 11.53 6.85752 11.8389 7.03348 12.103C7.21463 12.3617 7.46564 12.565 7.78652 12.7129C8.1074 12.8554 8.48003 12.9267 8.90442 12.9267C9.60829 12.9267 10.3018 12.8158 10.985 12.5941C11.6681 12.3723 12.3099 12.0607 12.9103 11.6594C13.5158 11.2528 14.0488 10.7776 14.5095 10.2337C14.9753 9.68449 15.3401 9.08515 15.6041 8.43564C15.868 7.78614 16 7.10495 16 6.39208C16 5.44686 15.8085 4.5835 15.4255 3.80198C15.0477 3.02046 14.525 2.34719 13.8574 1.78218C13.1897 1.21188 12.4186 0.773597 11.5439 0.467327C10.6744 0.155776 9.74803 0 8.76468 0C7.90555 0 7.05419 0.110891 6.21058 0.332673C5.36698 0.554455 4.56995 0.871287 3.81951 1.28317C3.07424 1.69505 2.41436 2.19142 1.83989 2.77228C1.27058 3.35314 0.820314 4.00528 0.489083 4.72871C0.163028 5.44686 0 6.22574 0 7.06535Z"
		fill="currentColor"
	/>
</svg>
