<svg
	color="rgb(var(--foreground, 0, 0, 0))"
	viewBox="0 0 18 20"
	fill="none"
	xmlns="http://www.w3.org/2000/svg"
>
	<path
		d="M9.76857 15.5608C9.65073 15.5661 9.53032 15.5713 9.40734 15.5765C9.28437 15.5818 9.16396 15.5844 9.04611 15.5844C8.26729 15.5844 7.53202 15.4926 6.84031 15.3089C6.14859 15.1253 5.53886 14.8472 5.0111 14.4746C4.48847 14.1021 4.076 13.6377 3.7737 13.0815C3.47652 12.5253 3.32793 11.8746 3.32793 11.1295C3.32793 10.9301 3.34586 10.7412 3.38173 10.5628C3.41759 10.3791 3.46627 10.2007 3.52775 10.0275C3.46114 9.93834 3.37916 9.86488 3.28181 9.80716C3.18446 9.74944 3.06661 9.70222 2.92827 9.66549C2.78992 9.62876 2.6234 9.59465 2.42869 9.56316C2.34671 9.80454 2.28266 10.0564 2.23655 10.3188C2.19044 10.5811 2.16738 10.8487 2.16738 11.1216C2.16738 12.0241 2.34159 12.827 2.69001 13.5301C3.04355 14.228 3.53032 14.8183 4.1503 15.3011C4.77541 15.7786 5.49787 16.1433 6.31768 16.3951C7.14261 16.6417 8.02903 16.7651 8.97694 16.7651C9.15115 16.7651 9.32792 16.7624 9.50726 16.7572C9.68659 16.7467 9.86593 16.7336 10.0453 16.7178L9.76857 15.5608ZM7.03245 4.85636C7.06319 5.04526 7.09394 5.21055 7.12468 5.35222C7.16055 5.4939 7.19898 5.61721 7.23997 5.72216C7.28608 5.82186 7.33988 5.90843 7.40137 5.9819C7.94449 5.76151 8.50811 5.59097 9.09223 5.47029C9.68147 5.3496 10.2681 5.28926 10.8523 5.28926C11.6567 5.28926 12.4176 5.41257 13.1349 5.65919C13.8574 5.90056 14.4953 6.24951 15.0487 6.70602C15.6072 7.15729 16.0453 7.70038 16.3629 8.3353C16.6857 8.96497 16.8471 9.66811 16.8471 10.4447C16.8471 11.1636 16.6781 11.8431 16.3399 12.4833C16.0017 13.1182 15.5482 13.6823 14.9795 14.1755C14.4159 14.6688 13.7857 15.0571 13.0888 15.3404C12.3971 15.6238 11.6951 15.7654 10.9829 15.7654C10.7062 15.7654 10.4782 15.713 10.2989 15.608C10.1196 15.5031 10.0299 15.3562 10.0299 15.1673C10.0299 14.9469 10.1196 14.7553 10.2989 14.5927C10.4833 14.4248 10.7267 14.2962 11.029 14.207C11.3313 14.1126 11.6695 14.0653 12.0436 14.0653C12.4842 14.0653 12.8787 14.1677 13.2272 14.3723C13.5807 14.5769 13.8599 14.855 14.0649 15.2066C14.2699 15.5582 14.3723 15.9622 14.3723 16.4187C14.3723 16.891 14.2494 17.3423 14.0034 17.7725C13.7575 18.2081 13.4193 18.5649 12.9889 18.843C12.8813 18.9269 12.7891 19.0135 12.7122 19.1027C12.6405 19.1972 12.6046 19.3152 12.6046 19.4569C12.6046 19.6038 12.6584 19.7298 12.766 19.8347C12.8736 19.9449 13.0171 20 13.1964 20C13.3348 20 13.4731 19.9528 13.6114 19.8583C14.2058 19.4648 14.6721 18.9584 15.0102 18.3392C15.3535 17.7253 15.5252 17.0773 15.5252 16.3951C15.5252 15.7235 15.3664 15.1227 15.0487 14.5927C14.731 14.0575 14.3032 13.6377 13.7652 13.3333C13.2272 13.0237 12.6225 12.8689 11.9513 12.8689C11.3672 12.8689 10.842 12.9686 10.3757 13.168C9.90948 13.3622 9.54056 13.6351 9.269 13.9866C8.99744 14.3382 8.86166 14.7449 8.86166 15.2066C8.86166 15.5582 8.95132 15.8651 9.13066 16.1275C9.30999 16.3846 9.5585 16.5866 9.87617 16.7336C10.1939 16.8752 10.5628 16.9461 10.9829 16.9461C11.6746 16.9461 12.3587 16.8359 13.035 16.6155C13.7165 16.3951 14.3544 16.0855 14.9488 15.6867C15.5482 15.2827 16.076 14.8104 16.532 14.27C16.988 13.7243 17.3467 13.1287 17.608 12.4833C17.8693 11.8379 18 11.161 18 10.4526C18 9.51332 17.813 8.65539 17.4389 7.87879C17.0649 7.10219 16.5474 6.43316 15.8864 5.8717C15.2254 5.305 14.462 4.86947 13.5961 4.56513C12.7353 4.25554 11.8181 4.10075 10.8446 4.10075C10.199 4.10075 9.55081 4.16634 8.90008 4.29752C8.25448 4.4287 7.63194 4.61498 7.03245 4.85636ZM5.53373 12.2708C5.71819 12.2708 5.82835 12.1711 5.86422 11.9717C5.9667 11.405 6.06661 10.9301 6.16396 10.547C6.26132 10.164 6.37916 9.84914 6.51751 9.60252C6.66097 9.3559 6.84799 9.15912 7.07857 9.0122C7.30914 8.86528 7.60632 8.74721 7.97011 8.65801C8.3339 8.5688 8.78736 8.48485 9.33049 8.40614C9.42272 8.39564 9.49701 8.35891 9.55337 8.29595C9.61486 8.23298 9.6456 8.15689 9.6456 8.06769C9.6456 7.86829 9.54056 7.75548 9.33049 7.72924C8.78736 7.65053 8.33134 7.5692 7.96243 7.48524C7.59351 7.39604 7.28864 7.27797 7.04782 7.13105C6.81213 6.98413 6.61998 6.78735 6.47139 6.54073C6.32793 6.29411 6.21008 5.97927 6.11785 5.59622C6.03074 5.21317 5.9462 4.73829 5.86422 4.17159C5.8386 3.96169 5.72844 3.85675 5.53373 3.85675C5.34927 3.85675 5.23911 3.95907 5.20325 4.16372C5.10077 4.73042 5.00085 5.2053 4.9035 5.58835C4.81127 5.9714 4.69343 6.28624 4.54996 6.53286C4.40649 6.77948 4.21947 6.97626 3.9889 7.12318C3.75833 7.2701 3.46114 7.38817 3.09735 7.47737C2.73356 7.56657 2.2801 7.65053 1.73698 7.72924C1.64475 7.73973 1.56789 7.77647 1.5064 7.83943C1.45004 7.9024 1.42186 7.97849 1.42186 8.06769C1.42186 8.15689 1.45004 8.23298 1.5064 8.29595C1.56789 8.35891 1.64475 8.39564 1.73698 8.40614C2.2801 8.48485 2.73612 8.5688 3.10504 8.65801C3.47395 8.74197 3.77626 8.85741 4.01196 9.00433C4.25278 9.15125 4.44492 9.34803 4.58839 9.59465C4.73698 9.83602 4.85483 10.1509 4.94193 10.5392C5.03416 10.9222 5.12126 11.3971 5.20325 11.9638C5.22886 12.1684 5.33903 12.2708 5.53373 12.2708ZM2.05978 6.47776C2.20837 6.47776 2.29547 6.40168 2.32109 6.24951C2.3877 5.91368 2.4415 5.65132 2.48249 5.46242C2.52348 5.26827 2.58497 5.12397 2.66695 5.02952C2.75406 4.92982 2.88984 4.85636 3.0743 4.80913C3.26388 4.75666 3.53544 4.70156 3.88898 4.64384C4.0427 4.6176 4.11956 4.5284 4.11956 4.37623C4.11956 4.22406 4.0427 4.13486 3.88898 4.10862C3.53544 4.04565 3.26388 3.98793 3.0743 3.93546C2.88984 3.88299 2.75406 3.80952 2.66695 3.71507C2.58497 3.61537 2.52348 3.4737 2.48249 3.29004C2.4415 3.10114 2.3877 2.84402 2.32109 2.51869C2.29547 2.35603 2.20837 2.2747 2.05978 2.2747C1.92143 2.2747 1.83433 2.35603 1.79846 2.51869C1.73185 2.84402 1.67549 3.10114 1.62938 3.29004C1.58839 3.4737 1.52434 3.61537 1.43723 3.71507C1.35525 3.80952 1.22203 3.88299 1.03757 3.93546C0.853117 3.98793 0.584116 4.04565 0.230572 4.10862C0.0768574 4.13486 0 4.22406 0 4.37623C0 4.5284 0.0819812 4.6176 0.245944 4.64384C0.594364 4.70156 0.860803 4.75666 1.04526 4.80913C1.22972 4.85636 1.36294 4.92982 1.44492 5.02952C1.53202 5.12397 1.59607 5.26564 1.63706 5.45455C1.67805 5.6382 1.73185 5.89532 1.79846 6.2259C1.83433 6.39381 1.92143 6.47776 2.05978 6.47776ZM4.54996 2.88076C4.64219 2.88076 4.69855 2.82828 4.71904 2.72334C4.77541 2.42424 4.82408 2.2091 4.86507 2.07792C4.90606 1.94149 4.99061 1.84704 5.1187 1.79457C5.25192 1.73685 5.47993 1.67913 5.80273 1.62141C5.90009 1.60042 5.94876 1.54008 5.94876 1.44038C5.94876 1.34068 5.90009 1.28034 5.80273 1.25935C5.47481 1.19638 5.24424 1.13866 5.11102 1.08619C4.98292 1.02847 4.89838 0.934015 4.85739 0.802834C4.8164 0.666404 4.77028 0.45389 4.71904 0.165289C4.69855 0.0550964 4.64219 0 4.54996 0C4.45773 0 4.39881 0.0550964 4.37319 0.165289C4.3117 0.45389 4.26046 0.666404 4.21947 0.802834C4.17848 0.934015 4.09394 1.02847 3.96584 1.08619C3.83775 1.13866 3.6123 1.19638 3.2895 1.25935C3.19214 1.28034 3.14347 1.34068 3.14347 1.44038C3.14347 1.54008 3.19471 1.60042 3.29718 1.62141C3.61998 1.67388 3.84287 1.72898 3.96584 1.7867C4.09394 1.83917 4.17848 1.93362 4.21947 2.07005C4.26046 2.20123 4.3117 2.41375 4.37319 2.7076C4.39881 2.82304 4.45773 2.88076 4.54996 2.88076Z"
		fill="currentColor"
	/>
</svg>
