<svg
	color="rgb(var(--foreground, 0, 0, 0))"
	viewBox="0 0 17 14"
	fill="none"
	xmlns="http://www.w3.org/2000/svg"
>
	<path
		d="M6.46543 3.34137C6.64566 3.34137 6.80204 3.27443 6.93456 3.14056C7.06708 3.00669 7.13334 2.84605 7.13334 2.65863C7.13334 2.47657 7.06708 2.31861 6.93456 2.18474C6.80204 2.05087 6.64566 1.98394 6.46543 1.98394C6.2799 1.98394 6.12087 2.05087 5.98835 2.18474C5.85583 2.31861 5.78956 2.47657 5.78956 2.65863C5.78956 2.84605 5.85583 3.00669 5.98835 3.14056C6.12087 3.27443 6.2799 3.34137 6.46543 3.34137ZM8.48507 3.34137C8.67061 3.34137 8.82963 3.27443 8.96216 3.14056C9.09468 3.00669 9.16094 2.84605 9.16094 2.65863C9.16094 2.47657 9.09468 2.31861 8.96216 2.18474C8.82963 2.05087 8.67061 1.98394 8.48507 1.98394C8.30484 1.98394 8.14847 2.05087 8.01594 2.18474C7.88342 2.31861 7.81716 2.47657 7.81716 2.65863C7.81716 2.84605 7.88342 3.00669 8.01594 3.14056C8.14847 3.27443 8.30484 3.34137 8.48507 3.34137ZM10.5286 3.34137C10.7141 3.34137 10.8731 3.27443 11.0057 3.14056C11.1382 3.00669 11.2044 2.84605 11.2044 2.65863C11.2044 2.47657 11.1382 2.31861 11.0057 2.18474C10.8731 2.05087 10.7141 1.98394 10.5286 1.98394C10.343 1.98394 10.184 2.05087 10.0515 2.18474C9.92427 2.31861 9.86066 2.47657 9.86066 2.65863C9.86066 2.84605 9.92427 3.00669 10.0515 3.14056C10.184 3.27443 10.343 3.34137 10.5286 3.34137ZM12.3892 6.92369C12.5747 6.92369 12.7337 6.85676 12.8663 6.72289C12.9988 6.58902 13.0651 6.42838 13.0651 6.24096C13.0651 6.0589 12.9988 5.90094 12.8663 5.76707C12.7337 5.6332 12.5747 5.56626 12.3892 5.56626C12.209 5.56626 12.0526 5.6332 11.9201 5.76707C11.7928 5.90094 11.7292 6.0589 11.7292 6.24096C11.7292 6.42838 11.7928 6.58902 11.9201 6.72289C12.0526 6.85676 12.209 6.92369 12.3892 6.92369ZM10.9102 8.57028C11.0958 8.57028 11.2548 8.50335 11.3873 8.36948C11.5198 8.23561 11.5861 8.07497 11.5861 7.88755C11.5861 7.70549 11.5198 7.54752 11.3873 7.41365C11.2548 7.27978 11.0958 7.21285 10.9102 7.21285C10.73 7.21285 10.5736 7.27978 10.4411 7.41365C10.3086 7.54752 10.2423 7.70549 10.2423 7.88755C10.2423 8.07497 10.3086 8.23561 10.4411 8.36948C10.5736 8.50335 10.73 8.57028 10.9102 8.57028ZM6.07581 8.57028C6.26134 8.57028 6.41772 8.50335 6.54494 8.36948C6.67747 8.23561 6.74373 8.07497 6.74373 7.88755C6.74373 7.70549 6.67747 7.54752 6.54494 7.41365C6.41772 7.27978 6.26134 7.21285 6.07581 7.21285C5.89028 7.21285 5.73125 7.27978 5.59873 7.41365C5.46621 7.54752 5.39995 7.70549 5.39995 7.88755C5.39995 8.07497 5.46621 8.23561 5.59873 8.36948C5.73125 8.50335 5.89028 8.57028 6.07581 8.57028ZM4.59686 6.92369C4.77709 6.92369 4.93347 6.85676 5.06599 6.72289C5.19851 6.58902 5.26477 6.42838 5.26477 6.24096C5.26477 6.0589 5.19851 5.90094 5.06599 5.76707C4.93347 5.6332 4.77709 5.56626 4.59686 5.56626C4.41133 5.56626 4.2523 5.6332 4.11978 5.76707C3.98726 5.90094 3.921 6.0589 3.921 6.24096C3.921 6.42838 3.98726 6.58902 4.11978 6.72289C4.2523 6.85676 4.41133 6.92369 4.59686 6.92369ZM2.56131 5.18072C3.03309 5.18072 3.46247 5.0656 3.84943 4.83534C4.2364 4.59973 4.54385 4.28648 4.77179 3.89558C5.00503 3.49933 5.12165 3.06292 5.12165 2.58635C5.12165 2.10977 5.00503 1.67604 4.77179 1.28514C4.54385 0.894244 4.2364 0.583668 3.84943 0.353414C3.46247 0.117805 3.03309 0 2.56131 0C2.08953 0 1.66016 0.117805 1.27319 0.353414C0.886228 0.583668 0.576125 0.894244 0.342885 1.28514C0.114946 1.67604 0.000976562 2.10977 0.000976562 2.58635C0.000976562 3.06292 0.114946 3.49933 0.342885 3.89558C0.576125 4.28648 0.886228 4.59973 1.27319 4.83534C1.66016 5.0656 2.08953 5.18072 2.56131 5.18072ZM2.56131 3.91968C2.19555 3.91968 1.88545 3.79116 1.631 3.53414C1.37656 3.27711 1.24934 2.96118 1.24934 2.58635C1.24934 2.21687 1.37656 1.90361 1.631 1.64659C1.88545 1.38956 2.19555 1.26104 2.56131 1.26104C2.93238 1.26104 3.24248 1.38956 3.49162 1.64659C3.74607 1.90361 3.87329 2.21687 3.87329 2.58635C3.87329 2.96118 3.74607 3.27711 3.49162 3.53414C3.24248 3.79116 2.93238 3.91968 2.56131 3.91968ZM14.4327 5.18072C14.9045 5.18072 15.3338 5.0656 15.7208 4.83534C16.1131 4.59973 16.4232 4.28648 16.6511 3.89558C16.8844 3.49933 17.001 3.06292 17.001 2.58635C17.001 2.10977 16.8844 1.67604 16.6511 1.28514C16.4232 0.894244 16.1131 0.583668 15.7208 0.353414C15.3338 0.117805 14.9045 0 14.4327 0C13.9609 0 13.5315 0.117805 13.1446 0.353414C12.7576 0.583668 12.4475 0.894244 12.2143 1.28514C11.9863 1.67604 11.8724 2.10977 11.8724 2.58635C11.8724 3.06292 11.9863 3.49933 12.2143 3.89558C12.4475 4.28648 12.7576 4.59973 13.1446 4.83534C13.5315 5.0656 13.9609 5.18072 14.4327 5.18072ZM14.4327 3.91968C14.0669 3.91968 13.7568 3.79116 13.5024 3.53414C13.2479 3.27711 13.1207 2.96118 13.1207 2.58635C13.1207 2.21687 13.2479 1.90361 13.5024 1.64659C13.7621 1.38956 14.0722 1.26104 14.4327 1.26104C14.8038 1.26104 15.1165 1.38956 15.3709 1.64659C15.6254 1.90361 15.7526 2.21687 15.7526 2.58635C15.7526 2.96118 15.6254 3.27711 15.3709 3.53414C15.1218 3.79116 14.8091 3.91968 14.4327 3.91968ZM8.50098 14C8.97276 14 9.40213 13.8822 9.7891 13.6466C10.1761 13.4163 10.4835 13.1058 10.7115 12.7149C10.9447 12.3186 11.0613 11.8822 11.0613 11.4056C11.0613 10.929 10.9447 10.4953 10.7115 10.1044C10.4835 9.71352 10.1761 9.40294 9.7891 9.17269C9.40213 8.93708 8.97276 8.81928 8.50098 8.81928C8.0292 8.81928 7.59982 8.93708 7.21286 9.17269C6.82589 9.40294 6.51579 9.71352 6.28255 10.1044C6.05461 10.4953 5.94064 10.929 5.94064 11.4056C5.94064 11.8822 6.05461 12.3186 6.28255 12.7149C6.51579 13.1058 6.82589 13.4163 7.21286 13.6466C7.59982 13.8822 8.0292 14 8.50098 14ZM8.50098 12.739C8.13521 12.739 7.82511 12.6104 7.57067 12.3534C7.31622 12.091 7.189 11.7751 7.189 11.4056C7.189 11.0308 7.31622 10.7175 7.57067 10.4659C7.82511 10.2088 8.13521 10.0803 8.50098 10.0803C8.87204 10.0803 9.18214 10.2088 9.43128 10.4659C9.68573 10.7175 9.81295 11.0308 9.81295 11.4056C9.81295 11.7751 9.68573 12.091 9.43128 12.3534C9.18214 12.6104 8.87204 12.739 8.50098 12.739Z"
		fill="currentColor"
	/>
</svg>
