<svg
	color="rgb(var(--foreground, 0, 0, 0))"
	viewBox="0 0 13 14"
	fill="none"
	xmlns="http://www.w3.org/2000/svg"
>
	<path
		d="M0.396993 1.69477H12.5973C12.7192 1.69477 12.8157 1.65784 12.8867 1.58399C12.9629 1.51014 13.001 1.40992 13.001 1.28332V0.90353C13.001 0.782207 12.9629 0.684622 12.8867 0.610773C12.8157 0.536924 12.7192 0.5 12.5973 0.5H0.396993C0.275142 0.5 0.178676 0.536924 0.107596 0.610773C0.0365165 0.684622 0.000976562 0.782207 0.000976562 0.90353V1.28332C0.000976562 1.40992 0.0365165 1.51014 0.107596 1.58399C0.178676 1.65784 0.275142 1.69477 0.396993 1.69477ZM0.595001 6.7112H12.407C12.5897 6.7112 12.7344 6.65845 12.841 6.55295C12.9477 6.44218 13.001 6.29184 13.001 6.10195V4.77267C13.001 4.5775 12.9477 4.42717 12.841 4.32167C12.7344 4.21089 12.5897 4.15551 12.407 4.15551H0.595001C0.407147 4.15551 0.25991 4.21089 0.153291 4.32167C0.0517479 4.42717 0.000976562 4.5775 0.000976562 4.77267V6.10195C0.000976562 6.29184 0.0517479 6.44218 0.153291 6.55295C0.25991 6.65845 0.407147 6.7112 0.595001 6.7112ZM0.595001 13.5H12.407C12.5897 13.5 12.7344 13.4446 12.841 13.3338C12.9477 13.2283 13.001 13.078 13.001 12.8828V9.74163C13.001 9.54646 12.9477 9.39613 12.841 9.29063C12.7344 9.17985 12.5897 9.12447 12.407 9.12447H0.595001C0.407147 9.12447 0.25991 9.17985 0.153291 9.29063C0.0517479 9.39613 0.000976562 9.54646 0.000976562 9.74163V12.8828C0.000976562 13.078 0.0517479 13.2283 0.153291 13.3338C0.25991 13.4446 0.407147 13.5 0.595001 13.5Z"
		fill="currentColor"
	/>
</svg>
