<svg
	color="rgb(var(--foreground, 0, 0, 0))"
	viewBox="0 0 15 16"
	fill="none"
	xmlns="http://www.w3.org/2000/svg"
>
	<path
		d="M0.216838 10.5881C-0.042163 11.3146 -0.0691423 11.9797 0.1359 12.5833C0.346339 13.1816 0.767216 13.6971 1.39853 14.1298C2.03524 14.5678 2.86621 14.9044 3.89142 15.1394C4.91663 15.3798 6.1199 15.5 7.50124 15.5C8.88258 15.5 10.0859 15.3798 11.1111 15.1394C12.1363 14.9044 12.9646 14.5678 13.5959 14.1298C14.2326 13.6971 14.6535 13.1816 14.8585 12.5833C15.0689 11.9797 15.0447 11.3146 14.7857 10.5881L12.9726 5.4359V2.72756C12.9726 2.3109 12.7433 1.93429 12.2847 1.59776C11.8314 1.26122 11.1947 0.994124 10.3745 0.796474C9.55437 0.598825 8.5966 0.5 7.50124 0.5C6.41128 0.5 5.45622 0.598825 4.63605 0.796474C3.81588 0.994124 3.17917 1.26122 2.72591 1.59776C2.27266 1.93429 2.04603 2.3109 2.04603 2.72756V5.40385L0.216838 10.5881ZM1.45519 10.9888L2.8716 7.02244C3.30327 7.375 3.9157 7.65545 4.70889 7.86378C5.50209 8.06677 6.43286 8.16827 7.50124 8.16827C8.20271 8.16827 8.85021 8.12286 9.44375 8.03205C10.0373 7.9359 10.5607 7.80235 11.0139 7.63141C11.4726 7.46047 11.8476 7.26015 12.139 7.03045L13.5473 10.9888C13.7739 11.6191 13.6795 12.1774 13.264 12.6635C12.8539 13.1442 12.1606 13.5208 11.1839 13.7933C10.2073 14.0657 8.97971 14.2019 7.50124 14.2019C6.02278 14.2019 4.79523 14.0657 3.81858 13.7933C2.84193 13.5208 2.14856 13.1442 1.73847 12.6635C1.32839 12.1774 1.23396 11.6191 1.45519 10.9888ZM3.34914 2.72756C3.34914 2.55662 3.5218 2.3937 3.86714 2.23878C4.21247 2.07853 4.6954 1.95032 5.31592 1.85417C5.94184 1.75801 6.67028 1.70994 7.50124 1.70994C8.33221 1.70994 9.06065 1.75801 9.68657 1.85417C10.3125 1.95032 10.7981 2.07853 11.1434 2.23878C11.4942 2.3937 11.6695 2.55662 11.6695 2.72756C11.6695 2.8985 11.4942 3.06143 11.1434 3.21635C10.7981 3.37126 10.3125 3.49947 9.68657 3.60096C9.06065 3.69712 8.33221 3.74519 7.50124 3.74519C6.67028 3.74519 5.94184 3.69712 5.31592 3.60096C4.6954 3.49947 4.21247 3.37126 3.86714 3.21635C3.5218 3.06143 3.34914 2.8985 3.34914 2.72756Z"
		fill="currentColor"
	/>
</svg>
