<svg
	color="rgb(var(--foreground, 0, 0, 0))"
	viewBox="0 0 19 20"
	fill="none"
	xmlns="http://www.w3.org/2000/svg"
>
	<path
		d="M1.45691 9.82562C1.84003 11.2164 2.46791 12.2952 3.34057 13.0622C4.21854 13.824 5.26945 14.2305 6.4933 14.2816C6.58376 14.0515 6.70082 13.8163 6.84449 13.576C6.98816 13.3357 7.1744 13.1159 7.4032 12.9165C7.58944 12.6864 7.79696 12.487 8.02577 12.3182C8.25989 12.1495 8.50998 12.0114 8.77604 11.9041C8.80796 11.6382 8.85851 11.3774 8.92769 11.1218C9.00218 10.8661 9.08732 10.6309 9.1831 10.4162C9.00218 10.5593 8.79466 10.6872 8.56053 10.7997C8.33173 10.907 8.0843 10.9965 7.81824 11.0681C7.36063 11.1806 6.90834 11.2113 6.46137 11.1601C6.01972 11.109 5.60734 10.9761 5.22423 10.7613C4.84643 10.5414 4.52983 10.2372 4.27442 9.84863C4.18396 9.70547 4.17864 9.58275 4.25845 9.48049C4.33827 9.37823 4.46597 9.33733 4.64157 9.35778C5.16303 9.41402 5.66055 9.40124 6.13413 9.31943C6.6077 9.23762 6.99614 9.15582 7.29944 9.07401C7.58146 8.99731 7.94063 8.88227 8.37696 8.72888C8.8186 8.57549 9.24429 8.35818 9.65401 8.07697C9.81364 7.96448 9.95199 7.9338 10.0691 7.98493C10.1914 8.03606 10.2526 8.14599 10.2526 8.31472C10.2473 8.45277 10.2367 8.58316 10.2207 8.70587C10.2047 8.82858 10.1781 8.94362 10.1409 9.051C10.4602 8.66241 10.8379 8.21246 11.2743 7.70116C11.7159 7.18985 12.1709 6.67599 12.6391 6.15958L11.4898 2.0717C11.3035 1.41724 10.979 0.967288 10.516 0.721863C10.0531 0.471324 9.47309 0.432976 8.77604 0.606819L1.6804 2.4245C0.983339 2.60346 0.501783 2.9128 0.235729 3.35252C-0.0303238 3.78713 -0.0702318 4.33678 0.116005 5.00147L1.45691 9.82562ZM4.21056 6.78081C3.94983 6.84728 3.77424 6.94443 3.68378 7.07225C3.59332 7.20008 3.49222 7.28189 3.38048 7.31768C3.30066 7.33813 3.22351 7.31512 3.14901 7.24865C3.07984 7.18218 3.02397 7.07992 2.9814 6.94187C2.89094 6.63509 2.93085 6.34109 3.10112 6.05987C3.27672 5.77354 3.53479 5.58947 3.87534 5.50766C4.1946 5.41563 4.50322 5.45142 4.8012 5.61504C5.1045 5.77354 5.29872 6.01386 5.38386 6.33598C5.4211 6.46892 5.42376 6.5814 5.39184 6.67344C5.36523 6.76036 5.3067 6.81405 5.21624 6.8345C5.10982 6.86006 4.98212 6.84217 4.83313 6.78081C4.68414 6.71945 4.47662 6.71945 4.21056 6.78081ZM8.59246 5.64572C8.32641 5.70707 8.14815 5.80422 8.05769 5.93716C7.96723 6.06499 7.86613 6.14424 7.75439 6.17492C7.67458 6.19025 7.59742 6.16725 7.52292 6.10589C7.44843 6.04453 7.39256 5.94739 7.35531 5.81445C7.25953 5.49744 7.29944 5.19833 7.47504 4.91711C7.65595 4.63589 7.91402 4.45438 8.24925 4.37257C8.57916 4.28565 8.89044 4.32144 9.1831 4.47994C9.48108 4.63845 9.67263 4.87876 9.75777 5.20088C9.79502 5.32871 9.79768 5.43864 9.76575 5.53067C9.73383 5.6176 9.67796 5.67128 9.59814 5.69173C9.4864 5.7173 9.35603 5.6994 9.20704 5.63805C9.05805 5.57158 8.85319 5.57413 8.59246 5.64572ZM5.43973 18.2391C5.84945 18.6379 6.32835 18.9422 6.87642 19.1518C7.42981 19.3665 8.00182 19.4816 8.59246 19.4969C9.1831 19.5174 9.75245 19.4356 10.3005 19.2515C10.8486 19.0726 11.3275 18.7888 11.7372 18.4002C12.2001 17.9554 12.5141 17.4798 12.679 16.9736C12.8493 16.4675 12.8653 15.9638 12.7269 15.4627C12.5886 14.9566 12.2986 14.4913 11.8569 14.0669C11.4579 13.6834 11.0109 13.4201 10.516 13.2769C10.0265 13.1286 9.54759 13.1005 9.07934 13.1926C8.61108 13.2795 8.212 13.484 7.8821 13.8061C7.60008 14.0822 7.41384 14.3583 7.32338 14.6344C7.23293 14.9105 7.18238 15.1764 7.17173 15.4321C7.16641 15.6877 7.14513 15.9255 7.10788 16.1453C7.07596 16.3703 6.97219 16.5672 6.7966 16.7359C6.59972 16.9302 6.41082 17.0529 6.22991 17.104C6.05431 17.1603 5.89202 17.1986 5.74303 17.2191C5.59404 17.2446 5.46633 17.306 5.35991 17.4031C5.24285 17.5105 5.18432 17.6383 5.18432 17.7866C5.18964 17.9349 5.27478 18.0857 5.43973 18.2391ZM11.9527 12.9011C12.2879 13.1261 12.5859 13.392 12.8467 13.6987C13.1127 14.0055 13.2989 14.3046 13.4054 14.5961C13.714 14.4887 13.988 14.3404 14.2275 14.1513C14.4722 13.957 14.6984 13.7192 14.9059 13.438C14.9431 13.3869 14.9804 13.3357 15.0176 13.2846C15.0549 13.2335 15.0895 13.1798 15.1214 13.1235C14.9511 12.6838 14.7143 12.2824 14.411 11.9194C14.1077 11.5513 13.7566 11.2343 13.3575 10.9684C12.9584 10.6974 12.5274 10.4878 12.0645 10.3395C11.6068 10.1912 11.1386 10.1171 10.6597 10.1171C10.6171 10.1682 10.5746 10.2219 10.532 10.2781C10.4894 10.3344 10.4469 10.3906 10.4043 10.4469C10.2021 10.7281 10.0504 11.0144 9.94933 11.3058C9.84823 11.5922 9.80034 11.8836 9.80566 12.1802C10.1196 12.1751 10.4708 12.239 10.8592 12.3719C11.253 12.4997 11.6175 12.6761 11.9527 12.9011ZM16.5741 3.72833C16.4996 3.78968 16.3665 3.90728 16.175 4.08113C15.9887 4.25497 15.7546 4.47739 15.4726 4.74838C15.1959 5.01426 14.8873 5.31848 14.5467 5.66106C14.2115 6.00363 13.8577 6.37432 13.4852 6.77314C13.1127 7.17196 12.7376 7.58867 12.3598 8.02328C11.982 8.45789 11.6175 8.90272 11.2663 9.35778C12.2028 9.47538 13.0568 9.79495 13.8284 10.3165C14.6053 10.8329 15.2119 11.5001 15.6482 12.3182C15.9675 11.8223 16.2628 11.3212 16.5341 10.815C16.8108 10.3088 17.0609 9.81284 17.2844 9.3271C17.5132 8.84136 17.7181 8.38119 17.899 7.94658C18.0799 7.51197 18.2342 7.12083 18.3619 6.77314C18.495 6.42034 18.604 6.12634 18.6892 5.89114C18.7743 5.65083 18.8328 5.48466 18.8648 5.39262C18.9872 5.06539 19.0271 4.76883 18.9845 4.50295C18.9419 4.23196 18.8408 4.00188 18.6812 3.81269C18.5216 3.62351 18.3247 3.48802 18.0906 3.40621C17.8564 3.3244 17.6063 3.30906 17.3403 3.36019C17.0796 3.40621 16.8241 3.52892 16.5741 3.72833Z"
		fill="currentColor"
	/>
</svg>
