<svg
	color="rgb(var(--foreground, 0, 0, 0))"
	viewBox="0 0 19 20"
	fill="none"
	xmlns="http://www.w3.org/2000/svg"
>
	<path
		d="M1.45054 9.81487C1.7631 10.9538 2.2399 11.8833 2.88093 12.6034C3.52726 13.3235 4.30338 13.8163 5.2093 14.0819C6.11521 14.3475 7.12444 14.3704 8.23697 14.1508C8.34822 14.1253 8.45682 14.1023 8.56278 14.0819C8.67403 14.0564 8.78528 14.0334 8.89654 14.0129L8.77734 12.7106C8.70847 12.7362 8.65019 12.7566 8.60251 12.7719C8.55483 12.7872 8.51245 12.8 8.47536 12.8102C8.43828 12.8204 8.4012 12.8306 8.36411 12.8409C6.9708 13.1932 5.77881 13.0758 4.78813 12.4885C3.79744 11.9011 3.10609 10.9027 2.71405 9.49312L1.38696 4.71284C1.3075 4.43705 1.32074 4.20468 1.4267 4.01571C1.53795 3.82675 1.73926 3.69652 2.03064 3.62502L9.06342 1.80177C9.35479 1.73027 9.59584 1.7507 9.78656 1.86305C9.97728 1.9703 10.1124 2.16693 10.1918 2.45293L11.5189 7.21789C11.609 7.54475 11.6726 7.86139 11.7096 8.16782C11.752 8.46914 11.7679 8.7577 11.7573 9.03348L13.0049 8.02227C12.9626 7.64945 12.8857 7.27152 12.7745 6.88848L11.4395 2.06989C11.254 1.41618 10.9309 0.96675 10.47 0.721607C10.0091 0.471357 9.43161 0.433053 8.7376 0.606696L1.67304 2.42229C0.979036 2.60103 0.499589 2.91002 0.234701 3.34923C-0.0301867 3.78334 -0.0699199 4.33236 0.115502 4.99628L1.45054 9.81487ZM4.50205 7.10298C4.75634 7.0468 4.955 7.04936 5.09804 7.11064C5.24638 7.16682 5.37088 7.18214 5.47154 7.15661C5.5563 7.14128 5.61193 7.09021 5.63842 7.00339C5.6702 6.91146 5.66755 6.80166 5.63047 6.67398C5.551 6.36755 5.36558 6.13518 5.0742 5.97686C4.78283 5.81853 4.4835 5.78534 4.17623 5.87727C3.84777 5.95387 3.59878 6.13007 3.42925 6.40586C3.25972 6.67653 3.21999 6.96253 3.31005 7.26386C3.35243 7.39664 3.40806 7.49623 3.47693 7.56262C3.5511 7.62391 3.62527 7.64434 3.69944 7.62391C3.80539 7.59327 3.90075 7.51666 3.98551 7.39409C4.07558 7.27152 4.24775 7.17448 4.50205 7.10298ZM8.72966 6.0075C8.98395 5.936 9.18262 5.93345 9.32565 5.99984C9.46869 6.06112 9.59319 6.079 9.69915 6.05346C9.77861 6.03303 9.83159 5.97941 9.85808 5.89259C9.88987 5.80577 9.88987 5.70107 9.85808 5.5785C9.77332 5.26696 9.58789 5.03459 9.30182 4.88137C9.01574 4.72816 8.71376 4.69241 8.3959 4.77412C8.07274 4.85584 7.82639 5.03203 7.65686 5.30271C7.48733 5.57339 7.4476 5.86195 7.53766 6.16837C7.57475 6.29605 7.62772 6.39053 7.69659 6.45182C7.77076 6.51311 7.84493 6.53609 7.9191 6.52077C8.03035 6.49012 8.12836 6.41352 8.21313 6.29095C8.30319 6.16327 8.47536 6.06878 8.72966 6.0075ZM7.94294 11.2398C8.63695 11.0559 9.19321 10.7291 9.61173 10.2592C10.0356 9.78423 10.2554 9.2301 10.2713 8.59682C10.2766 8.43339 10.221 8.3287 10.1044 8.28273C9.98788 8.23166 9.85543 8.25975 9.70709 8.367C9.31506 8.63768 8.90978 8.84707 8.49126 8.99518C8.07274 9.14328 7.72573 9.25309 7.45025 9.32459C7.16417 9.4063 6.79333 9.48546 6.33772 9.56207C5.88741 9.63868 5.41326 9.654 4.91527 9.60803C4.74574 9.5825 4.62125 9.6208 4.54178 9.72294C4.46231 9.82509 4.46761 9.94255 4.55767 10.0753C4.90732 10.6065 5.38412 10.9793 5.98807 11.1938C6.59731 11.4032 7.24893 11.4185 7.94294 11.2398ZM5.51922 18.2723C5.87946 18.6043 6.28474 18.8673 6.73505 19.0614C7.18536 19.2605 7.65421 19.3908 8.14161 19.452C8.6343 19.5184 9.12169 19.5159 9.60379 19.4444C10.0859 19.378 10.5415 19.2427 10.9706 19.0384C11.405 18.8392 11.7865 18.5711 12.1149 18.234C12.5864 17.759 12.899 17.2458 13.0526 16.6942C13.2116 16.1477 13.2089 15.6089 13.0447 15.0778C12.8857 14.5415 12.5599 14.0512 12.0672 13.6069C11.6063 13.1881 11.1189 12.9021 10.6051 12.7489C10.0965 12.5957 9.60114 12.5778 9.11904 12.6953C8.63695 12.8077 8.20783 13.0579 7.83169 13.4461C7.5668 13.7167 7.38932 13.9925 7.29926 14.2734C7.2145 14.5492 7.16682 14.8148 7.15622 15.0701C7.15093 15.3255 7.13238 15.5604 7.1006 15.7749C7.07411 15.9945 6.98934 16.1809 6.8463 16.3341C6.67148 16.5078 6.49135 16.6252 6.30593 16.6865C6.12581 16.7478 5.95363 16.8014 5.7894 16.8474C5.62517 16.8934 5.48213 16.9802 5.36028 17.1079C5.22254 17.256 5.15632 17.4347 5.16162 17.6441C5.16691 17.8535 5.28611 18.0629 5.51922 18.2723ZM7.1006 17.8893C7.03702 17.8433 6.99994 17.7948 6.98934 17.7437C6.98405 17.6926 6.99464 17.6467 7.02113 17.6058C7.05292 17.565 7.11384 17.5241 7.2039 17.4832C7.29926 17.4424 7.40522 17.3837 7.52177 17.3071C7.63832 17.2356 7.74163 17.136 7.83169 17.0083C7.98532 16.7938 8.08598 16.5716 8.13366 16.3418C8.18664 16.112 8.22372 15.8822 8.24491 15.6523C8.2661 15.4174 8.30849 15.1876 8.37206 14.9629C8.44093 14.7382 8.57072 14.5237 8.76144 14.3194C8.96806 14.0947 9.21175 13.9491 9.49253 13.8827C9.77861 13.8112 10.0753 13.8214 10.3826 13.9134C10.6898 14.0002 10.9839 14.1662 11.2646 14.4113C11.5825 14.6871 11.7891 14.9986 11.8845 15.3459C11.9798 15.6881 11.9719 16.0379 11.8606 16.3954C11.7494 16.7529 11.5428 17.0925 11.2408 17.4143C10.9865 17.6901 10.6898 17.9122 10.3508 18.0808C10.0117 18.2493 9.65412 18.3591 9.27798 18.4102C8.90183 18.4613 8.52569 18.4434 8.14955 18.3566C7.77341 18.2749 7.42376 18.1191 7.1006 17.8893ZM12.854 15.185C13.2672 15.0676 13.6407 14.8735 13.9744 14.6028C14.3135 14.3321 14.6499 13.9695 14.9837 13.515C15.328 13.04 15.6565 12.5242 15.969 11.9675C16.2869 11.4057 16.5837 10.8363 16.8592 10.2592C17.14 9.67698 17.3943 9.11519 17.6221 8.57384C17.8552 8.02737 18.0591 7.52943 18.234 7.08C18.4088 6.63057 18.5492 6.25775 18.6551 5.96153C18.7664 5.66021 18.8353 5.4687 18.8617 5.38698C19.0154 4.97841 19.0419 4.6107 18.9412 4.28384C18.8459 3.95187 18.6684 3.69396 18.4088 3.51011C18.1492 3.32114 17.8419 3.23687 17.487 3.2573C17.1373 3.27773 16.7824 3.4335 16.4221 3.72461C16.348 3.78589 16.1942 3.92634 15.9611 4.14595C15.728 4.36045 15.4393 4.63623 15.0949 4.9733C14.7506 5.30527 14.3718 5.6832 13.9585 6.10709C13.5506 6.52587 13.1294 6.97275 12.695 7.44771C12.2606 7.91757 11.8368 8.40019 11.4236 8.89559C11.0103 9.38587 10.6316 9.87105 10.2872 10.3511C9.96933 10.7954 9.73358 11.2142 9.57995 11.6075C9.43161 12.0007 9.36539 12.4016 9.38128 12.8102L10.6766 12.9251C10.6289 12.6493 10.658 12.3608 10.764 12.0595C10.8753 11.753 11.066 11.4185 11.3362 11.0559C11.6805 10.5912 12.054 10.1213 12.4566 9.64634C12.8646 9.16627 13.2804 8.69896 13.7043 8.24443C14.1281 7.78478 14.5386 7.35323 14.936 6.94977C15.3333 6.5412 15.6936 6.17859 16.0167 5.86195C16.3452 5.5402 16.6155 5.27973 16.8274 5.08055C17.0393 4.87627 17.1691 4.74859 17.2168 4.69752C17.2963 4.62091 17.3784 4.59027 17.4631 4.60559C17.5479 4.6158 17.6115 4.65921 17.6539 4.73582C17.6962 4.80732 17.6936 4.89414 17.6459 4.99628C17.6194 5.05246 17.5558 5.21845 17.4552 5.49423C17.3598 5.76491 17.23 6.1173 17.0658 6.55141C16.9016 6.98041 16.7082 7.46048 16.4857 7.99162C16.2632 8.51766 16.0167 9.06412 15.7465 9.63102C15.4817 10.1928 15.1956 10.7469 14.8883 11.2934C14.5863 11.8399 14.2658 12.3455 13.9268 12.8102C13.6672 13.1728 13.4155 13.4486 13.1718 13.6376C12.9334 13.8214 12.6818 13.9491 12.4169 14.0206L12.854 15.185ZM13.887 13.0554L14.8486 12.634C14.7532 12.2816 14.5837 11.9497 14.34 11.6381C14.0963 11.3215 13.8049 11.0457 13.4659 10.8108C13.1321 10.5758 12.7718 10.3996 12.3851 10.2822C12.0037 10.1647 11.6275 10.1213 11.2567 10.1519L11.0978 11.1785C11.3415 11.1274 11.6143 11.1504 11.9163 11.2474C12.2235 11.3394 12.5176 11.4824 12.7983 11.6764C13.0844 11.8654 13.3255 12.0824 13.5215 12.3276C13.7228 12.5676 13.8446 12.8102 13.887 13.0554Z"
		fill="currentColor"
	/>
</svg>
