<svg
	color="rgb(var(--foreground, 0, 0, 0))"
	viewBox="0 0 15 16"
	fill="none"
	xmlns="http://www.w3.org/2000/svg"
>
	<path
		d="M0.000976562 4.73862C0.000976562 4.96886 0.0690038 5.14155 0.205058 5.25667C0.341113 5.36656 0.500715 5.41627 0.683865 5.40581C0.867015 5.39011 1.03185 5.30638 1.17837 5.15463L4.65561 1.67739C4.80736 1.52564 4.88847 1.35819 4.89894 1.17504C4.91463 0.991889 4.86492 0.834903 4.7498 0.704082C4.63991 0.568027 4.46984 0.5 4.2396 0.5H0.715262C0.495482 0.5 0.320181 0.568027 0.18936 0.704082C0.0637709 0.834903 0.000976562 1.00759 0.000976562 1.22214V4.73862ZM2.02609 3.51413L11.9711 13.467L12.968 12.4859L3.02295 2.52512L2.02609 3.51413ZM15.001 11.2614C15.001 11.0311 14.9329 10.8611 14.7969 10.7512C14.6608 10.6361 14.5012 10.5863 14.3181 10.602C14.1349 10.6125 13.9675 10.691 13.8157 10.8375L10.3385 14.3148C10.192 14.4665 10.1109 14.634 10.0952 14.8171C10.0847 15.0003 10.1344 15.1599 10.2443 15.2959C10.3594 15.432 10.5321 15.5 10.7624 15.5H14.2867C14.5065 15.5 14.6792 15.432 14.8047 15.2959C14.9356 15.1599 15.001 14.9872 15.001 14.7779V11.2614ZM15.001 4.73862V1.22214C15.001 1.00759 14.9356 0.834903 14.8047 0.704082C14.6792 0.568027 14.5065 0.5 14.2867 0.5H10.7624C10.5321 0.5 10.3594 0.568027 10.2443 0.704082C10.1344 0.834903 10.0847 0.991889 10.0952 1.17504C10.1109 1.35819 10.192 1.52564 10.3385 1.67739L13.8157 5.15463C13.9675 5.30638 14.1349 5.39011 14.3181 5.40581C14.5012 5.41627 14.6608 5.36656 14.7969 5.25667C14.9329 5.14155 15.001 4.96886 15.001 4.73862ZM3.02295 13.467L12.9759 3.51413L11.979 2.52512L2.02609 12.478L3.02295 13.467ZM0.000976562 11.2614V14.7779C0.000976562 14.9872 0.0637709 15.1599 0.18936 15.2959C0.320181 15.432 0.495482 15.5 0.715262 15.5H4.2396C4.46984 15.5 4.63991 15.432 4.7498 15.2959C4.86492 15.1599 4.91463 15.0003 4.89894 14.8171C4.88847 14.634 4.80736 14.4665 4.65561 14.3148L1.17837 10.8375C1.03185 10.691 0.867015 10.6125 0.683865 10.602C0.500715 10.5863 0.341113 10.6361 0.205058 10.7512C0.0690038 10.8611 0.000976562 11.0311 0.000976562 11.2614Z"
		fill="currentColor"
	/>
</svg>
