<svg
	color="rgb(var(--foreground, 0, 0, 0))"
	viewBox="0 0 18 18"
	fill="none"
	xmlns="http://www.w3.org/2000/svg"
>
	<path
		d="M0.250718 9.56103L2.75072 11.922C2.9278 12.0882 3.11009 12.1636 3.29759 12.148C3.48509 12.1324 3.64395 12.0519 3.77416 11.9064C3.90436 11.761 3.96947 11.5766 3.96947 11.3532V9.70128H8.30541V14.0414H6.64134C6.41738 14.0414 6.23249 14.1064 6.08666 14.2362C5.94082 14.3609 5.86009 14.5167 5.84447 14.7038C5.82884 14.896 5.90436 15.0778 6.07103 15.2492L8.43822 17.7426C8.60488 17.9193 8.79499 18.005 9.00853 17.9998C9.22207 17.9946 9.40957 17.9063 9.57103 17.7348L11.9304 15.2492C12.0971 15.0778 12.1726 14.896 12.157 14.7038C12.1466 14.5167 12.0658 14.3609 11.9148 14.2362C11.7689 14.1064 11.5841 14.0414 11.3601 14.0414H9.70384V9.70128H14.032V11.3532C14.032 11.5766 14.0971 11.761 14.2273 11.9064C14.3575 12.0519 14.5163 12.1324 14.7038 12.148C14.8913 12.1636 15.0736 12.0882 15.2507 11.922L17.7429 9.56882C17.9096 9.40778 17.9955 9.22077 18.0007 9.00779C18.0059 8.79481 17.9226 8.6052 17.7507 8.43897L15.2507 6.07799C15.0736 5.91176 14.8913 5.83644 14.7038 5.85203C14.5163 5.86761 14.3575 5.94813 14.2273 6.09358C14.0971 6.23903 14.032 6.42344 14.032 6.64681V8.30651H9.70384V3.95857H11.3601C11.5841 3.95857 11.7689 3.89363 11.9148 3.76377C12.0658 3.6339 12.1466 3.47546 12.157 3.28845C12.1726 3.10144 12.0971 2.92223 11.9304 2.7508L9.56322 0.257359C9.39655 0.0807401 9.20645 -0.00497205 8.99291 0.000222629C8.78457 0.00541731 8.59707 0.0937268 8.43041 0.265151L6.07103 2.7508C5.90436 2.92223 5.82884 3.10144 5.84447 3.28845C5.86009 3.47546 5.94082 3.6339 6.08666 3.76377C6.23249 3.89363 6.41738 3.95857 6.64134 3.95857H8.30541V8.30651H3.96947V6.64681C3.96947 6.42344 3.90436 6.23903 3.77416 6.09358C3.64395 5.94813 3.48509 5.86761 3.29759 5.85203C3.11009 5.83644 2.9278 5.91176 2.75072 6.07799L0.258531 8.43118C0.0918639 8.59222 0.00592639 8.77923 0.000718061 8.99221C-0.00449027 9.20519 0.0788431 9.3948 0.250718 9.56103Z"
		fill="currentColor"
	/>
</svg>
