<svg
	color="rgb(var(--foreground, 0, 0, 0))"
	viewBox="0 0 17 16"
	fill="none"
	xmlns="http://www.w3.org/2000/svg"
>
	<path
		d="M0.244456 14.1211C0.604635 14.6111 1.04457 15.0072 1.56425 15.3096C2.08909 15.6171 2.64736 15.823 3.23909 15.9273C3.83081 16.0315 4.41481 16.0237 4.9911 15.9038C5.56738 15.7891 6.08965 15.5572 6.55788 15.2079C7.093 14.8065 7.48148 14.3426 7.72331 13.8161C7.97029 13.2949 8.06034 12.7528 7.99345 12.1898C7.9317 11.6216 7.7053 11.0743 7.31425 10.5478C6.94893 10.0474 6.53472 9.67729 6.07164 9.43751C5.60855 9.19252 5.13517 9.08566 4.6515 9.11693C4.17298 9.14821 3.72018 9.32805 3.29311 9.65644C2.99468 9.8858 2.77857 10.1334 2.64479 10.3992C2.51616 10.6599 2.42354 10.9205 2.36694 11.1811C2.31034 11.4366 2.25117 11.6711 2.18942 11.8849C2.12768 12.0986 2.0119 12.268 1.84211 12.3931C1.64658 12.539 1.4562 12.6277 1.27097 12.6589C1.08573 12.6902 0.910787 12.7137 0.746134 12.7293C0.581481 12.7449 0.427118 12.8075 0.283047 12.917C0.128684 13.0421 0.0360669 13.2115 0.00519445 13.4252C-0.0205326 13.6389 0.0592213 13.8709 0.244456 14.1211ZM1.81895 13.996C1.7675 13.9439 1.74177 13.8917 1.74177 13.8396C1.74177 13.7875 1.75978 13.7432 1.7958 13.7067C1.83182 13.6754 1.89613 13.6441 1.98875 13.6128C2.08651 13.5868 2.19714 13.5477 2.32063 13.4956C2.44412 13.4382 2.55989 13.3522 2.66794 13.2375C2.85833 13.0499 2.99468 12.8466 3.07701 12.6277C3.16448 12.4035 3.23909 12.1768 3.30083 11.9474C3.36258 11.718 3.4449 11.4965 3.54781 11.2828C3.65072 11.0639 3.81023 10.871 4.02633 10.7042C4.26817 10.5113 4.53058 10.4045 4.81358 10.3836C5.09658 10.3628 5.37701 10.4227 5.65486 10.5634C5.93271 10.7042 6.18484 10.9205 6.41123 11.2124C6.66336 11.546 6.80486 11.8953 6.83573 12.2602C6.87175 12.6198 6.80486 12.9717 6.63506 13.3157C6.46526 13.6545 6.20799 13.9595 5.86325 14.2305C5.56996 14.4651 5.2458 14.6371 4.89076 14.7466C4.54087 14.8613 4.1807 14.9108 3.81023 14.8952C3.43976 14.8795 3.08215 14.7987 2.73741 14.6528C2.39267 14.5068 2.08651 14.2879 1.81895 13.996ZM7.79278 12.2602C8.20955 12.2132 8.60318 12.0829 8.97365 11.8692C9.34412 11.6555 9.72488 11.3479 10.1159 10.9466C10.5276 10.5296 10.9675 10.0422 11.4357 9.48443C11.904 8.92667 12.3748 8.34025 12.8481 7.72515C13.3267 7.10485 13.782 6.49497 14.2142 5.89551C14.6516 5.29606 15.0478 4.74612 15.4028 4.24571C15.7579 3.74008 16.0486 3.32046 16.275 2.98685C16.5065 2.65324 16.6506 2.44734 16.7072 2.36915C16.9027 2.09809 17.0005 1.82182 17.0005 1.54034C17.0005 1.25886 16.931 1.00344 16.7921 0.774079C16.6532 0.53951 16.4679 0.351854 16.2364 0.211113C16.01 0.0703708 15.7579 0 15.48 0C15.2022 0 14.9269 0.0964341 14.6542 0.289302C14.577 0.346642 14.3738 0.48999 14.0444 0.719346C13.7151 0.948703 13.3009 1.24322 12.8018 1.60289C12.3079 1.96256 11.765 2.36394 11.1733 2.80701C10.5816 3.24488 9.97958 3.7062 9.36727 4.19097C8.76011 4.67054 8.18126 5.1475 7.6307 5.62185C7.08014 6.0962 6.59904 6.54449 6.18741 6.96671C5.8015 7.36287 5.5005 7.74601 5.28439 8.1161C5.07343 8.4862 4.94222 8.87715 4.89076 9.28895L6.10251 9.62517C6.1128 9.33847 6.19513 9.05177 6.34949 8.76508C6.50385 8.47838 6.74054 8.17605 7.05956 7.85808C7.47119 7.44628 7.94714 7.01102 8.48741 6.55231C9.02768 6.08838 9.59624 5.62185 10.1931 5.15271C10.79 4.68357 11.374 4.23528 11.9451 3.80784C12.5214 3.37519 13.0488 2.98685 13.5273 2.64282C14.0059 2.29357 14.3969 2.00948 14.7005 1.79055C15.0092 1.57162 15.1919 1.4413 15.2485 1.3996C15.3359 1.33183 15.4183 1.31359 15.4955 1.34486C15.5778 1.37093 15.6318 1.42566 15.6575 1.50906C15.6884 1.59247 15.6704 1.68108 15.6035 1.77491C15.5726 1.82704 15.4491 2.00948 15.233 2.32224C15.0221 2.62978 14.7442 3.02595 14.3995 3.51072C14.0599 3.9955 13.6766 4.5298 13.2495 5.11361C12.8224 5.69743 12.3748 6.29167 11.9065 6.89634C11.4434 7.50101 10.9829 8.07961 10.525 8.63216C10.067 9.17948 9.63741 9.65644 9.23606 10.063C8.92219 10.381 8.63405 10.613 8.37164 10.7589C8.11436 10.9049 7.85195 10.9935 7.58439 11.0248L7.79278 12.2602ZM9.15888 10.2976L10.1468 10.0396C10.1211 9.66947 10.0182 9.3072 9.83808 8.95273C9.66313 8.59306 9.43416 8.26727 9.15117 7.97536C8.86817 7.68345 8.5543 7.44628 8.20955 7.26383C7.86481 7.07618 7.50978 6.96671 7.14445 6.93544L6.81258 7.93627C7.05956 7.93105 7.3194 8.00142 7.59211 8.14738C7.86481 8.29333 8.11951 8.4862 8.3562 8.72598C8.59289 8.96577 8.78584 9.2264 8.93506 9.50788C9.08428 9.78415 9.15888 10.0474 9.15888 10.2976Z"
		fill="currentColor"
	/>
</svg>
