<svg
	color="rgb(var(--foreground, 0, 0, 0))"
	viewBox="0 0 17 16"
	fill="none"
	xmlns="http://www.w3.org/2000/svg"
>
	<path
		d="M0.178813 14.0661C0.502357 14.5431 0.909396 14.938 1.39993 15.2508C1.89568 15.5635 2.42796 15.7782 2.99678 15.8948C3.56559 16.0168 4.12918 16.0327 4.68755 15.9426C5.25115 15.8524 5.76255 15.6457 6.22178 15.3224C6.75406 14.946 7.14544 14.5113 7.39593 14.0184C7.64641 13.5307 7.75078 13.0191 7.70904 12.4838C7.66729 11.9484 7.46899 11.4262 7.11413 10.9174C6.80103 10.4562 6.42008 10.109 5.97129 9.87575C5.5225 9.64252 5.06328 9.5312 4.59362 9.5418C4.12396 9.5524 3.70127 9.69287 3.32554 9.96322C3.00199 10.1965 2.77238 10.4456 2.6367 10.7106C2.50102 10.9757 2.40448 11.2381 2.34708 11.4978C2.29489 11.7575 2.23227 11.9987 2.15921 12.2214C2.08616 12.4387 1.95048 12.6189 1.75218 12.7621C1.52778 12.9264 1.32426 13.0191 1.14162 13.0403C0.964189 13.0616 0.802417 13.0722 0.656301 13.0722C0.510184 13.0722 0.371895 13.1172 0.241434 13.2073C0.116191 13.2868 0.0379144 13.4008 0.00660365 13.5492C-0.0194886 13.6977 0.0379144 13.8699 0.178813 14.0661ZM7.41158 9.74058C7.6986 10.0321 7.94126 10.3581 8.13956 10.7186C8.33786 11.0737 8.4631 11.4077 8.51529 11.7204C8.83361 11.6674 9.12584 11.5641 9.39199 11.4103C9.65813 11.2566 9.92427 11.0446 10.1904 10.7742C10.2322 10.7318 10.2739 10.6894 10.3157 10.647C10.3574 10.6046 10.3965 10.5596 10.4331 10.5119C10.3496 10.0348 10.193 9.58421 9.96341 9.16014C9.7338 8.73077 9.44939 8.34646 9.11019 8.00721C8.77621 7.66266 8.40048 7.37641 7.983 7.14848C7.56553 6.92054 7.12457 6.76152 6.66013 6.6714C6.61316 6.71381 6.5662 6.75621 6.51923 6.79862C6.47748 6.84103 6.43573 6.88343 6.39399 6.92584C6.12784 7.19618 5.91911 7.46918 5.76777 7.74482C5.62166 8.02046 5.5225 8.31466 5.47032 8.62741C5.77821 8.68042 6.10697 8.80764 6.45661 9.00907C6.81146 9.2052 7.12979 9.44904 7.41158 9.74058ZM14.7931 0.286551C14.7252 0.334258 14.5583 0.453527 14.2921 0.644357C14.026 0.835187 13.6894 1.07637 13.2823 1.36792C12.8805 1.65947 12.4317 1.99077 11.936 2.36183C11.4402 2.72758 10.9262 3.11719 10.3939 3.53066C9.86165 3.93882 9.33719 4.35494 8.82057 4.779C8.30394 5.19777 7.82123 5.60593 7.37245 6.0035C8.25958 6.28974 9.0293 6.76417 9.68161 7.42677C10.3391 8.08937 10.8088 8.87655 11.0906 9.78829C11.4872 9.33242 11.8916 8.84209 12.3039 8.31731C12.7214 7.79253 13.131 7.26244 13.5328 6.72706C13.9399 6.18638 14.3234 5.66424 14.6835 5.16066C15.0488 4.65709 15.3749 4.19856 15.662 3.7851C15.949 3.37163 16.1838 3.02973 16.3664 2.75939C16.5543 2.48905 16.6743 2.31942 16.7265 2.25051C16.9092 1.99077 17.0005 1.72838 17.0005 1.46334C17.0005 1.19299 16.9353 0.946504 16.8048 0.723869C16.6743 0.501234 16.4969 0.323656 16.2725 0.191136C16.0533 0.058615 15.8133 -0.00499501 15.5524 0.000305817C15.2967 0.00560665 15.0436 0.101022 14.7931 0.286551Z"
		fill="currentColor"
	/>
</svg>
