<svg
	color="rgb(var(--foreground, 0, 0, 0))"
	viewBox="0 0 19 16"
	fill="none"
	xmlns="http://www.w3.org/2000/svg"
>
	<path
		d="M10.2064 16C11.3158 16 12.2833 15.8749 13.1088 15.6246C13.9396 15.3796 14.5863 15.0361 15.0491 14.5941C15.5118 14.1521 15.7431 13.6382 15.7431 13.0524C15.7431 12.6583 15.6748 12.3308 15.5381 12.0699C15.4066 11.809 15.2541 11.5826 15.0806 11.3909C14.9071 11.1939 14.752 11.0048 14.6153 10.8238C14.4838 10.6374 14.4181 10.4297 14.4181 10.2007C14.4181 9.98769 14.5285 9.79597 14.7493 9.62556C14.9702 9.44983 15.2541 9.27675 15.6012 9.10634C15.9482 8.93593 16.3162 8.74954 16.7053 8.54718C17.0944 8.33949 17.4625 8.09452 17.8095 7.81228C18.1618 7.53004 18.4484 7.19188 18.6692 6.7978C18.8901 6.40373 19.0005 5.93243 19.0005 5.38392C19.0005 4.57447 18.8033 3.83957 18.409 3.17923C18.0146 2.51889 17.4546 1.95174 16.729 1.47778C16.0087 1.00383 15.1437 0.639041 14.1342 0.383425C13.1299 0.127808 12.0152 0 10.79 0C9.18106 0 7.71406 0.194375 6.38903 0.583125C5.06926 0.971876 3.93089 1.52571 2.97392 2.24463C2.02221 2.95823 1.28871 3.81561 0.773423 4.81677C0.258133 5.81261 0.000488281 6.92029 0.000488281 8.13979C0.000488281 9.31137 0.244988 10.3791 0.733988 11.343C1.22299 12.3069 1.91968 13.1376 2.82407 13.8352C3.72845 14.5275 4.80373 15.0601 6.04989 15.4329C7.3013 15.8109 8.6868 16 10.2064 16ZM10.2064 14.634C8.87083 14.634 7.65885 14.477 6.57043 14.1628C5.48727 13.8539 4.55397 13.4145 3.77052 12.8447C2.99232 12.2696 2.39291 11.5853 1.97226 10.7918C1.55687 9.99301 1.34918 9.109 1.34918 8.13979C1.34918 7.12265 1.57002 6.1987 2.0117 5.36795C2.45863 4.53719 3.09749 3.8236 3.92826 3.22716C4.75903 2.63072 5.75281 2.17274 6.90958 1.85322C8.07161 1.52837 9.36509 1.36595 10.79 1.36595C12.1729 1.36595 13.377 1.53636 14.4023 1.87718C15.4329 2.21268 16.2321 2.68131 16.8 3.28308C17.3679 3.88484 17.6518 4.58512 17.6518 5.38392C17.6518 5.84723 17.5387 6.23598 17.3127 6.55017C17.0918 6.85904 16.8052 7.12265 16.453 7.34099C16.1059 7.55933 15.7352 7.75903 15.3409 7.94009C14.9518 8.11583 14.5811 8.30221 14.2288 8.49925C13.8765 8.69629 13.5899 8.9306 13.3691 9.2022C13.1483 9.46846 13.0378 9.80396 13.0378 10.2087C13.0378 10.5495 13.1062 10.8424 13.2429 11.0874C13.3796 11.327 13.5374 11.5453 13.7161 11.7424C13.8949 11.9341 14.0527 12.1258 14.1894 12.3175C14.3261 12.5039 14.3944 12.7143 14.3944 12.9486C14.3944 13.4598 14.0132 13.8672 13.2508 14.1707C12.4884 14.4796 11.4736 14.634 10.2064 14.634ZM9.55964 12.7489C9.95925 12.7489 10.3247 12.6504 10.6559 12.4533C10.9872 12.251 11.2501 11.982 11.4447 11.6465C11.6445 11.311 11.7444 10.9383 11.7444 10.5282C11.7444 10.1288 11.6445 9.76136 11.4447 9.42586C11.2501 9.09036 10.9872 8.8241 10.6559 8.62706C10.3247 8.4247 9.95925 8.32351 9.55964 8.32351C9.16003 8.32351 8.79459 8.4247 8.46334 8.62706C8.13208 8.8241 7.86655 9.09036 7.66674 9.42586C7.47219 9.76136 7.37492 10.1288 7.37492 10.5282C7.37492 10.9383 7.47219 11.311 7.66674 11.6465C7.86655 11.982 8.13208 12.251 8.46334 12.4533C8.79459 12.6504 9.16003 12.7489 9.55964 12.7489ZM9.55964 11.8223C9.32303 11.8223 9.10745 11.7664 8.9129 11.6545C8.72361 11.5374 8.57113 11.3803 8.45545 11.1832C8.34503 10.9862 8.28982 10.7678 8.28982 10.5282C8.28982 10.2673 8.34766 10.0436 8.46334 9.85721C8.58427 9.6655 8.73938 9.51905 8.92867 9.41787C9.11796 9.31137 9.32303 9.25811 9.54387 9.25811C9.76471 9.25279 9.9724 9.30072 10.1669 9.4019C10.3668 9.50308 10.5271 9.64953 10.6481 9.84124C10.769 10.0276 10.8295 10.2566 10.8295 10.5282C10.8295 10.7678 10.7716 10.9862 10.6559 11.1832C10.5455 11.3803 10.393 11.5374 10.1985 11.6545C10.0092 11.7664 9.79625 11.8223 9.55964 11.8223ZM3.98347 9.23415C4.34627 9.23415 4.65387 9.10368 4.90626 8.84274C5.1639 8.57647 5.29273 8.25961 5.29273 7.89216C5.29273 7.52471 5.1639 7.21318 4.90626 6.95756C4.65387 6.69662 4.34627 6.56615 3.98347 6.56615C3.62592 6.56615 3.31832 6.69662 3.06068 6.95756C2.80303 7.21318 2.67421 7.52471 2.67421 7.89216C2.67421 8.25961 2.80303 8.57647 3.06068 8.84274C3.31832 9.10368 3.62592 9.23415 3.98347 9.23415ZM6.86226 6.67798C7.31971 6.67798 7.7088 6.51556 8.02955 6.19071C8.35555 5.86587 8.51855 5.46647 8.51855 4.99251C8.51855 4.53453 8.35555 4.14578 8.02955 3.82626C7.7088 3.50141 7.31971 3.33899 6.86226 3.33899C6.39955 3.33899 6.00519 3.50141 5.67919 3.82626C5.35845 4.14578 5.19808 4.53453 5.19808 4.99251C5.19808 5.46647 5.35845 5.86587 5.67919 6.19071C6.00519 6.51556 6.39955 6.67798 6.86226 6.67798ZM10.861 5.38392C11.2291 5.38392 11.5419 5.25345 11.7996 4.99251C12.0572 4.72624 12.186 4.40672 12.186 4.03395C12.186 3.66117 12.0572 3.34432 11.7996 3.08337C11.5419 2.82243 11.2291 2.69196 10.861 2.69196C10.4982 2.69196 10.1854 2.8251 9.92245 3.09136C9.65954 3.3523 9.52809 3.6665 9.52809 4.03395C9.52809 4.40672 9.65954 4.72624 9.92245 4.99251C10.1854 5.25345 10.4982 5.38392 10.861 5.38392ZM14.4654 5.89516C14.7599 5.89516 15.0096 5.78865 15.2147 5.57564C15.425 5.36262 15.5302 5.10434 15.5302 4.8008C15.5302 4.50258 15.425 4.24696 15.2147 4.03395C15.0096 3.82094 14.7599 3.71443 14.4654 3.71443C14.1657 3.71443 13.9081 3.82094 13.6925 4.03395C13.4822 4.24696 13.377 4.50258 13.377 4.8008C13.377 5.10434 13.4822 5.36262 13.6925 5.57564C13.9081 5.78865 14.1657 5.89516 14.4654 5.89516Z"
		fill="currentColor"
	/>
</svg>
