<svg
	color="rgb(var(--foreground, 0, 0, 0))"
	viewBox="0 0 19 16"
	fill="none"
	xmlns="http://www.w3.org/2000/svg"
>
	<path
		d="M10.2064 16C11.3158 16 12.2833 15.8749 13.1088 15.6246C13.9396 15.3796 14.5863 15.0361 15.0491 14.5941C15.5118 14.1521 15.7431 13.6382 15.7431 13.0524C15.7431 12.6583 15.6748 12.3308 15.5381 12.0699C15.4066 11.809 15.2541 11.5826 15.0806 11.3909C14.9071 11.1939 14.752 11.0048 14.6153 10.8238C14.4838 10.6374 14.4181 10.4297 14.4181 10.2007C14.4181 9.98769 14.5285 9.79597 14.7493 9.62556C14.9702 9.44983 15.2541 9.27675 15.6012 9.10634C15.9482 8.93593 16.3162 8.74954 16.7053 8.54718C17.0944 8.33949 17.4625 8.09452 17.8095 7.81228C18.1618 7.53004 18.4484 7.19188 18.6692 6.7978C18.8901 6.40373 19.0005 5.93243 19.0005 5.38392C19.0005 4.57447 18.8033 3.83957 18.409 3.17923C18.0146 2.51889 17.4546 1.95174 16.729 1.47778C16.0087 1.00383 15.1437 0.639041 14.1342 0.383425C13.1299 0.127808 12.0152 0 10.79 0C9.18106 0 7.71406 0.194375 6.38903 0.583125C5.06926 0.971876 3.93089 1.52571 2.97392 2.24463C2.02221 2.95823 1.28871 3.81561 0.773423 4.81677C0.258133 5.81261 0.000488281 6.92029 0.000488281 8.13979C0.000488281 9.31137 0.244988 10.3791 0.733988 11.343C1.22299 12.3069 1.91968 13.1376 2.82407 13.8352C3.72845 14.5275 4.80373 15.0601 6.04989 15.4329C7.3013 15.8109 8.6868 16 10.2064 16ZM10.0329 12.9486C9.64903 12.9486 9.29937 12.8527 8.98388 12.661C8.6684 12.4693 8.41338 12.2137 8.21884 11.8942C8.02955 11.5693 7.9349 11.2125 7.9349 10.8238C7.9349 10.435 8.02955 10.0809 8.21884 9.76136C8.41338 9.43651 8.6684 9.17823 8.98388 8.98652C9.29937 8.79481 9.64903 8.69895 10.0329 8.69895C10.422 8.69895 10.7743 8.79481 11.0897 8.98652C11.4105 9.17823 11.6655 9.43651 11.8548 9.76136C12.0441 10.0809 12.1387 10.435 12.1387 10.8238C12.1387 11.2125 12.0441 11.5693 11.8548 11.8942C11.6655 12.2137 11.4105 12.4693 11.0897 12.661C10.7743 12.8527 10.422 12.9486 10.0329 12.9486ZM3.73108 9.11433C3.37353 9.11433 3.06331 8.98386 2.80041 8.72292C2.54276 8.45665 2.41394 8.13979 2.41394 7.77234C2.41394 7.42087 2.54539 7.11466 2.80829 6.85372C3.07645 6.58745 3.38405 6.45432 3.73108 6.45432C4.09389 6.45432 4.40148 6.58213 4.65387 6.83774C4.91152 7.09336 5.04034 7.40489 5.04034 7.77234C5.04034 8.13979 4.91152 8.45665 4.65387 8.72292C4.40148 8.98386 4.09389 9.11433 3.73108 9.11433ZM6.75972 6.28657C6.29701 6.28657 5.90266 6.12681 5.57666 5.80729C5.25066 5.48244 5.08766 5.08304 5.08766 4.60909C5.08766 4.15111 5.25066 3.76236 5.57666 3.44284C5.90266 3.11799 6.29701 2.95557 6.75972 2.95557C7.21192 2.95557 7.59838 3.11799 7.91913 3.44284C8.24513 3.76236 8.40813 4.15111 8.40813 4.60909C8.40813 5.08304 8.24513 5.48244 7.91913 5.80729C7.59838 6.12681 7.21192 6.28657 6.75972 6.28657ZM10.9635 5.02446C10.6007 5.02446 10.2853 4.89399 10.0171 4.63305C9.75419 4.37211 9.62274 4.05525 9.62274 3.68248C9.62274 3.3097 9.75419 2.99284 10.0171 2.7319C10.2853 2.47096 10.6007 2.34049 10.9635 2.34049C11.3316 2.34049 11.6445 2.47096 11.9021 2.7319C12.1598 2.99284 12.2886 3.3097 12.2886 3.68248C12.2886 4.05525 12.1598 4.37211 11.9021 4.63305C11.6445 4.89399 11.3316 5.02446 10.9635 5.02446ZM14.6784 5.72741C14.3787 5.72741 14.121 5.62356 13.9054 5.41588C13.6951 5.20286 13.5899 4.94458 13.5899 4.64104C13.5899 4.33749 13.6951 4.07921 13.9054 3.8662C14.121 3.65319 14.3787 3.54668 14.6784 3.54668C14.9728 3.54668 15.2226 3.65319 15.4276 3.8662C15.638 4.07921 15.7431 4.33749 15.7431 4.64104C15.7431 4.94458 15.638 5.20286 15.4276 5.41588C15.2226 5.62356 14.9728 5.72741 14.6784 5.72741Z"
		fill="currentColor"
	/>
</svg>
