<svg
	color="rgb(var(--foreground, 0, 0, 0))"
	viewBox="0 0 14 18"
	fill="none"
	xmlns="http://www.w3.org/2000/svg"
>
	<path
		d="M0.000976562 2.06174H2.00898V0.910067C2.00898 0.620134 1.93698 0.397315 1.79298 0.241611C1.65431 0.0805369 1.45431 0 1.19298 0H0.800977C0.544977 0 0.347643 0.0805369 0.208977 0.241611C0.0703099 0.402685 0.000976562 0.625503 0.000976562 0.910067V2.06174ZM0.000976562 16.0188L0.728977 17.8228C0.771643 17.9195 0.848977 17.9678 0.960977 17.9678C1.07298 17.9732 1.15031 17.9275 1.19298 17.8309L2.00898 16.0188V3.00403H0.000976562V16.0188ZM8.07298 18H12.041C12.6223 18 13.0943 17.8174 13.457 17.4523C13.8196 17.0872 14.001 16.6121 14.001 16.0268V2.10201C14.001 1.51678 13.8196 1.03893 13.457 0.668456C13.0943 0.297987 12.6223 0.112752 12.041 0.112752H8.07298C7.49164 0.112752 7.01964 0.297987 6.65698 0.668456C6.29964 1.03356 6.12098 1.50872 6.12098 2.09396V16.0188C6.12098 16.6094 6.29964 17.0872 6.65698 17.4523C7.01964 17.8174 7.49164 18 8.07298 18ZM8.28898 16.8242C7.98498 16.8242 7.74231 16.7329 7.56098 16.5503C7.37964 16.3732 7.28898 16.1369 7.28898 15.8416V2.27919C7.28898 1.98389 7.37964 1.74765 7.56098 1.57047C7.74231 1.38792 7.98498 1.29664 8.28898 1.29664H11.833C12.1316 1.29664 12.3716 1.38792 12.553 1.57047C12.7343 1.74765 12.825 1.98389 12.825 2.27919V15.8336C12.825 16.1289 12.7343 16.3678 12.553 16.5503C12.3716 16.7329 12.1316 16.8242 11.833 16.8242H8.28898ZM13.241 2.91544V2.30336H9.41698C9.33698 2.30336 9.26764 2.33289 9.20898 2.39195C9.15031 2.44564 9.12098 2.51812 9.12098 2.6094C9.12098 2.68993 9.14764 2.76242 9.20098 2.82685C9.25964 2.88591 9.32898 2.91544 9.40898 2.91544H13.241ZM13.241 4.19597V3.6H10.689C10.6036 3.6 10.5343 3.62953 10.481 3.68859C10.4276 3.74228 10.401 3.81477 10.401 3.90604C10.401 3.98658 10.425 4.05638 10.473 4.11544C10.5263 4.16913 10.5956 4.19597 10.681 4.19597H13.241ZM13.241 5.49262V4.89664H10.689C10.6036 4.89664 10.5343 4.92617 10.481 4.98523C10.4276 5.03893 10.401 5.11141 10.401 5.20268C10.401 5.28322 10.425 5.35302 10.473 5.41208C10.5263 5.46577 10.5956 5.49262 10.681 5.49262H13.241ZM13.241 6.78121V6.17718H10.689C10.6036 6.17718 10.5343 6.20671 10.481 6.26577C10.4276 6.31946 10.401 6.38926 10.401 6.47517C10.401 6.56107 10.425 6.63356 10.473 6.69262C10.5263 6.75168 10.5956 6.78121 10.681 6.78121H13.241ZM13.241 8.0698V7.46577H10.689C10.6036 7.46577 10.5343 7.4953 10.481 7.55436C10.4276 7.60805 10.401 7.68322 10.401 7.77987C10.401 7.85503 10.425 7.92215 10.473 7.98121C10.5263 8.04027 10.5956 8.0698 10.681 8.0698H13.241ZM13.241 9.35034V8.76242H9.41698C9.33698 8.76242 9.26764 8.78926 9.20898 8.84295C9.15031 8.89664 9.12098 8.96913 9.12098 9.0604C9.12098 9.14631 9.14764 9.21611 9.20098 9.2698C9.25964 9.32349 9.32898 9.35034 9.40898 9.35034H13.241ZM13.241 10.655V10.051H10.689C10.6036 10.051 10.5343 10.0805 10.481 10.1396C10.4276 10.1933 10.401 10.2631 10.401 10.349C10.401 10.4349 10.425 10.5074 10.473 10.5664C10.5263 10.6255 10.5956 10.655 10.681 10.655H13.241ZM13.241 11.9436V11.3477H10.689C10.6036 11.3477 10.5343 11.3745 10.481 11.4282C10.4276 11.4819 10.401 11.5544 10.401 11.6456C10.401 11.7262 10.425 11.796 10.473 11.855C10.5263 11.9141 10.5956 11.9436 10.681 11.9436H13.241ZM13.241 13.2242V12.6282H10.689C10.6036 12.6282 10.5343 12.6577 10.481 12.7168C10.4276 12.7705 10.401 12.8403 10.401 12.9262C10.401 13.0067 10.425 13.0765 10.473 13.1356C10.5263 13.1946 10.5956 13.2242 10.681 13.2242H13.241ZM13.241 14.5128V13.9168H10.689C10.6036 13.9168 10.5343 13.9436 10.481 13.9973C10.4276 14.051 10.401 14.1208 10.401 14.2067C10.401 14.298 10.425 14.3732 10.473 14.4322C10.5263 14.4859 10.5956 14.5128 10.681 14.5128H13.241ZM13.241 15.8013V15.1973H9.41698C9.33698 15.1973 9.26764 15.2242 9.20898 15.2779C9.15031 15.3369 9.12098 15.4121 9.12098 15.5034C9.12098 15.5839 9.14764 15.6537 9.20098 15.7128C9.25964 15.7718 9.32898 15.8013 9.40898 15.8013H13.241Z"
		fill="currentColor"
	/>
</svg>
