<svg
	color="rgb(var(--foreground, 0, 0, 0))"
	viewBox="0 0 14 18"
	fill="none"
	xmlns="http://www.w3.org/2000/svg"
>
	<path
		d="M0.000976562 2.06082H2.03219V0.90966C2.03219 0.619857 1.95936 0.397138 1.81369 0.241503C1.67342 0.0805009 1.47111 0 1.20676 0H0.810225C0.551266 0 0.351651 0.0805009 0.211381 0.241503C0.0711114 0.402504 0.000976562 0.625224 0.000976562 0.90966V2.06082ZM0.000976562 16.0116L0.737393 17.8148C0.780553 17.9114 0.85878 17.9597 0.972075 17.9597C1.08537 17.9651 1.1636 17.9195 1.20676 17.8229L2.03219 16.0116V3.00268H0.000976562V16.0116ZM8.00444 18H12.0183C12.6064 18 13.0838 17.8175 13.4507 17.4526C13.8175 17.0877 14.001 16.61 14.001 16.0197V2.10107C14.001 1.5161 13.8175 1.03846 13.4507 0.668157C13.0838 0.297853 12.6064 0.112701 12.0183 0.112701H8.00444C7.41639 0.112701 6.93893 0.297853 6.57207 0.668157C6.21061 1.03846 6.02988 1.51878 6.02988 2.10912V16.0197C6.02988 16.61 6.21061 17.0877 6.57207 17.4526C6.93893 17.8175 7.41639 18 8.00444 18ZM12.779 2.30233H9.37208C9.28576 2.30233 9.21292 2.27549 9.15358 2.22182C9.09423 2.16279 9.06456 2.08766 9.06456 1.99642C9.06456 1.91592 9.09154 1.84884 9.14548 1.79517C9.20483 1.73614 9.27766 1.70662 9.36398 1.70662H12.779V2.30233ZM12.779 3.71109H10.6507C10.5644 3.71109 10.4942 3.68426 10.4403 3.63059C10.3863 3.57692 10.3594 3.50447 10.3594 3.41324C10.3594 3.32737 10.3836 3.2576 10.4322 3.20394C10.4861 3.1449 10.5563 3.11538 10.6426 3.11538H12.779V3.71109ZM12.779 5.12791H10.6507C10.5644 5.12791 10.4942 5.10107 10.4403 5.04741C10.3863 4.98837 10.3594 4.91592 10.3594 4.83005C10.3594 4.74419 10.3836 4.67442 10.4322 4.62075C10.4861 4.56172 10.5563 4.5322 10.6426 4.5322H12.779V5.12791ZM12.779 6.53667H10.6507C10.5644 6.53667 10.4942 6.50984 10.4403 6.45617C10.3863 6.4025 10.3594 6.33005 10.3594 6.23882C10.3594 6.15295 10.3836 6.0805 10.4322 6.02147C10.4861 5.96243 10.5563 5.93292 10.6426 5.93292H12.779V6.53667ZM12.779 7.94544H10.6507C10.5644 7.94544 10.4942 7.92129 10.4403 7.87299C10.3863 7.81932 10.3594 7.74687 10.3594 7.65564C10.3594 7.57513 10.3836 7.50537 10.4322 7.44633C10.4861 7.38193 10.5563 7.34973 10.6426 7.34973H12.779V7.94544ZM12.779 9.36225H9.37208C9.28576 9.36225 9.21292 9.33542 9.15358 9.28175C9.09423 9.22809 9.06456 9.15564 9.06456 9.0644C9.06456 8.9839 9.09154 8.91413 9.14548 8.8551C9.20483 8.7907 9.27766 8.7585 9.36398 8.7585H12.779V9.36225ZM12.779 10.7791H10.6507C10.5644 10.7791 10.4942 10.7522 10.4403 10.6986C10.3863 10.6395 10.3594 10.5671 10.3594 10.4812C10.3594 10.3953 10.3836 10.3229 10.4322 10.2639C10.4861 10.2048 10.5563 10.1753 10.6426 10.1753H12.779V10.7791ZM12.779 12.1959H10.6507C10.5644 12.1959 10.4942 12.1691 10.4403 12.1154C10.3863 12.0564 10.3594 11.9812 10.3594 11.89C10.3594 11.8095 10.3836 11.7424 10.4322 11.6887C10.4861 11.6297 10.5563 11.6002 10.6426 11.6002H12.779V12.1959ZM12.779 13.5966H10.6507C10.5644 13.5966 10.4942 13.5698 10.4403 13.5161C10.3863 13.4624 10.3594 13.39 10.3594 13.2987C10.3594 13.2182 10.3836 13.1485 10.4322 13.0894C10.4861 13.0304 10.5563 13.0009 10.6426 13.0009H12.779V13.5966ZM12.779 15.0134H10.6507C10.5644 15.0134 10.4942 14.9839 10.4403 14.9249C10.3863 14.8712 10.3594 14.7987 10.3594 14.7075C10.3594 14.627 10.3836 14.5599 10.4322 14.5063C10.4861 14.4472 10.5563 14.4177 10.6426 14.4177H12.779V15.0134ZM12.779 16.4141H9.37208C9.28576 16.4141 9.21292 16.3873 9.15358 16.3336C9.09423 16.2853 9.06456 16.2156 9.06456 16.1243C9.06456 16.0385 9.09154 15.966 9.14548 15.907C9.20483 15.8479 9.27766 15.8184 9.36398 15.8184H12.779V16.4141Z"
		fill="currentColor"
	/>
</svg>
