<svg
	color="rgb(var(--foreground, 0, 0, 0))"
	viewBox="0 0 16 16"
	fill="none"
	xmlns="http://www.w3.org/2000/svg"
>
	<path
		d="M2.53989 16H12.0362C12.7642 16 13.3277 15.7894 13.7267 15.3682C14.1312 14.9523 14.3334 14.3259 14.3334 13.4888V4.82926L13.0311 6.13346V13.424C13.0311 13.8452 12.9313 14.1639 12.7318 14.3799C12.5323 14.5905 12.295 14.6958 12.02 14.6958H2.56416C2.15972 14.6958 1.84695 14.5905 1.62585 14.3799C1.41015 14.1639 1.3023 13.8452 1.3023 13.424V4.22981C1.3023 3.80858 1.41015 3.48996 1.62585 3.27394C1.84695 3.05793 2.15972 2.94992 2.56416 2.94992H9.93308L11.2354 1.64572H2.53989C1.69866 1.64572 1.06503 1.85634 0.639017 2.27757C0.213006 2.6934 0 3.31985 0 4.15691V13.4888C0 14.3259 0.213006 14.9523 0.639017 15.3682C1.06503 15.7894 1.69866 16 2.53989 16ZM5.48423 10.7508L7.06155 10.0623L14.6165 2.50438L13.5083 1.4108L5.96147 8.96867L5.23347 10.4916C5.20112 10.5618 5.2146 10.632 5.27392 10.7022C5.33863 10.767 5.40873 10.7832 5.48423 10.7508ZM15.2151 1.91304L15.7975 1.31359C15.9323 1.16778 15.9997 1.00847 15.9997 0.835659C16.0051 0.657446 15.9377 0.500834 15.7975 0.365824L15.6114 0.171409C15.4874 0.0471996 15.3364 -0.00950472 15.1585 0.0012961C14.9859 0.0120969 14.8322 0.0823022 14.6974 0.211912L14.1069 0.795156L15.2151 1.91304Z"
		fill="currentColor"
	/>
</svg>
