<svg
	color="rgb(var(--foreground, 0, 0, 0))"
	viewBox="0 0 19 20"
	fill="none"
	xmlns="http://www.w3.org/2000/svg"
>
	<path
		d="M5.21587 15.4314L13.7851 16.9492C14.2878 17.0392 14.7172 16.9995 15.0732 16.83C15.4293 16.6605 15.7016 16.3823 15.8901 15.9956C16.0839 15.6089 16.1807 15.1321 16.1807 14.5652V5.4427C16.1807 4.84407 16.0891 4.35139 15.9058 3.96466C15.7225 3.57793 15.4529 3.30775 15.0968 3.15412C14.746 2.99519 14.3087 2.96076 13.7851 3.05082L5.21587 4.57654C4.43565 4.71428 3.84133 4.97916 3.4329 5.37118C3.02447 5.76321 2.82025 6.29297 2.82025 6.96048V13.0395C2.82025 13.7017 3.02447 14.2315 3.4329 14.6288C3.84133 15.0208 4.43565 15.2884 5.21587 15.4314ZM5.15303 14.2315C4.78125 14.1679 4.49587 14.0408 4.29689 13.8501C4.10315 13.654 4.00628 13.3892 4.00628 13.0554V6.94458C4.00628 6.61083 4.10315 6.3486 4.29689 6.15788C4.49587 5.96187 4.78125 5.83208 5.15303 5.76851L13.8479 4.25073C14.2197 4.18716 14.5025 4.25868 14.6962 4.46529C14.8952 4.6666 14.9947 4.9871 14.9947 5.42681V14.5811C14.9947 14.9997 14.8926 15.3149 14.6884 15.5268C14.4894 15.7387 14.2093 15.8155 13.8479 15.7572L5.15303 14.2315ZM9.50441 19.5C9.68245 19.5 9.82383 19.4444 9.92856 19.3331C10.0385 19.2219 10.0935 19.0682 10.0935 18.8722V1.13572C10.0935 0.934407 10.0385 0.778126 9.92856 0.666876C9.82383 0.555625 9.68245 0.5 9.50441 0.5C9.31591 0.5 9.16929 0.555625 9.06456 0.666876C8.95984 0.778126 8.90747 0.934407 8.90747 1.13572V18.8722C8.90747 19.0682 8.95984 19.2219 9.06456 19.3331C9.16929 19.4444 9.31591 19.5 9.50441 19.5ZM0.628847 10.6H18.3721C18.5711 10.6 18.7256 10.547 18.8355 10.441C18.9455 10.3298 19.0005 10.1841 19.0005 10.004C19.0005 9.81326 18.9455 9.66492 18.8355 9.55897C18.7256 9.45302 18.5711 9.40004 18.3721 9.40004H0.628847C0.435103 9.40004 0.280632 9.45302 0.165432 9.55897C0.0554697 9.66492 0.000488281 9.81326 0.000488281 10.004C0.000488281 10.1841 0.0554697 10.3298 0.165432 10.441C0.280632 10.547 0.435103 10.6 0.628847 10.6Z"
		fill="currentColor"
	/>
</svg>
