<svg
	color="rgb(var(--foreground, 0, 0, 0))"
	viewBox="0 0 16 18"
	fill="none"
	xmlns="http://www.w3.org/2000/svg"
>
	<path
		d="M0.192645 13.1951C0.0160094 13.5163 -0.0385398 13.8349 0.0289973 14.1508C0.0965344 14.4667 0.296548 14.6996 0.629039 14.8495L7.47886 17.8853C7.59316 17.9388 7.70745 17.9736 7.82174 17.9897C7.94123 18.0057 8.05812 18.0031 8.17242 17.9816C8.29191 17.9656 8.4114 17.9308 8.53088 17.8772L15.3729 14.8495C15.7054 14.6996 15.9054 14.4667 15.973 14.1508C16.0405 13.8349 15.9859 13.5163 15.8093 13.1951L8.73349 0.465804C8.6244 0.273058 8.50491 0.147237 8.37503 0.0883421C8.25034 0.0294474 8.12566 0 8.00098 0C7.8711 0 7.74122 0.0294474 7.61134 0.0883421C7.48666 0.147237 7.36976 0.273058 7.26067 0.465804L0.192645 13.1951ZM1.45507 13.436L7.85292 1.99171C7.88928 1.92747 7.93863 1.89534 8.00098 1.89534C8.06332 1.89534 8.11007 1.92747 8.14125 1.99171L14.5469 13.436C14.604 13.5431 14.617 13.6395 14.5858 13.7252C14.5599 13.8108 14.5001 13.8751 14.4066 13.9179L8.28152 16.7689C8.20878 16.8064 8.14384 16.8305 8.0867 16.8412C8.02955 16.8519 7.9724 16.8519 7.91526 16.8412C7.86331 16.8305 7.80356 16.8118 7.73602 16.785L1.58755 13.9179C1.49923 13.8751 1.43948 13.8108 1.40831 13.7252C1.38234 13.6395 1.39792 13.5431 1.45507 13.436ZM7.40873 17.3873H8.58543V1.22073H7.40873V17.3873Z"
		fill="currentColor"
	/>
</svg>
