<svg
	color="rgb(var(--foreground, 0, 0, 0))"
	viewBox="0 0 16 16"
	fill="none"
	xmlns="http://www.w3.org/2000/svg"
>
	<path
		d="M4.74559 8.25882C4.74559 9.22614 4.84232 10.1752 5.03578 11.1059C5.22925 12.0366 5.51683 12.9072 5.89853 13.7176C6.28546 14.5281 6.76912 15.2366 7.34951 15.8431L8.33774 15.302C7.82533 14.7477 7.39395 14.0941 7.04363 13.3412C6.69853 12.5882 6.43709 11.7778 6.25931 10.9098C6.08676 10.0418 6.00049 9.15817 6.00049 8.25882C6.00049 7.30196 6.08938 6.36078 6.26716 5.43529C6.44493 4.5098 6.70637 3.64183 7.05147 2.83137C7.4018 2.02091 7.83055 1.3098 8.33774 0.698039L7.34167 0.164706C6.77696 0.818301 6.30114 1.57908 5.91421 2.44706C5.52729 3.31503 5.23448 4.24575 5.03578 5.23922C4.84232 6.22745 4.74559 7.23399 4.74559 8.25882ZM7.71814 10.8863C8.73774 10.8863 9.74166 10.7895 10.7299 10.5961C11.7234 10.3974 12.6541 10.1046 13.5221 9.71765C14.39 9.33072 15.1508 8.8549 15.8044 8.2902L15.2789 7.29412C14.6672 7.80131 13.956 8.23007 13.1456 8.58039C12.3351 8.92549 11.4672 9.18693 10.5417 9.36471C9.61617 9.54248 8.675 9.63137 7.71814 9.63137C6.81356 9.63137 5.92729 9.5451 5.05931 9.37255C4.19134 9.19477 3.38088 8.93333 2.62794 8.58824C1.875 8.23791 1.2214 7.80654 0.667155 7.29412L0.133822 8.28235C0.735129 8.86275 1.44101 9.34641 2.25147 9.73333C3.06193 10.115 3.93251 10.4026 4.86323 10.5961C5.79395 10.7895 6.74559 10.8863 7.71814 10.8863ZM8.00049 16C9.0933 16 10.1208 15.7908 11.0828 15.3725C12.0502 14.9542 12.9024 14.3765 13.6397 13.6392C14.377 12.902 14.9547 12.0523 15.373 11.0902C15.7913 10.1229 16.0005 9.09281 16.0005 8C16.0005 6.90719 15.7913 5.87974 15.373 4.91765C14.9547 3.95033 14.377 3.09804 13.6397 2.36078C12.9024 1.62353 12.0502 1.04575 11.0828 0.627451C10.1155 0.20915 9.08546 0 7.99265 0C6.89984 0 5.86977 0.20915 4.90245 0.627451C3.94036 1.04575 3.09068 1.62353 2.35343 2.36078C1.6214 3.09804 1.04624 3.95033 0.627939 4.91765C0.209639 5.87974 0.000488281 6.90719 0.000488281 8C0.000488281 9.09281 0.209639 10.1229 0.627939 11.0902C1.04624 12.0523 1.62402 12.902 2.36127 13.6392C3.09853 14.3765 3.9482 14.9542 4.91029 15.3725C5.87761 15.7908 6.90768 16 8.00049 16ZM8.00049 14.6667C7.075 14.6667 6.20964 14.4941 5.40441 14.149C4.59918 13.8039 3.89068 13.3281 3.27892 12.7216C2.67238 12.1098 2.19657 11.4013 1.85147 10.5961C1.5116 9.79085 1.34166 8.92549 1.34166 8C1.34166 7.07451 1.5116 6.20915 1.85147 5.40392C2.19657 4.59869 2.67238 3.8902 3.27892 3.27843C3.88546 2.66667 4.59134 2.19085 5.39657 1.85098C6.2018 1.50588 7.06716 1.33333 7.99265 1.33333C8.91814 1.33333 9.78349 1.50588 10.5887 1.85098C11.3992 2.19085 12.1077 2.66667 12.7142 3.27843C13.326 3.8902 13.8044 4.59869 14.1495 5.40392C14.4946 6.20915 14.6672 7.07451 14.6672 8C14.6672 8.92549 14.4946 9.79085 14.1495 10.5961C13.8096 11.4013 13.3338 12.1098 12.7221 12.7216C12.1103 13.3281 11.4018 13.8039 10.5966 14.149C9.79134 14.4941 8.92598 14.6667 8.00049 14.6667Z"
		fill="currentColor"
	/>
</svg>
