<svg
	color="rgb(var(--foreground, 0, 0, 0))"
	viewBox="0 0 19 10"
	fill="none"
	xmlns="http://www.w3.org/2000/svg"
>
	<path
		d="M19.001 2.73339C19.001 1.99723 18.8249 1.44096 18.4728 1.06458C18.1206 0.688192 17.595 0.5 16.8959 0.5H2.10605C1.41212 0.5 0.886504 0.688192 0.529186 1.06458C0.177046 1.43542 0.000976562 1.9917 0.000976562 2.73339V7.26661C0.000976562 8.00277 0.179636 8.55904 0.536954 8.93542C0.894272 9.31181 1.41989 9.5 2.11381 9.5H16.8959C17.595 9.5 18.1206 9.31181 18.4728 8.93542C18.8249 8.55904 19.001 8.00277 19.001 7.26661V2.73339ZM2.30801 1.86993V5.73893C2.30801 5.83303 2.27953 5.91328 2.22256 5.97971C2.1656 6.04613 2.09051 6.07934 1.9973 6.07934C1.90926 6.07934 1.83417 6.04889 1.77203 5.98801C1.70989 5.92159 1.67882 5.84133 1.67882 5.74723V1.86993H2.30801ZM3.81496 1.86993V4.27768C3.81496 4.37731 3.78648 4.46033 3.72951 4.52675C3.67255 4.58764 3.59487 4.61808 3.49648 4.61808C3.41362 4.61808 3.34112 4.58764 3.27898 4.52675C3.21684 4.46587 3.18577 4.38561 3.18577 4.28598V1.86993H3.81496ZM5.32191 1.86993V4.27768C5.32191 4.37731 5.29084 4.46033 5.2287 4.52675C5.17173 4.58764 5.09664 4.61808 5.00343 4.61808C4.91539 4.61808 4.84031 4.58764 4.77816 4.52675C4.7212 4.46587 4.69272 4.38561 4.69272 4.28598V1.86993H5.32191ZM6.81332 1.86993V4.27768C6.81332 4.37731 6.78484 4.46033 6.72788 4.52675C6.67091 4.58764 6.59583 4.61808 6.50261 4.61808C6.41458 4.61808 6.33949 4.58764 6.27735 4.52675C6.2152 4.46587 6.18413 4.38561 6.18413 4.28598V1.86993H6.81332ZM8.32027 1.86993V4.27768C8.32027 4.37731 8.29179 4.46033 8.23483 4.52675C8.17786 4.58764 8.10019 4.61808 8.00179 4.61808C7.91894 4.61808 7.84644 4.58764 7.7843 4.52675C7.72215 4.46587 7.69108 4.38561 7.69108 4.28598V1.86993H8.32027ZM9.81946 1.86993V5.73893C9.81946 5.83303 9.79097 5.91328 9.73401 5.97971C9.67705 6.04613 9.59937 6.07934 9.50098 6.07934C9.41812 6.07934 9.34562 6.04889 9.28348 5.98801C9.22134 5.92159 9.19026 5.84133 9.19026 5.74723V1.86993H9.81946ZM11.3264 1.86993V4.27768C11.3264 4.37731 11.2953 4.46033 11.2332 4.52675C11.1762 4.58764 11.1011 4.61808 11.0079 4.61808C10.9199 4.61808 10.8448 4.58764 10.7827 4.52675C10.7257 4.46587 10.6972 4.38561 10.6972 4.28598V1.86993H11.3264ZM12.8256 1.86993V4.27768C12.8256 4.37731 12.7971 4.46033 12.7401 4.52675C12.6832 4.58764 12.6081 4.61808 12.5149 4.61808C12.4268 4.61808 12.3518 4.58764 12.2896 4.52675C12.2275 4.46587 12.1964 4.38561 12.1964 4.28598V1.86993H12.8256ZM14.3248 1.86993V4.27768C14.3248 4.37731 14.2963 4.46033 14.2393 4.52675C14.1824 4.58764 14.1047 4.61808 14.0063 4.61808C13.9234 4.61808 13.8509 4.58764 13.7888 4.52675C13.7267 4.46587 13.6956 4.38561 13.6956 4.28598V1.86993H14.3248ZM15.8317 1.86993V4.27768C15.8317 4.37731 15.8006 4.46033 15.7385 4.52675C15.6815 4.58764 15.6065 4.61808 15.5132 4.61808C15.4252 4.61808 15.3501 4.58764 15.288 4.52675C15.231 4.46587 15.2025 4.38561 15.2025 4.28598V1.86993H15.8317ZM17.3231 1.86993V5.73893C17.3231 5.83303 17.2947 5.91328 17.2377 5.97971C17.1807 6.04613 17.1056 6.07934 17.0124 6.07934C16.9244 6.07934 16.8493 6.04889 16.7872 5.98801C16.725 5.92159 16.6939 5.84133 16.6939 5.74723V1.86993H17.3231Z"
		fill="currentColor"
	/>
</svg>
