<svg
	color="rgb(var(--foreground, 0, 0, 0))"
	viewBox="0 0 19 10"
	fill="none"
	xmlns="http://www.w3.org/2000/svg"
>
	<path
		d="M19.001 2.73339C19.001 1.99723 18.8223 1.44096 18.465 1.06458C18.1129 0.688192 17.5872 0.5 16.8881 0.5H2.09828C1.40436 0.5 0.881325 0.688192 0.529186 1.06458C0.177046 1.44096 0.000976562 1.99723 0.000976562 2.73339V7.26661C0.000976562 8.00277 0.177046 8.55904 0.529186 8.93542C0.886504 9.31181 1.41212 9.5 2.10605 9.5H16.8959C17.595 9.5 18.1206 9.31181 18.4728 8.93542C18.8249 8.55904 19.001 8.00277 19.001 7.26661V2.73339ZM17.7426 2.97417V7.02583C17.7426 7.39668 17.652 7.67897 17.4707 7.87269C17.2895 8.06642 17.0305 8.16328 16.6939 8.16328H2.29247C1.96105 8.16328 1.70471 8.06642 1.52346 7.87269C1.34221 7.67897 1.25159 7.39668 1.25159 7.02583V2.97417C1.25159 2.59779 1.34221 2.3155 1.52346 2.12731C1.70471 1.93358 1.96364 1.83672 2.30024 1.83672H16.7017C17.0331 1.83672 17.2895 1.93358 17.4707 2.12731C17.652 2.3155 17.7426 2.59779 17.7426 2.97417ZM2.96827 1.37177H2.33908V5.74723C2.33908 5.84133 2.37015 5.92159 2.43229 5.98801C2.49444 6.04889 2.56952 6.07934 2.65756 6.07934C2.75077 6.07934 2.82586 6.04613 2.88282 5.97971C2.93979 5.91328 2.96827 5.83303 2.96827 5.73893V1.37177ZM4.34317 1.37177H3.71398V4.28598C3.71398 4.38561 3.74505 4.46587 3.80719 4.52675C3.86933 4.58764 3.94183 4.61808 4.02469 4.61808C4.12308 4.61808 4.20076 4.58764 4.25772 4.52675C4.31469 4.46033 4.34317 4.37731 4.34317 4.27768V1.37177ZM5.7103 1.37177H5.07334V4.28598C5.07334 4.38561 5.10441 4.46587 5.16655 4.52675C5.2287 4.58764 5.30378 4.61808 5.39182 4.61808C5.48503 4.61808 5.56012 4.58764 5.61708 4.52675C5.67923 4.46033 5.7103 4.37731 5.7103 4.27768V1.37177ZM7.06966 1.37177H6.44047V4.28598C6.44047 4.38561 6.47154 4.46587 6.53368 4.52675C6.59583 4.58764 6.67091 4.61808 6.75895 4.61808C6.85216 4.61808 6.92725 4.58764 6.98421 4.52675C7.04118 4.46033 7.06966 4.37731 7.06966 4.27768V1.37177ZM8.44456 1.37177H7.81537V4.28598C7.81537 4.38561 7.84644 4.46587 7.90858 4.52675C7.97072 4.58764 8.04322 4.61808 8.12608 4.61808C8.22447 4.61808 8.30215 4.58764 8.35911 4.52675C8.41608 4.46033 8.44456 4.37731 8.44456 4.27768V1.37177ZM9.81946 1.37177H9.19026V5.74723C9.19026 5.84133 9.22134 5.92159 9.28348 5.98801C9.34562 6.04889 9.41812 6.07934 9.50098 6.07934C9.59937 6.07934 9.67705 6.04613 9.73401 5.97971C9.79097 5.91328 9.81946 5.83303 9.81946 5.73893V1.37177ZM11.1866 1.37177H10.5574V4.28598C10.5574 4.38561 10.5859 4.46587 10.6428 4.52675C10.705 4.58764 10.7801 4.61808 10.8681 4.61808C10.9613 4.61808 11.0364 4.58764 11.0934 4.52675C11.1555 4.46033 11.1866 4.37731 11.1866 4.27768V1.37177ZM12.5537 1.37177H11.9245V4.28598C11.9245 4.38561 11.9556 4.46587 12.0177 4.52675C12.0799 4.58764 12.155 4.61808 12.243 4.61808C12.3362 4.61808 12.4113 4.58764 12.4683 4.52675C12.5252 4.46033 12.5537 4.37731 12.5537 4.27768V1.37177ZM13.9208 1.37177H13.2917V4.28598C13.2917 4.38561 13.3227 4.46587 13.3849 4.52675C13.447 4.58764 13.5195 4.61808 13.6024 4.61808C13.7008 4.61808 13.7784 4.58764 13.8354 4.52675C13.8924 4.46033 13.9208 4.37731 13.9208 4.27768V1.37177ZM15.2957 1.37177H14.6666V4.28598C14.6666 4.38561 14.695 4.46587 14.752 4.52675C14.8141 4.58764 14.8892 4.61808 14.9773 4.61808C15.0705 4.61808 15.1456 4.58764 15.2025 4.52675C15.2647 4.46033 15.2957 4.37731 15.2957 4.27768V1.37177ZM16.6629 1.37177H16.0337V5.74723C16.0337 5.84133 16.0648 5.92159 16.1269 5.98801C16.189 6.04889 16.2641 6.07934 16.3522 6.07934C16.4454 6.07934 16.5205 6.04613 16.5774 5.97971C16.6344 5.91328 16.6629 5.83303 16.6629 5.73893V1.37177Z"
		fill="currentColor"
	/>
</svg>
