<svg
	color="rgb(var(--foreground, 0, 0, 0))"
	viewBox="0 0 16 16"
	fill="none"
	xmlns="http://www.w3.org/2000/svg"
>
	<path
		d="M1.95078 12.6074L2.57028 13.7008L8.02343 10.8642L13.4766 13.7008L14.0961 12.6074L8.64294 9.77069V3.08312H7.41158V9.77069L1.95078 12.6074ZM0.0157846 13.7405C0.0157846 14.0627 0.150903 14.303 0.421138 14.4615L1.95078 15.3886C2.04765 15.452 2.13943 15.4863 2.22611 15.4916C2.31279 15.4969 2.42241 15.4599 2.55498 15.3806L4.04638 14.4853C4.18404 14.406 4.27327 14.3268 4.31406 14.2476C4.35485 14.1683 4.3727 14.0627 4.3676 13.9306L4.37525 12.0923C4.37525 11.7807 4.24268 11.5456 3.97754 11.3871L2.44026 10.4601C2.34338 10.4019 2.2465 10.3703 2.14963 10.365C2.05275 10.3544 1.94058 10.3861 1.81311 10.4601L0.298767 11.3713C0.166199 11.4452 0.0820689 11.5245 0.0463774 11.609C0.0157846 11.6935 0.000488281 11.7912 0.000488281 11.9022L0.0157846 13.7405ZM11.6334 13.9385C11.6283 14.0706 11.6461 14.1763 11.6869 14.2555C11.7277 14.3347 11.8169 14.414 11.9546 14.4932L13.446 15.3886C13.5786 15.4678 13.6882 15.5048 13.7749 15.4995C13.8615 15.4942 13.9533 15.4599 14.0502 15.3965L15.5798 14.4694C15.8501 14.311 15.9852 14.0706 15.9852 13.7484L16.0005 11.9101C16.0005 11.7992 15.9826 11.7014 15.947 11.6169C15.9164 11.5324 15.8348 11.4532 15.7022 11.3792L14.1879 10.468C14.0604 10.394 13.9482 10.3623 13.8513 10.3729C13.7545 10.3782 13.6576 10.4099 13.5607 10.468L12.0234 11.395C11.7583 11.5535 11.6257 11.7886 11.6257 12.1003L11.6334 13.9385ZM6.07315 4.43806L7.61808 5.35721C7.87812 5.5104 8.13561 5.5104 8.39055 5.35721L9.93548 4.43806C10.0426 4.37467 10.119 4.30336 10.1649 4.22412C10.2159 4.14489 10.2414 4.02603 10.2414 3.86756V2.07681C10.2414 1.91834 10.2159 1.80212 10.1649 1.72817C10.119 1.65421 10.0477 1.58818 9.95078 1.53008L8.40584 0.618855C8.13561 0.460382 7.86792 0.460382 7.60278 0.618855L6.05785 1.53008C5.96097 1.5829 5.88704 1.64893 5.83605 1.72817C5.78506 1.80212 5.75957 1.91834 5.75957 2.07681V3.86756C5.75957 4.02603 5.78506 4.14753 5.83605 4.23205C5.89214 4.31128 5.97117 4.37996 6.07315 4.43806Z"
		fill="currentColor"
	/>
</svg>
