<svg
	color="rgb(var(--foreground, 0, 0, 0))"
	viewBox="0 0 20 16"
	fill="none"
	xmlns="http://www.w3.org/2000/svg"
>
	<path
		d="M3.13695 15.5C3.71961 15.5 4.24763 15.3588 4.72104 15.0765C5.19964 14.7993 5.57941 14.4245 5.86033 13.9523C6.14645 13.48 6.28951 12.9538 6.28951 12.3737C6.28951 12.1632 6.29732 11.9887 6.31292 11.8501C6.33373 11.7064 6.37795 11.5883 6.44558 11.4959C6.51841 11.3984 6.63546 11.3085 6.79673 11.2264L20 4.3039C19.8387 3.72895 19.4512 3.38758 18.8373 3.27977C18.2286 3.17197 17.4379 3.29004 16.4651 3.63398L9.80103 5.99795C9.33283 6.16222 8.98168 6.37012 8.74757 6.62166C8.51347 6.8732 8.334 7.21201 8.20914 7.63809L8.05307 8.20021C7.99585 8.40041 7.90481 8.56468 7.77996 8.69302C7.66031 8.81622 7.44701 8.95483 7.14008 9.10883L5.93056 9.74025C5.75889 9.82752 5.60802 9.87115 5.47796 9.87115C5.31149 9.87115 5.16323 9.84035 5.03317 9.77875C4.90312 9.71715 4.76005 9.64784 4.60399 9.57084C4.45312 9.48871 4.26064 9.4194 4.02654 9.36294C3.79764 9.30133 3.50111 9.27053 3.13695 9.27053C2.5543 9.27053 2.02627 9.40914 1.55287 9.68635C1.07947 9.96355 0.702303 10.3383 0.421382 10.8106C0.140461 11.2777 0 11.7988 0 12.3737C0 12.9538 0.140461 13.48 0.421382 13.9523C0.702303 14.4245 1.07947 14.7993 1.55287 15.0765C2.02627 15.3588 2.5543 15.5 3.13695 15.5ZM3.13695 14.2372C2.79361 14.2372 2.48147 14.1525 2.20055 13.9831C1.91963 13.8188 1.69593 13.5955 1.52946 13.3131C1.36299 13.0308 1.27975 12.7177 1.27975 12.3737C1.27975 12.0349 1.36299 11.7269 1.52946 11.4497C1.69593 11.1674 1.91963 10.944 2.20055 10.7798C2.48147 10.6104 2.79361 10.5257 3.13695 10.5257C3.4855 10.5257 3.80024 10.6104 4.08116 10.7798C4.36728 10.944 4.59358 11.1674 4.76005 11.4497C4.93173 11.7269 5.01757 12.0349 5.01757 12.3737C5.01757 12.7177 4.93173 13.0308 4.76005 13.3131C4.59358 13.5955 4.36728 13.8188 4.08116 13.9831C3.80024 14.1525 3.4855 14.2372 3.13695 14.2372ZM9.9727 8.23101C9.80103 8.23101 9.65016 8.1694 9.52011 8.0462C9.39005 7.91786 9.32502 7.76643 9.32502 7.59189C9.32502 7.40708 9.39005 7.25308 9.52011 7.12988C9.65016 7.00667 9.80103 6.94507 9.9727 6.94507C10.1548 6.94507 10.3108 7.00667 10.4409 7.12988C10.5762 7.25308 10.6438 7.40708 10.6438 7.59189C10.6438 7.77156 10.5762 7.923 10.4409 8.0462C10.3108 8.1694 10.1548 8.23101 9.9727 8.23101ZM3.13695 6.73717C3.50111 6.73717 3.79764 6.70637 4.02654 6.64476C4.26064 6.58316 4.45312 6.51386 4.60399 6.43686C4.76005 6.35986 4.90312 6.29312 5.03317 6.23665C5.16843 6.17505 5.31669 6.14425 5.47796 6.14425C5.60802 6.14425 5.75889 6.18532 5.93056 6.26745L7.24933 6.96047C7.33256 7.00154 7.4054 7.04261 7.46782 7.08368C7.53545 7.11961 7.59528 7.15554 7.6473 7.19148H7.69412C7.78776 6.86807 7.91001 6.59856 8.06088 6.38296C8.21695 6.16222 8.41723 5.97485 8.66174 5.82084V5.77464L6.89037 4.84292C6.70309 4.74538 6.56783 4.64784 6.4846 4.55031C6.40136 4.44764 6.34674 4.32444 6.32073 4.1807C6.29992 4.03696 6.28951 3.85216 6.28951 3.62628C6.28951 3.0462 6.14645 2.52002 5.86033 2.04774C5.57941 1.57546 5.19964 1.20072 4.72104 0.923511C4.24763 0.64117 3.71961 0.5 3.13695 0.5C2.5543 0.5 2.02627 0.64117 1.55287 0.923511C1.07947 1.20585 0.702303 1.58316 0.421382 2.05544C0.140461 2.52772 0 3.05133 0 3.62628C0 4.20123 0.140461 4.72485 0.421382 5.19713C0.702303 5.66427 1.07947 6.03901 1.55287 6.32136C2.02627 6.59856 2.5543 6.73717 3.13695 6.73717ZM3.13695 5.48203C2.79361 5.48203 2.48147 5.39733 2.20055 5.22793C1.91963 5.05852 1.69593 4.83522 1.52946 4.55801C1.36299 4.27567 1.27975 3.96509 1.27975 3.62628C1.27975 3.27721 1.36299 2.96407 1.52946 2.68686C1.69593 2.40452 1.91963 2.18121 2.20055 2.01694C2.48147 1.84754 2.79361 1.76283 3.13695 1.76283C3.4855 1.76283 3.80024 1.84754 4.08116 2.01694C4.36728 2.18121 4.59358 2.40452 4.76005 2.68686C4.93173 2.96407 5.01757 3.27721 5.01757 3.62628C5.01757 3.96509 4.93173 4.27567 4.76005 4.55801C4.59358 4.83522 4.36728 5.05852 4.08116 5.22793C3.80024 5.39733 3.4855 5.48203 3.13695 5.48203ZM16.4651 12.3891C17.4431 12.7485 18.2364 12.8691 18.8451 12.751C19.4538 12.633 19.8387 12.2787 20 11.6884L13.6481 8.37731L10.4253 10.0483V10.1407L16.4651 12.3891Z"
		fill="currentColor"
	/>
</svg>
