<svg
	color="rgb(var(--foreground, 0, 0, 0))"
	viewBox="0 0 16 16"
	fill="none"
	xmlns="http://www.w3.org/2000/svg"
>
	<path
		d="M0.33016 10.5814C0.46093 10.7172 0.626908 10.8139 0.828094 10.8714C1.03431 10.9288 1.25058 10.9315 1.47692 10.8792C1.70828 10.827 1.92455 10.7068 2.12574 10.5187C2.17604 10.4716 2.24142 10.4063 2.3219 10.3227C2.40237 10.2391 2.50045 10.1372 2.61613 10.0171C2.73181 9.89166 2.86761 9.74797 3.02353 9.58599C3.17945 9.41878 3.358 9.23068 3.55919 9.02168C4.51985 8.008 5.395 7.0936 6.18466 6.27848C6.97934 5.45814 7.67343 4.76842 8.26693 4.20933C8.86545 3.64502 9.35333 3.24007 9.73055 2.99449C10.1078 2.74369 10.3643 2.68098 10.5001 2.80639C10.6057 2.90567 10.6133 3.09377 10.5227 3.3707C10.4372 3.64241 10.2813 3.9742 10.055 4.36609C9.82863 4.75275 9.56457 5.17337 9.26279 5.62796C8.96102 6.07732 8.65169 6.52929 8.33483 6.98388C7.86204 7.67359 7.4144 8.32151 6.99191 8.92762C6.57445 9.52851 6.2098 10.0902 5.89797 10.6127C5.58613 11.1352 5.34722 11.6186 5.18124 12.0627C5.0203 12.5068 4.95743 12.9144 4.99263 13.2854C5.02784 13.6511 5.18627 13.9777 5.46793 14.2651C5.84013 14.657 6.28776 14.8007 6.81085 14.6962C7.33393 14.5969 7.94251 14.2938 8.6366 13.787C9.33572 13.2802 10.1354 12.6192 11.0357 11.8041C11.5387 11.339 11.9939 10.9236 12.4013 10.5579C12.8137 10.1869 13.1582 9.91256 13.4349 9.73491C13.7165 9.55725 13.9127 9.52851 14.0233 9.64869C14.1088 9.73229 14.129 9.86031 14.0837 10.0327C14.0384 10.2052 13.9479 10.422 13.8121 10.6833C13.6763 10.9445 13.5128 11.245 13.3217 11.5846C13.1406 11.9086 12.9571 12.2351 12.771 12.5643C12.5899 12.8935 12.444 13.2175 12.3334 13.5362C12.2227 13.8497 12.1775 14.1449 12.1976 14.4218C12.2177 14.704 12.3359 14.96 12.5522 15.1899C12.854 15.5034 13.284 15.5792 13.8423 15.4172C14.4056 15.2553 15.0469 14.8085 15.7661 14.077C15.8919 13.9464 15.9673 13.8105 15.9925 13.6694C16.0176 13.5283 15.9799 13.4056 15.8793 13.3011C15.7837 13.2018 15.6731 13.1574 15.5473 13.1678C15.4216 13.1783 15.3084 13.2331 15.2078 13.3324C14.8557 13.6877 14.5464 13.9646 14.2798 14.1632C14.0183 14.3618 13.8045 14.4898 13.6386 14.5472C13.4726 14.6099 13.3594 14.6099 13.2991 14.5472C13.2287 14.4793 13.2211 14.3539 13.2764 14.171C13.3318 13.9882 13.4399 13.74 13.6008 13.4265C13.7668 13.1077 13.9781 12.7132 14.2346 12.243C14.476 11.7988 14.6847 11.3939 14.8608 11.0281C15.0368 10.6624 15.1626 10.3306 15.238 10.0327C15.3185 9.72968 15.3336 9.45536 15.2833 9.20978C15.238 8.9642 15.1123 8.73691 14.906 8.5279C14.6344 8.25097 14.3402 8.10989 14.0233 8.10467C13.7115 8.09944 13.3645 8.20917 12.9822 8.43385C12.605 8.6533 12.1775 8.96681 11.6997 9.37437C11.2269 9.78193 10.6887 10.26 10.0851 10.8087C9.51679 11.3312 9.04149 11.7492 8.65924 12.0627C8.27699 12.3762 7.96515 12.6087 7.72373 12.7603C7.48733 12.9066 7.30124 12.9902 7.16544 13.0111C7.03467 13.032 6.93407 13.0058 6.86366 12.9327C6.78821 12.8491 6.75301 12.7472 6.75804 12.627C6.76809 12.5016 6.82594 12.3344 6.93156 12.1254C7.04221 11.9112 7.2107 11.6316 7.43704 11.2868C7.66337 10.9419 7.95509 10.5108 8.31219 9.99355C8.6693 9.47626 9.10185 8.84925 9.60984 8.1125C10.2033 7.25036 10.7239 6.46659 11.1715 5.7612C11.6242 5.05058 11.9738 4.41311 12.2202 3.8488C12.4667 3.28449 12.5849 2.78549 12.5748 2.3518C12.5648 1.91289 12.3988 1.53146 12.0769 1.2075C11.6393 0.763363 11.1464 0.528233 10.5982 0.502107C10.055 0.475981 9.39859 0.692824 8.62906 1.15264C7.86456 1.60722 6.93156 2.3309 5.83007 3.32368C4.73361 4.31645 3.4083 5.60967 1.85414 7.20333C1.64792 7.41756 1.46434 7.60567 1.30339 7.76765C1.14245 7.92962 1.00162 8.0707 0.880905 8.19088C0.765223 8.31106 0.667145 8.41295 0.586671 8.49655C0.506197 8.58015 0.443327 8.64808 0.39806 8.70033C0.206934 8.92501 0.0862223 9.15753 0.035926 9.39788C-0.0143704 9.63302 -0.0118556 9.85508 0.0434704 10.0641C0.103826 10.2731 0.199389 10.4455 0.33016 10.5814Z"
		fill="currentColor"
	/>
</svg>
