<svg
	color="rgb(var(--foreground, 0, 0, 0))"
	viewBox="0 0 16 16"
	fill="none"
	xmlns="http://www.w3.org/2000/svg"
>
	<path
		d="M0.173054 10.3311C0.293668 10.4561 0.432636 10.5185 0.589958 10.5185C0.752525 10.5185 0.894115 10.4561 1.01473 10.3311L2.39916 8.89704C3.36407 7.89751 4.2477 6.98762 5.05004 6.16736C5.85239 5.34166 6.57345 4.62461 7.21323 4.0162C7.853 3.40237 8.41674 2.91075 8.90444 2.54136C9.39214 2.17197 9.8038 1.93567 10.1394 1.83246C10.4803 1.72925 10.7477 1.77814 10.9418 1.97913C11.1096 2.15296 11.1437 2.40284 11.044 2.72877C10.9444 3.05471 10.7451 3.44311 10.4462 3.89398C10.1473 4.34485 9.77758 4.84733 9.33708 5.40142C8.89657 5.95007 8.42198 6.53675 7.91331 7.16145C7.48329 7.68294 7.05853 8.20443 6.639 8.72592C6.22472 9.24741 5.84977 9.76076 5.51414 10.2659C5.18377 10.7657 4.92419 11.2492 4.7354 11.7163C4.55186 12.1781 4.4732 12.6154 4.49942 13.0282C4.53088 13.4356 4.70656 13.805 5.02645 14.1364C5.30438 14.4243 5.61116 14.59 5.94678 14.6334C6.28765 14.6823 6.64949 14.6334 7.0323 14.4868C7.41512 14.3401 7.81105 14.1255 8.22009 13.8431C8.63437 13.5551 9.0539 13.2211 9.47867 12.8408C9.90344 12.4606 10.323 12.0613 10.7372 11.643C11.1358 11.2465 11.5055 10.8798 11.8464 10.543C12.1925 10.2062 12.5045 9.92372 12.7824 9.69557C13.0656 9.46198 13.3068 9.30445 13.5061 9.22297C13.7054 9.13605 13.8575 9.1442 13.9623 9.24741C14.1406 9.43211 14.1354 9.70643 13.9466 10.0704C13.7578 10.4289 13.514 10.8744 13.2151 11.4067C13.0263 11.7435 12.8375 12.0857 12.6487 12.4334C12.4599 12.7756 12.3078 13.1097 12.1925 13.4356C12.0771 13.7616 12.0273 14.0712 12.043 14.3645C12.064 14.6579 12.1872 14.9213 12.4127 15.1549C12.7641 15.5189 13.2256 15.5949 13.7972 15.3831C14.374 15.1767 15.0295 14.6823 15.7637 13.9001C15.9158 13.748 15.9944 13.5877 15.9997 13.4193C16.0049 13.2455 15.9472 13.0961 15.8266 12.9712C15.706 12.8517 15.5644 12.7919 15.4018 12.7919C15.2445 12.7919 15.1056 12.8544 14.9849 12.9793C14.6021 13.3433 14.2875 13.6258 14.041 13.8268C13.7998 14.0223 13.6084 14.1473 13.4668 14.2016C13.3304 14.2559 13.2308 14.2505 13.1679 14.1853C13.0945 14.1092 13.0787 13.9952 13.1207 13.8431C13.1679 13.691 13.2728 13.4709 13.4353 13.183C13.6031 12.8951 13.826 12.5122 14.1039 12.0341C14.4605 11.4312 14.7332 10.9069 14.922 10.4615C15.116 10.0106 15.2078 9.61952 15.1973 9.28815C15.1921 8.95136 15.0688 8.65802 14.8276 8.40814C14.4972 8.06048 14.1066 7.92739 13.6556 8.00887C13.2046 8.09035 12.6697 8.36468 12.0509 8.83185C11.4321 9.29902 10.711 9.94002 9.8877 10.7548C9.07487 11.5479 8.40363 12.1591 7.87398 12.5882C7.34433 13.0119 6.91956 13.2754 6.59967 13.3786C6.27978 13.4764 6.03593 13.4384 5.86812 13.2645C5.65836 13.0581 5.6164 12.7485 5.74226 12.3356C5.86812 11.9173 6.18014 11.3551 6.67833 10.6489C7.18176 9.94273 7.88971 9.04642 8.80218 7.95998C9.56781 7.04737 10.2128 6.23797 10.7372 5.53179C11.2617 4.82017 11.655 4.19547 11.9172 3.65768C12.1794 3.11446 12.3 2.63643 12.279 2.22358C12.2633 1.81073 12.0955 1.43863 11.7756 1.10726C11.4609 0.781331 11.1227 0.585772 10.7608 0.520585C10.399 0.455399 9.96899 0.54503 9.4708 0.789479C8.97786 1.03393 8.37741 1.45221 7.66946 2.04432C6.96675 2.63643 6.11721 3.42681 5.12084 4.41547C4.12446 5.3987 2.9393 6.60193 1.56536 8.02517L0.173054 9.45927C0.0576848 9.58421 0 9.73088 0 9.89928C0 10.0622 0.0576848 10.2062 0.173054 10.3311Z"
		fill="currentColor"
	/>
</svg>
