<svg
	color="rgb(var(--foreground, 0, 0, 0))"
	viewBox="0 0 13 22"
	fill="none"
	xmlns="http://www.w3.org/2000/svg"
>
	<path
		d="M3.0654 16.706H11.3048C11.4481 16.706 11.5755 16.6387 11.687 16.5042C11.7984 16.3697 11.8541 16.2352 11.8541 16.1007C11.8541 15.9608 11.7984 15.8236 11.687 15.6891C11.5755 15.5546 11.4481 15.4873 11.3048 15.4873H3.04152C2.37812 15.4873 2.04642 15.1483 2.04642 14.4704V2.098H0.764726V14.4139C0.764726 15.1779 0.955785 15.751 1.3379 16.133C1.72533 16.515 2.30116 16.706 3.0654 16.706ZM10.9705 20.0634H12.2522V7.50538C12.2522 6.76826 12.0664 6.21676 11.6949 5.85088C11.3234 5.47963 10.7715 5.294 10.0391 5.294H1.7041C1.56081 5.294 1.43343 5.36126 1.32198 5.49577C1.21584 5.6249 1.16277 5.75942 1.16277 5.89931C1.16277 6.0392 1.21584 6.1764 1.32198 6.31091C1.43343 6.44543 1.56081 6.51268 1.7041 6.51268H9.97538C10.6388 6.51268 10.9705 6.85165 10.9705 7.52959V20.0634ZM11.6073 21.5C11.8674 21.5 12.1009 21.4354 12.3079 21.3063C12.5202 21.1826 12.6874 21.0131 12.8094 20.7978C12.9368 20.588 13.0005 20.3513 13.0005 20.0876C13.0005 19.7002 12.8652 19.3666 12.5945 19.0869C12.3238 18.8125 11.9948 18.6753 11.6073 18.6753C11.3526 18.6753 11.1191 18.7398 10.9068 18.8689C10.6998 18.9981 10.5326 19.1676 10.4053 19.3774C10.2779 19.5926 10.2142 19.8294 10.2142 20.0876C10.2142 20.3513 10.2779 20.588 10.4053 20.7978C10.5326 21.0131 10.6998 21.1826 10.9068 21.3063C11.1191 21.4354 11.3526 21.5 11.6073 21.5ZM1.39363 3.32475C1.65368 3.32475 1.8872 3.26287 2.09418 3.13912C2.30647 3.00999 2.47365 2.83782 2.59571 2.6226C2.72308 2.40738 2.78677 2.17064 2.78677 1.91238C2.78677 1.52498 2.65144 1.19408 2.38077 0.919677C2.1101 0.639892 1.78106 0.5 1.39363 0.5C1.13888 0.5 0.905367 0.564566 0.693079 0.693697C0.486098 0.817448 0.318921 0.986933 0.191548 1.20215C0.0641747 1.41737 0.000488281 1.65411 0.000488281 1.91238C0.000488281 2.17064 0.0641747 2.40738 0.191548 2.6226C0.318921 2.83782 0.486098 3.00999 0.693079 3.13912C0.905367 3.26287 1.13888 3.32475 1.39363 3.32475Z"
		fill="currentColor"
	/>
</svg>
