<svg
	color="rgb(var(--foreground, 0, 0, 0))"
	viewBox="0 0 19 18"
	fill="none"
	xmlns="http://www.w3.org/2000/svg"
>
	<path
		d="M0.000488281 12.2446C0.000488281 12.5815 0.0806232 12.8886 0.240893 13.1658C0.406505 13.4429 0.62287 13.663 0.889986 13.8261C1.16245 13.9891 1.46429 14.0707 1.79551 14.0707C2.14276 14.0707 2.46063 13.9755 2.74912 13.7853C3.0376 13.5897 3.25397 13.3424 3.39821 13.0435L15.4826 16.6386C15.5787 17.0299 15.7871 17.3533 16.1076 17.6087C16.4282 17.8696 16.7968 18 17.2135 18C17.5394 18 17.8359 17.9185 18.103 17.7554C18.3754 17.5924 18.5918 17.3723 18.7521 17.0951C18.9177 16.8179 19.0005 16.5136 19.0005 16.1821C19.0005 15.8016 18.8963 15.4592 18.688 15.1549C18.4796 14.856 18.2152 14.6386 17.8946 14.5027L17.55 6.28533C17.8973 6.16576 18.1804 5.95109 18.3995 5.6413C18.6239 5.33152 18.736 4.97826 18.736 4.58152C18.736 4.25 18.6559 3.94565 18.4956 3.66848C18.3354 3.3913 18.119 3.1712 17.8465 3.00815C17.5794 2.84511 17.2829 2.76359 16.957 2.76359C16.6258 2.76359 16.324 2.84511 16.0515 3.00815C15.7844 3.1712 15.5707 3.38315 15.4104 3.64402L8.7352 1.78533C8.72986 1.4538 8.64438 1.15489 8.47877 0.888587C8.3185 0.616848 8.1048 0.402174 7.83769 0.244565C7.57057 0.0815217 7.27674 0 6.9562 0C6.62498 0 6.32314 0.0842391 6.05068 0.252717C5.77822 0.415761 5.56185 0.63587 5.40158 0.913043C5.24131 1.18478 5.16118 1.48913 5.16118 1.82609C5.16118 2.09239 5.2146 2.34511 5.32145 2.58424C5.43364 2.81793 5.58055 3.01902 5.76219 3.1875L2.04393 10.4592C1.96379 10.4375 1.88099 10.4266 1.79551 10.4266C1.46429 10.4266 1.16245 10.5082 0.889986 10.6712C0.62287 10.8342 0.406505 11.0543 0.240893 11.3315C0.0806232 11.6087 0.000488281 11.913 0.000488281 12.2446ZM3.0937 11.0054L6.81997 3.61957C7.02832 3.64674 7.22866 3.63315 7.42099 3.5788C7.61865 3.52446 7.79762 3.44022 7.95789 3.32609C8.1235 3.20652 8.25973 3.0625 8.36658 2.89402L15.2021 4.80163C15.2288 5.15489 15.3543 5.47283 15.5787 5.75543C15.8084 6.03804 16.0916 6.22826 16.4282 6.32609L16.7086 14.4293C16.4469 14.5054 16.2118 14.6386 16.0034 14.8288C15.8004 15.019 15.6508 15.2418 15.5547 15.4973L3.52643 11.9022C3.49971 11.7283 3.45163 11.5679 3.38218 11.4212C3.31273 11.2745 3.21657 11.1359 3.0937 11.0054Z"
		fill="currentColor"
	/>
</svg>
