<svg
	color="rgb(var(--foreground, 0, 0, 0))"
	viewBox="0 0 15 16"
	fill="none"
	xmlns="http://www.w3.org/2000/svg"
>
	<path
		d="M0 4.79386H1.31179V3.09098C1.31179 2.6673 1.42043 2.34954 1.6377 2.1377C1.85498 1.92042 2.16731 1.81179 2.57469 1.81179H4.26128V0.5H2.5584C1.7056 0.5 1.06464 0.711841 0.635524 1.13552C0.211841 1.55377 0 2.18387 0 3.0258V4.79386ZM5.37752 1.81179H9.62249V0.5H5.37752V1.81179ZM13.6882 4.79386H15V3.0258C15 2.18387 14.7854 1.55377 14.3563 1.13552C13.9326 0.711841 13.2944 0.5 12.4416 0.5H10.7387V1.81179H12.4253C12.8273 1.81179 13.1369 1.92042 13.3542 2.1377C13.5769 2.34954 13.6882 2.6673 13.6882 3.09098V4.79386ZM13.6882 10.0899H15V5.9101H13.6882V10.0899ZM10.7387 15.5H12.4416C13.2944 15.5 13.9326 15.2881 14.3563 14.8645C14.7854 14.4462 15 13.8161 15 12.9742V11.2061H13.6882V12.909C13.6882 13.3327 13.5769 13.6532 13.3542 13.8704C13.1369 14.0823 12.8273 14.1882 12.4253 14.1882H10.7387V15.5ZM5.37752 15.5H9.62249V14.1882H5.37752V15.5ZM2.5584 15.5H4.26128V14.1882H2.57469C2.16731 14.1882 1.85498 14.0823 1.6377 13.8704C1.42043 13.6532 1.31179 13.3327 1.31179 12.909V11.2061H0V12.9742C0 13.8161 0.211841 14.4462 0.635524 14.8645C1.06464 15.2881 1.7056 15.5 2.5584 15.5ZM0 10.0899H1.31179V5.9101H0V10.0899ZM3.20207 13.0638H11.8061C12.0614 13.0638 12.2542 12.9986 12.3846 12.8683C12.5149 12.7325 12.5801 12.5342 12.5801 12.2735V3.70206C12.5801 3.44133 12.5149 3.24579 12.3846 3.11542C12.2542 2.97963 12.0614 2.91173 11.8061 2.91173H3.20207C2.94677 2.91173 2.75394 2.97963 2.62358 3.11542C2.49322 3.24579 2.42804 3.44133 2.42804 3.70206V12.2735C2.42804 12.5342 2.49322 12.7325 2.62358 12.8683C2.75394 12.9986 2.94677 13.0638 3.20207 13.0638Z"
		fill="currentColor"
	/>
</svg>
