<svg
	color="rgb(var(--foreground, 0, 0, 0))"
	viewBox="0 0 16 18"
	fill="none"
	xmlns="http://www.w3.org/2000/svg"
>
	<path
		d="M7.45813 3.16636H8.54382V1.30303H7.45813V3.16636ZM7.45813 6.01984H8.54382V3.9538H7.45813V6.01984ZM7.45813 8.64721H8.54382V6.81507H7.45813V8.64721ZM6.06338 10.7055L7.75927 9.87125L7.26794 8.91229L5.57998 9.7465L6.06338 10.7055ZM3.46408 11.9763L5.33431 11.0563L4.8509 10.0973L2.98067 11.0173L3.46408 11.9763ZM1.07081 13.1457L2.74293 12.3193L2.2516 11.3604L0.579481 12.1868L1.07081 13.1457ZM8.24268 9.87125L9.93857 10.7055L10.422 9.7465L8.73401 8.91229L8.24268 9.87125ZM10.6676 11.0563L12.5458 11.9763L13.0292 11.0173L11.1511 10.0973L10.6676 11.0563ZM13.259 12.3193L14.9311 13.1457L15.4225 12.1868L13.7583 11.3604L13.259 12.3193ZM1.11044 13.8396L7.34719 17.3168C7.78569 17.5611 8.22419 17.5611 8.66269 17.3168L14.8915 13.8396C15.2561 13.6369 15.5308 13.403 15.7157 13.1379C15.9059 12.8729 16.001 12.4622 16.001 11.9061V5.73137C16.001 5.32596 15.9217 4.99071 15.7632 4.72564C15.61 4.45536 15.367 4.22667 15.0342 4.03956L9.42346 0.905412C8.94798 0.635137 8.47514 0.5 8.00494 0.5C7.53474 0.5 7.05926 0.635137 6.57849 0.905412L0.975717 4.03956C0.637595 4.22667 0.389288 4.45536 0.230793 4.72564C0.0775821 4.99071 0.000976562 5.32596 0.000976562 5.73137V11.9061C0.000976562 12.4622 0.0960731 12.8729 0.286266 13.1379C0.476459 13.403 0.751183 13.6369 1.11044 13.8396ZM1.82366 12.8105C1.5912 12.6857 1.43007 12.5506 1.34025 12.4051C1.25044 12.2595 1.20553 12.0802 1.20553 11.8671V5.98085L7.37889 9.45024V15.9212L1.82366 12.8105ZM14.1862 12.8105L8.62307 15.9212V9.45024L14.7964 5.98085V11.8671C14.7964 12.0802 14.7515 12.2595 14.6617 12.4051C14.5719 12.5506 14.4134 12.6857 14.1862 12.8105ZM8.00494 8.35875L1.88706 4.95173L7.10945 2.02029C7.71172 1.68245 8.30872 1.68245 8.90043 2.02029L14.1228 4.95173L8.00494 8.35875Z"
		fill="currentColor"
	/>
</svg>
