<svg
	color="rgb(var(--foreground, 0, 0, 0))"
	viewBox="0 0 16 18"
	fill="none"
	xmlns="http://www.w3.org/2000/svg"
>
	<path
		d="M8.50172 6.39396V8.23582L15.4332 4.3248C15.3176 4.2203 15.173 4.11841 14.9995 4.01913L9.43222 0.868373C9.27977 0.77432 9.12468 0.698555 8.96697 0.641079C8.80926 0.583602 8.65417 0.536576 8.50172 0.5V2.49078H7.42138V0.523513C7.27944 0.554864 7.1375 0.599278 6.99556 0.656754C6.85361 0.714231 6.71167 0.78477 6.56973 0.868373L1.01034 4.01913C0.831599 4.11841 0.6844 4.2203 0.568744 4.3248L7.42138 8.1888V6.39396H8.50172ZM7.42138 5.4456V3.44698H8.50172V5.4456H7.42138ZM8.54114 17.5C8.56743 17.4948 8.59372 17.4843 8.62 17.4686C8.64629 17.4582 8.67257 17.4451 8.69886 17.4295L14.8733 13.9338C15.0048 13.8607 15.1257 13.7849 15.2361 13.7065C15.3465 13.6282 15.4437 13.5446 15.5278 13.4557L13.9349 12.6641L14.4238 11.7001L15.9615 12.4682C15.9878 12.3114 16.001 12.1416 16.001 11.9587V5.85316C16.001 5.6128 15.9799 5.41425 15.9379 5.25749L9.15623 9.10581L10.8674 9.94444L10.3864 10.9085L8.54114 10.0071V17.5ZM12.965 12.186L11.3642 11.3944L11.8531 10.4304L13.446 11.222L12.965 12.186ZM7.46081 17.5V10.0071L5.61557 10.9085L5.13454 9.94444L6.84573 9.10581L0.0640618 5.25749C0.022005 5.41425 0.000976562 5.6128 0.000976562 5.85316V11.9587C0.000976562 12.1521 0.0141193 12.3193 0.0404049 12.4603L1.57811 11.7001L2.06702 12.6641L0.474116 13.4557C0.55823 13.5446 0.655486 13.6282 0.765885 13.7065C0.881542 13.7849 1.00246 13.8607 1.12863 13.9338L7.31098 17.4295C7.33727 17.4451 7.36092 17.4582 7.38195 17.4686C7.40824 17.4843 7.43452 17.4948 7.46081 17.5ZM3.03695 12.186L2.55593 11.222L4.15672 10.4304L4.63774 11.3944L3.03695 12.186Z"
		fill="currentColor"
	/>
</svg>
