<svg
	color="rgb(var(--foreground, 0, 0, 0))"
	viewBox="0 0 16 16"
	fill="none"
	xmlns="http://www.w3.org/2000/svg"
>
	<path
		d="M0.000976562 8C0.000976562 9.09281 0.210127 10.1229 0.628428 11.0902C1.04673 12.0523 1.62451 12.902 2.36176 13.6392C3.09902 14.3765 3.94869 14.9542 4.91078 15.3726C5.8781 15.7909 6.90817 16 8.00098 16C9.09379 16 10.1212 15.7909 11.0833 15.3726C12.0507 14.9542 12.9029 14.3765 13.6402 13.6392C14.3774 12.902 14.9552 12.0523 15.3735 11.0902C15.7918 10.1229 16.001 9.09281 16.001 8C16.001 6.90719 15.7918 5.87974 15.3735 4.91765C14.9552 3.95033 14.3774 3.09804 13.6402 2.36078C12.9029 1.62353 12.0507 1.04575 11.0833 0.627451C10.116 0.20915 9.08594 0 7.99313 0C6.90032 0 5.87026 0.20915 4.90294 0.627451C3.94085 1.04575 3.09117 1.62353 2.35392 2.36078C1.62189 3.09804 1.04673 3.95033 0.628428 4.91765C0.210127 5.87974 0.000976562 6.90719 0.000976562 8ZM1.34215 8C1.34215 7.07451 1.51209 6.20915 1.85196 5.40392C2.19706 4.59869 2.67287 3.8902 3.27941 3.27843C3.88594 2.66667 4.59183 2.19085 5.39706 1.85098C6.20228 1.50588 7.06764 1.33333 7.99313 1.33333C8.91862 1.33333 9.78398 1.50588 10.5892 1.85098C11.3944 2.19085 12.1029 2.66667 12.7147 3.27843C13.3265 3.8902 13.8049 4.59869 14.15 5.40392C14.4951 6.20915 14.6676 7.07451 14.6676 8C14.6676 8.43399 14.6284 8.85752 14.55 9.27059C14.4716 9.67843 14.3539 10.0706 14.1971 10.4471H1.81274C1.66111 10.0706 1.54346 9.67843 1.4598 9.27059C1.38137 8.85752 1.34215 8.43399 1.34215 8ZM2.41666 11.6314H13.601C13.2088 12.2431 12.7252 12.7765 12.15 13.2314C11.5748 13.6863 10.9343 14.0392 10.2284 14.2902C9.52777 14.5412 8.78529 14.6667 8.00098 14.6667C7.21666 14.6667 6.47157 14.5412 5.76568 14.2902C5.06503 14.0392 4.42974 13.6863 3.8598 13.2314C3.28987 12.7765 2.80882 12.2431 2.41666 11.6314Z"
		fill="currentColor"
	/>
</svg>
