<svg
	color="rgb(var(--foreground, 0, 0, 0))"
	viewBox="0 0 18 18"
	fill="none"
	xmlns="http://www.w3.org/2000/svg"
>
	<path
		d="M0.000488281 5.31889H7.12586V1.94194C7.12586 1.34922 6.93463 0.878683 6.55217 0.530329C6.17526 0.176776 5.66254 0 5.01402 0H2.19547C1.51924 0 0.984349 0.176776 0.590805 0.530329C0.197261 0.878683 0.000488281 1.34922 0.000488281 1.94194V5.31889ZM0.000488281 11.6127H7.12586V6.37955H0.000488281V11.6127ZM2.19547 18H5.01402C5.66254 18 6.17526 17.8232 6.55217 17.4697C6.93463 17.1213 7.12586 16.6482 7.12586 16.0503V12.6811H0.000488281V16.0503C0.000488281 16.6482 0.197261 17.1213 0.590805 17.4697C0.984349 17.8232 1.51924 18 2.19547 18ZM8.25661 6.19237L12.2309 8.34489L14.0267 5.42028C14.3427 4.90555 14.4286 4.40641 14.2845 3.92288C14.1459 3.43934 13.7939 3.04679 13.2286 2.74523L10.8008 1.42721C10.3352 1.17244 9.88621 1.06066 9.45387 1.09185C9.02152 1.11785 8.64461 1.27643 8.32312 1.56759C8.31758 1.65598 8.30926 1.74697 8.29818 1.84055C8.28709 1.92894 8.27324 2.01993 8.25661 2.11352V6.19237ZM8.25661 14.7946L11.6655 9.26516L8.25661 7.42461V14.7946ZM13.8106 13.3596L16.9201 11.675C17.4689 11.3787 17.8098 10.9887 17.9428 10.5052C18.0758 10.0165 17.9788 9.50693 17.6518 8.9766L16.255 6.69931C15.9612 6.21577 15.5843 5.90121 15.1242 5.75563C15.0965 5.80243 15.0688 5.84922 15.0411 5.89601C15.0189 5.94281 14.994 5.9896 14.9663 6.03639L12.1394 10.6378L13.8106 13.3596ZM8.78041 16.0815L12.8212 13.8899L11.4742 11.6984L8.78041 16.0815Z"
		fill="currentColor"
	/>
</svg>
