<svg
	color="rgb(var(--foreground, 0, 0, 0))"
	viewBox="0 0 18 18"
	fill="none"
	xmlns="http://www.w3.org/2000/svg"
>
	<path
		d="M2.27885 18H5.31131C6.03867 18 6.58687 17.8232 6.9559 17.4697C7.33028 17.1161 7.51747 16.591 7.51747 15.8943V2.09792C7.51747 1.40641 7.33028 0.883882 6.9559 0.530329C6.58687 0.176776 6.03867 0 5.31131 0H2.27885C1.53009 0 0.963175 0.176776 0.5781 0.530329C0.193026 0.883882 0.000488281 1.40641 0.000488281 2.09792V15.8943C0.000488281 16.591 0.193026 17.1161 0.5781 17.4697C0.963175 17.8232 1.53009 18 2.27885 18ZM2.29489 16.7444C2.00609 16.7444 1.76541 16.6586 1.57288 16.487C1.38569 16.3154 1.29209 16.0971 1.29209 15.8319V2.16031C1.29209 1.90035 1.38569 1.68458 1.57288 1.513C1.76541 1.34142 2.00609 1.25563 2.29489 1.25563H5.29527C5.56268 1.25563 5.78463 1.34142 5.96112 1.513C6.13762 1.68458 6.22586 1.90035 6.22586 2.16031V15.8319C6.22586 16.0971 6.13762 16.3154 5.96112 16.487C5.78463 16.6586 5.56268 16.7444 5.29527 16.7444H2.29489ZM0.666347 6.83969H6.85161V5.58406H0.666347V6.83969ZM0.666347 12.4159H6.85161V11.1603H0.666347V12.4159ZM6.79545 3.25217L7.16448 5.13172L8.68071 2.58146C8.81442 2.35789 9.00696 2.2175 9.25833 2.16031C9.51504 2.10312 9.76908 2.14471 10.0205 2.2851L12.6197 3.7435C12.8497 3.87348 12.9941 4.05546 13.0529 4.28943C13.1171 4.5234 13.0823 4.75477 12.9486 4.98354L6.0975 16.5182L7.22064 17.1421L14.0958 5.55286C14.4542 4.95494 14.5638 4.41421 14.4247 3.93068C14.2857 3.44194 13.9033 3.0234 13.2775 2.67504L10.6462 1.19324C9.99906 0.829289 9.41877 0.707106 8.90534 0.82669C8.39191 0.941075 7.95602 1.29983 7.59769 1.90295L6.79545 3.25217ZM7.23668 7.16724L11.0955 9.33536L11.7372 8.2513L7.23668 5.72444V7.16724ZM7.03612 13.4922L8.22344 14.1707L8.87325 13.0789L7.03612 12.0494V13.4922ZM13.4941 5.2643L12.9085 6.97227L13.6626 6.55113C13.8926 6.42114 14.1333 6.39255 14.3846 6.46534C14.636 6.53813 14.8339 6.69671 14.9783 6.94107L16.4785 9.46014C16.6068 9.68891 16.6389 9.92288 16.5747 10.162C16.5106 10.396 16.3635 10.5754 16.1335 10.7002L8.28762 15.0988L7.07624 17.2279L16.8315 11.7608C17.4465 11.4125 17.8182 10.9939 17.9466 10.5052C18.0803 10.0113 17.9653 9.46014 17.6016 8.85182L16.0854 6.30156C15.7752 5.77643 15.4142 5.41768 15.0024 5.2253C14.5959 5.03293 14.1547 5.01733 13.6787 5.17851L13.4941 5.2643ZM10.6462 10.8094L12.2828 13.5624L13.3979 12.9385L11.3923 9.55373L10.6462 10.8094Z"
		fill="currentColor"
	/>
</svg>
