<svg
	color="rgb(var(--foreground, 0, 0, 0))"
	viewBox="0 0 27 14"
	fill="none"
	xmlns="http://www.w3.org/2000/svg"
>
	<path
		d="M7.54658 14H19.4544C20.2814 14 20.9004 13.8023 21.3113 13.4068C21.7274 13.0165 21.9355 12.4284 21.9355 11.6426V2.35741C21.9355 1.57161 21.7274 0.983523 21.3113 0.593156C20.9004 0.197719 20.2814 0 19.4544 0H7.54658C6.72481 0 6.10584 0.197719 5.68969 0.593156C5.2788 0.983523 5.07336 1.57161 5.07336 2.35741V11.6426C5.07336 12.4284 5.2788 13.0165 5.68969 13.4068C6.10584 13.8023 6.72481 14 7.54658 14ZM6.52727 9.42966V4.57034C6.52727 4.4436 6.57468 4.33714 6.6695 4.25095C6.76432 4.1597 6.87757 4.11407 7.00927 4.11407C7.13569 4.11407 7.24632 4.1597 7.34114 4.25095C7.43596 4.33714 7.48337 4.4436 7.48337 4.57034V9.42966C7.48337 9.5564 7.43596 9.6654 7.34114 9.75665C7.24632 9.84284 7.13569 9.88593 7.00927 9.88593C6.87757 9.88593 6.76432 9.84284 6.6695 9.75665C6.57468 9.6654 6.52727 9.5564 6.52727 9.42966ZM8.94518 12.7757V1.22433H18.0637V12.7757H8.94518ZM19.5176 9.42966V4.57034C19.5176 4.4436 19.565 4.33714 19.6598 4.25095C19.7547 4.1597 19.8679 4.11407 19.9996 4.11407C20.1313 4.11407 20.2419 4.1597 20.3315 4.25095C20.4263 4.33714 20.4737 4.4436 20.4737 4.57034V9.42966C20.4737 9.5564 20.4263 9.6654 20.3315 9.75665C20.2419 9.84284 20.1313 9.88593 19.9996 9.88593C19.8679 9.88593 19.7547 9.84284 19.6598 9.75665C19.565 9.6654 19.5176 9.5564 19.5176 9.42966ZM1.24105 9.3308L3.3824 7.65019C3.59838 7.47782 3.70374 7.26996 3.69847 7.02662C3.6932 6.78327 3.58785 6.57541 3.3824 6.40304L1.24105 4.68441C1.05141 4.53739 0.86177 4.46641 0.67213 4.47148C0.48249 4.47148 0.321823 4.53739 0.190128 4.6692C0.0637016 4.79594 0.000488281 4.97592 0.000488281 5.20913V8.82129C0.000488281 9.04436 0.0663355 9.21926 0.19803 9.34601C0.329724 9.47275 0.490392 9.53866 0.680032 9.54373C0.87494 9.54373 1.06195 9.47275 1.24105 9.3308ZM25.7599 9.3308C25.939 9.47275 26.1234 9.54373 26.313 9.54373C26.508 9.53866 26.6713 9.47275 26.8029 9.34601C26.9346 9.21926 27.0005 9.04436 27.0005 8.82129V5.20913C27.0005 4.97592 26.9346 4.79594 26.8029 4.6692C26.6765 4.53739 26.5185 4.47148 26.3288 4.47148C26.1392 4.46641 25.9496 4.53739 25.7599 4.68441L23.6186 6.40304C23.4131 6.57541 23.3078 6.78327 23.3025 7.02662C23.2972 7.26996 23.4026 7.47782 23.6186 7.65019L25.7599 9.3308Z"
		fill="currentColor"
	/>
</svg>
