<svg
	color="rgb(var(--foreground, 0, 0, 0))"
	viewBox="0 0 19 14"
	fill="none"
	xmlns="http://www.w3.org/2000/svg"
>
	<path
		d="M5.21587 12.4347L13.7851 13.9531C14.2878 14.0432 14.7172 14.0035 15.0732 13.8339C15.4293 13.6643 15.7016 13.386 15.8901 12.9991C16.0839 12.6122 16.1807 12.1353 16.1807 11.5682V2.44178C16.1807 1.84289 16.0891 1.35 15.9058 0.963112C15.7225 0.57622 15.4529 0.305927 15.0968 0.152231C14.746 -0.00676581 14.3087 -0.041215 13.7851 0.0488829L5.21587 1.57525C4.43565 1.71304 3.84133 1.97804 3.4329 2.37023C3.02447 2.76242 2.82025 3.29241 2.82025 3.96019V10.0418C2.82025 10.7043 3.02447 11.2343 3.4329 11.6318C3.84133 12.024 4.43565 12.2916 5.21587 12.4347ZM5.15303 11.2343C4.78125 11.1707 4.49587 11.0435 4.29689 10.8527C4.10315 10.6566 4.00628 10.3916 4.00628 10.0577V3.94429C4.00628 3.6104 4.10315 3.34806 4.29689 3.15726C4.49587 2.96117 4.78125 2.83132 5.15303 2.76772L13.8479 1.24931C14.2197 1.18571 14.5025 1.25726 14.6962 1.46395C14.8952 1.66535 14.9947 1.98599 14.9947 2.42588V11.5841C14.9947 12.0028 14.8926 12.3181 14.6884 12.5301C14.4894 12.7421 14.2093 12.8189 13.8479 12.7606L5.15303 11.2343ZM0.628847 7.60121H18.3721C18.5711 7.60121 18.7256 7.54821 18.8355 7.44221C18.9455 7.33091 19.0005 7.18517 19.0005 7.00497C19.0005 6.81418 18.9455 6.66578 18.8355 6.55978C18.7256 6.45378 18.5711 6.40079 18.3721 6.40079H0.628847C0.435103 6.40079 0.280632 6.45378 0.165432 6.55978C0.0554697 6.66578 0.000488281 6.81418 0.000488281 7.00497C0.000488281 7.18517 0.0554697 7.33091 0.165432 7.44221C0.280632 7.54821 0.435103 7.60121 0.628847 7.60121Z"
		fill="currentColor"
	/>
</svg>
