<svg
	color="rgb(var(--foreground, 0, 0, 0))"
	viewBox="0 0 16 20"
	fill="none"
	xmlns="http://www.w3.org/2000/svg"
>
	<path
		d="M0.0815398 14.3687C-0.0751598 15.0042 -0.00464499 15.5072 0.293084 15.8779C0.590814 16.2486 1.08964 16.4339 1.78957 16.4339H14.208C14.9132 16.4339 15.412 16.2486 15.7045 15.8779C16.0022 15.5072 16.0753 15.0042 15.9239 14.3687L13.7457 5.40092C13.5995 4.80254 13.3514 4.34713 13.0014 4.0347C12.6567 3.72227 12.1657 3.56605 11.5284 3.56605H4.47696C3.83972 3.56605 3.34611 3.72227 2.99615 4.0347C2.64619 4.34713 2.39808 4.80254 2.25183 5.40092L0.0815398 14.3687ZM1.27246 14.3687L3.38007 5.56773C3.50543 5.03289 3.85278 4.76547 4.42212 4.76547H11.5833C12.1474 4.76547 12.4948 5.03289 12.6253 5.56773L14.7251 14.3687C14.7878 14.6335 14.7617 14.8453 14.6468 15.0042C14.5319 15.1577 14.3464 15.2345 14.0905 15.2345H1.90709C1.65637 15.2345 1.47094 15.1577 1.35081 15.0042C1.23589 14.8453 1.20978 14.6335 1.27246 14.3687ZM8.01054 19.5C8.19336 19.5 8.337 19.4418 8.44146 19.3253C8.54593 19.214 8.59816 19.0605 8.59816 18.8646V1.13545C8.59816 0.939521 8.54593 0.785953 8.44146 0.674749C8.337 0.55825 8.19336 0.5 8.01054 0.5C7.8225 0.5 7.67625 0.55825 7.57178 0.674749C7.46731 0.785953 7.41508 0.939521 7.41508 1.13545V18.8646C7.41508 19.0605 7.46731 19.214 7.57178 19.3253C7.67625 19.4418 7.8225 19.5 8.01054 19.5Z"
		fill="currentColor"
	/>
</svg>
