<svg
	color="rgb(var(--foreground, 0, 0, 0))"
	viewBox="0 0 14 14"
	fill="none"
	xmlns="http://www.w3.org/2000/svg"
>
	<path
		d="M0.000488281 9.07557C0.000488281 9.40057 0.0820912 9.69849 0.245297 9.96932C0.413603 10.2352 0.635461 10.4494 0.910871 10.6119C1.19138 10.7695 1.49994 10.8483 1.83655 10.8483C2.17317 10.8483 2.47918 10.7695 2.75459 10.6119C3.0351 10.4494 3.25951 10.2352 3.42781 9.96932C3.59612 9.69849 3.68027 9.40057 3.68027 9.07557C3.68027 8.75057 3.59612 8.45511 3.42781 8.1892C3.25951 7.91837 3.0351 7.70417 2.75459 7.54659C2.47918 7.38409 2.17317 7.30284 1.83655 7.30284C1.49994 7.30284 1.19138 7.38409 0.910871 7.54659C0.635461 7.70417 0.413603 7.91837 0.245297 8.1892C0.0820912 8.45511 0.000488281 8.75057 0.000488281 9.07557ZM0.941472 9.07557C0.941472 8.83428 1.02817 8.62992 1.20158 8.4625C1.38009 8.29508 1.59429 8.21136 1.8442 8.21136C2.09411 8.21136 2.30577 8.29508 2.47918 8.4625C2.65258 8.62992 2.73929 8.83428 2.73929 9.07557C2.73929 9.32178 2.65258 9.5286 2.47918 9.69602C2.30577 9.85852 2.09411 9.93977 1.8442 9.93977C1.59429 9.93977 1.38009 9.85852 1.20158 9.69602C1.02817 9.5286 0.941472 9.32178 0.941472 9.07557ZM1.8442 0.5C1.6708 0.5 1.52289 0.559091 1.40049 0.677273C1.28318 0.79053 1.22453 0.930871 1.22453 1.0983V7.90114H2.45623V1.0983C2.45623 0.930871 2.39503 0.79053 2.27262 0.677273C2.15532 0.559091 2.01251 0.5 1.8442 0.5ZM1.8442 13.5C2.01251 13.5 2.15532 13.4434 2.27262 13.3301C2.39503 13.2169 2.45623 13.0839 2.45623 12.9312V10.3608H1.22453V12.9312C1.22453 13.0839 1.28318 13.2169 1.40049 13.3301C1.52289 13.4434 1.6708 13.5 1.8442 13.5ZM5.15677 4.80625C5.15677 5.13125 5.24093 5.42917 5.40923 5.7C5.57754 5.96591 5.7994 6.18011 6.07481 6.34261C6.35532 6.50019 6.66388 6.57898 7.00049 6.57898C7.3371 6.57898 7.64311 6.50019 7.91852 6.34261C8.19903 6.18011 8.42089 5.96591 8.5841 5.7C8.7524 5.42917 8.83655 5.13125 8.83655 4.80625C8.83655 4.48125 8.7524 4.1858 8.5841 3.91989C8.42089 3.64905 8.19903 3.43485 7.91852 3.27727C7.64311 3.11477 7.3371 3.03352 7.00049 3.03352C6.66388 3.03352 6.35532 3.11477 6.07481 3.27727C5.7994 3.43485 5.57754 3.64905 5.40923 3.91989C5.24093 4.1858 5.15677 4.48125 5.15677 4.80625ZM6.10541 4.80625C6.10541 4.56496 6.19211 4.36061 6.36552 4.19318C6.53892 4.02576 6.75058 3.94205 7.00049 3.94205C7.2555 3.94205 7.46716 4.02576 7.63546 4.19318C7.80887 4.36061 7.89557 4.56496 7.89557 4.80625C7.89557 5.05246 7.80887 5.25928 7.63546 5.4267C7.46716 5.5892 7.2555 5.67045 7.00049 5.67045C6.75058 5.67045 6.53892 5.5892 6.36552 5.4267C6.19211 5.25928 6.10541 5.05246 6.10541 4.80625ZM7.00049 0.5C6.82708 0.5 6.68173 0.556629 6.56442 0.669886C6.44712 0.783144 6.38847 0.916098 6.38847 1.06875V3.5358H7.62016V1.06875C7.62016 0.916098 7.55896 0.783144 7.43655 0.669886C7.31925 0.556629 7.1739 0.5 7.00049 0.5ZM7.00049 13.5C7.1739 13.5 7.31925 13.4409 7.43655 13.3227C7.55896 13.2095 7.62016 13.0691 7.62016 12.9017V5.98068H6.38847V12.9017C6.38847 13.0691 6.44712 13.2095 6.56442 13.3227C6.68173 13.4409 6.82708 13.5 7.00049 13.5ZM10.3284 9.07557C10.3284 9.40057 10.41 9.69849 10.5732 9.96932C10.7415 10.2352 10.9633 10.4494 11.2387 10.6119C11.5192 10.7695 11.8278 10.8483 12.1644 10.8483C12.501 10.8483 12.807 10.7695 13.0825 10.6119C13.363 10.4494 13.5848 10.2352 13.748 9.96932C13.9163 9.69849 14.0005 9.40057 14.0005 9.07557C14.0005 8.75057 13.9163 8.45511 13.748 8.1892C13.5848 7.91837 13.363 7.70417 13.0825 7.54659C12.807 7.38409 12.501 7.30284 12.1644 7.30284C11.8278 7.30284 11.5192 7.38409 11.2387 7.54659C10.9633 7.70417 10.7415 7.91837 10.5732 8.1892C10.41 8.45511 10.3284 8.75057 10.3284 9.07557ZM11.2693 9.07557C11.2693 8.83428 11.356 8.62992 11.5295 8.4625C11.7029 8.29508 11.9145 8.21136 12.1644 8.21136C12.4194 8.21136 12.6311 8.29508 12.7994 8.4625C12.9728 8.62992 13.0595 8.83428 13.0595 9.07557C13.0595 9.32178 12.9728 9.5286 12.7994 9.69602C12.6311 9.85852 12.4194 9.93977 12.1644 9.93977C11.9145 9.93977 11.7029 9.85852 11.5295 9.69602C11.356 9.5286 11.2693 9.32178 11.2693 9.07557ZM12.1644 0.5C11.991 0.5 11.8431 0.559091 11.7207 0.677273C11.6034 0.79053 11.5448 0.930871 11.5448 1.0983V7.93807H12.7764V1.0983C12.7764 0.930871 12.7152 0.79053 12.5928 0.677273C12.4755 0.559091 12.3327 0.5 12.1644 0.5ZM12.1644 13.5C12.3327 13.5 12.4755 13.4434 12.5928 13.3301C12.7152 13.2169 12.7764 13.0839 12.7764 12.9312V10.2574H11.5448V12.9312C11.5448 13.0839 11.6034 13.2169 11.7207 13.3301C11.8431 13.4434 11.991 13.5 12.1644 13.5Z"
		fill="currentColor"
	/>
</svg>
