<svg
	color="rgb(var(--foreground, 0, 0, 0))"
	viewBox="0 0 17 16"
	fill="none"
	xmlns="http://www.w3.org/2000/svg"
>
	<path
		d="M5.92993 15.8723C6.08618 15.8723 6.17212 15.7871 6.18774 15.6168C6.25545 15.0845 6.32316 14.6667 6.39087 14.3633C6.46379 14.0599 6.57577 13.831 6.72681 13.6766C6.88306 13.5223 7.11222 13.4052 7.41431 13.3254C7.71639 13.2455 8.13306 13.163 8.66431 13.0778C8.8466 13.0459 8.93774 12.9554 8.93774 12.8064C8.93774 12.6574 8.85701 12.5669 8.69556 12.5349C8.16431 12.4338 7.74504 12.3433 7.43774 12.2635C7.13045 12.1783 6.89608 12.0612 6.73462 11.9122C6.57837 11.7631 6.46379 11.5396 6.39087 11.2415C6.32316 10.9434 6.25545 10.5283 6.18774 9.99601C6.17212 9.82568 6.08618 9.74052 5.92993 9.74052C5.77368 9.74052 5.68514 9.82302 5.66431 9.98803C5.5966 10.5309 5.52629 10.9568 5.45337 11.2655C5.38045 11.5689 5.26587 11.8004 5.10962 11.9601C4.95858 12.1144 4.72941 12.2315 4.42212 12.3114C4.11483 12.3859 3.69295 12.4604 3.15649 12.5349C3.08879 12.5456 3.03149 12.5749 2.98462 12.6228C2.93774 12.6707 2.91431 12.7319 2.91431 12.8064C2.91431 12.9554 2.99504 13.0459 3.15649 13.0778C3.69295 13.179 4.11483 13.2721 4.42212 13.3573C4.72941 13.4424 4.95858 13.5622 5.10962 13.7166C5.26587 13.8656 5.37785 14.0892 5.44556 14.3872C5.51847 14.6853 5.59139 15.1005 5.66431 15.6327C5.66952 15.7019 5.69556 15.7578 5.74243 15.8004C5.79452 15.8483 5.85702 15.8723 5.92993 15.8723ZM2.21899 8.91816C2.32316 8.91816 2.38566 8.85695 2.40649 8.73453C2.4742 8.35662 2.5367 8.05855 2.59399 7.84032C2.65129 7.61677 2.73462 7.44644 2.84399 7.32934C2.95337 7.20692 3.11743 7.11377 3.33618 7.0499C3.55493 6.98603 3.86222 6.9195 4.25806 6.8503C4.37785 6.82901 4.43774 6.76248 4.43774 6.6507C4.43774 6.53892 4.37785 6.47239 4.25806 6.4511C3.86222 6.3819 3.55493 6.31537 3.33618 6.2515C3.11743 6.1823 2.95337 6.08916 2.84399 5.97206C2.73462 5.85496 2.65129 5.68729 2.59399 5.46906C2.5367 5.24551 2.4742 4.94212 2.40649 4.55888C2.38566 4.44178 2.32316 4.38323 2.21899 4.38323C2.10962 4.38323 2.04451 4.44178 2.02368 4.55888C1.95597 4.94212 1.89347 5.24551 1.83618 5.46906C1.77889 5.68729 1.69556 5.85496 1.58618 5.97206C1.47681 6.08916 1.31274 6.1823 1.09399 6.2515C0.875244 6.31537 0.570557 6.3819 0.179932 6.4511C0.06014 6.47239 0.000244141 6.53892 0.000244141 6.6507C0.000244141 6.76248 0.06014 6.82901 0.179932 6.8503C0.570557 6.9195 0.875244 6.98603 1.09399 7.0499C1.31274 7.11377 1.47681 7.20692 1.58618 7.32934C1.69556 7.44644 1.77889 7.61677 1.83618 7.84032C1.89347 8.05855 1.95597 8.35662 2.02368 8.73453C2.0341 8.78776 2.05493 8.833 2.08618 8.87026C2.11743 8.9022 2.1617 8.91816 2.21899 8.91816ZM6.50024 3.80838C6.58358 3.80838 6.63566 3.76048 6.65649 3.66467C6.7242 3.34531 6.78149 3.09514 6.82837 2.91417C6.88045 2.72788 6.95077 2.58683 7.03931 2.49102C7.13306 2.38989 7.27108 2.31271 7.45337 2.25948C7.63566 2.20093 7.88827 2.13706 8.21118 2.06786C8.31014 2.0519 8.35962 1.99867 8.35962 1.90818C8.35962 1.8177 8.31014 1.76181 8.21118 1.74052C7.88827 1.67132 7.63566 1.61011 7.45337 1.55689C7.27108 1.49834 7.13306 1.42116 7.03931 1.32535C6.95077 1.22422 6.88045 1.08317 6.82837 0.902196C6.78149 0.721224 6.7242 0.471058 6.65649 0.151697C6.63566 0.0505655 6.58358 0 6.50024 0C6.4117 0 6.35702 0.0505655 6.33618 0.151697C6.27368 0.471058 6.21639 0.721224 6.16431 0.902196C6.11222 1.08317 6.03931 1.22422 5.94556 1.32535C5.85702 1.42116 5.7216 1.49834 5.53931 1.55689C5.36222 1.61011 5.10962 1.67132 4.78149 1.74052C4.68254 1.76181 4.63306 1.8177 4.63306 1.90818C4.63306 1.99867 4.68254 2.0519 4.78149 2.06786C5.10962 2.13706 5.36222 2.20093 5.53931 2.25948C5.7216 2.31271 5.85702 2.38989 5.94556 2.49102C6.03931 2.58683 6.11222 2.72788 6.16431 2.91417C6.21639 3.09514 6.27368 3.34531 6.33618 3.66467C6.35702 3.76048 6.4117 3.80838 6.50024 3.80838ZM12.9534 6.62675C13.0575 6.62675 13.12 6.5682 13.1409 6.4511C13.2086 6.06786 13.2711 5.76713 13.3284 5.5489C13.3857 5.32535 13.469 5.15502 13.5784 5.03792C13.6877 4.92083 13.8518 4.83034 14.0706 4.76647C14.2945 4.69727 14.6018 4.62808 14.9924 4.55888C15.1122 4.53759 15.1721 4.47106 15.1721 4.35928C15.1721 4.24751 15.1122 4.18097 14.9924 4.15968C14.6018 4.09049 14.2945 4.02395 14.0706 3.96008C13.8518 3.89621 13.6877 3.80572 13.5784 3.68862C13.469 3.5662 13.3857 3.39588 13.3284 3.17764C13.2711 2.95409 13.2086 2.65336 13.1409 2.27545C13.12 2.15303 13.0575 2.09182 12.9534 2.09182C12.844 2.09182 12.7789 2.15303 12.7581 2.27545C12.6903 2.65336 12.6278 2.95409 12.5706 3.17764C12.5133 3.39588 12.4299 3.5662 12.3206 3.68862C12.2112 3.80572 12.0471 3.89621 11.8284 3.96008C11.6096 4.02395 11.3049 4.09049 10.9143 4.15968C10.8622 4.17033 10.818 4.19428 10.7815 4.23154C10.7502 4.26347 10.7346 4.30605 10.7346 4.35928C10.7346 4.47106 10.7945 4.53759 10.9143 4.55888C11.3049 4.62808 11.6096 4.69727 11.8284 4.76647C12.0471 4.83034 12.2112 4.92083 12.3206 5.03792C12.4299 5.15502 12.5133 5.32535 12.5706 5.5489C12.6278 5.76713 12.6903 6.06786 12.7581 6.4511C12.7789 6.5682 12.844 6.62675 12.9534 6.62675ZM15.5549 15.7445C15.7216 15.9148 15.9247 16 16.1643 16C16.4091 16 16.6096 15.9148 16.7659 15.7445C16.9273 15.5689 17.0055 15.3613 17.0002 15.1218C17.0002 14.8876 16.9221 14.6853 16.7659 14.515L9.33618 6.8982C9.17472 6.72788 8.9716 6.64272 8.72681 6.64272C8.48722 6.64272 8.28931 6.72788 8.13306 6.8982C7.9716 7.07385 7.89087 7.28144 7.89087 7.52096C7.89087 7.76048 7.9716 7.9654 8.13306 8.13573L15.5549 15.7445ZM15.8362 15.1936L11.0159 10.2595L11.4065 9.87625L16.2268 14.8104C16.2945 14.8796 16.3336 14.9514 16.344 15.0259C16.3596 15.1005 16.3336 15.175 16.2659 15.2495C16.2034 15.3134 16.1331 15.3373 16.0549 15.3214C15.982 15.3107 15.9091 15.2681 15.8362 15.1936Z"
		fill="currentColor"
	/>
</svg>
