<svg
	color="rgb(var(--foreground, 0, 0, 0))"
	viewBox="0 0 17 18"
	fill="none"
	xmlns="http://www.w3.org/2000/svg"
>
	<path
		d="M9.19803 14.3489C9.19803 14.1574 9.12889 13.9926 8.99061 13.8543C8.85234 13.716 8.68747 13.6469 8.49601 13.6469C8.30987 13.6469 8.14766 13.716 8.00939 13.8543C7.87111 13.9926 7.80197 14.1574 7.80197 14.3489V16.806C7.80197 16.9974 7.87111 17.1596 8.00939 17.2926C8.14766 17.4309 8.30987 17.5 8.49601 17.5C8.68747 17.5 8.85234 17.4309 8.99061 17.2926C9.12889 17.1596 9.19803 16.9974 9.19803 16.806V14.3489ZM2.50493 13.9979C2.37197 14.1308 2.30549 14.2957 2.30549 14.4925C2.30549 14.684 2.36931 14.8462 2.49695 14.9791C2.62991 15.1121 2.79478 15.1786 2.99155 15.1786C3.18833 15.1839 3.3532 15.1201 3.48616 14.9871L5.22525 13.248C5.3582 13.1204 5.42468 12.9608 5.42468 12.7694C5.42468 12.5726 5.3582 12.4077 5.22525 12.2748C5.09761 12.1418 4.9354 12.0753 4.73862 12.0753C4.54184 12.0753 4.37698 12.1418 4.24402 12.2748L2.50493 13.9979ZM0.69404 8.30197C0.507899 8.30197 0.345691 8.37111 0.207414 8.50939C0.0691381 8.64766 0 8.80987 0 8.99601C0 9.18747 0.0691381 9.35234 0.207414 9.49061C0.345691 9.62357 0.507899 9.69005 0.69404 9.69005H3.16706C3.3532 9.69005 3.51541 9.62357 3.65368 9.49061C3.79196 9.35234 3.8611 9.18747 3.8611 8.99601C3.8611 8.80987 3.79196 8.64766 3.65368 8.50939C3.51541 8.37111 3.3532 8.30197 3.16706 8.30197H0.69404ZM4.24402 5.73322C4.37698 5.86618 4.53918 5.93266 4.73064 5.93266C4.92742 5.93266 5.09229 5.86618 5.22525 5.73322C5.3582 5.60027 5.42468 5.43806 5.42468 5.2466C5.42468 5.04982 5.3582 4.88495 5.22525 4.75199L3.49413 3.0129C3.36118 2.87995 3.19897 2.81347 3.00751 2.81347C2.81605 2.80815 2.65118 2.87197 2.5129 3.00493C2.37995 3.13788 2.31347 3.30275 2.31347 3.49953C2.31347 3.69099 2.37995 3.8532 2.5129 3.98616L4.24402 5.73322ZM9.19803 1.19404C9.19803 1.00258 9.12889 0.840372 8.99061 0.707414C8.85234 0.569138 8.68747 0.5 8.49601 0.5C8.30987 0.5 8.14766 0.569138 8.00939 0.707414C7.87111 0.840372 7.80197 1.00258 7.80197 1.19404V3.6511C7.80197 3.84256 7.87111 4.00743 8.00939 4.14571C8.14766 4.28398 8.30987 4.35312 8.49601 4.35312C8.68747 4.35312 8.85234 4.28398 8.99061 4.14571C9.12889 4.00743 9.19803 3.84256 9.19803 3.6511V1.19404ZM11.7668 4.75199C11.6338 4.88495 11.5673 5.04982 11.5673 5.2466C11.5673 5.43806 11.6338 5.60027 11.7668 5.73322C11.8997 5.86618 12.0619 5.93266 12.2534 5.93266C12.4502 5.93266 12.6177 5.86618 12.756 5.73322L14.4871 3.99413C14.6201 3.86118 14.6865 3.69631 14.6865 3.49953C14.6865 3.30275 14.6201 3.13788 14.4871 3.00493C14.3541 2.87197 14.1919 2.80549 14.0005 2.80549C13.809 2.80549 13.6468 2.87197 13.5138 3.00493L11.7668 4.75199ZM16.298 9.69005C16.4894 9.69005 16.6543 9.62357 16.7926 9.49061C16.9309 9.35234 17 9.18747 17 8.99601C17 8.80987 16.9309 8.64766 16.7926 8.50939C16.6543 8.37111 16.4894 8.30197 16.298 8.30197H13.8409C13.6548 8.30197 13.4926 8.37111 13.3543 8.50939C13.216 8.64766 13.1469 8.80987 13.1469 8.99601C13.1469 9.18747 13.216 9.35234 13.3543 9.49061C13.4926 9.62357 13.6548 9.69005 13.8409 9.69005H16.298ZM14.9418 16.7501C15.112 16.9203 15.3194 17.0054 15.5641 17.0054C15.814 17.0054 16.0188 16.9203 16.1783 16.7501C16.3432 16.5746 16.423 16.3672 16.4176 16.1279C16.4176 15.8939 16.3379 15.6918 16.1783 15.5216L8.59174 7.91107C8.42687 7.74089 8.21946 7.6558 7.9695 7.6558C7.72486 7.6558 7.52276 7.74089 7.36321 7.91107C7.19834 8.08658 7.11591 8.29399 7.11591 8.53332C7.11591 8.77264 7.19834 8.9774 7.36321 9.14758L14.9418 16.7501ZM10.3069 11.2696L7.9695 8.92421C7.89504 8.85508 7.84984 8.78328 7.83388 8.70882C7.82324 8.62905 7.8525 8.55459 7.92163 8.48545C7.98013 8.42163 8.04927 8.3977 8.12905 8.41366C8.20882 8.42429 8.28594 8.46684 8.36039 8.5413L10.7058 10.8867L10.3069 11.2696Z"
		fill="currentColor"
	/>
</svg>
