<svg
	color="rgb(var(--foreground, 0, 0, 0))"
	viewBox="0 0 17 18"
	fill="none"
	xmlns="http://www.w3.org/2000/svg"
>
	<path
		d="M9.198 14.3489C9.198 14.1574 9.12886 13.9925 8.99058 13.8543C8.85231 13.716 8.68744 13.6469 8.49598 13.6469C8.30984 13.6469 8.14763 13.716 8.00936 13.8543C7.87108 13.9925 7.80194 14.1574 7.80194 14.3489V16.8059C7.80194 16.9974 7.87108 17.1596 8.00936 17.2926C8.14763 17.4308 8.30984 17.5 8.49598 17.5C8.68744 17.5 8.85231 17.4308 8.99058 17.2926C9.12886 17.1596 9.198 16.9974 9.198 16.8059V14.3489ZM2.50492 13.9979C2.37196 14.1308 2.30548 14.2957 2.30548 14.4925C2.30548 14.6839 2.3693 14.8461 2.49694 14.9791C2.6299 15.1121 2.79477 15.1785 2.99154 15.1785C3.18832 15.1838 3.35319 15.12 3.48614 14.9871L5.22523 13.248C5.35818 13.1203 5.42466 12.9608 5.42466 12.7693C5.42466 12.5726 5.35818 12.4077 5.22523 12.2747C5.09759 12.1418 4.93538 12.0753 4.7386 12.0753C4.54183 12.0753 4.37696 12.1418 4.244 12.2747L2.50492 13.9979ZM0.694038 8.30197C0.507897 8.30197 0.345689 8.37111 0.207414 8.50939C0.0691379 8.64766 0 8.80987 0 8.99601C0 9.18747 0.0691379 9.35234 0.207414 9.49061C0.345689 9.62357 0.507897 9.69005 0.694038 9.69005H3.16705C3.35319 9.69005 3.51539 9.62357 3.65367 9.49061C3.79195 9.35234 3.86108 9.18747 3.86108 8.99601C3.86108 8.80987 3.79195 8.64766 3.65367 8.50939C3.51539 8.37111 3.35319 8.30197 3.16705 8.30197H0.694038ZM4.244 5.73323C4.37696 5.86619 4.53917 5.93267 4.73063 5.93267C4.9274 5.93267 5.09227 5.86619 5.22523 5.73323C5.35818 5.60028 5.42466 5.43807 5.42466 5.24661C5.42466 5.04983 5.35818 4.88497 5.22523 4.75201L3.49412 3.01293C3.36116 2.87997 3.19896 2.81349 3.0075 2.81349C2.81604 2.80817 2.65117 2.87199 2.5129 3.00495C2.37994 3.13791 2.31346 3.30277 2.31346 3.49955C2.31346 3.69101 2.37994 3.85322 2.5129 3.98617L4.244 5.73323ZM9.198 1.19407C9.198 1.00261 9.12886 0.840402 8.99058 0.707444C8.85231 0.569168 8.68744 0.500031 8.49598 0.500031C8.30984 0.500031 8.14763 0.569168 8.00936 0.707444C7.87108 0.840402 7.80194 1.00261 7.80194 1.19407V3.65112C7.80194 3.84258 7.87108 4.00745 8.00936 4.14572C8.14763 4.284 8.30984 4.35314 8.49598 4.35314C8.68744 4.35314 8.85231 4.284 8.99058 4.14572C9.12886 4.00745 9.198 3.84258 9.198 3.65112V1.19407ZM11.7668 4.75201C11.6338 4.88497 11.5674 5.04983 11.5674 5.24661C11.5674 5.43807 11.6338 5.60028 11.7668 5.73323C11.8998 5.86619 12.062 5.93267 12.2534 5.93267C12.4502 5.93267 12.6177 5.86619 12.756 5.73323L14.4871 3.99415C14.6201 3.86119 14.6865 3.69633 14.6865 3.49955C14.6865 3.30277 14.6201 3.13791 14.4871 3.00495C14.3541 2.87199 14.1919 2.80551 14.0005 2.80551C13.809 2.80551 13.6468 2.87199 13.5139 3.00495L11.7668 4.75201ZM16.298 9.69005C16.4894 9.69005 16.6543 9.62357 16.7926 9.49061C16.9309 9.35234 17 9.18747 17 8.99601C17 8.80987 16.9309 8.64766 16.7926 8.50939C16.6543 8.37111 16.4894 8.30197 16.298 8.30197H13.8409C13.6548 8.30197 13.4926 8.37111 13.3543 8.50939C13.216 8.64766 13.1469 8.80987 13.1469 8.99601C13.1469 9.18747 13.216 9.35234 13.3543 9.49061C13.4926 9.62357 13.6548 9.69005 13.8409 9.69005H16.298ZM14.9418 16.7501C15.112 16.9203 15.3194 17.0054 15.5641 17.0054C15.814 17.0054 16.0188 16.9203 16.1783 16.7501C16.3432 16.5746 16.423 16.3672 16.4176 16.1278C16.4176 15.8938 16.3379 15.6917 16.1783 15.5216L8.59171 7.91108C8.42684 7.74089 8.21943 7.6558 7.96947 7.6558C7.72483 7.6558 7.52273 7.74089 7.36318 7.91108C7.19832 8.08658 7.11588 8.29399 7.11588 8.53332C7.11588 8.77264 7.19832 8.9774 7.36318 9.14758L14.9418 16.7501ZM15.229 16.1996L10.3069 11.2696L10.7057 10.8867L15.6279 15.8167C15.697 15.8859 15.7369 15.9577 15.7475 16.0321C15.7635 16.1066 15.7369 16.181 15.6678 16.2555C15.6039 16.3193 15.5322 16.3432 15.4524 16.3273C15.3779 16.3166 15.3035 16.2741 15.229 16.1996Z"
		fill="currentColor"
	/>
</svg>
