<svg
	color="rgb(var(--foreground, 0, 0, 0))"
	viewBox="0 0 17 16"
	fill="none"
	xmlns="http://www.w3.org/2000/svg"
>
	<path
		d="M5.92969 15.8723C6.08594 15.8723 6.17188 15.7871 6.1875 15.6168C6.25521 15.0845 6.32292 14.6667 6.39062 14.3633C6.46354 14.0599 6.57552 13.831 6.72656 13.6766C6.88281 13.5223 7.11198 13.4052 7.41406 13.3254C7.71615 13.2455 8.13281 13.163 8.66406 13.0778C8.84635 13.0459 8.9375 12.9554 8.9375 12.8064C8.9375 12.6574 8.85677 12.5669 8.69531 12.5349C8.16406 12.4338 7.74479 12.3433 7.4375 12.2635C7.13021 12.1783 6.89583 12.0612 6.73438 11.9122C6.57812 11.7631 6.46354 11.5396 6.39062 11.2415C6.32292 10.9434 6.25521 10.5283 6.1875 9.99601C6.17188 9.82568 6.08594 9.74052 5.92969 9.74052C5.77344 9.74052 5.6849 9.82302 5.66406 9.98803C5.59635 10.5309 5.52604 10.9568 5.45312 11.2655C5.38021 11.5689 5.26562 11.8004 5.10938 11.9601C4.95833 12.1144 4.72917 12.2315 4.42188 12.3114C4.11458 12.3859 3.69271 12.4604 3.15625 12.5349C3.08854 12.5456 3.03125 12.5749 2.98438 12.6228C2.9375 12.6707 2.91406 12.7319 2.91406 12.8064C2.91406 12.9554 2.99479 13.0459 3.15625 13.0778C3.69271 13.179 4.11458 13.2721 4.42188 13.3573C4.72917 13.4424 4.95833 13.5622 5.10938 13.7166C5.26562 13.8656 5.3776 14.0892 5.44531 14.3872C5.51823 14.6853 5.59115 15.1005 5.66406 15.6327C5.66927 15.7019 5.69531 15.7578 5.74219 15.8004C5.79427 15.8483 5.85677 15.8723 5.92969 15.8723ZM2.21875 8.91816C2.32292 8.91816 2.38542 8.85695 2.40625 8.73453C2.47396 8.35662 2.53646 8.05855 2.59375 7.84032C2.65104 7.61677 2.73438 7.44644 2.84375 7.32934C2.95312 7.20692 3.11719 7.11377 3.33594 7.0499C3.55469 6.98603 3.86198 6.9195 4.25781 6.8503C4.3776 6.82901 4.4375 6.76248 4.4375 6.6507C4.4375 6.53892 4.3776 6.47239 4.25781 6.4511C3.86198 6.3819 3.55469 6.31537 3.33594 6.2515C3.11719 6.1823 2.95312 6.08916 2.84375 5.97206C2.73438 5.85496 2.65104 5.68729 2.59375 5.46906C2.53646 5.24551 2.47396 4.94212 2.40625 4.55888C2.38542 4.44178 2.32292 4.38323 2.21875 4.38323C2.10938 4.38323 2.04427 4.44178 2.02344 4.55888C1.95573 4.94212 1.89323 5.24551 1.83594 5.46906C1.77865 5.68729 1.69531 5.85496 1.58594 5.97206C1.47656 6.08916 1.3125 6.1823 1.09375 6.2515C0.875 6.31537 0.570312 6.3819 0.179688 6.4511C0.0598958 6.47239 0 6.53892 0 6.6507C0 6.76248 0.0598958 6.82901 0.179688 6.8503C0.570312 6.9195 0.875 6.98603 1.09375 7.0499C1.3125 7.11377 1.47656 7.20692 1.58594 7.32934C1.69531 7.44644 1.77865 7.61677 1.83594 7.84032C1.89323 8.05855 1.95573 8.35662 2.02344 8.73453C2.03385 8.78776 2.05469 8.833 2.08594 8.87026C2.11719 8.9022 2.16146 8.91816 2.21875 8.91816ZM6.5 3.80838C6.58333 3.80838 6.63542 3.76048 6.65625 3.66467C6.72396 3.34531 6.78125 3.09514 6.82812 2.91417C6.88021 2.72788 6.95052 2.58683 7.03906 2.49102C7.13281 2.38989 7.27083 2.31271 7.45312 2.25948C7.63542 2.20093 7.88802 2.13706 8.21094 2.06786C8.3099 2.0519 8.35938 1.99867 8.35938 1.90818C8.35938 1.8177 8.3099 1.76181 8.21094 1.74052C7.88802 1.67132 7.63542 1.61011 7.45312 1.55689C7.27083 1.49834 7.13281 1.42116 7.03906 1.32535C6.95052 1.22422 6.88021 1.08317 6.82812 0.902196C6.78125 0.721224 6.72396 0.471058 6.65625 0.151697C6.63542 0.0505655 6.58333 0 6.5 0C6.41146 0 6.35677 0.0505655 6.33594 0.151697C6.27344 0.471058 6.21615 0.721224 6.16406 0.902196C6.11198 1.08317 6.03906 1.22422 5.94531 1.32535C5.85677 1.42116 5.72135 1.49834 5.53906 1.55689C5.36198 1.61011 5.10938 1.67132 4.78125 1.74052C4.68229 1.76181 4.63281 1.8177 4.63281 1.90818C4.63281 1.99867 4.68229 2.0519 4.78125 2.06786C5.10938 2.13706 5.36198 2.20093 5.53906 2.25948C5.72135 2.31271 5.85677 2.38989 5.94531 2.49102C6.03906 2.58683 6.11198 2.72788 6.16406 2.91417C6.21615 3.09514 6.27344 3.34531 6.33594 3.66467C6.35677 3.76048 6.41146 3.80838 6.5 3.80838ZM12.9531 6.62675C13.0573 6.62675 13.1198 6.5682 13.1406 6.4511C13.2083 6.06786 13.2708 5.76713 13.3281 5.5489C13.3854 5.32535 13.4687 5.15502 13.5781 5.03792C13.6875 4.92083 13.8515 4.83034 14.0703 4.76647C14.2942 4.69727 14.6015 4.62808 14.9922 4.55888C15.112 4.53759 15.1719 4.47106 15.1719 4.35928C15.1719 4.24751 15.112 4.18097 14.9922 4.15968C14.6015 4.09049 14.2942 4.02395 14.0703 3.96008C13.8515 3.89621 13.6875 3.80572 13.5781 3.68862C13.4687 3.5662 13.3854 3.39588 13.3281 3.17764C13.2708 2.95409 13.2083 2.65336 13.1406 2.27545C13.1198 2.15303 13.0573 2.09182 12.9531 2.09182C12.8437 2.09182 12.7786 2.15303 12.7578 2.27545C12.6901 2.65336 12.6276 2.95409 12.5703 3.17764C12.513 3.39588 12.4296 3.5662 12.3203 3.68862C12.2109 3.80572 12.0468 3.89621 11.8281 3.96008C11.6093 4.02395 11.3046 4.09049 10.914 4.15968C10.8619 4.17033 10.8176 4.19428 10.7812 4.23154C10.7499 4.26347 10.7343 4.30605 10.7343 4.35928C10.7343 4.47106 10.7942 4.53759 10.914 4.55888C11.3046 4.62808 11.6093 4.69727 11.8281 4.76647C12.0468 4.83034 12.2109 4.92083 12.3203 5.03792C12.4296 5.15502 12.513 5.32535 12.5703 5.5489C12.6276 5.76713 12.6901 6.06786 12.7578 6.4511C12.7786 6.5682 12.8437 6.62675 12.9531 6.62675ZM15.5547 15.7445C15.7213 15.9148 15.9245 16 16.164 16C16.4088 16 16.6094 15.9148 16.7656 15.7445C16.9271 15.5689 17.0052 15.3613 17 15.1218C17 14.8876 16.9219 14.6853 16.7656 14.515L9.33594 6.8982C9.17448 6.72788 8.97135 6.64272 8.72656 6.64272C8.48698 6.64272 8.28906 6.72788 8.13281 6.8982C7.97135 7.07385 7.89062 7.28144 7.89062 7.52096C7.89062 7.76048 7.97135 7.9654 8.13281 8.13573L15.5547 15.7445ZM11.0156 10.2595L8.72656 7.91218C8.65365 7.84298 8.60938 7.77113 8.59375 7.69661C8.58333 7.61677 8.61198 7.54225 8.67969 7.47305C8.73698 7.40918 8.80469 7.38523 8.88281 7.4012C8.96094 7.41184 9.03646 7.45443 9.10938 7.52894L11.4062 9.87625L11.0156 10.2595Z"
		fill="currentColor"
	/>
</svg>
