<svg viewBox="0 0 36 24" fill="none" xmlns="http://www.w3.org/2000/svg">
	<path d="M36 24H0V0H36" fill="#41479B" />
	<path
		d="M27.15 17.393C22.678 15.771 23.022 8.597 23.105 7.469C23.7497 7.7556 24.4538 7.88286 25.158 7.84004C25.8622 7.79723 26.5458 7.58559 27.151 7.223C27.7561 7.58542 28.4395 7.79697 29.1435 7.83978C29.8475 7.8826 30.5515 7.75543 31.196 7.469C31.28 8.597 31.625 15.771 27.15 17.393ZM10.553 3.833V0H7.448V3.833L1.698 0H0V1.133L4.933 4.42H0V7.578H4.933L0 10.867V12H1.699L7.449 8.167V12H10.552V8.167L16.302 12H18V10.867L13.067 7.58H18V4.42H13.067L18 1.133V0H16.301L10.553 3.833Z"
		fill="#F5F5F5"
	/>
	<path
		d="M25.416 10.663C25.506 10.968 25.679 11.005 25.706 11.346C25.734 11.688 25.861 11.568 25.861 11.568C26.124 11.418 26.161 11.136 26.272 10.673C26.4081 10.6802 26.5439 10.6534 26.6671 10.5951C26.7904 10.5368 26.8972 10.4488 26.978 10.339C26.8762 10.3738 26.7655 10.3722 26.6647 10.3347C26.5639 10.2971 26.4792 10.2259 26.425 10.133C26.44 10.087 26.452 10.045 26.469 9.997C26.787 9.11 28.309 9.354 28.449 9.6C28.5863 9.85339 28.7903 10.0644 29.039 10.21C29.0182 9.89304 28.9013 9.58993 28.704 9.341C28.8379 9.32775 28.9666 9.28214 29.079 9.2081C29.1913 9.13407 29.284 9.03382 29.349 8.916C29.103 8.722 28.649 9.082 28.141 9.046C27.669 9.011 27.088 8.525 26.331 8.734C26.123 8.539 26.224 8.084 26.224 8.084C26.0403 8.19148 25.8922 8.35058 25.7981 8.54152C25.7041 8.73247 25.6682 8.94684 25.695 9.158C25.4093 9.6041 25.3099 10.144 25.416 10.663ZM25.689 10.635C25.7072 10.6348 25.7251 10.64 25.7404 10.65C25.7556 10.66 25.7676 10.6743 25.7747 10.6911C25.7818 10.7079 25.7838 10.7264 25.7803 10.7443C25.7769 10.7622 25.7682 10.7787 25.7554 10.7917C25.7426 10.8047 25.7262 10.8135 25.7083 10.8172C25.6904 10.8208 25.6719 10.819 25.655 10.8121C25.6382 10.8052 25.6237 10.7934 25.6136 10.7782C25.6034 10.7631 25.598 10.7452 25.598 10.727C25.598 10.7029 25.6074 10.6798 25.6242 10.6626C25.6411 10.6454 25.6649 10.6355 25.689 10.635ZM29.728 11.395C29.5328 10.9062 29.1515 10.5149 28.668 10.307C28.37 10.21 28.242 10.333 27.95 10.162C27.658 9.991 27.683 10.166 27.683 10.166C27.655 10.471 27.863 10.663 28.174 11.019C28.091 11.1289 28.0358 11.2572 28.0132 11.393C27.9905 11.5289 28.0011 11.6681 28.044 11.799C28.0722 11.6951 28.1353 11.604 28.2227 11.541C28.3101 11.478 28.4165 11.4469 28.524 11.453C28.553 11.491 28.58 11.525 28.609 11.567C29.147 12.337 28.087 13.473 27.808 13.451C27.5231 13.4231 27.2361 13.4751 26.979 13.601C27.2478 13.7626 27.5604 13.8361 27.873 13.811C27.8073 13.9302 27.771 14.0633 27.7672 14.1993C27.7634 14.3354 27.7921 14.4703 27.851 14.593C28.147 14.497 28.113 13.913 28.431 13.507C28.727 13.132 29.451 12.92 29.709 12.168C29.986 12.104 30.297 12.447 30.297 12.447C30.3162 12.2349 30.2723 12.0218 30.1709 11.8345C30.0695 11.6471 29.9151 11.4939 29.727 11.394L29.728 11.395ZM28.536 10.551C28.5293 10.5608 28.5207 10.5693 28.5107 10.5758C28.5007 10.5822 28.4895 10.5867 28.4778 10.5888C28.4661 10.591 28.4541 10.5908 28.4424 10.5882C28.4308 10.5857 28.4198 10.5808 28.41 10.574C28.3902 10.5599 28.3767 10.5386 28.3724 10.5147C28.3681 10.4908 28.3733 10.4661 28.387 10.446C28.3936 10.4361 28.4022 10.4276 28.4121 10.421C28.4221 10.4144 28.4332 10.4099 28.445 10.4076C28.4567 10.4054 28.4688 10.4055 28.4804 10.408C28.4921 10.4104 28.5032 10.4152 28.513 10.422C28.5331 10.4361 28.5468 10.4576 28.5511 10.4818C28.5554 10.5059 28.55 10.5308 28.536 10.551ZM27.755 12.441C28.03 12.244 27.865 12.193 27.865 12.193C27.604 12.039 27.345 12.15 26.897 12.288C26.8358 12.1661 26.7453 12.0612 26.6336 11.9829C26.5219 11.9045 26.3925 11.8551 26.257 11.839C26.3385 11.911 26.3934 12.0085 26.4126 12.1156C26.4318 12.2226 26.4144 12.3331 26.363 12.429L26.225 12.459C25.313 12.631 24.746 11.174 24.883 10.926C25.028 10.6744 25.1027 10.3884 25.099 10.098C24.8399 10.2799 24.6428 10.5367 24.534 10.834C24.4568 10.724 24.3538 10.6346 24.234 10.5738C24.1143 10.5129 23.9813 10.4824 23.847 10.485C23.807 10.799 24.343 11.013 24.57 11.478C24.78 11.908 24.665 12.665 25.226 13.221C25.167 13.503 24.731 13.646 24.731 13.646C24.9127 13.7523 25.1222 13.8014 25.3322 13.7868C25.5422 13.7722 25.7428 13.6945 25.908 13.564C26.1667 13.5757 26.4252 13.5357 26.6683 13.4465C26.9114 13.3572 27.1343 13.2204 27.324 13.044C27.536 12.809 27.48 12.639 27.755 12.441ZM27.286 12.851C27.2758 12.8571 27.2644 12.8611 27.2527 12.8628C27.2409 12.8645 27.2288 12.8639 27.2173 12.8609C27.2058 12.8579 27.195 12.8527 27.1855 12.8455C27.176 12.8383 27.168 12.8293 27.162 12.819C27.1495 12.7979 27.1459 12.7727 27.1519 12.7489C27.1578 12.7251 27.173 12.7047 27.194 12.692C27.2043 12.6859 27.2157 12.682 27.2275 12.6803C27.2393 12.6787 27.2514 12.6794 27.2629 12.6825C27.2745 12.6856 27.2853 12.6909 27.2947 12.6982C27.3042 12.7055 27.3121 12.7146 27.318 12.725C27.3302 12.746 27.3337 12.771 27.3277 12.7945C27.3217 12.8181 27.3067 12.8383 27.286 12.851Z"
		fill="#FFA028"
	/>
	<path
		d="M27.15 17.628L27.115 17.615C22.078 15.833 22.892 7.382 22.9 7.296L22.916 7.144L23.053 7.207C23.077 7.218 25.413 8.273 27.084 6.997L27.15 6.947L27.215 6.997C28.888 8.274 31.223 7.217 31.245 7.207L31.384 7.143L31.399 7.296C31.409 7.382 32.222 15.833 27.185 17.616L27.15 17.628ZM23.105 7.469C23.022 8.599 22.678 15.771 27.151 17.393C31.625 15.771 31.28 8.598 31.196 7.469C30.5515 7.75543 29.8475 7.8826 29.1435 7.83978C28.4395 7.79697 27.7561 7.58542 27.151 7.223C26.5458 7.58559 25.8622 7.79723 25.158 7.84004C24.4538 7.88286 23.7497 7.7556 23.105 7.469Z"
		fill="#CDCE0C"
	/>
	<path
		d="M24.345 14.849C24.9281 16.019 25.9296 16.9271 27.151 17.393C28.3724 16.9271 29.3739 16.019 29.957 14.849H24.345Z"
		fill="#82AFFF"
	/>
	<path
		d="M18 6.947H9.931V12H8.069V6.947H0V5.053H8.069V0H9.931V5.053H18V6.947ZM6.828 4.421L0.166 0.001H0V0.664L5.688 4.421H6.828ZM18 0.253V0H17.245L10.552 4.421H11.692L18 0.253ZM0 11.729V12H0.738L7.43 7.579H6.29L0 11.729ZM18 11.423L12.178 7.579H11.038L17.512 12H18V11.423Z"
		fill="#FF4B55"
	/>
</svg>
