<svg viewBox="0 0 36 24" fill="none" xmlns="http://www.w3.org/2000/svg">
	<path d="M36 0H0V24H36" fill="#464655" />
	<path
		d="M18 1.263L18.787 5.447L21.088 1.888L20.242 6.06L23.706 3.668L21.355 7.193L25.455 6.332L21.957 8.673L26.069 9.474L21.957 10.275L25.455 12.616L21.355 11.754L23.706 15.279L20.242 12.887L21.088 17.059L18.787 13.5L18 17.684L17.213 13.5L14.912 17.059L15.759 12.887L12.294 15.279L14.646 11.754L10.545 12.616L14.043 10.275L9.931 9.474L14.043 8.673L10.545 6.332L14.646 7.193L12.294 3.668L15.759 6.06L14.912 1.888L17.213 5.447L18 1.263Z"
		fill="#FFE15A"
	/>
	<path d="M36 0V24H0V0L18 24L36 0Z" fill="#FF4B55" />
	<path
		d="M10.895 14.526H25.105L28.895 9.474H7.105L10.895 14.526Z"
		fill="#4173CD"
	/>
	<path d="M10.895 14.526L18 24L25.105 14.526H10.895Z" fill="#F5F5F5" />
</svg>
