<svg viewBox="0 0 36 24" fill="none" xmlns="http://www.w3.org/2000/svg">
	<path d="M36 0V8H0V0H36ZM0 24H36V16H0V24Z" fill="#82AFFF" />
	<path d="M0 8H36V16H0V8Z" fill="#F5F5F5" />
	<path
		d="M21.103 11.842H18.87C18.9067 11.813 18.9415 11.7816 18.974 11.748C19.0346 11.6859 19.1071 11.6365 19.1872 11.6028C19.2672 11.5692 19.3532 11.5519 19.44 11.552C19.5666 11.5551 19.6924 11.5298 19.808 11.478C19.9259 11.431 20.0321 11.3586 20.119 11.266C20.1779 11.2017 20.2508 11.1517 20.332 11.12C20.4109 11.0836 20.4972 11.0665 20.584 11.07C20.7107 11.0726 20.8364 11.047 20.952 10.995L20.832 10.704C20.7534 10.7402 20.6674 10.7573 20.581 10.754C20.4544 10.7512 20.3287 10.7765 20.213 10.828C20.0954 10.8752 19.9896 10.9475 19.903 11.04C19.8422 11.1023 19.7696 11.1517 19.6894 11.1854C19.6092 11.219 19.523 11.2362 19.436 11.236C19.3093 11.233 19.1835 11.2587 19.068 11.311C18.9504 11.3577 18.8446 11.4297 18.758 11.522C18.6996 11.585 18.6279 11.6342 18.548 11.666L20.305 9.879L20.085 9.655L18.505 11.264C18.5109 11.2169 18.5139 11.1695 18.514 11.122C18.5111 11.0337 18.5282 10.9458 18.564 10.865C18.5945 10.7827 18.6434 10.7085 18.707 10.648C18.799 10.5585 18.8704 10.45 18.916 10.33C18.9669 10.2124 18.9918 10.0851 18.989 9.957C18.9859 9.86874 19.0026 9.78091 19.038 9.7C19.0687 9.61811 19.1176 9.54425 19.181 9.484C19.2725 9.39468 19.3435 9.28651 19.389 9.167L19.103 9.047C19.072 9.12899 19.0228 9.20285 18.959 9.263C18.8676 9.35203 18.7966 9.45985 18.751 9.579C18.7 9.69694 18.6751 9.82453 18.678 9.953C18.681 10.0409 18.6642 10.1284 18.629 10.209C18.5987 10.2917 18.5497 10.3662 18.486 10.427C18.3937 10.5161 18.3221 10.6243 18.276 10.744C18.2254 10.8624 18.2008 10.9903 18.204 11.119C18.2064 11.2048 18.19 11.2902 18.156 11.369V8.842H17.846V11.116C17.8176 11.0788 17.7868 11.0434 17.754 11.01C17.6902 10.9495 17.6409 10.8753 17.61 10.793C17.5741 10.7119 17.5571 10.6237 17.56 10.535C17.5633 10.4066 17.5387 10.279 17.488 10.161C17.4422 10.0414 17.3709 9.9332 17.279 9.844C17.2156 9.78372 17.1667 9.70988 17.136 9.628C17.1006 9.54708 17.0839 9.45925 17.087 9.371C17.0899 9.24285 17.065 9.11559 17.014 8.998L16.728 9.118C16.7635 9.19889 16.7802 9.28674 16.777 9.375C16.7737 9.5034 16.7983 9.63099 16.849 9.749C16.8949 9.86826 16.9662 9.97609 17.058 10.065C17.1214 10.1253 17.1703 10.1991 17.201 10.281C17.2368 10.3622 17.2539 10.4503 17.251 10.539C17.2479 10.6678 17.2728 10.7958 17.324 10.914C17.3694 11.0336 17.4404 11.1418 17.532 11.231C17.5937 11.2905 17.6415 11.3629 17.672 11.443L15.916 9.656L15.696 9.879L17.451 11.663C17.3784 11.6311 17.3128 11.5853 17.258 11.528C17.1692 11.4373 17.0633 11.3652 16.9464 11.316C16.8295 11.2667 16.7039 11.2412 16.577 11.241C16.4895 11.2442 16.4025 11.2267 16.323 11.19C16.2406 11.1584 16.1667 11.108 16.107 11.043C16.0193 10.9502 15.9125 10.8775 15.794 10.83C15.6778 10.7778 15.5514 10.7522 15.424 10.755C15.3365 10.7577 15.2496 10.7403 15.17 10.704L15.05 10.996C15.1662 11.0482 15.2926 11.0738 15.42 11.071C15.5077 11.0712 15.5945 11.0887 15.6754 11.1227C15.7562 11.1567 15.8295 11.2064 15.891 11.269C15.9785 11.3618 16.0854 11.4342 16.204 11.481C16.3198 11.5336 16.4459 11.5595 16.573 11.557C16.6604 11.5537 16.7474 11.5708 16.827 11.607C16.9087 11.6389 16.9819 11.6892 17.041 11.754C17.072 11.7852 17.1047 11.8146 17.139 11.842H14.897V12.158H17.377C17.3041 12.188 17.2258 12.203 17.147 12.202C17.0204 12.199 16.8946 12.2243 16.779 12.276C16.6605 12.323 16.5536 12.3954 16.466 12.488C16.4049 12.5509 16.3319 12.6009 16.2511 12.6351C16.1704 12.6693 16.0837 12.6869 15.996 12.687C15.869 12.6841 15.743 12.7094 15.627 12.761C15.5083 12.8082 15.4015 12.881 15.314 12.974C15.2543 13.039 15.1804 13.0894 15.098 13.121L15.217 13.413C15.3357 13.3658 15.4425 13.2931 15.53 13.2C15.5914 13.1376 15.6645 13.0879 15.7452 13.0539C15.8258 13.0199 15.9125 13.0023 16 13.002C16.1275 13.0046 16.2539 12.9786 16.37 12.926C16.4883 12.8791 16.5948 12.8067 16.682 12.714C16.7415 12.6495 16.8151 12.5995 16.897 12.568C16.9765 12.5314 17.0635 12.514 17.151 12.517C17.1948 12.5166 17.2385 12.5136 17.282 12.508L15.697 14.121L15.916 14.344L17.669 12.561C17.6383 12.6344 17.5934 12.701 17.537 12.757C17.356 12.9419 17.2548 13.1903 17.255 13.449C17.2579 13.538 17.2408 13.6265 17.205 13.708C17.1741 13.7914 17.1245 13.8667 17.06 13.928C16.9681 14.0176 16.8968 14.1261 16.851 14.246C16.7998 14.3646 16.7749 14.4929 16.778 14.622C16.7808 14.711 16.7637 14.7994 16.728 14.881L17.014 15.001C17.0654 14.8828 17.0906 14.7549 17.088 14.626C17.0852 14.537 17.1023 14.4486 17.138 14.367C17.1687 14.2837 17.2179 14.2084 17.282 14.147C17.4632 13.9618 17.5648 13.7131 17.565 13.454C17.5621 13.365 17.5792 13.2765 17.615 13.195C17.6458 13.1123 17.695 13.0378 17.759 12.977C17.7899 12.9453 17.8189 12.9119 17.846 12.877V15.157H18.156V12.636C18.1853 12.7102 18.1999 12.7893 18.199 12.869C18.196 12.9975 18.221 13.1251 18.272 13.243C18.3174 13.3634 18.3888 13.4723 18.481 13.562C18.5449 13.6232 18.5941 13.6981 18.625 13.781C18.6607 13.8626 18.6778 13.951 18.675 14.04C18.6725 14.1689 18.6977 14.2968 18.749 14.415C18.7945 14.5356 18.8659 14.6448 18.958 14.735C19.0219 14.7962 19.0711 14.8711 19.102 14.954L19.389 14.833C19.3432 14.7123 19.2715 14.6031 19.179 14.513C19.1151 14.4518 19.0658 14.3769 19.035 14.294C18.9993 14.2124 18.9822 14.124 18.985 14.035C18.9875 13.9061 18.9623 13.7782 18.911 13.66C18.8656 13.5401 18.7946 13.4316 18.703 13.342C18.639 13.2805 18.5897 13.2053 18.559 13.122C18.5234 13.0411 18.5063 12.9533 18.509 12.865C18.5081 12.8202 18.5048 12.7755 18.499 12.731L20.085 14.344L20.305 14.121L18.725 12.513C18.7708 12.5191 18.8168 12.5225 18.863 12.523C18.9501 12.5196 19.0367 12.5368 19.116 12.573C19.1975 12.6047 19.2707 12.6546 19.33 12.719C19.4173 12.8116 19.5238 12.884 19.642 12.931C19.7573 12.9828 19.8827 13.0081 20.009 13.005C20.0955 13.0049 20.1812 13.0222 20.2609 13.0558C20.3406 13.0895 20.4128 13.1389 20.473 13.201C20.5603 13.2936 20.6668 13.366 20.785 13.413L20.904 13.121C20.8226 13.0896 20.7497 13.0396 20.691 12.975C20.6037 12.8824 20.4972 12.81 20.379 12.763C20.2636 12.7116 20.1382 12.6866 20.012 12.69C19.9251 12.6902 19.839 12.6728 19.7589 12.6389C19.6789 12.6051 19.6065 12.5555 19.546 12.493C19.4589 12.4002 19.3523 12.3278 19.234 12.281C19.1185 12.2287 18.9927 12.2034 18.866 12.207C18.7811 12.2092 18.6967 12.1924 18.619 12.158H21.104L21.103 11.842Z"
		fill="#F09146"
	/>
	<path
		d="M18 10.421C18.3137 10.4154 18.6219 10.5034 18.8854 10.6736C19.1489 10.8439 19.3558 11.0887 19.4796 11.3769C19.6035 11.6652 19.6388 11.9837 19.5809 12.2921C19.5231 12.6004 19.3747 12.8846 19.1548 13.1083C18.9349 13.332 18.6534 13.4852 18.3461 13.5484C18.0388 13.6116 17.7196 13.5818 17.4293 13.4629C17.139 13.3441 16.8906 13.1414 16.7159 12.8809C16.5411 12.6204 16.4479 12.3137 16.448 12C16.4445 11.5848 16.6061 11.1853 16.8971 10.8892C17.1881 10.5931 17.5848 10.4247 18 10.421Z"
		fill="#FFE15A"
	/>
</svg>
