<svg viewBox="0 0 36 24" fill="none" xmlns="http://www.w3.org/2000/svg">
	<path d="M36 0V2.526H0V0H36ZM0 21.474V24H36V21.474H0Z" fill="#FF4B55" />
	<path d="M0 2.526H36V21.474H0V2.526Z" fill="#41479B" />
	<path
		d="M18 3.79C20.1587 3.80875 22.2216 4.68425 23.7348 6.22391C25.248 7.76357 26.0876 9.84129 26.069 12C26.0859 13.0703 25.8896 14.1333 25.4917 15.1271C25.0937 16.1208 24.502 17.0254 23.7511 17.7883C23.0001 18.5512 22.1049 19.157 21.1176 19.5705C20.1302 19.9841 19.0705 20.197 18 20.197C16.9295 20.197 15.8698 19.9841 14.8824 19.5705C13.8951 19.157 12.9999 18.5512 12.2489 17.7883C11.498 17.0254 10.9063 16.1208 10.5083 15.1271C10.1104 14.1333 9.91415 13.0703 9.931 12C9.91235 9.84129 10.752 7.76357 12.2652 6.22391C13.7784 4.68425 15.8413 3.80875 18 3.79Z"
		fill="#F5F5F5"
	/>
	<path
		d="M15.497 8.306H15.433L15.32 8.023C15.1301 8.08268 14.9274 8.08925 14.734 8.042C14.67 7.834 14.777 7.63 15.086 7.624C15.446 7.617 15.446 7.787 15.446 7.787C15.652 7.781 15.497 8.307 15.497 8.307V8.306ZM20.949 7.624C20.589 7.617 20.589 7.787 20.589 7.787C20.383 7.781 20.538 8.307 20.538 8.307H20.602L20.715 8.023C20.9049 8.08268 21.1076 8.08925 21.301 8.042C21.365 7.834 21.258 7.63 20.949 7.624Z"
		fill="#464655"
	/>
	<path
		d="M16.452 15.793V16.317L15.207 16.528C15.1698 16.534 15.1318 16.5317 15.0955 16.5215C15.0593 16.5112 15.0257 16.4932 14.9971 16.4686C14.9685 16.4441 14.9457 16.4136 14.9301 16.3793C14.9146 16.345 14.9067 16.3077 14.907 16.27V15.793H16.452ZM19.541 15.793V16.317L20.786 16.528C20.8232 16.534 20.8612 16.5317 20.8975 16.5215C20.9337 16.5112 20.9673 16.4932 20.9959 16.4686C21.0245 16.4441 21.0473 16.4136 21.0629 16.3793C21.0784 16.345 21.0863 16.3077 21.086 16.27V15.793H19.541ZM19.925 10.483C19.9269 10.4348 19.9097 10.3878 19.8771 10.3522C19.8445 10.3166 19.7992 10.2953 19.751 10.293H16.239C16.1906 10.2951 16.1451 10.3162 16.1123 10.3519C16.0795 10.3875 16.0621 10.4346 16.064 10.483V12.65C16.0512 13.2702 16.2296 13.8794 16.5748 14.3947C16.9201 14.9101 17.4156 15.3068 17.994 15.531C18.5725 15.3071 19.068 14.9106 19.4135 14.3954C19.7589 13.8802 19.9375 13.2712 19.925 12.651V10.483Z"
		fill="#82AFFF"
	/>
	<path
		d="M19.527 14.222H16.462C16.5082 14.3118 16.559 14.3993 16.614 14.484H19.374C19.4294 14.3993 19.4805 14.3119 19.527 14.222Z"
		fill="#4173CD"
	/>
	<path
		d="M19.925 10.483V12.65C19.9147 13.0612 19.836 13.4677 19.692 13.853L17.995 12.126V10.293H19.751C19.7992 10.2953 19.8445 10.3166 19.8771 10.3522C19.9097 10.3878 19.9269 10.4348 19.925 10.483ZM17.995 15.532C18.3393 15.4268 18.6567 15.248 18.925 15.008H17.065C17.3333 15.248 17.6507 15.4268 17.995 15.532Z"
		fill="#FFE15A"
	/>
	<path
		d="M22.86 9.993C22.769 10.009 22.741 9.813 22.692 9.777C22.643 9.741 21.724 9.264 21.724 9.264L20.371 8.556L20.023 8.582L18.791 7.93C18.7702 7.91872 18.7519 7.90342 18.7371 7.885C18.7223 7.86657 18.7114 7.84538 18.7049 7.82267C18.6983 7.79996 18.6964 7.77618 18.6992 7.75271C18.702 7.72925 18.7094 7.70657 18.721 7.686L18.784 7.572C18.8054 7.5332 18.841 7.50417 18.8832 7.49094C18.9255 7.47771 18.9713 7.48132 19.011 7.501L20.305 8.141L20.442 8.361C21.2533 8.80651 22.0893 9.20549 22.946 9.556C23.009 9.58 23.109 9.533 23.128 9.573C23.212 9.743 22.926 9.981 22.86 9.993ZM21.49 10.603L20.404 10.637C20.3818 10.665 20.3684 10.6989 20.3655 10.7346C20.3627 10.7702 20.3705 10.8058 20.388 10.837C20.7595 10.9612 21.1633 10.9481 21.526 10.8C21.5405 10.7675 21.5448 10.7314 21.5384 10.6964C21.532 10.6614 21.5151 10.6292 21.49 10.604V10.603ZM18.374 13.141V13.001L18.17 13.07L18.374 13.141ZM17.527 13.141V13.001L17.323 13.07L17.527 13.141ZM17.951 13.041V12.899L17.747 12.969L17.951 13.041ZM17.861 12.051C17.856 12.036 17.856 12.003 17.796 12.021C17.766 12.029 17.724 12.048 17.713 12.033L17.671 11.993L17.571 11.898C17.4881 11.8173 17.4094 11.7326 17.335 11.644L17.209 11.493C17.169 11.439 17.122 11.39 17.084 11.333C17.0709 11.297 17.0598 11.2603 17.051 11.223C17.0364 11.1921 17.0164 11.164 16.992 11.14L16.866 10.99C16.7921 10.9009 16.7154 10.8142 16.636 10.73C16.5822 10.6716 16.5268 10.6145 16.47 10.559C16.4606 10.5496 16.4495 10.5421 16.4372 10.537C16.4249 10.532 16.4118 10.5293 16.3985 10.5293C16.3852 10.5293 16.3721 10.532 16.3598 10.537C16.3475 10.5421 16.3364 10.5496 16.327 10.559L16.213 10.671C16.1939 10.69 16.1827 10.7156 16.1818 10.7425C16.1809 10.7694 16.1902 10.7957 16.208 10.816C16.247 10.86 16.302 10.921 16.371 10.99C16.441 11.063 16.524 11.148 16.618 11.234L16.76 11.368C16.7827 11.3933 16.8098 11.4143 16.84 11.43C16.8761 11.4405 16.9115 11.4532 16.946 11.468C17.001 11.508 17.048 11.558 17.099 11.601L17.243 11.734C17.3274 11.8129 17.4079 11.896 17.484 11.983L17.574 12.089L17.611 12.133C17.626 12.144 17.606 12.186 17.596 12.216C17.577 12.276 17.609 12.278 17.625 12.285C17.6382 12.286 17.6515 12.2843 17.664 12.28L17.856 12.092C17.8606 12.0792 17.8627 12.0656 17.862 12.052L17.861 12.051Z"
		fill="#BE7855"
	/>
	<path
		d="M14.596 14.615C14.596 14.615 14.682 15.002 14.601 15.045C14.52 15.088 14.091 15.09 14.103 14.997C14.113 14.904 14.173 14.577 14.173 14.577L14.596 14.615ZM15.309 14.407C15.309 14.407 15.239 14.697 15.379 14.707C15.6957 14.7192 16.0129 14.7138 16.329 14.691C16.3479 14.6676 16.364 14.6421 16.377 14.615L15.647 14.407H15.309ZM16.827 10.315C16.718 10.2265 16.5841 10.1741 16.444 10.1651C16.3038 10.1562 16.1644 10.1911 16.045 10.265C16.048 9.88913 16.0087 9.51411 15.928 9.147C15.832 9.04 15.534 9.097 15.475 8.961C15.4212 8.74488 15.4288 8.51803 15.497 8.306C15.561 8.028 15.234 7.832 15.234 7.832L14.746 7.952L14.734 8.042C14.734 8.042 14.702 8.619 14.887 8.775C14.887 8.775 14.927 8.893 14.863 8.951C14.799 9.009 14.163 9.335 14.163 9.335C14.0796 9.50645 14.0255 9.69067 14.003 9.88C14.003 9.88 13.845 9.818 13.861 9.74C13.877 9.663 13.97 9.458 13.941 9.36C13.9327 9.33327 13.9142 9.3109 13.8894 9.29779C13.8647 9.28468 13.8358 9.28187 13.809 9.29C13.809 9.29 13.757 9.348 13.841 9.384L13.813 9.507L13.471 9.712L13.547 9.806C13.547 9.806 13.551 10.526 13.97 10.62C13.97 10.62 14.191 10.637 14.452 10.13C14.5311 10.2746 14.5636 10.4402 14.545 10.604C14.7147 10.6814 14.8982 10.7241 15.0847 10.7298C15.2711 10.7355 15.4569 10.7039 15.631 10.637L15.639 10.195C15.639 10.195 15.736 10.874 16.065 10.808C16.065 10.808 16.979 10.451 16.827 10.315ZM13.647 9.115C13.207 9.218 13.282 9.458 13.389 9.48C13.451 9.492 13.652 9.354 13.722 9.278C13.7366 9.2644 13.7466 9.24655 13.7505 9.22697C13.7544 9.20739 13.752 9.18708 13.7437 9.16893C13.7354 9.15078 13.7216 9.1357 13.7042 9.12584C13.6869 9.11598 13.6668 9.11284 13.647 9.115Z"
		fill="#FFBE3C"
	/>
	<path
		d="M19.751 10.293C19.7992 10.2953 19.8445 10.3166 19.8771 10.3522C19.9097 10.3878 19.9269 10.4348 19.925 10.483V12.65C19.9378 13.2702 19.7587 13.88 19.4135 14.3954C19.0682 14.9108 18.5734 15.3078 17.995 15.532C17.4165 15.3081 16.9203 14.91 16.5748 14.3947C16.2294 13.8795 16.0515 13.2712 16.064 12.651V10.483C16.0621 10.4346 16.0795 10.3865 16.1123 10.3509C16.1451 10.3152 16.1906 10.2941 16.239 10.292H19.751M19.751 10.162H16.239C16.1563 10.1644 16.078 10.1993 16.021 10.2593C15.964 10.3193 15.9331 10.3993 15.935 10.482V12.65C15.947 13.1668 16.0641 13.6758 16.279 14.146C16.4336 14.5036 16.6635 14.8237 16.9531 15.0843C17.2427 15.3449 17.5851 15.5399 17.957 15.656L17.995 15.668L18.032 15.657C18.4039 15.5409 18.7463 15.3459 19.0359 15.0853C19.3255 14.8247 19.5554 14.5046 19.71 14.147C19.9251 13.6765 20.0422 13.1672 20.054 12.65V10.482C20.0559 10.3995 20.0251 10.3196 19.9684 10.2596C19.9116 10.1997 19.8335 10.1646 19.751 10.162Z"
		fill="#464655"
	/>
	<path
		d="M14.79 14.55L14.547 14.698C14.513 14.719 14.474 14.7309 14.4341 14.7323C14.3941 14.7337 14.3544 14.7246 14.319 14.706L14.07 14.574C14.1843 14.0134 14.2436 13.4431 14.247 12.871C14.236 12.1721 14.3243 11.4751 14.509 10.801L15.647 10.837C15.776 11.534 15.905 14.495 15.905 14.495C15.6854 14.4971 15.4661 14.4787 15.25 14.44C15.25 14.44 15.261 13.076 15.261 12.792C15.2371 12.5588 15.1678 12.3326 15.057 12.126C14.8137 12.9091 14.7228 13.7316 14.789 14.549L14.79 14.55ZM21.787 12.871C21.7983 12.1721 21.7104 11.4742 21.526 10.8L20.388 10.837C20.258 11.534 20.13 14.495 20.13 14.495C20.3492 14.497 20.5682 14.4786 20.784 14.44C20.784 14.44 20.774 13.076 20.774 12.792C20.7979 12.5588 20.8672 12.3326 20.978 12.126C21.2213 12.9091 21.3122 13.7316 21.246 14.549L21.487 14.699C21.5213 14.7203 21.5607 14.7321 21.6011 14.7333C21.6414 14.7346 21.6814 14.7251 21.717 14.706L21.964 14.574C21.8497 14.0134 21.7904 13.4431 21.787 12.871ZM15.927 8.989C16.073 8.99209 16.2175 8.95966 16.3481 8.89451C16.4788 8.82936 16.5916 8.73344 16.677 8.615C16.5824 8.59042 16.4969 8.53919 16.4306 8.46739C16.3643 8.39559 16.32 8.30625 16.303 8.21C16.303 8.114 16.227 8.002 16.164 7.997C16.0388 8.04783 15.9175 8.10765 15.801 8.176C15.801 8.176 15.756 8.194 15.782 8.261C15.8839 8.48989 15.9337 8.73853 15.928 8.989H15.927ZM16.064 10.483V12.65C16.0746 13.0612 16.1537 13.4678 16.298 13.853L17.995 12.126V10.293H16.239C16.1906 10.2951 16.1451 10.3162 16.1123 10.3519C16.0795 10.3875 16.0621 10.4346 16.064 10.483ZM17.337 13.177C17.1806 13.3484 17.053 13.5439 16.959 13.756L17.269 13.876L17.337 13.177ZM17.817 13.727C17.8071 13.7273 17.7977 13.7314 17.7908 13.7385C17.7839 13.7456 17.78 13.7551 17.78 13.765V13.939C17.7799 13.9441 17.7808 13.9491 17.7826 13.9538C17.7845 13.9586 17.7872 13.9629 17.7908 13.9665C17.7943 13.9702 17.7985 13.973 17.8032 13.975C17.8079 13.977 17.8129 13.978 17.818 13.978H18.128C18.1382 13.9777 18.1478 13.9735 18.1549 13.9662C18.162 13.9589 18.166 13.9492 18.166 13.939V13.765C18.166 13.7549 18.162 13.7453 18.1549 13.7381C18.1477 13.731 18.1381 13.727 18.128 13.727H17.817ZM18.166 13.43C18.1661 13.4249 18.1652 13.4199 18.1634 13.4152C18.1615 13.4104 18.1588 13.4061 18.1552 13.4025C18.1517 13.3988 18.1475 13.396 18.1428 13.394C18.1381 13.392 18.1331 13.391 18.128 13.391H17.818C17.8128 13.391 17.8077 13.392 17.803 13.3941C17.7982 13.3961 17.794 13.3991 17.7904 13.4028C17.7868 13.4066 17.7841 13.411 17.7823 13.4158C17.7805 13.4207 17.7797 13.4258 17.78 13.431V13.604C17.7799 13.6091 17.7808 13.6141 17.7826 13.6188C17.7845 13.6236 17.7872 13.6279 17.7908 13.6315C17.7943 13.6352 17.7985 13.638 17.8032 13.64C17.8079 13.642 17.8129 13.643 17.818 13.643H18.128C18.1382 13.6427 18.1478 13.6385 18.1549 13.6312C18.162 13.6239 18.166 13.6142 18.166 13.604V13.43ZM17.78 13.121V13.295C17.7797 13.3002 17.7805 13.3053 17.7823 13.3102C17.7841 13.315 17.7868 13.3194 17.7904 13.3232C17.794 13.3269 17.7982 13.3299 17.803 13.3319C17.8077 13.334 17.8128 13.335 17.818 13.335H18.128C18.1331 13.3349 18.1382 13.3337 18.1429 13.3317C18.1475 13.3296 18.1518 13.3266 18.1553 13.3229C18.1588 13.3192 18.1616 13.3148 18.1634 13.31C18.1653 13.3052 18.1661 13.3001 18.166 13.295V13.121C18.166 13.1109 18.162 13.1013 18.1549 13.0941C18.1477 13.087 18.1381 13.083 18.128 13.083H17.818C17.8079 13.083 17.7983 13.087 17.7911 13.0941C17.784 13.1013 17.78 13.1109 17.78 13.121ZM18.268 13.727C18.2579 13.727 18.2483 13.731 18.2411 13.7381C18.234 13.7453 18.23 13.7549 18.23 13.765V13.939C18.2299 13.9441 18.2308 13.9491 18.2326 13.9538C18.2345 13.9586 18.2372 13.9629 18.2408 13.9665C18.2443 13.9702 18.2485 13.973 18.2532 13.975C18.2579 13.977 18.2629 13.978 18.268 13.978H18.526C18.5362 13.9777 18.5458 13.9735 18.5529 13.9662C18.56 13.9589 18.564 13.9492 18.564 13.939V13.765C18.564 13.7549 18.56 13.7453 18.5529 13.7381C18.5457 13.731 18.5361 13.727 18.526 13.727H18.268ZM18.564 13.497C18.5643 13.4918 18.5635 13.4867 18.5617 13.4818C18.5599 13.477 18.5572 13.4726 18.5536 13.4688C18.55 13.4651 18.5458 13.4621 18.541 13.4601C18.5363 13.458 18.5312 13.457 18.526 13.457H18.268C18.2628 13.457 18.2577 13.458 18.253 13.4601C18.2482 13.4621 18.244 13.4651 18.2404 13.4688C18.2368 13.4726 18.2341 13.477 18.2323 13.4818C18.2305 13.4867 18.2297 13.4918 18.23 13.497V13.631C18.23 13.6411 18.234 13.6507 18.2411 13.6579C18.2483 13.665 18.2579 13.669 18.268 13.669H18.526C18.5361 13.669 18.5457 13.665 18.5529 13.6579C18.56 13.6507 18.564 13.6411 18.564 13.631V13.497ZM18.564 13.224C18.5641 13.2189 18.5632 13.2139 18.5614 13.2092C18.5595 13.2044 18.5568 13.2001 18.5532 13.1965C18.5497 13.1928 18.5455 13.19 18.5408 13.188C18.5361 13.186 18.5311 13.185 18.526 13.185H18.268C18.2628 13.185 18.2577 13.186 18.253 13.1881C18.2482 13.1901 18.244 13.1931 18.2404 13.1968C18.2368 13.2006 18.2341 13.205 18.2323 13.2098C18.2305 13.2147 18.2297 13.2198 18.23 13.225V13.325C18.23 13.3351 18.234 13.3447 18.2411 13.3519C18.2483 13.359 18.2579 13.363 18.268 13.363H18.526C18.5361 13.363 18.5457 13.359 18.5529 13.3519C18.56 13.3447 18.564 13.3351 18.564 13.325V13.224ZM17.678 13.727H17.421C17.4109 13.727 17.4013 13.731 17.3941 13.7381C17.387 13.7453 17.383 13.7549 17.383 13.765V13.939C17.3829 13.9441 17.3838 13.9491 17.3856 13.9538C17.3875 13.9586 17.3902 13.9629 17.3938 13.9665C17.3973 13.9702 17.4015 13.973 17.4062 13.975C17.4109 13.977 17.4159 13.978 17.421 13.978H17.678C17.6832 13.9781 17.6883 13.9772 17.6931 13.9753C17.6979 13.9734 17.7022 13.9705 17.7059 13.9669C17.7095 13.9632 17.7124 13.9589 17.7143 13.9541C17.7162 13.9493 17.7171 13.9442 17.717 13.939V13.765C17.717 13.7599 17.716 13.7549 17.714 13.7502C17.712 13.7455 17.7092 13.7413 17.7055 13.7378C17.7019 13.7342 17.6976 13.7314 17.6929 13.7296C17.6881 13.7278 17.6831 13.7269 17.678 13.727ZM17.717 13.497C17.7173 13.4918 17.7165 13.4865 17.7146 13.4816C17.7128 13.4767 17.7099 13.4722 17.7063 13.4685C17.7026 13.4647 17.6982 13.4617 17.6933 13.4598C17.6885 13.4578 17.6832 13.4569 17.678 13.457H17.421C17.4158 13.457 17.4107 13.458 17.406 13.4601C17.4012 13.4621 17.397 13.4651 17.3934 13.4688C17.3898 13.4726 17.3871 13.477 17.3853 13.4818C17.3835 13.4867 17.3827 13.4918 17.383 13.497V13.631C17.383 13.6411 17.387 13.6507 17.3941 13.6579C17.4013 13.665 17.4109 13.669 17.421 13.669H17.678C17.6831 13.6691 17.6881 13.6682 17.6929 13.6664C17.6976 13.6646 17.7019 13.6618 17.7055 13.6582C17.7092 13.6547 17.712 13.6505 17.714 13.6458C17.716 13.6411 17.717 13.6361 17.717 13.631V13.497ZM17.717 13.224C17.7171 13.2188 17.7162 13.2137 17.7143 13.2089C17.7124 13.2041 17.7095 13.1998 17.7059 13.1961C17.7022 13.1925 17.6979 13.1896 17.6931 13.1877C17.6883 13.1858 17.6832 13.1849 17.678 13.185H17.421C17.4158 13.185 17.4107 13.186 17.406 13.1881C17.4012 13.1901 17.397 13.1931 17.3934 13.1968C17.3898 13.2006 17.3871 13.205 17.3853 13.2098C17.3835 13.2147 17.3827 13.2198 17.383 13.225V13.325C17.383 13.3351 17.387 13.3447 17.3941 13.3519C17.4013 13.359 17.4109 13.363 17.421 13.363H17.678C17.6831 13.3631 17.6881 13.3622 17.6929 13.3604C17.6976 13.3585 17.7019 13.3558 17.7055 13.3522C17.7092 13.3487 17.712 13.3445 17.714 13.3398C17.716 13.3351 17.717 13.3301 17.717 13.325V13.224ZM18.465 11.5C18.496 11.25 18.817 11.019 18.817 11.019L18.621 10.784C18.4956 10.9314 18.3233 11.0314 18.133 11.067C18.1435 11.1626 18.1799 11.2536 18.2385 11.3299C18.297 11.4063 18.3754 11.4651 18.465 11.5ZM18.615 12.23L19.74 11.075L19.495 10.772L18.344 11.922L18.615 12.23ZM19.398 15.837C18.9969 16.1482 18.5037 16.3171 17.996 16.3171C17.4883 16.3171 16.9951 16.1482 16.594 15.837C16.3552 15.6597 16.0775 15.5422 15.7839 15.4944C15.4904 15.4465 15.1897 15.4697 14.907 15.562V16.124C15.1313 16.0151 15.3816 15.9714 15.6295 15.9979C15.8774 16.0244 16.1129 16.1201 16.309 16.274C16.7943 16.6424 17.3868 16.8418 17.996 16.8418C18.6052 16.8418 19.1977 16.6424 19.683 16.274C19.879 16.1199 20.1145 16.0241 20.3624 15.9976C20.6104 15.971 20.8608 16.0149 21.085 16.124V15.562C20.8023 15.4696 20.5016 15.4464 20.208 15.4942C19.9145 15.5421 19.6367 15.6596 19.398 15.837Z"
		fill="#DEDEDE"
	/>
	<path
		d="M15.657 10.665C15.6792 10.693 15.6926 10.7269 15.6955 10.7626C15.6983 10.7982 15.6905 10.8338 15.673 10.865C15.3016 10.9896 14.8978 10.9768 14.535 10.829C14.5203 10.7964 14.5158 10.7601 14.5222 10.7249C14.5287 10.6897 14.5457 10.6573 14.571 10.632L15.657 10.665ZM16.321 8.005C15.5042 8.46522 14.6569 8.86916 13.785 9.214C13.451 9.34 12.943 9.656 12.975 9.907C13.008 10.157 13.183 10.097 13.237 10.035C13.3186 9.93231 13.4054 9.83385 13.497 9.74C13.547 9.705 14.337 9.292 14.337 9.292L16.429 8.197C16.4303 8.15817 16.4209 8.11973 16.4019 8.08587C16.3828 8.05201 16.3549 8.02404 16.321 8.005ZM16.577 8.935C16.6055 8.99489 16.6505 9.04546 16.7066 9.08086C16.7627 9.11625 16.8277 9.13503 16.894 9.135H17.348C17.378 9.13498 17.4075 9.1434 17.4329 9.15932C17.4584 9.17524 17.4789 9.198 17.492 9.225L17.624 9.493C17.6531 9.55283 17.6681 9.61849 17.668 9.685V9.865C17.6684 9.96063 17.6903 10.055 17.732 10.141H17.63C17.5824 10.1406 17.5361 10.1256 17.4974 10.098C17.4586 10.0705 17.4291 10.0318 17.413 9.987L17.34 9.788L17.16 9.857L17.232 10.056C17.292 10.224 17.333 10.252 17.512 10.254L17.862 10.246H18.376V9.456C18.376 9.34776 18.3625 9.23994 18.336 9.135H19.148V7.989H18.955V8.939H18.269C18.2333 8.85595 18.1891 8.77686 18.137 8.703L18.883 6.981L18.707 6.901L18.008 8.513C17.9122 8.34548 17.8616 8.15596 17.861 7.963V7.203H17.668V7.629H17.658C17.6305 7.62899 17.6037 7.62118 17.5805 7.60648C17.5573 7.59179 17.5387 7.57082 17.527 7.546L17.337 7.159L17.164 7.247L17.354 7.634C17.3814 7.6911 17.4244 7.7393 17.478 7.77309C17.5316 7.80687 17.5936 7.82486 17.657 7.825H17.668V7.962C17.6687 8.23665 17.7554 8.50419 17.916 8.727L17.704 9.217L17.664 9.137C17.6354 9.07745 17.5906 9.02719 17.5347 8.99199C17.4788 8.95679 17.4141 8.93807 17.348 8.938H16.894C16.864 8.93802 16.8345 8.9296 16.8091 8.91368C16.7836 8.89776 16.7631 8.875 16.75 8.848L16.564 8.468L16.391 8.556L16.577 8.935ZM16.09 8.07L15.77 7.42L15.598 7.508L15.918 8.158L16.09 8.07ZM18.168 11.935C18.1643 11.9512 18.1668 11.9681 18.1752 11.9824C18.1836 11.9967 18.1971 12.0073 18.213 12.012C18.229 12.016 18.246 12.0135 18.2602 12.005C18.2744 11.9966 18.2848 11.983 18.289 11.967C18.2932 11.9529 18.3024 11.9408 18.315 11.933C18.3267 11.9307 18.3387 11.9307 18.3504 11.9331C18.3621 11.9355 18.3732 11.9402 18.383 11.947C18.3975 11.9548 18.4144 11.9566 18.4302 11.9519C18.4459 11.9472 18.4592 11.9364 18.467 11.922V11.921C18.472 11.9118 18.4748 11.9015 18.475 11.891C18.4749 11.8795 18.4717 11.8682 18.4657 11.8583C18.4597 11.8485 18.4512 11.8404 18.441 11.835C18.415 11.8182 18.3855 11.8078 18.3547 11.8046C18.3239 11.8015 18.2928 11.8057 18.264 11.817C18.2405 11.8287 18.2199 11.8453 18.2033 11.8657C18.1868 11.886 18.1747 11.9097 18.168 11.935ZM17.404 11.072C17.394 11.0643 17.3827 11.0587 17.3705 11.0554C17.3584 11.0521 17.3457 11.0513 17.3332 11.053C17.3208 11.0547 17.3088 11.0588 17.2979 11.0652C17.2871 11.0715 17.2776 11.08 17.27 11.09L17.269 11.093L16.352 12.359C16.337 12.38 16.3307 12.406 16.3345 12.4315C16.3382 12.4571 16.3516 12.4802 16.372 12.496C16.3883 12.5087 16.4083 12.5157 16.429 12.516C16.4442 12.516 16.4593 12.5124 16.4728 12.5054C16.4864 12.4985 16.4981 12.4884 16.507 12.476L17.424 11.209C17.439 11.188 17.4453 11.162 17.4415 11.1365C17.4378 11.1109 17.4244 11.0878 17.404 11.072ZM22.219 9.412C22.304 9.376 22.252 9.319 22.252 9.319C22.2387 9.31483 22.2247 9.31333 22.2107 9.31459C22.1968 9.31585 22.1833 9.31985 22.1709 9.32635C22.1586 9.33286 22.1476 9.34174 22.1387 9.35249C22.1298 9.36324 22.1231 9.37565 22.119 9.389C22.091 9.487 22.183 9.691 22.199 9.769C22.215 9.847 22.059 9.909 22.059 9.909C22.0362 9.71961 21.9818 9.53539 21.898 9.364C21.898 9.364 21.262 9.036 21.198 8.979C21.134 8.922 21.174 8.803 21.174 8.803C21.359 8.647 21.327 8.07 21.327 8.07L21.314 7.98L20.827 7.86C20.827 7.86 20.499 8.057 20.564 8.335C20.6319 8.54711 20.6392 8.77398 20.585 8.99C20.526 9.126 20.229 9.069 20.132 9.175C20.0377 9.54908 19.9848 9.93237 19.974 10.318L19.995 10.837C20.325 10.903 20.422 10.223 20.422 10.223L20.43 10.665C20.6041 10.7319 20.7899 10.7634 20.9763 10.7577C21.1628 10.7521 21.3462 10.7093 21.516 10.632C21.4971 10.4683 21.5292 10.3028 21.608 10.158C21.87 10.665 22.091 10.648 22.091 10.648C22.509 10.555 22.513 9.834 22.513 9.834L22.59 9.74L22.248 9.536L22.219 9.412ZM18.446 14.086V13.029H18.4V14.086H18.021V12.928H17.975V14.086H17.598V13.029H17.553V14.086H17.528L16.882 13.826L17.329 14.306H18.573L18.837 13.962L18.533 14.086H18.446ZM22.409 9.253C22.338 9.235 22.275 9.34 22.339 9.417C22.404 9.493 22.591 9.631 22.648 9.619C22.748 9.597 22.818 9.357 22.409 9.253ZM18.432 10.885L19.655 12.419C19.655 12.419 19.827 12.427 19.804 12.289L18.538 10.777L18.432 10.885ZM24.551 12.149C24.5513 13.8877 23.8622 15.5557 22.6348 16.7872C21.4074 18.0188 19.7417 18.7134 18.003 18.719H17.99C16.2524 18.7187 14.5859 18.0291 13.3563 16.8015C12.1266 15.5739 11.4342 13.9086 11.431 12.171C11.431 12.083 11.433 11.994 11.436 11.906C11.4585 10.1732 12.1561 8.51754 13.3804 7.29114C14.6048 6.06474 16.2592 5.36438 17.992 5.339C19.7639 5.37526 21.4491 6.11237 22.6785 7.38883C23.9079 8.66529 24.5813 10.377 24.551 12.149ZM24.301 12.148V12.145C24.3307 10.4396 23.6834 8.79191 22.5006 7.5629C21.3179 6.33388 19.6963 5.62373 17.991 5.588C16.3235 5.61339 14.7317 6.28824 13.5541 7.46905C12.3765 8.64985 11.7059 10.2435 11.685 11.911C11.6819 11.9976 11.6802 12.0843 11.68 12.171C11.6829 13.8426 12.349 15.4448 13.532 16.6257C14.7151 17.8067 16.3184 18.47 17.99 18.47H18.003C19.676 18.4652 21.2788 17.7969 22.4596 16.6116C23.6403 15.4263 24.3026 13.821 24.301 12.148Z"
		fill="#965032"
	/>
	<path
		d="M16.194 9.663C16.1932 9.55974 16.2334 9.46037 16.3057 9.3867C16.3781 9.31302 16.4767 9.27106 16.58 9.27H17.353C17.4572 9.27 17.5572 9.31141 17.6309 9.38511C17.7046 9.45881 17.746 9.55877 17.746 9.663C17.746 9.76723 17.7046 9.86719 17.6309 9.94089C17.5572 10.0146 17.4572 10.056 17.353 10.056H16.58C16.4767 10.0549 16.3781 10.013 16.3057 9.9393C16.2334 9.86563 16.1932 9.76626 16.194 9.663ZM20.313 8.877C20.3138 8.77374 20.2736 8.67437 20.2013 8.6007C20.1289 8.52702 20.0303 8.48506 19.927 8.484H18.897C18.8454 8.48393 18.7943 8.49403 18.7466 8.51372C18.6989 8.53341 18.6555 8.56231 18.619 8.59875C18.5452 8.67236 18.5036 8.77227 18.5035 8.8765C18.5034 8.98073 18.5446 9.08074 18.6183 9.15454C18.6919 9.22833 18.7918 9.26987 18.896 9.27H18.382C18.2778 9.27 18.1778 9.31141 18.1041 9.38511C18.0304 9.45881 17.989 9.55877 17.989 9.663C17.989 9.76723 18.0304 9.86719 18.1041 9.94089C18.1778 10.0146 18.2778 10.056 18.382 10.056H19.155C19.2592 10.056 19.3592 10.0146 19.4329 9.94089C19.5066 9.86719 19.548 9.76723 19.548 9.663C19.548 9.55877 19.5066 9.45881 19.4329 9.38511C19.3592 9.31141 19.2592 9.27 19.155 9.27H19.927C20.0303 9.26894 20.1289 9.22698 20.2013 9.1533C20.2736 9.07963 20.3138 8.98026 20.313 8.877ZM20.57 7.829C20.5708 7.72574 20.5306 7.62637 20.4583 7.5527C20.3859 7.47902 20.2873 7.43706 20.184 7.436H18.382C18.2778 7.436 18.1778 7.47741 18.1041 7.55111C18.0304 7.62481 17.989 7.72477 17.989 7.829C17.989 7.93323 18.0304 8.03319 18.1041 8.10689C18.1778 8.18059 18.2778 8.222 18.382 8.222H20.184C20.2873 8.22094 20.3859 8.17898 20.4583 8.1053C20.5306 8.03163 20.5708 7.93226 20.57 7.829ZM18.254 6.781C18.2532 6.88426 18.2934 6.98363 18.3657 7.0573C18.4381 7.13098 18.5367 7.17294 18.64 7.174H19.155C19.2557 7.16892 19.3505 7.12535 19.42 7.0523C19.4895 6.97924 19.5282 6.8823 19.5282 6.7815C19.5282 6.6807 19.4895 6.58376 19.42 6.5107C19.3505 6.43765 19.2557 6.39408 19.155 6.389H18.64C18.5369 6.39006 18.4384 6.43189 18.3661 6.50534C18.2938 6.5788 18.2535 6.67791 18.254 6.781ZM15.551 6.912C15.4468 6.912 15.3468 6.95341 15.2731 7.02711C15.1994 7.10081 15.158 7.20077 15.158 7.305C15.158 7.40923 15.1994 7.50919 15.2731 7.58289C15.3468 7.65659 15.4468 7.698 15.551 7.698H15.808C15.9122 7.698 16.0122 7.65659 16.0859 7.58289C16.1596 7.50919 16.201 7.40923 16.201 7.305C16.201 7.20077 16.1596 7.10081 16.0859 7.02711C16.0122 6.95341 15.9122 6.912 15.808 6.912H15.551ZM17.996 7.043C17.9968 6.93974 17.9566 6.84037 17.8843 6.7667C17.8119 6.69302 17.7133 6.65106 17.61 6.65H16.838C16.7338 6.65 16.6338 6.69141 16.5601 6.76511C16.4864 6.83881 16.445 6.93877 16.445 7.043C16.445 7.14723 16.4864 7.24719 16.5601 7.32089C16.6338 7.39459 16.7338 7.436 16.838 7.436H17.61C17.7133 7.43494 17.8119 7.39298 17.8843 7.3193C17.9566 7.24563 17.9968 7.14626 17.996 7.043ZM17.739 8.353C17.7398 8.24974 17.6996 8.15037 17.6273 8.0767C17.5549 8.00302 17.4563 7.96106 17.353 7.96H15.808C15.7038 7.96 15.6038 8.0014 15.5301 8.07511C15.4564 8.14881 15.415 8.24877 15.415 8.353C15.415 8.45723 15.4564 8.55719 15.5301 8.63089C15.6038 8.70459 15.7038 8.746 15.808 8.746H17.353C17.4563 8.74494 17.5549 8.70298 17.6273 8.6293C17.6996 8.55563 17.7398 8.45626 17.739 8.353ZM22.372 14.746C22.3731 14.6083 22.3194 14.4757 22.2229 14.3775C22.1263 14.2792 21.9947 14.2233 21.857 14.222H14.135C13.996 14.222 13.8627 14.2772 13.7645 14.3755C13.6662 14.4737 13.611 14.607 13.611 14.746C13.611 14.885 13.6662 15.0183 13.7645 15.1165C13.8627 15.2148 13.996 15.27 14.135 15.27H16.195C16.1942 15.4074 16.2478 15.5395 16.3441 15.6375C16.4404 15.7355 16.5716 15.7914 16.709 15.793H19.283C19.4206 15.7917 19.552 15.7359 19.6485 15.6379C19.7451 15.5398 19.7988 15.4076 19.798 15.27H21.858C21.9956 15.2684 22.1269 15.2124 22.2232 15.1142C22.3196 15.016 22.3731 14.8836 22.372 14.746ZM11.561 11.619C11.5608 11.7102 11.585 11.7999 11.6313 11.8785C11.6776 11.9571 11.7441 12.0219 11.824 12.066C11.9976 12.1656 12.1594 12.2847 12.306 12.421C12.306 12.421 12.333 11.603 11.561 11.603C10.788 11.603 10.815 12.421 10.815 12.421C10.962 12.2847 11.124 12.1656 11.298 12.066C11.3779 12.0219 11.4444 11.9571 11.4907 11.8785C11.537 11.7999 11.5612 11.7102 11.561 11.619ZM24.426 12.405C24.4264 12.3136 24.4022 12.2238 24.356 12.1449C24.3097 12.0661 24.243 12.0012 24.163 11.957C23.9894 11.8577 23.8277 11.7389 23.681 11.603C23.681 11.603 23.654 12.421 24.426 12.421C25.199 12.421 25.172 11.603 25.172 11.603C25.025 11.739 24.8629 11.8577 24.689 11.957C24.609 12.0012 24.5423 12.0661 24.496 12.1449C24.4498 12.2238 24.4256 12.3136 24.426 12.405ZM18.047 18.29C18.1445 18.1137 18.2616 17.949 18.396 17.799C18.2924 17.7917 18.1884 17.8059 18.0905 17.8408C17.9926 17.8756 17.9031 17.9304 17.8274 18.0016C17.7518 18.0729 17.6917 18.159 17.6511 18.2546C17.6104 18.3501 17.5899 18.4531 17.591 18.557C17.5898 18.661 17.6101 18.7641 17.6507 18.8598C17.6914 18.9555 17.7514 19.0417 17.8271 19.113C17.9027 19.1843 17.9923 19.2392 18.0903 19.2741C18.1882 19.3091 18.2923 19.3233 18.396 19.316C18.2616 19.166 18.1445 19.0013 18.047 18.825C18.0052 18.7443 17.9421 18.6767 17.8645 18.6294C17.7869 18.5821 17.6979 18.5571 17.607 18.557C17.6977 18.557 17.7868 18.5321 17.8643 18.485C17.9419 18.438 18.0051 18.3705 18.047 18.29ZM17.94 5.734C17.8424 5.9099 17.7253 6.07427 17.591 6.224C17.6946 6.23133 17.7986 6.2171 17.8965 6.18223C17.9944 6.14735 18.0839 6.09258 18.1596 6.02136C18.2352 5.95014 18.2953 5.86403 18.3359 5.76844C18.3766 5.67286 18.3971 5.56988 18.396 5.466C18.3971 5.36212 18.3766 5.25914 18.3359 5.16356C18.2953 5.06797 18.2352 4.98186 18.1596 4.91064C18.0839 4.83942 17.9944 4.78465 17.8965 4.74977C17.7986 4.7149 17.6946 4.70067 17.591 4.708C17.7254 4.85771 17.8424 5.02208 17.94 5.198C17.9818 5.27868 18.0449 5.34635 18.1225 5.39361C18.2001 5.44087 18.2891 5.46591 18.38 5.466C18.2891 5.46609 18.2001 5.49113 18.1225 5.53839C18.0449 5.58565 17.9818 5.65332 17.94 5.734ZM13.16 16.35C13.0872 16.4247 13.0303 16.5135 12.9928 16.6109C12.9553 16.7082 12.938 16.8122 12.9419 16.9165C12.9458 17.0208 12.9709 17.1232 13.0156 17.2175C13.0603 17.3118 13.1237 17.396 13.202 17.465C13.2114 17.2628 13.2433 17.0622 13.297 16.867C13.3232 16.7765 13.3244 16.6806 13.3002 16.5895C13.2761 16.4984 13.2276 16.4156 13.16 16.35ZM13.16 16.35C13.2234 16.4183 13.3047 16.4675 13.3947 16.4921C13.4846 16.5167 13.5796 16.5156 13.669 16.489C13.8603 16.4342 14.0573 16.4017 14.256 16.392C14.1896 16.313 14.1074 16.2487 14.0148 16.2034C13.9221 16.158 13.8209 16.1325 13.7178 16.1286C13.6147 16.1246 13.5119 16.1423 13.416 16.1804C13.3201 16.2185 13.2332 16.2763 13.161 16.35H13.16ZM22.827 7.672C22.8998 7.59728 22.9567 7.50853 22.9942 7.41115C23.0317 7.31376 23.049 7.20977 23.0451 7.10549C23.0412 7.00121 23.0161 6.89882 22.9714 6.80453C22.9267 6.71024 22.8633 6.62603 22.785 6.557C22.7756 6.75924 22.7438 6.95981 22.69 7.155C22.6638 7.24549 22.6626 7.34143 22.6868 7.43251C22.7109 7.52359 22.7594 7.60638 22.827 7.672ZM22.827 7.672C22.7637 7.6035 22.6824 7.55409 22.5925 7.52935C22.5025 7.50461 22.4075 7.50553 22.318 7.532C22.1264 7.58682 21.9291 7.61937 21.73 7.629C21.7963 7.70824 21.8785 7.77271 21.9712 7.81826C22.064 7.86381 22.1652 7.88944 22.2685 7.89349C22.3717 7.89754 22.4747 7.87992 22.5707 7.84178C22.6667 7.80363 22.7547 7.7458 22.827 7.672ZM22.257 16.929C22.3293 17.003 22.4164 17.0609 22.5125 17.0992C22.6086 17.1374 22.7117 17.1551 22.815 17.151C22.9184 17.147 23.0198 17.1213 23.1126 17.0757C23.2055 17.03 23.2877 16.9654 23.354 16.886C23.155 16.8767 22.9577 16.8445 22.766 16.79C22.6768 16.7636 22.582 16.7626 22.4922 16.7872C22.4025 16.8117 22.3204 16.8609 22.257 16.929ZM22.257 16.929C22.3248 16.8633 22.3734 16.7803 22.3975 16.689C22.4217 16.5978 22.4204 16.5016 22.394 16.411C22.3402 16.2158 22.3083 16.0152 22.299 15.813C22.2208 15.8821 22.1575 15.9664 22.1128 16.0607C22.0682 16.155 22.0432 16.2574 22.0394 16.3617C22.0356 16.466 22.053 16.57 22.0905 16.6673C22.1281 16.7647 22.1851 16.8533 22.258 16.928L22.257 16.929ZM13.73 7.093C13.6577 7.01914 13.5708 6.96124 13.4748 6.92301C13.3789 6.88477 13.2759 6.86707 13.1727 6.87102C13.0694 6.87498 12.9682 6.90051 12.8754 6.94598C12.7826 6.99144 12.7004 7.05583 12.634 7.135C12.8331 7.1446 13.0304 7.17715 13.222 7.232C13.3113 7.25827 13.4062 7.25909 13.4959 7.23435C13.5857 7.20962 13.6668 7.16132 13.73 7.093ZM13.594 7.61C13.6478 7.80518 13.6797 8.00575 13.689 8.208C13.7672 8.1389 13.8305 8.05463 13.8752 7.96031C13.9198 7.86598 13.9448 7.76357 13.9486 7.65929C13.9524 7.55501 13.935 7.45104 13.8975 7.35369C13.8599 7.25635 13.8029 7.16765 13.73 7.093C13.6626 7.15873 13.6143 7.24157 13.5903 7.33264C13.5664 7.42372 13.5676 7.51959 13.594 7.61ZM12.314 14.464C12.5121 14.4882 12.7067 14.5352 12.894 14.604C12.8627 14.5055 12.8114 14.4146 12.7433 14.337C12.6751 14.2593 12.5916 14.1966 12.4981 14.1529C12.4045 14.1091 12.3029 14.0852 12.1996 14.0826C12.0963 14.08 11.9936 14.0989 11.898 14.138C11.8026 14.1797 11.7167 14.2403 11.6455 14.3162C11.5742 14.3921 11.5191 14.4816 11.4835 14.5794C11.4479 14.6772 11.4325 14.7812 11.4382 14.8851C11.444 14.9891 11.4708 15.0907 11.517 15.184C11.6013 15.0008 11.7059 14.8277 11.829 14.668C11.8862 14.5966 11.9233 14.5112 11.9365 14.4207C11.9497 14.3302 11.9385 14.2377 11.904 14.153C11.9379 14.2369 11.9939 14.3101 12.0661 14.3647C12.1383 14.4193 12.224 14.4543 12.314 14.464ZM23.674 9.558C23.4759 9.5338 23.2813 9.48682 23.094 9.418C23.1252 9.51659 23.1766 9.60762 23.2448 9.68536C23.313 9.76309 23.3966 9.82584 23.4903 9.86963C23.584 9.91342 23.6858 9.93731 23.7892 9.93978C23.8925 9.94225 23.9953 9.92326 24.091 9.884C24.1865 9.84231 24.2725 9.78166 24.3439 9.70571C24.4152 9.62976 24.4704 9.54011 24.506 9.44219C24.5416 9.34427 24.557 9.24014 24.5511 9.13611C24.5453 9.03207 24.5184 8.93031 24.472 8.837C24.3877 9.02016 24.283 9.19325 24.16 9.353C24.1026 9.4245 24.0654 9.51005 24.0522 9.60078C24.039 9.69151 24.0503 9.78412 24.085 9.869C24.0513 9.78487 23.9953 9.71148 23.9231 9.6567C23.8509 9.60192 23.7641 9.56781 23.674 9.558ZM20.099 18.208C20.183 18.1725 20.2558 18.1148 20.3097 18.0412C20.3636 17.9676 20.3965 17.8808 20.405 17.79C20.4286 17.5888 20.4745 17.391 20.542 17.2C20.4434 17.234 20.3528 17.2877 20.2758 17.358C20.1987 17.4283 20.1369 17.5136 20.0941 17.6087C20.0513 17.7038 20.0284 17.8066 20.0268 17.9109C20.0253 18.0152 20.0451 18.1187 20.085 18.215C20.1231 18.3111 20.1809 18.3973 20.2547 18.4698C20.3284 18.5423 20.4165 18.5986 20.5133 18.6351C20.61 18.6717 20.7134 18.6876 20.8166 18.6819C20.9199 18.6762 21.0208 18.649 21.113 18.602C20.9324 18.5157 20.7623 18.409 20.606 18.284C20.5367 18.2259 20.4527 18.188 20.3632 18.1746C20.2737 18.1612 20.1823 18.1727 20.099 18.208ZM15.89 5.814C15.8059 5.84962 15.733 5.90741 15.6791 5.9812C15.6252 6.05498 15.5923 6.14201 15.584 6.233C15.56 6.43385 15.5138 6.63141 15.446 6.822C15.5446 6.78814 15.6352 6.73447 15.7122 6.66429C15.7893 6.59412 15.8511 6.50892 15.894 6.41394C15.9369 6.31896 15.96 6.2162 15.9617 6.112C15.9634 6.00779 15.9438 5.90434 15.904 5.808C15.8659 5.71186 15.8081 5.62474 15.7343 5.55222C15.6606 5.4797 15.5725 5.42338 15.4757 5.38686C15.379 5.35033 15.2756 5.33442 15.1724 5.34012C15.0691 5.34583 14.9682 5.37304 14.876 5.42C15.0566 5.50633 15.2267 5.61303 15.383 5.738C15.4524 5.79633 15.5366 5.83431 15.6263 5.84773C15.7159 5.86114 15.8066 5.84947 15.89 5.814ZM15.161 17.902C15.1212 17.9983 15.1016 18.1028 15.1033 18.207C15.105 18.3112 15.1281 18.414 15.171 18.5089C15.2139 18.6039 15.2757 18.6891 15.3528 18.7593C15.4298 18.8295 15.5204 18.8831 15.619 18.917C15.5515 18.7261 15.5055 18.5282 15.482 18.327C15.4735 18.2362 15.4406 18.1494 15.3867 18.0758C15.3328 18.0022 15.26 17.9445 15.176 17.909C15.2593 17.9443 15.3507 17.9558 15.4402 17.9424C15.5297 17.929 15.6137 17.8911 15.683 17.833C15.8393 17.708 16.0094 17.6013 16.19 17.515C16.0979 17.4678 15.9969 17.4405 15.8936 17.4346C15.7902 17.4287 15.6868 17.4445 15.5899 17.481C15.493 17.5174 15.4048 17.5737 15.331 17.6462C15.2571 17.7187 15.1992 17.8058 15.161 17.902ZM20.828 6.122L20.825 6.12L20.828 6.121C20.8678 6.02466 20.8874 5.92121 20.8857 5.817C20.884 5.7128 20.8609 5.61004 20.818 5.51506C20.7751 5.42008 20.7133 5.33488 20.6362 5.26471C20.5592 5.19453 20.4686 5.14086 20.37 5.107C20.4375 5.29795 20.4834 5.49584 20.507 5.697C20.5155 5.78781 20.5484 5.87463 20.6023 5.94823C20.6562 6.02182 20.729 6.07945 20.813 6.115C20.7297 6.07973 20.6383 6.06816 20.5488 6.08158C20.4593 6.09499 20.3753 6.13285 20.306 6.191C20.1497 6.316 19.9796 6.42269 19.799 6.509C19.8912 6.55613 19.9922 6.58347 20.0956 6.58927C20.199 6.59506 20.3025 6.57918 20.3993 6.54265C20.4962 6.50612 20.5844 6.44974 20.6582 6.37713C20.732 6.30451 20.7899 6.21727 20.828 6.121V6.122ZM23.79 14.879C23.8245 14.7943 23.8357 14.7018 23.8225 14.6113C23.8093 14.5208 23.7722 14.4354 23.715 14.364C23.592 14.2043 23.4873 14.0312 23.403 13.848C23.3566 13.9412 23.3296 14.043 23.3237 14.1469C23.3178 14.2509 23.3331 14.355 23.3686 14.4529C23.4041 14.5508 23.4592 14.6405 23.5304 14.7165C23.6017 14.7925 23.6876 14.8532 23.783 14.895C23.8786 14.9341 23.9823 14.953 24.0856 14.9504C24.1889 14.9478 24.2905 14.9239 24.3841 14.8801C24.4776 14.8364 24.5611 14.7737 24.6293 14.696C24.6974 14.6184 24.7487 14.5275 24.78 14.429C24.5927 14.4978 24.3981 14.5448 24.2 14.569C24.11 14.5787 24.0243 14.6127 23.9521 14.6673C23.8799 14.7219 23.8239 14.7951 23.79 14.879ZM12.2 9.143C12.165 9.22793 12.1534 9.32068 12.1664 9.4116C12.1795 9.50252 12.2166 9.5883 12.274 9.66C12.397 9.81942 12.5016 9.99217 12.586 10.175C12.6322 10.0818 12.6591 9.98018 12.6649 9.87631C12.6707 9.77243 12.6554 9.66845 12.6199 9.57066C12.5844 9.47287 12.5294 9.38331 12.4582 9.30739C12.3871 9.23148 12.3013 9.17079 12.206 9.129L12.204 9.132L12.205 9.129C12.1094 9.0899 12.0067 9.07104 11.9034 9.0736C11.8001 9.07615 11.6985 9.10008 11.6049 9.14386C11.5114 9.18764 11.4279 9.25032 11.3597 9.32797C11.2916 9.40562 11.2403 9.49654 11.209 9.595C11.396 9.52632 11.5903 9.47935 11.788 9.455C11.8784 9.44528 11.9644 9.41109 12.0369 9.35612C12.1093 9.30114 12.1663 9.22746 12.2 9.143ZM11.61 12.905C11.6273 12.9942 11.6684 13.0771 11.729 13.1449C11.7895 13.2127 11.8673 13.2628 11.954 13.29C12.1434 13.353 12.3249 13.4376 12.495 13.542C12.4833 13.4391 12.4505 13.3397 12.3987 13.2501C12.3469 13.1604 12.2771 13.0824 12.1938 13.0209C12.1104 12.9595 12.0153 12.9158 11.9144 12.8928C11.8134 12.8697 11.7088 12.8678 11.607 12.887C11.5056 12.9092 11.4097 12.9529 11.3253 13.0133C11.2408 13.0738 11.1696 13.1508 11.1159 13.2397C11.0622 13.3286 11.0271 13.4274 11.0129 13.5303C10.9986 13.6332 11.0055 13.7379 11.033 13.838C11.1508 13.6752 11.2867 13.5262 11.438 13.394C11.5078 13.3351 11.5606 13.2587 11.5909 13.1725C11.6211 13.0863 11.6277 12.9946 11.61 12.905ZM24.379 11.12C24.3619 11.0305 24.3209 10.9472 24.2604 10.8791C24.1998 10.8109 24.1219 10.7605 24.035 10.733C23.8456 10.6699 23.6641 10.5854 23.494 10.481C23.5057 10.5839 23.5385 10.6833 23.5903 10.7729C23.6421 10.8626 23.7119 10.9406 23.7952 11.0021C23.8786 11.0635 23.9737 11.1072 24.0746 11.1302C24.1756 11.1533 24.2802 11.1552 24.382 11.136C24.4834 11.1138 24.5793 11.0711 24.6637 11.0107C24.7482 10.9502 24.8194 10.8732 24.8731 10.7843C24.9268 10.6954 24.9619 10.5966 24.9761 10.4937C24.9904 10.3908 24.9835 10.2861 24.956 10.186C24.8381 10.3485 24.7023 10.4971 24.551 10.629C24.4811 10.688 24.4282 10.7647 24.398 10.851C24.3677 10.9374 24.3612 11.0303 24.379 11.12ZM19.353 18.683C19.2965 18.6123 19.2216 18.5586 19.1366 18.5277C19.0516 18.4969 18.9597 18.49 18.871 18.508C18.9602 18.4898 19.0427 18.4476 19.1097 18.3859C19.1767 18.3242 19.2255 18.2454 19.251 18.158C19.3125 17.966 19.3954 17.7815 19.498 17.608C19.3949 17.6217 19.2958 17.6564 19.2067 17.71C19.1176 17.7637 19.0405 17.835 18.9802 17.9197C18.9199 18.0044 18.8777 18.1006 18.8561 18.2024C18.8346 18.3041 18.8342 18.4091 18.855 18.511C18.8737 18.613 18.9135 18.7099 18.9717 18.7957C19.0299 18.8814 19.1053 18.9541 19.1932 19.0091C19.281 19.0642 19.3794 19.1003 19.482 19.1153C19.5845 19.1302 19.6891 19.1237 19.789 19.096C19.6285 18.9753 19.4822 18.8367 19.353 18.683ZM16.635 5.34C16.6916 5.41058 16.7664 5.46423 16.8515 5.4951C16.9365 5.52596 17.0283 5.53285 17.117 5.515C17.0278 5.53321 16.9453 5.57544 16.8783 5.63712C16.8113 5.6988 16.7625 5.77759 16.737 5.865C16.6755 6.05698 16.5926 6.24146 16.49 6.415C16.5931 6.40133 16.6922 6.36659 16.7813 6.31296C16.8704 6.25933 16.9475 6.18795 17.0078 6.10326C17.0681 6.01856 17.1103 5.92237 17.1319 5.82065C17.1534 5.71893 17.1538 5.61387 17.133 5.512C17.1142 5.41014 17.0743 5.3133 17.0161 5.22766C16.9578 5.14201 16.8823 5.06942 16.7945 5.0145C16.7067 4.95958 16.6084 4.92353 16.5058 4.90864C16.4033 4.89374 16.2988 4.90034 16.199 4.928C16.3594 5.0484 16.5057 5.18662 16.635 5.34ZM14.085 17.227C14.0278 17.3142 13.9889 17.4121 13.9707 17.5148C13.9525 17.6175 13.9554 17.7228 13.9793 17.8243C14.0032 17.9258 14.0475 18.0214 14.1095 18.1053C14.1715 18.1891 14.2499 18.2595 14.34 18.312C14.3103 18.1118 14.3029 17.9089 14.318 17.707C14.3271 17.6158 14.3115 17.5239 14.2728 17.4408C14.2341 17.3577 14.1737 17.2867 14.098 17.235C14.1726 17.2861 14.2599 17.3157 14.3502 17.3205C14.4405 17.3252 14.5304 17.305 14.61 17.262C14.7873 17.1705 14.9745 17.0998 15.168 17.051C15.0872 16.9865 14.9938 16.9396 14.8939 16.9134C14.7939 16.8872 14.6895 16.8822 14.5875 16.8988C14.4854 16.9154 14.388 16.9531 14.3015 17.0097C14.2149 17.0662 14.1412 17.1402 14.085 17.227ZM21.902 6.797C21.9594 6.7098 21.9984 6.6118 22.0167 6.509C22.035 6.40621 22.0321 6.30077 22.0082 6.19912C21.9843 6.09748 21.94 6.00177 21.8779 5.91785C21.8158 5.83392 21.7372 5.76354 21.647 5.711C21.6768 5.91155 21.6842 6.11481 21.669 6.317C21.6601 6.40802 21.6758 6.49977 21.7145 6.58263C21.7532 6.6655 21.8135 6.73643 21.889 6.788C21.8143 6.73692 21.727 6.70746 21.6367 6.70287C21.5463 6.69828 21.4565 6.71875 21.377 6.762C21.1996 6.85311 21.0124 6.92357 20.819 6.972C20.8997 7.03656 20.993 7.0835 21.093 7.1098C21.1929 7.13609 21.2973 7.14116 21.3993 7.12467C21.5013 7.10819 21.5988 7.07051 21.6854 7.01408C21.7719 6.95764 21.8457 6.88369 21.902 6.797ZM23.59 15.752C23.4973 15.7441 23.4041 15.762 23.321 15.8038C23.2378 15.8457 23.1679 15.9098 23.119 15.989C23.2047 16.0466 23.3015 16.0856 23.4031 16.1037C23.5047 16.1218 23.609 16.1185 23.7093 16.0941C23.8096 16.0696 23.9037 16.0245 23.9856 15.9616C24.0675 15.8988 24.1354 15.8196 24.185 15.729C23.9882 15.7595 23.7886 15.7673 23.59 15.752ZM23.119 15.989C23.1729 15.9114 23.2036 15.8206 23.2098 15.7264C23.2159 15.6321 23.1963 15.5379 23.153 15.454C23.0631 15.2733 22.9937 15.0831 22.946 14.887C22.8826 14.9698 22.8366 15.0645 22.8109 15.1656C22.7852 15.2666 22.7802 15.3718 22.7962 15.4748C22.8123 15.5778 22.8491 15.6765 22.9044 15.7649C22.9597 15.8533 23.0334 15.9295 23.119 15.989ZM12.396 8.272C12.4889 8.28014 12.5823 8.26229 12.6656 8.22043C12.749 8.17858 12.819 8.11438 12.868 8.035C12.7823 7.97727 12.6854 7.93806 12.5837 7.91988C12.4819 7.9017 12.3775 7.90495 12.2771 7.92942C12.1767 7.95389 12.0825 7.99904 12.0005 8.06199C11.9185 8.12494 11.8506 8.2043 11.801 8.295C11.9978 8.26448 12.1974 8.25676 12.396 8.272ZM12.834 8.569C12.9239 8.75003 12.9934 8.94055 13.041 9.137C13.1044 9.05418 13.1503 8.95936 13.1759 8.85829C13.2016 8.75722 13.2065 8.652 13.1903 8.54898C13.1741 8.44597 13.1372 8.3473 13.0818 8.25896C13.0264 8.17061 12.9537 8.09442 12.868 8.035C12.8145 8.11257 12.783 8.20323 12.777 8.29729C12.7711 8.39135 12.7907 8.48527 12.834 8.569ZM13.488 15.567C13.4383 15.4765 13.3704 15.3974 13.2884 15.3346C13.2065 15.2719 13.1124 15.2269 13.0121 15.2025C12.9118 15.1782 12.8075 15.175 12.7059 15.1931C12.6043 15.2113 12.5076 15.2504 12.422 15.308L12.426 15.315L12.421 15.308C12.3353 15.3674 12.2626 15.4436 12.2072 15.532C12.1518 15.6203 12.1149 15.719 12.0987 15.822C12.0825 15.925 12.0874 16.0302 12.1131 16.1313C12.1387 16.2324 12.1846 16.3272 12.248 16.41C12.2959 16.2135 12.3657 16.023 12.456 15.842C12.4985 15.7605 12.5184 15.6691 12.5136 15.5773C12.5089 15.4855 12.4797 15.3967 12.429 15.32C12.4783 15.3964 12.5476 15.4579 12.6295 15.4975C12.7113 15.5372 12.8025 15.5536 12.893 15.545C13.0915 15.5294 13.2912 15.5368 13.488 15.567ZM22.498 8.457C22.5477 8.54762 22.6157 8.62688 22.6977 8.68973C22.7797 8.75258 22.8739 8.79763 22.9743 8.82201C23.0747 8.84638 23.1791 8.84954 23.2808 8.83129C23.3825 8.81304 23.4793 8.77377 23.565 8.716C23.6506 8.6565 23.7243 8.58025 23.7796 8.49187C23.8349 8.40349 23.8717 8.30481 23.8878 8.2018C23.9038 8.09878 23.8988 7.99358 23.8731 7.89255C23.8474 7.79152 23.8014 7.69676 23.738 7.614C23.6903 7.81011 23.6209 8.00029 23.531 8.181C23.4885 8.2625 23.4686 8.35389 23.4734 8.44568C23.4781 8.53747 23.5073 8.62632 23.558 8.703C23.5086 8.62675 23.4392 8.56553 23.3574 8.52602C23.2755 8.48652 23.1844 8.47026 23.094 8.479C22.8954 8.49424 22.6958 8.48652 22.499 8.456L22.498 8.457ZM21.245 17.673C21.3207 17.6213 21.3811 17.5503 21.4198 17.4672C21.4585 17.3841 21.4741 17.2922 21.465 17.201C21.4502 16.9991 21.4579 16.7962 21.488 16.596C21.3978 16.6485 21.3192 16.7189 21.2571 16.8028C21.195 16.8868 21.1507 16.9825 21.1268 17.0841C21.1029 17.1858 21.1 17.2912 21.1183 17.394C21.1366 17.4968 21.1756 17.5948 21.233 17.682C21.2892 17.7688 21.3629 17.8428 21.4495 17.8993C21.536 17.9559 21.6334 17.9936 21.7355 18.0102C21.8375 18.0268 21.9419 18.0218 22.0419 17.9956C22.1418 17.9694 22.2352 17.9225 22.316 17.858C22.1225 17.809 21.9353 17.7378 21.758 17.646C21.6783 17.6027 21.5882 17.5823 21.4977 17.5871C21.4071 17.5918 21.3197 17.6216 21.245 17.673ZM14.742 6.35C14.6663 6.40165 14.6059 6.47275 14.5672 6.5558C14.5285 6.63886 14.5129 6.73082 14.522 6.822C14.5369 7.02423 14.5292 7.22748 14.499 7.428C14.5892 7.37546 14.6678 7.30508 14.7299 7.22115C14.792 7.13723 14.8363 7.04152 14.8602 6.93988C14.8841 6.83823 14.887 6.73279 14.8687 6.63C14.8504 6.5272 14.8114 6.4292 14.754 6.342C14.6978 6.25523 14.6241 6.18119 14.5375 6.12466C14.451 6.06813 14.3536 6.03036 14.2515 6.01377C14.1495 5.99719 14.0451 6.00217 13.9451 6.02839C13.8452 6.05461 13.7518 6.10149 13.671 6.166C13.8645 6.21475 14.0517 6.28555 14.229 6.377C14.3087 6.4202 14.3988 6.44053 14.4893 6.43577C14.5798 6.43101 14.6673 6.40132 14.742 6.35ZM16.842 18.18C16.9715 18.0262 17.1181 17.8876 17.279 17.767C17.179 17.7392 17.0744 17.7325 16.9717 17.7474C16.869 17.7623 16.7705 17.7984 16.6825 17.8534C16.5946 17.9084 16.519 17.9812 16.4608 18.067C16.4025 18.1529 16.3627 18.2499 16.344 18.352C16.3232 18.4539 16.3236 18.5591 16.3452 18.6609C16.3668 18.7626 16.4092 18.8589 16.4696 18.9436C16.53 19.0283 16.6072 19.0997 16.6964 19.1532C16.7856 19.2068 16.8848 19.2414 16.988 19.255C16.885 19.0815 16.8018 18.897 16.74 18.705C16.7145 18.6176 16.6657 18.5388 16.5987 18.4771C16.5317 18.4154 16.4492 18.3732 16.36 18.355C16.4487 18.3728 16.5405 18.366 16.6255 18.3351C16.7106 18.3042 16.7854 18.2506 16.842 18.18ZM19.145 5.844C19.0154 5.99745 18.8688 6.13567 18.708 6.256C18.8079 6.28382 18.9125 6.29054 19.0151 6.27572C19.1178 6.26091 19.2162 6.22489 19.3041 6.16996C19.3921 6.11502 19.4676 6.04238 19.526 5.95664C19.5843 5.87091 19.6242 5.77398 19.643 5.672C19.6639 5.56998 19.6636 5.46474 19.6421 5.36285C19.6206 5.26095 19.5783 5.16459 19.5178 5.07977C19.4574 4.99495 19.3802 4.92349 19.2909 4.86984C19.2016 4.8162 19.1023 4.78154 18.999 4.768C19.1021 4.94179 19.1852 5.12662 19.247 5.319C19.2725 5.40641 19.3213 5.4852 19.3883 5.54688C19.4553 5.60856 19.5378 5.65079 19.627 5.669C19.5383 5.65115 19.4465 5.65804 19.3615 5.6889C19.2764 5.71977 19.2016 5.77342 19.145 5.844ZM24.228 13.673C24.2456 13.5833 24.2389 13.4906 24.2084 13.4044C24.178 13.3182 24.125 13.2417 24.055 13.183C23.9037 13.0508 23.7678 12.9018 23.65 12.739C23.6223 12.8392 23.6154 12.944 23.6295 13.047C23.6437 13.15 23.6787 13.249 23.7324 13.338C23.7862 13.427 23.8575 13.5041 23.942 13.5646C24.0265 13.6251 24.1224 13.6678 24.224 13.69C24.3258 13.7092 24.4304 13.7073 24.5314 13.6842C24.6323 13.6612 24.7274 13.6175 24.8108 13.5561C24.8941 13.4946 24.9639 13.4166 25.0157 13.3269C25.0675 13.2373 25.1003 13.1379 25.112 13.035C24.9419 13.1394 24.7604 13.224 24.571 13.287C24.4843 13.3144 24.4067 13.3648 24.3463 13.4327C24.2859 13.5007 24.245 13.5837 24.228 13.673ZM11.76 10.35C11.7424 10.4396 11.749 10.5323 11.7793 10.6184C11.8095 10.7046 11.8622 10.7811 11.932 10.84C12.0833 10.9723 12.2192 11.1212 12.337 11.284C12.3645 11.1839 12.3714 11.0792 12.3571 10.9763C12.3429 10.8734 12.3078 10.7746 12.2541 10.6857C12.2004 10.5968 12.1292 10.5198 12.0447 10.4593C11.9603 10.3989 11.8644 10.3562 11.763 10.334C11.6612 10.3148 11.5566 10.3157 11.4556 10.3388C11.3547 10.3618 11.2596 10.4055 11.1762 10.4669C11.0929 10.5284 11.0231 10.6064 10.9713 10.6961C10.9195 10.7857 10.8867 10.8851 10.875 10.988C11.0451 10.8836 11.2266 10.7991 11.416 10.736C11.5029 10.7087 11.5807 10.6584 11.6413 10.5905C11.7018 10.5225 11.7429 10.4394 11.76 10.35Z"
		fill="#73AF00"
	/>
</svg>
