<svg viewBox="0 0 36 24" fill="none" xmlns="http://www.w3.org/2000/svg">
	<path d="M36 24H0V0H36" fill="#FF4B55" />
	<path d="M18 12H0V0H18" fill="#41479B" />
	<path
		d="M31.433 6.135H22.566C22.5068 6.13579 22.4503 6.16001 22.4088 6.20237C22.3674 6.24472 22.3445 6.30176 22.345 6.361V14.707C22.345 15.383 22.788 17.639 27 18.316C31.212 17.639 31.655 15.383 31.655 14.706V6.362C31.6553 6.33258 31.6497 6.3034 31.6387 6.27613C31.6277 6.24885 31.6114 6.22401 31.5908 6.20302C31.5702 6.18203 31.5456 6.16531 31.5186 6.15381C31.4915 6.14231 31.4624 6.13526 31.433 6.135ZM23.669 14.323C23.6934 14.2465 23.7 14.1655 23.6882 14.0861C23.6764 14.0067 23.6466 13.9311 23.601 13.865C23.5396 13.7867 23.5096 13.6883 23.517 13.589C23.471 13.677 23.509 13.822 23.493 13.996C23.478 14.169 23.239 14.252 23.239 14.252C23.2877 14.1807 23.3211 14.0999 23.337 14.015C23.3141 13.8937 23.284 13.7738 23.247 13.656C23.245 13.6194 23.2515 13.5827 23.2661 13.5491C23.2806 13.5154 23.3029 13.4856 23.331 13.462C23.2937 13.4688 23.2553 13.4678 23.2184 13.459C23.1815 13.4502 23.1469 13.4338 23.1167 13.4108C23.0865 13.3878 23.0614 13.3588 23.043 13.3256C23.0247 13.2924 23.0134 13.2558 23.01 13.218C23.0305 13.236 23.0549 13.249 23.0812 13.256C23.1076 13.263 23.1352 13.2638 23.1619 13.2584C23.1886 13.2529 23.2137 13.2414 23.2352 13.2247C23.2567 13.208 23.2741 13.1865 23.286 13.162C23.3075 13.1215 23.3394 13.0875 23.3784 13.0634C23.4174 13.0393 23.4622 13.026 23.508 13.025C23.425 11.88 24.763 12.008 24.789 12.225C24.879 12.973 23.965 13.438 23.965 13.438C24.051 13.5305 24.1022 13.65 24.11 13.776C24.1191 13.8848 24.0909 13.9934 24.03 14.084C24.077 13.842 23.803 13.557 23.803 13.557C23.778 13.7 23.833 13.677 23.883 13.934C23.8919 14.0131 23.8761 14.0931 23.8378 14.1629C23.7995 14.2328 23.7405 14.289 23.669 14.324V14.323ZM25.392 16.166C25.412 16.42 25.288 16.526 25.101 16.533C24.961 16.538 24.906 16.4 24.888 16.331C24.928 16.549 24.802 16.685 24.533 16.638C24.383 16.612 24.353 16.468 24.359 16.336C24.2915 16.3596 24.2174 16.3557 24.1527 16.3252C24.088 16.2947 24.0378 16.2401 24.013 16.173C23.847 15.863 24.263 15.757 24.263 15.757C24.2764 15.6953 24.3095 15.6397 24.3573 15.5986C24.4051 15.5574 24.465 15.533 24.528 15.529C24.743 15.529 24.838 15.644 25.052 15.482C25.173 15.3868 25.3211 15.3325 25.475 15.327L25.96 15.694C25.704 16.067 25.371 15.912 25.392 16.166ZM27 10.196L26.238 9.991L24.784 10.647L24.368 10.463C24.2393 10.3516 24.1041 10.2481 23.963 10.153C23.9398 10.1367 23.9202 10.1158 23.9054 10.0917C23.8905 10.0675 23.8807 10.0406 23.8765 10.0126C23.8722 9.98458 23.8738 9.95598 23.8809 9.92855C23.888 9.90112 23.9007 9.87542 23.918 9.853C23.976 9.759 24.165 9.799 24.165 9.799C24.1852 9.76412 24.2138 9.73486 24.2482 9.7139C24.2826 9.69294 24.3217 9.68094 24.362 9.679C24.3999 9.67435 24.4382 9.68395 24.4694 9.70594C24.5007 9.72793 24.5226 9.76074 24.531 9.798C24.531 9.798 24.557 9.778 24.714 9.782C24.871 9.787 24.839 10.05 24.839 10.05C24.929 10.0389 25.0174 10.0167 25.102 9.984C25.2098 9.94354 25.3273 9.93691 25.439 9.965C25.4456 9.89809 25.4678 9.83368 25.504 9.777C25.5595 9.80636 25.6236 9.81544 25.6851 9.80266C25.7466 9.78988 25.8017 9.75605 25.841 9.707C25.873 9.646 25.791 9.552 25.791 9.472C25.791 9.392 25.899 9.396 25.937 9.325C25.975 9.255 25.937 9.216 25.837 9.17C25.7768 9.13656 25.7304 9.08278 25.7062 9.01829C25.6821 8.95379 25.6816 8.88279 25.705 8.818C25.767 8.68 25.947 8.705 25.947 8.705C25.885 8.715 25.833 8.835 25.933 8.86C26.033 8.885 26.123 8.511 26.123 8.511C25.892 8.67 25.722 8.574 25.673 8.437C25.6611 8.39463 25.6624 8.34966 25.6767 8.30805C25.691 8.26644 25.7176 8.23015 25.753 8.204C25.853 8.37 26.027 8.226 25.933 8.12C25.8726 8.03747 25.8375 7.93914 25.832 7.837C25.884 7.86846 25.9445 7.8827 26.005 7.87767C26.0656 7.87264 26.123 7.8486 26.169 7.809C26.0928 7.76062 26.0332 7.68995 25.9985 7.60659C25.9638 7.52322 25.9556 7.43119 25.975 7.343C26.079 7.31649 26.1875 7.31308 26.293 7.333C26.2634 7.24898 26.2508 7.15992 26.256 7.071C26.3414 7.06521 26.4266 7.08469 26.501 7.127C26.4831 7.00652 26.4878 6.88374 26.515 6.765C26.598 6.779 26.755 6.826 26.755 6.826C26.8103 6.7229 26.8958 6.63916 27 6.586C27.1042 6.63916 27.1897 6.7229 27.245 6.826C27.245 6.826 27.402 6.779 27.485 6.766C27.5121 6.88441 27.5169 7.00685 27.499 7.127C27.5734 7.08469 27.6586 7.06521 27.744 7.071C27.7493 7.16026 27.7368 7.24968 27.707 7.334C27.8125 7.31404 27.921 7.31746 28.025 7.344C28.0439 7.4319 28.0355 7.52349 28.0008 7.60645C27.9661 7.68941 27.9069 7.75975 27.831 7.808C27.8769 7.84776 27.9343 7.87198 27.9948 7.87719C28.0553 7.88239 28.1159 7.86833 28.168 7.837C28.1625 7.93914 28.1274 8.03747 28.067 8.12C27.973 8.226 28.147 8.37 28.247 8.204C28.2824 8.23015 28.309 8.26644 28.3233 8.30805C28.3376 8.34966 28.3389 8.39463 28.327 8.437C28.278 8.574 28.108 8.67 27.877 8.511C27.877 8.511 27.967 8.884 28.067 8.86C28.167 8.835 28.115 8.715 28.053 8.705C28.053 8.705 28.233 8.68 28.295 8.818C28.3185 8.88268 28.3182 8.95359 28.2942 9.01807C28.2702 9.08255 28.224 9.1364 28.164 9.17C28.064 9.216 28.025 9.255 28.064 9.325C28.101 9.395 28.21 9.392 28.21 9.472C28.21 9.552 28.127 9.646 28.16 9.707C28.1992 9.75581 28.2542 9.78949 28.3154 9.80226C28.3767 9.81503 28.4406 9.8061 28.496 9.777C28.5322 9.83366 28.5545 9.89808 28.561 9.965C28.6728 9.93723 28.7903 9.94421 28.898 9.985C28.9827 10.0173 29.071 10.0392 29.161 10.05C29.161 10.05 29.129 9.787 29.286 9.782C29.443 9.777 29.47 9.798 29.47 9.798C29.4782 9.76075 29.4999 9.72785 29.5309 9.70568C29.562 9.68351 29.6001 9.67365 29.638 9.678C29.6783 9.68004 29.7175 9.69219 29.752 9.71334C29.7864 9.73448 29.8149 9.76394 29.835 9.799C29.835 9.799 30.024 9.759 30.083 9.854C30.1003 9.87642 30.113 9.90212 30.1201 9.92955C30.1272 9.95698 30.1288 9.98558 30.1245 10.0136C30.1203 10.0416 30.1105 10.0685 30.0956 10.0927C30.0808 10.1168 30.0612 10.1377 30.038 10.154C29.8969 10.2491 29.7617 10.3527 29.633 10.464L29.217 10.647L27.762 9.991L27 10.196ZM29.986 16.173C29.9612 16.2398 29.9112 16.2943 29.8467 16.3248C29.7822 16.3552 29.7084 16.3593 29.641 16.336C29.646 16.467 29.616 16.612 29.467 16.638C29.198 16.685 29.072 16.548 29.112 16.331C29.094 16.401 29.039 16.538 28.899 16.533C28.712 16.526 28.587 16.42 28.608 16.166C28.628 15.912 28.296 16.067 28.04 15.694L28.525 15.327C28.6785 15.3327 28.8263 15.387 28.947 15.482C29.162 15.644 29.257 15.529 29.471 15.529C29.5341 15.5328 29.5943 15.5571 29.6423 15.5983C29.6903 15.6395 29.7236 15.6952 29.737 15.757C29.737 15.757 30.152 15.863 29.986 16.173ZM30.669 13.463C30.6972 13.4864 30.7195 13.516 30.7343 13.5495C30.749 13.583 30.7558 13.6194 30.754 13.656C30.7169 13.7741 30.6868 13.8943 30.664 14.016C30.6798 14.1005 30.7128 14.1808 30.761 14.252C30.761 14.252 30.522 14.169 30.507 13.996C30.491 13.822 30.529 13.677 30.482 13.589C30.4897 13.6881 30.4601 13.7866 30.399 13.865C30.3534 13.9311 30.3236 14.0067 30.3118 14.0861C30.3 14.1655 30.3066 14.2465 30.331 14.323C30.2596 14.2881 30.2008 14.232 30.1625 14.1623C30.1242 14.0927 30.1083 14.013 30.117 13.934C30.167 13.677 30.222 13.7 30.197 13.557C30.197 13.557 29.923 13.842 29.97 14.084C29.909 13.9934 29.8808 13.8848 29.89 13.776C29.8978 13.65 29.949 13.5305 30.035 13.438C30.035 13.438 29.12 12.973 29.211 12.226C29.237 12.008 30.575 11.88 30.492 13.025C30.5378 13.026 30.5826 13.0393 30.6216 13.0634C30.6606 13.0875 30.6925 13.1215 30.714 13.162C30.7259 13.1865 30.7433 13.208 30.7648 13.2247C30.7863 13.2414 30.8114 13.2529 30.8381 13.2584C30.8648 13.2638 30.8924 13.263 30.9188 13.256C30.9451 13.249 30.9695 13.236 30.99 13.218C30.9866 13.2557 30.9754 13.2922 30.957 13.3254C30.9387 13.3585 30.9137 13.3874 30.8837 13.4104C30.8536 13.4333 30.819 13.4497 30.7823 13.4586C30.7455 13.4675 30.7072 13.4687 30.67 13.462L30.669 13.463ZM27.454 7.465C27.454 7.465 27.438 7.664 27.148 7.611C27.148 7.611 27.156 7.404 27.454 7.465ZM26.851 7.611C26.561 7.664 26.546 7.465 26.546 7.465C26.844 7.404 26.851 7.611 26.851 7.611ZM13.067 7.579L18 10.867V12H16.301L10.551 8.167V12H7.449V8.167L1.698 12H0V10.867L4.933 7.58H0V4.421H4.933L0 1.133V0H1.699L7.449 3.833V0H10.552V3.833L16.302 0H18V1.133L13.067 4.42H18V7.58L13.067 7.579Z"
		fill="#F5F5F5"
	/>
	<path
		d="M18.109 6.947H9.93V12.083L8.068 12.115V6.947H0V5.053H8.069V0H9.93V5.053H18.108L18.109 6.947ZM0 12.056H0.653L7.431 7.579H6.291L0 11.736M18 11.424L12.178 7.58H11.038L17.735 12H18M0 0.664L5.688 4.421H6.828L0.12 0H0M17.245 0L10.552 4.421H11.692L18.04 0.226V0"
		fill="#FF4B55"
	/>
	<path
		d="M27.028 12.686C27.028 12.686 26.058 11.074 25.919 10.938C25.8772 10.8924 25.8269 10.8555 25.7708 10.8295C25.7147 10.8034 25.6541 10.7886 25.5923 10.786C25.5305 10.7834 25.4689 10.793 25.4108 10.8143C25.3527 10.8356 25.2995 10.8681 25.254 10.91C25.254 10.91 24.451 10.844 24.561 11.464L24.792 12.404C24.7221 12.6531 24.6231 12.8931 24.497 13.119C24.404 13.184 24.063 13.363 24.063 13.363L24.257 14.143L26.843 14.011L27.028 12.686Z"
		fill="#F0C850"
	/>
	<path
		d="M24.26 16.234C24.1875 16.3328 24.1547 16.4552 24.168 16.577C24.168 16.577 23.891 16.487 24.038 16.069C24.0638 16.0614 24.091 16.0599 24.1174 16.0646C24.1439 16.0693 24.1689 16.0801 24.1905 16.0961C24.2121 16.1121 24.2297 16.1328 24.2419 16.1568C24.2542 16.1807 24.2597 16.2071 24.26 16.234ZM24.696 16.462C24.557 16.314 24.446 16.43 24.446 16.43C24.377 16.864 24.723 16.874 24.723 16.874C24.6625 16.7449 24.6529 16.5978 24.696 16.462ZM25.042 16.441C25.078 16.5583 25.078 16.6837 25.042 16.801C25.042 16.801 25.326 16.783 25.278 16.367C25.236 16.3513 25.19 16.35 25.1473 16.3634C25.1045 16.3768 25.0675 16.4041 25.042 16.441ZM29.739 16.234C29.8118 16.3327 29.845 16.4551 29.832 16.577C29.832 16.577 30.109 16.487 29.961 16.069C29.9353 16.0616 29.9082 16.0603 29.8819 16.065C29.8555 16.0698 29.8307 16.0806 29.8092 16.0966C29.7877 16.1126 29.7702 16.1333 29.758 16.1571C29.7459 16.1809 29.7393 16.2072 29.739 16.234ZM29.304 16.462C29.3468 16.598 29.3368 16.7451 29.276 16.874C29.276 16.874 29.623 16.864 29.553 16.43C29.553 16.43 29.443 16.314 29.304 16.462ZM28.722 16.367C28.674 16.783 28.958 16.8 28.958 16.8C28.922 16.6827 28.922 16.5573 28.958 16.44C28.9324 16.4033 28.8953 16.3762 28.8525 16.363C28.8098 16.3497 28.7639 16.3512 28.722 16.367ZM24.149 10.065C24.142 9.983 23.99 9.922 23.933 10.005C23.876 10.087 23.86 10.238 24.175 10.4C24.175 10.4 24.157 10.148 24.149 10.065ZM24.419 10.044C24.392 9.949 24.333 9.9 24.26 9.928C24.187 9.956 24.153 10.128 24.229 10.318C24.229 10.318 24.447 10.139 24.419 10.044ZM24.655 10.178C24.686 10.146 24.697 9.991 24.61 9.973C24.523 9.955 24.41 10.093 24.416 10.263C24.5011 10.2533 24.5829 10.2242 24.655 10.178ZM24.565 10.266C24.4928 10.2941 24.4261 10.3347 24.368 10.386C24.368 10.386 24.548 10.52 24.672 10.477C24.796 10.434 24.738 10.21 24.565 10.266ZM30.067 10.004C30.01 9.922 29.858 9.984 29.85 10.065L29.824 10.4C30.14 10.238 30.124 10.087 30.067 10.004ZM29.74 9.928C29.667 9.9 29.608 9.948 29.58 10.044C29.553 10.139 29.77 10.319 29.77 10.319C29.847 10.129 29.813 9.956 29.74 9.928ZM29.584 10.262C29.591 10.093 29.476 9.956 29.39 9.973C29.304 9.99 29.314 10.146 29.345 10.178C29.4172 10.2239 29.499 10.2526 29.584 10.262ZM29.328 10.477C29.452 10.52 29.632 10.386 29.632 10.386C29.5739 10.3347 29.5072 10.2941 29.435 10.266C29.262 10.21 29.203 10.436 29.328 10.477Z"
		fill="#82AFFF"
	/>
	<path
		d="M27.32 8.233C27.2999 8.25531 27.2752 8.27296 27.2475 8.28471C27.2199 8.29645 27.19 8.30201 27.16 8.301H27.15C27.1202 8.30021 27.091 8.29226 27.0649 8.27781C27.0388 8.26337 27.0165 8.24285 27 8.218C26.9835 8.24279 26.9612 8.26319 26.9351 8.27748C26.909 8.29176 26.8798 8.29949 26.85 8.3H26.84C26.8101 8.30107 26.7803 8.29564 26.7526 8.28407C26.725 8.2725 26.7002 8.25508 26.68 8.233C26.6601 8.2095 26.6456 8.18192 26.6374 8.15221C26.6293 8.12249 26.6278 8.09136 26.633 8.061C26.6349 8.05102 26.6405 8.04213 26.6486 8.03603C26.6568 8.02993 26.6669 8.02707 26.677 8.028C26.6871 8.02995 26.6961 8.03571 26.702 8.04409C26.708 8.05247 26.7105 8.06282 26.709 8.073C26.7056 8.0918 26.7063 8.11112 26.7112 8.1296C26.716 8.14808 26.7248 8.16529 26.737 8.18C26.7512 8.19456 26.7684 8.20579 26.7874 8.21288C26.8064 8.21997 26.8268 8.22274 26.847 8.221C26.875 8.21927 26.9016 8.20802 26.9223 8.1891C26.9431 8.17018 26.9567 8.14474 26.961 8.117V8.01L26.885 7.933C26.8798 7.92755 26.8762 7.92071 26.8748 7.91329C26.8734 7.90587 26.8742 7.89821 26.877 7.89122C26.8799 7.88423 26.8847 7.87822 26.8909 7.87392C26.8971 7.86962 26.9045 7.86722 26.912 7.867H27.088C27.0955 7.8674 27.1027 7.86994 27.1087 7.87431C27.1148 7.87868 27.1195 7.8847 27.1222 7.89165C27.1249 7.8986 27.1256 7.9062 27.1242 7.91353C27.1227 7.92086 27.1192 7.92762 27.114 7.933L27.039 8.01V8.122C27.0443 8.14883 27.0584 8.17312 27.079 8.19105C27.0997 8.20898 27.1257 8.21952 27.153 8.221C27.1732 8.22304 27.1937 8.2204 27.2128 8.21329C27.2318 8.20618 27.249 8.1948 27.263 8.18C27.2751 8.16524 27.2838 8.148 27.2884 8.12951C27.2931 8.11102 27.2936 8.09172 27.29 8.073C27.2891 8.06794 27.2893 8.06277 27.2904 8.05777C27.2916 8.05277 27.2937 8.04805 27.2967 8.04387C27.2997 8.03969 27.3034 8.03614 27.3078 8.03342C27.3121 8.03069 27.3169 8.02885 27.322 8.028C27.3271 8.02715 27.3322 8.0273 27.3372 8.02844C27.3422 8.02959 27.3469 8.03171 27.3511 8.03468C27.3553 8.03765 27.3589 8.04142 27.3616 8.04576C27.3643 8.05011 27.3661 8.05494 27.367 8.06C27.3722 8.09036 27.3707 8.12149 27.3626 8.15121C27.3544 8.18092 27.3399 8.2095 27.32 8.233Z"
		fill="#464655"
	/>
	<path
		d="M28.145 11.981L28.142 11.983L28.071 11.811C28.0653 11.7975 28.0545 11.7867 28.041 11.781C28.0341 11.778 28.0266 11.7764 28.019 11.7764C28.0114 11.7764 28.0039 11.778 27.997 11.781L27.517 11.997L26.944 11.044C26.9569 11.0329 26.9662 11.0182 26.9706 11.0018C26.9751 10.9854 26.9745 10.9681 26.969 10.952C26.9655 10.9415 26.96 10.9317 26.9527 10.9234C26.9454 10.9151 26.9365 10.9083 26.9265 10.9034C26.9165 10.8986 26.9057 10.8958 26.8946 10.8952C26.8835 10.8946 26.8724 10.8962 26.862 10.9L26.735 10.947L26.648 10.687C26.6432 10.6732 26.6332 10.6618 26.6201 10.6552C26.607 10.6487 26.5919 10.6475 26.578 10.652C26.5639 10.657 26.5523 10.6673 26.5457 10.6808C26.5392 10.6943 26.5382 10.7098 26.543 10.724L26.63 10.985L26.494 11.035C26.4732 11.0429 26.4563 11.0586 26.4469 11.0788C26.4376 11.099 26.4365 11.122 26.444 11.143C26.4496 11.1593 26.4601 11.1734 26.4741 11.1834C26.4881 11.1935 26.5048 11.1989 26.522 11.199L26.537 11.197L26.725 12.352L26.604 12.407C26.5912 12.4129 26.5811 12.4233 26.5756 12.4363C26.5701 12.4492 26.5695 12.4637 26.574 12.477L26.643 12.673C26.645 12.7259 26.6417 12.7788 26.633 12.831L25.859 11.481C25.8756 11.471 25.8883 11.4556 25.8948 11.4374C25.9014 11.4192 25.9014 11.3993 25.895 11.381C25.8913 11.3706 25.8856 11.3611 25.8782 11.353C25.8708 11.3449 25.8619 11.3383 25.8519 11.3336C25.842 11.329 25.8312 11.3264 25.8202 11.3259C25.8093 11.3255 25.7983 11.3272 25.788 11.331L25.661 11.377L25.575 11.117C25.5727 11.1101 25.5691 11.1037 25.5644 11.0982C25.5596 11.0926 25.5538 11.0881 25.5473 11.0849C25.5408 11.0816 25.5337 11.0797 25.5264 11.0792C25.5192 11.0787 25.5119 11.0797 25.505 11.082C25.4909 11.087 25.4793 11.0973 25.4727 11.1108C25.4662 11.1243 25.4652 11.1398 25.47 11.154L25.557 11.415L25.42 11.465C25.3992 11.4729 25.3823 11.4886 25.3729 11.5088C25.3636 11.529 25.3625 11.552 25.37 11.573C25.3754 11.5876 25.3849 11.6003 25.3973 11.6097C25.4097 11.619 25.4245 11.6247 25.44 11.626L25.776 13.759C25.732 13.778 25.69 13.797 25.642 13.814C25.642 13.814 25.485 14.575 25.605 14.613L26.963 15.036L28.709 14.19C28.7616 14.0055 28.7984 13.8168 28.819 13.626L28.145 11.981ZM28.04 12.027L27.897 12.09L27.85 11.97L27.99 11.907L28.04 12.027ZM27.176 12.273L27.293 12.22L27.338 12.334L27.214 12.388L27.176 12.273ZM27.112 12.433L26.972 12.493L26.929 12.383L27.074 12.319L27.112 12.433ZM27.44 12.289L27.394 12.175L27.52 12.119L27.566 12.234L27.44 12.289ZM27.622 12.073L27.749 12.016L27.796 12.134L27.668 12.19L27.622 12.073ZM26.841 11.088L27.414 12.043L27.14 12.166L26.788 11.107L26.841 11.088ZM26.643 11.16L26.683 11.145L27.038 12.212L26.83 12.305L26.643 11.16ZM26.827 12.43L26.871 12.538L26.734 12.598L26.695 12.488L26.827 12.43ZM25.755 11.522L26.595 12.988C26.5398 13.1427 26.4502 13.2829 26.333 13.398L25.714 11.538L25.755 11.522ZM25.548 11.598L25.61 11.575L26.243 13.481C26.1322 13.5722 26.0107 13.6495 25.881 13.711L25.548 11.598Z"
		fill="#965032"
	/>
	<path
		d="M29.226 15.054L28.635 15.045L28.579 15.252C28.524 15.459 27.998 15.693 27.674 15.806C27.5748 15.8503 27.4886 15.9193 27.4238 16.0066C27.359 16.0938 27.3177 16.1962 27.304 16.304H26.695L26.52 15.928L25.55 15.308L25.384 15.054L24.644 15.045L24.155 13.701C24.1939 13.669 24.2399 13.6468 24.2892 13.6363C24.3384 13.6259 24.3895 13.6275 24.438 13.641C24.4589 13.5663 24.4994 13.4985 24.5553 13.4447C24.6112 13.3909 24.6805 13.353 24.756 13.335C25.143 13.212 25.226 13.664 25.226 13.664C25.901 13.447 25.706 14.096 25.706 14.096C25.873 13.654 26.483 13.532 26.649 13.936C26.6817 14.0015 26.6904 14.0764 26.6736 14.1477C26.6568 14.2189 26.6155 14.282 26.557 14.326C26.597 14.3848 26.6506 14.4331 26.7133 14.4667C26.776 14.5003 26.8459 14.5182 26.917 14.519"
		fill="#F5F5F5"
	/>
	<path
		d="M27.321 10.41C27.1122 10.343 26.8878 10.343 26.679 10.41C26.6452 10.4662 26.5939 10.5098 26.533 10.534C26.4848 10.5543 26.4309 10.5569 26.381 10.5413C26.331 10.5258 26.2882 10.4931 26.26 10.449C26.2367 10.4153 26.2255 10.3747 26.2282 10.3339C26.2309 10.293 26.2474 10.2543 26.275 10.224C26.2852 10.2136 26.2975 10.2053 26.3109 10.1996C26.3244 10.194 26.3389 10.1911 26.3535 10.1911C26.3681 10.1911 26.3826 10.194 26.3961 10.1996C26.4095 10.2053 26.4218 10.2136 26.432 10.224C26.4443 10.2369 26.4534 10.2524 26.4586 10.2694C26.4638 10.2865 26.465 10.3045 26.462 10.322C26.4726 10.3157 26.4817 10.3073 26.4889 10.2973C26.4962 10.2873 26.5013 10.276 26.504 10.264C26.5049 10.2456 26.5012 10.2272 26.4931 10.2106C26.4851 10.194 26.473 10.1797 26.458 10.169C26.3768 10.1233 26.2831 10.1046 26.1906 10.1156C26.098 10.1265 26.0113 10.1666 25.943 10.23C25.6113 10.5066 25.2067 10.6816 24.778 10.734C24.7311 10.7343 24.6842 10.7303 24.638 10.722C24.5504 10.7066 24.467 10.6727 24.3934 10.6227C24.3198 10.5728 24.2577 10.5077 24.211 10.432C24.1944 10.4071 24.1883 10.3767 24.1939 10.3474C24.1995 10.318 24.2164 10.292 24.241 10.275C24.2532 10.2667 24.2669 10.2609 24.2814 10.258C24.2959 10.2551 24.3108 10.2551 24.3253 10.2581C24.3398 10.2611 24.3535 10.267 24.3656 10.2754C24.3778 10.2838 24.3881 10.2945 24.396 10.307C24.4264 10.3575 24.4673 10.4009 24.516 10.4342C24.5646 10.4675 24.6199 10.4899 24.678 10.5C25.0953 10.4777 25.4938 10.3189 25.812 10.048C25.9125 9.96258 26.0359 9.90875 26.1669 9.89327C26.2978 9.87779 26.4304 9.90136 26.548 9.961C26.6939 10.0138 26.8457 10.0483 27 10.064C27.1543 10.0484 27.3061 10.0138 27.452 9.961C27.5696 9.90136 27.7022 9.87779 27.8331 9.89327C27.9641 9.90875 28.0875 9.96258 28.188 10.048C28.5062 10.3189 28.9047 10.4777 29.322 10.5C29.3801 10.4899 29.4353 10.4674 29.484 10.4341C29.5326 10.4008 29.5735 10.3575 29.604 10.307C29.6119 10.2947 29.6222 10.284 29.6343 10.2757C29.6463 10.2674 29.6599 10.2616 29.6743 10.2586C29.6886 10.2556 29.7034 10.2555 29.7178 10.2584C29.7322 10.2612 29.7458 10.2668 29.758 10.275C29.7826 10.2917 29.7998 10.3173 29.8058 10.3465C29.8117 10.3756 29.8061 10.406 29.79 10.431C29.7431 10.507 29.6806 10.5721 29.6067 10.6221C29.5327 10.6721 29.449 10.7058 29.361 10.721C29.3148 10.7296 29.268 10.7339 29.221 10.734C28.7926 10.6815 28.3884 10.5065 28.057 10.23C27.9888 10.1668 27.9023 10.1269 27.8099 10.1159C27.7176 10.105 27.6241 10.1235 27.543 10.169C27.5278 10.1796 27.5155 10.1939 27.5073 10.2105C27.4991 10.2271 27.4952 10.2455 27.496 10.264C27.4986 10.2759 27.5036 10.2872 27.5106 10.2972C27.5177 10.3071 27.5266 10.3156 27.537 10.322C27.5341 10.3044 27.5354 10.2863 27.5408 10.2693C27.5462 10.2523 27.5555 10.2368 27.568 10.224C27.5782 10.2136 27.5905 10.2053 27.6039 10.1996C27.6174 10.194 27.6319 10.1911 27.6465 10.1911C27.6611 10.1911 27.6756 10.194 27.6891 10.1996C27.7025 10.2053 27.7148 10.2136 27.725 10.224C27.7526 10.2543 27.7691 10.293 27.7718 10.3339C27.7745 10.3747 27.7633 10.4153 27.74 10.449C27.7118 10.4931 27.669 10.5258 27.619 10.5413C27.5691 10.5569 27.5152 10.5543 27.467 10.534C27.4061 10.5098 27.3548 10.4662 27.321 10.41ZM25.905 15.471C25.828 15.4462 25.7568 15.4061 25.6958 15.353C25.6347 15.2998 25.5851 15.2349 25.55 15.162C25.5294 15.1205 25.5244 15.0729 25.536 15.028C25.551 14.993 25.569 14.97 25.586 14.965C25.6002 14.9631 25.6146 14.9659 25.627 14.973C25.635 14.983 25.639 15.011 25.632 15.018C25.6103 15.0387 25.5976 15.067 25.5967 15.097C25.5958 15.1269 25.6066 15.156 25.627 15.178C25.637 15.1887 25.649 15.1973 25.6623 15.2033C25.6756 15.2093 25.69 15.2126 25.7047 15.213C25.7193 15.2133 25.7338 15.2108 25.7474 15.2055C25.7611 15.2002 25.7735 15.1922 25.784 15.182C25.8069 15.1595 25.8251 15.1328 25.8376 15.1033C25.8501 15.0738 25.8567 15.0421 25.857 15.01C25.8595 14.9707 25.8529 14.9314 25.8377 14.8951C25.8226 14.8588 25.7992 14.8264 25.7695 14.8006C25.7398 14.7748 25.7046 14.7561 25.6665 14.7461C25.6284 14.7362 25.5886 14.7351 25.55 14.743C25.5267 14.7476 25.5042 14.7553 25.483 14.766C25.4933 14.7176 25.4906 14.6674 25.4754 14.6204C25.4601 14.5733 25.4327 14.5311 25.396 14.498C25.357 14.4715 25.3111 14.4571 25.264 14.4566C25.2168 14.4561 25.1706 14.4694 25.131 14.495C25.0885 14.5189 25.0539 14.5548 25.0315 14.5982C25.0091 14.6415 24.9999 14.6905 25.005 14.739C25.0074 14.7534 25.0127 14.7671 25.0204 14.7794C25.0282 14.7917 25.0383 14.8024 25.0502 14.8107C25.0621 14.8191 25.0756 14.825 25.0898 14.8282C25.104 14.8313 25.1187 14.8316 25.133 14.829C25.1635 14.8236 25.1908 14.8069 25.2095 14.7823C25.2283 14.7576 25.237 14.7268 25.234 14.696C25.247 14.685 25.264 14.681 25.263 14.678C25.263 14.678 25.278 14.703 25.26 14.783C25.2536 14.8357 25.2319 14.8854 25.1976 14.9259C25.1633 14.9664 25.1179 14.996 25.067 15.011C24.9985 15.0256 24.9274 15.0218 24.8608 15C24.7942 14.9783 24.7346 14.9393 24.688 14.887C24.4474 14.4258 24.2563 13.9404 24.118 13.439C24.3573 13.3424 24.5605 13.1735 24.6992 12.9558C24.838 12.7382 24.9054 12.4827 24.892 12.225C24.894 12.0088 24.8382 11.796 24.7305 11.6086C24.6227 11.4212 24.4668 11.266 24.279 11.159C24.1346 11.1117 23.9779 11.1196 23.839 11.181C23.8032 11.1991 23.7714 11.2241 23.7455 11.2547C23.7195 11.2853 23.7 11.3207 23.688 11.359C23.6672 11.424 23.6727 11.4945 23.7031 11.5556C23.7335 11.6167 23.7866 11.6635 23.851 11.686C23.8779 11.6969 23.9068 11.7024 23.9359 11.702C23.965 11.7016 23.9937 11.6954 24.0203 11.6838C24.047 11.6721 24.071 11.6553 24.0911 11.6342C24.1111 11.6131 24.1267 11.5882 24.137 11.561C24.1485 11.5338 24.1488 11.5032 24.138 11.4757C24.1271 11.4482 24.106 11.4261 24.079 11.414C24.0656 11.4084 24.0513 11.4055 24.0368 11.4056C24.0223 11.4057 24.008 11.4088 23.9947 11.4146C23.9814 11.4204 23.9695 11.4288 23.9596 11.4394C23.9496 11.4499 23.942 11.4624 23.937 11.476C23.932 11.478 23.917 11.473 23.905 11.459C23.901 11.4548 23.8983 11.4496 23.8973 11.4439C23.8962 11.4382 23.8968 11.4323 23.899 11.427C23.9026 11.4169 23.9083 11.4077 23.9157 11.3999C23.9231 11.3921 23.9321 11.386 23.942 11.382C24.0283 11.3479 24.1238 11.345 24.212 11.374C24.3555 11.4664 24.4729 11.5938 24.5533 11.7444C24.6336 11.8949 24.6741 12.0634 24.671 12.234C24.6799 12.4631 24.6133 12.6888 24.4814 12.8763C24.3495 13.0639 24.1596 13.2029 23.941 13.272C23.9151 13.2829 23.8941 13.3031 23.8823 13.3286C23.8705 13.3541 23.8686 13.3832 23.877 13.41C24.0339 13.9742 24.2508 14.52 24.524 15.038C24.5831 15.1027 24.6548 15.1546 24.7348 15.1904C24.8148 15.2262 24.9014 15.2451 24.989 15.246C25.0346 15.2463 25.0799 15.2406 25.124 15.229C25.1951 15.2089 25.2603 15.1718 25.314 15.121C25.3189 15.1642 25.3293 15.2065 25.345 15.247C25.3929 15.3502 25.4614 15.4425 25.5464 15.5182C25.6314 15.5939 25.7309 15.6513 25.839 15.687C26.51 15.961 26.574 16.144 26.57 16.211C26.5696 16.2241 26.5658 16.2369 26.5589 16.2481C26.5521 16.2594 26.5425 16.2686 26.531 16.275C26.5248 16.2789 26.518 16.2819 26.511 16.284C26.5235 16.2664 26.5308 16.2456 26.532 16.224C26.5333 16.2024 26.5284 16.1809 26.518 16.162C26.5111 16.1492 26.5017 16.1379 26.4904 16.1288C26.4791 16.1196 26.4661 16.1128 26.4522 16.1087C26.4382 16.1046 26.4236 16.1033 26.4092 16.1049C26.3947 16.1065 26.3807 16.111 26.368 16.118C26.325 16.1427 26.2927 16.1824 26.2772 16.2294C26.2617 16.2765 26.2641 16.3276 26.284 16.373C26.3014 16.4148 26.331 16.4504 26.3691 16.4751C26.4071 16.4997 26.4517 16.5122 26.497 16.511C26.5128 16.5111 26.5285 16.5098 26.544 16.507C26.6115 16.495 26.6729 16.4603 26.718 16.4086C26.7631 16.357 26.7892 16.2915 26.792 16.223C26.811 15.882 26.304 15.634 25.905 15.471ZM30.312 11.359C30.3 11.3207 30.2805 11.2853 30.2545 11.2547C30.2286 11.2241 30.1968 11.1991 30.161 11.181C30.0221 11.1196 29.8654 11.1117 29.721 11.159C29.5332 11.266 29.3773 11.4212 29.2695 11.6086C29.1618 11.796 29.106 12.0088 29.108 12.225C29.0946 12.4827 29.162 12.7382 29.3008 12.9558C29.4395 13.1735 29.6427 13.3424 29.882 13.439C29.7437 13.9404 29.5526 14.4258 29.312 14.887C29.2653 14.9394 29.2055 14.9785 29.1387 15.0003C29.072 15.0221 29.0006 15.0258 28.932 15.011C28.8813 14.9958 28.8361 14.9661 28.802 14.9256C28.7679 14.8851 28.7463 14.8356 28.74 14.783C28.722 14.703 28.737 14.678 28.737 14.678C28.737 14.681 28.753 14.685 28.766 14.696C28.763 14.7267 28.7716 14.7573 28.7901 14.782C28.8086 14.8066 28.8357 14.8234 28.866 14.829C28.8804 14.8317 28.8952 14.8316 28.9095 14.8285C28.9238 14.8254 28.9374 14.8195 28.9494 14.8111C28.9615 14.8028 28.9717 14.7921 28.9795 14.7797C28.9873 14.7673 28.9926 14.7535 28.995 14.739C29 14.6904 28.9906 14.6413 28.9681 14.598C28.9455 14.5546 28.9107 14.5188 28.868 14.495C28.8285 14.4696 28.7825 14.4564 28.7355 14.4569C28.6886 14.4575 28.6429 14.4717 28.604 14.498C28.5673 14.5311 28.5399 14.5733 28.5246 14.6204C28.5094 14.6674 28.5067 14.7176 28.517 14.766C28.4958 14.7553 28.4733 14.7476 28.45 14.743C28.4072 14.7356 28.3633 14.7385 28.3219 14.7516C28.2805 14.7646 28.2428 14.7874 28.212 14.818C28.1649 14.8706 28.1398 14.9394 28.142 15.01C28.1424 15.0421 28.1491 15.0739 28.1618 15.1034C28.1745 15.1329 28.1929 15.1596 28.216 15.182C28.2266 15.1921 28.239 15.2 28.2527 15.2052C28.2664 15.2105 28.2809 15.2129 28.2955 15.2125C28.3102 15.212 28.3245 15.2086 28.3378 15.2025C28.3511 15.1964 28.3631 15.1878 28.373 15.177C28.3934 15.155 28.4042 15.1259 28.4033 15.096C28.4024 15.066 28.3897 15.0377 28.368 15.017C28.361 15.011 28.365 14.982 28.373 14.973C28.3851 14.9661 28.3992 14.9633 28.413 14.965C28.43 14.97 28.449 14.993 28.464 15.028C28.4756 15.0729 28.4706 15.1205 28.45 15.162C28.415 15.2351 28.3654 15.3002 28.3044 15.3535C28.2434 15.4068 28.1721 15.4471 28.095 15.472C27.695 15.634 27.189 15.882 27.208 16.223C27.2108 16.2915 27.2369 16.357 27.282 16.4086C27.3271 16.4603 27.3885 16.495 27.456 16.507C27.4715 16.5097 27.4872 16.5111 27.503 16.511C27.5481 16.512 27.5925 16.4994 27.6303 16.4748C27.6682 16.4502 27.6977 16.4147 27.715 16.373C27.735 16.3277 27.7376 16.2767 27.7222 16.2296C27.7069 16.1826 27.6748 16.1428 27.632 16.118C27.6193 16.111 27.6053 16.1065 27.5908 16.1049C27.5764 16.1033 27.5618 16.1046 27.5478 16.1087C27.5339 16.1128 27.5209 16.1196 27.5096 16.1288C27.4983 16.1379 27.4889 16.1492 27.482 16.162C27.4716 16.1809 27.4667 16.2024 27.468 16.224C27.4692 16.2456 27.4765 16.2664 27.489 16.284C27.482 16.2819 27.4752 16.2789 27.469 16.275C27.4573 16.2687 27.4475 16.2595 27.4405 16.2483C27.4335 16.2371 27.4295 16.2242 27.429 16.211C27.426 16.144 27.489 15.961 28.161 15.687C28.2689 15.6512 28.3683 15.5937 28.4531 15.518C28.5378 15.4424 28.6062 15.3501 28.654 15.247C28.67 15.2066 28.6808 15.1642 28.686 15.121C28.7397 15.1718 28.8049 15.2089 28.876 15.229C28.9201 15.2406 28.9654 15.2463 29.011 15.246C29.0986 15.2451 29.1852 15.2262 29.2652 15.1904C29.3452 15.1546 29.4169 15.1027 29.476 15.038C29.7492 14.52 29.9661 13.9742 30.123 13.41C30.1315 13.3833 30.1297 13.3544 30.1181 13.3289C30.1065 13.3034 30.0857 13.2831 30.06 13.272C29.8414 13.2029 29.6515 13.0639 29.5196 12.8763C29.3877 12.6888 29.3211 12.4631 29.33 12.234C29.3267 12.0636 29.3669 11.8952 29.4469 11.7447C29.5268 11.5942 29.6439 11.4666 29.787 11.374C29.8755 11.3448 29.9714 11.3476 30.058 11.382C30.0679 11.386 30.0769 11.3921 30.0843 11.3999C30.0917 11.4077 30.0974 11.4169 30.101 11.427C30.1032 11.4323 30.1038 11.4382 30.1027 11.4439C30.1017 11.4496 30.099 11.4548 30.095 11.459C30.083 11.473 30.068 11.479 30.063 11.476C30.058 11.4624 30.0504 11.4499 30.0404 11.4394C30.0305 11.4288 30.0186 11.4204 30.0053 11.4146C29.992 11.4088 29.9777 11.4057 29.9632 11.4056C29.9487 11.4055 29.9344 11.4084 29.921 11.414C29.8939 11.4259 29.8725 11.4479 29.8614 11.4754C29.8504 11.5029 29.8506 11.5337 29.862 11.561C29.8723 11.5883 29.8879 11.6133 29.908 11.6345C29.9281 11.6557 29.9523 11.6726 29.979 11.6842C30.0058 11.6959 30.0346 11.7021 30.0638 11.7024C30.093 11.7027 30.122 11.6971 30.149 11.686C30.2134 11.6635 30.2665 11.6167 30.2969 11.5556C30.3273 11.4945 30.3328 11.424 30.312 11.359Z"
		fill="#FFE15A"
	/>
</svg>
