<svg viewBox="0 0 36 24" fill="none" xmlns="http://www.w3.org/2000/svg">
	<path d="M0 0H36V24H0V0Z" fill="#F5F5F5" />
	<path d="M15.805 0H0V10.537L15.805 0Z" fill="#FFE15A" />
	<path
		d="M14.222 10.078C14.0902 9.1518 13.6654 8.29213 13.0096 7.62489C12.3539 6.95764 11.5018 6.51788 10.578 6.37L9.931 5.053L9.284 6.37C8.36024 6.51788 7.50809 6.95764 6.85236 7.62489C6.19663 8.29213 5.77177 9.1518 5.64 10.078L4.345 10.737L5.64 11.396C5.77177 12.3222 6.19663 13.1819 6.85236 13.8491C7.50809 14.5164 8.36024 14.9561 9.284 15.104L9.931 16.421L10.578 15.104C11.5018 14.9561 12.3539 14.5164 13.0096 13.8491C13.6654 13.1819 14.0902 12.3222 14.222 11.396L15.517 10.736L14.222 10.078ZM9.931 14.526C9.18153 14.5389 8.44505 14.3293 7.81469 13.9237C7.18433 13.5181 6.68841 12.9347 6.38964 12.2472C6.09087 11.5597 6.00266 10.7991 6.13617 10.0615C6.26968 9.32391 6.61892 8.64246 7.13972 8.10334C7.66052 7.56423 8.32948 7.19165 9.06203 7.03273C9.79457 6.8738 10.5578 6.93567 11.2552 7.21051C11.9526 7.48534 12.5528 7.96081 12.9799 8.57677C13.4071 9.19273 13.642 9.92153 13.655 10.671V10.737C13.6594 11.2304 13.5665 11.7198 13.3817 12.1773C13.1969 12.6348 12.9238 13.0514 12.578 13.4033C12.2322 13.7552 11.8204 14.0356 11.3663 14.2284C10.9121 14.4212 10.4244 14.5227 9.931 14.527V14.526Z"
		fill="#464655"
	/>
	<path
		d="M9.931 8.308L10.599 9.559L11.998 9.523L11.268 10.737L11.998 11.951L10.599 11.915L9.931 13.165L9.263 11.915L7.864 11.951L8.594 10.737L7.864 9.523L9.263 9.559L9.931 8.308Z"
		fill="#FF4B55"
	/>
	<path d="M0 24L36 0V24" fill="#41479B" />
</svg>
