<svg viewBox="0 0 36 24" fill="none" xmlns="http://www.w3.org/2000/svg">
	<path d="M0 0H36V8H0V0Z" fill="#FF4B55" />
	<path d="M0 8H36V16H0V8Z" fill="#FFE15A" />
	<path
		d="M17.532 14.71H17.844V15.709C17.8443 15.7309 17.838 15.7524 17.826 15.7707C17.814 15.789 17.7968 15.8034 17.7766 15.8119C17.7564 15.8203 17.7342 15.8226 17.7127 15.8184C17.6912 15.8141 17.6714 15.8035 17.656 15.788L17.602 15.733C17.5571 15.687 17.532 15.6253 17.532 15.561V14.71ZM18.156 15.709C18.1557 15.7309 18.162 15.7524 18.174 15.7707C18.186 15.789 18.2032 15.8034 18.2234 15.8119C18.2436 15.8203 18.2658 15.8226 18.2873 15.8184C18.3088 15.8141 18.3286 15.8035 18.344 15.788L18.398 15.733C18.4429 15.687 18.468 15.6253 18.468 15.561V14.709H18.156V15.709ZM20.964 11.564V10.9L20.496 11.246V10.424L18.78 11.694L18.508 11.689L18.631 11.544L18.331 11.674L18.458 11.369L18.212 11.587L18.241 11.256L18.073 11.541L18 11.217L17.927 11.541L17.759 11.256L17.787 11.586L17.542 11.369L17.669 11.674L17.369 11.544L17.492 11.689L17.22 11.693L15.504 10.423V11.246L15.036 10.9V11.564L14.568 11.217V13.828C14.5664 14.0047 14.5997 14.18 14.6659 14.3439C14.7321 14.5077 14.8299 14.6569 14.9538 14.7829C15.0777 14.909 15.2252 15.0093 15.3879 15.0783C15.5506 15.1473 15.7253 15.1836 15.902 15.185C16.1521 15.1848 16.397 15.1133 16.608 14.979L17.532 14.392V14.372L18 14.074L18.468 14.372V14.392L19.392 14.979C19.603 15.1133 19.8479 15.1848 20.098 15.185C20.2746 15.1836 20.4492 15.1473 20.6119 15.0784C20.7745 15.0095 20.922 14.9092 21.0459 14.7833C21.1697 14.6574 21.2676 14.5083 21.3338 14.3446C21.4001 14.1808 21.4334 14.0056 21.432 13.829V11.217L20.964 11.564Z"
		fill="#FF4B55"
	/>
	<path
		d="M18.488 10.21L20.34 9.63L19.357 9.255C19.182 9.18816 18.9963 9.15393 18.809 9.154H18.624C18.6033 9.15413 18.5828 9.15835 18.5638 9.16643C18.5447 9.1745 18.5274 9.18627 18.5129 9.20104C18.4984 9.21582 18.487 9.23332 18.4793 9.25253C18.4716 9.27175 18.4677 9.2923 18.468 9.313V9.471H17.532V9.313C17.5324 9.29222 17.5287 9.27156 17.521 9.25223C17.5134 9.2329 17.502 9.21528 17.4874 9.2004C17.4729 9.18551 17.4556 9.17366 17.4365 9.16552C17.4173 9.15738 17.3968 9.15313 17.376 9.153H17.191C17.0036 9.15332 16.8179 9.18788 16.643 9.255L15.66 9.63L17.512 10.21C17.5337 10.2171 17.5536 10.2288 17.5704 10.2443C17.5872 10.2597 17.6005 10.2786 17.6094 10.2996C17.6184 10.3207 17.6227 10.3434 17.6221 10.3662C17.6215 10.389 17.616 10.4115 17.606 10.432L17.376 10.9H18.624L18.394 10.432C18.384 10.4115 18.3785 10.389 18.3779 10.3662C18.3773 10.3434 18.3816 10.3207 18.3906 10.2996C18.3995 10.2786 18.4128 10.2597 18.4296 10.2443C18.4464 10.2288 18.4663 10.2171 18.488 10.21Z"
		fill="#825546"
	/>
	<path
		d="M17.376 14.55H17.532V15.503L17.423 15.393C17.3926 15.3617 17.3757 15.3197 17.376 15.276V14.55ZM18.468 15.503L18.577 15.393C18.6074 15.3617 18.6243 15.3197 18.624 15.276V14.55H18.468V15.503ZM19.872 11.708V10.885L18.78 11.693L18.468 11.688V11.671L18 11.68L17.532 11.671V11.688L17.22 11.693L16.128 10.885V11.708L15.66 11.362V13.194C15.6571 13.5505 15.7958 13.8937 16.0458 14.1479C16.2958 14.4022 16.6365 14.5468 16.993 14.55C17.1034 14.5495 17.2133 14.5351 17.32 14.507L18 14.074L18.68 14.507C18.7864 14.535 18.896 14.5494 19.006 14.55C19.1826 14.5486 19.3572 14.5123 19.5199 14.4434C19.6825 14.3745 19.83 14.2742 19.9538 14.1483C20.0777 14.0224 20.1756 13.8733 20.2418 13.7096C20.3081 13.5458 20.3415 13.3706 20.34 13.194V11.362L19.872 11.708Z"
		fill="#FFE15A"
	/>
	<path
		d="M36 16V24H0V16H36ZM16.757 10.403C16.8969 10.5957 17.0797 10.7532 17.291 10.863C17.3993 10.9208 17.5146 10.9645 17.634 10.993C17.694 11.0073 17.7548 11.0183 17.816 11.026C17.846 11.032 17.877 11.031 17.908 11.034L17.977 11.037L17.989 11.038H18.014C18.068 11.034 18.111 11.034 18.171 11.028C18.2366 11.0203 18.3018 11.0086 18.366 10.993C18.4854 10.9645 18.6007 10.9208 18.709 10.863C18.9203 10.7532 19.1031 10.5957 19.243 10.403C19.3743 10.2248 19.4651 10.02 19.509 9.803C19.5494 9.61273 19.5524 9.41643 19.518 9.225C19.4697 8.94689 19.3382 8.68994 19.141 8.488C19.0883 8.43481 19.0311 8.38629 18.97 8.343L18.904 8.3C18.8903 8.29105 18.8742 8.28662 18.8579 8.28734C18.8415 8.28805 18.8258 8.29388 18.813 8.304C18.7965 8.31717 18.7859 8.33634 18.7834 8.35732C18.781 8.3783 18.7869 8.3994 18.8 8.416L18.803 8.421L18.846 8.476C18.8841 8.52826 18.9192 8.58268 18.951 8.639C19.0407 8.79528 19.0959 8.96893 19.113 9.14829C19.13 9.32766 19.1086 9.50861 19.05 9.679C18.9998 9.81987 18.9242 9.95035 18.827 10.064C18.7248 10.1817 18.5987 10.2761 18.457 10.341C18.3862 10.3748 18.3117 10.4003 18.235 10.417C18.195 10.429 18.165 10.427 18.131 10.436C18.095 10.44 18.042 10.441 17.997 10.443H17.985L17.97 10.442L17.94 10.441C17.9206 10.4407 17.9012 10.4394 17.882 10.437C17.8427 10.4324 17.8036 10.4257 17.765 10.417C17.6883 10.4003 17.6138 10.3748 17.543 10.341C17.4013 10.2762 17.2751 10.1817 17.173 10.064C17.0757 9.95006 17.0001 9.81922 16.95 9.678C16.9057 9.54582 16.8827 9.40741 16.882 9.268C16.8846 9.04772 16.942 8.83155 17.049 8.639C17.0806 8.58395 17.115 8.53055 17.152 8.479L17.198 8.419C17.2082 8.40588 17.2142 8.39 17.2153 8.37342C17.2164 8.35684 17.2124 8.34032 17.204 8.326C17.1986 8.31695 17.1914 8.30909 17.1829 8.3029C17.1743 8.29671 17.1646 8.29231 17.1543 8.28998C17.1441 8.28764 17.1334 8.28741 17.123 8.28931C17.1127 8.2912 17.1028 8.29518 17.094 8.301L17.032 8.341C16.9702 8.38496 16.9124 8.43414 16.859 8.488C16.6618 8.68997 16.5304 8.94691 16.482 9.225C16.4471 9.4164 16.4502 9.61278 16.491 9.803C16.535 10.02 16.6258 10.2247 16.757 10.403ZM16.994 14.565C17.1041 14.5641 17.2136 14.5493 17.32 14.521L17.521 14.393L17.615 14.476L18.565 14.448L18.68 14.521C18.7864 14.5493 18.8959 14.5641 19.006 14.565C19.1827 14.5636 19.3574 14.5273 19.5201 14.4583C19.6828 14.3893 19.8303 14.289 19.9542 14.1629C20.0781 14.0369 20.1759 13.8877 20.2421 13.7239C20.3083 13.56 20.3416 13.3847 20.34 13.208V12.025L19.872 12.372V11.708L19.404 12.054V11.232L18.78 11.693L18.468 11.688V11.671L18 11.68L17.532 11.671V11.688L17.22 11.693L16.596 11.232V12.054L16.128 11.708V12.372L15.66 12.025V13.208C15.6584 13.3847 15.6917 13.56 15.7579 13.7239C15.8241 13.8877 15.9219 14.0369 16.0458 14.1629C16.1697 14.289 16.3172 14.3893 16.4799 14.4583C16.6426 14.5273 16.8173 14.5636 16.994 14.565ZM17.22 14.94C17.2199 14.9953 17.2415 15.0484 17.28 15.088L17.376 15.185V14.55L17.22 14.551V14.94ZM18.624 15.185L18.72 15.088C18.7585 15.0484 18.7801 14.9953 18.78 14.94V14.55H18.624V15.185Z"
		fill="#73AF00"
	/>
	<path
		d="M18 14.789C17.4895 14.7503 17.0149 14.5119 16.679 14.1255C16.3432 13.7391 16.1732 13.2359 16.206 12.725C16.1735 12.2143 16.3436 11.7113 16.6794 11.3251C17.0152 10.939 17.4897 10.7007 18 10.662C18.5103 10.7007 18.9848 10.939 19.3206 11.3251C19.6564 11.7113 19.8265 12.2143 19.794 12.725C19.8271 13.2361 19.6572 13.7395 19.3213 14.1262C18.9855 14.5128 18.5107 14.7513 18 14.79V14.789ZM18 11.138C17.6151 11.1761 17.2606 11.3637 17.0126 11.6604C16.7646 11.9572 16.643 12.3395 16.674 12.725C16.643 13.1105 16.7646 13.4928 17.0126 13.7896C17.2606 14.0863 17.6151 14.2739 18 14.312C18.3849 14.2739 18.7394 14.0863 18.9874 13.7896C19.2354 13.4928 19.357 13.1105 19.326 12.725C19.357 12.3395 19.2354 11.9572 18.9874 11.6604C18.7394 11.3637 18.3849 11.1761 18 11.138Z"
		fill="#3CC8FF"
	/>
	<path
		d="M20.301 14.425C20.3011 14.4456 20.2972 14.4661 20.2894 14.4852C20.2817 14.5043 20.2702 14.5216 20.2557 14.5363C20.2412 14.551 20.224 14.5627 20.205 14.5707C20.186 14.5787 20.1656 14.5829 20.145 14.583C20.1245 14.5829 20.1041 14.5787 20.0853 14.5706C20.0664 14.5625 20.0493 14.5508 20.035 14.536C20.0055 14.5645 19.9705 14.5868 19.9322 14.6016C19.8939 14.6163 19.8531 14.6232 19.812 14.6219C19.771 14.6206 19.7307 14.6111 19.6934 14.594C19.6561 14.5768 19.6227 14.5523 19.595 14.522L19.153 14.044L19.073 14.102C19.0704 14.1039 19.0673 14.1049 19.0641 14.1049C19.0609 14.1048 19.0578 14.1038 19.0553 14.1019C19.0527 14.1 19.0508 14.0974 19.0499 14.0943C19.0489 14.0913 19.049 14.088 19.05 14.085L19.083 13.98L18.996 13.914C18.9935 13.9122 18.9917 13.9096 18.9907 13.9067C18.9898 13.9038 18.9897 13.9007 18.9906 13.8977C18.9915 13.8948 18.9932 13.8922 18.9956 13.8902C18.998 13.8883 19.0009 13.8872 19.004 13.887H19.008L18.998 13.876C18.8213 14.1079 18.5738 14.2757 18.293 14.354L18.296 14.357L18.33 14.462H18.439C18.4423 14.4619 18.4456 14.4629 18.4484 14.4649C18.4511 14.4668 18.453 14.4696 18.454 14.4729C18.4549 14.4761 18.4547 14.4795 18.4534 14.4826C18.4522 14.4857 18.4499 14.4883 18.447 14.49L18.36 14.555L18.393 14.661C18.3937 14.6639 18.3935 14.667 18.3925 14.6699C18.3914 14.6727 18.3895 14.6752 18.387 14.6769C18.3845 14.6786 18.3816 14.6796 18.3785 14.6796C18.3755 14.6796 18.3725 14.6787 18.37 14.677L18.282 14.613L18.193 14.677C18.1905 14.6784 18.1877 14.679 18.1848 14.6789C18.182 14.6787 18.1792 14.6777 18.1769 14.676C18.1746 14.6743 18.1728 14.672 18.1718 14.6694C18.1707 14.6667 18.1704 14.6638 18.171 14.661L18.204 14.555L18.116 14.49C18.1135 14.4881 18.1116 14.4855 18.1107 14.4825C18.1097 14.4795 18.1098 14.4762 18.1108 14.4733C18.1118 14.4703 18.1137 14.4677 18.1162 14.4658C18.1188 14.464 18.1219 14.463 18.125 14.463H18.234L18.267 14.361C18.0912 14.4031 17.9078 14.4031 17.732 14.361L17.765 14.462H17.875C17.8783 14.4619 17.8816 14.4629 17.8844 14.4649C17.8871 14.4668 17.889 14.4696 17.89 14.4729C17.8909 14.4761 17.8907 14.4795 17.8894 14.4826C17.8882 14.4857 17.8859 14.4883 17.883 14.49L17.795 14.555L17.828 14.661C17.8285 14.6638 17.8283 14.6667 17.8272 14.6694C17.8262 14.672 17.8244 14.6743 17.8221 14.676C17.8198 14.6777 17.817 14.6787 17.8142 14.6789C17.8113 14.679 17.8085 14.6784 17.806 14.677L17.717 14.613L17.629 14.677C17.6265 14.6787 17.6235 14.6796 17.6205 14.6796C17.6174 14.6796 17.6145 14.6786 17.612 14.6769C17.6095 14.6752 17.6076 14.6727 17.6065 14.6699C17.6055 14.667 17.6053 14.6639 17.606 14.661L17.639 14.555L17.552 14.49C17.5495 14.4882 17.5477 14.4856 17.5467 14.4827C17.5458 14.4798 17.5457 14.4767 17.5466 14.4737C17.5474 14.4708 17.5492 14.4682 17.5516 14.4662C17.554 14.4643 17.5569 14.4632 17.56 14.463H17.669L17.703 14.357L17.706 14.354C17.4256 14.2755 17.1784 14.1076 17.002 13.876L16.992 13.887H16.995C16.9981 13.887 17.0012 13.888 17.0038 13.8898C17.0063 13.8917 17.0082 13.8943 17.0092 13.8973C17.0102 13.9002 17.0103 13.9035 17.0093 13.9065C17.0084 13.9095 17.0065 13.9121 17.004 13.914L16.916 13.98L16.949 14.085C16.95 14.088 16.9501 14.0913 16.9491 14.0943C16.9482 14.0974 16.9463 14.1 16.9437 14.1019C16.9412 14.1038 16.9381 14.1048 16.9349 14.1049C16.9317 14.1049 16.9286 14.1039 16.926 14.102L16.846 14.044L16.406 14.522C16.3783 14.5523 16.3449 14.5768 16.3076 14.594C16.2703 14.6111 16.23 14.6206 16.189 14.6219C16.1479 14.6232 16.1071 14.6163 16.0688 14.6016C16.0305 14.5868 15.9955 14.5645 15.966 14.536C15.9516 14.5509 15.9344 14.5627 15.9153 14.5708C15.8962 14.5789 15.8757 14.583 15.855 14.583C15.8344 14.5829 15.814 14.5787 15.795 14.5707C15.776 14.5627 15.7588 14.551 15.7443 14.5363C15.7298 14.5216 15.7183 14.5043 15.7106 14.4852C15.7028 14.4661 15.6989 14.4456 15.699 14.425C15.6988 14.3827 15.7153 14.3421 15.745 14.312C15.6882 14.2504 15.6578 14.1689 15.6605 14.0851C15.6631 14.0014 15.6985 13.922 15.759 13.864L16.642 13.019C16.6279 12.922 16.6209 12.824 16.621 12.726C16.6173 12.3437 16.7303 11.9693 16.945 11.653L16.395 11.058L16.837 10.608L17.451 11.196C17.6199 11.1057 17.8085 11.0584 18 11.0584C18.1915 11.0584 18.3801 11.1057 18.549 11.196L19.163 10.609L19.604 11.058L19.055 11.653C19.2697 11.9693 19.3827 12.3437 19.379 12.726C19.3788 12.8241 19.3715 12.922 19.357 13.019L20.241 13.864C20.3015 13.922 20.3369 14.0014 20.3395 14.0851C20.3422 14.1689 20.3118 14.2504 20.255 14.312C20.2847 14.3421 20.3012 14.3827 20.301 14.425ZM17.387 14.25L17.277 14.249L17.244 14.144C17.2429 14.1412 17.241 14.1387 17.2385 14.137C17.236 14.1353 17.233 14.1344 17.23 14.1344C17.227 14.1344 17.224 14.1353 17.2215 14.137C17.219 14.1387 17.2171 14.1412 17.216 14.144L17.181 14.249H17.073C17.0699 14.249 17.0668 14.25 17.0642 14.2518C17.0617 14.2537 17.0598 14.2563 17.0588 14.2593C17.0578 14.2622 17.0577 14.2655 17.0587 14.2685C17.0596 14.2715 17.0615 14.2741 17.064 14.276L17.152 14.342L17.119 14.447C17.1182 14.4499 17.1183 14.4529 17.1192 14.4558C17.1201 14.4586 17.1219 14.4611 17.1243 14.4629C17.1266 14.4647 17.1295 14.4658 17.1325 14.466C17.1355 14.4662 17.1384 14.4655 17.141 14.464L17.23 14.4L17.318 14.464C17.3206 14.4659 17.3237 14.4669 17.3269 14.4669C17.3301 14.4668 17.3332 14.4658 17.3357 14.4639C17.3383 14.462 17.3402 14.4594 17.3411 14.4563C17.3421 14.4533 17.342 14.45 17.341 14.447L17.308 14.342L17.395 14.276C17.3971 14.2741 17.3987 14.2716 17.3994 14.2689C17.4002 14.2661 17.4001 14.2632 17.3993 14.2604C17.3985 14.2577 17.3968 14.2553 17.3947 14.2534C17.3925 14.2516 17.3898 14.2504 17.387 14.25ZM16.375 12.938L16.342 13.043C16.341 13.046 16.3409 13.0493 16.3419 13.0523C16.3428 13.0554 16.3447 13.058 16.3473 13.0599C16.3498 13.0618 16.3529 13.0628 16.3561 13.0629C16.3593 13.0629 16.3624 13.0619 16.365 13.06L16.453 12.995L16.542 13.06C16.5446 13.0615 16.5475 13.0622 16.5505 13.062C16.5535 13.0618 16.5564 13.0607 16.5587 13.0589C16.5611 13.0571 16.5629 13.0546 16.5638 13.0518C16.5647 13.0489 16.5648 13.0459 16.564 13.043L16.531 12.938L16.619 12.872C16.6215 12.8701 16.6234 12.8675 16.6243 12.8645C16.6253 12.8615 16.6252 12.8582 16.6242 12.8553C16.6232 12.8523 16.6213 12.8497 16.6188 12.8478C16.6162 12.846 16.6131 12.845 16.61 12.845H16.501L16.467 12.739C16.4659 12.7362 16.464 12.7337 16.4615 12.732C16.459 12.7303 16.456 12.7294 16.453 12.7294C16.45 12.7294 16.447 12.7303 16.4445 12.732C16.442 12.7337 16.4401 12.7362 16.439 12.739L16.405 12.844L16.296 12.845C16.2929 12.8452 16.29 12.8463 16.2876 12.8482C16.2852 12.8502 16.2834 12.8528 16.2826 12.8557C16.2817 12.8587 16.2818 12.8618 16.2827 12.8647C16.2837 12.8676 16.2855 12.8702 16.288 12.872L16.375 12.938ZM18.926 14.25L18.818 14.249L18.783 14.144C18.7818 14.1415 18.7799 14.1393 18.7775 14.1378C18.7751 14.1363 18.7723 14.1355 18.7695 14.1355C18.7667 14.1355 18.7639 14.1363 18.7615 14.1378C18.7591 14.1393 18.7572 14.1415 18.756 14.144L18.721 14.249H18.613C18.6099 14.249 18.6068 14.25 18.6042 14.2518C18.6017 14.2537 18.5998 14.2563 18.5988 14.2593C18.5978 14.2622 18.5977 14.2655 18.5987 14.2685C18.5996 14.2715 18.6015 14.2741 18.604 14.276L18.691 14.342L18.659 14.447C18.6582 14.4499 18.6583 14.4529 18.6592 14.4558C18.6601 14.4586 18.6619 14.4611 18.6643 14.4629C18.6666 14.4647 18.6695 14.4658 18.6725 14.466C18.6754 14.4662 18.6784 14.4655 18.681 14.464L18.769 14.4L18.858 14.464C18.8606 14.4655 18.8635 14.4662 18.8665 14.466C18.8695 14.4658 18.8724 14.4647 18.8747 14.4629C18.8771 14.4611 18.8789 14.4586 18.8798 14.4558C18.8807 14.4529 18.8808 14.4499 18.88 14.447L18.848 14.342L18.935 14.276C18.9372 14.274 18.9387 14.2715 18.9394 14.2686C18.9401 14.2658 18.94 14.2628 18.939 14.26C18.9381 14.2573 18.9363 14.2549 18.934 14.2531C18.9317 14.2513 18.9289 14.2502 18.926 14.25ZM19.56 12.74C19.5589 12.7372 19.557 12.7347 19.5545 12.733C19.552 12.7313 19.549 12.7304 19.546 12.7304C19.543 12.7304 19.54 12.7313 19.5375 12.733C19.535 12.7347 19.5331 12.7372 19.532 12.74L19.498 12.844L19.389 12.845C19.3859 12.845 19.3828 12.846 19.3802 12.8478C19.3777 12.8497 19.3758 12.8523 19.3748 12.8553C19.3738 12.8582 19.3737 12.8615 19.3747 12.8645C19.3756 12.8675 19.3775 12.8701 19.38 12.872L19.468 12.938L19.435 13.043C19.4342 13.0459 19.4343 13.0489 19.4352 13.0518C19.4361 13.0546 19.4379 13.0571 19.4403 13.0589C19.4426 13.0607 19.4455 13.0618 19.4485 13.062C19.4515 13.0622 19.4544 13.0615 19.457 13.06L19.546 12.995L19.634 13.06C19.6366 13.0619 19.6397 13.0629 19.6429 13.0629C19.6461 13.0628 19.6492 13.0618 19.6517 13.0599C19.6543 13.058 19.6562 13.0554 19.6571 13.0523C19.6581 13.0493 19.658 13.046 19.657 13.043L19.624 12.938L19.711 12.872C19.7135 12.8702 19.7153 12.8676 19.7163 12.8647C19.7172 12.8618 19.7173 12.8587 19.7164 12.8557C19.7156 12.8528 19.7138 12.8502 19.7114 12.8482C19.709 12.8463 19.7061 12.8452 19.703 12.845H19.594L19.56 12.74ZM18.156 9.63C18.1563 9.6093 18.1524 9.58875 18.1447 9.56954C18.137 9.55032 18.1256 9.53282 18.1111 9.51804C18.0966 9.50327 18.0793 9.4915 18.0602 9.48343C18.0412 9.47535 18.0207 9.47113 18 9.471H17.753C17.7325 9.47116 17.7122 9.47539 17.6933 9.48346C17.6744 9.49153 17.6573 9.50327 17.643 9.518L17.376 9.788H18C18.0206 9.78787 18.041 9.78368 18.06 9.77567C18.079 9.76766 18.0962 9.75598 18.1107 9.74131C18.1252 9.72664 18.1367 9.70926 18.1444 9.69016C18.1522 9.67106 18.1561 9.65062 18.156 9.63Z"
		fill="#FFBE5A"
	/>
	<path
		d="M21.276 9.789L20.776 10.424H20.496L20.589 10.138L21.276 9.789ZM21.526 10.932L21.432 11.217H21.712L22.212 10.582L21.526 10.932ZM21.057 10.614L20.964 10.9H21.244L21.744 10.265L21.057 10.614ZM14.724 9.789L15.224 10.424L15.504 10.423L15.411 10.138L14.724 9.789ZM13.788 10.582L14.288 11.217H14.568L14.475 10.932L13.788 10.582ZM19.163 10.609C19.102 10.671 19.152 10.822 19.274 10.946C19.396 11.07 19.544 11.12 19.604 11.058C19.664 10.996 19.616 10.845 19.494 10.722C19.372 10.599 19.223 10.547 19.163 10.609ZM16.506 10.722C16.384 10.846 16.335 10.996 16.395 11.058C16.455 11.12 16.605 11.07 16.726 10.946C16.847 10.822 16.898 10.671 16.837 10.61C16.776 10.549 16.627 10.598 16.506 10.722ZM19.011 12.875L18.662 12.969C18.662 12.969 18.857 12.989 18.938 13.279L18.635 13.069C18.6665 13.1172 18.688 13.1713 18.6982 13.228C18.7083 13.2847 18.7069 13.3429 18.694 13.399L18.553 13.087V14.017H18.5V13.067L18.247 13.378C18.2398 13.3168 18.2477 13.2548 18.2698 13.1973C18.2919 13.1398 18.3277 13.0886 18.374 13.048L18.013 13.115C18.0544 13.0493 18.1139 12.9968 18.1842 12.9638C18.2546 12.9308 18.333 12.9188 18.41 12.929L18.115 12.679C18.1885 12.676 18.2616 12.6907 18.3283 12.7219C18.3949 12.753 18.4531 12.7997 18.498 12.858C18.5177 12.7968 18.5542 12.7424 18.6034 12.701C18.6525 12.6596 18.7124 12.6329 18.776 12.624L18.606 12.886C18.7345 12.8315 18.8798 12.8276 19.011 12.875ZM18.531 13.041L18.528 13.034L18.522 13.041H18.531ZM14.256 10.265L14.756 10.9H15.036L14.943 10.614L14.256 10.265ZM18.312 9.63C18.311 9.56851 18.2919 9.50869 18.257 9.45805C18.2221 9.4074 18.1731 9.36819 18.116 9.34534C18.0589 9.32249 17.9963 9.31702 17.9361 9.32962C17.8759 9.34221 17.8208 9.37232 17.7777 9.41614C17.7345 9.45997 17.7053 9.51557 17.6937 9.57595C17.682 9.63633 17.6885 9.6988 17.7123 9.75552C17.736 9.81224 17.776 9.86068 17.8272 9.89475C17.8784 9.92881 17.9385 9.94699 18 9.947C18.0834 9.94621 18.163 9.9124 18.2215 9.85297C18.28 9.79355 18.3125 9.71337 18.312 9.63ZM17.83 13.175V13.106L17.785 13.176C17.7646 13.1813 17.7466 13.1934 17.734 13.2103C17.7215 13.2272 17.7151 13.2479 17.716 13.269V13.369C17.716 13.3834 17.7103 13.3973 17.7002 13.4075C17.6901 13.4178 17.6764 13.4237 17.662 13.424H17.466C17.408 13.424 17.316 13.484 17.316 13.559C17.3174 13.6062 17.3371 13.6511 17.371 13.684L17.322 13.743L17.374 13.995H17.396V13.823C17.415 13.8855 17.4455 13.9438 17.486 13.995H17.528C17.4953 13.9559 17.4754 13.9078 17.471 13.857C17.471 13.779 17.532 13.768 17.532 13.685H17.584V13.995H17.615L17.672 13.719C17.6995 13.8184 17.7449 13.9119 17.806 13.995H17.846C17.7865 13.9013 17.7595 13.7906 17.769 13.68C17.7958 13.6636 17.8178 13.6403 17.8326 13.6125C17.8474 13.5847 17.8544 13.5534 17.853 13.522V13.357C17.853 13.3424 17.8588 13.3284 17.8691 13.3181C17.8794 13.3078 17.8934 13.302 17.908 13.302H17.945C17.945 13.302 17.89 13.192 17.83 13.175Z"
		fill="#F5F5F5"
	/>
</svg>
