<svg viewBox="0 0 36 24" fill="none" xmlns="http://www.w3.org/2000/svg">
	<path d="M36 24H0V0H36" fill="#73AF00" />
	<path
		d="M17.677 3.358L4.595 11.46C4.50368 11.5173 4.42841 11.5969 4.37623 11.6913C4.32406 11.7856 4.29669 11.8917 4.29669 11.9995C4.29669 12.1073 4.32406 12.2134 4.37623 12.3077C4.42841 12.4021 4.50368 12.4817 4.595 12.539L17.677 20.641C17.774 20.7012 17.8858 20.7332 18 20.7332C18.1142 20.7332 18.226 20.7012 18.323 20.641L31.405 12.539C31.4965 12.4817 31.572 12.4021 31.6243 12.3077C31.6767 12.2132 31.7041 12.107 31.7041 11.999C31.7041 11.891 31.6767 11.7848 31.6243 11.6903C31.572 11.5959 31.4965 11.5163 31.405 11.459L18.323 3.359C18.226 3.29875 18.1142 3.26682 18 3.26682C17.8858 3.26682 17.774 3.29775 17.677 3.358Z"
		fill="#FFE15A"
	/>
	<path
		d="M18 6.947C19.003 6.92953 19.9884 7.21097 20.8309 7.75547C21.6733 8.29998 22.3347 9.08291 22.7306 10.0045C23.1266 10.9262 23.2393 11.9448 23.0544 12.9307C22.8695 13.9167 22.3953 14.8252 21.6923 15.5407C20.9892 16.2562 20.0891 16.7463 19.1066 16.9485C18.1241 17.1507 17.1036 17.0559 16.1752 16.6762C15.2467 16.2965 14.4523 15.649 13.8931 14.8162C13.3339 13.9835 13.0352 13.0031 13.035 12C13.0235 10.6716 13.5402 9.39302 14.4712 8.44545C15.4023 7.49787 16.6716 6.95888 18 6.947Z"
		fill="#41479B"
	/>
	<path
		d="M22.943 12.444C22.902 12.9222 22.7936 13.3922 22.621 13.84C20.029 11.281 15.957 10.498 13.204 10.709C13.3216 10.255 13.5016 9.81948 13.739 9.415C17.0695 9.29843 20.3326 10.3723 22.943 12.444ZM18.756 14.131L18.338 14.128L18.206 13.724C18.2025 13.7126 18.1954 13.7026 18.1857 13.6955C18.1761 13.6884 18.1645 13.6845 18.1525 13.6845C18.1405 13.6845 18.1289 13.6884 18.1193 13.6955C18.1096 13.7026 18.1025 13.7126 18.099 13.724L17.967 14.128L17.549 14.131C17.537 14.1311 17.5254 14.135 17.5158 14.1421C17.5062 14.1493 17.499 14.1592 17.4954 14.1706C17.4917 14.182 17.4918 14.1943 17.4955 14.2056C17.4992 14.217 17.5063 14.2269 17.516 14.234L17.852 14.487L17.726 14.892C17.7226 14.9032 17.7228 14.9152 17.7265 14.9263C17.7301 14.9375 17.7371 14.9472 17.7465 14.9542C17.7559 14.9612 17.7673 14.9651 17.779 14.9654C17.7907 14.9657 17.8022 14.9625 17.812 14.956L18.152 14.709L18.492 14.956C18.5018 14.9628 18.5134 14.9664 18.5254 14.9663C18.5373 14.9662 18.5489 14.9623 18.5585 14.9552C18.5681 14.9482 18.5752 14.9383 18.5789 14.9269C18.5826 14.9156 18.5826 14.9034 18.579 14.892L18.453 14.487L18.789 14.234C18.7987 14.2269 18.8058 14.217 18.8095 14.2056C18.8132 14.1943 18.8133 14.182 18.8096 14.1706C18.806 14.1592 18.7988 14.1493 18.7892 14.1421C18.7796 14.135 18.768 14.1311 18.756 14.131ZM20.066 14.943L19.886 14.941L19.83 14.768C19.8285 14.763 19.8255 14.7587 19.8213 14.7556C19.8172 14.7525 19.8122 14.7509 19.807 14.7509C19.8018 14.7509 19.7968 14.7525 19.7927 14.7556C19.7885 14.7587 19.7855 14.763 19.784 14.768L19.727 14.941L19.547 14.943C19.5421 14.9434 19.5374 14.9453 19.5335 14.9484C19.5297 14.9515 19.5268 14.9556 19.5253 14.9603C19.5238 14.965 19.5238 14.9701 19.5251 14.9748C19.5265 14.9796 19.5292 14.9838 19.533 14.987L19.677 15.096L19.623 15.27C19.621 15.2749 19.6207 15.2803 19.6221 15.2854C19.6235 15.2905 19.6265 15.295 19.6307 15.2982C19.6349 15.3014 19.6401 15.3031 19.6454 15.3031C19.6507 15.3031 19.6558 15.3013 19.66 15.298L19.807 15.191L19.953 15.298C19.9572 15.3013 19.9623 15.3031 19.9676 15.3031C19.9729 15.3031 19.9781 15.3014 19.9823 15.2982C19.9865 15.295 19.9895 15.2905 19.9909 15.2854C19.9923 15.2803 19.992 15.2749 19.99 15.27L19.936 15.096L20.081 14.987C20.0848 14.9838 20.0875 14.9796 20.0889 14.9748C20.0902 14.9701 20.0902 14.965 20.0887 14.9603C20.0872 14.9556 20.0843 14.9515 20.0805 14.9484C20.0766 14.9453 20.0709 14.9434 20.066 14.943ZM17.664 13.461L17.61 13.286L17.754 13.177C17.7578 13.1738 17.7605 13.1696 17.7619 13.1648C17.7633 13.1601 17.7632 13.155 17.7617 13.1503C17.7602 13.1456 17.7573 13.1415 17.7535 13.1384C17.7496 13.1353 17.7449 13.1334 17.74 13.133L17.56 13.132L17.503 12.958C17.5015 12.953 17.4985 12.9487 17.4943 12.9456C17.4902 12.9425 17.4852 12.9409 17.48 12.9409C17.4748 12.9409 17.4698 12.9425 17.4657 12.9456C17.4615 12.9487 17.4585 12.953 17.457 12.958L17.4 13.132L17.22 13.133C17.2151 13.1334 17.2104 13.1353 17.2065 13.1384C17.2027 13.1415 17.1998 13.1456 17.1983 13.1503C17.1968 13.155 17.1967 13.1601 17.1981 13.1648C17.1995 13.1696 17.2022 13.1738 17.206 13.177L17.351 13.287L17.297 13.461C17.2954 13.4658 17.2953 13.4711 17.2969 13.476C17.2984 13.4808 17.3015 13.4851 17.3056 13.4881C17.3097 13.4911 17.3147 13.4927 17.3198 13.4927C17.3249 13.4927 17.3299 13.491 17.334 13.488L17.48 13.382L17.627 13.488C17.6311 13.491 17.6361 13.4927 17.6412 13.4927C17.6463 13.4927 17.6513 13.4911 17.6554 13.4881C17.6595 13.4851 17.6626 13.4808 17.6641 13.476C17.6657 13.4711 17.6656 13.4658 17.664 13.461ZM14.59 12.922L14.41 12.921L14.353 12.747C14.3515 12.742 14.3485 12.7377 14.3443 12.7346C14.3402 12.7315 14.3352 12.7299 14.33 12.7299C14.3248 12.7299 14.3198 12.7315 14.3157 12.7346C14.3115 12.7377 14.3085 12.742 14.307 12.747L14.25 12.921L14.07 12.922C14.0648 12.9222 14.0599 12.924 14.0558 12.9271C14.0517 12.9303 14.0486 12.9346 14.0471 12.9396C14.0456 12.9445 14.0456 12.9498 14.0472 12.9547C14.0488 12.9596 14.0519 12.9639 14.056 12.967L14.201 13.076L14.146 13.25C14.144 13.2549 14.1437 13.2603 14.1451 13.2654C14.1465 13.2705 14.1495 13.275 14.1537 13.2782C14.1579 13.2814 14.1631 13.2831 14.1684 13.2831C14.1737 13.2831 14.1788 13.2813 14.183 13.278L14.33 13.171L14.476 13.278C14.4802 13.2813 14.4853 13.2831 14.4906 13.2831C14.4959 13.2831 14.5011 13.2814 14.5053 13.2782C14.5095 13.275 14.5125 13.2705 14.5139 13.2654C14.5153 13.2603 14.515 13.2549 14.513 13.25L14.459 13.076L14.604 12.967C14.6081 12.9639 14.6112 12.9596 14.6128 12.9547C14.6144 12.9498 14.6144 12.9445 14.6129 12.9396C14.6114 12.9346 14.6083 12.9303 14.6042 12.9271C14.6001 12.924 14.5952 12.9222 14.59 12.922ZM17.225 14.882H17.045L16.988 14.708C16.9865 14.703 16.9835 14.6987 16.9793 14.6956C16.9752 14.6925 16.9702 14.6909 16.965 14.6909C16.9598 14.6909 16.9548 14.6925 16.9507 14.6956C16.9465 14.6987 16.9435 14.703 16.942 14.708L16.885 14.881L16.705 14.883C16.7001 14.8834 16.6954 14.8853 16.6915 14.8884C16.6877 14.8915 16.6848 14.8956 16.6833 14.9003C16.6818 14.905 16.6817 14.9101 16.6831 14.9148C16.6845 14.9196 16.6872 14.9238 16.691 14.927L16.836 15.036L16.782 15.21C16.78 15.2149 16.7797 15.2203 16.7811 15.2254C16.7825 15.2305 16.7855 15.235 16.7897 15.2382C16.7939 15.2414 16.7991 15.2431 16.8044 15.2431C16.8097 15.2431 16.8148 15.2413 16.819 15.238L16.965 15.132L17.112 15.238C17.1162 15.2413 17.1213 15.2431 17.1266 15.2431C17.1319 15.2431 17.1371 15.2414 17.1413 15.2382C17.1455 15.235 17.1485 15.2305 17.1499 15.2254C17.1513 15.2203 17.151 15.2149 17.149 15.21L17.095 15.036L17.239 14.927C17.2428 14.9238 17.2455 14.9196 17.2469 14.9148C17.2483 14.9101 17.2482 14.905 17.2467 14.9003C17.2452 14.8956 17.2423 14.8915 17.2385 14.8884C17.2346 14.8853 17.2299 14.8834 17.225 14.883V14.882ZM15.732 12.77L15.585 12.768L15.538 12.626C15.5365 12.6223 15.5339 12.6192 15.5306 12.617C15.5273 12.6148 15.5235 12.6136 15.5195 12.6136C15.5155 12.6136 15.5117 12.6148 15.5084 12.617C15.5051 12.6192 15.5025 12.6223 15.501 12.626L15.454 12.768L15.307 12.77C15.3028 12.77 15.2987 12.7713 15.2953 12.7738C15.2919 12.7762 15.2894 12.7797 15.288 12.7837C15.2867 12.7877 15.2867 12.792 15.2879 12.796C15.2892 12.8 15.2916 12.8035 15.295 12.806L15.414 12.895L15.369 13.037C15.3677 13.0409 15.3676 13.0452 15.3689 13.0492C15.3701 13.0532 15.3725 13.0567 15.3758 13.0592C15.3791 13.0617 15.3831 13.0632 15.3873 13.0633C15.3914 13.0634 15.3955 13.0623 15.399 13.06L15.519 12.973L15.639 13.06C15.6425 13.0623 15.6466 13.0634 15.6507 13.0633C15.6549 13.0632 15.6589 13.0617 15.6622 13.0592C15.6655 13.0567 15.6679 13.0532 15.6691 13.0492C15.6704 13.0452 15.6703 13.0409 15.669 13.037L15.625 12.895L15.744 12.805C15.747 12.8024 15.7491 12.7989 15.7501 12.7951C15.7512 12.7913 15.751 12.7872 15.7497 12.7835C15.7484 12.7797 15.7461 12.7764 15.7429 12.774C15.7398 12.7716 15.736 12.7702 15.732 12.77ZM19.8 10.03L19.745 10.209C19.7435 10.214 19.7435 10.2193 19.7451 10.2242C19.7468 10.2291 19.7499 10.2334 19.7541 10.2365C19.7582 10.2396 19.7633 10.2413 19.7684 10.2414C19.7736 10.2414 19.7787 10.2399 19.783 10.237L19.933 10.128L20.083 10.238C20.0874 10.2407 20.0924 10.242 20.0976 10.2418C20.1027 10.2415 20.1076 10.2396 20.1117 10.2365C20.1157 10.2333 20.1187 10.229 20.1202 10.2241C20.1217 10.2191 20.1216 10.2139 20.12 10.209L20.065 10.03L20.213 9.92C20.2177 9.91701 20.2212 9.91257 20.2231 9.90736C20.2249 9.90214 20.225 9.89646 20.2233 9.8912C20.2216 9.88594 20.2181 9.8814 20.2136 9.87829C20.209 9.87517 20.2035 9.87367 20.198 9.874L20.014 9.872L19.956 9.695C19.9542 9.69017 19.9511 9.686 19.9468 9.68306C19.9426 9.68011 19.9376 9.67853 19.9325 9.67853C19.9274 9.67853 19.9224 9.68011 19.9182 9.68306C19.9139 9.686 19.9108 9.69017 19.909 9.695L19.851 9.872L19.667 9.874C19.6618 9.874 19.6566 9.87565 19.6524 9.87872C19.6481 9.88179 19.6449 9.88612 19.6433 9.89109C19.6416 9.89607 19.6416 9.90145 19.6431 9.90645C19.6447 9.91146 19.6478 9.91585 19.652 9.919L19.8 10.03ZM14.75 11.9L14.602 11.899L14.556 11.757C14.5547 11.753 14.5521 11.7495 14.5487 11.747C14.5453 11.7446 14.5412 11.7432 14.537 11.7432C14.5328 11.7432 14.5287 11.7446 14.5253 11.747C14.5219 11.7495 14.5193 11.753 14.518 11.757L14.471 11.899L14.324 11.9C14.3196 11.8999 14.3153 11.9012 14.3118 11.9038C14.3082 11.9064 14.3056 11.9101 14.3044 11.9143C14.3031 11.9185 14.3033 11.923 14.3048 11.9271C14.3064 11.9312 14.3093 11.9347 14.313 11.937L14.431 12.025L14.387 12.168C14.386 12.1719 14.3862 12.176 14.3875 12.1798C14.3888 12.1835 14.3913 12.1868 14.3945 12.1892C14.3978 12.1916 14.4016 12.1929 14.4056 12.1931C14.4096 12.1932 14.4136 12.1921 14.417 12.19L14.537 12.103L14.657 12.19C14.6604 12.1921 14.6644 12.1932 14.6684 12.1931C14.6724 12.1929 14.6762 12.1916 14.6795 12.1892C14.6827 12.1868 14.6852 12.1835 14.6865 12.1798C14.6878 12.176 14.688 12.1719 14.687 12.168L14.643 12.025L14.761 11.937C14.7648 11.9347 14.7678 11.9311 14.7693 11.9269C14.7709 11.9227 14.771 11.918 14.7696 11.9138C14.7682 11.9095 14.7654 11.9058 14.7617 11.9033C14.7579 11.9008 14.7535 11.8996 14.749 11.9H14.75ZM15.559 13.974L15.336 13.973L15.266 13.758C15.264 13.752 15.2602 13.7468 15.2551 13.7431C15.25 13.7394 15.2438 13.7374 15.2375 13.7374C15.2312 13.7374 15.225 13.7394 15.2199 13.7431C15.2148 13.7468 15.211 13.752 15.209 13.758L15.139 13.973L14.915 13.974C14.9082 13.9735 14.9015 13.9753 14.8958 13.9792C14.8902 13.983 14.8861 13.9887 14.8841 13.9952C14.8821 14.0017 14.8824 14.0087 14.885 14.015C14.8875 14.0214 14.8921 14.0266 14.898 14.03L15.078 14.164L15.01 14.38C15.0079 14.386 15.0078 14.3926 15.0097 14.3986C15.0116 14.4047 15.0154 14.4101 15.0206 14.4138C15.0257 14.4176 15.0319 14.4197 15.0382 14.4197C15.0446 14.4197 15.0508 14.4177 15.056 14.414L15.237 14.282L15.418 14.414C15.4232 14.4177 15.4294 14.4197 15.4358 14.4197C15.4421 14.4197 15.4483 14.4176 15.4534 14.4138C15.4586 14.4101 15.4624 14.4047 15.4643 14.3986C15.4662 14.3926 15.4661 14.386 15.464 14.38L15.397 14.164L15.577 14.03C15.583 14.0266 15.5877 14.0213 15.5903 14.0148C15.5928 14.0084 15.593 14.0012 15.5909 13.9946C15.5888 13.988 15.5845 13.9824 15.5786 13.9786C15.5728 13.9749 15.5659 13.9732 15.559 13.974ZM20.919 14.948H20.779L20.735 14.812C20.7337 14.8082 20.7313 14.805 20.7281 14.8026C20.7248 14.8003 20.721 14.7991 20.717 14.7991C20.713 14.7991 20.7092 14.8003 20.7059 14.8026C20.7027 14.805 20.7003 14.8082 20.699 14.812L20.655 14.947L20.515 14.948C20.5111 14.9484 20.5075 14.9499 20.5044 14.9524C20.5014 14.9549 20.4992 14.9582 20.498 14.9619C20.4969 14.9656 20.4968 14.9696 20.4979 14.9733C20.4989 14.9771 20.5011 14.9804 20.504 14.983L20.617 15.067L20.574 15.203C20.5722 15.207 20.5718 15.2114 20.5729 15.2157C20.574 15.2199 20.5765 15.2236 20.5801 15.2262C20.5836 15.2288 20.5879 15.2301 20.5922 15.2299C20.5966 15.2296 20.6008 15.2279 20.604 15.225L20.717 15.142L20.831 15.225C20.8342 15.2279 20.8384 15.2296 20.8428 15.2299C20.8471 15.2301 20.8514 15.2288 20.8549 15.2262C20.8585 15.2236 20.861 15.2199 20.8621 15.2157C20.8632 15.2114 20.8628 15.207 20.861 15.203L20.818 15.067L20.931 14.983C20.9339 14.9804 20.9361 14.9771 20.9371 14.9733C20.9382 14.9696 20.9381 14.9656 20.937 14.9619C20.9358 14.9582 20.9336 14.9549 20.9306 14.9524C20.9275 14.9499 20.9229 14.9484 20.919 14.948ZM21.463 13.954L21.283 13.953L21.226 13.779C21.2245 13.774 21.2215 13.7697 21.2173 13.7666C21.2132 13.7635 21.2082 13.7619 21.203 13.7619C21.1978 13.7619 21.1928 13.7635 21.1887 13.7666C21.1845 13.7697 21.1815 13.774 21.18 13.779L21.123 13.953L20.943 13.954C20.9378 13.9542 20.9329 13.956 20.9288 13.9591C20.9247 13.9623 20.9216 13.9666 20.9201 13.9716C20.9186 13.9765 20.9186 13.9818 20.9202 13.9867C20.9218 13.9916 20.9249 13.9959 20.929 13.999L21.073 14.108L21.019 14.282C21.017 14.2869 21.0167 14.2923 21.0181 14.2974C21.0195 14.3025 21.0225 14.307 21.0267 14.3102C21.0309 14.3134 21.0361 14.3151 21.0414 14.3151C21.0467 14.3151 21.0518 14.3133 21.056 14.31L21.203 14.203L21.349 14.31C21.3532 14.3133 21.3583 14.3151 21.3636 14.3151C21.3689 14.3151 21.3741 14.3134 21.3783 14.3102C21.3825 14.307 21.3855 14.3025 21.3869 14.2974C21.3883 14.2923 21.388 14.2869 21.386 14.282L21.332 14.108L21.477 13.998C21.4808 13.9947 21.4836 13.9904 21.4849 13.9856C21.4862 13.9808 21.4861 13.9756 21.4844 13.9709C21.4828 13.9662 21.4798 13.962 21.4758 13.959C21.4718 13.956 21.468 13.9542 21.463 13.954Z"
		fill="#F5F5F5"
	/>
</svg>
