<svg viewBox="0 0 36 24" fill="none" xmlns="http://www.w3.org/2000/svg">
	<path d="M36 24H0V0H36" fill="#41479B" />
	<path
		d="M23.2 5.927V13.467C23.2 15.171 27.264 16.873 27.264 16.873C27.264 16.873 31.327 15.171 31.327 13.468V5.928L23.2 5.927Z"
		fill="#73AF00"
	/>
	<path
		d="M26.87 6.632C26.847 6.691 26.871 6.851 27.015 6.84C27.193 6.825 27.409 6.824 27.458 7.026C27.503 7.213 27.473 7.681 27.672 7.711C27.872 7.741 28.097 7.607 28.092 7.204C28.089 6.85 27.862 6.425 27.542 6.49C27.542 6.49 27.26 6.288 27.094 6.515C27.094 6.515 26.92 6.505 26.87 6.632Z"
		fill="#8C5A28"
	/>
	<path
		d="M27.005 8.076C27.005 8.076 27.01 9.095 26.98 9.256C26.6875 9.63664 26.3626 9.99129 26.009 10.316C25.961 10.3613 25.9234 10.4166 25.8989 10.4779C25.8744 10.5392 25.8635 10.6051 25.867 10.671C25.8595 10.7614 25.8312 10.8489 25.7844 10.9266C25.7375 11.0043 25.6734 11.0701 25.597 11.119C25.498 11.159 25.471 10.65 25.501 10.579C25.531 10.509 26.457 9.31 26.457 9.31C26.627 7.962 27.005 8.076 27.005 8.076ZM27.682 6.786L26.955 6.781V7.512C26.9549 7.53091 26.9585 7.54966 26.9656 7.56718C26.9727 7.5847 26.9832 7.60065 26.9965 7.61412C27.0097 7.62758 27.0255 7.6383 27.043 7.64566C27.0604 7.65301 27.0791 7.65687 27.098 7.657H27.11C27.1234 7.65713 27.1366 7.6599 27.149 7.66515C27.1613 7.67039 27.1725 7.67802 27.1818 7.68758C27.1912 7.69715 27.1986 7.70846 27.2036 7.72089C27.2086 7.73332 27.2111 7.74661 27.211 7.76V7.935C27.211 7.935 27.308 8.19 27.681 7.891L27.682 6.786ZM28.349 8.35C28.349 8.35 28.001 8.39 27.931 8.674C27.9519 9.0536 28.0239 9.42865 28.145 9.789C28.145 9.9 27.645 10.872 27.585 11.055C27.525 11.237 27.503 11.593 27.722 11.532C27.941 11.471 27.902 11.309 27.862 11.188C27.822 11.066 28.534 9.946 28.544 9.829C28.554 9.717 28.349 8.349 28.349 8.349V8.35Z"
		fill="#FFC8B9"
	/>
	<path
		d="M25.065 11.379C25.052 11.475 24.948 11.575 24.958 11.66L24.885 11.681C24.8718 11.6313 24.8708 11.5792 24.882 11.529C24.902 11.456 24.85 11.39 24.839 11.327C24.809 11.157 24.95 11.113 24.959 10.961C24.959 10.961 25.059 11.067 25.022 11.167C24.983 11.268 25.077 11.283 25.065 11.379ZM23.985 7.216C23.9738 7.26617 23.9748 7.31831 23.988 7.368L24.062 7.348C24.052 7.262 24.156 7.162 24.168 7.066C24.18 6.97 24.088 6.956 24.125 6.854C24.162 6.752 24.062 6.648 24.062 6.648C24.054 6.8 23.912 6.844 23.942 7.014C23.954 7.077 24.005 7.144 23.985 7.216ZM23.985 8.653C23.9736 8.70349 23.9746 8.75599 23.988 8.806L24.062 8.786C24.052 8.7 24.156 8.599 24.168 8.504C24.18 8.409 24.088 8.393 24.125 8.292C24.163 8.192 24.062 8.086 24.062 8.086C24.054 8.238 23.912 8.282 23.942 8.452C23.954 8.515 24.005 8.582 23.985 8.653ZM23.985 10.091C23.9738 10.1412 23.9748 10.1933 23.988 10.243L24.062 10.223C24.052 10.138 24.156 10.037 24.168 9.941C24.18 9.845 24.088 9.831 24.125 9.73C24.162 9.629 24.062 9.523 24.062 9.523C24.054 9.675 23.912 9.719 23.942 9.89C23.954 9.952 24.005 10.019 23.985 10.091ZM24.125 12.605C24.163 12.505 24.062 12.398 24.062 12.398C24.054 12.551 23.912 12.594 23.942 12.765C23.954 12.828 24.006 12.894 23.986 12.966C23.9743 13.0164 23.975 13.0689 23.988 13.119L24.062 13.099C24.052 13.013 24.156 12.912 24.168 12.817C24.18 12.722 24.088 12.706 24.125 12.605ZM24.125 14.043C24.163 13.942 24.062 13.836 24.062 13.836C24.054 13.988 23.912 14.032 23.942 14.203C23.954 14.265 24.006 14.332 23.986 14.404C23.9744 14.4541 23.9751 14.5062 23.988 14.556L24.062 14.536C24.052 14.451 24.156 14.35 24.168 14.254C24.181 14.159 24.088 14.144 24.125 14.043ZM28.901 7.216C28.8894 7.26609 28.8901 7.31823 28.903 7.368L28.977 7.348C28.967 7.262 29.071 7.162 29.084 7.066C29.097 6.97 29.002 6.956 29.041 6.854C29.079 6.754 28.977 6.648 28.977 6.648C28.969 6.8 28.827 6.844 28.857 7.014C28.869 7.077 28.921 7.144 28.901 7.216ZM29.041 8.292C29.079 8.192 28.977 8.086 28.977 8.086C28.969 8.238 28.827 8.282 28.857 8.452C28.869 8.515 28.921 8.582 28.901 8.654C28.8894 8.70409 28.8901 8.75623 28.903 8.806L28.977 8.786C28.967 8.7 29.071 8.599 29.084 8.504C29.097 8.409 29.002 8.393 29.041 8.292ZM29.041 9.73C29.079 9.629 28.977 9.523 28.977 9.523C28.969 9.675 28.827 9.719 28.857 9.89C28.869 9.952 28.921 10.019 28.901 10.091C28.8895 10.1411 28.8902 10.1932 28.903 10.243L28.977 10.223C28.967 10.138 29.071 10.037 29.084 9.941C29.097 9.845 29.002 9.831 29.041 9.73ZM29.041 11.167C29.079 11.067 28.977 10.961 28.977 10.961C28.969 11.113 28.827 11.157 28.857 11.327C28.869 11.39 28.921 11.457 28.901 11.529C28.8894 11.5791 28.8901 11.6312 28.903 11.681L28.977 11.661C28.967 11.575 29.071 11.475 29.084 11.379C29.097 11.283 29.002 11.268 29.041 11.167ZM29.041 12.605C29.079 12.505 28.977 12.398 28.977 12.398C28.969 12.551 28.827 12.594 28.857 12.765C28.869 12.828 28.921 12.894 28.901 12.966C28.8893 13.0164 28.89 13.0689 28.903 13.119L28.977 13.099C28.967 13.013 29.071 12.912 29.084 12.817C29.097 12.722 29.002 12.706 29.041 12.605ZM29.041 14.043C29.079 13.942 28.977 13.836 28.977 13.836C28.969 13.988 28.827 14.032 28.857 14.203C28.869 14.265 28.921 14.332 28.901 14.404C28.8894 14.4541 28.8901 14.5062 28.903 14.556L28.977 14.536C28.967 14.451 29.071 14.35 29.084 14.254C29.096 14.159 29.002 14.144 29.041 14.043Z"
		fill="#FF4B55"
	/>
	<path
		d="M27.592 7.82C27.7611 7.8011 27.9312 7.8445 28.0706 7.94206C28.2099 8.03963 28.3089 8.18467 28.349 8.35C28.349 8.35 27.869 8.618 27.929 8.968C27.989 9.318 27.921 10.914 27.921 10.914C27.6977 11.0137 27.454 11.0588 27.2098 11.0456C26.9657 11.0324 26.7282 10.9612 26.517 10.838C26.6544 10.3016 26.7219 9.7497 26.718 9.196C26.718 9.196 26.502 9.029 26.554 8.839C26.606 8.649 26.741 8.436 26.786 8.276C26.8059 8.16333 26.8605 8.05965 26.942 7.97937C27.0235 7.89909 27.128 7.84619 27.241 7.828C27.3573 7.81186 27.4751 7.80917 27.592 7.82ZM31.327 5.928V13.467C31.327 15.171 27.264 16.873 27.264 16.873C27.264 16.873 23.2 15.171 23.2 13.468V5.927L31.327 5.928ZM31.567 5.684H22.96V13.468C22.96 14.264 23.682 15.121 25.105 16.016C25.7665 16.4269 26.4574 16.7886 27.172 17.098L27.262 17.136L27.354 17.098C28.0683 16.7885 28.7588 16.4269 29.42 16.016C30.844 15.121 31.565 14.264 31.565 13.468V5.684H31.567ZM31.601 14.809L32.685 15.569C32.0522 16.4083 31.2333 17.0892 30.2925 17.5581C29.3518 18.027 28.3151 18.271 27.264 18.271C26.2129 18.271 25.1762 18.027 24.2355 17.5581C23.2947 17.0892 22.4758 16.4083 21.843 15.569L22.926 14.809C23.4391 15.4706 24.0966 16.006 24.8484 16.3743C25.6002 16.7427 26.4263 16.9342 27.2635 16.9342C28.1007 16.9342 28.9268 16.7427 29.6786 16.3743C30.4304 16.006 31.0879 15.4706 31.601 14.809ZM31.554 14.48L31.414 14.657C30.9231 15.2901 30.2939 15.8025 29.5745 16.155C28.8551 16.5075 28.0646 16.6908 27.2635 16.6908C26.4624 16.6908 25.6719 16.5075 24.9525 16.155C24.2331 15.8025 23.6039 15.2901 23.113 14.657L22.973 14.48L22.791 14.609L21.707 15.369L21.499 15.516L21.654 15.719C22.3087 16.5877 23.1562 17.2924 24.1298 17.7778C25.1033 18.2631 26.1762 18.5157 27.264 18.5157C28.3518 18.5157 29.4247 18.2631 30.3982 17.7778C31.3718 17.2924 32.2193 16.5877 32.874 15.719L33.029 15.516L32.821 15.369L31.737 14.609L31.554 14.48ZM27.921 10.914L28.594 14.73C27.8707 14.8988 27.1222 14.9313 26.387 14.826L26.517 10.838"
		fill="#F5F5F5"
	/>
	<path
		d="M25.523 10.992C25.5236 11.0124 25.5302 11.0323 25.542 11.049L25.136 11.659H24.849C24.849 11.659 24.837 11.841 25.151 11.863C25.191 11.9257 25.2493 11.9745 25.318 12.003C25.302 12.0049 25.2872 12.0126 25.2764 12.0245C25.2655 12.0364 25.2594 12.0519 25.259 12.068V12.111L25.262 12.118H25.992L25.995 12.111V12.068C25.9948 12.0516 25.9886 12.0357 25.9776 12.0236C25.9665 12.0114 25.9514 12.0037 25.935 12.002C25.9965 11.9762 26.0498 11.9342 26.0892 11.8805C26.1287 11.8268 26.1528 11.7634 26.159 11.697L26.193 11.671C26.27 11.611 26.386 11.519 26.423 11.567C26.433 11.579 26.432 11.586 26.431 11.588C26.427 11.616 26.368 11.656 26.321 11.688C26.247 11.738 26.171 11.791 26.165 11.866C26.1642 11.8759 26.1673 11.8858 26.1736 11.8935C26.18 11.9011 26.1891 11.906 26.199 11.907H26.202C26.2116 11.907 26.2208 11.9034 26.2279 11.897C26.2349 11.8905 26.2392 11.8815 26.24 11.872C26.243 11.834 26.31 11.789 26.364 11.752C26.432 11.705 26.497 11.661 26.506 11.6C26.5078 11.5857 26.5066 11.5712 26.5025 11.5575C26.4983 11.5437 26.4914 11.5309 26.482 11.52C26.399 11.414 26.254 11.527 26.147 11.61L26.107 11.64L25.713 11.05C25.7228 11.0365 25.7292 11.0208 25.7317 11.0043C25.7343 10.9877 25.7328 10.9709 25.7275 10.955C25.7222 10.9392 25.7131 10.9248 25.7011 10.9132C25.6892 10.9015 25.6746 10.8929 25.6586 10.888C25.6426 10.8831 25.6257 10.8821 25.6092 10.8851C25.5928 10.8881 25.5773 10.8949 25.564 10.9051C25.5508 10.9153 25.5401 10.9285 25.533 10.9436C25.5259 10.9587 25.5224 10.9753 25.523 10.992ZM25.628 11.098C25.6358 11.0972 25.6435 11.0955 25.651 11.093L26.028 11.659H25.81C25.802 11.619 25.7857 11.5811 25.7623 11.5477C25.7389 11.5144 25.7088 11.4862 25.674 11.465C25.695 11.4543 25.7119 11.4369 25.7218 11.4154C25.7317 11.394 25.7341 11.3699 25.7286 11.3469C25.7231 11.324 25.7101 11.3035 25.6915 11.2889C25.673 11.2743 25.6501 11.2664 25.6265 11.2664C25.6029 11.2664 25.58 11.2743 25.5615 11.2889C25.5429 11.3035 25.5299 11.324 25.5244 11.3469C25.5189 11.3699 25.5213 11.394 25.5312 11.4154C25.5411 11.4369 25.558 11.4543 25.579 11.465C25.5442 11.4862 25.5141 11.5144 25.4907 11.5477C25.4673 11.5811 25.451 11.619 25.443 11.659H25.227L25.604 11.093C25.6118 11.0956 25.6198 11.0973 25.628 11.098ZM24.254 7.55C24.294 7.61267 24.3523 7.66154 24.421 7.69C24.4052 7.69214 24.3906 7.69987 24.38 7.71179C24.3694 7.7237 24.3633 7.73903 24.363 7.755V7.798L24.366 7.805H25.096L25.099 7.798V7.755C25.0988 7.73855 25.0926 7.72274 25.0816 7.71056C25.0705 7.69839 25.0554 7.69072 25.039 7.689C25.1001 7.66315 25.1531 7.62124 25.1924 7.56773C25.2316 7.51421 25.2557 7.45107 25.262 7.385L25.296 7.359C25.374 7.299 25.49 7.207 25.526 7.255C25.536 7.266 25.536 7.273 25.535 7.275C25.531 7.303 25.472 7.343 25.425 7.375C25.351 7.425 25.275 7.478 25.268 7.553C25.2676 7.55799 25.2682 7.56302 25.2697 7.56779C25.2713 7.57255 25.2737 7.57697 25.277 7.58078C25.2802 7.58459 25.2842 7.58772 25.2887 7.58999C25.2931 7.59226 25.298 7.59362 25.303 7.594H25.306C25.3156 7.59403 25.3248 7.59044 25.3319 7.58395C25.3389 7.57746 25.3432 7.56855 25.344 7.559C25.347 7.521 25.414 7.476 25.467 7.439C25.536 7.392 25.6 7.349 25.609 7.287C25.6109 7.2728 25.6099 7.25835 25.6059 7.24457C25.602 7.2308 25.5952 7.218 25.586 7.207C25.503 7.101 25.357 7.214 25.251 7.297L25.211 7.327L24.817 6.737C24.828 6.72127 24.8345 6.70281 24.8358 6.68364C24.837 6.66447 24.833 6.64532 24.8241 6.62828C24.8153 6.61124 24.8019 6.59696 24.7855 6.587C24.7691 6.57703 24.7502 6.57176 24.731 6.57176C24.7118 6.57176 24.6929 6.57703 24.6765 6.587C24.6601 6.59696 24.6467 6.61124 24.6379 6.62828C24.629 6.64532 24.625 6.66447 24.6262 6.68364C24.6275 6.70281 24.634 6.72127 24.645 6.737L24.24 7.346H23.953C23.953 7.346 23.941 7.528 24.254 7.55ZM24.707 6.78C24.7148 6.78264 24.7228 6.78432 24.731 6.785C24.7392 6.78429 24.7472 6.78262 24.755 6.78L25.131 7.346H24.914C24.9059 7.30594 24.8895 7.268 24.8659 7.2346C24.8423 7.20121 24.812 7.17308 24.777 7.152C24.7981 7.14141 24.8151 7.124 24.8251 7.10258C24.8351 7.08115 24.8376 7.05697 24.8322 7.03396C24.8267 7.01094 24.8137 6.99044 24.7952 6.97576C24.7766 6.96109 24.7536 6.95311 24.73 6.95311C24.7064 6.95311 24.6834 6.96109 24.6648 6.97576C24.6463 6.99044 24.6333 7.01094 24.6278 7.03396C24.6224 7.05697 24.6249 7.08115 24.6349 7.10258C24.6449 7.124 24.6619 7.14141 24.683 7.152C24.648 7.17308 24.6177 7.20121 24.5941 7.2346C24.5705 7.268 24.5541 7.30594 24.546 7.346H24.331L24.707 6.78ZM24.254 8.987C24.294 9.04967 24.3523 9.09854 24.421 9.127C24.405 9.12917 24.3903 9.13704 24.3797 9.14917C24.369 9.16129 24.3631 9.17686 24.363 9.193V9.235L24.366 9.242H25.096L25.099 9.235V9.193C25.0988 9.17655 25.0926 9.16074 25.0816 9.14856C25.0705 9.13639 25.0554 9.12872 25.039 9.127C25.1003 9.10107 25.1534 9.05901 25.1926 9.0053C25.2319 8.9516 25.2559 8.88825 25.262 8.822L25.296 8.796C25.374 8.736 25.49 8.644 25.526 8.692C25.536 8.704 25.536 8.71 25.535 8.712C25.531 8.741 25.472 8.781 25.425 8.812C25.351 8.863 25.275 8.916 25.268 8.99C25.2674 8.99507 25.2679 9.0002 25.2694 9.00509C25.2709 9.00997 25.2733 9.01451 25.2766 9.01843C25.2799 9.02235 25.2839 9.02557 25.2884 9.0279C25.293 9.03023 25.2979 9.03163 25.303 9.032H25.306C25.3156 9.03203 25.3248 9.02844 25.3319 9.02195C25.3389 9.01546 25.3432 9.00655 25.344 8.997C25.347 8.959 25.414 8.914 25.467 8.877C25.536 8.83 25.6 8.786 25.609 8.725C25.6111 8.71064 25.6101 8.696 25.6062 8.68204C25.6022 8.66808 25.5953 8.65512 25.586 8.644C25.503 8.538 25.357 8.652 25.251 8.734L25.211 8.765L24.817 8.175C24.828 8.15927 24.8345 8.14081 24.8358 8.12164C24.837 8.10247 24.833 8.08332 24.8241 8.06628C24.8153 8.04924 24.8019 8.03496 24.7855 8.025C24.7691 8.01503 24.7502 8.00976 24.731 8.00976C24.7118 8.00976 24.6929 8.01503 24.6765 8.025C24.6601 8.03496 24.6467 8.04924 24.6379 8.06628C24.629 8.08332 24.625 8.10247 24.6262 8.12164C24.6275 8.14081 24.634 8.15927 24.645 8.175L24.24 8.784H23.953C23.953 8.784 23.941 8.965 24.254 8.987ZM24.707 8.218C24.7146 8.2213 24.7227 8.22301 24.731 8.22301C24.7393 8.22301 24.7474 8.2213 24.755 8.218L25.131 8.784H24.914C24.9059 8.74394 24.8895 8.706 24.8659 8.6726C24.8423 8.63921 24.812 8.61108 24.777 8.59C24.7981 8.57941 24.8151 8.562 24.8251 8.54058C24.8351 8.51915 24.8376 8.49497 24.8322 8.47196C24.8267 8.44894 24.8137 8.42844 24.7952 8.41376C24.7766 8.39909 24.7536 8.39111 24.73 8.39111C24.7064 8.39111 24.6834 8.39909 24.6648 8.41376C24.6463 8.42844 24.6333 8.44894 24.6278 8.47196C24.6224 8.49497 24.6249 8.51915 24.6349 8.54058C24.6449 8.562 24.6619 8.57941 24.683 8.59C24.648 8.61108 24.6177 8.63921 24.5941 8.6726C24.5705 8.706 24.5541 8.74394 24.546 8.784H24.331L24.707 8.218ZM24.254 10.425C24.294 10.4877 24.3523 10.5365 24.421 10.565C24.4052 10.5671 24.3906 10.5749 24.38 10.5868C24.3694 10.5987 24.3633 10.614 24.363 10.63V10.673L24.366 10.68H25.096L25.099 10.673V10.63C25.0986 10.6137 25.0923 10.5982 25.0813 10.5862C25.0702 10.5742 25.0552 10.5667 25.039 10.565C25.1003 10.5391 25.1534 10.497 25.1926 10.4433C25.2319 10.3896 25.2559 10.3262 25.262 10.26L25.297 10.234C25.374 10.174 25.49 10.082 25.527 10.13C25.537 10.141 25.535 10.148 25.535 10.15C25.531 10.178 25.472 10.218 25.425 10.25C25.351 10.301 25.275 10.354 25.268 10.428C25.2674 10.4331 25.2679 10.4382 25.2694 10.4431C25.2709 10.448 25.2733 10.4525 25.2766 10.4564C25.2799 10.4603 25.2839 10.4636 25.2884 10.4659C25.293 10.4682 25.2979 10.4696 25.303 10.47H25.306C25.3157 10.47 25.3251 10.4663 25.3322 10.4596C25.3393 10.4529 25.3435 10.4437 25.344 10.434C25.347 10.397 25.414 10.351 25.467 10.314C25.536 10.267 25.6 10.224 25.609 10.162C25.6109 10.1478 25.6099 10.1333 25.6059 10.1196C25.602 10.1058 25.5952 10.093 25.586 10.082C25.503 9.976 25.357 10.09 25.251 10.172L25.211 10.202L24.817 9.612C24.828 9.59627 24.8345 9.57781 24.8358 9.55864C24.837 9.53947 24.833 9.52032 24.8241 9.50328C24.8153 9.48624 24.8019 9.47196 24.7855 9.462C24.7691 9.45203 24.7502 9.44676 24.731 9.44676C24.7118 9.44676 24.6929 9.45203 24.6765 9.462C24.6601 9.47196 24.6467 9.48624 24.6379 9.50328C24.629 9.52032 24.625 9.53947 24.6262 9.55864C24.6275 9.57781 24.634 9.59627 24.645 9.612L24.24 10.222H23.953C23.953 10.222 23.941 10.403 24.254 10.425ZM24.707 9.655C24.7147 9.65799 24.7228 9.66 24.731 9.661C24.7392 9.66029 24.7472 9.65862 24.755 9.656L25.131 10.221H24.914C24.9059 10.1809 24.8895 10.143 24.8659 10.1096C24.8423 10.0762 24.812 10.0481 24.777 10.027C24.7981 10.0164 24.8151 9.999 24.8251 9.97758C24.8351 9.95615 24.8376 9.93197 24.8322 9.90896C24.8267 9.88594 24.8137 9.86544 24.7952 9.85076C24.7766 9.83609 24.7536 9.82811 24.73 9.82811C24.7064 9.82811 24.6834 9.83609 24.6648 9.85076C24.6463 9.86544 24.6333 9.88594 24.6278 9.90896C24.6224 9.93197 24.6249 9.95615 24.6349 9.97758C24.6449 9.999 24.6619 10.0164 24.683 10.027C24.648 10.0481 24.6177 10.0762 24.5941 10.1096C24.5705 10.143 24.5541 10.1809 24.546 10.221H24.331L24.707 9.655ZM24.254 13.3C24.294 13.3627 24.3523 13.4115 24.421 13.44C24.405 13.4422 24.3903 13.45 24.3797 13.4622C24.369 13.4743 24.3631 13.4899 24.363 13.506V13.548L24.366 13.555H25.096L25.099 13.548V13.506C25.0988 13.4896 25.0926 13.4737 25.0816 13.4616C25.0705 13.4494 25.0554 13.4417 25.039 13.44C25.1003 13.4141 25.1534 13.372 25.1926 13.3183C25.2319 13.2646 25.2559 13.2012 25.262 13.135L25.296 13.109C25.374 13.049 25.49 12.957 25.526 13.005C25.536 13.017 25.536 13.023 25.535 13.025C25.531 13.054 25.472 13.094 25.425 13.125C25.351 13.176 25.275 13.229 25.268 13.303C25.2674 13.3081 25.2679 13.3132 25.2694 13.3181C25.2709 13.323 25.2733 13.3275 25.2766 13.3314C25.2799 13.3353 25.2839 13.3386 25.2884 13.3409C25.293 13.3432 25.2979 13.3446 25.303 13.345H25.306C25.3156 13.345 25.3248 13.3414 25.3319 13.335C25.3389 13.3285 25.3432 13.3195 25.344 13.31C25.347 13.272 25.414 13.226 25.467 13.19C25.536 13.143 25.6 13.099 25.609 13.038C25.6111 13.0236 25.6101 13.009 25.6062 12.995C25.6022 12.9811 25.5953 12.9681 25.586 12.957C25.503 12.851 25.357 12.965 25.251 13.047L25.211 13.077L24.817 12.487C24.828 12.4713 24.8345 12.4528 24.8358 12.4336C24.837 12.4145 24.833 12.3953 24.8241 12.3783C24.8153 12.3612 24.8019 12.347 24.7855 12.337C24.7691 12.327 24.7502 12.3218 24.731 12.3218C24.7118 12.3218 24.6929 12.327 24.6765 12.337C24.6601 12.347 24.6467 12.3612 24.6379 12.3783C24.629 12.3953 24.625 12.4145 24.6262 12.4336C24.6275 12.4528 24.634 12.4713 24.645 12.487L24.24 13.097H23.953C23.953 13.097 23.941 13.278 24.254 13.3ZM24.707 12.531C24.7146 12.5343 24.7227 12.536 24.731 12.536C24.7393 12.536 24.7474 12.5343 24.755 12.531L25.131 13.097H24.914C24.9059 13.0569 24.8895 13.019 24.8659 12.9856C24.8423 12.9522 24.812 12.9241 24.777 12.903C24.7981 12.8924 24.8151 12.875 24.8251 12.8536C24.8351 12.8322 24.8376 12.808 24.8322 12.785C24.8267 12.7619 24.8137 12.7414 24.7952 12.7268C24.7766 12.7121 24.7536 12.7041 24.73 12.7041C24.7064 12.7041 24.6834 12.7121 24.6648 12.7268C24.6463 12.7414 24.6333 12.7619 24.6278 12.785C24.6224 12.808 24.6249 12.8322 24.6349 12.8536C24.6449 12.875 24.6619 12.8924 24.683 12.903C24.648 12.9241 24.6177 12.9522 24.5941 12.9856C24.5705 13.019 24.5541 13.0569 24.546 13.097H24.331L24.707 12.531ZM24.254 14.738C24.294 14.8007 24.3523 14.8495 24.421 14.878C24.4052 14.8801 24.3906 14.8879 24.38 14.8998C24.3694 14.9117 24.3633 14.927 24.363 14.943V14.986L24.366 14.993H25.096L25.099 14.986V14.943C25.0988 14.9266 25.0926 14.9107 25.0816 14.8986C25.0705 14.8864 25.0554 14.8787 25.039 14.877C25.1001 14.8511 25.1531 14.8092 25.1924 14.7557C25.2316 14.7022 25.2557 14.6391 25.262 14.573L25.296 14.547C25.374 14.487 25.49 14.395 25.526 14.443C25.536 14.454 25.536 14.461 25.535 14.463C25.531 14.491 25.472 14.531 25.425 14.563C25.351 14.613 25.275 14.666 25.268 14.741C25.2674 14.7461 25.2679 14.7512 25.2694 14.7561C25.2709 14.761 25.2733 14.7655 25.2766 14.7694C25.2799 14.7733 25.2839 14.7766 25.2884 14.7789C25.293 14.7812 25.2979 14.7826 25.303 14.783H25.306C25.3157 14.783 25.3251 14.7793 25.3322 14.7726C25.3393 14.7659 25.3435 14.7567 25.344 14.747C25.347 14.71 25.414 14.664 25.467 14.627C25.536 14.58 25.6 14.537 25.609 14.475C25.6109 14.4608 25.6099 14.4463 25.6059 14.4326C25.602 14.4188 25.5952 14.406 25.586 14.395C25.503 14.289 25.357 14.403 25.251 14.485L25.211 14.515L24.817 13.925C24.828 13.9093 24.8345 13.8908 24.8358 13.8716C24.837 13.8525 24.833 13.8333 24.8241 13.8163C24.8153 13.7992 24.8019 13.785 24.7855 13.775C24.7691 13.765 24.7502 13.7598 24.731 13.7598C24.7118 13.7598 24.6929 13.765 24.6765 13.775C24.6601 13.785 24.6467 13.7992 24.6379 13.8163C24.629 13.8333 24.625 13.8525 24.6262 13.8716C24.6275 13.8908 24.634 13.9093 24.645 13.925L24.24 14.535H23.953C23.953 14.535 23.941 14.715 24.254 14.738ZM24.707 13.968C24.7148 13.9706 24.7228 13.9723 24.731 13.973C24.7392 13.9723 24.7472 13.9706 24.755 13.968L25.131 14.534H24.914C24.9059 14.4939 24.8895 14.456 24.8659 14.4226C24.8423 14.3892 24.812 14.3611 24.777 14.34C24.7981 14.3294 24.8151 14.312 24.8251 14.2906C24.8351 14.2692 24.8376 14.245 24.8322 14.222C24.8267 14.1989 24.8137 14.1784 24.7952 14.1638C24.7766 14.1491 24.7536 14.1411 24.73 14.1411C24.7064 14.1411 24.6834 14.1491 24.6648 14.1638C24.6463 14.1784 24.6333 14.1989 24.6278 14.222C24.6224 14.245 24.6249 14.2692 24.6349 14.2906C24.6449 14.312 24.6619 14.3294 24.683 14.34C24.648 14.3611 24.6177 14.3892 24.5941 14.4226C24.5705 14.456 24.5541 14.4939 24.546 14.534H24.331L24.707 13.968ZM29.17 7.55C29.2103 7.61283 29.2689 7.66171 29.338 7.69C29.322 7.69192 29.3072 7.69955 29.2964 7.71149C29.2855 7.72343 29.2794 7.73888 29.279 7.755V7.798L29.282 7.805H30.012L30.015 7.798V7.755C30.0148 7.73855 30.0086 7.72274 29.9976 7.71056C29.9865 7.69839 29.9714 7.69072 29.955 7.689C30.0161 7.66315 30.0691 7.62124 30.1084 7.56773C30.1476 7.51421 30.1717 7.45107 30.178 7.385L30.213 7.359C30.29 7.299 30.406 7.207 30.443 7.255C30.453 7.266 30.451 7.273 30.451 7.275C30.447 7.303 30.388 7.343 30.341 7.375C30.267 7.425 30.191 7.478 30.185 7.553C30.1842 7.56293 30.1873 7.57279 30.1936 7.58045C30.2 7.58812 30.2091 7.59299 30.219 7.594H30.222C30.2316 7.59403 30.2408 7.59044 30.2479 7.58395C30.2549 7.57746 30.2592 7.56855 30.26 7.559C30.263 7.521 30.33 7.476 30.383 7.439C30.452 7.392 30.516 7.349 30.526 7.287C30.5279 7.27273 30.5267 7.25822 30.5226 7.24443C30.5184 7.23064 30.5114 7.21789 30.502 7.207C30.419 7.101 30.274 7.214 30.167 7.297L30.127 7.327L29.733 6.737C29.7442 6.7213 29.7508 6.70282 29.7522 6.68358C29.7536 6.66435 29.7497 6.6451 29.7408 6.62796C29.732 6.61082 29.7186 6.59644 29.7022 6.5864C29.6857 6.57636 29.6668 6.57105 29.6475 6.57105C29.6282 6.57105 29.6093 6.57636 29.5928 6.5864C29.5764 6.59644 29.563 6.61082 29.5542 6.62796C29.5453 6.6451 29.5414 6.66435 29.5428 6.68358C29.5442 6.70282 29.5508 6.7213 29.562 6.737L29.156 7.346H28.869C28.869 7.346 28.856 7.528 29.17 7.55ZM29.624 6.78C29.6318 6.78264 29.6398 6.78432 29.648 6.785C29.6558 6.78422 29.6635 6.78254 29.671 6.78L30.048 7.346H29.83C29.822 7.30602 29.8057 7.26814 29.7823 7.23475C29.7589 7.20136 29.7288 7.17318 29.694 7.152C29.715 7.14132 29.7319 7.12387 29.7418 7.10245C29.7517 7.08103 29.7541 7.05689 29.7486 7.03394C29.7431 7.01098 29.7301 6.99055 29.7115 6.97593C29.693 6.96131 29.6701 6.95336 29.6465 6.95336C29.6229 6.95336 29.6 6.96131 29.5815 6.97593C29.5629 6.99055 29.5499 7.01098 29.5444 7.03394C29.5389 7.05689 29.5413 7.08103 29.5512 7.10245C29.5611 7.12387 29.578 7.14132 29.599 7.152C29.5642 7.17318 29.5341 7.20136 29.5107 7.23475C29.4873 7.26814 29.471 7.30602 29.463 7.346H29.247L29.624 6.78ZM29.17 8.987C29.2103 9.04983 29.2689 9.09871 29.338 9.127C29.3218 9.12895 29.3069 9.13672 29.296 9.14887C29.2852 9.16102 29.2791 9.17671 29.279 9.193V9.235L29.282 9.242H30.012L30.015 9.235V9.193C30.0148 9.17655 30.0086 9.16074 29.9976 9.14856C29.9865 9.13639 29.9714 9.12872 29.955 9.127C30.0163 9.10107 30.0694 9.05901 30.1086 9.0053C30.1479 8.9516 30.1719 8.88825 30.178 8.822L30.213 8.796C30.29 8.736 30.406 8.644 30.443 8.692C30.453 8.704 30.451 8.71 30.451 8.712C30.447 8.741 30.388 8.781 30.341 8.812C30.267 8.863 30.191 8.916 30.185 8.99C30.1844 8.99499 30.1849 9.00005 30.1863 9.00487C30.1877 9.0097 30.1901 9.01419 30.1932 9.0181C30.1964 9.022 30.2003 9.02524 30.2047 9.02763C30.2091 9.03002 30.214 9.0315 30.219 9.032H30.222C30.2316 9.03203 30.2408 9.02844 30.2479 9.02195C30.2549 9.01546 30.2592 9.00655 30.26 8.997C30.263 8.959 30.33 8.914 30.383 8.877C30.452 8.83 30.516 8.786 30.526 8.725C30.528 8.71057 30.5269 8.69587 30.5228 8.6819C30.5186 8.66793 30.5116 8.655 30.502 8.644C30.419 8.538 30.274 8.652 30.167 8.734L30.127 8.765L29.733 8.175C29.7442 8.1593 29.7508 8.14082 29.7522 8.12158C29.7536 8.10235 29.7497 8.0831 29.7408 8.06596C29.732 8.04882 29.7186 8.03444 29.7022 8.0244C29.6857 8.01436 29.6668 8.00905 29.6475 8.00905C29.6282 8.00905 29.6093 8.01436 29.5928 8.0244C29.5764 8.03444 29.563 8.04882 29.5542 8.06596C29.5453 8.0831 29.5414 8.10235 29.5428 8.12158C29.5442 8.14082 29.5508 8.1593 29.562 8.175L29.156 8.784H28.869C28.869 8.784 28.856 8.965 29.17 8.987ZM29.624 8.218C29.6318 8.22065 29.6398 8.22232 29.648 8.223C29.6558 8.22223 29.6636 8.22055 29.671 8.218L30.048 8.784H29.83C29.822 8.74402 29.8057 8.70614 29.7823 8.67275C29.7589 8.63936 29.7288 8.61118 29.694 8.59C29.715 8.57932 29.7319 8.56187 29.7418 8.54045C29.7517 8.51903 29.7541 8.49489 29.7486 8.47194C29.7431 8.44898 29.7301 8.42855 29.7115 8.41393C29.693 8.39931 29.6701 8.39136 29.6465 8.39136C29.6229 8.39136 29.6 8.39931 29.5815 8.41393C29.5629 8.42855 29.5499 8.44898 29.5444 8.47194C29.5389 8.49489 29.5413 8.51903 29.5512 8.54045C29.5611 8.56187 29.578 8.57932 29.599 8.59C29.5642 8.61118 29.5341 8.63936 29.5107 8.67275C29.4873 8.70614 29.471 8.74402 29.463 8.784H29.247L29.624 8.218ZM29.17 10.425C29.2103 10.4878 29.2689 10.5367 29.338 10.565C29.322 10.5669 29.3072 10.5746 29.2964 10.5865C29.2855 10.5984 29.2794 10.6139 29.279 10.63V10.673L29.282 10.68H30.012L30.015 10.673V10.63C30.0146 10.6137 30.0083 10.5982 29.9973 10.5862C29.9862 10.5742 29.9712 10.5667 29.955 10.565C30.0163 10.5392 30.0695 10.4971 30.1088 10.4434C30.148 10.3897 30.172 10.3263 30.178 10.26L30.213 10.234C30.29 10.174 30.406 10.082 30.443 10.13C30.453 10.141 30.451 10.148 30.451 10.15C30.447 10.178 30.388 10.218 30.341 10.25C30.267 10.301 30.191 10.354 30.185 10.428C30.1844 10.433 30.1849 10.4381 30.1863 10.4429C30.1877 10.4477 30.1901 10.4522 30.1932 10.4561C30.1964 10.46 30.2003 10.4632 30.2047 10.4656C30.2091 10.468 30.214 10.4695 30.219 10.47H30.222C30.2317 10.47 30.2411 10.4663 30.2482 10.4596C30.2553 10.4529 30.2595 10.4437 30.26 10.434C30.263 10.397 30.33 10.351 30.383 10.314C30.452 10.267 30.516 10.224 30.526 10.162C30.5279 10.1477 30.5267 10.1332 30.5226 10.1194C30.5184 10.1056 30.5114 10.0929 30.502 10.082C30.419 9.976 30.274 10.09 30.167 10.172L30.127 10.202L29.733 9.612C29.7442 9.5963 29.7508 9.57782 29.7522 9.55858C29.7536 9.53935 29.7497 9.5201 29.7408 9.50296C29.732 9.48582 29.7186 9.47144 29.7022 9.4614C29.6857 9.45136 29.6668 9.44605 29.6475 9.44605C29.6282 9.44605 29.6093 9.45136 29.5928 9.4614C29.5764 9.47144 29.563 9.48582 29.5542 9.50296C29.5453 9.5201 29.5414 9.53935 29.5428 9.55858C29.5442 9.57782 29.5508 9.5963 29.562 9.612L29.156 10.222H28.869C28.869 10.222 28.856 10.403 29.17 10.425ZM29.624 9.655C29.6317 9.65799 29.6398 9.66 29.648 9.661C29.6558 9.66022 29.6635 9.65854 29.671 9.656L30.048 10.221H29.83C29.822 10.181 29.8057 10.1431 29.7823 10.1097C29.7589 10.0764 29.7288 10.0482 29.694 10.027C29.715 10.0163 29.7319 9.99887 29.7418 9.97745C29.7517 9.95603 29.7541 9.93189 29.7486 9.90894C29.7431 9.88598 29.7301 9.86555 29.7115 9.85093C29.693 9.83631 29.6701 9.82836 29.6465 9.82836C29.6229 9.82836 29.6 9.83631 29.5815 9.85093C29.5629 9.86555 29.5499 9.88598 29.5444 9.90894C29.5389 9.93189 29.5413 9.95603 29.5512 9.97745C29.5611 9.99887 29.578 10.0163 29.599 10.027C29.5642 10.0482 29.5341 10.0764 29.5107 10.1097C29.4873 10.1431 29.471 10.181 29.463 10.221H29.247L29.624 9.655ZM29.17 11.863C29.2103 11.9258 29.2689 11.9747 29.338 12.003C29.322 12.0049 29.3072 12.0126 29.2964 12.0245C29.2855 12.0364 29.2794 12.0519 29.279 12.068V12.111L29.282 12.118H30.012L30.015 12.111V12.068C30.0148 12.0516 30.0086 12.0357 29.9976 12.0236C29.9865 12.0114 29.9714 12.0037 29.955 12.002C30.0163 11.9762 30.0695 11.9341 30.1088 11.8804C30.148 11.8267 30.172 11.7633 30.178 11.697L30.213 11.671C30.29 11.611 30.406 11.519 30.443 11.567C30.453 11.579 30.451 11.586 30.451 11.588C30.447 11.616 30.388 11.656 30.341 11.688C30.267 11.738 30.191 11.791 30.185 11.866C30.1842 11.8759 30.1873 11.8858 30.1936 11.8935C30.2 11.9011 30.2091 11.906 30.219 11.907H30.222C30.2316 11.907 30.2408 11.9034 30.2479 11.897C30.2549 11.8905 30.2592 11.8815 30.26 11.872C30.263 11.834 30.33 11.789 30.383 11.752C30.452 11.705 30.516 11.661 30.526 11.6C30.5278 11.5857 30.5266 11.5712 30.5225 11.5575C30.5183 11.5437 30.5114 11.5309 30.502 11.52C30.419 11.414 30.274 11.527 30.167 11.61L30.127 11.64L29.733 11.05C29.7442 11.0343 29.7508 11.0158 29.7522 10.9966C29.7536 10.9773 29.7497 10.9581 29.7408 10.941C29.732 10.9238 29.7186 10.9094 29.7022 10.8994C29.6857 10.8894 29.6668 10.8841 29.6475 10.8841C29.6282 10.8841 29.6093 10.8894 29.5928 10.8994C29.5764 10.9094 29.563 10.9238 29.5542 10.941C29.5453 10.9581 29.5414 10.9773 29.5428 10.9966C29.5442 11.0158 29.5508 11.0343 29.562 11.05L29.156 11.659H28.869C28.869 11.659 28.856 11.841 29.17 11.863ZM29.624 11.093C29.6318 11.0956 29.6398 11.0973 29.648 11.098C29.6558 11.0972 29.6636 11.0955 29.671 11.093L30.048 11.659H29.83C29.822 11.619 29.8057 11.5811 29.7823 11.5477C29.7589 11.5144 29.7288 11.4862 29.694 11.465C29.715 11.4543 29.7319 11.4369 29.7418 11.4154C29.7517 11.394 29.7541 11.3699 29.7486 11.3469C29.7431 11.324 29.7301 11.3035 29.7115 11.2889C29.693 11.2743 29.6701 11.2664 29.6465 11.2664C29.6229 11.2664 29.6 11.2743 29.5815 11.2889C29.5629 11.3035 29.5499 11.324 29.5444 11.3469C29.5389 11.3699 29.5413 11.394 29.5512 11.4154C29.5611 11.4369 29.578 11.4543 29.599 11.465C29.5642 11.4862 29.5341 11.5144 29.5107 11.5477C29.4873 11.5811 29.471 11.619 29.463 11.659H29.247L29.624 11.093ZM29.17 13.3C29.2103 13.3628 29.2689 13.4117 29.338 13.44C29.3218 13.4419 29.3069 13.4497 29.296 13.4619C29.2852 13.474 29.2791 13.4897 29.279 13.506V13.548L29.282 13.555H30.012L30.015 13.548V13.506C30.0148 13.4896 30.0086 13.4737 29.9976 13.4616C29.9865 13.4494 29.9714 13.4417 29.955 13.44C30.0163 13.4142 30.0695 13.3721 30.1088 13.3184C30.148 13.2647 30.172 13.2013 30.178 13.135L30.213 13.109C30.29 13.049 30.406 12.957 30.443 13.005C30.453 13.017 30.451 13.023 30.451 13.025C30.447 13.054 30.388 13.094 30.341 13.125C30.267 13.176 30.191 13.229 30.185 13.303C30.1844 13.308 30.1849 13.3131 30.1863 13.3179C30.1877 13.3227 30.1901 13.3272 30.1932 13.3311C30.1964 13.335 30.2003 13.3382 30.2047 13.3406C30.2091 13.343 30.214 13.3445 30.219 13.345H30.222C30.2316 13.345 30.2408 13.3414 30.2479 13.335C30.2549 13.3285 30.2592 13.3195 30.26 13.31C30.263 13.272 30.33 13.226 30.383 13.19C30.452 13.143 30.516 13.099 30.526 13.038C30.528 13.0236 30.5269 13.0089 30.5228 12.9949C30.5186 12.9809 30.5116 12.968 30.502 12.957C30.419 12.851 30.274 12.965 30.167 13.047L30.127 13.077L29.733 12.487C29.7442 12.4713 29.7508 12.4528 29.7522 12.4336C29.7536 12.4143 29.7497 12.3951 29.7408 12.378C29.732 12.3608 29.7186 12.3464 29.7022 12.3364C29.6857 12.3264 29.6668 12.3211 29.6475 12.3211C29.6282 12.3211 29.6093 12.3264 29.5928 12.3364C29.5764 12.3464 29.563 12.3608 29.5542 12.378C29.5453 12.3951 29.5414 12.4143 29.5428 12.4336C29.5442 12.4528 29.5508 12.4713 29.562 12.487L29.156 13.097H28.869C28.869 13.097 28.856 13.278 29.17 13.3ZM29.624 12.531C29.6318 12.5336 29.6398 12.5353 29.648 12.536C29.6558 12.5352 29.6636 12.5335 29.671 12.531L30.048 13.097H29.83C29.822 13.057 29.8057 13.0191 29.7823 12.9857C29.7589 12.9524 29.7288 12.9242 29.694 12.903C29.715 12.8923 29.7319 12.8749 29.7418 12.8534C29.7517 12.832 29.7541 12.8079 29.7486 12.7849C29.7431 12.762 29.7301 12.7415 29.7115 12.7269C29.693 12.7123 29.6701 12.7044 29.6465 12.7044C29.6229 12.7044 29.6 12.7123 29.5815 12.7269C29.5629 12.7415 29.5499 12.762 29.5444 12.7849C29.5389 12.8079 29.5413 12.832 29.5512 12.8534C29.5611 12.8749 29.578 12.8923 29.599 12.903C29.5642 12.9242 29.5341 12.9524 29.5107 12.9857C29.4873 13.0191 29.471 13.057 29.463 13.097H29.247L29.624 12.531ZM29.17 14.738C29.2103 14.8008 29.2689 14.8497 29.338 14.878C29.322 14.8799 29.3072 14.8876 29.2964 14.8995C29.2855 14.9114 29.2794 14.9269 29.279 14.943V14.986L29.282 14.993H30.012L30.015 14.986V14.943C30.0148 14.9266 30.0086 14.9107 29.9976 14.8986C29.9865 14.8864 29.9714 14.8787 29.955 14.877C30.0162 14.8512 30.0692 14.8094 30.1085 14.7558C30.1478 14.7023 30.1718 14.6391 30.178 14.573L30.213 14.547C30.29 14.487 30.406 14.395 30.443 14.443C30.453 14.454 30.451 14.461 30.451 14.463C30.447 14.491 30.388 14.531 30.341 14.563C30.267 14.613 30.191 14.666 30.185 14.741C30.1844 14.746 30.1849 14.751 30.1863 14.7559C30.1877 14.7607 30.1901 14.7652 30.1932 14.7691C30.1964 14.773 30.2003 14.7762 30.2047 14.7786C30.2091 14.781 30.214 14.7825 30.219 14.783H30.222C30.2317 14.783 30.2411 14.7793 30.2482 14.7726C30.2553 14.7659 30.2595 14.7567 30.26 14.747C30.263 14.71 30.33 14.664 30.383 14.627C30.452 14.58 30.516 14.537 30.526 14.475C30.5279 14.4607 30.5267 14.4462 30.5226 14.4324C30.5184 14.4186 30.5114 14.4059 30.502 14.395C30.419 14.289 30.274 14.403 30.167 14.485L30.127 14.515L29.733 13.925C29.7442 13.9093 29.7508 13.8908 29.7522 13.8716C29.7536 13.8523 29.7497 13.8331 29.7408 13.816C29.732 13.7988 29.7186 13.7844 29.7022 13.7744C29.6857 13.7644 29.6668 13.7591 29.6475 13.7591C29.6282 13.7591 29.6093 13.7644 29.5928 13.7744C29.5764 13.7844 29.563 13.7988 29.5542 13.816C29.5453 13.8331 29.5414 13.8523 29.5428 13.8716C29.5442 13.8908 29.5508 13.9093 29.562 13.925L29.156 14.535H28.869C28.869 14.535 28.856 14.715 29.17 14.738ZM29.624 13.968C29.6318 13.9706 29.6398 13.9723 29.648 13.973C29.6558 13.9722 29.6635 13.9705 29.671 13.968L30.048 14.534H29.83C29.822 14.494 29.8057 14.4561 29.7823 14.4227C29.7589 14.3894 29.7288 14.3612 29.694 14.34C29.715 14.3293 29.7319 14.3119 29.7418 14.2904C29.7517 14.269 29.7541 14.2449 29.7486 14.2219C29.7431 14.199 29.7301 14.1785 29.7115 14.1639C29.693 14.1493 29.6701 14.1414 29.6465 14.1414C29.6229 14.1414 29.6 14.1493 29.5815 14.1639C29.5629 14.1785 29.5499 14.199 29.5444 14.2219C29.5389 14.2449 29.5413 14.269 29.5512 14.2904C29.5611 14.3119 29.578 14.3293 29.599 14.34C29.5642 14.3612 29.5341 14.3894 29.5107 14.4227C29.4873 14.4561 29.471 14.494 29.463 14.534H29.247L29.624 13.968ZM32.686 15.57C32.0534 16.4095 31.2344 17.0906 30.2937 17.5596C29.353 18.0286 28.3162 18.2727 27.265 18.2727C26.2138 18.2727 25.177 18.0286 24.2363 17.5596C23.2956 17.0906 22.4766 16.4095 21.844 15.57L22.926 14.809C23.4391 15.4706 24.0976 16.006 24.8494 16.3743C25.6012 16.7427 26.4263 16.9342 27.2635 16.9342C28.1007 16.9342 28.9268 16.7427 29.6786 16.3743C30.4304 16.006 31.0879 15.4706 31.601 14.809L32.686 15.57Z"
		fill="#FFE15A"
	/>
	<path
		d="M13.067 7.579L18 10.867V12H16.301L10.551 8.167V12H7.449V8.167L1.698 12H0V10.867L4.933 7.58H0V4.42H4.933L0 1.133V0H1.699L7.449 3.833V0H10.552V3.833L16.302 0H18V1.133L13.067 4.42H18V7.578L13.067 7.579Z"
		fill="#F5F5F5"
	/>
	<path
		d="M18 6.947H9.931V12H8.069V6.947H0V5.053H8.069V0H9.931V5.053H18V6.947ZM6.828 4.421L0.166 0.001H0V0.664L5.688 4.421H6.828ZM18 0.253V0H17.245L10.552 4.421H11.692L18 0.253ZM0 11.729V12H0.738L7.43 7.579H6.29L0 11.729ZM18 11.423L12.178 7.579H11.038L17.512 12H18V11.423Z"
		fill="#FF4B55"
	/>
</svg>
