<svg viewBox="0 0 36 24" fill="none" xmlns="http://www.w3.org/2000/svg">
	<path d="M8.069 0H27.931V24H8.069V0Z" fill="#F5F5F5" />
	<path
		d="M0 0H8.069V24H0V0ZM27.931 0V24H36V0H27.931ZM24.267 11.553L24.542 9.455L22.982 9.917C22.8999 9.94068 22.8138 9.94715 22.7291 9.93599C22.6445 9.92483 22.563 9.89629 22.4898 9.85216C22.4167 9.80803 22.3535 9.74926 22.3041 9.67954C22.2547 9.60982 22.2203 9.53065 22.203 9.447L22.053 8.76L20.59 10.504C20.5459 10.5557 20.486 10.5913 20.4196 10.6054C20.3532 10.6195 20.2839 10.6113 20.2227 10.582C20.1614 10.5526 20.1116 10.5039 20.0809 10.4433C20.0502 10.3828 20.0404 10.3137 20.053 10.247L20.678 6.547L19.721 6.814C19.5847 6.85148 19.4396 6.84093 19.3102 6.78412C19.1807 6.72731 19.0747 6.6277 19.01 6.502L18.002 4.58V4.577L18 4.578V4.58L16.991 6.502C16.9261 6.62757 16.8201 6.72707 16.6907 6.78386C16.5613 6.84065 16.4163 6.85129 16.28 6.814L15.322 6.548L15.948 10.248C15.9603 10.3146 15.9503 10.3835 15.9195 10.4438C15.8887 10.5042 15.8388 10.5527 15.7776 10.5819C15.7165 10.611 15.6474 10.6192 15.5811 10.6051C15.5148 10.5911 15.455 10.5555 15.411 10.504L13.948 8.76L13.798 9.447C13.7807 9.53065 13.7463 9.60982 13.6969 9.67954C13.6475 9.74926 13.5843 9.80803 13.5112 9.85216C13.438 9.89629 13.3565 9.92483 13.2719 9.93599C13.1872 9.94715 13.1011 9.94068 13.019 9.917L11.459 9.455L11.735 11.553C11.7526 11.6828 11.7296 11.815 11.6691 11.9312C11.6086 12.0474 11.5135 12.142 11.397 12.202L10.552 12.632L14.235 14.773C14.4205 14.8826 14.5617 15.0539 14.6339 15.2569C14.7061 15.4599 14.7047 15.6819 14.63 15.884L14.315 16.741L17.471 16.467C17.5125 16.4639 17.5543 16.4696 17.5935 16.4837C17.6327 16.4978 17.6684 16.52 17.6984 16.5489C17.7285 16.5778 17.752 16.6127 17.7676 16.6513C17.7832 16.6899 17.7905 16.7314 17.789 16.773L17.689 20.211H18.31L18.211 16.773C18.2095 16.7314 18.2168 16.6899 18.2324 16.6513C18.248 16.6127 18.2715 16.5778 18.3016 16.5489C18.3316 16.52 18.3673 16.4978 18.4065 16.4837C18.4457 16.4696 18.4875 16.4639 18.529 16.467L21.687 16.741L21.372 15.884C21.2976 15.682 21.2963 15.4603 21.3685 15.2575C21.4407 15.0547 21.5817 14.8836 21.767 14.774L25.45 12.632L24.605 12.202C24.4885 12.142 24.3934 12.0474 24.3329 11.9312C24.2724 11.815 24.2494 11.6828 24.267 11.553Z"
		fill="#FF4B55"
	/>
</svg>
