<svg viewBox="0 0 36 24" fill="none" xmlns="http://www.w3.org/2000/svg">
	<path d="M36 24H0V0H36" fill="#41479B" />
	<path
		d="M30.103 8.713H28.74L28.72 8.655C28.6948 8.57651 28.6454 8.50798 28.579 8.45915C28.5126 8.41032 28.4324 8.38367 28.35 8.383H28.113L28.221 8.713H27.442L27.247 8.119H26.469L26.663 8.713H25.885L25.776 8.383H25.617C25.5825 8.38339 25.5483 8.39058 25.5166 8.40416C25.4848 8.41774 25.456 8.43745 25.4319 8.46215C25.4078 8.48685 25.3887 8.51606 25.3759 8.54812C25.363 8.58018 25.3566 8.61446 25.357 8.649C25.3577 8.67067 25.361 8.69217 25.367 8.713H23.873C23.7516 8.71432 23.6357 8.76367 23.5506 8.85026C23.4655 8.93684 23.4182 9.05361 23.419 9.175V12.345C23.419 12.391 23.419 12.449 23.422 12.513C23.4498 13.2091 23.5685 13.8986 23.775 14.564C23.9277 15.0603 24.1449 15.5343 24.421 15.974C24.61 16.272 24.8332 16.5468 25.086 16.793C25.6027 17.2925 26.2423 17.6465 26.94 17.819L26.988 17.831L27.035 17.819C27.7322 17.6465 28.3714 17.2929 28.888 16.794C29.1416 16.5477 29.3654 16.2724 29.555 15.974C29.8308 15.5343 30.0476 15.0602 30.2 14.564C30.4065 13.899 30.5252 13.2098 30.553 12.514C30.556 12.449 30.557 12.391 30.557 12.344V9.176C30.5578 9.05461 30.5105 8.93784 30.4254 8.85126C30.3403 8.76467 30.2244 8.71432 30.103 8.713ZM26.988 17.627C26.3228 17.4632 25.713 17.1257 25.221 16.649C25.2984 16.5522 25.3955 16.4729 25.5058 16.4164C25.6162 16.3598 25.7372 16.3273 25.861 16.321C26.424 16.321 26.424 16.838 26.986 16.838C27.548 16.838 27.548 16.321 28.111 16.321C28.2354 16.3275 28.357 16.3603 28.4678 16.4172C28.5786 16.4741 28.6762 16.5538 28.754 16.651C28.262 17.1268 27.6526 17.4636 26.988 17.627ZM30.26 13.472C30.2026 13.821 30.1207 14.1655 30.015 14.503C29.8679 14.9826 29.6584 15.4409 29.392 15.866C29.3408 15.8776 29.2885 15.8836 29.236 15.884C28.673 15.884 28.673 15.368 28.111 15.368C27.548 15.368 27.548 15.884 26.986 15.884C26.424 15.884 26.424 15.368 25.862 15.368C25.3 15.368 25.3 15.884 24.738 15.884C24.6862 15.8836 24.6345 15.8775 24.584 15.866C24.3177 15.4412 24.1083 14.9833 23.961 14.504C24.214 14.652 24.324 14.93 24.738 14.93C25.3 14.93 25.3 14.414 25.862 14.414C26.424 14.414 26.424 14.93 26.986 14.93C27.548 14.93 27.548 14.414 28.111 14.414C28.673 14.414 28.673 14.93 29.236 14.93C29.651 14.93 29.761 14.651 30.016 14.503C30.1214 14.1658 30.2029 13.8206 30.26 13.472C29.802 13.532 29.76 13.977 29.236 13.977C28.674 13.977 28.674 13.46 28.111 13.46C27.548 13.46 27.548 13.977 26.986 13.977C26.424 13.977 26.424 13.46 25.862 13.46C25.3 13.46 25.3 13.977 24.738 13.977C24.214 13.977 24.173 13.534 23.716 13.472C23.6622 13.1524 23.6288 12.8298 23.616 12.506C24.176 12.509 24.177 13.023 24.738 13.023C24.9166 13.0261 25.0894 12.9589 25.219 12.836C25.3129 12.742 25.4165 12.6582 25.528 12.586C25.6305 12.5307 25.7456 12.5031 25.862 12.506C26.424 12.506 26.424 13.023 26.986 13.023C27.548 13.023 27.548 12.506 28.111 12.506C28.673 12.506 28.674 13.023 29.236 13.023L29.258 13.021C29.284 13.0209 29.3101 13.0196 29.336 13.017L29.371 13.01C29.388 13.007 29.407 13.005 29.423 13C29.433 12.998 29.443 12.994 29.452 12.991C29.469 12.986 29.486 12.981 29.501 12.975L29.517 12.967C29.821 12.835 29.913 12.508 30.359 12.507C30.3461 12.8305 30.3137 13.1528 30.26 13.472ZM30.362 11.552C29.799 11.552 29.799 12.069 29.236 12.069C28.885 12.069 28.753 11.867 28.566 11.716C28.4379 11.6103 28.277 11.5525 28.111 11.5525C27.945 11.5525 27.7841 11.6103 27.656 11.716L27.601 11.762C27.5319 11.8288 27.4588 11.8913 27.382 11.949C27.2749 12.0199 27.1507 12.061 27.0224 12.0681C26.8941 12.0751 26.7663 12.0478 26.652 11.989C26.476 11.891 26.371 11.729 26.195 11.633C26.0926 11.5776 25.9774 11.5501 25.861 11.553C25.299 11.553 25.3 12.069 24.738 12.069C24.239 12.069 24.182 11.663 23.784 11.571C23.7283 11.5581 23.6712 11.5518 23.614 11.552V9.175C23.6137 9.14059 23.6203 9.10647 23.6332 9.07458C23.6461 9.04269 23.6652 9.01366 23.6893 8.98915C23.7135 8.96464 23.7422 8.94512 23.7739 8.93171C23.8056 8.9183 23.8396 8.91126 23.874 8.911H30.103C30.1374 8.91126 30.1714 8.9183 30.2031 8.93171C30.2348 8.94512 30.2635 8.96464 30.2877 8.98915C30.3118 9.01366 30.3309 9.04269 30.3438 9.07458C30.3567 9.10647 30.3633 9.14059 30.363 9.175L30.362 11.552ZM16.302 0H18V1.133L13.067 4.42H18V7.578H13.067L18 10.867V12H16.301L10.551 8.167V12H7.449V8.167L1.698 12H0V10.867L4.933 7.58H0V4.42H4.933L0 1.133V0H1.699L7.449 3.833V0H10.552V3.833L16.302 0Z"
		fill="#F5F5F5"
	/>
	<path
		d="M30.362 8.911H23.614V12.081H30.362V8.911ZM26.871 10.985L26.793 11.038C26.7776 11.0151 26.7571 10.9959 26.7332 10.9821C26.7093 10.9682 26.6826 10.96 26.655 10.958C26.6897 10.941 26.7287 10.9346 26.767 10.9393C26.8054 10.9441 26.8415 10.96 26.871 10.985ZM24.359 9.535L24.279 9.601C24.2249 9.56746 24.1627 9.54915 24.099 9.548C24.1358 9.51931 24.1805 9.50274 24.2271 9.50059C24.2737 9.49844 24.3198 9.51081 24.359 9.536V9.535ZM24.279 9.8L24.337 9.884C24.337 9.884 24.282 9.98 24.123 9.921C24.123 9.921 24.261 9.856 24.279 9.8ZM24.38 11.015L24.313 11.095C24.313 11.095 24.209 11.009 24.14 11.043C24.1698 11.01 24.2106 10.9889 24.2547 10.9838C24.2989 10.9786 24.3434 10.9897 24.38 11.015ZM24.392 11.21L24.387 11.314C24.387 11.314 24.253 11.313 24.22 11.382C24.22 11.382 24.24 11.211 24.392 11.21ZM24.296 11.493C24.296 11.493 24.433 11.428 24.452 11.372L24.51 11.456C24.51 11.456 24.455 11.552 24.296 11.493ZM24.442 10.938C24.442 10.938 24.383 10.816 24.307 10.816C24.3484 10.7993 24.3944 10.7982 24.4366 10.8129C24.4787 10.8276 24.514 10.8572 24.536 10.896L24.442 10.938ZM24.478 9.452C24.4856 9.4251 24.487 9.39683 24.4822 9.3693C24.4773 9.34178 24.4663 9.3157 24.45 9.293C24.45 9.293 24.563 9.343 24.578 9.436L24.478 9.452ZM24.728 9.557C24.728 9.557 24.783 9.433 24.734 9.374C24.7732 9.39596 24.8034 9.43113 24.8191 9.47324C24.8349 9.51535 24.8352 9.56169 24.82 9.604L24.728 9.557ZM26.704 11.081L26.683 11.174C26.6561 11.1674 26.628 11.1672 26.6009 11.1732C26.5738 11.1793 26.5485 11.1915 26.527 11.209C26.527 11.209 26.584 11.073 26.704 11.081ZM26.759 11.239L26.778 11.324C26.7504 11.3199 26.7222 11.3223 26.6956 11.3309C26.669 11.3396 26.6449 11.3544 26.625 11.374C26.625 11.374 26.638 11.241 26.759 11.239ZM26.749 11.438C26.749 11.438 26.854 11.399 26.869 11.353L26.923 11.407C26.923 11.407 26.878 11.486 26.748 11.437L26.749 11.438ZM28.829 11.424C28.818 11.3833 28.8187 11.3402 28.8311 11.2999C28.8435 11.2596 28.867 11.2236 28.899 11.196L28.94 11.29C28.9125 11.3024 28.8882 11.3209 28.869 11.3442C28.8498 11.3674 28.8361 11.3947 28.829 11.424ZM29.031 11.534C29.0067 11.4991 28.9929 11.458 28.9911 11.4155C28.9893 11.373 28.9997 11.3308 29.021 11.294L29.099 11.347C29.0532 11.3979 29.0289 11.4646 29.031 11.533V11.534ZM29.239 11.54C29.2099 11.5144 29.1902 11.4799 29.1829 11.4419C29.1757 11.4038 29.1814 11.3645 29.199 11.33L29.281 11.37C29.2617 11.3934 29.2479 11.4208 29.2406 11.4502C29.2334 11.4796 29.2328 11.5103 29.239 11.54ZM29.349 11.332L29.443 11.341C29.4378 11.3685 29.4391 11.3968 29.4467 11.4237C29.4543 11.4506 29.4681 11.4754 29.487 11.496C29.487 11.496 29.351 11.452 29.348 11.332H29.349ZM31.141 15.514L30.362 16.57L29.583 15.036H31.093L31.141 15.514ZM22.882 15.036H24.392L23.613 16.57L22.835 15.514L22.882 15.036ZM12.178 7.579L18 11.423V12H17.512L11.038 7.579H12.178ZM5.688 4.421L0 0.664V0H0.166L6.828 4.421H5.688ZM6.29 7.58H7.43L0.738 12H0V11.73L6.29 7.58ZM17.245 0H18V0.253L11.692 4.42H10.552L17.245 0ZM9.931 5.053H18V6.947H9.931V12H8.069V6.947H0V5.053H8.069V0H9.931V5.053Z"
		fill="#FF4B55"
	/>
	<path
		d="M28.956 9.714L29.026 9.417C29.1187 9.46638 29.1957 9.5409 29.248 9.632L29.324 9.505C29.4027 9.57857 29.4523 9.67792 29.464 9.785C29.464 9.785 29.578 9.736 29.578 9.665C29.6033 9.72751 29.6101 9.79596 29.5977 9.86224C29.5853 9.92852 29.5542 9.98986 29.508 10.039C29.5665 10.0022 29.6363 9.98753 29.7047 9.99761C29.773 10.0077 29.8356 10.0419 29.881 10.094C29.7531 10.1096 29.6297 10.1508 29.518 10.215C29.2721 10.3099 29.0073 10.3459 28.745 10.32C28.623 10.3 28.496 10.25 28.32 10.234C28.339 10.248 28.358 10.259 28.377 10.276C28.494 10.3738 28.6323 10.4427 28.7809 10.4771C28.9294 10.5115 29.0839 10.5104 29.232 10.474C29.442 10.479 29.463 10.865 29.47 11.013C29.474 11.102 29.498 11.35 29.455 11.387C29.4365 11.4041 29.4121 11.4131 29.387 11.4122C29.3619 11.4112 29.3381 11.4004 29.321 11.382L29.318 11.378C29.3069 11.3901 29.2934 11.3999 29.2785 11.4068C29.2636 11.4137 29.2474 11.4176 29.231 11.4183C29.2145 11.4189 29.1981 11.4163 29.1827 11.4106C29.1672 11.4049 29.1531 11.3962 29.141 11.385C29.141 11.385 29.018 11.428 28.976 11.325C28.976 11.325 28.826 11.322 28.844 11.21C28.862 11.098 28.991 11.095 29.067 11.126C29.067 11.126 29.137 11.134 29.172 11.018C29.199 10.858 28.886 10.809 28.567 10.837C28.3464 10.8458 28.1266 10.8062 27.923 10.721C27.9069 10.817 27.872 10.9089 27.8204 10.9914C27.7687 11.074 27.7013 11.1455 27.622 11.202C27.5427 11.2584 27.453 11.2987 27.3581 11.3205C27.2633 11.3423 27.165 11.3452 27.069 11.329L27.039 11.323C27.017 11.351 26.945 11.443 26.889 11.434C26.826 11.424 26.853 11.329 26.853 11.329C26.8363 11.3417 26.8159 11.3485 26.795 11.3485C26.7741 11.3485 26.7537 11.3417 26.737 11.329C26.685 11.282 26.737 11.204 26.737 11.204C26.7233 11.2076 26.7089 11.2075 26.6952 11.2037C26.6816 11.1998 26.6692 11.1925 26.6593 11.1823C26.6494 11.1721 26.6425 11.1595 26.6391 11.1458C26.6357 11.132 26.636 11.1176 26.64 11.104C26.658 11.043 26.762 11.049 26.762 11.049C26.76 11.0394 26.7598 11.0295 26.7617 11.0199C26.7635 11.0102 26.7672 11.0011 26.7726 10.9929C26.778 10.9847 26.785 10.9776 26.7931 10.9722C26.8012 10.9667 26.8104 10.9629 26.82 10.961H26.827C26.916 10.961 27.004 11.074 27.004 11.074C27.599 11.063 27.447 10.589 27.447 10.589C27.258 10.518 26.934 10.705 26.652 10.853C26.4794 10.9295 26.2899 10.9598 26.102 10.941C25.9087 11.1214 25.6787 11.258 25.4278 11.3413C25.1768 11.4247 24.9108 11.4529 24.648 11.424C24.408 11.564 24.42 11.362 24.42 11.362C24.258 11.322 24.356 11.177 24.356 11.177C24.3447 11.1755 24.3337 11.1718 24.3238 11.1661C24.314 11.1603 24.3053 11.1527 24.2984 11.1435C24.2915 11.1344 24.2865 11.124 24.2837 11.1129C24.2809 11.1018 24.2803 11.0903 24.282 11.079V11.074C24.2851 11.0468 24.298 11.0218 24.3182 11.0034C24.3385 10.985 24.3647 10.9745 24.392 10.974C24.392 10.974 24.429 10.838 24.514 10.864C24.599 10.888 24.7 11.074 24.7 11.074C25.0373 11.035 25.3545 10.8937 25.609 10.669L25.777 10.709L25.727 10.649C25.727 10.649 26.36 9.709 26.49 10.067C26.62 10.424 27.307 10.177 27.485 10.138C27.5911 10.1083 27.6995 10.0876 27.809 10.076C28.054 10.0631 28.2997 10.0839 28.539 10.138C28.996 10.222 29.135 10.018 29.037 9.957C28.79 9.85473 28.5161 9.83715 28.258 9.907C27.81 9.979 27.08 10.111 26.988 9.742C26.913 9.442 27.338 9.448 27.5 9.461C27.5987 9.36357 27.7227 9.29568 27.858 9.265C27.9845 9.25438 28.1089 9.2268 28.228 9.183C28.2016 9.24336 28.1603 9.29601 28.108 9.336C28.108 9.336 28.371 9.328 28.432 9.464C28.3084 9.45269 28.1844 9.48107 28.078 9.545C28.078 9.545 28.088 9.584 28.173 9.617C28.1154 9.65138 28.0507 9.67222 27.9838 9.67793C27.9169 9.68365 27.8496 9.6741 27.787 9.65C27.689 9.61861 27.5899 9.59059 27.49 9.566C27.386 9.568 27.145 9.581 27.145 9.686C27.145 9.813 27.366 9.89 27.642 9.857C27.918 9.824 28.388 9.725 28.562 9.72L28.507 9.582C28.6673 9.57605 28.8253 9.62238 28.957 9.714H28.956ZM24.307 9.732C24.2871 9.73899 24.27 9.75207 24.258 9.76939C24.246 9.78671 24.2397 9.80738 24.2402 9.82845C24.2406 9.84952 24.2477 9.8699 24.2604 9.8867C24.2731 9.9035 24.2908 9.91586 24.311 9.922C24.3617 9.93223 24.4133 9.9366 24.465 9.935C24.5368 10.1511 24.6675 10.3428 24.8424 10.4886C25.0173 10.6344 25.2295 10.7284 25.455 10.76L25.374 10.232C24.993 10.215 24.774 9.762 24.774 9.762C24.844 9.638 24.856 9.579 24.814 9.534C24.754 9.47 24.636 9.567 24.636 9.567C24.636 9.447 24.572 9.355 24.494 9.386C24.394 9.424 24.429 9.539 24.429 9.539C24.4163 9.52864 24.4018 9.52089 24.3861 9.51618C24.3705 9.51148 24.354 9.50992 24.3378 9.51159C24.3215 9.51326 24.3057 9.51814 24.2913 9.52593C24.277 9.53372 24.2643 9.54428 24.254 9.557L24.246 9.567C24.195 9.655 24.307 9.732 24.307 9.732ZM25.759 5.952C25.5397 5.87453 25.3128 5.82088 25.082 5.792C25.5448 6.04142 25.9617 6.36774 26.315 6.757C26.315 6.757 26.915 6.914 26.477 6.402C26.4597 6.382 26.4417 6.36265 26.423 6.344L26.485 6.097L26.478 6.09L26.532 5.964L26.574 5.899L26.564 5.886L26.574 5.866C26.6687 6.16794 26.7205 6.48166 26.728 6.798L26.988 6.006C26.9379 5.82282 26.8717 5.64445 26.79 5.473C26.862 5.46075 26.9299 5.43124 26.988 5.387C27.0461 5.43124 27.114 5.46075 27.186 5.473C27.1043 5.64445 27.0381 5.82282 26.988 6.006L27.248 6.798C27.2554 6.48132 27.3072 6.16726 27.402 5.865L27.411 5.886L27.401 5.898L27.444 5.964L27.497 6.09L27.491 6.097L27.553 6.344C27.5343 6.36266 27.5163 6.38201 27.499 6.402C27.061 6.914 27.661 6.757 27.661 6.757C28.0142 6.36738 28.4312 6.04072 28.894 5.791C28.6629 5.82014 28.4356 5.87412 28.216 5.952C28.4366 5.76628 28.6744 5.60188 28.926 5.461C28.632 5.51313 28.3448 5.59834 28.07 5.715C28.283 5.44623 28.5237 5.20055 28.788 4.982C28.4707 5.09088 28.1696 5.24226 27.893 5.432C27.978 5.23411 28.0766 5.04232 28.188 4.858C27.9396 5.02378 27.7197 5.22878 27.537 5.465C27.6729 5.10492 27.8363 4.75588 28.026 4.421C27.6833 4.67022 27.4088 5.00175 27.228 5.385C27.21 5.32933 27.1818 5.27746 27.145 5.232C27.2203 5.13403 27.2828 5.02683 27.331 4.913C27.2871 4.92798 27.244 4.94534 27.202 4.965C27.2359 4.83244 27.2507 4.69574 27.246 4.559C27.1875 4.61602 27.134 4.67791 27.086 4.744C27.0659 4.63292 27.033 4.52453 26.988 4.421C26.9423 4.52445 26.9088 4.63283 26.888 4.744C26.8403 4.67795 26.7871 4.61607 26.729 4.559C26.7243 4.69574 26.7391 4.83244 26.773 4.965C26.731 4.94534 26.6879 4.92798 26.644 4.913C26.6925 5.02653 26.7554 5.1334 26.831 5.231C26.7937 5.27669 26.7652 5.32891 26.747 5.385C26.5662 5.00175 26.2917 4.67022 25.949 4.421C26.139 4.75585 26.3028 5.10489 26.439 5.465C26.256 5.2287 26.0358 5.02369 25.787 4.858C25.8987 5.04196 25.9976 5.23342 26.083 5.431C25.806 5.24153 25.5046 5.09049 25.187 4.982C25.4517 5.2005 25.6926 5.44618 25.906 5.715C25.6308 5.59826 25.3433 5.51305 25.049 5.461C25.3006 5.60188 25.5384 5.76628 25.759 5.952ZM31.093 15.036C30.7814 15.8734 30.2211 16.5955 29.4874 17.1053C28.7536 17.6152 27.8815 17.8885 26.988 17.8885C26.0945 17.8885 25.2224 17.6152 24.4886 17.1053C23.7549 16.5955 23.1936 15.8734 22.882 15.036L21.916 15.42C22.3004 16.4551 22.9924 17.3478 23.899 17.9781C24.8056 18.6085 25.8833 18.9464 26.9875 18.9464C28.0917 18.9464 29.1694 18.6085 30.076 17.9781C30.9826 17.3478 31.6746 16.4551 32.059 15.42L31.093 15.036ZM24.119 13.044L25.101 13.024L25.324 12.37L25.424 12.08L25.746 13.024L26.728 13.044L26.488 13.23L25.946 13.648L26.142 14.31L26.23 14.605L25.982 14.429L25.424 14.034L24.617 14.605L24.902 13.648L24.119 13.044ZM24.424 13.145L25.024 13.607L24.806 14.341L25.424 13.903L26.042 14.341L25.824 13.607L26.424 13.145L25.671 13.129L25.423 12.405L25.176 13.129L24.424 13.145ZM27.51 15.708L27.707 16.37L27.794 16.665L27.546 16.489L26.988 16.094L26.181 16.665L26.466 15.708L25.924 15.29L25.684 15.104L26.666 15.084L26.988 14.14L27.088 14.43L27.31 15.084L28.292 15.104L27.51 15.708ZM27.988 15.205L27.235 15.189L26.988 14.465L26.741 15.189L25.988 15.205L26.588 15.668L26.37 16.401L26.988 15.963L27.606 16.401L27.388 15.668L27.988 15.205ZM29.06 13.648L29.345 14.605L28.538 14.034L27.98 14.429L27.732 14.605L27.82 14.31L28.016 13.648L27.234 13.044L28.216 13.024L28.439 12.37L28.539 12.08L28.861 13.024L29.843 13.044L29.06 13.648ZM29.538 13.145L28.786 13.129L28.538 12.405L28.291 13.129L27.538 13.145L28.138 13.607L27.92 14.341L28.538 13.903L29.156 14.341L28.938 13.608L29.538 13.145Z"
		fill="#FFE15A"
	/>
	<path
		d="M26.571 9.61C26.716 9.61 26.719 9.735 26.688 9.811C26.6631 9.86769 26.6183 9.91326 26.562 9.939C26.4526 10.1933 26.2832 10.4173 26.0683 10.5918C25.8533 10.7663 25.5993 10.8861 25.328 10.941C25.2822 10.5156 25.3592 10.086 25.55 9.703L25.544 9.7C25.5291 9.69088 25.5161 9.67891 25.5058 9.66478C25.4955 9.65064 25.4882 9.63462 25.4841 9.61762C25.48 9.60063 25.4793 9.58299 25.482 9.56572C25.4848 9.54846 25.4909 9.5319 25.5 9.517C25.5161 9.49214 25.5398 9.47315 25.5675 9.46287C25.5953 9.4526 25.6256 9.45159 25.654 9.46C25.6908 9.38303 25.7368 9.31084 25.791 9.245C25.7932 9.28478 25.8091 9.32258 25.836 9.352C25.8935 9.27661 25.9692 9.21708 26.056 9.179C26.0571 9.23661 26.0752 9.29261 26.108 9.34C26.1803 9.27952 26.2692 9.24223 26.363 9.233C26.331 9.249 26.339 9.385 26.339 9.385C26.414 9.36634 26.4851 9.33452 26.549 9.291C26.5448 9.36475 26.5151 9.43476 26.465 9.489C26.5322 9.47457 26.602 9.47872 26.667 9.501C26.615 9.521 26.571 9.61 26.571 9.61ZM23.153 16.53C22.9788 16.5686 22.7985 16.5713 22.6232 16.5382C22.4479 16.505 22.2811 16.4365 22.133 16.337L21.532 17.199C21.9295 17.4681 22.3961 17.6167 22.876 17.627C23.0663 17.6272 23.2557 17.5995 23.438 17.545C23.8541 17.3839 24.2272 17.1285 24.5279 16.7988C24.8286 16.4691 25.0487 16.0741 25.171 15.645L24.207 15.252C24.1295 15.5264 23.9958 15.7818 23.8143 16.0018C23.6329 16.2218 23.4077 16.4017 23.153 16.53ZM31.843 16.337C31.6949 16.4365 31.5281 16.505 31.3528 16.5382C31.1775 16.5713 30.9972 16.5686 30.823 16.53C30.5683 16.4017 30.3431 16.2218 30.1617 16.0018C29.9802 15.7818 29.8465 15.5264 29.769 15.252L28.805 15.645C28.9273 16.0741 29.1474 16.4691 29.4481 16.7988C29.7488 17.1285 30.1219 17.3839 30.538 17.545C30.72 17.5994 30.909 17.6271 31.099 17.627C31.5792 17.6169 32.0463 17.4683 32.444 17.199L31.843 16.337ZM26.987 5.213C26.557 5.213 26.208 5.686 26.208 6.27C26.208 6.853 26.557 7.326 26.988 7.326C27.418 7.326 27.766 6.853 27.766 6.27C27.766 5.686 27.418 5.213 26.987 5.213Z"
		fill="#FFD255"
	/>
	<path
		d="M29.236 14.93C28.673 14.93 28.673 14.414 28.111 14.414C27.548 14.414 27.548 14.93 26.986 14.93C26.424 14.93 26.424 14.414 25.862 14.414C25.3 14.414 25.3 14.93 24.738 14.93C24.324 14.93 24.214 14.651 23.961 14.504C24.1083 14.9833 24.3177 15.4412 24.584 15.866C24.6345 15.8775 24.6862 15.8836 24.738 15.884C25.3 15.884 25.3 15.368 25.862 15.368C26.424 15.368 26.424 15.884 26.986 15.884C27.548 15.884 27.548 15.368 28.111 15.368C28.673 15.368 28.673 15.884 29.236 15.884C29.2885 15.8836 29.3408 15.8776 29.392 15.866C29.6584 15.4409 29.8679 14.9826 30.015 14.503C29.761 14.651 29.651 14.93 29.236 14.93Z"
		fill="#41479B"
	/>
	<path
		d="M24.387 6.798L24.187 6.782C24.187 6.782 24.214 6.512 24.447 6.473C24.4952 6.41919 24.5559 6.37801 24.6237 6.35308C24.6915 6.32815 24.7644 6.32023 24.836 6.33C25.084 6.363 25.214 6.578 25.357 6.633L25.941 6.567L28.488 6.955L29.065 7.153C29.0878 7.16106 29.1073 7.17639 29.1205 7.19664C29.1337 7.21688 29.1398 7.24091 29.138 7.265L29.575 7.326C29.4883 7.43687 29.3738 7.52284 29.2431 7.57518C29.1125 7.62751 28.9703 7.64436 28.831 7.624C29.1022 7.93009 29.2441 8.32941 29.227 8.738H28.472C28.4757 8.45536 28.4379 8.17371 28.36 7.902C27.9968 8.08585 27.5951 8.18079 27.188 8.179C26.9672 8.18092 26.7471 8.15471 26.533 8.101C26.3888 8.28054 26.2129 8.43206 26.014 8.548C25.734 8.68 24.7 8.036 25.209 7.348L25.03 7.068C25.03 7.068 24.511 7.194 24.387 6.798ZM27.273 15.138L26.988 14.303L26.703 15.137L25.835 15.155L26.527 15.689L26.275 16.534L26.988 16.03L27.7 16.534L27.449 15.689L28.14 15.155L27.273 15.138ZM25.885 13.628L26.576 13.095L25.708 13.077L25.424 12.243L25.139 13.077L24.271 13.095L24.963 13.629L24.711 14.474L25.424 13.97L26.136 14.474L25.885 13.628ZM29.691 13.095L28.823 13.077L28.538 12.243L28.253 13.077L27.386 13.095L28.077 13.629L27.826 14.474L28.538 13.97L29.25 14.474L29 13.629L29.691 13.095Z"
		fill="#73AF00"
	/>
	<path
		d="M28.894 7.079C28.6806 7.31064 28.4166 7.48997 28.1227 7.60304C27.8287 7.71612 27.5126 7.75991 27.199 7.731C26.9305 7.72688 26.6658 7.66666 26.422 7.55421C26.1781 7.44175 25.9605 7.27954 25.783 7.078C25.7436 7.03291 25.7222 6.97487 25.723 6.915V6.735C25.7227 6.69739 25.7322 6.66035 25.7507 6.62755C25.7691 6.59475 25.7957 6.56733 25.828 6.548C26.2311 6.35171 26.6787 6.26448 27.126 6.295C27.7852 6.35582 28.4063 6.63124 28.894 7.079Z"
		fill="#509664"
	/>
</svg>
