<svg viewBox="0 0 36 24" fill="none" xmlns="http://www.w3.org/2000/svg">
	<path d="M36 12H0V0H36V12Z" fill="#F5F5F5" />
	<path d="M1.241 12V11.368H0V24H36V12H1.241Z" fill="#FF4B55" />
	<path d="M11.793 12H0V0H11.793" fill="#41479B" />
	<path
		d="M6.136 3.306L6.727 5.112L8.597 5.126C8.65052 5.12716 8.70233 5.14501 8.74522 5.17704C8.7881 5.20908 8.81992 5.2537 8.83621 5.30469C8.85251 5.35568 8.85248 5.41048 8.83613 5.46145C8.81978 5.51242 8.78792 5.55701 8.745 5.589L7.241 6.72L7.805 8.535C7.82191 8.58567 7.82235 8.6404 7.80625 8.69134C7.79015 8.74228 7.75834 8.78681 7.71538 8.81856C7.67242 8.85031 7.62051 8.86765 7.56709 8.86809C7.51366 8.86853 7.46148 8.85204 7.418 8.821L5.897 7.713L4.375 8.82C4.33152 8.85104 4.27933 8.86753 4.22591 8.86709C4.17249 8.86665 4.12058 8.84932 4.07762 8.81756C4.03466 8.78581 4.00285 8.74128 3.98675 8.69034C3.97065 8.6394 3.97109 8.58467 3.988 8.534L4.552 6.72L3.048 5.59C3.00474 5.55819 2.97252 5.51362 2.95589 5.46257C2.93925 5.41151 2.93903 5.35652 2.95524 5.30533C2.97146 5.25414 3.00331 5.20931 3.04631 5.17715C3.08931 5.14498 3.14131 5.1271 3.195 5.126L5.065 5.112L5.657 3.306C5.67243 3.25447 5.70406 3.20929 5.74721 3.17716C5.79035 3.14504 5.84271 3.12769 5.8965 3.12769C5.95029 3.12769 6.00265 3.14504 6.04579 3.17716C6.08894 3.20929 6.12057 3.25447 6.136 3.306Z"
		fill="#F5F5F5"
	/>
</svg>
