<svg viewBox="0 0 36 24" fill="none" xmlns="http://www.w3.org/2000/svg">
	<path d="M0 4.105H36V19.894H0V4.105Z" fill="#F5F5F5" />
	<path d="M0 8.21H36V15.789H0V8.21Z" fill="#FF4B55" />
	<path d="M8.229 10.778H11.232V12.306H8.229V10.778Z" fill="#3CC8FF" />
	<path
		d="M8.63 11.646L8.664 11.984L8.799 11.674L8.729 12.005L8.951 11.753L8.784 12.046L9.073 11.876L8.825 12.103L9.15 12.032L8.846 12.169L9.177 12.204L8.846 12.239L9.15 12.376L8.825 12.305L9.073 12.531L8.784 12.361L8.951 12.655L8.729 12.402L8.799 12.734L8.664 12.424L8.63 12.761L8.595 12.424L8.46 12.734L8.53 12.402L8.308 12.655L8.475 12.361L8.186 12.531L8.434 12.305L8.109 12.376L8.413 12.239L8.082 12.204L8.413 12.169L8.109 12.032L8.434 12.103L8.186 11.876L8.475 12.046L8.308 11.753L8.53 12.005L8.46 11.674L8.595 11.984L8.63 11.646Z"
		fill="#FFE15A"
	/>
	<path
		d="M0 19.895H36V24H0V19.895ZM0 0V4.105H36V0H0ZM11.533 13.528V12.204H8.029V13.528L9.13 14.445H10.331L11.533 13.528Z"
		fill="#41479B"
	/>
	<path
		d="M11.433 12.612V13.121H7.929V12.815C8.20728 12.765 8.46595 12.638 8.6756 12.4483C8.88526 12.2586 9.0375 12.0139 9.115 11.742C9.12464 11.7118 9.14586 11.6866 9.174 11.672C9.19085 11.6637 9.20946 11.6596 9.22824 11.66C9.24703 11.6604 9.26544 11.6653 9.28192 11.6743C9.29839 11.6834 9.31246 11.6962 9.32292 11.7118C9.33338 11.7274 9.33992 11.7453 9.342 11.764C9.36225 12.0551 9.47548 12.3321 9.665 12.554C9.7978 12.4649 9.90823 12.3464 9.98768 12.2076C10.0671 12.0689 10.1134 11.9136 10.123 11.754C10.1255 11.736 10.1323 11.7188 10.1427 11.7038C10.1532 11.6889 10.1669 11.6766 10.183 11.668C10.199 11.6599 10.2168 11.6557 10.2347 11.6558C10.2527 11.6559 10.2704 11.6603 10.2864 11.6686C10.3023 11.6769 10.316 11.6889 10.3264 11.7036C10.3368 11.7183 10.3435 11.7352 10.346 11.753C10.3783 11.9849 10.4684 12.205 10.608 12.393C10.7359 12.2182 10.8133 12.0117 10.832 11.796C10.832 11.7827 10.8373 11.77 10.8466 11.7606C10.856 11.7513 10.8687 11.746 10.882 11.746C10.8953 11.746 10.908 11.7513 10.9174 11.7606C10.9267 11.77 10.932 11.7827 10.932 11.796C10.932 11.796 11.033 12.509 11.433 12.612ZM9.53 10.507L9.287 10.397C9.24728 10.3787 9.2026 10.3741 9.16 10.384C8.83825 10.4592 8.54765 10.6321 8.328 10.879L8.628 10.981L9.53 10.507ZM10.831 10.981L11.131 10.879C10.9116 10.6323 10.6214 10.4594 10.3 10.384C10.2571 10.3739 10.212 10.3785 10.172 10.397L9.93 10.507L10.831 10.981ZM9.694 10.574L9.512 10.76C9.50736 10.7648 9.50476 10.7713 9.50476 10.778C9.50476 10.7847 9.50736 10.7912 9.512 10.796C9.51667 10.8006 9.52296 10.8031 9.5295 10.8031C9.53604 10.8031 9.54233 10.8006 9.547 10.796L9.73 10.61L9.912 10.796C9.91667 10.8006 9.92296 10.8031 9.9295 10.8031C9.93604 10.8031 9.94233 10.8006 9.947 10.796C9.95164 10.7912 9.95424 10.7847 9.95424 10.778C9.95424 10.7713 9.95164 10.7648 9.947 10.76L9.765 10.574L9.948 10.388C9.95264 10.3832 9.95524 10.3767 9.95524 10.37C9.95524 10.3633 9.95264 10.3568 9.948 10.352C9.94333 10.3474 9.93704 10.3449 9.9305 10.3449C9.92396 10.3449 9.91767 10.3474 9.913 10.352L9.73 10.538L9.547 10.352C9.54233 10.3474 9.53604 10.3449 9.5295 10.3449C9.52296 10.3449 9.51667 10.3474 9.512 10.352C9.50736 10.3568 9.50476 10.3633 9.50476 10.37C9.50476 10.3767 9.50736 10.3832 9.512 10.388L9.694 10.574Z"
		fill="#73AF00"
	/>
	<path
		d="M11.733 12.102C11.633 12.102 11.333 12.102 11.333 11.796C11.3329 11.7357 11.3524 11.677 11.3887 11.6288C11.425 11.5806 11.476 11.5456 11.534 11.529L11.533 11.542C11.5323 11.5818 11.5475 11.6202 11.5752 11.6488C11.6028 11.6774 11.6407 11.6938 11.6805 11.6945C11.7203 11.6952 11.7587 11.68 11.7873 11.6523C11.8159 11.6247 11.8323 11.5868 11.833 11.547V11.542C11.8292 11.4065 11.7903 11.2743 11.7202 11.1583C11.6501 11.0423 11.5512 10.9464 11.433 10.88C11.033 10.676 11.033 10.472 11.033 10.472C10.7451 10.3565 10.4406 10.2876 10.131 10.268C10.131 10.268 10.231 10.065 10.031 10.065H9.431C9.231 10.065 9.331 10.268 9.331 10.268C9.02174 10.2877 8.71759 10.3566 8.43 10.472C8.43 10.472 8.43 10.676 8.03 10.88C7.9116 10.9462 7.8124 11.042 7.74211 11.1581C7.67183 11.2741 7.63285 11.4064 7.629 11.542C7.62834 11.5818 7.6435 11.6202 7.67117 11.6488C7.69883 11.6774 7.73672 11.6938 7.7765 11.6945C7.81628 11.6952 7.8547 11.68 7.8833 11.6523C7.9119 11.6247 7.92834 11.5868 7.929 11.547V11.542L7.928 11.529C7.98601 11.5456 8.03702 11.5806 8.0733 11.6288C8.10958 11.677 8.12914 11.7357 8.129 11.796C8.129 12.102 7.829 12.102 7.729 12.102C7.6605 12.0941 7.59111 12.1019 7.52609 12.1249C7.46108 12.1479 7.40217 12.1854 7.35385 12.2346C7.30553 12.2837 7.26908 12.3433 7.24727 12.4087C7.22546 12.4741 7.21887 12.5437 7.228 12.612C7.293 12.9434 7.43577 13.2547 7.64456 13.5202C7.85336 13.7856 8.12221 13.9977 8.429 14.139C9.13 14.547 8.829 14.954 9.731 14.954C10.633 14.954 10.331 14.547 11.032 14.139C11.3391 13.9978 11.6082 13.7856 11.8172 13.5199C12.0262 13.2542 12.169 12.9427 12.234 12.611C12.243 12.5427 12.2362 12.4733 12.2144 12.408C12.1925 12.3428 12.156 12.2833 12.1077 12.2343C12.0594 12.1852 12.0006 12.1478 11.9356 12.1248C11.8707 12.1019 11.8014 12.0941 11.733 12.102ZM10.131 14.242C10.0521 14.2361 9.97318 14.2519 9.90266 14.2877C9.83215 14.3235 9.77278 14.3779 9.731 14.445C9.68935 14.3777 9.63003 14.3231 9.55951 14.2871C9.48899 14.2511 9.40995 14.2352 9.331 14.241C9.01436 14.1801 8.72603 14.0181 8.5093 13.7794C8.29256 13.5406 8.15912 13.238 8.129 12.917C8.129 12 8.529 12 8.329 11.287L8.111 11.361L8.93 10.778H10.532L11.352 11.361L11.132 11.287C10.932 12 11.332 12 11.332 12.917C11.302 13.2378 11.1688 13.5401 10.9525 13.7788C10.7362 14.0175 10.4483 14.1797 10.132 14.241L10.131 14.242Z"
		fill="#F0AA00"
	/>
	<path
		d="M10.932 9.885V9.759H10.653C10.6767 9.74094 10.6961 9.71785 10.7097 9.69139C10.7234 9.66493 10.731 9.63576 10.732 9.606C10.732 9.325 10.102 9.25 9.731 9.25C9.36 9.25 8.73 9.325 8.73 9.606C8.73089 9.63568 8.73835 9.6648 8.75184 9.69125C8.76532 9.7177 8.7845 9.74084 8.808 9.759H8.53V9.885C8.36808 9.9248 8.21396 9.99138 8.074 10.082L8.184 10.252C8.34713 10.1441 8.53501 10.0794 8.73 10.064V9.963H10.732V10.065C10.9265 10.0799 11.114 10.1439 11.277 10.251L11.388 10.081C11.248 9.99072 11.0939 9.92447 10.932 9.885ZM10.132 9.731V9.653C10.132 9.64147 10.1294 9.63009 10.1244 9.61972C10.1194 9.60935 10.1121 9.60025 10.103 9.59312C10.094 9.58599 10.0834 9.58102 10.0721 9.57857C10.0609 9.57612 10.0492 9.57627 10.038 9.579L9.731 9.657L9.424 9.579C9.4128 9.57627 9.40113 9.57612 9.38987 9.57857C9.3786 9.58102 9.36805 9.58599 9.35899 9.59312C9.34993 9.60025 9.34262 9.60935 9.33759 9.61972C9.33257 9.63009 9.32998 9.64147 9.33 9.653V9.731C9.19068 9.72083 9.0557 9.67801 8.936 9.606C9.18139 9.48139 9.45689 9.42837 9.731 9.453C10.0048 9.42867 10.2799 9.48168 10.525 9.606C10.4053 9.67801 10.2703 9.72083 10.131 9.731H10.132Z"
		fill="#3CC8FF"
	/>
	<path
		d="M10.45 13.563L10.166 13.811H9.549L9.039 13.464L9.506 13.652H9.524V12.889H9.557V13.652H9.828V12.816H9.861V13.652H10.135V12.889H10.168V13.652H10.231L10.45 13.563ZM9.862 12.249L9.961 12.163L9.885 12.194H9.862V11.929H9.851V12.194H9.756V11.904H9.745V12.194H9.65V11.929H9.638V12.194H9.633L9.471 12.129L9.648 12.249H9.862Z"
		fill="#8C5A28"
	/>
	<path
		d="M9.113 13.435C9.18115 13.2818 9.27368 13.1406 9.387 13.017L9.337 13.522L9.113 13.435ZM9.591 11.973C9.5517 12.0159 9.51962 12.0648 9.496 12.118L9.574 12.148L9.591 11.973ZM9.862 11.929L9.863 11.964L9.913 11.946L9.862 11.929ZM9.899 12.057C9.899 12.0536 9.89763 12.0502 9.89519 12.0478C9.89275 12.0454 9.88945 12.044 9.886 12.044H9.828C9.82455 12.044 9.82125 12.0454 9.81881 12.0478C9.81637 12.0502 9.815 12.0536 9.815 12.057V12.083C9.81486 12.0848 9.8151 12.0866 9.81569 12.0883C9.81628 12.09 9.81721 12.0915 9.81843 12.0928C9.81966 12.0942 9.82114 12.0952 9.82278 12.0959C9.82443 12.0966 9.82621 12.097 9.828 12.097H9.886C9.88779 12.097 9.88957 12.0966 9.89122 12.0959C9.89286 12.0952 9.89434 12.0942 9.89557 12.0928C9.89679 12.0915 9.89772 12.09 9.89831 12.0883C9.8989 12.0866 9.89914 12.0848 9.899 12.083V12.057ZM9.815 11.989V12.007C9.815 12.0104 9.81637 12.0138 9.81881 12.0162C9.82125 12.0186 9.82455 12.02 9.828 12.02H9.886C9.88779 12.02 9.88957 12.0196 9.89122 12.0189C9.89286 12.0182 9.89434 12.0172 9.89557 12.0158C9.89679 12.0145 9.89772 12.013 9.89831 12.0113C9.8989 12.0096 9.89914 12.0078 9.899 12.006V11.989C9.89914 11.9872 9.8989 11.9854 9.89831 11.9837C9.89772 11.982 9.89679 11.9805 9.89557 11.9792C9.89434 11.9778 9.89286 11.9768 9.89122 11.9761C9.88957 11.9754 9.88779 11.975 9.886 11.975H9.828C9.82621 11.975 9.82443 11.9754 9.82278 11.9761C9.82114 11.9768 9.81966 11.9778 9.81843 11.9792C9.81721 11.9805 9.81628 11.982 9.81569 11.9837C9.8151 11.9854 9.81486 11.9872 9.815 11.989ZM9.828 12.111C9.82621 12.111 9.82443 12.1114 9.82278 12.1121C9.82114 12.1128 9.81966 12.1138 9.81843 12.1152C9.81721 12.1165 9.81628 12.118 9.81569 12.1197C9.8151 12.1214 9.81486 12.1232 9.815 12.125V12.161C9.815 12.1644 9.81637 12.1678 9.81881 12.1702C9.82125 12.1726 9.82455 12.174 9.828 12.174H9.886C9.88945 12.174 9.89275 12.1726 9.89519 12.1702C9.89763 12.1678 9.899 12.1644 9.899 12.161V12.125C9.89914 12.1232 9.8989 12.1214 9.89831 12.1197C9.89772 12.118 9.89679 12.1165 9.89557 12.1152C9.89434 12.1138 9.89286 12.1128 9.89122 12.1121C9.88957 12.1114 9.88779 12.111 9.886 12.111H9.828ZM9.798 11.963C9.79801 11.9597 9.79678 11.9566 9.79455 11.9541C9.79233 11.9517 9.78927 11.9503 9.786 11.95H9.716C9.71421 11.9499 9.71241 11.9501 9.71072 11.9507C9.70902 11.9513 9.70747 11.9522 9.70615 11.9534C9.70484 11.9547 9.70379 11.9561 9.70308 11.9578C9.70236 11.9594 9.70199 11.9612 9.702 11.963V12C9.70186 12.0018 9.7021 12.0036 9.70269 12.0053C9.70328 12.007 9.70421 12.0085 9.70543 12.0098C9.70666 12.0112 9.70814 12.0122 9.70978 12.0129C9.71143 12.0136 9.71321 12.014 9.715 12.014H9.785C9.78688 12.0142 9.78876 12.0139 9.79053 12.0132C9.7923 12.0126 9.7939 12.0116 9.79523 12.0102C9.79657 12.0089 9.79759 12.0073 9.79824 12.0055C9.79889 12.0038 9.79915 12.0019 9.799 12V11.964L9.798 11.963ZM9.786 12.027H9.716C9.71412 12.0268 9.71224 12.0271 9.71047 12.0278C9.7087 12.0284 9.7071 12.0294 9.70577 12.0308C9.70443 12.0321 9.70341 12.0337 9.70276 12.0355C9.70211 12.0372 9.70185 12.0391 9.702 12.041V12.077C9.702 12.0804 9.70337 12.0838 9.70581 12.0862C9.70825 12.0886 9.71155 12.09 9.715 12.09H9.785C9.78679 12.0901 9.78859 12.0899 9.79028 12.0893C9.79198 12.0887 9.79353 12.0878 9.79485 12.0866C9.79616 12.0853 9.79721 12.0839 9.79792 12.0822C9.79864 12.0806 9.79901 12.0788 9.799 12.077V12.041C9.79914 12.0392 9.7989 12.0374 9.79831 12.0357C9.79772 12.034 9.79679 12.0325 9.79556 12.0312C9.79434 12.0298 9.79286 12.0288 9.79122 12.0281C9.78957 12.0274 9.78779 12.027 9.786 12.027ZM9.756 11.904V11.939L9.807 11.921L9.756 11.904ZM9.849 11.098H9.769L9.743 11.02C9.74266 11.0187 9.74205 11.0174 9.74119 11.0163C9.74034 11.0152 9.73927 11.0143 9.73804 11.0136C9.73682 11.013 9.73547 11.0126 9.73409 11.0125C9.7327 11.0124 9.73131 11.0125 9.73 11.013L9.723 11.02L9.697 11.097H9.617C9.61555 11.0971 9.61415 11.0975 9.61286 11.0982C9.61157 11.0989 9.61043 11.0998 9.6095 11.1009C9.60857 11.102 9.60787 11.1033 9.60744 11.1047C9.60701 11.1061 9.60686 11.1076 9.607 11.109L9.611 11.118L9.675 11.166L9.651 11.244C9.65037 11.2454 9.65005 11.2469 9.65007 11.2484C9.65009 11.2499 9.65045 11.2513 9.65112 11.2527C9.6518 11.254 9.65276 11.2552 9.65395 11.2561C9.65515 11.257 9.65653 11.2577 9.658 11.258L9.668 11.256L9.733 11.209L9.798 11.256C9.79907 11.257 9.80034 11.2577 9.80171 11.2581C9.80309 11.2585 9.80453 11.2586 9.80596 11.2584C9.80738 11.2582 9.80875 11.2577 9.80996 11.257C9.81118 11.2562 9.81221 11.2552 9.813 11.254L9.815 11.244L9.791 11.166L9.855 11.118C9.85623 11.1171 9.85726 11.116 9.85803 11.1147C9.85881 11.1134 9.8593 11.1119 9.85949 11.1104C9.85968 11.1089 9.85955 11.1074 9.85913 11.106C9.8587 11.1045 9.85797 11.1032 9.857 11.102L9.849 11.098ZM9.65 11.964L9.701 11.946L9.651 11.929L9.65 11.964ZM9.464 11.112L9.384 11.12L9.351 11.046C9.35057 11.0446 9.34985 11.0433 9.34888 11.0423C9.34791 11.0412 9.34672 11.0403 9.34539 11.0398C9.34406 11.0392 9.34262 11.0389 9.34117 11.039C9.33972 11.039 9.3383 11.0394 9.337 11.04L9.331 11.048L9.313 11.128L9.233 11.137C9.23026 11.1375 9.22781 11.139 9.22614 11.1412C9.22447 11.1435 9.2237 11.1462 9.224 11.149L9.229 11.157L9.299 11.199L9.282 11.279C9.28154 11.2805 9.28142 11.282 9.28165 11.2835C9.28187 11.285 9.28244 11.2865 9.28331 11.2877C9.28418 11.289 9.28533 11.29 9.28666 11.2907C9.28799 11.2915 9.28948 11.2919 9.291 11.292L9.301 11.289L9.361 11.235L9.43 11.275C9.4312 11.2759 9.43259 11.2765 9.43405 11.2767C9.43551 11.277 9.43701 11.277 9.43845 11.2766C9.43989 11.2762 9.44122 11.2755 9.44236 11.2745C9.44349 11.2736 9.44439 11.2724 9.445 11.271V11.261L9.413 11.186L9.473 11.131C9.4749 11.129 9.47595 11.1263 9.47595 11.1235C9.47595 11.1207 9.4749 11.118 9.473 11.116L9.464 11.112ZM9.345 11.419H9.215C9.19193 11.419 9.1698 11.4282 9.15348 11.4445C9.13717 11.4608 9.128 11.4829 9.128 11.506C9.128 11.5291 9.13717 11.5512 9.15348 11.5675C9.1698 11.5838 9.19193 11.593 9.215 11.593H9.345C9.36807 11.593 9.3902 11.5838 9.40652 11.5675C9.42283 11.5512 9.432 11.5291 9.432 11.506C9.432 11.4829 9.42283 11.4608 9.40652 11.4445C9.3902 11.4282 9.36807 11.419 9.345 11.419ZM9.038 11.279L9.084 11.212C9.08514 11.2109 9.08601 11.2096 9.08654 11.2081C9.08707 11.2066 9.08725 11.2051 9.08705 11.2035C9.08686 11.2019 9.0863 11.2004 9.08542 11.1991C9.08454 11.1978 9.08337 11.1968 9.082 11.196L9.072 11.195L8.996 11.22L8.948 11.155C8.94721 11.1538 8.94618 11.1528 8.94496 11.152C8.94375 11.1513 8.94238 11.1508 8.94096 11.1506C8.93953 11.1504 8.93809 11.1505 8.93671 11.1509C8.93534 11.1513 8.93407 11.152 8.933 11.153L8.928 11.162V11.243L8.853 11.27C8.85162 11.2705 8.85034 11.2712 8.84923 11.2721C8.84813 11.2731 8.84723 11.2742 8.84657 11.2755C8.84592 11.2768 8.84554 11.2783 8.84544 11.2797C8.84534 11.2812 8.84553 11.2826 8.846 11.284L8.853 11.291L8.929 11.316L8.931 11.397C8.93086 11.3984 8.93101 11.3998 8.93145 11.4011C8.93189 11.4025 8.93261 11.4037 8.93355 11.4047C8.93449 11.4058 8.93564 11.4066 8.93693 11.4072C8.93821 11.4077 8.9396 11.408 8.941 11.408L8.951 11.404L8.997 11.338L9.074 11.361C9.07531 11.3615 9.0767 11.3616 9.07809 11.3615C9.07947 11.3614 9.08082 11.361 9.08204 11.3604C9.08327 11.3597 9.08434 11.3588 9.08519 11.3577C9.08605 11.3566 9.08666 11.3553 9.087 11.354L9.086 11.344L9.038 11.279ZM9.556 12.991L9.704 12.939L9.556 12.889V12.991ZM9.622 13.023H9.458C9.45292 13.023 9.4479 13.024 9.44322 13.026C9.43855 13.028 9.43431 13.0308 9.43077 13.0345C9.42723 13.0381 9.42445 13.0424 9.4226 13.0472C9.42075 13.0519 9.41987 13.0569 9.42 13.062V13.112C9.41973 13.1172 9.42051 13.1223 9.4223 13.1272C9.42409 13.132 9.42684 13.1364 9.4304 13.1402C9.43395 13.1439 9.43824 13.1469 9.44298 13.1489C9.44773 13.151 9.45284 13.152 9.458 13.152H9.622C9.62712 13.1519 9.63217 13.1507 9.63685 13.1487C9.64153 13.1466 9.64576 13.1436 9.64929 13.1399C9.65282 13.1362 9.65558 13.1318 9.65742 13.127C9.65926 13.1222 9.66013 13.1171 9.66 13.112V13.062C9.66027 13.0568 9.65949 13.0517 9.6577 13.0468C9.65591 13.042 9.65316 13.0376 9.6496 13.0338C9.64605 13.0301 9.64176 13.0271 9.63702 13.0251C9.63227 13.023 9.62716 13.023 9.622 13.023ZM9.622 13.413H9.458C9.45284 13.413 9.44773 13.414 9.44298 13.4161C9.43824 13.4181 9.43395 13.4211 9.4304 13.4248C9.42684 13.4286 9.42409 13.433 9.4223 13.4378C9.42051 13.4427 9.41973 13.4478 9.42 13.453V13.556C9.41987 13.5611 9.42075 13.5661 9.4226 13.5708C9.42445 13.5756 9.42723 13.5799 9.43077 13.5835C9.43431 13.5872 9.43855 13.59 9.44322 13.592C9.4479 13.594 9.45292 13.595 9.458 13.595H9.622C9.63217 13.5947 9.64183 13.5905 9.64893 13.5832C9.65603 13.5759 9.66 13.5662 9.66 13.556V13.452C9.66013 13.4469 9.65925 13.4419 9.6574 13.4372C9.65555 13.4324 9.65277 13.4281 9.64923 13.4245C9.64569 13.4208 9.64145 13.418 9.63678 13.416C9.6321 13.414 9.62708 13.413 9.622 13.413ZM9.622 13.219H9.458C9.45292 13.219 9.4479 13.22 9.44322 13.222C9.43855 13.224 9.43431 13.2268 9.43077 13.2305C9.42723 13.2341 9.42445 13.2384 9.4226 13.2432C9.42075 13.2479 9.41987 13.2529 9.42 13.258V13.333C9.41973 13.3382 9.42051 13.3433 9.4223 13.3482C9.42409 13.353 9.42684 13.3574 9.4304 13.3612C9.43395 13.3649 9.43824 13.3679 9.44298 13.3699C9.44773 13.372 9.45284 13.373 9.458 13.373H9.622C9.62712 13.3729 9.63217 13.3717 9.63685 13.3697C9.64153 13.3676 9.64576 13.3646 9.64929 13.3609C9.65282 13.3572 9.65558 13.3528 9.65742 13.348C9.65926 13.3432 9.66013 13.3381 9.66 13.333V13.258C9.66013 13.2529 9.65925 13.2479 9.6574 13.2432C9.65555 13.2384 9.65277 13.2341 9.64923 13.2305C9.64569 13.2268 9.64145 13.224 9.63678 13.222C9.6321 13.22 9.62708 13.219 9.622 13.219ZM8.65 11.439L8.687 11.366C8.68785 11.3647 8.6884 11.3633 8.6886 11.3618C8.6888 11.3603 8.68866 11.3587 8.68818 11.3573C8.68769 11.3558 8.68689 11.3545 8.68582 11.3534C8.68475 11.3523 8.68344 11.3515 8.682 11.351H8.672L8.6 11.387L8.544 11.328C8.54306 11.3269 8.54191 11.3261 8.54061 11.3255C8.53932 11.3249 8.53792 11.3246 8.5365 11.3246C8.53508 11.3246 8.53368 11.3249 8.53239 11.3255C8.53109 11.3261 8.52994 11.3269 8.529 11.328L8.526 11.338L8.536 11.418L8.464 11.455C8.46148 11.4565 8.45965 11.4589 8.4589 11.4617C8.45815 11.4645 8.45855 11.4675 8.46 11.47L8.467 11.476L8.547 11.49L8.558 11.571C8.55797 11.5725 8.55828 11.574 8.5589 11.5754C8.55952 11.5767 8.56044 11.5779 8.5616 11.5789C8.56275 11.5798 8.5641 11.5805 8.56556 11.5809C8.56701 11.5813 8.56853 11.5813 8.57 11.581L8.578 11.575L8.616 11.503L8.696 11.516C8.69745 11.5161 8.6989 11.516 8.70029 11.5156C8.70168 11.5151 8.70297 11.5144 8.70408 11.5135C8.7052 11.5126 8.70612 11.5114 8.70679 11.5101C8.70746 11.5089 8.70787 11.5074 8.708 11.506L8.705 11.498L8.65 11.439ZM10.333 11.419H10.248C10.2249 11.419 10.2028 11.4282 10.1865 11.4445C10.1702 11.4608 10.161 11.4829 10.161 11.506C10.161 11.5291 10.1702 11.5512 10.1865 11.5675C10.2028 11.5838 10.2249 11.593 10.248 11.593H10.333C10.3561 11.593 10.3782 11.5838 10.3945 11.5675C10.4108 11.5512 10.42 11.5291 10.42 11.506C10.42 11.4829 10.4108 11.4608 10.3945 11.4445C10.3782 11.4282 10.3561 11.419 10.333 11.419ZM10.234 13.413H10.069C10.0638 13.413 10.0587 13.414 10.054 13.4161C10.0492 13.4181 10.045 13.4211 10.0414 13.4248C10.0378 13.4286 10.0351 13.433 10.0333 13.4378C10.0315 13.4427 10.0307 13.4478 10.031 13.453V13.556C10.0309 13.5611 10.0318 13.5661 10.0336 13.5708C10.0355 13.5756 10.0382 13.5799 10.0418 13.5835C10.0453 13.5872 10.0495 13.59 10.0542 13.592C10.0589 13.594 10.0639 13.595 10.069 13.595H10.234C10.2391 13.595 10.2441 13.594 10.2488 13.592C10.2535 13.59 10.2577 13.5872 10.2612 13.5835C10.2648 13.5799 10.2675 13.5756 10.2694 13.5708C10.2712 13.5661 10.2721 13.5611 10.272 13.556V13.452C10.2721 13.4469 10.2712 13.4419 10.2694 13.4372C10.2675 13.4324 10.2648 13.4281 10.2612 13.4245C10.2577 13.4208 10.2535 13.418 10.2488 13.416C10.2441 13.414 10.2391 13.413 10.234 13.413ZM10.234 13.023H10.069C10.0639 13.023 10.0589 13.024 10.0542 13.026C10.0495 13.028 10.0453 13.0308 10.0418 13.0345C10.0382 13.0381 10.0355 13.0424 10.0336 13.0472C10.0318 13.0519 10.0309 13.0569 10.031 13.062V13.112C10.0307 13.1172 10.0315 13.1223 10.0333 13.1272C10.0351 13.132 10.0378 13.1364 10.0414 13.1402C10.045 13.1439 10.0492 13.1469 10.054 13.1489C10.0587 13.151 10.0638 13.152 10.069 13.152H10.234C10.2392 13.152 10.2443 13.151 10.249 13.1489C10.2538 13.1469 10.258 13.1439 10.2616 13.1402C10.2652 13.1364 10.2679 13.132 10.2697 13.1272C10.2715 13.1223 10.2723 13.1172 10.272 13.112V13.062C10.2723 13.0568 10.2715 13.0517 10.2697 13.0468C10.2679 13.042 10.2652 13.0376 10.2616 13.0338C10.258 13.0301 10.2538 13.0271 10.249 13.0251C10.2443 13.023 10.2392 13.023 10.234 13.023ZM10.234 13.219H10.069C10.0639 13.219 10.0589 13.22 10.0542 13.222C10.0495 13.224 10.0453 13.2268 10.0418 13.2305C10.0382 13.2341 10.0355 13.2384 10.0336 13.2432C10.0318 13.2479 10.0309 13.2529 10.031 13.258V13.333C10.0307 13.3382 10.0315 13.3433 10.0333 13.3482C10.0351 13.353 10.0378 13.3574 10.0414 13.3612C10.045 13.3649 10.0492 13.3679 10.054 13.3699C10.0587 13.372 10.0638 13.373 10.069 13.373H10.234C10.2392 13.373 10.2443 13.372 10.249 13.3699C10.2538 13.3679 10.258 13.3649 10.2616 13.3612C10.2652 13.3574 10.2679 13.353 10.2697 13.3482C10.2715 13.3433 10.2723 13.3382 10.272 13.333V13.258C10.2721 13.2529 10.2712 13.2479 10.2694 13.2432C10.2675 13.2384 10.2648 13.2341 10.2612 13.2305C10.2577 13.2268 10.2535 13.224 10.2488 13.222C10.2441 13.22 10.2391 13.219 10.234 13.219ZM10.168 12.991L10.315 12.939L10.168 12.889V12.991ZM11.433 11.21V11.13C11.2563 11.1056 11.0905 11.0302 10.956 10.913C10.8755 10.8561 10.7935 10.8014 10.71 10.749C10.481 10.5909 10.2083 10.5064 9.93 10.507L9.931 10.676H9.531V10.507C9.25241 10.5062 8.98024 10.5907 8.751 10.749C8.656 10.809 8.576 10.864 8.505 10.913C8.37062 11.0296 8.20525 11.1046 8.029 11.129V11.21C7.889 11.242 7.729 11.317 7.729 11.49L8.029 11.389V11.435C8.26623 11.4118 8.49099 11.3177 8.674 11.165C8.742 11.119 8.818 11.065 8.908 11.01C9.06475 10.9051 9.24385 10.8384 9.431 10.815V10.982H10.031V10.815C10.2181 10.8384 10.3972 10.9051 10.554 11.01C10.644 11.066 10.72 11.119 10.787 11.165C10.9703 11.318 11.1954 11.4121 11.433 11.435V11.389L11.733 11.491C11.733 11.317 11.573 11.243 11.433 11.21ZM10.613 11.27L10.538 11.243V11.162C10.5381 11.1606 10.538 11.1592 10.5375 11.1579C10.5371 11.1565 10.5364 11.1553 10.5354 11.1543C10.5345 11.1532 10.5334 11.1524 10.5321 11.1518C10.5308 11.1513 10.5294 11.151 10.528 11.151L10.518 11.155L10.47 11.22L10.394 11.195C10.3926 11.1944 10.3911 11.194 10.3896 11.1941C10.3881 11.1941 10.3867 11.1945 10.3853 11.1951C10.384 11.1958 10.3828 11.1968 10.3819 11.198C10.381 11.1991 10.3803 11.2005 10.38 11.202L10.382 11.212L10.428 11.279L10.38 11.344C10.3789 11.3451 10.3781 11.3465 10.3776 11.3481C10.3772 11.3496 10.3771 11.3512 10.3774 11.3528C10.3777 11.3543 10.3783 11.3558 10.3793 11.3571C10.3803 11.3583 10.3816 11.3593 10.383 11.36L10.393 11.361L10.469 11.338L10.516 11.404C10.5168 11.4052 10.5178 11.4062 10.519 11.407C10.5203 11.4077 10.5216 11.4082 10.523 11.4084C10.5245 11.4086 10.5259 11.4085 10.5273 11.4081C10.5287 11.4077 10.5299 11.407 10.531 11.406L10.535 11.397L10.537 11.316L10.613 11.291C10.6144 11.2905 10.6157 11.2898 10.6168 11.2889C10.6179 11.2879 10.6188 11.2868 10.6194 11.2855C10.6201 11.2842 10.6205 11.2827 10.6206 11.2813C10.6207 11.2798 10.6205 11.2784 10.62 11.277L10.613 11.27ZM11.002 11.455L10.93 11.418L10.94 11.338C10.9405 11.3366 10.9406 11.3352 10.9404 11.3337C10.9403 11.3323 10.9398 11.3309 10.939 11.3296C10.9383 11.3284 10.9372 11.3274 10.936 11.3265C10.9348 11.3257 10.9334 11.3252 10.932 11.325L10.922 11.328L10.866 11.386L10.794 11.351C10.7927 11.3502 10.7913 11.3496 10.7898 11.3494C10.7883 11.3492 10.7867 11.3493 10.7853 11.3498C10.7838 11.3503 10.7825 11.3511 10.7814 11.3522C10.7803 11.3533 10.7795 11.3546 10.779 11.356V11.366L10.816 11.439L10.761 11.498C10.7591 11.5 10.758 11.5027 10.758 11.5055C10.758 11.5083 10.7591 11.511 10.761 11.513L10.771 11.516L10.85 11.503L10.888 11.574C10.8885 11.5753 10.8893 11.5765 10.8903 11.5774C10.8914 11.5784 10.8926 11.5791 10.8939 11.5796C10.8952 11.5801 10.8966 11.5803 10.898 11.5802C10.8994 11.5801 10.9008 11.5797 10.902 11.579L10.908 11.571L10.92 11.491L10.999 11.476C11.0018 11.4753 11.0041 11.4735 11.0056 11.4711C11.0071 11.4687 11.0076 11.4658 11.007 11.463L11.002 11.455ZM10.942 11.615H10.867C10.8537 11.615 10.841 11.6203 10.8316 11.6296C10.8223 11.639 10.817 11.6517 10.817 11.665V11.673C10.817 11.6863 10.8223 11.699 10.8316 11.7084C10.841 11.7177 10.8537 11.723 10.867 11.723H10.942C10.9551 11.7227 10.9675 11.7174 10.9767 11.708C10.9859 11.6987 10.991 11.6861 10.991 11.673V11.665C10.991 11.6519 10.9859 11.6393 10.9767 11.63C10.9675 11.6206 10.9551 11.6153 10.942 11.615ZM9.947 13.171H9.744C9.73884 13.171 9.73373 13.172 9.72898 13.1741C9.72424 13.1761 9.71995 13.1791 9.7164 13.1828C9.71284 13.1866 9.71009 13.191 9.7083 13.1958C9.70651 13.2007 9.70573 13.2058 9.706 13.211V13.314C9.70587 13.3191 9.70675 13.3241 9.7086 13.3288C9.71045 13.3336 9.71323 13.3379 9.71677 13.3415C9.72031 13.3452 9.72455 13.348 9.72922 13.35C9.7339 13.352 9.73892 13.353 9.744 13.353H9.947C9.95208 13.353 9.9571 13.352 9.96178 13.35C9.96645 13.348 9.97069 13.3452 9.97423 13.3415C9.97777 13.3379 9.98055 13.3336 9.9824 13.3288C9.98425 13.3241 9.98513 13.3191 9.985 13.314V13.21C9.98513 13.2049 9.98425 13.1999 9.9824 13.1952C9.98055 13.1904 9.97777 13.1861 9.97423 13.1825C9.97069 13.1788 9.96645 13.176 9.96178 13.174C9.9571 13.172 9.95208 13.171 9.947 13.171ZM9.786 12.174C9.78945 12.174 9.79275 12.1726 9.79519 12.1702C9.79763 12.1678 9.799 12.1644 9.799 12.161V12.125C9.79914 12.1232 9.7989 12.1214 9.79831 12.1197C9.79772 12.118 9.79679 12.1165 9.79556 12.1152C9.79434 12.1138 9.79286 12.1128 9.79122 12.1121C9.78957 12.1114 9.78779 12.111 9.786 12.111H9.716C9.71412 12.1108 9.71224 12.1111 9.71047 12.1118C9.7087 12.1124 9.7071 12.1134 9.70577 12.1148C9.70443 12.1161 9.70341 12.1177 9.70276 12.1195C9.70211 12.1212 9.70185 12.1231 9.702 12.125V12.161C9.702 12.1644 9.70337 12.1678 9.70581 12.1702C9.70825 12.1726 9.71155 12.174 9.715 12.174H9.786ZM10.106 11.235L10.166 11.289C10.1669 11.2901 10.1681 11.2909 10.1694 11.2915C10.1707 11.2921 10.1721 11.2924 10.1735 11.2924C10.1749 11.2924 10.1763 11.2921 10.1776 11.2915C10.1789 11.2909 10.1801 11.2901 10.181 11.289L10.184 11.279L10.168 11.199L10.237 11.157C10.2395 11.1555 10.2413 11.1531 10.2421 11.1503C10.2428 11.1475 10.2425 11.1445 10.241 11.142L10.233 11.137L10.153 11.127L10.136 11.048C10.1358 11.0466 10.1353 11.0452 10.1345 11.044C10.1336 11.0428 10.1326 11.0417 10.1314 11.041C10.1301 11.0402 10.1287 11.0397 10.1273 11.0396C10.1258 11.0394 10.1244 11.0395 10.123 11.04L10.115 11.046L10.082 11.12L10.002 11.112C9.99925 11.112 9.99659 11.113 9.99456 11.1149C9.99252 11.1167 9.99125 11.1193 9.991 11.122L9.994 11.132L10.054 11.186L10.021 11.261C10.0202 11.2623 10.0196 11.2637 10.0194 11.2652C10.0192 11.2667 10.0193 11.2683 10.0198 11.2697C10.0203 11.2712 10.0211 11.2725 10.0222 11.2736C10.0233 11.2747 10.0246 11.2755 10.026 11.276H10.036L10.106 11.235ZM9.946 13.413H9.744C9.73884 13.413 9.73373 13.414 9.72898 13.4161C9.72424 13.4181 9.71995 13.4211 9.7164 13.4248C9.71284 13.4286 9.71009 13.433 9.7083 13.4378C9.70651 13.4427 9.70573 13.4478 9.706 13.453V13.556C9.70587 13.5611 9.70675 13.5661 9.7086 13.5708C9.71045 13.5756 9.71323 13.5799 9.71677 13.5835C9.72031 13.5872 9.72455 13.59 9.72922 13.592C9.7339 13.594 9.73892 13.595 9.744 13.595H9.947C9.95208 13.595 9.9571 13.594 9.96178 13.592C9.96645 13.59 9.97069 13.5872 9.97423 13.5835C9.97777 13.5799 9.98055 13.5756 9.9824 13.5708C9.98425 13.5661 9.98513 13.5611 9.985 13.556V13.452C9.98513 13.4469 9.98425 13.4419 9.9824 13.4372C9.98055 13.4324 9.97777 13.4281 9.97423 13.4245C9.97069 13.4208 9.96645 13.418 9.96178 13.416C9.9571 13.414 9.95108 13.413 9.946 13.413ZM9.603 12.083C9.60286 12.0848 9.6031 12.0866 9.60369 12.0883C9.60428 12.09 9.60521 12.0915 9.60643 12.0928C9.60766 12.0942 9.60914 12.0952 9.61078 12.0959C9.61243 12.0966 9.61421 12.097 9.616 12.097H9.673C9.6748 12.097 9.67657 12.0966 9.67822 12.0959C9.67986 12.0952 9.68134 12.0942 9.68256 12.0928C9.68379 12.0915 9.68472 12.09 9.68531 12.0883C9.6859 12.0866 9.68614 12.0848 9.686 12.083V12.057C9.686 12.0536 9.68463 12.0502 9.68219 12.0478C9.67975 12.0454 9.67645 12.044 9.673 12.044H9.616C9.61255 12.044 9.60925 12.0454 9.60681 12.0478C9.60437 12.0502 9.603 12.0536 9.603 12.057V12.083ZM9.603 12.161C9.603 12.1644 9.60437 12.1678 9.60681 12.1702C9.60925 12.1726 9.61255 12.174 9.616 12.174H9.673C9.67645 12.174 9.67975 12.1726 9.68219 12.1702C9.68463 12.1678 9.686 12.1644 9.686 12.161V12.125C9.68614 12.1232 9.6859 12.1214 9.68531 12.1197C9.68472 12.118 9.68379 12.1165 9.68256 12.1152C9.68134 12.1138 9.67986 12.1128 9.67822 12.1121C9.67657 12.1114 9.6748 12.111 9.673 12.111H9.616C9.61421 12.111 9.61243 12.1114 9.61078 12.1121C9.60914 12.1128 9.60766 12.1138 9.60643 12.1152C9.60521 12.1165 9.60428 12.118 9.60369 12.1197C9.6031 12.1214 9.60286 12.1232 9.603 12.125V12.161ZM9.603 11.989V12.007C9.603 12.0104 9.60437 12.0138 9.60681 12.0162C9.60925 12.0186 9.61255 12.02 9.616 12.02H9.673C9.67645 12.02 9.67975 12.0186 9.68219 12.0162C9.68463 12.0138 9.686 12.0104 9.686 12.007V11.989C9.68614 11.9872 9.6859 11.9854 9.68531 11.9837C9.68472 11.982 9.68379 11.9805 9.68256 11.9792C9.68134 11.9778 9.67986 11.9768 9.67822 11.9761C9.67657 11.9754 9.6748 11.975 9.673 11.975H9.616C9.61421 11.975 9.61243 11.9754 9.61078 11.9761C9.60914 11.9768 9.60766 11.9778 9.60643 11.9792C9.60521 11.9805 9.60428 11.982 9.60369 11.9837C9.6031 11.9854 9.60286 11.9872 9.603 11.989ZM9.862 12.918L10.009 12.866L9.862 12.816V12.918ZM9.947 12.948H9.744C9.73884 12.948 9.73373 12.949 9.72898 12.9511C9.72424 12.9531 9.71995 12.9561 9.7164 12.9598C9.71284 12.9636 9.71009 12.968 9.7083 12.9728C9.70651 12.9777 9.70573 12.9828 9.706 12.988V13.091C9.70573 13.0962 9.70651 13.1013 9.7083 13.1062C9.71009 13.111 9.71284 13.1154 9.7164 13.1192C9.71995 13.1229 9.72424 13.1259 9.72898 13.1279C9.73373 13.13 9.73884 13.131 9.744 13.131H9.947C9.95216 13.131 9.95727 13.13 9.96202 13.1279C9.96676 13.1259 9.97105 13.1229 9.9746 13.1192C9.97816 13.1154 9.98091 13.111 9.9827 13.1062C9.98449 13.1013 9.98527 13.0962 9.985 13.091V12.987C9.985 12.9769 9.981 12.9673 9.97387 12.9601C9.96674 12.953 9.95708 12.949 9.947 12.949V12.948Z"
		fill="#F5F5F5"
	/>
</svg>
