<svg viewBox="0 0 36 24" fill="none" xmlns="http://www.w3.org/2000/svg">
	<path
		d="M36 0V4.8H0V0H36ZM0 24H36V19.2H0V24ZM0 9.6H36V14.4H0V9.6Z"
		fill="#41479B"
	/>
	<path d="M36 4.8V9.6H0V4.8H36ZM0 19.2H36V14.4H0V19.2Z" fill="#F5F5F5" />
	<path
		d="M0 24L18.19 12.277C18.236 12.2469 18.2738 12.2058 18.3 12.1575C18.3261 12.1091 18.3398 12.055 18.3398 12C18.3398 11.945 18.3261 11.8909 18.3 11.8425C18.2738 11.7942 18.236 11.7531 18.19 11.723L0 0"
		fill="#FF4B55"
	/>
	<path
		d="M6.224 8.955L6.862 10.899L8.876 10.915C8.91025 10.9161 8.9433 10.9279 8.97063 10.9485C8.99796 10.9692 9.01821 10.9978 9.02862 11.0305C9.03903 11.0631 9.03908 11.0982 9.02876 11.1309C9.01845 11.1636 8.99827 11.1922 8.971 11.213L7.351 12.431L7.958 14.385C7.96872 14.4176 7.96889 14.4527 7.95849 14.4854C7.94808 14.5181 7.92763 14.5467 7.90004 14.567C7.87245 14.5874 7.83914 14.5986 7.80484 14.5989C7.77054 14.5993 7.737 14.5888 7.709 14.569L6.07 13.378L4.432 14.57C4.40395 14.5904 4.37012 14.6014 4.33543 14.6012C4.30074 14.6011 4.26699 14.5899 4.23911 14.5692C4.21122 14.5486 4.19064 14.5196 4.18037 14.4865C4.1701 14.4533 4.17067 14.4178 4.182 14.385L4.79 12.431L3.17 11.214C3.14234 11.1934 3.12179 11.1646 3.11123 11.1318C3.10066 11.0989 3.1006 11.0636 3.11105 11.0307C3.1215 10.9978 3.14195 10.969 3.16954 10.9482C3.19713 10.9275 3.2305 10.9159 3.265 10.915L5.279 10.9L5.916 8.955C5.92606 8.922 5.94646 8.8931 5.97419 8.87257C6.00191 8.85204 6.0355 8.84096 6.07 8.84096C6.1045 8.84096 6.13809 8.85204 6.16581 8.87257C6.19354 8.8931 6.21394 8.922 6.224 8.955Z"
		fill="#F5F5F5"
	/>
</svg>
