<svg viewBox="0 0 36 24" fill="none" xmlns="http://www.w3.org/2000/svg">
	<path d="M36 24H0V0H36" fill="#41479B" />
	<path d="M0 16.421H36V19.579H0V16.421Z" fill="#FFE15A" />
	<path
		d="M11.382 8.14L9.829 9.308L10.411 11.18C10.4238 11.2186 10.424 11.2603 10.4117 11.299C10.3994 11.3378 10.3752 11.3717 10.3425 11.3959C10.3098 11.4201 10.2703 11.4333 10.2296 11.4337C10.1889 11.434 10.1492 11.4216 10.116 11.398L8.546 10.257L6.976 11.398C6.94284 11.4216 6.90309 11.434 6.86241 11.4337C6.82174 11.4333 6.78223 11.4201 6.74951 11.3959C6.7168 11.3717 6.69256 11.3378 6.68026 11.299C6.66796 11.2603 6.66821 11.2186 6.681 11.18L7.263 9.308L5.71 8.14C5.67749 8.1154 5.65341 8.08131 5.64109 8.04244C5.62877 8.00358 5.62881 7.96185 5.64121 7.92301C5.65361 7.88416 5.67775 7.85013 5.71031 7.82559C5.74287 7.80105 5.78225 7.78722 5.823 7.786L7.753 7.771L8.363 5.908C8.37534 5.86914 8.39972 5.83522 8.43262 5.81115C8.46552 5.78707 8.50523 5.77409 8.546 5.77409C8.58677 5.77409 8.62648 5.78707 8.65938 5.81115C8.69228 5.83522 8.71666 5.86914 8.729 5.908L9.339 7.771L11.269 7.786C11.3098 7.78722 11.3491 7.80105 11.3817 7.82559C11.4142 7.85013 11.4384 7.88416 11.4508 7.92301C11.4632 7.96185 11.4632 8.00358 11.4509 8.04244C11.4386 8.08131 11.4145 8.1154 11.382 8.14ZM4.814 4.44L5.712 3.765C5.73085 3.7508 5.74483 3.7311 5.75201 3.70862C5.75919 3.68614 5.75921 3.66198 5.75208 3.63949C5.74494 3.61699 5.73101 3.59726 5.71218 3.58303C5.69336 3.56879 5.67059 3.56074 5.647 3.56L4.53 3.55L4.177 2.472C4.17057 2.44882 4.15673 2.42839 4.13758 2.41383C4.11844 2.39928 4.09505 2.39139 4.071 2.39139C4.04695 2.39139 4.02356 2.39928 4.00442 2.41383C3.98527 2.42839 3.97143 2.44882 3.965 2.472L3.612 3.55L2.495 3.559C2.47141 3.55974 2.44864 3.56779 2.42982 3.58203C2.41099 3.59626 2.39706 3.61599 2.38992 3.63849C2.38279 3.66098 2.38281 3.68514 2.38999 3.70762C2.39717 3.7301 2.41115 3.7498 2.43 3.764L3.328 4.439L2.991 5.522C2.98347 5.54441 2.98322 5.56863 2.9903 5.59119C2.99738 5.61375 3.01141 5.63349 3.03039 5.64759C3.04937 5.66168 3.07232 5.66941 3.09596 5.66967C3.11961 5.66992 3.14272 5.66269 3.162 5.649L4.071 4.988L4.979 5.648C4.99819 5.6619 5.0213 5.66936 5.045 5.6693C5.06871 5.66924 5.09178 5.66166 5.1109 5.64765C5.13002 5.63364 5.1442 5.61393 5.15141 5.59136C5.15861 5.56878 5.15847 5.54449 5.151 5.522L4.814 4.44Z"
		fill="#F5F5F5"
	/>
</svg>
