<svg viewBox="0 0 36 24" fill="none" xmlns="http://www.w3.org/2000/svg">
	<path d="M36 24H0V0H36" fill="#73AF00" />
	<path
		d="M36 11.158H17.172V24H15.517V11.158H0V9.474H15.517V0H17.172V9.474H36V11.158Z"
		fill="#FFE15A"
	/>
	<path
		d="M36 12.842H18.828V24H17.172V12.842H0V11.158H17.172V0H18.828V11.158H36V12.842Z"
		fill="#464655"
	/>
	<path
		d="M36 14.526H20.483V24H18.828V14.526H0V12.842H18.828V0H20.483V12.842H36V14.526Z"
		fill="#F5F5F5"
	/>
	<path
		d="M18 5.684C19.2539 5.66216 20.4859 6.01403 21.5391 6.69479C22.5923 7.37554 23.4191 8.35438 23.9141 9.50663C24.4091 10.6589 24.5499 11.9324 24.3187 13.1649C24.0874 14.3975 23.4945 15.5333 22.6155 16.4278C21.7365 17.3222 20.6111 17.9348 19.3828 18.1875C18.1544 18.4402 16.8787 18.3215 15.718 17.8466C14.5573 17.3718 13.5642 16.5622 12.8652 15.521C12.1663 14.4798 11.793 13.2541 11.793 12C11.7786 10.3394 12.4245 8.74103 13.5885 7.55656C14.7525 6.3721 16.3394 5.69852 18 5.684Z"
		fill="#FF4B55"
	/>
	<path
		d="M19.574 10.593C19.574 10.593 18.972 11.193 18.519 10.539L18.376 12.314L18.134 13.789C16.035 12.372 17.154 10.079 17.367 9.688C17.3314 9.67449 17.2969 9.6581 17.264 9.639L17.1 9.256C17.1018 9.11821 17.1574 8.9866 17.255 8.88926C17.3525 8.79191 17.4842 8.73655 17.622 8.735C18.25 8.735 18.762 8.882 19.574 10.593Z"
		fill="#A561CD"
	/>
	<path
		d="M19.51 14.937H16.598C16.5835 14.937 16.5691 14.9341 16.5557 14.9285C16.5423 14.9229 16.5301 14.9148 16.5199 14.9044C16.5096 14.8941 16.5016 14.8819 16.4961 14.8684C16.4906 14.8549 16.4879 14.8405 16.488 14.826V14.606C16.4879 14.5915 16.4906 14.5771 16.4961 14.5636C16.5016 14.5501 16.5096 14.5379 16.5199 14.5276C16.5301 14.5173 16.5423 14.5091 16.5557 14.5035C16.5691 14.4979 16.5835 14.495 16.598 14.495H19.51C19.5245 14.495 19.5389 14.4979 19.5523 14.5035C19.5657 14.5091 19.5779 14.5173 19.5881 14.5276C19.5984 14.5379 19.6064 14.5501 19.6119 14.5636C19.6174 14.5771 19.6201 14.5915 19.62 14.606V14.826C19.6201 14.8405 19.6174 14.8549 19.6119 14.8684C19.6064 14.8819 19.5984 14.8941 19.5881 14.9044C19.5779 14.9148 19.5657 14.9229 19.5523 14.9285C19.5389 14.9341 19.5245 14.937 19.51 14.937Z"
		fill="#B34900"
	/>
	<path
		d="M17.351 9.502C17.381 9.63 17.206 9.757 17.041 9.738C17.0199 9.73447 16.9984 9.73525 16.9776 9.74029C16.9568 9.74533 16.9373 9.75454 16.9202 9.76734C16.9031 9.78015 16.8887 9.79629 16.8781 9.8148C16.8674 9.8333 16.8605 9.85378 16.858 9.875C16.588 9.079 17.235 9.187 17.235 9.187L17.351 9.502ZM18.801 14.517C18.8157 14.5098 18.8282 14.4989 18.8375 14.4854C18.8467 14.4719 18.8523 14.4562 18.8537 14.4399C18.8551 14.4237 18.8523 14.4073 18.8455 14.3924C18.8387 14.3775 18.8282 14.3646 18.815 14.355C18.5337 14.2739 18.2369 14.2618 17.95 14.32C17.805 14.379 17.69 14.429 17.65 14.753C17.6435 14.8053 17.6482 14.8584 17.6637 14.9089C17.6791 14.9593 17.7051 15.0058 17.7399 15.0455C17.7746 15.0851 17.8174 15.117 17.8653 15.139C17.9132 15.161 17.9653 15.1726 18.018 15.173C18.228 15.205 18.766 15.195 18.801 15.085C18.851 14.923 18.586 14.938 18.547 14.797C18.497 14.613 18.699 14.56 18.801 14.517Z"
		fill="#FFE15A"
	/>
	<path
		d="M19.729 14.547C19.729 14.547 19.655 14.475 19.539 14.352C19.4448 14.822 19.3144 15.2841 19.149 15.734C18.7299 15.3498 18.3913 14.8862 18.153 14.37H17.888C17.6091 14.0006 17.4613 13.5488 17.468 13.086L18.044 13.262C18.0771 13.054 18.1545 12.8555 18.271 12.68C18.0522 12.3189 17.9102 11.9165 17.854 11.498C17.8219 11.2517 17.8396 11.0014 17.906 10.762C17.5956 10.7287 17.3037 10.5982 17.072 10.389C17.1556 10.1255 17.2651 9.8709 17.399 9.629L18.289 9.59L18.53 10.406V10.412C18.5671 10.4219 18.6028 10.4367 18.636 10.456C18.965 10.662 19.796 11.528 19.729 14.546V14.547ZM17.679 7.173L17.544 7.606C17.5396 7.61821 17.5392 7.63152 17.543 7.64394C17.5468 7.65636 17.5545 7.66722 17.565 7.67488C17.5755 7.68255 17.5882 7.68661 17.6011 7.68645C17.6141 7.68629 17.6267 7.68192 17.637 7.674L18 7.41L18.363 7.674C18.3733 7.68192 18.3859 7.68629 18.3989 7.68645C18.4118 7.68661 18.4245 7.68255 18.435 7.67488C18.4455 7.66722 18.4532 7.65636 18.457 7.64394C18.4608 7.63152 18.4604 7.61821 18.456 7.606L18.321 7.173L18.681 6.903C18.6913 6.89537 18.6989 6.88471 18.7028 6.87251C18.7067 6.86031 18.7066 6.84719 18.7026 6.83503C18.6987 6.82286 18.691 6.81225 18.6806 6.80471C18.6703 6.79717 18.6578 6.79307 18.645 6.793L18.198 6.789L18.058 6.358C18.0543 6.34562 18.0467 6.33476 18.0364 6.32703C18.026 6.31931 18.0134 6.31514 18.0005 6.31514C17.9876 6.31514 17.975 6.31931 17.9646 6.32703C17.9543 6.33476 17.9467 6.34562 17.943 6.358L17.802 6.788L17.355 6.792C17.3423 6.79227 17.33 6.79652 17.3198 6.80414C17.3096 6.81175 17.302 6.82237 17.2982 6.83449C17.2943 6.84661 17.2944 6.85964 17.2983 6.87174C17.3022 6.88385 17.3098 6.89443 17.32 6.902L17.679 7.173ZM18.645 16.869L18.198 16.866L18.058 16.435C18.0543 16.4226 18.0467 16.4118 18.0364 16.404C18.026 16.3963 18.0134 16.3921 18.0005 16.3921C17.9876 16.3921 17.975 16.3963 17.9646 16.404C17.9543 16.4118 17.9467 16.4226 17.943 16.435L17.802 16.865L17.355 16.869C17.3423 16.8693 17.33 16.8735 17.3198 16.8811C17.3096 16.8888 17.302 16.8994 17.2982 16.9115C17.2943 16.9236 17.2944 16.9366 17.2983 16.9487C17.3022 16.9608 17.3098 16.9714 17.32 16.979L17.68 17.249L17.544 17.683C17.5396 17.6952 17.5392 17.7085 17.543 17.7209C17.5468 17.7334 17.5545 17.7442 17.565 17.7519C17.5755 17.7595 17.5882 17.7636 17.6011 17.7634C17.6141 17.7633 17.6267 17.7589 17.637 17.751L18 17.487L18.363 17.751C18.3733 17.7589 18.3859 17.7633 18.3989 17.7634C18.4118 17.7636 18.4245 17.7595 18.435 17.7519C18.4455 17.7442 18.4532 17.7334 18.457 17.7209C18.4608 17.7085 18.4604 17.6952 18.456 17.683L18.321 17.25L18.681 16.98C18.6913 16.9724 18.6989 16.9617 18.7028 16.9495C18.7067 16.9373 18.7066 16.9242 18.7026 16.912C18.6987 16.8999 18.691 16.8893 18.6806 16.8817C18.6703 16.8742 18.6578 16.8701 18.645 16.87V16.869ZM14.973 8.649C14.9765 8.66116 14.9838 8.6719 14.9937 8.67969C15.0037 8.68747 15.0159 8.6919 15.0285 8.69235C15.0412 8.69279 15.0537 8.68922 15.0642 8.68216C15.0747 8.67509 15.0827 8.66488 15.087 8.653L15.24 8.226L15.686 8.234C15.699 8.23436 15.7117 8.23058 15.7224 8.22319C15.7331 8.21581 15.7411 8.20521 15.7454 8.19294C15.7496 8.18067 15.7498 8.16737 15.746 8.15497C15.7421 8.14257 15.7344 8.13172 15.724 8.124L15.372 7.845L15.517 7.415C15.5213 7.4031 15.5217 7.39016 15.5181 7.37802C15.5146 7.36588 15.5073 7.35517 15.4974 7.34741C15.4874 7.33965 15.4752 7.33523 15.4626 7.3348C15.4499 7.33437 15.4375 7.33794 15.427 7.345L15.057 7.599L14.7 7.326C14.6899 7.31806 14.6774 7.31358 14.6646 7.31324C14.6517 7.3129 14.639 7.31672 14.6285 7.32412C14.618 7.33152 14.6101 7.34211 14.606 7.35434C14.602 7.36656 14.602 7.37977 14.606 7.392L14.73 7.828L14.364 8.088C14.3531 8.09518 14.3447 8.10569 14.3402 8.11798C14.3357 8.13027 14.3353 8.14369 14.339 8.15624C14.3427 8.1688 14.3503 8.17983 14.3607 8.18771C14.3712 8.19559 14.3839 8.1999 14.397 8.2L14.843 8.215L14.973 8.649ZM20.986 16.147L21.132 15.717C21.1365 15.705 21.1371 15.6918 21.1336 15.6794C21.13 15.667 21.1226 15.6561 21.1124 15.6483C21.1022 15.6404 21.0898 15.6361 21.0769 15.6358C21.0641 15.6356 21.0515 15.6395 21.041 15.647L20.671 15.901L20.315 15.628C20.3049 15.6202 20.2926 15.6159 20.2799 15.6156C20.2672 15.6152 20.2547 15.619 20.2443 15.6262C20.2338 15.6334 20.2259 15.6438 20.2217 15.6558C20.2176 15.6678 20.2173 15.6808 20.221 15.693L20.344 16.13L19.978 16.39C19.9671 16.3972 19.9587 16.4077 19.9542 16.42C19.9497 16.4323 19.9493 16.4457 19.953 16.4582C19.9567 16.4708 19.9643 16.4818 19.9747 16.4897C19.9852 16.4976 19.9979 16.5019 20.011 16.502L20.457 16.517L20.587 16.951C20.5904 16.9635 20.5977 16.9746 20.6078 16.9826C20.618 16.9906 20.6305 16.9951 20.6434 16.9954C20.6563 16.9958 20.669 16.9919 20.6796 16.9844C20.6901 16.977 20.698 16.9663 20.702 16.954L20.854 16.527L21.3 16.535C21.313 16.5354 21.3257 16.5316 21.3364 16.5242C21.3471 16.5168 21.3551 16.5062 21.3594 16.4939C21.3636 16.4817 21.3638 16.4684 21.36 16.456C21.3561 16.4436 21.3484 16.4327 21.338 16.425L20.986 16.147ZM13.834 10.187L13.387 10.18L13.25 9.747C13.2461 9.735 13.2384 9.72454 13.2282 9.71713C13.2179 9.70972 13.2056 9.70574 13.193 9.70574C13.1804 9.70574 13.1681 9.70972 13.1578 9.71713C13.1476 9.72454 13.1399 9.735 13.136 9.747L12.99 10.176L12.544 10.175C12.5312 10.1751 12.5187 10.1792 12.5084 10.1867C12.498 10.1943 12.4903 10.2049 12.4864 10.217C12.4824 10.2292 12.4823 10.2423 12.4862 10.2545C12.4901 10.2667 12.4977 10.2774 12.508 10.285L12.864 10.558L12.725 10.99C12.7202 11.0022 12.7194 11.0156 12.7229 11.0282C12.7264 11.0409 12.734 11.052 12.7444 11.0599C12.7548 11.0679 12.7676 11.0722 12.7807 11.0722C12.7938 11.0722 12.8066 11.0679 12.817 11.06L13.183 10.799L13.543 11.067C13.5533 11.0749 13.5659 11.0793 13.5789 11.0794C13.5918 11.0796 13.6045 11.0755 13.615 11.0679C13.6255 11.0602 13.6332 11.0494 13.637 11.0369C13.6408 11.0245 13.6404 11.0112 13.636 10.999L13.506 10.565L13.868 10.299C13.8786 10.2916 13.8865 10.2811 13.8907 10.2689C13.8949 10.2567 13.8952 10.2435 13.8914 10.2311C13.8876 10.2188 13.88 10.208 13.8697 10.2002C13.8594 10.1925 13.8469 10.1872 13.834 10.187ZM23.221 13.397L22.775 13.389L22.638 12.957C22.6342 12.945 22.6266 12.9344 22.6164 12.9269C22.6063 12.9194 22.594 12.9153 22.5814 12.9152C22.5687 12.9151 22.5564 12.919 22.5461 12.9263C22.5358 12.9336 22.528 12.944 22.524 12.956L22.378 13.386L21.932 13.384C21.9191 13.3839 21.9065 13.3878 21.896 13.3953C21.8855 13.4027 21.8776 13.4133 21.8735 13.4255C21.8694 13.4378 21.8693 13.451 21.8731 13.4633C21.877 13.4756 21.8846 13.4863 21.895 13.494L22.252 13.768L22.112 14.2C22.1072 14.2123 22.1066 14.2258 22.1102 14.2384C22.1138 14.2511 22.1215 14.2622 22.1321 14.2701C22.1427 14.2779 22.1556 14.282 22.1687 14.2819C22.1819 14.2817 22.1947 14.2772 22.205 14.269L22.571 14.009L22.931 14.276C22.9412 14.2837 22.9537 14.2879 22.9665 14.2881C22.9793 14.2882 22.9918 14.2843 23.0022 14.2768C23.0126 14.2693 23.0203 14.2587 23.0242 14.2465C23.0282 14.2343 23.0281 14.2211 23.024 14.209L22.894 13.775L23.256 13.508C23.2662 13.5004 23.2738 13.4898 23.2777 13.4777C23.2816 13.4656 23.2817 13.4526 23.2778 13.4405C23.274 13.4284 23.2664 13.4178 23.2562 13.4101C23.246 13.4025 23.2337 13.3973 23.221 13.397ZM21.4 8.09L21.034 7.83L21.158 7.393C21.162 7.38077 21.162 7.36756 21.158 7.35534C21.1539 7.34311 21.146 7.33252 21.1355 7.32512C21.125 7.31772 21.1123 7.3139 21.0994 7.31424C21.0866 7.31458 21.0741 7.31906 21.064 7.327L20.707 7.601L20.337 7.346C20.3265 7.33894 20.3141 7.33537 20.3014 7.3358C20.2888 7.33623 20.2766 7.34065 20.2666 7.34841C20.2567 7.35617 20.2494 7.36688 20.2459 7.37902C20.2423 7.39116 20.2427 7.4041 20.247 7.416L20.392 7.846L20.04 8.126C20.03 8.13385 20.0227 8.14463 20.0191 8.15684C20.0155 8.16905 20.0159 8.18207 20.02 8.19408C20.0242 8.20609 20.0321 8.2165 20.0425 8.22383C20.0529 8.23117 20.0653 8.23507 20.078 8.235L20.525 8.227L20.677 8.654C20.6813 8.66591 20.6892 8.67617 20.6996 8.68332C20.71 8.69047 20.7224 8.69414 20.7351 8.69381C20.7477 8.69348 20.7599 8.68916 20.77 8.68147C20.78 8.67378 20.7874 8.66312 20.791 8.651L20.921 8.216L21.368 8.201C21.3807 8.20041 21.393 8.19584 21.403 8.18794C21.413 8.18004 21.4202 8.16921 21.4238 8.15696C21.4273 8.14472 21.4269 8.13167 21.4226 8.11966C21.4184 8.10765 21.4105 8.09728 21.4 8.09ZM15.786 16.391L15.42 16.131L15.543 15.694C15.5467 15.6818 15.5464 15.6688 15.5423 15.6568C15.5381 15.6448 15.5302 15.6344 15.5197 15.6272C15.5093 15.62 15.4968 15.6162 15.4841 15.6166C15.4714 15.6169 15.4591 15.6212 15.449 15.629L15.093 15.902L14.723 15.647C14.7124 15.6397 14.6998 15.636 14.687 15.6365C14.6742 15.6369 14.6619 15.6414 14.6518 15.6493C14.6418 15.6573 14.6345 15.6682 14.6311 15.6806C14.6277 15.6929 14.6284 15.706 14.633 15.718L14.778 16.148L14.426 16.427C14.4156 16.4347 14.4079 16.4456 14.404 16.458C14.4002 16.4704 14.4004 16.4837 14.4046 16.4959C14.4089 16.5082 14.4169 16.5188 14.4276 16.5262C14.4383 16.5336 14.451 16.5374 14.464 16.537L14.91 16.528L15.062 16.955C15.0663 16.9669 15.0742 16.9772 15.0846 16.9843C15.095 16.9915 15.1074 16.9951 15.1201 16.9948C15.1327 16.9945 15.1449 16.9902 15.155 16.9825C15.165 16.9748 15.1724 16.9641 15.176 16.952L15.306 16.518L15.753 16.503C15.7661 16.5029 15.7788 16.4986 15.7893 16.4907C15.7997 16.4828 15.8073 16.4718 15.811 16.4592C15.8147 16.4467 15.8143 16.4333 15.8098 16.421C15.8053 16.4087 15.7969 16.3982 15.786 16.391ZM22.258 10.566L22.128 11C22.1236 11.0122 22.1232 11.0255 22.127 11.0379C22.1308 11.0504 22.1385 11.0612 22.149 11.0689C22.1595 11.0765 22.1722 11.0806 22.1851 11.0804C22.1981 11.0803 22.2107 11.0759 22.221 11.068L22.581 10.8L22.947 11.06C22.9574 11.0677 22.97 11.0718 22.9829 11.0718C22.9958 11.0718 23.0084 11.0675 23.0187 11.0598C23.0291 11.052 23.0366 11.0412 23.0403 11.0288C23.0439 11.0164 23.0435 11.0031 23.039 10.991L22.9 10.559L23.257 10.286C23.2674 10.2783 23.275 10.2676 23.2789 10.2553C23.2827 10.243 23.2826 10.2298 23.2785 10.2175C23.2744 10.2053 23.2665 10.1947 23.256 10.1873C23.2455 10.1798 23.2329 10.1759 23.22 10.176H22.774L22.628 9.747C22.624 9.73503 22.6162 9.72464 22.6059 9.71732C22.5956 9.71 22.5833 9.70612 22.5706 9.70623C22.558 9.70634 22.5457 9.71044 22.5356 9.71794C22.5254 9.72544 22.5178 9.73596 22.514 9.748L22.377 10.181L21.931 10.189C21.9183 10.1893 21.906 10.1935 21.8958 10.2011C21.8856 10.2088 21.878 10.2194 21.8742 10.2315C21.8703 10.2436 21.8704 10.2566 21.8743 10.2687C21.8782 10.2808 21.8858 10.2914 21.896 10.299L22.258 10.566ZM13.832 13.386H13.386L13.24 12.956C13.2358 12.9441 13.228 12.9337 13.2177 12.9265C13.2073 12.9193 13.1949 12.9155 13.1823 12.9157C13.1696 12.9159 13.1574 12.9201 13.1473 12.9277C13.1372 12.9353 13.1297 12.9459 13.126 12.958L12.989 13.39L12.543 13.398C12.53 13.398 12.5174 13.4021 12.5069 13.4098C12.4964 13.4175 12.4887 13.4283 12.4848 13.4407C12.4809 13.453 12.481 13.4663 12.4852 13.4786C12.4894 13.4909 12.4974 13.5016 12.508 13.509L12.87 13.776L12.74 14.21C12.7359 14.2221 12.7358 14.2353 12.7398 14.2475C12.7437 14.2597 12.7514 14.2703 12.7618 14.2778C12.7722 14.2853 12.7847 14.2892 12.7975 14.2891C12.8103 14.2889 12.8228 14.2847 12.833 14.277L13.193 14.009L13.559 14.27C13.5694 14.2779 13.5822 14.2822 13.5953 14.2822C13.6084 14.2822 13.6212 14.2779 13.6316 14.2699C13.642 14.262 13.6496 14.2509 13.6531 14.2382C13.6566 14.2256 13.6558 14.2122 13.651 14.2L13.512 13.769L13.869 13.495C13.8794 13.4873 13.887 13.4766 13.8909 13.4643C13.8947 13.452 13.8946 13.4388 13.8905 13.4265C13.8864 13.4143 13.8785 13.4037 13.868 13.3963C13.8575 13.3888 13.8449 13.3859 13.832 13.386Z"
		fill="#73AF00"
	/>
</svg>
