<svg viewBox="0 0 36 24" fill="none" xmlns="http://www.w3.org/2000/svg">
	<path d="M36 0V8H0V0H36ZM0 24H36V16H0V24Z" fill="#41479B" />
	<path d="M0 8H36V16H0V8Z" fill="#F5F5F5" />
	<path
		d="M17.985 14.687C17.8575 14.6871 17.7302 14.6781 17.604 14.66C17.4663 14.8094 17.2792 14.9039 17.0773 14.9264C16.8754 14.9488 16.6721 14.8975 16.505 14.782C16.544 14.7013 16.602 14.6313 16.674 14.578C16.6313 14.56 16.5905 14.5379 16.552 14.512C16.607 14.4548 16.6739 14.4105 16.748 14.382C16.6693 14.342 16.593 14.2977 16.519 14.249C16.3476 14.3226 16.1554 14.332 15.9776 14.2754C15.7998 14.2188 15.6484 14.1001 15.551 13.941C15.6129 13.8875 15.6871 13.85 15.767 13.832C15.7372 13.8013 15.7105 13.7678 15.687 13.732C15.7554 13.7039 15.8292 13.6916 15.903 13.696C15.851 13.6327 15.802 13.567 15.756 13.499C15.653 13.507 15.206 13.506 15.033 12.883C15.1036 12.8624 15.1781 12.8597 15.25 12.875C15.2372 12.8386 15.2278 12.8011 15.222 12.763C15.29 12.7658 15.3564 12.7843 15.416 12.817C15.3921 12.7462 15.3711 12.6745 15.353 12.602C15.2126 12.5772 15.087 12.4995 15.0022 12.3849C14.9174 12.2703 14.8797 12.1275 14.897 11.986C14.9633 11.977 15.0308 11.9838 15.094 12.006C15.0907 11.9724 15.0907 11.9386 15.094 11.905C15.1595 11.916 15.2207 11.9447 15.271 11.988L15.27 11.924C15.2701 11.87 15.2718 11.8159 15.275 11.762C15.1674 11.7022 15.0858 11.6044 15.0463 11.4878C15.0067 11.3712 15.012 11.244 15.061 11.131C15.119 11.1407 15.1738 11.164 15.221 11.199C15.2268 11.1699 15.2355 11.1414 15.247 11.114C15.2924 11.1374 15.3317 11.1709 15.362 11.212C15.38 11.1429 15.4007 11.0745 15.424 11.007C15.3542 10.8454 15.3492 10.6632 15.41 10.498L15.528 10.586L15.638 10.536C15.661 10.494 15.687 10.452 15.713 10.411C15.6933 10.3233 15.6913 10.2325 15.7073 10.1441C15.7233 10.0556 15.7568 9.97126 15.806 9.896L15.902 10.008L16.121 9.965L16.139 10.162L16.25 10.212C16.1513 10.3365 16.0153 10.4262 15.862 10.468C15.8304 10.516 15.8004 10.565 15.772 10.615L15.793 10.681L15.913 10.704C15.8415 10.8551 15.7219 10.9782 15.573 11.054C15.5543 11.106 15.5377 11.1587 15.523 11.212C15.5508 11.2079 15.5789 11.2056 15.607 11.205C15.6005 11.2291 15.5918 11.2525 15.581 11.275C15.6324 11.2643 15.6854 11.2637 15.737 11.273C15.6902 11.4564 15.5827 11.6185 15.432 11.733C15.4275 11.7946 15.4252 11.8563 15.425 11.918C15.4542 11.9038 15.4843 11.8914 15.515 11.881C15.5161 11.9094 15.5148 11.9378 15.511 11.966C15.5633 11.937 15.6207 11.9184 15.68 11.911C15.6896 12.1306 15.624 12.3468 15.494 12.524C15.5113 12.5993 15.532 12.6733 15.556 12.746C15.5909 12.7179 15.6284 12.6931 15.668 12.672C15.6766 12.7031 15.6827 12.7349 15.686 12.767C15.7346 12.7266 15.7912 12.697 15.852 12.68C15.9187 12.8975 15.9152 13.1306 15.842 13.346C15.8934 13.4267 15.9491 13.5044 16.009 13.579C16.0338 13.5273 16.064 13.4784 16.099 13.433C16.1215 13.4606 16.1415 13.49 16.159 13.521C16.1902 13.4572 16.2345 13.4006 16.289 13.355C16.4685 13.5626 16.5709 13.8257 16.579 14.1C16.6529 14.1496 16.7293 14.1954 16.808 14.237C16.8088 14.1678 16.8179 14.099 16.835 14.032C16.8697 14.0494 16.9028 14.0699 16.934 14.093C16.9379 14.0161 16.9577 13.9409 16.992 13.872C17.2649 14.0021 17.4825 14.2251 17.606 14.501C17.7314 14.5202 17.8581 14.5299 17.985 14.53V14.687ZM20.75 12.875C20.7628 12.8386 20.7722 12.8011 20.778 12.763C20.71 12.7658 20.6436 12.7843 20.584 12.817C20.6079 12.7465 20.6289 12.6752 20.647 12.603C20.7876 12.5782 20.9133 12.5003 20.9982 12.3855C21.083 12.2707 21.1206 12.1277 21.103 11.986C21.0367 11.977 20.9692 11.9838 20.906 12.006C20.9093 11.9724 20.9093 11.9386 20.906 11.905C20.8405 11.916 20.7793 11.9447 20.729 11.988L20.73 11.924C20.73 11.87 20.728 11.816 20.725 11.762C20.8326 11.7022 20.9142 11.6044 20.9537 11.4878C20.9933 11.3712 20.988 11.244 20.939 11.131C20.881 11.1407 20.8262 11.164 20.779 11.199C20.7732 11.1699 20.7645 11.1414 20.753 11.114C20.7076 11.1374 20.6683 11.1709 20.638 11.212C20.62 11.1429 20.5993 11.0745 20.576 11.007C20.6458 10.8454 20.6508 10.6632 20.59 10.498L20.472 10.586L20.362 10.536C20.3381 10.494 20.3131 10.4527 20.287 10.412C20.3069 10.3241 20.3089 10.2332 20.2929 10.1446C20.2769 10.0559 20.2433 9.97139 20.194 9.896L20.098 10.008L19.879 9.965L19.861 10.162L19.75 10.212C19.8485 10.3364 19.984 10.426 20.137 10.468C20.169 10.516 20.1993 10.565 20.228 10.615L20.207 10.681L20.087 10.704C20.1585 10.8551 20.2781 10.9782 20.427 11.054C20.4457 11.106 20.4623 11.1587 20.477 11.212C20.4492 11.2079 20.4211 11.2056 20.393 11.205C20.3995 11.2291 20.4082 11.2525 20.419 11.275C20.3676 11.2643 20.3146 11.2637 20.263 11.273C20.3098 11.4564 20.4173 11.6185 20.568 11.733C20.572 11.795 20.575 11.856 20.575 11.918C20.5458 11.9038 20.5157 11.8914 20.485 11.881C20.4839 11.9094 20.4852 11.9378 20.489 11.966C20.4367 11.937 20.3793 11.9184 20.32 11.911C20.3104 12.1306 20.376 12.3468 20.506 12.524C20.4887 12.5993 20.468 12.6733 20.444 12.746C20.4091 12.7179 20.3716 12.6931 20.332 12.672C20.3234 12.7031 20.3173 12.7349 20.314 12.767C20.2654 12.7266 20.2088 12.697 20.148 12.68C20.0813 12.8975 20.0848 13.1306 20.158 13.346C20.1066 13.4267 20.0509 13.5044 19.991 13.579C19.9662 13.5273 19.936 13.4784 19.901 13.433C19.8782 13.4605 19.8578 13.49 19.84 13.521C19.8091 13.4573 19.7651 13.4007 19.711 13.355C19.5315 13.5626 19.4291 13.8257 19.421 14.1C19.3471 14.1496 19.2707 14.1954 19.192 14.237C19.1912 14.1678 19.1821 14.099 19.165 14.032C19.1303 14.0494 19.0972 14.0699 19.066 14.093C19.0621 14.0161 19.0423 13.9409 19.008 13.872C18.7351 14.0021 18.5175 14.2251 18.394 14.501C18.2682 14.5202 18.1412 14.5299 18.014 14.53V14.687C18.1418 14.6871 18.2695 14.6781 18.396 14.66C18.5337 14.8094 18.7208 14.9039 18.9227 14.9264C19.1246 14.9488 19.3279 14.8975 19.495 14.782C19.456 14.7013 19.398 14.6313 19.326 14.578C19.3687 14.56 19.4095 14.5379 19.448 14.512C19.393 14.4548 19.3261 14.4105 19.252 14.382C19.3307 14.342 19.407 14.2973 19.481 14.248C19.6523 14.3217 19.8444 14.3312 20.0222 14.2748C20.2 14.2185 20.3515 14.0999 20.449 13.941C20.3871 13.8875 20.3129 13.85 20.233 13.832C20.2628 13.8013 20.2895 13.7678 20.313 13.732C20.2446 13.7039 20.1708 13.6916 20.097 13.696C20.149 13.6327 20.198 13.567 20.244 13.499C20.347 13.507 20.794 13.507 20.967 12.883C20.8964 12.8624 20.8219 12.8596 20.75 12.875Z"
		fill="#50AF69"
	/>
	<path
		d="M18 10.5C18.1255 10.4976 18.2489 10.5327 18.3544 10.6007C18.46 10.6687 18.5428 10.7666 18.5925 10.8819C18.6421 10.9973 18.6563 11.1247 18.6332 11.2481C18.6101 11.3715 18.5508 11.4853 18.4628 11.5748C18.3748 11.6644 18.2621 11.7257 18.1392 11.751C18.0162 11.7762 17.8885 11.7643 17.7723 11.7167C17.6561 11.6691 17.5568 11.5879 17.4869 11.4836C17.417 11.3793 17.3798 11.2565 17.38 11.131C17.3787 10.9651 17.4432 10.8055 17.5595 10.6872C17.6757 10.5689 17.8341 10.5016 18 10.5Z"
		fill="#FFE6E6"
	/>
	<path
		d="M18.126 12.25H19.207L18.871 11.908C18.8554 11.8918 18.8362 11.8795 18.815 11.872L18.698 11.832C18.677 11.825 18.6547 11.823 18.6329 11.8261C18.611 11.8292 18.5902 11.8374 18.572 11.85L18.198 12.103L18.126 12.25Z"
		fill="#FFB750"
	/>
	<path
		d="M17.759 12.31H19.049L18.648 11.9C18.6289 11.8812 18.6056 11.8671 18.58 11.859L18.44 11.811C18.4152 11.8025 18.3887 11.7999 18.3627 11.8034C18.3366 11.8069 18.3118 11.8163 18.29 11.831L17.845 12.134L17.759 12.31Z"
		fill="#FFC455"
	/>
	<path
		d="M17.31 12.375H18.868L18.383 11.882C18.3606 11.8591 18.3332 11.8416 18.303 11.831L18.133 11.773C18.1031 11.763 18.0713 11.7601 18.0401 11.7645C18.0089 11.7688 17.9791 11.7803 17.953 11.798L17.413 12.164L17.31 12.375Z"
		fill="#FFCD55"
	/>
	<path
		d="M16.865 12.434H18.65L18.095 11.869C18.0689 11.8427 18.0371 11.8228 18.002 11.811L17.808 11.745C17.7736 11.7335 17.737 11.7302 17.7011 11.7352C17.6652 11.7403 17.6309 11.7535 17.601 11.774L16.984 12.192L16.865 12.434Z"
		fill="#FFD25A"
	/>
	<path
		d="M17.622 10.248L17.612 10.335C17.7265 10.257 17.8619 10.2152 18.0005 10.2152C18.1391 10.2152 18.2745 10.257 18.389 10.335L18.378 10.248C18.263 10.1817 18.1327 10.1469 18 10.1469C17.8673 10.1469 17.737 10.1817 17.622 10.248Z"
		fill="#9BC800"
	/>
	<path
		d="M17.632 10.169L17.622 10.256C17.7327 10.1776 17.8649 10.1356 18.0005 10.1356C18.1361 10.1356 18.2683 10.1776 18.379 10.256L18.368 10.169C18.2568 10.1023 18.1296 10.067 18 10.067C17.8704 10.067 17.7432 10.1023 17.632 10.169Z"
		fill="#FFB14E"
	/>
	<path
		d="M17.634 10.152L17.627 10.212C17.7355 10.1334 17.866 10.0911 18 10.0911C18.134 10.0911 18.2645 10.1334 18.373 10.212L18.366 10.152C18.2556 10.0852 18.129 10.0499 18 10.0499C17.871 10.0499 17.7444 10.0852 17.634 10.152Z"
		fill="#FF4B55"
	/>
	<path
		d="M17.69 10.092C17.6525 9.62753 17.7608 9.16292 18 8.763V9.75L17.69 10.092ZM20.328 10.974L19.837 11.259C19.936 10.7492 19.8716 10.2211 19.653 9.75L18.763 10.836L19.28 11.685L19.552 12.237L18 13.027L17.998 13.029L16.448 12.24L16.719 11.688C16.942 11.324 17.237 10.838 17.237 10.838L16.347 9.753C16.1282 10.2244 16.0638 10.7528 16.163 11.263L15.673 10.977C15.373 14.025 17.676 13.395 17.975 13.064L17.76 13.393C17.7402 13.4235 17.7314 13.4598 17.7351 13.496C17.7387 13.5322 17.7546 13.566 17.78 13.592L18 13.816L18.22 13.591C18.2452 13.5651 18.2609 13.5314 18.2645 13.4955C18.2682 13.4595 18.2595 13.4234 18.24 13.393L18.015 13.049C18.27 13.377 20.631 14.058 20.328 10.974ZM18.398 10.408L18.388 10.321C18.2695 10.2552 18.1361 10.2206 18.0005 10.2206C17.8649 10.2206 17.7315 10.2552 17.613 10.321L17.602 10.408C17.7202 10.3304 17.8586 10.289 18 10.289C18.1414 10.289 18.2798 10.3304 18.398 10.408ZM18.422 14.178C18.4677 14.2249 18.4932 14.2878 18.493 14.3532C18.4928 14.4186 18.4669 14.4814 18.421 14.528C18.3492 14.5807 18.2676 14.6184 18.181 14.639C18.2447 14.6935 18.2961 14.7609 18.3318 14.8368C18.3674 14.9126 18.3866 14.9952 18.388 15.079C18.3892 15.0899 18.3882 15.101 18.3848 15.1114C18.3815 15.1219 18.376 15.1316 18.3687 15.1398C18.3614 15.148 18.3524 15.1545 18.3424 15.159C18.3324 15.1635 18.3215 15.1658 18.3105 15.1658C18.2995 15.1658 18.2886 15.1635 18.2786 15.159C18.2686 15.1545 18.2596 15.148 18.2523 15.1398C18.245 15.1316 18.2395 15.1219 18.2362 15.1114C18.2328 15.101 18.2318 15.0899 18.233 15.079C18.2279 15.0013 18.204 14.9259 18.1634 14.8594C18.1228 14.7929 18.0668 14.7372 18 14.697C17.9332 14.7371 17.8771 14.7928 17.8365 14.8593C17.7959 14.9259 17.7721 15.0012 17.767 15.079C17.7682 15.0899 17.7672 15.101 17.7638 15.1114C17.7605 15.1219 17.755 15.1316 17.7477 15.1398C17.7404 15.148 17.7314 15.1545 17.7214 15.159C17.7114 15.1635 17.7005 15.1658 17.6895 15.1658C17.6785 15.1658 17.6676 15.1635 17.6576 15.159C17.6476 15.1545 17.6386 15.148 17.6313 15.1398C17.624 15.1316 17.6185 15.1219 17.6152 15.1114C17.6118 15.101 17.6108 15.0899 17.612 15.079C17.6135 14.9951 17.6328 14.9125 17.6687 14.8366C17.7046 14.7608 17.7561 14.6934 17.82 14.639C17.7334 14.6184 17.6518 14.5806 17.58 14.528C17.5339 14.4815 17.5079 14.4188 17.5075 14.3534C17.5072 14.288 17.5325 14.225 17.578 14.178C17.6001 14.1553 17.6266 14.1373 17.6558 14.1249C17.685 14.1126 17.7163 14.1061 17.748 14.106H17.75C17.7817 14.1061 17.813 14.1126 17.8422 14.1249C17.8714 14.1373 17.8979 14.1553 17.92 14.178C17.9557 14.2219 17.9828 14.2721 18 14.326C18.0172 14.2721 18.0444 14.2219 18.08 14.178C18.1252 14.1329 18.1862 14.1071 18.25 14.106C18.2821 14.1059 18.3139 14.1124 18.3435 14.1249C18.373 14.1375 18.3997 14.1549 18.422 14.178ZM17.688 14.416C17.7516 14.4528 17.8204 14.4797 17.892 14.496C17.8755 14.4238 17.8486 14.3544 17.812 14.29C17.8041 14.2818 17.7936 14.2753 17.7831 14.2708C17.7727 14.2663 17.7614 14.264 17.75 14.264C17.7276 14.2676 17.7063 14.2765 17.688 14.29C17.6715 14.3068 17.6623 14.3294 17.6623 14.353C17.6623 14.3766 17.6715 14.3992 17.688 14.416ZM18.312 14.29C18.3041 14.2818 18.2946 14.2753 18.2841 14.2708C18.2737 14.2663 18.2624 14.264 18.251 14.264C18.2394 14.2639 18.228 14.2662 18.2174 14.2707C18.2067 14.2752 18.1971 14.2817 18.189 14.29C18.1524 14.3544 18.1255 14.4238 18.109 14.496C18.1803 14.4797 18.2488 14.4528 18.312 14.416C18.3285 14.3992 18.3377 14.3766 18.3377 14.353C18.3377 14.3294 18.3285 14.3068 18.312 14.29Z"
		fill="#41479B"
	/>
	<path
		d="M18.102 13.393C18.1195 13.4586 18.1167 13.528 18.094 13.592L18 13.816L17.906 13.591C17.8836 13.5273 17.8808 13.4583 17.898 13.393L18 13.026L18.102 13.393ZM16.908 11.379C16.8168 11.0737 16.8186 10.7483 16.913 10.444L16.583 10.041C16.4592 10.309 16.4046 10.6038 16.4243 10.8984C16.4441 11.193 16.5375 11.4779 16.696 11.727L16.908 11.379ZM16.423 11.34L15.99 11.076C15.893 12.953 16.878 13.266 17.604 13.172C17.015 13.092 16.427 12.649 16.423 11.34ZM19.091 11.375L19.304 11.724C19.4625 11.4749 19.5559 11.19 19.5757 10.8954C19.5954 10.6008 19.5408 10.306 19.417 10.038L19.087 10.441C19.181 10.745 19.1823 11.0702 19.091 11.375ZM20.01 11.073L19.577 11.337C19.573 12.647 18.985 13.088 18.396 13.169C19.122 13.262 20.107 12.949 20.01 11.073ZM18 10.816C17.9372 10.8148 17.8755 10.8323 17.8227 10.8664C17.77 10.9004 17.7285 10.9494 17.7037 11.0071C17.6789 11.0648 17.6718 11.1285 17.6834 11.1903C17.695 11.252 17.7247 11.3088 17.7688 11.3536C17.8128 11.3984 17.8692 11.429 17.9307 11.4415C17.9922 11.4541 18.0561 11.4481 18.1142 11.4242C18.1723 11.4003 18.2219 11.3597 18.2568 11.3074C18.2917 11.2552 18.3102 11.1938 18.31 11.131C18.3105 11.0482 18.2782 10.9685 18.2201 10.9094C18.162 10.8504 18.0828 10.8168 18 10.816Z"
		fill="#F5F5F5"
	/>
	<path
		d="M20.121 13.013L15.862 12.991L16.448 12.074H19.565L20.121 13.013Z"
		fill="#5AA0E6"
	/>
	<path
		d="M20.548 10.774C20.5428 10.7652 20.5358 10.7575 20.5275 10.7514C20.5193 10.7453 20.5098 10.741 20.4998 10.7386C20.4898 10.7363 20.4795 10.736 20.4694 10.7378C20.4592 10.7396 20.4496 10.7434 20.441 10.749L19.264 11.498L18.846 10.859L19.81 9.598C19.8223 9.58141 19.8278 9.56069 19.8251 9.54018C19.8225 9.51967 19.8121 9.50097 19.796 9.488C19.7799 9.47542 19.7596 9.46973 19.7393 9.47217C19.7191 9.4746 19.7006 9.48497 19.688 9.501L18.755 10.721L18.065 9.667C18.0576 9.65668 18.0478 9.64827 18.0365 9.64246C18.0252 9.63666 18.0127 9.63364 18 9.63364C17.9873 9.63364 17.9748 9.63666 17.9635 9.64246C17.9522 9.64827 17.9424 9.65668 17.935 9.667L17.244 10.723L16.312 9.504C16.3058 9.49599 16.2981 9.48927 16.2894 9.48423C16.2806 9.47919 16.2709 9.47593 16.2609 9.47463C16.2509 9.47333 16.2407 9.47402 16.2309 9.47666C16.2212 9.47929 16.212 9.48383 16.204 9.49C16.1876 9.503 16.177 9.5219 16.1744 9.54265C16.1718 9.56339 16.1774 9.58434 16.19 9.601L17.153 10.861L16.735 11.5L15.559 10.752C15.5504 10.7464 15.5408 10.7426 15.5306 10.7408C15.5205 10.739 15.5102 10.7393 15.5002 10.7416C15.4902 10.744 15.4807 10.7483 15.4725 10.7544C15.4642 10.7605 15.4572 10.7682 15.452 10.777C15.441 10.7947 15.4374 10.816 15.4419 10.8364C15.4463 10.8567 15.4586 10.8745 15.476 10.886L16.648 11.631L15.763 12.983C15.7554 12.9948 15.751 13.0084 15.7503 13.0225C15.7496 13.0365 15.7526 13.0505 15.759 13.063C15.7655 13.0757 15.7754 13.0864 15.7875 13.0938C15.7997 13.1012 15.8137 13.1051 15.828 13.105H20.172C20.1861 13.1051 20.2 13.1013 20.2122 13.0941C20.2243 13.0868 20.2343 13.0764 20.241 13.064C20.2476 13.0514 20.2507 13.0372 20.25 13.023C20.2493 13.0087 20.2448 12.9949 20.237 12.983L19.35 11.629L20.524 10.883C20.5414 10.8715 20.5537 10.8537 20.5581 10.8334C20.5626 10.813 20.559 10.7917 20.548 10.774ZM18 9.853L18.182 10.131C18.0628 10.0985 17.9372 10.0985 17.818 10.131L18 9.853ZM15.973 12.947L16.231 12.553H18.465L18.055 12.135C18.0697 12.1201 18.078 12.1 18.078 12.079V11.132C18.078 11.1218 18.076 11.1116 18.0721 11.1022C18.0681 11.0927 18.0624 11.0841 18.0552 11.0768C18.0479 11.0696 18.0393 11.0639 18.0299 11.0599C18.0204 11.056 18.0102 11.054 18 11.054C17.9898 11.054 17.9796 11.056 17.9701 11.0599C17.9607 11.0639 17.9521 11.0696 17.9448 11.0768C17.9376 11.0841 17.9319 11.0927 17.9279 11.1022C17.924 11.1116 17.922 11.1218 17.922 11.132V12L17.742 11.816C17.7079 11.7814 17.6661 11.7554 17.62 11.74L17.368 11.654C17.3232 11.6389 17.2755 11.6344 17.2287 11.6408C17.1818 11.6472 17.1371 11.6644 17.098 11.691L16.554 12.06L16.814 11.662L16.824 11.65L16.827 11.644L17.758 10.222C17.9129 10.1593 18.0861 10.1593 18.241 10.222L20.028 12.947H15.973ZM17.767 8.921C17.7669 8.91067 17.7688 8.90042 17.7726 8.89084C17.7765 8.88126 17.7822 8.87255 17.7895 8.8652C17.7967 8.85785 17.8054 8.85201 17.8149 8.84803C17.8244 8.84405 17.8347 8.842 17.845 8.842H17.922V8.605C17.922 8.59476 17.924 8.58461 17.9279 8.57515C17.9319 8.56569 17.9376 8.55709 17.9448 8.54985C17.9521 8.5426 17.9607 8.53686 17.9701 8.53294C17.9796 8.52902 17.9898 8.527 18 8.527C18.0102 8.527 18.0204 8.52902 18.0299 8.53294C18.0393 8.53686 18.0479 8.5426 18.0552 8.54985C18.0624 8.55709 18.0681 8.56569 18.0721 8.57515C18.076 8.58461 18.078 8.59476 18.078 8.605V8.842H18.155C18.176 8.842 18.196 8.85032 18.2109 8.86514C18.2257 8.87995 18.234 8.90005 18.234 8.921C18.234 8.94195 18.2257 8.96205 18.2109 8.97686C18.196 8.99168 18.176 9 18.155 9H17.845C17.8347 9 17.8244 8.99795 17.8149 8.99397C17.8054 8.98999 17.7967 8.98415 17.7895 8.9768C17.7822 8.96945 17.7765 8.96074 17.7726 8.95116C17.7688 8.94158 17.7669 8.93133 17.767 8.921Z"
		fill="#FFE15A"
	/>
	<path
		d="M18.155 11.222L18.105 11.007C18.1007 10.989 18.0905 10.973 18.076 10.9616C18.0614 10.9501 18.0435 10.9439 18.025 10.944H17.909L17.855 11.022C17.8519 11.0265 17.85 11.0316 17.8493 11.037C17.8486 11.0423 17.8492 11.0478 17.8511 11.0529C17.853 11.058 17.856 11.0625 17.86 11.0662C17.864 11.0699 17.8688 11.0726 17.874 11.074L17.878 11.075L17.844 11.221C17.8326 11.2218 17.8219 11.2268 17.8141 11.2352C17.8063 11.2436 17.802 11.2546 17.802 11.266V11.281C17.802 11.2929 17.8067 11.3044 17.8152 11.3128C17.8236 11.3213 17.8351 11.326 17.847 11.326H18.148C18.1539 11.326 18.1598 11.3248 18.1652 11.3226C18.1707 11.3203 18.1756 11.317 18.1798 11.3128C18.184 11.3086 18.1873 11.3037 18.1896 11.2982C18.1918 11.2928 18.193 11.2869 18.193 11.281V11.266C18.1929 11.2554 18.189 11.2451 18.1821 11.237C18.1751 11.229 18.1655 11.2237 18.155 11.222Z"
		fill="#FF4B55"
	/>
</svg>
