<svg viewBox="0 0 36 24" fill="none" xmlns="http://www.w3.org/2000/svg">
	<path d="M36 12H0V0H36V12Z" fill="#FFE15A" />
	<path d="M0 12H36V18H0V12Z" fill="#41479B" />
	<path
		d="M22.534 9.499V15.221C22.5361 15.4484 22.4934 15.674 22.4083 15.8849C22.3232 16.0958 22.1973 16.2878 22.038 16.4501C21.8786 16.6123 21.6889 16.7415 21.4795 16.8304C21.2702 16.9193 21.0454 16.966 20.818 16.968C20.3923 16.9675 19.9823 16.8073 19.669 16.519L18 14.991L16.33 16.519C16.017 16.807 15.6074 16.9672 15.182 16.968C14.9546 16.966 14.7298 16.9193 14.5205 16.8304C14.3111 16.7415 14.1214 16.6123 13.962 16.4501C13.8027 16.2878 13.6768 16.0958 13.5917 15.8849C13.5066 15.674 13.4639 15.4484 13.466 15.221V9.5L14.114 10.065V8.4L18 11.79L21.886 8.4V10.064L22.534 9.499ZM16.273 17.187L16.921 17.407L17.352 16.309H16.921L16.273 17.187ZM18.648 16.309L19.079 17.407L19.727 17.187L19.079 16.309H18.648Z"
		fill="#FFE15A"
	/>
	<path
		d="M13.958 8.42H14.268V10.312H13.958V8.42ZM16.488 17.627L17.352 17.847L17.784 16.309H17.136L16.488 17.627ZM16.92 14.501L15.608 15.703C15.4918 15.8097 15.3398 15.869 15.182 15.869C15.0118 15.8672 14.8493 15.7979 14.7301 15.6764C14.6109 15.555 14.5447 15.3912 14.546 15.221V10.441L15.193 11.005V9.342L15.841 9.907V14.102L16.273 13.705V11.947L16.92 12.511V13.111V10.848L17.568 11.413V13.403L16.92 13.996V14.501ZM15.681 14.752C15.5411 14.7167 15.417 14.6356 15.3286 14.5216C15.2401 14.4076 15.1924 14.2673 15.193 14.123V15.2L15.681 14.752ZM21.729 10.312H22.039V8.42H21.729V10.312ZM18.216 16.309L18.648 17.846L19.511 17.626L18.863 16.309H18.216ZM20.806 11.005L21.454 10.44V15.221C21.4553 15.3914 21.389 15.5553 21.2696 15.6768C21.1501 15.7983 20.9874 15.8674 20.817 15.869C20.6592 15.869 20.5072 15.8097 20.391 15.703L19.079 14.501V13.996L18.432 13.403V11.413L19.079 10.848V13.11V12.511L19.727 11.947V13.705L20.159 14.102V9.907L20.807 9.342L20.806 11.005ZM20.806 14.123C20.8069 14.2673 20.7594 14.4078 20.6711 14.522C20.5828 14.6361 20.4589 14.7175 20.319 14.753L20.807 15.2L20.806 14.123ZM13.311 11.073L13.621 11.391V9.498H13.311V11.073ZM22.376 9.498V11.391L22.686 11.072V9.498H22.376Z"
		fill="#41479B"
	/>
	<path
		d="M19.079 13.996L18.432 13.403V11.413L20.807 9.342L20.806 11.005L21.454 10.44V15.221C21.4553 15.3914 21.389 15.5553 21.2696 15.6768C21.1503 15.7983 20.9882 15.8672 20.818 15.869C20.6602 15.869 20.5072 15.8097 20.391 15.703L19.079 14.501V13.996ZM15.182 15.869C15.3398 15.869 15.4918 15.8097 15.608 15.703L16.92 14.501V13.996L17.568 13.403V11.413L15.193 9.342V11.005L14.546 10.44V15.221C14.5447 15.3912 14.6109 15.555 14.7301 15.6764C14.8493 15.7979 15.0118 15.8672 15.182 15.869ZM36 18H18.847L18.432 16.309H17.568L17.153 18H0V24H36V18Z"
		fill="#FF4B55"
	/>
	<path
		d="M16.477 15.19C16.3971 15.0617 16.2858 14.9558 16.1536 14.8824C16.0214 14.809 15.8727 14.7704 15.7215 14.7704C15.5703 14.7704 15.4216 14.809 15.2894 14.8824C15.1572 14.9558 15.0459 15.0617 14.966 15.19C15.1252 15.2409 15.27 15.329 15.3882 15.4471C15.5065 15.5652 15.5949 15.7099 15.646 15.869C15.6959 16.0103 15.7213 16.1591 15.721 16.309C15.71 16.0661 15.7776 15.8261 15.9138 15.6247C16.05 15.4233 16.2475 15.2712 16.477 15.191V15.19Z"
		fill="#E1E1E1"
	/>
	<path
		d="M15.893 15.884C15.8847 16.0411 15.827 16.1917 15.728 16.314L15.722 16.309C15.6234 16.1865 15.5661 16.036 15.558 15.879L15.893 15.884Z"
		fill="#E1E1E1"
	/>
	<path
		d="M17.795 11.768L18.166 11.526L17.506 10.952C17.4069 10.8652 17.2797 10.8173 17.148 10.817C17.0755 10.8171 17.0038 10.8317 16.937 10.8599C16.8702 10.888 16.8097 10.9292 16.759 10.981L16.057 11.695V11.915L17.137 11.695L17.327 11.792C17.4002 11.8295 17.4821 11.847 17.5642 11.8428C17.6464 11.8386 17.726 11.8128 17.795 11.768Z"
		fill="#F5F5F5"
	/>
	<path
		d="M20.7 15.98H15.3C15.2857 15.9799 15.2716 15.9769 15.2585 15.9713C15.2454 15.9657 15.2335 15.9575 15.2236 15.9473C15.2136 15.9371 15.2058 15.925 15.2005 15.9117C15.1953 15.8984 15.1927 15.8843 15.193 15.87V15.868C15.193 15.8395 15.2042 15.8122 15.2243 15.792C15.2443 15.7718 15.2715 15.7603 15.3 15.76H20.7C20.7285 15.7603 20.7557 15.7718 20.7757 15.792C20.7958 15.8122 20.807 15.8395 20.807 15.868V15.871C20.807 15.8995 20.7958 15.9268 20.7757 15.947C20.7557 15.9672 20.7285 15.9797 20.7 15.98Z"
		fill="#966446"
	/>
	<path
		d="M19.085 16.309H16.915C16.8585 16.3085 16.8027 16.2968 16.7507 16.2747C16.6988 16.2526 16.6517 16.2205 16.6121 16.1802C16.5726 16.1399 16.5413 16.0922 16.5202 16.0399C16.4991 15.9875 16.4885 15.9315 16.489 15.875V15.864C16.4885 15.8075 16.4991 15.7515 16.5202 15.6991C16.5413 15.6468 16.5726 15.5991 16.6121 15.5588C16.6517 15.5185 16.6988 15.4864 16.7507 15.4643C16.8027 15.4422 16.8585 15.4305 16.915 15.43H19.085C19.1415 15.4305 19.1973 15.4422 19.2493 15.4643C19.3012 15.4864 19.3483 15.5185 19.3879 15.5588C19.4274 15.5991 19.4587 15.6468 19.4798 15.6991C19.5009 15.7515 19.5115 15.8075 19.511 15.864V15.874C19.5117 15.9306 19.5012 15.9867 19.4801 16.0392C19.459 16.0917 19.4278 16.1395 19.3882 16.1799C19.3487 16.2203 19.3015 16.2525 19.2495 16.2746C19.1974 16.2968 19.1416 16.3085 19.085 16.309Z"
		fill="#BE915A"
	/>
	<path
		d="M16.057 15.76H15.3C15.2708 15.76 15.2438 15.7716 15.2232 15.7922C15.2026 15.8128 15.191 15.8408 15.191 15.87C15.191 15.8992 15.2029 15.9267 15.2236 15.9473C15.2442 15.9679 15.2708 15.98 15.3 15.98H16.057V15.76Z"
		fill="#B9B9B9"
	/>
	<path
		d="M19.841 8.62C19.7722 8.5361 19.7263 8.43583 19.7077 8.32895C19.6892 8.22206 19.6986 8.11219 19.735 8.01C19.8407 7.99079 19.9496 8.00012 20.0505 8.03704C20.1514 8.07395 20.2406 8.13711 20.309 8.22C20.3675 8.29177 20.4092 8.37573 20.431 8.46571C20.4528 8.55569 20.4542 8.64942 20.435 8.74C20.478 8.814 20.531 8.91 20.589 9.023C20.592 9.007 20.591 8.991 20.595 8.975C20.6187 8.88933 20.6645 8.81142 20.7279 8.7491C20.7913 8.68678 20.8699 8.64225 20.956 8.62C21.0177 8.68473 21.0616 8.76437 21.0833 8.85114C21.1051 8.9379 21.1039 9.02881 21.08 9.115C21.0593 9.18849 21.022 9.25626 20.9711 9.31312C20.9201 9.36997 20.8568 9.4144 20.786 9.443C20.84 9.569 20.894 9.706 20.944 9.85C20.947 9.842 20.947 9.833 20.951 9.825C20.9838 9.74262 21.0378 9.67037 21.1075 9.61558C21.1772 9.56079 21.2602 9.5254 21.348 9.513C21.4022 9.58399 21.4372 9.66781 21.4494 9.75629C21.4617 9.84478 21.4509 9.93493 21.418 10.018C21.3889 10.09 21.3433 10.1541 21.285 10.2053C21.2266 10.2565 21.1571 10.2934 21.082 10.313C21.1617 10.6211 21.2037 10.9378 21.207 11.256H20.991C20.9879 10.9762 20.9524 10.6976 20.885 10.426C20.8173 10.4492 20.7454 10.4571 20.6743 10.4491C20.6033 10.4412 20.5349 10.4176 20.474 10.38C20.3994 10.3327 20.3383 10.2668 20.297 10.1888C20.2556 10.1108 20.2353 10.0233 20.238 9.935C20.3144 9.89249 20.4007 9.87118 20.4881 9.87329C20.5755 9.8754 20.6608 9.90085 20.735 9.947L20.75 9.959C20.7057 9.82939 20.657 9.70131 20.604 9.575C20.5386 9.60771 20.4667 9.62516 20.3936 9.62603C20.3205 9.6269 20.2481 9.61116 20.182 9.58C20.1026 9.54136 20.0348 9.48264 19.9851 9.40967C19.9355 9.33669 19.9058 9.252 19.899 9.164C19.97 9.11338 20.0532 9.08262 20.14 9.07489C20.2269 9.06715 20.3142 9.08272 20.393 9.12C20.3434 9.02335 20.2914 8.92799 20.237 8.834C20.0822 8.81676 19.9402 8.74002 19.841 8.62ZM16.159 8.62C16.2278 8.5361 16.2737 8.43583 16.2923 8.32895C16.3108 8.22206 16.3014 8.11219 16.265 8.01C16.1593 7.99079 16.0504 8.00012 15.9495 8.03704C15.8486 8.07395 15.7594 8.13711 15.691 8.22C15.6325 8.29177 15.5908 8.37573 15.569 8.46571C15.5472 8.55569 15.5458 8.64942 15.565 8.74C15.522 8.814 15.469 8.91 15.411 9.023C15.408 9.007 15.409 8.991 15.405 8.975C15.3812 8.88921 15.3352 8.81122 15.2717 8.74889C15.2081 8.68656 15.1292 8.6421 15.043 8.62C14.9815 8.68483 14.9378 8.76452 14.9162 8.85128C14.8947 8.93803 14.896 9.0289 14.92 9.115C14.9407 9.18849 14.978 9.25626 15.0289 9.31312C15.0799 9.36997 15.1432 9.4144 15.214 9.443C15.1566 9.5768 15.1039 9.71255 15.056 9.85C15.053 9.842 15.053 9.833 15.049 9.825C15.0162 9.74262 14.9622 9.67037 14.8925 9.61558C14.8228 9.56079 14.7398 9.5254 14.652 9.513C14.5978 9.58399 14.5628 9.66781 14.5506 9.75629C14.5383 9.84478 14.5491 9.93493 14.582 10.018C14.6111 10.09 14.6567 10.1541 14.715 10.2053C14.7734 10.2565 14.8429 10.2934 14.918 10.313C14.8383 10.6211 14.7963 10.9378 14.793 11.256H15.009C15.0121 10.9762 15.0476 10.6976 15.115 10.426C15.1827 10.4492 15.2546 10.4571 15.3257 10.4491C15.3967 10.4412 15.4651 10.4176 15.526 10.38C15.6006 10.3327 15.6617 10.2668 15.703 10.1888C15.7444 10.1108 15.7647 10.0233 15.762 9.935C15.6856 9.89249 15.5993 9.87118 15.5119 9.87329C15.4245 9.8754 15.3392 9.90085 15.265 9.947L15.25 9.959C15.296 9.824 15.346 9.696 15.396 9.575C15.4614 9.60771 15.5333 9.62516 15.6064 9.62603C15.6795 9.6269 15.7519 9.61116 15.818 9.58C15.8974 9.54136 15.9652 9.48264 16.0149 9.40967C16.0645 9.33669 16.0942 9.252 16.101 9.164C16.03 9.11338 15.9468 9.08262 15.86 9.07489C15.7731 9.06715 15.6858 9.08272 15.607 9.12C15.667 9.004 15.721 8.906 15.763 8.834C15.9178 8.81676 16.0598 8.74002 16.159 8.62Z"
		fill="#8CB400"
	/>
	<path
		d="M18 8.62C19.192 8.62 20.159 10.095 20.159 11.915C20.159 13.735 19.192 15.21 18 15.21C16.808 15.21 15.841 13.735 15.841 11.915C15.841 10.095 16.808 8.62 18 8.62Z"
		fill="#69C3FF"
	/>
	<path
		d="M16.057 12.794L16.273 14.112L17.352 15.21H18L18.863 14.991L19.727 14.112L19.943 12.794H16.057Z"
		fill="#5AA0E6"
	/>
	<path
		d="M16.057 12.794H19.943L20.159 11.915L19.175 12.082C19.0773 12.0985 18.9772 12.093 18.8819 12.066C18.7866 12.0391 18.6985 11.9912 18.624 11.926L17.506 10.952C17.4069 10.8652 17.2797 10.8173 17.148 10.817C17.0755 10.8171 17.0038 10.8317 16.937 10.8599C16.8702 10.888 16.8097 10.9292 16.759 10.981L16.057 11.696V12.794Z"
		fill="#009B64"
	/>
	<path
		d="M18 15.43C16.69 15.43 15.625 13.853 15.625 11.915C15.625 9.977 16.69 8.4 18 8.4C19.31 8.4 20.375 9.977 20.375 11.915C20.375 13.853 19.309 15.43 18 15.43ZM18 8.84C16.929 8.84 16.057 10.22 16.057 11.915C16.057 13.61 16.929 14.991 18 14.991C19.071 14.991 19.943 13.611 19.943 11.915C19.943 10.219 19.071 8.84 18 8.84Z"
		fill="#FFC88C"
	/>
	<path
		d="M19.727 5.71C18.515 5.489 18.553 6.787 18.615 7.31C18.5743 7.18066 18.4936 7.06757 18.3845 6.98705C18.2754 6.90654 18.1436 6.86275 18.008 6.862H17.992C17.8562 6.86254 17.7242 6.90623 17.6149 6.98676C17.5056 7.06729 17.4247 7.18049 17.384 7.31C17.447 6.788 17.485 5.489 16.273 5.71C14.762 5.984 14.762 6.423 13.034 7.302C13.9518 7.5252 14.8996 7.59948 15.841 7.522C16.1784 7.98655 16.6225 8.36314 17.136 8.62H18.864C19.3775 8.36314 19.8216 7.98655 20.159 7.522C21.1001 7.59938 22.0475 7.5251 22.965 7.302C21.238 6.423 21.238 5.985 19.727 5.71Z"
		fill="#5A4646"
	/>
	<path
		d="M18 7.082C18.0873 7.08041 18.1732 7.10486 18.2466 7.15223C18.32 7.19961 18.3776 7.26776 18.4122 7.348C18.4467 7.42825 18.4566 7.51696 18.4405 7.60283C18.4244 7.6887 18.3832 7.76785 18.322 7.83019C18.2608 7.89252 18.1824 7.93523 18.0968 7.95287C18.0113 7.9705 17.9224 7.96227 17.8415 7.92922C17.7607 7.89616 17.6915 7.83978 17.6427 7.76726C17.594 7.69474 17.568 7.60936 17.568 7.522C17.5675 7.46474 17.5782 7.40794 17.5997 7.35484C17.6211 7.30174 17.6528 7.25338 17.6929 7.21252C17.733 7.17167 17.7808 7.13911 17.8335 7.11671C17.8862 7.09432 17.9427 7.08252 18 7.082Z"
		fill="#E6E1CD"
	/>
	<path
		d="M17.073 7.238L17.885 7.678C17.918 7.69628 17.9562 7.70324 17.9935 7.69783C18.0309 7.69241 18.0655 7.67491 18.092 7.648C18.1253 7.61431 18.1439 7.56886 18.1439 7.5215C18.1439 7.47414 18.1253 7.42869 18.092 7.395L17.568 6.862H17.442C17.3931 6.86239 17.3447 6.87244 17.2996 6.89156C17.2546 6.91068 17.2138 6.9385 17.1795 6.97343C17.1452 7.00836 17.1181 7.0497 17.0999 7.0951C17.0816 7.1405 17.0725 7.18906 17.073 7.238Z"
		fill="#FFD0AF"
	/>
	<path
		d="M17.355 7.302H16.705L16.989 6.962C17.0152 6.93075 17.048 6.9056 17.0849 6.88833C17.1219 6.87106 17.1622 6.86207 17.203 6.862H17.568V7.085C17.5683 7.11323 17.563 7.14124 17.5524 7.16743C17.5418 7.19362 17.5262 7.21747 17.5064 7.23762C17.4867 7.25777 17.4631 7.27382 17.4371 7.28487C17.4111 7.29592 17.3832 7.30174 17.355 7.302Z"
		fill="#FFAF94"
	/>
</svg>
