<svg viewBox="0 0 36 24" fill="none" xmlns="http://www.w3.org/2000/svg">
	<path d="M36 24H1.52588e-05V0H36" fill="#41479B" />
	<path
		d="M23.107 18.551L22.961 18.205H22.96L23.107 18.551ZM24.594 15.356C24.0082 15.7199 23.4778 16.1661 23.019 16.681L23.542 17.213C23.866 16.883 24.132 16.641 24.344 16.463C24.2482 16.834 24.0756 17.1807 23.8374 17.4808C23.5991 17.7808 23.3006 18.0276 22.961 18.205L23.253 18.896C23.8661 18.583 24.376 18.1001 24.7218 17.5049C25.0676 16.9098 25.2347 16.2276 25.203 15.54H24.685L24.594 15.356ZM29.762 16.462C29.972 16.641 30.24 16.884 30.564 17.213L31.087 16.681C30.628 16.166 30.0972 15.7198 29.511 15.356L29.421 15.54H28.903C28.8714 16.2276 29.0384 16.9098 29.3842 17.5049C29.73 18.1001 30.24 18.583 30.853 18.896L31.144 18.205C30.8046 18.0273 30.5062 17.7803 30.2681 17.4801C30.0301 17.1799 29.8576 16.833 29.762 16.462ZM31.146 18.206L31.144 18.205L30.998 18.551L31.146 18.206Z"
		fill="#EB7D4B"
	/>
	<path
		d="M23.107 5.756V11.777C23.0295 13.0405 23.3753 14.2937 24.0898 15.3387C24.8042 16.3837 25.8465 17.1607 27.052 17.547C28.2573 17.1605 29.2994 16.3834 30.0137 15.3385C30.7279 14.2935 31.0736 13.0403 30.996 11.777V5.757L23.107 5.756Z"
		fill="#4173CD"
	/>
	<path
		d="M22.86 5.506V11.777C22.7723 13.0948 23.1303 14.4038 23.8765 15.4935C24.6227 16.5832 25.7137 17.3903 26.974 17.785L27.052 17.812L27.13 17.785C28.3902 17.3901 29.481 16.583 30.2269 15.4933C30.9729 14.4036 31.3308 13.0947 31.243 11.777V5.506H22.86ZM29.678 13.533C29.021 13.533 29.021 14.035 28.364 14.035C27.707 14.035 27.707 13.533 27.049 13.533C26.392 13.533 26.392 14.035 25.735 14.035C25.078 14.035 25.078 13.533 24.421 13.533C23.896 13.533 23.789 13.853 23.432 13.982C23.3318 13.6698 23.255 13.3506 23.202 13.027C23.764 12.98 23.798 12.53 24.421 12.53C25.078 12.53 25.078 13.032 25.735 13.032C26.392 13.032 26.392 12.53 27.049 12.53C27.707 12.53 27.707 13.032 28.364 13.032C29.021 13.032 29.021 12.53 29.678 12.53C30.303 12.53 30.336 12.98 30.901 13.027C30.8481 13.3509 30.7713 13.6705 30.671 13.983C30.311 13.855 30.206 13.533 29.678 13.533ZM30.343 14.793C30.2105 15.0611 30.0553 15.3174 29.879 15.559C29.8131 15.5463 29.7461 15.5399 29.679 15.54C29.021 15.54 29.021 16.042 28.364 16.042C27.707 16.042 27.707 15.54 27.049 15.54C26.392 15.54 26.392 16.042 25.735 16.042C25.078 16.042 25.078 15.54 24.421 15.54C24.3549 15.5401 24.2889 15.5464 24.224 15.559C24.0472 15.3168 23.8917 15.0599 23.759 14.791C23.9394 14.6253 24.1761 14.5345 24.421 14.537C25.078 14.537 25.078 15.038 25.735 15.038C26.392 15.038 26.392 14.537 27.049 14.537C27.707 14.537 27.707 15.038 28.364 15.038C29.021 15.038 29.021 14.537 29.678 14.537C29.9241 14.5349 30.1619 14.6264 30.343 14.793ZM23.743 14.76C23.628 14.5234 23.5294 14.2792 23.448 14.029C23.5295 14.2788 23.6281 14.5227 23.743 14.759V14.76ZM27.052 17.547C26.6525 17.412 26.2668 17.2402 25.9 17.032C26.396 16.955 26.453 16.544 27.05 16.544C27.647 16.544 27.703 16.957 28.203 17.032C27.8365 17.2398 27.4511 17.4122 27.052 17.547ZM30.996 11.777C30.996 11.853 30.996 11.937 30.993 12.027C30.337 12.027 30.336 11.527 29.678 11.527C29.021 11.527 29.021 12.028 28.364 12.028C27.707 12.028 27.707 11.526 27.049 11.526C26.392 11.526 26.392 12.028 25.735 12.028C25.078 12.028 25.078 11.526 24.421 11.526C23.765 11.526 23.763 12.026 23.111 12.028C23.1085 11.9447 23.1072 11.8603 23.107 11.777V5.756L30.997 5.755L30.996 11.777ZM16.301 0H18V1.133L13.067 4.42H18V7.578H13.067L18 10.867V12H16.301L10.551 8.167V12H7.44902V8.167L1.69802 12H1.52588e-05V10.867L4.93302 7.58H1.52588e-05V4.42H4.93302L1.52588e-05 1.133V0H1.69902L7.44902 3.833V0H10.552V3.833L16.301 0Z"
		fill="#F5F5F5"
	/>
	<path
		d="M12.178 7.579L18 11.423V12H17.512L11.038 7.579H12.178ZM5.68802 4.421L1.52588e-05 0.664V0H0.166015L6.82802 4.421H5.68802ZM6.29002 7.58H7.43002L0.738015 12H1.52588e-05V11.73L6.29002 7.58ZM17.245 0H18V0.253L11.692 4.42H10.552L17.245 0ZM9.93102 5.053H18V6.947H9.93102V12H8.06902V6.947H1.52588e-05V5.053H8.06902V0H9.93102V5.053Z"
		fill="#FF4B55"
	/>
	<path
		d="M28.777 7.262H26.657C26.4328 7.26147 26.2157 7.18379 26.042 7.042L25.214 6.368C25.1271 6.297 25.0183 6.25815 24.906 6.258H24.833C24.7677 6.25852 24.7031 6.27193 24.6429 6.29745C24.5827 6.32298 24.5282 6.36012 24.4824 6.40674C24.4366 6.45337 24.4005 6.50858 24.376 6.56919C24.3516 6.62981 24.3394 6.69465 24.34 6.76H23.97C23.8703 6.76 23.7747 6.79961 23.7041 6.87013C23.6336 6.94064 23.594 7.03628 23.594 7.136C23.594 7.23572 23.6336 7.33136 23.7041 7.40187C23.7747 7.47239 23.8703 7.512 23.97 7.512H24.34C24.4059 7.51279 24.4687 7.53965 24.5149 7.58669C24.561 7.63374 24.5865 7.69713 24.586 7.763V9.018C24.5851 9.23842 24.6573 9.45292 24.7911 9.62804C24.925 9.80315 25.1131 9.92902 25.326 9.986V10.774H25.819L26.004 10.021H28.284L28.531 10.272V10.774H28.778V10.021H29.024V10.774H29.271V9.95C29.3461 9.90562 29.4082 9.84243 29.4514 9.76666C29.4945 9.6909 29.5171 9.60519 29.517 9.518V8.014C29.5183 7.81623 29.4412 7.62599 29.3025 7.48502C29.1637 7.34405 28.9748 7.26385 28.777 7.262Z"
		fill="#C8C8C8"
	/>
	<path
		d="M24.34 10.523L24.833 12.028H29.271L29.764 10.523H24.34Z"
		fill="#73AF00"
	/>
	<path
		d="M26.189 11.777L26.929 11.527V12.028L26.189 11.777ZM27.832 11.777L28.572 12.028V11.526L27.832 11.777ZM25.275 12.028V11.526L24.535 11.777L25.275 12.028Z"
		fill="#FF4B55"
	/>
	<path
		d="M24.34 14.316L23.604 14.146L23.658 13.902L25.274 14.274V13.909H24.659V13.659H25.274V12.404H24.659V12.154H25.274L25.275 11.526H25.521V12.153H26.138V12.404H25.521V13.658H26.138V13.909H25.521V14.286H25.819C25.8171 14.5944 25.9295 14.8926 26.1345 15.1231C26.3394 15.3535 26.6225 15.4999 26.929 15.534V13.909H26.312V13.659H26.928V12.404H26.312V12.154H26.928V11.526H27.175V12.153H27.791V12.404H27.175V13.658H27.791V13.909H27.175V15.534C27.4815 15.4999 27.7646 15.3535 27.9696 15.1231C28.1745 14.8926 28.2869 14.5944 28.285 14.286L28.572 14.244V13.909H27.956V13.659H28.572V12.404H27.956V12.154H28.572V11.526H28.819V12.153H29.435V12.404H28.819V13.658H29.435V13.909H28.819V14.209L30.01 14.035V14.787H29.213C29.1074 15.2851 28.833 15.7314 28.4363 16.0505C28.0396 16.3697 27.5449 16.542 27.0358 16.5385C26.5266 16.535 26.0344 16.3558 25.6421 16.0312C25.2499 15.7066 24.9817 15.2565 24.883 14.757L24.34 14.537V14.316ZM30.851 16.442C29.8096 17.3721 28.446 17.8587 27.051 17.798C25.6563 17.8585 24.2932 17.3719 23.252 16.442L22.55 17.147C23.7759 18.2671 25.3926 18.861 27.052 18.801C28.7111 18.8606 30.3273 18.2667 31.553 17.147L30.851 16.442Z"
		fill="#FF965A"
	/>
	<path
		d="M26.312 12.404H27.791V13.396H26.311L26.312 12.404ZM27.956 12.404L27.955 13.396H29.435V12.404H27.956ZM24.659 13.396H26.138V12.404H24.659V13.396Z"
		fill="#FFE15A"
	/>
</svg>
