<svg viewBox="0 0 36 24" fill="none" xmlns="http://www.w3.org/2000/svg">
	<path d="M36 24H0V0H36" fill="#FF4B55" />
	<path d="M32.276 3.79V20.21H3.724V3.79H32.276Z" fill="#FFE15A" />
	<path
		d="M3.724 3.79L18 12L3.724 20.21V3.79ZM18 12L32.276 20.21V3.79L18 12Z"
		fill="#73AF00"
	/>
	<path
		d="M18 9.474C18.5016 9.46526 18.9945 9.60604 19.4158 9.87839C19.8371 10.1507 20.1679 10.5423 20.3659 11.0033C20.5639 11.4643 20.6202 11.9738 20.5276 12.4668C20.4351 12.9599 20.1978 13.4143 19.8461 13.7721C19.4944 14.1299 19.0442 14.3749 18.5528 14.4759C18.0614 14.5769 17.551 14.5293 17.0867 14.3393C16.6224 14.1492 16.2252 13.8253 15.9456 13.4087C15.6661 12.9921 15.5169 12.5017 15.517 12C15.5114 11.3358 15.7698 10.6966 16.2355 10.2229C16.7011 9.74918 17.3358 9.47981 18 9.474Z"
		fill="#FF4B55"
	/>
	<path
		d="M19.87 11.647L18.882 12.389L19.252 13.579C19.2632 13.6123 19.2636 13.6483 19.2531 13.6818C19.2426 13.7153 19.2217 13.7446 19.1935 13.7655C19.1652 13.7864 19.1311 13.7978 19.096 13.7981C19.0609 13.7983 19.0265 13.7875 18.998 13.767L18 13.041L17.002 13.767C16.9735 13.7873 16.9394 13.798 16.9044 13.7978C16.8694 13.7975 16.8355 13.7862 16.8073 13.7655C16.7791 13.7447 16.7583 13.7156 16.7476 13.6823C16.737 13.649 16.7371 13.6132 16.748 13.58L17.118 12.389L16.131 11.647C16.103 11.6259 16.0822 11.5967 16.0716 11.5633C16.0609 11.5299 16.0609 11.494 16.0716 11.4606C16.0822 11.4272 16.103 11.3979 16.131 11.3768C16.1591 11.3558 16.193 11.344 16.228 11.343L17.455 11.333L17.843 10.149C17.8532 10.1153 17.8739 10.0857 17.9022 10.0647C17.9305 10.0437 17.9648 10.0324 18 10.0324C18.0352 10.0324 18.0695 10.0437 18.0978 10.0647C18.1261 10.0857 18.1468 10.1153 18.157 10.149L18.545 11.334L19.772 11.344C19.8068 11.3452 19.8404 11.3571 19.8681 11.3781C19.8959 11.3991 19.9165 11.4282 19.9271 11.4614C19.9377 11.4945 19.9378 11.5302 19.9274 11.5634C19.917 11.5966 19.8966 11.6258 19.869 11.647H19.87ZM17.479 2.162L17.26 2.865C17.2534 2.88466 17.2531 2.90592 17.2593 2.92572C17.2655 2.94552 17.2779 2.96283 17.2945 2.97518C17.3112 2.98752 17.3314 2.99425 17.3521 2.9944C17.3729 2.99455 17.3931 2.9881 17.41 2.976L18 2.547L18.59 2.976C18.6069 2.9881 18.6271 2.99455 18.6479 2.9944C18.6686 2.99425 18.6888 2.98752 18.7055 2.97518C18.7221 2.96283 18.7345 2.94552 18.7407 2.92572C18.7469 2.90592 18.7466 2.88466 18.74 2.865L18.521 2.162L19.104 1.723C19.1206 1.71057 19.1329 1.69328 19.1393 1.67353C19.1456 1.65378 19.1457 1.63254 19.1394 1.61277C19.1331 1.59299 19.1209 1.57565 19.1043 1.56315C19.0878 1.55065 19.0677 1.54361 19.047 1.543L18.322 1.538L18.092 0.838C18.0858 0.818334 18.0735 0.801158 18.0568 0.788966C18.0402 0.776775 18.0201 0.770202 17.9995 0.770202C17.9789 0.770202 17.9588 0.776775 17.9422 0.788966C17.9255 0.801158 17.9132 0.818334 17.907 0.838L17.677 1.538L16.953 1.544C16.9322 1.54441 16.912 1.55131 16.8953 1.56374C16.8786 1.57616 16.8662 1.59349 16.8598 1.61331C16.8534 1.63313 16.8534 1.65445 16.8597 1.67429C16.866 1.69413 16.8783 1.71151 16.895 1.724L17.479 2.162ZM25.645 2.162L25.425 2.865C25.4187 2.88459 25.4187 2.90568 25.425 2.92527C25.4314 2.94485 25.4437 2.96195 25.4603 2.97412C25.4769 2.98629 25.4969 2.99293 25.5175 2.99309C25.5381 2.99325 25.5582 2.98692 25.575 2.975L26.165 2.547L26.755 2.976C26.7718 2.98792 26.7919 2.99425 26.8125 2.99409C26.8331 2.99393 26.8531 2.98729 26.8697 2.97512C26.8863 2.96295 26.8986 2.94585 26.905 2.92627C26.9113 2.90668 26.9113 2.88559 26.905 2.866L26.687 2.162L27.27 1.723C27.2866 1.71057 27.2989 1.69328 27.3053 1.67353C27.3116 1.65378 27.3117 1.63254 27.3054 1.61277C27.2991 1.59299 27.2869 1.57565 27.2703 1.56315C27.2538 1.55065 27.2337 1.54361 27.213 1.543L26.488 1.538L26.258 0.838C26.2518 0.818334 26.2395 0.801158 26.2228 0.788966C26.2062 0.776775 26.1861 0.770202 26.1655 0.770202C26.1449 0.770202 26.1248 0.776775 26.1082 0.788966C26.0915 0.801158 26.0792 0.818334 26.073 0.838L25.843 1.538L25.118 1.544C25.0973 1.54461 25.0772 1.55165 25.0607 1.56415C25.0441 1.57665 25.0319 1.59399 25.0256 1.61377C25.0193 1.63354 25.0194 1.65478 25.0257 1.67453C25.0321 1.69428 25.0444 1.71157 25.061 1.724L25.645 2.162ZM10.88 1.544L10.155 1.538L9.925 0.838C9.91879 0.818334 9.90648 0.801158 9.88984 0.788966C9.87321 0.776775 9.85312 0.770202 9.8325 0.770202C9.81188 0.770202 9.79179 0.776775 9.77516 0.788966C9.75852 0.801158 9.74621 0.818334 9.74 0.838L9.51 1.538L8.786 1.544C8.76518 1.54441 8.74501 1.55131 8.7283 1.56374C8.71159 1.57616 8.69918 1.59349 8.69279 1.61331C8.68641 1.63313 8.68637 1.65445 8.69268 1.67429C8.69899 1.69413 8.71134 1.71151 8.728 1.724L9.312 2.162L9.092 2.865C9.08568 2.88459 9.08569 2.90568 9.09203 2.92527C9.09836 2.94485 9.11071 2.96195 9.12731 2.97412C9.14391 2.98629 9.16393 2.99293 9.18451 2.99309C9.2051 2.99325 9.22521 2.98692 9.242 2.975L9.832 2.547L10.422 2.976C10.4388 2.98792 10.4589 2.99425 10.4795 2.99409C10.5001 2.99393 10.5201 2.98729 10.5367 2.97512C10.5533 2.96295 10.5656 2.94585 10.572 2.92627C10.5783 2.90668 10.5783 2.88559 10.572 2.866L10.354 2.162L10.938 1.723C10.9547 1.71051 10.967 1.69313 10.9733 1.67329C10.9796 1.65345 10.9796 1.63213 10.9732 1.61231C10.9668 1.59249 10.9544 1.57516 10.9377 1.56274C10.921 1.55031 10.9008 1.54341 10.88 1.543V1.544ZM19.046 21.72L18.321 21.714L18.091 21.014C18.0848 20.9943 18.0725 20.9772 18.0558 20.965C18.0392 20.9528 18.0191 20.9462 17.9985 20.9462C17.9779 20.9462 17.9578 20.9528 17.9412 20.965C17.9245 20.9772 17.9122 20.9943 17.906 21.014L17.676 21.714L16.952 21.72C16.9312 21.7204 16.911 21.7273 16.8943 21.7397C16.8776 21.7522 16.8652 21.7695 16.8588 21.7893C16.8524 21.8091 16.8524 21.8304 16.8587 21.8503C16.865 21.8701 16.8773 21.8875 16.894 21.9L17.478 22.338L17.259 23.041C17.2524 23.0607 17.2521 23.0819 17.2583 23.1017C17.2645 23.1215 17.2769 23.1388 17.2935 23.1512C17.3102 23.1635 17.3304 23.1703 17.3511 23.1704C17.3719 23.1705 17.3921 23.1641 17.409 23.152L17.999 22.723L18.589 23.152C18.6059 23.1641 18.6261 23.1705 18.6469 23.1704C18.6676 23.1703 18.6878 23.1635 18.7045 23.1512C18.7211 23.1388 18.7335 23.1215 18.7397 23.1017C18.7459 23.0819 18.7456 23.0607 18.739 23.041L18.52 22.338L19.103 21.899C19.1196 21.8866 19.1319 21.8693 19.1383 21.8495C19.1446 21.8298 19.1447 21.8085 19.1384 21.7888C19.1321 21.769 19.1199 21.7517 19.1033 21.7392C19.0868 21.7267 19.0667 21.7206 19.046 21.72ZM27.212 21.72L26.487 21.714L26.257 21.014C26.2508 20.9943 26.2385 20.9772 26.2218 20.965C26.2052 20.9528 26.1851 20.9462 26.1645 20.9462C26.1439 20.9462 26.1238 20.9528 26.1072 20.965C26.0905 20.9772 26.0782 20.9943 26.072 21.014L25.842 21.714L25.117 21.72C25.0963 21.7206 25.0762 21.7277 25.0597 21.7402C25.0431 21.7527 25.0309 21.77 25.0246 21.7898C25.0183 21.8095 25.0184 21.8308 25.0247 21.8505C25.0311 21.8703 25.0434 21.8876 25.06 21.9L25.644 22.338L25.424 23.041C25.4177 23.0606 25.4177 23.0817 25.424 23.1013C25.4304 23.1209 25.4427 23.1379 25.4593 23.1501C25.4759 23.1623 25.4959 23.1689 25.5165 23.1691C25.5371 23.1692 25.5572 23.1629 25.574 23.151L26.164 22.723L26.754 23.152C26.7708 23.1639 26.7909 23.1702 26.8115 23.1701C26.8321 23.1699 26.8521 23.1633 26.8687 23.1511C26.8853 23.1389 26.8976 23.1219 26.904 23.1023C26.9103 23.0827 26.9103 23.0616 26.904 23.042L26.686 22.338L27.269 21.899C27.2856 21.8866 27.2979 21.8693 27.3043 21.8495C27.3106 21.8298 27.3107 21.8085 27.3044 21.7888C27.2981 21.769 27.2859 21.7517 27.2693 21.7392C27.2528 21.7267 27.2327 21.7206 27.212 21.72ZM10.88 21.72L10.155 21.714L9.925 21.014C9.91879 20.9943 9.90648 20.9772 9.88984 20.965C9.87321 20.9528 9.85312 20.9462 9.8325 20.9462C9.81188 20.9462 9.79179 20.9528 9.77516 20.965C9.75852 20.9772 9.74621 20.9943 9.74 21.014L9.51 21.714L8.786 21.72C8.76518 21.7204 8.74501 21.7273 8.7283 21.7397C8.71159 21.7522 8.69918 21.7695 8.69279 21.7893C8.68641 21.8091 8.68637 21.8304 8.69268 21.8503C8.69899 21.8701 8.71134 21.8875 8.728 21.9L9.312 22.338L9.092 23.041C9.08568 23.0606 9.08569 23.0817 9.09203 23.1013C9.09836 23.1209 9.11071 23.1379 9.12731 23.1501C9.14391 23.1623 9.16393 23.1689 9.18451 23.1691C9.2051 23.1692 9.22521 23.1629 9.242 23.151L9.832 22.723L10.422 23.152C10.4388 23.1639 10.4589 23.1702 10.4795 23.1701C10.5001 23.1699 10.5201 23.1633 10.5367 23.1511C10.5533 23.1389 10.5656 23.1219 10.572 23.1023C10.5783 23.0827 10.5783 23.0616 10.572 23.042L10.354 22.338L10.938 21.899C10.9547 21.8865 10.967 21.8691 10.9733 21.8493C10.9796 21.8294 10.9796 21.8081 10.9732 21.7883C10.9668 21.7685 10.9544 21.7512 10.9377 21.7387C10.921 21.7263 10.9008 21.7204 10.88 21.72ZM9.853 12C9.85485 11.7945 9.81619 11.5906 9.73925 11.4C9.6623 11.2094 9.54857 11.0359 9.40454 10.8893C9.26051 10.7426 9.08902 10.6258 8.89984 10.5455C8.71067 10.4651 8.50752 10.4228 8.302 10.421H6.75V12C6.74474 12.2071 6.78099 12.4131 6.85659 12.6059C6.9322 12.7987 7.04564 12.9745 7.19023 13.1228C7.33482 13.2711 7.50763 13.389 7.69849 13.4695C7.88934 13.5499 8.09437 13.5914 8.3015 13.5914C8.50863 13.5914 8.71366 13.5499 8.90451 13.4695C9.09537 13.389 9.26818 13.2711 9.41277 13.1228C9.55736 12.9745 9.6708 12.7987 9.74641 12.6059C9.82201 12.4131 9.85826 12.2071 9.853 12Z"
		fill="#FFE15A"
	/>
	<path
		d="M9.853 13.579L9 13.411L8.302 12L9.688 12.711L9.853 13.579Z"
		fill="#FF4B55"
	/>
</svg>
