<svg viewBox="0 0 36 24" fill="none" xmlns="http://www.w3.org/2000/svg">
	<path d="M12 0H24V24H12V0Z" fill="#F5F5F5" />
	<path d="M0 0H12V24H0V0ZM24 0V24H36V0H24Z" fill="#82AFFF" />
	<path
		d="M22.296 12.958C22.1632 13.1032 21.9902 13.2056 21.799 13.252C21.6429 13.3023 21.4777 13.3176 21.315 13.297C21.2331 13.4967 21.1337 13.6888 21.018 13.871C21.1429 13.8201 21.2753 13.7901 21.41 13.782C21.6046 13.7586 21.8018 13.7942 21.976 13.884C21.8159 13.9977 21.6253 14.0608 21.429 14.065C21.2608 14.0814 21.0911 14.0588 20.933 13.999C20.7971 14.1953 20.6424 14.3778 20.471 14.544C20.6084 14.5126 20.7502 14.5055 20.89 14.523C21.0861 14.5348 21.2742 14.6052 21.43 14.725C21.2523 14.8082 21.0537 14.8361 20.86 14.805C20.6851 14.7911 20.5162 14.7348 20.368 14.641C20.2296 14.7649 20.0818 14.8779 19.926 14.979C20.0437 14.982 20.1605 15.0011 20.273 15.036C20.464 15.0839 20.6363 15.1877 20.768 15.334C20.5784 15.3831 20.3784 15.374 20.194 15.308C20.0354 15.2639 19.8883 15.1858 19.763 15.079C19.6115 15.1665 19.4537 15.2428 19.291 15.307C19.4004 15.3284 19.5066 15.3637 19.607 15.412C19.7887 15.488 19.9439 15.6161 20.053 15.78C19.8581 15.8003 19.6617 15.7616 19.489 15.669C19.3381 15.6017 19.2037 15.5024 19.095 15.378C18.3835 15.6107 17.6165 15.6107 16.905 15.378C16.7963 15.5024 16.6619 15.6017 16.511 15.669C16.3383 15.7616 16.1419 15.8003 15.947 15.78C16.0561 15.6161 16.2113 15.488 16.393 15.412C16.4934 15.3637 16.5996 15.3284 16.709 15.307C16.5463 15.2427 16.3885 15.1665 16.237 15.079C16.1121 15.186 15.9653 15.2645 15.807 15.309C15.6222 15.3749 15.4218 15.3836 15.232 15.334C15.3637 15.1877 15.536 15.0839 15.727 15.036C15.8395 15.0012 15.9563 14.982 16.074 14.979C15.9182 14.8779 15.7704 14.7649 15.632 14.641C15.4838 14.7348 15.3149 14.7911 15.14 14.805C14.9466 14.8359 14.7484 14.808 14.571 14.725C14.7268 14.6052 14.9149 14.5348 15.111 14.523C15.2505 14.5056 15.392 14.5127 15.529 14.544C15.3576 14.3778 15.2029 14.1953 15.067 13.999C14.9089 14.0588 14.7392 14.0814 14.571 14.065C14.3748 14.0611 14.1842 13.9984 14.024 13.885C14.1981 13.7948 14.3953 13.7589 14.59 13.782C14.7246 13.7901 14.8571 13.8201 14.982 13.871C14.8663 13.6888 14.7669 13.4967 14.685 13.297C14.5223 13.3176 14.3571 13.3023 14.201 13.252C14.0102 13.2054 13.8375 13.103 13.705 12.958C13.8942 12.9076 14.0942 12.9153 14.279 12.98C14.4017 13.0149 14.5183 13.0682 14.625 13.138C14.5471 12.9189 14.4901 12.6929 14.455 12.463C14.2837 12.4443 14.1192 12.3854 13.975 12.291C13.8019 12.196 13.6606 12.052 13.569 11.877C13.7653 11.8777 13.9569 11.9373 14.119 12.048C14.2396 12.12 14.3472 12.212 14.437 12.32C14.4208 12.1812 14.4125 12.0417 14.412 11.902C14.412 11.805 14.417 11.708 14.425 11.612C14.2686 11.5557 14.1265 11.4656 14.009 11.348C13.8591 11.2181 13.7506 11.047 13.697 10.856C13.889 10.8989 14.0638 10.9981 14.199 11.141C14.2944 11.2302 14.3757 11.3334 14.44 11.447C14.4699 11.2056 14.5235 10.9678 14.6 10.737C14.473 10.6239 14.3729 10.4838 14.307 10.327C14.2166 10.1497 14.1798 9.94989 14.201 9.752C14.3634 9.86555 14.4886 10.0245 14.561 10.209C14.6109 10.3182 14.6459 10.4335 14.665 10.552C14.7394 10.3614 14.8297 10.1774 14.935 10.002C14.8379 9.85619 14.7759 9.68982 14.754 9.516C14.714 9.32125 14.7313 9.11907 14.804 8.934C14.9298 9.08762 15.008 9.27459 15.029 9.472C15.0492 9.59431 15.0522 9.71885 15.038 9.842C15.1361 9.69561 15.2447 9.55658 15.363 9.426C15.2934 9.27109 15.2586 9.10281 15.261 8.933C15.2497 8.73468 15.2962 8.53735 15.395 8.365C15.4973 8.53556 15.5477 8.73225 15.54 8.931C15.5419 9.05068 15.5277 9.17006 15.498 9.286C15.6027 9.1827 15.7136 9.08585 15.83 8.996C15.908 8.91331 15.9964 8.84105 16.093 8.781C16.2533 8.66793 16.4439 8.60557 16.64 8.602C16.5509 8.77834 16.4118 8.92445 16.24 9.022C16.1269 9.09528 16.0026 9.14966 15.872 9.183C15.7888 9.25026 15.7087 9.32133 15.632 9.396C15.7397 9.36725 15.8506 9.35246 15.962 9.352C16.1577 9.34039 16.3525 9.38776 16.521 9.488C16.3545 9.5915 16.1609 9.64271 15.965 9.635C15.801 9.64035 15.6378 9.60962 15.487 9.545C15.382 9.6616 15.2851 9.78522 15.197 9.915C15.2962 9.87237 15.4004 9.84214 15.507 9.825C15.6989 9.78443 15.8985 9.80254 16.08 9.877C15.9305 10.0044 15.7462 10.0842 15.551 10.106C15.3951 10.1342 15.2351 10.1298 15.081 10.093C14.9854 10.2525 14.9028 10.4193 14.834 10.592C14.9197 10.5226 15.0138 10.4641 15.114 10.418C15.2874 10.3265 15.4842 10.2892 15.679 10.311C15.569 10.4742 15.4131 10.6012 15.231 10.676C15.0846 10.7483 14.9242 10.7878 14.761 10.792C14.7036 10.9676 14.6601 11.1475 14.631 11.33C14.6777 11.2558 14.7313 11.1862 14.791 11.122C14.9169 10.9707 15.0851 10.8603 15.274 10.805C15.2323 10.9986 15.135 11.1759 14.994 11.315C14.8845 11.4399 14.749 11.5392 14.597 11.606C14.5827 11.7746 14.5804 11.944 14.59 12.113C14.6182 12.0403 14.6524 11.9701 14.692 11.903C14.784 11.7282 14.9256 11.5845 15.099 11.49C15.0987 11.689 15.0403 11.8837 14.931 12.05C14.8526 12.1891 14.7468 12.3109 14.62 12.408C14.6472 12.5961 14.6897 12.7818 14.747 12.963C14.7547 12.8706 14.7714 12.7791 14.797 12.69C14.8418 12.4967 14.9422 12.3208 15.086 12.184C15.1356 12.377 15.1279 12.5803 15.064 12.769C15.0219 12.9325 14.9444 13.0847 14.837 13.215C14.8952 13.3594 14.963 13.4997 15.04 13.635C15.0319 13.5529 15.0309 13.4703 15.037 13.388C15.041 13.1893 15.1028 12.9961 15.215 12.832C15.3035 13.0102 15.3382 13.2104 15.315 13.408C15.307 13.5718 15.2652 13.7322 15.192 13.879C15.2931 14.0271 15.4054 14.1672 15.528 14.298C15.5053 14.2182 15.4896 14.1365 15.481 14.054C15.4502 13.8572 15.4773 13.6557 15.559 13.474C15.6776 13.634 15.7468 13.8252 15.758 14.024C15.7775 14.181 15.7663 14.3403 15.725 14.493C15.8546 14.6107 15.993 14.7183 16.139 14.815C16.0832 14.7181 16.0395 14.6146 16.009 14.507C15.9443 14.3189 15.9356 14.116 15.984 13.923C16.1284 14.0586 16.2299 14.2334 16.276 14.426C16.3274 14.588 16.3428 14.7594 16.321 14.928C16.4701 15.0141 16.6255 15.0886 16.786 15.151C16.7092 15.0587 16.6453 14.9565 16.596 14.847C16.5045 14.6704 16.4662 14.471 16.486 14.273C16.649 14.3854 16.7753 14.5433 16.849 14.727C16.923 14.8792 16.9629 15.0458 16.966 15.215C17.3 15.3232 17.6489 15.3782 18 15.378C18.3511 15.3782 18.7 15.3232 19.034 15.215C19.0374 15.0457 19.0776 14.8791 19.152 14.727C19.2252 14.5435 19.3507 14.3857 19.513 14.273C19.5331 14.4709 19.4952 14.6703 19.404 14.847C19.3547 14.9565 19.2908 15.0587 19.214 15.151C19.3745 15.0886 19.5299 15.0141 19.679 14.928C19.6572 14.7594 19.6726 14.588 19.724 14.426C19.7701 14.2334 19.8716 14.0586 20.016 13.923C20.0644 14.116 20.0557 14.3189 19.991 14.507C19.9605 14.6146 19.9168 14.7181 19.861 14.815C20.007 14.7183 20.1454 14.6107 20.275 14.493C20.2335 14.34 20.2223 14.1803 20.242 14.023C20.2536 13.8249 20.3228 13.6344 20.441 13.475C20.5225 13.6564 20.5496 13.8575 20.519 14.054C20.5104 14.1365 20.4947 14.2182 20.472 14.298C20.5946 14.1672 20.7069 14.0271 20.808 13.879C20.7348 13.7322 20.693 13.5718 20.685 13.408C20.6618 13.2104 20.6965 13.0102 20.785 12.832C20.8975 12.9959 20.9598 13.1892 20.964 13.388C20.9697 13.4703 20.9684 13.5529 20.96 13.635C21.037 13.4997 21.1048 13.3594 21.163 13.215C21.0555 13.0845 20.978 12.9318 20.936 12.768C20.8726 12.5795 20.8653 12.3766 20.915 12.184C21.0588 12.3208 21.1592 12.4967 21.204 12.69C21.2296 12.7791 21.2463 12.8706 21.254 12.963C21.311 12.7817 21.3531 12.5961 21.38 12.408C21.2532 12.3109 21.1474 12.1891 21.069 12.05C20.9597 11.8837 20.9013 11.689 20.901 11.49C21.0744 11.5845 21.216 11.7282 21.308 11.903C21.3477 11.9701 21.3818 12.0403 21.41 12.113C21.4197 11.944 21.4174 11.7746 21.403 11.606C21.2511 11.5395 21.1156 11.4405 21.006 11.316C20.8648 11.1767 20.7674 10.999 20.726 10.805C20.9153 10.8601 21.0838 10.9705 21.21 11.122C21.2697 11.1862 21.3233 11.2558 21.37 11.33C21.3405 11.1478 21.2967 10.9683 21.239 10.793C21.0757 10.7885 20.9153 10.7486 20.769 10.676C20.5869 10.6012 20.431 10.4742 20.321 10.311C20.5158 10.2892 20.7126 10.3265 20.886 10.418C20.9862 10.4641 21.0803 10.5226 21.166 10.592C21.0971 10.4197 21.0145 10.2531 20.919 10.094C20.7649 10.1305 20.6048 10.1346 20.449 10.106C20.2536 10.0839 20.0694 10.0038 19.92 9.876C20.1014 9.80242 20.3006 9.785 20.492 9.826C20.5993 9.84266 20.7041 9.87256 20.804 9.915C20.7159 9.78522 20.619 9.6616 20.514 9.545C20.3632 9.60962 20.2 9.64035 20.036 9.635C19.8401 9.64271 19.6465 9.5915 19.48 9.488C19.6482 9.38796 19.8426 9.34059 20.038 9.352C20.1494 9.35246 20.2603 9.36725 20.368 9.396C20.2913 9.32167 20.2112 9.25092 20.128 9.184C19.9977 9.15024 19.8737 9.09553 19.761 9.022C19.5892 8.92445 19.4501 8.77834 19.361 8.602C19.5572 8.60587 19.7478 8.66857 19.908 8.782C20.0041 8.84182 20.0922 8.91374 20.17 8.996C20.2864 9.08585 20.3973 9.1827 20.502 9.286C20.4723 9.17006 20.4581 9.05068 20.46 8.931C20.4523 8.73225 20.5027 8.53556 20.605 8.365C20.7038 8.53735 20.7503 8.73468 20.739 8.933C20.7417 9.10274 20.7073 9.27102 20.638 9.426C20.7563 9.5569 20.865 9.69627 20.963 9.843C20.9484 9.7199 20.9511 9.59536 20.971 9.473C20.9919 9.27524 21.0701 9.08789 21.196 8.934C21.2688 9.11937 21.2862 9.32193 21.246 9.517C21.2241 9.69082 21.1621 9.85717 21.065 10.003C21.1703 10.1784 21.2606 10.3624 21.335 10.553C21.3543 10.4341 21.3897 10.3184 21.44 10.209C21.5121 10.0247 21.637 9.8657 21.799 9.752C21.8202 9.94989 21.7834 10.1497 21.693 10.327C21.6274 10.4837 21.5277 10.6238 21.401 10.737C21.4772 10.9679 21.5305 11.2057 21.56 11.447C21.624 11.3334 21.705 11.2303 21.8 11.141C21.9356 10.9983 22.1108 10.8994 22.303 10.857C22.2492 11.0477 22.1408 11.2184 21.991 11.348C21.8736 11.4659 21.7315 11.5564 21.575 11.613C21.583 11.708 21.588 11.805 21.588 11.902C21.5878 12.0417 21.5798 12.1812 21.564 12.32C21.6538 12.212 21.7614 12.12 21.882 12.048C22.0442 11.9376 22.2358 11.8784 22.432 11.878C22.34 12.0527 22.1984 12.1964 22.025 12.291C21.8808 12.3854 21.7163 12.4443 21.545 12.463C21.5098 12.6929 21.4529 12.9189 21.375 13.138C21.4817 13.0682 21.5983 13.0149 21.721 12.98C21.9061 12.915 22.1065 12.9074 22.296 12.958Z"
		fill="#73AF00"
	/>
	<path
		d="M21.246 8.512L19.559 10.54L19.253 10.228L19.406 10.072L19.559 10.228L21.246 8.512ZM16.612 10.228L14.925 8.512L16.612 10.54L16.918 10.228L16.765 10.072L16.612 10.228Z"
		fill="#A0A0A0"
	/>
	<path
		d="M20.138 13.504L19.144 12.493C19.422 12.224 19.722 11.94 20.05 11.641C19.7034 11.8743 19.3724 12.1298 19.059 12.406L18.299 11.633L19.253 10.54L19.559 10.228L19.406 10.072L18.086 11.416L16.765 10.072L16.612 10.228L16.918 10.54L17.873 11.633L17.019 12.501C16.7334 12.2534 16.4328 12.0237 16.119 11.813C16.413 12.081 16.6863 12.3373 16.939 12.582L16.033 13.504C15.9922 13.5457 15.9694 13.6017 15.9694 13.66C15.9694 13.7183 15.9922 13.7743 16.033 13.816L16.186 13.972L16.8 13.348L17.226 12.86C17.4593 13.0893 17.6747 13.3053 17.872 13.508C17.552 13.829 17.202 14.196 16.827 14.614L16.979 14.755C17.23 14.475 17.567 14.099 18.002 13.643C18.519 14.178 18.908 14.613 19.19 14.927L19.343 14.786C18.9515 14.3483 18.546 13.9234 18.127 13.512C18.348 13.282 18.594 13.033 18.864 12.767L19.371 13.348L19.985 13.972L20.138 13.816C20.1788 13.7743 20.2016 13.7183 20.2016 13.66C20.2016 13.6017 20.1788 13.5457 20.138 13.504ZM17.997 13.384C17.775 13.1699 17.5483 12.9609 17.317 12.757L18.085 11.877L18.769 12.659C18.538 12.865 18.279 13.106 17.997 13.385V13.384Z"
		fill="#B9B9B9"
	/>
	<path
		d="M16.033 13.816L16.34 14.128L16.251 14.398C16.2087 14.528 16.1368 14.6464 16.041 14.744L15.42 15.376L15.113 14.752L16.033 13.816ZM20.138 13.816L19.831 14.128L19.92 14.398C19.9623 14.528 20.0342 14.6464 20.13 14.744L20.751 15.376L21.058 14.752L20.138 13.816ZM18.154 11.798L19.253 10.54L18.085 11.728L16.918 10.54L18.017 11.798L16.863 12.972C16.8221 13.0136 16.7991 13.0696 16.799 13.128L16.8 13.348L18.085 11.877L19.371 13.348V13.128C19.3712 13.0698 19.3486 13.0138 19.308 12.972L18.154 11.798Z"
		fill="#966446"
	/>
	<path
		d="M16.903 14.684C16.9295 14.7086 16.9452 14.7426 16.9469 14.7787C16.9486 14.8147 16.9361 14.8501 16.912 14.877L16.585 15.242C16.5732 15.2553 16.5589 15.2661 16.5429 15.2737C16.5268 15.2813 16.5094 15.2857 16.4917 15.2864C16.474 15.2872 16.4563 15.2843 16.4396 15.2781C16.423 15.2718 16.4078 15.2623 16.395 15.25C16.369 15.2253 16.3536 15.1915 16.3521 15.1556C16.3506 15.1198 16.3631 15.0848 16.387 15.058L16.714 14.693C16.7258 14.6799 16.74 14.6693 16.7559 14.6617C16.7718 14.6542 16.789 14.6499 16.8066 14.649C16.8242 14.6482 16.8418 14.6508 16.8583 14.6569C16.8749 14.6629 16.89 14.6721 16.903 14.684ZM19.783 15.229L19.456 14.865C19.4442 14.8518 19.4299 14.841 19.4139 14.8334C19.3979 14.8257 19.3806 14.8214 19.3629 14.8205C19.3452 14.8197 19.3275 14.8224 19.3109 14.8285C19.2942 14.8346 19.279 14.8439 19.266 14.856C19.2397 14.8807 19.2241 14.9148 19.2226 14.9509C19.2211 14.9869 19.2338 15.0222 19.258 15.049L19.584 15.413C19.5956 15.4264 19.6098 15.4374 19.6258 15.4452C19.6418 15.453 19.6591 15.4575 19.6769 15.4584C19.6946 15.4594 19.7124 15.4567 19.729 15.4506C19.7457 15.4445 19.761 15.4351 19.774 15.423C19.8006 15.3982 19.8164 15.364 19.8179 15.3276C19.8194 15.2913 19.8065 15.2559 19.782 15.229H19.783Z"
		fill="#FFE15A"
	/>
	<path
		d="M17.487 9.04L17.843 8.86L17.815 9.178L17.487 9.04ZM16.615 14.54C16.536 14.58 16.329 14.698 16.293 14.868C16.2854 14.9095 16.2877 14.9523 16.2997 14.9927C16.3117 15.0332 16.333 15.0703 16.362 15.101C16.3676 15.0852 16.3761 15.0707 16.387 15.058L16.428 15.012C16.4143 14.995 16.4043 14.9755 16.3984 14.9545C16.3926 14.9335 16.3911 14.9116 16.394 14.89C16.416 14.784 16.556 14.69 16.644 14.642L17.034 15.005L17.132 14.897L16.703 14.499L16.615 14.54ZM19.875 15.04C19.84 14.87 19.633 14.75 19.555 14.71L19.466 14.67L19.038 15.068L19.135 15.177L19.526 14.814C19.614 14.861 19.753 14.956 19.776 15.062C19.7788 15.0836 19.7771 15.1056 19.7711 15.1266C19.7651 15.1476 19.7548 15.1671 19.741 15.184L19.782 15.229C19.7933 15.2416 19.8021 15.2572 19.808 15.273C19.8368 15.2422 19.858 15.2051 19.8698 15.1646C19.8816 15.1241 19.8827 15.0814 19.875 15.04Z"
		fill="#FFC855"
	/>
	<path
		d="M18.152 9.044C18.1644 9.01315 18.1708 8.98024 18.171 8.947C18.1707 8.90337 18.1592 8.86054 18.1376 8.8226C18.1161 8.78466 18.0852 8.75285 18.0479 8.7302C18.0106 8.70755 17.9681 8.69481 17.9245 8.69319C17.8809 8.69157 17.8376 8.70112 17.7987 8.72094C17.7599 8.74076 17.7267 8.77019 17.7024 8.80643C17.6781 8.84267 17.6635 8.88452 17.6599 8.92801C17.6563 8.9715 17.6639 9.01518 17.6819 9.05491C17.7 9.09464 17.7279 9.12909 17.763 9.155C17.67 9.913 18.403 9.971 18.683 10.077C18.9765 10.1632 19.2302 10.3504 19.3991 10.6054C19.568 10.8605 19.6413 11.1671 19.606 11.471C19.5496 12.0864 19.3511 12.6804 19.026 13.206L19.481 12.576C19.2152 13.5876 18.7069 14.5191 18 15.29C18.4307 14.8472 18.8191 14.3651 19.16 13.85C18.772 14.779 18.342 15.638 18.342 15.638C18.9271 14.7905 19.3906 13.8651 19.719 12.889C19.9615 12.1665 19.9367 11.381 19.6491 10.6752C19.3616 9.96948 18.8304 9.39131 18.152 9.044Z"
		fill="#69B469"
	/>
	<path
		d="M16.805 12.51V12.162H17.488V12.51H16.805ZM19.195 10.25H17.145C17.1458 10.3412 17.1105 10.4289 17.0468 10.4941C16.9831 10.5593 16.8962 10.5967 16.805 10.598H18.855C18.9462 10.5967 19.0331 10.5593 19.0968 10.4941C19.1605 10.4289 19.1958 10.3412 19.195 10.25ZM16.805 12.858H18.855C18.9462 12.8567 19.0331 12.8193 19.0968 12.7541C19.1605 12.6889 19.1958 12.6012 19.195 12.51H17.145C17.1458 12.6012 17.1105 12.6889 17.0468 12.7541C16.9831 12.8193 16.8962 12.8567 16.805 12.858Z"
		fill="#F4E08F"
	/>
	<path
		d="M17.145 12.51C17.1438 12.5774 17.1237 12.643 17.0854 12.6984C17.0471 12.7539 16.9932 12.7968 16.9305 12.8217C16.8679 12.8467 16.7993 12.8525 16.7333 12.8386C16.6673 12.8247 16.607 12.7915 16.5598 12.7434C16.5126 12.6952 16.4807 12.6342 16.4681 12.5679C16.4555 12.5017 16.4627 12.4332 16.4889 12.3711C16.5151 12.309 16.5591 12.256 16.6154 12.2188C16.6716 12.1816 16.7376 12.1618 16.805 12.162C16.8963 12.1631 16.9835 12.2003 17.0474 12.2655C17.1114 12.3308 17.1458 12.4187 17.145 12.51ZM16.805 10.598C16.8741 10.5992 16.942 10.5798 17 10.5422C17.0581 10.5047 17.1036 10.4507 17.1309 10.3872C17.1581 10.3236 17.1658 10.2534 17.153 10.1855C17.1401 10.1176 17.1074 10.055 17.0589 10.0058C17.0103 9.95654 16.9482 9.92287 16.8805 9.90907C16.8128 9.89526 16.7425 9.90193 16.6786 9.92824C16.6146 9.95455 16.56 9.9993 16.5216 10.0568C16.4832 10.1143 16.4628 10.1819 16.463 10.251C16.4625 10.3423 16.4982 10.4301 16.5623 10.4952C16.6264 10.5602 16.7137 10.5972 16.805 10.598Z"
		fill="#ECD077"
	/>
	<path
		d="M18.854 10.598C18.9429 10.5932 19.0267 10.5545 19.0879 10.4899C19.1492 10.4252 19.1834 10.3396 19.1834 10.2505C19.1834 10.1614 19.1492 10.0758 19.0879 10.0111C19.0267 9.94646 18.9429 9.90777 18.854 9.903H16.804C16.8731 9.90181 16.941 9.92123 16.9991 9.95878C17.0571 9.99633 17.1026 10.0503 17.1299 10.1138C17.1571 10.1774 17.1648 10.2476 17.152 10.3155C17.1391 10.3834 17.1064 10.446 17.0579 10.4952C17.0093 10.5445 16.9472 10.5781 16.8795 10.5919C16.8118 10.6057 16.7415 10.5991 16.6776 10.5728C16.6136 10.5465 16.559 10.5017 16.5206 10.4442C16.4822 10.3867 16.4618 10.3191 16.462 10.25C16.6092 10.9073 16.8219 11.5482 17.097 12.163C17.129 12.2759 17.1445 12.3926 17.145 12.51C17.1454 12.5553 17.1379 12.6002 17.1209 12.6423C17.1039 12.6843 17.0785 12.7218 17.0468 12.7541C17.015 12.7865 16.9775 12.8129 16.9358 12.8306C16.8941 12.8483 16.8493 12.8576 16.804 12.858H18.854C18.8993 12.8576 18.9441 12.8483 18.9858 12.8306C19.0275 12.8129 19.065 12.7865 19.0968 12.7541C19.1285 12.7218 19.1539 12.6843 19.1709 12.6423C19.1879 12.6002 19.1954 12.5553 19.195 12.51C19.0477 11.8531 18.836 11.2125 18.561 10.598H18.854Z"
		fill="#FCF0A8"
	/>
</svg>
