<svg viewBox="0 0 36 24" fill="none" xmlns="http://www.w3.org/2000/svg">
	<path
		d="M36 0V3.344H0V0H36ZM0 12.294H36V8.574H0V12.294ZM0 21.244H36V17.7H0V21.244Z"
		fill="#F5F5F5"
	/>
	<path
		d="M36 3V6.25H0V3H36ZM0 15.23H36V12H0V15.23ZM0 24H36V21H0V24Z"
		fill="#FF4B55"
	/>
	<path d="M36 6V9H0V6H36ZM0 18H36V15H0V18Z" fill="#41479B" />
	<path d="M18 12H0V0H18" fill="#41479B" />
	<path
		d="M18 1.133V0H16.3L10.55 3.833V0H7.449V3.833L1.698 0H0V1.133L4.933 4.42H0V7.58H4.933L0 10.867V12H1.699L7.449 8.167V12H10.552V8.167L16.302 12H18V10.867L13.067 7.58H18V4.421H13.067L18 1.133Z"
		fill="#F5F5F5"
	/>
	<path
		d="M11.692 4.421H10.552L17.245 0H18V0.253L11.692 4.421ZM0 11.736V12H0.738L7.43 7.579H6.29L0 11.736ZM6.828 4.42L0.12 0H0V0.664L5.688 4.421L6.828 4.42ZM11.038 7.578L17.735 12H18V11.425L12.178 7.579L11.038 7.578ZM9.93 0H8.069V5.053H0V6.947H8.069V12H9.931V6.947H18V5.053H9.93V0ZM18 5.053L18.052 6V5.054L18 5.053Z"
		fill="#FF4B55"
	/>
</svg>
