<svg viewBox="0 0 36 24" fill="none" xmlns="http://www.w3.org/2000/svg">
	<path d="M0 8H36V16H0V8Z" fill="#F5F5F5" />
	<path
		d="M36 0V8H0V0H36ZM0 24H36V16H0V24ZM19.014 11.651L18.312 11.646L18.09 10.968C18.0842 10.9487 18.0723 10.9317 18.0561 10.9197C18.0399 10.9076 18.0202 10.9011 18 10.9011C17.9798 10.9011 17.9601 10.9076 17.9439 10.9197C17.9277 10.9317 17.9158 10.9487 17.91 10.968L17.688 11.646L16.986 11.651C16.966 11.6516 16.9466 11.6584 16.9306 11.6704C16.9146 11.6825 16.9027 11.6992 16.8966 11.7182C16.8905 11.7373 16.8904 11.7578 16.8964 11.7769C16.9023 11.796 16.9141 11.8128 16.93 11.825L17.495 12.25L17.283 12.93C17.2763 12.9492 17.2758 12.97 17.2818 12.9894C17.2877 13.0088 17.2998 13.0258 17.3161 13.0379C17.3324 13.05 17.3522 13.0565 17.3725 13.0565C17.3929 13.0566 17.4126 13.0501 17.429 13.038L18 12.623L18.571 13.038C18.5873 13.0495 18.6068 13.0555 18.6267 13.0553C18.6466 13.055 18.666 13.0485 18.682 13.0367C18.6981 13.0249 18.71 13.0083 18.7161 12.9893C18.7222 12.9704 18.7221 12.95 18.716 12.931L18.505 12.25L19.069 11.825C19.0849 11.8129 19.0966 11.7962 19.1026 11.7772C19.1086 11.7581 19.1086 11.7377 19.1026 11.7187C19.0966 11.6997 19.0849 11.683 19.069 11.6708C19.0531 11.6587 19.0339 11.6518 19.014 11.651ZM10.59 13.644L11.155 14.069L10.943 14.749C10.9365 14.768 10.9363 14.7886 10.9422 14.8078C10.9482 14.827 10.9601 14.8438 10.9762 14.8558C10.9923 14.8678 11.0118 14.8744 11.0319 14.8746C11.052 14.8748 11.0716 14.8686 11.088 14.857L11.66 14.442L12.23 14.857C12.2463 14.8689 12.2659 14.8752 12.2861 14.8752C12.3062 14.8752 12.3258 14.8687 12.3421 14.8568C12.3583 14.8449 12.3704 14.8282 12.3765 14.809C12.3826 14.7897 12.3824 14.7691 12.376 14.75L12.164 14.069L12.729 13.644C12.7449 13.6319 12.7566 13.6152 12.7626 13.5962C12.7686 13.5771 12.7686 13.5567 12.7626 13.5377C12.7566 13.5187 12.7449 13.502 12.729 13.4898C12.7131 13.4777 12.6939 13.4708 12.674 13.47L11.972 13.465L11.749 12.787C11.7432 12.7677 11.7313 12.7507 11.7151 12.7387C11.6989 12.7266 11.6792 12.7201 11.659 12.7201C11.6388 12.7201 11.6191 12.7266 11.6029 12.7387C11.5867 12.7507 11.5748 12.7677 11.569 12.787L11.348 13.465L10.646 13.47C10.626 13.4706 10.6066 13.4774 10.5906 13.4894C10.5746 13.5015 10.5627 13.5182 10.5566 13.5372C10.5505 13.5563 10.5504 13.5768 10.5564 13.5959C10.5623 13.615 10.5741 13.6318 10.59 13.644ZM12.674 9.832L11.972 9.827L11.749 9.149C11.7432 9.12967 11.7313 9.11272 11.7151 9.10068C11.6989 9.08863 11.6792 9.08213 11.659 9.08213C11.6388 9.08213 11.6191 9.08863 11.6029 9.10068C11.5867 9.11272 11.5748 9.12967 11.569 9.149L11.348 9.827L10.646 9.833C10.6262 9.83385 10.6072 9.84073 10.5914 9.85271C10.5757 9.86469 10.564 9.88121 10.5579 9.90004C10.5518 9.91887 10.5516 9.93911 10.5573 9.95805C10.5631 9.97699 10.5745 9.99372 10.59 10.006L11.155 10.431L10.943 11.111C10.9365 11.13 10.9363 11.1506 10.9422 11.1698C10.9482 11.189 10.9601 11.2058 10.9762 11.2178C10.9923 11.2298 11.0118 11.2364 11.0319 11.2366C11.052 11.2368 11.0716 11.2306 11.088 11.219L11.66 10.804L12.23 11.219C12.2463 11.2309 12.2659 11.2372 12.2861 11.2372C12.3062 11.2372 12.3258 11.2307 12.3421 11.2188C12.3583 11.2069 12.3704 11.1902 12.3765 11.171C12.3826 11.1517 12.3824 11.1311 12.376 11.112L12.164 10.431L12.729 10.006C12.7449 9.99389 12.7566 9.97718 12.7626 9.95815C12.7686 9.93913 12.7686 9.91871 12.7626 9.89969C12.7566 9.88066 12.7449 9.86395 12.729 9.85184C12.7131 9.83973 12.6939 9.8328 12.674 9.832ZM23.271 13.644L23.835 14.069L23.624 14.749C23.6175 14.768 23.6173 14.7886 23.6232 14.8078C23.6292 14.827 23.6411 14.8438 23.6572 14.8558C23.6733 14.8678 23.6928 14.8744 23.7129 14.8746C23.733 14.8748 23.7526 14.8686 23.769 14.857L24.34 14.442L24.911 14.857C24.9273 14.8689 24.9469 14.8752 24.9671 14.8752C24.9872 14.8752 25.0068 14.8687 25.0231 14.8568C25.0393 14.8449 25.0514 14.8282 25.0575 14.809C25.0636 14.7897 25.0634 14.7691 25.057 14.75L24.845 14.069L25.41 13.644C25.4259 13.6318 25.4377 13.615 25.4436 13.5959C25.4496 13.5768 25.4495 13.5563 25.4434 13.5372C25.4373 13.5182 25.4254 13.5015 25.4094 13.4894C25.3934 13.4774 25.374 13.4706 25.354 13.47L24.652 13.465L24.43 12.787C24.4242 12.7677 24.4123 12.7507 24.3961 12.7387C24.3799 12.7266 24.3602 12.7201 24.34 12.7201C24.3198 12.7201 24.3001 12.7266 24.2839 12.7387C24.2677 12.7507 24.2558 12.7677 24.25 12.787L24.028 13.465L23.326 13.47C23.3061 13.4708 23.2869 13.4777 23.271 13.4898C23.2551 13.502 23.2434 13.5187 23.2374 13.5377C23.2314 13.5567 23.2314 13.5771 23.2374 13.5962C23.2434 13.6152 23.2551 13.6319 23.271 13.644ZM25.354 9.832L24.652 9.827L24.43 9.149C24.4242 9.12967 24.4123 9.11272 24.3961 9.10068C24.3799 9.08863 24.3602 9.08213 24.34 9.08213C24.3198 9.08213 24.3001 9.08863 24.2839 9.10068C24.2677 9.11272 24.2558 9.12967 24.25 9.149L24.028 9.827L23.326 9.832C23.3061 9.8328 23.2869 9.83973 23.271 9.85184C23.2551 9.86395 23.2434 9.88066 23.2374 9.89969C23.2314 9.91871 23.2314 9.93913 23.2374 9.95815C23.2434 9.97718 23.2551 9.99389 23.271 10.006L23.835 10.431L23.624 11.111C23.6175 11.13 23.6173 11.1506 23.6232 11.1698C23.6292 11.189 23.6411 11.2058 23.6572 11.2178C23.6733 11.2298 23.6928 11.2364 23.7129 11.2366C23.733 11.2368 23.7526 11.2306 23.769 11.219L24.34 10.804L24.911 11.219C24.9273 11.2309 24.9469 11.2372 24.9671 11.2372C24.9872 11.2372 25.0068 11.2307 25.0231 11.2188C25.0393 11.2069 25.0514 11.1902 25.0575 11.171C25.0636 11.1517 25.0634 11.1311 25.057 11.112L24.845 10.431L25.41 10.006C25.4259 9.99383 25.4377 9.97703 25.4436 9.95792C25.4496 9.9388 25.4495 9.91831 25.4434 9.89924C25.4373 9.88017 25.4254 9.86347 25.4094 9.85143C25.3934 9.83939 25.374 9.83261 25.354 9.832Z"
		fill="#4173CD"
	/>
</svg>
