<svg viewBox="0 0 36 24" fill="none" xmlns="http://www.w3.org/2000/svg">
	<path d="M36 24H0V0H36" fill="#41479B" />
	<path
		d="M36 10.737V13.263H19.241V24H16.76V13.263H0V10.737H16.759V0H19.241V10.737H36ZM4.662 7.799C4.67608 7.7742 4.69497 7.75246 4.71756 7.73506C4.74016 7.71767 4.76601 7.70496 4.79358 7.6977C4.82116 7.69043 4.84991 7.68875 4.87814 7.69275C4.90638 7.69675 4.93353 7.70636 4.958 7.721C5.31403 7.83318 5.69376 7.847 6.057 7.761C6.129 7.752 6.22 7.736 6.299 7.725C6.29452 7.55536 6.33045 7.3871 6.40383 7.23409C6.4772 7.08107 6.58592 6.94771 6.721 6.845C6.9352 6.68362 7.17254 6.55551 7.425 6.465C8.31108 6.19321 9.21491 5.98304 10.13 5.836C10.3703 5.78979 10.6069 5.72629 10.838 5.646C10.6748 5.59428 10.5089 5.55155 10.341 5.518C9.919 5.438 9.50433 5.35867 9.097 5.28C8.88086 5.23433 8.66778 5.17521 8.459 5.103C8.34496 5.06402 8.23454 5.01517 8.129 4.957C8.06928 4.92638 8.0112 4.89267 7.955 4.856C7.87978 4.79613 7.80955 4.73024 7.745 4.659C7.70138 4.6136 7.66466 4.56205 7.636 4.506L7.6 4.442C7.58573 4.41339 7.57304 4.38401 7.562 4.354L7.55 4.303L7.537 4.233C7.49729 4.04218 7.52633 3.84347 7.619 3.672C7.75812 3.43727 7.96333 3.24875 8.209 3.13C8.584 2.925 8.922 2.808 9.217 2.672C9.3516 2.61319 9.48192 2.54502 9.607 2.468C9.66759 2.43256 9.72366 2.38992 9.774 2.341C9.75326 2.33032 9.731 2.3229 9.708 2.319C9.28123 2.24202 8.84634 2.22017 8.414 2.254L7.156 2.329C7.04867 2.33382 6.94321 2.29973 6.859 2.233C6.50971 2.34435 6.1456 2.40234 5.779 2.405C5.56084 2.40588 5.34334 2.38104 5.131 2.331C5.09124 2.32105 5.057 2.29586 5.03567 2.26087C5.01434 2.22588 5.00763 2.1839 5.017 2.144C5.02124 2.12418 5.02941 2.10541 5.04101 2.0888C5.05262 2.07218 5.06742 2.05806 5.08457 2.04725C5.10171 2.03644 5.12084 2.02917 5.14084 2.02586C5.16084 2.02256 5.18129 2.02328 5.201 2.028C5.69498 2.12891 6.20629 2.10555 6.689 1.96C6.68111 1.93719 6.67509 1.91378 6.671 1.89C6.66692 1.8292 6.67487 1.76819 6.69437 1.71045C6.71388 1.65272 6.74456 1.59939 6.78468 1.55352C6.82479 1.50765 6.87355 1.47013 6.92817 1.4431C6.98279 1.41607 7.0422 1.40007 7.103 1.396H7.105L7.135 1.394L8.381 1.334C8.90619 1.29954 9.43361 1.33859 9.948 1.45C10.1786 1.50521 10.3868 1.6294 10.545 1.806C10.6568 1.95537 10.7114 2.13984 10.699 2.326C10.6997 2.39204 10.6889 2.4577 10.667 2.52L10.646 2.574C10.6313 2.61667 10.6132 2.65813 10.592 2.698C10.4674 2.91651 10.286 3.09723 10.067 3.221C9.90537 3.31891 9.73694 3.40513 9.563 3.479C8.933 3.712 8.061 4.13 8.429 4.163C8.399 4.123 8.601 4.267 8.743 4.306C8.91831 4.36864 9.09732 4.4204 9.279 4.461L10.506 4.711C10.7373 4.75734 10.9652 4.81948 11.188 4.897C11.3367 4.95086 11.4753 5.02928 11.598 5.129C11.7172 5.22496 11.798 5.3605 11.8257 5.51098C11.8534 5.66146 11.8262 5.81688 11.749 5.949C11.7148 6.00508 11.6734 6.05651 11.626 6.102C11.5434 6.17722 11.4528 6.24327 11.356 6.299C11.2324 6.35621 11.1055 6.40597 10.976 6.448C10.741 6.516 10.512 6.568 10.286 6.614C9.40776 6.74445 8.53917 6.9332 7.686 7.179C7.43102 7.24005 7.20557 7.3887 7.049 7.599C7.183 7.573 7.309 7.551 7.453 7.521C8.07317 7.37372 8.7061 7.28665 9.343 7.261C10.1395 7.18123 10.9433 7.2969 11.685 7.598C11.8164 7.67251 11.9292 7.77575 12.015 7.9C12.0697 7.99842 12.1066 8.10574 12.124 8.217C12.1281 8.27362 12.1274 8.33049 12.122 8.387C12.0942 8.54846 12.0246 8.69984 11.9203 8.82613C11.8159 8.95243 11.6803 9.04925 11.527 9.107C11.0982 9.28602 10.6404 9.38564 10.176 9.401C9.24314 9.46192 8.30795 9.32457 7.432 8.998C7.18783 8.89537 6.9598 8.75795 6.755 8.59C6.6455 8.49366 6.55112 8.38141 6.475 8.257C6.351 8.27 6.218 8.287 6.105 8.295C5.77449 8.3284 5.44086 8.31256 5.115 8.248C4.98202 8.22141 4.85475 8.17166 4.739 8.101C4.68924 8.0707 4.65338 8.02206 4.63916 7.96556C4.62495 7.90906 4.63251 7.84924 4.662 7.799ZM7.394 8.134C7.49441 8.20577 7.60004 8.26995 7.71 8.326C8.48499 8.61933 9.31249 8.74839 10.14 8.705C10.5156 8.69702 10.8871 8.62429 11.238 8.49C11.41 8.448 11.448 8.293 11.459 8.361C11.464 8.3165 11.4646 8.27163 11.461 8.227C11.441 8.241 11.459 8.263 11.459 8.263C11.4283 8.22583 11.391 8.19464 11.349 8.171C10.715 7.9358 10.0368 7.8436 9.363 7.901C8.75591 7.92546 8.15153 7.99566 7.555 8.111L7.394 8.134ZM23.904 7.799C23.9181 7.7742 23.937 7.75246 23.9596 7.73506C23.9822 7.71767 24.008 7.70496 24.0356 7.6977C24.0632 7.69043 24.0919 7.68875 24.1201 7.69275C24.1484 7.69675 24.1755 7.70636 24.2 7.721C24.5557 7.833 24.9351 7.84682 25.298 7.761C25.371 7.752 25.462 7.736 25.54 7.725C25.5355 7.55536 25.5715 7.3871 25.6448 7.23409C25.7182 7.08107 25.8269 6.94771 25.962 6.845C26.1765 6.68353 26.4142 6.55542 26.667 6.465C27.5528 6.19326 28.4562 5.98309 29.371 5.836C29.6113 5.78979 29.8479 5.72629 30.079 5.646C29.9161 5.59431 29.7505 5.55158 29.583 5.518C29.1603 5.438 28.7457 5.35867 28.339 5.28C28.1229 5.23433 27.9098 5.17521 27.701 5.103C27.5866 5.06408 27.4759 5.01522 27.37 4.957C27.3106 4.92635 27.2529 4.89264 27.197 4.856C27.1214 4.79617 27.0509 4.73028 26.986 4.659C26.9427 4.61353 26.9064 4.56199 26.878 4.506L26.84 4.442C26.8257 4.41338 26.813 4.38401 26.802 4.354L26.79 4.303L26.777 4.233C26.7373 4.04218 26.7663 3.84347 26.859 3.672C26.9981 3.43727 27.2033 3.24875 27.449 3.13C27.824 2.925 28.162 2.808 28.457 2.672C28.5916 2.61319 28.7219 2.54502 28.847 2.468C28.9076 2.43256 28.9637 2.38992 29.014 2.341C28.9936 2.33042 28.9717 2.323 28.949 2.319C28.5219 2.24193 28.0867 2.22008 27.654 2.254L26.396 2.329C26.289 2.33357 26.1839 2.2995 26.1 2.233C25.7507 2.34436 25.3866 2.40235 25.02 2.405C24.8015 2.40596 24.5837 2.38112 24.371 2.331C24.3314 2.32084 24.2974 2.29555 24.2763 2.26059C24.2552 2.22562 24.2486 2.18376 24.258 2.144C24.2622 2.12418 24.2704 2.10541 24.282 2.0888C24.2936 2.07218 24.3084 2.05806 24.3256 2.04725C24.3427 2.03644 24.3618 2.02917 24.3818 2.02586C24.4018 2.02256 24.4223 2.02328 24.442 2.028C24.936 2.12891 25.4473 2.10555 25.93 1.96C25.9221 1.93719 25.9161 1.91378 25.912 1.89C25.9038 1.76736 25.9445 1.64647 26.0253 1.55385C26.1061 1.46124 26.2204 1.40447 26.343 1.396H26.346L26.376 1.394L27.621 1.334C28.1462 1.29954 28.6736 1.33859 29.188 1.45C29.4189 1.50503 29.6276 1.62923 29.786 1.806C29.8974 1.95555 29.9516 2.13997 29.939 2.326C29.94 2.39198 29.9295 2.45763 29.908 2.52L29.886 2.574C29.8713 2.61668 29.8532 2.65814 29.832 2.698C29.7074 2.91651 29.526 3.09723 29.307 3.221C29.1454 3.31891 28.9769 3.40513 28.803 3.479C28.174 3.712 27.301 4.13 27.67 4.163C27.64 4.123 27.841 4.267 27.984 4.306C28.1593 4.36864 28.3383 4.42041 28.52 4.461L29.747 4.711C29.978 4.75738 30.2055 4.81953 30.428 4.897C30.577 4.95074 30.716 5.02917 30.839 5.129C30.958 5.2251 31.0386 5.3607 31.0661 5.51117C31.0936 5.66164 31.0663 5.81699 30.989 5.949C30.9551 6.00502 30.9141 6.05645 30.867 6.102C30.7844 6.17722 30.6938 6.24327 30.597 6.299C30.4731 6.35659 30.3459 6.40668 30.216 6.449C29.981 6.516 29.753 6.569 29.526 6.614C28.6478 6.74445 27.7792 6.9332 26.926 7.179C26.6714 7.24026 26.4463 7.38889 26.29 7.599C26.424 7.573 26.549 7.551 26.693 7.521C27.3132 7.37372 27.9461 7.28665 28.583 7.261C29.3798 7.18106 30.184 7.29674 30.926 7.598C31.0574 7.67251 31.1702 7.77575 31.256 7.9C31.3104 7.99849 31.3469 8.1058 31.364 8.217C31.3682 8.2736 31.3679 8.33045 31.363 8.387C31.3352 8.54846 31.2656 8.69984 31.1613 8.82613C31.0569 8.95243 30.9213 9.04925 30.768 9.107C30.3389 9.28614 29.8808 9.38576 29.416 9.401C28.4831 9.46192 27.548 9.32457 26.672 8.998C26.4282 8.89529 26.2005 8.75787 25.996 8.59C25.8865 8.49366 25.7921 8.38141 25.716 8.257C25.591 8.27 25.458 8.287 25.346 8.295C25.0155 8.3284 24.6819 8.31256 24.356 8.248C24.223 8.22141 24.0957 8.17166 23.98 8.101C23.9302 8.0707 23.8944 8.02206 23.8802 7.96556C23.8659 7.90906 23.8745 7.84924 23.904 7.799ZM26.635 8.134C26.7354 8.20576 26.841 8.26994 26.951 8.326C27.726 8.61933 28.5535 8.74839 29.381 8.705C29.7566 8.69704 30.1281 8.62431 30.479 8.49C30.652 8.448 30.689 8.293 30.7 8.361C30.7053 8.31653 30.7063 8.27166 30.703 8.227C30.683 8.241 30.701 8.263 30.701 8.263C30.67 8.22573 30.6324 8.19454 30.59 8.171C29.9563 7.93595 29.2785 7.84375 28.605 7.901C27.9976 7.92541 27.3929 7.99561 26.796 8.111C26.739 8.119 26.69 8.125 26.635 8.134ZM12.123 21.48C12.1271 21.5366 12.1264 21.5935 12.121 21.65C12.0932 21.8115 12.0236 21.9628 11.9193 22.0891C11.8149 22.2154 11.6793 22.3122 11.526 22.37C11.0972 22.549 10.6394 22.6486 10.175 22.664C9.24214 22.7249 8.30695 22.5876 7.431 22.261C7.18683 22.1584 6.9588 22.0209 6.754 21.853C6.6445 21.7567 6.55012 21.6444 6.474 21.52C6.35 21.533 6.217 21.55 6.104 21.558C5.77349 21.5914 5.43986 21.5755 5.114 21.511C4.98102 21.4844 4.85375 21.4347 4.738 21.364C4.68824 21.3337 4.65238 21.2851 4.63816 21.2286C4.62395 21.1721 4.63251 21.1122 4.662 21.062C4.67608 21.0372 4.69497 21.0155 4.71756 20.9981C4.74016 20.9807 4.76601 20.968 4.79358 20.9607C4.82116 20.9534 4.84991 20.9517 4.87814 20.9557C4.90638 20.9598 4.93353 20.9694 4.958 20.984C5.31403 21.0962 5.69376 21.11 6.057 21.024C6.129 21.015 6.22 20.999 6.299 20.988C6.29452 20.8184 6.33045 20.6501 6.40383 20.4971C6.4772 20.3441 6.58592 20.2107 6.721 20.108C6.9352 19.9466 7.17254 19.8185 7.425 19.728C8.31108 19.4562 9.21491 19.246 10.13 19.099C10.3703 19.0528 10.6069 18.9893 10.838 18.909C10.6748 18.8573 10.5089 18.8145 10.341 18.781C9.919 18.701 9.50433 18.6217 9.097 18.543C8.88086 18.4973 8.66778 18.4382 8.459 18.366C8.34496 18.327 8.23455 18.2782 8.129 18.22C8.06928 18.1894 8.0112 18.1557 7.955 18.119C7.87977 18.0591 7.80953 17.9933 7.745 17.922C7.70138 17.8766 7.66466 17.8251 7.636 17.769L7.599 17.705C7.58472 17.6764 7.57204 17.647 7.561 17.617L7.549 17.566L7.536 17.496C7.49629 17.3052 7.52533 17.1065 7.618 16.935C7.75712 16.7003 7.96233 16.5117 8.208 16.393C8.583 16.188 8.921 16.071 9.216 15.935C9.3506 15.8762 9.48092 15.808 9.606 15.731C9.66659 15.6956 9.72266 15.6529 9.773 15.604C9.7522 15.5937 9.72994 15.5866 9.707 15.583C9.28027 15.5057 8.84538 15.4835 8.413 15.517L7.155 15.592C7.04767 15.5968 6.94221 15.5627 6.858 15.496C6.50871 15.6073 6.1446 15.6653 5.778 15.668C5.55988 15.6692 5.34238 15.6447 5.13 15.595C5.09003 15.5851 5.05561 15.5597 5.03425 15.5245C5.01289 15.4893 5.00633 15.447 5.016 15.407C5.02036 15.3873 5.0286 15.3686 5.04025 15.3521C5.05191 15.3356 5.06673 15.3216 5.08386 15.3109C5.101 15.3002 5.12009 15.293 5.14003 15.2897C5.15997 15.2865 5.18036 15.2873 5.2 15.292C5.69414 15.3923 6.20545 15.3682 6.688 15.222C6.68011 15.1992 6.67409 15.1758 6.67 15.152C6.66204 15.0294 6.70306 14.9086 6.78405 14.8162C6.86504 14.7237 6.97939 14.6672 7.102 14.659H7.104L7.134 14.657L8.38 14.597C8.90519 14.5626 9.43261 14.6016 9.947 14.713C10.1776 14.7682 10.3858 14.8924 10.544 15.069C10.6558 15.2184 10.7104 15.4028 10.698 15.589C10.6987 15.655 10.6879 15.7207 10.666 15.783L10.645 15.837C10.6303 15.8797 10.6122 15.9211 10.591 15.961C10.4664 16.1795 10.285 16.3602 10.066 16.484C9.90436 16.5819 9.73593 16.6681 9.562 16.742C8.932 16.975 8.06 17.393 8.428 17.426C8.398 17.386 8.6 17.53 8.742 17.569C8.91731 17.6316 9.09632 17.6834 9.278 17.724L10.505 17.974C10.7363 18.0203 10.9642 18.0825 11.187 18.16C11.3357 18.2139 11.4743 18.2923 11.597 18.392C11.7162 18.488 11.797 18.6235 11.8247 18.774C11.8524 18.9245 11.8252 19.0799 11.748 19.212C11.7138 19.2681 11.6724 19.3195 11.625 19.365C11.5424 19.4406 11.4519 19.507 11.355 19.563C11.2314 19.6199 11.1045 19.6693 10.975 19.711C10.74 19.779 10.511 19.831 10.285 19.877C9.40676 20.0075 8.53817 20.1962 7.685 20.442C7.43002 20.5031 7.20457 20.6517 7.048 20.862C7.182 20.836 7.308 20.814 7.452 20.784C8.07217 20.6367 8.7051 20.5497 9.342 20.524C10.1385 20.4442 10.9423 20.5599 11.684 20.861C11.8154 20.9355 11.9282 21.0388 12.014 21.163C12.0687 21.2614 12.1056 21.3687 12.123 21.48ZM11.461 21.49C11.441 21.504 11.459 21.526 11.459 21.526C11.4282 21.4892 11.3909 21.4583 11.349 21.435C10.715 21.1998 10.0368 21.1076 9.363 21.165C8.75596 21.1888 8.15158 21.2583 7.555 21.373C7.498 21.383 7.45 21.388 7.394 21.397C7.49441 21.4688 7.60004 21.5329 7.71 21.589C8.48499 21.8823 9.31249 22.0114 10.14 21.968C10.5156 21.96 10.8871 21.8873 11.238 21.753C11.41 21.711 11.448 21.557 11.459 21.625C11.464 21.5802 11.4647 21.535 11.461 21.49ZM31.364 21.48C31.3682 21.5366 31.3679 21.5935 31.363 21.65C31.3352 21.8115 31.2656 21.9628 31.1613 22.0891C31.0569 22.2154 30.9213 22.3122 30.768 22.37C30.3389 22.5491 29.8808 22.6488 29.416 22.664C28.4831 22.7249 27.548 22.5876 26.672 22.261C26.4282 22.1583 26.2005 22.0209 25.996 21.853C25.8865 21.7567 25.7921 21.6444 25.716 21.52C25.591 21.533 25.458 21.55 25.346 21.558C25.0155 21.5914 24.6819 21.5755 24.356 21.511C24.223 21.4844 24.0957 21.4347 23.98 21.364C23.9302 21.3337 23.8944 21.2851 23.8802 21.2286C23.8659 21.1721 23.8745 21.1122 23.904 21.062C23.9181 21.0372 23.937 21.0155 23.9596 20.9981C23.9822 20.9807 24.008 20.968 24.0356 20.9607C24.0632 20.9534 24.0919 20.9517 24.1201 20.9557C24.1484 20.9598 24.1755 20.9694 24.2 20.984C24.5557 21.096 24.9351 21.1098 25.298 21.024C25.371 21.015 25.462 20.999 25.54 20.988C25.5355 20.8184 25.5715 20.6501 25.6448 20.4971C25.7182 20.3441 25.8269 20.2107 25.962 20.108C26.1765 19.9465 26.4142 19.8184 26.667 19.728C27.5528 19.4563 28.4562 19.2461 29.371 19.099C29.6113 19.0528 29.8479 18.9893 30.079 18.909C29.9161 18.8573 29.7505 18.8146 29.583 18.781C29.1603 18.701 28.7457 18.6217 28.339 18.543C28.1229 18.4973 27.9098 18.4382 27.701 18.366C27.5866 18.3271 27.4759 18.2782 27.37 18.22C27.3106 18.1894 27.2529 18.1556 27.197 18.119C27.1214 18.0592 27.0509 17.9933 26.986 17.922C26.9427 17.8765 26.9064 17.825 26.878 17.769L26.84 17.705C26.8257 17.6764 26.813 17.647 26.802 17.617L26.798 17.6L26.791 17.566L26.777 17.496C26.7376 17.3051 26.767 17.1063 26.86 16.935C26.9991 16.7003 27.2043 16.5117 27.45 16.393C27.824 16.188 28.162 16.071 28.458 15.935C28.5926 15.8762 28.7229 15.808 28.848 15.731C28.9082 15.6955 28.964 15.6529 29.014 15.604C28.9935 15.5938 28.9716 15.5867 28.949 15.583C28.5223 15.5057 28.0874 15.4835 27.655 15.517L26.397 15.592C26.2897 15.5968 26.1842 15.5627 26.1 15.496C25.7507 15.6074 25.3866 15.6654 25.02 15.668C24.8015 15.6693 24.5837 15.6448 24.371 15.595C24.3312 15.5848 24.297 15.5594 24.2759 15.5242C24.2547 15.489 24.2483 15.4469 24.258 15.407C24.2624 15.3873 24.2706 15.3686 24.2823 15.3521C24.2939 15.3356 24.3087 15.3216 24.3259 15.3109C24.343 15.3002 24.3621 15.293 24.382 15.2897C24.402 15.2865 24.4224 15.2873 24.442 15.292C24.9361 15.3923 25.4475 15.3682 25.93 15.222C25.9221 15.1992 25.9161 15.1758 25.912 15.152C25.904 15.0295 25.9449 14.9089 26.0257 14.8165C26.1065 14.7241 26.2206 14.6675 26.343 14.659H26.346L26.376 14.657L27.621 14.598C28.1461 14.5632 28.6736 14.6019 29.188 14.713C29.4189 14.768 29.6276 14.8922 29.786 15.069C29.8974 15.2185 29.9516 15.403 29.939 15.589C29.94 15.655 29.9295 15.7206 29.908 15.783L29.886 15.837C29.8713 15.8797 29.8532 15.9211 29.832 15.961C29.7074 16.1795 29.526 16.3602 29.307 16.484C29.1454 16.5819 28.9769 16.6681 28.803 16.742C28.174 16.975 27.301 17.393 27.67 17.426C27.64 17.386 27.841 17.53 27.984 17.569C28.1593 17.6316 28.3383 17.6834 28.52 17.724L29.747 17.974C29.9783 18.0203 30.2062 18.0825 30.429 18.16C30.5777 18.2138 30.7163 18.2923 30.839 18.392C30.958 18.4881 31.0386 18.6237 31.0661 18.7742C31.0936 18.9246 31.0663 19.08 30.989 19.212C30.9551 19.268 30.9141 19.3194 30.867 19.365C30.7844 19.4406 30.6939 19.507 30.597 19.563C30.4731 19.6199 30.3458 19.6693 30.216 19.711C29.982 19.779 29.753 19.831 29.526 19.877C28.6478 20.0075 27.7792 20.1962 26.926 20.442C26.6714 20.5033 26.4463 20.6519 26.29 20.862C26.424 20.836 26.549 20.814 26.693 20.784C27.3132 20.6367 27.9461 20.5497 28.583 20.524C29.3798 20.4441 30.184 20.5597 30.926 20.861C31.0574 20.9355 31.1702 21.0388 31.256 21.163C31.3104 21.2615 31.3469 21.3688 31.364 21.48ZM30.703 21.49C30.683 21.504 30.701 21.526 30.701 21.526C30.6699 21.4891 30.6323 21.4582 30.59 21.435C29.9563 21.1999 29.2785 21.1078 28.605 21.165C27.9976 21.1887 27.3929 21.2583 26.796 21.373C26.739 21.383 26.691 21.388 26.636 21.397C26.7361 21.4687 26.8414 21.5329 26.951 21.589C27.726 21.8823 28.5535 22.0114 29.381 21.968C29.757 21.9602 30.1288 21.8874 30.48 21.753C30.652 21.711 30.689 21.557 30.7 21.625C30.7054 21.5802 30.7064 21.535 30.703 21.49Z"
		fill="#F5F5F5"
	/>
</svg>
