<svg viewBox="0 0 36 24" fill="none" xmlns="http://www.w3.org/2000/svg">
	<path d="M12 24H0V0H12V24Z" fill="#73AF00" />
	<path d="M12 0H24V24H12V0Z" fill="#F5F5F5" />
	<path d="M36 24H24V0H36V24Z" fill="#FF4B55" />
	<path
		d="M18 15.015C17.9645 15.0147 17.9295 15.0075 17.8968 14.9937C17.8642 14.9799 17.8346 14.9598 17.8097 14.9345C17.7848 14.9092 17.7651 14.8793 17.7518 14.8465C17.7385 14.8136 17.7317 14.7785 17.732 14.743V13.653C17.732 13.5819 17.7602 13.5138 17.8105 13.4635C17.8608 13.4132 17.9289 13.385 18 13.385C18.0711 13.385 18.1392 13.4132 18.1895 13.4635C18.2398 13.5138 18.268 13.5819 18.268 13.653V14.743C18.2683 14.7785 18.2615 14.8136 18.2482 14.8465C18.2349 14.8793 18.2152 14.9092 18.1903 14.9345C18.1654 14.9598 18.1358 14.9799 18.1032 14.9937C18.0705 15.0075 18.0355 15.0147 18 15.015Z"
		fill="#00C3A0"
	/>
	<path
		d="M18 13.926C16.9335 13.9197 15.9103 13.5037 15.142 12.764C15.0899 12.7143 15.0593 12.6463 15.0567 12.5743C15.0541 12.5024 15.0797 12.4323 15.128 12.379C15.1517 12.353 15.1804 12.3319 15.2123 12.3171C15.2443 12.3023 15.2789 12.294 15.3141 12.2927C15.3493 12.2914 15.3844 12.2971 15.4173 12.3095C15.4503 12.3219 15.4804 12.3408 15.506 12.365C16.1726 13.0166 17.0678 13.3814 18 13.3814C18.9322 13.3814 19.8274 13.0166 20.494 12.365C20.5196 12.3408 20.5497 12.3219 20.5827 12.3095C20.6156 12.2971 20.6507 12.2914 20.6859 12.2927C20.7211 12.294 20.7557 12.3023 20.7877 12.3171C20.8196 12.3319 20.8483 12.353 20.872 12.379C20.9203 12.4323 20.9459 12.5024 20.9433 12.5743C20.9407 12.6463 20.9101 12.7143 20.858 12.764C20.0898 13.5038 19.0665 13.9198 18 13.926Z"
		fill="#00C3A0"
	/>
	<path
		d="M18 15.015C17.3147 15.0153 16.6451 14.8098 16.078 14.425L16.374 13.972C16.8561 14.2915 17.4216 14.462 18 14.462C18.5784 14.462 19.1439 14.2915 19.626 13.972L19.922 14.425C19.3549 14.8098 18.6853 15.0153 18 15.015Z"
		fill="#00AADC"
	/>
	<path
		d="M18.535 9.841C18.6088 9.6989 18.6534 9.54352 18.6664 9.38395C18.6794 9.22437 18.6604 9.06381 18.6106 8.91166C18.5608 8.7595 18.4811 8.61881 18.3763 8.49782C18.2714 8.37682 18.1435 8.27796 18 8.207C18 8.207 21.747 7.663 21.212 12.565C20.7824 12.2291 20.4223 11.8127 20.152 11.339L18.535 10.386V9.841Z"
		fill="#874150"
	/>
	<path
		d="M17.576 11.34L18.424 12.213L16.884 12.576L16.985 12.27L17.576 11.34ZM18 10.93V11.475L19.606 13.109L20.676 12.565L18 10.93Z"
		fill="#732D37"
	/>
	<path
		d="M16.93 9.297C17.073 9.29832 17.2097 9.35635 17.31 9.45834C17.4103 9.56033 17.4661 9.69795 17.465 9.841V9.842C17.3089 10.0018 17.2061 10.2061 17.1708 10.4267C17.1355 10.6473 17.1695 10.8735 17.268 11.074L17.388 11.32C17.4384 11.4226 17.5049 11.5165 17.585 11.598L19.071 13.109V12.357C19.0713 11.4202 18.8568 10.4959 18.444 9.655C18.3131 9.38524 18.1091 9.15761 17.8552 8.99799C17.6014 8.83836 17.3079 8.75314 17.008 8.752H16.93V9.297Z"
		fill="#783C46"
	/>
	<path
		d="M19.07 12.565L18.535 13.654H18V13.109L19.07 12.565ZM16.93 8.752L16.394 9.297V9.841C16.394 9.841 17.031 9.513 17.246 9.408C17.275 9.39276 17.2999 9.37062 17.3184 9.34352C17.3368 9.31642 17.3483 9.28519 17.3519 9.25259C17.3555 9.21999 17.3509 9.18701 17.3387 9.15657C17.3266 9.12612 17.3071 9.09914 17.282 9.078C17.165 8.96859 17.0484 8.85992 16.93 8.752Z"
		fill="#FFD250"
	/>
	<path
		d="M14.58 10.92L15.108 10.829C15.295 11.951 15.974 12.331 16.381 12.33C16.506 12.327 16.637 12.283 16.647 12.193C16.659 12.086 16.662 12.06 16.382 11.963C16.2133 11.9208 16.0592 11.8337 15.936 11.711C15.446 11.142 16.11 10.541 16.428 10.251C16.484 10.2 16.508 10.157 16.501 10.141C16.4737 10.1032 16.4375 10.0727 16.3957 10.0521C16.3539 10.0315 16.3076 10.0215 16.261 10.023C16.1065 10.0313 15.9541 9.98461 15.8307 9.89126C15.7074 9.79791 15.621 9.66391 15.587 9.513C15.5481 9.35757 15.5613 9.19367 15.6245 9.04645C15.6877 8.89923 15.7975 8.77682 15.937 8.698L16.183 9.182C16.1514 9.20428 16.1274 9.23561 16.114 9.27185C16.1006 9.3081 16.0985 9.34755 16.108 9.385C16.114 9.413 16.13 9.479 16.261 9.479C16.4165 9.47605 16.5694 9.5187 16.7009 9.6017C16.8324 9.68469 16.9368 9.80438 17.001 9.946C17.045 10.0721 17.0478 10.2089 17.009 10.3367C16.9702 10.4645 16.8917 10.5767 16.785 10.657C16.433 10.977 16.223 11.217 16.339 11.353C16.4052 11.3958 16.4778 11.4279 16.554 11.448C16.794 11.531 17.244 11.685 17.179 12.256C17.1488 12.4381 17.0519 12.6024 16.9071 12.7168C16.7624 12.8313 16.5801 12.8877 16.396 12.875H16.362C15.655 12.875 14.805 12.269 14.58 10.92ZM22.015 11.475C22.015 12.5398 21.592 13.5611 20.839 14.314C20.0861 15.067 19.0648 15.49 18 15.49C16.9352 15.49 15.9139 15.067 15.161 14.314C14.408 13.5611 13.985 12.5398 13.985 11.475H13.45C13.45 12.6817 13.9294 13.839 14.7827 14.6923C15.636 15.5456 16.7933 16.025 18 16.025C19.2067 16.025 20.364 15.5456 21.2173 14.6923C22.0706 13.839 22.55 12.6817 22.55 11.475H22.015Z"
		fill="#AAD264"
	/>
	<path
		d="M14.378 13.091C14.3766 13.1625 14.3542 13.232 14.3134 13.2907C14.2727 13.3495 14.2156 13.3949 14.1491 13.4213C14.0827 13.4477 14.0099 13.4539 13.94 13.4392C13.87 13.4244 13.806 13.3893 13.7559 13.3382C13.7059 13.2872 13.672 13.2225 13.6585 13.1523C13.6451 13.0821 13.6527 13.0094 13.6804 12.9435C13.708 12.8776 13.7545 12.8213 13.8141 12.7817C13.8736 12.7421 13.9435 12.721 14.015 12.721C14.0631 12.7214 14.1107 12.7313 14.1551 12.7501C14.1994 12.7689 14.2396 12.7963 14.2733 12.8307C14.307 12.865 14.3336 12.9057 14.3516 12.9504C14.3695 12.9951 14.3785 13.0429 14.378 13.091ZM14.818 14.027C14.7445 14.0256 14.6723 14.0461 14.6106 14.0859C14.5488 14.1257 14.5003 14.183 14.4712 14.2505C14.4421 14.318 14.4338 14.3926 14.4473 14.4648C14.4608 14.537 14.4954 14.6036 14.5469 14.6561C14.5983 14.7085 14.6642 14.7444 14.7362 14.7593C14.8082 14.7741 14.8829 14.7672 14.9509 14.7395C15.0189 14.7117 15.0771 14.6643 15.1181 14.6033C15.1591 14.5423 15.181 14.4705 15.181 14.397C15.1815 14.3489 15.1725 14.3011 15.1546 14.2564C15.1366 14.2117 15.11 14.171 15.0763 14.1367C15.0426 14.1023 15.0024 14.0749 14.9581 14.0561C14.9137 14.0373 14.8661 14.0274 14.818 14.027ZM16.122 15.013C16.0485 15.0116 15.9763 15.0321 15.9146 15.0719C15.8528 15.1117 15.8043 15.169 15.7752 15.2365C15.7461 15.304 15.7378 15.3786 15.7513 15.4508C15.7648 15.523 15.7994 15.5896 15.8509 15.6421C15.9023 15.6945 15.9682 15.7304 16.0402 15.7453C16.1122 15.7601 16.1869 15.7532 16.2549 15.7255C16.3229 15.6977 16.3812 15.6503 16.4221 15.5893C16.4631 15.5283 16.485 15.4565 16.485 15.383C16.4855 15.3349 16.4765 15.2871 16.4586 15.2424C16.4406 15.1977 16.414 15.157 16.3803 15.1227C16.3466 15.0883 16.3064 15.0609 16.2621 15.0421C16.2177 15.0233 16.1701 15.0134 16.122 15.013ZM22.024 12.722C21.9505 12.7206 21.8783 12.7411 21.8166 12.7809C21.7548 12.8207 21.7063 12.878 21.6772 12.9455C21.6481 13.013 21.6398 13.0876 21.6533 13.1598C21.6668 13.232 21.7014 13.2986 21.7529 13.3511C21.8043 13.4035 21.8702 13.4394 21.9422 13.4543C22.0142 13.4691 22.0889 13.4622 22.1569 13.4345C22.2249 13.4067 22.2832 13.3593 22.3241 13.2983C22.3651 13.2373 22.387 13.1655 22.387 13.092C22.3875 13.0439 22.3785 12.9961 22.3606 12.9514C22.3426 12.9067 22.316 12.866 22.2823 12.8317C22.2486 12.7973 22.2084 12.7699 22.1641 12.7511C22.1197 12.7323 22.0721 12.7224 22.024 12.722ZM21.22 14.027C21.1466 14.0258 21.0745 14.0465 21.0128 14.0864C20.9512 14.1263 20.9028 14.1837 20.8739 14.2512C20.845 14.3187 20.8368 14.3933 20.8504 14.4654C20.864 14.5376 20.8987 14.6041 20.9502 14.6564C21.0017 14.7088 21.0676 14.7446 21.1396 14.7594C21.2115 14.7742 21.2862 14.7672 21.3542 14.7394C21.4221 14.7116 21.4803 14.6641 21.5212 14.6032C21.5621 14.5422 21.584 14.4704 21.584 14.397C21.5845 14.3488 21.5755 14.3009 21.5575 14.2562C21.5395 14.2114 21.5128 14.1707 21.4789 14.1363C21.4451 14.1019 21.4048 14.0746 21.3604 14.0558C21.3159 14.0371 21.2682 14.0273 21.22 14.027ZM19.916 15.013C19.8425 15.0116 19.7703 15.0321 19.7086 15.0719C19.6468 15.1117 19.5983 15.169 19.5692 15.2365C19.5401 15.304 19.5318 15.3786 19.5453 15.4508C19.5588 15.523 19.5934 15.5896 19.6449 15.6421C19.6963 15.6945 19.7622 15.7304 19.8342 15.7453C19.9062 15.7601 19.9809 15.7532 20.0489 15.7255C20.1169 15.6977 20.1751 15.6503 20.2161 15.5893C20.2571 15.5283 20.279 15.4565 20.279 15.383C20.2795 15.3349 20.2705 15.2871 20.2526 15.2424C20.2346 15.1977 20.208 15.157 20.1743 15.1227C20.1406 15.0883 20.1004 15.0609 20.0561 15.0421C20.0117 15.0233 19.9641 15.0134 19.916 15.013Z"
		fill="#FFE15A"
	/>
	<path
		d="M18.268 15.288H17.732C17.6611 15.2873 17.591 15.2727 17.5257 15.245C17.4605 15.2172 17.4013 15.1769 17.3516 15.1263C17.3019 15.0757 17.2627 15.0158 17.2362 14.95C17.2097 14.8843 17.1963 14.8139 17.197 14.743C17.1963 14.6721 17.2097 14.6017 17.2362 14.536C17.2627 14.4702 17.3019 14.4103 17.3516 14.3597C17.4013 14.3091 17.4605 14.2688 17.5257 14.241C17.591 14.2133 17.6611 14.1987 17.732 14.198H18.268C18.3389 14.1987 18.409 14.2133 18.4743 14.241C18.5395 14.2688 18.5987 14.3091 18.6484 14.3597C18.6981 14.4103 18.7373 14.4702 18.7638 14.536C18.7903 14.6017 18.8037 14.6721 18.803 14.743C18.8037 14.8139 18.7903 14.8843 18.7638 14.95C18.7373 15.0158 18.6981 15.0757 18.6484 15.1263C18.5987 15.1769 18.5395 15.2172 18.4743 15.245C18.409 15.2727 18.3389 15.2873 18.268 15.288Z"
		fill="#FFB478"
	/>
	<path
		d="M20.152 11.339C20.2329 11.606 20.3691 11.8539 20.5517 12.0648C20.7344 12.2757 20.9593 12.4468 21.212 12.565C21.747 7.665 18 8.207 18 8.207C20.676 8.207 20.152 11.339 20.152 11.339Z"
		fill="#9B4B5A"
	/>
</svg>
