<svg viewBox="0 0 36 24" fill="none" xmlns="http://www.w3.org/2000/svg">
	<path d="M36 24H3.05176e-05V0H36" fill="#41479B" />
	<path d="M22.877 7.081H31.123V13.565H22.877V7.081Z" fill="#82AFFF" />
	<path
		d="M22.877 13.565C22.877 15.776 25.313 17.569 27 17.569C28.5 17.569 31.123 15.776 31.123 13.565H22.877Z"
		fill="#C86464"
	/>
	<path
		d="M28.101 9.449C28.1513 9.4486 28.2011 9.45817 28.2476 9.47715C28.2941 9.49614 28.3364 9.52415 28.372 9.55958C28.4076 9.59502 28.4359 9.63716 28.4551 9.68358C28.4743 9.72999 28.4842 9.77976 28.484 9.83C28.4953 10.3805 28.4242 10.9295 28.273 11.459C28.471 11.9067 28.605 12.38 28.671 12.865C28.687 13.39 28.616 14.959 28.663 15.209C28.7245 15.4669 28.799 15.7216 28.886 15.972C28.886 15.972 28.347 15.65 28.136 15.852C27.926 16.055 27.152 16.33 26.848 16.008C27.0791 15.2834 27.2014 14.5285 27.211 13.768V9.631C27.3127 9.55437 27.4349 9.50981 27.562 9.503C27.762 9.499 28.101 9.448 28.101 9.448V9.449Z"
		fill="#73AF00"
	/>
	<path
		d="M28.774 8.213H27.211V7.462H26.672V8.213H25.109V8.761H26.672V15.972H27.211V8.761H28.774V8.213Z"
		fill="#464655"
	/>
	<path
		d="M27.851 9.186C27.851 9.186 28.374 9.34 28.445 9.163C28.527 8.956 28.253 8.928 28.202 8.71C28.197 8.685 28.148 8.392 27.937 8.336C27.727 8.281 27.531 8.336 27.523 8.479C27.601 8.728 27.7112 8.9657 27.851 9.186Z"
		fill="#963C3C"
	/>
	<path
		d="M25.43 13.31H25.477V14.256H25.431L25.43 13.31ZM25.619 14.44H25.666V13.128H25.619V14.44ZM25.807 14.606H25.854V12.96H25.807V14.606ZM25.996 14.845H26.043V12.72H25.996V14.845ZM26.184 15.157H26.231V12.407H26.184V15.157ZM26.373 12.407V15.285H26.42V12.408L26.373 12.407Z"
		fill="#464655"
	/>
	<path
		d="M27.219 13.914C27.19 13.5669 27.0872 13.2299 26.9175 12.9257C26.7478 12.6215 26.5152 12.3571 26.235 12.15C26.153 12.1382 26.0695 12.158 26.0014 12.2053C25.9333 12.2526 25.8856 12.324 25.868 12.405C25.8267 12.6529 25.7026 12.8796 25.516 13.048C25.29 13.215 24.868 13.31 24.774 13.62C24.7514 13.6676 24.7421 13.7205 24.7471 13.7729C24.7522 13.8254 24.7714 13.8755 24.8027 13.918C24.834 13.9604 24.8763 13.9935 24.9249 14.0137C24.9736 14.034 25.0269 14.0407 25.079 14.033C25.0902 14.0303 25.1012 14.0269 25.112 14.023L26.708 16.021C26.7212 16.0379 26.7385 16.0512 26.7582 16.0595C26.7779 16.0678 26.7995 16.0709 26.8208 16.0685C26.842 16.0661 26.8624 16.0582 26.8797 16.0457C26.8971 16.0332 26.911 16.0164 26.92 15.997C27.2335 15.3505 27.338 14.6225 27.219 13.914ZM25.246 13.936C25.2809 13.9028 25.3022 13.8578 25.3059 13.8098C25.3096 13.7618 25.2954 13.7142 25.266 13.676C25.149 13.509 25.016 13.747 25.016 13.747C25.016 13.747 24.978 13.541 25.282 13.437C25.4552 13.3933 25.6168 13.3124 25.7557 13.2C25.8945 13.0876 26.0072 12.9463 26.086 12.786C26.243 12.413 26.235 12.484 26.235 12.484C26.4612 12.6573 26.6433 12.8814 26.7667 13.1381C26.89 13.3949 26.9511 13.6772 26.945 13.962C27.0351 14.4963 26.959 15.0453 26.727 15.535L25.246 13.936Z"
		fill="#FFE15A"
	/>
	<path
		d="M28.6 16.131C28.57 16.179 28.546 16.346 28.491 16.457C28.446 16.5126 28.389 16.5573 28.3242 16.5876C28.2594 16.6179 28.1886 16.6331 28.117 16.632C27.999 16.632 28.202 16.123 28.234 16.067C28.264 16.012 28.202 15.901 28.179 15.75C28.2801 15.7549 28.38 15.7734 28.476 15.805C28.5184 15.8476 28.5514 15.8987 28.5729 15.9548C28.5945 16.0109 28.603 16.071 28.6 16.131ZM26.4 9.838C26.4303 9.67771 26.451 9.51576 26.462 9.353L26.486 8.789C26.596 8.72384 26.7004 8.64958 26.798 8.567C26.802 8.551 26.838 8.452 26.81 8.4C26.782 8.348 26.689 8.344 26.689 8.344C26.5621 8.4066 26.4416 8.48127 26.329 8.567C26.3329 8.66651 26.3197 8.76595 26.29 8.861C26.1755 9.12801 26.0842 9.40436 26.017 9.687C26.001 9.846 25.978 10.18 26.04 10.196C26.2981 10.2383 26.5596 10.2567 26.821 10.251C26.891 10.219 26.829 9.782 26.829 9.782L26.4 9.838ZM27.563 9.242C27.586 9.32782 27.586 9.41817 27.563 9.504C27.5347 9.62201 27.5374 9.74537 27.571 9.862C27.6852 9.83817 27.7923 9.78858 27.8844 9.717C27.9764 9.64542 28.0498 9.55375 28.101 9.449C28.0243 9.37567 27.978 9.27679 27.969 9.171C27.9127 9.12205 27.8605 9.06854 27.813 9.011C27.758 8.941 27.876 8.837 27.876 8.837C27.8184 8.77132 27.7877 8.68633 27.79 8.599C27.7397 8.59905 27.69 8.58838 27.6441 8.56768C27.5982 8.54699 27.5563 8.51676 27.523 8.479C27.4145 8.6971 27.3542 8.93561 27.344 9.179C27.344 9.266 27.563 9.242 27.563 9.242ZM26.491 11.628C26.345 11.705 26.169 11.783 26.151 11.854C26.134 11.926 26.035 11.985 26.041 12.069C26.046 12.152 26.041 12.402 26.041 12.402C26.128 12.385 26.304 12.355 26.363 12.247C26.421 12.14 26.473 11.932 26.661 11.842L26.673 11.837V11.517C26.6139 11.5561 26.5531 11.5928 26.491 11.627V11.628ZM28.371 10.305C28.389 10.078 28.313 9.953 28.225 9.995C28.0554 10.1323 27.921 10.3082 27.833 10.508C27.792 10.657 27.663 11.008 27.663 11.008C27.5061 11.03 27.3538 11.0773 27.212 11.148V11.669C27.2966 11.6469 27.3789 11.6171 27.458 11.58C27.6112 11.479 27.7717 11.3894 27.938 11.312C28.049 11.282 28.143 11.092 28.184 10.979C28.272 10.7622 28.3348 10.5361 28.371 10.305Z"
		fill="#FFF5E1"
	/>
	<path
		d="M22.746 6.947V13.183C22.7782 14.3231 23.2264 15.412 24.0062 16.2443C24.786 17.0766 25.8435 17.5947 26.979 17.701L26.999 17.704L27.021 17.701C28.1566 17.5947 29.214 17.0766 29.9938 16.2443C30.7736 15.412 31.2219 14.3231 31.254 13.183V6.947H22.746ZM30.992 13.183C30.9594 14.2565 30.5356 15.281 29.8004 16.0639C29.0652 16.8468 28.0693 17.334 27 17.434C25.9309 17.334 24.9351 16.8469 24.2 16.0643C23.4648 15.2816 23.0409 14.2573 23.008 13.184V7.214H30.992V13.183ZM16.302 0H18V1.133L13.067 4.42H18V7.578H13.067L18 10.867V12H16.301L10.551 8.167V12H7.44903V8.167L1.69803 12H3.05176e-05V10.867L4.93303 7.58H3.05176e-05V4.42H4.93303L3.05176e-05 1.133V0H1.69903L7.44903 3.833V0H10.552V3.833L16.302 0Z"
		fill="#F5F5F5"
	/>
	<path
		d="M18 6.947H9.93103V12H8.06903V6.947H3.05176e-05V5.053H8.06903V0H9.93103V5.053H18V6.947ZM6.82803 4.421L0.166031 0.001H3.05176e-05V0.664L5.68803 4.421H6.82803ZM18 0.253V0H17.245L10.552 4.421H11.692L18 0.253ZM3.05176e-05 11.729V12H0.73803L7.43003 7.579H6.29003L3.05176e-05 11.729ZM18 11.423L12.178 7.579H11.038L17.512 12H18V11.423Z"
		fill="#FF4B55"
	/>
</svg>
