<svg viewBox="0 0 36 24" fill="none" xmlns="http://www.w3.org/2000/svg">
	<path d="M36 8H0V0H36V8ZM36 24H0V16H36V24Z" fill="#41479B" />
	<path d="M0 8H36V16H0V8Z" fill="#F5F5F5" />
	<path d="M18 9.744L16.107 12.577H19.893L18 9.744Z" fill="#AFEBFF" />
	<path
		d="M16.107 12.521L14.882 14.334H21.118L19.893 12.521H16.107Z"
		fill="#557DE6"
	/>
	<path
		d="M20.274 12.974C20.1675 12.974 20.0626 12.9483 19.9683 12.899C19.8739 12.8498 19.7928 12.7784 19.732 12.691C19.5939 12.494 19.4904 12.2748 19.426 12.043C19.4172 12.0158 19.3998 11.9922 19.3763 11.976C19.3528 11.9597 19.3245 11.9516 19.296 11.953C19.347 12.1348 19.3452 12.3273 19.2908 12.5081C19.2364 12.6889 19.1318 12.8505 18.989 12.974H18.727L18.695 12.948C18.6555 12.9958 18.6006 13.0285 18.5398 13.0406C18.4789 13.0526 18.4157 13.0432 18.361 13.014C17.885 12.764 17.959 12.219 17.989 11.954C17.9605 11.9526 17.9322 11.9607 17.9087 11.977C17.8852 11.9932 17.8678 12.0168 17.859 12.044C17.8181 12.1934 17.7604 12.3376 17.687 12.474C17.801 12.6542 17.9435 12.8146 18.109 12.949C18.0693 12.9967 18.0144 13.0292 17.9536 13.041C17.8927 13.0529 17.8296 13.0433 17.775 13.014C17.298 12.764 17.372 12.219 17.402 11.954C17.3735 11.9526 17.3452 11.9607 17.3217 11.977C17.2982 11.9932 17.2808 12.0168 17.272 12.044C17.2311 12.1934 17.1734 12.3376 17.1 12.474C17.214 12.6542 17.3565 12.8146 17.522 12.949C17.4823 12.9967 17.4274 13.0292 17.3666 13.041C17.3057 13.0529 17.2426 13.0433 17.188 13.014C16.711 12.764 16.785 12.219 16.815 11.954C16.7865 11.9526 16.7582 11.9607 16.7347 11.977C16.7112 11.9932 16.6938 12.0168 16.685 12.044C16.6205 12.2755 16.517 12.4943 16.379 12.691C16.3183 12.7783 16.2374 12.8495 16.1432 12.8988C16.049 12.9481 15.9443 12.9739 15.838 12.974H15.661V13.201H20.339V12.974H20.274ZM19.012 12.474C18.9382 12.3377 18.8802 12.1934 18.839 12.044C18.8302 12.0168 18.8128 11.9932 18.7893 11.977C18.7658 11.9607 18.7375 11.9526 18.709 11.954C18.7766 12.2535 18.7242 12.5677 18.563 12.829C18.59 12.854 18.616 12.879 18.643 12.902C18.7868 12.7783 18.9112 12.6337 19.012 12.473V12.474Z"
		fill="#73AF00"
	/>
	<path
		d="M17.062 11.052L17.034 11.161C17.6884 10.963 18.3866 10.963 19.041 11.161L19.013 11.052C18.3733 10.8856 17.7017 10.8856 17.062 11.052Z"
		fill="#41479B"
	/>
	<path
		d="M17.074 11.005L17.046 11.114C17.6921 10.9154 18.3829 10.9154 19.029 11.114L19.001 11.005C18.3695 10.838 17.7055 10.838 17.074 11.005Z"
		fill="#5AA0E6"
	/>
	<path
		d="M17.085 10.961L17.057 11.07C17.6952 10.871 18.3788 10.871 19.017 11.07L18.99 10.961C18.3661 10.7932 17.7089 10.7932 17.085 10.961Z"
		fill="#9BC800"
	/>
	<path
		d="M17.098 10.912L17.07 11.02C17.6995 10.8203 18.3755 10.8203 19.005 11.02L18.977 10.912C18.3617 10.7435 17.7133 10.7435 17.098 10.912Z"
		fill="#FFE14E"
	/>
	<path
		d="M17.11 10.863L17.082 10.971C17.7029 10.7705 18.3711 10.7705 18.992 10.971L18.965 10.863C18.3582 10.6939 17.7168 10.6939 17.11 10.863Z"
		fill="#FFB14E"
	/>
	<path
		d="M18.037 10.767C17.7174 10.7667 17.3997 10.8173 17.096 10.917L17.116 10.842C17.7187 10.6728 18.3563 10.6728 18.959 10.842L18.979 10.918C18.6751 10.8177 18.357 10.7667 18.037 10.767ZM17.955 11.243C17.9155 11.2384 17.8757 11.2494 17.8441 11.2737C17.8126 11.298 17.7917 11.3336 17.786 11.373C17.7868 11.3908 17.7918 11.4082 17.8005 11.4239C17.8091 11.4395 17.8213 11.4529 17.836 11.463V11.467C17.8178 11.4768 17.8024 11.4912 17.7913 11.5087C17.7803 11.5262 17.774 11.5463 17.773 11.567C17.7782 11.6038 17.797 11.6374 17.8257 11.6611C17.8543 11.6848 17.8908 11.6969 17.928 11.695L18 11.841L18.065 11.709C18.1098 11.6944 18.1486 11.6654 18.1754 11.6265C18.2021 11.5877 18.2153 11.5411 18.213 11.494C18.2082 11.4279 18.1792 11.366 18.1316 11.3199C18.084 11.2738 18.0212 11.2468 17.955 11.244V11.243Z"
		fill="#FF4B55"
	/>
	<path
		d="M17.989 11.953C18.0209 11.9528 18.0519 11.9634 18.077 11.983C18.0889 11.992 18.099 12.0032 18.1065 12.0161C18.1141 12.029 18.119 12.0432 18.121 12.058C18.1264 12.1022 18.1351 12.146 18.147 12.189C18.151 12.204 18.157 12.217 18.162 12.232C18.171 12.26 18.18 12.288 18.192 12.315C18.198 12.331 18.206 12.346 18.214 12.362C18.2442 12.4267 18.28 12.4886 18.321 12.547L18.349 12.587L18.377 12.547C18.392 12.526 18.407 12.503 18.42 12.481L18.448 12.434C18.461 12.411 18.473 12.386 18.484 12.362L18.507 12.315C18.518 12.288 18.527 12.26 18.537 12.232L18.551 12.189C18.5629 12.146 18.5716 12.1022 18.577 12.058C18.5812 12.0282 18.597 12.0012 18.621 11.983C18.633 11.9735 18.6465 11.9661 18.661 11.961C18.6765 11.9557 18.6927 11.953 18.709 11.953C18.7768 12.2529 18.7244 12.5673 18.563 12.829C18.59 12.854 18.616 12.879 18.643 12.902C18.7988 12.7689 18.9313 12.6107 19.035 12.434C19.048 12.411 19.06 12.386 19.071 12.362L19.094 12.315C19.1052 12.2878 19.1152 12.2601 19.124 12.232L19.138 12.189C19.1498 12.146 19.1585 12.1022 19.164 12.058C19.166 12.0432 19.1709 12.029 19.1785 12.0161C19.186 12.0032 19.1961 11.992 19.208 11.983C19.2332 11.9635 19.2641 11.9529 19.296 11.953C19.347 12.1348 19.3452 12.3273 19.2908 12.5081C19.2364 12.6887 19.1317 12.8496 18.989 12.973H18.769C18.7147 12.9744 18.6616 12.9888 18.614 13.015C18.5747 13.0347 18.5312 13.0448 18.4873 13.0444C18.4433 13.0441 18.4 13.0333 18.361 13.013C17.885 12.763 17.959 12.219 17.989 11.953ZM17.663 12.434C17.6502 12.4104 17.6382 12.3864 17.627 12.362L17.604 12.315C17.5928 12.2878 17.5828 12.2601 17.574 12.232L17.56 12.189C17.5482 12.1464 17.5395 12.1029 17.534 12.059V12.058C17.532 12.0432 17.5271 12.029 17.5195 12.0161C17.512 12.0032 17.5019 11.992 17.49 11.983C17.478 11.9735 17.4645 11.9661 17.45 11.961C17.4346 11.9557 17.4183 11.953 17.402 11.953C17.372 12.219 17.298 12.763 17.774 13.013C17.8287 13.0426 17.8925 13.0529 17.9536 13.041C18.0147 13.0292 18.0693 12.9959 18.109 12.948C17.9309 12.8047 17.7798 12.6306 17.663 12.434ZM17.076 12.434C17.0632 12.4104 17.0512 12.3864 17.04 12.362C17.0197 12.3199 17.0023 12.2765 16.988 12.232L16.973 12.189C16.9612 12.1464 16.9525 12.1029 16.947 12.059V12.058C16.9432 12.0283 16.9277 12.0013 16.904 11.983C16.8783 11.963 16.8466 11.9524 16.814 11.953C16.785 12.219 16.711 12.763 17.188 13.013C17.2425 13.0424 17.3057 13.0527 17.3666 13.041C17.4274 13.0292 17.4823 12.9967 17.522 12.949C17.3438 12.8054 17.1927 12.6309 17.076 12.434ZM21.216 14.384C21.2067 14.402 21.1926 14.4171 21.1754 14.4277C21.1581 14.4382 21.1383 14.4439 21.118 14.444H14.882C14.8616 14.4441 14.8415 14.4385 14.8241 14.4279C14.8066 14.4173 14.7924 14.4021 14.783 14.384C14.7736 14.3659 14.7692 14.3456 14.7703 14.3252C14.7713 14.3048 14.7778 14.2851 14.789 14.268L17.907 9.508C17.9177 9.49333 17.9317 9.4814 17.9478 9.47317C17.964 9.46494 17.9819 9.46065 18 9.46065C18.0181 9.46065 18.036 9.46494 18.0522 9.47317C18.0683 9.4814 18.0823 9.49333 18.093 9.508L21.211 14.268C21.2222 14.2851 21.2287 14.3048 21.2297 14.3252C21.2308 14.3456 21.2254 14.3659 21.216 14.384ZM20.91 14.217L18 9.775L15.09 14.217H20.91Z"
		fill="#FFE15A"
	/>
</svg>
