<svg viewBox="0 0 36 24" fill="none" xmlns="http://www.w3.org/2000/svg">
	<path d="M0 8H36V16H0V8Z" fill="#F5F5F5" />
	<path
		d="M36 0V8H0V0H36ZM21.103 12C21.0924 12.6115 20.9013 13.2063 20.5538 13.7096C20.2062 14.2129 19.7178 14.6024 19.1497 14.829C18.5816 15.0557 17.9592 15.1094 17.3606 14.9836C16.7621 14.8577 16.2141 14.5578 15.7854 14.1215C15.3567 13.6852 15.0665 13.132 14.9512 12.5314C14.8358 11.9307 14.9005 11.3093 15.1371 10.7453C15.3737 10.1813 15.7716 9.69974 16.281 9.36112C16.7903 9.02249 17.3884 8.8419 18 8.842C18.8302 8.84939 19.6235 9.18624 20.2054 9.77846C20.7873 10.3707 21.1102 11.1698 21.103 12ZM20.341 12C20.3327 11.5391 20.1885 11.0909 19.9265 10.7117C19.6644 10.3325 19.2962 10.0391 18.868 9.86839C18.4398 9.69767 17.9707 9.65723 17.5197 9.75212C17.0686 9.84702 16.6556 10.073 16.3324 10.4018C16.0093 10.7306 15.7905 11.1474 15.7035 11.6001C15.6164 12.0528 15.665 12.5211 15.8431 12.9462C16.0213 13.3714 16.321 13.7345 16.7047 13.9899C17.0884 14.2453 17.539 14.3817 18 14.382C18.3101 14.3793 18.6165 14.3155 18.9019 14.1943C19.1873 14.0731 19.4461 13.8968 19.6634 13.6757C19.8806 13.4545 20.0522 13.1926 20.1683 12.9051C20.2844 12.6176 20.3438 12.3101 20.341 12Z"
		fill="#FF4B55"
	/>
	<path
		d="M36 16V24H0V16H36ZM18 13.095C18.2176 13.0988 18.4314 13.0377 18.6141 12.9195C18.7968 12.8014 18.9403 12.6315 19.0261 12.4315C19.112 12.2316 19.1363 12.0106 19.0961 11.7967C19.0559 11.5828 18.953 11.3858 18.8004 11.2306C18.6478 11.0755 18.4525 10.9693 18.2393 10.9255C18.0261 10.8818 17.8048 10.9025 17.6034 10.985C17.402 11.0675 17.2298 11.2081 17.1086 11.3889C16.9875 11.5697 16.9228 11.7824 16.923 12C16.9218 12.1426 16.9487 12.2841 17.0022 12.4163C17.0557 12.5485 17.1347 12.6689 17.2347 12.7706C17.3347 12.8722 17.4538 12.9532 17.5851 13.0089C17.7164 13.0646 17.8574 13.0938 18 13.095Z"
		fill="#41479B"
	/>
	<path
		d="M18.07 11.17L18.244 11.7L18.792 11.704C18.8078 11.7041 18.8232 11.7093 18.8359 11.7187C18.8487 11.7281 18.8581 11.7413 18.8629 11.7564C18.8677 11.7715 18.8675 11.7877 18.8625 11.8027C18.8575 11.8177 18.8479 11.8308 18.835 11.84L18.395 12.171L18.56 12.703C18.5653 12.718 18.5656 12.7342 18.561 12.7494C18.5563 12.7646 18.5469 12.7778 18.5341 12.7873C18.5214 12.7967 18.5059 12.8017 18.49 12.8017C18.4742 12.8016 18.4587 12.7965 18.446 12.787L18 12.463L17.554 12.787C17.5413 12.7965 17.5258 12.8016 17.51 12.8017C17.4941 12.8017 17.4786 12.7967 17.4659 12.7873C17.4531 12.7778 17.4437 12.7646 17.439 12.7494C17.4344 12.7342 17.4347 12.718 17.44 12.703L17.606 12.171L17.165 11.84C17.1521 11.8308 17.1425 11.8177 17.1375 11.8027C17.1325 11.7877 17.1323 11.7715 17.1371 11.7564C17.1419 11.7413 17.1513 11.7281 17.1641 11.7187C17.1768 11.7093 17.1922 11.7041 17.208 11.704L17.756 11.7L17.93 11.17C17.935 11.1554 17.9444 11.1427 17.957 11.1338C17.9695 11.1248 17.9846 11.12 18 11.12C18.0154 11.12 18.0305 11.1248 18.043 11.1338C18.0556 11.1427 18.065 11.1554 18.07 11.17Z"
		fill="#FFE15A"
	/>
	<path
		d="M20.036 12.026C20.036 12.026 20.098 11.736 19.795 12.083C19.7974 12.023 19.7961 11.9629 19.791 11.903C19.8497 11.8203 19.8913 11.7269 19.9137 11.628C19.936 11.5291 19.9385 11.4268 19.921 11.327C19.921 11.327 19.873 11.035 19.717 11.471C19.6944 11.4017 19.6653 11.3347 19.63 11.271C19.6871 11.1085 19.6785 10.9302 19.606 10.774C19.606 10.774 19.501 10.54 19.468 10.942C19.4293 10.8804 19.3814 10.8251 19.326 10.778C19.3298 10.7133 19.3208 10.6486 19.2993 10.5874C19.2778 10.5263 19.2444 10.4701 19.201 10.422C19.201 10.422 19.074 10.277 19.138 10.574C19.138 10.574 19.022 10.478 18.985 10.489C18.93 10.3702 18.8376 10.2725 18.722 10.211C18.722 10.211 18.56 10.121 18.746 10.356C18.746 10.356 18.582 10.29 18.584 10.328C18.586 10.366 18.665 10.436 18.731 10.468C18.731 10.468 18.489 10.493 18.588 10.548C18.7144 10.5945 18.8529 10.5955 18.98 10.551C18.9924 10.599 19.0168 10.6431 19.051 10.679C19.051 10.679 18.764 10.622 18.842 10.709C18.9658 10.8003 19.1162 10.8484 19.27 10.846C19.2705 10.9135 19.2869 10.98 19.318 11.04C19.318 11.04 18.976 10.854 19.041 10.996C19.1609 11.1561 19.3276 11.2749 19.518 11.336C19.5065 11.4016 19.5078 11.4689 19.522 11.534C19.522 11.534 19.197 11.222 19.226 11.4C19.3074 11.6117 19.451 11.7937 19.638 11.922C19.6147 11.9683 19.5985 12.0179 19.59 12.069C19.59 12.069 19.4 11.657 19.364 11.834C19.3625 12.07 19.4361 12.3005 19.574 12.492C19.5256 12.5329 19.4853 12.5824 19.455 12.638C19.455 12.638 19.414 12.186 19.321 12.339C19.2473 12.5442 19.2328 12.7659 19.279 12.979C19.2183 12.9972 19.1617 13.0267 19.112 13.066C19.112 13.066 19.25 12.633 19.105 12.736C18.955 12.906 18.8583 13.1164 18.827 13.341C18.7463 13.3424 18.6674 13.3648 18.598 13.406C18.598 13.406 18.795 12.997 18.636 13.079C18.4702 13.2218 18.3475 13.4082 18.282 13.617L17.989 13.787L17.805 13.677L17.806 13.675L17.166 13.128L17.178 13.307L16.857 12.722L16.817 12.921L16.712 12.274L16.618 12.369L16.654 11.765L16.533 11.832L16.753 11.383L16.65 11.413L16.923 11.146L16.779 11.159L17.124 10.999L16.998 10.979L17.335 10.806L17.19 10.799L17.627 10.645L17.547 10.573L17.926 10.46L17.472 10.425L17.602 10.263L17.255 10.443L17.305 10.199L17.002 10.517L17.055 10.295L16.771 10.581L16.79 10.365L16.51 10.847L16.474 10.631L16.241 11.173L16.177 10.937L16.073 11.609L15.986 11.509L16.1 12.157L15.956 12.047L16.221 12.629C16.1504 12.5965 16.0779 12.5682 16.004 12.544C15.98 12.544 16.464 13.044 16.464 13.044L16.212 13.017L16.7 13.367L16.519 13.413L16.925 13.573L16.825 13.652L17.668 13.712C17.668 13.712 17.748 13.782 17.859 13.862L17.718 13.942C17.7024 13.9506 17.6849 13.9556 17.6671 13.9565C17.6492 13.9573 17.6314 13.9541 17.615 13.947L17.363 13.842C17.3641 13.9088 17.3914 13.9726 17.4391 14.0194C17.4869 14.0662 17.5511 14.0923 17.618 14.092C17.752 14.0761 17.8799 14.0269 17.99 13.949C18.1029 14.0331 18.2354 14.0868 18.375 14.105C18.441 14.1042 18.504 14.0776 18.5506 14.0309C18.5971 13.9841 18.6235 13.921 18.624 13.855C18.569 13.878 18.456 13.926 18.378 13.961C18.3619 13.968 18.3443 13.9711 18.3268 13.9701C18.3092 13.969 18.2922 13.9639 18.277 13.955C18.2248 13.9253 18.1728 13.8953 18.121 13.865C18.187 13.819 18.243 13.777 18.282 13.746C18.343 13.796 18.519 13.881 18.911 13.732C18.911 13.732 19.171 13.599 18.715 13.577C18.7651 13.5394 18.8126 13.4983 18.857 13.454C18.932 13.493 19.117 13.539 19.467 13.343C19.467 13.343 19.707 13.173 19.253 13.218C19.2912 13.1797 19.3272 13.1393 19.361 13.097C19.439 13.106 19.633 13.085 19.889 12.751C19.889 12.751 20.043 12.499 19.643 12.722C19.671 12.6542 19.6925 12.5839 19.707 12.512C19.7916 12.4571 19.8644 12.3858 19.9211 12.3023C19.9777 12.2189 20.0172 12.1249 20.037 12.026H20.036Z"
		fill="#64C86E"
	/>
</svg>
