<svg viewBox="0 0 36 24" fill="none" xmlns="http://www.w3.org/2000/svg">
	<path
		d="M36 0V4.8H0V0H36ZM0 14.4H36V9.6H0V14.4ZM0 24H36V19.2H0V24Z"
		fill="#FF4B55"
	/>
	<path d="M36 4.8V9.6H0V4.8H36ZM0 19.2H36V14.4H0V19.2Z" fill="#F5F5F5" />
	<path
		d="M0 24L17.41 12.394C17.4746 12.3505 17.5274 12.2919 17.564 12.2232C17.6006 12.1545 17.6197 12.0778 17.6197 12C17.6197 11.9222 17.6006 11.8455 17.564 11.7768C17.5274 11.7081 17.4746 11.6495 17.41 11.606L0 0"
		fill="#41479B"
	/>
	<path
		d="M6.341 9.069L6.989 11.045L9.036 11.061C9.09442 11.0626 9.1509 11.0824 9.19761 11.1175C9.24433 11.1526 9.27898 11.2014 9.29677 11.2571C9.31456 11.3127 9.31461 11.3726 9.29692 11.4283C9.27922 11.484 9.24466 11.5328 9.198 11.568L7.55 12.805L8.167 14.791C8.18529 14.8464 8.18563 14.9061 8.16799 14.9617C8.15034 15.0173 8.11561 15.0658 8.06874 15.1005C8.02186 15.1352 7.96524 15.1542 7.90693 15.1548C7.84862 15.1555 7.7916 15.1377 7.744 15.104L6.078 13.894L4.413 15.104C4.36541 15.1381 4.30825 15.1562 4.24972 15.1558C4.19119 15.1554 4.1343 15.1364 4.08721 15.1017C4.04011 15.0669 4.00524 15.0181 3.9876 14.9623C3.96996 14.9065 3.97045 14.8465 3.989 14.791L4.607 12.805L2.96 11.568C2.9134 11.5329 2.87886 11.4841 2.86113 11.4285C2.84341 11.3729 2.84337 11.3131 2.86104 11.2575C2.87871 11.2019 2.9132 11.1531 2.95976 11.1179C3.00632 11.0827 3.06266 11.0628 3.121 11.061L5.169 11.045L5.817 9.069C5.83443 9.01329 5.8692 8.9646 5.91624 8.93003C5.96328 8.89546 6.02012 8.87682 6.0785 8.87682C6.13688 8.87682 6.19372 8.89546 6.24076 8.93003C6.2878 8.9646 6.32357 9.01329 6.341 9.069Z"
		fill="#F5F5F5"
	/>
</svg>
