<svg viewBox="0 0 36 24" fill="none" xmlns="http://www.w3.org/2000/svg">
	<path d="M36 24H0V12H36V24Z" fill="#41479B" />
	<path d="M0 0H36V12H0V0Z" fill="#FF4B55" />
	<path d="M18 0L0 12L18 24L36 12L18 0Z" fill="#F5F5F5" />
	<path
		d="M18.186 5.039L19.676 9.4L24.213 9.495C24.2543 9.4966 24.294 9.51086 24.3269 9.53585C24.3598 9.56085 24.3841 9.59535 24.3967 9.63469C24.4093 9.67402 24.4094 9.71627 24.3971 9.75568C24.3848 9.7951 24.3607 9.82978 24.328 9.855L20.712 12.645L22.026 17.065C22.0382 17.1043 22.0378 17.1464 22.025 17.1854C22.0122 17.2245 21.9875 17.2586 21.9544 17.283C21.9213 17.3074 21.8815 17.3209 21.8403 17.3216C21.7992 17.3223 21.7589 17.3102 21.725 17.287L18 14.649L14.275 17.287C14.241 17.3104 14.2006 17.3226 14.1593 17.3219C14.118 17.3212 14.078 17.3076 14.0448 17.283C14.0117 17.2584 13.987 17.2241 13.9743 17.1849C13.9616 17.1456 13.9615 17.1033 13.974 17.064L15.288 12.644L11.672 9.854C11.6393 9.82878 11.6152 9.7941 11.6029 9.75469C11.5906 9.71527 11.5907 9.67302 11.6033 9.63369C11.6159 9.59435 11.6402 9.55985 11.6731 9.53485C11.706 9.50986 11.7457 9.4956 11.787 9.494L16.324 9.4L17.814 5.039C17.827 4.99993 17.8519 4.96594 17.8853 4.94186C17.9187 4.91777 17.9588 4.90481 18 4.90481C18.0412 4.90481 18.0813 4.91777 18.1147 4.94186C18.1481 4.96594 18.173 4.99993 18.186 5.039Z"
		fill="#FFE15A"
	/>
</svg>
