<svg viewBox="0 0 36 24" fill="none" xmlns="http://www.w3.org/2000/svg">
	<path
		d="M35.38 24H0V0H36V23.368C36.0008 23.4502 35.9854 23.5318 35.9547 23.608C35.9239 23.6843 35.8785 23.7537 35.8209 23.8124C35.7633 23.8711 35.6948 23.9179 35.6191 23.9501C35.5435 23.9822 35.4622 23.9992 35.38 24Z"
		fill="#73AF00"
	/>
	<path
		d="M29.205 0L0 19.47V17.582L26.373 0H29.205ZM6.795 24H9.627L36 6.418V4.53L6.795 24Z"
		fill="#FFE15A"
	/>
	<path d="M36 4.53V0H29.205L0 19.47V24H6.795L36 4.53Z" fill="#464655" />
	<path
		d="M14.475 16.864L12.841 16.782L12.235 18.328C12.2179 18.371 12.1876 18.4075 12.1486 18.4323C12.1095 18.4571 12.0636 18.4689 12.0175 18.4662C11.9713 18.4634 11.9272 18.4461 11.8913 18.4168C11.8555 18.3875 11.8299 18.3477 11.818 18.303L11.39 16.697L9.758 16.589C9.71132 16.5852 9.66698 16.567 9.63115 16.5369C9.59533 16.5067 9.5698 16.4661 9.55813 16.4208C9.54646 16.3754 9.54924 16.3276 9.56606 16.2839C9.58289 16.2402 9.61293 16.2028 9.652 16.177L11.022 15.267L10.618 13.654C10.6057 13.6089 10.6081 13.5611 10.6247 13.5175C10.6413 13.4738 10.6713 13.4366 10.7104 13.411C10.7495 13.3855 10.7957 13.373 10.8423 13.3753C10.8889 13.3776 10.9336 13.3947 10.97 13.424L12.244 14.468L13.627 13.579C13.6666 13.5542 13.7131 13.5426 13.7597 13.5458C13.8064 13.549 13.8508 13.5668 13.8867 13.5968C13.9226 13.6267 13.9482 13.6672 13.9597 13.7125C13.9712 13.7578 13.9682 13.8055 13.951 13.849L13.369 15.404L14.626 16.468C14.6613 16.4982 14.6864 16.5385 14.6979 16.5835C14.7093 16.6284 14.7066 16.6758 14.6901 16.7192C14.6735 16.7626 14.644 16.7998 14.6055 16.8257C14.567 16.8516 14.5214 16.865 14.475 16.864ZM26.368 8.626L25.11 7.562L25.692 6.006C25.7092 5.96254 25.7122 5.91476 25.7007 5.86947C25.6892 5.82418 25.6636 5.78368 25.6277 5.75376C25.5918 5.72384 25.5474 5.70601 25.5007 5.70282C25.4541 5.69964 25.4076 5.71125 25.368 5.736L23.985 6.626L22.711 5.582C22.6746 5.55268 22.6299 5.53563 22.5833 5.5333C22.5367 5.53097 22.4905 5.54347 22.4514 5.56902C22.4123 5.59456 22.3823 5.63184 22.3657 5.67549C22.3491 5.71914 22.3467 5.76693 22.359 5.812L22.763 7.424L21.393 8.334C21.3539 8.35987 21.3238 8.39732 21.3071 8.4411C21.2903 8.48489 21.2876 8.53282 21.2994 8.57821C21.3112 8.6236 21.3368 8.66417 21.3728 8.69425C21.4088 8.72434 21.4532 8.74243 21.5 8.746L23.132 8.855L23.559 10.461C23.5706 10.5061 23.5962 10.5463 23.6321 10.5759C23.6681 10.6055 23.7124 10.6229 23.7589 10.6257C23.8054 10.6285 23.8515 10.6164 23.8907 10.5913C23.9299 10.5662 23.9601 10.5294 23.977 10.486L24.582 8.939L26.216 9.022C26.2625 9.02321 26.3082 9.00999 26.3469 8.98415C26.3855 8.95831 26.4152 8.92112 26.4319 8.8777C26.4486 8.83429 26.4514 8.78677 26.4399 8.7417C26.4285 8.69663 26.4034 8.65621 26.368 8.626Z"
		fill="#F5F5F5"
	/>
	<path d="M36 24V6.418L9.627 24H36Z" fill="#FF4B55" />
</svg>
