<svg viewBox="0 0 36 24" fill="none" xmlns="http://www.w3.org/2000/svg">
	<path d="M0 0H36V12H0V0Z" fill="#FF4B55" />
	<path d="M36 24H0V12H36V24Z" fill="#41479B" />
	<path
		d="M0 24L17.41 12.394C17.4746 12.3505 17.5274 12.2919 17.564 12.2232C17.6006 12.1545 17.6197 12.0778 17.6197 12C17.6197 11.9222 17.6006 11.8455 17.564 11.7768C17.5274 11.7081 17.4746 11.6495 17.41 11.606L0 0"
		fill="#F5F5F5"
	/>
	<path
		d="M8.746 11.4C8.754 11.64 8.78 11.888 8.804 12.128C8.902 13.07 8.986 13.884 8.097 14.199C7.84451 14.2742 7.58582 14.3268 7.324 14.356C6.98978 14.3743 6.66295 14.4615 6.364 14.612C6.06505 14.4615 5.73822 14.3743 5.404 14.356C5.14218 14.3267 4.88349 14.2742 4.631 14.199C3.741 13.883 3.826 13.07 3.923 12.129C3.948 11.889 3.973 11.64 3.982 11.399C3.99093 10.6698 3.89872 9.94288 3.708 9.239C3.97568 9.34965 4.26343 9.40346 4.553 9.397C4.72105 9.38964 4.8886 9.37362 5.055 9.349C5.46834 9.2586 5.89755 9.27096 6.305 9.385L6.365 9.412L6.424 9.385C6.83145 9.27096 7.26066 9.2586 7.674 9.349C7.83973 9.37355 8.00662 9.38957 8.174 9.397C8.4639 9.40354 8.752 9.34973 9.02 9.239C8.82909 9.94284 8.73688 10.6708 8.746 11.4Z"
		fill="#8CD7FF"
	/>
	<path
		d="M9.07 11.389C9.06657 10.5633 9.19173 9.74216 9.441 8.955L9.186 8.773C8.89128 8.97631 8.53881 9.07907 8.181 9.066C8.02467 9.05895 7.8688 9.04393 7.714 9.021C7.26731 8.92849 6.80529 8.94046 6.364 9.056C5.9227 8.94054 5.46069 8.92856 5.014 9.021C4.85919 9.04386 4.70333 9.05888 4.547 9.066C4.1892 9.079 3.83675 8.97624 3.542 8.773L3.287 8.955C3.53585 9.74223 3.66067 10.5634 3.657 11.389C3.65 11.617 3.624 11.859 3.6 12.094C3.503 13.038 3.392 14.109 4.524 14.511C4.79695 14.5906 5.07584 14.6481 5.358 14.683C6.232 14.83 6.364 15.058 6.364 15.058C6.364 15.058 6.496 14.83 7.37 14.683C7.65216 14.6481 7.93105 14.5906 8.204 14.511C9.336 14.11 9.225 13.038 9.127 12.094C9.103 11.859 9.078 11.617 9.071 11.389H9.07ZM8.746 11.4C8.754 11.641 8.78 11.888 8.804 12.128C8.902 13.07 8.986 13.884 8.097 14.199C7.84451 14.2742 7.58582 14.3268 7.324 14.356C6.98978 14.3743 6.66295 14.4615 6.364 14.612C6.06505 14.4615 5.73822 14.3743 5.404 14.356C5.14218 14.3267 4.88349 14.2742 4.631 14.199C3.741 13.883 3.826 13.07 3.923 12.129C3.948 11.889 3.973 11.64 3.982 11.399C3.99093 10.6698 3.89872 9.94288 3.708 9.239C3.97568 9.34965 4.26343 9.40346 4.553 9.397C4.72105 9.38964 4.8886 9.37362 5.055 9.349C5.46834 9.2586 5.89755 9.27096 6.305 9.385L6.365 9.412L6.424 9.385C6.83145 9.27096 7.26066 9.2586 7.674 9.349C7.83973 9.37355 8.00662 9.38957 8.174 9.397C8.4639 9.40354 8.752 9.34973 9.02 9.239C8.82909 9.94284 8.73688 10.6708 8.746 11.4Z"
		fill="#FF4B55"
	/>
	<path
		d="M4.474 10.052C4.43404 9.89173 4.41389 9.72717 4.414 9.562C4.41548 9.07041 4.60015 8.59703 4.93194 8.2343C5.26373 7.87156 5.71881 7.64553 6.20832 7.60033C6.69782 7.55513 7.1866 7.69402 7.5792 7.98987C7.97179 8.28572 8.24002 8.71729 8.33148 9.20029C8.42295 9.6833 8.3311 10.1831 8.07386 10.602C7.81662 11.0209 7.41247 11.3289 6.94033 11.4658C6.46819 11.6027 5.96197 11.5587 5.52053 11.3424C5.07909 11.1261 4.73412 10.753 4.553 10.296C4.53506 10.292 4.51895 10.2822 4.50718 10.2681C4.49542 10.254 4.48867 10.2364 4.488 10.218C4.46625 10.217 4.44575 10.2075 4.43082 10.1917C4.4159 10.1758 4.40772 10.1548 4.408 10.133C4.40828 10.1142 4.41497 10.096 4.42697 10.0814C4.43896 10.0669 4.45555 10.0569 4.474 10.053V10.052ZM9.856 12.042C9.86293 12.9759 9.49919 13.8744 8.84456 14.5405C8.18993 15.2065 7.29786 15.5858 6.364 15.595C5.42996 15.5858 4.53774 15.2064 3.88308 14.5401C3.22842 13.8738 2.8648 12.9751 2.872 12.041H2.06C2.0512 13.1922 2.49942 14.2999 3.3063 15.121C4.11318 15.9421 5.21283 16.4096 6.364 16.421C7.51517 16.4096 8.61482 15.9421 9.4217 15.121C10.2286 14.2999 10.6768 13.1922 10.668 12.041L9.856 12.042Z"
		fill="#FFE15A"
	/>
	<path
		d="M5.036 10.419C5.05014 10.4689 5.0528 10.5214 5.0438 10.5725C5.03479 10.6235 5.01435 10.6719 4.984 10.714C4.90751 10.679 4.84736 10.616 4.816 10.538L4.812 10.548C4.79346 10.5959 4.76417 10.639 4.72637 10.6738C4.68858 10.7087 4.64329 10.7344 4.594 10.749C4.56984 10.703 4.5564 10.6521 4.55466 10.6001C4.55293 10.5482 4.56296 10.4965 4.584 10.449C4.60267 10.4012 4.63202 10.3584 4.6698 10.3237C4.70759 10.289 4.75281 10.2635 4.802 10.249L4.808 10.261C4.81783 10.2349 4.83129 10.2103 4.848 10.188C4.89478 10.2095 4.93604 10.2414 4.96862 10.2812C5.0012 10.3211 5.02425 10.3689 5.036 10.419ZM5.266 10.089C5.30391 10.0669 5.33705 10.0375 5.36349 10.0025C5.38992 9.96744 5.40913 9.92751 5.42 9.885C5.37482 9.86126 5.32473 9.84837 5.27371 9.84733C5.22268 9.84628 5.17211 9.85713 5.126 9.879C5.08347 9.89731 5.04507 9.92402 5.01311 9.95753C4.98115 9.99104 4.95628 10.0307 4.94 10.074L4.92 10.086C4.93594 10.135 4.96289 10.1796 4.99877 10.2165C5.03465 10.2535 5.07852 10.2817 5.127 10.299C5.17435 10.318 5.22548 10.3257 5.27633 10.3215C5.32718 10.3174 5.37637 10.3014 5.42 10.275C5.39441 10.1953 5.33931 10.1294 5.266 10.089ZM4.609 10.132C4.69105 10.1578 4.77865 10.1602 4.862 10.139C4.81857 10.0017 4.72308 9.8868 4.596 9.819C4.53649 9.78109 4.47008 9.7553 4.40058 9.74312C4.33108 9.73094 4.25986 9.73259 4.191 9.748C4.22289 9.85323 4.28774 9.94542 4.376 10.011C4.33738 10.0406 4.30559 10.0781 4.28281 10.1211C4.26003 10.1641 4.24679 10.2114 4.244 10.26C4.29328 10.2741 4.34517 10.2764 4.39551 10.2668C4.44586 10.2573 4.49328 10.2361 4.534 10.205C4.56233 10.1843 4.58759 10.1598 4.609 10.132Z"
		fill="#41AA5A"
	/>
	<path
		d="M4.794 10.236C4.794 10.2241 4.79752 10.2125 4.80411 10.2027C4.8107 10.1928 4.82008 10.1851 4.83104 10.1806C4.842 10.176 4.85407 10.1748 4.86571 10.1772C4.87734 10.1795 4.88804 10.1852 4.89643 10.1936C4.90482 10.202 4.91053 10.2127 4.91285 10.2243C4.91516 10.2359 4.91397 10.248 4.90943 10.259C4.90489 10.2699 4.8972 10.2793 4.88733 10.2859C4.87747 10.2925 4.86587 10.296 4.854 10.296C4.83809 10.296 4.82283 10.2897 4.81157 10.2784C4.80032 10.2672 4.794 10.2519 4.794 10.236ZM4.571 10.183C4.58089 10.183 4.59056 10.1801 4.59878 10.1746C4.607 10.1691 4.61341 10.1613 4.61719 10.1521C4.62098 10.143 4.62197 10.1329 4.62004 10.1232C4.61811 10.1135 4.61335 10.1046 4.60636 10.0976C4.59936 10.0907 4.59045 10.0859 4.58075 10.084C4.57106 10.082 4.561 10.083 4.55187 10.0868C4.54273 10.0906 4.53492 10.097 4.52943 10.1052C4.52393 10.1134 4.521 10.1231 4.521 10.133C4.521 10.1463 4.52627 10.159 4.53564 10.1684C4.54502 10.1777 4.55774 10.183 4.571 10.183ZM4.921 10.026C4.92816 10.0262 4.93522 10.0243 4.94127 10.0204C4.94732 10.0166 4.95209 10.011 4.95496 10.0045C4.95784 9.99793 4.9587 9.99066 4.95743 9.98361C4.95615 9.97656 4.9528 9.97005 4.94781 9.96492C4.94282 9.95978 4.93641 9.95625 4.9294 9.95478C4.92239 9.95331 4.9151 9.95396 4.90846 9.95666C4.90183 9.95935 4.89615 9.96396 4.89214 9.9699C4.88814 9.97584 4.886 9.98284 4.886 9.99C4.886 9.99955 4.88979 10.0087 4.89654 10.0155C4.9033 10.0222 4.91145 10.026 4.921 10.026ZM8.149 10.444C8.16265 10.3526 8.16934 10.2604 8.169 10.168C8.169 9.822 8.082 9.542 7.975 9.542C7.868 9.542 7.78 9.822 7.78 10.168C7.77963 10.2604 7.78631 10.3526 7.8 10.444C7.71357 10.4705 7.63396 10.5155 7.56677 10.5759C7.49957 10.6364 7.44641 10.7108 7.411 10.794H8.538C8.50249 10.7107 8.44917 10.6362 8.38179 10.5758C8.31442 10.5153 8.23462 10.4703 8.148 10.444H8.149ZM4.698 9.923C4.70512 9.923 4.71208 9.92089 4.718 9.91693C4.72392 9.91298 4.72854 9.90736 4.73126 9.90078C4.73398 9.8942 4.7347 9.88696 4.73331 9.87998C4.73192 9.87299 4.72849 9.86658 4.72346 9.86154C4.71842 9.85651 4.71201 9.85308 4.70502 9.85169C4.69804 9.8503 4.6908 9.85102 4.68422 9.85374C4.67765 9.85647 4.67202 9.86108 4.66807 9.867C4.66411 9.87292 4.662 9.87988 4.662 9.887C4.662 9.89655 4.66579 9.9057 4.67254 9.91246C4.6793 9.91921 4.68845 9.923 4.698 9.923ZM8.038 12.703H8.162V12.488H7.862V11.74H8.162L6.789 10.75V10.378H6.98L6.364 9.934L5.748 10.378H5.938V10.75L4.566 11.74H4.866V12.488H4.566V12.703H4.689V13.431H4.509V13.746H8.219V13.431H8.039L8.038 12.703Z"
		fill="#F5F5F5"
	/>
	<path
		d="M7.96 8.128H7.257C7.29148 8.128 7.32454 8.1143 7.34892 8.08992C7.3733 8.06554 7.387 8.03248 7.387 7.998C7.387 7.96352 7.3733 7.93046 7.34892 7.90608C7.32454 7.8817 7.29148 7.868 7.257 7.868H6.364C6.32952 7.868 6.29646 7.8817 6.27208 7.90608C6.2477 7.93046 6.234 7.96352 6.234 7.998C6.234 8.03248 6.2477 8.06554 6.27208 8.08992C6.29646 8.1143 6.32952 8.128 6.364 8.128H4.769C4.71728 8.128 4.66768 8.14854 4.63111 8.18511C4.59454 8.22168 4.574 8.27128 4.574 8.323C4.574 8.37472 4.59454 8.42432 4.63111 8.46089C4.66768 8.49746 4.71728 8.518 4.769 8.518H5.343C5.30852 8.518 5.27546 8.5317 5.25108 8.55608C5.2267 8.58046 5.213 8.61352 5.213 8.648C5.213 8.68248 5.2267 8.71554 5.25108 8.73992C5.27546 8.7643 5.30852 8.778 5.343 8.778H6.492C6.52648 8.778 6.55954 8.7643 6.58392 8.73992C6.6083 8.71554 6.622 8.68248 6.622 8.648C6.622 8.61352 6.6083 8.58046 6.58392 8.55608C6.55954 8.5317 6.52648 8.518 6.492 8.518H7.959C8.01072 8.518 8.06032 8.49746 8.09689 8.46089C8.13346 8.42432 8.154 8.37472 8.154 8.323C8.154 8.27128 8.13346 8.22168 8.09689 8.18511C8.06032 8.14854 8.01172 8.128 7.96 8.128Z"
		fill="#C87878"
	/>
</svg>
