<svg viewBox="0 0 36 24" fill="none" xmlns="http://www.w3.org/2000/svg">
	<path d="M36 24H0V0H36" fill="#41479B" />
	<path
		d="M36 0H0V24H36M34.758 11.368H28.706L18.62 5.936V1.263H34.758V11.368ZM18 16.97L8.775 12L18 7.03L27.225 12L18 16.97ZM17.38 1.263V5.936L7.293 11.368H1.241V1.263H17.38ZM1.24 12.632H7.293L17.378 18.064V22.737H1.241L1.24 12.632ZM18.62 22.737V18.064L28.705 12.632H34.758V22.737H18.62Z"
		fill="#FF4B55"
	/>
	<path d="M18 7.03L8.775 12L18 16.97L27.225 12L18 7.03Z" fill="#F5F5F5" />
	<path
		d="M14.896 15.298H21.103L25.425 12.97L23.481 10.992H22.802L22.301 11.501L21.944 11.138H21.229L18.487 13.928H15.046L14.264 12.75H13.272L12.881 13.307H12.442L12.178 13.833L14.896 15.298Z"
		fill="#73AF00"
	/>
	<path
		d="M18.083 8.974L18.33 9.727L19.11 9.733C19.1323 9.73355 19.1539 9.74104 19.1717 9.75444C19.1895 9.76783 19.2027 9.78646 19.2094 9.80772C19.2161 9.82898 19.216 9.85181 19.2092 9.87301C19.2023 9.89422 19.1889 9.91274 19.171 9.926L18.544 10.397L18.779 11.154C18.7855 11.175 18.7854 11.1975 18.7785 11.2185C18.7717 11.2394 18.7585 11.2576 18.7408 11.2707C18.7231 11.2838 18.7018 11.291 18.6798 11.2914C18.6578 11.2919 18.6362 11.2854 18.618 11.273L17.984 10.812L17.349 11.273C17.3308 11.2856 17.309 11.2921 17.2869 11.2917C17.2647 11.2913 17.2432 11.284 17.2255 11.2707C17.2077 11.2575 17.1945 11.239 17.1878 11.2179C17.1811 11.1968 17.1812 11.1741 17.188 11.153L17.423 10.397L16.796 9.926C16.7781 9.91274 16.7647 9.89422 16.7579 9.87301C16.751 9.85181 16.7509 9.82898 16.7576 9.80772C16.7643 9.78646 16.7775 9.76783 16.7953 9.75444C16.8132 9.74104 16.8347 9.73355 16.857 9.733L17.637 9.727L17.884 8.974C17.8902 8.95227 17.9033 8.93315 17.9214 8.91954C17.9394 8.90593 17.9614 8.89857 17.984 8.89857C18.0066 8.89857 18.0286 8.90593 18.0466 8.91954C18.0647 8.93315 18.0768 8.95227 18.083 8.974Z"
		fill="#FFE15A"
	/>
</svg>
