<svg viewBox="0 0 36 24" fill="none" xmlns="http://www.w3.org/2000/svg">
	<path d="M36 24H0V0H36" fill="#F5F5F5" />
	<path d="M14.024 5.563H21.974V7.192H14.024V5.563Z" fill="#464655" />
	<path
		d="M14.023 6.854V12.247C14.0962 13.3545 14.5214 14.4096 15.2364 15.2585C15.9515 16.1074 16.9191 16.7056 17.998 16.966C19.0769 16.7056 20.0445 16.1074 20.7596 15.2585C21.4746 14.4096 21.8998 13.3545 21.973 12.247V6.854H14.023Z"
		fill="#41479B"
	/>
	<path
		d="M14.023 12.247C14.03 12.5892 14.0815 12.929 14.176 13.258H21.821C21.9151 12.9293 21.9662 12.5898 21.973 12.248V10.225H14.023V12.247Z"
		fill="#FF4B55"
	/>
	<path
		d="M12.298 6.756C11.8934 7.15699 11.5986 7.65527 11.442 8.203C11.2172 9.19984 11.2941 10.241 11.663 11.194C11.663 11.194 11.855 11.26 10.939 11.434L11.104 11.51L9.893 12.742C9.86673 12.5771 9.87732 12.4085 9.92401 12.2482C9.97069 12.0879 10.0523 11.94 10.163 11.815L9.375 12.258C9.41269 11.9743 9.53661 11.709 9.73 11.498C9.50459 11.4497 9.29312 11.3507 9.11157 11.2087C8.93001 11.0666 8.78312 10.8852 8.682 10.678L9.738 10.878C8.62 10.488 8.588 9.698 8.588 9.698L9.551 10.225C9.2888 10.1085 9.06504 9.91999 8.90573 9.68138C8.74641 9.44276 8.65808 9.16383 8.651 8.877L9.645 9.593C8.589 8.687 8.941 7.929 8.941 7.929L9.645 8.835C9.075 7.729 9.562 7.339 9.562 7.339C9.74983 7.86288 10.0075 8.35902 10.328 8.814L10.421 8.74C10.3512 8.52615 10.3281 8.29984 10.3531 8.07629C10.3781 7.85274 10.4507 7.63714 10.566 7.444L10.742 7.939C10.804 6.823 11.291 6.875 11.291 6.875L11.281 7.297C11.808 6.633 12.298 6.699 12.298 6.756ZM27.411 9.698L26.448 10.225C26.7105 10.1088 26.9345 9.92033 27.094 9.68168C27.2535 9.44302 27.342 9.16397 27.349 8.877L26.355 9.593C27.411 8.687 27.059 7.929 27.059 7.929L26.355 8.835C26.925 7.729 26.438 7.339 26.438 7.339C26.2502 7.86288 25.9925 8.35902 25.672 8.814L25.579 8.74C25.6488 8.52615 25.6719 8.29984 25.6469 8.07629C25.6219 7.85274 25.5493 7.63714 25.434 7.444L25.258 7.939C25.196 6.823 24.709 6.875 24.709 6.875L24.719 7.297C24.192 6.633 23.702 6.7 23.702 6.757C24.1065 7.15773 24.4012 7.65564 24.558 8.203C24.7828 9.19984 24.7059 10.241 24.337 11.194C24.337 11.194 24.145 11.26 25.061 11.434L24.896 11.51L26.107 12.742C26.1333 12.5771 26.1227 12.4085 26.076 12.2482C26.0293 12.0879 25.9477 11.94 25.837 11.815L26.625 12.258C26.5873 11.9743 26.4634 11.709 26.27 11.498C26.4954 11.4497 26.7069 11.3507 26.8884 11.2087C27.07 11.0666 27.2169 10.8852 27.318 10.678L26.262 10.878C27.38 10.488 27.412 9.698 27.412 9.698H27.411ZM12.643 16.84V19.064C14.1804 20.2113 16.0456 20.8344 17.9639 20.8416C19.8822 20.8488 21.752 20.2397 23.298 19.104V16.9C22.6076 17.6189 21.778 18.1898 20.8599 18.578C19.9419 18.9661 18.9544 19.1634 17.9576 19.1578C16.9609 19.1522 15.9757 18.9438 15.062 18.5453C14.1483 18.1469 13.3253 17.5667 12.643 16.84Z"
		fill="#FFE1CD"
	/>
	<path
		d="M10.984 14.594C11.9806 15.6509 13.2653 16.3921 14.679 16.726L14.676 18.443C13.3368 18.1888 12.073 17.6334 10.98 16.819L10.984 14.594ZM21.301 18.455C22.6411 18.2059 23.907 17.6553 25.003 16.845L25.007 14.619C24.0067 15.6728 22.7192 16.41 21.304 16.739L21.301 18.455ZM11.357 14.693H11.757C11.8867 14.2137 12.1566 13.784 12.532 13.459C12.8712 13.2165 13.1552 12.9049 13.3652 12.5446C13.5751 12.1844 13.7063 11.7837 13.75 11.369C13.676 10.512 13.042 10.125 12.383 9.593C11.494 8.875 11.699 8.402 11.699 8.402C11.7735 8.42725 11.8528 8.43465 11.9307 8.42361C12.0085 8.41257 12.0827 8.3834 12.1472 8.33845C12.2117 8.29349 12.2647 8.23402 12.3021 8.16481C12.3394 8.0956 12.3599 8.0186 12.362 7.94C12.3578 7.85141 12.3329 7.76502 12.2893 7.6878C12.2457 7.61057 12.1846 7.54465 12.1109 7.49534C12.0371 7.44603 11.9529 7.41471 11.8648 7.40388C11.7768 7.39305 11.6875 7.40303 11.604 7.433C11.466 7.47846 11.34 7.55411 11.2349 7.65444C11.1299 7.75478 11.0485 7.87727 10.9968 8.013C10.9451 8.14874 10.9243 8.2943 10.9359 8.43909C10.9475 8.58388 10.9913 8.72426 11.064 8.85C11.434 9.722 11.986 10.046 12.094 10.79C11.8433 10.8306 11.588 10.835 11.336 10.803C11.2517 10.7906 11.1709 10.7611 11.0984 10.7164C11.0259 10.6717 10.9632 10.6127 10.9143 10.543C10.8654 10.4732 10.8311 10.3943 10.8137 10.3109C10.7963 10.2275 10.7961 10.1415 10.813 10.058C10.896 9.552 11.09 9.258 10.925 8.976C10.7209 8.6966 10.4902 8.43771 10.236 8.203C10.236 8.203 9.099 11.15 11.141 11.926C10.5789 12.4778 10.0905 13.0999 9.688 13.777L9.978 13.862C9.72923 14.1373 9.46122 14.3946 9.176 14.632C9.53062 14.7115 9.90098 14.6821 10.2386 14.5475C10.5762 14.413 10.8653 14.1796 11.068 13.878C11.2119 14.1304 11.3097 14.4064 11.357 14.693ZM26.019 13.891L26.309 13.807C25.909 13.1286 25.423 12.5048 24.863 11.951C26.907 11.182 25.78 8.231 25.78 8.231C25.5252 8.46499 25.2938 8.7232 25.089 9.002C24.923 9.282 25.116 9.578 25.197 10.084C25.2138 10.1675 25.2133 10.2535 25.1957 10.3369C25.1781 10.4202 25.1437 10.499 25.0945 10.5686C25.0454 10.6381 24.9826 10.6969 24.9099 10.7413C24.8373 10.7858 24.7563 10.8149 24.672 10.827C24.4193 10.8585 24.1633 10.8535 23.912 10.812C24.024 10.068 24.577 9.746 24.952 8.876C25.0253 8.75034 25.0697 8.60989 25.0818 8.46491C25.0939 8.31993 25.0735 8.17407 25.022 8.03798C24.9706 7.9019 24.8893 7.77903 24.7843 7.67834C24.6793 7.57765 24.5531 7.50169 24.415 7.456C24.3316 7.42569 24.2423 7.41537 24.1543 7.42585C24.0662 7.43633 23.9818 7.46732 23.9079 7.51634C23.834 7.56536 23.7726 7.63103 23.7287 7.70809C23.6847 7.78514 23.6595 7.87142 23.655 7.96C23.6567 8.03874 23.6769 8.11597 23.7139 8.18546C23.751 8.25495 23.8039 8.31474 23.8683 8.36001C23.9328 8.40527 24.007 8.43474 24.0849 8.44603C24.1629 8.45732 24.2424 8.45012 24.317 8.425C24.317 8.425 24.52 8.899 23.628 9.614C22.968 10.144 22.333 10.528 22.255 11.384C22.2973 11.799 22.4271 12.2003 22.6358 12.5614C22.8446 12.9225 23.1275 13.2353 23.466 13.479C23.8401 13.8055 24.1082 14.2362 24.236 14.716L24.637 14.717C24.685 14.4306 24.7835 14.1549 24.928 13.903C25.1295 14.2057 25.4178 14.4404 25.7551 14.5764C26.0924 14.7124 26.4629 14.7433 26.818 14.665C26.5333 14.4263 26.267 14.1676 26.019 13.891Z"
		fill="#FFF5E1"
	/>
	<path
		d="M17.535 12.921L17.998 11.741L18.462 12.921L17.998 12.685L17.535 12.921ZM17.998 10.798L17.535 10.562L17.998 11.741L18.462 10.562L17.998 10.798ZM17.071 11.742L16.839 12.214L17.999 11.742L16.839 11.27L17.071 11.742ZM18.926 11.742L19.158 11.27L17.998 11.741L19.158 12.214L18.926 11.742Z"
		fill="#F5F5F5"
	/>
	<path
		d="M22.653 14.185C22.543 14.073 22.28 13.735 22.073 13.764L21.839 12.064L21.949 11.91C22.018 11.924 22.115 12.107 22.142 12.416C22.17 12.725 22.363 14.031 22.777 13.89C23.191 13.75 23.467 13.132 23.467 13.132L24.047 13.989C23.7904 13.8995 23.5096 13.9095 23.26 14.017C22.86 14.199 22.763 14.297 22.653 14.185ZM24.24 14.705C24.2836 15.0073 24.2973 15.3131 24.281 15.618C23.7685 15.8099 23.2428 15.9646 22.708 16.081C22.708 16.081 23.15 16.446 23.163 16.643C23.4215 16.6855 23.6698 16.776 23.895 16.91L24.613 15.702L24.64 14.705H24.24ZM11.663 8.315C11.87 8.455 12.215 9.073 12.74 9.27C13.0959 9.4266 13.4082 9.66755 13.65 9.972C13.65 9.972 13.844 10 13.816 9.846C13.789 9.691 12.216 8.006 12.216 8.006C12.216 8.006 11.456 8.175 11.663 8.316V8.315ZM13.858 12.415C13.83 12.725 13.637 14.031 13.223 13.89C12.809 13.75 12.533 13.132 12.533 13.132L11.953 13.989C12.2096 13.8995 12.4904 13.9095 12.74 14.017C13.14 14.199 13.237 14.297 13.347 14.185C13.457 14.073 13.72 13.735 13.927 13.764L14.161 12.064L14.051 11.91C13.982 11.924 13.885 12.107 13.858 12.416V12.415ZM11.718 15.618C11.702 15.313 11.7161 15.0072 11.76 14.705H11.36L11.387 15.702L12.105 16.91C12.3299 16.7761 12.5778 16.6856 12.836 16.643C12.85 16.446 13.292 16.081 13.292 16.081C12.7569 15.9647 12.2309 15.81 11.718 15.618ZM20.956 8.046C20.8847 8.0532 20.8151 8.07213 20.75 8.102C20.8252 7.96117 20.8515 7.79941 20.825 7.642C20.72 7.356 20.516 7.407 20.438 7.199V7.192L20.436 7.195L20.434 7.192V7.199C20.355 7.407 20.152 7.356 20.046 7.641C20.0198 7.79852 20.0465 7.96029 20.122 8.101C20.0565 8.07133 19.9866 8.05274 19.915 8.046C19.8587 8.04552 19.803 8.05827 19.7525 8.08323C19.702 8.10819 19.658 8.14465 19.6242 8.18969C19.5903 8.23473 19.5675 8.28708 19.5576 8.34254C19.5477 8.398 19.5509 8.45501 19.567 8.509C19.617 8.83 19.984 8.856 19.984 8.856C19.9536 8.82792 19.9312 8.79235 19.9189 8.75286C19.9066 8.71337 19.9049 8.67135 19.914 8.631C19.94 8.541 20.124 8.464 20.218 8.766C20.312 9.068 19.991 9.499 19.991 9.499C20.0788 9.49468 20.1642 9.46819 20.239 9.422C20.224 9.51017 20.2344 9.60078 20.2689 9.68328C20.3034 9.76578 20.3607 9.83678 20.434 9.888V9.891L20.436 9.889L20.438 9.891V9.888C20.5111 9.83665 20.5682 9.7656 20.6025 9.68311C20.6369 9.60062 20.6471 9.51007 20.632 9.422C20.7071 9.46839 20.7928 9.49489 20.881 9.499C20.881 9.499 20.559 9.068 20.653 8.766C20.747 8.464 20.931 8.541 20.956 8.631C20.9651 8.67135 20.9634 8.71337 20.9511 8.75286C20.9388 8.79235 20.9164 8.82792 20.886 8.856C20.886 8.856 21.253 8.83 21.304 8.509C21.3201 8.45501 21.3233 8.398 21.3134 8.34254C21.3035 8.28708 21.2807 8.23473 21.2468 8.18969C21.213 8.14465 21.169 8.10819 21.1185 8.08323C21.068 8.05827 21.0123 8.04552 20.956 8.046ZM22.349 9.972C22.5911 9.66742 22.9038 9.42646 23.26 9.27C23.785 9.073 24.13 8.455 24.337 8.315C24.544 8.175 23.785 8.005 23.785 8.005C23.785 8.005 22.211 9.691 22.184 9.845C22.156 10 22.349 9.972 22.349 9.972ZM13.575 5.59L14.025 6.858C14.345 6.73933 14.6693 6.63533 14.998 6.546C15.1073 6.51667 15.2167 6.48867 15.326 6.462C17.0823 6.03988 18.9137 6.03988 20.67 6.462C20.78 6.48867 20.8897 6.51667 20.999 6.546C21.3263 6.63533 21.6507 6.73933 21.972 6.858L22.422 5.59C22.5413 5.634 22.66 5.68 22.778 5.728L23.142 4.788C22.952 4.71067 22.7603 4.638 22.567 4.57L22.405 5.048C22.3117 5.01467 22.2183 4.98267 22.125 4.952L22.277 4.471C22.083 4.407 21.888 4.34767 21.692 4.293L21.561 4.781C21.4663 4.75433 21.3713 4.729 21.276 4.705L21.397 4.215C21.2003 4.16433 21.0027 4.118 20.804 4.076L20.605 5.066C20.7283 5.09267 20.851 5.12033 20.973 5.149L20.897 5.478C20.1846 5.3068 19.4584 5.19904 18.727 5.156L18.747 4.819C18.8717 4.82633 18.996 4.83567 19.12 4.847L19.206 3.839C19.0053 3.82167 18.804 3.80833 18.602 3.799L18.581 4.304C18.4843 4.3 18.3873 4.29667 18.29 4.294L18.3 3.789C18.0987 3.785 17.8973 3.785 17.696 3.789L17.706 4.295C17.6093 4.297 17.5127 4.30033 17.416 4.305L17.394 3.799C17.1927 3.80833 16.9917 3.82167 16.791 3.839L16.876 4.847C17.0007 4.83567 17.1253 4.82633 17.25 4.819L17.269 5.156C16.5376 5.19907 15.8114 5.30683 15.099 5.478L15.024 5.15C15.146 5.12 15.2683 5.09233 15.391 5.067L15.192 4.077C14.994 4.11833 14.7967 4.164 14.6 4.214L14.72 4.704C14.6253 4.72867 14.5307 4.75433 14.436 4.781L14.305 4.293C14.109 4.34833 13.914 4.40767 13.72 4.471L13.871 4.952C13.7777 4.98267 13.6843 5.01467 13.591 5.048L13.43 4.57C13.2367 4.638 13.0447 4.71067 12.854 4.788L13.219 5.728C13.337 5.68 13.4557 5.634 13.575 5.59ZM18.519 8.046C18.4474 8.0531 18.3774 8.07202 18.312 8.102C18.3875 7.96129 18.4142 7.79952 18.388 7.642C18.282 7.356 18.078 7.407 18 7.199V7.192L17.998 7.195L17.996 7.192V7.199C17.918 7.407 17.714 7.356 17.608 7.641C17.5818 7.79852 17.6085 7.96029 17.684 8.101C17.6185 8.07133 17.5486 8.05274 17.477 8.046C17.4207 8.04568 17.3652 8.05855 17.3148 8.08357C17.2644 8.10859 17.2206 8.14508 17.1869 8.19009C17.1531 8.23511 17.1304 8.28741 17.1205 8.34279C17.1107 8.39817 17.1139 8.4551 17.13 8.509C17.18 8.83 17.547 8.856 17.547 8.856C17.5166 8.82792 17.4942 8.79235 17.4819 8.75286C17.4696 8.71337 17.4679 8.67135 17.477 8.631C17.503 8.541 17.686 8.464 17.78 8.766C17.875 9.068 17.553 9.499 17.553 9.499C17.6412 9.49484 17.7269 9.46835 17.802 9.422C17.7869 9.51007 17.7971 9.60062 17.8315 9.68311C17.8658 9.7656 17.9229 9.83665 17.996 9.888V9.891L17.998 9.889L18 9.891V9.888C18.0731 9.83665 18.1302 9.7656 18.1645 9.68311C18.1989 9.60062 18.2091 9.51007 18.194 9.422C18.2694 9.46855 18.3555 9.49506 18.444 9.499C18.444 9.499 18.121 9.068 18.216 8.766C18.311 8.464 18.494 8.541 18.519 8.631C18.5281 8.67135 18.5264 8.71337 18.5141 8.75286C18.5018 8.79235 18.4794 8.82792 18.449 8.856C18.449 8.856 18.816 8.83 18.866 8.509C18.8821 8.4551 18.8853 8.39817 18.8755 8.34279C18.8656 8.28741 18.8429 8.23511 18.8091 8.19009C18.7754 8.14508 18.7316 8.10859 18.6812 8.08357C18.6308 8.05855 18.5753 8.04568 18.519 8.046ZM20.209 13.796V13.846C20.1867 13.8346 20.1621 13.8284 20.137 13.828C20.0912 13.828 20.0474 13.8462 20.015 13.8785C19.9827 13.9109 19.9645 13.9547 19.9645 14.0005C19.9645 14.0462 19.9827 14.0901 20.015 14.1225C20.0474 14.1548 20.0912 14.173 20.137 14.173C20.1441 14.1722 20.1511 14.1708 20.158 14.169C20.1359 14.248 20.0943 14.3202 20.037 14.379H19.81C19.7542 14.2917 19.726 14.1896 19.729 14.086L19.739 14.089C19.7764 14.0894 19.8124 14.0749 19.8391 14.0488C19.8659 14.0226 19.8811 13.9869 19.8815 13.9495C19.8819 13.9121 19.8674 13.8761 19.8413 13.8494C19.8151 13.8226 19.7794 13.8074 19.742 13.807C19.7549 13.7859 19.762 13.7618 19.7625 13.7371C19.763 13.7124 19.7569 13.688 19.7448 13.6664C19.7327 13.6449 19.7151 13.6269 19.6938 13.6144C19.6725 13.6019 19.6482 13.5953 19.6235 13.5953C19.5988 13.5953 19.5745 13.6019 19.5532 13.6144C19.5319 13.6269 19.5143 13.6449 19.5022 13.6664C19.4901 13.688 19.484 13.7124 19.4845 13.7371C19.485 13.7618 19.4921 13.7859 19.505 13.807C19.4676 13.8074 19.4319 13.8226 19.4057 13.8494C19.3796 13.8761 19.3651 13.9121 19.3655 13.9495C19.3659 13.9869 19.3811 14.0226 19.4079 14.0488C19.4346 14.0749 19.4706 14.0894 19.508 14.089L19.518 14.086C19.5213 14.1899 19.4931 14.2924 19.437 14.38H19.21C19.1526 14.321 19.111 14.2484 19.089 14.169C19.0956 14.1708 19.1023 14.1721 19.109 14.173C19.1547 14.173 19.1986 14.1548 19.231 14.1225C19.2633 14.0901 19.2815 14.0462 19.2815 14.0005C19.2815 13.9547 19.2633 13.9109 19.231 13.8785C19.1986 13.8462 19.1547 13.828 19.109 13.828C19.0847 13.8284 19.0608 13.8342 19.039 13.845L19.037 13.795C19.0363 13.7718 19.0305 13.749 19.0201 13.7282C19.0097 13.7075 18.9949 13.6892 18.9767 13.6748C18.9585 13.6603 18.9374 13.65 18.9149 13.6445C18.8923 13.639 18.8688 13.6385 18.846 13.643C18.9138 13.8825 18.9411 14.1315 18.927 14.38V14.728H20.317V14.381L20.32 14.38C20.3055 14.1316 20.3325 13.8825 20.4 13.643C20.3772 13.6386 20.3537 13.6393 20.3312 13.6449C20.3087 13.6505 20.2877 13.661 20.2696 13.6755C20.2515 13.6901 20.2368 13.7084 20.2265 13.7292C20.2162 13.75 20.2096 13.7728 20.209 13.796ZM18.584 15.144V15.194C18.5617 15.1826 18.5371 15.1764 18.512 15.176C18.4662 15.176 18.4224 15.1942 18.39 15.2265C18.3577 15.2589 18.3395 15.3028 18.3395 15.3485C18.3395 15.3943 18.3577 15.4381 18.39 15.4705C18.4224 15.5028 18.4662 15.521 18.512 15.521C18.5191 15.5202 18.5261 15.5188 18.533 15.517C18.5108 15.5965 18.4688 15.6691 18.411 15.728H18.185C18.1292 15.6407 18.101 15.5386 18.104 15.435L18.114 15.438C18.1326 15.4381 18.151 15.4346 18.1682 15.4276C18.1854 15.4206 18.2011 15.4103 18.2143 15.3973C18.2276 15.3842 18.2381 15.3687 18.2453 15.3516C18.2526 15.3345 18.2564 15.3161 18.2565 15.2975C18.2566 15.2789 18.2531 15.2605 18.2461 15.2433C18.2391 15.2261 18.2288 15.2104 18.2158 15.1972C18.2027 15.1839 18.1872 15.1734 18.1701 15.1662C18.153 15.1589 18.1346 15.1551 18.116 15.155C18.1291 15.134 18.1363 15.1098 18.137 15.085C18.1376 15.0602 18.1316 15.0357 18.1195 15.014C18.1075 14.9924 18.0899 14.9743 18.0685 14.9617C18.0471 14.9492 18.0228 14.9425 17.998 14.9425C17.9732 14.9425 17.9489 14.9492 17.9275 14.9617C17.9061 14.9743 17.8885 14.9924 17.8765 15.014C17.8644 15.0357 17.8584 15.0602 17.859 15.085C17.8597 15.1098 17.8669 15.134 17.88 15.155C17.8614 15.1552 17.8431 15.1591 17.826 15.1663C17.8089 15.1736 17.7934 15.1842 17.7804 15.1975C17.7674 15.2108 17.7571 15.2265 17.7502 15.2437C17.7433 15.261 17.7398 15.2794 17.74 15.298C17.7402 15.3166 17.7441 15.3349 17.7513 15.352C17.7586 15.3691 17.7692 15.3846 17.7825 15.3976C17.7958 15.4106 17.8115 15.4209 17.8287 15.4278C17.846 15.4347 17.8644 15.4382 17.883 15.438L17.893 15.435C17.8958 15.5387 17.8672 15.6408 17.811 15.728H17.585C17.5272 15.6691 17.4852 15.5965 17.463 15.517C17.4699 15.5188 17.4769 15.5201 17.484 15.521C17.5297 15.521 17.5736 15.5028 17.606 15.4705C17.6383 15.4381 17.6565 15.3943 17.6565 15.3485C17.6565 15.3028 17.6383 15.2589 17.606 15.2265C17.5736 15.1942 17.5297 15.176 17.484 15.176C17.4593 15.1765 17.435 15.1827 17.413 15.194L17.412 15.144C17.4114 15.1207 17.4058 15.0978 17.3954 15.0769C17.3851 15.056 17.3703 15.0377 17.3521 15.0231C17.3339 15.0085 17.3127 14.9981 17.2901 14.9925C17.2674 14.987 17.2439 14.9865 17.221 14.991C17.2884 15.2305 17.3155 15.4796 17.301 15.728V16.076H18.693V15.729H18.695C18.6804 15.4803 18.7075 15.2308 18.775 14.991C18.7522 14.9866 18.7287 14.9873 18.7062 14.9929C18.6837 14.9985 18.6627 15.009 18.6446 15.0235C18.6265 15.0381 18.6118 15.0564 18.6015 15.0772C18.5912 15.098 18.5846 15.1208 18.584 15.144ZM16.959 13.796V13.846C16.9367 13.8346 16.9121 13.8284 16.887 13.828C16.8412 13.828 16.7974 13.8462 16.765 13.8785C16.7327 13.9109 16.7145 13.9547 16.7145 14.0005C16.7145 14.0462 16.7327 14.0901 16.765 14.1225C16.7974 14.1548 16.8412 14.173 16.887 14.173C16.8937 14.1721 16.9004 14.1708 16.907 14.169C16.8852 14.2479 16.8439 14.3201 16.787 14.379H16.56C16.5042 14.2917 16.476 14.1896 16.479 14.086L16.489 14.089C16.5264 14.0893 16.5624 14.0747 16.589 14.0484C16.6156 14.0222 16.6307 13.9864 16.631 13.949C16.6313 13.9116 16.6167 13.8756 16.5904 13.849C16.5642 13.8224 16.5284 13.8073 16.491 13.807C16.5041 13.786 16.5113 13.7618 16.512 13.737C16.5126 13.7122 16.5066 13.6877 16.4945 13.666C16.4825 13.6444 16.4649 13.6263 16.4435 13.6137C16.4221 13.6012 16.3978 13.5945 16.373 13.5945C16.3482 13.5945 16.3239 13.6012 16.3025 13.6137C16.2811 13.6263 16.2635 13.6444 16.2515 13.666C16.2394 13.6877 16.2334 13.7122 16.234 13.737C16.2347 13.7618 16.2419 13.786 16.255 13.807C16.2176 13.8074 16.1819 13.8226 16.1557 13.8494C16.1296 13.8761 16.1151 13.9121 16.1155 13.9495C16.1159 13.9869 16.1311 14.0226 16.1579 14.0488C16.1846 14.0749 16.2206 14.0894 16.258 14.089L16.268 14.086C16.271 14.19 16.2424 14.2925 16.186 14.38H15.96C15.9022 14.3211 15.8602 14.2485 15.838 14.169C15.8449 14.1708 15.8519 14.1721 15.859 14.173C15.9048 14.173 15.9486 14.1548 15.981 14.1225C16.0133 14.0901 16.0315 14.0462 16.0315 14.0005C16.0315 13.9547 16.0133 13.9109 15.981 13.8785C15.9486 13.8462 15.9048 13.828 15.859 13.828C15.8344 13.8282 15.8101 13.834 15.788 13.845L15.787 13.795C15.7863 13.7718 15.7805 13.749 15.7701 13.7282C15.7597 13.7075 15.7449 13.6892 15.7267 13.6748C15.7085 13.6603 15.6874 13.65 15.6649 13.6445C15.6423 13.639 15.6188 13.6385 15.596 13.643C15.6634 13.8825 15.6905 14.1316 15.676 14.38V14.728H17.067V14.381L17.069 14.38C17.0552 14.1315 17.0829 13.8824 17.151 13.643C17.1281 13.6383 17.1044 13.6387 17.0816 13.6442C17.0588 13.6496 17.0376 13.66 17.0192 13.6746C17.0009 13.6892 16.986 13.7077 16.9756 13.7286C16.9652 13.7496 16.9595 13.7726 16.959 13.796ZM15.757 9.422C15.8321 9.46839 15.9178 9.49489 16.006 9.499C16.006 9.499 15.684 9.068 15.778 8.766C15.872 8.464 16.056 8.541 16.081 8.631C16.0902 8.67126 16.0887 8.71323 16.0765 8.75271C16.0644 8.7922 16.0422 8.82781 16.012 8.856C16.012 8.856 16.378 8.83 16.429 8.509C16.4451 8.4551 16.4483 8.39817 16.4385 8.34279C16.4286 8.28741 16.4059 8.23511 16.3721 8.19009C16.3384 8.14508 16.2946 8.10859 16.2442 8.08357C16.1938 8.05855 16.1383 8.04568 16.082 8.046C16.0104 8.0531 15.9404 8.07202 15.875 8.102C15.9502 7.96117 15.9765 7.79941 15.95 7.642C15.845 7.356 15.641 7.407 15.563 7.199V7.192L15.561 7.195L15.559 7.192V7.199C15.48 7.407 15.277 7.356 15.171 7.641C15.1448 7.79852 15.1715 7.96029 15.247 8.101C15.1815 8.07133 15.1116 8.05274 15.04 8.046C14.9837 8.04552 14.928 8.05827 14.8775 8.08323C14.827 8.10819 14.783 8.14465 14.7492 8.18969C14.7153 8.23473 14.6925 8.28708 14.6826 8.34254C14.6727 8.398 14.6759 8.45501 14.692 8.509C14.742 8.83 15.109 8.856 15.109 8.856C15.0786 8.82792 15.0562 8.79235 15.0439 8.75286C15.0316 8.71337 15.0299 8.67135 15.039 8.631C15.065 8.541 15.249 8.464 15.343 8.766C15.437 9.068 15.116 9.499 15.116 9.499C15.2042 9.49484 15.2899 9.46835 15.365 9.422C15.3499 9.51007 15.3601 9.60062 15.3945 9.68311C15.4288 9.7656 15.4859 9.83665 15.559 9.888V9.891L15.561 9.889L15.563 9.891V9.888C15.6361 9.83665 15.6932 9.7656 15.7275 9.68311C15.7619 9.60062 15.7721 9.51007 15.757 9.422Z"
		fill="#FFE15A"
	/>
</svg>
