<svg viewBox="0 0 36 24" fill="none" xmlns="http://www.w3.org/2000/svg">
	<path d="M36 24H0V0H36" fill="#41479B" />
	<path
		d="M24.193 8.421C24.175 8.42113 24.1572 8.4248 24.1406 8.43181C24.1241 8.43882 24.109 8.44902 24.0964 8.46183C24.0838 8.47465 24.0738 8.48982 24.067 8.5065C24.0603 8.52317 24.0569 8.54101 24.057 8.559V10.904C24.057 15.594 27.31 16.421 27.31 16.421C27.31 16.421 30.564 15.593 30.564 10.904V8.559C30.5641 8.54101 30.5607 8.52317 30.554 8.5065C30.5472 8.48982 30.5372 8.47465 30.5246 8.46183C30.512 8.44902 30.4969 8.43882 30.4804 8.43181C30.4638 8.4248 30.446 8.42113 30.428 8.421H24.193Z"
		fill="#FFE15A"
	/>
	<path
		d="M27.674 12.79H26.981C26.5656 13.3086 26.3247 13.9453 26.293 14.609C26.2909 14.6287 26.2938 14.6486 26.3013 14.6669C26.3088 14.6852 26.3207 14.7014 26.336 14.714C26.6271 14.9162 26.9731 15.0246 27.3275 15.0246C27.6819 15.0246 28.0279 14.9162 28.319 14.714C28.3343 14.7014 28.3462 14.6852 28.3537 14.6669C28.3612 14.6486 28.364 14.6287 28.362 14.609C28.3305 13.9449 28.0896 13.3079 27.674 12.789V12.79Z"
		fill="#73AF00"
	/>
	<path
		d="M27.79 12.79C27.79 12.8209 27.7778 12.8505 27.7561 12.8724C27.7344 12.8943 27.7049 12.9067 27.674 12.907H26.981C26.9517 12.9043 26.9245 12.8907 26.9047 12.869C26.8848 12.8473 26.8739 12.8189 26.8739 12.7895C26.8739 12.7601 26.8848 12.7317 26.9047 12.71C26.9245 12.6883 26.9517 12.6747 26.981 12.672V12.084C26.9785 12.0369 26.9856 11.9898 27.0018 11.9456C27.0181 11.9014 27.0432 11.8609 27.0756 11.8267C27.1081 11.7925 27.1471 11.7652 27.1904 11.7466C27.2337 11.728 27.2804 11.7184 27.3275 11.7184C27.3746 11.7184 27.4213 11.728 27.4646 11.7466C27.5079 11.7652 27.5469 11.7925 27.5794 11.8267C27.6118 11.8609 27.6369 11.9014 27.6532 11.9456C27.6694 11.9898 27.6765 12.0369 27.674 12.084V12.672C27.6894 12.6721 27.7046 12.6753 27.7187 12.6813C27.7328 12.6873 27.7457 12.696 27.7564 12.707C27.7672 12.7179 27.7757 12.7309 27.7815 12.7451C27.7872 12.7594 27.7901 12.7746 27.79 12.79Z"
		fill="#FF4B55"
	/>
	<path
		d="M29.986 10.307C29.7729 10.3093 29.5602 10.328 29.35 10.363V10.18C29.5202 10.1022 29.6969 10.0392 29.878 9.992C29.8929 9.98821 29.9057 9.97878 29.9137 9.96571C29.9217 9.95265 29.9243 9.93697 29.921 9.922C29.9177 9.90703 29.9085 9.894 29.8956 9.88576C29.8827 9.87751 29.867 9.87472 29.852 9.878C29.6795 9.92169 29.5109 9.97955 29.348 10.051C29.3444 9.98285 29.3211 9.9172 29.281 9.862C29.404 9.76477 29.5329 9.67527 29.667 9.594C29.6803 9.58607 29.69 9.57332 29.6941 9.55842C29.6982 9.54351 29.6963 9.5276 29.689 9.514C29.6854 9.50727 29.6804 9.50134 29.6744 9.49657C29.6684 9.4918 29.6615 9.48829 29.6542 9.48623C29.6468 9.48418 29.6391 9.48363 29.6315 9.48462C29.6239 9.48561 29.6166 9.48812 29.61 9.492C29.4658 9.57844 29.3275 9.67432 29.196 9.779C29.1381 9.73927 29.0694 9.71842 28.9992 9.71931C28.929 9.72021 28.8608 9.74281 28.804 9.784C28.826 9.6257 28.8887 9.47582 28.986 9.349C28.9967 9.33783 29.0027 9.32296 29.0027 9.3075C29.0027 9.29204 28.9967 9.27717 28.986 9.266C28.9807 9.26065 28.9744 9.2564 28.9674 9.2535C28.9605 9.2506 28.953 9.24911 28.9455 9.24911C28.938 9.24911 28.9305 9.2506 28.9236 9.2535C28.9166 9.2564 28.9103 9.26065 28.905 9.266C28.8115 9.379 28.7463 9.51271 28.715 9.656C28.6834 9.51261 28.6179 9.37887 28.524 9.266C28.5187 9.2605 28.5123 9.25612 28.5053 9.25313C28.4982 9.25014 28.4907 9.2486 28.483 9.2486C28.4753 9.2486 28.4678 9.25014 28.4607 9.25313C28.4537 9.25612 28.4473 9.2605 28.442 9.266C28.4313 9.27717 28.4253 9.29204 28.4253 9.3075C28.4253 9.32296 28.4313 9.33783 28.442 9.349C28.5395 9.47576 28.6026 9.62563 28.625 9.784C28.5681 9.74258 28.4997 9.71986 28.4293 9.71896C28.3589 9.71807 28.29 9.73904 28.232 9.779C28.1005 9.67426 27.9622 9.57838 27.818 9.492C27.8114 9.48812 27.8041 9.48561 27.7965 9.48462C27.7889 9.48363 27.7812 9.48418 27.7738 9.48623C27.7665 9.48829 27.7596 9.4918 27.7536 9.49657C27.7476 9.50134 27.7426 9.50727 27.739 9.514C27.7317 9.5276 27.7298 9.54351 27.7339 9.55842C27.738 9.57332 27.7477 9.58607 27.761 9.594C27.8954 9.67525 28.0247 9.76475 28.148 9.862C28.1077 9.91751 28.0845 9.98351 28.081 10.052C27.9178 9.98011 27.7489 9.92191 27.576 9.878C27.5686 9.87622 27.5609 9.87591 27.5533 9.87711C27.5458 9.8783 27.5386 9.88098 27.5321 9.88497C27.5256 9.88897 27.5199 9.8942 27.5154 9.90039C27.511 9.90657 27.5078 9.91357 27.506 9.921C27.5042 9.92855 27.5039 9.93638 27.5052 9.94404C27.5064 9.9517 27.5092 9.95903 27.5133 9.96563C27.5174 9.97222 27.5227 9.97795 27.529 9.98247C27.5353 9.987 27.5424 9.99023 27.55 9.992C27.7311 10.0392 27.9078 10.1021 28.078 10.18V10.364C27.8681 10.3287 27.6558 10.3096 27.443 10.307C27.4274 10.307 27.4123 10.3132 27.4013 10.3243C27.3902 10.3353 27.384 10.3504 27.384 10.366C27.384 10.3816 27.3902 10.3967 27.4013 10.4077C27.4123 10.4188 27.4274 10.425 27.443 10.425C27.6558 10.428 27.8681 10.4474 28.078 10.483V10.673C27.8896 10.6632 27.7019 10.7011 27.532 10.783C27.5182 10.7904 27.5079 10.803 27.5032 10.8179C27.4985 10.8329 27.4999 10.849 27.507 10.863C27.5118 10.8725 27.519 10.8805 27.528 10.8861C27.537 10.8918 27.5474 10.8948 27.558 10.895C27.567 10.8951 27.5759 10.8931 27.584 10.889C27.7379 10.8156 27.9078 10.7822 28.078 10.792V11.52C28.0782 11.6089 28.0698 11.6977 28.053 11.785L27.963 12.236C27.9614 12.2436 27.9613 12.2515 27.9628 12.2591C27.9642 12.2668 27.9671 12.2741 27.9714 12.2806C27.9757 12.2871 27.9812 12.2927 27.9877 12.297C27.9941 12.3014 28.0014 12.3045 28.009 12.306H28.021C28.0343 12.3058 28.0471 12.301 28.0573 12.2924C28.0675 12.2839 28.0745 12.2721 28.077 12.259L28.166 11.809C28.1847 11.7135 28.1941 11.6163 28.194 11.519V10.801C28.2705 10.8099 28.3464 10.8239 28.421 10.843L28.465 11.425C28.4677 11.4595 28.4774 11.4931 28.4936 11.5237C28.5098 11.5543 28.532 11.5813 28.559 11.603L28.371 11.889C28.3476 11.9235 28.3341 11.9637 28.3318 12.0053C28.3295 12.0469 28.3385 12.0883 28.3579 12.1251C28.3773 12.162 28.4064 12.1929 28.4419 12.2145C28.4775 12.2362 28.5183 12.2477 28.56 12.248H28.868C28.9097 12.2477 28.9505 12.2362 28.9861 12.2145C29.0216 12.1929 29.0507 12.162 29.0701 12.1251C29.0895 12.0883 29.0985 12.0469 29.0962 12.0053C29.0939 11.9637 29.0804 11.9235 29.057 11.889L28.87 11.603C28.8968 11.5812 28.9188 11.5542 28.9348 11.5236C28.9508 11.493 28.9604 11.4594 28.963 11.425L29.007 10.843C29.0816 10.8239 29.1575 10.8099 29.234 10.801V11.52C29.234 11.6167 29.2434 11.7131 29.262 11.808L29.351 12.259C29.3535 12.2721 29.3605 12.2839 29.3707 12.2924C29.3809 12.301 29.3937 12.3058 29.407 12.306H29.419C29.4342 12.3026 29.4475 12.2934 29.4559 12.2803C29.4644 12.2672 29.4673 12.2512 29.464 12.236L29.375 11.785C29.3582 11.6977 29.3498 11.6089 29.35 11.52V10.792C29.5202 10.7822 29.6901 10.8156 29.844 10.889C29.8508 10.8924 29.8582 10.8944 29.8658 10.8948C29.8734 10.8953 29.881 10.8942 29.8882 10.8917C29.8954 10.8892 29.902 10.8853 29.9076 10.8802C29.9132 10.8751 29.9178 10.8689 29.921 10.862C29.9275 10.8483 29.9285 10.8325 29.9239 10.8181C29.9192 10.8036 29.9093 10.7914 29.896 10.784C29.7262 10.7018 29.5384 10.6637 29.35 10.673V10.483C29.5599 10.4474 29.7722 10.428 29.985 10.425C30.0006 10.425 30.0157 10.4188 30.0267 10.4077C30.0378 10.3967 30.044 10.3816 30.044 10.366C30.044 10.3504 30.0378 10.3353 30.0267 10.3243C30.0157 10.3132 30.0016 10.307 29.986 10.307ZM29.234 10.386C29.1664 10.4007 29.0996 10.4191 29.034 10.441C29.033 10.4184 29.0296 10.3959 29.024 10.374C29.09 10.3224 29.1602 10.2766 29.234 10.237V10.386ZM29.234 10.072V10.104C29.1421 10.1499 29.0544 10.2037 28.972 10.265C28.9555 10.2418 28.936 10.221 28.914 10.203C28.9998 10.1075 29.0924 10.0182 29.191 9.936C29.2191 9.97578 29.2341 10.0233 29.234 10.072ZM29.004 9.837C29.0369 9.8373 29.0693 9.84481 29.099 9.859C28.9949 9.94721 28.8976 10.0431 28.808 10.146C28.7962 10.1419 28.7842 10.1386 28.772 10.136V10.131C28.772 10.104 28.772 10.078 28.774 10.053C28.7783 9.99471 28.8043 9.94015 28.8469 9.90014C28.8895 9.86013 28.9456 9.8376 29.004 9.837ZM28.425 9.837C28.4835 9.83737 28.5397 9.85983 28.5824 9.89988C28.625 9.93994 28.651 9.99463 28.655 10.053L28.656 10.131V10.137C28.6441 10.1396 28.6325 10.143 28.621 10.147C28.5311 10.0438 28.4335 9.94749 28.329 9.859C28.359 9.8447 28.3918 9.83719 28.425 9.837ZM28.195 10.072C28.1948 10.023 28.2098 9.97509 28.238 9.935C28.3366 10.0176 28.4292 10.1071 28.515 10.203C28.493 10.221 28.4735 10.2419 28.457 10.265C28.3742 10.204 28.2862 10.1505 28.194 10.105L28.195 10.072ZM28.195 10.237C28.2688 10.2766 28.339 10.3225 28.405 10.374C28.3993 10.3959 28.396 10.4184 28.395 10.441C28.3294 10.4191 28.2626 10.4007 28.195 10.386V10.237ZM28.195 10.681V10.507C28.2649 10.5224 28.3337 10.5424 28.401 10.567L28.412 10.718C28.3402 10.7011 28.2684 10.6887 28.195 10.681ZM29.235 10.681C29.1616 10.6887 29.0888 10.7011 29.017 10.718L29.028 10.568C29.0952 10.5431 29.1641 10.5227 29.234 10.507L29.235 10.681Z"
		fill="#D35A10"
	/>
	<path
		d="M26.334 11.895H26.074L25.083 10.998C25.0293 10.9495 24.9898 10.8873 24.9687 10.8181C24.9475 10.7489 24.9456 10.6752 24.963 10.605L25.24 9.479C25.2452 9.45644 25.2564 9.43571 25.2724 9.41897C25.2884 9.40223 25.3086 9.39011 25.3309 9.38387C25.3532 9.37763 25.3768 9.37751 25.3991 9.38351C25.4215 9.38952 25.4418 9.40143 25.458 9.418L25.907 9.875C25.9191 9.88711 25.9334 9.89671 25.9492 9.90323C25.965 9.90975 25.9819 9.91308 25.999 9.913H26.334V11.895Z"
		fill="#FFA033"
	/>
	<path
		d="M26.148 9.643L25.989 10.373C25.9602 10.5051 25.965 10.6423 26.003 10.772L26.334 11.895H26.594L26.925 10.772C26.9633 10.642 26.9681 10.5044 26.939 10.372L26.78 9.642C26.7645 9.56956 26.7247 9.50459 26.6673 9.45786C26.6098 9.41112 26.5381 9.38541 26.464 9.385C26.3897 9.38528 26.3178 9.41106 26.2603 9.45802C26.2028 9.50499 26.1631 9.57029 26.148 9.643Z"
		fill="#FF9480"
	/>
	<path
		d="M26.464 9.65C26.4468 9.65 26.4299 9.65339 26.414 9.65999C26.3982 9.66659 26.3838 9.67625 26.3717 9.68843C26.3596 9.70061 26.3501 9.71506 26.3436 9.73094C26.3371 9.74683 26.3339 9.76384 26.334 9.781V11.895H26.594V9.78C26.5943 9.76276 26.5911 9.74564 26.5847 9.72964C26.5783 9.71363 26.5687 9.69907 26.5566 9.68678C26.5445 9.6745 26.5301 9.66474 26.5142 9.65808C26.4983 9.65143 26.4812 9.648 26.464 9.648V9.65Z"
		fill="#FFA0E4"
	/>
	<path
		d="M30.428 8.421H24.192C24.1558 8.42153 24.1217 8.43598 24.0964 8.46183C24.0711 8.48768 24.0567 8.52284 24.057 8.559V10.904C24.057 15.594 27.31 16.421 27.31 16.421C27.31 16.421 30.564 15.593 30.564 10.904V8.559C30.5641 8.54101 30.5607 8.52317 30.554 8.5065C30.5472 8.48982 30.5372 8.47465 30.5246 8.46183C30.512 8.44902 30.4969 8.43882 30.4804 8.43181C30.4638 8.4248 30.446 8.42113 30.428 8.421ZM30.225 10.904C30.225 14.892 27.802 15.899 27.31 16.061C26.816 15.897 24.396 14.891 24.396 10.904V8.766H30.225V10.904ZM16.3 0H18V1.133L13.067 4.42H18V7.578H13.067L18 10.867V12H16.301L10.551 8.167V12H7.449V8.167L1.698 12H0V10.867L4.933 7.58H0V4.42H4.933L0 1.133V0H1.699L7.449 3.833V0H10.552V3.833L16.3 0Z"
		fill="#F5F5F5"
	/>
	<path
		d="M18 6.947H9.931V12H8.069V6.947H0V5.053H8.069V0H9.931V5.053H18V6.947ZM6.828 4.421L0.166 0.001H0V0.664L5.688 4.421H6.828ZM18 0.253V0H17.245L10.552 4.421H11.692L18 0.253ZM0 11.729V12H0.738L7.43 7.579H6.29L0 11.729ZM18 11.423L12.178 7.579H11.038L17.512 12H18V11.423Z"
		fill="#FF4B55"
	/>
</svg>
