<svg viewBox="0 0 36 24" fill="none" xmlns="http://www.w3.org/2000/svg">
	<path d="M2.02246e-05 24V0H36V24" fill="#F5F5F5" />
	<path
		d="M36 1.846H2.02246e-05V0H36V1.846ZM2.02246e-05 7.385H36V9.231H2.02246e-05V7.385ZM2.02246e-05 3.692H36V5.538H2.02246e-05V3.692ZM36 12.923H0.62002C0.454167 12.9214 0.295722 12.8541 0.179476 12.7358C0.0632308 12.6175 -0.00131211 12.4579 2.02246e-05 12.292V11.077H36V12.923ZM2.02246e-05 18.462H36V20.308H2.02246e-05V18.462ZM36 24H2.02246e-05V22.154H36V24ZM2.02246e-05 14.77H36V16.616H2.02246e-05V14.77Z"
		fill="#FF4B55"
	/>
	<path d="M2.02246e-05 0V12.923H16.759V0" fill="#41479B" />
	<path
		d="M2.34902 1.98L1.99902 2.242L2.13102 2.664C2.13468 2.67574 2.13458 2.68832 2.13073 2.7C2.12689 2.71168 2.11949 2.72186 2.10958 2.72913C2.09967 2.7364 2.08773 2.74039 2.07544 2.74055C2.06315 2.7407 2.05111 2.73702 2.04102 2.73L1.68802 2.473L1.33402 2.73C1.32393 2.73702 1.31189 2.7407 1.2996 2.74055C1.28731 2.74039 1.27537 2.7364 1.26546 2.72913C1.25555 2.72186 1.24815 2.71168 1.24431 2.7C1.24046 2.68832 1.24036 2.67574 1.24402 2.664L1.37502 2.242L1.02602 1.98C1.01607 1.97255 1.00868 1.96219 1.00487 1.95036C1.00106 1.93853 1.00101 1.92581 1.00475 1.91395C1.00848 1.90209 1.0158 1.89169 1.0257 1.88417C1.03561 1.87666 1.0476 1.87241 1.06002 1.872L1.49502 1.869L1.63202 1.449C1.63563 1.43709 1.64298 1.42667 1.65297 1.41926C1.66297 1.41185 1.67508 1.40784 1.68752 1.40784C1.69996 1.40784 1.71207 1.41185 1.72207 1.41926C1.73206 1.42667 1.73941 1.43709 1.74302 1.449L1.88002 1.869L2.31502 1.872C2.32744 1.87241 2.33944 1.87666 2.34934 1.88417C2.35924 1.89169 2.36656 1.90209 2.37029 1.91395C2.37403 1.92581 2.37398 1.93853 2.37017 1.95036C2.36636 1.96219 2.35897 1.97255 2.34902 1.98ZM2.31502 4.065L1.88002 4.062L1.74302 3.642C1.73941 3.63009 1.73206 3.61967 1.72207 3.61226C1.71207 3.60485 1.69996 3.60084 1.68752 3.60084C1.67508 3.60084 1.66297 3.60485 1.65297 3.61226C1.64298 3.61967 1.63563 3.63009 1.63202 3.642L1.49502 4.062L1.06002 4.066C1.04784 4.06665 1.03616 4.07099 1.02651 4.07845C1.01686 4.08591 1.00972 4.09613 1.00603 4.10775C1.00233 4.11937 1.00227 4.13183 1.00584 4.14349C1.00941 4.15515 1.01645 4.16544 1.02602 4.173L1.37602 4.436L1.24402 4.856C1.24004 4.8678 1.2399 4.88056 1.24361 4.89244C1.24733 4.90433 1.25471 4.91474 1.2647 4.92217C1.27469 4.92961 1.28677 4.93369 1.29922 4.93384C1.31168 4.93399 1.32386 4.9302 1.33402 4.923L1.68702 4.666L2.04102 4.923C2.05111 4.93002 2.06315 4.9337 2.07544 4.93355C2.08773 4.93339 2.09967 4.9294 2.10958 4.92213C2.11949 4.91486 2.12689 4.90468 2.13073 4.893C2.13458 4.88132 2.13468 4.86874 2.13102 4.857L2.00002 4.435L2.34902 4.173C2.35897 4.16555 2.36636 4.15519 2.37017 4.14336C2.37398 4.13153 2.37403 4.11881 2.37029 4.10695C2.36656 4.09509 2.35924 4.08469 2.34934 4.07717C2.33944 4.06966 2.32744 4.06541 2.31502 4.065ZM2.31502 6.259L1.88002 6.255L1.74302 5.836C1.73916 5.82447 1.73177 5.81444 1.7219 5.80734C1.71203 5.80023 1.70018 5.79641 1.68802 5.79641C1.67586 5.79641 1.66401 5.80023 1.65414 5.80734C1.64427 5.81444 1.63688 5.82447 1.63302 5.836L1.49502 6.256L1.06002 6.259C1.04784 6.25965 1.03616 6.26399 1.02651 6.27145C1.01686 6.27891 1.00972 6.28912 1.00603 6.30075C1.00233 6.31237 1.00227 6.32483 1.00584 6.33649C1.00941 6.34815 1.01645 6.35844 1.02602 6.366L1.37602 6.629L1.24402 7.05C1.24036 7.06174 1.24046 7.07432 1.24431 7.086C1.24815 7.09768 1.25555 7.10786 1.26546 7.11513C1.27537 7.1224 1.28731 7.12639 1.2996 7.12655C1.31189 7.1267 1.32393 7.12302 1.33402 7.116L1.68802 6.859L2.04102 7.116C2.05111 7.12302 2.06315 7.1267 2.07544 7.12655C2.08773 7.12639 2.09967 7.1224 2.10958 7.11513C2.11949 7.10786 2.12689 7.09768 2.13073 7.086C2.13458 7.07432 2.13468 7.06174 2.13102 7.05L2.00002 6.629L2.34902 6.366C2.35859 6.35844 2.36563 6.34815 2.3692 6.33649C2.37277 6.32483 2.37271 6.31237 2.36901 6.30075C2.36532 6.28912 2.35818 6.27891 2.34853 6.27145C2.33888 6.26399 2.3272 6.25965 2.31502 6.259ZM2.31502 8.452L1.88002 8.448L1.74302 8.029C1.73916 8.01747 1.73177 8.00744 1.7219 8.00034C1.71203 7.99323 1.70018 7.98941 1.68802 7.98941C1.67586 7.98941 1.66401 7.99323 1.65414 8.00034C1.64427 8.00744 1.63688 8.01747 1.63302 8.029L1.49502 8.449L1.06002 8.452C1.04784 8.45265 1.03616 8.45699 1.02651 8.46445C1.01686 8.47191 1.00972 8.48212 1.00603 8.49374C1.00233 8.50536 1.00227 8.51783 1.00584 8.52949C1.00941 8.54115 1.01645 8.55144 1.02602 8.559L1.37602 8.822L1.24402 9.243C1.24004 9.2548 1.2399 9.26756 1.24361 9.27944C1.24733 9.29133 1.25471 9.30174 1.2647 9.30917C1.27469 9.31661 1.28677 9.32069 1.29922 9.32084C1.31168 9.32099 1.32386 9.3172 1.33402 9.31L1.68802 9.053L2.04102 9.31C2.05118 9.3172 2.06336 9.32099 2.07582 9.32084C2.08827 9.32069 2.10035 9.31661 2.11034 9.30917C2.12033 9.30174 2.12771 9.29133 2.13143 9.27944C2.13514 9.26756 2.135 9.2548 2.13102 9.243L2.00002 8.822L2.34902 8.559C2.35859 8.55144 2.36563 8.54115 2.3692 8.52949C2.37277 8.51783 2.37271 8.50536 2.36901 8.49374C2.36532 8.48212 2.35818 8.47191 2.34853 8.46445C2.33888 8.45699 2.3272 8.45265 2.31502 8.452ZM2.31502 10.645L1.88002 10.642L1.74302 10.222C1.73916 10.2105 1.73177 10.2004 1.7219 10.1933C1.71203 10.1862 1.70018 10.1824 1.68802 10.1824C1.67586 10.1824 1.66401 10.1862 1.65414 10.1933C1.64427 10.2004 1.63688 10.2105 1.63302 10.222L1.49502 10.642L1.06002 10.645C1.0476 10.6454 1.03561 10.6497 1.0257 10.6572C1.0158 10.6647 1.00848 10.6751 1.00475 10.687C1.00101 10.6988 1.00106 10.7115 1.00487 10.7234C1.00868 10.7352 1.01607 10.7456 1.02602 10.753L1.37602 11.015L1.24402 11.436C1.24004 11.4478 1.2399 11.4606 1.24361 11.4724C1.24733 11.4843 1.25471 11.4947 1.2647 11.5022C1.27469 11.5096 1.28677 11.5137 1.29922 11.5138C1.31168 11.514 1.32386 11.5102 1.33402 11.503L1.68802 11.246L2.04102 11.503C2.05118 11.5102 2.06336 11.514 2.07582 11.5138C2.08827 11.5137 2.10035 11.5096 2.11034 11.5022C2.12033 11.4947 2.12771 11.4843 2.13143 11.4724C2.13514 11.4606 2.135 11.4478 2.13102 11.436L2.00002 11.016L2.34902 10.752C2.35859 10.7444 2.36563 10.7341 2.3692 10.7225C2.37277 10.7108 2.37271 10.6984 2.36901 10.6867C2.36532 10.6751 2.35818 10.6649 2.34853 10.6574C2.33888 10.65 2.3272 10.6456 2.31502 10.645ZM3.98802 2.948L3.55302 2.944L3.41602 2.524C3.41241 2.51209 3.40506 2.50167 3.39507 2.49426C3.38507 2.48685 3.37296 2.48284 3.36052 2.48284C3.34808 2.48284 3.33597 2.48685 3.32597 2.49426C3.31598 2.50167 3.30863 2.51209 3.30502 2.524L3.16802 2.944L2.73302 2.948C2.72084 2.94865 2.70916 2.95299 2.69951 2.96045C2.68986 2.96791 2.68272 2.97813 2.67903 2.98975C2.67533 3.00137 2.67527 3.01383 2.67884 3.02549C2.68241 3.03715 2.68945 3.04744 2.69902 3.055L3.04902 3.318L2.91702 3.738C2.91304 3.7498 2.9129 3.76256 2.91661 3.77444C2.92033 3.78633 2.92771 3.79674 2.9377 3.80417C2.94769 3.81161 2.95977 3.81569 2.97222 3.81584C2.98468 3.81599 2.99686 3.8122 3.00702 3.805L3.36002 3.548L3.71402 3.805C3.72411 3.81202 3.73615 3.8157 3.74844 3.81555C3.76073 3.81539 3.77267 3.8114 3.78258 3.80413C3.79249 3.79686 3.79989 3.78668 3.80373 3.775C3.80758 3.76332 3.80768 3.75074 3.80402 3.739L3.67302 3.318L4.02202 3.055C4.03159 3.04744 4.03863 3.03715 4.0422 3.02549C4.04577 3.01383 4.04571 3.00137 4.04201 2.98975C4.03832 2.97813 4.03118 2.96791 4.02153 2.96045C4.01188 2.95299 4.0002 2.94865 3.98802 2.948ZM3.98802 5.141L3.55302 5.137L3.41602 4.718C3.41241 4.70609 3.40506 4.69567 3.39507 4.68826C3.38507 4.68085 3.37296 4.67685 3.36052 4.67685C3.34808 4.67685 3.33597 4.68085 3.32597 4.68826C3.31598 4.69567 3.30863 4.70609 3.30502 4.718L3.16802 5.138L2.73302 5.141C2.72084 5.14165 2.70916 5.14599 2.69951 5.15345C2.68986 5.16091 2.68272 5.17112 2.67903 5.18274C2.67533 5.19437 2.67527 5.20683 2.67884 5.21849C2.68241 5.23015 2.68945 5.24044 2.69902 5.248L3.04902 5.511L2.91702 5.932C2.91304 5.9438 2.9129 5.95656 2.91661 5.96844C2.92033 5.98033 2.92771 5.99074 2.9377 5.99817C2.94769 6.00561 2.95977 6.00969 2.97222 6.00984C2.98468 6.00999 2.99686 6.0062 3.00702 5.999L3.36002 5.742L3.71402 5.999C3.72418 6.0062 3.73636 6.00999 3.74882 6.00984C3.76127 6.00969 3.77335 6.00561 3.78334 5.99817C3.79333 5.99074 3.80071 5.98033 3.80443 5.96844C3.80814 5.95656 3.808 5.9438 3.80402 5.932L3.67302 5.511L4.02202 5.248C4.03159 5.24044 4.03863 5.23015 4.0422 5.21849C4.04577 5.20683 4.04571 5.19437 4.04201 5.18274C4.03832 5.17112 4.03118 5.16091 4.02153 5.15345C4.01188 5.14599 4.0002 5.14165 3.98802 5.141ZM3.98802 7.334L3.55302 7.331L3.41602 6.911C3.41241 6.89909 3.40506 6.88867 3.39507 6.88126C3.38507 6.87385 3.37296 6.86984 3.36052 6.86984C3.34808 6.86984 3.33597 6.87385 3.32597 6.88126C3.31598 6.88867 3.30863 6.89909 3.30502 6.911L3.16802 7.331L2.73302 7.334C2.72084 7.33465 2.70916 7.33899 2.69951 7.34645C2.68986 7.35391 2.68272 7.36412 2.67903 7.37574C2.67533 7.38736 2.67527 7.39983 2.67884 7.41149C2.68241 7.42315 2.68945 7.43344 2.69902 7.441L3.04902 7.704L2.91702 8.125C2.91304 8.1368 2.9129 8.14956 2.91661 8.16144C2.92033 8.17333 2.92771 8.18374 2.9377 8.19117C2.94769 8.19861 2.95977 8.20269 2.97222 8.20284C2.98468 8.20299 2.99686 8.1992 3.00702 8.192L3.36002 7.935L3.71402 8.192C3.72418 8.1992 3.73636 8.20299 3.74882 8.20284C3.76127 8.20269 3.77335 8.19861 3.78334 8.19117C3.79333 8.18374 3.80071 8.17333 3.80443 8.16144C3.80814 8.14956 3.808 8.1368 3.80402 8.125L3.67302 7.704L4.02202 7.441C4.03159 7.43344 4.03863 7.42315 4.0422 7.41149C4.04577 7.39983 4.04571 7.38736 4.04201 7.37574C4.03832 7.36412 4.03118 7.35391 4.02153 7.34645C4.01188 7.33899 4.0002 7.33465 3.98802 7.334ZM3.98802 9.527L3.55302 9.524L3.41602 9.104C3.41241 9.09209 3.40506 9.08167 3.39507 9.07426C3.38507 9.06685 3.37296 9.06285 3.36052 9.06285C3.34808 9.06285 3.33597 9.06685 3.32597 9.07426C3.31598 9.08167 3.30863 9.09209 3.30502 9.104L3.16802 9.524L2.73302 9.527C2.7206 9.52741 2.70861 9.53166 2.6987 9.53918C2.6888 9.54669 2.68148 9.55709 2.67775 9.56895C2.67401 9.58081 2.67406 9.59353 2.67787 9.60536C2.68168 9.61719 2.68907 9.62755 2.69902 9.635L3.04902 9.897L2.91702 10.318C2.91304 10.3298 2.9129 10.3426 2.91661 10.3544C2.92033 10.3663 2.92771 10.3767 2.9377 10.3842C2.94769 10.3916 2.95977 10.3957 2.97222 10.3958C2.98468 10.396 2.99686 10.3922 3.00702 10.385L3.36002 10.128L3.71402 10.385C3.72418 10.3922 3.73636 10.396 3.74882 10.3958C3.76127 10.3957 3.77335 10.3916 3.78334 10.3842C3.79333 10.3767 3.80071 10.3663 3.80443 10.3544C3.80814 10.3426 3.808 10.3298 3.80402 10.318L3.67302 9.898L4.02202 9.635C4.03197 9.62755 4.03936 9.61719 4.04317 9.60536C4.04698 9.59353 4.04703 9.58081 4.04329 9.56895C4.03956 9.55709 4.03224 9.54669 4.02234 9.53918C4.01243 9.53166 4.00044 9.52741 3.98802 9.527ZM5.66002 1.872L5.22502 1.869L5.08802 1.449C5.08441 1.43709 5.07706 1.42667 5.06707 1.41926C5.05707 1.41185 5.04496 1.40784 5.03252 1.40784C5.02008 1.40784 5.00797 1.41185 4.99797 1.41926C4.98798 1.42667 4.98063 1.43709 4.97702 1.449L4.84002 1.869L4.40502 1.872C4.3926 1.87241 4.38061 1.87666 4.3707 1.88417C4.3608 1.89169 4.35348 1.90209 4.34975 1.91395C4.34601 1.92581 4.34606 1.93853 4.34987 1.95036C4.35368 1.96219 4.36107 1.97255 4.37102 1.98L4.72102 2.242L4.58902 2.664C4.58536 2.67574 4.58546 2.68832 4.58931 2.7C4.59315 2.71168 4.60055 2.72186 4.61046 2.72913C4.62037 2.7364 4.63231 2.74039 4.6446 2.74055C4.65689 2.7407 4.66893 2.73702 4.67902 2.73L5.03202 2.473L5.38602 2.73C5.39611 2.73702 5.40815 2.7407 5.42044 2.74055C5.43273 2.74039 5.44467 2.7364 5.45458 2.72913C5.46449 2.72186 5.47189 2.71168 5.47573 2.7C5.47958 2.68832 5.47968 2.67574 5.47602 2.664L5.34402 2.242L5.69402 1.98C5.70397 1.97255 5.71136 1.96219 5.71517 1.95036C5.71898 1.93853 5.71903 1.92581 5.71529 1.91395C5.71156 1.90209 5.70424 1.89169 5.69434 1.88417C5.68443 1.87666 5.67244 1.87241 5.66002 1.872ZM5.66002 4.065L5.22502 4.062L5.08802 3.642C5.08441 3.63009 5.07706 3.61967 5.06707 3.61226C5.05707 3.60485 5.04496 3.60084 5.03252 3.60084C5.02008 3.60084 5.00797 3.60485 4.99797 3.61226C4.98798 3.61967 4.98063 3.63009 4.97702 3.642L4.84002 4.062L4.40502 4.065C4.3926 4.06541 4.38061 4.06966 4.3707 4.07717C4.3608 4.08469 4.35348 4.09509 4.34975 4.10695C4.34601 4.11881 4.34606 4.13153 4.34987 4.14336C4.35368 4.15519 4.36107 4.16555 4.37102 4.173L4.72102 4.435L4.58902 4.857C4.58536 4.86874 4.58546 4.88132 4.58931 4.893C4.59315 4.90468 4.60055 4.91486 4.61046 4.92213C4.62037 4.9294 4.63231 4.93339 4.6446 4.93355C4.65689 4.9337 4.66893 4.93002 4.67902 4.923L5.03202 4.666L5.38602 4.923C5.39611 4.93002 5.40815 4.9337 5.42044 4.93355C5.43273 4.93339 5.44467 4.9294 5.45458 4.92213C5.46449 4.91486 5.47189 4.90468 5.47573 4.893C5.47958 4.88132 5.47968 4.86874 5.47602 4.857L5.34402 4.435L5.69402 4.173C5.70397 4.16555 5.71136 4.15519 5.71517 4.14336C5.71898 4.13153 5.71903 4.11881 5.71529 4.10695C5.71156 4.09509 5.70424 4.08469 5.69434 4.07717C5.68443 4.06966 5.67244 4.06541 5.66002 4.065ZM5.66002 6.259L5.22502 6.255L5.08802 5.836C5.08441 5.82409 5.07706 5.81367 5.06707 5.80626C5.05707 5.79885 5.04496 5.79485 5.03252 5.79485C5.02008 5.79485 5.00797 5.79885 4.99797 5.80626C4.98798 5.81367 4.98063 5.82409 4.97702 5.836L4.84002 6.256L4.40502 6.259C4.39284 6.25965 4.38116 6.26399 4.37151 6.27145C4.36186 6.27891 4.35472 6.28912 4.35103 6.30075C4.34733 6.31237 4.34727 6.32483 4.35084 6.33649C4.35441 6.34815 4.36145 6.35844 4.37102 6.366L4.72102 6.629L4.58902 7.05C4.58536 7.06174 4.58546 7.07432 4.58931 7.086C4.59315 7.09768 4.60055 7.10786 4.61046 7.11513C4.62037 7.1224 4.63231 7.12639 4.6446 7.12655C4.65689 7.1267 4.66893 7.12302 4.67902 7.116L5.03202 6.859L5.38602 7.116C5.39611 7.12302 5.40815 7.1267 5.42044 7.12655C5.43273 7.12639 5.44467 7.1224 5.45458 7.11513C5.46449 7.10786 5.47189 7.09768 5.47573 7.086C5.47958 7.07432 5.47968 7.06174 5.47602 7.05L5.34402 6.629L5.69402 6.366C5.70359 6.35844 5.71063 6.34815 5.7142 6.33649C5.71777 6.32483 5.71771 6.31237 5.71401 6.30075C5.71032 6.28912 5.70318 6.27891 5.69353 6.27145C5.68388 6.26399 5.6722 6.25965 5.66002 6.259ZM5.66002 8.452L5.22502 8.448L5.08802 8.029C5.08441 8.0171 5.07706 8.00667 5.06707 7.99926C5.05707 7.99185 5.04496 7.98784 5.03252 7.98784C5.02008 7.98784 5.00797 7.99185 4.99797 7.99926C4.98798 8.00667 4.98063 8.0171 4.97702 8.029L4.84002 8.449L4.40502 8.452C4.39284 8.45265 4.38116 8.45699 4.37151 8.46445C4.36186 8.47191 4.35472 8.48212 4.35103 8.49374C4.34733 8.50536 4.34727 8.51783 4.35084 8.52949C4.35441 8.54115 4.36145 8.55144 4.37102 8.559L4.72102 8.822L4.58902 9.243C4.58504 9.2548 4.5849 9.26756 4.58861 9.27944C4.59233 9.29133 4.59971 9.30174 4.6097 9.30917C4.61969 9.31661 4.63177 9.32069 4.64422 9.32084C4.65668 9.32099 4.66886 9.3172 4.67902 9.31L5.03202 9.053L5.38602 9.31C5.39618 9.3172 5.40836 9.32099 5.42082 9.32084C5.43327 9.32069 5.44535 9.31661 5.45534 9.30917C5.46533 9.30174 5.47271 9.29133 5.47643 9.27944C5.48014 9.26756 5.48 9.2548 5.47602 9.243L5.34402 8.822L5.69402 8.559C5.70359 8.55144 5.71063 8.54115 5.7142 8.52949C5.71777 8.51783 5.71771 8.50536 5.71401 8.49374C5.71032 8.48212 5.70318 8.47191 5.69353 8.46445C5.68388 8.45699 5.6722 8.45265 5.66002 8.452ZM5.66002 10.645L5.22502 10.642L5.08802 10.222C5.08441 10.2101 5.07706 10.1997 5.06707 10.1923C5.05707 10.1848 5.04496 10.1808 5.03252 10.1808C5.02008 10.1808 5.00797 10.1848 4.99797 10.1923C4.98798 10.1997 4.98063 10.2101 4.97702 10.222L4.84002 10.642L4.40502 10.645C4.39284 10.6456 4.38116 10.65 4.37151 10.6574C4.36186 10.6649 4.35472 10.6751 4.35103 10.6867C4.34733 10.6984 4.34727 10.7108 4.35084 10.7225C4.35441 10.7341 4.36145 10.7444 4.37102 10.752L4.72102 11.015L4.58902 11.436C4.58504 11.4478 4.5849 11.4606 4.58861 11.4724C4.59233 11.4843 4.59971 11.4947 4.6097 11.5022C4.61969 11.5096 4.63177 11.5137 4.64422 11.5138C4.65668 11.514 4.66886 11.5102 4.67902 11.503L5.03202 11.246L5.38602 11.503C5.39618 11.5102 5.40836 11.514 5.42082 11.5138C5.43327 11.5137 5.44535 11.5096 5.45534 11.5022C5.46533 11.4947 5.47271 11.4843 5.47643 11.4724C5.48014 11.4606 5.48 11.4478 5.47602 11.436L5.34402 11.016L5.69402 10.752C5.70359 10.7444 5.71063 10.7341 5.7142 10.7225C5.71777 10.7108 5.71771 10.6984 5.71401 10.6867C5.71032 10.6751 5.70318 10.6649 5.69353 10.6574C5.68388 10.65 5.6722 10.6456 5.66002 10.645ZM7.33302 2.948L6.89802 2.944L6.76102 2.524C6.75741 2.51209 6.75006 2.50167 6.74007 2.49426C6.73007 2.48685 6.71796 2.48284 6.70552 2.48284C6.69308 2.48284 6.68097 2.48685 6.67097 2.49426C6.66098 2.50167 6.65363 2.51209 6.65002 2.524L6.51202 2.944L6.07802 2.948C6.06584 2.94865 6.05416 2.95299 6.04451 2.96045C6.03486 2.96791 6.02772 2.97813 6.02403 2.98975C6.02033 3.00137 6.02027 3.01383 6.02384 3.02549C6.02741 3.03715 6.03445 3.04744 6.04402 3.055L6.39402 3.318L6.26202 3.738C6.25804 3.7498 6.2579 3.76256 6.26161 3.77444C6.26533 3.78633 6.27271 3.79674 6.2827 3.80417C6.29269 3.81161 6.30477 3.81569 6.31722 3.81584C6.32968 3.81599 6.34186 3.8122 6.35202 3.805L6.70502 3.548L7.05902 3.805C7.06911 3.81202 7.08115 3.8157 7.09344 3.81555C7.10573 3.81539 7.11767 3.8114 7.12758 3.80413C7.13749 3.79686 7.14489 3.78668 7.14873 3.775C7.15258 3.76332 7.15268 3.75074 7.14902 3.739L7.01702 3.318L7.36702 3.055C7.37659 3.04744 7.38363 3.03715 7.3872 3.02549C7.39077 3.01383 7.39071 3.00137 7.38701 2.98975C7.38332 2.97813 7.37618 2.96791 7.36653 2.96045C7.35688 2.95299 7.3452 2.94865 7.33302 2.948ZM7.33302 5.141L6.89802 5.137L6.76102 4.718C6.75741 4.70609 6.75006 4.69567 6.74007 4.68826C6.73007 4.68085 6.71796 4.67685 6.70552 4.67685C6.69308 4.67685 6.68097 4.68085 6.67097 4.68826C6.66098 4.69567 6.65363 4.70609 6.65002 4.718L6.51202 5.138L6.07802 5.141C6.06584 5.14165 6.05416 5.14599 6.04451 5.15345C6.03486 5.16091 6.02772 5.17112 6.02403 5.18274C6.02033 5.19437 6.02027 5.20683 6.02384 5.21849C6.02741 5.23015 6.03445 5.24044 6.04402 5.248L6.39402 5.511L6.26202 5.932C6.25804 5.9438 6.2579 5.95656 6.26161 5.96844C6.26533 5.98033 6.27271 5.99074 6.2827 5.99817C6.29269 6.00561 6.30477 6.00969 6.31722 6.00984C6.32968 6.00999 6.34186 6.0062 6.35202 5.999L6.70502 5.742L7.05902 5.999C7.06918 6.0062 7.08136 6.00999 7.09382 6.00984C7.10627 6.00969 7.11835 6.00561 7.12834 5.99817C7.13833 5.99074 7.14571 5.98033 7.14943 5.96844C7.15314 5.95656 7.153 5.9438 7.14902 5.932L7.01702 5.511L7.36702 5.248C7.37659 5.24044 7.38363 5.23015 7.3872 5.21849C7.39077 5.20683 7.39071 5.19437 7.38701 5.18274C7.38332 5.17112 7.37618 5.16091 7.36653 5.15345C7.35688 5.14599 7.3452 5.14165 7.33302 5.141ZM7.33302 7.334L6.89802 7.331L6.76102 6.911C6.75741 6.89909 6.75006 6.88867 6.74007 6.88126C6.73007 6.87385 6.71796 6.86984 6.70552 6.86984C6.69308 6.86984 6.68097 6.87385 6.67097 6.88126C6.66098 6.88867 6.65363 6.89909 6.65002 6.911L6.51202 7.331L6.07802 7.334C6.06584 7.33465 6.05416 7.33899 6.04451 7.34645C6.03486 7.35391 6.02772 7.36412 6.02403 7.37574C6.02033 7.38736 6.02027 7.39983 6.02384 7.41149C6.02741 7.42315 6.03445 7.43344 6.04402 7.441L6.39402 7.704L6.26202 8.125C6.25804 8.1368 6.2579 8.14956 6.26161 8.16144C6.26533 8.17333 6.27271 8.18374 6.2827 8.19117C6.29269 8.19861 6.30477 8.20269 6.31722 8.20284C6.32968 8.20299 6.34186 8.1992 6.35202 8.192L6.70502 7.935L7.05902 8.192C7.06918 8.1992 7.08136 8.20299 7.09382 8.20284C7.10627 8.20269 7.11835 8.19861 7.12834 8.19117C7.13833 8.18374 7.14571 8.17333 7.14943 8.16144C7.15314 8.14956 7.153 8.1368 7.14902 8.125L7.01802 7.704L7.36702 7.441C7.37659 7.43344 7.38363 7.42315 7.3872 7.41149C7.39077 7.39983 7.39071 7.38736 7.38701 7.37574C7.38332 7.36412 7.37618 7.35391 7.36653 7.34645C7.35688 7.33899 7.3452 7.33465 7.33302 7.334ZM7.33302 9.527L6.89802 9.524L6.76102 9.104C6.75741 9.09209 6.75006 9.08167 6.74007 9.07426C6.73007 9.06685 6.71796 9.06285 6.70552 9.06285C6.69308 9.06285 6.68097 9.06685 6.67097 9.07426C6.66098 9.08167 6.65363 9.09209 6.65002 9.104L6.51202 9.524L6.07802 9.527C6.0656 9.52741 6.05361 9.53166 6.0437 9.53918C6.0338 9.54669 6.02648 9.55709 6.02275 9.56895C6.01901 9.58081 6.01906 9.59353 6.02287 9.60536C6.02668 9.61719 6.03407 9.62755 6.04402 9.635L6.39402 9.897L6.26202 10.318C6.25804 10.3298 6.2579 10.3426 6.26161 10.3544C6.26533 10.3663 6.27271 10.3767 6.2827 10.3842C6.29269 10.3916 6.30477 10.3957 6.31722 10.3958C6.32968 10.396 6.34186 10.3922 6.35202 10.385L6.70502 10.128L7.05902 10.385C7.06918 10.3922 7.08136 10.396 7.09382 10.3958C7.10627 10.3957 7.11835 10.3916 7.12834 10.3842C7.13833 10.3767 7.14571 10.3663 7.14943 10.3544C7.15314 10.3426 7.153 10.3298 7.14902 10.318L7.01702 9.898L7.36702 9.635C7.37697 9.62755 7.38436 9.61719 7.38817 9.60536C7.39198 9.59353 7.39203 9.58081 7.38829 9.56895C7.38456 9.55709 7.37724 9.54669 7.36734 9.53918C7.35743 9.53166 7.34544 9.52741 7.33302 9.527ZM9.00602 1.872L8.57102 1.869L8.43402 1.449C8.43041 1.43709 8.42306 1.42667 8.41307 1.41926C8.40307 1.41185 8.39096 1.40784 8.37852 1.40784C8.36608 1.40784 8.35397 1.41185 8.34397 1.41926C8.33398 1.42667 8.32663 1.43709 8.32302 1.449L8.18502 1.869L7.75102 1.872C7.7386 1.87241 7.72661 1.87666 7.7167 1.88417C7.7068 1.89169 7.69948 1.90209 7.69575 1.91395C7.69201 1.92581 7.69206 1.93853 7.69587 1.95036C7.69968 1.96219 7.70707 1.97255 7.71702 1.98L8.06702 2.242L7.93502 2.664C7.93136 2.67574 7.93146 2.68832 7.93531 2.7C7.93915 2.71168 7.94655 2.72186 7.95646 2.72913C7.96637 2.7364 7.97831 2.74039 7.9906 2.74055C8.00289 2.7407 8.01493 2.73702 8.02502 2.73L8.37802 2.473L8.73202 2.73C8.74211 2.73702 8.75415 2.7407 8.76644 2.74055C8.77873 2.74039 8.79067 2.7364 8.80058 2.72913C8.8105 2.72186 8.81789 2.71168 8.82173 2.7C8.82558 2.68832 8.82568 2.67574 8.82202 2.664L8.69002 2.242L9.04002 1.98C9.04997 1.97255 9.05736 1.96219 9.06117 1.95036C9.06499 1.93853 9.06503 1.92581 9.06129 1.91395C9.05756 1.90209 9.05024 1.89169 9.04034 1.88417C9.03044 1.87666 9.01844 1.87241 9.00602 1.872ZM9.00602 4.065L8.57102 4.062L8.43402 3.642C8.43041 3.63009 8.42306 3.61967 8.41307 3.61226C8.40307 3.60485 8.39096 3.60084 8.37852 3.60084C8.36608 3.60084 8.35397 3.60485 8.34397 3.61226C8.33398 3.61967 8.32663 3.63009 8.32302 3.642L8.18502 4.062L7.75102 4.065C7.7386 4.06541 7.72661 4.06966 7.7167 4.07717C7.7068 4.08469 7.69948 4.09509 7.69575 4.10695C7.69201 4.11881 7.69206 4.13153 7.69587 4.14336C7.69968 4.15519 7.70707 4.16555 7.71702 4.173L8.06702 4.435L7.93502 4.857C7.93136 4.86874 7.93146 4.88132 7.93531 4.893C7.93915 4.90468 7.94655 4.91486 7.95646 4.92213C7.96637 4.9294 7.97831 4.93339 7.9906 4.93355C8.00289 4.9337 8.01493 4.93002 8.02502 4.923L8.37802 4.666L8.73202 4.923C8.74211 4.93002 8.75415 4.9337 8.76644 4.93355C8.77873 4.93339 8.79067 4.9294 8.80058 4.92213C8.8105 4.91486 8.81789 4.90468 8.82173 4.893C8.82558 4.88132 8.82568 4.86874 8.82202 4.857L8.69002 4.435L9.04002 4.173C9.04997 4.16555 9.05736 4.15519 9.06117 4.14336C9.06499 4.13153 9.06503 4.11881 9.06129 4.10695C9.05756 4.09509 9.05024 4.08469 9.04034 4.07717C9.03044 4.06966 9.01844 4.06541 9.00602 4.065ZM9.00602 6.259L8.57102 6.255L8.43402 5.836C8.43041 5.82409 8.42306 5.81367 8.41307 5.80626C8.40307 5.79885 8.39096 5.79485 8.37852 5.79485C8.36608 5.79485 8.35397 5.79885 8.34397 5.80626C8.33398 5.81367 8.32663 5.82409 8.32302 5.836L8.18502 6.256L7.75102 6.259C7.73884 6.25965 7.72716 6.26399 7.71751 6.27145C7.70786 6.27891 7.70072 6.28912 7.69703 6.30075C7.69333 6.31237 7.69327 6.32483 7.69684 6.33649C7.70041 6.34815 7.70745 6.35844 7.71702 6.366L8.06702 6.629L7.93502 7.05C7.93136 7.06174 7.93146 7.07432 7.93531 7.086C7.93915 7.09768 7.94655 7.10786 7.95646 7.11513C7.96637 7.1224 7.97831 7.12639 7.9906 7.12655C8.00289 7.1267 8.01493 7.12302 8.02502 7.116L8.37802 6.859L8.73202 7.116C8.74211 7.12302 8.75415 7.1267 8.76644 7.12655C8.77873 7.12639 8.79067 7.1224 8.80058 7.11513C8.8105 7.10786 8.81789 7.09768 8.82173 7.086C8.82558 7.07432 8.82568 7.06174 8.82202 7.05L8.69002 6.629L9.04002 6.366C9.04959 6.35844 9.05663 6.34815 9.0602 6.33649C9.06377 6.32483 9.06371 6.31237 9.06001 6.30075C9.05632 6.28912 9.04918 6.27891 9.03953 6.27145C9.02989 6.26399 9.0182 6.25965 9.00602 6.259ZM9.00602 8.452L8.57102 8.448L8.43402 8.029C8.43041 8.0171 8.42306 8.00667 8.41307 7.99926C8.40307 7.99185 8.39096 7.98784 8.37852 7.98784C8.36608 7.98784 8.35397 7.99185 8.34397 7.99926C8.33398 8.00667 8.32663 8.0171 8.32302 8.029L8.18502 8.449L7.75102 8.452C7.73884 8.45265 7.72716 8.45699 7.71751 8.46445C7.70786 8.47191 7.70072 8.48212 7.69703 8.49374C7.69333 8.50536 7.69327 8.51783 7.69684 8.52949C7.70041 8.54115 7.70745 8.55144 7.71702 8.559L8.06702 8.822L7.93502 9.243C7.93104 9.2548 7.9309 9.26756 7.93461 9.27944C7.93833 9.29133 7.94571 9.30174 7.9557 9.30917C7.96569 9.31661 7.97777 9.32069 7.99022 9.32084C8.00268 9.32099 8.01486 9.3172 8.02502 9.31L8.37802 9.053L8.73202 9.31C8.74218 9.3172 8.75436 9.32099 8.76682 9.32084C8.77927 9.32069 8.79135 9.31661 8.80134 9.30917C8.81133 9.30174 8.81871 9.29133 8.82243 9.27944C8.82614 9.26756 8.826 9.2548 8.82202 9.243L8.69002 8.822L9.04002 8.559C9.04959 8.55144 9.05663 8.54115 9.0602 8.52949C9.06377 8.51783 9.06371 8.50536 9.06001 8.49374C9.05632 8.48212 9.04918 8.47191 9.03953 8.46445C9.02989 8.45699 9.0182 8.45265 9.00602 8.452ZM9.00602 10.645L8.57102 10.642L8.43402 10.222C8.43041 10.2101 8.42306 10.1997 8.41307 10.1923C8.40307 10.1848 8.39096 10.1808 8.37852 10.1808C8.36608 10.1808 8.35397 10.1848 8.34397 10.1923C8.33398 10.1997 8.32663 10.2101 8.32302 10.222L8.18502 10.642L7.75102 10.645C7.73884 10.6456 7.72716 10.65 7.71751 10.6574C7.70786 10.6649 7.70072 10.6751 7.69703 10.6867C7.69333 10.6984 7.69327 10.7108 7.69684 10.7225C7.70041 10.7341 7.70745 10.7444 7.71702 10.752L8.06702 11.015L7.93502 11.436C7.93104 11.4478 7.9309 11.4606 7.93461 11.4724C7.93833 11.4843 7.94571 11.4947 7.9557 11.5022C7.96569 11.5096 7.97777 11.5137 7.99022 11.5138C8.00268 11.514 8.01486 11.5102 8.02502 11.503L8.37802 11.246L8.73202 11.503C8.74218 11.5102 8.75436 11.514 8.76682 11.5138C8.77927 11.5137 8.79135 11.5096 8.80134 11.5022C8.81133 11.4947 8.81871 11.4843 8.82243 11.4724C8.82614 11.4606 8.826 11.4478 8.82202 11.436L8.69002 11.016L9.04002 10.752C9.04959 10.7444 9.05663 10.7341 9.0602 10.7225C9.06377 10.7108 9.06371 10.6984 9.06001 10.6867C9.05632 10.6751 9.04918 10.6649 9.03953 10.6574C9.02989 10.65 9.0182 10.6456 9.00602 10.645ZM10.678 2.948L10.244 2.944L10.107 2.524C10.1034 2.51209 10.0961 2.50167 10.0861 2.49426C10.0761 2.48685 10.064 2.48284 10.0515 2.48284C10.0391 2.48284 10.027 2.48685 10.017 2.49426C10.007 2.50167 9.99963 2.51209 9.99602 2.524L9.85802 2.944L9.42402 2.948C9.41185 2.94865 9.40016 2.95299 9.39051 2.96045C9.38086 2.96791 9.37372 2.97813 9.37003 2.98975C9.36634 3.00137 9.36627 3.01383 9.36984 3.02549C9.37341 3.03715 9.38045 3.04744 9.39002 3.055L9.74002 3.318L9.60802 3.738C9.60404 3.7498 9.6039 3.76256 9.60762 3.77444C9.61133 3.78633 9.61871 3.79674 9.6287 3.80417C9.63869 3.81161 9.65077 3.81569 9.66323 3.81584C9.67568 3.81599 9.68786 3.8122 9.69802 3.805L10.051 3.548L10.405 3.805C10.4151 3.81202 10.4271 3.8157 10.4394 3.81555C10.4517 3.81539 10.4637 3.8114 10.4736 3.80413C10.4835 3.79686 10.4909 3.78668 10.4947 3.775C10.4986 3.76332 10.4987 3.75074 10.495 3.739L10.363 3.318L10.713 3.055C10.7226 3.04739 10.7297 3.03701 10.7332 3.02526C10.7368 3.01351 10.7366 3.00096 10.7328 2.9893C10.729 2.97764 10.7217 2.96743 10.7119 2.96005C10.7021 2.95266 10.6903 2.94846 10.678 2.948ZM10.678 5.141L10.244 5.137L10.107 4.718C10.1034 4.70609 10.0961 4.69567 10.0861 4.68826C10.0761 4.68085 10.064 4.67685 10.0515 4.67685C10.0391 4.67685 10.027 4.68085 10.017 4.68826C10.007 4.69567 9.99963 4.70609 9.99602 4.718L9.85802 5.138L9.42402 5.141C9.41185 5.14165 9.40016 5.14599 9.39051 5.15345C9.38086 5.16091 9.37372 5.17112 9.37003 5.18274C9.36634 5.19437 9.36627 5.20683 9.36984 5.21849C9.37341 5.23015 9.38045 5.24044 9.39002 5.248L9.74002 5.511L9.60802 5.932C9.60304 5.94415 9.60226 5.95762 9.60579 5.97026C9.60933 5.98291 9.61699 5.99402 9.62755 6.00182C9.63811 6.00963 9.65097 6.01369 9.6641 6.01336C9.67722 6.01303 9.68987 6.00833 9.70002 6L10.053 5.743L10.407 6C10.4172 6.0072 10.4294 6.01099 10.4418 6.01084C10.4543 6.01069 10.4664 6.00661 10.4763 5.99917C10.4863 5.99174 10.4937 5.98133 10.4974 5.96944C10.5011 5.95756 10.501 5.9448 10.497 5.933L10.365 5.512L10.715 5.249C10.7246 5.24139 10.7317 5.23101 10.7352 5.21926C10.7388 5.20751 10.7386 5.19496 10.7348 5.1833C10.731 5.17164 10.7237 5.16143 10.7139 5.15405C10.7041 5.14666 10.6923 5.14246 10.68 5.142L10.678 5.141ZM10.678 7.334L10.244 7.331L10.107 6.911C10.1034 6.89909 10.0961 6.88867 10.0861 6.88126C10.0761 6.87385 10.064 6.86984 10.0515 6.86984C10.0391 6.86984 10.027 6.87385 10.017 6.88126C10.007 6.88867 9.99963 6.89909 9.99602 6.911L9.85802 7.331L9.42402 7.334C9.41185 7.33465 9.40016 7.33899 9.39051 7.34645C9.38086 7.35391 9.37372 7.36412 9.37003 7.37574C9.36634 7.38736 9.36627 7.39983 9.36984 7.41149C9.37341 7.42315 9.38045 7.43344 9.39002 7.441L9.74002 7.704L9.60802 8.125C9.60404 8.1368 9.6039 8.14956 9.60762 8.16144C9.61133 8.17333 9.61871 8.18374 9.6287 8.19117C9.63869 8.19861 9.65077 8.20269 9.66323 8.20284C9.67568 8.20299 9.68786 8.1992 9.69802 8.192L10.051 7.935L10.405 8.192C10.4152 8.1992 10.4274 8.20299 10.4398 8.20284C10.4523 8.20269 10.4644 8.19861 10.4743 8.19117C10.4843 8.18374 10.4917 8.17333 10.4954 8.16144C10.4991 8.14956 10.499 8.1368 10.495 8.125L10.363 7.704L10.713 7.441C10.7226 7.43339 10.7297 7.42301 10.7332 7.41126C10.7368 7.39951 10.7366 7.38696 10.7328 7.3753C10.729 7.36365 10.7217 7.35343 10.7119 7.34605C10.7021 7.33866 10.6903 7.33446 10.678 7.334ZM10.678 9.527L10.244 9.524L10.107 9.104C10.1034 9.09209 10.0961 9.08167 10.0861 9.07426C10.0761 9.06685 10.064 9.06285 10.0515 9.06285C10.0391 9.06285 10.027 9.06685 10.017 9.07426C10.007 9.08167 9.99963 9.09209 9.99602 9.104L9.85802 9.524L9.42402 9.527C9.4116 9.52741 9.39961 9.53166 9.3897 9.53918C9.3798 9.54669 9.37248 9.55709 9.36875 9.56895C9.36502 9.58081 9.36506 9.59353 9.36887 9.60536C9.37268 9.61719 9.38007 9.62755 9.39002 9.635L9.74002 9.897L9.60802 10.318C9.60404 10.3298 9.6039 10.3426 9.60762 10.3544C9.61133 10.3663 9.61871 10.3767 9.6287 10.3842C9.63869 10.3916 9.65077 10.3957 9.66323 10.3958C9.67568 10.396 9.68786 10.3922 9.69802 10.385L10.051 10.128L10.405 10.385C10.4152 10.3922 10.4274 10.396 10.4398 10.3958C10.4523 10.3957 10.4644 10.3916 10.4743 10.3842C10.4843 10.3767 10.4917 10.3663 10.4954 10.3544C10.4991 10.3426 10.499 10.3298 10.495 10.318L10.363 9.898L10.713 9.635C10.723 9.6275 10.7304 9.61705 10.7342 9.60513C10.738 9.5932 10.738 9.5804 10.7341 9.56849C10.7303 9.55659 10.7228 9.5462 10.7127 9.53876C10.7027 9.53132 10.6905 9.52721 10.678 9.527ZM12.351 1.872L11.917 1.869L11.78 1.449C11.7764 1.43709 11.7691 1.42667 11.7591 1.41926C11.7491 1.41185 11.737 1.40784 11.7245 1.40784C11.7121 1.40784 11.7 1.41185 11.69 1.41926C11.68 1.42667 11.6726 1.43709 11.669 1.449L11.531 1.869L11.097 1.872C11.0846 1.87241 11.0726 1.87666 11.0627 1.88417C11.0528 1.89169 11.0455 1.90209 11.0417 1.91395C11.038 1.92581 11.0381 1.93853 11.0419 1.95036C11.0457 1.96219 11.0531 1.97255 11.063 1.98L11.413 2.242L11.281 2.664C11.2774 2.67574 11.2775 2.68832 11.2813 2.7C11.2852 2.71168 11.2925 2.72186 11.3025 2.72913C11.3124 2.7364 11.3243 2.74039 11.3366 2.74055C11.3489 2.7407 11.3609 2.73702 11.371 2.73L11.724 2.473L12.078 2.73C12.0881 2.73702 12.1001 2.7407 12.1124 2.74055C12.1247 2.74039 12.1367 2.7364 12.1466 2.72913C12.1565 2.72186 12.1639 2.71168 12.1677 2.7C12.1716 2.68832 12.1717 2.67574 12.168 2.664L12.036 2.242L12.386 1.98C12.396 1.9725 12.4034 1.96205 12.4072 1.95013C12.411 1.9382 12.411 1.92539 12.4071 1.91349C12.4033 1.90159 12.3958 1.8912 12.3857 1.88376C12.3757 1.87632 12.3635 1.87221 12.351 1.872ZM12.351 4.065L11.917 4.062L11.78 3.642C11.7764 3.63009 11.7691 3.61967 11.7591 3.61226C11.7491 3.60485 11.737 3.60084 11.7245 3.60084C11.7121 3.60084 11.7 3.60485 11.69 3.61226C11.68 3.61967 11.6726 3.63009 11.669 3.642L11.531 4.062L11.097 4.065C11.0846 4.06541 11.0726 4.06966 11.0627 4.07717C11.0528 4.08469 11.0455 4.09509 11.0417 4.10695C11.038 4.11881 11.0381 4.13153 11.0419 4.14336C11.0457 4.15519 11.0531 4.16555 11.063 4.173L11.413 4.435L11.281 4.857C11.2774 4.86874 11.2775 4.88132 11.2813 4.893C11.2852 4.90468 11.2925 4.91486 11.3025 4.92213C11.3124 4.9294 11.3243 4.93339 11.3366 4.93355C11.3489 4.9337 11.3609 4.93002 11.371 4.923L11.724 4.666L12.078 4.923C12.0881 4.93002 12.1001 4.9337 12.1124 4.93355C12.1247 4.93339 12.1367 4.9294 12.1466 4.92213C12.1565 4.91486 12.1639 4.90468 12.1677 4.893C12.1716 4.88132 12.1717 4.86874 12.168 4.857L12.036 4.435L12.386 4.173C12.396 4.1655 12.4034 4.15505 12.4072 4.14313C12.411 4.1312 12.411 4.11839 12.4071 4.10649C12.4033 4.09459 12.3958 4.0842 12.3857 4.07676C12.3757 4.06932 12.3635 4.06521 12.351 4.065ZM12.351 6.259L11.917 6.255L11.78 5.836C11.7764 5.82409 11.7691 5.81367 11.7591 5.80626C11.7491 5.79885 11.737 5.79485 11.7245 5.79485C11.7121 5.79485 11.7 5.79885 11.69 5.80626C11.68 5.81367 11.6726 5.82409 11.669 5.836L11.531 6.256L11.097 6.259C11.0848 6.25965 11.0732 6.26399 11.0635 6.27145C11.0539 6.27891 11.0467 6.28912 11.043 6.30075C11.0393 6.31237 11.0393 6.32483 11.0428 6.33649C11.0464 6.34815 11.0535 6.35844 11.063 6.366L11.413 6.629L11.281 7.05C11.2774 7.06174 11.2775 7.07432 11.2813 7.086C11.2852 7.09768 11.2925 7.10786 11.3025 7.11513C11.3124 7.1224 11.3243 7.12639 11.3366 7.12655C11.3489 7.1267 11.3609 7.12302 11.371 7.116L11.724 6.859L12.078 7.116C12.0881 7.12302 12.1001 7.1267 12.1124 7.12655C12.1247 7.12639 12.1367 7.1224 12.1466 7.11513C12.1565 7.10786 12.1639 7.09768 12.1677 7.086C12.1716 7.07432 12.1717 7.06174 12.168 7.05L12.036 6.629L12.386 6.366C12.3956 6.35839 12.4027 6.34801 12.4062 6.33626C12.4098 6.32451 12.4096 6.31196 12.4058 6.3003C12.402 6.28864 12.3947 6.27843 12.3849 6.27105C12.3751 6.26366 12.3633 6.25946 12.351 6.259ZM12.351 8.452L11.917 8.449L11.78 8.029C11.7764 8.0171 11.7691 8.00667 11.7591 7.99926C11.7491 7.99185 11.737 7.98784 11.7245 7.98784C11.7121 7.98784 11.7 7.99185 11.69 7.99926C11.68 8.00667 11.6726 8.0171 11.669 8.029L11.531 8.449L11.097 8.452C11.0848 8.45265 11.0732 8.45699 11.0635 8.46445C11.0539 8.47191 11.0467 8.48212 11.043 8.49374C11.0393 8.50536 11.0393 8.51783 11.0428 8.52949C11.0464 8.54115 11.0535 8.55144 11.063 8.559L11.413 8.822L11.281 9.243C11.277 9.2548 11.2769 9.26756 11.2806 9.27944C11.2843 9.29133 11.2917 9.30174 11.3017 9.30917C11.3117 9.31661 11.3238 9.32069 11.3362 9.32084C11.3487 9.32099 11.3609 9.3172 11.371 9.31L11.724 9.053L12.078 9.31C12.0882 9.3172 12.1004 9.32099 12.1128 9.32084C12.1253 9.32069 12.1374 9.31661 12.1473 9.30917C12.1573 9.30174 12.1647 9.29133 12.1684 9.27944C12.1721 9.26756 12.172 9.2548 12.168 9.243L12.036 8.822L12.386 8.559C12.3956 8.55139 12.4027 8.54101 12.4062 8.52926C12.4098 8.51751 12.4096 8.50496 12.4058 8.4933C12.402 8.48164 12.3947 8.47143 12.3849 8.46405C12.3751 8.45666 12.3633 8.45246 12.351 8.452ZM12.351 10.645L11.917 10.642L11.78 10.222C11.7764 10.2101 11.7691 10.1997 11.7591 10.1923C11.7491 10.1848 11.737 10.1808 11.7245 10.1808C11.7121 10.1808 11.7 10.1848 11.69 10.1923C11.68 10.1997 11.6726 10.2101 11.669 10.222L11.531 10.642L11.097 10.645C11.0848 10.6456 11.0732 10.65 11.0635 10.6574C11.0539 10.6649 11.0467 10.6751 11.043 10.6867C11.0393 10.6984 11.0393 10.7108 11.0428 10.7225C11.0464 10.7341 11.0535 10.7444 11.063 10.752L11.413 11.015L11.281 11.436C11.277 11.4478 11.2769 11.4606 11.2806 11.4724C11.2843 11.4843 11.2917 11.4947 11.3017 11.5022C11.3117 11.5096 11.3238 11.5137 11.3362 11.5138C11.3487 11.514 11.3609 11.5102 11.371 11.503L11.724 11.246L12.078 11.503C12.0882 11.5102 12.1004 11.514 12.1128 11.5138C12.1253 11.5137 12.1374 11.5096 12.1473 11.5022C12.1573 11.4947 12.1647 11.4843 12.1684 11.4724C12.1721 11.4606 12.172 11.4478 12.168 11.436L12.036 11.016L12.386 10.752C12.3956 10.7444 12.4027 10.734 12.4062 10.7223C12.4098 10.7105 12.4096 10.698 12.4058 10.6863C12.402 10.6746 12.3947 10.6644 12.3849 10.657C12.3751 10.6497 12.3633 10.6455 12.351 10.645ZM14.024 2.948L13.59 2.944L13.453 2.524C13.4494 2.51209 13.4421 2.50167 13.4321 2.49426C13.4221 2.48685 13.41 2.48284 13.3975 2.48284C13.3851 2.48284 13.373 2.48685 13.363 2.49426C13.353 2.50167 13.3456 2.51209 13.342 2.524L13.204 2.944L12.77 2.948C12.7578 2.94865 12.7462 2.95299 12.7365 2.96045C12.7269 2.96791 12.7197 2.97813 12.716 2.98975C12.7123 3.00137 12.7123 3.01383 12.7158 3.02549C12.7194 3.03715 12.7265 3.04744 12.736 3.055L13.086 3.318L12.954 3.738C12.95 3.7498 12.9499 3.76256 12.9536 3.77444C12.9573 3.78633 12.9647 3.79674 12.9747 3.80417C12.9847 3.81161 12.9968 3.81569 13.0092 3.81584C13.0217 3.81599 13.0339 3.8122 13.044 3.805L13.397 3.548L13.751 3.805C13.7611 3.81202 13.7731 3.8157 13.7854 3.81555C13.7977 3.81539 13.8097 3.8114 13.8196 3.80413C13.8295 3.79686 13.8369 3.78668 13.8407 3.775C13.8446 3.76332 13.8447 3.75074 13.841 3.739L13.709 3.318L14.059 3.055C14.0686 3.04739 14.0757 3.03701 14.0792 3.02526C14.0828 3.01351 14.0826 3.00096 14.0788 2.9893C14.075 2.97764 14.0677 2.96743 14.0579 2.96005C14.0481 2.95266 14.0363 2.94846 14.024 2.948ZM14.024 5.141L13.59 5.137L13.453 4.718C13.4494 4.70609 13.4421 4.69567 13.4321 4.68826C13.4221 4.68085 13.41 4.67685 13.3975 4.67685C13.3851 4.67685 13.373 4.68085 13.363 4.68826C13.353 4.69567 13.3456 4.70609 13.342 4.718L13.204 5.138L12.77 5.141C12.7578 5.14165 12.7462 5.14599 12.7365 5.15345C12.7269 5.16091 12.7197 5.17112 12.716 5.18274C12.7123 5.19437 12.7123 5.20683 12.7158 5.21849C12.7194 5.23015 12.7265 5.24044 12.736 5.248L13.086 5.511L12.954 5.932C12.95 5.9438 12.9499 5.95656 12.9536 5.96844C12.9573 5.98033 12.9647 5.99074 12.9747 5.99817C12.9847 6.00561 12.9968 6.00969 13.0092 6.00984C13.0217 6.00999 13.0339 6.0062 13.044 5.999L13.397 5.742L13.751 5.999C13.7612 6.0062 13.7734 6.00999 13.7858 6.00984C13.7983 6.00969 13.8104 6.00561 13.8203 5.99817C13.8303 5.99074 13.8377 5.98033 13.8414 5.96844C13.8451 5.95656 13.845 5.9438 13.841 5.932L13.709 5.511L14.059 5.248C14.0686 5.24039 14.0757 5.23001 14.0792 5.21826C14.0828 5.20651 14.0826 5.19396 14.0788 5.1823C14.075 5.17064 14.0677 5.16043 14.0579 5.15305C14.0481 5.14566 14.0363 5.14146 14.024 5.141ZM14.024 7.334L13.59 7.331L13.453 6.911C13.4494 6.89909 13.4421 6.88867 13.4321 6.88126C13.4221 6.87385 13.41 6.86984 13.3975 6.86984C13.3851 6.86984 13.373 6.87385 13.363 6.88126C13.353 6.88867 13.3456 6.89909 13.342 6.911L13.204 7.331L12.77 7.334C12.7578 7.33465 12.7462 7.33899 12.7365 7.34645C12.7269 7.35391 12.7197 7.36412 12.716 7.37574C12.7123 7.38736 12.7123 7.39983 12.7158 7.41149C12.7194 7.42315 12.7265 7.43344 12.736 7.441L13.086 7.704L12.954 8.125C12.95 8.1368 12.9499 8.14956 12.9536 8.16144C12.9573 8.17333 12.9647 8.18374 12.9747 8.19117C12.9847 8.19861 12.9968 8.20269 13.0092 8.20284C13.0217 8.20299 13.0339 8.1992 13.044 8.192L13.397 7.935L13.751 8.192C13.7612 8.1992 13.7734 8.20299 13.7858 8.20284C13.7983 8.20269 13.8104 8.19861 13.8203 8.19117C13.8303 8.18374 13.8377 8.17333 13.8414 8.16144C13.8451 8.14956 13.845 8.1368 13.841 8.125L13.709 7.704L14.059 7.441C14.0686 7.43339 14.0757 7.42301 14.0792 7.41126C14.0828 7.39951 14.0826 7.38696 14.0788 7.3753C14.075 7.36365 14.0677 7.35343 14.0579 7.34605C14.0481 7.33866 14.0363 7.33446 14.024 7.334ZM14.024 9.527L13.59 9.524L13.453 9.104C13.4494 9.09209 13.4421 9.08167 13.4321 9.07426C13.4221 9.06685 13.41 9.06285 13.3975 9.06285C13.3851 9.06285 13.373 9.06685 13.363 9.07426C13.353 9.08167 13.3456 9.09209 13.342 9.104L13.204 9.524L12.77 9.527C12.7576 9.52741 12.7456 9.53166 12.7357 9.53918C12.7258 9.54669 12.7185 9.55709 12.7147 9.56895C12.711 9.58081 12.7111 9.59353 12.7149 9.60536C12.7187 9.61719 12.7261 9.62755 12.736 9.635L13.086 9.897L12.954 10.318C12.95 10.3298 12.9499 10.3426 12.9536 10.3544C12.9573 10.3663 12.9647 10.3767 12.9747 10.3842C12.9847 10.3916 12.9968 10.3957 13.0092 10.3958C13.0217 10.396 13.0339 10.3922 13.044 10.385L13.397 10.128L13.751 10.385C13.7612 10.3922 13.7734 10.396 13.7858 10.3958C13.7983 10.3957 13.8104 10.3916 13.8203 10.3842C13.8303 10.3767 13.8377 10.3663 13.8414 10.3544C13.8451 10.3426 13.845 10.3298 13.841 10.318L13.709 9.898L14.059 9.635C14.069 9.6275 14.0764 9.61705 14.0802 9.60513C14.084 9.5932 14.084 9.5804 14.0801 9.56849C14.0763 9.55659 14.0688 9.5462 14.0587 9.53876C14.0487 9.53132 14.0365 9.52721 14.024 9.527ZM14.758 2.242L14.628 2.664C14.6246 2.67559 14.6248 2.68796 14.6287 2.69942C14.6325 2.71088 14.6398 2.72089 14.6495 2.72809C14.6592 2.73529 14.6709 2.73934 14.6829 2.73968C14.695 2.74002 14.7069 2.73664 14.717 2.73L15.07 2.473L15.424 2.73C15.4341 2.73702 15.4461 2.7407 15.4584 2.74055C15.4707 2.74039 15.4827 2.7364 15.4926 2.72913C15.5025 2.72186 15.5099 2.71168 15.5137 2.7C15.5176 2.68832 15.5177 2.67574 15.514 2.664L15.382 2.242L15.732 1.98C15.742 1.9725 15.7494 1.96205 15.7532 1.95013C15.757 1.9382 15.757 1.92539 15.7531 1.91349C15.7493 1.90159 15.7418 1.8912 15.7317 1.88376C15.7217 1.87632 15.7095 1.87221 15.697 1.872L15.263 1.869L15.126 1.449C15.1224 1.43709 15.1151 1.42667 15.1051 1.41926C15.0951 1.41185 15.083 1.40784 15.0705 1.40784C15.0581 1.40784 15.046 1.41185 15.036 1.41926C15.026 1.42667 15.0186 1.43709 15.015 1.449L14.877 1.869L14.443 1.872C14.4306 1.87241 14.4186 1.87666 14.4087 1.88417C14.3988 1.89169 14.3915 1.90209 14.3877 1.91395C14.384 1.92581 14.3841 1.93853 14.3879 1.95036C14.3917 1.96219 14.3991 1.97255 14.409 1.98L14.758 2.242ZM15.698 4.065L15.263 4.062L15.126 3.642C15.1224 3.63009 15.1151 3.61967 15.1051 3.61226C15.0951 3.60485 15.083 3.60084 15.0705 3.60084C15.0581 3.60084 15.046 3.60485 15.036 3.61226C15.026 3.61967 15.0186 3.63009 15.015 3.642L14.877 4.062L14.443 4.065C14.4306 4.06541 14.4186 4.06966 14.4087 4.07717C14.3988 4.08469 14.3915 4.09509 14.3877 4.10695C14.384 4.11881 14.3841 4.13153 14.3879 4.14336C14.3917 4.15519 14.3991 4.16555 14.409 4.173L14.759 4.435L14.627 4.857C14.6234 4.86874 14.6235 4.88132 14.6273 4.893C14.6312 4.90468 14.6385 4.91486 14.6485 4.92213C14.6584 4.9294 14.6703 4.93339 14.6826 4.93355C14.6949 4.9337 14.7069 4.93002 14.717 4.923L15.07 4.666L15.424 4.923C15.4341 4.93002 15.4461 4.9337 15.4584 4.93355C15.4707 4.93339 15.4827 4.9294 15.4926 4.92213C15.5025 4.91486 15.5099 4.90468 15.5137 4.893C15.5176 4.88132 15.5177 4.86874 15.514 4.857L15.382 4.435L15.732 4.173C15.742 4.1655 15.7494 4.15505 15.7532 4.14313C15.757 4.1312 15.757 4.11839 15.7531 4.10649C15.7493 4.09459 15.7418 4.0842 15.7317 4.07676C15.7217 4.06932 15.7095 4.06521 15.697 4.065H15.698ZM15.698 6.259L15.263 6.255L15.126 5.836C15.1224 5.82409 15.1151 5.81367 15.1051 5.80626C15.0951 5.79885 15.083 5.79485 15.0705 5.79485C15.0581 5.79485 15.046 5.79885 15.036 5.80626C15.026 5.81367 15.0186 5.82409 15.015 5.836L14.877 6.256L14.443 6.259C14.4308 6.25965 14.4192 6.26399 14.4095 6.27145C14.3999 6.27891 14.3927 6.28912 14.389 6.30075C14.3853 6.31237 14.3853 6.32483 14.3888 6.33649C14.3924 6.34815 14.3995 6.35844 14.409 6.366L14.759 6.629L14.627 7.05C14.6234 7.06174 14.6235 7.07432 14.6273 7.086C14.6312 7.09768 14.6385 7.10786 14.6485 7.11513C14.6584 7.1224 14.6703 7.12639 14.6826 7.12655C14.6949 7.1267 14.7069 7.12302 14.717 7.116L15.07 6.859L15.424 7.116C15.4341 7.12302 15.4461 7.1267 15.4584 7.12655C15.4707 7.12639 15.4827 7.1224 15.4926 7.11513C15.5025 7.10786 15.5099 7.09768 15.5137 7.086C15.5176 7.07432 15.5177 7.06174 15.514 7.05L15.382 6.629L15.732 6.366C15.7416 6.35839 15.7487 6.34801 15.7522 6.33626C15.7558 6.32451 15.7556 6.31196 15.7518 6.3003C15.748 6.28864 15.7407 6.27843 15.7309 6.27105C15.7211 6.26366 15.7093 6.25946 15.697 6.259H15.698ZM15.698 8.452L15.263 8.448L15.126 8.029C15.1224 8.0171 15.1151 8.00667 15.1051 7.99926C15.0951 7.99185 15.083 7.98784 15.0705 7.98784C15.0581 7.98784 15.046 7.99185 15.036 7.99926C15.026 8.00667 15.0186 8.0171 15.015 8.029L14.877 8.449L14.443 8.452C14.4308 8.45265 14.4192 8.45699 14.4095 8.46445C14.3999 8.47191 14.3927 8.48212 14.389 8.49374C14.3853 8.50536 14.3853 8.51783 14.3888 8.52949C14.3924 8.54115 14.3995 8.55144 14.409 8.559L14.759 8.822L14.627 9.243C14.623 9.2548 14.6229 9.26756 14.6266 9.27944C14.6303 9.29133 14.6377 9.30174 14.6477 9.30917C14.6577 9.31661 14.6698 9.32069 14.6822 9.32084C14.6947 9.32099 14.7069 9.3172 14.717 9.31L15.07 9.053L15.424 9.31C15.4342 9.3172 15.4464 9.32099 15.4588 9.32084C15.4713 9.32069 15.4834 9.31661 15.4933 9.30917C15.5033 9.30174 15.5107 9.29133 15.5144 9.27944C15.5181 9.26756 15.518 9.2548 15.514 9.243L15.382 8.822L15.732 8.559C15.7416 8.55139 15.7487 8.54101 15.7522 8.52926C15.7558 8.51751 15.7556 8.50496 15.7518 8.4933C15.748 8.48164 15.7407 8.47143 15.7309 8.46405C15.7211 8.45666 15.7093 8.45246 15.697 8.452H15.698ZM15.698 10.645L15.263 10.642L15.126 10.222C15.1224 10.2101 15.1151 10.1997 15.1051 10.1923C15.0951 10.1848 15.083 10.1808 15.0705 10.1808C15.0581 10.1808 15.046 10.1848 15.036 10.1923C15.026 10.1997 15.0186 10.2101 15.015 10.222L14.877 10.642L14.443 10.645C14.4308 10.6456 14.4192 10.65 14.4095 10.6574C14.3999 10.6649 14.3927 10.6751 14.389 10.6867C14.3853 10.6984 14.3853 10.7108 14.3888 10.7225C14.3924 10.7341 14.3995 10.7444 14.409 10.752L14.759 11.015L14.627 11.436C14.623 11.4478 14.6229 11.4606 14.6266 11.4724C14.6303 11.4843 14.6377 11.4947 14.6477 11.5022C14.6577 11.5096 14.6698 11.5137 14.6822 11.5138C14.6947 11.514 14.7069 11.5102 14.717 11.503L15.07 11.246L15.424 11.503C15.4342 11.5102 15.4464 11.514 15.4588 11.5138C15.4713 11.5137 15.4834 11.5096 15.4933 11.5022C15.5033 11.4947 15.5107 11.4843 15.5144 11.4724C15.5181 11.4606 15.518 11.4478 15.514 11.436L15.382 11.016L15.732 10.752C15.7416 10.7444 15.7487 10.734 15.7522 10.7223C15.7558 10.7105 15.7556 10.698 15.7518 10.6863C15.748 10.6746 15.7407 10.6644 15.7309 10.657C15.7211 10.6497 15.7093 10.6455 15.697 10.645H15.698Z"
		fill="#F5F5F5"
	/>
</svg>
