<svg viewBox="0 0 36 24" fill="none" xmlns="http://www.w3.org/2000/svg">
	<path d="M36 0H0V24H36" fill="#F5F5F5" />
	<path
		d="M36 2.667V5.333H13.035V2.667H36ZM13.035 10.667H36V8H13.035V10.667ZM0 16H36V13.334H0V16ZM0 21.333H36V18.667H0V21.333Z"
		fill="#4173CD"
	/>
	<path
		d="M9.037 7.142L11.793 6.632L9.037 6.122L11.392 4.577L8.653 5.179L10.248 2.835L7.944 4.458L8.536 1.672L7.018 4.068L6.518 1.263L6.016 4.068L4.498 1.672L5.09 4.458L2.787 2.836L4.38 5.179L1.642 4.577L3.997 6.122L1.24 6.632L3.997 7.142L1.642 8.686L4.38 8.084L2.786 10.428L5.09 8.805L4.498 11.591L6.016 9.195L6.517 12L7.018 9.195L8.536 11.591L7.944 8.805L10.248 10.428L8.653 8.084L11.392 8.686L9.037 7.142ZM6.957 6.72L6.89 6.885L6.766 7.011L6.605 7.079H6.43L6.268 7.011L6.145 6.885L6.078 6.72V6.543L6.145 6.378L6.268 6.252L6.43 6.184H6.605L6.766 6.252L6.89 6.378L6.957 6.543V6.72Z"
		fill="#FFE15A"
	/>
	<path
		d="M8.142 7.316L8.138 7.326L10.248 10.428L7.76 7.897L7.752 7.904L8.535 11.591L7.19 8.285L7.18 8.289L6.517 12V8.421H6.507L4.498 11.591L5.844 8.285L5.834 8.281L2.786 10.428L5.274 7.897L5.266 7.889L1.643 8.686L4.893 7.316L4.888 7.306L1.241 6.632H4.76V6.62L1.643 4.577L4.893 5.947L4.897 5.937L2.787 2.836L5.274 5.366L5.281 5.359L4.498 1.672L5.844 4.979L5.854 4.975L6.518 1.263L6.517 4.843H6.527L8.536 1.672L7.19 4.979L7.2 4.983L10.248 2.835L7.761 5.366L7.768 5.374L11.392 4.577L8.142 5.947L8.146 5.957L11.793 6.632H8.276V6.642L11.391 8.686L8.142 7.316Z"
		fill="#FFCD5A"
	/>
	<path
		d="M8.978 6.632C8.96933 7.11681 8.81764 7.58826 8.54196 7.98717C8.26628 8.38607 7.8789 8.69464 7.42846 8.87415C6.97802 9.05366 6.48459 9.0961 6.01011 8.99615C5.53563 8.8962 5.10125 8.65831 4.7615 8.31235C4.42175 7.96638 4.19178 7.52776 4.10044 7.05155C4.00911 6.57534 4.06049 6.08276 4.24813 5.63564C4.43578 5.18853 4.75132 4.80681 5.15515 4.53841C5.55899 4.27001 6.03311 4.12688 6.518 4.127C7.17637 4.13307 7.80537 4.40038 8.26668 4.87013C8.728 5.33989 8.98386 5.97363 8.978 6.632Z"
		fill="#FFE15A"
	/>
</svg>
