<svg viewBox="0 0 36 24" fill="none" xmlns="http://www.w3.org/2000/svg">
	<path d="M36 24H0V0H36" fill="#F5F5F5" />
	<path
		d="M9.205 12.066C9.29727 11.7224 9.25507 11.3566 9.087 11.043C8.80304 11.2555 8.61181 11.5692 8.553 11.919C8.51427 12.0945 8.50314 12.275 8.52 12.454L8.03 11.711C8.2638 11.4985 8.42181 11.2155 8.48 10.905C8.57166 10.5612 8.52874 10.1953 8.36 9.882C8.07642 10.0947 7.88556 10.4084 7.827 10.758C7.78239 10.9576 7.77426 11.1635 7.803 11.366L7.471 10.864C7.47972 10.5583 7.39419 10.2574 7.226 10.002C7.05406 9.69403 6.76889 9.46518 6.431 9.364C6.37744 9.71555 6.46006 10.0743 6.662 10.367C6.81681 10.6309 7.05141 10.8389 7.332 10.961L7.636 11.474C7.46828 11.3617 7.28107 11.2817 7.084 11.238C6.74581 11.1443 6.38433 11.1878 6.078 11.359C6.28323 11.6453 6.59218 11.8402 6.939 11.902C7.24121 11.9801 7.56088 11.9548 7.847 11.83L8.301 12.597C8.14924 12.5056 7.98381 12.4391 7.811 12.4C7.47263 12.3058 7.11075 12.3489 6.804 12.52C7.00923 12.8063 7.31818 13.0012 7.665 13.063C7.95644 13.137 8.26383 13.1167 8.543 13.005L8.961 13.711C8.8243 13.6348 8.67752 13.5782 8.525 13.543C8.18695 13.4489 7.82544 13.4921 7.519 13.663C7.72404 13.9497 8.03302 14.1449 8.38 14.207C8.66105 14.2774 8.95673 14.262 9.229 14.163L9.632 14.844C9.51113 14.7821 9.3832 14.7351 9.251 14.704C8.91294 14.61 8.55147 14.6532 8.245 14.824C8.45004 15.1107 8.75902 15.3059 9.106 15.368C9.37641 15.435 9.66022 15.4246 9.925 15.338L10.292 15.959C10.1874 15.9108 10.0781 15.8733 9.966 15.847C9.62781 15.7533 9.26633 15.7968 8.96 15.968C9.16499 16.2541 9.47354 16.4489 9.82 16.511C10.0797 16.5748 10.3517 16.5682 10.608 16.492L11.774 18.462L12.27 18.142L11.01 16.232C11.1867 16.0269 11.3072 15.7795 11.36 15.514C11.4523 15.1704 11.4101 14.8046 11.242 14.491C10.958 14.7035 10.7668 15.0172 10.708 15.367C10.6841 15.4812 10.6714 15.5974 10.67 15.714L10.273 15.114C10.4628 14.905 10.5918 14.6481 10.646 14.371C10.7385 14.0271 10.6963 13.6608 10.528 13.347C10.244 13.5595 10.0528 13.8732 9.994 14.223C9.96565 14.3577 9.95323 14.4954 9.957 14.633L9.522 13.973C9.72587 13.7627 9.86415 13.4976 9.92 13.21C10.0125 12.8661 9.97033 12.4998 9.802 12.186C9.51804 12.3985 9.32681 12.7122 9.268 13.062C9.23473 13.2177 9.22296 13.3771 9.233 13.536L8.782 12.851C9.00024 12.639 9.14793 12.3649 9.205 12.066Z"
		fill="#73AF00"
	/>
	<path
		d="M26.889 14.032L29.072 12.861L28.285 15.241L28.059 14.433L25.233 17.812L24.957 18.392L24.986 18.755L24.577 19.243L24.267 20.843L23.815 20.155L23.322 20.744L23.295 20.394L23.008 20.589L23.155 19.831L22.345 19.897L23.383 18.657L23.505 18.027L23.801 17.824L24.077 17.244L24.921 12.891L24.157 13.213L25.5 11.106L25.956 13.574L25.37 12.981L24.588 17.018L24.653 16.995L26.746 12.585L25.928 12.7L27.75 11.006L27.579 13.512L27.159 12.788L25.066 17.198L25.089 17.264L27.709 14.131L26.889 14.032ZM4.488 9.911L3.547 13.263L2.605 9.911L2.749 9.474H1.153L1.583 10.057L2.892 14.721L2.749 15.158H4.345L4.202 14.721L5.512 10.057L5.941 9.474H4.345L4.488 9.911ZM32.985 9.88L33.251 9.474H31.655L31.921 9.88V14.752L31.655 15.158H33.251L32.985 14.752V9.88Z"
		fill="#4173CD"
	/>
	<path
		d="M10.143 9.905L9.931 9.474C9.11618 9.47352 8.31604 9.25718 7.612 8.847L5.248 7.473C4.65935 7.12941 4.19848 6.6036 3.935 5.975L3.011 3.78C2.96488 3.67443 2.95046 3.55772 2.9695 3.4441C2.98853 3.33048 3.04019 3.22484 3.11819 3.14006C3.19619 3.05527 3.29717 2.995 3.40881 2.96658C3.52046 2.93817 3.63796 2.94283 3.747 2.98L12.27 6.041C12.4754 6.11699 12.6432 6.26983 12.738 6.46725C12.8328 6.66467 12.8471 6.8912 12.778 7.099L12.776 7.105C12.7337 7.23019 12.7217 7.36359 12.7408 7.49433C12.7599 7.62507 12.8097 7.74944 12.886 7.85728C12.9624 7.96512 13.0631 8.05338 13.1801 8.11485C13.297 8.17633 13.4269 8.20927 13.559 8.211H13.655L14.275 12H13.474C12.7784 11.9974 12.0975 11.7996 11.5086 11.4293C10.9198 11.059 10.4466 10.5308 10.143 9.905ZM32.249 2.982L23.73 6.042C23.5248 6.11799 23.3572 6.27067 23.2624 6.46786C23.1677 6.66505 23.1532 6.89133 23.222 7.099L23.224 7.105C23.2663 7.23019 23.2783 7.36359 23.2592 7.49433C23.2401 7.62507 23.1903 7.74944 23.114 7.85728C23.0376 7.96512 22.9369 8.05338 22.8199 8.11485C22.703 8.17633 22.5731 8.20927 22.441 8.211H22.345L21.725 12H22.525C23.2208 11.9976 23.9019 11.7999 24.491 11.4296C25.08 11.0592 25.5533 10.531 25.857 9.905L26.069 9.474C26.8838 9.47352 27.684 9.25718 28.388 8.847L30.752 7.472C31.3405 7.12866 31.8013 6.60323 32.065 5.975L32.987 3.784C33.0335 3.67815 33.0481 3.56105 33.0291 3.44701C33.0101 3.33297 32.9583 3.22693 32.8801 3.14186C32.8018 3.05678 32.7004 2.99636 32.5883 2.96797C32.4763 2.93958 32.3583 2.94446 32.249 2.982ZM15.517 7.579H20.483L18.943 3.924C18.8496 3.6982 18.6916 3.50503 18.4887 3.36875C18.2859 3.23247 18.0474 3.15915 17.803 3.158H17.379L16.759 3.79H16.138L15.518 4.421H16.383C16.4342 4.42151 16.4845 4.43471 16.5294 4.4594C16.5742 4.48409 16.6123 4.51951 16.6401 4.5625C16.6679 4.60549 16.6847 4.6547 16.6889 4.70574C16.693 4.75679 16.6845 4.80807 16.664 4.855L15.517 7.579ZM14.897 12L13.76 13.157C13.2816 13.6444 12.9222 14.2358 12.71 14.885L12.414 15.789L11.794 16.421H10.986C10.8546 16.4215 10.726 16.4589 10.6148 16.5289C10.5036 16.5989 10.4143 16.6987 10.357 16.817L10.182 17.173C10.1553 17.2264 10.1425 17.2857 10.1449 17.3454C10.1474 17.405 10.1649 17.4631 10.1958 17.5141C10.2268 17.5652 10.2702 17.6075 10.322 17.6373C10.3738 17.667 10.4323 17.683 10.492 17.684H11.793L12.207 16.842L14.186 15.835C14.2457 15.8046 14.3 15.7647 14.347 15.717L16.137 13.895L14.897 12ZM25.643 16.817C25.5856 16.6986 25.4962 16.5987 25.3848 16.5287C25.2734 16.4586 25.1446 16.4213 25.013 16.421H24.207L23.586 15.789L23.29 14.885C23.0778 14.2358 22.7184 13.6444 22.24 13.157L21.103 12L19.862 13.895L21.652 15.717C21.6993 15.7648 21.754 15.8047 21.814 15.835L23.793 16.842L24.207 17.684H25.507C25.5667 17.683 25.6252 17.667 25.677 17.6373C25.7288 17.6075 25.7722 17.5652 25.8032 17.5141C25.8341 17.4631 25.8516 17.405 25.8541 17.3454C25.8565 17.2857 25.8437 17.2264 25.817 17.173L25.643 16.817ZM19.862 14.527H16.138L14.629 17.084C14.5302 17.2514 14.4936 17.4482 14.5256 17.6399C14.5576 17.8316 14.6562 18.0058 14.804 18.132L17.094 20.074C17.3465 20.2895 17.6676 20.4078 17.9995 20.4078C18.3314 20.4078 18.6525 20.2895 18.905 20.074L21.195 18.132C21.3428 18.0058 21.4414 17.8316 21.4734 17.6399C21.5054 17.4482 21.4688 17.2514 21.37 17.084L19.862 14.527Z"
		fill="#FFE15A"
	/>
	<path
		d="M18 6.947C16.5773 7.33263 15.0777 7.33263 13.655 6.947V9.474C13.655 10.737 14.275 14.526 18 15.789C21.724 14.526 22.345 10.737 22.345 9.474V6.947C20.9223 7.33263 19.4227 7.33263 18 6.947Z"
		fill="#F5F5F5"
	/>
	<path
		d="M18 6.947C16.5773 7.33263 15.0777 7.33263 13.655 6.947V9.474H22.345V6.947C20.9223 7.33263 19.4227 7.33263 18 6.947Z"
		fill="#41479B"
	/>
	<path
		d="M14.276 9.474H14.953V13.514C14.6858 13.1286 14.459 12.7168 14.276 12.285V9.474ZM15.63 14.322C15.8403 14.5344 16.0667 14.7303 16.307 14.908V9.474H15.63V14.322ZM21.047 9.474V13.514C21.3141 13.1286 21.541 12.7168 21.724 12.285V9.474H21.047ZM16.984 15.336C17.2031 15.4554 17.4292 15.5616 17.661 15.654V9.474H16.984V15.336ZM19.693 14.908C19.9333 14.7303 20.1596 14.5344 20.37 14.322V9.474H19.693V14.908ZM18.339 15.654C18.5708 15.5616 18.7969 15.4554 19.016 15.336V9.474H18.339V15.654Z"
		fill="#FF4B55"
	/>
</svg>
