<svg viewBox="0 0 36 24" fill="none" xmlns="http://www.w3.org/2000/svg">
	<path d="M36 8H0V0H36V8Z" fill="#FFE15A" />
	<path d="M36 24H0V16H36V24Z" fill="#FF4B55" />
	<path d="M0 8H36V16H0V8Z" fill="#41479B" />
	<path
		d="M13.211 14.138L12.816 14.435L12.964 14.912C12.9679 14.9252 12.9676 14.9392 12.9633 14.9522C12.9589 14.9652 12.9507 14.9766 12.9397 14.9848C12.9287 14.9929 12.9154 14.9975 12.9017 14.9979C12.888 14.9983 12.8745 14.9945 12.863 14.987L12.463 14.697L12.063 14.987C12.0515 14.9949 12.0379 14.999 12.024 14.9988C12.01 14.9986 11.9965 14.994 11.9853 14.9858C11.9741 14.9775 11.9657 14.966 11.9614 14.9528C11.957 14.9396 11.9569 14.9253 11.961 14.912L12.109 14.435L11.714 14.138C11.7029 14.1295 11.6946 14.1177 11.6904 14.1044C11.6862 14.091 11.6862 14.0766 11.6905 14.0633C11.6948 14.0499 11.7031 14.0382 11.7143 14.0297C11.7255 14.0213 11.739 14.0165 11.753 14.016L12.244 14.013L12.4 13.538C12.4044 13.5249 12.4128 13.5136 12.4241 13.5056C12.4353 13.4975 12.4487 13.4932 12.4625 13.4932C12.4763 13.4932 12.4897 13.4975 12.5009 13.5056C12.5122 13.5136 12.5206 13.5249 12.525 13.538L12.681 14.013L13.173 14.016C13.1869 14.0167 13.2003 14.0216 13.2114 14.0301C13.2224 14.0387 13.2305 14.0504 13.2347 14.0637C13.2388 14.077 13.2388 14.0913 13.2346 14.1046C13.2303 14.1179 13.2221 14.1295 13.211 14.138ZM13.829 12.76L13.397 12.52L13.481 12.027C13.4838 12.0132 13.482 11.9988 13.476 11.986C13.47 11.9732 13.4601 11.9627 13.4477 11.956C13.4352 11.9493 13.421 11.9467 13.407 11.9487C13.393 11.9507 13.3801 11.9571 13.37 11.967L13.012 12.31L12.577 12.077C12.5645 12.0709 12.5504 12.0688 12.5367 12.071C12.5229 12.0733 12.5103 12.0797 12.5004 12.0895C12.4905 12.0993 12.4839 12.1119 12.4815 12.1256C12.4791 12.1393 12.481 12.1534 12.487 12.166L12.697 12.618L12.345 12.967C12.3348 12.9767 12.328 12.9893 12.3254 13.0031C12.3228 13.017 12.3247 13.0312 12.3306 13.0439C12.3366 13.0566 12.3464 13.0671 12.3587 13.074C12.3709 13.0808 12.3851 13.0836 12.399 13.082L12.887 13.018L13.104 13.467C13.11 13.4798 13.12 13.4904 13.1324 13.4971C13.1449 13.5038 13.1592 13.5063 13.1732 13.5043C13.1872 13.5023 13.2002 13.4958 13.2102 13.4859C13.2203 13.4759 13.2269 13.463 13.229 13.449L13.319 12.958L13.806 12.886C13.8198 12.8837 13.8326 12.8772 13.8427 12.8674C13.8527 12.8576 13.8594 12.8449 13.8619 12.8311C13.8644 12.8173 13.8626 12.8031 13.8567 12.7903C13.8508 12.7776 13.8411 12.767 13.829 12.76ZM14.459 11.147L14.689 10.705C14.6958 10.6926 14.6985 10.6784 14.6968 10.6644C14.695 10.6504 14.6889 10.6373 14.6792 10.627C14.6696 10.6167 14.6569 10.6097 14.643 10.607C14.6292 10.6043 14.6148 10.606 14.602 10.612L14.157 10.825L13.816 10.465C13.8064 10.4545 13.7937 10.4473 13.7797 10.4446C13.7658 10.4419 13.7513 10.4437 13.7385 10.4499C13.7256 10.4561 13.7152 10.4663 13.7086 10.4789C13.702 10.4915 13.6997 10.506 13.702 10.52L13.763 11.017L13.321 11.236C13.3085 11.2424 13.2983 11.2525 13.2918 11.265C13.2853 11.2774 13.2828 11.2916 13.2847 11.3055C13.2866 11.3194 13.2927 11.3324 13.3022 11.3427C13.3118 11.353 13.3243 11.3601 13.338 11.363L13.821 11.457L13.889 11.953C13.8906 11.967 13.8967 11.9801 13.9063 11.9904C13.916 12.0007 13.9287 12.0077 13.9425 12.0102C13.9564 12.0128 13.9707 12.0109 13.9834 12.0047C13.9961 11.9985 14.0064 11.9885 14.013 11.976L14.25 11.538L14.735 11.624C14.7488 11.6264 14.7631 11.6243 14.7757 11.6181C14.7883 11.612 14.7987 11.602 14.8053 11.5896C14.8119 11.5772 14.8145 11.5631 14.8127 11.5491C14.8108 11.5352 14.8046 11.5222 14.795 11.512L14.459 11.147ZM16.085 9.772L15.6 9.854L15.366 9.414C15.3595 9.40154 15.3492 9.39147 15.3366 9.38526C15.324 9.37905 15.3098 9.37703 15.2959 9.37948C15.2821 9.38194 15.2694 9.38874 15.2597 9.39891C15.25 9.40907 15.2438 9.42207 15.242 9.436L15.169 9.931L14.686 10.021C14.6725 10.024 14.6602 10.031 14.6508 10.0412C14.6414 10.0513 14.6354 10.0641 14.6334 10.0778C14.6314 10.0915 14.6337 10.1054 14.6399 10.1178C14.6461 10.1302 14.6559 10.1403 14.668 10.147L15.108 10.371L15.043 10.867C15.0407 10.8809 15.043 10.8952 15.0495 10.9077C15.0559 10.9203 15.0662 10.9304 15.0788 10.9367C15.0915 10.9429 15.1058 10.945 15.1197 10.9425C15.1336 10.9401 15.1463 10.9332 15.156 10.923L15.501 10.566L15.944 10.783C15.9567 10.7887 15.9709 10.7904 15.9845 10.7877C15.9982 10.785 16.0107 10.7781 16.0203 10.768C16.0298 10.7578 16.036 10.745 16.0379 10.7312C16.0399 10.7174 16.0374 10.7034 16.031 10.691L15.804 10.247L16.144 9.885C16.1534 9.87464 16.1594 9.86163 16.1611 9.84774C16.1628 9.83386 16.1603 9.81978 16.1537 9.80742C16.1471 9.79507 16.1369 9.78504 16.1244 9.7787C16.112 9.77236 16.0988 9.77002 16.085 9.772ZM17.789 9.38L17.299 9.327L17.19 8.839C17.187 8.82538 17.1797 8.81307 17.1693 8.80382C17.1589 8.79458 17.1457 8.78888 17.1319 8.78755C17.118 8.78622 17.104 8.78932 17.092 8.7964C17.08 8.80349 17.0705 8.8142 17.065 8.827L16.865 9.284L16.375 9.239C16.361 9.23781 16.3469 9.24107 16.3348 9.24833C16.3227 9.25559 16.3133 9.26647 16.3077 9.27943C16.3022 9.29239 16.3009 9.30676 16.304 9.32051C16.3071 9.33426 16.3144 9.34668 16.325 9.356L16.69 9.691L16.497 10.151C16.4917 10.1637 16.4905 10.1778 16.4935 10.1912C16.4965 10.2046 16.5035 10.2168 16.5137 10.2261C16.5239 10.2354 16.5366 10.2413 16.5503 10.2431C16.5639 10.2449 16.5778 10.2424 16.59 10.236L17.016 9.986L17.386 10.316C17.3964 10.3258 17.4098 10.332 17.4241 10.3335C17.4383 10.3351 17.4527 10.3319 17.465 10.3246C17.4773 10.3173 17.4869 10.3061 17.4923 10.2928C17.4977 10.2795 17.4987 10.2649 17.495 10.251L17.393 9.761L17.815 9.505C17.8268 9.49764 17.8361 9.48683 17.8416 9.47403C17.8471 9.46123 17.8485 9.44706 17.8456 9.43342C17.8428 9.41979 17.8359 9.40736 17.8257 9.3978C17.8156 9.38825 17.8028 9.38203 17.789 9.38ZM24.247 14.016L23.756 14.013L23.6 13.538C23.5956 13.5249 23.5872 13.5136 23.5759 13.5056C23.5647 13.4975 23.5513 13.4932 23.5375 13.4932C23.5237 13.4932 23.5103 13.4975 23.4991 13.5056C23.4878 13.5136 23.4794 13.5249 23.475 13.538L23.319 14.013L22.827 14.016C22.8131 14.0167 22.7997 14.0216 22.7886 14.0301C22.7776 14.0387 22.7695 14.0504 22.7653 14.0637C22.7612 14.077 22.7612 14.0913 22.7654 14.1046C22.7697 14.1179 22.7779 14.1295 22.789 14.138L23.184 14.435L23.036 14.912C23.0321 14.9252 23.0324 14.9392 23.0367 14.9522C23.0411 14.9652 23.0493 14.9766 23.0603 14.9848C23.0713 14.9929 23.0846 14.9975 23.0983 14.9979C23.112 14.9983 23.1255 14.9945 23.137 14.987L23.537 14.697L23.937 14.987C23.9485 14.9949 23.9621 14.999 23.976 14.9988C23.99 14.9986 24.0035 14.994 24.0147 14.9858C24.0259 14.9775 24.0343 14.966 24.0386 14.9528C24.043 14.9396 24.0431 14.9253 24.039 14.912L23.891 14.435L24.286 14.138C24.2971 14.1295 24.3054 14.1177 24.3096 14.1044C24.3138 14.091 24.3138 14.0766 24.3095 14.0633C24.3052 14.0499 24.2969 14.0382 24.2857 14.0297C24.2745 14.0213 24.261 14.0165 24.247 14.016ZM22.896 13.466L23.113 13.018L23.601 13.082C23.6149 13.0836 23.6291 13.0808 23.6413 13.074C23.6536 13.0671 23.6634 13.0566 23.6694 13.0439C23.6753 13.0312 23.6772 13.017 23.6746 13.0031C23.672 12.9893 23.6652 12.9767 23.655 12.967L23.303 12.617L23.513 12.166C23.519 12.1534 23.5209 12.1393 23.5185 12.1256C23.5161 12.1119 23.5095 12.0993 23.4996 12.0895C23.4897 12.0797 23.4771 12.0733 23.4633 12.071C23.4496 12.0688 23.4355 12.0709 23.423 12.077L22.988 12.31L22.63 11.967C22.6199 11.9575 22.607 11.9515 22.5932 11.9497C22.5795 11.948 22.5655 11.9506 22.5533 11.9573C22.5412 11.9639 22.5314 11.9742 22.5254 11.9868C22.5194 11.9993 22.5175 12.0134 22.52 12.027L22.603 12.52L22.171 12.76C22.1589 12.767 22.1492 12.7776 22.1433 12.7903C22.1374 12.8031 22.1356 12.8173 22.1381 12.8311C22.1406 12.8449 22.1473 12.8576 22.1573 12.8674C22.1674 12.8772 22.1802 12.8837 22.194 12.886L22.68 12.958L22.771 13.449C22.7731 13.463 22.7797 13.4759 22.7898 13.4859C22.7998 13.4958 22.8128 13.5023 22.8268 13.5043C22.8408 13.5063 22.8551 13.5038 22.8676 13.4971C22.88 13.4904 22.89 13.4798 22.896 13.467V13.466ZM22.662 11.363C22.6757 11.3601 22.6882 11.353 22.6978 11.3427C22.7073 11.3324 22.7134 11.3194 22.7153 11.3055C22.7172 11.2916 22.7147 11.2774 22.7082 11.265C22.7017 11.2525 22.6915 11.2424 22.679 11.236L22.237 11.016L22.297 10.52C22.299 10.5062 22.2965 10.4921 22.29 10.4797C22.2834 10.4674 22.2731 10.4574 22.2605 10.4513C22.248 10.4452 22.2338 10.4432 22.22 10.4457C22.2063 10.4481 22.1937 10.4549 22.184 10.465L21.843 10.825L21.398 10.612C21.3852 10.606 21.3708 10.6043 21.357 10.607C21.3431 10.6097 21.3304 10.6167 21.3208 10.627C21.3111 10.6373 21.305 10.6504 21.3032 10.6644C21.3015 10.6784 21.3042 10.6926 21.311 10.705L21.541 11.147L21.206 11.512C21.1964 11.5222 21.1902 11.5352 21.1883 11.5491C21.1865 11.5631 21.1891 11.5772 21.1957 11.5896C21.2023 11.602 21.2127 11.612 21.2253 11.6181C21.2379 11.6243 21.2522 11.6264 21.266 11.624L21.75 11.538L21.987 11.976C21.9935 11.9885 22.0039 11.9985 22.0166 12.0047C22.0293 12.0109 22.0436 12.0128 22.0575 12.0102C22.0713 12.0077 22.084 12.0007 22.0937 11.9904C22.1033 11.9801 22.1094 11.967 22.111 11.953L22.179 11.457L22.662 11.363ZM21.332 10.147C21.3441 10.1403 21.3539 10.1302 21.3601 10.1178C21.3663 10.1054 21.3686 10.0915 21.3666 10.0778C21.3646 10.0641 21.3586 10.0513 21.3492 10.0412C21.3398 10.031 21.3275 10.024 21.314 10.021L20.83 9.931L20.758 9.436C20.7562 9.42207 20.75 9.40907 20.7403 9.39891C20.7306 9.38874 20.7179 9.38194 20.7041 9.37948C20.6902 9.37703 20.676 9.37905 20.6634 9.38526C20.6508 9.39147 20.6405 9.40154 20.634 9.414L20.4 9.854L19.915 9.772C19.9012 9.77027 19.8873 9.77279 19.875 9.77922C19.8627 9.78565 19.8526 9.7957 19.8462 9.80799C19.8398 9.82029 19.8373 9.83426 19.839 9.84803C19.8408 9.86179 19.8467 9.87469 19.856 9.885L20.196 10.247L19.968 10.691C19.9614 10.7035 19.9588 10.7177 19.9607 10.7317C19.9626 10.7456 19.9689 10.7587 19.9787 10.7689C19.9884 10.7791 20.0012 10.7859 20.0151 10.7885C20.0289 10.791 20.0433 10.7891 20.056 10.783L20.499 10.566L20.844 10.923C20.8537 10.9332 20.8664 10.9401 20.8803 10.9425C20.8942 10.945 20.9085 10.9429 20.9212 10.9367C20.9338 10.9304 20.9441 10.9203 20.9505 10.9077C20.957 10.8952 20.9593 10.8809 20.957 10.867L20.892 10.371L21.332 10.147ZM19.625 9.239L19.135 9.284L18.935 8.827C18.9295 8.8142 18.92 8.80349 18.908 8.7964C18.896 8.78932 18.882 8.78622 18.8681 8.78755C18.8543 8.78888 18.8411 8.79458 18.8307 8.80382C18.8203 8.81307 18.813 8.82538 18.81 8.839L18.7 9.327L18.211 9.38C18.1972 9.38203 18.1844 9.38825 18.1743 9.3978C18.1641 9.40736 18.1572 9.41979 18.1544 9.43342C18.1515 9.44706 18.1529 9.46123 18.1584 9.47403C18.1639 9.48683 18.1732 9.49764 18.185 9.505L18.607 9.761L18.505 10.251C18.5019 10.2646 18.5033 10.2788 18.5088 10.2916C18.5143 10.3044 18.5238 10.3151 18.5358 10.3222C18.5477 10.3293 18.5617 10.3325 18.5756 10.3312C18.5894 10.3299 18.6025 10.3242 18.613 10.315L18.983 9.986L19.409 10.236C19.4212 10.2428 19.4352 10.2455 19.4491 10.2439C19.463 10.2423 19.476 10.2364 19.4863 10.2271C19.4967 10.2177 19.5039 10.2053 19.5068 10.1917C19.5098 10.1781 19.5085 10.1638 19.503 10.151L19.31 9.691L19.675 9.356C19.6856 9.34668 19.6929 9.33426 19.696 9.32051C19.6991 9.30676 19.6978 9.29239 19.6923 9.27943C19.6867 9.26647 19.6773 9.25559 19.6652 9.24833C19.6531 9.24107 19.639 9.23781 19.625 9.239Z"
		fill="#F5F5F5"
	/>
</svg>
