<svg
	color="rgb(var(--foreground, 0, 0, 0))"
	viewBox="0 0 22 15"
	fill="none"
	xmlns="http://www.w3.org/2000/svg"
>
	<path
		d="M4.83131 5.94702C4.83131 5.75644 4.8872 5.60449 4.99896 5.49117C5.11073 5.37785 5.26567 5.32119 5.4638 5.32119H6.83547V3.96909C6.83547 3.77336 6.88881 3.61884 6.9955 3.50552C7.10218 3.3922 7.24951 3.33554 7.43748 3.33554C7.62545 3.33554 7.77277 3.3922 7.87946 3.50552C7.98615 3.61884 8.03949 3.77336 8.03949 3.96909V5.32119H9.32733C9.5407 5.32119 9.70581 5.37785 9.82265 5.49117C9.94458 5.60449 10.0055 5.75644 10.0055 5.94702C10.0055 6.1479 9.94458 6.30758 9.82265 6.42605C9.70581 6.53937 9.5407 6.59603 9.32733 6.59603H8.03949V7.94812C8.03949 8.14386 7.98615 8.30096 7.87946 8.41943C7.77277 8.53274 7.62545 8.5894 7.43748 8.5894C7.24951 8.5894 7.10218 8.53274 6.9955 8.41943C6.88881 8.30096 6.83547 8.14386 6.83547 7.94812V6.59603H5.4638C5.26567 6.59603 5.11073 6.53937 4.99896 6.42605C4.8872 6.30758 4.83131 6.1479 4.83131 5.94702ZM12.3221 7.0287C12.3221 6.7145 12.4288 6.44923 12.6422 6.23289C12.8556 6.01656 13.1147 5.90839 13.4195 5.90839C13.7294 5.90839 13.9885 6.01656 14.1967 6.23289C14.4101 6.44923 14.5168 6.7145 14.5168 7.0287C14.5168 7.3429 14.4101 7.60817 14.1967 7.8245C13.9885 8.03569 13.7294 8.14128 13.4195 8.14128C13.1147 8.14128 12.8556 8.03569 12.6422 7.8245C12.4288 7.60817 12.3221 7.3429 12.3221 7.0287ZM14.5701 4.74172C14.5701 4.42752 14.6743 4.16225 14.8826 3.94592C15.0959 3.72958 15.355 3.62141 15.6599 3.62141C15.9697 3.62141 16.2288 3.72958 16.4371 3.94592C16.6505 4.16225 16.7572 4.42752 16.7572 4.74172C16.7572 5.05592 16.6505 5.31862 16.4371 5.5298C16.2288 5.74099 15.9697 5.84658 15.6599 5.84658C15.355 5.84658 15.0959 5.74099 14.8826 5.5298C14.6743 5.31862 14.5701 5.05592 14.5701 4.74172ZM2.90336 14.5C3.42663 14.5 3.87623 14.4021 4.25216 14.2064C4.63318 14.0107 4.98372 13.7119 5.30378 13.3102L6.68306 11.6181C6.78467 11.4945 6.89135 11.4043 7.00312 11.3477C7.11488 11.291 7.22665 11.2627 7.33841 11.2627H14.6616C14.7734 11.2627 14.8851 11.291 14.9969 11.3477C15.1086 11.4043 15.2153 11.4945 15.3169 11.6181L16.6962 13.3102C17.0163 13.7119 17.3643 14.0107 17.7402 14.2064C18.1212 14.4021 18.5734 14.5 19.0966 14.5C19.6758 14.5 20.1838 14.3764 20.6207 14.1291C21.0576 13.887 21.3955 13.5419 21.6342 13.0938C21.8781 12.6457 22 12.1203 22 11.5177C22 11.1313 21.9568 10.7167 21.8705 10.2737C21.7892 9.83076 21.6749 9.35946 21.5275 8.85982C21.3751 8.32929 21.1872 7.75239 20.9636 7.12914C20.7401 6.50589 20.4988 5.87748 20.2397 5.24393C19.9857 4.60522 19.7291 4.00773 19.47 3.45143C19.2516 2.98786 19.0458 2.60155 18.8528 2.29249C18.6597 1.98344 18.4133 1.73105 18.1136 1.53532C17.819 1.33959 17.4024 1.17991 16.8639 1.05629C16.1476 0.891464 15.2966 0.757542 14.311 0.654525C13.3255 0.551508 12.2231 0.5 11.0038 0.5C9.78455 0.5 8.6796 0.551508 7.68895 0.654525C6.70338 0.757542 5.85244 0.891464 5.13613 1.05629C4.59762 1.17991 4.1785 1.33959 3.87877 1.53532C3.58411 1.73105 3.34026 1.98344 3.14721 2.29249C2.95416 2.60155 2.74841 2.98786 2.52996 3.45143C2.27087 4.00773 2.01178 4.60522 1.75268 5.24393C1.49867 5.87748 1.2599 6.50589 1.03637 7.12914C0.812839 7.75239 0.62487 8.32929 0.472463 8.85982C0.325136 9.35946 0.20829 9.83076 0.121926 10.2737C0.040642 10.7167 0 11.1313 0 11.5177C0 12.1203 0.119386 12.6457 0.358157 13.0938C0.602009 13.5419 0.942385 13.887 1.37929 14.1291C1.81619 14.3764 2.32421 14.5 2.90336 14.5Z"
		fill="currentColor"
	/>
</svg>
