<svg
	color="rgb(var(--foreground, 0, 0, 0))"
	viewBox="0 0 16 17"
	fill="none"
	xmlns="http://www.w3.org/2000/svg"
>
	<path
		d="M0 8.83869C0 9.65126 0.0733465 10.48 0.220039 11.3248C0.366732 12.1643 0.576293 12.9849 0.848723 13.7867C1.12639 14.5886 1.45645 15.3365 1.8389 16.0307C1.9332 16.2029 2.06418 16.3106 2.23183 16.3536C2.40472 16.402 2.58022 16.3751 2.75835 16.2729C2.926 16.1814 3.02816 16.0469 3.06483 15.8693C3.10675 15.6971 3.07793 15.5168 2.97839 15.3285C2.45449 14.3437 2.04846 13.289 1.76031 12.1643C1.47741 11.0342 1.33595 9.9257 1.33595 8.83869C1.33595 7.71939 1.49312 6.70234 1.80747 5.78753C2.12705 4.87272 2.58022 4.08705 3.16699 3.43054C3.75377 2.76865 4.4558 2.26012 5.27308 1.90496C6.09037 1.5498 6.99934 1.37222 8 1.37222C8.99542 1.37222 9.90177 1.5498 10.7191 1.90496C11.5363 2.26012 12.2384 2.76865 12.8251 3.43054C13.4172 4.08705 13.8703 4.87272 14.1847 5.78753C14.5043 6.70234 14.664 7.71939 14.664 8.83869C14.664 9.9257 14.52 11.0342 14.2318 12.1643C13.9437 13.289 13.5377 14.3437 13.0138 15.3285C12.9142 15.5168 12.8828 15.6971 12.9195 15.8693C12.9614 16.0469 13.0661 16.1814 13.2338 16.2729C13.4119 16.3751 13.5848 16.402 13.7525 16.3536C13.9253 16.3106 14.0589 16.2029 14.1532 16.0307C14.5357 15.3365 14.8658 14.5886 15.1434 13.7867C15.4211 12.9849 15.6333 12.1643 15.78 11.3248C15.9267 10.48 16 9.65126 16 8.83869C16 7.50953 15.8088 6.30413 15.4263 5.2225C15.0491 4.13549 14.5069 3.20453 13.7996 2.42963C13.0976 1.64935 12.2541 1.04934 11.2692 0.629606C10.2895 0.209868 9.19974 0 8 0C6.79502 0 5.70007 0.209868 4.71513 0.629606C3.73543 1.04934 2.89456 1.64935 2.19253 2.42963C1.4905 3.20453 0.948265 4.13549 0.565815 5.2225C0.188605 6.30413 0 7.50953 0 8.83869ZM2.45973 15.8289C2.5907 16.2917 2.8317 16.6227 3.18271 16.8218C3.53897 17.0209 3.94499 17.0532 4.40079 16.9186C4.85658 16.7841 5.1814 16.5312 5.37525 16.1599C5.56909 15.794 5.5979 15.3796 5.46169 14.9168L4.33792 10.9777C4.20694 10.515 3.96333 10.1867 3.60707 9.99297C3.25606 9.79386 2.85265 9.75889 2.39686 9.88804C1.94106 10.0226 1.61624 10.2755 1.4224 10.6468C1.22855 11.0127 1.19974 11.4298 1.33595 11.8979L2.45973 15.8289ZM13.5324 15.8289L14.6562 11.8979C14.7924 11.4244 14.7636 11.0046 14.5697 10.6387C14.3759 10.2728 14.0511 10.0226 13.5953 9.88804C13.1395 9.75889 12.7335 9.79386 12.3772 9.99297C12.0262 10.1867 11.7852 10.515 11.6542 10.9777L10.5305 14.9168C10.3942 15.385 10.4231 15.802 10.6169 16.1679C10.816 16.5339 11.1408 16.7841 11.5914 16.9186C12.0472 17.0532 12.4506 17.0209 12.8016 16.8218C13.1578 16.6227 13.4014 16.2917 13.5324 15.8289Z"
		fill="currentColor"
	/>
</svg>
