<svg
	color="rgb(var(--foreground, 0, 0, 0))"
	viewBox="0 0 20 13"
	fill="none"
	xmlns="http://www.w3.org/2000/svg"
>
	<path
		d="M2.49503 13H17.505C18.3313 13 18.9538 12.7861 19.3723 12.3582C19.7908 11.9304 20 11.2941 20 10.4494V2.54241C20 1.69768 19.7908 1.06414 19.3723 0.641772C18.9538 0.213924 18.3313 0 17.505 0H2.49503C1.66336 0 1.03827 0.213924 0.619785 0.641772C0.206595 1.06414 0 1.69768 0 2.54241V10.4494C0 11.2996 0.206595 11.9386 0.619785 12.3665C1.03827 12.7888 1.66336 13 2.49503 13ZM3.01152 4.52532C2.77314 4.52532 2.65395 4.39916 2.65395 4.14684V3.36519C2.65395 3.11287 2.77314 2.98671 3.01152 2.98671H3.76639C4.01536 2.98671 4.13985 3.11287 4.13985 3.36519V4.14684C4.13985 4.39916 4.01536 4.52532 3.76639 4.52532H3.01152ZM5.64958 4.52532C5.40591 4.52532 5.28407 4.39916 5.28407 4.14684V3.36519C5.28407 3.11287 5.40591 2.98671 5.64958 2.98671H6.40445C6.64813 2.98671 6.76996 3.11287 6.76996 3.36519V4.14684C6.76996 4.39916 6.64813 4.52532 6.40445 4.52532H5.64958ZM8.28764 4.52532C8.04397 4.52532 7.92213 4.39916 7.92213 4.14684V3.36519C7.92213 3.11287 8.04397 2.98671 8.28764 2.98671H9.03456C9.28354 2.98671 9.40803 3.11287 9.40803 3.36519V4.14684C9.40803 4.39916 9.28354 4.52532 9.03456 4.52532H8.28764ZM10.9257 4.52532C10.682 4.52532 10.5602 4.39916 10.5602 4.14684V3.36519C10.5602 3.11287 10.682 2.98671 10.9257 2.98671H11.6806C11.9242 2.98671 12.0461 3.11287 12.0461 3.36519V4.14684C12.0461 4.39916 11.9242 4.52532 11.6806 4.52532H10.9257ZM13.5638 4.52532C13.3148 4.52532 13.1903 4.39916 13.1903 4.14684V3.36519C13.1903 3.11287 13.3148 2.98671 13.5638 2.98671H14.3186C14.557 2.98671 14.6762 3.11287 14.6762 3.36519V4.14684C14.6762 4.39916 14.557 4.52532 14.3186 4.52532H13.5638ZM16.2018 4.52532C15.9529 4.52532 15.8284 4.39916 15.8284 4.14684V3.36519C15.8284 3.11287 15.9529 2.98671 16.2018 2.98671H16.9487C17.1924 2.98671 17.3143 3.11287 17.3143 3.36519V4.14684C17.3143 4.39916 17.1924 4.52532 16.9487 4.52532H16.2018ZM3.01152 7.25696C2.77314 7.25696 2.65395 7.1308 2.65395 6.87848V6.09684C2.65395 5.84451 2.77314 5.71835 3.01152 5.71835H3.76639C4.01536 5.71835 4.13985 5.84451 4.13985 6.09684V6.87848C4.13985 7.1308 4.01536 7.25696 3.76639 7.25696H3.01152ZM5.64958 7.25696C5.40591 7.25696 5.28407 7.1308 5.28407 6.87848V6.09684C5.28407 5.84451 5.40591 5.71835 5.64958 5.71835H6.40445C6.64813 5.71835 6.76996 5.84451 6.76996 6.09684V6.87848C6.76996 7.1308 6.64813 7.25696 6.40445 7.25696H5.64958ZM8.28764 7.25696C8.04397 7.25696 7.92213 7.1308 7.92213 6.87848V6.09684C7.92213 5.84451 8.04397 5.71835 8.28764 5.71835H9.03456C9.28354 5.71835 9.40803 5.84451 9.40803 6.09684V6.87848C9.40803 7.1308 9.28354 7.25696 9.03456 7.25696H8.28764ZM10.9257 7.25696C10.682 7.25696 10.5602 7.1308 10.5602 6.87848V6.09684C10.5602 5.84451 10.682 5.71835 10.9257 5.71835H11.6806C11.9242 5.71835 12.0461 5.84451 12.0461 6.09684V6.87848C12.0461 7.1308 11.9242 7.25696 11.6806 7.25696H10.9257ZM13.5638 7.25696C13.3148 7.25696 13.1903 7.1308 13.1903 6.87848V6.09684C13.1903 5.84451 13.3148 5.71835 13.5638 5.71835H14.3186C14.557 5.71835 14.6762 5.84451 14.6762 6.09684V6.87848C14.6762 7.1308 14.557 7.25696 14.3186 7.25696H13.5638ZM16.2018 7.25696C15.9529 7.25696 15.8284 7.1308 15.8284 6.87848V6.09684C15.8284 5.84451 15.9529 5.71835 16.2018 5.71835H16.9487C17.1924 5.71835 17.3143 5.84451 17.3143 6.09684V6.87848C17.3143 7.1308 17.1924 7.25696 16.9487 7.25696H16.2018ZM3.01152 9.98861C2.77314 9.98861 2.65395 9.86245 2.65395 9.61013V8.82848C2.65395 8.57616 2.77314 8.45 3.01152 8.45H3.76639C4.01536 8.45 4.13985 8.57616 4.13985 8.82848V9.61013C4.13985 9.86245 4.01536 9.98861 3.76639 9.98861H3.01152ZM5.73699 9.98861C5.43504 9.98861 5.28407 9.83228 5.28407 9.51962V8.91076C5.28407 8.60359 5.43504 8.45 5.73699 8.45H14.2312C14.5279 8.45 14.6762 8.60359 14.6762 8.91076V9.51962C14.6762 9.83228 14.5279 9.98861 14.2312 9.98861H5.73699ZM16.2018 9.98861C15.9529 9.98861 15.8284 9.86245 15.8284 9.61013V8.82848C15.8284 8.57616 15.9529 8.45 16.2018 8.45H16.9487C17.1924 8.45 17.3143 8.57616 17.3143 8.82848V9.61013C17.3143 9.86245 17.1924 9.98861 16.9487 9.98861H16.2018Z"
		fill="currentColor"
	/>
</svg>
