<svg
	color="rgb(var(--foreground, 0, 0, 0))"
	viewBox="0 0 20 13"
	fill="none"
	xmlns="http://www.w3.org/2000/svg"
>
	<path
		d="M2.49503 13H17.505C18.3313 13 18.9538 12.7861 19.3723 12.3582C19.7908 11.9304 20 11.2941 20 10.4494V2.54241C20 1.69768 19.7908 1.06414 19.3723 0.641772C18.9538 0.213924 18.3313 0 17.505 0H2.49503C1.66336 0 1.03827 0.213924 0.619785 0.641772C0.206595 1.06414 0 1.69768 0 2.54241V10.4494C0 11.2996 0.206595 11.9386 0.619785 12.3665C1.03827 12.7888 1.66336 13 2.49503 13ZM2.51093 11.6753C2.11363 11.6753 1.80903 11.5656 1.59714 11.3462C1.38525 11.1268 1.2793 10.8032 1.2793 10.3753V2.61646C1.2793 2.18861 1.38525 1.86772 1.59714 1.6538C1.80903 1.43439 2.11363 1.32468 2.51093 1.32468H17.4811C17.8731 1.32468 18.1777 1.43439 18.3949 1.6538C18.6121 1.86772 18.7207 2.18861 18.7207 2.61646V10.3753C18.7207 10.8032 18.6121 11.1268 18.3949 11.3462C18.1777 11.5656 17.8731 11.6753 17.4811 11.6753H2.51093ZM3.22606 4.58291H3.95709C4.19547 4.58291 4.31466 4.46224 4.31466 4.22089V3.46392C4.31466 3.21709 4.19547 3.09367 3.95709 3.09367H3.22606C2.99298 3.09367 2.87644 3.21709 2.87644 3.46392V4.22089C2.87644 4.46224 2.99298 4.58291 3.22606 4.58291ZM5.78466 4.58291H6.51569C6.74878 4.58291 6.86532 4.46224 6.86532 4.22089V3.46392C6.86532 3.21709 6.74878 3.09367 6.51569 3.09367H5.78466C5.54629 3.09367 5.4271 3.21709 5.4271 3.46392V4.22089C5.4271 4.46224 5.54629 4.58291 5.78466 4.58291ZM8.34327 4.58291H9.06635C9.30473 4.58291 9.42392 4.46224 9.42392 4.22089V3.46392C9.42392 3.21709 9.30473 3.09367 9.06635 3.09367H8.34327C8.10489 3.09367 7.9857 3.21709 7.9857 3.46392V4.22089C7.9857 4.46224 8.10489 4.58291 8.34327 4.58291ZM10.8939 4.58291H11.625C11.8633 4.58291 11.9825 4.46224 11.9825 4.22089V3.46392C11.9825 3.21709 11.8633 3.09367 11.625 3.09367H10.8939C10.6608 3.09367 10.5443 3.21709 10.5443 3.46392V4.22089C10.5443 4.46224 10.6608 4.58291 10.8939 4.58291ZM13.4525 4.58291H14.1836C14.4166 4.58291 14.5332 4.46224 14.5332 4.22089V3.46392C14.5332 3.21709 14.4166 3.09367 14.1836 3.09367H13.4525C13.2141 3.09367 13.095 3.21709 13.095 3.46392V4.22089C13.095 4.46224 13.2141 4.58291 13.4525 4.58291ZM16.0111 4.58291H16.7342C16.9726 4.58291 17.0918 4.46224 17.0918 4.22089V3.46392C17.0918 3.21709 16.9726 3.09367 16.7342 3.09367H16.0111C15.7727 3.09367 15.6536 3.21709 15.6536 3.46392V4.22089C15.6536 4.46224 15.7727 4.58291 16.0111 4.58291ZM3.22606 7.23228H3.95709C4.19547 7.23228 4.31466 7.10886 4.31466 6.86203V6.11329C4.31466 5.86646 4.19547 5.74304 3.95709 5.74304H3.22606C2.99298 5.74304 2.87644 5.86646 2.87644 6.11329V6.86203C2.87644 7.10886 2.99298 7.23228 3.22606 7.23228ZM5.78466 7.23228H6.51569C6.74878 7.23228 6.86532 7.10886 6.86532 6.86203V6.11329C6.86532 5.86646 6.74878 5.74304 6.51569 5.74304H5.78466C5.54629 5.74304 5.4271 5.86646 5.4271 6.11329V6.86203C5.4271 7.10886 5.54629 7.23228 5.78466 7.23228ZM8.34327 7.23228H9.06635C9.30473 7.23228 9.42392 7.10886 9.42392 6.86203V6.11329C9.42392 5.86646 9.30473 5.74304 9.06635 5.74304H8.34327C8.10489 5.74304 7.9857 5.86646 7.9857 6.11329V6.86203C7.9857 7.10886 8.10489 7.23228 8.34327 7.23228ZM10.8939 7.23228H11.625C11.8633 7.23228 11.9825 7.10886 11.9825 6.86203V6.11329C11.9825 5.86646 11.8633 5.74304 11.625 5.74304H10.8939C10.6608 5.74304 10.5443 5.86646 10.5443 6.11329V6.86203C10.5443 7.10886 10.6608 7.23228 10.8939 7.23228ZM13.4525 7.23228H14.1836C14.4166 7.23228 14.5332 7.10886 14.5332 6.86203V6.11329C14.5332 5.86646 14.4166 5.74304 14.1836 5.74304H13.4525C13.2141 5.74304 13.095 5.86646 13.095 6.11329V6.86203C13.095 7.10886 13.2141 7.23228 13.4525 7.23228ZM16.0111 7.23228H16.7342C16.9726 7.23228 17.0918 7.10886 17.0918 6.86203V6.11329C17.0918 5.86646 16.9726 5.74304 16.7342 5.74304H16.0111C15.7727 5.74304 15.6536 5.86646 15.6536 6.11329V6.86203C15.6536 7.10886 15.7727 7.23228 16.0111 7.23228ZM3.22606 9.88165H3.95709C4.19547 9.88165 4.31466 9.75823 4.31466 9.51139V8.75443C4.31466 8.51308 4.19547 8.39241 3.95709 8.39241H3.22606C2.99298 8.39241 2.87644 8.51308 2.87644 8.75443V9.51139C2.87644 9.75823 2.99298 9.88165 3.22606 9.88165ZM5.86412 9.88165H14.1041C14.3901 9.88165 14.5332 9.7308 14.5332 9.42911V8.83671C14.5332 8.54051 14.3901 8.39241 14.1041 8.39241H5.86412C5.57277 8.39241 5.4271 8.54051 5.4271 8.83671V9.42911C5.4271 9.7308 5.57277 9.88165 5.86412 9.88165ZM16.0111 9.88165H16.7342C16.9726 9.88165 17.0918 9.75823 17.0918 9.51139V8.75443C17.0918 8.51308 16.9726 8.39241 16.7342 8.39241H16.0111C15.7727 8.39241 15.6536 8.51308 15.6536 8.75443V9.51139C15.6536 9.75823 15.7727 9.88165 16.0111 9.88165Z"
		fill="currentColor"
	/>
</svg>
