<svg
	color="rgb(var(--foreground, 0, 0, 0))"
	viewBox="0 0 18 17"
	fill="none"
	xmlns="http://www.w3.org/2000/svg"
>
	<path
		d="M2.37917 13.9688H2.56342V9.57635C2.56342 9.00652 2.72897 8.56068 3.06008 8.23883C3.39119 7.9117 3.84246 7.74814 4.41389 7.74814H13.5861C14.1629 7.74814 14.6142 7.9117 14.9399 8.23883C15.271 8.56068 15.4366 9.00652 15.4366 9.57635V13.9688H15.6128C16.3925 13.9688 16.9853 13.7762 17.3912 13.3911C17.7971 13.0006 18 12.4202 18 11.6499V5.20764C18 4.43731 17.7971 3.85692 17.3912 3.46648C16.9853 3.07604 16.3925 2.88082 15.6128 2.88082H2.37917C1.64219 2.88082 1.06008 3.07604 0.632844 3.46648C0.210948 3.85692 0 4.43731 0 5.20764V11.6499C0 12.4202 0.202937 13.0006 0.608812 13.3911C1.01469 13.7762 1.60481 13.9688 2.37917 13.9688ZM3.17223 1.82821H14.8278V1.69367C14.8278 1.30323 14.7316 0.984016 14.5394 0.736034C14.3525 0.482775 14.0908 0.298107 13.7543 0.18203C13.4232 0.0606766 13.0414 0 12.6088 0H5.39119C4.97997 0 4.60614 0.0606766 4.26969 0.18203C3.93324 0.298107 3.66622 0.482775 3.46862 0.736034C3.27103 0.984016 3.17223 1.30323 3.17223 1.69367V1.82821ZM3.66088 15.9316C3.66088 16.2534 3.75968 16.5119 3.95728 16.7072C4.15487 16.9024 4.41389 17 4.73431 17H13.2657C13.5861 17 13.8451 16.9024 14.0427 16.7072C14.2403 16.5119 14.3391 16.2534 14.3391 15.9316V9.57635C14.3391 9.35475 14.2697 9.17536 14.1308 9.03818C13.992 8.90099 13.8104 8.8324 13.5861 8.8324H4.41389C4.18959 8.8324 4.00801 8.90099 3.86916 9.03818C3.73031 9.17536 3.66088 9.35475 3.66088 9.57635V15.9316ZM6.39252 12.0061C6.24299 12.0061 6.11749 11.9559 6.01602 11.8557C5.91989 11.7554 5.87183 11.6314 5.87183 11.4837C5.87183 11.3465 5.91989 11.2304 6.01602 11.1355C6.11749 11.0405 6.24299 10.993 6.39252 10.993H11.6235C11.773 10.993 11.8959 11.0405 11.992 11.1355C12.0881 11.2304 12.1362 11.3465 12.1362 11.4837C12.1362 11.6314 12.0881 11.7554 11.992 11.8557C11.8959 11.9559 11.773 12.0061 11.6235 12.0061H6.39252ZM6.39252 14.8394C6.24299 14.8394 6.11749 14.7893 6.01602 14.689C5.91989 14.594 5.87183 14.478 5.87183 14.3408C5.87183 14.193 5.91989 14.0717 6.01602 13.9767C6.11749 13.8765 6.24299 13.8264 6.39252 13.8264H11.6235C11.773 13.8264 11.8959 13.8765 11.992 13.9767C12.0881 14.0717 12.1362 14.193 12.1362 14.3408C12.1362 14.478 12.0881 14.594 11.992 14.689C11.8959 14.7893 11.773 14.8394 11.6235 14.8394H6.39252ZM12.8972 5.49255C12.8972 5.22346 12.9987 4.98867 13.2016 4.78818C13.4099 4.5824 13.6555 4.47952 13.9386 4.47952C14.2109 4.47952 14.4486 4.5824 14.6515 4.78818C14.8598 4.98867 14.964 5.22346 14.964 5.49255C14.964 5.77747 14.8598 6.01754 14.6515 6.21276C14.4486 6.40798 14.2109 6.50559 13.9386 6.50559C13.6555 6.51086 13.4099 6.41589 13.2016 6.22067C12.9987 6.02017 12.8972 5.77747 12.8972 5.49255Z"
		fill="currentColor"
	/>
</svg>
