<svg
	color="rgb(var(--foreground, 0, 0, 0))"
	viewBox="0 0 18 17"
	fill="none"
	xmlns="http://www.w3.org/2000/svg"
>
	<path
		d="M2.3745 14.656H3.95219V13.4643H2.35857C2.00266 13.4643 1.7344 13.3748 1.55378 13.1959C1.37849 13.017 1.29084 12.7539 1.29084 12.4067V4.89322C1.29084 4.54596 1.37849 4.28288 1.55378 4.10399C1.7344 3.9251 2.00266 3.83565 2.35857 3.83565H15.6494C16 3.83565 16.2656 3.9251 16.4462 4.10399C16.6268 4.28288 16.7171 4.54596 16.7171 4.89322V12.4067C16.7171 12.7539 16.6268 13.017 16.4462 13.1959C16.2656 13.3748 16 13.4643 15.6494 13.4643H14.1594V14.656H15.6335C16.409 14.656 16.996 14.4613 17.3944 14.072C17.7981 13.6879 18 13.1117 18 12.3435V4.95636C18 4.18818 17.7981 3.61204 17.3944 3.22795C16.996 2.83859 16.409 2.64392 15.6335 2.64392H2.3745C1.63612 2.64392 1.05445 2.83859 0.629482 3.22795C0.209827 3.61204 0 4.18818 0 4.95636V12.3435C0 13.1117 0.201859 13.6879 0.605578 14.072C1.0093 14.4613 1.59894 14.656 2.3745 14.656ZM4.73307 17H13.2669C13.7716 17 14.1514 16.879 14.4064 16.637C14.6614 16.3949 14.7888 16.0135 14.7888 15.4926V9.05246C14.7888 8.52631 14.6614 8.14485 14.4064 7.90808C14.1514 7.66605 13.7716 7.54503 13.2669 7.54503H4.73307C4.24967 7.54503 3.87517 7.66605 3.60956 7.90808C3.34396 8.14485 3.21116 8.52631 3.21116 9.05246V15.4926C3.21116 16.0135 3.33865 16.3949 3.59363 16.637C3.84861 16.879 4.22842 17 4.73307 17ZM5.13147 15.8083C4.91899 15.8083 4.75963 15.7556 4.65339 15.6504C4.54714 15.5504 4.49402 15.3926 4.49402 15.1769V9.36026C4.49402 9.1498 4.54714 8.99458 4.65339 8.89461C4.75963 8.78938 4.91899 8.73677 5.13147 8.73677H12.8765C13.089 8.73677 13.2457 8.78938 13.3466 8.89461C13.4529 8.99458 13.506 9.1498 13.506 9.36026V15.1769C13.506 15.3926 13.4529 15.5504 13.3466 15.6504C13.2457 15.7556 13.089 15.8083 12.8765 15.8083H5.13147ZM3.15538 3.35422H4.39044V2.13881C4.39044 1.80734 4.47278 1.56004 4.63745 1.39694C4.80744 1.23383 5.05976 1.15227 5.39442 1.15227H12.6056C12.9402 1.15227 13.1899 1.23383 13.3546 1.39694C13.5246 1.56004 13.6096 1.80734 13.6096 2.13881V3.33844H14.8446V2.22563C14.8446 1.45744 14.6534 0.89446 14.2709 0.536676C13.8938 0.178892 13.3333 0 12.5896 0H5.41036C4.70916 0 4.15671 0.178892 3.75299 0.536676C3.35458 0.89446 3.15538 1.45744 3.15538 2.22563V3.35422ZM6.23904 11.3807H11.7849C11.923 11.3807 12.0372 11.3333 12.1275 11.2386C12.2231 11.1439 12.2709 11.0255 12.2709 10.8835C12.2709 10.7519 12.2231 10.6414 12.1275 10.552C12.0372 10.4573 11.923 10.4099 11.7849 10.4099H6.23904C6.09562 10.4099 5.9761 10.4573 5.88048 10.552C5.78486 10.6414 5.73705 10.7519 5.73705 10.8835C5.73705 11.0255 5.78486 11.1439 5.88048 11.2386C5.9761 11.3333 6.09562 11.3807 6.23904 11.3807ZM6.23904 14.1351H11.7849C11.923 14.1351 12.0372 14.0904 12.1275 14.0009C12.2231 13.9062 12.2709 13.7905 12.2709 13.6537C12.2709 13.5169 12.2231 13.4011 12.1275 13.3064C12.0372 13.2117 11.923 13.1643 11.7849 13.1643H6.23904C6.09562 13.1643 5.9761 13.2117 5.88048 13.3064C5.78486 13.4011 5.73705 13.5169 5.73705 13.6537C5.73705 13.7905 5.78486 13.9062 5.88048 14.0009C5.9761 14.0904 6.09562 14.1351 6.23904 14.1351ZM12.8606 5.70613C12.8606 5.98499 12.9588 6.21913 13.1554 6.40854C13.3519 6.5927 13.5883 6.68477 13.8645 6.68477C14.1301 6.68477 14.3612 6.59007 14.5578 6.40065C14.7543 6.21124 14.8526 5.97973 14.8526 5.70613C14.8526 5.44305 14.7543 5.21418 14.5578 5.0195C14.3612 4.82482 14.1301 4.72748 13.8645 4.72748C13.5883 4.72748 13.3519 4.82482 13.1554 5.0195C12.9588 5.21418 12.8606 5.44305 12.8606 5.70613Z"
		fill="currentColor"
	/>
</svg>
