<svg
	color="rgb(var(--foreground, 0, 0, 0))"
	viewBox="0 0 23 11"
	fill="none"
	xmlns="http://www.w3.org/2000/svg"
>
	<path
		d="M11.4884 9.60435C12.1207 9.60435 12.7067 9.48323 13.2464 9.24099C13.7913 8.99324 14.2667 8.6519 14.6728 8.21697C15.084 7.78203 15.4027 7.27553 15.6289 6.69745C15.8551 6.11386 15.9682 5.48624 15.9682 4.81456C15.9682 4.13739 15.8551 3.50976 15.6289 2.93168C15.4027 2.3481 15.084 1.83884 14.6728 1.4039C14.2667 0.968969 13.7913 0.63038 13.2464 0.388138C12.7067 0.14039 12.1207 0.0165165 11.4884 0.0165165C10.8613 0.0165165 10.2753 0.14039 9.73047 0.388138C9.19075 0.63038 8.71785 0.968969 8.31177 1.4039C7.90569 1.83884 7.58956 2.3481 7.36339 2.93168C7.13722 3.50976 7.02414 4.13739 7.02414 4.81456C7.02414 5.48624 7.13722 6.11386 7.36339 6.69745C7.58956 7.27553 7.90569 7.78203 8.31177 8.21697C8.71785 8.6519 9.19075 8.99324 9.73047 9.24099C10.2753 9.48323 10.8613 9.60435 11.4884 9.60435ZM11.4884 8.21697C10.8973 8.21697 10.3602 8.06557 9.87697 7.76276C9.39893 7.45996 9.01855 7.05255 8.73584 6.54054C8.45312 6.02302 8.31177 5.4477 8.31177 4.81456C8.31177 4.18143 8.45312 3.60611 8.73584 3.08859C9.01855 2.57107 9.39893 2.16091 9.87697 1.85811C10.3602 1.55531 10.8973 1.4039 11.4884 1.4039C12.0847 1.4039 12.6219 1.55531 13.0999 1.85811C13.5831 2.16091 13.966 2.57107 14.2487 3.08859C14.5315 3.60611 14.6728 4.18143 14.6728 4.81456C14.6728 5.4477 14.5315 6.02302 14.2487 6.54054C13.966 7.05255 13.5831 7.45996 13.0999 7.76276C12.6219 8.06557 12.0847 8.21697 11.4884 8.21697ZM11.4884 7.52327C11.9613 7.52327 12.3905 7.4049 12.7761 7.16817C13.1616 6.92593 13.4649 6.6011 13.6859 6.19369C13.9121 5.78078 14.0251 5.32107 14.0251 4.81456C14.0251 4.30806 13.9121 3.8511 13.6859 3.44369C13.4649 3.03078 13.1616 2.7032 12.7761 2.46096C12.3905 2.21872 11.9613 2.0976 11.4884 2.0976C11.0155 2.0976 10.5889 2.21872 10.2085 2.46096C9.82814 2.7032 9.52486 3.03078 9.29869 3.44369C9.07252 3.8511 8.95944 4.30806 8.95944 4.81456C8.95944 5.32107 9.07252 5.78078 9.29869 6.19369C9.52486 6.6011 9.82814 6.92593 10.2085 7.16817C10.5889 7.4049 11.0155 7.52327 11.4884 7.52327ZM6.12202 4.81456C6.12202 3.79605 6.33791 2.86562 6.76969 2.02327C7.20661 1.18093 7.78746 0.506506 8.51224 0H2.3825C1.60118 0 1.00749 0.211962 0.601408 0.635886C0.200469 1.05981 0 1.68744 0 2.51877V7.09384C0 7.92518 0.200469 8.5528 0.601408 8.97673C1.00749 9.40065 1.60118 9.61261 2.3825 9.61261H8.48911C7.76947 9.1006 7.19376 8.42618 6.76198 7.58934C6.33534 6.7525 6.12202 5.82758 6.12202 4.81456ZM20.6098 0H14.4801C15.2048 0.506506 15.7831 1.18093 16.2149 2.02327C16.6518 2.86562 16.8703 3.79605 16.8703 4.81456C16.8703 5.82758 16.6544 6.7525 16.2226 7.58934C15.7908 8.42618 15.2151 9.1006 14.4955 9.61261H20.6098C21.4014 9.61261 21.9977 9.40065 22.3986 8.97673C22.7995 8.5528 23 7.92518 23 7.09384V2.51877C23 1.68744 22.7995 1.05981 22.3986 0.635886C21.9977 0.211962 21.4014 0 20.6098 0ZM18.2658 3.13814C18.2658 2.96747 18.3147 2.82708 18.4123 2.71697C18.5151 2.60686 18.6462 2.5518 18.8056 2.5518H20.7409C20.9002 2.5518 21.0313 2.60686 21.1341 2.71697C21.2369 2.82708 21.2883 2.96747 21.2883 3.13814C21.2883 3.30881 21.2369 3.4492 21.1341 3.55931C21.0313 3.66391 20.9002 3.71622 20.7409 3.71622H18.8056C18.6462 3.71622 18.5151 3.66391 18.4123 3.55931C18.3147 3.4492 18.2658 3.30881 18.2658 3.13814ZM18.2658 5.1449C18.2658 4.97422 18.3147 4.83659 18.4123 4.73198C18.5151 4.62187 18.6462 4.56682 18.8056 4.56682H20.7409C20.9002 4.56682 21.0313 4.62187 21.1341 4.73198C21.2369 4.83659 21.2883 4.97422 21.2883 5.1449C21.2883 5.31557 21.2369 5.45596 21.1341 5.56607C21.0313 5.67618 20.9002 5.73123 20.7409 5.73123H18.8056C18.6462 5.73123 18.5151 5.67618 18.4123 5.56607C18.3147 5.45596 18.2658 5.31557 18.2658 5.1449ZM5.71338 9.10886H1.7117V10.3228C1.7117 10.5265 1.76824 10.6917 1.88133 10.8183C1.99955 10.9394 2.15376 11 2.34395 11H5.08113C5.27132 11 5.42295 10.9394 5.53604 10.8183C5.65426 10.6917 5.71338 10.5265 5.71338 10.3228V9.10886ZM17.2866 9.10886V10.3228C17.2866 10.5265 17.3432 10.6917 17.4563 10.8183C17.5693 10.9394 17.7235 11 17.9189 11H20.6483C20.8437 11 20.9979 10.9394 21.111 10.8183C21.2292 10.6917 21.2883 10.5265 21.2883 10.3228V9.10886H17.2866Z"
		fill="currentColor"
	/>
</svg>
