<svg
	color="rgb(var(--foreground, 0, 0, 0))"
	viewBox="0 0 23 11"
	fill="none"
	xmlns="http://www.w3.org/2000/svg"
>
	<path
		d="M10.5323 9.65011L8.83607 8.35646H2.3825C2.03296 8.35646 1.75539 8.25201 1.54978 8.0431C1.34417 7.83419 1.24137 7.55296 1.24137 7.19942V2.74799C1.24137 2.39445 1.34417 2.11322 1.54978 1.90431C1.75539 1.6954 2.03296 1.59094 2.3825 1.59094H8.71271L10.2394 0.297297H2.3825C1.60118 0.297297 1.00749 0.503531 0.601408 0.915997C0.200469 1.32846 0 1.93913 0 2.74799V7.19942C0 8.00828 0.200469 8.61894 0.601408 9.03141C1.00749 9.44388 1.60118 9.65011 2.3825 9.65011H10.5323ZM13.9095 8.35646L12.4676 9.65011H20.6098C21.4014 9.65011 21.9977 9.44388 22.3986 9.03141C22.7995 8.61894 23 8.00828 23 7.19942V2.74799C23 1.93913 22.7995 1.32846 22.3986 0.915997C21.9977 0.503531 21.4014 0.297297 20.6098 0.297297H12.7761L13.9943 1.59094H20.6098C20.9593 1.59094 21.2369 1.6954 21.4425 1.90431C21.6533 2.11322 21.7586 2.39445 21.7586 2.74799V7.19942C21.7586 7.55296 21.6533 7.83419 21.4425 8.0431C21.2369 8.25201 20.9593 8.35646 20.6098 8.35646H13.9095ZM11.4884 9.95544C12.1618 9.95544 12.7889 9.82956 13.3698 9.57779C13.9506 9.32067 14.4569 8.96713 14.8887 8.51717C15.3256 8.0672 15.6649 7.54224 15.9065 6.94229C16.1481 6.33699 16.2689 5.68347 16.2689 4.98174C16.2689 4.28001 16.1481 3.62917 15.9065 3.02922C15.6649 2.42391 15.3256 1.89627 14.8887 1.44631C14.4569 0.990991 13.9506 0.637448 13.3698 0.385683C12.7889 0.128561 12.1618 0 11.4884 0C10.8202 0 10.1957 0.128561 9.61482 0.385683C9.03911 0.637448 8.5328 0.990991 8.09588 1.44631C7.6641 1.89627 7.32741 2.42391 7.08582 3.02922C6.84423 3.62917 6.72343 4.28001 6.72343 4.98174C6.72343 5.68347 6.84423 6.33699 7.08582 6.94229C7.32741 7.54224 7.6641 8.0672 8.09588 8.51717C8.5328 8.96713 9.03911 9.32067 9.61482 9.57779C10.1957 9.82956 10.8202 9.95544 11.4884 9.95544ZM11.4884 8.74215C10.8099 8.74215 10.1982 8.57609 9.65337 8.24397C9.11364 7.91186 8.68443 7.46189 8.36574 6.89408C8.04704 6.32627 7.8877 5.68882 7.8877 4.98174C7.8877 4.27465 8.04704 3.6372 8.36574 3.06939C8.68443 2.49623 9.11364 2.04358 9.65337 1.71147C10.1982 1.37935 10.8099 1.21329 11.4884 1.21329C12.1721 1.21329 12.7863 1.37935 13.3312 1.71147C13.8761 2.04358 14.3079 2.49623 14.6266 3.06939C14.9452 3.6372 15.1046 4.27465 15.1046 4.98174C15.1046 5.68882 14.9452 6.32627 14.6266 6.89408C14.3079 7.46189 13.8761 7.91186 13.3312 8.24397C12.7863 8.57609 12.1721 8.74215 11.4884 8.74215ZM11.4884 7.8824C12.0076 7.8824 12.4779 7.75383 12.8994 7.49671C13.3261 7.23959 13.6628 6.89141 13.9095 6.45215C14.1562 6.0129 14.2796 5.52277 14.2796 4.98174C14.2796 4.44071 14.1562 3.95057 13.9095 3.51132C13.6628 3.07207 13.3261 2.72389 12.8994 2.46676C12.4779 2.20429 12.0076 2.07305 11.4884 2.07305C10.9693 2.07305 10.4989 2.20429 10.0774 2.46676C9.66108 2.72389 9.32696 3.07207 9.07509 3.51132C8.82836 3.95057 8.705 4.44071 8.705 4.98174C8.705 5.52277 8.82836 6.0129 9.07509 6.45215C9.32696 6.89141 9.66108 7.23959 10.0774 7.49671C10.4989 7.75383 10.9693 7.8824 11.4884 7.8824ZM11.4884 6.8298C11.1595 6.8298 10.8588 6.74945 10.5863 6.58875C10.319 6.42269 10.1057 6.20039 9.94636 5.92184C9.79216 5.64329 9.71505 5.32992 9.71505 4.98174C9.71505 4.63891 9.79216 4.32822 9.94636 4.04967C10.1057 3.76577 10.319 3.54078 10.5863 3.37473C10.8588 3.20867 11.1595 3.12564 11.4884 3.12564C11.8225 3.12564 12.1233 3.20867 12.3905 3.37473C12.663 3.54078 12.8763 3.76577 13.0305 4.04967C13.1899 4.32822 13.2695 4.63891 13.2695 4.98174C13.2695 5.32992 13.1899 5.64329 13.0305 5.92184C12.8763 6.20039 12.663 6.42269 12.3905 6.58875C12.1233 6.74945 11.8225 6.8298 11.4884 6.8298ZM5.71338 9.15997H1.7117V10.3411C1.7117 10.5393 1.76824 10.7 1.88133 10.8232C1.99955 10.9411 2.15376 11 2.34395 11H5.08113C5.27132 11 5.42295 10.9411 5.53604 10.8232C5.65426 10.7 5.71338 10.5393 5.71338 10.3411V9.15997ZM17.2866 9.15997V10.3411C17.2866 10.5393 17.3432 10.7 17.4563 10.8232C17.5693 10.9411 17.7235 11 17.9189 11H20.6483C20.8437 11 20.9979 10.9411 21.111 10.8232C21.2292 10.7 21.2883 10.5393 21.2883 10.3411V9.15997H17.2866ZM17.3329 3.35062C17.3329 3.51668 17.3843 3.65327 17.4871 3.76041C17.5899 3.86219 17.7184 3.91307 17.8726 3.91307H19.8079C19.9673 3.91307 20.0983 3.86219 20.2011 3.76041C20.3039 3.65327 20.3553 3.51668 20.3553 3.35062C20.3553 3.18456 20.3039 3.04797 20.2011 2.94083C20.0983 2.8337 19.9673 2.78013 19.8079 2.78013H17.8726C17.7184 2.78013 17.5899 2.8337 17.4871 2.94083C17.3843 3.04797 17.3329 3.18456 17.3329 3.35062ZM17.3329 5.30314C17.3329 5.4692 17.3843 5.60579 17.4871 5.71293C17.5899 5.82006 17.7184 5.87363 17.8726 5.87363H19.8079C19.9673 5.87363 20.0983 5.82006 20.2011 5.71293C20.3039 5.60579 20.3553 5.4692 20.3553 5.30314C20.3553 5.13708 20.3039 5.00316 20.2011 4.90139C20.0983 4.79425 19.9673 4.74069 19.8079 4.74069H17.8726C17.7184 4.74069 17.5899 4.79425 17.4871 4.90139C17.3843 5.00316 17.3329 5.13708 17.3329 5.30314Z"
		fill="currentColor"
	/>
</svg>
