<svg
	color="rgb(var(--foreground, 0, 0, 0))"
	viewBox="0 0 18 17"
	fill="none"
	xmlns="http://www.w3.org/2000/svg"
>
	<path
		d="M14.1756 8.42188C13.8346 8.42684 13.542 8.31277 13.2977 8.07965C13.0585 7.84158 12.9389 7.55886 12.9389 7.23151C12.9389 6.90416 13.0585 6.62144 13.2977 6.38337C13.542 6.14034 13.8346 6.0213 14.1756 6.02626C14.5114 6.03122 14.799 6.15274 15.0382 6.39081C15.2824 6.62392 15.4046 6.90416 15.4046 7.23151C15.4046 7.55886 15.2824 7.8391 15.0382 8.07221C14.799 8.30036 14.5114 8.41692 14.1756 8.42188ZM14.1756 11.9186C13.8346 11.9186 13.542 11.802 13.2977 11.5689C13.0585 11.3309 12.9389 11.0457 12.9389 10.7133C12.9389 10.381 13.0585 10.0983 13.2977 9.86521C13.542 9.63209 13.8346 9.51554 14.1756 9.51554C14.5114 9.51554 14.799 9.63209 15.0382 9.86521C15.2824 10.0983 15.4046 10.381 15.4046 10.7133C15.4046 11.0457 15.2824 11.3309 15.0382 11.5689C14.799 11.802 14.5114 11.9186 14.1756 11.9186ZM7.15267 6.92648C6.98982 6.92648 6.85242 6.86944 6.74046 6.75536C6.6285 6.64128 6.57252 6.50489 6.57252 6.34617C6.57252 6.19241 6.6285 6.06098 6.74046 5.95186C6.85242 5.83778 6.98982 5.78074 7.15267 5.78074C7.31043 5.78074 7.44275 5.83778 7.54962 5.95186C7.66158 6.06098 7.71756 6.19241 7.71756 6.34617C7.71756 6.50489 7.66158 6.64128 7.54962 6.75536C7.44275 6.86944 7.31043 6.92648 7.15267 6.92648ZM9.0916 7.46214C8.93893 7.46214 8.80662 7.40759 8.69466 7.29847C8.58779 7.18439 8.53435 7.05047 8.53435 6.89672C8.53435 6.738 8.58779 6.60408 8.69466 6.49497C8.80662 6.38089 8.93893 6.32385 9.0916 6.32385C9.25954 6.32385 9.39695 6.38089 9.50382 6.49497C9.61578 6.60408 9.67176 6.738 9.67176 6.89672C9.67176 7.05047 9.61578 7.18439 9.50382 7.29847C9.39695 7.40759 9.25954 7.46214 9.0916 7.46214ZM10.5649 8.83107C10.4071 8.83107 10.2723 8.77651 10.1603 8.6674C10.0534 8.55828 10 8.42932 10 8.28053C10 8.11685 10.0534 7.97797 10.1603 7.86389C10.2723 7.74982 10.4071 7.69278 10.5649 7.69278C10.7226 7.69278 10.8575 7.74982 10.9695 7.86389C11.0865 7.97797 11.145 8.11685 11.145 8.28053C11.145 8.42932 11.0865 8.55828 10.9695 8.6674C10.8575 8.77651 10.7226 8.83107 10.5649 8.83107ZM11.0611 10.6687C10.9033 10.6687 10.7684 10.6142 10.6565 10.505C10.5445 10.3959 10.4885 10.2645 10.4885 10.1107C10.4885 9.95697 10.5445 9.82553 10.6565 9.71641C10.7684 9.60729 10.9033 9.55274 11.0611 9.55274C11.2137 9.55274 11.3461 9.60729 11.458 9.71641C11.57 9.82553 11.626 9.95697 11.626 10.1107C11.626 10.2645 11.57 10.3959 11.458 10.505C11.3461 10.6142 11.2137 10.6687 11.0611 10.6687ZM10.5649 12.5212C10.4071 12.5212 10.2723 12.4642 10.1603 12.3501C10.0534 12.236 10 12.0996 10 11.9409C10 11.7872 10.0534 11.6557 10.1603 11.5466C10.2723 11.4375 10.4071 11.3829 10.5649 11.3829C10.7226 11.3829 10.8575 11.4375 10.9695 11.5466C11.0865 11.6557 11.145 11.7872 11.145 11.9409C11.145 12.0996 11.0865 12.236 10.9695 12.3501C10.8575 12.4642 10.7226 12.5212 10.5649 12.5212ZM9.0916 13.9348C8.93893 13.9348 8.80662 13.8802 8.69466 13.7711C8.58779 13.657 8.53435 13.5206 8.53435 13.3619C8.53435 13.2082 8.58779 13.0767 8.69466 12.9676C8.80662 12.8535 8.93893 12.7965 9.0916 12.7965C9.25954 12.7965 9.39695 12.8535 9.50382 12.9676C9.61578 13.0767 9.67176 13.2082 9.67176 13.3619C9.67176 13.5206 9.61578 13.657 9.50382 13.7711C9.39695 13.8802 9.25954 13.9348 9.0916 13.9348ZM7.15267 14.5151C6.98982 14.5151 6.85242 14.4605 6.74046 14.3514C6.6285 14.2373 6.57252 14.1034 6.57252 13.9497C6.57252 13.791 6.6285 13.6546 6.74046 13.5405C6.85242 13.4264 6.98982 13.3694 7.15267 13.3694C7.31043 13.3694 7.44275 13.4264 7.54962 13.5405C7.66158 13.6546 7.71756 13.791 7.71756 13.9497C7.71756 14.1034 7.66158 14.2373 7.54962 14.3514C7.44275 14.4605 7.31043 14.5151 7.15267 14.5151ZM5.19847 13.9348C5.03562 13.9348 4.89822 13.8802 4.78626 13.7711C4.67939 13.657 4.62595 13.5206 4.62595 13.3619C4.62595 13.2082 4.67939 13.0767 4.78626 12.9676C4.89822 12.8535 5.03562 12.7965 5.19847 12.7965C5.35623 12.7965 5.48855 12.8535 5.59542 12.9676C5.70229 13.0767 5.75573 13.2082 5.75573 13.3619C5.75573 13.5206 5.70229 13.657 5.59542 13.7711C5.48855 13.8802 5.35623 13.9348 5.19847 13.9348ZM3.73282 12.5212C3.57506 12.5212 3.43766 12.4642 3.32061 12.3501C3.20356 12.236 3.14504 12.0996 3.14504 11.9409C3.14504 11.7872 3.20356 11.6557 3.32061 11.5466C3.43766 11.4375 3.57506 11.3829 3.73282 11.3829C3.8855 11.3829 4.01527 11.4375 4.12214 11.5466C4.2341 11.6557 4.29008 11.7872 4.29008 11.9409C4.29008 12.0996 4.2341 12.236 4.12214 12.3501C4.01527 12.4642 3.8855 12.5212 3.73282 12.5212ZM3.23664 10.6687C3.07888 10.6687 2.94402 10.6142 2.83206 10.505C2.7201 10.3959 2.66412 10.2645 2.66412 10.1107C2.66412 9.95697 2.7201 9.82553 2.83206 9.71641C2.94402 9.60729 3.07888 9.55274 3.23664 9.55274C3.3944 9.55274 3.52926 9.60729 3.64122 9.71641C3.75318 9.82553 3.80916 9.95697 3.80916 10.1107C3.80916 10.2645 3.75318 10.3959 3.64122 10.505C3.52926 10.6142 3.3944 10.6687 3.23664 10.6687ZM3.73282 8.83107C3.57506 8.83107 3.43766 8.77651 3.32061 8.6674C3.20356 8.55828 3.14504 8.42932 3.14504 8.28053C3.14504 8.11685 3.20356 7.97797 3.32061 7.86389C3.43766 7.74982 3.57506 7.69278 3.73282 7.69278C3.8855 7.69278 4.01527 7.74982 4.12214 7.86389C4.2341 7.97797 4.29008 8.11685 4.29008 8.28053C4.29008 8.42932 4.2341 8.55828 4.12214 8.6674C4.01527 8.77651 3.8855 8.83107 3.73282 8.83107ZM5.19847 7.46214C5.03562 7.46214 4.89822 7.40759 4.78626 7.29847C4.67939 7.18439 4.62595 7.05047 4.62595 6.89672C4.62595 6.738 4.67939 6.60408 4.78626 6.49497C4.89822 6.38089 5.03562 6.32385 5.19847 6.32385C5.35623 6.32385 5.48855 6.38089 5.59542 6.49497C5.70229 6.60408 5.75573 6.738 5.75573 6.89672C5.75573 7.05047 5.70229 7.18439 5.59542 7.29847C5.48855 7.40759 5.35623 7.46214 5.19847 7.46214ZM7.15267 8.87571C6.98982 8.87571 6.85242 8.82115 6.74046 8.71203C6.6285 8.60292 6.57252 8.47148 6.57252 8.31772C6.57252 8.15901 6.6285 8.02261 6.74046 7.90853C6.85242 7.79446 6.98982 7.73742 7.15267 7.73742C7.31043 7.73742 7.44275 7.79446 7.54962 7.90853C7.66158 8.02261 7.71756 8.15901 7.71756 8.31772C7.71756 8.47148 7.66158 8.60292 7.54962 8.71203C7.44275 8.82115 7.31043 8.87571 7.15267 8.87571ZM8.9771 9.64201C8.81934 9.64201 8.68193 9.58745 8.56489 9.47834C8.45293 9.36426 8.39695 9.23282 8.39695 9.08403C8.39695 8.93027 8.45293 8.79883 8.56489 8.68972C8.68193 8.57564 8.81934 8.5186 8.9771 8.5186C9.13486 8.5186 9.26717 8.57564 9.37405 8.68972C9.486 8.79883 9.54198 8.93027 9.54198 9.08403C9.54198 9.23282 9.486 9.36426 9.37405 9.47834C9.26717 9.58745 9.13486 9.64201 8.9771 9.64201ZM8.9771 11.7772C8.81934 11.7772 8.68193 11.7227 8.56489 11.6136C8.45293 11.5044 8.39695 11.373 8.39695 11.2193C8.39695 11.0605 8.45293 10.9266 8.56489 10.8175C8.68193 10.7034 8.81934 10.6464 8.9771 10.6464C9.13486 10.6464 9.26717 10.7034 9.37405 10.8175C9.486 10.9266 9.54198 11.0605 9.54198 11.2193C9.54198 11.373 9.486 11.5044 9.37405 11.6136C9.26717 11.7227 9.13486 11.7772 8.9771 11.7772ZM7.15267 12.5584C6.98982 12.5584 6.85242 12.5014 6.74046 12.3873C6.6285 12.2732 6.57252 12.1368 6.57252 11.9781C6.57252 11.8244 6.6285 11.6929 6.74046 11.5838C6.85242 11.4747 6.98982 11.4201 7.15267 11.4201C7.31043 11.4201 7.44275 11.4747 7.54962 11.5838C7.66158 11.6929 7.71756 11.8244 7.71756 11.9781C7.71756 12.1368 7.66158 12.2732 7.54962 12.3873C7.44275 12.5014 7.31043 12.5584 7.15267 12.5584ZM5.31298 11.7772C5.15522 11.7772 5.02036 11.7227 4.9084 11.6136C4.80153 11.5044 4.74809 11.373 4.74809 11.2193C4.74809 11.0605 4.80153 10.9266 4.9084 10.8175C5.02036 10.7034 5.15522 10.6464 5.31298 10.6464C5.47074 10.6464 5.60814 10.7034 5.72519 10.8175C5.84224 10.9266 5.90076 11.0605 5.90076 11.2193C5.90076 11.373 5.84224 11.5044 5.72519 11.6136C5.60814 11.7227 5.47074 11.7772 5.31298 11.7772ZM5.31298 9.64201C5.15522 9.64201 5.02036 9.58745 4.9084 9.47834C4.80153 9.36426 4.74809 9.23282 4.74809 9.08403C4.74809 8.93027 4.80153 8.79883 4.9084 8.68972C5.02036 8.57564 5.15522 8.5186 5.31298 8.5186C5.47074 8.5186 5.60814 8.57564 5.72519 8.68972C5.84224 8.79883 5.90076 8.93027 5.90076 9.08403C5.90076 9.23282 5.84224 9.36426 5.72519 9.47834C5.60814 9.58745 5.47074 9.64201 5.31298 9.64201ZM7.15267 10.7059C6.98982 10.7059 6.85242 10.6513 6.74046 10.5422C6.6285 10.4331 6.57252 10.3017 6.57252 10.1479C6.57252 9.99416 6.6285 9.86273 6.74046 9.75361C6.85242 9.64449 6.98982 9.58993 7.15267 9.58993C7.31043 9.58993 7.44275 9.64449 7.54962 9.75361C7.66158 9.86273 7.71756 9.99416 7.71756 10.1479C7.71756 10.3017 7.66158 10.4331 7.54962 10.5422C7.44275 10.6513 7.31043 10.7059 7.15267 10.7059ZM14.5802 4.50853L14.9542 3.3628L4.41985 0.0297593C4.26209 -0.0198395 4.10687 -0.00743983 3.9542 0.0669584C3.80153 0.141357 3.69975 0.257914 3.64885 0.41663C3.59796 0.570387 3.61069 0.721663 3.68702 0.870459C3.76336 1.01926 3.88295 1.12093 4.0458 1.17549L14.5802 4.50853ZM2.39695 17H15.6031C16.4071 17 17.0076 16.8066 17.4046 16.4197C17.8015 16.0378 18 15.4649 18 14.7011V5.60963C18 4.84581 17.8015 4.27046 17.4046 3.88359C17.0076 3.49672 16.4071 3.30328 15.6031 3.30328H2.39695C1.59796 3.30328 0.997455 3.49672 0.59542 3.88359C0.198473 4.2655 0 4.84085 0 5.60963V14.7011C0 15.4649 0.198473 16.0378 0.59542 16.4197C0.997455 16.8066 1.59796 17 2.39695 17Z"
		fill="currentColor"
	/>
</svg>
