<svg
	color="rgb(var(--foreground, 0, 0, 0))"
	viewBox="0 0 18 17"
	fill="none"
	xmlns="http://www.w3.org/2000/svg"
>
	<path
		d="M14.0229 8.47396C14.3486 8.469 14.6285 8.35492 14.8626 8.13173C15.0967 7.90853 15.2137 7.63822 15.2137 7.32079C15.2137 7.00336 15.0967 6.73056 14.8626 6.50241C14.6285 6.27425 14.3486 6.15769 14.0229 6.15274C13.6921 6.14778 13.4097 6.26185 13.1756 6.49497C12.9415 6.72808 12.8244 7.00336 12.8244 7.32079C12.8244 7.63822 12.9415 7.91101 13.1756 8.13917C13.4097 8.36732 13.6921 8.47892 14.0229 8.47396ZM14.0229 11.8591C14.3486 11.8591 14.6285 11.745 14.8626 11.5168C15.0967 11.2837 15.2137 11.0085 15.2137 10.691C15.2137 10.3686 15.0967 10.0958 14.8626 9.87265C14.6285 9.64449 14.3486 9.53042 14.0229 9.53042C13.6921 9.53042 13.4097 9.64449 13.1756 9.87265C12.9415 10.0958 12.8244 10.3686 12.8244 10.691C12.8244 11.0085 12.9415 11.2837 13.1756 11.5168C13.4097 11.745 13.6921 11.8591 14.0229 11.8591ZM7.20611 7.02319C7.35878 7.02319 7.48855 6.96864 7.59542 6.85952C7.70229 6.7504 7.75573 6.61648 7.75573 6.45777C7.75573 6.30897 7.70229 6.18249 7.59542 6.07834C7.48855 5.96922 7.35878 5.91466 7.20611 5.91466C7.05343 5.91466 6.92112 5.96922 6.80916 6.07834C6.70229 6.18249 6.64886 6.30897 6.64886 6.45777C6.64886 6.61648 6.70229 6.7504 6.80916 6.85952C6.92112 6.96864 7.05343 7.02319 7.20611 7.02319ZM9.0916 7.54398C9.24936 7.54398 9.38168 7.48942 9.48855 7.38031C9.59542 7.27119 9.64886 7.14223 9.64886 6.99344C9.64886 6.83968 9.59542 6.71072 9.48855 6.60656C9.38168 6.49745 9.24936 6.44289 9.0916 6.44289C8.93893 6.44289 8.80916 6.49745 8.70229 6.60656C8.60051 6.71072 8.54962 6.83968 8.54962 6.99344C8.54962 7.14223 8.60051 7.27119 8.70229 7.38031C8.80916 7.48942 8.93893 7.54398 9.0916 7.54398ZM10.5191 8.86827C10.6718 8.86827 10.8041 8.81619 10.916 8.71203C11.028 8.60788 11.084 8.4814 11.084 8.3326C11.084 8.17885 11.028 8.04741 10.916 7.93829C10.8041 7.82422 10.6718 7.76718 10.5191 7.76718C10.3664 7.76718 10.2366 7.82422 10.1298 7.93829C10.0229 8.04741 9.96947 8.17885 9.96947 8.3326C9.96947 8.4814 10.0229 8.60788 10.1298 8.71203C10.2366 8.81619 10.3664 8.86827 10.5191 8.86827ZM11 10.6538C11.1527 10.6538 11.2824 10.6018 11.3893 10.4976C11.4962 10.3885 11.5496 10.2595 11.5496 10.1107C11.5496 9.95697 11.4962 9.82801 11.3893 9.72385C11.2824 9.61969 11.1527 9.56761 11 9.56761C10.8422 9.56761 10.7099 9.61969 10.6031 9.72385C10.4962 9.82801 10.4427 9.95697 10.4427 10.1107C10.4427 10.2595 10.4962 10.3885 10.6031 10.4976C10.7099 10.6018 10.8422 10.6538 11 10.6538ZM10.5191 12.4468C10.6718 12.4468 10.8041 12.3923 10.916 12.2832C11.028 12.174 11.084 12.0426 11.084 11.8888C11.084 11.7351 11.028 11.6061 10.916 11.502C10.8041 11.3978 10.6718 11.3457 10.5191 11.3457C10.3664 11.3457 10.2366 11.3978 10.1298 11.502C10.0229 11.6061 9.96947 11.7351 9.96947 11.8888C9.96947 12.0426 10.0229 12.174 10.1298 12.2832C10.2366 12.3923 10.3664 12.4468 10.5191 12.4468ZM9.0916 13.8158C9.24936 13.8158 9.38168 13.7637 9.48855 13.6595C9.59542 13.5504 9.64886 13.419 9.64886 13.2652C9.64886 13.1164 9.59542 12.9875 9.48855 12.8783C9.38168 12.7692 9.24936 12.7147 9.0916 12.7147C8.93893 12.7147 8.80916 12.7692 8.70229 12.8783C8.60051 12.9875 8.54962 13.1164 8.54962 13.2652C8.54962 13.419 8.60051 13.5504 8.70229 13.6595C8.80916 13.7637 8.93893 13.8158 9.0916 13.8158ZM7.20611 14.3812C7.35878 14.3812 7.48855 14.3291 7.59542 14.2249C7.70229 14.1158 7.75573 13.9869 7.75573 13.8381C7.75573 13.6843 7.70229 13.5529 7.59542 13.4438C7.48855 13.3297 7.35878 13.2726 7.20611 13.2726C7.05343 13.2726 6.92112 13.3297 6.80916 13.4438C6.70229 13.5529 6.64886 13.6843 6.64886 13.8381C6.64886 13.9869 6.70229 14.1158 6.80916 14.2249C6.92112 14.3291 7.05343 14.3812 7.20611 14.3812ZM5.31298 13.8158C5.46565 13.8158 5.59288 13.7637 5.69466 13.6595C5.80153 13.5504 5.85496 13.419 5.85496 13.2652C5.85496 13.1164 5.80153 12.9875 5.69466 12.8783C5.59288 12.7692 5.46565 12.7147 5.31298 12.7147C5.15522 12.7147 5.0229 12.7692 4.91603 12.8783C4.80916 12.9875 4.75573 13.1164 4.75573 13.2652C4.75573 13.419 4.80916 13.5504 4.91603 13.6595C5.0229 13.7637 5.15522 13.8158 5.31298 13.8158ZM3.89313 12.4468C4.0458 12.4468 4.17303 12.3923 4.27481 12.2832C4.38168 12.174 4.43511 12.0426 4.43511 11.8888C4.43511 11.7351 4.38168 11.6061 4.27481 11.502C4.17303 11.3978 4.0458 11.3457 3.89313 11.3457C3.73537 11.3457 3.60051 11.3978 3.48855 11.502C3.37659 11.6061 3.32061 11.7351 3.32061 11.8888C3.32061 12.0426 3.37659 12.174 3.48855 12.2832C3.60051 12.3923 3.73537 12.4468 3.89313 12.4468ZM3.41221 10.6538C3.56489 10.6538 3.69466 10.6018 3.80153 10.4976C3.9084 10.3885 3.96183 10.2595 3.96183 10.1107C3.96183 9.95697 3.9084 9.82801 3.80153 9.72385C3.69466 9.61969 3.56489 9.56761 3.41221 9.56761C3.25954 9.56761 3.12723 9.61969 3.01527 9.72385C2.9084 9.82801 2.85496 9.95697 2.85496 10.1107C2.85496 10.2595 2.9084 10.3885 3.01527 10.4976C3.12723 10.6018 3.25954 10.6538 3.41221 10.6538ZM3.89313 8.86827C4.0458 8.86827 4.17303 8.81619 4.27481 8.71203C4.38168 8.60788 4.43511 8.4814 4.43511 8.3326C4.43511 8.17885 4.38168 8.04741 4.27481 7.93829C4.17303 7.82422 4.0458 7.76718 3.89313 7.76718C3.73537 7.76718 3.60051 7.82422 3.48855 7.93829C3.37659 8.04741 3.32061 8.17885 3.32061 8.3326C3.32061 8.4814 3.37659 8.60788 3.48855 8.71203C3.60051 8.81619 3.73537 8.86827 3.89313 8.86827ZM5.31298 7.54398C5.46565 7.54398 5.59288 7.48942 5.69466 7.38031C5.80153 7.27119 5.85496 7.14223 5.85496 6.99344C5.85496 6.83968 5.80153 6.71072 5.69466 6.60656C5.59288 6.49745 5.46565 6.44289 5.31298 6.44289C5.15522 6.44289 5.0229 6.49745 4.91603 6.60656C4.80916 6.71072 4.75573 6.83968 4.75573 6.99344C4.75573 7.14223 4.80916 7.27119 4.91603 7.38031C5.0229 7.48942 5.15522 7.54398 5.31298 7.54398ZM7.20611 8.91291C7.35878 8.91291 7.48855 8.86083 7.59542 8.75667C7.70229 8.64756 7.75573 8.5186 7.75573 8.3698C7.75573 8.21605 7.70229 8.08461 7.59542 7.97549C7.48855 7.86637 7.35878 7.81182 7.20611 7.81182C7.05343 7.81182 6.92112 7.86637 6.80916 7.97549C6.70229 8.08461 6.64886 8.21605 6.64886 8.3698C6.64886 8.5186 6.70229 8.64756 6.80916 8.75667C6.92112 8.86083 7.05343 8.91291 7.20611 8.91291ZM8.9771 9.65689C9.12977 9.65689 9.25954 9.60481 9.36641 9.50066C9.47328 9.39154 9.52672 9.26258 9.52672 9.11379C9.52672 8.96499 9.47328 8.83851 9.36641 8.73435C9.25954 8.62524 9.12977 8.57068 8.9771 8.57068C8.82443 8.57068 8.69211 8.62524 8.58015 8.73435C8.46819 8.83851 8.41221 8.96499 8.41221 9.11379C8.41221 9.26258 8.46819 9.39154 8.58015 9.50066C8.69211 9.60481 8.82443 9.65689 8.9771 9.65689ZM8.9771 11.7252C9.12977 11.7252 9.25954 11.6731 9.36641 11.5689C9.47328 11.4648 9.52672 11.3383 9.52672 11.1895C9.52672 11.0308 9.47328 10.8993 9.36641 10.7952C9.25954 10.6861 9.12977 10.6315 8.9771 10.6315C8.82443 10.6315 8.69211 10.6861 8.58015 10.7952C8.46819 10.8993 8.41221 11.0308 8.41221 11.1895C8.41221 11.3383 8.46819 11.4648 8.58015 11.5689C8.69211 11.6731 8.82443 11.7252 8.9771 11.7252ZM7.20611 12.484C7.35878 12.484 7.48855 12.4295 7.59542 12.3203C7.70229 12.2063 7.75573 12.0748 7.75573 11.926C7.75573 11.7772 7.70229 11.6508 7.59542 11.5466C7.48855 11.4375 7.35878 11.3829 7.20611 11.3829C7.05343 11.3829 6.92112 11.4375 6.80916 11.5466C6.70229 11.6508 6.64886 11.7772 6.64886 11.926C6.64886 12.0748 6.70229 12.2063 6.80916 12.3203C6.92112 12.4295 7.05343 12.484 7.20611 12.484ZM5.42748 11.7252C5.58015 11.7252 5.71247 11.6731 5.82443 11.5689C5.93639 11.4648 5.99237 11.3383 5.99237 11.1895C5.99237 11.0308 5.93639 10.8993 5.82443 10.7952C5.71247 10.6861 5.58015 10.6315 5.42748 10.6315C5.27481 10.6315 5.14504 10.6861 5.03817 10.7952C4.9313 10.8993 4.87786 11.0308 4.87786 11.1895C4.87786 11.3383 4.9313 11.4648 5.03817 11.5689C5.14504 11.6731 5.27481 11.7252 5.42748 11.7252ZM5.42748 9.65689C5.58015 9.65689 5.71247 9.60481 5.82443 9.50066C5.93639 9.39154 5.99237 9.26258 5.99237 9.11379C5.99237 8.96499 5.93639 8.83851 5.82443 8.73435C5.71247 8.62524 5.58015 8.57068 5.42748 8.57068C5.27481 8.57068 5.14504 8.62524 5.03817 8.73435C4.9313 8.83851 4.87786 8.96499 4.87786 9.11379C4.87786 9.26258 4.9313 9.39154 5.03817 9.50066C5.14504 9.60481 5.27481 9.65689 5.42748 9.65689ZM7.20611 10.691C7.35878 10.691 7.48855 10.6389 7.59542 10.5348C7.70229 10.4257 7.75573 10.2967 7.75573 10.1479C7.75573 9.99912 7.70229 9.87265 7.59542 9.76849C7.48855 9.65937 7.35878 9.60481 7.20611 9.60481C7.05343 9.60481 6.92112 9.65937 6.80916 9.76849C6.70229 9.87265 6.64886 9.99912 6.64886 10.1479C6.64886 10.2967 6.70229 10.4257 6.80916 10.5348C6.92112 10.6389 7.05343 10.691 7.20611 10.691ZM14.5802 4.50853L14.9542 3.3628L4.41985 0.0297593C4.26209 -0.0198395 4.10687 -0.00743983 3.9542 0.0669584C3.80153 0.141357 3.69975 0.257914 3.64885 0.41663C3.59796 0.570387 3.61069 0.721663 3.68702 0.870459C3.76336 1.01926 3.88295 1.12093 4.0458 1.17549L14.5802 4.50853ZM2.39695 17H15.6031C16.4071 17 17.0076 16.8066 17.4046 16.4197C17.8015 16.0378 18 15.4649 18 14.7011V5.60963C18 4.84581 17.8015 4.27046 17.4046 3.88359C17.0076 3.49672 16.4071 3.30328 15.6031 3.30328H2.39695C1.59796 3.30328 0.997455 3.49672 0.59542 3.88359C0.198473 4.2655 0 4.84085 0 5.60963V14.7011C0 15.4649 0.198473 16.0378 0.59542 16.4197C0.997455 16.8066 1.59796 17 2.39695 17ZM2.41221 15.8022C2.03053 15.8022 1.73791 15.7055 1.53435 15.512C1.33079 15.3136 1.22901 15.021 1.22901 14.6341V5.67659C1.22901 5.28972 1.33079 4.99708 1.53435 4.79869C1.73791 4.60029 2.03053 4.50109 2.41221 4.50109H15.5878C15.9644 4.50109 16.2545 4.60029 16.458 4.79869C16.6667 4.99708 16.771 5.28972 16.771 5.67659V14.6341C16.771 15.021 16.6667 15.3136 16.458 15.512C16.2545 15.7055 15.9644 15.8022 15.5878 15.8022H2.41221Z"
		fill="currentColor"
	/>
</svg>
