<svg
	color="rgb(var(--foreground, 0, 0, 0))"
	viewBox="0 0 9 19"
	fill="none"
	xmlns="http://www.w3.org/2000/svg"
>
	<path
		d="M2.05692 18.5H6.94308C7.57355 18.5 8.07268 18.3259 8.44045 17.9776C8.81348 17.6344 9 17.1709 9 16.5871V2.40525C9 1.8265 8.81348 1.36556 8.44045 1.02241C8.07268 0.674136 7.57355 0.5 6.94308 0.5H2.05692C1.42644 0.5 0.924693 0.674136 0.551664 1.02241C0.183888 1.36556 0 1.8265 0 2.40525V16.5871C0 17.1709 0.183888 17.6344 0.551664 17.9776C0.924693 18.3259 1.42644 18.5 2.05692 18.5ZM4.9965 3.27337C4.85464 3.27337 4.7338 3.22727 4.63398 3.13508C4.53415 3.03777 4.48424 2.91997 4.48424 2.78169C4.48424 2.64341 4.53415 2.52561 4.63398 2.4283C4.7338 2.33099 4.85464 2.28233 4.9965 2.28233H6.7303C6.87215 2.28233 6.99037 2.33099 7.08494 2.4283C7.18476 2.52561 7.23468 2.64341 7.23468 2.78169C7.23468 2.91997 7.18476 3.03777 7.08494 3.13508C6.99037 3.22727 6.87215 3.27337 6.7303 3.27337H4.9965ZM2.51401 6.22343C2.29334 6.22343 2.10683 6.14917 1.95447 6.00064C1.8021 5.85211 1.72592 5.66773 1.72592 5.4475C1.72592 5.24264 1.8021 5.06338 1.95447 4.90973C2.10683 4.75608 2.29334 4.67926 2.51401 4.67926C2.73468 4.67926 2.92119 4.75608 3.07355 4.90973C3.23117 5.06338 3.30998 5.24264 3.30998 5.4475C3.30998 5.66773 3.23117 5.85211 3.07355 6.00064C2.92119 6.14917 2.73468 6.22343 2.51401 6.22343ZM4.5 6.22343C4.27933 6.22343 4.09282 6.14917 3.94046 6.00064C3.78809 5.85211 3.71191 5.66773 3.71191 5.4475C3.71191 5.24264 3.78809 5.06338 3.94046 4.90973C4.09282 4.75608 4.27933 4.67926 4.5 4.67926C4.72067 4.67926 4.90718 4.75608 5.05954 4.90973C5.21191 5.06338 5.28809 5.24264 5.28809 5.4475C5.28809 5.66773 5.21191 5.85211 5.05954 6.00064C4.90718 6.14917 4.72067 6.22343 4.5 6.22343ZM6.49387 6.22343C6.2732 6.22343 6.08669 6.14917 5.93433 6.00064C5.78196 5.85211 5.70578 5.66773 5.70578 5.4475C5.70578 5.24264 5.78196 5.06338 5.93433 4.90973C6.08669 4.75608 6.2732 4.67926 6.49387 4.67926C6.71454 4.67926 6.90105 4.75608 7.05341 4.90973C7.20578 5.06338 7.28196 5.24264 7.28196 5.4475C7.28196 5.66773 7.20578 5.85211 7.05341 6.00064C6.90105 6.14917 6.71454 6.22343 6.49387 6.22343ZM2.51401 8.43598C2.29334 8.43598 2.10683 8.36172 1.95447 8.21319C1.8021 8.06466 1.72592 7.88284 1.72592 7.66773C1.72592 7.45775 1.8021 7.27849 1.95447 7.12996C2.10683 6.97631 2.29334 6.89949 2.51401 6.89949C2.73468 6.89949 2.92119 6.97631 3.07355 7.12996C3.23117 7.27849 3.30998 7.45775 3.30998 7.66773C3.30998 7.88284 3.23117 8.06466 3.07355 8.21319C2.92119 8.36172 2.73468 8.43598 2.51401 8.43598ZM4.5 8.43598C4.27933 8.43598 4.09282 8.36172 3.94046 8.21319C3.78809 8.06466 3.71191 7.88284 3.71191 7.66773C3.71191 7.45775 3.78809 7.27849 3.94046 7.12996C4.09282 6.97631 4.27933 6.89949 4.5 6.89949C4.72067 6.89949 4.90718 6.97631 5.05954 7.12996C5.21191 7.27849 5.28809 7.45775 5.28809 7.66773C5.28809 7.88284 5.21191 8.06466 5.05954 8.21319C4.90718 8.36172 4.72067 8.43598 4.5 8.43598ZM6.49387 8.43598C6.2732 8.43598 6.08669 8.36172 5.93433 8.21319C5.78196 8.06466 5.70578 7.88284 5.70578 7.66773C5.70578 7.45775 5.78196 7.27849 5.93433 7.12996C6.08669 6.97631 6.2732 6.89949 6.49387 6.89949C6.71454 6.89949 6.90105 6.97631 7.05341 7.12996C7.20578 7.27849 7.28196 7.45775 7.28196 7.66773C7.28196 7.88284 7.20578 8.06466 7.05341 8.21319C6.90105 8.36172 6.71454 8.43598 6.49387 8.43598ZM2.51401 10.6485C2.29334 10.6485 2.10683 10.5768 1.95447 10.4334C1.8021 10.2849 1.72592 10.1005 1.72592 9.88028C1.72592 9.67029 1.8021 9.49104 1.95447 9.34251C2.10683 9.18886 2.29334 9.11204 2.51401 9.11204C2.73468 9.11204 2.92119 9.18886 3.07355 9.34251C3.23117 9.49104 3.30998 9.67029 3.30998 9.88028C3.30998 10.1005 3.23117 10.2849 3.07355 10.4334C2.92119 10.5768 2.73468 10.6485 2.51401 10.6485ZM4.5 10.6485C4.27933 10.6485 4.09282 10.5743 3.94046 10.4257C3.78809 10.2772 3.71191 10.0954 3.71191 9.88028C3.71191 9.66517 3.78809 9.48335 3.94046 9.33483C4.09282 9.1863 4.27933 9.11204 4.5 9.11204C4.72067 9.11204 4.90718 9.1863 5.05954 9.33483C5.21191 9.48335 5.28809 9.66517 5.28809 9.88028C5.28809 10.0954 5.21191 10.2772 5.05954 10.4257C4.90718 10.5743 4.72067 10.6485 4.5 10.6485ZM6.49387 10.6485C6.2732 10.6485 6.08669 10.5743 5.93433 10.4257C5.78196 10.2772 5.70578 10.0954 5.70578 9.88028C5.70578 9.66517 5.78196 9.48335 5.93433 9.33483C6.08669 9.1863 6.2732 9.11204 6.49387 9.11204C6.71454 9.11204 6.90105 9.1863 7.05341 9.33483C7.20578 9.48335 7.28196 9.66517 7.28196 9.88028C7.28196 10.0954 7.20578 10.2772 7.05341 10.4257C6.90105 10.5743 6.71454 10.6485 6.49387 10.6485ZM2.34063 15.911C2.16725 15.911 2.02014 15.8521 1.8993 15.7343C1.78371 15.6165 1.72592 15.4757 1.72592 15.3118V12.5077C1.72592 12.3438 1.78371 12.2055 1.8993 12.0928C2.02014 11.975 2.16725 11.9161 2.34063 11.9161C2.50876 11.9161 2.65061 11.975 2.7662 12.0928C2.88704 12.2055 2.94746 12.3438 2.94746 12.5077V15.3118C2.94746 15.4757 2.88704 15.6165 2.7662 15.7343C2.65061 15.8521 2.50876 15.911 2.34063 15.911ZM4.09807 13.614C3.96672 13.614 3.86427 13.5781 3.79072 13.5064C3.71716 13.4296 3.68039 13.3271 3.68039 13.1991V12.6844C3.68039 12.5512 3.71716 12.4488 3.79072 12.3771C3.86427 12.3003 3.96672 12.2618 4.09807 12.2618H4.89405C5.0359 12.2618 5.14098 12.3003 5.20928 12.3771C5.28284 12.4488 5.31961 12.5512 5.31961 12.6844V13.1991C5.31961 13.3271 5.28284 13.4296 5.20928 13.5064C5.14098 13.5781 5.0359 13.614 4.89405 13.614H4.09807ZM4.09807 15.5499C3.96672 15.5499 3.86427 15.5141 3.79072 15.4424C3.71716 15.3707 3.68039 15.2708 3.68039 15.1428V14.628C3.68039 14.3515 3.81961 14.2132 4.09807 14.2132H4.89405C5.17776 14.2132 5.31961 14.3515 5.31961 14.628V15.1428C5.31961 15.4142 5.17776 15.5499 4.89405 15.5499H4.09807ZM6.66725 15.911C6.49912 15.911 6.35464 15.8521 6.2338 15.7343C6.11821 15.6165 6.06042 15.4757 6.06042 15.3118V12.5077C6.06042 12.3438 6.11821 12.2055 6.2338 12.0928C6.35464 11.975 6.49912 11.9161 6.66725 11.9161C6.84063 11.9161 6.98511 11.975 7.1007 12.0928C7.22154 12.2055 7.28196 12.3438 7.28196 12.5077V15.3118C7.28196 15.4757 7.22154 15.6165 7.1007 15.7343C6.98511 15.8521 6.84063 15.911 6.66725 15.911Z"
		fill="currentColor"
	/>
</svg>
