<svg
	color="rgb(var(--foreground, 0, 0, 0))"
	viewBox="0 0 9 19"
	fill="none"
	xmlns="http://www.w3.org/2000/svg"
>
	<path
		d="M2.05692 18.5H6.94308C7.57355 18.5 8.07268 18.3259 8.44045 17.9776C8.81348 17.6344 9 17.1709 9 16.5871V2.40525C9 1.8265 8.81348 1.36556 8.44045 1.02241C8.07268 0.674136 7.57355 0.5 6.94308 0.5H2.05692C1.42644 0.5 0.924693 0.674136 0.551664 1.02241C0.183888 1.36556 0 1.8265 0 2.40525V16.5871C0 17.1709 0.183888 17.6344 0.551664 17.9776C0.924693 18.3259 1.42644 18.5 2.05692 18.5ZM2.19089 17.3784C1.87566 17.3784 1.62609 17.2913 1.44221 17.1172C1.25832 16.9481 1.16637 16.7177 1.16637 16.4257V2.57426C1.16637 2.28233 1.25832 2.05186 1.44221 1.88284C1.62609 1.70871 1.87566 1.62164 2.19089 1.62164H6.80911C7.12434 1.62164 7.37391 1.70871 7.55779 1.88284C7.74168 2.05186 7.83362 2.28233 7.83362 2.57426V16.4257C7.83362 16.7177 7.74168 16.9481 7.55779 17.1172C7.37391 17.2913 7.12434 17.3784 6.80911 17.3784H2.19089ZM4.98074 3.45006H6.65937C6.79597 3.45006 6.91156 3.40397 7.00613 3.31178C7.10595 3.21959 7.15587 3.10691 7.15587 2.97375C7.15587 2.83547 7.10595 2.72023 7.00613 2.62804C6.91156 2.53585 6.79597 2.48976 6.65937 2.48976H4.98074C4.84413 2.48976 4.72592 2.53585 4.62609 2.62804C4.53152 2.72023 4.48424 2.83547 4.48424 2.97375C4.48424 3.10691 4.53152 3.21959 4.62609 3.31178C4.72592 3.40397 4.84413 3.45006 4.98074 3.45006ZM2.57706 6.30794C2.79247 6.30794 2.97373 6.23624 3.12084 6.09283C3.26795 5.94942 3.34151 5.77273 3.34151 5.56274C3.34151 5.363 3.26795 5.18886 3.12084 5.04033C2.97373 4.89181 2.79247 4.81754 2.57706 4.81754C2.36165 4.81754 2.18039 4.89181 2.03327 5.04033C1.88616 5.18886 1.81261 5.363 1.81261 5.56274C1.81261 5.77273 1.88616 5.94942 2.03327 6.09283C2.18039 6.23624 2.36165 6.30794 2.57706 6.30794ZM4.5 6.30794C4.71541 6.30794 4.89667 6.23624 5.04378 6.09283C5.19089 5.94942 5.26445 5.77273 5.26445 5.56274C5.26445 5.363 5.19089 5.18886 5.04378 5.04033C4.89667 4.89181 4.71541 4.81754 4.5 4.81754C4.28459 4.81754 4.10333 4.89181 3.95622 5.04033C3.80911 5.18886 3.73555 5.363 3.73555 5.56274C3.73555 5.77273 3.80911 5.94942 3.95622 6.09283C4.10333 6.23624 4.28459 6.30794 4.5 6.30794ZM6.43082 6.30794C6.64623 6.30794 6.8275 6.23624 6.97461 6.09283C7.12172 5.94942 7.19527 5.77273 7.19527 5.56274C7.19527 5.363 7.12172 5.18886 6.97461 5.04033C6.8275 4.89181 6.64623 4.81754 6.43082 4.81754C6.21541 4.81754 6.03415 4.89181 5.88704 5.04033C5.73993 5.18886 5.66637 5.363 5.66637 5.56274C5.66637 5.77273 5.73993 5.94942 5.88704 6.09283C6.03415 6.23624 6.21541 6.30794 6.43082 6.30794ZM2.57706 8.45903C2.79247 8.45903 2.97373 8.38732 3.12084 8.24392C3.26795 8.10051 3.34151 7.92382 3.34151 7.71383C3.34151 7.50896 3.26795 7.33483 3.12084 7.19142C2.97373 7.04289 2.79247 6.96863 2.57706 6.96863C2.36165 6.96863 2.18039 7.04289 2.03327 7.19142C1.88616 7.33483 1.81261 7.50896 1.81261 7.71383C1.81261 7.92382 1.88616 8.10051 2.03327 8.24392C2.18039 8.38732 2.36165 8.45903 2.57706 8.45903ZM4.5 8.45903C4.71541 8.45903 4.89667 8.38732 5.04378 8.24392C5.19089 8.10051 5.26445 7.92382 5.26445 7.71383C5.26445 7.50896 5.19089 7.33483 5.04378 7.19142C4.89667 7.04289 4.71541 6.96863 4.5 6.96863C4.28459 6.96863 4.10333 7.04289 3.95622 7.19142C3.80911 7.33483 3.73555 7.50896 3.73555 7.71383C3.73555 7.92382 3.80911 8.10051 3.95622 8.24392C4.10333 8.38732 4.28459 8.45903 4.5 8.45903ZM6.43082 8.45903C6.64623 8.45903 6.8275 8.38732 6.97461 8.24392C7.12172 8.10051 7.19527 7.92382 7.19527 7.71383C7.19527 7.50896 7.12172 7.33483 6.97461 7.19142C6.8275 7.04289 6.64623 6.96863 6.43082 6.96863C6.21541 6.96863 6.03415 7.04289 5.88704 7.19142C5.73993 7.33483 5.66637 7.50896 5.66637 7.71383C5.66637 7.92382 5.73993 8.10051 5.88704 8.24392C6.03415 8.38732 6.21541 8.45903 6.43082 8.45903ZM2.57706 10.6024C2.79247 10.6024 2.97373 10.5307 3.12084 10.3873C3.26795 10.2439 3.34151 10.0672 3.34151 9.85723C3.34151 9.65749 3.26795 9.48335 3.12084 9.33483C2.97373 9.1863 2.79247 9.11204 2.57706 9.11204C2.36165 9.11204 2.18039 9.1863 2.03327 9.33483C1.88616 9.48335 1.81261 9.65749 1.81261 9.85723C1.81261 10.0672 1.88616 10.2439 2.03327 10.3873C2.18039 10.5307 2.36165 10.6024 2.57706 10.6024ZM4.5 10.6024C4.71541 10.6024 4.89667 10.5307 5.04378 10.3873C5.19089 10.2388 5.26445 10.0621 5.26445 9.85723C5.26445 9.65237 5.19089 9.47823 5.04378 9.33483C4.89667 9.1863 4.71541 9.11204 4.5 9.11204C4.28459 9.11204 4.10333 9.1863 3.95622 9.33483C3.80911 9.47823 3.73555 9.65237 3.73555 9.85723C3.73555 10.0621 3.80911 10.2388 3.95622 10.3873C4.10333 10.5307 4.28459 10.6024 4.5 10.6024ZM6.43082 10.6024C6.64623 10.6024 6.8275 10.5307 6.97461 10.3873C7.12172 10.2388 7.19527 10.0621 7.19527 9.85723C7.19527 9.65237 7.12172 9.47823 6.97461 9.33483C6.8275 9.1863 6.64623 9.11204 6.43082 9.11204C6.21541 9.11204 6.03415 9.1863 5.88704 9.33483C5.73993 9.47823 5.66637 9.65237 5.66637 9.85723C5.66637 10.0621 5.73993 10.2388 5.88704 10.3873C6.03415 10.5307 6.21541 10.6024 6.43082 10.6024ZM2.40368 15.7036C2.56655 15.7036 2.70578 15.6472 2.82137 15.5346C2.93695 15.4219 2.99475 15.2862 2.99475 15.1274V12.4078C2.99475 12.249 2.93695 12.1133 2.82137 12.0006C2.70578 11.888 2.56655 11.8316 2.40368 11.8316C2.24081 11.8316 2.10158 11.888 1.98599 12.0006C1.8704 12.1133 1.81261 12.249 1.81261 12.4078V15.1274C1.81261 15.2862 1.8704 15.4219 1.98599 15.5346C2.10158 15.6472 2.24081 15.7036 2.40368 15.7036ZM4.11384 13.4757H4.87828C5.01489 13.4757 5.11734 13.4398 5.18564 13.3681C5.25919 13.2964 5.29597 13.1991 5.29597 13.0762V12.5768C5.29597 12.4488 5.25919 12.3489 5.18564 12.2772C5.11734 12.2055 5.01489 12.1697 4.87828 12.1697H4.11384C3.98774 12.1697 3.88792 12.2055 3.81436 12.2772C3.74081 12.3489 3.70403 12.4488 3.70403 12.5768V13.0762C3.70403 13.1991 3.74081 13.2964 3.81436 13.3681C3.88792 13.4398 3.98774 13.4757 4.11384 13.4757ZM4.11384 15.3579H4.87828C5.15674 15.3579 5.29597 15.2247 5.29597 14.9584V14.459C5.29597 14.1927 5.15674 14.0595 4.87828 14.0595H4.11384C3.98774 14.0595 3.88792 14.0954 3.81436 14.1671C3.74081 14.2388 3.70403 14.3361 3.70403 14.459V14.9584C3.70403 15.2247 3.84063 15.3579 4.11384 15.3579ZM6.6042 15.7036C6.76708 15.7036 6.9063 15.6472 7.02189 15.5346C7.13748 15.4219 7.19527 15.2862 7.19527 15.1274V12.4078C7.19527 12.249 7.13748 12.1133 7.02189 12.0006C6.9063 11.888 6.76708 11.8316 6.6042 11.8316C6.44133 11.8316 6.3021 11.888 6.18651 12.0006C6.07093 12.1133 6.01313 12.249 6.01313 12.4078V15.1274C6.01313 15.2862 6.07093 15.4219 6.18651 15.5346C6.3021 15.6472 6.44133 15.7036 6.6042 15.7036Z"
		fill="currentColor"
	/>
</svg>
