<svg
	color="rgb(var(--foreground, 0, 0, 0))"
	viewBox="0 0 18 15"
	fill="none"
	xmlns="http://www.w3.org/2000/svg"
>
	<path
		d="M0 12.1515C0 12.9318 0.199149 13.517 0.597447 13.9072C1.00085 14.3024 1.6034 14.5 2.40511 14.5H15.5949C16.3915 14.5 16.9915 14.3024 17.3949 13.9072C17.7983 13.517 18 12.9318 18 12.1515V9.65852C18 9.40518 17.9566 9.14676 17.8698 8.88328C17.7881 8.61473 17.6451 8.37405 17.4409 8.16124L14.5379 5.09826C14.3081 4.85505 14.0834 4.64984 13.8638 4.48263C13.6494 4.31035 13.417 4.17861 13.1668 4.08741C12.9166 3.9962 12.6179 3.9506 12.2706 3.9506H5.58383C5.13957 3.9506 4.7617 4.05194 4.45021 4.25461C4.13872 4.45223 3.80936 4.73344 3.46213 5.09826L0.559149 8.16124C0.354894 8.37405 0.209362 8.61473 0.122553 8.88328C0.0408511 9.14676 0 9.40518 0 9.65852V12.1515ZM1.23319 12.0831V10.601H16.7668V12.0831C16.7668 12.4783 16.6621 12.7772 16.4528 12.9799C16.2434 13.1775 15.9498 13.2763 15.5719 13.2763H2.42043C2.03745 13.2763 1.74383 13.1775 1.53957 12.9799C1.33532 12.7772 1.23319 12.4783 1.23319 12.0831ZM1.70809 8.79207L4.47319 5.7367C4.66723 5.52389 4.84596 5.36174 5.00936 5.25027C5.17787 5.13373 5.37702 5.07546 5.60681 5.07546H12.3855C12.6153 5.07546 12.8119 5.1312 12.9753 5.24267C13.1438 5.35414 13.3277 5.51882 13.5268 5.7367L16.2919 8.79207C16.394 8.90861 16.417 9.03529 16.3609 9.1721C16.3098 9.3089 16.1898 9.37731 16.0009 9.37731H1.99915C1.80511 9.37731 1.68255 9.3089 1.63149 9.1721C1.58043 9.03529 1.60596 8.90861 1.70809 8.79207ZM1.14894 1.58686L3.55404 3.9962C3.78383 4.22928 3.98809 4.41422 4.16681 4.55103C4.34553 4.68277 4.53447 4.77904 4.73362 4.83985C4.93277 4.89558 5.17532 4.92345 5.46128 4.92345H12.4698C12.7813 4.92345 13.0391 4.89558 13.2434 4.83985C13.4528 4.77904 13.6468 4.68277 13.8255 4.55103C14.0094 4.41422 14.2162 4.22928 14.446 3.9962L16.8511 1.58686C16.9481 1.48552 17.0094 1.37405 17.0349 1.25244C17.0604 1.13084 17.0528 1.0143 17.0119 0.902823C16.9711 0.786283 16.8945 0.690011 16.7821 0.614007C16.6749 0.538002 16.537 0.5 16.3685 0.5H1.63149C1.45787 0.5 1.31745 0.538002 1.21021 0.614007C1.10298 0.690011 1.02894 0.786283 0.988085 0.902823C0.947234 1.0143 0.939574 1.13084 0.965106 1.25244C0.990638 1.37405 1.05191 1.48552 1.14894 1.58686ZM2.64255 1.60206H15.3574L13.3123 3.63898C13.2051 3.75045 13.0902 3.83152 12.9677 3.88219C12.8502 3.9278 12.7021 3.9506 12.5234 3.9506H5.4766C5.29277 3.9506 5.14213 3.9278 5.02468 3.88219C4.90723 3.83152 4.79489 3.75045 4.68766 3.63898L2.64255 1.60206ZM4.37362 8.28285C4.40426 8.37405 4.46298 8.43992 4.54979 8.48046C4.6417 8.51592 4.73617 8.51592 4.83319 8.48046L8.3566 7.20358C8.45872 7.16811 8.53021 7.10984 8.57106 7.02877C8.61191 6.94264 8.61447 6.85143 8.57872 6.75516C8.54809 6.65889 8.48936 6.59302 8.40255 6.55755C8.31575 6.52208 8.22128 6.52208 8.11915 6.55755L4.59574 7.83442C4.49872 7.86989 4.42723 7.92816 4.38128 8.00923C4.34043 8.0903 4.33787 8.18151 4.37362 8.28285ZM4.48851 6.89197C4.52426 6.9933 4.58553 7.06171 4.67234 7.09718C4.75915 7.13265 4.85106 7.13265 4.94809 7.09718L7.37617 6.22313C7.47319 6.18766 7.54213 6.12939 7.58298 6.04832C7.62894 5.96218 7.63404 5.87097 7.5983 5.7747C7.56766 5.67843 7.50638 5.61256 7.41447 5.57709C7.32766 5.54162 7.2383 5.54162 7.14638 5.57709L4.71064 6.45114C4.61362 6.48154 4.54213 6.53981 4.49617 6.62595C4.45532 6.71209 4.45277 6.80076 4.48851 6.89197ZM12.2783 11.9387C12.2783 12.0552 12.3191 12.1515 12.4009 12.2275C12.4877 12.2984 12.5898 12.3339 12.7072 12.3339H14.7523C14.8698 12.3339 14.9694 12.2984 15.0511 12.2275C15.1328 12.1515 15.1736 12.0552 15.1736 11.9387C15.1736 11.8221 15.1328 11.7258 15.0511 11.6498C14.9694 11.5738 14.8698 11.5358 14.7523 11.5358H12.7072C12.5796 11.5358 12.4749 11.5738 12.3932 11.6498C12.3166 11.7258 12.2783 11.8221 12.2783 11.9387Z"
		fill="currentColor"
	/>
</svg>
