<svg
	color="rgb(var(--foreground, 0, 0, 0))"
	viewBox="0 0 12 17"
	fill="none"
	xmlns="http://www.w3.org/2000/svg"
>
	<path
		d="M0 2.69517V14.3048C0 15.0366 0.182648 15.5853 0.547945 15.9512C0.91846 16.3171 1.46901 16.5 2.19961 16.5H9.80822C10.5388 16.5 11.0868 16.3171 11.4521 15.9512C11.8174 15.5853 12 15.0366 12 14.3048V2.69517C12 1.96345 11.8174 1.41465 11.4521 1.04879C11.0868 0.682931 10.5388 0.5 9.80822 0.5H2.19961C1.4638 0.5 0.913242 0.682931 0.547945 1.04879C0.182648 1.41465 0 1.96345 0 2.69517ZM1.26027 2.71063C1.26027 2.39114 1.34377 2.15153 1.51076 1.99179C1.67776 1.82689 1.92303 1.74444 2.24658 1.74444H9.76125C10.0848 1.74444 10.3275 1.82689 10.4892 1.99179C10.6562 2.15153 10.7397 2.39114 10.7397 2.71063V14.2894C10.7397 14.6037 10.6562 14.8433 10.4892 15.0082C10.3222 15.1731 10.0796 15.2556 9.76125 15.2556H2.24658C1.92303 15.2556 1.67776 15.1731 1.51076 15.0082C1.34377 14.8433 1.26027 14.6037 1.26027 14.2894V2.71063ZM6.00391 14.0111C6.59361 14.0111 7.12851 13.872 7.60861 13.5937C8.09393 13.3103 8.4801 12.9316 8.76712 12.4575C9.05414 11.9783 9.19765 11.4449 9.19765 10.8575C9.19765 10.27 9.05414 9.73929 8.76712 9.26522C8.4801 8.79114 8.09393 8.4124 7.60861 8.12899C7.12851 7.84557 6.59361 7.70386 6.00391 7.70386C5.41422 7.69871 4.87671 7.83784 4.39139 8.12126C3.90607 8.40467 3.5199 8.78599 3.23288 9.26522C2.95108 9.73929 2.81018 10.27 2.81018 10.8575C2.81018 11.4449 2.95108 11.9783 3.23288 12.4575C3.5199 12.9316 3.90607 13.3103 4.39139 13.5937C4.87671 13.872 5.41422 14.0111 6.00391 14.0111ZM6.00391 12.1947C5.62818 12.1947 5.30724 12.0659 5.0411 11.8082C4.78017 11.5454 4.64971 11.2285 4.64971 10.8575C4.64971 10.4762 4.77756 10.1567 5.03327 9.89903C5.29419 9.64139 5.61774 9.51256 6.00391 9.51256C6.38487 9.51256 6.70581 9.64139 6.96673 9.89903C7.22766 10.1567 7.35812 10.4762 7.35812 10.8575C7.35812 11.2285 7.22766 11.5454 6.96673 11.8082C6.70581 12.0659 6.38487 12.1947 6.00391 12.1947ZM6.00391 6.49034C6.32746 6.49034 6.62492 6.41304 6.89628 6.25845C7.16764 6.09871 7.38421 5.88744 7.54599 5.62464C7.70776 5.35668 7.78604 5.06039 7.78082 4.73575C7.7756 4.24622 7.60078 3.83398 7.25636 3.49903C6.91194 3.16409 6.49446 2.99404 6.00391 2.98889C5.67515 2.98374 5.37508 3.06103 5.10372 3.22077C4.83757 3.37536 4.62361 3.58663 4.46184 3.85459C4.30528 4.11739 4.22701 4.41111 4.22701 4.73575C4.22701 5.06039 4.30528 5.35668 4.46184 5.62464C4.62361 5.88744 4.83757 6.09871 5.10372 6.25845C5.37508 6.41304 5.67515 6.49034 6.00391 6.49034ZM6.00391 5.63237C5.74821 5.63237 5.53164 5.54477 5.35421 5.36957C5.182 5.18921 5.09589 4.97794 5.09589 4.73575C5.09589 4.4781 5.182 4.26425 5.35421 4.0942C5.53164 3.92415 5.74821 3.83913 6.00391 3.83913C6.24918 3.83913 6.46054 3.92673 6.63796 4.10193C6.82061 4.27713 6.91194 4.48841 6.91194 4.73575C6.91194 4.97794 6.82322 5.18921 6.64579 5.36957C6.46836 5.54477 6.2544 5.63237 6.00391 5.63237Z"
		fill="currentColor"
	/>
</svg>
