<svg
	color="rgb(var(--foreground, 0, 0, 0))"
	viewBox="0 0 12 17"
	fill="none"
	xmlns="http://www.w3.org/2000/svg"
>
	<path
		d="M0 2.69517V14.3048C0 15.0366 0.182648 15.5853 0.547945 15.9512C0.91846 16.3171 1.46901 16.5 2.19961 16.5H9.80822C10.5388 16.5 11.0868 16.3171 11.4521 15.9512C11.8174 15.5853 12 15.0366 12 14.3048V2.69517C12 1.96345 11.8174 1.41465 11.4521 1.04879C11.0868 0.682931 10.5388 0.5 9.80822 0.5H2.19961C1.4638 0.5 0.913242 0.682931 0.547945 1.04879C0.182648 1.41465 0 1.96345 0 2.69517ZM6.00391 14.2585C5.39335 14.2585 4.83757 14.1142 4.3366 13.8256C3.84084 13.537 3.44423 13.148 3.14677 12.6585C2.85453 12.1638 2.70841 11.615 2.70841 11.0121C2.70841 10.404 2.85453 9.85523 3.14677 9.3657C3.44423 8.87101 3.84084 8.47939 4.3366 8.19082C4.83757 7.8971 5.39335 7.75282 6.00391 7.75797C6.60926 7.75797 7.15982 7.90483 7.65558 8.19855C8.15656 8.48712 8.55577 8.87617 8.85323 9.3657C9.15068 9.85523 9.29941 10.404 9.29941 11.0121C9.29941 11.615 9.15068 12.1638 8.85323 12.6585C8.55577 13.148 8.15656 13.537 7.65558 13.8256C7.15982 14.1142 6.60926 14.2585 6.00391 14.2585ZM6.00391 6.35121C5.66471 6.35121 5.35682 6.27134 5.08024 6.11159C4.80365 5.9467 4.58187 5.7277 4.41487 5.45459C4.2531 5.18148 4.17221 4.87746 4.17221 4.54251C4.17221 4.20757 4.2531 3.90354 4.41487 3.63043C4.58187 3.35733 4.80365 3.1409 5.08024 2.98116C5.35682 2.82142 5.66471 2.74155 6.00391 2.74155C6.34312 2.7467 6.6484 2.82915 6.91976 2.98889C7.19635 3.14863 7.41552 3.36506 7.5773 3.63816C7.74429 3.90612 7.8304 4.20757 7.83562 4.54251C7.84084 4.87746 7.75995 5.18148 7.59296 5.45459C7.43118 5.7277 7.20939 5.9467 6.92759 6.11159C6.64579 6.27134 6.3379 6.35121 6.00391 6.35121ZM6.00391 12.3879C6.3953 12.3879 6.72407 12.2539 6.99022 11.986C7.26158 11.7129 7.39726 11.3882 7.39726 11.0121C7.39726 10.6153 7.26158 10.2855 6.99022 10.0227C6.72407 9.75475 6.3953 9.62077 6.00391 9.62077C5.60731 9.62077 5.27593 9.75475 5.00978 10.0227C4.74364 10.2855 4.61057 10.6153 4.61057 11.0121C4.61057 11.3882 4.74625 11.7129 5.01761 11.986C5.28898 12.2539 5.61774 12.3879 6.00391 12.3879ZM6.00391 5.46232C6.25962 5.46232 6.4788 5.37214 6.66145 5.19179C6.8441 5.01143 6.93542 4.79501 6.93542 4.54251C6.93542 4.28486 6.8441 4.06844 6.66145 3.89324C6.4788 3.71288 6.25962 3.62271 6.00391 3.62271C5.74299 3.62271 5.5212 3.71031 5.33855 3.88551C5.16112 4.05556 5.07241 4.27456 5.07241 4.54251C5.07241 4.79501 5.16112 5.01143 5.33855 5.19179C5.5212 5.37214 5.74299 5.46232 6.00391 5.46232Z"
		fill="currentColor"
	/>
</svg>
