<svg color="rgb(var(--foreground, 0, 0, 0))" viewBox="0 0 16 21" fill="none">
	<path
		d="M2.16237 13.1246H13.8376C14.5584 13.1246 15.0977 12.9467 15.4555 12.591C15.8185 12.2301 16 11.6939 16 10.9825V2.65771C16 1.94109 15.8185 1.40231 15.4555 1.04139C15.0977 0.680463 14.5584 0.5 13.8376 0.5H2.16237C1.44677 0.5 0.90747 0.683078 0.544482 1.04923C0.181494 1.41016 0 1.94632 0 2.65771V10.9825C0 11.6939 0.178901 12.2301 0.536704 12.591C0.899692 12.9467 1.44158 13.1246 2.16237 13.1246ZM2.23238 11.9398C1.9005 11.9398 1.64123 11.8456 1.45455 11.6573C1.27305 11.469 1.1823 11.2075 1.1823 10.8727V10.5432L3.18133 8.69145C3.32653 8.55545 3.4795 8.45606 3.64025 8.39329C3.801 8.32529 3.95657 8.29129 4.10695 8.29129C4.45438 8.29129 4.78107 8.42991 5.08702 8.70714L6.37822 9.89192L9.63734 6.97313C9.96403 6.68543 10.3296 6.54158 10.7341 6.54158C10.9156 6.54158 11.1023 6.5782 11.2941 6.65143C11.486 6.72466 11.6571 6.83713 11.8075 6.98882L14.8566 9.91546V10.8884C14.8566 11.2179 14.7607 11.4769 14.5688 11.6652C14.3821 11.8482 14.128 11.9398 13.8065 11.9398H2.23238ZM5.0948 6.98097C4.78885 6.98097 4.50883 6.90513 4.25474 6.75343C4.00065 6.60174 3.79582 6.39774 3.64025 6.14143C3.48987 5.87989 3.41468 5.59481 3.41468 5.28619C3.41468 4.97757 3.48987 4.69511 3.64025 4.4388C3.79582 4.18249 4.00065 3.97849 4.25474 3.82679C4.50883 3.6751 4.78885 3.59925 5.0948 3.59925C5.40075 3.59925 5.67817 3.6751 5.92708 3.82679C6.18117 3.97849 6.38341 4.18249 6.53379 4.4388C6.68935 4.69511 6.76714 4.97757 6.76714 5.28619C6.76714 5.59481 6.68935 5.87989 6.53379 6.14143C6.38341 6.39774 6.18117 6.60174 5.92708 6.75343C5.67817 6.90513 5.40075 6.98097 5.0948 6.98097ZM0.583374 16.8201H15.4088C15.5696 16.8201 15.707 16.7626 15.8211 16.6475C15.9404 16.5324 16 16.3912 16 16.2238C16 16.0617 15.9404 15.923 15.8211 15.808C15.707 15.6929 15.5696 15.6353 15.4088 15.6353H0.583374C0.422622 15.6353 0.285205 15.6929 0.171123 15.808C0.057041 15.923 0 16.0617 0 16.2238C0 16.3912 0.057041 16.5324 0.171123 16.6475C0.285205 16.7626 0.422622 16.8201 0.583374 16.8201ZM0.583374 20.5H10.174C10.34 20.5 10.48 20.4425 10.5941 20.3274C10.7082 20.2175 10.7652 20.0789 10.7652 19.9115C10.7652 19.7441 10.7082 19.6029 10.5941 19.4878C10.48 19.3728 10.34 19.3152 10.174 19.3152H0.583374C0.422622 19.3152 0.285205 19.3728 0.171123 19.4878C0.057041 19.6029 0 19.7441 0 19.9115C0 20.0789 0.057041 20.2175 0.171123 20.3274C0.285205 20.4425 0.422622 20.5 0.583374 20.5Z"
		fill="currentColor"
	/>
</svg>
