<svg
	color="rgb(var(--foreground, 0, 0, 0))"
	viewBox="0 0 13 17"
	fill="none"
	xmlns="http://www.w3.org/2000/svg"
>
	<path
		d="M0 16.3736C0 16.5639 0.0566786 16.7146 0.170036 16.8256C0.283393 16.9419 0.432818 17 0.618312 17H12.3817C12.5672 17 12.7166 16.9419 12.83 16.8256C12.9433 16.7146 13 16.5639 13 16.3736V0.634328C13 0.44403 12.9433 0.290734 12.83 0.17444C12.7166 0.0581468 12.5672 0 12.3817 0H0.618312C0.432818 0 0.283393 0.0581468 0.170036 0.17444C0.0566786 0.290734 0 0.44403 0 0.634328V16.3736ZM1.24435 15.4935V1.51446C1.24435 1.35588 1.31906 1.27659 1.46849 1.27659H11.5315C11.6809 1.27659 11.7556 1.35588 11.7556 1.51446V15.4935C11.7556 15.6468 11.6809 15.7234 11.5315 15.7234H1.46849C1.31906 15.7234 1.24435 15.6468 1.24435 15.4935ZM2.07907 14.4072C2.07907 14.7191 2.2285 14.875 2.52735 14.875H10.4727C10.7715 14.875 10.9209 14.7191 10.9209 14.4072V2.60075C10.9209 2.28887 10.7715 2.13293 10.4727 2.13293H2.52735C2.2285 2.13293 2.07907 2.28887 2.07907 2.60075V14.4072ZM2.85969 13.8918V3.11614C2.85969 2.99456 2.91637 2.93377 3.02973 2.93377H9.97027C10.0836 2.93377 10.1403 2.99456 10.1403 3.11614V13.8918C10.1403 14.0134 10.0836 14.0742 9.97027 14.0742H3.02973C2.91637 14.0742 2.85969 14.0134 2.85969 13.8918ZM2.82878 14.431H10.1558C10.3155 14.431 10.4314 14.3834 10.5036 14.2882C10.5809 14.1931 10.6195 14.0715 10.6195 13.9235C10.6195 13.7438 10.5654 13.5191 10.4572 13.2495C10.3541 12.9747 10.1944 12.6919 9.978 12.4011C9.76159 12.1051 9.48851 11.8276 9.15874 11.5686C8.82897 11.3043 8.44253 11.0928 7.99941 10.9342C7.55628 10.7704 7.0539 10.6884 6.49227 10.6884C5.93064 10.6884 5.42826 10.7704 4.98514 10.9342C4.54201 11.0928 4.15557 11.3043 3.8258 11.5686C3.49604 11.8276 3.22295 12.1051 3.00654 12.4011C2.79013 12.6919 2.62782 12.9747 2.51962 13.2495C2.41657 13.5191 2.36504 13.7438 2.36504 13.9235C2.36504 14.0715 2.40369 14.1931 2.48098 14.2882C2.55826 14.3834 2.6742 14.431 2.82878 14.431ZM6.49227 10.0145C6.87356 10.0197 7.21879 9.92195 7.52794 9.72108C7.84225 9.52021 8.08958 9.24534 8.26992 8.89645C8.45541 8.54757 8.54816 8.15376 8.54816 7.71502C8.54816 7.30271 8.45541 6.92739 8.26992 6.58909C8.08958 6.24549 7.84225 5.97062 7.52794 5.76446C7.21879 5.5583 6.87356 5.45522 6.49227 5.45522C6.11098 5.45522 5.76576 5.5583 5.4566 5.76446C5.14744 5.97062 4.90012 6.24549 4.71463 6.58909C4.52913 6.92739 4.43639 7.30271 4.43639 7.71502C4.43639 8.15376 4.52913 8.54757 4.71463 8.89645C4.90012 9.24005 5.14744 9.51228 5.4566 9.71315C5.76576 9.91402 6.11098 10.0145 6.49227 10.0145Z"
		fill="currentColor"
	/>
</svg>
