<svg
	color="rgb(var(--foreground, 0, 0, 0))"
	viewBox="0 0 18 15"
	fill="none"
	xmlns="http://www.w3.org/2000/svg"
>
	<path
		d="M0.610687 0.5C0.427481 0.5 0.279898 0.555767 0.167939 0.6673C0.0559796 0.778834 0 0.925856 0 1.10836V13.8992C0 14.0817 0.0559796 14.2262 0.167939 14.3327C0.279898 14.4442 0.427481 14.5 0.610687 14.5H17.3969C17.5802 14.5 17.7252 14.4442 17.8321 14.3327C17.944 14.2262 18 14.0817 18 13.8992V1.10836C18 0.925856 17.944 0.778834 17.8321 0.6673C17.7252 0.555767 17.5802 0.5 17.3969 0.5H0.610687ZM1.45038 1.72433H16.5496C16.6972 1.72433 16.771 1.79785 16.771 1.94487V13.0551C16.771 13.2022 16.6972 13.2757 16.5496 13.2757H1.45038C1.3028 13.2757 1.22901 13.2022 1.22901 13.0551V1.94487C1.22901 1.79785 1.3028 1.72433 1.45038 1.72433ZM2.50382 2.54563C2.20356 2.54563 2.05344 2.69265 2.05344 2.98669V12.0209C2.05344 12.315 2.20356 12.462 2.50382 12.462H15.5038C15.8041 12.462 15.9542 12.315 15.9542 12.0209V2.98669C15.9542 2.69265 15.8041 2.54563 15.5038 2.54563H2.50382ZM2.99237 3.31369H15.0076C15.1247 3.31369 15.1832 3.37199 15.1832 3.48859V11.519C15.1832 11.6356 15.1247 11.6939 15.0076 11.6939H2.99237C2.88041 11.6939 2.82443 11.6356 2.82443 11.519V3.48859C2.82443 3.37199 2.88041 3.31369 2.99237 3.31369ZM15.374 10.6749L11.8473 7.38973C11.715 7.26299 11.5725 7.17174 11.4198 7.11597C11.2723 7.05513 11.117 7.02471 10.9542 7.02471C10.7863 7.02471 10.626 7.0526 10.4733 7.10837C10.3257 7.15906 10.1858 7.24778 10.0534 7.37452L7.35878 9.77757L6.25954 8.78137C6.1374 8.66477 6.00763 8.58111 5.87023 8.53042C5.73282 8.47465 5.59288 8.44677 5.45038 8.44677C5.31807 8.44677 5.1883 8.47465 5.06107 8.53042C4.93893 8.58111 4.81425 8.66223 4.68702 8.77376L2.41985 10.8194V11.4278C2.41985 11.6711 2.48092 11.8485 2.60305 11.9601C2.73028 12.0665 2.89567 12.1198 3.09924 12.1198H14.687C14.8906 12.1198 15.056 12.0665 15.1832 11.9601C15.3104 11.8485 15.374 11.6711 15.374 11.4278V10.6749ZM6.38931 7.44297C6.77608 7.44297 7.10687 7.30608 7.38168 7.03232C7.65649 6.75349 7.79389 6.42395 7.79389 6.04373C7.79389 5.65843 7.65649 5.3289 7.38168 5.05513C7.10687 4.78137 6.77608 4.64449 6.38931 4.64449C6.00254 4.64449 5.67176 4.78137 5.39695 5.05513C5.12214 5.3289 4.98473 5.65843 4.98473 6.04373C4.98473 6.42395 5.12214 6.75349 5.39695 7.03232C5.67176 7.30608 6.00254 7.44297 6.38931 7.44297Z"
		fill="currentColor"
	/>
</svg>
