<svg
	color="rgb(var(--foreground, 0, 0, 0))"
	viewBox="0 0 20 17"
	fill="none"
	xmlns="http://www.w3.org/2000/svg"
>
	<path
		d="M9.70257 10.2137C9.23098 10.2137 8.82905 10.0479 8.49678 9.71619C8.16452 9.3845 7.99839 8.987 7.99839 8.52369C7.99839 8.07091 8.16452 7.67868 8.49678 7.34699C8.82905 7.0153 9.23098 6.84946 9.70257 6.84946C10.0134 6.84946 10.2974 6.9258 10.5547 7.07848C10.8119 7.23116 11.0155 7.43649 11.1656 7.69447C11.321 7.94719 11.3987 8.22359 11.3987 8.52369C11.3987 8.987 11.2326 9.3845 10.9003 9.71619C10.5681 10.0479 10.1688 10.2137 9.70257 10.2137ZM6.51125 15.2285C6.10932 15.2285 5.80118 15.1232 5.58682 14.9126C5.37245 14.7073 5.26527 14.3993 5.26527 13.9886V13.27L7.08199 11.6984C7.23741 11.5721 7.39014 11.4773 7.54019 11.4141C7.69561 11.3457 7.85102 11.3115 8.00643 11.3115C8.17792 11.3115 8.34405 11.343 8.50482 11.4062C8.67095 11.4694 8.83173 11.5721 8.98714 11.7142L10.2814 12.8593L13.5289 10.0321C13.6951 9.88467 13.8666 9.77937 14.0434 9.71619C14.2203 9.64775 14.4105 9.61352 14.6141 9.61352C14.8071 9.61352 14.9973 9.65038 15.1849 9.72409C15.3725 9.79253 15.5439 9.89783 15.6994 10.04L18.7058 12.8277V13.9886C18.7058 14.3993 18.5959 14.7073 18.3762 14.9126C18.1565 15.1232 17.8483 15.2285 17.4518 15.2285H6.51125ZM6.49518 16.5H17.4759C18.3119 16.5 18.9416 16.2947 19.365 15.884C19.7883 15.4786 20 14.8679 20 14.0518V6.60464C20 5.79385 19.7883 5.18312 19.365 4.77246C18.9416 4.3618 18.3119 4.15647 17.4759 4.15647H6.49518C5.6538 4.15647 5.02144 4.3618 4.59807 4.77246C4.18006 5.17785 3.97106 5.78858 3.97106 6.60464V14.0518C3.97106 14.8679 4.18006 15.4786 4.59807 15.884C5.02144 16.2947 5.6538 16.5 6.49518 16.5ZM6.49518 3.08243H15.9405V2.94817C15.9405 2.13738 15.7288 1.52665 15.3055 1.11599C14.8821 0.705331 14.2524 0.5 13.4164 0.5H2.52412C1.68274 0.5 1.05038 0.705331 0.62701 1.11599C0.209003 1.52139 0 2.13212 0 2.94817V10.3954C0 11.2114 0.209003 11.8248 0.62701 12.2354C1.05038 12.6408 1.68274 12.8435 2.52412 12.8435H2.86977V6.60464C2.86977 5.86229 3.01179 5.22787 3.29582 4.70138C3.58521 4.17489 3.99786 3.77476 4.53376 3.50099C5.07503 3.22195 5.72883 3.08243 6.49518 3.08243Z"
		fill="currentColor"
	/>
</svg>
