<svg
	color="rgb(var(--foreground, 0, 0, 0))"
	viewBox="0 0 20 17"
	fill="none"
	xmlns="http://www.w3.org/2000/svg"
>
	<path
		d="M6.51929 16.0814H17.283C17.985 16.0814 18.5182 15.9077 18.8826 15.5602C19.2471 15.2127 19.4293 14.6941 19.4293 14.0044V13.499L15.6994 10.04C15.5439 9.89783 15.3725 9.79253 15.1849 9.72409C14.9973 9.65038 14.8071 9.61352 14.6141 9.61352C14.4105 9.61352 14.2203 9.64775 14.0434 9.71619C13.8666 9.77937 13.6951 9.88467 13.5289 10.0321L10.2814 12.8593L8.98714 11.7142C8.83173 11.5721 8.67095 11.4694 8.50482 11.4062C8.34405 11.343 8.17792 11.3115 8.00643 11.3115C7.85102 11.3115 7.69561 11.3457 7.54019 11.4141C7.39014 11.4773 7.23741 11.5721 7.08199 11.6984L4.37299 14.0123C4.37299 14.6968 4.5552 15.2127 4.91961 15.5602C5.28403 15.9077 5.81726 16.0814 6.51929 16.0814ZM9.70257 10.2137C10.1688 10.2137 10.5681 10.0479 10.9003 9.71619C11.2326 9.3845 11.3987 8.987 11.3987 8.52369C11.3987 8.22359 11.321 7.94719 11.1656 7.69447C11.0155 7.43649 10.8119 7.23116 10.5547 7.07848C10.2974 6.9258 10.0134 6.84946 9.70257 6.84946C9.23098 6.84946 8.82905 7.0153 8.49678 7.34699C8.16452 7.67868 7.99839 8.07091 7.99839 8.52369C7.99839 8.987 8.16452 9.3845 8.49678 9.71619C8.82905 10.0479 9.23098 10.2137 9.70257 10.2137ZM2.52412 12.8435H4.51768V11.5721H2.54019C2.13826 11.5721 1.83012 11.4694 1.61576 11.2641C1.40139 11.0535 1.29421 10.7428 1.29421 10.3322V3.01925C1.29421 2.60859 1.40139 2.29796 1.61576 2.08736C1.83012 1.87677 2.13826 1.77147 2.54019 1.77147H13.3923C13.7889 1.77147 14.097 1.87677 14.3167 2.08736C14.5364 2.29796 14.6463 2.60859 14.6463 3.01925V4.66979H15.9405V2.94817C15.9405 2.13738 15.7288 1.52665 15.3055 1.11599C14.8821 0.705331 14.2524 0.5 13.4164 0.5H2.52412C1.68274 0.5 1.05038 0.705331 0.62701 1.11599C0.209003 1.52139 0 2.13212 0 2.94817V10.3954C0 11.2114 0.209003 11.8248 0.62701 12.2354C1.05038 12.6408 1.68274 12.8435 2.52412 12.8435ZM6.49518 16.5H17.4759C18.3119 16.5 18.9416 16.2947 19.365 15.884C19.7883 15.4786 20 14.8679 20 14.0518V6.60464C20 5.79385 19.7883 5.18312 19.365 4.77246C18.9416 4.3618 18.3119 4.15647 17.4759 4.15647H6.49518C5.6538 4.15647 5.02144 4.3618 4.59807 4.77246C4.18006 5.17785 3.97106 5.78858 3.97106 6.60464V14.0518C3.97106 14.8679 4.18006 15.4786 4.59807 15.884C5.02144 16.2947 5.6538 16.5 6.49518 16.5ZM6.51125 15.2285C6.10932 15.2285 5.80118 15.1232 5.58682 14.9126C5.37245 14.7073 5.26527 14.3993 5.26527 13.9886V6.67572C5.26527 6.26505 5.37245 5.95443 5.58682 5.74383C5.80118 5.53323 6.10932 5.42794 6.51125 5.42794H17.4518C17.8483 5.42794 18.1565 5.53323 18.3762 5.74383C18.5959 5.95443 18.7058 6.26505 18.7058 6.67572V13.9886C18.7058 14.3993 18.5959 14.7073 18.3762 14.9126C18.1565 15.1232 17.8483 15.2285 17.4518 15.2285H6.51125Z"
		fill="currentColor"
	/>
</svg>
