<svg
	color="rgb(var(--foreground, 0, 0, 0))"
	viewBox="0 0 15 15"
	fill="none"
	xmlns="http://www.w3.org/2000/svg"
>
	<path
		d="M2.55839 15H12.4416C13.2944 15 13.9326 14.7882 14.3563 14.3645C14.7854 13.9462 15 13.3161 15 12.4742V2.5258C15 1.68387 14.7854 1.05378 14.3563 0.635524C13.9326 0.211841 13.2944 0 12.4416 0H2.55839C1.70559 0 1.06464 0.211841 0.635524 0.635524C0.211841 1.05378 0 1.68387 0 2.5258V12.4742C0 13.3161 0.211841 13.9462 0.635524 14.3645C1.06464 14.7882 1.70559 15 2.55839 15ZM2.01249 13.7778C2.17002 13.2618 2.41716 12.7865 2.75394 12.352C3.09614 11.9174 3.50896 11.5426 3.9924 11.2276C4.47583 10.9071 5.01358 10.66 5.60565 10.4861C6.20315 10.3069 6.83596 10.2173 7.50407 10.2173C8.17219 10.2173 8.80228 10.3069 9.39435 10.4861C9.99185 10.66 10.5323 10.9071 11.0158 11.2276C11.5046 11.5426 11.9174 11.9174 12.2542 12.352C12.5964 12.7865 12.8436 13.2618 12.9957 13.7778H2.01249ZM7.50407 8.8566C6.98262 8.85117 6.51276 8.71537 6.09451 8.44921C5.67626 8.18305 5.34221 7.82184 5.09234 7.36556C4.84791 6.90386 4.72298 6.3824 4.71754 5.80119C4.71754 5.25801 4.83976 4.761 5.08419 4.31016C5.33406 3.85388 5.66812 3.48995 6.08637 3.21836C6.51005 2.94677 6.98262 2.81097 7.50407 2.81097C8.0201 2.81097 8.48723 2.94677 8.90549 3.21836C9.32917 3.48995 9.66594 3.85388 9.91581 4.31016C10.1657 4.761 10.2906 5.25801 10.2906 5.80119C10.2906 6.3824 10.1657 6.90657 9.91581 7.37371C9.66594 7.83542 9.32917 8.19935 8.90549 8.46551C8.48723 8.73167 8.0201 8.86203 7.50407 8.8566Z"
		fill="currentColor"
	/>
</svg>
