<svg
	color="rgb(var(--foreground, 0, 0, 0))"
	viewBox="0 0 15 15"
	fill="none"
	xmlns="http://www.w3.org/2000/svg"
>
	<path
		d="M2.55841 15H12.4416C13.2944 15 13.9326 14.7882 14.3563 14.3645C14.7854 13.9462 15 13.3161 15 12.4742V2.5258C15 1.68387 14.7854 1.05378 14.3563 0.635524C13.9326 0.211841 13.2944 0 12.4416 0H2.55841C1.70561 0 1.06464 0.211841 0.635523 0.635524C0.211841 1.05378 0 1.68387 0 2.5258V12.4742C0 13.3161 0.211841 13.9462 0.635523 14.3645C1.06464 14.7882 1.70561 15 2.55841 15ZM2.5747 13.6882C2.16731 13.6882 1.85497 13.5823 1.6377 13.3705C1.42042 13.1532 1.31179 12.8327 1.31179 12.409V2.59098C1.31179 2.1673 1.42042 1.84954 1.6377 1.6377C1.85497 1.42042 2.16731 1.31179 2.5747 1.31179H12.4253C12.8273 1.31179 13.1369 1.42042 13.3542 1.6377C13.5769 1.84954 13.6882 2.1673 13.6882 2.59098V12.409C13.6882 12.8327 13.5769 13.1532 13.3542 13.3705C13.1369 13.5823 12.8273 13.6882 12.4253 13.6882H2.5747ZM1.89842 14.1689H13.1097C12.9902 13.5986 12.7648 13.0717 12.4335 12.5883C12.1021 12.1048 11.6866 11.6866 11.1869 11.3335C10.6926 10.9804 10.1331 10.7061 9.50842 10.5106C8.88377 10.315 8.21565 10.2173 7.50408 10.2173C6.79794 10.2173 6.13255 10.315 5.50789 10.5106C4.88323 10.7061 4.32103 10.9804 3.8213 11.3335C3.32158 11.6866 2.90604 12.1048 2.5747 12.5883C2.24336 13.0717 2.01792 13.5986 1.89842 14.1689ZM7.50408 8.8566C8.0201 8.86203 8.48724 8.73167 8.90549 8.46551C9.32917 8.19935 9.66595 7.83542 9.91581 7.37371C10.1657 6.90657 10.2906 6.3824 10.2906 5.80119C10.2906 5.25801 10.1657 4.761 9.91581 4.31016C9.66595 3.85388 9.32917 3.48995 8.90549 3.21836C8.48724 2.94677 8.0201 2.81097 7.50408 2.81097C6.98263 2.81097 6.51006 2.94677 6.08638 3.21836C5.66813 3.48995 5.33407 3.85388 5.0842 4.31016C4.83977 4.761 4.71756 5.25801 4.71756 5.80119C4.72299 6.3824 4.84792 6.90386 5.09235 7.36556C5.34222 7.82184 5.67627 8.18305 6.09452 8.44921C6.51277 8.71537 6.98263 8.85117 7.50408 8.8566Z"
		fill="currentColor"
	/>
</svg>
