<svg
	color="rgb(var(--foreground, 0, 0, 0))"
	viewBox="0 0 19 13"
	fill="none"
	xmlns="http://www.w3.org/2000/svg"
>
	<path
		d="M0 9.96592C0 10.1412 0.0358506 10.2863 0.107559 10.4015C0.179267 10.5117 0.291941 10.6018 0.445601 10.6719C0.875852 10.8771 1.22668 11.12 1.49814 11.4003C1.77473 11.6757 2.04361 12.0687 2.30483 12.5794C2.46874 12.8598 2.70689 13 3.01933 13H15.9807C16.2931 13 16.5287 12.8598 16.6875 12.5794C16.9538 12.0687 17.2227 11.6757 17.4942 11.4003C17.7708 11.12 18.1241 10.8771 18.5544 10.6719C18.7081 10.6018 18.8207 10.5117 18.8924 10.4015C18.9641 10.2863 19 10.1412 19 9.96592V3.04159C19 2.86636 18.9641 2.72367 18.8924 2.61352C18.8207 2.49836 18.7081 2.40574 18.5544 2.33564C18.1241 2.12536 17.7708 1.88253 17.4942 1.60716C17.2227 1.32679 16.9538 0.933757 16.6875 0.428076C16.5287 0.142692 16.2931 0 15.9807 0H3.01933C2.70689 0 2.46874 0.142692 2.30483 0.428076C2.04361 0.933757 1.77473 1.32679 1.49814 1.60716C1.22668 1.88253 0.875852 2.12536 0.445601 2.33564C0.291941 2.40574 0.179267 2.49836 0.107559 2.61352C0.0358506 2.72367 0 2.86636 0 3.04159V9.96592ZM3.15762 9.92837V3.07915C3.15762 2.87387 3.22164 2.70865 3.34969 2.58348C3.47774 2.45831 3.64675 2.39573 3.85676 2.39573H15.1356C15.3456 2.39573 15.5146 2.45831 15.6426 2.58348C15.7707 2.70865 15.8347 2.87387 15.8347 3.07915V9.92837C15.8347 10.1386 15.7707 10.3064 15.6426 10.4315C15.5146 10.5517 15.3456 10.6118 15.1356 10.6118H3.85676C3.64675 10.6118 3.47774 10.5517 3.34969 10.4315C3.22164 10.3064 3.15762 10.1386 3.15762 9.92837ZM4.13334 4.829H5.16283V3.33449H4.30236C4.18967 3.33449 4.13334 3.39207 4.13334 3.50722V4.829ZM4.13334 7.24726H5.16283V5.76777H4.13334V7.24726ZM4.13334 9.50029C4.13334 9.61545 4.18967 9.67302 4.30236 9.67302H5.16283V8.18602H4.13334V9.50029ZM13.8372 4.829H14.8667V3.50722C14.8667 3.39207 14.8103 3.33449 14.6976 3.33449H13.8372V4.829ZM13.8372 7.24726H14.8667V5.76777H13.8372V7.24726ZM13.8372 9.67302H14.6976C14.8103 9.67302 14.8667 9.61545 14.8667 9.50029V8.18602H13.8372V9.67302ZM6.1311 9.67302H12.8689V3.33449H6.1311V9.67302Z"
		fill="currentColor"
	/>
</svg>
