<svg color="rgb(var(--foreground, 0, 0, 0))" viewBox="0 0 20 16" fill="none">
	<path
		d="M2.01966 7.65491C2.38873 7.65491 2.72658 7.56544 3.03327 7.3865C3.33996 7.20757 3.58165 6.96728 3.75839 6.66564C3.94033 6.36401 4.03129 6.02914 4.03129 5.66104C4.03129 5.30317 3.94033 4.97597 3.75839 4.67945C3.58165 4.37781 3.33996 4.13752 3.03327 3.95859C2.72658 3.77454 2.38873 3.68252 2.01966 3.68252C1.65059 3.68252 1.3125 3.77198 1.00581 3.95092C0.699119 4.12986 0.45483 4.37014 0.272895 4.67178C0.0909587 4.9683 0 5.29806 0 5.66104C0 6.02914 0.0909587 6.36401 0.272895 6.66564C0.45483 6.96728 0.699119 7.20757 1.00581 7.3865C1.3125 7.56544 1.65059 7.65491 2.01966 7.65491ZM2.01966 6.45859C1.80134 6.45859 1.61163 6.3819 1.45048 6.22853C1.29454 6.07004 1.21633 5.88088 1.21633 5.66104C1.21633 5.44632 1.29454 5.26227 1.45048 5.1089C1.61163 4.95552 1.80134 4.87883 2.01966 4.87883C2.23799 4.87883 2.4251 4.95808 2.58105 5.11656C2.73699 5.26994 2.81496 5.45143 2.81496 5.66104C2.81496 5.88088 2.73699 6.07004 2.58105 6.22853C2.4303 6.3819 2.24318 6.45859 2.01966 6.45859ZM10.004 4.46472C10.3731 4.46472 10.7083 4.37526 11.0098 4.19632C11.3165 4.01738 11.5608 3.77965 11.7427 3.48313C11.9247 3.18149 12.0156 2.84663 12.0156 2.47853C12.0156 2.11554 11.9247 1.78579 11.7427 1.48926C11.5608 1.18763 11.3165 0.947341 11.0098 0.768405C10.7083 0.589468 10.3731 0.5 10.004 0.5C9.62975 0.5 9.28931 0.589468 8.98262 0.768405C8.67592 0.947341 8.43139 1.18763 8.24945 1.48926C8.07272 1.78579 7.98436 2.11554 7.98436 2.47853C7.98436 2.84663 8.07532 3.18149 8.25725 3.48313C8.43919 3.77965 8.68372 4.01738 8.99041 4.19632C9.2971 4.37526 9.63495 4.46472 10.004 4.46472ZM10.004 3.2684C9.7857 3.2684 9.59598 3.19172 9.43484 3.03834C9.2789 2.87986 9.20093 2.69325 9.20093 2.47853C9.20093 2.25869 9.2789 2.07464 9.43484 1.92638C9.59598 1.77301 9.7857 1.69632 10.004 1.69632C10.2171 1.69632 10.4017 1.77556 10.5576 1.93405C10.7188 2.08742 10.7993 2.26892 10.7993 2.47853C10.7993 2.69325 10.7213 2.87986 10.5654 3.03834C10.4147 3.19172 10.2275 3.2684 10.004 3.2684ZM17.9806 7.65491C18.3497 7.65491 18.6875 7.56544 18.9942 7.3865C19.3009 7.20757 19.5452 6.96728 19.7271 6.66564C19.909 6.36401 20 6.02914 20 5.66104C20 5.29806 19.909 4.9683 19.7271 4.67178C19.5452 4.37014 19.3009 4.12986 18.9942 3.95092C18.6875 3.77198 18.3497 3.68252 17.9806 3.68252C17.6115 3.68252 17.2737 3.77454 16.967 3.95859C16.6603 4.13752 16.416 4.37781 16.2341 4.67945C16.0573 4.97597 15.969 5.30317 15.969 5.66104C15.969 6.02914 16.0573 6.36401 16.2341 6.66564C16.416 6.96728 16.6603 7.20757 16.967 7.3865C17.2737 7.56544 17.6115 7.65491 17.9806 7.65491ZM17.9806 6.45859C17.7571 6.45859 17.5673 6.3819 17.4114 6.22853C17.2607 6.07004 17.1853 5.88088 17.1853 5.66104C17.1853 5.45143 17.2633 5.26994 17.4192 5.11656C17.5751 4.95808 17.7623 4.87883 17.9806 4.87883C18.1989 4.87883 18.386 4.95552 18.542 5.1089C18.7031 5.26227 18.7837 5.44632 18.7837 5.66104C18.7837 5.88088 18.7031 6.07004 18.542 6.22853C18.386 6.3819 18.1989 6.45859 17.9806 6.45859ZM2.9475 7.14877L5.41915 8.64417C5.66866 8.79755 5.97272 8.8589 6.3314 8.82822C6.69007 8.79755 6.99933 8.6135 7.25924 8.27607L10.2067 4.38804L9.09177 3.92024L6.40157 7.47086C6.32879 7.56799 6.25083 7.62679 6.16766 7.64724C6.08449 7.66258 5.97794 7.62934 5.84798 7.54755L3.57126 6.16718L2.9475 7.14877ZM17.0527 7.1411L16.429 6.15951L14.1676 7.52454C14.0273 7.61145 13.9129 7.64468 13.8245 7.62423C13.7362 7.60378 13.653 7.54243 13.575 7.44018L10.9085 3.90491L9.8013 4.38037L12.7564 8.28374C13.0059 8.61605 13.3073 8.79755 13.6608 8.82822C14.0143 8.8589 14.3028 8.80521 14.5263 8.66718L17.0527 7.1411ZM3.92992 12.7699H16.0781V11.612H3.92992V12.7699ZM1.98068 7.31748L3.57126 13.6902C3.72201 14.2935 3.9689 14.7459 4.31198 15.0475C4.66025 15.3492 5.15663 15.5 5.8012 15.5H14.1988C14.8434 15.5 15.3397 15.3492 15.688 15.0475C16.0363 14.7459 16.286 14.2935 16.4368 13.6902L18.0274 7.31748L16.928 6.82669L15.267 13.5445C15.1318 14.0762 14.781 14.342 14.2144 14.342H5.7934C5.22161 14.342 4.87077 14.0762 4.74081 13.5445L3.07226 6.82669L1.98068 7.31748Z"
		fill="currentColor"
	/>
</svg>
