<svg color="rgb(var(--foreground, 0, 0, 0))" viewBox="0 0 20 16" fill="none">
	<path
		d="M3.33715 12.7699L3.57106 13.6902C3.72181 14.2883 3.9687 14.7382 4.31179 15.0399C4.66007 15.3466 5.15645 15.5 5.80103 15.5H14.199C14.8436 15.5 15.3399 15.3492 15.6882 15.0475C16.0365 14.7459 16.286 14.2935 16.4367 13.6902L16.6706 12.7699H3.33715ZM3.07985 11.7193H16.9357L18.4016 5.81442L17.7622 5.45399L14.1678 8.03067C14.0378 8.1227 13.9232 8.15849 13.8245 8.13804C13.7309 8.11247 13.6477 8.04601 13.575 7.93865L10.191 2.90798L9.81677 2.89264L6.4014 7.96166C6.33383 8.05879 6.25586 8.12014 6.16749 8.1457C6.08432 8.16615 5.97777 8.13037 5.84781 8.03834L2.32353 5.50767L1.57501 5.69939L3.07985 11.7193ZM1.8635 7.34816C2.20659 7.34816 2.51845 7.26636 2.79915 7.10276C3.07986 6.93405 3.30336 6.71166 3.4697 6.43558C3.63604 6.15951 3.71921 5.8502 3.71921 5.50767C3.71921 5.17536 3.63604 4.87116 3.4697 4.59509C3.30336 4.31902 3.07986 4.09918 2.79915 3.93558C2.51845 3.76687 2.20659 3.68251 1.8635 3.68251C1.52042 3.68251 1.20596 3.76687 0.920056 3.93558C0.639351 4.09918 0.41585 4.31902 0.249507 4.59509C0.0831632 4.87116 0 5.17536 0 5.50767C0 5.8502 0.0831632 6.15951 0.249507 6.43558C0.421048 6.71166 0.647148 6.93405 0.927853 7.10276C1.21376 7.26636 1.52562 7.34816 1.8635 7.34816ZM10.0039 4.15798C10.3418 4.15798 10.651 4.07618 10.9318 3.91258C11.2177 3.74898 11.4438 3.52914 11.6101 3.25307C11.7764 2.97188 11.8596 2.66258 11.8596 2.32515C11.8596 1.99284 11.7764 1.68865 11.6101 1.41258C11.4438 1.1365 11.2177 0.916667 10.9318 0.753067C10.651 0.584356 10.3418 0.5 10.0039 0.5C9.66082 0.5 9.34635 0.5818 9.06045 0.745399C8.77975 0.908998 8.55625 1.12883 8.3899 1.40491C8.22356 1.68098 8.1404 1.98773 8.1404 2.32515C8.1404 2.66258 8.22356 2.97188 8.3899 3.25307C8.55625 3.52914 8.77975 3.74898 9.06045 3.91258C9.34635 4.07618 9.66082 4.15798 10.0039 4.15798ZM18.1365 7.34816C18.4744 7.34816 18.7836 7.26636 19.0644 7.10276C19.3503 6.93405 19.5764 6.71166 19.7427 6.43558C19.9142 6.15951 20 5.8502 20 5.50767C20 5.17536 19.9168 4.87116 19.7505 4.59509C19.5842 4.31902 19.358 4.09918 19.0721 3.93558C18.7914 3.76687 18.4796 3.68251 18.1365 3.68251C17.7934 3.68251 17.4816 3.76687 17.2008 3.93558C16.9201 4.09918 16.6966 4.31902 16.5303 4.59509C16.364 4.87116 16.2808 5.17536 16.2808 5.50767C16.2808 5.8502 16.364 6.15951 16.5303 6.43558C16.6966 6.71166 16.9201 6.93405 17.2008 7.10276C17.4816 7.26636 17.7934 7.34816 18.1365 7.34816Z"
		fill="currentColor"
	/>
</svg>
