<svg color="rgb(var(--foreground, 0, 0, 0))" viewBox="0 0 28 16" fill="none">
	<path
		d="M18.4282 15.1154L10.0107 0.735636C9.83304 0.431057 9.62404 0.227144 9.3837 0.123897C9.14335 0.0206494 8.8821 -0.0180682 8.59996 0.00774353C8.37006 0.0335553 8.10881 0.103247 7.81622 0.216819C7.52885 0.330391 7.24409 0.467193 6.96194 0.627226C6.4708 0.911156 6.04235 1.22348 5.67661 1.56419C5.31086 1.90491 4.9634 2.25337 4.63423 2.60957C4.31029 2.96577 3.96805 3.31423 3.60753 3.65495C3.24701 3.9905 2.82902 4.2925 2.35355 4.56094C1.94078 4.79841 1.56458 4.97651 1.22496 5.09525C0.885344 5.20882 0.629322 5.31206 0.456899 5.40499C0.253127 5.52372 0.114666 5.67601 0.041517 5.86186C-0.031632 6.04254 -0.00811982 6.23871 0.112054 6.45036L3.26269 11.8476C3.44034 12.1522 3.64933 12.3561 3.88968 12.4593C4.13525 12.5574 4.3965 12.5936 4.67342 12.5678C4.90854 12.5419 5.16979 12.4723 5.45716 12.3587C5.74976 12.2451 6.03451 12.1057 6.31144 11.9405C6.80258 11.6618 7.23102 11.352 7.59677 11.0113C7.96774 10.6706 8.3152 10.3221 8.63914 9.96593C8.96309 9.60456 9.30532 9.2561 9.66584 8.92055C10.0264 8.585 10.4445 8.28042 10.9199 8.00681C11.2387 7.82613 11.5365 7.68417 11.8134 7.58092C12.0903 7.47251 12.3202 7.38475 12.5031 7.31764L17.4015 15.7039C17.4851 15.8433 17.6026 15.9336 17.7542 15.9749C17.9109 16.0214 18.0624 16.0033 18.2087 15.9207C18.3446 15.8433 18.4334 15.7245 18.4752 15.5645C18.5222 15.4045 18.5066 15.2548 18.4282 15.1154ZM14.5408 6.62847L15.2227 7.79L15.497 7.31764C15.6799 7.38475 15.9098 7.47251 16.1867 7.58092C16.4636 7.68417 16.7614 7.82613 17.0801 8.00681C17.5556 8.28042 17.971 8.585 18.3263 8.92055C18.6868 9.2561 19.029 9.60456 19.353 9.96593C19.6822 10.3221 20.0296 10.6706 20.3954 11.0113C20.7611 11.352 21.1896 11.6618 21.6807 11.9405C21.9629 12.1057 22.2476 12.2451 22.535 12.3587C22.8276 12.4723 23.0888 12.5419 23.3187 12.5678C23.6009 12.5936 23.8621 12.5574 24.1025 12.4593C24.3481 12.3561 24.5571 12.1522 24.7295 11.8476L27.8879 6.45036C28.0081 6.23871 28.0316 6.04254 27.9585 5.86186C27.8853 5.67601 27.7469 5.52372 27.5431 5.40499C27.3707 5.31206 27.1147 5.20882 26.775 5.09525C26.4354 4.97651 26.0566 4.79841 25.6386 4.56094C25.1631 4.2925 24.7452 3.9905 24.3846 3.65495C24.0293 3.31423 23.6871 2.96577 23.3579 2.60957C23.034 2.25337 22.6891 1.90491 22.3234 1.56419C21.9577 1.22348 21.5292 0.911156 21.038 0.627226C20.7559 0.467193 20.4685 0.330391 20.1759 0.216819C19.8885 0.103247 19.6299 0.0335553 19.4 0.00774353C19.1179 -0.0180682 18.8566 0.0206494 18.6163 0.123897C18.3759 0.227144 18.1669 0.431057 17.9893 0.735636L14.5408 6.62847ZM16.1161 6.26452L19.0944 1.16927C19.2825 1.1796 19.4653 1.21573 19.643 1.27768C19.8258 1.33963 19.9878 1.40674 20.1289 1.47902C20.27 1.55129 20.3745 1.60549 20.4424 1.64163C20.9074 1.90491 21.315 2.20433 21.6651 2.53988C22.0151 2.87027 22.3521 3.21357 22.6761 3.56977C23 3.92597 23.3475 4.27701 23.7185 4.62289C24.0946 4.96877 24.5388 5.28883 25.0508 5.58309C25.2703 5.70698 25.5184 5.84121 25.7954 5.98575C26.0775 6.1303 26.3466 6.23871 26.6026 6.31098L23.6244 11.4062C23.4363 11.3959 23.2508 11.3598 23.0679 11.2978C22.8903 11.2359 22.7309 11.1713 22.5899 11.1042C22.4488 11.032 22.3443 10.9752 22.2764 10.9339C21.8114 10.6706 21.4038 10.3738 21.0537 10.0434C20.7036 9.70781 20.3666 9.36193 20.0427 9.00573C19.7187 8.64437 19.3687 8.29074 18.9925 7.94487C18.6215 7.59899 18.18 7.2815 17.6679 6.99241C17.4485 6.86852 17.1977 6.73429 16.9156 6.58975C16.6334 6.4452 16.3669 6.33679 16.1161 6.26452ZM13.4593 10.81L12.7696 9.6407L9.57179 15.1154C9.49342 15.2548 9.47513 15.4045 9.51693 15.5645C9.55873 15.7245 9.65017 15.8433 9.79124 15.9207C9.93754 16.0033 10.0864 16.0214 10.238 15.9749C10.3947 15.9336 10.5124 15.8433 10.5908 15.7039L13.4593 10.81Z"
		fill="currentColor"
	/>
</svg>
