<svg color="rgb(var(--foreground, 0, 0, 0))" viewBox="0 0 15 18" fill="none">
	<path
		d="M0.404539 16.9084C0.404539 17.0661 0.462708 17.2029 0.579046 17.3186C0.700672 17.4395 0.843451 17.5 1.00738 17.5C1.1766 17.5 1.31938 17.4422 1.43572 17.3265C1.55205 17.2108 1.61022 17.0714 1.61022 16.9084V12.5224C1.7107 12.4803 1.94073 12.4093 2.30032 12.3094C2.6652 12.2042 3.13848 12.1516 3.72017 12.1516C4.42349 12.1516 5.07128 12.2173 5.66355 12.3488C6.2611 12.4803 6.8375 12.6354 7.39275 12.8142C7.948 12.993 8.51118 13.1561 9.0823 13.3033C9.6587 13.4506 10.28 13.54 10.9463 13.5715L0.563182 3.2613C0.515589 3.33492 0.475928 3.41644 0.4442 3.50584C0.417759 3.59524 0.404539 3.69253 0.404539 3.79771V16.9084ZM3.74397 2.0228L14.2937 12.5066C14.3625 12.4119 14.4127 12.3068 14.4444 12.1911C14.4761 12.0701 14.492 11.9386 14.492 11.7966V3.78982C14.492 3.57421 14.4127 3.40855 14.254 3.29285C14.0954 3.17715 13.8997 3.1193 13.6671 3.1193C13.4714 3.1193 13.1779 3.17452 12.7866 3.28496C12.4006 3.3954 11.8665 3.45062 11.1843 3.45062C10.5021 3.45062 9.86229 3.38225 9.26474 3.24552C8.67247 3.10353 8.09078 2.9405 7.51967 2.75643C6.94855 2.56711 6.35629 2.40145 5.74287 2.25946C5.12945 2.11221 4.46315 2.03332 3.74397 2.0228ZM13.9606 15.236C14.0822 15.3517 14.2276 15.4096 14.3968 15.4096C14.566 15.4096 14.7088 15.3517 14.8252 15.236C14.9415 15.115 14.9997 14.9704 14.9997 14.8021C15.005 14.6339 14.9468 14.4919 14.8252 14.3762L1.04704 0.673875C0.925416 0.558178 0.779993 0.500329 0.610775 0.500329C0.441556 0.49507 0.296133 0.552919 0.174507 0.673875C0.058169 0.789573 0 0.934195 0 1.10774C0 1.27603 0.058169 1.41802 0.174507 1.53372L13.9606 15.236Z"
		fill="currentColor"
	/>
</svg>
