<svg color="rgb(var(--foreground, 0, 0, 0))" viewBox="0 0 14 16" fill="none">
	<path
		d="M0.599099 16C0.767267 16 0.909159 15.9402 1.02477 15.8206C1.14039 15.701 1.1982 15.5569 1.1982 15.3884V10.8542C1.29805 10.8107 1.52665 10.7373 1.88401 10.634C2.24662 10.5253 2.71697 10.4709 3.29505 10.4709C4.02553 10.4709 4.6982 10.5471 5.31306 10.6993C5.93318 10.8461 6.53228 11.0173 7.11036 11.213C7.68844 11.4033 8.27703 11.5746 8.87613 11.7268C9.47523 11.8736 10.1216 11.947 10.8153 11.947C11.2252 11.947 11.5616 11.9334 11.8243 11.9062C12.0871 11.8736 12.3157 11.8274 12.5101 11.7676C12.7046 11.7023 12.9017 11.6235 13.1014 11.5311C13.3746 11.406 13.5927 11.2321 13.7556 11.0092C13.9185 10.7808 14 10.4791 14 10.104V1.82671C14 1.60381 13.9212 1.43255 13.7635 1.31295C13.6059 1.19334 13.4114 1.13354 13.1802 1.13354C12.9857 1.13354 12.6941 1.19062 12.3052 1.30479C11.9215 1.41896 11.3908 1.47604 10.7128 1.47604C10.0191 1.47604 9.37275 1.40265 8.77365 1.25586C8.17455 1.10364 7.58596 0.929664 7.00788 0.733945C6.4298 0.538226 5.83071 0.366972 5.21059 0.220183C4.59572 0.0733945 3.92305 0 3.19257 0C2.78266 0 2.44369 0.0163099 2.17568 0.0489297C1.91291 0.0761128 1.68431 0.122324 1.48986 0.187564C1.29542 0.247367 1.09835 0.323479 0.898649 0.415902C0.630631 0.540945 0.412538 0.717635 0.244369 0.945973C0.0814565 1.16888 0 1.46517 0 1.83486V15.3884C0 15.5515 0.0578078 15.6928 0.173423 15.8124C0.294294 15.9375 0.436186 16 0.599099 16ZM10.8153 10.7156C10.1584 10.7156 9.53829 10.6422 8.95496 10.4954C8.37162 10.3432 7.78829 10.1719 7.20496 9.98165C6.62688 9.78593 6.0199 9.61468 5.38401 9.46789C4.74812 9.31566 4.0518 9.23955 3.29505 9.23955C2.86411 9.23955 2.46209 9.26673 2.08896 9.3211C1.71584 9.37003 1.41892 9.44071 1.1982 9.53313V1.87564C1.25075 1.73972 1.44257 1.59837 1.77365 1.45158C2.10473 1.30479 2.5777 1.2314 3.19257 1.2314C3.88626 1.2314 4.53266 1.30751 5.13176 1.45973C5.73611 1.60652 6.32733 1.77778 6.90541 1.9735C7.48874 2.16378 8.08784 2.33503 8.7027 2.48726C9.32282 2.63405 9.99287 2.70744 10.7128 2.70744C11.1438 2.70744 11.5353 2.68298 11.8874 2.63405C12.2395 2.58512 12.5469 2.5226 12.8097 2.44648V10.0714C12.7571 10.2073 12.5653 10.3486 12.2342 10.4954C11.9032 10.6422 11.4302 10.7156 10.8153 10.7156Z"
		fill="currentColor"
	/>
</svg>
