<svg color="rgb(var(--foreground, 0, 0, 0))" viewBox="0 0 28 16" fill="none">
	<path
		d="M18.428 15.1154L10.0107 0.735636C9.83305 0.431057 9.62405 0.227144 9.38371 0.123897C9.14336 0.0206494 8.88211 -0.0180682 8.59997 0.00774353C8.37007 0.0335553 8.10883 0.103247 7.81623 0.216819C7.52886 0.330391 7.24407 0.467193 6.96192 0.627226C6.47078 0.911156 6.04234 1.22348 5.67659 1.56419C5.31085 1.90491 4.96339 2.25337 4.63422 2.60957C4.31028 2.96577 3.96804 3.31423 3.60753 3.65495C3.24701 3.9905 2.82901 4.2925 2.35354 4.56094C1.94078 4.79841 1.56458 4.97651 1.22496 5.09525C0.885342 5.20882 0.629321 5.31206 0.456898 5.40499C0.253126 5.52372 0.114666 5.67601 0.0415169 5.86186C-0.031632 6.04254 -0.00811981 6.23871 0.112053 6.45036L3.26268 11.8476C3.44033 12.1522 3.64932 12.3561 3.88967 12.4593C4.13524 12.5574 4.39649 12.5936 4.67341 12.5678C4.90853 12.5419 5.16978 12.4723 5.45715 12.3587C5.74974 12.2451 6.0345 12.1057 6.31142 11.9405C6.80256 11.6618 7.23104 11.352 7.59678 11.0113C7.96775 10.6706 8.31521 10.3221 8.63915 9.96593C8.9631 9.60456 9.30533 9.2561 9.66585 8.92055C10.0264 8.585 10.4444 8.28042 10.9198 8.00681C11.2386 7.82613 11.5364 7.68417 11.8133 7.58092C12.0902 7.47251 12.3201 7.38475 12.503 7.31764L17.4013 15.7039C17.4849 15.8433 17.6025 15.9336 17.754 15.9749C17.9108 16.0214 18.0623 16.0033 18.2086 15.9207C18.3444 15.8433 18.4333 15.7245 18.4751 15.5645C18.5221 15.4045 18.5064 15.2548 18.428 15.1154ZM14.5407 6.62847L15.2226 7.79L15.4969 7.31764C15.6797 7.38475 15.9096 7.47251 16.1866 7.58092C16.4635 7.68417 16.7613 7.82613 17.08 8.00681C17.5555 8.28042 17.9709 8.585 18.3262 8.92055C18.6867 9.2561 19.0289 9.60456 19.3529 9.96593C19.682 10.3221 20.0295 10.6706 20.3952 11.0113C20.761 11.352 21.1894 11.6618 21.6806 11.9405C21.9627 12.1057 22.2475 12.2451 22.5348 12.3587C22.8274 12.4723 23.0887 12.5419 23.3186 12.5678C23.6007 12.5936 23.8621 12.5574 24.1024 12.4593C24.348 12.3561 24.557 12.1522 24.7294 11.8476L27.8879 6.45036C28.0081 6.23871 28.0316 6.04254 27.9585 5.86186C27.8853 5.67601 27.7469 5.52372 27.5431 5.40499C27.3707 5.31206 27.1147 5.20882 26.775 5.09525C26.4354 4.97651 26.0566 4.79841 25.6386 4.56094C25.1632 4.2925 24.7451 3.9905 24.3846 3.65495C24.0293 3.31423 23.6869 2.96577 23.3578 2.60957C23.0338 2.25337 22.689 1.90491 22.3232 1.56419C21.9575 1.22348 21.529 0.911156 21.0379 0.627226C20.7557 0.467193 20.4684 0.330391 20.1758 0.216819C19.8884 0.103247 19.6298 0.0335553 19.3999 0.00774353C19.1177 -0.0180682 18.8565 0.0206494 18.6161 0.123897C18.3758 0.227144 18.1668 0.431057 17.9892 0.735636L14.5407 6.62847ZM13.4591 10.81L12.7695 9.6407L9.5718 15.1154C9.49343 15.2548 9.47514 15.4045 9.51694 15.5645C9.55874 15.7245 9.65018 15.8433 9.79125 15.9207C9.93755 16.0033 10.0865 16.0214 10.238 15.9749C10.3947 15.9336 10.5123 15.8433 10.5907 15.7039L13.4591 10.81Z"
		fill="currentColor"
	/>
</svg>
