<svg color="rgb(var(--foreground, 0, 0, 0))" viewBox="0 0 28 16" fill="none">
	<path
		d="M18.2088 15.9207C18.3446 15.8433 18.4335 15.7245 18.4753 15.5645C18.5223 15.4045 18.5066 15.2548 18.4282 15.1154L10.0107 0.735636C9.83307 0.431057 9.62407 0.227144 9.38372 0.123897C9.14338 0.0206494 8.88213 -0.0180682 8.59998 0.00774353C8.37008 0.0335553 8.10884 0.103247 7.81624 0.216819C7.52887 0.330391 7.24411 0.467193 6.96196 0.627226C6.47082 0.911156 6.04237 1.22348 5.67662 1.56419C5.31088 1.90491 4.96342 2.25337 4.63425 2.60957C4.3103 2.96577 3.96807 3.31423 3.60754 3.65495C3.24702 3.9905 2.82903 4.2925 2.35356 4.56094C1.94079 4.79841 1.56459 4.97651 1.22497 5.09525C0.885346 5.20882 0.629324 5.31206 0.4569 5.40499C0.253128 5.52372 0.114666 5.67601 0.0415171 5.86186C-0.0316321 6.04254 -0.00811984 6.23871 0.112054 6.45036L3.2627 11.8476C3.44035 12.1522 3.64934 12.3561 3.88969 12.4593C4.13526 12.5574 4.39651 12.5936 4.67343 12.5678C4.90856 12.5419 5.1698 12.4723 5.45718 12.3587C5.74977 12.2451 6.03453 12.1057 6.31145 11.9405C6.8026 11.6618 7.23104 11.352 7.59679 11.0113C7.96776 10.6706 8.31522 10.3221 8.63917 9.96593C8.96311 9.60456 9.30535 9.25611 9.66587 8.92055C10.0264 8.585 10.4445 8.28042 10.92 8.00681C11.2387 7.82613 11.5365 7.68417 11.8134 7.58092C12.0904 7.47251 12.3203 7.38475 12.5031 7.31764L17.4015 15.7039C17.4851 15.8433 17.6027 15.9336 17.7542 15.9749C17.911 16.0214 18.0625 16.0033 18.2088 15.9207ZM4.30507 6.92272L3.37242 5.31981C3.73817 5.07718 4.06473 4.82164 4.3521 4.5532C4.63947 4.28476 4.91117 4.01373 5.16719 3.74013L6.08417 5.30432C5.81247 5.60374 5.53294 5.88767 5.24556 6.15611C4.96342 6.42455 4.64992 6.68009 4.30507 6.92272ZM7.84759 3.67044L6.91494 2.05204C7.01421 1.98493 7.1161 1.91782 7.22059 1.8507C7.33032 1.77843 7.44004 1.70874 7.54977 1.64163C7.61769 1.60549 7.72219 1.55129 7.86326 1.47902C8.00956 1.40674 8.17154 1.33963 8.34918 1.27768C8.53206 1.21573 8.71754 1.1796 8.90564 1.16927L9.89316 2.86511C9.75208 2.8393 9.55615 2.85736 9.30535 2.91931C9.05978 2.9761 8.7724 3.09741 8.44323 3.28326C8.35963 3.33488 8.26297 3.39683 8.15325 3.4691C8.04352 3.53621 7.94164 3.60332 7.84759 3.67044ZM3.37242 9.69491L2.30653 7.86743C2.46851 7.82613 2.68012 7.75386 2.94136 7.65061C3.20784 7.54736 3.49782 7.4054 3.81132 7.22472C3.89492 7.17826 3.9759 7.12921 4.05428 7.07759C4.13788 7.0208 4.22148 6.96918 4.30507 6.92272L5.37096 8.75019C5.29781 8.80182 5.22205 8.85086 5.14368 8.89732C5.0653 8.94378 4.97648 8.99541 4.87721 9.05219C4.58983 9.21739 4.32075 9.35419 4.06995 9.4626C3.81915 9.56585 3.58664 9.64328 3.37242 9.69491ZM7.1579 7.13954L6.08417 5.30432C6.37154 5.01523 6.64846 4.73388 6.91494 4.46028C7.18663 4.18151 7.49752 3.91823 7.84759 3.67044L8.92915 5.49017C8.57908 5.74828 8.27081 6.01156 8.00434 6.28001C7.74309 6.54329 7.46094 6.8298 7.1579 7.13954ZM6.38983 10.4925L5.37096 8.75019C5.71581 8.49724 6.02931 8.24428 6.31145 7.99133C6.5936 7.73321 6.87575 7.44928 7.1579 7.13954L8.12973 8.81214C7.85804 9.1064 7.58373 9.39807 7.30681 9.68716C7.02988 9.97625 6.72423 10.2447 6.38983 10.4925ZM9.94018 7.22472L8.92915 5.49017C9.0232 5.42306 9.11203 5.36369 9.19562 5.31206C9.27922 5.25528 9.38372 5.19075 9.50912 5.11848C9.84352 4.93263 10.1335 4.81132 10.3791 4.75453C10.6299 4.69258 10.8233 4.67193 10.9592 4.69258L11.884 6.26452C11.628 6.33679 11.3589 6.4452 11.0767 6.58975C10.7998 6.73429 10.5489 6.86852 10.3242 6.99241C10.2615 7.02855 10.1962 7.06727 10.1283 7.10856C10.0656 7.1447 10.0029 7.18342 9.94018 7.22472ZM14.5409 6.62847L15.2227 7.79L15.497 7.31764C15.6799 7.38475 15.9098 7.47251 16.1867 7.58092C16.4636 7.68417 16.7615 7.82613 17.0802 8.00681C17.5557 8.28042 17.971 8.585 18.3263 8.92055C18.6869 9.25611 19.0291 9.60456 19.353 9.96593C19.6822 10.3221 20.0296 10.6706 20.3954 11.0113C20.7611 11.352 21.1896 11.6618 21.6807 11.9405C21.9629 12.1057 22.2476 12.2451 22.535 12.3587C22.8276 12.4723 23.0888 12.5419 23.3187 12.5678C23.6009 12.5936 23.8621 12.5574 24.1025 12.4593C24.348 12.3561 24.557 12.1522 24.7295 11.8476L27.8879 6.45036C28.0081 6.23871 28.0316 6.04254 27.9585 5.86186C27.8853 5.67601 27.7469 5.52372 27.5431 5.40499C27.3707 5.31206 27.1147 5.20882 26.775 5.09525C26.4354 4.97651 26.0566 4.79841 25.6386 4.56094C25.1631 4.2925 24.7451 3.9905 24.3846 3.65495C24.0293 3.31423 23.6871 2.96577 23.3579 2.60957C23.034 2.25337 22.6891 1.90491 22.3234 1.56419C21.9577 1.22348 21.5292 0.911156 21.0381 0.627226C20.7559 0.467193 20.4686 0.330391 20.176 0.216819C19.8886 0.103247 19.63 0.0335553 19.4001 0.00774353C19.1179 -0.0180682 18.8567 0.0206494 18.6163 0.123897C18.376 0.227144 18.167 0.431057 17.9893 0.735636L14.5409 6.62847ZM18.1069 2.86511L19.0944 1.16927C19.2825 1.1796 19.4654 1.21573 19.643 1.27768C19.8259 1.33963 19.9879 1.40674 20.129 1.47902C20.27 1.55129 20.3745 1.60549 20.4424 1.64163C20.5574 1.70874 20.6671 1.77843 20.7716 1.8507C20.8813 1.91782 20.9832 1.98493 21.0772 2.05204L20.1446 3.67044C20.0506 3.60332 19.9487 3.53621 19.839 3.4691C19.7292 3.39683 19.6326 3.33488 19.549 3.28326C19.225 3.09741 18.9377 2.9761 18.6869 2.91931C18.4413 2.85736 18.248 2.8393 18.1069 2.86511ZM21.908 5.30432L22.8328 3.74013C23.0889 4.01373 23.3605 4.28476 23.6479 4.5532C23.9353 4.82164 24.2618 5.07718 24.6276 5.31981L23.6949 6.92272C23.3501 6.68009 23.034 6.42455 22.7466 6.15611C22.4645 5.88767 22.1849 5.60374 21.908 5.30432ZM19.0709 5.49017L20.1446 3.67044C20.4999 3.91823 20.8108 4.18151 21.0772 4.46028C21.3489 4.73388 21.6259 5.01523 21.908 5.30432L20.8421 7.13954C20.5391 6.8298 20.2543 6.54329 19.9879 6.28001C19.7266 6.01156 19.421 5.74828 19.0709 5.49017ZM22.6291 8.75019L23.6949 6.92272C23.7785 6.96918 23.8595 7.0208 23.9379 7.07759C24.0215 7.12921 24.1051 7.17826 24.1887 7.22472C24.5022 7.4054 24.7896 7.54736 25.0508 7.65061C25.3173 7.75386 25.5315 7.82613 25.6935 7.86743L24.6276 9.69491C24.4134 9.64328 24.1782 9.56585 23.9222 9.4626C23.6714 9.35419 23.405 9.21739 23.1228 9.05219C23.0235 8.99541 22.9347 8.94378 22.8563 8.89732C22.778 8.85086 22.7022 8.80182 22.6291 8.75019ZM16.1162 6.26452L17.041 4.69258C17.1769 4.67193 17.3676 4.69258 17.6131 4.75453C17.8639 4.81132 18.1539 4.93263 18.4831 5.11848C18.6137 5.19075 18.7182 5.25528 18.7966 5.31206C18.8802 5.36369 18.9716 5.42306 19.0709 5.49017L18.052 7.22472C17.9893 7.18342 17.9266 7.1447 17.8639 7.10856C17.8012 7.06727 17.7359 7.02855 17.668 6.99241C17.4486 6.86852 17.1978 6.73429 16.9156 6.58975C16.6335 6.4452 16.367 6.33679 16.1162 6.26452ZM19.8625 8.81214L20.8421 7.13954C21.1243 7.44928 21.4038 7.73321 21.6807 7.99133C21.9629 8.24428 22.279 8.49724 22.6291 8.75019L21.6102 10.4925C21.2758 10.2447 20.9701 9.97625 20.6932 9.68716C20.4163 9.39807 20.1394 9.1064 19.8625 8.81214ZM9.79127 15.9207C9.93757 16.0033 10.0865 16.0214 10.238 15.9749C10.3948 15.9336 10.5123 15.8433 10.5907 15.7039L13.4593 10.81L12.7696 9.6407L9.57182 15.1154C9.49345 15.2548 9.47516 15.4045 9.51696 15.5645C9.55876 15.7245 9.6502 15.8433 9.79127 15.9207Z"
		fill="currentColor"
	/>
</svg>
