<svg color="rgb(var(--foreground, 0, 0, 0))" viewBox="0 0 28 16" fill="none">
	<path
		d="M18.428 15.1154L10.0106 0.735636C9.83295 0.431057 9.62395 0.227144 9.3836 0.123897C9.14326 0.0206494 8.88201 -0.0180682 8.59986 0.00774353C8.36997 0.0335553 8.10875 0.103247 7.81615 0.216819C7.52878 0.330391 7.24402 0.467193 6.96188 0.627226C6.47073 0.911156 6.04229 1.22348 5.67655 1.56419C5.3108 1.90491 4.96334 2.25337 4.63417 2.60957C4.31023 2.96577 3.96799 3.31423 3.60747 3.65495C3.24695 3.9905 2.82902 4.2925 2.35355 4.56094C1.94078 4.79841 1.56458 4.97651 1.22496 5.09525C0.885344 5.20882 0.629322 5.31206 0.456899 5.40499C0.253127 5.52372 0.114666 5.67601 0.041517 5.86186C-0.031632 6.04254 -0.00811982 6.23871 0.112054 6.45036L3.26263 11.8476C3.44027 12.1522 3.64927 12.3561 3.88962 12.4593C4.13519 12.5574 4.39644 12.5936 4.67336 12.5678C4.90848 12.5419 5.16973 12.4723 5.4571 12.3587C5.74969 12.2451 6.03445 12.1057 6.31137 11.9405C6.80252 11.6618 7.23096 11.352 7.59671 11.0113C7.96768 10.6706 8.3151 10.3221 8.63905 9.96593C8.963 9.60456 9.30523 9.25611 9.66575 8.92055C10.0263 8.585 10.4443 8.28042 10.9197 8.00681C11.2385 7.82613 11.5363 7.68417 11.8132 7.58092C12.0901 7.47251 12.32 7.38475 12.5029 7.31764L17.4013 15.7039C17.4849 15.8433 17.6024 15.9336 17.7539 15.9749C17.9107 16.0214 18.0622 16.0033 18.2085 15.9207C18.3444 15.8433 18.4332 15.7245 18.475 15.5645C18.522 15.4045 18.5063 15.2548 18.428 15.1154ZM11.8837 6.26452C11.6277 6.33679 11.3586 6.4452 11.0765 6.58975C10.7996 6.73429 10.5488 6.86852 10.3241 6.99241C9.81727 7.2815 9.37577 7.59899 8.99957 7.94487C8.6286 8.29074 8.28117 8.64437 7.95723 9.00573C7.63328 9.36193 7.29627 9.70781 6.9462 10.0434C6.59613 10.3738 6.18859 10.6706 5.72357 10.9339C5.65565 10.9752 5.55115 11.032 5.41007 11.1042C5.269 11.1713 5.10703 11.2359 4.92415 11.2978C4.74651 11.3598 4.56363 11.3959 4.37554 11.4062L1.39739 6.31098C1.65341 6.23871 1.91988 6.1303 2.1968 5.98575C2.47895 5.84121 2.72974 5.70698 2.94919 5.58309C3.46124 5.28883 3.90268 4.96877 4.27365 4.62289C4.64985 4.27701 4.9973 3.92597 5.31602 3.56977C5.63997 3.21357 5.97698 2.87027 6.32705 2.53988C6.68234 2.20433 7.08989 1.90491 7.54968 1.64163C7.61761 1.60549 7.72211 1.55129 7.86318 1.47902C8.00948 1.40674 8.17142 1.33963 8.34907 1.27768C8.53194 1.21573 8.71742 1.1796 8.90552 1.16927L11.8837 6.26452ZM14.5406 6.62847L15.2225 7.79L15.4968 7.31764C15.6796 7.38475 15.9095 7.47251 16.1865 7.58092C16.4634 7.68417 16.7612 7.82613 17.0799 8.00681C17.5554 8.28042 17.9708 8.585 18.3261 8.92055C18.6866 9.25611 19.0288 9.60456 19.3528 9.96593C19.6819 10.3221 20.0294 10.6706 20.3951 11.0113C20.7609 11.352 21.1893 11.6618 21.6805 11.9405C21.9626 12.1057 22.2474 12.2451 22.5348 12.3587C22.8274 12.4723 23.0886 12.5419 23.3185 12.5678C23.6006 12.5936 23.8619 12.5574 24.1022 12.4593C24.3478 12.3561 24.5568 12.1522 24.7292 11.8476L27.8879 6.45036C28.0081 6.23871 28.0316 6.04254 27.9585 5.86186C27.8853 5.67601 27.7469 5.52372 27.5431 5.40499C27.3707 5.31206 27.1145 5.20882 26.7749 5.09525C26.4353 4.97651 26.0564 4.79841 25.6384 4.56094C25.1629 4.2925 24.7449 3.9905 24.3844 3.65495C24.0291 3.31423 23.6869 2.96577 23.3577 2.60957C23.0337 2.25337 22.6889 1.90491 22.3231 1.56419C21.9574 1.22348 21.529 0.911156 21.0378 0.627226C20.7557 0.467193 20.4683 0.330391 20.1757 0.216819C19.8883 0.103247 19.6297 0.0335553 19.3998 0.00774353C19.1177 -0.0180682 18.8564 0.0206494 18.6161 0.123897C18.3757 0.227144 18.1667 0.431057 17.9891 0.735636L14.5406 6.62847ZM13.4591 10.81L12.7694 9.6407L9.5717 15.1154C9.49333 15.2548 9.47504 15.4045 9.51684 15.5645C9.55864 15.7245 9.65007 15.8433 9.79115 15.9207C9.93745 16.0033 10.0864 16.0214 10.2379 15.9749C10.3946 15.9336 10.5122 15.8433 10.5906 15.7039L13.4591 10.81Z"
		fill="currentColor"
	/>
</svg>
