<svg color="rgb(var(--foreground, 0, 0, 0))" viewBox="0 0 15 18" fill="none">
	<path
		d="M1.00738 17.5C1.1766 17.5 1.31938 17.4422 1.43572 17.3265C1.55205 17.2108 1.61022 17.0714 1.61022 16.9084V12.5224C1.7107 12.4803 1.94073 12.4093 2.30032 12.3094C2.6652 12.2042 3.13848 12.1516 3.72017 12.1516C4.42349 12.1516 5.07128 12.2173 5.66355 12.3488C6.2611 12.4803 6.8375 12.6354 7.39275 12.8142C7.948 12.993 8.51118 13.1561 9.0823 13.3033C9.6587 13.4506 10.28 13.54 10.9463 13.5715L9.51856 12.1437C9.04792 12.0543 8.58786 11.9439 8.13837 11.8124C7.69417 11.6809 7.24204 11.5521 6.78198 11.4259C6.32191 11.2944 5.8407 11.184 5.33833 11.0946C4.83596 11.0052 4.29657 10.9605 3.72017 10.9605C3.28655 10.9605 2.88201 10.9867 2.50656 11.0393C2.1311 11.0867 1.83232 11.155 1.61022 11.2444V4.37357L0.507657 3.27707C0.438912 3.39803 0.404539 3.56106 0.404539 3.76616V16.9084C0.404539 17.0661 0.462708 17.2029 0.579046 17.3186C0.700672 17.4395 0.843451 17.5 1.00738 17.5ZM14.3334 12.4671C14.3915 12.383 14.4312 12.2883 14.4524 12.1832C14.4788 12.0727 14.492 11.9439 14.492 11.7966V3.78982C14.492 3.57421 14.4127 3.40855 14.254 3.29285C14.0954 3.17715 13.8997 3.1193 13.6671 3.1193C13.4714 3.1193 13.1779 3.17452 12.7866 3.28496C12.4006 3.3954 11.8665 3.45062 11.1843 3.45062C10.5021 3.45062 9.86229 3.38225 9.26474 3.24552C8.67247 3.10353 8.09078 2.9405 7.51967 2.75643C6.94855 2.56711 6.35629 2.40145 5.74287 2.25946C5.12945 2.11221 4.46315 2.03332 3.74397 2.0228L5.09243 3.36385C5.61066 3.44799 6.10775 3.56106 6.58367 3.70305C7.06489 3.83978 7.54611 3.98178 8.02732 4.12903C8.50854 4.27102 9.00562 4.39198 9.51856 4.4919C10.0368 4.59182 10.592 4.64178 11.1843 4.64178C11.6179 4.64178 12.0119 4.61811 12.3662 4.57078C12.7205 4.52345 13.0299 4.46297 13.2943 4.38935V11.4259L14.3334 12.4671ZM13.9606 15.236C14.0822 15.3517 14.2276 15.4096 14.3968 15.4096C14.566 15.4096 14.7088 15.3517 14.8252 15.236C14.9415 15.115 14.9997 14.9704 14.9997 14.8021C15.005 14.6339 14.9468 14.4919 14.8252 14.3762L1.04704 0.673875C0.925416 0.558178 0.779993 0.500329 0.610775 0.500329C0.441556 0.49507 0.296133 0.552919 0.174507 0.673875C0.058169 0.789573 0 0.934195 0 1.10774C0 1.27603 0.058169 1.41802 0.174507 1.53372L13.9606 15.236Z"
		fill="currentColor"
	/>
</svg>
