<svg color="rgb(var(--foreground, 0, 0, 0))" viewBox="0 0 28 16" fill="none">
	<path
		d="M18.4282 15.1154L10.0107 0.735636C9.83309 0.431057 9.6241 0.227144 9.38375 0.123897C9.1434 0.0206494 8.88215 -0.0180682 8.6 0.00774353C8.3701 0.0335553 8.10886 0.103247 7.81626 0.216819C7.52889 0.330391 7.24413 0.467193 6.96198 0.627226C6.47083 0.911156 6.04239 1.22348 5.67664 1.56419C5.31089 1.90491 4.96343 2.25337 4.63426 2.60957C4.31031 2.96577 3.96808 3.31423 3.60755 3.65495C3.24703 3.9905 2.82903 4.2925 2.35356 4.56094C1.94079 4.79841 1.56459 4.97651 1.22497 5.09525C0.885349 5.20882 0.629325 5.31206 0.456902 5.40499C0.253128 5.52372 0.114667 5.67601 0.0415173 5.86186C-0.0316322 6.04254 -0.00811987 6.23871 0.112054 6.45036L3.26271 11.8476C3.44035 12.1522 3.64935 12.3561 3.8897 12.4593C4.13527 12.5574 4.39652 12.5936 4.67345 12.5678C4.90857 12.5419 5.16982 12.4723 5.45719 12.3587C5.74979 12.2451 6.03455 12.1057 6.31147 11.9405C6.80262 11.6618 7.23106 11.352 7.59681 11.0113C7.96778 10.6706 8.31524 10.3221 8.63919 9.96593C8.96314 9.60456 9.30537 9.2561 9.6659 8.92055C10.0264 8.585 10.4444 8.28042 10.9199 8.00681C11.2386 7.82613 11.5364 7.68417 11.8134 7.58092C12.0903 7.47251 12.3202 7.38475 12.503 7.31764L17.4014 15.7039C17.485 15.8433 17.6026 15.9336 17.7541 15.9749C17.9109 16.0214 18.0624 16.0033 18.2087 15.9207C18.3446 15.8433 18.4334 15.7245 18.4752 15.5645C18.5222 15.4045 18.5065 15.2548 18.4282 15.1154ZM11.8839 6.26452C11.6279 6.33679 11.3588 6.4452 11.0766 6.58975C10.7997 6.73429 10.5489 6.86851 10.3242 6.99241C9.81742 7.2815 9.37591 7.59899 8.99971 7.94487C8.62874 8.29074 8.28128 8.64436 7.95733 9.00573C7.63339 9.36193 7.29638 9.70781 6.9463 10.0434C6.59623 10.3738 6.18868 10.6706 5.72366 10.9339C5.65574 10.9752 5.55124 11.032 5.41016 11.1042C5.26909 11.1713 5.10712 11.2359 4.92424 11.2978C4.74659 11.3598 4.56372 11.3959 4.37562 11.4062L1.39739 6.31098C1.65342 6.23871 1.91989 6.1303 2.19681 5.98575C2.47896 5.84121 2.72976 5.70698 2.94921 5.58309C3.46125 5.28883 3.90276 4.96877 4.27374 4.62289C4.64993 4.27701 4.99739 3.92597 5.31612 3.56977C5.64006 3.21357 5.97707 2.87027 6.32715 2.53988C6.68244 2.20433 7.08999 1.90491 7.54979 1.64163C7.61771 1.60549 7.72221 1.55129 7.86328 1.47901C8.00958 1.40674 8.17156 1.33963 8.34921 1.27768C8.53208 1.21573 8.71756 1.1796 8.90566 1.16927L11.8839 6.26452ZM14.5408 6.62846L15.2226 7.78999L15.4969 7.31764C15.6798 7.38475 15.9097 7.47251 16.1866 7.58092C16.4636 7.68417 16.7614 7.82613 17.0801 8.00681C17.5556 8.28042 17.971 8.585 18.3263 8.92055C18.6868 9.2561 19.029 9.60456 19.353 9.96593C19.6821 10.3221 20.0296 10.6706 20.3953 11.0113C20.7611 11.352 21.1895 11.6618 21.6807 11.9405C21.9628 12.1057 22.2476 12.2451 22.535 12.3587C22.8276 12.4723 23.0888 12.5419 23.3187 12.5678C23.6009 12.5936 23.8621 12.5574 24.1025 12.4593C24.348 12.3561 24.557 12.1522 24.7295 11.8476L27.8879 6.45036C28.0081 6.23871 28.0316 6.04254 27.9585 5.86186C27.8853 5.67601 27.7469 5.52372 27.5431 5.40499C27.3707 5.31206 27.1147 5.20882 26.775 5.09525C26.4354 4.97651 26.0566 4.79841 25.6386 4.56094C25.1631 4.2925 24.7451 3.9905 24.3846 3.65495C24.0293 3.31423 23.6871 2.96577 23.3579 2.60957C23.034 2.25337 22.6891 1.90491 22.3234 1.56419C21.9576 1.22348 21.5292 0.911156 21.038 0.627226C20.7559 0.467193 20.4685 0.330391 20.1759 0.216819C19.8885 0.103247 19.6299 0.0335553 19.4 0.00774353C19.1178 -0.0180682 18.8566 0.0206494 18.6163 0.123897C18.3759 0.227144 18.1669 0.431057 17.9893 0.735636L14.5408 6.62846ZM16.1161 6.26452L19.0943 1.16927C19.2824 1.1796 19.4653 1.21573 19.643 1.27768C19.8258 1.33963 19.9878 1.40674 20.1289 1.47901C20.27 1.55129 20.3745 1.60549 20.4424 1.64163C20.9074 1.90491 21.3149 2.20433 21.665 2.53988C22.0151 2.87027 22.3521 3.21357 22.676 3.56977C23 3.92597 23.3475 4.27701 23.7184 4.62289C24.0946 4.96877 24.5387 5.28883 25.0508 5.58309C25.2702 5.70698 25.5184 5.84121 25.7953 5.98575C26.0775 6.1303 26.3466 6.23871 26.6026 6.31098L23.6244 11.4062C23.4363 11.3959 23.2508 11.3598 23.0679 11.2978C22.8903 11.2359 22.7309 11.1713 22.5898 11.1042C22.4488 11.032 22.3443 10.9752 22.2763 10.9339C21.8113 10.6706 21.4038 10.3738 21.0537 10.0434C20.7036 9.70781 20.3666 9.36193 20.0427 9.00573C19.7187 8.64436 19.3686 8.29074 18.9924 7.94487C18.6215 7.59899 18.18 7.2815 17.6679 6.99241C17.4485 6.86851 17.1977 6.73429 16.9155 6.58975C16.6334 6.4452 16.3669 6.33679 16.1161 6.26452ZM13.4592 10.81L12.7695 9.6407L9.57185 15.1154C9.49347 15.2548 9.47518 15.4045 9.51698 15.5645C9.55878 15.7245 9.65022 15.8433 9.79129 15.9207C9.93759 16.0033 10.0865 16.0214 10.238 15.9749C10.3948 15.9336 10.5123 15.8433 10.5907 15.7039L13.4592 10.81Z"
		fill="currentColor"
	/>
</svg>
