<svg color="rgb(var(--foreground, 0, 0, 0))" viewBox="0 0 15 18" fill="none">
	<path
		d="M3.27486 10.3919L4.11909 9.51406L1.31025 3.98594L2.58054 2.03251L5.91013 8.61248L7.20409 8.39895L3.34587 1.1942H11.654L7.79584 8.39895L9.0898 8.61248L12.4194 2.03251L13.6976 3.98594L10.8808 9.51406L11.7251 10.3919L14.8969 4.42091C14.9705 4.2891 15.0047 4.15202 14.9995 4.00967C14.9942 3.86731 14.9521 3.7355 14.8732 3.61424L12.735 0.332162C12.5824 0.110721 12.3589 0 12.0643 0H2.94348C2.64892 0 2.42537 0.110721 2.27283 0.332162L0.126766 3.61424C0.047866 3.7355 0.005786 3.86731 0.000526 4.00967C-0.004734 4.15202 0.029456 4.2891 0.103096 4.42091L3.27486 10.3919ZM4.57671 4.82425H10.4311V3.63005H4.57671V4.82425ZM7.50391 18C8.21927 18 8.88729 17.8656 9.50797 17.5967C10.1339 17.333 10.6836 16.9613 11.157 16.4815C11.6356 16.007 12.0065 15.4561 12.2695 14.8286C12.5377 14.2012 12.6719 13.5316 12.6719 12.8199C12.6719 12.1028 12.5377 11.4306 12.2695 10.8032C12.0065 10.1757 11.6356 9.62478 11.157 9.15026C10.6836 8.67575 10.1339 8.30404 9.50797 8.03515C8.88729 7.76626 8.21927 7.63181 7.50391 7.63181C6.78855 7.63181 6.1179 7.76626 5.49195 8.03515C4.86601 8.30404 4.31634 8.67575 3.84294 9.15026C3.36954 9.62478 2.99871 10.1757 2.73045 10.8032C2.46219 11.4306 2.32806 12.1028 2.32806 12.8199C2.32806 13.5316 2.46219 14.2012 2.73045 14.8286C2.99871 15.4561 3.36954 16.007 3.84294 16.4815C4.31634 16.9613 4.86601 17.333 5.49195 17.5967C6.1179 17.8656 6.78855 18 7.50391 18ZM7.50391 16.8058C6.76751 16.8058 6.09686 16.6265 5.49195 16.268C4.89231 15.9095 4.41365 15.4271 4.05597 14.8207C3.69829 14.2197 3.51945 13.5527 3.51945 12.8199C3.51945 12.0817 3.69829 11.4121 4.05597 10.8111C4.41365 10.2047 4.89231 9.72232 5.49195 9.3638C6.09686 9.00527 6.76751 8.82601 7.50391 8.82601C8.23505 8.82601 8.90044 9.00527 9.50008 9.3638C10.105 9.72232 10.5863 10.2047 10.9439 10.8111C11.3016 11.4121 11.4805 12.0817 11.4805 12.8199C11.4805 13.5527 11.3016 14.2197 10.9439 14.8207C10.5863 15.4271 10.105 15.9095 9.50008 16.268C8.90044 16.6265 8.23505 16.8058 7.50391 16.8058ZM6.11527 15.319L7.5118 14.2988L8.89255 15.319C9.03983 15.4244 9.17133 15.435 9.28705 15.3506C9.40277 15.2663 9.43433 15.1424 9.38173 14.9789L8.82154 13.326L10.2338 12.3137C10.3653 12.2241 10.4127 12.1081 10.3759 11.9657C10.3443 11.8234 10.2365 11.7522 10.0524 11.7522L8.32447 11.768L7.79584 10.1072C7.74324 9.94376 7.64593 9.86204 7.50391 9.86204C7.36189 9.86204 7.26458 9.94376 7.21198 10.1072L6.68335 11.768L4.95543 11.7522C4.77659 11.7522 4.66876 11.8234 4.63194 11.9657C4.59512 12.1081 4.64509 12.2267 4.78185 12.3216L6.19417 13.326L5.63398 14.9789C5.58138 15.1424 5.61031 15.2663 5.72077 15.3506C5.83649 15.435 5.96799 15.4244 6.11527 15.319Z"
		fill="currentColor"
	/>
</svg>
