<svg color="rgb(var(--foreground, 0, 0, 0))" viewBox="0 0 15 18" fill="none">
	<path
		d="M7.496 18C8.18958 18 8.8385 17.8697 9.44276 17.609C10.0523 17.3484 10.5856 16.984 11.0427 16.516C11.4999 16.0532 11.8572 15.5133 12.1146 14.8963C12.3773 14.2846 12.5087 13.6303 12.5087 12.9335C12.5087 12.2314 12.3773 11.5745 12.1146 10.9628C11.8572 10.3457 11.4999 9.80585 11.0427 9.34308C10.5856 8.875 10.0523 8.51064 9.44276 8.25C8.8385 7.98936 8.18958 7.85904 7.496 7.85904C6.80768 7.85904 6.15876 7.98936 5.54925 8.25C4.94499 8.51064 4.41167 8.875 3.94928 9.34308C3.49215 9.80585 3.13485 10.3457 2.87739 10.9628C2.61992 11.5745 2.49119 12.2314 2.49119 12.9335C2.49119 13.6303 2.61992 14.2846 2.87739 14.8963C3.13485 15.5133 3.49215 16.0532 3.94928 16.516C4.41167 16.984 4.94499 17.3484 5.54925 17.609C6.15876 17.8697 6.80768 18 7.496 18ZM6.06943 15.5426C5.91705 15.6543 5.78044 15.6649 5.65959 15.5745C5.54399 15.4894 5.51509 15.359 5.57289 15.1835L6.14037 13.4681L4.69015 12.4229C4.60083 12.3537 4.54828 12.2739 4.53252 12.1835C4.51676 12.0878 4.53778 12.0053 4.59557 11.9362C4.65863 11.8617 4.75321 11.8245 4.87931 11.8245L6.66055 11.8404L7.20438 10.117C7.26218 9.94149 7.36201 9.85372 7.50388 9.85372C7.64575 9.85372 7.74559 9.94149 7.80338 10.117L8.34721 11.8404L10.1285 11.8245C10.2546 11.8245 10.3465 11.8617 10.4043 11.9362C10.4621 12.0053 10.4831 12.0878 10.4674 12.1835C10.4569 12.2739 10.4069 12.3511 10.3176 12.4149L8.8674 13.4681L9.43487 15.1835C9.49267 15.359 9.46115 15.4894 9.34029 15.5745C9.2247 15.6649 9.09071 15.6543 8.93833 15.5426L7.50388 14.4814L6.06943 15.5426ZM2.69611 9.13564C3.08494 8.64096 3.53944 8.21276 4.05963 7.85106C4.57981 7.48404 5.14466 7.21011 5.75417 7.02925L2.18381 0.534574L0.110949 3.73404C0.0426414 3.83511 0.00586067 3.94149 0.000606276 4.05319C-0.00464812 4.16489 0.0242511 4.27394 0.0873038 4.38032L2.69611 9.13564ZM5.73052 4.30851H9.26936L11.6732 0H3.32664L5.73052 4.30851ZM9.24572 7.02925C9.86048 7.21011 10.4253 7.48404 10.9403 7.85106C11.4604 8.21276 11.9149 8.64096 12.3038 9.13564L14.9205 4.38032C14.9783 4.27394 15.0046 4.16489 14.9993 4.05319C14.9941 3.94149 14.9573 3.83511 14.889 3.73404L12.8161 0.534574L9.24572 7.02925Z"
		fill="currentColor"
	/>
</svg>
