<svg color="rgb(var(--foreground, 0, 0, 0))" viewBox="0 0 12 18" fill="none">
	<path
		d="M0 6.58285C0 7.47612 0.18113 8.31609 0.543391 9.10278C0.910683 9.88439 1.40376 10.5518 2.02262 11.105L2.03017 16.8529C2.03017 17.0813 2.08048 17.2462 2.18111 17.3477C2.28677 17.4492 2.41759 17.5 2.57356 17.5C2.70438 17.5 2.82261 17.4645 2.92827 17.3934C3.03393 17.3274 3.13708 17.2437 3.2377 17.1422L5.69051 14.6755C5.75592 14.6146 5.81378 14.5715 5.86409 14.5461C5.91441 14.5208 5.96221 14.5081 6.00749 14.5081C6.05277 14.5081 6.10057 14.5208 6.15088 14.5461C6.2012 14.5715 6.25906 14.6146 6.32447 14.6755L8.77727 17.1422C8.88293 17.2488 8.98859 17.3351 9.09425 17.401C9.19991 17.467 9.31563 17.5 9.44141 17.5C9.60242 17.5 9.73324 17.4492 9.83387 17.3477C9.93952 17.2462 9.99235 17.0813 9.99235 16.8529V11.0822C10.6062 10.529 11.0917 9.86408 11.4489 9.08755C11.8112 8.30594 11.9949 7.47104 11.9999 6.58285C12.0049 5.74541 11.8489 4.96126 11.532 4.23041C11.22 3.49448 10.7873 2.84737 10.2339 2.28907C9.68544 1.73078 9.04897 1.2943 8.32445 0.979624C7.59992 0.659875 6.82509 0.5 5.99994 0.5C5.17479 0.5 4.39996 0.659875 3.67543 0.979624C2.95091 1.2943 2.31193 1.73078 1.75847 2.28907C1.21005 2.84737 0.779867 3.49448 0.467921 4.23041C0.155974 4.96126 0 5.74541 0 6.58285ZM1.23018 6.58285C1.23018 5.90782 1.35093 5.27594 1.59244 4.68719C1.83898 4.09845 2.1786 3.58076 2.6113 3.13412C3.044 2.68749 3.54965 2.33983 4.12826 2.09113C4.7119 1.83736 5.33831 1.71048 6.00749 1.71048C6.67666 1.71048 7.30056 1.83736 7.87917 2.09113C8.45778 2.33983 8.96343 2.68749 9.39613 3.13412C9.83387 3.58076 10.1735 4.09845 10.415 4.68719C10.6615 5.27594 10.7848 5.90782 10.7848 6.58285C10.7898 7.25787 10.6691 7.88976 10.4225 8.4785C10.181 9.06725 9.84141 9.58494 9.40368 10.0316C8.97098 10.4731 8.46281 10.8208 7.87917 11.0746C7.30056 11.3233 6.67666 11.4451 6.00749 11.44C5.33831 11.44 4.7119 11.3156 4.12826 11.0669C3.54965 10.8132 3.044 10.4655 2.6113 10.024C2.1786 9.57733 1.83898 9.06217 1.59244 8.4785C1.35093 7.88976 1.23018 7.25787 1.23018 6.58285Z"
		fill="currentColor"
	/>
</svg>
