<svg
	color="rgb(var(--foreground, 0, 0, 0))"
	viewBox="0 0 13 18"
	fill="none"
	xmlns="http://www.w3.org/2000/svg"
>
	<path
		d="M5.62829 17.5C7.02939 17.5 8.21821 17.1304 9.19473 16.3911C10.1713 15.6519 10.9249 14.5508 11.4556 13.088L12.8567 9.22255C12.9522 8.95705 13 8.70456 13 8.46509C13 8.05382 12.8594 7.71804 12.5781 7.45774C12.2968 7.19224 11.9545 7.05949 11.5511 7.05949C11.2752 7.05949 11.0204 7.14018 10.7869 7.30156C10.5534 7.45774 10.3703 7.6894 10.2376 7.99655L9.72015 9.24598C9.70423 9.28242 9.68034 9.30064 9.6485 9.30064C9.61135 9.30064 9.59277 9.27722 9.59277 9.23036V2.96762C9.59277 2.50949 9.45744 2.14768 9.18677 1.88218C8.92141 1.61147 8.56583 1.47611 8.12002 1.47611C7.9555 1.47611 7.80159 1.50475 7.6583 1.56201C7.515 1.61407 7.38763 1.69216 7.27618 1.79628C7.22311 1.39542 7.07185 1.08046 6.82241 0.851401C6.57297 0.617134 6.25189 0.5 5.85916 0.5C5.47173 0.5 5.15064 0.617134 4.8959 0.851401C4.64115 1.08567 4.48459 1.39542 4.42621 1.78066C4.21923 1.57763 3.96183 1.47611 3.65401 1.47611C3.24005 1.47611 2.9057 1.60887 2.65095 1.87437C2.40151 2.13467 2.27679 2.48086 2.27679 2.91295V3.77974C2.17065 3.67042 2.04062 3.58712 1.88671 3.52986C1.7328 3.47259 1.57093 3.44396 1.4011 3.44396C0.98714 3.44396 0.650133 3.57931 0.39008 3.85002C0.130027 4.12073 0 4.47734 0 4.91984V11.6277C0 12.8459 0.233517 13.8949 0.700551 14.7747C1.17289 15.6493 1.83099 16.3209 2.67483 16.7894C3.51868 17.2631 4.50316 17.5 5.62829 17.5ZM5.58849 16.4224C4.64911 16.4224 3.83976 16.2297 3.16044 15.8445C2.48643 15.4645 1.96632 14.9074 1.60012 14.1734C1.23393 13.4394 1.05083 12.5491 1.05083 11.5028V5.02917C1.05083 4.86258 1.10125 4.72722 1.20208 4.6231C1.30292 4.51899 1.4356 4.46693 1.60012 4.46693C1.76465 4.46693 1.89998 4.51899 2.00612 4.6231C2.11227 4.72722 2.16534 4.86258 2.16534 5.02917V9.01952C2.16534 9.16008 2.21576 9.27722 2.3166 9.37092C2.41743 9.45942 2.53154 9.50367 2.65891 9.50367C2.7969 9.50367 2.91631 9.45942 3.01715 9.37092C3.12329 9.27722 3.17636 9.16008 3.17636 9.01952V3.05351C3.17636 2.88692 3.22413 2.75157 3.31966 2.64745C3.42049 2.53813 3.55317 2.48346 3.7177 2.48346C3.88222 2.48346 4.01755 2.53813 4.1237 2.64745C4.22984 2.75157 4.28292 2.88692 4.28292 3.05351V8.62127C4.28292 8.76183 4.33333 8.87896 4.43417 8.97267C4.53501 9.06117 4.65177 9.10542 4.78445 9.10542C4.91713 9.10542 5.03388 9.06117 5.13472 8.97267C5.24087 8.87896 5.29394 8.76183 5.29394 8.62127V2.08521C5.29394 1.91862 5.34701 1.78066 5.45315 1.67134C5.5593 1.56201 5.69463 1.50735 5.85916 1.50735C6.01837 1.50735 6.1484 1.56201 6.24923 1.67134C6.35538 1.78066 6.40845 1.91862 6.40845 2.08521V8.62127C6.40845 8.75662 6.45622 8.87115 6.55175 8.96486C6.65258 9.05857 6.77199 9.10542 6.90998 9.10542C7.04797 9.10542 7.16738 9.05857 7.26822 8.96486C7.36906 8.87115 7.41947 8.75662 7.41947 8.62127V3.05351C7.41947 2.88692 7.46989 2.75157 7.57073 2.64745C7.67687 2.53813 7.81221 2.48346 7.97673 2.48346C8.14125 2.48346 8.27393 2.53813 8.37477 2.64745C8.48092 2.75157 8.53399 2.88692 8.53399 3.05351V10.7375C8.53399 10.9301 8.58706 11.0811 8.6932 11.1904C8.79935 11.2997 8.93468 11.3544 9.0992 11.3544C9.2425 11.3544 9.37253 11.3179 9.48928 11.2451C9.61135 11.1722 9.71749 11.0368 9.80772 10.839L10.9541 8.33234C11.0284 8.16054 11.1319 8.04601 11.2645 7.98875C11.4025 7.93148 11.5405 7.92888 11.6785 7.98094C11.8324 8.0382 11.9306 8.13451 11.9731 8.26987C12.0208 8.40522 12.0102 8.56921 11.9412 8.76183L10.4844 12.7522C9.99612 14.0849 9.33537 15.0298 8.50214 15.5868C7.66891 16.1439 6.69769 16.4224 5.58849 16.4224Z"
		fill="currentColor"
	/>
</svg>
