<svg
	color="rgb(var(--foreground, 0, 0, 0))"
	viewBox="0 0 16 18"
	fill="none"
	xmlns="http://www.w3.org/2000/svg"
>
	<path
		d="M8.59154 17.7182C9.32042 17.7182 9.97586 17.6298 10.5579 17.453C11.1453 17.2762 11.6675 17.0111 12.1244 16.6575L2.99439 7.38398V11.9006C2.99439 12.8177 3.1331 13.6354 3.41051 14.3536C3.68791 15.0718 4.07683 15.6796 4.57726 16.1768C5.07768 16.6796 5.66786 17.0608 6.34778 17.3204C7.03315 17.5856 7.78106 17.7182 8.59154 17.7182ZM14.1152 14.0055C14.1642 13.9061 14.2104 13.8011 14.254 13.6906C14.3029 13.5801 14.3437 13.4669 14.3763 13.3508C14.5722 12.8425 14.7598 12.3094 14.9393 11.7514C15.1188 11.1878 15.301 10.6022 15.486 9.99448C15.5567 9.76243 15.6301 9.51934 15.7063 9.26519C15.7879 9.00553 15.8559 8.76519 15.9103 8.5442C15.9701 8.3232 16 8.14641 16 8.01381C16 7.79282 15.9266 7.61326 15.7797 7.47514C15.6383 7.33702 15.4506 7.26796 15.2167 7.26796C14.9611 7.26796 14.7435 7.35635 14.564 7.53315C14.3899 7.70994 14.2077 7.99448 14.0173 8.38674L12.8832 10.8066C12.8288 10.9392 12.769 11.0331 12.7037 11.0884C12.6385 11.1436 12.5732 11.1713 12.5079 11.1713C12.4209 11.1713 12.3502 11.1436 12.2958 11.0884C12.2468 11.0276 12.2223 10.9254 12.2223 10.7818V2.0884C12.2223 1.8453 12.1353 1.63812 11.9612 1.46685C11.7926 1.29006 11.5886 1.20166 11.3493 1.20166C11.11 1.20166 10.9033 1.29006 10.7292 1.46685C10.5606 1.63812 10.4763 1.8453 10.4763 2.0884V8.30387C10.3621 8.25967 10.2451 8.22099 10.1254 8.18785C10.0058 8.1547 9.88067 8.12707 9.75013 8.10497V0.895028C9.75013 0.646409 9.6631 0.436464 9.48904 0.265193C9.32042 0.0883978 9.11644 0 8.8771 0C8.63233 0 8.42291 0.0883978 8.24885 0.265193C8.08023 0.436464 7.99592 0.646409 7.99592 0.895028V7.50829C7.93609 7.51381 7.88985 7.51934 7.85722 7.52486C7.82458 7.52486 7.7865 7.53039 7.74299 7.54144L14.1152 14.0055ZM5.48292 5.23757L7.22897 7.01934V1.59945C7.22897 1.35635 7.14193 1.14917 6.96787 0.977901C6.79925 0.801105 6.59527 0.712707 6.35594 0.712707C6.11661 0.712707 5.90991 0.801105 5.73585 0.977901C5.56723 1.14917 5.48292 1.35635 5.48292 1.59945V5.23757ZM3.64712 3.3895L4.7486 4.5V4.1768C4.7486 3.9337 4.66157 3.72652 4.48751 3.55525C4.31889 3.37845 4.11491 3.29006 3.87557 3.29006C3.82662 3.29006 3.7831 3.29834 3.74503 3.31492C3.70695 3.33149 3.67432 3.35635 3.64712 3.3895ZM14.6782 17.8177C14.7979 17.9392 14.9448 18 15.1188 18C15.2983 18 15.4479 17.9392 15.5676 17.8177C15.6872 17.6906 15.7471 17.5387 15.7471 17.3619C15.7471 17.1851 15.6872 17.0359 15.5676 16.9144L1.06884 2.19613C0.949176 2.07459 0.799592 2.01381 0.620092 2.01381C0.446031 2.01381 0.296447 2.07459 0.171341 2.19613C0.0571137 2.31768 0 2.46961 0 2.65193C0 2.82873 0.0571137 2.9779 0.171341 3.09945L14.6782 17.8177Z"
		fill="currentColor"
	/>
</svg>
