<svg
	color="rgb(var(--foreground, 0, 0, 0))"
	viewBox="0 0 14 18"
	fill="none"
	xmlns="http://www.w3.org/2000/svg"
>
	<path
		d="M6.57644 17.5C7.93714 17.5 9.06849 17.12 9.97047 16.3599C10.8724 15.5998 11.6275 14.5092 12.2357 13.088L13.8516 9.23817C13.9753 8.94664 14.0216 8.67333 13.9907 8.41824C13.9598 8.16314 13.8748 7.93929 13.7356 7.74667C13.5964 7.54884 13.4238 7.39527 13.2176 7.28594C12.9135 7.12977 12.5785 7.09072 12.2125 7.16881C11.8517 7.2469 11.5425 7.49678 11.2848 7.91847L10.5503 9.24598C10.5297 9.28242 10.5065 9.30064 10.4807 9.30064C10.4343 9.30064 10.4163 9.27461 10.4266 9.22255L11.4317 3.32683C11.5193 2.84267 11.4523 2.44182 11.2307 2.12425C11.0142 1.80149 10.6946 1.60106 10.272 1.52297C9.81326 1.44488 9.41897 1.51256 9.0891 1.726C8.76439 1.93944 8.55307 2.30126 8.45514 2.81144L8.2232 4.178H8.31598V2.0774C8.31598 1.61407 8.17424 1.23664 7.89076 0.945108C7.60728 0.648369 7.24391 0.5 6.80065 0.5C6.33677 0.5 5.96567 0.653575 5.68735 0.960726C5.40902 1.26267 5.26986 1.65312 5.26986 2.13206V3.1316L5.46314 3.09256L5.37036 2.46785C5.25697 2.04096 5.0405 1.73641 4.72094 1.5542C4.40653 1.372 4.06378 1.31213 3.69268 1.3746C3.24427 1.45269 2.90925 1.66353 2.68762 2.00712C2.47114 2.34551 2.39125 2.73855 2.44795 3.18627L2.59484 4.46693L2.8809 4.40446C2.75204 3.97757 2.53557 3.68864 2.23147 3.53767C1.92738 3.38669 1.59751 3.34505 1.24187 3.41272C0.777994 3.49602 0.440396 3.69645 0.229074 4.01401C0.0229075 4.33157 -0.0440968 4.72983 0.0280616 5.20877L1.05632 12.1743C1.2161 13.278 1.52277 14.2281 1.97634 15.0246C2.42991 15.8211 3.03552 16.4328 3.79319 16.8597C4.556 17.2866 5.48376 17.5 6.57644 17.5ZM6.53779 16.4224C5.16677 16.4224 4.13594 16.0423 3.44528 15.2823C2.75462 14.5274 2.30105 13.4498 2.08458 12.0494L0.971276 5.03698C0.945505 4.87559 0.971276 4.73764 1.04859 4.62311C1.13106 4.50857 1.2496 4.43569 1.40423 4.40446C1.54339 4.37843 1.66967 4.40706 1.78306 4.49035C1.89645 4.57365 1.97119 4.68818 2.00727 4.83395L3.1283 9.07418C3.16438 9.22516 3.23396 9.33188 3.33704 9.39435C3.44013 9.45161 3.55352 9.46723 3.67722 9.4412C3.80607 9.42038 3.90916 9.35791 3.98647 9.25379C4.06894 9.14967 4.10244 9.03254 4.08697 8.90239L3.42209 3.02228C3.40147 2.85048 3.42724 2.70732 3.4994 2.59279C3.57671 2.47305 3.69526 2.40017 3.85504 2.37414C4.01482 2.34811 4.1514 2.37934 4.26479 2.46785C4.37819 2.55635 4.44777 2.67869 4.47354 2.83486L5.27759 8.73059C5.29305 8.85553 5.34975 8.95445 5.44768 9.02733C5.55076 9.10021 5.66931 9.12624 5.80332 9.10542C5.96825 9.07939 6.08422 9.01952 6.15122 8.92581C6.21823 8.8269 6.25173 8.70717 6.25173 8.56661V2.0774C6.25173 1.91602 6.30327 1.78326 6.40635 1.67915C6.50944 1.56982 6.64087 1.51516 6.80065 1.51516C6.95527 1.51516 7.08155 1.56982 7.17948 1.67915C7.28256 1.78326 7.33411 1.91602 7.33411 2.0774V8.63689C7.33411 8.76703 7.38049 8.87896 7.47327 8.97267C7.5712 9.06117 7.68459 9.10542 7.81344 9.10542C7.94745 9.10542 8.05569 9.06638 8.13816 8.98829C8.22578 8.90499 8.28247 8.79827 8.30824 8.66812L9.40608 2.98323C9.44216 2.79582 9.5169 2.66307 9.63029 2.58498C9.74884 2.50689 9.88284 2.48086 10.0323 2.50689C10.1818 2.53292 10.2952 2.6058 10.3725 2.72554C10.455 2.84007 10.4833 2.98323 10.4575 3.15503L9.3597 10.4642C9.30815 10.7974 9.35196 11.029 9.49113 11.1592C9.63544 11.2893 9.78749 11.3544 9.94727 11.3544C10.0864 11.3544 10.2076 11.3153 10.3106 11.2373C10.4189 11.1592 10.5271 11.0264 10.6354 10.839L12.0115 8.37138C12.094 8.2152 12.1996 8.11369 12.3285 8.06683C12.4625 8.01998 12.5888 8.02258 12.7073 8.07464C12.8413 8.1215 12.9341 8.21 12.9857 8.34015C13.0424 8.4703 13.0346 8.62387 12.9625 8.80087L11.2925 12.7522C10.741 14.0433 10.0787 14.9777 9.30558 15.5556C8.53761 16.1334 7.61501 16.4224 6.53779 16.4224Z"
		fill="currentColor"
	/>
</svg>
