<svg
	color="rgb(var(--foreground, 0, 0, 0))"
	viewBox="0 0 14 20"
	fill="none"
	xmlns="http://www.w3.org/2000/svg"
>
	<path
		d="M7.4677 20C8.56941 20 9.53341 19.7655 10.3597 19.2965C11.186 18.8326 11.8278 18.1652 12.2851 17.2942C12.7476 16.4283 12.9788 15.3923 12.9788 14.1863V12.4932C12.9788 11.6068 12.7762 10.9135 12.3708 10.4136C11.9707 9.91367 11.4068 9.66113 10.6793 9.65597C10.5909 9.3725 10.4324 9.15088 10.2038 8.99111C9.98032 8.82618 9.7049 8.74372 9.3775 8.74372C9.15404 8.74372 8.92539 8.78237 8.69153 8.85968C8.5928 8.54529 8.4213 8.30048 8.17706 8.12524C7.93281 7.94485 7.64179 7.85466 7.30401 7.85466C7.11692 7.85466 6.93244 7.88043 6.75055 7.93197V5.35756C6.75055 4.86793 6.60245 4.47623 6.30623 4.18245C6.01521 3.88352 5.63846 3.73406 5.17595 3.73406C4.71344 3.73406 4.33148 3.88352 4.03007 4.18245C3.73386 4.47623 3.58575 4.86793 3.58575 5.35756V11.8052C3.58575 11.8516 3.56756 11.8748 3.53118 11.8748C3.5 11.8748 3.47662 11.8567 3.46103 11.8206L2.94655 10.5914C2.81663 10.2873 2.63994 10.058 2.41648 9.90336C2.19822 9.74359 1.95137 9.6637 1.67595 9.6637C1.29659 9.6637 0.963995 9.77967 0.678174 10.0116C0.392354 10.2384 0.249443 10.5631 0.249443 10.9857C0.249443 11.1042 0.259837 11.2357 0.280624 11.38C0.306607 11.5243 0.342985 11.6634 0.389755 11.7974L1.76169 15.6243C2.28137 17.0777 3.0193 18.1703 3.9755 18.9022C4.9317 19.6341 6.09576 20 7.4677 20ZM7.50668 18.9331C6.42056 18.9331 5.46956 18.6548 4.65368 18.0982C3.83779 17.5467 3.1908 16.6113 2.7127 15.2918L1.33296 11.4805C1.29139 11.3619 1.2706 11.2434 1.2706 11.1249C1.2706 10.9909 1.31737 10.8749 1.41091 10.777C1.50446 10.679 1.62918 10.6301 1.78508 10.6301C2.02413 10.6301 2.20082 10.7692 2.31515 11.0475L3.38308 13.3978C3.46622 13.5936 3.56496 13.7302 3.67929 13.8075C3.79881 13.8797 3.92873 13.9157 4.06904 13.9157C4.23014 13.9157 4.36266 13.859 4.46659 13.7457C4.57053 13.6271 4.6225 13.4802 4.6225 13.305V5.28798C4.6225 5.12305 4.67446 4.98905 4.7784 4.88597C4.88233 4.78289 5.01485 4.73135 5.17595 4.73135C5.33705 4.73135 5.46697 4.78289 5.5657 4.88597C5.66444 4.98905 5.71381 5.12305 5.71381 5.28798V11.0089C5.71381 11.1429 5.76318 11.2563 5.86192 11.3491C5.96066 11.4418 6.07758 11.4882 6.21269 11.4882C6.34781 11.4882 6.46213 11.4418 6.55568 11.3491C6.65441 11.2563 6.70378 11.1429 6.70378 11.0089V8.95246C6.84929 8.8803 7.00519 8.84422 7.17149 8.84422C7.36377 8.84422 7.51447 8.90349 7.6236 9.02203C7.73793 9.14058 7.7951 9.30293 7.7951 9.50908V11.3027C7.7951 11.447 7.84447 11.5629 7.9432 11.6506C8.04714 11.7382 8.16407 11.782 8.29398 11.782C8.4239 11.782 8.53823 11.7382 8.63697 11.6506C8.73571 11.5629 8.78508 11.447 8.78508 11.3027V9.84152C8.93058 9.77451 9.08389 9.74101 9.24499 9.74101C9.44246 9.74101 9.59577 9.80028 9.7049 9.91883C9.81403 10.0322 9.86859 10.192 9.86859 10.3981V11.6042C9.86859 11.7433 9.91796 11.8567 10.0167 11.9443C10.1206 12.032 10.2402 12.0758 10.3753 12.0758C10.5 12.0758 10.6117 12.032 10.7105 11.9443C10.8092 11.8567 10.8586 11.7433 10.8586 11.6042V10.7151C11.2068 10.7151 11.4744 10.8852 11.6615 11.2254C11.8537 11.5604 11.9499 12.0345 11.9499 12.6479V14.0626C11.9499 15.0986 11.7706 15.9773 11.412 16.6989C11.0586 17.4256 10.5494 17.9796 9.88418 18.361C9.219 18.7424 8.4265 18.9331 7.50668 18.9331ZM1.20045 5.93738C1.54343 5.93738 1.83185 5.81884 2.0657 5.58176C2.30475 5.34467 2.42428 5.05863 2.42428 4.72362C2.42428 4.39376 2.30475 4.1103 2.0657 3.87321C1.83185 3.63613 1.54343 3.51759 1.20045 3.51759C0.867855 3.51759 0.584633 3.63613 0.35078 3.87321C0.116927 4.1103 0 4.39376 0 4.72362C0 5.05863 0.116927 5.34467 0.35078 5.58176C0.584633 5.81884 0.867855 5.93738 1.20045 5.93738ZM5.17595 2.41979C5.51374 2.41979 5.80216 2.30125 6.04121 2.06417C6.28026 1.82708 6.39977 1.54104 6.39977 1.20603C6.39977 0.876176 6.28026 0.592707 6.04121 0.355624C5.80216 0.118541 5.51374 0 5.17595 0C4.84336 0 4.55754 0.118541 4.31849 0.355624C4.07944 0.592707 3.95991 0.876176 3.95991 1.20603C3.95991 1.54104 4.07944 1.82708 4.31849 2.06417C4.55754 2.30125 4.84336 2.41979 5.17595 2.41979ZM9.19042 5.93738C9.52821 5.93738 9.81663 5.81884 10.0557 5.58176C10.2947 5.34467 10.4143 5.05863 10.4143 4.72362C10.4143 4.39376 10.2947 4.1103 10.0557 3.87321C9.81663 3.63613 9.52821 3.51759 9.19042 3.51759C8.85783 3.51759 8.57201 3.63613 8.33296 3.87321C8.09391 4.1103 7.97438 4.39376 7.97438 4.72362C7.97438 5.05863 8.09391 5.34467 8.33296 5.58176C8.57201 5.81884 8.85783 5.93738 9.19042 5.93738ZM12.7762 5.93738C13.114 5.93738 13.4024 5.81884 13.6414 5.58176C13.8805 5.34467 14 5.05863 14 4.72362C14 4.39376 13.8805 4.1103 13.6414 3.87321C13.4024 3.63613 13.114 3.51759 12.7762 3.51759C12.4436 3.51759 12.1578 3.63613 11.9187 3.87321C11.6849 4.1103 11.5679 4.39376 11.5679 4.72362C11.5679 5.05863 11.6849 5.34467 11.9187 5.58176C12.1578 5.81884 12.4436 5.93738 12.7762 5.93738ZM12.7762 2.41979C13.114 2.41979 13.4024 2.30125 13.6414 2.06417C13.8805 1.82708 14 1.54104 14 1.20603C14 0.876176 13.8805 0.592707 13.6414 0.355624C13.4024 0.118541 13.114 0 12.7762 0C12.4436 0 12.1578 0.118541 11.9187 0.355624C11.6849 0.592707 11.5679 0.876176 11.5679 1.20603C11.5679 1.54104 11.6849 1.82708 11.9187 2.06417C12.1578 2.30125 12.4436 2.41979 12.7762 2.41979Z"
		fill="currentColor"
	/>
</svg>
