<svg
	color="rgb(var(--foreground, 0, 0, 0))"
	viewBox="0 0 18 20"
	fill="none"
	xmlns="http://www.w3.org/2000/svg"
>
	<path
		d="M11.4346 5.34483C11.5768 5.34483 11.653 5.27236 11.6632 5.12744C11.719 4.68766 11.7774 4.34283 11.8384 4.09295C11.8993 3.84308 11.9958 3.65567 12.1279 3.53073C12.2599 3.4008 12.4554 3.30335 12.7144 3.23838C12.9785 3.16842 13.3391 3.09595 13.7962 3.02099C13.9486 3.006 14.0247 2.93353 14.0247 2.8036C14.0247 2.67866 13.9587 2.6062 13.8267 2.58621C13.3645 2.50125 13.0014 2.42629 12.7373 2.36132C12.4732 2.29135 12.2726 2.1939 12.1355 2.06897C12.0034 1.94403 11.9044 1.75912 11.8384 1.51424C11.7774 1.26937 11.719 0.927037 11.6632 0.487256C11.653 0.342329 11.5768 0.269865 11.4346 0.269865C11.3026 0.269865 11.2315 0.33983 11.2213 0.47976C11.1604 0.924538 11.0994 1.27436 11.0385 1.52924C10.9775 1.78411 10.8811 1.97651 10.749 2.10645C10.617 2.23638 10.4189 2.33383 10.1548 2.3988C9.89072 2.45877 9.52505 2.52124 9.05782 2.58621C9.00195 2.5912 8.95371 2.61369 8.91308 2.65367C8.87753 2.69365 8.85975 2.74363 8.85975 2.8036C8.85975 2.93353 8.92577 3.006 9.05782 3.02099C9.52505 3.11094 9.89072 3.1909 10.1548 3.26087C10.4189 3.33083 10.617 3.42829 10.749 3.55322C10.8811 3.67816 10.9775 3.86557 11.0385 4.11544C11.0994 4.36032 11.1604 4.70265 11.2213 5.14243C11.2264 5.2024 11.2493 5.25237 11.2899 5.29235C11.3305 5.32734 11.3788 5.34483 11.4346 5.34483ZM6.33815 3.32084C6.43464 3.32084 6.49304 3.27336 6.51336 3.17841C6.58446 2.8036 6.65048 2.53623 6.71143 2.37631C6.77237 2.21139 6.8841 2.09895 7.04662 2.03898C7.20913 1.97401 7.48338 1.90655 7.86936 1.83658C7.97601 1.81159 8.02933 1.75412 8.02933 1.66417C8.02933 1.56922 7.97601 1.50925 7.86936 1.48426C7.57987 1.42929 7.35641 1.37931 7.19898 1.33433C7.04662 1.28936 6.92981 1.22689 6.84855 1.14693C6.77237 1.06697 6.71143 0.949525 6.66572 0.794603C6.62509 0.63968 6.5743 0.424788 6.51336 0.149925C6.48797 0.049975 6.42956 0 6.33815 0C6.24165 0 6.18325 0.049975 6.16293 0.149925C6.10199 0.424788 6.04866 0.63968 6.00296 0.794603C5.96233 0.949525 5.90138 1.06697 5.82012 1.14693C5.74394 1.22689 5.62714 1.28936 5.4697 1.33433C5.31226 1.37931 5.09134 1.42929 4.80693 1.48426C4.70028 1.50925 4.64696 1.56922 4.64696 1.66417C4.64696 1.75412 4.70028 1.81159 4.80693 1.83658C5.09134 1.89155 5.31226 1.94153 5.4697 1.98651C5.63221 2.03148 5.7541 2.09395 5.83536 2.17391C5.91662 2.24888 5.97756 2.36632 6.01819 2.52624C6.05882 2.68116 6.10707 2.89855 6.16293 3.17841C6.18325 3.27336 6.24165 3.32084 6.33815 3.32084ZM2.19397 20C2.29555 20 2.35649 19.9425 2.3768 19.8276C2.44791 19.4628 2.51139 19.1754 2.56725 18.9655C2.62312 18.7556 2.70438 18.5957 2.81103 18.4858C2.91768 18.3808 3.0802 18.2959 3.29858 18.2309C3.51696 18.1709 3.82168 18.1059 4.21273 18.036C4.32954 18.006 4.38795 17.941 4.38795 17.8411C4.38795 17.7361 4.32954 17.6737 4.21273 17.6537C3.82168 17.5787 3.5195 17.5087 3.3062 17.4438C3.09289 17.3788 2.93292 17.2914 2.82626 17.1814C2.71961 17.0765 2.63835 16.919 2.58249 16.7091C2.52662 16.5042 2.45806 16.2194 2.3768 15.8546C2.35649 15.7396 2.29555 15.6822 2.19397 15.6822C2.0924 15.6822 2.02892 15.7396 2.00352 15.8546C1.92227 16.2194 1.8537 16.5042 1.79784 16.7091C1.74197 16.919 1.66072 17.0765 1.55406 17.1814C1.45249 17.2914 1.29505 17.3788 1.08175 17.4438C0.873526 17.5087 0.571347 17.5787 0.175213 17.6537C0.0584044 17.6737 0 17.7361 0 17.8411C0 17.941 0.0584044 18.006 0.175213 18.036C0.571347 18.1109 0.876066 18.1784 1.08937 18.2384C1.30267 18.3033 1.46265 18.3883 1.5693 18.4933C1.67595 18.6032 1.75721 18.7606 1.81308 18.9655C1.86894 19.1754 1.93242 19.4628 2.00352 19.8276C2.02892 19.9425 2.0924 20 2.19397 20ZM6.14008 17.6237C6.73428 18.2084 7.35641 18.6407 8.00648 18.9205C8.65655 19.2004 9.30921 19.3378 9.96436 19.3328C10.6246 19.3278 11.2645 19.1879 11.8841 18.913C12.5037 18.6382 13.0801 18.2384 13.6134 17.7136C14.4717 16.8741 14.9973 16.0045 15.1903 15.1049C15.3884 14.2004 15.3046 13.2209 14.9389 12.1664C14.8424 11.8666 14.7307 11.5642 14.6037 11.2594C14.4818 10.9495 14.3422 10.6347 14.1847 10.3148C14.0324 9.995 13.8673 9.66767 13.6895 9.33283C13.5169 8.998 13.334 8.65068 13.141 8.29085C13.0395 8.09595 12.9303 7.89105 12.8135 7.67616C12.7017 7.46127 12.5926 7.26387 12.4859 7.08396C12.3793 6.90405 12.2828 6.77161 12.1964 6.68666C12.0542 6.54673 11.8892 6.48176 11.7013 6.49175C11.5184 6.49675 11.3508 6.57421 11.1985 6.72414C11.0258 6.89405 10.9369 7.09145 10.9318 7.31634C10.9318 7.54123 10.9979 7.84108 11.1299 8.21589L11.9526 10.5022C12.0034 10.6222 12.0237 10.7221 12.0136 10.8021C12.0085 10.8771 11.9857 10.937 11.945 10.982C11.8892 11.037 11.8257 11.0645 11.7546 11.0645C11.6835 11.0595 11.5997 11.0095 11.5032 10.9145L5.8506 5.35232C5.69316 5.1974 5.50017 5.11994 5.27163 5.11994C5.04817 5.11994 4.85772 5.1974 4.70028 5.35232C4.53777 5.51224 4.45651 5.70465 4.45651 5.92954C4.45651 6.14943 4.53777 6.33683 4.70028 6.49175L8.73786 10.4648C8.63629 10.5097 8.53472 10.5622 8.43315 10.6222C8.33157 10.6772 8.22994 10.7396 8.12837 10.8096L3.44332 6.1994C3.2808 6.03948 3.08528 5.95952 2.85674 5.95952C2.63328 5.95952 2.44283 6.03948 2.28539 6.1994C2.12795 6.35432 2.04923 6.54423 2.04923 6.76912C2.04923 6.98901 2.12795 7.17641 2.28539 7.33133L6.91711 11.8891C6.83585 11.979 6.75713 12.0715 6.68095 12.1664C6.60985 12.2614 6.54129 12.3563 6.47527 12.4513L2.23968 8.28336C2.07716 8.12844 1.88164 8.05097 1.6531 8.05097C1.42964 8.05097 1.23919 8.12844 1.08175 8.28336C0.924313 8.43828 0.845594 8.62819 0.845594 8.85307C0.845594 9.07796 0.924313 9.26787 1.08175 9.42279L5.683 13.9505C5.63729 14.0805 5.59666 14.2079 5.56111 14.3328C5.53064 14.4578 5.50271 14.5802 5.47732 14.7002L2.27777 11.5517C2.12033 11.3918 1.92734 11.3118 1.69881 11.3118C1.47027 11.3118 1.27728 11.3918 1.11984 11.5517C0.962403 11.7066 0.883684 11.8966 0.883684 12.1214C0.883684 12.3413 0.962403 12.5287 1.11984 12.6837L6.14008 17.6237ZM10.0634 6.82909L8.56265 5.35232C8.40521 5.1974 8.21216 5.11994 7.98363 5.11994C7.75509 5.11994 7.5621 5.1974 7.40466 5.35232C7.3945 5.36232 7.38435 5.37731 7.37419 5.3973L10.1396 8.12594C10.0939 7.89105 10.0634 7.66617 10.0482 7.45127C10.0329 7.23638 10.038 7.02899 10.0634 6.82909ZM16.3177 17.7211C17.176 16.8766 17.7017 16.0045 17.8947 15.1049C18.0927 14.2004 18.0115 13.2184 17.6509 12.1589C17.5544 11.8641 17.4427 11.5642 17.3157 11.2594C17.1887 10.9495 17.0491 10.6347 16.8967 10.3148C16.7444 9.995 16.5793 9.66767 16.4015 9.33283C16.2238 8.998 16.0384 8.65068 15.8454 8.29085C15.7439 8.09595 15.6347 7.89105 15.5179 7.67616C15.4061 7.46127 15.2969 7.26387 15.1903 7.08396C15.0836 6.90405 14.9871 6.77411 14.9008 6.69415C14.7586 6.54923 14.5935 6.48176 14.4056 6.49175C14.2228 6.49675 14.0552 6.57421 13.9029 6.72414C13.8013 6.82409 13.7276 6.93903 13.6819 7.06897C13.7683 7.22389 13.8495 7.37881 13.9257 7.53373C14.007 7.68866 14.0908 7.84108 14.1771 7.99101C14.3599 8.33583 14.5377 8.67566 14.7104 9.01049C14.883 9.34533 15.043 9.67516 15.1903 10C15.3426 10.3248 15.4823 10.6447 15.6093 10.9595C15.7362 11.2744 15.8454 11.5817 15.9368 11.8816C16.3584 13.1559 16.4396 14.3328 16.1806 15.4123C15.9216 16.4868 15.3096 17.4938 14.3447 18.4333C14.0197 18.7581 13.6718 19.0405 13.301 19.2804C13.8444 19.2054 14.3701 19.0355 14.8779 18.7706C15.3909 18.5057 15.8708 18.1559 16.3177 17.7211Z"
		fill="currentColor"
	/>
</svg>
