<svg
	color="rgb(var(--foreground, 0, 0, 0))"
	viewBox="0 0 15 18"
	fill="none"
	xmlns="http://www.w3.org/2000/svg"
>
	<path
		d="M3.94244 0.5C3.40101 0.5 2.89112 0.598304 2.41277 0.794913C1.93442 0.991522 1.5139 1.26375 1.15119 1.6116C0.793744 1.9544 0.512517 2.35518 0.30751 2.81394C0.102503 3.26765 0 3.75665 0 4.28094C0 4.72961 0.0762204 5.15812 0.228661 5.56646C0.386359 5.96976 0.601878 6.33525 0.875221 6.66293C0.943556 6.73855 1.01452 6.79401 1.08811 6.8293C1.16696 6.86458 1.24318 6.88223 1.31677 6.88223C1.44819 6.88223 1.56383 6.8419 1.66371 6.76124C1.76358 6.67554 1.82141 6.56967 1.83718 6.44364C1.8582 6.31761 1.81352 6.19158 1.70313 6.06555C1.49287 5.82357 1.32729 5.55134 1.20639 5.24886C1.09074 4.94135 1.03292 4.61871 1.03292 4.28094C1.03292 3.76673 1.1617 3.30042 1.41928 2.88199C1.68211 2.45853 2.0343 2.12076 2.47585 1.8687C2.9174 1.61664 3.40626 1.49061 3.94244 1.49061C4.47861 1.49061 4.96484 1.61664 5.40114 1.8687C5.84269 2.12076 6.19225 2.45853 6.44982 2.88199C6.71265 3.30042 6.84407 3.76673 6.84407 4.28094C6.84407 4.30111 6.84407 4.32379 6.84407 4.349C6.84407 4.3742 6.84407 4.40445 6.84407 4.43974C6.84932 4.61114 6.90189 4.73717 7.00177 4.81784C7.1069 4.89345 7.22254 4.93126 7.3487 4.93126C7.4696 4.93126 7.58262 4.89345 7.68775 4.81784C7.79814 4.73717 7.85859 4.63131 7.8691 4.50024C7.87436 4.46999 7.87699 4.43722 7.87699 4.40193C7.87699 4.36664 7.87699 4.32631 7.87699 4.28094C7.87699 3.58525 7.70089 2.95257 7.3487 2.38291C6.99651 1.80821 6.52079 1.35197 5.92154 1.01421C5.32754 0.671403 4.66784 0.5 3.94244 0.5ZM11.3227 17.1135C12.3687 16.7505 13.2019 16.2186 13.8222 15.5179C14.4425 14.8121 14.8183 13.9854 14.9497 13.0376C15.0864 12.0848 14.9445 11.0539 14.5239 9.94479L13.9405 8.39461C13.6303 7.57792 13.1966 7.00826 12.6394 6.68562C12.0823 6.35794 11.4567 6.31005 10.7628 6.54194C10.5789 6.31005 10.3502 6.15881 10.0769 6.08823C9.80352 6.01261 9.51441 6.02774 9.20953 6.1336C8.99401 6.20922 8.789 6.32013 8.59451 6.46633C8.39476 6.21426 8.14507 6.0479 7.84545 5.96724C7.55108 5.88154 7.24357 5.89414 6.92292 6.00505C6.74419 6.07059 6.57861 6.15629 6.42617 6.26215L5.52729 3.90285C5.35908 3.44913 5.08311 3.13658 4.69938 2.96517C4.31565 2.78873 3.90564 2.77613 3.46934 2.92736C3.02253 3.08364 2.70977 3.34831 2.53104 3.72136C2.35758 4.08937 2.35495 4.49772 2.52316 4.94639L4.77035 10.8749C4.78612 10.9203 4.7756 10.948 4.73881 10.9581C4.71252 10.9682 4.68624 10.9606 4.65996 10.9354L3.73743 9.96748C3.50614 9.73558 3.25908 9.58434 2.99625 9.51376C2.73342 9.43815 2.46796 9.44571 2.19988 9.53645C1.84243 9.66248 1.56646 9.87925 1.37197 10.1868C1.18273 10.4943 1.16433 10.8421 1.31677 11.2303C1.35357 11.3412 1.40876 11.4597 1.48236 11.5857C1.55595 11.7067 1.63742 11.8227 1.72679 11.9336L4.36822 14.9961C5.36697 16.1556 6.4472 16.9118 7.6089 17.2647C8.77586 17.6226 10.0138 17.5722 11.3227 17.1135ZM10.9836 16.1228C9.94808 16.4858 8.9467 16.5488 7.97949 16.3119C7.01228 16.075 6.07135 15.4272 5.15671 14.3685L2.51527 11.3211C2.43643 11.2253 2.37597 11.1244 2.33392 11.0186C2.28661 10.8976 2.28924 10.7766 2.34181 10.6556C2.39963 10.5346 2.50213 10.4464 2.64932 10.3909C2.87535 10.3153 3.0935 10.3859 3.30376 10.6027L5.13305 12.41C5.28024 12.5612 5.42216 12.6519 5.55883 12.6822C5.69551 12.7074 5.83218 12.6973 5.96885 12.6519C6.12129 12.5965 6.22642 12.5007 6.28424 12.3646C6.34206 12.2234 6.34206 12.0697 6.28424 11.9033L3.48511 4.53805C3.42729 4.38681 3.42992 4.24817 3.493 4.12214C3.55608 3.99107 3.66384 3.89781 3.81628 3.84235C3.96872 3.79194 4.10802 3.7995 4.23418 3.86504C4.36559 3.92553 4.46021 4.0314 4.51803 4.18264L6.5129 9.43815C6.56021 9.56418 6.64695 9.6524 6.7731 9.70281C6.89926 9.75322 7.02805 9.75574 7.15946 9.71037C7.28562 9.665 7.37761 9.58434 7.43543 9.46839C7.49851 9.35244 7.5064 9.23397 7.45909 9.11298L6.74156 7.21495C6.85721 7.10404 6.99125 7.02086 7.14369 6.96541C7.32767 6.89987 7.49326 6.90491 7.64044 6.98053C7.78762 7.05111 7.89538 7.17966 7.96372 7.36619L8.59451 9.02224C8.64182 9.14827 8.72855 9.2365 8.85471 9.28691C8.98612 9.33228 9.11491 9.33228 9.24107 9.28691C9.36197 9.24658 9.45396 9.17096 9.51704 9.06005C9.58012 8.9441 9.58537 8.82059 9.53281 8.68952L9.02818 7.3435C9.13857 7.2326 9.27261 7.14942 9.43031 7.09396C9.61429 7.02843 9.77987 7.03347 9.92705 7.10909C10.0742 7.17966 10.182 7.30822 10.2503 7.49474L10.6682 8.59878C10.7208 8.72985 10.8102 8.82059 10.9363 8.871C11.0625 8.91638 11.1886 8.91638 11.3148 8.871C11.4357 8.83067 11.5277 8.75506 11.5908 8.64415C11.6538 8.5282 11.6617 8.40469 11.6144 8.27362L11.3069 7.45693C11.6328 7.34098 11.9456 7.40904 12.2452 7.6611C12.5448 7.90812 12.7998 8.31395 13.01 8.87857L13.5068 10.1716C13.8695 11.1244 14.0062 11.9941 13.9168 12.7805C13.8327 13.5669 13.541 14.245 13.0416 14.8146C12.5475 15.3843 11.8615 15.8204 10.9836 16.1228Z"
		fill="currentColor"
	/>
</svg>
