<svg
	color="rgb(var(--foreground, 0, 0, 0))"
	viewBox="0 0 14 18"
	fill="none"
	xmlns="http://www.w3.org/2000/svg"
>
	<path
		d="M6.58132 17.5C7.87626 17.5 8.9454 17.235 9.78874 16.7049C10.6321 16.1748 11.3231 15.3796 11.8617 14.3195C12.0141 14.0226 12.161 13.7125 12.3024 13.3891C12.4439 13.0658 12.5799 12.7292 12.7105 12.3793C12.8411 12.0242 12.9689 11.6558 13.0941 11.2741C13.2247 10.8924 13.3525 10.4975 13.4777 10.0893C13.5484 9.8667 13.6246 9.63346 13.7062 9.38962C13.7878 9.14047 13.8558 8.90989 13.9102 8.69785C13.9701 8.48581 14 8.31618 14 8.18896C14 7.97693 13.9265 7.80465 13.7796 7.67212C13.6327 7.5396 13.445 7.47334 13.2165 7.47334C12.9553 7.47334 12.735 7.55815 12.5554 7.72778C12.3813 7.89741 12.1991 8.17041 12.0086 8.54677L10.8824 10.8686C10.8225 10.9958 10.7599 11.0859 10.6946 11.1389C10.6294 11.1919 10.5641 11.2184 10.4988 11.2184C10.4172 11.2184 10.3437 11.1919 10.2784 11.1389C10.2186 11.0806 10.1995 10.9825 10.2213 10.8447L11.2088 2.55145C11.236 2.29171 11.1762 2.08497 11.0293 1.93124C10.8878 1.77752 10.7164 1.6821 10.5151 1.645C10.3029 1.60789 10.0907 1.64234 9.87851 1.74836C9.67176 1.84908 9.54662 2.02931 9.50309 2.28906L8.4666 8.46726C8.35778 8.42485 8.2408 8.38775 8.11566 8.35594C7.99596 8.32414 7.87082 8.29763 7.74024 8.27643V1.32694C7.74024 1.099 7.65318 0.905519 7.47907 0.746492C7.3104 0.582164 7.10637 0.5 6.86697 0.5C6.62757 0.5 6.42081 0.582164 6.24671 0.746492C6.07804 0.905519 5.9937 1.099 5.9937 1.32694V8.18896C5.86312 8.19956 5.73254 8.21282 5.60196 8.22872C5.47682 8.24462 5.34896 8.26317 5.21837 8.28438L4.37775 2.17774C4.33967 1.89679 4.21997 1.70331 4.01865 1.59729C3.82278 1.48597 3.61603 1.44886 3.39839 1.48597C3.19164 1.51777 3.00665 1.61584 2.84342 1.78017C2.68563 1.9392 2.62306 2.15123 2.65571 2.41628L3.47184 8.82507C3.34126 8.88868 3.2134 8.95494 3.08826 9.02385C2.96856 9.09277 2.85158 9.16168 2.73732 9.23059L1.70083 4.3087C1.64098 4.03835 1.51312 3.85017 1.31724 3.74415C1.12137 3.63814 0.920057 3.60103 0.713303 3.63283C0.511989 3.66994 0.33516 3.77066 0.182814 3.93499C0.0304691 4.09931 -0.0266604 4.3193 0.0114259 4.59495L0.990789 11.9181C1.14858 13.079 1.46143 14.0783 1.92935 14.9158C2.39726 15.7481 3.01753 16.3868 3.79014 16.8321C4.56819 17.2774 5.49858 17.5 6.58132 17.5Z"
		fill="currentColor"
	/>
</svg>
