<svg
	color="rgb(var(--foreground, 0, 0, 0))"
	viewBox="0 0 21 20"
	fill="none"
	xmlns="http://www.w3.org/2000/svg"
>
	<path
		d="M2.60443 7.10041C2.72631 7.12644 2.84312 7.10301 2.95484 7.03014C3.06657 6.95726 3.13513 6.85315 3.16052 6.71781C3.18591 6.58767 3.16306 6.46795 3.09196 6.35863C3.02594 6.24411 2.92437 6.17123 2.78725 6.14L0.585721 5.65589C0.443523 5.62466 0.31656 5.65069 0.204833 5.73397C0.0931059 5.81205 0.0270854 5.92137 0.00677134 6.06192C-0.0135427 6.19205 0.0118499 6.31178 0.0829489 6.4211C0.159127 6.53041 0.260697 6.59808 0.387659 6.62411L2.60443 7.10041ZM3.37382 4.50027C3.46523 4.59918 3.57696 4.64863 3.709 4.64863C3.84612 4.64863 3.96039 4.59918 4.0518 4.50027C4.14321 4.40658 4.18892 4.29205 4.18892 4.15671C4.18892 4.02137 4.14321 3.90425 4.0518 3.80534L2.45207 2.17342C2.35558 2.06932 2.24131 2.01986 2.10927 2.02507C1.98231 2.02507 1.87058 2.07452 1.77409 2.17342C1.68268 2.27233 1.63443 2.38685 1.62935 2.51699C1.62935 2.64712 1.6776 2.76425 1.77409 2.86836L3.37382 4.50027ZM6.20763 3.72726C6.33967 3.70123 6.44378 3.63096 6.51995 3.51644C6.59613 3.39671 6.61899 3.27438 6.58851 3.14945L6.11621 0.892877C6.08574 0.757534 6.01464 0.653425 5.90292 0.580548C5.79119 0.507671 5.67184 0.484247 5.54488 0.510274C5.41792 0.536301 5.31381 0.606575 5.23255 0.721096C5.15637 0.835616 5.13352 0.960548 5.16399 1.09589L5.63629 3.34466C5.66677 3.47479 5.73532 3.5789 5.84197 3.65699C5.9537 3.73507 6.07558 3.75849 6.20763 3.72726ZM9.14046 17.7196C9.73465 18.3286 10.3568 18.7789 11.0068 19.0704C11.6569 19.3619 12.3095 19.5051 12.9646 19.4999C13.6248 19.4947 14.2647 19.3489 14.8843 19.0626C15.5038 18.7763 16.0802 18.3599 16.6135 17.8133C17.4718 16.9388 17.9974 16.033 18.1904 15.096C18.3884 14.1538 18.3046 13.1336 17.939 12.0352C17.8425 11.7229 17.7308 11.4079 17.6038 11.0904C17.4819 10.7677 17.3448 10.4397 17.1924 10.1066C17.0401 9.77342 16.875 9.43247 16.6973 9.0837C16.5195 8.73493 16.3342 8.37315 16.1412 7.99836C16.0396 7.79534 15.933 7.58192 15.8212 7.35808C15.7095 7.13425 15.6003 6.92863 15.4937 6.74123C15.387 6.55384 15.2905 6.41589 15.2042 6.3274C15.0569 6.18164 14.8893 6.11397 14.7014 6.12438C14.5186 6.12959 14.351 6.21027 14.1987 6.36644C14.026 6.54342 13.9371 6.74904 13.932 6.98329C13.932 7.21753 13.9981 7.52986 14.1301 7.92027L14.9604 10.3018C15.0061 10.4267 15.0265 10.5308 15.0214 10.6141C15.0163 10.6922 14.9909 10.7547 14.9452 10.8015C14.8893 10.8588 14.8259 10.8874 14.7548 10.8874C14.6837 10.8822 14.5999 10.8301 14.5034 10.7312L8.85099 4.93753C8.69355 4.77616 8.50057 4.69548 8.27204 4.69548C8.04858 4.69548 7.85814 4.77616 7.70071 4.93753C7.54327 5.10411 7.46456 5.30452 7.46456 5.53877C7.46456 5.76781 7.54327 5.96301 7.70071 6.12438L11.7381 10.2627C11.6365 10.3096 11.535 10.3642 11.4334 10.4267C11.3318 10.484 11.2303 10.549 11.1287 10.6219L6.44378 5.81986C6.28634 5.65329 6.09336 5.57 5.86483 5.57C5.63629 5.57 5.44331 5.65329 5.28588 5.81986C5.12844 5.98123 5.04973 6.17904 5.04973 6.41329C5.04973 6.64233 5.12844 6.83753 5.28588 6.9989L9.91747 11.7463C9.83622 11.84 9.7575 11.9363 9.68132 12.0352C9.61022 12.1341 9.54167 12.233 9.47565 12.3319L5.24017 7.99055C5.07766 7.82918 4.88214 7.74849 4.6536 7.74849C4.43015 7.74849 4.2397 7.82918 4.08227 7.99055C3.92484 8.15192 3.84612 8.34973 3.84612 8.58397C3.84612 8.81822 3.92484 9.01603 4.08227 9.1774L8.6834 13.8936C8.63769 14.0289 8.59706 14.1616 8.56151 14.2918C8.53104 14.4219 8.50311 14.5495 8.47772 14.6744L5.27826 11.3949C5.12083 11.2284 4.92784 11.1451 4.69931 11.1451C4.47586 11.1451 4.28287 11.2284 4.12036 11.3949C3.96293 11.5563 3.88421 11.7541 3.88421 11.9884C3.88421 12.2174 3.96293 12.4126 4.12036 12.574L9.14046 17.7196ZM13.0636 6.47575L11.5629 4.93753C11.4055 4.77616 11.2125 4.69548 10.984 4.69548C10.7554 4.69548 10.5624 4.77616 10.405 4.93753C10.3949 4.94795 10.3847 4.96356 10.3745 4.98438L13.1398 7.82658C13.0941 7.58192 13.0636 7.34767 13.0484 7.12384C13.0331 6.9 13.0382 6.68397 13.0636 6.47575ZM19.3178 17.8211C20.1761 16.9414 20.7017 16.033 20.8947 15.096C21.0927 14.1538 21.0115 13.131 20.6509 12.0274C20.5544 11.7203 20.4427 11.4079 20.3157 11.0904C20.1888 10.7677 20.0491 10.4397 19.8967 10.1066C19.7444 9.77342 19.5793 9.43247 19.4016 9.0837C19.2289 8.73493 19.0436 8.37315 18.8455 7.99836C18.7439 7.79534 18.6373 7.58192 18.5255 7.35808C18.4138 7.13425 18.3021 6.92863 18.1904 6.74123C18.0837 6.55384 17.9872 6.41849 17.9009 6.33521C17.7587 6.18425 17.5962 6.11397 17.4134 6.12438C17.2305 6.12959 17.0604 6.21027 16.903 6.36644C16.8014 6.47055 16.7278 6.59027 16.682 6.72562C16.7684 6.88699 16.8496 7.04836 16.9258 7.20973C17.0071 7.3711 17.0909 7.52986 17.1772 7.68603C17.36 8.04521 17.5378 8.39918 17.7104 8.74795C17.8831 9.09671 18.0431 9.44027 18.1904 9.77863C18.3427 10.117 18.4824 10.4501 18.6093 10.7781C18.7363 11.106 18.8455 11.4262 18.9369 11.7385C19.3584 13.0659 19.4397 14.2918 19.1807 15.4162C18.9217 16.5353 18.3097 17.5842 17.3448 18.5629C17.0198 18.9012 16.6719 19.1953 16.3012 19.4452C16.8446 19.3671 17.3702 19.1901 17.878 18.9142C18.391 18.6384 18.8709 18.274 19.3178 17.8211Z"
		fill="currentColor"
	/>
</svg>
