<svg
	color="rgb(var(--foreground, 0, 0, 0))"
	viewBox="0 0 15 16"
	fill="none"
	xmlns="http://www.w3.org/2000/svg"
>
	<path
		d="M5.49602 13.704C6.11284 14.3158 6.75865 14.7694 7.43347 15.0647C8.10828 15.3601 8.78572 15.5051 9.46581 15.4999C10.1512 15.4946 10.8154 15.3469 11.4586 15.0568C12.1018 14.772 12.7002 14.3527 13.2537 13.7989C14.1447 12.9076 14.6903 11.9872 14.8907 11.0379C15.0963 10.0832 15.0119 9.04686 14.6376 7.92873C14.5374 7.61755 14.4214 7.3011 14.2897 6.97937C14.1579 6.65764 14.0129 6.32801 13.8547 5.99046C13.6966 5.65291 13.5252 5.30745 13.3407 4.95407C13.1615 4.59543 12.969 4.22623 12.7634 3.84649C12.658 3.64079 12.5446 3.42455 12.4234 3.19776C12.3074 2.97097 12.194 2.76527 12.0833 2.58068C11.9726 2.39081 11.8725 2.25104 11.7828 2.16138C11.6352 2.00842 11.4639 1.93722 11.2688 1.94777C11.079 1.95305 10.9051 2.0348 10.7469 2.19302C10.5676 2.36707 10.4754 2.5754 10.4701 2.81802C10.4701 3.05536 10.5387 3.37445 10.6757 3.77529L11.5298 6.18033C11.5825 6.30691 11.6062 6.41239 11.601 6.49678C11.5957 6.57589 11.5693 6.63918 11.5219 6.68665C11.4639 6.74467 11.398 6.77368 11.3242 6.77368C11.2504 6.7684 11.1607 6.71566 11.0553 6.61545L5.20343 0.745251C5.03472 0.58175 4.83175 0.5 4.59451 0.5C4.36255 0.5 4.16485 0.58175 4.00142 0.745251C3.83799 0.914026 3.75627 1.11708 3.75627 1.35442C3.75627 1.58649 3.83799 1.78427 4.00142 1.94777L8.19263 6.14077C8.09246 6.18824 7.98702 6.24362 7.87631 6.30691C7.77087 6.3702 7.66543 6.43613 7.55999 6.50469L2.69661 1.63923C2.53318 1.47046 2.33284 1.38607 2.0956 1.38607C1.85837 1.38607 1.65803 1.47046 1.4946 1.63923C1.33117 1.80273 1.24945 2.00315 1.24945 2.24049C1.24945 2.47256 1.33117 2.67298 1.4946 2.84175L6.29472 7.64392C6.21564 7.73886 6.13656 7.83643 6.05748 7.93664C5.98368 8.03685 5.9125 8.1397 5.84397 8.24518L1.44715 3.83858C1.27845 3.67508 1.07548 3.59333 0.838242 3.59333C0.606276 3.59333 0.408577 3.67508 0.245146 3.83858C0.0817154 4.00735 0 4.21041 0 4.44775C0 4.67981 0.0817154 4.8776 0.245146 5.0411L5.02945 9.81953C4.97673 9.95139 4.93192 10.0859 4.89502 10.223C4.86338 10.3549 4.83439 10.4841 4.80803 10.6107L1.48669 7.28791C1.32326 7.11914 1.12293 7.03475 0.885689 7.03475C0.653723 7.03475 0.453389 7.11914 0.284686 7.28791C0.121255 7.45141 0.0395397 7.65183 0.0395397 7.88917C0.0395397 8.12124 0.121255 8.32166 0.284686 8.49043L5.49602 13.704Z"
		fill="currentColor"
	/>
</svg>
