<svg
	color="rgb(var(--foreground, 0, 0, 0))"
	viewBox="0 0 14 16"
	fill="none"
	xmlns="http://www.w3.org/2000/svg"
>
	<path
		d="M10.2654 15.105C11.3224 14.734 12.1659 14.1905 12.7958 13.4743C13.4311 12.753 13.8155 11.9081 13.9489 10.9395C14.0877 9.96576 13.9436 8.91216 13.5165 7.7787L12.9239 6.19444C12.6036 5.3598 12.1605 4.77761 11.5947 4.44788C11.0288 4.113 10.3962 4.06405 9.69684 4.30105C9.50999 4.06405 9.27777 3.90949 9.00017 3.83736C8.72257 3.76008 8.42895 3.77553 8.11932 3.88373C7.90044 3.96101 7.69225 4.07435 7.49472 4.22377C7.29186 3.96616 7.03828 3.79614 6.73399 3.71371C6.43504 3.62612 6.12273 3.639 5.79709 3.75235C5.61558 3.81933 5.44742 3.90691 5.2926 4.01511L4.37972 1.60393C4.20889 1.14025 3.92862 0.820816 3.53891 0.645645C3.14921 0.465323 2.73014 0.452442 2.2817 0.607005C1.83327 0.766719 1.5183 1.0372 1.33679 1.41846C1.16062 1.79456 1.15796 2.21188 1.32879 2.67041L3.61098 8.72926C3.627 8.77563 3.61632 8.80397 3.57895 8.81427C3.55226 8.82457 3.52557 8.81684 3.49888 8.79108L2.56197 7.80188C2.32708 7.56489 2.07617 7.41033 1.80925 7.3382C1.54233 7.26092 1.27273 7.26864 1.00047 7.36138C0.637455 7.49018 0.357185 7.71172 0.159661 8.026C-0.0325236 8.34028 -0.0512083 8.69577 0.103607 9.09248C0.140977 9.20583 0.197031 9.3269 0.271769 9.4557C0.346508 9.57935 0.429254 9.69785 0.520008 9.8112L3.20259 12.9411C4.2169 14.1261 5.31396 14.8989 6.49376 15.2595C7.6789 15.6253 8.93611 15.5738 10.2654 15.105ZM9.92106 14.0926C8.86938 14.4635 7.8524 14.5279 6.87012 14.2858C5.88784 14.0436 4.93226 13.3816 4.00336 12.2997L1.32078 9.18522C1.23536 9.08733 1.17397 8.98429 1.1366 8.87609C1.08856 8.75244 1.09122 8.62879 1.14461 8.50514C1.19799 8.38149 1.30209 8.29133 1.45691 8.23466C1.68646 8.15738 1.90801 8.22951 2.12155 8.45105L3.97934 10.2981C4.12882 10.4526 4.27295 10.5454 4.41175 10.5763C4.55055 10.602 4.68669 10.5917 4.82015 10.5454C4.9803 10.4887 5.08974 10.3908 5.14846 10.2517C5.20719 10.1074 5.20452 9.9503 5.14046 9.78028L2.30573 2.25309C2.247 2.09853 2.247 1.95685 2.30573 1.82805C2.36979 1.69409 2.47923 1.59878 2.63404 1.54211C2.7942 1.49059 2.93834 1.49831 3.06646 1.56529C3.19992 1.62712 3.29601 1.73531 3.35474 1.88987L5.38069 7.26092C5.42873 7.38972 5.51682 7.47988 5.64494 7.5314C5.77306 7.58292 5.90386 7.5855 6.03732 7.53913C6.16544 7.49276 6.25887 7.41033 6.31759 7.29183C6.37631 7.17333 6.38432 7.05226 6.34161 6.92861L5.6049 4.98885C5.72235 4.8755 5.86115 4.79049 6.0213 4.73382C6.20815 4.66684 6.37631 4.672 6.52579 4.74928C6.67527 4.82141 6.78471 4.95278 6.85411 5.14341L7.49472 6.83587C7.54277 6.96467 7.63085 7.05483 7.75898 7.10635C7.8871 7.15272 8.01522 7.15272 8.14334 7.10635C8.26613 7.06514 8.35955 6.98786 8.42361 6.87451C8.48768 6.75601 8.49568 6.62979 8.44764 6.49583L7.92714 5.12023C8.04458 5.00688 8.18338 4.92187 8.34354 4.8652C8.53038 4.79822 8.69855 4.80337 8.84802 4.88066C8.9975 4.95278 9.10694 5.08416 9.17634 5.27479L9.60075 6.40309C9.65413 6.53705 9.74489 6.62979 9.87301 6.68131C10.0011 6.72768 10.1293 6.72768 10.2574 6.68131C10.3802 6.64009 10.4736 6.56281 10.5376 6.44946C10.6017 6.33097 10.6097 6.20474 10.5617 6.07079L10.2414 5.23615C10.5777 5.11765 10.898 5.1872 11.2023 5.44481C11.5066 5.69726 11.7655 6.112 11.979 6.68904L12.4835 8.01054C12.8465 8.98429 12.9853 9.87302 12.8999 10.6767C12.8145 11.4805 12.5182 12.1734 12.0111 12.7556C11.5039 13.3378 10.8072 13.7835 9.92106 14.0926Z"
		fill="currentColor"
	/>
</svg>
