<svg
	color="rgb(var(--foreground, 0, 0, 0))"
	viewBox="0 0 14 16"
	fill="none"
	xmlns="http://www.w3.org/2000/svg"
>
	<path
		d="M10.2506 15.1183C11.383 14.7179 12.26 14.1551 12.8817 13.43C13.509 12.7048 13.8726 11.8525 13.9725 10.8731C14.0724 9.88818 13.9003 8.80318 13.4562 7.61808L12.915 6.15699C12.7485 5.70784 12.5376 5.34528 12.2822 5.0693C12.0325 4.79331 11.7688 4.60662 11.4913 4.50921C11.2137 4.41181 10.95 4.4064 10.7003 4.49298C10.5282 4.55792 10.4727 4.67156 10.5337 4.8339L10.7752 5.48327C10.8307 5.63479 10.8363 5.76196 10.7918 5.86478C10.753 5.96218 10.6864 6.02982 10.592 6.0677C10.4921 6.10017 10.3922 6.09206 10.2923 6.04335C10.1979 5.98924 10.1202 5.88642 10.0591 5.7349L9.90094 5.31281C9.75662 4.91778 9.52349 4.64179 9.20154 4.48486C8.87959 4.32793 8.54376 4.3117 8.19406 4.43616C7.88877 4.54439 7.78608 4.72838 7.88599 4.98812L8.21071 5.87289C8.27177 6.02441 8.2801 6.15158 8.23569 6.2544C8.19684 6.35181 8.13023 6.41945 8.03586 6.45733C7.93595 6.4898 7.83603 6.48168 7.73612 6.43298C7.6362 6.38427 7.55849 6.28146 7.50298 6.12453L7.19491 5.31281C7.02839 4.86907 6.7897 4.58227 6.47886 4.45239C6.16801 4.31711 5.84051 4.3117 5.49636 4.43616C5.19106 4.54439 5.08837 4.72838 5.18829 4.98812L5.82941 6.71708C5.89047 6.8686 5.89879 6.99577 5.85439 7.09858C5.81553 7.2014 5.74892 7.26904 5.65456 7.30151C5.55464 7.33398 5.45473 7.32586 5.35481 7.27716C5.2549 7.22846 5.17719 7.12564 5.12168 6.96871L2.95686 1.18118C2.85139 0.899788 2.68209 0.704976 2.44896 0.596748C2.22137 0.483108 1.98546 0.469579 1.74123 0.556162C1.48034 0.648156 1.29716 0.810499 1.19169 1.04319C1.09178 1.27047 1.09455 1.52481 1.20002 1.8062L4.36399 10.2805C4.40285 10.3833 4.40285 10.4726 4.36399 10.5484C4.33069 10.6241 4.28073 10.6728 4.21412 10.6945C4.0809 10.7432 3.9338 10.6864 3.77283 10.524L1.63298 8.28369C1.47201 8.12134 1.30826 8.01853 1.14174 7.97523C0.980762 7.93194 0.814237 7.94277 0.642161 8.0077C0.370171 8.0997 0.184218 8.25392 0.0843032 8.47038C-0.0156117 8.68143 -0.0267134 8.89518 0.0509982 9.11163C0.0843032 9.19822 0.123159 9.27398 0.167566 9.33892C0.211972 9.40385 0.256379 9.46338 0.300785 9.51749L2.9402 12.7562C4.05592 14.1199 5.24102 14.9641 6.49551 15.2888C7.75 15.6189 9.00171 15.5621 10.2506 15.1183Z"
		fill="currentColor"
	/>
</svg>
