<svg
	color="rgb(var(--foreground, 0, 0, 0))"
	viewBox="0 0 16 18"
	fill="none"
	xmlns="http://www.w3.org/2000/svg"
>
	<path
		d="M8.55851 17.6992C9.89787 17.6992 11.039 17.3523 11.9819 16.6585L11.1863 15.8618C10.8006 16.1003 10.3827 16.2764 9.9327 16.3902C9.48803 16.5095 9.01657 16.5691 8.51833 16.5691C7.57007 16.5691 6.75306 16.3686 6.0673 15.9675C5.38691 15.5718 4.86188 14.9946 4.49222 14.2358C4.12255 13.4715 3.93772 12.5447 3.93772 11.4553V8.54471L2.87695 7.47154V11.5854C2.87695 12.8537 3.11267 13.9458 3.58413 14.8618C4.06094 15.7724 4.72526 16.4715 5.5771 16.9593C6.42893 17.4526 7.42274 17.6992 8.55851 17.6992ZM13.1793 13.4309L13.9669 14.2276C14.0526 14.0542 14.1356 13.8726 14.216 13.6829C14.2963 13.4932 14.3713 13.2981 14.441 13.0976L15.8553 9.07317C15.9518 8.80217 16 8.542 16 8.29268C15.9946 7.8916 15.858 7.54742 15.5902 7.26016C15.3276 6.9729 14.9633 6.82927 14.4972 6.82927C14.2347 6.82927 13.9883 6.91057 13.7579 7.07317C13.5275 7.23577 13.3454 7.47967 13.2115 7.80488L12.6891 9.09756C12.673 9.1355 12.6489 9.15447 12.6168 9.15447C12.5793 9.15447 12.5605 9.13008 12.5605 9.0813V2.56098C12.5605 2.08943 12.4239 1.71545 12.1507 1.43902C11.8828 1.15718 11.5239 1.01626 11.0738 1.01626C10.9078 1.01626 10.7524 1.04607 10.6077 1.10569C10.4631 1.15989 10.3345 1.24119 10.222 1.34959C10.1684 0.932249 10.0157 0.604336 9.76394 0.365854C9.51214 0.121951 9.18801 0 8.79156 0C8.40047 0 8.07634 0.121951 7.81919 0.365854C7.56203 0.609756 7.40398 0.932249 7.34505 1.33333C7.13611 1.12195 6.87628 1.01626 6.56555 1.01626C6.14766 1.01626 5.81015 1.15176 5.55299 1.42276C5.30119 1.69377 5.17529 2.0542 5.17529 2.50406V3.41463C5.06814 3.29539 4.93688 3.20596 4.78152 3.14634C4.62615 3.08672 4.46275 3.05691 4.29131 3.05691C4.09309 3.05691 3.91361 3.09756 3.75289 3.17886C3.59752 3.26016 3.47162 3.37127 3.37519 3.51219L4.24309 4.39024V4.33333C4.25381 4.26829 4.2806 4.2168 4.32346 4.17886C4.36631 4.14092 4.42257 4.12195 4.49222 4.12195C4.6583 4.12195 4.79491 4.17886 4.90206 4.29268C5.00921 4.40108 5.06278 4.54201 5.06278 4.71545V5.21951L6.08337 6.26016V2.65041C6.08337 2.47696 6.13159 2.33604 6.22803 2.22764C6.32982 2.11924 6.46375 2.06504 6.62983 2.06504C6.79592 2.06504 6.93253 2.11924 7.03968 2.22764C7.14683 2.33604 7.2004 2.47696 7.2004 2.65041V7.38211L8.22099 8.41463V1.65041C8.22099 1.47696 8.27457 1.33333 8.38172 1.21951C8.48887 1.10569 8.62548 1.04878 8.79156 1.04878C8.95228 1.04878 9.08354 1.10569 9.18533 1.21951C9.29248 1.33333 9.34606 1.47696 9.34606 1.65041V8.45528C9.34606 8.59621 9.39427 8.71545 9.49071 8.81301C9.5925 8.90515 9.71304 8.95122 9.85234 8.95122C9.99163 8.95122 10.1122 8.90515 10.214 8.81301C10.3158 8.71545 10.3666 8.59621 10.3666 8.45528V2.65041C10.3666 2.47696 10.4175 2.33604 10.5193 2.22764C10.6265 2.11924 10.7631 2.06504 10.9292 2.06504C11.0953 2.06504 11.2292 2.11924 11.331 2.22764C11.4381 2.33604 11.4917 2.47696 11.4917 2.65041V10.6585C11.4917 10.8428 11.5453 10.9973 11.6524 11.122C11.7596 11.2412 11.8962 11.3008 12.0623 11.3008C12.2069 11.3008 12.3382 11.2629 12.4561 11.187C12.5793 11.1057 12.6864 10.9648 12.7775 10.7642L13.9106 8.21138C13.991 8.02168 14.0954 7.88889 14.224 7.81301C14.3579 7.73713 14.4999 7.72629 14.6499 7.78049C14.8053 7.82927 14.9071 7.92954 14.9553 8.0813C15.0035 8.22764 14.9928 8.4065 14.9232 8.61789L13.4606 12.7561C13.4177 12.8753 13.3722 12.9919 13.324 13.1057C13.2811 13.2195 13.2329 13.3279 13.1793 13.4309ZM14.4571 17.8211C14.5749 17.9404 14.7196 18 14.891 18C15.0678 18 15.2151 17.9404 15.333 17.8211C15.4509 17.6965 15.5098 17.5474 15.5098 17.374C15.5098 17.2005 15.4509 17.0542 15.333 16.935L1.05274 2.49593C0.934874 2.37669 0.787544 2.31707 0.610748 2.31707C0.43931 2.31707 0.291981 2.37669 0.168759 2.49593C0.0562531 2.61518 0 2.76423 0 2.94309C0 3.11653 0.0562531 3.26287 0.168759 3.38211L14.4571 17.8211Z"
		fill="currentColor"
	/>
</svg>
