<svg
	color="rgb(var(--foreground, 0, 0, 0))"
	viewBox="0 0 17 16"
	fill="none"
	xmlns="http://www.w3.org/2000/svg"
>
	<path
		d="M3.84629 2.05783C3.07546 2.53945 2.40163 3.15365 1.82482 3.90043C1.24801 4.64179 0.799671 5.48868 0.479802 6.44109C0.159934 7.39351 0 8.42438 0 9.53373C0 9.67984 0.0498156 9.807 0.149447 9.91523C0.254322 10.0235 0.374928 10.0749 0.511265 10.0695C0.647602 10.064 0.760343 10.0126 0.849486 9.91523C0.93863 9.81783 0.985824 9.69607 0.991067 9.54996C1.02253 8.09429 1.32405 6.80907 1.89561 5.69432C2.46718 4.57956 3.23539 3.7002 4.20024 3.05624L3.84629 2.05783ZM13.4581 15.1183C14.5278 14.7179 15.3563 14.1551 15.9436 13.43C16.5361 12.7048 16.8796 11.8525 16.974 10.8731C17.0684 9.88818 16.9058 8.80318 16.4863 7.61808L15.9751 6.15699C15.8125 5.70784 15.6132 5.34528 15.3773 5.0693C15.1413 4.79331 14.8922 4.60662 14.63 4.50921C14.3679 4.41181 14.1188 4.4064 13.8828 4.49298C13.715 4.55792 13.66 4.67156 13.7176 4.8339L13.9457 5.48327C14.0034 5.63479 14.0113 5.76196 13.9693 5.86478C13.9326 5.96218 13.8697 6.02982 13.7806 6.0677C13.6862 6.10017 13.5918 6.09206 13.4974 6.04335C13.403 5.98924 13.3296 5.88642 13.2772 5.7349L13.1277 5.31281C12.9861 4.91778 12.7633 4.64179 12.4591 4.48486C12.1602 4.32793 11.8456 4.31169 11.5153 4.43616C11.2269 4.54439 11.1272 4.72838 11.2164 4.98812L11.531 5.87289C11.5834 6.02441 11.5913 6.15158 11.5546 6.2544C11.5179 6.3518 11.455 6.41945 11.3658 6.45733C11.2662 6.4898 11.1692 6.48168 11.0748 6.43298C10.9856 6.37886 10.9122 6.27604 10.8545 6.12452L10.5714 5.31281C10.4141 4.86907 10.186 4.58227 9.88708 4.45239C9.59343 4.31711 9.28667 4.31169 8.9668 4.43616C8.67839 4.54439 8.57876 4.72838 8.66791 4.98812L9.28142 6.71708C9.33386 6.8686 9.34173 6.99576 9.30502 7.09858C9.26832 7.2014 9.20539 7.26904 9.11625 7.30151C9.01662 7.33398 8.91961 7.32586 8.82522 7.27716C8.73608 7.22846 8.66266 7.12564 8.60498 6.96871L6.56779 1.18118C6.46816 0.899788 6.30822 0.704976 6.08799 0.596748C5.87299 0.483108 5.65013 0.469579 5.41941 0.556162C5.16771 0.648156 4.99467 0.810499 4.90028 1.04319C4.80589 1.27047 4.80851 1.52481 4.90814 1.8062L7.89708 10.2805C7.93378 10.3833 7.93378 10.4726 7.89708 10.5484C7.86561 10.6241 7.81842 10.6728 7.7555 10.6945C7.6244 10.7432 7.48544 10.6864 7.33862 10.524L5.31716 8.28369C5.16509 8.12134 5.0104 8.01853 4.85308 7.97523C4.70102 7.93194 4.54108 7.94277 4.37328 8.0077C4.12158 8.0997 3.94592 8.25392 3.84629 8.47038C3.7519 8.68143 3.74403 8.89518 3.82269 9.11163C3.85415 9.19822 3.88824 9.27398 3.92494 9.33892C3.96689 9.40385 4.00884 9.46338 4.05079 9.51749L6.55206 12.7562C7.60605 14.1199 8.72559 14.9641 9.91067 15.2888C11.0958 15.6189 12.2782 15.5621 13.4581 15.1183Z"
		fill="currentColor"
	/>
</svg>
