<svg
	color="rgb(var(--foreground, 0, 0, 0))"
	viewBox="0 0 14 20"
	fill="none"
	xmlns="http://www.w3.org/2000/svg"
>
	<path
		d="M7.88085 20C9.00854 20 9.96474 19.7723 10.7494 19.3168C11.5393 18.8614 12.1396 18.2018 12.5501 17.338C12.9607 16.4743 13.1659 15.4352 13.1659 14.2207V12.713C13.1659 12.2523 13.101 11.8571 12.971 11.5273C12.8411 11.1923 12.6696 10.9357 12.4566 10.7578C12.2435 10.5798 12.0122 10.4908 11.7628 10.4908C11.5913 10.4908 11.5056 10.5745 11.5056 10.742V11.4095C11.5056 11.5665 11.4692 11.6843 11.3964 11.7629C11.3289 11.8414 11.2483 11.8806 11.1548 11.8806C11.0561 11.8806 10.9703 11.8414 10.8975 11.7629C10.83 11.6843 10.7962 11.5665 10.7962 11.4095V10.9698C10.7962 10.5667 10.6793 10.2421 10.4454 9.99607C10.2168 9.75003 9.92836 9.62701 9.58018 9.62701C9.27357 9.62701 9.12027 9.7605 9.12027 10.0275V10.9384C9.12027 11.0954 9.08649 11.2132 9.01893 11.2917C8.95137 11.3702 8.87082 11.4095 8.77728 11.4095C8.67335 11.4095 8.585 11.3702 8.51225 11.2917C8.44469 11.2132 8.41091 11.0954 8.41091 10.9384V10.0982C8.41091 9.64272 8.29399 9.30507 8.06013 9.0852C7.83148 8.86533 7.54826 8.7554 7.21047 8.7554C6.90386 8.7554 6.75056 8.88889 6.75056 9.15587V10.9384C6.75056 11.0954 6.71418 11.2132 6.64143 11.2917C6.57387 11.3702 6.49332 11.4095 6.39978 11.4095C6.30104 11.4095 6.21529 11.3702 6.14254 11.2917C6.07498 11.2132 6.0412 11.0954 6.0412 10.9384V4.97841C6.0412 4.69049 5.95806 4.46015 5.79176 4.2874C5.62546 4.10941 5.42019 4.02042 5.17595 4.02042C4.91091 4.02042 4.69525 4.10941 4.52895 4.2874C4.36785 4.46015 4.2873 4.69049 4.2873 4.97841V13.7024C4.2873 13.8123 4.25872 13.8961 4.20156 13.9537C4.14959 14.006 4.08983 14.0322 4.02227 14.0322C3.88716 14.0322 3.77543 13.9327 3.68708 13.7338L2.5412 11.009C2.45286 10.8101 2.34373 10.6661 2.21381 10.5771C2.08389 10.4829 1.93059 10.4358 1.7539 10.4358C1.48886 10.4358 1.2758 10.5169 1.1147 10.6792C0.958797 10.8363 0.880846 11.0247 0.880846 11.2446C0.880846 11.3388 0.888641 11.4226 0.904232 11.4959C0.919822 11.5692 0.93801 11.6372 0.958797 11.7L2.2216 15.4927C2.75687 17.0946 3.52079 18.2463 4.51336 18.9478C5.51114 19.6493 6.63363 20 7.88085 20ZM1.20045 6.03062C1.54343 6.03062 1.83185 5.91022 2.0657 5.66941C2.30475 5.42861 2.42428 5.13807 2.42428 4.7978C2.42428 4.46277 2.30475 4.17485 2.0657 3.93404C1.83185 3.69323 1.54343 3.57283 1.20045 3.57283C0.867854 3.57283 0.584633 3.69323 0.35078 3.93404C0.116926 4.17485 0 4.46277 0 4.7978C0 5.13807 0.116926 5.42861 0.35078 5.66941C0.584633 5.91022 0.867854 6.03062 1.20045 6.03062ZM5.17595 2.45779C5.51373 2.45779 5.80215 2.33739 6.0412 2.09658C6.28025 1.85578 6.39978 1.56524 6.39978 1.22497C6.39978 0.889936 6.28025 0.602015 6.0412 0.361209C5.80215 0.120403 5.51373 0 5.17595 0C4.84336 0 4.55754 0.120403 4.31849 0.361209C4.07944 0.602015 3.95991 0.889936 3.95991 1.22497C3.95991 1.56524 4.07944 1.85578 4.31849 2.09658C4.55754 2.33739 4.84336 2.45779 5.17595 2.45779ZM9.19042 6.03062C9.52821 6.03062 9.81663 5.91022 10.0557 5.66941C10.2947 5.42861 10.4143 5.13807 10.4143 4.7978C10.4143 4.46277 10.2947 4.17485 10.0557 3.93404C9.81663 3.69323 9.52821 3.57283 9.19042 3.57283C8.85783 3.57283 8.57201 3.69323 8.33296 3.93404C8.09391 4.17485 7.97439 4.46277 7.97439 4.7978C7.97439 5.13807 8.09391 5.42861 8.33296 5.66941C8.57201 5.91022 8.85783 6.03062 9.19042 6.03062ZM12.7762 6.03062C13.114 6.03062 13.4024 5.91022 13.6414 5.66941C13.8805 5.42861 14 5.13807 14 4.7978C14 4.46277 13.8805 4.17485 13.6414 3.93404C13.4024 3.69323 13.114 3.57283 12.7762 3.57283C12.4436 3.57283 12.1578 3.69323 11.9187 3.93404C11.6849 4.17485 11.5679 4.46277 11.5679 4.7978C11.5679 5.13807 11.6849 5.42861 11.9187 5.66941C12.1578 5.91022 12.4436 6.03062 12.7762 6.03062ZM12.7762 2.45779C13.114 2.45779 13.4024 2.33739 13.6414 2.09658C13.8805 1.85578 14 1.56524 14 1.22497C14 0.889936 13.8805 0.602015 13.6414 0.361209C13.4024 0.120403 13.114 0 12.7762 0C12.4436 0 12.1578 0.120403 11.9187 0.361209C11.6849 0.602015 11.5679 0.889936 11.5679 1.22497C11.5679 1.56524 11.6849 1.85578 11.9187 2.09658C12.1578 2.33739 12.4436 2.45779 12.7762 2.45779Z"
		fill="currentColor"
	/>
</svg>
