<svg
	color="rgb(var(--foreground, 0, 0, 0))"
	viewBox="0 0 15 16"
	fill="none"
	xmlns="http://www.w3.org/2000/svg"
>
	<path
		d="M13.2636 13.809C14.2358 12.8505 14.7999 11.7818 14.9559 10.6028C15.1118 9.41882 14.8545 8.13483 14.1838 6.7509L12.4292 3.10654C12.3044 2.85538 12.1589 2.64779 11.9925 2.48377C11.7014 2.19673 11.366 2.05833 10.9865 2.06859C10.607 2.07371 10.2769 2.21467 9.99615 2.49145C9.80379 2.6811 9.68162 2.91176 9.62963 3.18342C9.58284 3.44996 9.62183 3.73443 9.74661 4.03685L10.2691 5.26701C10.2847 5.30289 10.2821 5.33108 10.2613 5.35159C10.2353 5.37721 10.2041 5.37465 10.1677 5.3439L5.74609 0.984503C5.42376 0.666711 5.07543 0.505252 4.70112 0.500126C4.3268 0.495 3.98627 0.646208 3.67954 0.953749C3.56517 1.06139 3.47679 1.1844 3.4144 1.3228C3.35721 1.45607 3.32602 1.59702 3.32082 1.74567C2.99849 1.50476 2.66836 1.38943 2.33044 1.39968C1.99771 1.40993 1.69618 1.54833 1.42584 1.81486C1.1555 2.0814 1.01513 2.38381 1.00473 2.72211C0.994333 3.05528 1.10351 3.37563 1.33226 3.68318C1.04632 3.68318 0.796777 3.79081 0.583623 4.00609C0.297686 4.28801 0.159917 4.6058 0.170315 4.95947C0.180712 5.31314 0.336678 5.63862 0.638211 5.93591L1.25428 6.54331C1.10351 6.53818 0.952742 6.56894 0.801975 6.63557C0.656407 6.7022 0.526436 6.7919 0.412061 6.90467C0.219704 7.09432 0.0949311 7.30447 0.0377437 7.53513C-0.0194437 7.76578 -0.0116454 7.999 0.0611385 8.23478C0.139121 8.46544 0.27949 8.68328 0.482246 8.88831L5.2236 13.5629C6.08141 14.4087 6.98341 14.9751 7.92961 15.2621C8.8758 15.5543 9.80639 15.5773 10.7214 15.3313C11.6416 15.0853 12.489 14.5778 13.2636 13.809ZM12.476 13.0862C11.8261 13.727 11.1295 14.1447 10.3861 14.3395C9.64783 14.5342 8.89399 14.5009 8.12456 14.2395C7.35513 13.9781 6.6013 13.4835 5.86306 12.7556L1.29327 8.25016C1.17369 8.13227 1.11131 8.00413 1.10611 7.86573C1.10091 7.72221 1.1555 7.59407 1.26987 7.48131C1.38425 7.36854 1.51422 7.31216 1.65979 7.31216C1.81055 7.31216 1.94312 7.37111 2.0575 7.489L4.88048 10.2646C4.97926 10.3671 5.09363 10.4158 5.2236 10.4106C5.35877 10.4004 5.47055 10.3517 5.55893 10.2646C5.65771 10.1723 5.70969 10.0595 5.71489 9.92626C5.72529 9.79299 5.6785 9.67766 5.57452 9.58027L1.36345 5.42078C1.24388 5.30289 1.18149 5.17475 1.17629 5.03636C1.17109 4.89284 1.22568 4.76726 1.34006 4.65962C1.45443 4.54685 1.5844 4.49047 1.72997 4.49047C1.88074 4.49047 2.01591 4.54685 2.13548 4.65962L6.06582 8.54232C6.16979 8.63971 6.28677 8.68584 6.41674 8.68072C6.55191 8.67559 6.66368 8.6269 6.75207 8.53463C6.84564 8.44237 6.89503 8.32961 6.90023 8.19634C6.91063 8.06307 6.86644 7.94774 6.76766 7.85036L2.15108 3.29875C2.0315 3.18086 1.96912 3.05015 1.96392 2.90663C1.96392 2.75799 2.02111 2.62985 2.13548 2.52221C2.24466 2.40944 2.37203 2.35562 2.5176 2.36075C2.66836 2.36587 2.80353 2.42482 2.92311 2.53759L7.53969 7.08919C7.63327 7.18658 7.74505 7.23527 7.87502 7.23527C8.01019 7.23015 8.12456 7.18145 8.21814 7.08919C8.31692 6.9918 8.36891 6.87648 8.37411 6.74321C8.37931 6.60994 8.33512 6.49718 8.24154 6.40491L4.3034 2.52221C4.18383 2.40432 4.12404 2.27361 4.12404 2.13009C4.12404 1.98657 4.17863 1.85843 4.28781 1.74567C4.40218 1.6329 4.53215 1.57908 4.67772 1.58421C4.82329 1.58933 4.95586 1.64828 5.07543 1.76104L10.503 7.11226C10.6382 7.25065 10.7812 7.32241 10.9319 7.32754C11.0827 7.32754 11.2153 7.27115 11.3297 7.15839C11.4284 7.061 11.4934 6.94567 11.5246 6.81241C11.5558 6.67914 11.5324 6.51255 11.4544 6.31265L10.4796 3.79081C10.4121 3.61654 10.4043 3.46533 10.4562 3.33719C10.5082 3.20392 10.6018 3.10654 10.737 3.04503C10.8826 2.97839 11.0177 2.97839 11.1425 3.04503C11.2725 3.10654 11.3816 3.22955 11.47 3.41408L13.2792 7.18145C13.8823 8.44237 14.0902 9.55208 13.9031 10.5106C13.7211 11.4691 13.2454 12.3276 12.476 13.0862Z"
		fill="currentColor"
	/>
</svg>
