<svg
	color="rgb(var(--foreground, 0, 0, 0))"
	viewBox="0 0 18 20"
	fill="none"
	xmlns="http://www.w3.org/2000/svg"
>
	<path
		d="M11.7332 5.34483C11.8791 5.34483 11.9573 5.27236 11.9677 5.12744C12.025 4.68766 12.085 4.34283 12.1475 4.09295C12.21 3.84308 12.309 3.65567 12.4445 3.53073C12.58 3.4008 12.7807 3.30335 13.0464 3.23838C13.3174 3.16842 13.6848 3.09595 14.1486 3.02099C14.3102 3.006 14.391 2.93353 14.391 2.8036C14.391 2.67866 14.3206 2.6062 14.1799 2.58621C13.7109 2.50125 13.3409 2.42629 13.0699 2.36132C12.7989 2.29135 12.5931 2.1939 12.4524 2.06897C12.3117 1.94403 12.21 1.75912 12.1475 1.51424C12.085 1.26937 12.025 0.927036 11.9677 0.487256C11.9573 0.342329 11.8791 0.269865 11.7332 0.269865C11.5977 0.269865 11.5247 0.33983 11.5143 0.47976C11.4518 0.924538 11.3893 1.27436 11.3267 1.52924C11.2642 1.78411 11.1652 1.97651 11.0297 2.10645C10.8942 2.23638 10.6909 2.33383 10.42 2.3988C10.149 2.45877 9.77376 2.52124 9.29432 2.58621C9.23179 2.5912 9.17967 2.61369 9.13798 2.65367C9.1015 2.69365 9.08326 2.74363 9.08326 2.8036C9.08326 2.93353 9.15362 3.006 9.29432 3.02099C9.77376 3.11094 10.149 3.1909 10.42 3.26087C10.6909 3.33083 10.8916 3.42829 11.0219 3.55322C11.1574 3.67816 11.2564 3.86557 11.3189 4.11544C11.3867 4.36032 11.4518 4.70265 11.5143 5.14243C11.5195 5.2024 11.543 5.25237 11.5847 5.29235C11.6264 5.32734 11.6759 5.34483 11.7332 5.34483ZM6.50368 3.32084C6.59748 3.32084 6.65741 3.27336 6.68347 3.17841C6.75643 2.8036 6.82157 2.53623 6.87889 2.37631C6.94143 2.21139 7.05608 2.09895 7.22284 2.03898C7.39481 1.97401 7.67882 1.90655 8.07488 1.83658C8.18432 1.81159 8.23904 1.75412 8.23904 1.66417C8.23904 1.56922 8.18432 1.50925 8.07488 1.48426C7.77784 1.42929 7.54854 1.37931 7.38699 1.33433C7.22544 1.28936 7.10558 1.22689 7.02741 1.14693C6.94924 1.06697 6.88671 0.949525 6.83981 0.794603C6.79812 0.63968 6.746 0.424788 6.68347 0.149925C6.65741 0.049975 6.59748 0 6.50368 0C6.40467 0 6.34474 0.049975 6.32389 0.149925C6.26136 0.424788 6.20664 0.63968 6.15974 0.794603C6.11804 0.949525 6.05551 1.06697 5.97213 1.14693C5.89396 1.22689 5.7741 1.28936 5.61255 1.33433C5.451 1.37931 5.2217 1.42929 4.92466 1.48426C4.81522 1.50925 4.76051 1.56922 4.76051 1.66417C4.76051 1.75412 4.81522 1.81159 4.92466 1.83658C5.2217 1.89155 5.451 1.94153 5.61255 1.98651C5.77931 2.03148 5.90178 2.09395 5.97995 2.17391C6.06333 2.24888 6.12586 2.36632 6.16755 2.52624C6.21445 2.68116 6.26657 2.89855 6.32389 3.17841C6.34474 3.27336 6.40467 3.32084 6.50368 3.32084ZM2.24346 20C2.35289 20 2.41803 19.9425 2.43888 19.8276C2.51184 19.4628 2.57698 19.1754 2.6343 18.9655C2.69163 18.7556 2.77501 18.5957 2.88444 18.4858C2.99388 18.3808 3.15804 18.2959 3.37691 18.2309C3.601 18.1709 3.91367 18.1059 4.31494 18.036C4.4348 18.006 4.49473 17.941 4.49473 17.8411C4.49473 17.7361 4.4348 17.6737 4.31494 17.6537C3.91888 17.5787 3.61142 17.5087 3.39254 17.4438C3.17367 17.3788 3.00952 17.2914 2.90008 17.1814C2.79064 17.0765 2.70726 16.919 2.64994 16.7091C2.59261 16.5042 2.52226 16.2194 2.43888 15.8546C2.41803 15.7396 2.35289 15.6822 2.24346 15.6822C2.14444 15.6822 2.0793 15.7396 2.04803 15.8546C1.96986 16.2194 1.90212 16.5042 1.84479 16.7091C1.78747 16.919 1.70409 17.0765 1.59465 17.1814C1.49043 17.2914 1.32888 17.3788 1.11 17.4438C0.891129 17.5087 0.581058 17.5787 0.179789 17.6537C0.0599297 17.6737 0 17.7361 0 17.8411C0 17.941 0.0599297 18.006 0.179789 18.036C0.581058 18.1109 0.891129 18.1784 1.11 18.2384C1.33409 18.3033 1.50085 18.3883 1.61029 18.4933C1.71972 18.6032 1.8005 18.7606 1.85261 18.9655C1.90993 19.1754 1.97508 19.4628 2.04803 19.8276C2.0793 19.9425 2.14444 20 2.24346 20ZM14.2659 17.8561C15.2404 16.9265 15.8032 15.8846 15.9543 14.7301C16.1107 13.5757 15.8553 12.3263 15.1883 10.982L13.4295 7.42129C13.3044 7.17641 13.1585 6.97401 12.9917 6.81409C12.6999 6.53423 12.3638 6.3993 11.9833 6.40929C11.6029 6.41429 11.272 6.55422 10.9906 6.82909C10.7978 7.00899 10.6753 7.23138 10.6232 7.49625C10.5763 7.75612 10.6154 8.03598 10.7405 8.33583L11.2642 9.52774C11.2798 9.56272 11.2772 9.5902 11.2564 9.61019C11.2251 9.63518 11.1938 9.63268 11.1626 9.6027L6.73037 5.35232C6.40727 5.04248 6.05812 4.88756 5.6829 4.88756C5.30769 4.88256 4.96635 5.02749 4.65889 5.32234C4.54424 5.43228 4.45565 5.55472 4.39311 5.68965C4.33058 5.81959 4.29931 5.95452 4.29931 6.09445C3.97621 5.85957 3.64529 5.74713 3.30656 5.75712C2.97304 5.76712 2.66818 5.90455 2.39198 6.16942C2.1262 6.42429 1.9855 6.71664 1.96986 7.04648C1.95944 7.37131 2.07148 7.68366 2.30599 7.98351C2.01937 7.98851 1.76923 8.09345 1.55557 8.29835C1.26895 8.57321 1.13085 8.88306 1.14127 9.22789C1.15169 9.57271 1.30803 9.89255 1.61029 10.1874L2.22782 10.7721C2.0767 10.7721 1.92557 10.8046 1.77444 10.8696C1.62853 10.9295 1.49564 11.017 1.37578 11.1319C1.08916 11.4068 0.951059 11.7241 0.961482 12.084C0.977115 12.4388 1.14127 12.7636 1.45395 13.0585L6.20664 17.6162C7.0665 18.4408 7.97066 18.9955 8.91911 19.2804C9.86756 19.5652 10.8004 19.5852 11.7176 19.3403C12.64 19.1004 13.4894 18.6057 14.2659 17.8561ZM13.4764 17.1514C12.825 17.7761 12.1267 18.1834 11.3814 18.3733C10.6414 18.5632 9.8858 18.5307 9.11453 18.2759C8.34326 18.026 7.58763 17.5437 6.84762 16.8291L2.25909 12.4363C2.14444 12.3213 2.08451 12.1964 2.0793 12.0615C2.07409 11.9215 2.12881 11.7966 2.24346 11.6867C2.3581 11.5817 2.48839 11.5292 2.6343 11.5292C2.78543 11.5292 2.91832 11.5842 3.03297 11.6942L5.85488 14.4078C5.9591 14.5027 6.07635 14.5477 6.20664 14.5427C6.34213 14.5327 6.45417 14.4853 6.54276 14.4003C6.63657 14.3103 6.68868 14.2004 6.6991 14.0705C6.70953 13.9405 6.66262 13.8281 6.5584 13.7331L2.33726 9.67766C2.2174 9.56772 2.15487 9.44528 2.14965 9.31034C2.14444 9.17041 2.19916 9.04548 2.31381 8.93553C2.42846 8.82559 2.55874 8.77061 2.70466 8.77061C2.85578 8.77061 2.99128 8.82809 3.11114 8.94303L7.05086 12.7211C7.14988 12.8211 7.26453 12.8686 7.39481 12.8636C7.5303 12.8536 7.64495 12.8036 7.73875 12.7136C7.83256 12.6237 7.88206 12.5162 7.88728 12.3913C7.8977 12.2614 7.8534 12.1464 7.75439 12.0465L3.12677 7.6087C3.00691 7.49875 2.94437 7.37381 2.93916 7.23388C2.93916 7.08896 2.99649 6.96152 3.11114 6.85157C3.22057 6.74163 3.34825 6.68915 3.49416 6.69415C3.64529 6.69915 3.78079 6.75912 3.90064 6.87406L8.52826 11.3118C8.62207 11.4018 8.73411 11.4468 8.86439 11.4468C8.99988 11.4418 9.11453 11.3943 9.20833 11.3043C9.30735 11.2094 9.35946 11.097 9.36467 10.967C9.36988 10.8371 9.32298 10.7271 9.22397 10.6372L5.28424 6.85157C5.16438 6.74163 5.10184 6.61669 5.09663 6.47676C5.09663 6.33683 5.15396 6.21189 5.26861 6.10195C5.38325 5.992 5.51354 5.93953 5.65945 5.94453C5.80537 5.94453 5.93826 6.002 6.05812 6.11694L11.4987 11.3343C11.6342 11.4643 11.7775 11.5317 11.9286 11.5367C12.0798 11.5367 12.2126 11.4818 12.3273 11.3718C12.4263 11.2769 12.4914 11.1644 12.5227 11.0345C12.554 10.9045 12.5305 10.7446 12.4524 10.5547L11.4752 8.08846C11.4075 7.92354 11.3997 7.77611 11.4518 7.64618C11.5039 7.51624 11.5977 7.42129 11.7332 7.36132C11.8791 7.29635 12.0146 7.29635 12.1397 7.36132C12.2648 7.42129 12.3716 7.54123 12.4602 7.72114L14.2737 11.4018C14.8834 12.6312 15.0945 13.7131 14.9069 14.6477C14.7245 15.5772 14.2476 16.4118 13.4764 17.1514ZM6.66002 4.64768C6.54537 4.75262 6.45678 4.87256 6.39424 5.0075C6.33171 5.14243 6.29783 5.27986 6.29262 5.41979L7.27755 6.17691C7.16291 6.06697 7.10298 5.94203 7.09777 5.8021C7.09777 5.65717 7.15509 5.52973 7.26974 5.41979C7.38439 5.30984 7.51467 5.25737 7.66058 5.26237C7.8065 5.26737 7.93678 5.32734 8.05143 5.44228L10.7092 7.991L11.3424 7.18141L8.72369 4.67766C8.40059 4.36782 8.05143 4.21289 7.67622 4.21289C7.30622 4.2079 6.96748 4.35282 6.66002 4.64768ZM16.2592 17.1889C17.2337 16.2544 17.7991 15.2124 17.9555 14.063C18.1118 12.9085 17.8565 11.6567 17.1894 10.3073L15.4228 6.73913C15.2612 6.40929 15.0502 6.15942 14.7896 5.9895C14.5291 5.81959 14.2398 5.73463 13.9219 5.73463C13.7969 5.73463 13.6536 5.75712 13.492 5.8021C13.3357 5.84708 13.1845 5.92204 13.0386 6.02699C12.8979 6.12694 12.7807 6.26187 12.6869 6.43178C12.5931 6.6017 12.5462 6.80909 12.5462 7.05397C12.5462 7.14393 12.5514 7.22889 12.5618 7.30885L13.4842 7.55622C13.4321 7.44628 13.406 7.33883 13.406 7.23388C13.406 7.11394 13.4555 7.004 13.5545 6.90405C13.6536 6.8041 13.7864 6.75412 13.9532 6.75412C14.1929 6.75412 14.3753 6.88156 14.5004 7.13643L16.2748 10.7271C16.8793 11.9515 17.0904 13.031 16.908 13.9655C16.7256 14.9 16.2462 15.7346 15.4697 16.4693C14.8391 17.074 14.1695 17.4738 13.4607 17.6687L12.3195 18.8231C13.023 18.8431 13.7083 18.7156 14.3753 18.4408C15.0476 18.1659 15.6755 17.7486 16.2592 17.1889Z"
		fill="currentColor"
	/>
</svg>
