<svg
	color="rgb(var(--foreground, 0, 0, 0))"
	viewBox="0 0 15 18"
	fill="none"
	xmlns="http://www.w3.org/2000/svg"
>
	<path
		d="M3.90158 0.5C3.36576 0.5 2.86116 0.600362 2.38777 0.801087C1.91438 1.00181 1.4982 1.27974 1.13926 1.63487C0.785514 1.98485 0.507203 2.39402 0.304322 2.86238C0.101441 3.32559 0 3.82482 0 4.36009C0 4.81815 0.0754302 5.25563 0.22629 5.67252C0.382353 6.08426 0.595638 6.45741 0.866146 6.79195C0.933773 6.86915 1.004 6.92576 1.07683 6.96179C1.15486 6.99782 1.23029 7.01583 1.30312 7.01583C1.43317 7.01583 1.54763 6.97466 1.64647 6.89231C1.74531 6.80481 1.80254 6.69673 1.81814 6.56806C1.83895 6.43939 1.79473 6.31072 1.68549 6.18205C1.47741 5.93501 1.31353 5.65708 1.19388 5.34827C1.07943 5.03432 1.02221 4.70493 1.02221 4.36009C1.02221 3.83512 1.14966 3.35904 1.40456 2.93186C1.66467 2.49953 2.01322 2.15469 2.45019 1.89735C2.88717 1.64001 3.37096 1.51134 3.90158 1.51134C4.43219 1.51134 4.91338 1.64001 5.34515 1.89735C5.78213 2.15469 6.12807 2.49953 6.38297 2.93186C6.64307 3.35904 6.77312 3.83512 6.77312 4.36009C6.77312 4.38068 6.77312 4.40384 6.77312 4.42957C6.77312 4.45531 6.77312 4.48619 6.77312 4.52221C6.77833 4.6972 6.83035 4.82587 6.92919 4.90822C7.03323 4.98543 7.14767 5.02403 7.27252 5.02403C7.39217 5.02403 7.50402 4.98543 7.60806 4.90822C7.7173 4.82587 7.77712 4.71779 7.78753 4.58398C7.79273 4.5531 7.79533 4.51964 7.79533 4.48361C7.79533 4.44759 7.79533 4.40641 7.79533 4.36009C7.79533 3.64983 7.62106 3.00391 7.27252 2.42233C6.92398 1.83559 6.4532 1.36981 5.86016 1.02497C5.27232 0.674991 4.61946 0.5 3.90158 0.5ZM11.4862 17.137C12.5474 16.7561 13.3694 16.2209 13.952 15.5312C14.5398 14.8415 14.8806 14.0309 14.9742 13.0993C15.0678 12.1626 14.9066 11.1307 14.4904 10.0035L13.9832 8.61391C13.8271 8.18673 13.6295 7.84189 13.3902 7.57941C13.1561 7.31692 12.909 7.13936 12.6489 7.04671C12.3888 6.95407 12.1417 6.94892 11.9076 7.03127C11.7411 7.09303 11.6865 7.20112 11.7437 7.35552L11.9778 7.97314C12.0298 8.11725 12.035 8.23819 11.9934 8.33598C11.957 8.42863 11.8946 8.49296 11.8061 8.52899C11.7125 8.55987 11.6189 8.55215 11.5252 8.50583C11.4316 8.45436 11.3588 8.35657 11.3067 8.21246L11.1585 7.81101C11.018 7.4353 10.7969 7.17281 10.4952 7.02355C10.1987 6.8743 9.88657 6.85886 9.55884 6.97723C9.27272 7.08017 9.17388 7.25516 9.26232 7.5022L9.57444 8.3437C9.62646 8.48781 9.63427 8.60876 9.59785 8.70655C9.56144 8.79919 9.49901 8.86353 9.41058 8.89956C9.31174 8.93044 9.2155 8.92272 9.12186 8.8764C9.03343 8.83007 8.9606 8.73229 8.90337 8.58303L8.62246 7.81101C8.4664 7.38897 8.24011 7.11619 7.94359 6.99267C7.65227 6.864 7.34795 6.85886 7.03063 6.97723C6.74451 7.08017 6.64827 7.25516 6.74191 7.5022L7.34275 9.1466C7.39477 9.29071 7.40258 9.41166 7.36616 9.50945C7.32975 9.60724 7.26732 9.67157 7.17889 9.70246C7.08005 9.73334 6.98381 9.72562 6.89017 9.67929C6.80173 9.63297 6.73151 9.53519 6.67949 9.38593L4.65067 3.88144C4.55184 3.61381 4.39317 3.42852 4.17468 3.32559C3.9614 3.2175 3.74031 3.20464 3.51142 3.28699C3.26172 3.37448 3.09005 3.52888 2.99641 3.7502C2.90278 3.96636 2.90538 4.20826 3.00422 4.47589L5.9694 12.5358C6.00582 12.6336 6.00582 12.7185 5.9694 12.7905C5.93819 12.8626 5.89137 12.9089 5.82895 12.9295C5.69889 12.9758 5.56104 12.9218 5.41538 12.7674L3.40998 10.6366C3.25912 10.4822 3.10566 10.3844 2.94959 10.3432C2.79873 10.3021 2.64007 10.3123 2.4736 10.3741C2.2239 10.4616 2.05224 10.6083 1.9586 10.8142C1.86496 11.0149 1.85456 11.2182 1.92739 11.4241C1.9586 11.5064 1.99501 11.5785 2.03663 11.6402C2.07825 11.702 2.11986 11.7586 2.16148 11.8101L4.63507 14.8904C5.68069 16.1874 6.79133 16.9903 7.967 17.2991C9.14267 17.6131 10.3157 17.559 11.4862 17.137Z"
		fill="currentColor"
	/>
</svg>
