<svg
	color="rgb(var(--foreground, 0, 0, 0))"
	viewBox="0 0 21 20"
	fill="none"
	xmlns="http://www.w3.org/2000/svg"
>
	<path
		d="M2.65472 7.03692C2.78451 7.0627 2.90652 7.0395 3.02074 6.96732C3.13495 6.89515 3.20504 6.79204 3.231 6.658C3.25696 6.52911 3.2336 6.41054 3.16091 6.30228C3.08823 6.18886 2.98439 6.11668 2.84941 6.08575L0.598782 5.6063C0.453413 5.57536 0.321023 5.60114 0.201613 5.68363C0.0873945 5.76096 0.0224976 5.86922 0.00692234 6.00842C-0.0138447 6.1373 0.0121141 6.25588 0.0847986 6.36414C0.162675 6.47241 0.26651 6.53943 0.396304 6.5652L2.65472 7.03692ZM3.44127 4.4618C3.53991 4.55975 3.65672 4.60873 3.79171 4.60873C3.93189 4.60873 4.0487 4.55975 4.14215 4.4618C4.23561 4.369 4.28233 4.25558 4.28233 4.12154C4.28233 3.9875 4.23561 3.8715 4.14215 3.77355L2.50675 2.15733C2.40811 2.05422 2.29129 2.00524 2.15631 2.0104C2.02651 2.0104 1.9123 2.05938 1.81365 2.15733C1.71501 2.25528 1.66309 2.3687 1.6579 2.49759C1.6579 2.62647 1.70982 2.74247 1.81365 2.84558L3.44127 4.4618ZM6.34605 3.69622C6.48104 3.67044 6.58747 3.60084 6.66535 3.48742C6.74322 3.36885 6.76659 3.2477 6.73544 3.12397L6.2526 0.889098C6.22145 0.755057 6.14877 0.651949 6.03455 0.579773C5.92033 0.507597 5.79832 0.484398 5.66853 0.510175C5.53354 0.535952 5.42711 0.60555 5.34924 0.718969C5.27136 0.832388 5.248 0.956118 5.27915 1.09016L5.76198 3.3173C5.79313 3.44618 5.86322 3.54929 5.97225 3.62662C6.08647 3.70395 6.21107 3.72715 6.34605 3.69622ZM17.2799 17.7937C18.2507 16.8348 18.8114 15.7599 18.962 14.569C19.1178 13.3781 18.8634 12.0892 18.1988 10.7024L16.4466 7.02919C16.322 6.77657 16.1766 6.56778 16.0105 6.40281C15.7198 6.1141 15.3849 5.97491 15.0059 5.98522C14.6269 5.99037 14.2972 6.13473 14.0169 6.41827C13.8248 6.60387 13.7028 6.83328 13.6508 7.10652C13.6041 7.3746 13.6457 7.6633 13.7754 7.97263L14.2894 9.20219C14.305 9.23828 14.3024 9.26664 14.2816 9.28726C14.2557 9.31304 14.2245 9.31046 14.1882 9.27953L9.77261 4.89485C9.45072 4.57522 9.10287 4.4154 8.72907 4.4154C8.35526 4.41024 8.0152 4.55975 7.70889 4.86392C7.59467 4.97734 7.50641 5.10364 7.44411 5.24284C7.387 5.37688 7.35585 5.51608 7.35066 5.66043C7.02877 5.41812 6.69909 5.30213 6.36163 5.31244C6.02936 5.32275 5.72823 5.46452 5.45826 5.73776C5.18829 6.00069 5.04811 6.30228 5.03773 6.64253C5.02735 6.97764 5.13637 7.29985 5.36481 7.60917C5.07927 7.61433 4.83006 7.72259 4.6172 7.93396C4.33165 8.21751 4.19407 8.53715 4.20445 8.89287C4.21484 9.24859 4.37059 9.57854 4.67171 9.88271L5.28694 10.4859C5.13637 10.4859 4.98581 10.5194 4.83525 10.5864C4.68988 10.6483 4.56009 10.7385 4.44587 10.8571C4.16033 11.1406 4.02274 11.468 4.03313 11.8392C4.0487 12.2052 4.20965 12.5403 4.51596 12.8445L9.25084 17.5462C10.1075 18.3969 11.0082 18.9691 11.9531 19.263C12.898 19.5568 13.8274 19.5775 14.7411 19.3248C15.6601 19.0774 16.5063 18.567 17.2799 17.7937ZM16.4933 17.0668C15.8444 17.7112 15.1487 18.1314 14.4062 18.3273C13.669 18.5232 12.9162 18.4897 12.1478 18.2267C11.3795 17.969 10.6267 17.4715 9.88943 16.7342L5.32587 12.2026C5.20646 12.0841 5.14416 11.9552 5.13897 11.816C5.13378 11.6716 5.18829 11.5428 5.30251 11.4293C5.41673 11.3211 5.54652 11.2669 5.69189 11.2669C5.84245 11.2669 5.97484 11.3236 6.08906 11.4371L8.90818 14.2365C9.00683 14.3344 9.12105 14.3808 9.25084 14.3756C9.38583 14.3653 9.50004 14.3164 9.5935 14.2287C9.68695 14.1359 9.73627 14.0225 9.74146 13.8885C9.75184 13.7544 9.70771 13.6384 9.60907 13.5405L5.39596 9.35686C5.27655 9.24344 5.21425 9.11713 5.20906 8.97793C5.20387 8.83358 5.25838 8.7047 5.3726 8.59128C5.48682 8.47786 5.61661 8.42115 5.76198 8.42115C5.91254 8.42115 6.04753 8.48044 6.16694 8.59901L10.0919 12.4965C10.1957 12.5996 10.3126 12.6486 10.4423 12.6434C10.5773 12.6331 10.689 12.5816 10.7772 12.4888C10.8707 12.396 10.92 12.2851 10.9252 12.1562C10.9356 12.0222 10.8914 11.9036 10.7928 11.8005L6.18251 7.22252C6.0631 7.1091 6.0008 6.98021 5.99561 6.83586C5.99561 6.68635 6.05272 6.55489 6.16694 6.44147C6.27596 6.32805 6.40316 6.27392 6.54853 6.27908C6.69909 6.28423 6.83408 6.3461 6.95349 6.46467L11.5638 11.0427C11.6572 11.1355 11.7688 11.1819 11.8986 11.1819C12.0336 11.1767 12.1478 11.1277 12.2413 11.0349C12.3399 10.937 12.3918 10.821 12.397 10.687C12.4022 10.5529 12.3581 10.4395 12.2646 10.3467L8.3319 6.44147C8.21249 6.32805 8.15278 6.19917 8.15278 6.05482C8.15278 5.91047 8.20989 5.78158 8.32411 5.66816C8.43314 5.55474 8.56034 5.50061 8.70571 5.50577C8.85107 5.50577 8.98346 5.56505 9.10287 5.68363L14.5231 11.0659C14.658 11.1999 14.8008 11.2695 14.9514 11.2747C15.1019 11.2747 15.2343 11.218 15.3485 11.1045C15.4472 11.0066 15.5121 10.8906 15.5432 10.7566C15.5744 10.6225 15.551 10.4575 15.4731 10.2616L14.4997 7.71744C14.4322 7.54731 14.4244 7.39522 14.4763 7.26118C14.5282 7.12714 14.6217 7.02919 14.7567 6.96732C14.9021 6.9003 15.037 6.9003 15.1616 6.96732C15.2862 7.02919 15.3953 7.15292 15.4887 7.33851L17.2955 11.1355C17.8977 12.4037 18.1054 13.5198 17.9185 14.4839C17.7368 15.4428 17.2617 16.3038 16.4933 17.0668ZM9.70252 4.16794C9.5883 4.2762 9.50004 4.39993 9.43774 4.53913C9.38063 4.67832 9.34689 4.8201 9.3365 4.96445L10.3177 5.74549C10.2035 5.63207 10.1438 5.50319 10.1386 5.35884C10.1386 5.20933 10.1957 5.07787 10.31 4.96445C10.4242 4.85103 10.554 4.7969 10.6993 4.80205C10.8447 4.80721 10.9771 4.86907 11.0965 4.98765L13.7365 7.61691L14.3673 6.78173L11.7662 4.19887C11.4392 3.87923 11.0887 3.71942 10.7149 3.71942C10.3463 3.71426 10.0088 3.86377 9.70252 4.16794ZM19.2735 17.1054C20.2392 16.1414 20.7999 15.0665 20.9556 13.8807C21.1114 12.6898 20.857 11.3984 20.1925 10.0064L18.4324 6.32548C18.2715 5.98522 18.0612 5.72745 17.8016 5.55216C17.5421 5.37688 17.2539 5.28924 16.9372 5.28924C16.8126 5.28924 16.6724 5.31244 16.5167 5.35884C16.3609 5.40524 16.2104 5.48257 16.065 5.59083C15.9196 5.69394 15.8002 5.83313 15.7068 6.00842C15.6133 6.1837 15.5666 6.39765 15.5666 6.65027C15.5666 6.74306 15.5718 6.83071 15.5822 6.91319L16.5089 7.16839C16.457 7.05497 16.431 6.94413 16.431 6.83586C16.431 6.71213 16.4778 6.59871 16.5712 6.4956C16.6698 6.3925 16.8022 6.34094 16.9684 6.34094C17.2124 6.34094 17.3941 6.47241 17.5135 6.73533L19.2813 10.4395C19.8835 11.7026 20.0938 12.8161 19.9121 13.7802C19.7304 14.7443 19.2527 15.6052 18.4792 16.3631C17.851 16.9869 17.1864 17.3993 16.4855 17.6004L15.3485 18.7913C16.0442 18.8119 16.7244 18.6804 17.3889 18.3969C18.0586 18.1133 18.6868 17.6828 19.2735 17.1054Z"
		fill="currentColor"
	/>
</svg>
