<svg
	color="rgb(var(--foreground, 0, 0, 0))"
	viewBox="0 0 13 18"
	fill="none"
	xmlns="http://www.w3.org/2000/svg"
>
	<path
		d="M0 11.9181C0 12.7981 0.138645 13.5826 0.415935 14.2717C0.693225 14.9609 1.08197 15.544 1.58218 16.021C2.08239 16.5034 2.67231 16.8692 3.35194 17.1183C4.03701 17.3728 4.78461 17.5 5.59473 17.5C6.88875 17.5 7.95713 17.235 8.79987 16.7049C9.64262 16.1748 10.3304 15.3796 10.8632 14.3195C11.0209 14.0226 11.1704 13.7125 11.3118 13.3891C11.4532 13.0658 11.5891 12.7292 11.7196 12.3793C11.8501 12.0242 11.9778 11.6558 12.1029 11.2741C12.2279 10.8924 12.3557 10.4975 12.4862 10.0893C12.5569 9.8667 12.6303 9.63346 12.7064 9.38962C12.788 9.14047 12.8559 8.90988 12.9103 8.69785C12.9701 8.48581 13 8.31618 13 8.18896C13 7.97693 12.9266 7.80465 12.7798 7.67212C12.6384 7.5396 12.4509 7.47334 12.2171 7.47334C11.9615 7.47334 11.744 7.55815 11.5646 7.72778C11.3906 7.89741 11.2085 8.17041 11.0182 8.54677L9.88457 10.8686C9.8302 10.9958 9.77039 11.0859 9.70514 11.1389C9.6399 11.1919 9.57465 11.2184 9.50941 11.2184C9.42242 11.2184 9.35174 11.1919 9.29737 11.1389C9.24843 11.0806 9.22396 10.9825 9.22396 10.8447V2.50374C9.22396 2.2705 9.13697 2.07172 8.96299 1.90739C8.79444 1.73776 8.59055 1.65295 8.35132 1.65295C8.11209 1.65295 7.90548 1.73776 7.73149 1.90739C7.56294 2.07172 7.47867 2.2705 7.47867 2.50374V8.46726C7.36449 8.42485 7.2476 8.38775 7.12798 8.35594C7.00836 8.32413 6.88331 8.29763 6.75282 8.27643V1.35875C6.75282 1.12021 6.66583 0.918771 6.49184 0.754443C6.3233 0.584814 6.11941 0.5 5.88018 0.5C5.63551 0.5 5.42618 0.584814 5.2522 0.754443C5.08365 0.918771 4.99937 1.12021 4.99937 1.35875V8.18896C4.87432 8.19956 4.74655 8.21282 4.61606 8.22872C4.48557 8.24462 4.3578 8.26317 4.23275 8.28438V2.03461C4.23275 1.80137 4.14575 1.60259 3.97177 1.43826C3.80322 1.26863 3.59933 1.18382 3.3601 1.18382C3.12087 1.18382 2.91426 1.26863 2.74028 1.43826C2.57173 1.60259 2.48745 1.80137 2.48745 2.03461V8.82507C2.35153 8.88868 2.22104 8.95494 2.09598 9.02385C1.97637 9.09277 1.86219 9.16168 1.75345 9.23059V4.50748C1.75345 4.27424 1.66646 4.07546 1.49247 3.91113C1.32392 3.7415 1.12003 3.65669 0.880803 3.65669C0.636136 3.65669 0.426809 3.7415 0.252823 3.91113C0.0842744 4.07546 0 4.27424 0 4.50748V11.9181Z"
		fill="currentColor"
	/>
</svg>
