<svg
	color="rgb(var(--foreground, 0, 0, 0))"
	viewBox="0 0 17 16"
	fill="none"
	xmlns="http://www.w3.org/2000/svg"
>
	<path
		d="M3.72383 2.34583C2.97754 2.80437 2.32517 3.38913 1.76673 4.10012C1.20828 4.80595 0.774212 5.61225 0.464527 6.51902C0.154842 7.42578 0 8.40725 0 9.46343C0 9.60254 0.0482296 9.72361 0.144689 9.82665C0.246225 9.92969 0.362991 9.97864 0.494988 9.97349C0.626985 9.96833 0.736136 9.91939 0.822442 9.82665C0.908747 9.73392 0.954438 9.61799 0.959515 9.47889C0.989976 8.09298 1.28189 6.86936 1.83526 5.80803C2.38863 4.7467 3.13239 3.90949 4.06652 3.29639L3.72383 2.34583ZM13.4484 15.105C14.4536 14.734 15.2558 14.1905 15.8548 13.4743C16.459 12.753 16.8245 11.9081 16.9514 10.9395C17.0834 9.96576 16.9464 8.91216 16.5402 7.7787L15.9767 6.19444C15.6772 5.3598 15.2583 4.77761 14.7202 4.44788C14.182 4.113 13.5779 4.06405 12.9078 4.30105C12.7301 4.06405 12.5092 3.90949 12.2452 3.83736C11.9812 3.76008 11.702 3.77553 11.4076 3.88373C11.1994 3.96101 11.0014 4.07435 10.8136 4.22377C10.6207 3.96616 10.3795 3.79614 10.0901 3.71371C9.80584 3.62612 9.50885 3.639 9.19916 3.75235C9.02655 3.81933 8.86663 3.90691 8.7194 4.01511L7.85127 1.60393C7.68881 1.14025 7.42228 0.820816 7.05167 0.645645C6.68107 0.465323 6.28254 0.452442 5.85609 0.607005C5.42964 0.766719 5.13011 1.0372 4.9575 1.41846C4.78996 1.79456 4.78742 2.21188 4.94988 2.67041L7.12021 8.72926C7.13544 8.77563 7.12529 8.80397 7.08975 8.81427C7.06437 8.82457 7.03898 8.81684 7.0136 8.79108L6.12262 7.80188C5.89924 7.56489 5.66063 7.41033 5.40679 7.3382C5.15295 7.26092 4.89657 7.26864 4.63766 7.36138C4.29243 7.49018 4.0259 7.71172 3.83806 8.026C3.6553 8.34028 3.63753 8.69577 3.78475 9.09248C3.82029 9.20583 3.8736 9.3269 3.94467 9.4557C4.01575 9.57935 4.09444 9.69785 4.18074 9.8112L6.73184 12.9411C7.69643 14.1261 8.73971 14.8989 9.86168 15.2595C10.9887 15.6253 12.1843 15.5738 13.4484 15.105ZM13.121 14.0926C12.1209 14.4635 11.1537 14.5279 10.2196 14.2858C9.28547 14.0436 8.37672 13.3816 7.49336 12.2997L4.94226 9.18522C4.86611 9.08733 4.80773 8.98429 4.76712 8.87609C4.72142 8.75244 4.72396 8.62879 4.77473 8.50514C4.83057 8.38149 4.92957 8.29133 5.07172 8.23466C5.29003 8.15738 5.50071 8.22951 5.70378 8.45105L7.47051 10.2981C7.61266 10.4526 7.74973 10.5454 7.88173 10.5763C8.01373 10.602 8.14573 10.5917 8.27772 10.5454C8.42495 10.4887 8.52649 10.3908 8.58233 10.2517C8.63818 10.1074 8.63564 9.9503 8.57471 9.78028L5.87893 2.25309C5.82309 2.09853 5.82309 1.95685 5.87893 1.82805C5.93986 1.69409 6.04647 1.59878 6.19877 1.54211C6.346 1.49059 6.48054 1.49831 6.60238 1.56529C6.7293 1.62712 6.82068 1.73531 6.87653 1.88987L8.80317 7.26092C8.84886 7.38972 8.93263 7.47988 9.05447 7.5314C9.17632 7.58292 9.3007 7.5855 9.42762 7.53913C9.54946 7.49276 9.6383 7.41033 9.69415 7.29183C9.75507 7.17333 9.76269 7.05226 9.717 6.92861L9.02401 4.98885C9.1357 4.8755 9.26516 4.79049 9.41239 4.73382C9.59007 4.66684 9.74999 4.672 9.89214 4.74928C10.0343 4.82141 10.1384 4.95278 10.2044 5.14341L10.8136 6.83587C10.8593 6.96467 10.943 7.05483 11.0649 7.10635C11.1918 7.15272 11.3162 7.15272 11.438 7.10635C11.5548 7.06514 11.6436 6.98786 11.7046 6.87451C11.7655 6.75601 11.7706 6.62979 11.7198 6.49583L11.2248 5.12023C11.3365 5.00688 11.4685 4.92187 11.6208 4.8652C11.7985 4.79822 11.9584 4.80337 12.1006 4.88066C12.2427 4.95278 12.3468 5.08416 12.4128 5.27479L12.8164 6.40309C12.8671 6.53705 12.9535 6.62979 13.0753 6.68131C13.1971 6.72768 13.319 6.72768 13.4408 6.68131C13.5576 6.64009 13.6464 6.56281 13.7074 6.44946C13.7683 6.33097 13.7759 6.20474 13.7302 6.07079L13.4332 5.23615C13.748 5.11765 14.05 5.1872 14.3394 5.44481C14.6288 5.69726 14.875 6.112 15.0781 6.68904L15.5579 8.01054C15.9082 8.98429 16.0401 9.87302 15.9538 10.6767C15.8726 11.4805 15.5909 12.1734 15.1086 12.7556C14.6263 13.3378 13.9637 13.7835 13.121 14.0926Z"
		fill="currentColor"
	/>
</svg>
