<svg
	color="rgb(var(--foreground, 0, 0, 0))"
	viewBox="0 0 17 14"
	fill="none"
	xmlns="http://www.w3.org/2000/svg"
>
	<path
		d="M0 7.90725C0 9.10121 0.241191 10.1145 0.723573 10.9471C1.21126 11.7798 1.91363 12.4134 2.83068 12.848C3.75304 13.2827 4.86093 13.5 6.15435 13.5H7.75257C8.24026 13.5 8.65903 13.4293 9.00889 13.2879C9.36405 13.1518 9.63704 12.9711 9.82788 12.7459C10.0187 12.5207 10.1141 12.2772 10.1141 12.0154C10.1141 11.8321 10.024 11.7405 9.84378 11.7405H9.13611C8.97178 11.7405 8.84721 11.7038 8.76239 11.6305C8.68288 11.5572 8.64312 11.4708 8.64312 11.3713C8.64312 11.2666 8.68288 11.1775 8.76239 11.1042C8.84721 11.0257 8.97178 10.9864 9.13611 10.9864H9.60524C10.0346 10.9864 10.3792 10.866 10.6389 10.6251C10.8987 10.3842 11.0285 10.0778 11.0285 9.70604C11.0285 9.38661 10.8881 9.22689 10.6071 9.22689H9.645C9.47007 9.22689 9.34019 9.19023 9.25538 9.11692C9.17587 9.0436 9.13611 8.9572 9.13611 8.8577C9.13611 8.74773 9.17587 8.65609 9.25538 8.58278C9.34019 8.50947 9.47007 8.47281 9.645 8.47281H10.5355C11.0179 8.47281 11.3757 8.34975 11.609 8.10363C11.8422 7.8575 11.9588 7.55639 11.9588 7.2003C11.9588 6.88087 11.8157 6.72115 11.5295 6.72115H9.645C9.47007 6.72115 9.34019 6.68449 9.25538 6.61118C9.17587 6.53786 9.13611 6.45146 9.13611 6.35196C9.13611 6.24199 9.17587 6.15035 9.25538 6.07704C9.34019 6.00373 9.47007 5.96707 9.645 5.96707H15.9743C16.2817 5.96707 16.5282 5.87805 16.7138 5.7C16.9046 5.52195 17 5.30463 17 5.04804C17 4.77049 16.9046 4.54532 16.7138 4.37251C16.5282 4.1997 16.2817 4.11329 15.9743 4.11329H6.69504C6.58372 4.11329 6.49626 4.08449 6.43265 4.02689C6.37434 3.96405 6.34518 3.89597 6.34518 3.82266C6.34518 3.67603 6.4512 3.56083 6.66324 3.47704L9.55753 2.25952C9.76957 2.17049 9.92329 2.05791 10.0187 1.92175C10.1194 1.78036 10.1698 1.61803 10.1698 1.43474C10.1698 1.15196 10.085 0.926787 9.91534 0.759214C9.75101 0.586405 9.54958 0.5 9.31104 0.5C9.21032 0.5 9.12021 0.510473 9.04069 0.53142C8.96648 0.54713 8.89492 0.568077 8.82601 0.59426L4.78672 1.92175C3.65762 2.30403 2.74057 2.79627 2.03555 3.39849C1.33053 3.99547 0.813689 4.67885 0.485033 5.44864C0.161678 6.21319 0 7.03273 0 7.90725Z"
		fill="currentColor"
	/>
</svg>
