<svg
	color="rgb(var(--foreground, 0, 0, 0))"
	viewBox="0 0 17 14"
	fill="none"
	xmlns="http://www.w3.org/2000/svg"
>
	<path
		d="M17 7.90725C17 7.03273 16.8357 6.21319 16.507 5.44864C16.1837 4.67885 15.6695 3.99547 14.9645 3.39849C14.2594 2.79627 13.3424 2.30403 12.2133 1.92175L8.17399 0.59426C8.10508 0.568077 8.03087 0.54713 7.95136 0.53142C7.87714 0.510473 7.79233 0.5 7.69691 0.5C7.45837 0.5 7.25429 0.586405 7.08466 0.759214C6.91503 0.926787 6.83021 1.15196 6.83021 1.43474C6.83021 1.61803 6.87792 1.78036 6.97334 1.92175C7.07406 2.05791 7.23043 2.17049 7.44247 2.25952L10.3368 3.47704C10.5488 3.56083 10.6548 3.67603 10.6548 3.82266C10.6548 3.89597 10.623 3.96405 10.5594 4.02689C10.5011 4.08449 10.4163 4.11329 10.305 4.11329H1.02573C0.718273 4.11329 0.46913 4.1997 0.278297 4.37251C0.0927658 4.54532 0 4.77049 0 5.04804C0 5.30463 0.0927658 5.52195 0.278297 5.7C0.46913 5.87805 0.718273 5.96707 1.02573 5.96707H7.36296C7.53259 5.96707 7.65716 6.00373 7.73667 6.07704C7.82148 6.15035 7.86389 6.24199 7.86389 6.35196C7.86389 6.45146 7.82148 6.53786 7.73667 6.61118C7.65716 6.68449 7.53259 6.72115 7.36296 6.72115H5.47053C5.18428 6.72115 5.04116 6.88087 5.04116 7.2003C5.04116 7.55639 5.15778 7.8575 5.39102 8.10363C5.62426 8.34975 5.98207 8.47281 6.46445 8.47281H7.36296C7.53259 8.47281 7.65716 8.50947 7.73667 8.58278C7.82148 8.65609 7.86389 8.74773 7.86389 8.8577C7.86389 8.9572 7.82148 9.0436 7.73667 9.11692C7.65716 9.19023 7.53259 9.22689 7.36296 9.22689H6.39289C6.11194 9.22689 5.97147 9.38661 5.97147 9.70604C5.97147 10.0778 6.10134 10.3842 6.36108 10.6251C6.62083 10.866 6.96804 10.9864 7.40271 10.9864H7.86389C8.03352 10.9864 8.15809 11.0257 8.23761 11.1042C8.32242 11.1775 8.36483 11.2666 8.36483 11.3713C8.36483 11.4708 8.32242 11.5572 8.23761 11.6305C8.15809 11.7038 8.03352 11.7405 7.86389 11.7405H7.15622C6.97599 11.7405 6.88587 11.8321 6.88587 12.0154C6.88587 12.2772 6.98129 12.5207 7.17212 12.7459C7.36296 12.9711 7.63595 13.1518 7.99111 13.2879C8.34627 13.4293 8.7677 13.5 9.25538 13.5H10.8457C12.1444 13.5 13.2523 13.2827 14.1693 12.848C15.0864 12.4134 15.7861 11.7798 16.2685 10.9471C16.7562 10.1145 17 9.10121 17 7.90725Z"
		fill="currentColor"
	/>
</svg>
