<svg
	color="rgb(var(--foreground, 0, 0, 0))"
	viewBox="0 0 13 18"
	fill="none"
	xmlns="http://www.w3.org/2000/svg"
>
	<path
		d="M7.40735 17.5C8.60067 17.5 9.61252 17.2577 10.4429 16.7732C11.2788 16.2887 11.9139 15.587 12.3483 14.6681C12.7828 13.7491 13 12.6437 13 11.3516V9.74767C13 9.25758 12.9313 8.8371 12.7938 8.48624C12.6563 8.12981 12.4748 7.85692 12.2494 7.66757C12.0239 7.47821 11.7792 7.38354 11.5152 7.38354C11.3338 7.38354 11.243 7.47265 11.243 7.65086V8.36093C11.243 8.52801 11.2045 8.65332 11.1275 8.73686C11.056 8.82039 10.9708 8.86216 10.8718 8.86216C10.7673 8.86216 10.6766 8.82039 10.5996 8.73686C10.5281 8.65332 10.4924 8.52801 10.4924 8.36093V7.89312C10.4924 7.46429 10.3687 7.119 10.1212 6.85725C9.87923 6.5955 9.57402 6.46462 9.20558 6.46462C8.88113 6.46462 8.7189 6.60663 8.7189 6.89066V7.85971C8.7189 8.02678 8.68316 8.15209 8.61167 8.23563C8.54018 8.31916 8.45494 8.36093 8.35596 8.36093C8.24598 8.36093 8.15249 8.31916 8.0755 8.23563C8.00401 8.15209 7.96827 8.02678 7.96827 7.85971V6.96585C7.96827 6.48133 7.84454 6.12211 7.59707 5.88821C7.35511 5.6543 7.05542 5.53735 6.69798 5.53735C6.37353 5.53735 6.2113 5.67936 6.2113 5.96339V7.85971C6.2113 8.02678 6.17281 8.15209 6.09582 8.23563C6.02433 8.31916 5.93909 8.36093 5.84011 8.36093C5.73562 8.36093 5.64489 8.31916 5.5679 8.23563C5.49641 8.15209 5.46067 8.02678 5.46067 7.85971V1.51916C5.46067 1.21286 5.37268 0.967813 5.19671 0.784029C5.02073 0.594677 4.80352 0.5 4.54506 0.5C4.2646 0.5 4.03638 0.594677 3.86041 0.784029C3.68994 0.967813 3.6047 1.21286 3.6047 1.51916V10.8002C3.6047 10.9172 3.57445 11.0063 3.51396 11.0676C3.45897 11.1233 3.39573 11.1511 3.32424 11.1511C3.18126 11.1511 3.06303 11.0453 2.96955 10.8337L1.75698 7.93489C1.6635 7.72326 1.54801 7.57011 1.41053 7.47543C1.27306 7.37518 1.11083 7.32506 0.923859 7.32506C0.643402 7.32506 0.417936 7.41138 0.247462 7.58403C0.0824874 7.75111 0 7.9516 0 8.1855C0 8.28575 0.00824874 8.37486 0.0247462 8.45283C0.0412437 8.53079 0.0604908 8.60319 0.0824874 8.67002L1.41878 12.7049C1.9852 14.4091 2.79357 15.6343 3.84391 16.3806C4.89975 17.1269 6.08755 17.5 7.40735 17.5Z"
		fill="currentColor"
	/>
</svg>
