<svg
	color="rgb(var(--foreground, 0, 0, 0))"
	viewBox="0 0 17 14"
	fill="none"
	xmlns="http://www.w3.org/2000/svg"
>
	<path
		d="M0 7.87551C0 8.99738 0.243811 9.98027 0.731432 10.8242C1.21905 11.6681 1.91711 12.3251 2.82562 12.795C3.73414 13.265 4.81717 13.5 6.07472 13.5H7.83785C8.77203 13.5 9.49833 13.2928 10.0168 12.8784C10.5403 12.464 10.8046 11.8879 10.8098 11.1501C11.1075 11.0592 11.341 10.8975 11.5104 10.665C11.6798 10.4326 11.7645 10.1521 11.7645 9.82361C11.7645 9.70233 11.7542 9.58358 11.7337 9.46735C11.7132 9.35112 11.6849 9.23741 11.649 9.12624C11.9724 9.02517 12.2264 8.85083 12.4112 8.60321C12.6011 8.35053 12.6961 8.04985 12.6961 7.70117C12.6961 7.51419 12.6679 7.32721 12.6114 7.14023H15.2985C15.8117 7.14023 16.2224 6.99116 16.5303 6.693C16.8434 6.3898 17 6.00068 17 5.52566C17 5.05568 16.8434 4.6691 16.5303 4.36589C16.2224 4.06268 15.8117 3.91108 15.2985 3.91108H8.56159C8.51539 3.91108 8.49229 3.89086 8.49229 3.85044C8.49229 3.81506 8.51026 3.79232 8.54619 3.78222L9.83967 3.2516C10.1528 3.12021 10.3914 2.94334 10.5557 2.72099C10.72 2.49359 10.8021 2.23839 10.8021 1.95539C10.8021 1.57133 10.6815 1.23275 10.4402 0.93965C10.199 0.64655 9.85763 0.5 9.41621 0.5C9.29302 0.5 9.15443 0.512634 9.00045 0.537901C8.85159 0.558115 8.70787 0.593489 8.56929 0.644023L4.56566 2.04636C3.04633 2.57697 1.90427 3.32993 1.13948 4.30525C0.379816 5.28056 0 6.47065 0 7.87551ZM1.10868 7.92099C1.10868 6.80923 1.39869 5.83644 1.9787 5.00262C2.55871 4.16375 3.53652 3.50175 4.91213 3.01662L8.90805 1.60671C9.02611 1.56628 9.14673 1.54606 9.26992 1.54606C9.41364 1.54606 9.53683 1.59407 9.63949 1.69009C9.74214 1.78105 9.79347 1.90739 9.79347 2.0691C9.79347 2.20554 9.75498 2.31672 9.67798 2.40262C9.60099 2.48348 9.4932 2.55423 9.35461 2.61487L6.89084 3.69125C6.69066 3.78222 6.55207 3.88834 6.47508 4.00962C6.39809 4.1309 6.35959 4.26229 6.35959 4.40379C6.35959 4.57055 6.41862 4.707 6.53668 4.81312C6.65986 4.91924 6.81128 4.9723 6.99093 4.9723H15.3755C15.5448 4.9723 15.6834 5.02536 15.7912 5.13149C15.9041 5.23256 15.9606 5.36395 15.9606 5.52566C15.9606 5.69242 15.9041 5.82634 15.7912 5.92741C15.6834 6.02847 15.5448 6.07901 15.3755 6.07901H9.39311C9.25452 6.07901 9.13647 6.12954 9.03894 6.23061C8.94142 6.33168 8.89266 6.45296 8.89266 6.59446C8.89266 6.7309 8.94142 6.84966 9.03894 6.95073C9.13647 7.04674 9.25452 7.09475 9.39311 7.09475H11.5489C11.5797 7.16045 11.6054 7.23625 11.6259 7.32216C11.6464 7.40807 11.6567 7.48892 11.6567 7.56472C11.6567 7.76181 11.5951 7.91846 11.4719 8.03469C11.3487 8.15092 11.1793 8.20904 10.9638 8.20904H9.09284C8.93885 8.20904 8.81566 8.25957 8.72327 8.36064C8.63088 8.46171 8.58468 8.57794 8.58468 8.70933C8.58468 8.84577 8.63088 8.96453 8.72327 9.0656C8.81566 9.16161 8.93885 9.20962 9.09284 9.20962H10.6173C10.684 9.36122 10.7174 9.52041 10.7174 9.68717C10.7174 9.88426 10.6558 10.0409 10.5326 10.1571C10.4145 10.2683 10.2503 10.3239 10.0398 10.3239H8.77717C8.62831 10.3239 8.50769 10.377 8.4153 10.4831C8.32291 10.5842 8.27671 10.7029 8.27671 10.8394C8.27671 10.9707 8.32291 11.087 8.4153 11.188C8.50769 11.2841 8.62831 11.3321 8.77717 11.3321H9.70108C9.70108 11.6858 9.524 11.9612 9.16983 12.1583C8.81566 12.3503 8.31778 12.4464 7.67617 12.4464H6.20561C5.12257 12.4464 4.20123 12.2644 3.44156 11.9006C2.6819 11.5367 2.10189 11.0162 1.70153 10.3391C1.3063 9.6619 1.10868 8.85588 1.10868 7.92099Z"
		fill="currentColor"
	/>
</svg>
