<svg
	color="rgb(var(--foreground, 0, 0, 0))"
	viewBox="0 0 13 18"
	fill="none"
	xmlns="http://www.w3.org/2000/svg"
>
	<path
		d="M5.59264 0.5C4.39932 0.5 3.38473 0.744925 2.54886 1.23477C1.71849 1.71906 1.08608 2.42043 0.65165 3.3389C0.217217 4.2518 0 5.35396 0 6.64538V8.24853C0 8.73838 0.0687394 9.16143 0.206218 9.51768C0.343697 9.86837 0.525169 10.1383 0.750634 10.3276C0.9761 10.5169 1.22081 10.6115 1.48477 10.6115C1.66624 10.6115 1.75698 10.5224 1.75698 10.3443V9.63458C1.75698 9.46758 1.79272 9.34234 1.86421 9.25884C1.9412 9.17534 2.02919 9.1336 2.12817 9.1336C2.23266 9.1336 2.32064 9.17534 2.39213 9.25884C2.46912 9.34234 2.50761 9.46758 2.50761 9.63458V10.1022C2.50761 10.5363 2.6286 10.8843 2.87056 11.1459C3.11802 11.4019 3.42597 11.53 3.79442 11.53C4.11887 11.53 4.28109 11.388 4.28109 11.1041V10.1356C4.28109 9.96857 4.31684 9.84332 4.38832 9.75982C4.45981 9.67633 4.54505 9.63458 4.64404 9.63458C4.75402 9.63458 4.84475 9.67633 4.91624 9.75982C4.99323 9.84332 5.03173 9.96857 5.03173 10.1356V11.029C5.03173 11.5133 5.15271 11.8723 5.39467 12.1061C5.64213 12.3399 5.94459 12.4568 6.30203 12.4568C6.62648 12.4568 6.78871 12.3148 6.78871 12.0309V10.1356C6.78871 9.96857 6.82445 9.84332 6.89594 9.75982C6.96743 9.67633 7.05266 9.63458 7.15165 9.63458C7.26163 9.63458 7.35237 9.67633 7.42386 9.75982C7.50085 9.84332 7.53934 9.96857 7.53934 10.1356V16.473C7.53934 16.7847 7.62733 17.0324 7.8033 17.2161C7.97927 17.4054 8.19649 17.5 8.45495 17.5C8.72991 17.5 8.95262 17.4054 9.1231 17.2161C9.29907 17.0324 9.38706 16.7847 9.38706 16.473V7.19646C9.38706 7.07957 9.4173 6.99329 9.47779 6.93762C9.53828 6.87639 9.60427 6.84578 9.67576 6.84578C9.81874 6.84578 9.93697 6.95154 10.0305 7.16307L11.243 10.0604C11.331 10.2775 11.4437 10.4362 11.5812 10.5363C11.7242 10.631 11.8864 10.6783 12.0679 10.6783C12.3483 10.6783 12.5738 10.592 12.7443 10.4195C12.9148 10.2469 13 10.0437 13 9.80992C13 9.71529 12.9918 9.62901 12.9753 9.55108C12.9588 9.46758 12.9368 9.39244 12.9093 9.32564L11.5812 5.29273C11.0148 3.59496 10.2037 2.37312 9.14784 1.62721C8.092 0.875737 6.90694 0.5 5.59264 0.5Z"
		fill="currentColor"
	/>
</svg>
