<svg
	color="rgb(var(--foreground, 0, 0, 0))"
	viewBox="0 0 16 18"
	fill="none"
	xmlns="http://www.w3.org/2000/svg"
>
	<path
		d="M16 5.8101C16 4.99034 15.8457 4.23981 15.5371 3.55853C15.2284 2.8717 14.8088 2.32334 14.2782 1.91346C13.753 1.49805 13.1547 1.29034 12.4832 1.29034H11.0538C11.7848 1.83315 12.3181 2.50336 12.6538 3.30097C12.9895 4.09303 13.1492 4.9571 13.133 5.89318C13.1276 6.58555 13.0464 7.21422 12.8893 7.77919C12.7323 8.33862 12.5401 8.83435 12.3127 9.26639C12.0853 9.69288 11.8525 10.0557 11.6142 10.3548H12.7838C13.3848 10.3548 13.9289 10.1526 14.4162 9.74827C14.9036 9.34393 15.288 8.79835 15.5695 8.11152C15.8565 7.4247 16 6.65755 16 5.8101ZM12.0447 5.86826C12.0555 5.10942 11.9201 4.40875 11.6386 3.76623C11.357 3.11818 10.9482 2.55321 10.4122 2.07132C9.87614 1.5839 9.2291 1.20448 8.47107 0.933075C7.71303 0.661667 6.86024 0.520425 5.91269 0.509347L4.81624 0.501039C4.28562 0.4955 3.82809 0.512116 3.44366 0.550889C3.06464 0.584122 2.76413 0.633973 2.54213 0.70044C2.22809 0.777985 1.94112 0.921997 1.68122 1.13248C1.42673 1.34296 1.29949 1.64483 1.29949 2.03809C1.29949 2.19872 1.31574 2.33996 1.34822 2.46182C1.38613 2.57814 1.42944 2.68061 1.47817 2.76923C1.54856 2.88001 1.53232 2.95755 1.42944 3.00186C1.18037 3.1071 0.96379 3.27604 0.779695 3.50867C0.601015 3.74131 0.511675 4.02103 0.511675 4.34782C0.511675 4.73001 0.609137 5.04296 0.804061 5.28667C0.896108 5.4196 0.871743 5.52761 0.730964 5.6107C0.54687 5.71594 0.395262 5.87933 0.276142 6.10089C0.162437 6.31691 0.105584 6.56062 0.105584 6.83203C0.105584 7.02589 0.135364 7.21699 0.194924 7.40531C0.254484 7.58809 0.335702 7.72934 0.438579 7.82904C0.552284 7.92874 0.544162 8.03675 0.414213 8.15306C0.289679 8.2583 0.189509 8.40231 0.113706 8.5851C0.0379019 8.76788 0 8.97836 0 9.21654C0 9.48241 0.0622673 9.72612 0.186802 9.94767C0.311337 10.1692 0.479188 10.3465 0.690355 10.4794C0.901523 10.6068 1.14247 10.6705 1.4132 10.6705H4.27208C4.63486 10.6705 4.92453 10.7591 5.14112 10.9364C5.36311 11.1136 5.47411 11.3573 5.47411 11.6675C5.47411 11.9445 5.40643 12.2713 5.27107 12.6479C5.1357 13.019 4.97868 13.415 4.8 13.836C4.62132 14.257 4.4643 14.6751 4.32893 15.0906C4.19357 15.5115 4.12589 15.9048 4.12589 16.2704C4.12589 16.6636 4.23147 16.9655 4.44264 17.176C4.65922 17.392 4.92724 17.5 5.2467 17.5C5.53367 17.5 5.76108 17.4058 5.92893 17.2175C6.09679 17.0292 6.25922 16.7799 6.41624 16.4698C7.02267 15.2678 7.69408 14.1739 8.43046 13.1879C9.17225 12.202 9.84907 11.2909 10.4609 10.4545C10.8074 9.98368 11.0944 9.52395 11.3218 9.07529C11.5547 8.6211 11.7306 8.13645 11.8497 7.62133C11.9689 7.10621 12.0338 6.52185 12.0447 5.86826Z"
		fill="currentColor"
	/>
</svg>
