<svg
	color="rgb(var(--foreground, 0, 0, 0))"
	viewBox="0 0 16 18"
	fill="none"
	xmlns="http://www.w3.org/2000/svg"
>
	<path
		d="M0 12.0184C0 12.6492 0.0942563 13.2461 0.282769 13.8091C0.476518 14.3669 0.740959 14.8596 1.07609 15.287C1.41646 15.7197 1.80658 16.0586 2.24644 16.3036C2.6863 16.5486 3.15758 16.6711 3.66028 16.6711H6.16593C6.66339 16.9318 7.2106 17.1351 7.80756 17.281C8.40975 17.427 9.0486 17.5 9.7241 17.5H10.7766C11.2479 17.5 11.6799 17.4844 12.0727 17.4531C12.4706 17.427 12.8058 17.3801 13.0781 17.3123C13.6069 17.1872 14.0232 16.9526 14.327 16.6086C14.6359 16.2645 14.7904 15.8631 14.7904 15.4043C14.7904 15.3105 14.7825 15.2193 14.7668 15.1306C14.7563 15.042 14.738 14.9534 14.7118 14.8648C15.2512 14.4581 15.5209 13.929 15.5209 13.2774C15.5209 12.9594 15.4633 12.6753 15.3481 12.425C15.5261 12.2426 15.6622 12.0288 15.7565 11.7838C15.8508 11.5336 15.8979 11.2703 15.8979 10.994C15.8979 10.8168 15.8769 10.6395 15.8351 10.4623C15.7932 10.285 15.7356 10.1286 15.6622 9.9931C15.8874 9.66467 16 9.26848 16 8.80451C16 8.42916 15.9084 8.09031 15.7251 7.78795C15.547 7.48037 15.3062 7.23796 15.0025 7.06072C14.6987 6.87826 14.3584 6.78703 13.9813 6.78703H11.1144C11.0306 6.78703 10.9625 6.76878 10.9102 6.73229C10.8578 6.69059 10.8316 6.63324 10.8316 6.56026C10.8316 6.35695 10.8945 6.09368 11.0201 5.77047C11.151 5.44726 11.3003 5.09016 11.4678 4.69917C11.6406 4.30819 11.7925 3.90678 11.9234 3.49494C12.0543 3.0831 12.1198 2.68691 12.1198 2.30635C12.1198 1.95186 12.0439 1.63907 11.892 1.36799C11.7401 1.0969 11.5333 0.885771 11.2715 0.734591C11.0097 0.578197 10.7086 0.5 10.3682 0.5C9.9964 0.5 9.67436 0.604262 9.40206 0.812787C9.12977 1.0161 8.87056 1.35235 8.62445 1.82153C8.39404 2.25943 8.15055 2.69212 7.89396 3.1196C7.63737 3.54707 7.35461 3.98237 7.04566 4.42548C6.74194 4.86339 6.40681 5.32214 6.04026 5.80175C5.6737 6.27614 5.26526 6.78703 4.81492 7.33441H3.37752C2.75438 7.33441 2.18622 7.54554 1.67305 7.9678C1.16511 8.39006 0.759287 8.95569 0.455572 9.66467C0.151857 10.3737 0 11.1582 0 12.0184ZM4.42219 11.9793C4.42219 11.4319 4.4667 10.9393 4.55572 10.5014C4.64474 10.0635 4.79136 9.64121 4.99558 9.23459C5.1998 8.82797 5.4721 8.39528 5.81247 7.93652C6.19473 7.43085 6.61103 6.89129 7.06136 6.31785C7.51694 5.73919 7.96989 5.12143 8.42023 4.46458C8.8758 3.80773 9.2921 3.10396 9.66912 2.35327C9.8105 2.06654 9.93356 1.87887 10.0383 1.79025C10.1483 1.70163 10.2739 1.65731 10.4153 1.65731C10.5724 1.65731 10.7007 1.71466 10.8002 1.82935C10.9049 1.93882 10.9573 2.09782 10.9573 2.30635C10.9573 2.60871 10.8918 2.94496 10.7609 3.31509C10.63 3.68522 10.4782 4.06317 10.3054 4.44894C10.1378 4.83471 9.98854 5.21006 9.85763 5.57498C9.73196 5.93468 9.66912 6.26311 9.66912 6.56026C9.66912 6.98773 9.8236 7.32659 10.1325 7.57682C10.4467 7.82183 10.829 7.94434 11.2793 7.94434H13.9813C14.2222 7.94434 14.4238 8.02775 14.5862 8.19457C14.7537 8.35618 14.8375 8.55949 14.8375 8.80451C14.8375 8.98697 14.8061 9.14336 14.7432 9.27369C14.6804 9.40402 14.5757 9.54217 14.4291 9.68813C14.3558 9.75069 14.3165 9.82107 14.3112 9.89926C14.306 9.97225 14.3322 10.0452 14.3898 10.1182C14.5102 10.2955 14.5966 10.4492 14.649 10.5796C14.7066 10.7047 14.7354 10.8428 14.7354 10.994C14.7354 11.1713 14.6935 11.3355 14.6097 11.4867C14.5259 11.6378 14.3976 11.7786 14.2248 11.9089C14.1306 11.9819 14.0677 12.0679 14.0363 12.167C14.0049 12.2608 14.0154 12.3677 14.0677 12.4876C14.1672 12.6648 14.2405 12.8082 14.2877 12.9177C14.3348 13.0219 14.3584 13.1418 14.3584 13.2774C14.3584 13.6579 14.0887 13.9864 13.5493 14.2626C13.4656 14.3148 13.4106 14.3747 13.3844 14.4425C13.3634 14.5103 13.3713 14.5859 13.408 14.6693C13.5022 14.9039 13.5598 15.0603 13.5808 15.1385C13.6069 15.2167 13.62 15.3053 13.62 15.4043C13.62 15.5868 13.552 15.7458 13.4158 15.8813C13.2849 16.0169 13.0807 16.1211 12.8031 16.1941C12.5832 16.2515 12.2978 16.2906 11.947 16.3114C11.6014 16.3375 11.2139 16.3505 10.7845 16.3505H9.8105C8.7318 16.3505 7.78661 16.1628 6.97496 15.7875C6.16855 15.4121 5.54017 14.896 5.08984 14.2392C4.64474 13.5771 4.42219 12.8238 4.42219 11.9793ZM1.16249 12.0184C1.16249 11.3668 1.2646 10.7751 1.46883 10.2433C1.67829 9.71159 1.95058 9.28672 2.28571 8.96872C2.62608 8.65072 2.99002 8.49172 3.37752 8.49172C3.48748 8.49172 3.60007 8.49172 3.71527 8.49172C3.83047 8.49172 3.94567 8.49172 4.06087 8.49172C3.78334 9.01825 3.57912 9.56302 3.44821 10.126C3.32253 10.6838 3.2597 11.2938 3.2597 11.9558C3.2597 12.6544 3.38013 13.3034 3.62101 13.9029C3.86712 14.5025 4.21535 15.0368 4.66568 15.506C4.49812 15.506 4.33055 15.506 4.16298 15.506C3.99542 15.506 3.82785 15.506 3.66028 15.506C3.21519 15.506 2.80412 15.347 2.4271 15.029C2.05007 14.711 1.74374 14.2887 1.5081 13.7622C1.2777 13.2305 1.16249 12.6492 1.16249 12.0184Z"
		fill="currentColor"
	/>
</svg>
