<svg
	color="rgb(var(--foreground, 0, 0, 0))"
	viewBox="0 0 16 18"
	fill="none"
	xmlns="http://www.w3.org/2000/svg"
>
	<path
		d="M0 12.1906C0 13.0104 0.151531 13.7638 0.454592 14.4506C0.763064 15.132 1.18248 15.6776 1.71284 16.0875C2.24319 16.5029 2.8439 16.7107 3.51497 16.7107H4.94368C4.21309 16.1623 3.68544 15.492 3.36073 14.6999C3.04143 13.9078 2.88179 13.0437 2.88179 12.1075C2.88179 11.4151 2.95755 10.7892 3.10908 10.2297C3.26061 9.66471 3.45003 9.16895 3.67732 8.74242C3.91003 8.31036 4.14274 7.94477 4.37544 7.64565H3.21461C2.60849 7.64565 2.0619 7.84783 1.57484 8.2522C1.09318 8.65103 0.708946 9.19387 0.422121 9.88074C0.140707 10.5676 0 11.3376 0 12.1906ZM4.00203 12.1241C4.00203 12.883 4.14003 13.5893 4.41603 14.2429C4.69745 14.8965 5.10063 15.4671 5.62557 15.9545C6.15593 16.442 6.79723 16.8214 7.54947 17.0929C8.30171 17.3643 9.14865 17.5 10.0903 17.5H11.1943C11.7193 17.5 12.1739 17.4806 12.5581 17.4418C12.9423 17.4086 13.2427 17.3615 13.4592 17.3006C13.773 17.2175 14.0572 17.0707 14.3115 16.8602C14.5713 16.6553 14.7012 16.3561 14.7012 15.9629C14.7012 15.8022 14.6822 15.661 14.6443 15.5391C14.6119 15.4228 14.5713 15.3203 14.5226 15.2317C14.4522 15.1153 14.4685 15.0378 14.5713 14.999C14.8202 14.8938 15.034 14.7248 15.2126 14.4922C15.3966 14.254 15.4886 13.9715 15.4886 13.6447C15.4886 13.268 15.3939 12.9578 15.2045 12.7141C15.1071 12.5811 15.1314 12.4731 15.2775 12.39C15.4561 12.2792 15.6022 12.1158 15.7159 11.8998C15.8349 11.6838 15.8945 11.44 15.8945 11.1686C15.8945 10.9747 15.8647 10.7864 15.8052 10.6036C15.7456 10.4153 15.6645 10.2713 15.5616 10.1716C15.4534 10.0718 15.4615 9.96383 15.586 9.84751C15.7105 9.73672 15.8106 9.58993 15.8864 9.40714C15.9621 9.22434 16 9.01662 16 8.78397C16 8.51808 15.9378 8.27436 15.8133 8.05279C15.6888 7.83122 15.5211 7.65673 15.31 7.52933C15.0989 7.39638 14.8581 7.32991 14.5875 7.32991H11.7301C11.3729 7.32991 11.0834 7.24128 10.8615 7.06403C10.6396 6.88677 10.5287 6.64304 10.5287 6.33284C10.5287 6.05588 10.5963 5.73183 10.7316 5.3607C10.8669 4.98403 11.0238 4.58521 11.2024 4.16422C11.381 3.74324 11.538 3.32225 11.6733 2.90127C11.814 2.48029 11.8843 2.087 11.8843 1.72141C11.8843 1.33366 11.7761 1.03454 11.5596 0.824047C11.3486 0.608016 11.0834 0.5 10.7641 0.5C10.4718 0.5 10.2418 0.594167 10.0741 0.782502C9.90631 0.970837 9.74395 1.2201 9.58701 1.5303C8.9863 2.72678 8.31524 3.82079 7.57382 4.81232C6.8324 5.79831 6.15593 6.70674 5.54439 7.53763C5.19804 8.00847 4.90851 8.471 4.6758 8.92522C4.4485 9.37944 4.27803 9.86412 4.16438 10.3793C4.05615 10.8944 4.00203 11.4761 4.00203 12.1241Z"
		fill="currentColor"
	/>
</svg>
