<svg
	color="rgb(var(--foreground, 0, 0, 0))"
	viewBox="0 0 16 18"
	fill="none"
	xmlns="http://www.w3.org/2000/svg"
>
	<path
		d="M16 5.9869C16 5.3564 15.9031 4.75977 15.7094 4.19701C15.5209 3.63425 15.2564 3.13923 14.9161 2.71195C14.5809 2.28467 14.1934 1.94858 13.7536 1.70368C13.3137 1.45877 12.8424 1.33632 12.3397 1.33632H9.83407C9.33137 1.07579 8.78154 0.872567 8.18458 0.726667C7.58763 0.575556 6.9514 0.5 6.2759 0.5H5.22337C4.75209 0.5 4.31746 0.515632 3.91949 0.546897C3.52675 0.578161 3.19424 0.627663 2.92194 0.695402C2.39306 0.82046 1.97414 1.05494 1.66519 1.39885C1.36148 1.73755 1.20962 2.13877 1.20962 2.60253C1.20962 2.69632 1.21486 2.78751 1.22533 2.87609C1.24104 2.96467 1.26199 3.05065 1.28817 3.13402C0.748814 3.54567 0.479136 4.07716 0.479136 4.72851C0.479136 5.04636 0.536737 5.33034 0.651939 5.58046C0.4739 5.75762 0.335133 5.97126 0.235641 6.22138C0.141384 6.47149 0.0942563 6.73464 0.0942563 7.0108C0.0942563 7.18276 0.115202 7.35992 0.157094 7.5423C0.204222 7.71946 0.264441 7.87579 0.337752 8.01126C0.112584 8.33433 0 8.72774 0 9.19149C0 9.57188 0.0890198 9.91579 0.267059 10.2232C0.445099 10.5254 0.685976 10.7677 0.989691 10.9501C1.29864 11.1273 1.64163 11.2159 2.01865 11.2159H4.88562C4.9694 11.2159 5.03747 11.2367 5.08984 11.2784C5.1422 11.3149 5.16838 11.3696 5.16838 11.4425C5.16838 11.6457 5.10293 11.9089 4.97202 12.232C4.84634 12.555 4.6971 12.912 4.5243 13.3028C4.35673 13.6884 4.20749 14.0896 4.07658 14.5064C3.94567 14.9181 3.88022 15.3141 3.88022 15.6945C3.88022 16.0436 3.95614 16.3536 4.108 16.6246C4.25986 16.9008 4.4667 17.1144 4.72852 17.2655C4.99035 17.4218 5.29144 17.5 5.63181 17.5C6.0036 17.5 6.32302 17.3958 6.59008 17.1874C6.86238 16.9841 7.12158 16.648 7.3677 16.1791C7.5981 15.7362 7.8416 15.3011 8.09818 14.8738C8.36001 14.4517 8.64277 14.0218 8.94649 13.5841C9.25544 13.1412 9.59319 12.6801 9.95974 12.2007C10.3263 11.7213 10.7347 11.2107 11.1851 10.6687H12.6225C13.2456 10.6687 13.8112 10.4577 14.3191 10.0356C14.8323 9.61356 15.2407 9.0482 15.5444 8.33954C15.8481 7.63088 16 6.84667 16 5.9869ZM11.5778 6.02598C11.5778 6.5731 11.5333 7.06552 11.4443 7.50322C11.3553 7.94092 11.2086 8.36299 11.0044 8.76943C10.8002 9.17586 10.5279 9.60835 10.1875 10.0669C9.80527 10.5723 9.38635 11.1116 8.93078 11.6848C8.48044 12.258 8.02749 12.8755 7.57192 13.5372C7.12158 14.1938 6.7079 14.8972 6.33088 15.6476C6.18949 15.929 6.06382 16.1139 5.95385 16.2025C5.84389 16.2963 5.72083 16.3432 5.58468 16.3432C5.42759 16.3432 5.29668 16.2859 5.19195 16.1713C5.09246 16.0618 5.04271 15.9029 5.04271 15.6945C5.04271 15.3871 5.10817 15.0484 5.23908 14.6784C5.36999 14.3136 5.51923 13.9385 5.68679 13.5529C5.8596 13.1673 6.00884 12.7947 6.13451 12.4352C6.26542 12.0704 6.33088 11.7395 6.33088 11.4425C6.33088 11.0152 6.17378 10.6792 5.8596 10.4343C5.55065 10.1841 5.171 10.0591 4.72067 10.0591H2.01865C1.77254 10.0591 1.56832 9.97831 1.40599 9.81678C1.24366 9.65004 1.16249 9.44161 1.16249 9.19149C1.16249 9.01433 1.19391 8.86061 1.25675 8.73035C1.31959 8.60008 1.42432 8.46199 1.57094 8.31609C1.64425 8.25356 1.68352 8.18582 1.68876 8.11287C1.69399 8.03471 1.66781 7.95916 1.61021 7.88621C1.48977 7.70383 1.40075 7.55011 1.34315 7.42506C1.28555 7.29479 1.25675 7.15671 1.25675 7.0108C1.25675 6.83364 1.29864 6.6695 1.38243 6.51839C1.47144 6.36728 1.60236 6.22398 1.77516 6.08851C1.86942 6.02077 1.93225 5.93739 1.96367 5.83839C1.99509 5.73939 1.982 5.63257 1.9244 5.51793C1.83014 5.34077 1.75945 5.20008 1.71232 5.09586C1.66519 4.98644 1.64163 4.86398 1.64163 4.72851C1.64163 4.34812 1.91131 4.01724 2.45066 3.73586C2.53445 3.68897 2.58681 3.63165 2.60776 3.56391C2.63394 3.49096 2.62608 3.4128 2.58419 3.32943C2.49517 3.10015 2.43757 2.94644 2.41139 2.86828C2.39044 2.7849 2.37997 2.69632 2.37997 2.60253C2.37997 2.42015 2.44543 2.26123 2.57634 2.12575C2.71249 1.99027 2.91671 1.88605 3.189 1.8131C3.41417 1.75579 3.69956 1.7141 4.04516 1.68805C4.39601 1.66199 4.78612 1.64897 5.21551 1.64897H6.18949C7.2682 1.65418 8.21077 1.84437 9.01718 2.21954C9.82883 2.59471 10.4572 3.11057 10.9023 3.76713C11.3526 4.42368 11.5778 5.17663 11.5778 6.02598ZM14.8375 5.9869C14.8375 6.63303 14.7328 7.22444 14.5233 7.76115C14.3191 8.29264 14.0468 8.71732 13.7064 9.03517C13.3713 9.35303 13.01 9.51195 12.6225 9.51195C12.5073 9.51195 12.3921 9.51195 12.2769 9.51195C12.1669 9.51195 12.0543 9.51195 11.9391 9.51195C12.2167 8.98567 12.4183 8.44115 12.5439 7.87839C12.6748 7.31563 12.7403 6.70598 12.7403 6.04943C12.7403 5.35119 12.6172 4.70245 12.3711 4.10322C12.1303 3.49877 11.7846 2.96467 11.3343 2.50092C11.5019 2.50092 11.6694 2.50092 11.837 2.50092C12.0046 2.50092 12.1721 2.50092 12.3397 2.50092C12.7796 2.50092 13.188 2.65985 13.565 2.9777C13.9473 3.29556 14.2536 3.72023 14.484 4.25172C14.7197 4.77801 14.8375 5.3564 14.8375 5.9869Z"
		fill="currentColor"
	/>
</svg>
