<svg color="rgb(var(--foreground, 0, 0, 0))" viewBox="0 0 19 16" fill="none">
	<path
		d="M2.27597 15.5H16.1533C16.6573 15.5 17.0774 15.4134 17.4134 15.2403C17.7546 15.0723 18.0092 14.8203 18.1772 14.4842C18.3452 14.1533 18.4292 13.7408 18.4292 13.2469V2.75306C18.4292 2.25917 18.3452 1.84674 18.1772 1.51578C18.0092 1.17974 17.7546 0.927699 17.4134 0.759674C17.0774 0.586558 16.6573 0.5 16.1533 0.5H2.27597C1.77189 0.5 1.35183 0.586558 1.01578 0.759674C0.679735 0.927699 0.425153 1.17974 0.252037 1.51578C0.0840122 1.84674 0 2.25917 0 2.75306V13.2469C0 13.7408 0.0840122 14.1533 0.252037 14.4842C0.425153 14.8203 0.679735 15.0723 1.01578 15.2403C1.35183 15.4134 1.77189 15.5 2.27597 15.5ZM2.2836 14.2704C1.94756 14.2704 1.68788 14.1762 1.50458 13.9878C1.32128 13.8045 1.22963 13.5372 1.22963 13.1858V2.81415C1.22963 2.46283 1.32128 2.19552 1.50458 2.01222C1.68788 1.82383 1.94756 1.72963 2.2836 1.72963H16.1456C16.4817 1.72963 16.7413 1.82383 16.9246 2.01222C17.1079 2.19552 17.1996 2.46283 17.1996 2.81415V13.1858C17.1996 13.5372 17.1079 13.8045 16.9246 13.9878C16.7413 14.1762 16.4817 14.2704 16.1456 14.2704H2.2836ZM4.91853 7.41955C5.34114 7.41955 5.72556 7.31772 6.07179 7.11405C6.41802 6.9053 6.69297 6.6278 6.89664 6.28157C7.1054 5.93534 7.20978 5.55092 7.20978 5.12831C7.20978 4.71079 7.1054 4.32892 6.89664 3.98269C6.69297 3.63646 6.41802 3.35896 6.07179 3.1502C5.72556 2.94145 5.34114 2.83707 4.91853 2.83707C4.50102 2.83707 4.11914 2.94145 3.77291 3.1502C3.42668 3.35896 3.14919 3.63646 2.94043 3.98269C2.73167 4.32892 2.62729 4.71079 2.62729 5.12831C2.62729 5.55092 2.73167 5.93534 2.94043 6.28157C3.14919 6.6278 3.42668 6.9053 3.77291 7.11405C4.11914 7.31772 4.50102 7.41955 4.91853 7.41955ZM4.91853 6.69399C4.49084 6.69399 4.12424 6.54124 3.81874 6.23574C3.51324 5.93024 3.36049 5.5611 3.36049 5.12831C3.36049 4.69552 3.51324 4.32637 3.81874 4.02088C4.12424 3.71538 4.49084 3.56263 4.91853 3.56263C5.35132 3.56263 5.72047 3.71538 6.02597 4.02088C6.33147 4.32637 6.48422 4.69552 6.48422 5.12831C6.48422 5.5611 6.33147 5.93024 6.02597 6.23574C5.72047 6.54124 5.35132 6.69399 4.91853 6.69399ZM4.91853 6.33503C5.25967 6.33503 5.54481 6.22047 5.77393 5.99134C6.00305 5.75713 6.11762 5.46945 6.11762 5.12831C6.11762 4.79226 6.00305 4.50967 5.77393 4.28055C5.54481 4.04633 5.25967 3.92923 4.91853 3.92923C4.58248 3.92923 4.29735 4.04633 4.06314 4.28055C3.83401 4.50967 3.71945 4.79226 3.71945 5.12831C3.71945 5.46945 3.83401 5.75713 4.06314 5.99134C4.29735 6.22047 4.58248 6.33503 4.91853 6.33503ZM10.8376 7.41955C11.2551 7.41955 11.637 7.31772 11.9832 7.11405C12.3294 6.9053 12.6044 6.6278 12.808 6.28157C13.0168 5.93534 13.1212 5.55092 13.1212 5.12831C13.1212 4.71079 13.0168 4.32892 12.808 3.98269C12.6044 3.63646 12.3294 3.35896 11.9832 3.1502C11.637 2.94145 11.2551 2.83707 10.8376 2.83707C10.415 2.83707 10.0306 2.94145 9.68432 3.1502C9.33809 3.35896 9.06059 3.63646 8.85183 3.98269C8.64817 4.32892 8.54633 4.71079 8.54633 5.12831C8.54633 5.55092 8.64817 5.93534 8.85183 6.28157C9.06059 6.6278 9.33809 6.9053 9.68432 7.11405C10.0306 7.31772 10.415 7.41955 10.8376 7.41955ZM10.8376 6.69399C10.4048 6.69399 10.0356 6.54124 9.73014 6.23574C9.42464 5.93024 9.27189 5.5611 9.27189 5.12831C9.27189 4.69552 9.42464 4.32637 9.73014 4.02088C10.0356 3.71538 10.4048 3.56263 10.8376 3.56263C11.2653 3.56263 11.6319 3.71538 11.9374 4.02088C12.2429 4.32637 12.3956 4.69552 12.3956 5.12831C12.3956 5.5611 12.2429 5.93024 11.9374 6.23574C11.6319 6.54124 11.2653 6.69399 10.8376 6.69399ZM10.8376 6.33503C11.1736 6.33503 11.4562 6.22047 11.6853 5.99134C11.9196 5.75713 12.0367 5.46945 12.0367 5.12831C12.0367 4.79226 11.9196 4.50967 11.6853 4.28055C11.4562 4.04633 11.1736 3.92923 10.8376 3.92923C10.4964 3.92923 10.2088 4.04633 9.97454 4.28055C9.74542 4.50967 9.63085 4.79226 9.63085 5.12831C9.63085 5.46945 9.74542 5.75713 9.97454 5.99134C10.2088 6.22047 10.4964 6.33503 10.8376 6.33503ZM4.91853 13.14C5.34114 13.14 5.72556 13.0382 6.07179 12.8345C6.41802 12.6258 6.69297 12.3483 6.89664 12.002C7.1054 11.6558 7.20978 11.2714 7.20978 10.8488C7.20978 10.4313 7.1054 10.0494 6.89664 9.70316C6.69297 9.35692 6.41802 9.08197 6.07179 8.87831C5.72556 8.66955 5.34114 8.56517 4.91853 8.56517C4.50102 8.56517 4.11914 8.66955 3.77291 8.87831C3.42668 9.08197 3.14919 9.35692 2.94043 9.70316C2.73167 10.0494 2.62729 10.4313 2.62729 10.8488C2.62729 11.2714 2.73167 11.6558 2.94043 12.002C3.14919 12.3483 3.42668 12.6258 3.77291 12.8345C4.11914 13.0382 4.50102 13.14 4.91853 13.14ZM4.91853 12.4145C4.49084 12.4145 4.12424 12.2617 3.81874 11.9562C3.51324 11.6507 3.36049 11.2816 3.36049 10.8488C3.36049 10.4211 3.51324 10.0545 3.81874 9.74898C4.12424 9.44348 4.49084 9.29073 4.91853 9.29073C5.35132 9.29073 5.72047 9.44348 6.02597 9.74898C6.33147 10.0545 6.48422 10.4211 6.48422 10.8488C6.48422 11.2816 6.33147 11.6507 6.02597 11.9562C5.72047 12.2617 5.35132 12.4145 4.91853 12.4145ZM4.91853 12.0555C5.25967 12.0555 5.54481 11.9409 5.77393 11.7118C6.00305 11.4776 6.11762 11.1899 6.11762 10.8488C6.11762 10.5127 6.00305 10.2301 5.77393 10.001C5.54481 9.7668 5.25967 9.64969 4.91853 9.64969C4.58248 9.64969 4.29735 9.7668 4.06314 10.001C3.83401 10.2301 3.71945 10.5127 3.71945 10.8488C3.71945 11.1899 3.83401 11.4776 4.06314 11.7118C4.29735 11.9409 4.58248 12.0555 4.91853 12.0555ZM10.8376 13.14C11.2551 13.14 11.637 13.0382 11.9832 12.8345C12.3294 12.6258 12.6044 12.3483 12.808 12.002C13.0168 11.6558 13.1212 11.2714 13.1212 10.8488C13.1212 10.4313 13.0168 10.0494 12.808 9.70316C12.6044 9.35692 12.3294 9.08197 11.9832 8.87831C11.637 8.66955 11.2551 8.56517 10.8376 8.56517C10.415 8.56517 10.0306 8.66955 9.68432 8.87831C9.33809 9.08197 9.06059 9.35692 8.85183 9.70316C8.64817 10.0494 8.54633 10.4313 8.54633 10.8488C8.54633 11.2714 8.64817 11.6558 8.85183 12.002C9.06059 12.3483 9.33809 12.6258 9.68432 12.8345C10.0306 13.0382 10.415 13.14 10.8376 13.14ZM10.8376 12.4145C10.4048 12.4145 10.0356 12.2617 9.73014 11.9562C9.42464 11.6507 9.27189 11.2816 9.27189 10.8488C9.27189 10.4211 9.42464 10.0545 9.73014 9.74898C10.0356 9.44348 10.4048 9.29073 10.8376 9.29073C11.2653 9.29073 11.6319 9.44348 11.9374 9.74898C12.2429 10.0545 12.3956 10.4211 12.3956 10.8488C12.3956 11.2816 12.2429 11.6507 11.9374 11.9562C11.6319 12.2617 11.2653 12.4145 10.8376 12.4145ZM10.8376 12.0555C11.1736 12.0555 11.4562 11.9409 11.6853 11.7118C11.9196 11.4776 12.0367 11.1899 12.0367 10.8488C12.0367 10.5127 11.9196 10.2301 11.6853 10.001C11.4562 9.7668 11.1736 9.64969 10.8376 9.64969C10.4964 9.64969 10.2088 9.7668 9.97454 10.001C9.74542 10.2301 9.63085 10.5127 9.63085 10.8488C9.63085 11.1899 9.74542 11.4776 9.97454 11.7118C10.2088 11.9409 10.4964 12.0555 10.8376 12.0555ZM15.4659 5.37271C15.6543 5.37271 15.8121 5.30906 15.9394 5.18177C16.0667 5.04939 16.1303 4.889 16.1303 4.70061C16.1303 4.51731 16.0667 4.36202 15.9394 4.23472C15.8121 4.10234 15.6543 4.03615 15.4659 4.03615C15.2826 4.03615 15.1247 4.10234 14.9924 4.23472C14.86 4.36202 14.7938 4.51731 14.7938 4.70061C14.7938 4.889 14.86 5.04939 14.9924 5.18177C15.1247 5.30906 15.2826 5.37271 15.4659 5.37271ZM15.4659 7.56466C15.6543 7.56466 15.8121 7.50102 15.9394 7.37373C16.0667 7.24134 16.1303 7.08096 16.1303 6.89257C16.1303 6.70927 16.0667 6.55397 15.9394 6.42668C15.8121 6.2943 15.6543 6.22811 15.4659 6.22811C15.2826 6.22811 15.1247 6.2943 14.9924 6.42668C14.86 6.55397 14.7938 6.70927 14.7938 6.89257C14.7938 7.08096 14.86 7.24134 14.9924 7.37373C15.1247 7.50102 15.2826 7.56466 15.4659 7.56466ZM15.4659 9.76426C15.6543 9.76426 15.8121 9.69806 15.9394 9.56568C16.0667 9.4333 16.1303 9.27546 16.1303 9.09216C16.1303 8.90377 16.0667 8.74593 15.9394 8.61864C15.8121 8.49134 15.6543 8.4277 15.4659 8.4277C15.2826 8.4277 15.1247 8.49134 14.9924 8.61864C14.86 8.74593 14.7938 8.90377 14.7938 9.09216C14.7938 9.27546 14.86 9.4333 14.9924 9.56568C15.1247 9.69806 15.2826 9.76426 15.4659 9.76426ZM15.4659 11.9562C15.6543 11.9562 15.8121 11.8926 15.9394 11.7653C16.0667 11.6329 16.1303 11.4725 16.1303 11.2841C16.1303 11.1008 16.0667 10.9455 15.9394 10.8182C15.8121 10.6858 15.6543 10.6197 15.4659 10.6197C15.2826 10.6197 15.1247 10.6858 14.9924 10.8182C14.86 10.9455 14.7938 11.1008 14.7938 11.2841C14.7938 11.4725 14.86 11.6329 14.9924 11.7653C15.1247 11.8926 15.2826 11.9562 15.4659 11.9562Z"
		fill="currentColor"
	/>
</svg>
