<svg color="rgb(var(--foreground, 0, 0, 0))" viewBox="0 0 20 16" fill="none">
	<path
		d="M2.77569 15.5H17.0828C17.6025 15.5 18.0355 15.4134 18.382 15.2403C18.7337 15.0723 18.9962 14.8203 19.1694 14.4842C19.3426 14.1533 19.4292 13.7408 19.4292 13.2469V2.75306C19.4292 2.25917 19.3426 1.84674 19.1694 1.51578C18.9962 1.17974 18.7337 0.927699 18.382 0.759674C18.0355 0.586558 17.6025 0.5 17.0828 0.5H2.77569C2.256 0.5 1.82293 0.586558 1.47647 0.759674C1.13002 0.927699 0.86755 1.17974 0.689072 1.51578C0.515844 1.84674 0.42923 2.25917 0.42923 2.75306V13.2469C0.42923 13.7408 0.515844 14.1533 0.689072 14.4842C0.86755 14.8203 1.13002 15.0723 1.47647 15.2403C1.82293 15.4134 2.256 15.5 2.77569 15.5ZM5.27175 7.40428C4.82556 7.40428 4.41873 7.29735 4.05128 7.0835C3.68382 6.86965 3.38986 6.58452 3.16939 6.22811C2.94891 5.8666 2.83868 5.46945 2.83868 5.03666C2.83868 4.60387 2.94891 4.20927 3.16939 3.85285C3.38986 3.49134 3.68382 3.20367 4.05128 2.98982C4.41873 2.77597 4.82556 2.66904 5.27175 2.66904C5.72319 2.66904 6.13264 2.77597 6.5001 2.98982C6.86755 3.20367 7.16151 3.49134 7.38199 3.85285C7.60246 4.20927 7.71269 4.60387 7.71269 5.03666C7.71269 5.46945 7.60246 5.8666 7.38199 6.22811C7.16151 6.58452 6.86755 6.86965 6.5001 7.0835C6.13264 7.29735 5.72319 7.40428 5.27175 7.40428ZM11.571 7.40428C11.1248 7.40428 10.7153 7.29735 10.3426 7.0835C9.97516 6.86965 9.6812 6.58452 9.46073 6.22811C9.24025 5.8666 9.13002 5.46945 9.13002 5.03666C9.13002 4.60387 9.24025 4.20927 9.46073 3.85285C9.6812 3.49134 9.97516 3.20367 10.3426 2.98982C10.7153 2.77597 11.1248 2.66904 11.571 2.66904C12.0172 2.66904 12.424 2.77597 12.7914 2.98982C13.1641 3.20367 13.4581 3.49134 13.6733 3.85285C13.8938 4.20927 14.004 4.60387 14.004 5.03666C14.004 5.46945 13.8938 5.8666 13.6733 6.22811C13.4581 6.58452 13.1641 6.86965 12.7914 7.0835C12.424 7.29735 12.0172 7.40428 11.571 7.40428ZM5.27175 13.308C4.82556 13.308 4.41873 13.2011 4.05128 12.9873C3.68382 12.7734 3.38986 12.4883 3.16939 12.1319C2.94891 11.7755 2.83868 11.3783 2.83868 10.9404C2.83868 10.5076 2.94891 10.113 3.16939 9.75662C3.38986 9.4002 3.68382 9.11507 4.05128 8.90122C4.41873 8.68737 4.82556 8.58045 5.27175 8.58045C5.72319 8.58045 6.13264 8.68737 6.5001 8.90122C6.86755 9.11507 7.16151 9.4002 7.38199 9.75662C7.60246 10.113 7.71269 10.5076 7.71269 10.9404C7.71269 11.3783 7.60246 11.7755 7.38199 12.1319C7.16151 12.4883 6.86755 12.7734 6.5001 12.9873C6.13264 13.2011 5.72319 13.308 5.27175 13.308ZM11.571 13.308C11.1248 13.308 10.7153 13.2011 10.3426 12.9873C9.97516 12.7734 9.6812 12.4883 9.46073 12.1319C9.24025 11.7755 9.13002 11.3783 9.13002 10.9404C9.13002 10.5076 9.24025 10.113 9.46073 9.75662C9.6812 9.4002 9.97516 9.11507 10.3426 8.90122C10.7153 8.68737 11.1248 8.58045 11.571 8.58045C12.0172 8.58045 12.424 8.68737 12.7914 8.90122C13.1641 9.11507 13.4581 9.4002 13.6733 9.75662C13.8938 10.113 14.004 10.5076 14.004 10.9404C14.004 11.3783 13.8938 11.7755 13.6733 12.1319C13.4581 12.4883 13.1641 12.7734 12.7914 12.9873C12.424 13.2011 12.0172 13.308 11.571 13.308ZM16.5788 5.2887C16.3794 5.2887 16.2088 5.22251 16.067 5.09012C15.9305 4.95774 15.8623 4.79226 15.8623 4.59369C15.8623 4.4053 15.9305 4.24491 16.067 4.11253C16.2088 3.97505 16.3794 3.90631 16.5788 3.90631C16.7731 3.90631 16.9384 3.97505 17.0749 4.11253C17.2166 4.24491 17.2875 4.4053 17.2875 4.59369C17.2875 4.79226 17.2166 4.95774 17.0749 5.09012C16.9384 5.22251 16.7731 5.2887 16.5788 5.2887ZM16.5788 7.54939C16.3794 7.54939 16.2088 7.4832 16.067 7.35081C15.9305 7.21843 15.8623 7.05295 15.8623 6.85438C15.8623 6.67108 15.9305 6.51069 16.067 6.37322C16.2088 6.23574 16.3794 6.16701 16.5788 6.16701C16.7731 6.16701 16.9384 6.23574 17.0749 6.37322C17.2166 6.51069 17.2875 6.67108 17.2875 6.85438C17.2875 7.05295 17.2166 7.21843 17.0749 7.35081C16.9384 7.4832 16.7731 7.54939 16.5788 7.54939ZM16.5788 9.82536C16.3794 9.82536 16.2088 9.75662 16.067 9.61914C15.9305 9.48167 15.8623 9.31874 15.8623 9.13035C15.8623 8.93686 15.9305 8.77393 16.067 8.64155C16.2088 8.50916 16.3794 8.44297 16.5788 8.44297C16.7731 8.44297 16.9384 8.50916 17.0749 8.64155C17.2166 8.77393 17.2875 8.93686 17.2875 9.13035C17.2875 9.31874 17.2166 9.48167 17.0749 9.61914C16.9384 9.75662 16.7731 9.82536 16.5788 9.82536ZM16.5788 12.086C16.3794 12.086 16.2088 12.0173 16.067 11.8798C15.9305 11.7424 15.8623 11.5794 15.8623 11.391C15.8623 11.1976 15.9305 11.0346 16.067 10.9022C16.2088 10.7699 16.3794 10.7037 16.5788 10.7037C16.7731 10.7037 16.9384 10.7699 17.0749 10.9022C17.2166 11.0346 17.2875 11.1976 17.2875 11.391C17.2875 11.5794 17.2166 11.7424 17.0749 11.8798C16.9384 12.0173 16.7731 12.086 16.5788 12.086ZM5.27175 6.64817C5.73369 6.64817 6.12739 6.49287 6.45285 6.18228C6.77831 5.8666 6.94104 5.48472 6.94104 5.03666C6.94104 4.58859 6.77831 4.20927 6.45285 3.89868C6.12739 3.58299 5.73369 3.42515 5.27175 3.42515C4.81506 3.42515 4.42398 3.58299 4.09852 3.89868C3.77831 4.20927 3.61821 4.58859 3.61821 5.03666C3.61821 5.48472 3.77831 5.8666 4.09852 6.18228C4.42398 6.49287 4.81506 6.64817 5.27175 6.64817ZM5.27175 6.28157C4.91479 6.28157 4.61296 6.16191 4.36624 5.92261C4.12477 5.6833 4.00403 5.38798 4.00403 5.03666C4.00403 4.68534 4.12477 4.39257 4.36624 4.15835C4.61296 3.91904 4.91479 3.79939 5.27175 3.79939C5.63395 3.79939 5.93579 3.91904 6.17726 4.15835C6.42398 4.39257 6.54734 4.68534 6.54734 5.03666C6.54734 5.38798 6.42398 5.6833 6.17726 5.92261C5.93579 6.16191 5.63395 6.28157 5.27175 6.28157ZM11.571 6.64817C12.0277 6.64817 12.4187 6.49287 12.7442 6.18228C13.0696 5.8666 13.2324 5.48472 13.2324 5.03666C13.2324 4.58859 13.0696 4.20927 12.7442 3.89868C12.4187 3.58299 12.0277 3.42515 11.571 3.42515C11.1143 3.42515 10.7232 3.58299 10.3977 3.89868C10.0723 4.20927 9.90954 4.58859 9.90954 5.03666C9.90954 5.48472 10.0723 5.8666 10.3977 6.18228C10.7232 6.49287 11.1143 6.64817 11.571 6.64817ZM11.571 6.28157C11.2088 6.28157 10.9043 6.16191 10.6576 5.92261C10.4109 5.6833 10.2875 5.38798 10.2875 5.03666C10.2875 4.68534 10.4109 4.39257 10.6576 4.15835C10.9043 3.91904 11.2088 3.79939 11.571 3.79939C11.9279 3.79939 12.2298 3.91904 12.4765 4.15835C12.7232 4.39257 12.8466 4.68534 12.8466 5.03666C12.8466 5.38798 12.7232 5.6833 12.4765 5.92261C12.2298 6.16191 11.9279 6.28157 11.571 6.28157ZM5.27175 12.5519C5.73369 12.5519 6.12739 12.3966 6.45285 12.086C6.77831 11.7704 6.94104 11.3885 6.94104 10.9404C6.94104 10.4975 6.77831 10.1207 6.45285 9.81008C6.12739 9.4944 5.73369 9.33656 5.27175 9.33656C4.81506 9.33656 4.42398 9.4944 4.09852 9.81008C3.77831 10.1207 3.61821 10.4975 3.61821 10.9404C3.61821 11.3885 3.77831 11.7704 4.09852 12.086C4.42398 12.3966 4.81506 12.5519 5.27175 12.5519ZM5.27175 12.1853C4.91479 12.1853 4.61296 12.0657 4.36624 11.8264C4.12477 11.5871 4.00403 11.2918 4.00403 10.9404C4.00403 10.5942 4.12477 10.3014 4.36624 10.0621C4.61296 9.82281 4.91479 9.70316 5.27175 9.70316C5.63395 9.70316 5.93579 9.82281 6.17726 10.0621C6.42398 10.3014 6.54734 10.5942 6.54734 10.9404C6.54734 11.2918 6.42398 11.5871 6.17726 11.8264C5.93579 12.0657 5.63395 12.1853 5.27175 12.1853ZM11.571 12.5519C12.0277 12.5519 12.4187 12.3966 12.7442 12.086C13.0696 11.7704 13.2324 11.3885 13.2324 10.9404C13.2324 10.4975 13.0696 10.1207 12.7442 9.81008C12.4187 9.4944 12.0277 9.33656 11.571 9.33656C11.1143 9.33656 10.7232 9.4944 10.3977 9.81008C10.0723 10.1207 9.90954 10.4975 9.90954 10.9404C9.90954 11.3885 10.0723 11.7704 10.3977 12.086C10.7232 12.3966 11.1143 12.5519 11.571 12.5519ZM11.571 12.1853C11.2088 12.1853 10.9043 12.0657 10.6576 11.8264C10.4109 11.5871 10.2875 11.2918 10.2875 10.9404C10.2875 10.5942 10.4109 10.3014 10.6576 10.0621C10.9043 9.82281 11.2088 9.70316 11.571 9.70316C11.9279 9.70316 12.2298 9.82281 12.4765 10.0621C12.7232 10.3014 12.8466 10.5942 12.8466 10.9404C12.8466 11.2918 12.7232 11.5871 12.4765 11.8264C12.2298 12.0657 11.9279 12.1853 11.571 12.1853Z"
		fill="currentColor"
	/>
</svg>
