<svg color="rgb(var(--foreground, 0, 0, 0))" viewBox="0 0 16 18" fill="none">
	<path
		d="M2.23344 16.8312H6.42511C6.26439 16.6497 6.12182 16.4527 5.99739 16.2402C5.87296 16.0328 5.76927 15.8124 5.68632 15.5791H2.28788C2.10642 15.5791 1.95866 15.5221 1.8446 15.4081C1.73573 15.2992 1.68129 15.1514 1.68129 14.9648V2.3742C1.68129 2.18756 1.73573 2.03721 1.8446 1.92315C1.95866 1.80909 2.10642 1.75206 2.28788 1.75206H12.0633C12.2447 1.75206 12.3899 1.80909 12.4988 1.92315C12.6128 2.03721 12.6699 2.18756 12.6699 2.3742V9.38884C12.8928 9.4355 13.1079 9.5029 13.3153 9.59103C13.5279 9.67917 13.7301 9.78027 13.9219 9.89433V2.35865C13.9219 1.8039 13.756 1.35544 13.4242 1.01327C13.0976 0.671089 12.6647 0.5 12.1255 0.5H2.23344C1.69425 0.5 1.25875 0.671089 0.926942 1.01327C0.595134 1.35544 0.42923 1.8039 0.42923 2.35865V14.9803C0.42923 15.5351 0.595134 15.9809 0.926942 16.3179C1.25875 16.6601 1.69425 16.8312 2.23344 16.8312ZM3.36107 3.84401C3.5529 3.84401 3.71362 3.77661 3.84323 3.64181C3.97803 3.50701 4.04542 3.3437 4.04542 3.15188C4.04542 2.96523 3.97803 2.80451 3.84323 2.66972C3.71362 2.53492 3.5529 2.46752 3.36107 2.46752C3.17443 2.46752 3.01371 2.53492 2.87891 2.66972C2.74411 2.80451 2.67671 2.96523 2.67671 3.15188C2.67671 3.3437 2.74411 3.50701 2.87891 3.64181C3.01371 3.77661 3.17443 3.84401 3.36107 3.84401ZM5.34414 3.84401C5.53597 3.84401 5.69669 3.77661 5.8263 3.64181C5.9611 3.50701 6.0285 3.3437 6.0285 3.15188C6.0285 2.96523 5.9611 2.80451 5.8263 2.66972C5.69669 2.53492 5.53597 2.46752 5.34414 2.46752C5.1575 2.46752 4.99678 2.53492 4.86198 2.66972C4.73237 2.80451 4.66756 2.96523 4.66756 3.15188C4.66756 3.3437 4.73237 3.50701 4.86198 3.64181C4.99678 3.77661 5.1575 3.84401 5.34414 3.84401ZM1.11358 5.57823H13.2453V4.55947H1.11358V5.57823ZM5.34414 7.29689H9.01478C9.12883 7.29689 9.22216 7.2606 9.29474 7.18801C9.36732 7.11543 9.40361 7.01952 9.40361 6.90027C9.40361 6.78622 9.36732 6.69289 9.29474 6.62031C9.22216 6.54773 9.12883 6.51144 9.01478 6.51144H5.34414C5.2249 6.51144 5.12899 6.54773 5.0564 6.62031C4.98382 6.69289 4.94753 6.78622 4.94753 6.90027C4.94753 7.01952 4.98382 7.11543 5.0564 7.18801C5.12899 7.2606 5.2249 7.29689 5.34414 7.29689ZM1.00471 14.677H5.38303C5.34674 14.4904 5.326 14.3193 5.32081 14.1638C5.31563 14.003 5.31822 13.8346 5.32859 13.6583H1.00471V14.677ZM9.89355 17.5C10.4016 17.5 10.8786 17.4041 11.3245 17.2123C11.7755 17.0256 12.1695 16.7612 12.5065 16.419C12.8435 16.082 13.1079 15.6906 13.2998 15.2447C13.4916 14.7989 13.5875 14.3193 13.5875 13.806C13.5875 13.2876 13.4916 12.8054 13.2998 12.3596C13.1079 11.9137 12.8435 11.5223 12.5065 11.1853C12.1695 10.8483 11.7755 10.5839 11.3245 10.392C10.8786 10.2002 10.4016 10.1043 9.89355 10.1043C9.38028 10.1043 8.89812 10.2002 8.44707 10.392C8.0012 10.5839 7.60977 10.8483 7.27278 11.1853C6.93579 11.5223 6.67138 11.9137 6.47955 12.3596C6.28772 12.8054 6.19181 13.2876 6.19181 13.806C6.19181 14.3193 6.28772 14.7989 6.47955 15.2447C6.67138 15.6906 6.93579 16.082 7.27278 16.419C7.60977 16.7612 8.0012 17.0256 8.44707 17.2123C8.89812 17.4041 9.38028 17.5 9.89355 17.5ZM9.89355 16.7145C9.33362 16.7145 8.83332 16.5875 8.39263 16.3335C7.95714 16.0794 7.61237 15.7321 7.35832 15.2914C7.10428 14.8507 6.97726 14.3556 6.97726 13.806C6.97726 13.2513 7.10428 12.7536 7.35832 12.3129C7.61237 11.8722 7.95714 11.5249 8.39263 11.2708C8.83332 11.0168 9.33362 10.8898 9.89355 10.8898C10.4431 10.8898 10.9382 11.0168 11.3789 11.2708C11.8196 11.5249 12.167 11.8722 12.421 12.3129C12.675 12.7536 12.8021 13.2513 12.8021 13.806C12.8021 14.3556 12.675 14.8507 12.421 15.2914C12.167 15.7321 11.8196 16.0794 11.3789 16.3335C10.9382 16.5875 10.4431 16.7145 9.89355 16.7145ZM9.89355 16.1313C10.3187 16.1313 10.7075 16.025 11.0601 15.8124C11.4126 15.6051 11.6926 15.3251 11.9 14.9726C12.1125 14.62 12.2188 14.2312 12.2188 13.806C12.2188 13.3757 12.1125 12.9843 11.9 12.6317C11.6926 12.2792 11.4126 11.9992 11.0601 11.7919C10.7075 11.5845 10.3187 11.4808 9.89355 11.4808C9.46323 11.4808 9.0718 11.5871 8.71926 11.7996C8.36671 12.007 8.08416 12.287 7.87159 12.6395C7.66421 12.9869 7.56052 13.3757 7.56052 13.806C7.56052 14.2312 7.66421 14.62 7.87159 14.9726C8.08416 15.3251 8.36671 15.6051 8.71926 15.8124C9.0718 16.025 9.46323 16.1313 9.89355 16.1313ZM9.89355 15.4236C9.41657 15.4236 9.02514 15.2707 8.71926 14.9648C8.41856 14.6641 8.26821 14.2778 8.26821 13.806C8.26821 13.3291 8.41856 12.9402 8.71926 12.6395C9.02514 12.3388 9.41657 12.1885 9.89355 12.1885C10.3653 12.1885 10.7516 12.3388 11.0523 12.6395C11.3582 12.9402 11.5111 13.3291 11.5111 13.806C11.5111 14.2778 11.3582 14.6641 11.0523 14.9648C10.7516 15.2707 10.3653 15.4236 9.89355 15.4236ZM11.4878 17.5C12.0011 17.5 12.4806 17.4041 12.9265 17.2123C13.3724 17.0256 13.7638 16.7612 14.1008 16.419C14.4378 16.082 14.7022 15.6906 14.894 15.2447C15.0858 14.7989 15.1817 14.3193 15.1817 13.806C15.1817 13.2876 15.0858 12.8054 14.894 12.3596C14.7022 11.9137 14.4378 11.5223 14.1008 11.1853C13.7638 10.8483 13.3724 10.5839 12.9265 10.392C12.4806 10.2002 12.0011 10.1043 11.4878 10.1043C11.0471 10.1043 10.6323 10.1795 10.2435 10.3298L11.1456 10.9131C11.2026 10.9079 11.2597 10.9027 11.3167 10.8975C11.3737 10.8923 11.4308 10.8898 11.4878 10.8898C12.0425 10.8898 12.5376 11.0168 12.9731 11.2708C13.4138 11.5249 13.7612 11.8722 14.0152 12.3129C14.2693 12.7536 14.3963 13.2513 14.3963 13.806C14.3963 14.3556 14.2693 14.8507 14.0152 15.2914C13.7612 15.7321 13.4138 16.0794 12.9731 16.3335C12.5376 16.5875 12.0425 16.7145 11.4878 16.7145C11.4308 16.7145 11.3737 16.712 11.3167 16.7068C11.2597 16.7068 11.2026 16.7042 11.1456 16.699L10.5001 17.3678C10.8112 17.4559 11.1404 17.5 11.4878 17.5Z"
		fill="currentColor"
	/>
</svg>
