<svg color="rgb(var(--foreground, 0, 0, 0))" viewBox="0 0 16 18" fill="none">
	<path
		d="M0.181763 4.40393H13.9008V2.35865C13.9008 1.8039 13.7321 1.35544 13.3947 1.01327C13.0626 0.671089 12.6225 0.5 12.0742 0.5H2.01624C1.468 0.5 1.0252 0.671089 0.687825 1.01327C0.35045 1.35544 0.181763 1.8039 0.181763 2.35865V4.40393ZM3.04418 3.54071C2.84386 3.54071 2.67254 3.47072 2.53021 3.33074C2.39315 3.19076 2.32462 3.02486 2.32462 2.83303C2.32462 2.63602 2.39315 2.46752 2.53021 2.32754C2.67254 2.18756 2.84386 2.11757 3.04418 2.11757C3.23922 2.11757 3.40527 2.18756 3.54233 2.32754C3.68466 2.46752 3.75583 2.63602 3.75583 2.83303C3.75583 3.02486 3.68466 3.19076 3.54233 3.33074C3.40527 3.47072 3.23922 3.54071 3.04418 3.54071ZM5.12378 3.54071C4.92346 3.54071 4.75477 3.47072 4.61771 3.33074C4.48066 3.19076 4.41213 3.02486 4.41213 2.83303C4.41213 2.63602 4.48066 2.46752 4.61771 2.32754C4.75477 2.18756 4.92346 2.11757 5.12378 2.11757C5.31882 2.11757 5.48487 2.18756 5.62193 2.32754C5.76426 2.46752 5.83543 2.63602 5.83543 2.83303C5.83543 3.02486 5.76426 3.19076 5.62193 3.33074C5.48487 3.47072 5.31882 3.54071 5.12378 3.54071ZM0.181763 13.8138H4.33305C4.32778 13.7568 4.32251 13.7023 4.31724 13.6505C4.31724 13.5935 4.31724 13.5364 4.31724 13.4794C4.31724 12.7951 4.44639 12.1574 4.70469 11.5663C4.963 10.9701 5.32146 10.4465 5.78008 9.99543C6.23869 9.54437 6.77111 9.19183 7.37733 8.93779C7.98355 8.68375 8.63458 8.55672 9.33042 8.55672C9.46221 8.55672 9.59136 8.56191 9.71787 8.57228C9.84966 8.57746 9.97618 8.59042 10.0974 8.61116C10.2503 8.59042 10.4111 8.57746 10.5798 8.57228C10.7484 8.56191 10.9198 8.55672 11.0937 8.55672C11.6156 8.55672 12.1138 8.6319 12.5882 8.78225C13.0626 8.92742 13.5002 9.13221 13.9008 9.39662V5.46157H0.181763V13.8138ZM5.11587 7.37466C4.99463 7.37466 4.89447 7.33577 4.81539 7.25801C4.74159 7.18024 4.70469 7.08173 4.70469 6.96249C4.70469 6.84325 4.74159 6.74733 4.81539 6.67475C4.89447 6.59698 4.99463 6.5581 5.11587 6.5581H8.97459C9.09584 6.5581 9.19336 6.59698 9.26716 6.67475C9.34096 6.74733 9.37786 6.84325 9.37786 6.96249C9.37786 7.08173 9.34096 7.18024 9.26716 7.25801C9.19336 7.33577 9.09584 7.37466 8.97459 7.37466H5.11587ZM2.01624 16.8312H5.65356C5.39526 16.5616 5.16858 16.2609 4.97354 15.9291C4.77849 15.5973 4.62562 15.2447 4.51492 14.8715H0.181763V14.9803C0.181763 15.5351 0.35045 15.9809 0.687825 16.3179C1.0252 16.6601 1.468 16.8312 2.01624 16.8312ZM9.33042 17.5C9.89447 17.5 10.4216 17.3963 10.9119 17.1889C11.4074 16.9816 11.8423 16.6938 12.2166 16.3257C12.5908 15.9576 12.8834 15.5299 13.0943 15.0425C13.3051 14.5552 13.4105 14.0342 13.4105 13.4794C13.4105 12.9195 13.3051 12.3984 13.0943 11.9163C12.8834 11.4289 12.5908 11.0012 12.2166 10.6331C11.8423 10.265 11.4074 9.97728 10.9119 9.7699C10.4216 9.56252 9.89447 9.45883 9.33042 9.45883C8.7611 9.45883 8.22868 9.56252 7.73316 9.7699C7.23764 9.97728 6.80274 10.265 6.42847 10.6331C6.05419 11.0012 5.76163 11.4289 5.55077 11.9163C5.33991 12.3984 5.23448 12.9195 5.23448 13.4794C5.23448 14.0342 5.33991 14.5552 5.55077 15.0425C5.76163 15.5299 6.05419 15.9576 6.42847 16.3257C6.80274 16.6938 7.23764 16.9816 7.73316 17.1889C8.22868 17.3963 8.7611 17.5 9.33042 17.5ZM9.33042 16.6368C8.71366 16.6368 8.16279 16.4994 7.67781 16.2246C7.1981 15.9498 6.81592 15.574 6.53126 15.097C6.25187 14.62 6.11218 14.0808 6.11218 13.4794C6.11218 12.878 6.25187 12.3388 6.53126 11.8618C6.81592 11.3849 7.1981 11.009 7.67781 10.7342C8.16279 10.4594 8.71366 10.322 9.33042 10.322C9.93664 10.322 10.4822 10.4594 10.9672 10.7342C11.4522 11.009 11.8344 11.3849 12.1138 11.8618C12.3931 12.3388 12.5328 12.878 12.5328 13.4794C12.5328 14.0808 12.3931 14.62 12.1138 15.097C11.8344 15.574 11.4522 15.9498 10.9672 16.2246C10.4822 16.4994 9.93664 16.6368 9.33042 16.6368ZM9.33042 15.8202C9.76268 15.8202 10.158 15.7139 10.5165 15.5014C10.8802 15.294 11.1675 15.0114 11.3784 14.6537C11.5945 14.3012 11.7026 13.9097 11.7026 13.4794C11.7026 13.0491 11.5945 12.6577 11.3784 12.3051C11.1675 11.9526 10.8829 11.6726 10.5244 11.4652C10.1659 11.2527 9.76795 11.1464 9.33042 11.1464C8.89289 11.1464 8.49225 11.2527 8.12852 11.4652C7.77006 11.6726 7.48276 11.9526 7.26663 12.3051C7.05577 12.6577 6.95034 13.0491 6.95034 13.4794C6.95034 13.9097 7.05577 14.3012 7.26663 14.6537C7.48276 15.0114 7.77006 15.294 8.12852 15.5014C8.49225 15.7139 8.89289 15.8202 9.33042 15.8202ZM9.33042 15.1125C8.84544 15.1125 8.44745 14.9596 8.13643 14.6537C7.82541 14.3478 7.6699 13.9564 7.6699 13.4794C7.6699 13.0024 7.82541 12.6136 8.13643 12.3129C8.44745 12.007 8.84544 11.8541 9.33042 11.8541C9.81012 11.8541 10.2055 12.007 10.5165 12.3129C10.8275 12.6136 10.983 13.0024 10.983 13.4794C10.983 13.9564 10.8275 14.3478 10.5165 14.6537C10.2055 14.9596 9.81012 15.1125 9.33042 15.1125ZM11.0937 17.5C11.663 17.5 12.1928 17.3963 12.6831 17.1889C13.1786 16.9816 13.6135 16.6938 13.9878 16.3257C14.362 15.9576 14.6546 15.5299 14.8655 15.0425C15.0763 14.5552 15.1818 14.0342 15.1818 13.4794C15.1818 12.9195 15.0763 12.3984 14.8655 11.9163C14.6546 11.4289 14.362 11.0012 13.9878 10.6331C13.6135 10.265 13.1786 9.97728 12.6831 9.7699C12.1928 9.56252 11.663 9.45883 11.0937 9.45883C10.6035 9.45883 10.1422 9.54178 9.70997 9.70769L10.7221 10.3454C10.7853 10.3402 10.846 10.335 10.904 10.3298C10.9672 10.3246 11.0305 10.322 11.0937 10.322C11.7052 10.322 12.2535 10.4594 12.7384 10.7342C13.2234 11.009 13.6056 11.3849 13.885 11.8618C14.1644 12.3388 14.3041 12.878 14.3041 13.4794C14.3041 14.0808 14.1644 14.62 13.885 15.097C13.6056 15.574 13.2234 15.9498 12.7384 16.2246C12.2535 16.4994 11.7052 16.6368 11.0937 16.6368C11.0305 16.6368 10.9672 16.6342 10.904 16.629C10.8407 16.629 10.7774 16.6264 10.7142 16.6212L9.99463 17.3522C10.3478 17.4507 10.7142 17.5 11.0937 17.5Z"
		fill="currentColor"
	/>
</svg>
