<svg color="rgb(var(--foreground, 0, 0, 0))" viewBox="0 0 16 18" fill="none">
	<path
		d="M2.2892 16.7728H8.27797C8.28866 16.6592 8.31539 16.5584 8.35814 16.4706C8.4009 16.388 8.44099 16.3053 8.4784 16.2226C8.52116 16.14 8.54254 16.0522 8.54254 15.9592C8.54788 15.8972 8.53452 15.83 8.50245 15.7577C8.47573 15.6854 8.43564 15.6079 8.3822 15.5252H2.34532C2.15825 15.5252 2.00593 15.4684 1.88834 15.3548C1.7761 15.2411 1.71998 15.0939 1.71998 14.9131V2.35975C1.71998 2.17378 1.7761 2.02655 1.88834 1.91806C2.00593 1.80441 2.15825 1.74758 2.34532 1.74758H12.4228C12.6099 1.74758 12.7595 1.80441 12.8718 1.91806C12.9894 2.02655 13.0482 2.17378 13.0482 2.35975V9.61278C13.2459 9.49913 13.457 9.42939 13.6815 9.40356C13.906 9.37256 14.1251 9.38806 14.3389 9.45005V2.352C14.3389 1.79408 14.1679 1.34722 13.8258 1.01143C13.4891 0.670477 13.0428 0.5 12.487 0.5H2.2892C1.73335 0.5 1.28439 0.670477 0.942324 1.01143C0.600261 1.34722 0.42923 1.79408 0.42923 2.352V14.9208C0.42923 15.4787 0.600261 15.9256 0.942324 16.2614C1.28439 16.6023 1.73335 16.7728 2.2892 16.7728ZM3.45168 3.8243C3.64943 3.8243 3.81512 3.75715 3.94874 3.62283C4.0877 3.48852 4.15718 3.32837 4.15718 3.1424C4.15718 2.95126 4.0877 2.79111 3.94874 2.66196C3.81512 2.52765 3.64943 2.46049 3.45168 2.46049C3.25927 2.46049 3.09358 2.52765 2.95462 2.66196C2.81565 2.79111 2.74617 2.95126 2.74617 3.1424C2.74617 3.32837 2.81565 3.48852 2.95462 3.62283C3.09358 3.75715 3.25927 3.8243 3.45168 3.8243ZM5.49604 3.8243C5.69379 3.8243 5.85948 3.75715 5.9931 3.62283C6.13206 3.48852 6.20154 3.32837 6.20154 3.1424C6.20154 2.95126 6.13206 2.79111 5.9931 2.66196C5.85948 2.52765 5.69379 2.46049 5.49604 2.46049C5.30363 2.46049 5.13794 2.52765 4.99898 2.66196C4.86536 2.79111 4.79855 2.95126 4.79855 3.1424C4.79855 3.32837 4.86536 3.48852 4.99898 3.62283C5.13794 3.75715 5.30363 3.8243 5.49604 3.8243ZM9.68898 3.52984H11.6051C11.7227 3.52984 11.8189 3.49368 11.8937 3.42136C11.9685 3.34904 12.0059 3.25605 12.0059 3.1424C12.0059 3.02358 11.9685 2.92801 11.8937 2.85568C11.8189 2.78336 11.7227 2.7472 11.6051 2.7472H9.68898C9.5714 2.7472 9.47519 2.78336 9.40037 2.85568C9.32554 2.92801 9.28813 3.02358 9.28813 3.1424C9.28813 3.25605 9.32554 3.34904 9.40037 3.42136C9.47519 3.49368 9.5714 3.52984 9.68898 3.52984ZM1.13473 5.55232H13.6254V4.53721H1.13473V5.55232ZM4.27744 14.1924H7.74885C7.6954 14.0684 7.64462 13.9367 7.59652 13.7972C7.55376 13.6526 7.51368 13.4976 7.47626 13.3323H4.42175C4.20796 13.3323 4.10106 13.2264 4.10106 13.0146V8.06299C4.10106 7.85118 4.20796 7.74528 4.42175 7.74528H10.3464C10.5602 7.74528 10.6671 7.85118 10.6671 8.06299V9.62828C10.806 9.54562 10.9503 9.48621 11.1 9.45005C11.2496 9.40872 11.4046 9.39064 11.565 9.39581V7.92351C11.565 7.61355 11.4634 7.363 11.2603 7.17186C11.0626 6.98072 10.806 6.88514 10.4907 6.88514H4.27744C3.9621 6.88514 3.70555 6.98072 3.5078 7.17186C3.31004 7.363 3.21116 7.61355 3.21116 7.92351V13.1541C3.21116 13.464 3.31004 13.7146 3.5078 13.9057C3.70555 14.0968 3.9621 14.1924 4.27744 14.1924ZM9.57674 17.4082C9.69433 17.4857 9.83596 17.5141 10.0017 17.4935C10.1673 17.478 10.3036 17.385 10.4105 17.2145C10.6564 16.7806 10.7793 16.3285 10.7793 15.8584C10.7793 15.4348 10.7125 15.0577 10.5789 14.7271C10.4453 14.3965 10.2903 14.0917 10.1139 13.8127C9.93751 13.5286 9.77984 13.2496 9.64088 12.9758C9.50726 12.6969 9.44045 12.4024 9.44045 12.0924C9.44045 11.9323 9.45916 11.7902 9.49657 11.6663C9.53399 11.5371 9.60347 11.3899 9.70502 11.2246C9.78519 11.0902 9.80122 10.9585 9.75312 10.8294C9.71036 10.6951 9.63286 10.5969 9.52063 10.5349C9.40839 10.4574 9.26942 10.4316 9.10373 10.4574C8.94339 10.4781 8.81512 10.5711 8.71891 10.7364C8.59064 10.9379 8.49444 11.1548 8.4303 11.3873C8.37151 11.6198 8.34211 11.8548 8.34211 12.0924C8.34211 12.5057 8.40892 12.8777 8.54254 13.2083C8.67616 13.5338 8.83115 13.8385 9.00753 14.1227C9.18391 14.4016 9.3389 14.6806 9.47252 14.9596C9.60614 15.2385 9.67295 15.5382 9.67295 15.8584C9.67295 16.0186 9.65424 16.1607 9.61683 16.2846C9.58476 16.4086 9.51795 16.5533 9.4164 16.7186C9.33623 16.8581 9.3202 16.9924 9.3683 17.1215C9.4164 17.2507 9.48588 17.3462 9.57674 17.4082ZM11.9017 17.4005C12.03 17.4831 12.1743 17.5116 12.3346 17.4857C12.5003 17.4651 12.6313 17.3721 12.7275 17.2068C12.9787 16.778 13.1043 16.3285 13.1043 15.8584C13.1043 15.4348 13.0375 15.0577 12.9038 14.7271C12.7702 14.3965 12.6152 14.0891 12.4389 13.805C12.2625 13.5208 12.1048 13.2419 11.9658 12.9681C11.8322 12.6891 11.7654 12.3947 11.7654 12.0847C11.7654 11.9297 11.7841 11.7877 11.8215 11.6585C11.8589 11.5294 11.9258 11.3821 12.022 11.2168C12.1075 11.0825 12.1262 10.9508 12.0781 10.8216C12.03 10.6873 11.9498 10.5917 11.8376 10.5349C11.7253 10.4574 11.5864 10.4316 11.4207 10.4574C11.2603 10.4781 11.1321 10.5685 11.0359 10.7286C10.9129 10.9353 10.8194 11.1548 10.7553 11.3873C10.6965 11.6146 10.6671 11.8471 10.6671 12.0847C10.6671 12.5031 10.7339 12.8751 10.8675 13.2005C11.0065 13.526 11.1615 13.8308 11.3325 14.1149C11.5089 14.3991 11.6639 14.6806 11.7975 14.9596C11.9311 15.2385 11.9979 15.5382 11.9979 15.8584C11.9979 16.0134 11.9792 16.1529 11.9418 16.2769C11.9097 16.4009 11.8456 16.5455 11.7494 16.7108C11.6639 16.8555 11.6425 16.9898 11.6852 17.1138C11.7333 17.2429 11.8055 17.3385 11.9017 17.4005ZM14.2267 17.3927C14.3549 17.4754 14.4992 17.5038 14.6596 17.478C14.8253 17.4573 14.9562 17.3643 15.0524 17.199C15.3036 16.7702 15.4292 16.3208 15.4292 15.8507C15.4292 15.4271 15.3624 15.05 15.2288 14.7193C15.0952 14.3887 14.9402 14.0813 14.7638 13.7972C14.5874 13.5131 14.4298 13.2341 14.2908 12.9603C14.1572 12.6814 14.0904 12.3869 14.0904 12.077C14.0904 11.922 14.1091 11.7799 14.1465 11.6508C14.1839 11.5216 14.2507 11.3744 14.3469 11.2091C14.4324 11.0748 14.4511 10.943 14.403 10.8139C14.3549 10.6796 14.2748 10.584 14.1625 10.5272C14.0503 10.4497 13.9113 10.4238 13.7456 10.4497C13.5853 10.4703 13.457 10.5607 13.3608 10.7209C13.2379 10.9275 13.1444 11.1471 13.0802 11.3795C13.0214 11.6068 12.992 11.8393 12.992 12.077C12.992 12.4954 13.0588 12.8673 13.1925 13.1928C13.3261 13.5183 13.4811 13.823 13.6574 14.1072C13.8338 14.3913 13.9888 14.6729 14.1224 14.9518C14.2561 15.2308 14.3229 15.5304 14.3229 15.8507C14.3229 16.0057 14.3042 16.1452 14.2667 16.2691C14.2347 16.3931 14.1679 16.5378 14.0663 16.7031C13.9862 16.8477 13.9674 16.982 14.0102 17.106C14.0583 17.2352 14.1305 17.3307 14.2267 17.3927Z"
		fill="currentColor"
	/>
</svg>
