<svg color="rgb(var(--foreground, 0, 0, 0))" viewBox="0 0 16 18" fill="none">
	<path
		d="M0.42923 4.40548H14.3389V2.352C14.3389 1.79408 14.1679 1.34722 13.8258 1.01143C13.4891 0.670477 13.0428 0.5 12.487 0.5H2.2892C1.73335 0.5 1.28439 0.670477 0.942324 1.01143C0.600261 1.34722 0.42923 1.79408 0.42923 2.352V4.40548ZM3.33142 3.59958C3.12832 3.59958 2.95462 3.52984 2.81031 3.39036C2.67135 3.25088 2.60186 3.08557 2.60186 2.89443C2.60186 2.69812 2.67135 2.53281 2.81031 2.3985C2.95462 2.25901 3.12832 2.18927 3.33142 2.18927C3.52918 2.18927 3.69754 2.25901 3.8365 2.3985C3.98081 2.53281 4.05296 2.69812 4.05296 2.89443C4.05296 3.08557 3.98081 3.25088 3.8365 3.39036C3.69754 3.52984 3.52918 3.59958 3.33142 3.59958ZM5.43992 3.59958C5.23682 3.59958 5.06579 3.52984 4.92682 3.39036C4.78786 3.25088 4.71838 3.08557 4.71838 2.89443C4.71838 2.69812 4.78786 2.53281 4.92682 2.3985C5.06579 2.25901 5.23682 2.18927 5.43992 2.18927C5.63767 2.18927 5.80603 2.25901 5.945 2.3985C6.0893 2.53281 6.16146 2.69812 6.16146 2.89443C6.16146 3.08557 6.0893 3.25088 5.945 3.39036C5.80603 3.52984 5.63767 3.59958 5.43992 3.59958ZM9.76114 3.29738C9.63821 3.29738 9.53933 3.26121 9.46451 3.18889C9.38968 3.1114 9.35227 3.01325 9.35227 2.89443C9.35227 2.77561 9.38968 2.67746 9.46451 2.59997C9.53933 2.52248 9.63821 2.48373 9.76114 2.48373H11.7333C11.8616 2.48373 11.9632 2.52248 12.038 2.59997C12.1128 2.67746 12.1502 2.77561 12.1502 2.89443C12.1502 3.01325 12.1128 3.1114 12.038 3.18889C11.9632 3.26121 11.8616 3.29738 11.7333 3.29738H9.76114ZM9.57674 17.4082C9.69433 17.4857 9.83596 17.5141 10.0017 17.4935C10.1673 17.478 10.3036 17.385 10.4105 17.2145C10.6564 16.7806 10.7793 16.3285 10.7793 15.8584C10.7793 15.4348 10.7125 15.0577 10.5789 14.7271C10.4453 14.3965 10.2903 14.0917 10.1139 13.8127C9.93751 13.5286 9.77984 13.2496 9.64088 12.9758C9.50726 12.6969 9.44045 12.4024 9.44045 12.0924C9.44045 11.9323 9.45916 11.7902 9.49657 11.6663C9.53399 11.5371 9.60347 11.3899 9.70502 11.2246C9.78519 11.0902 9.80122 10.9585 9.75312 10.8294C9.70502 10.6951 9.62752 10.5969 9.52063 10.5349C9.40304 10.4626 9.26408 10.4368 9.10373 10.4574C8.94339 10.4781 8.81512 10.5711 8.71891 10.7364C8.59064 10.9379 8.49444 11.1548 8.4303 11.3873C8.37151 11.6198 8.34211 11.8548 8.34211 12.0924C8.34211 12.5057 8.40892 12.8777 8.54254 13.2083C8.67616 13.5338 8.83115 13.8385 9.00753 14.1227C9.18391 14.4016 9.3389 14.6806 9.47252 14.9596C9.60614 15.2385 9.67295 15.5382 9.67295 15.8584C9.67295 16.0186 9.65424 16.1607 9.61683 16.2846C9.58476 16.4086 9.51795 16.5533 9.4164 16.7186C9.33623 16.8581 9.3202 16.9924 9.3683 17.1215C9.4164 17.2507 9.48588 17.3462 9.57674 17.4082ZM11.9017 17.4005C12.03 17.4831 12.1743 17.5116 12.3346 17.4857C12.5003 17.4651 12.6313 17.3721 12.7275 17.2068C12.9787 16.778 13.1043 16.3285 13.1043 15.8584C13.1043 15.4348 13.0375 15.0577 12.9038 14.7271C12.7702 14.3965 12.6152 14.0891 12.4389 13.805C12.2625 13.5208 12.1048 13.2419 11.9658 12.9681C11.8322 12.6891 11.7654 12.3947 11.7654 12.0847C11.7654 11.9297 11.7841 11.7877 11.8215 11.6585C11.8589 11.5294 11.9258 11.3821 12.022 11.2168C12.1075 11.0825 12.1262 10.9508 12.0781 10.8216C12.03 10.6925 11.9498 10.5969 11.8376 10.5349C11.72 10.4677 11.581 10.4445 11.4207 10.4652C11.2603 10.4807 11.1321 10.5685 11.0359 10.7286C10.9129 10.9353 10.8194 11.1548 10.7553 11.3873C10.6965 11.6146 10.6671 11.8471 10.6671 12.0847C10.6671 12.5031 10.7339 12.8751 10.8675 13.2005C11.0065 13.526 11.1615 13.8308 11.3325 14.1149C11.5089 14.3991 11.6639 14.6806 11.7975 14.9596C11.9311 15.2385 11.9979 15.5382 11.9979 15.8584C11.9979 16.0134 11.9792 16.1529 11.9418 16.2769C11.9097 16.4009 11.8456 16.5455 11.7494 16.7108C11.6639 16.8555 11.6425 16.9898 11.6852 17.1138C11.7333 17.2429 11.8055 17.3385 11.9017 17.4005ZM14.2267 17.3927C14.3549 17.4754 14.4992 17.5038 14.6596 17.478C14.8253 17.4573 14.9562 17.3643 15.0524 17.199C15.3036 16.7702 15.4292 16.3208 15.4292 15.8507C15.4292 15.4271 15.3624 15.05 15.2288 14.7193C15.0952 14.3887 14.9402 14.0813 14.7638 13.7972C14.5874 13.5131 14.4298 13.2341 14.2908 12.9603C14.1572 12.6814 14.0904 12.3869 14.0904 12.077C14.0904 11.922 14.1091 11.7799 14.1465 11.6508C14.1839 11.5216 14.2507 11.3744 14.3469 11.2091C14.4324 11.0748 14.4485 10.943 14.395 10.8139C14.3469 10.6847 14.2694 10.5891 14.1625 10.5272C14.0449 10.46 13.906 10.4368 13.7456 10.4574C13.5853 10.4729 13.457 10.5607 13.3608 10.7209C13.2379 10.9275 13.1444 11.1471 13.0802 11.3795C13.0214 11.6068 12.992 11.8393 12.992 12.077C12.992 12.4954 13.0588 12.8673 13.1925 13.1928C13.3261 13.5183 13.4811 13.823 13.6574 14.1072C13.8338 14.3913 13.9888 14.6729 14.1224 14.9518C14.2561 15.2308 14.3229 15.5304 14.3229 15.8507C14.3229 16.0057 14.3042 16.1452 14.2667 16.2691C14.2347 16.3931 14.1679 16.5378 14.0663 16.7031C13.9862 16.8477 13.9674 16.982 14.0102 17.106C14.0583 17.2352 14.1305 17.3307 14.2267 17.3927ZM4.42175 13.6422H7.4923C7.41213 13.4253 7.34265 13.1902 7.28385 12.9371C7.23041 12.684 7.20368 12.4024 7.20368 12.0924C7.20368 11.674 7.27584 11.253 7.42014 10.8294C7.56445 10.4058 7.78359 10.0519 8.07755 9.76776C8.37685 9.48363 8.75633 9.34157 9.21597 9.34157C9.48856 9.34157 9.7264 9.39581 9.9295 9.50429C10.1326 9.60761 10.2822 9.71868 10.3785 9.8375C10.4159 9.78584 10.4586 9.73676 10.5067 9.69027C10.5548 9.64378 10.6083 9.60761 10.6671 9.58178V8.37295C10.6671 8.16114 10.5602 8.05524 10.3464 8.05524H4.42175C4.20796 8.05524 4.10106 8.16114 4.10106 8.37295V13.3245C4.10106 13.5363 4.20796 13.6422 4.42175 13.6422ZM2.2892 16.7728H8.22987C8.26728 16.6282 8.32608 16.4861 8.40625 16.3466C8.49176 16.2071 8.53452 16.0444 8.53452 15.8584C8.53452 15.6931 8.45969 15.5046 8.31004 15.2928C8.16039 15.0861 8.00272 14.8227 7.83703 14.5024H4.27744C3.9621 14.5024 3.70555 14.4068 3.5078 14.2157C3.31004 14.0245 3.21116 13.774 3.21116 13.464V8.23346C3.21116 7.92351 3.31004 7.67296 3.5078 7.48181C3.70555 7.29067 3.9621 7.1951 4.27744 7.1951H10.4907C10.806 7.1951 11.0626 7.29067 11.2603 7.48181C11.4634 7.67296 11.565 7.92351 11.565 8.23346V9.34931C11.8108 9.35448 12.0193 9.40098 12.1903 9.4888C12.3667 9.57145 12.5324 9.6851 12.6874 9.82975C12.8317 9.69543 12.992 9.58695 13.1684 9.50429C13.3501 9.41647 13.5399 9.36223 13.7376 9.34157C13.9354 9.3209 14.1358 9.34157 14.3389 9.40356V5.45934H0.42923V14.9208C0.42923 15.4787 0.600261 15.9256 0.942324 16.2614C1.28439 16.6023 1.73335 16.7728 2.2892 16.7728Z"
		fill="currentColor"
	/>
</svg>
