<svg color="rgb(var(--foreground, 0, 0, 0))" viewBox="0 0 20 14" fill="none">
	<path
		d="M2.06758 13.5H13.2915V0.5H2.06758C1.57852 0.5 1.18184 0.666888 0.877535 1.00066C0.578665 1.32869 0.42923 1.76317 0.42923 2.30412V11.6959C0.42923 12.2368 0.578665 12.6742 0.877535 13.008C1.18184 13.336 1.57852 13.5 2.06758 13.5ZM2.93159 11.4024C2.68706 11.4024 2.49415 11.3276 2.35287 11.178C2.21158 11.0226 2.14094 10.8183 2.14094 10.5651V3.43493C2.14094 3.18172 2.21158 2.9803 2.35287 2.83068C2.49415 2.6753 2.68706 2.59761 2.93159 2.59761H11.0418C11.2809 2.59761 11.4711 2.6753 11.6124 2.83068C11.7591 2.9803 11.8325 3.18172 11.8325 3.43493V10.5651C11.8325 10.8183 11.7591 11.0226 11.6124 11.178C11.4711 11.3276 11.2809 11.4024 11.0418 11.4024H2.93159ZM3.26578 10.4442H10.6995C10.8516 10.4442 10.9277 10.3665 10.9277 10.2112V3.78884C10.9277 3.63347 10.8516 3.55578 10.6995 3.55578H3.26578C3.11906 3.55578 3.0457 3.63347 3.0457 3.78884V10.2112C3.0457 10.3665 3.11906 10.4442 3.26578 10.4442ZM14.1963 9.46879H19.4292V2.30412C19.4292 1.76317 19.2771 1.32869 18.9728 1.00066C18.6739 0.666888 18.2799 0.5 17.7909 0.5H14.1963V9.46879ZM15.5412 4.33267C15.4977 4.33267 15.4597 4.31828 15.4271 4.28951C15.3945 4.25498 15.3782 4.2147 15.3782 4.16866V2.77025C15.3782 2.72421 15.3945 2.68393 15.4271 2.6494C15.4597 2.61487 15.4977 2.59761 15.5412 2.59761H17.962C18.0055 2.59761 18.0436 2.61487 18.0762 2.6494C18.1088 2.68393 18.1251 2.72421 18.1251 2.77025V4.16866C18.1251 4.2147 18.1088 4.25498 18.0762 4.28951C18.0436 4.31828 18.0055 4.33267 17.962 4.33267H15.5412ZM15.8102 5.91235C15.6852 5.91235 15.582 5.87207 15.5004 5.7915C15.4189 5.70518 15.3782 5.59584 15.3782 5.46348C15.3782 5.32537 15.4189 5.21602 15.5004 5.13546C15.582 5.04914 15.6852 5.00598 15.8102 5.00598H17.6931C17.8235 5.00598 17.9267 5.04914 18.0028 5.13546C18.0843 5.21602 18.1251 5.32537 18.1251 5.46348C18.1251 5.59584 18.0843 5.70518 18.0028 5.7915C17.9267 5.87207 17.8235 5.91235 17.6931 5.91235H15.8102ZM15.8102 7.50066C15.6852 7.50066 15.582 7.46038 15.5004 7.37981C15.4189 7.29349 15.3782 7.18127 15.3782 7.04316C15.3782 6.9108 15.4189 6.80434 15.5004 6.72377C15.582 6.6432 15.6852 6.60292 15.8102 6.60292H17.6931C17.8235 6.60292 17.9267 6.6432 18.0028 6.72377C18.0843 6.80434 18.1251 6.9108 18.1251 7.04316C18.1251 7.18127 18.0843 7.29349 18.0028 7.37981C17.9267 7.46038 17.8235 7.50066 17.6931 7.50066H15.8102ZM14.1963 13.5H17.7909C18.2799 13.5 18.6739 13.336 18.9728 13.008C19.2771 12.6742 19.4292 12.2368 19.4292 11.6959V10.427H14.1963V13.5Z"
		fill="currentColor"
	/>
</svg>
