<svg color="rgb(var(--foreground, 0, 0, 0))" viewBox="0 0 20 14" fill="none">
	<path
		d="M2.31081 13.5H17.5476C18.1135 13.5 18.5672 13.3206 18.9088 12.9618C19.2557 12.5975 19.4292 12.1182 19.4292 11.5239V2.47607C19.4292 1.88185 19.2557 1.40535 18.9088 1.04657C18.5672 0.682191 18.1135 0.5 17.5476 0.5H2.31081C1.745 0.5 1.28862 0.682191 0.941661 1.04657C0.60004 1.40535 0.42923 1.88185 0.42923 2.47607V11.5239C0.42923 12.1182 0.60004 12.5975 0.941661 12.9618C1.28862 13.3206 1.745 13.5 2.31081 13.5ZM2.32683 12.1462C2.14534 12.1462 1.99855 12.0845 1.88646 11.9612C1.77436 11.8323 1.71832 11.6669 1.71832 11.4651V2.53493C1.71832 2.33312 1.77436 2.17055 1.88646 2.04722C1.99855 1.91828 2.14534 1.85382 2.32683 1.85382H17.5316C17.7185 1.85382 17.8652 1.91828 17.972 2.04722C18.0841 2.17055 18.1401 2.33312 18.1401 2.53493V11.4651C18.1401 11.6669 18.0841 11.8323 17.972 11.9612C17.8652 12.0845 17.7185 12.1462 17.5316 12.1462H2.32683ZM3.41574 11.1539H11.2944C11.5239 11.1539 11.7054 11.0839 11.8388 10.9437C11.9776 10.798 12.047 10.6046 12.047 10.3635V3.63648C12.047 3.39543 11.9776 3.20483 11.8388 3.06468C11.7054 2.91893 11.5239 2.84605 11.2944 2.84605H3.41574C3.18622 2.84605 3.00206 2.91893 2.86328 3.06468C2.72983 3.20483 2.66311 3.39543 2.66311 3.63648V10.3635C2.66311 10.6046 2.72983 10.798 2.86328 10.9437C3.00206 11.0839 3.18622 11.1539 3.41574 11.1539ZM3.76804 10.2206C3.62392 10.2206 3.55186 10.1449 3.55186 9.99353V4.00647C3.55186 3.85511 3.62392 3.77943 3.76804 3.77943H10.9421C11.0862 3.77943 11.1583 3.85511 11.1583 4.00647V9.99353C11.1583 10.1449 11.0862 10.2206 10.9421 10.2206H3.76804ZM13.0799 12.7768H13.9686V1.21475H13.0799V12.7768ZM13.5683 9.98512H18.7967V9.05175H13.5683V9.98512ZM14.8974 4.48577H17.2114C17.2541 4.48577 17.2888 4.47176 17.3154 4.44373C17.3475 4.41009 17.3635 4.37365 17.3635 4.33441V3.00582C17.3635 2.96097 17.3475 2.92454 17.3154 2.89651C17.2888 2.86287 17.2541 2.84605 17.2114 2.84605H14.8974C14.86 2.84605 14.8254 2.86287 14.7933 2.89651C14.7613 2.92454 14.7453 2.96097 14.7453 3.00582V4.33441C14.7453 4.37365 14.7613 4.41009 14.7933 4.44373C14.8254 4.47176 14.86 4.48577 14.8974 4.48577ZM15.1536 5.89004H16.9551C17.0779 5.89004 17.1767 5.8508 17.2514 5.77232C17.3261 5.69383 17.3635 5.59293 17.3635 5.4696C17.3635 5.34066 17.3261 5.23696 17.2514 5.15847C17.1767 5.07999 17.0779 5.04075 16.9551 5.04075H15.1536C15.0309 5.04075 14.9321 5.07999 14.8574 5.15847C14.7826 5.23696 14.7453 5.34066 14.7453 5.4696C14.7453 5.59293 14.7826 5.69383 14.8574 5.77232C14.9321 5.8508 15.0309 5.89004 15.1536 5.89004ZM15.1536 7.31113H16.9551C17.0779 7.31113 17.1767 7.27188 17.2514 7.1934C17.3261 7.11492 17.3635 7.01121 17.3635 6.88228C17.3635 6.75895 17.3261 6.65804 17.2514 6.57956C17.1767 6.50108 17.0779 6.46184 16.9551 6.46184H15.1536C15.0309 6.46184 14.9321 6.50108 14.8574 6.57956C14.7826 6.65804 14.7453 6.75895 14.7453 6.88228C14.7453 7.01121 14.7826 7.11492 14.8574 7.1934C14.9321 7.27188 15.0309 7.31113 15.1536 7.31113Z"
		fill="currentColor"
	/>
</svg>
