<svg color="rgb(var(--foreground, 0, 0, 0))" viewBox="0 0 16 14" fill="none">
	<path
		d="M0 3.95017H16V1.69525C16 1.18694 15.8506 0.778679 15.5518 0.470452C15.2583 0.156817 14.8714 0 14.3912 0H1.6088C1.12856 0 0.739036 0.156817 0.44022 0.470452C0.14674 0.778679 0 1.18694 0 1.69525V3.95017ZM2.96948 2.87138C2.76672 2.87138 2.5933 2.80108 2.44922 2.66049C2.31049 2.51448 2.24112 2.34144 2.24112 2.14137C2.24112 1.93588 2.31049 1.76284 2.44922 1.62225C2.5933 1.48165 2.76672 1.41136 2.96948 1.41136C3.16692 1.41136 3.335 1.48165 3.47374 1.62225C3.61781 1.76284 3.68985 1.93588 3.68985 2.14137C3.68985 2.34144 3.61781 2.51448 3.47374 2.66049C3.335 2.80108 3.16692 2.87138 2.96948 2.87138ZM5.09055 2.87138C4.89311 2.87138 4.72236 2.80108 4.57829 2.66049C4.43955 2.51448 4.37019 2.34144 4.37019 2.14137C4.37019 1.93588 4.43955 1.76284 4.57829 1.62225C4.72236 1.48165 4.89311 1.41136 5.09055 1.41136C5.29331 1.41136 5.46407 1.48165 5.6028 1.62225C5.74687 1.76284 5.81891 1.93588 5.81891 2.14137C5.81891 2.34144 5.74687 2.51448 5.6028 2.66049C5.46407 2.80108 5.29331 2.87138 5.09055 2.87138ZM7.21961 2.87138C7.01684 2.87138 6.84342 2.80108 6.69935 2.66049C6.56061 2.51448 6.49125 2.34144 6.49125 2.14137C6.49125 1.93588 6.56061 1.76284 6.69935 1.62225C6.84342 1.48165 7.01684 1.41136 7.21961 1.41136C7.41704 1.41136 7.58513 1.48165 7.72386 1.62225C7.86793 1.76284 7.93997 1.93588 7.93997 2.14137C7.93997 2.34144 7.86793 2.51448 7.72386 2.66049C7.58513 2.80108 7.41704 2.87138 7.21961 2.87138ZM11.4137 2.56315C11.2856 2.56315 11.1816 2.5253 11.1016 2.44959C11.0268 2.36848 10.9895 2.26304 10.9895 2.13326C10.9895 2.00888 11.0268 1.90885 11.1016 1.83314C11.1816 1.75744 11.2856 1.71958 11.4137 1.71958H13.6468C13.7696 1.71958 13.8683 1.75744 13.943 1.83314C14.0177 1.90885 14.055 2.00888 14.055 2.13326C14.055 2.26304 14.0177 2.36848 13.943 2.44959C13.8683 2.5253 13.7696 2.56315 13.6468 2.56315H11.4137ZM1.6088 14H14.3912C14.8714 14 15.2583 13.8432 15.5518 13.5295C15.8506 13.2213 16 12.8131 16 12.3048V4.85052H0V12.3048C0 12.8131 0.14674 13.2213 0.44022 13.5295C0.739036 13.8432 1.12856 14 1.6088 14ZM2.88944 12.2318C2.66 12.2318 2.4759 12.1615 2.33717 12.0209C2.19843 11.8803 2.12906 11.6937 2.12906 11.4612V6.91078C2.12906 6.66744 2.19843 6.47547 2.33717 6.33488C2.4759 6.19428 2.66 6.12399 2.88944 6.12399H13.1186C13.348 6.12399 13.5321 6.19428 13.6708 6.33488C13.8096 6.47547 13.8789 6.66744 13.8789 6.91078V11.4612C13.8789 11.6937 13.8096 11.8803 13.6708 12.0209C13.5321 12.1615 13.348 12.2318 13.1186 12.2318H2.88944ZM3.01751 7.98957H12.9905V7.25145C12.9905 7.10004 12.9185 7.02433 12.7744 7.02433H3.23362C3.08954 7.02433 3.01751 7.10004 3.01751 7.25145V7.98957ZM3.23362 11.3314H12.7744C12.9185 11.3314 12.9905 11.2584 12.9905 11.1124V8.88992H3.01751V11.1124C3.01751 11.2584 3.08954 11.3314 3.23362 11.3314Z"
		fill="currentColor"
	/>
</svg>
