<svg color="rgb(var(--foreground, 0, 0, 0))" viewBox="0 0 16 14" fill="none">
	<path
		d="M1.80867 14H14.1915C14.7353 14 15.1714 13.8243 15.4998 13.4728C15.8333 13.1213 16 12.6616 16 12.0939V1.90614C16 1.33835 15.8333 0.878718 15.4998 0.527231C15.1714 0.175744 14.7353 0 14.1915 0H1.80867C1.26482 0 0.826032 0.175744 0.492541 0.527231C0.16418 0.878718 0 1.33835 0 1.90614V12.0939C0 12.6616 0.16418 13.1213 0.492541 13.4728C0.826032 13.8243 1.26482 14 1.80867 14ZM1.82406 12.6941C1.64962 12.6941 1.50853 12.6346 1.40078 12.5156C1.29304 12.3913 1.23905 12.229 1.23905 12.029V1.97103C1.23905 1.77095 1.29304 1.61143 1.40078 1.49247C1.50853 1.3681 1.64962 1.30591 1.82406 1.30591H14.1838C14.3582 1.30591 14.4967 1.3681 14.5993 1.49247C14.7071 1.61143 14.761 1.77095 14.761 1.97103V12.029C14.761 12.229 14.7071 12.3913 14.5993 12.5156C14.4967 12.6346 14.3582 12.6941 14.1838 12.6941H1.82406ZM3.38634 3.26883C3.57104 3.26883 3.72753 3.20124 3.85579 3.06605C3.98919 2.92545 4.05589 2.75512 4.05589 2.55504C4.05589 2.36037 3.98919 2.19544 3.85579 2.06025C3.72753 1.91966 3.57104 1.84936 3.38634 1.84936C3.1965 1.84936 3.03489 1.91966 2.90149 2.06025C2.77323 2.19544 2.70909 2.36037 2.70909 2.55504C2.70909 2.75512 2.77323 2.92545 2.90149 3.06605C3.03489 3.20124 3.1965 3.26883 3.38634 3.26883ZM5.3642 3.26883C5.55403 3.26883 5.71308 3.20124 5.84135 3.06605C5.97474 2.92545 6.04144 2.75512 6.04144 2.55504C6.04144 2.36037 5.97474 2.19544 5.84135 2.06025C5.71308 1.91966 5.55403 1.84936 5.3642 1.84936C5.17949 1.84936 5.02044 1.91966 4.88705 2.06025C4.75878 2.19544 4.69465 2.36037 4.69465 2.55504C4.69465 2.75512 4.75878 2.92545 4.88705 3.06605C5.02044 3.20124 5.17949 3.26883 5.3642 3.26883ZM7.34975 3.26883C7.53445 3.26883 7.69094 3.20124 7.81921 3.06605C7.9526 2.92545 8.0193 2.75512 8.0193 2.55504C8.0193 2.36037 7.9526 2.19544 7.81921 2.06025C7.69094 1.91966 7.53445 1.84936 7.34975 1.84936C7.15992 1.84936 6.9983 1.91966 6.86491 2.06025C6.73664 2.19544 6.67251 2.36037 6.67251 2.55504C6.67251 2.75512 6.73664 2.92545 6.86491 3.06605C6.9983 3.20124 7.15992 3.26883 7.34975 3.26883ZM10.9592 2.96871H13.0371C13.1499 2.96871 13.2423 2.93086 13.3141 2.85516C13.3859 2.77945 13.4219 2.67941 13.4219 2.55504C13.4219 2.43608 13.3859 2.33874 13.3141 2.26304C13.2423 2.18733 13.1499 2.14948 13.0371 2.14948H10.9592C10.8411 2.14948 10.7462 2.18733 10.6744 2.26304C10.6026 2.33874 10.5667 2.43608 10.5667 2.55504C10.5667 2.67941 10.6026 2.77945 10.6744 2.85516C10.7462 2.93086 10.8411 2.96871 10.9592 2.96871ZM0.746507 4.85052H15.2689V3.78795H0.746507V4.85052ZM3.24011 11.6883H12.7677C12.9883 11.6883 13.1628 11.6207 13.291 11.4855C13.4193 11.3449 13.4834 11.1611 13.4834 10.934V6.52955C13.4834 6.29703 13.4193 6.11317 13.291 5.97798C13.1628 5.83739 12.9883 5.76709 12.7677 5.76709H3.24011C3.0195 5.76709 2.84249 5.83739 2.70909 5.97798C2.58083 6.11317 2.5167 6.29703 2.5167 6.52955V10.934C2.5167 11.1611 2.58083 11.3449 2.70909 11.4855C2.84249 11.6207 3.0195 11.6883 3.24011 11.6883ZM3.57874 10.7879C3.44534 10.7879 3.37864 10.7177 3.37864 10.5771V6.88644C3.37864 6.74044 3.44534 6.66744 3.57874 6.66744H12.4291C12.5625 6.66744 12.6292 6.74044 12.6292 6.88644V10.5771C12.6292 10.7177 12.5625 10.7879 12.4291 10.7879H3.57874ZM3.22472 8.47625H12.7831V7.5759H3.22472V8.47625Z"
		fill="currentColor"
	/>
</svg>
