<svg color="rgb(var(--foreground, 0, 0, 0))" viewBox="0 0 24 14" fill="none">
	<path
		d="M0 7.19194C0 8.21187 0.229007 9.14002 0.687021 9.97636C1.15018 10.8076 1.8089 11.5241 2.66317 12.1259C3.52259 12.7276 4.54926 13.1892 5.74319 13.5104C6.93711 13.8368 8.26741 14 9.73409 14C11.2008 14 12.531 13.8368 13.725 13.5104C14.924 13.1892 15.9507 12.7276 16.805 12.1259C17.6644 11.5241 18.3231 10.8076 18.7811 9.97636C19.2443 9.14002 19.4759 8.21187 19.4759 7.19194C19.4759 6.76357 19.2391 6.36325 18.7657 5.99097C18.2922 5.61359 17.6207 5.28212 16.7509 4.99653C15.8864 4.71095 14.8597 4.48912 13.6709 4.33103C12.4822 4.16784 11.1699 4.08624 9.73409 4.08624C8.30343 4.08624 6.99372 4.16784 5.80494 4.33103C4.61616 4.48912 3.58692 4.71095 2.71721 4.99653C1.85264 5.28212 1.18363 5.61359 0.710179 5.99097C0.236726 6.36325 0 6.76357 0 7.19194ZM1.24281 7.19194C1.24281 7.05425 1.34831 6.91146 1.55931 6.76357C1.7703 6.61058 2.06878 6.46269 2.45475 6.3199C2.84072 6.17201 3.29616 6.03432 3.82107 5.90683C4.34599 5.77933 4.92494 5.66714 5.55792 5.57025C6.19091 5.46825 6.85992 5.38921 7.56495 5.33311C8.26998 5.27192 8.99303 5.24132 9.73409 5.24132C10.4751 5.24132 11.1982 5.27192 11.9032 5.33311C12.6082 5.38921 13.2772 5.46825 13.9102 5.57025C14.5432 5.66714 15.1222 5.77933 15.6471 5.90683C16.1771 6.03432 16.6352 6.17201 17.0211 6.3199C17.4071 6.46269 17.7056 6.61058 17.9166 6.76357C18.1276 6.91146 18.2331 7.05425 18.2331 7.19194C18.2331 7.35003 18.089 7.51577 17.8008 7.68916C17.5177 7.85745 17.1163 8.02319 16.5966 8.18638C16.0768 8.34957 15.4618 8.49491 14.7516 8.6224C14.0466 8.74989 13.2695 8.85188 12.4204 8.92838C11.5713 9.00487 10.6758 9.04312 9.73409 9.04312C8.79747 9.04312 7.9046 9.00487 7.05547 8.92838C6.20635 8.85188 5.42669 8.74989 4.71652 8.6224C4.01148 8.49491 3.39908 8.34957 2.87931 8.18638C2.35954 8.02319 1.95557 7.85745 1.66738 7.68916C1.38433 7.51577 1.24281 7.35003 1.24281 7.19194ZM1.48211 8.72949C1.98644 9.02527 2.66574 9.29045 3.52002 9.52504C4.37944 9.75963 5.34436 9.94321 6.41477 10.0758C7.48518 10.2084 8.59162 10.2747 9.73409 10.2747C10.8817 10.2747 11.9907 10.2084 13.0611 10.0758C14.1315 9.94321 15.0939 9.75963 15.9481 9.52504C16.8076 9.29045 17.4894 9.02527 17.9938 8.72949C17.7828 9.54034 17.299 10.2492 16.5425 10.8561C15.786 11.4629 14.8237 11.9321 13.6555 12.2636C12.4873 12.6001 11.1802 12.7684 9.73409 12.7684C8.288 12.7684 6.98085 12.6001 5.81266 12.2636C4.64961 11.9321 3.68984 11.4629 2.93335 10.8561C2.17685 10.2492 1.69311 9.54034 1.48211 8.72949ZM17.8625 6.52644L23.0191 3.39779C23.405 3.1683 23.6726 2.89547 23.8219 2.57929C23.9762 2.26311 24.0303 1.94438 23.984 1.6231C23.9428 1.30182 23.8219 1.00859 23.6212 0.743411C23.4205 0.478228 23.1554 0.279341 22.8261 0.14675C22.5019 0.00905861 22.1339 -0.0317387 21.7222 0.0243576C21.3105 0.080454 20.8731 0.274241 20.4099 0.60572L14.2422 5.00418L15.5467 5.34841L21.2976 1.46246C21.5241 1.30947 21.7299 1.22533 21.9152 1.21003C22.1004 1.19473 22.2523 1.22788 22.3706 1.30947C22.4941 1.38597 22.5765 1.49051 22.6176 1.6231C22.664 1.7557 22.6588 1.89594 22.6022 2.04383C22.5456 2.18662 22.4298 2.31156 22.2548 2.41865L16.7741 5.78443L17.8625 6.52644ZM5.24915 9.22671L13.5629 9.25731C13.5629 8.72694 13.4316 8.26542 13.1692 7.87275C12.9119 7.48007 12.5671 7.17409 12.1348 6.95481C11.7025 6.73552 11.2342 6.62588 10.7299 6.62588C10.2307 6.62588 9.77011 6.73042 9.34812 6.93951C8.93127 7.1435 8.59162 7.41633 8.32917 7.75801C8.19536 7.71211 8.06156 7.67896 7.92776 7.65856C7.7991 7.63816 7.66016 7.62796 7.51092 7.62796C7.13524 7.62796 6.78787 7.69936 6.46881 7.84215C6.15489 7.97984 5.88985 8.17108 5.67371 8.41586C5.45757 8.65555 5.31605 8.92583 5.24915 9.22671Z"
		fill="currentColor"
	/>
</svg>
