<svg color="rgb(var(--foreground, 0, 0, 0))" viewBox="0 0 24 14" fill="none">
	<path
		d="M0 7.11776C0 8.14881 0.230508 9.08706 0.691525 9.93252C1.15772 10.7728 1.82076 11.4971 2.68063 12.1055C3.54568 12.7138 4.57907 13.1803 5.78082 13.5051C6.98257 13.835 8.32159 14 9.79788 14C11.2742 14 12.6132 13.835 13.8149 13.5051C15.0219 13.1803 16.0553 12.7138 16.9151 12.1055C17.7802 11.4971 18.4432 10.7728 18.9042 9.93252C19.3704 9.08706 19.6035 8.14881 19.6035 7.11776C19.6035 6.68472 19.3653 6.28004 18.8887 5.9037C18.4122 5.52221 17.7362 5.18712 16.8608 4.89843C15.9905 4.60974 14.9571 4.38549 13.7605 4.22567C12.564 4.06071 11.2431 3.97822 9.79788 3.97822C8.35785 3.97822 7.03955 4.06071 5.84298 4.22567C4.64641 4.38549 3.61043 4.60974 2.73502 4.89843C1.86479 5.18712 1.19139 5.52221 0.714835 5.9037C0.238278 6.28004 0 6.68472 0 7.11776ZM1.25096 7.11776C1.25096 6.97857 1.35715 6.83422 1.56953 6.68472C1.78191 6.53006 2.08234 6.38056 2.47084 6.23622C2.85934 6.08671 3.31776 5.94752 3.84612 5.81864C4.37447 5.68976 4.9572 5.57634 5.59434 5.4784C6.23147 5.37529 6.90487 5.29538 7.61452 5.23868C8.32418 5.17681 9.05196 5.14588 9.79788 5.14588C10.5438 5.14588 11.2716 5.17681 11.9812 5.23868C12.6909 5.29538 13.3643 5.37529 14.0014 5.4784C14.6386 5.57634 15.2213 5.68976 15.7497 5.81864C16.2832 5.94752 16.7442 6.08671 17.1327 6.23622C17.5212 6.38056 17.8216 6.53006 18.034 6.68472C18.2464 6.83422 18.3526 6.97857 18.3526 7.11776C18.3526 7.27757 18.2075 7.4477 17.9175 7.62813C17.6326 7.80341 17.2285 7.97868 16.7054 8.15396C16.1822 8.32409 15.5632 8.47874 14.8483 8.61793C14.1387 8.75197 13.3565 8.86023 12.5018 8.94271C11.6471 9.0252 10.7458 9.06644 9.79788 9.06644C8.85512 9.06644 7.9564 9.0252 7.10171 8.94271C6.24701 8.86023 5.46227 8.75197 4.74743 8.61793C4.03778 8.47874 3.42136 8.32409 2.89819 8.15396C2.37501 7.97868 1.96839 7.80341 1.67831 7.62813C1.39341 7.4477 1.25096 7.27757 1.25096 7.11776ZM17.9641 6.27488L23.0922 3.15081C23.4497 2.93429 23.6983 2.68168 23.8382 2.39299C23.978 2.09914 24.0272 1.80271 23.9858 1.50371C23.9495 1.19955 23.8356 0.926322 23.6439 0.684026C23.4574 0.436575 23.2114 0.250986 22.9058 0.127261C22.6053 0.00353503 22.2609 -0.029974 21.8724 0.0267336C21.4839 0.0834412 21.0721 0.26903 20.6369 0.583499L14.6463 4.87523L17.9641 6.27488ZM5.28356 9.1747L13.6518 9.20563C13.6518 8.66949 13.5197 8.20294 13.2555 7.80598C12.9965 7.40903 12.6494 7.09972 12.2143 6.87804C11.7792 6.65637 11.3078 6.54553 10.8002 6.54553C10.2977 6.54553 9.83414 6.65121 9.40938 6.86258C8.9898 7.06879 8.64793 7.34459 8.38375 7.68999C8.24907 7.64359 8.11439 7.61009 7.97971 7.58946C7.85021 7.56884 7.71035 7.55853 7.56013 7.55853C7.182 7.55853 6.83235 7.63071 6.51119 7.77505C6.19521 7.91424 5.92845 8.10757 5.71089 8.35502C5.49333 8.59731 5.3509 8.87054 5.28356 9.1747Z"
		fill="currentColor"
	/>
</svg>
