<svg color="rgb(var(--foreground, 0, 0, 0))" viewBox="0 0 12 18" fill="none">
	<path
		d="M0.42923 5.98144H11.4292V1.6624C11.4292 1.16394 11.2815 0.763588 10.9861 0.461335C10.6959 0.153778 10.3108 0 9.83067 0H2.01988C1.54506 0 1.15993 0.153778 0.864482 0.461335C0.574314 0.763588 0.42923 1.16394 0.42923 1.6624V5.98144ZM2.62132 4.48608C2.50525 4.48608 2.40765 4.44896 2.32851 4.37472C2.25465 4.30049 2.21772 4.20239 2.21772 4.08042V2.2669C2.21772 2.15555 2.25465 2.06275 2.32851 1.98851C2.40237 1.90897 2.49997 1.8692 2.62132 1.8692C2.73211 1.8692 2.82443 1.90632 2.89829 1.98056C2.97743 2.05479 3.017 2.15024 3.017 2.2669V4.08042C3.017 4.19708 2.98007 4.29518 2.90621 4.37472C2.83235 4.44896 2.73738 4.48608 2.62132 4.48608ZM0.42923 14.8104H11.4292V6.91206H0.42923V14.8104ZM2.62132 10.7141C2.50525 10.7141 2.40765 10.677 2.32851 10.6027C2.25465 10.5285 2.21772 10.4331 2.21772 10.3164V8.50287C2.21772 8.38621 2.25465 8.29076 2.32851 8.21653C2.40237 8.14229 2.49997 8.10517 2.62132 8.10517C2.73211 8.10517 2.82443 8.14229 2.89829 8.21653C2.97743 8.29076 3.017 8.38621 3.017 8.50287V10.3164C3.017 10.4331 2.98007 10.5285 2.90621 10.6027C2.83235 10.677 2.73738 10.7141 2.62132 10.7141ZM0.42923 15.7411V16.3376C0.42923 16.8361 0.574314 17.2364 0.864482 17.5387C1.15993 17.8462 1.54506 18 2.01988 18H9.83067C10.3108 18 10.6959 17.8462 10.9861 17.5387C11.2815 17.2364 11.4292 16.8361 11.4292 16.3376V15.7411H0.42923Z"
		fill="currentColor"
	/>
</svg>
