<svg color="rgb(var(--foreground, 0, 0, 0))" viewBox="0 0 17 16" fill="none">
	<path
		d="M7.7693 8.85627H9.01194V2.61009C9.01194 2.34506 9.0917 2.13354 9.25121 1.97554C9.41587 1.81244 9.63198 1.73089 9.89954 1.73089C10.1671 1.73089 10.3807 1.81244 10.5402 1.97554C10.7048 2.13354 10.7871 2.34506 10.7871 2.61009V3.8945C10.7871 4.06269 10.8489 4.20795 10.9724 4.33028C11.0959 4.4526 11.2425 4.51376 11.4123 4.51376C11.5821 4.51376 11.7262 4.4526 11.8445 4.33028C11.968 4.20795 12.0298 4.06269 12.0298 3.8945V2.61009C12.0298 2.18705 11.9397 1.81753 11.7596 1.50153C11.5847 1.18553 11.3377 0.940877 11.0187 0.767584C10.6997 0.589195 10.3266 0.5 9.89954 0.5C9.47247 0.5 9.09942 0.589195 8.7804 0.767584C8.46137 0.940877 8.21182 1.18553 8.03172 1.50153C7.85678 1.81753 7.7693 2.18705 7.7693 2.61009V8.85627ZM5.5696 8.85627H6.58069V6.85321C6.58069 6.66972 6.52409 6.52192 6.41089 6.40979C6.29769 6.29766 6.14847 6.24159 5.96323 6.24159H3.6709C3.53197 6.24159 3.41105 6.29256 3.30814 6.3945C3.21038 6.49133 3.1615 6.60856 3.1615 6.74618C3.1615 6.88379 3.21038 7.00102 3.30814 7.09786C3.41105 7.1947 3.53197 7.24312 3.6709 7.24312H5.42295C5.52071 7.24312 5.5696 7.29154 5.5696 7.38838V8.85627ZM10.2006 8.85627H11.2117V7.38838C11.2117 7.29154 11.2605 7.24312 11.3583 7.24312H13.1104C13.2493 7.24312 13.3677 7.1947 13.4654 7.09786C13.5632 7.00102 13.6121 6.88379 13.6121 6.74618C13.6121 6.60856 13.5632 6.49133 13.4654 6.3945C13.3677 6.29256 13.2493 6.24159 13.1104 6.24159H10.818C10.6276 6.24159 10.4758 6.29766 10.3626 6.40979C10.2546 6.52192 10.2006 6.66972 10.2006 6.85321V8.85627ZM1.04669 9.61315H15.8118C15.9816 9.61315 16.1256 9.55199 16.244 9.42966C16.3675 9.30734 16.4292 9.16208 16.4292 8.99388C16.4292 8.82569 16.3675 8.68298 16.244 8.56575C16.1256 8.44343 15.9816 8.38226 15.8118 8.38226H1.04669C0.876889 8.38226 0.730242 8.44343 0.60675 8.56575C0.488403 8.68298 0.42923 8.82569 0.42923 8.99388C0.42923 9.16208 0.488403 9.30734 0.60675 9.42966C0.730242 9.55199 0.876889 9.61315 1.04669 9.61315ZM4.87495 15.5H11.9835C12.7502 15.5 13.4037 15.3675 13.9439 15.1024C14.4894 14.8425 14.9036 14.4628 15.1866 13.9633C15.4747 13.4638 15.6188 12.8573 15.6188 12.1437V9.20795H14.3762V12.1437C14.3762 12.8573 14.1806 13.3899 13.7896 13.7416C13.3985 14.0933 12.7965 14.2691 11.9835 14.2691H4.87495C4.06196 14.2691 3.45994 14.0933 3.06888 13.7416C2.68296 13.3899 2.49001 12.8573 2.49001 12.1437V9.20795H1.24737V12.1437C1.24737 12.8573 1.38887 13.4638 1.67187 13.9633C1.96002 14.4628 2.37423 14.8425 2.91451 15.1024C3.45479 15.3675 4.10827 15.5 4.87495 15.5Z"
		fill="currentColor"
	/>
</svg>
