<svg color="rgb(var(--foreground, 0, 0, 0))" viewBox="0 0 17 16" fill="none">
	<path
		d="M7.76932 8.85627H9.01196V2.61009C9.01196 2.34506 9.09172 2.13354 9.25123 1.97554C9.41588 1.81244 9.632 1.73089 9.89956 1.73089C10.1671 1.73089 10.3807 1.81244 10.5402 1.97554C10.7048 2.13354 10.7872 2.34506 10.7872 2.61009V3.8945C10.7872 4.06269 10.8489 4.20795 10.9724 4.33028C11.0959 4.4526 11.2425 4.51376 11.4123 4.51376C11.5821 4.51376 11.7262 4.4526 11.8446 4.33028C11.9681 4.20795 12.0298 4.06269 12.0298 3.8945V2.61009C12.0298 2.18705 11.9398 1.81753 11.7597 1.50153C11.5847 1.18553 11.3377 0.940877 11.0187 0.767584C10.6997 0.589195 10.3266 0.5 9.89956 0.5C9.47248 0.5 9.09943 0.589195 8.78041 0.767584C8.46139 0.940877 8.21183 1.18553 8.03174 1.50153C7.85679 1.81753 7.76932 2.18705 7.76932 2.61009V8.85627ZM5.56961 8.85627H6.5807V6.85321C6.5807 6.66972 6.5241 6.52192 6.4109 6.40979C6.2977 6.29766 6.14848 6.24159 5.96324 6.24159H3.67091C3.53198 6.24159 3.41106 6.29256 3.30815 6.3945C3.21038 6.49134 3.1615 6.60856 3.1615 6.74618C3.1615 6.88379 3.21038 7.00102 3.30815 7.09786C3.41106 7.1947 3.53198 7.24312 3.67091 7.24312H5.42296C5.52072 7.24312 5.56961 7.29154 5.56961 7.38838V8.85627ZM10.2006 8.85627H11.2117V7.38838C11.2117 7.29154 11.2606 7.24312 11.3583 7.24312H13.1104C13.2493 7.24312 13.3676 7.1947 13.4654 7.09786C13.5632 7.00102 13.6121 6.88379 13.6121 6.74618C13.6121 6.60856 13.5632 6.49134 13.4654 6.3945C13.3676 6.29256 13.2493 6.24159 13.1104 6.24159H10.818C10.6277 6.24159 10.4759 6.29766 10.3627 6.40979C10.2546 6.52192 10.2006 6.66972 10.2006 6.85321V8.85627ZM1.04669 9.61315H1.24737V12.1437C1.24737 12.8573 1.38887 13.4638 1.67187 13.9633C1.96002 14.4628 2.37424 14.8425 2.91452 15.1024C3.4548 15.3675 4.10828 15.5 4.87496 15.5H11.9835C12.7502 15.5 13.4037 15.3675 13.9439 15.1024C14.4894 14.8425 14.9036 14.4628 15.1866 13.9633C15.4747 13.4638 15.6188 12.8573 15.6188 12.1437V9.61315H15.8118C15.9816 9.61315 16.1256 9.55199 16.244 9.42966C16.3675 9.30734 16.4292 9.16208 16.4292 8.99388C16.4292 8.82569 16.3675 8.68298 16.244 8.56575C16.1256 8.44343 15.9816 8.38226 15.8118 8.38226H1.04669C0.87689 8.38226 0.730243 8.44343 0.60675 8.56575C0.488403 8.68298 0.42923 8.82569 0.42923 8.99388C0.42923 9.16208 0.488403 9.30734 0.60675 9.42966C0.730243 9.55199 0.87689 9.61315 1.04669 9.61315Z"
		fill="currentColor"
	/>
</svg>
