<svg viewBox="0 0 15 16" fill="none" color="rgb(var(--foreground, 0, 0, 0))">
	<path
		d="M1.79572 14.1246H13.1966C13.7366 14.1246 14.1722 13.959 14.5033 13.6279C14.8344 13.3018 15 12.8688 15 12.3288V2.29572C15 1.75573 14.8344 1.32272 14.5033 0.996689C14.1722 0.665563 13.7366 0.5 13.1966 0.5H1.79572C1.25573 0.5 0.820173 0.665563 0.489047 0.996689C0.163016 1.32272 0 1.75573 0 2.29572V12.3288C0 12.8688 0.163016 13.3018 0.489047 13.6279C0.820173 13.959 1.25573 14.1246 1.79572 14.1246ZM1.811 12.8943C1.6378 12.8943 1.49771 12.8383 1.39073 12.7262C1.28375 12.6141 1.23026 12.4638 1.23026 12.2753V2.34921C1.23026 2.16582 1.28375 2.01808 1.39073 1.90601C1.49771 1.78884 1.6378 1.73026 1.811 1.73026H13.189C13.3622 1.73026 13.5023 1.78884 13.6093 1.90601C13.7163 2.01808 13.7697 2.16582 13.7697 2.34921V12.2753C13.7697 12.4638 13.7163 12.6141 13.6093 12.7262C13.5023 12.8383 13.3622 12.8943 13.189 12.8943H1.811ZM3.53031 3.86984C3.73408 3.86984 3.90983 3.79852 4.05756 3.65588C4.21039 3.50815 4.28681 3.32985 4.28681 3.12099C4.28681 2.90703 4.21039 2.72873 4.05756 2.58609C3.90983 2.43836 3.73408 2.36449 3.53031 2.36449C3.32145 2.36449 3.1406 2.43836 2.98777 2.58609C2.84004 2.72873 2.76617 2.90703 2.76617 3.12099C2.76617 3.32985 2.84004 3.50815 2.98777 3.65588C3.1406 3.79852 3.32145 3.86984 3.53031 3.86984ZM6.17422 3.86984C6.38309 3.86984 6.56139 3.79852 6.70912 3.65588C6.85685 3.50815 6.93072 3.32985 6.93072 3.12099C6.93072 2.90703 6.85685 2.72873 6.70912 2.58609C6.56139 2.43836 6.38309 2.36449 6.17422 2.36449C5.96536 2.36449 5.78451 2.43836 5.63169 2.58609C5.48395 2.72873 5.41009 2.90703 5.41009 3.12099C5.41009 3.32985 5.48395 3.50815 5.63169 3.65588C5.78451 3.79852 5.96536 3.86984 6.17422 3.86984ZM8.81814 3.86984C9.027 3.86984 9.2053 3.79852 9.35303 3.65588C9.50076 3.50815 9.57463 3.32985 9.57463 3.12099C9.57463 2.90703 9.50076 2.72873 9.35303 2.58609C9.2053 2.43836 9.027 2.36449 8.81814 2.36449C8.60927 2.36449 8.42843 2.43836 8.2756 2.58609C8.12787 2.72873 8.054 2.90703 8.054 3.12099C8.054 3.32985 8.12787 3.50815 8.2756 3.65588C8.42843 3.79852 8.60927 3.86984 8.81814 3.86984ZM11.462 3.86984C11.6709 3.86984 11.8492 3.79852 11.9969 3.65588C12.1498 3.50815 12.2262 3.32985 12.2262 3.12099C12.2262 2.90703 12.1498 2.72873 11.9969 2.58609C11.8492 2.43836 11.6709 2.36449 11.462 2.36449C11.2532 2.36449 11.0749 2.43836 10.9272 2.58609C10.7794 2.72873 10.7056 2.90703 10.7056 3.12099C10.7056 3.32985 10.7794 3.50815 10.9272 3.65588C11.0749 3.79852 11.2532 3.86984 11.462 3.86984ZM0.741212 5.52038H14.2664V4.51936H0.741212V5.52038ZM2.98777 11.9926H12.0122C12.2313 11.9926 12.4045 11.9289 12.5318 11.8016C12.6643 11.6691 12.7305 11.4959 12.7305 11.282V7.14035C12.7305 6.92639 12.6643 6.75318 12.5318 6.62073C12.4045 6.48828 12.2313 6.42206 12.0122 6.42206H2.98777C2.76872 6.42206 2.59552 6.48828 2.46816 6.62073C2.3408 6.75318 2.27713 6.92639 2.27713 7.14035V11.282C2.27713 11.4959 2.3408 11.6691 2.46816 11.8016C2.59552 11.9289 2.76872 11.9926 2.98777 11.9926ZM3.32399 11.1444C3.19154 11.1444 3.12532 11.0782 3.12532 10.9457V7.47657C3.12532 7.33902 3.19154 7.27025 3.32399 7.27025H11.6836C11.8161 7.27025 11.8823 7.33902 11.8823 7.47657V10.9457C11.8823 11.0782 11.8161 11.1444 11.6836 11.1444H3.32399ZM2.18543 15.5C2.36882 15.5 2.51656 15.444 2.62863 15.3319C2.7407 15.2198 2.79674 15.0721 2.79674 14.8887V13.3604H1.56648V14.8887C1.56648 15.0721 1.62252 15.2198 1.73459 15.3319C1.85176 15.444 2.00204 15.5 2.18543 15.5ZM12.8146 15.5C12.998 15.5 13.1457 15.444 13.2578 15.3319C13.3698 15.2198 13.4259 15.0721 13.4259 14.8887V13.3604H12.1956V14.8887C12.1956 15.0721 12.2517 15.2198 12.3637 15.3319C12.4809 15.444 12.6312 15.5 12.8146 15.5Z"
		fill="currentColor"
	/>
</svg>
