<svg color="rgb(var(--foreground, 0, 0, 0))" viewBox="0 0 16 16" fill="none">
	<path
		d="M2.20496 15.9848H8.05261C8.0322 15.9442 8.00924 15.901 7.98373 15.8554C7.96332 15.8148 7.9429 15.7691 7.92249 15.7184L7.56276 14.7593H2.25854C2.07994 14.7593 1.93452 14.7035 1.82226 14.5918C1.7151 14.4853 1.66152 14.3406 1.66152 14.1579V1.83444C1.66152 1.65176 1.7151 1.5046 1.82226 1.39296C1.93452 1.28132 2.07994 1.2255 2.25854 1.2255H11.8796C12.0582 1.2255 12.2011 1.28132 12.3082 1.39296C12.4205 1.5046 12.4766 1.65176 12.4766 1.83444V9.86489C12.6858 9.81415 12.8976 9.79131 13.1119 9.79638C13.3262 9.79638 13.5252 9.82683 13.7089 9.88773V1.81922C13.7089 1.27624 13.5456 0.837298 13.2191 0.502379C12.8976 0.16746 12.4715 0 11.9408 0H2.20496C1.67428 0 1.24566 0.16746 0.919086 0.502379C0.592515 0.837298 0.42923 1.27624 0.42923 1.81922V14.1732C0.42923 14.7161 0.592515 15.1526 0.919086 15.4824C1.24566 15.8173 1.67428 15.9848 2.20496 15.9848ZM3.31479 3.27307C3.50359 3.27307 3.66177 3.2071 3.78934 3.07517C3.922 2.94323 3.98834 2.78338 3.98834 2.59562C3.98834 2.41294 3.922 2.25563 3.78934 2.12369C3.66177 1.99175 3.50359 1.92579 3.31479 1.92579C3.13109 1.92579 2.97291 1.99175 2.84024 2.12369C2.70757 2.25563 2.64124 2.41294 2.64124 2.59562C2.64124 2.78338 2.70757 2.94323 2.84024 3.07517C2.97291 3.2071 3.13109 3.27307 3.31479 3.27307ZM5.26656 3.27307C5.45536 3.27307 5.61354 3.2071 5.7411 3.07517C5.87377 2.94323 5.94011 2.78338 5.94011 2.59562C5.94011 2.41294 5.87377 2.25563 5.7411 2.12369C5.61354 1.99175 5.45536 1.92579 5.26656 1.92579C5.08286 1.92579 4.92468 1.99175 4.79201 2.12369C4.66444 2.25563 4.60066 2.41294 4.60066 2.59562C4.60066 2.78338 4.66444 2.94323 4.79201 3.07517C4.92468 3.2071 5.08286 3.27307 5.26656 3.27307ZM9.2696 2.98382H11.0989C11.2112 2.98382 11.303 2.9483 11.3744 2.87726C11.4459 2.80622 11.4816 2.71234 11.4816 2.59562C11.4816 2.48398 11.4459 2.39264 11.3744 2.3216C11.303 2.25056 11.2112 2.21503 11.0989 2.21503H9.2696C9.15734 2.21503 9.06549 2.25056 8.99405 2.3216C8.92262 2.39264 8.8869 2.48398 8.8869 2.59562C8.8869 2.71234 8.92262 2.80622 8.99405 2.87726C9.06549 2.9483 9.15734 2.98382 9.2696 2.98382ZM1.10278 4.9705H13.0277V3.97336H1.10278V4.9705ZM3.06221 9.86489C3.06221 10.4129 3.16426 10.928 3.36837 11.4101C3.57757 11.8922 3.86588 12.3159 4.23327 12.6813C4.60066 13.0466 5.02673 13.3333 5.51148 13.5414C5.99624 13.7444 6.51671 13.8459 7.0729 13.8459C7.09841 13.8459 7.12138 13.8459 7.14179 13.8459C7.1673 13.8459 7.19281 13.8459 7.21833 13.8459C7.1673 13.7088 7.11882 13.5718 7.0729 13.4348C7.02698 13.2978 6.9785 13.1608 6.92747 13.0238C6.92237 13.0238 6.91217 13.0238 6.89686 13.0238C6.88665 13.0238 6.87645 13.0238 6.86624 13.0238C6.53457 13.0238 6.19524 12.9502 5.84826 12.803C5.50128 12.6508 5.17981 12.4351 4.88386 12.156C4.5879 11.8719 4.34808 11.537 4.16438 11.1513C3.98068 10.7656 3.88884 10.3368 3.88884 9.86489C3.88884 9.28132 4.03171 8.75103 4.31746 8.27402C4.60321 7.79194 4.98591 7.40882 5.46556 7.12464C5.94521 6.84047 6.48099 6.69838 7.0729 6.69838C7.6546 6.69838 8.18528 6.84047 8.66493 7.12464C9.14968 7.40882 9.53494 7.78941 9.82069 8.26641C10.1064 8.73835 10.2493 9.26102 10.2493 9.83444C10.2493 9.85474 10.2493 9.87504 10.2493 9.89534C10.2493 9.91564 10.2468 9.93593 10.2417 9.95623C10.3998 9.99175 10.5504 10.04 10.6932 10.1009C10.8361 10.1567 10.9586 10.21 11.0606 10.2607C11.0657 10.1947 11.0683 10.1288 11.0683 10.0628C11.0734 9.99683 11.0759 9.93086 11.0759 9.86489C11.0759 9.12908 10.8948 8.46178 10.5325 7.86299C10.1753 7.25912 9.69312 6.77704 9.0859 6.41675C8.47868 6.05645 7.80768 5.87631 7.0729 5.87631C6.33301 5.87631 5.65946 6.05645 5.05224 6.41675C4.44503 6.77704 3.96027 7.25912 3.59799 7.86299C3.2408 8.46178 3.06221 9.12908 3.06221 9.86489ZM11.2903 11.9657C11.5811 11.9657 11.8133 11.9175 11.9868 11.8211C12.1603 11.7247 12.3235 11.6308 12.4766 11.5395C12.6297 11.4431 12.8185 11.3949 13.043 11.3949C13.242 11.3949 13.413 11.4355 13.5558 11.5167C13.6987 11.5928 13.8492 11.6765 14.0074 11.7678C14.1707 11.8541 14.3825 11.9125 14.6427 11.9429L14.6963 11.2502C14.5075 11.2147 14.334 11.1513 14.1758 11.0599C14.0176 10.9686 13.8518 10.8823 13.6783 10.8011C13.5048 10.7199 13.293 10.6794 13.043 10.6794C12.7573 10.6794 12.52 10.7276 12.3312 10.824C12.1475 10.9153 11.9766 11.0092 11.8184 11.1056C11.6653 11.202 11.4893 11.2502 11.2903 11.2502C11.0861 11.2502 10.905 11.202 10.7468 11.1056C10.5937 11.0092 10.4254 10.9153 10.2417 10.824C10.058 10.7276 9.82069 10.6794 9.52983 10.6794C9.28491 10.6794 9.07314 10.7199 8.89455 10.8011C8.72106 10.8823 8.55522 10.9686 8.39704 11.0599C8.24396 11.1513 8.07047 11.2147 7.87657 11.2502L7.93015 11.9429C8.19038 11.9125 8.40214 11.8541 8.56543 11.7678C8.72871 11.6765 8.87924 11.5928 9.01702 11.5167C9.15989 11.4355 9.33083 11.3949 9.52983 11.3949C9.75945 11.3949 9.94825 11.4431 10.0962 11.5395C10.2493 11.6308 10.4126 11.7247 10.5861 11.8211C10.7647 11.9175 10.9994 11.9657 11.2903 11.9657ZM9.62168 16H12.9512C13.1451 16 13.3211 15.9467 13.4793 15.8402C13.6375 15.7336 13.7548 15.5788 13.8314 15.3758L15.3851 11.2122C15.4464 11.0447 15.4438 10.9001 15.3775 10.7783C15.3163 10.6565 15.227 10.5753 15.1096 10.5347C14.9922 10.4891 14.8672 10.4916 14.7346 10.5423C14.6019 10.588 14.5049 10.6946 14.4437 10.862L12.9665 14.7973C12.941 14.8684 12.9052 14.9191 12.8593 14.9496C12.8134 14.9851 12.7598 15.0029 12.6986 15.0029H9.87426C9.81303 15.0029 9.75945 14.9851 9.71353 14.9496C9.66761 14.9191 9.63189 14.8684 9.60637 14.7973L8.12915 10.862C8.06792 10.6946 7.97097 10.588 7.8383 10.5423C7.71073 10.4916 7.58827 10.4891 7.47091 10.5347C7.35355 10.5753 7.2617 10.6565 7.19536 10.7783C7.13413 10.9001 7.13413 11.0447 7.19536 11.2122L8.74913 15.3758C8.82056 15.5788 8.93537 15.7336 9.09356 15.8402C9.25174 15.9467 9.42778 16 9.62168 16Z"
		fill="currentColor"
	/>
</svg>
