<svg color="rgb(var(--foreground, 0, 0, 0))" viewBox="0 0 16 16" fill="none">
	<path
		d="M11.9408 0H2.20496C1.67428 0 1.24566 0.16746 0.919086 0.502379C0.592515 0.837298 0.42923 1.27624 0.42923 1.81922V3.84396H13.7089V1.81922C13.7089 1.27624 13.5456 0.837298 13.2191 0.502379C12.8976 0.16746 12.4715 0 11.9408 0ZM3.19998 2.97621C3.00608 2.97621 2.84024 2.90771 2.70247 2.77069C2.5698 2.63368 2.50346 2.4713 2.50346 2.28354C2.50346 2.09071 2.5698 1.92579 2.70247 1.78877C2.84024 1.65176 3.00608 1.58325 3.19998 1.58325C3.38878 1.58325 3.54951 1.65176 3.68218 1.78877C3.81995 1.92579 3.88884 2.09071 3.88884 2.28354C3.88884 2.4713 3.81995 2.63368 3.68218 2.77069C3.54951 2.90771 3.38878 2.97621 3.19998 2.97621ZM5.21298 2.97621C5.01908 2.97621 4.85579 2.90771 4.72312 2.77069C4.59045 2.63368 4.52412 2.4713 4.52412 2.28354C4.52412 2.09071 4.59045 1.92579 4.72312 1.78877C4.85579 1.65176 5.01908 1.58325 5.21298 1.58325C5.40178 1.58325 5.56251 1.65176 5.69518 1.78877C5.83295 1.92579 5.90184 2.09071 5.90184 2.28354C5.90184 2.4713 5.83295 2.63368 5.69518 2.77069C5.56251 2.90771 5.40178 2.97621 5.21298 2.97621ZM9.49156 2.67935C9.3742 2.67935 9.2798 2.64383 9.20837 2.57279C9.13693 2.49667 9.10121 2.40025 9.10121 2.28354C9.10121 2.16175 9.13693 2.06533 9.20837 1.99429C9.2798 1.91817 9.3742 1.88011 9.49156 1.88011H11.3744C11.4969 1.88011 11.5939 1.91817 11.6653 1.99429C11.7367 2.06533 11.7725 2.16175 11.7725 2.28354C11.7725 2.40025 11.7367 2.49667 11.6653 2.57279C11.5939 2.64383 11.4969 2.67935 11.3744 2.67935H9.49156ZM2.20496 15.9848H8.05261C8.0271 15.9391 8.00159 15.8909 7.97607 15.8402C7.95056 15.7894 7.9276 15.7387 7.90719 15.6879L7.37141 14.2569C7.32548 14.262 7.27446 14.2645 7.21833 14.2645C7.1673 14.2645 7.11882 14.2645 7.0729 14.2645C6.5014 14.2645 5.96562 14.1579 5.46556 13.9448C4.9655 13.7317 4.52412 13.4374 4.14142 13.0618C3.76382 12.6863 3.46787 12.2499 3.25356 11.7526C3.03924 11.2553 2.93209 10.7225 2.93209 10.1541C2.93209 9.58579 3.03924 9.05297 3.25356 8.55566C3.46787 8.05836 3.76382 7.62195 4.14142 7.24643C4.52412 6.86584 4.9655 6.56898 5.46556 6.35585C5.96562 6.14272 6.5014 6.03616 7.0729 6.03616C7.6393 6.03616 8.17252 6.14272 8.67259 6.35585C9.17265 6.56898 9.61148 6.86584 9.98907 7.24643C10.3718 7.62195 10.6703 8.05836 10.8846 8.55566C11.0989 9.05297 11.2061 9.58579 11.2061 10.1541C11.2061 10.1795 11.2035 10.2074 11.1984 10.2379C11.1984 10.2683 11.1984 10.2988 11.1984 10.3292C11.2137 10.3343 11.2265 10.3368 11.2367 10.3368C11.252 10.3368 11.2698 10.3368 11.2903 10.3368C11.3821 10.3368 11.5097 10.2912 11.673 10.1998C11.8413 10.1085 12.0403 10.0171 12.27 9.92579C12.5047 9.83444 12.7649 9.78877 13.0507 9.78877C13.1884 9.78877 13.3135 9.79892 13.4257 9.81922C13.538 9.83952 13.6324 9.86235 13.7089 9.88773V4.87916H0.42923V14.1732C0.42923 14.7161 0.592515 15.1526 0.919086 15.4824C1.24566 15.8173 1.67428 15.9848 2.20496 15.9848ZM3.78934 10.1541C3.78934 10.6261 3.88118 11.0625 4.06488 11.4634C4.24857 11.8643 4.49605 12.2119 4.80732 12.5062C5.11858 12.7954 5.46811 13.0212 5.85591 13.1836C6.24882 13.3409 6.64938 13.4171 7.05759 13.412L6.35342 11.5243C6.25647 11.2604 6.22841 11.0067 6.26923 10.7631C6.31515 10.5144 6.41466 10.2962 6.56774 10.1085C6.72592 9.92071 6.92237 9.7837 7.15709 9.69743C7.40202 9.61116 7.65205 9.5934 7.90719 9.64415C8.16742 9.68982 8.39194 9.80146 8.58074 9.97907C8.7032 9.92832 8.84097 9.88519 8.99405 9.84967C9.15224 9.80907 9.32828 9.78877 9.52218 9.78877C9.65995 9.78877 9.79517 9.80653 9.92784 9.84206C10.0656 9.8725 10.1983 9.91564 10.3258 9.97146C10.3258 9.91564 10.3233 9.85982 10.3182 9.804C10.3131 9.7431 10.308 9.68474 10.3029 9.62893C10.2212 9.11132 10.0273 8.647 9.72118 8.23597C9.41502 7.81985 9.03232 7.49255 8.57308 7.25404C8.11895 7.01047 7.61889 6.88868 7.0729 6.88868C6.46568 6.88868 5.91204 7.03584 5.41198 7.33016C4.91702 7.62448 4.52157 8.01776 4.22561 8.50999C3.93476 9.00222 3.78934 9.55027 3.78934 10.1541ZM11.2903 11.9657C11.5811 11.9657 11.8133 11.9175 11.9868 11.8211C12.1603 11.7247 12.3235 11.6308 12.4766 11.5395C12.6297 11.4431 12.8185 11.3949 13.043 11.3949C13.242 11.3949 13.413 11.4355 13.5558 11.5167C13.6987 11.5928 13.8492 11.6765 14.0074 11.7678C14.1707 11.8541 14.3825 11.9125 14.6427 11.9429L14.6963 11.2502C14.5075 11.2147 14.334 11.1513 14.1758 11.0599C14.0176 10.9686 13.8518 10.8823 13.6783 10.8011C13.5048 10.7199 13.293 10.6794 13.043 10.6794C12.7573 10.6794 12.52 10.7276 12.3312 10.824C12.1475 10.9153 11.9766 11.0092 11.8184 11.1056C11.6653 11.202 11.4893 11.2502 11.2903 11.2502C11.0861 11.2502 10.905 11.202 10.7468 11.1056C10.5937 11.0092 10.4254 10.9153 10.2417 10.824C10.058 10.7276 9.82069 10.6794 9.52983 10.6794C9.28491 10.6794 9.07314 10.7199 8.89455 10.8011C8.72106 10.8823 8.55522 10.9686 8.39704 11.0599C8.24396 11.1513 8.07047 11.2147 7.87657 11.2502L7.93015 11.9429C8.19038 11.9125 8.40214 11.8541 8.56543 11.7678C8.72871 11.6765 8.87924 11.5928 9.01702 11.5167C9.15989 11.4355 9.33083 11.3949 9.52983 11.3949C9.75945 11.3949 9.94825 11.4431 10.0962 11.5395C10.2493 11.6308 10.4126 11.7247 10.5861 11.8211C10.7647 11.9175 10.9994 11.9657 11.2903 11.9657ZM9.62168 16H12.9512C13.1451 16 13.3211 15.9467 13.4793 15.8402C13.6375 15.7336 13.7548 15.5788 13.8314 15.3758L15.3851 11.2122C15.4464 11.0447 15.4438 10.9001 15.3775 10.7783C15.3163 10.6565 15.227 10.5753 15.1096 10.5347C14.9922 10.4891 14.8672 10.4916 14.7346 10.5423C14.6019 10.588 14.5049 10.6946 14.4437 10.862L12.9665 14.7973C12.941 14.8684 12.9052 14.9191 12.8593 14.9496C12.8134 14.9851 12.7598 15.0029 12.6986 15.0029H9.87426C9.81303 15.0029 9.75945 14.9851 9.71353 14.9496C9.66761 14.9191 9.63189 14.8684 9.60637 14.7973L8.12915 10.862C8.06792 10.6946 7.97097 10.588 7.8383 10.5423C7.71073 10.4916 7.58827 10.4891 7.47091 10.5347C7.35355 10.5753 7.2617 10.6565 7.19536 10.7783C7.13413 10.9001 7.13413 11.0447 7.19536 11.2122L8.74913 15.3758C8.82056 15.5788 8.93537 15.7336 9.09356 15.8402C9.25174 15.9467 9.42778 16 9.62168 16Z"
		fill="currentColor"
	/>
</svg>
