<svg
	color="rgb(var(--foreground, 0, 0, 0))"
	viewBox="0 0 10 22"
	fill="none"
	xmlns="http://www.w3.org/2000/svg"
>
	<path
		d="M4.99612 12.3236C5.69842 12.3236 6.35166 12.1512 6.95584 11.8065C7.56519 11.4618 8.09708 10.9833 8.55151 10.371C9.00594 9.75873 9.35967 9.0487 9.6127 8.2409C9.8709 7.42797 10 6.55586 10 5.62459C10 4.89397 9.87865 4.21738 9.63594 3.59482C9.3984 2.97225 9.05499 2.42944 8.60573 1.96637C8.16163 1.50331 7.63232 1.14315 7.01781 0.885888C6.40846 0.628629 5.73457 0.5 4.99612 0.5C4.25768 0.5 3.58119 0.628629 2.96668 0.885888C2.35733 1.14315 1.83061 1.50331 1.38651 1.96637C0.942408 2.42944 0.599004 2.97225 0.356298 3.59482C0.118756 4.21738 0 4.89397 0 5.62459C0 6.55586 0.126502 7.42797 0.379536 8.2409C0.637734 9.0487 0.994047 9.75873 1.44848 10.371C1.9029 10.9833 2.43221 11.4618 3.03639 11.8065C3.64058 12.1512 4.29382 12.3236 4.99612 12.3236ZM4.99612 11.1659C4.45391 11.1659 3.95042 11.0219 3.48566 10.7337C3.02091 10.4405 2.61553 10.0391 2.26955 9.52977C1.92356 9.0204 1.65245 8.43128 1.45622 7.7624C1.26516 7.09353 1.16962 6.38093 1.16962 5.62459C1.16962 4.88883 1.33229 4.22253 1.65762 3.62569C1.98295 3.0237 2.43221 2.54778 3.00541 2.19791C3.58377 1.84289 4.24735 1.66538 4.99612 1.66538C5.7449 1.66538 6.40588 1.84289 6.97908 2.19791C7.55745 2.54778 8.01187 3.0237 8.34237 3.62569C8.67286 4.22253 8.83811 4.88883 8.83811 5.62459C8.83811 6.38093 8.73999 7.09353 8.54376 7.7624C8.34753 8.43128 8.07384 9.0204 7.72269 9.52977C7.37154 10.0391 6.96359 10.4405 6.49883 10.7337C6.03408 11.0219 5.53317 11.1659 4.99612 11.1659ZM3.91169 11.7911L3.54763 13.1803C3.50115 13.3346 3.51923 13.4813 3.60185 13.6202C3.68964 13.754 3.83165 13.8208 4.02788 13.8208H5.97211C6.16834 13.8208 6.30777 13.754 6.39039 13.6202C6.47301 13.4813 6.49367 13.3346 6.45236 13.1803L6.07281 11.7911H3.91169ZM4.90317 21.5C5.05293 21.5 5.18202 21.4434 5.29047 21.3302C5.39891 21.2222 5.45313 21.0935 5.45313 20.9443C5.45313 20.5224 5.53059 20.1648 5.68551 19.8716C5.84043 19.5783 6.01859 19.3056 6.21998 19.0535C6.42654 18.8014 6.60728 18.5261 6.7622 18.2277C6.91711 17.9344 6.99457 17.5742 6.99457 17.1472C6.99457 16.7973 6.94293 16.4963 6.83966 16.2442C6.74154 15.987 6.61761 15.758 6.46785 15.5573C6.32326 15.3515 6.17609 15.1509 6.02633 14.9553C5.88174 14.7598 5.76039 14.5489 5.66227 14.3225C5.56416 14.0961 5.51768 13.8286 5.52285 13.5198H4.42292C4.41776 13.9417 4.46423 14.2993 4.56235 14.5926C4.66563 14.8859 4.78956 15.1406 4.93415 15.3567C5.08391 15.5728 5.23108 15.7709 5.37567 15.9509C5.52543 16.131 5.64936 16.3162 5.74748 16.5066C5.85076 16.6918 5.9024 16.9054 5.9024 17.1472C5.9024 17.3942 5.85076 17.6077 5.74748 17.7878C5.6442 17.973 5.5151 18.1531 5.36018 18.328C5.20526 18.5081 5.05034 18.7087 4.89542 18.93C4.74567 19.1564 4.61657 19.4291 4.50813 19.7481C4.40485 20.0722 4.35321 20.471 4.35321 20.9443C4.35321 21.0935 4.40743 21.2222 4.51587 21.3302C4.62432 21.4434 4.75342 21.5 4.90317 21.5Z"
		fill="currentColor"
	/>
</svg>
