<svg
	color="rgb(var(--foreground, 0, 0, 0))"
	viewBox="0 0 15 22"
	fill="none"
	xmlns="http://www.w3.org/2000/svg"
>
	<path
		d="M9.95583 12.2631C10.6627 12.2631 11.3202 12.0916 11.9283 11.7486C12.5416 11.4057 13.0769 10.9296 13.5343 10.3205C13.9969 9.71134 14.3555 9.00494 14.6102 8.20128C14.8701 7.3925 15 6.52486 15 5.59835C15 4.87148 14.8779 4.19835 14.6336 3.57898C14.3893 2.9596 14.0411 2.41956 13.5889 1.95887C13.1419 1.49817 12.6091 1.13985 11.9906 0.883912C11.3773 0.627971 10.6991 0.5 9.95583 0.5C9.21258 0.5 8.5317 0.627971 7.91319 0.883912C7.29989 1.13985 6.76974 1.49817 6.32276 1.95887C5.88097 2.41956 5.53794 2.9596 5.29365 3.57898C5.04937 4.19835 4.92723 4.87148 4.92723 5.59835C4.92723 6.52486 5.05457 7.3925 5.30925 8.20128C5.56912 9.00494 5.92775 9.71134 6.38513 10.3205C6.84251 10.9296 7.37525 11.4057 7.98336 11.7486C8.59147 12.0916 9.24897 12.2631 9.95583 12.2631ZM8.86435 11.7333L8.49791 13.1154C8.45633 13.2689 8.47712 13.4148 8.56028 13.553C8.64344 13.6861 8.78379 13.7527 8.98129 13.7527H10.9382C11.1357 13.7527 11.276 13.6861 11.3592 13.553C11.4475 13.4148 11.4683 13.2689 11.4215 13.1154L11.0473 11.7333H8.86435ZM3.04054 13.3841L2.71309 14.6433C2.67671 14.7815 2.6949 14.9121 2.76767 15.0349C2.84043 15.1527 2.96777 15.2115 3.14968 15.2115H4.91943C5.10654 15.2115 5.23388 15.1527 5.30145 15.0349C5.37421 14.9121 5.39241 14.7815 5.35602 14.6433L5.02078 13.3841H3.04054ZM9.86227 21.3925C10.013 21.3925 10.1429 21.3362 10.2521 21.2236C10.3664 21.1161 10.4236 20.9881 10.4236 20.8397C10.4236 20.4199 10.5016 20.0642 10.6575 19.7724C10.8134 19.4806 10.9927 19.2093 11.1954 18.9585C11.3981 18.7077 11.5774 18.4338 11.7334 18.1369C11.8945 17.8452 11.9751 17.4868 11.9751 17.062C11.9751 16.7139 11.9231 16.4144 11.8191 16.1636C11.7204 15.9077 11.5956 15.6799 11.4449 15.4803C11.2942 15.2755 11.1435 15.0759 10.9927 14.8814C10.8472 14.6868 10.7251 14.477 10.6263 14.2517C10.5276 14.0265 10.4808 13.7603 10.486 13.4532L9.3789 13.4609C9.3789 13.8755 9.42828 14.2287 9.52703 14.5205C9.62579 14.8122 9.74793 15.0656 9.89346 15.2806C10.0442 15.4956 10.1949 15.6927 10.3456 15.8718C10.4964 16.051 10.6211 16.2353 10.7199 16.4247C10.8238 16.609 10.8758 16.8214 10.8758 17.062C10.8758 17.3077 10.8212 17.5201 10.7121 17.6993C10.6081 17.8835 10.4782 18.0627 10.3223 18.2367C10.1715 18.4159 10.0182 18.6155 9.86227 18.8356C9.70635 19.0609 9.57641 19.3322 9.47246 19.6495C9.36851 19.972 9.31653 20.3687 9.31653 20.8397C9.31653 20.9881 9.36851 21.1161 9.47246 21.2236C9.58161 21.3362 9.71154 21.3925 9.86227 21.3925ZM3.96049 21.5C4.10083 21.5 4.22037 21.4514 4.31912 21.3541C4.41787 21.262 4.46725 21.1494 4.46725 21.0163C4.46725 20.6477 4.53222 20.3431 4.66216 20.1026C4.79729 19.8671 4.95062 19.6495 5.12214 19.4499C5.29365 19.2503 5.44438 19.0302 5.57432 18.7896C5.70945 18.5541 5.77702 18.2547 5.77702 17.8912C5.77702 17.5022 5.71205 17.1899 5.58211 16.9545C5.45737 16.719 5.31184 16.5117 5.14552 16.3325C4.97921 16.1534 4.83108 15.9589 4.70114 15.749C4.5764 15.534 4.51663 15.2576 4.52182 14.9197H3.5395C3.5343 15.2883 3.57328 15.5954 3.65644 15.8411C3.7448 16.0868 3.85135 16.2942 3.97609 16.4631C4.10083 16.632 4.22557 16.7856 4.35031 16.9238C4.48025 17.062 4.58679 17.2053 4.66995 17.3537C4.75831 17.5022 4.80249 17.6814 4.80249 17.8912C4.80249 18.1472 4.73492 18.357 4.59979 18.5208C4.46985 18.6898 4.31652 18.8664 4.13981 19.0506C3.96829 19.2349 3.81496 19.4781 3.67983 19.7801C3.54989 20.0821 3.48492 20.4942 3.48492 21.0163C3.48492 21.1494 3.5291 21.262 3.61746 21.3541C3.71101 21.4514 3.82536 21.5 3.96049 21.5ZM0 8.42395C0 9.18154 0.106549 9.89305 0.319646 10.5585C0.532744 11.2239 0.829001 11.8101 1.20842 12.3168C1.58784 12.8236 2.02962 13.2203 2.53378 13.5069C3.04314 13.7885 3.59407 13.9293 4.18659 13.9293C4.75311 13.9344 5.28066 13.8013 5.76922 13.53C6.26299 13.2587 6.69698 12.8876 7.0712 12.4166C6.42151 11.9815 5.85498 11.4185 5.37162 10.7274C4.89345 10.0313 4.52182 9.24552 4.25675 8.3702C3.99688 7.49488 3.86694 6.57093 3.86694 5.59835C3.86694 5.34753 3.87993 5.10183 3.90592 4.86124C3.93191 4.62066 3.96829 4.38263 4.01507 4.14717C3.23025 4.17276 2.53638 4.37495 1.93347 4.75375C1.33056 5.13254 0.857587 5.63931 0.514552 6.27404C0.171517 6.90878 0 7.62541 0 8.42395Z"
		fill="currentColor"
	/>
</svg>
