<svg
	color="rgb(var(--foreground, 0, 0, 0))"
	viewBox="0 0 15 22"
	fill="none"
	xmlns="http://www.w3.org/2000/svg"
>
	<path
		d="M9.95582 12.2631C10.6627 12.2631 11.3202 12.0916 11.9283 11.7486C12.5416 11.4057 13.0769 10.9296 13.5343 10.3205C13.9969 9.71134 14.3555 9.00494 14.6102 8.20128C14.8701 7.3925 15 6.52486 15 5.59835C15 4.87148 14.8779 4.19835 14.6336 3.57898C14.3893 2.9596 14.0411 2.41956 13.5889 1.95887C13.1419 1.49817 12.6091 1.13985 11.9906 0.883912C11.3773 0.627971 10.6991 0.5 9.95582 0.5C9.21258 0.5 8.5317 0.627971 7.9132 0.883912C7.2999 1.13985 6.76975 1.49817 6.32276 1.95887C5.88098 2.41956 5.53794 2.9596 5.29366 3.57898C5.04938 4.19835 4.92723 4.87148 4.92723 5.59835C4.92723 6.52486 5.05457 7.3925 5.30925 8.20128C5.56913 9.00494 5.92775 9.71134 6.38514 10.3205C6.84252 10.9296 7.37526 11.4057 7.98337 11.7486C8.59148 12.0916 9.24896 12.2631 9.95582 12.2631ZM9.95582 11.1113C9.41008 11.1113 8.90333 10.968 8.43555 10.6814C7.97297 10.3896 7.56497 9.99031 7.21154 9.48355C6.86331 8.97678 6.59044 8.39068 6.39293 7.72523C6.20062 7.05978 6.10447 6.35082 6.10447 5.59835C6.10447 4.86636 6.26819 4.20347 6.59563 3.60969C6.92308 3.01079 7.37526 2.53729 7.95218 2.18921C8.5343 1.83601 9.20218 1.65942 9.95582 1.65942C10.7095 1.65942 11.3773 1.83601 11.9595 2.18921C12.5416 2.53729 12.9964 3.01079 13.3238 3.60969C13.6564 4.20347 13.8228 4.86636 13.8228 5.59835C13.8228 6.35082 13.724 7.05978 13.5265 7.72523C13.329 8.39068 13.0535 8.97678 12.7001 9.48355C12.3519 9.99031 11.9413 10.3896 11.4683 10.6814C11.0005 10.968 10.4964 11.1113 9.95582 11.1113ZM8.86434 11.7333L8.49792 13.1154C8.45114 13.2689 8.46933 13.4148 8.5525 13.553C8.64085 13.6861 8.78378 13.7527 8.98129 13.7527H10.9381C11.1357 13.7527 11.276 13.6861 11.3591 13.553C11.4475 13.4148 11.4683 13.2689 11.4215 13.1154L11.0473 11.7333H8.86434ZM9.86227 21.3925C10.013 21.3925 10.1429 21.3362 10.2521 21.2236C10.3664 21.1161 10.4236 20.9881 10.4236 20.8397C10.4236 20.4199 10.5016 20.0642 10.6575 19.7724C10.8134 19.4806 10.9927 19.2093 11.1954 18.9585C11.3981 18.7077 11.5774 18.4338 11.7334 18.1369C11.8945 17.8452 11.9751 17.4868 11.9751 17.062C11.9751 16.7139 11.9231 16.4144 11.8191 16.1636C11.7204 15.9077 11.5956 15.6799 11.4449 15.4803C11.2942 15.2755 11.1435 15.0759 10.9927 14.8814C10.8472 14.6868 10.7251 14.477 10.6263 14.2517C10.5275 14.0265 10.4808 13.7603 10.486 13.4532L9.3789 13.4609C9.3789 13.8755 9.42827 14.2287 9.52703 14.5205C9.62578 14.8122 9.74792 15.0656 9.89345 15.2806C10.0442 15.4956 10.1949 15.6927 10.3456 15.8718C10.4964 16.051 10.6211 16.2353 10.7199 16.4247C10.8238 16.609 10.8758 16.8214 10.8758 17.062C10.8758 17.3077 10.8212 17.5201 10.7121 17.6993C10.6081 17.8835 10.4782 18.0627 10.3222 18.2367C10.1715 18.4159 10.0182 18.6155 9.86227 18.8356C9.70634 19.0609 9.5764 19.3322 9.47245 19.6495C9.3685 19.972 9.31653 20.3687 9.31653 20.8397C9.31653 20.9881 9.3685 21.1161 9.47245 21.2236C9.5816 21.3362 9.71154 21.3925 9.86227 21.3925ZM8.00676 10.7428L6.93087 10.2207C6.69179 10.9731 6.33056 11.5848 5.84719 12.0558C5.36383 12.5267 4.81029 12.7622 4.18659 12.7622C3.62006 12.7622 3.10811 12.5676 2.65073 12.1786C2.19854 11.7896 1.83992 11.2675 1.57484 10.6122C1.31497 9.95192 1.18503 9.22249 1.18503 8.42395C1.18503 7.84552 1.30977 7.32084 1.55925 6.84991C1.81393 6.37386 2.16736 5.99506 2.61954 5.71353C3.07173 5.43199 3.59407 5.29122 4.18659 5.29122C4.39449 5.29122 4.5894 5.3117 4.77131 5.35265C4.95842 5.38848 5.14033 5.43711 5.31705 5.49854L5.43399 4.30841C5.24688 4.25722 5.04678 4.21627 4.83368 4.18556C4.62578 4.14973 4.41008 4.13181 4.18659 4.13181C3.36538 4.13181 2.64033 4.32121 2.01143 4.7C1.38254 5.07879 0.888773 5.59324 0.530146 6.24333C0.176715 6.8883 0 7.61517 0 8.42395C0 9.18154 0.106549 9.89305 0.319647 10.5585C0.532744 11.2239 0.829002 11.8101 1.20842 12.3168C1.58784 12.8236 2.02963 13.2203 2.53378 13.5069C3.04314 13.7885 3.59407 13.9293 4.18659 13.9293C4.75832 13.9344 5.29366 13.8013 5.79262 13.53C6.29158 13.2587 6.73077 12.885 7.11019 12.409C7.4896 11.9278 7.78846 11.3724 8.00676 10.7428ZM3.04054 13.3841L2.7131 14.6433C2.67152 14.7815 2.68711 14.9121 2.75988 15.0349C2.83784 15.1527 2.96778 15.2115 3.14969 15.2115H4.91944C5.10655 15.2115 5.23389 15.1527 5.30146 15.0349C5.37422 14.9121 5.39241 14.7815 5.35603 14.6433L5.02079 13.3841H3.04054ZM3.9605 21.5C4.10083 21.5 4.22037 21.4514 4.31913 21.3541C4.41788 21.262 4.46726 21.1494 4.46726 21.0163C4.46726 20.6477 4.53222 20.3431 4.66216 20.1026C4.7973 19.8671 4.95062 19.6495 5.12214 19.4499C5.29366 19.2503 5.44439 19.0302 5.57432 18.7896C5.70946 18.5541 5.77703 18.2547 5.77703 17.8912C5.77703 17.5022 5.71206 17.1899 5.58212 16.9545C5.45738 16.719 5.31185 16.5117 5.14553 16.3325C4.97921 16.1534 4.83108 15.9589 4.70114 15.749C4.5764 15.534 4.51663 15.2576 4.52183 14.9197H3.5395C3.5343 15.2883 3.57328 15.5954 3.65644 15.8411C3.7448 16.0868 3.85135 16.2942 3.97609 16.4631C4.10083 16.632 4.22557 16.7856 4.35031 16.9238C4.48025 17.062 4.5868 17.2053 4.66996 17.3537C4.75832 17.5022 4.8025 17.6814 4.8025 17.8912C4.8025 18.1472 4.73493 18.357 4.59979 18.5208C4.46985 18.6898 4.31653 18.8664 4.13981 19.0506C3.9683 19.2349 3.81497 19.4781 3.67983 19.7801C3.5499 20.0821 3.48493 20.4942 3.48493 21.0163C3.48493 21.1494 3.52911 21.262 3.61746 21.3541C3.71102 21.4514 3.82536 21.5 3.9605 21.5Z"
		fill="currentColor"
	/>
</svg>
