<svg
	color="rgb(var(--foreground, 0, 0, 0))"
	viewBox="0 0 10 22"
	fill="none"
	xmlns="http://www.w3.org/2000/svg"
>
	<path
		d="M4.99612 12.3236C5.69842 12.3236 6.35166 12.1512 6.95584 11.8065C7.56518 11.4618 8.09708 10.9833 8.55151 10.371C9.00594 9.75873 9.35967 9.0487 9.6127 8.2409C9.8709 7.42797 10 6.55586 10 5.62459C10 4.89397 9.87865 4.21738 9.63594 3.59482C9.3984 2.97225 9.055 2.42944 8.60573 1.96637C8.16163 1.50331 7.63231 1.14315 7.01781 0.885888C6.40846 0.628629 5.73456 0.5 4.99612 0.5C4.25768 0.5 3.5812 0.628629 2.96669 0.885888C2.35734 1.14315 1.83062 1.50331 1.38652 1.96637C0.94242 2.42944 0.599018 2.97225 0.356312 3.59482C0.118771 4.21738 0 4.89397 0 5.62459C0 6.55586 0.126517 7.42797 0.37955 8.2409C0.637748 9.0487 0.99406 9.75873 1.44849 10.371C1.90291 10.9833 2.43222 11.4618 3.0364 11.8065C3.64058 12.1512 4.29382 12.3236 4.99612 12.3236ZM3.91169 11.7911L3.54763 13.1803C3.50632 13.3346 3.52698 13.4813 3.6096 13.6202C3.69222 13.754 3.83165 13.8208 4.02788 13.8208H5.97211C6.16834 13.8208 6.30776 13.754 6.39039 13.6202C6.47301 13.4813 6.49366 13.3346 6.45235 13.1803L6.0728 11.7911H3.91169ZM4.90317 21.5C5.05292 21.5 5.18202 21.4434 5.29046 21.3302C5.39891 21.2222 5.45313 21.0935 5.45313 20.9443C5.45313 20.5224 5.53059 20.1648 5.68551 19.8716C5.84042 19.5783 6.01858 19.3056 6.21997 19.0535C6.42653 18.8014 6.60727 18.5261 6.76219 18.2277C6.91711 17.9344 6.99457 17.5742 6.99457 17.1472C6.99457 16.7973 6.94293 16.4963 6.83965 16.2442C6.74153 15.987 6.6176 15.758 6.46784 15.5573C6.32325 15.3515 6.17608 15.1509 6.02633 14.9553C5.88174 14.7598 5.76038 14.5489 5.66227 14.3225C5.56415 14.0961 5.51768 13.8286 5.52284 13.5198H4.42292C4.41776 13.9417 4.46423 14.2993 4.56235 14.5926C4.66563 14.8859 4.78956 15.1406 4.93415 15.3567C5.08391 15.5728 5.23108 15.7709 5.37567 15.9509C5.52542 16.131 5.64936 16.3162 5.74747 16.5066C5.85075 16.6918 5.90239 16.9054 5.90239 17.1472C5.90239 17.3942 5.85075 17.6077 5.74747 17.7878C5.64419 17.973 5.5151 18.1531 5.36018 18.328C5.20526 18.5081 5.05034 18.7087 4.89542 18.93C4.74567 19.1564 4.61657 19.4291 4.50813 19.7481C4.40485 20.0722 4.35321 20.471 4.35321 20.9443C4.35321 21.0935 4.40743 21.2222 4.51587 21.3302C4.62432 21.4434 4.75341 21.5 4.90317 21.5Z"
		fill="currentColor"
	/>
</svg>
