<svg
	color="rgb(var(--foreground, 0, 0, 0))"
	viewBox="0 0 15 16"
	fill="none"
	xmlns="http://www.w3.org/2000/svg"
>
	<path
		d="M3.40083 16H11.5992C12.3324 16 12.894 15.8142 13.284 15.4427C13.6792 15.0712 13.8768 14.5242 13.8768 13.8015V9.1145H13.9314C14.2746 9.04326 14.5372 8.87786 14.7192 8.61832C14.9064 8.35878 15 8.03562 15 7.64885V5.64122C15 5.17812 14.8726 4.80916 14.6178 4.53435C14.363 4.25954 13.9964 4.12214 13.518 4.12214H11.9424C12.1504 3.92366 12.3116 3.68957 12.426 3.41985C12.5404 3.14504 12.5976 2.84987 12.5976 2.53435C12.5976 2.04071 12.4754 1.60305 12.231 1.22137C11.9918 0.839694 11.6668 0.541985 11.256 0.328244C10.8504 0.109415 10.3954 0 9.89096 0C9.34494 0 8.85877 0.139949 8.43235 0.419847C8.00593 0.699746 7.69395 1.09669 7.49634 1.61069C7.29874 1.09669 6.98627 0.699746 6.55985 0.419847C6.13863 0.139949 5.65246 0 5.10124 0C4.59682 0 4.13925 0.109415 3.72843 0.328244C3.32281 0.541985 2.99783 0.839694 2.75342 1.22137C2.51421 1.60305 2.39462 2.04071 2.39462 2.53435C2.39462 2.84987 2.45181 3.14504 2.56622 3.41985C2.68582 3.68957 2.84961 3.92366 3.05762 4.12214H1.48201C1.02439 4.12214 0.663014 4.25954 0.397803 4.53435C0.132592 4.80916 0 5.17812 0 5.64122V7.64885C0 8.03562 0.0909945 8.35878 0.273002 8.61832C0.45501 8.87786 0.717594 9.04326 1.06081 9.1145H1.11541V13.8015C1.11541 14.5242 1.3104 15.0712 1.70041 15.4427C2.09563 15.8142 2.6624 16 3.40083 16ZM6.80214 14.855H3.38523C3.06281 14.855 2.81323 14.7684 2.63642 14.5954C2.45961 14.4224 2.37122 14.1781 2.37122 13.8626V9.16794H6.80214V14.855ZM8.19055 14.855V9.16794H12.621V13.8626C12.621 14.1781 12.5326 14.4224 12.3558 14.5954C12.1842 14.7684 11.9346 14.855 11.607 14.855H8.19055ZM6.80214 8.01527H1.80181C1.60421 8.01527 1.46381 7.97455 1.38061 7.89313C1.29741 7.80662 1.25581 7.66667 1.25581 7.47328V5.80916C1.25581 5.61578 1.29741 5.47837 1.38061 5.39695C1.46381 5.31552 1.60421 5.27481 1.80181 5.27481H6.80214V8.01527ZM8.19055 8.01527V5.27481H13.206C13.3984 5.27481 13.5362 5.31552 13.6194 5.39695C13.7026 5.47837 13.7442 5.61578 13.7442 5.80916V7.47328C13.7442 7.66667 13.7026 7.80662 13.6194 7.89313C13.5362 7.97455 13.3984 8.01527 13.206 8.01527H8.19055ZM6.85674 4.12214H5.63944C5.02582 4.12214 4.54745 3.97455 4.20423 3.67939C3.86622 3.38422 3.69723 3.02545 3.69723 2.60305C3.69723 2.18066 3.83762 1.85496 4.11843 1.62595C4.39924 1.39186 4.75282 1.27481 5.17924 1.27481C5.64726 1.27481 6.04243 1.43766 6.36485 1.76336C6.69246 2.08397 6.85674 2.52672 6.85674 3.0916V4.12214ZM8.13595 4.12214V3.0916C8.13595 2.52672 8.29974 2.08397 8.62735 1.76336C8.95497 1.43766 9.35014 1.27481 9.81296 1.27481C10.2446 1.27481 10.5982 1.39186 10.8738 1.62595C11.1546 1.85496 11.295 2.18066 11.295 2.60305C11.295 3.02545 11.1234 3.38422 10.7802 3.67939C10.4422 3.97455 9.96638 4.12214 9.35276 4.12214H8.13595Z"
		fill="currentColor"
	/>
</svg>
