<svg
	color="rgb(var(--foreground, 0, 0, 0))"
	viewBox="0 0 20 20"
	fill="none"
	xmlns="http://www.w3.org/2000/svg"
>
	<path
		d="M12.5331 15.0229C12.9646 14.8478 13.2409 14.5852 13.3619 14.235C13.4882 13.8848 13.4987 13.4857 13.3935 13.0376C13.2935 12.5896 13.1146 12.1235 12.8567 11.6394C12.5989 11.1553 12.299 10.6892 11.9569 10.2412C11.6149 9.78798 11.2702 9.39143 10.9229 9.05153C10.5598 8.69619 10.1494 8.34599 9.6916 8.00094C9.23906 7.65589 8.77075 7.35462 8.28664 7.09712C7.80779 6.83962 7.3421 6.66194 6.88956 6.5641C6.44228 6.46625 6.0371 6.48427 5.67402 6.61817C5.31094 6.75207 5.02678 7.04047 4.82156 7.48337L0.140948 17.634C0.00939658 17.9172 -0.030069 18.1876 0.0225517 18.4451C0.0751725 18.7077 0.190938 18.9292 0.369849 19.1094C0.548759 19.2948 0.769766 19.4159 1.03287 19.4725C1.29597 19.5292 1.57486 19.4983 1.86954 19.3798L12.5331 15.0229ZM1.13548 18.0511L5.07414 9.49958C5.2741 9.99398 5.56352 10.509 5.94238 11.0446C6.32652 11.5802 6.77642 12.1003 7.29211 12.605C7.79727 13.0943 8.3182 13.5243 8.85493 13.8951C9.39166 14.2659 9.90471 14.5491 10.3941 14.7448L1.4512 18.3833C1.31965 18.4399 1.21704 18.4322 1.14337 18.3601C1.07497 18.2932 1.07234 18.1902 1.13548 18.0511ZM5.93449 7.71512C6.10814 7.54002 6.40545 7.50654 6.82641 7.61469C7.25264 7.72284 7.75252 7.96231 8.32609 8.33311C8.90492 8.70391 9.51006 9.19831 10.1415 9.81631C10.7782 10.4292 11.2834 11.0188 11.657 11.5853C12.0359 12.1518 12.2779 12.6436 12.3831 13.0608C12.4937 13.4779 12.4621 13.7689 12.2884 13.9337C12.1095 14.1088 11.807 14.1449 11.3807 14.0419C10.9545 13.9337 10.452 13.6968 9.87314 13.3312C9.29957 12.9604 8.69708 12.4634 8.06563 11.8402C7.43418 11.2274 6.92902 10.6377 6.55015 10.0712C6.17655 9.50473 5.93449 9.01291 5.82399 8.59576C5.71875 8.17861 5.75558 7.88506 5.93449 7.71512ZM7.09478 2.19177C7.33157 2.19177 7.53416 2.10937 7.70255 1.94457C7.8762 1.77977 7.96302 1.57892 7.96302 1.34202C7.96302 1.11027 7.8762 0.911998 7.70255 0.747199C7.53416 0.5824 7.33157 0.5 7.09478 0.5C6.84746 0.5 6.63961 0.5824 6.47122 0.747199C6.3081 0.911998 6.22654 1.11027 6.22654 1.34202C6.22654 1.57892 6.3081 1.77977 6.47122 1.94457C6.63961 2.10937 6.84746 2.19177 7.09478 2.19177ZM8.13667 3.63633C8.11036 3.49729 8.04984 3.37626 7.95513 3.27326C7.86041 3.16511 7.73675 3.11104 7.58415 3.11104C7.43681 3.11619 7.30263 3.17284 7.1816 3.28099C7.06584 3.38399 7.02374 3.51274 7.05531 3.66723C7.23422 4.57363 7.32368 5.49033 7.32368 6.41732C7.32368 7.34432 7.23422 8.27131 7.05531 9.19831C7.01848 9.34766 7.06058 9.47383 7.1816 9.57683C7.30263 9.67983 7.43418 9.73391 7.57626 9.73906C7.7236 9.73906 7.84462 9.68756 7.93934 9.58456C8.03932 9.48156 8.10247 9.36053 8.12878 9.22148C8.31295 8.27904 8.40502 7.34689 8.40502 6.42505C8.40502 5.49805 8.31558 4.56848 8.13667 3.63633ZM11.9727 3.52819C12.2516 3.52819 12.5015 3.46381 12.7226 3.33506C12.9488 3.20116 13.1277 3.02606 13.2593 2.80976C13.3908 2.58832 13.4566 2.34369 13.4566 2.07589C13.4566 1.66904 13.3119 1.32657 13.0225 1.04847C12.7383 0.765224 12.3884 0.623599 11.9727 0.623599C11.5623 0.623599 11.2123 0.765224 10.9229 1.04847C10.6335 1.32657 10.4888 1.66904 10.4888 2.07589C10.4888 2.34369 10.5546 2.58832 10.6861 2.80976C10.8229 3.02606 11.0019 3.20116 11.2229 3.33506C11.4491 3.46381 11.6991 3.52819 11.9727 3.52819ZM10.473 5.96155C10.6677 5.96155 10.8308 5.8946 10.9624 5.7607C11.0992 5.6268 11.1676 5.46458 11.1676 5.27403C11.1676 5.08863 11.0992 4.92898 10.9624 4.79508C10.8308 4.66118 10.6677 4.59423 10.473 4.59423C10.2836 4.59423 10.1178 4.66118 9.97575 4.79508C9.83893 4.92898 9.77053 5.08863 9.77053 5.27403C9.77053 5.46458 9.83893 5.6268 9.97575 5.7607C10.1178 5.8946 10.2836 5.96155 10.473 5.96155ZM18.4135 2.63209C18.6029 2.63209 18.7634 2.56772 18.895 2.43897C19.0318 2.30507 19.1002 2.14284 19.1002 1.95229C19.1002 1.76174 19.0318 1.59952 18.895 1.46562C18.7634 1.33172 18.6029 1.26477 18.4135 1.26477C18.2188 1.26477 18.053 1.33172 17.9162 1.46562C17.7847 1.59952 17.7189 1.76174 17.7189 1.95229C17.7189 2.14284 17.7847 2.30507 17.9162 2.43897C18.053 2.56772 18.2188 2.63209 18.4135 2.63209ZM16.1324 3.13421L14.6564 4.57878C14.5564 4.68178 14.5064 4.80795 14.5064 4.9573C14.5064 5.10665 14.5564 5.23283 14.6564 5.33583C14.7669 5.43883 14.8984 5.49033 15.051 5.49033C15.2036 5.49033 15.3325 5.43883 15.4378 5.33583L16.9138 3.89898C17.019 3.79083 17.0717 3.66208 17.0717 3.51274C17.0717 3.36339 17.019 3.23721 16.9138 3.13421C16.8086 3.03121 16.6796 2.97971 16.527 2.97971C16.3744 2.97971 16.2429 3.03121 16.1324 3.13421ZM13.204 6.0079L9.17854 9.9399C9.0733 10.0429 9.02068 10.1717 9.02068 10.3262C9.02068 10.4755 9.0733 10.6017 9.17854 10.7047C9.28905 10.8077 9.41797 10.8592 9.56531 10.8592C9.71791 10.8592 9.84946 10.8077 9.95996 10.7047L13.9776 6.76494C14.0775 6.66194 14.1249 6.53835 14.1196 6.39415C14.1196 6.2448 14.0723 6.11605 13.9776 6.0079C13.8671 5.9152 13.7355 5.86885 13.5829 5.86885C13.4356 5.86885 13.3093 5.9152 13.204 6.0079ZM19.1318 9.56138C19.3738 9.56138 19.579 9.47898 19.7474 9.31418C19.9158 9.14938 20 8.94596 20 8.70391C20 8.47216 19.9158 8.27389 19.7474 8.10909C19.579 7.94429 19.3738 7.86189 19.1318 7.86189C18.8844 7.86189 18.6766 7.94429 18.5082 8.10909C18.3451 8.27389 18.2635 8.47216 18.2635 8.70391C18.2635 8.94596 18.3451 9.14938 18.5082 9.31418C18.6766 9.47898 18.8844 9.56138 19.1318 9.56138ZM15.7377 9.8781C16.0903 9.8781 16.3876 9.76223 16.6296 9.53048C16.877 9.29358 17.0006 9.00261 17.0006 8.65756C17.0006 8.31766 16.877 8.02926 16.6296 7.79236C16.3876 7.55032 16.0903 7.42929 15.7377 7.42929C15.3904 7.42929 15.0957 7.55032 14.8537 7.79236C14.6169 8.02926 14.4985 8.31766 14.4985 8.65756C14.4985 9.00261 14.6169 9.29358 14.8537 9.53048C15.0957 9.76223 15.3904 9.8781 15.7377 9.8781ZM18.8318 13.5166C19.0739 13.5166 19.2791 13.4342 19.4475 13.2694C19.6159 13.1046 19.7001 12.9037 19.7001 12.6668C19.7001 12.4351 19.6159 12.2368 19.4475 12.072C19.2791 11.902 19.0739 11.8171 18.8318 11.8171C18.5898 11.8171 18.3845 11.902 18.2162 12.072C18.0478 12.2368 17.9636 12.4351 17.9636 12.6668C17.9636 12.9037 18.0478 13.1046 18.2162 13.2694C18.3845 13.4342 18.5898 13.5166 18.8318 13.5166ZM16.4244 11.7244C15.472 11.5493 14.5222 11.4617 13.575 11.4617C12.6331 11.4617 11.678 11.5493 10.7098 11.7244C10.5677 11.7553 10.4441 11.8171 10.3388 11.9098C10.2336 12.0025 10.1836 12.1209 10.1889 12.2651C10.1889 12.4093 10.2415 12.5406 10.3467 12.6591C10.452 12.7775 10.5835 12.8213 10.7414 12.7904C11.6833 12.6153 12.6278 12.5278 13.575 12.5278C14.5222 12.5226 15.4615 12.6076 16.3928 12.7827C16.5454 12.8136 16.677 12.7724 16.7875 12.6591C16.898 12.5406 16.9533 12.4093 16.9533 12.2651C16.9533 12.1158 16.9006 11.9947 16.7954 11.902C16.6902 11.8093 16.5665 11.7501 16.4244 11.7244Z"
		fill="currentColor"
	/>
</svg>
