<svg color="rgb(var(--foreground, 0, 0, 0))" viewBox="0 0 19 12" fill="none">
	<path
		d="M0 11.4192C0 11.5935 0.0527778 11.7338 0.158333 11.8403C0.263889 11.9468 0.40303 12 0.575758 12H18.4314C18.6042 12 18.7409 11.9468 18.8417 11.8403C18.9472 11.7338 19 11.5935 19 11.4192V0.573503C19 0.399274 18.9472 0.261343 18.8417 0.15971C18.7409 0.0532365 18.6042 0 18.4314 0H0.575758C0.40303 0 0.263889 0.0532365 0.158333 0.15971C0.0527778 0.261343 0 0.399274 0 0.573503V11.4192ZM1.31705 10.2287V1.77132C1.31705 1.4761 1.46098 1.32849 1.74886 1.32849H17.2511C17.539 1.32849 17.683 1.4761 17.683 1.77132V10.2287C17.683 10.5239 17.539 10.6715 17.2511 10.6715H1.74886C1.46098 10.6715 1.31705 10.5239 1.31705 10.2287ZM2.06553 9.74229C2.06553 9.85844 2.12311 9.91652 2.23826 9.91652H7.86629C7.48725 9.5245 7.18977 8.99214 6.97386 8.31942C6.76275 7.64186 6.6572 6.86509 6.6572 5.98911C6.6572 5.11313 6.76275 4.3412 6.97386 3.67332C7.18497 3.00061 7.47765 2.47066 7.85189 2.08348H2.23826C2.12311 2.08348 2.06553 2.14156 2.06553 2.25771V9.74229ZM7.52083 5.98911C7.52083 6.7441 7.6 7.40472 7.75833 7.97096C7.92146 8.5372 8.14937 8.98004 8.44205 9.29946C8.73952 9.61403 9.08258 9.77132 9.47121 9.77132C9.87424 9.77132 10.2269 9.61403 10.5292 9.29946C10.8362 8.98004 11.0737 8.5372 11.2417 7.97096C11.4096 7.40472 11.4936 6.7441 11.4936 5.98911C11.4936 5.23412 11.4096 4.5735 11.2417 4.00726C11.0737 3.44102 10.8362 3.0006 10.5292 2.68603C10.2269 2.37145 9.87424 2.21416 9.47121 2.21416C9.08258 2.21416 8.73952 2.37145 8.44205 2.68603C8.14937 3.0006 7.92146 3.44102 7.75833 4.00726C7.6 4.5735 7.52083 5.23412 7.52083 5.98911ZM11.1193 9.91652H16.7617C16.8769 9.91652 16.9345 9.85844 16.9345 9.74229V2.25771C16.9345 2.14156 16.8769 2.08348 16.7617 2.08348H11.1265C11.5104 2.47066 11.8102 3.00061 12.0261 3.67332C12.242 4.3412 12.35 5.11313 12.35 5.98911C12.35 6.86509 12.2396 7.64186 12.0189 8.31942C11.803 8.99214 11.5032 9.5245 11.1193 9.91652Z"
		fill="currentColor"
	/>
</svg>
