<svg color="rgb(var(--foreground, 0, 0, 0))" viewBox="0 0 19 12" fill="none">
	<path
		d="M0 11.4192C0 11.5935 0.0527778 11.7338 0.158333 11.8403C0.263889 11.9468 0.40303 12 0.575758 12H18.4314C18.6042 12 18.7409 11.9468 18.8417 11.8403C18.9472 11.7338 19 11.5935 19 11.4192V0.573503C19 0.399274 18.9472 0.261343 18.8417 0.15971C18.7409 0.0532365 18.6042 0 18.4314 0H0.575758C0.40303 0 0.263889 0.0532365 0.158333 0.15971C0.0527778 0.261343 0 0.399274 0 0.573503V11.4192ZM1.15871 10.6207V1.37931C1.15871 1.23896 1.22828 1.16878 1.36742 1.16878H17.6326C17.7717 1.16878 17.8413 1.23896 17.8413 1.37931V10.6207C17.8413 10.761 17.7717 10.8312 17.6326 10.8312H1.36742C1.22828 10.8312 1.15871 10.761 1.15871 10.6207ZM1.93598 9.61887C1.93598 9.90442 2.07513 10.0472 2.35341 10.0472H16.6538C16.9321 10.0472 17.0712 9.90442 17.0712 9.61887V2.37387C17.0712 2.08832 16.9321 1.94555 16.6538 1.94555H2.35341C2.07513 1.94555 1.93598 2.08832 1.93598 2.37387V9.61887ZM2.66288 9.14701V2.84573C2.66288 2.73442 2.71566 2.67877 2.82121 2.67877H16.1788C16.2891 2.67877 16.3443 2.73442 16.3443 2.84573V9.14701C16.3443 9.25832 16.2891 9.31397 16.1788 9.31397H2.82121C2.71566 9.31397 2.66288 9.25832 2.66288 9.14701ZM9.47121 10.0472C9.98939 10.0472 10.4596 9.88264 10.8818 9.55354C11.304 9.2196 11.6399 8.75015 11.8894 8.14519C12.1389 7.53539 12.2636 6.8167 12.2636 5.98911C12.2636 5.16636 12.1389 4.45251 11.8894 3.84755C11.6399 3.24259 11.304 2.77556 10.8818 2.44646C10.4596 2.11252 9.98939 1.94555 9.47121 1.94555C8.96742 1.94555 8.50922 2.11252 8.09659 2.44646C7.68396 2.77556 7.3553 3.24259 7.11061 3.84755C6.86591 4.45251 6.74356 5.16636 6.74356 5.98911C6.74356 6.8167 6.86591 7.53539 7.11061 8.14519C7.3553 8.75015 7.68396 9.2196 8.09659 9.55354C8.50922 9.88264 8.96742 10.0472 9.47121 10.0472ZM9.47121 9.19056C9.13056 9.19056 8.81629 9.06231 8.52841 8.80581C8.24053 8.54447 8.01023 8.17423 7.8375 7.6951C7.66477 7.21597 7.57841 6.64731 7.57841 5.98911C7.57841 5.33575 7.66477 4.77193 7.8375 4.29764C8.01023 3.81851 8.24053 3.4507 8.52841 3.19419C8.81629 2.93285 9.13056 2.80218 9.47121 2.80218C9.82626 2.80218 10.1525 2.93285 10.45 3.19419C10.7475 3.4507 10.985 3.81851 11.1625 4.29764C11.3448 4.77193 11.436 5.33575 11.436 5.98911C11.436 6.64731 11.3448 7.21597 11.1625 7.6951C10.985 8.17423 10.7475 8.54447 10.45 8.80581C10.1525 9.06231 9.82626 9.19056 9.47121 9.19056Z"
		fill="currentColor"
	/>
</svg>
