<svg color="rgb(var(--foreground, 0, 0, 0))" viewBox="0 0 19 14" fill="none">
	<path
		d="M3.63021 11.1311H5.61106C5.84823 11.1311 6.03957 11.0574 6.18511 10.9098C6.33064 10.7623 6.4034 10.5738 6.4034 10.3443V8.82787C6.4034 8.5929 6.33064 8.40437 6.18511 8.26229C6.03957 8.11475 5.84823 8.04098 5.61106 8.04098H3.63021C3.39305 8.04098 3.2017 8.11475 3.05617 8.26229C2.91064 8.40437 2.83787 8.5929 2.83787 8.82787V10.3443C2.83787 10.5738 2.91064 10.7623 3.05617 10.9098C3.2017 11.0574 3.39305 11.1311 3.63021 11.1311ZM0.654894 5.12295H18.3532V3.2623H0.654894V5.12295ZM2.53872 14H16.4613C17.3075 14 17.9409 13.7869 18.3613 13.3607C18.7871 12.9399 19 12.3087 19 11.4672V2.54098C19 1.69945 18.7871 1.06557 18.3613 0.639344C17.9409 0.213115 17.3075 0 16.4613 0H2.53872C1.69248 0 1.05645 0.213115 0.630638 0.639344C0.210213 1.06011 0 1.69399 0 2.54098V11.4672C0 12.3087 0.210213 12.9399 0.630638 13.3607C1.05645 13.7869 1.69248 14 2.53872 14ZM2.55489 12.6803C2.15064 12.6803 1.84071 12.5738 1.62511 12.3607C1.4095 12.1421 1.3017 11.8197 1.3017 11.3934V2.61475C1.3017 2.18852 1.4095 1.86612 1.62511 1.64754C1.84071 1.42896 2.15064 1.31967 2.55489 1.31967H16.4451C16.844 1.31967 17.1512 1.42896 17.3668 1.64754C17.5878 1.86612 17.6983 2.18852 17.6983 2.61475V11.3934C17.6983 11.8197 17.5878 12.1421 17.3668 12.3607C17.1512 12.5738 16.844 12.6803 16.4451 12.6803H2.55489Z"
		fill="currentColor"
	/>
</svg>
