<svg color="rgb(var(--foreground, 0, 0, 0))" viewBox="0 0 19 14" fill="none">
	<path
		d="M0.493192 6.86066V7.7623H8.23064C8.11206 8.01366 7.93418 8.28415 7.69702 8.57377C7.46525 8.85792 7.19844 9.13115 6.8966 9.39344C6.60014 9.65027 6.29291 9.86885 5.97489 10.0492C5.65688 10.224 5.35773 10.3279 5.07745 10.3607C4.87262 10.3825 4.71362 10.4563 4.60043 10.582C4.48723 10.7022 4.43064 10.8607 4.43064 11.0574C4.43064 11.2377 4.49532 11.3962 4.62468 11.5328C4.75943 11.6694 4.9427 11.7213 5.17447 11.6885C5.4817 11.6393 5.82397 11.5191 6.20128 11.3279C6.58397 11.1311 6.95858 10.8798 7.32511 10.5738C7.69702 10.2678 8.02582 9.9235 8.31149 9.54098C8.60255 9.15847 8.81546 8.75683 8.95021 8.33607H9.00681V13.8197H9.98511V8.33607H10.0498C10.1845 8.75683 10.3948 9.15847 10.6804 9.54098C10.9715 9.9235 11.3003 10.2678 11.6668 10.5738C12.0387 10.8798 12.4133 11.1311 12.7906 11.3279C13.1679 11.5191 13.5129 11.6393 13.8255 11.6885C14.0573 11.7213 14.2379 11.6694 14.3672 11.5328C14.502 11.3962 14.5694 11.2377 14.5694 11.0574C14.5694 10.8607 14.5128 10.7022 14.3996 10.582C14.2864 10.4563 14.1247 10.3825 13.9145 10.3607C13.6342 10.3279 13.335 10.224 13.017 10.0492C12.7044 9.86885 12.3972 9.65027 12.0953 9.39344C11.7989 9.13115 11.5321 8.85792 11.2949 8.57377C11.0631 8.28415 10.8879 8.01366 10.7694 7.7623H18.426V6.86066H12.734C13.079 6.70219 13.3809 6.50546 13.6396 6.27049C13.9037 6.03552 14.1085 5.77049 14.254 5.47541C14.3996 5.17486 14.4723 4.85246 14.4723 4.5082C14.4723 3.9071 14.2783 3.41257 13.8902 3.02459C13.5075 2.63115 13.0251 2.43443 12.443 2.43443C12.1088 2.43443 11.7881 2.50273 11.4809 2.63934C11.1736 2.77596 10.8906 2.97268 10.6319 3.22951C10.3786 3.48087 10.163 3.78142 9.98511 4.13115V0.139344H9.00681V4.13115C8.83433 3.78142 8.61872 3.48087 8.36 3.22951C8.10667 2.97268 7.82638 2.77596 7.51915 2.63934C7.21192 2.50273 6.88851 2.43443 6.54894 2.43443C5.9722 2.43443 5.48979 2.63115 5.1017 3.02459C4.71362 3.41257 4.51957 3.9071 4.51957 4.5082C4.51957 4.85246 4.59234 5.17486 4.73787 5.47541C4.88879 5.77049 5.09362 6.03552 5.35234 6.27049C5.61645 6.50546 5.9183 6.70219 6.25787 6.86066H0.493192ZM8.61872 6.73771C8.21986 6.73771 7.84255 6.67486 7.48681 6.54918C7.13106 6.4235 6.81574 6.25956 6.54085 6.05738C6.26596 5.84973 6.05035 5.62022 5.89404 5.36885C5.73773 5.11202 5.65957 4.85519 5.65957 4.59836C5.65957 4.28689 5.74582 4.04372 5.9183 3.86885C6.09078 3.68852 6.32255 3.59836 6.61362 3.59836C6.91546 3.59836 7.20113 3.67486 7.47064 3.82787C7.74014 3.98087 7.98 4.19399 8.19021 4.46721C8.40043 4.73497 8.56482 5.04372 8.6834 5.39344C8.80199 5.74317 8.86128 6.11475 8.86128 6.5082V6.73771H8.61872ZM10.3732 6.73771H10.1306V6.5082C10.1306 6.11475 10.1899 5.74317 10.3085 5.39344C10.4325 5.04372 10.5996 4.73497 10.8098 4.46721C11.02 4.19399 11.2599 3.98087 11.5294 3.82787C11.7989 3.67486 12.0818 3.59836 12.3783 3.59836C12.6748 3.59836 12.9065 3.68852 13.0736 3.86885C13.2461 4.04372 13.3323 4.28689 13.3323 4.59836C13.3323 4.85519 13.2542 5.11202 13.0979 5.36885C12.9416 5.62022 12.726 5.84973 12.4511 6.05738C12.1816 6.25956 11.8689 6.4235 11.5132 6.54918C11.1574 6.67486 10.7774 6.73771 10.3732 6.73771ZM2.53872 14H16.4613C17.3075 14 17.9409 13.7869 18.3613 13.3607C18.7871 12.9399 19 12.3087 19 11.4672V2.54098C19 1.69945 18.7871 1.06557 18.3613 0.639344C17.9409 0.213115 17.3075 0 16.4613 0H2.53872C1.69248 0 1.05645 0.213115 0.630638 0.639344C0.210213 1.06011 0 1.69399 0 2.54098V11.4672C0 12.3087 0.210213 12.9399 0.630638 13.3607C1.05645 13.7869 1.69248 14 2.53872 14ZM2.55489 12.6803C2.15064 12.6803 1.84071 12.5738 1.62511 12.3607C1.4095 12.1421 1.3017 11.8197 1.3017 11.3934V2.61475C1.3017 2.18852 1.4095 1.86612 1.62511 1.64754C1.84071 1.42896 2.15064 1.31967 2.55489 1.31967H16.4451C16.844 1.31967 17.1512 1.42896 17.3668 1.64754C17.5878 1.86612 17.6983 2.18852 17.6983 2.61475V11.3934C17.6983 11.8197 17.5878 12.1421 17.3668 12.3607C17.1512 12.5738 16.844 12.6803 16.4451 12.6803H2.55489Z"
		fill="currentColor"
	/>
</svg>
