<svg color="rgb(var(--foreground, 0, 0, 0))" viewBox="0 0 19 14" fill="none">
	<path
		d="M0 6.89344H6.03957C5.67844 6.72951 5.36043 6.52186 5.08553 6.27049C4.81064 6.01913 4.59504 5.73497 4.43872 5.41803C4.28241 5.10109 4.20426 4.75956 4.20426 4.39344C4.20426 3.96721 4.29858 3.58743 4.48723 3.2541C4.67589 2.92077 4.93191 2.65847 5.25532 2.46721C5.58411 2.27596 5.95603 2.18033 6.37106 2.18033C6.7322 2.18033 7.07447 2.2541 7.39787 2.40164C7.72667 2.54372 8.02582 2.74863 8.29532 3.01639C8.56482 3.28415 8.79121 3.60383 8.97447 3.97541V0H10.0336V3.97541C10.2223 3.60383 10.4513 3.28415 10.7209 3.01639C10.9904 2.74863 11.2868 2.54372 11.6102 2.40164C11.939 2.2541 12.2813 2.18033 12.637 2.18033C13.0521 2.18033 13.4213 2.27596 13.7447 2.46721C14.0735 2.65847 14.3322 2.92077 14.5209 3.2541C14.7095 3.58743 14.8038 3.96721 14.8038 4.39344C14.8038 4.75956 14.7257 5.10109 14.5694 5.41803C14.4184 5.73497 14.2055 6.01913 13.9306 6.27049C13.6557 6.52186 13.335 6.72951 12.9685 6.89344H19V7.86885H10.8745C10.9984 8.13115 11.1844 8.4153 11.4323 8.72131C11.6803 9.02186 11.9633 9.31148 12.2813 9.59016C12.5993 9.86339 12.9254 10.0929 13.2596 10.2787C13.5938 10.4645 13.9091 10.5738 14.2055 10.6066C14.4319 10.6284 14.6044 10.7077 14.723 10.8443C14.847 10.9754 14.9089 11.1475 14.9089 11.3607C14.9089 11.5519 14.8362 11.7213 14.6906 11.8689C14.5505 12.0164 14.3565 12.0738 14.1085 12.041C13.7743 11.9918 13.4051 11.8634 13.0009 11.6557C12.602 11.4481 12.2058 11.1831 11.8123 10.8607C11.4243 10.5328 11.0766 10.1667 10.7694 9.7623C10.4621 9.35246 10.2384 8.9235 10.0983 8.47541H10.0336V14H8.97447V8.47541H8.91787C8.77773 8.9235 8.55404 9.35246 8.24681 9.7623C7.93958 10.1667 7.58922 10.5328 7.19574 10.8607C6.80766 11.1831 6.41149 11.4481 6.00723 11.6557C5.60298 11.8634 5.23645 11.9918 4.90766 12.041C4.65972 12.0738 4.46298 12.0164 4.31745 11.8689C4.1773 11.7213 4.10723 11.5519 4.10723 11.3607C4.10723 11.1475 4.16652 10.9754 4.28511 10.8443C4.40908 10.7077 4.58156 10.6284 4.80255 10.6066C5.1044 10.5738 5.42241 10.4645 5.7566 10.2787C6.09078 10.0874 6.41688 9.85519 6.73489 9.58197C7.05291 9.30328 7.33589 9.01366 7.58383 8.71311C7.83177 8.41257 8.01773 8.13115 8.1417 7.86885H0V6.89344ZM8.56213 6.7623H8.82085V6.51639C8.82085 6.10109 8.75617 5.71038 8.62681 5.34426C8.50284 4.97268 8.33035 4.64481 8.10936 4.36066C7.88837 4.07104 7.63504 3.84426 7.34936 3.68033C7.06369 3.51639 6.75915 3.43443 6.43574 3.43443C6.12851 3.43443 5.88326 3.53005 5.7 3.72131C5.51674 3.9071 5.42511 4.16393 5.42511 4.4918C5.42511 4.76503 5.50865 5.03552 5.67574 5.30328C5.84284 5.57104 6.07192 5.81694 6.36298 6.04098C6.65404 6.25956 6.98823 6.43443 7.36553 6.56557C7.74284 6.69672 8.1417 6.7623 8.56213 6.7623ZM10.446 6.7623C10.8718 6.7623 11.2733 6.69672 11.6506 6.56557C12.0279 6.43443 12.3621 6.25956 12.6532 6.04098C12.9443 5.81694 13.1706 5.57104 13.3323 5.30328C13.4994 5.03552 13.583 4.76503 13.583 4.4918C13.583 4.16393 13.4913 3.9071 13.3081 3.72131C13.1302 3.53005 12.885 3.43443 12.5723 3.43443C12.2543 3.43443 11.9525 3.51639 11.6668 3.68033C11.3811 3.84426 11.1278 4.07104 10.9068 4.36066C10.6858 4.64481 10.5106 4.97268 10.3813 5.34426C10.2519 5.71038 10.1872 6.10109 10.1872 6.51639V6.7623H10.446ZM2.53872 14H16.4613C17.3075 14 17.9409 13.7869 18.3613 13.3607C18.7871 12.9399 19 12.3087 19 11.4672V2.54098C19 1.69945 18.7871 1.06557 18.3613 0.639344C17.9409 0.213115 17.3075 0 16.4613 0H2.53872C1.69248 0 1.05645 0.213115 0.630638 0.639344C0.210213 1.06011 0 1.69399 0 2.54098V11.4672C0 12.3087 0.210213 12.9399 0.630638 13.3607C1.05645 13.7869 1.69248 14 2.53872 14Z"
		fill="currentColor"
	/>
</svg>
