<svg color="rgb(var(--foreground, 0, 0, 0))" viewBox="0 0 13 18" fill="none">
	<path
		d="M2.39596 17.5H10.604C11.4027 17.5 12.0004 17.2912 12.3971 16.8736C12.799 16.4613 13 15.8428 13 15.0182V2.98974C13 2.15983 12.799 1.53871 12.3971 1.1264C12.0004 0.7088 11.4027 0.5 10.604 0.5H8.6409C8.50694 0.5 8.39873 0.544932 8.31629 0.634795C8.239 0.719372 8.20036 0.833022 8.20036 0.975746C8.20036 0.991605 8.20036 1.01011 8.20036 1.03125C8.20036 1.05239 8.20036 1.0709 8.20036 1.08675C8.20036 1.5995 8.0432 2.00389 7.72889 2.29991C7.41974 2.59064 7.01011 2.73601 6.5 2.73601C5.98989 2.73601 5.57769 2.59064 5.26338 2.29991C4.95422 2.00389 4.79964 1.5995 4.79964 1.08675C4.79964 1.0709 4.79964 1.05239 4.79964 1.03125C4.79964 1.01011 4.79964 0.991605 4.79964 0.975746C4.79964 0.833022 4.75842 0.719372 4.67598 0.634795C4.59869 0.544932 4.49306 0.5 4.3591 0.5H2.39596C1.5973 0.5 0.997027 0.7088 0.595125 1.1264C0.198375 1.53871 0 2.15983 0 2.98974V15.0182C0 15.8428 0.198375 16.4613 0.595125 16.8736C0.997027 17.2912 1.5973 17.5 2.39596 17.5ZM3.57075 6.40718C3.43163 6.40718 3.3157 6.35961 3.22295 6.26446C3.13535 6.16931 3.09156 6.05037 3.09156 5.90765C3.09156 5.77021 3.13535 5.65656 3.22295 5.5667C3.3157 5.47155 3.43163 5.42397 3.57075 5.42397H9.43698C9.57095 5.42397 9.68173 5.47155 9.76932 5.5667C9.86207 5.65656 9.90844 5.77021 9.90844 5.90765C9.90844 6.05037 9.86207 6.16931 9.76932 6.26446C9.68173 6.35961 9.57095 6.40718 9.43698 6.40718H3.57075ZM3.57075 9.22202C3.43163 9.22202 3.3157 9.17708 3.22295 9.08722C3.13535 8.99207 3.09156 8.87578 3.09156 8.73834C3.09156 8.6009 3.13535 8.48461 3.22295 8.38946C3.3157 8.29431 3.43163 8.24674 3.57075 8.24674H6.34542C6.48454 8.24674 6.5979 8.29431 6.68549 8.38946C6.77824 8.48461 6.82461 8.6009 6.82461 8.73834C6.82461 8.87578 6.77824 8.99207 6.68549 9.08722C6.5979 9.17708 6.48454 9.22202 6.34542 9.22202H3.57075Z"
		fill="currentColor"
	/>
</svg>
