<svg color="rgb(var(--foreground, 0, 0, 0))" viewBox="0 0 13 18" fill="none">
	<path
		d="M2.39596 17.5H10.604C11.4027 17.5 12.0004 17.2912 12.3971 16.8736C12.799 16.4613 13 15.8428 13 15.0182V2.98974C13 2.15983 12.799 1.53871 12.3971 1.1264C12.0004 0.7088 11.4027 0.5 10.604 0.5H8.30856C8.02002 0.5 7.87574 0.658582 7.87574 0.975746C7.87574 1.38806 7.7495 1.72637 7.49703 1.99067C7.24455 2.24969 6.91221 2.3792 6.5 2.3792C6.08779 2.3792 5.75287 2.24969 5.49524 1.99067C5.24277 1.72637 5.11653 1.38806 5.11653 0.975746C5.11653 0.658582 4.97226 0.5 4.68371 0.5H2.39596C1.5973 0.5 0.997027 0.7088 0.595125 1.1264C0.198375 1.53871 0 2.15983 0 2.98974V15.0182C0 15.8428 0.198375 16.4613 0.595125 16.8736C0.997027 17.2912 1.5973 17.5 2.39596 17.5ZM2.45779 16.2234C2.05589 16.2234 1.75188 16.1151 1.54578 15.8983C1.34483 15.6869 1.24435 15.3856 1.24435 14.9944V3.01353C1.24435 2.61707 1.34483 2.31312 1.54578 2.10168C1.75188 1.88495 2.05589 1.77659 2.45779 1.77659H4.66052L3.94174 1.32463C4.00872 2.0171 4.27408 2.57214 4.73781 2.98974C5.2067 3.40734 5.79409 3.61614 6.5 3.61614C7.20591 3.61614 7.79073 3.40734 8.25446 2.98974C8.72335 2.57214 8.99386 2.0171 9.06599 1.32463L8.33948 1.77659H10.5422C10.9441 1.77659 11.2455 1.88495 11.4465 2.10168C11.6526 2.31312 11.7556 2.61707 11.7556 3.01353V14.9944C11.7556 15.3856 11.6526 15.6869 11.4465 15.8983C11.2455 16.1151 10.9441 16.2234 10.5422 16.2234H2.45779ZM3.57075 6.40718H9.43698C9.57095 6.40718 9.68173 6.35961 9.76932 6.26446C9.86207 6.16931 9.90844 6.05037 9.90844 5.90765C9.90844 5.77021 9.86207 5.65656 9.76932 5.5667C9.68173 5.47155 9.57095 5.42397 9.43698 5.42397H3.57075C3.43163 5.42397 3.3157 5.47155 3.22295 5.5667C3.13535 5.65656 3.09156 5.77021 3.09156 5.90765C3.09156 6.05037 3.13535 6.16931 3.22295 6.26446C3.3157 6.35961 3.43163 6.40718 3.57075 6.40718ZM3.57075 9.22202H6.34542C6.48454 9.22202 6.5979 9.17708 6.68549 9.08722C6.77824 8.99207 6.82461 8.87578 6.82461 8.73834C6.82461 8.6009 6.77824 8.48461 6.68549 8.38946C6.5979 8.29431 6.48454 8.24674 6.34542 8.24674H3.57075C3.43163 8.24674 3.3157 8.29431 3.22295 8.38946C3.13535 8.48461 3.09156 8.6009 3.09156 8.73834C3.09156 8.87578 3.13535 8.99207 3.22295 9.08722C3.3157 9.17708 3.43163 9.22202 3.57075 9.22202Z"
		fill="currentColor"
	/>
</svg>
