<svg color="rgb(var(--foreground, 0, 0, 0))" viewBox="0 0 18 18" fill="none">
	<path
		d="M0 8.33868C0 8.71412 0.105038 9.01025 0.315115 9.22705C0.525192 9.44385 0.812126 9.55226 1.17592 9.55226H16.8164C17.1802 9.55226 17.4671 9.44385 17.6772 9.22705C17.8924 9.01025 18 8.71412 18 8.33868V7.18856C18 6.8184 17.8924 6.52228 17.6772 6.30019C17.4671 6.07809 17.1802 5.96705 16.8164 5.96705H1.17592C0.812126 5.96705 0.525192 6.07809 0.315115 6.30019C0.105038 6.52228 0 6.8184 0 7.18856V8.33868ZM1.47566 7.22822H16.5167C16.696 7.22822 16.7857 7.32076 16.7857 7.50583V8.01347C16.7857 8.20384 16.696 8.29902 16.5167 8.29902H1.47566C1.30145 8.29902 1.21435 8.20384 1.21435 8.01347V7.50583C1.21435 7.32076 1.30145 7.22822 1.47566 7.22822ZM4.88813 17.5H13.1119C13.7011 17.5 14.1674 17.3942 14.5107 17.1827C14.8591 16.9712 15.1178 16.6962 15.2869 16.3578C15.4611 16.0194 15.5867 15.6598 15.6635 15.2791L16.8856 9.23498L15.6789 9.02082L14.5337 14.7952C14.462 15.1337 14.3698 15.4086 14.257 15.6201C14.1494 15.8317 13.988 15.985 13.7728 16.0802C13.5628 16.1807 13.2707 16.2309 12.8967 16.2309H5.10333C4.72929 16.2309 4.43467 16.1807 4.21947 16.0802C4.00939 15.985 3.84799 15.8317 3.73527 15.6201C3.62767 15.4086 3.538 15.1337 3.46627 14.7952L2.32109 9.02082L1.11443 9.23498L2.33646 15.2791C2.41332 15.6598 2.53629 16.0194 2.70538 16.3578C2.87959 16.6962 3.13834 16.9712 3.48164 17.1827C3.83006 17.3942 4.29889 17.5 4.88813 17.5ZM5.72588 15.3663C5.86934 15.3452 5.97694 15.2844 6.04868 15.1839C6.12041 15.0887 6.14603 14.9777 6.12553 14.8508L5.48762 10.7024C5.46712 10.5755 5.40564 10.4776 5.30316 10.4089C5.20581 10.3402 5.08796 10.3164 4.94962 10.3375C4.80615 10.364 4.69599 10.4248 4.61913 10.5199C4.5474 10.6151 4.52434 10.7262 4.54996 10.8531L5.18787 15.0015C5.21349 15.1337 5.27498 15.2341 5.37233 15.3029C5.46968 15.3716 5.58753 15.3928 5.72588 15.3663ZM7.93168 15.3187C8.07003 15.3134 8.18019 15.2659 8.26217 15.176C8.34415 15.0861 8.38258 14.9777 8.37745 14.8508L8.13151 10.742C8.12126 10.6098 8.07003 10.5041 7.9778 10.4248C7.89069 10.3402 7.77541 10.3031 7.63194 10.3137C7.4936 10.3243 7.38087 10.3745 7.29377 10.4644C7.21178 10.5543 7.17592 10.6654 7.18617 10.7976L7.43211 14.8983C7.44236 15.0305 7.4936 15.1363 7.58582 15.2156C7.67805 15.2949 7.79334 15.3293 7.93168 15.3187ZM10.076 15.3187C10.2143 15.3293 10.3296 15.2949 10.4219 15.2156C10.5141 15.1363 10.5653 15.0305 10.5756 14.8983L10.8215 10.7976C10.8318 10.6654 10.7933 10.5543 10.7062 10.4644C10.6243 10.3745 10.5141 10.3243 10.3757 10.3137C10.2323 10.3031 10.1144 10.3402 10.0222 10.4248C9.9351 10.5041 9.88642 10.6098 9.87617 10.742L9.63023 14.8508C9.62511 14.9777 9.66354 15.0861 9.74552 15.176C9.8275 15.2659 9.93766 15.3134 10.076 15.3187ZM12.2741 15.3663C12.4125 15.3928 12.5303 15.3716 12.6277 15.3029C12.7301 15.2341 12.7916 15.1337 12.8121 15.0015L13.4577 10.8531C13.4782 10.7262 13.45 10.6151 13.3732 10.5199C13.3015 10.4248 13.1939 10.364 13.0504 10.3375C12.912 10.3164 12.7942 10.3402 12.6968 10.4089C12.5995 10.4776 12.538 10.5755 12.5124 10.7024L11.8745 14.8508C11.854 14.9777 11.8796 15.0887 11.9513 15.1839C12.0231 15.2844 12.1307 15.3452 12.2741 15.3663ZM2.48249 6.29225H4.02733L6.71734 1.46174C6.81981 1.27138 6.83775 1.09952 6.77114 0.946168C6.70965 0.787531 6.60974 0.668552 6.47139 0.589234C6.33305 0.509915 6.1819 0.483475 6.01793 0.509915C5.85397 0.536354 5.72075 0.639469 5.61828 0.819258L2.48249 6.29225ZM13.9727 6.29225H15.5175L12.3817 0.819258C12.2844 0.644757 12.1537 0.544286 11.9898 0.517847C11.8258 0.491407 11.6721 0.515203 11.5286 0.589234C11.3903 0.668552 11.2878 0.787531 11.2212 0.946168C11.1597 1.09952 11.1802 1.27138 11.2827 1.46174L13.9727 6.29225Z"
		fill="currentColor"
	/>
</svg>
