<svg color="rgb(var(--foreground, 0, 0, 0))" viewBox="0 0 14 16" fill="none">
	<path
		d="M0 13.5734C0 14.3823 0.20507 14.9876 0.615211 15.3894C1.03061 15.7965 1.65108 16 2.47662 16H11.76C12.4646 16 13.0141 15.7965 13.4085 15.3894C13.8028 14.9876 14 14.3823 14 13.5734V5.47162C14 4.66275 13.7923 4.0574 13.3769 3.65558C12.9615 3.24853 12.3437 3.04501 11.5234 3.04501H10.2614C10.2509 2.49706 10.0958 1.99348 9.79606 1.53425C9.5016 1.0698 9.10986 0.699282 8.62085 0.422701C8.13183 0.1409 7.59023 0 6.99606 0C6.40188 0 5.86028 0.1409 5.37127 0.422701C4.88225 0.699282 4.49052 1.0698 4.19606 1.53425C3.9016 1.99348 3.74648 2.49706 3.7307 3.04501H2.47662C1.65108 3.04501 1.03061 3.24853 0.615211 3.65558C0.20507 4.0574 0 4.66275 0 5.47162V13.5734ZM5.00056 3.04501C5.01108 2.70581 5.10573 2.3953 5.28451 2.1135C5.46329 1.8317 5.69991 1.60731 5.99437 1.44031C6.29409 1.27332 6.62798 1.18982 6.99606 1.18982C7.36939 1.18982 7.70329 1.27332 7.99775 1.44031C8.29747 1.60731 8.53409 1.8317 8.70761 2.1135C8.88639 2.3953 8.98103 2.70581 8.99155 3.04501H5.00056Z"
		fill="currentColor"
	/>
</svg>
