<svg color="rgb(var(--foreground, 0, 0, 0))" viewBox="0 0 18 18" fill="none">
	<path
		d="M0 7.57722C0 7.95266 0.105038 8.24879 0.315115 8.46559C0.525192 8.68239 0.812126 8.7908 1.17592 8.7908H16.8164C17.1802 8.7908 17.4671 8.68239 17.6772 8.46559C17.8924 8.24879 18 7.95266 18 7.57722V7.18856C18 6.8184 17.8924 6.52228 17.6772 6.30019C17.4671 6.07809 17.1802 5.96705 16.8164 5.96705H1.17592C0.812126 5.96705 0.525192 6.07809 0.315115 6.30019C0.105038 6.52228 0 6.8184 0 7.18856V7.57722ZM4.88813 17.5H13.1119C13.7011 17.5 14.1674 17.3942 14.5107 17.1827C14.8591 16.9712 15.1204 16.6962 15.2946 16.3578C15.4688 16.0194 15.5918 15.6598 15.6635 15.2791L16.7319 9.87746H1.27583L2.33646 15.2791C2.4082 15.6598 2.53117 16.0194 2.70538 16.3578C2.87959 16.6962 3.13834 16.9712 3.48164 17.1827C3.83006 17.3942 4.29889 17.5 4.88813 17.5ZM5.3877 16.1357C5.24424 16.1569 5.12126 16.1304 5.01879 16.0564C4.92143 15.9877 4.85995 15.8872 4.83433 15.755L4.17336 11.7653C4.14774 11.6331 4.17336 11.5167 4.25021 11.4162C4.32707 11.3158 4.4398 11.2523 4.58839 11.2259C4.73185 11.2047 4.85483 11.2312 4.9573 11.3052C5.0649 11.3739 5.12895 11.4744 5.14945 11.6066L5.80273 15.5963C5.82323 15.7285 5.79761 15.8449 5.72588 15.9454C5.65414 16.0458 5.54142 16.1093 5.3877 16.1357ZM7.82408 16.1278C7.67549 16.1384 7.55252 16.1013 7.45517 16.0167C7.36294 15.9321 7.3117 15.8211 7.30145 15.6836L7.04782 11.7415C7.03757 11.604 7.076 11.4903 7.16311 11.4004C7.25021 11.3052 7.3655 11.2523 7.50897 11.2417C7.65756 11.2312 7.77797 11.2682 7.8702 11.3528C7.96755 11.4374 8.02135 11.5484 8.0316 11.6859L8.28523 15.6281C8.29035 15.7656 8.24936 15.8793 8.16225 15.9691C8.07515 16.0643 7.96243 16.1172 7.82408 16.1278ZM10.1913 16.1278C10.0478 16.1172 9.93254 16.0643 9.84543 15.9691C9.75833 15.8793 9.71734 15.7656 9.72246 15.6281L9.97609 11.6859C9.98634 11.5484 10.0376 11.4374 10.1298 11.3528C10.2272 11.2682 10.3501 11.2312 10.4987 11.2417C10.6422 11.2523 10.7575 11.3052 10.8446 11.4004C10.9317 11.4903 10.9701 11.604 10.9599 11.7415L10.7062 15.6836C10.696 15.8211 10.6422 15.9321 10.5448 16.0167C10.4526 16.1013 10.3348 16.1384 10.1913 16.1278ZM12.6123 16.1357C12.4637 16.1093 12.351 16.0458 12.2741 15.9454C12.2024 15.8449 12.1768 15.7285 12.1973 15.5963L12.8506 11.6066C12.8711 11.4744 12.9325 11.3739 13.035 11.3052C13.1426 11.2312 13.2681 11.2047 13.4116 11.2259C13.5602 11.2523 13.6729 11.3184 13.7498 11.4242C13.8266 11.5299 13.8523 11.6489 13.8266 11.7811L13.1657 15.755C13.1401 15.8872 13.076 15.9877 12.9735 16.0564C12.8711 16.1304 12.7506 16.1569 12.6123 16.1357ZM2.47481 6.30812H4.01196L6.71734 1.46174C6.81981 1.27138 6.83775 1.09952 6.77114 0.946168C6.70965 0.787531 6.60974 0.668552 6.47139 0.589234C6.33305 0.509915 6.1819 0.483475 6.01793 0.509915C5.85397 0.536354 5.72075 0.639469 5.61828 0.819258L2.47481 6.30812ZM13.988 6.30812H15.5252L12.3817 0.819258C12.2844 0.644757 12.1537 0.544286 11.9898 0.517847C11.8258 0.491407 11.6721 0.515203 11.5286 0.589234C11.3903 0.668552 11.2878 0.787531 11.2212 0.946168C11.1597 1.09952 11.1802 1.27138 11.2827 1.46174L13.988 6.30812Z"
		fill="currentColor"
	/>
</svg>
