<svg color="rgb(var(--foreground, 0, 0, 0))" viewBox="0 0 18 16" fill="none">
	<path
		d="M6.34055 11.792H15.4419C15.5927 11.792 15.7253 11.7386 15.8397 11.6317C15.9541 11.5198 16.0113 11.3825 16.0113 11.2197C16.0113 11.057 15.9541 10.9222 15.8397 10.8154C15.7253 10.7035 15.5927 10.6475 15.4419 10.6475H6.47314C6.25477 10.6475 6.07539 10.5788 5.93501 10.4415C5.79983 10.2991 5.71664 10.1109 5.68544 9.87691L4.40641 1.38505C4.36482 1.09003 4.27123 0.868769 4.12565 0.721261C3.98527 0.573754 3.7149 0.5 3.31456 0.5H0.577123C0.421144 0.5 0.285962 0.558494 0.171577 0.675483C0.0571924 0.787386 0 0.919634 0 1.07223C0 1.22991 0.0571924 1.36724 0.171577 1.48423C0.285962 1.59613 0.421144 1.65209 0.577123 1.65209H3.21317L4.46101 10.0295C4.54419 10.5738 4.73657 11.0036 5.03813 11.3189C5.33969 11.6343 5.77383 11.792 6.34055 11.792ZM4.90555 9.07579H15.4575C16.0295 9.07579 16.4662 8.91811 16.7678 8.60275C17.0693 8.2823 17.2617 7.84741 17.3449 7.29807L17.9688 3.26195C17.9792 3.21109 17.987 3.16022 17.9922 3.10936C17.9974 3.05341 18 3.00763 18 2.97202C18 2.78891 17.935 2.6414 17.805 2.5295C17.675 2.41251 17.5035 2.35402 17.2903 2.35402H4.22704L4.23484 3.5061H16.6742L16.1205 7.16073C16.0893 7.39471 16.0087 7.58291 15.8787 7.72533C15.7487 7.86267 15.5693 7.93133 15.3406 7.93133H4.88995L4.90555 9.07579ZM6.95667 15.5C7.30503 15.5 7.60139 15.3805 7.84575 15.1414C8.09532 14.9023 8.2201 14.6099 8.2201 14.264C8.2201 13.9181 8.09532 13.6256 7.84575 13.3866C7.60139 13.1475 7.30503 13.028 6.95667 13.028C6.7175 13.028 6.50173 13.0814 6.30936 13.1882C6.12218 13.3001 5.9714 13.4502 5.85702 13.6384C5.74263 13.8266 5.68544 14.0351 5.68544 14.264C5.68544 14.4929 5.74263 14.7014 5.85702 14.8896C5.9714 15.0778 6.12218 15.2253 6.30936 15.3321C6.50173 15.444 6.7175 15.5 6.95667 15.5ZM14.2487 15.5C14.6023 15.5 14.9012 15.3805 15.1456 15.1414C15.3951 14.9023 15.5199 14.6099 15.5199 14.264C15.5199 13.9181 15.3951 13.6256 15.1456 13.3866C14.9012 13.1475 14.6023 13.028 14.2487 13.028C14.0147 13.028 13.8016 13.0814 13.6092 13.1882C13.4168 13.3001 13.2634 13.4502 13.149 13.6384C13.0347 13.8266 12.9775 14.0351 12.9775 14.264C12.9775 14.6099 13.1023 14.9023 13.3518 15.1414C13.6014 15.3805 13.9003 15.5 14.2487 15.5Z"
		fill="currentColor"
	/>
</svg>
