<svg color="rgb(var(--foreground, 0, 0, 0))" viewBox="0 0 17 18" fill="none">
	<path
		d="M8.97182 16.6853L16.3913 9.24739C16.584 9.05452 16.721 8.88196 16.8022 8.7297C16.8884 8.57237 16.9417 8.40488 16.962 8.22724C16.9873 8.04453 17 7.81867 17 7.54968V4.65672C17 4.38773 16.9746 4.16949 16.9239 4.002C16.8782 3.82944 16.7996 3.6721 16.688 3.52999C16.5764 3.38281 16.4242 3.21278 16.2314 3.01992L14.4812 1.26892C14.2884 1.08113 14.121 0.931406 13.979 0.819748C13.8369 0.703015 13.6797 0.621809 13.5072 0.57613C13.3398 0.525377 13.1216 0.5 12.8528 0.5H9.95348C9.68968 0.5 9.46649 0.512688 9.28386 0.538065C9.10123 0.558367 8.93124 0.611658 8.77397 0.697939C8.62178 0.78422 8.45185 0.921255 8.26414 1.10904L0.82194 8.53938C0.27912 9.08244 0.00514163 9.63312 6.85476e-05 10.1914C-0.00500454 10.7497 0.27151 11.308 0.82955 11.8663L5.6464 16.6777C6.20444 17.2309 6.76248 17.505 7.32052 17.4999C7.87856 17.4999 8.429 17.2284 8.97182 16.6853ZM11.5743 6.59044C11.275 6.59044 11.0264 6.48893 10.8286 6.28591C10.6307 6.0829 10.5318 5.83675 10.5318 5.54745C10.5318 5.25308 10.6307 5.00692 10.8286 4.80898C11.0264 4.60597 11.275 4.50446 11.5743 4.50446C11.8686 4.50446 12.1146 4.60597 12.3124 4.80898C12.5154 5.00692 12.6168 5.25308 12.6168 5.54745C12.6168 5.83675 12.5154 6.0829 12.3124 6.28591C12.1146 6.48893 11.8686 6.59044 11.5743 6.59044Z"
		fill="currentColor"
	/>
</svg>
