<svg color="rgb(var(--foreground, 0, 0, 0))" viewBox="0 0 17 18" fill="none">
	<path
		d="M11.5135 14.1426L3.37875 5.98901L0.82191 8.53938C0.279089 9.08244 0.00514165 9.63312 6.85553e-05 10.1914C-0.00500454 10.7497 0.271479 11.308 0.829519 11.8663L5.64642 16.6777C6.20446 17.2309 6.7625 17.505 7.32054 17.4999C7.87858 17.4999 8.42901 17.2284 8.97183 16.6853L11.5135 14.1426ZM5.48662 3.88019L13.6213 12.0185L16.3912 9.24739C16.584 9.05453 16.721 8.88196 16.8021 8.7297C16.8884 8.57237 16.9417 8.40488 16.962 8.22724C16.9873 8.04453 17 7.81867 17 7.54968V4.65672C17 4.38773 16.9746 4.16949 16.9239 4.002C16.8782 3.82944 16.7996 3.6721 16.688 3.52999C16.5764 3.38281 16.4242 3.21278 16.2314 3.01992L14.4812 1.26892C14.2884 1.08113 14.121 0.931406 13.979 0.819748C13.8369 0.703015 13.6797 0.621809 13.5072 0.57613C13.3398 0.525377 13.1216 0.5 12.8527 0.5H9.95347C9.68967 0.5 9.46646 0.512688 9.28383 0.538065C9.10119 0.558367 8.93125 0.611658 8.77398 0.697939C8.62179 0.78422 8.45184 0.921255 8.26413 1.10904L5.48662 3.88019ZM11.5743 6.59044C11.275 6.59044 11.0264 6.48893 10.8286 6.28591C10.6307 6.0829 10.5318 5.83675 10.5318 5.54745C10.5318 5.25308 10.6307 5.00692 10.8286 4.80898C11.0264 4.60597 11.275 4.50446 11.5743 4.50446C11.8686 4.50446 12.1146 4.60597 12.3125 4.80898C12.5154 5.00692 12.6168 5.25308 12.6168 5.54745C12.6168 5.83675 12.5154 6.0829 12.3125 6.28591C12.1146 6.48893 11.8686 6.59044 11.5743 6.59044ZM14.6943 16.023C14.811 16.1397 14.9505 16.1981 15.1128 16.1981C15.2751 16.1981 15.4121 16.1397 15.5237 16.023C15.6353 15.9113 15.6911 15.7743 15.6911 15.6119C15.6962 15.4495 15.6404 15.3099 15.5237 15.1932L2.3134 1.97693C2.19672 1.8602 2.05721 1.80183 1.89487 1.80183C1.73253 1.80183 1.59302 1.8602 1.47634 1.97693C1.36473 2.08859 1.30893 2.22816 1.30893 2.39565C1.30893 2.55806 1.36473 2.69509 1.47634 2.80675L14.6943 16.023Z"
		fill="currentColor"
	/>
</svg>
