<svg color="rgb(var(--foreground, 0, 0, 0))" viewBox="0 0 17 18" fill="none">
	<path
		d="M11.5211 14.135L10.6536 13.2595L8.14999 15.7642C7.59195 16.3275 7.03137 16.325 6.46826 15.7565L1.74268 11.0365C1.46366 10.7573 1.32415 10.4756 1.32415 10.1914C1.32922 9.90211 1.46619 9.62297 1.73507 9.35397L4.25386 6.84167L3.39397 5.97378L0.821909 8.53938C0.279089 9.08244 0.00514165 9.63312 6.85553e-05 10.1914C-0.00500454 10.7497 0.271479 11.308 0.829519 11.8663L5.64642 16.6777C6.20446 17.2309 6.7625 17.505 7.32054 17.4999C7.87858 17.4999 8.42901 17.2284 8.97183 16.6853L11.5211 14.135ZM12.7538 11.1583L13.6289 12.0262L16.3912 9.24739C16.584 9.05453 16.721 8.88196 16.8021 8.7297C16.8884 8.57237 16.9417 8.40488 16.962 8.22724C16.9873 8.04453 17 7.81867 17 7.54968V4.65672C17 4.38773 16.9746 4.16949 16.9239 4.002C16.8782 3.82944 16.7996 3.6721 16.688 3.52999C16.5764 3.38281 16.4242 3.21278 16.2314 3.01992L14.4812 1.26892C14.2884 1.08113 14.121 0.931406 13.979 0.819748C13.8369 0.703015 13.6797 0.621809 13.5072 0.57613C13.3398 0.525377 13.1216 0.5 12.8527 0.5H9.95347C9.68967 0.5 9.46646 0.512688 9.28383 0.538065C9.1012 0.558367 8.93125 0.611658 8.77398 0.697939C8.62179 0.78422 8.45184 0.921255 8.26414 1.10904L5.48662 3.88019L6.35412 4.74808L9.12402 1.97693C9.20012 1.9008 9.28129 1.8399 9.36753 1.79422C9.45885 1.74854 9.56792 1.7257 9.69475 1.7257H12.8984C13.1064 1.7257 13.2916 1.80944 13.4539 1.97693L15.5313 4.04768C15.6937 4.21009 15.7748 4.39534 15.7748 4.60343V7.81614C15.7748 7.94302 15.752 8.0496 15.7064 8.13588C15.6658 8.22217 15.6074 8.30337 15.5313 8.3795L12.7538 11.1583ZM11.9624 6.59044C12.2617 6.59044 12.5103 6.48893 12.7082 6.28591C12.906 6.0829 13.0049 5.83675 13.0049 5.54745C13.0049 5.25308 12.906 5.00692 12.7082 4.80898C12.5103 4.60597 12.2617 4.50446 11.9624 4.50446C11.6631 4.50446 11.4145 4.60597 11.2167 4.80898C11.0188 5.00692 10.9199 5.25308 10.9199 5.54745C10.9199 5.83675 11.0188 6.0829 11.2167 6.28591C11.4145 6.48893 11.6631 6.59044 11.9624 6.59044ZM14.6943 16.023C14.811 16.1397 14.9505 16.1981 15.1128 16.1981C15.2751 16.1981 15.4121 16.1397 15.5237 16.023C15.6353 15.9113 15.6911 15.7743 15.6911 15.6119C15.6962 15.4495 15.6404 15.3099 15.5237 15.1932L2.3134 1.97693C2.19672 1.8602 2.05721 1.80183 1.89487 1.80183C1.73253 1.80183 1.59302 1.8602 1.47634 1.97693C1.36473 2.08859 1.30893 2.22816 1.30893 2.39565C1.30893 2.55806 1.36473 2.69509 1.47634 2.80675L14.6943 16.023Z"
		fill="currentColor"
	/>
</svg>
