<svg color="rgb(var(--foreground, 0, 0, 0))" viewBox="0 0 17 18" fill="none">
	<path
		d="M8.97178 16.6853L16.3912 9.24739C16.584 9.05452 16.721 8.88196 16.8022 8.7297C16.8884 8.57237 16.9417 8.40488 16.962 8.22724C16.9873 8.04453 17 7.81867 17 7.54968V4.65672C17 4.38773 16.9746 4.16949 16.9239 4.002C16.8782 3.82944 16.7996 3.6721 16.688 3.52999C16.5764 3.38281 16.4242 3.21278 16.2314 3.01992L14.4812 1.26892C14.2884 1.08113 14.121 0.931406 13.979 0.819748C13.8369 0.703015 13.6797 0.621809 13.5072 0.57613C13.3398 0.525377 13.1216 0.5 12.8527 0.5H9.95345C9.68965 0.5 9.4664 0.512688 9.28377 0.538065C9.10114 0.558367 8.93121 0.611658 8.77394 0.697939C8.62175 0.78422 8.45182 0.921255 8.26412 1.10904L0.821878 8.53938C0.27906 9.08244 0.00514163 9.63312 6.85618e-05 10.1914C-0.00500451 10.7497 0.27145 11.308 0.829487 11.8663L5.64638 16.6777C6.20442 17.2309 6.76246 17.505 7.3205 17.4999C7.87853 17.4999 8.42897 17.2284 8.97178 16.6853ZM8.14997 15.7642C7.59194 16.3275 7.03136 16.325 6.46825 15.7565L1.74267 11.0365C1.46365 10.7573 1.32415 10.4756 1.32415 10.1914C1.32923 9.90211 1.46619 9.62297 1.73506 9.35397L9.12397 1.97693C9.20007 1.9008 9.28123 1.8399 9.36747 1.79422C9.45879 1.74854 9.56785 1.7257 9.69467 1.7257H12.8984C13.1064 1.7257 13.2916 1.80944 13.4539 1.97693L15.5313 4.04768C15.6937 4.21009 15.7748 4.39534 15.7748 4.60343V7.81614C15.7748 7.94302 15.752 8.0496 15.7064 8.13588C15.6658 8.22217 15.6074 8.30337 15.5313 8.3795L8.14997 15.7642ZM11.9624 6.59044C12.2617 6.59044 12.5103 6.48893 12.7082 6.28591C12.906 6.0829 13.0049 5.83674 13.0049 5.54745C13.0049 5.25308 12.906 5.00692 12.7082 4.80898C12.5103 4.60597 12.2617 4.50446 11.9624 4.50446C11.6631 4.50446 11.4144 4.60597 11.2166 4.80898C11.0188 5.00692 10.9198 5.25308 10.9198 5.54745C10.9198 5.83674 11.0188 6.0829 11.2166 6.28591C11.4144 6.48893 11.6631 6.59044 11.9624 6.59044Z"
		fill="currentColor"
	/>
</svg>
