<svg
	color="rgb(var(--foreground, 0, 0, 0))"
	viewBox="0 0 15 16"
	fill="none"
	xmlns="http://www.w3.org/2000/svg"
>
	<path
		d="M0 6.5669C0 7.40319 0.158648 8.1888 0.475943 8.92372C0.793238 9.65357 1.23336 10.2973 1.7963 10.8548C2.35924 11.4123 3.00931 11.8482 3.74625 12.1624C4.48831 12.4767 5.28155 12.6338 6.12597 12.6338C6.79126 12.6338 7.42585 12.5324 8.02974 12.3297C8.63362 12.127 9.18633 11.8482 9.68786 11.4934L13.4647 15.2415C13.5568 15.3277 13.6566 15.391 13.7641 15.4316C13.8767 15.4772 13.9944 15.5 14.1172 15.5C14.2912 15.5 14.4447 15.4595 14.5778 15.3784C14.7109 15.3023 14.8132 15.1959 14.8849 15.059C14.9616 14.9222 15 14.7701 15 14.6029C15 14.4812 14.977 14.3672 14.9309 14.2608C14.89 14.1543 14.8286 14.0606 14.7467 13.9795L10.9929 10.239C11.3869 9.73213 11.694 9.167 11.914 8.54359C12.1392 7.92017 12.2518 7.26128 12.2518 6.5669C12.2518 5.73061 12.0932 4.94754 11.7759 4.21769C11.4586 3.48277 11.0185 2.83654 10.4555 2.27902C9.89257 1.72149 9.24007 1.28561 8.498 0.971363C7.76106 0.657121 6.97038 0.5 6.12597 0.5C5.28155 0.5 4.48831 0.657121 3.74625 0.971363C3.00931 1.28561 2.35924 1.72149 1.7963 2.27902C1.23336 2.83654 0.793238 3.48277 0.475943 4.21769C0.158648 4.94754 0 5.73061 0 6.5669ZM1.31268 6.5669C1.31268 5.90801 1.43551 5.29219 1.68115 4.71946C1.93192 4.14166 2.27736 3.63482 2.71748 3.19894C3.16272 2.75798 3.6746 2.41586 4.2529 2.17258C4.83631 1.92423 5.46067 1.80005 6.12597 1.80005C6.79126 1.80005 7.41306 1.92423 7.99136 2.17258C8.57477 2.41586 9.08654 2.75798 9.52666 3.19894C9.96677 3.63482 10.3122 4.14166 10.563 4.71946C10.8137 5.29219 10.9391 5.90801 10.9391 6.5669C10.9391 7.2258 10.8137 7.84415 10.563 8.42195C10.3122 8.99468 9.96677 9.49899 9.52666 9.93487C9.08654 10.3708 8.57477 10.7129 7.99136 10.9612C7.41306 11.2096 6.79126 11.3338 6.12597 11.3338C5.46067 11.3338 4.83631 11.2096 4.2529 10.9612C3.6746 10.7129 3.16272 10.3708 2.71748 9.93487C2.27736 9.49899 1.93192 8.99468 1.68115 8.42195C1.43551 7.84415 1.31268 7.2258 1.31268 6.5669ZM3.42372 6.2552C3.42372 6.45793 3.50572 6.57704 3.66949 6.61252C3.83837 6.648 3.97911 6.61252 4.09169 6.50608L4.73652 5.87506L6.8015 7.91257L6.12597 8.5664C6.00826 8.6779 5.96988 8.81475 6.01082 8.97694C6.05176 9.13913 6.17458 9.22022 6.37929 9.22022H8.37518C8.50824 9.22022 8.61315 9.17968 8.68992 9.09858C8.76668 9.01242 8.80507 8.89078 8.80507 8.73365V6.86341C8.80507 6.6556 8.72062 6.53649 8.55174 6.50608C8.38797 6.4706 8.2498 6.50608 8.13721 6.61252L7.50006 7.23594L5.44276 5.19083L6.10294 4.5522C6.22064 4.43563 6.25903 4.29625 6.21808 4.13406C6.17714 3.97187 6.05432 3.89078 5.84961 3.89078H3.85372C3.72066 3.89078 3.61563 3.93386 3.53887 4.02002C3.4621 4.10618 3.42372 4.22783 3.42372 4.38495V6.2552Z"
		fill="currentColor"
	/>
</svg>
