<svg
	color="rgb(var(--foreground, 0, 0, 0))"
	viewBox="0 0 21 15"
	fill="none"
	xmlns="http://www.w3.org/2000/svg"
>
	<path
		d="M10.5039 14.193C11.2217 14.193 11.9111 14.1317 12.5721 14.009C13.2331 13.8864 13.8554 13.7177 14.439 13.503L12.4094 11.4944C12.1254 11.6426 11.8207 11.755 11.4954 11.8317C11.1752 11.9084 10.8447 11.9467 10.5039 11.9467C9.89968 11.9467 9.33419 11.8368 8.80744 11.617C8.28587 11.3921 7.82626 11.0829 7.42862 10.6894C7.03614 10.2907 6.7263 9.8358 6.49907 9.32469C6.27701 8.80846 6.16599 8.25902 6.16599 7.67635C6.16599 7.3339 6.20472 7.00168 6.28218 6.67968C6.35964 6.35256 6.47067 6.0459 6.61527 5.75967L3.96606 3.12233C3.35669 3.50055 2.80671 3.90689 2.31612 4.34133C1.83069 4.77067 1.41498 5.19745 1.06898 5.62167C0.72298 6.0459 0.457027 6.4369 0.271117 6.79468C0.0903725 7.15246 0 7.44635 0 7.67635C0 7.93701 0.116193 8.2769 0.34858 8.69602C0.580966 9.11002 0.916635 9.56235 1.35559 10.053C1.7997 10.5437 2.33161 11.0318 2.95131 11.5174C3.57617 12.0029 4.27849 12.4476 5.05828 12.8514C5.83806 13.2551 6.68498 13.5797 7.59904 13.825C8.51309 14.0704 9.48138 14.193 10.5039 14.193ZM17.2586 12.1C18.0125 11.6094 18.6684 11.0804 19.2261 10.513C19.789 9.94058 20.2254 9.40135 20.5352 8.89535C20.8451 8.38935 21 7.98301 21 7.67635C21 7.41568 20.8838 7.07834 20.6514 6.66434C20.4242 6.24523 20.0911 5.79034 19.6522 5.29967C19.2184 4.809 18.6916 4.32089 18.0719 3.83533C17.4522 3.34977 16.7525 2.90511 15.9727 2.50133C15.1929 2.09755 14.3434 1.77299 13.4242 1.52766C12.5101 1.28232 11.5367 1.15966 10.5039 1.15966C9.84287 1.15966 9.20508 1.21332 8.59055 1.32066C7.97602 1.42288 7.38731 1.56599 6.82441 1.74999L8.83843 3.74333C9.09147 3.636 9.35743 3.55422 9.63629 3.498C9.91515 3.43666 10.2044 3.406 10.5039 3.406C11.1029 3.406 11.6632 3.51589 12.1848 3.73566C12.7116 3.95033 13.1712 4.25444 13.5636 4.648C13.9613 5.03645 14.2711 5.48878 14.4932 6.00501C14.7204 6.52123 14.834 7.07834 14.834 7.67635C14.834 7.96768 14.803 8.25135 14.7411 8.52735C14.6791 8.80335 14.5887 9.06402 14.4699 9.30935L17.2586 12.1ZM8.03282 7.50001C8.03282 7.94979 8.14385 8.35868 8.36591 8.72668C8.59313 9.09468 8.89265 9.38858 9.26447 9.60835C9.64145 9.82813 10.0572 9.93802 10.5116 9.93802C10.5633 9.93802 10.6149 9.93802 10.6666 9.93802C10.7182 9.93291 10.7724 9.9278 10.8292 9.92269L8.04832 7.17034C8.04315 7.22657 8.03799 7.28279 8.03282 7.33901C8.03282 7.39523 8.03282 7.4489 8.03282 7.50001ZM12.9672 7.51535C12.9672 7.07068 12.8561 6.66434 12.6341 6.29634C12.4172 5.92323 12.1228 5.62934 11.751 5.41467C11.3792 5.19489 10.9635 5.085 10.5039 5.085C10.4522 5.085 10.4006 5.08756 10.349 5.09267C10.3025 5.09267 10.256 5.09523 10.2095 5.10034L12.9517 7.81435C12.9568 7.76835 12.9594 7.71979 12.9594 7.66868C12.9646 7.61757 12.9672 7.56646 12.9672 7.51535ZM16.5304 14.3157C16.6492 14.4333 16.7886 14.4946 16.9487 14.4997C17.114 14.5048 17.256 14.4435 17.3748 14.3157C17.5039 14.1879 17.5658 14.0448 17.5607 13.8864C17.5555 13.733 17.4935 13.5976 17.3748 13.48L4.42309 0.668987C4.30948 0.556542 4.16746 0.500319 3.99705 0.500319C3.83179 0.495208 3.68978 0.551431 3.571 0.668987C3.45739 0.781432 3.40059 0.921988 3.40059 1.09065C3.40059 1.25421 3.45739 1.39221 3.571 1.50466L16.5304 14.3157Z"
		fill="currentColor"
	/>
</svg>
