<svg
	color="rgb(var(--foreground, 0, 0, 0))"
	viewBox="0 0 21 13"
	fill="none"
	xmlns="http://www.w3.org/2000/svg"
>
	<path
		d="M10.5039 13C11.5367 13 12.5127 12.8776 13.4319 12.6329C14.3512 12.3882 15.2007 12.0645 15.9804 11.6618C16.7602 11.259 17.4574 10.8155 18.0719 10.3312C18.6916 9.84686 19.2184 9.36 19.6522 8.87059C20.0911 8.38118 20.4242 7.93 20.6514 7.51706C20.8838 7.09902 21 6.76 21 6.5C21 6.24 20.8838 5.90353 20.6514 5.49059C20.4242 5.07255 20.0911 4.61882 19.6522 4.12941C19.2184 3.64 18.6916 3.15314 18.0719 2.66882C17.4522 2.18451 16.7525 1.74098 15.9727 1.33824C15.1929 0.93549 14.3434 0.611765 13.4242 0.367059C12.5101 0.122353 11.5367 0 10.5039 0C9.48136 0 8.51309 0.122353 7.59903 0.367059C6.68498 0.611765 5.83806 0.93549 5.05827 1.33824C4.27848 1.74098 3.57616 2.18451 2.9513 2.66882C2.3316 3.15314 1.79969 3.64 1.35557 4.12941C0.916622 4.61882 0.580967 5.07255 0.34858 5.49059C0.116193 5.90353 0 6.24 0 6.5C0 6.76 0.116193 7.09902 0.34858 7.51706C0.580967 7.93 0.916622 8.38118 1.35557 8.87059C1.79969 9.36 2.3316 9.84686 2.9513 10.3312C3.57616 10.8155 4.27848 11.259 5.05827 11.6618C5.83806 12.0645 6.68498 12.3882 7.59903 12.6329C8.51309 12.8776 9.48136 13 10.5039 13ZM10.5039 10.7594C9.89966 10.7594 9.33419 10.6498 8.80744 10.4306C8.28586 10.2063 7.82625 9.89784 7.42861 9.50529C7.03614 9.10765 6.72887 8.65392 6.50681 8.14412C6.28476 7.62922 6.17114 7.08118 6.16598 6.5C6.16082 5.90353 6.26926 5.34784 6.49132 4.83294C6.71854 4.31804 7.02839 3.86686 7.42087 3.47941C7.81851 3.08686 8.2807 2.78353 8.80744 2.56941C9.33419 2.3502 9.89966 2.24059 10.5039 2.24059C11.1029 2.24059 11.6632 2.3502 12.1848 2.56941C12.7115 2.78353 13.1711 3.08686 13.5636 3.47941C13.9613 3.86686 14.2711 4.31804 14.4932 4.83294C14.7204 5.34784 14.834 5.90353 14.834 6.5C14.834 7.08118 14.7204 7.62922 14.4932 8.14412C14.2711 8.65392 13.9613 9.10765 13.5636 9.50529C13.1711 9.89784 12.7115 10.2063 12.1848 10.4306C11.6632 10.6498 11.1029 10.7594 10.5039 10.7594ZM10.5039 8.03706C10.9325 8.03706 11.3017 7.88667 11.6116 7.58588C11.9214 7.28 12.0763 6.91804 12.0763 6.5C12.0763 6.07686 11.9214 5.7149 11.6116 5.41412C11.3017 5.10824 10.9325 4.95529 10.5039 4.95529C10.0701 4.95529 9.69826 5.10824 9.38841 5.41412C9.07856 5.7149 8.92364 6.07686 8.92364 6.5C8.92364 6.91804 9.07856 7.28 9.38841 7.58588C9.69826 7.88667 10.0701 8.03706 10.5039 8.03706Z"
		fill="currentColor"
	/>
</svg>
