<svg
	color="rgb(var(--foreground, 0, 0, 0))"
	viewBox="0 0 21 15"
	fill="none"
	xmlns="http://www.w3.org/2000/svg"
>
	<path
		d="M10.5038 14.2467C11.2159 14.2467 11.8997 14.1879 12.5554 14.0704C13.2111 13.9528 13.8361 13.7918 14.4303 13.5874L13.4237 12.583C12.9678 12.721 12.4965 12.8309 12.0099 12.9127C11.5232 12.9945 11.0212 13.0354 10.5038 13.0354C9.65862 13.0354 8.84669 12.9306 8.06806 12.721C7.28943 12.5115 6.55946 12.2355 5.87816 11.893C5.19685 11.5455 4.57958 11.1672 4.02634 10.7584C3.47311 10.3495 2.99415 9.94569 2.58946 9.54702C2.1899 9.14324 1.88255 8.77524 1.6674 8.44302C1.45225 8.11079 1.34468 7.85524 1.34468 7.67635C1.34468 7.54346 1.4292 7.34157 1.59824 7.07068C1.77241 6.79979 2.01829 6.49056 2.33589 6.14301C2.65862 5.79545 3.04537 5.43512 3.49616 5.062C3.95207 4.68889 4.46432 4.33367 5.03293 3.99633L4.08013 3.04566C3.43981 3.43922 2.86608 3.85833 2.35895 4.303C1.85693 4.74256 1.4292 5.177 1.07574 5.60634C0.727406 6.03567 0.461032 6.43179 0.276619 6.79468C0.0922064 7.15246 0 7.44635 0 7.67635C0 7.93701 0.115258 8.27946 0.345774 8.70368C0.581412 9.1228 0.919502 9.58024 1.36004 10.076C1.80059 10.5667 2.33077 11.0574 2.9506 11.548C3.57044 12.0387 4.26967 12.4885 5.0483 12.8974C5.83205 13.3011 6.67984 13.6257 7.59166 13.871C8.5086 14.1215 9.47933 14.2467 10.5038 14.2467ZM10.5038 1.10599C9.83278 1.10599 9.19246 1.15966 8.58288 1.26699C7.97841 1.37432 7.39188 1.52255 6.82327 1.71166L7.83754 2.71599C8.26272 2.59333 8.69301 2.49622 9.12843 2.42466C9.56897 2.3531 10.0274 2.31733 10.5038 2.31733C11.3439 2.31733 12.1533 2.42722 12.9319 2.64699C13.7106 2.86166 14.4405 3.14788 15.1218 3.50566C15.8031 3.85833 16.4204 4.24167 16.9737 4.65567C17.5269 5.06967 18.0033 5.48112 18.4029 5.89001C18.8024 6.29379 19.1098 6.65412 19.3249 6.97101C19.5452 7.2879 19.6553 7.52301 19.6553 7.67635C19.6553 7.83479 19.5734 8.04946 19.4094 8.32035C19.2506 8.58613 19.0176 8.88768 18.7102 9.22502C18.408 9.55724 18.0443 9.89969 17.6191 10.2524C17.1939 10.605 16.715 10.9449 16.1822 11.272L17.1273 12.215C17.7318 11.8215 18.2722 11.4075 18.7486 10.973C19.2302 10.5386 19.6374 10.1144 19.9704 9.70035C20.3033 9.28124 20.5569 8.89535 20.7311 8.54268C20.9104 8.19001 21 7.90124 21 7.67635C21 7.41568 20.8847 7.07579 20.6542 6.65668C20.4237 6.23245 20.0907 5.77501 19.6553 5.28434C19.2199 4.78856 18.6923 4.29533 18.0724 3.80467C17.4577 3.314 16.7611 2.86677 15.9824 2.46299C15.2038 2.0541 14.3535 1.72699 13.4314 1.48166C12.5145 1.23121 11.5386 1.10599 10.5038 1.10599ZM10.5038 11.9697C10.8419 11.9697 11.1672 11.9314 11.4797 11.8547C11.7973 11.7729 12.0995 11.663 12.3864 11.525L6.62349 5.77501C6.48006 6.06123 6.36992 6.36534 6.29308 6.68734C6.21625 7.00423 6.17783 7.3339 6.17783 7.67635C6.18295 8.25902 6.29565 8.81102 6.51592 9.33235C6.73619 9.84858 7.04354 10.306 7.43798 10.7047C7.83242 11.0982 8.29089 11.4075 8.81339 11.6324C9.33589 11.8573 9.89938 11.9697 10.5038 11.9697ZM14.4457 9.35535C14.5635 9.0998 14.6531 8.83146 14.7146 8.55035C14.7812 8.26413 14.8145 7.97279 14.8145 7.67635C14.8145 7.07834 14.7018 6.51868 14.4764 5.99734C14.2561 5.47601 13.9488 5.02111 13.5543 4.63267C13.1599 4.23911 12.7014 3.93244 12.1789 3.71266C11.6564 3.49289 11.0981 3.383 10.5038 3.383C10.2016 3.383 9.90706 3.41366 9.6202 3.475C9.33846 3.53633 9.06952 3.62322 8.81339 3.73566L14.4457 9.35535ZM16.4819 14.3157C16.5997 14.4333 16.738 14.4946 16.8968 14.4997C17.0607 14.5048 17.2016 14.4435 17.3194 14.3157C17.4475 14.1879 17.509 14.0448 17.5038 13.8864C17.4987 13.733 17.4372 13.5976 17.3194 13.48L4.47201 0.668987C4.35931 0.556542 4.21844 0.500319 4.0494 0.500319C3.88547 0.495208 3.7446 0.551431 3.62678 0.668987C3.51409 0.781432 3.45774 0.921988 3.45774 1.09065C3.45774 1.25421 3.51409 1.39221 3.62678 1.50466L16.4819 14.3157Z"
		fill="currentColor"
	/>
</svg>
