<svg
	color="rgb(var(--foreground, 0, 0, 0))"
	viewBox="0 0 21 13"
	fill="none"
	xmlns="http://www.w3.org/2000/svg"
>
	<path
		d="M10.5038 13C11.5386 13 12.5144 12.8761 13.4314 12.6284C14.3535 12.3856 15.2038 12.0646 15.9824 11.6651C16.7611 11.2606 17.4577 10.8156 18.0724 10.3302C18.6923 9.84481 19.2199 9.35939 19.6553 8.87398C20.0907 8.38351 20.4237 7.93096 20.6542 7.51634C20.8847 7.09665 21 6.75788 21 6.5C21 6.24212 20.8847 5.90587 20.6542 5.49125C20.4237 5.07157 20.0907 4.61902 19.6553 4.13361C19.2199 3.64313 18.6923 3.15519 18.0724 2.66978C17.4577 2.18436 16.7585 1.74193 15.9747 1.34247C15.1961 0.937962 14.3458 0.614352 13.4237 0.371645C12.5068 0.123882 11.5335 0 10.5038 0C9.48444 0 8.51629 0.123882 7.59935 0.371645C6.68753 0.614352 5.83974 0.937962 5.05599 1.34247C4.27735 1.74193 3.57556 2.18436 2.95061 2.66978C2.33077 3.15519 1.80059 3.64313 1.36004 4.13361C0.919503 4.61902 0.581413 5.07157 0.345774 5.49125C0.115258 5.90587 0 6.24212 0 6.5C0 6.75788 0.115258 7.09665 0.345774 7.51634C0.581413 7.93096 0.919503 8.38351 1.36004 8.87398C1.80059 9.35939 2.33077 9.84481 2.95061 10.3302C3.57044 10.8156 4.26967 11.2606 5.0483 11.6651C5.83206 12.0646 6.67984 12.3856 7.59166 12.6284C8.50861 12.8761 9.47932 13 10.5038 13ZM10.5038 11.8016C9.65861 11.8016 8.84668 11.698 8.06805 11.4907C7.28942 11.2834 6.55946 11.0103 5.87816 10.6715C5.19686 10.3277 4.57959 9.95352 4.02635 9.54901C3.47311 9.1445 2.99415 8.74504 2.58946 8.35064C2.1899 7.95119 1.88255 7.58713 1.6674 7.25846C1.45225 6.92979 1.34468 6.67697 1.34468 6.5C1.34468 6.34831 1.45225 6.11571 1.6674 5.80222C1.88255 5.48872 2.1899 5.13224 2.58946 4.73279C2.99415 4.32828 3.47311 3.92124 4.02635 3.51167C4.57959 3.1021 5.19686 2.72287 5.87816 2.37398C6.55946 2.02003 7.28942 1.73687 8.06805 1.5245C8.84668 1.30708 9.65861 1.19837 10.5038 1.19837C11.3439 1.19837 12.1507 1.30708 12.9243 1.5245C13.7029 1.73687 14.4329 2.02003 15.1142 2.37398C15.7955 2.72287 16.4127 3.1021 16.966 3.51167C17.5243 3.92124 18.0033 4.32828 18.4029 4.73279C18.8024 5.13224 19.1098 5.48872 19.3249 5.80222C19.5452 6.11571 19.6553 6.34831 19.6553 6.5C19.6553 6.67697 19.5452 6.92979 19.3249 7.25846C19.1098 7.58713 18.8024 7.95119 18.4029 8.35064C18.0033 8.74504 17.5243 9.1445 16.966 9.54901C16.4127 9.95352 15.7955 10.3277 15.1142 10.6715C14.4329 11.0103 13.7029 11.2834 12.9243 11.4907C12.1507 11.698 11.3439 11.8016 10.5038 11.8016ZM10.5038 10.7474C11.0981 10.7474 11.6564 10.6361 12.1789 10.4137C12.7014 10.1912 13.1599 9.88526 13.5543 9.49592C13.9488 9.10152 14.2561 8.64897 14.4764 8.13827C14.7018 7.62252 14.8145 7.07643 14.8145 6.5C14.8145 5.9084 14.7018 5.35473 14.4764 4.83897C14.2561 4.32322 13.9488 3.8732 13.5543 3.48891C13.1599 3.09957 12.7014 2.79619 12.1789 2.57876C11.6564 2.36134 11.0981 2.25263 10.5038 2.25263C9.89937 2.25263 9.33589 2.36134 8.81338 2.57876C8.29088 2.79619 7.83242 3.09957 7.43799 3.48891C7.04355 3.8732 6.73363 4.32322 6.50824 4.83897C6.28797 5.35473 6.17783 5.9084 6.17783 6.5C6.18295 7.07643 6.29565 7.62252 6.51592 8.13827C6.74131 8.64897 7.05123 9.10152 7.44567 9.49592C7.84011 9.88526 8.296 10.1912 8.81338 10.4137C9.33589 10.6361 9.89937 10.7474 10.5038 10.7474ZM10.5038 7.91074C10.1043 7.91074 9.76362 7.77168 9.48188 7.49358C9.20014 7.21548 9.05927 6.88429 9.05927 6.5C9.05927 6.11066 9.20014 5.77946 9.48188 5.50642C9.76362 5.22832 10.1043 5.08926 10.5038 5.08926C10.8983 5.08926 11.2364 5.22832 11.5181 5.50642C11.7998 5.77946 11.9407 6.11066 11.9407 6.5C11.9407 6.88429 11.7998 7.21548 11.5181 7.49358C11.2364 7.77168 10.8983 7.91074 10.5038 7.91074Z"
		fill="currentColor"
	/>
</svg>
