<svg
	color="rgb(var(--foreground, 0, 0, 0))"
	viewBox="0 0 10 19"
	fill="none"
	xmlns="http://www.w3.org/2000/svg"
>
	<path
		d="M5.00391 0C4.30435 0 3.65178 0.125731 3.04619 0.377195C2.44583 0.628658 1.91594 0.980193 1.45653 1.4318C1.00234 1.87827 0.644741 2.39916 0.383712 2.99446C0.127904 3.58463 0 4.22099 0 4.90353C0 5.5912 0.130514 6.24039 0.391543 6.85108C0.657793 7.45665 1.03105 7.99037 1.51134 8.45224C1.99163 8.90898 2.55807 9.26051 3.21064 9.50684V17.1046C3.21064 17.2021 3.2263 17.2894 3.25762 17.3663C3.29417 17.4433 3.34637 17.5177 3.41424 17.5896L4.722 18.8828C4.78986 18.9495 4.87861 18.988 4.98825 18.9983C5.1031 19.0086 5.20229 18.9726 5.28582 18.8905L7.7682 16.4503C7.85173 16.3682 7.89089 16.2758 7.88567 16.1732C7.88567 16.0705 7.84651 15.9782 7.7682 15.8961L6.22552 14.4027L8.33986 12.332C8.41817 12.255 8.45471 12.1652 8.44949 12.0625C8.44949 11.9599 8.40772 11.8675 8.32419 11.7854L6.23335 9.71468C7.44453 9.24255 8.37379 8.58567 9.02114 7.74403C9.67371 6.9024 10 5.95557 10 4.90353C10 4.22612 9.86949 3.59233 9.60846 3.00216C9.35265 2.40686 8.99504 1.88597 8.53563 1.4395C8.08144 0.98789 7.55155 0.636355 6.94596 0.384892C6.34038 0.128297 5.69302 0 5.00391 0ZM5.00391 4.70338C4.61759 4.70338 4.28869 4.56996 4.01722 4.3031C3.74575 4.03624 3.61001 3.71293 3.61001 3.33317C3.61001 2.95341 3.74314 2.6301 4.00939 2.36324C4.28086 2.09638 4.61236 1.96295 5.00391 1.96295C5.38501 1.96295 5.7113 2.09895 5.98277 2.37094C6.25946 2.6378 6.3978 2.95854 6.3978 3.33317C6.3978 3.71293 6.25946 4.03624 5.98277 4.3031C5.7113 4.56996 5.38501 4.70338 5.00391 4.70338Z"
		fill="currentColor"
	/>
</svg>
