<svg
	color="rgb(var(--foreground, 0, 0, 0))"
	viewBox="0 0 10 19"
	fill="none"
	xmlns="http://www.w3.org/2000/svg"
>
	<path
		d="M4.48018 18.7855C4.63974 18.9177 4.81426 18.9889 5.00374 18.999C5.1982 19.0092 5.37023 18.9406 5.51982 18.7932L7.83097 16.4373C7.97557 16.2849 8.04538 16.107 8.04039 15.9037C8.04039 15.7004 7.96809 15.525 7.82349 15.3776L6.66417 14.2035L8.35452 12.4881C8.49913 12.3407 8.56894 12.1654 8.56395 11.9621C8.56395 11.7588 8.49165 11.5809 8.34705 11.4284L6.78384 9.82734C7.81102 9.32416 8.60384 8.66087 9.1623 7.83747C9.72077 7.01408 10 6.09666 10 5.08521C10 4.3838 9.87036 3.7256 9.61107 3.11059C9.35178 2.49559 8.99277 1.95429 8.53403 1.48668C8.08028 1.01908 7.54924 0.655664 6.94091 0.396448C6.33757 0.132149 5.69185 0 5.00374 0C4.30566 0 3.65495 0.132149 3.05161 0.396448C2.44827 0.655664 1.91723 1.01908 1.45849 1.48668C0.999751 1.9492 0.640738 2.48797 0.381451 3.10297C0.12715 3.71797 0 4.37872 0 5.08521C0 5.76629 0.119671 6.41179 0.359013 7.02171C0.603341 7.62654 0.947395 8.16531 1.39117 8.638C1.83495 9.11068 2.36101 9.48426 2.96933 9.75872V16.9558C2.96933 17.0828 2.98928 17.2125 3.02917 17.3446C3.07405 17.4818 3.15133 17.5987 3.26103 17.6953L4.48018 18.7855ZM5.00374 17.581L4.17352 16.7423V8.87434C3.59013 8.74219 3.07405 8.49314 2.62528 8.12719C2.17651 7.76123 1.82498 7.3165 1.57068 6.79299C1.32137 6.26947 1.19671 5.70021 1.19671 5.08521C1.19671 4.55153 1.29394 4.05343 1.48841 3.59091C1.68786 3.1233 1.95961 2.71414 2.30366 2.36344C2.65271 2.00765 3.05659 1.73065 3.51533 1.53242C3.97906 1.32912 4.47519 1.22746 5.00374 1.22746C5.70182 1.22746 6.33757 1.40028 6.911 1.7459C7.4894 2.09152 7.94814 2.55658 8.28721 3.14109C8.62628 3.7256 8.79581 4.37364 8.79581 5.08521C8.79581 5.69005 8.66617 6.25676 8.40688 6.78536C8.15258 7.30888 7.79107 7.75869 7.32236 8.13481C6.85864 8.51093 6.31513 8.77523 5.69185 8.92771V10.4678L7.15782 11.9697L5.57218 13.5631V14.8287L6.63426 15.896L5.00374 17.581ZM5.00374 5.15383C5.37771 5.15383 5.69683 5.01914 5.96111 4.74975C6.22538 4.48037 6.35752 4.15254 6.35752 3.76626C6.35752 3.38506 6.22538 3.05977 5.96111 2.79039C5.69683 2.521 5.37771 2.38631 5.00374 2.38631C4.62478 2.38631 4.30317 2.521 4.03889 2.79039C3.77462 3.05468 3.64248 3.37997 3.64248 3.76626C3.64248 4.15254 3.77462 4.48037 4.03889 4.74975C4.30317 5.01914 4.62478 5.15383 5.00374 5.15383Z"
		fill="currentColor"
	/>
</svg>
