<svg
	color="rgb(var(--foreground, 0, 0, 0))"
	viewBox="0 0 11 17"
	fill="none"
	xmlns="http://www.w3.org/2000/svg"
>
	<path
		d="M1.81319 16.5H9.18681C9.77778 16.5 10.2264 16.3369 10.5326 16.0107C10.8442 15.6845 11 15.2006 11 14.5591V8.94037C11 8.29884 10.8442 7.8177 10.5326 7.49694C10.2264 7.17074 9.77778 7.00764 9.18681 7.00764H1.81319C1.22222 7.00764 0.77094 7.17074 0.459341 7.49694C0.153114 7.8177 0 8.29884 0 8.94037V14.5591C0 15.2006 0.153114 15.6845 0.459341 16.0107C0.77094 16.3369 1.22222 16.5 1.81319 16.5ZM1.41026 7.63558H2.69158V4.8792C2.69158 4.19419 2.82051 3.61791 3.07839 3.15036C3.33626 2.68281 3.67741 2.32943 4.10183 2.09021C4.53162 1.851 4.99634 1.7314 5.49597 1.7314C6.00098 1.7314 6.46569 1.851 6.89011 2.09021C7.3199 2.32943 7.66374 2.68281 7.92161 3.15036C8.18486 3.61791 8.31648 4.19419 8.31648 4.8792V7.63558H9.58974V5.05861C9.58974 4.03653 9.39365 3.18841 9.00147 2.51427C8.61465 1.84013 8.10965 1.33724 7.48645 1.00561C6.86325 0.668536 6.19976 0.5 5.49597 0.5C4.79756 0.5 4.13675 0.668536 3.51355 1.00561C2.89035 1.33724 2.38266 1.84013 1.99048 2.51427C1.60366 3.18841 1.41026 4.03653 1.41026 5.05861V7.63558Z"
		fill="currentColor"
	/>
</svg>
