<svg
	color="rgb(var(--foreground, 0, 0, 0))"
	viewBox="0 0 15 17"
	fill="none"
	xmlns="http://www.w3.org/2000/svg"
>
	<path
		d="M7.33547 1.68606C7.83842 1.68606 8.30123 1.80126 8.72392 2.03166C9.15195 2.26207 9.49438 2.60244 9.7512 3.05277C10.0134 3.50311 10.1445 4.05817 10.1445 4.71797V6.76019H7.23114L8.45104 7.94624H10.9711C11.1477 7.94624 11.2814 7.99599 11.3724 8.09548C11.4687 8.19498 11.5169 8.3416 11.5169 8.53535V10.9467L12.817 12.2113V8.62175C12.817 8.07716 12.6966 7.653 12.4559 7.34929C12.2204 7.04034 11.8727 6.85444 11.4125 6.7916V4.88292C11.4125 3.89846 11.2172 3.08157 10.8266 2.43225C10.4414 1.78293 9.93847 1.29856 9.31782 0.979136C8.69716 0.659712 8.03638 0.5 7.33547 0.5C6.78438 0.5 6.25736 0.599493 5.75441 0.798478C5.25147 0.997464 4.80738 1.29332 4.42215 1.68606C4.03692 2.07879 3.74799 2.5684 3.55538 3.15488L4.58266 4.16814C4.65222 3.62878 4.81808 3.17583 5.08026 2.80928C5.34243 2.43749 5.66881 2.15734 6.05939 1.96883C6.45532 1.78031 6.88069 1.68606 7.33547 1.68606ZM3.66774 15.903H11.0112C11.1985 15.903 11.3697 15.8821 11.5249 15.8402C11.6854 15.7983 11.8245 15.7407 11.9422 15.6674L10.8587 14.607C10.8266 14.6384 10.7865 14.6646 10.7384 14.6856C10.6956 14.7065 10.6447 14.717 10.5859 14.717H3.70787C3.53665 14.717 3.40289 14.6646 3.30658 14.5599C3.21027 14.4604 3.16212 14.3138 3.16212 14.12V8.53535C3.16212 8.3416 3.21027 8.19498 3.30658 8.09548C3.40289 7.99599 3.53665 7.94624 3.70787 7.94624H4.04494L2.9695 6.89372H2.89727C2.57089 6.99845 2.31675 7.19743 2.13483 7.49067C1.95292 7.78391 1.86196 8.16094 1.86196 8.62175V14.0336C1.86196 14.6568 2.01445 15.1228 2.31942 15.4318C2.62975 15.7459 3.07919 15.903 3.66774 15.903ZM13.9486 16.3193C14.0663 16.4398 14.2108 16.5 14.382 16.5C14.5586 16.5 14.7057 16.4398 14.8234 16.3193C14.9411 16.2041 15 16.0628 15 15.8952C15 15.7276 14.9411 15.5836 14.8234 15.4632L1.05939 2.0081C0.93633 1.88766 0.789192 1.82744 0.617978 1.82744C0.446763 1.82744 0.299625 1.88766 0.176565 2.0081C0.058855 2.1233 0 2.2673 0 2.44011C0 2.60767 0.058855 2.74906 0.176565 2.86426L13.9486 16.3193Z"
		fill="currentColor"
	/>
</svg>
