<svg
	color="rgb(var(--foreground, 0, 0, 0))"
	viewBox="0 0 16 15"
	fill="none"
	xmlns="http://www.w3.org/2000/svg"
>
	<path
		d="M1.74927 15H8.86298C9.43312 15 9.8659 14.8469 10.1613 14.5408C10.4619 14.2398 10.6123 13.7857 10.6123 13.1786V7.90561C10.6123 7.30357 10.4619 6.85204 10.1613 6.55102C9.8659 6.2449 9.43312 6.09184 8.86298 6.09184H1.74927C1.17914 6.09184 0.743765 6.2449 0.443149 6.55102C0.147716 6.85204 0 7.30357 0 7.90561V13.1786C0 13.7857 0.147716 14.2398 0.443149 14.5408C0.743765 14.8469 1.17914 15 1.74927 15ZM8.10885 6.68878H9.33723V4.10969C9.33723 3.46684 9.46162 2.92602 9.71041 2.48724C9.96438 2.04847 10.2961 1.71684 10.7055 1.49235C11.115 1.26786 11.5633 1.15561 12.0505 1.15561C12.5326 1.15561 12.9783 1.26786 13.3878 1.49235C13.8024 1.71684 14.1341 2.04847 14.3829 2.48724C14.6369 2.92602 14.7638 3.46684 14.7638 4.10969V5.80867C14.7638 6.03827 14.8235 6.20918 14.9427 6.32143C15.0619 6.43367 15.2096 6.4898 15.3858 6.4898C15.5517 6.4898 15.6942 6.43622 15.8134 6.32908C15.9378 6.22194 16 6.04847 16 5.80867V4.27041C16 3.55102 15.8912 2.92347 15.6735 2.38775C15.4558 1.85204 15.1603 1.40816 14.7872 1.05612C14.414 0.69898 13.9916 0.433673 13.5199 0.260204C13.0483 0.0867347 12.5585 0 12.0505 0C11.5426 0 11.0528 0.0867347 10.5812 0.260204C10.1095 0.433673 9.68708 0.69898 9.31391 1.05612C8.94073 1.40816 8.6453 1.85204 8.42761 2.38775C8.2151 2.92347 8.10885 3.55102 8.10885 4.27041V6.68878Z"
		fill="currentColor"
	/>
</svg>
