<svg
	color="rgb(var(--foreground, 0, 0, 0))"
	viewBox="0 0 15 17"
	fill="none"
	xmlns="http://www.w3.org/2000/svg"
>
	<path
		d="M7.33548 1.68606C7.83842 1.68606 8.30124 1.80126 8.72392 2.03166C9.15196 2.26207 9.49439 2.60244 9.75121 3.05277C10.0134 3.50311 10.1445 4.05817 10.1445 4.71797V6.76019H7.23115L12.817 12.2113V8.62175C12.817 8.07716 12.6966 7.653 12.4559 7.34929C12.2204 7.04034 11.8727 6.85444 11.4125 6.7916V4.88292C11.4125 3.89846 11.2172 3.08157 10.8266 2.43225C10.4414 1.78293 9.93848 1.29856 9.31782 0.979136C8.69717 0.659712 8.03639 0.5 7.33548 0.5C6.78439 0.5 6.25737 0.599493 5.75442 0.798478C5.25148 0.997464 4.80739 1.29332 4.42216 1.68606C4.03693 2.07879 3.74801 2.5684 3.55539 3.15488L4.58268 4.16814C4.65223 3.62878 4.8181 3.17583 5.08027 2.80928C5.34244 2.43749 5.66882 2.15734 6.0594 1.96883C6.45533 1.78031 6.88069 1.68606 7.33548 1.68606ZM3.66775 15.903H11.0112C11.1985 15.903 11.3697 15.8821 11.5249 15.8402C11.6854 15.7983 11.8245 15.7407 11.9422 15.6674L2.96952 6.89372H2.89728C2.57091 6.99845 2.31676 7.19743 2.13485 7.49067C1.95293 7.78391 1.86197 8.16094 1.86197 8.62175V14.0336C1.86197 14.6568 2.01446 15.1228 2.31944 15.4318C2.62976 15.7459 3.0792 15.903 3.66775 15.903ZM13.9486 16.3193C14.0663 16.4398 14.2108 16.5 14.382 16.5C14.5586 16.5 14.7057 16.4398 14.8234 16.3193C14.9411 16.2041 15 16.0628 15 15.8952C15 15.7276 14.9411 15.5836 14.8234 15.4632L1.0594 2.0081C0.936344 1.88766 0.789207 1.82744 0.617993 1.82744C0.446778 1.82744 0.299625 1.88766 0.176565 2.0081C0.0588549 2.1233 0 2.2673 0 2.44011C0 2.60767 0.0588549 2.74906 0.176565 2.86426L13.9486 16.3193Z"
		fill="currentColor"
	/>
</svg>
