<svg
	color="rgb(var(--foreground, 0, 0, 0))"
	viewBox="0 0 11 17"
	fill="none"
	xmlns="http://www.w3.org/2000/svg"
>
	<path
		d="M1.81319 16.5H9.18681C9.77778 16.5 10.2264 16.3368 10.5326 16.0105C10.8442 15.6895 11 15.2054 11 14.5581V8.93651C11 8.29466 10.8442 7.81328 10.5326 7.49235C10.2264 7.16599 9.77778 7.0028 9.18681 7.0028H1.81319C1.22222 7.0028 0.77094 7.16599 0.459341 7.49235C0.153114 7.81328 0 8.29466 0 8.93651V14.5581C0 15.2054 0.153114 15.6895 0.459341 16.0105C0.77094 16.3368 1.22222 16.5 1.81319 16.5ZM1.85348 15.268C1.68156 15.268 1.54725 15.2136 1.45055 15.1048C1.35385 15.0014 1.30549 14.8491 1.30549 14.6479V8.84676C1.30549 8.6455 1.35385 8.4932 1.45055 8.38985C1.54725 8.2865 1.68156 8.23483 1.85348 8.23483H9.14652C9.32381 8.23483 9.45812 8.2865 9.54945 8.38985C9.64615 8.4932 9.69451 8.6455 9.69451 8.84676V14.6479C9.69451 14.8491 9.64615 15.0014 9.54945 15.1048C9.45812 15.2136 9.32381 15.268 9.14652 15.268H1.85348ZM1.41026 7.63106H2.69158V4.88144C2.69158 4.19607 2.82051 3.6195 3.07839 3.15171C3.33626 2.68392 3.67741 2.33036 4.10183 2.09102C4.53162 1.85169 4.99634 1.73202 5.49597 1.73202C6.00098 1.73202 6.46569 1.85169 6.89011 2.09102C7.3199 2.33036 7.66374 2.68392 7.92161 3.15171C8.18486 3.6195 8.31648 4.19607 8.31648 4.88144V7.63106H9.58974V5.05278C9.58974 4.03017 9.39365 3.18162 9.00147 2.50714C8.61465 1.83265 8.10965 1.32951 7.48645 0.997705C6.86325 0.665902 6.19976 0.5 5.49597 0.5C4.79756 0.5 4.13675 0.665902 3.51355 0.997705C2.89035 1.32951 2.38266 1.83265 1.99048 2.50714C1.60366 3.18162 1.41026 4.03017 1.41026 5.05278V7.63106Z"
		fill="currentColor"
	/>
</svg>
