<svg
	color="rgb(var(--foreground, 0, 0, 0))"
	viewBox="0 0 18 19"
	fill="none"
	xmlns="http://www.w3.org/2000/svg"
>
	<path
		d="M4.20077 16.3758H5.92071C6.07923 16.3758 6.21133 16.4313 6.31701 16.5423L7.53761 17.755C8.03959 18.2569 8.52836 18.5053 9.00392 18.5C9.47948 18.5 9.96561 18.2516 10.4623 17.755L11.6829 16.5423C11.7939 16.4313 11.9286 16.3758 12.0871 16.3758H13.7991C14.5072 16.3758 15.0303 16.2067 15.3685 15.8686C15.7067 15.5357 15.8758 15.0126 15.8758 14.2992V12.5872C15.8758 12.4287 15.9312 12.294 16.0422 12.183L17.2549 10.9624C17.7569 10.4657 18.0052 9.97956 17.9999 9.504C17.9999 9.02844 17.7516 8.53967 17.2549 8.0377L16.0422 6.81709C15.9312 6.70613 15.8758 6.57403 15.8758 6.42079V4.70085C15.8758 3.99808 15.7067 3.47761 15.3685 3.13944C15.0356 2.79598 14.5125 2.62425 13.7991 2.62425H12.0871C11.9286 2.62425 11.7939 2.57141 11.6829 2.46573L10.4623 1.25305C9.96561 0.745787 9.47948 0.494798 9.00392 0.500082C8.52836 0.500082 8.03959 0.751071 7.53761 1.25305L6.31701 2.46573C6.21133 2.57141 6.07923 2.62425 5.92071 2.62425H4.20077C3.49272 2.62425 2.9696 2.79333 2.63143 3.13151C2.29325 3.4644 2.12416 3.98752 2.12416 4.70085V6.42079C2.12416 6.57403 2.07132 6.70613 1.96564 6.81709L0.752969 8.0377C0.25099 8.53967 0 9.02844 0 9.504C0 9.97956 0.25099 10.4657 0.752969 10.9624L1.96564 12.183C2.07132 12.294 2.12416 12.4287 2.12416 12.5872V14.2992C2.12416 15.0073 2.29325 15.5304 2.63143 15.8686C2.9696 16.2067 3.49272 16.3758 4.20077 16.3758ZM6.34079 12.8329C6.16113 12.8329 6.0079 12.7695 5.88108 12.6427C5.75427 12.5106 5.69086 12.3547 5.69086 12.1751C5.69086 11.9954 5.75427 11.8422 5.88108 11.7154L8.08451 9.51193L5.88108 7.31643C5.75427 7.18433 5.69086 7.0311 5.69086 6.85672C5.69086 6.67178 5.75427 6.51855 5.88108 6.39702C6.0079 6.2702 6.16113 6.20679 6.34079 6.20679C6.51516 6.20679 6.6684 6.26756 6.8005 6.38909L9.01185 8.59251L11.239 6.38116C11.3659 6.25435 11.5165 6.19094 11.6908 6.19094C11.8705 6.19094 12.0237 6.25435 12.1505 6.38116C12.2774 6.50798 12.3408 6.66122 12.3408 6.84087C12.3408 7.02053 12.2774 7.1764 12.1505 7.3085L9.93919 9.51193L12.1426 11.7074C12.2694 11.8237 12.3328 11.9796 12.3328 12.1751C12.3328 12.3547 12.2694 12.5106 12.1426 12.6427C12.0158 12.7695 11.8599 12.8329 11.675 12.8329C11.4848 12.8329 11.3289 12.7695 11.2073 12.6427L9.01185 10.4393L6.82428 12.6427C6.69218 12.7695 6.53101 12.8329 6.34079 12.8329Z"
		fill="currentColor"
	/>
</svg>
