<svg
	color="rgb(var(--foreground, 0, 0, 0))"
	viewBox="0 0 16 17"
	fill="none"
	xmlns="http://www.w3.org/2000/svg"
>
	<path
		d="M12.8157 14.1549L13.6471 13.3235L3.19216 2.86863L2.36078 3.7L12.8157 14.1549ZM8 16.5C9.09281 16.5 10.1203 16.2909 11.0824 15.8726C12.0497 15.4542 12.902 14.8765 13.6392 14.1392C14.3765 13.402 14.9542 12.5523 15.3726 11.5902C15.7909 10.6229 16 9.59281 16 8.5C16 7.40719 15.7909 6.37974 15.3726 5.41765C14.9542 4.45033 14.3765 3.59804 13.6392 2.86078C12.902 2.12353 12.0497 1.54575 11.0824 1.12745C10.115 0.70915 9.08497 0.5 7.99216 0.5C6.89935 0.5 5.86928 0.70915 4.90196 1.12745C3.93987 1.54575 3.0902 2.12353 2.35294 2.86078C1.62092 3.59804 1.04575 4.45033 0.627451 5.41765C0.20915 6.37974 0 7.40719 0 8.5C0 9.59281 0.20915 10.6229 0.627451 11.5902C1.04575 12.5523 1.62353 13.402 2.36078 14.1392C3.09804 14.8765 3.94771 15.4542 4.9098 15.8726C5.87712 16.2909 6.90719 16.5 8 16.5ZM8 15.1667C7.07451 15.1667 6.20915 14.9941 5.40392 14.649C4.59869 14.3039 3.8902 13.8281 3.27843 13.2216C2.6719 12.6098 2.19608 11.9013 1.85098 11.0961C1.51111 10.2908 1.34118 9.42549 1.34118 8.5C1.34118 7.57451 1.51111 6.70915 1.85098 5.90392C2.19608 5.09869 2.6719 4.3902 3.27843 3.77843C3.88497 3.16667 4.59085 2.69085 5.39608 2.35098C6.20131 2.00588 7.06667 1.83333 7.99216 1.83333C8.91765 1.83333 9.78301 2.00588 10.5882 2.35098C11.3987 2.69085 12.1072 3.16667 12.7137 3.77843C13.3255 4.3902 13.8039 5.09869 14.149 5.90392C14.4941 6.70915 14.6667 7.57451 14.6667 8.5C14.6667 9.42549 14.4941 10.2908 14.149 11.0961C13.8092 11.9013 13.3333 12.6098 12.7216 13.2216C12.1098 13.8281 11.4013 14.3039 10.5961 14.649C9.79085 14.9941 8.92549 15.1667 8 15.1667Z"
		fill="currentColor"
	/>
</svg>
