<svg
	color="rgb(var(--foreground, 0, 0, 0))"
	viewBox="0 0 16 17"
	fill="none"
	xmlns="http://www.w3.org/2000/svg"
>
	<path
		d="M1.92285 4.64052V9.94483C1.92285 10.6573 2.02572 11.2775 2.23145 11.8053C2.44247 12.3278 2.77745 12.816 3.2364 13.2699C3.70063 13.7185 4.31256 14.183 5.07221 14.6633C5.83712 15.1436 6.77085 15.6978 7.87339 16.3258C7.97362 16.3786 8.06858 16.4156 8.15826 16.4367C8.25321 16.4631 8.33234 16.4762 8.39565 16.4762C8.45895 16.4762 8.53544 16.4631 8.62512 16.4367C8.72008 16.4156 8.81767 16.3786 8.9179 16.3258C9.51929 16.0092 10.0653 15.711 10.5559 15.4312C11.0518 15.1515 11.4975 14.885 11.8932 14.6316L1.92285 4.64052ZM14.2038 12.5257C14.4411 12.1616 14.61 11.771 14.7102 11.354C14.8157 10.9318 14.8684 10.4621 14.8684 9.94483V3.97551C14.8684 3.56911 14.7814 3.27618 14.6073 3.09673C14.4385 2.91728 14.1879 2.75895 13.8556 2.62172C13.671 2.54255 13.4177 2.44227 13.0959 2.32088C12.7742 2.19949 12.4181 2.06754 12.0277 1.92504C11.6426 1.78253 11.2549 1.64003 10.8645 1.49753C10.4794 1.35502 10.1259 1.22835 9.80415 1.11752C9.48764 1.0014 9.23706 0.911677 9.05242 0.848342C8.94692 0.816675 8.83877 0.790285 8.72799 0.769174C8.61721 0.748062 8.50643 0.737506 8.39565 0.737506C8.28487 0.737506 8.17408 0.748062 8.0633 0.769174C7.9578 0.790285 7.85229 0.816675 7.74679 0.848342C7.50412 0.932789 7.1665 1.05154 6.73393 1.2046C6.30135 1.35766 5.83449 1.52655 5.33333 1.71128C4.83745 1.89601 4.36795 2.07018 3.92483 2.2338L14.2038 12.5257ZM14.9555 16.3179C15.0768 16.4393 15.2219 16.5 15.3907 16.5C15.5595 16.5 15.7019 16.4393 15.818 16.3179C15.9393 16.2018 16 16.0593 16 15.8904C16 15.7215 15.9393 15.5764 15.818 15.455L1.04451 0.682088C0.923178 0.560696 0.778107 0.5 0.609298 0.5C0.440488 0.5 0.295417 0.560696 0.174085 0.682088C0.0580283 0.792924 0 0.935428 0 1.1096C0 1.28377 0.0580283 1.42891 0.174085 1.54503L14.9555 16.3179Z"
		fill="currentColor"
	/>
</svg>
