<svg
	color="rgb(var(--foreground, 0, 0, 0))"
	viewBox="0 0 16 17"
	fill="none"
	xmlns="http://www.w3.org/2000/svg"
>
	<path
		d="M1.86746 4.49022V9.9357C1.86746 10.6503 1.97296 11.271 2.18398 11.7978C2.39499 12.3246 2.73525 12.8149 3.20475 13.2687C3.67425 13.7225 4.2941 14.1919 5.06429 14.677C5.83976 15.1621 6.78932 15.7176 7.91296 16.3435C8.01319 16.3957 8.11078 16.4348 8.20574 16.4609C8.30069 16.487 8.37982 16.5 8.44312 16.5C8.50643 16.5 8.58556 16.487 8.68051 16.4609C8.77547 16.4348 8.87306 16.3957 8.97329 16.3435C9.5905 15.9993 10.1523 15.6785 10.6588 15.3812C11.1705 15.0891 11.6294 14.8126 12.0356 14.5518L11.0702 13.5895C10.7748 13.7773 10.4504 13.9781 10.0969 14.1919C9.74349 14.4058 9.35575 14.6405 8.93373 14.8961C8.82295 14.9639 8.73063 15.0108 8.65678 15.0369C8.58292 15.0682 8.51434 15.0839 8.45104 15.0839V10.9998L1.86746 4.49022ZM14.3462 12.4707C14.5836 12.1108 14.755 11.7274 14.8605 11.3205C14.966 10.9137 15.0188 10.4521 15.0188 9.9357V3.95037C15.0188 3.5383 14.9317 3.2436 14.7577 3.06626C14.5836 2.88892 14.3277 2.72983 13.9901 2.589C13.8055 2.51076 13.5496 2.41165 13.2226 2.29169C12.8955 2.1665 12.5341 2.0335 12.1385 1.89267C11.7481 1.74662 11.3551 1.60318 10.9594 1.46235C10.5638 1.32152 10.2024 1.19372 9.87537 1.07897C9.5483 0.964222 9.29245 0.87555 9.10781 0.812958C9.00231 0.781663 8.89153 0.755583 8.77547 0.734719C8.66469 0.708639 8.55391 0.695599 8.44312 0.695599C8.33234 0.695599 8.22156 0.708639 8.11078 0.734719C8 0.760799 7.89186 0.786879 7.78635 0.812958C7.54369 0.885982 7.20607 0.998125 6.77349 1.14939C6.34092 1.30065 5.87405 1.46756 5.3729 1.65012C4.87174 1.83268 4.39697 2.01002 3.94857 2.18215L8.45104 6.63399V1.95526C8.49324 1.95526 8.53808 1.96047 8.58556 1.9709C8.63831 1.98134 8.69634 1.99959 8.75964 2.02567C8.99703 2.11956 9.27399 2.22649 9.5905 2.34645C9.90702 2.46121 10.2394 2.58378 10.5875 2.71418C10.941 2.83936 11.2918 2.96455 11.64 3.08973C11.9934 3.21491 12.3284 3.33488 12.6449 3.44963C12.9667 3.55917 13.2516 3.65566 13.4995 3.73912C13.605 3.77563 13.6736 3.82779 13.7052 3.8956C13.7422 3.96341 13.7606 4.06251 13.7606 4.19291V9.64621C13.7606 10.0218 13.729 10.3582 13.6657 10.6555C13.6024 10.9528 13.4995 11.2293 13.3571 11.4848L14.3462 12.4707ZM14.9555 16.1323C15.0768 16.2522 15.2219 16.3122 15.3907 16.3122C15.5595 16.3122 15.7019 16.2522 15.818 16.1323C15.9393 16.0175 16 15.8767 16 15.7098C16 15.5429 15.9393 15.3994 15.818 15.2795L1.04451 0.679951C0.923178 0.559984 0.778107 0.5 0.609298 0.5C0.440488 0.5 0.295417 0.559984 0.174085 0.679951C0.0580283 0.789487 0 0.930318 0 1.10244C0 1.27457 0.0580283 1.41801 0.174085 1.53276L14.9555 16.1323Z"
		fill="currentColor"
	/>
</svg>
