<svg
	color="rgb(var(--foreground, 0, 0, 0))"
	viewBox="0 0 13 17"
	fill="none"
	xmlns="http://www.w3.org/2000/svg"
>
	<path
		d="M13 9.85446V3.79505C13 3.37789 12.914 3.07954 12.7419 2.9C12.5698 2.71518 12.3169 2.55413 11.9832 2.41683C11.8006 2.33762 11.5477 2.23465 11.2244 2.10792C10.9011 1.98119 10.5439 1.84389 10.1528 1.69604C9.76695 1.54818 9.37846 1.40297 8.98736 1.2604C8.59627 1.11254 8.23907 0.983168 7.91576 0.872277C7.59246 0.756106 7.33955 0.671617 7.15704 0.618812C7.05275 0.592409 6.94324 0.566007 6.82852 0.539604C6.71901 0.513201 6.60951 0.5 6.5 0.5C6.39049 0.5 6.28099 0.513201 6.17148 0.539604C6.06197 0.560726 5.95507 0.587129 5.85078 0.618812C5.66306 0.682178 5.40754 0.771947 5.08424 0.888119C4.76093 1.00429 4.40373 1.13366 4.01264 1.27624C3.62676 1.41881 3.23827 1.56403 2.84717 1.71188C2.45608 1.85446 2.09888 1.98911 1.77557 2.11584C1.45227 2.23729 1.19936 2.33762 1.01685 2.41683C0.688327 2.55941 0.435419 2.72046 0.258123 2.9C0.0860409 3.07954 0 3.37789 0 3.79505V9.85446C0 10.5779 0.104292 11.2089 0.312876 11.7475C0.52146 12.2809 0.857802 12.7772 1.3219 13.2366C1.786 13.696 2.39872 14.1686 3.16005 14.6545C3.92659 15.1455 4.86522 15.7079 5.97593 16.3416C6.07501 16.3944 6.17148 16.434 6.26534 16.4604C6.35921 16.4868 6.43743 16.5 6.5 16.5C6.56258 16.5 6.64079 16.4868 6.73466 16.4604C6.82852 16.434 6.92499 16.3944 7.02407 16.3416C8.13478 15.7079 9.0708 15.1455 9.83213 14.6545C10.5987 14.1634 11.214 13.6881 11.6781 13.2287C12.1422 12.7693 12.4785 12.2729 12.6871 11.7396C12.8957 11.2063 13 10.5779 13 9.85446ZM6.33574 15.0347C6.28881 15.0188 6.23927 14.9977 6.18712 14.9713C6.13498 14.9449 6.07762 14.9132 6.01504 14.8762C5.11292 14.3218 4.35419 13.8439 3.73887 13.4426C3.12876 13.0413 2.6412 12.6611 2.27617 12.302C1.91115 11.9429 1.64781 11.5495 1.48616 11.1218C1.32451 10.6941 1.24368 10.1739 1.24368 9.56139V4.04059C1.24368 3.90858 1.25933 3.80825 1.29061 3.7396C1.32712 3.67096 1.40012 3.61815 1.50963 3.58119C1.7495 3.4967 2.02587 3.39901 2.33875 3.28812C2.65684 3.17195 2.99057 3.0505 3.33995 2.92376C3.68933 2.79703 4.0361 2.6703 4.38026 2.54356C4.72964 2.41155 5.05816 2.28746 5.36582 2.17129C5.6787 2.04983 5.95247 1.94158 6.18712 1.84653C6.21841 1.83069 6.24448 1.82013 6.26534 1.81485C6.29142 1.80957 6.31488 1.80429 6.33574 1.79901V15.0347Z"
		fill="currentColor"
	/>
</svg>
