<svg
	color="rgb(var(--foreground, 0, 0, 0))"
	viewBox="0 0 13 17"
	fill="none"
	xmlns="http://www.w3.org/2000/svg"
>
	<path
		d="M0 9.85446C0 10.5779 0.104292 11.2063 0.312876 11.7396C0.52146 12.2729 0.857802 12.7693 1.3219 13.2287C1.786 13.6881 2.39872 14.1634 3.16005 14.6545C3.92659 15.1455 4.86522 15.7079 5.97593 16.3416C6.07501 16.3944 6.17148 16.434 6.26534 16.4604C6.35921 16.4868 6.43743 16.5 6.5 16.5C6.56258 16.5 6.64079 16.4868 6.73466 16.4604C6.82852 16.434 6.92499 16.3944 7.02407 16.3416C8.13999 15.7079 9.07862 15.1455 9.83995 14.6545C10.6065 14.1686 11.2218 13.696 11.6859 13.2366C12.15 12.7772 12.4838 12.2809 12.6871 11.7475C12.8957 11.2089 13 10.5779 13 9.85446V3.79505C13 3.37789 12.914 3.07954 12.7419 2.9C12.5698 2.72046 12.3169 2.55941 11.9832 2.41683C11.8006 2.33762 11.5477 2.23729 11.2244 2.11584C10.9011 1.98911 10.5439 1.85446 10.1528 1.71188C9.76695 1.56403 9.37846 1.41881 8.98736 1.27624C8.59627 1.13366 8.23907 1.00429 7.91576 0.888119C7.59246 0.771947 7.33955 0.682178 7.15704 0.618812C7.05275 0.587129 6.94324 0.560726 6.82852 0.539604C6.71901 0.513201 6.60951 0.5 6.5 0.5C6.39049 0.5 6.28099 0.513201 6.17148 0.539604C6.06197 0.566007 5.95507 0.592409 5.85078 0.618812C5.66306 0.671617 5.40754 0.756106 5.08424 0.872277C4.76093 0.983168 4.40373 1.11254 4.01264 1.2604C3.62676 1.40297 3.23827 1.54818 2.84717 1.69604C2.45608 1.84389 2.09888 1.98119 1.77557 2.10792C1.45227 2.23465 1.19936 2.33762 1.01685 2.41683C0.688327 2.55413 0.435419 2.71518 0.258123 2.9C0.0860409 3.07954 0 3.37789 0 3.79505V9.85446ZM6.66426 15.0347V1.79901C6.68512 1.80429 6.70598 1.80957 6.72684 1.81485C6.75291 1.82013 6.78159 1.83069 6.81288 1.84653C7.04753 1.94158 7.3213 2.04983 7.63418 2.17129C7.94705 2.28746 8.27557 2.41155 8.61974 2.54356C8.96911 2.6703 9.31588 2.79703 9.66005 2.92376C10.0094 3.0505 10.3406 3.17195 10.6534 3.28812C10.9715 3.39901 11.2531 3.4967 11.4982 3.58119C11.6025 3.61815 11.6703 3.67096 11.7016 3.7396C11.7381 3.80825 11.7563 3.90858 11.7563 4.04059V9.56139C11.7563 10.1739 11.6755 10.6941 11.5138 11.1218C11.3574 11.5495 11.0941 11.9429 10.7238 12.302C10.3588 12.6611 9.86863 13.0413 9.25331 13.4426C8.6432 13.8439 7.88708 14.3218 6.98496 14.8762C6.9276 14.9132 6.87024 14.9449 6.81288 14.9713C6.76073 14.9977 6.71119 15.0188 6.66426 15.0347Z"
		fill="currentColor"
	/>
</svg>
