<svg
	color="rgb(var(--foreground, 0, 0, 0))"
	viewBox="0 0 18 19"
	fill="none"
	xmlns="http://www.w3.org/2000/svg"
>
	<path
		d="M4.20077 16.3758H5.91279C6.07659 16.3758 6.21133 16.4312 6.31701 16.5422L7.53761 17.7549C8.03959 18.2569 8.52572 18.5052 8.996 18.4999C9.47156 18.4999 9.96033 18.2516 10.4623 17.7549L11.6829 16.5422C11.7939 16.4312 11.9286 16.3758 12.0871 16.3758H13.7991C14.5072 16.3758 15.0303 16.2067 15.3685 15.8685C15.7067 15.5356 15.8758 15.0125 15.8758 14.2991V12.5871C15.8758 12.4286 15.9312 12.2939 16.0422 12.1829L17.247 10.9623C17.7542 10.4656 18.0052 9.97948 17.9999 9.50392C17.9999 9.02836 17.7489 8.53959 17.247 8.03761L16.0422 6.81701C15.9312 6.70605 15.8758 6.57395 15.8758 6.42071V4.70077C15.8758 3.998 15.7067 3.47753 15.3685 3.13935C15.0356 2.79589 14.5125 2.62416 13.7991 2.62416H12.0871C11.9286 2.62416 11.7939 2.57132 11.6829 2.46565L10.4623 1.25297C9.96033 0.75099 9.47156 0.5 8.996 0.5C8.52572 0.5 8.03959 0.75099 7.53761 1.25297L6.31701 2.46565C6.21133 2.57132 6.07659 2.62416 5.91279 2.62416H4.20077C3.49272 2.62416 2.9696 2.79325 2.63143 3.13143C2.29325 3.46432 2.12416 3.98743 2.12416 4.70077V6.42071C2.12416 6.57395 2.07132 6.70605 1.96565 6.81701L0.752969 8.03761C0.25099 8.53959 0 9.02836 0 9.50392C0 9.97948 0.25099 10.4656 0.752969 10.9623L1.96565 12.1829C2.07132 12.2939 2.12416 12.4286 2.12416 12.5871V14.2991C2.12416 15.0072 2.29325 15.5303 2.63143 15.8685C2.9696 16.2067 3.49272 16.3758 4.20077 16.3758ZM4.20077 15.1155C3.84675 15.1155 3.62218 15.068 3.52706 14.9729C3.43195 14.8777 3.3844 14.6532 3.3844 14.2991V12.1671C3.3844 11.9346 3.3025 11.7364 3.13869 11.5726L1.64068 10.0825C1.38705 9.82889 1.26023 9.63602 1.26023 9.50392C1.26023 9.37182 1.38705 9.17896 1.64068 8.92533L3.13869 7.43524C3.3025 7.26615 3.3844 7.06536 3.3844 6.83286V4.70077C3.3844 4.34675 3.42931 4.12218 3.51914 4.02706C3.61425 3.93195 3.84146 3.8844 4.20077 3.8844H6.33286C6.57593 3.8844 6.77672 3.8025 6.93524 3.63869L8.42533 2.14068C8.67896 1.89233 8.86918 1.76816 8.996 1.76816C9.1281 1.76816 9.32096 1.89233 9.57459 2.14068L11.0726 3.63869C11.2311 3.8025 11.4293 3.8844 11.6671 3.8844H13.7991C14.1532 3.8844 14.3777 3.93459 14.4729 4.03499C14.568 4.1301 14.6155 4.35203 14.6155 4.70077V6.83286C14.6155 7.06536 14.7001 7.26615 14.8692 7.43524L16.3672 8.92533C16.6155 9.17896 16.7397 9.37182 16.7397 9.50392C16.7397 9.63602 16.6155 9.82889 16.3672 10.0825L14.8692 11.5726C14.7001 11.7364 14.6155 11.9346 14.6155 12.1671V14.2991C14.6155 14.6532 14.568 14.8777 14.4729 14.9729C14.3777 15.068 14.1532 15.1155 13.7991 15.1155H11.6671C11.4293 15.1155 11.2311 15.2001 11.0726 15.3692L9.57459 16.8672C9.32096 17.1155 9.1281 17.2397 8.996 17.2397C8.86918 17.2397 8.67896 17.1155 8.42533 16.8672L6.93524 15.3692C6.77672 15.2001 6.57593 15.1155 6.33286 15.1155H4.20077ZM8.13999 13.2608C8.40947 13.2608 8.62348 13.1393 8.78199 12.8962L12.4042 7.18953C12.4517 7.11556 12.494 7.0363 12.531 6.95175C12.5733 6.86193 12.5944 6.7721 12.5944 6.68227C12.5944 6.5079 12.5283 6.36787 12.3962 6.26219C12.2641 6.15651 12.1162 6.10367 11.9524 6.10367C11.7305 6.10367 11.5455 6.22256 11.3976 6.46034L8.10829 11.7391L6.54687 9.71792C6.45175 9.59111 6.35664 9.50656 6.26153 9.46429C6.1717 9.41674 6.07131 9.39296 5.96034 9.39296C5.79125 9.39296 5.64595 9.45637 5.52441 9.58318C5.40817 9.70471 5.35004 9.85267 5.35004 10.027C5.35004 10.1908 5.41081 10.3546 5.53234 10.5184L7.46628 12.8962C7.56668 13.0231 7.66971 13.1155 7.77539 13.1737C7.88636 13.2318 8.00789 13.2608 8.13999 13.2608Z"
		fill="currentColor"
	/>
</svg>
