<svg
	color="rgb(var(--foreground, 0, 0, 0))"
	viewBox="0 0 18 19"
	fill="none"
	xmlns="http://www.w3.org/2000/svg"
>
	<path
		d="M4.20077 16.3758H5.92071C6.07923 16.3758 6.21133 16.4313 6.31701 16.5423L7.53761 17.755C8.03959 18.2569 8.52836 18.5053 9.00392 18.5C9.47948 18.5 9.96561 18.2516 10.4623 17.755L11.6829 16.5423C11.7939 16.4313 11.9286 16.3758 12.0871 16.3758H13.7991C14.5072 16.3758 15.0303 16.2067 15.3685 15.8686C15.7067 15.5357 15.8758 15.0126 15.8758 14.2992V12.5872C15.8758 12.4287 15.9312 12.294 16.0422 12.183L17.2549 10.9624C17.7569 10.4657 18.0052 9.97956 17.9999 9.504C17.9999 9.02844 17.7516 8.53967 17.2549 8.0377L16.0422 6.81709C15.9312 6.70613 15.8758 6.57403 15.8758 6.42079V4.70085C15.8758 3.99808 15.7067 3.47761 15.3685 3.13944C15.0356 2.79598 14.5125 2.62425 13.7991 2.62425H12.0871C11.9286 2.62425 11.7939 2.57141 11.6829 2.46573L10.4623 1.25305C9.96561 0.745787 9.47948 0.494798 9.00392 0.500082C8.52836 0.500082 8.03959 0.751071 7.53761 1.25305L6.31701 2.46573C6.21133 2.57141 6.07923 2.62425 5.92071 2.62425H4.20077C3.49272 2.62425 2.9696 2.79333 2.63143 3.13151C2.29325 3.4644 2.12416 3.98752 2.12416 4.70085V6.42079C2.12416 6.57403 2.07132 6.70613 1.96564 6.81709L0.752969 8.0377C0.25099 8.53967 0 9.02844 0 9.504C0 9.97956 0.25099 10.4657 0.752969 10.9624L1.96564 12.183C2.07132 12.294 2.12416 12.4287 2.12416 12.5872V14.2992C2.12416 15.0073 2.29325 15.5304 2.63143 15.8686C2.9696 16.2067 3.49272 16.3758 4.20077 16.3758ZM8.11621 13.3719C7.97883 13.3719 7.85465 13.3428 7.74369 13.2847C7.63273 13.2266 7.5244 13.1288 7.41872 12.9914L5.4293 10.5502C5.37118 10.471 5.32362 10.3891 5.28663 10.3045C5.25493 10.2147 5.23908 10.1249 5.23908 10.035C5.23908 9.85539 5.29984 9.70215 5.42138 9.57534C5.54291 9.44324 5.6935 9.37719 5.87316 9.37719C5.9894 9.37719 6.09244 9.40096 6.18227 9.44852C6.27738 9.49608 6.37514 9.5859 6.47553 9.718L8.08451 11.7946L11.4689 6.35739C11.6169 6.11432 11.8071 5.99279 12.0396 5.99279C12.2087 5.99279 12.3619 6.04827 12.4993 6.15924C12.6367 6.26492 12.7054 6.41023 12.7054 6.59517C12.7054 6.68499 12.6842 6.77482 12.6419 6.86465C12.5997 6.95448 12.5548 7.03902 12.5072 7.11828L8.78199 12.9914C8.69745 13.1183 8.5997 13.2134 8.48873 13.2768C8.37777 13.3402 8.25359 13.3719 8.11621 13.3719Z"
		fill="currentColor"
	/>
</svg>
