<svg color="rgb(var(--foreground, 0, 0, 0))" viewBox="0 0 18 16" fill="none">
	<path
		d="M10.9209 16H16.7372C17.125 16 17.4311 15.8749 17.6556 15.6248C17.8852 15.3796 18 15.0494 18 14.6341V5.05816C18 4.6429 17.8852 4.3127 17.6556 4.06754C17.4311 3.81739 17.125 3.69231 16.7372 3.69231H11.4719V4.90056H16.3316C16.4796 4.90056 16.5893 4.93558 16.6607 5.00563C16.7321 5.07567 16.7679 5.18574 16.7679 5.33583V14.3565C16.7679 14.5066 16.7321 14.6166 16.6607 14.6867C16.5893 14.7567 16.4796 14.7917 16.3316 14.7917H10.9209V16ZM13.8597 7.81989H15.0918C15.2653 7.81989 15.352 7.73483 15.352 7.56473V6.394C15.352 6.22389 15.2653 6.13884 15.0918 6.13884H13.8597C13.6913 6.13884 13.6071 6.22389 13.6071 6.394V7.56473C13.6071 7.73483 13.6913 7.81989 13.8597 7.81989ZM13.8597 10.6867H15.0918C15.2653 10.6867 15.352 10.6016 15.352 10.4315V9.26079C15.352 9.09068 15.2653 9.00563 15.0918 9.00563H13.8597C13.6913 9.00563 13.6071 9.09068 13.6071 9.26079V10.4315C13.6071 10.6016 13.6913 10.6867 13.8597 10.6867ZM13.8597 13.5535H15.0918C15.2653 13.5535 15.352 13.4684 15.352 13.2983V12.1276C15.352 11.9575 15.2653 11.8724 15.0918 11.8724H13.8597C13.6913 11.8724 13.6071 11.9575 13.6071 12.1276V13.2983C13.6071 13.4684 13.6913 13.5535 13.8597 13.5535ZM0 14.6341C0 15.0494 0.112245 15.3796 0.336735 15.6248C0.566327 15.8749 0.877551 16 1.27041 16H10.9209C11.3087 16 11.6148 15.8749 11.8393 15.6248C12.0689 15.3796 12.1837 15.0494 12.1837 14.6341V1.36585C12.1837 0.945591 12.0689 0.612883 11.8393 0.36773C11.6148 0.122577 11.3087 0 10.9209 0H1.27041C0.877551 0 0.566327 0.122577 0.336735 0.36773C0.112245 0.612883 0 0.945591 0 1.36585V14.6341ZM1.23214 14.3565V1.64353C1.23214 1.49343 1.26786 1.38336 1.33929 1.31332C1.41071 1.24328 1.52296 1.20826 1.67602 1.20826H10.5153C10.6633 1.20826 10.773 1.24328 10.8444 1.31332C10.9158 1.38336 10.9515 1.49343 10.9515 1.64353V14.3565C10.9515 14.5066 10.9158 14.6166 10.8444 14.6867C10.773 14.7567 10.6633 14.7917 10.5153 14.7917H1.67602C1.52296 14.7917 1.41071 14.7567 1.33929 14.6867C1.26786 14.6166 1.23214 14.5066 1.23214 14.3565ZM3.42857 15.3621H4.43112V12.8555C4.43112 12.6954 4.51276 12.6154 4.67602 12.6154H7.50765C7.67092 12.6154 7.75255 12.6954 7.75255 12.8555V15.3621H8.7551V12.5779C8.7551 12.2527 8.68112 12.015 8.53316 11.8649C8.3852 11.7098 8.15306 11.6323 7.83673 11.6323H4.34694C4.03571 11.6323 3.80357 11.7098 3.65051 11.8649C3.50255 12.015 3.42857 12.2527 3.42857 12.5779V15.3621ZM3.55102 4.4878H5.04337C5.25255 4.4878 5.35714 4.38524 5.35714 4.18011V2.76173C5.35714 2.5566 5.25255 2.45403 5.04337 2.45403H3.55102C3.35204 2.45403 3.25255 2.5566 3.25255 2.76173V4.18011C3.25255 4.38524 3.35204 4.4878 3.55102 4.4878ZM7.14031 4.4878H8.625C8.83418 4.4878 8.93878 4.38524 8.93878 4.18011V2.76173C8.93878 2.5566 8.83418 2.45403 8.625 2.45403H7.14031C6.93622 2.45403 6.83418 2.5566 6.83418 2.76173V4.18011C6.83418 4.38524 6.93622 4.4878 7.14031 4.4878ZM3.55102 7.45966H5.04337C5.25255 7.45966 5.35714 7.3571 5.35714 7.15197V5.73358C5.35714 5.52846 5.25255 5.42589 5.04337 5.42589H3.55102C3.35204 5.42589 3.25255 5.52846 3.25255 5.73358V7.15197C3.25255 7.3571 3.35204 7.45966 3.55102 7.45966ZM7.14031 7.45966H8.625C8.83418 7.45966 8.93878 7.3571 8.93878 7.15197V5.73358C8.93878 5.52846 8.83418 5.42589 8.625 5.42589H7.14031C6.93622 5.42589 6.83418 5.52846 6.83418 5.73358V7.15197C6.83418 7.3571 6.93622 7.45966 7.14031 7.45966ZM3.55102 10.4315H5.04337C5.25255 10.4315 5.35714 10.329 5.35714 10.1238V8.70544C5.35714 8.50031 5.25255 8.39775 5.04337 8.39775H3.55102C3.35204 8.39775 3.25255 8.50031 3.25255 8.70544V10.1238C3.25255 10.329 3.35204 10.4315 3.55102 10.4315ZM7.14031 10.4315H8.625C8.83418 10.4315 8.93878 10.329 8.93878 10.1238V8.70544C8.93878 8.50031 8.83418 8.39775 8.625 8.39775H7.14031C6.93622 8.39775 6.83418 8.50031 6.83418 8.70544V10.1238C6.83418 10.329 6.93622 10.4315 7.14031 10.4315Z"
		fill="currentColor"
	/>
</svg>
