<svg color="rgb(var(--foreground, 0, 0, 0))" viewBox="0 0 17 16" fill="none">
	<path
		d="M0 15.3784C0 15.5472 0.060592 15.693 0.181776 15.8158C0.308229 15.9386 0.458391 16 0.632264 16H16.3598C16.5337 16 16.6839 15.9386 16.8103 15.8158C16.9368 15.693 17 15.5472 17 15.3784C17 15.2096 16.9368 15.0638 16.8103 14.941C16.6839 14.8233 16.5337 14.7645 16.3598 14.7645H0.632264C0.458391 14.7645 0.308229 14.8233 0.181776 14.941C0.060592 15.0638 0 15.2096 0 15.3784ZM1.38308 6.59185C1.38308 6.74532 1.42523 6.86555 1.50953 6.95252C1.5991 7.03949 1.72555 7.08297 1.88889 7.08297H3.91213C4.07547 7.08297 4.20192 7.03949 4.29149 6.95252C4.38106 6.86555 4.42585 6.74532 4.42585 6.59185V6.40767C4.42585 6.25931 4.38106 6.14165 4.29149 6.05468C4.20192 5.96771 4.07547 5.92422 3.91213 5.92422H1.88889C1.72555 5.92422 1.5991 5.96771 1.50953 6.05468C1.42523 6.14165 1.38308 6.25931 1.38308 6.40767V6.59185ZM2.30776 13.153H3.50116V6.66859H2.30776V13.153ZM1.38308 13.5981C1.38308 13.7567 1.42523 13.8769 1.50953 13.9588C1.5991 14.0457 1.72555 14.0892 1.88889 14.0892H3.91213C4.07547 14.0892 4.20192 14.0457 4.29149 13.9588C4.38106 13.8769 4.42585 13.7567 4.42585 13.5981V13.4139C4.42585 13.2655 4.38106 13.1479 4.29149 13.0609C4.20192 12.9739 4.07547 12.9305 3.91213 12.9305H1.88889C1.72555 12.9305 1.5991 12.9739 1.50953 13.0609C1.42523 13.1479 1.38308 13.2655 1.38308 13.4139V13.5981ZM5.13715 6.59185C5.13715 6.74532 5.18193 6.86555 5.2715 6.95252C5.36107 7.03949 5.48489 7.08297 5.64296 7.08297H7.67411C7.83217 7.08297 7.95599 7.03949 8.04556 6.95252C8.13513 6.86555 8.17992 6.74532 8.17992 6.59185V6.40767C8.17992 6.25931 8.13513 6.14165 8.04556 6.05468C7.95599 5.96771 7.83217 5.92422 7.67411 5.92422H5.64296C5.48489 5.92422 5.36107 5.96771 5.2715 6.05468C5.18193 6.14165 5.13715 6.25931 5.13715 6.40767V6.59185ZM6.06974 13.153H7.26313V6.66859H6.06974V13.153ZM5.13715 13.5981C5.13715 13.7567 5.18193 13.8769 5.2715 13.9588C5.36107 14.0457 5.48489 14.0892 5.64296 14.0892H7.67411C7.83217 14.0892 7.95599 14.0457 8.04556 13.9588C8.13513 13.8769 8.17992 13.7567 8.17992 13.5981V13.4139C8.17992 13.2655 8.13513 13.1479 8.04556 13.0609C7.95599 12.9739 7.83217 12.9305 7.67411 12.9305H5.64296C5.48489 12.9305 5.36107 12.9739 5.2715 13.0609C5.18193 13.1479 5.13715 13.2655 5.13715 13.4139V13.5981ZM8.89912 6.59185C8.89912 6.74532 8.9439 6.86555 9.03347 6.95252C9.12304 7.03949 9.24686 7.08297 9.40493 7.08297H11.4361C11.5941 7.08297 11.718 7.03949 11.8075 6.95252C11.8971 6.86555 11.9419 6.74532 11.9419 6.59185V6.40767C11.9419 6.25931 11.8971 6.14165 11.8075 6.05468C11.718 5.96771 11.5941 5.92422 11.4361 5.92422H9.40493C9.24686 5.92422 9.12304 5.96771 9.03347 6.05468C8.9439 6.14165 8.89912 6.25931 8.89912 6.40767V6.59185ZM9.83171 13.153H11.0251V6.66859H9.83171V13.153ZM8.89912 13.5981C8.89912 13.7567 8.9439 13.8769 9.03347 13.9588C9.12304 14.0457 9.24686 14.0892 9.40493 14.0892H11.4361C11.5941 14.0892 11.718 14.0457 11.8075 13.9588C11.8971 13.8769 11.9419 13.7567 11.9419 13.5981V13.4139C11.9419 13.2655 11.8971 13.1479 11.8075 13.0609C11.718 12.9739 11.5941 12.9305 11.4361 12.9305H9.40493C9.24686 12.9305 9.12304 12.9739 9.03347 13.0609C8.9439 13.1479 8.89912 13.2655 8.89912 13.4139V13.5981ZM12.6611 6.59185C12.6611 6.74532 12.7032 6.86555 12.7875 6.95252C12.8771 7.03949 13.0036 7.08297 13.1669 7.08297H15.1901C15.3535 7.08297 15.4773 7.03949 15.5616 6.95252C15.6512 6.86555 15.696 6.74532 15.696 6.59185V6.40767C15.696 6.25931 15.6512 6.14165 15.5616 6.05468C15.4773 5.96771 15.3535 5.92422 15.1901 5.92422H13.1669C13.0036 5.92422 12.8771 5.96771 12.7875 6.05468C12.7032 6.14165 12.6611 6.25931 12.6611 6.40767V6.59185ZM13.5858 13.153H14.7792V6.66859H13.5858V13.153ZM12.6611 13.5981C12.6611 13.7567 12.7032 13.8769 12.7875 13.9588C12.8771 14.0457 13.0036 14.0892 13.1669 14.0892H15.1901C15.3535 14.0892 15.4773 14.0457 15.5616 13.9588C15.6512 13.8769 15.696 13.7567 15.696 13.5981V13.4139C15.696 13.2655 15.6512 13.1479 15.5616 13.0609C15.4773 12.9739 15.3535 12.9305 15.1901 12.9305H13.1669C13.0036 12.9305 12.8771 12.9739 12.7875 13.0609C12.7032 13.1479 12.6611 13.2655 12.6611 13.4139V13.5981ZM1.04324 5.25659H15.9489C16.1702 5.25659 16.3388 5.19265 16.4547 5.06475C16.5759 4.93685 16.6364 4.79361 16.6364 4.63501C16.6364 4.52246 16.6022 4.41759 16.5337 4.32038C16.4705 4.21807 16.3651 4.12598 16.2176 4.04412L9.46815 0.268585C9.14675 0.0895284 8.82272 0 8.49605 0C8.16938 0 7.84534 0.0895284 7.52394 0.268585L0.774524 4.04412C0.626995 4.12598 0.518983 4.21807 0.450488 4.32038C0.387262 4.41759 0.355649 4.52246 0.355649 4.63501C0.355649 4.79361 0.413606 4.93685 0.529521 5.06475C0.650705 5.19265 0.821943 5.25659 1.04324 5.25659ZM3.41423 4.0211L8.18782 1.41966C8.29847 1.36339 8.40121 1.33525 8.49605 1.33525C8.59089 1.33525 8.69363 1.36339 8.80428 1.41966L13.5779 4.0211H3.41423Z"
		fill="currentColor"
	/>
</svg>
