<svg color="rgb(var(--foreground, 0, 0, 0))" viewBox="0 0 12 16" fill="none">
	<path
		d="M0 14.6341C0 15.0494 0.110553 15.3796 0.331658 15.6248C0.557789 15.8749 0.864322 16 1.25126 16H10.7563C11.1382 16 11.4397 15.8749 11.6608 15.6248C11.8869 15.3796 12 15.0494 12 14.6341V1.36585C12 0.945591 11.8869 0.612883 11.6608 0.36773C11.4397 0.122577 11.1382 0 10.7563 0H1.25126C0.864322 0 0.557789 0.122577 0.331658 0.36773C0.110553 0.612883 0 0.945591 0 1.36585V14.6341ZM1.21357 14.3565V1.64353C1.21357 1.49343 1.24874 1.38336 1.3191 1.31332C1.38945 1.24328 1.5 1.20826 1.65075 1.20826H10.3568C10.5025 1.20826 10.6106 1.24328 10.6809 1.31332C10.7513 1.38336 10.7864 1.49343 10.7864 1.64353V14.3565C10.7864 14.5066 10.7513 14.6166 10.6809 14.6867C10.6106 14.7567 10.5025 14.7917 10.3568 14.7917H1.65075C1.5 14.7917 1.38945 14.7567 1.3191 14.6867C1.24874 14.6166 1.21357 14.5066 1.21357 14.3565ZM3.37688 15.3621H4.36432V12.8555C4.36432 12.6954 4.44472 12.6154 4.60553 12.6154H7.39447C7.55528 12.6154 7.63568 12.6954 7.63568 12.8555V15.3621H8.62312V12.5779C8.62312 12.2527 8.55025 12.015 8.40452 11.8649C8.25879 11.7098 8.03015 11.6323 7.71859 11.6323H4.28141C3.97487 11.6323 3.74623 11.7098 3.59548 11.8649C3.44975 12.015 3.37688 12.2527 3.37688 12.5779V15.3621ZM3.49749 4.4878H4.96734C5.17337 4.4878 5.27638 4.38524 5.27638 4.18011V2.76173C5.27638 2.5566 5.17337 2.45403 4.96734 2.45403H3.49749C3.30151 2.45403 3.20352 2.5566 3.20352 2.76173V4.18011C3.20352 4.38524 3.30151 4.4878 3.49749 4.4878ZM7.03266 4.4878H8.49498C8.70101 4.4878 8.80402 4.38524 8.80402 4.18011V2.76173C8.80402 2.5566 8.70101 2.45403 8.49498 2.45403H7.03266C6.83166 2.45403 6.73116 2.5566 6.73116 2.76173V4.18011C6.73116 4.38524 6.83166 4.4878 7.03266 4.4878ZM3.49749 7.45966H4.96734C5.17337 7.45966 5.27638 7.3571 5.27638 7.15197V5.73358C5.27638 5.52846 5.17337 5.42589 4.96734 5.42589H3.49749C3.30151 5.42589 3.20352 5.52846 3.20352 5.73358V7.15197C3.20352 7.3571 3.30151 7.45966 3.49749 7.45966ZM7.03266 7.45966H8.49498C8.70101 7.45966 8.80402 7.3571 8.80402 7.15197V5.73358C8.80402 5.52846 8.70101 5.42589 8.49498 5.42589H7.03266C6.83166 5.42589 6.73116 5.52846 6.73116 5.73358V7.15197C6.73116 7.3571 6.83166 7.45966 7.03266 7.45966ZM3.49749 10.4315H4.96734C5.17337 10.4315 5.27638 10.329 5.27638 10.1238V8.70544C5.27638 8.50031 5.17337 8.39775 4.96734 8.39775H3.49749C3.30151 8.39775 3.20352 8.50031 3.20352 8.70544V10.1238C3.20352 10.329 3.30151 10.4315 3.49749 10.4315ZM7.03266 10.4315H8.49498C8.70101 10.4315 8.80402 10.329 8.80402 10.1238V8.70544C8.80402 8.50031 8.70101 8.39775 8.49498 8.39775H7.03266C6.83166 8.39775 6.73116 8.50031 6.73116 8.70544V10.1238C6.73116 10.329 6.83166 10.4315 7.03266 10.4315Z"
		fill="currentColor"
	/>
</svg>
