<svg color="rgb(var(--foreground, 0, 0, 0))" viewBox="0 0 12 16" fill="none">
	<path
		d="M0 14.6341C0 15.0494 0.115486 15.3796 0.346457 15.6248C0.582677 15.8749 0.902887 16 1.30709 16H10.6929C11.0971 16 11.4147 15.8749 11.6457 15.6248C11.8819 15.3796 12 15.0494 12 14.6341V1.36585C12 0.945591 11.8819 0.612883 11.6457 0.36773C11.4147 0.122577 11.0971 0 10.6929 0H1.30709C0.902887 0 0.582677 0.122577 0.346457 0.36773C0.115486 0.612883 0 0.945591 0 1.36585V14.6341ZM3.27559 14.7917V12.3527C3.27559 12.1776 3.33071 12.04 3.44094 11.94C3.55118 11.8349 3.69554 11.7824 3.87402 11.7824H8.19685C8.38058 11.7824 8.52493 11.8349 8.62992 11.94C8.74016 12.04 8.79528 12.1776 8.79528 12.3527V14.7917H3.27559ZM3.01575 4.03002V2.57411C3.01575 2.35897 3.12336 2.25141 3.33858 2.25141H4.91339C5.13911 2.25141 5.25197 2.35897 5.25197 2.57411V4.03002C5.25197 4.24515 5.13911 4.35272 4.91339 4.35272H3.33858C3.12336 4.35272 3.01575 4.24515 3.01575 4.03002ZM6.8189 4.03002V2.57411C6.8189 2.35897 6.92913 2.25141 7.14961 2.25141H8.71654C8.94226 2.25141 9.05512 2.35897 9.05512 2.57411V4.03002C9.05512 4.24515 8.94226 4.35272 8.71654 4.35272H7.14961C6.92913 4.35272 6.8189 4.24515 6.8189 4.03002ZM3.01575 7.09193V5.63602C3.01575 5.42089 3.12336 5.31332 3.33858 5.31332H4.91339C5.13911 5.31332 5.25197 5.42089 5.25197 5.63602V7.09193C5.25197 7.30707 5.13911 7.41463 4.91339 7.41463H3.33858C3.12336 7.41463 3.01575 7.30707 3.01575 7.09193ZM6.8189 7.09193V5.63602C6.8189 5.42089 6.92913 5.31332 7.14961 5.31332H8.71654C8.94226 5.31332 9.05512 5.42089 9.05512 5.63602V7.09193C9.05512 7.30707 8.94226 7.41463 8.71654 7.41463H7.14961C6.92913 7.41463 6.8189 7.30707 6.8189 7.09193ZM3.01575 10.1538V8.69794C3.01575 8.4828 3.12336 8.37523 3.33858 8.37523H4.91339C5.13911 8.37523 5.25197 8.4828 5.25197 8.69794V10.1538C5.25197 10.369 5.13911 10.4765 4.91339 10.4765H3.33858C3.12336 10.4765 3.01575 10.369 3.01575 10.1538ZM6.8189 10.1538V8.69794C6.8189 8.4828 6.92913 8.37523 7.14961 8.37523H8.71654C8.94226 8.37523 9.05512 8.4828 9.05512 8.69794V10.1538C9.05512 10.369 8.94226 10.4765 8.71654 10.4765H7.14961C6.92913 10.4765 6.8189 10.369 6.8189 10.1538Z"
		fill="currentColor"
	/>
</svg>
