<svg color="rgb(var(--foreground, 0, 0, 0))" viewBox="0 0 18 16" fill="none">
	<path
		d="M12.3263 16H16.7383C17.1257 16 17.4316 15.8749 17.6559 15.6248C17.8853 15.3796 18 15.0494 18 14.6341V5.05816C18 4.6429 17.8853 4.3127 17.6559 4.06754C17.4316 3.81739 17.1257 3.69231 16.7383 3.69231H12.7009V14.6341C12.7009 14.8893 12.6678 15.1295 12.6015 15.3546C12.5404 15.5847 12.4486 15.7999 12.3263 16ZM14.4367 7.48968V6.28893C14.4367 6.11382 14.5259 6.02627 14.7043 6.02627H15.9737C16.1521 6.02627 16.2413 6.11382 16.2413 6.28893V7.48968C16.2413 7.66979 16.1521 7.75985 15.9737 7.75985H14.7043C14.5259 7.75985 14.4367 7.66979 14.4367 7.48968ZM14.4367 10.4465V9.24578C14.4367 9.07067 14.5259 8.98311 14.7043 8.98311H15.9737C16.1521 8.98311 16.2413 9.07067 16.2413 9.24578V10.4465C16.2413 10.6216 16.1521 10.7092 15.9737 10.7092H14.7043C14.5259 10.7092 14.4367 10.6216 14.4367 10.4465ZM14.4367 13.4034V12.2026C14.4367 12.0225 14.5259 11.9325 14.7043 11.9325H15.9737C16.1521 11.9325 16.2413 12.0225 16.2413 12.2026V13.4034C16.2413 13.5785 16.1521 13.666 15.9737 13.666H14.7043C14.5259 13.666 14.4367 13.5785 14.4367 13.4034ZM0 14.6341C0 15.0494 0.11215 15.3796 0.336449 15.6248C0.565845 15.8749 0.876806 16 1.26933 16H10.384C10.7766 16 11.085 15.8749 11.3093 15.6248C11.5387 15.3796 11.6534 15.0494 11.6534 14.6341V1.36585C11.6534 0.945591 11.5387 0.612883 11.3093 0.36773C11.085 0.122577 10.7766 0 10.384 0H1.26933C0.876806 0 0.565845 0.122577 0.336449 0.36773C0.11215 0.612883 0 0.945591 0 1.36585V14.6341ZM3.18097 14.7917V12.3527C3.18097 12.1776 3.23449 12.04 3.34155 11.94C3.4486 11.8349 3.58879 11.7824 3.76211 11.7824H7.96007C8.13849 11.7824 8.27867 11.8349 8.38063 11.94C8.48768 12.04 8.54121 12.1776 8.54121 12.3527V14.7917H3.18097ZM2.92863 4.03002V2.57411C2.92863 2.35897 3.03314 2.25141 3.24214 2.25141H4.77145C4.99065 2.25141 5.10026 2.35897 5.10026 2.57411V4.03002C5.10026 4.24515 4.99065 4.35272 4.77145 4.35272H3.24214C3.03314 4.35272 2.92863 4.24515 2.92863 4.03002ZM6.62192 4.03002V2.57411C6.62192 2.35897 6.72897 2.25141 6.94308 2.25141H8.46474C8.68394 2.25141 8.79354 2.35897 8.79354 2.57411V4.03002C8.79354 4.24515 8.68394 4.35272 8.46474 4.35272H6.94308C6.72897 4.35272 6.62192 4.24515 6.62192 4.03002ZM2.92863 7.09193V5.63602C2.92863 5.42089 3.03314 5.31332 3.24214 5.31332H4.77145C4.99065 5.31332 5.10026 5.42089 5.10026 5.63602V7.09193C5.10026 7.30707 4.99065 7.41463 4.77145 7.41463H3.24214C3.03314 7.41463 2.92863 7.30707 2.92863 7.09193ZM6.62192 7.09193V5.63602C6.62192 5.42089 6.72897 5.31332 6.94308 5.31332H8.46474C8.68394 5.31332 8.79354 5.42089 8.79354 5.63602V7.09193C8.79354 7.30707 8.68394 7.41463 8.46474 7.41463H6.94308C6.72897 7.41463 6.62192 7.30707 6.62192 7.09193ZM2.92863 10.1538V8.69794C2.92863 8.4828 3.03314 8.37523 3.24214 8.37523H4.77145C4.99065 8.37523 5.10026 8.4828 5.10026 8.69794V10.1538C5.10026 10.369 4.99065 10.4765 4.77145 10.4765H3.24214C3.03314 10.4765 2.92863 10.369 2.92863 10.1538ZM6.62192 10.1538V8.69794C6.62192 8.4828 6.72897 8.37523 6.94308 8.37523H8.46474C8.68394 8.37523 8.79354 8.4828 8.79354 8.69794V10.1538C8.79354 10.369 8.68394 10.4765 8.46474 10.4765H6.94308C6.72897 10.4765 6.62192 10.369 6.62192 10.1538Z"
		fill="currentColor"
	/>
</svg>
