<svg
	color="rgb(var(--foreground, 0, 0, 0))"
	viewBox="0 0 15 15"
	fill="none"
	xmlns="http://www.w3.org/2000/svg"
>
	<path
		d="M0 12.4742C0 13.3161 0.20175 13.9462 0.60525 14.3645C1.01392 14.7882 1.62435 15 2.43652 15H12.5635C13.3808 15 13.9913 14.7882 14.3947 14.3645C14.7982 13.9462 15 13.3161 15 12.4742V2.5258C15 1.68387 14.7982 1.05378 14.3947 0.635524C13.9913 0.211841 13.3808 0 12.5635 0H2.43652C1.62435 0 1.01392 0.211841 0.60525 0.635524C0.20175 1.05378 0 1.68387 0 2.5258V12.4742ZM2.4598 2.77838C2.26839 2.77838 2.10544 2.70505 1.97094 2.55839C1.83644 2.41173 1.76919 2.24335 1.76919 2.05323C1.76919 1.86312 1.83644 1.69473 1.97094 1.54807C2.10544 1.40141 2.26839 1.32808 2.4598 1.32808C2.6512 1.32808 2.81415 1.40141 2.94865 1.54807C3.08833 1.69473 3.15816 1.86312 3.15816 2.05323C3.15816 2.24335 3.08833 2.41173 2.94865 2.55839C2.81415 2.70505 2.6512 2.77838 2.4598 2.77838ZM4.68681 2.77838C4.4954 2.77838 4.33245 2.70777 4.19795 2.56654C4.06345 2.41988 3.9962 2.24878 3.9962 2.05323C3.9962 1.86312 4.06345 1.69473 4.19795 1.54807C4.33245 1.40141 4.4954 1.32808 4.68681 1.32808C4.87821 1.32808 5.04116 1.40141 5.17566 1.54807C5.31534 1.69473 5.38517 1.86312 5.38517 2.05323C5.38517 2.24878 5.31534 2.41988 5.17566 2.56654C5.04116 2.70777 4.87821 2.77838 4.68681 2.77838ZM6.91382 2.77838C6.72241 2.77838 6.55946 2.70777 6.42496 2.56654C6.29046 2.41988 6.22321 2.24878 6.22321 2.05323C6.22321 1.86312 6.29046 1.69473 6.42496 1.54807C6.55946 1.40141 6.72241 1.32808 6.91382 1.32808C7.10522 1.32808 7.26817 1.40141 7.40267 1.54807C7.53717 1.69473 7.60442 1.86312 7.60442 2.05323C7.60442 2.24878 7.53717 2.41988 7.40267 2.56654C7.26817 2.70777 7.10522 2.77838 6.91382 2.77838ZM1.2493 12.409V4.10646H13.7507V12.409C13.7507 12.8327 13.6447 13.1532 13.4326 13.3705C13.2256 13.5823 12.9308 13.6882 12.548 13.6882H2.45204C2.06406 13.6882 1.76661 13.5823 1.55968 13.3705C1.35276 13.1532 1.2493 12.8327 1.2493 12.409Z"
		fill="currentColor"
	/>
</svg>
