<svg
	color="rgb(var(--foreground, 0, 0, 0))"
	viewBox="0 0 19 17"
	fill="none"
	xmlns="http://www.w3.org/2000/svg"
>
	<path
		d="M0 8.48838C0 8.71566 0.0635877 8.9042 0.190763 9.054C0.323025 9.19863 0.518875 9.29419 0.778313 9.34068C1.25141 9.41299 1.58969 9.58862 1.79317 9.86755C1.99665 10.1465 2.09839 10.5985 2.09839 11.2235V13.4007C2.09839 14.4545 2.34257 15.2345 2.83092 15.7407C3.31928 16.2469 4.07724 16.5 5.10482 16.5C5.22691 16.5 5.34137 16.4819 5.44819 16.4458C5.56519 16.3941 5.65422 16.3218 5.71526 16.2288C5.78139 16.1358 5.81446 16.0248 5.81446 15.8956C5.81446 15.6115 5.6822 15.4359 5.41767 15.3688C5.37697 15.3584 5.33628 15.3481 5.29558 15.3378C5.25997 15.3326 5.21928 15.33 5.17349 15.33C4.53253 15.2835 4.07979 15.1027 3.81526 14.7877C3.55582 14.4777 3.4261 13.9638 3.4261 13.2458V10.6734C3.4261 10.0174 3.26332 9.50856 2.93775 9.14697C2.61218 8.78539 2.15181 8.57619 1.55663 8.51937C1.54645 8.51937 1.54137 8.5142 1.54137 8.50387C1.54137 8.49354 1.54645 8.48838 1.55663 8.48838C2.15181 8.43156 2.61218 8.22236 2.93775 7.86077C3.26332 7.49919 3.4261 6.9904 3.4261 6.33438V3.75424C3.4261 3.03624 3.55582 2.52228 3.81526 2.21235C4.07979 1.90242 4.53253 1.72421 5.17349 1.67772C5.23454 1.67256 5.2905 1.66739 5.34137 1.66223C5.39224 1.6519 5.43802 1.63898 5.47871 1.62349C5.70254 1.546 5.81446 1.37296 5.81446 1.10436C5.81446 0.964891 5.77885 0.851251 5.70763 0.763438C5.6415 0.67046 5.54485 0.600726 5.41767 0.554237C5.31084 0.518079 5.18112 0.5 5.02851 0.5C4.03146 0.5 3.29384 0.75569 2.81566 1.26707C2.33748 1.77845 2.09839 2.55585 2.09839 3.59927V5.78426C2.09839 6.40412 1.99665 6.85351 1.79317 7.13245C1.58969 7.41138 1.25141 7.58701 0.778313 7.65932C0.518875 7.70065 0.323025 7.79621 0.190763 7.946C0.0635877 8.09064 0 8.27143 0 8.48838ZM6.06627 9.72034C6.39692 9.72034 6.68179 9.59895 6.92088 9.35617C7.15997 9.10823 7.27952 8.81897 7.27952 8.48838C7.27952 8.27143 7.22356 8.06998 7.11165 7.88402C7.00482 7.6929 6.85984 7.54052 6.67671 7.42688C6.49357 7.31324 6.29009 7.25642 6.06627 7.25642C5.84752 7.25642 5.64404 7.31324 5.45582 7.42688C5.27269 7.54052 5.12517 7.6929 5.01325 7.88402C4.90134 8.06998 4.84538 8.27143 4.84538 8.48838C4.84538 8.81897 4.96493 9.10823 5.20402 9.35617C5.44819 9.59895 5.73561 9.72034 6.06627 9.72034ZM9.5 9.72034C9.71874 9.72034 9.91968 9.66352 10.1028 9.54988C10.2859 9.43624 10.4335 9.28644 10.5454 9.10048C10.6573 8.90936 10.7133 8.70533 10.7133 8.48838C10.7133 8.27143 10.6573 8.06998 10.5454 7.88402C10.4335 7.6929 10.2859 7.54052 10.1028 7.42688C9.91968 7.31324 9.71874 7.25642 9.5 7.25642C9.28635 7.25642 9.08541 7.31324 8.89719 7.42688C8.71406 7.54052 8.56653 7.6929 8.45462 7.88402C8.3427 8.06998 8.28675 8.27143 8.28675 8.48838C8.28675 8.81897 8.40629 9.10823 8.64538 9.35617C8.88956 9.59895 9.17443 9.72034 9.5 9.72034ZM12.9337 9.72034C13.2644 9.72034 13.5493 9.59895 13.7884 9.35617C14.0325 9.10823 14.1546 8.81897 14.1546 8.48838C14.1546 8.27143 14.0987 8.06998 13.9867 7.88402C13.8748 7.6929 13.7273 7.54052 13.5442 7.42688C13.361 7.31324 13.1576 7.25642 12.9337 7.25642C12.715 7.25642 12.5115 7.31324 12.3233 7.42688C12.1402 7.54052 11.9926 7.6929 11.8807 7.88402C11.7739 8.06998 11.7205 8.27143 11.7205 8.48838C11.7205 8.81897 11.84 9.10823 12.0791 9.35617C12.3182 9.59895 12.6031 9.72034 12.9337 9.72034ZM19 8.48838C19 8.27143 18.9364 8.09064 18.8092 7.946C18.6821 7.79621 18.4862 7.70065 18.2217 7.65932C17.7486 7.58701 17.4103 7.41138 17.2068 7.13245C17.0033 6.85351 16.9016 6.40412 16.9016 5.78426V3.59927C16.9016 2.55585 16.6625 1.77845 16.1843 1.26707C15.7062 0.75569 14.9685 0.5 13.9715 0.5C13.824 0.5 13.6968 0.518079 13.59 0.554237C13.4577 0.600726 13.356 0.67046 13.2847 0.763438C13.2186 0.851251 13.1855 0.964891 13.1855 1.10436C13.1855 1.37296 13.3 1.546 13.5289 1.62349C13.5645 1.63898 13.6078 1.6519 13.6586 1.66223C13.7095 1.66739 13.7655 1.67256 13.8265 1.67772C14.4675 1.72421 14.9202 1.90242 15.1847 2.21235C15.4493 2.52228 15.5815 3.03624 15.5815 3.75424V6.33438C15.5815 6.9904 15.7418 7.49919 16.0622 7.86077C16.3878 8.22236 16.8482 8.43156 17.4434 8.48838C17.4535 8.48838 17.4586 8.49354 17.4586 8.50387C17.4586 8.5142 17.4535 8.51937 17.4434 8.51937C16.8482 8.57619 16.3878 8.78539 16.0622 9.14697C15.7418 9.50856 15.5815 10.0174 15.5815 10.6734V13.2458C15.5815 13.9638 15.4493 14.4777 15.1847 14.7877C14.9202 15.1027 14.4675 15.2835 13.8265 15.33C13.7807 15.33 13.7375 15.3326 13.6968 15.3378C13.6612 15.3481 13.6256 15.3584 13.59 15.3688C13.3203 15.4359 13.1855 15.6115 13.1855 15.8956C13.1855 16.0248 13.2161 16.1358 13.2771 16.2288C13.3432 16.3218 13.4373 16.3941 13.5594 16.4458C13.6612 16.4819 13.7731 16.5 13.8952 16.5C14.9278 16.5 15.6858 16.2469 16.1691 15.7407C16.6574 15.2345 16.9016 14.4545 16.9016 13.4007V11.2235C16.9016 10.5985 17.0033 10.1465 17.2068 9.86755C17.4103 9.58862 17.7486 9.41299 18.2217 9.34068C18.4862 9.29419 18.6821 9.19863 18.8092 9.054C18.9364 8.9042 19 8.71566 19 8.48838Z"
		fill="currentColor"
	/>
</svg>
