<svg
	color="rgb(var(--foreground, 0, 0, 0))"
	viewBox="0 0 17 17"
	fill="none"
	xmlns="http://www.w3.org/2000/svg"
>
	<path
		fill-rule="evenodd"
		clip-rule="evenodd"
		d="M11.3277 0.213394C11.5373 0.465 11.5033 0.838939 11.2517 1.04861L10.138 1.97676H12.4535C13.6508 1.97676 14.6279 2.95389 14.6279 4.15118V11.1291C15.9813 11.4038 17 12.6004 17 14.0349C17 15.6725 15.6725 17 14.0349 17C12.3973 17 11.0698 15.6725 11.0698 14.0349C11.0698 12.6004 12.0884 11.4038 13.4419 11.1291V4.15118C13.4419 3.60893 12.9957 3.16281 12.4535 3.16281H10.138L11.2517 4.09095C11.5033 4.30063 11.5373 4.67456 11.3277 4.92617C11.118 5.17778 10.7441 5.21177 10.4924 5.0021L8.12036 3.02536C7.98515 2.91268 7.90698 2.74578 7.90698 2.56978C7.90698 2.39378 7.98515 2.22688 8.12036 2.11421L10.4924 0.137465C10.7441 -0.0722067 11.118 -0.0382122 11.3277 0.213394ZM3.16279 1.18606C2.07106 1.18606 1.18605 2.07108 1.18605 3.16281C1.18605 4.25453 2.07106 5.13955 3.16279 5.13955C4.25452 5.13955 5.13953 4.25453 5.13953 3.16281C5.13953 2.07108 4.25452 1.18606 3.16279 1.18606ZM0 3.16281C0 1.41604 1.41603 1.48613e-05 3.16279 1.48613e-05C4.90955 1.48613e-05 6.32558 1.41604 6.32558 3.16281C6.32558 4.77568 5.11831 6.10658 3.55814 6.30113V11.1291C4.91156 11.4038 5.93023 12.6004 5.93023 14.0349C5.93023 15.6725 4.60271 17 2.96512 17C1.32753 17 0 15.6725 0 14.0349C0 12.6004 1.01867 11.4038 2.37209 11.1291V6.22595C1.00796 5.87485 0 4.63654 0 3.16281ZM2.96512 12.2558C1.98256 12.2558 1.18605 13.0523 1.18605 14.0349C1.18605 15.0175 1.98256 15.814 2.96512 15.814C3.94767 15.814 4.74419 15.0175 4.74419 14.0349C4.74419 13.0523 3.94767 12.2558 2.96512 12.2558ZM14.0349 12.2558C13.0523 12.2558 12.2558 13.0523 12.2558 14.0349C12.2558 15.0175 13.0523 15.814 14.0349 15.814C15.0174 15.814 15.814 15.0175 15.814 14.0349C15.814 13.0523 15.0174 12.2558 14.0349 12.2558Z"
		fill="currentColor"
	/>
</svg>
