<svg
	color="rgb(var(--foreground, 0, 0, 0))"
	viewBox="0 0 17 17"
	fill="none"
	xmlns="http://www.w3.org/2000/svg"
>
	<path
		fill-rule="evenodd"
		clip-rule="evenodd"
		d="M2.96512 11.4651C3.29263 11.4651 3.55814 11.1996 3.55814 10.8721V5.33721C3.55814 5.00969 3.29263 4.74419 2.96512 4.74419C2.6376 4.74419 2.37209 5.00969 2.37209 5.33721V10.8721C2.37209 11.1996 2.6376 11.4651 2.96512 11.4651Z"
		fill="currentColor"
	/>
	<path
		fill-rule="evenodd"
		clip-rule="evenodd"
		d="M3.16279 15.814C2.07106 15.814 1.18605 14.9289 1.18605 13.8372C1.18605 12.7455 2.07106 11.8605 3.16279 11.8605C4.25452 11.8605 5.13953 12.7455 5.13953 13.8372C5.13953 14.9289 4.25452 15.814 3.16279 15.814ZM0 13.8372C0 15.584 1.41603 17 3.16279 17C4.90955 17 6.32558 15.584 6.32558 13.8372C6.32558 12.0904 4.90955 10.6744 3.16279 10.6744C1.41603 10.6744 0 12.0904 0 13.8372Z"
		fill="currentColor"
	/>
	<path
		fill-rule="evenodd"
		clip-rule="evenodd"
		d="M2.96512 4.74419C1.98256 4.74419 1.18605 3.94767 1.18605 2.96512C1.18605 1.98256 1.98256 1.18605 2.96512 1.18605C3.94767 1.18605 4.74419 1.98256 4.74419 2.96512C4.74419 3.94767 3.94767 4.74419 2.96512 4.74419ZM0 2.96512C0 4.60271 1.32753 5.93023 2.96512 5.93023C4.60271 5.93023 5.93023 4.60271 5.93023 2.96512C5.93023 1.32753 4.60271 0 2.96512 0C1.32753 0 0 1.32753 0 2.96512Z"
		fill="currentColor"
	/>
	<path
		fill-rule="evenodd"
		clip-rule="evenodd"
		d="M14.0349 4.74419C13.0523 4.74419 12.2558 3.94767 12.2558 2.96512C12.2558 1.98256 13.0523 1.18605 14.0349 1.18605C15.0174 1.18605 15.814 1.98256 15.814 2.96512C15.814 3.94767 15.0174 4.74419 14.0349 4.74419ZM11.0698 2.96512C11.0698 4.60271 12.3973 5.93023 14.0349 5.93023C15.6725 5.93023 17 4.60271 17 2.96512C17 1.32753 15.6725 0 14.0349 0C12.3973 0 11.0698 1.32753 11.0698 2.96512Z"
		fill="currentColor"
	/>
	<path
		fill-rule="evenodd"
		clip-rule="evenodd"
		d="M2.92022 11.4464C3.23742 11.528 3.56068 11.337 3.64225 11.0198C3.93228 9.89186 4.96511 9.05495 6.18012 9.06138L6.18153 9.06139L8.89309 9.0693C11.2261 9.07797 13.2093 7.58179 13.9383 5.50169C14.0466 5.1926 13.8838 4.85423 13.5747 4.74592C13.2656 4.63761 12.9273 4.80037 12.8189 5.10946C12.2512 6.72967 10.7076 7.89017 8.89761 7.88326L6.18639 7.87535C4.4129 7.86632 2.9151 9.08512 2.49357 10.7244C2.412 11.0416 2.60302 11.3649 2.92022 11.4464Z"
		fill="currentColor"
	/>
</svg>
