<svg
	color="rgb(var(--foreground, 0, 0, 0))"
	viewBox="0 0 17 17"
	fill="none"
	xmlns="http://www.w3.org/2000/svg"
>
	<path
		fill-rule="evenodd"
		clip-rule="evenodd"
		d="M2.96512 5.53488C3.29263 5.53488 3.55814 5.80039 3.55814 6.12791V11.6628C3.55814 11.9903 3.29263 12.2558 2.96512 12.2558C2.6376 12.2558 2.37209 11.9903 2.37209 11.6628V6.12791C2.37209 5.80039 2.6376 5.53488 2.96512 5.53488Z"
		fill="currentColor"
	/>
	<path
		fill-rule="evenodd"
		clip-rule="evenodd"
		d="M3.16279 1.18605C2.07106 1.18605 1.18605 2.07106 1.18605 3.16279C1.18605 4.25452 2.07106 5.13953 3.16279 5.13953C4.25452 5.13953 5.13953 4.25452 5.13953 3.16279C5.13953 2.07106 4.25452 1.18605 3.16279 1.18605ZM0 3.16279C0 1.41603 1.41603 0 3.16279 0C4.90955 0 6.32558 1.41603 6.32558 3.16279C6.32558 4.90955 4.90955 6.32558 3.16279 6.32558C1.41603 6.32558 0 4.90955 0 3.16279Z"
		fill="currentColor"
	/>
	<path
		fill-rule="evenodd"
		clip-rule="evenodd"
		d="M2.96512 12.2558C1.98256 12.2558 1.18605 13.0523 1.18605 14.0349C1.18605 15.0174 1.98256 15.814 2.96512 15.814C3.94767 15.814 4.74419 15.0174 4.74419 14.0349C4.74419 13.0523 3.94767 12.2558 2.96512 12.2558ZM0 14.0349C0 12.3973 1.32753 11.0698 2.96512 11.0698C4.60271 11.0698 5.93023 12.3973 5.93023 14.0349C5.93023 15.6725 4.60271 17 2.96512 17C1.32753 17 0 15.6725 0 14.0349Z"
		fill="currentColor"
	/>
	<path
		fill-rule="evenodd"
		clip-rule="evenodd"
		d="M14.0349 12.2558C13.0523 12.2558 12.2558 13.0523 12.2558 14.0349C12.2558 15.0174 13.0523 15.814 14.0349 15.814C15.0174 15.814 15.814 15.0174 15.814 14.0349C15.814 13.0523 15.0174 12.2558 14.0349 12.2558ZM11.0698 14.0349C11.0698 12.3973 12.3973 11.0698 14.0349 11.0698C15.6725 11.0698 17 12.3973 17 14.0349C17 15.6725 15.6725 17 14.0349 17C12.3973 17 11.0698 15.6725 11.0698 14.0349Z"
		fill="currentColor"
	/>
	<path
		fill-rule="evenodd"
		clip-rule="evenodd"
		d="M2.92022 5.55357C3.23742 5.472 3.56068 5.66302 3.64225 5.98022C3.93228 7.10814 4.96511 7.94505 6.18012 7.93862L6.18153 7.93861L8.89309 7.9307C11.2261 7.92203 13.2093 9.41821 13.9383 11.4983C14.0466 11.8074 13.8838 12.1458 13.5747 12.2541C13.2656 12.3624 12.9273 12.1996 12.8189 11.8905C12.2512 10.2703 10.7076 9.10983 8.89761 9.11674L6.18639 9.12465C4.4129 9.13368 2.9151 7.91488 2.49357 6.27559C2.412 5.9584 2.60302 5.63513 2.92022 5.55357Z"
		fill="currentColor"
	/>
</svg>
