<svg
	color="rgb(var(--foreground, 0, 0, 0))"
	viewBox="0 0 17 17"
	fill="none"
	xmlns="http://www.w3.org/2000/svg"
>
	<path
		fill-rule="evenodd"
		clip-rule="evenodd"
		d="M10.537 0.213394C10.7466 0.465 10.7126 0.838939 10.461 1.04861L9.34726 1.97676H12.4535C13.6508 1.97676 14.6279 2.95389 14.6279 4.15118V11.1291C15.9813 11.4038 17 12.6004 17 14.0349C17 15.6725 15.6725 17 14.0349 17C12.3973 17 11.0698 15.6725 11.0698 14.0349C11.0698 12.6004 12.0884 11.4038 13.4419 11.1291V4.15118C13.4419 3.60893 12.9957 3.16281 12.4535 3.16281H9.34726L10.461 4.09095C10.7126 4.30063 10.7466 4.67456 10.537 4.92617C10.3273 5.17778 9.95336 5.21177 9.70175 5.0021L7.32966 3.02536C7.19445 2.91268 7.11628 2.74578 7.11628 2.56978C7.11628 2.39378 7.19445 2.22688 7.32966 2.11421L9.70175 0.137465C9.95336 -0.0722067 10.3273 -0.0382122 10.537 0.213394ZM2.96512 1.18606C1.98256 1.18606 1.18605 1.98258 1.18605 2.96513C1.18605 3.94768 1.98256 4.7442 2.96512 4.7442C3.94767 4.7442 4.74419 3.94768 4.74419 2.96513C4.74419 1.98258 3.94767 1.18606 2.96512 1.18606ZM0 2.96513C0 1.32754 1.32753 1.48613e-05 2.96512 1.48613e-05C4.60271 1.48613e-05 5.93023 1.32754 5.93023 2.96513C5.93023 4.39963 4.91156 5.5962 3.55814 5.87093V12.8489C3.55814 13.3911 4.00426 13.8372 4.54651 13.8372H7.65274L6.53896 12.9091C6.28735 12.6994 6.25336 12.3255 6.46303 12.0739C6.6727 11.8223 7.04664 11.7883 7.29825 11.9979L9.67034 13.9747C9.80555 14.0873 9.88372 14.2543 9.88372 14.4302C9.88372 14.6062 9.80555 14.7732 9.67034 14.8858L7.29825 16.8626C7.04664 17.0722 6.6727 17.0382 6.46303 16.7866C6.25336 16.535 6.28735 16.1611 6.53896 15.9514L7.65274 15.0233H4.54651C3.34923 15.0233 2.37209 14.0461 2.37209 12.8489V5.87093C1.01867 5.5962 0 4.39963 0 2.96513ZM14.0349 12.2558C13.0523 12.2558 12.2558 13.0523 12.2558 14.0349C12.2558 15.0175 13.0523 15.814 14.0349 15.814C15.0174 15.814 15.814 15.0175 15.814 14.0349C15.814 13.0523 15.0174 12.2558 14.0349 12.2558Z"
		fill="currentColor"
	/>
</svg>
