<svg
	color="rgb(var(--foreground, 0, 0, 0))"
	viewBox="0 0 13 21"
	fill="none"
	xmlns="http://www.w3.org/2000/svg"
>
	<path
		d="M12.0723 14.3593C12.7317 13.7032 13.0395 13.001 12.9959 12.2527C12.9524 11.4991 12.5546 10.7508 11.8026 10.0079L8.901 7.11244L4.69162 11.3174C4.55539 11.453 4.41099 11.5316 4.25842 11.5533C4.10585 11.5695 3.9669 11.5424 3.84157 11.4719C3.71624 11.4015 3.62361 11.2984 3.56367 11.1629C3.50918 11.0219 3.5119 10.8592 3.57184 10.6749C3.62633 10.5176 3.66175 10.355 3.6781 10.1869C3.69444 10.0134 3.70262 9.83984 3.70262 9.66633C3.70262 9.00481 3.52008 8.50868 3.15499 8.17792C2.78991 7.84174 2.37305 7.67365 1.90444 7.67365C1.49031 7.66823 1.14157 7.74414 0.858223 7.90138C0.574873 8.05863 0.359636 8.26739 0.212512 8.52765C0.0708374 8.7825 0 9.06175 0 9.36539C0 9.58228 0.0326942 9.79375 0.0980826 9.9998C0.16892 10.2004 0.261554 10.3902 0.375983 10.5691C0.495862 10.7481 0.632088 10.9107 0.784661 11.0571L6.13016 16.3764C6.35357 16.5987 6.54974 16.821 6.71866 17.0433C6.88758 17.2656 7.01836 17.5015 7.11099 17.7509C7.20907 18.0058 7.25811 18.2904 7.25811 18.6049C7.25811 18.7134 7.24721 18.8218 7.22542 18.9303C7.20907 19.0387 7.17365 19.1499 7.11916 19.2637C7.24994 19.1553 7.37254 19.0468 7.48697 18.9384C7.6014 18.8299 7.71038 18.7242 7.81391 18.6212L12.0723 14.3593ZM4.32381 20.5C4.66165 20.5 4.96407 20.4214 5.23107 20.2641C5.50352 20.1069 5.71876 19.8954 5.87678 19.6297C6.04025 19.364 6.12199 19.0685 6.12199 18.7432C6.12199 18.5371 6.08929 18.3419 6.02391 18.1576C5.96397 17.9786 5.86588 17.7943 5.72966 17.6045C5.59888 17.4202 5.42451 17.2195 5.20655 17.0026L4.16851 15.9616C3.67265 16.3086 3.25307 16.6882 2.90978 17.1002C2.57194 17.5178 2.40302 18.0383 2.40302 18.6619C2.40302 19.0197 2.48476 19.3369 2.64823 19.6135C2.81715 19.89 3.04601 20.1069 3.33481 20.2641C3.62361 20.4214 3.95327 20.5 4.32381 20.5ZM1.90444 6.55937C2.42754 6.55937 2.89344 6.67053 3.30211 6.89284C3.71624 7.11516 4.03773 7.41609 4.26659 7.79565C4.5009 8.17521 4.61806 8.60085 4.61806 9.07259C4.61806 9.08886 4.61806 9.11326 4.61806 9.14579C4.61806 9.1729 4.61533 9.20001 4.60988 9.22713C4.60443 9.3681 4.6562 9.45215 4.76518 9.47926C4.87961 9.50095 4.96679 9.48197 5.02673 9.42233L9.75105 4.72123C10.2469 4.2278 10.4976 3.65304 10.503 2.99695C10.503 2.4981 10.3886 2.06161 10.1597 1.68747C9.93086 1.31334 9.63117 1.02325 9.26063 0.817202C8.89555 0.605734 8.50594 0.5 8.09181 0.5C7.60685 0.5 7.17093 0.605734 6.78405 0.817202C6.40261 1.02867 6.02118 1.32418 5.63975 1.70374L0.310595 6.99858C0.555801 6.8576 0.809181 6.74915 1.07074 6.67324C1.33774 6.59733 1.61564 6.55937 1.90444 6.55937Z"
		fill="currentColor"
	/>
</svg>
