<svg
	color="rgb(var(--foreground, 0, 0, 0))"
	viewBox="0 0 14 21"
	fill="none"
	xmlns="http://www.w3.org/2000/svg"
>
	<path
		d="M0.000564371 9.12195C-0.0156143 9.97072 0.316048 10.7308 0.99555 11.4023L4.49822 14.8995C4.03443 15.2057 3.65963 15.5119 3.37381 15.8181C3.08798 16.1189 2.87766 16.4305 2.74284 16.7528C2.61341 17.0805 2.5487 17.4323 2.5487 17.8084C2.5487 18.3617 2.67813 18.8371 2.93698 19.2346C3.20124 19.6375 3.54099 19.9464 3.95624 20.1613C4.37688 20.3761 4.82179 20.489 5.29097 20.4997C5.69544 20.5051 6.07294 20.4379 6.42348 20.2983C6.77941 20.1586 7.08141 19.9625 7.32948 19.71L13.0648 13.9809C13.7335 13.3147 14.0436 12.603 13.9951 11.8455C13.9519 11.0827 13.5583 10.3333 12.814 9.59737L9.5864 6.38227L10.6946 5.27028C10.9697 4.99631 11.1827 4.69011 11.3337 4.35168C11.4847 4.01324 11.5602 3.66675 11.5602 3.31221C11.571 2.78576 11.4523 2.31034 11.2043 1.88596C10.9616 1.46158 10.6272 1.12583 10.2012 0.878721C9.77515 0.62624 9.29518 0.5 8.76129 0.5C8.31368 0.5 7.90382 0.585951 7.53171 0.757853C7.15961 0.929755 6.7821 1.21178 6.39921 1.60393L0.833763 7.13165C0.289083 7.66884 0.0113501 8.33228 0.000564371 9.12195ZM3.34145 6.4709L7.3133 2.51447C7.57755 2.25125 7.81484 2.06592 8.02516 1.95848C8.24088 1.85104 8.48625 1.79732 8.76129 1.79732C9.19811 1.79732 9.55943 1.93968 9.84526 2.22439C10.1311 2.50373 10.274 2.86096 10.274 3.29609C10.274 3.47874 10.2308 3.66407 10.1446 3.85209C10.0583 4.03473 9.93694 4.20395 9.78054 4.35973L5.48512 8.63042C5.44197 8.24364 5.32872 7.89984 5.14537 7.59901C4.96201 7.29818 4.71663 7.05107 4.40924 6.85768C4.10724 6.66429 3.75131 6.53537 3.34145 6.4709ZM1.35148 9.23476C1.35148 8.7674 1.4836 8.39137 1.74786 8.10666C2.01211 7.81657 2.35725 7.67153 2.78329 7.67153C3.2255 7.67153 3.58683 7.82194 3.86726 8.12277C4.14768 8.41823 4.2879 8.80769 4.2879 9.29117C4.2879 9.35026 4.27981 9.4577 4.26363 9.61348C4.25285 9.7639 4.2124 9.9358 4.14229 10.1292C4.08836 10.3011 4.08836 10.4515 4.14229 10.5804C4.20161 10.704 4.29329 10.798 4.41733 10.8625C4.54136 10.9269 4.67619 10.9511 4.82179 10.935C4.97279 10.9135 5.11031 10.8383 5.23435 10.7094L8.66422 7.30087L11.8999 10.5079C12.3961 10.9968 12.663 11.4453 12.7008 11.8536C12.7385 12.2618 12.5552 12.6674 12.1507 13.0703L7.98471 17.2201C7.94157 16.9945 7.86607 16.7796 7.75821 16.5755C7.65575 16.3767 7.51284 16.1699 7.32948 15.955C7.14612 15.7402 6.91962 15.4957 6.64998 15.2218L2.20895 10.7738C1.88537 10.4461 1.66157 10.1722 1.53753 9.95191C1.4135 9.72629 1.35148 9.48724 1.35148 9.23476ZM3.85108 17.8809C3.85108 17.4941 3.97242 17.1422 4.2151 16.8253C4.46317 16.5137 4.87303 16.186 5.44467 15.8422L5.73589 16.1323C6.14574 16.5406 6.42078 16.8629 6.561 17.0993C6.7066 17.341 6.7821 17.6015 6.7875 17.8809C6.7875 18.1226 6.72009 18.3429 6.58526 18.5416C6.45044 18.7404 6.26978 18.8989 6.04328 19.017C5.81678 19.1352 5.56601 19.1943 5.29097 19.1943C5.0429 19.1943 4.80831 19.1379 4.5872 19.0251C4.3661 18.9177 4.18813 18.7646 4.05331 18.5658C3.91849 18.3724 3.85108 18.1441 3.85108 17.8809Z"
		fill="currentColor"
	/>
</svg>
