<svg
	color="rgb(var(--foreground, 0, 0, 0))"
	viewBox="0 0 15 15"
	fill="none"
	xmlns="http://www.w3.org/2000/svg"
>
	<path
		d="M3.36639 6.29821C3.21503 6.39055 3.1263 6.51005 3.10021 6.65671C3.07933 6.80337 3.10543 6.93916 3.1785 7.0641C3.25157 7.18903 3.35595 7.27322 3.49165 7.31668C3.62735 7.3547 3.77871 7.31939 3.94572 7.21075L6.20042 5.74416C6.35177 5.64639 6.44833 5.51602 6.49008 5.35307C6.53706 5.19011 6.53445 5.02716 6.48225 4.8642C6.43528 4.70125 6.34134 4.5736 6.20042 4.48126L3.94572 3.01467C3.77871 2.90603 3.62474 2.87344 3.48382 2.91689C3.34812 2.95492 3.24374 3.03639 3.17067 3.16133C3.10282 3.28626 3.07933 3.42205 3.10021 3.56871C3.1263 3.70994 3.21503 3.82944 3.36639 3.92721L5.25313 5.10864L3.36639 6.29821ZM6.67015 7.20261C6.67015 7.34383 6.71712 7.46605 6.81106 7.56926C6.91023 7.67246 7.03027 7.72406 7.17119 7.72406H10.154C10.2949 7.72406 10.4123 7.67246 10.5063 7.56926C10.6054 7.46605 10.655 7.34383 10.655 7.20261C10.655 7.05595 10.6054 6.93102 10.5063 6.82781C10.4123 6.72461 10.2949 6.673 10.154 6.673H7.17119C7.03027 6.673 6.91023 6.72461 6.81106 6.82781C6.71712 6.93102 6.67015 7.05595 6.67015 7.20261ZM2.45825 15H12.5418C13.3664 15 13.9823 14.7882 14.3894 14.3645C14.7965 13.9462 15 13.3188 15 12.4823V2.5258C15 1.6893 14.7965 1.05921 14.3894 0.635524C13.9823 0.211841 13.3664 0 12.5418 0H2.45825C1.63883 0 1.02296 0.211841 0.610647 0.635524C0.203549 1.05378 0 1.68387 0 2.5258V12.4823C0 13.3188 0.203549 13.9462 0.610647 14.3645C1.02296 14.7882 1.63883 15 2.45825 15ZM2.4739 13.6882C2.08246 13.6882 1.78236 13.5823 1.57359 13.3705C1.36482 13.1532 1.26044 12.8327 1.26044 12.409V2.59913C1.26044 2.17545 1.36482 1.85497 1.57359 1.6377C1.78236 1.42042 2.08246 1.31179 2.4739 1.31179H12.5261C12.9123 1.31179 13.2098 1.42042 13.4186 1.6377C13.6326 1.85497 13.7396 2.17545 13.7396 2.59913V12.409C13.7396 12.8327 13.6326 13.1532 13.4186 13.3705C13.2098 13.5823 12.9123 13.6882 12.5261 13.6882H2.4739Z"
		fill="currentColor"
	/>
</svg>
