<svg
	color="rgb(var(--foreground, 0, 0, 0))"
	viewBox="0 0 16 16"
	fill="none"
	xmlns="http://www.w3.org/2000/svg"
>
	<path
		d="M6.20392 15.2235L6.97255 15.4118C7.30719 14.366 7.42745 13.281 7.33333 12.1569C7.23921 11.0274 6.89934 9.95816 6.31372 8.94901C5.73333 7.93986 4.98039 7.11372 4.0549 6.47058C3.12941 5.82222 2.13333 5.383 1.06667 5.15294L0.847058 5.90588C1.80392 6.1098 2.70065 6.50719 3.53725 7.09803C4.37908 7.68366 5.06666 8.43921 5.6 9.3647C6.13856 10.2954 6.44967 11.2706 6.53333 12.2902C6.62222 13.3046 6.51241 14.2823 6.20392 15.2235ZM2.97255 7.16078L3.69412 5.83529C3.74117 5.75163 3.75163 5.66274 3.72549 5.56862C3.69934 5.47451 3.64444 5.40653 3.56078 5.3647C3.47189 5.31764 3.37778 5.30457 3.27843 5.32549C3.18431 5.3464 3.11372 5.4013 3.06666 5.49019L2.35294 6.80784C2.30065 6.89673 2.28758 6.99085 2.31372 7.09019C2.3451 7.18431 2.40523 7.25228 2.49412 7.29411C2.583 7.3464 2.67189 7.36209 2.76078 7.34117C2.84967 7.31503 2.92026 7.2549 2.97255 7.16078ZM4.40784 8.20392L5.45882 7.12941C5.53202 7.0562 5.56601 6.97254 5.56078 6.87843C5.56078 6.77908 5.52679 6.69803 5.45882 6.63529C5.38562 6.56209 5.29934 6.52287 5.2 6.51764C5.10588 6.51241 5.02222 6.5464 4.94902 6.6196L3.89804 7.69411C3.81961 7.76732 3.78039 7.85359 3.78039 7.95294C3.78562 8.05228 3.82745 8.13333 3.90588 8.19607C3.97385 8.26928 4.0549 8.30588 4.14902 8.30588C4.24836 8.30588 4.33464 8.27189 4.40784 8.20392ZM5.52156 9.81176L6.83137 9.0745C6.92549 9.02222 6.983 8.94901 7.00392 8.8549C7.03006 8.76078 7.01699 8.67189 6.9647 8.58823C6.91242 8.50457 6.83921 8.44705 6.7451 8.41568C6.65621 8.38431 6.56732 8.39477 6.47843 8.44705L5.16862 9.17647C5.07451 9.22875 5.01699 9.30457 4.99608 9.40392C4.97516 9.50326 4.99085 9.59215 5.04313 9.67058C5.09542 9.75947 5.16601 9.81699 5.2549 9.84313C5.34379 9.86927 5.43268 9.85882 5.52156 9.81176ZM6.1098 11.6314L7.56862 11.2549C7.66274 11.2288 7.73333 11.1738 7.78039 11.0902C7.83268 11.0013 7.84575 10.9098 7.8196 10.8157C7.79346 10.7216 7.73856 10.6484 7.6549 10.5961C7.57124 10.5438 7.47974 10.5307 7.38039 10.5569L5.92941 10.9333C5.83006 10.9595 5.75686 11.0144 5.7098 11.098C5.66274 11.1817 5.64967 11.2706 5.67058 11.3647C5.70196 11.464 5.75686 11.5399 5.83529 11.5921C5.91895 11.6444 6.01045 11.6575 6.1098 11.6314ZM6.2196 13.4745L7.71764 13.5137C7.81699 13.5137 7.90065 13.4797 7.96862 13.4118C8.04183 13.3438 8.07843 13.2601 8.07843 13.1608C8.08366 13.0667 8.05228 12.983 7.98431 12.9098C7.91634 12.8366 7.83268 12.8 7.73333 12.8L6.23529 12.7608C6.13071 12.7608 6.04444 12.7948 5.97647 12.8627C5.90849 12.9307 5.87189 13.0144 5.86666 13.1137C5.86666 13.2131 5.90065 13.2993 5.96862 13.3725C6.0366 13.4405 6.12026 13.4745 6.2196 13.4745ZM14.9098 10.8314L15.1216 10.0627C14.1542 9.86405 13.2523 9.47189 12.4157 8.88627C11.5791 8.30065 10.8915 7.54509 10.3529 6.6196C9.81961 5.68889 9.5085 4.71372 9.41961 3.69412C9.33072 2.67451 9.44053 1.69412 9.74902 0.752941L8.98039 0.580392C8.64575 1.61569 8.52549 2.69542 8.6196 3.81961C8.71372 4.94379 9.0536 6.01307 9.63922 7.02745C10.2248 8.04182 10.9804 8.87058 11.9059 9.51372C12.8366 10.1569 13.8379 10.5961 14.9098 10.8314ZM9.74902 3.23921C9.84837 3.24444 9.93203 3.21568 10 3.15294C10.068 3.08497 10.102 2.99869 10.102 2.89412C10.1072 2.79477 10.0758 2.71111 10.0078 2.64314C9.93987 2.56993 9.85621 2.53072 9.75687 2.52549L8.25882 2.47843C8.15425 2.48366 8.06797 2.52287 8 2.59608C7.93202 2.66405 7.89804 2.74771 7.89804 2.84706C7.89281 2.94117 7.92418 3.02483 7.99215 3.09804C8.06013 3.16601 8.14379 3.2 8.24313 3.2L9.74902 3.23921ZM9.93726 5.01176C10.0366 4.98562 10.1098 4.93072 10.1569 4.84706C10.2039 4.7634 10.2118 4.67451 10.1804 4.58039C10.1595 4.48104 10.1072 4.40784 10.0235 4.36078C9.9451 4.30849 9.85621 4.29542 9.75687 4.32157L8.29804 4.69019C8.19869 4.72157 8.12549 4.77908 8.07843 4.86274C8.0366 4.9464 8.03137 5.03529 8.06274 5.12941C8.07843 5.22875 8.12549 5.30457 8.20392 5.35686C8.28758 5.40392 8.37908 5.41176 8.47843 5.38039L9.93726 5.01176ZM10.7843 6.78431C10.8732 6.73202 10.9281 6.66143 10.949 6.57254C10.9752 6.48366 10.9647 6.39215 10.9176 6.29804C10.8706 6.21438 10.8 6.15686 10.7059 6.12549C10.6118 6.09411 10.5229 6.10719 10.4392 6.1647L9.12156 6.9098C9.03268 6.95686 8.97777 7.03006 8.95686 7.12941C8.93594 7.22352 8.95163 7.31241 9.00392 7.39607C9.04575 7.47973 9.11372 7.53725 9.20784 7.56862C9.30196 7.6 9.39085 7.58692 9.47451 7.52941L10.7843 6.78431ZM12.0784 8.19607C12.1516 8.11764 12.1856 8.02875 12.1804 7.92941C12.1804 7.83006 12.1438 7.7464 12.0706 7.67843C12.0026 7.61045 11.919 7.57647 11.8196 7.57647C11.7255 7.57647 11.6418 7.61307 11.5686 7.68627L10.5098 8.76078C10.4366 8.82875 10.4026 8.91241 10.4078 9.01176C10.4131 9.10588 10.4523 9.18692 10.5255 9.2549C10.5935 9.32287 10.6745 9.35947 10.7686 9.3647C10.868 9.3647 10.9516 9.3281 11.0196 9.2549L12.0784 8.19607ZM13.6235 9.19999C13.6706 9.1111 13.6784 9.0196 13.6471 8.92548C13.6209 8.83137 13.566 8.75816 13.4824 8.70588C13.3987 8.66405 13.3072 8.6562 13.2078 8.68235C13.1137 8.70326 13.0458 8.75816 13.0039 8.84705L12.2824 10.1647C12.2301 10.2536 12.217 10.3451 12.2431 10.4392C12.2693 10.5333 12.3268 10.6039 12.4157 10.651C12.4993 10.698 12.5882 10.7085 12.6824 10.6823C12.7817 10.6562 12.8549 10.5987 12.902 10.5098L13.6235 9.19999ZM8 16C9.09281 16 10.1203 15.7908 11.0824 15.3725C12.0497 14.9542 12.902 14.3765 13.6392 13.6392C14.3765 12.902 14.9542 12.0523 15.3725 11.0902C15.7908 10.1229 16 9.0928 16 7.99999C16 6.90719 15.7908 5.87973 15.3725 4.91764C14.9542 3.95032 14.3765 3.09804 13.6392 2.36078C12.902 1.62353 12.0497 1.04575 11.0824 0.627451C10.115 0.20915 9.08496 0 7.99215 0C6.89934 0 5.86928 0.20915 4.90196 0.627451C3.93987 1.04575 3.09019 1.62353 2.35294 2.36078C1.62091 3.09804 1.04575 3.95032 0.627451 4.91764C0.20915 5.87973 0 6.90719 0 7.99999C0 9.0928 0.20915 10.1229 0.627451 11.0902C1.04575 12.0523 1.62353 12.902 2.36078 13.6392C3.09804 14.3765 3.94771 14.9542 4.9098 15.3725C5.87712 15.7908 6.90719 16 8 16ZM8 14.9333C7.05359 14.9333 6.16209 14.7503 5.32549 14.3843C4.48889 14.0235 3.75163 13.5242 3.11372 12.8863C2.47582 12.2484 1.97385 11.5111 1.60784 10.6745C1.24706 9.8379 1.06667 8.9464 1.06667 7.99999C1.06667 7.05359 1.24706 6.16209 1.60784 5.32549C1.97385 4.48889 2.4732 3.75163 3.10588 3.11372C3.74379 2.47582 4.48104 1.97647 5.31764 1.61569C6.15424 1.24967 7.04575 1.06667 7.99215 1.06667C8.93856 1.06667 9.83007 1.24967 10.6667 1.61569C11.5033 1.97647 12.2405 2.47582 12.8784 3.11372C13.5216 3.75163 14.0235 4.48889 14.3843 5.32549C14.7503 6.16209 14.9333 7.05359 14.9333 7.99999C14.9333 8.9464 14.7503 9.8379 14.3843 10.6745C14.0235 11.5111 13.5242 12.2484 12.8863 12.8863C12.2484 13.5242 11.5111 14.0235 10.6745 14.3843C9.83791 14.7503 8.9464 14.9333 8 14.9333Z"
		fill="currentColor"
	/>
</svg>
