<svg
	color="rgb(var(--foreground, 0, 0, 0))"
	viewBox="0 0 16 16"
	fill="none"
	xmlns="http://www.w3.org/2000/svg"
>
	<path
		d="M0 8C0 8.92549 0.151634 9.80654 0.454902 10.6431C0.75817 11.4797 1.1817 12.2431 1.72549 12.9333C2.27451 13.6183 2.91503 14.2039 3.64706 14.6902C4.38431 15.1765 5.18431 15.5294 6.04706 15.749C6.16732 15.4196 6.26667 15.0771 6.3451 14.7216C6.42353 14.3712 6.4732 14.0183 6.49412 13.6627L6.16471 13.6471C6.06013 13.6471 5.97124 13.6105 5.89804 13.5373C5.83007 13.4588 5.79608 13.3699 5.79608 13.2706C5.80131 13.166 5.84052 13.0797 5.91373 13.0118C5.98693 12.9438 6.07582 12.9098 6.18039 12.9098L6.50981 12.9255C6.50458 12.7111 6.4915 12.4993 6.47059 12.2902C6.44967 12.081 6.4183 11.8719 6.37647 11.6627L6.04706 11.749C5.94248 11.7752 5.84837 11.7621 5.76471 11.7098C5.68105 11.6523 5.62353 11.5739 5.59216 11.4745C5.57124 11.3804 5.58431 11.2889 5.63137 11.2C5.68366 11.1111 5.75948 11.0536 5.85882 11.0275L6.18824 10.9412C6.12549 10.7373 6.05229 10.5359 5.96863 10.3373C5.8902 10.1333 5.80131 9.93203 5.70196 9.73334L5.44314 9.87451C5.34902 9.92157 5.2549 9.93203 5.16079 9.90588C5.0719 9.87974 5.00131 9.81961 4.94902 9.72549C4.8915 9.64183 4.8732 9.55033 4.89412 9.45098C4.92026 9.34641 4.98039 9.26798 5.07451 9.21569L5.32549 9.08235C5.2 8.88889 5.06667 8.70327 4.92549 8.52549C4.78431 8.34771 4.63529 8.17778 4.47843 8.01569L4.29804 8.21177C4.21961 8.28497 4.13072 8.32157 4.03137 8.32157C3.93726 8.31634 3.85098 8.27713 3.77255 8.20392C3.69935 8.13595 3.66013 8.05229 3.6549 7.95294C3.64967 7.84837 3.68628 7.75948 3.76471 7.68628L3.9451 7.49804C3.79346 7.36732 3.6366 7.24445 3.47451 7.12941C3.31765 7.01438 3.15556 6.90458 2.98824 6.8L2.81569 7.13726C2.7634 7.23137 2.6902 7.2915 2.59608 7.31765C2.50196 7.34379 2.41046 7.33072 2.32157 7.27843C2.22745 7.23137 2.16471 7.15817 2.13333 7.05883C2.10719 6.95948 2.12026 6.86275 2.17255 6.76863L2.3451 6.43922C2.02614 6.28235 1.69412 6.14902 1.34902 6.03922C1.00915 5.92941 0.666667 5.84575 0.321569 5.78824C0.10719 6.49412 0 7.23137 0 8ZM8 16C9.1085 16 10.1516 15.783 11.1294 15.349C12.1072 14.9203 12.9673 14.3294 13.7098 13.5765C14.4523 12.8183 15.0196 11.9503 15.4118 10.9726C15.0353 10.9046 14.6641 10.8105 14.298 10.6902C13.932 10.5699 13.5765 10.4261 13.2314 10.2588L13.051 10.5882C13.0039 10.6824 12.9307 10.7425 12.8314 10.7686C12.732 10.7948 12.6379 10.7843 12.549 10.7373C12.4601 10.685 12.4 10.6092 12.3686 10.5098C12.3425 10.4105 12.3582 10.3163 12.4157 10.2275L12.5882 9.91373C12.3739 9.78301 12.1647 9.64706 11.9608 9.50588C11.7569 9.35948 11.5582 9.20523 11.3647 9.04314L11.1137 9.29412C11.0458 9.36732 10.9595 9.40392 10.8549 9.40392C10.7556 9.40392 10.6719 9.36732 10.6039 9.29412C10.5255 9.22092 10.4837 9.13464 10.4784 9.0353C10.4784 8.93595 10.515 8.85229 10.5882 8.78432L10.8392 8.52549C10.6614 8.34249 10.4915 8.15164 10.3294 7.95294C10.1725 7.74902 10.0235 7.53464 9.88235 7.30981L9.52157 7.51373C9.43268 7.57124 9.33856 7.58432 9.23922 7.55294C9.1451 7.52157 9.07712 7.46405 9.03529 7.38039C8.98301 7.2915 8.96732 7.19739 8.98823 7.09804C9.01438 6.99869 9.0719 6.92549 9.16078 6.87843L9.51373 6.67451C9.38824 6.43399 9.27582 6.19085 9.17647 5.9451C9.08235 5.69935 8.99869 5.45098 8.92549 5.2L8.49412 5.30196C8.38954 5.33333 8.29542 5.32288 8.21176 5.27059C8.1281 5.2183 8.07843 5.14248 8.06274 5.04314C8.03137 4.94379 8.0366 4.85229 8.07843 4.76863C8.12549 4.67974 8.20131 4.61961 8.30588 4.58824L8.75294 4.47843C8.70588 4.24314 8.66928 4.00784 8.64314 3.77255C8.62222 3.53726 8.60915 3.30196 8.60392 3.06667L8.25098 3.05098C8.14641 3.05098 8.05752 3.01699 7.98431 2.94902C7.91634 2.87582 7.88758 2.78954 7.89804 2.6902C7.89804 2.58562 7.93203 2.49673 8 2.42353C8.0732 2.35033 8.16209 2.31111 8.26667 2.30588L8.61961 2.32157C8.65621 1.93987 8.71111 1.56078 8.78431 1.18431C8.86274 0.807843 8.96993 0.439216 9.10588 0.0784314C8.72418 0.0261438 8.35294 0 7.99216 0C6.88366 0 5.84052 0.214379 4.86275 0.643137C3.8902 1.0719 3.03529 1.66536 2.29804 2.42353C1.56078 3.17647 0.99085 4.03922 0.588235 5.01177C0.959477 5.07974 1.32549 5.17124 1.68627 5.28628C2.05229 5.40131 2.40523 5.5451 2.7451 5.71765L2.91765 5.41177C2.96471 5.31765 3.03791 5.26013 3.13726 5.23922C3.2366 5.2183 3.33333 5.23399 3.42745 5.28628C3.51634 5.33333 3.57386 5.40392 3.6 5.49804C3.62614 5.59216 3.61307 5.68366 3.56079 5.77255L3.39608 6.07059C3.79869 6.31111 4.18039 6.58562 4.54118 6.89412L4.8549 6.57255C4.92811 6.49935 5.01438 6.46536 5.11373 6.47059C5.21307 6.47582 5.30196 6.51765 5.38039 6.59608C5.44837 6.66405 5.48497 6.74771 5.4902 6.84706C5.49543 6.94118 5.45882 7.02745 5.38039 7.10588L5.07451 7.41177C5.26275 7.6 5.43791 7.79869 5.6 8.00784C5.76732 8.217 5.92418 8.43399 6.07059 8.65882L6.43137 8.46275C6.52549 8.41046 6.61961 8.4 6.71372 8.43137C6.80784 8.46275 6.88104 8.52026 6.93333 8.60392C6.98562 8.68758 6.99869 8.77909 6.97255 8.87843C6.95163 8.97778 6.8915 9.0536 6.79216 9.10588L6.43922 9.30196C6.55948 9.53203 6.66667 9.76732 6.76078 10.0078C6.86013 10.2431 6.9464 10.481 7.01961 10.7216L7.35686 10.6353C7.46144 10.6092 7.55555 10.6222 7.63921 10.6745C7.7281 10.7268 7.78562 10.8026 7.81176 10.902C7.84314 11.0013 7.83268 11.0954 7.78039 11.1843C7.7281 11.2732 7.65229 11.3307 7.55294 11.3569L7.2 11.451C7.29412 11.932 7.34379 12.4261 7.34902 12.9333L7.72549 12.949C7.83006 12.949 7.91634 12.9856 7.98431 13.0588C8.05752 13.132 8.0915 13.2183 8.08627 13.3176C8.08627 13.4222 8.04967 13.5111 7.97647 13.5843C7.90327 13.6523 7.81438 13.6863 7.7098 13.6863L7.32549 13.6706C7.29935 14.0523 7.24444 14.4314 7.16078 14.8078C7.08235 15.1843 6.97778 15.5529 6.84706 15.9137C7.23921 15.9712 7.62353 16 8 16ZM16 8C16 7.06928 15.8458 6.18562 15.5373 5.34902C15.234 4.50719 14.8052 3.74118 14.251 3.05098C13.6967 2.36078 13.0484 1.77516 12.3059 1.29412C11.5686 0.807843 10.766 0.454902 9.89804 0.235294C9.77778 0.569935 9.67843 0.915033 9.6 1.27059C9.5268 1.62614 9.47712 1.9817 9.45098 2.33726L9.81176 2.35294C9.91111 2.35817 9.99739 2.39739 10.0706 2.47059C10.1438 2.54379 10.1778 2.63268 10.1725 2.73726C10.1725 2.84706 10.1359 2.93595 10.0627 3.00392C9.99477 3.06667 9.9085 3.09543 9.80392 3.0902L9.44314 3.07451C9.44837 3.2732 9.46144 3.4719 9.48235 3.67059C9.50327 3.86928 9.53203 4.06536 9.56863 4.25882L9.81176 4.20392C9.91111 4.17778 10.0026 4.19085 10.0863 4.24314C10.1699 4.29543 10.2248 4.37124 10.251 4.47059C10.2719 4.56994 10.2614 4.66405 10.2196 4.75294C10.1778 4.8366 10.1046 4.8915 10 4.91765L9.74902 4.97255C9.81176 5.19216 9.88497 5.40654 9.96863 5.61569C10.0523 5.82484 10.149 6.03399 10.2588 6.24314L10.5176 6.10196C10.6065 6.04445 10.698 6.03137 10.7922 6.06275C10.8915 6.09412 10.9647 6.15425 11.0118 6.24314C11.0641 6.34248 11.0771 6.43922 11.051 6.53333C11.0248 6.62222 10.9673 6.69281 10.8784 6.7451L10.6196 6.88628C10.7451 7.07451 10.8758 7.2549 11.0118 7.42745C11.1477 7.6 11.2863 7.76471 11.4275 7.92157L11.6784 7.67059C11.7569 7.59739 11.8458 7.56079 11.9451 7.56079C12.0444 7.56079 12.1307 7.59477 12.2039 7.66275C12.2771 7.73595 12.3137 7.82484 12.3137 7.92941C12.319 8.02876 12.285 8.12026 12.2118 8.20392L11.9686 8.44706C12.1307 8.58824 12.2954 8.72157 12.4627 8.84706C12.6353 8.96732 12.8131 9.08235 12.9961 9.19216L13.1608 8.87059C13.2026 8.7817 13.2732 8.72418 13.3725 8.69804C13.4719 8.66667 13.566 8.67451 13.6549 8.72157C13.7438 8.77909 13.8013 8.85752 13.8275 8.95686C13.8588 9.05098 13.851 9.1451 13.8039 9.23922L13.6392 9.55294C14.2771 9.86144 14.9595 10.0732 15.6863 10.1882C15.7909 9.83791 15.8693 9.48235 15.9216 9.12157C15.9739 8.75556 16 8.3817 16 8Z"
		fill="currentColor"
	/>
</svg>
