<svg
	color="rgb(var(--foreground, 0, 0, 0))"
	viewBox="0 0 16 16"
	fill="none"
	xmlns="http://www.w3.org/2000/svg"
>
	<path
		d="M0.831364 8.54899C1.54247 7.57645 2.37142 6.73724 3.31781 6.03137C4.26421 5.32027 5.3021 4.77125 6.4315 4.38433C7.5609 3.9974 8.75566 3.80394 10.0158 3.80394C10.7792 3.80394 11.5164 3.87714 12.2275 4.02355C12.9439 4.16472 13.6419 4.38171 14.3216 4.67452L14.149 3.66277C13.5111 3.42748 12.8419 3.24709 12.1412 3.1216C11.4406 2.99611 10.7321 2.93336 10.0158 2.93336C8.67723 2.93336 7.39881 3.14251 6.18053 3.56081C4.96747 3.97388 3.85114 4.55949 2.83154 5.31765C1.81194 6.07058 0.928095 6.95424 0.18039 7.9686L0.831364 8.54899ZM14.1647 11.7097L14.9961 11.4666C14.8288 10.8758 14.5595 10.3424 14.1883 9.86662C13.8222 9.39081 13.3935 8.95944 12.902 8.57252C12.4105 8.18037 11.8955 7.81436 11.3569 7.47449C10.8236 7.13463 10.2981 6.8026 9.78049 6.47842C9.26808 6.15424 8.80272 5.82222 8.38443 5.48236C7.97136 5.14249 7.63934 4.7791 7.38836 4.39217C7.14261 4.00002 7.01973 3.56604 7.01973 3.09022C7.01973 2.5935 7.14261 2.16213 7.38836 1.79612C7.63934 1.42488 7.9975 1.11639 8.46286 0.87064L7.92169 0.172608C7.38313 0.481102 6.95176 0.888941 6.62758 1.39612C6.30863 1.89808 6.14915 2.46278 6.14915 3.09022C6.14915 3.66538 6.27464 4.18564 6.52562 4.65099C6.78183 5.11635 7.12431 5.5451 7.55306 5.93725C7.98182 6.32941 8.45763 6.70064 8.9805 7.05097C9.50337 7.40129 10.0367 7.74638 10.5805 8.08625C11.1243 8.42612 11.6393 8.77905 12.1256 9.14506C12.6171 9.50584 13.0432 9.89799 13.4039 10.3215C13.7647 10.7398 14.0183 11.2026 14.1647 11.7097ZM2.73742 13.5607L3.74134 13.6548C3.4433 13.0901 3.27075 12.4705 3.22369 11.796C3.17664 11.1163 3.18971 10.4078 3.26291 9.67055C3.33611 8.9333 3.41193 8.19082 3.49036 7.44312C3.56879 6.69541 3.58186 5.96601 3.52957 5.25491C3.51389 5.00393 3.45114 4.71112 3.34134 4.37649C3.23154 4.03662 3.07729 3.73074 2.8786 3.45885C2.67991 3.18173 2.43933 3.00918 2.15698 2.94121L1.93723 3.78826C2.06272 3.80394 2.17789 3.90329 2.28247 4.08629C2.38704 4.2693 2.47338 4.47844 2.54135 4.71374C2.60932 4.94903 2.64854 5.15295 2.65899 5.32549C2.70082 5.94771 2.68514 6.60653 2.61194 7.30194C2.54396 7.99736 2.47331 8.70585 2.40011 9.42741C2.32691 10.149 2.30338 10.8601 2.32952 11.5607C2.3609 12.2614 2.4969 12.928 2.73742 13.5607ZM9.05893 15.4273L9.75696 14.9019C8.83671 13.762 8.06547 12.6169 7.44326 11.4666C6.82104 10.3111 6.32432 9.19735 5.95308 8.12546C5.58707 7.05358 5.32563 6.06274 5.16877 5.15295C5.01714 4.24315 4.95178 3.45362 4.9727 2.78435C4.99361 2.11507 5.07988 1.6105 5.23152 1.27064L4.28251 1.40397C4.16225 1.89024 4.11257 2.50984 4.13349 3.26277C4.1544 4.0157 4.25898 4.86537 4.44721 5.81176C4.63544 6.75293 4.92302 7.75684 5.30995 8.8235C5.69687 9.89015 6.19883 10.983 6.81581 12.1019C7.4328 13.2208 8.18051 14.3293 9.05893 15.4273ZM8.00012 15.9999C9.09291 15.9999 10.1204 15.7907 11.0824 15.3724C12.0497 14.9542 12.902 14.3764 13.6392 13.6391C14.3765 12.9019 14.9543 12.0522 15.3726 11.0901C15.7909 10.1228 16 9.09277 16 7.99998C16 6.90718 15.7909 5.87974 15.3726 4.91766C14.9543 3.95035 14.3765 3.09807 13.6392 2.36082C12.902 1.62357 12.0497 1.0458 11.0824 0.627505C10.1151 0.209209 9.08507 6.10352e-05 7.99227 6.10352e-05C6.89947 6.10352e-05 5.86942 0.209209 4.90211 0.627505C3.94003 1.0458 3.0903 1.62357 2.35305 2.36082C1.62104 3.09807 1.04574 3.95035 0.627444 4.91766C0.209148 5.87974 0 6.90718 0 7.99998C0 9.09277 0.209148 10.1228 0.627444 11.0901C1.04574 12.0522 1.62365 12.9019 2.3609 13.6391C3.09814 14.3764 3.94787 14.9542 4.90995 15.3724C5.87726 15.7907 6.90732 15.9999 8.00012 15.9999ZM8.00012 14.9332C7.05372 14.9332 6.16223 14.7502 5.32563 14.3842C4.48904 14.0234 3.75179 13.5241 3.11389 12.8862C2.47599 12.2483 1.97384 11.5111 1.60783 10.6745C1.24705 9.83786 1.06666 8.94637 1.06666 7.99998C1.06666 7.05358 1.24705 6.16209 1.60783 5.32549C1.97384 4.4889 2.47338 3.75166 3.10605 3.11375C3.74395 2.47585 4.4812 1.97651 5.31779 1.61573C6.15438 1.24972 7.04588 1.06672 7.99227 1.06672C8.93867 1.06672 9.83016 1.24972 10.6668 1.61573C11.5033 1.97651 12.2406 2.47585 12.8785 3.11375C13.5216 3.75166 14.0236 4.4889 14.3843 5.32549C14.7503 6.16209 14.9333 7.05358 14.9333 7.99998C14.9333 8.94637 14.7503 9.83786 14.3843 10.6745C14.0236 11.5111 13.5242 12.2483 12.8863 12.8862C12.2484 13.5241 11.5112 14.0234 10.6746 14.3842C9.83801 14.7502 8.94651 14.9332 8.00012 14.9332Z"
		fill="currentColor"
	/>
</svg>
