<svg
	color="rgb(var(--foreground, 0, 0, 0))"
	viewBox="0 0 16 16"
	fill="none"
	xmlns="http://www.w3.org/2000/svg"
>
	<path
		d="M0 8C0 8.6536 0.078432 9.28629 0.235296 9.89806C0.39216 10.5098 0.614384 11.0902 0.901968 11.6392L2.25884 10.2824C2.34773 10.1935 2.45231 10.149 2.57257 10.149C2.69806 10.149 2.80525 10.1935 2.89414 10.2824C2.98303 10.3713 3.02747 10.4785 3.02747 10.6039C3.0327 10.7242 2.98826 10.8314 2.89414 10.9255L1.37256 12.4471C1.46668 12.583 1.56603 12.7164 1.6706 12.8471C1.77518 12.9778 1.88237 13.1059 1.99217 13.2314L13.2392 1.99211C13.1137 1.87708 12.983 1.76989 12.847 1.67054C12.7163 1.56596 12.583 1.46662 12.447 1.3725L10.9098 2.90977C10.8156 3.00388 10.7058 3.05094 10.5804 3.05094C10.4601 3.04571 10.3555 2.99866 10.2666 2.90977C10.1777 2.82088 10.1333 2.7163 10.1333 2.59604C10.1333 2.47055 10.1777 2.36074 10.2666 2.26662L11.6313 0.90975C11.0875 0.616937 10.5071 0.392099 9.89015 0.235235C9.27838 0.078371 8.6457 -6.10352e-05 7.9921 -6.10352e-05C6.89928 -6.10352e-05 5.86933 0.209091 4.902 0.627395C3.9399 1.0457 3.09022 1.62348 2.35296 2.36074C1.62093 3.098 1.04576 3.9503 0.627456 4.91762C0.209152 5.87972 0 6.90718 0 8ZM9.70976 4.10978L8.63524 5.18429C8.54635 5.27318 8.43916 5.31763 8.31367 5.31763C8.19341 5.31763 8.08622 5.27318 7.9921 5.18429C7.90844 5.0954 7.86399 4.98821 7.85876 4.86272C7.85876 4.73723 7.90321 4.63004 7.9921 4.54115L9.07446 3.46663C9.16335 3.38297 9.26792 3.34114 9.38819 3.34114C9.51368 3.33591 9.62087 3.37774 9.70976 3.46663C9.79865 3.56075 9.84309 3.67056 9.84309 3.79605C9.84309 3.91631 9.79865 4.02089 9.70976 4.10978ZM7.44307 6.3843L6.36083 7.45882C6.27717 7.54248 6.1726 7.58431 6.04711 7.58431C5.92162 7.58431 5.81442 7.54248 5.72554 7.45882C5.63665 7.3647 5.5922 7.25751 5.5922 7.13725C5.5922 7.01176 5.63665 6.90457 5.72554 6.81568L6.80005 5.74116C6.89417 5.65227 7.00136 5.60783 7.12162 5.60783C7.24712 5.60783 7.35418 5.65227 7.44307 5.74116C7.53196 5.83005 7.57641 5.93724 7.57641 6.06273C7.57641 6.18822 7.53196 6.29541 7.44307 6.3843ZM5.16867 8.65099L4.10199 9.72551C4.00787 9.8144 3.89807 9.85884 3.77258 9.85884C3.65232 9.85884 3.54774 9.8144 3.45885 9.72551C3.36473 9.63662 3.31767 9.53204 3.31767 9.41178C3.3229 9.28629 3.36996 9.1791 3.45885 9.09021L4.52553 8.00784C4.61442 7.91373 4.72161 7.86928 4.8471 7.87451C4.97259 7.87451 5.07978 7.91896 5.16867 8.00784C5.25756 8.09674 5.302 8.20393 5.302 8.32942C5.30723 8.44968 5.26279 8.55687 5.16867 8.65099ZM7.99994 16.0001C9.09276 16.0001 10.1202 15.7909 11.0823 15.3726C12.0496 14.9543 12.9019 14.3765 13.6392 13.6393C14.3765 12.902 14.9542 12.0523 15.3725 11.0902C15.7908 10.1229 16 9.09282 16 8C16 7.35163 15.9216 6.72156 15.7647 6.10979C15.6078 5.49279 15.3856 4.9124 15.098 4.3686L13.7412 5.71763C13.647 5.81175 13.5399 5.85881 13.4196 5.85881C13.2993 5.85358 13.1948 5.80652 13.1059 5.71763C13.017 5.62351 12.9699 5.51632 12.9647 5.39606C12.9647 5.2758 13.0117 5.16861 13.1059 5.07449L14.6274 3.56075C14.5333 3.4248 14.434 3.29147 14.3294 3.16075C14.2301 3.0248 14.1255 2.89669 14.0157 2.77643L2.76865 14.0157C2.89414 14.1255 3.02225 14.2301 3.15297 14.3295C3.28369 14.434 3.41702 14.5334 3.55297 14.6275L5.09024 13.0902C5.18435 12.9909 5.29154 12.9438 5.41181 12.9491C5.5373 12.9543 5.64449 13.0013 5.73338 13.0902C5.82227 13.1791 5.86671 13.2837 5.86671 13.404C5.87194 13.5242 5.8275 13.6314 5.73338 13.7255L4.36082 15.0981C4.90984 15.3857 5.49024 15.6079 6.10201 15.7648C6.71378 15.9216 7.34634 16.0001 7.99994 16.0001ZM12.5412 6.9098L11.4745 7.99216C11.3856 8.08105 11.2784 8.12549 11.1529 8.12549C11.0274 8.12026 10.9202 8.07582 10.8313 7.99216C10.7424 7.89804 10.698 7.79085 10.698 7.67059C10.698 7.5451 10.7424 7.43791 10.8313 7.34902L11.9059 6.2745C11.9947 6.18561 12.0993 6.14116 12.2196 6.14116C12.3451 6.14116 12.4523 6.18561 12.5412 6.2745C12.6353 6.36339 12.6797 6.46796 12.6745 6.58823C12.6745 6.70849 12.63 6.81568 12.5412 6.9098ZM10.2745 9.18433L9.19995 10.251C9.11106 10.3451 9.00387 10.3922 8.87838 10.3922C8.75812 10.3922 8.65093 10.3451 8.55681 10.251C8.46792 10.1673 8.42347 10.0628 8.42347 9.93727C8.42347 9.80655 8.46792 9.69675 8.55681 9.60786L9.63917 8.54118C9.72806 8.45229 9.83263 8.40785 9.9529 8.40785C10.0784 8.40785 10.1856 8.45229 10.2745 8.54118C10.3634 8.63007 10.4078 8.73726 10.4078 8.86275C10.4078 8.98302 10.3634 9.09021 10.2745 9.18433ZM8.00778 11.451L6.92554 12.5255C6.83666 12.6144 6.72947 12.6589 6.60397 12.6589C6.48371 12.6589 6.37914 12.6144 6.29025 12.5255C6.20136 12.4366 6.15691 12.3321 6.15691 12.2118C6.15691 12.0863 6.20136 11.9765 6.29025 11.8824L7.36464 10.8079C7.45353 10.719 7.56072 10.6771 7.68621 10.6824C7.8117 10.6824 7.91889 10.7242 8.00778 10.8079C8.09667 10.902 8.14112 11.0118 8.14112 11.1373C8.14112 11.2628 8.09667 11.3673 8.00778 11.451Z"
		fill="currentColor"
	/>
</svg>
