<svg
	color="rgb(var(--foreground, 0, 0, 0))"
	viewBox="0 0 16 16"
	fill="none"
	xmlns="http://www.w3.org/2000/svg"
>
	<path
		d="M3.37252 13.3882L13.5608 3.19219L12.8157 2.4471L2.61959 12.6353L3.37252 13.3882ZM2.4392 10.2196L1.39607 11.2627C1.30718 11.3464 1.26274 11.4483 1.26274 11.5686C1.26274 11.6889 1.30718 11.7908 1.39607 11.8745C1.47973 11.9634 1.58169 12.0078 1.70195 12.0078C1.82221 12.0078 1.92678 11.9634 2.01567 11.8745L3.05096 10.8392C3.13984 10.7503 3.18167 10.6483 3.17645 10.5333C3.17645 10.4131 3.13462 10.3085 3.05096 10.2196C2.9673 10.1307 2.86534 10.0863 2.74508 10.0863C2.62482 10.0863 2.52286 10.1307 2.4392 10.2196ZM4.63526 8.01568L3.59997 9.05881C3.51108 9.14247 3.46664 9.24443 3.46664 9.36469C3.46664 9.48495 3.51108 9.58953 3.59997 9.67842C3.68363 9.76208 3.78559 9.80391 3.90585 9.80391C4.02611 9.80391 4.13069 9.76208 4.21957 9.67842L5.25486 8.63529C5.34375 8.5464 5.38558 8.44182 5.38035 8.32156C5.38035 8.2013 5.33852 8.09934 5.25486 8.01568C5.1712 7.9268 5.06924 7.88235 4.94898 7.88235C4.82872 7.88235 4.72415 7.9268 4.63526 8.01568ZM6.83916 5.81178L5.79603 6.85491C5.71237 6.93857 5.67054 7.04053 5.67054 7.16079C5.67054 7.28105 5.71237 7.38562 5.79603 7.47451C5.88492 7.55817 5.9895 7.6 6.10976 7.6C6.23002 7.6 6.33198 7.55817 6.41564 7.47451L7.45876 6.43138C7.54765 6.34249 7.5921 6.24053 7.5921 6.1255C7.5921 6.00524 7.54765 5.90067 7.45876 5.81178C7.36988 5.72812 7.2653 5.68629 7.14504 5.68629C7.03001 5.68629 6.92805 5.72812 6.83916 5.81178ZM9.04319 3.60788L7.99994 4.651C7.91628 4.73989 7.87445 4.84447 7.87445 4.96473C7.87445 5.07976 7.91628 5.18172 7.99994 5.27061C8.08883 5.35427 8.1934 5.39871 8.31366 5.40394C8.43392 5.40394 8.536 5.3595 8.61966 5.27061L9.66279 4.22748C9.74645 4.14382 9.78828 4.04186 9.78828 3.9216C9.78828 3.80134 9.74645 3.69676 9.66279 3.60788C9.5739 3.52422 9.46933 3.48239 9.34907 3.48239C9.23404 3.48239 9.13208 3.52422 9.04319 3.60788ZM11.2471 1.41181L10.204 2.4471C10.1151 2.53599 10.0706 2.64056 10.0706 2.76082C10.0706 2.87586 10.1151 2.97782 10.204 3.0667C10.2929 3.15036 10.3948 3.19481 10.5098 3.20004C10.6301 3.20004 10.7347 3.15559 10.8236 3.0667L11.8667 2.02357C11.9504 1.93991 11.9922 1.83795 11.9922 1.71769C11.9922 1.59743 11.9504 1.49547 11.8667 1.41181C11.7778 1.32293 11.6732 1.27848 11.553 1.27848C11.4327 1.27848 11.3308 1.32293 11.2471 1.41181ZM5.17643 12.9333L4.14114 13.9686C4.05226 14.0575 4.00781 14.162 4.00781 14.2823C4.00781 14.4026 4.05226 14.5045 4.14114 14.5882C4.2248 14.6771 4.32676 14.7215 4.44702 14.7215C4.56728 14.7215 4.66924 14.6771 4.7529 14.5882L5.79603 13.5451C5.88492 13.4614 5.92937 13.3594 5.92937 13.2392C5.92937 13.1189 5.88492 13.017 5.79603 12.9333C5.70714 12.8496 5.60257 12.8078 5.48231 12.8078C5.36728 12.8026 5.26532 12.8444 5.17643 12.9333ZM7.38033 10.7215L6.3372 11.7647C6.25355 11.8536 6.21172 11.9581 6.21172 12.0784C6.21172 12.1987 6.25355 12.3006 6.3372 12.3843C6.42609 12.4732 6.53067 12.5176 6.65093 12.5176C6.77119 12.5176 6.87315 12.4732 6.95681 12.3843L7.99994 11.3411C8.08883 11.2575 8.13327 11.1555 8.13327 11.0353C8.13327 10.915 8.08883 10.8104 7.99994 10.7215C7.91105 10.6431 7.80647 10.6039 7.68621 10.6039C7.57118 10.5987 7.46922 10.6379 7.38033 10.7215ZM9.58436 8.52548L8.54123 9.56077C8.45234 9.64966 8.4079 9.75423 8.4079 9.87449C8.4079 9.99475 8.45234 10.0967 8.54123 10.1804C8.63012 10.2693 8.73208 10.3137 8.84711 10.3137C8.96737 10.3137 9.07195 10.2693 9.16083 10.1804L10.204 9.14509C10.2876 9.0562 10.3295 8.95162 10.3295 8.83136C10.3295 8.7111 10.2876 8.60914 10.204 8.52548C10.1151 8.4366 10.0105 8.39215 9.89024 8.39215C9.77521 8.39215 9.67325 8.4366 9.58436 8.52548ZM11.7883 6.32158L10.7451 7.36471C10.6562 7.44837 10.6118 7.55033 10.6118 7.67059C10.617 7.79085 10.6615 7.89542 10.7451 7.98431C10.834 8.06797 10.936 8.1098 11.051 8.1098C11.1713 8.1098 11.2759 8.06797 11.3647 7.98431L12.4 6.94118C12.4889 6.85229 12.5334 6.75033 12.5334 6.6353C12.5334 6.51504 12.4889 6.41047 12.4 6.32158C12.3164 6.23792 12.2144 6.19609 12.0941 6.19609C11.9739 6.19609 11.8719 6.23792 11.7883 6.32158ZM13.9922 4.11768L12.949 5.1608C12.8602 5.24969 12.8157 5.35427 12.8157 5.47453C12.8209 5.58956 12.8654 5.69152 12.949 5.78041C13.0327 5.86407 13.1347 5.9059 13.2549 5.9059C13.3752 5.9059 13.4771 5.86407 13.5608 5.78041L14.6039 4.73728C14.6928 4.64839 14.7373 4.54643 14.7373 4.4314C14.7373 4.31114 14.6928 4.20656 14.6039 4.11768C14.5203 4.03402 14.4183 3.99219 14.2981 3.99219C14.1778 3.99219 14.0758 4.03402 13.9922 4.11768ZM7.99994 6.10352e-05C6.90714 6.10352e-05 5.87708 0.20921 4.90977 0.627507C3.94768 1.0458 3.09801 1.62358 2.36077 2.36083C1.62352 3.09808 1.04574 3.95036 0.627446 4.91767C0.209149 5.87975 0 6.9072 0 8C0 9.0928 0.209149 10.1229 0.627446 11.0902C1.04574 12.0523 1.62352 12.9019 2.36077 13.6392C3.10324 14.3764 3.95552 14.9542 4.91761 15.3725C5.88492 15.7908 6.91498 15.9999 8.00778 15.9999C9.10058 15.9999 10.1281 15.7908 11.0902 15.3725C12.0575 14.9542 12.9072 14.3764 13.6392 13.6392C14.3765 12.9019 14.9543 12.0523 15.3726 11.0902C15.7909 10.1229 16 9.0928 16 8C16 6.9072 15.7909 5.87975 15.3726 4.91767C14.9543 3.95036 14.3765 3.09808 13.6392 2.36083C12.902 1.62358 12.0497 1.0458 11.0824 0.627507C10.1203 0.20921 9.09274 6.10352e-05 7.99994 6.10352e-05ZM7.99994 1.06672C8.94633 1.06672 9.83795 1.24972 10.6745 1.61573C11.5111 1.97652 12.2484 2.47586 12.8863 3.11376C13.5242 3.75167 14.0235 4.48891 14.3843 5.32551C14.7503 6.1621 14.9333 7.0536 14.9333 8C14.9333 8.9464 14.753 9.83789 14.3922 10.6745C14.0314 11.5111 13.532 12.2483 12.8941 12.8862C12.2562 13.5241 11.519 14.0235 10.6824 14.3843C9.8458 14.7503 8.95418 14.9333 8.00778 14.9333C7.06138 14.9333 6.16989 14.7503 5.33329 14.3843C4.4967 14.0235 3.75683 13.5241 3.1137 12.8862C2.4758 12.2483 1.97384 11.5111 1.60783 10.6745C1.24705 9.83789 1.06666 8.9464 1.06666 8C1.06666 7.0536 1.24705 6.1621 1.60783 5.32551C1.97384 4.48891 2.4758 3.75167 3.1137 3.11376C3.7516 2.47586 4.48885 1.97652 5.32545 1.61573C6.16204 1.24972 7.05354 1.06672 7.99994 1.06672Z"
		fill="currentColor"
	/>
</svg>
