<svg
	color="rgb(var(--foreground, 0, 0, 0))"
	viewBox="0 0 16 16"
	fill="none"
	xmlns="http://www.w3.org/2000/svg"
>
	<path
		d="M12.5192 12.5194C13.2803 11.7531 13.9181 10.9237 14.4325 10.0314C14.9469 9.13378 15.3353 8.21256 15.5978 7.26773C15.8603 6.31765 15.9941 5.37806 15.9994 4.44898C16.0099 3.51464 15.8918 2.63017 15.645 1.79557C15.5086 1.35465 15.3458 1.0397 15.1569 0.850736C14.9679 0.661769 14.6503 0.499048 14.2042 0.362572C13.3696 0.110616 12.4877 -0.0101124 11.5586 0.000385748C10.6296 0.00563482 9.68997 0.139486 8.73988 0.40194C7.7898 0.664394 6.86596 1.05283 5.96837 1.56723C5.07603 2.08164 4.24666 2.71941 3.48029 3.48052C2.71918 4.24689 2.08141 5.07887 1.56701 5.97646C1.0526 6.8688 0.664172 7.79001 0.401718 8.7401C0.139265 9.69018 0.00541311 10.6298 0.000164034 11.5589C-0.00508504 12.4879 0.115644 13.3698 0.36235 14.2044C0.498826 14.6453 0.66154 14.9603 0.850507 15.1492C1.03947 15.3382 1.35442 15.5009 1.79534 15.6374C2.62994 15.8893 3.51179 16.0101 4.44087 15.9996C5.37521 15.9943 6.31481 15.8605 7.25964 15.598C8.20973 15.3356 9.13094 14.9471 10.0233 14.4327C10.9209 13.9183 11.7529 13.2805 12.5192 12.5194ZM11.5901 11.5903C10.7083 12.4774 9.74771 13.1782 8.70839 13.6926C7.67432 14.207 6.60613 14.5246 5.50383 14.6453C4.40152 14.766 3.31232 14.682 2.23626 14.3934C2.09454 14.3566 1.98431 14.3172 1.90557 14.2752C1.82683 14.2333 1.76385 14.1703 1.7166 14.0863C1.67461 14.0023 1.63524 13.8868 1.5985 13.7398C1.3203 12.669 1.24156 11.5851 1.36229 10.488C1.48302 9.38573 1.79796 8.31755 2.30713 7.28348C2.82153 6.24941 3.52229 5.29145 4.40938 4.40961C5.29122 3.52252 6.2492 2.82439 7.28327 2.31523C8.32258 1.80082 9.39077 1.48325 10.4878 1.36252C11.5849 1.23654 12.6688 1.31265 13.7396 1.59086C13.8919 1.63285 14.0073 1.67747 14.0861 1.72471C14.1701 1.7667 14.233 1.82706 14.275 1.9058C14.317 1.98454 14.3564 2.09477 14.3931 2.23649C14.6818 3.31255 14.7658 4.40174 14.6451 5.50404C14.5244 6.60635 14.2068 7.67716 13.6924 8.71648C13.178 9.75054 12.4772 10.7085 11.5901 11.5903ZM9.31466 0.646022L8.31471 1.64597L14.3695 7.70865L15.3773 6.70083L9.31466 0.646022ZM0.653674 9.31487L6.70062 15.3776L7.70844 14.3697L1.65362 8.31492L0.653674 9.31487ZM4.87392 9.55895L6.44866 11.1258C6.5169 11.194 6.59826 11.2282 6.69274 11.2282C6.78723 11.2282 6.86859 11.194 6.93683 11.1258C7.00506 11.0576 7.03918 10.9762 7.03918 10.8817C7.03918 10.782 7.00506 10.698 6.93683 10.6298L5.36998 9.06291C5.30174 8.99468 5.21775 8.96056 5.11802 8.96056C5.02354 8.96056 4.94216 8.99468 4.87392 9.06291C4.80569 9.13115 4.77157 9.21251 4.77157 9.307C4.77157 9.40148 4.80569 9.48547 4.87392 9.55895ZM5.929 8.49601L7.50373 10.0707C7.57197 10.139 7.65333 10.1731 7.74781 10.1731C7.84229 10.1731 7.92365 10.139 7.99189 10.0707C8.06013 10.0025 8.09425 9.92114 8.09425 9.82665C8.09425 9.72692 8.06013 9.64294 7.99189 9.5747L6.42504 8.00785C6.3568 7.93961 6.27282 7.90549 6.17308 7.90549C6.0786 7.90549 5.99724 7.93961 5.929 8.00785C5.86076 8.07609 5.82665 8.15745 5.82665 8.25193C5.82665 8.34642 5.86076 8.42778 5.929 8.49601ZM6.98407 7.44095L8.55879 9.01567C8.62703 9.08391 8.70839 9.11803 8.80287 9.11803C8.89736 9.11803 8.97872 9.08391 9.04696 9.01567C9.11519 8.94743 9.14931 8.86607 9.14931 8.77159C9.14931 8.67186 9.11519 8.5905 9.04696 8.52751L7.47223 6.95279C7.40924 6.88455 7.32788 6.85043 7.22815 6.85043C7.13367 6.85043 7.05231 6.88455 6.98407 6.95279C6.91583 7.02102 6.88171 7.10239 6.88171 7.19687C6.88171 7.29135 6.91583 7.37271 6.98407 7.44095ZM8.03913 6.39376L9.60598 7.96061C9.67422 8.02885 9.75558 8.06297 9.85006 8.06297C9.9498 8.06297 10.0338 8.02885 10.102 7.96061C10.1703 7.89237 10.2044 7.81101 10.2044 7.71653C10.2044 7.62204 10.1703 7.54068 10.102 7.47245L8.53517 5.89772C8.46168 5.82948 8.3777 5.79537 8.28322 5.79537C8.18873 5.79537 8.10737 5.82948 8.03913 5.89772C7.97614 5.96596 7.94465 6.04995 7.94465 6.14968C7.94465 6.24416 7.97614 6.32552 8.03913 6.39376ZM9.10207 5.3387L10.661 6.89767C10.7293 6.96591 10.8106 7.00003 10.9051 7.00003C11.0049 7.00003 11.0888 6.96591 11.1571 6.89767C11.2253 6.83468 11.2594 6.75595 11.2594 6.66146C11.2594 6.56173 11.2253 6.47775 11.1571 6.40951L9.59023 4.83478C9.522 4.7718 9.44064 4.7403 9.34615 4.7403C9.25167 4.7403 9.17031 4.7718 9.10207 4.83478C9.03383 4.90827 8.99971 4.99488 8.99971 5.09461C8.99971 5.1891 9.03383 5.27046 9.10207 5.3387ZM6.04711 10.4408L10.4485 6.04732L9.96029 5.55916L5.55894 9.96051L6.04711 10.4408Z"
		fill="currentColor"
	/>
</svg>
