<svg
	color="rgb(var(--foreground, 0, 0, 0))"
	viewBox="0 0 16 16"
	fill="none"
	xmlns="http://www.w3.org/2000/svg"
>
	<path
		d="M1.77601 15.6383C2.49868 15.8547 3.25828 15.9734 4.0548 15.9945C4.8566 16.0209 5.66367 15.9523 6.47602 15.7887L0.217254 9.5276C0.0537294 10.3455 -0.0174828 11.1529 0.00361713 11.9497C0.029992 12.7465 0.151317 13.5064 0.367591 14.2294C0.499465 14.6674 0.657714 14.9787 0.842339 15.1634C1.02696 15.3481 1.33819 15.5064 1.77601 15.6383ZM12.5053 12.5038C13.1594 11.8547 13.7211 11.1582 14.1906 10.4141C14.6601 9.6648 15.0372 8.89437 15.3221 8.10283L7.90026 0.678159C7.10901 0.963114 6.33887 1.34042 5.58982 1.81006C4.84077 2.27971 4.14184 2.84171 3.49302 3.49605C2.84419 4.14511 2.28505 4.84431 1.81557 5.59364C1.3461 6.33769 0.966301 7.10548 0.676177 7.89703L8.09807 15.3217C8.89459 15.0367 9.66468 14.6594 10.4085 14.1898C11.1575 13.7201 11.8564 13.1581 12.5053 12.5038ZM6.89538 11.2373C6.8268 11.3059 6.7424 11.3402 6.64218 11.3402C6.54195 11.3402 6.45755 11.3033 6.38898 11.2294L4.76692 9.60676C4.69835 9.53816 4.66406 9.45636 4.66406 9.36138C4.66406 9.26112 4.69835 9.17668 4.76692 9.10809C4.8355 9.03421 4.9199 8.99727 5.02012 8.99727C5.12562 8.99727 5.21002 9.03157 5.27332 9.10017L5.83511 9.66216L6.42063 9.06851L5.85884 8.51443C5.79027 8.44583 5.75598 8.36403 5.75598 8.26905C5.75598 8.16879 5.79027 8.08172 5.85884 8.00784C5.92742 7.93924 6.01182 7.90494 6.11204 7.90494C6.21754 7.90494 6.30458 7.9366 6.37315 7.99993L6.92703 8.56984L7.51255 7.97618L6.95076 7.4221C6.88219 7.3535 6.84526 7.27171 6.83999 7.17672C6.83999 7.07646 6.87691 6.98939 6.95076 6.91551C7.02461 6.84691 7.11165 6.81261 7.21188 6.81261C7.3121 6.80734 7.39386 6.839 7.45716 6.9076L8.01895 7.46959L8.61238 6.88385L8.04268 6.32977C7.97938 6.26117 7.9451 6.17674 7.93982 6.07648C7.93982 5.97622 7.97411 5.89178 8.04268 5.82318C8.11653 5.74931 8.20093 5.71237 8.29588 5.71237C8.39611 5.71237 8.48051 5.74667 8.54908 5.81527L9.11087 6.37726L9.70424 5.79152L9.14252 5.22953C9.07394 5.1662 9.03702 5.08441 9.03174 4.98415C9.03174 4.88389 9.06867 4.79946 9.14252 4.73086C9.21109 4.66226 9.29286 4.62796 9.3878 4.62796C9.48803 4.62796 9.57237 4.65962 9.64094 4.72294L11.2709 6.35352C11.3395 6.42212 11.3738 6.50655 11.3738 6.60681C11.3738 6.70707 11.3395 6.7915 11.2709 6.8601C11.1971 6.93398 11.11 6.97092 11.0098 6.97092C10.9148 6.96564 10.8304 6.92607 10.7566 6.85219L10.2027 6.29811L9.6172 6.88385L10.179 7.44585C10.2476 7.51445 10.2819 7.59888 10.2819 7.69914C10.2819 7.7994 10.2476 7.88647 10.179 7.96035C10.1051 8.02895 10.0181 8.06325 9.91788 8.06325C9.82293 8.05797 9.74117 8.02103 9.67259 7.95243L9.11087 7.39835L8.52535 7.97618L9.08713 8.53817C9.15571 8.60677 9.18999 8.69121 9.18999 8.79147C9.18999 8.89173 9.15571 8.9788 9.08713 9.05268C9.01328 9.12128 8.92624 9.15558 8.82602 9.15558C8.73107 9.1503 8.64931 9.11336 8.58073 9.04476L8.01895 8.49068L7.43342 9.06851L7.9873 9.6305C8.06115 9.6991 8.09807 9.78353 8.09807 9.8838C8.09807 9.98406 8.06115 10.0711 7.9873 10.145C7.91872 10.2136 7.83432 10.2479 7.7341 10.2479C7.63387 10.2426 7.55211 10.2057 7.48881 10.1371L6.92703 9.58301L6.3415 10.1688L6.89538 10.7228C6.96923 10.7914 7.00615 10.8759 7.00615 10.9761C7.00615 11.0764 6.96923 11.1635 6.89538 11.2373ZM15.6386 1.77049C15.5067 1.33778 15.3458 1.02908 15.1559 0.844383C14.9713 0.654413 14.6627 0.493466 14.2302 0.361542C13.5075 0.145187 12.7453 0.0264561 11.9435 0.00534826C11.1469 -0.0210365 10.3425 0.0502023 9.53017 0.219065L15.781 6.47225C15.9498 5.6596 16.021 4.85486 15.9947 4.05805C15.9736 3.25595 15.8549 2.49343 15.6386 1.77049Z"
		fill="currentColor"
	/>
</svg>
