<svg
	color="rgb(var(--foreground, 0, 0, 0))"
	viewBox="0 0 16 12"
	fill="none"
	xmlns="http://www.w3.org/2000/svg"
>
	<path
		d="M7.99216 7.1145C9.11279 7.1145 10.1582 7.0229 11.1284 6.83969C12.0985 6.65649 12.9468 6.39949 13.6731 6.0687C14.4047 5.73791 14.9753 5.35623 15.3852 4.92366C15.7951 4.486 16 4.01272 16 3.50382C16 3.01527 15.7951 2.5598 15.3852 2.1374C14.9753 1.70992 14.4047 1.33842 13.6731 1.0229C12.9468 0.70229 12.0985 0.452926 11.1284 0.274809C10.1582 0.091603 9.11279 0 7.99216 0C6.87153 0 5.82624 0.091603 4.85607 0.274809C3.89108 0.452926 3.04282 0.70229 2.3113 1.0229C1.58497 1.33842 1.01687 1.70992 0.607009 2.1374C0.202336 2.5598 0 3.01527 0 3.50382C0 4.01272 0.202336 4.486 0.607009 4.92366C1.01687 5.35623 1.58497 5.73791 2.3113 6.0687C3.04282 6.39949 3.89108 6.65649 4.85607 6.83969C5.82624 7.0229 6.87153 7.1145 7.99216 7.1145ZM7.99216 12C9.12316 12 10.1738 11.8855 11.1439 11.6565C12.1141 11.4275 12.9624 11.1094 13.6887 10.7023C14.415 10.2952 14.9805 9.82443 15.3852 9.29008C15.7951 8.75573 16 8.18575 16 7.58015V5.78626C15.4916 6.2799 14.8275 6.70483 14.0078 7.06107C13.188 7.4173 12.2646 7.68957 11.2373 7.87786C10.2101 8.06616 9.12835 8.1603 7.99216 8.1603C6.86634 8.1603 5.78993 8.06616 4.76268 7.87786C3.74063 7.68957 2.81974 7.41985 2.00002 7.0687C1.18029 6.71247 0.513623 6.28499 0 5.78626V7.58015C0 8.18575 0.202336 8.75573 0.607009 9.29008C1.01168 9.82443 1.57718 10.2952 2.30352 10.7023C3.02985 11.1094 3.87811 11.4275 4.84829 11.6565C5.81846 11.8855 6.86634 12 7.99216 12Z"
		fill="currentColor"
	/>
</svg>
