<svg
	color="rgb(var(--foreground, 0, 0, 0))"
	viewBox="0 0 16 12"
	fill="none"
	xmlns="http://www.w3.org/2000/svg"
>
	<path
		d="M7.99231 12C9.1233 12 10.1739 11.8855 11.144 11.6565C12.1142 11.4275 12.9625 11.1094 13.6888 10.7023C14.4151 10.2952 14.9805 9.82443 15.3852 9.29008C15.7951 8.75572 16 8.18575 16 7.58015V3.57252L14.7471 4.64122V7.58015C14.7471 8.17048 14.4722 8.70738 13.9222 9.19084C13.3775 9.66921 12.5993 10.0534 11.5876 10.3435C10.576 10.6285 9.37752 10.771 7.99231 10.771C6.6071 10.771 5.40854 10.6285 4.39687 10.3435C3.39039 10.0534 2.61218 9.66921 2.06225 9.19084C1.5175 8.70738 1.24513 8.17048 1.24513 7.58015V4.64122L0 3.57252V7.58015C0 8.18575 0.202334 8.75572 0.607001 9.29008C1.01167 9.82443 1.57717 10.2952 2.30349 10.7023C3.02982 11.1094 3.87806 11.4275 4.84823 11.6565C5.81839 11.8855 6.8665 12 7.99231 12ZM7.99231 7.1145C9.11293 7.1145 10.1583 7.0229 11.1285 6.83969C12.0986 6.65649 12.9469 6.39949 13.6732 6.0687C14.4047 5.73791 14.9754 5.35623 15.3852 4.92366C15.7951 4.48601 16 4.01272 16 3.50382C16 3.01527 15.7951 2.5598 15.3852 2.1374C14.9754 1.70992 14.4047 1.33842 13.6732 1.0229C12.9469 0.70229 12.0986 0.452926 11.1285 0.274809C10.1583 0.091603 9.11293 0 7.99231 0C6.87169 0 5.82618 0.091603 4.85601 0.274809C3.89104 0.452926 3.04279 0.70229 2.31127 1.0229C1.58495 1.33842 1.01686 1.70992 0.607001 2.1374C0.202334 2.5598 0 3.01527 0 3.50382C0 4.01272 0.202334 4.48601 0.607001 4.92366C1.01686 5.35623 1.58495 5.73791 2.31127 6.0687C3.04279 6.39949 3.89104 6.65649 4.85601 6.83969C5.82618 7.0229 6.87169 7.1145 7.99231 7.1145ZM7.99231 5.8855C7.04289 5.8855 6.15821 5.82443 5.3385 5.70229C4.52398 5.58015 3.80803 5.41221 3.19065 5.19847C2.57846 4.97964 2.10116 4.72774 1.75875 4.44275C1.41634 4.15267 1.24513 3.83969 1.24513 3.50382C1.24513 3.18321 1.41634 2.8855 1.75875 2.61069C2.10116 2.33588 2.57846 2.09415 3.19065 1.8855C3.80803 1.67684 4.52398 1.51654 5.3385 1.40458C6.15821 1.28753 7.04289 1.22901 7.99231 1.22901C8.94172 1.22901 9.82628 1.28753 10.646 1.40458C11.4657 1.51654 12.1817 1.67684 12.7938 1.8855C13.4112 2.09415 13.8911 2.33588 14.2335 2.61069C14.5759 2.8855 14.7471 3.18321 14.7471 3.50382C14.7471 3.83969 14.5759 4.15267 14.2335 4.44275C13.8911 4.72774 13.4112 4.97964 12.7938 5.19847C12.1817 5.41221 11.4657 5.58015 10.646 5.70229C9.82628 5.82443 8.94172 5.8855 7.99231 5.8855Z"
		fill="currentColor"
	/>
</svg>
