<svg
	color="rgb(var(--foreground, 0, 0, 0))"
	viewBox="0 0 17 16"
	fill="none"
	xmlns="http://www.w3.org/2000/svg"
>
	<path
		d="M15.0487 2.11177L13.5536 0.634044C13.4579 0.539425 13.3453 0.494898 13.2158 0.500464C13.0919 0.500464 12.9821 0.544991 12.8863 0.634044C12.7962 0.723097 12.7484 0.831631 12.7427 0.959646C12.7427 1.08766 12.7906 1.19619 12.8863 1.28525L14.3814 2.77133C14.4771 2.86595 14.5869 2.91326 14.7108 2.91326C14.8403 2.90769 14.9529 2.86038 15.0487 2.77133C15.1388 2.67671 15.1838 2.56817 15.1838 2.44573C15.1895 2.31771 15.1444 2.20639 15.0487 2.11177ZM4.47349 10.4188L5.14078 11.0783L14.3645 1.96985L13.6972 1.31029L4.47349 10.4188ZM0.655612 14.8603C1.00474 15.2054 1.36231 15.4114 1.72833 15.4781C2.09999 15.5449 2.40407 15.4587 2.64057 15.2193L5.84185 12.0385C6.10651 11.7824 6.30641 11.532 6.44156 11.2871C6.58234 11.0422 6.67243 10.7889 6.71185 10.5273L6.96525 9.02455L6.55137 8.62381L5.03097 8.87427C4.77194 8.91323 4.51854 9.00229 4.27077 9.14143C4.023 9.27501 3.76679 9.46982 3.50213 9.72585L0.28396 12.8984C0.0418236 13.1321 -0.0454582 13.4327 0.0221148 13.8C0.095319 14.1618 0.306485 14.5153 0.655612 14.8603ZM1.95639 2.11177C1.86067 2.20639 1.8128 2.31771 1.8128 2.44573C1.81843 2.56817 1.8663 2.67671 1.95639 2.77133C2.05212 2.86038 2.16193 2.90769 2.28581 2.91326C2.41533 2.91326 2.52795 2.86595 2.62368 2.77133L4.11873 1.28525C4.21446 1.19619 4.25951 1.08766 4.25388 0.959646C4.25388 0.831631 4.20883 0.723097 4.11873 0.634044C4.023 0.544991 3.91038 0.500464 3.78087 0.500464C3.65698 0.494898 3.54718 0.539425 3.45145 0.634044L1.95639 2.11177ZM12.5316 10.4188L3.30785 1.31029L2.64057 1.96985L11.8643 11.0783L12.5316 10.4188ZM16.3495 14.8603C16.6986 14.5153 16.9069 14.1618 16.9745 13.8C17.0477 13.4327 16.9632 13.1321 16.7211 12.8984L13.5029 9.72585C13.2439 9.46982 12.9877 9.27501 12.7343 9.14143C12.4865 9.00229 12.2331 8.91323 11.9741 8.87427L10.4537 8.62381L10.0483 9.02455L10.2932 10.5273C10.3326 10.7889 10.4199 11.0422 10.5551 11.2871C10.6958 11.532 10.8986 11.7824 11.1632 12.0385L14.3645 15.2193C14.601 15.4587 14.9023 15.5449 15.2683 15.4781C15.6399 15.4114 16.0003 15.2054 16.3495 14.8603Z"
		fill="currentColor"
	/>
</svg>
