<svg
	color="rgb(var(--foreground, 0, 0, 0))"
	viewBox="0 0 21 14"
	fill="none"
	xmlns="http://www.w3.org/2000/svg"
>
	<path
		d="M0 11.6426C0 12.4284 0.202073 13.0165 0.606217 13.4068C1.01554 13.8023 1.62694 14 2.4404 14H9.93273V10.5551C9.31097 10.4842 8.76692 10.2915 8.3006 9.97719C7.83428 9.65779 7.469 9.24461 7.20475 8.73764C6.94569 8.2256 6.81615 7.64512 6.81615 6.9962C6.81615 6.34221 6.94569 5.76172 7.20475 5.25475C7.469 4.74271 7.83428 4.32953 8.3006 4.01521C8.76692 3.69582 9.31097 3.50317 9.93273 3.43726V0H2.4404C1.62694 0 1.01554 0.197719 0.606217 0.593156C0.202073 0.983523 0 1.57161 0 2.35741V3.30798H2.71242C3.22537 3.30798 3.62434 3.4474 3.90931 3.72624C4.19428 4 4.33677 4.38783 4.33677 4.88973V9.10266C4.33677 9.59949 4.19428 9.98733 3.90931 10.2662C3.62434 10.545 3.22537 10.6844 2.71242 10.6844H0V11.6426ZM0 9.61217H2.69688C3.05957 9.61217 3.24092 9.43219 3.24092 9.07224V4.92015C3.24092 4.5602 3.05957 4.38023 2.69688 4.38023H0V9.61217ZM7.84983 6.98859C7.84983 7.42966 7.93791 7.82763 8.11407 8.18251C8.29024 8.53739 8.53377 8.83143 8.84465 9.06464C9.15553 9.29278 9.51822 9.44233 9.93273 9.51331V4.48669C9.51822 4.55767 9.15553 4.70722 8.84465 4.93536C8.53377 5.1635 8.29024 5.45501 8.11407 5.80989C7.93791 6.1597 7.84983 6.5526 7.84983 6.98859ZM11.0286 14H18.5674C19.3809 14 19.9896 13.8023 20.3938 13.4068C20.7979 13.0165 21 12.4284 21 11.6426V10.6844H18.2954C17.7772 10.6844 17.3757 10.545 17.0907 10.2662C16.8109 9.98733 16.671 9.59949 16.671 9.10266V4.88973C16.671 4.38783 16.8109 4 17.0907 3.72624C17.3757 3.4474 17.7772 3.30798 18.2954 3.30798H21V2.35741C21 1.57161 20.7979 0.983523 20.3938 0.593156C19.9896 0.197719 19.3809 0 18.5674 0H11.0286V3.45247C11.6452 3.52852 12.1866 3.72624 12.6529 4.04563C13.1192 4.36502 13.4819 4.7782 13.741 5.28517C14.0052 5.79214 14.14 6.36248 14.1451 6.9962C14.1555 7.64512 14.0312 8.22307 13.7721 8.73004C13.513 9.23701 13.1477 9.65019 12.6762 9.96958C12.2047 10.2839 11.6555 10.4791 11.0286 10.5551V14ZM11.0286 9.51331C11.4431 9.44233 11.8058 9.29278 12.1167 9.06464C12.4275 8.83143 12.6685 8.53739 12.8394 8.18251C13.0156 7.82763 13.1063 7.42966 13.1115 6.98859C13.1115 6.5526 13.0234 6.1597 12.8472 5.80989C12.6762 5.45501 12.4327 5.1635 12.1167 4.93536C11.8058 4.70215 11.4431 4.5526 11.0286 4.48669V9.51331ZM17.7669 9.07224C17.7669 9.43219 17.9456 9.61217 18.3032 9.61217H21V4.38023H18.3032C17.9456 4.38023 17.7669 4.5602 17.7669 4.92015V9.07224Z"
		fill="currentColor"
	/>
</svg>
