<svg
	color="rgb(var(--foreground, 0, 0, 0))"
	viewBox="0 0 21 14"
	fill="none"
	xmlns="http://www.w3.org/2000/svg"
>
	<path
		d="M2.4404 14H18.5674C19.3808 14 19.9896 13.8023 20.3938 13.4068C20.7979 13.0165 21 12.4284 21 11.6426V2.35741C21 1.57161 20.7979 0.983523 20.3938 0.593156C19.9896 0.197719 19.3808 0 18.5674 0H2.4404C1.62693 0 1.01554 0.197719 0.606215 0.593156C0.202072 0.983523 0 1.57161 0 2.35741V11.6426C0 12.4284 0.202072 13.0165 0.606215 13.4068C1.01554 13.8023 1.62693 14 2.4404 14ZM2.45595 12.7757C2.06735 12.7757 1.76942 12.6768 1.56217 12.4791C1.35492 12.2763 1.25129 11.9772 1.25129 11.5817V2.41825C1.25129 2.02281 1.35492 1.72624 1.56217 1.52852C1.76942 1.32573 2.06735 1.22433 2.45595 1.22433H18.5441C18.9275 1.22433 19.2228 1.32573 19.4301 1.52852C19.6425 1.72624 19.7487 2.02281 19.7487 2.41825V11.5817C19.7487 11.9772 19.6425 12.2763 19.4301 12.4791C19.2228 12.6768 18.9275 12.7757 18.5441 12.7757H2.45595ZM0 10.3802H3.17097C3.6891 10.3802 4.09064 10.2408 4.37561 9.96198C4.66058 9.68314 4.80307 9.29531 4.80307 8.79848V5.19392C4.80307 4.69202 4.66058 4.30418 4.37561 4.03042C4.09064 3.75158 3.6891 3.61217 3.17097 3.61217H0V4.68441H3.1632C3.52589 4.68441 3.70722 4.86439 3.70722 5.22433V8.76806C3.70722 9.12801 3.52589 9.30798 3.1632 9.30798H0V10.3802ZM9.93258 12.9734H11.0284V1.02662H9.93258V12.9734ZM10.4688 10.5856C11.1994 10.5856 11.8419 10.436 12.3963 10.1369C12.9507 9.8327 13.3835 9.41191 13.6943 8.87452C14.0052 8.33207 14.1555 7.70596 14.1451 6.9962C14.1399 6.29658 13.9793 5.67807 13.6632 5.14068C13.3524 4.6033 12.9222 4.18251 12.373 3.87833C11.8238 3.57414 11.1891 3.41952 10.4688 3.41445C9.75382 3.40431 9.11911 3.55133 8.56471 3.85551C8.01549 4.15463 7.58544 4.57541 7.27456 5.11787C6.96886 5.65526 6.81601 6.28137 6.81601 6.9962C6.81601 7.70596 6.96886 8.33207 7.27456 8.87452C7.58544 9.41191 8.01549 9.8327 8.56471 10.1369C9.11911 10.436 9.75382 10.5856 10.4688 10.5856ZM10.4766 9.56654C9.96367 9.56654 9.50771 9.45754 9.10875 9.23954C8.71497 9.02155 8.40668 8.7199 8.18388 8.3346C7.96109 7.94423 7.84969 7.49556 7.84969 6.98859C7.84969 6.48669 7.96109 6.04309 8.18388 5.65779C8.40668 5.2725 8.71497 4.97338 9.10875 4.76046C9.50771 4.54246 9.96367 4.43346 10.4766 4.43346C10.9948 4.43346 11.4507 4.54246 11.8445 4.76046C12.2435 4.97338 12.5543 5.2725 12.7771 5.65779C12.9999 6.04309 13.1113 6.48669 13.1113 6.98859C13.1061 7.49556 12.9922 7.94423 12.7694 8.3346C12.5466 8.7199 12.2357 9.02155 11.8367 9.23954C11.4429 9.45754 10.9896 9.56654 10.4766 9.56654ZM21 10.3802V9.30798H17.8368C17.4793 9.30798 17.3005 9.12801 17.3005 8.76806V5.22433C17.3005 4.86439 17.4793 4.68441 17.8368 4.68441H21V3.61217H17.829C17.3109 3.61217 16.9093 3.75158 16.6244 4.03042C16.3446 4.30418 16.2047 4.69202 16.2047 5.19392V8.79848C16.2047 9.29531 16.3446 9.68314 16.6244 9.96198C16.9093 10.2408 17.3109 10.3802 17.829 10.3802H21Z"
		fill="currentColor"
	/>
</svg>
