<svg
	color="rgb(var(--foreground, 0, 0, 0))"
	viewBox="0 0 17 18"
	fill="none"
	xmlns="http://www.w3.org/2000/svg"
>
	<path
		d="M15.6956 1.80619C15.2107 1.32054 14.6519 0.97214 14.0193 0.760989C13.3868 0.544559 12.7252 0.462738 12.0347 0.515526C11.3441 0.568314 10.6614 0.750432 9.9867 1.06188C9.31723 1.36805 8.70048 1.80355 8.13643 2.36838C7.48278 3.02295 7.01099 3.74614 6.72106 4.53796C6.43113 5.32449 6.28089 6.11895 6.27035 6.92132C6.25981 7.51255 6.22818 8.05626 6.17547 8.55247C6.12275 9.04339 6.01469 9.51585 5.85127 9.96982C5.69313 10.4238 5.45065 10.8857 5.12382 11.3555C4.80226 11.82 4.36737 12.3268 3.81914 12.8758L4.64148 13.6914C5.18971 13.1476 5.69577 12.7174 6.15965 12.4007C6.62354 12.0787 7.07951 11.8385 7.52759 11.6801C7.98093 11.5218 8.45272 11.4162 8.94296 11.3634C9.4332 11.3054 9.97616 11.2658 10.5718 11.2446C11.3889 11.2183 12.1875 11.0652 12.9677 10.7854C13.7479 10.5003 14.4674 10.0279 15.1263 9.36804C15.6904 8.80321 16.1279 8.18559 16.4389 7.51519C16.7499 6.8395 16.9318 6.1559 16.9845 5.46438C17.0372 4.77286 16.9555 4.11037 16.7394 3.47692C16.5285 2.84347 16.1806 2.28656 15.6956 1.80619ZM14.8496 2.64551C15.3662 3.16811 15.6904 3.76461 15.8221 4.43502C15.9592 5.10015 15.8986 5.78639 15.6403 6.49374C15.3873 7.2011 14.9366 7.87678 14.2882 8.52079C13.6345 9.17008 12.9519 9.62406 12.2402 9.88272C11.5339 10.1414 10.8486 10.2047 10.1844 10.0728C9.52018 9.94079 8.92978 9.61614 8.41318 9.09882C7.89131 8.5815 7.56449 7.99028 7.4327 7.32515C7.30091 6.66003 7.36417 5.97114 7.62247 5.25851C7.88077 4.54587 8.33411 3.86491 8.9825 3.21562C9.63088 2.57161 10.3083 2.12027 11.0146 1.86161C11.721 1.60295 12.4063 1.53961 13.0705 1.67158C13.74 1.80355 14.333 2.12819 14.8496 2.64551ZM7.56712 9.94607C7.67782 10.0675 7.79906 10.1783 7.93085 10.2786C8.06263 10.3736 8.19705 10.4634 8.33411 10.5478C7.94403 10.6165 7.56185 10.722 7.18758 10.8646C6.81858 11.0071 6.43904 11.2077 6.04895 11.4664C6.31252 11.0757 6.51284 10.6957 6.64989 10.3261C6.79222 9.95134 6.89501 9.56863 6.95827 9.178C7.04261 9.32053 7.13486 9.45514 7.23502 9.58183C7.34045 9.70852 7.45115 9.82993 7.56712 9.94607ZM0.276749 16.7003L0.79862 17.2308C0.983119 17.4103 1.19398 17.5 1.43119 17.5C1.67368 17.5 1.88717 17.4103 2.07167 17.2308L5.13173 14.1585C5.31623 13.9738 5.40847 13.76 5.40847 13.5172C5.40847 13.2743 5.31623 13.0632 5.13173 12.8837L4.60986 12.3532C4.42536 12.1737 4.21186 12.084 3.96938 12.084C3.73216 12.084 3.52131 12.1737 3.33681 12.3532L0.276749 15.4334C0.0922498 15.6128 0 15.8213 0 16.0589C0 16.3017 0.0922498 16.5155 0.276749 16.7003ZM6.88711 6.82631L7.28246 7.22222L12.9835 1.51322L12.5882 1.10939L6.88711 6.82631ZM7.32991 8.64749L7.71736 9.04339L14.7942 1.96455L14.4147 1.56072L7.32991 8.64749ZM8.46063 9.7877L8.86389 10.1836L15.9408 3.09685L15.5454 2.69302L8.46063 9.7877ZM10.2872 10.2311L10.6746 10.6349L16.3836 4.91803L15.9803 4.52212L10.2872 10.2311ZM12.003 1.3311L16.1147 5.44063L16.5101 5.04472L12.3984 0.935189L12.003 1.3311ZM10.216 1.70325L15.7826 7.29348L16.1938 6.88965L10.6114 1.30734L10.216 1.70325ZM9.06157 2.6851L14.7942 8.44161L15.2054 8.03779L9.45692 2.28128L9.06157 2.6851ZM8.05736 3.69071L13.79 9.44722L14.1933 9.04339L8.45272 3.28689L8.05736 3.69071ZM7.07688 4.84676L12.6514 10.437L13.0468 10.0411L7.46433 4.45877L7.07688 4.84676ZM6.68943 6.62043L10.8249 10.7696L11.2281 10.3657L7.08479 6.22453L6.68943 6.62043Z"
		fill="currentColor"
	/>
</svg>
