<svg
	color="rgb(var(--foreground, 0, 0, 0))"
	viewBox="0 0 16 16"
	fill="none"
	xmlns="http://www.w3.org/2000/svg"
>
	<path
		d="M8 4.85491L4.94117 7.20785L6.1647 10.9726H9.83529L11.0588 7.20785L8 4.85491ZM10.7529 1.2549L7.99215 0.352941L5.22352 1.2549L7.99215 3.48236L10.7529 1.2549ZM7.56862 0.619608V5.81177H8.43921V0.619608H7.56862ZM13.4745 3.23137L12.4471 6.62746L15.5373 8.36079L14.9725 5.10589L13.4745 3.23137ZM15.2627 5.95295L14.9333 5.15294L10.1176 7.09804L10.4471 7.90589L15.2627 5.95295ZM9.80392 15.1608L12.4235 14.0235L14.2118 11.7569L10.6039 11.702L9.80392 15.1608ZM12.7059 13.702L9.51372 9.60001L8.81568 10.1333L12.0157 14.2275L12.7059 13.702ZM6.18823 15.1294L5.38823 11.6706L1.78039 11.7255L3.56863 13.9922L6.18823 15.1294ZM3.28627 13.6706L3.97647 14.1961L7.17647 10.102L6.47843 9.56863L3.28627 13.6706ZM2.52549 3.23137L1.02745 5.10589L0.462745 8.36079L3.55294 6.62746L2.52549 3.23137ZM0.737255 5.95295L5.55294 7.90589L5.88235 7.09804L1.06667 5.15294L0.737255 5.95295ZM8 16C9.09281 16 10.1203 15.7909 11.0824 15.3726C12.0497 14.9543 12.902 14.3765 13.6392 13.6392C14.3765 12.902 14.9542 12.0523 15.3725 11.0902C15.7909 10.1229 16 9.09282 16 8C16 6.90719 15.7909 5.87974 15.3725 4.91765C14.9542 3.95033 14.3765 3.09804 13.6392 2.36079C12.902 1.62353 12.0497 1.04575 11.0824 0.627451C10.115 0.20915 9.08496 0 7.99215 0C6.89934 0 5.86928 0.20915 4.90195 0.627451C3.93986 1.04575 3.0902 1.62353 2.35294 2.36079C1.62091 3.09804 1.04575 3.95033 0.627451 4.91765C0.20915 5.87974 0 6.90719 0 8C0 9.09282 0.20915 10.1229 0.627451 11.0902C1.04575 12.0523 1.62353 12.902 2.36078 13.6392C3.09804 14.3765 3.94771 14.9543 4.9098 15.3726C5.87712 15.7909 6.90718 16 8 16ZM8 14.9333C7.05359 14.9333 6.16209 14.7503 5.32548 14.3843C4.48888 14.0235 3.75163 13.5242 3.11373 12.8863C2.47582 12.2484 1.97386 11.5111 1.60784 10.6745C1.24706 9.83791 1.06667 8.94641 1.06667 8C1.06667 7.0536 1.24706 6.1621 1.60784 5.32549C1.97386 4.48889 2.4732 3.75164 3.10588 3.11373C3.74379 2.47582 4.48104 1.97647 5.31764 1.61569C6.15424 1.24967 7.04575 1.06667 7.99215 1.06667C8.93856 1.06667 9.83006 1.24967 10.6667 1.61569C11.5033 1.97647 12.2405 2.47582 12.8784 3.11373C13.5216 3.75164 14.0235 4.48889 14.3843 5.32549C14.7503 6.1621 14.9333 7.0536 14.9333 8C14.9333 8.94641 14.7503 9.83791 14.3843 10.6745C14.0235 11.5111 13.5242 12.2484 12.8863 12.8863C12.2484 13.5242 11.5111 14.0235 10.6745 14.3843C9.8379 14.7503 8.9464 14.9333 8 14.9333Z"
		fill="currentColor"
	/>
</svg>
