<svg
	color="rgb(var(--foreground, 0, 0, 0))"
	viewBox="0 0 16 16"
	fill="none"
	xmlns="http://www.w3.org/2000/svg"
>
	<path
		d="M8.64314 15.5922L9.63922 15.349C9.49804 14.8941 9.42745 14.4157 9.42745 13.9137C9.42745 13.2235 9.55033 12.583 9.79608 11.9922C10.0418 11.4013 10.3843 10.8863 10.8235 10.4471C11.2627 10.0078 11.7752 9.66536 12.3608 9.41961C12.9516 9.17386 13.5922 9.05098 14.2824 9.05098C14.481 9.05098 14.6719 9.06405 14.8549 9.0902C15.0431 9.11111 15.2261 9.13987 15.4039 9.17647L15.6471 8.18824C15.4275 8.13072 15.2026 8.08889 14.9725 8.06275C14.7477 8.0366 14.5176 8.02353 14.2824 8.02353C13.4667 8.02353 12.7033 8.17778 11.9922 8.48627C11.281 8.78954 10.6562 9.21046 10.1176 9.74902C9.58431 10.2876 9.1634 10.9124 8.8549 11.6235C8.55163 12.3346 8.4 13.098 8.4 13.9137C8.4 14.2065 8.42092 14.4941 8.46275 14.7765C8.50458 15.0588 8.56471 15.3307 8.64314 15.5922ZM0.478431 6.76863L0.282353 7.77255C0.517647 7.83007 0.755556 7.87451 0.996078 7.90588C1.2366 7.93726 1.48235 7.95294 1.73333 7.95294C2.54902 7.95294 3.31242 7.80131 4.02353 7.49804C4.73464 7.19477 5.35948 6.77386 5.89804 6.23529C6.4366 5.6915 6.85752 5.06405 7.16078 4.35294C7.46405 3.64183 7.61569 2.87843 7.61569 2.06275C7.61569 1.78562 7.59739 1.51634 7.56078 1.2549C7.52418 0.988235 7.46928 0.729412 7.39608 0.478431L6.36863 0.603922C6.44183 0.833987 6.49673 1.0719 6.53333 1.31765C6.56993 1.55817 6.58824 1.80654 6.58824 2.06275C6.58824 2.75294 6.46536 3.39346 6.21961 3.98431C5.97386 4.57516 5.63137 5.0902 5.19216 5.52941C4.75294 5.96863 4.23791 6.31111 3.64706 6.55686C3.06144 6.80261 2.42353 6.92549 1.73333 6.92549C1.51895 6.92549 1.30719 6.91242 1.09804 6.88627C0.888889 6.86013 0.682353 6.82092 0.478431 6.76863ZM8 0C6.90719 0 5.87712 0.20915 4.9098 0.627451C3.94771 1.04575 3.09804 1.62353 2.36078 2.36078C1.62353 3.09804 1.04575 3.95033 0.627451 4.91765C0.20915 5.87974 0 6.90719 0 8C0 9.09281 0.20915 10.1229 0.627451 11.0902C1.04575 12.0523 1.62353 12.902 2.36078 13.6392C3.10327 14.3765 3.95556 14.9542 4.91765 15.3726C5.88497 15.7909 6.91503 16 8.00784 16C9.10065 16 10.1281 15.7909 11.0902 15.3726C12.0575 14.9542 12.9072 14.3765 13.6392 13.6392C14.3765 12.902 14.9542 12.0523 15.3726 11.0902C15.7909 10.1229 16 9.09281 16 8C16 6.90719 15.7909 5.87974 15.3726 4.91765C14.9542 3.95033 14.3765 3.09804 13.6392 2.36078C12.902 1.62353 12.0497 1.04575 11.0824 0.627451C10.1203 0.20915 9.09281 0 8 0ZM8 1.06667C8.94641 1.06667 9.83791 1.24967 10.6745 1.61569C11.5111 1.97647 12.2484 2.47582 12.8863 3.11373C13.5242 3.75163 14.0235 4.48889 14.3843 5.32549C14.7503 6.16209 14.9333 7.0536 14.9333 8C14.9333 8.94641 14.7529 9.83791 14.3922 10.6745C14.0314 11.5111 13.532 12.2484 12.8941 12.8863C12.2562 13.5242 11.519 14.0235 10.6824 14.3843C9.84575 14.7503 8.95425 14.9333 8.00784 14.9333C7.06144 14.9333 6.16993 14.7503 5.33333 14.3843C4.49673 14.0235 3.75686 13.5242 3.11373 12.8863C2.47582 12.2484 1.97386 11.5111 1.60784 10.6745C1.24706 9.83791 1.06667 8.94641 1.06667 8C1.06667 7.0536 1.24706 6.16209 1.60784 5.32549C1.97386 4.48889 2.47582 3.75163 3.11373 3.11373C3.75163 2.47582 4.48889 1.97647 5.32549 1.61569C6.16209 1.24967 7.0536 1.06667 8 1.06667Z"
		fill="currentColor"
	/>
</svg>
