<svg
	color="rgb(var(--foreground, 0, 0, 0))"
	viewBox="0 0 16 16"
	fill="none"
	xmlns="http://www.w3.org/2000/svg"
>
	<path
		d="M0.101962 6.70588C0.332029 6.7634 0.564711 6.80785 0.800007 6.83922C1.04053 6.87059 1.28626 6.88628 1.53724 6.88628C2.24836 6.88628 2.90719 6.76079 3.51373 6.5098C4.12027 6.25359 4.65099 5.90065 5.1059 5.45097C5.56081 4.99606 5.91375 4.46534 6.16473 3.8588C6.41572 3.24703 6.54121 2.58558 6.54121 1.87447C6.54121 1.57642 6.51768 1.28623 6.47062 1.00387C6.42356 0.721514 6.35297 0.452231 6.25885 0.196019C5.21309 0.431316 4.25622 0.860078 3.38824 1.48231C2.52548 2.0993 1.80652 2.85748 1.23135 3.75684C0.661413 4.65619 0.28497 5.63921 0.101962 6.70588ZM8.00004 16.0001C8.12031 16.0001 8.23796 15.9949 8.35299 15.9844C8.46802 15.9792 8.58306 15.9713 8.69809 15.9609C8.60397 15.6681 8.53077 15.3648 8.47848 15.0511C8.43142 14.7426 8.40789 14.4236 8.40789 14.0942C8.40789 13.2523 8.56476 12.4654 8.87848 11.7334C9.19221 10.9961 9.6262 10.3504 10.1805 9.79611C10.7399 9.23663 11.3857 8.80002 12.1177 8.48629C12.8498 8.17256 13.6366 8.0157 14.4784 8.0157C14.7399 8.0157 14.9961 8.034 15.2471 8.0706C15.498 8.10198 15.7464 8.14903 15.9922 8.21178C15.9974 8.18041 16 8.14642 16 8.10982C16 8.07322 16 8.03662 16 8.00001C16 6.90719 15.7908 5.87973 15.3725 4.91763C14.9542 3.9503 14.3765 3.09801 13.6392 2.36075C12.9019 1.62348 12.0498 1.0457 11.0824 0.627396C10.1151 0.209091 9.08502 -6.10352e-05 7.9922 -6.10352e-05C7.87717 -6.10352e-05 7.76475 0.00255337 7.65494 0.00778218C7.54514 0.013011 7.43533 0.0208542 7.32553 0.0313118C7.42488 0.318896 7.49546 0.616938 7.53729 0.925438C7.58435 1.23394 7.60788 1.55028 7.60788 1.87447C7.60788 2.7163 7.45102 3.50585 7.13729 4.24312C6.82356 4.97515 6.38696 5.62091 5.82747 6.18039C5.27322 6.73464 4.63008 7.16863 3.89804 7.48236C3.16601 7.79609 2.37908 7.95295 1.53724 7.95295C1.2758 7.95295 1.017 7.93727 0.760791 7.9059C0.50458 7.86929 0.253597 7.82223 0.00784321 7.76472C0.0026144 7.80132 0 7.84053 0 7.88237C0 7.91897 0 7.95818 0 8.00001C0 9.09283 0.209152 10.1229 0.627457 11.0902C1.04576 12.0523 1.62351 12.902 2.36078 13.6393C3.09804 14.3765 3.94772 14.9543 4.90982 15.3726C5.87715 15.7909 6.90722 16.0001 8.00004 16.0001ZM9.76477 15.7962C10.8105 15.5556 11.762 15.1243 12.6196 14.502C13.4823 13.8798 14.1987 13.1216 14.7686 12.2275C15.3438 11.3281 15.7203 10.3451 15.898 9.27846C15.6732 9.21571 15.4431 9.16865 15.2078 9.13728C14.9725 9.10068 14.7294 9.08238 14.4784 9.08238C13.7673 9.08238 13.1086 9.21048 12.502 9.46669C11.8955 9.71768 11.3648 10.0706 10.9099 10.5255C10.4602 10.9752 10.1073 11.5059 9.85104 12.1177C9.60006 12.7242 9.47457 13.3831 9.47457 14.0942C9.47457 14.4027 9.4981 14.6981 9.54516 14.9805C9.59744 15.2681 9.67065 15.54 9.76477 15.7962Z"
		fill="currentColor"
	/>
</svg>
