<svg
	color="rgb(var(--foreground, 0, 0, 0))"
	viewBox="0 0 16 16"
	fill="none"
	xmlns="http://www.w3.org/2000/svg"
>
	<path
		d="M10.6509 4.07831C11.0018 3.44042 11.2269 2.8339 11.3264 2.25875C11.4259 1.67838 11.371 1.14768 11.1615 0.666646C10.6693 0.452274 10.1561 0.287573 9.62197 0.172544C9.09308 0.0575146 8.54587 0 7.98033 0C6.83878 0 5.76275 0.232673 4.7521 0.698018C3.7467 1.15813 2.88006 1.78295 2.15219 2.57247C2.71773 2.35287 3.30945 2.21693 3.92736 2.16464C4.5505 2.10712 5.17626 2.11758 5.80464 2.19601C6.43825 2.27444 7.05086 2.40516 7.64258 2.58816C8.23954 2.77116 8.79461 2.99076 9.30778 3.24696C9.82096 3.50316 10.2687 3.78028 10.6509 4.07831ZM7.46198 7.88995C7.9961 7.4037 8.48565 6.91744 8.93075 6.43118C9.37585 5.93969 9.76335 5.45343 10.0933 4.9724C9.65862 4.63254 9.14545 4.32405 8.55373 4.04693C7.96201 3.76982 7.32845 3.55022 6.65295 3.38813C5.97744 3.22082 5.29408 3.13454 4.60287 3.12932C3.91165 3.11886 3.244 3.21036 2.59991 3.40382C1.96106 3.59728 1.38505 3.91883 0.871874 4.36849C0.625759 4.82861 0.426773 5.31487 0.274915 5.82727C0.128294 6.33968 0.0366554 6.87299 0 7.42722C0.471283 7.10828 1.0054 6.90436 1.60236 6.81548C2.20456 6.72659 2.83817 6.72136 3.5032 6.79979C4.16824 6.87299 4.83851 7.00894 5.51401 7.20762C6.19475 7.40108 6.84408 7.62852 7.46198 7.88995ZM2.5842 7.7331C2.03961 7.71741 1.54214 7.78277 1.09181 7.92917C0.646705 8.07034 0.28277 8.31347 0 8.65856C0.0680742 9.47422 0.253969 10.2507 0.557685 10.9879C0.866637 11.7251 1.27246 12.3996 1.77517 13.0114C2.27787 13.6179 2.8565 14.1434 3.51106 14.5878C4.16562 15.0374 4.87516 15.3799 5.63969 15.6152C5.27313 15.1917 4.91182 14.695 4.55574 14.1251C4.20489 13.5551 3.88285 12.9303 3.58961 12.2506C3.29636 11.5657 3.0581 10.8441 2.87483 10.086C2.69679 9.32259 2.59991 8.5383 2.5842 7.7331ZM7.11637 8.86247C6.54036 8.61673 5.95388 8.40497 5.35692 8.2272C4.75996 8.0442 4.17871 7.9161 3.61317 7.8429C3.64459 8.67947 3.76241 9.48206 3.96663 10.2507C4.17609 11.014 4.44053 11.7251 4.75996 12.3839C5.07938 13.0427 5.41976 13.6257 5.78107 14.1329C6.14239 14.6401 6.49585 15.0531 6.84146 15.3721C7.18707 15.6963 7.49072 15.9054 7.75255 15.9995C8.28143 16.0047 8.78413 15.9681 9.26065 15.8897C9.74241 15.8113 10.198 15.6936 10.6274 15.5368C10.1456 15.2492 9.6979 14.8571 9.28422 14.3603C8.87053 13.8636 8.5066 13.3068 8.19241 12.6898C7.87822 12.0676 7.62693 11.4271 7.43842 10.7683C7.25514 10.1095 7.14779 9.47422 7.11637 8.86247ZM11.9627 14.925C12.7639 14.4649 13.4655 13.8819 14.0677 13.1761C14.6752 12.465 15.1491 11.6702 15.4894 10.7918C15.8298 9.90819 16 8.9775 16 7.99976C16 7.52395 15.9555 7.05861 15.8665 6.60372C15.7827 6.14883 15.6622 5.70963 15.5052 5.28611C15.3742 5.8142 15.17 6.39719 14.8925 7.03508C14.615 7.66774 14.2458 8.33439 13.785 9.03502C13.3242 9.73042 12.7586 10.4389 12.0884 11.1604C11.4181 11.8768 10.6274 12.5826 9.71623 13.278C10.0461 13.7486 10.4022 14.1329 10.7845 14.4309C11.172 14.729 11.5647 14.8937 11.9627 14.925ZM9.18211 12.3996C10.1037 11.6781 10.8944 10.9539 11.5542 10.2271C12.214 9.49513 12.7586 8.78927 13.188 8.10956C13.6174 7.42984 13.9499 6.79979 14.1856 6.21942C14.4212 5.63381 14.5757 5.12403 14.649 4.69005C14.7275 4.25085 14.7459 3.91099 14.704 3.67048C14.0808 2.71364 13.2796 1.9189 12.3004 1.28624C12.3999 2.04961 12.2742 2.85481 11.9234 3.70185C11.5726 4.54888 11.0646 5.39591 10.3996 6.24295C9.73455 7.08998 8.97788 7.89518 8.12957 8.65856C8.15052 9.28599 8.25525 9.92388 8.44376 10.5722C8.63227 11.2206 8.87839 11.8297 9.18211 12.3996Z"
		fill="currentColor"
	/>
</svg>
