<svg
	color="rgb(var(--foreground, 0, 0, 0))"
	viewBox="0 0 20 12"
	fill="none"
	xmlns="http://www.w3.org/2000/svg"
>
	<path
		d="M1.12253 10.2081C1.444 10.2081 1.71278 10.0973 1.92885 9.87567C2.14492 9.65405 2.25296 9.38378 2.25296 9.06486V2.93514C2.25296 2.61081 2.14492 2.33784 1.92885 2.11622C1.71278 1.88919 1.444 1.77568 1.12253 1.77568C0.806321 1.77568 0.540182 1.88919 0.324109 2.11622C0.108036 2.33784 0 2.61081 0 2.93514V9.06486C0 9.38378 0.108036 9.65405 0.324109 9.87567C0.540182 10.0973 0.806321 10.2081 1.12253 10.2081ZM4.87745 12C5.40446 12 5.83397 11.8378 6.16599 11.5135C6.498 11.1892 6.66401 10.7703 6.66401 10.2568V1.75135C6.66401 1.23243 6.498 0.810811 6.16599 0.486486C5.83397 0.162162 5.40446 0 4.87745 0C4.35572 0 3.92884 0.162162 3.59683 0.486486C3.26481 0.810811 3.0988 1.23243 3.0988 1.75135V10.2568C3.0988 10.7703 3.26481 11.1892 3.59683 11.5135C3.92884 11.8378 4.35572 12 4.87745 12ZM7.581 7.56486H12.4901V4.43513H7.581V7.56486ZM15.1937 12C15.7207 12 16.1502 11.8378 16.4822 11.5135C16.8142 11.1892 16.9802 10.7703 16.9802 10.2568V1.75135C16.9802 1.23243 16.8142 0.810811 16.4822 0.486486C16.1502 0.162162 15.7207 0 15.1937 0C14.672 0 14.2451 0.162162 13.9131 0.486486C13.5811 0.810811 13.415 1.23243 13.415 1.75135V10.2568C13.415 10.7703 13.5811 11.1892 13.9131 11.5135C14.2451 11.8378 14.672 12 15.1937 12ZM18.8696 10.2081C19.1858 10.2081 19.4519 10.0973 19.668 9.87567C19.8893 9.65405 20 9.38378 20 9.06486V2.93514C20 2.61081 19.8893 2.33784 19.668 2.11622C19.4519 1.88919 19.1858 1.77568 18.8696 1.77568C18.5534 1.77568 18.2872 1.88919 18.0712 2.11622C17.8551 2.33784 17.747 2.61081 17.747 2.93514V9.06486C17.747 9.38378 17.8551 9.65405 18.0712 9.87567C18.2872 10.0973 18.5534 10.2081 18.8696 10.2081Z"
		fill="currentColor"
	/>
</svg>
