<svg
	color="rgb(var(--foreground, 0, 0, 0))"
	viewBox="0 0 20 12"
	fill="none"
	xmlns="http://www.w3.org/2000/svg"
>
	<path
		d="M1.48617 10.2081H2.49803V9.06487H1.49408C1.3834 9.06487 1.29118 9.02703 1.21739 8.95135C1.14888 8.87568 1.11463 8.78378 1.11463 8.67568V3.33243C1.11463 3.21892 1.14888 3.12432 1.21739 3.04865C1.29118 2.96757 1.3834 2.92703 1.49408 2.92703H2.49803V1.78378H1.48617C1.20685 1.78378 0.953889 1.85135 0.727275 1.98649C0.50593 2.12162 0.329382 2.30541 0.197629 2.53784C0.0658763 2.76487 0 3.02162 0 3.30811V8.69189C0 8.97838 0.0658763 9.23514 0.197629 9.46216C0.329382 9.68919 0.50593 9.87027 0.727275 10.0054C0.953889 10.1405 1.20685 10.2081 1.48617 10.2081ZM4.04744 12H4.60871C5.26747 12 5.77867 11.8054 6.14231 11.4162C6.51121 11.027 6.69567 10.4784 6.69567 9.77027V2.24595C6.69567 1.53243 6.51385 0.981081 6.15021 0.591892C5.79185 0.197297 5.28328 0 4.62452 0H3.95258C3.34125 0 2.86694 0.197297 2.52965 0.591892C2.19763 0.981081 2.03163 1.53243 2.03163 2.24595V9.77027C2.03163 10.4784 2.20554 11.027 2.55337 11.4162C2.90646 11.8054 3.40449 12 4.04744 12ZM4.06325 10.7757C3.79975 10.7757 3.59421 10.6892 3.44665 10.5162C3.29909 10.3378 3.22531 10.0892 3.22531 9.77027V2.24595C3.22531 1.92703 3.29118 1.67838 3.42293 1.5C3.55996 1.31622 3.74441 1.22432 3.9763 1.22432H4.6008C4.88539 1.22432 5.10673 1.31622 5.26484 1.5C5.42294 1.67838 5.50199 1.92703 5.50199 2.24595V9.77027C5.50199 10.0892 5.4203 10.3378 5.25693 10.5162C5.09356 10.6892 4.86958 10.7757 4.58499 10.7757H4.06325ZM6.49013 5.33514H13.5099V4.11081H6.49013V5.33514ZM6.49013 7.88108H13.5099V6.65676H6.49013V7.88108ZM15.3913 12H15.9526C16.5902 12 17.0856 11.8054 17.4387 11.4162C17.7918 11.027 17.9684 10.4784 17.9684 9.77027V2.24595C17.9684 1.53243 17.7997 0.981081 17.4624 0.591892C17.1252 0.197297 16.6508 0 16.0395 0H15.3755C14.7167 0 14.2056 0.197297 13.8419 0.591892C13.4836 0.981081 13.3044 1.53243 13.3044 2.24595V9.77027C13.3044 10.4784 13.4862 11.027 13.8498 11.4162C14.2135 11.8054 14.7273 12 15.3913 12ZM15.415 10.7757C15.1252 10.7757 14.8985 10.6892 14.7352 10.5162C14.5771 10.3378 14.498 10.0892 14.498 9.77027V2.24595C14.498 1.92703 14.5771 1.67838 14.7352 1.5C14.8933 1.31622 15.1146 1.22432 15.3992 1.22432H16.0237C16.2556 1.22432 16.4374 1.31622 16.5692 1.5C16.7062 1.67838 16.7747 1.92703 16.7747 2.24595V9.77027C16.7747 10.0892 16.6983 10.3378 16.5454 10.5162C16.3979 10.6892 16.195 10.7757 15.9367 10.7757H15.415ZM17.502 10.2081H18.5138C18.7931 10.2081 19.0435 10.1405 19.2648 10.0054C19.4914 9.87027 19.6706 9.68919 19.8024 9.46216C19.9341 9.23514 20 8.97838 20 8.69189V3.30811C20 3.02162 19.9341 2.76487 19.8024 2.53784C19.6706 2.30541 19.4914 2.12162 19.2648 1.98649C19.0435 1.85135 18.7931 1.78378 18.5138 1.78378H17.502V2.92703H18.5059C18.6113 2.92703 18.7009 2.96757 18.7747 3.04865C18.8485 3.12432 18.8854 3.21892 18.8854 3.33243V8.67568C18.8854 8.78378 18.8485 8.87568 18.7747 8.95135C18.7009 9.02703 18.6113 9.06487 18.5059 9.06487H17.502V10.2081Z"
		fill="currentColor"
	/>
</svg>
