<svg
	color="rgb(var(--foreground, 0, 0, 0))"
	viewBox="0 0 18 18"
	fill="none"
	xmlns="http://www.w3.org/2000/svg"
>
	<path
		d="M9.00391 3.00422C9.29048 3.00422 9.53275 2.89031 9.73075 2.6625C9.92875 2.43469 10.0277 2.1539 10.0277 1.82013C10.0277 1.48106 9.97563 1.18968 9.87142 0.945974C9.77243 0.70227 9.62915 0.469161 9.44157 0.246648C9.31652 0.0877101 9.17585 0.00559226 9.01954 0.000294329C8.86322 -0.0050036 8.72256 0.0612204 8.5975 0.198966C8.40993 0.432075 8.25884 0.673131 8.14421 0.922134C8.03479 1.16584 7.98008 1.46517 7.98008 1.82013C7.98008 2.1539 8.07907 2.43469 8.27707 2.6625C8.48028 2.89031 8.72254 3.00422 9.00391 3.00422ZM8.55843 6.66773H9.42594V2.1539H8.55843V6.66773ZM3.90041 9.12332H14.1074V8.56704C14.1074 7.78295 13.9068 7.19223 13.5056 6.79488C13.1096 6.39224 12.5209 6.19092 11.7393 6.19092H6.26849C5.48692 6.19092 4.89559 6.39224 4.49438 6.79488C4.09839 7.19223 3.90041 7.78295 3.90041 8.56704V9.12332ZM1.23484 17.4437H16.7647V12.5802C16.7647 11.7961 16.5667 11.2054 16.1707 10.8081C15.7747 10.4054 15.186 10.2041 14.4044 10.2041H3.60342C2.82185 10.2041 2.23003 10.4054 1.82882 10.8081C1.43282 11.2054 1.23484 11.7961 1.23484 12.5802V17.4437ZM8.99609 14.0901C8.8033 14.0901 8.61835 14.1378 8.44119 14.2332C8.26925 14.3232 8.0895 14.4292 7.90193 14.551C7.71956 14.6729 7.51898 14.7789 7.30014 14.8689C7.08651 14.9643 6.83903 15.012 6.55767 15.012C6.28672 15.012 6.04706 14.9643 5.83864 14.8689C5.63022 14.7789 5.43746 14.6729 5.2603 14.551C5.08835 14.4292 4.92163 14.3232 4.76011 14.2332C4.59858 14.1378 4.42665 14.0901 4.24429 14.0901C4.06192 14.0901 3.88478 14.1378 3.71284 14.2332C3.54089 14.3232 3.35545 14.4292 3.15745 14.551C2.96466 14.6729 2.73542 14.7789 2.46969 14.8689C2.20916 14.9643 1.89657 15.012 1.53183 15.012H1.23484V13.963H1.53183C1.80799 13.963 2.05546 13.9179 2.2743 13.8279C2.49835 13.7325 2.70936 13.6239 2.90735 13.5021C3.10535 13.3802 3.31163 13.2742 3.52526 13.1842C3.73889 13.0888 3.97855 13.0411 4.24429 13.0411C4.50481 13.0411 4.73145 13.0888 4.92423 13.1842C5.12223 13.2742 5.30458 13.3802 5.47132 13.5021C5.63805 13.6239 5.80738 13.7325 5.97932 13.8279C6.15127 13.9179 6.34404 13.963 6.55767 13.963C6.80777 13.963 7.02659 13.9179 7.21417 13.8279C7.40174 13.7325 7.58149 13.6239 7.75343 13.5021C7.92538 13.3802 8.10773 13.2742 8.30052 13.1842C8.49851 13.0888 8.73036 13.0411 8.99609 13.0411C9.26183 13.0411 9.49107 13.0888 9.68385 13.1842C9.88185 13.2742 10.0668 13.3802 10.2388 13.5021C10.4107 13.6239 10.5904 13.7325 10.778 13.8279C10.9708 13.9179 11.1922 13.963 11.4423 13.963C11.656 13.963 11.8461 13.9179 12.0129 13.8279C12.1848 13.7325 12.3541 13.6239 12.5209 13.5021C12.6876 13.3802 12.8673 13.2742 13.0601 13.1842C13.2581 13.0888 13.49 13.0411 13.7557 13.0411C14.0162 13.0411 14.2533 13.0888 14.4669 13.1842C14.6805 13.2742 14.8863 13.3802 15.0843 13.5021C15.2823 13.6239 15.4907 13.7325 15.7096 13.8279C15.9284 13.9179 16.1759 13.963 16.452 13.963H16.7647V15.012H16.452C16.0873 15.012 15.7747 14.9643 15.5142 14.8689C15.2537 14.7789 15.0244 14.6729 14.8264 14.551C14.6284 14.4292 14.4461 14.3232 14.2793 14.2332C14.1126 14.1378 13.9381 14.0901 13.7557 14.0901C13.5733 14.0901 13.3988 14.1378 13.2321 14.2332C13.0706 14.3232 12.9012 14.4292 12.7241 14.551C12.5521 14.6729 12.362 14.7789 12.1535 14.8689C11.9451 14.9643 11.7081 15.012 11.4423 15.012C11.161 15.012 10.9109 14.9643 10.692 14.8689C10.4732 14.7789 10.27 14.6729 10.0824 14.551C9.90007 14.4292 9.72033 14.3232 9.54317 14.2332C9.37123 14.1378 9.18888 14.0901 8.99609 14.0901ZM0.625237 18H17.3743C17.5462 18 17.6926 17.9364 17.8124 17.8093C17.9375 17.6821 18 17.5311 18 17.3563C18 17.1815 17.9375 17.0305 17.8124 16.9033C17.6926 16.7815 17.5462 16.7205 17.3743 16.7205H0.625237C0.453291 16.7205 0.304807 16.7815 0.179756 16.9033C0.0599145 17.0305 0 17.1815 0 17.3563C0 17.5311 0.0599145 17.6821 0.179756 17.8093C0.304807 17.9364 0.453291 18 0.625237 18Z"
		fill="currentColor"
	/>
</svg>
