<svg
	color="rgb(var(--foreground, 0, 0, 0))"
	viewBox="0 0 18 18"
	fill="none"
	xmlns="http://www.w3.org/2000/svg"
>
	<path
		d="M9.00391 3.00422C9.29048 3.00422 9.53275 2.89031 9.73075 2.6625C9.92875 2.43469 10.0277 2.1539 10.0277 1.82013C10.0277 1.48106 9.97563 1.18968 9.87142 0.945974C9.77243 0.70227 9.62915 0.469161 9.44157 0.246648C9.31652 0.0877101 9.17585 0.00559226 9.01954 0.000294329C8.86322 -0.0050036 8.72256 0.0612204 8.5975 0.198966C8.40993 0.432075 8.25884 0.673131 8.14421 0.922134C8.03479 1.16584 7.98008 1.46517 7.98008 1.82013C7.98008 2.1539 8.07907 2.43469 8.27707 2.6625C8.48028 2.89031 8.72254 3.00422 9.00391 3.00422ZM8.55843 6.66773H9.42594V2.1539H8.55843V6.66773ZM3.90041 10.5538H5.1587V8.63062C5.1587 8.25446 5.25769 7.96837 5.45569 7.77235C5.65368 7.57103 5.92981 7.47037 6.28412 7.47037H11.7159C12.0754 7.47037 12.3541 7.57103 12.5521 7.77235C12.7501 7.96837 12.8491 8.25446 12.8491 8.63062V10.5538H14.1074V8.56704C14.1074 7.78295 13.9068 7.19223 13.5056 6.79488C13.1096 6.39224 12.5209 6.19092 11.7393 6.19092H6.26849C5.48692 6.19092 4.89559 6.39224 4.49438 6.79488C4.09839 7.19223 3.90041 7.78295 3.90041 8.56704V10.5538ZM1.23484 17.4437H2.49313V12.6517C2.49313 12.2703 2.59212 11.9816 2.79012 11.7855C2.98812 11.5842 3.26474 11.4836 3.61905 11.4836H14.3809C14.7353 11.4836 15.0114 11.5842 15.2094 11.7855C15.4074 11.9816 15.5064 12.2703 15.5064 12.6517V17.4437H16.7647V12.5802C16.7647 11.7961 16.5667 11.2054 16.1707 10.8081C15.7747 10.4054 15.186 10.2041 14.4044 10.2041H3.60342C2.82185 10.2041 2.23003 10.4054 1.82882 10.8081C1.43282 11.2054 1.23484 11.7961 1.23484 12.5802V17.4437ZM8.99609 14.2014C9.16804 14.2014 9.33476 14.2464 9.49628 14.3365C9.65781 14.4265 9.82713 14.5299 10.0043 14.6464C10.1814 14.763 10.3794 14.8663 10.5983 14.9563C10.8223 15.0464 11.0776 15.0914 11.3642 15.0914C11.6403 15.0914 11.8826 15.0464 12.091 14.9563C12.3046 14.8663 12.4948 14.763 12.6615 14.6464C12.8283 14.5299 12.9872 14.4265 13.1383 14.3365C13.2894 14.2464 13.4457 14.2014 13.6072 14.2014C13.7635 14.2014 13.9172 14.2464 14.0683 14.3365C14.2246 14.4265 14.3888 14.5299 14.5607 14.6464C14.7379 14.763 14.9384 14.8663 15.1625 14.9563C15.3918 15.0464 15.6575 15.0914 15.9597 15.0914H16.1707V13.8517H15.9597C15.7721 13.8517 15.595 13.8067 15.4282 13.7166C15.2615 13.6266 15.0896 13.5233 14.9124 13.4067C14.7352 13.2901 14.5399 13.1868 14.3262 13.0968C14.1178 13.0067 13.8782 12.9617 13.6072 12.9617C13.3363 12.9617 13.0992 13.0067 12.896 13.0968C12.698 13.1868 12.5183 13.2901 12.3567 13.4067C12.1952 13.5233 12.0363 13.6266 11.88 13.7166C11.7237 13.8067 11.5518 13.8517 11.3642 13.8517C11.1401 13.8517 10.9395 13.8067 10.7624 13.7166C10.5904 13.6266 10.4211 13.5233 10.2544 13.4067C10.0876 13.2901 9.9053 13.1868 9.7073 13.0968C9.5093 13.0067 9.27225 12.9617 8.99609 12.9617C8.71994 12.9617 8.48028 13.0067 8.27707 13.0968C8.07907 13.1868 7.89672 13.2901 7.72999 13.4067C7.56325 13.5233 7.39393 13.6266 7.22198 13.7166C7.05003 13.8067 6.85206 13.8517 6.62801 13.8517C6.44043 13.8517 6.2685 13.8067 6.11218 13.7166C5.95587 13.6266 5.79697 13.5233 5.63544 13.4067C5.47392 13.2901 5.29157 13.1868 5.08836 13.0968C4.89036 13.0067 4.65591 12.9617 4.38497 12.9617C4.11402 12.9617 3.87176 13.0067 3.65813 13.0968C3.44971 13.1868 3.25694 13.2901 3.07978 13.4067C2.90263 13.5233 2.7276 13.6266 2.55566 13.7166C2.38892 13.8067 2.21439 13.8517 2.03202 13.8517H1.77411V15.0914H2.03202C2.33423 15.0914 2.59733 15.0464 2.82138 14.9563C3.04543 14.8663 3.24651 14.763 3.42366 14.6464C3.60082 14.5299 3.76493 14.4265 3.91604 14.3365C4.06714 14.2464 4.22344 14.2014 4.38497 14.2014C4.54128 14.2014 4.69497 14.2464 4.84608 14.3365C4.99718 14.4265 5.15609 14.5299 5.32282 14.6464C5.49477 14.763 5.68493 14.8663 5.89335 14.9563C6.10177 15.0464 6.34664 15.0914 6.62801 15.0914C6.91458 15.0914 7.16727 15.0464 7.38611 14.9563C7.60495 14.8663 7.80292 14.763 7.98008 14.6464C8.16245 14.5299 8.33438 14.4265 8.4959 14.3365C8.65743 14.2464 8.82415 14.2014 8.99609 14.2014ZM0.625237 18H17.3743C17.5462 18 17.6926 17.9364 17.8124 17.8093C17.9375 17.6821 18 17.5311 18 17.3563C18 17.1815 17.9375 17.0305 17.8124 16.9033C17.6926 16.7815 17.5462 16.7205 17.3743 16.7205H0.625237C0.453291 16.7205 0.304807 16.7815 0.179756 16.9033C0.0599145 17.0305 0 17.1815 0 17.3563C0 17.5311 0.0599145 17.6821 0.179756 17.8093C0.304807 17.9364 0.453291 18 0.625237 18Z"
		fill="currentColor"
	/>
</svg>
