<svg
	color="rgb(var(--foreground, 0, 0, 0))"
	viewBox="0 0 18 18"
	fill="none"
	xmlns="http://www.w3.org/2000/svg"
>
	<path
		d="M12.7951 4.7229C12.9983 4.59228 13.1989 4.39635 13.3969 4.13511C13.5948 3.86865 13.7746 3.56823 13.9361 3.23385C14.1028 2.89946 14.2357 2.55724 14.3346 2.20718C14.4336 1.85712 14.4909 1.52796 14.5066 1.2197C14.5222 0.906219 14.4831 0.642369 14.3893 0.428154C14.2956 0.21394 14.1341 0.0780963 13.9048 0.020624C13.6652 -0.0316235 13.4542 0.0153993 13.2718 0.161692C13.0895 0.307985 12.9358 0.524812 12.8107 0.812173C12.6857 1.09431 12.5893 1.41563 12.5216 1.77614C12.4591 2.13665 12.4252 2.50238 12.42 2.87334C12.42 3.24429 12.4487 3.59435 12.506 3.92351C12.5685 4.24745 12.6649 4.51391 12.7951 4.7229ZM12.9827 5.02855C13.2848 5.02855 13.6261 4.9554 14.0064 4.80911C14.3867 4.66281 14.7723 4.46689 15.163 4.22132C15.5538 3.97053 15.9185 3.69362 16.2571 3.39059C16.5957 3.08233 16.8745 2.76884 17.0933 2.45013C17.3121 2.13142 17.4397 1.82577 17.4762 1.53319C17.5179 1.2406 17.4319 0.987203 17.2183 0.772988C17.0047 0.558773 16.752 0.472565 16.4603 0.514363C16.1737 0.550936 15.8716 0.678942 15.5538 0.898382C15.236 1.11782 14.9234 1.39735 14.616 1.73695C14.3138 2.07656 14.0377 2.4423 13.7876 2.83415C13.5427 3.22601 13.3474 3.61525 13.2015 4.00188C13.0556 4.38329 12.9827 4.72551 12.9827 5.02855ZM13.2875 5.2088C13.4958 5.33942 13.7616 5.43608 14.0846 5.49877C14.4076 5.56147 14.754 5.59282 15.1239 5.59282C15.4991 5.58759 15.8664 5.55363 16.2258 5.49094C16.5853 5.42301 16.9057 5.32636 17.1871 5.20096C17.4736 5.07557 17.6898 4.92405 17.8357 4.74641C17.9868 4.56354 18.0337 4.35455 17.9764 4.11944C17.9191 3.88433 17.7836 3.71975 17.57 3.6257C17.3564 3.52643 17.0959 3.48463 16.7885 3.50031C16.4811 3.51076 16.1529 3.56823 15.8038 3.67272C15.4548 3.77199 15.1109 3.90261 14.7723 4.06458C14.4388 4.22655 14.1393 4.4068 13.8736 4.60534C13.6131 4.80388 13.4177 5.00504 13.2875 5.2088ZM0.463288 17.5444C0.661264 17.7482 0.908734 17.8893 1.2057 17.9676C1.50787 18.0512 1.84912 17.9729 2.22944 17.7325L6.1525 15.2717L5.21472 14.3391C5.11052 14.2346 5.05842 14.1144 5.05842 13.9785C5.05842 13.8375 5.10791 13.7147 5.2069 13.6102C5.30589 13.5109 5.42572 13.4613 5.56638 13.4613C5.70705 13.4561 5.82948 13.5057 5.93368 13.6102L7.04339 14.7074L7.91866 14.151L6.60576 12.8813C6.50156 12.7768 6.44946 12.6541 6.44946 12.513C6.44946 12.3719 6.49895 12.2518 6.59794 12.1525C6.70214 12.048 6.82197 11.9958 6.95743 11.9958C7.09809 11.9905 7.22053 12.0402 7.32472 12.1447L8.80955 13.6024L12.6232 11.1885C13.2901 10.7705 13.8163 10.3029 14.2018 9.78568C14.5925 9.26321 14.84 8.72244 14.9442 8.1634C15.0484 7.59912 15.0041 7.03485 14.8113 6.47058C14.6186 5.9063 14.2721 5.37077 13.772 4.86397L13.0999 4.18214C12.5216 3.59697 11.9016 3.22078 11.24 3.05359C10.5835 2.8864 9.92968 2.92036 9.27844 3.15547C8.63241 3.39059 8.03327 3.81902 7.48102 4.44076L9.55977 6.49409C9.66918 6.59858 9.72388 6.72137 9.72388 6.86243C9.72388 6.99828 9.67439 7.11583 9.5754 7.2151C9.47641 7.3196 9.35659 7.37446 9.21592 7.37968C9.07525 7.37968 8.95282 7.32744 8.84862 7.22294L6.84802 5.26366L6.30098 6.12574L7.79361 7.59129C7.90302 7.69578 7.95773 7.81856 7.95773 7.95963C7.95773 8.1007 7.90563 8.22087 7.80143 8.32014C7.69723 8.42463 7.5774 8.47688 7.44195 8.47688C7.30649 8.47688 7.18406 8.42463 7.07465 8.32014L5.74612 7.02701L0.260102 15.7497C0.041286 16.105 -0.0394674 16.4342 0.0178414 16.7372C0.0803602 17.0455 0.228842 17.3145 0.463288 17.5444Z"
		fill="currentColor"
	/>
</svg>
