<svg
	color="rgb(var(--foreground, 0, 0, 0))"
	viewBox="0 0 20 16"
	fill="none"
	xmlns="http://www.w3.org/2000/svg"
>
	<path
		d="M9.69232 11.8002H10.3851C11.35 11.8002 12.2249 11.6457 13.0102 11.3368C13.8005 11.0227 14.4805 10.5747 15.0502 9.99279C15.6198 9.41092 16.0586 8.71318 16.3665 7.89959C16.6745 7.08084 16.8284 6.16684 16.8284 5.15757V3.5896C16.8284 2.97683 16.5436 2.43872 15.9739 1.97528C15.4042 1.51184 14.6088 1.15139 13.5875 0.893924C12.5714 0.631308 11.3885 0.5 10.0387 0.5C8.68896 0.5 7.50306 0.631308 6.48175 0.893924C5.46558 1.15139 4.67273 1.51184 4.10306 1.97528C3.53338 2.43872 3.24857 2.97683 3.24857 3.5896V5.15757C3.24857 6.13594 3.40253 7.02935 3.71046 7.8378C4.01839 8.64624 4.45715 9.34655 5.02682 9.93872C5.5965 10.5309 6.27645 10.9892 7.0668 11.3136C7.85716 11.638 8.7326 11.8002 9.69232 11.8002ZM10.0387 5.47425C8.9661 5.47425 8.00856 5.39186 7.16688 5.22709C6.3252 5.05716 5.66065 4.83059 5.17309 4.54737C4.69066 4.26416 4.44947 3.9449 4.44947 3.5896C4.44947 3.23429 4.69066 2.91504 5.17309 2.63182C5.66065 2.34861 6.3252 2.12461 7.16688 1.95984C8.00856 1.78991 8.9661 1.70494 10.0387 1.70494C11.1165 1.70494 12.0761 1.78991 12.9178 1.95984C13.7595 2.12461 14.4215 2.34861 14.9039 2.63182C15.3915 2.91504 15.6352 3.23429 15.6352 3.5896C15.6352 3.9449 15.3915 4.26416 14.9039 4.54737C14.4215 4.83059 13.7595 5.05716 12.9178 5.22709C12.0761 5.39186 11.1165 5.47425 10.0387 5.47425ZM15.997 8.3862H16.6052C17.4622 8.3862 18.1345 8.1725 18.622 7.74511C19.1096 7.31771 19.3534 6.73069 19.3534 5.98404C19.3534 5.23738 19.107 4.65036 18.6144 4.22297C18.1268 3.79557 17.4571 3.58187 16.6052 3.58187H16.1125V4.77909H16.6052C17.0927 4.77909 17.4725 4.88723 17.7445 5.1035C18.0165 5.31462 18.1525 5.60814 18.1525 5.98404C18.1525 6.35994 18.0165 6.65602 17.7445 6.8723C17.4725 7.08342 17.0927 7.18898 16.6052 7.18898H15.997V8.3862ZM10.0002 15.5C11.4629 15.5 12.8049 15.4022 14.0263 15.2065C15.2478 15.0108 16.3049 14.7302 17.1979 14.3646C18.0909 13.999 18.7811 13.5664 19.2687 13.0669C19.7562 12.5675 20 12.0139 20 11.4063C20 10.9377 19.8461 10.4974 19.5381 10.0855C19.2302 9.67353 18.7966 9.30278 18.2371 8.97322C18.0062 9.07106 17.7624 9.14573 17.5058 9.19722C17.2544 9.24871 16.9824 9.27961 16.6898 9.28991C16.0791 10.361 15.2298 11.1977 14.1418 11.8002C13.0589 12.4027 11.8068 12.7039 10.3851 12.7039H9.69232C8.64022 12.7039 7.67241 12.5263 6.78967 12.171C5.90694 11.8157 5.13975 11.3162 4.48796 10.6725C3.83617 10.0288 3.32557 9.26673 2.95605 8.3862C2.02199 8.7518 1.29586 9.19207 0.777502 9.707C0.25915 10.2168 0 10.7832 0 11.4063C0 12.0139 0.243755 12.5675 0.731314 13.0669C1.22401 13.5664 1.91678 13.999 2.80979 14.3646C3.70279 14.7302 4.75735 15.0108 5.97368 15.2065C7.19515 15.4022 8.53756 15.5 10.0002 15.5Z"
		fill="currentColor"
	/>
</svg>
