<svg
	color="rgb(var(--foreground, 0, 0, 0))"
	viewBox="0 0 20 16"
	fill="none"
	xmlns="http://www.w3.org/2000/svg"
>
	<path
		d="M15.0733 9.05487C15.8379 9.23519 16.4999 9.449 17.0593 9.69629C17.6188 9.94359 18.0498 10.2141 18.3526 10.5077C18.6554 10.7962 18.8068 11.0951 18.8068 11.4042C18.8068 11.7803 18.5836 12.1435 18.1371 12.4938C17.6906 12.839 17.0671 13.1481 16.2664 13.4212C15.4658 13.6942 14.5319 13.908 13.4644 14.0626C12.3969 14.2223 11.2418 14.3022 9.99976 14.3022C8.75777 14.3022 7.60314 14.2223 6.53564 14.0626C5.46814 13.908 4.53417 13.6942 3.73355 13.4212C2.93293 13.1481 2.30943 12.839 1.86293 12.4938C1.41642 12.1435 1.1932 11.7803 1.1932 11.4042C1.1932 11.0951 1.33945 10.7988 1.63199 10.5155C1.92965 10.2269 2.35045 9.95904 2.89446 9.71175C3.44361 9.46445 4.09277 9.24807 4.84207 9.0626L4.25702 7.96522C2.92778 8.31556 1.88605 8.78696 1.13161 9.37944C0.377179 9.97192 0 10.6468 0 11.4042C0 12.0121 0.243755 12.5659 0.731314 13.0657C1.22401 13.5654 1.91678 13.9982 2.80979 14.364C3.70279 14.7298 4.75735 15.0106 5.97368 15.2063C7.19515 15.4021 8.53708 15.5 9.99976 15.5C11.4624 15.5 12.8049 15.4021 14.0263 15.2063C15.2478 15.0106 16.3049 14.7298 17.1979 14.364C18.0909 13.9982 18.7811 13.5654 19.2687 13.0657C19.7562 12.5659 20 12.0121 20 11.4042C20 10.6314 19.6023 9.94358 18.8068 9.3408C18.0164 8.73287 16.9285 8.25631 15.5428 7.91113L15.0733 9.05487ZM15.7661 3.69165V5.3068C15.7661 6.41963 15.5428 7.39851 15.0963 8.24343C14.6498 9.0832 14.0212 9.74008 13.2103 10.2141C12.4046 10.6829 11.4526 10.9173 10.3544 10.9173H9.63795C8.53966 10.9173 7.58517 10.6829 6.77428 10.2141C5.96852 9.74523 5.34246 9.09093 4.89596 8.25116C4.45459 7.40623 4.23392 6.42478 4.23392 5.3068V3.69165H2.99454V5.3068C2.99454 6.31659 3.15362 7.23879 3.47182 8.07342C3.79001 8.90804 4.2416 9.63189 4.82667 10.245C5.41688 10.8529 6.11735 11.3243 6.92824 11.6592C7.74426 11.9941 8.64744 12.1615 9.63795 12.1615H10.3544C11.35 12.1615 12.2532 11.9941 13.0641 11.6592C13.8801 11.3243 14.5806 10.8529 15.1656 10.245C15.7558 9.63189 16.21 8.90804 16.5282 8.07342C16.8464 7.23364 17.0055 6.31144 17.0055 5.3068V3.69165H15.7661ZM9.99976 6.87558C11.3906 6.87558 12.6124 6.74163 13.6645 6.47372C14.7166 6.20582 15.5351 5.83488 16.1202 5.3609C16.7104 4.88176 17.0055 4.32535 17.0055 3.69165C17.0055 3.05796 16.7104 2.50155 16.1202 2.02241C15.5351 1.54328 14.7166 1.16976 13.6645 0.901855C12.6124 0.633952 11.3906 0.5 9.99976 0.5C8.6038 0.5 7.37989 0.633952 6.32779 0.901855C5.28082 1.16976 4.46232 1.54328 3.87212 2.02241C3.28705 2.50155 2.99454 3.05796 2.99454 3.69165C2.99454 4.32535 3.28705 4.88176 3.87212 5.3609C4.46232 5.83488 5.28339 6.20582 6.33549 6.47372C7.38759 6.74163 8.60893 6.87558 9.99976 6.87558ZM9.99976 5.63138C9.16834 5.63138 8.40116 5.58243 7.69804 5.48454C7.00006 5.38666 6.39196 5.25013 5.87361 5.07496C5.35526 4.89464 4.95242 4.68856 4.66501 4.45672C4.37761 4.21973 4.23392 3.96471 4.23392 3.69165C4.23392 3.4186 4.37761 3.16358 4.66501 2.92658C4.95242 2.68959 5.35526 2.48351 5.87361 2.30835C6.39196 2.13318 7.00006 1.99665 7.69804 1.89876C8.40116 1.79572 9.16834 1.7442 9.99976 1.7442C10.8312 1.7442 11.5963 1.79572 12.2943 1.89876C12.9974 1.99665 13.608 2.13318 14.1264 2.30835C14.6447 2.48351 15.0476 2.68959 15.335 2.92658C15.6224 3.16358 15.7661 3.4186 15.7661 3.69165C15.7661 3.96471 15.6224 4.21973 15.335 4.45672C15.0476 4.68856 14.6447 4.89464 14.1264 5.07496C13.608 5.25013 12.9974 5.38666 12.2943 5.48454C11.5963 5.58243 10.8312 5.63138 9.99976 5.63138ZM16.1433 8.64529H16.7745C17.6573 8.64529 18.35 8.42633 18.853 7.98841C19.3559 7.54534 19.6074 6.93483 19.6074 6.15688C19.6074 5.38923 19.3534 4.78387 18.8453 4.3408C18.3423 3.89773 17.6521 3.6762 16.7745 3.6762H16.2588V4.9204H16.7745C17.2723 4.9204 17.6624 5.03117 17.9446 5.2527C18.2269 5.46909 18.368 5.77048 18.368 6.15688C18.368 6.54328 18.2269 6.84724 17.9446 7.06878C17.6624 7.29031 17.2723 7.40108 16.7745 7.40108H16.1433V8.64529Z"
		fill="currentColor"
	/>
</svg>
