<svg
	color="rgb(var(--foreground, 0, 0, 0))"
	viewBox="0 0 11 18"
	fill="none"
	xmlns="http://www.w3.org/2000/svg"
>
	<path
		d="M2.74224 18C3.0783 18 3.34232 17.912 3.53436 17.7361C3.72639 17.5602 3.8229 17.3144 3.8229 16.9987L3.66288 8.28202C3.66288 8.14748 3.69221 8.03105 3.75089 7.93273C3.8149 7.82924 3.90825 7.75162 4.03093 7.69987C4.383 7.54981 4.66836 7.3868 4.88707 7.21087C5.11111 7.02975 5.27112 6.79948 5.36714 6.52005C5.46316 6.24062 5.50316 5.87322 5.48716 5.41785L5.26312 0.652005C5.24712 0.294955 5.0631 0.116429 4.71104 0.116429C4.55634 0.116429 4.43367 0.165589 4.34298 0.263907C4.2523 0.35705 4.20696 0.491591 4.20696 0.667529L4.26297 5.30142C4.26297 5.44114 4.2203 5.54981 4.13495 5.62743C4.05494 5.70505 3.95093 5.74386 3.8229 5.74386C3.68421 5.74386 3.5717 5.70763 3.48635 5.63519C3.401 5.55757 3.35833 5.45407 3.35833 5.32471L3.27832 0.527814C3.27299 0.362225 3.22231 0.232859 3.1263 0.139715C3.03561 0.0465718 2.9076 0 2.74224 0C2.58221 0 2.4542 0.0465718 2.35818 0.139715C2.26216 0.232859 2.21416 0.362225 2.21416 0.527814L2.13414 5.32471C2.13414 5.45407 2.08881 5.55757 1.99812 5.63519C1.91277 5.70763 1.80343 5.74386 1.67007 5.74386C1.37135 5.74386 1.22201 5.59638 1.22201 5.30142L1.27801 0.667529C1.27801 0.491591 1.23268 0.35705 1.14199 0.263907C1.05664 0.165589 0.933967 0.116429 0.773937 0.116429C0.608573 0.116429 0.477895 0.163001 0.381877 0.256145C0.285859 0.349288 0.232521 0.481242 0.221853 0.652005L0.0058196 5.41785C-0.0155177 5.87322 0.0218188 6.24062 0.117837 6.52005C0.213855 6.79948 0.371201 7.02975 0.589909 7.21087C0.813951 7.3868 1.10198 7.54981 1.45404 7.69987C1.58206 7.75162 1.67541 7.82924 1.73408 7.93273C1.79276 8.03105 1.8221 8.14748 1.8221 8.28202L1.67007 16.9987C1.66474 17.3144 1.75808 17.5602 1.95012 17.7361C2.14215 17.912 2.40618 18 2.74224 18ZM9.0077 11.2316L8.83167 16.9599C8.821 17.2962 8.91434 17.5524 9.11171 17.7283C9.30908 17.9094 9.5731 18 9.90383 18C10.2399 18 10.5066 17.9172 10.704 17.7516C10.9013 17.5912 11 17.3558 11 17.0453V0.582147C11 0.385511 10.9413 0.240621 10.824 0.147477C10.7066 0.0491591 10.5733 0 10.4239 0C10.2746 0 10.1439 0.0413972 10.0319 0.124191C9.91983 0.206986 9.79715 0.338939 9.6638 0.520052C9.34374 0.959897 9.05304 1.48512 8.79166 2.09573C8.53028 2.70116 8.30359 3.36611 8.11156 4.09056C7.92486 4.80983 7.78085 5.55757 7.67949 6.33376C7.57814 7.10996 7.52747 7.88616 7.52747 8.66235V9.04269C7.52747 9.31177 7.57814 9.54463 7.67949 9.74127C7.78085 9.9379 7.93019 10.1009 8.12756 10.2303L8.60763 10.5408C8.74633 10.6391 8.84767 10.7451 8.91168 10.859C8.98103 10.9677 9.01303 11.0919 9.0077 11.2316Z"
		fill="currentColor"
	/>
</svg>
