<svg
	color="rgb(var(--foreground, 0, 0, 0))"
	viewBox="0 0 14 20"
	fill="none"
	xmlns="http://www.w3.org/2000/svg"
>
	<path
		d="M1.41922 6.78826L1.88546 5.77402C1.69183 5.71893 1.53132 5.60623 1.40393 5.43594C1.27654 5.26565 1.21285 5.07032 1.21285 4.84994C1.21285 4.61454 1.28928 4.41169 1.44215 4.2414C1.59501 4.07111 1.79374 3.95591 2.03832 3.89581C2.28291 3.8307 2.54276 3.84071 2.81792 3.92586C2.78225 3.67042 2.83321 3.44754 2.97078 3.25722C3.11346 3.06689 3.30199 2.93917 3.53639 2.87406C3.77587 2.80895 4.02555 2.839 4.28542 2.96422C4.16823 2.52346 4.21918 2.18538 4.43829 1.94998C4.66249 1.70957 4.93255 1.58936 5.24847 1.58936C5.5593 1.58936 5.83955 1.70456 6.08923 1.93495C6.33891 2.16535 6.43318 2.50343 6.37203 2.94919C6.53509 2.84401 6.72617 2.7789 6.94528 2.75386C7.16948 2.72881 7.38604 2.73883 7.59495 2.78391C7.80896 2.82898 7.98476 2.90411 8.12234 3.00929C8.21915 2.78391 8.36437 2.60861 8.558 2.48339C8.75673 2.35818 8.97583 2.29557 9.21532 2.29557C9.56182 2.29557 9.82169 2.41828 9.99493 2.6637C10.1682 2.90411 10.2497 3.21214 10.2395 3.58778C10.5554 3.5377 10.8357 3.55022 11.0803 3.62535C11.3249 3.69547 11.5159 3.82569 11.6535 4.01601C11.7962 4.20133 11.8675 4.43924 11.8675 4.72974C11.8675 4.96514 11.786 5.18051 11.6229 5.37584C11.465 5.56617 11.2688 5.69639 11.0344 5.76651L11.6535 6.71313C12.0408 6.52781 12.3542 6.25234 12.5936 5.88671C12.8382 5.51608 12.9605 5.10538 12.9605 4.65461C12.9605 4.22387 12.8739 3.84322 12.7006 3.51265C12.5274 3.18209 12.2854 2.92164 11.9745 2.73132C11.6637 2.53598 11.307 2.43331 10.9045 2.42329C10.7465 2.05766 10.5198 1.76466 10.2242 1.54429C9.92869 1.3189 9.57456 1.20621 9.16182 1.20621C8.90195 1.20621 8.65482 1.25129 8.42042 1.34144C8.18603 1.42658 7.97712 1.5518 7.79368 1.71708C7.69686 1.69204 7.58731 1.67701 7.46502 1.672C7.34782 1.66199 7.23317 1.6695 7.12107 1.69454C6.95292 1.32892 6.70069 1.03842 6.36439 0.823053C6.02809 0.607684 5.65611 0.5 5.24847 0.5C4.70835 0.5 4.26759 0.637736 3.92619 0.913207C3.58479 1.18367 3.38097 1.48168 3.31473 1.80724C3.1211 1.79221 2.94276 1.83228 2.7797 1.92744C2.61665 2.0176 2.48671 2.14281 2.3899 2.30308C2.29308 2.45835 2.24468 2.62113 2.24468 2.79142C1.85742 2.7814 1.50075 2.86905 1.17463 3.05437C0.853618 3.23468 0.596295 3.4826 0.402666 3.79814C0.214132 4.11368 0.119866 4.46428 0.119866 4.84994C0.119866 5.28569 0.23961 5.67886 0.479099 6.02946C0.723683 6.38006 1.03706 6.63299 1.41922 6.78826ZM3.52874 18.2979H8.30578L8.25992 17.1785H5.85229L4.98096 7.77995C4.9351 7.29412 5.0523 6.90345 5.33255 6.60795C5.6179 6.31244 6.02044 6.16469 6.54018 6.16469C7.05483 6.16469 7.45483 6.31244 7.74018 6.60795C8.02552 6.90345 8.14527 7.29412 8.09941 7.77995L7.36566 15.7361L8.54272 15.2252L9.22297 7.82503C9.26373 7.40932 9.4064 7.09378 9.65099 6.87841C9.90067 6.65803 10.1962 6.54784 10.5376 6.54784C10.8128 6.54784 11.0675 6.61296 11.3019 6.74318C11.5363 6.86839 11.7121 7.05121 11.8293 7.29162C11.9465 7.53203 11.972 7.82002 11.9057 8.1556L10.8816 13.377L12.0204 13.4296L13.0217 8.2157C13.1287 7.65975 13.0777 7.17392 12.8688 6.7582C12.6599 6.33749 12.3465 6.01193 11.9287 5.78153C11.5159 5.54613 11.0523 5.42843 10.5376 5.42843C10.1911 5.42843 9.87009 5.49605 9.57456 5.63128C9.28411 5.7615 9.03188 5.94682 8.81787 6.18723C8.60386 5.84164 8.29813 5.56617 7.90068 5.36081C7.50323 5.15045 7.04973 5.04527 6.54018 5.04527C6.03063 5.04527 5.57713 5.15045 5.17969 5.36081C4.78224 5.56617 4.47651 5.84164 4.26249 6.18723C4.04848 5.94682 3.79371 5.7615 3.49817 5.63128C3.20263 5.49605 2.88416 5.42843 2.54276 5.42843C2.02812 5.42843 1.56189 5.54613 1.14406 5.78153C0.72623 6.01193 0.412857 6.33749 0.203941 6.7582C-0.00497417 7.17392 -0.0533815 7.65975 0.0587196 8.2157L1.67145 16.6076C1.77845 17.1485 1.97716 17.5642 2.26761 17.8547C2.55805 18.1502 2.97843 18.2979 3.52874 18.2979ZM3.56696 17.1785C3.35804 17.1785 3.18989 17.1259 3.0625 17.0208C2.94021 16.9156 2.86123 16.7603 2.82556 16.555L1.17463 8.1556C1.10839 7.82002 1.13387 7.53203 1.25107 7.29162C1.36826 7.05121 1.54151 6.86839 1.77081 6.74318C2.0052 6.61296 2.26251 6.54784 2.54276 6.54784C2.88416 6.54784 3.17715 6.65803 3.42174 6.87841C3.67142 7.09378 3.81409 7.40932 3.84976 7.82503L4.71345 17.1785H3.56696ZM10.7134 19.5C11.0854 19.5 11.4293 19.4048 11.7452 19.2145C12.0612 19.0242 12.3006 18.7713 12.4637 18.4557C12.9172 18.3505 13.2866 18.1176 13.572 17.757C13.8573 17.4014 14 16.9957 14 16.5399C14 16.1292 13.8828 15.7586 13.6484 15.428C13.4191 15.0925 13.1287 14.837 12.7771 14.6617C12.7618 14.3011 12.6599 13.9856 12.4713 13.7151C12.2828 13.4446 12.0357 13.2343 11.73 13.084C11.4242 12.9338 11.0854 12.8586 10.7134 12.8586C10.1631 12.8586 9.6892 13.0164 9.29175 13.3319C8.8994 13.6475 8.68794 14.0657 8.65736 14.5866C8.19877 14.6868 7.81661 14.9197 7.51088 15.2853C7.21024 15.6509 7.05993 16.0666 7.05993 16.5324C7.05993 16.883 7.14145 17.2036 7.30451 17.4941C7.47266 17.7846 7.69941 18.02 7.98476 18.2003C8.27011 18.3856 8.58603 18.4933 8.93252 18.5233C9.11086 18.8138 9.358 19.0492 9.67392 19.2295C9.99493 19.4098 10.3414 19.5 10.7134 19.5ZM10.7134 18.5308C10.4179 18.5308 10.1554 18.4432 9.92615 18.2679C9.70194 18.0926 9.59749 17.8347 9.61277 17.4941C9.3529 17.5742 9.10322 17.5867 8.86373 17.5316C8.62424 17.4765 8.42552 17.3638 8.26756 17.1936C8.11469 17.0233 8.03826 16.8029 8.03826 16.5324C8.03826 16.1217 8.18858 15.8112 8.48921 15.6008C8.78985 15.3955 9.17965 15.3329 9.65863 15.413C9.57201 15.1776 9.55417 14.9397 9.60513 14.6993C9.66118 14.4539 9.78092 14.2485 9.96436 14.0832C10.1529 13.9129 10.4026 13.8278 10.7134 13.8278C11.014 13.8278 11.2586 13.9104 11.4472 14.0757C11.6357 14.236 11.7605 14.4413 11.8217 14.6918C11.8879 14.9422 11.8803 15.2001 11.7987 15.4656C12.1554 15.4255 12.4433 15.5082 12.6624 15.7135C12.8815 15.9239 12.9911 16.2119 12.9911 16.5775C12.9911 16.898 12.8815 17.146 12.6624 17.3213C12.4433 17.5016 12.1427 17.5742 11.7605 17.5391C11.7707 17.8296 11.6663 18.0676 11.4472 18.2529C11.228 18.4382 10.9835 18.5308 10.7134 18.5308Z"
		fill="currentColor"
	/>
</svg>
