<svg
	color="rgb(var(--foreground, 0, 0, 0))"
	viewBox="0 0 14 20"
	fill="none"
	xmlns="http://www.w3.org/2000/svg"
>
	<path
		d="M0.339956 5.98438C0.798381 5.73896 1.29544 5.61625 1.83113 5.61625C2.23804 5.61625 2.63208 5.69388 3.01325 5.84915C3.39441 6.00442 3.71891 6.24232 3.98675 6.56287C4.2649 6.1722 4.62546 5.87419 5.06843 5.66884C5.51656 5.46349 5.98013 5.36081 6.45916 5.36081C6.94334 5.36081 7.40692 5.46349 7.84989 5.66884C8.29801 5.87419 8.65857 6.1722 8.93157 6.56287C9.19941 6.24232 9.52649 6.00442 9.9128 5.84915C10.2991 5.69388 10.6983 5.61625 11.1104 5.61625C11.6306 5.61625 12.1122 5.73395 12.5552 5.96936C12.6891 5.77903 12.7947 5.57368 12.872 5.3533C12.9492 5.13292 12.9879 4.90003 12.9879 4.65461C12.9879 4.22387 12.8977 3.84322 12.7174 3.51265C12.5423 3.18209 12.2976 2.92164 11.9834 2.73132C11.6744 2.53598 11.3164 2.43331 10.9095 2.42329C10.7447 2.05766 10.5129 1.76466 10.2141 1.54429C9.92053 1.3189 9.56512 1.20621 9.1479 1.20621C8.88521 1.20621 8.63282 1.25129 8.39073 1.34144C8.15379 1.42658 7.94261 1.5518 7.75717 1.71708C7.66446 1.69204 7.55629 1.67701 7.43267 1.672C7.30905 1.66199 7.19316 1.6695 7.08499 1.69454C6.91501 1.32892 6.66004 1.03842 6.32009 0.823053C5.98013 0.607684 5.60412 0.5 5.19205 0.5C4.64091 0.5 4.19279 0.637736 3.84768 0.913207C3.50773 1.18367 3.30427 1.48168 3.23731 1.80724C3.04157 1.79221 2.86129 1.83228 2.69647 1.92744C2.53164 2.0176 2.39772 2.14281 2.2947 2.30308C2.19684 2.45835 2.1479 2.62113 2.1479 2.79142C1.75644 2.7814 1.39845 2.86905 1.07395 3.05437C0.749448 3.23468 0.48933 3.4826 0.293598 3.79814C0.0978661 4.11368 0 4.46428 0 4.84994C0 5.05028 0.0257542 5.24311 0.0772627 5.42843C0.128771 5.61375 0.216336 5.79906 0.339956 5.98438ZM3.43046 18.2979H4.49669L3.55408 8.20067C3.50773 7.66976 3.30684 7.27659 2.95143 7.02115C2.59603 6.76071 2.20971 6.63049 1.79249 6.63049C1.45769 6.63049 1.13834 6.71313 0.834437 6.87841C0.535688 7.04369 0.306475 7.28911 0.146799 7.61467C-0.00772627 7.93522 -0.0386313 8.3359 0.0540839 8.81673L1.57616 16.6076C1.67918 17.1435 1.87491 17.5592 2.16336 17.8547C2.4518 18.1502 2.87417 18.2979 3.43046 18.2979ZM5.50883 18.2979H6.79912V18.2604C6.61884 18.03 6.47976 17.7745 6.3819 17.4941C6.28918 17.2186 6.24283 16.9281 6.24283 16.6226C6.24283 16.0867 6.37932 15.5933 6.65232 15.1425C6.93046 14.6868 7.3142 14.3337 7.80353 14.0832L8.33664 8.26829C8.37785 7.81752 8.29801 7.4544 8.09713 7.17892C7.9014 6.90345 7.64901 6.70311 7.33996 6.5779C7.03091 6.44767 6.73731 6.38256 6.45916 6.38256C6.18102 6.38256 5.88742 6.44767 5.57837 6.5779C5.27447 6.70311 5.02208 6.90345 4.82119 7.17892C4.62031 7.4544 4.54047 7.81752 4.58168 8.26829L5.50883 18.2979ZM10.6777 12.175C11.2134 12.175 11.7001 12.3002 12.138 12.5506L12.8642 8.81673C12.957 8.3359 12.9235 7.93522 12.7638 7.61467C12.6093 7.28911 12.3801 7.04369 12.0762 6.87841C11.7774 6.71313 11.4606 6.63049 11.1258 6.63049C10.7086 6.63049 10.3223 6.76071 9.96689 7.02115C9.61663 7.27659 9.41575 7.66976 9.36424 8.20067L8.93157 12.8061C9.15305 12.6107 9.41317 12.458 9.71192 12.3478C10.0158 12.2326 10.3377 12.175 10.6777 12.175ZM10.6777 19.5C11.0537 19.5 11.4014 19.4048 11.7208 19.2145C12.0401 19.0242 12.2822 18.7713 12.447 18.4557C12.9673 18.3455 13.3561 18.1151 13.6137 17.7645C13.8712 17.4139 14 17.0358 14 16.6301C14 16.2144 13.8661 15.8312 13.5982 15.4806C13.3355 15.135 12.9518 14.9247 12.447 14.8495C12.4316 14.3737 12.2564 13.9806 11.9216 13.67C11.592 13.3595 11.1773 13.2042 10.6777 13.2042C10.1884 13.2042 9.77631 13.3545 9.4415 13.655C9.11185 13.9505 8.93672 14.3312 8.91611 14.797C8.39588 14.8771 7.99411 15.095 7.71082 15.4506C7.43267 15.8112 7.2936 16.2019 7.2936 16.6226C7.2936 17.0433 7.43267 17.429 7.71082 17.7796C7.98896 18.1352 8.39073 18.3656 8.91611 18.4707C9.07064 18.7813 9.30758 19.0292 9.62693 19.2145C9.94628 19.4048 10.2965 19.5 10.6777 19.5Z"
		fill="currentColor"
	/>
</svg>
