<svg
	color="rgb(var(--foreground, 0, 0, 0))"
	viewBox="0 0 20 18"
	fill="none"
	xmlns="http://www.w3.org/2000/svg"
>
	<path
		d="M2.42091 16.6844H11.0652C11.0599 16.6483 11.0546 16.6122 11.0494 16.5761C11.0494 16.54 11.0467 16.5039 11.0414 16.4678L10.2159 8.04041C10.1789 7.69476 10.2292 7.38005 10.3667 7.0963C10.5096 6.81255 10.716 6.58556 10.9859 6.41531C11.261 6.24506 11.5759 6.15993 11.9304 6.15993H14.0814C14.0814 5.92261 14.0576 5.73173 14.01 5.58727C13.9624 5.44282 13.8777 5.29063 13.756 5.1307L12.24 3.17283V1.70249C12.24 1.15563 12.0786 0.735168 11.7558 0.441101C11.4383 0.147034 10.9806 0 10.3826 0H3.69883C3.10086 0 2.64052 0.147034 2.31772 0.441101C2.00021 0.735168 1.84148 1.15563 1.84148 1.70249V3.17283L0.333371 5.1307C0.201076 5.30095 0.111125 5.46346 0.0634992 5.61823C0.021165 5.76784 0 5.97678 0 6.24506V14.3551C0 15.129 0.201067 15.7094 0.603242 16.0963C1.01071 16.4884 1.61656 16.6844 2.42091 16.6844ZM4.88944 3.0258C4.75185 3.0258 4.6328 2.97678 4.53225 2.87876C4.43171 2.78074 4.38144 2.66208 4.38144 2.52279C4.38144 2.38349 4.43171 2.26483 4.53225 2.16681C4.6328 2.06363 4.75185 2.01204 4.88944 2.01204H9.16819C9.30578 2.01204 9.42483 2.06363 9.52537 2.16681C9.62592 2.26483 9.67618 2.38349 9.67618 2.52279C9.67618 2.66208 9.62592 2.78074 9.52537 2.87876C9.42483 2.97678 9.30578 3.0258 9.16819 3.0258H4.88944ZM13.8036 18H17.4786C18.0025 18 18.3994 17.8659 18.6693 17.5976C18.9391 17.3345 19.1032 16.9243 19.1614 16.3672L19.9953 7.93981C20.0165 7.72313 19.9662 7.5503 19.8445 7.42132C19.7281 7.28719 19.5609 7.22012 19.3439 7.22012H11.9304C11.7187 7.22012 11.5521 7.28719 11.4303 7.42132C11.3139 7.55546 11.2663 7.72829 11.2875 7.93981L12.1209 16.3672C12.1738 16.9243 12.3352 17.3345 12.6051 17.5976C12.875 17.8659 13.2745 18 13.8036 18ZM15.1212 7.61479H16.2166L16.2642 6.88736C16.2801 6.69132 16.3198 6.53138 16.3833 6.40757C16.4521 6.28375 16.5605 6.17025 16.7087 6.06707L19.3598 4.2098C19.5133 4.10662 19.5953 3.98538 19.6059 3.84609C19.6165 3.70163 19.5768 3.57266 19.4868 3.45916C19.4021 3.34566 19.2857 3.27343 19.1376 3.24248C18.9947 3.20636 18.8439 3.24506 18.6851 3.35856L16.1293 5.16165C15.8224 5.37833 15.5975 5.61565 15.4546 5.8736C15.3117 6.1264 15.2218 6.44368 15.1847 6.82545L15.1212 7.61479Z"
		fill="currentColor"
	/>
</svg>
