<svg
	color="rgb(var(--foreground, 0, 0, 0))"
	viewBox="0 0 20 18"
	fill="none"
	xmlns="http://www.w3.org/2000/svg"
>
	<path
		d="M13.804 18H17.4791C18.003 18 18.3998 17.8659 18.6697 17.5976C18.9396 17.3345 19.1036 16.9243 19.1618 16.3672L19.9953 7.93981C20.0165 7.72313 19.9662 7.5503 19.8445 7.42133C19.7281 7.28719 19.5614 7.22012 19.3444 7.22012H11.9307C11.719 7.22012 11.5523 7.28719 11.4306 7.42133C11.3142 7.55546 11.2666 7.72829 11.2878 7.93981L12.1212 16.3672C12.1741 16.9243 12.3355 17.3345 12.6054 17.5976C12.8753 17.8659 13.2748 18 13.804 18ZM13.8516 16.7928C13.5447 16.7928 13.3727 16.6354 13.3357 16.3207L12.5736 8.42734H18.7094L17.9395 16.3207C17.9077 16.6354 17.7384 16.7928 17.4315 16.7928H13.8516ZM15.1216 7.61479H16.217L16.2646 6.88736C16.2805 6.69132 16.3202 6.53138 16.3837 6.40757C16.4525 6.28375 16.561 6.17025 16.7091 6.06707L19.3603 4.2098C19.5138 4.10662 19.5958 3.98538 19.6064 3.84609C19.6169 3.70163 19.5773 3.57266 19.4873 3.45916C19.4026 3.34566 19.2862 3.27343 19.138 3.24248C18.9952 3.20636 18.8444 3.24506 18.6856 3.35856L16.1297 5.16165C15.8228 5.37833 15.5979 5.61565 15.455 5.8736C15.3121 6.1264 15.2222 6.44368 15.1851 6.82545L15.1216 7.61479ZM2.42097 16.6844H11.0655C11.0602 16.6483 11.0549 16.6122 11.0496 16.5761C11.0496 16.54 11.047 16.5039 11.0417 16.4678L10.9464 15.4385H2.43684C1.66422 15.4385 1.27795 15.0568 1.27795 14.2932V6.30696C1.27795 6.15735 1.28589 6.04385 1.30177 5.96647C1.31764 5.88908 1.35468 5.81169 1.41289 5.73431L2.96072 3.73775C3.01893 3.66036 3.05862 3.58555 3.07979 3.51333C3.10625 3.4411 3.11947 3.35598 3.11947 3.25795V1.87274C3.11947 1.45486 3.3179 1.24592 3.71479 1.24592H10.3749C10.7665 1.24592 10.9623 1.45486 10.9623 1.87274V3.25795C10.9623 3.35598 10.9729 3.4411 10.9941 3.51333C11.0205 3.58555 11.0629 3.66036 11.1211 3.73775L12.6689 5.73431C12.7218 5.80138 12.7562 5.86586 12.7721 5.92777C12.788 5.98452 12.7959 6.06191 12.7959 6.15993H14.0818C14.0818 5.92261 14.058 5.73173 14.0104 5.58727C13.9627 5.44282 13.8781 5.29063 13.7563 5.1307L12.2403 3.17283V1.70249C12.2403 1.15563 12.0789 0.735168 11.7561 0.441101C11.4386 0.147034 10.9809 0 10.3829 0H3.69892C3.10093 0 2.64058 0.147034 2.31778 0.441101C2.00026 0.735168 1.84152 1.15563 1.84152 1.70249V3.17283L0.333379 5.1307C0.201081 5.30095 0.111128 5.46346 0.0635008 5.61823C0.0211655 5.76784 0 5.97678 0 6.24506V14.3551C0 15.129 0.201072 15.7094 0.603257 16.0963C1.01073 16.4884 1.6166 16.6844 2.42097 16.6844ZM4.88956 3.44368H9.16842C9.30601 3.44368 9.42506 3.39467 9.52561 3.29665C9.62616 3.19862 9.67642 3.07997 9.67642 2.94067C9.67642 2.80138 9.62616 2.68272 9.52561 2.58469C9.42506 2.48151 9.30601 2.42992 9.16842 2.42992H4.88956C4.75197 2.42992 4.63291 2.48151 4.53237 2.58469C4.43182 2.68272 4.38155 2.80138 4.38155 2.94067C4.38155 3.07997 4.43182 3.19862 4.53237 3.29665C4.63291 3.39467 4.75197 3.44368 4.88956 3.44368Z"
		fill="currentColor"
	/>
</svg>
