<svg
	color="rgb(var(--foreground, 0, 0, 0))"
	viewBox="0 0 11 18"
	fill="none"
	xmlns="http://www.w3.org/2000/svg"
>
	<path
		d="M5.49271 11.1083C6.59621 11.1083 7.55917 10.9018 8.38178 10.4887C9.20941 10.0756 9.85138 9.49874 10.3078 8.75819C10.7693 8.01259 11 7.14106 11 6.14358C11 5.62469 10.9323 5.06801 10.7969 4.47355C10.6614 3.87406 10.4734 3.28212 10.2326 2.69773C9.99183 2.10831 9.71347 1.56927 9.39747 1.0806C9.17677 0.732998 8.72287 0.465995 8.03569 0.279597C7.35353 0.093199 6.50843 0 5.50024 0C4.48702 0 3.63644 0.093199 2.94926 0.279597C2.26709 0.465995 1.8132 0.732998 1.58748 1.0806C1.27148 1.56927 0.993126 2.10831 0.752362 2.69773C0.516614 3.28212 0.331044 3.87406 0.195614 4.47355C0.0652003 5.06801 0 5.62469 0 6.14358C0 7.14106 0.228201 8.01259 0.684649 8.75819C1.1411 9.49874 1.78056 10.0756 2.60317 10.4887C3.4308 10.9018 4.39423 11.1083 5.49271 11.1083ZM5.49271 9.96725C4.59988 9.96725 3.82704 9.8136 3.17497 9.5063C2.5229 9.19395 2.01885 8.75315 1.66272 8.18388C1.31161 7.60957 1.13607 6.92947 1.13607 6.14358C1.13607 5.76574 1.17619 5.3602 1.25644 4.92695C1.34171 4.4937 1.46208 4.05542 1.61758 3.61209C1.77307 3.16877 1.95864 2.74307 2.17433 2.33501C2.50538 2.51134 2.95723 2.64987 3.52905 2.75063C4.10086 2.84635 4.75788 2.89421 5.50024 2.89421C6.23256 2.89421 6.88456 2.84635 7.45638 2.75063C8.03321 2.64987 8.48459 2.51134 8.81063 2.33501C9.02631 2.74307 9.21188 3.16877 9.36737 3.61209C9.52788 4.05542 9.65076 4.4937 9.73603 4.92695C9.8213 5.3602 9.86393 5.76574 9.86393 6.14358C9.86393 6.92947 9.68589 7.60957 9.32976 8.18388C8.97363 8.75315 8.46958 9.19395 7.81751 9.5063C7.16544 9.8136 6.39056 9.96725 5.49271 9.96725ZM5.50024 1.82872C4.99363 1.82872 4.52218 1.80856 4.08579 1.76826C3.65443 1.72796 3.30288 1.6801 3.03202 1.62469C2.76617 1.56423 2.63327 1.50378 2.63327 1.44332C2.63327 1.39295 2.76868 1.34005 3.03954 1.28463C3.3104 1.22418 3.66446 1.1738 4.10084 1.1335C4.53723 1.0932 5.00366 1.07305 5.50024 1.07305C5.9918 1.07305 6.45572 1.0932 6.8921 1.1335C7.32849 1.1738 7.68208 1.22418 7.95293 1.28463C8.22881 1.34005 8.36673 1.39295 8.36673 1.44332C8.36673 1.50378 8.23132 1.56423 7.96046 1.62469C7.6896 1.6801 7.33601 1.72796 6.89963 1.76826C6.46324 1.80856 5.99681 1.82872 5.50024 1.82872ZM5.49271 16.1713C5.6482 16.1713 5.78111 16.1133 5.89146 15.9975C6.00683 15.8866 6.06451 15.7557 6.06451 15.6045V10.5113H4.93596V15.6045C4.93596 15.7557 4.99113 15.8866 5.10148 15.9975C5.21183 16.1133 5.34223 16.1713 5.49271 16.1713ZM5.49271 18C6.85704 17.995 7.92532 17.8312 8.69777 17.5088C9.47524 17.1864 9.86393 16.7355 9.86393 16.1562C9.86393 15.5768 9.47524 15.1259 8.69777 14.8035C7.92532 14.4811 6.85704 14.3199 5.49271 14.3199C4.1334 14.3199 3.06715 14.4811 2.2947 14.8035C1.52225 15.1259 1.13607 15.5768 1.13607 16.1562C1.13607 16.7406 1.52225 17.1914 2.2947 17.5088C3.06715 17.8312 4.1334 17.995 5.49271 18ZM5.49271 16.8892C4.85569 16.8892 4.30149 16.8564 3.82999 16.7909C3.3585 16.7305 2.9919 16.6448 2.73107 16.534C2.47526 16.4232 2.34737 16.2972 2.34737 16.1562C2.34737 16.0202 2.47526 15.8967 2.73107 15.7859C2.9919 15.6751 3.3585 15.5869 3.82999 15.5214C4.30149 15.4559 4.85569 15.4232 5.49271 15.4232C6.13475 15.4232 6.69146 15.4559 7.16295 15.5214C7.63445 15.5869 8.00058 15.6751 8.2614 15.7859C8.52223 15.8967 8.65263 16.0202 8.65263 16.1562C8.65263 16.2972 8.52223 16.4232 8.2614 16.534C8.00058 16.6448 7.63445 16.7305 7.16295 16.7909C6.69146 16.8564 6.13475 16.8892 5.49271 16.8892Z"
		fill="currentColor"
	/>
</svg>
