<svg
	color="rgb(var(--foreground, 0, 0, 0))"
	viewBox="0 0 11 18"
	fill="none"
	xmlns="http://www.w3.org/2000/svg"
>
	<path
		d="M5.49224 18C6.85657 18 7.92485 17.8363 8.6973 17.5088C9.46975 17.1864 9.85594 16.7355 9.85594 16.1562C9.85594 15.6222 9.51991 15.1965 8.84777 14.8791C8.18066 14.5617 7.25281 14.3778 6.06404 14.3275V11.0856C7.05719 11.0151 7.92235 10.7657 8.65968 10.3375C9.40204 9.90932 9.97677 9.33753 10.3831 8.62217C10.7944 7.9068 11 7.0806 11 6.14358C11 5.62469 10.9323 5.06801 10.7969 4.47355C10.6614 3.87406 10.4734 3.28212 10.2326 2.69773C9.99183 2.10831 9.713 1.56927 9.397 1.0806C9.1763 0.732998 8.7224 0.465995 8.03522 0.279597C7.35306 0.093199 6.50796 0 5.49976 0C4.48655 0 3.63644 0.093199 2.94926 0.279597C2.26709 0.465995 1.8132 0.732998 1.58748 1.0806C1.27148 1.56927 0.993126 2.10831 0.752362 2.69773C0.516614 3.28212 0.331044 3.87406 0.195614 4.47355C0.0652003 5.06801 0 5.62469 0 6.14358C0 7.08564 0.203124 7.91436 0.609413 8.62972C1.02072 9.34509 1.59498 9.91688 2.33232 10.3451C3.06966 10.7683 3.93733 11.0151 4.93549 11.0856V14.3275C3.74171 14.3728 2.80884 14.5542 2.13671 14.8715C1.46959 15.194 1.13607 15.6222 1.13607 16.1562C1.13607 16.7406 1.51974 17.194 2.28718 17.5164C3.05963 17.8388 4.12791 18 5.49224 18ZM5.49976 1.8665C4.92795 1.8665 4.42641 1.84887 3.99504 1.8136C3.56367 1.7733 3.22764 1.7204 2.98688 1.65491C2.75113 1.58942 2.63327 1.51889 2.63327 1.44332C2.63327 1.3728 2.75364 1.3073 2.9944 1.24685C3.23516 1.18136 3.56869 1.13098 3.99504 1.09572C4.42641 1.05542 4.92795 1.03526 5.49976 1.03526C6.06656 1.03526 6.5656 1.05542 6.99696 1.09572C7.42833 1.13098 7.76437 1.18136 8.00513 1.24685C8.24589 1.3073 8.36626 1.3728 8.36626 1.44332C8.36626 1.51889 8.24589 1.58942 8.00513 1.65491C7.76437 1.7204 7.42833 1.7733 6.99696 1.8136C6.5656 1.84887 6.06656 1.8665 5.49976 1.8665Z"
		fill="currentColor"
	/>
</svg>
