<svg
	color="rgb(var(--foreground, 0, 0, 0))"
	viewBox="0 0 10 15"
	fill="none"
	xmlns="http://www.w3.org/2000/svg"
>
	<path
		d="M2.18921 14.5H8.68579C9.07488 14.5 9.37947 14.3934 9.59962 14.1803C9.82488 13.9671 9.9375 13.6575 9.9375 13.2515V13.0992C9.9375 12.6425 9.83256 12.1832 9.62265 11.7213C9.41275 11.2595 9.14656 10.8154 8.82402 10.3891C8.50148 9.95768 8.16618 9.56181 7.81805 9.20147C7.47503 8.83605 7.17044 8.52139 6.90422 8.25748C6.64312 7.99864 6.5177 7.7398 6.52794 7.48097C6.53818 7.21706 6.6636 6.96583 6.90422 6.7273C7.17044 6.46339 7.47503 6.15126 7.81805 5.79092C8.16618 5.4255 8.50148 5.02964 8.82402 4.60332C9.14656 4.177 9.41275 3.73292 9.62265 3.27107C9.83256 2.80923 9.9375 2.34738 9.9375 1.88554V1.75612C9.9375 1.34502 9.82488 1.0329 9.59962 0.819739C9.37947 0.60658 9.07488 0.5 8.68579 0.5H2.18921C1.80523 0.5 1.50065 0.60658 1.27538 0.819739C1.05012 1.0329 0.9375 1.34502 0.9375 1.75612V1.88554C0.9375 2.34738 1.04244 2.80923 1.25235 3.27107C1.46225 3.73292 1.72844 4.177 2.05098 4.60332C2.37352 5.02964 2.70626 5.4255 3.04927 5.79092C3.39741 6.15126 3.70456 6.46339 3.97078 6.7273C4.21652 6.96583 4.3445 7.21706 4.35474 7.48097C4.36497 7.7398 4.237 7.99864 3.97078 8.25748C3.70456 8.52139 3.39741 8.83605 3.04927 9.20147C2.70626 9.56181 2.37352 9.95768 2.05098 10.3891C1.72844 10.8154 1.46225 11.2595 1.25235 11.7213C1.04244 12.1832 0.9375 12.6425 0.9375 13.0992V13.2515C0.9375 13.6575 1.05012 13.9671 1.27538 14.1803C1.50065 14.3934 1.80523 14.5 2.18921 14.5ZM2.7805 13.4647C2.61668 13.4647 2.51685 13.3911 2.48102 13.2439C2.44518 13.1018 2.48357 12.98 2.5962 12.8785L5.04586 10.5642C5.09194 10.5236 5.12521 10.488 5.14569 10.4576C5.16617 10.4271 5.17641 10.3815 5.17641 10.3206V6.94807C5.17641 6.77551 5.15337 6.63594 5.1073 6.52936C5.06634 6.42278 4.97931 6.31367 4.8462 6.20201C4.59022 5.98378 4.29843 5.73255 3.97078 5.44834C3.64824 5.16413 3.36925 4.89768 3.13375 4.64899C3.03647 4.54749 3.00576 4.44852 3.0416 4.35209C3.08255 4.25566 3.1619 4.20745 3.27965 4.20745H7.59535C7.71822 4.20745 7.79757 4.25566 7.8334 4.35209C7.87436 4.44852 7.84365 4.54749 7.74125 4.64899C7.50575 4.89768 7.22676 5.16413 6.90422 5.44834C6.58169 5.73255 6.2899 5.98378 6.0288 6.20201C5.90081 6.31367 5.81378 6.42278 5.7677 6.52936C5.72675 6.63594 5.70627 6.77551 5.70627 6.94807V10.3206C5.70627 10.3815 5.71395 10.4271 5.72931 10.4576C5.74979 10.488 5.78306 10.5236 5.82914 10.5642L8.2788 12.8785C8.39143 12.98 8.42982 13.1018 8.39398 13.2439C8.36327 13.3911 8.26344 13.4647 8.0945 13.4647H2.7805Z"
		fill="currentColor"
	/>
</svg>
