<svg
	color="rgb(var(--foreground, 0, 0, 0))"
	viewBox="0 0 18 17"
	fill="none"
	xmlns="http://www.w3.org/2000/svg"
>
	<path
		d="M9.43373 0C9.28295 0 9.15479 0.0527716 9.04925 0.158315C8.94873 0.263858 8.89848 0.392018 8.89848 0.542794V3.21907C8.89848 3.36984 8.94873 3.498 9.04925 3.60355C9.15479 3.70909 9.28295 3.76186 9.43373 3.76186C9.58953 3.76186 9.71769 3.70909 9.81821 3.60355C9.92375 3.498 9.97652 3.36984 9.97652 3.21907V0.542794C9.97652 0.392018 9.92375 0.263858 9.81821 0.158315C9.71769 0.0527716 9.58953 0 9.43373 0ZM13.6932 1.13836C13.5575 1.06297 13.4192 1.04538 13.2785 1.08559C13.1378 1.12077 13.0272 1.2037 12.9468 1.33437L11.6124 3.66386C11.5371 3.79453 11.517 3.93023 11.5521 4.07095C11.5873 4.21168 11.6728 4.32225 11.8085 4.40266C11.9442 4.47302 12.0799 4.49061 12.2155 4.45543C12.3563 4.41523 12.4668 4.32979 12.5473 4.19911L13.8892 1.87716C13.9595 1.74649 13.9771 1.61079 13.9419 1.47007C13.9068 1.32432 13.8238 1.21375 13.6932 1.13836ZM16.8067 4.25188C16.7313 4.11619 16.6207 4.03075 16.475 3.99557C16.3292 3.96038 16.191 3.97797 16.0603 4.04834L13.7384 5.39024C13.6077 5.46563 13.5223 5.5762 13.4821 5.72195C13.4419 5.86268 13.4645 6.00089 13.5499 6.13659C13.6253 6.26726 13.7308 6.35018 13.8665 6.38537C14.0073 6.42055 14.143 6.40296 14.2736 6.33259L16.6031 4.99069C16.7338 4.91027 16.8192 4.7997 16.8595 4.65898C16.8997 4.51826 16.8821 4.38256 16.8067 4.25188ZM17.9375 8.49623C17.9375 8.34545 17.8847 8.21981 17.7792 8.11929C17.6787 8.01375 17.5505 7.96098 17.3947 7.96098H14.7184C14.5677 7.96098 14.4395 8.01375 14.334 8.11929C14.2284 8.21981 14.1756 8.34545 14.1756 8.49623C14.1756 8.65203 14.2284 8.78271 14.334 8.88825C14.4395 8.98877 14.5677 9.03902 14.7184 9.03902H17.3947C17.5505 9.03902 17.6787 8.98877 17.7792 8.88825C17.8847 8.78271 17.9375 8.65203 17.9375 8.49623ZM16.7991 12.7481C16.8796 12.6174 16.8997 12.4817 16.8595 12.341C16.8192 12.2003 16.7338 12.0897 16.6031 12.0093L14.2736 10.6674C14.143 10.597 14.0073 10.5795 13.8665 10.6146C13.7258 10.6498 13.6178 10.7327 13.5424 10.8634C13.467 10.9991 13.4469 11.1373 13.4821 11.278C13.5223 11.4188 13.6077 11.5293 13.7384 11.6098L16.0603 12.9517C16.191 13.022 16.3267 13.0396 16.4674 13.0044C16.6132 12.9693 16.7238 12.8838 16.7991 12.7481ZM13.6856 15.8616C13.8213 15.7863 13.9068 15.6757 13.9419 15.5299C13.9771 15.3892 13.9595 15.2535 13.8892 15.1228L12.5473 12.8009C12.4719 12.6702 12.3638 12.5848 12.2231 12.5446C12.0824 12.5044 11.9442 12.522 11.8085 12.5973C11.6728 12.6778 11.5873 12.7883 11.5521 12.929C11.517 13.0698 11.5371 13.2055 11.6124 13.3361L12.9468 15.6581C13.0272 15.7888 13.1378 15.8742 13.2785 15.9144C13.4192 15.9546 13.5549 15.937 13.6856 15.8616ZM9.43373 17C9.58953 17 9.71769 16.9472 9.81821 16.8417C9.92375 16.7361 9.97652 16.608 9.97652 16.4572V13.7809C9.97652 13.6302 9.92375 13.502 9.81821 13.3965C9.71769 13.2909 9.58953 13.2381 9.43373 13.2381C9.28295 13.2381 9.15479 13.2909 9.04925 13.3965C8.94873 13.502 8.89848 13.6302 8.89848 13.7809V16.4572C8.89848 16.608 8.94873 16.7361 9.04925 16.8417C9.15479 16.9472 9.28295 17 9.43373 17ZM5.18938 15.8616C5.32508 15.937 5.46078 15.9546 5.59648 15.9144C5.7372 15.8742 5.84777 15.7888 5.92819 15.6581L7.27009 13.3361C7.34046 13.2055 7.35805 13.0698 7.32287 12.929C7.28768 12.7883 7.20476 12.6803 7.07409 12.6049C6.93839 12.5295 6.80018 12.5119 6.65945 12.5521C6.51873 12.5873 6.40816 12.6702 6.32774 12.8009L4.99338 15.1228C4.91799 15.2535 4.89788 15.3892 4.93307 15.5299C4.96825 15.6757 5.05369 15.7863 5.18938 15.8616ZM2.0834 12.7481C2.15376 12.8838 2.2593 12.9693 2.40003 13.0044C2.54578 13.0396 2.68399 13.022 2.81466 12.9517L5.13661 11.6098C5.26729 11.5293 5.35273 11.4188 5.39293 11.278C5.43314 11.1373 5.41555 11.0016 5.34016 10.871C5.25975 10.7353 5.14918 10.6498 5.00845 10.6146C4.86773 10.5795 4.73203 10.597 4.60136 10.6674L2.27941 12.0093C2.14873 12.0897 2.06329 12.2003 2.02309 12.341C1.98288 12.4817 2.00298 12.6174 2.0834 12.7481ZM0.9375 8.49623C0.9375 8.65203 0.990272 8.78271 1.09581 8.88825C1.20136 8.98877 1.32952 9.03902 1.48029 9.03902H4.15657C4.31237 9.03902 4.44053 8.98877 4.54105 8.88825C4.64659 8.78271 4.69936 8.65203 4.69936 8.49623C4.69936 8.34545 4.64659 8.21981 4.54105 8.11929C4.44053 8.01375 4.31237 7.96098 4.15657 7.96098H1.48029C1.32952 7.96098 1.20136 8.01375 1.09581 8.11929C0.990272 8.21981 0.9375 8.34545 0.9375 8.49623ZM2.0834 4.24435C2.00298 4.38004 1.98288 4.51826 2.02309 4.65898C2.06329 4.7997 2.14873 4.91027 2.27941 4.99069L4.60136 6.33259C4.73203 6.40296 4.86773 6.42055 5.00845 6.38537C5.14918 6.35018 5.25975 6.26726 5.34016 6.13659C5.41555 6.00089 5.43314 5.86268 5.39293 5.72195C5.35273 5.58123 5.26729 5.47066 5.13661 5.39024L2.81466 4.04834C2.68399 3.97797 2.54578 3.96038 2.40003 3.99557C2.2593 4.03075 2.15376 4.11367 2.0834 4.24435ZM5.18938 1.13082C5.05369 1.20621 4.96825 1.31678 4.93307 1.46253C4.89788 1.60828 4.91799 1.74649 4.99338 1.87716L6.32774 4.19911C6.40816 4.32979 6.51873 4.41523 6.65945 4.45543C6.80018 4.49564 6.93587 4.47554 7.06655 4.39512C7.20224 4.31973 7.28768 4.21168 7.32287 4.07095C7.35805 3.93023 7.34046 3.79453 7.27009 3.66386L5.92819 1.33437C5.84777 1.2037 5.7372 1.11826 5.59648 1.07805C5.46078 1.03784 5.32508 1.05543 5.18938 1.13082Z"
		fill="currentColor"
	/>
</svg>
