<svg
	color="rgb(var(--foreground, 0, 0, 0))"
	viewBox="0 0 18 17"
	fill="none"
	xmlns="http://www.w3.org/2000/svg"
>
	<path
		d="M10.1227 0.681567C10.1227 0.493548 10.0548 0.334255 9.91908 0.203687C9.78335 0.0678955 9.62152 0 9.43359 0C9.25087 0 9.09165 0.0678955 8.95592 0.203687C8.8202 0.334255 8.75233 0.493548 8.75233 0.681567V3.09447C8.75233 3.28249 8.8202 3.44439 8.95592 3.58018C9.09165 3.71598 9.25087 3.78387 9.43359 3.78387C9.62152 3.78387 9.78335 3.71598 9.91908 3.58018C10.0548 3.44439 10.1227 3.28249 10.1227 3.09447V0.681567ZM12.7537 4.22258C12.6232 4.35315 12.558 4.51505 12.558 4.70829C12.558 4.89631 12.6232 5.05561 12.7537 5.18617C12.8842 5.31674 13.0434 5.38203 13.2314 5.38203C13.4245 5.38203 13.589 5.31674 13.7247 5.18617L15.4239 3.47834C15.5544 3.34777 15.6197 3.18587 15.6197 2.99263C15.6197 2.79939 15.5544 2.63748 15.4239 2.50691C15.2934 2.37634 15.1342 2.31106 14.9463 2.31106C14.7583 2.31106 14.5991 2.37634 14.4686 2.50691L12.7537 4.22258ZM17.2484 9.18157C17.4363 9.18157 17.5982 9.11628 17.7339 8.98571C17.8696 8.84992 17.9375 8.68802 17.9375 8.5C17.9375 8.3172 17.8696 8.15791 17.7339 8.02212C17.5982 7.88633 17.4363 7.81843 17.2484 7.81843H14.8366C14.6539 7.81843 14.4947 7.88633 14.359 8.02212C14.2232 8.15791 14.1554 8.3172 14.1554 8.5C14.1554 8.68802 14.2232 8.84992 14.359 8.98571C14.4947 9.11628 14.6539 9.18157 14.8366 9.18157H17.2484ZM13.7247 11.8138C13.589 11.6833 13.4245 11.618 13.2314 11.618C13.0434 11.618 12.8842 11.6833 12.7537 11.8138C12.6232 11.9444 12.558 12.1063 12.558 12.2995C12.558 12.4876 12.6232 12.6469 12.7537 12.7774L14.4686 14.4931C14.5991 14.6237 14.7583 14.6863 14.9463 14.6811C15.1342 14.6811 15.2934 14.6184 15.4239 14.4931C15.5544 14.3625 15.6197 14.2006 15.6197 14.0074C15.6197 13.8141 15.5544 13.6522 15.4239 13.5217L13.7247 11.8138ZM10.1227 13.9055C10.1227 13.7175 10.0548 13.5556 9.91908 13.4198C9.78335 13.284 9.62152 13.2161 9.43359 13.2161C9.25087 13.2161 9.09165 13.284 8.95592 13.4198C8.8202 13.5556 8.75233 13.7175 8.75233 13.9055V16.3184C8.75233 16.5065 8.8202 16.6657 8.95592 16.7963C9.09165 16.9321 9.25087 17 9.43359 17C9.62152 17 9.78335 16.9321 9.91908 16.7963C10.0548 16.6657 10.1227 16.5065 10.1227 16.3184V13.9055ZM3.44326 13.5217C3.31275 13.6522 3.2475 13.8141 3.2475 14.0074C3.2475 14.1954 3.31014 14.3547 3.43543 14.4853C3.56594 14.6158 3.72777 14.6811 3.92092 14.6811C4.11407 14.6863 4.2759 14.6237 4.40641 14.4931L6.11346 12.7853C6.24396 12.6599 6.30922 12.5032 6.30922 12.3152C6.30922 12.122 6.24396 11.9601 6.11346 11.8295C5.98817 11.6989 5.82895 11.6336 5.6358 11.6336C5.44264 11.6336 5.28081 11.6989 5.15031 11.8295L3.44326 13.5217ZM1.61875 7.81843C1.43604 7.81843 1.27682 7.88633 1.14109 8.02212C1.00536 8.15791 0.9375 8.3172 0.9375 8.5C0.9375 8.68802 1.00536 8.84992 1.14109 8.98571C1.27682 9.11628 1.43604 9.18157 1.61875 9.18157H4.04621C4.22892 9.18157 4.38814 9.11628 4.52387 8.98571C4.65959 8.84992 4.72746 8.68802 4.72746 8.5C4.72746 8.3172 4.65959 8.15791 4.52387 8.02212C4.38814 7.88633 4.22892 7.81843 4.04621 7.81843H1.61875ZM5.072 5.10783C5.20251 5.2384 5.36173 5.30369 5.54966 5.30369C5.74281 5.30369 5.90464 5.2384 6.03515 5.10783C6.16566 4.97727 6.23091 4.81797 6.23091 4.62995C6.23091 4.43671 6.16566 4.27481 6.03515 4.14424L4.33593 2.43641C4.20543 2.30584 4.04621 2.24055 3.85827 2.24055C3.67034 2.23533 3.50851 2.298 3.37278 2.42857C3.24228 2.55914 3.17702 2.72104 3.17702 2.91429C3.17702 3.1023 3.24228 3.2616 3.37278 3.39217L5.072 5.10783Z"
		fill="currentColor"
	/>
</svg>
