<svg
	color="rgb(var(--foreground, 0, 0, 0))"
	viewBox="0 0 16 17"
	fill="none"
	xmlns="http://www.w3.org/2000/svg"
>
	<path
		d="M7.96875 16.6953C9.05729 16.6953 10.0807 16.487 11.0391 16.0703C12.0026 15.6536 12.8516 15.0781 13.5859 14.3438C14.3203 13.6094 14.8958 12.763 15.3125 11.8047C15.7292 10.8411 15.9375 9.8151 15.9375 8.72656C15.9375 7.92969 15.8255 7.17188 15.6016 6.45312C15.3776 5.73438 15.0703 5.07552 14.6797 4.47656C14.2891 3.8724 13.8438 3.34115 13.3438 2.88281C13.2083 2.75781 13.0677 2.6901 12.9219 2.67969C12.7812 2.66406 12.6536 2.6901 12.5391 2.75781C12.4245 2.82552 12.3359 2.91927 12.2734 3.03906C12.2109 3.15885 12.1901 3.28906 12.2109 3.42969C12.237 3.57031 12.3177 3.70573 12.4531 3.83594C13.1198 4.4401 13.6432 5.16406 14.0234 6.00781C14.4089 6.84635 14.6042 7.7526 14.6094 8.72656C14.6094 9.64844 14.4375 10.5104 14.0938 11.3125C13.7552 12.1146 13.2812 12.8203 12.6719 13.4297C12.0677 14.0339 11.362 14.5078 10.5547 14.8516C9.7526 15.1953 8.89062 15.3672 7.96875 15.3672C7.04688 15.3672 6.1849 15.1953 5.38281 14.8516C4.58073 14.5078 3.875 14.0339 3.26562 13.4297C2.66146 12.8203 2.1875 12.1146 1.84375 11.3125C1.50521 10.5104 1.33594 9.64844 1.33594 8.72656C1.34115 7.7474 1.53385 6.83854 1.91406 6C2.29948 5.15625 2.82292 4.43229 3.48438 3.82813C3.61979 3.69792 3.69792 3.5625 3.71875 3.42188C3.74479 3.28125 3.72656 3.15104 3.66406 3.03125C3.60677 2.91146 3.51823 2.81771 3.39844 2.75C3.28385 2.68229 3.15365 2.65625 3.00781 2.67188C2.86719 2.68229 2.72917 2.75 2.59375 2.875C2.09375 3.33333 1.64844 3.86458 1.25781 4.46875C0.867188 5.07292 0.559896 5.73438 0.335938 6.45312C0.111979 7.17188 0 7.92969 0 8.72656C0 9.8151 0.208333 10.8411 0.625 11.8047C1.04167 12.763 1.61719 13.6094 2.35156 14.3438C3.08594 15.0781 3.93229 15.6536 4.89062 16.0703C5.85417 16.487 6.88021 16.6953 7.96875 16.6953ZM7.96875 8.64844C8.15625 8.64844 8.30729 8.58854 8.42188 8.46875C8.54167 8.34375 8.60156 8.18229 8.60156 7.98438V0.96875C8.60156 0.770833 8.54167 0.611979 8.42188 0.492188C8.30729 0.367188 8.15625 0.304688 7.96875 0.304688C7.78125 0.304688 7.63021 0.367188 7.51562 0.492188C7.40104 0.611979 7.34375 0.770833 7.34375 0.96875V7.98438C7.34375 8.18229 7.40104 8.34375 7.51562 8.46875C7.63021 8.58854 7.78125 8.64844 7.96875 8.64844Z"
		fill="currentColor"
	/>
</svg>
