<svg viewBox="0 0 38 24" fill="none">
	<path
		opacity="0.07"
		d="M34.597 0.00012207H3.40304C3.2731 0.00012207 3.14292 0.00012207 3.01321 0.00080154C2.9037 0.0017075 2.79442 0.00283995 2.68492 0.00578432C2.44638 0.012126 2.20579 0.0261684 1.97024 0.0678425C1.73401 0.10777 1.50514 0.182197 1.29115 0.28867C0.860956 0.504533 0.511289 0.849496 0.292483 1.2739C0.184364 1.48509 0.108915 1.71107 0.0686439 1.94431C0.0259423 2.17692 0.0119381 2.41405 0.00550987 2.64915C0.00271191 2.75709 0.00102825 2.86505 0.000459156 2.97303C0 3.10077 0 3.22896 0 3.35738V20.6426C0 20.7711 0 20.899 0.000459156 21.0274C0.00114789 21.1352 0.00252536 21.2433 0.00550987 21.3513C0.0119381 21.586 0.0261719 21.8233 0.0686439 22.0557C0.108832 22.2889 0.184205 22.5149 0.292253 22.7261C0.400886 22.937 0.542684 23.1297 0.712381 23.2969C0.881788 23.4644 1.07706 23.6042 1.29092 23.7113C1.50833 23.8207 1.73102 23.8903 1.97047 23.9326C2.20579 23.9741 2.44638 23.9881 2.68492 23.9945C2.79442 23.9969 2.9037 23.9983 3.01321 23.999C3.14292 23.9999 3.2731 23.9999 3.40304 23.9999H34.597C34.7267 23.9999 34.8568 23.9999 34.9866 23.999C35.0958 23.9985 35.2051 23.9969 35.3151 23.9945C35.5532 23.9881 35.7938 23.9741 36.0298 23.9326C36.266 23.8927 36.4949 23.8181 36.7089 23.7113C37.1388 23.4952 37.4884 23.1503 37.7075 22.7261C37.8184 22.5116 37.8887 22.2919 37.9311 22.0557C37.9738 21.8233 37.9876 21.586 37.994 21.3513C37.997 21.2433 37.9986 21.1352 37.9991 21.0274C38 20.899 38 20.7711 38 20.6426V3.35761C38 3.22919 38 3.10099 37.9991 2.9728C37.9986 2.8649 37.997 2.75701 37.994 2.64915C37.9876 2.41405 37.9738 2.17692 37.9311 1.94431C37.8911 1.71103 37.8158 1.48502 37.7075 1.2739C37.4886 0.849571 37.139 0.504635 36.7089 0.28867C36.4948 0.182306 36.266 0.107958 36.0298 0.068069C35.7938 0.0261684 35.5532 0.0123525 35.3151 0.00601081C35.2056 0.0032674 35.0961 0.00160639 34.9866 0.00102803C34.8568 0.00012207 34.7267 0.00012207 34.597 0.00012207Z"
		fill="black"
	/>
	<path
		d="M34.597 0.800079L34.9808 0.800759C35.0846 0.801438 35.1886 0.802571 35.293 0.805289C35.4751 0.810271 35.6877 0.82001 35.886 0.855116C36.0582 0.885693 36.2029 0.932123 36.3415 1.00188C36.619 1.14107 36.8445 1.36372 36.9853 1.63764C37.0555 1.77353 37.1023 1.91532 37.1333 2.08677C37.1687 2.28019 37.1786 2.4906 37.1834 2.67111C37.1864 2.77303 37.1877 2.87495 37.188 2.97914C37.1891 3.10529 37.1891 3.23122 37.1891 3.3576V20.6429C37.1891 20.7692 37.1891 20.8952 37.1882 21.0238C37.1877 21.1257 37.1864 21.2277 37.1836 21.3296C37.1786 21.5099 37.1687 21.7203 37.1329 21.916C37.1068 22.0716 37.0569 22.2225 36.9848 22.3633C36.8437 22.6373 36.6179 22.8599 36.3401 22.999C36.2024 23.0683 36.0582 23.1148 35.8876 23.1451C35.6854 23.1807 35.4636 23.1904 35.2967 23.1949C35.1918 23.1972 35.0873 23.1988 34.9801 23.1993C34.8527 23.2002 34.7246 23.2002 34.597 23.2002H3.39798C3.27171 23.2002 3.14545 23.2002 3.01688 23.1993C2.91356 23.1988 2.81025 23.1974 2.70695 23.1952C2.53615 23.1906 2.31437 23.1807 2.11372 23.1453C1.95508 23.1193 1.80136 23.0696 1.65778 22.9981C1.52006 22.9291 1.39436 22.8389 1.28541 22.7309C1.17611 22.6232 1.08482 22.4992 1.01496 22.3633C0.942817 22.2217 0.892815 22.0701 0.866655 21.9137C0.830841 21.7182 0.820739 21.5087 0.816148 21.3298C0.813554 21.2275 0.812023 21.1252 0.811556 21.0229L0.810867 20.7224V3.27833L0.811326 2.97823C0.8118 2.87577 0.813331 2.77332 0.815918 2.67089C0.820969 2.49151 0.830841 2.282 0.866884 2.08496C0.893096 1.92887 0.943098 1.7776 1.01519 1.63628C1.08498 1.50084 1.1759 1.37718 1.28609 1.26869C1.39531 1.16077 1.52115 1.07057 1.65893 1.00143C1.80215 0.930442 1.95539 0.881119 2.11349 0.855116C2.31208 0.82001 2.5249 0.810271 2.70718 0.805289C2.81095 0.802571 2.91495 0.801438 3.01803 0.800759L3.40303 0.800079H34.597Z"
		fill="white"
	/>
	<path
		d="M9.98848 8.10165C10.3108 7.70416 10.5294 7.17033 10.4717 6.62494C10.0002 6.64804 9.42486 6.93183 9.09152 7.32978C8.79238 7.67042 8.52767 8.22645 8.59655 8.74896C9.12595 8.79426 9.6549 8.48804 9.98848 8.10165Z"
		fill="black"
	/>
	<path
		d="M10.4658 8.85109C9.69669 8.8058 9.04331 9.28143 8.67622 9.28143C8.30889 9.28143 7.74665 8.87374 7.1385 8.88484C6.34715 8.89617 5.61296 9.33782 5.21119 10.0399C4.38517 11.4442 4.99309 13.5279 5.79662 14.6717C6.18667 15.2379 6.65685 15.8607 7.27625 15.8383C7.86167 15.8157 8.09102 15.4646 8.80225 15.4646C9.51326 15.4646 9.71988 15.8383 10.3395 15.827C10.9819 15.8157 11.3836 15.2608 11.7737 14.6945C12.2214 14.049 12.4043 13.4262 12.4158 13.3922C12.4043 13.3809 11.177 12.9164 11.1655 11.5234C11.1541 10.357 12.1293 9.80213 12.1752 9.76793C11.6245 8.96434 10.764 8.87374 10.4655 8.85109"
		fill="black"
	/>
	<path
		d="M18.1305 7.27271C19.8013 7.27271 20.9651 8.409 20.9651 10.0633C20.9651 11.7235 19.7775 12.8656 18.0887 12.8656H16.2387V15.7683H14.9021V7.27271H18.1305ZM16.2387 11.7588H17.7723C18.9363 11.7588 19.5984 11.1407 19.5984 10.0692C19.5984 8.99788 18.936 8.38545 17.7783 8.38545H16.2387V11.7588Z"
		fill="black"
	/>
	<path
		d="M21.2966 14.0078C21.2966 12.9187 22.138 12.2947 23.6895 12.2005L25.3544 12.1003V11.6292C25.3544 10.9407 24.895 10.5638 24.0775 10.5638C23.403 10.5638 22.9135 10.9052 22.8125 11.429H21.6067C21.6428 10.3283 22.6929 9.52765 24.1133 9.52765C25.6409 9.52765 26.6375 10.3165 26.6375 11.5411V15.7681H25.4024V14.7496H25.3725C25.0203 15.4148 24.2444 15.8327 23.403 15.8327C22.1619 15.8327 21.2966 15.1029 21.2966 14.0078V14.0078ZM25.3544 13.4604V12.9834L23.8685 13.0777C23.0329 13.1306 22.5976 13.4366 22.5976 13.9723C22.5976 14.4905 23.051 14.8262 23.7611 14.8262C24.6679 14.8262 25.3544 14.2549 25.3544 13.4604V13.4604Z"
		fill="black"
	/>
	<path
		d="M27.7732 18.0405V17.0222C27.8568 17.0337 28.0595 17.0455 28.1669 17.0455C28.7576 17.0455 29.0919 16.7986 29.2948 16.1624L29.4142 15.7858L27.1524 9.60419H28.5487L30.1243 14.62H30.1542L31.7295 9.60419H33.0902L30.7449 16.0977C30.2076 17.5873 29.5931 18.076 28.2923 18.076C28.1908 18.076 27.8625 18.0643 27.7732 18.0405V18.0405Z"
		fill="black"
	/>
</svg>
