<svg viewBox="0 0 38 24" fill="none">
	<path
		d="M35 0H3C1.3 0 0 1.3 0 3V21C0 22.7 1.4 24 3 24H35C36.7 24 38 22.7 38 21V3C38 1.3 36.6 0 35 0Z"
		fill="black"
		fill-opacity="0.07"
	/>
	<rect x="1" y="1" width="36" height="22" rx="2" fill="white" />
	<path
		d="M13.2978 9.94245H24.6962C25.0286 9.94245 25.222 9.71223 25.222 9.47626C25.222 9.3036 25.1253 9.15396 24.9017 9.03309L19.7404 6.20144C19.4986 6.06906 19.2448 6 18.997 6C18.7492 6 18.4954 6.06906 18.2536 6.20144L13.0923 9.03309C12.8687 9.15396 12.772 9.3036 12.772 9.47626C12.772 9.71223 12.9593 9.94245 13.2978 9.94245ZM15.1109 9.01583L18.7613 7.06475C18.8338 7.02446 18.9184 7.00144 18.997 7.00144C19.0755 7.00144 19.1602 7.02446 19.2327 7.06475L22.8831 9.01583H15.1109ZM13.5576 16.1986C13.5576 16.4345 13.6967 16.5669 13.9444 16.5669H15.4916C15.7394 16.5669 15.8845 16.4345 15.8845 16.1986V16.0604C15.8845 15.836 15.7394 15.6978 15.4916 15.6978H15.1774V11.3122H15.4916C15.7394 11.3122 15.8845 11.1799 15.8845 10.9439V10.8058C15.8845 10.5813 15.7394 10.4432 15.4916 10.4432H13.9444C13.6967 10.4432 13.5576 10.5813 13.5576 10.8058V10.9439C13.5576 11.1799 13.6967 11.3122 13.9444 11.3122H14.2648V15.6978H13.9444C13.6967 15.6978 13.5576 15.836 13.5576 16.0604V16.1986ZM16.4284 16.1986C16.4284 16.4345 16.5735 16.5669 16.8152 16.5669H18.3684C18.6102 16.5669 18.7552 16.4345 18.7552 16.1986V16.0604C18.7552 15.836 18.6102 15.6978 18.3684 15.6978H18.0542V11.3122H18.3684C18.6102 11.3122 18.7552 11.1799 18.7552 10.9439V10.8058C18.7552 10.5813 18.6102 10.4432 18.3684 10.4432H16.8152C16.5735 10.4432 16.4284 10.5813 16.4284 10.8058V10.9439C16.4284 11.1799 16.5735 11.3122 16.8152 11.3122H17.1416V15.6978H16.8152C16.5735 15.6978 16.4284 15.836 16.4284 16.0604V16.1986ZM19.3052 16.1986C19.3052 16.4345 19.4503 16.5669 19.692 16.5669H21.2452C21.487 16.5669 21.632 16.4345 21.632 16.1986V16.0604C21.632 15.836 21.487 15.6978 21.2452 15.6978H20.931V11.3122H21.2452C21.487 11.3122 21.632 11.1799 21.632 10.9439V10.8058C21.632 10.5813 21.487 10.4432 21.2452 10.4432H19.692C19.4503 10.4432 19.3052 10.5813 19.3052 10.8058V10.9439C19.3052 11.1799 19.4503 11.3122 19.692 11.3122H20.0184V15.6978H19.692C19.4503 15.6978 19.3052 15.836 19.3052 16.0604V16.1986ZM22.182 16.1986C22.182 16.4345 22.321 16.5669 22.5688 16.5669H24.116C24.3638 16.5669 24.5028 16.4345 24.5028 16.1986V16.0604C24.5028 15.836 24.3638 15.6978 24.116 15.6978H23.8017V11.3122H24.116C24.3638 11.3122 24.5028 11.1799 24.5028 10.9439V10.8058C24.5028 10.5813 24.3638 10.4432 24.116 10.4432H22.5688C22.321 10.4432 22.182 10.5813 22.182 10.8058V10.9439C22.182 11.1799 22.321 11.3122 22.5688 11.3122H22.8891V15.6978H22.5688C22.321 15.6978 22.182 15.836 22.182 16.0604V16.1986ZM12.5 17.5338C12.5 17.7871 12.7176 18 12.9835 18H25.0105C25.2764 18 25.5 17.7871 25.5 17.5338C25.5 17.2806 25.2764 17.0734 25.0105 17.0734H12.9835C12.7176 17.0734 12.5 17.2806 12.5 17.5338Z"
		fill="#666666"
	/>
</svg>
