<svg viewBox="0 0 38 24" fill="none">
	<path
		opacity="0.07"
		d="M35 0H3C1.3 0 0 1.3 0 3V21C0 22.7 1.4 24 3 24H35C36.7 24 38 22.7 38 21V3C38 1.3 36.6 0 35 0Z"
		fill="black"
	/>
	<path
		d="M35 1C36.1 1 37 1.9 37 3V21C37 22.1 36.1 23 35 23H3C1.9 23 1 22.1 1 21V3C1 1.9 1.9 1 3 1H35Z"
		fill="white"
	/>
	<path
		d="M21.6 4.4C17.4 3 12.9 5.2 11.4 9.4C9.9 13.6 12.2 18.1 16.4 19.6C20.6 21.1 25.1 18.8 26.6 14.6C28 10.4 25.8 5.9 21.6 4.4Z"
		fill="#EDA024"
	/>
	<path
		fill-rule="evenodd"
		clip-rule="evenodd"
		d="M20.7144 8.19719C21.8525 8.60597 22.6722 9.21162 22.4843 10.3738C22.3421 11.2198 21.8892 11.6333 21.2773 11.7792C22.0916 12.2254 22.4836 12.9027 22.0643 14.0908C21.5428 15.5809 20.3757 15.7161 18.8298 15.4274L18.4318 17L17.5336 16.7821L17.9316 15.2095C17.8338 15.184 17.7308 15.1605 17.6252 15.1364C17.484 15.1043 17.3381 15.071 17.1938 15.0304L16.7958 16.6031L15.8992 16.3856L16.2972 14.8129L14.5112 14.3367L14.9551 13.2247C14.9551 13.2247 15.6292 13.4063 15.6188 13.3949C15.8688 13.4544 15.9911 13.2834 16.0412 13.1637L16.6785 10.6426L17.1423 8.85067C17.1624 8.65699 17.1004 8.4036 16.7351 8.30719C16.7599 8.29293 16.0774 8.14764 16.0774 8.14764L16.3434 7.09381L18.1841 7.54042L18.574 6L19.5013 6.225L19.1115 7.76542C19.2918 7.80381 19.468 7.84842 19.6461 7.89352C19.7045 7.90832 19.7633 7.92319 19.8224 7.9379L20.2122 6.39746L21.1145 6.61638L20.7144 8.19719ZM18.2537 10.6742C18.2677 10.6783 18.2827 10.6827 18.2986 10.6874C18.8379 10.846 20.4369 11.3164 20.7062 10.269C20.957 9.27343 19.5717 8.96933 18.9281 8.82803C18.852 8.81134 18.7864 8.79692 18.735 8.7839L18.2537 10.6742ZM17.5441 13.7797C17.5157 13.7714 17.4896 13.7639 17.4659 13.757L17.9472 11.8668C18.0041 11.8812 18.076 11.8978 18.1592 11.9169C18.918 12.0915 20.6127 12.4814 20.3493 13.4825C20.0937 14.5221 18.2084 13.9732 17.5441 13.7797Z"
		fill="white"
	/>
</svg>
