<svg viewBox="0 0 38 24" fill="none">
	<path
		d="M35 0H3C1.3 0 0 1.3 0 3V21C0 22.7 1.4 24 3 24H35C36.7 24 38 22.7 38 21V3C38 1.3 36.6 0 35 0Z"
		fill="black"
		fill-opacity="0.07"
	/>
	<rect x="1" y="1" width="36" height="22" rx="2" fill="white" />
	<path
		d="M18.0287 14.6884C16.7598 14.6884 15.716 14.2732 14.9265 13.4546C14.137 12.636 13.7368 11.585 13.7368 10.3314C13.7368 9.11148 14.14 8.07217 14.9352 7.24203C15.7246 6.41785 16.7099 6 17.8637 6C19.0087 6 19.9227 6.3868 20.5803 7.15049C21.2152 7.88532 21.5366 8.89507 21.5366 10.1522C21.5366 10.3355 21.5311 10.528 21.5204 10.7245C21.5061 10.8678 21.4509 10.9684 21.2303 10.9684C21.2207 10.9684 21.2111 10.9684 21.2016 10.9678H16.1233C16.0928 10.9683 16.0627 10.9755 16.035 10.9889C16.0073 11.0023 15.9826 11.0216 15.9626 11.0455C15.9426 11.0695 15.9278 11.0976 15.919 11.1279C15.9102 11.1583 15.9077 11.1902 15.9116 11.2216C15.9116 11.304 15.9379 11.442 16.1425 11.7813C16.58 12.4926 17.2698 12.8525 18.1937 12.8525C18.8166 12.8425 19.4296 12.6878 19.9873 12.3999C20.0859 12.3412 20.1934 12.3005 20.3052 12.2793C20.3843 12.2793 20.4616 12.3482 20.5347 12.4841L21.014 13.3498C21.054 13.4089 21.0805 13.4768 21.0915 13.5481C21.0915 13.5824 21.0915 13.687 20.8944 13.8168C20.0417 14.3912 19.0455 14.6942 18.0287 14.6884ZM17.7812 7.7422C17.4913 7.73819 17.2045 7.80433 16.9436 7.93536C16.6827 8.0664 16.4548 8.25872 16.2781 8.49706C16.0095 8.83239 15.8786 9.10543 15.8786 9.33018C15.8783 9.36058 15.8842 9.3907 15.8957 9.41863C15.9073 9.44655 15.9244 9.47166 15.9459 9.49233C15.9674 9.51301 15.9928 9.52879 16.0206 9.53868C16.0483 9.54857 16.0777 9.55235 16.1069 9.54976H19.299C19.3282 9.55383 19.3579 9.55143 19.3861 9.54274C19.4144 9.53404 19.4405 9.51925 19.4628 9.49932C19.4852 9.47939 19.5032 9.45478 19.5157 9.42712C19.5282 9.39945 19.5349 9.36935 19.5354 9.3388C19.5378 9.1401 19.5022 8.94286 19.4308 8.75847C19.3594 8.57407 19.2535 8.40615 19.1192 8.26438C18.7905 7.91745 18.3408 7.7422 17.7812 7.7422Z"
		fill="#424A68"
	/>
	<path
		d="M13.5023 17.6752V16.2837C13.5023 16.2688 13.5017 16.2596 13.5017 16.2507C13.4931 16.1648 13.5176 16.0788 13.5699 16.0116C13.6396 15.9578 13.7269 15.9347 13.813 15.9472H24.0714C24.1592 15.9339 24.2485 15.957 24.32 16.0116C24.3723 16.0788 24.3968 16.1648 24.3882 16.2507C24.3882 16.2597 24.3882 16.2688 24.3882 16.2781V17.6694C24.3882 17.684 24.3882 17.6928 24.3882 17.7013C24.396 17.7828 24.3725 17.8641 24.3229 17.9278C24.2518 17.9835 24.1627 18.0084 24.0743 17.9972H13.8185C13.7292 18.0088 13.6391 17.9839 13.5671 17.9278C13.5175 17.8642 13.4941 17.7829 13.5018 17.7015C13.5018 17.6929 13.502 17.6841 13.5023 17.6752Z"
		fill="#C8E7ED"
	/>
	<path
		d="M23.5074 14.5739C23.3756 14.5783 23.2445 14.5538 23.1224 14.5021C23.0003 14.4505 22.8901 14.3727 22.7988 14.274C22.7036 14.1786 22.6286 14.0637 22.5783 13.9367C22.528 13.8097 22.5037 13.6733 22.5067 13.536C22.5048 13.4018 22.5296 13.2686 22.5796 13.1448C22.6296 13.021 22.7037 12.9093 22.7974 12.8167C22.8894 12.7156 23.001 12.6358 23.1248 12.5824C23.2485 12.5289 23.3817 12.5031 23.5158 12.5066C23.7752 12.5166 24.0212 12.6285 24.204 12.8196C24.3868 13.0108 24.4926 13.2669 24.5 13.536C24.4985 13.8093 24.3937 14.0711 24.2081 14.2652C24.0225 14.4593 23.771 14.5701 23.5074 14.5739Z"
		fill="#E26E4B"
	/>
</svg>
