<svg
	color="rgb(var(--foreground, 0, 0, 0))"
	viewBox="0 0 18 15"
	fill="none"
	xmlns="http://www.w3.org/2000/svg"
>
	<path
		d="M1.4204 15H12.5593C13.0023 15 13.3484 14.9041 13.5976 14.7122C13.8523 14.5256 13.9797 14.2671 13.9797 13.9366C13.9797 13.4248 13.8163 12.8838 13.4896 12.3134C13.1684 11.7431 12.7033 11.21 12.0941 10.7143C11.4905 10.2132 10.7568 9.8081 9.89294 9.49893C9.03461 9.18443 8.06553 9.02719 6.98569 9.02719C5.9114 9.02719 4.94232 9.18443 4.07845 9.49893C3.22012 9.8081 2.48639 10.2132 1.87725 10.7143C1.26811 11.21 0.802953 11.7431 0.481772 12.3134C0.160591 12.8838 0 13.4248 0 13.9366C0 14.2671 0.124596 14.5256 0.373789 14.7122C0.628519 14.9041 0.977388 15 1.4204 15ZM6.994 7.59595C7.58653 7.59595 8.13475 7.44136 8.63867 7.1322C9.14259 6.8177 9.54684 6.39392 9.85141 5.86087C10.1615 5.32783 10.3166 4.72815 10.3166 4.06183C10.3166 3.40618 10.1615 2.81983 9.85141 2.30277C9.54684 1.78038 9.14259 1.36994 8.63867 1.07143C8.13475 0.772921 7.58653 0.623667 6.994 0.623667C6.40148 0.623667 5.85325 0.775586 5.34933 1.07942C4.84541 1.38326 4.43839 1.79638 4.12829 2.31876C3.82372 2.84115 3.67144 3.42751 3.67144 4.07783C3.67144 4.73881 3.82372 5.33582 4.12829 5.86887C4.43839 6.39659 4.84541 6.8177 5.34933 7.1322C5.85325 7.44136 6.40148 7.59595 6.994 7.59595ZM15.1011 5.74893C15.306 5.74893 15.4665 5.69296 15.5828 5.58102C15.7047 5.46908 15.7656 5.33582 15.7656 5.18124C15.7656 5.16525 15.7656 5.14925 15.7656 5.13326C15.7656 5.11194 15.7656 5.09595 15.7656 5.08529C15.7656 4.86141 15.8348 4.66951 15.9732 4.50959C16.1117 4.34435 16.3276 4.16844 16.6211 3.98188C17.0198 3.72601 17.3493 3.45949 17.6096 3.1823C17.8699 2.90512 18 2.52665 18 2.04691C18 1.60448 17.8754 1.23134 17.6262 0.927505C17.3826 0.623667 17.0614 0.394456 16.6627 0.239872C16.264 0.0799574 15.8293 0 15.3586 0C14.6442 0 14.06 0.141258 13.6059 0.423774C13.1574 0.70096 12.8749 1.02345 12.7587 1.39126C12.7365 1.45522 12.7199 1.51919 12.7088 1.58316C12.6977 1.64712 12.6922 1.71375 12.6922 1.78305C12.6922 1.96429 12.7531 2.10288 12.8749 2.19883C12.9968 2.28945 13.1269 2.33475 13.2653 2.33475C13.4038 2.33475 13.5201 2.30544 13.6142 2.2468C13.7139 2.18817 13.7997 2.11087 13.8717 2.01493L14.0212 1.82303C14.1209 1.66844 14.2344 1.53785 14.3618 1.43124C14.4892 1.3193 14.6304 1.23401 14.7854 1.17537C14.946 1.11674 15.1177 1.08742 15.3004 1.08742C15.6825 1.08742 15.9871 1.18337 16.2141 1.37527C16.4412 1.56183 16.5547 1.80704 16.5547 2.11087C16.5547 2.38273 16.4661 2.60661 16.2889 2.78252C16.1117 2.95309 15.8403 3.16098 15.4749 3.40618C15.1758 3.60341 14.9266 3.82196 14.7273 4.06183C14.5335 4.30171 14.4365 4.61887 14.4365 5.01333C14.4365 5.02932 14.4365 5.04797 14.4365 5.0693C14.4365 5.08529 14.4365 5.10128 14.4365 5.11727C14.4365 5.53838 14.6581 5.74893 15.1011 5.74893ZM15.0761 8.13166C15.3198 8.13166 15.5302 8.05171 15.7074 7.89179C15.8846 7.73188 15.9732 7.53465 15.9732 7.30011C15.9732 7.06557 15.8846 6.86834 15.7074 6.70842C15.5302 6.54851 15.3198 6.46855 15.0761 6.46855C14.8325 6.46855 14.6221 6.55117 14.4449 6.71642C14.2732 6.87633 14.1874 7.0709 14.1874 7.30011C14.1874 7.52932 14.276 7.72655 14.4532 7.89179C14.6304 8.05171 14.838 8.13166 15.0761 8.13166Z"
		fill="currentColor"
	/>
</svg>
