<svg
	color="rgb(var(--foreground, 0, 0, 0))"
	viewBox="0 0 20 15"
	fill="none"
	xmlns="http://www.w3.org/2000/svg"
>
	<path
		d="M1.39649 15H12.3479C12.7834 15 13.1237 14.8999 13.3687 14.6997C13.6192 14.505 13.7444 14.2353 13.7444 13.8904C13.7444 13.3565 13.5838 12.792 13.2626 12.1969C12.9468 11.6018 12.4895 11.0456 11.8906 10.5284C11.2971 10.0056 10.5757 9.58287 9.72642 9.26029C8.88254 8.93215 7.92977 8.76808 6.86811 8.76808C5.8119 8.76808 4.85913 8.93215 4.0098 9.26029C3.16592 9.58287 2.44454 10.0056 1.84565 10.5284C1.24677 11.0456 0.789438 11.6018 0.473663 12.1969C0.157888 12.792 0 13.3565 0 13.8904C0 14.2353 0.122499 14.505 0.367497 14.6997C0.617939 14.8999 0.960936 15 1.39649 15ZM6.87628 7.27475C7.45883 7.27475 7.99782 7.11346 8.49326 6.79088C8.9887 6.46274 9.38614 6.02058 9.68559 5.46441C9.99047 4.90823 10.1429 4.28254 10.1429 3.58732C10.1429 2.90323 9.99047 2.29144 9.68559 1.75195C9.38614 1.2069 8.9887 0.778643 8.49326 0.467186C7.99782 0.155729 7.45883 0 6.87628 0C6.29373 0 5.75473 0.158509 5.25929 0.475528C4.76385 0.792547 4.36369 1.22358 4.0588 1.76863C3.75936 2.31368 3.60964 2.92547 3.60964 3.604C3.60964 4.29366 3.75936 4.91657 4.0588 5.47275C4.36369 6.02336 4.76385 6.46274 5.25929 6.79088C5.75473 7.11346 6.29373 7.27475 6.87628 7.27475ZM15.4104 7.76696C15.688 7.76696 15.9085 7.63904 16.0719 7.3832L19.804 1.37653C19.853 1.29867 19.8966 1.21524 19.9347 1.12625C19.9782 1.0317 20 0.937152 20 0.842603C20 0.659066 19.9319 0.51168 19.7958 0.400445C19.6597 0.28921 19.5073 0.233593 19.3385 0.233593C19.1098 0.233593 18.9193 0.358732 18.7668 0.60901L15.3777 6.16518L13.7689 4.03782C13.6709 3.90434 13.5729 3.81535 13.4749 3.77086C13.3823 3.7208 13.2789 3.69577 13.1646 3.69577C12.9903 3.69577 12.8406 3.76251 12.7154 3.896C12.5956 4.02392 12.5357 4.17964 12.5357 4.36318C12.5357 4.5356 12.5983 4.70801 12.7236 4.88042L14.7162 7.3832C14.8197 7.51669 14.9258 7.61402 15.0347 7.67519C15.149 7.73637 15.2743 7.76696 15.4104 7.76696Z"
		fill="currentColor"
	/>
</svg>
