<svg
	color="rgb(var(--foreground, 0, 0, 0))"
	viewBox="0 0 20 15"
	fill="none"
	xmlns="http://www.w3.org/2000/svg"
>
	<path
		d="M1.39992 15H12.3782C12.8148 15 13.156 14.8999 13.4016 14.6997C13.6526 14.505 13.7781 14.2353 13.7781 13.8904C13.7781 13.3565 13.6171 12.792 13.2951 12.1969C12.9786 11.6018 12.5201 11.0456 11.9198 10.5284C11.3249 10.0056 10.6017 9.58287 9.75031 9.26029C8.90435 8.93215 7.94924 8.76808 6.88498 8.76808C5.82617 8.76808 4.87106 8.93215 4.01965 9.26029C3.17369 9.58287 2.45054 10.0056 1.85018 10.5284C1.24983 11.0456 0.791377 11.6018 0.474826 12.1969C0.158275 12.792 0 13.3565 0 13.8904C0 14.2353 0.1228 14.505 0.3684 14.6997C0.619457 14.8999 0.963297 15 1.39992 15ZM6.89316 7.27475C7.47715 7.27475 8.01746 7.11346 8.51412 6.79088C9.01078 6.46274 9.4092 6.02058 9.70937 5.46441C10.015 4.90823 10.1678 4.28254 10.1678 3.58732C10.1678 2.90323 10.015 2.29144 9.70937 1.75195C9.4092 1.2069 9.01078 0.778643 8.51412 0.467186C8.01746 0.155729 7.47715 0 6.89316 0C6.30918 0 5.76886 0.158509 5.27221 0.475528C4.77555 0.792547 4.3744 1.22358 4.06877 1.76863C3.76859 2.31368 3.6185 2.92547 3.6185 3.604C3.6185 4.29366 3.76859 4.91657 4.06877 5.47275C4.3744 6.02336 4.77555 6.46274 5.27221 6.79088C5.76886 7.11346 6.30918 7.27475 6.89316 7.27475ZM13.7454 7.14961C13.9364 7.14961 14.0947 7.08009 14.2202 6.94105L16.537 4.57175L18.8702 6.94105C19.0012 7.08009 19.1568 7.14961 19.3369 7.14961C19.517 7.14961 19.6698 7.08287 19.7953 6.94939C19.9263 6.81591 19.9918 6.6574 19.9918 6.47386C19.9918 6.29032 19.9263 6.13181 19.7953 5.99833L17.4703 3.62903L19.8035 1.24305C19.9345 1.10957 20 0.953838 20 0.775862C20 0.592325 19.9345 0.436596 19.8035 0.308676C19.678 0.175195 19.5252 0.108454 19.3451 0.108454C19.1759 0.108454 19.0258 0.177976 18.8948 0.317019L16.537 2.69466L14.2038 0.325362C14.0838 0.19188 13.931 0.125139 13.7454 0.125139C13.5653 0.125139 13.4097 0.189099 13.2788 0.317019C13.1532 0.444939 13.0905 0.600667 13.0905 0.784205C13.0905 0.967742 13.156 1.12347 13.2869 1.25139L15.612 3.62903L13.2869 6.00667C13.156 6.13459 13.0905 6.29032 13.0905 6.47386C13.0905 6.6574 13.1532 6.81591 13.2788 6.94939C13.4097 7.08287 13.5653 7.14961 13.7454 7.14961Z"
		fill="currentColor"
	/>
</svg>
