<svg
	color="rgb(var(--foreground, 0, 0, 0))"
	viewBox="0 0 20 15"
	fill="none"
	xmlns="http://www.w3.org/2000/svg"
>
	<path
		d="M2.00082 15H12.2662C13.6001 15 14.267 14.568 14.267 13.7041C14.267 13.1749 14.1037 12.6107 13.7771 12.0113C13.4504 11.412 12.9767 10.8477 12.3561 10.3186C11.7408 9.78402 10.9922 9.34935 10.1102 9.01458C9.2337 8.6798 8.24282 8.51242 7.13761 8.51242C6.02695 8.51242 5.03062 8.6798 4.14863 9.01458C3.27208 9.34935 2.52348 9.78402 1.90282 10.3186C1.2876 10.8477 0.81666 11.412 0.489996 12.0113C0.163332 12.6107 0 13.1749 0 13.7041C0 14.568 0.666939 15 2.00082 15ZM1.61699 13.777C1.5081 13.777 1.42915 13.7608 1.38016 13.7284C1.3366 13.696 1.31482 13.6366 1.31482 13.5502C1.31482 13.2208 1.44004 12.8402 1.69049 12.4082C1.94637 11.9708 2.32204 11.5497 2.81748 11.1447C3.31292 10.7397 3.92269 10.405 4.64679 10.1404C5.3709 9.87041 6.20117 9.73542 7.13761 9.73542C8.07404 9.73542 8.90159 9.87041 9.62025 10.1404C10.3444 10.405 10.9541 10.7397 11.4496 11.1447C11.945 11.5497 12.318 11.9708 12.5684 12.4082C12.8243 12.8402 12.9522 13.2208 12.9522 13.5502C12.9522 13.6366 12.9277 13.696 12.8787 13.7284C12.8352 13.7608 12.7617 13.777 12.6582 13.777H1.61699ZM7.13761 7.5081C7.78549 7.5081 8.37621 7.33531 8.90976 6.98974C9.44331 6.64417 9.86797 6.18521 10.1837 5.61285C10.505 5.0351 10.6656 4.39795 10.6656 3.7014C10.6656 3.01026 10.5077 2.38661 10.1919 1.83045C9.87614 1.2689 9.45148 0.823434 8.91792 0.49406C8.38437 0.164687 7.79093 0 7.13761 0C6.48972 0 5.89901 0.167387 5.36546 0.50216C4.8319 0.836933 4.40452 1.2851 4.0833 1.84665C3.76752 2.40821 3.60964 3.03186 3.60964 3.7176C3.60964 4.40875 3.76752 5.0432 4.0833 5.62095C4.40452 6.1933 4.8319 6.65227 5.36546 6.99784C5.89901 7.33801 6.48972 7.5081 7.13761 7.5081ZM7.13761 6.2851C6.74017 6.2851 6.37267 6.17171 6.03512 5.94492C5.70301 5.71274 5.43351 5.40227 5.22662 5.0135C5.02518 4.62473 4.92446 4.19276 4.92446 3.7176C4.92446 3.24784 5.02518 2.82667 5.22662 2.4541C5.42807 2.07613 5.69484 1.77646 6.02695 1.55508C6.3645 1.33369 6.73472 1.223 7.13761 1.223C7.54594 1.223 7.91616 1.33099 8.24826 1.54698C8.58582 1.76296 8.85259 2.05994 9.04859 2.43791C9.25003 2.81048 9.35075 3.23164 9.35075 3.7014C9.35075 4.17657 9.25003 4.61123 9.04859 5.0054C8.84715 5.39417 8.57765 5.70464 8.2401 5.93682C7.90799 6.16901 7.54049 6.2851 7.13761 6.2851Z"
		fill="currentColor"
	/>
	<path
		d="M15.4104 7.5405C15.688 7.5405 15.9085 7.41631 16.0719 7.16793L19.804 1.33639C19.853 1.2608 19.8966 1.17981 19.9347 1.09341C19.9782 1.00162 20 0.909827 20 0.818035C20 0.639849 19.9319 0.49676 19.7958 0.388769C19.6597 0.280778 19.5073 0.226782 19.3385 0.226782C19.1098 0.226782 18.9193 0.348272 18.7668 0.591253L15.3777 5.98542L13.7689 3.92009C13.6709 3.7905 13.5729 3.7041 13.4749 3.66091C13.3823 3.61231 13.2789 3.58801 13.1646 3.58801C12.9903 3.58801 12.8406 3.65281 12.7154 3.7824C12.5956 3.90659 12.5357 4.05778 12.5357 4.23596C12.5357 4.40335 12.5983 4.57073 12.7236 4.73812L14.7162 7.16793C14.8197 7.29752 14.9258 7.39201 15.0347 7.4514C15.149 7.5108 15.2743 7.5405 15.4104 7.5405Z"
		fill="currentColor"
	/>
</svg>
