<svg
	color="rgb(var(--foreground, 0, 0, 0))"
	viewBox="0 0 21 15"
	fill="none"
	xmlns="http://www.w3.org/2000/svg"
>
	<path
		d="M0.215836 4.03782L2.3582 5.698C2.58203 5.87597 2.80053 5.92047 3.0137 5.83148C3.22687 5.74249 3.33346 5.55617 3.33346 5.27253V4.23804H5.39589C5.57175 4.23804 5.72097 4.17686 5.84355 4.05451C5.96612 3.92659 6.02741 3.77086 6.02741 3.58732C6.02741 3.40934 5.96612 3.2564 5.84355 3.12848C5.72097 3.00056 5.57175 2.9366 5.39589 2.9366H3.33346V1.92714C3.33346 1.62681 3.22421 1.43771 3.00571 1.35984C2.78721 1.27642 2.57137 1.31813 2.3582 1.48498L0.215836 3.16185C0.0719452 3.27308 0 3.42047 0 3.604C0 3.78198 0.0719452 3.92659 0.215836 4.03782ZM14.9726 3.58732C14.9726 3.77086 15.0312 3.92659 15.1485 4.05451C15.271 4.17686 15.4203 4.23804 15.5961 4.23804H17.6585V5.27253C17.6585 5.55617 17.7651 5.74249 17.9783 5.83148C18.1968 5.92047 18.4153 5.87597 18.6338 5.698L20.7762 4.03782C20.9254 3.92659 21 3.78198 21 3.604C21 3.42047 20.9254 3.27308 20.7762 3.16185L18.6338 1.48498C18.4206 1.31813 18.2048 1.27642 17.9863 1.35984C17.7678 1.43771 17.6585 1.62681 17.6585 1.92714V2.9366H15.5961C15.4203 2.9366 15.271 3.00056 15.1485 3.12848C15.0312 3.2564 14.9726 3.40934 14.9726 3.58732ZM5.13209 15H15.8599C16.2863 15 16.6193 14.8999 16.8592 14.6997C17.1043 14.505 17.2269 14.2353 17.2269 13.8904C17.2269 13.3565 17.0697 12.792 16.7552 12.1969C16.4461 11.6018 15.9985 11.0456 15.4123 10.5284C14.8314 10.0056 14.1252 9.58287 13.2939 9.26029C12.4678 8.93215 11.5352 8.76808 10.496 8.76808C9.46212 8.76808 8.5295 8.93215 7.69813 9.26029C6.8721 9.58287 6.16597 10.0056 5.57975 10.5284C4.99353 11.0456 4.54587 11.6018 4.23677 12.1969C3.92767 12.792 3.77313 13.3565 3.77313 13.8904C3.77313 14.2353 3.89303 14.505 4.13285 14.6997C4.37267 14.8999 4.70575 15 5.13209 15ZM10.504 7.27475C11.0742 7.27475 11.6018 7.11346 12.0868 6.79088C12.5718 6.46274 12.9608 6.02058 13.2539 5.46441C13.5523 4.90823 13.7016 4.28254 13.7016 3.58732C13.7016 2.90323 13.5523 2.29144 13.2539 1.75195C12.9608 1.2069 12.5718 0.778643 12.0868 0.467186C11.6018 0.155729 11.0742 0 10.504 0C9.93376 0 9.40617 0.158509 8.9212 0.475528C8.43624 0.792547 8.04454 1.22358 7.7461 1.76863C7.45299 2.31368 7.30643 2.92547 7.30643 3.604C7.30643 4.29366 7.45299 4.91657 7.7461 5.47275C8.04454 6.02336 8.43624 6.46274 8.9212 6.79088C9.40617 7.11346 9.93376 7.27475 10.504 7.27475Z"
		fill="currentColor"
	/>
</svg>
