<svg
	color="rgb(var(--foreground, 0, 0, 0))"
	viewBox="0 0 18 15"
	fill="none"
	xmlns="http://www.w3.org/2000/svg"
>
	<path
		d="M15.1011 5.82343C15.306 5.82343 15.4665 5.76674 15.5828 5.65335C15.7047 5.53996 15.7656 5.40497 15.7656 5.24838C15.7656 5.23218 15.7656 5.21598 15.7656 5.19978C15.7656 5.17819 15.7656 5.16199 15.7656 5.15119C15.7656 4.92441 15.8348 4.73002 15.9732 4.56803C16.1117 4.40065 16.3276 4.22246 16.6211 4.03348C17.0198 3.7743 17.3493 3.50432 17.6096 3.22354C17.8699 2.94276 18 2.5594 18 2.07343C18 1.62527 17.8754 1.2473 17.6262 0.939525C17.3826 0.631749 17.0614 0.399568 16.6627 0.242981C16.264 0.0809935 15.8293 0 15.3586 0C14.6442 0 14.06 0.143089 13.6059 0.429266C13.1574 0.710043 12.8749 1.03672 12.7587 1.40929C12.7365 1.47408 12.7199 1.53888 12.7088 1.60367C12.6977 1.66847 12.6922 1.73596 12.6922 1.80616C12.6922 1.98974 12.7531 2.13013 12.8749 2.22732C12.9968 2.31911 13.1269 2.36501 13.2653 2.36501C13.4038 2.36501 13.5201 2.33531 13.6142 2.27592C13.7139 2.21652 13.7997 2.13823 13.8717 2.04104L14.0212 1.84665C14.1209 1.69006 14.2344 1.55778 14.3618 1.44978C14.4892 1.33639 14.6304 1.25 14.7854 1.1906C14.946 1.13121 15.1177 1.10151 15.3004 1.10151C15.6825 1.10151 15.9871 1.1987 16.2141 1.39309C16.4412 1.58207 16.5547 1.83045 16.5547 2.13823C16.5547 2.41361 16.4661 2.64039 16.2889 2.81857C16.1117 2.99136 15.8403 3.20194 15.4749 3.45032C15.1758 3.65011 14.9266 3.87149 14.7273 4.11447C14.5335 4.35745 14.4365 4.67873 14.4365 5.07829C14.4365 5.09449 14.4365 5.11339 14.4365 5.13499C14.4365 5.15119 14.4365 5.16739 14.4365 5.18359C14.4365 5.61015 14.6581 5.82343 15.1011 5.82343ZM15.0761 8.23704C15.3198 8.23704 15.5302 8.15605 15.7074 7.99406C15.8846 7.83207 15.9732 7.63229 15.9732 7.39471C15.9732 7.15713 15.8846 6.95734 15.7074 6.79536C15.5302 6.63337 15.3198 6.55238 15.0761 6.55238C14.8325 6.55238 14.6221 6.63607 14.4449 6.80346C14.2732 6.96544 14.1874 7.16253 14.1874 7.39471C14.1874 7.62689 14.276 7.82667 14.4532 7.99406C14.6304 8.15605 14.838 8.23704 15.0761 8.23704Z"
		fill="currentColor"
	/>
	<path
		d="M2.03507 15H12.4762C13.8329 15 14.5113 14.568 14.5113 13.7041C14.5113 13.1749 14.3452 12.6107 14.0129 12.0113C13.6807 11.412 13.1989 10.8477 12.5676 10.3186C11.9419 9.78402 11.1804 9.34935 10.2833 9.01458C9.39179 8.6798 8.38394 8.51242 7.25981 8.51242C6.13013 8.51242 5.11675 8.6798 4.21966 9.01458C3.3281 9.34935 2.56668 9.78402 1.93539 10.3186C1.30964 10.8477 0.830642 11.412 0.498385 12.0113C0.166128 12.6107 0 13.1749 0 13.7041C0 14.568 0.678357 15 2.03507 15ZM1.64467 13.777C1.53392 13.777 1.45362 13.7608 1.40378 13.7284C1.35948 13.696 1.33733 13.6366 1.33733 13.5502C1.33733 13.2208 1.4647 12.8402 1.71943 12.4082C1.9797 11.9708 2.36179 11.5497 2.86571 11.1447C3.36964 10.7397 3.98985 10.405 4.72635 10.1404C5.46285 9.87041 6.30734 9.73542 7.25981 9.73542C8.21228 9.73542 9.05399 9.87041 9.78496 10.1404C10.5215 10.405 11.1417 10.7397 11.6456 11.1447C12.1495 11.5497 12.5288 11.9708 12.7836 12.4082C13.0438 12.8402 13.174 13.2208 13.174 13.5502C13.174 13.6366 13.1491 13.696 13.0992 13.7284C13.0549 13.7608 12.9802 13.777 12.8749 13.777H1.64467ZM7.25981 7.5081C7.91878 7.5081 8.51961 7.33531 9.0623 6.98974C9.60498 6.64417 10.0369 6.18521 10.3581 5.61285C10.6848 5.0351 10.8482 4.39795 10.8482 3.7014C10.8482 3.01026 10.6876 2.38661 10.3664 1.83045C10.0452 1.2689 9.61329 0.823434 9.07061 0.49406C8.52792 0.164687 7.92432 0 7.25981 0C6.60083 0 6 0.167387 5.45731 0.50216C4.91463 0.836933 4.47993 1.2851 4.15321 1.84665C3.83203 2.40821 3.67144 3.03186 3.67144 3.7176C3.67144 4.40875 3.83203 5.0432 4.15321 5.62095C4.47993 6.1933 4.91463 6.65227 5.45731 6.99784C6 7.33801 6.60083 7.5081 7.25981 7.5081ZM7.25981 6.2851C6.85556 6.2851 6.48177 6.17171 6.13844 5.94492C5.80065 5.71274 5.52653 5.40227 5.31611 5.0135C5.11121 4.62473 5.00877 4.19276 5.00877 3.7176C5.00877 3.24784 5.11121 2.82667 5.31611 2.4541C5.521 2.07613 5.79234 1.77646 6.13013 1.55508C6.47347 1.33369 6.85002 1.223 7.25981 1.223C7.67513 1.223 8.05168 1.33099 8.38948 1.54698C8.73281 1.76296 9.00415 2.05994 9.20351 2.43791C9.4084 2.81048 9.51085 3.23164 9.51085 3.7014C9.51085 4.17657 9.4084 4.61123 9.20351 5.0054C8.99862 5.39417 8.7245 5.70464 8.38117 5.93682C8.04338 6.16901 7.66959 6.2851 7.25981 6.2851Z"
		fill="currentColor"
	/>
</svg>
