<svg
	color="rgb(var(--foreground, 0, 0, 0))"
	viewBox="0 0 21 15"
	fill="none"
	xmlns="http://www.w3.org/2000/svg"
>
	<path
		d="M0.215836 4.13877L2.3582 5.75054C2.58203 5.92333 2.80053 5.96652 3.0137 5.88013C3.22687 5.79374 3.33346 5.61285 3.33346 5.33747V4.33315H5.39589C5.57175 4.33315 5.72097 4.27376 5.84355 4.15497C5.96612 4.03078 6.02741 3.87959 6.02741 3.7014C6.02741 3.52862 5.96612 3.38013 5.84355 3.25594C5.72097 3.13175 5.57175 3.06965 5.39589 3.06965H3.33346V2.08963C3.33346 1.79806 3.22421 1.61447 3.00571 1.53888C2.78721 1.45788 2.57137 1.49838 2.3582 1.66037L0.215836 3.28834C0.0719452 3.39633 0 3.53942 0 3.7176C0 3.89039 0.0719452 4.03078 0.215836 4.13877ZM14.9726 3.7014C14.9726 3.87959 15.0312 4.03078 15.1485 4.15497C15.271 4.27376 15.4203 4.33315 15.5961 4.33315H17.6585V5.33747C17.6585 5.61285 17.7651 5.79374 17.9783 5.88013C18.1968 5.96652 18.4153 5.92333 18.6338 5.75054L20.7762 4.13877C20.9254 4.03078 21 3.89039 21 3.7176C21 3.53942 20.9254 3.39633 20.7762 3.28834L18.6338 1.66037C18.4206 1.49838 18.2048 1.45788 17.9863 1.53888C17.7678 1.61447 17.6585 1.79806 17.6585 2.08963V3.06965H15.5961C15.4203 3.06965 15.271 3.13175 15.1485 3.25594C15.0312 3.38013 14.9726 3.52862 14.9726 3.7014ZM5.47583 15H15.5162C16.8272 15 17.4827 14.568 17.4827 13.7041C17.4827 13.1749 17.3228 12.6107 17.003 12.0113C16.6833 11.412 16.2196 10.8477 15.6121 10.3186C15.0099 9.78402 14.2771 9.34935 13.4138 9.01458C12.5558 8.6798 11.5832 8.51242 10.496 8.51242C9.41416 8.51242 8.44157 8.6798 7.57823 9.01458C6.72021 9.34935 5.98744 9.78402 5.3799 10.3186C4.77236 10.8477 4.30872 11.412 3.98896 12.0113C3.67453 12.6107 3.51732 13.1749 3.51732 13.7041C3.51732 14.568 4.17016 15 5.47583 15ZM5.09212 13.777C4.99086 13.777 4.91625 13.7608 4.86829 13.7284C4.82566 13.696 4.80434 13.6366 4.80434 13.5502C4.80434 13.2208 4.92691 12.8402 5.17206 12.4082C5.42253 11.9708 5.79026 11.5497 6.27522 11.1447C6.76018 10.7397 7.3544 10.405 8.05786 10.1404C8.76665 9.87041 9.57937 9.73542 10.496 9.73542C11.4126 9.73542 12.2254 9.87041 12.9341 10.1404C13.6429 10.405 14.2372 10.7397 14.7168 11.1447C15.2018 11.5497 15.5695 11.9708 15.8199 12.4082C16.0704 12.8402 16.1957 13.2208 16.1957 13.5502C16.1957 13.6366 16.1717 13.696 16.1237 13.7284C16.0811 13.7608 16.0065 13.777 15.8999 13.777H5.09212ZM10.504 7.5081C11.1382 7.5081 11.7164 7.33531 12.2387 6.98974C12.7609 6.64417 13.1766 6.18521 13.4857 5.61285C13.8002 5.0351 13.9574 4.39795 13.9574 3.7014C13.9574 3.01026 13.8028 2.38661 13.4937 1.83045C13.1846 1.2689 12.7663 0.823434 12.2387 0.49406C11.7164 0.164687 11.1382 0 10.504 0C9.86981 0 9.29159 0.167387 8.76932 0.50216C8.24705 0.836933 7.8287 1.2851 7.51428 1.84665C7.20518 2.40821 7.05063 3.03186 7.05063 3.7176C7.05063 4.40875 7.20518 5.0432 7.51428 5.62095C7.8287 6.1933 8.24705 6.65227 8.76932 6.99784C9.29159 7.33801 9.86981 7.5081 10.504 7.5081ZM10.504 6.2851C10.115 6.2851 9.75523 6.17171 9.42482 5.94492C9.0944 5.71274 8.83061 5.40227 8.63342 5.0135C8.43624 4.62473 8.33765 4.19276 8.33765 3.7176C8.33765 3.24784 8.43357 2.82667 8.62543 2.4541C8.82261 2.07613 9.08641 1.77646 9.41683 1.55508C9.74724 1.33369 10.1096 1.223 10.504 1.223C10.8984 1.223 11.2608 1.33099 11.5912 1.54698C11.9216 1.76296 12.1827 2.05994 12.3746 2.43791C12.5718 2.81048 12.6703 3.23164 12.6703 3.7014C12.6703 4.17657 12.5718 4.61123 12.3746 5.0054C12.1774 5.39417 11.9136 5.70464 11.5832 5.93682C11.2581 6.16901 10.8984 6.2851 10.504 6.2851Z"
		fill="currentColor"
	/>
</svg>
