<svg
	color="rgb(var(--foreground, 0, 0, 0))"
	viewBox="0 0 15 12"
	fill="none"
	xmlns="http://www.w3.org/2000/svg"
>
	<path
		d="M0 6C0 6.20053 0.083468 6.37731 0.250404 6.53034L5.61389 11.7784C5.77006 11.9261 5.94507 12 6.13893 12C6.33818 12 6.50512 11.934 6.63974 11.8021C6.77975 11.6755 6.84976 11.5145 6.84976 11.3193C6.84976 11.2243 6.83091 11.1346 6.79321 11.0501C6.7609 10.9604 6.71244 10.8839 6.64782 10.8206L4.83845 9.01583L1.63974 6.15831L1.47011 6.54617L4.07108 6.70448H14.2892C14.4992 6.70448 14.6688 6.63852 14.7981 6.5066C14.9327 6.37467 15 6.2058 15 6C15 5.7942 14.9327 5.62533 14.7981 5.4934C14.6688 5.36148 14.4992 5.29551 14.2892 5.29551H4.07108L1.47011 5.45383L1.63974 5.8496L4.83845 2.98417L6.64782 1.17942C6.71244 1.11609 6.7609 1.04222 6.79321 0.957784C6.83091 0.868074 6.84976 0.775726 6.84976 0.680739C6.84976 0.485488 6.77975 0.324538 6.63974 0.197889C6.50512 0.0659631 6.33818 0 6.13893 0C6.042 0 5.94776 0.0184697 5.85622 0.055409C5.77006 0.0923483 5.6839 0.153034 5.59774 0.237467L0.250404 5.46966C0.083468 5.62269 0 5.79947 0 6Z"
		fill="currentColor"
	/>
</svg>
