<svg
	color="rgb(var(--foreground, 0, 0, 0))"
	viewBox="0 0 15 14"
	fill="none"
	xmlns="http://www.w3.org/2000/svg"
>
	<path
		d="M1.61368 10.9032H2.98247V4.15609C2.98247 3.44986 3.1609 2.89032 3.51775 2.47745C3.8797 2.06458 4.33597 1.85814 4.88654 1.85814C5.44222 1.85814 5.90358 2.06458 6.27063 2.47745C6.63768 2.88488 6.82121 3.44443 6.82121 4.15609V9.73798C6.82121 10.5257 6.9614 11.2102 7.24179 11.7915C7.52727 12.3673 7.91726 12.8128 8.41176 13.1279C8.91136 13.4429 9.47978 13.6005 10.117 13.6005C10.7543 13.6005 11.3176 13.4429 11.807 13.1279C12.3015 12.8128 12.6889 12.3673 12.9693 11.7915C13.2497 11.2102 13.3899 10.5257 13.3899 9.73798V3.05601H12.0211V9.85206C12.0211 10.5529 11.8401 11.1097 11.4782 11.5226C11.1213 11.9354 10.6676 12.1419 10.117 12.1419C9.56134 12.1419 9.09998 11.9381 8.73293 11.5307C8.36588 11.1233 8.18235 10.5637 8.18235 9.85206V4.27017C8.18235 3.48246 8.03961 2.80068 7.75413 2.22483C7.47374 1.64356 7.08375 1.19538 6.58415 0.880291C6.08965 0.565206 5.52379 0.407664 4.88654 0.407664C4.2493 0.407664 3.68343 0.565206 3.18893 0.880291C2.69953 1.19538 2.31464 1.64356 2.03425 2.22483C1.75387 2.80068 1.61368 3.48246 1.61368 4.27017V10.9032ZM0.543111 10.2839C0.267823 10.2839 0.0970427 10.3709 0.0307696 10.5447C-0.0355034 10.7131 0.00527999 10.9087 0.15312 11.1314L1.86602 13.7227C1.99347 13.9129 2.13876 14.0052 2.3019 13.9998C2.46503 13.9998 2.60777 13.9074 2.73012 13.7227L4.44302 11.1233C4.59086 10.9005 4.6291 10.705 4.55773 10.5366C4.49146 10.3681 4.32322 10.2839 4.05303 10.2839H0.543111ZM10.9582 3.7242H14.4605C14.7306 3.7242 14.8989 3.64 14.9651 3.47159C15.0365 3.29775 14.9983 3.09947 14.8504 2.87673L13.1452 0.277284C13.0228 0.0925788 12.8775 0.000226354 12.7093 0.000226354C12.5462 -0.00520614 12.4034 0.0871463 12.2811 0.277284L10.5682 2.86859C10.4152 3.09675 10.3719 3.29775 10.4382 3.47159C10.5096 3.64 10.6829 3.7242 10.9582 3.7242Z"
		fill="currentColor"
	/>
</svg>
