<svg
	color="rgb(var(--foreground, 0, 0, 0))"
	viewBox="0 0 12 16"
	fill="none"
	xmlns="http://www.w3.org/2000/svg"
>
	<path
		d="M6 0.5C5.7942 0.5 5.62533 0.566173 5.4934 0.698518C5.36148 0.825569 5.29551 0.992324 5.29551 1.19878V11.6567L5.37467 14.023L5.81794 13.8642L2.98417 10.7435L1.17942 8.9648C1.11609 8.90127 1.03958 8.85363 0.949868 8.82186C0.865435 8.7901 0.775726 8.77422 0.680739 8.77422C0.485488 8.77422 0.3219 8.84039 0.189974 8.97274C0.0633245 9.10508 0 9.26919 0 9.46506C0 9.65564 0.0738786 9.82769 0.221636 9.98121L5.46966 15.2618C5.54881 15.3412 5.63325 15.3994 5.72296 15.4365C5.81266 15.4788 5.90501 15.5 6 15.5C6.10026 15.5 6.19525 15.4788 6.28496 15.4365C6.37467 15.3994 6.45646 15.3412 6.53034 15.2618L11.7863 9.98121C11.9288 9.82769 12 9.65564 12 9.46506C12 9.26919 11.934 9.10508 11.8021 8.97274C11.6755 8.84039 11.5145 8.77422 11.3193 8.77422C11.2243 8.77422 11.1319 8.7901 11.0422 8.82186C10.9578 8.85363 10.8839 8.90127 10.8206 8.9648L9.01583 10.7435L6.17414 13.8642L6.62533 14.023L6.70449 11.6567V1.19878C6.70449 0.992324 6.63852 0.825569 6.5066 0.698518C6.37467 0.566173 6.20581 0.5 6 0.5Z"
		fill="currentColor"
	/>
</svg>
