<svg
	color="rgb(var(--foreground, 0, 0, 0))"
	viewBox="0 0 9 14"
	fill="none"
	xmlns="http://www.w3.org/2000/svg"
>
	<path
		d="M0.6369 14C0.83909 14 1.0337 13.9277 1.22072 13.783L1.615 13.4792C1.87784 13.2767 2.16091 13.0221 2.4642 12.7155C2.76748 12.403 3.06066 12.0761 3.34372 11.7347C3.62679 11.3875 3.87195 11.0548 4.07919 10.7366C4.28644 10.4125 4.42291 10.1348 4.48863 9.90336H4.51137C4.57709 10.1348 4.71104 10.4096 4.91323 10.7279C5.12047 11.0461 5.36563 11.3788 5.64869 11.726C5.93176 12.0732 6.22494 12.403 6.52822 12.7155C6.83151 13.0221 7.1171 13.2767 7.385 13.4792L7.77928 13.783C7.9663 13.9277 8.15838 14 8.35552 14C8.5476 14 8.70177 13.9335 8.81803 13.8004C8.93934 13.6615 9 13.485 9 13.2709C9 12.9816 8.89132 12.7589 8.67397 12.6026L8.07498 12.16C7.81213 11.9575 7.5139 11.6884 7.18029 11.3528C6.84667 11.0172 6.5257 10.6295 6.21735 10.1898C5.91407 9.75002 5.66133 9.27844 5.45914 8.77504C5.26201 8.27164 5.16344 7.75378 5.16344 7.22144V2.79498H3.83656V7.22144C3.83656 7.75378 3.73547 8.27164 3.53328 8.77504C3.33614 9.27844 3.0834 9.75002 2.77506 10.1898C2.46672 10.6237 2.14575 11.0114 1.81213 11.3528C1.48357 11.6884 1.18787 11.9575 0.925021 12.16L0.326032 12.6026C0.108677 12.7589 0 12.9845 0 13.2796C0 13.4763 0.0581297 13.647 0.174389 13.7917C0.290649 13.9306 0.444819 14 0.6369 14ZM2.7599 3.96669H6.2401C6.508 3.96669 6.67481 3.87701 6.74052 3.69764C6.81129 3.51248 6.77085 3.30128 6.61921 3.06404L4.92839 0.295338C4.80708 0.0986068 4.66554 0.000241092 4.50379 0.000241092C4.34204 -0.00554513 4.19798 0.0928206 4.07161 0.295338L2.37321 3.05536C2.22662 3.29839 2.18618 3.51248 2.2519 3.69764C2.31761 3.87701 2.48694 3.96669 2.7599 3.96669Z"
		fill="currentColor"
	/>
</svg>
