<svg
	color="rgb(var(--foreground, 0, 0, 0))"
	viewBox="0 0 19 16"
	fill="none"
	xmlns="http://www.w3.org/2000/svg"
>
	<path
		d="M0.155574 8.02353C0.00536461 8.23791 -0.0360724 8.42876 0.0312628 8.59608C0.0985979 8.75817 0.272115 8.83922 0.551815 8.83922H1.624C1.73277 9.83791 2.00988 10.7712 2.45533 11.6392C2.90596 12.5072 3.48866 13.268 4.20345 13.9216C4.91824 14.5752 5.72626 15.085 6.62752 15.451C7.52877 15.817 8.487 16 9.50221 16C10.6883 16 11.7968 15.7464 12.8275 15.2392C13.8635 14.7373 14.7466 14.0627 15.4769 13.2157C15.6219 13.0484 15.6867 12.8706 15.6711 12.6824C15.6556 12.4941 15.5727 12.3451 15.4225 12.2353C15.2723 12.1255 15.1117 12.0863 14.9408 12.1176C14.7699 12.149 14.6223 12.2379 14.498 12.3843C13.8971 13.085 13.1642 13.6392 12.2992 14.0471C11.4394 14.4601 10.5071 14.6667 9.50221 14.6667C8.65793 14.6667 7.86027 14.5203 7.10922 14.2275C6.36336 13.9346 5.69778 13.5242 5.11248 12.9961C4.52718 12.4627 4.04547 11.8431 3.66736 11.1373C3.29443 10.4314 3.05876 9.66536 2.96034 8.83922H4.11799C4.39251 8.83922 4.56344 8.75817 4.63077 8.59608C4.70329 8.43399 4.66444 8.24575 4.51423 8.03137L2.77388 5.52941C2.64956 5.35163 2.50453 5.26274 2.33879 5.26274C2.17304 5.25752 2.02542 5.34641 1.89593 5.52941L0.155574 8.02353ZM3.53528 2.78431C3.38507 2.95163 3.31774 3.12941 3.33328 3.31765C3.34881 3.50065 3.43428 3.64706 3.58967 3.75686C3.73988 3.86667 3.90044 3.9085 4.07137 3.88235C4.2423 3.85098 4.38992 3.76209 4.51423 3.61569C5.12025 2.91503 5.85316 2.36078 6.71298 1.95294C7.57798 1.53987 8.50772 1.33333 9.50221 1.33333C10.3465 1.33333 11.1416 1.48235 11.8874 1.78039C12.6385 2.0732 13.3066 2.48627 13.8919 3.01961C14.4772 3.54771 14.9564 4.16471 15.3293 4.87059C15.7022 5.57647 15.9405 6.34248 16.0441 7.16863H14.8864C14.6119 7.16863 14.4384 7.24967 14.3659 7.41176C14.2985 7.57386 14.34 7.76209 14.4902 7.97647L16.2305 10.4784C16.3549 10.6562 16.4999 10.7477 16.6656 10.7529C16.8314 10.7529 16.979 10.6614 17.1085 10.4784L18.8411 7.98431C18.9965 7.76471 19.0379 7.57386 18.9654 7.41176C18.8981 7.24967 18.7245 7.16863 18.4448 7.16863H17.3804C17.2717 6.16993 16.992 5.2366 16.5413 4.36863C16.0959 3.50065 15.5158 2.73987 14.801 2.08627C14.0862 1.43268 13.2756 0.922876 12.3691 0.556863C11.4679 0.185621 10.5122 0 9.50221 0C8.32126 0 7.21282 0.253595 6.17689 0.760784C5.14614 1.26275 4.26561 1.93725 3.53528 2.78431ZM9.50221 9.41177C9.89068 9.41177 10.0875 9.20523 10.0927 8.79216L10.2092 4.65098C10.2144 4.45229 10.1471 4.28758 10.0072 4.15686C9.87255 4.02092 9.70163 3.95294 9.49444 3.95294C9.28208 3.95294 9.10856 4.0183 8.97389 4.14902C8.8444 4.27974 8.78224 4.44444 8.78742 4.64314L8.88843 8.79216C8.89878 9.20523 9.10338 9.41177 9.50221 9.41177ZM9.50221 11.9608C9.72494 11.9608 9.91917 11.8824 10.0849 11.7255C10.2558 11.5686 10.3413 11.3752 10.3413 11.1451C10.3413 10.915 10.2584 10.7216 10.0927 10.5647C9.92694 10.4078 9.73011 10.3294 9.50221 10.3294C9.27431 10.3294 9.07748 10.4105 8.91173 10.5725C8.74599 10.7294 8.66311 10.9203 8.66311 11.1451C8.66311 11.3699 8.74599 11.5634 8.91173 11.7255C9.07748 11.8824 9.27431 11.9608 9.50221 11.9608Z"
		fill="currentColor"
	/>
</svg>
