<svg
	color="rgb(var(--foreground, 0, 0, 0))"
	viewBox="0 0 12 16"
	fill="none"
	xmlns="http://www.w3.org/2000/svg"
>
	<path
		d="M6 15.5C6.20581 15.5 6.37467 15.4338 6.5066 15.3015C6.63852 15.1744 6.70449 15.0077 6.70449 14.8012V4.3433L6.62533 1.97697L6.17414 2.13579L9.01583 5.25648L10.8206 7.0352C10.8839 7.09873 10.9578 7.14637 11.0422 7.17814C11.1319 7.2099 11.2243 7.22578 11.3193 7.22578C11.5145 7.22578 11.6755 7.15961 11.8021 7.02726C11.934 6.89492 12 6.73081 12 6.53494C12 6.34436 11.9288 6.17231 11.7863 6.01879L6.53034 0.738221C6.45646 0.658814 6.37467 0.600582 6.28496 0.563526C6.19525 0.521175 6.10026 0.5 6 0.5C5.90501 0.5 5.81266 0.521175 5.72296 0.563526C5.63325 0.600582 5.54881 0.658814 5.46966 0.738221L0.221636 6.01879C0.0738786 6.17231 0 6.34436 0 6.53494C0 6.73081 0.0633245 6.89492 0.189974 7.02726C0.3219 7.15961 0.485488 7.22578 0.680739 7.22578C0.775726 7.22578 0.865435 7.2099 0.949868 7.17814C1.03958 7.14637 1.11609 7.09873 1.17942 7.0352L2.98417 5.25648L5.81794 2.13579L5.37467 1.97697L5.29551 4.3433V14.8012C5.29551 15.0077 5.36148 15.1744 5.4934 15.3015C5.62533 15.4338 5.7942 15.5 6 15.5Z"
		fill="currentColor"
	/>
</svg>
