<svg
	color="rgb(var(--foreground, 0, 0, 0))"
	viewBox="0 0 15 16"
	fill="none"
	xmlns="http://www.w3.org/2000/svg"
>
	<path
		d="M15 10.3714C15 9.3478 14.7778 8.44748 14.3333 7.67042C13.8942 6.888 13.2513 6.27706 12.4048 5.83762C11.5582 5.39818 10.5317 5.17846 9.3254 5.17846H3.99206L1.53175 5.291L1.6746 5.66077L3.63492 3.96463L5.92857 1.69775C5.98677 1.63344 6.03175 1.56109 6.06349 1.48071C6.10053 1.40032 6.11905 1.30922 6.11905 1.2074C6.11905 0.998392 6.05291 0.829582 5.92064 0.700965C5.79365 0.566988 5.62434 0.5 5.4127 0.5C5.21693 0.5 5.04762 0.575027 4.90476 0.72508L0.238095 5.36334C0.15873 5.43837 0.0978836 5.52144 0.0555556 5.61254C0.0185185 5.70364 0 5.80011 0 5.90193C0 5.99839 0.0185185 6.09218 0.0555556 6.18328C0.0978836 6.27438 0.15873 6.35745 0.238095 6.43248L4.90476 11.0707C5.04762 11.2208 5.21693 11.2958 5.4127 11.2958C5.62434 11.2958 5.79365 11.2315 5.92064 11.1029C6.05291 10.9689 6.11905 10.7974 6.11905 10.5884C6.11905 10.4866 6.10053 10.3955 6.06349 10.3151C6.03175 10.2347 5.98677 10.1624 5.92857 10.0981L3.63492 7.83923L1.6746 6.13505L1.53175 6.50482L3.99206 6.61736H9.44444C10.3492 6.61736 11.1085 6.77278 11.7222 7.0836C12.336 7.39443 12.7989 7.82851 13.1111 8.38585C13.4233 8.93783 13.5794 9.57288 13.5794 10.291C13.5794 11.0145 13.4233 11.6602 13.1111 12.2283C12.7989 12.7964 12.336 13.2438 11.7222 13.5707C11.1085 13.903 10.3492 14.0691 9.44444 14.0691H7.61905C7.40212 14.0691 7.22751 14.1388 7.09524 14.2781C6.96296 14.4175 6.89683 14.5863 6.89683 14.7846C6.89683 14.9829 6.96296 15.1517 7.09524 15.291C7.22751 15.4303 7.40212 15.5 7.61905 15.5H9.45238C10.6376 15.5 11.6429 15.2856 12.4683 14.8569C13.2937 14.4335 13.9206 13.836 14.3492 13.0643C14.7831 12.298 15 11.4003 15 10.3714Z"
		fill="currentColor"
	/>
</svg>
