<svg
	color="rgb(var(--foreground, 0, 0, 0))"
	viewBox="0 0 16 16"
	fill="none"
	xmlns="http://www.w3.org/2000/svg"
>
	<path
		d="M4.33859 10.0035C4.49673 9.96935 4.61661 9.88647 4.69823 9.75485C4.77985 9.62323 4.7977 9.48185 4.75179 9.33072L4.10904 6.89567C4.03762 6.64704 3.91264 6.47398 3.7341 6.37648C3.63718 6.31798 3.53515 6.2863 3.42802 6.28142C3.326 6.27655 3.20867 6.29117 3.07604 6.3253L0.558584 7.00536C0.390244 7.04923 0.267814 7.13698 0.191296 7.26861C0.114778 7.40023 0.0994739 7.53917 0.145385 7.68542C0.186195 7.84142 0.275466 7.95842 0.413199 8.03642C0.556034 8.10954 0.70652 8.12173 0.864658 8.07298L3.09134 7.44411L3.62697 9.60129C3.66268 9.76216 3.7494 9.87916 3.88714 9.95229C4.02997 10.0254 4.18046 10.0425 4.33859 10.0035ZM2.11191 14.0912H6.21329C6.39184 14.0912 6.53977 14.0375 6.6571 13.9303C6.77953 13.823 6.84075 13.6865 6.84075 13.5208C6.84075 13.355 6.77953 13.2161 6.6571 13.104C6.53977 12.9967 6.39184 12.9431 6.21329 12.9431H2.11956C1.8543 12.9431 1.64004 12.8553 1.47681 12.6798C1.31867 12.5043 1.2396 12.302 1.2396 12.0729C1.2396 12.0047 1.24725 11.934 1.26255 11.8608C1.27786 11.7828 1.30591 11.7097 1.34672 11.6415L4.00191 7.10042L2.96126 6.51542L0.283118 11.0784C0.191296 11.2393 0.119879 11.405 0.0688666 11.5757C0.0229555 11.7414 0 11.9072 0 12.0729C0 12.4483 0.0841703 12.7895 0.252511 13.0967C0.425952 13.4038 0.670811 13.6451 0.987088 13.8206C1.30336 14.001 1.6783 14.0912 2.11191 14.0912ZM11.5543 6.33992L12.5949 5.76223L9.81731 1.01643C9.62347 0.680061 9.36075 0.426561 9.02917 0.255937C8.70269 0.0853123 8.36091 0 8.00383 0C7.64674 0 7.30241 0.0877498 6.97083 0.263249C6.64435 0.433874 6.38164 0.684936 6.18269 1.01643L4.07078 4.62149C3.97386 4.78724 3.9458 4.94324 3.98661 5.08949C4.03252 5.23574 4.12944 5.3503 4.27738 5.43317C4.43042 5.51605 4.586 5.53555 4.74414 5.49167C4.90738 5.44292 5.03236 5.34542 5.11908 5.19917L7.23099 1.5795C7.31771 1.43325 7.42994 1.32843 7.56767 1.26506C7.7054 1.19681 7.85079 1.16268 8.00383 1.16268C8.15176 1.16268 8.29204 1.19681 8.42468 1.26506C8.56241 1.32843 8.67464 1.43325 8.76136 1.5795L11.5543 6.33992ZM11.6614 6.51542C11.794 6.54954 11.9114 6.56417 12.0134 6.5593C12.1154 6.55442 12.2174 6.52273 12.3195 6.46423C12.498 6.35698 12.623 6.18392 12.6944 5.94505L13.3295 3.50999C13.3754 3.35887 13.3576 3.21749 13.2759 3.08587C13.1994 2.95424 13.0821 2.87137 12.924 2.83724C12.7658 2.79824 12.6153 2.8153 12.4725 2.88843C12.3348 2.96155 12.248 3.07855 12.2123 3.23943L11.6767 5.39661L9.44237 4.76774C9.28423 4.72386 9.1363 4.74092 8.99857 4.81892C8.86083 4.89205 8.76901 5.00417 8.7231 5.1553C8.68229 5.30155 8.70014 5.44049 8.77666 5.57211C8.85318 5.70373 8.97306 5.79148 9.1363 5.83536L11.6614 6.51542ZM8.47059 14.0912H13.8881C14.3217 14.0912 14.6966 14.001 15.0129 13.8206C15.3292 13.6451 15.5715 13.4038 15.7398 13.0967C15.9133 12.7895 16 12.4483 16 12.0729C16 11.9072 15.977 11.7414 15.9311 11.5757C15.8852 11.4099 15.8138 11.2442 15.7169 11.0784L13.6891 7.6196C13.6024 7.4636 13.48 7.36854 13.3219 7.33442C13.1637 7.29542 13.0107 7.31736 12.8627 7.40023C12.7148 7.48311 12.6179 7.60254 12.572 7.75854C12.5261 7.90967 12.5465 8.05835 12.6332 8.2046L14.6456 11.6415C14.6864 11.7097 14.717 11.7828 14.7374 11.8608C14.7579 11.934 14.7681 12.0047 14.7681 12.0729C14.7681 12.302 14.6839 12.5043 14.5155 12.6798C14.3523 12.8553 14.1381 12.9431 13.8728 12.9431H8.47059V14.0912ZM10.1234 15.8315C10.2407 15.9485 10.3784 16.0046 10.5366 15.9997C10.6947 15.9997 10.8299 15.9436 10.9421 15.8315C11.0595 15.7243 11.1181 15.5926 11.1181 15.4366C11.1181 15.2855 11.0569 15.1539 10.9345 15.0418L9.25108 13.5208L10.9345 11.9998C11.0569 11.8877 11.1181 11.756 11.1181 11.6049C11.1181 11.4489 11.0595 11.3173 10.9421 11.21C10.8299 11.0979 10.6947 11.0418 10.5366 11.0418C10.3784 11.037 10.2407 11.093 10.1234 11.21L8.24103 12.9504C8.05739 13.1259 7.96557 13.316 7.96557 13.5208C7.96557 13.7255 8.05739 13.9132 8.24103 14.0838L10.1234 15.8315Z"
		fill="currentColor"
	/>
</svg>
