<svg
	color="rgb(var(--foreground, 0, 0, 0))"
	viewBox="0 0 8 14"
	fill="none"
	xmlns="http://www.w3.org/2000/svg"
>
	<path
		d="M2.23174 14C2.43932 14 2.59749 13.942 2.70622 13.8261C2.8199 13.715 2.87674 13.5556 2.87674 13.3478V7.74647H2.32812C2.48134 8.18124 2.70375 8.5967 2.99536 8.99283C3.28697 9.38412 3.63542 9.74885 4.04071 10.087C4.45094 10.4203 4.9106 10.7223 5.41968 10.9928C5.92876 11.2633 6.47739 11.4952 7.06555 11.6884C7.27314 11.7657 7.45601 11.7657 7.61417 11.6884C7.77728 11.6063 7.88848 11.4928 7.94779 11.3479C8.01205 11.2078 8.01699 11.058 7.96262 10.8986C7.90825 10.7392 7.77481 10.6136 7.56228 10.5218C6.87526 10.2464 6.24509 9.93243 5.67175 9.57977C5.09842 9.22229 4.60169 8.82133 4.18157 8.37689C3.7664 7.92762 3.44513 7.43005 3.21778 6.88416C2.99042 6.33827 2.87674 5.73683 2.87674 5.07984V2.37698H1.57932V13.3478C1.57932 13.5556 1.63369 13.715 1.74242 13.8261C1.8561 13.942 2.01921 14 2.23174 14ZM0.526558 3.31175H3.9295C4.19146 3.31175 4.35456 3.23687 4.41881 3.08711C4.48801 2.93253 4.45094 2.7562 4.30761 2.55814L2.64691 0.246575C2.52829 0.0823257 2.3899 0.000201285 2.23174 0.000201285C2.07358 -0.00462956 1.93271 0.0774949 1.80915 0.246575L0.148453 2.55089C0.00511906 2.75378 -0.0344213 2.93253 0.0298318 3.08711C0.0940849 3.23687 0.25966 3.31175 0.526558 3.31175Z"
		fill="currentColor"
	/>
</svg>
