<svg
	color="rgb(var(--foreground, 0, 0, 0))"
	viewBox="0 0 18 16"
	fill="none"
	xmlns="http://www.w3.org/2000/svg"
>
	<path
		d="M4.1 0.73973L0.215385 4.85082C0.0717949 5.00515 0 5.18077 0 5.37768C0 5.59055 0.0615385 5.76351 0.184615 5.89655C0.31282 6.02428 0.476923 6.08814 0.676923 6.08814C0.866667 6.08814 1.02821 6.01896 1.16154 5.88059L2.76154 4.16431L4 2.67953L3.92308 4.52353V14.7813C3.92308 14.9888 3.98718 15.1591 4.11538 15.2922C4.24359 15.4306 4.41026 15.4997 4.61538 15.4997C4.81538 15.4997 4.97949 15.4306 5.10769 15.2922C5.2359 15.1591 5.3 14.9888 5.3 14.7813V4.52353L5.23077 2.67953L6.46154 4.16431L8.06923 5.88059C8.19744 6.01896 8.35641 6.08814 8.54615 6.08814C8.74615 6.08814 8.90769 6.02428 9.03077 5.89655C9.15897 5.76351 9.22308 5.59055 9.22308 5.37768C9.22308 5.18077 9.15128 5.00515 9.00769 4.85082L5.13077 0.73973C4.98718 0.580076 4.81538 0.500249 4.61538 0.500249C4.41538 0.494928 4.24359 0.574755 4.1 0.73973ZM13.9077 15.2682L17.7846 11.1412C17.9282 10.9922 18 10.8166 18 10.6143C18 10.4015 17.9359 10.2312 17.8077 10.1034C17.6846 9.97571 17.5231 9.91185 17.3231 9.91185C17.1333 9.91185 16.9744 9.97837 16.8462 10.1114L15.2462 11.8277L14.0077 13.3205L14.0769 11.4765V1.21869C14.0769 1.01114 14.0128 0.840845 13.8846 0.7078C13.7564 0.569433 13.5923 0.500249 13.3923 0.500249C13.1923 0.500249 13.0256 0.569433 12.8923 0.7078C12.7641 0.840845 12.7 1.01114 12.7 1.21869V11.4765L12.7769 13.3205L11.5385 11.8277L9.93846 10.1114C9.80513 9.97837 9.64615 9.91185 9.46154 9.91185C9.26154 9.91185 9.09744 9.97571 8.96923 10.1034C8.84103 10.2312 8.77692 10.4015 8.77692 10.6143C8.77692 10.8166 8.85128 10.9922 9 11.1412L12.8769 15.2682C13.0205 15.4226 13.1897 15.4997 13.3846 15.4997C13.5846 15.5051 13.759 15.4279 13.9077 15.2682Z"
		fill="currentColor"
	/>
</svg>
