<svg
	color="rgb(var(--foreground, 0, 0, 0))"
	viewBox="0 0 10 16"
	fill="none"
	xmlns="http://www.w3.org/2000/svg"
>
	<path
		d="M5.00405 16C5.10121 16 5.19568 15.981 5.28745 15.9431C5.37922 15.9052 5.46559 15.8456 5.54656 15.7643L9.78138 11.4251C9.92713 11.2734 10 11.0973 10 10.8969C10 10.6802 9.93252 10.5069 9.79757 10.3768C9.66802 10.2414 9.49798 10.1737 9.28745 10.1737C9.18489 10.1737 9.09312 10.1927 9.01215 10.2306C8.93117 10.2631 8.8583 10.3118 8.79352 10.3768L6.95547 12.2783L5.64372 13.7979L5.7247 11.9126V4.08735L5.64372 2.20213L6.95547 3.72169L8.79352 5.62316C8.8583 5.68817 8.93117 5.73963 9.01215 5.77755C9.09312 5.81006 9.18489 5.82631 9.28745 5.82631C9.49798 5.82631 9.66802 5.7613 9.79757 5.63128C9.93252 5.49585 10 5.31979 10 5.1031C10 4.90266 9.92713 4.7266 9.78138 4.57491L5.54656 0.235653C5.46559 0.154393 5.37922 0.0948028 5.28745 0.0568817C5.19568 0.0189606 5.10121 0 5.00405 0C4.90148 0 4.80432 0.0189606 4.71255 0.0568817C4.62078 0.0948028 4.53711 0.154393 4.46154 0.235653L0.226721 4.57491C0.0755736 4.7266 0 4.90266 0 5.1031C0 5.31979 0.0647773 5.49585 0.194332 5.63128C0.329285 5.7613 0.502024 5.82631 0.712551 5.82631C0.815115 5.82631 0.906883 5.81006 0.987854 5.77755C1.06883 5.73963 1.1417 5.68817 1.20648 5.62316L3.05263 3.72169L4.35628 2.20213L4.2834 4.08735V11.9126L4.35628 13.7979L3.05263 12.2783L1.20648 10.3768C1.1417 10.3118 1.06883 10.2631 0.987854 10.2306C0.906883 10.1927 0.815115 10.1737 0.712551 10.1737C0.502024 10.1737 0.329285 10.2414 0.194332 10.3768C0.0647773 10.5069 0 10.6802 0 10.8969C0 11.0973 0.0755736 11.2734 0.226721 11.4251L4.46154 15.7643C4.53711 15.8456 4.62078 15.9052 4.71255 15.9431C4.80432 15.981 4.90148 16 5.00405 16Z"
		fill="currentColor"
	/>
</svg>
