<svg
	color="rgb(var(--foreground, 0, 0, 0))"
	viewBox="0 0 14 14"
	fill="none"
	xmlns="http://www.w3.org/2000/svg"
>
	<path
		d="M7.00069 14C7.44102 14 7.66119 13.7232 7.66119 13.1696V8.67308C7.66119 8.20305 7.77254 7.69647 7.99523 7.15334C8.22299 6.60498 8.52414 6.05923 8.89868 5.51609C9.27827 4.96773 9.69836 4.46115 10.1589 3.99635C10.6195 3.53155 11.0826 3.14509 11.5483 2.83696L12.1556 2.42961C12.3733 2.2886 12.4821 2.08493 12.4821 1.81858C12.4821 1.63057 12.4213 1.47651 12.2999 1.35639C12.1835 1.23105 12.0291 1.16838 11.8368 1.16838C11.6394 1.16838 11.447 1.23366 11.2598 1.36423L10.8574 1.63841C10.3968 1.95698 9.94889 2.33299 9.51362 2.76646C9.07835 3.1947 8.68357 3.64122 8.32928 4.10602C7.97499 4.5656 7.68143 5.00951 7.44861 5.43775C7.2158 5.86077 7.06902 6.22374 7.00828 6.52664H6.98551C6.92477 6.22374 6.77799 5.86077 6.54517 5.43775C6.31742 5.00951 6.02386 4.56299 5.66451 4.09819C5.31022 3.63339 4.91544 3.18687 4.48017 2.75863C4.04996 2.33038 3.60456 1.95698 3.14398 1.63841L2.74161 1.36423C2.54928 1.23366 2.35442 1.16838 2.15703 1.16838C1.9647 1.16838 1.81033 1.23366 1.69392 1.36423C1.57751 1.48957 1.51931 1.63841 1.51931 1.81075C1.51931 2.08232 1.62813 2.2886 1.84576 2.42961L2.45312 2.83696C2.91876 3.14509 3.37933 3.53155 3.83485 3.99635C4.29543 4.46115 4.71299 4.96773 5.08752 5.51609C5.46712 6.05923 5.7708 6.60498 5.99855 7.15334C6.22631 7.69647 6.34019 8.20305 6.34019 8.67308V13.1696C6.34019 13.7232 6.56036 14 7.00069 14ZM1.77743 3.79268L3.90318 0.949039C4.06514 0.729695 4.1031 0.541686 4.01706 0.385012C3.93608 0.228338 3.76905 0.144779 3.51599 0.134334L0.562724 0.00116055C0.35015 -0.0092844 0.193249 0.050774 0.0920235 0.181336C-0.00920235 0.311898 -0.0269169 0.484239 0.0388799 0.698361L0.911953 3.60467C0.987873 3.86057 1.10934 4.01202 1.27637 4.05902C1.44339 4.10602 1.61041 4.01724 1.77743 3.79268ZM12.1328 3.78484C12.2897 4.01463 12.4517 4.10864 12.6187 4.06686C12.7908 4.02508 12.9173 3.87885 12.9983 3.62817L13.9549 0.745363C14.0258 0.531242 14.0131 0.3589 13.9169 0.228338C13.8208 0.0925538 13.6664 0.0272729 13.4538 0.0324954L10.493 0.0794977C10.2399 0.0847201 10.0678 0.163057 9.97673 0.314509C9.89069 0.465961 9.92612 0.65397 10.083 0.878536L12.1328 3.78484Z"
		fill="currentColor"
	/>
</svg>
