<svg
	color="rgb(var(--foreground, 0, 0, 0))"
	viewBox="0 0 15 18"
	fill="none"
	xmlns="http://www.w3.org/2000/svg"
>
	<path
		d="M0.233278 4.05419C0.0777592 4.20152 0 4.37426 0 4.5724C0 4.76545 0.0777592 4.93311 0.233278 5.07536L4.23788 8.91617C4.38821 9.06351 4.55928 9.13717 4.75109 9.13717C4.95845 9.13717 5.12433 9.07367 5.24875 8.94666C5.37834 8.81964 5.44314 8.65707 5.44314 8.45893C5.44314 8.27604 5.37575 8.11854 5.24097 7.98645L3.56915 6.40135L2.12283 5.17443L3.91906 5.25063H14.3077C14.5099 5.25063 14.6758 5.18713 14.8054 5.06012C14.9349 4.92803 14.9997 4.76291 14.9997 4.56478C14.9997 4.36664 14.9349 4.20406 14.8054 4.07705C14.6758 3.95004 14.5099 3.88654 14.3077 3.88654H3.91906L2.12283 3.95512L3.56915 2.73582L5.24097 1.1431C5.37575 1.01609 5.44314 0.858594 5.44314 0.670618C5.44314 0.472481 5.37834 0.312447 5.24875 0.190517C5.12433 0.0635055 4.95845 0 4.75109 0C4.55928 0 4.38821 0.0711262 4.23788 0.213379L0.233278 4.05419ZM14.7742 13.9458C14.9298 13.7985 15.0049 13.6257 14.9997 13.4276C14.9997 13.2295 14.9246 13.0593 14.7742 12.917L10.7696 9.07621C10.6193 8.93395 10.4457 8.86283 10.2487 8.86283C10.0465 8.86283 9.8806 8.92633 9.751 9.05334C9.62659 9.17527 9.56438 9.33531 9.56438 9.53345C9.56438 9.72142 9.62918 9.87892 9.75878 10.0059L11.4384 11.5986L12.8847 12.8256L11.0885 12.7494H0.699833C0.497659 12.7494 0.329181 12.8129 0.194398 12.9399C0.0647993 13.0669 0 13.2295 0 13.4276C0 13.6308 0.0647993 13.7959 0.194398 13.9229C0.329181 14.05 0.497659 14.1135 0.699833 14.1135H11.0885L12.8847 14.0373L11.4384 15.2642L9.75878 16.8493C9.62918 16.9814 9.56438 17.1414 9.56438 17.3294C9.56438 17.5275 9.62659 17.6876 9.751 17.8095C9.8806 17.9365 10.0465 18 10.2487 18C10.4457 18 10.6193 17.9289 10.7696 17.7866L14.7742 13.9458Z"
		fill="currentColor"
	/>
</svg>
