<svg
	color="rgb(var(--foreground, 0, 0, 0))"
	viewBox="0 0 14 16"
	fill="none"
	xmlns="http://www.w3.org/2000/svg"
>
	<path
		d="M7.00786 16C7.25926 16 7.45567 15.9251 7.59708 15.7752C7.74373 15.6305 7.81706 15.4264 7.81706 15.1628C7.81706 15.1163 7.81444 15.0672 7.8092 15.0155C7.8092 14.9638 7.8092 14.9147 7.8092 14.8682L7.69921 9.18605L12.6016 12.093C12.7849 12.2015 12.9787 12.2558 13.1829 12.2558C13.4186 12.2558 13.6124 12.1783 13.7643 12.0233C13.9214 11.8682 14 11.6718 14 11.4341C14 11.2532 13.9581 11.1059 13.8743 10.9922C13.7957 10.8734 13.6596 10.7623 13.4658 10.6589L8.33558 8L13.4658 5.33333C13.6648 5.23514 13.8036 5.1292 13.8822 5.0155C13.9607 4.89664 14 4.74677 14 4.56589C14 4.32817 13.9241 4.13178 13.7722 3.97674C13.6203 3.82171 13.4239 3.74419 13.1829 3.74419C12.9787 3.74419 12.7849 3.79845 12.6016 3.90698L7.69921 6.81395L7.8092 1.13178C7.8092 1.0801 7.8092 1.03101 7.8092 0.984496C7.81444 0.932817 7.81706 0.881137 7.81706 0.829457C7.81706 0.565892 7.74373 0.361757 7.59708 0.217054C7.45567 0.0723514 7.25926 0 7.00786 0C6.75122 0 6.54957 0.0723514 6.40292 0.217054C6.2615 0.361757 6.1908 0.565892 6.1908 0.829457C6.1908 0.881137 6.1908 0.932817 6.1908 0.984496C6.19603 1.03101 6.19865 1.0801 6.19865 1.13178L6.30864 6.81395L1.39843 3.90698C1.21511 3.79845 1.01871 3.74419 0.809203 3.74419C0.573513 3.74419 0.379723 3.82171 0.227834 3.97674C0.0759446 4.13178 0 4.32817 0 4.56589C0 4.74677 0.0392817 4.89664 0.117845 5.0155C0.201646 5.1292 0.34306 5.23514 0.542088 5.33333L5.67228 8L0.542088 10.6589C0.34306 10.7623 0.201646 10.8734 0.117845 10.9922C0.0392817 11.1059 0 11.2532 0 11.4341C0 11.6718 0.0759446 11.8682 0.227834 12.0233C0.379723 12.1783 0.573513 12.2558 0.809203 12.2558C1.01871 12.2558 1.21511 12.2015 1.39843 12.093L6.30864 9.18605L6.19865 14.8682C6.19865 14.9147 6.19603 14.9638 6.1908 15.0155C6.1908 15.0672 6.1908 15.1163 6.1908 15.1628C6.1908 15.4264 6.2615 15.6305 6.40292 15.7752C6.54957 15.9251 6.75122 16 7.00786 16Z"
		fill="currentColor"
	/>
</svg>
