<svg
	color="rgb(var(--foreground, 0, 0, 0))"
	viewBox="0 0 15 16"
	fill="none"
	xmlns="http://www.w3.org/2000/svg"
>
	<path
		d="M1.38533 7.24098H5.65675C6.05182 7.24098 6.35711 7.13577 6.5726 6.92535C6.7881 6.70992 6.89584 6.40932 6.89584 6.02355V1.86022C6.89584 1.66483 6.82914 1.4995 6.69574 1.36423C6.56234 1.22896 6.39302 1.16132 6.18779 1.16132C5.98256 1.16132 5.81324 1.22896 5.67984 1.36423C5.55156 1.49449 5.48743 1.65982 5.48743 1.86022V2.49148L5.64905 5.11423L3.61724 3.03257L1.25449 0.702906C1.12109 0.567635 0.956901 0.5 0.761929 0.5C0.541303 0.5 0.359159 0.56513 0.215495 0.695391C0.0718317 0.825651 0 0.995992 0 1.20641C0 1.30661 0.0179579 1.4018 0.0538738 1.49198C0.0897896 1.57715 0.143663 1.65481 0.215495 1.72495L2.58594 4.03958L4.7178 6.01603L2.03181 5.86573H1.38533C1.18009 5.86573 1.00821 5.93086 0.869677 6.06112C0.731144 6.18637 0.661878 6.3492 0.661878 6.5496C0.661878 6.75 0.731144 6.91533 0.869677 7.04559C1.00821 7.17585 1.18009 7.24098 1.38533 7.24098ZM8.76603 14.8687C8.96614 14.8687 9.13289 14.8011 9.26629 14.6658C9.39969 14.5356 9.46639 14.3702 9.46639 14.1698V13.4559L9.30477 10.8407L11.3366 12.9223L13.7532 15.2971C13.8815 15.4324 14.0457 15.5 14.2458 15.5C14.4613 15.5 14.6408 15.4349 14.7845 15.3046C14.9282 15.1743 15 15.004 15 14.7936C15 14.6934 14.982 14.5982 14.9461 14.508C14.9102 14.4228 14.8589 14.3452 14.7922 14.2751L12.3679 11.9078L10.2283 9.93136L12.922 10.0817H13.6532C13.8584 10.0817 14.0303 10.019 14.1688 9.89379C14.3073 9.76854 14.3766 9.60571 14.3766 9.40531C14.3766 9.1999 14.3073 9.03457 14.1688 8.90932C14.0303 8.77906 13.8584 8.71393 13.6532 8.71393H9.29708C8.902 8.71393 8.59672 8.81914 8.38122 9.02956C8.16573 9.23998 8.05798 9.53808 8.05798 9.92385V14.1698C8.05798 14.3702 8.12468 14.5356 8.25808 14.6658C8.39148 14.8011 8.5608 14.8687 8.76603 14.8687Z"
		fill="currentColor"
	/>
</svg>
