<svg
	color="rgb(var(--foreground, 0, 0, 0))"
	viewBox="0 0 15 16"
	fill="none"
	xmlns="http://www.w3.org/2000/svg"
>
	<path
		d="M0.724029 6.86006C0.933893 6.86006 1.10441 6.79193 1.23557 6.65566C1.37198 6.51415 1.44019 6.33857 1.44019 6.12893V5.46855L1.28279 2.72484L3.35257 4.90252L5.77649 7.33962C5.90766 7.47589 6.07293 7.54402 6.2723 7.54402C6.4979 7.54402 6.68415 7.47851 6.83106 7.34748C6.97796 7.21122 7.05142 7.03302 7.05142 6.81289C7.05142 6.70807 7.03305 6.60849 6.99633 6.51415C6.9596 6.41981 6.90714 6.33857 6.83893 6.27044L4.40714 3.84906L2.22718 1.78145L4.98164 1.93868H5.63484C5.8447 1.93868 6.02046 1.87317 6.16212 1.74214C6.30378 1.60587 6.37461 1.43291 6.37461 1.22327C6.37461 1.01363 6.30378 0.840671 6.16212 0.704403C6.02571 0.568134 5.84995 0.5 5.63484 0.5H1.26705C0.868311 0.5 0.556139 0.612683 0.330535 0.83805C0.110178 1.05818 0 1.3674 0 1.76572V6.12893C0 6.33333 0.0682057 6.50629 0.204617 6.6478C0.341028 6.78931 0.514166 6.86006 0.724029 6.86006ZM9.35729 15.5H13.7251C14.1291 15.5 14.4412 15.3873 14.6616 15.162C14.8872 14.9418 15 14.6326 15 14.2343V9.87107C15 9.66667 14.9292 9.49371 14.7875 9.3522C14.6511 9.21069 14.478 9.13994 14.2681 9.13994C14.0635 9.13994 13.893 9.21069 13.7566 9.3522C13.6201 9.48847 13.5519 9.66143 13.5519 9.87107V10.5314L13.7172 13.2752L11.6396 11.0975L9.2235 8.66038C9.09234 8.52411 8.92445 8.45597 8.71983 8.45597C8.49947 8.45597 8.31322 8.52411 8.16107 8.66038C8.01416 8.7914 7.94071 8.96698 7.94071 9.18711C7.94071 9.29193 7.95908 9.39151 7.9958 9.48585C8.03253 9.58019 8.08762 9.66143 8.16107 9.72956L10.585 12.1509L12.7728 14.2186L10.0184 14.0613H9.35729C9.14743 14.0613 8.97167 14.1268 8.83001 14.2579C8.68835 14.3941 8.61752 14.5671 8.61752 14.7767C8.61752 14.9864 8.68835 15.1593 8.83001 15.2956C8.97167 15.4319 9.14743 15.5 9.35729 15.5Z"
		fill="currentColor"
	/>
</svg>
