<svg
	color="rgb(var(--foreground, 0, 0, 0))"
	viewBox="0 0 24 16"
	fill="none"
	xmlns="http://www.w3.org/2000/svg"
>
	<path
		d="M0 7.85402C0 8.05918 0.0630749 8.22751 0.189225 8.35902C0.320631 8.49053 0.488831 8.55629 0.693824 8.55629H6.07096L7.63995 8.50894L5.03811 11.0181C4.96978 11.0813 4.91984 11.1575 4.8883 11.247C4.85677 11.3364 4.841 11.4285 4.841 11.5231C4.841 11.723 4.9067 11.8887 5.03811 12.0203C5.17477 12.1465 5.34034 12.2096 5.53482 12.2096C5.62943 12.2096 5.72142 12.1912 5.81078 12.1544C5.90013 12.1176 5.98423 12.0597 6.06308 11.9808L9.66623 8.38269C9.73982 8.30379 9.79763 8.21962 9.83968 8.13019C9.88699 8.04077 9.91064 7.94871 9.91064 7.85402C9.91064 7.75408 9.88699 7.65939 9.83968 7.56996C9.79763 7.48054 9.73982 7.39637 9.66623 7.31746L6.06308 3.71936C5.98423 3.64045 5.90013 3.58259 5.81078 3.54577C5.72142 3.50894 5.62943 3.49053 5.53482 3.49053C5.34034 3.49053 5.17477 3.55629 5.03811 3.6878C4.9067 3.81405 4.841 3.97712 4.841 4.17701C4.841 4.26644 4.85677 4.35587 4.8883 4.44529C4.91984 4.53472 4.96978 4.61362 5.03811 4.68201L7.63995 7.19911L6.07096 7.14387H0.693824C0.488831 7.14387 0.320631 7.20963 0.189225 7.34114C0.0630749 7.47265 0 7.64361 0 7.85402ZM12 15.5C12.205 15.5 12.3732 15.4342 12.5046 15.3027C12.636 15.1712 12.7017 15.0029 12.7017 14.7977V1.18648C12.7017 0.986586 12.636 0.823514 12.5046 0.697265C12.3732 0.565755 12.205 0.5 12 0.5C11.795 0.5 11.6242 0.565755 11.4875 0.697265C11.3561 0.823514 11.2904 0.986586 11.2904 1.18648V14.7977C11.2904 15.0029 11.3561 15.1712 11.4875 15.3027C11.6242 15.4342 11.795 15.5 12 15.5ZM24 7.85402C24 7.64361 23.9343 7.47265 23.8029 7.34114C23.6715 7.20963 23.5033 7.14387 23.2983 7.14387H17.929L16.3522 7.19911L18.954 4.68201C19.0223 4.61362 19.0723 4.53472 19.1038 4.44529C19.1353 4.35587 19.1511 4.26644 19.1511 4.17701C19.1511 3.97712 19.0854 3.81405 18.954 3.6878C18.8226 3.55629 18.6597 3.49053 18.4652 3.49053C18.3653 3.49053 18.2707 3.50894 18.1813 3.54577C18.092 3.58259 18.0079 3.64045 17.929 3.71936L14.3259 7.31746C14.2523 7.39637 14.1945 7.48054 14.1524 7.56996C14.1104 7.65939 14.0894 7.75408 14.0894 7.85402C14.0894 7.94871 14.1104 8.04077 14.1524 8.13019C14.1945 8.21962 14.2523 8.30379 14.3259 8.38269L17.929 11.9808C18.0079 12.0597 18.092 12.1176 18.1813 12.1544C18.2707 12.1912 18.3653 12.2096 18.4652 12.2096C18.6597 12.2096 18.8226 12.1465 18.954 12.0203C19.0854 11.8887 19.1511 11.723 19.1511 11.5231C19.1511 11.4285 19.1353 11.3364 19.1038 11.247C19.0723 11.1575 19.0223 11.0813 18.954 11.0181L16.3522 8.50894L17.929 8.55629H23.2983C23.5033 8.55629 23.6715 8.49053 23.8029 8.35902C23.9343 8.22751 24 8.05918 24 7.85402Z"
		fill="currentColor"
	/>
</svg>
