<svg
	color="rgb(var(--foreground, 0, 0, 0))"
	viewBox="0 0 24 16"
	fill="none"
	xmlns="http://www.w3.org/2000/svg"
>
	<path
		d="M9.91064 7.85402C9.91064 7.64361 9.84494 7.47265 9.71354 7.34114C9.58739 7.20963 9.42181 7.14387 9.21682 7.14387H3.83968L2.2707 7.19911L4.87254 4.68201C4.94087 4.61362 4.9908 4.53472 5.02234 4.44529C5.05388 4.35587 5.06965 4.26644 5.06965 4.17701C5.06965 3.97712 5.00131 3.81405 4.86465 3.6878C4.73325 3.55629 4.5703 3.49053 4.37582 3.49053C4.28121 3.49053 4.18922 3.50894 4.09987 3.54577C4.01051 3.58259 3.92641 3.64045 3.84757 3.71936L0.244415 7.31746C0.170828 7.39637 0.110381 7.48054 0.0630749 7.56996C0.021025 7.65939 0 7.75408 0 7.85402C0 7.94871 0.021025 8.04077 0.0630749 8.13019C0.110381 8.21962 0.170828 8.30379 0.244415 8.38269L3.84757 11.9808C3.92641 12.0597 4.01051 12.1176 4.09987 12.1544C4.18922 12.1912 4.28121 12.2096 4.37582 12.2096C4.5703 12.2096 4.73325 12.1465 4.86465 12.0203C5.00131 11.8887 5.06965 11.723 5.06965 11.5231C5.06965 11.4285 5.05388 11.3364 5.02234 11.247C4.9908 11.1575 4.94087 11.0813 4.87254 11.0181L2.2707 8.50894L3.83968 8.55629H9.21682C9.42181 8.55629 9.58739 8.49053 9.71354 8.35902C9.84494 8.22751 9.91064 8.05918 9.91064 7.85402ZM12 15.5C12.205 15.5 12.3732 15.4342 12.5046 15.3027C12.636 15.1712 12.7017 15.0029 12.7017 14.7977V1.18648C12.7017 0.986586 12.636 0.823514 12.5046 0.697265C12.3732 0.565755 12.205 0.5 12 0.5C11.795 0.5 11.6242 0.565755 11.4875 0.697265C11.3561 0.823514 11.2904 0.986586 11.2904 1.18648V14.7977C11.2904 15.0029 11.3561 15.1712 11.4875 15.3027C11.6242 15.4342 11.795 15.5 12 15.5ZM14.0894 7.85402C14.0894 8.05918 14.1524 8.22751 14.2786 8.35902C14.41 8.49053 14.5782 8.55629 14.7832 8.55629H20.1524L21.7293 8.50894L19.1275 11.0181C19.0591 11.0813 19.0092 11.1575 18.9777 11.247C18.9461 11.3364 18.9304 11.4285 18.9304 11.5231C18.9304 11.723 18.9961 11.8887 19.1275 12.0203C19.2589 12.1465 19.4218 12.2096 19.6163 12.2096C19.7162 12.2096 19.8108 12.1912 19.9001 12.1544C19.9895 12.1176 20.0736 12.0597 20.1524 11.9808L23.7556 8.38269C23.8292 8.30379 23.887 8.21962 23.929 8.13019C23.9763 8.04077 24 7.94871 24 7.85402C24 7.75408 23.9763 7.65939 23.929 7.56996C23.887 7.48054 23.8292 7.39637 23.7556 7.31746L20.1524 3.71936C20.0736 3.64045 19.9895 3.58259 19.9001 3.54577C19.8108 3.50894 19.7162 3.49053 19.6163 3.49053C19.4218 3.49053 19.2589 3.55629 19.1275 3.6878C18.9961 3.81405 18.9304 3.97712 18.9304 4.17701C18.9304 4.26644 18.9461 4.35587 18.9777 4.44529C19.0092 4.53472 19.0591 4.61362 19.1275 4.68201L21.7293 7.19911L20.1524 7.14387H14.7832C14.5782 7.14387 14.41 7.20963 14.2786 7.34114C14.1524 7.47265 14.0894 7.64361 14.0894 7.85402Z"
		fill="currentColor"
	/>
</svg>
