<svg
	color="rgb(var(--foreground, 0, 0, 0))"
	viewBox="0 0 14 14"
	fill="none"
	xmlns="http://www.w3.org/2000/svg"
>
	<path
		d="M2.38783 14H11.6122C12.4081 14 13.0038 13.8023 13.3992 13.4068C13.7997 13.0165 14 12.4284 14 11.6426V2.35741C14 1.57161 13.7997 0.983523 13.3992 0.593156C13.0038 0.197719 12.4081 0 11.6122 0H2.38783C1.59189 0 0.993663 0.197719 0.593156 0.593156C0.197719 0.983523 0 1.57161 0 2.35741V11.6426C0 12.4284 0.197719 13.0165 0.593156 13.4068C0.993663 13.8023 1.59189 14 2.38783 14ZM2.40304 12.7757C2.02281 12.7757 1.73131 12.6768 1.52852 12.4791C1.32573 12.2763 1.22433 11.9772 1.22433 11.5817V2.41825C1.22433 2.02281 1.32573 1.72624 1.52852 1.52852C1.73131 1.32573 2.02281 1.22433 2.40304 1.22433H11.597C11.9721 1.22433 12.2611 1.32573 12.4639 1.52852C12.6717 1.72624 12.7757 2.02281 12.7757 2.41825V11.5817C12.7757 11.9772 12.6717 12.2763 12.4639 12.4791C12.2611 12.6768 11.9721 12.7757 11.597 12.7757H2.40304ZM4.03042 7.63498H9.9924C10.2053 7.63498 10.3777 7.58175 10.5095 7.47529C10.6464 7.36375 10.7148 7.20659 10.7148 7.0038C10.7148 6.80101 10.6489 6.64385 10.5171 6.53232C10.3904 6.41572 10.2155 6.35741 9.9924 6.35741H4.03042C3.80735 6.35741 3.62991 6.41572 3.4981 6.53232C3.36629 6.64385 3.30038 6.80101 3.30038 7.0038C3.30038 7.20659 3.36882 7.36375 3.5057 7.47529C3.64259 7.58175 3.81749 7.63498 4.03042 7.63498Z"
		fill="currentColor"
	/>
</svg>
