<svg
	color="rgb(var(--foreground, 0, 0, 0))"
	viewBox="0 0 14 14"
	fill="none"
	xmlns="http://www.w3.org/2000/svg"
>
	<path
		d="M2.38783 14H11.6122C12.4081 14 13.0038 13.8023 13.3992 13.4068C13.7997 13.0165 14 12.4284 14 11.6426V2.35741C14 1.57161 13.7997 0.983523 13.3992 0.593156C13.0038 0.197719 12.4081 0 11.6122 0H2.38783C1.59189 0 0.993663 0.197719 0.593156 0.593156C0.197719 0.983523 0 1.57161 0 2.35741V11.6426C0 12.4284 0.197719 13.0165 0.593156 13.4068C0.993663 13.8023 1.59189 14 2.38783 14ZM2.40304 12.7757C2.02281 12.7757 1.73131 12.6768 1.52852 12.4791C1.32573 12.2763 1.22433 11.9772 1.22433 11.5817V2.41825C1.22433 2.02281 1.32573 1.72624 1.52852 1.52852C1.73131 1.32573 2.02281 1.22433 2.40304 1.22433H11.597C11.9721 1.22433 12.2611 1.32573 12.4639 1.52852C12.6717 1.72624 12.7757 2.02281 12.7757 2.41825V11.5817C12.7757 11.9772 12.6717 12.2763 12.4639 12.4791C12.2611 12.6768 11.9721 12.7757 11.597 12.7757H2.40304ZM3.48289 6.98859C3.48289 7.1711 3.54373 7.32066 3.6654 7.43726C3.78707 7.55387 3.94423 7.61217 4.13688 7.61217H6.37262V9.85551C6.37262 10.0482 6.43092 10.2053 6.54753 10.327C6.66413 10.4436 6.81369 10.5019 6.9962 10.5019C7.18885 10.5019 7.34347 10.4436 7.46008 10.327C7.58175 10.2053 7.64259 10.0482 7.64259 9.85551V7.61217H9.88593C10.0786 7.61217 10.2332 7.55387 10.3498 7.43726C10.4715 7.32066 10.5323 7.1711 10.5323 6.98859C10.5323 6.79594 10.4715 6.64132 10.3498 6.52471C10.2332 6.40304 10.0786 6.34221 9.88593 6.34221H7.64259V4.10646C7.64259 3.90875 7.58175 3.75158 7.46008 3.63498C7.34347 3.51331 7.18885 3.45247 6.9962 3.45247C6.81369 3.45247 6.66413 3.51331 6.54753 3.63498C6.43092 3.75665 6.37262 3.91382 6.37262 4.10646V6.34221H4.13688C3.93916 6.34221 3.77947 6.40304 3.65779 6.52471C3.54119 6.64132 3.48289 6.79594 3.48289 6.98859Z"
		fill="currentColor"
	/>
</svg>
