<svg
	color="rgb(var(--foreground, 0, 0, 0))"
	viewBox="0 0 14 18"
	fill="none"
	xmlns="http://www.w3.org/2000/svg"
>
	<path
		d="M0 10.5121C0 11.4859 0.179589 12.3966 0.538766 13.2441C0.903226 14.0863 1.40502 14.8285 2.04414 15.4707C2.68327 16.1077 3.42539 16.6051 4.27051 16.9631C5.12092 17.321 6.03207 17.5 7.00396 17.5C7.97057 17.5 8.87644 17.321 9.72156 16.9631C10.572 16.6051 11.3167 16.1077 11.9559 15.4707C12.6003 14.8285 13.1021 14.0863 13.4612 13.2441C13.8204 12.3966 14 11.4859 14 10.5121C14 10.3226 13.9393 10.1673 13.8178 10.0462C13.6963 9.91988 13.5378 9.85671 13.3424 9.85671C13.1522 9.85671 13.0017 9.91988 12.8908 10.0462C12.7799 10.1673 12.7244 10.3226 12.7244 10.5121C12.7244 11.3069 12.5765 12.0518 12.2807 12.7466C11.9849 13.4362 11.5756 14.0442 11.0526 14.5706C10.5297 15.0917 9.92228 15.4971 9.23033 15.7866C8.53839 16.0814 7.79626 16.2288 7.00396 16.2288C6.20638 16.2288 5.46161 16.0814 4.76967 15.7866C4.07772 15.4971 3.47029 15.0917 2.94737 14.5706C2.42445 14.0442 2.01509 13.4362 1.7193 12.7466C1.4235 12.0518 1.27561 11.3069 1.27561 10.5121C1.27561 9.72248 1.4235 8.98289 1.7193 8.29331C2.01509 7.60373 2.42445 6.99837 2.94737 6.47724C3.47029 5.95611 4.07772 5.54815 4.76967 5.25337C5.46161 4.95858 6.20638 4.81119 7.00396 4.81119C7.30504 4.81119 7.59291 4.82435 7.86757 4.85067C8.14752 4.87699 8.4037 4.91647 8.63611 4.96911L6.26712 7.30632C6.20902 7.36948 6.16412 7.44055 6.13243 7.51951C6.10074 7.5932 6.08489 7.67216 6.08489 7.75639C6.08489 7.93536 6.14563 8.08538 6.26712 8.20646C6.38861 8.32753 6.5365 8.38806 6.71081 8.38806C6.90624 8.38806 7.05942 8.32753 7.17034 8.20646L10.4346 4.93753C10.5033 4.8691 10.5535 4.7954 10.5852 4.71644C10.6169 4.63748 10.6327 4.55326 10.6327 4.46377C10.6327 4.2848 10.5667 4.12688 10.4346 3.99001L7.17034 0.689503C7.05414 0.563168 6.90096 0.5 6.71081 0.5C6.53122 0.5 6.38068 0.563168 6.2592 0.689503C6.14299 0.810574 6.08489 0.96323 6.08489 1.14747C6.08489 1.22643 6.09809 1.30539 6.1245 1.38435C6.1562 1.46331 6.20109 1.53437 6.2592 1.59754L8.36672 3.67418C8.16072 3.63206 7.94152 3.60048 7.70911 3.57942C7.48198 3.5531 7.24693 3.53994 7.00396 3.53994C6.03207 3.53994 5.12092 3.72155 4.27051 4.08477C3.42539 4.44272 2.68327 4.94016 2.04414 5.5771C1.40502 6.21404 0.903226 6.95626 0.538766 7.80376C0.179589 8.646 0 9.54877 0 10.5121Z"
		fill="currentColor"
	/>
</svg>
