<svg
	color="rgb(var(--foreground, 0, 0, 0))"
	viewBox="0 0 15 20"
	fill="none"
	xmlns="http://www.w3.org/2000/svg"
>
	<path
		d="M7.50402 8.46054C7.71314 8.46054 7.88472 8.39673 8.01877 8.2691C8.15281 8.13616 8.21984 7.96334 8.21984 7.75063V4.38455L8.17158 2.73342L10.3029 4.99076C10.3727 5.06521 10.4504 5.11839 10.5362 5.15029C10.6273 5.17688 10.7212 5.19018 10.8177 5.19018C11.0214 5.19018 11.1877 5.12371 11.3164 4.99076C11.4504 4.85782 11.5174 4.69298 11.5174 4.49622C11.5174 4.39519 11.496 4.30213 11.4531 4.21704C11.4155 4.12664 11.3566 4.04156 11.2761 3.9618L8.0429 0.739295C7.96783 0.65953 7.88204 0.601036 7.78552 0.563812C7.69437 0.521271 7.60054 0.5 7.50402 0.5C7.40214 0.5 7.30563 0.521271 7.21448 0.563812C7.12332 0.601036 7.04021 0.65953 6.96515 0.739295L3.7319 3.9618C3.65147 4.04156 3.58981 4.12664 3.54692 4.21704C3.50938 4.30213 3.49062 4.39519 3.49062 4.49622C3.49062 4.69298 3.55496 4.85782 3.68365 4.99076C3.81769 5.12371 3.9866 5.19018 4.19035 5.19018C4.28686 5.19018 4.37802 5.17688 4.46381 5.15029C4.55496 5.11839 4.63539 5.06521 4.70509 4.99076L6.83646 2.73342L6.78016 4.38455V7.75063C6.78016 7.96334 6.84718 8.13616 6.98123 8.2691C7.12064 8.39673 7.29491 8.46054 7.50402 8.46054ZM0 10C0 10.2074 0.0643432 10.3776 0.193029 10.5105C0.327078 10.6434 0.498659 10.7099 0.707775 10.7099H14.3003C14.504 10.7099 14.6702 10.6434 14.7989 10.5105C14.933 10.3776 15 10.2074 15 10C15 9.79261 14.933 9.62245 14.7989 9.4895C14.6702 9.35124 14.504 9.28212 14.3003 9.28212H0.707775C0.498659 9.28212 0.327078 9.35124 0.193029 9.4895C0.0643432 9.62245 0 9.79261 0 10ZM7.50402 11.5315C7.29491 11.5315 7.12064 11.598 6.98123 11.7309C6.84718 11.8638 6.78016 12.034 6.78016 12.2414V15.6154L6.83646 17.2586L4.70509 15.0013C4.63539 14.9268 4.55496 14.8763 4.46381 14.8497C4.37802 14.8178 4.28686 14.8018 4.19035 14.8018C3.9866 14.8018 3.81769 14.8683 3.68365 15.0013C3.55496 15.1342 3.49062 15.299 3.49062 15.4958C3.49062 15.5968 3.50938 15.6926 3.54692 15.783C3.58981 15.868 3.65147 15.9531 3.7319 16.0382L6.96515 19.2527C7.04021 19.3325 7.12332 19.3936 7.21448 19.4362C7.30563 19.4787 7.40214 19.5 7.50402 19.5C7.60054 19.5 7.69437 19.4787 7.78552 19.4362C7.88204 19.3936 7.96783 19.3325 8.0429 19.2527L11.2761 16.0382C11.3566 15.9531 11.4155 15.868 11.4531 15.783C11.496 15.6926 11.5174 15.5968 11.5174 15.4958C11.5174 15.299 11.4504 15.1342 11.3164 15.0013C11.1877 14.8683 11.0214 14.8018 10.8177 14.8018C10.7212 14.8018 10.6273 14.8178 10.5362 14.8497C10.4504 14.8763 10.3727 14.9268 10.3029 15.0013L8.17158 17.2586L8.21984 15.6154V12.2414C8.21984 12.034 8.15281 11.8638 8.01877 11.7309C7.88472 11.598 7.71314 11.5315 7.50402 11.5315Z"
		fill="currentColor"
	/>
</svg>
