<svg
	color="rgb(var(--foreground, 0, 0, 0))"
	viewBox="0 0 15 20"
	fill="none"
	xmlns="http://www.w3.org/2000/svg"
>
	<path
		d="M7.50402 0.5C7.29491 0.5 7.12064 0.566471 6.98123 0.699412C6.84718 0.827036 6.78016 0.994542 6.78016 1.20193V4.57599L6.83646 6.22712L4.70509 3.9618C4.63539 3.88735 4.55496 3.83683 4.46381 3.81024C4.37802 3.77834 4.28686 3.76238 4.19035 3.76238C3.9866 3.76238 3.81769 3.82886 3.68365 3.9618C3.55496 4.09474 3.49062 4.25959 3.49062 4.45634C3.49062 4.55737 3.50938 4.65309 3.54692 4.74349C3.58981 4.82858 3.65147 4.91366 3.7319 4.99874L6.96515 8.21327C7.04021 8.29303 7.12332 8.35418 7.21448 8.39673C7.30563 8.43927 7.40214 8.46054 7.50402 8.46054C7.60054 8.46054 7.69437 8.43927 7.78552 8.39673C7.88204 8.35418 7.96783 8.29303 8.0429 8.21327L11.2761 4.99874C11.3566 4.91366 11.4155 4.82858 11.4531 4.74349C11.496 4.65309 11.5174 4.55737 11.5174 4.45634C11.5174 4.25959 11.4504 4.09474 11.3164 3.9618C11.1877 3.82886 11.0214 3.76238 10.8177 3.76238C10.7212 3.76238 10.6273 3.77834 10.5362 3.81024C10.4504 3.83683 10.3727 3.88735 10.3029 3.9618L8.17158 6.22712L8.21984 4.57599V1.20193C8.21984 0.994542 8.15281 0.827036 8.01877 0.699412C7.88472 0.566471 7.71314 0.5 7.50402 0.5ZM0 10C0 10.2074 0.0643432 10.3776 0.193029 10.5105C0.327078 10.6434 0.498659 10.7099 0.707775 10.7099H14.3003C14.504 10.7099 14.6702 10.6434 14.7989 10.5105C14.933 10.3776 15 10.2074 15 10C15 9.79261 14.933 9.62245 14.7989 9.4895C14.6702 9.35124 14.504 9.28212 14.3003 9.28212H0.707775C0.498659 9.28212 0.327078 9.35124 0.193029 9.4895C0.0643432 9.62245 0 9.79261 0 10ZM7.50402 19.5C7.71314 19.5 7.88472 19.4335 8.01877 19.3006C8.15281 19.1676 8.21984 18.9975 8.21984 18.7901V15.416L8.17158 13.7729L10.3029 16.0302C10.3727 16.1047 10.4504 16.1552 10.5362 16.1818C10.6273 16.2137 10.7212 16.2296 10.8177 16.2296C11.0214 16.2296 11.1877 16.1632 11.3164 16.0302C11.4504 15.8973 11.5174 15.7324 11.5174 15.5357C11.5174 15.4346 11.496 15.3416 11.4531 15.2565C11.4155 15.1661 11.3566 15.0784 11.2761 14.9933L8.0429 11.7788C7.96783 11.699 7.88204 11.6378 7.78552 11.5953C7.69437 11.5528 7.60054 11.5315 7.50402 11.5315C7.40214 11.5315 7.30563 11.5528 7.21448 11.5953C7.12332 11.6378 7.04021 11.699 6.96515 11.7788L3.7319 14.9933C3.65147 15.0784 3.58981 15.1661 3.54692 15.2565C3.50938 15.3416 3.49062 15.4346 3.49062 15.5357C3.49062 15.7324 3.55496 15.8973 3.68365 16.0302C3.81769 16.1632 3.9866 16.2296 4.19035 16.2296C4.28686 16.2296 4.37802 16.2137 4.46381 16.1818C4.55496 16.1552 4.63539 16.1047 4.70509 16.0302L6.83646 13.7729L6.78016 15.416V18.7901C6.78016 18.9975 6.84718 19.1676 6.98123 19.3006C7.12064 19.4335 7.29491 19.5 7.50402 19.5Z"
		fill="currentColor"
	/>
</svg>
