<svg
	color="rgb(var(--foreground, 0, 0, 0))"
	viewBox="0 0 15 15"
	fill="none"
	xmlns="http://www.w3.org/2000/svg"
>
	<path
		d="M9.09449 15C9.3757 15 9.60349 14.9093 9.77784 14.7279C9.95782 14.5465 10.0478 14.3197 10.0478 14.0476V1.0034C10.0478 0.725624 9.95782 0.490363 9.77784 0.297619C9.59786 0.0992064 9.36445 0 9.07761 0C8.88076 0 8.7036 0.0453515 8.54612 0.136054C8.38864 0.226757 8.20304 0.376984 7.98931 0.586735L4.39539 3.9881C4.33914 4.03912 4.26884 4.06463 4.18448 4.06463H1.76322C1.19516 4.06463 0.75928 4.22336 0.455568 4.54082C0.151856 4.85261 0 5.31463 0 5.92687V9.09014C0 9.70805 0.151856 10.1729 0.455568 10.4847C0.75928 10.7965 1.19516 10.9524 1.76322 10.9524H4.18448C4.26884 10.9524 4.33914 10.9779 4.39539 11.0289L7.98931 14.4643C8.18054 14.6514 8.36333 14.7874 8.53768 14.8724C8.71204 14.9575 8.89764 15 9.09449 15ZM13.0512 11.1139C13.1974 11.2103 13.3577 11.2443 13.5321 11.216C13.7064 11.182 13.8498 11.0828 13.9623 10.9184C14.2885 10.4875 14.5416 9.97165 14.7216 9.37075C14.9072 8.76984 15 8.14342 15 7.4915C15 6.83957 14.9072 6.21315 14.7216 5.61225C14.5416 5.01134 14.2885 4.49547 13.9623 4.06463C13.8498 3.90023 13.7064 3.80102 13.5321 3.76701C13.3577 3.73299 13.1974 3.76701 13.0512 3.86905C12.8825 3.9881 12.784 4.14399 12.7559 4.33674C12.7334 4.52381 12.7897 4.70522 12.9246 4.88095C13.1721 5.22109 13.3605 5.61791 13.4899 6.07143C13.6249 6.52494 13.6924 6.9983 13.6924 7.4915C13.6924 7.98469 13.6249 8.45805 13.4899 8.91156C13.3549 9.35941 13.1665 9.75624 12.9246 10.102C12.7953 10.2834 12.7418 10.4677 12.7643 10.6548C12.7868 10.8418 12.8825 10.9949 13.0512 11.1139Z"
		fill="currentColor"
	/>
</svg>
