<svg
	color="rgb(var(--foreground, 0, 0, 0))"
	viewBox="0 0 10 15"
	fill="none"
	xmlns="http://www.w3.org/2000/svg"
>
	<path
		d="M1.68455 10.7222H4.04623C4.12331 10.7222 4.18938 10.746 4.24443 10.7937L7.96863 14C8.16681 14.1693 8.34847 14.2937 8.51363 14.373C8.68428 14.4577 8.8687 14.5 9.06689 14.5C9.33663 14.5 9.55958 14.4153 9.73575 14.246C9.91191 14.0767 10 13.8651 10 13.6111V1.43651C10 1.17725 9.90916 0.957672 9.72749 0.777778C9.55133 0.592593 9.32563 0.5 9.05037 0.5C8.85219 0.5 8.67603 0.544973 8.52188 0.634921C8.37325 0.724868 8.18883 0.862434 7.96863 1.04762L4.24443 4.22222C4.19488 4.26984 4.12881 4.29365 4.04623 4.29365H1.68455C1.12303 4.29365 0.701901 4.43386 0.421141 4.71429C0.140382 4.98942 0 5.41534 0 5.99206V9.03175C0 9.60318 0.140382 10.0291 0.421141 10.3095C0.701901 10.5847 1.12303 10.7222 1.68455 10.7222ZM1.74237 9.56349C1.58822 9.56349 1.47261 9.5291 1.39554 9.46032C1.32398 9.39153 1.2882 9.28307 1.2882 9.13492V5.88889C1.2882 5.74074 1.32398 5.63228 1.39554 5.56349C1.47261 5.48942 1.58822 5.45238 1.74237 5.45238H4.3848C4.4894 5.45238 4.58574 5.43915 4.67383 5.4127C4.76191 5.38624 4.85273 5.33069 4.94632 5.24603L8.46408 2.1746C8.4861 2.15344 8.50812 2.13757 8.53014 2.12698C8.55216 2.1164 8.57693 2.11111 8.60446 2.11111C8.67602 2.11111 8.7118 2.14815 8.7118 2.22222V12.7698C8.7118 12.8492 8.67602 12.8889 8.60446 12.8889C8.56042 12.8889 8.51638 12.8677 8.47234 12.8254L4.94632 9.76984C4.85273 9.69048 4.76191 9.63757 4.67383 9.61111C4.58574 9.57937 4.4894 9.56349 4.3848 9.56349H1.74237Z"
		fill="currentColor"
	/>
</svg>
