<svg
	color="rgb(var(--foreground, 0, 0, 0))"
	viewBox="0 0 19 15"
	fill="none"
	xmlns="http://www.w3.org/2000/svg"
>
	<path
		d="M1.73656 10.9524H4.17115C4.2506 10.9524 4.3187 10.9779 4.37545 11.0289L8.21461 14.4643C8.41891 14.6457 8.60618 14.7789 8.77643 14.8639C8.95236 14.9546 9.14247 15 9.34677 15C9.62485 15 9.85469 14.9093 10.0363 14.7279C10.2179 14.5465 10.3087 14.3197 10.3087 14.0476V1.0034C10.3087 0.725624 10.2151 0.490363 10.0278 0.297619C9.84618 0.0992064 9.6135 0 9.32975 0C9.12545 0 8.94385 0.0481859 8.78495 0.144558C8.63172 0.24093 8.44161 0.388322 8.21461 0.586735L4.37545 3.9881C4.32437 4.03912 4.25627 4.06463 4.17115 4.06463H1.73656C1.15771 4.06463 0.723566 4.21485 0.43414 4.51531C0.144713 4.81009 0 5.26644 0 5.88435V9.14116C0 9.7534 0.144713 10.2098 0.43414 10.5102C0.723566 10.805 1.15771 10.9524 1.73656 10.9524ZM1.79615 9.71089C1.63725 9.71089 1.51807 9.67404 1.43862 9.60034C1.36484 9.52664 1.32796 9.41043 1.32796 9.2517V5.77381C1.32796 5.61508 1.36484 5.49887 1.43862 5.42517C1.51807 5.34581 1.63725 5.30612 1.79615 5.30612H4.52016C4.62799 5.30612 4.7273 5.29195 4.8181 5.26361C4.9089 5.23526 5.00254 5.17574 5.09901 5.08503L8.72536 1.79422C8.74806 1.77154 8.77076 1.75454 8.79346 1.7432C8.81616 1.73186 8.8417 1.72619 8.87007 1.72619C8.94385 1.72619 8.98073 1.76587 8.98073 1.84524V13.1463C8.98073 13.2313 8.94385 13.2738 8.87007 13.2738C8.82467 13.2738 8.77927 13.2511 8.73387 13.2058L5.09901 9.93197C5.00254 9.84694 4.9089 9.79025 4.8181 9.7619C4.7273 9.72789 4.62799 9.71089 4.52016 9.71089H1.79615ZM13.1774 11.1139C13.325 11.2103 13.4867 11.2443 13.6626 11.216C13.8386 11.182 13.9833 11.0828 14.0968 10.9184C14.4259 10.4875 14.6813 9.97165 14.8629 9.37075C15.0502 8.76984 15.1438 8.14342 15.1438 7.4915C15.1438 6.83957 15.0502 6.21315 14.8629 5.61225C14.6813 5.01134 14.4259 4.49547 14.0968 4.06463C13.9833 3.90023 13.8386 3.80102 13.6626 3.76701C13.4867 3.73299 13.325 3.76701 13.1774 3.86905C13.0072 3.9881 12.9079 4.14399 12.8795 4.33674C12.8568 4.52381 12.9135 4.70522 13.0497 4.88095C13.2994 5.22109 13.4895 5.61791 13.6201 6.07143C13.7563 6.52494 13.8244 6.9983 13.8244 7.4915C13.8244 7.98469 13.7563 8.45805 13.6201 8.91156C13.4839 9.35941 13.2938 9.75624 13.0497 10.102C12.9192 10.2834 12.8653 10.4677 12.888 10.6548C12.9107 10.8418 13.0072 10.9949 13.1774 11.1139ZM16.3356 13.3333C16.4945 13.4354 16.6619 13.4722 16.8378 13.4439C17.0137 13.4099 17.1585 13.3107 17.272 13.1463C17.8168 12.398 18.2395 11.5306 18.5403 10.5442C18.8468 9.55782 19 8.54025 19 7.4915C19 6.44274 18.8496 5.42234 18.5488 4.43027C18.2481 3.43821 17.8224 2.5737 17.272 1.83673C17.1585 1.67234 17.0137 1.57313 16.8378 1.53912C16.6619 1.5051 16.4945 1.54195 16.3356 1.64966C16.1823 1.75737 16.0915 1.90193 16.0632 2.08333C16.0405 2.25907 16.0915 2.43481 16.2164 2.61054C16.6817 3.26814 17.0421 4.01927 17.2975 4.86395C17.5529 5.70862 17.6806 6.58447 17.6806 7.4915C17.6806 8.39853 17.55 9.27438 17.289 10.119C17.0336 10.958 16.6761 11.7092 16.2164 12.3724C16.0972 12.5482 16.049 12.7268 16.0717 12.9082C16.0944 13.0839 16.1823 13.2256 16.3356 13.3333Z"
		fill="currentColor"
	/>
</svg>
