<svg
	color="rgb(var(--foreground, 0, 0, 0))"
	viewBox="0 0 21 15"
	fill="none"
	xmlns="http://www.w3.org/2000/svg"
>
	<path
		d="M1.59613 10.6603H3.83383C3.90686 10.6603 3.96945 10.6836 4.02161 10.7302L7.5503 13.8672C7.73808 14.0329 7.91021 14.1545 8.06669 14.2322C8.22839 14.315 8.40313 14.3564 8.59091 14.3564C8.8465 14.3564 9.05775 14.2736 9.22466 14.1079C9.39158 13.9423 9.47504 13.7352 9.47504 13.4867V1.57538C9.47504 1.32173 9.38897 1.1069 9.21684 0.930892C9.04993 0.749711 8.83607 0.659121 8.57526 0.659121C8.38748 0.659121 8.22057 0.703122 8.07452 0.791124C7.93368 0.879126 7.75894 1.01372 7.5503 1.1949L4.02161 4.30086C3.97466 4.34745 3.91207 4.37074 3.83383 4.37074H1.59613C1.06408 4.37074 0.665052 4.50792 0.399031 4.78228C0.13301 5.05147 0 5.46818 0 6.03243V9.00639C0 9.56546 0.13301 9.98218 0.399031 10.2565C0.665052 10.5257 1.06408 10.6603 1.59613 10.6603ZM1.65089 9.52664C1.50484 9.52664 1.39531 9.49299 1.32228 9.4257C1.25447 9.3584 1.22057 9.25228 1.22057 9.10734V5.93149C1.22057 5.78654 1.25447 5.68042 1.32228 5.61313C1.39531 5.54066 1.50484 5.50442 1.65089 5.50442H4.15462C4.25373 5.50442 4.34501 5.49148 4.42847 5.4656C4.51192 5.43971 4.59799 5.38536 4.68666 5.30253L8.01975 2.29752C8.04061 2.27681 8.06148 2.26128 8.08234 2.25093C8.1032 2.24057 8.12668 2.2354 8.15276 2.2354C8.22057 2.2354 8.25447 2.27163 8.25447 2.3441V12.6637C8.25447 12.7413 8.22057 12.7801 8.15276 12.7801C8.11103 12.7801 8.0693 12.7594 8.02757 12.718L4.68666 9.72853C4.59799 9.65088 4.51192 9.59911 4.42847 9.57323C4.34501 9.54217 4.25373 9.52664 4.15462 9.52664H1.65089ZM12.1118 10.8078C12.2474 10.8959 12.3961 10.9269 12.5577 10.901C12.7194 10.87 12.8525 10.7794 12.9568 10.6293C13.2593 10.2358 13.494 9.76476 13.661 9.21604C13.8331 8.66732 13.9192 8.09531 13.9192 7.5C13.9192 6.90469 13.8331 6.33268 13.661 5.78396C13.494 5.23524 13.2593 4.76417 12.9568 4.37074C12.8525 4.22062 12.7194 4.13003 12.5577 4.09897C12.3961 4.06791 12.2474 4.09897 12.1118 4.19215C11.9553 4.30086 11.864 4.44322 11.8379 4.61922C11.8171 4.79005 11.8692 4.9557 11.9944 5.11618C12.2239 5.42677 12.3987 5.78913 12.5186 6.20326C12.6438 6.61739 12.7064 7.04964 12.7064 7.5C12.7064 7.95036 12.6438 8.38261 12.5186 8.79674C12.3934 9.20569 12.2187 9.56805 11.9944 9.88383C11.8744 10.0495 11.8249 10.2177 11.8458 10.3885C11.8666 10.5594 11.9553 10.6991 12.1118 10.8078ZM15.0145 12.8345C15.1606 12.9277 15.3145 12.9613 15.4762 12.9354C15.6379 12.9044 15.7709 12.8138 15.8752 12.6637C16.3759 11.9803 16.7645 11.1883 17.041 10.2876C17.3227 9.38687 17.4635 8.45767 17.4635 7.5C17.4635 6.54233 17.3253 5.61054 17.0488 4.70464C16.7724 3.79873 16.3811 3.0093 15.8752 2.33634C15.7709 2.18622 15.6379 2.09563 15.4762 2.06457C15.3145 2.03351 15.1606 2.06716 15.0145 2.16551C14.8737 2.26387 14.7902 2.39587 14.7642 2.56152C14.7433 2.722 14.7902 2.88247 14.905 3.04295C15.3327 3.64343 15.6639 4.32933 15.8987 5.10065C16.1334 5.87196 16.2507 6.67174 16.2507 7.5C16.2507 8.32826 16.1308 9.12804 15.8908 9.89935C15.6561 10.6655 15.3275 11.3514 14.905 11.9571C14.7955 12.1175 14.7511 12.2806 14.772 12.4462C14.7928 12.6067 14.8737 12.7361 15.0145 12.8345ZM17.9486 14.8922C18.0842 14.9905 18.2355 15.0216 18.4024 14.9854C18.5693 14.9491 18.7049 14.8534 18.8092 14.6981C19.2683 14.0406 19.6595 13.3314 19.9829 12.5705C20.3115 11.8043 20.5618 10.9968 20.734 10.1478C20.9113 9.29887 21 8.41626 21 7.5C21 6.58374 20.9113 5.70113 20.734 4.85217C20.5566 4.00321 20.3037 3.19824 19.975 2.43728C19.6464 1.67115 19.2578 0.959364 18.8092 0.301935C18.7049 0.141461 18.5693 0.0456935 18.4024 0.0146339C18.2355 -0.0216024 18.0842 0.00945725 17.9486 0.107813C17.8025 0.206168 17.7191 0.338171 17.6982 0.503823C17.6773 0.669474 17.7217 0.832537 17.8312 0.993012C18.2329 1.58832 18.5797 2.23022 18.8718 2.91871C19.1692 3.60202 19.3987 4.32933 19.5604 5.10065C19.7221 5.86678 19.8029 6.66657 19.8029 7.5C19.8029 8.32826 19.7221 9.12804 19.5604 9.89935C19.3987 10.6655 19.1692 11.3954 18.8718 12.0891C18.5797 12.7775 18.2329 13.4169 17.8312 14.007C17.7217 14.1623 17.6773 14.3228 17.6982 14.4884C17.7191 14.6592 17.8025 14.7938 17.9486 14.8922Z"
		fill="currentColor"
	/>
</svg>
