<svg
	color="rgb(var(--foreground, 0, 0, 0))"
	viewBox="0 0 15 15"
	fill="none"
	xmlns="http://www.w3.org/2000/svg"
>
	<path
		d="M1.72103 10.9524H4.13386C4.2126 10.9524 4.28009 10.9779 4.33633 11.0289L8.14117 14.4643C8.34364 14.6457 8.52925 14.7789 8.69798 14.8639C8.87233 14.9546 9.05793 15 9.25478 15C9.53037 15 9.75815 14.9093 9.93813 14.7279C10.1181 14.5465 10.2081 14.3197 10.2081 14.0476V1.0034C10.2081 0.725624 10.1181 0.490363 9.93813 0.297619C9.75815 0.0992064 9.52475 0 9.23791 0C9.04106 0 8.86389 0.0481859 8.70641 0.144558C8.55455 0.24093 8.36614 0.388322 8.14117 0.586735L4.33633 3.9881C4.28571 4.03912 4.21822 4.06463 4.13386 4.06463H1.72103C1.14736 4.06463 0.717098 4.21485 0.430259 4.51531C0.14342 4.81009 0 5.26644 0 5.88435V9.14116C0 9.7534 0.14342 10.2098 0.430259 10.5102C0.717098 10.805 1.14736 10.9524 1.72103 10.9524ZM1.78009 9.71089C1.62261 9.71089 1.5045 9.67404 1.42576 9.60034C1.35264 9.52664 1.31609 9.41043 1.31609 9.2517V5.77381C1.31609 5.61508 1.35264 5.49887 1.42576 5.42517C1.5045 5.34581 1.62261 5.30612 1.78009 5.30612H4.47975C4.58661 5.30612 4.68504 5.29195 4.77503 5.26361C4.86502 5.23526 4.95782 5.17574 5.05343 5.08503L8.64736 1.79422C8.66985 1.77154 8.69235 1.75454 8.71485 1.7432C8.73734 1.73186 8.76265 1.72619 8.79078 1.72619C8.86389 1.72619 8.90045 1.76587 8.90045 1.84524V13.1463C8.90045 13.2313 8.86389 13.2738 8.79078 13.2738C8.74578 13.2738 8.70079 13.2511 8.65579 13.2058L5.05343 9.93197C4.95782 9.84694 4.86502 9.79025 4.77503 9.7619C4.68504 9.72789 4.58661 9.71089 4.47975 9.71089H1.78009ZM13.0512 11.1224C13.1974 11.2188 13.3577 11.2528 13.5321 11.2245C13.7064 11.1905 13.8498 11.0913 13.9623 10.9269C14.2885 10.496 14.5416 9.98016 14.7216 9.37925C14.9072 8.77835 15 8.15193 15 7.5C15 6.84807 14.9072 6.22166 14.7216 5.62075C14.5416 5.01984 14.2885 4.50397 13.9623 4.07313C13.8498 3.90873 13.7064 3.80952 13.5321 3.77551C13.3577 3.7415 13.1974 3.77551 13.0512 3.87755C12.8825 3.9966 12.784 4.15249 12.7559 4.34524C12.7334 4.53231 12.7897 4.71372 12.9246 4.88946C13.1721 5.22959 13.3605 5.62642 13.4899 6.07993C13.6249 6.53345 13.6924 7.0068 13.6924 7.5C13.6924 7.9932 13.6249 8.46655 13.4899 8.92007C13.3549 9.36791 13.1665 9.76474 12.9246 10.1105C12.7953 10.292 12.7418 10.4762 12.7643 10.6633C12.7868 10.8503 12.8825 11.0034 13.0512 11.1224Z"
		fill="currentColor"
	/>
</svg>
