<svg
	color="rgb(var(--foreground, 0, 0, 0))"
	viewBox="0 0 15 15"
	fill="none"
	xmlns="http://www.w3.org/2000/svg"
>
	<path
		d="M3.23781 10.2114H5.53562C5.61061 10.2114 5.67488 10.2352 5.72844 10.2828L9.3519 13.4857C9.55008 13.6549 9.72951 13.7791 9.8902 13.8584C10.0509 13.9429 10.2276 13.9852 10.4205 13.9852C10.5758 13.9852 10.7177 13.9508 10.8463 13.8821C10.9748 13.8134 11.0846 13.7104 11.1757 13.5729L10.2437 12.6612L6.36315 9.22833C6.28281 9.15433 6.2105 9.10676 6.14622 9.08562C6.08195 9.06448 5.99893 9.05391 5.89716 9.05391H3.29405C3.14408 9.05391 3.0316 9.01956 2.95661 8.95085C2.88698 8.88214 2.85217 8.77378 2.85217 8.62579V5.35941L1.88806 4.40803C1.79164 4.53488 1.71934 4.68816 1.67113 4.86786C1.62292 5.04757 1.59882 5.2537 1.59882 5.48626V8.52273C1.59882 9.09355 1.7354 9.51903 2.00857 9.79915C2.28174 10.074 2.69148 10.2114 3.23781 10.2114ZM11.3283 9.04598V0.935518C11.3283 0.676533 11.24 0.457188 11.0632 0.277484C10.8918 0.0924947 10.6722 0 10.4044 0C10.2116 0 10.0402 0.044926 9.8902 0.134778C9.74558 0.22463 9.56615 0.362051 9.3519 0.54704L5.84092 3.62315L6.70059 4.47939L9.83396 1.67283C9.85538 1.65169 9.87681 1.63584 9.89823 1.62526C9.91966 1.61469 9.94376 1.60941 9.97054 1.60941C10.0402 1.60941 10.075 1.64641 10.075 1.7204V7.8092L11.3283 9.04598ZM13.9475 14.8177C14.0653 14.9392 14.21 15 14.3814 15C14.5581 15 14.7027 14.9392 14.8152 14.8177C14.9384 14.6961 15 14.5507 15 14.3816C15 14.2178 14.9384 14.0751 14.8152 13.9535L1.06052 0.38055C0.937333 0.264271 0.790038 0.206131 0.61864 0.206131C0.447242 0.200846 0.299946 0.258985 0.176754 0.38055C0.058918 0.496829 0 0.642178 0 0.816596C0 0.985729 0.058918 1.12844 0.176754 1.24471L13.9475 14.8177Z"
		fill="currentColor"
	/>
</svg>
