<svg
	color="rgb(var(--foreground, 0, 0, 0))"
	viewBox="0 0 20 15"
	fill="none"
	xmlns="http://www.w3.org/2000/svg"
>
	<path
		d="M1.64915 10.7222H3.9612C4.03665 10.7222 4.10132 10.746 4.15521 10.7937L7.80113 14C7.99515 14.1693 8.173 14.2937 8.33468 14.373C8.50175 14.4577 8.6823 14.5 8.87631 14.5C9.14039 14.5 9.35866 14.4153 9.53112 14.246C9.70358 14.0767 9.78981 13.8651 9.78981 13.6111V1.43651C9.78981 1.17725 9.70089 0.957672 9.52304 0.777778C9.35058 0.592593 9.12961 0.5 8.86015 0.5C8.66613 0.5 8.49367 0.544974 8.34276 0.634921C8.19725 0.724868 8.01671 0.862434 7.80113 1.04762L4.15521 4.22222C4.10671 4.26984 4.04204 4.29365 3.9612 4.29365H1.64915C1.09943 4.29365 0.687146 4.43386 0.412288 4.71429C0.137429 4.98942 0 5.41534 0 5.99206V9.03175C0 9.60318 0.137429 10.0291 0.412288 10.3095C0.687146 10.5847 1.09943 10.7222 1.64915 10.7222ZM1.70574 9.56349C1.55484 9.56349 1.44166 9.5291 1.36621 9.46032C1.29615 9.39153 1.26112 9.28307 1.26112 9.13492V5.88889C1.26112 5.74074 1.29615 5.63228 1.36621 5.56349C1.44166 5.48942 1.55484 5.45238 1.70574 5.45238H4.29264C4.39504 5.45238 4.48936 5.43915 4.57559 5.4127C4.66182 5.38624 4.75074 5.33069 4.84236 5.24603L8.28618 2.1746C8.30773 2.15344 8.32929 2.13757 8.35085 2.12698C8.37241 2.1164 8.39666 2.11111 8.42361 2.11111C8.49367 2.11111 8.5287 2.14815 8.5287 2.22222V12.7698C8.5287 12.8492 8.49367 12.8889 8.42361 12.8889C8.38049 12.8889 8.33738 12.8677 8.29426 12.8254L4.84236 9.76984C4.75074 9.69048 4.66182 9.63757 4.57559 9.61111C4.48936 9.57937 4.39504 9.56349 4.29264 9.56349H1.70574ZM12.8941 8.15873H19.232C19.4584 8.15873 19.6416 8.10318 19.7817 7.99206C19.9272 7.87566 20 7.71164 20 7.5C20 7.28836 19.9299 7.12434 19.7898 7.00794C19.6551 6.88624 19.4691 6.8254 19.232 6.8254H12.8941C12.657 6.8254 12.4683 6.88624 12.3282 7.00794C12.1881 7.12434 12.118 7.28836 12.118 7.5C12.118 7.71164 12.1908 7.87566 12.3363 7.99206C12.4818 8.10318 12.6677 8.15873 12.8941 8.15873Z"
		fill="currentColor"
	/>
</svg>
