<svg
	color="rgb(var(--foreground, 0, 0, 0))"
	viewBox="0 0 21 15"
	fill="none"
	xmlns="http://www.w3.org/2000/svg"
>
	<path
		d="M8.43443 14.3564C8.69523 14.3564 8.90648 14.2736 9.06818 14.1079C9.2351 13.9423 9.31855 13.7352 9.31855 13.4867V1.57538C9.31855 1.32173 9.2351 1.1069 9.06818 0.930892C8.90127 0.749711 8.6848 0.659121 8.41878 0.659121C8.23621 0.659121 8.07191 0.700534 7.92586 0.783359C7.77981 0.866185 7.60768 1.00336 7.40946 1.1949L4.07638 4.30086C4.02422 4.34745 3.95902 4.37074 3.88078 4.37074H1.63525C1.10842 4.37074 0.704173 4.51569 0.422504 4.80558C0.140835 5.09029 0 5.51219 0 6.07126V8.9598C0 9.52405 0.140835 9.94853 0.422504 10.2332C0.704173 10.518 1.10842 10.6603 1.63525 10.6603H3.88078C3.95902 10.6603 4.02422 10.6836 4.07638 10.7302L7.40946 13.8672C7.58681 14.038 7.75633 14.1623 7.91803 14.2399C8.07973 14.3176 8.25186 14.3564 8.43443 14.3564ZM12.1039 10.8078C12.2396 10.8959 12.3882 10.9269 12.5499 10.901C12.7116 10.87 12.8446 10.7794 12.949 10.6293C13.2515 10.2358 13.4862 9.76476 13.6531 9.21604C13.8253 8.66732 13.9113 8.09531 13.9113 7.5C13.9113 6.90469 13.8253 6.33268 13.6531 5.78396C13.4862 5.23524 13.2515 4.76417 12.949 4.37074C12.8446 4.22062 12.7116 4.13003 12.5499 4.09897C12.3882 4.06791 12.2396 4.09897 12.1039 4.19215C11.9475 4.30086 11.8562 4.44322 11.8301 4.61922C11.8092 4.79005 11.8614 4.9557 11.9866 5.11618C12.2161 5.42677 12.3908 5.78913 12.5108 6.20326C12.636 6.61739 12.6986 7.04964 12.6986 7.5C12.6986 7.95036 12.636 8.38261 12.5108 8.79674C12.3856 9.20569 12.2109 9.56805 11.9866 9.88383C11.8666 10.0495 11.8171 10.2177 11.8379 10.3885C11.8588 10.5594 11.9475 10.6991 12.1039 10.8078ZM15.0145 12.8345C15.1606 12.9277 15.3145 12.9613 15.4762 12.9354C15.6379 12.9044 15.7709 12.8138 15.8752 12.6637C16.3759 11.9803 16.7645 11.1883 17.041 10.2876C17.3227 9.38687 17.4635 8.45767 17.4635 7.5C17.4635 6.54233 17.3253 5.61054 17.0488 4.70464C16.7724 3.79873 16.3811 3.0093 15.8752 2.33634C15.7709 2.18622 15.6379 2.09563 15.4762 2.06457C15.3145 2.03351 15.1606 2.06716 15.0145 2.16551C14.8737 2.26387 14.7902 2.39587 14.7642 2.56152C14.7433 2.722 14.7902 2.88247 14.905 3.04295C15.3327 3.64343 15.6639 4.32933 15.8987 5.10065C16.1334 5.87196 16.2507 6.67174 16.2507 7.5C16.2507 8.32826 16.1308 9.12804 15.8908 9.89935C15.6561 10.6655 15.3275 11.3514 14.905 11.9571C14.7955 12.1175 14.7511 12.2806 14.772 12.4462C14.7928 12.6067 14.8737 12.7361 15.0145 12.8345ZM17.9486 14.8922C18.0842 14.9905 18.2355 15.0216 18.4024 14.9854C18.5693 14.9491 18.7049 14.8534 18.8092 14.6981C19.2683 14.0406 19.6595 13.3314 19.9829 12.5705C20.3115 11.8043 20.5618 10.9968 20.734 10.1478C20.9113 9.29887 21 8.41626 21 7.5C21 6.58374 20.9113 5.70113 20.734 4.85217C20.5566 4.00321 20.3037 3.19824 19.975 2.43728C19.6464 1.67115 19.2578 0.959364 18.8092 0.301935C18.7049 0.141461 18.5693 0.0456935 18.4024 0.0146339C18.2355 -0.0216024 18.0842 0.00945725 17.9486 0.107813C17.8025 0.206168 17.7191 0.338171 17.6982 0.503823C17.6773 0.669474 17.7217 0.832537 17.8312 0.993012C18.2329 1.58832 18.5797 2.23022 18.8718 2.91871C19.1692 3.60202 19.3987 4.32933 19.5604 5.10065C19.7221 5.86678 19.8029 6.66657 19.8029 7.5C19.8029 8.32826 19.7221 9.12804 19.5604 9.89935C19.3987 10.6655 19.1692 11.3954 18.8718 12.0891C18.5797 12.7775 18.2329 13.4169 17.8312 14.007C17.7217 14.1623 17.6773 14.3228 17.6982 14.4884C17.7191 14.6592 17.8025 14.7938 17.9486 14.8922Z"
		fill="currentColor"
	/>
</svg>
