<svg
	color="rgb(var(--foreground, 0, 0, 0))"
	viewBox="0 0 20 15"
	fill="none"
	xmlns="http://www.w3.org/2000/svg"
>
	<path
		d="M8.71463 14.5C8.9841 14.5 9.20237 14.4153 9.36944 14.246C9.5419 14.0767 9.62813 13.8651 9.62813 13.6111V1.43651C9.62813 1.17725 9.5419 0.957672 9.36944 0.777778C9.19698 0.592593 8.97332 0.5 8.69846 0.5C8.50984 0.5 8.34007 0.542328 8.18917 0.626984C8.03826 0.71164 7.86041 0.851852 7.65562 1.04762L4.2118 4.22222C4.15791 4.26984 4.09054 4.29365 4.0097 4.29365H1.68957C1.14524 4.29365 0.727567 4.4418 0.43654 4.7381C0.145513 5.0291 0 5.46032 0 6.03175V8.98413C0 9.56085 0.145513 9.99471 0.43654 10.2857C0.727567 10.5767 1.14524 10.7222 1.68957 10.7222H4.0097C4.09054 10.7222 4.15791 10.746 4.2118 10.7937L7.65562 14C7.83886 14.1746 8.01401 14.3016 8.18108 14.381C8.34815 14.4603 8.526 14.5 8.71463 14.5ZM12.8941 8.15873H19.232C19.4584 8.15873 19.6416 8.10318 19.7817 7.99206C19.9272 7.87566 20 7.71164 20 7.5C20 7.28836 19.9299 7.12434 19.7898 7.00794C19.6551 6.88624 19.4691 6.8254 19.232 6.8254H12.8941C12.657 6.8254 12.4683 6.88624 12.3282 7.00794C12.1881 7.12434 12.118 7.28836 12.118 7.5C12.118 7.71164 12.1908 7.87566 12.3363 7.99206C12.4818 8.10318 12.6677 8.15873 12.8941 8.15873Z"
		fill="currentColor"
	/>
</svg>
