<svg
	color="rgb(var(--foreground, 0, 0, 0))"
	viewBox="0 0 19 15"
	fill="none"
	xmlns="http://www.w3.org/2000/svg"
>
	<path
		d="M1.59048 10.7222H3.82027C3.89304 10.7222 3.95541 10.746 4.00739 10.7937L7.52359 14C7.71071 14.1693 7.88223 14.2937 8.03816 14.373C8.19929 14.4577 8.37341 14.5 8.56052 14.5C8.81521 14.5 9.02571 14.4153 9.19204 14.246C9.35836 14.0767 9.44153 13.8651 9.44153 13.6111V1.43651C9.44153 1.17725 9.35577 0.957672 9.18424 0.777778C9.01792 0.592593 8.80482 0.5 8.54493 0.5C8.35782 0.5 8.19149 0.544974 8.04596 0.634921C7.90562 0.724868 7.7315 0.862434 7.52359 1.04762L4.00739 4.22222C3.96061 4.26984 3.89824 4.29365 3.82027 4.29365H1.59048C1.06032 4.29365 0.6627 4.43386 0.39762 4.71429C0.13254 4.98942 0 5.41534 0 5.99206V9.03175C0 9.60318 0.13254 10.0291 0.39762 10.3095C0.6627 10.5847 1.06032 10.7222 1.59048 10.7222ZM1.64506 9.56349C1.49952 9.56349 1.39037 9.5291 1.3176 9.46032C1.25003 9.39153 1.21625 9.28307 1.21625 9.13492V5.88889C1.21625 5.74074 1.25003 5.63228 1.3176 5.56349C1.39037 5.48942 1.49952 5.45238 1.64506 5.45238H4.13993C4.23868 5.45238 4.32964 5.43915 4.4128 5.4127C4.49597 5.38624 4.58173 5.33069 4.67009 5.24603L7.99138 2.1746C8.01217 2.15344 8.03296 2.13757 8.05375 2.12698C8.07454 2.1164 8.09793 2.11111 8.12392 2.11111C8.19149 2.11111 8.22528 2.14815 8.22528 2.22222V12.7698C8.22528 12.8492 8.19149 12.8889 8.12392 12.8889C8.08234 12.8889 8.04076 12.8677 7.99918 12.8254L4.67009 9.76984C4.58173 9.69048 4.49597 9.63757 4.4128 9.61111C4.32964 9.57937 4.23868 9.56349 4.13993 9.56349H1.64506ZM11.7727 7.49206C11.7727 7.68254 11.835 7.83862 11.9598 7.96032C12.0845 8.08201 12.2457 8.14286 12.4432 8.14286H14.7353V10.4841C14.7353 10.6852 14.7951 10.8492 14.9146 10.9762C15.0342 11.0979 15.1875 11.1587 15.3746 11.1587C15.5722 11.1587 15.7307 11.0979 15.8502 10.9762C15.975 10.8492 16.0373 10.6852 16.0373 10.4841V8.14286H18.3373C18.5348 8.14286 18.6933 8.08201 18.8129 7.96032C18.9376 7.83862 19 7.68254 19 7.49206C19 7.29101 18.9376 7.12963 18.8129 7.00794C18.6933 6.88095 18.5348 6.81746 18.3373 6.81746H16.0373V4.48413C16.0373 4.27778 15.975 4.11376 15.8502 3.99206C15.7307 3.86508 15.5722 3.80159 15.3746 3.80159C15.1875 3.80159 15.0342 3.86508 14.9146 3.99206C14.7951 4.11905 14.7353 4.28307 14.7353 4.48413V6.81746H12.4432C12.2405 6.81746 12.0767 6.88095 11.952 7.00794C11.8324 7.12963 11.7727 7.29101 11.7727 7.49206Z"
		fill="currentColor"
	/>
</svg>
