<svg
	color="rgb(var(--foreground, 0, 0, 0))"
	viewBox="0 0 19 15"
	fill="none"
	xmlns="http://www.w3.org/2000/svg"
>
	<path
		d="M9.17652 15C9.46027 15 9.69011 14.9093 9.86604 14.7279C10.0476 14.5465 10.1384 14.3197 10.1384 14.0476V1.0034C10.1384 0.725624 10.0476 0.490363 9.86604 0.297619C9.68444 0.0992064 9.44892 0 9.1595 0C8.96087 0 8.78211 0.0481859 8.62321 0.144558C8.46998 0.235261 8.28271 0.382653 8.06138 0.586735L4.43504 3.9881C4.37829 4.03912 4.30735 4.06463 4.22222 4.06463H1.77912C1.20594 4.06463 0.766129 4.22336 0.459677 4.54082C0.153226 4.85261 0 5.31463 0 5.92687V9.09014C0 9.70805 0.153226 10.1729 0.459677 10.4847C0.766129 10.7965 1.20594 10.9524 1.77912 10.9524H4.22222C4.30735 10.9524 4.37829 10.9779 4.43504 11.0289L8.06138 14.4643C8.25433 14.6514 8.43877 14.7874 8.61469 14.8724C8.79062 14.9575 8.9779 15 9.17652 15ZM13.1774 11.1139C13.325 11.2103 13.4867 11.2443 13.6626 11.216C13.8386 11.182 13.9833 11.0828 14.0968 10.9184C14.4259 10.4875 14.6813 9.97165 14.8629 9.37075C15.0502 8.76984 15.1438 8.14342 15.1438 7.4915C15.1438 6.83957 15.0502 6.21315 14.8629 5.61225C14.6813 5.01134 14.4259 4.49547 14.0968 4.06463C13.9833 3.90023 13.8386 3.80102 13.6626 3.76701C13.4867 3.73299 13.325 3.76701 13.1774 3.86905C13.0072 3.9881 12.9079 4.14399 12.8795 4.33674C12.8568 4.52381 12.9135 4.70522 13.0497 4.88095C13.2994 5.22109 13.4895 5.61791 13.6201 6.07143C13.7563 6.52494 13.8244 6.9983 13.8244 7.4915C13.8244 7.98469 13.7563 8.45805 13.6201 8.91156C13.4839 9.35941 13.2938 9.75624 13.0497 10.102C12.9192 10.2834 12.8653 10.4677 12.888 10.6548C12.9107 10.8418 13.0072 10.9949 13.1774 11.1139ZM16.3356 13.3333C16.4945 13.4354 16.6619 13.4722 16.8378 13.4439C17.0137 13.4099 17.1585 13.3107 17.272 13.1463C17.8168 12.398 18.2395 11.5306 18.5403 10.5442C18.8468 9.55782 19 8.54025 19 7.4915C19 6.44274 18.8496 5.42234 18.5488 4.43027C18.2481 3.43821 17.8224 2.5737 17.272 1.83673C17.1585 1.67234 17.0137 1.57313 16.8378 1.53912C16.6619 1.5051 16.4945 1.54195 16.3356 1.64966C16.1823 1.75737 16.0915 1.90193 16.0632 2.08333C16.0405 2.25907 16.0915 2.43481 16.2164 2.61054C16.6817 3.26814 17.0421 4.01927 17.2975 4.86395C17.5529 5.70862 17.6806 6.58447 17.6806 7.4915C17.6806 8.39853 17.55 9.27438 17.289 10.119C17.0336 10.958 16.6761 11.7092 16.2164 12.3724C16.0972 12.5482 16.049 12.7268 16.0717 12.9082C16.0944 13.0839 16.1823 13.2256 16.3356 13.3333Z"
		fill="currentColor"
	/>
</svg>
