<svg
	color="rgb(var(--foreground, 0, 0, 0))"
	viewBox="0 0 15 15"
	fill="none"
	xmlns="http://www.w3.org/2000/svg"
>
	<path
		d="M3.23781 10.2114H5.52758C5.60793 10.2114 5.67488 10.2352 5.72844 10.2828L9.19925 13.4857C9.38672 13.6601 9.56347 13.787 9.72951 13.8663C9.89555 13.9456 10.0696 13.9852 10.2517 13.9852C10.4606 13.9852 10.6401 13.9323 10.79 13.8266C10.94 13.7209 11.0471 13.5544 11.1114 13.3272L1.95233 4.29704C1.71666 4.56131 1.59882 4.95772 1.59882 5.48626V8.52273C1.59882 9.09355 1.7354 9.51903 2.00857 9.79915C2.28174 10.074 2.69148 10.2114 3.23781 10.2114ZM11.1676 9.05391V0.935518C11.1676 0.676533 11.082 0.457188 10.9106 0.277484C10.7392 0.0924947 10.5169 0 10.2437 0C10.0562 0 9.88752 0.044926 9.73755 0.134778C9.58757 0.219345 9.40814 0.356765 9.19925 0.54704L5.96947 3.50423C5.92662 3.54651 5.88109 3.56765 5.83289 3.56765H5.59186L11.1676 9.05391ZM13.9475 14.8177C14.0653 14.9392 14.21 15 14.3814 15C14.5581 15 14.7027 14.9392 14.8152 14.8177C14.9384 14.6961 15 14.5507 15 14.3816C15 14.2178 14.9384 14.0751 14.8152 13.9535L1.06052 0.38055C0.937333 0.264271 0.790038 0.206131 0.61864 0.206131C0.447242 0.200846 0.299946 0.258985 0.176754 0.38055C0.058918 0.496829 0 0.642178 0 0.816596C0 0.985729 0.058918 1.12844 0.176754 1.24471L13.9475 14.8177Z"
		fill="currentColor"
	/>
</svg>
