<svg
	color="rgb(var(--foreground, 0, 0, 0))"
	viewBox="0 0 19 15"
	fill="none"
	xmlns="http://www.w3.org/2000/svg"
>
	<path
		d="M8.4046 14.5C8.66448 14.5 8.87498 14.4153 9.03611 14.246C9.20243 14.0767 9.2856 13.8651 9.2856 13.6111V1.43651C9.2856 1.17725 9.20243 0.957672 9.03611 0.777778C8.86979 0.592593 8.65408 0.5 8.389 0.5C8.20708 0.5 8.04336 0.542328 7.89783 0.626984C7.75229 0.71164 7.58077 0.851852 7.38326 1.04762L4.06196 4.22222C4.00998 4.26984 3.94501 4.29365 3.86705 4.29365H1.62946C1.1045 4.29365 0.701682 4.4418 0.421009 4.7381C0.140336 5.0291 0 5.46032 0 6.03175V8.98413C0 9.56085 0.140336 9.99471 0.421009 10.2857C0.701682 10.5767 1.1045 10.7222 1.62946 10.7222H3.86705C3.94501 10.7222 4.00998 10.746 4.06196 10.7937L7.38326 14C7.55998 14.1746 7.7289 14.3016 7.89003 14.381C8.05116 14.4603 8.22268 14.5 8.4046 14.5ZM11.7727 7.49206C11.7727 7.68254 11.835 7.83862 11.9598 7.96032C12.0845 8.08201 12.2457 8.14286 12.4432 8.14286H14.7353V10.4841C14.7353 10.6852 14.7951 10.8492 14.9146 10.9762C15.0342 11.0979 15.1875 11.1587 15.3746 11.1587C15.5722 11.1587 15.7307 11.0979 15.8502 10.9762C15.975 10.8492 16.0373 10.6852 16.0373 10.4841V8.14286H18.3373C18.5348 8.14286 18.6933 8.08201 18.8129 7.96032C18.9376 7.83862 19 7.68254 19 7.49206C19 7.29101 18.9376 7.12963 18.8129 7.00794C18.6933 6.88095 18.5348 6.81746 18.3373 6.81746H16.0373V4.48413C16.0373 4.27778 15.975 4.11376 15.8502 3.99206C15.7307 3.86508 15.5722 3.80159 15.3746 3.80159C15.1875 3.80159 15.0342 3.86508 14.9146 3.99206C14.7951 4.11905 14.7353 4.28307 14.7353 4.48413V6.81746H12.4432C12.2405 6.81746 12.0767 6.88095 11.952 7.00794C11.8324 7.12963 11.7727 7.29101 11.7727 7.49206Z"
		fill="currentColor"
	/>
</svg>
