<svg
	color="rgb(var(--foreground, 0, 0, 0))"
	viewBox="0 0 19 15"
	fill="none"
	xmlns="http://www.w3.org/2000/svg"
>
	<path
		d="M9.51602 8.96011C10.0073 8.96011 10.4612 8.82713 10.8777 8.56117C11.2996 8.28989 11.6387 7.92553 11.895 7.46809C12.1513 7.00532 12.2795 6.49202 12.2795 5.92819C12.2795 5.35904 12.1513 4.85372 11.895 4.41223C11.6387 3.97074 11.2996 3.625 10.8777 3.375C10.4612 3.11968 10.0073 2.99202 9.51602 2.99202C9.03007 2.99202 8.57617 3.12234 8.1543 3.38298C7.73777 3.6383 7.40135 3.98936 7.14503 4.43617C6.8887 4.88298 6.76054 5.38564 6.76054 5.94415C6.76054 6.50798 6.8887 7.01862 7.14503 7.47606C7.40135 7.92819 7.73777 8.28989 8.1543 8.56117C8.57617 8.82713 9.03007 8.96011 9.51602 8.96011ZM5.41484 15H13.6172C14.2099 15 14.6158 14.9202 14.8347 14.7606C15.0537 14.6011 15.1632 14.3723 15.1632 14.0745C15.1632 13.6436 15.0323 13.1915 14.7707 12.7181C14.5143 12.2394 14.1405 11.7926 13.6492 11.3777C13.158 10.9628 12.5652 10.625 11.871 10.3644C11.1768 10.1037 10.3918 9.9734 9.51602 9.9734C8.64559 9.9734 7.86327 10.1037 7.16906 10.3644C6.47485 10.625 5.8821 10.9628 5.39081 11.3777C4.89952 11.7926 4.52305 12.2394 4.26138 12.7181C4.00506 13.1915 3.8769 13.6436 3.8769 14.0745C3.8769 14.3723 3.9837 14.6011 4.1973 14.7606C4.41624 14.9202 4.82209 15 5.41484 15ZM0.65683 1.10106C0.779652 1.10106 0.883783 1.05851 0.969224 0.973404C1.06001 0.882979 1.1054 0.776596 1.1054 0.654255C1.1054 0.531915 1.06001 0.428192 0.969224 0.343085C0.883783 0.25266 0.779652 0.207447 0.65683 0.207447C0.534008 0.207447 0.427206 0.25266 0.336425 0.343085C0.250984 0.428192 0.208263 0.531915 0.208263 0.654255C0.208263 0.776596 0.250984 0.882979 0.336425 0.973404C0.427206 1.05851 0.534008 1.10106 0.65683 1.10106ZM3.18002 1.10106C3.30284 1.10106 3.40697 1.05851 3.49241 0.973404C3.58319 0.882979 3.62858 0.776596 3.62858 0.654255C3.62858 0.531915 3.58319 0.428192 3.49241 0.343085C3.40697 0.25266 3.30284 0.207447 3.18002 0.207447C3.05719 0.207447 2.95039 0.25266 2.85961 0.343085C2.77417 0.428192 2.73145 0.531915 2.73145 0.654255C2.73145 0.776596 2.77417 0.882979 2.85961 0.973404C2.95039 1.05851 3.05719 1.10106 3.18002 1.10106ZM5.7032 1.10106C5.82603 1.10106 5.93016 1.05851 6.0156 0.973404C6.10638 0.882979 6.15177 0.776596 6.15177 0.654255C6.15177 0.531915 6.10638 0.428192 6.0156 0.343085C5.93016 0.25266 5.82603 0.207447 5.7032 0.207447C5.58038 0.207447 5.47358 0.25266 5.3828 0.343085C5.29736 0.428192 5.25464 0.531915 5.25464 0.654255C5.25464 0.776596 5.29736 0.882979 5.3828 0.973404C5.47358 1.05851 5.58038 1.10106 5.7032 1.10106ZM8.2344 1.30053C8.41062 1.30053 8.56282 1.2367 8.69098 1.10904C8.81914 0.981383 8.88322 0.829787 8.88322 0.654255C8.88322 0.473404 8.81914 0.319149 8.69098 0.191489C8.56282 0.0638298 8.41062 0 8.2344 0C8.05284 0 7.89798 0.0638298 7.76981 0.191489C7.64165 0.319149 7.57757 0.473404 7.57757 0.654255C7.57757 0.829787 7.64165 0.981383 7.76981 1.10904C7.89798 1.2367 8.05284 1.30053 8.2344 1.30053ZM10.7576 1.30053C10.9338 1.30053 11.086 1.2367 11.2142 1.10904C11.3423 0.981383 11.4064 0.829787 11.4064 0.654255C11.4064 0.473404 11.3423 0.319149 11.2142 0.191489C11.086 0.0638298 10.9338 0 10.7576 0C10.576 0 10.4212 0.0638298 10.293 0.191489C10.1648 0.319149 10.1008 0.473404 10.1008 0.654255C10.1008 0.829787 10.1648 0.981383 10.293 1.10904C10.4212 1.2367 10.576 1.30053 10.7576 1.30053ZM13.2888 1.10106C13.4116 1.10106 13.5157 1.05851 13.6012 0.973404C13.692 0.882979 13.7374 0.776596 13.7374 0.654255C13.7374 0.531915 13.692 0.428192 13.6012 0.343085C13.5157 0.25266 13.4116 0.207447 13.2888 0.207447C13.166 0.207447 13.0592 0.25266 12.9684 0.343085C12.8829 0.428192 12.8402 0.531915 12.8402 0.654255C12.8402 0.776596 12.8829 0.882979 12.9684 0.973404C13.0592 1.05851 13.166 1.10106 13.2888 1.10106ZM15.82 1.10106C15.9428 1.10106 16.0469 1.05851 16.1324 0.973404C16.2232 0.882979 16.2686 0.776596 16.2686 0.654255C16.2686 0.531915 16.2232 0.428192 16.1324 0.343085C16.0469 0.25266 15.9428 0.207447 15.82 0.207447C15.6972 0.207447 15.5904 0.25266 15.4996 0.343085C15.4088 0.428192 15.3634 0.531915 15.3634 0.654255C15.3634 0.776596 15.4088 0.882979 15.4996 0.973404C15.5904 1.05851 15.6972 1.10106 15.82 1.10106ZM18.3432 1.10106C18.466 1.10106 18.5701 1.05851 18.6556 0.973404C18.7463 0.882979 18.7917 0.776596 18.7917 0.654255C18.7917 0.531915 18.7463 0.428192 18.6556 0.343085C18.5701 0.25266 18.466 0.207447 18.3432 0.207447C18.2204 0.207447 18.1135 0.25266 18.0228 0.343085C17.9373 0.428192 17.8946 0.531915 17.8946 0.654255C17.8946 0.776596 17.9373 0.882979 18.0228 0.973404C18.1135 1.05851 18.2204 1.10106 18.3432 1.10106ZM0.65683 3.85372C0.779652 3.85372 0.883783 3.80851 0.969224 3.71809C1.06001 3.62766 1.1054 3.52128 1.1054 3.39894C1.1054 3.2766 1.06001 3.17287 0.969224 3.08777C0.883783 2.99734 0.779652 2.95213 0.65683 2.95213C0.534008 2.95213 0.427206 2.99734 0.336425 3.08777C0.250984 3.17287 0.208263 3.2766 0.208263 3.39894C0.208263 3.52128 0.250984 3.62766 0.336425 3.71809C0.427206 3.80851 0.534008 3.85372 0.65683 3.85372ZM3.18002 4.05319C3.35624 4.05319 3.50843 3.98936 3.63659 3.8617C3.7701 3.73404 3.83685 3.57979 3.83685 3.39894C3.83685 3.2234 3.7701 3.07181 3.63659 2.94415C3.50843 2.81649 3.35624 2.75266 3.18002 2.75266C2.99845 2.75266 2.84359 2.81649 2.71543 2.94415C2.58727 3.07181 2.52319 3.2234 2.52319 3.39894C2.52319 3.57979 2.58727 3.73404 2.71543 3.8617C2.84359 3.98936 2.99845 4.05319 3.18002 4.05319ZM5.7032 4.05319C5.79399 4.05319 5.89278 4.02926 5.99958 3.98138C6.0957 3.79521 6.21585 3.60106 6.36003 3.39894C6.36003 3.2234 6.29595 3.07181 6.16779 2.94415C6.03963 2.81649 5.88477 2.75266 5.7032 2.75266C5.52698 2.75266 5.37479 2.81649 5.24663 2.94415C5.11847 3.07181 5.05438 3.2234 5.05438 3.39894C5.05438 3.57979 5.11847 3.73404 5.24663 3.8617C5.37479 3.98936 5.52698 4.05319 5.7032 4.05319ZM13.2888 4.05319C13.4703 4.05319 13.6252 3.98936 13.7534 3.8617C13.8815 3.73404 13.9456 3.57979 13.9456 3.39894C13.9456 3.2234 13.8815 3.07181 13.7534 2.94415C13.6252 2.81649 13.4703 2.75266 13.2888 2.75266C13.1232 2.75266 12.9764 2.80851 12.8482 2.92021C12.7254 3.03191 12.656 3.16755 12.64 3.32713C12.8055 3.55053 12.947 3.77926 13.0645 4.0133C13.1286 4.03989 13.2033 4.05319 13.2888 4.05319ZM15.82 4.05319C15.9962 4.05319 16.1484 3.98936 16.2766 3.8617C16.4047 3.73404 16.4688 3.57979 16.4688 3.39894C16.4688 3.2234 16.4047 3.07181 16.2766 2.94415C16.1484 2.81649 15.9962 2.75266 15.82 2.75266C15.6384 2.75266 15.4836 2.81649 15.3554 2.94415C15.2272 3.07181 15.1632 3.2234 15.1632 3.39894C15.1632 3.57979 15.2272 3.73404 15.3554 3.8617C15.4836 3.98936 15.6384 4.05319 15.82 4.05319ZM18.3432 3.85372C18.466 3.85372 18.5701 3.80851 18.6556 3.71809C18.7463 3.62766 18.7917 3.52128 18.7917 3.39894C18.7917 3.2766 18.7463 3.17287 18.6556 3.08777C18.5701 2.99734 18.466 2.95213 18.3432 2.95213C18.2204 2.95213 18.1135 2.99734 18.0228 3.08777C17.9373 3.17287 17.8946 3.2766 17.8946 3.39894C17.8946 3.52128 17.9373 3.62766 18.0228 3.71809C18.1135 3.80851 18.2204 3.85372 18.3432 3.85372ZM0.65683 6.80585C0.833052 6.80585 0.985245 6.74202 1.11341 6.61436C1.24157 6.4867 1.30565 6.33245 1.30565 6.1516C1.30565 5.97074 1.24157 5.81649 1.11341 5.68883C0.985245 5.56117 0.833052 5.49734 0.65683 5.49734C0.475267 5.49734 0.320405 5.56117 0.192243 5.68883C0.0640809 5.81649 0 5.97074 0 6.1516C0 6.33245 0.0640809 6.4867 0.192243 6.61436C0.320405 6.74202 0.475267 6.80585 0.65683 6.80585ZM3.18002 7.00532C3.41498 7.00532 3.61523 6.92287 3.78078 6.75798C3.95166 6.58777 4.0371 6.38564 4.0371 6.1516C4.0371 5.91755 3.95166 5.71809 3.78078 5.55319C3.61523 5.38298 3.41498 5.29787 3.18002 5.29787C2.94505 5.29787 2.74213 5.38298 2.57125 5.55319C2.40571 5.71809 2.32293 5.91755 2.32293 6.1516C2.32293 6.38564 2.40571 6.58777 2.57125 6.75798C2.74213 6.92287 2.94505 7.00532 3.18002 7.00532ZM4.84612 6.1516C4.84612 6.38032 4.92622 6.57713 5.08643 6.74202C5.24663 6.90692 5.43887 6.99468 5.66315 7.00532C5.57771 6.68085 5.53499 6.32713 5.53499 5.94415C5.53499 5.83245 5.53766 5.7234 5.543 5.61702C5.55368 5.51064 5.56703 5.40692 5.58305 5.30585C5.37479 5.33777 5.19857 5.43351 5.05438 5.59309C4.91554 5.75266 4.84612 5.93883 4.84612 6.1516ZM14.1539 6.1516C14.1539 5.94947 14.0871 5.77128 13.9536 5.61702C13.8201 5.45745 13.6573 5.35638 13.465 5.31383C13.4917 5.48936 13.5051 5.69415 13.5051 5.92819C13.5051 6.31649 13.4623 6.67553 13.3769 7.00532C13.5905 6.97872 13.7721 6.88564 13.9216 6.72606C14.0764 6.56117 14.1539 6.36968 14.1539 6.1516ZM15.82 7.00532C16.0549 7.00532 16.2552 6.92287 16.4207 6.75798C16.5916 6.58777 16.6771 6.38564 16.6771 6.1516C16.6771 5.91755 16.5916 5.71809 16.4207 5.55319C16.2552 5.38298 16.0549 5.29787 15.82 5.29787C15.585 5.29787 15.3821 5.38298 15.2112 5.55319C15.0403 5.71809 14.9549 5.91755 14.9549 6.1516C14.9549 6.38564 15.0403 6.58777 15.2112 6.75798C15.3821 6.92287 15.585 7.00532 15.82 7.00532ZM18.3432 6.80585C18.5194 6.80585 18.6716 6.74202 18.7997 6.61436C18.9333 6.4867 19 6.33245 19 6.1516C19 5.97074 18.9333 5.81649 18.7997 5.68883C18.6716 5.56117 18.5194 5.49734 18.3432 5.49734C18.1616 5.49734 18.0067 5.56117 17.8786 5.68883C17.7504 5.81649 17.6863 5.97074 17.6863 6.1516C17.6863 6.33245 17.7504 6.4867 17.8786 6.61436C18.0067 6.74202 18.1616 6.80585 18.3432 6.80585ZM0.65683 9.55053C0.833052 9.55053 0.985245 9.4867 1.11341 9.35904C1.24157 9.23138 1.30565 9.07979 1.30565 8.90425C1.30565 8.7234 1.24157 8.56915 1.11341 8.44149C0.985245 8.31383 0.833052 8.25 0.65683 8.25C0.475267 8.25 0.320405 8.31383 0.192243 8.44149C0.0640809 8.56915 0 8.7234 0 8.90425C0 9.07979 0.0640809 9.23138 0.192243 9.35904C0.320405 9.4867 0.475267 9.55053 0.65683 9.55053ZM3.18002 9.75798C3.41498 9.75798 3.61523 9.67553 3.78078 9.51064C3.95166 9.34043 4.0371 9.1383 4.0371 8.90425C4.0371 8.67021 3.95166 8.46809 3.78078 8.29787C3.61523 8.12766 3.41498 8.04255 3.18002 8.04255C2.94505 8.04255 2.74213 8.12766 2.57125 8.29787C2.40571 8.46809 2.32293 8.67021 2.32293 8.90425C2.32293 9.1383 2.40571 9.34043 2.57125 9.51064C2.74213 9.67553 2.94505 9.75798 3.18002 9.75798ZM5.33474 9.67819C5.52164 9.56117 5.71655 9.45479 5.91948 9.35904C6.1224 9.25798 6.33066 9.16223 6.54427 9.07181C6.59233 8.81117 6.53092 8.57447 6.36003 8.3617C6.19449 8.14894 5.97555 8.04255 5.7032 8.04255C5.46824 8.04255 5.26532 8.12766 5.09444 8.29787C4.92889 8.46809 4.84612 8.67021 4.84612 8.90425C4.84612 9.06915 4.89151 9.22074 4.98229 9.35904C5.07307 9.49734 5.19056 9.60372 5.33474 9.67819ZM13.6893 9.65425C13.8228 9.58511 13.9323 9.48404 14.0177 9.35106C14.1085 9.21277 14.1539 9.06383 14.1539 8.90425C14.1539 8.67021 14.0684 8.46809 13.8976 8.29787C13.7267 8.12766 13.5238 8.04255 13.2888 8.04255C13.0218 8.04255 12.8028 8.14628 12.632 8.35372C12.4611 8.56117 12.4023 8.79787 12.4557 9.06383C12.6747 9.14362 12.8856 9.23404 13.0885 9.33511C13.2968 9.43617 13.497 9.54255 13.6893 9.65425ZM15.82 9.75798C16.0549 9.75798 16.2552 9.67553 16.4207 9.51064C16.5916 9.34043 16.6771 9.1383 16.6771 8.90425C16.6771 8.67021 16.5916 8.46809 16.4207 8.29787C16.2552 8.12766 16.0549 8.04255 15.82 8.04255C15.585 8.04255 15.3821 8.12766 15.2112 8.29787C15.0403 8.46809 14.9549 8.67021 14.9549 8.90425C14.9549 9.1383 15.0403 9.34043 15.2112 9.51064C15.3821 9.67553 15.585 9.75798 15.82 9.75798ZM18.3432 9.55053C18.5194 9.55053 18.6716 9.4867 18.7997 9.35904C18.9333 9.23138 19 9.07979 19 8.90425C19 8.7234 18.9333 8.56915 18.7997 8.44149C18.6716 8.31383 18.5194 8.25 18.3432 8.25C18.1616 8.25 18.0067 8.31383 17.8786 8.44149C17.7504 8.56915 17.6863 8.7234 17.6863 8.90425C17.6863 9.07979 17.7504 9.23138 17.8786 9.35904C18.0067 9.4867 18.1616 9.55053 18.3432 9.55053ZM0.65683 12.0957C0.779652 12.0957 0.883783 12.0532 0.969224 11.9681C1.06001 11.8777 1.1054 11.7713 1.1054 11.6489C1.1054 11.5266 1.06001 11.4229 0.969224 11.3378C0.883783 11.2473 0.779652 11.2021 0.65683 11.2021C0.534008 11.2021 0.427206 11.2473 0.336425 11.3378C0.250984 11.4229 0.208263 11.5266 0.208263 11.6489C0.208263 11.7713 0.250984 11.8777 0.336425 11.9681C0.427206 12.0532 0.534008 12.0957 0.65683 12.0957ZM2.89966 12.2314C3.09191 11.859 3.3242 11.5 3.59654 11.1543C3.47372 11.0532 3.33488 11.0027 3.18002 11.0027C2.99845 11.0027 2.84359 11.0665 2.71543 11.1941C2.58727 11.3218 2.52319 11.4734 2.52319 11.6489C2.52319 11.9255 2.64868 12.1197 2.89966 12.2314ZM16.1324 12.2234C16.3567 12.0904 16.4688 11.8989 16.4688 11.6489C16.4688 11.4734 16.4047 11.3218 16.2766 11.1941C16.1484 11.0665 15.9962 11.0027 15.82 11.0027C15.6758 11.0027 15.5423 11.0452 15.4195 11.1303C15.6918 11.4654 15.9295 11.8298 16.1324 12.2234ZM18.3432 12.0957C18.466 12.0957 18.5701 12.0532 18.6556 11.9681C18.7463 11.8777 18.7917 11.7713 18.7917 11.6489C18.7917 11.5266 18.7463 11.4229 18.6556 11.3378C18.5701 11.2473 18.466 11.2021 18.3432 11.2021C18.2204 11.2021 18.1135 11.2473 18.0228 11.3378C17.9373 11.4229 17.8946 11.5266 17.8946 11.6489C17.8946 11.7713 17.9373 11.8777 18.0228 11.9681C18.1135 12.0532 18.2204 12.0957 18.3432 12.0957ZM0.65683 14.8484C0.779652 14.8484 0.883783 14.8032 0.969224 14.7128C1.06001 14.6277 1.1054 14.5239 1.1054 14.4016C1.1054 14.2793 1.06001 14.1729 0.969224 14.0824C0.883783 13.9973 0.779652 13.9548 0.65683 13.9548C0.534008 13.9548 0.427206 13.9973 0.336425 14.0824C0.250984 14.1729 0.208263 14.2793 0.208263 14.4016C0.208263 14.5239 0.250984 14.6277 0.336425 14.7128C0.427206 14.8032 0.534008 14.8484 0.65683 14.8484ZM18.3432 14.8484C18.466 14.8484 18.5701 14.8032 18.6556 14.7128C18.7463 14.6277 18.7917 14.5239 18.7917 14.4016C18.7917 14.2793 18.7463 14.1729 18.6556 14.0824C18.5701 13.9973 18.466 13.9548 18.3432 13.9548C18.2204 13.9548 18.1135 13.9973 18.0228 14.0824C17.9373 14.1729 17.8946 14.2793 17.8946 14.4016C17.8946 14.5239 17.9373 14.6277 18.0228 14.7128C18.1135 14.8032 18.2204 14.8484 18.3432 14.8484Z"
		fill="currentColor"
	/>
</svg>
