<svg
	color="rgb(var(--foreground, 0, 0, 0))"
	viewBox="0 0 21 19"
	fill="none"
	xmlns="http://www.w3.org/2000/svg"
>
	<path
		d="M4.26415 4.58375C4.69388 4.58375 5.0581 4.43069 5.35682 4.12458C5.66077 3.81847 5.81275 3.44903 5.81275 3.01625C5.81275 2.58347 5.66077 2.21667 5.35682 1.91583C5.0581 1.60972 4.69388 1.45667 4.26415 1.45667C3.83443 1.45667 3.46758 1.60972 3.16363 1.91583C2.85967 2.21667 2.7077 2.58347 2.7077 3.01625C2.7077 3.44903 2.85967 3.81847 3.16363 4.12458C3.46758 4.43069 3.83443 4.58375 4.26415 4.58375ZM3.32871 17.4404C3.52261 17.4404 3.68507 17.3718 3.81608 17.2346C3.95234 17.1026 4.02047 16.939 4.02047 16.7437V13.8067C4.02047 13.6483 4.1017 13.5692 4.26415 13.5692C4.42137 13.5692 4.49998 13.6483 4.49998 13.8067V16.7437C4.49998 16.939 4.56549 17.1026 4.6965 17.2346C4.83276 17.3718 4.99784 17.4404 5.19174 17.4404C5.3804 17.4404 5.54286 17.3718 5.67912 17.2346C5.81537 17.1026 5.8835 16.939 5.8835 16.7437V13.8067H6.84253C7.03643 13.8067 7.17269 13.7354 7.25129 13.5929C7.3299 13.4504 7.34038 13.2842 7.28274 13.0942L5.84419 8.46292C5.80751 8.35208 5.82061 8.26764 5.8835 8.20958C5.95163 8.14625 6.02762 8.1225 6.11146 8.13833C6.20055 8.15417 6.26344 8.22014 6.30013 8.33625L7.19627 11.2258C7.2644 11.4475 7.37969 11.5979 7.54215 11.6771C7.70985 11.751 7.87755 11.7642 8.04525 11.7167C8.21294 11.6692 8.34396 11.5715 8.43829 11.4237C8.53262 11.276 8.54572 11.0886 8.47759 10.8617L7.64434 8.18583C7.46616 7.6 7.26178 7.09861 7.03119 6.68167C6.80584 6.26472 6.49665 5.94806 6.1036 5.73167C5.71056 5.51 5.17602 5.39917 4.49998 5.39917H4.02047C3.34443 5.39917 2.80989 5.51 2.41684 5.73167C2.0238 5.94806 1.71198 6.26472 1.4814 6.68167C1.25605 7.09861 1.05167 7.6 0.868248 8.18583L0.0428546 10.8617C-0.0252732 11.0886 -0.0121717 11.276 0.082159 11.4237C0.17649 11.5715 0.307505 11.6692 0.475204 11.7167C0.642903 11.7642 0.807982 11.751 0.97044 11.6771C1.1329 11.5979 1.25081 11.4475 1.32418 11.2258L2.22032 8.33625C2.25177 8.22014 2.31203 8.15417 2.40112 8.13833C2.49021 8.1225 2.5662 8.14625 2.62909 8.20958C2.69198 8.26764 2.70508 8.35208 2.66839 8.46292L1.23771 13.0942C1.17482 13.2842 1.18268 13.4504 1.26129 13.5929C1.3399 13.7354 1.47616 13.8067 1.67006 13.8067H2.62909V16.7437C2.62909 16.939 2.69722 17.1026 2.83347 17.2346C2.96973 17.3718 3.13481 17.4404 3.32871 17.4404ZM17.6434 4.58375C18.0731 4.58375 18.4373 4.43069 18.7361 4.12458C19.04 3.81847 19.192 3.44903 19.192 3.01625C19.192 2.58347 19.04 2.21667 18.7361 1.91583C18.4373 1.60972 18.0731 1.45667 17.6434 1.45667C17.2137 1.45667 16.8468 1.60972 16.5429 1.91583C16.2389 2.21667 16.0869 2.58347 16.0869 3.01625C16.0869 3.44903 16.2389 3.81847 16.5429 4.12458C16.8468 4.43069 17.2137 4.58375 17.6434 4.58375ZM16.708 17.4404C16.9071 17.4404 17.0722 17.3718 17.2032 17.2346C17.3342 17.1026 17.3997 16.939 17.3997 16.7437V11.6454C17.3997 11.4871 17.4809 11.4079 17.6434 11.4079C17.8006 11.4079 17.8792 11.4871 17.8792 11.6454V16.7437C17.8792 16.939 17.9474 17.1026 18.0836 17.2346C18.2199 17.3718 18.3849 17.4404 18.5788 17.4404C18.7727 17.4404 18.9352 17.3718 19.0662 17.2346C19.2025 17.1026 19.2706 16.939 19.2706 16.7437V8.36792C19.2706 8.21486 19.3492 8.13833 19.5064 8.13833C19.6584 8.13833 19.7344 8.21486 19.7344 8.36792V11.1308C19.7344 11.3103 19.7947 11.4633 19.9152 11.59C20.041 11.7167 20.1929 11.78 20.3711 11.78C20.5441 11.78 20.6908 11.7167 20.8113 11.59C20.9371 11.4633 21 11.3103 21 11.1308V8.04333C21 7.51556 20.8795 7.05375 20.6384 6.65792C20.4026 6.26208 20.0698 5.95597 19.6401 5.73958C19.2156 5.51792 18.723 5.40708 18.1622 5.40708H17.1246C16.5638 5.40708 16.0686 5.51792 15.6389 5.73958C15.2144 5.95597 14.8816 6.26208 14.6405 6.65792C14.3995 7.05375 14.2789 7.51556 14.2789 8.04333V11.1308C14.2789 11.3103 14.3418 11.4633 14.4676 11.59C14.5934 11.7167 14.7427 11.78 14.9157 11.78C15.0938 11.78 15.2432 11.7167 15.3637 11.59C15.4895 11.4633 15.5524 11.3103 15.5524 11.1308V8.36792C15.5524 8.21486 15.6284 8.13833 15.7804 8.13833C15.9376 8.13833 16.0162 8.21486 16.0162 8.36792V16.7437C16.0162 16.939 16.0817 17.1026 16.2127 17.2346C16.349 17.3718 16.514 17.4404 16.708 17.4404ZM11.1582 19C11.3363 19 11.4857 18.9393 11.6062 18.8179C11.732 18.7018 11.7949 18.5567 11.7949 18.3825V0.6175C11.7949 0.438056 11.732 0.290278 11.6062 0.174167C11.4857 0.0580556 11.3363 0 11.1582 0C10.9852 0 10.8359 0.0580556 10.7101 0.174167C10.5896 0.290278 10.5293 0.438056 10.5293 0.6175V18.3825C10.5293 18.5567 10.5896 18.7018 10.7101 18.8179C10.8359 18.9393 10.9852 19 11.1582 19Z"
		fill="currentColor"
	/>
</svg>
