<svg
	color="rgb(var(--foreground, 0, 0, 0))"
	viewBox="0 0 20 17"
	fill="none"
	xmlns="http://www.w3.org/2000/svg"
>
	<path
		d="M5.51002 3.28565C5.81474 3.28565 6.09153 3.2145 6.34039 3.0722C6.58924 2.92481 6.78731 2.72661 6.93459 2.47758C7.08188 2.22855 7.15552 1.95157 7.15552 1.64664C7.15552 1.3417 7.08188 1.06472 6.93459 0.815695C6.78731 0.566667 6.58924 0.36846 6.34039 0.221076C6.09153 0.0736921 5.81474 0 5.51002 0C5.2053 0 4.92852 0.0736921 4.67966 0.221076C4.4308 0.36846 4.23274 0.566667 4.08545 0.815695C3.93817 1.06472 3.86453 1.3417 3.86453 1.64664C3.86453 1.95157 3.93817 2.22855 4.08545 2.47758C4.23274 2.72661 4.4308 2.92481 4.67966 3.0722C4.92852 3.2145 5.2053 3.28565 5.51002 3.28565ZM5.51002 10.665C5.66746 10.665 5.78681 10.7235 5.86807 10.8404C5.94933 10.9573 6.03313 11.1529 6.11947 11.4274C6.17025 11.5798 6.23881 11.8161 6.32515 12.1363C6.41149 12.4565 6.50545 12.8173 6.60702 13.2188C6.70859 13.6152 6.81017 14.0167 6.91174 14.4233C7.01839 14.8299 7.11489 15.2009 7.20122 15.5363C7.28756 15.8768 7.35612 16.1411 7.40691 16.3291C7.5288 16.7764 7.77258 17 8.13824 17C8.38202 17 8.56739 16.906 8.69436 16.7179C8.8264 16.5299 8.85688 16.3164 8.78577 16.0776C8.77562 16.042 8.74006 15.8997 8.67912 15.6507C8.61818 15.4016 8.542 15.0865 8.45058 14.7054C8.36424 14.3242 8.26775 13.9126 8.1611 13.4704C8.05952 13.0283 7.96049 12.5963 7.86399 12.1744C7.7675 11.7475 7.6837 11.3689 7.6126 11.0386C7.5415 10.7031 7.49325 10.4567 7.46786 10.2991C7.43738 10.0907 7.41199 9.83916 7.39168 9.54439C7.37136 9.24963 7.35359 8.94215 7.33835 8.62197C7.32819 8.30179 7.32057 7.99686 7.3155 7.70718C7.31042 7.41241 7.30788 7.16592 7.30788 6.96771C7.30788 6.90673 7.33327 6.86861 7.38406 6.85336C7.43484 6.83812 7.48055 6.8559 7.52118 6.90673C7.66338 7.10493 7.8259 7.33617 8.00874 7.60045C8.19665 7.86472 8.38202 8.12646 8.56485 8.38565C8.75276 8.64484 8.91528 8.871 9.0524 9.06413C9.19461 9.25725 9.2911 9.38431 9.34189 9.44529C9.4587 9.57235 9.59836 9.64858 9.76088 9.67399C9.92848 9.6994 10.0859 9.66891 10.2332 9.58251C10.4313 9.48087 10.5532 9.34111 10.5989 9.16323C10.6496 8.98027 10.6344 8.8151 10.5532 8.66771C10.5227 8.61181 10.4871 8.55591 10.4465 8.5C10.411 8.43901 10.3729 8.38057 10.3322 8.32466L8.35916 5.42018C8.15094 5.11016 7.91732 4.85859 7.65831 4.66547C7.40437 4.46726 7.10219 4.32242 6.75176 4.23094C6.40641 4.13438 5.9925 4.0861 5.51002 4.0861C5.02755 4.0861 4.6111 4.13438 4.26067 4.23094C3.91532 4.32242 3.61314 4.46726 3.35412 4.66547C3.10019 4.85859 2.86911 5.11016 2.66088 5.42018L0.687817 8.32466C0.647187 8.38057 0.606558 8.43901 0.565928 8.5C0.530378 8.55591 0.497366 8.61181 0.466894 8.66771C0.385635 8.8151 0.36786 8.98027 0.413568 9.16323C0.464355 9.34111 0.588782 9.48087 0.786851 9.58251C0.934133 9.66891 1.08903 9.6994 1.25155 9.67399C1.41915 9.64858 1.55881 9.57235 1.67054 9.44529C1.72641 9.38431 1.8229 9.25725 1.96003 9.06413C2.10223 8.871 2.26475 8.64484 2.44758 8.38565C2.63041 8.12646 2.81578 7.86726 3.0037 7.60807C3.19161 7.3438 3.35666 7.11002 3.49887 6.90673C3.53442 6.8559 3.57759 6.84066 3.62837 6.86099C3.68424 6.87623 3.71217 6.91435 3.71217 6.97534C3.71217 7.17354 3.70963 7.41749 3.70455 7.70718C3.69947 7.99686 3.68932 8.30179 3.67408 8.62197C3.66392 8.94215 3.64869 9.24963 3.62837 9.54439C3.60806 9.83916 3.58013 10.0907 3.54457 10.2991C3.51918 10.4567 3.47093 10.7031 3.39983 11.0386C3.32873 11.3689 3.24493 11.7475 3.14844 12.1744C3.05702 12.5963 2.95799 13.0283 2.85133 13.4704C2.74976 13.9126 2.65327 14.3242 2.56185 14.7054C2.47043 15.0865 2.39425 15.4016 2.33331 15.6507C2.27744 15.8997 2.24443 16.042 2.23427 16.0776C2.16317 16.3164 2.19111 16.5299 2.31807 16.7179C2.45012 16.906 2.63803 17 2.88181 17C3.24747 17 3.49125 16.7764 3.61314 16.3291C3.66392 16.1411 3.73249 15.8768 3.81882 15.5363C3.90516 15.2009 3.99912 14.8299 4.10069 14.4233C4.20226 14.0167 4.30384 13.6152 4.40541 13.2188C4.51206 12.8173 4.60856 12.4565 4.6949 12.1363C4.78123 11.8161 4.8498 11.5798 4.90058 11.4274C4.98692 11.1529 5.07072 10.9573 5.15198 10.8404C5.23324 10.7235 5.35258 10.665 5.51002 10.665ZM14.2707 3.28565C14.5755 3.28565 14.8523 3.2145 15.1011 3.0722C15.35 2.92481 15.548 2.72661 15.6953 2.47758C15.8426 2.22855 15.9162 1.95157 15.9162 1.64664C15.9162 1.3417 15.8426 1.06472 15.6953 0.815695C15.548 0.566667 15.35 0.36846 15.1011 0.221076C14.8523 0.0736921 14.5755 0 14.2707 0C13.966 0 13.6892 0.0736921 13.4404 0.221076C13.1915 0.36846 12.9935 0.566667 12.8462 0.815695C12.6989 1.06472 12.6253 1.3417 12.6253 1.64664C12.6253 1.95157 12.6989 2.22855 12.8462 2.47758C12.9935 2.72661 13.1915 2.92481 13.4404 3.0722C13.6892 3.2145 13.966 3.28565 14.2707 3.28565ZM14.2707 10.665C14.4282 10.665 14.5475 10.7235 14.6288 10.8404C14.7101 10.9573 14.7938 11.1529 14.8802 11.4274C14.931 11.5798 14.9995 11.8161 15.0859 12.1363C15.1722 12.4565 15.2662 12.8173 15.3677 13.2188C15.4693 13.6152 15.5709 14.0167 15.6725 14.4233C15.7791 14.8299 15.8756 15.2009 15.9619 15.5363C16.0483 15.8768 16.1168 16.1411 16.1676 16.3291C16.2895 16.7764 16.5333 17 16.899 17C17.1427 17 17.3281 16.906 17.4551 16.7179C17.5871 16.5299 17.6176 16.3164 17.5465 16.0776C17.5363 16.042 17.5008 15.8997 17.4398 15.6507C17.3789 15.4016 17.3027 15.0865 17.2113 14.7054C17.125 14.3242 17.0285 13.9126 16.9218 13.4704C16.8202 13.0283 16.7212 12.5963 16.6247 12.1744C16.5282 11.7475 16.4444 11.3689 16.3733 11.0386C16.3022 10.7031 16.254 10.4567 16.2286 10.2991C16.1981 10.0907 16.1727 9.83916 16.1524 9.54439C16.1321 9.24963 16.1143 8.94215 16.0991 8.62197C16.0889 8.30179 16.0813 7.99686 16.0762 7.70718C16.0711 7.41241 16.0686 7.16592 16.0686 6.96771C16.0686 6.90673 16.094 6.86861 16.1448 6.85336C16.1956 6.83812 16.2413 6.8559 16.2819 6.90673C16.4241 7.10493 16.5866 7.33617 16.7695 7.60045C16.9574 7.86472 17.1427 8.12646 17.3256 8.38565C17.5135 8.64484 17.676 8.871 17.8131 9.06413C17.9553 9.25725 18.0518 9.38431 18.1026 9.44529C18.2194 9.57235 18.3591 9.64858 18.5216 9.67399C18.6892 9.6994 18.8466 9.66891 18.9939 9.58251C19.192 9.48087 19.3139 9.34111 19.3596 9.16323C19.4104 8.98027 19.3951 8.8151 19.3139 8.66771C19.2834 8.61181 19.2479 8.55591 19.2072 8.5C19.1717 8.43901 19.1336 8.38057 19.093 8.32466L17.1199 5.42018C16.9117 5.11016 16.678 4.85859 16.419 4.66547C16.1651 4.46726 15.8629 4.32242 15.5125 4.23094C15.1671 4.13438 14.7532 4.0861 14.2707 4.0861C13.7883 4.0861 13.3718 4.13438 13.0214 4.23094C12.676 4.32242 12.3739 4.46726 12.1148 4.66547C11.8609 4.85859 11.6298 5.11016 11.4216 5.42018L9.44854 8.32466C9.40791 8.38057 9.36728 8.43901 9.32665 8.5C9.2911 8.55591 9.25809 8.61181 9.22762 8.66771C9.14636 8.8151 9.12858 8.98027 9.17429 9.16323C9.22508 9.34111 9.34951 9.48087 9.54757 9.58251C9.69486 9.66891 9.84976 9.6994 10.0123 9.67399C10.1799 9.64858 10.3195 9.57235 10.4313 9.44529C10.4871 9.38431 10.5836 9.25725 10.7208 9.06413C10.863 8.871 11.0255 8.64484 11.2083 8.38565C11.3911 8.12646 11.5765 7.86726 11.7644 7.60807C11.9523 7.3438 12.1174 7.11002 12.2596 6.90673C12.2951 6.8559 12.3383 6.84066 12.3891 6.86099C12.445 6.87623 12.4729 6.91435 12.4729 6.97534C12.4729 7.17354 12.4704 7.41749 12.4653 7.70718C12.4602 7.99686 12.45 8.30179 12.4348 8.62197C12.4246 8.94215 12.4094 9.24963 12.3891 9.54439C12.3688 9.83916 12.3408 10.0907 12.3053 10.2991C12.2799 10.4567 12.2317 10.7031 12.1606 11.0386C12.0895 11.3689 12.0057 11.7475 11.9092 12.1744C11.8177 12.5963 11.7187 13.0283 11.6121 13.4704C11.5105 13.9126 11.414 14.3242 11.3226 14.7054C11.2312 15.0865 11.155 15.4016 11.094 15.6507C11.0382 15.8997 11.0052 16.042 10.995 16.0776C10.9239 16.3164 10.9518 16.5299 11.0788 16.7179C11.2108 16.906 11.3988 17 11.6425 17C12.0082 17 12.252 16.7764 12.3739 16.3291C12.4246 16.1411 12.4932 15.8768 12.5795 15.5363C12.6659 15.2009 12.7598 14.8299 12.8614 14.4233C12.963 14.0167 13.0646 13.6152 13.1661 13.2188C13.2728 12.8173 13.3693 12.4565 13.4556 12.1363C13.542 11.8161 13.6105 11.5798 13.6613 11.4274C13.7476 11.1529 13.8314 10.9573 13.9127 10.8404C13.994 10.7235 14.1133 10.665 14.2707 10.665Z"
		fill="currentColor"
	/>
</svg>
