<svg
	color="rgb(var(--foreground, 0, 0, 0))"
	viewBox="0 0 24 17"
	fill="none"
	xmlns="http://www.w3.org/2000/svg"
>
	<path
		d="M5.53374 3.28565C5.83987 3.28565 6.11794 3.2145 6.36795 3.0722C6.61796 2.92481 6.81694 2.72661 6.96491 2.47758C7.11287 2.22855 7.18685 1.95157 7.18685 1.64664C7.18685 1.3417 7.11287 1.06472 6.96491 0.815695C6.81694 0.566667 6.61796 0.36846 6.36795 0.221076C6.11794 0.0736921 5.83987 0 5.53374 0C5.22761 0 4.94954 0.0736921 4.69953 0.221076C4.44952 0.36846 4.25054 0.566667 4.10257 0.815695C3.95461 1.06472 3.88063 1.3417 3.88063 1.64664C3.88063 1.95157 3.95461 2.22855 4.10257 2.47758C4.25054 2.72661 4.44952 2.92481 4.69953 3.0722C4.94954 3.2145 5.22761 3.28565 5.53374 3.28565ZM2.89335 17C3.26071 17 3.50562 16.7764 3.62807 16.3291C3.67909 16.1411 3.74797 15.8768 3.83471 15.5363C3.92144 15.2009 4.01584 14.8299 4.11788 14.4233C4.21992 14.0167 4.32197 13.6152 4.42401 13.2188C4.53116 12.8173 4.6281 12.4565 4.71484 12.1363C4.80157 11.8161 4.87045 11.5798 4.92148 11.4274C5.00821 11.1529 5.0924 10.9573 5.17403 10.8404C5.25567 10.7235 5.37557 10.665 5.53374 10.665C5.69191 10.665 5.81181 10.7235 5.89345 10.8404C5.97508 10.9573 6.05927 11.1529 6.146 11.4274C6.19703 11.5798 6.26591 11.8161 6.35264 12.1363C6.43938 12.4565 6.53377 12.8173 6.63582 13.2188C6.73786 13.6152 6.8399 14.0167 6.94195 14.4233C7.04909 14.8299 7.14604 15.2009 7.23277 15.5363C7.31951 15.8768 7.38839 16.1411 7.43941 16.3291C7.56186 16.7764 7.80677 17 8.17413 17C8.41903 17 8.60526 16.906 8.73282 16.7179C8.86548 16.5299 8.89609 16.3164 8.82466 16.0776C8.81445 16.042 8.77874 15.8997 8.71751 15.6507C8.65629 15.4016 8.57975 15.0865 8.48791 14.7054C8.40118 14.3242 8.30423 13.9126 8.19709 13.4704C8.09504 13.0283 7.99555 12.5963 7.89861 12.1744C7.80167 11.7475 7.71748 11.3689 7.64605 11.0386C7.57462 10.7031 7.52615 10.4567 7.50064 10.2991C7.47003 10.0907 7.44451 9.83916 7.42411 9.54439C7.4037 9.24963 7.38584 8.94215 7.37053 8.62197C7.36033 8.30179 7.35267 7.99686 7.34757 7.70718C7.34247 7.41241 7.33992 7.16592 7.33992 6.96771C7.33992 6.90673 7.36543 6.86861 7.41645 6.85336C7.46747 6.83812 7.51339 6.8559 7.55421 6.90673L8.41903 8.11121C8.46495 7.87743 8.58996 7.65889 8.79405 7.45561C9.00324 7.25232 9.266 7.14813 9.58234 7.14305L8.39607 5.42018C8.18688 5.11525 7.95218 4.86368 7.69197 4.66547C7.43686 4.46726 7.13328 4.32242 6.78123 4.23094C6.43428 4.13438 6.01845 4.0861 5.53374 4.0861C5.04903 4.0861 4.63065 4.13438 4.2786 4.23094C3.93165 4.32242 3.62807 4.46726 3.36786 4.66547C3.11275 4.85859 2.8806 5.11016 2.67141 5.42018L0.689201 8.32466C0.648383 8.38057 0.607566 8.43901 0.566748 8.5C0.531033 8.55591 0.497868 8.61181 0.467255 8.66771C0.38562 8.8151 0.367762 8.98027 0.413682 9.16323C0.464704 9.34111 0.589708 9.48087 0.788694 9.58251C0.936658 9.66891 1.09227 9.6994 1.25555 9.67399C1.42392 9.64858 1.56423 9.57235 1.67648 9.44529C1.7326 9.38431 1.82954 9.25725 1.9673 9.06413C2.11016 8.871 2.27343 8.64484 2.45711 8.38565C2.64079 8.12646 2.82702 7.86726 3.0158 7.60807C3.20459 7.3438 3.37041 7.11002 3.51327 6.90673C3.54898 6.8559 3.59235 6.84066 3.64337 6.86099C3.6995 6.87623 3.72756 6.91435 3.72756 6.97534C3.72756 7.17354 3.72501 7.41749 3.71991 7.70718C3.71481 7.99686 3.7046 8.30179 3.68929 8.62197C3.67909 8.94215 3.66378 9.24963 3.64337 9.54439C3.62297 9.83916 3.5949 10.0907 3.55919 10.2991C3.53368 10.4567 3.48521 10.7031 3.41378 11.0386C3.34234 11.3689 3.25816 11.7475 3.16122 12.1744C3.06938 12.5963 2.96988 13.0283 2.86274 13.4704C2.76069 13.9126 2.66375 14.3242 2.57191 14.7054C2.48007 15.0865 2.40354 15.4016 2.34231 15.6507C2.28619 15.8997 2.25303 16.042 2.24282 16.0776C2.17139 16.3164 2.19945 16.5299 2.32701 16.7179C2.45966 16.906 2.64845 17 2.89335 17ZM11.8936 8.55336C12.2304 8.55336 12.5187 8.43393 12.7585 8.19507C13.0034 7.9562 13.1258 7.66906 13.1258 7.33363C13.1258 6.99821 13.0034 6.71106 12.7585 6.4722C12.5187 6.23333 12.2304 6.1139 11.8936 6.1139C11.5569 6.1139 11.2686 6.23333 11.0288 6.4722C10.789 6.71106 10.6691 6.99821 10.6691 7.33363C10.6691 7.66906 10.789 7.9562 11.0288 8.19507C11.2686 8.43393 11.5569 8.55336 11.8936 8.55336ZM10.2711 17C10.414 17 10.5415 16.9543 10.6538 16.8628C10.7711 16.7764 10.8528 16.6392 10.8987 16.4511C10.9395 16.3088 10.9956 16.0954 11.0671 15.8108C11.1385 15.5312 11.2125 15.2288 11.289 14.9036C11.3707 14.5834 11.4472 14.2886 11.5186 14.0193C11.5901 13.7499 11.6436 13.5543 11.6793 13.4323C11.7355 13.2747 11.7737 13.1807 11.7941 13.1502C11.8197 13.1146 11.8528 13.0969 11.8936 13.0969C11.9345 13.0969 11.9651 13.1146 11.9855 13.1502C12.011 13.1807 12.0492 13.2747 12.1003 13.4323C12.1411 13.5543 12.1947 13.7499 12.261 14.0193C12.3324 14.2886 12.409 14.5834 12.4906 14.9036C12.5722 15.2288 12.6488 15.5312 12.7202 15.8108C12.7916 16.0954 12.8477 16.3088 12.8886 16.4511C12.9345 16.6392 13.0136 16.7764 13.1258 16.8628C13.2381 16.9543 13.3682 17 13.5161 17C13.7304 17 13.8937 16.9161 14.0059 16.7484C14.1182 16.5807 14.1488 16.3978 14.0978 16.1996C14.0927 16.1741 14.0646 16.0547 14.0136 15.8413C13.9626 15.6329 13.8988 15.3737 13.8223 15.0637C13.7508 14.7587 13.6768 14.4411 13.6003 14.1108C13.5289 13.7855 13.4626 13.4907 13.4013 13.2265C13.3452 12.9622 13.3069 12.7691 13.2865 12.6471C13.261 12.4895 13.2406 12.2939 13.2253 12.0601C13.21 11.8212 13.1998 11.59 13.1947 11.3664C13.1896 11.1428 13.187 10.9674 13.187 10.8404C13.187 10.7286 13.2049 10.6345 13.2406 10.5583C13.2763 10.477 13.3248 10.3982 13.386 10.322C13.5697 10.0933 13.7585 9.86457 13.9524 9.63587C14.1514 9.40718 14.3223 9.20897 14.4651 9.04126C14.608 8.87354 14.6922 8.76682 14.7177 8.72108C14.8095 8.58894 14.8427 8.45172 14.8172 8.30942C14.7917 8.16203 14.7279 8.03498 14.6259 7.92825C14.5085 7.79611 14.3631 7.73004 14.1896 7.73004C14.0212 7.72496 13.886 7.77578 13.784 7.88251L12.9727 8.74395C12.8044 8.92691 12.6386 9.06158 12.4753 9.14798C12.3171 9.2293 12.1232 9.26996 11.8936 9.26996C11.664 9.26996 11.4676 9.2293 11.3043 9.14798C11.1462 9.06158 10.9829 8.92691 10.8145 8.74395L10.0033 7.88251C9.90122 7.77578 9.76346 7.72496 9.58999 7.73004C9.41651 7.73004 9.27365 7.79611 9.1614 7.92825C9.05426 8.03498 8.98793 8.16203 8.96242 8.30942C8.94201 8.45172 8.97517 8.58894 9.06191 8.72108C9.09252 8.76682 9.17926 8.87354 9.32212 9.04126C9.46498 9.20897 9.63336 9.40718 9.82724 9.63587C10.0262 9.86457 10.2176 10.0933 10.4012 10.322C10.4625 10.3982 10.5084 10.477 10.539 10.5583C10.5747 10.6345 10.5926 10.7286 10.5926 10.8404C10.5926 10.9674 10.59 11.1428 10.5849 11.3664C10.5798 11.59 10.5696 11.8212 10.5543 12.0601C10.5441 12.2939 10.5262 12.4895 10.5007 12.6471C10.4803 12.7691 10.4395 12.9622 10.3783 13.2265C10.3222 13.4907 10.2558 13.7855 10.1793 14.1108C10.1028 14.4411 10.0288 14.7587 9.95735 15.0637C9.88592 15.3737 9.82469 15.6329 9.77367 15.8413C9.72265 16.0547 9.69203 16.1741 9.68183 16.1996C9.63081 16.3978 9.66142 16.5807 9.77367 16.7484C9.88592 16.9161 10.0517 17 10.2711 17ZM18.2535 3.28565C18.5597 3.28565 18.8352 3.2145 19.0801 3.0722C19.3301 2.92481 19.5291 2.72661 19.677 2.47758C19.825 2.22855 19.899 1.95157 19.899 1.64664C19.899 1.3417 19.825 1.06472 19.677 0.815695C19.5291 0.566667 19.3301 0.36846 19.0801 0.221076C18.8352 0.0736921 18.5597 0 18.2535 0C17.9474 0 17.6693 0.0736921 17.4193 0.221076C17.1693 0.36846 16.9703 0.566667 16.8224 0.815695C16.6744 1.06472 16.6004 1.3417 16.6004 1.64664C16.6004 1.95157 16.6744 2.22855 16.8224 2.47758C16.9703 2.72661 17.1693 2.92481 17.4193 3.0722C17.6693 3.2145 17.9474 3.28565 18.2535 3.28565ZM15.6131 17C15.9805 17 16.2254 16.7764 16.3478 16.3291C16.3989 16.1411 16.4678 15.8768 16.5545 15.5363C16.6412 15.2009 16.7356 14.8299 16.8377 14.4233C16.9397 14.0167 17.0417 13.6152 17.1438 13.2188C17.2509 12.8173 17.3453 12.4565 17.427 12.1363C17.5137 11.8161 17.5851 11.5798 17.6413 11.4274C17.728 11.1529 17.8122 10.9573 17.8938 10.8404C17.9755 10.7235 18.0954 10.665 18.2535 10.665C18.4066 10.665 18.5239 10.7235 18.6056 10.8404C18.6923 10.9573 18.779 11.1529 18.8658 11.4274C18.9168 11.5798 18.9857 11.8161 19.0724 12.1363C19.1592 12.4565 19.2536 12.8173 19.3556 13.2188C19.4576 13.6152 19.5597 14.0167 19.6617 14.4233C19.7689 14.8299 19.8658 15.2009 19.9526 15.5363C20.0393 15.8768 20.1082 16.1411 20.1592 16.3291C20.2816 16.7764 20.5266 17 20.8939 17C21.1388 17 21.325 16.906 21.4526 16.7179C21.5802 16.5299 21.6108 16.3164 21.5444 16.0776C21.5342 16.042 21.4985 15.8997 21.4373 15.6507C21.3761 15.4016 21.2995 15.0865 21.2077 14.7054C21.1159 14.3242 21.0189 13.9126 20.9169 13.4704C20.8148 13.0283 20.7153 12.5963 20.6184 12.1744C20.5214 11.7475 20.4373 11.3689 20.3658 11.0386C20.2944 10.7031 20.2459 10.4567 20.2204 10.2991C20.1898 10.0907 20.1617 9.83916 20.1362 9.54439C20.1158 9.24963 20.1005 8.94215 20.0903 8.62197C20.0801 8.30179 20.0725 7.99686 20.0674 7.70718C20.0623 7.41749 20.0597 7.17354 20.0597 6.97534C20.0597 6.91435 20.0852 6.87623 20.1362 6.86099C20.1924 6.84066 20.2357 6.8559 20.2663 6.90673C20.4143 7.11002 20.5801 7.3438 20.7638 7.60807C20.9526 7.86726 21.1388 8.12646 21.3225 8.38565C21.5113 8.64484 21.6745 8.871 21.8123 9.06413C21.9552 9.25725 22.0521 9.38431 22.1031 9.44529C22.2154 9.57235 22.3531 9.64858 22.5164 9.67399C22.6848 9.6994 22.8455 9.66891 22.9986 9.58251C23.1924 9.48087 23.3124 9.34111 23.3583 9.16323C23.4093 8.98027 23.3965 8.8151 23.32 8.66771C23.2843 8.61181 23.246 8.55591 23.2052 8.5C23.1695 8.43901 23.1312 8.38057 23.0904 8.32466L21.1159 5.42018C20.9016 5.11016 20.6643 4.85859 20.4041 4.66547C20.149 4.46726 19.848 4.32242 19.501 4.23094C19.1541 4.13438 18.7382 4.0861 18.2535 4.0861C17.7688 4.0861 17.3504 4.13438 16.9984 4.23094C16.6514 4.32242 16.3478 4.46726 16.0876 4.66547C15.8325 4.86368 15.6004 5.11525 15.3912 5.42018L14.1973 7.14305C14.5187 7.14813 14.7815 7.25232 14.9856 7.45561C15.1948 7.65889 15.3223 7.87743 15.3682 8.11121L16.233 6.90673C16.2688 6.8559 16.3121 6.83812 16.3632 6.85336C16.4193 6.86861 16.4473 6.90673 16.4473 6.96771C16.4473 7.16592 16.4448 7.41241 16.4397 7.70718C16.4346 7.99686 16.4244 8.30179 16.4091 8.62197C16.3989 8.94215 16.381 9.24963 16.3555 9.54439C16.3351 9.83916 16.3096 10.0907 16.279 10.2991C16.2535 10.4567 16.205 10.7031 16.1336 11.0386C16.0621 11.3689 15.9779 11.7475 15.881 12.1744C15.7841 12.5963 15.6846 13.0283 15.5825 13.4704C15.4805 13.9126 15.3835 14.3242 15.2917 14.7054C15.1999 15.0865 15.1233 15.4016 15.0621 15.6507C15.0009 15.8997 14.9677 16.042 14.9626 16.0776C14.8912 16.3164 14.9192 16.5299 15.0468 16.7179C15.1794 16.906 15.3682 17 15.6131 17Z"
		fill="currentColor"
	/>
</svg>
