<svg
	color="rgb(var(--foreground, 0, 0, 0))"
	viewBox="0 0 24 17"
	fill="none"
	xmlns="http://www.w3.org/2000/svg"
>
	<path
		d="M8.85799 9.59757C9.14929 9.59757 9.39556 9.49719 9.59682 9.29643C9.80338 9.09039 9.90665 8.84208 9.90665 8.55151C9.90665 8.26094 9.80338 8.01527 9.59682 7.81451C9.39556 7.60847 9.14929 7.50545 8.85799 7.50545C8.5614 7.50545 8.30983 7.60847 8.10328 7.81451C7.90202 8.01527 7.80139 8.26094 7.80139 8.55151C7.80139 8.84208 7.90202 9.09039 8.10328 9.29643C8.30983 9.49719 8.5614 9.59757 8.85799 9.59757ZM12.0199 9.59757C12.3112 9.59757 12.5574 9.49719 12.7587 9.29643C12.9652 9.09039 13.0685 8.84208 13.0685 8.55151C13.0685 8.26094 12.9652 8.01527 12.7587 7.81451C12.5574 7.60847 12.3112 7.50545 12.0199 7.50545C11.7286 7.50545 11.4796 7.60847 11.2731 7.81451C11.0718 8.01527 10.9712 8.26094 10.9712 8.55151C10.9712 8.84208 11.0718 9.09039 11.2731 9.29643C11.4796 9.49719 11.7286 9.59757 12.0199 9.59757ZM15.1738 9.59757C15.4651 9.59757 15.7114 9.49719 15.9126 9.29643C16.1192 9.09039 16.2224 8.84208 16.2224 8.55151C16.2224 8.26094 16.1192 8.01527 15.9126 7.81451C15.7114 7.60847 15.4651 7.50545 15.1738 7.50545C14.8825 7.50545 14.6336 7.60847 14.427 7.81451C14.2258 8.01527 14.1251 8.26094 14.1251 8.55151C14.1251 8.84208 14.2258 9.09039 14.427 9.29643C14.6336 9.49719 14.8825 9.59757 15.1738 9.59757ZM0 10.1919C0 10.3663 0.060907 10.5168 0.182721 10.6436C0.309831 10.7651 0.460775 10.8259 0.635551 10.8259C0.815624 10.8259 0.966567 10.7651 1.08838 10.6436C1.21549 10.5168 1.27905 10.3663 1.27905 10.1919V7.41828C1.27905 7.26507 1.35584 7.18846 1.50943 7.18846C1.66832 7.18846 1.74777 7.26507 1.74777 7.41828V15.8026C1.74777 15.9928 1.81397 16.1566 1.94638 16.294C2.08408 16.4313 2.25091 16.5 2.44687 16.5C2.64283 16.5 2.80967 16.4313 2.94737 16.294C3.08507 16.1566 3.15392 15.9928 3.15392 15.8026V10.6991C3.15392 10.6357 3.17776 10.5802 3.22542 10.5327C3.27309 10.4851 3.3287 10.4614 3.39225 10.4614C3.45581 10.4614 3.51142 10.4851 3.55909 10.5327C3.61205 10.5802 3.63853 10.6357 3.63853 10.6991V15.8026C3.63853 15.9928 3.70473 16.1566 3.83714 16.294C3.97484 16.4313 4.14167 16.5 4.33764 16.5C4.5336 16.5 4.70043 16.4313 4.83813 16.294C4.97584 16.1566 5.04469 15.9928 5.04469 15.8026V7.41828C5.04469 7.26507 5.12148 7.18846 5.27507 7.18846C5.43396 7.18846 5.51341 7.26507 5.51341 7.41828V10.1919C5.51341 10.3663 5.57431 10.5168 5.69613 10.6436C5.82324 10.7651 5.97418 10.8259 6.14896 10.8259C6.32903 10.8259 6.47997 10.7651 6.60179 10.6436C6.7236 10.5168 6.78451 10.3663 6.78451 10.1919V7.09336C6.78451 6.56505 6.66269 6.10277 6.41907 5.70654C6.18073 5.3103 5.84442 5.00388 5.41013 4.78727C4.98113 4.56538 4.48328 4.45443 3.91658 4.45443H2.87587C2.30387 4.45443 1.80073 4.56538 1.36643 4.78727C0.937438 5.00388 0.601125 5.3103 0.357498 5.70654C0.119166 6.10277 0 6.56505 0 7.09336V10.1919ZM3.39225 3.63026C3.82655 3.63026 4.19729 3.47705 4.50447 3.17063C4.81165 2.86421 4.96524 2.49439 4.96524 2.06117C4.96524 1.62795 4.81165 1.26077 4.50447 0.959633C4.19729 0.653211 3.82655 0.5 3.39225 0.5C2.95796 0.5 2.58722 0.653211 2.28004 0.959633C1.97815 1.26077 1.82721 1.62795 1.82721 2.06117C1.82721 2.49439 1.97815 2.86421 2.28004 3.17063C2.58722 3.47705 2.95796 3.63026 3.39225 3.63026ZM17.2155 10.1919C17.2155 10.3663 17.2764 10.5168 17.3982 10.6436C17.5253 10.7651 17.6763 10.8259 17.851 10.8259C18.0311 10.8259 18.1821 10.7651 18.3039 10.6436C18.431 10.5168 18.4945 10.3663 18.4945 10.1919V7.41828C18.4945 7.26507 18.5713 7.18846 18.7249 7.18846C18.8838 7.18846 18.9633 7.26507 18.9633 7.41828V15.8026C18.9633 15.9928 19.0295 16.1566 19.1619 16.294C19.2996 16.4313 19.4664 16.5 19.6624 16.5C19.8583 16.5 20.0252 16.4313 20.1629 16.294C20.3006 16.1566 20.3694 15.9928 20.3694 15.8026V10.6991C20.3694 10.6357 20.3932 10.5802 20.4409 10.5327C20.4886 10.4851 20.5442 10.4614 20.6077 10.4614C20.6713 10.4614 20.7269 10.4851 20.7746 10.5327C20.8275 10.5802 20.854 10.6357 20.854 10.6991V15.8026C20.854 15.9928 20.9202 16.1566 21.0526 16.294C21.1903 16.4313 21.3572 16.5 21.5531 16.5C21.7491 16.5 21.9133 16.4313 22.0457 16.294C22.1834 16.1566 22.2522 15.9928 22.2522 15.8026V7.41828C22.2522 7.26507 22.3317 7.18846 22.4906 7.18846C22.6442 7.18846 22.721 7.26507 22.721 7.41828V10.1919C22.721 10.3663 22.7819 10.5168 22.9037 10.6436C23.0308 10.7651 23.1844 10.8259 23.3644 10.8259C23.5392 10.8259 23.6875 10.7651 23.8093 10.6436C23.9364 10.5168 24 10.3663 24 10.1919V7.09336C24 6.56505 23.8782 6.10277 23.6346 5.70654C23.3962 5.3103 23.0599 5.00388 22.6256 4.78727C22.1966 4.56538 21.6988 4.45443 21.1321 4.45443H20.0834C19.5167 4.45443 19.0162 4.56538 18.5819 4.78727C18.1529 5.00388 17.8166 5.3103 17.573 5.70654C17.3347 6.10277 17.2155 6.56505 17.2155 7.09336V10.1919ZM20.6077 3.63026C21.042 3.63026 21.4128 3.47705 21.72 3.17063C22.0271 2.86421 22.1807 2.49439 22.1807 2.06117C22.1807 1.62795 22.0271 1.26077 21.72 0.959633C21.4128 0.653211 21.042 0.5 20.6077 0.5C20.1735 0.5 19.8027 0.653211 19.4955 0.959633C19.1936 1.26077 19.0427 1.62795 19.0427 2.06117C19.0427 2.49439 19.1936 2.86421 19.4955 3.17063C19.8027 3.47705 20.1735 3.63026 20.6077 3.63026Z"
		fill="currentColor"
	/>
</svg>
