<svg
	color="rgb(var(--foreground, 0, 0, 0))"
	viewBox="0 0 11 17"
	fill="none"
	xmlns="http://www.w3.org/2000/svg"
>
	<path
		d="M5.19597 3.28565C5.50514 3.28565 5.78597 3.2145 6.03846 3.0722C6.29096 2.92481 6.49192 2.72661 6.64135 2.47758C6.79079 2.22855 6.8655 1.95157 6.8655 1.64664C6.8655 1.3417 6.79079 1.06472 6.64135 0.815695C6.49192 0.566667 6.29096 0.36846 6.03846 0.221076C5.78597 0.0736921 5.50514 0 5.19597 0C4.88679 0 4.60596 0.0736921 4.35347 0.221076C4.10098 0.36846 3.90002 0.566667 3.75058 0.815695C3.60115 1.06472 3.52643 1.3417 3.52643 1.64664C3.52643 1.95157 3.60115 2.22855 3.75058 2.47758C3.90002 2.72661 4.10098 2.92481 4.35347 3.0722C4.60596 3.2145 4.88679 3.28565 5.19597 3.28565ZM5.19597 10.665C5.35571 10.665 5.4768 10.7235 5.55925 10.8404C5.64169 10.9573 5.72671 11.1529 5.81431 11.4274C5.86584 11.5798 5.93541 11.8161 6.02301 12.1363C6.1106 12.4565 6.20593 12.8173 6.30899 13.2188C6.41205 13.6152 6.51511 14.0167 6.61816 14.4233C6.72638 14.8299 6.82428 15.2009 6.91188 15.5363C6.99948 15.8768 7.06904 16.1411 7.12057 16.3291C7.24424 16.7764 7.49158 17 7.86259 17C8.10993 17 8.29801 16.906 8.42683 16.7179C8.5608 16.5299 8.59172 16.3164 8.51958 16.0776C8.50927 16.042 8.4732 15.8997 8.41137 15.6507C8.34953 15.4016 8.27224 15.0865 8.17949 14.7054C8.09189 14.3242 7.99399 13.9126 7.88578 13.4704C7.78272 13.0283 7.68224 12.5963 7.58433 12.1744C7.48643 11.7475 7.4014 11.3689 7.32926 11.0386C7.25712 10.7031 7.20817 10.4567 7.18241 10.2991C7.15149 10.0907 7.12572 9.83916 7.10511 9.54439C7.0845 9.24963 7.06647 8.94215 7.05101 8.62197C7.0407 8.30179 7.03297 7.99686 7.02782 7.70718C7.02267 7.41241 7.02009 7.16592 7.02009 6.96771C7.02009 6.90673 7.04585 6.86861 7.09738 6.85336C7.14891 6.83812 7.19529 6.8559 7.23651 6.90673C7.38079 7.10493 7.54568 7.33617 7.73119 7.60045C7.92184 7.86472 8.10993 8.12646 8.29543 8.38565C8.48609 8.64484 8.65098 8.871 8.79011 9.06413C8.93439 9.25725 9.03229 9.38431 9.08382 9.44529C9.20234 9.57235 9.34404 9.64858 9.50893 9.67399C9.67898 9.6994 9.83872 9.66891 9.98815 9.58251C10.1891 9.48087 10.3128 9.34111 10.3592 9.16323C10.4107 8.98027 10.3952 8.8151 10.3128 8.66771C10.2819 8.61181 10.2458 8.55591 10.2046 8.5C10.1685 8.43901 10.1299 8.38057 10.0886 8.32466L8.08674 5.42018C7.87547 5.11016 7.63844 4.85859 7.37564 4.66547C7.11799 4.46726 6.8114 4.32242 6.45585 4.23094C6.10545 4.13438 5.68549 4.0861 5.19597 4.0861C4.70644 4.0861 4.28391 4.13438 3.92836 4.23094C3.57796 4.32242 3.27136 4.46726 3.00857 4.66547C2.75092 4.85859 2.51646 5.11016 2.3052 5.42018L0.303299 8.32466C0.262076 8.38057 0.220853 8.43901 0.17963 8.5C0.143559 8.55591 0.110066 8.61181 0.0791484 8.66771C-0.00329785 8.8151 -0.021333 8.98027 0.025043 9.16323C0.0765719 9.34111 0.202818 9.48087 0.40378 9.58251C0.553214 9.66891 0.710377 9.6994 0.87527 9.67399C1.04532 9.64858 1.18702 9.57235 1.30038 9.44529C1.35706 9.38431 1.45497 9.25725 1.5941 9.06413C1.73838 8.871 1.90327 8.64484 2.08877 8.38565C2.27428 8.12646 2.46236 7.86726 2.65302 7.60807C2.84367 7.3438 3.01114 7.11002 3.15542 6.90673C3.19149 6.8559 3.23529 6.84066 3.28682 6.86099C3.3435 6.87623 3.37184 6.91435 3.37184 6.97534C3.37184 7.17354 3.36927 7.41749 3.36411 7.70718C3.35896 7.99686 3.34866 8.30179 3.3332 8.62197C3.32289 8.94215 3.30743 9.24963 3.28682 9.54439C3.26621 9.83916 3.23787 10.0907 3.2018 10.2991C3.17603 10.4567 3.12708 10.7031 3.05494 11.0386C2.9828 11.3689 2.89778 11.7475 2.79987 12.1744C2.70712 12.5963 2.60664 13.0283 2.49843 13.4704C2.39537 13.9126 2.29747 14.3242 2.20472 14.7054C2.11196 15.0865 2.03467 15.4016 1.97284 15.6507C1.91615 15.8997 1.88266 16.042 1.87235 16.0776C1.80021 16.3164 1.82855 16.5299 1.95738 16.7179C2.09135 16.906 2.28201 17 2.52935 17C2.90035 17 3.14769 16.7764 3.27136 16.3291C3.32289 16.1411 3.39246 15.8768 3.48006 15.5363C3.56765 15.2009 3.66298 14.8299 3.76604 14.4233C3.8691 14.0167 3.97216 13.6152 4.07521 13.2188C4.18342 12.8173 4.28133 12.4565 4.36893 12.1363C4.45653 11.8161 4.52609 11.5798 4.57762 11.4274C4.66522 11.1529 4.75024 10.9573 4.83269 10.8404C4.91513 10.7235 5.03623 10.665 5.19597 10.665Z"
		fill="currentColor"
	/>
</svg>
