<svg
	color="rgb(var(--foreground, 0, 0, 0))"
	viewBox="0 0 7 17"
	fill="none"
	xmlns="http://www.w3.org/2000/svg"
>
	<path
		d="M0 10.2947C0 10.4882 0.064402 10.6511 0.193206 10.7835C0.32201 10.9108 0.478061 10.9744 0.661359 10.9744C0.844657 10.9744 0.998231 10.9108 1.12208 10.7835C1.25088 10.6511 1.31529 10.4882 1.31529 10.2947V7.35445C1.31529 7.19152 1.39703 7.11006 1.56051 7.11006C1.71904 7.11006 1.7983 7.19152 1.7983 7.35445V16.2592C1.7983 16.468 1.86766 16.6436 2.00637 16.7862C2.15004 16.9287 2.32343 17 2.52654 17C2.72965 17 2.90057 16.9287 3.03928 16.7862C3.18294 16.6436 3.25478 16.468 3.25478 16.2592V10.8446C3.25478 10.7733 3.27707 10.7122 3.32166 10.6613C3.3712 10.6104 3.43064 10.5849 3.5 10.5849C3.56936 10.5849 3.6288 10.6104 3.67834 10.6613C3.72788 10.7122 3.75265 10.7733 3.75265 10.8446V16.2592C3.75265 16.468 3.82201 16.6436 3.96072 16.7862C4.09943 16.9287 4.27035 17 4.47346 17C4.67657 17 4.84749 16.9287 4.9862 16.7862C5.12987 16.6436 5.2017 16.468 5.2017 16.2592V7.35445C5.2017 7.19152 5.28096 7.11006 5.43949 7.11006C5.60297 7.11006 5.68471 7.19152 5.68471 7.35445V10.2947C5.68471 10.4882 5.74664 10.6511 5.87049 10.7835C5.99929 10.9108 6.15534 10.9744 6.33864 10.9744C6.52194 10.9744 6.67799 10.9108 6.80679 10.7835C6.9356 10.6511 7 10.4882 7 10.2947V7.01078C7 6.44564 6.87367 5.95433 6.62102 5.53684C6.37332 5.11426 6.02654 4.78841 5.58068 4.5593C5.13977 4.3251 4.62456 4.208 4.03503 4.208H2.96497C2.37544 4.208 1.85775 4.3251 1.41189 4.5593C0.970984 4.78841 0.624204 5.11426 0.37155 5.53684C0.12385 5.95433 0 6.44564 0 7.01078V10.2947ZM3.5 3.32974C3.79724 3.32974 4.06723 3.25591 4.30998 3.10827C4.55768 2.95553 4.75336 2.75442 4.89703 2.50494C5.04565 2.25037 5.11996 1.97035 5.11996 1.66487C5.11996 1.3543 5.04565 1.07427 4.89703 0.824798C4.75336 0.575322 4.55768 0.37676 4.30998 0.229111C4.06723 0.0763702 3.79724 0 3.5 0C3.20276 0 2.93029 0.0763702 2.68259 0.229111C2.43984 0.37676 2.24416 0.575322 2.09554 0.824798C1.95188 1.07427 1.88004 1.3543 1.88004 1.66487C1.88004 1.97035 1.95188 2.25037 2.09554 2.50494C2.24416 2.75442 2.43984 2.95553 2.68259 3.10827C2.93029 3.25591 3.20276 3.32974 3.5 3.32974Z"
		fill="currentColor"
	/>
</svg>
