<svg
	color="rgb(var(--foreground, 0, 0, 0))"
	viewBox="0 0 9 12"
	fill="none"
	xmlns="http://www.w3.org/2000/svg"
>
	<path
		d="M1.27923 11.5H5.22288C5.99495 11.5 6.66358 11.3718 7.22876 11.1154C7.79394 10.8538 8.23045 10.4897 8.53827 10.0231C8.84609 9.55128 9 8.99744 9 8.36154C9 7.85897 8.88898 7.41282 8.66695 7.02308C8.44996 6.63333 8.14466 6.32051 7.75105 6.08462C7.36249 5.84872 6.91085 5.71795 6.39613 5.69231V5.63077C6.81497 5.56923 7.18335 5.43077 7.50126 5.21539C7.81918 4.99487 8.06644 4.71795 8.24306 4.38462C8.41968 4.04615 8.50799 3.67436 8.50799 3.26923C8.50799 2.7 8.36922 2.20769 8.09167 1.79231C7.81918 1.37692 7.43061 1.05897 6.92599 0.838462C6.42136 0.612821 5.81833 0.5 5.11691 0.5H1.27923C0.875526 0.5 0.560135 0.615385 0.333053 0.846154C0.111018 1.07692 0 1.40513 0 1.83077V10.1769C0 10.5974 0.111018 10.9231 0.333053 11.1538C0.560135 11.3846 0.875526 11.5 1.27923 11.5ZM2.4979 9.72308V6.66923H4.39781C5.06392 6.66923 5.57359 6.79744 5.92683 7.05385C6.28511 7.31026 6.46426 7.68462 6.46426 8.17692C6.46426 8.67949 6.29016 9.0641 5.94197 9.33077C5.59882 9.59231 5.10177 9.72308 4.4508 9.72308H2.4979ZM2.4979 5.06923V2.30769H4.35997C4.88982 2.30769 5.30362 2.42564 5.60135 2.66154C5.89908 2.89744 6.04794 3.22564 6.04794 3.64615C6.04794 4.09231 5.88141 4.44103 5.54836 4.69231C5.22035 4.94359 4.76114 5.06923 4.17073 5.06923H2.4979Z"
		fill="currentColor"
	/>
</svg>
