<svg
	color="rgb(var(--foreground, 0, 0, 0))"
	viewBox="0 0 30 14"
	fill="none"
	xmlns="http://www.w3.org/2000/svg"
>
	<path
		d="M1.32307 11.3897H5.40188C6.20042 11.3897 6.89197 11.2591 7.47652 10.9978C8.06107 10.7312 8.51253 10.3602 8.83091 9.88466C9.14928 9.40388 9.30846 8.83949 9.30846 8.19149C9.30846 7.67936 9.19364 7.22471 8.964 6.82755C8.73957 6.43038 8.42381 6.11161 8.01671 5.87122C7.61483 5.63083 7.14771 5.49757 6.61535 5.47144V5.40874C7.04855 5.34603 7.42955 5.20493 7.75836 4.98544C8.08717 4.76073 8.34291 4.47854 8.52558 4.13886C8.70825 3.79395 8.79959 3.41508 8.79959 3.00224C8.79959 2.42217 8.65606 1.92049 8.36901 1.4972C8.08717 1.07391 7.68529 0.749907 7.16337 0.525196C6.64145 0.295259 6.01775 0.180291 5.29228 0.180291H1.32307C0.905533 0.180291 0.579333 0.297872 0.344468 0.533035C0.114823 0.768197 0 1.10265 0 1.53639V10.0414C0 10.47 0.114823 10.8018 0.344468 11.037C0.579333 11.2721 0.905533 11.3897 1.32307 11.3897ZM2.58351 9.57895V6.46697H4.54854C5.23748 6.46697 5.76462 6.59761 6.12996 6.8589C6.50053 7.12019 6.68581 7.50168 6.68581 8.00336C6.68581 8.51549 6.50575 8.90743 6.14562 9.17917C5.79072 9.44569 5.27662 9.57895 4.60334 9.57895H2.58351ZM2.58351 4.83651V2.0224H4.5094C5.05742 2.0224 5.48539 2.14259 5.79332 2.38298C6.10126 2.62337 6.25523 2.95782 6.25523 3.38634C6.25523 3.84099 6.08299 4.19634 5.73852 4.45241C5.39927 4.70847 4.92433 4.83651 4.31368 4.83651H2.58351ZM11.0934 11.3897H16.0412C16.2239 11.3897 16.3727 11.3374 16.4875 11.2329C16.6075 11.1232 16.6676 10.9769 16.6676 10.794C16.6676 10.6163 16.6101 10.4752 16.4953 10.3707C16.3805 10.2661 16.2317 10.2139 16.0491 10.2139H14.2876L16.19 1.3561H17.9436C18.1263 1.3561 18.275 1.30384 18.3899 1.19933C18.5099 1.08959 18.5699 0.943262 18.5699 0.760358C18.5699 0.58268 18.5125 0.441583 18.3977 0.337066C18.2829 0.232549 18.1341 0.180291 17.9514 0.180291H12.988C12.8053 0.180291 12.6566 0.232549 12.5418 0.337066C12.4269 0.441583 12.3695 0.58268 12.3695 0.760358C12.3695 0.943262 12.4269 1.08959 12.5418 1.19933C12.6618 1.30384 12.8132 1.3561 12.9958 1.3561H14.7417L12.8393 10.2139H11.0856C10.8977 10.2139 10.7464 10.2661 10.6315 10.3707C10.5167 10.4752 10.4593 10.6163 10.4593 10.794C10.4593 10.9769 10.5167 11.1232 10.6315 11.2329C10.7516 11.3374 10.9055 11.3897 11.0934 11.3897ZM25.4358 11.5935C26.3805 11.5935 27.1921 11.4184 27.8706 11.0683C28.5543 10.713 29.0788 10.2243 29.4442 9.60246C29.8147 8.98059 30 8.25943 30 7.43897V0.721165C30 0.50168 29.9321 0.326614 29.7964 0.195969C29.666 0.0653229 29.4911 0 29.2719 0C29.0475 0 28.87 0.0653229 28.7396 0.195969C28.6143 0.326614 28.5517 0.50168 28.5517 0.721165V7.32139C28.5517 8.1941 28.2777 8.9022 27.7296 9.44569C27.1868 9.98395 26.4222 10.2531 25.4358 10.2531C24.7834 10.2531 24.2249 10.1303 23.7604 9.88466C23.3011 9.63904 22.9462 9.29675 22.6957 8.85778C22.4504 8.41359 22.3278 7.90146 22.3278 7.32139V0.721165C22.3278 0.50168 22.2599 0.326614 22.1242 0.195969C21.9937 0.0653229 21.8189 0 21.5997 0C21.3805 0 21.2056 0.0653229 21.0751 0.195969C20.9447 0.326614 20.8794 0.50168 20.8794 0.721165V7.43897C20.8794 8.25943 21.0647 8.98059 21.4353 9.60246C21.8058 10.2243 22.3304 10.713 23.0089 11.0683C23.6874 11.4184 24.4963 11.5935 25.4358 11.5935ZM21.3413 14H29.5303C29.6607 14 29.7704 13.9556 29.8591 13.8667C29.953 13.7779 30 13.6682 30 13.5375C30 13.4016 29.953 13.2893 29.8591 13.2004C29.7704 13.1116 29.6607 13.0672 29.5303 13.0672H21.3413C21.2213 13.0672 21.1143 13.1116 21.0203 13.2004C20.9264 13.2893 20.8794 13.4016 20.8794 13.5375C20.8794 13.6682 20.9264 13.7779 21.0203 13.8667C21.1143 13.9556 21.2213 14 21.3413 14Z"
		fill="currentColor"
	/>
</svg>
