<svg
	color="rgb(var(--foreground, 0, 0, 0))"
	viewBox="0 0 21 14"
	fill="none"
	xmlns="http://www.w3.org/2000/svg"
>
	<path
		d="M1.32673 11.3897H5.41682C6.21757 11.3897 6.91103 11.2591 7.4972 10.9978C8.08336 10.7312 8.53607 10.3602 8.85533 9.88466C9.17458 9.40388 9.33421 8.83949 9.33421 8.19149C9.33421 7.67936 9.21907 7.22471 8.98878 6.82755C8.76374 6.43038 8.4471 6.11161 8.03888 5.87122C7.63589 5.63083 7.16748 5.49757 6.63364 5.47145V5.40874C7.06804 5.34603 7.45009 5.20493 7.77981 4.98544C8.10953 4.76073 8.36598 4.47854 8.54916 4.13886C8.73234 3.79395 8.82393 3.41508 8.82393 3.00224C8.82393 2.42217 8.68 1.92049 8.39215 1.4972C8.10953 1.07391 7.70654 0.749907 7.18318 0.525196C6.65981 0.295259 6.03439 0.180291 5.30692 0.180291H1.32673C0.908037 0.180291 0.580935 0.297872 0.345421 0.533035C0.11514 0.768197 0 1.10265 0 1.53639V10.0414C0 10.47 0.11514 10.8018 0.345421 11.037C0.580935 11.2721 0.908037 11.3897 1.32673 11.3897ZM2.59065 9.57895V6.46697H4.56112C5.25196 6.46697 5.78056 6.59761 6.14692 6.8589C6.5185 7.12019 6.7043 7.50168 6.7043 8.00336C6.7043 8.51549 6.52374 8.90743 6.16262 9.17917C5.80673 9.44569 5.29121 9.57895 4.61607 9.57895H2.59065ZM2.59065 4.83651V2.0224H4.52187C5.0714 2.0224 5.50056 2.14259 5.80935 2.38298C6.11813 2.62337 6.27252 2.95782 6.27252 3.38634C6.27252 3.84099 6.09981 4.19634 5.75439 4.45241C5.41421 4.70847 4.93794 4.83651 4.32561 4.83651H2.59065ZM16.431 11.5935C17.3731 11.5935 18.1843 11.4184 18.8647 11.0683C19.5503 10.713 20.0763 10.2243 20.4426 9.60246C20.8142 8.98059 21 8.25943 21 7.43897V0.721165C21 0.50168 20.932 0.326614 20.7959 0.195969C20.665 0.0653229 20.4897 0 20.2699 0C20.0501 0 19.8748 0.0653229 19.7439 0.195969C19.6131 0.326614 19.5477 0.50168 19.5477 0.721165V7.32139C19.5477 8.1941 19.2729 8.9022 18.7234 9.44569C18.1791 9.98395 17.415 10.2531 16.431 10.2531C15.7768 10.2531 15.2168 10.1303 14.751 9.88466C14.2852 9.63904 13.9293 9.29675 13.6834 8.85778C13.4374 8.41359 13.3144 7.90146 13.3144 7.32139V0.721165C13.3144 0.50168 13.2464 0.326614 13.1103 0.195969C12.9742 0.0653229 12.7963 0 12.5764 0C12.3566 0 12.1813 0.0653229 12.0505 0.195969C11.9249 0.326614 11.8621 0.50168 11.8621 0.721165V7.43897C11.8621 8.25943 12.0452 8.98059 12.4116 9.60246C12.7832 10.2243 13.3092 10.713 13.9895 11.0683C14.6751 11.4184 15.489 11.5935 16.431 11.5935ZM12.3252 14H20.5368C20.6624 14 20.7697 13.9556 20.8587 13.8667C20.9529 13.7779 21 13.6682 21 13.5375C21 13.4016 20.9529 13.2893 20.8587 13.2004C20.7697 13.1116 20.6624 13.0672 20.5368 13.0672H12.3252C12.1996 13.0672 12.0897 13.1116 11.9955 13.2004C11.9065 13.2893 11.8621 13.4016 11.8621 13.5375C11.8621 13.6682 11.9065 13.7779 11.9955 13.8667C12.0897 13.9556 12.1996 14 12.3252 14Z"
		fill="currentColor"
	/>
</svg>
