<svg
	color="rgb(var(--foreground, 0, 0, 0))"
	viewBox="0 0 18 12"
	fill="none"
	xmlns="http://www.w3.org/2000/svg"
>
	<path
		d="M9.07111 12C9.28182 12 9.44512 11.954 9.56101 11.8619C9.67691 11.7698 9.77173 11.61 9.84547 11.3825L10.8648 8.51456H15.5268L16.5461 11.3825C16.6198 11.61 16.7147 11.7698 16.8306 11.8619C16.9464 11.954 17.1071 12 17.3126 12C17.5233 12 17.6892 11.9404 17.8104 11.8213C17.9368 11.7021 18 11.5396 18 11.3338C18 11.2092 17.971 11.063 17.9131 10.8951L14.2072 0.747461C14.1124 0.498307 13.9833 0.311442 13.82 0.186865C13.6567 0.0622884 13.4486 0 13.1958 0C12.7059 0 12.374 0.246445 12.2002 0.739336L8.49429 10.9032C8.43634 11.0711 8.40737 11.2173 8.40737 11.3419C8.40737 11.5477 8.46532 11.7102 8.58121 11.8294C8.70237 11.9431 8.86567 12 9.07111 12ZM11.252 7.27962L13.1721 1.81178H13.2116L15.1317 7.27962H11.252ZM0.655838 11.9756C0.819139 11.9756 0.953468 11.9323 1.05882 11.8456C1.16945 11.7536 1.25636 11.6073 1.31958 11.4069L1.97542 9.41638H5.06497L5.72081 11.4069C5.78402 11.6127 5.87094 11.759 5.98156 11.8456C6.09218 11.9323 6.22915 11.9756 6.39245 11.9756C6.59262 11.9756 6.75329 11.9188 6.87445 11.805C6.99561 11.6913 7.05619 11.5423 7.05619 11.3582C7.05619 11.2769 7.04565 11.1984 7.02458 11.1225C7.00878 11.0413 6.98507 10.9573 6.95346 10.8707L4.49605 4.15978C4.4065 3.91063 4.27743 3.72376 4.10887 3.59919C3.94556 3.46919 3.74802 3.4042 3.51624 3.4042C3.28973 3.4042 3.09482 3.46649 2.93152 3.59106C2.76822 3.71022 2.63916 3.8998 2.54434 4.15978L0.0869183 10.8707C0.0553117 10.9465 0.0316067 11.0278 0.0158033 11.1144C0.00526778 11.1957 0 11.2769 0 11.3582C0 11.5477 0.0579455 11.6994 0.173837 11.8131C0.294995 11.9215 0.455663 11.9756 0.655838 11.9756ZM2.32309 8.36019L3.42932 4.97224H3.61106L4.71729 8.36019H2.32309Z"
		fill="currentColor"
	/>
</svg>
