<svg
	color="rgb(var(--foreground, 0, 0, 0))"
	viewBox="0 0 19 16"
	fill="none"
	xmlns="http://www.w3.org/2000/svg"
>
	<path
		d="M11.3575 15.5C12.4038 15.5 13.387 15.3039 14.3071 14.9118C15.2273 14.5196 16.0397 13.9778 16.7443 13.2864C17.4489 12.5949 18.001 11.7977 18.4006 10.8947C18.8002 9.98658 19 9.02167 19 8C19 6.97833 18.7976 6.016 18.3927 5.113C17.9931 4.20485 17.441 3.40506 16.7364 2.71362C16.0318 2.02219 15.2168 1.48039 14.2914 1.08824C13.3712 0.696078 12.3907 0.5 11.3496 0.5C10.3085 0.5 9.32523 0.696078 8.39981 1.08824C7.47964 1.48039 6.66726 2.02219 5.96268 2.71362C5.26335 3.40506 4.71388 4.20227 4.31427 5.10526C3.91465 6.00826 3.71484 6.97317 3.71484 8C3.71484 9.02167 3.91465 9.98658 4.31427 10.8947C4.71388 11.7977 5.26598 12.5949 5.97057 13.2864C6.67515 13.9778 7.48753 14.5196 8.40769 14.9118C9.33312 15.3039 10.3164 15.5 11.3575 15.5ZM11.3575 14.2384C10.4741 14.2384 9.6486 14.0784 8.88092 13.7585C8.11324 13.4386 7.43757 12.9948 6.85393 12.4272C6.27554 11.8545 5.82334 11.1914 5.49734 10.4381C5.17134 9.67957 5.00833 8.86687 5.00833 8C5.00833 7.13313 5.17134 6.32301 5.49734 5.56966C5.82334 4.81115 6.27554 4.14809 6.85393 3.5805C7.43232 3.00774 8.10535 2.5614 8.87303 2.24149C9.64072 1.91641 10.4662 1.75387 11.3496 1.75387C12.233 1.75387 13.0584 1.91641 13.826 2.24149C14.599 2.5614 15.2746 3.00774 15.853 3.5805C16.4367 4.14809 16.8915 4.81115 17.2175 5.56966C17.5488 6.32301 17.717 7.13313 17.7223 8C17.7223 8.86687 17.5593 9.67957 17.2333 10.4381C16.9073 11.1914 16.4525 11.8545 15.8688 12.4272C15.2904 12.9948 14.6147 13.4386 13.8418 13.7585C13.0689 14.0784 12.2408 14.2384 11.3575 14.2384ZM6.01 12.8452L5.47368 12.0867C5.22655 12.2312 4.95838 12.3421 4.66919 12.4195C4.37999 12.4969 4.07502 12.5356 3.75428 12.5356C3.30208 12.5356 2.9051 12.4608 2.56332 12.3111C2.22154 12.1615 1.95601 11.9525 1.76672 11.6842C1.57743 11.4159 1.48278 11.1011 1.48278 10.7399C1.48278 10.2136 1.69048 9.79051 2.10587 9.47059C2.52651 9.15067 3.12594 8.96491 3.90413 8.91331L4.4799 8.87461L4.24328 7.75232L3.73062 7.79876C2.53703 7.90196 1.61686 8.20382 0.970118 8.70434C0.323373 9.20485 0 9.88855 0 10.7554C0 11.354 0.144598 11.8777 0.433793 12.3266C0.722988 12.7755 1.12523 13.1264 1.64053 13.3793C2.15582 13.6321 2.75524 13.7585 3.43879 13.7585C3.91728 13.7585 4.37736 13.6785 4.81904 13.5186C5.26598 13.3535 5.66297 13.129 6.01 12.8452ZM5.34748 4.61765L6.12831 3.5031C5.63405 3.33282 5.07406 3.24768 4.44835 3.24768C3.8647 3.24768 3.32049 3.33024 2.81571 3.49536C2.31093 3.66047 1.87188 3.89267 1.49856 4.19195C1.13049 4.48607 0.85444 4.82921 0.670407 5.22136C0.612568 5.33488 0.565245 5.45098 0.528438 5.56966C0.49689 5.68318 0.481116 5.78896 0.481116 5.887C0.481116 6.08308 0.541584 6.24045 0.66252 6.35913C0.783456 6.47781 0.93857 6.53715 1.12786 6.53715C1.40654 6.53715 1.60898 6.41331 1.73517 6.16563C2.00333 5.58256 2.35826 5.16202 2.79994 4.90402C3.24161 4.64087 3.78057 4.50929 4.4168 4.50929C4.73754 4.50929 5.04777 4.54541 5.34748 4.61765ZM11.8149 14.8034L13.5027 14.7879V5.90248C13.5027 5.14396 13.3475 4.47575 13.0373 3.89783C12.7324 3.31476 12.2882 2.84004 11.7045 2.47368C11.1261 2.10733 10.4321 1.86997 9.62231 1.76161C9.46983 1.74097 9.31208 1.72549 9.14908 1.71517C8.99134 1.70485 8.83097 1.69711 8.66797 1.69195L6.96435 3.39474C7.12209 3.3483 7.28246 3.31218 7.44546 3.28638C7.61372 3.25542 7.78724 3.2322 7.96601 3.21672C8.14479 3.20124 8.33671 3.1935 8.54177 3.1935C9.54081 3.1935 10.319 3.44892 10.8764 3.95975C11.439 4.46543 11.7203 5.17234 11.7203 6.0805V7.21827L7.6663 7.45821C6.48849 7.53044 5.52363 7.78328 4.77172 8.21672L5.09509 10.0279C5.25809 9.79567 5.47105 9.59443 5.73395 9.42415C6.00211 9.25387 6.31497 9.11713 6.67252 9.01393C7.03533 8.91073 7.4402 8.84365 7.88714 8.81269L11.7203 8.56502V9.92725C11.7203 10.3968 11.6283 10.838 11.4442 11.2508C11.2655 11.6584 11.0131 12.0222 10.6871 12.3421C10.3663 12.662 9.98512 12.9226 9.54344 13.1238C9.10702 13.3199 8.63379 13.4412 8.12376 13.4876L9.42513 14.5789C9.94568 14.3829 10.4031 14.1223 10.7975 13.7972C11.1971 13.4721 11.5021 13.1032 11.7124 12.6904H11.8149V14.8034Z"
		fill="currentColor"
	/>
</svg>
