<svg
	color="rgb(var(--foreground, 0, 0, 0))"
	viewBox="0 0 24 12"
	fill="none"
	xmlns="http://www.w3.org/2000/svg"
>
	<path
		d="M2.7588 11.4925C3.1566 11.4925 3.53632 11.428 3.89796 11.2988C4.2596 11.1696 4.5825 10.9883 4.86664 10.7547C5.15079 10.5163 5.37036 10.238 5.52535 9.92005H5.54859V10.8889C5.54859 11.0727 5.60801 11.2218 5.72683 11.336C5.84566 11.4453 5.99548 11.5 6.1763 11.5C6.36745 11.5 6.51986 11.4429 6.63351 11.3286C6.75234 11.2143 6.81175 11.0578 6.81175 10.8591V5.92547C6.81175 5.38392 6.68259 4.91689 6.42428 4.52439C6.16597 4.12692 5.79658 3.81888 5.31611 3.60027C4.84081 3.38166 4.28027 3.27236 3.63448 3.27236C2.90604 3.27236 2.26283 3.41396 1.70488 3.69715C1.14692 3.98035 0.756861 4.36043 0.534711 4.8374C0.493381 4.92683 0.4598 5.01626 0.433968 5.10569C0.408137 5.19015 0.395221 5.27213 0.395221 5.35163C0.395221 5.51558 0.449467 5.64725 0.557959 5.74661C0.671618 5.84598 0.811107 5.89566 0.976429 5.89566C1.10042 5.89566 1.20633 5.87331 1.29416 5.82859C1.38715 5.77891 1.46206 5.7019 1.51889 5.59756C1.73071 5.17028 2.00452 4.85479 2.34033 4.65108C2.6813 4.44738 3.09977 4.34553 3.59574 4.34553C4.19503 4.34553 4.66258 4.49706 4.99838 4.80014C5.33419 5.09824 5.5021 5.50565 5.5021 6.02236V6.65583L3.03003 6.78997C2.0536 6.83966 1.30449 7.07069 0.782693 7.48306C0.260898 7.89544 0 8.44445 0 9.13008C0 9.60208 0.116241 10.0169 0.348724 10.3747C0.581207 10.7274 0.9041 11.0032 1.3174 11.2019C1.73587 11.3957 2.21634 11.4925 2.7588 11.4925ZM3.07652 10.4566C2.5599 10.4566 2.14143 10.3324 1.82112 10.084C1.50081 9.83559 1.34065 9.51016 1.34065 9.10772C1.34065 8.71522 1.49822 8.39725 1.81337 8.15379C2.12851 7.91034 2.58831 7.76874 3.19277 7.729L5.5021 7.5874V8.36247C5.5021 8.75497 5.39361 9.11021 5.17662 9.42818C4.95964 9.74616 4.66774 9.99706 4.30094 10.1809C3.93413 10.3647 3.52599 10.4566 3.07652 10.4566ZM8.97384 11.4925C9.15983 11.4925 9.31223 11.4354 9.43106 11.3211C9.55505 11.2069 9.61705 11.0553 9.61705 10.8665V9.79336H9.64029C9.89344 10.32 10.2628 10.7374 10.7485 11.0454C11.2393 11.3485 11.8024 11.5 12.4378 11.5C13.1456 11.5 13.7604 11.3311 14.2822 10.9932C14.8092 10.6504 15.2173 10.171 15.5066 9.55488C15.8011 8.9388 15.9483 8.2159 15.9483 7.38618C15.9483 6.55646 15.8011 5.83356 15.5066 5.21748C15.2173 4.6014 14.8092 4.12444 14.2822 3.78659C13.7604 3.44377 13.1508 3.27236 12.4533 3.27236C11.8282 3.27236 11.2703 3.42638 10.7795 3.73442C10.2938 4.04246 9.93219 4.45483 9.69454 4.97154H9.65579V1.16328C9.65579 0.959575 9.5938 0.798103 9.46981 0.678862C9.35098 0.559621 9.19599 0.5 9.00484 0.5C8.80852 0.5 8.64837 0.559621 8.52438 0.678862C8.40555 0.798103 8.34614 0.959575 8.34614 1.16328V10.8665C8.34614 11.0603 8.40297 11.2143 8.51663 11.3286C8.63545 11.4379 8.78786 11.4925 8.97384 11.4925ZM12.1511 10.4119C11.6603 10.4119 11.2263 10.2877 10.8492 10.0393C10.4772 9.78591 10.1853 9.43315 9.97352 8.98103C9.7617 8.52891 9.65579 7.99977 9.65579 7.39363C9.65579 6.78749 9.7617 6.25836 9.97352 5.80623C10.1905 5.34914 10.485 4.99639 10.857 4.74797C11.2341 4.49458 11.6655 4.36789 12.1511 4.36789C12.6522 4.36789 13.0862 4.4921 13.453 4.74051C13.8198 4.98397 14.1014 5.33175 14.2977 5.78388C14.4992 6.236 14.5999 6.7701 14.5999 7.38618C14.5999 8.00723 14.4992 8.54381 14.2977 8.99594C14.0962 9.44806 13.8121 9.79833 13.4453 10.0467C13.0785 10.2902 12.6471 10.4119 12.1511 10.4119ZM20.66 11.5C21.1663 11.5 21.639 11.418 22.0781 11.2541C22.5224 11.0851 22.9047 10.8566 23.2251 10.5684C23.5454 10.2753 23.7804 9.93744 23.9303 9.55488C23.9509 9.49526 23.9664 9.43564 23.9768 9.37602C23.9923 9.31143 24 9.25429 24 9.20461C24 9.04562 23.9458 8.91644 23.8373 8.81707C23.7339 8.71274 23.5996 8.66057 23.4343 8.66057C23.2896 8.66057 23.1708 8.69286 23.0778 8.75745C22.99 8.82204 22.9022 8.93631 22.8143 9.10027C22.6129 9.52258 22.3339 9.84801 21.9774 10.0766C21.6261 10.3001 21.1895 10.4119 20.6677 10.4119C19.9083 10.4119 19.2987 10.1411 18.8389 9.59959C18.3842 9.05804 18.1569 8.32272 18.1569 7.39363C18.1569 6.46951 18.3868 5.73419 18.8466 5.18767C19.3064 4.63618 19.9135 4.36043 20.6677 4.36043C21.1637 4.36043 21.5899 4.47222 21.9464 4.6958C22.308 4.91938 22.5922 5.24977 22.7988 5.68699C22.8867 5.84598 22.9745 5.95777 23.0623 6.02236C23.1501 6.08198 23.2664 6.11179 23.411 6.11179C23.5764 6.11179 23.7107 6.06459 23.814 5.97019C23.9225 5.87082 23.9768 5.73916 23.9768 5.5752C23.9768 5.53049 23.969 5.48329 23.9535 5.4336C23.9432 5.37895 23.9328 5.32678 23.9225 5.2771C23.7933 4.89454 23.5686 4.5542 23.2483 4.2561C22.9332 3.95303 22.5483 3.71454 22.0936 3.54065C21.6442 3.36179 21.1585 3.27236 20.6367 3.27236C19.867 3.27236 19.1954 3.44377 18.6219 3.78659C18.0484 4.1294 17.6041 4.61134 17.289 5.23239C16.9738 5.84846 16.8163 6.57136 16.8163 7.40108C16.8163 8.23577 16.9738 8.96116 17.289 9.57724C17.6093 10.1883 18.0562 10.6628 18.6296 11.0007C19.2083 11.3336 19.8851 11.5 20.66 11.5Z"
		fill="currentColor"
	/>
</svg>
