<svg
	color="rgb(var(--foreground, 0, 0, 0))"
	viewBox="0 0 11 16"
	fill="none"
	xmlns="http://www.w3.org/2000/svg"
>
	<path
		d="M5.08577 16C5.80172 16 6.46653 15.8678 7.0802 15.6035C7.69386 15.3392 8.23338 14.9712 8.69874 14.4995C9.16411 14.0279 9.5272 13.4811 9.78801 12.8591C10.0488 12.2319 10.1792 11.5581 10.1792 10.8377C10.1792 10.1173 10.0488 9.44347 9.78801 8.81633C9.5272 8.18918 9.16411 7.63978 8.69874 7.16812C8.23338 6.69647 7.69131 6.33107 7.07252 6.07191C6.45886 5.80758 5.79405 5.67541 5.0781 5.67541C4.36727 5.67541 3.70246 5.80758 3.08368 6.07191C2.47001 6.33107 1.9305 6.69647 1.46513 7.16812C1.00488 7.63978 0.644351 8.18918 0.383543 8.81633C0.127848 9.44347 0 10.1173 0 10.8377C0 11.5581 0.130404 12.2319 0.391213 12.8591C0.652022 13.4811 1.01255 14.0279 1.4728 14.4995C1.93817 14.9712 2.47768 15.3392 3.09135 15.6035C3.71013 15.8678 4.37494 16 5.08577 16ZM5.08577 14.6861C4.37494 14.6861 3.73315 14.5151 3.16039 14.173C2.58763 13.8309 2.1325 13.3696 1.79498 12.7891C1.46258 12.2086 1.29637 11.5581 1.29637 10.8377C1.29637 10.1173 1.46258 9.4668 1.79498 8.8863C2.1325 8.30062 2.58508 7.83933 3.15272 7.50243C3.72548 7.16035 4.36727 6.98931 5.0781 6.98931C5.78894 6.98931 6.43073 7.16035 7.00349 7.50243C7.58136 7.83933 8.03905 8.30062 8.37657 8.8863C8.71409 9.4668 8.88285 10.1173 8.88285 10.8377C8.88285 11.5581 8.71409 12.2086 8.37657 12.7891C8.04417 13.3696 7.59159 13.8309 7.01883 14.173C6.44607 14.5151 5.80172 14.6861 5.08577 14.6861ZM8.88285 10.8377H10.1792V2.13022H8.88285V10.8377ZM9.5272 2.98542C9.79823 2.98542 10.0463 2.91804 10.2713 2.78328C10.4963 2.64853 10.6727 2.46971 10.8006 2.24684C10.9335 2.01879 11 1.76741 11 1.49271C11 1.21801 10.9335 0.969226 10.8006 0.746356C10.6727 0.518303 10.4963 0.336897 10.2713 0.202138C10.0463 0.0673793 9.79823 0 9.5272 0C9.25616 0 9.00814 0.0673793 8.78312 0.202138C8.56323 0.336897 8.3868 0.518303 8.25384 0.746356C8.12087 0.969226 8.05439 1.21801 8.05439 1.49271C8.05439 1.76741 8.12087 2.01879 8.25384 2.24684C8.3868 2.46971 8.56323 2.64853 8.78312 2.78328C9.00814 2.91804 9.25616 2.98542 9.5272 2.98542Z"
		fill="currentColor"
	/>
</svg>
