<svg
	color="rgb(var(--foreground, 0, 0, 0))"
	viewBox="0 0 18 12"
	fill="none"
	xmlns="http://www.w3.org/2000/svg"
>
	<path
		d="M13.8613 11.9919C14.2644 11.9919 14.6518 11.9219 15.0236 11.7818C15.3953 11.6364 15.7251 11.4343 16.0131 11.1758C16.301 10.9172 16.5262 10.6128 16.6885 10.2626H16.7199V11.3293C16.7199 11.534 16.7801 11.6956 16.9005 11.8141C17.0209 11.938 17.1728 12 17.356 12C17.5445 12 17.699 11.938 17.8194 11.8141C17.9398 11.6902 18 11.5178 18 11.297V5.90707C18 5.31987 17.8665 4.81077 17.5995 4.3798C17.3377 3.94343 16.9633 3.60673 16.4764 3.3697C15.9895 3.12727 15.4136 3.00606 14.7487 3.00606C14.0105 3.00606 13.356 3.16229 12.7853 3.47475C12.2147 3.78182 11.8168 4.19663 11.5916 4.71919C11.5445 4.81616 11.5079 4.91313 11.4817 5.0101C11.4555 5.10707 11.4424 5.19865 11.4424 5.28485C11.4424 5.46263 11.4974 5.60539 11.6073 5.71313C11.7225 5.82088 11.8665 5.87475 12.0393 5.87475C12.1597 5.87475 12.267 5.85051 12.3613 5.80202C12.4555 5.74815 12.5314 5.66465 12.589 5.55152C12.8089 5.08283 13.089 4.73805 13.4293 4.51717C13.7749 4.29091 14.2042 4.17778 14.7173 4.17778C15.3298 4.17778 15.8089 4.34209 16.1544 4.67071C16.5 4.99933 16.6728 5.44647 16.6728 6.01212V6.70707L14.1361 6.85253C13.1414 6.9064 12.377 7.1596 11.8429 7.61212C11.3089 8.05926 11.0419 8.65993 11.0419 9.41414C11.0419 9.93131 11.1597 10.3838 11.3953 10.7717C11.6361 11.1542 11.9686 11.4532 12.3927 11.6687C12.8168 11.8842 13.3063 11.9919 13.8613 11.9919ZM14.1832 10.8687C13.6492 10.8687 13.2173 10.7313 12.8874 10.4566C12.5628 10.1818 12.4005 9.82357 12.4005 9.38182C12.4005 8.95084 12.5628 8.60337 12.8874 8.33939C13.212 8.07003 13.6832 7.91381 14.3011 7.87071L16.6728 7.71717V8.57374C16.6728 9.00471 16.5602 9.39259 16.3351 9.73737C16.1152 10.0822 15.8168 10.3569 15.4398 10.5616C15.0628 10.7663 14.644 10.8687 14.1832 10.8687ZM0.659687 11.9354C0.869111 11.9354 1.03141 11.8896 1.1466 11.798C1.26178 11.7064 1.35602 11.5475 1.42932 11.3212L2.44241 8.46869H7.07593L8.089 11.3212C8.1623 11.5475 8.25654 11.7064 8.37172 11.798C8.48691 11.8896 8.64659 11.9354 8.85078 11.9354C9.06021 11.9354 9.22513 11.8761 9.34555 11.7576C9.4712 11.6391 9.53403 11.4774 9.53403 11.2727C9.53403 11.1488 9.50523 11.0034 9.44764 10.8364L5.76441 0.743434C5.67016 0.495623 5.54189 0.309764 5.37959 0.185859C5.21728 0.0619529 5.01048 0 4.75917 0C4.27226 0 3.94241 0.245118 3.76964 0.735354L0.0863875 10.8444C0.0287958 11.0114 0 11.1569 0 11.2808C0 11.4855 0.0575917 11.6471 0.172775 11.7657C0.293194 11.8788 0.455498 11.9354 0.659687 11.9354ZM2.82723 7.2404L4.73561 1.80202H4.77488L6.68325 7.2404H2.82723Z"
		fill="currentColor"
	/>
</svg>
