<svg
	color="rgb(var(--foreground, 0, 0, 0))"
	viewBox="0 0 16 16"
	fill="none"
	xmlns="http://www.w3.org/2000/svg"
>
	<path
		d="M7.99222 8.03922C8.54123 8.03922 9.05888 7.93464 9.54515 7.72549C10.0314 7.51634 10.4602 7.22876 10.8314 6.86275C11.2027 6.49151 11.4928 6.06537 11.702 5.58433C11.9164 5.09806 12.0236 4.58042 12.0236 4.0314C12.0236 3.47716 11.9164 2.95952 11.702 2.47847C11.4928 1.9922 11.2027 1.56345 10.8314 1.19221C10.4602 0.82097 10.0314 0.530776 9.54515 0.321627C9.05888 0.112478 8.54123 0.00790411 7.99222 0.00790411C7.4432 0.00790411 6.92544 0.112478 6.43917 0.321627C5.9529 0.530776 5.52414 0.82097 5.1529 1.19221C4.78166 1.56345 4.49147 1.9922 4.28232 2.47847C4.07317 2.95952 3.9686 3.47716 3.9686 4.0314C3.9686 4.58042 4.07317 5.09806 4.28232 5.58433C4.4967 6.06537 4.78951 6.49151 5.16074 6.86275C5.53198 7.22876 5.95812 7.51634 6.43917 7.72549C6.92544 7.93464 7.4432 8.03922 7.99222 8.03922ZM7.99222 6.71374C7.48503 6.71374 7.0274 6.59609 6.61956 6.3608C6.21172 6.12028 5.88754 5.79871 5.64702 5.3961C5.41172 4.98826 5.29408 4.53336 5.29408 4.0314C5.29408 3.52422 5.41172 3.0667 5.64702 2.65886C5.88754 2.25102 6.21172 1.92946 6.61956 1.69417C7.0274 1.45364 7.48503 1.33338 7.99222 1.33338C8.4994 1.33338 8.95692 1.45364 9.36476 1.69417C9.7726 1.92946 10.0968 2.25102 10.3373 2.65886C10.5778 3.0667 10.6981 3.52422 10.6981 4.0314C10.6981 4.53336 10.5778 4.98826 10.3373 5.3961C10.0968 5.79871 9.7726 6.12028 9.36476 6.3608C8.95692 6.59609 8.4994 6.71374 7.99222 6.71374ZM8.00006 15.9999C9.09286 15.9999 10.1203 15.7908 11.0824 15.3725C12.0497 14.9542 12.902 14.3764 13.6392 13.6392C14.3765 12.9019 14.9543 12.0523 15.3726 11.0902C15.7909 10.1229 16 9.0928 16 8C16 6.9072 15.7909 5.87975 15.3726 4.91767C14.9543 3.95036 14.3765 3.09808 13.6392 2.36083C12.902 1.62358 12.0497 1.0458 11.0824 0.627507C10.1151 0.20921 9.08502 6.10352e-05 7.99222 6.10352e-05C6.89942 6.10352e-05 5.86924 0.20921 4.90192 0.627507C3.93984 1.0458 3.09017 1.62358 2.35292 2.36083C1.6209 3.09808 1.04574 3.95036 0.627446 4.91767C0.209149 5.87975 0 6.9072 0 8C0 9.0928 0.209149 10.1229 0.627446 11.0902C1.04574 12.0523 1.62352 12.9019 2.36077 13.6392C3.09802 14.3764 3.94768 14.9542 4.90977 15.3725C5.87708 15.7908 6.90726 15.9999 8.00006 15.9999ZM8.00006 14.6666C7.07458 14.6666 6.2091 14.4941 5.40388 14.149C4.59866 13.8039 3.89017 13.3281 3.27841 12.7215C2.67188 12.1098 2.19606 11.4013 1.85097 10.5961C1.5111 9.79084 1.34117 8.92548 1.34117 8C1.34117 7.07452 1.5111 6.20916 1.85097 5.40394C2.19606 4.59872 2.67188 3.89023 3.27841 3.27847C3.88494 2.66671 4.59081 2.19089 5.39604 1.85103C6.20126 1.50593 7.06674 1.33338 7.99222 1.33338C8.9177 1.33338 9.78305 1.50593 10.5883 1.85103C11.3987 2.19089 12.1072 2.66671 12.7138 3.27847C13.3255 3.89023 13.8039 4.59872 14.149 5.40394C14.4941 6.20916 14.6667 7.07452 14.6667 8C14.6667 8.92548 14.4941 9.79084 14.149 10.5961C13.8092 11.4013 13.3334 12.1098 12.7216 12.7215C12.1098 13.3281 11.4013 13.8039 10.5961 14.149C9.7909 14.4941 8.92554 14.6666 8.00006 14.6666Z"
		fill="currentColor"
	/>
</svg>
