<svg
	color="rgb(var(--foreground, 0, 0, 0))"
	viewBox="0 0 16 12"
	fill="none"
	xmlns="http://www.w3.org/2000/svg"
>
	<path
		d="M3.71927 11.5C4.32455 11.5 4.88204 11.4028 5.39174 11.2084C5.90676 11.0086 6.36071 10.7251 6.75361 10.3579C7.15182 9.98527 7.47835 9.53976 7.7332 9.02135H7.81285C8.14734 9.79897 8.65439 10.4065 9.334 10.8439C10.0136 11.2813 10.8233 11.5 11.7631 11.5C12.74 11.5 13.5842 11.2948 14.2957 10.8844C15.0071 10.474 15.5195 9.88807 15.8328 9.12666C15.8646 9.04566 15.8912 8.96465 15.9124 8.88365C15.9336 8.80265 15.9443 8.72975 15.9443 8.66495C15.9443 8.47054 15.8832 8.31394 15.7611 8.19514C15.639 8.07094 15.4797 8.00884 15.2832 8.00884C15.1611 8.00884 15.0549 8.03584 14.9647 8.08984C14.8797 8.14384 14.8001 8.22484 14.7257 8.33284C14.3647 8.97545 13.9426 9.44526 13.4594 9.74227C12.9816 10.0393 12.3975 10.1878 11.7073 10.1878C11.0436 10.1878 10.4649 10.0312 9.97113 9.71797C9.48267 9.40476 9.10569 8.97005 8.84022 8.41384C8.57475 7.85223 8.44201 7.20152 8.44201 6.46171V6.35641H15.1478C15.4133 6.35641 15.6204 6.2781 15.769 6.1215C15.923 5.9595 16 5.7381 16 5.45729C16 4.72828 15.8965 4.06136 15.6894 3.45655C15.4823 2.85174 15.1877 2.32793 14.8054 1.88513C14.4231 1.44232 13.9691 1.10211 13.4435 0.864507C12.9179 0.621502 12.3338 0.5 11.6914 0.5C11.118 0.5 10.595 0.591802 10.1225 0.775405C9.64991 0.959008 9.23578 1.22361 8.88004 1.56922C8.52431 1.90943 8.23229 2.31983 8.00399 2.80044H7.94027C7.80223 2.31983 7.56596 1.90943 7.23146 1.56922C6.89697 1.22361 6.48283 0.959008 5.98905 0.775405C5.50059 0.591802 4.95371 0.5 4.34844 0.5C3.77502 0.5 3.23611 0.586402 2.73171 0.759205C2.23263 0.926608 1.7946 1.16691 1.41763 1.48012C1.04597 1.78792 0.769876 2.14973 0.589355 2.56554C0.525642 2.68434 0.477857 2.80584 0.446001 2.93004C0.414144 3.04885 0.398216 3.16225 0.398216 3.27025C0.398216 3.47545 0.459274 3.64016 0.581391 3.76436C0.703508 3.88316 0.860137 3.94256 1.05128 3.94256C1.33799 3.94256 1.54505 3.81296 1.67248 3.55376C1.94326 2.94894 2.29899 2.51154 2.73968 2.24153C3.18567 1.96613 3.72989 1.82842 4.37233 1.82842C5.14751 1.82842 5.77402 2.05793 6.25187 2.51694C6.72972 2.97054 6.96865 3.55916 6.96865 4.28277V5.17379L3.85466 5.34389C2.60694 5.40869 1.65124 5.70299 0.987563 6.2268C0.329193 6.75061 0 7.46343 0 8.36524C0 8.99705 0.151327 9.54786 0.453965 10.0177C0.761912 10.4875 1.19463 10.852 1.75212 11.1112C2.30961 11.3704 2.96533 11.5 3.71927 11.5ZM3.76705 10.204C3.31044 10.204 2.91223 10.1257 2.57243 9.96907C2.23263 9.80707 1.96981 9.58567 1.78398 9.30486C1.59815 9.02405 1.50523 8.70275 1.50523 8.34094C1.50523 7.80093 1.72027 7.37702 2.15033 7.06922C2.58039 6.75601 3.2016 6.57511 4.01394 6.52651L6.96865 6.35641V7.29602C6.96865 7.83063 6.82529 8.31934 6.53858 8.76215C6.25718 9.19956 5.8749 9.55056 5.39174 9.81517C4.90858 10.0744 4.36702 10.204 3.76705 10.204ZM8.44201 5.17379C8.47918 4.51497 8.63315 3.93176 8.90394 3.42415C9.18003 2.91654 9.54638 2.52234 10.003 2.24153C10.4649 1.95533 10.9905 1.81222 11.5799 1.81222C12.1639 1.81222 12.671 1.95263 13.101 2.23343C13.5311 2.51424 13.8656 2.90844 14.1045 3.41605C14.3435 3.91826 14.4682 4.50417 14.4788 5.17379H8.44201Z"
		fill="currentColor"
	/>
</svg>
