<svg
	color="rgb(var(--foreground, 0, 0, 0))"
	viewBox="0 0 18 12"
	fill="none"
	xmlns="http://www.w3.org/2000/svg"
>
	<path
		d="M13.9116 11.9919C14.5711 11.9919 15.143 11.8357 15.6273 11.5232C16.1168 11.2054 16.4775 10.7556 16.7093 10.1737H16.7557V11.3212C16.7557 11.5313 16.8124 11.6956 16.9257 11.8141C17.0442 11.938 17.1936 12 17.374 12C17.5595 12 17.7089 11.938 17.8222 11.8141C17.9407 11.6902 18 11.5232 18 11.3131V3.65253C18 3.44781 17.9407 3.28081 17.8222 3.15152C17.7089 3.01684 17.5595 2.9495 17.374 2.9495C17.1936 2.9495 17.0442 3.01684 16.9257 3.15152C16.8124 3.28081 16.7557 3.44781 16.7557 3.65253V4.79192H16.7093C16.5547 4.41481 16.3383 4.08889 16.0601 3.81414C15.787 3.53939 15.465 3.32929 15.094 3.18384C14.7282 3.03838 14.3341 2.96566 13.9116 2.96566C13.2108 2.96566 12.5977 3.15421 12.0721 3.53131C11.5517 3.90842 11.1447 4.43636 10.851 5.11515C10.5625 5.79394 10.4182 6.58317 10.4182 7.48283C10.4182 8.38788 10.5625 9.1798 10.851 9.85859C11.1447 10.532 11.5517 11.0572 12.0721 11.4343C12.5977 11.8061 13.2108 11.9919 13.9116 11.9919ZM14.2207 10.8121C13.7209 10.8121 13.2855 10.6774 12.9146 10.4081C12.5436 10.1333 12.2576 9.74815 12.0567 9.25253C11.8557 8.75151 11.7553 8.16162 11.7553 7.48283C11.7553 6.79865 11.8557 6.20875 12.0567 5.71313C12.2576 5.21212 12.5436 4.82694 12.9146 4.55758C13.2855 4.28283 13.7209 4.14545 14.2207 4.14545C14.7205 4.14545 15.1584 4.28552 15.5346 4.56566C15.9107 4.8404 16.2018 5.23098 16.4079 5.73737C16.614 6.23838 16.717 6.82559 16.717 7.49899C16.717 8.17239 16.614 8.7569 16.4079 9.25253C16.207 9.74815 15.9184 10.1333 15.5423 10.4081C15.1662 10.6774 14.7256 10.8121 14.2207 10.8121ZM0.649205 11.9354C0.855302 11.9354 1.01503 11.8896 1.12838 11.798C1.24173 11.7064 1.33448 11.5475 1.40661 11.3212L2.4036 8.46869H6.96351L7.96051 11.3212C8.03264 11.5475 8.12538 11.7064 8.23874 11.798C8.35209 11.8896 8.50924 11.9354 8.71018 11.9354C8.91628 11.9354 9.07858 11.8761 9.19709 11.7576C9.32075 11.6391 9.38258 11.4774 9.38258 11.2727C9.38258 11.1488 9.35424 11.0034 9.29756 10.8364L5.67283 0.743434C5.58009 0.495623 5.45385 0.309764 5.29413 0.185859C5.1344 0.0619529 4.93087 0 4.68355 0C4.20438 0 3.87977 0.245118 3.70974 0.735354L0.085015 10.8444C0.0283383 11.0114 0 11.1569 0 11.2808C0 11.4855 0.0566766 11.6471 0.17003 11.7657C0.288536 11.8788 0.448261 11.9354 0.649205 11.9354ZM2.78231 7.2404L4.66037 1.80202H4.69901L6.57708 7.2404H2.78231Z"
		fill="currentColor"
	/>
</svg>
