<svg
	color="rgb(var(--foreground, 0, 0, 0))"
	viewBox="0 0 18 16"
	fill="none"
	xmlns="http://www.w3.org/2000/svg"
>
	<path
		d="M3.4603 6.83564C4.09188 6.83564 4.66726 6.67987 5.18644 6.36832C5.71097 6.05677 6.13113 5.64224 6.44692 5.12475C6.76271 4.60726 6.92061 4.03696 6.92061 3.41386C6.92061 2.79076 6.76271 2.22046 6.44692 1.70297C6.13113 1.18548 5.71097 0.773597 5.18644 0.467327C4.66726 0.155776 4.09188 0 3.4603 0C2.82872 0 2.25067 0.155776 1.72614 0.467327C1.20161 0.773597 0.781445 1.18548 0.465656 1.70297C0.155219 2.22046 0 2.79076 0 3.41386C0 4.03696 0.157895 4.60726 0.473684 5.12475C0.789474 5.64224 1.20963 6.05677 1.73417 6.36832C2.2587 6.67987 2.83408 6.83564 3.4603 6.83564ZM3.4603 5.67921C3.04817 5.67921 2.66815 5.57624 2.32025 5.3703C1.97235 5.15908 1.69402 4.88185 1.48528 4.53861C1.27654 4.19538 1.17217 3.82046 1.17217 3.41386C1.17217 3.00726 1.27654 2.63234 1.48528 2.28911C1.69402 1.94587 1.97235 1.67129 2.32025 1.46535C2.66815 1.25413 3.04817 1.14851 3.4603 1.14851C3.87244 1.14851 4.25245 1.25413 4.60036 1.46535C4.94826 1.67129 5.22658 1.94587 5.43533 2.28911C5.64407 2.63234 5.74844 3.00726 5.74844 3.41386C5.74844 3.82046 5.64407 4.19538 5.43533 4.53861C5.22658 4.88185 4.94826 5.15908 4.60036 5.3703C4.25245 5.57624 3.87244 5.67921 3.4603 5.67921ZM3.4603 16C4.09188 16 4.66726 15.8442 5.18644 15.5327C5.71097 15.2211 6.13113 14.8066 6.44692 14.2891C6.76271 13.7716 6.92061 13.204 6.92061 12.5861C6.92061 11.9578 6.76271 11.3848 6.44692 10.8673C6.13113 10.3498 5.71097 9.93795 5.18644 9.63168C4.66726 9.32013 4.09188 9.16436 3.4603 9.16436C2.82872 9.16436 2.25067 9.32013 1.72614 9.63168C1.20161 9.94323 0.781445 10.3578 0.465656 10.8752C0.155219 11.3927 0 11.963 0 12.5861C0 13.204 0.157895 13.7716 0.473684 14.2891C0.789474 14.8066 1.20963 15.2211 1.73417 15.5327C2.2587 15.8442 2.83408 16 3.4603 16ZM3.4603 14.8436C3.04817 14.8436 2.66815 14.7406 2.32025 14.5347C1.97235 14.3287 1.69402 14.0541 1.48528 13.7109C1.27654 13.3677 1.17217 12.9927 1.17217 12.5861C1.17217 12.1743 1.27654 11.7967 1.48528 11.4535C1.69402 11.1102 1.97235 10.8356 2.32025 10.6297C2.66815 10.4238 3.04817 10.3208 3.4603 10.3208C3.87244 10.3208 4.25245 10.4238 4.60036 10.6297C4.94826 10.8356 5.22658 11.1102 5.43533 11.4535C5.64407 11.7967 5.74844 12.1743 5.74844 12.5861C5.74844 12.9927 5.64407 13.3677 5.43533 13.7109C5.22658 14.0541 4.94826 14.3287 4.60036 14.5347C4.25245 14.7406 3.87244 14.8436 3.4603 14.8436ZM9.32114 4.02376H17.3818C17.5531 4.02376 17.6976 3.96568 17.8153 3.84951C17.9384 3.73333 18 3.59076 18 3.42178C18 3.25809 17.9384 3.11815 17.8153 3.00198C17.6976 2.88581 17.5531 2.82772 17.3818 2.82772H9.32114C9.14987 2.82772 9.00535 2.88581 8.8876 3.00198C8.76985 3.11815 8.71097 3.25809 8.71097 3.42178C8.71097 3.59076 8.76985 3.73333 8.8876 3.84951C9.00535 3.96568 9.14987 4.02376 9.32114 4.02376ZM9.32114 13.1802H17.3818C17.5531 13.1802 17.6976 13.1221 17.8153 13.0059C17.9384 12.8898 18 12.7498 18 12.5861C18 12.4172 17.9384 12.2746 17.8153 12.1584C17.6976 12.0422 17.5531 11.9842 17.3818 11.9842H9.32114C9.14987 11.9842 9.00535 12.0422 8.8876 12.1584C8.76985 12.2746 8.71097 12.4172 8.71097 12.5861C8.71097 12.7498 8.76985 12.8898 8.8876 13.0059C9.00535 13.1221 9.14987 13.1802 9.32114 13.1802Z"
		fill="currentColor"
	/>
</svg>
