<svg
	color="rgb(var(--foreground, 0, 0, 0))"
	viewBox="0 0 18 16"
	fill="none"
	xmlns="http://www.w3.org/2000/svg"
>
	<path
		d="M3.4603 6.82772C4.09188 6.82772 4.66726 6.67459 5.18644 6.36832C5.71097 6.05677 6.13113 5.64488 6.44692 5.13267C6.76271 4.61518 6.92061 4.04488 6.92061 3.42178C6.92061 2.79868 6.76271 2.22838 6.44692 1.71089C6.13113 1.1934 5.71097 0.778878 5.18644 0.467327C4.66726 0.155776 4.09188 0 3.4603 0C2.82872 0 2.25067 0.155776 1.72614 0.467327C1.20161 0.778878 0.781445 1.1934 0.465656 1.71089C0.155219 2.22838 0 2.79868 0 3.42178C0 4.04488 0.157895 4.61518 0.473684 5.13267C0.789474 5.64488 1.20963 6.05677 1.73417 6.36832C2.2587 6.67459 2.83408 6.82772 3.4603 6.82772ZM3.05085 5.25149C2.96521 5.25149 2.89028 5.233 2.82605 5.19604C2.76717 5.1538 2.7083 5.09835 2.64942 5.0297L1.75022 3.9604C1.68064 3.87591 1.64585 3.77294 1.64585 3.65149C1.64585 3.53531 1.68332 3.43762 1.75825 3.35842C1.83854 3.27921 1.9322 3.2396 2.03925 3.2396C2.11954 3.2396 2.18644 3.25545 2.23996 3.28713C2.29884 3.31881 2.35504 3.36898 2.40856 3.43762L3.03479 4.22178L4.46387 1.95644C4.56021 1.80858 4.68064 1.73465 4.82516 1.73465C4.93756 1.73465 5.0339 1.77162 5.11418 1.84554C5.19982 1.91947 5.24264 2.0066 5.24264 2.10693C5.24264 2.21254 5.20785 2.32079 5.13827 2.43168L3.4603 5.0297C3.36396 5.17756 3.22748 5.25149 3.05085 5.25149ZM9.32114 4.02376H17.3818C17.5531 4.02376 17.6976 3.96568 17.8153 3.84951C17.9384 3.73333 18 3.59076 18 3.42178C18 3.25809 17.9384 3.11815 17.8153 3.00198C17.6976 2.88581 17.5531 2.82772 17.3818 2.82772H9.32114C9.14987 2.82772 9.00535 2.88581 8.8876 3.00198C8.76985 3.11815 8.71097 3.25809 8.71097 3.42178C8.71097 3.59076 8.76985 3.73333 8.8876 3.84951C9.00535 3.96568 9.14987 4.02376 9.32114 4.02376ZM9.32114 13.1802H17.3818C17.5531 13.1802 17.6976 13.1221 17.8153 13.0059C17.9384 12.8898 18 12.7498 18 12.5861C18 12.4172 17.9384 12.2746 17.8153 12.1584C17.6976 12.0422 17.5531 11.9842 17.3818 11.9842H9.32114C9.14987 11.9842 9.00535 12.0422 8.8876 12.1584C8.76985 12.2746 8.71097 12.4172 8.71097 12.5861C8.71097 12.7498 8.76985 12.8898 8.8876 13.0059C9.00535 13.1221 9.14987 13.1802 9.32114 13.1802ZM3.4603 16C4.09188 16 4.66726 15.8442 5.18644 15.5327C5.71097 15.2264 6.13113 14.8145 6.44692 14.297C6.76271 13.7795 6.92061 13.2119 6.92061 12.5941C6.92061 11.971 6.76271 11.4007 6.44692 10.8832C6.13113 10.3604 5.71097 9.94323 5.18644 9.63168C4.66726 9.32013 4.09188 9.16436 3.4603 9.16436C2.82872 9.16436 2.25067 9.32013 1.72614 9.63168C1.20161 9.94323 0.781445 10.3604 0.465656 10.8832C0.155219 11.4007 0 11.971 0 12.5941C0 13.2119 0.157895 13.7795 0.473684 14.297C0.789474 14.8145 1.20963 15.2264 1.73417 15.5327C2.2587 15.8442 2.83408 16 3.4603 16ZM3.05085 14.4238C2.96521 14.4238 2.89028 14.4026 2.82605 14.3604C2.76717 14.3182 2.7083 14.2653 2.64942 14.202L1.75022 13.1248C1.68064 13.0455 1.64585 12.9426 1.64585 12.8158C1.64585 12.705 1.68332 12.6099 1.75825 12.5307C1.83854 12.4515 1.9322 12.4119 2.03925 12.4119C2.11954 12.4119 2.18644 12.4277 2.23996 12.4594C2.29884 12.4911 2.35504 12.5413 2.40856 12.6099L3.03479 13.3941L4.46387 11.1287C4.56021 10.9756 4.68064 10.899 4.82516 10.899C4.93756 10.899 5.0339 10.936 5.11418 11.0099C5.19982 11.0838 5.24264 11.1736 5.24264 11.2792C5.24264 11.3795 5.20785 11.4851 5.13827 11.596L3.4603 14.1941C3.36396 14.3472 3.22748 14.4238 3.05085 14.4238Z"
		fill="currentColor"
	/>
</svg>
