<svg
	color="rgb(var(--foreground, 0, 0, 0))"
	viewBox="0 0 18 14"
	fill="none"
	xmlns="http://www.w3.org/2000/svg"
>
	<path
		d="M10.3933 1.22764C10.5537 1.22764 10.6908 1.16802 10.8047 1.04878C10.9185 0.929539 10.9754 0.783198 10.9754 0.609756C10.9754 0.441734 10.9185 0.298103 10.8047 0.178862C10.6908 0.0596206 10.5537 0 10.3933 0H0.589909C0.429495 0 0.28978 0.0596206 0.170763 0.178862C0.056921 0.298103 0 0.441734 0 0.609756C0 0.783198 0.056921 0.929539 0.170763 1.04878C0.28978 1.16802 0.429495 1.22764 0.589909 1.22764H10.3933ZM10.3933 5.4878C10.5537 5.4878 10.6908 5.42818 10.8047 5.30894C10.9185 5.1897 10.9754 5.04336 10.9754 4.86992C10.9754 4.69648 10.9185 4.55285 10.8047 4.43902C10.6908 4.31978 10.5537 4.26016 10.3933 4.26016H0.589909C0.429495 4.26016 0.28978 4.31978 0.170763 4.43902C0.056921 4.55285 0 4.69648 0 4.86992C0 5.04336 0.056921 5.1897 0.170763 5.30894C0.28978 5.42818 0.429495 5.4878 0.589909 5.4878H10.3933ZM10.3933 9.74797C10.5537 9.74797 10.6908 9.68835 10.8047 9.56911C10.9185 9.44986 10.9754 9.30352 10.9754 9.13008C10.9754 8.95664 10.9185 8.81301 10.8047 8.69919C10.6908 8.57995 10.5537 8.52033 10.3933 8.52033H0.589909C0.429495 8.52033 0.28978 8.57995 0.170763 8.69919C0.056921 8.81301 0 8.95664 0 9.13008C0 9.30352 0.056921 9.44986 0.170763 9.56911C0.28978 9.68835 0.429495 9.74797 0.589909 9.74797H10.3933ZM6.42692 14C6.59251 14 6.72963 13.9404 6.8383 13.8211C6.95214 13.7073 7.00906 13.5637 7.00906 13.3902C7.00906 13.2168 6.95214 13.0705 6.8383 12.9512C6.72963 12.832 6.59251 12.7724 6.42692 12.7724H0.589909C0.429495 12.7724 0.28978 12.832 0.170763 12.9512C0.056921 13.0705 0 13.2168 0 13.3902C0 13.5637 0.056921 13.7073 0.170763 13.8211C0.28978 13.9404 0.429495 14 0.589909 14H6.42692ZM16.7891 9.49594C16.9754 9.62602 17.1617 9.69106 17.348 9.69106C17.5395 9.69106 17.6947 9.62873 17.8137 9.50407C17.9379 9.37398 18 9.18699 18 8.94309V5.08943C18 4.71545 17.8706 4.47696 17.6119 4.37398C17.3583 4.26558 17.0841 4.31707 16.7891 4.52846L14.2199 6.35772C14.0699 6.46612 13.969 6.60434 13.9172 6.77236C13.8655 6.94038 13.8629 7.11111 13.9094 7.28455C13.9612 7.45257 14.0647 7.59079 14.2199 7.69919L16.7891 9.49594Z"
		fill="currentColor"
	/>
</svg>
