<svg
	color="rgb(var(--foreground, 0, 0, 0))"
	viewBox="0 0 17 16"
	fill="none"
	xmlns="http://www.w3.org/2000/svg"
>
	<path
		d="M12.1601 8.21961C12.3802 8.26144 12.6138 8.28235 12.8607 8.28235C13.3922 8.28235 13.8862 8.18824 14.3425 8C14.8042 7.80654 15.2095 7.53987 15.5585 7.2C15.9128 6.86013 16.1866 6.46797 16.3799 6.02353C16.5786 5.57386 16.6779 5.09281 16.6779 4.58039C16.6779 3.90065 16.5061 3.28105 16.1625 2.72157C15.8189 2.15686 15.3572 1.70719 14.7774 1.37255C14.2029 1.03791 13.564 0.870588 12.8607 0.870588C12.34 0.870588 11.8487 0.96732 11.387 1.16078C10.9253 1.34902 10.52 1.61569 10.171 1.96078C9.82204 2.30065 9.54824 2.69542 9.3496 3.1451C9.15633 3.58954 9.05969 4.06797 9.05969 4.58039C9.05969 4.81046 9.07848 5.03529 9.11606 5.2549H10.3643C10.3374 5.15033 10.316 5.04314 10.2999 4.93333C10.2838 4.8183 10.2757 4.70065 10.2757 4.58039C10.2757 4.11503 10.3911 3.6915 10.622 3.3098C10.8528 2.9281 11.1642 2.62484 11.5561 2.4C11.9481 2.16993 12.3829 2.0549 12.8607 2.0549C13.3439 2.0549 13.7815 2.16732 14.1734 2.39216C14.5653 2.61699 14.8767 2.92288 15.1075 3.3098C15.3438 3.6915 15.4619 4.11503 15.4619 4.58039C15.4619 5.04575 15.3438 5.46928 15.1075 5.85098C14.8767 6.23268 14.5626 6.53595 14.1653 6.76078C13.7734 6.98562 13.3385 7.09804 12.8607 7.09804C12.646 7.09804 12.4473 7.07451 12.2648 7.02745L12.1601 8.21961ZM9.63146 10.6824C10.2113 10.6824 10.7374 10.5464 11.2099 10.2745C11.6823 9.99739 12.0581 9.62876 12.3373 9.16863C12.6218 8.7085 12.7641 8.19608 12.7641 7.63137C12.7641 7.0719 12.6218 6.56209 12.3373 6.10196C12.0581 5.6366 11.6823 5.26797 11.2099 4.99608C10.7374 4.71895 10.2113 4.58039 9.63146 4.58039C9.05164 4.58039 8.5255 4.71895 8.05306 4.99608C7.58061 5.26797 7.20212 5.6366 6.91758 6.10196C6.6384 6.56209 6.49882 7.0719 6.49882 7.63137C6.49882 8.19608 6.6384 8.7085 6.91758 9.16863C7.20212 9.62876 7.58061 9.99739 8.05306 10.2745C8.5255 10.5464 9.05164 10.6824 9.63146 10.6824ZM9.63146 9.49804C9.27712 9.49804 8.955 9.41438 8.66509 9.24706C8.37518 9.07974 8.14433 8.85752 7.97253 8.58039C7.80073 8.29804 7.71483 7.9817 7.71483 7.63137C7.71483 7.28627 7.80073 6.97255 7.97253 6.6902C8.14433 6.40784 8.37518 6.18301 8.66509 6.01569C8.955 5.84837 9.27712 5.76471 9.63146 5.76471C9.98579 5.76471 10.3079 5.84837 10.5978 6.01569C10.8877 6.18301 11.1186 6.40784 11.2904 6.6902C11.4622 6.97255 11.5481 7.28627 11.5481 7.63137C11.5481 7.9817 11.4622 8.29804 11.2904 8.58039C11.1186 8.85752 10.8877 9.07974 10.5978 9.24706C10.3079 9.41438 9.98579 9.49804 9.63146 9.49804ZM2.13406 8.65098C2.52061 8.65098 2.87494 8.55686 3.19706 8.36863C3.51918 8.18039 3.77689 7.92941 3.97016 7.61569C4.16343 7.30196 4.26007 6.95425 4.26007 6.57255C4.26007 6.19608 4.16343 5.85098 3.97016 5.53725C3.77689 5.22353 3.51918 4.97516 3.19706 4.79216C2.87494 4.60392 2.52061 4.5098 2.13406 4.5098C1.74214 4.5098 1.38513 4.60392 1.063 4.79216C0.740881 4.97516 0.483183 5.22353 0.28991 5.53725C0.0966366 5.85098 0 6.19608 0 6.57255C0 6.95425 0.0966366 7.30458 0.28991 7.62353C0.483183 7.93725 0.740881 8.18824 1.063 8.37647C1.38513 8.55948 1.74214 8.65098 2.13406 8.65098ZM2.13406 7.46667C1.88173 7.46667 1.6643 7.38039 1.48176 7.20784C1.30459 7.03007 1.21601 6.8183 1.21601 6.57255C1.21601 6.33203 1.30459 6.12549 1.48176 5.95294C1.6643 5.78039 1.88173 5.69412 2.13406 5.69412C2.38102 5.69412 2.59308 5.78039 2.77025 5.95294C2.95279 6.12549 3.04405 6.33203 3.04405 6.57255C3.04405 6.8183 2.95279 7.03007 2.77025 7.20784C2.59308 7.38039 2.38102 7.46667 2.13406 7.46667ZM5.27475 15.749C5.69351 15.749 6.07469 15.6471 6.41829 15.4431C6.76188 15.2444 7.03569 14.9752 7.2397 14.6353C7.44908 14.2954 7.55377 13.9216 7.55377 13.5137C7.55377 13.1059 7.44908 12.7346 7.2397 12.4C7.03569 12.0654 6.76188 11.7987 6.41829 11.6C6.07469 11.3961 5.69351 11.2941 5.27475 11.2941C4.856 11.2941 4.47213 11.3961 4.12317 11.6C3.7742 11.7987 3.49503 12.0654 3.28565 12.4C3.08163 12.7346 2.97963 13.1059 2.97963 13.5137C2.97963 13.9216 3.08163 14.2954 3.28565 14.6353C3.49503 14.9752 3.7742 15.2444 4.12317 15.4431C4.47213 15.6471 4.856 15.749 5.27475 15.749ZM5.27475 14.5569C4.97948 14.5569 4.72446 14.4549 4.50971 14.251C4.30033 14.0471 4.19564 13.8013 4.19564 13.5137C4.19564 13.2314 4.30302 12.9882 4.51777 12.7843C4.73251 12.5804 4.98484 12.4784 5.27475 12.4784C5.56466 12.4784 5.81431 12.5804 6.02369 12.7843C6.23307 12.9882 6.33776 13.2314 6.33776 13.5137C6.33776 13.7961 6.23307 14.0392 6.02369 14.2431C5.81431 14.4523 5.56466 14.5569 5.27475 14.5569ZM5.29086 4.30588C5.36065 4.30588 5.41971 4.28497 5.46803 4.24314C5.51635 4.20131 5.54856 4.14641 5.56466 4.07843C5.63446 3.72288 5.69351 3.44837 5.74183 3.2549C5.79552 3.05621 5.87068 2.9098 5.96732 2.81569C6.06395 2.72157 6.21159 2.65098 6.41023 2.60392C6.61424 2.55163 6.89879 2.48889 7.26386 2.41569C7.33902 2.40523 7.39808 2.37647 7.44103 2.32941C7.48397 2.27712 7.50545 2.21699 7.50545 2.14902C7.50545 2.08627 7.48397 2.03137 7.44103 1.98431C7.39808 1.93203 7.33902 1.90065 7.26386 1.8902C6.89879 1.81699 6.61424 1.75686 6.41023 1.7098C6.21159 1.65752 6.06395 1.58431 5.96732 1.4902C5.87068 1.39085 5.79552 1.24444 5.74183 1.05098C5.69351 0.857516 5.63446 0.583007 5.56466 0.227451C5.54856 0.159477 5.51635 0.104575 5.46803 0.0627451C5.41971 0.020915 5.36065 0 5.29086 0C5.22107 0 5.16201 0.020915 5.11369 0.0627451C5.06537 0.104575 5.03316 0.159477 5.01706 0.227451C4.95263 0.583007 4.89358 0.857516 4.83989 1.05098C4.7862 1.24444 4.71104 1.39085 4.6144 1.4902C4.51777 1.58431 4.36744 1.65752 4.16343 1.7098C3.96479 1.75686 3.68293 1.81699 3.31786 1.8902C3.2427 1.90065 3.18364 1.93203 3.14069 1.98431C3.09774 2.03137 3.07627 2.08627 3.07627 2.14902C3.07627 2.21699 3.09774 2.27712 3.14069 2.32941C3.18364 2.37647 3.2427 2.40523 3.31786 2.41569C3.68293 2.48889 3.96479 2.55163 4.16343 2.60392C4.36744 2.65098 4.51777 2.72157 4.6144 2.81569C4.71104 2.9098 4.7862 3.05621 4.83989 3.2549C4.89358 3.44837 4.95263 3.72288 5.01706 4.07843C5.03316 4.14641 5.06537 4.20131 5.11369 4.24314C5.16201 4.28497 5.22107 4.30588 5.29086 4.30588ZM14.0365 16C14.1224 16 14.1975 15.9712 14.262 15.9137C14.3264 15.8614 14.364 15.7908 14.3747 15.702C14.4391 15.2314 14.5009 14.8654 14.5599 14.6039C14.6243 14.3425 14.7237 14.1464 14.8579 14.0157C14.9975 13.885 15.2095 13.7804 15.4941 13.702C15.7786 13.6288 16.1786 13.5451 16.694 13.451C16.7853 13.4353 16.8577 13.3987 16.9114 13.3412C16.9705 13.2784 17 13.2052 17 13.1216C17 13.0327 16.9705 12.9595 16.9114 12.902C16.8524 12.8444 16.7772 12.8078 16.6859 12.7922C16.1813 12.7242 15.7867 12.6588 15.5021 12.5961C15.2176 12.5281 15.0055 12.4261 14.8659 12.2902C14.7264 12.1542 14.6243 11.9503 14.5599 11.6784C14.5009 11.4065 14.4391 11.0301 14.3747 10.549C14.364 10.4601 14.3264 10.3869 14.262 10.3294C14.2029 10.2719 14.1277 10.2431 14.0365 10.2431C13.9398 10.2431 13.8593 10.2745 13.7949 10.3373C13.7358 10.3948 13.7036 10.468 13.6982 10.5569C13.6392 11.0275 13.5775 11.3935 13.513 11.6549C13.454 11.9163 13.352 12.1124 13.207 12.2431C13.0674 12.3739 12.8527 12.4758 12.5628 12.549C12.2782 12.617 11.8809 12.698 11.3709 12.7922C11.2796 12.8078 11.2072 12.8471 11.1535 12.9098C11.0998 12.9725 11.073 13.0431 11.073 13.1216C11.073 13.2105 11.1025 13.2837 11.1615 13.3412C11.2206 13.3987 11.3011 13.4353 11.4031 13.451C11.9078 13.5294 12.2997 13.6026 12.5789 13.6706C12.8634 13.7438 13.0755 13.8484 13.2151 13.9843C13.3547 14.1203 13.454 14.319 13.513 14.5804C13.5775 14.8471 13.6392 15.2157 13.6982 15.6863C13.7036 15.7804 13.7358 15.8562 13.7949 15.9137C13.8593 15.9712 13.9398 16 14.0365 16Z"
		fill="currentColor"
	/>
</svg>
