<svg
	color="rgb(var(--foreground, 0, 0, 0))"
	viewBox="0 0 17 16"
	fill="none"
	xmlns="http://www.w3.org/2000/svg"
>
	<path
		d="M9.63145 10.5255C10.1791 10.5255 10.6757 10.3974 11.1213 10.1412C11.5722 9.87974 11.9319 9.53203 12.2004 9.09804C12.4688 8.65882 12.603 8.16993 12.603 7.63137C12.603 7.09804 12.4688 6.61438 12.2004 6.18039C11.9319 5.74118 11.5722 5.39085 11.1213 5.12941C10.6757 4.86797 10.1791 4.73725 9.63145 4.73725C9.08384 4.73725 8.58455 4.86797 8.13358 5.12941C7.68798 5.39085 7.33097 5.74118 7.06253 6.18039C6.7941 6.61438 6.65988 7.09804 6.65988 7.63137C6.65988 8.16993 6.7941 8.65882 7.06253 9.09804C7.33097 9.53203 7.68798 9.87974 8.13358 10.1412C8.58455 10.3974 9.08384 10.5255 9.63145 10.5255ZM2.13406 8.65098C2.52061 8.65098 2.87494 8.55686 3.19706 8.36863C3.51919 8.18039 3.77688 7.92941 3.97016 7.61569C4.16343 7.30196 4.26007 6.95425 4.26007 6.57255C4.26007 6.19608 4.16343 5.85098 3.97016 5.53725C3.77688 5.22353 3.51919 4.97516 3.19706 4.79216C2.87494 4.60392 2.52061 4.5098 2.13406 4.5098C1.74215 4.5098 1.38513 4.60392 1.063 4.79216C0.740881 4.97516 0.483184 5.22353 0.28991 5.53725C0.0966367 5.85098 0 6.19608 0 6.57255C0 6.95425 0.0966367 7.30458 0.28991 7.62353C0.483184 7.93725 0.740881 8.18824 1.063 8.37647C1.38513 8.55948 1.74215 8.65098 2.13406 8.65098ZM5.27475 15.749C5.69351 15.749 6.07469 15.6471 6.41829 15.4431C6.76189 15.2444 7.03568 14.9752 7.23969 14.6353C7.44907 14.2954 7.55376 13.9216 7.55376 13.5137C7.55376 13.1059 7.44907 12.7346 7.23969 12.4C7.03568 12.0654 6.76189 11.7987 6.41829 11.6C6.07469 11.3961 5.69351 11.2941 5.27475 11.2941C4.85599 11.2941 4.47213 11.3961 4.12317 11.6C3.7742 11.7987 3.49503 12.0654 3.28565 12.4C3.08164 12.7346 2.97963 13.1059 2.97963 13.5137C2.97963 13.9216 3.08164 14.2954 3.28565 14.6353C3.49503 14.9752 3.7742 15.2444 4.12317 15.4431C4.47213 15.6471 4.85599 15.749 5.27475 15.749ZM14.0365 16C14.1224 16 14.1975 15.9712 14.262 15.9137C14.3264 15.8614 14.364 15.7908 14.3747 15.702C14.4391 15.2314 14.5009 14.8654 14.5599 14.6039C14.6243 14.3425 14.7237 14.1464 14.8579 14.0157C14.9975 13.885 15.2095 13.7804 15.4941 13.702C15.7786 13.6288 16.1786 13.5451 16.694 13.451C16.7853 13.4353 16.8577 13.3987 16.9114 13.3412C16.9705 13.2784 17 13.2052 17 13.1216C17 13.0327 16.9705 12.9595 16.9114 12.902C16.8524 12.8444 16.7772 12.8078 16.6859 12.7922C16.1813 12.7242 15.7867 12.6588 15.5021 12.5961C15.2176 12.5281 15.0055 12.4261 14.8659 12.2902C14.7264 12.1542 14.6243 11.9503 14.5599 11.6784C14.5009 11.4065 14.4391 11.0301 14.3747 10.549C14.364 10.4601 14.3264 10.3869 14.262 10.3294C14.2029 10.2719 14.1277 10.2431 14.0365 10.2431C13.9398 10.2431 13.8593 10.2745 13.7949 10.3373C13.7358 10.3948 13.7036 10.468 13.6982 10.5569C13.6392 11.0275 13.5774 11.3935 13.513 11.6549C13.454 11.9163 13.352 12.1124 13.207 12.2431C13.0674 12.3739 12.8527 12.4758 12.5628 12.549C12.2782 12.617 11.8809 12.698 11.3709 12.7922C11.2796 12.8078 11.2072 12.8471 11.1535 12.9098C11.0998 12.9725 11.0729 13.0431 11.0729 13.1216C11.0729 13.2105 11.1025 13.2837 11.1615 13.3412C11.2206 13.3987 11.3011 13.4353 11.4031 13.451C11.9078 13.5294 12.2997 13.6026 12.5789 13.6706C12.8634 13.7438 13.0755 13.8484 13.2151 13.9843C13.3546 14.1203 13.454 14.319 13.513 14.5804C13.5774 14.8471 13.6392 15.2157 13.6982 15.6863C13.7036 15.7804 13.7358 15.8562 13.7949 15.9137C13.8593 15.9712 13.9398 16 14.0365 16ZM5.29086 4.30588C5.36065 4.30588 5.41971 4.28497 5.46803 4.24314C5.51635 4.20131 5.54856 4.14641 5.56466 4.07843C5.63446 3.72288 5.69351 3.44837 5.74183 3.2549C5.79552 3.05621 5.87068 2.9098 5.96732 2.81569C6.06395 2.72157 6.21159 2.65098 6.41023 2.60392C6.61425 2.55163 6.89878 2.48889 7.26385 2.41569C7.33901 2.40523 7.39807 2.37647 7.44102 2.32941C7.48397 2.27712 7.50544 2.21699 7.50544 2.14902C7.50544 2.08627 7.48397 2.03137 7.44102 1.98431C7.39807 1.93203 7.33901 1.90065 7.26385 1.8902C6.89878 1.81699 6.61425 1.75686 6.41023 1.7098C6.21159 1.65752 6.06395 1.58431 5.96732 1.4902C5.87068 1.39085 5.79552 1.24444 5.74183 1.05098C5.69351 0.857516 5.63446 0.583007 5.56466 0.227451C5.54856 0.159477 5.51635 0.104575 5.46803 0.0627451C5.41971 0.020915 5.36065 0 5.29086 0C5.22107 0 5.16201 0.020915 5.11369 0.0627451C5.06537 0.104575 5.03316 0.159477 5.01706 0.227451C4.95263 0.583007 4.89358 0.857516 4.83989 1.05098C4.7862 1.24444 4.71104 1.39085 4.6144 1.4902C4.51777 1.58431 4.36744 1.65752 4.16343 1.7098C3.96479 1.75686 3.68293 1.81699 3.31786 1.8902C3.2427 1.90065 3.18364 1.93203 3.14069 1.98431C3.09774 2.03137 3.07627 2.08627 3.07627 2.14902C3.07627 2.21699 3.09774 2.27712 3.14069 2.32941C3.18364 2.37647 3.2427 2.40523 3.31786 2.41569C3.68293 2.48889 3.96479 2.55163 4.16343 2.60392C4.36744 2.65098 4.51777 2.72157 4.6144 2.81569C4.71104 2.9098 4.7862 3.05621 4.83989 3.2549C4.89358 3.44837 4.95263 3.72288 5.01706 4.07843C5.03316 4.14641 5.06537 4.20131 5.11369 4.24314C5.16201 4.28497 5.22107 4.30588 5.29086 4.30588ZM16.6779 4.58039C16.6779 3.90065 16.5061 3.28105 16.1625 2.72157C15.8189 2.15686 15.3572 1.70719 14.7774 1.37255C14.2029 1.03791 13.564 0.870588 12.8607 0.870588C12.2487 0.870588 11.6796 1.00131 11.1535 1.26275C10.6327 1.52418 10.1952 1.88235 9.84083 2.33725C9.4865 2.78693 9.25296 3.29412 9.14021 3.85882C9.2798 3.83791 9.44355 3.82745 9.63145 3.82745C10.1737 3.82745 10.6783 3.9268 11.1454 4.12549C11.6179 4.31895 12.0339 4.59085 12.3936 4.94118C12.7534 5.2915 13.0325 5.69673 13.2312 6.15686C13.4352 6.61699 13.5372 7.1085 13.5372 7.63137C13.5372 7.73595 13.5318 7.83791 13.5211 7.93725C13.5157 8.0366 13.505 8.13333 13.4889 8.22745C14.0902 8.13333 14.6324 7.91634 15.1156 7.57647C15.5988 7.23137 15.9799 6.8 16.2591 6.28235C16.5383 5.76471 16.6779 5.19739 16.6779 4.58039Z"
		fill="currentColor"
	/>
</svg>
