<svg
	color="rgb(var(--foreground, 0, 0, 0))"
	viewBox="0 0 15 18"
	fill="none"
	xmlns="http://www.w3.org/2000/svg"
>
	<path
		d="M3.24113 1.89927C3.74217 1.89927 4.24322 2.02297 4.74426 2.27035C5.2453 2.51258 5.75939 2.81666 6.28653 3.18258C6.81367 3.54335 7.36691 3.9067 7.94624 4.27262C8.52557 4.63339 9.14144 4.93747 9.79384 5.18486C10.4462 5.42709 11.1508 5.5482 11.9076 5.5482C12.56 5.5482 13.1159 5.42709 13.5752 5.18486C14.0397 4.93747 14.392 4.60505 14.632 4.18759C14.8773 3.76497 15 3.29339 15 2.77285C15 2.51 14.9661 2.242 14.8982 1.96885C14.8304 1.69054 14.726 1.41739 14.5851 1.14939C14.4963 0.984463 14.3789 0.883962 14.2328 0.847885C14.0919 0.811808 13.9535 0.824693 13.8179 0.886539C13.6874 0.943232 13.5934 1.04116 13.536 1.18031C13.4786 1.31431 13.4995 1.4715 13.5986 1.65189C13.8231 2.0745 13.9353 2.48166 13.9353 2.87335C13.9353 3.35266 13.763 3.73662 13.4186 4.02524C13.0793 4.31385 12.5757 4.45816 11.9076 4.45816C11.2709 4.45816 10.6602 4.33705 10.0757 4.09482C9.49635 3.84743 8.92745 3.54335 8.369 3.18258C7.81576 2.81666 7.26253 2.45331 6.70929 2.09254C6.16127 1.72662 5.60021 1.42254 5.0261 1.18031C4.45198 0.932924 3.85699 0.809231 3.24113 0.809231C2.56263 0.809231 1.98069 0.940655 1.4953 1.2035C1.01514 1.46635 0.644572 1.81681 0.383612 2.25489C0.127871 2.68781 0 3.16197 0 3.67735C0 4.19789 0.127871 4.70297 0.383612 5.19259C0.467119 5.35751 0.581942 5.45801 0.728079 5.49409C0.874217 5.52501 1.01253 5.50955 1.14301 5.4477C1.27349 5.38586 1.36743 5.28793 1.42484 5.15393C1.48225 5.01993 1.46399 4.86532 1.37004 4.69009C1.27088 4.49424 1.1952 4.30355 1.14301 4.11801C1.09603 3.93247 1.07255 3.75466 1.07255 3.58458C1.07255 3.10012 1.25783 2.69812 1.62839 2.37858C2.00418 2.05904 2.54175 1.89927 3.24113 1.89927ZM7.0381 9.85425L8.06367 9.84652C8.03236 9.24352 8.07933 8.69721 8.20459 8.20759C8.33507 7.71282 8.50209 7.25155 8.70564 6.82378C8.90919 6.39086 9.11535 5.9734 9.32411 5.5714C9.5381 5.16424 9.71555 4.74936 9.85647 4.32674C10.0026 3.89897 10.0757 3.44028 10.0757 2.95066C10.0757 2.49712 9.97912 2.08739 9.78601 1.72146C9.5929 1.35039 9.32933 1.05404 8.9953 0.832424C8.66649 0.610808 8.29332 0.5 7.87578 0.5C7.32255 0.5 6.85021 0.682962 6.45877 1.04889C6.06733 1.41481 5.86378 1.87608 5.84812 2.4327L6.8737 2.72647C6.87891 2.38631 6.97286 2.11316 7.15553 1.907C7.3382 1.6957 7.57829 1.59004 7.87578 1.59004C8.19415 1.59004 8.45512 1.71631 8.65866 1.96885C8.86743 2.21623 8.97182 2.5435 8.97182 2.95066C8.97182 3.32174 8.90136 3.68766 8.76044 4.04843C8.61952 4.4092 8.44729 4.78801 8.24374 5.18486C8.04019 5.57655 7.83925 6.00174 7.64092 6.46044C7.44781 6.91913 7.29123 7.42679 7.17119 7.9834C7.05115 8.53486 7.00679 9.15848 7.0381 9.85425ZM1.34656 10.4109C1.34656 11.2664 1.50574 12.1142 1.82411 12.9543C2.14248 13.7944 2.62004 14.5571 3.25679 15.2426C3.89353 15.9281 4.68946 16.4744 5.64457 16.8815C6.59969 17.2938 7.71138 17.5 8.97965 17.5C9.71033 17.5 10.368 17.3969 10.9525 17.1908C11.5371 16.9898 11.999 16.714 12.3382 16.3636C12.6775 16.0131 12.8471 15.624 12.8471 15.1962C12.8471 14.8921 12.7401 14.637 12.5261 14.4309C12.3121 14.2196 12.0016 14.0907 11.5945 14.0443C11.4901 14.0289 11.3909 14.0443 11.297 14.0907C11.2082 14.1371 11.1534 14.2247 11.1326 14.3536C11.0647 14.8896 10.8586 15.3276 10.5141 15.6678C10.1748 16.008 9.7547 16.178 9.25365 16.178C8.89875 16.178 8.61691 16.0853 8.40814 15.8997C8.20459 15.7142 8.10282 15.4874 8.10282 15.2194C8.10282 14.9102 8.2333 14.6396 8.49426 14.4077C8.75522 14.1758 9.09186 13.9567 9.50418 13.7506C9.92171 13.5393 10.3627 13.3176 10.8272 13.0857C11.2918 12.8486 11.7302 12.5755 12.1425 12.2663C12.56 11.957 12.8993 11.5859 13.1602 11.153C13.4264 10.7201 13.5595 10.197 13.5595 9.58367C13.5595 9.0219 13.4368 8.52713 13.1915 8.09936C12.9462 7.67159 12.6122 7.33659 12.1895 7.09436C11.7667 6.85213 11.2865 6.73101 10.749 6.73101C10.2531 6.73101 9.79384 6.82121 9.37109 7.00159C8.95355 7.17682 8.5882 7.43194 8.27505 7.76694C7.96712 8.10194 7.72443 8.50652 7.54697 8.98067C7.58351 8.29521 7.48956 7.72313 7.26514 7.26444C7.04071 6.80575 6.72756 6.46044 6.32568 6.22851C5.92902 5.99659 5.488 5.88063 5.00261 5.88063C4.23539 5.88063 3.57777 6.08936 3.02975 6.50682C2.48695 6.91913 2.06942 7.46802 1.77714 8.15348C1.49008 8.83894 1.34656 9.59141 1.34656 10.4109Z"
		fill="currentColor"
	/>
</svg>
