<svg
	color="rgb(var(--foreground, 0, 0, 0))"
	viewBox="0 0 18 14"
	fill="none"
	xmlns="http://www.w3.org/2000/svg"
>
	<path
		d="M7.58304 1.22764H17.4083C17.5692 1.22764 17.7067 1.16802 17.8209 1.04878C17.9403 0.929539 18 0.783198 18 0.609756C18 0.441734 17.9403 0.298103 17.8209 0.178862C17.7067 0.0596206 17.5692 0 17.4083 0H7.58304C7.41695 0 7.27681 0.0596206 7.16262 0.178862C7.04844 0.298103 6.99134 0.441734 6.99134 0.609756C6.99134 0.783198 7.04844 0.929539 7.16262 1.04878C7.27681 1.16802 7.41695 1.22764 7.58304 1.22764ZM7.58304 5.48781H17.4083C17.5692 5.48781 17.7067 5.42818 17.8209 5.30894C17.9403 5.1897 18 5.04336 18 4.86992C18 4.69648 17.9403 4.55285 17.8209 4.43902C17.7067 4.31978 17.5692 4.26016 17.4083 4.26016H7.58304C7.41695 4.26016 7.27681 4.31978 7.16262 4.43902C7.04844 4.55285 6.99134 4.69648 6.99134 4.86992C6.99134 5.04336 7.04844 5.1897 7.16262 5.30894C7.27681 5.42818 7.41695 5.48781 7.58304 5.48781ZM7.58304 9.74797H17.4083C17.5692 9.74797 17.7067 9.68835 17.8209 9.56911C17.9403 9.44986 18 9.30352 18 9.13008C18 8.95664 17.9403 8.81301 17.8209 8.69919C17.7067 8.57995 17.5692 8.52033 17.4083 8.52033H7.58304C7.41695 8.52033 7.27681 8.57995 7.16262 8.69919C7.04844 8.81301 6.99134 8.95664 6.99134 9.13008C6.99134 9.30352 7.04844 9.44986 7.16262 9.56911C7.27681 9.68835 7.41695 9.74797 7.58304 9.74797ZM7.58304 14H13.4299C13.596 14 13.7362 13.9404 13.8503 13.8211C13.9697 13.7073 14.0294 13.5637 14.0294 13.3902C14.0294 13.2168 13.9697 13.0705 13.8503 12.9512C13.7362 12.832 13.596 12.7724 13.4299 12.7724H7.58304C7.41695 12.7724 7.27681 12.832 7.16262 12.9512C7.04844 13.0705 6.99134 13.2168 6.99134 13.3902C6.99134 13.5637 7.04844 13.7073 7.16262 13.8211C7.27681 13.9404 7.41695 14 7.58304 14ZM1.22232 9.49594L3.7993 7.69919C3.94982 7.59079 4.04844 7.45257 4.09515 7.28455C4.14705 7.11111 4.14705 6.94038 4.09515 6.77236C4.04325 6.60434 3.94463 6.46612 3.7993 6.35772L1.22232 4.52846C1.0199 4.38753 0.825259 4.31707 0.638408 4.31707C0.451557 4.31707 0.298443 4.38482 0.179066 4.52033C0.0596885 4.65041 0 4.84011 0 5.08943V8.94309C0 9.18699 0.0596885 9.37127 0.179066 9.49594C0.303633 9.6206 0.459342 9.68564 0.646193 9.69106C0.838234 9.69106 1.03028 9.62602 1.22232 9.49594Z"
		fill="currentColor"
	/>
</svg>
