<svg
	color="rgb(var(--foreground, 0, 0, 0))"
	viewBox="0 0 16 14"
	fill="none"
	xmlns="http://www.w3.org/2000/svg"
>
	<path
		d="M0.595534 1.22764H15.3886C15.558 1.22764 15.7009 1.16802 15.8174 1.04878C15.9391 0.929539 16 0.783198 16 0.609756C16 0.436314 15.9391 0.292683 15.8174 0.178862C15.7009 0.0596206 15.558 0 15.3886 0H0.595534C0.431431 0 0.29115 0.0596206 0.17469 0.178862C0.0582299 0.292683 0 0.436314 0 0.609756C0 0.783198 0.0582299 0.929539 0.17469 1.04878C0.29115 1.16802 0.431431 1.22764 0.595534 1.22764ZM0.595534 5.47967H15.3886C15.558 5.47967 15.7009 5.42276 15.8174 5.30894C15.9391 5.1897 16 5.04336 16 4.86992C16 4.69648 15.9391 4.55014 15.8174 4.43089C15.7009 4.31165 15.558 4.25203 15.3886 4.25203H0.595534C0.431431 4.25203 0.29115 4.31165 0.17469 4.43089C0.0582299 4.55014 0 4.69648 0 4.86992C0 5.04336 0.0582299 5.1897 0.17469 5.30894C0.29115 5.42276 0.431431 5.47967 0.595534 5.47967ZM9.95732 9.73984H15.3886C15.558 9.73984 15.7009 9.68293 15.8174 9.56911C15.9391 9.44986 16 9.30352 16 9.13008C16 8.95664 15.9391 8.8103 15.8174 8.69106C15.7009 8.57182 15.558 8.5122 15.3886 8.5122H9.95732C9.79322 8.5122 9.65294 8.57182 9.53648 8.69106C9.42002 8.8103 9.36179 8.95664 9.36179 9.13008C9.36179 9.30352 9.42002 9.44986 9.53648 9.56911C9.65294 9.68293 9.79322 9.73984 9.95732 9.73984ZM9.95732 14H15.3886C15.558 14 15.7009 13.9404 15.8174 13.8211C15.9391 13.7019 16 13.5583 16 13.3902C16 13.2168 15.9391 13.0705 15.8174 12.9512C15.7009 12.832 15.558 12.7724 15.3886 12.7724H9.95732C9.79322 12.7724 9.65294 12.832 9.53648 12.9512C9.42002 13.0705 9.36179 13.2168 9.36179 13.3902C9.36179 13.5583 9.42002 13.7019 9.53648 13.8211C9.65294 13.9404 9.79322 14 9.95732 14ZM0.00794045 8.43902V10.2846C0.00794045 10.8591 0.187924 11.3117 0.547891 11.6423C0.907858 11.9729 1.36576 12.1382 1.92159 12.1382H4.26402V12.9837C4.26402 13.206 4.32225 13.3767 4.43871 13.4959C4.55517 13.6206 4.6981 13.6829 4.86749 13.6829C5.04218 13.6883 5.21158 13.6233 5.37568 13.4878L7.52754 11.7236C7.69165 11.5881 7.7737 11.4228 7.7737 11.2276C7.7737 11.0271 7.69165 10.8618 7.52754 10.7317L5.37568 8.97561C5.21687 8.84011 5.05012 8.77507 4.87543 8.78049C4.70604 8.78591 4.56046 8.84824 4.43871 8.96748C4.32225 9.08672 4.26402 9.25203 4.26402 9.46341V10.2764H2.09628C1.91629 10.2764 1.8263 10.1843 1.8263 10V8.43902C1.8263 8.11382 1.7469 7.85637 1.58809 7.66667C1.42928 7.47154 1.20695 7.37398 0.921092 7.37398C0.629942 7.37398 0.404963 7.47154 0.246154 7.66667C0.0873449 7.85637 0.00794045 8.11382 0.00794045 8.43902Z"
		fill="currentColor"
	/>
</svg>
