<svg
	color="rgb(var(--foreground, 0, 0, 0))"
	viewBox="0 0 21 16"
	fill="none"
	xmlns="http://www.w3.org/2000/svg"
>
	<path
		d="M5.60529 15.5H20.3966C20.5607 15.5 20.7009 15.4429 20.8174 15.3286C20.9391 15.2195 21 15.0818 21 14.9156C21 14.7494 20.9391 14.6091 20.8174 14.4948C20.7009 14.3805 20.5607 14.3234 20.3966 14.3234H5.60529C5.43592 14.3234 5.29301 14.3805 5.17656 14.4948C5.06541 14.6091 5.00983 14.7494 5.00983 14.9156C5.00983 15.0818 5.06541 15.2195 5.17656 15.3286C5.29301 15.4429 5.43592 15.5 5.60529 15.5ZM5.60529 11.5027H20.3966C20.5607 11.5027 20.7009 11.4456 20.8174 11.3313C20.9391 11.217 21 11.0767 21 10.9105C21 10.7443 20.9391 10.6066 20.8174 10.4975C20.7009 10.3832 20.5607 10.3261 20.3966 10.3261H5.60529C5.43592 10.3261 5.29301 10.3832 5.17656 10.4975C5.06541 10.6066 5.00983 10.7443 5.00983 10.9105C5.00983 11.0767 5.06541 11.217 5.17656 11.3313C5.29301 11.4456 5.43592 11.5027 5.60529 11.5027ZM5.60529 7.4976H20.3966C20.5607 7.4976 20.7009 7.44046 20.8174 7.32618C20.9391 7.2119 21 7.07164 21 6.90541C21 6.73918 20.9391 6.60152 20.8174 6.49244C20.7009 6.37815 20.5607 6.32101 20.3966 6.32101H5.60529C5.43592 6.32101 5.29301 6.37815 5.17656 6.49244C5.06541 6.60152 5.00983 6.73918 5.00983 6.90541C5.00983 7.07164 5.06541 7.2119 5.17656 7.32618C5.29301 7.44046 5.43592 7.4976 5.60529 7.4976ZM6.01021 3.92886H19.9996C20.3331 3.92886 20.5819 3.84835 20.7459 3.68731C20.9153 3.52628 21 3.28213 21 2.95486V2.37825C21 2.05618 20.9153 1.81463 20.7459 1.6536C20.5819 1.48737 20.3331 1.40425 19.9996 1.40425H6.01021C5.67675 1.40425 5.42533 1.48737 5.25595 1.6536C5.09187 1.81463 5.00983 2.05618 5.00983 2.37825V2.95486C5.00983 3.28213 5.09187 3.52628 5.25595 3.68731C5.42533 3.84835 5.67675 3.92886 6.01021 3.92886ZM0.833648 4.72365L3.48544 3.14187C3.69187 3.02239 3.79508 2.86655 3.79508 2.67435C3.80038 2.47695 3.69716 2.31592 3.48544 2.19125L0.833648 0.609468C0.621928 0.484796 0.43138 0.466615 0.262004 0.554924C0.0873346 0.643234 0 0.806866 0 1.04582V4.2873C0 4.53664 0.0873346 4.70287 0.262004 4.78599C0.436673 4.8691 0.627221 4.84832 0.833648 4.72365Z"
		fill="currentColor"
	/>
</svg>
