<svg
	color="rgb(var(--foreground, 0, 0, 0))"
	viewBox="0 0 16 14"
	fill="none"
	xmlns="http://www.w3.org/2000/svg"
>
	<path
		d="M9.95732 1.22764H15.3886C15.558 1.22764 15.7009 1.16802 15.8174 1.04878C15.9391 0.929539 16 0.783198 16 0.609756C16 0.441734 15.9391 0.298103 15.8174 0.178862C15.7009 0.0596206 15.558 0 15.3886 0H9.95732C9.79322 0 9.65294 0.0596206 9.53648 0.178862C9.42002 0.298103 9.36179 0.441734 9.36179 0.609756C9.36179 0.783198 9.42002 0.929539 9.53648 1.04878C9.65294 1.16802 9.79322 1.22764 9.95732 1.22764ZM9.95732 5.4878H15.3886C15.558 5.4878 15.7009 5.42818 15.8174 5.30894C15.9391 5.1897 16 5.04336 16 4.86992C16 4.69648 15.9391 4.55285 15.8174 4.43902C15.7009 4.31978 15.558 4.26016 15.3886 4.26016H9.95732C9.79322 4.26016 9.65294 4.31978 9.53648 4.43902C9.42002 4.55285 9.36179 4.69648 9.36179 4.86992C9.36179 5.04336 9.42002 5.1897 9.53648 5.30894C9.65294 5.42818 9.79322 5.4878 9.95732 5.4878ZM0.595534 9.74797H15.3886C15.558 9.74797 15.7009 9.68835 15.8174 9.56911C15.9391 9.44986 16 9.30352 16 9.13008C16 8.95664 15.9391 8.81301 15.8174 8.69919C15.7009 8.57995 15.558 8.52032 15.3886 8.52032H0.595534C0.431431 8.52032 0.29115 8.57995 0.17469 8.69919C0.0582299 8.81301 0 8.95664 0 9.13008C0 9.30352 0.0582299 9.44986 0.17469 9.56911C0.29115 9.68835 0.431431 9.74797 0.595534 9.74797ZM0.595534 14H15.3886C15.558 14 15.7009 13.9404 15.8174 13.8211C15.9391 13.7073 16 13.5637 16 13.3902C16 13.2168 15.9391 13.0705 15.8174 12.9512C15.7009 12.832 15.558 12.7724 15.3886 12.7724H0.595534C0.431431 12.7724 0.29115 12.832 0.17469 12.9512C0.0582299 13.0705 0 13.2168 0 13.3902C0 13.5637 0.0582299 13.7073 0.17469 13.8211C0.29115 13.9404 0.431431 14 0.595534 14ZM0.00794045 5.56911C0.00794045 5.89431 0.0873449 6.15447 0.246154 6.34959C0.404963 6.53929 0.629942 6.63415 0.921092 6.63415C1.20695 6.63415 1.42928 6.53929 1.58809 6.34959C1.7469 6.15447 1.8263 5.89431 1.8263 5.56911V4.00813C1.8263 3.82385 1.91629 3.73171 2.09628 3.73171H4.26402V4.54472C4.26402 4.7561 4.32225 4.92141 4.43871 5.04065C4.56046 5.15989 4.70604 5.22222 4.87543 5.22764C5.05012 5.22764 5.21687 5.1626 5.37568 5.03252L7.52754 3.27642C7.69165 3.14634 7.7737 2.98103 7.7737 2.78049C7.7737 2.57995 7.69165 2.41463 7.52754 2.28455L5.37568 0.520325C5.21158 0.384824 5.04218 0.319783 4.86749 0.325203C4.6981 0.325203 4.55517 0.387534 4.43871 0.512195C4.32225 0.631436 4.26402 0.799458 4.26402 1.01626V1.86992H1.92159C1.36576 1.86992 0.907858 2.03523 0.547891 2.36585C0.187924 2.69648 0.00794045 3.14905 0.00794045 3.72358V5.56911Z"
		fill="currentColor"
	/>
</svg>
