<svg
	color="rgb(var(--foreground, 0, 0, 0))"
	viewBox="0 0 21 16"
	fill="none"
	xmlns="http://www.w3.org/2000/svg"
>
	<path
		d="M5.60529 1.67537H20.3966C20.5607 1.67537 20.7009 1.61829 20.8174 1.50413C20.9391 1.38996 21 1.25245 21 1.09158C21 0.925521 20.9391 0.785411 20.8174 0.671246C20.7009 0.557082 20.5607 0.5 20.3966 0.5H5.60529C5.43592 0.5 5.29301 0.557082 5.17656 0.671246C5.06541 0.785411 5.00983 0.925521 5.00983 1.09158C5.00983 1.25245 5.06541 1.38996 5.17656 1.50413C5.29301 1.61829 5.43592 1.67537 5.60529 1.67537ZM5.60529 5.67631H20.3966C20.5607 5.67631 20.7009 5.61923 20.8174 5.50506C20.9391 5.3909 21 5.25338 21 5.09252C21 4.92646 20.9391 4.78635 20.8174 4.67218C20.7009 4.55802 20.5607 4.50094 20.3966 4.50094H5.60529C5.43592 4.50094 5.29301 4.55802 5.17656 4.67218C5.06541 4.78635 5.00983 4.92646 5.00983 5.09252C5.00983 5.25338 5.06541 5.3909 5.17656 5.50506C5.29301 5.61923 5.43592 5.67631 5.60529 5.67631ZM5.60529 9.67725H20.3966C20.5607 9.67725 20.7009 9.62016 20.8174 9.506C20.9391 9.39184 21 9.25432 21 9.09345C21 8.92739 20.9391 8.78728 20.8174 8.67312C20.7009 8.55896 20.5607 8.50187 20.3966 8.50187H5.60529C5.43592 8.50187 5.29301 8.55896 5.17656 8.67312C5.06541 8.78728 5.00983 8.92739 5.00983 9.09345C5.00983 9.25432 5.06541 9.39184 5.17656 9.506C5.29301 9.62016 5.43592 9.67725 5.60529 9.67725ZM6.01021 14.5889H19.9996C20.3331 14.5889 20.5819 14.5085 20.7459 14.3476C20.9153 14.1867 21 13.9454 21 13.6237V13.0477C21 12.7208 20.9153 12.4769 20.7459 12.316C20.5819 12.1499 20.3331 12.0669 19.9996 12.0669H6.01021C5.67675 12.0669 5.42533 12.1499 5.25595 12.316C5.09187 12.4769 5.00983 12.7208 5.00983 13.0477V13.6237C5.00983 13.9454 5.09187 14.1867 5.25595 14.3476C5.42533 14.5085 5.67675 14.5889 6.01021 14.5889ZM0.833648 15.3906L3.48544 13.8105C3.69187 13.6912 3.79508 13.5329 3.79508 13.3357C3.80038 13.1385 3.69716 12.9802 3.48544 12.8609L0.833648 11.2807C0.627221 11.151 0.436673 11.1302 0.262004 11.2185C0.0873346 11.3015 0 11.465 0 11.7088V14.9547C0 15.1935 0.0873346 15.3569 0.262004 15.4451C0.43138 15.5334 0.621928 15.5152 0.833648 15.3906Z"
		fill="currentColor"
	/>
</svg>
