<svg
	color="rgb(var(--foreground, 0, 0, 0))"
	viewBox="0 0 11 14"
	fill="none"
	xmlns="http://www.w3.org/2000/svg"
>
	<path
		d="M0 12.8651L2.00579 13.4299C2.43029 13.5479 2.76194 13.517 3.00072 13.3371C3.23951 13.1573 3.3589 12.8483 3.3589 12.41V9.53573H6.91679V7.18408H0.748191V12.0812C0.748191 12.3173 0.679209 12.5083 0.541245 12.6544C0.408587 12.7949 0.228172 12.8651 0 12.8651ZM0.748191 5.78489H3.3589V2.39649C3.3589 1.99753 3.274 1.6969 3.1042 1.4946C2.93439 1.28669 2.67969 1.13497 2.34009 1.03945L0.437771 0.5C0.533285 0.567431 0.607574 0.657339 0.660637 0.769723C0.719006 0.876489 0.748191 1.00573 0.748191 1.15745V5.78489ZM7.6411 12.8651L9.64689 13.4299C10.0714 13.5479 10.403 13.517 10.6418 13.3371C10.8806 13.1573 11 12.8483 11 12.41V2.39649C11 1.99753 10.9124 1.69409 10.7373 1.48618C10.5675 1.27826 10.3128 1.12654 9.97323 1.03102L8.07887 0.5C8.17439 0.567431 8.24867 0.657339 8.30174 0.769723C8.36011 0.876489 8.38929 1.00573 8.38929 1.15745V12.0812C8.38929 12.3173 8.32031 12.5083 8.18234 12.6544C8.04969 12.7949 7.86927 12.8651 7.6411 12.8651Z"
		fill="currentColor"
	/>
</svg>
