<svg
	color="rgb(var(--foreground, 0, 0, 0))"
	viewBox="0 0 21 16"
	fill="none"
	xmlns="http://www.w3.org/2000/svg"
>
	<path
		d="M7.57918 2.31114H20.394C20.5641 2.31114 20.7076 2.25238 20.8246 2.13486C20.9415 2.01734 21 1.87311 21 1.70218C21 1.53658 20.9415 1.39502 20.8246 1.27751C20.7076 1.15999 20.5641 1.10123 20.394 1.10123H7.57918C7.40906 1.10123 7.26552 1.15999 7.14857 1.27751C7.03161 1.39502 6.97313 1.53658 6.97313 1.70218C6.97313 1.87311 7.03161 2.01734 7.14857 2.13486C7.26552 2.25238 7.40906 2.31114 7.57918 2.31114ZM7.57918 6.50978H20.394C20.5641 6.50978 20.7076 6.45102 20.8246 6.3335C20.9415 6.21598 21 6.07176 21 5.90082C21 5.72988 20.9415 5.58832 20.8246 5.47615C20.7076 5.35863 20.5641 5.29987 20.394 5.29987H7.57918C7.40906 5.29987 7.26552 5.35863 7.14857 5.47615C7.03161 5.58832 6.97313 5.72988 6.97313 5.90082C6.97313 6.07176 7.03161 6.21598 7.14857 6.3335C7.26552 6.45102 7.40906 6.50978 7.57918 6.50978ZM7.57918 10.7084H20.394C20.5641 10.7084 20.7076 10.6497 20.8246 10.5321C20.9415 10.4146 21 10.2704 21 10.0995C21 9.92852 20.9415 9.78697 20.8246 9.67479C20.7076 9.55727 20.5641 9.49851 20.394 9.49851H7.57918C7.40906 9.49851 7.26552 9.55727 7.14857 9.67479C7.03161 9.78697 6.97313 9.92852 6.97313 10.0995C6.97313 10.2704 7.03161 10.4146 7.14857 10.5321C7.26552 10.6497 7.40906 10.7084 7.57918 10.7084ZM7.57918 14.8991H15.2824C15.4525 14.8991 15.596 14.8403 15.713 14.7228C15.83 14.6106 15.8884 14.469 15.8884 14.2981C15.8884 14.1272 15.83 13.9829 15.713 13.8654C15.596 13.7479 15.4525 13.6891 15.2824 13.6891H7.57918C7.40906 13.6891 7.26552 13.7479 7.14857 13.8654C7.03161 13.9829 6.97313 14.1272 6.97313 14.2981C6.97313 14.469 7.03161 14.6106 7.14857 14.7228C7.26552 14.8403 7.40906 14.8991 7.57918 14.8991ZM2.59522 15.2837L4.19009 13.1363C4.34958 12.9226 4.38945 12.7062 4.3097 12.4872C4.23528 12.2682 4.05718 12.1587 3.77542 12.1587H2.64307V3.83355H3.77542C4.05187 3.83355 4.23262 3.72671 4.31768 3.51304C4.40274 3.29937 4.36021 3.08036 4.19009 2.856L2.59522 0.716618C2.4889 0.567049 2.34802 0.494935 2.17258 0.500276C1.99715 0.500276 1.85892 0.57239 1.75792 0.716618L0.16305 2.856C-0.00175323 3.08036 -0.0416249 3.29937 0.0434347 3.51304C0.128494 3.72671 0.306588 3.83355 0.577715 3.83355H1.71804V12.1587H0.577715C0.306588 12.1587 0.128494 12.2656 0.0434347 12.4792C-0.0416249 12.6929 -0.00175323 12.9119 0.16305 13.1363L1.75792 15.2837C1.86424 15.4279 2.00246 15.5 2.17258 15.5C2.34802 15.5 2.4889 15.4279 2.59522 15.2837Z"
		fill="currentColor"
	/>
</svg>
