<svg
	color="rgb(var(--foreground, 0, 0, 0))"
	viewBox="0 0 15 18"
	fill="none"
	xmlns="http://www.w3.org/2000/svg"
>
	<path
		d="M12.9634 6.82786V17.398C12.9634 17.5648 13.0198 17.7055 13.1325 17.8202C13.2452 17.9401 13.3809 18 13.5397 18C13.7037 18 13.842 17.9401 13.9547 17.8202C14.0674 17.7055 14.1237 17.5648 14.1237 17.398V6.82786C14.1237 6.66628 14.0674 6.52816 13.9547 6.41349C13.842 6.29883 13.7037 6.24149 13.5397 6.24149C13.3809 6.24149 13.2452 6.29883 13.1325 6.41349C13.0198 6.52816 12.9634 6.66628 12.9634 6.82786ZM8.93683 6.82786V17.398C8.93683 17.5648 8.99319 17.7055 9.10589 17.8202C9.21859 17.9401 9.35435 18 9.51316 18C9.67709 18 9.8154 17.9401 9.92811 17.8202C10.0408 17.7055 10.0972 17.5648 10.0972 17.398V6.82786C10.0972 6.66628 10.0408 6.52816 9.92811 6.41349C9.8154 6.29883 9.67709 6.24149 9.51316 6.24149C9.35435 6.24149 9.21859 6.29883 9.10589 6.41349C8.99319 6.52816 8.93683 6.66628 8.93683 6.82786ZM4.91026 6.82786V17.398C4.91026 17.5648 4.96662 17.7055 5.07932 17.8202C5.19202 17.9401 5.33034 18 5.49427 18C5.65308 18 5.78884 17.9401 5.90154 17.8202C6.01424 17.7055 6.07059 17.5648 6.07059 17.398V6.82786C6.07059 6.66628 6.01424 6.52816 5.90154 6.41349C5.78884 6.29883 5.65308 6.24149 5.49427 6.24149C5.33034 6.24149 5.19202 6.29883 5.07932 6.41349C4.96662 6.52816 4.91026 6.66628 4.91026 6.82786ZM0.883695 6.82786V12.3866C0.883695 12.5534 0.940047 12.6967 1.05275 12.8166C1.16545 12.9312 1.30377 12.9886 1.4677 12.9886C1.62651 12.9886 1.76227 12.9312 1.87497 12.8166C1.98767 12.6967 2.04402 12.5534 2.04402 12.3866V6.82786C2.04402 6.66628 1.98767 6.52816 1.87497 6.41349C1.76227 6.29883 1.62651 6.24149 1.4677 6.24149C1.30377 6.24149 1.16545 6.29883 1.05275 6.41349C0.940047 6.52816 0.883695 6.66628 0.883695 6.82786ZM0.207476 2.55132L2.26687 4.11496C2.47178 4.27132 2.67926 4.31302 2.8893 4.24005C3.09933 4.16186 3.20435 3.98205 3.20435 3.70059V2.59823H11.8031V3.70059C11.8031 3.97162 11.9055 4.14883 12.1104 4.23223C12.3154 4.31562 12.5254 4.27653 12.7406 4.11496L14.7999 2.55132C14.9383 2.44187 15.0048 2.30375 14.9997 2.13696C14.9997 1.96496 14.9331 1.82684 14.7999 1.7226L12.7406 0.166787C12.5254 0 12.3154 -0.0416968 12.1104 0.0416968C11.9055 0.12509 11.8031 0.302302 11.8031 0.573331V1.69133H3.20435V0.573331C3.20435 0.302302 3.10189 0.12509 2.89698 0.0416968C2.69207 -0.0416968 2.48203 0 2.26687 0.166787L0.207476 1.7226C0.0691586 1.82684 0 1.96496 0 2.13696C0 2.30375 0.0691586 2.44187 0.207476 2.55132Z"
		fill="currentColor"
	/>
</svg>
