<svg
	color="rgb(var(--foreground, 0, 0, 0))"
	viewBox="0 0 17 18"
	fill="none"
	xmlns="http://www.w3.org/2000/svg"
>
	<path
		d="M8.60119 5.70478L7.53506 6.78453C8.06412 6.82718 8.50767 6.92583 8.86572 7.08046C9.22911 7.23509 9.54174 7.44304 9.80359 7.70431C10.2685 8.17353 10.5785 8.69074 10.7335 9.25594C10.8884 9.81581 10.8884 10.3757 10.7335 10.9355C10.5838 11.4954 10.2765 12.0073 9.81161 12.4712L7.19037 15.0786C6.72544 15.5424 6.21242 15.8517 5.65129 16.0063C5.09017 16.161 4.52638 16.161 3.95991 16.0063C3.39879 15.857 2.88577 15.5504 2.42084 15.0865C1.95591 14.6173 1.64596 14.1028 1.49098 13.5429C1.336 12.9777 1.336 12.4152 1.49098 11.8553C1.64596 11.2955 1.95591 10.7836 2.42084 10.3197L3.99198 8.75206C3.87975 8.50145 3.80761 8.23485 3.77555 7.95225C3.74883 7.66432 3.75684 7.38972 3.79959 7.12845L1.44288 9.47189C0.806946 10.1117 0.379425 10.8182 0.16032 11.5914C-0.0534401 12.3645 -0.0534401 13.1403 0.16032 13.9188C0.374081 14.692 0.804274 15.4011 1.4509 16.0463C2.10287 16.6968 2.8163 17.1287 3.59118 17.342C4.3714 17.5553 5.14896 17.5526 5.92384 17.334C6.69872 17.1207 7.40413 16.6968 8.04007 16.0623L10.7815 13.319C11.4228 12.6791 11.8503 11.9726 12.0641 11.1995C12.2832 10.4263 12.2859 9.65318 12.0721 8.88003C11.8584 8.10155 11.4255 7.38972 10.7735 6.74454C10.5224 6.4886 10.2258 6.27532 9.88375 6.10469C9.54174 5.92873 9.11421 5.79543 8.60119 5.70478ZM8.40079 12.2952L9.46692 11.2155C8.93786 11.1728 8.49164 11.0742 8.12824 10.9195C7.7702 10.7649 7.46024 10.557 7.19839 10.2957C6.72811 9.82647 6.41549 9.31192 6.26051 8.75206C6.10554 8.18686 6.10554 7.62433 6.26051 7.06446C6.41549 6.50459 6.72544 5.99272 7.19037 5.52883L9.80359 2.92145C10.2739 2.45756 10.7896 2.1483 11.3507 1.99367C11.9118 1.83904 12.4729 1.83904 13.034 1.99367C13.5952 2.14297 14.1109 2.45223 14.5811 2.92145C15.0461 3.38534 15.356 3.89988 15.511 4.46508C15.666 5.02495 15.666 5.58481 15.511 6.14468C15.356 6.70455 15.0461 7.21642 14.5811 7.68031L13.01 9.24794C13.1222 9.50388 13.1917 9.77315 13.2184 10.0557C13.2505 10.3383 13.2451 10.6103 13.2024 10.8716L15.5591 8.52811C16.195 7.88826 16.6199 7.18177 16.8336 6.40862C17.0527 5.63547 17.0554 4.86232 16.8417 4.08917C16.6279 3.31069 16.1977 2.59886 15.5511 1.95368C14.8991 1.30317 14.183 0.87127 13.4028 0.657987C12.6279 0.444705 11.853 0.447371 11.0781 0.665985C10.3033 0.879268 9.59518 1.30583 8.95389 1.94568L6.22043 4.68103C5.57915 5.32088 5.14896 6.02737 4.92985 6.80052C4.71609 7.57367 4.71609 8.34949 4.92985 9.12797C5.14361 9.90112 5.57648 10.6103 6.22845 11.2555C6.47962 11.5114 6.77621 11.7273 7.11823 11.9033C7.46024 12.0739 7.88776 12.2046 8.40079 12.2952Z"
		fill="currentColor"
	/>
</svg>
