<svg
	color="rgb(var(--foreground, 0, 0, 0))"
	viewBox="0 0 16 12"
	fill="none"
	xmlns="http://www.w3.org/2000/svg"
>
	<path
		d="M4.51017 1.69199H15.3568C15.5368 1.69199 15.6877 1.62902 15.8094 1.50308C15.9365 1.37714 16 1.22108 16 1.03491C16 0.848734 15.9365 0.692676 15.8094 0.566735C15.6877 0.435318 15.5368 0.36961 15.3568 0.36961H4.51017C4.33019 0.36961 4.17668 0.435318 4.04963 0.566735C3.92787 0.692676 3.867 0.848734 3.867 1.03491C3.867 1.22108 3.92787 1.37714 4.04963 1.50308C4.17668 1.62902 4.33019 1.69199 4.51017 1.69199ZM4.51017 6.66119H15.3568C15.5368 6.66119 15.6877 6.59822 15.8094 6.47228C15.9365 6.34086 16 6.18207 16 5.99589C16 5.80972 15.9365 5.65366 15.8094 5.52772C15.6877 5.40178 15.5368 5.33881 15.3568 5.33881H4.51017C4.33019 5.33881 4.17668 5.40178 4.04963 5.52772C3.92787 5.65366 3.867 5.80972 3.867 5.99589C3.867 6.18207 3.92787 6.34086 4.04963 6.47228C4.17668 6.59822 4.33019 6.66119 4.51017 6.66119ZM4.51017 11.6222H15.3568C15.5368 11.6222 15.6877 11.5592 15.8094 11.4333C15.9365 11.3073 16 11.1513 16 10.9651C16 10.7789 15.9365 10.6229 15.8094 10.4969C15.6877 10.3655 15.5368 10.2998 15.3568 10.2998H4.51017C4.33019 10.2998 4.17668 10.3655 4.04963 10.4969C3.92787 10.6229 3.867 10.7789 3.867 10.9651C3.867 11.1513 3.92787 11.3073 4.04963 11.4333C4.17668 11.5592 4.33019 11.6222 4.51017 11.6222ZM1.0005 2.0616C1.27577 2.0616 1.51133 1.96304 1.7072 1.76591C1.90306 1.56331 2.00099 1.31964 2.00099 1.03491C2.00099 0.744695 1.90306 0.501027 1.7072 0.303901C1.51133 0.1013 1.27577 0 1.0005 0C0.725227 0 0.489661 0.1013 0.293797 0.303901C0.0979322 0.501027 0 0.744695 0 1.03491C0 1.31964 0.0979322 1.56331 0.293797 1.76591C0.489661 1.96304 0.725227 2.0616 1.0005 2.0616ZM1.0005 7.0308C1.27577 7.0308 1.51133 6.9295 1.7072 6.7269C1.90306 6.5243 2.00099 6.28063 2.00099 5.99589C2.00099 5.71116 1.90306 5.46749 1.7072 5.26489C1.51133 5.06229 1.27577 4.96099 1.0005 4.96099C0.725227 4.96099 0.489661 5.06229 0.293797 5.26489C0.0979322 5.46749 0 5.71116 0 5.99589C0 6.28063 0.0979322 6.5243 0.293797 6.7269C0.489661 6.9295 0.725227 7.0308 1.0005 7.0308ZM1.0005 12C1.27577 12 1.51133 11.8987 1.7072 11.6961C1.90306 11.4935 2.00099 11.2498 2.00099 10.9651C2.00099 10.6749 1.90306 10.4312 1.7072 10.2341C1.51133 10.0315 1.27577 9.93019 1.0005 9.93019C0.725227 9.93019 0.489661 10.0315 0.293797 10.2341C0.0979322 10.4312 0 10.6749 0 10.9651C0 11.2498 0.0979322 11.4935 0.293797 11.6961C0.489661 11.8987 0.725227 12 1.0005 12Z"
		fill="currentColor"
	/>
</svg>
