<svg
	color="rgb(var(--foreground, 0, 0, 0))"
	viewBox="0 0 16 14"
	fill="none"
	xmlns="http://www.w3.org/2000/svg"
>
	<path
		d="M4.88337 3.10771H15.3568C15.5368 3.10771 15.6877 3.04857 15.8094 2.93027C15.9365 2.81197 16 2.66538 16 2.4905C16 2.31563 15.9365 2.16904 15.8094 2.05074C15.6877 1.9273 15.5368 1.86558 15.3568 1.86558H4.88337C4.70339 1.86558 4.54988 1.9273 4.42283 2.05074C4.30108 2.16904 4.2402 2.31563 4.2402 2.4905C4.2402 2.66538 4.30108 2.81197 4.42283 2.93027C4.54988 3.04857 4.70339 3.10771 4.88337 3.10771ZM4.88337 7.77537H15.3568C15.5368 7.77537 15.6877 7.71622 15.8094 7.59792C15.9365 7.47448 16 7.32532 16 7.15045C16 6.97557 15.9365 6.82898 15.8094 6.71068C15.6877 6.59238 15.5368 6.53323 15.3568 6.53323H4.88337C4.70339 6.53323 4.54988 6.59238 4.42283 6.71068C4.30108 6.82898 4.2402 6.97557 4.2402 7.15045C4.2402 7.32532 4.30108 7.47448 4.42283 7.59792C4.54988 7.71622 4.70339 7.77537 4.88337 7.77537ZM4.88337 12.4353H15.3568C15.5368 12.4353 15.6877 12.3762 15.8094 12.2579C15.9365 12.1396 16 11.993 16 11.8181C16 11.6432 15.9365 11.4966 15.8094 11.3783C15.6877 11.2549 15.5368 11.1932 15.3568 11.1932H4.88337C4.70339 11.1932 4.54988 11.2549 4.42283 11.3783C4.30108 11.4966 4.2402 11.6432 4.2402 11.8181C4.2402 11.993 4.30108 12.1396 4.42283 12.2579C4.54988 12.3762 4.70339 12.4353 4.88337 12.4353ZM1.73102 4.04125C1.88453 4.04125 2.00893 4.0001 2.10422 3.9178C2.1995 3.83037 2.24715 3.69921 2.24715 3.52433V1.03234C2.24715 0.867755 2.19156 0.739169 2.0804 0.646588C1.97452 0.548863 1.83424 0.5 1.65955 0.5C1.52192 0.5 1.40281 0.520574 1.30223 0.561721C1.20695 0.602868 1.10902 0.656874 1.00844 0.723739L0.444665 1.10178C0.280562 1.20979 0.198511 1.33323 0.198511 1.47211C0.198511 1.57498 0.23292 1.65727 0.301737 1.71899C0.370554 1.78071 0.449959 1.81157 0.53995 1.81157C0.592887 1.81157 0.637883 1.80643 0.674938 1.79614C0.711993 1.78071 0.762283 1.74985 0.825806 1.70356L1.19107 1.46439H1.20695V3.52433C1.20695 3.69921 1.25459 3.83037 1.34988 3.9178C1.44516 4.0001 1.57221 4.04125 1.73102 4.04125ZM0.452605 8.69347H2.4933C2.60447 8.69347 2.69446 8.66004 2.76328 8.59318C2.83739 8.52631 2.87444 8.43887 2.87444 8.33086C2.87444 8.21256 2.83739 8.11998 2.76328 8.05312C2.69446 7.98625 2.60447 7.95282 2.4933 7.95282H1.35782V7.92967L2.00893 7.42048C2.27891 7.20445 2.47213 7.01929 2.58859 6.86499C2.70505 6.70554 2.76328 6.51266 2.76328 6.28635C2.76328 5.97774 2.63888 5.72829 2.39007 5.53798C2.14127 5.34768 1.80248 5.25252 1.3737 5.25252C0.992556 5.25252 0.677585 5.33739 0.428784 5.50712C0.185277 5.67685 0.0635236 5.88516 0.0635236 6.13205C0.0635236 6.38408 0.209098 6.51009 0.500248 6.51009C0.680232 6.51009 0.817866 6.43294 0.913151 6.27864C1.02432 6.08833 1.18313 5.99318 1.38958 5.99318C1.50604 5.99318 1.60132 6.02661 1.67543 6.09347C1.74955 6.16034 1.7866 6.24777 1.7866 6.35579C1.7866 6.44837 1.75219 6.54352 1.68337 6.64125C1.61985 6.73383 1.48486 6.85984 1.27841 7.01929L0.238213 7.85252C0.0899917 7.97082 0.0158809 8.11484 0.0158809 8.28457C0.0158809 8.40287 0.0555831 8.50059 0.134988 8.57775C0.214392 8.6549 0.320265 8.69347 0.452605 8.69347ZM1.38958 13.5C1.86601 13.5 2.23391 13.4048 2.4933 13.2145C2.75798 13.0242 2.89032 12.7671 2.89032 12.443C2.89032 12.2321 2.81621 12.0573 2.66799 11.9184C2.52506 11.7795 2.31596 11.6998 2.04069 11.6792V11.6561C2.24185 11.6201 2.41125 11.5378 2.54888 11.4092C2.68652 11.2806 2.75534 11.1032 2.75534 10.8769C2.75534 10.5837 2.62299 10.3599 2.35831 10.2056C2.09892 10.0462 1.77337 9.96647 1.38164 9.96647C1.17519 9.96647 0.971381 9.99733 0.770223 10.0591C0.574359 10.1208 0.410256 10.2108 0.277916 10.3291C0.150868 10.4474 0.0873449 10.5914 0.0873449 10.7611C0.0873449 10.8691 0.1244 10.9591 0.198511 11.0312C0.272622 11.098 0.370554 11.1315 0.492308 11.1315C0.577006 11.1315 0.643176 11.116 0.690819 11.0852C0.743755 11.0543 0.799338 11.008 0.857568 10.9463C0.94756 10.8486 1.03226 10.7817 1.11166 10.7457C1.19636 10.7097 1.28635 10.6917 1.38164 10.6917C1.50339 10.6917 1.60397 10.72 1.68337 10.7766C1.76807 10.8331 1.81042 10.9206 1.81042 11.0389C1.81042 11.1469 1.76543 11.2292 1.67543 11.2858C1.58544 11.3372 1.4584 11.3629 1.29429 11.3629H1.20695C0.963441 11.3629 0.841687 11.4735 0.841687 11.6947C0.841687 11.9158 0.963441 12.0264 1.20695 12.0264H1.31017C1.67543 12.0264 1.85806 12.1447 1.85806 12.3813C1.85806 12.4842 1.81307 12.5716 1.72308 12.6436C1.63309 12.7105 1.52192 12.7439 1.38958 12.7439C1.25194 12.7439 1.13019 12.7131 1.02432 12.6513C0.923739 12.5845 0.836394 12.515 0.762283 12.443C0.71464 12.4019 0.666998 12.3684 0.619355 12.3427C0.571712 12.3119 0.510835 12.2964 0.436725 12.2964C0.309677 12.2964 0.203805 12.3324 0.119107 12.4045C0.0397022 12.4713 0 12.5639 0 12.6822C0 12.9445 0.150868 13.1451 0.452605 13.284C0.754342 13.428 1.06667 13.5 1.38958 13.5Z"
		fill="currentColor"
	/>
</svg>
