<svg
	color="rgb(var(--foreground, 0, 0, 0))"
	viewBox="0 0 16 12"
	fill="none"
	xmlns="http://www.w3.org/2000/svg"
>
	<path
		d="M5.08983 1.88811H15.3568C15.5368 1.88811 15.6877 1.82802 15.8094 1.70784C15.9365 1.58766 16 1.43873 16 1.26107C16 1.08341 15.9365 0.934492 15.8094 0.814309C15.6877 0.688902 15.5368 0.626198 15.3568 0.626198H5.08983C4.90984 0.626198 4.75633 0.688902 4.62928 0.814309C4.50753 0.934492 4.44665 1.08341 4.44665 1.26107C4.44665 1.43873 4.50753 1.58766 4.62928 1.70784C4.75633 1.82802 4.90984 1.88811 5.08983 1.88811ZM5.08983 6.63009H15.3568C15.5368 6.63009 15.6877 6.56999 15.8094 6.44981C15.9365 6.3244 16 6.17287 16 5.99521C16 5.81755 15.9365 5.66863 15.8094 5.54844C15.6877 5.42826 15.5368 5.36817 15.3568 5.36817H5.08983C4.90984 5.36817 4.75633 5.42826 4.62928 5.54844C4.50753 5.66863 4.44665 5.81755 4.44665 5.99521C4.44665 6.17287 4.50753 6.3244 4.62928 6.44981C4.75633 6.56999 4.90984 6.63009 5.08983 6.63009ZM5.08983 11.3642H15.3568C15.5368 11.3642 15.6877 11.3041 15.8094 11.1839C15.9365 11.0638 16 10.9148 16 10.7372C16 10.5595 15.9365 10.4106 15.8094 10.2904C15.6877 10.165 15.5368 10.1023 15.3568 10.1023H5.08983C4.90984 10.1023 4.75633 10.165 4.62928 10.2904C4.50753 10.4106 4.44665 10.5595 4.44665 10.7372C4.44665 10.9148 4.50753 11.0638 4.62928 11.1839C4.75633 11.3041 4.90984 11.3642 5.08983 11.3642ZM0.643176 2.43677L2.05658 1.60594C2.14127 1.55369 2.19686 1.48576 2.22333 1.40216C2.24979 1.31333 2.24715 1.22711 2.21538 1.1435C2.18892 1.0599 2.13598 0.994583 2.05658 0.947555L0.643176 0.101054C0.484367 0.00177287 0.336146 -0.0243537 0.198511 0.0226741C0.0661704 0.069702 0 0.187272 0 0.375383V2.16244C0 2.3401 0.0688172 2.45245 0.206452 2.49947C0.344086 2.5465 0.489661 2.5256 0.643176 2.43677ZM0.643176 7.16307L2.05658 6.33224C2.14127 6.28521 2.19686 6.2199 2.22333 6.13629C2.24979 6.04746 2.24715 5.96124 2.21538 5.87764C2.18892 5.78881 2.13598 5.72088 2.05658 5.67385L0.643176 4.82735C0.484367 4.7333 0.336146 4.70978 0.198511 4.75681C0.0661704 4.79861 0 4.91357 0 5.10168V6.88874C0 7.07162 0.0688172 7.18658 0.206452 7.23361C0.344086 7.27541 0.489661 7.2519 0.643176 7.16307ZM0.643176 11.9129L2.05658 11.0821C2.14127 11.035 2.19686 10.9697 2.22333 10.8861C2.24979 10.7973 2.24715 10.7111 2.21538 10.6275C2.18892 10.5386 2.13598 10.4707 2.05658 10.4237L0.643176 9.57716C0.484367 9.48311 0.336146 9.45959 0.198511 9.50662C0.0661704 9.54842 0 9.66338 0 9.85149V11.6385C0 11.8162 0.0688172 11.9286 0.206452 11.9756C0.344086 12.0226 0.489661 12.0017 0.643176 11.9129Z"
		fill="currentColor"
	/>
</svg>
