<svg
	color="rgb(var(--foreground, 0, 0, 0))"
	viewBox="0 0 16 14"
	fill="none"
	xmlns="http://www.w3.org/2000/svg"
>
	<path
		d="M5.36833 2.95146H15.3648C15.5395 2.95146 15.6877 2.88933 15.8094 2.76507C15.9365 2.64081 16 2.48683 16 2.30314C16 2.11945 15.9365 1.96548 15.8094 1.84121C15.6877 1.71155 15.5395 1.64672 15.3648 1.64672H5.36833C5.18835 1.64672 5.03485 1.71155 4.90781 1.84121C4.78606 1.96548 4.72519 2.11945 4.72519 2.30314C4.72519 2.48683 4.78606 2.64081 4.90781 2.76507C5.03485 2.88933 5.18835 2.95146 5.36833 2.95146ZM5.36833 7.85439H15.3648C15.5395 7.85439 15.6877 7.79226 15.8094 7.668C15.9365 7.53834 16 7.38166 16 7.19797C16 7.01428 15.9365 6.8603 15.8094 6.73604C15.6877 6.61178 15.5395 6.54965 15.3648 6.54965H5.36833C5.18835 6.54965 5.03485 6.61178 4.90781 6.73604C4.78606 6.8603 4.72519 7.01428 4.72519 7.19797C4.72519 7.38166 4.78606 7.53834 4.90781 7.668C5.03485 7.79226 5.18835 7.85439 5.36833 7.85439ZM5.36833 12.7492H15.3648C15.5395 12.7492 15.6877 12.6871 15.8094 12.5628C15.9365 12.4386 16 12.2846 16 12.1009C16 11.9172 15.9365 11.7632 15.8094 11.639C15.6877 11.5093 15.5395 11.4445 15.3648 11.4445H5.36833C5.18835 11.4445 5.03485 11.5093 4.90781 11.639C4.78606 11.7632 4.72519 11.9172 4.72519 12.1009C4.72519 12.2846 4.78606 12.4386 4.90781 12.5628C5.03485 12.6871 5.18835 12.7492 5.36833 12.7492ZM0.921923 3.6322L1.60476 3.12165L2.26378 3.6322C2.34318 3.69163 2.41994 3.71594 2.49405 3.70514C2.56815 3.68893 2.62373 3.65111 2.66079 3.59168C2.69784 3.52685 2.70049 3.44851 2.66873 3.35667L2.40671 2.53006L3.07367 2.0195C3.14248 1.96548 3.17953 1.90335 3.18483 1.83311C3.19541 1.75747 3.17689 1.69264 3.12925 1.63861C3.0869 1.58459 3.02338 1.55757 2.93869 1.55757H2.10498L1.82708 0.674236C1.80591 0.598599 1.76356 0.547273 1.70004 0.52026C1.63652 0.493247 1.57036 0.493247 1.50154 0.52026C1.43802 0.541871 1.39568 0.593196 1.3745 0.674236L1.0966 1.55757H0.254963C0.170269 1.55757 0.104102 1.58459 0.0564623 1.63861C0.0141156 1.69264 -0.00441112 1.75747 0.000882223 1.83311C0.0114689 1.90335 0.0511689 1.96548 0.119982 2.0195L0.794883 2.53006L0.532863 3.35667C0.501103 3.44851 0.503749 3.52685 0.540803 3.59168C0.577856 3.65111 0.63079 3.68893 0.699603 3.70514C0.77371 3.71594 0.847817 3.69163 0.921923 3.6322ZM0.921923 8.51892L1.60476 8.00837L2.26378 8.51892C2.34318 8.57835 2.41994 8.60267 2.49405 8.59186C2.56815 8.57565 2.62373 8.53783 2.66079 8.4784C2.69784 8.41357 2.70049 8.33523 2.66873 8.24339L2.40671 7.41678L3.07367 6.90622C3.14248 6.8522 3.17953 6.79007 3.18483 6.71983C3.19541 6.6496 3.17689 6.58747 3.12925 6.53344C3.0869 6.47941 3.02338 6.4524 2.93869 6.4524H2.10498L1.82708 5.56096C1.80591 5.48532 1.76356 5.43399 1.70004 5.40698C1.63652 5.37997 1.57036 5.37997 1.50154 5.40698C1.43802 5.43399 1.39568 5.48532 1.3745 5.56096L1.0966 6.4524H0.254963C0.170269 6.4524 0.104102 6.47941 0.0564623 6.53344C0.0141156 6.58747 -0.00441112 6.6496 0.000882223 6.71983C0.0114689 6.79007 0.0511689 6.8522 0.119982 6.90622L0.794883 7.41678L0.532863 8.24339C0.501103 8.33523 0.503749 8.41357 0.540803 8.4784C0.577856 8.53783 0.63079 8.57565 0.699603 8.59186C0.77371 8.60267 0.847817 8.57835 0.921923 8.51892ZM0.921923 13.43L1.60476 12.9194L2.26378 13.43C2.34318 13.4894 2.41994 13.511 2.49405 13.4948C2.56815 13.484 2.62373 13.4462 2.66079 13.3813C2.69784 13.3219 2.70049 13.2463 2.66873 13.1544L2.40671 12.3278L3.07367 11.8173C3.14248 11.7632 3.17953 11.7011 3.18483 11.6309C3.19541 11.5552 3.17689 11.4931 3.12925 11.4445C3.0869 11.3904 3.02338 11.3634 2.93869 11.3634H2.10498L1.82708 10.472C1.80591 10.3964 1.76356 10.345 1.70004 10.318C1.63652 10.291 1.57036 10.291 1.50154 10.318C1.43802 10.345 1.39568 10.3964 1.3745 10.472L1.0966 11.3634H0.254963C0.170269 11.3634 0.104102 11.3904 0.0564623 11.4445C0.0141156 11.4931 -0.00441112 11.5552 0.000882223 11.6309C0.0114689 11.7011 0.0511689 11.7632 0.119982 11.8173L0.794883 12.3278L0.532863 13.1544C0.501103 13.2463 0.503749 13.3219 0.540803 13.3813C0.577856 13.4462 0.63079 13.484 0.699603 13.4948C0.77371 13.511 0.847817 13.4894 0.921923 13.43Z"
		fill="currentColor"
	/>
</svg>
