<svg
	color="rgb(var(--foreground, 0, 0, 0))"
	viewBox="0 0 16 12"
	fill="none"
	xmlns="http://www.w3.org/2000/svg"
>
	<path
		d="M5.30422 1.53409H15.3568C15.5368 1.53409 15.6877 1.46875 15.8094 1.33807C15.9365 1.20739 16 1.04545 16 0.852273C16 0.659091 15.9365 0.497159 15.8094 0.366477C15.6877 0.230114 15.5368 0.161932 15.3568 0.161932H5.30422C5.12424 0.161932 4.97072 0.230114 4.84367 0.366477C4.72192 0.497159 4.66104 0.659091 4.66104 0.852273C4.66104 1.04545 4.72192 1.20739 4.84367 1.33807C4.97072 1.46875 5.12424 1.53409 5.30422 1.53409ZM5.30422 6.69034H15.3568C15.5368 6.69034 15.6877 6.625 15.8094 6.49432C15.9365 6.35796 16 6.19318 16 6C16 5.80682 15.9365 5.64489 15.8094 5.51421C15.6877 5.38352 15.5368 5.31818 15.3568 5.31818H5.30422C5.12424 5.31818 4.97072 5.38352 4.84367 5.51421C4.72192 5.64489 4.66104 5.80682 4.66104 6C4.66104 6.19318 4.72192 6.35796 4.84367 6.49432C4.97072 6.625 5.12424 6.69034 5.30422 6.69034ZM5.30422 11.8381H15.3568C15.5368 11.8381 15.6877 11.7727 15.8094 11.642C15.9365 11.5114 16 11.3494 16 11.1563C16 10.9631 15.9365 10.8011 15.8094 10.6705C15.6877 10.5341 15.5368 10.4659 15.3568 10.4659H5.30422C5.12424 10.4659 4.97072 10.5341 4.84367 10.6705C4.72192 10.8011 4.66104 10.9631 4.66104 11.1563C4.66104 11.3494 4.72192 11.5114 4.84367 11.642C4.97072 11.7727 5.12424 11.8381 5.30422 11.8381ZM0.786104 1.69602H2.14392C2.36096 1.69602 2.54624 1.61364 2.69975 1.44886C2.85856 1.27841 2.93797 1.07955 2.93797 0.852273C2.93797 0.613636 2.85856 0.411932 2.69975 0.247159C2.54624 0.0823864 2.36096 0 2.14392 0H0.786104C0.569065 0 0.383788 0.0823864 0.230273 0.247159C0.0767577 0.411932 0 0.613636 0 0.852273C0 1.07955 0.0767577 1.27841 0.230273 1.44886C0.383788 1.61364 0.569065 1.69602 0.786104 1.69602ZM0.786104 6.85227H2.14392C2.36096 6.85227 2.54624 6.76989 2.69975 6.60511C2.85856 6.43466 2.93797 6.23296 2.93797 6C2.93797 5.76705 2.85856 5.56818 2.69975 5.40341C2.54624 5.23864 2.36096 5.15625 2.14392 5.15625H0.786104C0.569065 5.15625 0.383788 5.23864 0.230273 5.40341C0.0767577 5.56818 0 5.76705 0 6C0 6.23296 0.0767577 6.43466 0.230273 6.60511C0.383788 6.76989 0.569065 6.85227 0.786104 6.85227ZM0.786104 12H2.14392C2.36096 12 2.54624 11.9176 2.69975 11.7528C2.85856 11.5881 2.93797 11.3892 2.93797 11.1563C2.93797 10.9176 2.85856 10.7159 2.69975 10.5511C2.54624 10.3864 2.36096 10.304 2.14392 10.304H0.786104C0.569065 10.304 0.383788 10.3864 0.230273 10.5511C0.0767577 10.7159 0 10.9176 0 11.1563C0 11.3892 0.0767577 11.5881 0.230273 11.7528C0.383788 11.9176 0.569065 12 0.786104 12Z"
		fill="currentColor"
	/>
</svg>
