<svg
	color="rgb(var(--foreground, 0, 0, 0))"
	viewBox="0 0 20 12"
	fill="none"
	xmlns="http://www.w3.org/2000/svg"
>
	<path
		d="M4.5187 1.69199H15.3858C15.5662 1.69199 15.7173 1.62902 15.8393 1.50308C15.9666 1.37714 16.0302 1.22108 16.0302 1.03491C16.0302 0.848734 15.9666 0.692676 15.8393 0.566735C15.7173 0.435318 15.5662 0.36961 15.3858 0.36961H4.5187C4.33837 0.36961 4.18457 0.435318 4.05728 0.566735C3.9353 0.692676 3.8743 0.848734 3.8743 1.03491C3.8743 1.22108 3.9353 1.37714 4.05728 1.50308C4.18457 1.62902 4.33837 1.69199 4.5187 1.69199ZM6.4996 6.66119H17.3747C17.555 6.66119 17.7062 6.59822 17.8282 6.47228C17.9501 6.34086 18.0111 6.18207 18.0111 5.99589C18.0111 5.80972 17.9501 5.65366 17.8282 5.52772C17.7062 5.40178 17.555 5.33881 17.3747 5.33881H6.4996C6.32458 5.33881 6.17343 5.40178 6.04614 5.52772C5.92416 5.65366 5.86317 5.80972 5.86317 5.99589C5.86317 6.18207 5.92416 6.34086 6.04614 6.47228C6.17343 6.59822 6.32458 6.66119 6.4996 6.66119ZM8.48846 11.6222H19.3636C19.5439 11.6222 19.695 11.5592 19.817 11.4333C19.939 11.3073 20 11.1513 20 10.9651C20 10.7789 19.939 10.6229 19.817 10.4969C19.695 10.3655 19.5439 10.2998 19.3636 10.2998H8.48846C8.30814 10.2998 8.15699 10.3655 8.035 10.4969C7.91302 10.6229 7.85203 10.7789 7.85203 10.9651C7.85203 11.1513 7.91302 11.3073 8.035 11.4333C8.15699 11.5592 8.30814 11.6222 8.48846 11.6222ZM1.00239 2.0616C1.27818 2.0616 1.51419 1.96304 1.71042 1.76591C1.90666 1.56331 2.00477 1.31964 2.00477 1.03491C2.00477 0.744695 1.90666 0.501027 1.71042 0.303901C1.51419 0.1013 1.27818 0 1.00239 0C0.726598 0 0.490586 0.1013 0.294352 0.303901C0.0981172 0.501027 0 0.744695 0 1.03491C0 1.31964 0.0981172 1.56331 0.294352 1.76591C0.490586 1.96304 0.726598 2.0616 1.00239 2.0616ZM2.99125 7.0308C3.26704 7.0308 3.50305 6.9295 3.69928 6.7269C3.89552 6.5243 3.99364 6.28063 3.99364 5.99589C3.99364 5.71116 3.89552 5.46749 3.69928 5.26489C3.50305 5.06229 3.26704 4.96099 2.99125 4.96099C2.71016 4.96099 2.47149 5.06229 2.27526 5.26489C2.08433 5.46749 1.98886 5.71116 1.98886 5.99589C1.98886 6.28063 2.08433 6.5243 2.27526 6.7269C2.47149 6.9295 2.71016 7.0308 2.99125 7.0308ZM4.97216 12C5.25325 12 5.48926 11.8987 5.68019 11.6961C5.87643 11.4935 5.97454 11.2498 5.97454 10.9651C5.97454 10.6749 5.87643 10.4312 5.68019 10.2341C5.48926 10.0315 5.25325 9.93018 4.97216 9.93018C4.69637 9.93018 4.46036 10.0315 4.26412 10.2341C4.06789 10.4312 3.96977 10.6749 3.96977 10.9651C3.96977 11.2498 4.06789 11.4935 4.26412 11.6961C4.46036 11.8987 4.69637 12 4.97216 12Z"
		fill="currentColor"
	/>
</svg>
