<svg
	color="rgb(var(--foreground, 0, 0, 0))"
	viewBox="0 0 17 14"
	fill="none"
	xmlns="http://www.w3.org/2000/svg"
>
	<path
		d="M2.97598 14C3.34765 14 3.63557 13.8856 3.83972 13.6568C4.04388 13.428 4.20092 13.1473 4.31085 12.8145L7.8836 1.3883H16.2462C16.4713 1.3883 16.6519 1.32591 16.788 1.20111C16.9293 1.07112 17 0.899536 17 0.686351C17 0.478366 16.9293 0.311978 16.788 0.187187C16.6519 0.0623955 16.4713 0 16.2462 0H7.8679C7.47005 0 7.16644 0.0779944 6.95704 0.233983C6.75289 0.389972 6.59846 0.639554 6.49376 0.98273L3.06236 12.1749H2.92887L1.45266 7.0039C1.38984 6.79071 1.29823 6.63213 1.17783 6.52813C1.05743 6.42414 0.90562 6.37214 0.722402 6.37214C0.51301 6.37214 0.340262 6.43974 0.204157 6.57493C0.0680523 6.70492 0 6.86351 0 7.0507C0 7.12869 0.00785219 7.20409 0.0235566 7.27688C0.039261 7.34448 0.0549654 7.40687 0.0706697 7.46407L1.73533 12.9003C1.8348 13.2175 1.97875 13.48 2.16721 13.688C2.36089 13.896 2.63049 14 2.97598 14ZM9.37552 12.4089C9.51686 12.4089 9.63464 12.3803 9.72887 12.3231C9.82309 12.2607 9.92517 12.1541 10.0351 12.0033L11.8961 9.39053H11.9275L13.7727 12.0033C13.8879 12.1541 13.99 12.2607 14.079 12.3231C14.1732 12.3803 14.291 12.4089 14.4323 12.4089C14.626 12.4089 14.7883 12.3491 14.9192 12.2295C15.05 12.1099 15.1155 11.9591 15.1155 11.7772C15.1155 11.6108 15.0631 11.4574 14.9584 11.317L12.7991 8.4L14.9741 5.46741C15.0841 5.32182 15.139 5.16843 15.139 5.00724C15.139 4.83565 15.0762 4.69266 14.9506 4.57827C14.8249 4.45868 14.6679 4.39889 14.4794 4.39889C14.3433 4.39889 14.2256 4.42748 14.1261 4.48468C14.0319 4.53668 13.935 4.63547 13.8356 4.78106L12.0531 7.40947H12.0139L10.1764 4.77326C10.077 4.63287 9.97752 4.53668 9.87806 4.48468C9.78383 4.42748 9.66343 4.39889 9.51686 4.39889C9.32841 4.39889 9.16613 4.46388 9.03002 4.59387C8.89392 4.71866 8.82587 4.86685 8.82587 5.03844C8.82587 5.21523 8.88868 5.38162 9.01432 5.5376L11.0794 8.361L8.88868 11.3638C8.78922 11.499 8.73949 11.6472 8.73949 11.8084C8.73949 11.9799 8.79969 12.1229 8.92009 12.2373C9.04049 12.3517 9.1923 12.4089 9.37552 12.4089Z"
		fill="currentColor"
	/>
</svg>
