<svg
	color="rgb(var(--foreground, 0, 0, 0))"
	viewBox="0 0 15 12"
	fill="none"
	xmlns="http://www.w3.org/2000/svg"
>
	<path
		d="M12.2584 5.6646C12.7941 5.6646 13.2668 5.54589 13.6765 5.30849C14.0914 5.06556 14.4144 4.73154 14.6455 4.30642C14.8818 3.8813 15 3.38992 15 2.8323C15 2.27467 14.8818 1.7833 14.6455 1.35818C14.4144 0.933057 14.0914 0.601794 13.6765 0.364389C13.2668 0.121463 12.7941 0 12.2584 0C11.7384 0 11.2789 0.121463 10.8797 0.364389C10.4806 0.601794 10.1681 0.933057 9.94223 1.35818C9.71639 1.7833 9.60347 2.27467 9.60347 2.8323C9.60347 3.38992 9.71639 3.8813 9.94223 4.30642C10.1681 4.73154 10.4806 5.06556 10.8797 5.30849C11.2789 5.54589 11.7384 5.6646 12.2584 5.6646ZM12.2584 4.56315C11.8382 4.56315 11.4968 4.40304 11.2342 4.08282C10.9716 3.75707 10.8403 3.34023 10.8403 2.8323C10.8403 2.32436 10.9716 1.91028 11.2342 1.59006C11.4968 1.26984 11.8382 1.10973 12.2584 1.10973C12.7048 1.10973 13.0646 1.26984 13.3377 1.59006C13.6161 1.91028 13.7553 2.32436 13.7553 2.8323C13.7553 3.34023 13.6161 3.75707 13.3377 4.08282C13.0593 4.40304 12.6996 4.56315 12.2584 4.56315ZM0.669643 12C0.879727 12 1.04517 11.9337 1.16597 11.8012C1.28676 11.6687 1.34716 11.4921 1.34716 11.2712V2.61698H1.31565L6.98792 11.4451C7.12448 11.6494 7.25315 11.793 7.37395 11.8758C7.5 11.9586 7.64969 12 7.823 12C8.0541 12 8.23267 11.9282 8.35872 11.7847C8.48477 11.6411 8.54779 11.4424 8.54779 11.1884V0.786749C8.54779 0.560386 8.4874 0.380952 8.3666 0.248447C8.2458 0.110421 8.08036 0.0414079 7.87027 0.0414079C7.66544 0.0414079 7.50263 0.110421 7.38183 0.248447C7.26103 0.380952 7.20063 0.560386 7.20063 0.786749V9.43271H7.23214L1.55987 0.596273C1.42332 0.386473 1.29464 0.242926 1.17384 0.165631C1.05305 0.0828157 0.903361 0.0414079 0.72479 0.0414079C0.504202 0.0414079 0.328256 0.115942 0.196954 0.26501C0.0656513 0.414079 0 0.610076 0 0.853002V11.2712C0 11.4921 0.0603992 11.6687 0.181197 11.8012C0.307248 11.9337 0.470063 12 0.669643 12ZM10.3755 7.73499H14.2358C14.4249 7.73499 14.5825 7.67702 14.7085 7.56108C14.8398 7.44513 14.9055 7.28502 14.9055 7.08075C14.9055 6.87647 14.8398 6.7136 14.7085 6.59213C14.5825 6.47067 14.4249 6.40994 14.2358 6.40994H10.3755C10.1865 6.40994 10.0289 6.47067 9.90284 6.59213C9.78204 6.7136 9.72164 6.87647 9.72164 7.08075C9.72164 7.28502 9.78204 7.44513 9.90284 7.56108C10.0289 7.67702 10.1865 7.73499 10.3755 7.73499Z"
		fill="currentColor"
	/>
</svg>
