<svg
	color="rgb(var(--foreground, 0, 0, 0))"
	viewBox="0 0 24 12"
	fill="none"
	xmlns="http://www.w3.org/2000/svg"
>
	<path
		d="M4.00917 11.9838C4.22404 11.9838 4.39699 11.9189 4.52801 11.7892C4.65902 11.6541 4.72453 11.473 4.72453 11.2459V0.883784C4.72453 0.618919 4.65116 0.416216 4.50442 0.275676C4.35768 0.135135 4.16115 0.0648649 3.91484 0.0648649C3.73665 0.0648649 3.58467 0.0945946 3.45889 0.154054C3.33312 0.208108 3.18899 0.289189 3.02653 0.397297L0.408778 2.14865C0.136259 2.33243 0 2.55405 0 2.81351C0 2.98108 0.0524075 3.11892 0.157222 3.22703C0.267278 3.33513 0.408778 3.38919 0.581723 3.38919C0.686538 3.38919 0.77039 3.37568 0.833279 3.34865C0.901408 3.31622 0.969538 3.27568 1.03767 3.22703L3.27809 1.77568H3.30953V11.2459C3.30953 11.473 3.3698 11.6541 3.49034 11.7892C3.61612 11.9189 3.78906 11.9838 4.00917 11.9838ZM7.59384 11.8216H14.1264C14.3256 11.8216 14.4828 11.7622 14.5981 11.6432C14.7186 11.5243 14.7789 11.3676 14.7789 11.173C14.7789 10.9784 14.7186 10.8216 14.5981 10.7027C14.4828 10.5784 14.3256 10.5162 14.1264 10.5162H8.89093V10.4757L11.9646 7.37027C12.583 6.74865 13.0678 6.21081 13.4189 5.75676C13.7701 5.2973 14.019 4.87568 14.1657 4.49189C14.3125 4.1027 14.3859 3.7 14.3859 3.28378C14.3859 2.66216 14.2234 2.10541 13.8985 1.61351C13.5735 1.11622 13.1281 0.724324 12.5621 0.437838C12.0013 0.145946 11.3672 0 10.6597 0C9.82116 0 9.07435 0.216216 8.41926 0.648649C7.76417 1.08108 7.31608 1.65405 7.07501 2.36757C6.98592 2.62703 6.94137 2.86216 6.94137 3.07297C6.94137 3.27297 6.9964 3.43513 7.10645 3.55946C7.21651 3.68378 7.36849 3.74595 7.5624 3.74595C7.74582 3.74595 7.88208 3.7 7.97118 3.60811C8.06551 3.51081 8.14412 3.36216 8.20701 3.16216C8.23845 3.03784 8.27514 2.91892 8.31707 2.80541C8.36423 2.68649 8.41926 2.57568 8.48215 2.47297C8.69178 2.11081 8.98264 1.82432 9.35473 1.61351C9.73207 1.3973 10.167 1.28919 10.6597 1.28919C11.0842 1.28919 11.4694 1.38378 11.8153 1.57297C12.1612 1.75676 12.4363 2.00541 12.6407 2.31892C12.8451 2.63243 12.9473 2.98108 12.9473 3.36486C12.9473 3.67297 12.8949 3.96757 12.79 4.24865C12.6852 4.52432 12.4939 4.83784 12.2162 5.18919C11.9384 5.54054 11.5401 5.98108 11.0213 6.51081L7.34229 10.3054C7.17982 10.473 7.06453 10.6189 6.9964 10.7432C6.93351 10.8622 6.90206 10.9946 6.90206 11.1405C6.90206 11.3514 6.96495 11.5189 7.09073 11.6432C7.21651 11.7622 7.38421 11.8216 7.59384 11.8216ZM19.8651 12C20.6669 12 21.377 11.8514 21.9954 11.5541C22.6191 11.2568 23.1091 10.8514 23.4654 10.3378C23.8218 9.81892 24 9.22973 24 8.57027C24 7.77027 23.738 7.12162 23.2139 6.62432C22.6898 6.12703 21.9823 5.84865 21.0914 5.78919V5.75676C21.8356 5.62703 22.4252 5.31892 22.8601 4.83243C23.2951 4.34595 23.5126 3.74324 23.5126 3.02432C23.5126 2.44054 23.3528 1.92162 23.0331 1.46757C22.7186 1.01351 22.2837 0.656757 21.7281 0.397297C21.1726 0.132432 20.5385 0 19.8257 0C19.2859 0 18.7855 0.0783784 18.3243 0.235135C17.8683 0.391892 17.47 0.616216 17.1294 0.908108C16.7887 1.19459 16.5267 1.54054 16.3433 1.94595C16.2699 2.09189 16.2149 2.23784 16.1782 2.38378C16.1467 2.52973 16.131 2.68108 16.131 2.83784C16.131 3.02703 16.186 3.18108 16.2961 3.3C16.4114 3.41892 16.5608 3.47838 16.7442 3.47838C16.9224 3.47838 17.056 3.43784 17.1451 3.35676C17.2394 3.27568 17.3154 3.14054 17.3731 2.95135C17.4884 2.59459 17.6587 2.29189 17.8841 2.04324C18.1094 1.79459 18.3819 1.60541 18.7016 1.47568C19.0213 1.34595 19.3803 1.28108 19.7786 1.28108C20.2502 1.28108 20.659 1.36216 21.0049 1.52432C21.3508 1.68108 21.6181 1.90541 21.8067 2.1973C21.9954 2.48378 22.0897 2.82162 22.0897 3.21081C22.0897 3.61622 21.9902 3.97027 21.791 4.27297C21.5919 4.57568 21.3115 4.81081 20.9499 4.97838C20.5935 5.14595 20.1821 5.22973 19.7157 5.22973H18.851C18.6623 5.22973 18.5103 5.28649 18.395 5.4C18.285 5.50811 18.2299 5.65405 18.2299 5.83784C18.2299 6.01622 18.285 6.16216 18.395 6.27568C18.5103 6.38919 18.6623 6.44595 18.851 6.44595H19.7314C20.6014 6.44595 21.2827 6.62973 21.7753 6.9973C22.2679 7.36486 22.5142 7.88649 22.5142 8.56216C22.5142 8.97838 22.4016 9.34595 22.1762 9.66486C21.9509 9.98378 21.639 10.2351 21.2407 10.4189C20.8477 10.5973 20.3917 10.6865 19.8729 10.6865C19.4222 10.6865 19.0161 10.6216 18.6544 10.4919C18.2928 10.3568 17.9862 10.1649 17.7347 9.91622C17.4884 9.66216 17.3076 9.35676 17.1923 9C17.1294 8.82703 17.0455 8.7 16.9407 8.61892C16.8411 8.53243 16.7075 8.48919 16.5398 8.48919C16.3406 8.48919 16.1782 8.55135 16.0524 8.67567C15.9319 8.8 15.8716 8.96757 15.8716 9.17838C15.8716 9.31892 15.8899 9.45676 15.9266 9.59189C15.9633 9.72703 16.0183 9.86486 16.0917 10.0054C16.3066 10.4324 16.5974 10.7946 16.9643 11.0919C17.3312 11.3892 17.7583 11.6162 18.2457 11.773C18.7383 11.9243 19.2781 12 19.8651 12Z"
		fill="currentColor"
	/>
</svg>
