<svg
	color="rgb(var(--foreground, 0, 0, 0))"
	viewBox="0 0 14 14"
	fill="none"
	xmlns="http://www.w3.org/2000/svg"
>
	<path
		d="M0.676806 1.34601C0.859316 1.34601 1.01648 1.2801 1.14829 1.14829C1.2801 1.01648 1.34601 0.856781 1.34601 0.669201C1.34601 0.486692 1.2801 0.329531 1.14829 0.197719C1.01648 0.0659062 0.859316 0 0.676806 0C0.489227 0 0.329531 0.0659062 0.197719 0.197719C0.0659062 0.329531 0 0.486692 0 0.669201C0 0.856781 0.0659062 1.01648 0.197719 1.14829C0.329531 1.2801 0.489227 1.34601 0.676806 1.34601ZM2.78327 1.34601C2.97085 1.34601 3.13054 1.2801 3.26236 1.14829C3.39417 1.01648 3.46008 0.856781 3.46008 0.669201C3.46008 0.486692 3.39417 0.329531 3.26236 0.197719C3.13054 0.0659062 2.97085 0 2.78327 0C2.59569 0 2.43599 0.0659062 2.30418 0.197719C2.17744 0.329531 2.11407 0.486692 2.11407 0.669201C2.11407 0.856781 2.17744 1.01648 2.30418 1.14829C2.43599 1.2801 2.59569 1.34601 2.78327 1.34601ZM4.88973 1.34601C5.07731 1.34601 5.23701 1.2801 5.36882 1.14829C5.50063 1.01648 5.56654 0.856781 5.56654 0.669201C5.56654 0.486692 5.50063 0.329531 5.36882 0.197719C5.23701 0.0659062 5.07731 0 4.88973 0C4.70722 0 4.55006 0.0659062 4.41825 0.197719C4.28644 0.329531 4.22053 0.486692 4.22053 0.669201C4.22053 0.856781 4.28644 1.01648 4.41825 1.14829C4.55006 1.2801 4.70722 1.34601 4.88973 1.34601ZM7.0038 1.34601C7.18631 1.34601 7.34347 1.2801 7.47529 1.14829C7.6071 1.01648 7.673 0.856781 7.673 0.669201C7.673 0.486692 7.6071 0.329531 7.47529 0.197719C7.34347 0.0659062 7.18631 0 7.0038 0C6.81622 0 6.65653 0.0659062 6.52471 0.197719C6.3929 0.329531 6.327 0.486692 6.327 0.669201C6.327 0.856781 6.3929 1.01648 6.52471 1.14829C6.65653 1.2801 6.81622 1.34601 7.0038 1.34601ZM9.11027 1.34601C9.29784 1.34601 9.45754 1.2801 9.58935 1.14829C9.72117 1.01648 9.78707 0.856781 9.78707 0.669201C9.78707 0.486692 9.72117 0.329531 9.58935 0.197719C9.45754 0.0659062 9.29784 0 9.11027 0C8.92269 0 8.76299 0.0659062 8.63118 0.197719C8.50444 0.329531 8.44106 0.486692 8.44106 0.669201C8.44106 0.856781 8.50444 1.01648 8.63118 1.14829C8.76299 1.2801 8.92269 1.34601 9.11027 1.34601ZM11.2167 1.34601C11.4043 1.34601 11.564 1.2801 11.6958 1.14829C11.8276 1.01648 11.8935 0.856781 11.8935 0.669201C11.8935 0.486692 11.8276 0.329531 11.6958 0.197719C11.564 0.0659062 11.4043 0 11.2167 0C11.0292 0 10.8695 0.0659062 10.7376 0.197719C10.6109 0.329531 10.5475 0.486692 10.5475 0.669201C10.5475 0.856781 10.6109 1.01648 10.7376 1.14829C10.8695 1.2801 11.0292 1.34601 11.2167 1.34601ZM13.3308 1.34601C13.5133 1.34601 13.6705 1.2801 13.8023 1.14829C13.9341 1.01648 14 0.856781 14 0.669201C14 0.486692 13.9341 0.329531 13.8023 0.197719C13.6705 0.0659062 13.5133 0 13.3308 0C13.1432 0 12.9835 0.0659062 12.8517 0.197719C12.7199 0.329531 12.654 0.486692 12.654 0.669201C12.654 0.856781 12.7199 1.01648 12.8517 1.14829C12.9835 1.2801 13.1432 1.34601 13.3308 1.34601ZM13.3308 3.45247C13.5133 3.45247 13.6705 3.3891 13.8023 3.26236C13.9341 3.13054 14 2.97085 14 2.78327C14 2.59569 13.9341 2.43599 13.8023 2.30418C13.6705 2.17237 13.5133 2.10646 13.3308 2.10646C13.1432 2.10646 12.9835 2.17237 12.8517 2.30418C12.7199 2.43599 12.654 2.59569 12.654 2.78327C12.654 2.97085 12.7199 3.13054 12.8517 3.26236C12.9835 3.3891 13.1432 3.45247 13.3308 3.45247ZM13.3308 5.55894C13.5133 5.55894 13.6705 5.49556 13.8023 5.36882C13.9341 5.23701 14 5.07731 14 4.88973C14 4.70215 13.9341 4.54246 13.8023 4.41065C13.6705 4.27883 13.5133 4.21293 13.3308 4.21293C13.1432 4.21293 12.9835 4.27883 12.8517 4.41065C12.7199 4.54246 12.654 4.70215 12.654 4.88973C12.654 5.07731 12.7199 5.23701 12.8517 5.36882C12.9835 5.49556 13.1432 5.55894 13.3308 5.55894ZM13.3308 7.673C13.5133 7.673 13.6705 7.6071 13.8023 7.47529C13.9341 7.34347 14 7.18378 14 6.9962C14 6.81369 13.9341 6.65653 13.8023 6.52471C13.6705 6.3929 13.5133 6.327 13.3308 6.327C13.1432 6.327 12.9835 6.3929 12.8517 6.52471C12.7199 6.65653 12.654 6.81369 12.654 6.9962C12.654 7.18378 12.7199 7.34347 12.8517 7.47529C12.9835 7.6071 13.1432 7.673 13.3308 7.673ZM13.3308 9.77947C13.5133 9.77947 13.6705 9.71356 13.8023 9.58175C13.9341 9.44994 14 9.29278 14 9.11027C14 8.92269 13.9341 8.76299 13.8023 8.63118C13.6705 8.49937 13.5133 8.43346 13.3308 8.43346C13.1432 8.43346 12.9835 8.49937 12.8517 8.63118C12.7199 8.76299 12.654 8.92269 12.654 9.11027C12.654 9.29278 12.7199 9.44994 12.8517 9.58175C12.9835 9.71356 13.1432 9.77947 13.3308 9.77947ZM13.3308 11.8859C13.5133 11.8859 13.6705 11.8226 13.8023 11.6958C13.9341 11.564 14 11.4043 14 11.2167C14 11.0292 13.9341 10.8695 13.8023 10.7376C13.6705 10.6058 13.5133 10.5399 13.3308 10.5399C13.1432 10.5399 12.9835 10.6058 12.8517 10.7376C12.7199 10.8695 12.654 11.0292 12.654 11.2167C12.654 11.4043 12.7199 11.564 12.8517 11.6958C12.9835 11.8226 13.1432 11.8859 13.3308 11.8859ZM13.3308 14C13.5133 14 13.6705 13.9341 13.8023 13.8023C13.9341 13.6705 14 13.5108 14 13.3232C14 13.1407 13.9341 12.9835 13.8023 12.8517C13.6705 12.7199 13.5133 12.654 13.3308 12.654C13.1432 12.654 12.9835 12.7199 12.8517 12.8517C12.7199 12.9835 12.654 13.1407 12.654 13.3232C12.654 13.5108 12.7199 13.6705 12.8517 13.8023C12.9835 13.9341 13.1432 14 13.3308 14ZM11.2167 14C11.4043 14 11.564 13.9341 11.6958 13.8023C11.8276 13.6705 11.8935 13.5108 11.8935 13.3232C11.8935 13.1407 11.8276 12.9835 11.6958 12.8517C11.564 12.7199 11.4043 12.654 11.2167 12.654C11.0292 12.654 10.8695 12.7199 10.7376 12.8517C10.6109 12.9835 10.5475 13.1407 10.5475 13.3232C10.5475 13.5108 10.6109 13.6705 10.7376 13.8023C10.8695 13.9341 11.0292 14 11.2167 14ZM9.11027 14C9.29784 14 9.45754 13.9341 9.58935 13.8023C9.72117 13.6705 9.78707 13.5108 9.78707 13.3232C9.78707 13.1407 9.72117 12.9835 9.58935 12.8517C9.45754 12.7199 9.29784 12.654 9.11027 12.654C8.92269 12.654 8.76299 12.7199 8.63118 12.8517C8.50444 12.9835 8.44106 13.1407 8.44106 13.3232C8.44106 13.5108 8.50444 13.6705 8.63118 13.8023C8.76299 13.9341 8.92269 14 9.11027 14ZM7.0038 14C7.18631 14 7.34347 13.9341 7.47529 13.8023C7.6071 13.6705 7.673 13.5108 7.673 13.3232C7.673 13.1407 7.6071 12.9835 7.47529 12.8517C7.34347 12.7199 7.18631 12.654 7.0038 12.654C6.81622 12.654 6.65653 12.7199 6.52471 12.8517C6.3929 12.9835 6.327 13.1407 6.327 13.3232C6.327 13.5108 6.3929 13.6705 6.52471 13.8023C6.65653 13.9341 6.81622 14 7.0038 14ZM4.88973 14C5.07731 14 5.23701 13.9341 5.36882 13.8023C5.50063 13.6705 5.56654 13.5108 5.56654 13.3232C5.56654 13.1407 5.50063 12.9835 5.36882 12.8517C5.23701 12.7199 5.07731 12.654 4.88973 12.654C4.70722 12.654 4.55006 12.7199 4.41825 12.8517C4.28644 12.9835 4.22053 13.1407 4.22053 13.3232C4.22053 13.5108 4.28644 13.6705 4.41825 13.8023C4.55006 13.9341 4.70722 14 4.88973 14ZM2.78327 14C2.97085 14 3.13054 13.9341 3.26236 13.8023C3.39417 13.6705 3.46008 13.5108 3.46008 13.3232C3.46008 13.1407 3.39417 12.9835 3.26236 12.8517C3.13054 12.7199 2.97085 12.654 2.78327 12.654C2.59569 12.654 2.43599 12.7199 2.30418 12.8517C2.17744 12.9835 2.11407 13.1407 2.11407 13.3232C2.11407 13.5108 2.17744 13.6705 2.30418 13.8023C2.43599 13.9341 2.59569 14 2.78327 14ZM0.676806 14C0.859316 14 1.01648 13.9341 1.14829 13.8023C1.2801 13.6705 1.34601 13.5108 1.34601 13.3232C1.34601 13.1407 1.2801 12.9835 1.14829 12.8517C1.01648 12.7199 0.859316 12.654 0.676806 12.654C0.489227 12.654 0.329531 12.7199 0.197719 12.8517C0.0659062 12.9835 0 13.1407 0 13.3232C0 13.5108 0.0659062 13.6705 0.197719 13.8023C0.329531 13.9341 0.489227 14 0.676806 14ZM0.676806 11.8859C0.859316 11.8859 1.01648 11.8226 1.14829 11.6958C1.2801 11.564 1.34601 11.4043 1.34601 11.2167C1.34601 11.0292 1.2801 10.8695 1.14829 10.7376C1.01648 10.6058 0.859316 10.5399 0.676806 10.5399C0.489227 10.5399 0.329531 10.6058 0.197719 10.7376C0.0659062 10.8695 0 11.0292 0 11.2167C0 11.4043 0.0659062 11.564 0.197719 11.6958C0.329531 11.8226 0.489227 11.8859 0.676806 11.8859ZM0.676806 9.77947C0.859316 9.77947 1.01648 9.71356 1.14829 9.58175C1.2801 9.44994 1.34601 9.29278 1.34601 9.11027C1.34601 8.92269 1.2801 8.76299 1.14829 8.63118C1.01648 8.49937 0.859316 8.43346 0.676806 8.43346C0.489227 8.43346 0.329531 8.49937 0.197719 8.63118C0.0659062 8.76299 0 8.92269 0 9.11027C0 9.29278 0.0659062 9.44994 0.197719 9.58175C0.329531 9.71356 0.489227 9.77947 0.676806 9.77947ZM0.676806 7.673C0.859316 7.673 1.01648 7.6071 1.14829 7.47529C1.2801 7.34347 1.34601 7.18378 1.34601 6.9962C1.34601 6.81369 1.2801 6.65653 1.14829 6.52471C1.01648 6.3929 0.859316 6.327 0.676806 6.327C0.489227 6.327 0.329531 6.3929 0.197719 6.52471C0.0659062 6.65653 0 6.81369 0 6.9962C0 7.18378 0.0659062 7.34347 0.197719 7.47529C0.329531 7.6071 0.489227 7.673 0.676806 7.673ZM0.676806 5.55894C0.859316 5.55894 1.01648 5.49556 1.14829 5.36882C1.2801 5.23701 1.34601 5.07731 1.34601 4.88973C1.34601 4.70215 1.2801 4.54246 1.14829 4.41065C1.01648 4.27883 0.859316 4.21293 0.676806 4.21293C0.489227 4.21293 0.329531 4.27883 0.197719 4.41065C0.0659062 4.54246 0 4.70215 0 4.88973C0 5.07731 0.0659062 5.23701 0.197719 5.36882C0.329531 5.49556 0.489227 5.55894 0.676806 5.55894ZM0.676806 3.45247C0.859316 3.45247 1.01648 3.3891 1.14829 3.26236C1.2801 3.13054 1.34601 2.97085 1.34601 2.78327C1.34601 2.59569 1.2801 2.43599 1.14829 2.30418C1.01648 2.17237 0.859316 2.10646 0.676806 2.10646C0.489227 2.10646 0.329531 2.17237 0.197719 2.30418C0.0659062 2.43599 0 2.59569 0 2.78327C0 2.97085 0.0659062 3.13054 0.197719 3.26236C0.329531 3.3891 0.489227 3.45247 0.676806 3.45247ZM7.0038 3.45247C7.18631 3.45247 7.34347 3.3891 7.47529 3.26236C7.6071 3.13054 7.673 2.97085 7.673 2.78327C7.673 2.59569 7.6071 2.43599 7.47529 2.30418C7.34347 2.17237 7.18631 2.10646 7.0038 2.10646C6.81622 2.10646 6.65653 2.17237 6.52471 2.30418C6.3929 2.43599 6.327 2.59569 6.327 2.78327C6.327 2.97085 6.3929 3.13054 6.52471 3.26236C6.65653 3.3891 6.81622 3.45247 7.0038 3.45247ZM7.0038 5.55894C7.18631 5.55894 7.34347 5.49556 7.47529 5.36882C7.6071 5.23701 7.673 5.07731 7.673 4.88973C7.673 4.70215 7.6071 4.54246 7.47529 4.41065C7.34347 4.27883 7.18631 4.21293 7.0038 4.21293C6.81622 4.21293 6.65653 4.27883 6.52471 4.41065C6.3929 4.54246 6.327 4.70215 6.327 4.88973C6.327 5.07731 6.3929 5.23701 6.52471 5.36882C6.65653 5.49556 6.81622 5.55894 7.0038 5.55894ZM7.0038 7.673C7.18631 7.673 7.34347 7.6071 7.47529 7.47529C7.6071 7.34347 7.673 7.18378 7.673 6.9962C7.673 6.81369 7.6071 6.65653 7.47529 6.52471C7.34347 6.3929 7.18631 6.327 7.0038 6.327C6.81622 6.327 6.65653 6.3929 6.52471 6.52471C6.3929 6.65653 6.327 6.81369 6.327 6.9962C6.327 7.18378 6.3929 7.34347 6.52471 7.47529C6.65653 7.6071 6.81622 7.673 7.0038 7.673ZM7.0038 9.77947C7.18631 9.77947 7.34347 9.71356 7.47529 9.58175C7.6071 9.44994 7.673 9.29278 7.673 9.11027C7.673 8.92269 7.6071 8.76299 7.47529 8.63118C7.34347 8.49937 7.18631 8.43346 7.0038 8.43346C6.81622 8.43346 6.65653 8.49937 6.52471 8.63118C6.3929 8.76299 6.327 8.92269 6.327 9.11027C6.327 9.29278 6.3929 9.44994 6.52471 9.58175C6.65653 9.71356 6.81622 9.77947 7.0038 9.77947ZM7.0038 11.8859C7.18631 11.8859 7.34347 11.8226 7.47529 11.6958C7.6071 11.564 7.673 11.4043 7.673 11.2167C7.673 11.0292 7.6071 10.8695 7.47529 10.7376C7.34347 10.6058 7.18631 10.5399 7.0038 10.5399C6.81622 10.5399 6.65653 10.6058 6.52471 10.7376C6.3929 10.8695 6.327 11.0292 6.327 11.2167C6.327 11.4043 6.3929 11.564 6.52471 11.6958C6.65653 11.8226 6.81622 11.8859 7.0038 11.8859ZM2.78327 7.673C2.97085 7.673 3.13054 7.6071 3.26236 7.47529C3.39417 7.34347 3.46008 7.18378 3.46008 6.9962C3.46008 6.81369 3.39417 6.65653 3.26236 6.52471C3.13054 6.3929 2.97085 6.327 2.78327 6.327C2.59569 6.327 2.43599 6.3929 2.30418 6.52471C2.17744 6.65653 2.11407 6.81369 2.11407 6.9962C2.11407 7.18378 2.17744 7.34347 2.30418 7.47529C2.43599 7.6071 2.59569 7.673 2.78327 7.673ZM4.88973 7.673C5.07731 7.673 5.23701 7.6071 5.36882 7.47529C5.50063 7.34347 5.56654 7.18378 5.56654 6.9962C5.56654 6.81369 5.50063 6.65653 5.36882 6.52471C5.23701 6.3929 5.07731 6.327 4.88973 6.327C4.70722 6.327 4.55006 6.3929 4.41825 6.52471C4.28644 6.65653 4.22053 6.81369 4.22053 6.9962C4.22053 7.18378 4.28644 7.34347 4.41825 7.47529C4.55006 7.6071 4.70722 7.673 4.88973 7.673ZM9.11027 7.673C9.29784 7.673 9.45754 7.6071 9.58935 7.47529C9.72117 7.34347 9.78707 7.18378 9.78707 6.9962C9.78707 6.81369 9.72117 6.65653 9.58935 6.52471C9.45754 6.3929 9.29784 6.327 9.11027 6.327C8.92269 6.327 8.76299 6.3929 8.63118 6.52471C8.50444 6.65653 8.44106 6.81369 8.44106 6.9962C8.44106 7.18378 8.50444 7.34347 8.63118 7.47529C8.76299 7.6071 8.92269 7.673 9.11027 7.673ZM11.2167 7.673C11.4043 7.673 11.564 7.6071 11.6958 7.47529C11.8276 7.34347 11.8935 7.18378 11.8935 6.9962C11.8935 6.81369 11.8276 6.65653 11.6958 6.52471C11.564 6.3929 11.4043 6.327 11.2167 6.327C11.0292 6.327 10.8695 6.3929 10.7376 6.52471C10.6109 6.65653 10.5475 6.81369 10.5475 6.9962C10.5475 7.18378 10.6109 7.34347 10.7376 7.47529C10.8695 7.6071 11.0292 7.673 11.2167 7.673Z"
		fill="currentColor"
	/>
</svg>
