<svg
	color="rgb(var(--foreground, 0, 0, 0))"
	viewBox="0 0 14 14"
	fill="none"
	xmlns="http://www.w3.org/2000/svg"
>
	<path
		d="M7.0038 1.34528C7.18631 1.34528 7.34347 1.27941 7.47529 1.14767C7.6071 1.01592 7.673 0.856316 7.673 0.668838C7.673 0.486428 7.6071 0.329352 7.47529 0.197611C7.34347 0.0658704 7.18631 0 7.0038 0C6.81622 0 6.65653 0.0658704 6.52471 0.197611C6.3929 0.329352 6.327 0.486428 6.327 0.668838C6.327 0.856316 6.3929 1.01592 6.52471 1.14767C6.65653 1.27941 6.81622 1.34528 7.0038 1.34528ZM7.0038 3.4506C7.18631 3.4506 7.34347 3.38726 7.47529 3.26059C7.6071 3.12885 7.673 2.96924 7.673 2.78176C7.673 2.59428 7.6071 2.43467 7.47529 2.30293C7.34347 2.17119 7.18631 2.10532 7.0038 2.10532C6.81622 2.10532 6.65653 2.17119 6.52471 2.30293C6.3929 2.43467 6.327 2.59428 6.327 2.78176C6.327 2.96924 6.3929 3.12885 6.52471 3.26059C6.65653 3.38726 6.81622 3.4506 7.0038 3.4506ZM7.0038 5.55592C7.18631 5.55592 7.34347 5.49258 7.47529 5.36591C7.6071 5.23417 7.673 5.07456 7.673 4.88708C7.673 4.6996 7.6071 4.53999 7.47529 4.40825C7.34347 4.27651 7.18631 4.21064 7.0038 4.21064C6.81622 4.21064 6.65653 4.27651 6.52471 4.40825C6.3929 4.53999 6.327 4.6996 6.327 4.88708C6.327 5.07456 6.3929 5.23417 6.52471 5.36591C6.65653 5.49258 6.81622 5.55592 7.0038 5.55592ZM7.0038 7.66884C7.18631 7.66884 7.34347 7.60297 7.47529 7.47123C7.6071 7.33949 7.673 7.17988 7.673 6.9924C7.673 6.80999 7.6071 6.65291 7.47529 6.52117C7.34347 6.38943 7.18631 6.32356 7.0038 6.32356C6.81622 6.32356 6.65653 6.38943 6.52471 6.52117C6.3929 6.65291 6.327 6.80999 6.327 6.9924C6.327 7.17988 6.3929 7.33949 6.52471 7.47123C6.65653 7.60297 6.81622 7.66884 7.0038 7.66884ZM7.0038 9.77416C7.18631 9.77416 7.34347 9.70829 7.47529 9.57655C7.6071 9.44481 7.673 9.28773 7.673 9.10532C7.673 8.91784 7.6071 8.75823 7.47529 8.62649C7.34347 8.49475 7.18631 8.42888 7.0038 8.42888C6.81622 8.42888 6.65653 8.49475 6.52471 8.62649C6.3929 8.75823 6.327 8.91784 6.327 9.10532C6.327 9.28773 6.3929 9.44481 6.52471 9.57655C6.65653 9.70829 6.81622 9.77416 7.0038 9.77416ZM7.0038 11.8795C7.18631 11.8795 7.34347 11.8161 7.47529 11.6895C7.6071 11.5577 7.673 11.3981 7.673 11.2106C7.673 11.0232 7.6071 10.8636 7.47529 10.7318C7.34347 10.6001 7.18631 10.5342 7.0038 10.5342C6.81622 10.5342 6.65653 10.6001 6.52471 10.7318C6.3929 10.8636 6.327 11.0232 6.327 11.2106C6.327 11.3981 6.3929 11.5577 6.52471 11.6895C6.65653 11.8161 6.81622 11.8795 7.0038 11.8795ZM7.0038 13.9924C7.18631 13.9924 7.34347 13.9265 7.47529 13.7948C7.6071 13.663 7.673 13.5034 7.673 13.316C7.673 13.1336 7.6071 12.9765 7.47529 12.8447C7.34347 12.713 7.18631 12.6471 7.0038 12.6471C6.81622 12.6471 6.65653 12.713 6.52471 12.8447C6.3929 12.9765 6.327 13.1336 6.327 13.316C6.327 13.5034 6.3929 13.663 6.52471 13.7948C6.65653 13.9265 6.81622 13.9924 7.0038 13.9924ZM0.684411 7.66884C0.86692 7.66884 1.02408 7.60297 1.15589 7.47123C1.28771 7.33949 1.35361 7.17988 1.35361 6.9924C1.35361 6.80999 1.28771 6.65291 1.15589 6.52117C1.02408 6.38943 0.86692 6.32356 0.684411 6.32356C0.496831 6.32356 0.337136 6.38943 0.205323 6.52117C0.0735108 6.65291 0.00760456 6.80999 0.00760456 6.9924C0.00760456 7.17988 0.0735108 7.33949 0.205323 7.47123C0.337136 7.60297 0.496831 7.66884 0.684411 7.66884ZM2.78327 7.66884C2.97085 7.66884 3.13054 7.60297 3.26236 7.47123C3.39417 7.33949 3.46008 7.17988 3.46008 6.9924C3.46008 6.80999 3.39417 6.65291 3.26236 6.52117C3.13054 6.38943 2.97085 6.32356 2.78327 6.32356C2.59569 6.32356 2.43599 6.38943 2.30418 6.52117C2.17744 6.65291 2.11407 6.80999 2.11407 6.9924C2.11407 7.17988 2.17744 7.33949 2.30418 7.47123C2.43599 7.60297 2.59569 7.66884 2.78327 7.66884ZM4.88973 7.66884C5.07731 7.66884 5.23701 7.60297 5.36882 7.47123C5.50063 7.33949 5.56654 7.17988 5.56654 6.9924C5.56654 6.80999 5.50063 6.65291 5.36882 6.52117C5.23701 6.38943 5.07731 6.32356 4.88973 6.32356C4.70722 6.32356 4.55006 6.38943 4.41825 6.52117C4.28644 6.65291 4.22053 6.80999 4.22053 6.9924C4.22053 7.17988 4.28644 7.33949 4.41825 7.47123C4.55006 7.60297 4.70722 7.66884 4.88973 7.66884ZM9.11027 7.66884C9.29784 7.66884 9.45754 7.60297 9.58935 7.47123C9.72117 7.33949 9.78707 7.17988 9.78707 6.9924C9.78707 6.80999 9.72117 6.65291 9.58935 6.52117C9.45754 6.38943 9.29784 6.32356 9.11027 6.32356C8.92269 6.32356 8.76299 6.38943 8.63118 6.52117C8.50444 6.65291 8.44106 6.80999 8.44106 6.9924C8.44106 7.17988 8.50444 7.33949 8.63118 7.47123C8.76299 7.60297 8.92269 7.66884 9.11027 7.66884ZM11.2167 7.66884C11.4043 7.66884 11.564 7.60297 11.6958 7.47123C11.8276 7.33949 11.8935 7.17988 11.8935 6.9924C11.8935 6.80999 11.8276 6.65291 11.6958 6.52117C11.564 6.38943 11.4043 6.32356 11.2167 6.32356C11.0292 6.32356 10.8695 6.38943 10.7376 6.52117C10.6109 6.65291 10.5475 6.80999 10.5475 6.9924C10.5475 7.17988 10.6109 7.33949 10.7376 7.47123C10.8695 7.60297 11.0292 7.66884 11.2167 7.66884ZM13.3232 7.66884C13.5057 7.66884 13.6629 7.60297 13.7947 7.47123C13.9265 7.33949 13.9924 7.17988 13.9924 6.9924C13.9924 6.80999 13.9265 6.65291 13.7947 6.52117C13.6629 6.38943 13.5057 6.32356 13.3232 6.32356C13.1356 6.32356 12.9759 6.38943 12.8441 6.52117C12.7123 6.65291 12.6464 6.80999 12.6464 6.9924C12.6464 7.17988 12.7123 7.33949 12.8441 7.47123C12.9759 7.60297 13.1356 7.66884 13.3232 7.66884ZM0 13.392C0 13.5744 0.0557668 13.7213 0.1673 13.8328C0.278834 13.9443 0.425856 14 0.608365 14H13.3992C13.5817 14 13.7262 13.9443 13.8327 13.8328C13.9442 13.7213 14 13.5744 14 13.392V0.608035C14 0.425624 13.9442 0.281216 13.8327 0.17481C13.7262 0.0633369 13.5817 0.00760043 13.3992 0.00760043H0.608365C0.425856 0.00760043 0.278834 0.0633369 0.1673 0.17481C0.0557668 0.281216 0 0.425624 0 0.608035V13.392ZM1.22433 12.5559V1.45168C1.22433 1.30474 1.29785 1.23127 1.44487 1.23127H12.5551C12.7022 1.23127 12.7757 1.30474 12.7757 1.45168V12.5559C12.7757 12.7029 12.7022 12.7763 12.5551 12.7763H1.44487C1.29785 12.7763 1.22433 12.7029 1.22433 12.5559Z"
		fill="currentColor"
	/>
</svg>
