<svg
	color="rgb(var(--foreground, 0, 0, 0))"
	viewBox="0 0 15 18"
	fill="none"
	xmlns="http://www.w3.org/2000/svg"
>
	<path
		d="M12.8245 9.36662L7.042 15.1984C6.53849 15.7061 5.99564 16.0341 5.41345 16.1822C4.83651 16.3356 4.26743 16.3277 3.70623 16.1584C3.15026 15.9944 2.65724 15.6929 2.22716 15.2539C1.79707 14.8201 1.49811 14.3229 1.33027 13.7622C1.16768 13.2015 1.15981 12.6303 1.30667 12.0484C1.45877 11.4613 1.78396 10.9138 2.28223 10.406L10.1732 2.45581C10.4722 2.14902 10.8079 1.93479 11.1802 1.81313C11.5526 1.69147 11.9224 1.66767 12.2895 1.74172C12.6567 1.81578 12.9845 1.99562 13.273 2.28126C13.5614 2.57747 13.7424 2.91071 13.8158 3.28098C13.8893 3.64596 13.863 4.01623 13.7371 4.39179C13.6165 4.76735 13.4067 5.10588 13.1078 5.40739L5.39771 13.183C5.20365 13.384 5.00172 13.4713 4.79193 13.4449C4.58213 13.4131 4.40905 13.3311 4.27268 13.1989C4.13631 13.0614 4.05501 12.8868 4.02879 12.6752C4.00256 12.4637 4.08648 12.2574 4.28055 12.0564L9.66971 6.63721C9.7851 6.51555 9.84541 6.37802 9.85066 6.22462C9.86115 6.06593 9.8087 5.92841 9.69331 5.81204C9.57792 5.70096 9.44155 5.64806 9.28421 5.65335C9.1321 5.65864 8.99836 5.72211 8.88297 5.84377L3.47807 11.2947C3.21058 11.5644 3.03225 11.8686 2.94309 12.2071C2.85917 12.5456 2.85655 12.8789 2.93522 13.2068C3.01914 13.5348 3.17911 13.8178 3.41513 14.0558C3.67213 14.315 3.96323 14.4869 4.28841 14.5715C4.6136 14.6509 4.93878 14.6429 5.26397 14.5477C5.5944 14.4525 5.89336 14.27 6.16085 14.0003L13.9024 6.19288C14.3954 5.69567 14.7206 5.16407 14.8779 4.59808C15.0353 4.0321 15.0405 3.4767 14.8937 2.93187C14.7468 2.38705 14.4583 1.89777 14.0282 1.46402C13.6139 1.04615 13.134 0.763155 12.5885 0.615048C12.0483 0.461651 11.4949 0.461651 10.9285 0.615048C10.362 0.768445 9.8323 1.09375 9.33928 1.59097L1.40895 9.59671C0.921169 10.0886 0.561891 10.6202 0.331115 11.1915C0.100338 11.7628 -0.00980573 12.3446 0.000684121 12.9371C0.011174 13.5242 0.131807 14.0928 0.362584 14.6429C0.593361 15.1931 0.929036 15.6876 1.36961 16.1267C1.80494 16.5657 2.29534 16.9016 2.84081 17.1343C3.38628 17.3724 3.95011 17.494 4.5323 17.4993C5.11973 17.5099 5.69668 17.3988 6.26313 17.1661C6.82958 16.9333 7.3567 16.5736 7.84447 16.087L13.6663 10.2156C13.7817 10.0992 13.8394 9.95376 13.8394 9.7792C13.8394 9.60465 13.7791 9.46183 13.6585 9.35075C13.5483 9.2238 13.4093 9.16826 13.2415 9.18413C13.0789 9.19471 12.9399 9.25554 12.8245 9.36662Z"
		fill="currentColor"
	/>
</svg>
