<svg
	color="rgb(var(--foreground, 0, 0, 0))"
	viewBox="0 0 19 14"
	fill="none"
	xmlns="http://www.w3.org/2000/svg"
>
	<path
		d="M2.88917 9.3008C3.07959 9.42091 3.26743 9.48097 3.4527 9.48097C3.64312 9.47596 3.80008 9.41591 3.9236 9.3008C4.04711 9.1857 4.1063 9.01555 4.10115 8.79035V5.23217C4.1063 5.00197 4.04711 4.82681 3.9236 4.7067C3.80523 4.58159 3.65341 4.51904 3.46814 4.51904C3.28287 4.51904 3.08988 4.58409 2.88917 4.71421L0.341695 6.40322C0.192449 6.50331 0.0920937 6.63092 0.0406296 6.78606C-0.0108346 6.9412 -0.0134078 7.09884 0.03291 7.25898C0.0843741 7.41412 0.187302 7.54173 0.341695 7.64182L2.88917 9.3008ZM7.57498 14C7.73966 14 7.87604 13.9424 7.98412 13.8273C8.09734 13.7172 8.15395 13.5821 8.15395 13.422V0.57051C8.15395 0.410367 8.09734 0.275246 7.98412 0.165147C7.87604 0.0550492 7.73966 0 7.57498 0C7.41029 0 7.27134 0.0550492 7.15812 0.165147C7.0449 0.275246 6.98829 0.410367 6.98829 0.57051V13.422C6.98829 13.5821 7.0449 13.7172 7.15812 13.8273C7.27134 13.9424 7.41029 14 7.57498 14ZM11.4271 14C11.5918 14 11.7281 13.9424 11.8362 13.8273C11.9494 13.7172 12.006 13.5821 12.006 13.422V0.57051C12.006 0.410367 11.9494 0.275246 11.8362 0.165147C11.7281 0.0550492 11.5918 0 11.4271 0C11.2624 0 11.1234 0.0550492 11.0102 0.165147C10.897 0.275246 10.8404 0.410367 10.8404 0.57051V13.422C10.8404 13.5821 10.897 13.7172 11.0102 13.8273C11.1234 13.9424 11.2624 14 11.4271 14ZM16.1052 9.3008L18.6603 7.64182C18.8147 7.54173 18.9151 7.41412 18.9614 7.25898C19.0129 7.09884 19.0129 6.9412 18.9614 6.78606C18.9099 6.63092 18.8096 6.50331 18.6603 6.40322L16.1052 4.71421C15.8118 4.51904 15.5365 4.47149 15.2792 4.57158C15.027 4.66667 14.9009 4.88686 14.9009 5.23217V8.79035C14.9009 9.01555 14.9601 9.1882 15.0784 9.30831C15.202 9.42341 15.3564 9.48097 15.5416 9.48097C15.732 9.48097 15.9199 9.42091 16.1052 9.3008Z"
		fill="currentColor"
	/>
</svg>
