<svg
	color="rgb(var(--foreground, 0, 0, 0))"
	viewBox="0 0 17 12"
	fill="none"
	xmlns="http://www.w3.org/2000/svg"
>
	<path
		d="M7.72376 7.68254C7.72376 6.97884 7.56929 6.34127 7.26034 5.76984C6.95139 5.19312 6.5343 4.73545 6.00909 4.39682C5.48387 4.0582 4.89429 3.88889 4.24035 3.88889C3.78207 3.88889 3.34181 3.98148 2.91958 4.16667C2.5025 4.35185 2.13176 4.62698 1.80736 4.99206H1.59882C1.7121 4.6164 1.87687 4.25926 2.09314 3.92063C2.31455 3.58201 2.57716 3.27249 2.88096 2.99206C3.18476 2.70635 3.52461 2.45503 3.9005 2.2381C4.27639 2.02116 4.67545 1.84921 5.09768 1.72222C5.22126 1.67989 5.32682 1.64021 5.41436 1.60317C5.50189 1.56614 5.57141 1.52381 5.6229 1.47619C5.68469 1.42857 5.73103 1.37037 5.76193 1.30159C5.79797 1.2328 5.81599 1.15344 5.81599 1.06349C5.81599 0.899471 5.75935 0.76455 5.64607 0.65873C5.53279 0.55291 5.38604 0.5 5.20582 0.5C5.08738 0.5 4.97153 0.513228 4.85825 0.539683C4.75011 0.566138 4.61366 0.60582 4.44889 0.65873C3.91337 0.838624 3.41133 1.08201 2.94275 1.38889C2.47418 1.69048 2.05452 2.04233 1.68378 2.44444C1.16371 3 0.751779 3.6455 0.447978 4.38095C0.149326 5.1164 0 5.92328 0 6.80159C0 7.791 0.182796 8.63757 0.548387 9.34127C0.913978 10.0397 1.398 10.5741 2.00045 10.9444C2.60806 11.3148 3.2723 11.5 3.99318 11.5C4.69862 11.5 5.33197 11.3307 5.89323 10.9921C6.45964 10.6534 6.90504 10.1984 7.22944 9.62698C7.55899 9.05026 7.72376 8.40212 7.72376 7.68254ZM17 7.68254C17 6.97884 16.8455 6.34127 16.5366 5.76984C16.2276 5.19312 15.8105 4.73545 15.2853 4.39682C14.7601 4.0582 14.1705 3.88889 13.5166 3.88889C13.0583 3.88889 12.6181 3.98148 12.1958 4.16667C11.7736 4.35185 11.4028 4.62698 11.0836 4.99206H10.8751C10.9832 4.6164 11.1454 4.25926 11.3617 3.92063C11.5831 3.58201 11.8457 3.27249 12.1495 2.99206C12.4584 2.70635 12.7983 2.45503 13.169 2.2381C13.5449 2.02116 13.944 1.84921 14.3662 1.72222C14.4898 1.67989 14.5953 1.64021 14.6829 1.60317C14.7756 1.56614 14.8476 1.52381 14.8991 1.47619C14.9609 1.42857 15.0073 1.37037 15.0382 1.30159C15.0691 1.2328 15.0845 1.15344 15.0845 1.06349C15.0845 0.899471 15.0304 0.76455 14.9223 0.65873C14.8142 0.55291 14.6674 0.5 14.4821 0.5C14.3585 0.5 14.2426 0.513228 14.1345 0.539683C14.0264 0.566138 13.8873 0.60582 13.7174 0.65873C13.187 0.838624 12.685 1.08201 12.2113 1.38889C11.7427 1.69048 11.323 2.04233 10.9523 2.44444C10.4374 3 10.028 3.6455 9.72422 4.38095C9.42556 5.1164 9.27624 5.92328 9.27624 6.80159C9.27624 7.791 9.45903 8.63757 9.82463 9.34127C10.1902 10.0397 10.6742 10.5741 11.2767 10.9444C11.8843 11.3148 12.5485 11.5 13.2694 11.5C13.98 11.5 14.6159 11.3307 15.1772 10.9921C15.7385 10.6534 16.1813 10.1984 16.5057 9.62698C16.8352 9.05026 17 8.40212 17 7.68254Z"
		fill="currentColor"
	/>
</svg>
