<svg
	color="rgb(var(--foreground, 0, 0, 0))"
	viewBox="0 0 16 14"
	fill="none"
	xmlns="http://www.w3.org/2000/svg"
>
	<path
		d="M0.584226 14C0.750406 14 0.89062 13.9424 1.00487 13.8273C1.11912 13.7172 1.17624 13.5821 1.17624 13.422V0.57051C1.17624 0.410367 1.11912 0.275246 1.00487 0.165147C0.89062 0.0550492 0.750406 0 0.584226 0C0.423239 0 0.285622 0.0550492 0.171373 0.165147C0.0571243 0.275246 0 0.410367 0 0.57051V13.422C0 13.5821 0.0571243 13.7172 0.171373 13.8273C0.285622 13.9424 0.423239 14 0.584226 14ZM4.47128 14C4.63746 14 4.77767 13.9424 4.89192 13.8273C5.00617 13.7172 5.06329 13.5821 5.06329 13.422V0.57051C5.06329 0.410367 5.00617 0.275246 4.89192 0.165147C4.77767 0.0550492 4.63746 0 4.47128 0C4.31029 0 4.17267 0.0550492 4.05842 0.165147C3.94417 0.275246 3.88705 0.410367 3.88705 0.57051V13.422C3.88705 13.5821 3.94417 13.7172 4.05842 13.8273C4.17267 13.9424 4.31029 14 4.47128 14ZM8.35833 14C8.52451 14 8.66472 13.9424 8.77897 13.8273C8.89322 13.7172 8.95034 13.5821 8.95034 13.422V0.57051C8.95034 0.410367 8.89322 0.275246 8.77897 0.165147C8.66472 0.0550492 8.52451 0 8.35833 0C8.19734 0 8.05972 0.0550492 7.94547 0.165147C7.83122 0.275246 7.7741 0.410367 7.7741 0.57051V13.422C7.7741 13.5821 7.83122 13.7172 7.94547 13.8273C8.05972 13.9424 8.19734 14 8.35833 14ZM13.0867 9.3008L15.665 7.64182C15.8156 7.54173 15.9143 7.41412 15.9611 7.25898C16.013 7.09884 16.013 6.9412 15.9611 6.78606C15.9091 6.63092 15.8105 6.50331 15.665 6.40322L13.0867 4.71421C12.8841 4.58409 12.6894 4.51904 12.5024 4.51904C12.3155 4.51904 12.1597 4.58159 12.0351 4.7067C11.9156 4.82681 11.8585 5.00197 11.8637 5.23217V8.79035C11.8585 9.01555 11.9182 9.1857 12.0428 9.3008C12.1675 9.41591 12.3233 9.47596 12.5102 9.48097C12.7024 9.48097 12.8945 9.42091 13.0867 9.3008Z"
		fill="currentColor"
	/>
</svg>
