<svg
	color="rgb(var(--foreground, 0, 0, 0))"
	viewBox="0 0 17 12"
	fill="none"
	xmlns="http://www.w3.org/2000/svg"
>
	<path
		d="M0 4.31746C0 5.02116 0.154475 5.66138 0.463426 6.23809C0.772376 6.80952 1.18946 7.26455 1.71468 7.60317C2.23989 7.9418 2.82947 8.11111 3.48342 8.11111C3.94169 8.11111 4.38195 8.01852 4.80418 7.83333C5.22641 7.64815 5.59715 7.37302 5.9164 7.00794H6.12494C6.01166 7.3836 5.84431 7.74074 5.6229 8.07936C5.40663 8.41799 5.1466 8.73016 4.8428 9.01587C4.539 9.2963 4.19915 9.54497 3.82326 9.7619C3.45252 9.97884 3.05604 10.1508 2.6338 10.2778C2.51022 10.3201 2.40209 10.3598 2.3094 10.3968C2.22187 10.4339 2.15235 10.4762 2.10086 10.5238C2.03907 10.5714 1.99273 10.6296 1.96184 10.6984C1.93094 10.7672 1.91549 10.8466 1.91549 10.9365C1.91549 11.1005 1.96956 11.2354 2.07769 11.3413C2.18582 11.4471 2.33 11.5 2.51022 11.5C2.63895 11.5 2.75738 11.4868 2.86552 11.4603C2.97365 11.4339 3.11268 11.3942 3.2826 11.3413C3.81296 11.1614 4.31243 10.9206 4.78101 10.619C5.25473 10.3122 5.67696 9.95767 6.04771 9.55556C6.56262 9 6.96941 8.3545 7.26806 7.61905C7.57186 6.8836 7.72376 6.07672 7.72376 5.19841C7.72376 4.20899 7.54097 3.36508 7.17537 2.66667C6.80978 1.96296 6.32319 1.42593 5.71558 1.05556C5.11313 0.685185 4.45146 0.5 3.73058 0.5C3.01999 0.5 2.38407 0.669312 1.82281 1.00794C1.26155 1.34656 0.816144 1.80423 0.486597 2.38095C0.162199 2.95238 0 3.59788 0 4.31746ZM9.27624 4.31746C9.27624 5.02116 9.43071 5.66138 9.73966 6.23809C10.0486 6.80952 10.4657 7.26455 10.9909 7.60317C11.5161 7.9418 12.1057 8.11111 12.7597 8.11111C13.2179 8.11111 13.6556 8.01852 14.0727 7.83333C14.4949 7.64815 14.8682 7.37302 15.1926 7.00794H15.3935C15.2853 7.3836 15.1206 7.74074 14.8991 8.07936C14.6829 8.41799 14.4228 8.73016 14.119 9.01587C13.8152 9.2963 13.4754 9.54497 13.0995 9.7619C12.7236 9.97884 12.3245 10.1508 11.9023 10.2778C11.7787 10.3201 11.6732 10.3598 11.5856 10.3968C11.4981 10.4339 11.4286 10.4762 11.3771 10.5238C11.3153 10.5714 11.2664 10.6296 11.2303 10.6984C11.1995 10.7672 11.184 10.8466 11.184 10.9365C11.184 11.1005 11.2406 11.2354 11.3539 11.3413C11.4672 11.4471 11.614 11.5 11.7942 11.5C11.9126 11.5 12.0259 11.4868 12.134 11.4603C12.2473 11.4339 12.3863 11.3942 12.5511 11.3413C13.0815 11.1614 13.5809 10.9206 14.0495 10.619C14.5232 10.3122 14.9429 9.95767 15.3085 9.55556C15.8337 9 16.2456 8.3545 16.5443 7.61905C16.8481 6.8836 17 6.07672 17 5.19841C17 4.20899 16.8172 3.36508 16.4516 2.66667C16.086 1.96296 15.5994 1.42593 14.9918 1.05556C14.3894 0.685185 13.7277 0.5 13.0068 0.5C12.2962 0.5 11.6603 0.669312 11.099 1.00794C10.5378 1.34656 10.0924 1.80423 9.76283 2.38095C9.43844 2.95238 9.27624 3.59788 9.27624 4.31746Z"
		fill="currentColor"
	/>
</svg>
