<svg
	color="rgb(var(--foreground, 0, 0, 0))"
	viewBox="0 0 24 18"
	fill="none"
	xmlns="http://www.w3.org/2000/svg"
>
	<path
		d="M8.00266 18C8.82795 18 9.57604 17.752 10.2469 17.2561C10.9178 16.7602 11.4928 16.0708 11.972 15.188C12.4566 14.3052 12.8266 13.2779 13.0822 12.1063C13.3431 10.9346 13.4735 9.6703 13.4735 8.31335C13.4735 7.16349 13.3511 6.08719 13.1062 5.08447C12.8612 4.07629 12.5098 3.19346 12.0519 2.43597C11.594 1.67302 11.0429 1.07629 10.3987 0.645777C9.75973 0.215259 9.04093 0 8.24226 0C7.55541 0 6.93777 0.182561 6.38935 0.547684C5.84093 0.907357 5.40433 1.3951 5.07953 2.0109C4.76007 2.62125 4.60033 3.3079 4.60033 4.07084C4.60033 4.74114 4.7015 5.38692 4.90383 6.00817C5.10616 6.62943 5.38303 7.21798 5.73444 7.77384C6.09118 8.32425 6.50383 8.83651 6.97238 9.31063C7.44093 9.77929 7.94409 10.2044 8.48186 10.5858C9.02496 10.9619 9.5787 11.2861 10.1431 11.5586C10.2389 11.6076 10.3401 11.6322 10.4466 11.6322C10.6063 11.6322 10.7394 11.5777 10.8459 11.4687C10.9524 11.3542 11.0057 11.2262 11.0057 11.0845C11.0057 10.9864 10.979 10.8937 10.9258 10.8065C10.8725 10.7139 10.7874 10.6376 10.6702 10.5777C10.2123 10.3488 9.70649 10.0381 9.15275 9.64578C8.599 9.24796 8.06656 8.77384 7.55541 8.22343C7.04958 7.66758 6.63428 7.0436 6.30948 6.3515C5.98469 5.65395 5.8223 4.89373 5.8223 4.07084C5.8223 3.53678 5.92879 3.05722 6.14176 2.63215C6.35474 2.20708 6.64226 1.86921 7.00433 1.61853C7.37171 1.36785 7.78436 1.24251 8.24226 1.24251C8.85458 1.24251 9.40832 1.42779 9.90349 1.79837C10.3987 2.16894 10.822 2.67847 11.1734 3.32698C11.5248 3.97548 11.7937 4.72752 11.98 5.58311C12.1664 6.43324 12.2596 7.34333 12.2596 8.31335C12.2596 9.47412 12.1557 10.564 11.9481 11.5831C11.7458 12.6022 11.4582 13.4986 11.0855 14.2725C10.7128 15.0518 10.2762 15.6594 9.77571 16.0954C9.27521 16.5368 8.73211 16.7575 8.14642 16.7575C7.76306 16.7575 7.4782 16.6403 7.29185 16.406C7.11082 16.1771 7.0203 15.8774 7.0203 15.5068C7.0203 15.049 7.14809 14.5259 7.40366 13.9373C7.66456 13.3488 8.03195 12.7548 8.50582 12.1553C8.98503 11.5559 9.55474 11 10.215 10.4877C10.8752 9.97548 11.6126 9.56403 12.4273 9.25341C13.2419 8.93733 14.1125 8.77929 15.0389 8.77929C15.3318 8.77929 15.4782 8.89101 15.4782 9.11444C15.4782 9.35422 15.4463 9.58038 15.3824 9.79292C15.3185 10 15.2546 10.2098 15.1907 10.4223C15.1321 10.6349 15.1028 10.8583 15.1028 11.0926C15.1028 11.4033 15.2013 11.6485 15.3983 11.8283C15.5953 12.0027 15.8403 12.0899 16.1331 12.0899C16.4579 12.0899 16.788 11.9946 17.1235 11.8038C17.4642 11.6131 17.7997 11.376 18.1298 11.0926C18.4599 10.8093 18.7687 10.5286 19.0562 10.2507C19.3438 9.9673 19.5993 9.73025 19.823 9.53951C20.0466 9.34877 20.225 9.25341 20.3581 9.25341C20.4752 9.25341 20.5524 9.3406 20.5897 9.51499C20.627 9.68392 20.6616 9.89646 20.6935 10.1526C20.7255 10.4033 20.784 10.6567 20.8692 10.9128C20.9544 11.1635 21.1008 11.376 21.3085 11.5504C21.5161 11.7193 21.8196 11.8038 22.219 11.8038C22.384 11.8038 22.5651 11.7793 22.7621 11.7302C22.9591 11.6812 23.1401 11.6022 23.3052 11.4932C23.401 11.4278 23.4782 11.346 23.5368 11.248C23.6007 11.1499 23.6326 11.0381 23.6326 10.9128C23.6326 10.7548 23.5847 10.6213 23.4889 10.5123C23.3983 10.4033 23.2759 10.3488 23.1215 10.3488C22.983 10.3488 22.8526 10.3896 22.7301 10.4714C22.6077 10.5477 22.4772 10.5858 22.3388 10.5858C22.1631 10.5858 22.0433 10.4959 21.9794 10.3161C21.9155 10.1308 21.8702 9.90463 21.8436 9.6376C21.817 9.36512 21.7744 9.09537 21.7158 8.82834C21.6626 8.55586 21.5614 8.3297 21.4123 8.14986C21.2632 7.96458 21.029 7.87194 20.7095 7.87194C20.4326 7.87194 20.1291 7.96458 19.799 8.14986C19.4742 8.33515 19.1468 8.56676 18.8166 8.84469C18.4865 9.11717 18.1724 9.39237 17.8742 9.6703C17.5814 9.94278 17.3205 10.1717 17.0915 10.3569C16.8679 10.5422 16.7002 10.6349 16.5884 10.6349C16.5085 10.6349 16.4686 10.5886 16.4686 10.4959C16.4686 10.3978 16.4978 10.2643 16.5564 10.0954C16.615 9.92098 16.6735 9.73025 16.7321 9.52316C16.7907 9.31063 16.82 9.09537 16.82 8.87738C16.82 8.46867 16.6656 8.14442 16.3567 7.90463C16.0532 7.6594 15.6433 7.53679 15.1268 7.53679C14.0619 7.53679 13.0556 7.71935 12.1078 8.08447C11.1654 8.44959 10.3055 8.93461 9.52812 9.53951C8.75607 10.139 8.09052 10.8011 7.53145 11.5259C6.97238 12.2507 6.53844 12.9809 6.22962 13.7166C5.92612 14.4523 5.77438 15.1281 5.77438 15.7439C5.77438 16.4033 5.95807 16.9428 6.32546 17.3624C6.69285 17.7875 7.25191 18 8.00266 18ZM0.638935 15.0082H23.3531C23.5288 15.0082 23.6805 14.9428 23.8083 14.812C23.9361 14.6812 24 14.5259 24 14.346C24 14.1662 23.9361 14.0109 23.8083 13.8801C23.6805 13.7548 23.5288 13.6921 23.3531 13.6921H0.638935C0.463228 13.6921 0.311481 13.7548 0.183694 13.8801C0.0612313 14.0109 0 14.1662 0 14.346C0 14.5259 0.0612313 14.6812 0.183694 14.812C0.311481 14.9428 0.463228 15.0082 0.638935 15.0082ZM0.415308 11.8202C0.516473 11.9292 0.636273 11.9837 0.774709 11.9837C0.918469 11.9782 1.04093 11.9237 1.1421 11.8202L3.87354 9.0327C3.98003 8.92916 4.03328 8.80654 4.03328 8.66485C4.03328 8.51771 3.98003 8.39237 3.87354 8.28883C3.77238 8.17984 3.64992 8.12807 3.50616 8.13352C3.36772 8.13352 3.24792 8.18529 3.14676 8.28883L0.415308 11.0681C0.308819 11.1771 0.255574 11.3025 0.255574 11.4441C0.255574 11.5858 0.308819 11.7112 0.415308 11.8202ZM3.14676 11.8202C3.24792 11.9292 3.36772 11.9837 3.50616 11.9837C3.64992 11.9837 3.77238 11.9292 3.87354 11.8202C3.98003 11.7112 4.03328 11.5858 4.03328 11.4441C4.03328 11.297 3.98003 11.1717 3.87354 11.0681L1.1421 8.28883C1.04093 8.17984 0.918469 8.12534 0.774709 8.12534C0.636273 8.12534 0.516473 8.17984 0.415308 8.28883C0.308819 8.39237 0.255574 8.51771 0.255574 8.66485C0.255574 8.80654 0.308819 8.92916 0.415308 9.0327L3.14676 11.8202Z"
		fill="currentColor"
	/>
</svg>
