<svg
	color="rgb(var(--foreground, 0, 0, 0))"
	viewBox="0 0 13 12"
	fill="none"
	xmlns="http://www.w3.org/2000/svg"
>
	<path
		d="M6.49606 12C7.36745 12 8.12336 11.857 8.76378 11.5709C9.4042 11.2794 9.90026 10.8718 10.252 10.3482C10.6089 9.81916 10.7874 9.20378 10.7874 8.50202C10.7874 7.65992 10.5223 6.99595 9.99213 6.51012C9.46719 6.02429 8.62205 5.64103 7.45669 5.36032L6.17323 5.04453C5.37008 4.8448 4.79003 4.60729 4.43307 4.33198C4.07612 4.05668 3.89764 3.69501 3.89764 3.24696C3.89764 2.8691 4.00787 2.53441 4.22835 2.24291C4.45407 1.95142 4.76115 1.7247 5.14961 1.56275C5.53806 1.39541 5.98425 1.31174 6.48819 1.31174C6.93963 1.31174 7.34383 1.37922 7.70079 1.51417C8.06299 1.64912 8.37008 1.84885 8.62205 2.11336C8.87402 2.37247 9.06562 2.68826 9.19685 3.06073C9.32283 3.36302 9.53281 3.51417 9.82677 3.51417C10.0315 3.51417 10.1916 3.45749 10.3071 3.34413C10.4278 3.22537 10.4882 3.06613 10.4882 2.8664C10.4882 2.80702 10.4829 2.74764 10.4724 2.68826C10.4672 2.62348 10.4567 2.5587 10.4409 2.49393C10.3202 2.0027 10.0761 1.57085 9.70866 1.19838C9.34121 0.825911 8.87926 0.534413 8.32283 0.323887C7.77165 0.107962 7.1601 0 6.48819 0C5.69554 0 4.99213 0.14305 4.37795 0.42915C3.76378 0.71525 3.28084 1.11201 2.92913 1.61943C2.58268 2.12146 2.40945 2.69906 2.40945 3.35223C2.40945 4.15115 2.66142 4.79352 3.16535 5.27935C3.66929 5.76518 4.45669 6.13765 5.52756 6.39676L6.97638 6.75304C7.79528 6.95816 8.38583 7.20918 8.74803 7.50607C9.11549 7.80297 9.29921 8.19433 9.29921 8.68016C9.29921 9.06883 9.17848 9.41431 8.93701 9.7166C8.70079 10.0189 8.37008 10.2591 7.94488 10.4372C7.52493 10.61 7.04199 10.6964 6.49606 10.6964C6.00787 10.6964 5.56693 10.6235 5.17323 10.4777C4.77953 10.332 4.44357 10.1215 4.16535 9.84615C3.88714 9.57085 3.67979 9.24157 3.54331 8.8583C3.46982 8.68016 3.3832 8.55331 3.28346 8.47773C3.18898 8.39676 3.06037 8.35628 2.89764 8.35628C2.68766 8.35628 2.51969 8.41835 2.3937 8.54251C2.27297 8.66667 2.2126 8.83401 2.2126 9.04453C2.2126 9.20108 2.2336 9.35223 2.27559 9.49798C2.41207 10.0108 2.67717 10.4534 3.07087 10.8259C3.46457 11.1984 3.95276 11.4872 4.53543 11.6923C5.12336 11.8974 5.7769 12 6.49606 12ZM0.322835 6.21862H12.6772C12.7664 6.21862 12.8425 6.18623 12.9055 6.12146C12.9685 6.05668 13 5.97841 13 5.88664C13 5.79487 12.9685 5.7166 12.9055 5.65182C12.8425 5.58704 12.7664 5.55466 12.6772 5.55466H0.322835C0.233596 5.55466 0.15748 5.58704 0.0944882 5.65182C0.0314961 5.7166 0 5.79487 0 5.88664C0 5.97841 0.0314961 6.05668 0.0944882 6.12146C0.15748 6.18623 0.233596 6.21862 0.322835 6.21862Z"
		fill="currentColor"
	/>
</svg>
