<svg
	color="rgb(var(--foreground, 0, 0, 0))"
	viewBox="0 0 14 14"
	fill="none"
	xmlns="http://www.w3.org/2000/svg"
>
	<path
		d="M13.4173 14C13.5958 14 13.7375 13.946 13.8425 13.8382C13.9475 13.7303 14 13.5927 14 13.4254V7.89017C14 7.69056 13.9423 7.5341 13.8268 7.42081C13.7165 7.30212 13.5643 7.24277 13.3701 7.24277C13.1969 7.24277 13.0577 7.27245 12.9528 7.33179C12.8478 7.39114 12.7375 7.46127 12.622 7.5422L11.3622 8.42428C11.252 8.5052 11.1706 8.58343 11.1181 8.65896C11.0709 8.7291 11.0472 8.81002 11.0472 8.90173C11.0472 9.03661 11.0892 9.1499 11.1732 9.24162C11.2625 9.32794 11.3675 9.3711 11.4882 9.3711C11.5669 9.3711 11.6352 9.36031 11.6929 9.33873C11.7559 9.31175 11.8268 9.26859 11.9055 9.20925L12.8189 8.57804H12.8425V13.4254C12.8425 13.5927 12.895 13.7303 13 13.8382C13.1102 13.946 13.2493 14 13.4173 14ZM0.661417 11.9526C0.871391 11.9526 1.03412 11.9067 1.14961 11.815C1.26509 11.7233 1.35958 11.5642 1.43307 11.3376L2.44882 8.48093H7.09449L8.11024 11.3376C8.18373 11.5642 8.27822 11.7233 8.3937 11.815C8.50919 11.9067 8.66929 11.9526 8.87402 11.9526C9.08399 11.9526 9.24934 11.8933 9.37008 11.7746C9.49606 11.6559 9.55906 11.494 9.55906 11.289C9.55906 11.1649 9.53018 11.0193 9.47244 10.852L5.77953 0.744509C5.68504 0.496339 5.55643 0.310212 5.3937 0.186127C5.23097 0.0620424 5.02362 0 4.77165 0C4.28346 0 3.95276 0.245472 3.77953 0.736416L0.0866142 10.8601C0.0288714 11.0274 0 11.173 0 11.2971C0 11.5021 0.0577428 11.664 0.173228 11.7827C0.293963 11.896 0.456693 11.9526 0.661417 11.9526ZM2.83465 7.25087L4.74803 1.80462H4.7874L6.70079 7.25087H2.83465Z"
		fill="currentColor"
	/>
</svg>
