<svg
	color="rgb(var(--foreground, 0, 0, 0))"
	viewBox="0 0 12 14"
	fill="none"
	xmlns="http://www.w3.org/2000/svg"
>
	<path
		d="M11.4121 7.0195C11.5893 7.0195 11.7315 6.96751 11.8389 6.86353C11.9463 6.75955 12 6.62697 12 6.46581V1.13167C12 0.934113 11.9436 0.780744 11.8309 0.671566C11.7181 0.557189 11.5624 0.5 11.3638 0.5C11.1866 0.5 11.0443 0.528594 10.9369 0.585783C10.8295 0.642971 10.7168 0.710558 10.5987 0.788542L9.31006 1.64637C9.19194 1.71916 9.10872 1.79194 9.0604 1.86473C9.01208 1.93751 8.98792 2.0155 8.98792 2.09868C8.98792 2.22865 9.03087 2.33783 9.11677 2.42621C9.20268 2.5146 9.31006 2.55879 9.43892 2.55879C9.51946 2.55879 9.58926 2.54579 9.64832 2.5198C9.70738 2.4938 9.77718 2.45481 9.85771 2.40282L10.8 1.79454H10.8242V6.46581C10.8242 6.62697 10.8779 6.75955 10.9852 6.86353C11.0926 6.96751 11.2349 7.0195 11.4121 7.0195ZM0.676511 13.5C0.891276 13.5 1.05772 13.4558 1.17584 13.3674C1.29396 13.279 1.39061 13.1257 1.46577 12.9073L2.5047 10.1545H7.25637L8.2953 12.9073C8.37046 13.1257 8.46711 13.279 8.58523 13.3674C8.70335 13.4558 8.86711 13.5 9.07651 13.5C9.29127 13.5 9.4604 13.4428 9.58389 13.3284C9.71275 13.2141 9.77718 13.0581 9.77718 12.8605C9.77718 12.741 9.74765 12.6006 9.68859 12.4394L5.9114 2.69916C5.81476 2.46001 5.68321 2.28064 5.51677 2.16107C5.35033 2.04149 5.13825 1.9817 4.88053 1.9817C4.3812 1.9817 4.04294 2.21826 3.86576 2.69136L0.0885907 12.4472C0.0295302 12.6084 0 12.7488 0 12.8683C0 13.0659 0.0590605 13.2219 0.177181 13.3362C0.300672 13.4454 0.467115 13.5 0.676511 13.5ZM2.89932 8.96911L4.85637 3.72076H4.89663L6.85368 8.96911H2.89932Z"
		fill="currentColor"
	/>
</svg>
