<svg
	color="rgb(var(--foreground, 0, 0, 0))"
	viewBox="0 0 16 14"
	fill="none"
	xmlns="http://www.w3.org/2000/svg"
>
	<path
		d="M0.595534 1.22764H15.3886C15.558 1.22764 15.7009 1.16802 15.8174 1.04878C15.9391 0.929539 16 0.783198 16 0.609756C16 0.441734 15.9391 0.298103 15.8174 0.178862C15.7009 0.0596206 15.558 0 15.3886 0H0.595534C0.431431 0 0.29115 0.0596206 0.17469 0.178862C0.05823 0.298103 0 0.441734 0 0.609756C0 0.783198 0.05823 0.929539 0.17469 1.04878C0.29115 1.16802 0.431431 1.22764 0.595534 1.22764ZM0.595534 5.4878H9.52854C9.69794 5.4878 9.84087 5.42818 9.95733 5.30894C10.0738 5.1897 10.132 5.04336 10.132 4.86992C10.132 4.69648 10.0738 4.55285 9.95733 4.43902C9.84087 4.31978 9.69794 4.26016 9.52854 4.26016H0.595534C0.431431 4.26016 0.29115 4.31978 0.17469 4.43902C0.05823 4.55285 0 4.69648 0 4.86992C0 5.04336 0.05823 5.1897 0.17469 5.30894C0.29115 5.42818 0.431431 5.4878 0.595534 5.4878ZM0.595534 9.74797H15.3886C15.558 9.74797 15.7009 9.68835 15.8174 9.56911C15.9391 9.44986 16 9.30352 16 9.13008C16 8.95664 15.9391 8.81301 15.8174 8.69919C15.7009 8.57995 15.558 8.52032 15.3886 8.52032H0.595534C0.431431 8.52032 0.29115 8.57995 0.17469 8.69919C0.05823 8.81301 0 8.95664 0 9.13008C0 9.30352 0.05823 9.44986 0.17469 9.56911C0.29115 9.68835 0.431431 9.74797 0.595534 9.74797ZM0.595534 14H9.52854C9.69794 14 9.84087 13.9404 9.95733 13.8211C10.0738 13.7073 10.132 13.5637 10.132 13.3902C10.132 13.2168 10.0738 13.0705 9.95733 12.9512C9.84087 12.832 9.69794 12.7724 9.52854 12.7724H0.595534C0.431431 12.7724 0.29115 12.832 0.17469 12.9512C0.05823 13.0705 0 13.2168 0 13.3902C0 13.5637 0.05823 13.7073 0.17469 13.8211C0.29115 13.9404 0.431431 14 0.595534 14Z"
		fill="currentColor"
	/>
</svg>
