<svg
	color="rgb(var(--foreground, 0, 0, 0))"
	viewBox="0 0 19 14"
	fill="none"
	xmlns="http://www.w3.org/2000/svg"
>
	<path
		d="M2.80709 14H16.1929C17.0023 14 17.6081 13.8023 18.0102 13.4068C18.4174 13.0165 18.6211 12.4284 18.6211 11.6426V9.39924C18.6211 9.20152 18.5669 9.04943 18.4587 8.94297C18.3504 8.8365 18.1958 8.78327 17.9947 8.78327C17.7936 8.78327 17.639 8.8365 17.5307 8.94297C17.4276 9.04943 17.3761 9.20152 17.3761 9.39924V11.5817C17.3761 11.9772 17.2704 12.2763 17.059 12.4791C16.8528 12.6768 16.5589 12.7757 16.1774 12.7757H2.83029C2.44364 12.7757 2.14721 12.6768 1.94099 12.4791C1.73478 12.2763 1.63167 11.9772 1.63167 11.5817V9.39924C1.63167 9.20152 1.57496 9.04943 1.46154 8.94297C1.35328 8.8365 1.2012 8.78327 1.00529 8.78327C0.809391 8.78327 0.657308 8.8365 0.549045 8.94297C0.440783 9.04943 0.386652 9.20152 0.386652 9.39924V11.6426C0.386652 12.4284 0.58771 13.0165 0.989828 13.4068C1.3971 13.8023 2.00286 14 2.80709 14ZM2.80709 0C2.00286 0 1.3971 0.197719 0.989828 0.593156C0.58771 0.983523 0.386652 1.57161 0.386652 2.35741V4.22053C0.386652 4.41825 0.440783 4.57288 0.549045 4.68441C0.657308 4.79088 0.809391 4.84411 1.00529 4.84411C1.2012 4.84411 1.35328 4.79088 1.46154 4.68441C1.57496 4.57288 1.63167 4.41825 1.63167 4.22053V2.41825C1.63167 2.02281 1.73478 1.72624 1.94099 1.52852C2.14721 1.32573 2.44364 1.22433 2.83029 1.22433H16.1774C16.5589 1.22433 16.8528 1.32573 17.059 1.52852C17.2704 1.72624 17.3761 2.02281 17.3761 2.41825V4.22053C17.3761 4.41825 17.4302 4.57288 17.5385 4.68441C17.6467 4.79088 17.7988 4.84411 17.9947 4.84411C18.2009 4.84411 18.3556 4.79088 18.4587 4.68441C18.5669 4.57288 18.6211 4.41825 18.6211 4.22053V2.35741C18.6211 1.57161 18.4174 0.983523 18.0102 0.593156C17.6081 0.197719 17.0023 0 16.1929 0H2.80709ZM1.00529 7.79468C1.28368 7.79468 1.52083 7.69835 1.71673 7.5057C1.91264 7.30799 2.01059 7.07224 2.01059 6.79848C2.01059 6.52979 1.91264 6.29911 1.71673 6.10646C1.52083 5.91382 1.28368 5.81749 1.00529 5.81749C0.73206 5.81749 0.494914 5.91382 0.293855 6.10646C0.0979517 6.29911 0 6.52979 0 6.79848C0 7.07224 0.0979517 7.30799 0.293855 7.5057C0.494914 7.69835 0.73206 7.79468 1.00529 7.79468ZM17.9947 7.79468C18.2731 7.79468 18.5102 7.69835 18.7061 7.5057C18.902 7.30799 19 7.07224 19 6.79848C19 6.52979 18.902 6.29911 18.7061 6.10646C18.5102 5.91382 18.2731 5.81749 17.9947 5.81749C17.7163 5.81749 17.4792 5.91382 17.2833 6.10646C17.0874 6.29404 16.9894 6.52472 16.9894 6.79848C16.9894 7.07224 17.0874 7.30799 17.2833 7.5057C17.4792 7.69835 17.7163 7.79468 17.9947 7.79468ZM6.95973 10.5703C7.09892 10.5703 7.21744 10.5349 7.31539 10.4639C7.41334 10.3878 7.49325 10.2611 7.55511 10.0837L8.11962 8.46388H10.8803L11.4526 10.0837C11.5608 10.4081 11.7593 10.5703 12.048 10.5703C12.2181 10.5703 12.3547 10.5222 12.4579 10.4259C12.561 10.3245 12.6125 10.1977 12.6125 10.0456C12.6125 9.93916 12.5867 9.80735 12.5352 9.65019L10.3622 3.90875C10.2127 3.50824 9.924 3.30798 9.4961 3.30798C9.07336 3.30798 8.78724 3.50824 8.63774 3.90875L6.47255 9.65019C6.41584 9.80735 6.38748 9.93916 6.38748 10.0456C6.38748 10.2028 6.43904 10.3295 6.54215 10.4259C6.64525 10.5222 6.78445 10.5703 6.95973 10.5703ZM8.42894 7.55133L9.45744 4.60837H9.5425L10.571 7.55133H8.42894Z"
		fill="currentColor"
	/>
</svg>
