<svg
	color="rgb(var(--foreground, 0, 0, 0))"
	viewBox="0 0 16 14"
	fill="none"
	xmlns="http://www.w3.org/2000/svg"
>
	<path
		d="M0.595534 1.22764H15.3886C15.558 1.22764 15.7009 1.16802 15.8174 1.04878C15.9391 0.929539 16 0.783198 16 0.609756C16 0.441734 15.9391 0.298103 15.8174 0.178862C15.7009 0.0596206 15.558 0 15.3886 0H0.595534C0.431431 0 0.29115 0.0596206 0.17469 0.178862C0.05823 0.298103 0 0.441734 0 0.609756C0 0.783198 0.05823 0.929539 0.17469 1.04878C0.29115 1.16802 0.431431 1.22764 0.595534 1.22764ZM3.5335 5.4878H12.4586C12.628 5.4878 12.7709 5.42818 12.8874 5.30894C13.0038 5.1897 13.062 5.04336 13.062 4.86992C13.062 4.69648 13.0038 4.55285 12.8874 4.43902C12.7709 4.31978 12.628 4.26016 12.4586 4.26016H3.5335C3.36411 4.26016 3.22118 4.31978 3.10472 4.43902C2.98826 4.55285 2.93003 4.69648 2.93003 4.86992C2.93003 5.04336 2.98826 5.1897 3.10472 5.30894C3.22118 5.42818 3.36411 5.4878 3.5335 5.4878ZM0.595534 9.74797H15.3886C15.558 9.74797 15.7009 9.68835 15.8174 9.56911C15.9391 9.44986 16 9.30352 16 9.13008C16 8.95664 15.9391 8.81301 15.8174 8.69919C15.7009 8.57995 15.558 8.52032 15.3886 8.52032H0.595534C0.431431 8.52032 0.29115 8.57995 0.17469 8.69919C0.05823 8.81301 0 8.95664 0 9.13008C0 9.30352 0.05823 9.44986 0.17469 9.56911C0.29115 9.68835 0.431431 9.74797 0.595534 9.74797ZM3.5335 14H12.4586C12.628 14 12.7709 13.9404 12.8874 13.8211C13.0038 13.7073 13.062 13.5637 13.062 13.3902C13.062 13.2168 13.0038 13.0705 12.8874 12.9512C12.7709 12.832 12.628 12.7724 12.4586 12.7724H3.5335C3.36411 12.7724 3.22118 12.832 3.10472 12.9512C2.98826 13.0705 2.93003 13.2168 2.93003 13.3902C2.93003 13.5637 2.98826 13.7073 3.10472 13.8211C3.22118 13.9404 3.36411 14 3.5335 14Z"
		fill="currentColor"
	/>
</svg>
