<svg
	color="rgb(var(--foreground, 0, 0, 0))"
	viewBox="0 0 16 14"
	fill="none"
	xmlns="http://www.w3.org/2000/svg"
>
	<path
		d="M0.595533 1.22764H15.3886C15.558 1.22764 15.7009 1.16802 15.8174 1.04878C15.9391 0.929539 16 0.783198 16 0.609756C16 0.441734 15.9391 0.298103 15.8174 0.178862C15.7009 0.0596206 15.558 0 15.3886 0H0.595533C0.431431 0 0.29115 0.0596206 0.17469 0.178862C0.0582299 0.298103 0 0.441734 0 0.609756C0 0.783198 0.0582299 0.929539 0.17469 1.04878C0.29115 1.16802 0.431431 1.22764 0.595533 1.22764ZM0.595533 5.48781H15.3886C15.558 5.48781 15.7009 5.42818 15.8174 5.30894C15.9391 5.1897 16 5.04336 16 4.86992C16 4.69648 15.9391 4.55285 15.8174 4.43902C15.7009 4.31978 15.558 4.26016 15.3886 4.26016H0.595533C0.431431 4.26016 0.29115 4.31978 0.17469 4.43902C0.0582299 4.55285 0 4.69648 0 4.86992C0 5.04336 0.0582299 5.1897 0.17469 5.30894C0.29115 5.42818 0.431431 5.48781 0.595533 5.48781ZM0.595533 9.74797H15.3886C15.558 9.74797 15.7009 9.68835 15.8174 9.56911C15.9391 9.44987 16 9.30352 16 9.13008C16 8.95664 15.9391 8.81301 15.8174 8.69919C15.7009 8.57995 15.558 8.52033 15.3886 8.52033H0.595533C0.431431 8.52033 0.29115 8.57995 0.17469 8.69919C0.0582299 8.81301 0 8.95664 0 9.13008C0 9.30352 0.0582299 9.44987 0.17469 9.56911C0.29115 9.68835 0.431431 9.74797 0.595533 9.74797ZM6.90025 14H15.3886C15.558 14 15.7009 13.9404 15.8174 13.8211C15.9391 13.7073 16 13.5637 16 13.3902C16 13.2168 15.9391 13.0705 15.8174 12.9512C15.7009 12.832 15.558 12.7724 15.3886 12.7724H6.90025C6.73085 12.7724 6.58793 12.832 6.47147 12.9512C6.3603 13.0705 6.30472 13.2168 6.30472 13.3902C6.30472 13.5637 6.3603 13.7073 6.47147 13.8211C6.58793 13.9404 6.73085 14 6.90025 14Z"
		fill="currentColor"
	/>
</svg>
