<svg
	color="rgb(var(--foreground, 0, 0, 0))"
	viewBox="0 0 9 14"
	fill="none"
	xmlns="http://www.w3.org/2000/svg"
>
	<path
		d="M4.49614 11.2691C5.42318 11.2691 6.22403 11.1069 6.89871 10.7823C7.57339 10.4577 8.09099 10.0072 8.4515 9.43069C8.81717 8.84936 9 8.1784 9 7.41783V1.1758C9 0.972331 8.93305 0.810043 8.79914 0.688932C8.67039 0.562977 8.49528 0.5 8.27382 0.5C8.05751 0.5 7.88498 0.562977 7.75622 0.688932C7.63262 0.810043 7.57082 0.972331 7.57082 1.1758V7.30883C7.57082 8.11785 7.30043 8.77427 6.75966 9.27809C6.21888 9.78191 5.46438 10.0338 4.49614 10.0338C3.85236 10.0338 3.30129 9.91997 2.84292 9.69229C2.38455 9.45975 2.03433 9.14002 1.79227 8.73309C1.55021 8.32616 1.42918 7.85141 1.42918 7.30883V1.1758C1.42918 0.972331 1.36223 0.810043 1.22833 0.688932C1.09957 0.562977 0.924464 0.5 0.703004 0.5C0.486695 0.5 0.314163 0.562977 0.185408 0.688932C0.0618026 0.810043 0 0.972331 0 1.1758V7.41783C0 8.1784 0.180257 8.84936 0.540772 9.43069C0.906438 10.0072 1.42403 10.4577 2.09356 10.7823C2.76824 11.1069 3.5691 11.2691 4.49614 11.2691ZM0.455794 13.5H8.53648C8.66524 13.5 8.77339 13.4588 8.86094 13.3765C8.95365 13.2941 9 13.1924 9 13.0713C9 12.9453 8.95365 12.8412 8.86094 12.7588C8.77339 12.6764 8.66524 12.6353 8.53648 12.6353H0.455794C0.332189 12.6353 0.224034 12.6764 0.13133 12.7588C0.0437768 12.8412 0 12.9453 0 13.0713C0 13.1924 0.0437768 13.2941 0.13133 13.3765C0.224034 13.4588 0.332189 13.5 0.455794 13.5Z"
		fill="currentColor"
	/>
</svg>
