<svg
	color="rgb(var(--foreground, 0, 0, 0))"
	viewBox="0 0 18 14"
	fill="none"
	xmlns="http://www.w3.org/2000/svg"
>
	<path
		d="M0.808195 10.8958C1.34176 10.8958 1.60854 10.6306 1.60854 10.1003V3.89972C1.60854 3.36936 1.34176 3.10418 0.808195 3.10418C0.269398 3.10418 0 3.36936 0 3.89972V10.1003C0 10.6306 0.269398 10.8958 0.808195 10.8958ZM4.9041 8.93036C5.43766 8.93036 5.70445 8.66258 5.70445 8.12702V5.87298C5.70445 5.33742 5.43766 5.06964 4.9041 5.06964C4.37053 5.06964 4.10375 5.33742 4.10375 5.87298V8.12702C4.10375 8.66258 4.37053 8.93036 4.9041 8.93036ZM9 14C9.5388 14 9.8082 13.7348 9.8082 13.2045V0.795543C9.8082 0.265181 9.5388 0 9 0C8.4612 0 8.1918 0.265181 8.1918 0.795543V13.2045C8.1918 13.7348 8.4612 14 9 14ZM13.0959 8.93036C13.6295 8.93036 13.8963 8.66258 13.8963 8.12702V5.87298C13.8963 5.33742 13.6295 5.06964 13.0959 5.06964C12.5623 5.06964 12.2956 5.33742 12.2956 5.87298V8.12702C12.2956 8.66258 12.5623 8.93036 13.0959 8.93036ZM17.1918 10.8958C17.7306 10.8958 18 10.6306 18 10.1003V3.89972C18 3.36936 17.7306 3.10418 17.1918 3.10418C16.6582 3.10418 16.3915 3.36936 16.3915 3.89972V10.1003C16.3915 10.6306 16.6582 10.8958 17.1918 10.8958Z"
		fill="currentColor"
	/>
</svg>
