<svg
	color="rgb(var(--foreground, 0, 0, 0))"
	viewBox="0 0 16 14"
	fill="none"
	xmlns="http://www.w3.org/2000/svg"
>
	<path
		d="M0.595533 1.22764H9.5206C9.68999 1.22764 9.83292 1.16802 9.94938 1.04878C10.0658 0.929539 10.1241 0.783198 10.1241 0.609756C10.1241 0.441734 10.0658 0.298103 9.94938 0.178862C9.83292 0.0596206 9.68999 0 9.5206 0H0.595533C0.431431 0 0.29115 0.0596206 0.17469 0.178862C0.0582299 0.298103 0 0.441734 0 0.609756C0 0.783198 0.0582299 0.929539 0.17469 1.04878C0.29115 1.16802 0.431431 1.22764 0.595533 1.22764ZM11.8948 1.22764H15.3886C15.558 1.22764 15.7009 1.16802 15.8174 1.04878C15.9391 0.929539 16 0.783198 16 0.609756C16 0.441734 15.9391 0.298103 15.8174 0.178862C15.7009 0.0596206 15.558 0 15.3886 0H11.8948C11.7307 0 11.5904 0.0596206 11.4739 0.178862C11.3575 0.298103 11.2993 0.441734 11.2993 0.609756C11.2993 0.783198 11.3575 0.929539 11.4739 1.04878C11.5904 1.16802 11.7307 1.22764 11.8948 1.22764ZM0.603474 5.48781H2.27891C2.4483 5.48781 2.59123 5.42818 2.70769 5.30894C2.82415 5.1897 2.88238 5.04336 2.88238 4.86992C2.88238 4.69648 2.82415 4.55285 2.70769 4.43902C2.59123 4.31978 2.4483 4.26016 2.27891 4.26016H0.603474C0.439371 4.26016 0.296443 4.31978 0.17469 4.43902C0.0582299 4.55285 0 4.69648 0 4.86992C0 5.04336 0.0582299 5.1897 0.17469 5.30894C0.296443 5.42818 0.439371 5.48781 0.603474 5.48781ZM4.66104 5.48781H8.83772C9.00711 5.48781 9.15004 5.42818 9.2665 5.30894C9.38296 5.1897 9.44119 5.04336 9.44119 4.86992C9.44119 4.69648 9.38296 4.55285 9.2665 4.43902C9.15004 4.31978 9.00711 4.26016 8.83772 4.26016H4.66104C4.49165 4.26016 4.34872 4.31978 4.23226 4.43902C4.1158 4.55285 4.05757 4.69648 4.05757 4.86992C4.05757 5.04336 4.1158 5.1897 4.23226 5.30894C4.34872 5.42818 4.49165 5.48781 4.66104 5.48781ZM11.2199 5.48781H15.3965C15.5659 5.48781 15.7089 5.42818 15.8253 5.30894C15.9418 5.1897 16 5.04336 16 4.86992C16 4.69648 15.9418 4.55285 15.8253 4.43902C15.7089 4.31978 15.5659 4.26016 15.3965 4.26016H11.2199C11.0505 4.26016 10.9049 4.31978 10.7831 4.43902C10.6667 4.55285 10.6084 4.69648 10.6084 4.86992C10.6084 5.04336 10.6667 5.1897 10.7831 5.30894C10.9049 5.42818 11.0505 5.48781 11.2199 5.48781ZM0.603474 9.74797H4.09727C4.26667 9.74797 4.40959 9.68835 4.52605 9.56911C4.64251 9.44987 4.70074 9.30352 4.70074 9.13008C4.70074 8.95664 4.64251 8.81301 4.52605 8.69919C4.40959 8.57995 4.26667 8.52033 4.09727 8.52033H0.603474C0.439371 8.52033 0.296443 8.57995 0.17469 8.69919C0.0582299 8.81301 0 8.95664 0 9.13008C0 9.30352 0.0582299 9.44987 0.17469 9.56911C0.296443 9.68835 0.439371 9.74797 0.603474 9.74797ZM6.47941 9.74797H15.3965C15.5659 9.74797 15.7089 9.68835 15.8253 9.56911C15.9418 9.44987 16 9.30352 16 9.13008C16 8.95664 15.9418 8.81301 15.8253 8.69919C15.7089 8.57995 15.5659 8.52033 15.3965 8.52033H6.47941C6.31001 8.52033 6.16443 8.57995 6.04268 8.69919C5.92622 8.81301 5.86799 8.95664 5.86799 9.13008C5.86799 9.30352 5.92622 9.44987 6.04268 9.56911C6.16443 9.68835 6.31001 9.74797 6.47941 9.74797ZM0.595533 14H9.09181C9.25592 14 9.3962 13.9404 9.51266 13.8211C9.63441 13.7073 9.69529 13.5637 9.69529 13.3902C9.69529 13.2168 9.63441 13.0705 9.51266 12.9512C9.3962 12.832 9.25592 12.7724 9.09181 12.7724H0.595533C0.431431 12.7724 0.29115 12.832 0.17469 12.9512C0.0582299 13.0705 0 13.2168 0 13.3902C0 13.5637 0.0582299 13.7073 0.17469 13.8211C0.29115 13.9404 0.431431 14 0.595533 14Z"
		fill="currentColor"
	/>
</svg>
