<svg color="rgb(var(--foreground, 0, 0, 0))" viewBox="0 0 18 19" fill="none">
	<path
		d="M0.583481 18.5C0.743339 18.5 0.881883 18.4482 0.999112 18.3447C1.11634 18.2412 1.17496 18.1143 1.17496 17.9642V1.03581C1.17496 0.885677 1.11634 0.758844 0.999112 0.655306C0.881883 0.551769 0.743339 0.5 0.583481 0.5C0.428952 0.5 0.293073 0.551769 0.175844 0.655306C0.0586146 0.758844 0 0.885677 0 1.03581V17.9642C0 18.1143 0.0586146 18.2412 0.175844 18.3447C0.293073 18.4482 0.428952 18.5 0.583481 18.5ZM4.47602 8.75453H10.5107C11.1021 8.75453 11.5551 8.6044 11.8694 8.30414C12.1838 8.00388 12.341 7.57161 12.341 7.00733V4.305C12.341 3.74072 12.1838 3.30846 11.8694 3.0082C11.5551 2.70794 11.1021 2.55781 10.5107 2.55781H4.47602C3.88455 2.55781 3.43162 2.70794 3.11723 3.0082C2.80284 3.30846 2.64565 3.74072 2.64565 4.305V7.00733C2.64565 7.57161 2.80284 8.00388 3.11723 8.30414C3.43162 8.6044 3.88455 8.75453 4.47602 8.75453ZM4.5 7.58197C4.29218 7.58197 4.13233 7.52761 4.02043 7.4189C3.90853 7.305 3.85258 7.14452 3.85258 6.93745V4.36713C3.85258 4.16005 3.90853 4.00216 4.02043 3.89344C4.13233 3.78473 4.29218 3.73037 4.5 3.73037H10.4867C10.6945 3.73037 10.8544 3.78473 10.9663 3.89344C11.0782 4.00216 11.1341 4.16005 11.1341 4.36713V6.93745C11.1341 7.14452 11.0782 7.305 10.9663 7.4189C10.8544 7.52761 10.6945 7.58197 10.4867 7.58197H4.5ZM4.47602 16.45H16.1696C16.7664 16.45 17.2194 16.2998 17.5284 15.9996C17.8428 15.7045 18 15.2722 18 14.7028V12.0004C18 11.4362 17.8428 11.0039 17.5284 10.7036C17.2194 10.4034 16.7664 10.2532 16.1696 10.2532H4.47602C3.88455 10.2532 3.43162 10.4034 3.11723 10.7036C2.80284 11.0039 2.64565 11.4362 2.64565 12.0004V14.7028C2.64565 15.2722 2.80284 15.7045 3.11723 15.9996C3.43162 16.2998 3.88455 16.45 4.47602 16.45ZM4.5 15.2774C4.29218 15.2774 4.13233 15.223 4.02043 15.1143C3.90853 15.0056 3.85258 14.8477 3.85258 14.6406V12.0703C3.85258 11.8632 3.90853 11.7053 4.02043 11.5966C4.13233 11.4827 4.29218 11.4258 4.5 11.4258H16.1456C16.3535 11.4258 16.5133 11.4827 16.6252 11.5966C16.7371 11.7053 16.7931 11.8632 16.7931 12.0703V14.6406C16.7931 14.8477 16.7371 15.0056 16.6252 15.1143C16.5133 15.223 16.3535 15.2774 16.1456 15.2774H4.5Z"
		fill="currentColor"
	/>
</svg>
