<svg color="rgb(var(--foreground, 0, 0, 0))" viewBox="0 0 15 19" fill="none">
	<path
		d="M6.92608 2.9849H8.07392V1.03581C8.07392 0.885677 8.01666 0.758844 7.90213 0.655306C7.78761 0.551769 7.65226 0.5 7.4961 0.5C7.34513 0.5 7.21239 0.551769 7.09787 0.655306C6.98334 0.758844 6.92608 0.885677 6.92608 1.03581V2.9849ZM4.55232 8.75453H10.4477C11.0255 8.75453 11.468 8.6044 11.7751 8.30414C12.0822 8.00388 12.2358 7.57161 12.2358 7.00733V4.305C12.2358 3.74072 12.0822 3.30846 11.7751 3.0082C11.468 2.70794 11.0255 2.55781 10.4477 2.55781H4.55232C3.97449 2.55781 3.53201 2.70794 3.22488 3.0082C2.91775 3.30846 2.76419 3.74072 2.76419 4.305V7.00733C2.76419 7.57161 2.91775 8.00388 3.22488 8.30414C3.53201 8.6044 3.97449 8.75453 4.55232 8.75453ZM4.57574 7.58197C4.37272 7.58197 4.21655 7.52761 4.10724 7.4189C3.99792 7.305 3.94326 7.14452 3.94326 6.93745V4.36713C3.94326 4.16005 3.99792 4.00216 4.10724 3.89344C4.21655 3.78473 4.37272 3.73037 4.57574 3.73037H10.4243C10.6273 3.73037 10.7834 3.78473 10.8928 3.89344C11.0021 4.00216 11.0567 4.16005 11.0567 4.36713V6.93745C11.0567 7.14452 11.0021 7.305 10.8928 7.4189C10.7834 7.52761 10.6273 7.58197 10.4243 7.58197H4.57574ZM6.92608 10.9288H8.07392V8.22649H6.92608V10.9288ZM1.78813 16.45H13.2119C13.7897 16.45 14.2322 16.2998 14.5393 15.9996C14.8464 15.7045 15 15.2722 15 14.7028V12.0004C15 11.4362 14.8464 11.0039 14.5393 10.7036C14.2322 10.4034 13.7897 10.2532 13.2119 10.2532H1.78813C1.21031 10.2532 0.767829 10.4034 0.460698 10.7036C0.153566 11.0039 0 11.4362 0 12.0004V14.7028C0 15.2722 0.153566 15.7045 0.460698 15.9996C0.767829 16.2998 1.21031 16.45 1.78813 16.45ZM1.81156 15.2774C1.60854 15.2774 1.45237 15.223 1.34305 15.1143C1.23373 15.0056 1.17907 14.8477 1.17907 14.6406V12.0703C1.17907 11.8632 1.23373 11.7053 1.34305 11.5966C1.45237 11.4827 1.60854 11.4258 1.81156 11.4258H13.1884C13.3915 11.4258 13.5476 11.4827 13.6569 11.5966C13.7663 11.7053 13.8209 11.8632 13.8209 12.0703V14.6406C13.8209 14.8477 13.7663 15.0056 13.6569 15.1143C13.5476 15.223 13.3915 15.2774 13.1884 15.2774H1.81156ZM7.4961 18.5C7.65226 18.5 7.78761 18.4482 7.90213 18.3447C8.01666 18.2412 8.07392 18.1143 8.07392 17.9642V16.0229H6.92608V17.9642C6.92608 18.1143 6.98334 18.2412 7.09787 18.3447C7.21239 18.4482 7.34513 18.5 7.4961 18.5Z"
		fill="currentColor"
	/>
</svg>
