<svg color="rgb(var(--foreground, 0, 0, 0))" viewBox="0 0 18 19" fill="none">
	<path
		d="M17.4165 18.5C17.571 18.5 17.7069 18.4482 17.8242 18.3447C17.9414 18.2412 18 18.1143 18 17.9642V1.03581C18 0.885677 17.9414 0.758844 17.8242 0.655306C17.7069 0.551769 17.571 0.5 17.4165 0.5C17.2567 0.5 17.1181 0.551769 17.0009 0.655306C16.8837 0.758844 16.825 0.885677 16.825 1.03581V17.9642C16.825 18.1143 16.8837 18.2412 17.0009 18.3447C17.1181 18.4482 17.2567 18.5 17.4165 18.5ZM13.524 8.75453C14.1155 8.75453 14.5684 8.6044 14.8828 8.30414C15.1972 8.00388 15.3544 7.57161 15.3544 7.00733V4.305C15.3544 3.74072 15.1972 3.30846 14.8828 3.0082C14.5684 2.70794 14.1155 2.55781 13.524 2.55781H7.48934C6.89787 2.55781 6.44494 2.70794 6.13055 3.0082C5.81616 3.30846 5.65897 3.74072 5.65897 4.305V7.00733C5.65897 7.57161 5.81616 8.00388 6.13055 8.30414C6.44494 8.6044 6.89787 8.75453 7.48934 8.75453H13.524ZM13.524 16.45C14.1155 16.45 14.5684 16.2998 14.8828 15.9996C15.1972 15.7045 15.3544 15.2722 15.3544 14.7028V12.0004C15.3544 11.4362 15.1972 11.0039 14.8828 10.7036C14.5684 10.4034 14.1155 10.2532 13.524 10.2532H1.83037C1.2389 10.2532 0.785968 10.4034 0.471581 10.7036C0.157194 11.0039 0 11.4362 0 12.0004V14.7028C0 15.2722 0.157194 15.7045 0.471581 15.9996C0.785968 16.2998 1.2389 16.45 1.83037 16.45H13.524Z"
		fill="currentColor"
	/>
</svg>
