<svg color="rgb(var(--foreground, 0, 0, 0))" viewBox="0 0 18 19" fill="none">
	<path
		d="M0.583481 18.5C0.743339 18.5 0.881883 18.4482 0.999112 18.3447C1.11634 18.2412 1.17496 18.1143 1.17496 17.9642V1.03581C1.17496 0.885677 1.11634 0.758844 0.999112 0.655306C0.881883 0.551769 0.743339 0.5 0.583481 0.5C0.428952 0.5 0.293073 0.551769 0.175844 0.655306C0.0586146 0.758844 0 0.885677 0 1.03581V17.9642C0 18.1143 0.0586146 18.2412 0.175844 18.3447C0.293073 18.4482 0.428952 18.5 0.583481 18.5ZM4.47602 8.75453H10.5107C11.1021 8.75453 11.5551 8.6044 11.8694 8.30414C12.1838 8.00388 12.341 7.57161 12.341 7.00733V4.305C12.341 3.74072 12.1838 3.30846 11.8694 3.0082C11.5551 2.70794 11.1021 2.55781 10.5107 2.55781H4.47602C3.88455 2.55781 3.43162 2.70794 3.11723 3.0082C2.80284 3.30846 2.64565 3.74072 2.64565 4.305V7.00733C2.64565 7.57161 2.80284 8.00388 3.11723 8.30414C3.43162 8.6044 3.88455 8.75453 4.47602 8.75453ZM4.47602 16.45H16.1696C16.7664 16.45 17.2194 16.2998 17.5284 15.9996C17.8428 15.7045 18 15.2722 18 14.7028V12.0004C18 11.4362 17.8428 11.0039 17.5284 10.7036C17.2194 10.4034 16.7664 10.2532 16.1696 10.2532H4.47602C3.88455 10.2532 3.43162 10.4034 3.11723 10.7036C2.80284 11.0039 2.64565 11.4362 2.64565 12.0004V14.7028C2.64565 15.2722 2.80284 15.7045 3.11723 15.9996C3.43162 16.2998 3.88455 16.45 4.47602 16.45Z"
		fill="currentColor"
	/>
</svg>
