<svg color="rgb(var(--foreground, 0, 0, 0))" viewBox="0 0 18 19" fill="none">
	<path
		d="M3.805 15.8339H6.50733C7.07161 15.8339 7.50388 15.6769 7.80414 15.363C8.1044 15.049 8.25453 14.5967 8.25453 14.006V2.32794C8.25453 1.73725 8.1044 1.28492 7.80414 0.970953C7.50388 0.656984 7.07161 0.5 6.50733 0.5H3.805C3.24072 0.5 2.80846 0.656984 2.5082 0.970953C2.20794 1.28492 2.05781 1.73725 2.05781 2.32794V14.006C2.05781 14.5967 2.20794 15.049 2.5082 15.363C2.80846 15.6769 3.24072 15.8339 3.805 15.8339ZM11.5082 15.8339H14.2105C14.7748 15.8339 15.2071 15.6769 15.5073 15.363C15.8076 15.049 15.9577 14.5967 15.9577 14.006V7.97938C15.9577 7.38869 15.8076 6.93636 15.5073 6.62239C15.2071 6.30843 14.7748 6.15144 14.2105 6.15144H11.5082C10.9387 6.15144 10.5039 6.30843 10.2036 6.62239C9.90337 6.93636 9.75324 7.38869 9.75324 7.97938V14.006C9.75324 14.5967 9.90337 15.049 10.2036 15.363C10.5039 15.6769 10.9387 15.8339 11.5082 15.8339ZM0.543572 18.5H17.4642C17.6143 18.5 17.7412 18.4415 17.8447 18.3244C17.9482 18.2073 18 18.0716 18 17.9173C18 17.7576 17.9482 17.6193 17.8447 17.5022C17.7412 17.3851 17.6143 17.3266 17.4642 17.3266H0.543572C0.388266 17.3266 0.258844 17.3851 0.155306 17.5022C0.0517688 17.6193 0 17.7576 0 17.9173C0 18.0716 0.0517688 18.2073 0.155306 18.3244C0.258844 18.4415 0.388266 18.5 0.543572 18.5Z"
		fill="currentColor"
	/>
</svg>
