<svg color="rgb(var(--foreground, 0, 0, 0))" viewBox="0 0 18 19" fill="none">
	<path
		d="M0.543572 1.67339H17.4642C17.6143 1.67339 17.7412 1.61486 17.8447 1.49778C17.9482 1.38071 18 1.24501 18 1.09069C18 0.931042 17.9482 0.792683 17.8447 0.67561C17.7412 0.558537 17.6143 0.5 17.4642 0.5H0.543572C0.388266 0.5 0.258844 0.558537 0.155306 0.67561C0.0517688 0.792683 0 0.931042 0 1.09069C0 1.24501 0.0517688 1.38071 0.155306 1.49778C0.258844 1.61486 0.388266 1.67339 0.543572 1.67339ZM3.805 18.5H6.50733C7.07161 18.5 7.50388 18.343 7.80414 18.029C8.1044 17.7204 8.25453 17.2681 8.25453 16.6721V4.99401C8.25453 4.40333 8.1044 3.951 7.80414 3.63703C7.50388 3.32306 7.07161 3.16608 6.50733 3.16608H3.805C3.24072 3.16608 2.80846 3.32306 2.5082 3.63703C2.20794 3.951 2.05781 4.40333 2.05781 4.99401V16.6721C2.05781 17.2681 2.20794 17.7204 2.5082 18.029C2.80846 18.343 3.24072 18.5 3.805 18.5ZM11.5082 12.8486H14.2105C14.7748 12.8486 15.2071 12.6916 15.5073 12.3776C15.8076 12.0636 15.9577 11.6113 15.9577 11.0206V4.99401C15.9577 4.40333 15.8076 3.951 15.5073 3.63703C15.2071 3.32306 14.7748 3.16608 14.2105 3.16608H11.5082C10.9387 3.16608 10.5039 3.32306 10.2036 3.63703C9.90337 3.951 9.75324 4.40333 9.75324 4.99401V11.0206C9.75324 11.6113 9.90337 12.0636 10.2036 12.3776C10.5039 12.6916 10.9387 12.8486 11.5082 12.8486Z"
		fill="currentColor"
	/>
</svg>
