<svg color="rgb(var(--foreground, 0, 0, 0))" viewBox="0 0 18 15" fill="none">
	<path
		d="M0.543572 8.06972H2.54702V6.92248H0.543572C0.388266 6.92248 0.258844 6.97971 0.155306 7.09417C0.0517688 7.20864 0 7.34131 0 7.4922C0 7.64308 0.0517688 7.77836 0.155306 7.89802C0.258844 8.01249 0.388266 8.06972 0.543572 8.06972ZM3.805 15H6.50733C7.07161 15 7.50388 14.8439 7.80414 14.5317C8.1044 14.2248 8.25453 13.7799 8.25453 13.1972V1.7872C8.25453 1.20447 8.1044 0.762227 7.80414 0.460458C7.50388 0.153486 7.07161 0 6.50733 0H3.805C3.24072 0 2.80846 0.153486 2.5082 0.460458C2.20794 0.762227 2.05781 1.20447 2.05781 1.7872V13.1972C2.05781 13.7799 2.20794 14.2248 2.5082 14.5317C2.80846 14.8439 3.24072 15 3.805 15ZM3.87489 13.8137C3.66782 13.8137 3.50733 13.7565 3.39344 13.642C3.28473 13.5328 3.23037 13.3793 3.23037 13.1816V1.80281C3.23037 1.6051 3.28473 1.45161 3.39344 1.34235C3.50733 1.23309 3.66782 1.17846 3.87489 1.17846H6.43745C6.6497 1.17846 6.81018 1.23309 6.9189 1.34235C7.02761 1.45161 7.08197 1.6051 7.08197 1.80281V13.1816C7.08197 13.3793 7.02761 13.5328 6.9189 13.642C6.81018 13.7565 6.6497 13.8137 6.43745 13.8137H3.87489ZM7.61777 8.06972H10.3667V6.92248H7.61777V8.06972ZM11.5082 12.2216H14.2105C14.7748 12.2216 15.2071 12.0708 15.5073 11.769C15.8076 11.462 15.9577 11.0172 15.9577 10.4344V4.54995C15.9577 3.96722 15.8076 3.52497 15.5073 3.22321C15.2071 2.91623 14.7748 2.76275 14.2105 2.76275H11.5082C10.9387 2.76275 10.5039 2.91623 10.2036 3.22321C9.90337 3.52497 9.75324 3.96722 9.75324 4.54995V10.4344C9.75324 11.0172 9.90337 11.462 10.2036 11.769C10.5039 12.0708 10.9387 12.2216 11.5082 12.2216ZM11.5703 11.0432C11.3632 11.0432 11.2028 10.9886 11.0889 10.8793C10.9802 10.77 10.9258 10.6165 10.9258 10.4188V4.57336C10.9258 4.37045 10.9802 4.21436 11.0889 4.1051C11.2028 3.99584 11.3632 3.94121 11.5703 3.94121H14.1406C14.3477 3.94121 14.5056 3.99584 14.6143 4.1051C14.7282 4.21436 14.7852 4.37045 14.7852 4.57336V10.4188C14.7852 10.6165 14.7282 10.77 14.6143 10.8793C14.5056 10.9886 14.3477 11.0432 14.1406 11.0432H11.5703ZM15.484 8.06972H17.4642C17.6143 8.06972 17.7412 8.01249 17.8447 7.89802C17.9482 7.77836 18 7.64308 18 7.4922C18 7.34131 17.9482 7.20864 17.8447 7.09417C17.7412 6.97971 17.6143 6.92248 17.4642 6.92248H15.484V8.06972Z"
		fill="currentColor"
	/>
</svg>
