<svg
	color="rgb(var(--foreground, 0, 0, 0))"
	viewBox="0 0 18 17"
	fill="none"
	xmlns="http://www.w3.org/2000/svg"
>
	<path
		d="M5.02269 17C5.22414 17 5.40926 16.9452 5.57804 16.8357C5.74682 16.7261 5.95372 16.5618 6.19873 16.3427L9.01633 13.8202H14.2595C15.0708 13.8202 15.7541 13.675 16.3094 13.3847C16.8648 13.0889 17.284 12.6617 17.5672 12.1029C17.8557 11.5442 18 10.8623 18 10.057V3.76317C18 2.95795 17.8557 2.27598 17.5672 1.71725C17.284 1.15853 16.8648 0.73401 16.3094 0.443693C15.7541 0.147898 15.0708 0 14.2595 0H3.74047C2.92922 0 2.24592 0.147898 1.69056 0.443693C1.13521 0.73401 0.713249 1.15853 0.424682 1.71725C0.141561 2.27598 0 2.95795 0 3.76317V10.057C0 10.8623 0.141561 11.5442 0.424682 12.1029C0.713249 12.6617 1.13521 13.0889 1.69056 13.3847C2.24592 13.675 2.92922 13.8202 3.74047 13.8202H4.13249V15.9565C4.13249 16.2742 4.20871 16.5262 4.36116 16.7124C4.51906 16.9041 4.73956 17 5.02269 17ZM5.35753 15.4964V13.1136C5.35753 12.889 5.31125 12.7301 5.21869 12.637C5.12613 12.5439 4.96824 12.4973 4.74501 12.4973H3.74047C2.91289 12.4973 2.30036 12.2919 1.9029 11.8811C1.51089 11.4648 1.31488 10.854 1.31488 10.0488V3.76317C1.31488 2.96343 1.51089 2.35814 1.9029 1.94732C2.30036 1.53101 2.91289 1.32286 3.74047 1.32286H14.2595C15.0817 1.32286 15.6915 1.53101 16.0889 1.94732C16.4864 2.35814 16.6851 2.96343 16.6851 3.76317V10.0488C16.6851 10.854 16.4864 11.4648 16.0889 11.8811C15.6915 12.2919 15.0817 12.4973 14.2595 12.4973H8.96733C8.73866 12.4973 8.55354 12.522 8.41198 12.5713C8.27042 12.6206 8.12341 12.7247 7.97096 12.8835L5.35753 15.4964Z"
		fill="currentColor"
	/>
</svg>
