<svg
	color="rgb(var(--foreground, 0, 0, 0))"
	viewBox="0 0 18 17"
	fill="none"
	xmlns="http://www.w3.org/2000/svg"
>
	<path
		d="M3.14286 17C3.38095 17 3.69312 16.9402 4.07937 16.8206C4.46561 16.701 4.88095 16.5407 5.3254 16.3396C5.77513 16.1385 6.21693 15.9156 6.65079 15.671C7.08995 15.4318 7.47884 15.1872 7.81746 14.9372C7.88624 14.8883 7.94974 14.8529 8.00794 14.8312C8.06614 14.8094 8.12169 14.7986 8.1746 14.7986C8.22751 14.804 8.28042 14.8067 8.33333 14.8067C8.38624 14.8122 8.43651 14.8149 8.48413 14.8149C9.62698 14.8149 10.6878 14.6898 11.6667 14.4398C12.6455 14.1898 13.5238 13.8365 14.3016 13.3799C15.0847 12.9233 15.7513 12.3878 16.3016 11.7736C16.8519 11.154 17.2725 10.4745 17.5635 9.73525C17.8545 8.996 18 8.22142 18 7.41151C18 6.38417 17.7672 5.42206 17.3016 4.52518C16.8413 3.6283 16.1984 2.84285 15.373 2.16883C14.5529 1.48937 13.5979 0.959393 12.5079 0.578897C11.418 0.192966 10.2487 0 9 0C7.75132 0 6.58201 0.192966 5.49206 0.578897C4.40212 0.959393 3.44444 1.48937 2.61905 2.16883C1.79894 2.84285 1.15608 3.6283 0.690476 4.52518C0.230159 5.42206 0 6.38417 0 7.41151C0 8.28122 0.164021 9.10743 0.492064 9.89017C0.825397 10.6729 1.29894 11.3904 1.9127 12.0427C2.53175 12.6895 3.26455 13.2467 4.11111 13.7141C4.16931 13.7468 4.20635 13.793 4.22222 13.8528C4.24339 13.9071 4.2381 13.9642 4.20635 14.024C4.0582 14.274 3.8836 14.5322 3.68254 14.7986C3.48148 15.0649 3.28571 15.3095 3.09524 15.5324C2.91005 15.7607 2.7672 15.9428 2.66667 16.0787C2.51323 16.2852 2.47619 16.489 2.55556 16.6902C2.64021 16.8967 2.83598 17 3.14286 17ZM8.11111 11.4719C7.97355 11.4719 7.84921 11.442 7.7381 11.3823C7.62698 11.3225 7.51852 11.2219 7.4127 11.0806L5.42064 8.56931C5.36243 8.48777 5.31482 8.40352 5.27778 8.31655C5.24603 8.22414 5.23016 8.13173 5.23016 8.03933C5.23016 7.85452 5.29101 7.69688 5.4127 7.56643C5.53439 7.43054 5.68519 7.36259 5.86508 7.36259C5.98148 7.36259 6.08466 7.38705 6.1746 7.43597C6.26984 7.48489 6.36773 7.5773 6.46825 7.71319L8.07937 9.8494L11.4683 4.25612C11.6164 4.00608 11.8069 3.88106 12.0397 3.88106C12.209 3.88106 12.3624 3.93813 12.5 4.05228C12.6376 4.16099 12.7064 4.31047 12.7064 4.50072C12.7064 4.59313 12.6852 4.68553 12.6429 4.77794C12.6005 4.87034 12.5556 4.95731 12.5079 5.03885L8.77778 11.0806C8.69312 11.211 8.59524 11.3089 8.48413 11.3741C8.37302 11.4393 8.24868 11.4719 8.11111 11.4719Z"
		fill="currentColor"
	/>
</svg>
