<svg
	color="rgb(var(--foreground, 0, 0, 0))"
	viewBox="0 0 18 17"
	fill="none"
	xmlns="http://www.w3.org/2000/svg"
>
	<path
		d="M3.44444 17C3.79894 17 4.25661 16.8918 4.81746 16.6754C5.37831 16.459 5.96825 16.1777 6.5873 15.8315C7.20635 15.4853 7.78307 15.1147 8.31746 14.7198C9.42328 14.7523 10.4656 14.6549 11.4444 14.4277C12.4233 14.2005 13.3122 13.8678 14.1111 13.4296C14.9153 12.986 15.6058 12.4558 16.1825 11.8391C16.7646 11.2224 17.2116 10.5381 17.5238 9.78616C17.8413 9.0288 18 8.22546 18 7.37613C18 6.3537 17.7672 5.39618 17.3016 4.50358C16.8413 3.61098 16.1984 2.82928 15.373 2.15847C14.5529 1.48226 13.5979 0.954813 12.5079 0.576134C11.418 0.192045 10.2487 0 9 0C7.75132 0 6.58201 0.192045 5.49206 0.576134C4.40212 0.954813 3.44444 1.48226 2.61905 2.15847C1.79894 2.82928 1.15608 3.61098 0.690476 4.50358C0.230159 5.39618 0 6.3537 0 7.37613C0 8.26333 0.171958 9.10453 0.515873 9.89976C0.865079 10.695 1.35185 11.4091 1.97619 12.042C2.60582 12.6749 3.33862 13.1889 4.1746 13.5838C4.05291 13.8218 3.90741 14.0761 3.7381 14.3465C3.56878 14.617 3.39947 14.874 3.23016 15.1174C3.06085 15.3663 2.91534 15.5691 2.79365 15.726C2.65608 15.9154 2.58995 16.1074 2.59524 16.3021C2.60053 16.5023 2.6746 16.6673 2.81746 16.7971C2.96032 16.9324 3.16931 17 3.44444 17ZM4.27778 15.653C4.24603 15.6638 4.22487 15.6584 4.21429 15.6368C4.2037 15.6205 4.20899 15.5989 4.23016 15.5718C4.45238 15.2905 4.69841 14.9632 4.96825 14.59C5.2381 14.2221 5.4418 13.9084 5.57937 13.6487C5.69048 13.4377 5.72487 13.243 5.68254 13.0644C5.64021 12.8859 5.49206 12.7344 5.2381 12.61C4.40741 12.2151 3.69841 11.7499 3.11111 11.2143C2.5291 10.6733 2.08466 10.0783 1.77778 9.42912C1.4709 8.77995 1.31746 8.09562 1.31746 7.37613C1.31746 6.54304 1.51323 5.76404 1.90476 5.03914C2.30159 4.30883 2.84921 3.66778 3.54762 3.11599C4.25132 2.55879 5.06878 2.12331 6 1.80955C6.93122 1.49578 7.93122 1.3389 9 1.3389C10.0688 1.3389 11.0688 1.49578 12 1.80955C12.9312 2.12331 13.746 2.55879 14.4444 3.11599C15.1481 3.66778 15.6984 4.30883 16.0952 5.03914C16.4921 5.76404 16.6905 6.54304 16.6905 7.37613C16.6905 8.20382 16.4921 8.98282 16.0952 9.71313C15.6984 10.4434 15.1481 11.0845 14.4444 11.6363C13.746 12.1881 12.9312 12.6208 12 12.9346C11.0688 13.2484 10.0688 13.4053 9 13.4053C8.92064 13.4053 8.82011 13.4053 8.69841 13.4053C8.57672 13.3998 8.43651 13.3944 8.27778 13.389C8.11376 13.389 7.96032 13.4188 7.81746 13.4783C7.67989 13.5324 7.53704 13.6189 7.38889 13.7379C7.06614 13.976 6.70899 14.2221 6.31746 14.4764C5.92593 14.736 5.54762 14.9714 5.18254 15.1823C4.81746 15.3933 4.51587 15.5502 4.27778 15.653ZM8.13492 11.3036C8.40476 11.3036 8.61905 11.1792 8.77778 10.9303L12.4048 5.08783C12.4524 5.01209 12.4947 4.93095 12.5317 4.84439C12.5741 4.75243 12.5952 4.66046 12.5952 4.5685C12.5952 4.38998 12.5291 4.24662 12.3968 4.13842C12.2646 4.03023 12.1164 3.97613 11.9524 3.97613C11.7302 3.97613 11.545 4.09785 11.3968 4.34129L8.10318 9.74558L6.53968 7.67637C6.44444 7.54654 6.34921 7.45998 6.25397 7.41671C6.16402 7.36802 6.06349 7.34368 5.95238 7.34368C5.78307 7.34368 5.63757 7.40859 5.51587 7.53842C5.39947 7.66285 5.34127 7.81432 5.34127 7.99284C5.34127 8.16054 5.40212 8.32824 5.52381 8.49594L7.46032 10.9303C7.56085 11.0601 7.66402 11.1548 7.76984 11.2143C7.88095 11.2738 8.00265 11.3036 8.13492 11.3036Z"
		fill="currentColor"
	/>
</svg>
