<svg
	color="rgb(var(--foreground, 0, 0, 0))"
	viewBox="0 0 21 14"
	fill="none"
	xmlns="http://www.w3.org/2000/svg"
>
	<path
		d="M0.817272 14H2.6931C2.93699 14 3.13417 13.9194 3.28465 13.7581C3.43514 13.5968 3.51038 13.3844 3.51038 13.121V9.5C3.51038 9.23656 3.43514 9.02688 3.28465 8.87097C3.13417 8.70968 2.93699 8.62903 2.6931 8.62903H0.817272C0.573388 8.62903 0.376204 8.70968 0.225723 8.87097C0.0752409 9.02688 0 9.23656 0 9.5V13.121C0 13.3844 0.0752409 13.5968 0.225723 13.7581C0.376204 13.9194 0.573388 14 0.817272 14ZM6.64714 14H8.52298C8.76686 14 8.96404 13.9194 9.11453 13.7581C9.26501 13.5968 9.34025 13.3844 9.34025 13.121V6.98387C9.34025 6.72043 9.26501 6.50806 9.11453 6.34677C8.96404 6.18548 8.76686 6.10484 8.52298 6.10484H6.64714C6.40326 6.10484 6.20608 6.18548 6.05559 6.34677C5.90511 6.50806 5.82987 6.72043 5.82987 6.98387V13.121C5.82987 13.3844 5.90511 13.5968 6.05559 13.7581C6.20608 13.9194 6.40326 14 6.64714 14ZM12.477 14H14.3528C14.5967 14 14.7939 13.9194 14.9444 13.7581C15.0949 13.5968 15.1701 13.3844 15.1701 13.121V4.06452C15.1701 3.80108 15.0949 3.58871 14.9444 3.42742C14.7939 3.26613 14.5967 3.18548 14.3528 3.18548H12.477C12.2331 3.18548 12.0359 3.26613 11.8855 3.42742C11.735 3.58871 11.6597 3.80108 11.6597 4.06452V13.121C11.6597 13.3844 11.735 13.5968 11.8855 13.7581C12.0359 13.9194 12.2331 14 12.477 14ZM18.2991 14H20.1905C20.4344 14 20.629 13.9194 20.7743 13.7581C20.9248 13.5968 21 13.3844 21 13.121V0.879032C21 0.615591 20.9248 0.403226 20.7743 0.241936C20.629 0.0806452 20.4344 0 20.1905 0H18.2991C18.0552 0 17.858 0.0806452 17.7076 0.241936C17.5571 0.403226 17.4818 0.615591 17.4818 0.879032V13.121C17.4818 13.3844 17.5571 13.5968 17.7076 13.7581C17.858 13.9194 18.0552 14 18.2991 14Z"
		fill="currentColor"
	/>
</svg>
