<svg
	color="rgb(var(--foreground, 0, 0, 0))"
	viewBox="0 0 16 14"
	fill="none"
	xmlns="http://www.w3.org/2000/svg"
>
	<path
		d="M0 13.353C0 13.5363 0.0613615 13.69 0.184084 13.814C0.306807 13.938 0.449984 14 0.613615 14H15.3787C15.5475 14 15.6932 13.938 15.8159 13.814C15.9386 13.69 16 13.5363 16 13.353C16 13.175 15.9386 13.0214 15.8159 12.892C15.6932 12.768 15.5475 12.7059 15.3787 12.7059H0.613615C0.449984 12.7059 0.306807 12.768 0.184084 12.892C0.0613615 13.0214 0 13.175 0 13.353ZM0.613615 10.8619C0.613615 11.0722 0.672419 11.2367 0.790029 11.3553C0.912752 11.4739 1.07894 11.5332 1.28859 11.5332H2.96069C3.16523 11.5332 3.3263 11.4739 3.44391 11.3553C3.56663 11.2367 3.628 11.0722 3.628 10.8619V4.17331C3.628 3.96303 3.56663 3.79857 3.44391 3.67995C3.3263 3.55594 3.16523 3.49393 2.96069 3.49393H1.28859C1.07894 3.49393 0.912752 3.55594 0.790029 3.67995C0.672419 3.79857 0.613615 3.96303 0.613615 4.17331V10.8619ZM4.52541 10.8619C4.52541 11.0722 4.58421 11.2367 4.70182 11.3553C4.82454 11.4739 4.99073 11.5332 5.20038 11.5332H6.87248C7.07702 11.5332 7.24065 11.4739 7.36338 11.3553C7.4861 11.2367 7.54746 11.0722 7.54746 10.8619V0.671288C7.54746 0.461005 7.4861 0.296553 7.36338 0.177932C7.24065 0.0593106 7.07702 0 6.87248 0H5.20038C4.99073 0 4.82454 0.0593106 4.70182 0.177932C4.58421 0.296553 4.52541 0.461005 4.52541 0.671288V10.8619ZM8.44487 10.8619C8.44487 11.0722 8.50368 11.2367 8.62128 11.3553C8.74401 11.4739 8.90764 11.5332 9.11218 11.5332H10.7919C10.9965 11.5332 11.1576 11.4739 11.2752 11.3553C11.3979 11.2367 11.4593 11.0722 11.4593 10.8619V2.41826C11.4593 2.20258 11.3979 2.03543 11.2752 1.91681C11.1576 1.79819 10.9965 1.73888 10.7919 1.73888H9.11218C8.90764 1.73888 8.74401 1.79819 8.62128 1.91681C8.50368 2.03543 8.44487 2.20258 8.44487 2.41826V10.8619ZM12.3567 10.8619C12.3567 11.0722 12.4155 11.2367 12.5331 11.3553C12.6558 11.4739 12.822 11.5332 13.0316 11.5332H14.7037C14.9083 11.5332 15.0719 11.4739 15.1946 11.3553C15.3174 11.2367 15.3787 11.0722 15.3787 10.8619V5.87175C15.3787 5.66147 15.3174 5.49702 15.1946 5.37839C15.0719 5.25438 14.9083 5.19237 14.7037 5.19237H13.0316C12.822 5.19237 12.6558 5.25438 12.5331 5.37839C12.4155 5.49702 12.3567 5.66147 12.3567 5.87175V10.8619Z"
		fill="currentColor"
	/>
</svg>
