<svg
	color="rgb(var(--foreground, 0, 0, 0))"
	viewBox="0 0 20 16"
	fill="none"
	xmlns="http://www.w3.org/2000/svg"
>
	<path
		d="M1.85754 15.5H3.97481C4.58874 15.5 5.05313 15.3513 5.36797 15.0539C5.6828 14.7565 5.84022 14.3131 5.84022 13.7236V6.92857C5.84022 6.33909 5.6828 5.89565 5.36797 5.59825C5.05313 5.29554 4.58874 5.14418 3.97481 5.14418H1.85754C1.2436 5.14418 0.779221 5.29554 0.464384 5.59825C0.154795 5.89565 0 6.33909 0 6.92857V13.7236C0 14.3131 0.154795 14.7565 0.464384 15.0539C0.779221 15.3513 1.2436 15.5 1.85754 15.5ZM2.06218 14.2971C1.76309 14.2971 1.55319 14.2361 1.43251 14.1139C1.31182 13.9971 1.25148 13.79 1.25148 13.4926V7.15959C1.25148 6.85688 1.31182 6.64711 1.43251 6.53027C1.55319 6.40813 1.76309 6.34705 2.06218 6.34705H3.77017C4.07451 6.34705 4.28703 6.40813 4.40771 6.53027C4.5284 6.64711 4.58874 6.85688 4.58874 7.15959V13.4926C4.58874 13.79 4.5284 13.9971 4.40771 14.1139C4.28703 14.2361 4.07451 14.2971 3.77017 14.2971H2.06218ZM8.93349 15.5H11.0586C11.6726 15.5 12.1343 15.3513 12.4439 15.0539C12.7588 14.7565 12.9162 14.3131 12.9162 13.7236V4.61046C12.9162 4.02098 12.7588 3.57754 12.4439 3.28014C12.1343 2.97743 11.6726 2.82608 11.0586 2.82608H8.93349C8.31956 2.82608 7.85518 2.97743 7.54034 3.28014C7.23075 3.57754 7.07595 4.02098 7.07595 4.61046V13.7236C7.07595 14.3131 7.23075 14.7565 7.54034 15.0539C7.85518 15.3513 8.31956 15.5 8.93349 15.5ZM9.14601 14.2971C8.84166 14.2971 8.62915 14.2361 8.50846 14.1139C8.38777 13.9971 8.32743 13.79 8.32743 13.4926V4.84148C8.32743 4.54408 8.38777 4.33431 8.50846 4.21216C8.62915 4.09002 8.84166 4.02894 9.14601 4.02894H10.854C11.1531 4.02894 11.363 4.09002 11.4837 4.21216C11.6044 4.33431 11.6647 4.54408 11.6647 4.84148V13.4926C11.6647 13.79 11.6044 13.9971 11.4837 14.1139C11.363 14.2361 11.1531 14.2971 10.854 14.2971H9.14601ZM16.0094 15.5H18.1346C18.7485 15.5 19.2129 15.3513 19.5277 15.0539C19.8426 14.7565 20 14.3131 20 13.7236V2.28439C20 1.6949 19.8426 1.25146 19.5277 0.954063C19.2129 0.651354 18.7485 0.5 18.1346 0.5H16.0094C15.4008 0.5 14.939 0.651354 14.6242 0.954063C14.3146 1.25146 14.1598 1.6949 14.1598 2.28439V13.7236C14.1598 14.3131 14.3146 14.7565 14.6242 15.0539C14.939 15.3513 15.4008 15.5 16.0094 15.5ZM16.222 14.2971C15.9229 14.2971 15.713 14.2361 15.5923 14.1139C15.4716 13.9971 15.4113 13.79 15.4113 13.4926V2.5154C15.4113 2.21269 15.4716 2.00292 15.5923 1.88609C15.713 1.76394 15.9229 1.70287 16.222 1.70287H17.9299C18.2343 1.70287 18.4468 1.76394 18.5675 1.88609C18.6882 2.00292 18.7485 2.21269 18.7485 2.5154V13.4926C18.7485 13.79 18.6882 13.9971 18.5675 14.1139C18.4468 14.2361 18.2343 14.2971 17.9299 14.2971H16.222Z"
		fill="currentColor"
	/>
</svg>
