<svg
	color="rgb(var(--foreground, 0, 0, 0))"
	viewBox="0 0 20 16"
	fill="none"
	xmlns="http://www.w3.org/2000/svg"
>
	<path
		d="M1.65539 15.5H4.0191C4.5709 15.5 4.98475 15.3663 5.26064 15.0989C5.54185 14.8369 5.68245 14.4439 5.68245 13.9198V6.76471C5.68245 6.24064 5.54185 5.84492 5.26064 5.57754C4.98475 5.31016 4.5709 5.17647 4.0191 5.17647H1.65539C1.1089 5.17647 0.695052 5.31016 0.413848 5.57754C0.137949 5.84492 0 6.24064 0 6.76471V13.9198C0 14.4439 0.137949 14.8369 0.413848 15.0989C0.695052 15.3663 1.1089 15.5 1.65539 15.5ZM8.81019 15.5H11.1819C11.7283 15.5 12.1395 15.3663 12.4154 15.0989C12.6966 14.8369 12.8372 14.4439 12.8372 13.9198V4.43048C12.8372 3.90642 12.6966 3.5107 12.4154 3.24332C12.1395 2.97594 11.7283 2.84225 11.1819 2.84225H8.81019C8.2637 2.84225 7.84985 2.97594 7.56864 3.24332C7.29274 3.5107 7.1548 3.90642 7.1548 4.43048V13.9198C7.1548 14.4439 7.29274 14.8369 7.56864 15.0989C7.84985 15.3663 8.2637 15.5 8.81019 15.5ZM15.965 15.5H18.3366C18.8884 15.5 19.3023 15.3663 19.5782 15.0989C19.8594 14.8369 20 14.4439 20 13.9198V2.08824C20 1.56417 19.8594 1.16845 19.5782 0.90107C19.3023 0.63369 18.8884 0.5 18.3366 0.5H15.965C15.4238 0.5 15.0126 0.63369 14.7314 0.90107C14.4555 1.16845 14.3175 1.56417 14.3175 2.08824V13.9198C14.3175 14.4439 14.4555 14.8369 14.7314 15.0989C15.0126 15.3663 15.4238 15.5 15.965 15.5Z"
		fill="currentColor"
	/>
</svg>
