<svg
	color="rgb(var(--foreground, 0, 0, 0))"
	viewBox="0 0 17 16"
	fill="none"
	xmlns="http://www.w3.org/2000/svg"
>
	<path
		d="M0 14.8591C0 15.0538 0.0579845 15.2079 0.173954 15.3215C0.289923 15.4405 0.442791 15.5 0.632558 15.5H16.3595C16.5335 15.5 16.6837 15.4378 16.8102 15.3134C16.9367 15.189 17 15.0349 17 14.851C17 14.6725 16.9367 14.5184 16.8102 14.3886C16.6837 14.2642 16.5335 14.202 16.3595 14.202H1.49442C1.34682 14.202 1.27302 14.1263 1.27302 13.9749V1.149C1.27302 0.975933 1.20977 0.8245 1.08326 0.6947C0.962016 0.5649 0.814419 0.5 0.640465 0.5C0.46124 0.5 0.308372 0.5649 0.18186 0.6947C0.0606202 0.8245 0 0.975933 0 1.149V14.8591ZM1.17023 2.92564L0.205581 3.90725L3.74 7.58221C3.91922 7.76609 4.09581 7.9013 4.26977 7.98783C4.44372 8.07436 4.62295 8.11763 4.80744 8.11763C4.99194 8.11763 5.17116 8.07436 5.34512 7.98783C5.52434 7.9013 5.70093 7.76609 5.87488 7.58221L8.78465 4.5238C8.85845 4.44808 8.92961 4.41022 8.99814 4.41022C9.07194 4.41022 9.14574 4.44808 9.21953 4.5238L12.3349 7.76068L11.0302 9.09924C10.9353 9.19659 10.8879 9.29935 10.8879 9.40752C10.8879 9.51028 10.9248 9.60492 10.9986 9.69145C11.0777 9.77258 11.1857 9.83207 11.3228 9.86993L15.9484 11.0706C16.0643 11.103 16.1724 11.0949 16.2726 11.0462C16.3727 10.9976 16.4465 10.9246 16.494 10.8272C16.5467 10.7244 16.5572 10.6109 16.5256 10.4865L15.3553 5.73256C15.3184 5.59194 15.2578 5.48377 15.1735 5.40806C15.0891 5.32693 14.9943 5.28637 14.8888 5.28637C14.7887 5.28637 14.6912 5.33505 14.5963 5.4324L13.2995 6.77096L10.0735 3.44483C9.72031 3.08789 9.36186 2.90941 8.99814 2.90941C8.81364 2.90941 8.63178 2.95268 8.45256 3.03921C8.27333 3.12574 8.09938 3.26095 7.9307 3.44483L5.02093 6.50324C4.9524 6.57896 4.88124 6.61682 4.80744 6.61682C4.73364 6.61682 4.66248 6.57896 4.59395 6.50324L1.17023 2.92564Z"
		fill="currentColor"
	/>
</svg>
