<svg
	color="rgb(var(--foreground, 0, 0, 0))"
	viewBox="0 0 17 16"
	fill="none"
	xmlns="http://www.w3.org/2000/svg"
>
	<path
		d="M0 14.8591C0 15.0538 0.0579845 15.2079 0.173954 15.3215C0.289923 15.4405 0.442791 15.5 0.632558 15.5H16.3595C16.5335 15.5 16.6837 15.4378 16.8102 15.3134C16.9367 15.189 17 15.0349 17 14.851C17 14.6725 16.9367 14.5184 16.8102 14.3886C16.6837 14.2642 16.5335 14.202 16.3595 14.202H1.49442C1.34682 14.202 1.27302 14.1263 1.27302 13.9749V1.149C1.27302 0.975933 1.20977 0.8245 1.08326 0.6947C0.962016 0.5649 0.814419 0.5 0.640465 0.5C0.46124 0.5 0.308372 0.5649 0.18186 0.6947C0.0606202 0.8245 0 0.975933 0 1.149V14.8591ZM11.4414 4.8483V10.0484C11.4414 10.189 11.4783 10.2972 11.5521 10.3729C11.6259 10.4432 11.7181 10.4811 11.8288 10.4865C11.9448 10.4919 12.0634 10.4567 12.1847 10.381L16.2726 7.86614C16.3833 7.79584 16.4544 7.7093 16.486 7.60654C16.5229 7.49838 16.5203 7.39291 16.4781 7.29016C16.4412 7.18199 16.3701 7.09546 16.2647 7.03056L12.1767 4.51568C12.0555 4.44538 11.9369 4.41293 11.8209 4.41833C11.7102 4.42374 11.618 4.4643 11.5442 4.54002C11.4757 4.61033 11.4414 4.71309 11.4414 4.8483ZM0.292558 8.14197H12.6116V6.75473H0.292558V8.14197Z"
		fill="currentColor"
	/>
</svg>
