<svg
	color="rgb(var(--foreground, 0, 0, 0))"
	viewBox="0 0 17 16"
	fill="none"
	xmlns="http://www.w3.org/2000/svg"
>
	<path
		d="M0 14.8591C0 15.0538 0.0579772 15.208 0.173943 15.3215C0.28991 15.4405 0.442759 15.5 0.632521 15.5H16.3596C16.5335 15.5 16.6837 15.4378 16.8102 15.3134C16.9368 15.189 17 15.0349 17 14.851C17 14.6725 16.9368 14.5184 16.8102 14.3886C16.6837 14.2642 16.5335 14.202 16.3596 14.202H1.49433C1.34674 14.202 1.27295 14.1263 1.27295 13.9749V1.149C1.27295 0.975933 1.2097 0.8245 1.08319 0.6947C0.961955 0.5649 0.814377 0.5 0.640428 0.5C0.461207 0.5 0.308358 0.5649 0.18185 0.6947C0.0606125 0.8245 0 0.975933 0 1.149V14.8591ZM0.830184 9.81314L5.91457 6.79529L9.57529 10.016L16.0823 6.04083L15.5842 5.21336L9.63854 8.84776L5.99363 5.64332L0.830184 8.70173V9.81314ZM5.81178 7.89048C6.07007 7.89048 6.30462 7.82558 6.51546 7.69578C6.73158 7.56598 6.90288 7.39292 7.02939 7.17658C7.1559 6.95484 7.21914 6.71147 7.21914 6.44646C7.21914 6.18145 7.1559 5.94078 7.02939 5.72445C6.90288 5.5027 6.73158 5.32964 6.51546 5.20525C6.30462 5.07545 6.07007 5.01055 5.81178 5.01055C5.5535 5.01055 5.31632 5.07545 5.1002 5.20525C4.88935 5.32964 4.72069 5.5027 4.59418 5.72445C4.46767 5.94078 4.40442 6.18145 4.40442 6.44646C4.40442 6.71147 4.46767 6.95484 4.59418 7.17658C4.72069 7.39292 4.88935 7.56598 5.1002 7.69578C5.31632 7.82558 5.5535 7.89048 5.81178 7.89048ZM9.54366 10.8678C9.80195 10.8678 10.0365 10.8029 10.2473 10.6731C10.4635 10.5433 10.6321 10.3702 10.7534 10.1539C10.8799 9.93213 10.9431 9.68875 10.9431 9.42374C10.9431 9.15874 10.8799 8.91806 10.7534 8.70173C10.6321 8.47999 10.4635 8.30692 10.2473 8.18253C10.0365 8.05273 9.80195 7.98783 9.54366 7.98783C9.28537 7.98783 9.04819 8.05273 8.83207 8.18253C8.62123 8.30692 8.45257 8.47999 8.32606 8.70173C8.19955 8.91806 8.1363 9.15874 8.1363 9.42374C8.1363 9.68875 8.19955 9.93213 8.32606 10.1539C8.45257 10.3702 8.62123 10.5433 8.83207 10.6731C9.04819 10.8029 9.28537 10.8678 9.54366 10.8678ZM15.5052 7.17658C15.7635 7.17658 15.998 7.11168 16.2089 6.98188C16.425 6.85208 16.5968 6.67902 16.7233 6.46268C16.8498 6.24094 16.913 5.99757 16.913 5.73256C16.913 5.46755 16.8498 5.22688 16.7233 5.01055C16.5968 4.78881 16.425 4.61303 16.2089 4.48323C15.998 4.35343 15.7635 4.28853 15.5052 4.28853C15.2469 4.28853 15.0097 4.35343 14.7936 4.48323C14.5827 4.61303 14.4141 4.78881 14.2876 5.01055C14.1611 5.22688 14.0978 5.46755 14.0978 5.73256C14.0978 5.99757 14.1611 6.24094 14.2876 6.46268C14.4141 6.67902 14.5827 6.85208 14.7936 6.98188C15.0097 7.11168 15.2469 7.17658 15.5052 7.17658Z"
		fill="currentColor"
	/>
</svg>
