<svg
	color="rgb(var(--foreground, 0, 0, 0))"
	viewBox="0 0 17 16"
	fill="none"
	xmlns="http://www.w3.org/2000/svg"
>
	<path
		d="M0 14.8591C0 15.0538 0.0579845 15.2079 0.173954 15.3215C0.289923 15.4405 0.442791 15.5 0.632558 15.5H16.3595C16.5335 15.5 16.6837 15.4378 16.8102 15.3134C16.9367 15.189 17 15.0349 17 14.851C17 14.6725 16.9367 14.5184 16.8102 14.3886C16.6837 14.2642 16.5335 14.202 16.3595 14.202H1.49442C1.34682 14.202 1.27302 14.1263 1.27302 13.9749V1.149C1.27302 0.975933 1.20977 0.8245 1.08326 0.6947C0.962016 0.5649 0.814419 0.5 0.640465 0.5C0.46124 0.5 0.308372 0.5649 0.18186 0.6947C0.0606202 0.8245 0 0.975933 0 1.149V14.8591ZM1.17023 10.4865L4.59395 6.90887C4.66248 6.83315 4.73364 6.79529 4.80744 6.79529C4.88124 6.79529 4.9524 6.83315 5.02093 6.90887L7.9307 9.96728C8.09938 10.1512 8.27333 10.2864 8.45256 10.3729C8.63178 10.4594 8.81364 10.5027 8.99814 10.5027C9.36186 10.5027 9.72031 10.3242 10.0735 9.96728L13.2995 6.64116L14.5963 7.97972C14.6912 8.07707 14.7887 8.12574 14.8888 8.12574C14.9943 8.12574 15.0891 8.08789 15.1735 8.01217C15.2578 7.93104 15.3184 7.82017 15.3553 7.67956L16.5256 2.92564C16.5572 2.80124 16.5467 2.69037 16.494 2.59302C16.4465 2.49026 16.3727 2.41455 16.2726 2.36587C16.1724 2.3172 16.0643 2.30909 15.9484 2.34154L11.3228 3.53407C11.1857 3.57193 11.0777 3.63413 10.9986 3.72066C10.9248 3.80719 10.8879 3.90454 10.8879 4.01271C10.8879 4.11547 10.9353 4.21552 11.0302 4.31287L12.3349 5.65143L9.21953 8.88832C9.14574 8.96403 9.07194 9.00189 8.99814 9.00189C8.92961 9.00189 8.85845 8.96403 8.78465 8.88832L5.87488 5.82991C5.70093 5.64602 5.52434 5.51082 5.34512 5.42428C5.17116 5.33775 4.99194 5.29448 4.80744 5.29448C4.62295 5.29448 4.44372 5.33775 4.26977 5.42428C4.09581 5.50541 3.91922 5.64062 3.74 5.82991L0.205581 9.50487L1.17023 10.4865Z"
		fill="currentColor"
	/>
</svg>
