<svg
	color="rgb(var(--foreground, 0, 0, 0))"
	viewBox="0 0 16 16"
	fill="none"
	xmlns="http://www.w3.org/2000/svg"
>
	<path
		d="M8 16C8.94118 16 9.8536 15.8352 10.7373 15.5056C11.6209 15.1761 12.4261 14.7052 13.1529 14.0932L7.50588 8.55321C7.42745 8.47997 7.37516 8.40674 7.34902 8.3335C7.3281 8.26026 7.31765 8.17133 7.31765 8.0667V0.023541C6.29804 0.112473 5.34641 0.381887 4.46275 0.83178C3.57909 1.28167 2.80261 1.86758 2.13333 2.5895C1.46405 3.31143 0.941177 4.13536 0.564706 5.06131C0.188235 5.98202 0 6.96027 0 7.99608C0 9.08942 0.20915 10.12 0.627451 11.0878C1.04575 12.0556 1.62353 12.9083 2.36078 13.6459C3.09804 14.3783 3.94771 14.9537 4.9098 15.3722C5.87712 15.7907 6.90719 16 8 16ZM16 7.99608C16 7.40494 15.932 6.8138 15.7961 6.22266C15.6601 5.63152 15.4667 5.08485 15.2157 4.58264L8.80784 8.27072L13.9294 13.332C14.5725 12.6258 15.0771 11.8097 15.4431 10.8838C15.8144 9.95782 16 8.99526 16 7.99608ZM8.36863 7.30554L14.698 3.66454C14.2431 2.95308 13.6784 2.32794 13.0039 1.78911C12.3346 1.25029 11.6026 0.826549 10.8078 0.517901C10.0131 0.209253 9.2 0.0366193 8.36863 0V7.30554Z"
		fill="currentColor"
	/>
</svg>
