<svg
	color="rgb(var(--foreground, 0, 0, 0))"
	viewBox="0 0 21 12"
	fill="none"
	xmlns="http://www.w3.org/2000/svg"
>
	<path
		d="M0 0.995321C0 1.27095 0.103825 1.50574 0.311476 1.6997C0.519126 1.89366 0.770492 1.99064 1.06557 1.99064H19.9262C20.2213 1.99064 20.4727 1.89366 20.6803 1.6997C20.8934 1.50574 21 1.27095 21 0.995321C21 0.719694 20.8934 0.4849 20.6803 0.29094C20.4727 0.09698 20.2213 0 19.9262 0H1.06557C0.770492 0 0.519126 0.09698 0.311476 0.29094C0.103825 0.4849 0 0.719694 0 0.995321ZM5.7623 10.2518H15.2295C16.776 10.2518 17.9426 9.90217 18.7295 9.20289C19.5219 8.50362 19.918 7.47001 19.918 6.10208V3.0319H1.08197V6.10208C1.08197 7.47001 1.47541 8.50362 2.2623 9.20289C3.05465 9.90217 4.22131 10.2518 5.7623 10.2518ZM3.47541 11.9592C3.65028 12.0204 3.81967 12.0128 3.98361 11.9362C4.15301 11.8647 4.26776 11.7499 4.32787 11.5917L5.02459 9.79243L3.78689 9.37133L3.09017 11.1706C3.03006 11.3288 3.03825 11.4845 3.11476 11.6376C3.19126 11.7958 3.31148 11.903 3.47541 11.9592ZM17.5164 11.9592C17.6858 11.903 17.8087 11.7958 17.8852 11.6376C17.9617 11.4845 17.9699 11.3288 17.9098 11.1706L17.2131 9.37133L15.9672 9.79243L16.6639 11.5917C16.7295 11.7499 16.8443 11.8647 17.0082 11.9362C17.1776 12.0128 17.347 12.0204 17.5164 11.9592Z"
		fill="currentColor"
	/>
</svg>
