<svg
	color="rgb(var(--foreground, 0, 0, 0))"
	viewBox="0 0 21 12"
	fill="none"
	xmlns="http://www.w3.org/2000/svg"
>
	<path
		d="M0 1.55199C0 1.84108 0.0713747 2.10482 0.214124 2.3432C0.356873 2.5765 0.549849 2.76162 0.793052 2.89856C1.03625 3.03043 1.30854 3.09637 1.6099 3.09637H19.3901C19.6915 3.09637 19.9637 3.03043 20.2069 2.89856C20.4501 2.76162 20.6431 2.5765 20.7859 2.3432C20.9286 2.10482 21 1.84108 21 1.55199C21 1.25275 20.9286 0.986475 20.7859 0.75317C20.6431 0.519865 20.4501 0.337278 20.2069 0.20541C19.9637 0.06847 19.6915 0 19.3901 0H1.6099C1.30854 0 1.03625 0.06847 0.793052 0.20541C0.549849 0.337278 0.356873 0.519865 0.214124 0.75317C0.0713747 0.986475 0 1.25275 0 1.55199ZM1.26095 1.55199C1.26095 1.44548 1.29796 1.35926 1.37198 1.29332C1.45129 1.22232 1.54909 1.18681 1.66541 1.18681H19.3346C19.4509 1.18681 19.5461 1.22232 19.6201 1.29332C19.6994 1.35926 19.739 1.44548 19.739 1.55199C19.739 1.65342 19.6994 1.73965 19.6201 1.81065C19.5461 1.87659 19.4509 1.90955 19.3346 1.90955H1.66541C1.54909 1.90955 1.45129 1.87659 1.37198 1.81065C1.29796 1.73965 1.26095 1.65342 1.26095 1.55199ZM5.9241 10.2629H15.0838C16.5748 10.2629 17.7009 9.91547 18.4622 9.22062C19.2289 8.52578 19.6122 7.49873 19.6122 6.13948V2.52578H18.3353V6.13948C18.3353 7.09806 18.0604 7.82079 17.5106 8.30769C16.9607 8.79459 16.1518 9.03804 15.0838 9.03804H5.9241C4.85083 9.03804 4.03928 8.79459 3.48943 8.30769C2.93958 7.82079 2.66465 7.09806 2.66465 6.13948V2.52578H1.38784V6.13948C1.38784 7.49873 1.76851 8.52578 2.52984 9.22062C3.29645 9.91547 4.42787 10.2629 5.9241 10.2629ZM3.71148 11.9594C3.87538 12.0203 4.03663 12.0127 4.19524 11.9366C4.35914 11.8656 4.47017 11.7515 4.52833 11.5943L5.20242 9.80642L4.00491 9.388L3.33082 11.1758C3.27266 11.3331 3.28059 11.4877 3.35461 11.6399C3.42863 11.7971 3.54759 11.9036 3.71148 11.9594ZM17.2964 11.9594C17.4551 11.9036 17.5714 11.7971 17.6454 11.6399C17.7194 11.4877 17.7273 11.3331 17.6692 11.1758L16.9951 9.388L15.7976 9.80642L16.4717 11.5943C16.5298 11.7515 16.6382 11.8656 16.7968 11.9366C16.9607 12.0127 17.1273 12.0203 17.2964 11.9594Z"
		fill="currentColor"
	/>
</svg>
