<svg
	color="rgb(var(--foreground, 0, 0, 0))"
	viewBox="0 0 20 14"
	fill="none"
	xmlns="http://www.w3.org/2000/svg"
>
	<path
		d="M0.670874 13.5H1.14443C1.34438 13.5 1.50486 13.4409 1.62588 13.3228C1.75217 13.2046 1.81531 13.0453 1.81531 12.845V11.7045C1.86266 11.7148 1.93896 11.7251 2.04419 11.7353C2.15469 11.7405 2.2573 11.743 2.35201 11.743H17.648C17.7427 11.743 17.8453 11.7405 17.9558 11.7353C18.0663 11.7251 18.1426 11.7148 18.1847 11.7045V12.845C18.1847 13.0453 18.2452 13.2046 18.3662 13.3228C18.4925 13.4409 18.6556 13.5 18.8556 13.5H19.3291C19.5343 13.5 19.6974 13.4409 19.8185 13.3228C19.9395 13.2046 20 13.0453 20 12.845V7.56639C20 6.83175 19.8001 6.27178 19.4002 5.88649C19.0055 5.49605 18.4294 5.30083 17.6717 5.30083H2.32833C1.5759 5.30083 0.999735 5.49605 0.599841 5.88649C0.199947 6.27178 0 6.83175 0 7.56639V12.845C0 13.0453 0.0605103 13.2046 0.181531 13.3228C0.302551 13.4409 0.465666 13.5 0.670874 13.5ZM1.57853 10.618C1.39963 10.618 1.31018 10.5178 1.31018 10.3174V7.38915C1.31018 7.09632 1.40226 6.86258 1.58642 6.68791C1.77058 6.51324 2.01525 6.4259 2.32044 6.4259H17.6875C17.9926 6.4259 18.2347 6.51324 18.4136 6.68791C18.5977 6.86258 18.6898 7.09632 18.6898 7.38915V10.3174C18.6898 10.5178 18.6004 10.618 18.4215 10.618H1.57853ZM2.05209 5.46266H4.12785V3.87522C4.12785 3.52075 4.22783 3.24847 4.42777 3.05839C4.62772 2.86317 4.91448 2.76556 5.28807 2.76556H8.05839C8.42671 2.76556 8.71084 2.86317 8.91079 3.05839C9.11074 3.24847 9.21071 3.52075 9.21071 3.87522V5.46266H10.7892V3.87522C10.7892 3.52075 10.8892 3.24847 11.0892 3.05839C11.2891 2.86317 11.5732 2.76556 11.9416 2.76556H14.7119C15.0855 2.76556 15.3723 2.86317 15.5722 3.05839C15.7722 3.24847 15.8721 3.52075 15.8721 3.87522V5.46266H17.9479V2.65768C17.9479 1.94359 17.7585 1.40674 17.3796 1.04713C17.0008 0.682375 16.4562 0.5 15.7459 0.5H4.25413C3.54906 0.5 3.00447 0.682375 2.62036 1.04713C2.24151 1.40674 2.05209 1.94359 2.05209 2.65768V5.46266Z"
		fill="currentColor"
	/>
</svg>
