<svg
	color="rgb(var(--foreground, 0, 0, 0))"
	viewBox="0 0 14 14"
	fill="none"
	xmlns="http://www.w3.org/2000/svg"
>
	<path
		d="M7.02662 11.4677C6.42332 11.4677 5.85044 11.3511 5.30798 11.1179C4.7706 10.8796 4.29658 10.5551 3.88593 10.1445C3.47529 9.73384 3.15082 9.25982 2.91255 8.72243C2.67934 8.17997 2.56274 7.60456 2.56274 6.9962C2.56274 6.38783 2.67934 5.81496 2.91255 5.27757C3.14575 4.73511 3.46768 4.25855 3.87833 3.84791C4.28897 3.43726 4.76299 3.11534 5.30038 2.88213C5.84284 2.64385 6.41825 2.52471 7.02662 2.52471C7.63498 2.52471 8.20786 2.64385 8.74525 2.88213C9.28771 3.11534 9.76426 3.4398 10.1749 3.85551C10.5856 4.26616 10.9075 4.74018 11.1407 5.27757C11.379 5.81496 11.4981 6.38783 11.4981 6.9962C11.4981 7.60456 11.3815 8.17997 11.1483 8.72243C10.9151 9.25982 10.5906 9.73384 10.1749 10.1445C9.76426 10.5551 9.29024 10.8796 8.75285 11.1179C8.21546 11.3511 7.64005 11.4677 7.02662 11.4677ZM7.02662 10.3574C7.64005 10.3574 8.20025 10.2053 8.70722 9.90114C9.21926 9.59189 9.62738 9.18378 9.93156 8.67681C10.2408 8.16477 10.3954 7.60456 10.3954 6.9962C10.3954 6.38783 10.2408 5.83016 9.93156 5.32319C9.62231 4.81115 9.21166 4.40304 8.69962 4.09886C8.19265 3.78961 7.63498 3.63498 7.02662 3.63498C6.41825 3.63498 5.85805 3.78961 5.34601 4.09886C4.83904 4.40304 4.43093 4.81115 4.12167 5.32319C3.81749 5.83016 3.6654 6.38783 3.6654 6.9962C3.6654 7.60456 3.82003 8.16477 4.12928 8.67681C4.43853 9.18378 4.84664 9.59189 5.35361 9.90114C5.86565 10.2053 6.42332 10.3574 7.02662 10.3574ZM7.02662 9.55133C6.57034 9.55133 6.14702 9.43473 5.75665 9.20152C5.37136 8.96324 5.0621 8.65146 4.8289 8.26616C4.59569 7.88086 4.47909 7.45754 4.47909 6.9962C4.47909 6.53485 4.59569 6.11153 4.8289 5.72624C5.0621 5.33587 5.37136 5.02408 5.75665 4.79087C6.14195 4.55767 6.56527 4.44106 7.02662 4.44106C7.48796 4.44106 7.91128 4.5602 8.29658 4.79848C8.68695 5.03169 8.99873 5.34094 9.23194 5.72624C9.46515 6.11153 9.58175 6.53485 9.58175 6.9962C9.58175 7.45754 9.46515 7.8834 9.23194 8.27376C8.99873 8.65906 8.68948 8.96831 8.30418 9.20152C7.91888 9.43473 7.49303 9.55133 7.02662 9.55133ZM2.38783 14H11.6122C12.4081 14 13.0038 13.8023 13.3992 13.4068C13.7997 13.0165 14 12.4284 14 11.6426V2.35741C14 1.57161 13.7997 0.983523 13.3992 0.593156C13.0038 0.197719 12.4081 0 11.6122 0H2.38783C1.59189 0 0.993663 0.197719 0.593156 0.593156C0.197719 0.983523 0 1.57161 0 2.35741V11.6426C0 12.4284 0.197719 13.0165 0.593156 13.4068C0.993663 13.8023 1.59189 14 2.38783 14Z"
		fill="currentColor"
	/>
</svg>
