<svg
	color="rgb(var(--foreground, 0, 0, 0))"
	viewBox="0 0 14 14"
	fill="none"
	xmlns="http://www.w3.org/2000/svg"
>
	<path
		d="M7.02662 11.3308C7.61977 11.3308 8.17744 11.2167 8.69962 10.9886C9.2218 10.7605 9.68314 10.4487 10.0836 10.0532C10.4842 9.65273 10.7959 9.19138 11.019 8.6692C11.2471 8.14702 11.3612 7.58935 11.3612 6.9962C11.3612 6.40811 11.2471 5.85298 11.019 5.3308C10.7909 4.80862 10.4766 4.34728 10.076 3.94677C9.68061 3.54626 9.2218 3.23194 8.69962 3.0038C8.17744 2.77567 7.61977 2.6616 7.02662 2.6616C6.43853 2.6616 5.8834 2.77567 5.36122 3.0038C4.83904 3.23194 4.37769 3.54626 3.97719 3.94677C3.57668 4.34221 3.26236 4.80101 3.03422 5.32319C2.81115 5.84537 2.69962 6.40304 2.69962 6.9962C2.69962 7.58428 2.81369 8.13942 3.04183 8.6616C3.26996 9.18378 3.58175 9.64512 3.97719 10.0456C4.37769 10.4461 4.83904 10.7605 5.36122 10.9886C5.8834 11.2167 6.43853 11.3308 7.02662 11.3308ZM7.02662 10.2586C6.43853 10.2586 5.89607 10.1115 5.39924 9.81749C4.90748 9.51838 4.51204 9.12041 4.21293 8.62357C3.91382 8.12674 3.76426 7.58428 3.76426 6.9962C3.76426 6.40304 3.91382 5.86058 4.21293 5.36882C4.51204 4.87199 4.90748 4.47655 5.39924 4.18251C5.89607 3.8834 6.43853 3.73384 7.02662 3.73384C7.61977 3.73384 8.16223 3.8834 8.65399 4.18251C9.15082 4.47655 9.5488 4.87199 9.84791 5.36882C10.147 5.86565 10.2966 6.40811 10.2966 6.9962C10.2966 7.58935 10.147 8.13435 9.84791 8.63118C9.5488 9.12294 9.15082 9.51838 8.65399 9.81749C8.16223 10.1115 7.61977 10.2586 7.02662 10.2586ZM7.02662 9.47529C7.47782 9.47529 7.891 9.36375 8.26616 9.14068C8.64132 8.91255 8.94043 8.6109 9.1635 8.23574C9.39163 7.86058 9.5057 7.4474 9.5057 6.9962C9.5057 6.55006 9.39163 6.13942 9.1635 5.76426C8.94043 5.3891 8.64132 5.08745 8.26616 4.85932C7.891 4.63118 7.47782 4.51711 7.02662 4.51711C6.58048 4.51711 6.16984 4.63118 5.79468 4.85932C5.41952 5.08238 5.11787 5.3815 4.88973 5.75665C4.66667 6.13181 4.55513 6.54499 4.55513 6.9962C4.55513 7.44233 4.66667 7.85298 4.88973 8.22814C5.11787 8.6033 5.41952 8.90494 5.79468 9.13308C6.16984 9.36122 6.58048 9.47529 7.02662 9.47529ZM2.38783 14H11.6122C12.4081 14 13.0038 13.8023 13.3992 13.4068C13.7997 13.0165 14 12.4284 14 11.6426V2.35741C14 1.57161 13.7997 0.983523 13.3992 0.593156C13.0038 0.197719 12.4081 0 11.6122 0H2.38783C1.59189 0 0.993663 0.197719 0.593156 0.593156C0.197719 0.983523 0 1.57161 0 2.35741V11.6426C0 12.4284 0.197719 13.0165 0.593156 13.4068C0.993663 13.8023 1.59189 14 2.38783 14ZM2.40304 12.7757C2.02281 12.7757 1.73131 12.6768 1.52852 12.4791C1.32573 12.2763 1.22433 11.9772 1.22433 11.5817V2.41825C1.22433 2.02281 1.32573 1.72624 1.52852 1.52852C1.73131 1.32573 2.02281 1.22433 2.40304 1.22433H11.597C11.9721 1.22433 12.2611 1.32573 12.4639 1.52852C12.6717 1.72624 12.7757 2.02281 12.7757 2.41825V11.5817C12.7757 11.9772 12.6717 12.2763 12.4639 12.4791C12.2611 12.6768 11.9721 12.7757 11.597 12.7757H2.40304Z"
		fill="currentColor"
	/>
</svg>
