<svg
	color="rgb(var(--foreground, 0, 0, 0))"
	viewBox="0 0 11 16"
	fill="none"
	xmlns="http://www.w3.org/2000/svg"
>
	<path
		d="M2.16805 7.97413H3.46888V4.83326H2.16805V7.97413ZM7.53112 7.97413H8.83195V4.83326H7.53112V7.97413ZM1.43776 16H1.67358C1.86123 16 2.01337 15.9433 2.13001 15.83C2.24666 15.7167 2.30498 15.5689 2.30498 15.3866V10.6051H0.806362V15.3866C0.806362 15.5689 0.864684 15.7167 0.981328 15.83C1.10304 15.9433 1.25519 16 1.43776 16ZM1.90941 12.7113H9.09059V11.5954H1.90941V12.7113ZM9.32642 16H9.56224C9.74481 16 9.89442 15.9433 10.0111 15.83C10.1328 15.7167 10.1936 15.5689 10.1936 15.3866V10.6051H8.69502V15.3866C8.69502 15.5689 8.75334 15.7167 8.86999 15.83C8.98663 15.9433 9.13877 16 9.32642 16ZM1.93223 5.4836H9.06777C9.95021 5.4836 10.3914 5.06728 10.3914 4.23464V1.24896C10.3914 0.41632 9.95021 0 9.06777 0H1.93223C1.04979 0 0.608575 0.41632 0.608575 1.24896V4.23464C0.608575 5.06728 1.04979 5.4836 1.93223 5.4836ZM1.25519 10.9894H9.74481C10.5816 10.9894 11 10.5977 11 9.81432V8.69099C11 7.90762 10.5816 7.51594 9.74481 7.51594H1.25519C0.418396 7.51594 0 7.90762 0 8.69099V9.81432C0 10.5977 0.418396 10.9894 1.25519 10.9894Z"
		fill="currentColor"
	/>
</svg>
