<svg
	color="rgb(var(--foreground, 0, 0, 0))"
	viewBox="0 0 24 20"
	fill="none"
	xmlns="http://www.w3.org/2000/svg"
>
	<path
		d="M12 4.387C12.4761 4.387 12.9392 4.31127 13.3894 4.15981C13.8396 4.00836 14.2458 3.79945 14.608 3.5331C14.9754 3.26152 15.2652 2.94555 15.4774 2.58519C15.6947 2.22483 15.8034 1.83575 15.8034 1.41794C15.8034 1.16203 15.7283 0.945293 15.5783 0.767724C15.4282 0.590155 15.1902 0.449145 14.8642 0.344693C14.4502 0.224572 13.9974 0.138399 13.5058 0.0861731C13.0142 0.0287244 12.5123 0 12 0C11.4929 0 10.9909 0.0287244 10.4942 0.0861731C10.0026 0.138399 9.55239 0.224572 9.14359 0.344693C8.81242 0.449145 8.5718 0.590155 8.42173 0.767724C8.27684 0.945293 8.20439 1.16203 8.20439 1.41794C8.20439 1.83575 8.31048 2.22483 8.52264 2.58519C8.73997 2.94555 9.02975 3.26152 9.39198 3.5331C9.7542 3.79945 10.1604 4.00836 10.6106 4.15981C11.066 4.31127 11.5291 4.387 12 4.387ZM12 3.36075C11.5188 3.36075 11.0815 3.2798 10.6882 3.1179C10.295 2.956 9.96895 2.73404 9.71022 2.45202C9.45148 2.16477 9.29107 1.83836 9.22897 1.47278C9.21863 1.42055 9.25226 1.37877 9.32988 1.34743C9.74385 1.23776 10.1759 1.15681 10.6261 1.10458C11.0763 1.04713 11.5343 1.01841 12 1.01841C12.4657 1.01841 12.9237 1.04713 13.3739 1.10458C13.8292 1.15681 14.2639 1.23776 14.6779 1.34743C14.7555 1.37877 14.7891 1.42055 14.7788 1.47278C14.7167 1.83836 14.5563 2.16477 14.2975 2.45202C14.0388 2.73404 13.7102 2.956 13.3118 3.1179C12.9185 3.2798 12.4812 3.36075 12 3.36075ZM11.4955 3.76028V8.98551H12.5123V3.76028H11.4955ZM1.66106 12.5421C1.96636 12.5421 2.24579 12.4664 2.49935 12.3149C2.75291 12.1582 2.95213 11.9546 3.09702 11.7039C3.24709 11.448 3.32212 11.1659 3.32212 10.8578C3.32212 10.5497 3.24709 10.2703 3.09702 10.0196C2.95213 9.76368 2.75291 9.55999 2.49935 9.40854C2.24579 9.25708 1.96636 9.18136 1.66106 9.18136C1.35576 9.18136 1.07633 9.25708 0.822768 9.40854C0.574385 9.55999 0.375161 9.76368 0.225097 10.0196C0.0750323 10.2703 0 10.5497 0 10.8578C0 11.1659 0.0750323 11.448 0.225097 11.7039C0.375161 11.9546 0.574385 12.1582 0.822768 12.3149C1.07633 12.4664 1.35576 12.5421 1.66106 12.5421ZM1.66106 11.6725C1.44372 11.6725 1.25485 11.5916 1.09444 11.4297C0.939197 11.2678 0.861578 11.0772 0.861578 10.8578C0.861578 10.6385 0.939197 10.4505 1.09444 10.2938C1.25485 10.1319 1.44372 10.0509 1.66106 10.0509C1.88357 10.0509 2.07244 10.1293 2.22768 10.2859C2.38292 10.4426 2.46054 10.6332 2.46054 10.8578C2.46054 11.0772 2.38033 11.2678 2.21992 11.4297C2.06468 11.5916 1.87839 11.6725 1.66106 11.6725ZM6.17852 12.5421C6.55627 12.5421 6.8978 12.4481 7.2031 12.2601C7.51358 12.0721 7.76196 11.824 7.94825 11.5159C8.13453 11.2025 8.22768 10.8578 8.22768 10.4818C8.22768 10.1005 8.13453 9.75584 7.94825 9.44771C7.76196 9.13435 7.51358 8.88367 7.2031 8.69565C6.8978 8.50764 6.55627 8.41363 6.17852 8.41363C5.80595 8.41363 5.46442 8.50764 5.15394 8.69565C4.84864 8.88367 4.60284 9.13435 4.41656 9.44771C4.23544 9.75584 4.14489 10.1005 4.14489 10.4818C4.14489 10.8578 4.23544 11.2025 4.41656 11.5159C4.60284 11.824 4.84864 12.0721 5.15394 12.2601C5.46442 12.4481 5.80595 12.5421 6.17852 12.5421ZM6.17852 11.5159C5.89909 11.5159 5.65847 11.414 5.45666 11.2103C5.26002 11.0067 5.1617 10.7638 5.1617 10.4818C5.1617 10.1945 5.26002 9.94908 5.45666 9.7454C5.65847 9.54172 5.89909 9.43987 6.17852 9.43987C6.46313 9.43987 6.70633 9.54172 6.90814 9.7454C7.10996 9.94908 7.21086 10.1945 7.21086 10.4818C7.21086 10.7638 7.10996 11.0067 6.90814 11.2103C6.70633 11.414 6.46313 11.5159 6.17852 11.5159ZM12.0078 14.3831C12.5407 14.3831 13.0272 14.2525 13.467 13.9914C13.9068 13.725 14.2561 13.3699 14.5149 12.926C14.7788 12.482 14.9107 11.9911 14.9107 11.4532C14.9107 10.91 14.7788 10.4165 14.5149 9.97258C14.2561 9.52866 13.9068 9.17613 13.467 8.915C13.0272 8.64865 12.5407 8.51547 12.0078 8.51547C11.4696 8.51547 10.9806 8.64865 10.5407 8.915C10.1009 9.17613 9.74903 9.52866 9.48512 9.97258C9.22639 10.4165 9.09702 10.91 9.09702 11.4532C9.09702 11.9911 9.22639 12.482 9.48512 12.926C9.74903 13.3699 10.1009 13.725 10.5407 13.9914C10.9806 14.2525 11.4696 14.3831 12.0078 14.3831ZM12 13.3568C11.6533 13.3568 11.3351 13.2733 11.0453 13.1061C10.7607 12.9338 10.533 12.704 10.3622 12.4168C10.1966 12.1243 10.1138 11.8031 10.1138 11.4532C10.1138 11.0981 10.1966 10.7769 10.3622 10.4896C10.533 10.1972 10.7607 9.96736 11.0453 9.80023C11.3351 9.62789 11.6533 9.54172 12 9.54172C12.3519 9.54172 12.6701 9.62789 12.9547 9.80023C13.2393 9.96736 13.467 10.1972 13.6378 10.4896C13.8085 10.7769 13.8939 11.0981 13.8939 11.4532C13.8939 11.8031 13.8085 12.1243 13.6378 12.4168C13.467 12.704 13.2393 12.9338 12.9547 13.1061C12.6701 13.2733 12.3519 13.3568 12 13.3568ZM17.8215 12.5421C18.194 12.5421 18.533 12.4481 18.8383 12.2601C19.1488 12.0721 19.3946 11.824 19.5757 11.5159C19.762 11.2025 19.8551 10.8578 19.8551 10.4818C19.8551 10.1005 19.762 9.75584 19.5757 9.44771C19.3946 9.13435 19.1488 8.88367 18.8383 8.69565C18.533 8.50764 18.194 8.41363 17.8215 8.41363C17.4437 8.41363 17.0996 8.50764 16.7891 8.69565C16.4838 8.88367 16.238 9.13435 16.0517 9.44771C15.8655 9.75584 15.7723 10.1005 15.7723 10.4818C15.7723 10.8578 15.8655 11.2025 16.0517 11.5159C16.238 11.824 16.4838 12.0721 16.7891 12.2601C17.0996 12.4481 17.4437 12.5421 17.8215 12.5421ZM17.8215 11.5159C17.5369 11.5159 17.2937 11.414 17.0918 11.2103C16.89 11.0067 16.7891 10.7638 16.7891 10.4818C16.7891 10.1945 16.89 9.94908 17.0918 9.7454C17.2937 9.54172 17.5369 9.43987 17.8215 9.43987C18.1009 9.43987 18.3389 9.54172 18.5356 9.7454C18.7374 9.94908 18.8383 10.1945 18.8383 10.4818C18.8383 10.7638 18.7374 11.0067 18.5356 11.2103C18.3389 11.414 18.1009 11.5159 17.8215 11.5159ZM22.3389 12.5421C22.6442 12.5421 22.9211 12.4664 23.1695 12.3149C23.423 12.1582 23.6248 11.9546 23.7749 11.7039C23.925 11.448 24 11.1659 24 10.8578C24 10.5497 23.925 10.2703 23.7749 10.0196C23.6248 9.76368 23.423 9.55999 23.1695 9.40854C22.9211 9.25708 22.6442 9.18136 22.3389 9.18136C22.0336 9.18136 21.7542 9.25708 21.5006 9.40854C21.2471 9.55999 21.0453 9.76368 20.8952 10.0196C20.7503 10.2703 20.6779 10.5497 20.6779 10.8578C20.6779 11.1659 20.7503 11.448 20.8952 11.7039C21.0453 11.9546 21.2471 12.1582 21.5006 12.3149C21.7542 12.4664 22.0336 12.5421 22.3389 12.5421ZM22.3389 11.6725C22.1216 11.6725 21.9327 11.5916 21.7723 11.4297C21.6171 11.2678 21.5394 11.0772 21.5394 10.8578C21.5394 10.6332 21.6171 10.4426 21.7723 10.2859C21.9275 10.1293 22.1164 10.0509 22.3389 10.0509C22.5563 10.0509 22.7426 10.1319 22.8978 10.2938C23.0582 10.4505 23.1384 10.6385 23.1384 10.8578C23.1384 11.0772 23.0582 11.2678 22.8978 11.4297C22.7426 11.5916 22.5563 11.6725 22.3389 11.6725ZM12.0078 20C12.3752 20 12.7115 19.906 13.0168 19.718C13.3273 19.5352 13.5731 19.2897 13.7542 18.9816C13.9405 18.6735 14.0336 18.3314 14.0336 17.9553C14.0336 17.5793 13.9405 17.2372 13.7542 16.9291C13.5731 16.621 13.3273 16.3729 13.0168 16.1849C12.7115 16.0021 12.3752 15.9107 12.0078 15.9107C11.6352 15.9107 11.2937 16.0021 10.9832 16.1849C10.6779 16.3729 10.4321 16.621 10.2458 16.9291C10.0647 17.2372 9.97412 17.5793 9.97412 17.9553C9.97412 18.3314 10.0647 18.6735 10.2458 18.9816C10.4321 19.2897 10.6779 19.5352 10.9832 19.718C11.2937 19.906 11.6352 20 12.0078 20ZM12.0078 18.9738C11.7283 18.9738 11.4877 18.8745 11.2859 18.6761C11.0893 18.4776 10.9909 18.2374 10.9909 17.9553C10.9909 17.6733 11.0893 17.4331 11.2859 17.2346C11.4877 17.0362 11.7283 16.9369 12.0078 16.9369C12.282 16.9369 12.5175 17.0362 12.7141 17.2346C12.9159 17.4331 13.0168 17.6733 13.0168 17.9553C13.0168 18.2374 12.9159 18.4776 12.7141 18.6761C12.5175 18.8745 12.282 18.9738 12.0078 18.9738ZM2.35187 12.0329H1.33506C1.34023 12.5499 1.4696 13.0121 1.72316 13.4195C1.98189 13.8269 2.31824 14.1611 2.73221 14.4222C3.15136 14.6782 3.60414 14.8427 4.09055 14.9158C4.58214 14.9889 5.07115 14.9523 5.55756 14.8061C6.04398 14.6547 6.48124 14.3726 6.86934 13.96L6.31824 13.1061C6.0595 13.43 5.75937 13.6571 5.41785 13.7877C5.0815 13.9183 4.7348 13.9679 4.37775 13.9365C4.02587 13.9052 3.69728 13.8086 3.39198 13.6467C3.08667 13.4796 2.83829 13.2576 2.64683 12.9808C2.45537 12.704 2.35705 12.388 2.35187 12.0329ZM6.68305 12.0329H5.66623C5.65588 12.5813 5.76455 13.0618 5.99223 13.4743C6.22509 13.8869 6.53816 14.2186 6.93143 14.4693C7.32988 14.7199 7.77231 14.874 8.25873 14.9315C8.74514 14.9889 9.24191 14.9341 9.74903 14.7669C10.2613 14.5998 10.7451 14.3047 11.2005 13.8817L10.2303 13.3647C9.837 13.6624 9.43079 13.8451 9.01164 13.913C8.59767 13.9757 8.21215 13.9418 7.8551 13.8112C7.49805 13.6754 7.21086 13.4561 6.99353 13.1532C6.77619 12.8502 6.6727 12.4768 6.68305 12.0329ZM17.3169 12.0329C17.3273 12.4768 17.2238 12.8502 17.0065 13.1532C16.7891 13.4561 16.5019 13.6754 16.1449 13.8112C15.7878 13.9418 15.3997 13.9757 14.9806 13.913C14.5614 13.8451 14.1578 13.6624 13.7697 13.3647L12.7995 13.8817C13.2548 14.3047 13.7361 14.5998 14.2432 14.7669C14.7555 14.9341 15.2548 14.9889 15.7413 14.9315C16.2277 14.874 16.6675 14.7199 17.0608 14.4693C17.4592 14.2186 17.7723 13.8869 18 13.4743C18.2328 13.0618 18.3441 12.5813 18.3338 12.0329H17.3169ZM21.6481 12.0329C21.6429 12.388 21.5446 12.704 21.3532 12.9808C21.1617 13.2576 20.9133 13.4796 20.608 13.6467C20.3027 13.8086 19.9715 13.9052 19.6145 13.9365C19.2626 13.9679 18.9159 13.9183 18.5744 13.7877C18.238 13.6571 17.9405 13.43 17.6817 13.1061L17.1306 13.96C17.5187 14.3726 17.956 14.6547 18.4424 14.8061C18.9288 14.9523 19.4153 14.9889 19.9017 14.9158C20.3933 14.8427 20.846 14.6782 21.26 14.4222C21.6792 14.1611 22.0155 13.8269 22.2691 13.4195C22.5278 13.0121 22.6598 12.5499 22.6649 12.0329H21.6481ZM11.4955 13.8582V16.5531H12.5123V13.8582H11.4955Z"
		fill="currentColor"
	/>
</svg>
