<svg
	color="rgb(var(--foreground, 0, 0, 0))"
	viewBox="0 0 24 20"
	fill="none"
	xmlns="http://www.w3.org/2000/svg"
>
	<path
		d="M12 4.3956C12.4776 4.3956 12.9423 4.31973 13.3939 4.16797C13.8456 4.01622 14.2531 3.80691 14.6165 3.54003C14.9851 3.26792 15.2758 2.95133 15.4887 2.59027C15.7067 2.2292 15.8157 1.83935 15.8157 1.42072C15.8157 1.16431 15.7404 0.947148 15.5899 0.769231C15.4393 0.591313 15.2005 0.450026 14.8735 0.345369C14.4582 0.225013 14.0039 0.138671 13.5107 0.0863422C13.0175 0.0287807 12.514 0 12 0C11.4913 0 10.9877 0.0287807 10.4893 0.0863422C9.99612 0.138671 9.54444 0.225013 9.13432 0.345369C8.80207 0.450026 8.56066 0.591313 8.41011 0.769231C8.26475 0.947148 8.19207 1.16431 8.19207 1.42072C8.19207 1.83935 8.2985 2.2292 8.51135 2.59027C8.72939 2.95133 9.02011 3.26792 9.38351 3.54003C9.74691 3.80691 10.1545 4.01622 10.6061 4.16797C11.063 4.31973 11.5276 4.3956 12 4.3956ZM11.4939 9.00314H12.514V3.76766H11.4939V9.00314ZM1.62751 12.5275C1.92862 12.5275 2.20117 12.4542 2.44516 12.3077C2.69435 12.1559 2.89163 11.9571 3.03699 11.7111C3.18235 11.46 3.25503 11.1826 3.25503 10.8791C3.25503 10.5756 3.18235 10.3009 3.03699 10.0549C2.89163 9.80377 2.69435 9.60492 2.44516 9.4584C2.20117 9.31188 1.92862 9.23862 1.62751 9.23862C1.32641 9.23862 1.05126 9.3145 0.802076 9.46625C0.558078 9.61277 0.3634 9.81162 0.21804 10.0628C0.07268 10.3087 0 10.5808 0 10.8791C0 11.1774 0.07268 11.4521 0.21804 11.7033C0.368591 11.9545 0.565866 12.1559 0.809863 12.3077C1.05905 12.4542 1.3316 12.5275 1.62751 12.5275ZM6.15963 12.5275C6.52822 12.5275 6.86566 12.4359 7.17196 12.2527C7.47825 12.0696 7.72225 11.8263 7.90395 11.5228C8.08565 11.214 8.1765 10.8739 8.1765 10.5024C8.1765 10.1308 8.08565 9.79069 7.90395 9.48195C7.72225 9.17321 7.47825 8.92726 7.17196 8.74411C6.86566 8.56096 6.52822 8.46939 6.15963 8.46939C5.79623 8.46939 5.46138 8.56096 5.15509 8.74411C4.85398 8.92726 4.61258 9.17321 4.43088 9.48195C4.24918 9.79069 4.15833 10.1308 4.15833 10.5024C4.15833 10.8739 4.24918 11.214 4.43088 11.5228C4.61258 11.8263 4.85398 12.0696 5.15509 12.2527C5.46138 12.4359 5.79623 12.5275 6.15963 12.5275ZM12.0078 14.3721C12.5373 14.3721 13.0175 14.2412 13.4484 13.9796C13.8845 13.7179 14.2323 13.37 14.4919 12.9356C14.7515 12.4961 14.8813 12.0094 14.8813 11.4757C14.8813 10.9367 14.7515 10.45 14.4919 10.0157C14.2323 9.57614 13.8845 9.22554 13.4484 8.96389C13.0175 8.70225 12.5373 8.57143 12.0078 8.57143C11.4731 8.57143 10.9877 8.70225 10.5516 8.96389C10.1207 9.22554 9.77546 9.57614 9.51589 10.0157C9.25632 10.45 9.12653 10.9367 9.12653 11.4757C9.12653 12.0094 9.25632 12.4961 9.51589 12.9356C9.77546 13.37 10.1207 13.7179 10.5516 13.9796C10.9877 14.2412 11.4731 14.3721 12.0078 14.3721ZM17.8404 12.5275C18.2038 12.5275 18.536 12.4359 18.8371 12.2527C19.1434 12.0696 19.3874 11.8263 19.5691 11.5228C19.7508 11.214 19.8417 10.8739 19.8417 10.5024C19.8417 10.1308 19.7508 9.79069 19.5691 9.48195C19.3874 9.17321 19.1434 8.92726 18.8371 8.74411C18.536 8.56096 18.2038 8.46939 17.8404 8.46939C17.4718 8.46939 17.1343 8.56096 16.828 8.74411C16.5217 8.92726 16.2778 9.17321 16.0961 9.48195C15.9144 9.79069 15.8235 10.1308 15.8235 10.5024C15.8235 10.8739 15.9144 11.214 16.0961 11.5228C16.2778 11.8263 16.5217 12.0696 16.828 12.2527C17.1343 12.4359 17.4718 12.5275 17.8404 12.5275ZM22.3725 12.5275C22.6684 12.5275 22.9384 12.4542 23.1824 12.3077C23.4315 12.1559 23.6288 11.9545 23.7742 11.7033C23.9247 11.4521 24 11.1774 24 10.8791C24 10.5808 23.9247 10.3087 23.7742 10.0628C23.6288 9.81162 23.4341 9.61277 23.1901 9.46625C22.9461 9.3145 22.6736 9.23862 22.3725 9.23862C22.0714 9.23862 21.7962 9.31188 21.5471 9.4584C21.3031 9.60492 21.1084 9.80377 20.963 10.0549C20.8177 10.3009 20.745 10.5756 20.745 10.8791C20.745 11.1826 20.8177 11.46 20.963 11.7111C21.1084 11.9571 21.3031 12.1559 21.5471 12.3077C21.7962 12.4542 22.0714 12.5275 22.3725 12.5275ZM12.0078 20C12.3712 20 12.7035 19.9084 13.0046 19.7253C13.3057 19.5474 13.5471 19.304 13.7288 18.9953C13.9105 18.6918 14.0013 18.3569 14.0013 17.9906C14.0013 17.6243 13.9105 17.2868 13.7288 16.978C13.5471 16.6745 13.3057 16.4312 13.0046 16.248C12.7035 16.0701 12.3712 15.9812 12.0078 15.9812C11.6392 15.9812 11.3044 16.0701 11.0033 16.248C10.7022 16.4312 10.4608 16.6745 10.2791 16.978C10.0974 17.2868 10.0065 17.6243 10.0065 17.9906C10.0065 18.3569 10.0974 18.6918 10.2791 18.9953C10.4608 19.304 10.7022 19.5474 11.0033 19.7253C11.3044 19.9084 11.6392 20 12.0078 20ZM2.32057 12.0565H1.30045C1.30564 12.5746 1.43543 13.0377 1.68981 13.4458C1.94938 13.854 2.28682 14.1889 2.70214 14.4506C3.12264 14.707 3.57689 14.8718 4.06489 14.9451C4.55807 15.0183 5.04866 14.9817 5.53666 14.8352C6.02465 14.6834 6.46333 14.4008 6.85268 13.9874L6.2998 13.1319C6.04023 13.4563 5.73912 13.6839 5.39649 13.8148C5.05905 13.9456 4.71122 13.9953 4.35301 13.9639C3.99999 13.9325 3.67034 13.8357 3.36405 13.6735C3.05775 13.506 2.80856 13.2836 2.61648 13.0063C2.4244 12.7289 2.32576 12.4123 2.32057 12.0565ZM6.66579 12.0565H5.64568C5.63529 12.606 5.74431 13.0874 5.97274 13.5008C6.20635 13.9142 6.52043 14.2465 6.91498 14.4976C7.31472 14.7488 7.75859 14.9032 8.24658 14.9608C8.73458 15.0183 9.23295 14.9634 9.74171 14.7959C10.2557 14.6285 10.7411 14.3328 11.1979 13.9089L10.2245 13.3909C9.83 13.6892 9.42244 13.8723 9.00194 13.9403C8.58662 14.0031 8.19986 13.9691 7.84165 13.8383C7.48344 13.7023 7.19532 13.4825 6.97728 13.179C6.75924 12.8755 6.65541 12.5013 6.66579 12.0565ZM17.3342 12.0565C17.3446 12.5013 17.2408 12.8755 17.0227 13.179C16.8047 13.4825 16.5166 13.7023 16.1583 13.8383C15.8001 13.9691 15.4108 14.0031 14.9903 13.9403C14.5698 13.8723 14.1648 13.6892 13.7755 13.3909L12.8021 13.9089C13.2589 14.3328 13.7417 14.6285 14.2505 14.7959C14.7645 14.9634 15.2654 15.0183 15.7534 14.9608C16.2414 14.9032 16.6827 14.7488 17.0772 14.4976C17.477 14.2465 17.7911 13.9142 18.0195 13.5008C18.2531 13.0874 18.3647 12.606 18.3543 12.0565H17.3342ZM21.6794 12.0565C21.6742 12.4123 21.5756 12.7289 21.3835 13.0063C21.1914 13.2836 20.9422 13.506 20.636 13.6735C20.3297 13.8357 19.9974 13.9325 19.6392 13.9639C19.2862 13.9953 18.9384 13.9456 18.5957 13.8148C18.2583 13.6839 17.9598 13.4563 17.7002 13.1319L17.1473 13.9874C17.5367 14.4008 17.9753 14.6834 18.4633 14.8352C18.9513 14.9817 19.4393 15.0183 19.9273 14.9451C20.4205 14.8718 20.8748 14.707 21.2901 14.4506C21.7106 14.1889 22.048 13.854 22.3024 13.4458C22.562 13.0377 22.6944 12.5746 22.6995 12.0565H21.6794ZM11.4939 13.8854V16.5856H12.514V13.8854H11.4939Z"
		fill="currentColor"
	/>
</svg>
