<svg
	color="rgb(var(--foreground, 0, 0, 0))"
	viewBox="0 0 13 18"
	fill="none"
	xmlns="http://www.w3.org/2000/svg"
>
	<path
		d="M1.848 16.572H5.952V0H1.848C1.29867 0 0.853333 0.169811 0.512 0.509434C0.170667 0.843911 0 1.28902 0 1.84477V14.7273C0 15.283 0.170667 15.7281 0.512 16.0626C0.853333 16.4022 1.29867 16.572 1.848 16.572ZM4 9.38593C3.77066 9.38593 3.57066 9.30617 3.4 9.14666C3.23466 8.98714 3.152 8.79674 3.152 8.57547C3.152 8.34906 3.23466 8.15609 3.4 7.99657C3.57066 7.83705 3.77066 7.75729 4 7.75729C4.23466 7.75729 4.43466 7.83705 4.6 7.99657C4.76533 8.15609 4.848 8.34906 4.848 8.57547C4.848 8.79674 4.76533 8.98714 4.6 9.14666C4.43466 9.30617 4.23466 9.38593 4 9.38593ZM11.152 16.572C11.7013 16.572 12.1467 16.4022 12.488 16.0626C12.8293 15.7281 13 15.283 13 14.7273V1.84477C13 1.28902 12.8293 0.843911 12.488 0.509434C12.1467 0.169811 11.7013 0 11.152 0H7.048V16.572H11.152ZM8.992 9.38593C8.76267 9.38593 8.56266 9.30617 8.39199 9.14666C8.22666 8.98714 8.14399 8.79674 8.14399 8.57547C8.14399 8.34906 8.22666 8.15609 8.39199 7.99657C8.56266 7.83705 8.76267 7.75729 8.992 7.75729C9.22667 7.75729 9.42667 7.83705 9.592 7.99657C9.75733 8.15609 9.84 8.34906 9.84 8.57547C9.84 8.79674 9.75733 8.98714 9.592 9.14666C9.42667 9.30617 9.22667 9.38593 8.992 9.38593ZM2.344 18C2.54133 18 2.70133 17.9408 2.824 17.8225C2.94666 17.7041 3.008 17.5472 3.008 17.3516V15.8002H1.68V17.3516C1.68 17.5472 1.74133 17.7041 1.864 17.8225C1.98667 17.9408 2.14667 18 2.344 18ZM10.656 18C10.8533 18 11.0133 17.9408 11.136 17.8225C11.2587 17.7041 11.32 17.5472 11.32 17.3516V15.8002H9.992V17.3516C9.992 17.5472 10.0533 17.7041 10.176 17.8225C10.2987 17.9408 10.4587 18 10.656 18Z"
		fill="currentColor"
	/>
</svg>
