<svg
	color="rgb(var(--foreground, 0, 0, 0))"
	viewBox="0 0 13 18"
	fill="none"
	xmlns="http://www.w3.org/2000/svg"
>
	<path
		d="M1.848 16.5471H11.152C11.7013 16.5471 12.1467 16.3743 12.488 16.0288C12.8293 15.6885 13 15.2356 13 14.6702V1.87696C13 1.31152 12.8293 0.858639 12.488 0.518325C12.1467 0.172775 11.7013 0 11.152 0H1.848C1.29867 0 0.853333 0.172775 0.512 0.518325C0.170667 0.858639 0 1.31152 0 1.87696V14.6702C0 15.2356 0.170667 15.6885 0.512 16.0288C0.853333 16.3743 1.29867 16.5471 1.848 16.5471ZM1.912 15.2827C1.72533 15.2827 1.57333 15.2251 1.456 15.1099C1.344 15 1.288 14.8508 1.288 14.6623V1.88482C1.288 1.69633 1.344 1.54712 1.456 1.43717C1.57333 1.32199 1.72533 1.2644 1.912 1.2644H11.088C11.2747 1.2644 11.424 1.32199 11.536 1.43717C11.6533 1.54712 11.712 1.69633 11.712 1.88482V14.6623C11.712 14.8508 11.6533 15 11.536 15.1099C11.424 15.2251 11.2747 15.2827 11.088 15.2827H1.912ZM5.976 15.8717H7.024V0.651832H5.976V15.8717ZM4.424 9.39267C4.65867 9.39267 4.85867 9.31152 5.024 9.14921C5.18933 8.98691 5.272 8.79319 5.272 8.56806C5.272 8.3377 5.18933 8.14136 5.024 7.97906C4.85867 7.81675 4.65867 7.7356 4.424 7.7356C4.19467 7.7356 3.99467 7.81675 3.824 7.97906C3.65867 8.14136 3.576 8.3377 3.576 8.56806C3.576 8.79319 3.65867 8.98691 3.824 9.14921C3.99467 9.31152 4.19467 9.39267 4.424 9.39267ZM8.568 9.39267C8.80267 9.39267 9.00267 9.31152 9.168 9.14921C9.33333 8.98691 9.416 8.79319 9.416 8.56806C9.416 8.3377 9.33333 8.14136 9.168 7.97906C9.00267 7.81675 8.80267 7.7356 8.568 7.7356C8.33867 7.7356 8.13867 7.81675 7.968 7.97906C7.80267 8.14136 7.72 8.3377 7.72 8.56806C7.72 8.79319 7.80267 8.98691 7.968 9.14921C8.13867 9.31152 8.33867 9.39267 8.568 9.39267ZM2.344 18C2.54133 18 2.70133 17.9398 2.824 17.8194C2.94667 17.699 3.008 17.5393 3.008 17.3403V15.7618H1.68V17.3403C1.68 17.5393 1.74133 17.699 1.864 17.8194C1.98667 17.9398 2.14667 18 2.344 18ZM10.656 18C10.8533 18 11.0133 17.9398 11.136 17.8194C11.2587 17.699 11.32 17.5393 11.32 17.3403V15.7618H9.992V17.3403C9.992 17.5393 10.0533 17.699 10.176 17.8194C10.2987 17.9398 10.4587 18 10.656 18Z"
		fill="currentColor"
	/>
</svg>
