<svg
	color="rgb(var(--foreground, 0, 0, 0))"
	viewBox="0 0 12 18"
	fill="none"
	xmlns="http://www.w3.org/2000/svg"
>
	<path
		d="M0.629922 17.5C0.8084 17.5 0.958007 17.4359 1.07874 17.3077C1.20473 17.1849 1.26772 17.0353 1.26772 16.8591V2.21442C1.26772 1.93135 1.40158 1.78982 1.66929 1.78982H10.3307C10.5984 1.78982 10.7323 1.93135 10.7323 2.21442V16.8591C10.7323 17.0353 10.7926 17.1849 10.9134 17.3077C11.0394 17.4359 11.1916 17.5 11.3701 17.5C11.5433 17.5 11.6903 17.4359 11.811 17.3077C11.937 17.1849 12 17.0353 12 16.8591V2.13431C12 1.64295 11.8478 1.24772 11.5433 0.948633C11.2441 0.649544 10.8478 0.5 10.3543 0.5H1.64567C1.15223 0.5 0.753282 0.649544 0.448819 0.948633C0.149606 1.24772 0 1.64295 0 2.13431V16.8591C0 17.0353 0.0603675 17.1849 0.181103 17.3077C0.307087 17.4359 0.456694 17.5 0.629922 17.5ZM2.4567 17.2196H9.55118C9.72441 17.2196 9.81102 17.1288 9.81102 16.9472V2.99152C9.81102 2.80993 9.72441 2.71913 9.55118 2.71913H2.4567C2.27822 2.71913 2.18898 2.80993 2.18898 2.99152V16.9472C2.18898 17.1288 2.27822 17.2196 2.4567 17.2196ZM7.937 10.7785C7.76377 10.7785 7.61417 10.7171 7.48818 10.5943C7.36745 10.4661 7.30708 10.3139 7.30708 10.1376C7.30708 9.95602 7.36745 9.8038 7.48818 9.68096C7.61417 9.55812 7.76377 9.4967 7.937 9.4967C8.11548 9.4967 8.26509 9.55812 8.38582 9.68096C8.50656 9.8038 8.56693 9.95602 8.56693 10.1376C8.56693 10.3139 8.50656 10.4661 8.38582 10.5943C8.26509 10.7171 8.11548 10.7785 7.937 10.7785Z"
		fill="currentColor"
	/>
</svg>
