<svg
	color="rgb(var(--foreground, 0, 0, 0))"
	viewBox="0 0 16 18"
	fill="none"
	xmlns="http://www.w3.org/2000/svg"
>
	<path
		d="M8.00395 15.6505C9.10486 15.6505 10.1373 15.447 11.1012 15.0399C12.0705 14.638 12.9212 14.079 13.6533 13.3628C14.3908 12.6466 14.9649 11.8171 15.3758 10.8742C15.7919 9.92615 16 8.91112 16 7.82911C16 6.7471 15.7919 5.73465 15.3758 4.79176C14.9649 3.84371 14.3908 3.01159 13.6533 2.29541C12.9212 1.57922 12.0705 1.0176 11.1012 0.610563C10.1373 0.203521 9.10486 0 8.00395 0C6.89778 0 5.86008 0.203521 4.89086 0.610563C3.92691 1.01245 3.07621 1.57407 2.33877 2.29541C1.60658 3.01159 1.03243 3.84371 0.616296 4.79176C0.205432 5.73465 0 6.7471 0 7.82911C0 8.91112 0.205432 9.92615 0.616296 10.8742C1.03243 11.8171 1.60658 12.6466 2.33877 13.3628C3.07621 14.079 3.92691 14.638 4.89086 15.0399C5.86008 15.447 6.89778 15.6505 8.00395 15.6505ZM8.00395 14.4062C7.0716 14.4062 6.19984 14.2362 5.38864 13.8961C4.57745 13.556 3.86107 13.0846 3.23951 12.4818C2.62321 11.8789 2.14123 11.1808 1.79358 10.3873C1.44593 9.58866 1.2721 8.73594 1.2721 7.82911C1.2721 6.91713 1.44593 6.0644 1.79358 5.27093C2.14123 4.47746 2.62321 3.7793 3.23951 3.17647C3.86107 2.56848 4.57745 2.09446 5.38864 1.7544C6.19984 1.41434 7.0716 1.24431 8.00395 1.24431C8.93103 1.24431 9.80016 1.41434 10.6114 1.7544C11.4278 2.09446 12.1442 2.56848 12.7605 3.17647C13.3768 3.7793 13.8588 4.47746 14.2064 5.27093C14.5541 6.0644 14.7279 6.91713 14.7279 7.82911C14.7279 8.73594 14.5541 9.58866 14.2064 10.3873C13.8588 11.1808 13.3768 11.8789 12.7605 12.4818C12.1442 13.0846 11.4278 13.556 10.6114 13.8961C9.80016 14.2362 8.93103 14.4062 8.00395 14.4062ZM5.48346 12.7445C6.07342 12.7445 6.54749 12.5101 6.90568 12.0412C7.26914 11.5723 7.62206 10.8974 7.96444 10.0163C8.04346 10.0215 8.1172 10.0215 8.18568 10.0163C8.25942 10.0112 8.33053 10.0034 8.39901 9.99313V11.7475C8.39901 12.1906 8.51226 12.5307 8.73877 12.7677C8.96527 12.9996 9.29975 13.1155 9.74222 13.1155C10.1478 13.1155 10.5429 13.0356 10.9274 12.8759C11.3119 12.7162 11.6596 12.5024 11.9704 12.2344C12.2812 11.9665 12.5261 11.6677 12.7052 11.3379C12.8895 11.0082 12.9817 10.6758 12.9817 10.3409C12.9817 9.76385 12.7447 9.3027 12.2706 8.95749C11.8018 8.60713 11.1276 8.26964 10.2479 7.94504C10.2532 7.86775 10.2532 7.79304 10.2479 7.72091C10.2479 7.64362 10.2426 7.56376 10.2321 7.48132H11.9625C12.4155 7.48132 12.7605 7.37054 12.9975 7.14899C13.2398 6.92744 13.361 6.60026 13.361 6.16745C13.361 5.77587 13.2767 5.39201 13.1081 5.01589C12.9449 4.63461 12.7263 4.29455 12.4523 3.99571C12.1837 3.69171 11.8808 3.44955 11.5437 3.26921C11.2066 3.08888 10.8668 2.99871 10.5244 2.99871C9.94502 2.99871 9.47621 3.22542 9.11802 3.67883C8.75984 4.12709 8.41745 4.7763 8.09086 5.62645C8.01712 5.62645 7.93811 5.62903 7.85383 5.63418C7.76955 5.63418 7.6879 5.64448 7.60889 5.66509V3.99571C7.60889 3.5526 7.49564 3.21511 7.26914 2.98325C7.04263 2.7514 6.70815 2.63547 6.26568 2.63547C5.86008 2.63547 5.46502 2.71533 5.08049 2.87505C4.69597 3.03478 4.34831 3.2486 4.03753 3.51653C3.72675 3.78446 3.47918 4.0833 3.29481 4.41305C3.11045 4.73766 3.01827 5.06999 3.01827 5.41005C3.01827 5.98197 3.25531 6.44311 3.72938 6.79347C4.20346 7.14384 4.88033 7.48132 5.76 7.80593C5.76 7.87806 5.76263 7.95535 5.7679 8.03778C5.77844 8.12022 5.7916 8.19493 5.80741 8.26192H4.03753C3.58979 8.26192 3.24477 8.37269 3.00247 8.59425C2.76543 8.8158 2.64691 9.14298 2.64691 9.57578C2.64691 9.97252 2.72856 10.359 2.89185 10.7351C3.05514 11.1112 3.27374 11.4513 3.54765 11.7553C3.82156 12.0593 4.12444 12.3014 4.4563 12.4818C4.79342 12.6569 5.1358 12.7445 5.48346 12.7445ZM8.00395 8.97295C7.6879 8.97295 7.41926 8.86732 7.19802 8.65608C6.98206 8.44483 6.87407 8.18463 6.87407 7.87548C6.87407 7.56634 6.98206 7.30614 7.19802 7.09489C7.41926 6.87849 7.6879 6.77029 8.00395 6.77029C8.31473 6.77029 8.57811 6.87849 8.79407 7.09489C9.01531 7.30614 9.12593 7.56634 9.12593 7.87548C9.12593 8.18463 9.01531 8.44483 8.79407 8.65608C8.57811 8.86732 8.31473 8.97295 8.00395 8.97295ZM7.36395 15.1713V17.2658H8.63605V15.1713H7.36395ZM3.8084 18H12.1916C12.3391 18 12.4576 17.9536 12.5472 17.8609C12.6367 17.7681 12.6815 17.6445 12.6815 17.4899C12.6815 17.2014 12.5682 16.9644 12.3417 16.7789C12.1205 16.5934 11.8229 16.5006 11.4489 16.5006H4.55901C4.18502 16.5006 3.88477 16.5934 3.65827 16.7789C3.43704 16.9644 3.32642 17.2014 3.32642 17.4899C3.32642 17.6445 3.36856 17.7681 3.45284 17.8609C3.54239 17.9536 3.66091 18 3.8084 18Z"
		fill="currentColor"
	/>
</svg>
