<svg
	color="rgb(var(--foreground, 0, 0, 0))"
	viewBox="0 0 12 18"
	fill="none"
	xmlns="http://www.w3.org/2000/svg"
>
	<path
		d="M5.99624 12.1569C6.82279 12.1569 7.59925 12.0061 8.32561 11.7044C9.05197 11.4027 9.69067 10.9842 10.2417 10.4489C10.7927 9.91363 11.2235 9.29562 11.5341 8.59489C11.8447 7.8893 12 7.13504 12 6.33212C12 5.5292 11.8447 4.77494 11.5341 4.06934C11.2235 3.36375 10.7927 2.74574 10.2417 2.21533C9.69067 1.68005 9.05197 1.26156 8.32561 0.959854C7.59925 0.653285 6.82279 0.5 5.99624 0.5C5.16969 0.5 4.39324 0.650852 3.66688 0.952555C2.94552 1.25426 2.30933 1.67275 1.7583 2.20803C1.20726 2.74331 0.776456 3.36375 0.465874 4.06934C0.155291 4.77494 0 5.5292 0 6.33212C0 7.13504 0.155291 7.8893 0.465874 8.59489C0.776456 9.29562 1.20726 9.91363 1.7583 10.4489C2.30933 10.9842 2.94552 11.4027 3.66688 11.7044C4.39324 12.0061 5.16969 12.1569 5.99624 12.1569ZM6.00376 11.0912C5.32749 11.0912 4.6938 10.9672 4.10269 10.719C3.51158 10.4708 2.99061 10.1302 2.53976 9.69708C2.09393 9.25912 1.74327 8.75304 1.48779 8.17883C1.23732 7.60462 1.11209 6.98662 1.11209 6.32482C1.11209 5.66788 1.23732 5.05231 1.48779 4.4781C1.74327 3.90389 2.09393 3.40024 2.53976 2.96715C2.99061 2.5292 3.51158 2.18856 4.10269 1.94526C4.6938 1.69708 5.32749 1.57299 6.00376 1.57299C6.68003 1.57299 7.31371 1.69708 7.90482 1.94526C8.50094 2.18856 9.02192 2.5292 9.46775 2.96715C9.9186 3.40024 10.2693 3.90389 10.5197 4.4781C10.7702 5.05231 10.8954 5.66788 10.8954 6.32482C10.8954 6.98662 10.7702 7.60462 10.5197 8.17883C10.2693 8.75304 9.9186 9.25912 9.46775 9.69708C9.02192 10.1302 8.50094 10.4708 7.90482 10.719C7.31371 10.9672 6.68003 11.0912 6.00376 11.0912ZM4.15529 9.92336C4.5861 9.92336 4.93425 9.75304 5.19975 9.41241C5.47026 9.06691 5.72824 8.57056 5.9737 7.92336C6.03381 7.92822 6.08892 7.93066 6.13901 7.93066C6.1891 7.92579 6.2417 7.91606 6.29681 7.90146V9.20803C6.29681 9.5292 6.37946 9.77494 6.54477 9.94526C6.71008 10.1156 6.95554 10.2007 7.28115 10.2007C7.6819 10.2007 8.06512 10.101 8.43081 9.90146C8.79649 9.69708 9.09455 9.43917 9.32498 9.12774C9.56043 8.8163 9.67815 8.49757 9.67815 8.17153C9.67815 7.74818 9.50282 7.40998 9.15216 7.15693C8.80651 6.89903 8.30808 6.65328 7.65686 6.41971C7.66187 6.36131 7.66187 6.30535 7.65686 6.25182C7.65686 6.19343 7.65435 6.13504 7.64934 6.07664H8.92674C9.25736 6.07664 9.51033 5.99635 9.68566 5.83577C9.86099 5.67032 9.94865 5.42944 9.94865 5.11314C9.94865 4.72871 9.84596 4.35888 9.64058 4.00365C9.43519 3.64842 9.1722 3.35888 8.8516 3.13504C8.531 2.91119 8.20038 2.79927 7.85974 2.79927C7.43895 2.79927 7.0958 2.96472 6.83031 3.29562C6.56481 3.62652 6.31434 4.10097 6.0789 4.71898C6.01878 4.71898 5.95617 4.72141 5.89105 4.72628C5.83093 4.72628 5.77332 4.73358 5.71822 4.74818V3.5219C5.71822 3.20073 5.63306 2.95499 5.46274 2.78467C5.29743 2.60949 5.05448 2.5219 4.73388 2.5219C4.33312 2.5219 3.94991 2.62409 3.58422 2.82847C3.21853 3.02798 2.91797 3.28346 2.68253 3.59489C2.44709 3.90633 2.32937 4.22749 2.32937 4.55839C2.32937 4.97689 2.5047 5.31508 2.85535 5.57299C3.20601 5.82603 3.70695 6.07178 4.35817 6.31022C4.35817 6.36375 4.36068 6.42214 4.36569 6.4854C4.3707 6.5438 4.37821 6.59732 4.38823 6.64599H3.08829C2.75767 6.64599 2.50219 6.72628 2.32185 6.88686C2.14652 7.04745 2.05886 7.28589 2.05886 7.60219C2.05886 7.99148 2.16155 8.36375 2.36694 8.71898C2.57733 9.07421 2.84283 9.36375 3.16343 9.58759C3.48403 9.81144 3.81465 9.92336 4.15529 9.92336ZM6.00376 7.17153C5.77332 7.17153 5.57545 7.09367 5.41014 6.93796C5.24984 6.78224 5.16969 6.59246 5.16969 6.36861C5.16969 6.1399 5.24984 5.94769 5.41014 5.79197C5.57545 5.63139 5.77332 5.5511 6.00376 5.5511C6.23419 5.5511 6.42956 5.63139 6.58986 5.79197C6.75517 5.94769 6.83782 6.1399 6.83782 6.36861C6.83782 6.59246 6.75517 6.78224 6.58986 6.93796C6.42956 7.09367 6.23419 7.17153 6.00376 7.17153ZM5.40263 11.9526V17.0182H6.6124V11.9526H5.40263ZM2.62242 17.5H9.37758C9.51785 17.5 9.62805 17.4562 9.7082 17.3686C9.79336 17.281 9.83594 17.1642 9.83594 17.0182C9.83594 16.7457 9.72824 16.5219 9.51284 16.3467C9.30244 16.1715 9.01941 16.0839 8.66374 16.0839H3.32874C2.97307 16.0839 2.68754 16.1715 2.47214 16.3467C2.26174 16.5219 2.15654 16.7457 2.15654 17.0182C2.15654 17.1642 2.19912 17.281 2.28428 17.3686C2.36944 17.4562 2.48215 17.5 2.62242 17.5Z"
		fill="currentColor"
	/>
</svg>
