<svg
	color="rgb(var(--foreground, 0, 0, 0))"
	viewBox="0 0 16 18"
	fill="none"
	xmlns="http://www.w3.org/2000/svg"
>
	<path
		d="M3.80839 18H12.1916C12.3391 18 12.4576 17.9536 12.5472 17.8609C12.6367 17.7681 12.6815 17.6445 12.6815 17.4899C12.6815 17.2014 12.5682 16.9644 12.3417 16.7789C12.1205 16.5934 11.8229 16.5006 11.4489 16.5006H8.63605V15.6273C9.66848 15.55 10.6298 15.295 11.52 14.8622C12.4102 14.4294 13.1898 13.86 13.8588 13.1541C14.533 12.4483 15.0571 11.6419 15.4311 10.7351C15.8104 9.82825 16 8.8596 16 7.82911C16 6.7471 15.7919 5.73465 15.3758 4.79176C14.9649 3.84371 14.3908 3.01159 13.6533 2.29541C12.9212 1.57922 12.0704 1.0176 11.1012 0.610562C10.1373 0.203521 9.10485 0 8.00395 0C6.89778 0 5.86008 0.203521 4.89086 0.610562C3.92691 1.01245 3.07621 1.57407 2.33876 2.29541C1.60658 3.01159 1.03243 3.84371 0.616296 4.79176C0.205432 5.73465 0 6.7471 0 7.82911C0 8.8596 0.186996 9.82825 0.560988 10.7351C0.940247 11.6419 1.46436 12.4483 2.13333 13.1541C2.80757 13.86 3.58979 14.4294 4.48 14.8622C5.37547 15.295 6.33679 15.55 7.36395 15.6273V16.5006H4.55901C4.18502 16.5006 3.88477 16.5934 3.65827 16.7789C3.43704 16.9644 3.32642 17.2014 3.32642 17.4899C3.32642 17.6445 3.36856 17.7681 3.45284 17.8609C3.54239 17.9536 3.6609 18 3.80839 18ZM5.40444 12.8991C5.04625 12.8991 4.69333 12.8064 4.34568 12.6209C4.00329 12.4354 3.68988 12.1881 3.40543 11.8789C3.12625 11.5646 2.90239 11.2143 2.73383 10.8278C2.56527 10.4362 2.48099 10.0369 2.48099 9.62988C2.48099 9.18162 2.60477 8.84414 2.85234 8.61743C3.09992 8.39073 3.45547 8.27737 3.91901 8.27737H5.73629C5.72049 8.20524 5.70732 8.12795 5.69679 8.04551C5.69152 7.95792 5.68889 7.87806 5.68889 7.80592C4.78288 7.47102 4.08494 7.12323 3.59506 6.76256C3.10518 6.40189 2.86025 5.92529 2.86025 5.33276C2.86025 4.9824 2.95506 4.63976 3.14469 4.30485C3.33432 3.96479 3.58979 3.65822 3.91111 3.38514C4.23243 3.10691 4.59062 2.88536 4.98568 2.72048C5.38601 2.5556 5.79424 2.47316 6.21037 2.47316C6.66864 2.47316 7.01366 2.59425 7.24543 2.83641C7.4772 3.07342 7.59308 3.42121 7.59308 3.87978V5.59553C7.6721 5.57492 7.75638 5.56462 7.84592 5.56462C7.93547 5.55947 8.01712 5.55689 8.09086 5.55689C8.42798 4.68098 8.7809 4.01116 9.14963 3.54745C9.51835 3.07857 10.003 2.84414 10.6035 2.84414C10.9564 2.84414 11.304 2.93688 11.6464 3.12237C11.9941 3.30786 12.3075 3.55775 12.5867 3.87205C12.8711 4.18119 13.0976 4.53156 13.2662 4.92314C13.44 5.30957 13.5269 5.70631 13.5269 6.11335C13.5269 6.56161 13.4031 6.8991 13.1556 7.1258C12.908 7.35251 12.5498 7.46586 12.081 7.46586H10.3032C10.3137 7.55346 10.319 7.63589 10.319 7.71318C10.3243 7.78532 10.3243 7.8626 10.319 7.94504C11.225 8.27995 11.9203 8.62774 12.4049 8.98841C12.8948 9.34908 13.1397 9.82568 13.1397 10.4182C13.1397 10.7634 13.0449 11.1061 12.8553 11.4461C12.6657 11.781 12.4102 12.0876 12.0889 12.3658C11.7728 12.6441 11.4146 12.8656 11.0143 13.0305C10.6193 13.1954 10.2137 13.2778 9.79753 13.2778C9.33926 13.2778 8.99424 13.1567 8.76247 12.9146C8.5307 12.6724 8.41481 12.322 8.41481 11.8635V10.0627C8.34107 10.073 8.26732 10.0807 8.19358 10.0859C8.1251 10.091 8.04872 10.091 7.96444 10.0859C7.61152 10.9927 7.24806 11.6883 6.87407 12.1726C6.50008 12.6569 6.0102 12.8991 5.40444 12.8991ZM8.00395 9.00386C8.32527 9.00386 8.59654 8.89566 8.81778 8.67926C9.04428 8.45771 9.15753 8.18978 9.15753 7.87548C9.15753 7.56118 9.04428 7.29326 8.81778 7.0717C8.59654 6.85015 8.32527 6.73937 8.00395 6.73937C7.67736 6.73937 7.40082 6.85015 7.17432 7.0717C6.95308 7.29326 6.84247 7.56118 6.84247 7.87548C6.84247 8.18978 6.95572 8.45771 7.18222 8.67926C7.40872 8.89566 7.68263 9.00386 8.00395 9.00386Z"
		fill="currentColor"
	/>
</svg>
