<svg
	color="rgb(var(--foreground, 0, 0, 0))"
	viewBox="0 0 12 18"
	fill="none"
	xmlns="http://www.w3.org/2000/svg"
>
	<path
		d="M2.62241 17.5H9.37758C9.51784 17.5 9.62805 17.4562 9.7082 17.3686C9.79336 17.281 9.83594 17.1642 9.83594 17.0182C9.83594 16.7457 9.72824 16.5219 9.51283 16.3467C9.30244 16.1715 9.01941 16.0839 8.66374 16.0839H6.61239V12.1204C7.36881 12.0474 8.07263 11.8479 8.72385 11.5219C9.38008 11.191 9.95366 10.7652 10.4446 10.2445C10.9355 9.71898 11.3162 9.12287 11.5867 8.4562C11.8622 7.78954 12 7.08151 12 6.33212C12 5.5292 11.8447 4.77494 11.5341 4.06934C11.2235 3.36375 10.7927 2.74574 10.2417 2.21533C9.69067 1.68005 9.05197 1.26156 8.32561 0.959854C7.59924 0.653285 6.82279 0.5 5.99624 0.5C5.16968 0.5 4.39323 0.650852 3.66687 0.952555C2.94551 1.25426 2.30932 1.67275 1.75828 2.20803C1.20725 2.74331 0.776457 3.36375 0.465874 4.06934C0.155291 4.77494 0 5.5292 0 6.33212C0 7.08637 0.137758 7.79684 0.413275 8.4635C0.688792 9.13017 1.072 9.72628 1.56292 10.2518C2.05384 10.7725 2.62741 11.1983 3.28365 11.5292C3.93988 11.8552 4.6462 12.0547 5.40262 12.1277V16.0839H3.32873C2.97306 16.0839 2.68753 16.1715 2.47212 16.3467C2.26173 16.5219 2.15653 16.7457 2.15653 17.0182C2.15653 17.1642 2.19911 17.281 2.28427 17.3686C2.36943 17.4562 2.48214 17.5 2.62241 17.5ZM4.09517 10.0328C3.74451 10.0328 3.40387 9.91849 3.07325 9.68978C2.74764 9.4562 2.47713 9.15693 2.26173 8.79197C2.04632 8.42701 1.93862 8.04258 1.93862 7.63869C1.93862 7.31752 2.02879 7.07421 2.20913 6.90876C2.39448 6.73844 2.65747 6.65328 2.99811 6.65328H4.33562C4.3256 6.60462 4.31809 6.54866 4.31308 6.4854C4.30807 6.42214 4.30556 6.36375 4.30556 6.31022C3.6343 6.06691 3.11834 5.81387 2.75766 5.5511C2.39698 5.28345 2.21664 4.93309 2.21664 4.5C2.21664 4.16423 2.33687 3.83577 2.57732 3.5146C2.82278 3.19343 3.13336 2.92822 3.50907 2.71898C3.88477 2.50973 4.28052 2.40511 4.6963 2.40511C5.02692 2.40511 5.27739 2.49513 5.44771 2.67518C5.62304 2.85523 5.7107 3.10827 5.7107 3.43431V4.69708C5.7658 4.68248 5.82592 4.67518 5.89104 4.67518C5.95616 4.67032 6.01878 4.66788 6.07889 4.66788C6.31934 4.03041 6.57733 3.54136 6.85284 3.20073C7.12836 2.8601 7.48403 2.68978 7.91984 2.68978C8.26549 2.68978 8.60363 2.80657 8.93425 3.04015C9.26487 3.26886 9.53538 3.56569 9.74577 3.93066C9.96117 4.29562 10.0689 4.67762 10.0689 5.07664C10.0689 5.40268 9.97871 5.65085 9.79837 5.82117C9.61803 5.98662 9.35754 6.06934 9.0169 6.06934H7.70194C7.70695 6.12774 7.70945 6.18613 7.70945 6.24453C7.71446 6.30292 7.71446 6.36131 7.70945 6.41971C8.38071 6.65815 8.89417 6.91119 9.24984 7.17883C9.61052 7.44161 9.79086 7.79197 9.79086 8.22993C9.79086 8.56569 9.67063 8.89416 9.43018 9.21533C9.18973 9.5365 8.87914 9.8017 8.49843 10.0109C8.12273 10.2153 7.72949 10.3175 7.31872 10.3175C6.9881 10.3175 6.73512 10.2299 6.55979 10.0547C6.38947 9.87956 6.30431 9.62652 6.30431 9.29562V7.95255C6.24921 7.96715 6.19411 7.97689 6.139 7.98175C6.08891 7.98175 6.03381 7.97932 5.97369 7.97445C5.71821 8.64112 5.45272 9.15207 5.1772 9.5073C4.90168 9.85766 4.54101 10.0328 4.09517 10.0328ZM6.00375 7.19343C6.2442 7.19343 6.44708 7.11314 6.61239 6.95255C6.7777 6.79197 6.86036 6.59732 6.86036 6.36861C6.86036 6.13017 6.7777 5.93066 6.61239 5.77007C6.44708 5.60949 6.2442 5.5292 6.00375 5.5292C5.7633 5.5292 5.56042 5.60949 5.39511 5.77007C5.2298 5.93066 5.14714 6.13017 5.14714 6.36861C5.14714 6.59732 5.2298 6.79197 5.39511 6.95255C5.56042 7.11314 5.7633 7.19343 6.00375 7.19343Z"
		fill="currentColor"
	/>
</svg>
