<svg
	color="rgb(var(--foreground, 0, 0, 0))"
	viewBox="0 0 17 18"
	fill="none"
	xmlns="http://www.w3.org/2000/svg"
>
	<path
		d="M12.4735 1.06877C11.7836 1.06877 11.1832 1.28206 10.6724 1.70864C10.1616 2.13522 9.70864 2.75666 9.31366 3.57295C8.91868 4.38398 8.54476 5.37144 8.19191 6.53531L10.0799 8.42333H14.7486C15.4754 8.42333 16.031 8.23637 16.4154 7.86245C16.8051 7.48327 17 6.94083 17 6.23513C17 5.60316 16.871 4.98172 16.6129 4.37082C16.3549 3.75465 16.0073 3.19904 15.5702 2.704C15.1383 2.20895 14.6538 1.81397 14.1166 1.51905C13.5795 1.21887 13.0318 1.06877 12.4735 1.06877ZM12.4735 2.27742C12.8685 2.27742 13.2608 2.39591 13.6506 2.6329C14.0455 2.86462 14.4037 3.17271 14.7249 3.55716C15.0462 3.9416 15.3042 4.36818 15.4991 4.83689C15.6939 5.30561 15.7914 5.77168 15.7914 6.23513C15.7914 6.60378 15.715 6.8592 15.5623 7.00139C15.4095 7.14359 15.1383 7.21468 14.7486 7.21468H9.26626C9.59278 6.1456 9.90613 5.24504 10.2063 4.51301C10.5118 3.78098 10.8436 3.22537 11.2017 2.84619C11.5598 2.46701 11.9837 2.27742 12.4735 2.27742ZM4.52649 16.9233C5.21639 16.9233 5.81413 16.71 6.3197 16.2835C6.83054 15.8621 7.28346 15.2486 7.67844 14.4428C8.07868 13.6318 8.45523 12.647 8.80808 11.4884L6.88847 9.56877H2.25139C1.52989 9.56877 0.974287 9.75836 0.584572 10.1375C0.194857 10.5115 0 11.0513 0 11.757C0 12.3889 0.129027 13.013 0.387082 13.6292C0.645136 14.2401 0.990086 14.7931 1.42193 15.2881C1.85905 15.7884 2.34619 16.186 2.88336 16.4809C3.42054 16.7759 3.96825 16.9233 4.52649 16.9233ZM4.52649 15.7147C4.1315 15.7147 3.73652 15.5988 3.34154 15.3671C2.95183 15.1354 2.59634 14.8273 2.27509 14.4428C1.95384 14.0531 1.69579 13.6265 1.50093 13.1631C1.30607 12.6944 1.20864 12.2257 1.20864 11.757C1.20864 11.3883 1.28501 11.1329 1.43773 10.9907C1.59046 10.8485 1.86168 10.7774 2.25139 10.7774H7.73373C7.41248 11.8465 7.09913 12.7497 6.79368 13.487C6.49349 14.219 6.16171 14.772 5.79833 15.1459C5.44021 15.5251 5.01626 15.7147 4.52649 15.7147ZM5.74303 0.5C5.26905 0.5 4.79771 0.578996 4.329 0.736989C3.86555 0.889715 3.42844 1.09774 3.01766 1.36106L3.91032 2.24582C4.1947 2.07729 4.49225 1.94563 4.80297 1.85084C5.11896 1.75604 5.43231 1.70864 5.74303 1.70864C6.11168 1.70864 6.3671 1.78501 6.50929 1.93773C6.65149 2.09046 6.72258 2.36431 6.72258 2.75929V5.05808L7.93122 6.26673V2.75929C7.93122 2.03253 7.74163 1.47429 7.36245 1.08457C6.98854 0.694857 6.44873 0.5 5.74303 0.5ZM0.576673 5.02649C0.576673 5.78485 0.829461 6.43525 1.33504 6.97769C1.84061 7.52013 2.57001 8.00464 3.52323 8.43122C4.48172 8.85254 5.63507 9.26332 6.98327 9.66357L4.86617 7.54647C3.84975 7.21995 3.08085 6.86447 2.55948 6.48002C2.04337 6.0903 1.78532 5.60579 1.78532 5.02649C1.78532 4.94222 1.79322 4.86323 1.80901 4.7895C1.82481 4.7105 1.84851 4.6315 1.88011 4.55251L0.924256 3.59665C0.813662 3.82838 0.726766 4.06536 0.663569 4.30762C0.605638 4.54461 0.576673 4.78423 0.576673 5.02649ZM16.4312 12.9735C16.4312 12.2151 16.1758 11.5647 15.665 11.0223C15.1541 10.4799 14.4195 9.99798 13.461 9.57667C12.5025 9.15009 11.3465 8.73668 9.99303 8.33643L12.1022 10.4456C13.1344 10.7721 13.9112 11.1329 14.4326 11.5279C14.9593 11.9176 15.2226 12.3995 15.2226 12.9735C15.2226 13.0578 15.2147 13.142 15.1989 13.2263C15.1831 13.3106 15.1594 13.3922 15.1278 13.4712L16.0836 14.427C16.1942 14.1953 16.2785 13.9583 16.3364 13.7161C16.3996 13.4686 16.4312 13.221 16.4312 12.9735ZM11.2649 17.5C11.7388 17.4947 12.2076 17.4184 12.671 17.2709C13.1344 17.1234 13.5689 16.9181 13.9744 16.6547L13.0897 15.7621C12.8053 15.9306 12.5077 16.0596 12.197 16.1492C11.8863 16.244 11.5756 16.2914 11.2649 16.2914C10.8962 16.2914 10.6408 16.215 10.4986 16.0623C10.3564 15.9095 10.2853 15.6383 10.2853 15.2486V12.9656L9.07667 11.757V15.2486C9.07667 15.9754 9.26363 16.531 9.63754 16.9154C10.0167 17.3051 10.5592 17.5 11.2649 17.5ZM15.3095 16.6863C15.4306 16.8075 15.5754 16.8654 15.744 16.8601C15.9125 16.8601 16.0547 16.7996 16.1705 16.6784C16.2917 16.5573 16.3522 16.4125 16.3522 16.244C16.3522 16.0807 16.2917 15.9385 16.1705 15.8174L1.68262 1.32946C1.56676 1.20833 1.42193 1.14777 1.24814 1.14777C1.07962 1.14777 0.934789 1.20833 0.813662 1.32946C0.6978 1.44532 0.63987 1.59015 0.63987 1.76394C0.63987 1.93247 0.6978 2.07466 0.813662 2.19052L15.3095 16.6863Z"
		fill="currentColor"
	/>
</svg>
