<svg
	color="rgb(var(--foreground, 0, 0, 0))"
	viewBox="0 0 17 18"
	fill="none"
	xmlns="http://www.w3.org/2000/svg"
>
	<path
		d="M12.4793 1.06087C11.7838 1.06087 11.1805 1.27416 10.6695 1.70074C10.1584 2.12732 9.70262 2.74876 9.30219 3.56506C8.90702 4.38135 8.5382 5.37144 8.19573 6.53532L10.0925 8.42333H14.7555C15.4826 8.42333 16.0384 8.23637 16.4231 7.86245C16.8077 7.48327 17 6.94083 17 6.23513C17 5.60316 16.8709 4.98172 16.6127 4.37082C16.3546 3.75465 16.0068 3.19904 15.5695 2.704C15.1375 2.20369 14.6527 1.80607 14.1153 1.51115C13.5831 1.21097 13.0378 1.06087 12.4793 1.06087ZM4.52859 16.9233C5.21881 16.9233 5.81947 16.71 6.33055 16.2835C6.84163 15.8621 7.29475 15.2486 7.68991 14.4428C8.08508 13.6318 8.45917 12.647 8.81218 11.4884L6.89168 9.57667H2.26034C1.5227 9.57667 0.961569 9.76363 0.576941 10.1375C0.192314 10.5062 0 11.046 0 11.757C0.00526887 12.3889 0.136991 13.013 0.395165 13.6292C0.65334 14.2401 0.998451 14.7931 1.4305 15.2881C1.86255 15.7884 2.34728 16.186 2.88471 16.4809C3.42213 16.7759 3.97009 16.9233 4.52859 16.9233ZM5.7536 0.5C5.27941 0.5 4.80784 0.578996 4.33891 0.736989C3.86998 0.889715 3.43267 1.09774 3.02697 1.36106L7.93492 6.26673V2.75929C7.93492 2.03253 7.74524 1.47429 7.36588 1.08457C6.99179 0.694858 6.45436 0.5 5.7536 0.5ZM0.576941 5.02649C0.576941 5.78485 0.829847 6.43525 1.33566 6.97769C1.84147 7.52014 2.57121 8.00465 3.52487 8.43123C4.48381 8.85254 5.63769 9.26332 6.98652 9.66357L0.924686 3.59665C0.81404 3.82838 0.727104 4.06537 0.663877 4.30762C0.60592 4.54461 0.576941 4.78423 0.576941 5.02649ZM16.4389 12.9735C16.4389 12.2151 16.1833 11.5647 15.6722 11.0223C15.1664 10.4799 14.4314 9.99799 13.4672 9.57667C12.5083 9.15009 11.3518 8.73668 9.99768 8.33643L16.0911 14.427C16.2018 14.1953 16.2861 13.9583 16.344 13.7161C16.4073 13.4686 16.4389 13.221 16.4389 12.9735ZM11.2701 17.5C11.7443 17.4947 12.2132 17.4184 12.6769 17.2709C13.1406 17.1235 13.5752 16.9181 13.9809 16.6547L9.0809 11.757V15.2486C9.0809 15.9754 9.27057 16.531 9.64993 16.9154C10.0293 17.3051 10.5694 17.5 11.2701 17.5ZM15.3245 16.6863C15.4404 16.8075 15.5827 16.8654 15.7513 16.8601C15.9252 16.8601 16.07 16.7996 16.186 16.6784C16.3019 16.5573 16.3598 16.4125 16.3598 16.244C16.3598 16.0807 16.3019 15.9385 16.186 15.8174L1.6834 1.32946C1.56749 1.20833 1.42259 1.14777 1.24872 1.14777C1.08012 1.14777 0.935224 1.20833 0.81404 1.32946C0.698125 1.44532 0.640168 1.59015 0.640168 1.76394C0.640168 1.93247 0.698125 2.07466 0.81404 2.19052L15.3245 16.6863Z"
		fill="currentColor"
	/>
</svg>
