<svg
	color="rgb(var(--foreground, 0, 0, 0))"
	viewBox="0 0 17 18"
	fill="none"
	xmlns="http://www.w3.org/2000/svg"
>
	<path
		d="M0 11.775C0 12.4164 0.129933 13.0446 0.389799 13.6595C0.649665 14.2691 0.997036 14.8204 1.43191 15.3134C1.86679 15.8064 2.3494 16.1986 2.87974 16.4902C3.41538 16.7817 3.95633 16.9275 4.50257 16.9275C5.16019 16.9275 5.725 16.734 6.19701 16.3471C6.66901 15.9601 7.09593 15.3955 7.47777 14.6534C7.86492 13.9113 8.26002 13.0128 8.66308 11.9579C8.6949 11.9579 8.72672 11.9579 8.75854 11.9579C8.79566 11.9526 8.83014 11.9473 8.86196 11.942C8.96802 11.9367 9.05818 11.9234 9.13243 11.9022V15.2816C9.13243 16.0078 9.31274 16.5591 9.67337 16.9355C10.0393 17.3118 10.5723 17.5 11.2723 17.5C11.9141 17.5 12.5399 17.3701 13.1497 17.1104C13.7649 16.8506 14.3191 16.5034 14.8124 16.0688C15.3056 15.6341 15.698 15.1517 15.9897 14.6216C16.2867 14.0862 16.4352 13.5455 16.4352 12.9995C16.4352 12.3369 16.239 11.7724 15.8465 11.3059C15.4594 10.8341 14.8946 10.4047 14.1521 10.0178C13.4149 9.63081 12.516 9.23854 11.4553 8.84097C11.4553 8.80917 11.4527 8.77736 11.4474 8.74556C11.4474 8.70845 11.4447 8.67399 11.4394 8.64219C11.4394 8.59448 11.4341 8.54942 11.4235 8.50702C11.4182 8.45931 11.4102 8.4116 11.3996 8.36389H14.7885C15.5097 8.36389 16.0586 8.18366 16.4352 7.8232C16.8117 7.45744 17 6.9247 17 6.22498C17 5.58357 16.8701 4.95806 16.6102 4.34846C16.3503 3.73355 16.003 3.17961 15.5681 2.68662C15.1332 2.19364 14.6479 1.80137 14.1123 1.50982C13.582 1.21297 13.0437 1.06455 12.4974 1.06455C11.8398 1.06455 11.275 1.26068 10.803 1.65295C10.331 2.03991 9.90142 2.60446 9.51427 3.34659C9.12712 4.08871 8.73467 4.98722 8.33692 6.0421C8.3051 6.0421 8.27063 6.04475 8.23351 6.05005C8.20168 6.05005 8.16986 6.0527 8.13804 6.058C8.09031 6.0633 8.04258 6.0686 7.99485 6.0739C7.95243 6.0792 7.91 6.08715 7.86757 6.09775V2.71843C7.86757 1.9922 7.6846 1.44091 7.31867 1.06455C6.95804 0.688182 6.4277 0.5 5.72766 0.5C5.08595 0.5 4.45749 0.629872 3.8423 0.889616C3.23241 1.14936 2.68086 1.49657 2.18765 1.93124C1.69443 2.36592 1.29933 2.85095 1.00234 3.38634C0.710654 3.91643 0.56481 4.45447 0.56481 5.00047C0.56481 5.65778 0.758384 6.22233 1.14553 6.69411C1.53798 7.16589 2.10279 7.59526 2.83996 7.98223C3.58244 8.36389 4.48136 8.75616 5.53673 9.15903C5.54204 9.19613 5.54469 9.23324 5.54469 9.27035C5.54469 9.30745 5.54734 9.34191 5.55264 9.37371C5.55795 9.41612 5.56325 9.45853 5.56855 9.50093C5.57916 9.54334 5.58712 9.5884 5.59242 9.63611H2.21151C1.49025 9.63611 0.941351 9.81899 0.56481 10.1848C0.18827 10.5452 0 11.0753 0 11.775ZM6.6584 9C6.6584 8.66074 6.7406 8.35329 6.90501 8.07764C7.06941 7.79669 7.2895 7.57406 7.56528 7.40973C7.84636 7.2401 8.15661 7.15528 8.49602 7.15528C8.83544 7.15528 9.14569 7.23745 9.42677 7.40178C9.70785 7.5661 9.93059 7.78874 10.095 8.06969C10.2594 8.35064 10.3416 8.66074 10.3416 9C10.3416 9.33926 10.2594 9.64936 10.095 9.93031C9.93059 10.206 9.70785 10.4286 9.42677 10.5982C9.14569 10.7626 8.83544 10.8447 8.49602 10.8447C8.15661 10.8447 7.84636 10.7626 7.56528 10.5982C7.2895 10.4286 7.06941 10.206 6.90501 9.93031C6.7406 9.64936 6.6584 9.33926 6.6584 9ZM7.40618 9C7.40618 9.30215 7.50959 9.55924 7.71642 9.77128C7.92856 9.97802 8.18843 10.0814 8.49602 10.0814C8.79832 10.0814 9.05288 9.97802 9.25971 9.77128C9.47184 9.55924 9.57791 9.30215 9.57791 9C9.57791 8.69785 9.47184 8.44075 9.25971 8.22872C9.05288 8.01668 8.79832 7.91066 8.49602 7.91066C8.18843 7.91066 7.92856 8.01668 7.71642 8.22872C7.50959 8.44075 7.40618 8.69785 7.40618 9Z"
		fill="currentColor"
	/>
</svg>
