<svg
	color="rgb(var(--foreground, 0, 0, 0))"
	viewBox="0 0 17 18"
	fill="none"
	xmlns="http://www.w3.org/2000/svg"
>
	<path
		d="M8.49605 11.994C9.04928 11.994 9.55246 11.8597 10.0056 11.5911C10.4587 11.3225 10.8196 10.9617 11.0883 10.5088C11.3623 10.0559 11.4993 9.55297 11.4993 9C11.4993 8.44703 11.3623 7.94408 11.0883 7.49117C10.8196 7.03826 10.4587 6.67751 10.0056 6.40892C9.55246 6.13507 9.04928 5.99814 8.49605 5.99814C7.94282 5.99814 7.43964 6.13507 6.98652 6.40892C6.5334 6.67751 6.17248 7.03826 5.90377 7.49117C5.63505 7.94408 5.5007 8.44703 5.5007 9C5.5007 9.55297 5.63505 10.0559 5.90377 10.5088C6.17248 10.9617 6.5334 11.3225 6.98652 11.5911C7.43964 11.8597 7.94282 11.994 8.49605 11.994ZM8.49605 10.7774C8.16938 10.7774 7.87169 10.6984 7.60298 10.5404C7.33426 10.3772 7.11824 10.1612 6.95491 9.89266C6.79684 9.62407 6.71781 9.32652 6.71781 9C6.71781 8.67348 6.79684 8.37593 6.95491 8.10734C7.11824 7.83349 7.33426 7.61757 7.60298 7.45957C7.87169 7.29631 8.16938 7.21468 8.49605 7.21468C8.82272 7.21468 9.12041 7.29631 9.38912 7.45957C9.6631 7.61757 9.87913 7.83349 10.0372 8.10734C10.2005 8.37593 10.2822 8.67348 10.2822 9C10.2822 9.32652 10.2005 9.62407 10.0372 9.89266C9.87913 10.1612 9.6631 10.3772 9.38912 10.5404C9.12041 10.6984 8.82272 10.7774 8.49605 10.7774ZM8.49605 10.1217C8.81218 10.1217 9.07826 10.0138 9.29428 9.79786C9.51557 9.57667 9.62622 9.31072 9.62622 9C9.62622 8.68928 9.51557 8.42333 9.29428 8.20214C9.07299 7.97568 8.80691 7.86245 8.49605 7.86245C8.17992 7.86245 7.9112 7.97305 7.68991 8.19424C7.47389 8.41543 7.36588 8.68402 7.36588 9C7.36588 9.31598 7.47389 9.58194 7.68991 9.79786C7.9112 10.0138 8.17992 10.1217 8.49605 10.1217ZM7.92701 6.57481V2.75929C7.92701 2.03253 7.73733 1.47429 7.35797 1.08457C6.98388 0.694858 6.44382 0.5 5.7378 0.5C5.10553 0.5 4.48117 0.629027 3.86471 0.887082C3.25353 1.14514 2.70029 1.49272 2.20502 1.92983C1.70975 2.36168 1.31195 2.84619 1.01162 3.38336C0.716566 3.92054 0.569038 4.46825 0.569038 5.02649C0.569038 5.70585 0.771889 6.29833 1.17759 6.8039C1.58856 7.30421 2.17868 7.75449 2.94793 8.15474C3.72245 8.54972 4.65768 8.92627 5.7536 9.28439L6.25941 8.13894C5.29521 7.81769 4.47854 7.5096 3.80939 7.21468C3.14551 6.9145 2.6397 6.59325 2.29196 6.25093C1.94948 5.90335 1.77824 5.4952 1.77824 5.02649C1.77824 4.63151 1.89416 4.23916 2.12599 3.84944C2.36309 3.45446 2.67395 3.09634 3.05858 2.77509C3.4432 2.45384 3.86998 2.19579 4.33891 2.00093C4.80784 1.80607 5.27414 1.70864 5.7378 1.70864C6.10662 1.70864 6.36216 1.78501 6.50442 1.93773C6.64668 2.09046 6.71781 2.36431 6.71781 2.75929V6.9224L7.92701 6.57481ZM10.9224 8.42333H14.7476C15.4747 8.42333 16.0305 8.23637 16.4152 7.86245C16.8051 7.48854 17 6.94873 17 6.24303C17 5.61106 16.8709 4.98962 16.6127 4.37872C16.3546 3.76255 16.0068 3.20694 15.5695 2.7119C15.1375 2.21159 14.6527 1.81397 14.1153 1.51905C13.5779 1.21887 13.0299 1.06877 12.4714 1.06877C11.7917 1.06877 11.199 1.27416 10.6932 1.68494C10.1926 2.09046 9.74214 2.6803 9.3417 3.45446C8.94654 4.22862 8.56981 5.16605 8.21153 6.26673L9.35751 6.77231C9.67891 5.80328 9.98714 4.98436 10.2822 4.31552C10.5825 3.64669 10.9039 3.14111 11.2464 2.79879C11.5941 2.45121 12.0025 2.27742 12.4714 2.27742C12.8666 2.27742 13.2591 2.39591 13.649 2.6329C14.0442 2.86462 14.4024 3.17534 14.7239 3.56506C15.0453 3.9495 15.3034 4.37608 15.4984 4.8448C15.6933 5.31351 15.7908 5.77958 15.7908 6.24303C15.7908 6.61168 15.7144 6.8671 15.5616 7.00929C15.4088 7.14622 15.1375 7.21468 14.7476 7.21468H10.5746L10.9224 8.42333ZM9.07299 11.4252V15.2486C9.07299 15.9754 9.26003 16.531 9.63412 16.9154C10.0082 17.3051 10.5483 17.5 11.2543 17.5C11.8866 17.5 12.5083 17.371 13.1195 17.1129C13.7359 16.8549 14.2918 16.5073 14.7871 16.0702C15.2876 15.6383 15.6854 15.1564 15.9805 14.6245C16.2808 14.0874 16.431 13.537 16.431 12.9735C16.431 12.2941 16.2255 11.7043 15.8145 11.204C15.4088 10.6984 14.8187 10.2481 14.0442 9.85316C13.2696 9.45291 12.3344 9.07373 11.2385 8.71561L10.7327 9.86106C11.6969 10.1823 12.5136 10.493 13.1827 10.7932C13.8519 11.0881 14.3577 11.4094 14.7001 11.757C15.0479 12.0993 15.2218 12.5048 15.2218 12.9735C15.2218 13.3685 15.1032 13.7635 14.8661 14.1585C14.6343 14.5482 14.3234 14.9037 13.9335 15.2249C13.5489 15.5462 13.1221 15.8042 12.6532 15.9991C12.1895 16.1939 11.7232 16.2887 11.2543 16.2835C10.8855 16.2835 10.6299 16.2071 10.4877 16.0544C10.3507 15.9069 10.2822 15.6383 10.2822 15.2486V11.0776L9.07299 11.4252ZM6.06974 9.56877H2.24454C1.5227 9.56877 0.966837 9.75836 0.576941 10.1375C0.192314 10.5115 0 11.0513 0 11.757C0 12.3889 0.129087 13.013 0.387262 13.6292C0.645436 14.2401 0.990547 14.7931 1.42259 15.2881C1.85464 15.7884 2.33938 16.186 2.8768 16.4809C3.41423 16.7811 3.96219 16.9312 4.52069 16.9312C5.20037 16.9312 5.79049 16.7258 6.29103 16.3151C6.79684 15.9095 7.24733 15.3197 7.64249 14.5455C8.04293 13.7714 8.42229 12.8366 8.78057 11.7412L7.63459 11.2356C7.31319 12.1993 7.00233 13.0156 6.702 13.6845C6.40694 14.348 6.08554 14.851 5.7378 15.1933C5.39532 15.5409 4.98962 15.7147 4.52069 15.7147C4.12552 15.7147 3.73299 15.5988 3.3431 15.3671C2.9532 15.1354 2.59492 14.8273 2.26825 14.4428C1.94685 14.0531 1.68867 13.6265 1.49372 13.1631C1.30404 12.6944 1.20921 12.2257 1.20921 11.757C1.20921 11.3883 1.28297 11.1329 1.4305 10.9907C1.58329 10.8485 1.85464 10.7774 2.24454 10.7774H6.41748L6.06974 9.56877Z"
		fill="currentColor"
	/>
</svg>
