<svg
	color="rgb(var(--foreground, 0, 0, 0))"
	viewBox="0 0 19 16"
	fill="none"
	xmlns="http://www.w3.org/2000/svg"
>
	<path
		d="M8.69506 1.35669L4.5906 0.91248C4.2293 0.870174 3.93176 0.952142 3.69798 1.15838C3.46952 1.35933 3.35528 1.62903 3.35528 1.96748C3.35528 2.31121 3.46952 2.5862 3.69798 2.79244C3.93176 2.99339 4.2293 3.07536 4.5906 3.03834L8.69506 2.5862V1.35669ZM9.42031 3.44289C9.6966 3.44289 9.94632 3.37678 10.1695 3.24458C10.3926 3.11237 10.5706 2.93522 10.7034 2.71311C10.8363 2.49101 10.9027 2.24246 10.9027 1.96748C10.9027 1.69778 10.8363 1.45188 10.7034 1.22977C10.5706 1.00767 10.3926 0.830513 10.1695 0.698308C9.94632 0.566103 9.6966 0.5 9.42031 0.5C9.14934 0.5 8.90227 0.566103 8.67912 0.698308C8.45597 0.830513 8.27797 1.00767 8.14514 1.22977C8.01231 1.45188 7.9459 1.69778 7.9459 1.96748C7.9459 2.24246 8.01231 2.49101 8.14514 2.71311C8.27797 2.93522 8.45597 3.11237 8.67912 3.24458C8.90227 3.37678 9.14934 3.44289 9.42031 3.44289ZM10.1456 1.35669V2.5862L14.258 3.03834C14.614 3.07536 14.9062 2.99339 15.1347 2.79244C15.3684 2.5862 15.4853 2.31121 15.4853 1.96748C15.4853 1.62903 15.3684 1.35933 15.1347 1.15838C14.9062 0.952142 14.614 0.870174 14.258 0.91248L10.1456 1.35669ZM8.71897 2.87176V4.75172H10.1296V2.87176H8.71897ZM7.19674 6.27472H11.6279V5.23559C11.6279 4.92359 11.535 4.67768 11.349 4.49788C11.1684 4.3128 10.9213 4.22025 10.6078 4.22025H8.2089C7.89542 4.22025 7.64836 4.3128 7.46771 4.49788C7.28706 4.67768 7.19674 4.92359 7.19674 5.23559V6.27472ZM9.41234 14.1832C9.85334 14.1832 10.2465 14.1251 10.5919 14.0087C10.9372 13.8977 11.256 13.7417 11.5482 13.5407C11.8458 13.3345 12.1433 13.0965 12.4409 12.8268C12.6215 12.647 12.8208 12.5122 13.0386 12.4223C13.2617 12.3324 13.4769 12.2874 13.6841 12.2874C14.0773 12.2874 14.4121 12.4276 14.6883 12.7078C14.9646 12.9881 15.1028 13.39 15.1028 13.9135V15.0161C15.1028 15.1854 15.14 15.307 15.2143 15.381C15.294 15.4603 15.4189 15.5 15.5889 15.5H18.5059C18.6759 15.5 18.8008 15.4603 18.8805 15.381C18.9602 15.307 19 15.1854 19 15.0161V14.2784C19 13.1467 18.8486 12.1975 18.5457 11.4307C18.2482 10.6586 17.8444 10.0399 17.3343 9.57456C16.8296 9.10391 16.2664 8.76547 15.6447 8.55923C15.0231 8.35299 14.3881 8.24987 13.7399 8.24987H13.3972C13.2857 8.24987 13.1927 8.22343 13.1183 8.17054C13.0439 8.11237 12.9908 8.03834 12.9589 7.94844L12.4727 6.63961C12.3984 6.43866 12.3187 6.30645 12.2336 6.24299C12.1486 6.17425 12.0185 6.13987 11.8431 6.13987H6.97358C6.79825 6.13987 6.66808 6.17425 6.58306 6.24299C6.49805 6.30645 6.41835 6.43866 6.34397 6.63961L5.86577 7.94844C5.82857 8.03834 5.77279 8.11237 5.6984 8.17054C5.62402 8.22343 5.53369 8.24987 5.42743 8.24987H0.741191V12.2398H5.15646C5.40086 12.2398 5.60011 12.2689 5.75419 12.3271C5.90827 12.38 6.073 12.5069 6.24833 12.7078C6.50868 12.9881 6.79825 13.2393 7.11704 13.4614C7.43583 13.6835 7.7865 13.858 8.16905 13.9849C8.5516 14.1171 8.96603 14.1832 9.41234 14.1832ZM0.637583 14.2388C0.818232 14.2388 0.969658 14.1753 1.09186 14.0484C1.21938 13.9215 1.28314 13.7708 1.28314 13.5962V7.11555C1.28314 6.94104 1.21938 6.79032 1.09186 6.66341C0.969658 6.53649 0.818232 6.47303 0.637583 6.47303C0.462248 6.47303 0.310822 6.53649 0.183305 6.66341C0.0611017 6.79032 0 6.94104 0 7.11555V13.5962C0 13.7708 0.0611017 13.9215 0.183305 14.0484C0.310822 14.1753 0.462248 14.2388 0.637583 14.2388Z"
		fill="currentColor"
	/>
</svg>
