<svg
	color="rgb(var(--foreground, 0, 0, 0))"
	viewBox="0 0 19 16"
	fill="none"
	xmlns="http://www.w3.org/2000/svg"
>
	<path
		d="M8.587 1.34331L4.53356 0.89823C4.17675 0.861791 3.88291 0.942478 3.65203 1.14029C3.4264 1.33811 3.31359 1.60619 3.31359 1.94456C3.31359 2.28293 3.4264 2.55362 3.65203 2.75664C3.88291 2.95445 4.17675 3.03254 4.53356 2.99089L8.587 2.55362V1.34331ZM9.30324 3.38912C9.57609 3.38912 9.82271 3.32665 10.0431 3.20172C10.2635 3.07158 10.4393 2.89719 10.5704 2.67855C10.7016 2.45471 10.7672 2.21005 10.7672 1.94456C10.7672 1.67907 10.7016 1.43701 10.5704 1.21838C10.4393 0.99974 10.2635 0.825351 10.0431 0.695211C9.82271 0.56507 9.57609 0.5 9.30324 0.5C9.03563 0.5 8.79164 0.56507 8.57126 0.695211C8.35088 0.825351 8.1751 0.99974 8.04392 1.21838C7.91274 1.43701 7.84715 1.67907 7.84715 1.94456C7.84715 2.21005 7.91274 2.45471 8.04392 2.67855C8.1751 2.89719 8.35088 3.07158 8.57126 3.20172C8.79164 3.32665 9.03563 3.38912 9.30324 3.38912ZM10.0195 1.34331V2.55362L14.0808 2.99089C14.4323 3.03254 14.7209 2.95445 14.9466 2.75664C15.1774 2.55362 15.2929 2.28293 15.2929 1.94456C15.2929 1.60619 15.1774 1.33811 14.9466 1.14029C14.7209 0.942478 14.4323 0.861791 14.0808 0.89823L10.0195 1.34331ZM8.61061 2.83472V4.67751H10.0037V2.83472H8.61061ZM10.5783 6.3329H11.6487V5.16163C11.6487 4.82327 11.5412 4.54737 11.326 4.33394C11.1109 4.1153 10.8328 4.00599 10.4917 4.00599H8.09901C7.75795 4.00599 7.47722 4.1153 7.25684 4.33394C7.04171 4.54737 6.93414 4.82327 6.93414 5.16163V6.3329H8.00456V5.27876C8.00456 5.0341 8.12787 4.91177 8.37449 4.91177H10.2162C10.4576 4.91177 10.5783 5.0341 10.5783 5.27876V6.3329ZM9.29537 14.196C9.75187 14.196 10.1612 14.1361 10.5232 14.0164C10.8853 13.9019 11.2211 13.7379 11.5307 13.5245C11.8402 13.311 12.1472 13.0664 12.4515 12.7905C12.609 12.6395 12.7795 12.525 12.9631 12.4469C13.152 12.3688 13.3357 12.3298 13.5141 12.3298C13.8394 12.3298 14.1149 12.4469 14.3405 12.6812C14.5661 12.9102 14.679 13.2486 14.679 13.6963V14.7894C14.679 15.0029 14.7445 15.1746 14.8757 15.3048C15.0069 15.4349 15.1801 15.5 15.3952 15.5H18.2759C18.491 15.5 18.6642 15.4323 18.7954 15.297C18.9318 15.1668 19 14.9977 19 14.7894V14.0554C19 12.9102 18.84 11.9446 18.5199 11.1585C18.2051 10.3673 17.7827 9.73217 17.2527 9.25325C16.728 8.77434 16.1455 8.42816 15.5054 8.21473C14.8652 7.9961 14.2198 7.88678 13.5692 7.88678H13.2307C13.1258 7.88678 13.055 7.83993 13.0182 7.74623L12.5381 6.46564C12.3807 6.02837 12.1 5.80973 11.696 5.80973H6.88692C6.48813 5.80973 6.20741 6.02837 6.04474 6.46564L5.5725 7.74623C5.53052 7.83993 5.45968 7.88678 5.35999 7.88678H0.503729V9.02681H5.4387C5.81124 9.02681 6.07885 8.95393 6.24151 8.80817C6.40418 8.66242 6.53536 8.45679 6.63505 8.19131L7.09156 6.94977H11.4992L11.9557 8.19131C12.0554 8.45679 12.1839 8.66242 12.3414 8.80817C12.504 8.95393 12.7742 9.02681 13.152 9.02681H13.5613C14.1385 9.02681 14.6842 9.1153 15.1984 9.2923C15.7179 9.46929 16.177 9.75299 16.5758 10.1434C16.9746 10.5338 17.2868 11.0518 17.5124 11.6973C17.7433 12.3376 17.8587 13.1236 17.8587 14.0554V14.36H15.8281V13.6963C15.8281 13.1861 15.7599 12.767 15.6234 12.4391C15.487 12.1111 15.306 11.8561 15.0804 11.6739C14.86 11.4917 14.6186 11.3641 14.3563 11.2913C14.0939 11.2132 13.8368 11.1741 13.5849 11.1741C13.1914 11.1741 12.8398 11.2496 12.5302 11.4006C12.2207 11.5463 11.9268 11.752 11.6487 12.0174C11.4808 12.1684 11.2893 12.3246 11.0742 12.4859C10.859 12.6473 10.6072 12.7827 10.3186 12.892C10.03 13.0013 9.68891 13.056 9.29537 13.056C8.89134 13.056 8.53978 13.0039 8.24069 12.8998C7.9416 12.7905 7.67662 12.6473 7.44574 12.4703C7.22011 12.2933 7.01547 12.1033 6.83182 11.9003C6.66916 11.7077 6.50912 11.5567 6.3517 11.4474C6.19954 11.3381 6.029 11.2626 5.8401 11.221C5.65121 11.1741 5.42295 11.1507 5.15535 11.1507H0.503729V12.2907H5.09238C5.31276 12.2907 5.48067 12.3142 5.59611 12.361C5.71155 12.4027 5.84273 12.5042 5.98965 12.6655C6.25725 12.9571 6.55897 13.2199 6.89479 13.4542C7.23061 13.6832 7.59791 13.8628 7.99669 13.993C8.40073 14.1283 8.83362 14.196 9.29537 14.196ZM0.629661 14.0242C0.808065 14.0242 0.957609 13.9617 1.07829 13.8368C1.20423 13.7119 1.26719 13.5635 1.26719 13.3917V7.01223C1.26719 6.84045 1.20423 6.69209 1.07829 6.56715C0.957609 6.44222 0.808065 6.37975 0.629661 6.37975C0.456504 6.37975 0.30696 6.44222 0.181028 6.56715C0.0603425 6.69209 0 6.84045 0 7.01223V13.3917C0 13.5635 0.0603425 13.7119 0.181028 13.8368C0.30696 13.9617 0.456504 14.0242 0.629661 14.0242Z"
		fill="currentColor"
	/>
</svg>
