<svg
	color="rgb(var(--foreground, 0, 0, 0))"
	viewBox="0 0 18 16"
	fill="none"
	xmlns="http://www.w3.org/2000/svg"
>
	<path
		d="M0.834646 3.46162H17.1654C17.4121 3.46162 17.6115 3.38451 17.7638 3.23031C17.9213 3.07079 18 2.86341 18 2.60818V0.837488C18 0.592888 17.9213 0.393486 17.7638 0.239282C17.6115 0.0797607 17.4121 0 17.1654 0H0.834646C0.587927 0 0.385827 0.0797607 0.228346 0.239282C0.0761155 0.393486 0 0.592888 0 0.837488V2.60818C0 2.86341 0.0761155 3.07079 0.228346 3.23031C0.385827 3.38451 0.587927 3.46162 0.834646 3.46162ZM1.81102 15.33H16.189V4.38684H1.81102V15.33ZM4.41732 14.7159V7.00299C4.41732 6.65736 4.51706 6.38618 4.71654 6.18943C4.91601 5.98737 5.18373 5.88634 5.51968 5.88634H12.4803C12.8163 5.88634 13.084 5.98737 13.2835 6.18943C13.4829 6.38618 13.5827 6.65736 13.5827 7.00299V14.7159H12.5906V7.29013C12.5906 7.01894 12.4593 6.88335 12.1969 6.88335H5.80315C5.54068 6.88335 5.40945 7.01894 5.40945 7.29013V14.7159H4.41732ZM8.91339 13.9023C8.30971 13.9023 7.82415 13.7401 7.45669 13.4158C7.08924 13.0914 6.90551 12.6607 6.90551 12.1236C6.90551 11.8152 6.93963 11.56 7.00787 11.3579C7.08136 11.1505 7.15486 10.9591 7.22835 10.7836C7.30184 10.6082 7.33858 10.4114 7.33858 10.1934C7.33858 10.1456 7.33596 10.0924 7.33071 10.0339C7.33071 9.97541 7.33071 9.93021 7.33071 9.8983C7.33071 9.79196 7.3832 9.73878 7.48819 9.73878C7.60367 9.73878 7.72179 9.78398 7.84252 9.87438C7.9685 9.96477 8.06824 10.0818 8.14173 10.2253C8.15748 9.9116 8.10499 9.63509 7.98425 9.39581C7.86352 9.15121 7.72179 8.92522 7.55906 8.71785C7.46982 8.60086 7.45407 8.49718 7.51181 8.40678C7.5748 8.31638 7.69291 8.27119 7.86614 8.27119C8.20735 8.27119 8.56955 8.335 8.95276 8.46261C9.33596 8.59023 9.69554 8.78697 10.0315 9.05284C10.3727 9.31871 10.6483 9.66168 10.8583 10.0818C11.0735 10.4965 11.1811 10.9963 11.1811 11.5813C11.1811 12.2778 10.9738 12.8388 10.5591 13.2642C10.1496 13.6896 9.60105 13.9023 8.91339 13.9023ZM8.99213 13.1685C9.29659 13.1685 9.52231 13.0728 9.66929 12.8814C9.81627 12.6899 9.88976 12.4639 9.88976 12.2034C9.88976 11.879 9.79528 11.5945 9.6063 11.35C9.41732 11.1 9.21785 10.9352 9.00787 10.8554C9.04987 11.0894 9.05249 11.2941 9.01575 11.4696C8.979 11.6451 8.92651 11.7886 8.85827 11.9003C8.77953 11.7089 8.68241 11.5733 8.56693 11.4935C8.54068 11.6584 8.46982 11.8019 8.35433 11.9242C8.24409 12.0412 8.18898 12.2114 8.18898 12.4347C8.18898 12.658 8.26247 12.8362 8.40945 12.9691C8.55643 13.102 8.75066 13.1685 8.99213 13.1685ZM0.661417 16H17.3386C17.5118 16 17.6614 15.9362 17.7874 15.8086C17.9134 15.681 17.9764 15.5294 17.9764 15.3539C17.9764 15.1785 17.9134 15.0269 17.7874 14.8993C17.6614 14.777 17.5118 14.7159 17.3386 14.7159H0.661417C0.488189 14.7159 0.338583 14.777 0.212598 14.8993C0.0866142 15.0269 0.023622 15.1785 0.023622 15.3539C0.023622 15.5294 0.0866142 15.681 0.212598 15.8086C0.338583 15.9362 0.488189 16 0.661417 16Z"
		fill="currentColor"
	/>
</svg>
