<svg
	color="rgb(var(--foreground, 0, 0, 0))"
	viewBox="0 0 19 18"
	fill="none"
	xmlns="http://www.w3.org/2000/svg"
>
	<path
		d="M11.5496 16.1967H7.4424V10.8457C7.4424 10.6568 7.49811 10.5084 7.60955 10.4005C7.72629 10.2871 7.87488 10.2305 8.0553 10.2305H10.9447C11.1304 10.2305 11.2764 10.2871 11.3825 10.4005C11.4939 10.5084 11.5496 10.6568 11.5496 10.8457V16.1967ZM2.48345 15.711C2.48345 16.2776 2.63999 16.7175 2.95308 17.0305C3.27147 17.3435 3.71191 17.5 4.2744 17.5H14.7415C15.2987 17.5 15.7338 17.3435 16.0469 17.0305C16.3653 16.7175 16.5245 16.2776 16.5245 15.711V9.29953L9.98157 3.7219C9.66318 3.44667 9.34478 3.44667 9.02639 3.7219L2.48345 9.29953V15.711ZM0 8.49C0 8.6573 0.061025 8.80841 0.183075 8.94333C0.305125 9.07286 0.47228 9.13762 0.684541 9.13762C0.795978 9.13762 0.896802 9.11063 0.987013 9.05667C1.08253 9.0027 1.17274 8.94333 1.25765 8.87857L9.22539 2.07857C9.3156 1.99762 9.40846 1.95714 9.50398 1.95714C9.6048 1.95714 9.70032 1.99762 9.79053 2.07857L17.7583 8.87857C17.8379 8.94333 17.9228 9.0027 18.013 9.05667C18.1085 9.11063 18.212 9.13762 18.3234 9.13762C18.5091 9.13762 18.6683 9.08365 18.801 8.97571C18.9337 8.86238 19 8.70857 19 8.51429C19 8.28762 18.9177 8.10413 18.7532 7.96381L10.4671 0.880476C10.1699 0.626825 9.8489 0.5 9.50398 0.5C9.16436 0.5 8.84597 0.626825 8.54881 0.880476L0.254713 7.96381C0.0849043 8.10413 0 8.27952 0 8.49ZM14.5266 4.83905L16.5245 6.55524V2.81524C16.5245 2.63714 16.4714 2.49683 16.3653 2.39429C16.2645 2.28635 16.1265 2.23238 15.9514 2.23238H15.0997C14.9299 2.23238 14.7919 2.28635 14.6858 2.39429C14.5797 2.49683 14.5266 2.63714 14.5266 2.81524V4.83905Z"
		fill="currentColor"
	/>
</svg>
