<svg
	color="rgb(var(--foreground, 0, 0, 0))"
	viewBox="0 0 19 18"
	fill="none"
	xmlns="http://www.w3.org/2000/svg"
>
	<path
		d="M7.2036 16.6662H11.7964V10.7729C11.7964 10.5894 11.7407 10.441 11.6292 10.3276C11.5178 10.2143 11.3719 10.1576 11.1915 10.1576H7.81651C7.63078 10.1576 7.4822 10.2143 7.37076 10.3276C7.25932 10.441 7.2036 10.5894 7.2036 10.7729V16.6662ZM4.09133 17.5H14.8609C15.4287 17.5 15.8692 17.3435 16.1822 17.0305C16.4953 16.7175 16.6519 16.2776 16.6519 15.711V6.76571L15.3703 5.87524V15.379C15.3703 15.6435 15.304 15.8459 15.1713 15.9862C15.0387 16.1265 14.845 16.1967 14.5903 16.1967H4.36196C4.10725 16.1967 3.91091 16.1265 3.77294 15.9862C3.64027 15.8459 3.57394 15.6435 3.57394 15.379V5.88333L2.29242 6.76571V15.711C2.29242 16.2776 2.44896 16.7175 2.76204 17.0305C3.08044 17.3435 3.52353 17.5 4.09133 17.5ZM0 8.49C0 8.6573 0.061025 8.80841 0.183075 8.94333C0.305125 9.07286 0.47228 9.13762 0.684541 9.13762C0.795978 9.13762 0.896802 9.11063 0.987013 9.05667C1.08253 9.0027 1.17274 8.94333 1.25765 8.87857L9.22539 2.07857C9.3156 1.99762 9.40846 1.95714 9.50398 1.95714C9.6048 1.95714 9.70032 1.99762 9.79053 2.07857L17.7583 8.87857C17.8379 8.94333 17.9228 9.0027 18.013 9.05667C18.1085 9.11063 18.212 9.13762 18.3234 9.13762C18.5091 9.13762 18.6683 9.08365 18.801 8.97571C18.9337 8.86238 19 8.70857 19 8.51429C19 8.28762 18.9177 8.10413 18.7532 7.96381L10.4671 0.880476C10.1699 0.626825 9.8489 0.5 9.50398 0.5C9.16436 0.5 8.84597 0.626825 8.54881 0.880476L0.254713 7.96381C0.0849043 8.10413 0 8.27952 0 8.49ZM14.654 4.83905L16.6519 6.55524V2.81524C16.6519 2.63714 16.5988 2.49683 16.4927 2.39429C16.3918 2.28635 16.2539 2.23238 16.0788 2.23238H15.2271C15.0573 2.23238 14.9193 2.28635 14.8132 2.39429C14.707 2.49683 14.654 2.63714 14.654 2.81524V4.83905Z"
		fill="currentColor"
	/>
</svg>
