<svg
	color="rgb(var(--foreground, 0, 0, 0))"
	viewBox="0 0 14 16"
	fill="none"
	xmlns="http://www.w3.org/2000/svg"
>
	<path
		d="M2.58836 4.11697H11.404C11.1249 3.68509 10.8305 3.24807 10.5209 2.80591C10.2113 2.36375 9.89161 1.91902 9.56172 1.47172C9.39931 1.25578 9.24705 1.07584 9.10495 0.931877C8.96792 0.787918 8.81059 0.679949 8.63295 0.607969C8.4604 0.53599 8.23709 0.5 7.96302 0.5H6.03698C5.76291 0.5 5.53707 0.53599 5.35943 0.607969C5.1818 0.679949 5.02447 0.787918 4.88744 0.931877C4.75041 1.07584 4.60069 1.25578 4.43828 1.47172C4.10839 1.91902 3.78865 2.36375 3.47906 2.80591C3.16948 3.24807 2.87258 3.68509 2.58836 4.11697ZM7.00381 8.4126C7.46058 8.4126 7.86406 8.54627 8.21425 8.81363C8.56444 9.07584 8.80551 9.41774 8.93747 9.83933H13.9695C13.8833 9.19152 13.6853 8.49486 13.3757 7.74936C13.0662 6.99871 12.6779 6.21722 12.211 5.40488H1.7814C1.31448 6.21722 0.926228 6.99871 0.616639 7.74936C0.312126 8.49486 0.114193 9.19152 0.0228385 9.83933H5.06253C5.19449 9.41774 5.43556 9.07584 5.78575 8.81363C6.14102 8.54627 6.54704 8.4126 7.00381 8.4126ZM7.00381 11.4049C7.26264 11.4049 7.47834 11.3149 7.6509 11.135C7.82853 10.955 7.91735 10.7339 7.91735 10.4717C7.91735 10.2147 7.82853 9.99614 7.6509 9.8162C7.47834 9.63111 7.26264 9.53856 7.00381 9.53856C6.74497 9.53856 6.52674 9.63111 6.3491 9.8162C6.17147 9.99614 6.08265 10.2147 6.08265 10.4717C6.08265 10.7339 6.17147 10.955 6.3491 11.135C6.52674 11.3149 6.74497 11.4049 7.00381 11.4049ZM5.15389 15.5H8.8385C9.90937 15.5 10.8153 15.3278 11.5563 14.9833C12.3023 14.6388 12.8784 14.1401 13.2844 13.4871C13.6904 12.8342 13.9289 12.0476 14 11.1272H8.93747C8.80551 11.5386 8.56444 11.8753 8.21425 12.1375C7.86406 12.3997 7.46058 12.5308 7.00381 12.5308C6.54704 12.5308 6.14102 12.3997 5.78575 12.1375C5.43556 11.8753 5.19449 11.5386 5.06253 11.1272H0C0.0710531 12.0476 0.309589 12.8342 0.715606 13.4871C1.12162 14.1401 1.69512 14.6388 2.43611 14.9833C3.17709 15.3278 4.08302 15.5 5.15389 15.5Z"
		fill="currentColor"
	/>
</svg>
