<svg
	color="rgb(var(--foreground, 0, 0, 0))"
	viewBox="0 0 14 16"
	fill="none"
	xmlns="http://www.w3.org/2000/svg"
>
	<path
		d="M5.15989 15.5H8.83252C9.97579 15.5 10.9294 15.3021 11.6932 14.9062C12.4622 14.5154 13.0388 13.9499 13.4233 13.2095C13.8078 12.4692 14 11.5771 14 10.5334C14 9.71594 13.8002 8.81877 13.4005 7.8419C13.0009 6.8599 12.4647 5.83162 11.7919 4.75707C11.1191 3.67738 10.3729 2.58226 9.55339 1.47172C9.39151 1.25578 9.23975 1.07584 9.0981 0.931877C8.96152 0.787918 8.8047 0.679949 8.62764 0.607969C8.45565 0.53599 8.23306 0.5 7.95989 0.5H6.04011C5.76694 0.5 5.54182 0.53599 5.36477 0.607969C5.18771 0.679949 5.03089 0.787918 4.89431 0.931877C4.75772 1.07584 4.60849 1.25578 4.44661 1.47172C3.6271 2.58226 2.88094 3.67738 2.20813 4.75707C1.53532 5.83162 0.999097 6.8599 0.599458 7.8419C0.199819 8.81877 0 9.71594 0 10.5334C0 11.5771 0.192231 12.4692 0.576694 13.2095C0.961156 13.9499 1.53532 14.5154 2.29919 14.9062C3.06811 15.3021 4.02168 15.5 5.15989 15.5ZM1.22168 10.5334C1.22168 10.0296 1.3178 9.47943 1.51003 8.88303C1.70226 8.28149 1.98049 7.63111 2.34472 6.93188C2.714 6.23265 3.15917 5.48201 3.68022 4.67995C4.20126 3.87789 4.79061 3.01928 5.44824 2.10411C5.5393 1.98072 5.62782 1.89075 5.71382 1.83419C5.79982 1.77249 5.91617 1.74165 6.06287 1.74165H7.93713C8.08383 1.74165 8.19765 1.77249 8.27859 1.83419C8.36459 1.89075 8.45312 1.98072 8.54417 2.10411C9.20181 3.01928 9.79115 3.87789 10.3122 4.67995C10.8383 5.48201 11.2835 6.23265 11.6477 6.93188C12.0119 7.63111 12.2902 8.28149 12.4824 8.88303C12.6797 9.47943 12.7783 10.0296 12.7783 10.5334C12.7783 11.3149 12.6316 11.9833 12.3382 12.5386C12.0499 13.0938 11.6148 13.518 11.0331 13.8111C10.4513 14.1093 9.7178 14.2584 8.83252 14.2584H5.15989C4.27968 14.2584 3.54616 14.1093 2.95935 13.8111C2.3776 13.518 1.94255 13.0938 1.6542 12.5386C1.36585 11.9833 1.22168 11.3149 1.22168 10.5334ZM3.17182 4.24807L2.94417 5.48972H11.0558L10.8282 4.24807H3.17182ZM0.971274 11.0347H5.47859V9.79306H0.971274V11.0347ZM7.00379 12.3997C7.36802 12.3997 7.69684 12.3123 7.99024 12.1375C8.28871 11.9576 8.52394 11.7185 8.69594 11.4203C8.87299 11.117 8.96152 10.7776 8.96152 10.4023C8.96152 10.0321 8.87299 9.69794 8.69594 9.39974C8.52394 9.0964 8.28871 8.85733 7.99024 8.68252C7.69684 8.50257 7.36802 8.4126 7.00379 8.4126C6.63451 8.4126 6.30063 8.50257 6.00217 8.68252C5.70876 8.85733 5.47353 9.0964 5.29648 9.39974C5.12448 9.69794 5.03848 10.0321 5.03848 10.4023C5.03848 10.7776 5.12448 11.117 5.29648 11.4203C5.47353 11.7185 5.70876 11.9576 6.00217 12.1375C6.30063 12.3123 6.63451 12.3997 7.00379 12.3997ZM7.00379 11.3123C6.75086 11.3123 6.53839 11.2249 6.3664 11.0501C6.1944 10.8753 6.1084 10.6594 6.1084 10.4023C6.1084 10.1504 6.1944 9.93702 6.3664 9.76221C6.53839 9.5874 6.75086 9.5 7.00379 9.5C7.25167 9.5 7.46161 9.5874 7.6336 9.76221C7.8056 9.93702 7.8916 10.1504 7.8916 10.4023C7.8916 10.6594 7.8056 10.8753 7.6336 11.0501C7.46161 11.2249 7.25167 11.3123 7.00379 11.3123ZM8.52141 11.0347H13.0667V9.79306H8.52141V11.0347Z"
		fill="currentColor"
	/>
</svg>
