<svg
	color="rgb(var(--foreground, 0, 0, 0))"
	viewBox="0 0 13 20"
	fill="none"
	xmlns="http://www.w3.org/2000/svg"
>
	<path
		d="M4.75433 19.5H8.24567C9.29682 19.5 10.1737 19.3165 10.8762 18.9496C11.5842 18.5882 12.1151 18.0625 12.4691 17.3725C12.823 16.6879 13 15.8637 13 14.8999C13 14.1442 12.8096 13.3173 12.4288 12.4192C12.0534 11.521 11.552 10.5819 10.9245 9.6016C10.3024 8.61587 9.61861 7.61644 8.87314 6.60333C8.65862 6.31309 8.45215 6.08856 8.25371 5.92975C8.05528 5.77093 7.76031 5.69153 7.36881 5.69153H5.63119C5.23969 5.69153 4.94472 5.77093 4.74629 5.92975C4.55322 6.08856 4.34674 6.31309 4.12686 6.60333C3.38139 7.61644 2.69493 8.61587 2.06745 9.6016C1.44534 10.5819 0.943894 11.521 0.563119 12.4192C0.187706 13.3173 0 14.1442 0 14.8999C0 15.8637 0.17698 16.6879 0.530941 17.3725C0.884901 18.0625 1.41316 18.5882 2.11572 18.9496C2.82364 19.3165 3.70318 19.5 4.75433 19.5ZM1.27104 14.8999C1.27104 14.292 1.42925 13.6102 1.74567 12.8545C2.06745 12.0988 2.51795 11.2582 3.09715 10.3327C3.68172 9.40719 4.37087 8.3886 5.1646 7.27691C5.24505 7.16739 5.31477 7.09346 5.37376 7.05512C5.43812 7.01679 5.52929 6.99762 5.64728 6.99762H7.35272C7.47071 6.99762 7.5592 7.01679 7.61819 7.05512C7.68255 7.09346 7.75495 7.16739 7.8354 7.27691C8.62913 8.3886 9.31828 9.40719 9.90285 10.3327C10.4874 11.2582 10.9379 12.0988 11.2543 12.8545C11.5708 13.6102 11.729 14.292 11.729 14.8999C11.729 15.9459 11.442 16.7564 10.8682 17.3314C10.2997 17.9119 9.42554 18.2021 8.24567 18.2021H4.75433C3.57446 18.2021 2.69761 17.9119 2.12376 17.3314C1.55528 16.7564 1.27104 15.9459 1.27104 14.8999ZM2.98453 9.0923L2.73515 10.3902H10.2809L10.0396 9.0923H2.98453ZM0.876857 15.4339H5.21287V14.136H0.876857V15.4339ZM6.50804 16.6824C6.85128 16.6824 7.16234 16.5976 7.44121 16.4278C7.72545 16.258 7.94802 16.0308 8.10891 15.746C8.27517 15.4558 8.35829 15.1327 8.35829 14.7767C8.35829 14.4262 8.27517 14.1086 8.10891 13.8238C7.94802 13.5336 7.72545 13.3036 7.44121 13.1338C7.16234 12.964 6.85128 12.8792 6.50804 12.8792C6.15945 12.8792 5.84303 12.964 5.55879 13.1338C5.27991 13.3036 5.05734 13.5336 4.89109 13.8238C4.72483 14.1086 4.64171 14.4262 4.64171 14.7767C4.64171 15.1327 4.72483 15.4558 4.89109 15.746C5.05734 16.0308 5.27991 16.258 5.55879 16.4278C5.84303 16.5976 6.15945 16.6824 6.50804 16.6824ZM6.50804 15.516C6.29352 15.516 6.11923 15.4475 5.98515 15.3106C5.85107 15.1683 5.78403 14.9903 5.78403 14.7767C5.78403 14.5686 5.85107 14.3934 5.98515 14.251C6.11923 14.1086 6.29352 14.0374 6.50804 14.0374C6.7172 14.0374 6.88882 14.1086 7.0229 14.251C7.15697 14.3934 7.22401 14.5686 7.22401 14.7767C7.22401 14.9903 7.15697 15.1683 7.0229 15.3106C6.88882 15.4475 6.7172 15.516 6.50804 15.516ZM7.79517 15.4339H12.1634V14.136H7.79517V15.4339ZM2.59839 2.57004C2.75392 2.45504 2.84777 2.29896 2.87995 2.10182C2.91213 1.90467 2.87459 1.72395 2.76733 1.55966C2.66007 1.40633 2.5099 1.31049 2.31683 1.27216C2.12913 1.23382 1.95215 1.27216 1.78589 1.38716C1.63036 1.49669 1.53383 1.65276 1.49629 1.85538C1.45875 2.05801 1.49361 2.23599 1.60087 2.38932C1.71349 2.55361 1.86902 2.65218 2.06745 2.68504C2.26588 2.7179 2.44286 2.67956 2.59839 2.57004ZM4.0625 4.72222C4.27166 4.57984 4.39769 4.38269 4.44059 4.13078C4.4835 3.8734 4.43523 3.63792 4.29579 3.42434C4.15099 3.21624 3.95524 3.09302 3.70854 3.05469C3.46184 3.01088 3.23391 3.06017 3.02475 3.20255C2.82096 3.34493 2.69493 3.54482 2.64666 3.8022C2.59839 4.05411 2.64934 4.28686 2.7995 4.50043C2.94967 4.70853 3.14542 4.83722 3.38676 4.88651C3.63346 4.9358 3.8587 4.88103 4.0625 4.72222ZM6.50804 1.94574C6.70648 1.94574 6.87273 1.87455 7.00681 1.73217C7.14625 1.58431 7.21597 1.41728 7.21597 1.23109C7.21597 1.02846 7.14625 0.855959 7.00681 0.713575C6.86737 0.571192 6.70111 0.5 6.50804 0.5C6.31498 0.5 6.1514 0.571192 6.01733 0.713575C5.88325 0.855959 5.81621 1.02846 5.81621 1.23109C5.81621 1.41728 5.88325 1.58431 6.01733 1.73217C6.1514 1.87455 6.31498 1.94574 6.50804 1.94574ZM6.50804 4.58258C6.76011 4.58258 6.97731 4.49222 7.15965 4.3115C7.342 4.12531 7.43317 3.90352 7.43317 3.64613C7.43317 3.39422 7.342 3.17517 7.15965 2.98898C6.97731 2.80278 6.76011 2.70968 6.50804 2.70968C6.26134 2.70968 6.04951 2.80278 5.87253 2.98898C5.69554 3.17517 5.60705 3.39422 5.60705 3.64613C5.60705 3.90352 5.69554 4.12531 5.87253 4.3115C6.04951 4.49222 6.26134 4.58258 6.50804 4.58258ZM10.4177 2.57004C10.5786 2.67956 10.7556 2.7179 10.9486 2.68504C11.1471 2.65218 11.3026 2.55361 11.4152 2.38932C11.5225 2.23599 11.5573 2.05801 11.5198 1.85538C11.4876 1.65276 11.3911 1.49669 11.2302 1.38716C11.0639 1.27216 10.8843 1.23382 10.6912 1.27216C10.5035 1.31049 10.356 1.40633 10.2488 1.55966C10.1415 1.72395 10.104 1.90467 10.1361 2.10182C10.1683 2.29896 10.2622 2.45504 10.4177 2.57004ZM8.95359 4.72222C9.15738 4.88103 9.38263 4.9358 9.62933 4.88651C9.87603 4.83722 10.0718 4.70853 10.2166 4.50043C10.3667 4.28686 10.4177 4.05411 10.3694 3.8022C10.3265 3.54482 10.2005 3.34493 9.99134 3.20255C9.77682 3.06017 9.5462 3.01088 9.29951 3.05469C9.05817 3.09302 8.8651 3.21624 8.7203 3.42434C8.5755 3.63792 8.52455 3.8734 8.56745 4.13078C8.61572 4.38269 8.74443 4.57984 8.95359 4.72222Z"
		fill="currentColor"
	/>
</svg>
