<svg
	color="rgb(var(--foreground, 0, 0, 0))"
	viewBox="0 0 15 18"
	fill="none"
	xmlns="http://www.w3.org/2000/svg"
>
	<path
		d="M7.50787 4.27844C7.98504 4.27844 8.43368 4.21477 8.85379 4.08744C9.2791 3.9601 9.66031 3.77929 9.99744 3.54499C10.3398 3.3107 10.6224 3.03311 10.8455 2.71222C11.0685 2.38625 11.2189 2.02716 11.2967 1.63497C11.3537 1.31919 11.3071 1.04924 11.1567 0.825127C11.0062 0.595925 10.7728 0.438031 10.4565 0.351443C9.99485 0.234295 9.51509 0.147708 9.01717 0.0916808C8.52444 0.0305603 8.02134 0 7.50787 0C6.99958 0 6.49648 0.0305603 5.99856 0.0916808C5.50065 0.147708 5.02348 0.234295 4.56706 0.351443C4.24549 0.438031 4.00951 0.595925 3.8591 0.825127C3.71387 1.04924 3.66979 1.31919 3.72684 1.63497C3.79945 2.02716 3.94727 2.38625 4.17029 2.71222C4.39851 3.03311 4.68116 3.3107 5.01829 3.54499C5.35542 3.77929 5.73664 3.9601 6.16194 4.08744C6.58724 4.21477 7.03588 4.27844 7.50787 4.27844ZM7.50787 3.27759C7.02551 3.27759 6.58465 3.19864 6.18528 3.04075C5.7911 2.88285 5.46434 2.66638 5.20501 2.39134C4.95087 2.11121 4.79267 1.79287 4.73043 1.43633C4.72006 1.38031 4.75377 1.33956 4.83157 1.31409C5.2465 1.20713 5.67958 1.12564 6.13082 1.06961C6.58724 1.01358 7.04626 0.985569 7.50787 0.985569C7.96948 0.985569 8.4259 1.01358 8.87713 1.06961C9.33356 1.12564 9.76923 1.20713 10.1842 1.31409C10.2671 1.34465 10.3035 1.3854 10.2931 1.43633C10.2308 1.79287 10.0701 2.11121 9.81073 2.39134C9.55139 2.66638 9.22204 2.88285 8.82267 3.04075C8.42849 3.19864 7.99022 3.27759 7.50787 3.27759ZM6.88547 7.38031H8.13804V3.66723H6.88547V7.38031ZM7.50009 18C9.00421 18 10.319 17.8599 11.4445 17.5798C12.5752 17.3048 13.4517 16.9177 14.0741 16.4185C14.6965 15.9194 15.0051 15.3387 14.9999 14.6766C14.9999 14.1723 14.891 13.6528 14.6732 13.118C14.4605 12.5781 14.1623 12.0535 13.7785 11.5441C13.3947 11.0297 12.9486 10.5586 12.4403 10.1307C11.9321 9.70289 11.3875 9.3489 10.8066 9.06876C10.6665 8.58489 10.4305 8.15959 10.0986 7.79287C9.77183 7.42615 9.38283 7.14092 8.93159 6.93718C8.48555 6.72835 8.00838 6.62394 7.50009 6.62394C6.9918 6.62394 6.51204 6.72835 6.0608 6.93718C5.61475 7.14092 5.22576 7.42615 4.89381 7.79287C4.56706 8.15959 4.33367 8.58489 4.19363 9.06876C3.60755 9.3489 3.06036 9.70289 2.55207 10.1307C2.04897 10.5586 1.60551 11.0297 1.2217 11.5441C0.837894 12.0535 0.53707 12.5781 0.319232 13.118C0.106581 13.6528 0.00025508 14.1723 0.00025508 14.6766C-0.0101182 15.3387 0.295892 15.9194 0.918286 16.4185C1.54068 16.9177 2.41462 17.3048 3.54012 17.5798C4.6708 17.8599 5.99078 18 7.50009 18ZM7.50009 16.9304C6.21899 16.9304 5.0987 16.8362 4.13917 16.6477C3.17965 16.4643 2.43278 16.202 1.89856 15.8608C1.36434 15.5246 1.09463 15.1299 1.08944 14.6766C1.09463 14.2334 1.20614 13.775 1.42398 13.3014C1.64182 12.8226 1.94005 12.3591 2.31867 11.9109C2.6973 11.4576 3.13038 11.0501 3.61792 10.6885C4.11065 10.3217 4.6267 10.0314 5.16611 9.81749C5.21279 9.41002 5.34505 9.04839 5.56289 8.7326C5.78072 8.41171 6.05821 8.16214 6.39534 7.98387C6.73247 7.80051 7.10072 7.70883 7.50009 7.70883C7.89946 7.70883 8.26511 7.80051 8.59706 7.98387C8.93419 8.16214 9.21167 8.41171 9.42951 8.7326C9.65253 9.04839 9.78739 9.41002 9.83407 9.81749C10.3683 10.0263 10.8792 10.3115 11.3667 10.6732C11.8543 11.0348 12.2873 11.4423 12.666 11.8956C13.0498 12.3438 13.3532 12.8098 13.5762 13.2937C13.7992 13.7725 13.9107 14.2334 13.9107 14.6766C13.9107 15.1299 13.6436 15.5246 13.1094 15.8608C12.5752 16.202 11.8283 16.4643 10.8688 16.6477C9.90927 16.8362 8.78637 16.9304 7.50009 16.9304ZM7.50009 12.4151C8.78637 12.4151 9.90927 12.5093 10.8688 12.6978C11.8283 12.8812 12.5752 13.1435 13.1094 13.4847C13.6436 13.8209 13.9107 14.2182 13.9107 14.6766H14.9999C15.0051 14.0144 14.6965 13.4338 14.0741 12.9346C13.4517 12.4304 12.5752 12.0407 11.4445 11.7657C10.319 11.4856 9.00421 11.3455 7.50009 11.3455C5.99078 11.3455 4.6708 11.4856 3.54012 11.7657C2.41462 12.0407 1.54068 12.4304 0.918286 12.9346C0.295892 13.4338 -0.0101182 14.0144 0.00025508 14.6766H1.08944C1.09463 14.2182 1.36434 13.8209 1.89856 13.4847C2.43278 13.1435 3.17965 12.8812 4.13917 12.6978C5.0987 12.5093 6.21899 12.4151 7.50009 12.4151ZM7.50009 15.2496C7.96688 15.2496 8.41034 15.163 8.83045 14.9898C9.25576 14.8217 9.60067 14.5951 9.86518 14.3098C10.1349 14.0195 10.2697 13.7012 10.2697 13.3548C9.86518 13.2937 9.42951 13.2453 8.96271 13.2097C8.5011 13.174 8.01356 13.1562 7.50009 13.1562C6.98661 13.1562 6.49648 13.174 6.02968 13.2097C5.56807 13.2453 5.13499 13.2937 4.73043 13.3548C4.73043 13.7012 4.86269 14.0195 5.12721 14.3098C5.39173 14.5951 5.73404 14.8217 6.15416 14.9898C6.57946 15.163 7.02811 15.2496 7.50009 15.2496Z"
		fill="currentColor"
	/>
</svg>
