<svg
	color="rgb(var(--foreground, 0, 0, 0))"
	viewBox="0 0 15 18"
	fill="none"
	xmlns="http://www.w3.org/2000/svg"
>
	<path
		d="M7.50001 4.02335C8.12567 4.02335 8.70096 3.9144 9.22588 3.6965C9.7508 3.4786 10.1882 3.17769 10.5382 2.79377C10.8881 2.40986 11.1135 1.96368 11.2142 1.45525C11.2619 1.1751 11.2222 0.936446 11.0949 0.7393C10.9677 0.542153 10.7635 0.407263 10.4825 0.33463C10.0583 0.225681 9.58908 0.142672 9.07477 0.0856031C8.56575 0.0285344 8.04083 0 7.50001 0C6.95918 0 6.43159 0.0285344 5.91728 0.0856031C5.40827 0.142672 4.94432 0.225681 4.52545 0.33463C4.24443 0.407263 4.03764 0.542153 3.90509 0.7393C3.77783 0.936446 3.74072 1.1751 3.79374 1.45525C3.88918 1.96368 4.11187 2.40986 4.46182 2.79377C4.81177 3.17769 5.2492 3.4786 5.77412 3.6965C6.29904 3.9144 6.87435 4.02335 7.50001 4.02335ZM6.86374 8.37354H8.14423V3.55642H6.86374V8.37354ZM7.50001 11.2763C8.97402 11.2763 10.3128 11.4034 11.5164 11.6576C12.72 11.9118 13.701 12.275 14.4592 12.7471C14.1039 12.0363 13.6002 11.3619 12.948 10.7237C12.2959 10.0804 11.5668 9.5642 10.7609 9.1751C10.6071 8.67185 10.3685 8.23865 10.0451 7.87549C9.72164 7.50713 9.33988 7.22438 8.89979 7.02724C8.45971 6.8249 7.99311 6.72374 7.50001 6.72374C7.0069 6.72374 6.54031 6.8249 6.10022 7.02724C5.66544 7.22438 5.28366 7.50713 4.95493 7.87549C4.63149 8.23865 4.39289 8.67185 4.23913 9.1751C3.43319 9.5642 2.70413 10.0804 2.05196 10.7237C1.40509 11.3619 0.901378 12.0363 0.540827 12.7471C1.29904 12.275 2.27996 11.9118 3.48356 11.6576C4.69247 11.4034 6.03129 11.2763 7.50001 11.2763ZM7.50001 18C9.00054 18 10.3128 17.8729 11.4369 17.6187C12.5663 17.3645 13.4411 17.0065 14.0615 16.5447C14.6872 16.0882 15 15.5564 15 14.9494C15 14.6122 14.8648 14.3035 14.5944 14.0233C14.3293 13.7432 13.9581 13.4942 13.4809 13.2763C13.009 13.0584 12.4549 12.8742 11.8187 12.7237C11.1877 12.5733 10.5037 12.4591 9.76671 12.3813C9.035 12.2983 8.27943 12.2568 7.50001 12.2568C6.72058 12.2568 5.96235 12.2957 5.22534 12.3735C4.49363 12.4514 3.8123 12.5655 3.18133 12.716C2.55037 12.8664 1.99629 13.0506 1.51909 13.2685C1.04189 13.4864 0.66808 13.738 0.397667 14.0233C0.132556 14.3035 0 14.6122 0 14.9494C0 15.5564 0.312831 16.0882 0.938493 16.5447C1.56416 17.0065 2.43902 17.3645 3.56309 17.6187C4.68716 17.8729 5.99948 18 7.50001 18ZM7.50001 15.5097C7.0016 15.5097 6.53765 15.4215 6.10817 15.2451C5.684 15.0739 5.33934 14.8379 5.07423 14.537C4.80911 14.2361 4.66861 13.8962 4.6527 13.5175C5.08748 13.4449 5.54349 13.3904 6.02069 13.3541C6.50319 13.3126 6.9963 13.2918 7.50001 13.2918C8.00372 13.2918 8.49417 13.3126 8.97137 13.3541C9.45388 13.3956 9.91252 13.4501 10.3473 13.5175C10.3314 13.8911 10.1909 14.2283 9.92577 14.5292C9.66597 14.8301 9.32397 15.0687 8.89979 15.2451C8.47562 15.4215 8.00902 15.5097 7.50001 15.5097Z"
		fill="currentColor"
	/>
</svg>
