<svg
	color="rgb(var(--foreground, 0, 0, 0))"
	viewBox="0 0 12 20"
	fill="none"
	xmlns="http://www.w3.org/2000/svg"
>
	<path
		d="M6.00393 11.0014C6.86368 11.0014 7.70508 10.9756 8.52813 10.9241C9.35642 10.8725 10.1192 10.7978 10.8164 10.6998C11.3616 10.6174 11.7155 10.3931 11.878 10.0271C12.0458 9.66104 12.0405 9.20221 11.8623 8.65059L9.78629 2.1858C9.60281 1.60324 9.28565 1.17793 8.83481 0.909849C8.38396 0.636616 7.83614 0.5 7.19133 0.5H4.80867C4.16911 0.5 3.62128 0.636616 3.16519 0.909849C2.71435 1.17793 2.39719 1.60324 2.21371 2.1858L0.137731 8.65059C-0.0405091 9.20221 -0.0457515 9.66104 0.122004 10.0271C0.28976 10.3931 0.643619 10.6174 1.18358 10.6998C1.88082 10.7978 2.64096 10.8725 3.46401 10.9241C4.2923 10.9756 5.13894 11.0014 6.00393 11.0014ZM6.00393 9.86467C5.28049 9.86467 4.55966 9.84405 3.84146 9.80281C3.1285 9.76157 2.38932 9.6997 1.62394 9.61722C1.409 9.59144 1.28057 9.51926 1.23863 9.40069C1.20193 9.27696 1.21766 9.10684 1.28581 8.89031L3.26742 2.63431C3.37227 2.29406 3.55837 2.04145 3.82573 1.87648C4.09833 1.7115 4.42598 1.62902 4.80867 1.62902H7.19133C7.57402 1.62902 7.89904 1.7115 8.16641 1.87648C8.43901 2.04145 8.63035 2.29406 8.74044 2.63431L10.7142 8.89031C10.7823 9.10684 10.7954 9.27696 10.7535 9.40069C10.7168 9.51926 10.591 9.59144 10.3761 9.61722C9.61068 9.6997 8.86888 9.76157 8.15068 9.80281C7.43772 9.84405 6.72214 9.86467 6.00393 9.86467ZM5.36699 10.5761V18.9664H6.63302V10.5761H5.36699ZM2.46534 19.5H9.53466C9.68145 19.5 9.7994 19.4536 9.88852 19.3608C9.97764 19.268 10.0222 19.1469 10.0222 18.9974C10.0222 18.7035 9.90949 18.4638 9.68407 18.2782C9.46389 18.0926 9.16508 17.9998 8.78763 17.9998H3.21238C2.83493 17.9998 2.53611 18.0926 2.31593 18.2782C2.09575 18.4638 1.98566 18.7035 1.98566 18.9974C1.98566 19.1469 2.0276 19.268 2.11148 19.3608C2.2006 19.4536 2.31855 19.5 2.46534 19.5Z"
		fill="currentColor"
	/>
</svg>
