<svg
	color="rgb(var(--foreground, 0, 0, 0))"
	viewBox="0 0 15 20"
	fill="none"
	xmlns="http://www.w3.org/2000/svg"
>
	<path
		d="M8.36022 10.3261L14.7562 3.98481C14.9185 3.82923 14.9997 3.6656 14.9997 3.49393C15.0051 3.32225 14.9429 3.16667 14.813 3.02719C14.6885 2.8877 14.5154 2.78308 14.2935 2.71334C13.7795 2.54703 13.2465 2.42096 12.6945 2.33512C12.1426 2.24928 11.5555 2.19831 10.9332 2.18222C10.3109 2.16076 9.63725 2.17149 8.91215 2.21441L8.48197 1.76376C8.13565 1.39895 7.74064 1.21654 7.29693 1.21654C6.85321 1.21118 6.44738 1.38554 6.07942 1.73962C5.84674 1.98104 5.68982 2.24392 5.60865 2.52825C5.52748 2.81259 5.52748 3.09425 5.60865 3.37322C5.68982 3.65219 5.85486 3.90166 6.10377 4.12162L6.55831 4.53203C6.51502 5.24019 6.50149 5.90275 6.51772 6.51971C6.53396 7.13667 6.58536 7.72144 6.67194 8.27402C6.75852 8.82124 6.88297 9.35504 7.04531 9.87543C7.15353 10.2134 7.33481 10.4387 7.58913 10.5514C7.84886 10.6587 8.10589 10.5836 8.36022 10.3261ZM6.45279 2.96281L7.31316 2.10175L5.86027 0.677376C5.73581 0.553984 5.58971 0.49497 5.42197 0.500335C5.25963 0.500335 5.11894 0.559349 4.9999 0.677376C4.88626 0.790038 4.82674 0.929524 4.82133 1.09584C4.82133 1.26215 4.88085 1.40431 4.9999 1.52234L6.45279 2.96281ZM12.029 9.8191C12.4294 9.8191 12.7946 9.71985 13.1247 9.52135C13.4602 9.32285 13.7254 9.05997 13.9202 8.73272C14.1204 8.40546 14.2205 8.04602 14.2205 7.65438C14.2205 7.11253 14.0365 6.6431 13.6685 6.2461L10.6085 9.27993C10.8088 9.45697 11.0306 9.5911 11.2741 9.6823C11.5176 9.7735 11.7692 9.8191 12.029 9.8191ZM1.53406 11.3883L7.69465 5.77131L6.80181 4.83783L0.649337 10.4468L1.53406 11.3883ZM1.26621 12.008C1.61793 12.008 1.91554 11.8873 2.15905 11.6458C2.40796 11.4044 2.53242 11.1067 2.53242 10.7526C2.53242 10.4039 2.40796 10.1088 2.15905 9.86739C1.91554 9.6206 1.61793 9.49721 1.26621 9.49721C0.909072 9.49721 0.608754 9.6206 0.365252 9.86739C0.121751 10.1088 0 10.4039 0 10.7526C0 11.1067 0.121751 11.4044 0.365252 11.6458C0.608754 11.8873 0.909072 12.008 1.26621 12.008ZM4.56159 14.8648L5.4869 13.9554L1.45289 9.972L0.535703 10.8813L4.56159 14.8648ZM4.8051 15.7017C5.15682 15.7017 5.45443 15.581 5.69793 15.3395C5.94685 15.0981 6.0713 14.8004 6.0713 14.4463C6.0713 14.0976 5.94685 13.8025 5.69793 13.5611C5.45443 13.3143 5.15682 13.1909 4.8051 13.1909C4.44796 13.1909 4.14764 13.3143 3.90414 13.5611C3.66064 13.8025 3.53889 14.0976 3.53889 14.4463C3.53889 14.8004 3.66064 15.0981 3.90414 15.3395C4.14764 15.581 4.44796 15.7017 4.8051 15.7017ZM4.14764 18.3653H5.45443V14.4785H4.14764V18.3653ZM0.933422 19.5H9.56961C9.72112 19.5 9.84287 19.4517 9.93486 19.3551C10.0268 19.2586 10.0728 19.1298 10.0728 18.9689C10.0728 18.6684 9.95109 18.4217 9.70759 18.2285C9.46409 18.0354 9.13672 17.9388 8.72547 17.9388H1.77756C1.36631 17.9388 1.03894 18.0354 0.795438 18.2285C0.551937 18.4217 0.430186 18.6684 0.430186 18.9689C0.430186 19.1298 0.476181 19.2586 0.56817 19.3551C0.66016 19.4517 0.78191 19.5 0.933422 19.5Z"
		fill="currentColor"
	/>
</svg>
