<svg
	color="rgb(var(--foreground, 0, 0, 0))"
	viewBox="0 0 12 20"
	fill="none"
	xmlns="http://www.w3.org/2000/svg"
>
	<path
		d="M6 9.78017C6.85347 9.78017 7.69142 9.75399 8.51386 9.70165C9.3363 9.64931 10.0967 9.56818 10.795 9.45826C11.3381 9.37975 11.7002 9.15207 11.8812 8.77521C12.0622 8.39311 12.0364 7.92989 11.8036 7.38554L9.49923 2.13306C9.25612 1.57824 8.93025 1.16736 8.52162 0.900413C8.11816 0.633471 7.61125 0.5 7.00089 0.5H4.99135C4.38616 0.5 3.87925 0.633471 3.47062 0.900413C3.06199 1.16736 2.73871 1.57824 2.50077 2.13306L0.196395 7.38554C-0.0363695 7.92989 -0.0622323 8.39311 0.118807 8.77521C0.299846 9.15207 0.661925 9.37975 1.20504 9.45826C1.89817 9.56818 2.65594 9.64931 3.47838 9.70165C4.30599 9.75399 5.14653 9.78017 6 9.78017ZM5.34826 10.95H6.64398V9.43471H5.34826V10.95ZM4.80514 19.5H7.1871C8.1854 19.5 8.96387 19.2514 9.52251 18.7541C10.0863 18.2621 10.3682 17.5738 10.3682 16.6893C10.3682 16.1344 10.2855 15.4671 10.1199 14.6872C9.95442 13.9073 9.72424 13.1012 9.4294 12.269C9.25354 11.7875 8.97939 11.4132 8.60697 11.1463C8.23972 10.8741 7.7897 10.738 7.25693 10.738H4.73531C4.20254 10.738 3.74994 10.8741 3.37752 11.1463C3.01026 11.4132 2.73871 11.7875 2.56284 12.269C2.268 13.1012 2.03782 13.9073 1.8723 14.6872C1.70678 15.4671 1.62402 16.1344 1.62402 16.6893C1.62402 17.5738 1.90334 18.2621 2.46197 18.7541C3.02578 19.2514 3.80684 19.5 4.80514 19.5Z"
		fill="currentColor"
	/>
</svg>
