<svg
	color="rgb(var(--foreground, 0, 0, 0))"
	viewBox="0 0 12 20"
	fill="none"
	xmlns="http://www.w3.org/2000/svg"
>
	<path
		d="M6.00001 9.78016C6.85348 9.78016 7.69143 9.75399 8.51387 9.70165C9.33631 9.64931 10.0967 9.56818 10.795 9.45826C11.3381 9.37975 11.7002 9.15207 11.8812 8.77521C12.0622 8.39311 12.0364 7.92989 11.8036 7.38554L9.49924 2.13306C9.25613 1.57824 8.93026 1.16736 8.52163 0.900413C8.11817 0.633471 7.61126 0.5 7.0009 0.5H4.99136C4.38617 0.5 3.87926 0.633471 3.47063 0.900413C3.06199 1.16736 2.73871 1.57824 2.50077 2.13306L0.196396 7.38554C-0.0363696 7.92989 -0.0622324 8.39311 0.118807 8.77521C0.299847 9.15207 0.661926 9.37975 1.20504 9.45826C1.89817 9.56818 2.65595 9.64931 3.47838 9.70165C4.30599 9.75399 5.14654 9.78016 6.00001 9.78016ZM6.00001 8.62603C5.29654 8.62603 4.58531 8.6051 3.86633 8.56322C3.15251 8.52135 2.41025 8.45592 1.63954 8.36694C1.42229 8.34077 1.29039 8.26749 1.24384 8.14711C1.20246 8.02149 1.22832 7.85138 1.32143 7.63678L3.52494 2.60413C3.66977 2.27961 3.86115 2.03884 4.09909 1.88182C4.3422 1.72479 4.63962 1.64628 4.99136 1.64628H7.0009C7.3578 1.64628 7.65523 1.72479 7.89316 1.88182C8.13627 2.03884 8.33025 2.27961 8.47508 2.60413L10.6786 7.63678C10.7717 7.85138 10.795 8.02149 10.7484 8.14711C10.7019 8.26749 10.5726 8.34077 10.3605 8.36694C9.58976 8.45592 8.84492 8.52135 8.12593 8.56322C7.41212 8.6051 6.70348 8.62603 6.00001 8.62603ZM5.34827 10.95H6.64399V9.43471H5.34827V10.95ZM4.80515 19.5H7.18711C8.18541 19.5 8.96388 19.2514 9.52252 18.7541C10.0863 18.2621 10.3682 17.5738 10.3682 16.6893C10.3682 16.1344 10.2855 15.4671 10.12 14.6872C9.95443 13.9073 9.72425 13.1012 9.42941 12.269C9.25355 11.7875 8.9794 11.4132 8.60698 11.1463C8.23973 10.8741 7.78971 10.738 7.25694 10.738H4.73532C4.20254 10.738 3.74994 10.8741 3.37752 11.1463C3.01027 11.4132 2.73871 11.7875 2.56284 12.269C2.26801 13.1012 2.03783 13.9073 1.8723 14.6872C1.70678 15.4671 1.62402 16.1344 1.62402 16.6893C1.62402 17.5738 1.90334 18.2621 2.46198 18.7541C3.02579 19.2514 3.80684 19.5 4.80515 19.5ZM4.80515 18.3537C4.15858 18.3537 3.65425 18.2072 3.29217 17.914C2.93009 17.6209 2.74905 17.2127 2.74905 16.6893C2.74905 16.192 2.82664 15.5901 2.98182 14.8835C3.137 14.1716 3.34907 13.431 3.61804 12.6616C3.70598 12.4156 3.84046 12.2245 4.0215 12.0884C4.20772 11.9523 4.44565 11.8843 4.73532 11.8843H7.25694C7.5466 11.8843 7.78454 11.9523 7.97075 12.0884C8.15697 12.2245 8.29145 12.4156 8.37421 12.6616C8.64836 13.431 8.86043 14.1716 9.01044 14.8835C9.16561 15.5901 9.2432 16.192 9.2432 16.6893C9.2432 17.2127 9.06216 17.6209 8.70008 17.914C8.338 18.2072 7.83368 18.3537 7.18711 18.3537H4.80515Z"
		fill="currentColor"
	/>
</svg>
