<svg
	color="rgb(var(--foreground, 0, 0, 0))"
	viewBox="0 0 18 18"
	fill="none"
	xmlns="http://www.w3.org/2000/svg"
>
	<path
		d="M0.743589 6.51612C0.366285 6.7325 0.131744 7.00173 0.0399673 7.3238C-0.0518095 7.64587 0.0144738 7.99561 0.238817 8.37303L1.34014 10.2601C1.4982 10.5269 1.6843 10.7156 1.89845 10.8263C2.11769 10.932 2.35988 10.9848 2.62501 10.9848H8.23104L4.8353 12.9248C4.458 13.1411 4.22601 13.4104 4.13933 13.7324C4.05265 14.0495 4.11638 14.3942 4.33053 14.7666L5.43185 16.6612C5.65619 17.0387 5.92898 17.2676 6.25019 17.3481C6.57651 17.4337 6.92832 17.3683 7.30563 17.1519L17.2634 11.4905C17.6356 11.2742 17.8676 11.0049 17.9594 10.6829C18.0512 10.3608 17.9874 10.011 17.7682 9.63363L16.6592 7.74651C16.5113 7.48987 16.3303 7.30619 16.1162 7.19548C15.9071 7.07973 15.6726 7.02186 15.4126 7.02186H9.76065L13.164 5.08191C13.5413 4.86552 13.7733 4.59881 13.86 4.28177C13.9467 3.95971 13.883 3.61248 13.6688 3.24009L12.5675 1.34543C12.3432 0.962972 12.0678 0.731486 11.7415 0.650969C11.4203 0.570452 11.0736 0.638388 10.7014 0.854777L0.743589 6.51612ZM1.30955 7.31625L11.122 1.7304C11.2495 1.65491 11.3667 1.63478 11.4738 1.67001C11.586 1.7002 11.6829 1.78324 11.7644 1.91911L12.7816 3.64016C12.8581 3.771 12.8785 3.89429 12.8428 4.01003C12.8122 4.12074 12.7307 4.21384 12.5981 4.28932L2.80092 9.86763C2.67345 9.94311 2.55108 9.96576 2.43381 9.93556C2.31654 9.90537 2.21966 9.82234 2.14318 9.68646L1.14129 7.98052C1.06481 7.84464 1.03931 7.71884 1.06481 7.60309C1.0954 7.48735 1.17698 7.39174 1.30955 7.31625ZM4.53703 10.011L8.05514 7.99561H13.447L9.93656 10.011H4.53703ZM5.40126 13.7173L15.1984 8.13148C15.3259 8.056 15.4483 8.03587 15.5655 8.0711C15.6828 8.10129 15.7797 8.18181 15.8562 8.31265L16.8581 10.0261C16.9345 10.162 16.96 10.2878 16.9345 10.4036C16.909 10.5193 16.8275 10.6149 16.6898 10.6904L6.88498 16.2687C6.75242 16.3442 6.63005 16.3668 6.51788 16.3367C6.4108 16.3065 6.31648 16.2234 6.2349 16.0876L5.22535 14.359C5.14377 14.2331 5.11828 14.1149 5.14887 14.0042C5.18456 13.8884 5.26869 13.7928 5.40126 13.7173ZM11.9556 1.28504L12.3839 2.02479L13.6765 1.28504C13.7784 1.22465 13.8447 1.14162 13.8753 1.03594C13.911 0.925229 13.8957 0.817035 13.8294 0.711357C13.7733 0.610711 13.6892 0.545291 13.577 0.515097C13.4649 0.484903 13.3552 0.5 13.2482 0.560388L11.9556 1.28504ZM12.9881 3.05138L13.4241 3.79112L14.7013 3.05892C14.8186 2.99351 14.89 2.91047 14.9154 2.80983C14.946 2.70415 14.9256 2.59344 14.8543 2.47769C14.7982 2.36698 14.714 2.29905 14.6019 2.27389C14.4897 2.24369 14.3801 2.25879 14.273 2.31918L12.9881 3.05138ZM10.2654 3.9119C10.3419 4.0528 10.4566 4.1459 10.6096 4.19119C10.7676 4.23145 10.9181 4.21384 11.0608 4.13835C11.2036 4.0528 11.2954 3.93203 11.3362 3.77603C11.382 3.62003 11.3642 3.47157 11.2826 3.33067C11.1959 3.18976 11.0736 3.09918 10.9155 3.05892C10.7626 3.01867 10.6172 3.03628 10.4796 3.11176C10.3368 3.20235 10.245 3.32564 10.2042 3.48164C10.1635 3.63261 10.1838 3.77603 10.2654 3.9119ZM8.36106 4.99888C8.43754 5.13978 8.55226 5.23288 8.70522 5.27817C8.85818 5.31843 9.00605 5.30082 9.14881 5.22533C9.29667 5.13978 9.39355 5.02152 9.43944 4.87055C9.48532 4.71455 9.46238 4.56862 9.3706 4.43274C9.29412 4.28681 9.17685 4.19371 9.01879 4.15345C8.86073 4.11319 8.71032 4.13332 8.56756 4.21384C8.42479 4.29939 8.33302 4.41765 8.29223 4.56862C8.25654 4.71455 8.27948 4.85797 8.36106 4.99888ZM6.4414 6.10095C6.52297 6.23682 6.64279 6.32489 6.80085 6.36515C6.96401 6.4054 7.11442 6.38779 7.25209 6.31231C7.38976 6.22676 7.47898 6.10598 7.51977 5.94998C7.56566 5.79398 7.54781 5.65056 7.46624 5.51972C7.38466 5.37378 7.26484 5.28069 7.10678 5.24043C6.94872 5.20017 6.8034 5.21778 6.67084 5.29327C6.52297 5.37882 6.4261 5.49959 6.38021 5.65559C6.33942 5.80656 6.35982 5.95501 6.4414 6.10095ZM4.52938 7.18793C4.61606 7.3238 4.73843 7.41186 4.89649 7.45212C5.05455 7.49238 5.20496 7.47477 5.34772 7.39928C5.49049 7.31877 5.58226 7.20051 5.62305 7.04451C5.66384 6.88347 5.63835 6.73754 5.54657 6.6067C5.47519 6.46076 5.36047 6.36766 5.20241 6.3274C5.04435 6.28211 4.89394 6.30224 4.75117 6.38779C4.61351 6.46328 4.52173 6.58154 4.47584 6.74257C4.42996 6.89857 4.4478 7.04702 4.52938 7.18793ZM2.62501 8.2749C2.70659 8.41581 2.82386 8.50639 2.97682 8.54665C3.13488 8.58187 3.29039 8.56175 3.44335 8.48626C3.57592 8.40071 3.6626 8.28245 3.70339 8.13148C3.74418 7.97548 3.72633 7.82955 3.64985 7.69367C3.56827 7.54774 3.44845 7.45464 3.29039 7.41438C3.13743 7.37412 2.98957 7.39174 2.84681 7.46722C2.69894 7.54774 2.60462 7.66851 2.56383 7.82955C2.52304 7.98555 2.54343 8.134 2.62501 8.2749ZM6.0437 16.7216L5.6154 15.9743L4.32288 16.7216C4.22091 16.782 4.15208 16.865 4.11638 16.9707C4.08579 17.0814 4.10364 17.1896 4.16992 17.2953C4.22601 17.396 4.31014 17.4589 4.42231 17.484C4.53958 17.5142 4.6492 17.5016 4.75117 17.4463L6.0437 16.7216ZM5.01886 14.9553L4.57527 14.2155L3.29804 14.9402C3.18077 15.0056 3.10684 15.0912 3.07625 15.1968C3.05075 15.3025 3.0737 15.4132 3.14508 15.529C3.20117 15.6346 3.28529 15.7026 3.39747 15.7328C3.50964 15.763 3.61926 15.7479 3.72633 15.6875L5.01886 14.9553ZM14.3495 10.313C14.4311 10.4589 14.5483 10.552 14.7013 10.5923C14.8594 10.6325 15.0098 10.6124 15.1525 10.5319C15.3004 10.4564 15.3947 10.3407 15.4355 10.1847C15.4763 10.0236 15.4559 9.87266 15.3743 9.73176C15.2928 9.59085 15.1729 9.50027 15.0149 9.46001C14.8619 9.41975 14.709 9.43988 14.556 9.5204C14.4234 9.60092 14.3367 9.71918 14.296 9.87518C14.2552 10.0312 14.273 10.1771 14.3495 10.313ZM12.4604 11.4C12.5267 11.5459 12.6389 11.639 12.7969 11.6793C12.955 11.7195 13.108 11.6994 13.2558 11.6189C13.3935 11.5434 13.4827 11.4276 13.5235 11.2716C13.5694 11.1106 13.5515 10.9596 13.47 10.8187C13.3833 10.6829 13.2609 10.5948 13.1029 10.5545C12.9448 10.5092 12.7969 10.5269 12.6593 10.6074C12.5165 10.6879 12.4222 10.8087 12.3763 10.9697C12.3355 11.1257 12.3635 11.2691 12.4604 11.4ZM10.5331 12.4869C10.6198 12.6278 10.7422 12.7209 10.9002 12.7662C11.0583 12.8065 11.201 12.7864 11.3285 12.7058C11.4764 12.6253 11.5707 12.5071 11.6115 12.3511C11.6574 12.1951 11.6395 12.0466 11.5579 11.9057C11.4764 11.7698 11.354 11.6818 11.1908 11.6415C11.0328 11.6013 10.8849 11.6189 10.7473 11.6944C10.6096 11.7799 10.5178 11.9007 10.4719 12.0567C10.4311 12.2076 10.4515 12.3511 10.5331 12.4869ZM8.62874 13.5664C8.70522 13.7173 8.82249 13.813 8.98055 13.8532C9.14371 13.8935 9.29412 13.8733 9.43179 13.7928C9.57965 13.7073 9.67143 13.589 9.70712 13.438C9.74791 13.2871 9.72496 13.1437 9.63829 13.0078C9.5618 12.8669 9.44708 12.7763 9.29412 12.736C9.14116 12.6907 8.9933 12.7058 8.85053 12.7813C8.70267 12.8669 8.6058 12.9877 8.55991 13.1437C8.51402 13.2946 8.53696 13.4355 8.62874 13.5664ZM6.71673 14.676C6.8034 14.8119 6.92322 14.8999 7.07618 14.9402C7.23424 14.9855 7.38211 14.9704 7.51977 14.8949C7.66763 14.8043 7.75941 14.681 7.7951 14.525C7.83589 14.3741 7.8155 14.2281 7.73392 14.0872C7.65744 13.9463 7.54017 13.8557 7.38211 13.8155C7.22915 13.7752 7.08128 13.7928 6.93852 13.8683C6.79576 13.9539 6.70143 14.0746 6.65554 14.2306C6.61475 14.3866 6.63515 14.5351 6.71673 14.676Z"
		fill="currentColor"
	/>
</svg>
