<svg
	color="rgb(var(--foreground, 0, 0, 0))"
	viewBox="0 0 14 18"
	fill="none"
	xmlns="http://www.w3.org/2000/svg"
>
	<path
		d="M7.3609 0C6.52749 0 5.75879 0.159862 5.05479 0.479587C4.3508 0.799312 3.76068 1.22991 3.28445 1.77138L11.1268 9.58401C11.2976 9.10958 11.4658 8.68156 11.6315 8.29996C11.7971 7.91835 11.9498 7.54963 12.0896 7.19381C12.2293 6.83799 12.3406 6.4667 12.4235 6.07993C12.5115 5.68801 12.5555 5.24968 12.5555 4.76493C12.5555 4.0997 12.4209 3.4783 12.1517 2.90073C11.8877 2.32316 11.5176 1.81779 11.0413 1.38462C10.5703 0.946283 10.019 0.60593 9.38747 0.363558C8.76112 0.121186 8.0856 0 7.3609 0ZM4.93056 14.0859H9.78347C10.0785 14.0859 10.2416 13.9338 10.2726 13.6296C10.2778 13.5213 10.2856 13.4207 10.2959 13.3279C10.3115 13.2299 10.327 13.1371 10.3425 13.0494L2.1974 4.92737C2.19222 5.05114 2.19222 5.1749 2.1974 5.29867C2.20257 5.41728 2.21293 5.53331 2.22846 5.64676C2.2854 6.10572 2.38375 6.53116 2.52351 6.92308C2.66328 7.315 2.82375 7.71465 3.00492 8.12205C3.1861 8.52428 3.36986 8.9755 3.55621 9.47572C3.74256 9.97593 3.91339 10.5612 4.06868 11.2316C4.22915 11.902 4.35338 12.7013 4.44138 13.6296C4.45691 13.7688 4.5035 13.8797 4.58115 13.9622C4.66397 14.0447 4.78044 14.0859 4.93056 14.0859ZM4.8995 15.7568H9.81453C9.94394 15.7568 10.0526 15.7129 10.1406 15.6253C10.2286 15.5376 10.2726 15.4293 10.2726 15.3004C10.2726 15.1766 10.2286 15.0709 10.1406 14.9832C10.0526 14.8956 9.94394 14.8517 9.81453 14.8517H4.8995C4.77009 14.8517 4.66138 14.8956 4.57338 14.9832C4.49056 15.0709 4.44915 15.1766 4.44915 15.3004C4.44915 15.4293 4.49056 15.5376 4.57338 15.6253C4.66138 15.7129 4.77009 15.7568 4.8995 15.7568ZM7.3609 18C7.96136 18 8.4816 17.8633 8.92159 17.59C9.36159 17.3219 9.59971 16.9661 9.63594 16.5226H5.07808C5.10914 16.9661 5.34467 17.3219 5.78467 17.59C6.22984 17.8633 6.75525 18 7.3609 18ZM12.9825 14.3876C13.1016 14.5114 13.2413 14.5733 13.4018 14.5733C13.5674 14.5681 13.7098 14.5062 13.8289 14.3876C13.9427 14.2742 13.9997 14.1349 13.9997 13.9699C14.0049 13.8049 13.9479 13.6631 13.8289 13.5445L1.01717 0.781263C0.898112 0.662656 0.753172 0.60593 0.582349 0.611087C0.416703 0.611087 0.276939 0.667813 0.163058 0.781263C0.0543526 0.894714 0 1.03653 0 1.2067C0 1.37688 0.0543526 1.51612 0.163058 1.62441L12.9825 14.3876Z"
		fill="currentColor"
	/>
</svg>
