<svg
	color="rgb(var(--foreground, 0, 0, 0))"
	viewBox="0 0 14 20"
	fill="none"
	xmlns="http://www.w3.org/2000/svg"
>
	<path
		d="M0 16.5879C0 17.1165 0.144744 17.525 0.434233 17.8134C0.723722 18.1071 1.13383 18.2539 1.66456 18.2539H4.42275C4.95347 18.2539 5.36358 18.1071 5.65307 17.8134C5.94792 17.525 6.09535 17.1139 6.09535 16.5799V3.40408C6.09535 2.87011 5.94792 2.45895 5.65307 2.1706C5.36358 1.87692 4.95347 1.73008 4.42275 1.73008H1.66456C1.13383 1.73008 0.723722 1.87425 0.434233 2.1626C0.144744 2.45094 0 2.8621 0 3.39608V16.5879ZM1.21424 16.4758V3.50821C1.21424 3.32666 1.26517 3.18783 1.36703 3.09171C1.46889 2.99026 1.61363 2.93953 1.80126 2.93953H4.30213C4.48976 2.93953 4.63182 2.99026 4.72832 3.09171C4.83017 3.18783 4.8811 3.32666 4.8811 3.50821V16.4758C4.8811 16.6573 4.83017 16.7962 4.72832 16.8923C4.63182 16.9937 4.48976 17.0445 4.30213 17.0445H1.80126C1.61363 17.0445 1.46889 16.9937 1.36703 16.8923C1.26517 16.7962 1.21424 16.6573 1.21424 16.4758ZM1.27053 2.32279H2.33199V0.528634C2.33199 0.379122 2.27838 0.253638 2.17117 0.152183C2.06931 0.0507275 1.94333 0 1.79322 0C1.64312 0 1.51714 0.0507275 1.41528 0.152183C1.31878 0.253638 1.27053 0.379122 1.27053 0.528634V2.32279ZM3.76335 2.32279H4.82481V0.528634C4.82481 0.379122 4.77388 0.253638 4.67203 0.152183C4.57017 0.0507275 4.44419 0 4.29408 0C4.14398 0 4.018 0.0507275 3.91614 0.152183C3.81428 0.253638 3.76335 0.379122 3.76335 0.528634V2.32279ZM3.04767 5.62275C3.25139 5.62275 3.42294 5.55333 3.56232 5.4145C3.70707 5.27032 3.77944 5.09678 3.77944 4.89387C3.77944 4.69096 3.70707 4.52009 3.56232 4.38126C3.42294 4.23708 3.25139 4.165 3.04767 4.165C2.84396 4.165 2.67241 4.23708 2.53303 4.38126C2.39364 4.52009 2.32395 4.69096 2.32395 4.89387C2.32395 5.09678 2.39364 5.27032 2.53303 5.4145C2.67241 5.55333 2.84396 5.62275 3.04767 5.62275ZM3.04767 8.1698C3.25139 8.1698 3.42294 8.10039 3.56232 7.96155C3.70707 7.81738 3.77944 7.64651 3.77944 7.44894C3.77944 7.24603 3.70707 7.07516 3.56232 6.93632C3.42294 6.79215 3.25139 6.72006 3.04767 6.72006C2.84396 6.72006 2.67241 6.79215 2.53303 6.93632C2.39364 7.07516 2.32395 7.24603 2.32395 7.44894C2.32395 7.64651 2.39364 7.81738 2.53303 7.96155C2.67241 8.10039 2.84396 8.1698 3.04767 8.1698ZM3.04767 10.7169C3.25139 10.7169 3.42294 10.6474 3.56232 10.5086C3.70707 10.3644 3.77944 10.1936 3.77944 9.996C3.77944 9.79309 3.70707 9.62221 3.56232 9.48338C3.42294 9.34455 3.25139 9.27513 3.04767 9.27513C2.84396 9.27513 2.67241 9.34455 2.53303 9.48338C2.39364 9.62221 2.32395 9.79309 2.32395 9.996C2.32395 10.1936 2.39364 10.3644 2.53303 10.5086C2.67241 10.6474 2.84396 10.7169 3.04767 10.7169ZM3.04767 13.2799C3.25139 13.2799 3.42294 13.2105 3.56232 13.0717C3.70707 12.9275 3.77944 12.754 3.77944 12.5511C3.77944 12.3482 3.70707 12.1773 3.56232 12.0384C3.42294 11.8943 3.25139 11.8222 3.04767 11.8222C2.84396 11.8222 2.67241 11.8943 2.53303 12.0384C2.39364 12.1773 2.32395 12.3482 2.32395 12.5511C2.32395 12.754 2.39364 12.9275 2.53303 13.0717C2.67241 13.2105 2.84396 13.2799 3.04767 13.2799ZM3.04767 15.827C3.25139 15.827 3.42294 15.7576 3.56232 15.6187C3.70707 15.4746 3.77944 15.3037 3.77944 15.1061C3.77944 14.9032 3.70707 14.7323 3.56232 14.5935C3.42294 14.4493 3.25139 14.3773 3.04767 14.3773C2.84396 14.3773 2.67241 14.4493 2.53303 14.5935C2.39364 14.7323 2.32395 14.9032 2.32395 15.1061C2.32395 15.3037 2.39364 15.4746 2.53303 15.6187C2.67241 15.7576 2.84396 15.827 3.04767 15.827ZM7.89661 16.6119C7.89661 17.1406 8.04136 17.5491 8.33084 17.8374C8.62033 18.1311 9.03312 18.2779 9.56921 18.2779H12.3194C12.8554 18.2779 13.2682 18.1311 13.5577 17.8374C13.8526 17.5491 14 17.1379 14 16.6039V3.42811C14 2.89414 13.8526 2.48298 13.5577 2.19463C13.2682 1.90095 12.8554 1.7541 12.3194 1.7541H9.56921C9.03312 1.7541 8.62033 1.89828 8.33084 2.18662C8.04136 2.47497 7.89661 2.88613 7.89661 3.4201V16.6119ZM9.11086 16.4998V3.53224C9.11086 3.35069 9.16179 3.21185 9.26364 3.11574C9.37086 3.01428 9.5156 2.96356 9.69788 2.96356H12.2068C12.389 2.96356 12.5311 3.01428 12.633 3.11574C12.7348 3.21185 12.7858 3.35069 12.7858 3.53224V16.4998C12.7858 16.6814 12.7348 16.8202 12.633 16.9163C12.5311 17.0178 12.389 17.0685 12.2068 17.0685H9.69788C9.5156 17.0685 9.37086 17.0178 9.26364 16.9163C9.16179 16.8202 9.11086 16.6814 9.11086 16.4998ZM9.16715 17.6852V19.4794C9.16715 19.6289 9.21807 19.7517 9.31993 19.8478C9.42179 19.9493 9.54777 20 9.69788 20C9.84262 20 9.96592 19.9493 10.0678 19.8478C10.175 19.7464 10.2286 19.6235 10.2286 19.4794V17.6852H9.16715ZM11.668 17.6852V19.4794C11.668 19.6235 11.7189 19.7464 11.8208 19.8478C11.9227 19.9493 12.046 20 12.1907 20C12.3408 20 12.4668 19.9493 12.5686 19.8478C12.6759 19.7517 12.7295 19.6289 12.7295 19.4794V17.6852H11.668ZM10.9443 5.63076C11.148 5.63076 11.3195 5.56134 11.4589 5.42251C11.6037 5.27833 11.676 5.10479 11.676 4.90188C11.676 4.70431 11.6037 4.53344 11.4589 4.38927C11.3195 4.24509 11.148 4.17301 10.9443 4.17301C10.7459 4.17301 10.5744 4.24509 10.4296 4.38927C10.2903 4.53344 10.2206 4.70431 10.2206 4.90188C10.2206 5.10479 10.2903 5.27833 10.4296 5.42251C10.5744 5.56134 10.7459 5.63076 10.9443 5.63076ZM10.9443 8.18582C11.148 8.18582 11.3195 8.11641 11.4589 7.97757C11.6037 7.8334 11.676 7.65986 11.676 7.45695C11.676 7.25404 11.6037 7.08317 11.4589 6.94433C11.3195 6.80016 11.148 6.72807 10.9443 6.72807C10.7459 6.72807 10.5744 6.80016 10.4296 6.94433C10.2903 7.08317 10.2206 7.25404 10.2206 7.45695C10.2206 7.65986 10.2903 7.8334 10.4296 7.97757C10.5744 8.11641 10.7459 8.18582 10.9443 8.18582ZM10.9443 10.7329C11.148 10.7329 11.3195 10.6635 11.4589 10.5246C11.6037 10.3858 11.676 10.2149 11.676 10.012C11.676 9.8091 11.6037 9.63823 11.4589 9.4994C11.3195 9.35523 11.148 9.28314 10.9443 9.28314C10.7459 9.28314 10.5744 9.35523 10.4296 9.4994C10.2903 9.63823 10.2206 9.8091 10.2206 10.012C10.2206 10.2149 10.2903 10.3858 10.4296 10.5246C10.5744 10.6635 10.7459 10.7329 10.9443 10.7329ZM10.9443 13.2879C11.148 13.2879 11.3195 13.2185 11.4589 13.0797C11.6037 12.9355 11.676 12.762 11.676 12.5591C11.676 12.3562 11.6037 12.1853 11.4589 12.0465C11.3195 11.9076 11.148 11.8382 10.9443 11.8382C10.7459 11.8382 10.5744 11.9076 10.4296 12.0465C10.2903 12.1853 10.2206 12.3562 10.2206 12.5591C10.2206 12.762 10.2903 12.9355 10.4296 13.0797C10.5744 13.2185 10.7459 13.2879 10.9443 13.2879ZM10.9443 15.843C11.148 15.843 11.3195 15.7736 11.4589 15.6348C11.6037 15.4906 11.676 15.317 11.676 15.1141C11.676 14.9112 11.6037 14.7404 11.4589 14.6015C11.3195 14.4573 11.148 14.3853 10.9443 14.3853C10.7459 14.3853 10.5744 14.4573 10.4296 14.6015C10.2903 14.7404 10.2206 14.9112 10.2206 15.1141C10.2206 15.317 10.2903 15.4906 10.4296 15.6348C10.5744 15.7736 10.7459 15.843 10.9443 15.843Z"
		fill="currentColor"
	/>
</svg>
