<svg
	color="rgb(var(--foreground, 0, 0, 0))"
	viewBox="0 0 18 18"
	fill="none"
	xmlns="http://www.w3.org/2000/svg"
>
	<path
		d="M1.2105 10.1683C1.41801 10.5443 1.67378 10.7724 1.97781 10.8526C2.28666 10.9328 2.61964 10.8677 2.97675 10.6571L12.3943 5.00916C12.7514 4.79357 12.9734 4.52785 13.0603 4.21198C13.152 3.89111 13.0917 3.54266 12.8793 3.16663L11.8949 1.40682C11.6825 1.02578 11.4243 0.797655 11.1203 0.72245C10.8163 0.642231 10.4881 0.709916 10.1359 0.925505L0.703791 6.58096C0.346681 6.79153 0.124693 7.05475 0.0378282 7.37061C-0.0490365 7.68146 0.0136991 8.02741 0.226035 8.40845L1.2105 10.1683ZM9.78115 3.851C9.69911 3.71061 9.67981 3.5602 9.72324 3.39977C9.76668 3.23933 9.85595 3.11649 9.99108 3.03126C10.131 2.94603 10.2782 2.92597 10.4326 2.97109C10.5871 3.01622 10.7053 3.11148 10.7873 3.25687C10.8645 3.39726 10.8814 3.54767 10.838 3.70811C10.7994 3.86855 10.7101 3.99138 10.5702 4.07661C10.4302 4.16185 10.283 4.1819 10.1286 4.13678C9.97419 4.09166 9.85837 3.9964 9.78115 3.851ZM7.91356 4.97156C7.83635 4.83118 7.81705 4.68076 7.85565 4.52033C7.89908 4.35989 7.98836 4.23705 8.12348 4.15182C8.26343 4.06659 8.41062 4.04653 8.56505 4.09166C8.71947 4.13678 8.83771 4.22953 8.91974 4.36992C8.99696 4.51531 9.01385 4.66823 8.97042 4.82867C8.93181 4.98911 8.84253 5.11194 8.70258 5.19718C8.56263 5.27739 8.41545 5.29745 8.26102 5.25734C8.11142 5.21222 7.9956 5.11696 7.91356 4.97156ZM6.04597 6.09212C5.96876 5.94672 5.94945 5.79381 5.98806 5.63337C6.03149 5.47293 6.12318 5.35009 6.26313 5.26486C6.40308 5.18464 6.55027 5.16709 6.70469 5.21222C6.85912 5.25233 6.97494 5.34508 7.05215 5.49048C7.13419 5.63587 7.1535 5.78879 7.11006 5.94923C7.07146 6.10967 6.98218 6.23 6.84223 6.31022C6.70228 6.39545 6.55509 6.4155 6.40067 6.37038C6.24624 6.32526 6.12801 6.2325 6.04597 6.09212ZM4.18562 7.20516C4.10841 7.05976 4.0891 6.90935 4.12771 6.75393C4.17114 6.59349 4.26283 6.47316 4.40278 6.39294C4.5379 6.30771 4.68268 6.28515 4.8371 6.32526C4.99635 6.36537 5.117 6.45812 5.19904 6.60352C5.27625 6.74892 5.29314 6.90183 5.24971 7.06227C5.20628 7.22271 5.117 7.34304 4.98188 7.42326C4.84193 7.50849 4.69474 7.53105 4.54031 7.49094C4.38589 7.44582 4.26766 7.35056 4.18562 7.20516ZM2.31803 8.32572C2.24081 8.18033 2.22151 8.02992 2.26012 7.87449C2.30355 7.71405 2.39524 7.59122 2.53519 7.50598C2.67514 7.42576 2.82233 7.40571 2.97675 7.44582C3.13118 7.48593 3.247 7.57868 3.32421 7.72408C3.40625 7.86948 3.42555 8.02239 3.38212 8.18283C3.33869 8.33826 3.24941 8.45859 3.11429 8.54382C2.97434 8.62905 2.82715 8.65162 2.67272 8.6115C2.5183 8.56638 2.40007 8.47112 2.31803 8.32572ZM11.2868 1.29401L11.6922 2.01598L12.9155 1.28649C13.0169 1.22633 13.0796 1.1436 13.1037 1.03831C13.1327 0.928012 13.1182 0.820217 13.0603 0.714929C13.0072 0.614655 12.9276 0.549477 12.8214 0.519395C12.7153 0.484299 12.6115 0.496833 12.5102 0.556998L11.2868 1.29401ZM12.2713 3.05382L12.6766 3.78331L13.8927 3.05382C14.0037 2.98864 14.0713 2.90592 14.0954 2.80564C14.1196 2.70035 14.1003 2.59005 14.0375 2.47474C13.9796 2.36945 13.8976 2.30427 13.7914 2.2792C13.6901 2.24912 13.5887 2.26416 13.4874 2.32433L12.2713 3.05382ZM6.11112 16.5682C6.31863 16.9393 6.57681 17.1649 6.88566 17.2451C7.19934 17.3303 7.53473 17.2677 7.89185 17.0571L17.3094 11.4091C17.6617 11.1936 17.8789 10.9253 17.9609 10.6045C18.0478 10.2836 17.9899 9.93763 17.7872 9.56661L16.8027 7.80681C16.5952 7.42576 16.3394 7.19764 16.0354 7.12244C15.7314 7.04222 15.4008 7.1099 15.0437 7.32549L5.61165 12.9809C5.25454 13.1915 5.03255 13.4547 4.94568 13.7706C4.86364 14.0814 4.92638 14.4274 5.13389 14.8084L6.11112 16.5682ZM14.689 10.251C14.607 10.1056 14.5853 9.95518 14.6239 9.79975C14.6673 9.63931 14.759 9.51898 14.8989 9.43876C15.0389 9.35353 15.1837 9.33097 15.3333 9.37108C15.4877 9.41119 15.6059 9.50394 15.688 9.64934C15.77 9.79474 15.7893 9.94766 15.7459 10.1081C15.7073 10.2685 15.618 10.3889 15.478 10.4691C15.3381 10.5543 15.1909 10.5769 15.0365 10.5368C14.882 10.4916 14.7662 10.3964 14.689 10.251ZM12.8214 11.3715C12.7394 11.2261 12.7201 11.0757 12.7635 10.9203C12.8069 10.7599 12.8986 10.6395 13.0386 10.5593C13.1737 10.4741 13.3185 10.4515 13.4729 10.4916C13.6273 10.5318 13.7456 10.6245 13.8276 10.7699C13.9096 10.9153 13.9289 11.0682 13.8855 11.2287C13.8421 11.3891 13.7528 11.5094 13.6177 11.5896C13.4777 11.6749 13.3281 11.6974 13.1689 11.6573C13.0145 11.6172 12.8986 11.522 12.8214 11.3715ZM10.9611 12.4921C10.879 12.3467 10.8597 12.1938 10.9032 12.0334C10.9466 11.8729 11.0359 11.7526 11.171 11.6724C11.3109 11.5871 11.4581 11.5671 11.6126 11.6122C11.767 11.6523 11.8852 11.7451 11.9672 11.8905C12.0445 12.0308 12.0614 12.1838 12.0179 12.3492C11.9793 12.5097 11.89 12.63 11.7501 12.7102C11.615 12.7954 11.4702 12.8155 11.3158 12.7704C11.1613 12.7252 11.0431 12.6325 10.9611 12.4921ZM9.09347 13.6051C9.01626 13.4648 8.99696 13.3144 9.03556 13.1539C9.079 12.9935 9.17069 12.8706 9.31064 12.7854C9.45058 12.7002 9.59536 12.6801 9.74496 12.7252C9.89939 12.7704 10.0176 12.8656 10.0997 13.011C10.1817 13.1514 10.201 13.3018 10.1576 13.4623C10.1141 13.6227 10.0249 13.7455 9.88973 13.8308C9.74979 13.916 9.6026 13.9361 9.44817 13.8909C9.29375 13.8458 9.17551 13.7505 9.09347 13.6051ZM7.22588 14.7257C7.14867 14.5853 7.12937 14.4349 7.16797 14.2745C7.21141 14.109 7.3031 13.9837 7.44304 13.8985C7.57817 13.8182 7.72294 13.8007 7.87737 13.8458C8.03662 13.8909 8.15485 13.9837 8.23207 14.1241C8.3141 14.2695 8.33341 14.4224 8.28998 14.5828C8.25137 14.7433 8.16209 14.8661 8.02214 14.9513C7.88219 15.0315 7.73501 15.0491 7.58058 15.004C7.42615 14.9639 7.30792 14.8711 7.22588 14.7257ZM6.72641 16.6961L6.32104 15.9591L5.09046 16.6961C4.98912 16.7563 4.92638 16.839 4.90225 16.9443C4.87812 17.0546 4.89501 17.1624 4.95292 17.2677C5.02048 17.383 5.10252 17.4557 5.19904 17.4858C5.29556 17.5158 5.3969 17.4983 5.50307 17.4331L6.72641 16.6961ZM5.74918 14.9288L5.34381 14.1993L4.12047 14.9288C4.01913 14.9889 3.95398 15.0742 3.92502 15.1845C3.9009 15.2998 3.91779 15.4076 3.9757 15.5078C4.03361 15.6131 4.11323 15.6783 4.21457 15.7034C4.32074 15.7335 4.42208 15.7184 4.5186 15.6583L5.74918 14.9288ZM3.7513 11.0331H7.45028L14.0375 7.07731H10.3385L3.7513 11.0331Z"
		fill="currentColor"
	/>
</svg>
