<svg
	color="rgb(var(--foreground, 0, 0, 0))"
	viewBox="0 0 10 18"
	fill="none"
	xmlns="http://www.w3.org/2000/svg"
>
	<path
		d="M0 5.00021C0 5.56518 0.0597907 6.06439 0.179372 6.49785C0.298954 6.92644 0.450922 7.34773 0.635277 7.76171C0.819631 8.17569 1.01395 8.63107 1.21824 9.12785C1.42252 9.62462 1.61186 10.2139 1.78625 10.8958C1.96562 11.5728 2.10264 12.3983 2.19731 13.3724C2.21226 13.5039 2.2571 13.6086 2.33184 13.6865C2.40658 13.7644 2.51619 13.8034 2.66069 13.8034H7.33931C7.48381 13.8034 7.59342 13.7644 7.66816 13.6865C7.74788 13.6086 7.79522 13.5039 7.81016 13.3724C7.90483 12.3983 8.03936 11.5728 8.21375 10.8958C8.38814 10.2139 8.57748 9.62462 8.78176 9.12785C8.99103 8.63107 9.18784 8.17569 9.3722 7.76171C9.55655 7.34773 9.70603 6.92644 9.82063 6.49785C9.94021 6.06439 10 5.56518 10 5.00021C10 4.37194 9.87294 3.78506 9.61883 3.23958C9.36472 2.6941 9.00847 2.2168 8.55007 1.80769C8.09666 1.39371 7.56602 1.07227 6.95815 0.843361C6.35027 0.614454 5.69756 0.5 5 0.5C4.30244 0.5 3.64973 0.614454 3.04185 0.843361C2.43896 1.07227 1.90832 1.39371 1.44993 1.80769C0.996512 2.2168 0.640259 2.6941 0.381166 3.23958C0.127055 3.78506 0 4.37194 0 5.00021ZM1.12855 5.00021C1.12855 4.50831 1.23069 4.05536 1.43498 3.64138C1.63926 3.2274 1.92078 2.86943 2.27952 2.56747C2.63827 2.26064 3.04933 2.02442 3.51271 1.85883C3.98107 1.68837 4.47683 1.60314 5 1.60314C5.52815 1.60314 6.02392 1.68837 6.48729 1.85883C6.95566 2.02442 7.36921 2.26064 7.72795 2.56747C8.0867 2.86943 8.36572 3.2274 8.56502 3.64138C8.76931 4.05536 8.87145 4.50831 8.87145 5.00021C8.87145 5.41907 8.82162 5.79408 8.72197 6.12527C8.62232 6.45645 8.49028 6.79738 8.32586 7.14804C8.16642 7.49871 7.99203 7.91026 7.80269 8.38268C7.61335 8.85511 7.429 9.43711 7.24963 10.1287C7.07025 10.8203 6.9133 11.6775 6.77877 12.7003H3.2287C3.09417 11.6775 2.93473 10.8203 2.75037 10.1287C2.571 9.43711 2.38665 8.85511 2.19731 8.38268C2.00797 7.91026 1.83109 7.49871 1.66667 7.14804C1.50722 6.79738 1.37768 6.45645 1.27803 6.12527C1.17838 5.79408 1.12855 5.41907 1.12855 5.00021ZM2.63827 15.3814H7.36921C7.48879 15.3814 7.59093 15.34 7.67564 15.2572C7.76034 15.1744 7.80269 15.0721 7.80269 14.9504C7.80269 14.8335 7.76034 14.7336 7.67564 14.6508C7.59093 14.568 7.48879 14.5266 7.36921 14.5266H2.63827C2.5137 14.5266 2.40907 14.568 2.32436 14.6508C2.23966 14.7336 2.19731 14.8335 2.19731 14.9504C2.19731 15.0721 2.23966 15.1744 2.32436 15.2572C2.40907 15.34 2.5137 15.3814 2.63827 15.3814ZM5 17.5C5.57798 17.5 6.07872 17.3709 6.50224 17.1128C6.93074 16.8595 7.16243 16.5235 7.19731 16.1046H2.81016C2.83508 16.5235 3.05929 16.8595 3.48281 17.1128C3.91131 17.3709 4.41704 17.5 5 17.5Z"
		fill="currentColor"
	/>
</svg>
