<svg
	color="rgb(var(--foreground, 0, 0, 0))"
	viewBox="0 0 10 18"
	fill="none"
	xmlns="http://www.w3.org/2000/svg"
>
	<path
		d="M0 5.00021C0 5.56518 0.0647733 6.06439 0.19432 6.49785C0.323866 6.92644 0.4858 7.34773 0.68012 7.76171C0.879422 8.17569 1.08371 8.63107 1.29297 9.12785C1.50224 9.62462 1.68909 10.2139 1.85351 10.8958C2.02292 11.5728 2.13752 12.3983 2.19731 13.3724C2.20727 13.5039 2.24963 13.6086 2.32436 13.6865C2.40409 13.7644 2.51619 13.8034 2.66069 13.8034H7.33931C7.48381 13.8034 7.59591 13.7644 7.67564 13.6865C7.75536 13.6086 7.8002 13.5039 7.81016 13.3724C7.86996 12.3983 7.98206 11.5728 8.14649 10.8958C8.3159 10.2139 8.50523 9.62462 8.7145 9.12785C8.92377 8.63107 9.12556 8.17569 9.31988 7.76171C9.51918 7.34773 9.68112 6.92644 9.80568 6.49785C9.93523 6.06439 10 5.56518 10 5.00021C10 4.37194 9.87294 3.78506 9.61883 3.23958C9.36472 2.6941 9.00847 2.2168 8.55007 1.80769C8.09666 1.39371 7.56602 1.07227 6.95815 0.843361C6.35027 0.614454 5.69756 0.5 5 0.5C4.30244 0.5 3.64973 0.614454 3.04185 0.843361C2.43896 1.07227 1.90832 1.39371 1.44993 1.80769C0.996512 2.2168 0.640259 2.6941 0.381166 3.23958C0.127055 3.78506 0 4.37194 0 5.00021ZM2.63827 15.3814H7.36921C7.48879 15.3814 7.59093 15.34 7.67564 15.2572C7.76034 15.1744 7.80269 15.0721 7.80269 14.9504C7.80269 14.8335 7.76034 14.7336 7.67564 14.6508C7.59093 14.568 7.48879 14.5266 7.36921 14.5266H2.63827C2.5137 14.5266 2.40907 14.568 2.32436 14.6508C2.23966 14.7336 2.19731 14.8335 2.19731 14.9504C2.19731 15.0721 2.23966 15.1744 2.32436 15.2572C2.40907 15.34 2.5137 15.3814 2.63827 15.3814ZM5 17.5C5.57798 17.5 6.07872 17.3709 6.50224 17.1128C6.93074 16.8595 7.16243 16.5235 7.19731 16.1046H2.81016C2.83508 16.5235 3.05929 16.8595 3.48281 17.1128C3.91131 17.3709 4.41704 17.5 5 17.5Z"
		fill="currentColor"
	/>
</svg>
