<svg
	color="rgb(var(--foreground, 0, 0, 0))"
	viewBox="0 0 14 20"
	fill="none"
	xmlns="http://www.w3.org/2000/svg"
>
	<path
		d="M0 16.5879C0 17.1165 0.144745 17.525 0.434234 17.8134C0.723723 18.1071 1.13383 18.2539 1.66456 18.2539H4.42275C4.95348 18.2539 5.36359 18.1071 5.65308 17.8134C5.94793 17.525 6.09535 17.1139 6.09535 16.5799V3.40408C6.09535 2.87011 5.94793 2.45895 5.65308 2.1706C5.36359 1.87692 4.95348 1.73008 4.42275 1.73008H1.66456C1.13383 1.73008 0.723723 1.87425 0.434234 2.1626C0.144745 2.45094 0 2.8621 0 3.39608V16.5879ZM1.27054 2.32279H2.332V0.528634C2.332 0.379122 2.27839 0.253638 2.17117 0.152183C2.06931 0.0507275 1.94333 0 1.79322 0C1.64312 0 1.51714 0.0507275 1.41528 0.152183C1.31878 0.253638 1.27054 0.379122 1.27054 0.528634V2.32279ZM3.76336 2.32279H4.82482V0.528634C4.82482 0.379122 4.77389 0.253638 4.67203 0.152183C4.57018 0.0507275 4.44419 0 4.29409 0C4.14398 0 4.018 0.0507275 3.91614 0.152183C3.81429 0.253638 3.76336 0.379122 3.76336 0.528634V2.32279ZM3.04768 5.48658C2.8386 5.48658 2.66169 5.4145 2.51695 5.27032C2.3722 5.12081 2.29983 4.94193 2.29983 4.73368C2.29983 4.52543 2.3722 4.34922 2.51695 4.20505C2.66169 4.05553 2.8386 3.98078 3.04768 3.98078C3.25675 3.98078 3.43366 4.05553 3.57841 4.20505C3.72851 4.34922 3.80357 4.52543 3.80357 4.73368C3.80357 4.94193 3.72851 5.12081 3.57841 5.27032C3.43366 5.4145 3.25675 5.48658 3.04768 5.48658ZM3.04768 8.11374C2.8386 8.11374 2.66169 8.04165 2.51695 7.89748C2.3722 7.7533 2.29983 7.57709 2.29983 7.36884C2.29983 7.16059 2.3722 6.98438 2.51695 6.84021C2.66169 6.6907 2.8386 6.61594 3.04768 6.61594C3.25675 6.61594 3.43366 6.6907 3.57841 6.84021C3.72851 6.98438 3.80357 7.16059 3.80357 7.36884C3.80357 7.57709 3.72851 7.7533 3.57841 7.89748C3.43366 8.04165 3.25675 8.11374 3.04768 8.11374ZM3.04768 10.7409C2.8386 10.7409 2.66169 10.6688 2.51695 10.5246C2.3722 10.3805 2.29983 10.2042 2.29983 9.996C2.29983 9.78774 2.3722 9.61153 2.51695 9.46736C2.66169 9.32319 2.8386 9.2511 3.04768 9.2511C3.25675 9.2511 3.43366 9.32319 3.57841 9.46736C3.72851 9.61153 3.80357 9.78774 3.80357 9.996C3.80357 10.2042 3.72851 10.3805 3.57841 10.5246C3.43366 10.6688 3.25675 10.7409 3.04768 10.7409ZM3.04768 13.3841C2.8386 13.3841 2.66169 13.312 2.51695 13.1678C2.3722 13.0183 2.29983 12.8394 2.29983 12.6312C2.29983 12.4229 2.3722 12.2467 2.51695 12.1025C2.66169 11.953 2.8386 11.8783 3.04768 11.8783C3.25675 11.8783 3.43366 11.953 3.57841 12.1025C3.72851 12.2467 3.80357 12.4229 3.80357 12.6312C3.80357 12.8394 3.72851 13.0183 3.57841 13.1678C3.43366 13.312 3.25675 13.3841 3.04768 13.3841ZM3.04768 16.0112C2.8386 16.0112 2.66169 15.9391 2.51695 15.795C2.3722 15.6508 2.29983 15.4719 2.29983 15.2583C2.29983 15.0501 2.3722 14.8738 2.51695 14.7297C2.66169 14.5855 2.8386 14.5134 3.04768 14.5134C3.25675 14.5134 3.43366 14.5855 3.57841 14.7297C3.72851 14.8738 3.80357 15.0501 3.80357 15.2583C3.80357 15.4719 3.72851 15.6508 3.57841 15.795C3.43366 15.9391 3.25675 16.0112 3.04768 16.0112ZM7.89662 16.6119C7.89662 17.1406 8.04136 17.5491 8.33085 17.8374C8.62034 18.1311 9.03312 18.2779 9.56921 18.2779H12.3194C12.8554 18.2779 13.2682 18.1311 13.5577 17.8374C13.8526 17.5491 14 17.1379 14 16.6039V3.42811C14 2.89414 13.8526 2.48298 13.5577 2.19463C13.2682 1.90095 12.8554 1.7541 12.3194 1.7541H9.56921C9.03312 1.7541 8.62034 1.89828 8.33085 2.18662C8.04136 2.47497 7.89662 2.88613 7.89662 3.4201V16.6119ZM9.16716 17.6852V19.4794C9.16716 19.6289 9.21808 19.7517 9.31994 19.8478C9.4218 19.9493 9.54776 20 9.69787 20C9.84261 20 9.96591 19.9493 10.0678 19.8478C10.175 19.7464 10.2286 19.6235 10.2286 19.4794V17.6852H9.16716ZM11.668 17.6852V19.4794C11.668 19.6235 11.7189 19.7464 11.8208 19.8478C11.9226 19.9493 12.0459 20 12.1907 20C12.3408 20 12.4668 19.9493 12.5686 19.8478C12.6759 19.7517 12.7295 19.6289 12.7295 19.4794V17.6852H11.668ZM10.9443 5.49459C10.7352 5.49459 10.5583 5.42251 10.4136 5.27833C10.2688 5.12882 10.1964 4.94994 10.1964 4.74169C10.1964 4.53344 10.2688 4.35723 10.4136 4.21306C10.5583 4.06354 10.7352 3.98879 10.9443 3.98879C11.1587 3.98879 11.3383 4.06354 11.4831 4.21306C11.6278 4.35723 11.7002 4.53344 11.7002 4.74169C11.7002 4.94994 11.6278 5.12882 11.4831 5.27833C11.3383 5.42251 11.1587 5.49459 10.9443 5.49459ZM10.9443 8.12976C10.7352 8.12976 10.5583 8.05767 10.4136 7.9135C10.2688 7.76398 10.1964 7.5851 10.1964 7.37685C10.1964 7.1686 10.2688 6.99239 10.4136 6.84822C10.5583 6.6987 10.7352 6.62395 10.9443 6.62395C11.1587 6.62395 11.3383 6.6987 11.4831 6.84822C11.6278 6.99239 11.7002 7.1686 11.7002 7.37685C11.7002 7.5851 11.6278 7.76398 11.4831 7.9135C11.3383 8.05767 11.1587 8.12976 10.9443 8.12976ZM10.9443 10.7569C10.7352 10.7569 10.5583 10.6848 10.4136 10.5406C10.2688 10.3965 10.1964 10.2203 10.1964 10.012C10.1964 9.80376 10.2688 9.62755 10.4136 9.48338C10.5583 9.33387 10.7352 9.25911 10.9443 9.25911C11.1587 9.25911 11.3383 9.33387 11.4831 9.48338C11.6278 9.62755 11.7002 9.80376 11.7002 10.012C11.7002 10.2203 11.6278 10.3965 11.4831 10.5406C11.3383 10.6848 11.1587 10.7569 10.9443 10.7569ZM10.9443 13.3921C10.7352 13.3921 10.5583 13.32 10.4136 13.1758C10.2688 13.0263 10.1964 12.8474 10.1964 12.6392C10.1964 12.4309 10.2688 12.2547 10.4136 12.1105C10.5583 11.9664 10.7352 11.8943 10.9443 11.8943C11.1587 11.8943 11.3383 11.9664 11.4831 12.1105C11.6278 12.2547 11.7002 12.4309 11.7002 12.6392C11.7002 12.8474 11.6278 13.0263 11.4831 13.1758C11.3383 13.32 11.1587 13.3921 10.9443 13.3921ZM10.9443 16.0272C10.7352 16.0272 10.5583 15.9525 10.4136 15.803C10.2688 15.6588 10.1964 15.4826 10.1964 15.2743C10.1964 15.0661 10.2688 14.8899 10.4136 14.7457C10.5583 14.5962 10.7352 14.5214 10.9443 14.5214C11.1587 14.5214 11.3383 14.5962 11.4831 14.7457C11.6278 14.8899 11.7002 15.0661 11.7002 15.2743C11.7002 15.4826 11.6278 15.6588 11.4831 15.803C11.3383 15.9525 11.1587 16.0272 10.9443 16.0272Z"
		fill="currentColor"
	/>
</svg>
