<svg
	color="rgb(var(--foreground, 0, 0, 0))"
	viewBox="0 0 16 14"
	fill="none"
	xmlns="http://www.w3.org/2000/svg"
>
	<path
		d="M2.37306 4.6906H3.72449V1.9943C3.72449 1.79753 3.78348 1.64065 3.90147 1.52365C4.02481 1.40133 4.18301 1.34017 4.37608 1.34017H11.6159C11.8143 1.34017 11.9725 1.40133 12.0905 1.52365C12.2085 1.64065 12.2675 1.79753 12.2675 1.9943V4.6906H13.6189V1.98632C13.6189 1.38538 13.4392 0.904084 13.0799 0.54245C12.726 0.180817 12.2621 0 11.6883 0H4.31172C3.73254 0 3.26329 0.180817 2.90398 0.54245C2.55003 0.904084 2.37306 1.38538 2.37306 1.98632V4.6906ZM0 10.4661C0 11.0405 0.174292 11.5031 0.522877 11.8541C0.876824 12.1998 1.33803 12.3727 1.90649 12.3727H14.0935C14.662 12.3727 15.1205 12.1998 15.4691 11.8541C15.823 11.5031 16 11.0405 16 10.4661V5.61595C16 5.0416 15.823 4.58158 15.4691 4.2359C15.1205 3.8849 14.662 3.7094 14.0935 3.7094H13.1523C12.5839 3.7094 12.1227 3.8849 11.7687 4.2359C11.4201 4.58158 11.2458 5.0416 11.2458 5.61595V7.69801H4.75416V5.61595C4.75416 5.0416 4.57718 4.58158 4.22324 4.2359C3.87465 3.8849 3.41613 3.7094 2.84767 3.7094H1.90649C1.33803 3.7094 0.876824 3.8849 0.522877 4.2359C0.174292 4.58158 0 5.0416 0 5.61595V10.4661ZM1.36752 10.4501V5.63191C1.36752 5.45641 1.42115 5.31548 1.52841 5.20912C1.64103 5.10275 1.78851 5.04957 1.97084 5.04957H2.78331C2.96029 5.04957 3.10508 5.10275 3.2177 5.20912C3.33032 5.31548 3.38663 5.45641 3.38663 5.63191V9.03818H12.6134V5.63191C12.6134 5.45641 12.667 5.31548 12.7743 5.20912C12.8869 5.10275 13.0343 5.04957 13.2167 5.04957H14.0292C14.2061 5.04957 14.3509 5.10275 14.4635 5.20912C14.5762 5.31548 14.6325 5.45641 14.6325 5.63191V10.4501C14.6325 10.6256 14.5762 10.7666 14.4635 10.8729C14.3509 10.9793 14.2061 11.0325 14.0292 11.0325H1.97084C1.78851 11.0325 1.64103 10.9793 1.52841 10.8729C1.42115 10.7666 1.36752 10.6256 1.36752 10.4501ZM2.92811 14H3.42685C3.64137 14 3.81298 13.9362 3.94169 13.8085C4.07576 13.6809 4.14279 13.5107 4.14279 13.298V11.6068H2.21217V13.298C2.21217 13.5107 2.27653 13.6809 2.40523 13.8085C2.5393 13.9362 2.7136 14 2.92811 14ZM12.5731 14H13.0638C13.2837 14 13.458 13.9362 13.5867 13.8085C13.7154 13.6809 13.7798 13.5107 13.7798 13.298V11.6068H11.8572V13.298C11.8572 13.5107 11.9216 13.6809 12.0503 13.8085C12.179 13.9362 12.3533 14 12.5731 14Z"
		fill="currentColor"
	/>
</svg>
