<svg
	color="rgb(var(--foreground, 0, 0, 0))"
	viewBox="0 0 15 14"
	fill="none"
	xmlns="http://www.w3.org/2000/svg"
>
	<path
		d="M2.47374 14H12.5263C13.3508 14 13.968 13.8023 14.3776 13.4068C14.7925 13.0165 15 12.4284 15 11.6426V2.35741C15 1.57161 14.7925 0.983523 14.3776 0.593156C13.968 0.197719 13.3508 0 12.5263 0H2.47374C1.64916 0 1.02941 0.197719 0.614496 0.593156C0.204832 0.983523 0 1.57161 0 2.35741V11.6426C0 12.4284 0.204832 13.0165 0.614496 13.4068C1.02941 13.8023 1.64916 14 2.47374 14ZM4.67962 6.91255C4.47479 6.91255 4.3041 6.84664 4.16754 6.71483C4.03099 6.58302 3.96271 6.41572 3.96271 6.21293V3.78707C3.96271 3.59442 4.03099 3.42966 4.16754 3.29278C4.3041 3.15082 4.47479 3.07985 4.67962 3.07985C4.88445 3.07985 5.05515 3.15082 5.1917 3.29278C5.33351 3.42966 5.40441 3.59442 5.40441 3.78707V6.21293C5.40441 6.41065 5.33351 6.57795 5.1917 6.71483C5.05515 6.84664 4.88445 6.91255 4.67962 6.91255ZM6.53099 11.346C6.27889 11.346 6.15284 11.2243 6.15284 10.981V10.0989C6.15284 9.73384 6.28151 9.42459 6.53887 9.1711C6.79622 8.91255 7.1166 8.78327 7.5 8.78327C7.87815 8.78327 8.1959 8.91255 8.45326 9.1711C8.71586 9.42459 8.84716 9.73384 8.84716 10.0989V10.981C8.84716 11.2243 8.72111 11.346 8.46901 11.346H6.53099ZM10.3046 6.91255C10.0998 6.91255 9.9291 6.84664 9.79254 6.71483C9.65599 6.58302 9.58771 6.41572 9.58771 6.21293V3.78707C9.58771 3.59442 9.65599 3.42966 9.79254 3.29278C9.9291 3.15082 10.0998 3.07985 10.3046 3.07985C10.5095 3.07985 10.6828 3.15082 10.8246 3.29278C10.9664 3.42966 11.0373 3.59442 11.0373 3.78707V6.21293C11.0373 6.41065 10.9664 6.57795 10.8246 6.71483C10.6828 6.84664 10.5095 6.91255 10.3046 6.91255Z"
		fill="currentColor"
	/>
</svg>
