<svg
	color="rgb(var(--foreground, 0, 0, 0))"
	viewBox="0 0 15 14"
	fill="none"
	xmlns="http://www.w3.org/2000/svg"
>
	<path
		d="M2.47374 14H12.5263C13.3508 14 13.968 13.8023 14.3776 13.4068C14.7925 13.0165 15 12.4284 15 11.6426V2.35741C15 1.57161 14.7925 0.983523 14.3776 0.593156C13.968 0.197719 13.3508 0 12.5263 0H2.47374C1.64916 0 1.02941 0.197719 0.614496 0.593156C0.204832 0.983523 0 1.57161 0 2.35741V11.6426C0 12.4284 0.204832 13.0165 0.614496 13.4068C1.02941 13.8023 1.64916 14 2.47374 14ZM2.4895 12.7757C2.09559 12.7757 1.79359 12.6768 1.58351 12.4791C1.37342 12.2763 1.26838 11.9772 1.26838 11.5817V2.41825C1.26838 2.02281 1.37342 1.72624 1.58351 1.52852C1.79359 1.32573 2.09559 1.22433 2.4895 1.22433H12.5026C12.8913 1.22433 13.1933 1.32573 13.4086 1.52852C13.624 1.72624 13.7316 2.02281 13.7316 2.41825V11.5817C13.7316 11.9772 13.624 12.2763 13.4086 12.4791C13.1933 12.6768 12.8913 12.7757 12.5026 12.7757H2.4895ZM4.76628 6.92015C4.96061 6.92015 5.12605 6.85678 5.26261 6.73004C5.39916 6.59823 5.46744 6.43599 5.46744 6.24335V3.88593C5.46744 3.69835 5.39916 3.53866 5.26261 3.40684C5.12605 3.27503 4.96061 3.20913 4.76628 3.20913C4.57195 3.20913 4.40651 3.27503 4.26996 3.40684C4.13866 3.53866 4.073 3.69835 4.073 3.88593V6.24335C4.073 6.43599 4.13866 6.59823 4.26996 6.73004C4.40651 6.85678 4.57195 6.92015 4.76628 6.92015ZM6.5625 11.2167H8.4375C8.68435 11.2167 8.80777 11.1001 8.80777 10.8669V10.0076C8.80777 9.65273 8.6791 9.35361 8.42174 9.11027C8.16964 8.86185 7.8624 8.73764 7.5 8.73764C7.13235 8.73764 6.82248 8.86185 6.57038 9.11027C6.31828 9.35361 6.19223 9.65273 6.19223 10.0076V10.8669C6.19223 11.1001 6.31565 11.2167 6.5625 11.2167ZM10.218 6.92015C10.4123 6.92015 10.5777 6.85678 10.7143 6.73004C10.8561 6.59823 10.927 6.43599 10.927 6.24335V3.88593C10.927 3.69835 10.8561 3.53866 10.7143 3.40684C10.5777 3.27503 10.4123 3.20913 10.218 3.20913C10.0236 3.20913 9.85819 3.27503 9.72164 3.40684C9.59034 3.53866 9.52469 3.69835 9.52469 3.88593V6.24335C9.52469 6.43599 9.59034 6.59823 9.72164 6.73004C9.85819 6.85678 10.0236 6.92015 10.218 6.92015Z"
		fill="currentColor"
	/>
</svg>
