<svg
	color="rgb(var(--foreground, 0, 0, 0))"
	viewBox="0 0 30 10"
	fill="none"
	xmlns="http://www.w3.org/2000/svg"
>
	<path
		d="M2.17817 9.5H21.4882C22.1215 9.5 22.6416 9.29058 23.0484 8.87173C23.4604 8.45288 23.6663 7.92408 23.6663 7.28534V2.72251C23.6663 2.07853 23.4604 1.54712 23.0484 1.12827C22.6416 0.709424 22.1215 0.5 21.4882 0.5H2.17817C1.5448 0.5 1.02214 0.709424 0.610196 1.12827C0.203399 1.54712 0 2.07853 0 2.72251V7.28534C0 7.92932 0.203399 8.46073 0.610196 8.87958C1.02214 9.29319 1.5448 9.5 2.17817 9.5ZM2.17817 8.39267C1.85376 8.39267 1.59114 8.29058 1.39032 8.08639C1.1895 7.87696 1.08908 7.60995 1.08908 7.28534V2.72251C1.08908 2.39267 1.1895 2.12565 1.39032 1.92147C1.59114 1.71204 1.85376 1.60733 2.17817 1.60733H21.4882C21.8074 1.60733 22.0675 1.71204 22.2683 1.92147C22.4743 2.12565 22.5772 2.39267 22.5772 2.72251V7.28534C22.5772 7.60995 22.4743 7.87696 22.2683 8.08639C22.0675 8.29058 21.8074 8.39267 21.4882 8.39267H2.17817ZM2.95829 6.78272H3.48352C3.59166 6.78272 3.6792 6.74869 3.74614 6.68063C3.81823 6.60733 3.85427 6.51309 3.85427 6.39791V3.59424C3.85427 3.47382 3.81823 3.37958 3.74614 3.31152C3.6792 3.23822 3.59166 3.20157 3.48352 3.20157H2.95829C2.84501 3.20157 2.75232 3.23822 2.68023 3.31152C2.61329 3.37958 2.57981 3.47382 2.57981 3.59424V6.39791C2.57981 6.51309 2.61329 6.60733 2.68023 6.68063C2.75232 6.74869 2.84501 6.78272 2.95829 6.78272ZM7.60041 7.41885C8.03811 7.41885 8.43718 7.31152 8.79763 7.09686C9.15808 6.87696 9.44387 6.58639 9.65499 6.22513C9.87127 5.85864 9.9794 5.45026 9.9794 5C9.9794 4.56021 9.87127 4.15707 9.65499 3.79058C9.44387 3.41885 9.15808 3.12565 8.79763 2.91099C8.43718 2.6911 8.03811 2.58115 7.60041 2.58115C7.16272 2.58115 6.76365 2.6911 6.40319 2.91099C6.04274 3.12565 5.75438 3.41885 5.53811 3.79058C5.32698 4.15707 5.22142 4.56021 5.22142 5C5.22142 5.45026 5.32698 5.85864 5.53811 6.22513C5.75438 6.58639 6.04274 6.87696 6.40319 7.09686C6.76365 7.31152 7.16272 7.41885 7.60041 7.41885ZM6.7276 6.27225C6.63491 6.27225 6.5551 6.23822 6.48816 6.17016C6.42122 6.10209 6.38774 6.02356 6.38774 5.93456V4.0733C6.38774 3.98429 6.42122 3.90576 6.48816 3.8377C6.5551 3.7644 6.63491 3.72775 6.7276 3.72775C6.82029 3.72775 6.89753 3.76178 6.95932 3.82984C7.02111 3.89791 7.05201 3.97906 7.05201 4.0733V5.93456C7.05201 6.0288 7.02111 6.10995 6.95932 6.17801C6.89753 6.24084 6.82029 6.27225 6.7276 6.27225ZM8.47322 6.27225C8.38054 6.27225 8.30072 6.24084 8.23378 6.17801C8.16684 6.10995 8.13337 6.0288 8.13337 5.93456V4.0733C8.13337 3.97906 8.16684 3.89791 8.23378 3.82984C8.30072 3.76178 8.38054 3.72775 8.47322 3.72775C8.56591 3.72775 8.64315 3.76178 8.70494 3.82984C8.76674 3.89791 8.79763 3.97906 8.79763 4.0733V5.93456C8.79763 6.0288 8.76674 6.10995 8.70494 6.17801C8.64315 6.24084 8.56591 6.27225 8.47322 6.27225ZM13.3316 7.41885C13.7693 7.41885 14.1684 7.31152 14.5288 7.09686C14.8893 6.87696 15.1777 6.58639 15.3939 6.22513C15.6102 5.85864 15.7183 5.45026 15.7183 5C15.7183 4.56021 15.6102 4.15707 15.3939 3.79058C15.1777 3.41885 14.8893 3.12565 14.5288 2.91099C14.1684 2.6911 13.7693 2.58115 13.3316 2.58115C12.8939 2.58115 12.4949 2.6911 12.1344 2.91099C11.7791 3.12565 11.4933 3.41885 11.277 3.79058C11.0659 4.15707 10.9604 4.56021 10.9604 5C10.9604 5.45026 11.0659 5.85864 11.277 6.22513C11.4933 6.58639 11.7791 6.87696 12.1344 7.09686C12.4949 7.31152 12.8939 7.41885 13.3316 7.41885ZM12.4511 6.27225C12.3635 6.27225 12.2863 6.24084 12.2194 6.17801C12.1524 6.10995 12.1189 6.0288 12.1189 5.93456V4.0733C12.1189 3.98429 12.1524 3.90576 12.2194 3.8377C12.2863 3.7644 12.3635 3.72775 12.4511 3.72775C12.5489 3.72775 12.6287 3.76178 12.6905 3.82984C12.7575 3.89791 12.7909 3.97906 12.7909 4.0733V5.93456C12.7909 6.0288 12.7575 6.10995 12.6905 6.17801C12.6287 6.24084 12.5489 6.27225 12.4511 6.27225ZM14.2044 6.27225C14.1117 6.27225 14.0319 6.24084 13.965 6.17801C13.898 6.10995 13.8646 6.0288 13.8646 5.93456V4.0733C13.8646 3.97906 13.898 3.89791 13.965 3.82984C14.0319 3.76178 14.1117 3.72775 14.2044 3.72775C14.2971 3.72775 14.3744 3.76178 14.4361 3.82984C14.5031 3.89791 14.5366 3.97906 14.5366 4.0733V5.93456C14.5366 6.0288 14.5031 6.10995 14.4361 6.17801C14.3744 6.24084 14.2971 6.27225 14.2044 6.27225ZM19.0628 7.41885C19.5005 7.41885 19.8996 7.31152 20.26 7.09686C20.6205 6.87696 20.9063 6.58639 21.1174 6.22513C21.3337 5.85864 21.4418 5.45026 21.4418 5C21.4418 4.56021 21.3337 4.15707 21.1174 3.79058C20.9063 3.41885 20.6205 3.12565 20.26 2.91099C19.8996 2.6911 19.5005 2.58115 19.0628 2.58115C18.6251 2.58115 18.2261 2.6911 17.8656 2.91099C17.5051 3.12565 17.2194 3.41885 17.0082 3.79058C16.7971 4.15707 16.6916 4.56021 16.6916 5C16.6916 5.45026 16.7971 5.85864 17.0082 6.22513C17.2194 6.58639 17.5051 6.87696 17.8656 7.09686C18.2261 7.31152 18.6251 7.41885 19.0628 7.41885ZM18.19 6.27225C18.0973 6.27225 18.0175 6.24084 17.9506 6.17801C17.8836 6.10995 17.8502 6.0288 17.8502 5.93456V4.0733C17.8502 3.98429 17.8836 3.90576 17.9506 3.8377C18.0175 3.7644 18.0973 3.72775 18.19 3.72775C18.2827 3.72775 18.3599 3.76178 18.4217 3.82984C18.4887 3.89791 18.5221 3.97906 18.5221 4.0733V5.93456C18.5221 6.0288 18.4887 6.10995 18.4217 6.17801C18.3548 6.24084 18.2775 6.27225 18.19 6.27225ZM19.9356 6.27225C19.8429 6.27225 19.7631 6.24084 19.6962 6.17801C19.6292 6.10995 19.5958 6.0288 19.5958 5.93456V4.0733C19.5958 3.97906 19.6292 3.89791 19.6962 3.82984C19.7631 3.76178 19.8429 3.72775 19.9356 3.72775C20.0283 3.72775 20.1056 3.76178 20.1674 3.82984C20.2291 3.89791 20.26 3.97906 20.26 4.0733V5.93456C20.26 6.0288 20.2291 6.10995 20.1674 6.17801C20.1056 6.24084 20.0283 6.27225 19.9356 6.27225ZM23.087 7.70942H24.2842C24.552 7.70942 24.7734 7.62304 24.9485 7.45026C25.1236 7.27225 25.2111 7.04712 25.2111 6.77487V3.39791C25.2111 3.12565 25.1236 2.90314 24.9485 2.73037C24.7734 2.55236 24.552 2.46335 24.2842 2.46335H23.087V3.33508H24.0216C24.243 3.33508 24.3538 3.44503 24.3538 3.66492V6.5C24.3538 6.72513 24.243 6.8377 24.0216 6.8377H23.087V7.70942ZM24.9871 5.65969H30V4.63089H24.9871V5.65969Z"
		fill="currentColor"
	/>
</svg>
