<svg
	color="rgb(var(--foreground, 0, 0, 0))"
	viewBox="0 0 30 10"
	fill="none"
	xmlns="http://www.w3.org/2000/svg"
>
	<path
		d="M2.17817 9.5H21.4881C22.1215 9.5 22.6416 9.29058 23.0484 8.87173C23.4603 8.45288 23.6663 7.92408 23.6663 7.28534V2.72251C23.6663 2.07853 23.4603 1.54712 23.0484 1.12827C22.6416 0.709424 22.1215 0.5 21.4881 0.5H2.17817C1.5448 0.5 1.02214 0.709424 0.610195 1.12827C0.203398 1.54712 0 2.07853 0 2.72251V7.28534C0 7.92932 0.203398 8.46073 0.610195 8.87958C1.02214 9.29319 1.5448 9.5 2.17817 9.5ZM2.6725 6.8377C2.55407 6.8377 2.4588 6.80366 2.38671 6.7356C2.31462 6.6623 2.27858 6.56544 2.27858 6.44503V3.54712C2.27858 3.42147 2.31462 3.32461 2.38671 3.25654C2.4588 3.18325 2.55407 3.1466 2.6725 3.1466H3.21318C3.32647 3.1466 3.41915 3.18325 3.49124 3.25654C3.56334 3.32461 3.59938 3.42147 3.59938 3.54712V6.44503C3.59938 6.56544 3.56334 6.6623 3.49124 6.7356C3.41915 6.80366 3.32647 6.8377 3.21318 6.8377H2.6725ZM7.46138 7.49738C7.00824 7.49738 6.59629 7.38482 6.22554 7.15969C5.85479 6.93455 5.5587 6.63351 5.33728 6.25654C5.11586 5.87958 5.00515 5.46073 5.00515 5C5.00515 4.5445 5.11586 4.12827 5.33728 3.75131C5.5587 3.36911 5.85479 3.06544 6.22554 2.84031C6.59629 2.61518 7.00824 2.50262 7.46138 2.50262C7.90937 2.50262 8.31874 2.61518 8.68949 2.84031C9.06539 3.06544 9.36405 3.36911 9.58547 3.75131C9.8069 4.12827 9.91761 4.5445 9.91761 5C9.91761 5.46073 9.8069 5.87958 9.58547 6.25654C9.36405 6.63351 9.06539 6.93455 8.68949 7.15969C8.31874 7.38482 7.90937 7.49738 7.46138 7.49738ZM13.3702 7.49738C12.9222 7.49738 12.5129 7.38482 12.1421 7.15969C11.7714 6.93455 11.4753 6.63351 11.2539 6.25654C11.0376 5.87958 10.9294 5.46073 10.9294 5C10.9294 4.5445 11.0376 4.12827 11.2539 3.75131C11.4753 3.36911 11.7714 3.06544 12.1421 2.84031C12.5129 2.61518 12.9222 2.50262 13.3702 2.50262C13.8234 2.50262 14.2353 2.61518 14.6061 2.84031C14.982 3.06544 15.2806 3.36911 15.5021 3.75131C15.7235 4.12827 15.8342 4.5445 15.8342 5C15.8342 5.46073 15.7235 5.87958 15.5021 6.25654C15.2806 6.63351 14.982 6.93455 14.6061 7.15969C14.2353 7.38482 13.8234 7.49738 13.3702 7.49738ZM19.2868 7.49738C18.8337 7.49738 18.4217 7.38482 18.051 7.15969C17.6802 6.93455 17.3841 6.63351 17.1627 6.25654C16.9464 5.87958 16.8383 5.46073 16.8383 5C16.8383 4.5445 16.9464 4.12827 17.1627 3.75131C17.3841 3.36911 17.6802 3.06544 18.051 2.84031C18.4217 2.61518 18.8337 2.50262 19.2868 2.50262C19.7348 2.50262 20.1442 2.61518 20.5149 2.84031C20.8908 3.06544 21.1895 3.36911 21.4109 3.75131C21.6323 4.12827 21.743 4.5445 21.743 5C21.743 5.46073 21.6323 5.87958 21.4109 6.25654C21.1895 6.63351 20.8908 6.93455 20.5149 7.15969C20.1442 7.38482 19.7348 7.49738 19.2868 7.49738ZM6.55767 6.31152C6.65036 6.31152 6.73017 6.27749 6.79711 6.20942C6.86405 6.14136 6.89752 6.06021 6.89752 5.96597V4.04188C6.89752 3.94764 6.86405 3.86649 6.79711 3.79843C6.73017 3.72513 6.65036 3.68848 6.55767 3.68848C6.46498 3.68848 6.38259 3.72513 6.3105 3.79843C6.24356 3.87173 6.21009 3.95288 6.21009 4.04188V5.96597C6.21009 6.05497 6.24356 6.13613 6.3105 6.20942C6.38259 6.27749 6.46498 6.31152 6.55767 6.31152ZM8.36508 6.31152C8.45777 6.31152 8.53501 6.27749 8.5968 6.20942C8.66374 6.14136 8.69722 6.06021 8.69722 5.96597V4.04188C8.69722 3.94764 8.66374 3.86649 8.5968 3.79843C8.53501 3.72513 8.45777 3.68848 8.36508 3.68848C8.26725 3.68848 8.18228 3.72513 8.11019 3.79843C8.04325 3.86649 8.00978 3.94764 8.00978 4.04188V5.96597C8.00978 6.06021 8.04583 6.14136 8.11792 6.20942C8.19001 6.27749 8.2724 6.31152 8.36508 6.31152ZM12.4665 6.31152C12.5695 6.31152 12.6519 6.27749 12.7137 6.20942C12.7806 6.14136 12.8141 6.06021 12.8141 5.96597V4.04188C12.8141 3.94764 12.7806 3.86649 12.7137 3.79843C12.6519 3.72513 12.5695 3.68848 12.4665 3.68848C12.3738 3.68848 12.2914 3.72513 12.2194 3.79843C12.1524 3.87173 12.1189 3.95288 12.1189 4.04188V5.96597C12.1189 6.06021 12.1524 6.14136 12.2194 6.20942C12.2914 6.27749 12.3738 6.31152 12.4665 6.31152ZM14.2739 6.31152C14.3666 6.31152 14.4464 6.27749 14.5134 6.20942C14.5803 6.14136 14.6138 6.06021 14.6138 5.96597V4.04188C14.6138 3.94764 14.5803 3.86649 14.5134 3.79843C14.4516 3.72513 14.3718 3.68848 14.2739 3.68848C14.1761 3.68848 14.0937 3.72513 14.0268 3.79843C13.9598 3.86649 13.9264 3.94764 13.9264 4.04188V5.96597C13.9264 6.06021 13.9598 6.14136 14.0268 6.20942C14.0937 6.27749 14.1761 6.31152 14.2739 6.31152ZM18.3831 6.31152C18.4758 6.31152 18.5556 6.27749 18.6225 6.20942C18.6946 6.14136 18.7307 6.06021 18.7307 5.96597V4.04188C18.7307 3.94764 18.6972 3.86649 18.6303 3.79843C18.5633 3.72513 18.4809 3.68848 18.3831 3.68848C18.2853 3.68848 18.2029 3.72513 18.1359 3.79843C18.069 3.87173 18.0355 3.95288 18.0355 4.04188V5.96597C18.0355 6.06021 18.069 6.14136 18.1359 6.20942C18.2029 6.27749 18.2853 6.31152 18.3831 6.31152ZM20.1905 6.31152C20.2832 6.31152 20.3604 6.27749 20.4222 6.20942C20.4892 6.14136 20.5226 6.06021 20.5226 5.96597V4.04188C20.5226 3.94764 20.4892 3.86649 20.4222 3.79843C20.3604 3.72513 20.2832 3.68848 20.1905 3.68848C20.0927 3.68848 20.0077 3.72513 19.9356 3.79843C19.8687 3.86649 19.8352 3.94764 19.8352 4.04188V5.96597C19.8352 6.06021 19.8713 6.14136 19.9433 6.20942C20.0154 6.27749 20.0978 6.31152 20.1905 6.31152ZM23.087 7.70942H24.2842C24.552 7.70942 24.7734 7.62304 24.9485 7.45026C25.1236 7.27225 25.2111 7.04712 25.2111 6.77487V3.39791C25.2111 3.12565 25.1236 2.90314 24.9485 2.73037C24.7734 2.55236 24.552 2.46335 24.2842 2.46335H23.087V7.70942ZM24.9871 5.65969H30V4.63089H24.9871V5.65969Z"
		fill="currentColor"
	/>
</svg>
