<svg
	color="rgb(var(--foreground, 0, 0, 0))"
	viewBox="0 0 13 18"
	fill="none"
	xmlns="http://www.w3.org/2000/svg"
>
	<path
		d="M8.94451 0.5H6.7725C6.08857 0.5 5.5489 0.691247 5.1535 1.07374C4.75811 1.45623 4.56041 1.97234 4.56041 2.62205V4.00532H5.77065V2.62205C5.77065 2.33387 5.85881 2.10857 6.03513 1.94614C6.2168 1.77847 6.46259 1.69464 6.7725 1.69464H8.94451C9.52157 1.69464 10.0212 1.81777 10.4433 2.06403C10.8707 2.31029 11.202 2.65873 11.4371 3.10934C11.6722 3.55995 11.7898 4.08915 11.7898 4.69695V16.8948C11.7898 17.0677 11.8459 17.2118 11.9581 17.3271C12.0703 17.4424 12.2145 17.5 12.3909 17.5C12.5672 17.5 12.7115 17.4424 12.8237 17.3271C12.9412 17.2118 13 17.0677 13 16.8948V4.69695C13 3.84289 12.8344 3.1041 12.5031 2.48058C12.1718 1.85183 11.7016 1.36454 11.0925 1.01872C10.4834 0.672908 9.76736 0.5 8.94451 0.5ZM5.16152 4.2804C5.42334 4.2804 5.63439 4.36161 5.79469 4.52404C5.96033 4.68123 6.04315 4.88558 6.04315 5.13708V6.48104C6.5561 6.61204 7.01294 6.82686 7.41368 7.12552C7.81442 7.42418 8.12967 7.79357 8.35943 8.2337C8.58918 8.67383 8.70406 9.1716 8.70406 9.727H9.77003C9.77003 9.1454 9.65515 8.59524 9.4254 8.07651C9.19564 7.55779 8.88039 7.09932 8.47965 6.70111C8.07891 6.29766 7.61672 5.97804 7.09309 5.74226V5.13708C7.09309 4.77554 7.01027 4.45331 6.84463 4.17037C6.67899 3.88219 6.4519 3.65688 6.16337 3.49445C5.87484 3.33202 5.54089 3.25081 5.16152 3.25081C4.7875 3.25081 4.45355 3.33202 4.15967 3.49445C3.87114 3.65688 3.64405 3.88219 3.47841 4.17037C3.31277 4.45331 3.22995 4.77554 3.22995 5.13708V5.74226C2.71166 5.97804 2.24947 6.29766 1.84339 6.70111C1.44265 7.09932 1.1274 7.55779 0.897643 8.07651C0.667885 8.59524 0.553006 9.1454 0.553006 9.727H1.62699C1.62699 9.1716 1.7392 8.67383 1.96361 8.2337C2.19337 7.79357 2.50862 7.42418 2.90936 7.12552C3.3101 6.82686 3.76694 6.61204 4.27989 6.48104V5.13708C4.27989 4.88558 4.36271 4.68123 4.52835 4.52404C4.69399 4.36161 4.90505 4.2804 5.16152 4.2804ZM0.528962 9.58553C0.384695 9.58553 0.25913 9.63793 0.152266 9.74272C0.0507448 9.84227 0 9.96278 0 10.1043C0 10.2457 0.0507448 10.3662 0.152266 10.4658C0.25913 10.5653 0.384695 10.6151 0.528962 10.6151H9.80209C9.94636 10.6151 10.0693 10.5653 10.1708 10.4658C10.2723 10.3662 10.3231 10.2457 10.3231 10.1043C10.3231 9.96278 10.2723 9.84227 10.1708 9.74272C10.0693 9.63793 9.94636 9.58553 9.80209 9.58553H0.528962ZM2.47656 12.7529C2.6422 12.7529 2.78112 12.6979 2.89333 12.5878C3.00554 12.4726 3.06164 12.3337 3.06164 12.1713C3.06164 12.0141 3.00554 11.8805 2.89333 11.7705C2.78112 11.6552 2.6422 11.5975 2.47656 11.5975C2.31626 11.5975 2.17734 11.6552 2.05979 11.7705C1.94224 11.8805 1.88346 12.0141 1.88346 12.1713C1.88346 12.3337 1.94224 12.4726 2.05979 12.5878C2.17734 12.6979 2.31626 12.7529 2.47656 12.7529ZM2.47656 14.9064C2.6422 14.9064 2.78112 14.8487 2.89333 14.7335C3.00554 14.6234 3.06164 14.4872 3.06164 14.3248C3.06164 14.1624 3.00554 14.0261 2.89333 13.9161C2.78112 13.8061 2.6422 13.751 2.47656 13.751C2.31626 13.751 2.17734 13.8061 2.05979 13.9161C1.94224 14.0261 1.88346 14.1624 1.88346 14.3248C1.88346 14.4872 1.94224 14.6234 2.05979 14.7335C2.17734 14.8487 2.31626 14.9064 2.47656 14.9064ZM2.47656 17.0599C2.6422 17.0599 2.78112 17.0022 2.89333 16.887C3.00554 16.7717 3.06164 16.6355 3.06164 16.4783C3.06164 16.3158 3.00554 16.1796 2.89333 16.0696C2.78112 15.9595 2.6422 15.9045 2.47656 15.9045C2.31626 15.9045 2.17734 15.9595 2.05979 16.0696C1.94224 16.1796 1.88346 16.3158 1.88346 16.4783C1.88346 16.6355 1.94224 16.7717 2.05979 16.887C2.17734 17.0022 2.31626 17.0599 2.47656 17.0599ZM5.1535 12.7529C5.31914 12.7529 5.45807 12.6979 5.57027 12.5878C5.68248 12.4726 5.73859 12.3337 5.73859 12.1713C5.73859 12.0141 5.68248 11.8805 5.57027 11.7705C5.45807 11.6552 5.31914 11.5975 5.1535 11.5975C4.98787 11.5975 4.84627 11.6552 4.72872 11.7705C4.61651 11.8805 4.56041 12.0141 4.56041 12.1713C4.56041 12.3337 4.61651 12.4726 4.72872 12.5878C4.84627 12.6979 4.98787 12.7529 5.1535 12.7529ZM5.1535 14.9064C5.31914 14.9064 5.45807 14.8487 5.57027 14.7335C5.68248 14.6234 5.73859 14.4872 5.73859 14.3248C5.73859 14.1624 5.68248 14.0261 5.57027 13.9161C5.45807 13.8061 5.31914 13.751 5.1535 13.751C4.98787 13.751 4.84627 13.8061 4.72872 13.9161C4.61651 14.0261 4.56041 14.1624 4.56041 14.3248C4.56041 14.4872 4.61651 14.6234 4.72872 14.7335C4.84627 14.8487 4.98787 14.9064 5.1535 14.9064ZM5.1535 17.0599C5.31914 17.0599 5.45807 17.0022 5.57027 16.887C5.68248 16.7717 5.73859 16.6355 5.73859 16.4783C5.73859 16.3158 5.68248 16.1796 5.57027 16.0696C5.45807 15.9595 5.31914 15.9045 5.1535 15.9045C4.98787 15.9045 4.84627 15.9595 4.72872 16.0696C4.61651 16.1796 4.56041 16.3158 4.56041 16.4783C4.56041 16.6355 4.61651 16.7717 4.72872 16.887C4.84627 17.0022 4.98787 17.0599 5.1535 17.0599ZM7.82244 12.7529C7.98808 12.7529 8.127 12.6979 8.23921 12.5878C8.35141 12.4726 8.40752 12.3337 8.40752 12.1713C8.40752 12.0141 8.35141 11.8805 8.23921 11.7705C8.127 11.6552 7.98808 11.5975 7.82244 11.5975C7.66214 11.5975 7.52322 11.6552 7.40567 11.7705C7.28812 11.8805 7.22934 12.0141 7.22934 12.1713C7.22934 12.3337 7.28812 12.4726 7.40567 12.5878C7.52322 12.6979 7.66214 12.7529 7.82244 12.7529ZM7.82244 14.9064C7.98808 14.9064 8.127 14.8487 8.23921 14.7335C8.35141 14.6234 8.40752 14.4872 8.40752 14.3248C8.40752 14.1624 8.35141 14.0261 8.23921 13.9161C8.127 13.8061 7.98808 13.751 7.82244 13.751C7.66214 13.751 7.52322 13.8061 7.40567 13.9161C7.28812 14.0261 7.22934 14.1624 7.22934 14.3248C7.22934 14.4872 7.28812 14.6234 7.40567 14.7335C7.52322 14.8487 7.66214 14.9064 7.82244 14.9064ZM7.82244 17.0599C7.98808 17.0599 8.127 17.0022 8.23921 16.887C8.35141 16.7717 8.40752 16.6355 8.40752 16.4783C8.40752 16.3158 8.35141 16.1796 8.23921 16.0696C8.127 15.9595 7.98808 15.9045 7.82244 15.9045C7.66214 15.9045 7.52322 15.9595 7.40567 16.0696C7.28812 16.1796 7.22934 16.3158 7.22934 16.4783C7.22934 16.6355 7.28812 16.7717 7.40567 16.887C7.52322 17.0022 7.66214 17.0599 7.82244 17.0599Z"
		fill="currentColor"
	/>
</svg>
