<svg
	color="rgb(var(--foreground, 0, 0, 0))"
	viewBox="0 0 18 18"
	fill="none"
	xmlns="http://www.w3.org/2000/svg"
>
	<path
		d="M11.2282 0.863203L8.25626 9.13066C8.20453 9.27172 8.2097 9.41278 8.27178 9.55383C8.33903 9.68966 8.44249 9.7837 8.58217 9.83595C8.72701 9.89341 8.86669 9.88819 9.00119 9.82027C9.13569 9.75236 9.2288 9.65048 9.28053 9.51465L12.268 1.24719C12.3197 1.10091 12.312 0.959852 12.2447 0.82402C12.1826 0.682964 12.0792 0.586315 11.9343 0.534072C11.7947 0.481829 11.655 0.489665 11.5153 0.557581C11.3756 0.620273 11.2799 0.722147 11.2282 0.863203ZM7.81396 8.83288L10.6928 0.82402C9.94269 0.630721 9.22363 0.609824 8.53561 0.761329C7.84759 0.907609 7.23975 1.21584 6.71209 1.68603L6.56466 1.63118C6.08356 1.45355 5.6335 1.48489 5.21448 1.72521C4.80063 1.96031 4.49025 2.36519 4.28332 2.93986L0.892359 12.3593C0.768205 12.7093 0.773378 13.028 0.907878 13.3153C1.04238 13.6027 1.28034 13.8143 1.62177 13.9501C1.97354 14.0702 2.29427 14.065 2.58396 13.9344C2.87883 13.8038 3.08575 13.5661 3.20473 13.2213L5.81973 5.94906L5.45503 6.17632C5.62574 6.74055 5.91026 7.25253 6.30859 7.71227C6.71209 8.16678 7.21388 8.54032 7.81396 8.83288ZM2.14166 13.8012L1.33466 13.5034L0 17.2022L0.807003 17.5L2.14166 13.8012ZM11.7093 8.91124C11.8335 8.79631 11.8981 8.66048 11.9033 8.50375C11.9136 8.34702 11.8671 8.20857 11.7636 8.08842C11.6498 7.96303 11.5127 7.89512 11.3524 7.88467C11.192 7.87422 11.0549 7.92646 10.9411 8.0414C10.8221 8.16678 10.76 8.30784 10.7549 8.46457C10.7497 8.61607 10.804 8.7519 10.9178 8.87206C11.0265 8.98177 11.1558 9.04446 11.3058 9.06014C11.461 9.07058 11.5955 9.02095 11.7093 8.91124ZM13.1526 10.4942C13.2716 10.3793 13.3337 10.2408 13.3388 10.0789C13.344 9.91692 13.2897 9.77325 13.1759 9.64787C13.0776 9.54338 12.9483 9.48853 12.7879 9.4833C12.6327 9.47808 12.4956 9.53032 12.3766 9.64003C12.268 9.74452 12.2085 9.87774 12.1982 10.0397C12.1878 10.1964 12.2344 10.3296 12.3378 10.4394C12.4568 10.5595 12.5939 10.6248 12.7491 10.6353C12.9043 10.6457 13.0388 10.5987 13.1526 10.4942ZM14.5804 12.0615C14.689 11.9518 14.7485 11.8212 14.7588 11.6697C14.7692 11.5182 14.7226 11.3771 14.6192 11.2465C14.5105 11.1263 14.376 11.0663 14.2157 11.0663C14.0605 11.0663 13.926 11.1237 13.8122 11.2387C13.7035 11.3432 13.6415 11.4738 13.6259 11.6305C13.6156 11.782 13.6621 11.9178 13.7656 12.038C13.8742 12.1634 14.0087 12.2261 14.1691 12.2261C14.3295 12.2261 14.4666 12.1712 14.5804 12.0615ZM12.8189 6.03526C12.8758 5.88898 12.8681 5.74532 12.7957 5.60426C12.7284 5.45798 12.6198 5.35872 12.4697 5.30647C12.3197 5.25423 12.1723 5.25945 12.0274 5.32215C11.8878 5.37961 11.7895 5.48671 11.7326 5.64344C11.6809 5.79495 11.686 5.94645 11.7481 6.09796C11.8154 6.24946 11.924 6.35395 12.074 6.41141C12.224 6.46366 12.3715 6.45582 12.5163 6.3879C12.6612 6.31476 12.762 6.19722 12.8189 6.03526ZM14.8054 6.78756C14.8623 6.64128 14.8545 6.49761 14.7821 6.35656C14.7149 6.21028 14.6062 6.1084 14.4562 6.05094C14.3062 5.99347 14.1639 5.99869 14.0294 6.06661C13.8949 6.1293 13.7992 6.23901 13.7423 6.39574C13.6906 6.54202 13.6958 6.68569 13.7578 6.82675C13.8199 6.9678 13.926 7.06706 14.076 7.12453C14.226 7.17677 14.3709 7.17155 14.5105 7.10886C14.6502 7.04617 14.7485 6.93907 14.8054 6.78756ZM16.8074 7.50852C16.8643 7.35701 16.8565 7.21073 16.7841 7.06968C16.7168 6.92862 16.6108 6.82936 16.466 6.77189C16.3108 6.71965 16.1607 6.72487 16.0159 6.78756C15.8762 6.85026 15.7779 6.95735 15.721 7.10886C15.6693 7.26036 15.6745 7.41187 15.7365 7.56337C15.8038 7.71488 15.9124 7.81936 16.0624 7.87683C16.2125 7.92907 16.3599 7.91863 16.5047 7.84549C16.6548 7.77235 16.7556 7.66002 16.8074 7.50852ZM13.7966 3.15928C13.7656 3.00256 13.688 2.87978 13.5639 2.79097C13.4449 2.70216 13.3052 2.6682 13.1448 2.6891C12.9845 2.71522 12.8551 2.78575 12.7569 2.90068C12.6586 3.01562 12.6224 3.15406 12.6482 3.31601C12.6689 3.47274 12.7413 3.60074 12.8655 3.7C12.9896 3.79404 13.1319 3.83322 13.2923 3.81755C13.4526 3.79143 13.5794 3.71567 13.6725 3.59029C13.7708 3.46491 13.8122 3.32124 13.7966 3.15928ZM15.8917 2.88501C15.8762 2.72306 15.8038 2.59506 15.6745 2.50102C15.5451 2.40176 15.4029 2.36258 15.2477 2.38348C15.0925 2.4096 14.9658 2.48535 14.8675 2.61073C14.7692 2.73612 14.7304 2.8824 14.7511 3.04957C14.7718 3.19585 14.8468 3.31863 14.9761 3.41789C15.1054 3.51192 15.2477 3.55111 15.4029 3.53543C15.5581 3.50931 15.6848 3.43356 15.7831 3.30818C15.8814 3.18279 15.9176 3.04174 15.8917 2.88501ZM17.9946 2.61073C17.9636 2.44878 17.8886 2.31817 17.7696 2.21891C17.6506 2.11965 17.5135 2.08047 17.3583 2.10136C17.1979 2.11704 17.0712 2.19018 16.9781 2.32078C16.885 2.45139 16.8488 2.59245 16.8695 2.74395C16.8901 2.90068 16.96 3.02868 17.079 3.12794C17.2031 3.22198 17.3428 3.25855 17.498 3.23765C17.6583 3.22198 17.7851 3.15145 17.8782 3.02606C17.9765 2.89546 18.0153 2.75701 17.9946 2.61073Z"
		fill="currentColor"
	/>
</svg>
