<svg
	color="rgb(var(--foreground, 0, 0, 0))"
	viewBox="0 0 24 14"
	fill="none"
	xmlns="http://www.w3.org/2000/svg"
>
	<path
		d="M2.36664 4.6906H3.67799V1.9943C3.67799 1.79753 3.73489 1.64065 3.84869 1.52365C3.96767 1.40133 4.11769 1.34017 4.29874 1.34017H10.7236C10.9098 1.34017 11.0598 1.40133 11.1736 1.52365C11.2874 1.64065 11.3443 1.79753 11.3443 1.9943V8.32821H12.6557V1.98632C12.6557 1.38538 12.4824 0.904084 12.1358 0.54245C11.7944 0.180817 11.3443 0 10.7856 0H4.24443C3.68057 0 3.22535 0.180817 2.87876 0.54245C2.53734 0.904084 2.36664 1.38538 2.36664 1.98632V4.6906ZM21.8041 4.6906V1.98632C21.8041 1.38538 21.6308 0.904084 21.2842 0.54245C20.9428 0.180817 20.4901 0 19.9263 0H13.2144C12.6557 0 12.203 0.180817 11.8564 0.54245C11.515 0.904084 11.3443 1.38538 11.3443 1.98632V8.32821H12.6557V1.9943C12.6557 1.79753 12.7126 1.64065 12.8264 1.52365C12.9402 1.40133 13.0902 1.34017 13.2764 1.34017H19.872C20.0582 1.34017 20.2082 1.40133 20.322 1.52365C20.4358 1.64065 20.4927 1.79753 20.4927 1.9943V4.6906H21.8041ZM0 10.4661C0 11.0405 0.168122 11.5031 0.504365 11.8541C0.845782 12.1998 1.29066 12.3727 1.83899 12.3727H22.161C22.7145 12.3727 23.1594 12.1998 23.4956 11.8541C23.8319 11.5031 24 11.0405 24 10.4661V5.61595C24 5.0416 23.8319 4.58158 23.4956 4.2359C23.1594 3.8849 22.7145 3.7094 22.161 3.7094H21.0902C20.5419 3.7094 20.0996 3.8849 19.7633 4.2359C19.4271 4.58158 19.259 5.0416 19.259 5.61595V7.53048H4.74879V5.61595C4.74879 5.0416 4.57808 4.58158 4.23667 4.2359C3.90042 3.8849 3.45813 3.7094 2.9098 3.7094H1.83899C1.29066 3.7094 0.845782 3.8849 0.504365 4.2359C0.168122 4.58158 0 5.0416 0 5.61595V10.4661ZM1.31911 10.4501V5.63191C1.31911 5.45641 1.37084 5.31548 1.4743 5.20912C1.58293 5.10275 1.72519 5.04957 1.90107 5.04957H2.83996C3.01584 5.04957 3.1581 5.10275 3.26673 5.20912C3.37537 5.31548 3.42968 5.45641 3.42968 5.63191V8.87066H20.5703V5.63191C20.5703 5.45641 20.6246 5.31548 20.7333 5.20912C20.8419 5.10275 20.9842 5.04957 21.16 5.04957H22.0989C22.2748 5.04957 22.4171 5.10275 22.5257 5.20912C22.6343 5.31548 22.6887 5.45641 22.6887 5.63191V10.4501C22.6887 10.6256 22.6343 10.7666 22.5257 10.8729C22.4171 10.9793 22.2748 11.0325 22.0989 11.0325H1.90107C1.72519 11.0325 1.58293 10.9793 1.4743 10.8729C1.37084 10.7666 1.31911 10.6256 1.31911 10.4501ZM2.82444 14H3.30553C3.51245 14 3.67799 13.9362 3.80214 13.8085C3.93146 13.6809 3.99612 13.5107 3.99612 13.298V11.6068H2.13385V13.298C2.13385 13.5107 2.19593 13.6809 2.32008 13.8085C2.4494 13.9362 2.61753 14 2.82444 14ZM20.6945 14H21.1756C21.3825 14 21.548 13.9362 21.6722 13.8085C21.8015 13.6809 21.8661 13.5107 21.8661 13.298V11.6068H20.0039V13.298C20.0039 13.5107 20.066 13.6809 20.1901 13.8085C20.3194 13.9362 20.4875 14 20.6945 14Z"
		fill="currentColor"
	/>
</svg>
