<svg
	color="rgb(var(--foreground, 0, 0, 0))"
	viewBox="0 0 24 14"
	fill="none"
	xmlns="http://www.w3.org/2000/svg"
>
	<path
		d="M4.9793 7.27521H11.5241V1.73105C11.5241 1.20988 11.372 0.792403 11.0678 0.478632C10.7637 0.159544 10.3651 0 9.87214 0H3.88589C3.39293 0 2.99443 0.159544 2.69027 0.478632C2.38611 0.792403 2.23403 1.20988 2.23403 1.73105V3.19886H2.45428C2.94199 3.19886 3.37458 3.31054 3.75216 3.5339C4.13499 3.75195 4.43391 4.05774 4.64892 4.45128C4.86917 4.83951 4.9793 5.28357 4.9793 5.78348V7.27521ZM12.4759 7.27521H19.0206V5.78348C19.0206 5.28357 19.1281 4.83951 19.3432 4.45128C19.5634 4.05774 19.8623 3.75195 20.2399 3.5339C20.6227 3.31054 21.058 3.19886 21.5457 3.19886H21.766V1.73105C21.766 1.20988 21.6139 0.792403 21.3097 0.478632C21.0056 0.159544 20.607 0 20.1141 0H14.1278C13.6349 0 13.2363 0.159544 12.9321 0.478632C12.628 0.792403 12.4759 1.20988 12.4759 1.73105V7.27521ZM0 10.6336C0 11.1335 0.146837 11.535 0.440512 11.8382C0.739431 12.1413 1.13012 12.2929 1.61259 12.2929H22.3874C22.8699 12.2929 23.2579 12.1413 23.5516 11.8382C23.8505 11.535 24 11.1335 24 10.6336V5.78348C24 5.28889 23.8505 4.89003 23.5516 4.58689C23.2579 4.27844 22.8699 4.12422 22.3874 4.12422H21.5457C21.0633 4.12422 20.6752 4.27844 20.3815 4.58689C20.0878 4.89003 19.941 5.28889 19.941 5.78348V8.20057H4.06681V5.78348C4.06681 5.28889 3.91735 4.89003 3.61843 4.58689C3.32476 4.27844 2.93675 4.12422 2.45428 4.12422H1.61259C1.13012 4.12422 0.739431 4.27844 0.440512 4.58689C0.146837 4.89003 0 5.28889 0 5.78348V10.6336ZM2.7768 14H3.27232C3.48208 14 3.6499 13.9362 3.77576 13.8085C3.90162 13.6809 3.96455 13.5107 3.96455 13.298V11.6068H2.08457V13.298C2.08457 13.5107 2.1475 13.6809 2.27336 13.8085C2.39922 13.9362 2.56703 14 2.7768 14ZM20.7276 14H21.2232C21.433 14 21.6008 13.9362 21.7266 13.8085C21.8525 13.6809 21.9154 13.5107 21.9154 13.298V11.6068H20.0354V13.298C20.0354 13.5107 20.0983 13.6809 20.2242 13.8085C20.35 13.9362 20.5179 14 20.7276 14Z"
		fill="currentColor"
	/>
</svg>
