<svg
	color="rgb(var(--foreground, 0, 0, 0))"
	viewBox="0 0 15 16"
	fill="none"
	xmlns="http://www.w3.org/2000/svg"
>
	<path
		d="M0.623052 15.5C0.794391 15.5 0.942366 15.4377 1.06698 15.3132C1.19159 15.1886 1.25389 15.0407 1.25389 14.8695V12.2462H3.97977C4.20303 12.2462 4.38735 12.1736 4.53273 12.0283C4.67811 11.883 4.7508 11.6988 4.7508 11.4756V8.75117H7.47665C7.69991 8.75117 7.88423 8.67852 8.02961 8.53321C8.18018 8.38791 8.25547 8.20368 8.25547 7.98054V5.2561H10.9735C11.1968 5.2561 11.3811 5.18345 11.5265 5.03814C11.6771 4.88765 11.7523 4.70342 11.7523 4.48547V1.75324H14.3692C14.5457 1.75324 14.6937 1.69357 14.8131 1.57421C14.9377 1.44966 15 1.30176 15 1.13051C15 0.959263 14.9377 0.811365 14.8131 0.686819C14.6937 0.562273 14.5457 0.5 14.3692 0.5H11.2695C11.0462 0.5 10.8619 0.575246 10.7165 0.725739C10.5711 0.871043 10.4985 1.05527 10.4985 1.27841V4.00285H7.7726C7.54934 4.00285 7.36502 4.07551 7.21964 4.22081C7.07426 4.36611 7.00157 4.55034 7.00157 4.77348V7.49792H4.26793C4.04987 7.49792 3.86555 7.57317 3.71498 7.72366C3.5696 7.86897 3.49691 8.05319 3.49691 8.27634V10.993H0.771026C0.547766 10.993 0.363447 11.0682 0.218068 11.2187C0.0726894 11.364 0 11.5483 0 11.7714V14.8695C0 15.0407 0.0597091 15.1886 0.179127 15.3132C0.303738 15.4377 0.451712 15.5 0.623052 15.5Z"
		fill="currentColor"
	/>
</svg>
