<svg
	color="rgb(var(--foreground, 0, 0, 0))"
	viewBox="0 0 12 20"
	fill="none"
	xmlns="http://www.w3.org/2000/svg"
>
	<path
		d="M0.734225 1.76614H11.2737C11.4491 1.76614 11.598 1.70323 11.7202 1.5774C11.8478 1.45157 11.9115 1.30215 11.9115 1.12914C11.9115 0.956126 11.8478 0.809327 11.7202 0.688742C11.598 0.562914 11.4491 0.5 11.2737 0.5H0.734225C0.558832 0.5 0.407356 0.562914 0.279798 0.688742C0.152239 0.809327 0.0884598 0.956126 0.0884598 1.12914C0.0884598 1.30215 0.152239 1.45157 0.279798 1.5774C0.407356 1.70323 0.558832 1.76614 0.734225 1.76614ZM1.37202 7.75869L2.6476 7.625L2.22506 1.4673L0.933535 1.49876L1.37202 7.75869ZM9.3524 7.625L10.636 7.75869L11.0665 1.49876L9.78291 1.4673L9.3524 7.625ZM6.00399 11.8245C7.18922 11.8245 8.23095 11.7144 9.12917 11.4942C10.0327 11.2688 10.7369 10.9542 11.2419 10.5505C11.7468 10.1468 11.9992 9.6697 11.9992 9.11921C11.9992 8.57395 11.7441 8.09948 11.2339 7.69578C10.729 7.28684 10.0247 6.97227 9.1212 6.75207C8.22297 6.52663 7.1839 6.41391 6.00399 6.41391C4.82407 6.41391 3.78234 6.52663 2.8788 6.75207C1.97526 6.97227 1.26838 7.28684 0.758142 7.69578C0.253223 8.09948 0.000763316 8.57395 0.000763316 9.11921C0.000763316 9.6697 0.25588 10.1468 0.766114 10.5505C1.27635 10.9542 1.98058 11.2688 2.8788 11.4942C3.78234 11.7144 4.82407 11.8245 6.00399 11.8245ZM6.00399 10.5584C5.0845 10.5584 4.27132 10.4954 3.56443 10.3696C2.85754 10.2385 2.30213 10.0655 1.8982 9.85058C1.49958 9.63038 1.30027 9.38659 1.30027 9.11921C1.30027 8.85182 1.49958 8.61065 1.8982 8.3957C2.30213 8.1755 2.85754 8.00248 3.56443 7.87666C4.27132 7.74558 5.0845 7.68005 6.00399 7.68005C6.91816 7.68005 7.72868 7.74558 8.43557 7.87666C9.14777 8.00248 9.70318 8.1755 10.1018 8.3957C10.5057 8.61065 10.7077 8.85182 10.7077 9.11921C10.7077 9.38659 10.5084 9.63038 10.1098 9.85058C9.71116 10.0655 9.1584 10.2385 8.45152 10.3696C7.74463 10.4954 6.92879 10.5584 6.00399 10.5584ZM5.71698 14.8601H6.29099C7.41245 14.8601 8.40634 14.6163 9.27267 14.1287C10.139 13.6359 10.814 12.957 11.2977 12.0919C11.7813 11.2268 12.0152 10.2359 11.9992 9.11921H10.7077C10.7237 10.0052 10.5456 10.7864 10.1736 11.4627C9.80682 12.1338 9.28862 12.6581 8.61894 13.0356C7.94925 13.4078 7.17327 13.594 6.29099 13.594H5.71698C4.82939 13.594 4.05075 13.4078 3.38106 13.0356C2.71138 12.6581 2.19318 12.1338 1.82644 11.4627C1.45971 10.7917 1.28432 10.0105 1.30027 9.11921H0.000763316C-0.0151815 10.2412 0.218676 11.2347 0.702335 12.0998C1.19131 12.9596 1.86631 13.6359 2.72733 14.1287C3.59366 14.6163 4.59021 14.8601 5.71698 14.8601ZM6.01993 19.5C6.50359 19.5 7.00054 19.4607 7.51077 19.382C8.02101 19.3034 8.49138 19.1828 8.92189 19.0203C9.35771 18.8578 9.70053 18.6533 9.95033 18.4069C10.0513 18.302 10.1071 18.1841 10.1177 18.053C10.1337 17.9272 10.1231 17.7935 10.0859 17.6519L8.76244 13.3659L7.62239 14.0108L8.9458 18.3282L9.00958 17.5261C8.74915 17.7515 8.3399 17.9245 7.78183 18.0451C7.22908 18.1709 6.64178 18.2339 6.01993 18.2339C5.39277 18.2339 4.80015 18.1709 4.24208 18.0451C3.68933 17.9245 3.2854 17.7515 3.03028 17.5261L3.08609 18.3282L4.41748 14.0108L3.27742 13.3659L1.954 17.6519C1.91148 17.7935 1.89554 17.9272 1.90617 18.053C1.92211 18.1841 1.98058 18.302 2.08156 18.4069C2.33668 18.6533 2.67949 18.8578 3.11 19.0203C3.54583 19.1828 4.0162 19.3034 4.52112 19.382C5.03135 19.4607 5.53096 19.5 6.01993 19.5Z"
		fill="currentColor"
	/>
</svg>
