<svg
	color="rgb(var(--foreground, 0, 0, 0))"
	viewBox="0 0 12 20"
	fill="none"
	xmlns="http://www.w3.org/2000/svg"
>
	<path
		d="M0.656185 1.76614H11.3438C11.5243 1.76614 11.6774 1.70323 11.8031 1.5774C11.9344 1.45157 12 1.30215 12 1.12914C12 0.956126 11.9344 0.809327 11.8031 0.688742C11.6774 0.562914 11.5243 0.5 11.3438 0.5H0.656185C0.475734 0.5 0.31989 0.562914 0.188653 0.688742C0.0628844 0.809327 0 0.956126 0 1.12914C0 1.30215 0.0628844 1.45157 0.188653 1.5774C0.31989 1.70323 0.475734 1.76614 0.656185 1.76614ZM6.0041 11.0381C6.83526 11.0381 7.59808 10.9909 8.29254 10.8965C8.98701 10.8022 9.58852 10.6685 10.0971 10.4954C10.6111 10.3172 11.0075 10.1101 11.2864 9.87417C11.5653 9.633 11.7047 9.36824 11.7047 9.07988C11.7047 8.79677 11.5625 8.53725 11.2782 8.30132C10.9993 8.06015 10.6029 7.85306 10.0889 7.68005C9.58032 7.50704 8.9788 7.37334 8.28434 7.27897C7.58988 7.1846 6.8298 7.13742 6.0041 7.13742C5.1784 7.13742 4.41832 7.1846 3.72385 7.27897C3.02939 7.37334 2.42515 7.50704 1.91114 7.68005C1.4026 7.85306 1.00615 8.06015 0.721804 8.30132C0.437457 8.53725 0.295283 8.79677 0.295283 9.07988C0.295283 9.36824 0.437457 9.633 0.721804 9.87417C1.00615 10.1101 1.4026 10.3172 1.91114 10.4954C2.42515 10.6685 3.02939 10.8022 3.72385 10.8965C4.41832 10.9909 5.1784 11.0381 6.0041 11.0381ZM5.72522 14.7815H6.27477C7.19343 14.7815 8.0246 14.6189 8.76828 14.2939C9.51742 13.9636 10.1381 13.4917 10.6302 12.8783C11.1278 12.2649 11.4559 11.5309 11.6145 10.6763C11.0567 11.0591 10.2939 11.3553 9.32604 11.565C8.36364 11.7695 7.25632 11.8717 6.0041 11.8717C4.75734 11.8717 3.6473 11.7695 2.67396 11.565C1.70608 11.3553 0.946001 11.0564 0.393711 10.6685C0.546821 11.5283 0.869446 12.2649 1.36158 12.8783C1.85372 13.4917 2.47437 13.9636 3.22351 14.2939C3.97266 14.6189 4.80656 14.7815 5.72522 14.7815ZM6.0041 19.5C6.44702 19.5 6.92002 19.4607 7.4231 19.382C7.92617 19.3034 8.39644 19.1828 8.8339 19.0203C9.27682 18.8578 9.62679 18.6533 9.8838 18.4069C9.9877 18.302 10.0451 18.1841 10.0561 18.053C10.0725 17.9272 10.0588 17.7935 10.015 17.6519L9.21121 15.0803C8.76282 15.269 8.28981 15.4132 7.7922 15.5128C7.29459 15.6072 6.79152 15.6544 6.28298 15.6544H5.69241C5.18933 15.6544 4.69173 15.6072 4.19959 15.5128C3.70745 15.4185 3.23718 15.2795 2.78879 15.096L1.98496 17.6519C1.94122 17.7935 1.92481 17.9272 1.93575 18.053C1.95215 18.1841 2.0123 18.302 2.1162 18.4069C2.37867 18.6533 2.72864 18.8578 3.16609 19.0203C3.60902 19.1828 4.07929 19.3034 4.57689 19.382C5.07997 19.4607 5.5557 19.5 6.0041 19.5ZM10.7368 6.98013L11.0567 2.63907H0.943267L1.27136 6.98013C1.85646 6.74945 2.55092 6.57381 3.35475 6.45323C4.16404 6.3274 5.04716 6.26449 6.0041 6.26449C6.96103 6.26449 7.84142 6.3274 8.64524 6.45323C9.45454 6.57381 10.1517 6.74945 10.7368 6.98013Z"
		fill="currentColor"
	/>
</svg>
