<svg
	color="rgb(var(--foreground, 0, 0, 0))"
	viewBox="0 0 13 16"
	fill="none"
	xmlns="http://www.w3.org/2000/svg"
>
	<path
		d="M6.50404 12.7762C7.39929 12.7762 8.23791 12.6121 9.01991 12.2839C9.8073 11.9504 10.4976 11.4925 11.0908 10.9102C11.6895 10.3226 12.156 9.64235 12.4904 8.86948C12.8301 8.09661 13 7.26816 13 6.38412C13 5.50538 12.8301 4.67957 12.4904 3.9067C12.156 3.13383 11.6895 2.45624 11.0908 1.87395C10.4976 1.28635 9.8073 0.828453 9.01991 0.500248C8.23791 0.166749 7.39929 0 6.50404 0C5.60879 0 4.76748 0.166749 3.98009 0.500248C3.1927 0.828453 2.49969 1.28635 1.90106 1.87395C1.30782 2.45624 0.84132 3.13383 0.501556 3.9067C0.167185 4.67957 0 5.50538 0 6.38412C0 7.26816 0.167185 8.09661 0.501556 8.86948C0.84132 9.64235 1.30782 10.3226 1.90106 10.9102C2.49969 11.4925 3.1927 11.9504 3.98009 12.2839C4.76748 12.6121 5.60879 12.7762 6.50404 12.7762ZM6.50404 10.2114C5.78136 10.2114 5.12612 10.042 4.53828 9.70323C3.95043 9.35914 3.48123 8.89859 3.13068 8.32159C2.78553 7.74458 2.61295 7.09876 2.61295 6.38412C2.61295 5.67477 2.78553 5.0316 3.13068 4.45459C3.48123 3.87759 3.95043 3.41969 4.53828 3.08089C5.12612 2.73681 5.78136 2.56476 6.50404 2.56476C7.22671 2.56476 7.88197 2.73681 8.46981 3.08089C9.05766 3.41969 9.52416 3.87759 9.86932 4.45459C10.2145 5.0316 10.3871 5.67477 10.3871 6.38412C10.3871 7.09876 10.2145 7.74458 9.86932 8.32159C9.52416 8.89859 9.05766 9.35914 8.46981 9.70323C7.88197 10.042 7.22671 10.2114 6.50404 10.2114ZM6.50404 8.16278C7.01099 8.16278 7.43704 7.99074 7.7822 7.64665C8.13275 7.30256 8.30802 6.88172 8.30802 6.38412C8.30802 5.88652 8.13275 5.46567 7.7822 5.12159C7.43704 4.7775 7.01099 4.60546 6.50404 4.60546C5.99709 4.60546 5.56835 4.7775 5.2178 5.12159C4.86725 5.46567 4.69198 5.88652 4.69198 6.38412C4.69198 6.88172 4.86725 7.30256 5.2178 7.64665C5.56835 7.99074 5.99709 8.16278 6.50404 8.16278ZM5.85688 15.3648H7.1593V12.1886H5.85688V15.3648ZM3.67269 16H9.3354C9.51337 16 9.66438 15.9365 9.78842 15.8094C9.91786 15.6877 9.98257 15.5395 9.98257 15.3648C9.98257 15.1901 9.91786 15.0392 9.78842 14.9122C9.66438 14.7851 9.51337 14.7216 9.3354 14.7216H3.68078C3.5028 14.7216 3.3491 14.7851 3.21967 14.9122C3.09023 15.0392 3.02552 15.1901 3.02552 15.3648C3.02552 15.5395 3.08754 15.6877 3.21158 15.8094C3.34101 15.9365 3.49471 16 3.67269 16Z"
		fill="currentColor"
	/>
</svg>
