<svg
	color="rgb(var(--foreground, 0, 0, 0))"
	viewBox="0 0 20 18"
	fill="none"
	xmlns="http://www.w3.org/2000/svg"
>
	<path
		d="M0 1.87317C0 2.10337 0.0555336 2.31483 0.166601 2.50756C0.277668 2.69493 0.425757 2.84483 0.610869 2.95725C0.795981 3.06967 1.00225 3.12589 1.22967 3.12589C1.44652 3.12589 1.6475 3.06967 1.83261 2.95725C2.02301 2.84483 2.16845 2.70028 2.26894 2.52362H17.7311C17.8368 2.70028 17.9823 2.84483 18.1674 2.95725C18.3525 3.06967 18.5535 3.12589 18.7703 3.12589C18.9978 3.12589 19.204 3.06967 19.3891 2.95725C19.5742 2.84483 19.7223 2.69493 19.8334 2.50756C19.9445 2.31483 20 2.10337 20 1.87317C20 1.64832 19.9445 1.44221 19.8334 1.25484C19.7223 1.06212 19.5742 0.909542 19.3891 0.797119C19.204 0.684695 18.9978 0.628484 18.7703 0.628484C18.5535 0.628484 18.3525 0.684695 18.1674 0.797119C17.9823 0.909542 17.8368 1.05409 17.7311 1.23075H2.26894C2.16845 1.05409 2.02301 0.909542 1.83261 0.797119C1.6475 0.684695 1.44652 0.628484 1.22967 0.628484C1.00225 0.628484 0.795981 0.684695 0.610869 0.797119C0.425757 0.909542 0.277668 1.06212 0.166601 1.25484C0.0555336 1.44221 0 1.64832 0 1.87317ZM3.49861 17.5H4.87902C5.04298 17.5 5.17784 17.4438 5.28362 17.3314C5.3894 17.2243 5.44229 17.0878 5.44229 16.9218V1.08621C5.44229 0.914895 5.3894 0.775705 5.28362 0.668635C5.17784 0.556212 5.04298 0.5 4.87902 0.5H3.49861C3.33466 0.5 3.19979 0.556212 3.09401 0.668635C2.98823 0.775705 2.93535 0.914895 2.93535 1.08621V16.9218C2.93535 17.0878 2.98823 17.2243 3.09401 17.3314C3.19979 17.4438 3.33466 17.5 3.49861 17.5ZM15.121 17.5H16.5014C16.6653 17.5 16.8002 17.4438 16.906 17.3314C17.0118 17.2243 17.0647 17.0878 17.0647 16.9218V1.08621C17.0647 0.914895 17.0118 0.775705 16.906 0.668635C16.8002 0.556212 16.6653 0.5 16.5014 0.5H15.121C14.957 0.5 14.8222 0.556212 14.7164 0.668635C14.6106 0.775705 14.5577 0.914895 14.5577 1.08621V16.9218C14.5577 17.0878 14.6106 17.2243 14.7164 17.3314C14.8222 17.4438 14.957 17.5 15.121 17.5Z"
		fill="currentColor"
	/>
</svg>
