<svg
	color="rgb(var(--foreground, 0, 0, 0))"
	viewBox="0 0 16 18"
	fill="none"
	xmlns="http://www.w3.org/2000/svg"
>
	<path
		d="M0.0575341 6.14693C-0.0217349 6.35973 -0.0190929 6.54972 0.0654608 6.71692C0.155299 6.88411 0.282128 6.99558 0.445951 7.05131C0.572782 7.09691 0.694327 7.09944 0.810588 7.05891C0.932134 7.01331 1.04575 6.94998 1.15145 6.86891C1.5108 6.61559 1.87015 6.44333 2.2295 6.35213C2.58886 6.25586 2.97464 6.27866 3.38683 6.42053C3.79903 6.56239 4.10025 6.77518 4.2905 7.05891C4.48074 7.34264 4.61286 7.68969 4.68685 8.10008C4.70798 8.23181 4.74498 8.34834 4.79782 8.44967C4.85067 8.55101 4.93786 8.62194 5.05941 8.66247C5.18624 8.70807 5.30514 8.7106 5.41612 8.67007C5.5271 8.62447 5.63543 8.5586 5.74112 8.47247C5.97893 8.27995 6.24845 8.13555 6.54967 8.03929C6.85617 7.94302 7.16268 7.90249 7.46919 7.91769L3.95757 17.1439C3.89416 17.306 3.90208 17.4681 3.98135 17.6302C4.06062 17.7924 4.18745 17.9038 4.36184 17.9646C4.53095 18.0204 4.70005 18.0102 4.86916 17.9342C5.03827 17.8633 5.15453 17.7442 5.21795 17.577L8.72164 8.35088C8.96473 8.52821 9.16819 8.7486 9.33201 9.01206C9.50112 9.27045 9.60945 9.54911 9.65701 9.84804C9.68872 9.9747 9.731 10.0887 9.78384 10.19C9.83669 10.2914 9.92389 10.3623 10.0454 10.4028C10.167 10.4484 10.2832 10.4484 10.3942 10.4028C10.5052 10.3572 10.6135 10.2914 10.7192 10.2052C11.0469 9.94177 11.3772 9.75937 11.7101 9.65804C12.0483 9.55165 12.4235 9.56938 12.8357 9.71124C13.2479 9.85817 13.5597 10.0786 13.7711 10.3724C13.9877 10.6663 14.1463 11.026 14.2467 11.4516C14.2784 11.5732 14.3233 11.6872 14.3814 11.7936C14.4449 11.9 14.54 11.9735 14.6668 12.014C14.8306 12.0697 15.0024 12.0621 15.1821 11.9912C15.367 11.9203 15.4965 11.7759 15.5705 11.558C15.7872 10.9905 15.9219 10.3623 15.9748 9.67324C16.0329 8.98419 15.9906 8.27488 15.8479 7.5453C15.7105 6.81572 15.4516 6.10133 15.0711 5.40215C14.6959 4.70297 14.1859 4.05952 13.5412 3.4718C12.8965 2.87902 12.0959 2.37996 11.1393 1.97464L11.5515 0.903067C11.6202 0.715605 11.6176 0.543342 11.5436 0.38628C11.4749 0.224151 11.3454 0.110154 11.1552 0.0442885C10.9702 -0.0215765 10.7985 -0.0139767 10.64 0.0670879C10.4814 0.143086 10.3652 0.274816 10.2912 0.462278L9.88689 1.54145C8.88282 1.25772 7.93423 1.14373 7.04113 1.19946C6.15332 1.25519 5.33157 1.43505 4.57587 1.73905C3.82017 2.03797 3.1411 2.42303 2.53865 2.89422C1.94149 3.3654 1.43153 3.88219 1.00876 4.44458C0.591278 5.00696 0.274203 5.57441 0.0575341 6.14693ZM1.91243 5.26536C2.25064 4.76883 2.65491 4.32551 3.12524 3.93539C3.60086 3.5402 4.12932 3.21594 4.71063 2.96261C5.29722 2.70422 5.9208 2.53196 6.58137 2.44583C7.24195 2.3597 7.92631 2.3749 8.63444 2.49143C7.99501 2.89168 7.38463 3.43887 6.80333 4.13298C6.22202 4.82203 5.73055 5.62255 5.32892 6.53452C5.17038 6.24066 4.96164 5.99494 4.7027 5.79734C4.44904 5.59468 4.1531 5.43508 3.81488 5.31855C3.17016 5.09563 2.53601 5.07789 1.91243 5.26536ZM6.28808 6.91451C6.5893 6.22546 6.94865 5.60735 7.36614 5.06016C7.78362 4.51297 8.22753 4.05192 8.69786 3.677C9.16819 3.29701 9.63323 3.01835 10.093 2.84102C10.3308 3.26154 10.5052 3.76313 10.6162 4.34578C10.7271 4.92336 10.7589 5.55161 10.7113 6.23053C10.6637 6.90945 10.5237 7.6061 10.2912 8.32048C10.1009 8.00129 9.85254 7.72263 9.54604 7.4845C9.23953 7.2413 8.9066 7.05384 8.54725 6.92211C8.1879 6.79545 7.81005 6.73212 7.4137 6.73212C7.01736 6.73212 6.64215 6.79292 6.28808 6.91451ZM11.2741 8.60927C11.5859 7.66183 11.7497 6.74478 11.7656 5.85814C11.7814 4.9715 11.681 4.17858 11.4643 3.4794C12.0826 3.82899 12.6138 4.24191 13.0577 4.71817C13.5068 5.18936 13.8688 5.70361 14.1436 6.26093C14.4184 6.81318 14.6034 7.3857 14.6985 7.97849C14.7989 8.57127 14.8121 9.15899 14.7382 9.74164C14.5585 9.47818 14.3445 9.25272 14.0961 9.06526C13.8477 8.8778 13.5676 8.7258 13.2558 8.60927C12.553 8.36608 11.8924 8.36608 11.2741 8.60927Z"
		fill="currentColor"
	/>
</svg>
