<svg
	color="rgb(var(--foreground, 0, 0, 0))"
	viewBox="0 0 16 18"
	fill="none"
	xmlns="http://www.w3.org/2000/svg"
>
	<path
		d="M9.00405 3.86063L10.2635 4.30138L11.5466 0.904569C11.6153 0.72219 11.6126 0.549942 11.5387 0.387827C11.4701 0.225713 11.3433 0.111725 11.1585 0.0458662C10.9737 -0.019993 10.7994 -0.0149269 10.6357 0.0610645C10.4773 0.137056 10.3638 0.271307 10.2951 0.463819L9.00405 3.86063ZM9.1387 1.36812C8.20933 1.18574 7.33276 1.14774 6.50899 1.25413C5.69051 1.35545 4.93275 1.56316 4.23572 1.87726C3.53869 2.19136 2.91294 2.57891 2.35848 3.03993C1.80931 3.49587 1.33934 3.99235 0.948579 4.52936C0.563099 5.06636 0.267388 5.6059 0.0614465 6.14797C-0.0230423 6.36075 -0.0204023 6.55073 0.0693671 6.71791C0.159136 6.88002 0.283224 6.99148 0.441641 7.05227C0.568374 7.09787 0.68983 7.1004 0.806002 7.05987C0.927454 7.01934 1.03834 6.95855 1.13867 6.87749C1.50831 6.61405 1.87267 6.43674 2.23175 6.34555C2.59083 6.2493 2.97366 6.27463 3.38027 6.42154C3.65486 6.51273 3.874 6.64192 4.0377 6.8091C4.20667 6.97121 4.33869 7.14346 4.43374 7.32584C4.49183 7.43729 4.56575 7.49302 4.65552 7.49302C4.75057 7.49302 4.81394 7.43223 4.84562 7.31064C5.06741 6.46461 5.38688 5.67176 5.80404 4.93211C6.22649 4.19246 6.72021 3.52121 7.28523 2.91834C7.85553 2.31548 8.47335 1.79873 9.1387 1.36812ZM10.7308 1.09455C10.1658 1.45931 9.62451 1.88992 9.10702 2.3864C8.58953 2.87781 8.11428 3.41735 7.68127 4.00502C7.24827 4.58762 6.87071 5.20315 6.5486 5.85161C6.23176 6.495 5.98886 7.15613 5.81988 7.83498C5.7882 7.9667 5.81724 8.06802 5.90701 8.13895C5.99678 8.20481 6.12087 8.20987 6.27929 8.15415C6.59612 8.02749 6.90504 7.94897 7.20603 7.91857C7.5123 7.88818 7.81065 7.92364 8.10108 8.02496C8.39151 8.12628 8.64233 8.28333 8.85355 8.49611C9.06478 8.70382 9.25224 8.95459 9.41594 9.24842C9.49515 9.38521 9.59019 9.45613 9.70109 9.4612C9.81198 9.46626 9.90174 9.408 9.97039 9.28642C10.2925 8.66836 10.5486 8.0123 10.7387 7.31824C10.9288 6.62419 11.0529 5.92 11.111 5.20568C11.1744 4.4863 11.1717 3.77704 11.1031 3.07792C11.0397 2.3788 10.9156 1.71768 10.7308 1.09455ZM11.808 2.29521C12.0298 3.03486 12.1539 3.80997 12.1803 4.62055C12.212 5.43112 12.1381 6.25183 11.9585 7.08267C11.7843 7.90844 11.5044 8.71648 11.1189 9.50679C11.0661 9.61318 11.0714 9.69677 11.1348 9.75757C11.2034 9.81836 11.2984 9.82089 11.4199 9.76516C11.6206 9.68917 11.8371 9.63851 12.0694 9.61318C12.307 9.58785 12.5605 9.62331 12.8298 9.71957C13.2417 9.86142 13.5532 10.0818 13.7645 10.3807C13.981 10.6745 14.142 11.0317 14.2476 11.4522C14.2688 11.5788 14.311 11.6953 14.3744 11.8017C14.443 11.9031 14.5381 11.974 14.6595 12.0145C14.8232 12.0702 14.9948 12.0626 15.1744 11.9917C15.3539 11.9157 15.4833 11.7713 15.5625 11.5586C15.7684 11.0165 15.9031 10.4212 15.9665 9.77276C16.0298 9.1243 16.0034 8.45305 15.8872 7.75899C15.7711 7.06494 15.5493 6.38355 15.2219 5.71482C14.8998 5.04103 14.4589 4.41284 13.8991 3.83024C13.3394 3.24257 12.6423 2.73089 11.808 2.29521ZM3.96641 17.1439C3.90304 17.3111 3.90832 17.4732 3.98225 17.6303C4.06146 17.7924 4.1882 17.9038 4.36245 17.9646C4.53143 18.0204 4.70041 18.0102 4.86939 17.9342C5.04364 17.8582 5.15981 17.7392 5.2179 17.5771L8.87732 7.94897L7.62583 7.50822L3.96641 17.1439Z"
		fill="currentColor"
	/>
</svg>
