<svg
	color="rgb(var(--foreground, 0, 0, 0))"
	viewBox="0 0 18 18"
	fill="none"
	xmlns="http://www.w3.org/2000/svg"
>
	<path
		d="M3.70565 11.8668H13.4901C14.1367 11.8668 14.7332 11.7546 15.2799 11.53C15.8318 11.3055 16.3101 10.9922 16.7148 10.5901C17.1248 10.188 17.4402 9.72324 17.661 9.19582C17.887 8.66841 18 8.10444 18 7.50392C18 6.87728 17.8791 6.30287 17.6373 5.78068C17.4008 5.25326 17.067 4.79634 16.636 4.40992C16.2102 4.01828 15.7109 3.7154 15.138 3.50131C14.565 3.28721 13.9448 3.18016 13.2773 3.18016C12.9514 2.53786 12.5335 1.97911 12.0237 1.50392C11.5191 1.0235 10.9435 0.652742 10.297 0.391645C9.65046 0.130548 8.94612 0 8.18397 0C7.44284 0 6.74376 0.13577 6.08673 0.407311C5.43495 0.673629 4.85151 1.04439 4.3364 1.51958C3.82129 1.99478 3.40342 2.5483 3.08279 3.18016C2.76741 3.81201 2.57819 4.49086 2.51511 5.21671C2.03679 5.35248 1.60841 5.57702 1.22996 5.89034C0.851511 6.19843 0.551905 6.57441 0.331143 7.01828C0.110381 7.46214 0 7.96084 0 8.51436C0 9.13055 0.144547 9.69452 0.43364 10.2063C0.727989 10.7128 1.15112 11.1175 1.70302 11.4204C2.25493 11.718 2.92247 11.8668 3.70565 11.8668ZM3.68988 10.6136C3.14849 10.6136 2.69908 10.5222 2.34166 10.3394C1.98423 10.1567 1.71353 9.91123 1.52957 9.60313C1.35085 9.28982 1.2615 8.93995 1.2615 8.55352C1.2615 8.08355 1.40867 7.65535 1.70302 7.26893C1.99737 6.87728 2.48095 6.59269 3.15375 6.41514C3.37451 6.3577 3.52957 6.27154 3.61892 6.15666C3.70828 6.04178 3.76347 5.87467 3.78449 5.65535C3.82654 5.01305 3.97109 4.42559 4.21813 3.89295C4.47043 3.35509 4.79632 2.89034 5.1958 2.49869C5.59527 2.10183 6.04993 1.79634 6.55979 1.58225C7.0749 1.36292 7.61629 1.25326 8.18397 1.25326C9.07227 1.25326 9.85808 1.48825 10.5414 1.95822C11.2247 2.42298 11.7792 3.08877 12.205 3.95561C12.2943 4.14882 12.4047 4.2846 12.5361 4.36292C12.6675 4.43603 12.8515 4.47258 13.088 4.47258C13.866 4.47258 14.5256 4.61358 15.067 4.89556C15.6137 5.17232 16.0289 5.54308 16.3127 6.00783C16.5966 6.47259 16.7385 6.98172 16.7385 7.53525C16.7385 8.10444 16.5992 8.62141 16.3206 9.08616C16.042 9.55091 15.6636 9.92167 15.1853 10.1984C14.707 10.4752 14.1682 10.6136 13.569 10.6136H3.68988ZM3.91064 15.5326L4.93561 13.7624C5.0092 13.6423 5.0276 13.5222 4.9908 13.4021C4.95926 13.2768 4.88568 13.1802 4.77004 13.1123C4.64915 13.0444 4.52825 13.0287 4.40736 13.0653C4.28647 13.0966 4.18922 13.1723 4.11564 13.2924L3.08279 15.0783C3.01445 15.188 2.99606 15.3029 3.0276 15.423C3.05913 15.5483 3.13798 15.6449 3.26413 15.7128C3.37976 15.7755 3.50066 15.7885 3.62681 15.752C3.75296 15.7206 3.84757 15.6475 3.91064 15.5326ZM5.7477 17.765L8.07359 13.7546C8.14192 13.6397 8.16032 13.5222 8.12878 13.4021C8.09724 13.282 8.02628 13.188 7.9159 13.1201C7.80026 13.0522 7.67937 13.0339 7.55322 13.0653C7.42707 13.0966 7.32983 13.1723 7.2615 13.2924L4.95138 17.2872C4.88305 17.4073 4.86465 17.5274 4.89619 17.6475C4.92773 17.7728 5.00131 17.8695 5.11695 17.9373C5.23259 18 5.34823 18.0157 5.46386 17.9843C5.58476 17.953 5.67937 17.8799 5.7477 17.765ZM10.1866 15.5248L11.2116 13.7546C11.2852 13.6345 11.3035 13.5144 11.2668 13.3943C11.2352 13.2689 11.159 13.1723 11.0381 13.1044C10.9225 13.0366 10.8016 13.0209 10.6754 13.0574C10.5545 13.0888 10.4599 13.1645 10.3916 13.2846L9.35874 15.0705C9.29041 15.1802 9.27201 15.295 9.30355 15.4151C9.33509 15.5405 9.4113 15.6371 9.53219 15.705C9.64783 15.7676 9.76873 15.7807 9.89488 15.7441C10.021 15.7128 10.1183 15.6397 10.1866 15.5248ZM12.0158 17.7572L14.3495 13.7467C14.4179 13.6319 14.4363 13.5144 14.4047 13.3943C14.3732 13.2742 14.2996 13.1802 14.184 13.1123C14.0736 13.0444 13.9553 13.0261 13.8292 13.0574C13.703 13.0888 13.6058 13.1645 13.5375 13.2846L11.2194 17.2794C11.1511 17.3995 11.1327 17.5196 11.1643 17.6397C11.1958 17.765 11.2694 17.8616 11.385 17.9295C11.5007 17.9922 11.6163 18.0078 11.7319 17.9765C11.8528 17.9452 11.9474 17.8721 12.0158 17.7572Z"
		fill="currentColor"
	/>
</svg>
