<svg
	color="rgb(var(--foreground, 0, 0, 0))"
	viewBox="0 0 19 14"
	fill="none"
	xmlns="http://www.w3.org/2000/svg"
>
	<path
		d="M6.00535 14H15.7123C16.3631 14 16.9357 13.8555 17.4303 13.5665C17.9249 13.2775 18.3102 12.8895 18.5861 12.4025C18.862 11.9102 19 11.3643 19 10.7649C19 10.2351 18.8881 9.74809 18.6642 9.3039C18.4403 8.85436 18.1358 8.47706 17.7505 8.17202C17.3653 7.86697 16.9305 7.66361 16.4464 7.56193C16.4047 6.90902 16.2199 6.31498 15.8919 5.77982C15.5639 5.2393 15.1318 4.81116 14.5956 4.49541C14.0645 4.17431 13.4762 4.01376 12.8307 4.01376C12.1955 4.01376 11.6124 4.16628 11.0814 4.47133C10.5504 4.77102 10.1182 5.17508 9.78505 5.68349C9.45706 5.5711 9.12646 5.51491 8.79327 5.51491C8.29347 5.51491 7.83273 5.62997 7.41102 5.86009C6.99453 6.08486 6.64571 6.39526 6.36458 6.79128C6.08865 7.18731 5.91425 7.63685 5.84136 8.13991C5.32074 8.15596 4.84958 8.29778 4.42788 8.56537C4.01138 8.83295 3.67817 9.18616 3.42828 9.625C3.18358 10.0585 3.06124 10.5375 3.06124 11.0619C3.06124 11.6078 3.18358 12.1028 3.42828 12.547C3.67297 12.9912 4.01659 13.3444 4.45912 13.6067C4.90164 13.8689 5.41705 14 6.00535 14ZM2.29593 9.81766C2.4365 9.31995 2.63954 8.88647 2.90505 8.5172C3.17057 8.14258 3.48815 7.83754 3.85779 7.60206C4.23263 7.36659 4.65174 7.20336 5.1151 7.11238C5.30772 6.49159 5.59406 5.97783 5.97412 5.5711C6.35417 5.15902 6.79669 4.8513 7.30169 4.64794C7.80669 4.44457 8.34814 4.34289 8.92603 4.34289C9.01974 4.34289 9.11085 4.34824 9.19935 4.35894C9.29306 4.36965 9.38157 4.38035 9.46487 4.39105C9.80847 3.87729 10.238 3.49465 10.7534 3.24312C11.2688 2.99159 11.8597 2.86583 12.5261 2.86583C12.3907 2.50191 12.1252 2.18349 11.7296 1.91055C11.3391 1.63226 10.8315 1.49312 10.2067 1.49312C10.0245 1.49312 9.85273 1.50917 9.69133 1.54128C9.53515 1.57339 9.37636 1.61621 9.21497 1.66972C8.87136 1.15596 8.43664 0.749235 7.91082 0.449541C7.3902 0.149847 6.81752 0 6.19278 0C5.55242 0 4.96151 0.16055 4.42007 0.481651C3.88383 0.797401 3.4465 1.22286 3.10809 1.75803C2.7749 2.2932 2.59008 2.88723 2.55364 3.54014C2.06425 3.64717 1.62693 3.85589 1.24168 4.16628C0.856418 4.47133 0.551856 4.84595 0.32799 5.29014C0.10933 5.73433 0 6.21865 0 6.74312C0 7.44954 0.200438 8.08372 0.601315 8.64564C1.00219 9.20222 1.56706 9.59289 2.29593 9.81766Z"
		fill="currentColor"
	/>
</svg>
