<svg
	color="rgb(var(--foreground, 0, 0, 0))"
	viewBox="0 0 19 14"
	fill="none"
	xmlns="http://www.w3.org/2000/svg"
>
	<path
		d="M5.859 14H15.4385C16.154 14 16.7767 13.8512 17.3067 13.5535C17.842 13.2559 18.258 12.8546 18.5548 12.3497C18.8516 11.8447 19 11.2787 19 10.6515C18.9947 10.1306 18.8834 9.64693 18.6661 9.20046C18.4488 8.74867 18.1467 8.36598 17.7598 8.05239C17.3782 7.73349 16.9357 7.50759 16.4322 7.37472C16.3686 6.72096 16.1593 6.13364 15.8042 5.61276C15.4544 5.08656 15.0039 4.66932 14.4527 4.36105C13.9015 4.05277 13.3 3.89863 12.6481 3.89863C12.028 3.89863 11.4477 4.03948 10.9071 4.32118C10.3665 4.59757 9.91339 4.98026 9.5477 5.46925C9.4046 5.43736 9.25356 5.41078 9.09456 5.38952C8.94086 5.36295 8.78717 5.34966 8.63347 5.34966C8.12469 5.35497 7.65035 5.46925 7.21046 5.69248C6.77587 5.91572 6.41018 6.22134 6.11339 6.60934C5.8166 6.99203 5.61785 7.43052 5.51715 7.92483C4.98717 7.9833 4.51018 8.15338 4.08619 8.43508C3.6622 8.71147 3.32831 9.07024 3.08452 9.51139C2.84073 9.94723 2.71883 10.4282 2.71883 10.9544C2.71883 11.5391 2.85398 12.0626 3.12427 12.5251C3.39456 12.9822 3.76555 13.3409 4.23724 13.6014C4.71423 13.8671 5.25481 14 5.859 14ZM5.859 12.7961C5.28131 12.7961 4.81227 12.626 4.45188 12.2859C4.09679 11.9457 3.91925 11.5019 3.91925 10.9544C3.91925 10.609 4.00404 10.298 4.17364 10.0216C4.34324 9.73994 4.57113 9.51671 4.85732 9.35194C5.14351 9.18185 5.46681 9.09415 5.8272 9.08884C6.10279 9.07821 6.30153 9.02506 6.42343 8.92938C6.55063 8.83371 6.62483 8.66894 6.64603 8.43508C6.68842 7.88762 6.89512 7.4385 7.26611 7.0877C7.6424 6.73159 8.09819 6.55353 8.63347 6.55353C8.78717 6.55353 8.91967 6.56682 9.03096 6.59339C9.14756 6.61997 9.28801 6.66515 9.4523 6.72893C9.6696 6.81397 9.84449 6.83789 9.97699 6.80068C10.1095 6.75816 10.2208 6.6492 10.3109 6.4738C10.5176 6.05923 10.8303 5.72969 11.249 5.48519C11.6729 5.23538 12.1393 5.10782 12.6481 5.10251C13.1251 5.10251 13.5597 5.2221 13.9519 5.46128C14.3494 5.70046 14.6647 6.01936 14.8979 6.418C15.1311 6.81663 15.2477 7.25778 15.2477 7.74146C15.2477 8.01784 15.2954 8.21185 15.3908 8.32346C15.4915 8.42976 15.677 8.49886 15.9473 8.53075C16.2971 8.57327 16.6098 8.69552 16.8854 8.89749C17.1662 9.09415 17.3888 9.34662 17.5531 9.6549C17.7174 9.95786 17.7996 10.2901 17.7996 10.6515C17.7996 11.082 17.6989 11.4594 17.4975 11.7836C17.3014 12.1025 17.0258 12.3523 16.6707 12.533C16.3209 12.7084 15.9102 12.7961 15.4385 12.7961H5.859ZM0 6.76082C0 7.35611 0.148396 7.90623 0.445188 8.41116C0.74728 8.91078 1.16862 9.31207 1.70921 9.61503C2.25509 9.918 2.89637 10.0695 3.63305 10.0695H3.71255L4.08619 8.8656H3.8C3.27531 8.8656 2.81688 8.77525 2.42469 8.59453C2.0378 8.4085 1.7357 8.15869 1.51841 7.8451C1.30642 7.5262 1.20042 7.16477 1.20042 6.76082C1.20042 6.38876 1.28257 6.0486 1.44686 5.74032C1.61646 5.42673 1.8417 5.16894 2.12259 4.96697C2.40879 4.765 2.72148 4.64541 3.06067 4.6082C3.30446 4.57631 3.47671 4.5019 3.57741 4.38497C3.6781 4.26272 3.72845 4.07403 3.72845 3.81891C3.72315 3.35118 3.83975 2.918 4.07824 2.51936C4.31674 2.12073 4.63738 1.80182 5.04017 1.56264C5.44296 1.32346 5.8855 1.20387 6.36778 1.20387C6.85537 1.20919 7.29261 1.32878 7.6795 1.56264C8.07169 1.79651 8.40028 2.1287 8.66527 2.55923C8.76067 2.71868 8.87992 2.81967 9.02301 2.86219C9.17141 2.89939 9.3463 2.8861 9.5477 2.82232C9.659 2.78512 9.79149 2.75323 9.94519 2.72665C10.0989 2.69476 10.2632 2.67882 10.4381 2.67882C10.9257 2.67882 11.347 2.84624 11.7021 3.18109C12.0572 3.51063 12.2427 3.91989 12.2586 4.40888H13.4828C13.4722 3.86143 13.3318 3.36712 13.0615 2.92597C12.7965 2.4795 12.4414 2.12604 11.9962 1.8656C11.5563 1.60516 11.0661 1.47494 10.5255 1.47494C10.3241 1.47494 10.136 1.48557 9.96109 1.50683C9.78619 1.52809 9.62455 1.55998 9.47615 1.60251C9.02036 1.05505 8.53808 0.651101 8.02929 0.390661C7.5258 0.13022 6.97197 0 6.36778 0C5.7106 0.00531511 5.10377 0.162111 4.54728 0.470387C3.99609 0.778664 3.54031 1.1959 3.17992 1.7221C2.82483 2.24829 2.61018 2.83827 2.53598 3.49203C2.0378 3.61959 1.59791 3.84548 1.21632 4.1697C0.834728 4.48861 0.535286 4.8713 0.317992 5.31777C0.105997 5.76424 0 6.24525 0 6.76082Z"
		fill="currentColor"
	/>
</svg>
