<svg
	color="rgb(var(--foreground, 0, 0, 0))"
	viewBox="0 0 21 20"
	fill="none"
	xmlns="http://www.w3.org/2000/svg"
>
	<path
		d="M3.32253 13.608H11.9851C12.7377 13.608 13.4182 13.4333 14.0267 13.0837C14.6351 12.7342 15.1182 12.261 15.4758 11.6641C15.8334 11.0618 16.0122 10.3897 16.0122 9.64758C16.0122 8.9055 15.8281 8.24139 15.4598 7.65526C15.0968 7.06374 14.6005 6.59591 13.9706 6.25176C13.3408 5.9076 12.6256 5.73284 11.825 5.72746C11.5154 5.13057 11.1285 4.61972 10.6641 4.1949C10.2051 3.76471 9.68738 3.43938 9.11094 3.21891C8.53984 2.99306 7.93138 2.88013 7.28555 2.88013C6.63439 2.88013 6.01792 2.99843 5.43614 3.23504C4.85436 3.47164 4.33397 3.80235 3.87495 4.22717C3.41594 4.65198 3.04232 5.14939 2.7541 5.71939C2.46588 6.2894 2.29241 6.90511 2.2337 7.56653C1.55051 7.77087 1.0061 8.1446 0.600457 8.68772C0.200152 9.22545 0 9.84923 0 10.559C0 11.1613 0.138772 11.6937 0.416317 12.1561C0.699199 12.6132 1.08883 12.9708 1.58521 13.2289C2.08692 13.4817 2.66603 13.608 3.32253 13.608ZM17.013 9.51046C17.6374 9.40291 18.1952 9.20663 18.6862 8.92163C19.1773 8.63663 19.5936 8.30861 19.9352 7.93757C20.2821 7.56115 20.5463 7.17667 20.7278 6.78412C20.9093 6.39157 21 6.03128 21 5.70326C21 5.54732 20.9653 5.41826 20.8959 5.31609C20.8265 5.20854 20.7278 5.15477 20.5997 5.15477C20.4716 5.15477 20.3168 5.19779 20.1353 5.28383C19.9539 5.36986 19.7324 5.4559 19.4708 5.54194C19.2093 5.62798 18.8944 5.671 18.5261 5.671C17.875 5.671 17.3092 5.54732 16.8288 5.29996C16.3538 5.0526 15.9855 4.70576 15.724 4.25943C15.4624 3.80773 15.3317 3.28075 15.3317 2.67848C15.3317 2.32357 15.3797 2.00093 15.4758 1.71055C15.5719 1.42017 15.6653 1.16743 15.756 0.952336C15.8521 0.731863 15.9001 0.549032 15.9001 0.403842C15.9001 0.280162 15.8574 0.18068 15.772 0.105397C15.692 0.0301134 15.5719 -0.00483965 15.4117 0.000537739C15.0381 0.0166699 14.6538 0.126906 14.2589 0.331247C13.8639 0.530211 13.4849 0.804458 13.122 1.15399C12.7644 1.50352 12.4522 1.9122 12.1853 2.38003C11.9238 2.84249 11.7396 3.3399 11.6329 3.87226C11.7556 3.99056 11.8757 4.13037 11.9931 4.2917C12.1106 4.44764 12.2173 4.63316 12.3134 4.84826C12.9912 4.90203 13.613 5.06066 14.1788 5.32416C14.7446 5.58765 15.2356 5.9318 15.6519 6.35662C16.0736 6.78143 16.4018 7.26271 16.6367 7.80045C16.8769 8.33818 17.0023 8.90819 17.013 9.51046ZM3.1544 17.4717L4.2032 15.6568C4.27259 15.5331 4.2886 15.4095 4.25124 15.2858C4.21921 15.1567 4.14449 15.0572 4.02707 14.9873C3.90431 14.9174 3.78155 14.9013 3.65879 14.9389C3.53603 14.9712 3.43729 15.0492 3.36256 15.1729L2.31376 17.0039C2.24971 17.1222 2.2337 17.2431 2.26573 17.3668C2.29775 17.4905 2.37514 17.59 2.4979 17.6653C2.61533 17.7298 2.73809 17.7432 2.86618 17.7056C2.99428 17.6733 3.09035 17.5954 3.1544 17.4717ZM5.66031 19.7463L6.70111 17.9234C6.77583 17.8051 6.79451 17.6814 6.75715 17.5523C6.72512 17.4233 6.6504 17.3238 6.53298 17.2539C6.41022 17.184 6.28746 17.1652 6.1647 17.1974C6.04194 17.2351 5.94319 17.3157 5.86847 17.4394L4.81967 19.2785C4.75029 19.3914 4.73161 19.5097 4.76363 19.6334C4.79565 19.7625 4.87571 19.8619 5.00381 19.9318C5.12123 20.0017 5.244 20.0179 5.37209 19.9802C5.50019 19.9426 5.59626 19.8646 5.66031 19.7463ZM9.52726 17.4636L10.5681 15.6487C10.6428 15.5251 10.6615 15.4014 10.6241 15.2777C10.5921 15.1487 10.5173 15.0492 10.3999 14.9793C10.2772 14.9094 10.1544 14.8932 10.0316 14.9309C9.90888 14.9631 9.81014 15.0411 9.73542 15.1648L8.68662 16.9958C8.61723 17.1141 8.59855 17.2351 8.63058 17.3588C8.6626 17.4824 8.73999 17.5819 8.86275 17.6572C8.98551 17.7217 9.10827 17.7352 9.23103 17.6975C9.35913 17.6653 9.45787 17.5873 9.52726 17.4636ZM12.0332 19.7383L13.074 17.9153C13.1487 17.797 13.1674 17.6733 13.13 17.5443C13.098 17.4152 13.0206 17.3157 12.8978 17.2458C12.7804 17.1759 12.6576 17.1571 12.5295 17.1894C12.4068 17.227 12.3107 17.3077 12.2413 17.4314L11.1925 19.2704C11.1231 19.3833 11.1045 19.5017 11.1365 19.6253C11.1685 19.7544 11.2459 19.8539 11.3687 19.9238C11.4861 19.9937 11.6088 20.0098 11.7369 19.9722C11.865 19.9345 11.9638 19.8566 12.0332 19.7383Z"
		fill="currentColor"
	/>
</svg>
