<svg
	color="rgb(var(--foreground, 0, 0, 0))"
	viewBox="0 0 18 18"
	fill="none"
	xmlns="http://www.w3.org/2000/svg"
>
	<path
		d="M3.70575 11.724H13.4902C14.1367 11.724 14.7333 11.6131 15.2799 11.3912C15.8318 11.1694 16.3101 10.8598 16.7149 10.4626C17.1249 10.0653 17.4402 9.60619 17.661 9.08513C17.887 8.56406 18 8.00688 18 7.41359C18 6.7945 17.8791 6.227 17.6373 5.71109C17.4008 5.19003 17.067 4.73861 16.636 4.35684C16.2103 3.96991 15.7109 3.67068 15.138 3.45916C14.5651 3.24764 13.9448 3.14187 13.2773 3.14187C12.9514 2.50731 12.5336 1.95529 12.0237 1.48581C11.5191 1.01118 10.9436 0.644884 10.297 0.38693C9.65053 0.128977 8.94619 0 8.18404 0C7.44292 0 6.74384 0.134136 6.08681 0.402408C5.43504 0.66552 4.8516 1.03181 4.3365 1.50129C3.82139 1.97077 3.40352 2.51763 3.08289 3.14187C2.76752 3.76612 2.57829 4.4368 2.51522 5.15391C2.0369 5.28805 1.6084 5.50989 1.22995 5.81943C0.851506 6.12382 0.551902 6.49527 0.331141 6.93379C0.11038 7.37231 0 7.865 0 8.41187C0 9.02064 0.144546 9.57782 0.433637 10.0834C0.727985 10.5838 1.15111 10.9837 1.70301 11.2829C2.25491 11.577 2.92258 11.724 3.70575 11.724ZM4.72283 14.5099L5.25108 13.5967C5.31941 13.4832 5.3378 13.3646 5.30627 13.2408C5.27473 13.1169 5.20114 13.0189 5.08551 12.9467C4.96461 12.8796 4.84109 12.8641 4.71494 12.9003C4.59405 12.9364 4.49944 13.0112 4.43111 13.1247L3.89497 14.061C3.8319 14.1694 3.8135 14.2855 3.83978 14.4093C3.87132 14.5279 3.94754 14.6208 4.06843 14.6879C4.18932 14.7549 4.31022 14.7704 4.43111 14.7343C4.55726 14.6982 4.6545 14.6234 4.72283 14.5099ZM8.16039 15.6939L9.39034 13.6045C9.45867 13.4858 9.47707 13.3672 9.44553 13.2485C9.414 13.1247 9.34041 13.0292 9.22477 12.9622C9.10388 12.8951 8.98036 12.8796 8.85421 12.9157C8.73332 12.9467 8.6387 13.0215 8.57037 13.1402L7.33254 15.2451C7.26946 15.3534 7.25369 15.4669 7.28523 15.5856C7.31677 15.7094 7.39298 15.8048 7.51388 15.8719C7.62951 15.939 7.7504 15.9544 7.87655 15.9183C8.0027 15.8822 8.09731 15.8074 8.16039 15.6939ZM12.9856 14.5408L13.5138 13.6277C13.5822 13.509 13.6006 13.3904 13.569 13.2717C13.5375 13.1479 13.4639 13.0499 13.3483 12.9776C13.2274 12.9106 13.1039 12.8951 12.9777 12.9312C12.8568 12.9673 12.7622 13.0421 12.6939 13.1556L12.1577 14.092C12.0947 14.2003 12.0763 14.3164 12.1025 14.4402C12.1341 14.5589 12.2103 14.6518 12.3312 14.7188C12.4468 14.7807 12.5677 14.7936 12.6939 14.7575C12.82 14.7266 12.9173 14.6543 12.9856 14.5408ZM3.3273 16.816C3.55858 16.816 3.75831 16.7309 3.92651 16.5606C4.09471 16.3955 4.17881 16.1969 4.17881 15.9647C4.17881 15.7429 4.09471 15.5494 3.92651 15.3844C3.75831 15.2193 3.55858 15.1367 3.3273 15.1367C3.09077 15.1367 2.88841 15.2193 2.72021 15.3844C2.55201 15.5494 2.46779 15.7429 2.46779 15.9647C2.46779 16.1969 2.55201 16.3955 2.72021 16.5606C2.88841 16.7309 3.09077 16.816 3.3273 16.816ZM6.76487 18C7.0014 18 7.20376 17.9149 7.37196 17.7446C7.54016 17.5795 7.62426 17.3809 7.62426 17.1488C7.62426 16.9269 7.54016 16.7334 7.37196 16.5684C7.20376 16.4033 7.0014 16.3207 6.76487 16.3207C6.53359 16.3207 6.33386 16.4033 6.16566 16.5684C5.99746 16.7334 5.91336 16.9269 5.91336 17.1488C5.91336 17.3809 5.99746 17.5795 6.16566 17.7446C6.33386 17.9149 6.53359 18 6.76487 18ZM11.5901 16.8469C11.8213 16.8469 12.0211 16.7618 12.1893 16.5916C12.3575 16.4265 12.4416 16.2279 12.4416 15.9957C12.4416 15.7687 12.3575 15.5727 12.1893 15.4076C12.0211 15.2425 11.8213 15.1599 11.5901 15.1599C11.3535 15.1599 11.1512 15.2425 10.983 15.4076C10.8148 15.5727 10.7307 15.7687 10.7307 15.9957C10.7307 16.2279 10.8148 16.4265 10.983 16.5916C11.1512 16.7618 11.3535 16.8469 11.5901 16.8469Z"
		fill="currentColor"
	/>
</svg>
