<svg
	color="rgb(var(--foreground, 0, 0, 0))"
	viewBox="0 0 18 20"
	fill="none"
	xmlns="http://www.w3.org/2000/svg"
>
	<path
		d="M3.70565 12.2155H13.4901C14.1367 12.2155 14.7332 12.1047 15.2799 11.883C15.8318 11.6613 16.3101 11.352 16.7148 10.955C17.1248 10.5581 17.4402 10.0992 17.661 9.57855C17.887 9.05786 18 8.50109 18 7.90822C18 7.28958 17.8791 6.72249 17.6373 6.20696C17.4008 5.68627 17.067 5.23518 16.636 4.85368C16.2102 4.46703 15.7109 4.16802 15.138 3.95665C14.565 3.74529 13.9448 3.6396 13.2773 3.6396C12.9514 3.00549 12.5335 2.45387 12.0237 1.98474C11.5191 1.51045 10.9435 1.14442 10.297 0.88665C9.65046 0.628883 8.94612 0.5 8.18397 0.5C7.44284 0.5 6.74376 0.634039 6.08673 0.902116C5.43495 1.16504 4.85151 1.53107 4.3364 2.0002C3.82129 2.46934 3.40342 3.01581 3.08279 3.6396C2.76741 4.2634 2.57819 4.93359 2.51511 5.65018C2.03679 5.78422 1.60841 6.0059 1.22996 6.31522C0.851511 6.61939 0.551905 6.99057 0.331143 7.42878C0.110381 7.86698 0 8.35931 0 8.90578C0 9.51411 0.144547 10.0709 0.43364 10.5761C0.727989 11.0762 1.15112 11.4757 1.70302 11.7747C2.25493 12.0686 2.92247 12.2155 3.70565 12.2155ZM3.68988 10.9782C3.14849 10.9782 2.69908 10.888 2.34166 10.7076C1.98423 10.5271 1.71353 10.2848 1.52957 9.98067C1.35085 9.67135 1.2615 9.32594 1.2615 8.94444C1.2615 8.48046 1.40867 8.05773 1.70302 7.67623C1.99737 7.28958 2.48095 7.00861 3.15375 6.83333C3.37451 6.77662 3.52957 6.69156 3.61892 6.57814C3.70828 6.46473 3.76347 6.29976 3.78449 6.08323C3.82654 5.44912 3.97109 4.86915 4.21813 4.3433C4.47043 3.8123 4.79632 3.35348 5.1958 2.96683C5.59527 2.57502 6.04993 2.27344 6.55979 2.06207C7.0749 1.84554 7.61629 1.73728 8.18397 1.73728C9.07227 1.73728 9.85808 1.96927 10.5414 2.43325C11.2247 2.89208 11.7792 3.54938 12.205 4.40517C12.2943 4.59592 12.4047 4.72996 12.5361 4.80729C12.6675 4.87946 12.8515 4.91555 13.088 4.91555C13.866 4.91555 14.5256 5.05474 15.067 5.33313C15.6137 5.60636 16.0289 5.97239 16.3127 6.43122C16.5966 6.89004 16.7385 7.39269 16.7385 7.93915C16.7385 8.50109 16.5992 9.01146 16.3206 9.47029C16.042 9.92911 15.6636 10.2951 15.1853 10.5684C14.707 10.8416 14.1682 10.9782 13.569 10.9782H3.68988ZM4.72273 14.9994L5.25099 14.0869C5.31932 13.9735 5.33771 13.8549 5.30618 13.7312C5.27464 13.6074 5.20105 13.5095 5.08541 13.4373C4.96452 13.3703 4.841 13.3548 4.71485 13.3909C4.59396 13.427 4.49934 13.5018 4.43101 13.6152L3.89488 14.5509C3.8318 14.6591 3.8134 14.7751 3.83968 14.8989C3.87122 15.0174 3.94744 15.1102 4.06833 15.1772C4.18922 15.2443 4.31012 15.2597 4.43101 15.2236C4.55716 15.1876 4.6544 15.1128 4.72273 14.9994ZM8.16032 16.1825L9.39028 14.0946C9.45861 13.9761 9.477 13.8575 9.44547 13.7389C9.41393 13.6152 9.34034 13.5198 9.2247 13.4528C9.10381 13.3858 8.98029 13.3703 8.85414 13.4064C8.73325 13.4373 8.63863 13.5121 8.5703 13.6306L7.33246 15.734C7.26938 15.8423 7.25361 15.9557 7.28515 16.0743C7.31669 16.198 7.3929 16.2934 7.5138 16.3604C7.62944 16.4274 7.75033 16.4429 7.87648 16.4068C8.00263 16.3707 8.09724 16.296 8.16032 16.1825ZM12.9855 15.0303L13.5138 14.1178C13.5821 13.9993 13.6005 13.8807 13.569 13.7621C13.5375 13.6384 13.4639 13.5404 13.3482 13.4683C13.2273 13.4012 13.1038 13.3858 12.9777 13.4219C12.8568 13.4579 12.7622 13.5327 12.6938 13.6461L12.1577 14.5818C12.0946 14.6901 12.0762 14.8061 12.1025 14.9298C12.134 15.0484 12.2102 15.1412 12.3311 15.2082C12.4468 15.27 12.5677 15.2829 12.6938 15.2468C12.82 15.2159 12.9172 15.1437 12.9855 15.0303ZM3.26413 18.3168C3.33771 18.3168 3.39553 18.2885 3.43758 18.2318C3.48489 18.1802 3.50591 18.1184 3.50066 18.0462L3.44547 17.3038L4.07622 17.7214C4.13403 17.7626 4.19974 17.7755 4.27332 17.7601C4.34691 17.7446 4.4021 17.7085 4.4389 17.6518C4.48095 17.5951 4.49146 17.5281 4.47043 17.4508C4.44941 17.3786 4.39947 17.3244 4.32063 17.2884L3.64258 16.9636L4.32852 16.6311C4.4021 16.6001 4.44678 16.5486 4.46255 16.4764C4.48357 16.4042 4.47832 16.3372 4.44678 16.2753C4.41524 16.2135 4.36005 16.1774 4.28121 16.1671C4.20237 16.1568 4.13403 16.1697 4.07622 16.2057L3.44547 16.6311L3.50854 15.8887C3.5138 15.8114 3.49277 15.7469 3.44547 15.6954C3.39816 15.6438 3.33771 15.618 3.26413 15.618C3.18003 15.618 3.11432 15.6438 3.06702 15.6954C3.02497 15.7469 3.00394 15.8114 3.00394 15.8887L3.05913 16.6311L2.4205 16.2057C2.36794 16.1697 2.30486 16.1568 2.23127 16.1671C2.15769 16.1774 2.1025 16.2135 2.0657 16.2753C2.02891 16.3372 2.0184 16.4016 2.03417 16.4687C2.05519 16.5408 2.1025 16.595 2.17608 16.6311L2.85414 16.9636L2.17608 17.2884C2.1025 17.3244 2.05519 17.3786 2.03417 17.4508C2.01314 17.5229 2.02102 17.5899 2.05782 17.6518C2.08936 17.7137 2.14455 17.7498 2.22339 17.7601C2.30223 17.7755 2.36794 17.7652 2.4205 17.7291L3.05913 17.3116L3.01183 18.0462C3.01183 18.1184 3.03285 18.1802 3.0749 18.2318C3.11695 18.2885 3.18003 18.3168 3.26413 18.3168ZM7.02497 19.5C7.09855 19.5 7.15637 19.4716 7.19842 19.4149C7.24573 19.3634 7.26675 19.3015 7.2615 19.2293L7.21419 18.4947L7.83706 18.9046C7.89488 18.9458 7.96058 18.9587 8.03417 18.9432C8.10775 18.9329 8.16557 18.8968 8.20762 18.835C8.24442 18.7783 8.2523 18.7112 8.23127 18.6339C8.21025 18.5617 8.16294 18.5076 8.08936 18.4715L7.4113 18.1545L8.09724 17.8219C8.16557 17.7858 8.21025 17.7317 8.23127 17.6595C8.2523 17.5874 8.24704 17.5204 8.21551 17.4585C8.17871 17.3966 8.12089 17.3605 8.04205 17.3502C7.96321 17.3399 7.89488 17.3528 7.83706 17.3889L7.21419 17.8219L7.26938 17.0718C7.27989 16.9997 7.25887 16.9352 7.20631 16.8785C7.159 16.827 7.09855 16.8012 7.02497 16.8012C6.94612 16.8012 6.88305 16.827 6.83574 16.8785C6.78844 16.9352 6.76741 16.9997 6.77267 17.0718L6.81997 17.8219L6.18922 17.3889C6.13141 17.3528 6.0657 17.3399 5.99212 17.3502C5.92378 17.3605 5.86859 17.3966 5.82654 17.4585C5.79501 17.5204 5.78712 17.5848 5.80289 17.6518C5.81866 17.724 5.86334 17.7807 5.93692 17.8219L6.62286 18.1545L5.93692 18.4792C5.86334 18.5102 5.81603 18.5617 5.79501 18.6339C5.77924 18.7061 5.78712 18.7731 5.81866 18.835C5.85545 18.902 5.91064 18.9406 5.98423 18.951C6.06308 18.9613 6.13141 18.9484 6.18922 18.9123L6.81997 18.4947L6.78055 19.2293C6.7753 19.3015 6.79369 19.3634 6.83574 19.4149C6.88305 19.4716 6.94612 19.5 7.02497 19.5ZM11.5269 18.3478C11.5953 18.3478 11.6531 18.3194 11.7004 18.2627C11.7477 18.206 11.7687 18.1416 11.7635 18.0694L11.7083 17.3348L12.339 17.7523C12.3968 17.7936 12.4625 17.8065 12.5361 17.791C12.6097 17.7755 12.6649 17.7395 12.7017 17.6827C12.7438 17.626 12.7543 17.559 12.7332 17.4817C12.7122 17.4095 12.6623 17.3554 12.5834 17.3193L11.9054 16.9945L12.5913 16.662C12.6649 16.6259 12.7096 16.5718 12.7254 16.4996C12.7464 16.4326 12.7411 16.3681 12.7096 16.3063C12.6781 16.2444 12.6229 16.2083 12.544 16.198C12.4652 16.1877 12.3968 16.2006 12.339 16.2367L11.7083 16.662L11.7714 15.9196C11.7766 15.8423 11.753 15.7753 11.7004 15.7186C11.6531 15.667 11.5953 15.6412 11.5269 15.6412C11.4428 15.6412 11.3771 15.667 11.3298 15.7186C11.2878 15.7753 11.2668 15.8423 11.2668 15.9196L11.3219 16.662L10.6833 16.2367C10.6255 16.2006 10.5598 16.1851 10.4862 16.1903C10.4179 16.2006 10.3653 16.2392 10.3285 16.3063C10.2917 16.3681 10.2812 16.4326 10.297 16.4996C10.318 16.5718 10.3653 16.6259 10.4389 16.662L11.117 16.9945L10.4389 17.3193C10.3601 17.3554 10.3101 17.4095 10.2891 17.4817C10.2733 17.5539 10.2838 17.6209 10.3206 17.6827C10.3522 17.7446 10.4047 17.7807 10.4783 17.791C10.5572 17.8065 10.6255 17.7936 10.6833 17.7523L11.3219 17.3425L11.2746 18.0694C11.2746 18.1416 11.2957 18.206 11.3377 18.2627C11.3798 18.3194 11.4428 18.3478 11.5269 18.3478Z"
		fill="currentColor"
	/>
</svg>
