<svg
	color="rgb(var(--foreground, 0, 0, 0))"
	viewBox="0 0 23 24"
	fill="none"
	xmlns="http://www.w3.org/2000/svg"
>
	<path
		d="M3.29934 16.6494H11.9015C12.6488 16.6494 13.3246 16.4754 13.9288 16.1272C14.533 15.7737 15.0127 15.2996 15.3678 14.7051C15.7229 14.1105 15.9005 13.441 15.9005 12.6964C15.9005 11.9573 15.7176 11.2958 15.3519 10.7119C14.9915 10.1281 14.4986 9.66475 13.8731 9.32194C13.2477 8.97913 12.5375 8.80505 11.7425 8.79969C11.4351 8.19978 11.0508 7.68825 10.5897 7.26509C10.1339 6.84194 9.61978 6.52056 9.04737 6.30095C8.48025 6.07598 7.87603 5.9635 7.23471 5.9635C6.5881 5.9635 5.97593 6.08134 5.39821 6.31702C4.8205 6.5527 4.30372 6.88211 3.84791 7.30527C3.39209 7.72842 3.02108 8.22388 2.73488 8.79166C2.44867 9.35943 2.27641 9.97274 2.21811 10.6316C1.53969 10.8351 0.999078 11.2074 0.596266 11.7484C0.198756 12.284 0 12.9053 0 13.6124C0 14.2123 0.137804 14.7399 0.413411 15.1952C0.694319 15.6505 1.08123 16.0067 1.57414 16.2638C2.07236 16.5209 2.64742 16.6494 3.29934 16.6494ZM16.8147 12.2787C17.3977 11.8769 17.8562 11.3788 18.1901 10.7842C18.5293 10.1897 18.6989 9.53887 18.6989 8.83183C18.6989 8.09801 18.524 7.43114 18.1742 6.83123C17.8244 6.22596 17.35 5.74388 16.7511 5.38501C16.1575 5.02613 15.4976 4.84669 14.7715 4.84669C14.0507 4.84669 13.3935 5.02613 12.7999 5.38501C12.2116 5.74388 11.7531 6.21257 11.4245 6.79105C11.5888 6.96781 11.7425 7.15261 11.8856 7.34544C12.0287 7.53827 12.1612 7.74984 12.2831 7.98017C13.1576 8.05516 13.9208 8.28012 14.5728 8.65507C15.2247 9.02466 15.7414 9.52012 16.1231 10.1415C16.51 10.7574 16.7405 11.4698 16.8147 12.2787ZM10.1604 5.11987C10.2929 5.25378 10.4519 5.32073 10.6374 5.32073C10.8229 5.31537 10.9766 5.24842 11.0985 5.11987C11.2204 4.99131 11.2814 4.83598 11.2814 4.65386C11.2867 4.47175 11.2257 4.31641 11.0985 4.18786L9.87419 2.95054C9.74698 2.82199 9.59328 2.75771 9.41308 2.75771C9.23287 2.75771 9.07917 2.82199 8.95196 2.95054C8.82476 3.07909 8.75851 3.2371 8.75321 3.42458C8.75321 3.60669 8.81946 3.76203 8.95196 3.89058L10.1604 5.11987ZM14.7715 3.5692C14.9517 3.5692 15.1054 3.50492 15.2326 3.37637C15.3651 3.24246 15.4314 3.08445 15.4314 2.90233V1.16687C15.4314 0.984751 15.3651 0.829417 15.2326 0.700864C15.1054 0.566955 14.9517 0.5 14.7715 0.5C14.5913 0.5 14.435 0.566955 14.3025 0.700864C14.1753 0.829417 14.1117 0.984751 14.1117 1.16687V2.90233C14.1117 3.08445 14.1753 3.24246 14.3025 3.37637C14.435 3.50492 14.5913 3.5692 14.7715 3.5692ZM18.4445 5.11987C18.5664 5.24842 18.7201 5.31537 18.9056 5.32073C19.0964 5.32073 19.2554 5.25378 19.3827 5.11987L20.599 3.89058C20.7262 3.76203 20.7898 3.60669 20.7898 3.42458C20.7898 3.2371 20.7262 3.07909 20.599 2.95054C20.4718 2.82199 20.3181 2.75771 20.1379 2.75771C19.9577 2.75771 19.804 2.82199 19.6768 2.95054L18.4445 4.18786C18.3173 4.31641 18.2537 4.47175 18.2537 4.65386C18.259 4.83598 18.3226 4.99131 18.4445 5.11987ZM20.6229 9.4987H22.3481C22.5283 9.4987 22.682 9.43442 22.8092 9.30587C22.9364 9.17732 23 9.0193 23 8.83183C23 8.64971 22.9364 8.49438 22.8092 8.36583C22.682 8.23192 22.5283 8.16496 22.3481 8.16496H20.6229C20.448 8.16496 20.2943 8.23192 20.1618 8.36583C20.0293 8.49438 19.963 8.64971 19.963 8.83183C19.963 9.0193 20.0293 9.17732 20.1618 9.30587C20.2943 9.43442 20.448 9.4987 20.6229 9.4987ZM19.6768 14.7292C19.804 14.8577 19.9577 14.922 20.1379 14.922C20.3181 14.9167 20.4718 14.8497 20.599 14.7212C20.7262 14.5926 20.7898 14.4373 20.7898 14.2552C20.7898 14.0677 20.7262 13.9123 20.599 13.7891L19.3668 12.5599C19.2395 12.4313 19.0858 12.367 18.9056 12.367C18.7254 12.367 18.5717 12.4313 18.4445 12.5599C18.3173 12.6831 18.2537 12.8384 18.2537 13.0259C18.2537 13.2133 18.3173 13.3714 18.4445 13.4999L19.6768 14.7292ZM9.92984 19.5821H8.18874L8.17284 19.9275L9.07917 18.1921C9.12687 18.101 9.13482 18.026 9.10302 17.9671C9.07122 17.9136 9.01291 17.8868 8.92811 17.8868H7.26652C7.15521 17.8868 7.07571 17.9055 7.02801 17.943C6.98031 17.9859 6.93791 18.0475 6.90081 18.1278L5.88318 20.4659C5.84608 20.5623 5.84608 20.6373 5.88318 20.6908C5.92028 20.7497 5.98918 20.7792 6.08988 20.7792H7.51297L7.61633 20.3052L6.39994 23.2619C6.35224 23.3797 6.37079 23.4547 6.45559 23.4869C6.5351 23.519 6.61195 23.4922 6.68615 23.4065L10.0491 19.9677C10.1339 19.8874 10.163 19.8017 10.1365 19.7106C10.11 19.6249 10.0411 19.5821 9.92984 19.5821Z"
		fill="currentColor"
	/>
</svg>
