<svg
	color="rgb(var(--foreground, 0, 0, 0))"
	viewBox="0 0 19 14"
	fill="none"
	xmlns="http://www.w3.org/2000/svg"
>
	<path
		d="M3.8954 13.5H14.246C14.9138 13.5 15.5365 13.3768 16.1142 13.1304C16.6919 12.8896 17.1954 12.5529 17.6247 12.1203C18.0593 11.6878 18.3958 11.1814 18.6343 10.6011C18.8781 10.0207 19 9.39661 19 8.72868C19 8.05527 18.8755 7.43114 18.6264 6.85629C18.3773 6.27595 18.0275 5.77227 17.577 5.34523C17.1265 4.91819 16.5965 4.58697 15.987 4.35155C15.3775 4.11065 14.7124 3.99021 13.9916 3.99021C13.4616 2.90619 12.7303 2.05485 11.7975 1.4362C10.8647 0.812066 9.81004 0.5 8.63347 0.5C7.86499 0.5 7.13626 0.645083 6.44728 0.93525C5.7583 1.21994 5.14086 1.62234 4.59498 2.14245C4.05439 2.66256 3.61451 3.273 3.27531 3.97378C2.93612 4.66909 2.73208 5.42735 2.66318 6.24858C2.13319 6.40187 1.66681 6.65098 1.26402 6.99589C0.866527 7.34081 0.556485 7.7569 0.333891 8.24416C0.111297 8.72594 0 9.25974 0 9.84555C0 10.519 0.151046 11.1321 0.453138 11.6851C0.76053 12.238 1.20307 12.6788 1.78075 13.0073C2.36374 13.3358 3.06862 13.5 3.8954 13.5ZM3.8795 12.1778C3.33361 12.1778 2.86722 12.082 2.48033 11.8904C2.09344 11.6988 1.79665 11.4332 1.58996 11.0938C1.38326 10.7489 1.27992 10.3465 1.27992 9.88661C1.27992 9.29533 1.45481 8.79438 1.8046 8.38376C2.15439 7.96768 2.65258 7.67204 3.29916 7.49684C3.52176 7.43662 3.68075 7.34902 3.77615 7.23405C3.87155 7.1136 3.9272 6.93293 3.9431 6.69204C3.9908 5.99674 4.14449 5.35344 4.40418 4.76216C4.66388 4.17088 5.00572 3.65624 5.42971 3.21826C5.8537 2.77479 6.33863 2.43262 6.88452 2.19172C7.4304 1.94536 8.01339 1.82217 8.63347 1.82217C9.27476 1.82217 9.86304 1.93988 10.3983 2.1753C10.9336 2.41072 11.4132 2.7529 11.8372 3.20183C12.2612 3.64529 12.6216 4.18183 12.9184 4.81143C13.0138 5.014 13.1278 5.15635 13.2603 5.23847C13.3927 5.31512 13.5809 5.35344 13.8247 5.35344C14.6515 5.35344 15.3537 5.50948 15.9314 5.82154C16.5144 6.12813 16.9569 6.54148 17.259 7.06159C17.5611 7.57623 17.7121 8.14287 17.7121 8.76153C17.7121 9.40209 17.5611 9.97968 17.259 10.4943C16.9622 11.0089 16.5594 11.4196 16.0506 11.7262C15.5418 12.0273 14.9695 12.1778 14.3335 12.1778H3.8795Z"
		fill="currentColor"
	/>
</svg>
