<svg
	color="rgb(var(--foreground, 0, 0, 0))"
	viewBox="0 0 21 20"
	fill="none"
	xmlns="http://www.w3.org/2000/svg"
>
	<path
		d="M3.32252 13.2855H11.9851C12.7377 13.2855 13.4182 13.1149 14.0267 12.7737C14.6351 12.4272 15.1182 11.9626 15.4758 11.3798C15.8334 10.7971 16.0122 10.1408 16.0122 9.41107C16.0122 8.69183 15.8281 8.04608 15.4598 7.47384C15.0968 6.89634 14.6005 6.4396 13.9706 6.1036C13.3408 5.7676 12.6256 5.59698 11.825 5.59173C11.5154 5.00373 11.1285 4.50236 10.6641 4.08762C10.2051 3.67287 9.68737 3.35787 9.11093 3.14262C8.53983 2.92213 7.93137 2.81188 7.28554 2.81188C6.63438 2.81188 6.01791 2.92738 5.43613 3.15837C4.85435 3.38937 4.33396 3.71224 3.87494 4.12699C3.41592 4.54174 3.0423 5.02736 2.75408 5.58385C2.46587 6.14035 2.2924 6.74147 2.23369 7.38722C1.5505 7.58671 1.00609 7.95159 0.600442 8.48183C0.200137 9.00683 0 9.61582 0 10.3088C0 10.8968 0.138757 11.4139 0.416302 11.8602C0.699184 12.3064 1.08881 12.6555 1.58519 12.9075C2.08691 13.1595 2.66602 13.2855 3.32252 13.2855ZM17.013 9.28507C17.6374 9.17483 18.1952 8.9832 18.6862 8.7102C19.1773 8.43196 19.5936 8.11171 19.9352 7.74946C20.2821 7.38197 20.5463 7.00659 20.7278 6.62335C20.9093 6.2401 21 5.88573 21 5.56023C21 5.40798 20.9653 5.28198 20.8959 5.18223C20.8265 5.08248 20.7278 5.03261 20.5997 5.03261C20.4716 5.03261 20.3168 5.07461 20.1353 5.15861C19.9539 5.24261 19.7324 5.32661 19.4708 5.41061C19.2093 5.49461 18.8944 5.53661 18.5261 5.53661C17.875 5.53661 17.3092 5.41586 16.8288 5.17436C16.3538 4.92761 15.9855 4.58636 15.724 4.15062C15.4624 3.71487 15.3317 3.203 15.3317 2.615C15.3317 2.26851 15.3797 1.95351 15.4758 1.67001C15.5719 1.38651 15.6653 1.13977 15.756 0.929767C15.8521 0.714519 15.9001 0.536021 15.9001 0.394272C15.9001 0.273523 15.8574 0.176399 15.772 0.102899C15.692 0.0293998 15.5719 -0.00472496 15.4117 0.000524996C15.0381 0.0110249 14.6538 0.116024 14.2589 0.315522C13.8639 0.515021 13.4849 0.785394 13.122 1.12664C12.7644 1.46789 12.4521 1.86426 12.1853 2.31576C11.9237 2.76725 11.7396 3.2555 11.6329 3.78049C11.7556 3.89599 11.8757 4.03249 11.9931 4.18999C12.1106 4.34224 12.2173 4.52336 12.3134 4.73336C12.9912 4.78061 13.613 4.93549 14.1788 5.19798C14.7446 5.45523 15.2356 5.79123 15.6519 6.20597C16.0736 6.61547 16.4018 7.08534 16.6367 7.61559C16.8769 8.14058 17.0023 8.69708 17.013 9.28507ZM9.99961 16.1599H8.24627L8.23026 16.4985L9.14296 14.7975C9.19099 14.7083 9.199 14.6374 9.16698 14.5849C9.13495 14.5272 9.07624 14.4983 8.99084 14.4983H7.31757C7.20548 14.4983 7.12542 14.5193 7.07738 14.5613C7.02935 14.598 6.98665 14.6558 6.94928 14.7345L5.9245 17.0261C5.88714 17.1206 5.88714 17.1941 5.9245 17.2466C5.96186 17.3044 6.03125 17.3333 6.13266 17.3333H7.56575L7.66983 16.8686L6.4449 19.7666C6.39686 19.8821 6.41554 19.9556 6.50094 19.9871C6.581 20.0186 6.6584 19.9924 6.73312 19.9084L10.1197 16.5379C10.2051 16.4591 10.2345 16.3751 10.2078 16.2859C10.1811 16.2019 10.1117 16.1599 9.99961 16.1599Z"
		fill="currentColor"
	/>
</svg>
