<svg
	color="rgb(var(--foreground, 0, 0, 0))"
	viewBox="0 0 18 18"
	fill="none"
	xmlns="http://www.w3.org/2000/svg"
>
	<path
		d="M3.70565 11.724H13.4901C14.1367 11.724 14.7332 11.6131 15.2799 11.3912C15.8318 11.1694 16.3101 10.8598 16.7149 10.4626C17.1248 10.0653 17.4402 9.60619 17.661 9.08512C17.887 8.56406 18 8.00688 18 7.41359C18 6.7945 17.8791 6.227 17.6373 5.71109C17.4008 5.19003 17.067 4.73861 16.636 4.35684C16.2103 3.96991 15.7109 3.67068 15.138 3.45916C14.565 3.24764 13.9448 3.14187 13.2773 3.14187C12.9514 2.50731 12.5335 1.95529 12.0236 1.48581C11.519 1.01118 10.9435 0.644884 10.297 0.38693C9.65045 0.128977 8.94612 0 8.18396 0C7.44283 0 6.74375 0.134136 6.08672 0.402408C5.43495 0.66552 4.85151 1.03181 4.3364 1.50129C3.82128 1.97077 3.40341 2.51763 3.08278 3.14187C2.76741 3.76612 2.57818 4.4368 2.51511 5.15391C2.03679 5.28805 1.60841 5.50989 1.22996 5.81943C0.85151 6.12382 0.551905 6.49527 0.331143 6.93379C0.110381 7.37231 0 7.865 0 8.41187C0 9.02064 0.144547 9.57782 0.43364 10.0834C0.727989 10.5838 1.15112 10.9837 1.70302 11.2829C2.25493 11.577 2.92247 11.724 3.70565 11.724ZM3.68988 10.4858C3.14849 10.4858 2.69908 10.3955 2.34165 10.215C1.98423 10.0344 1.71353 9.79192 1.52957 9.48753C1.35085 9.17799 1.2615 8.83233 1.2615 8.45056C1.2615 7.98624 1.40867 7.5632 1.70302 7.18143C1.99737 6.7945 2.48094 6.51333 3.15374 6.33792C3.3745 6.28117 3.52956 6.19604 3.61892 6.08255C3.70828 5.96905 3.76347 5.80396 3.78449 5.58727C3.82654 4.95271 3.97109 4.37231 4.21813 3.84609C4.47043 3.3147 4.79632 2.85555 5.19579 2.46862C5.59526 2.07653 6.04993 1.77472 6.55978 1.5632C7.0749 1.34652 7.61629 1.23818 8.18396 1.23818C9.07227 1.23818 9.85807 1.47034 10.5414 1.93465C11.2247 2.39381 11.7792 3.05159 12.205 3.908C12.2943 4.09888 12.4047 4.23302 12.5361 4.3104C12.6675 4.38263 12.8515 4.41874 13.088 4.41874C13.866 4.41874 14.5256 4.55804 15.067 4.83663C15.6137 5.11006 16.0289 5.47635 16.3127 5.93551C16.5966 6.39467 16.7385 6.89768 16.7385 7.44454C16.7385 8.00688 16.5992 8.51763 16.3206 8.97678C16.042 9.43594 15.6636 9.80224 15.1853 10.0757C14.707 10.3491 14.1682 10.4858 13.569 10.4858H3.68988ZM4.72273 14.5099L5.25098 13.5967C5.31931 13.4832 5.33771 13.3646 5.30617 13.2408C5.27463 13.1169 5.20105 13.0189 5.08541 12.9467C4.96452 12.8796 4.84099 12.8641 4.71485 12.9003C4.59395 12.9364 4.49934 13.0112 4.43101 13.1247L3.89487 14.061C3.8318 14.1694 3.8134 14.2855 3.83968 14.4093C3.87122 14.5279 3.94743 14.6208 4.06833 14.6879C4.18922 14.7549 4.31011 14.7704 4.43101 14.7343C4.55716 14.6982 4.6544 14.6234 4.72273 14.5099ZM8.16031 15.6939L9.39027 13.6045C9.4586 13.4858 9.477 13.3672 9.44546 13.2485C9.41392 13.1247 9.34033 13.0292 9.2247 12.9622C9.1038 12.8951 8.98028 12.8796 8.85413 12.9157C8.73324 12.9467 8.63863 13.0215 8.5703 13.1402L7.33245 15.2451C7.26938 15.3534 7.25361 15.4669 7.28515 15.5856C7.31668 15.7094 7.3929 15.8048 7.51379 15.8719C7.62943 15.939 7.75032 15.9544 7.87647 15.9183C8.00262 15.8822 8.09723 15.8074 8.16031 15.6939ZM12.9855 14.5408L13.5138 13.6277C13.5821 13.509 13.6005 13.3904 13.569 13.2717C13.5374 13.1479 13.4639 13.0499 13.3482 12.9776C13.2273 12.9106 13.1038 12.8951 12.9777 12.9312C12.8568 12.9673 12.7621 13.0421 12.6938 13.1556L12.1577 14.092C12.0946 14.2003 12.0762 14.3164 12.1025 14.4402C12.134 14.5589 12.2102 14.6518 12.3311 14.7188C12.4468 14.7807 12.5677 14.7936 12.6938 14.7575C12.82 14.7266 12.9172 14.6543 12.9855 14.5408ZM3.3272 16.816C3.55847 16.816 3.75821 16.7309 3.92641 16.5606C4.09461 16.3955 4.17871 16.1969 4.17871 15.9647C4.17871 15.7429 4.09461 15.5494 3.92641 15.3844C3.75821 15.2193 3.55847 15.1367 3.3272 15.1367C3.09067 15.1367 2.8883 15.2193 2.7201 15.3844C2.5519 15.5494 2.4678 15.7429 2.4678 15.9647C2.4678 16.1969 2.5519 16.3955 2.7201 16.5606C2.8883 16.7309 3.09067 16.816 3.3272 16.816ZM6.76478 18C7.00131 18 7.20367 17.9149 7.37187 17.7446C7.54007 17.5795 7.62417 17.3809 7.62417 17.1488C7.62417 16.9269 7.54007 16.7334 7.37187 16.5684C7.20367 16.4033 7.00131 16.3207 6.76478 16.3207C6.5335 16.3207 6.33377 16.4033 6.16557 16.5684C5.99737 16.7334 5.91327 16.9269 5.91327 17.1488C5.91327 17.3809 5.99737 17.5795 6.16557 17.7446C6.33377 17.9149 6.5335 18 6.76478 18ZM11.59 16.8469C11.8213 16.8469 12.021 16.7618 12.1892 16.5916C12.3574 16.4265 12.4415 16.2279 12.4415 15.9957C12.4415 15.7687 12.3574 15.5727 12.1892 15.4076C12.021 15.2425 11.8213 15.1599 11.59 15.1599C11.3535 15.1599 11.1511 15.2425 10.9829 15.4076C10.8147 15.5727 10.7306 15.7687 10.7306 15.9957C10.7306 16.2279 10.8147 16.4265 10.9829 16.5916C11.1511 16.7618 11.3535 16.8469 11.59 16.8469Z"
		fill="currentColor"
	/>
</svg>
