<svg
	color="rgb(var(--foreground, 0, 0, 0))"
	viewBox="0 0 18 20"
	fill="none"
	xmlns="http://www.w3.org/2000/svg"
>
	<path
		d="M3.70565 12.4906H13.4901C14.1367 12.4906 14.7332 12.3771 15.2799 12.1502C15.8318 11.9234 16.3101 11.6068 16.7148 11.2005C17.1248 10.7942 17.4402 10.3246 17.661 9.7917C17.887 9.25879 18 8.68894 18 8.08216C18 7.44899 17.8791 6.86859 17.6373 6.34095C17.4008 5.80804 17.067 5.34635 16.636 4.9559C16.2102 4.56017 15.7109 4.25414 15.138 4.03781C14.565 3.82148 13.9448 3.71331 13.2773 3.71331C12.9514 3.06432 12.5335 2.49975 12.0237 2.0196C11.5191 1.53417 10.9435 1.15955 10.297 0.895728C9.65046 0.631909 8.94612 0.5 8.18397 0.5C7.44284 0.5 6.74376 0.637186 6.08673 0.911558C5.43495 1.18065 4.85151 1.55528 4.3364 2.03543C3.82129 2.51558 3.40342 3.07487 3.08279 3.71331C2.76741 4.35176 2.57819 5.03769 2.51511 5.7711C2.03679 5.90829 1.60841 6.13517 1.22996 6.45176C0.851511 6.76306 0.551905 7.14296 0.331143 7.59145C0.110381 8.03994 0 8.54384 0 9.10314C0 9.72575 0.144547 10.2956 0.43364 10.8127C0.727989 11.3245 1.15112 11.7334 1.70302 12.0394C2.25493 12.3402 2.92247 12.4906 3.70565 12.4906ZM10.8962 15.4269H9.10644L9.09067 15.783L10.0526 13.931C10.0999 13.8413 10.1078 13.7675 10.0762 13.7094C10.0447 13.6514 9.98686 13.6224 9.90276 13.6224H8.19185C8.08147 13.6224 8 13.6435 7.94744 13.6857C7.89488 13.7279 7.8502 13.7886 7.8134 13.8677L6.74113 16.3212C6.69908 16.4215 6.69645 16.498 6.73325 16.5507C6.7753 16.6088 6.84625 16.6378 6.94612 16.6378H8.40473L8.50723 16.1708L7.23784 19.2654C7.19054 19.3815 7.20894 19.4554 7.29304 19.487C7.37188 19.5187 7.45335 19.4923 7.53745 19.4079L11.0223 15.8226C11.1064 15.7329 11.1353 15.6432 11.1091 15.5535C11.0828 15.4691 11.0118 15.4269 10.8962 15.4269ZM2.05782 16.3766C2.17346 16.4452 2.29435 16.461 2.4205 16.4241C2.54665 16.3872 2.64389 16.3107 2.71222 16.1946L3.73719 14.4138C3.80552 14.2925 3.82392 14.1711 3.79238 14.0497C3.76084 13.9231 3.68463 13.8229 3.56373 13.749C3.44809 13.6804 3.3272 13.6646 3.20105 13.7015C3.08016 13.7332 2.98555 13.8097 2.91721 13.931L1.88436 15.7355C1.81603 15.8463 1.79763 15.9624 1.82917 16.0838C1.86071 16.2104 1.93693 16.308 2.05782 16.3766ZM3.58738 18.5927C3.70302 18.656 3.82392 18.6692 3.95007 18.6323C4.07622 18.6006 4.17346 18.5267 4.24179 18.4107L5.26675 16.622C5.33509 16.5006 5.35348 16.3766 5.32194 16.25C5.29041 16.1286 5.21419 16.0337 5.0933 15.9651C4.9724 15.8965 4.85151 15.878 4.73062 15.9097C4.60972 15.9466 4.51511 16.0257 4.44678 16.1471L3.40604 17.9437C3.34297 18.0598 3.3272 18.1785 3.35874 18.2999C3.39028 18.4212 3.46649 18.5188 3.58738 18.5927ZM13.0171 16.3766C13.1327 16.4452 13.2536 16.461 13.3798 16.4241C13.5059 16.3872 13.6032 16.3107 13.6715 16.1946L14.6965 14.4138C14.77 14.2925 14.7884 14.1711 14.7516 14.0497C14.7201 13.9231 14.6465 13.8229 14.5309 13.749C14.41 13.6804 14.2891 13.6646 14.1682 13.7015C14.0473 13.7332 13.9501 13.8097 13.8765 13.931L12.8436 15.7355C12.7753 15.8463 12.7569 15.9624 12.7884 16.0838C12.82 16.2104 12.8962 16.308 13.0171 16.3766ZM14.5466 18.5927C14.6623 18.656 14.7832 18.6692 14.9093 18.6323C15.0355 18.6006 15.1327 18.5267 15.2011 18.4107L16.226 16.622C16.2996 16.5006 16.318 16.3766 16.2812 16.25C16.2497 16.1286 16.1761 16.0337 16.0604 15.9651C15.9396 15.8965 15.816 15.878 15.6899 15.9097C15.569 15.9466 15.4744 16.0257 15.406 16.1471L14.3732 17.9437C14.3049 18.0598 14.2865 18.1785 14.318 18.2999C14.3495 18.4212 14.4258 18.5188 14.5466 18.5927Z"
		fill="currentColor"
	/>
</svg>
