<svg
	color="rgb(var(--foreground, 0, 0, 0))"
	viewBox="0 0 21 14"
	fill="none"
	xmlns="http://www.w3.org/2000/svg"
>
	<path
		d="M3.3327 14H12.0218C12.782 14 13.4673 13.8179 14.0776 13.4536C14.688 13.0948 15.1725 12.6092 15.5312 11.9965C15.8899 11.3839 16.0692 10.694 16.0692 9.92682C16.0692 9.16517 15.8845 8.48355 15.5151 7.88195C15.1511 7.27484 14.6505 6.79743 14.0134 6.44972C13.3816 6.09649 12.6669 5.91711 11.8692 5.91159C11.5533 5.29344 11.1625 4.76636 10.6967 4.33034C10.2363 3.89432 9.71969 3.56041 9.14684 3.3286C8.574 3.0968 7.96367 2.98089 7.31587 2.98089C6.66271 2.98089 6.04168 3.10507 5.45277 3.35344C4.86922 3.59628 4.34723 3.93572 3.88681 4.37173C3.42639 4.80775 3.05163 5.31828 2.76252 5.90332C2.47878 6.48835 2.30478 7.1203 2.24054 7.79917C1.56061 8.0089 1.01721 8.39248 0.610325 8.94992C0.203442 9.50184 0 10.1421 0 10.8706C0 11.4888 0.139197 12.0324 0.417591 12.5015C0.701338 12.9707 1.09216 13.3377 1.59006 13.6026C2.09331 13.8675 2.67419 14 3.3327 14ZM17.0008 9.76952C17.6271 9.65362 18.1866 9.45217 18.6792 9.16517C19.1771 8.87265 19.5973 8.53598 19.94 8.15515C20.288 7.76881 20.5503 7.37419 20.727 6.97128C20.909 6.56838 21 6.19583 21 5.85364C21 5.69359 20.9652 5.56112 20.8956 5.45626C20.8314 5.35139 20.735 5.29896 20.6065 5.29896C20.4727 5.29896 20.3147 5.34312 20.1327 5.43142C19.9507 5.51973 19.7285 5.60804 19.4662 5.69634C19.2038 5.78465 18.888 5.82881 18.5185 5.82881C17.8654 5.82881 17.2979 5.70186 16.8161 5.44798C16.3396 5.18858 15.9702 4.82983 15.7078 4.37173C15.4509 3.90812 15.3224 3.37 15.3224 2.75736C15.3224 2.3931 15.3679 2.06194 15.4589 1.76391C15.5553 1.46587 15.6489 1.20371 15.74 0.977418C15.8363 0.75113 15.8845 0.566237 15.8845 0.422737C15.8845 0.295795 15.8417 0.19369 15.756 0.116421C15.6757 0.0336327 15.5553 -0.00500179 15.3946 0.000517426C15.0252 0.0170751 14.6398 0.130219 14.2382 0.339949C13.8421 0.549679 13.4619 0.833919 13.0979 1.19267C12.7392 1.55142 12.426 1.96812 12.1583 2.44277C11.896 2.91742 11.7113 3.43071 11.6042 3.98263C11.7273 4.10405 11.8478 4.24755 11.9656 4.41313C12.0834 4.57319 12.1931 4.76084 12.2948 4.97609C12.9694 5.03128 13.5904 5.1941 14.1579 5.46454C14.7254 5.73498 15.2206 6.08821 15.6436 6.52423C16.0665 6.96024 16.3958 7.45697 16.6314 8.01441C16.8669 8.56634 16.9901 9.15137 17.0008 9.76952Z"
		fill="currentColor"
	/>
</svg>
