<svg
	color="rgb(var(--foreground, 0, 0, 0))"
	viewBox="0 0 21 20"
	fill="none"
	xmlns="http://www.w3.org/2000/svg"
>
	<path
		d="M3.38681 13.4565H12.0296C12.8017 13.4565 13.4967 13.2853 14.1144 12.943C14.7321 12.5955 15.222 12.1287 15.5841 11.5426C15.9516 10.9565 16.1353 10.2977 16.1353 9.5664C16.1353 8.84025 15.9489 8.1893 15.5761 7.61357C15.2087 7.03264 14.7081 6.57361 14.0744 6.23647C13.4408 5.89933 12.7245 5.72297 11.9257 5.70741C11.4571 4.85678 10.8234 4.18768 10.0247 3.70012C9.2312 3.20737 8.33923 2.961 7.34875 2.961C6.68843 2.961 6.06272 3.0777 5.47162 3.31111C4.88585 3.53933 4.36132 3.86091 3.89803 4.27585C3.43474 4.68561 3.05665 5.16798 2.76377 5.72297C2.47621 6.27278 2.29782 6.86667 2.22859 7.50464C1.56294 7.70693 1.0251 8.0726 0.615058 8.60165C0.205019 9.12552 0 9.74016 0 10.4456C0 11.0317 0.141117 11.553 0.423352 12.0094C0.705586 12.4606 1.09965 12.8159 1.60554 13.0753C2.11676 13.3294 2.71052 13.4565 3.38681 13.4565ZM3.35486 12.2117C2.90222 12.2117 2.52147 12.1365 2.21261 11.986C1.90375 11.8304 1.66944 11.623 1.50969 11.3636C1.35526 11.0991 1.27804 10.8035 1.27804 10.4767C1.27804 10.0669 1.40851 9.69348 1.66944 9.35634C1.93038 9.01919 2.35639 8.77541 2.94749 8.62499C3.13919 8.57313 3.27499 8.49792 3.35486 8.39937C3.44007 8.30082 3.49066 8.15559 3.50663 7.96368C3.55456 7.41387 3.68502 6.91075 3.89803 6.45431C4.11636 5.99787 4.3986 5.60108 4.74473 5.26394C5.0962 4.9268 5.49292 4.66746 5.93491 4.48592C6.38223 4.29919 6.85351 4.20583 7.34875 4.20583C7.86529 4.20583 8.34189 4.2966 8.77856 4.47814C9.21522 4.65449 9.60662 4.91383 9.95276 5.25616C10.2989 5.5933 10.5971 6.00566 10.8474 6.49322C10.9326 6.65919 11.0311 6.7759 11.1429 6.84333C11.2601 6.90557 11.4198 6.93669 11.6222 6.93669C12.3092 6.93669 12.8923 7.05858 13.3715 7.30236C13.8561 7.54614 14.2236 7.87031 14.4738 8.27488C14.7241 8.67427 14.8493 9.11515 14.8493 9.59752C14.8493 10.0799 14.7268 10.5208 14.4818 10.9202C14.2369 11.3144 13.9014 11.6282 13.4754 11.8616C13.0547 12.095 12.5807 12.2117 12.0535 12.2117H3.35486ZM15.4324 9.4886C16.0288 9.52491 16.5799 9.49638 17.0858 9.40302C17.5917 9.30965 18.0497 9.16961 18.4597 8.98288C18.8751 8.79097 19.2399 8.56535 19.5541 8.30601C19.8736 8.04148 20.1452 7.7562 20.3688 7.45018C20.5978 7.13897 20.7762 6.81998 20.904 6.49322C21.0371 6.18201 21.0318 5.90711 20.888 5.66851C20.7442 5.42473 20.5153 5.30284 20.2011 5.30284C19.9614 5.30284 19.7218 5.33656 19.4822 5.40398C19.2425 5.47141 18.9097 5.50513 18.4837 5.50513C17.8021 5.50513 17.2296 5.38842 16.7663 5.15502C16.3084 4.92161 15.9596 4.58966 15.7199 4.15915C15.4856 3.72346 15.3685 3.20478 15.3685 2.60311C15.3685 2.30746 15.3924 2.0533 15.4404 1.84064C15.4883 1.6228 15.5335 1.43348 15.5761 1.27269C15.6241 1.10671 15.648 0.951106 15.648 0.805875C15.648 0.484293 15.5229 0.25348 15.2726 0.113436C15.0277 -0.0266083 14.7294 -0.036982 14.378 0.0823147C13.9573 0.217172 13.5579 0.424644 13.1798 0.704732C12.8017 0.979633 12.4689 1.31418 12.1813 1.70838C11.8938 2.09739 11.6648 2.53308 11.4944 3.01546C11.3293 3.49264 11.2468 3.99836 11.2468 4.5326C11.2468 4.88012 11.2787 5.21985 11.3426 5.55181C11.4065 5.88377 11.5024 6.20275 11.6302 6.50878L12.9562 6.48544C12.5994 5.9097 12.421 5.25097 12.421 4.50926C12.421 4.13062 12.4716 3.77792 12.5727 3.45115C12.6793 3.11919 12.823 2.81576 13.0041 2.54086C13.1905 2.26078 13.4008 2.0144 13.6351 1.80174C13.8748 1.58908 14.125 1.41273 14.386 1.27269L14.4738 1.33493C14.4099 1.52166 14.3514 1.74469 14.2981 2.00403C14.2449 2.25818 14.2182 2.53568 14.2182 2.83651C14.2182 3.57823 14.3886 4.23436 14.7294 4.80491C15.0756 5.37027 15.5495 5.81374 16.1513 6.13533C16.753 6.45172 17.44 6.60992 18.2121 6.60992C18.4943 6.60992 18.7606 6.58917 19.0109 6.54768C19.2665 6.501 19.4875 6.44913 19.6739 6.39207L19.7298 6.44653C19.5967 6.6955 19.405 6.94187 19.1547 7.18565C18.9097 7.42425 18.6088 7.6395 18.2521 7.83141C17.8953 8.02333 17.4799 8.16856 17.006 8.2671C16.5373 8.36565 16.0128 8.39418 15.4324 8.35269V9.4886ZM10.0007 16.2107H8.25137L8.23539 16.5375L9.146 14.857C9.1886 14.774 9.19392 14.7039 9.16197 14.6469C9.13535 14.5898 9.07677 14.5613 8.98624 14.5613H7.3168C7.21029 14.5613 7.13308 14.582 7.08515 14.6235C7.03722 14.665 6.99462 14.7221 6.95735 14.7947L5.93491 17.0588C5.89231 17.1521 5.88965 17.2247 5.92692 17.2766C5.96953 17.3337 6.04142 17.3622 6.14259 17.3622H7.57241L7.66826 16.9109L6.45412 19.774C6.40619 19.883 6.42217 19.953 6.50204 19.9841C6.58192 20.0204 6.6618 19.9945 6.74168 19.9063L10.1205 16.5842C10.2004 16.5012 10.227 16.4182 10.2004 16.3352C10.1791 16.2522 10.1125 16.2107 10.0007 16.2107Z"
		fill="currentColor"
	/>
</svg>
