<svg
	color="rgb(var(--foreground, 0, 0, 0))"
	viewBox="0 0 18 20"
	fill="none"
	xmlns="http://www.w3.org/2000/svg"
>
	<path
		d="M3.70565 12.4906H13.4902C14.1367 12.4906 14.7333 12.3771 15.2799 12.1502C15.8318 11.9234 16.3101 11.6068 16.7149 11.2005C17.1248 10.7942 17.4402 10.3246 17.661 9.7917C17.887 9.25879 18 8.68894 18 8.08216C18 7.44899 17.8791 6.86859 17.6373 6.34095C17.4008 5.80804 17.067 5.34635 16.636 4.9559C16.2103 4.56017 15.7109 4.25414 15.138 4.03781C14.5651 3.82148 13.9448 3.71331 13.2773 3.71331C12.9514 3.06432 12.5335 2.49975 12.0237 2.0196C11.5191 1.53417 10.9435 1.15955 10.297 0.895728C9.65047 0.631909 8.94613 0.5 8.18398 0.5C7.44284 0.5 6.74376 0.637186 6.08673 0.911558C5.43496 1.18065 4.85152 1.55528 4.3364 2.03543C3.82129 2.51558 3.40342 3.07487 3.08279 3.71331C2.76741 4.35176 2.57819 5.03769 2.51511 5.7711C2.0368 5.90829 1.60841 6.13517 1.22996 6.45175C0.851512 6.76306 0.551906 7.14296 0.331143 7.59145C0.110381 8.03994 0 8.54384 0 9.10314C0 9.72575 0.144547 10.2956 0.43364 10.8127C0.72799 11.3245 1.15112 11.7334 1.70302 12.0394C2.25493 12.3402 2.92247 12.4906 3.70565 12.4906ZM3.68988 11.2242C3.14849 11.2242 2.69908 11.1319 2.34166 10.9472C1.98423 10.7626 1.71354 10.5146 1.52957 10.2033C1.35086 9.88668 1.2615 9.53316 1.2615 9.14271C1.2615 8.66783 1.40867 8.23517 1.70302 7.84472C1.99737 7.44899 2.48095 7.16143 3.15375 6.98203C3.37451 6.92399 3.52957 6.83693 3.61893 6.72085C3.70828 6.60477 3.76347 6.43593 3.7845 6.21432C3.82655 5.56532 3.97109 4.97173 4.21814 4.43354C4.47044 3.89007 4.79632 3.42048 5.1958 3.02475C5.59527 2.62374 6.04994 2.31507 6.5598 2.09874C7.07491 1.87713 7.6163 1.76633 8.18398 1.76633C9.07228 1.76633 9.85809 2.00377 10.5414 2.47864C11.2247 2.94824 11.7792 3.62098 12.205 4.49686C12.2944 4.69208 12.4047 4.82927 12.5361 4.90841C12.6676 4.98228 12.8515 5.01922 13.0881 5.01922C13.866 5.01922 14.5256 5.16168 15.067 5.44661C15.6137 5.72625 16.0289 6.10088 16.3128 6.57047C16.5966 7.04007 16.7385 7.55452 16.7385 8.11381C16.7385 8.68894 16.5992 9.2113 16.3206 9.6809C16.0421 10.1505 15.6636 10.5251 15.1853 10.8048C14.707 11.0844 14.1682 11.2242 13.569 11.2242H3.68988ZM10.8962 15.4269H9.10645L9.09068 15.783L10.0526 13.931C10.0999 13.8413 10.1078 13.7675 10.0762 13.7094C10.0447 13.6514 9.98687 13.6224 9.90277 13.6224H8.19186C8.08148 13.6224 8.00001 13.6435 7.94744 13.6857C7.89488 13.7279 7.8502 13.7886 7.81341 13.8677L6.74114 16.3212C6.69909 16.4215 6.69646 16.498 6.73325 16.5507C6.7753 16.6088 6.84626 16.6378 6.94613 16.6378H8.40474L8.50723 16.1708L7.23785 19.2654C7.19054 19.3815 7.20894 19.4554 7.29304 19.487C7.37189 19.5187 7.45336 19.4923 7.53746 19.4079L11.0223 15.8226C11.1064 15.7329 11.1354 15.6432 11.1091 15.5535C11.0828 15.4691 11.0118 15.4269 10.8962 15.4269Z"
		fill="currentColor"
	/>
</svg>
