<svg
	color="rgb(var(--foreground, 0, 0, 0))"
	viewBox="0 0 23 24"
	fill="none"
	xmlns="http://www.w3.org/2000/svg"
>
	<path
		d="M3.35582 16.7435H11.9195C12.6846 16.7435 13.3731 16.5667 13.9852 16.213C14.5973 15.854 15.0827 15.3718 15.4415 14.7663C15.8056 14.1555 15.9876 13.4723 15.9876 12.7168C15.9876 11.9666 15.8029 11.2942 15.4336 10.6994C15.0695 10.0993 14.5735 9.62508 13.9456 9.2768C13.3177 8.92851 12.6081 8.74901 11.8166 8.73829C11.3523 7.85418 10.7244 7.16029 9.9329 6.65662C9.14671 6.14758 8.2629 5.89307 7.28149 5.89307C6.62721 5.89307 6.00723 6.01363 5.42154 6.25475C4.84113 6.49587 4.3214 6.83076 3.86235 7.25942C3.4033 7.68272 3.02868 8.17836 2.73847 8.74633C2.45354 9.3143 2.27678 9.92782 2.20819 10.5869C1.54864 10.7959 1.01571 11.1736 0.609429 11.7202C0.203143 12.2613 0 12.899 0 13.633C0 14.2332 0.139826 14.769 0.419477 15.2405C0.699128 15.7067 1.08958 16.0737 1.59085 16.3416C2.09738 16.6095 2.68571 16.7435 3.35582 16.7435ZM3.32416 15.4575C2.87566 15.4575 2.49839 15.3772 2.19236 15.2164C1.88633 15.0557 1.65416 14.8413 1.49587 14.5734C1.34285 14.3001 1.26635 13.9974 1.26635 13.6652C1.26635 13.2365 1.39562 12.8481 1.65416 12.4998C1.91271 12.1515 2.33482 11.8997 2.92051 11.7443C3.11046 11.696 3.24501 11.621 3.32416 11.5192C3.40858 11.4174 3.45871 11.2647 3.47454 11.0611C3.52202 10.4985 3.6513 9.9814 3.86235 9.50988C4.07869 9.033 4.35834 8.62309 4.70131 8.28016C5.04955 7.93188 5.44265 7.66397 5.88059 7.47643C6.32381 7.28353 6.79078 7.18708 7.28149 7.18708C7.7933 7.18708 8.26554 7.28085 8.69821 7.46839C9.13088 7.65057 9.5187 7.91848 9.86167 8.27213C10.2046 8.62041 10.5001 9.04371 10.7481 9.54203C10.8325 9.71349 10.9301 9.83405 11.0409 9.90371C11.157 9.97337 11.3153 10.0082 11.5158 10.0082C12.1965 10.0082 12.7743 10.1341 13.2491 10.386C13.7293 10.6324 14.0934 10.9646 14.3414 11.3826C14.5894 11.8005 14.7134 12.2587 14.7134 12.757C14.7134 13.2553 14.592 13.7081 14.3493 14.1153C14.1066 14.5225 13.7741 14.8494 13.352 15.0958C12.9352 15.337 12.4656 15.4575 11.9432 15.4575H3.32416ZM14.8083 4.84821C14.0802 4.84821 13.4206 5.02771 12.8297 5.38671C12.2387 5.74036 11.7665 6.21992 11.4129 6.8254C11.0647 7.42552 10.8906 8.0953 10.8906 8.83474C10.8906 8.88297 10.8932 8.93119 10.8985 8.97941C10.9038 9.02764 10.9064 9.07318 10.9064 9.11605L12.1015 9.23661C12.0857 9.17231 12.0725 9.10801 12.0619 9.04371C12.0567 8.97406 12.054 8.9044 12.054 8.83474C12.054 8.30963 12.1754 7.83543 12.4181 7.41213C12.6661 6.98883 12.9959 6.65394 13.4074 6.40746C13.8243 6.15562 14.2912 6.0297 14.8083 6.0297C15.3254 6.0297 15.7897 6.15562 16.2013 6.40746C16.6181 6.65394 16.9479 6.98883 17.1906 7.41213C17.4386 7.83543 17.5626 8.30963 17.5626 8.83474C17.5626 9.25804 17.4782 9.65187 17.3094 10.0162C17.1458 10.3806 16.9189 10.6967 16.6287 10.9646C16.3385 11.2272 16.0034 11.4201 15.6235 11.5433L15.6315 12.757C16.2277 12.623 16.758 12.3685 17.2223 11.9934C17.6866 11.613 18.0507 11.1522 18.3145 10.611C18.5836 10.0645 18.7182 9.47237 18.7182 8.83474C18.7182 8.0953 18.544 7.42552 18.1958 6.8254C17.8476 6.21992 17.3753 5.74036 16.7791 5.38671C16.1881 5.02771 15.5312 4.84821 14.8083 4.84821ZM10.2178 5.12148C10.3497 5.25544 10.508 5.32242 10.6927 5.32242C10.8774 5.31706 11.0304 5.25008 11.1518 5.12148C11.2731 4.99288 11.3338 4.83749 11.3338 4.65531C11.3391 4.47313 11.2784 4.31775 11.1518 4.18915L9.9329 2.94336C9.80626 2.81476 9.65325 2.75046 9.47385 2.75046C9.29445 2.75046 9.14143 2.81476 9.0148 2.94336C8.88816 3.07195 8.82221 3.23002 8.81693 3.41756C8.81693 3.59974 8.88289 3.75781 9.0148 3.89177L10.2178 5.12148ZM14.8083 3.57027C14.9877 3.57027 15.1407 3.50597 15.2674 3.37737C15.3993 3.24342 15.4652 3.08535 15.4652 2.90317V1.1671C15.4652 0.984921 15.3993 0.829532 15.2674 0.700934C15.1407 0.566978 14.9877 0.5 14.8083 0.5C14.6289 0.5 14.4733 0.566978 14.3414 0.700934C14.2147 0.829532 14.1514 0.984921 14.1514 1.1671V2.90317C14.1514 3.08535 14.2147 3.24342 14.3414 3.37737C14.4733 3.50597 14.6289 3.57027 14.8083 3.57027ZM18.4649 5.12148C18.5863 5.25008 18.7393 5.31706 18.924 5.32242C19.1139 5.32242 19.2722 5.25544 19.3988 5.12148L20.6098 3.89177C20.7364 3.75781 20.7997 3.59974 20.7997 3.41756C20.7997 3.23002 20.7364 3.07195 20.6098 2.94336C20.4831 2.81476 20.3301 2.75046 20.1507 2.75046C19.9713 2.75046 19.8183 2.81476 19.6917 2.94336L18.4649 4.18915C18.3383 4.31775 18.2749 4.47313 18.2749 4.65531C18.2802 4.83749 18.3435 4.99288 18.4649 5.12148ZM20.6335 9.50184H22.351C22.5304 9.50184 22.6834 9.43754 22.81 9.30895C22.9367 9.17499 23 9.01692 23 8.83474C23 8.65256 22.9367 8.49717 22.81 8.36857C22.6834 8.23462 22.5304 8.16764 22.351 8.16764H20.6335C20.4594 8.16764 20.3064 8.23462 20.1745 8.36857C20.0426 8.49717 19.9766 8.65256 19.9766 8.83474C19.9766 9.01692 20.0426 9.17499 20.1745 9.30895C20.3064 9.43754 20.4594 9.50184 20.6335 9.50184ZM19.6917 14.7342C19.8183 14.8628 19.9713 14.9271 20.1507 14.9271C20.3301 14.9217 20.4831 14.8547 20.6098 14.7261C20.7364 14.5975 20.7997 14.4421 20.7997 14.26C20.7997 14.0724 20.7364 13.917 20.6098 13.7938L19.383 12.556C19.2564 12.4328 19.1033 12.3712 18.924 12.3712C18.7446 12.3658 18.5915 12.4274 18.4649 12.556C18.3383 12.6846 18.2749 12.8427 18.2749 13.0302C18.2749 13.2124 18.3383 13.3678 18.4649 13.4964L19.6917 14.7342ZM9.90915 19.5807H8.17584L8.16001 19.9263L9.06229 18.1822C9.1045 18.0965 9.10977 18.0241 9.07811 17.9652C9.05173 17.9116 8.99369 17.8848 8.90399 17.8848H7.24983C7.1443 17.8848 7.06779 17.9036 7.0203 17.9411C6.97282 17.9839 6.9306 18.0456 6.89367 18.1259L5.88059 20.4648C5.83838 20.5559 5.83574 20.6282 5.87268 20.6818C5.91489 20.7407 5.98612 20.7702 6.08637 20.7702H7.5031L7.59807 20.3041L6.39504 23.2618C6.34756 23.3743 6.36339 23.4493 6.44253 23.4868C6.52168 23.519 6.60083 23.4922 6.67997 23.4065L10.0279 19.9665C10.107 19.8808 10.1334 19.795 10.107 19.7093C10.0859 19.6236 10.02 19.5807 9.90915 19.5807Z"
		fill="currentColor"
	/>
</svg>
