<svg
	color="rgb(var(--foreground, 0, 0, 0))"
	viewBox="0 0 18 20"
	fill="none"
	xmlns="http://www.w3.org/2000/svg"
>
	<path
		d="M3.70565 12.5439H13.4901C14.1367 12.5439 14.7332 12.43 15.2799 12.2021C15.8318 11.9742 16.3101 11.6562 16.7148 11.2481C17.1248 10.84 17.4402 10.3683 17.661 9.83305C17.887 9.29777 18 8.72538 18 8.1159C18 7.47992 17.8791 6.89693 17.6373 6.36695C17.4008 5.83166 17.067 5.36792 16.636 4.97573C16.2102 4.57824 15.7109 4.27085 15.138 4.05356C14.565 3.83626 13.9448 3.72762 13.2773 3.72762C12.9514 3.07573 12.5335 2.50865 12.0236 2.02636C11.519 1.53877 10.9435 1.16248 10.297 0.89749C9.65045 0.632497 8.94612 0.5 8.18396 0.5C7.44283 0.5 6.74375 0.637796 6.08672 0.913389C5.43495 1.18368 4.85151 1.55997 4.3364 2.04226C3.82128 2.52455 3.40341 3.08633 3.08278 3.72762C2.76741 4.3689 2.57818 5.05788 2.51511 5.79456C2.03679 5.93236 1.60841 6.16025 1.22996 6.47824C0.85151 6.79093 0.551905 7.17252 0.331143 7.62301C0.110381 8.0735 0 8.57964 0 9.14142C0 9.76681 0.144547 10.3392 0.43364 10.8586C0.727989 11.3727 1.15112 11.7834 1.70302 12.0908C2.25493 12.3929 2.92247 12.5439 3.70565 12.5439ZM4.15506 16.5109C4.22864 16.5109 4.28646 16.4817 4.32851 16.4234C4.37582 16.3704 4.39684 16.3068 4.39159 16.2326L4.34428 15.4695L4.96714 15.8987C5.02496 15.9411 5.09067 15.9544 5.16425 15.9385C5.23784 15.9226 5.29566 15.8855 5.33771 15.8272C5.3745 15.7689 5.38239 15.7 5.36136 15.6205C5.34034 15.5463 5.2904 15.4907 5.21156 15.4536L4.54139 15.1197L5.21944 14.7778C5.29303 14.746 5.33771 14.693 5.35348 14.6188C5.3745 14.5446 5.37187 14.4757 5.34559 14.4121C5.3088 14.3485 5.25098 14.3114 5.17214 14.3008C5.09329 14.2902 5.02496 14.3035 4.96714 14.3406L4.34428 14.7778L4.39947 14.0146C4.40998 13.9351 4.38896 13.8689 4.3364 13.8159C4.28909 13.7629 4.22864 13.7364 4.15506 13.7364C4.07096 13.7364 4.00525 13.7629 3.95795 13.8159C3.9159 13.8689 3.8975 13.9351 3.90276 14.0146L3.95006 14.7778L3.31931 14.3406C3.2615 14.3035 3.19579 14.2902 3.12221 14.3008C3.04862 14.3114 2.99343 14.3485 2.95663 14.4121C2.9251 14.4757 2.91721 14.5446 2.93298 14.6188C2.94875 14.6877 2.99343 14.7407 3.06701 14.7778L3.74507 15.1197L3.06701 15.4536C2.99343 15.4907 2.94612 15.5463 2.9251 15.6205C2.90407 15.6947 2.91196 15.7636 2.94875 15.8272C2.98554 15.8908 3.04073 15.9279 3.11432 15.9385C3.19316 15.9544 3.2615 15.9438 3.31931 15.9067L3.95006 15.4774L3.91064 16.2326C3.90538 16.3068 3.92378 16.3704 3.96583 16.4234C4.00788 16.4817 4.07096 16.5109 4.15506 16.5109ZM8.52299 16.5109C8.59658 16.5109 8.6544 16.4817 8.69644 16.4234C8.74375 16.3704 8.76478 16.3068 8.75952 16.2326L8.71221 15.4695L9.33508 15.8987C9.3929 15.9411 9.4586 15.9544 9.53219 15.9385C9.60577 15.9226 9.66359 15.8855 9.70564 15.8272C9.74244 15.7689 9.75032 15.7 9.7293 15.6205C9.70827 15.5463 9.65834 15.4907 9.57949 15.4536L8.90144 15.1197L9.58738 14.7778C9.66096 14.746 9.70564 14.693 9.72141 14.6188C9.74244 14.5446 9.73981 14.4757 9.71353 14.4121C9.67673 14.3485 9.61891 14.3114 9.54007 14.3008C9.46123 14.2902 9.3929 14.3035 9.33508 14.3406L8.71221 14.7778L8.7674 14.0146C8.77792 13.9351 8.75689 13.8689 8.70433 13.8159C8.65702 13.7629 8.59658 13.7364 8.52299 13.7364C8.43889 13.7364 8.37319 13.7629 8.32588 13.8159C8.28383 13.8689 8.26543 13.9351 8.27069 14.0146L8.318 14.7778L7.67936 14.3406C7.6268 14.3035 7.56373 14.2902 7.49014 14.3008C7.41655 14.3114 7.36136 14.3485 7.32457 14.4121C7.28777 14.4757 7.27726 14.5446 7.29303 14.6188C7.31405 14.6877 7.36136 14.7407 7.43495 14.7778L8.113 15.1197L7.43495 15.4536C7.36136 15.4907 7.31405 15.5463 7.29303 15.6205C7.272 15.6947 7.27989 15.7636 7.31668 15.8272C7.35348 15.8908 7.40867 15.9279 7.48225 15.9385C7.5611 15.9544 7.6268 15.9438 7.67936 15.9067L8.318 15.4774L8.27857 16.2326C8.27332 16.3068 8.29171 16.3704 8.33376 16.4234C8.37581 16.4817 8.43889 16.5109 8.52299 16.5109ZM12.8909 16.5109C12.9645 16.5109 13.0223 16.4817 13.0644 16.4234C13.1117 16.3704 13.1327 16.3068 13.1275 16.2326L13.0723 15.4695L13.703 15.8987C13.7608 15.9411 13.8265 15.9544 13.9001 15.9385C13.9737 15.9226 14.0315 15.8855 14.0736 15.8272C14.1104 15.7689 14.1183 15.7 14.0972 15.6205C14.0762 15.5463 14.0263 15.4907 13.9474 15.4536L13.2694 15.1197L13.9553 14.7778C14.0289 14.746 14.0736 14.693 14.0893 14.6188C14.1104 14.5446 14.1077 14.4757 14.0815 14.4121C14.0447 14.3485 13.9868 14.3114 13.908 14.3008C13.8292 14.2902 13.7608 14.3035 13.703 14.3406L13.0723 14.7778L13.1353 14.0146C13.1459 13.9351 13.1248 13.8689 13.0723 13.8159C13.025 13.7629 12.9645 13.7364 12.8909 13.7364C12.8068 13.7364 12.7411 13.7629 12.6938 13.8159C12.6518 13.8689 12.6334 13.9351 12.6386 14.0146L12.6859 14.7778L12.0473 14.3406C11.9947 14.3035 11.9317 14.2902 11.8581 14.3008C11.7845 14.3114 11.7293 14.3485 11.6925 14.4121C11.6557 14.4757 11.6452 14.5446 11.661 14.6188C11.682 14.6877 11.7293 14.7407 11.8029 14.7778L12.4809 15.1197L11.8029 15.4536C11.7293 15.4907 11.682 15.5463 11.661 15.6205C11.6399 15.6947 11.6478 15.7636 11.6846 15.8272C11.7214 15.8908 11.7766 15.9279 11.8502 15.9385C11.929 15.9544 11.9947 15.9438 12.0473 15.9067L12.6859 15.4774L12.6465 16.2326C12.6413 16.3068 12.6596 16.3704 12.7017 16.4234C12.7437 16.4817 12.8068 16.5109 12.8909 16.5109ZM2.44415 19.5C2.51774 19.5 2.57556 19.4709 2.61761 19.4126C2.66491 19.3543 2.68594 19.288 2.68068 19.2138L2.63337 18.4586L3.25624 18.8879C3.31406 18.925 3.37976 18.9356 3.45335 18.9197C3.52694 18.9091 3.58475 18.872 3.6268 18.8084C3.6636 18.7501 3.67148 18.6812 3.65046 18.6017C3.62943 18.5275 3.5795 18.4718 3.50065 18.4347L2.83048 18.1088L3.50854 17.7669C3.58213 17.7298 3.6268 17.6742 3.64257 17.6C3.6636 17.5258 3.66097 17.4596 3.63469 17.4013C3.59789 17.3377 3.54008 17.2979 3.46123 17.282C3.38239 17.2714 3.31406 17.2847 3.25624 17.3218L2.63337 17.7669L2.68857 16.9958C2.69908 16.9216 2.67805 16.8554 2.62549 16.7971C2.57818 16.7441 2.51774 16.7176 2.44415 16.7176C2.36005 16.7176 2.29435 16.7441 2.24704 16.7971C2.20499 16.8554 2.18659 16.9216 2.19185 16.9958L2.23916 17.7669L1.60841 17.3218C1.55059 17.2847 1.48489 17.2714 1.4113 17.282C1.33771 17.2926 1.28252 17.3324 1.24573 17.4013C1.21419 17.4596 1.20631 17.5232 1.22208 17.5921C1.23784 17.6662 1.28252 17.7245 1.35611 17.7669L2.03416 18.1088L1.35611 18.4427C1.28252 18.4745 1.23522 18.5275 1.21419 18.6017C1.19317 18.6759 1.20105 18.7448 1.23784 18.8084C1.27464 18.8773 1.32983 18.917 1.40342 18.9276C1.48226 18.9382 1.55059 18.925 1.60841 18.8879L2.23916 18.4586L2.19974 19.2138C2.19448 19.288 2.21288 19.3543 2.25493 19.4126C2.29698 19.4709 2.36005 19.5 2.44415 19.5ZM6.81208 19.5C6.88567 19.5 6.94349 19.4709 6.98554 19.4126C7.03285 19.3543 7.05387 19.288 7.04861 19.2138L7.00131 18.4586L7.62417 18.8879C7.68199 18.925 7.74769 18.9356 7.82128 18.9197C7.89487 18.9091 7.95269 18.872 7.99474 18.8084C8.03153 18.7501 8.03942 18.6812 8.01839 18.6017C7.99737 18.5275 7.94743 18.4718 7.86859 18.4347L7.19053 18.1088L7.87647 17.7669C7.95006 17.7298 7.99474 17.6742 8.01051 17.6C8.03153 17.5258 8.0289 17.4596 8.00262 17.4013C7.96583 17.3377 7.90801 17.2979 7.82917 17.282C7.75032 17.2714 7.68199 17.2847 7.62417 17.3218L7.00131 17.7669L7.0565 16.9958C7.06701 16.9216 7.04599 16.8554 6.99342 16.7971C6.94612 16.7441 6.88567 16.7176 6.81208 16.7176C6.72798 16.7176 6.66228 16.7441 6.61497 16.7971C6.57293 16.8554 6.55453 16.9216 6.55978 16.9958L6.60709 17.7669L5.96846 17.3218C5.9159 17.2847 5.85282 17.2714 5.77923 17.282C5.70565 17.2926 5.65046 17.3324 5.61366 17.4013C5.58212 17.4596 5.57424 17.5232 5.59001 17.5921C5.60578 17.6662 5.65046 17.7245 5.72404 17.7669L6.4021 18.1088L5.72404 18.4427C5.65046 18.4745 5.60315 18.5275 5.58212 18.6017C5.5611 18.6759 5.56898 18.7448 5.60578 18.8084C5.64257 18.8773 5.69776 18.917 5.77135 18.9276C5.85019 18.9382 5.9159 18.925 5.96846 18.8879L6.60709 18.4586L6.56767 19.2138C6.56241 19.288 6.58081 19.3543 6.62286 19.4126C6.66491 19.4709 6.72798 19.5 6.81208 19.5ZM11.18 19.5C11.2536 19.5 11.3114 19.4709 11.3535 19.4126C11.4008 19.3543 11.4218 19.288 11.4165 19.2138L11.3614 18.4586L11.9921 18.8879C12.0499 18.925 12.1156 18.9356 12.1892 18.9197C12.2628 18.9091 12.3206 18.872 12.3627 18.8084C12.3995 18.7501 12.4073 18.6812 12.3863 18.6017C12.3653 18.5275 12.3154 18.4718 12.2365 18.4347L11.5585 18.1088L12.2444 17.7669C12.318 17.7298 12.3627 17.6742 12.3784 17.6C12.3995 17.5258 12.3968 17.4596 12.3706 17.4013C12.3338 17.3377 12.2759 17.2979 12.1971 17.282C12.1183 17.2714 12.0499 17.2847 11.9921 17.3218L11.3614 17.7669L11.4244 16.9958C11.4349 16.9216 11.4139 16.8554 11.3614 16.7971C11.3141 16.7441 11.2536 16.7176 11.18 16.7176C11.0959 16.7176 11.0302 16.7441 10.9829 16.7971C10.9409 16.8554 10.9225 16.9216 10.9277 16.9958L10.975 17.7669L10.3364 17.3218C10.2838 17.2847 10.2208 17.2714 10.1472 17.282C10.0736 17.2926 10.0184 17.3324 9.9816 17.4013C9.9448 17.4596 9.93429 17.5232 9.95006 17.5921C9.97108 17.6662 10.0184 17.7245 10.092 17.7669L10.77 18.1088L10.092 18.4427C10.0184 18.4745 9.97108 18.5275 9.95006 18.6017C9.92903 18.6759 9.93692 18.7448 9.97371 18.8084C10.0105 18.8773 10.0657 18.917 10.1393 18.9276C10.2181 18.9382 10.2838 18.925 10.3364 18.8879L10.975 18.4586L10.9356 19.2138C10.9303 19.288 10.9487 19.3543 10.9908 19.4126C11.0328 19.4709 11.0959 19.5 11.18 19.5Z"
		fill="currentColor"
	/>
</svg>
