<svg
	color="rgb(var(--foreground, 0, 0, 0))"
	viewBox="0 0 23 24"
	fill="none"
	xmlns="http://www.w3.org/2000/svg"
>
	<path
		d="M3.35583 17.0866H11.9195C12.6846 17.0866 13.3731 16.906 13.9852 16.5449C14.5972 16.1783 15.0827 15.6859 15.4415 15.0676C15.8055 14.4439 15.9876 13.7463 15.9876 12.9748C15.9876 12.2088 15.8029 11.5221 15.4335 10.9148C15.0695 10.302 14.5735 9.8178 13.9456 9.46216C13.3177 9.10652 12.6081 8.92323 11.8166 8.91228C11.3523 8.0095 10.7244 7.30095 9.93295 6.78664C9.14676 6.26686 8.26295 6.00697 7.28153 6.00697C6.62724 6.00697 6.00726 6.13007 5.42157 6.37629C4.84116 6.6225 4.32143 6.96446 3.86237 7.40217C3.40332 7.83442 3.02869 8.34052 2.73849 8.92049C2.45356 9.50046 2.2768 10.1269 2.2082 10.7999C1.54864 11.0133 1.01572 11.399 0.609432 11.9571C0.203144 12.5097 0 13.1608 0 13.9104C0 14.5232 0.139826 15.0703 0.419479 15.5518C0.699132 16.0278 1.08959 16.4026 1.59086 16.6762C2.0974 16.9498 2.68572 17.0866 3.35583 17.0866ZM3.32417 15.7734C2.87567 15.7734 2.49841 15.6913 2.19237 15.5272C1.88634 15.3631 1.65417 15.1442 1.49588 14.8706C1.34286 14.5916 1.26635 14.2825 1.26635 13.9432C1.26635 13.5055 1.39563 13.1088 1.65417 12.7532C1.91272 12.3976 2.33484 12.1404 2.92052 11.9817C3.11048 11.9325 3.24503 11.8559 3.32417 11.7519C3.4086 11.648 3.45872 11.492 3.47455 11.2841C3.52204 10.7096 3.65132 10.1816 3.86237 9.70016C4.07871 9.21321 4.35836 8.79465 4.70133 8.44448C5.04958 8.08884 5.44268 7.81527 5.88062 7.62377C6.32385 7.4268 6.79081 7.32831 7.28153 7.32831C7.79334 7.32831 8.26559 7.42406 8.69826 7.61556C9.13093 7.80159 9.51875 8.07516 9.86172 8.43627C10.2047 8.79191 10.5002 9.22415 10.7482 9.73299C10.8326 9.90808 10.9302 10.0312 11.041 10.1023C11.1571 10.1734 11.3154 10.209 11.5159 10.209C12.1966 10.209 12.7742 10.3376 13.2491 10.5947C13.7292 10.8464 14.0933 11.1856 14.3413 11.6124C14.5893 12.0392 14.7133 12.507 14.7133 13.0158C14.7133 13.5247 14.5919 13.987 14.3492 14.4028C14.1065 14.8187 13.7741 15.1524 13.352 15.4041C12.9351 15.6503 12.4657 15.7734 11.9433 15.7734H3.32417ZM14.8083 4.94004C14.0801 4.94004 13.4206 5.12334 12.8296 5.48992C12.2386 5.85103 11.7665 6.34072 11.413 6.95899C11.0648 7.57179 10.8906 8.25571 10.8906 9.01077C10.8906 9.06001 10.8933 9.11199 10.8985 9.1667C10.9038 9.21594 10.9065 9.26245 10.9065 9.30622L12.1016 9.42933C12.0857 9.3582 12.0726 9.28981 12.062 9.22415C12.0567 9.15302 12.0541 9.0819 12.0541 9.01077C12.0541 8.47457 12.1754 7.99035 12.4182 7.55811C12.6662 7.12587 12.9958 6.78391 13.4074 6.53222C13.8242 6.27507 14.2912 6.14649 14.8083 6.14649C15.3254 6.14649 15.7897 6.27507 16.2013 6.53222C16.6181 6.78391 16.9479 7.12587 17.1906 7.55811C17.4386 7.99035 17.5626 8.47457 17.5626 9.01077C17.5626 9.44301 17.4782 9.84516 17.3093 10.2172C17.1458 10.5893 16.9189 10.9121 16.6287 11.1856C16.3385 11.4537 16.0034 11.6507 15.6235 11.7766L15.6314 13.0158C16.2277 12.879 16.7579 12.6192 17.2223 12.2362C17.6866 11.8477 18.0507 11.3771 18.3145 10.8245C18.5836 10.2665 18.7181 9.66186 18.7181 9.01077C18.7181 8.25571 18.544 7.57179 18.1958 6.95899C17.8475 6.34072 17.3753 5.85103 16.779 5.48992C16.1881 5.12334 15.5312 4.94004 14.8083 4.94004ZM10.2179 5.21909C10.3498 5.35587 10.5081 5.42426 10.6928 5.42426C10.8774 5.41879 11.0305 5.3504 11.1518 5.21909C11.2732 5.08777 11.3339 4.9291 11.3339 4.74307C11.3391 4.55705 11.2785 4.39837 11.1518 4.26706L9.93295 2.99496C9.80632 2.86365 9.6533 2.79799 9.4739 2.79799C9.2945 2.79799 9.14148 2.86365 9.01484 2.99496C8.88821 3.12627 8.82225 3.28768 8.81698 3.47918C8.81698 3.66521 8.88293 3.82661 9.01484 3.9634L10.2179 5.21909ZM14.8083 3.63511C14.9877 3.63511 15.1407 3.56946 15.2673 3.43814C15.3992 3.30136 15.4652 3.13995 15.4652 2.95392V1.18119C15.4652 0.995162 15.3992 0.836491 15.2673 0.705178C15.1407 0.568393 14.9877 0.5 14.8083 0.5C14.6289 0.5 14.4732 0.568393 14.3413 0.705178C14.2147 0.836491 14.1514 0.995162 14.1514 1.18119V2.95392C14.1514 3.13995 14.2147 3.30136 14.3413 3.43814C14.4732 3.56946 14.6289 3.63511 14.8083 3.63511ZM18.4649 5.21909C18.5862 5.3504 18.7393 5.41879 18.9239 5.42426C19.1139 5.42426 19.2722 5.35587 19.3988 5.21909L20.6098 3.9634C20.7364 3.82661 20.7997 3.66521 20.7997 3.47918C20.7997 3.28768 20.7364 3.12627 20.6098 2.99496C20.4831 2.86365 20.3301 2.79799 20.1507 2.79799C19.9713 2.79799 19.8183 2.86365 19.6917 2.99496L18.4649 4.26706C18.3382 4.39837 18.2749 4.55705 18.2749 4.74307C18.2802 4.9291 18.3435 5.08777 18.4649 5.21909ZM20.6335 9.69196H22.351C22.5304 9.69196 22.6834 9.6263 22.81 9.49499C22.9367 9.3582 23 9.1968 23 9.01077C23 8.82474 22.9367 8.66607 22.81 8.53476C22.6834 8.39797 22.5304 8.32958 22.351 8.32958H20.6335C20.4594 8.32958 20.3064 8.39797 20.1744 8.53476C20.0425 8.66607 19.9766 8.82474 19.9766 9.01077C19.9766 9.1968 20.0425 9.3582 20.1744 9.49499C20.3064 9.6263 20.4594 9.69196 20.6335 9.69196ZM19.6917 15.0348C19.8183 15.1661 19.9713 15.2318 20.1507 15.2318C20.3301 15.2263 20.4831 15.1579 20.6098 15.0266C20.7364 14.8953 20.7997 14.7366 20.7997 14.5506C20.7997 14.3591 20.7364 14.2004 20.6098 14.0746L19.383 12.8107C19.2563 12.6848 19.1033 12.6219 18.9239 12.6219C18.7445 12.6164 18.5915 12.6793 18.4649 12.8107C18.3382 12.942 18.2749 13.1034 18.2749 13.2949C18.2749 13.4809 18.3382 13.6396 18.4649 13.7709L19.6917 15.0348ZM3.22128 20.9357L4.25019 19.0809C4.32407 18.955 4.34253 18.8265 4.3056 18.6952C4.27394 18.5693 4.20007 18.4708 4.08399 18.3997C3.96263 18.3286 3.84127 18.3094 3.71991 18.3422C3.59855 18.3805 3.50094 18.4626 3.42707 18.5885L2.39024 20.4597C2.32165 20.5746 2.30318 20.6949 2.33484 20.8208C2.3665 20.9521 2.443 21.0533 2.56436 21.1245C2.68572 21.1901 2.80708 21.2038 2.92844 21.1655C3.05507 21.1327 3.15269 21.0561 3.22128 20.9357ZM5.69859 23.2419L6.7275 21.3953C6.80137 21.2694 6.81983 21.1409 6.7829 21.0096C6.75124 20.8837 6.67737 20.7852 6.56129 20.7141C6.43993 20.643 6.31857 20.6238 6.19721 20.6566C6.07585 20.6949 5.97824 20.777 5.90437 20.9029L4.86754 22.7659C4.79895 22.8862 4.78048 23.0094 4.81214 23.1352C4.8438 23.261 4.92031 23.3595 5.04167 23.4306C5.16302 23.5018 5.28438 23.5182 5.40574 23.4799C5.53238 23.4471 5.62999 23.3677 5.69859 23.2419ZM9.52139 20.9275L10.5503 19.0727C10.6189 18.9468 10.6374 18.8183 10.6057 18.6869C10.574 18.5611 10.4975 18.4626 10.3762 18.3915C10.2601 18.3204 10.1387 18.3012 10.0121 18.334C9.89074 18.3723 9.79576 18.4544 9.72717 18.5803L8.69034 20.4515C8.62175 20.5664 8.60328 20.6867 8.63494 20.8126C8.6666 20.9439 8.74311 21.0451 8.86447 21.1162C8.98055 21.1819 9.10191 21.1956 9.22854 21.1573C9.35518 21.1245 9.45279 21.0479 9.52139 20.9275ZM11.9908 23.2337L13.0275 21.3871C13.0961 21.2612 13.1145 21.1327 13.0829 21.0013C13.0512 20.8755 12.9747 20.777 12.8534 20.7059C12.732 20.6348 12.6108 20.6156 12.4894 20.6484C12.368 20.6867 12.2704 20.7688 12.1966 20.8947L11.1597 22.7577C11.0964 22.878 11.0806 23.0011 11.1122 23.127C11.1439 23.2528 11.2204 23.3513 11.3418 23.4224C11.4578 23.4936 11.5792 23.51 11.7058 23.4717C11.8325 23.4389 11.9275 23.3595 11.9908 23.2337Z"
		fill="currentColor"
	/>
</svg>
