<svg
	color="rgb(var(--foreground, 0, 0, 0))"
	viewBox="0 0 18 20"
	fill="none"
	xmlns="http://www.w3.org/2000/svg"
>
	<path
		d="M3.70565 12.4906H13.4901C14.1367 12.4906 14.7332 12.3771 15.2799 12.1502C15.8318 11.9234 16.3101 11.6068 16.7148 11.2005C17.1248 10.7942 17.4402 10.3246 17.661 9.7917C17.887 9.25879 18 8.68894 18 8.08216C18 7.44899 17.8791 6.86859 17.6373 6.34095C17.4008 5.80804 17.067 5.34635 16.636 4.9559C16.2102 4.56017 15.7109 4.25414 15.138 4.03781C14.565 3.82148 13.9448 3.71331 13.2773 3.71331C12.9514 3.06432 12.5335 2.49975 12.0237 2.0196C11.5191 1.53417 10.9435 1.15955 10.297 0.895728C9.65046 0.631909 8.94612 0.5 8.18397 0.5C7.44284 0.5 6.74376 0.637186 6.08673 0.911558C5.43495 1.18065 4.85151 1.55528 4.3364 2.03543C3.82129 2.51558 3.40342 3.07487 3.08279 3.71331C2.76741 4.35176 2.57819 5.03769 2.51511 5.7711C2.03679 5.90829 1.60841 6.13517 1.22996 6.45176C0.851511 6.76306 0.551905 7.14296 0.331143 7.59145C0.110381 8.03994 0 8.54384 0 9.10314C0 9.72575 0.144547 10.2956 0.43364 10.8127C0.727989 11.3245 1.15112 11.7334 1.70302 12.0394C2.25493 12.3402 2.92247 12.4906 3.70565 12.4906ZM10.8962 15.4269H9.10644L9.09067 15.783L10.0526 13.931C10.0999 13.8413 10.1078 13.7675 10.0762 13.7094C10.0447 13.6514 9.98686 13.6224 9.90276 13.6224H8.19185C8.08147 13.6224 8 13.6435 7.94744 13.6857C7.89488 13.7279 7.8502 13.7886 7.8134 13.8677L6.74113 16.3212C6.69908 16.4215 6.69645 16.498 6.73325 16.5507C6.7753 16.6088 6.84625 16.6378 6.94612 16.6378H8.40473L8.50723 16.1708L7.23784 19.2654C7.19054 19.3815 7.20894 19.4554 7.29304 19.487C7.37188 19.5187 7.45335 19.4923 7.53745 19.4079L11.0223 15.8226C11.1064 15.7329 11.1353 15.6432 11.1091 15.5535C11.0828 15.4691 11.0118 15.4269 10.8962 15.4269Z"
		fill="currentColor"
	/>
</svg>
