<svg
	color="rgb(var(--foreground, 0, 0, 0))"
	viewBox="0 0 21 14"
	fill="none"
	xmlns="http://www.w3.org/2000/svg"
>
	<path
		d="M3.3868 14H12.0296C12.8017 14 13.4967 13.8192 14.1144 13.4577C14.7321 13.1015 15.222 12.6185 15.5841 12.0088C15.9516 11.3936 16.1353 10.7056 16.1353 9.94468C16.1353 9.1892 15.9489 8.51196 15.5761 7.91297C15.2087 7.31398 14.7081 6.83911 14.0744 6.48835C13.4407 6.13219 12.7245 5.94872 11.9257 5.93793C11.4571 5.05293 10.8234 4.35681 10.0246 3.84956C9.23119 3.33691 8.33922 3.08059 7.34874 3.08059C6.68842 3.08059 6.06271 3.202 5.47161 3.44484C4.88584 3.68227 4.36131 4.01684 3.89802 4.44855C3.43473 4.87486 3.05664 5.37671 2.76375 5.95412C2.47619 6.52612 2.2978 7.144 2.22857 7.80775C1.56293 8.0182 1.0251 8.39864 0.615059 8.94906C0.20502 9.49409 0 10.1336 0 10.8674C0 11.4772 0.141117 12.0169 0.423352 12.4863C0.705587 12.9558 1.09963 13.3255 1.60553 13.5953C2.11674 13.8651 2.7105 14 3.3868 14ZM3.35485 12.7049C2.90221 12.7049 2.52146 12.6266 2.2126 12.4701C1.90374 12.3083 1.66943 12.0924 1.50967 11.8226C1.35524 11.5474 1.27803 11.2398 1.27803 10.8998C1.27803 10.4735 1.4085 10.085 1.66943 9.73422C1.93036 9.38346 2.35638 9.12714 2.94747 8.96525C3.13918 8.91668 3.27497 8.84114 3.35485 8.73861C3.44005 8.63608 3.49064 8.48228 3.50662 8.27722C3.55454 7.71061 3.68501 7.18987 3.89802 6.71499C4.11635 6.24012 4.39859 5.8273 4.74472 5.47654C5.09619 5.12578 5.49291 4.85597 5.9349 4.6671C6.38222 4.47283 6.8535 4.3757 7.34874 4.3757C7.86528 4.3757 8.34188 4.47013 8.77855 4.659C9.21521 4.84248 9.60662 5.11229 9.95275 5.46845C10.2989 5.81921 10.5971 6.24552 10.8474 6.74737C10.9326 6.92545 11.0311 7.04957 11.1429 7.11972C11.2601 7.18447 11.4198 7.21685 11.6222 7.21685C12.3091 7.21685 12.8923 7.34366 13.3715 7.59729C13.8561 7.84552 14.2236 8.18009 14.4738 8.601C14.7241 9.02191 14.8493 9.4833 14.8493 9.98515C14.8493 10.487 14.7268 10.9457 14.4818 11.3612C14.2369 11.7713 13.9014 12.0978 13.4754 12.3406C13.0547 12.5835 12.5807 12.7049 12.0535 12.7049H3.35485ZM15.4324 9.87183C16.0288 9.9096 16.5799 9.87992 17.0858 9.78279C17.5917 9.68566 18.0497 9.53996 18.4597 9.34569C18.8751 9.14603 19.2399 8.90859 19.5541 8.63338C19.8736 8.35817 20.1452 8.06137 20.3688 7.74299C20.5978 7.41921 20.7762 7.09004 20.904 6.75547C21.0371 6.42629 21.0318 6.13759 20.888 5.88936C20.7442 5.64113 20.5153 5.51702 20.2011 5.51702C19.9614 5.51702 19.7218 5.55209 19.4822 5.62224C19.2425 5.6924 18.9097 5.72747 18.4837 5.72747C17.8021 5.72747 17.2296 5.60606 16.7663 5.36322C16.3084 5.12039 15.9596 4.77233 15.7199 4.31904C15.4856 3.86575 15.3685 3.32612 15.3685 2.70015C15.3685 2.39795 15.3924 2.13623 15.4404 1.91499C15.4883 1.68834 15.5335 1.48868 15.5761 1.316C15.6241 1.14331 15.648 0.981425 15.648 0.830329C15.648 0.501154 15.5229 0.263717 15.2726 0.118017C15.0277 -0.027683 14.7294 -0.0384756 14.378 0.0856393C13.9573 0.225943 13.5579 0.441795 13.1798 0.733195C12.8017 1.0192 12.4689 1.36726 12.1813 1.77738C11.8938 2.1821 11.6648 2.63269 11.4944 3.12915C11.3293 3.62561 11.2468 4.15445 11.2468 4.71567C11.2468 5.07722 11.2787 5.43068 11.3426 5.77604C11.4065 6.1214 11.5024 6.45327 11.6302 6.77166L12.9562 6.74737C12.5994 6.14838 12.421 5.46305 12.421 4.69138C12.421 4.29745 12.4716 3.92781 12.5727 3.58244C12.6792 3.23708 12.823 2.9214 13.0041 2.63539C13.1905 2.34939 13.4008 2.09576 13.6351 1.87451C13.8748 1.65326 14.125 1.46979 14.386 1.32409L14.4738 1.38885C14.4099 1.58311 14.3514 1.81246 14.2981 2.07687C14.2449 2.34129 14.2182 2.62999 14.2182 2.94298C14.2182 3.72005 14.3886 4.40268 14.7294 4.99088C15.0756 5.57907 15.5495 6.04046 16.1513 6.37503C16.753 6.7042 17.44 6.86879 18.2121 6.86879C18.4943 6.86879 18.7606 6.8472 19.0109 6.80403C19.2665 6.76086 19.4875 6.7096 19.6739 6.65024L19.7298 6.7069C19.5967 6.96592 19.405 7.22225 19.1547 7.47587C18.9097 7.7241 18.6088 7.94805 18.2521 8.14771C17.8953 8.34738 17.4799 8.49847 17.006 8.601C16.5373 8.70353 16.0128 8.73051 15.4324 8.68195V9.87183Z"
		fill="currentColor"
	/>
</svg>
