<svg
	color="rgb(var(--foreground, 0, 0, 0))"
	viewBox="0 0 23 16"
	fill="none"
	xmlns="http://www.w3.org/2000/svg"
>
	<path
		d="M3.35581 15.9978H11.9195C12.6846 15.9978 13.3731 15.821 13.9852 15.4675C14.5973 15.1192 15.0827 14.647 15.4415 14.0508C15.8056 13.4492 15.9876 12.7765 15.9876 12.0325C15.9876 11.2938 15.8029 10.6316 15.4336 10.0459C15.0695 9.46025 14.5735 8.99593 13.9456 8.65296C13.3177 8.30472 12.608 8.12532 11.8166 8.11476C11.3523 7.24943 10.7244 6.56877 9.93289 6.07278C9.1467 5.57152 8.2629 5.32089 7.28148 5.32089C6.6272 5.32089 6.00722 5.43961 5.42154 5.67705C4.84113 5.90921 4.3214 6.23635 3.86235 6.65847C3.4033 7.07531 3.02867 7.56601 2.73847 8.13059C2.45354 8.68989 2.27678 9.29405 2.20819 9.94305C1.54863 10.1488 1.01571 10.5208 0.609428 11.059C0.203143 11.5919 0 12.2172 0 12.9348C0 13.531 0.139826 14.0587 0.419477 14.5177C0.699128 14.9768 1.08958 15.3382 1.59085 15.602C2.09738 15.8658 2.68571 15.9978 3.35581 15.9978ZM3.32415 14.7314C2.87566 14.7314 2.49839 14.6523 2.19236 14.494C1.88633 14.341 1.65416 14.1325 1.49587 13.8687C1.34285 13.5996 1.26634 13.2989 1.26634 12.9664C1.26634 12.5496 1.39562 12.1697 1.65416 11.8267C1.91271 11.4838 2.33482 11.2331 2.92051 11.0748C3.11046 11.0274 3.24501 10.9535 3.32415 10.8532C3.40858 10.753 3.4587 10.6026 3.47453 10.4021C3.52202 9.84807 3.65129 9.3389 3.86235 8.87457C4.07868 8.41024 4.35834 8.0066 4.7013 7.66363C5.04955 7.32066 5.44264 7.05684 5.88059 6.87216C6.32381 6.68221 6.79077 6.58723 7.28148 6.58723C7.7933 6.58723 8.26554 6.67957 8.6982 6.86425C9.13087 7.04365 9.51869 7.30747 9.86166 7.65571C10.2046 7.99868 10.5001 8.41552 10.7481 8.90623C10.8325 9.08035 10.9301 9.20171 11.0409 9.2703C11.157 9.33362 11.3153 9.36528 11.5158 9.36528C12.1965 9.36528 12.7743 9.48927 13.2491 9.73727C13.7293 9.97998 14.0934 10.3071 14.3414 10.7187C14.5893 11.1302 14.7133 11.5814 14.7133 12.0721C14.7133 12.5628 14.592 13.0113 14.3493 13.4176C14.1066 13.8186 13.7741 14.1378 13.352 14.3753C12.9352 14.6127 12.4656 14.7314 11.9432 14.7314H3.32415ZM14.8083 5.44753C15.3254 5.44753 15.7897 5.57152 16.2013 5.81951C16.6181 6.06223 16.9479 6.39201 17.1906 6.80885C17.4386 7.22568 17.5626 7.69265 17.5626 8.20974C17.5626 8.62658 17.4782 9.01703 17.3093 9.38111C17.1458 9.73991 16.9189 10.0512 16.6287 10.315C16.3385 10.5736 16.0034 10.7635 15.6235 10.8849L15.6314 12.08C16.2277 11.9428 16.758 11.6895 17.2223 11.3202C17.6866 10.9456 18.0507 10.4918 18.3145 9.95888C18.5836 9.42068 18.7182 8.83764 18.7182 8.20974C18.7182 7.48687 18.544 6.82995 18.1958 6.23899C17.8475 5.64275 17.3753 5.16787 16.7791 4.81435C16.1881 4.46083 15.5312 4.28407 14.8083 4.28407C14.0802 4.28407 13.4206 4.46083 12.8297 4.81435C12.2387 5.16787 11.7665 5.64275 11.4129 6.23899C11.0647 6.82995 10.8906 7.48687 10.8906 8.20974C10.8906 8.2625 10.8932 8.31263 10.8985 8.36012C10.9038 8.40761 10.9064 8.45246 10.9064 8.49467L12.1015 8.61339C12.0857 8.55007 12.0725 8.48411 12.0619 8.41552C12.0567 8.34693 12.054 8.27833 12.054 8.20974C12.054 7.69265 12.1754 7.22568 12.4181 6.80885C12.6661 6.39201 12.9959 6.06223 13.4074 5.81951C13.8243 5.57152 14.2912 5.44753 14.8083 5.44753ZM10.2178 4.55317C10.3497 4.68508 10.508 4.75104 10.6927 4.75104C10.8774 4.74576 11.0304 4.6798 11.1517 4.55317C11.2731 4.42653 11.3338 4.27352 11.3338 4.09412C11.3391 3.91472 11.2784 3.7617 11.1517 3.63507L9.93289 2.41621C9.80626 2.28958 9.65324 2.22626 9.47384 2.22626C9.29444 2.22626 9.14143 2.28958 9.01479 2.41621C8.88816 2.54285 8.8222 2.6985 8.81692 2.88318C8.81692 3.06258 8.88288 3.21559 9.01479 3.34223L10.2178 4.55317ZM14.8083 3.03356C14.9877 3.03356 15.1407 2.9676 15.2674 2.83569C15.3993 2.70378 15.4652 2.55076 15.4652 2.37664V0.659159C15.4652 0.47976 15.3993 0.326744 15.2674 0.200109C15.1407 0.0681985 14.9877 0.00224304 14.8083 0.00224304C14.6289 0.00224304 14.4733 0.0681985 14.3414 0.200109C14.2147 0.326744 14.1514 0.47976 14.1514 0.659159V2.37664C14.1514 2.55076 14.2147 2.70378 14.3414 2.83569C14.4733 2.9676 14.6289 3.03356 14.8083 3.03356ZM18.4649 4.55317C18.5862 4.6798 18.7393 4.74576 18.924 4.75104C19.1139 4.75104 19.2722 4.68508 19.3988 4.55317L20.6098 3.34223C20.7364 3.21559 20.7997 3.06258 20.7997 2.88318C20.7997 2.6985 20.7364 2.54285 20.6098 2.41621C20.4831 2.28958 20.3301 2.22626 20.1507 2.22626C19.9713 2.22626 19.8183 2.28958 19.6917 2.41621L18.4649 3.63507C18.3383 3.7617 18.2749 3.91472 18.2749 4.09412C18.2802 4.27352 18.3435 4.42653 18.4649 4.55317ZM20.6335 8.86666H22.351C22.5304 8.86666 22.6834 8.80334 22.81 8.6767C22.9367 8.55007 23 8.39441 23 8.20974C23 8.03034 22.9367 7.87732 22.81 7.75069C22.6834 7.61878 22.5304 7.55282 22.351 7.55282H20.6335C20.4594 7.55282 20.3064 7.61878 20.1745 7.75069C20.0426 7.87732 19.9766 8.03034 19.9766 8.20974C19.9766 8.39441 20.0426 8.55007 20.1745 8.6767C20.3064 8.80334 20.4594 8.86666 20.6335 8.86666ZM19.6917 14.0191C19.8183 14.1457 19.9713 14.2064 20.1507 14.2011C20.3301 14.2011 20.4831 14.1378 20.6098 14.0112C20.7364 13.8845 20.7997 13.7315 20.7997 13.5521C20.7997 13.3675 20.7364 13.2144 20.6098 13.0931L19.383 11.8821C19.2564 11.7555 19.1034 11.6922 18.924 11.6922C18.7446 11.6922 18.5915 11.7555 18.4649 11.8821C18.3383 12.0088 18.2749 12.1644 18.2749 12.3491C18.2749 12.5285 18.3383 12.6815 18.4649 12.8082L19.6917 14.0191Z"
		fill="currentColor"
	/>
</svg>
