<svg
	color="rgb(var(--foreground, 0, 0, 0))"
	viewBox="0 0 18 20"
	fill="none"
	xmlns="http://www.w3.org/2000/svg"
>
	<path
		d="M3.70565 12.4906H13.4902C14.1367 12.4906 14.7333 12.3771 15.2799 12.1502C15.8318 11.9234 16.3101 11.6068 16.7149 11.2005C17.1248 10.7942 17.4402 10.3246 17.661 9.7917C17.887 9.25879 18 8.68894 18 8.08216C18 7.44899 17.8791 6.86859 17.6373 6.34095C17.4008 5.80804 17.067 5.34635 16.636 4.9559C16.2103 4.56017 15.7109 4.25414 15.138 4.03781C14.5651 3.82148 13.9448 3.71331 13.2773 3.71331C12.9514 3.06432 12.5335 2.49975 12.0237 2.0196C11.5191 1.53417 10.9435 1.15955 10.297 0.895728C9.65047 0.631909 8.94613 0.5 8.18398 0.5C7.44284 0.5 6.74376 0.637186 6.08673 0.911558C5.43496 1.18065 4.85152 1.55528 4.3364 2.03543C3.82129 2.51558 3.40342 3.07487 3.08279 3.71331C2.76741 4.35176 2.57819 5.03769 2.51511 5.7711C2.0368 5.90829 1.60841 6.13517 1.22996 6.45175C0.851512 6.76306 0.551906 7.14296 0.331143 7.59145C0.110381 8.03994 0 8.54384 0 9.10314C0 9.72575 0.144547 10.2956 0.43364 10.8127C0.72799 11.3245 1.15112 11.7334 1.70302 12.0394C2.25493 12.3402 2.92247 12.4906 3.70565 12.4906ZM3.68988 11.2242C3.14849 11.2242 2.69908 11.1319 2.34166 10.9472C1.98423 10.7626 1.71354 10.5146 1.52957 10.2033C1.35086 9.88668 1.2615 9.53316 1.2615 9.14271C1.2615 8.66783 1.40867 8.23517 1.70302 7.84472C1.99737 7.44899 2.48095 7.16143 3.15375 6.98203C3.37451 6.92399 3.52957 6.83693 3.61893 6.72085C3.70828 6.60477 3.76347 6.43593 3.7845 6.21432C3.82655 5.56532 3.97109 4.97173 4.21814 4.43354C4.47044 3.89007 4.79632 3.42048 5.1958 3.02475C5.59527 2.62374 6.04994 2.31507 6.5598 2.09874C7.07491 1.87713 7.6163 1.76633 8.18398 1.76633C9.07228 1.76633 9.85809 2.00377 10.5414 2.47864C11.2247 2.94824 11.7792 3.62098 12.205 4.49686C12.2944 4.69208 12.4047 4.82927 12.5361 4.90841C12.6676 4.98228 12.8515 5.01922 13.0881 5.01922C13.866 5.01922 14.5256 5.16168 15.067 5.44661C15.6137 5.72625 16.0289 6.10088 16.3128 6.57047C16.5966 7.04007 16.7385 7.55452 16.7385 8.11381C16.7385 8.68894 16.5992 9.2113 16.3206 9.6809C16.0421 10.1505 15.6636 10.5251 15.1853 10.8048C14.707 11.0844 14.1682 11.2242 13.569 11.2242H3.68988ZM10.8962 15.4269H9.10645L9.09068 15.783L10.0526 13.931C10.0999 13.8413 10.1078 13.7675 10.0762 13.7094C10.0447 13.6514 9.98687 13.6224 9.90277 13.6224H8.19186C8.08148 13.6224 8.00001 13.6435 7.94744 13.6857C7.89488 13.7279 7.8502 13.7886 7.81341 13.8677L6.74114 16.3212C6.69909 16.4215 6.69646 16.498 6.73325 16.5507C6.7753 16.6088 6.84626 16.6378 6.94613 16.6378H8.40474L8.50723 16.1708L7.23785 19.2654C7.19054 19.3815 7.20894 19.4554 7.29304 19.487C7.37189 19.5187 7.45336 19.4923 7.53746 19.4079L11.0223 15.8226C11.1064 15.7329 11.1354 15.6432 11.1091 15.5535C11.0828 15.4691 11.0118 15.4269 10.8962 15.4269ZM2.05782 16.3766C2.17346 16.4452 2.29435 16.461 2.4205 16.4241C2.54665 16.3872 2.64389 16.3107 2.71222 16.1946L3.73719 14.4138C3.80552 14.2925 3.82392 14.1711 3.79238 14.0497C3.76084 13.9231 3.68463 13.8229 3.56374 13.749C3.4481 13.6804 3.3272 13.6646 3.20105 13.7015C3.08016 13.7332 2.98555 13.8097 2.91722 13.931L1.88436 15.7355C1.81603 15.8463 1.79764 15.9624 1.82917 16.0838C1.86071 16.2104 1.93693 16.308 2.05782 16.3766ZM3.58739 18.5927C3.70303 18.656 3.82392 18.6692 3.95007 18.6323C4.07622 18.6006 4.17346 18.5267 4.24179 18.4107L5.26676 16.622C5.33509 16.5006 5.35349 16.3766 5.32195 16.25C5.29041 16.1286 5.2142 16.0337 5.0933 15.9651C4.97241 15.8965 4.85152 15.878 4.73062 15.9097C4.60973 15.9466 4.51512 16.0257 4.44678 16.1471L3.40605 17.9437C3.34297 18.0598 3.3272 18.1785 3.35874 18.2999C3.39028 18.4212 3.46649 18.5188 3.58739 18.5927ZM13.0171 16.3766C13.1327 16.4452 13.2536 16.461 13.3798 16.4241C13.5059 16.3872 13.6032 16.3107 13.6715 16.1946L14.6965 14.4138C14.7701 14.2925 14.7884 14.1711 14.7517 14.0497C14.7201 13.9231 14.6465 13.8229 14.5309 13.749C14.41 13.6804 14.2891 13.6646 14.1682 13.7015C14.0473 13.7332 13.9501 13.8097 13.8765 13.931L12.8436 15.7355C12.7753 15.8463 12.7569 15.9624 12.7884 16.0838C12.82 16.2104 12.8962 16.308 13.0171 16.3766ZM14.5467 18.5927C14.6623 18.656 14.7832 18.6692 14.9093 18.6323C15.0355 18.6006 15.1327 18.5267 15.2011 18.4107L16.226 16.622C16.2996 16.5006 16.318 16.3766 16.2812 16.25C16.2497 16.1286 16.1761 16.0337 16.0605 15.9651C15.9396 15.8965 15.816 15.878 15.6899 15.9097C15.569 15.9466 15.4744 16.0257 15.4061 16.1471L14.3732 17.9437C14.3049 18.0598 14.2865 18.1785 14.318 18.2999C14.3496 18.4212 14.4258 18.5188 14.5467 18.5927Z"
		fill="currentColor"
	/>
</svg>
