<svg
	color="rgb(var(--foreground, 0, 0, 0))"
	viewBox="0 0 18 18"
	fill="none"
	xmlns="http://www.w3.org/2000/svg"
>
	<path
		d="M3.70565 12.3226H13.4902C14.1367 12.3226 14.7333 12.2061 15.2799 11.9729C15.8318 11.7397 16.3101 11.4144 16.7149 10.9968C17.1248 10.5793 17.4402 10.0967 17.661 9.54903C17.887 9.00136 18 8.41572 18 7.79214C18 7.14144 17.8791 6.54496 17.6373 6.00271C17.4008 5.45504 17.067 4.98057 16.636 4.5793C16.2103 4.17262 15.7109 3.85811 15.138 3.63579C14.5651 3.41347 13.9448 3.3023 13.2773 3.3023C12.9514 2.63534 12.5335 2.05513 12.0237 1.56168C11.5191 1.06281 10.9435 0.677813 10.297 0.406688C9.65047 0.135563 8.94613 0 8.18398 0C7.44284 0 6.74376 0.140985 6.08673 0.422955C5.43496 0.699503 4.85152 1.0845 4.3364 1.57795C3.82129 2.0714 3.40342 2.64618 3.08279 3.3023C2.76741 3.95843 2.57819 4.66335 2.51511 5.41708C2.0368 5.55807 1.60841 5.79123 1.22996 6.11658C0.851512 6.43651 0.551906 6.82693 0.331143 7.28784C0.110381 7.74876 0 8.26661 0 8.84139C0 9.48125 0.144547 10.0669 0.43364 10.5983C0.72799 11.1243 1.15112 11.5445 1.70302 11.859C2.25493 12.1681 2.92247 12.3226 3.70565 12.3226ZM3.68988 11.0212C3.14849 11.0212 2.69908 10.9263 2.34166 10.7366C1.98423 10.5468 1.71354 10.2919 1.52957 9.97198C1.35086 9.64663 1.2615 9.28333 1.2615 8.88206C1.2615 8.39404 1.40867 7.94939 1.70302 7.54812C1.99737 7.14144 2.48095 6.84591 3.15375 6.66155C3.37451 6.6019 3.52957 6.51243 3.61893 6.39313C3.70828 6.27384 3.76347 6.10032 3.7845 5.87257C3.82655 5.2056 3.97109 4.59557 4.21814 4.04248C4.47044 3.48396 4.79632 3.00136 5.1958 2.59467C5.59527 2.18256 6.04994 1.86534 6.5598 1.64302C7.07491 1.41527 7.6163 1.3014 8.18398 1.3014C9.07228 1.3014 9.85809 1.54541 10.5414 2.03344C11.2247 2.51604 11.7792 3.20741 12.205 4.10755C12.2944 4.30818 12.4047 4.44916 12.5361 4.5305C12.6676 4.60642 12.8515 4.64437 13.0881 4.64437C13.866 4.64437 14.5256 4.79078 15.067 5.0836C15.6137 5.37099 16.0289 5.75599 16.3128 6.23859C16.5966 6.72119 16.7385 7.24989 16.7385 7.82467C16.7385 8.41572 16.5992 8.95255 16.3206 9.43516C16.0421 9.91776 15.6636 10.3028 15.1853 10.5901C14.707 10.8775 14.1682 11.0212 13.569 11.0212H3.68988ZM14.2076 14.2097H3.95007C3.81341 14.2097 3.69514 14.2585 3.59527 14.3561C3.50066 14.4537 3.45335 14.5757 3.45335 14.7221C3.45335 14.8685 3.50066 14.9905 3.59527 15.0881C3.69514 15.1857 3.81341 15.2345 3.95007 15.2345H14.2076C14.3496 15.2345 14.4678 15.1857 14.5624 15.0881C14.657 14.9905 14.7043 14.8685 14.7043 14.7221C14.7043 14.5757 14.657 14.4537 14.5624 14.3561C14.4678 14.2585 14.3496 14.2097 14.2076 14.2097ZM14.2076 16.967H3.95007C3.81341 16.967 3.69514 17.0158 3.59527 17.1134C3.50066 17.211 3.45335 17.333 3.45335 17.4794C3.45335 17.6258 3.50066 17.7479 3.59527 17.8455C3.69514 17.9485 3.81341 18 3.95007 18H14.2076C14.3496 18 14.4678 17.9485 14.5624 17.8455C14.657 17.7479 14.7043 17.6258 14.7043 17.4794C14.7043 17.333 14.657 17.211 14.5624 17.1134C14.4678 17.0158 14.3496 16.967 14.2076 16.967Z"
		fill="currentColor"
	/>
</svg>
