<svg
	color="rgb(var(--foreground, 0, 0, 0))"
	viewBox="0 0 19 14"
	fill="none"
	xmlns="http://www.w3.org/2000/svg"
>
	<path
		d="M3.8954 13.5H14.254C14.9218 13.5 15.5418 13.3767 16.1142 13.1302C16.6919 12.8892 17.1954 12.5523 17.6247 12.1195C18.0593 11.6867 18.3958 11.1799 18.6343 10.5992C18.8781 10.0185 19 9.39402 19 8.72566C19 8.04635 18.8728 7.41909 18.6184 6.84387C18.3693 6.26865 18.0195 5.76738 17.569 5.34008C17.1185 4.91277 16.5886 4.58133 15.9791 4.34576C15.3749 4.1102 14.7151 3.99515 13.9996 4.00063C13.4749 2.91045 12.7435 2.05584 11.8054 1.43679C10.8727 0.812263 9.81534 0.5 8.63347 0.5C7.85969 0.5 7.12566 0.647914 6.43138 0.943742C5.7424 1.23409 5.12761 1.63949 4.58703 2.15992C4.04644 2.68036 3.60656 3.28845 3.26736 3.9842C2.93347 4.67994 2.73473 5.43321 2.67113 6.24399C2.14644 6.39739 1.68271 6.64665 1.27992 6.99178C0.877127 7.33691 0.561785 7.75327 0.333891 8.24083C0.111297 8.7284 0 9.26254 0 9.84324C0 10.5554 0.161646 11.1882 0.484937 11.7415C0.808229 12.2893 1.26137 12.7193 1.84435 13.0316C2.42734 13.3439 3.11102 13.5 3.8954 13.5Z"
		fill="currentColor"
	/>
</svg>
