<svg
	color="rgb(var(--foreground, 0, 0, 0))"
	viewBox="0 0 10 16"
	fill="none"
	xmlns="http://www.w3.org/2000/svg"
>
	<path
		d="M0 15.4171C0 15.5756 0.0575618 15.7111 0.172686 15.8236C0.287809 15.9412 0.431714 16 0.604399 16C1.7818 16 2.87803 15.8134 3.89321 15.4401C4.91363 15.0668 5.80583 14.5299 6.56984 13.8293C7.33384 13.1288 7.93039 12.2876 8.35949 11.3058C8.78858 10.319 9.00313 9.217 9.00313 8C9.00313 7.46309 8.89848 6.95941 8.68916 6.48897C8.47984 6.01342 8.18942 5.59668 7.81788 5.23873C7.45158 4.87568 7.02772 4.59188 6.54629 4.38734C6.06486 4.18281 5.54942 4.08054 4.99997 4.08054C4.59704 4.08054 4.21242 4.1419 3.84612 4.26462C3.48505 4.38734 3.15799 4.55865 2.86495 4.77852C3.14752 4.21093 3.50859 3.7047 3.94816 3.25983C4.38772 2.80984 4.89008 2.42889 5.45523 2.11697C6.02038 1.80505 6.63525 1.56727 7.29983 1.40364C7.9644 1.24001 8.663 1.1582 9.3956 1.1582C9.56829 1.1582 9.71219 1.10195 9.82731 0.989454C9.94244 0.871844 10 0.733781 10 0.575264C10 0.416747 9.94244 0.28124 9.82731 0.168744C9.71219 0.056248 9.56829 0 9.3956 0C8.2182 0 7.11929 0.186641 6.09888 0.559923C5.0837 0.933206 4.1941 1.47012 3.4301 2.17066C2.6661 2.8712 2.06961 3.71492 1.64051 4.70182C1.21665 5.68361 1.00472 6.783 1.00472 8C1.00472 8.53691 1.10937 9.04059 1.31869 9.51103C1.52801 9.98146 1.81581 10.3982 2.18212 10.7613C2.54842 11.1192 2.97222 11.4004 3.45365 11.605C3.94031 11.8095 4.45575 11.9118 4.99997 11.9118C5.4029 11.9118 5.7849 11.8504 6.14597 11.7277C6.51228 11.605 6.84195 11.4362 7.13499 11.2215C6.85241 11.7891 6.48873 12.2979 6.04393 12.7478C5.60437 13.1927 5.10201 13.5711 4.53686 13.883C3.97171 14.195 3.35684 14.4327 2.69226 14.5964C2.03292 14.76 1.337 14.8418 0.604399 14.8418C0.431714 14.8418 0.287809 14.8981 0.172686 15.0105C0.0575618 15.123 0 15.2585 0 15.4171ZM3.86181 8C3.86181 7.69319 3.97171 7.43241 4.19149 7.21764C4.4165 6.99776 4.686 6.88782 4.99997 6.88782C5.31394 6.88782 5.58082 6.99776 5.8006 7.21764C6.02562 7.43241 6.13812 7.69319 6.13812 8C6.13812 8.30169 6.02562 8.56248 5.8006 8.78236C5.58082 9.00224 5.31394 9.11218 4.99997 9.11218C4.686 9.11218 4.4165 9.00479 4.19149 8.79003C3.97171 8.57015 3.86181 8.30681 3.86181 8Z"
		fill="currentColor"
	/>
</svg>
