<svg
	color="rgb(var(--foreground, 0, 0, 0))"
	viewBox="0 0 10 16"
	fill="none"
	xmlns="http://www.w3.org/2000/svg"
>
	<path
		d="M0 15.4171C0 15.5756 0.0575615 15.7111 0.172684 15.8236C0.287807 15.9412 0.431711 16 0.604395 16C1.78179 16 2.87807 15.8134 3.89325 15.4401C4.91366 15.0668 5.80586 14.5299 6.56986 13.8293C7.33386 13.1288 7.9304 12.2876 8.3595 11.3058C8.78859 10.319 9.00314 9.217 9.00314 8C9.00314 7.46309 8.89848 6.95941 8.68917 6.48897C8.47985 6.01342 8.18943 5.59668 7.8179 5.23873C7.4516 4.87568 7.02773 4.59188 6.54631 4.38734C6.06489 4.18281 5.54945 4.08054 5 4.08054C4.59707 4.08054 4.21245 4.1419 3.84615 4.26462C3.48509 4.38734 3.15803 4.55865 2.86499 4.77852C3.14757 4.21093 3.50863 3.7047 3.94819 3.25983C4.38775 2.80984 4.89011 2.42889 5.45526 2.11697C6.02041 1.80505 6.63527 1.56727 7.29984 1.40364C7.96441 1.24001 8.663 1.1582 9.3956 1.1582C9.56829 1.1582 9.71219 1.10195 9.82732 0.989454C9.94244 0.871844 10 0.733781 10 0.575264C10 0.416747 9.94244 0.28124 9.82732 0.168744C9.71219 0.056248 9.56829 0 9.3956 0C8.21821 0 7.11931 0.186641 6.0989 0.559923C5.08372 0.933206 4.19414 1.47012 3.43014 2.17066C2.66614 2.87121 2.0696 3.71492 1.6405 4.70182C1.21664 5.6836 1.00471 6.783 1.00471 8C1.00471 8.53691 1.10937 9.04059 1.31868 9.51103C1.528 9.98146 1.8158 10.3982 2.1821 10.7613C2.5484 11.1192 2.97227 11.4004 3.45369 11.605C3.94034 11.8095 4.45578 11.9118 5 11.9118C5.40293 11.9118 5.78493 11.8504 6.146 11.7277C6.5123 11.605 6.84197 11.4362 7.13501 11.2215C6.85243 11.7891 6.48875 12.2979 6.04395 12.7478C5.60439 13.1927 5.10204 13.5711 4.53689 13.883C3.97174 14.195 3.35688 14.4327 2.69231 14.5964C2.03297 14.76 1.337 14.8418 0.604395 14.8418C0.431711 14.8418 0.287807 14.8981 0.172684 15.0105C0.0575615 15.123 0 15.2585 0 15.4171ZM2.1978 8C2.1978 7.49888 2.32339 7.04123 2.57457 6.62704C2.83098 6.21285 3.17111 5.88047 3.59498 5.62991C4.01884 5.37935 4.48718 5.25407 5 5.25407C5.51282 5.25407 5.98116 5.37935 6.40502 5.62991C6.82888 5.88047 7.16902 6.21285 7.42543 6.62704C7.68184 7.04123 7.81005 7.49888 7.81005 8C7.81005 8.50112 7.68184 8.95877 7.42543 9.37296C7.16902 9.78715 6.82888 10.1195 6.40502 10.3701C5.98116 10.6155 5.51282 10.7383 5 10.7383C4.48718 10.7383 4.01884 10.6155 3.59498 10.3701C3.17111 10.1195 2.83098 9.78715 2.57457 9.37296C2.32339 8.95877 2.1978 8.50112 2.1978 8ZM3.86185 8C3.86185 8.30681 3.97174 8.57015 4.19152 8.79003C4.41653 9.00479 4.68603 9.11218 5 9.11218C5.31397 9.11218 5.58085 9.00224 5.80063 8.78236C6.02564 8.56248 6.13815 8.30169 6.13815 8C6.13815 7.69319 6.02564 7.43241 5.80063 7.21764C5.58085 6.99776 5.31397 6.88782 5 6.88782C4.68603 6.88782 4.41653 6.99776 4.19152 7.21764C3.97174 7.43241 3.86185 7.69319 3.86185 8Z"
		fill="currentColor"
	/>
</svg>
