<svg
	color="rgb(var(--foreground, 0, 0, 0))"
	viewBox="0 0 14 16"
	fill="none"
	xmlns="http://www.w3.org/2000/svg"
>
	<path
		d="M7.00352 16C7.17731 16 7.31161 15.9446 7.4064 15.8338C7.50647 15.7283 7.5565 15.5885 7.5565 15.4144V13.6973L8.91524 14.4728C9.05743 14.5519 9.19701 14.5809 9.33394 14.5598C9.47613 14.5387 9.58936 14.457 9.67362 14.3145C9.74209 14.1932 9.75525 14.064 9.71312 13.9268C9.67099 13.7896 9.57619 13.6789 9.42873 13.5945L7.5565 12.5262V11.5213L7.3985 8.69634L9.77632 10.2394L10.6532 10.7379L10.6374 12.8981C10.6321 13.0722 10.6769 13.2146 10.7717 13.3254C10.8717 13.4309 10.9902 13.4837 11.1272 13.4837C11.2957 13.4837 11.4221 13.4283 11.5063 13.3175C11.5959 13.2067 11.6406 13.0669 11.6406 12.8981L11.6485 11.3155L13.1416 12.186C13.2943 12.2756 13.4391 12.3046 13.5761 12.273C13.7182 12.2361 13.8288 12.1464 13.9078 12.004C13.9921 11.8562 14.0132 11.7112 13.971 11.5687C13.9342 11.421 13.842 11.3076 13.6945 11.2285L12.2015 10.366L13.5603 9.56677C13.7024 9.47709 13.7999 9.36894 13.8525 9.24233C13.9052 9.11573 13.8894 8.98121 13.8051 8.83877C13.7261 8.71217 13.6156 8.63567 13.4734 8.6093C13.3364 8.57765 13.1969 8.60402 13.0547 8.68843L11.1983 9.78042L10.3214 9.2819L7.76979 8L10.3293 6.7181L11.1904 6.21167L13.0468 7.30366C13.1942 7.38806 13.3391 7.41708 13.4813 7.3907C13.6287 7.35905 13.7393 7.28256 13.813 7.16123C13.892 7.01879 13.9052 6.88427 13.8525 6.75767C13.7999 6.62578 13.7024 6.515 13.5603 6.42532L12.2015 5.63403L13.6945 4.77151C13.8473 4.68183 13.9421 4.56841 13.9789 4.43126C14.0211 4.2941 14 4.14903 13.9157 3.99604C13.8315 3.85361 13.7182 3.76657 13.5761 3.73492C13.4391 3.69799 13.2969 3.72437 13.1495 3.81405L11.6485 4.66865L11.6327 3.09397C11.6327 2.92516 11.5906 2.788 11.5063 2.68249C11.4221 2.57171 11.2983 2.51632 11.1351 2.51632C10.9876 2.51632 10.8665 2.57171 10.7717 2.68249C10.6769 2.788 10.6321 2.92516 10.6374 3.09397L10.6453 5.24629L9.77632 5.75272L7.3985 7.30366L7.5565 4.47082V3.46588L9.42873 2.40554C9.57619 2.31586 9.67099 2.20508 9.71312 2.07319C9.75525 1.93604 9.74209 1.80415 9.67362 1.67755C9.58936 1.53511 9.47613 1.45335 9.33394 1.43225C9.19701 1.41114 9.05743 1.4428 8.91524 1.5272L7.5565 2.30267V0.577646C7.5565 0.408836 7.50647 0.271678 7.4064 0.166172C7.31161 0.0553907 7.17731 0 7.00352 0C6.84026 0 6.7086 0.0553907 6.60854 0.166172C6.50848 0.271678 6.45844 0.408836 6.45844 0.577646V2.30267L5.076 1.5272C4.92854 1.4428 4.78898 1.41114 4.65732 1.43225C4.52566 1.45335 4.41507 1.53511 4.32554 1.67755C4.25707 1.80415 4.24391 1.93604 4.28604 2.07319C4.33344 2.20508 4.43086 2.31322 4.57833 2.39763L6.45844 3.46588V4.47082L6.60854 7.30366L4.23074 5.75272L3.35388 5.24629L3.36968 3.09397C3.37494 2.92516 3.33018 2.788 3.23538 2.68249C3.14059 2.57171 3.02209 2.51632 2.8799 2.51632C2.70611 2.51632 2.57708 2.57171 2.49282 2.68249C2.40855 2.788 2.36642 2.92516 2.36642 3.09397L2.35852 4.66865L0.857587 3.81405C0.715393 3.72964 0.570566 3.70326 0.423106 3.73492C0.280912 3.76657 0.170317 3.85361 0.09132 3.99604C0.0017906 4.14903 -0.0219084 4.29674 0.0202231 4.43917C0.0676211 4.57633 0.16505 4.68711 0.31251 4.77151L1.79765 5.63403L0.446805 6.42532C0.304611 6.515 0.207182 6.62315 0.154517 6.74975C0.101853 6.87108 0.115019 7.00824 0.194016 7.16123C0.262479 7.28783 0.367808 7.36433 0.510002 7.3907C0.657462 7.41708 0.807556 7.38806 0.960282 7.30366L2.8088 6.21958L3.67776 6.7181L6.22935 8L3.67776 9.2819L2.8088 9.78833L0.952383 8.68843C0.804922 8.60402 0.660095 8.57765 0.517901 8.6093C0.380974 8.63567 0.278279 8.70953 0.209815 8.83086C0.125552 8.98384 0.107119 9.12364 0.154517 9.25025C0.207182 9.37158 0.304611 9.47709 0.446805 9.56677L1.80555 10.366L0.31251 11.2285C0.16505 11.3129 0.0702543 11.4263 0.0281228 11.5687C-0.0140087 11.7112 0.00705703 11.8536 0.09132 11.996C0.175583 12.149 0.288811 12.2413 0.431005 12.273C0.573199 12.2994 0.715393 12.2704 0.857587 12.186L2.35852 11.3314L2.36642 12.8981C2.36642 13.0669 2.40855 13.2067 2.49282 13.3175C2.57708 13.4283 2.70347 13.4837 2.872 13.4837C3.01419 13.4837 3.13269 13.4309 3.22748 13.3254C3.32755 13.2146 3.37494 13.0722 3.36968 12.8981L3.36178 10.7379L4.23074 10.2473L6.60854 8.69634L6.45844 11.5213V12.5262L4.57833 13.5945C4.43086 13.6789 4.33344 13.7896 4.28604 13.9268C4.24391 14.064 4.25707 14.1932 4.32554 14.3145C4.41507 14.457 4.52566 14.5387 4.65732 14.5598C4.78898 14.5809 4.92854 14.5519 5.076 14.4728L6.45844 13.6894V15.4144C6.45844 15.5885 6.50848 15.7283 6.60854 15.8338C6.7086 15.9446 6.84026 16 7.00352 16Z"
		fill="currentColor"
	/>
</svg>
