<svg
	color="rgb(var(--foreground, 0, 0, 0))"
	viewBox="0 0 15 18"
	fill="none"
	xmlns="http://www.w3.org/2000/svg"
>
	<path
		d="M7.37356 7.50802C8.58536 7.50802 9.66281 7.43809 10.6059 7.29825C11.549 7.15841 12.3472 6.96159 13.0005 6.7078C13.6539 6.44883 14.1491 6.14584 14.4863 5.79882C14.8288 5.4518 15 5.07371 15 4.66454C15 4.16214 14.7708 3.72966 14.3124 3.36711C13.8541 2.99937 13.2218 2.71969 12.4157 2.52805C11.6096 2.33123 10.6797 2.23282 9.62593 2.23282C8.44047 2.23282 7.38146 2.33641 6.4489 2.54359C5.52161 2.74558 4.70759 3.00714 4.00685 3.32826C3.81718 3.42149 3.696 3.54838 3.64331 3.70895C3.59589 3.86433 3.60907 4.00935 3.68283 4.14401C3.75659 4.29421 3.87777 4.39003 4.04637 4.43147C4.22024 4.46772 4.3862 4.45219 4.54426 4.38485C5.17651 4.12588 5.90095 3.89022 6.71761 3.67787C7.53426 3.46551 8.47999 3.35934 9.5548 3.35934C10.4399 3.35934 11.196 3.42149 11.823 3.5458C12.45 3.66492 12.9294 3.82289 13.2613 4.01971C13.5933 4.21652 13.7592 4.42888 13.7592 4.65677C13.7592 4.85359 13.6143 5.05299 13.3246 5.25499C13.0348 5.4518 12.6107 5.63308 12.0522 5.79882C11.499 5.95938 10.8246 6.09146 10.029 6.19504C9.23341 6.29345 8.32983 6.34266 7.31824 6.34266C5.3372 6.34266 3.82772 6.15361 2.78978 5.77552C1.75185 5.39742 1.23288 4.84064 1.23288 4.10517C1.23288 3.67528 1.46207 3.2428 1.92044 2.80773C2.38409 2.37267 3.18757 1.97386 4.33088 1.6113C4.52582 1.54915 4.66017 1.44815 4.73394 1.30831C4.81297 1.16846 4.82614 1.02085 4.77345 0.86547C4.7155 0.704909 4.61539 0.596142 4.47313 0.539169C4.33088 0.482196 4.15174 0.487375 3.93573 0.554707C3.05058 0.813676 2.3156 1.13221 1.73077 1.5103C1.15121 1.88322 0.716545 2.29498 0.426766 2.74558C0.142255 3.19101 0 3.65456 0 4.13624C0 5.23945 0.624342 6.07851 1.87303 6.65342C3.12171 7.22315 4.95522 7.50802 7.37356 7.50802ZM7.61065 10.0718C8.8488 10.0718 10.0158 9.97858 11.1117 9.79212C12.2129 9.60566 13.1665 9.34928 13.9726 9.02298C14.1254 8.96083 14.2308 8.86242 14.2887 8.72776C14.3519 8.59309 14.3467 8.45584 14.2729 8.316C14.2044 8.18651 14.1017 8.10882 13.9647 8.08293C13.8277 8.05185 13.6697 8.06998 13.4905 8.13731C12.7582 8.41182 11.8809 8.63453 10.8588 8.80545C9.84195 8.97637 8.75923 9.06183 7.61065 9.06183C7.0469 9.06183 6.46471 9.03852 5.86407 8.99191C5.26344 8.94529 4.67071 8.87537 4.08588 8.78214C3.50633 8.68373 2.96365 8.56202 2.45785 8.417C2.27872 8.3652 2.12066 8.3652 1.98367 8.417C1.85195 8.46879 1.76502 8.56979 1.72287 8.71999C1.68072 8.86501 1.69389 8.99967 1.76238 9.12398C1.83615 9.24828 1.96523 9.33633 2.14963 9.38813C2.69231 9.53833 3.27187 9.66522 3.88831 9.76881C4.51002 9.86722 5.13699 9.94232 5.76924 9.99411C6.40675 10.0459 7.02056 10.0718 7.61065 10.0718ZM8.14806 12.6045C9.18073 12.5942 10.1818 12.5165 11.1512 12.3714C12.1207 12.2212 13.0506 11.9959 13.941 11.6955C14.1517 11.6282 14.2808 11.5246 14.3282 11.3848C14.3757 11.2449 14.373 11.1129 14.3203 10.9886C14.2676 10.8539 14.1728 10.7684 14.0358 10.7322C13.8988 10.6907 13.7276 10.7011 13.5221 10.7633C12.6475 11.0429 11.7677 11.2501 10.8825 11.3848C9.99737 11.5194 9.08589 11.5868 8.14806 11.5868C7.74764 11.5868 7.34985 11.5764 6.9547 11.5557C6.55954 11.5298 6.19864 11.4935 5.87198 11.4469C5.67703 11.421 5.52161 11.4443 5.4057 11.5169C5.29505 11.5842 5.22656 11.6878 5.20022 11.8276C5.17387 11.9675 5.20022 12.0969 5.27925 12.2161C5.35828 12.33 5.50053 12.4051 5.70601 12.4414C6.0116 12.4932 6.3725 12.5346 6.78873 12.5657C7.20496 12.5916 7.65807 12.6045 8.14806 12.6045ZM7.42888 14.9896C7.90833 15.0466 8.41149 15.0777 8.93836 15.0828C9.4705 15.088 10.0026 15.0621 10.5348 15.0052C11.0722 14.9482 11.5885 14.8524 12.0838 14.7177C12.2629 14.6711 12.3841 14.5805 12.4473 14.4458C12.5158 14.3111 12.529 14.1765 12.4868 14.0418C12.4394 13.8968 12.3499 13.7984 12.2181 13.7466C12.0864 13.6948 11.9257 13.6922 11.736 13.7388C11.0933 13.9045 10.4162 14.0107 9.70496 14.0573C8.99369 14.1039 8.29295 14.0858 7.60275 14.0029C7.41307 13.9822 7.25501 14.0107 7.12856 14.0884C7.00738 14.1661 6.93889 14.2775 6.92308 14.4225C6.90728 14.5623 6.93889 14.6866 7.01792 14.7954C7.09695 14.9042 7.23394 14.9689 7.42888 14.9896ZM6.89147 17.4524C7.1391 17.4887 7.40254 17.5042 7.68178 17.499C7.96102 17.499 8.22972 17.4835 8.48789 17.4524C8.66703 17.4317 8.79874 17.3695 8.88304 17.266C8.96734 17.1624 9.00422 17.0381 8.99369 16.893C8.97788 16.7636 8.91729 16.66 8.81192 16.5823C8.71181 16.5046 8.56429 16.4761 8.36935 16.4968C7.9057 16.5538 7.44205 16.5564 6.97841 16.5046C6.79927 16.4787 6.65701 16.5046 6.55164 16.5823C6.44627 16.6651 6.38304 16.7687 6.36197 16.893C6.34616 17.0277 6.38041 17.1494 6.46471 17.2582C6.55428 17.367 6.69653 17.4317 6.89147 17.4524Z"
		fill="currentColor"
	/>
</svg>
