<svg
	color="rgb(var(--foreground, 0, 0, 0))"
	viewBox="0 0 16 18"
	fill="none"
	xmlns="http://www.w3.org/2000/svg"
>
	<path
		d="M7.334 2.32785H8.666V0.653979C8.666 0.472318 8.60181 0.319204 8.47342 0.194637C8.34504 0.0648789 8.18723 0 8 0C7.81277 0 7.65497 0.0648789 7.52658 0.194637C7.3982 0.319204 7.334 0.472318 7.334 0.653979V2.32785ZM0.665999 9.87976C0.783685 9.87976 0.896026 9.84602 1.00301 9.77855C1.11535 9.70588 1.21431 9.60467 1.2999 9.47491C1.56737 9.08045 1.84822 8.79758 2.14243 8.6263C2.442 8.44983 2.78168 8.36159 3.16149 8.36159C3.53594 8.36159 3.8569 8.44983 4.12437 8.6263C4.39184 8.79758 4.64059 9.07785 4.87061 9.46713C5.03644 9.74221 5.22635 9.87976 5.44032 9.87976C5.665 9.87976 5.8549 9.74221 6.01003 9.46713C6.224 9.109 6.51287 8.82872 6.87663 8.6263C7.24039 8.41868 7.61485 8.31488 8 8.31488C8.38516 8.31488 8.75962 8.41868 9.12337 8.6263C9.48713 8.82872 9.77599 9.109 9.98997 9.46713C10.1397 9.74221 10.3297 9.87976 10.5597 9.87976C10.7737 9.87976 10.9609 9.74221 11.1214 9.46713C11.3567 9.07785 11.6082 8.79758 11.8756 8.6263C12.1431 8.44983 12.4641 8.36159 12.8385 8.36159C13.2183 8.36159 13.5553 8.44983 13.8496 8.6263C14.1491 8.79758 14.43 9.08045 14.6921 9.47491C14.783 9.60467 14.882 9.70588 14.989 9.77855C15.1013 9.84602 15.2163 9.87976 15.334 9.87976C15.5319 9.87976 15.6924 9.80969 15.8155 9.66955C15.9385 9.52941 16 9.35294 16 9.14014C16 8.52249 15.8957 7.8737 15.6871 7.19377C15.4838 6.50865 15.1735 5.8417 14.7563 5.19291C14.3444 4.54412 13.8201 3.95761 13.1836 3.43339C12.547 2.90917 11.7981 2.49135 10.9368 2.17993C10.0756 1.86851 9.09663 1.7128 8 1.7128C6.90338 1.7128 5.92177 1.86851 5.05517 2.17993C4.19392 2.49135 3.44501 2.90917 2.80843 3.43339C2.1772 3.95761 1.65296 4.54412 1.23571 5.19291C0.81846 5.8417 0.508197 6.50865 0.30492 7.19377C0.101644 7.8737 0 8.52249 0 9.14014C0 9.35294 0.058845 9.52941 0.176531 9.66955C0.299567 9.80969 0.462722 9.87976 0.665999 9.87976ZM8 7.10035C7.51856 7.10035 7.05584 7.19896 6.61184 7.39619C6.17319 7.59343 5.80675 7.86592 5.51254 8.21367C5.47509 8.26557 5.43765 8.26557 5.40021 8.21367C5.13274 7.86073 4.81177 7.59602 4.43732 7.41955C4.06821 7.23789 3.64293 7.14706 3.16149 7.14706C2.64795 7.14706 2.17453 7.25086 1.74123 7.45848C1.31328 7.6609 0.922772 7.97232 0.569713 8.39273L1.2999 8.45502C1.39084 7.69204 1.61819 6.97837 1.98195 6.31401C2.35106 5.64446 2.8325 5.05796 3.42628 4.5545C4.02006 4.04585 4.70211 3.64879 5.47242 3.36332C6.24808 3.07266 7.09061 2.92734 8 2.92734C8.90405 2.92734 9.74123 3.07007 10.5115 3.35554C11.2872 3.641 11.9719 4.03806 12.5657 4.54671C13.1595 5.05017 13.6383 5.63668 14.002 6.30623C14.3711 6.97059 14.6011 7.68166 14.6921 8.43945L15.4223 8.37716C15.0692 7.96194 14.6787 7.65311 14.2508 7.45069C13.8228 7.24827 13.3521 7.14706 12.8385 7.14706C12.3571 7.14706 11.9291 7.23789 11.5547 7.41955C11.1802 7.59602 10.8592 7.86073 10.5918 8.21367C10.5597 8.26038 10.5249 8.26038 10.4875 8.21367C10.1933 7.86592 9.82414 7.59343 9.38014 7.39619C8.94149 7.19896 8.48145 7.10035 8 7.10035ZM6.11435 18C6.59579 18 7.02909 17.891 7.41424 17.673C7.7994 17.455 8.10431 17.1592 8.32899 16.7855C8.55366 16.4118 8.666 15.9888 8.666 15.5164V7.94118H7.334V15.5164C7.334 15.859 7.219 16.1393 6.98897 16.3573C6.7643 16.5753 6.47276 16.6843 6.11435 16.6843C5.76664 16.6843 5.48044 16.5753 5.25577 16.3573C5.0311 16.1393 4.91876 15.859 4.91876 15.5164C4.91876 15.2933 4.85457 15.1116 4.72618 14.9715C4.5978 14.8313 4.43197 14.7612 4.22869 14.7612C4.03076 14.7612 3.87028 14.8313 3.74725 14.9715C3.62421 15.1116 3.56269 15.2933 3.56269 15.5164C3.56269 15.9888 3.67503 16.4118 3.8997 16.7855C4.12437 17.1592 4.42929 17.455 4.81444 17.673C5.1996 17.891 5.6329 18 6.11435 18Z"
		fill="currentColor"
	/>
</svg>
