<svg
	color="rgb(var(--foreground, 0, 0, 0))"
	viewBox="0 0 16 18"
	fill="none"
	xmlns="http://www.w3.org/2000/svg"
>
	<path
		d="M7.334 2.32785H8.666V0.653979C8.666 0.472318 8.6018 0.319204 8.47341 0.194637C8.34503 0.0648789 8.18722 0 7.99999 0C7.81277 0 7.65496 0.0648789 7.52657 0.194637C7.39819 0.319204 7.334 0.472318 7.334 0.653979V2.32785ZM0.666014 9.87976C0.7837 9.87976 0.896026 9.84602 1.00301 9.77855C1.11535 9.70588 1.21432 9.60467 1.29991 9.47491C1.56738 9.08045 1.84822 8.79758 2.14244 8.6263C2.442 8.44983 2.78169 8.36159 3.16149 8.36159C3.53595 8.36159 3.85691 8.44983 4.12438 8.6263C4.39185 8.79758 4.6406 9.07785 4.87062 9.46713C5.03645 9.74221 5.22635 9.87976 5.44033 9.87976C5.665 9.87976 5.8549 9.74221 6.01003 9.46713C6.22401 9.109 6.51287 8.82872 6.87663 8.6263C7.24039 8.41869 7.61484 8.31488 7.99999 8.31488C8.38515 8.31488 8.75961 8.41869 9.12337 8.6263C9.48713 8.82872 9.776 9.109 9.98997 9.46713C10.1398 9.74221 10.3297 9.87976 10.5597 9.87976C10.7737 9.87976 10.9609 9.74221 11.1214 9.46713C11.3567 9.07785 11.6082 8.79758 11.8756 8.6263C12.1431 8.44983 12.4641 8.36159 12.8385 8.36159C13.2183 8.36159 13.5553 8.44983 13.8495 8.6263C14.1491 8.79758 14.43 9.08045 14.6921 9.47491C14.783 9.60467 14.882 9.70588 14.989 9.77855C15.1013 9.84602 15.2163 9.87976 15.334 9.87976C15.5319 9.87976 15.6924 9.80969 15.8154 9.66955C15.9385 9.52941 16 9.35294 16 9.14014C16 8.52249 15.8957 7.8737 15.6871 7.19377C15.4838 6.50865 15.1735 5.8417 14.7563 5.19291C14.3444 4.54412 13.8201 3.95761 13.1836 3.43339C12.547 2.90917 11.7981 2.49135 10.9368 2.17993C10.0756 1.86851 9.09662 1.7128 7.99999 1.7128C6.90337 1.7128 5.92177 1.86851 5.05517 2.17993C4.19392 2.49135 3.445 2.90917 2.80843 3.43339C2.1772 3.95761 1.65297 4.54412 1.23572 5.19291C0.818467 5.8417 0.508196 6.50865 0.30492 7.19377C0.101643 7.8737 0 8.52249 0 9.14014C0 9.35294 0.058845 9.52941 0.176531 9.66955C0.299567 9.80969 0.462738 9.87976 0.666014 9.87976ZM6.11434 18C6.59578 18 7.02909 17.891 7.41424 17.673C7.7994 17.455 8.10431 17.1592 8.32899 16.7855C8.55366 16.4118 8.666 15.9888 8.666 15.5164V7.94118H7.334V15.5164C7.334 15.859 7.21899 16.1393 6.98897 16.3573C6.76429 16.5753 6.47275 16.6843 6.11434 16.6843C5.76663 16.6843 5.48044 16.5753 5.25576 16.3573C5.03109 16.1393 4.91876 15.859 4.91876 15.5164C4.91876 15.2933 4.85456 15.1116 4.72618 14.9715C4.59779 14.8313 4.43196 14.7612 4.22869 14.7612C4.03076 14.7612 3.87028 14.8313 3.74724 14.9715C3.62421 15.1116 3.5627 15.2933 3.5627 15.5164C3.5627 15.9888 3.67504 16.4118 3.89971 16.7855C4.12438 17.1592 4.4293 17.455 4.81446 17.673C5.19961 17.891 5.6329 18 6.11434 18Z"
		fill="currentColor"
	/>
</svg>
