<svg color="rgb(var(--foreground, 0, 0, 0))" viewBox="0 0 18 13" fill="none">
	<path
		d="M2.90222 9.94803C2.90222 9.79271 2.95698 9.66069 3.06649 9.55197C3.17601 9.43807 3.3116 9.38112 3.47327 9.38112H14.5267C14.6884 9.38112 14.824 9.43807 14.9335 9.55197C15.043 9.66069 15.0978 9.79271 15.0978 9.94803C15.0978 10.1033 15.043 10.238 14.9335 10.3519C14.824 10.4658 14.6884 10.5227 14.5267 10.5227H3.47327C3.3116 10.5227 3.17601 10.4658 3.06649 10.3519C2.95698 10.238 2.90222 10.1033 2.90222 9.94803ZM3.09778 13H14.9022C15.5124 13 16.0495 12.8706 16.5137 12.6117C16.983 12.3528 17.3481 11.9956 17.6089 11.54C17.8696 11.0793 18 10.5486 18 9.94803C18 9.34747 17.8696 8.81681 17.6089 8.35603C17.3481 7.89526 16.983 7.53544 16.5137 7.27658C16.0495 7.01772 15.5124 6.88829 14.9022 6.88829H3.09778C2.48761 6.88829 1.94785 7.01772 1.47849 7.27658C1.01434 7.53544 0.651891 7.89526 0.391134 8.35603C0.130378 8.81681 0 9.34747 0 9.94803C0 10.5486 0.130378 11.0793 0.391134 11.54C0.651891 11.9956 1.01434 12.3528 1.47849 12.6117C1.94785 12.8706 2.48761 13 3.09778 13ZM3.09778 5.82437H14.9022C15.6271 5.82437 16.2894 5.9771 16.8892 6.28256L15.0196 1.80167C14.7744 1.21665 14.4042 0.771406 13.9087 0.46595C13.4185 0.155317 12.8344 0 12.1565 0H5.84355C5.1708 0 4.5867 0.155317 4.09126 0.46595C3.59583 0.771406 3.22555 1.21665 2.98044 1.80167L1.103 6.28256C1.39505 6.13759 1.70795 6.02628 2.04172 5.94863C2.37549 5.86579 2.72751 5.82437 3.09778 5.82437Z"
		fill="currentColor"
	/>
</svg>
