<svg color="rgb(var(--foreground, 0, 0, 0))" viewBox="0 0 18 13" fill="none">
	<path
		d="M3.24015 9.56532C3.24015 9.71256 3.29098 9.83948 3.39263 9.9461C3.49936 10.0527 3.62643 10.106 3.77382 10.106H14.2262C14.3736 10.106 14.4981 10.0527 14.5997 9.9461C14.7065 9.83948 14.7598 9.71256 14.7598 9.56532C14.7598 9.41808 14.7065 9.29369 14.5997 9.19215C14.4981 9.08553 14.3736 9.03222 14.2262 9.03222H3.77382C3.62643 9.03222 3.49936 9.08553 3.39263 9.19215C3.29098 9.29369 3.24015 9.41808 3.24015 9.56532ZM0 9.56532C0 10.2101 0.155019 10.794 0.465057 11.3169C0.775095 11.8348 1.20203 12.2435 1.74587 12.5431C2.28971 12.8477 2.91487 13 3.62135 13H14.3787C15.0851 13 15.7103 12.8477 16.2541 12.5431C16.798 12.2435 17.2249 11.8348 17.5349 11.3169C17.845 10.794 18 10.2101 18 9.56532C18 9.281 17.9619 9.00937 17.8856 8.75044C17.8145 8.49151 17.7306 8.24273 17.6341 8.0041L15.0648 1.843C14.8107 1.23374 14.432 0.774263 13.9288 0.464558C13.4307 0.154853 12.8412 0 12.1601 0H5.8399C5.15883 0 4.56671 0.154853 4.06353 0.464558C3.56544 0.774263 3.18933 1.23374 2.9352 1.843L0.358323 8.0041C0.261753 8.24273 0.177891 8.49151 0.106734 8.75044C0.0355781 9.00937 0 9.281 0 9.56532ZM1.22745 9.56532C1.22745 9.14899 1.32656 8.77329 1.52478 8.4382C1.723 8.1031 2.00254 7.83909 2.36341 7.64616C2.72427 7.45323 3.14358 7.35677 3.62135 7.35677H14.3787C14.8615 7.35677 15.2808 7.45323 15.6366 7.64616C15.9975 7.83909 16.277 8.1031 16.4752 8.4382C16.6734 8.77329 16.7726 9.14899 16.7726 9.56532C16.7726 10.0375 16.6734 10.4386 16.4752 10.7686C16.277 11.0935 15.9975 11.3423 15.6366 11.5149C15.2808 11.6876 14.8615 11.7739 14.3787 11.7739H3.62135C3.14358 11.7739 2.72427 11.6774 2.36341 11.4845C2.00254 11.2915 1.723 11.0301 1.52478 10.7001C1.32656 10.365 1.22745 9.98672 1.22745 9.56532ZM2.46252 6.32865L4.12452 2.15524C4.26684 1.79477 4.49047 1.52314 4.79543 1.34036C5.10038 1.15759 5.46887 1.0662 5.90089 1.0662H12.0991C12.5311 1.0662 12.8996 1.15759 13.2046 1.34036C13.5095 1.52314 13.7332 1.79477 13.8755 2.15524L15.5375 6.32865C15.3596 6.26264 15.1741 6.21441 14.9809 6.18395C14.7878 6.14841 14.587 6.13064 14.3787 6.13064H3.62135C3.41296 6.13064 3.2122 6.14841 3.01906 6.18395C2.82592 6.21441 2.64041 6.26264 2.46252 6.32865Z"
		fill="currentColor"
	/>
</svg>
