<svg color="rgb(var(--foreground, 0, 0, 0))" viewBox="0 0 16 17" fill="none">
	<path
		d="M4.99353 12.1975C4.78115 12.1975 4.62187 12.1468 4.51568 12.0453C4.4148 11.9385 4.36436 11.7756 4.36436 11.5566V5.4354C4.36436 5.22175 4.4148 5.06418 4.51568 4.96269C4.62187 4.85587 4.78115 4.80245 4.99353 4.80245H11.0941C11.3065 4.80245 11.4631 4.85587 11.564 4.96269C11.6702 5.06418 11.7232 5.22175 11.7232 5.4354V11.5566C11.7232 11.7756 11.6702 11.9385 11.564 12.0453C11.4631 12.1468 11.3065 12.1975 11.0941 12.1975H4.99353ZM5.64659 11.1079H10.4331C10.5711 11.1079 10.6401 11.0411 10.6401 10.9076V6.09239C10.6401 5.95886 10.5711 5.89209 10.4331 5.89209H5.64659C5.51385 5.89209 5.44749 5.95886 5.44749 6.09239V10.9076C5.44749 11.0411 5.51385 11.1079 5.64659 11.1079ZM2.12643 15.0899H13.9612C14.1523 15.0899 14.3063 15.0311 14.4231 14.9136C14.5399 14.8015 14.5983 14.6492 14.5983 14.4569V2.54306C14.5983 2.35078 14.5399 2.19588 14.4231 2.07837C14.3063 1.96086 14.1523 1.9021 13.9612 1.9021H2.12643C1.93529 1.9021 1.78132 1.96086 1.66451 2.07837C1.5477 2.19588 1.4893 2.35078 1.4893 2.54306V14.4569C1.4893 14.6492 1.5477 14.8015 1.66451 14.9136C1.78132 15.0311 1.93529 15.0899 2.12643 15.0899ZM6.0448 13.9602H4.76257V15.859C4.76257 16.0513 4.82097 16.2062 4.93778 16.3237C5.05459 16.4412 5.20856 16.5 5.3997 16.5C5.59084 16.5 5.74481 16.4412 5.86162 16.3237C5.98374 16.2062 6.0448 16.0513 6.0448 15.859V13.9602ZM8.68094 13.9602H7.39871V15.859C7.39871 16.0513 7.45711 16.2062 7.57392 16.3237C7.69603 16.4412 7.85266 16.5 8.0438 16.5C8.23494 16.5 8.38892 16.4412 8.50572 16.3237C8.62253 16.2062 8.68094 16.0513 8.68094 15.859V13.9602ZM11.3489 13.9602H10.0667V15.859C10.0667 16.0513 10.1251 16.2062 10.2419 16.3237C10.3587 16.4412 10.5127 16.5 10.7038 16.5C10.895 16.5 11.0489 16.4412 11.1658 16.3237C11.2879 16.2062 11.3489 16.0513 11.3489 15.859V13.9602ZM13.4754 10.499V11.7889H15.3549C15.546 11.7889 15.7 11.7302 15.8168 11.6127C15.9389 11.4898 16 11.3322 16 11.14C16 10.9477 15.9389 10.7928 15.8168 10.6753C15.7 10.5578 15.546 10.499 15.3549 10.499H13.4754ZM13.4754 7.83901V9.12894H15.3549C15.546 9.12894 15.7 9.07019 15.8168 8.95268C15.9389 8.83517 16 8.68027 16 8.48798C16 8.29569 15.9389 8.14079 15.8168 8.02328C15.7 7.90043 15.546 7.83901 15.3549 7.83901H13.4754ZM13.4754 5.18703V6.47696H15.3549C15.546 6.47696 15.7 6.41821 15.8168 6.3007C15.9389 6.17785 16 6.02028 16 5.82799C16 5.6357 15.9389 5.4808 15.8168 5.36329C15.7 5.24578 15.546 5.18703 15.3549 5.18703H13.4754ZM10.0428 3.0318H11.325V1.14096C11.325 0.948673 11.264 0.793774 11.1419 0.676264C11.0251 0.558755 10.8711 0.5 10.6799 0.5C10.4888 0.5 10.3348 0.558755 10.218 0.676264C10.1012 0.793774 10.0428 0.948673 10.0428 1.14096V3.0318ZM7.39871 3.0318H8.68094V1.14096C8.68094 0.948673 8.62253 0.793774 8.50572 0.676264C8.38892 0.558755 8.23494 0.5 8.0438 0.5C7.85266 0.5 7.69603 0.558755 7.57392 0.676264C7.45711 0.793774 7.39871 0.948673 7.39871 1.14096V3.0318ZM4.76257 3.0318H6.0448V1.14096C6.0448 0.948673 5.98374 0.793774 5.86162 0.676264C5.74481 0.558755 5.59084 0.5 5.3997 0.5C5.20856 0.5 5.05459 0.558755 4.93778 0.676264C4.82097 0.793774 4.76257 0.948673 4.76257 1.14096V3.0318ZM2.61224 6.48498V5.19504H0.637133C0.445993 5.19504 0.292019 5.2538 0.175212 5.37131C0.0584038 5.48882 0 5.64372 0 5.836C0 6.02829 0.0584038 6.18586 0.175212 6.30871C0.292019 6.42622 0.445993 6.48498 0.637133 6.48498H2.61224ZM2.61224 9.13696V7.84702H0.637133C0.445993 7.84702 0.292019 7.90845 0.175212 8.0313C0.0584038 8.14881 0 8.30371 0 8.49599C0 8.68828 0.0584038 8.84318 0.175212 8.96069C0.292019 9.0782 0.445993 9.13696 0.637133 9.13696H2.61224ZM2.61224 11.7969V10.507H0.637133C0.445993 10.507 0.292019 10.5658 0.175212 10.6833C0.0584038 10.8008 0 10.9557 0 11.148C0 11.3403 0.0584038 11.4978 0.175212 11.6207C0.292019 11.7382 0.445993 11.7969 0.637133 11.7969H2.61224Z"
		fill="currentColor"
	/>
</svg>
