<svg color="rgb(var(--foreground, 0, 0, 0))" viewBox="0 0 13 17" fill="none">
	<path
		d="M0 9.84029V8.51898C0.796124 9.20242 1.72829 9.70614 2.79651 10.0301C3.86473 10.3541 5.09923 10.5161 6.5 10.5161C7.90077 10.5161 9.13275 10.3541 10.1959 10.0301C11.2641 9.70614 12.1988 9.20242 13 8.51898V9.84029C12.1585 10.463 11.2037 10.9237 10.1355 11.2224C9.07229 11.516 7.86047 11.6628 6.5 11.6628C5.13953 11.6628 3.92519 11.516 2.85698 11.2224C1.7938 10.9237 0.841473 10.463 0 9.84029ZM0 12.9234C0 13.4448 0.153682 13.9232 0.461047 14.3586C0.77345 14.799 1.21686 15.1787 1.79128 15.4976C2.37074 15.8166 3.05601 16.0621 3.84709 16.2342C4.64322 16.4114 5.52752 16.5 6.5 16.5C7.46744 16.5 8.34922 16.4114 9.14535 16.2342C9.94147 16.0621 10.6267 15.8166 11.2012 15.4976C11.7756 15.1787 12.219 14.799 12.5314 14.3586C12.8438 13.9232 13 13.4448 13 12.9234V3.73493C13 3.09706 12.7279 2.53512 12.1837 2.04912C11.6446 1.56312 10.8862 1.18344 9.90872 0.910062C8.93624 0.636687 7.8 0.5 6.5 0.5C5.2 0.5 4.06124 0.636687 3.08372 0.910062C2.11124 1.18344 1.35291 1.56312 0.808721 2.04912C0.269574 2.53512 0 3.09706 0 3.73493V12.9234ZM1.21686 3.73493C1.21686 3.30968 1.43605 2.93506 1.87442 2.61106C2.31783 2.28706 2.93508 2.03393 3.72616 1.85168C4.51725 1.66437 5.44186 1.57072 6.5 1.57072C7.55814 1.57072 8.48275 1.66437 9.27384 1.85168C10.0649 2.03393 10.6797 2.28706 11.118 2.61106C11.5614 2.93506 11.7831 3.30968 11.7831 3.73493C11.7831 4.13993 11.5614 4.49937 11.118 4.81324C10.6746 5.12712 10.0548 5.37265 9.25872 5.54983C8.46764 5.72702 7.54806 5.81561 6.5 5.81561C5.45194 5.81561 4.52985 5.72702 3.73372 5.54983C2.94264 5.37265 2.32539 5.12712 1.88198 4.81324C1.43857 4.49937 1.21686 4.13993 1.21686 3.73493Z"
		fill="currentColor"
	/>
</svg>
