<svg color="rgb(var(--foreground, 0, 0, 0))" viewBox="0 0 13 17" fill="none">
	<path
		d="M6.5 11.678C7.36163 11.678 8.19806 11.597 9.0093 11.435C9.82558 11.2679 10.5638 11.0401 11.2238 10.7515C11.889 10.4579 12.4231 10.1213 12.8262 9.74158L12.2593 8.83033C11.8764 9.16445 11.38 9.46061 10.7703 9.71879C10.1607 9.97192 9.48798 10.1719 8.75233 10.3187C8.01667 10.4604 7.26589 10.5313 6.5 10.5313C5.73411 10.5313 4.98081 10.4604 4.24012 10.3187C3.50446 10.1719 2.83178 9.97192 2.22209 9.71879C1.61744 9.46061 1.12364 9.16445 0.740698 8.83033L0.173837 9.74158C0.576938 10.1213 1.10853 10.4579 1.7686 10.7515C2.42868 11.0401 3.16686 11.2679 3.98314 11.435C4.79942 11.597 5.63837 11.678 6.5 11.678ZM6.5 16.5C7.8 16.5 8.93624 16.3481 9.90872 16.0444C10.8862 15.7406 11.6446 15.3179 12.1837 14.7762C12.7279 14.2396 13 13.622 13 12.9234V3.73493H11.7831V12.9234C11.7831 13.3891 11.5614 13.8042 11.118 14.1687C10.6797 14.5383 10.0649 14.8268 9.27384 15.0344C8.48275 15.247 7.55814 15.3533 6.5 15.3533C5.44186 15.3533 4.51725 15.247 3.72616 15.0344C2.93508 14.8268 2.31783 14.5383 1.87442 14.1687C1.43605 13.8042 1.21686 13.3891 1.21686 12.9234V3.73493H0V12.9234C0 13.622 0.269574 14.2396 0.808721 14.7762C1.35291 15.3179 2.11124 15.7406 3.08372 16.0444C4.06124 16.3481 5.2 16.5 6.5 16.5ZM6.5 6.96227C7.8 6.96227 8.93624 6.82558 9.90872 6.55221C10.8862 6.27883 11.6446 5.90168 12.1837 5.42074C12.7279 4.93474 13 4.3728 13 3.73493C13 3.09706 12.7279 2.53512 12.1837 2.04912C11.6446 1.56312 10.8862 1.18344 9.90872 0.910062C8.93624 0.636687 7.8 0.5 6.5 0.5C5.2 0.5 4.06124 0.636687 3.08372 0.910062C2.11124 1.18344 1.35291 1.56312 0.808721 2.04912C0.269574 2.53512 0 3.09706 0 3.73493C0 4.3728 0.269574 4.93474 0.808721 5.42074C1.35291 5.90168 2.11124 6.27883 3.08372 6.55221C4.06124 6.82558 5.2 6.96227 6.5 6.96227ZM6.5 5.81561C5.44186 5.81561 4.51725 5.72702 3.72616 5.54983C2.93508 5.37265 2.31783 5.12712 1.87442 4.81324C1.43605 4.49937 1.21686 4.13993 1.21686 3.73493C1.21686 3.30968 1.43605 2.93506 1.87442 2.61106C2.31783 2.28706 2.93508 2.03393 3.72616 1.85168C4.51725 1.66437 5.44186 1.57072 6.5 1.57072C7.55814 1.57072 8.48275 1.66437 9.27384 1.85168C10.0649 2.03393 10.6797 2.28706 11.118 2.61106C11.5614 2.93506 11.7831 3.30968 11.7831 3.73493C11.7831 4.13993 11.5614 4.49937 11.118 4.81324C10.6797 5.12712 10.0649 5.37265 9.27384 5.54983C8.48275 5.72702 7.55814 5.81561 6.5 5.81561Z"
		fill="currentColor"
	/>
</svg>
