<svg color="rgb(var(--foreground, 0, 0, 0))" viewBox="0 0 16 17" fill="none">
	<path
		d="M5.8902 16.1941C6.23007 16.2935 6.57516 16.3693 6.92549 16.4216C7.28105 16.4739 7.63922 16.5 8 16.5C9.09281 16.5 10.1203 16.2909 11.0824 15.8726C12.0497 15.4542 12.902 14.8765 13.6392 14.1392C14.3765 13.402 14.9542 12.5523 15.3726 11.5902C15.7909 10.6229 16 9.59281 16 8.5C16 8.13922 15.9739 7.78627 15.9216 7.44118C15.8745 7.09608 15.8039 6.75882 15.7098 6.42941L11.5373 7.77843C11.5895 8.01373 11.6157 8.25425 11.6157 8.5C11.6157 9.16928 11.4536 9.77843 11.1294 10.3275C10.8052 10.8712 10.3686 11.3078 9.81961 11.6373C9.27582 11.9614 8.6719 12.1235 8.00784 12.1235C7.73595 12.1235 7.47974 12.0948 7.23922 12.0373L5.8902 16.1941ZM15.4902 5.78627C15.3804 5.48824 15.2549 5.19804 15.1137 4.91569C14.9726 4.6281 14.8131 4.3536 14.6353 4.09216L11.1216 6.69608C11.1634 6.76928 11.2 6.84248 11.2314 6.91569C11.268 6.98889 11.2993 7.06471 11.3255 7.14314L15.4902 5.78627ZM14.2353 3.55098C13.7961 2.98627 13.2837 2.48954 12.698 2.06078C12.1124 1.6268 11.4771 1.28693 10.7922 1.04118L9.4353 5.22157C9.68628 5.32092 9.91895 5.44902 10.1333 5.60588C10.3529 5.76275 10.5464 5.94575 10.7137 6.1549L14.2353 3.55098ZM10.1569 0.821569C9.81176 0.716993 9.45882 0.638562 9.09804 0.586275C8.73726 0.528758 8.36863 0.5 7.99216 0.5C6.89935 0.5 5.86928 0.70915 4.90196 1.12745C3.93987 1.54575 3.0902 2.12353 2.35294 2.86078C1.62092 3.59804 1.04575 4.45033 0.627451 5.41765C0.20915 6.37974 0 7.40719 0 8.5C0 8.87647 0.0287582 9.25033 0.0862745 9.62157C0.143791 9.98758 0.224837 10.3431 0.329412 10.6882L4.49412 9.33137C4.42614 9.06471 4.39216 8.78758 4.39216 8.5C4.39216 7.84118 4.55686 7.23987 4.88627 6.69608C5.21569 6.15229 5.6549 5.7183 6.20392 5.39412C6.75294 5.06993 7.35686 4.90784 8.01569 4.90784C8.15164 4.90784 8.28235 4.91569 8.40784 4.93137C8.53856 4.94706 8.66667 4.97059 8.79216 5.00196L10.1569 0.821569ZM0.556863 11.3235C0.666667 11.6163 0.792157 11.9013 0.933333 12.1784C1.07974 12.4556 1.23922 12.7248 1.41176 12.9863L4.92549 10.3902C4.85229 10.2647 4.78431 10.1235 4.72157 9.96667L0.556863 11.3235ZM1.82745 13.5275C2.26667 14.0817 2.77647 14.568 3.35686 14.9863C3.94248 15.4098 4.57255 15.7392 5.24706 15.9745L6.59608 11.8255C6.35556 11.7314 6.12811 11.6085 5.91373 11.4569C5.69935 11.3052 5.51111 11.1301 5.34902 10.9314L1.82745 13.5275ZM8.00784 11.3235C8.52549 11.3235 8.99608 11.198 9.41961 10.9471C9.84837 10.6909 10.1882 10.3484 10.4392 9.91961C10.6902 9.49085 10.8157 9.01765 10.8157 8.5C10.8157 7.98758 10.6876 7.52222 10.4314 7.10392C10.1804 6.68039 9.84052 6.34314 9.41177 6.09216C8.98824 5.83595 8.52026 5.70784 8.00784 5.70784C7.49543 5.70784 7.02484 5.83595 6.59608 6.09216C6.16732 6.34314 5.82484 6.68039 5.56863 7.10392C5.31765 7.52745 5.19216 7.99281 5.19216 8.5C5.19216 9.02288 5.31765 9.49869 5.56863 9.92745C5.82484 10.351 6.16471 10.6909 6.58824 10.9471C7.01699 11.198 7.4902 11.3235 8.00784 11.3235ZM8.00784 10.4216C7.65752 10.4216 7.33595 10.3353 7.04314 10.1627C6.75556 9.9902 6.52549 9.76013 6.35294 9.47255C6.18039 9.18497 6.09412 8.86601 6.09412 8.51569C6.09412 8.16536 6.18039 7.84641 6.35294 7.55882C6.52549 7.27124 6.75556 7.04118 7.04314 6.86863C7.33595 6.69608 7.65752 6.6098 8.00784 6.6098C8.35294 6.6098 8.66928 6.69608 8.95686 6.86863C9.24967 7.04118 9.48235 7.27124 9.6549 7.55882C9.82745 7.84641 9.91373 8.16275 9.91373 8.50784C9.91373 8.85817 9.82745 9.17974 9.6549 9.47255C9.48235 9.76013 9.24967 9.9902 8.95686 10.1627C8.66928 10.3353 8.35294 10.4216 8.00784 10.4216ZM8.00784 9.55098C8.2902 9.55621 8.53072 9.45686 8.72941 9.25294C8.93333 9.04379 9.03529 8.79543 9.03529 8.50784C9.03529 8.22549 8.93333 7.98497 8.72941 7.78627C8.53072 7.58235 8.29281 7.48039 8.01569 7.48039C7.72288 7.48039 7.47451 7.58235 7.27059 7.78627C7.0719 7.9902 6.97255 8.23072 6.97255 8.50784C6.97255 8.79543 7.0719 9.04118 7.27059 9.2451C7.47451 9.44379 7.72026 9.54575 8.00784 9.55098Z"
		fill="currentColor"
	/>
</svg>
