<svg color="rgb(var(--foreground, 0, 0, 0))" viewBox="0 0 14 15" fill="none">
	<path
		d="M0 12.1426C0 12.9284 0.196332 13.5165 0.588997 13.9068C0.986695 14.3023 1.58073 14.5 2.37109 14.5H11.6289C12.4193 14.5 13.0108 14.3023 13.4035 13.9068C13.8012 13.5165 14 12.9284 14 12.1426V2.85741C14 2.07161 13.8012 1.48352 13.4035 1.09316C13.0108 0.697719 12.4193 0.5 11.6289 0.5H2.37109C1.58073 0.5 0.986695 0.697719 0.588997 1.09316C0.196332 1.48352 0 2.07161 0 2.85741V12.1426ZM1.21575 12.0817V2.91825C1.21575 2.52281 1.31643 2.22624 1.5178 2.02852C1.71917 1.82573 2.00863 1.72433 2.38619 1.72433H3.10356V2.75856C3.10356 2.89037 3.14635 3.0019 3.23193 3.09316C3.31751 3.17934 3.42575 3.22243 3.55663 3.22243C3.68752 3.22243 3.79576 3.17934 3.88134 3.09316C3.97195 3.0019 4.01726 2.89037 4.01726 2.75856V1.72433H5.39914V2.75856C5.39914 2.89037 5.44193 3.0019 5.52751 3.09316C5.61812 3.17934 5.72887 3.22243 5.85976 3.22243C5.98562 3.22243 6.09133 3.17934 6.17691 3.09316C6.26753 3.0019 6.31284 2.89037 6.31284 2.75856V1.72433H7.70227V2.75856C7.70227 2.89037 7.74506 3.0019 7.83064 3.09316C7.92125 3.17934 8.02949 3.22243 8.15534 3.22243C8.28623 3.22243 8.39446 3.17934 8.48004 3.09316C8.57066 3.0019 8.61597 2.89037 8.61597 2.75856V1.72433H9.99784V2.75856C9.99784 2.89037 10.0406 3.0019 10.1262 3.09316C10.2168 3.17934 10.3276 3.22243 10.4585 3.22243C10.5843 3.22243 10.69 3.17934 10.7756 3.09316C10.8662 3.0019 10.9115 2.89037 10.9115 2.75856V1.72433H11.6063C11.9838 1.72433 12.2733 1.82573 12.4746 2.02852C12.6811 2.22624 12.7843 2.52281 12.7843 2.91825V12.0817C12.7843 12.4772 12.6811 12.7763 12.4746 12.9791C12.2733 13.1768 11.9838 13.2757 11.6063 13.2757H10.9115V12.2414C10.9115 12.1096 10.8662 12.0006 10.7756 11.9144C10.69 11.8232 10.5843 11.7776 10.4585 11.7776C10.3276 11.7776 10.2168 11.8232 10.1262 11.9144C10.0406 12.0006 9.99784 12.1096 9.99784 12.2414V13.2757H8.61597V12.2414C8.61597 12.1096 8.57066 12.0006 8.48004 11.9144C8.39446 11.8232 8.28623 11.7776 8.15534 11.7776C8.02949 11.7776 7.92125 11.8232 7.83064 11.9144C7.74506 12.0006 7.70227 12.1096 7.70227 12.2414V13.2757H6.31284V12.2414C6.31284 12.1096 6.26753 12.0006 6.17691 11.9144C6.09133 11.8232 5.98562 11.7776 5.85976 11.7776C5.72887 11.7776 5.61812 11.8232 5.52751 11.9144C5.44193 12.0006 5.39914 12.1096 5.39914 12.2414V13.2757H4.01726V12.2414C4.01726 12.1096 3.97195 12.0006 3.88134 11.9144C3.79576 11.8232 3.68752 11.7776 3.55663 11.7776C3.42575 11.7776 3.31751 11.8232 3.23193 11.9144C3.14635 12.0006 3.10356 12.1096 3.10356 12.2414V13.2757H2.38619C2.00863 13.2757 1.71917 13.1768 1.5178 12.9791C1.31643 12.7763 1.21575 12.4772 1.21575 12.0817ZM3.27724 9.73194C3.27724 9.92966 3.33765 10.0894 3.45847 10.211C3.58432 10.3327 3.74793 10.3935 3.9493 10.3935H10.0507C10.2521 10.3935 10.4132 10.3327 10.534 10.211C10.6598 10.0894 10.7228 9.92966 10.7228 9.73194V5.26806C10.7228 5.06527 10.6598 4.90558 10.534 4.78897C10.4132 4.6673 10.2521 4.60646 10.0507 4.60646H3.9493C3.74793 4.60646 3.58432 4.6673 3.45847 4.78897C3.33765 4.90558 3.27724 5.06527 3.27724 5.26806V9.73194Z"
		fill="currentColor"
	/>
</svg>
