<svg color="rgb(var(--foreground, 0, 0, 0))" viewBox="0 0 18 13" fill="none">
	<path
		d="M3.09778 13H14.9022C15.5124 13 16.0495 12.8706 16.5137 12.6117C16.983 12.3528 17.3481 11.9956 17.6089 11.54C17.8696 11.0793 18 10.5486 18 9.94803C18 9.34747 17.8696 8.81681 17.6089 8.35603C17.3481 7.89526 16.983 7.53544 16.5137 7.27658C16.0495 7.01772 15.5124 6.88829 14.9022 6.88829H3.09778C2.48761 6.88829 1.94785 7.01772 1.47849 7.27658C1.01434 7.53544 0.651891 7.89526 0.391134 8.35603C0.130378 8.81681 0 9.34747 0 9.94803C0 10.5486 0.130378 11.0793 0.391134 11.54C0.651891 11.9956 1.01434 12.3528 1.47849 12.6117C1.94785 12.8706 2.48761 13 3.09778 13ZM3.09778 5.82437H14.9022C15.6271 5.82437 16.2894 5.9771 16.8892 6.28256L15.0196 1.80167C14.7744 1.21665 14.4042 0.771406 13.9087 0.46595C13.4185 0.155317 12.8344 0 12.1565 0H5.84355C5.1708 0 4.5867 0.155317 4.09126 0.46595C3.59583 0.771406 3.22555 1.21665 2.98044 1.80167L1.103 6.28256C1.39505 6.13759 1.70795 6.02628 2.04172 5.94863C2.37549 5.86579 2.72751 5.82437 3.09778 5.82437ZM13.7758 9.94803C13.7758 9.68399 13.8748 9.4536 14.073 9.25687C14.2764 9.05496 14.5163 8.954 14.7927 8.954C15.0587 8.954 15.2907 9.05496 15.4889 9.25687C15.6923 9.4536 15.794 9.68399 15.794 9.94803C15.794 10.2276 15.6923 10.4632 15.4889 10.6547C15.2907 10.8463 15.0587 10.9421 14.7927 10.9421C14.5163 10.9472 14.2764 10.854 14.073 10.6625C13.8748 10.4658 13.7758 10.2276 13.7758 9.94803Z"
		fill="currentColor"
	/>
</svg>
