<svg color="rgb(var(--foreground, 0, 0, 0))" viewBox="0 0 18 13" fill="none">
	<path
		d="M0 9.56532C0 10.2101 0.155019 10.794 0.465058 11.3169C0.775096 11.8348 1.20202 12.2435 1.74586 12.5431C2.28969 12.8477 2.91485 13 3.62134 13H14.3787C15.0851 13 15.7103 12.8477 16.2541 12.5431C16.798 12.2435 17.2249 11.8348 17.5349 11.3169C17.845 10.794 18 10.2101 18 9.56532C18 9.281 17.9619 9.00937 17.8856 8.75044C17.8145 8.49151 17.7306 8.24273 17.6341 8.0041L15.0648 1.843C14.8107 1.23374 14.432 0.774263 13.9288 0.464558C13.4307 0.154853 12.8412 0 12.1601 0H5.83989C5.15882 0 4.5667 0.154853 4.06352 0.464558C3.56543 0.774263 3.18931 1.23374 2.93518 1.843L0.358323 8.0041C0.261754 8.24273 0.177891 8.49151 0.106735 8.75044C0.0355782 9.00937 0 9.281 0 9.56532ZM1.22743 9.56532C1.22743 9.14899 1.32654 8.77329 1.52476 8.4382C1.72299 8.10311 2.00253 7.83909 2.36339 7.64616C2.72426 7.45323 3.14357 7.35677 3.62134 7.35677H14.3787C14.8615 7.35677 15.2808 7.45323 15.6366 7.64616C15.9975 7.83909 16.277 8.10311 16.4752 8.4382C16.6734 8.77329 16.7726 9.14899 16.7726 9.56532C16.7726 10.0375 16.6734 10.4386 16.4752 10.7686C16.277 11.0935 15.9975 11.3423 15.6366 11.5149C15.2808 11.6876 14.8615 11.7739 14.3787 11.7739H3.62134C3.14357 11.7739 2.72426 11.6774 2.36339 11.4845C2.00253 11.2915 1.72299 11.0301 1.52476 10.7001C1.32654 10.365 1.22743 9.98672 1.22743 9.56532ZM2.4625 6.32865L4.12451 2.15524C4.26682 1.79477 4.49046 1.52314 4.79541 1.34036C5.10037 1.15759 5.46886 1.0662 5.90088 1.0662H12.0991C12.5311 1.0662 12.8996 1.15759 13.2046 1.34036C13.5095 1.52314 13.7332 1.79477 13.8755 2.15524L15.5375 6.32865C15.3596 6.26264 15.1741 6.21441 14.9809 6.18395C14.7878 6.14841 14.587 6.13064 14.3787 6.13064H3.62134C3.41295 6.13064 3.21219 6.14841 3.01905 6.18395C2.82591 6.21441 2.64039 6.26264 2.4625 6.32865ZM13.418 9.56532C13.418 9.83441 13.5121 10.0603 13.7001 10.2431C13.8882 10.4208 14.1144 10.5097 14.3787 10.5097C14.6328 10.5097 14.8539 10.4183 15.0419 10.2355C15.23 10.0527 15.324 9.82933 15.324 9.56532C15.324 9.31146 15.23 9.09061 15.0419 8.90275C14.8539 8.7149 14.6328 8.62097 14.3787 8.62097C14.1144 8.62097 13.8882 8.7149 13.7001 8.90275C13.5121 9.09061 13.418 9.31146 13.418 9.56532Z"
		fill="currentColor"
	/>
</svg>
