<svg color="rgb(var(--foreground, 0, 0, 0))" viewBox="0 0 18 13" fill="none">
	<path
		d="M6.82338 10.3497C6.82338 10.4665 6.86404 10.5681 6.94536 10.6544C7.02668 10.7356 7.12834 10.7762 7.25032 10.7762C7.36722 10.7762 7.46633 10.7356 7.54765 10.6544C7.62897 10.5681 7.66963 10.4665 7.66963 10.3497V8.77329C7.66963 8.65651 7.62897 8.55751 7.54765 8.47627C7.46633 8.39504 7.36722 8.35442 7.25032 8.35442C7.12834 8.35442 7.02668 8.39504 6.94536 8.47627C6.86404 8.55751 6.82338 8.65651 6.82338 8.77329V10.3497ZM8.56925 10.3497C8.56925 10.4665 8.60991 10.5681 8.69123 10.6544C8.77764 10.7356 8.88183 10.7762 9.00381 10.7762C9.12071 10.7762 9.21982 10.7356 9.30114 10.6544C9.38247 10.5681 9.42313 10.4665 9.42313 10.3497V8.77329C9.42313 8.65651 9.38247 8.55751 9.30114 8.47627C9.21982 8.39504 9.12071 8.35442 9.00381 8.35442C8.88183 8.35442 8.77764 8.39504 8.69123 8.47627C8.60991 8.55751 8.56925 8.65651 8.56925 8.77329V10.3497ZM10.3227 10.3497C10.3227 10.4665 10.3634 10.5681 10.4447 10.6544C10.5311 10.7356 10.6328 10.7762 10.7497 10.7762C10.8666 10.7762 10.9657 10.7356 11.047 10.6544C11.1334 10.5681 11.1766 10.4665 11.1766 10.3497V8.77329C11.1766 8.65651 11.1334 8.55751 11.047 8.47627C10.9657 8.39504 10.8666 8.35442 10.7497 8.35442C10.6328 8.35442 10.5311 8.39504 10.4447 8.47627C10.3634 8.55751 10.3227 8.65651 10.3227 8.77329V10.3497ZM12.0762 10.3497C12.0762 10.4665 12.1169 10.5681 12.1982 10.6544C12.2795 10.7356 12.3812 10.7762 12.5032 10.7762C12.6201 10.7762 12.7192 10.7356 12.8005 10.6544C12.8818 10.5681 12.9225 10.4665 12.9225 10.3497V8.77329C12.9225 8.65651 12.8818 8.55751 12.8005 8.47627C12.7192 8.39504 12.6201 8.35442 12.5032 8.35442C12.3812 8.35442 12.2795 8.39504 12.1982 8.47627C12.1169 8.55751 12.0762 8.65651 12.0762 8.77329V10.3497ZM13.8297 10.3497C13.8297 10.4665 13.8704 10.5681 13.9517 10.6544C14.033 10.7356 14.1347 10.7762 14.2567 10.7762C14.3736 10.7762 14.4727 10.7356 14.554 10.6544C14.6353 10.5681 14.676 10.4665 14.676 10.3497V8.77329C14.676 8.65651 14.6353 8.55751 14.554 8.47627C14.4727 8.39504 14.3736 8.35442 14.2567 8.35442C14.1347 8.35442 14.033 8.39504 13.9517 8.47627C13.8704 8.55751 13.8297 8.65651 13.8297 8.77329V10.3497ZM0 9.56532C0 10.2101 0.155019 10.794 0.465057 11.3169C0.775095 11.8348 1.20203 12.2435 1.74587 12.5431C2.28971 12.8477 2.91487 13 3.62135 13H14.3787C15.0851 13 15.7103 12.8477 16.2541 12.5431C16.798 12.2435 17.2249 11.8348 17.5349 11.3169C17.845 10.794 18 10.2101 18 9.56532C18 9.281 17.9619 9.00937 17.8856 8.75044C17.8145 8.49151 17.7306 8.24273 17.6341 8.0041L15.0648 1.843C14.8107 1.23374 14.432 0.774263 13.9288 0.464558C13.4307 0.154853 12.8412 0 12.1601 0H5.8399C5.15883 0 4.56671 0.154853 4.06353 0.464558C3.56544 0.774263 3.18933 1.23374 2.9352 1.843L0.358323 8.0041C0.261753 8.24273 0.177891 8.49151 0.106734 8.75044C0.0355781 9.00937 0 9.281 0 9.56532ZM1.22745 9.56532C1.22745 9.14899 1.32656 8.77329 1.52478 8.4382C1.723 8.1031 2.00254 7.83909 2.36341 7.64616C2.72427 7.45323 3.14358 7.35677 3.62135 7.35677H14.3787C14.8615 7.35677 15.2808 7.45323 15.6366 7.64616C15.9975 7.83909 16.277 8.1031 16.4752 8.4382C16.6734 8.77329 16.7726 9.14899 16.7726 9.56532C16.7726 10.0375 16.6734 10.4386 16.4752 10.7686C16.277 11.0935 15.9975 11.3423 15.6366 11.5149C15.2808 11.6876 14.8615 11.7739 14.3787 11.7739H3.62135C3.14358 11.7739 2.72427 11.6774 2.36341 11.4845C2.00254 11.2915 1.723 11.0301 1.52478 10.7001C1.32656 10.365 1.22745 9.98672 1.22745 9.56532ZM2.46252 6.32865L4.12452 2.15524C4.26684 1.79477 4.49047 1.52314 4.79543 1.34036C5.10038 1.15759 5.46887 1.0662 5.90089 1.0662H12.0991C12.5311 1.0662 12.8996 1.15759 13.2046 1.34036C13.5095 1.52314 13.7332 1.79477 13.8755 2.15524L15.5375 6.32865C15.3596 6.26264 15.1741 6.21441 14.9809 6.18395C14.7878 6.14841 14.587 6.13064 14.3787 6.13064H3.62135C3.41296 6.13064 3.2122 6.14841 3.01906 6.18395C2.82592 6.21441 2.64041 6.26264 2.46252 6.32865Z"
		fill="currentColor"
	/>
</svg>
