<svg color="rgb(var(--foreground, 0, 0, 0))" viewBox="0 0 18 13" fill="none">
	<path
		d="M6.69622 10.7712V9.11708C6.69622 8.99801 6.73794 8.89446 6.82138 8.80645C6.91004 8.71844 7.01956 8.67443 7.14993 8.67443C7.2751 8.67443 7.3794 8.71844 7.46284 8.80645C7.5515 8.89446 7.59583 8.99801 7.59583 9.11708V10.7712C7.59583 10.8955 7.5515 11.0016 7.46284 11.0896C7.3794 11.1776 7.2751 11.2216 7.14993 11.2216C7.01956 11.2216 6.91004 11.1776 6.82138 11.0896C6.73794 11.0016 6.69622 10.8955 6.69622 10.7712ZM8.54237 10.7712V9.11708C8.54237 8.99801 8.5867 8.89446 8.67536 8.80645C8.76402 8.71844 8.87353 8.67443 9.00391 8.67443C9.12386 8.67443 9.22816 8.71844 9.31682 8.80645C9.40548 8.89446 9.4498 8.99801 9.4498 9.11708V10.7712C9.4498 10.8955 9.40548 11.0016 9.31682 11.0896C9.22816 11.1776 9.12386 11.2216 9.00391 11.2216C8.87353 11.2216 8.76402 11.1776 8.67536 11.0896C8.5867 11.0016 8.54237 10.8955 8.54237 10.7712ZM10.3963 10.7712V9.11708C10.3963 8.99801 10.4407 8.89446 10.5293 8.80645C10.618 8.71844 10.7249 8.67443 10.8501 8.67443C10.9752 8.67443 11.0821 8.71844 11.1708 8.80645C11.2595 8.89446 11.3038 8.99801 11.3038 9.11708V10.7712C11.3038 10.8955 11.2595 11.0016 11.1708 11.0896C11.0821 11.1776 10.9752 11.2216 10.8501 11.2216C10.7249 11.2216 10.618 11.1776 10.5293 11.0896C10.4407 11.0016 10.3963 10.8955 10.3963 10.7712ZM12.2503 10.7712V9.11708C12.2503 8.99801 12.2947 8.89446 12.3833 8.80645C12.472 8.71844 12.5789 8.67443 12.704 8.67443C12.8292 8.67443 12.9335 8.71844 13.0169 8.80645C13.1056 8.89446 13.1499 8.99801 13.1499 9.11708V10.7712C13.1499 10.8955 13.1056 11.0016 13.0169 11.0896C12.9335 11.1776 12.8292 11.2216 12.704 11.2216C12.5789 11.2216 12.472 11.1776 12.3833 11.0896C12.2947 11.0016 12.2503 10.8955 12.2503 10.7712ZM14.1121 10.7712V9.11708C14.1121 8.99801 14.1538 8.89446 14.2373 8.80645C14.3259 8.71844 14.4355 8.67443 14.5658 8.67443C14.691 8.67443 14.7953 8.71844 14.8787 8.80645C14.9622 8.89446 15.0039 8.99801 15.0039 9.11708V10.7712C15.0039 10.8955 14.9622 11.0016 14.8787 11.0896C14.7953 11.1776 14.691 11.2216 14.5658 11.2216C14.4355 11.2216 14.3259 11.1776 14.2373 11.0896C14.1538 11.0016 14.1121 10.8955 14.1121 10.7712ZM3.09778 13H14.9022C15.5124 13 16.0495 12.8706 16.5137 12.6117C16.983 12.3528 17.3481 11.9956 17.6089 11.54C17.8696 11.0793 18 10.5486 18 9.94803C18 9.34747 17.8696 8.81681 17.6089 8.35603C17.3481 7.89526 16.983 7.53544 16.5137 7.27658C16.0495 7.01772 15.5124 6.88829 14.9022 6.88829H3.09778C2.48761 6.88829 1.94785 7.01772 1.47849 7.27658C1.01434 7.53544 0.651891 7.89526 0.391134 8.35603C0.130378 8.81681 0 9.34747 0 9.94803C0 10.5486 0.130378 11.0793 0.391134 11.54C0.651891 11.9956 1.01434 12.3528 1.47849 12.6117C1.94785 12.8706 2.48761 13 3.09778 13ZM3.09778 5.82437H14.9022C15.6271 5.82437 16.2894 5.9771 16.8892 6.28256L15.0196 1.80167C14.7744 1.21665 14.4042 0.771406 13.9087 0.46595C13.4185 0.155317 12.8344 0 12.1565 0H5.84355C5.1708 0 4.5867 0.155317 4.09126 0.46595C3.59583 0.771406 3.22555 1.21665 2.98044 1.80167L1.103 6.28256C1.39505 6.13759 1.70795 6.02628 2.04172 5.94863C2.37549 5.86579 2.72751 5.82437 3.09778 5.82437Z"
		fill="currentColor"
	/>
</svg>
