<svg color="rgb(var(--foreground, 0, 0, 0))" viewBox="0 0 17 15" fill="none">
	<path
		d="M2.4909 12.9221H14.5091C15.3394 12.9221 15.9608 12.7155 16.3733 12.3022C16.7911 11.8836 17 11.2583 17 10.4264V4.57361C17 3.74171 16.7911 3.11913 16.3733 2.70587C15.9608 2.28723 15.3394 2.07792 14.5091 2.07792H2.4909C1.6606 2.07792 1.03655 2.28723 0.618759 2.70587C0.206253 3.11913 0 3.74171 0 4.57361V10.4264C0 11.2583 0.206253 11.8836 0.618759 12.3022C1.03655 12.7155 1.6606 12.9221 2.4909 12.9221ZM2.73682 2.60926H4.014V1.14405C4.014 0.950834 3.95318 0.795189 3.83154 0.677113C3.7152 0.559038 3.56183 0.5 3.37144 0.5C3.18105 0.5 3.02769 0.559038 2.91134 0.677113C2.79499 0.795189 2.73682 0.950834 2.73682 1.14405V2.60926ZM5.29911 2.60926H6.57629V1.14405C6.57629 0.950834 6.51548 0.795189 6.39384 0.677113C6.27749 0.559038 6.12413 0.5 5.93374 0.5C5.74335 0.5 5.58998 0.559038 5.47364 0.677113C5.35729 0.795189 5.29911 0.950834 5.29911 1.14405V2.60926ZM7.86141 2.60926H9.13859V1.14405C9.13859 0.950834 9.07777 0.795189 8.95614 0.677113C8.83979 0.559038 8.68642 0.5 8.49603 0.5C8.30565 0.5 8.15228 0.559038 8.03593 0.677113C7.91958 0.795189 7.86141 0.950834 7.86141 1.14405V2.60926ZM10.4237 2.60926H11.7009V1.14405C11.7009 0.950834 11.6427 0.795189 11.5264 0.677113C11.41 0.559038 11.2566 0.5 11.0663 0.5C10.8759 0.5 10.7199 0.559038 10.5982 0.677113C10.4819 0.795189 10.4237 0.950834 10.4237 1.14405V2.60926ZM12.986 2.60926H14.2632V1.14405C14.2632 0.950834 14.205 0.795189 14.0887 0.677113C13.9723 0.559038 13.8189 0.5 13.6286 0.5C13.4382 0.5 13.2822 0.559038 13.1605 0.677113C13.0442 0.795189 12.986 0.950834 12.986 1.14405V2.60926ZM2.73682 12.4068V13.8479C2.73682 14.0411 2.79499 14.1968 2.91134 14.3148C3.02769 14.4383 3.18105 14.5 3.37144 14.5C3.56183 14.5 3.7152 14.4383 3.83154 14.3148C3.95318 14.1968 4.014 14.0411 4.014 13.8479V12.4068H2.73682ZM5.29911 12.4068V13.8479C5.29911 14.0411 5.35729 14.1968 5.47364 14.3148C5.58998 14.4383 5.74335 14.5 5.93374 14.5C6.12413 14.5 6.27749 14.4383 6.39384 14.3148C6.51548 14.1968 6.57629 14.0411 6.57629 13.8479V12.4068H5.29911ZM7.86141 12.4068V13.8479C7.86141 14.0411 7.91958 14.1968 8.03593 14.3148C8.15228 14.4383 8.30565 14.5 8.49603 14.5C8.68642 14.5 8.83979 14.4383 8.95614 14.3148C9.07777 14.1968 9.13859 14.0411 9.13859 13.8479V12.4068H7.86141ZM10.4237 12.4068V13.8479C10.4237 14.0411 10.4819 14.1968 10.5982 14.3148C10.7199 14.4383 10.8759 14.5 11.0663 14.5C11.2566 14.5 11.41 14.4383 11.5264 14.3148C11.6427 14.1968 11.7009 14.0411 11.7009 13.8479V12.4068H10.4237ZM12.986 12.4068V13.8479C12.986 14.0411 13.0442 14.1968 13.1605 14.3148C13.2822 14.4383 13.4382 14.5 13.6286 14.5C13.8189 14.5 13.9723 14.4383 14.0887 14.3148C14.205 14.1968 14.2632 14.0411 14.2632 13.8479V12.4068H12.986Z"
		fill="currentColor"
	/>
</svg>
