<svg color="rgb(var(--foreground, 0, 0, 0))" viewBox="0 0 13 17" fill="none">
	<path
		d="M2.39596 17H10.604C11.4027 17 12.0004 16.7938 12.3971 16.3815C12.799 15.9692 13 15.3481 13 14.5182V2.48974C13 1.66511 12.799 1.044 12.3971 0.626399C12.0004 0.2088 11.4027 0 10.604 0H5.44114C5.09076 0 4.79449 0.0502177 4.55232 0.150653C4.31015 0.245802 4.07828 0.40967 3.85672 0.642258L0.571938 4.0042C0.355529 4.2315 0.206104 4.46144 0.123662 4.69403C0.0412208 4.92662 0 5.2385 0 5.62966V14.5182C0 15.3428 0.198375 15.9613 0.595125 16.3736C0.997027 16.7912 1.5973 17 2.39596 17ZM2.45779 15.7234C2.05589 15.7234 1.75188 15.6177 1.54578 15.4063C1.34483 15.1948 1.24435 14.8909 1.24435 14.4944V5.72481C1.24435 5.47108 1.27012 5.26757 1.32164 5.11427C1.37317 4.96098 1.46591 4.81561 1.59988 4.67817L4.47503 1.69683C4.73781 1.41667 5.07531 1.27659 5.48751 1.27659H10.5422C10.9441 1.27659 11.2455 1.38495 11.4465 1.60168C11.6526 1.81841 11.7556 2.12236 11.7556 2.51353V14.4944C11.7556 14.8909 11.6526 15.1948 11.4465 15.4063C11.2455 15.6177 10.9467 15.7234 10.5499 15.7234H2.45779ZM4.75327 3.25886V5.75653C4.75327 5.89925 4.79964 6.02083 4.89239 6.12127C4.99029 6.21642 5.1088 6.26399 5.24792 6.26399C5.38189 6.26399 5.49524 6.21642 5.58799 6.12127C5.68074 6.02083 5.72711 5.89925 5.72711 5.75653V3.25886C5.72711 3.11085 5.68074 2.98927 5.58799 2.89412C5.49524 2.79897 5.38189 2.7514 5.24792 2.7514C5.1088 2.7514 4.99029 2.80162 4.89239 2.90205C4.79964 2.9972 4.75327 3.11614 4.75327 3.25886ZM6.33769 3.25886V5.75653C6.33769 5.89925 6.38664 6.02083 6.48454 6.12127C6.58244 6.21642 6.69838 6.26399 6.83234 6.26399C6.96631 6.26399 7.07967 6.21642 7.17241 6.12127C7.27031 6.02083 7.31926 5.89925 7.31926 5.75653V3.25886C7.31926 3.11614 7.27289 2.9972 7.18014 2.90205C7.0874 2.80162 6.97146 2.7514 6.83234 2.7514C6.69322 2.7514 6.57471 2.80162 6.47681 2.90205C6.38407 2.9972 6.33769 3.11614 6.33769 3.25886ZM7.92985 3.25886V5.75653C7.92985 5.89925 7.97622 6.02083 8.06897 6.12127C8.16687 6.21642 8.2828 6.26399 8.41677 6.26399C8.55073 6.26399 8.66409 6.21378 8.75684 6.11334C8.84958 6.0129 8.89596 5.89397 8.89596 5.75653V3.25886C8.89596 3.11085 8.84958 2.98927 8.75684 2.89412C8.66409 2.79897 8.55073 2.7514 8.41677 2.7514C8.27765 2.7514 8.16171 2.80162 8.06897 2.90205C7.97622 2.9972 7.92985 3.11614 7.92985 3.25886ZM9.522 3.25886V5.7486C9.522 5.89132 9.56837 6.0129 9.66112 6.11334C9.75902 6.21378 9.87495 6.26399 10.0089 6.26399C10.1429 6.26399 10.2562 6.21378 10.349 6.11334C10.4417 6.0129 10.4881 5.89132 10.4881 5.7486V3.25886C10.4881 3.11085 10.4417 2.98927 10.349 2.89412C10.2562 2.79897 10.1429 2.7514 10.0089 2.7514C9.8698 2.7514 9.75386 2.80162 9.66112 2.90205C9.56837 2.9972 9.522 3.11614 9.522 3.25886Z"
		fill="currentColor"
	/>
</svg>
