<svg color="rgb(var(--foreground, 0, 0, 0))" viewBox="0 0 13 17" fill="none">
	<path
		d="M2.39596 17H10.604C11.4027 17 12.0004 16.7938 12.3971 16.3815C12.799 15.9692 13 15.3481 13 14.5182V2.48974C13 1.66511 12.799 1.044 12.3971 0.626399C12.0004 0.2088 11.4027 0 10.604 0H5.44114C5.09076 0 4.79449 0.0502177 4.55232 0.150653C4.31015 0.245802 4.07828 0.40967 3.85672 0.642258L0.571938 4.0042C0.355529 4.2315 0.206104 4.46144 0.123662 4.69403C0.0412208 4.92662 0 5.2385 0 5.62966V14.5182C0 15.3428 0.198375 15.9613 0.595125 16.3736C0.997027 16.7912 1.5973 17 2.39596 17ZM4.93876 3.21922C4.93876 3.07121 4.98771 2.94698 5.08561 2.84655C5.18351 2.74611 5.3046 2.6959 5.44887 2.6959C5.58799 2.6959 5.70392 2.74611 5.79667 2.84655C5.89457 2.94698 5.94352 3.07121 5.94352 3.21922V5.79618C5.94352 5.9389 5.89457 6.06312 5.79667 6.16884C5.70392 6.26928 5.58799 6.3195 5.44887 6.3195C5.3046 6.3195 5.18351 6.26928 5.08561 6.16884C4.98771 6.06312 4.93876 5.9389 4.93876 5.79618V3.21922ZM6.56956 3.21922C6.56956 3.07121 6.61851 2.94698 6.71641 2.84655C6.81431 2.74611 6.93797 2.6959 7.0874 2.6959C7.22652 2.6959 7.34503 2.74611 7.44292 2.84655C7.54082 2.94698 7.58977 3.07121 7.58977 3.21922V5.79618C7.58977 5.9389 7.54082 6.06312 7.44292 6.16884C7.34503 6.26928 7.22652 6.3195 7.0874 6.3195C6.94312 6.3195 6.81946 6.26928 6.71641 6.16884C6.61851 6.06312 6.56956 5.9389 6.56956 5.79618V3.21922ZM8.21581 3.21922C8.21581 3.07121 8.26476 2.94698 8.36266 2.84655C8.46056 2.74611 8.57907 2.6959 8.71819 2.6959C8.86247 2.6959 8.98098 2.74611 9.07372 2.84655C9.17162 2.94698 9.22057 3.07121 9.22057 3.21922L9.2283 5.79618C9.2283 5.9389 9.17677 6.06312 9.07372 6.16884C8.97582 6.26928 8.85731 6.3195 8.71819 6.3195C8.57907 6.3195 8.46056 6.26928 8.36266 6.16884C8.26476 6.06312 8.21581 5.9389 8.21581 5.79618V3.21922ZM9.86207 3.21922C9.86207 3.07121 9.90844 2.94698 10.0012 2.84655C10.0991 2.74611 10.2202 2.6959 10.3644 2.6959C10.5036 2.6959 10.6195 2.74611 10.7122 2.84655C10.8101 2.94698 10.8591 3.07121 10.8591 3.21922V5.78825C10.8591 5.93626 10.8101 6.06312 10.7122 6.16884C10.6195 6.26928 10.5036 6.3195 10.3644 6.3195C10.2253 6.3195 10.1068 6.26928 10.0089 6.16884C9.91102 6.06312 9.86207 5.93626 9.86207 5.78825V3.21922Z"
		fill="currentColor"
	/>
</svg>
