<svg color="rgb(var(--foreground, 0, 0, 0))" viewBox="0 0 13 17" fill="none">
	<path
		d="M2.39596 17H10.604C11.4027 17 12.0004 16.7912 12.3971 16.3736C12.799 15.9613 13 15.3428 13 14.5182V5.62966C13 5.2385 12.9588 4.92662 12.8763 4.69403C12.7939 4.46144 12.6445 4.2315 12.4281 4.0042L9.14328 0.642258C8.92172 0.40967 8.68985 0.245802 8.44768 0.150653C8.20551 0.0502177 7.90924 0 7.55886 0H2.39596C1.5973 0 0.997027 0.2088 0.595125 0.626399C0.198375 1.044 0 1.66511 0 2.48974V14.5182C0 15.3481 0.198375 15.9692 0.595125 16.3815C0.997027 16.7938 1.5973 17 2.39596 17ZM2.81332 13.2813V10.3316H4.8151C4.89754 10.3316 4.93876 10.3713 4.93876 10.4506V14.3834H3.88763C3.55787 14.3834 3.29509 14.2856 3.09929 14.09C2.90864 13.8891 2.81332 13.6196 2.81332 13.2813ZM2.81332 9.45149V8.46035C2.81332 8.11676 2.90864 7.84717 3.09929 7.65159C3.29509 7.45072 3.55787 7.35028 3.88763 7.35028H7.27289V14.3834H5.79667V9.92724C5.79667 9.77923 5.75545 9.66294 5.67301 9.57836C5.59057 9.49378 5.47463 9.45149 5.32521 9.45149H2.81332ZM8.1308 14.3834V7.35028H9.13555C9.46017 7.35028 9.7178 7.45072 9.90844 7.65159C10.1042 7.84717 10.2021 8.11676 10.2021 8.46035V13.2813C10.2021 13.6196 10.1042 13.8891 9.90844 14.09C9.7178 14.2856 9.46017 14.3834 9.13555 14.3834H8.1308Z"
		fill="currentColor"
	/>
</svg>
