<svg color="rgb(var(--foreground, 0, 0, 0))" viewBox="0 0 13 17" fill="none">
	<path
		d="M0 14.5182C0 15.3481 0.198375 15.9692 0.595125 16.3815C0.997027 16.7938 1.5973 17 2.39596 17H10.604C11.4027 17 12.0004 16.7912 12.3971 16.3736C12.799 15.9613 13 15.3428 13 14.5182V5.62966C13 5.2385 12.9588 4.92662 12.8763 4.69403C12.7939 4.46144 12.6445 4.2315 12.4281 4.0042L9.14328 0.642258C8.92172 0.40967 8.68985 0.245802 8.44768 0.150653C8.20551 0.0502177 7.90924 0 7.55886 0H2.39596C1.5973 0 0.997027 0.2088 0.595125 0.626399C0.198375 1.044 0 1.66511 0 2.48974V14.5182ZM1.24435 14.4944V2.51353C1.24435 2.12236 1.34483 1.81841 1.54578 1.60168C1.75188 1.38495 2.05589 1.27659 2.45779 1.27659H7.51249C7.92469 1.27659 8.26219 1.41667 8.52497 1.69683L11.4001 4.67817C11.5341 4.81561 11.6268 4.96098 11.6784 5.11427C11.7299 5.26757 11.7556 5.47108 11.7556 5.72481V14.4944C11.7556 14.8909 11.6526 15.1948 11.4465 15.4063C11.2455 15.6177 10.9441 15.7234 10.5422 15.7234H2.45006C2.05331 15.7234 1.75188 15.6177 1.54578 15.4063C1.34483 15.1948 1.24435 14.8909 1.24435 14.4944ZM2.81332 13.2813C2.81332 13.6196 2.90864 13.8891 3.09929 14.09C3.29509 14.2856 3.55787 14.3834 3.88763 14.3834H4.93876V10.4506C4.93876 10.3713 4.89754 10.3316 4.8151 10.3316H2.81332V13.2813ZM2.81332 9.45149H5.32521C5.47463 9.45149 5.59057 9.49378 5.67301 9.57836C5.75545 9.66294 5.79667 9.77923 5.79667 9.92724V14.3834H7.27289V7.35028H3.88763C3.55787 7.35028 3.29509 7.45072 3.09929 7.65159C2.90864 7.84717 2.81332 8.11676 2.81332 8.46035V9.45149ZM8.1308 14.3834H9.13555C9.46017 14.3834 9.7178 14.2856 9.90844 14.09C10.1042 13.8891 10.2021 13.6196 10.2021 13.2813V8.46035C10.2021 8.11676 10.1042 7.84717 9.90844 7.65159C9.7178 7.45072 9.46017 7.35028 9.13555 7.35028H8.1308V14.3834Z"
		fill="currentColor"
	/>
</svg>
