<svg color="rgb(var(--foreground, 0, 0, 0))" viewBox="0 0 16 16" fill="none">
	<path
		d="M5.63698 16H10.363C10.69 16 10.9677 15.9649 11.1961 15.8948C11.4297 15.8247 11.6347 15.7196 11.8112 15.5794C11.9877 15.4446 12.1616 15.2828 12.3328 15.094L15.3538 11.632C15.5251 11.4378 15.6574 11.2572 15.7509 11.09C15.8443 10.9174 15.9092 10.7368 15.9455 10.548C15.9818 10.3539 16 10.122 16 9.85238V6.15571C16 5.88608 15.9818 5.6542 15.9455 5.46006C15.9092 5.26592 15.8443 5.08527 15.7509 4.9181C15.6574 4.75093 15.5251 4.57027 15.3538 4.37614L12.3328 0.914055C12.1616 0.719919 11.9877 0.555443 11.8112 0.420627C11.6347 0.285811 11.4297 0.18335 11.1961 0.113246C10.9677 0.0377486 10.69 0 10.363 0H5.63698C5.30478 0 5.02449 0.0377486 4.79611 0.113246C4.56772 0.18335 4.36529 0.285811 4.18881 0.420627C4.01233 0.555443 3.83844 0.719919 3.66715 0.914055L0.646229 4.37614C0.474939 4.57027 0.342579 4.75093 0.249148 4.9181C0.155718 5.08527 0.0908354 5.26592 0.0545012 5.46006C0.0181671 5.6542 0 5.88608 0 6.15571V9.85238C0 10.122 0.0181671 10.3539 0.0545012 10.548C0.0908354 10.7368 0.155718 10.9174 0.249148 11.09C0.342579 11.2572 0.474939 11.4378 0.646229 11.632L3.66715 15.094C3.83844 15.2828 4.01233 15.4446 4.18881 15.5794C4.36529 15.7196 4.56772 15.8247 4.79611 15.8948C5.02449 15.9649 5.30478 16 5.63698 16ZM6.05742 14.7058C5.79789 14.7058 5.58767 14.6842 5.42676 14.6411C5.27105 14.5979 5.1335 14.5278 5.01411 14.4307C4.89473 14.3337 4.76496 14.2042 4.62482 14.0425L1.81411 10.8473C1.66358 10.6694 1.56237 10.5076 1.51046 10.362C1.46375 10.2164 1.44039 9.99528 1.44039 9.69869V6.3094C1.44039 6.01281 1.46375 5.79171 1.51046 5.64611C1.56237 5.50051 1.66358 5.33873 1.81411 5.16077L4.62482 1.96562C4.76496 1.80384 4.89473 1.67442 5.01411 1.57735C5.1335 1.48028 5.27105 1.41018 5.42676 1.36704C5.58767 1.3239 5.79789 1.30233 6.05742 1.30233H9.94258C10.2021 1.30233 10.4097 1.3239 10.5654 1.36704C10.7212 1.41018 10.8587 1.48028 10.9781 1.57735C11.0975 1.67442 11.2298 1.80384 11.3752 1.96562L14.1781 5.16077C14.3338 5.33873 14.435 5.50051 14.4818 5.64611C14.5337 5.79171 14.5596 6.01281 14.5596 6.3094V9.69869C14.5596 9.99528 14.5337 10.2164 14.4818 10.362C14.435 10.5076 14.3338 10.6694 14.1781 10.8473L11.3752 14.0425C11.2298 14.2042 11.0975 14.3337 10.9781 14.4307C10.8587 14.5278 10.7212 14.5979 10.5654 14.6411C10.4097 14.6842 10.2021 14.7058 9.94258 14.7058H6.05742ZM8.00389 9.45602C8.39319 9.45602 8.59043 9.24301 8.59562 8.81699L8.71241 4.54601C8.7176 4.34109 8.65012 4.17122 8.50998 4.0364C8.37502 3.89619 8.20373 3.82609 7.99611 3.82609C7.78329 3.82609 7.60941 3.8935 7.47445 4.02831C7.34469 4.16313 7.2824 4.333 7.28759 4.53792L7.38881 8.81699C7.39919 9.24301 7.60422 9.45602 8.00389 9.45602ZM8.00389 12.0849C8.22709 12.0849 8.42174 12.004 8.58783 11.8423C8.75912 11.6805 8.84477 11.481 8.84477 11.2437C8.84477 11.0064 8.76172 10.8069 8.59562 10.6451C8.42952 10.4833 8.23228 10.4024 8.00389 10.4024C7.77551 10.4024 7.57826 10.486 7.41217 10.6532C7.24607 10.815 7.16302 11.0118 7.16302 11.2437C7.16302 11.4756 7.24607 11.6751 7.41217 11.8423C7.57826 12.004 7.77551 12.0849 8.00389 12.0849Z"
		fill="currentColor"
	/>
</svg>
