<svg color="rgb(var(--foreground, 0, 0, 0))" viewBox="0 0 13 16" fill="none">
	<path
		d="M6.5 16C6.56357 16 6.64038 15.9866 6.73044 15.9598C6.82579 15.9383 6.9238 15.9007 7.02445 15.8471C8.15811 15.2461 9.10636 14.7042 9.86919 14.2213C10.6373 13.7384 11.2492 13.2609 11.7048 12.7887C12.1656 12.3166 12.4967 11.8095 12.698 11.2676C12.8993 10.7203 13 10.0845 13 9.36016V3.29175C13 2.87861 12.9126 2.58082 12.7378 2.39839C12.5683 2.21596 12.3166 2.055 11.9829 1.91549C11.7975 1.83501 11.5432 1.73307 11.22 1.60966C10.8969 1.48625 10.5393 1.35211 10.1473 1.20724C9.76059 1.06237 9.37123 0.917505 8.97922 0.772636C8.5925 0.627767 8.23757 0.498994 7.91443 0.386318C7.59658 0.268276 7.34495 0.177062 7.15954 0.112676C7.05359 0.0804829 6.94499 0.0536553 6.83374 0.0321932C6.72249 0.0107311 6.61125 0 6.5 0C6.38875 0 6.27751 0.0107311 6.16626 0.0321932C6.06031 0.0536553 5.95436 0.0804829 5.84841 0.112676C5.663 0.177062 5.40872 0.268276 5.08557 0.386318C4.76243 0.498994 4.40485 0.627767 4.01284 0.772636C3.62612 0.91214 3.23676 1.05701 2.84474 1.20724C2.45803 1.35211 2.1031 1.48893 1.77995 1.61771C1.45681 1.74111 1.20253 1.84038 1.01711 1.91549C0.688672 2.04963 0.437042 2.2106 0.262225 2.39839C0.0874083 2.58082 0 2.87861 0 3.29175V9.36016C0 10.0845 0.103301 10.715 0.309902 11.2515C0.521801 11.7827 0.858191 12.279 1.31907 12.7404C1.78525 13.1965 2.39976 13.6687 3.16259 14.1569C3.93073 14.6452 4.86838 15.2086 5.97555 15.8471C6.0762 15.9007 6.17156 15.9383 6.26161 15.9598C6.35697 15.9866 6.43643 16 6.5 16ZM6.5 9.19919C6.0762 9.19919 5.85901 8.97921 5.84841 8.53924L5.74511 4.15292C5.73981 3.94366 5.80603 3.76928 5.94377 3.62978C6.0868 3.49027 6.26956 3.42052 6.49205 3.42052C6.70925 3.42052 6.88936 3.49296 7.0324 3.63783C7.18073 3.77733 7.25224 3.95171 7.24694 4.16097L7.12775 8.53924C7.12245 8.97921 6.9132 9.19919 6.5 9.19919ZM6.5 11.8954C6.26161 11.8954 6.05236 11.8122 5.87225 11.6459C5.69743 11.4795 5.61002 11.2757 5.61002 11.0342C5.61002 10.7981 5.69743 10.5942 5.87225 10.4225C6.04707 10.2508 6.25632 10.165 6.5 10.165C6.73839 10.165 6.94499 10.2508 7.1198 10.4225C7.29992 10.5889 7.38998 10.7928 7.38998 11.0342C7.38998 11.2757 7.29992 11.4795 7.1198 11.6459C6.94499 11.8122 6.73839 11.8954 6.5 11.8954Z"
		fill="currentColor"
	/>
</svg>
