<svg viewBox="0 0 16 16" fill="none" color="rgb(var(--foreground, 0, 0, 0))">
	<path
		d="M5.63698 16H10.363C10.69 16 10.9677 15.9649 11.1961 15.8948C11.4297 15.8247 11.6347 15.7196 11.8112 15.5794C11.9877 15.4446 12.1616 15.2828 12.3328 15.094L15.3538 11.632C15.5251 11.4378 15.6574 11.2572 15.7509 11.09C15.8443 10.9174 15.9092 10.7368 15.9455 10.548C15.9818 10.3539 16 10.122 16 9.85238V6.15571C16 5.88608 15.9818 5.6542 15.9455 5.46006C15.9092 5.26592 15.8443 5.08527 15.7509 4.9181C15.6574 4.75093 15.5251 4.57027 15.3538 4.37614L12.3328 0.914055C12.1616 0.719919 11.9877 0.555443 11.8112 0.420627C11.6347 0.285811 11.4297 0.18335 11.1961 0.113246C10.9677 0.0377486 10.69 0 10.363 0H5.63698C5.30478 0 5.02449 0.0377486 4.79611 0.113246C4.56772 0.18335 4.36529 0.285811 4.18881 0.420627C4.01233 0.555443 3.83844 0.719919 3.66715 0.914055L0.646229 4.37614C0.474939 4.57027 0.342579 4.75093 0.249148 4.9181C0.155718 5.08527 0.0908354 5.26592 0.0545012 5.46006C0.0181671 5.6542 0 5.88608 0 6.15571V9.85238C0 10.122 0.0181671 10.3539 0.0545012 10.548C0.0908354 10.7368 0.155718 10.9174 0.249148 11.09C0.342579 11.2572 0.474939 11.4378 0.646229 11.632L3.66715 15.094C3.83844 15.2828 4.01233 15.4446 4.18881 15.5794C4.36529 15.7196 4.56772 15.8247 4.79611 15.8948C5.02449 15.9649 5.30478 16 5.63698 16ZM8.00389 9.50455C7.58865 9.50455 7.37583 9.28345 7.36545 8.84125L7.26423 4.43276C7.25904 4.22245 7.32393 4.04719 7.45888 3.90698C7.59903 3.76677 7.7781 3.69666 7.99611 3.69666C8.20892 3.69666 8.3854 3.76946 8.52555 3.91507C8.67088 4.05527 8.74096 4.23054 8.73577 4.44085L8.61898 8.84125C8.61379 9.28345 8.40876 9.50455 8.00389 9.50455ZM8.00389 12.2144C7.77032 12.2144 7.56529 12.1308 7.38881 11.9636C7.21752 11.7964 7.13187 11.5915 7.13187 11.3488C7.13187 11.1116 7.21752 10.9066 7.38881 10.7341C7.5601 10.5615 7.76513 10.4752 8.00389 10.4752C8.23747 10.4752 8.4399 10.5615 8.61119 10.7341C8.78767 10.9012 8.87591 11.1062 8.87591 11.3488C8.87591 11.5915 8.78767 11.7964 8.61119 11.9636C8.4399 12.1308 8.23747 12.2144 8.00389 12.2144Z"
		fill="currentColor"
	/>
</svg>
