<svg color="rgb(var(--foreground, 0, 0, 0))" viewBox="0 0 16 14" fill="none">
	<path
		d="M2.08397 14H13.916C14.3486 14 14.7201 13.9116 15.0305 13.7347C15.341 13.5579 15.5802 13.3172 15.7481 13.0126C15.916 12.713 16 12.3765 16 12.0032C16 11.8312 15.9746 11.6568 15.9237 11.48C15.8728 11.3032 15.799 11.1337 15.7023 10.9716L9.77863 1.00947C9.58015 0.675439 9.32061 0.424912 9 0.257895C8.68448 0.0859649 8.35114 0 8 0C7.64886 0 7.31298 0.0859649 6.99237 0.257895C6.67176 0.424912 6.41476 0.675439 6.22137 1.00947L0.29771 10.9716C0.0992366 11.3007 0 11.6446 0 12.0032C0 12.3765 0.0839695 12.713 0.251908 13.0126C0.419847 13.3172 0.659033 13.5579 0.969466 13.7347C1.2799 13.9116 1.6514 14 2.08397 14ZM8.00763 9.07053C7.60051 9.07053 7.39186 8.86912 7.38168 8.46632L7.28244 4.45053C7.27735 4.25895 7.34097 4.0993 7.47328 3.97158C7.61069 3.84386 7.78626 3.78 8 3.78C8.20865 3.78 8.38168 3.84632 8.51908 3.97895C8.66158 4.10667 8.73028 4.26632 8.72519 4.45789L8.61069 8.46632C8.6056 8.86912 8.40458 9.07053 8.00763 9.07053ZM8.00763 11.5389C7.77863 11.5389 7.57761 11.4628 7.40458 11.3105C7.23664 11.1582 7.15267 10.9716 7.15267 10.7505C7.15267 10.5344 7.23664 10.3477 7.40458 10.1905C7.57252 10.0333 7.77354 9.95474 8.00763 9.95474C8.23664 9.95474 8.43511 10.0333 8.60305 10.1905C8.77608 10.3428 8.8626 10.5295 8.8626 10.7505C8.8626 10.9716 8.77608 11.1582 8.60305 11.3105C8.43511 11.4628 8.23664 11.5389 8.00763 11.5389Z"
		fill="currentColor"
	/>
</svg>
