<svg color="rgb(var(--foreground, 0, 0, 0))" viewBox="0 0 15 16" fill="none">
	<path
		d="M2.55839 15.5H12.4416C13.2944 15.5 13.9326 15.2882 14.3563 14.8645C14.7854 14.4462 15 13.8161 15 12.9742V3.0258C15 2.18387 14.7854 1.55378 14.3563 1.13552C13.9326 0.711841 13.2944 0.5 12.4416 0.5H2.55839C1.70559 0.5 1.06464 0.711841 0.635524 1.13552C0.211841 1.55378 0 2.18387 0 3.0258V12.9742C0 13.8161 0.211841 14.4462 0.635524 14.8645C1.06464 15.2882 1.70559 15.5 2.55839 15.5ZM7.50407 9.50326C7.06953 9.50326 6.84682 9.28055 6.83596 8.83514L6.73004 4.39462C6.72461 4.18278 6.7925 4.00625 6.93373 3.86502C7.08039 3.72379 7.26779 3.65318 7.49593 3.65318C7.71863 3.65318 7.90331 3.72651 8.04997 3.87317C8.20206 4.01439 8.27539 4.19093 8.26996 4.40277L8.14775 8.83514C8.14231 9.28055 7.92776 9.50326 7.50407 9.50326ZM7.50407 12.2328C7.25964 12.2328 7.04508 12.1486 6.8604 11.9802C6.68115 11.8118 6.59153 11.6054 6.59153 11.3609C6.59153 11.1219 6.68115 10.9155 6.8604 10.7417C7.03965 10.5679 7.25421 10.481 7.50407 10.481C7.74851 10.481 7.96035 10.5679 8.1396 10.7417C8.32428 10.9101 8.41662 11.1165 8.41662 11.3609C8.41662 11.6054 8.32428 11.8118 8.1396 11.9802C7.96035 12.1486 7.74851 12.2328 7.50407 12.2328Z"
		fill="currentColor"
	/>
</svg>
