<svg color="rgb(var(--foreground, 0, 0, 0))" viewBox="0 0 17 18" fill="none">
	<path
		d="M4.58167 17.0026C4.73593 17.0026 4.87477 16.9614 4.99819 16.8791C5.12674 16.802 5.28358 16.6786 5.46869 16.5089L8.25318 13.9635H13.4673C14.2335 13.9635 14.8789 13.8273 15.4034 13.5547C15.9279 13.2822 16.3238 12.8837 16.5912 12.3592C16.8637 11.8347 17 11.1945 17 10.4386V4.53023C17 3.77433 16.8637 3.13413 16.5912 2.60963C16.3238 2.08513 15.9279 1.68661 15.4034 1.41407C14.8789 1.1364 14.2335 0.997559 13.4673 0.997559H3.53267C2.76649 0.997559 2.12114 1.1364 1.59664 1.41407C1.07214 1.68661 0.673624 2.08513 0.401089 2.60963C0.133696 3.13413 0 3.77433 0 4.53023V10.4386C0 11.1945 0.133696 11.8347 0.401089 12.3592C0.673624 12.8837 1.07214 13.2822 1.59664 13.5547C2.12114 13.8273 2.76649 13.9635 3.53267 13.9635H3.89519V16.2081C3.89519 16.4498 3.95433 16.6426 4.0726 16.7866C4.19087 16.9306 4.36056 17.0026 4.58167 17.0026ZM8.50771 8.91135C8.09634 8.91135 7.88551 8.70052 7.87523 8.27887L7.77495 4.07515C7.76981 3.8746 7.83409 3.70748 7.96779 3.57378C8.10662 3.44009 8.28403 3.37324 8.5 3.37324C8.71083 3.37324 8.88566 3.44266 9.0245 3.5815C9.16848 3.71519 9.2379 3.88231 9.23276 4.08286L9.11706 8.27887C9.11192 8.70052 8.9088 8.91135 8.50771 8.91135ZM8.50771 11.4953C8.27632 11.4953 8.0732 11.4156 7.89837 11.2562C7.72867 11.0968 7.64383 10.9014 7.64383 10.67C7.64383 10.4437 7.72867 10.2483 7.89837 10.0838C8.06806 9.91922 8.27117 9.83694 8.50771 9.83694C8.73911 9.83694 8.93966 9.91922 9.10935 10.0838C9.28418 10.2432 9.3716 10.4386 9.3716 10.67C9.3716 10.9014 9.28418 11.0968 9.10935 11.2562C8.93966 11.4156 8.73911 11.4953 8.50771 11.4953Z"
		fill="currentColor"
	/>
</svg>
