<svg viewBox="0 0 15 16" fill="none" color="rgb(var(--foreground, 0, 0, 0))">
	<path
		d="M2.55839 15.5H12.4416C13.2944 15.5 13.9326 15.2882 14.3563 14.8645C14.7854 14.4462 15 13.8161 15 12.9742V3.0258C15 2.18387 14.7854 1.55378 14.3563 1.13552C13.9326 0.711841 13.2944 0.5 12.4416 0.5H2.55839C1.70559 0.5 1.06464 0.711841 0.635524 1.13552C0.211841 1.55378 0 2.18387 0 3.0258V12.9742C0 13.8161 0.211841 14.4462 0.635524 14.8645C1.06464 15.2882 1.70559 15.5 2.55839 15.5ZM2.57469 14.1882C2.1673 14.1882 1.85497 14.0823 1.6377 13.8705C1.42042 13.6532 1.31179 13.3327 1.31179 12.909V3.09098C1.31179 2.6673 1.42042 2.34954 1.6377 2.1377C1.85497 1.92042 2.1673 1.81179 2.57469 1.81179H12.4253C12.8273 1.81179 13.1369 1.92042 13.3542 2.1377C13.5769 2.34954 13.6882 2.6673 13.6882 3.09098V12.909C13.6882 13.3327 13.5769 13.6532 13.3542 13.8705C13.1369 14.0823 12.8273 14.1882 12.4253 14.1882H2.57469ZM7.50407 9.45437C7.91146 9.45437 8.11787 9.23981 8.1233 8.8107L8.24552 4.50869C8.25095 4.30228 8.18034 4.13118 8.03368 3.99538C7.89245 3.85416 7.7132 3.78354 7.49593 3.78354C7.27322 3.78354 7.09125 3.85144 6.95003 3.98724C6.81423 4.12303 6.74905 4.29413 6.75448 4.50054L6.8604 8.8107C6.87127 9.23981 7.08582 9.45437 7.50407 9.45437ZM7.50407 12.1024C7.73764 12.1024 7.94134 12.0209 8.11515 11.858C8.2944 11.695 8.38403 11.494 8.38403 11.255C8.38403 11.016 8.29712 10.815 8.1233 10.6521C7.94948 10.4891 7.74307 10.4077 7.50407 10.4077C7.26507 10.4077 7.05866 10.4919 6.88484 10.6602C6.71103 10.8232 6.62412 11.0215 6.62412 11.255C6.62412 11.4886 6.71103 11.6896 6.88484 11.858C7.05866 12.0209 7.26507 12.1024 7.50407 12.1024Z"
		fill="currentColor"
	/>
</svg>
