<svg color="rgb(var(--foreground, 0, 0, 0))" viewBox="0 0 16 16" fill="none">
	<path
		d="M8 16C9.09281 16 10.1203 15.7909 11.0824 15.3726C12.0497 14.9542 12.902 14.3765 13.6392 13.6392C14.3765 12.902 14.9542 12.0523 15.3726 11.0902C15.7909 10.1229 16 9.09281 16 8C16 6.90719 15.7909 5.87974 15.3726 4.91765C14.9542 3.95033 14.3765 3.09804 13.6392 2.36078C12.902 1.62353 12.0497 1.04575 11.0824 0.627451C10.115 0.20915 9.08497 0 7.99216 0C6.89935 0 5.86928 0.20915 4.90196 0.627451C3.93987 1.04575 3.0902 1.62353 2.35294 2.36078C1.62092 3.09804 1.04575 3.95033 0.627451 4.91765C0.20915 5.87974 0 6.90719 0 8C0 9.09281 0.20915 10.1229 0.627451 11.0902C1.04575 12.0523 1.62353 12.902 2.36078 13.6392C3.09804 14.3765 3.94771 14.9542 4.9098 15.3726C5.87712 15.7909 6.90719 16 8 16ZM8 9.45882C7.5817 9.45882 7.36732 9.24445 7.35686 8.81569L7.2549 4.54118C7.24967 4.33726 7.31503 4.16732 7.45098 4.03137C7.59216 3.89543 7.77255 3.82745 7.99216 3.82745C8.20654 3.82745 8.38431 3.89804 8.52549 4.03922C8.6719 4.17516 8.74248 4.3451 8.73726 4.54902L8.61961 8.81569C8.61438 9.24445 8.40784 9.45882 8 9.45882ZM8 12.0863C7.76471 12.0863 7.55817 12.0052 7.38039 11.8431C7.20784 11.681 7.12157 11.4824 7.12157 11.2471C7.12157 11.017 7.20784 10.8183 7.38039 10.651C7.55294 10.4837 7.75948 10.4 8 10.4C8.23529 10.4 8.43922 10.4837 8.61176 10.651C8.78954 10.8131 8.87843 11.0118 8.87843 11.2471C8.87843 11.4824 8.78954 11.681 8.61176 11.8431C8.43922 12.0052 8.23529 12.0863 8 12.0863Z"
		fill="currentColor"
	/>
</svg>
