<svg color="rgb(var(--foreground, 0, 0, 0))" viewBox="0 0 16 16" fill="none">
	<path
		d="M8 16C9.09281 16 10.1203 15.7909 11.0824 15.3726C12.0497 14.9542 12.902 14.3765 13.6392 13.6392C14.3765 12.902 14.9542 12.0523 15.3726 11.0902C15.7909 10.1229 16 9.09281 16 8C16 6.90719 15.7909 5.87974 15.3726 4.91765C14.9542 3.95033 14.3765 3.09804 13.6392 2.36078C12.902 1.62353 12.0497 1.04575 11.0824 0.627451C10.115 0.20915 9.08497 0 7.99216 0C6.89935 0 5.86928 0.20915 4.90196 0.627451C3.93987 1.04575 3.0902 1.62353 2.35294 2.36078C1.62092 3.09804 1.04575 3.95033 0.627451 4.91765C0.20915 5.87974 0 6.90719 0 8C0 9.09281 0.20915 10.1229 0.627451 11.0902C1.04575 12.0523 1.62353 12.902 2.36078 13.6392C3.09804 14.3765 3.94771 14.9542 4.9098 15.3726C5.87712 15.7909 6.90719 16 8 16ZM6.58824 12.5333C6.42092 12.5333 6.27974 12.481 6.16471 12.3765C6.04967 12.2667 5.99216 12.1281 5.99216 11.9608C5.99216 11.8039 6.04967 11.6706 6.16471 11.5608C6.27974 11.4458 6.42092 11.3882 6.58824 11.3882H7.58431V7.69412H6.72157C6.55948 7.69412 6.42092 7.64183 6.30588 7.53726C6.19085 7.42745 6.13333 7.28889 6.13333 7.12157C6.13333 6.96471 6.19085 6.83137 6.30588 6.72157C6.42092 6.60654 6.55948 6.54902 6.72157 6.54902H8.24314C8.45229 6.54902 8.60915 6.61699 8.71373 6.75294C8.82353 6.88889 8.87843 7.06667 8.87843 7.28627V11.3882H9.87451C10.0418 11.3882 10.183 11.4458 10.298 11.5608C10.4131 11.6706 10.4706 11.8039 10.4706 11.9608C10.4706 12.1281 10.4131 12.2667 10.298 12.3765C10.183 12.481 10.0418 12.5333 9.87451 12.5333H6.58824ZM7.92941 5.20784C7.6366 5.20784 7.38562 5.10588 7.17647 4.90196C6.97255 4.69281 6.87059 4.44183 6.87059 4.14902C6.87059 3.85098 6.97255 3.6 7.17647 3.39608C7.38562 3.18693 7.6366 3.08235 7.92941 3.08235C8.22745 3.08235 8.47582 3.18693 8.67451 3.39608C8.87843 3.6 8.98039 3.85098 8.98039 4.14902C8.98039 4.44183 8.87843 4.69281 8.67451 4.90196C8.47582 5.10588 8.22745 5.20784 7.92941 5.20784Z"
		fill="currentColor"
	/>
</svg>
