<svg color="rgb(var(--foreground, 0, 0, 0))" viewBox="0 0 16 16" fill="none">
	<path
		d="M8 16C9.09281 16 10.1203 15.7909 11.0824 15.3726C12.0497 14.9542 12.902 14.3765 13.6392 13.6392C14.3765 12.902 14.9542 12.0523 15.3726 11.0902C15.7909 10.1229 16 9.09281 16 8C16 6.90719 15.7909 5.87974 15.3726 4.91765C14.9542 3.95033 14.3765 3.09804 13.6392 2.36078C12.902 1.62353 12.0497 1.04575 11.0824 0.627451C10.115 0.20915 9.08497 0 7.99216 0C6.89935 0 5.86928 0.20915 4.90196 0.627451C3.93987 1.04575 3.0902 1.62353 2.35294 2.36078C1.62092 3.09804 1.04575 3.95033 0.627451 4.91765C0.20915 5.87974 0 6.90719 0 8C0 9.09281 0.20915 10.1229 0.627451 11.0902C1.04575 12.0523 1.62353 12.902 2.36078 13.6392C3.09804 14.3765 3.94771 14.9542 4.9098 15.3726C5.87712 15.7909 6.90719 16 8 16ZM8 14.6667C7.07451 14.6667 6.20915 14.4941 5.40392 14.149C4.59869 13.8039 3.8902 13.3281 3.27843 12.7216C2.6719 12.1098 2.19608 11.4013 1.85098 10.5961C1.51111 9.79085 1.34118 8.92549 1.34118 8C1.34118 7.07451 1.51111 6.20915 1.85098 5.40392C2.19608 4.59869 2.6719 3.8902 3.27843 3.27843C3.88497 2.66667 4.59085 2.19085 5.39608 1.85098C6.20131 1.50588 7.06667 1.33333 7.99216 1.33333C8.91765 1.33333 9.78301 1.50588 10.5882 1.85098C11.3987 2.19085 12.1072 2.66667 12.7137 3.27843C13.3255 3.8902 13.8039 4.59869 14.149 5.40392C14.4941 6.20915 14.6667 7.07451 14.6667 8C14.6667 8.92549 14.4941 9.79085 14.149 10.5961C13.8092 11.4013 13.3333 12.1098 12.7216 12.7216C12.1098 13.3281 11.4013 13.8039 10.5961 14.149C9.79085 14.4941 8.92549 14.6667 8 14.6667ZM6.62745 12.3843H9.81961C9.9817 12.3843 10.1176 12.332 10.2275 12.2275C10.3373 12.1229 10.3922 11.9922 10.3922 11.8353C10.3922 11.6784 10.3373 11.5477 10.2275 11.4431C10.1176 11.3386 9.9817 11.2863 9.81961 11.2863H8.84706V7.29412C8.84706 7.07974 8.79477 6.9098 8.6902 6.78431C8.58562 6.65359 8.43399 6.58824 8.23529 6.58824H6.76078C6.59869 6.58824 6.46275 6.64052 6.35294 6.7451C6.24314 6.84967 6.18824 6.98039 6.18824 7.13726C6.18824 7.29412 6.24314 7.42484 6.35294 7.52941C6.46275 7.63399 6.59869 7.68628 6.76078 7.68628H7.6V11.2863H6.62745C6.46536 11.2863 6.32941 11.3386 6.21961 11.4431C6.1098 11.5477 6.0549 11.6784 6.0549 11.8353C6.0549 11.9922 6.1098 12.1229 6.21961 12.2275C6.32941 12.332 6.46536 12.3843 6.62745 12.3843ZM7.92941 5.27843C8.21699 5.27843 8.45752 5.17909 8.65098 4.98039C8.84967 4.7817 8.94902 4.54118 8.94902 4.25882C8.94902 3.97124 8.84967 3.7281 8.65098 3.52941C8.45752 3.33072 8.21699 3.23137 7.92941 3.23137C7.64706 3.23137 7.40654 3.33072 7.20784 3.52941C7.00915 3.7281 6.9098 3.97124 6.9098 4.25882C6.9098 4.54118 7.00915 4.7817 7.20784 4.98039C7.40654 5.17909 7.64706 5.27843 7.92941 5.27843Z"
		fill="currentColor"
	/>
</svg>
