<svg color="rgb(var(--foreground, 0, 0, 0))" viewBox="0 0 15 16" fill="none">
	<path
		d="M2.55839 15.5H12.4416C13.2944 15.5 13.9326 15.2882 14.3563 14.8645C14.7854 14.4462 15 13.8161 15 12.9742V3.0258C15 2.18387 14.7854 1.55378 14.3563 1.13552C13.9326 0.711841 13.2944 0.5 12.4416 0.5H2.55839C1.70559 0.5 1.06464 0.711841 0.635524 1.13552C0.211841 1.55378 0 2.18387 0 3.0258V12.9742C0 13.8161 0.211841 14.4462 0.635524 14.8645C1.06464 15.2882 1.70559 15.5 2.55839 15.5ZM2.57469 14.1882C2.1673 14.1882 1.85497 14.0823 1.6377 13.8705C1.42042 13.6532 1.31179 13.3327 1.31179 12.909V3.09098C1.31179 2.6673 1.42042 2.34954 1.6377 2.1377C1.85497 1.92042 2.1673 1.81179 2.57469 1.81179H12.4253C12.8273 1.81179 13.1369 1.92042 13.3542 2.1377C13.5769 2.34954 13.6882 2.6673 13.6882 3.09098V12.909C13.6882 13.3327 13.5769 13.6532 13.3542 13.8705C13.1369 14.0823 12.8273 14.1882 12.4253 14.1882H2.57469ZM6.08637 12.5424H9.4025C9.57088 12.5424 9.71211 12.488 9.82618 12.3794C9.94025 12.2708 9.99728 12.135 9.99728 11.972C9.99728 11.8091 9.94025 11.6733 9.82618 11.5646C9.71211 11.456 9.57088 11.4017 9.4025 11.4017H8.39218V7.25448C8.39218 7.03178 8.33786 6.85524 8.22922 6.72488C8.12059 6.58908 7.96306 6.52118 7.75665 6.52118H6.22488C6.05649 6.52118 5.91526 6.5755 5.80119 6.68414C5.68713 6.79278 5.63009 6.92857 5.63009 7.09153C5.63009 7.25448 5.68713 7.39028 5.80119 7.49891C5.91526 7.60755 6.05649 7.66187 6.22488 7.66187H7.09669V11.4017H6.08637C5.91798 11.4017 5.77675 11.456 5.66268 11.5646C5.54861 11.6733 5.49158 11.8091 5.49158 11.972C5.49158 12.135 5.54861 12.2708 5.66268 12.3794C5.77675 12.488 5.91798 12.5424 6.08637 12.5424ZM7.43889 5.16051C7.73764 5.16051 7.98751 5.05731 8.18848 4.8509C8.39489 4.64449 8.4981 4.39462 8.4981 4.1013C8.4981 3.80255 8.39489 3.54997 8.18848 3.34356C7.98751 3.13715 7.73764 3.03395 7.43889 3.03395C7.14557 3.03395 6.89571 3.13715 6.6893 3.34356C6.48289 3.54997 6.37968 3.80255 6.37968 4.1013C6.37968 4.39462 6.48289 4.64449 6.6893 4.8509C6.89571 5.05731 7.14557 5.16051 7.43889 5.16051Z"
		fill="currentColor"
	/>
</svg>
