<svg color="rgb(var(--foreground, 0, 0, 0))" viewBox="0 0 17 18" fill="none">
	<path
		d="M4.58167 17.0026C4.73593 17.0026 4.87477 16.9614 4.99819 16.8791C5.12674 16.802 5.28358 16.6786 5.46869 16.5089L8.25318 13.9635H13.4673C14.2335 13.9635 14.8789 13.8273 15.4034 13.5547C15.9279 13.2822 16.3238 12.8837 16.5912 12.3592C16.8637 11.8347 17 11.1945 17 10.4386V4.53023C17 3.77433 16.8637 3.13413 16.5912 2.60963C16.3238 2.08513 15.9279 1.68661 15.4034 1.41407C14.8789 1.1364 14.2335 0.997559 13.4673 0.997559H3.53267C2.76649 0.997559 2.12114 1.1364 1.59664 1.41407C1.07214 1.68661 0.673624 2.08513 0.401089 2.60963C0.133696 3.13413 0 3.77433 0 4.53023V10.4386C0 11.1945 0.133696 11.8347 0.401089 12.3592C0.673624 12.8837 1.07214 13.2822 1.59664 13.5547C2.12114 13.8273 2.76649 13.9635 3.53267 13.9635H3.89519V16.2081C3.89519 16.4498 3.95433 16.6426 4.0726 16.7866C4.19087 16.9306 4.36056 17.0026 4.58167 17.0026ZM7.2196 11.6187C7.06534 11.6187 6.93678 11.5699 6.83394 11.4722C6.73109 11.3744 6.67967 11.2485 6.67967 11.0942C6.67967 10.9502 6.73109 10.8268 6.83394 10.724C6.93678 10.6211 7.06534 10.5697 7.2196 10.5697H8.12976V7.20672H7.34301C7.19389 7.20672 7.06534 7.15787 6.95735 7.06017C6.85451 6.96247 6.80309 6.83906 6.80309 6.68994C6.80309 6.54596 6.85451 6.42254 6.95735 6.3197C7.06534 6.21686 7.19389 6.16544 7.34301 6.16544H8.72368C8.91394 6.16544 9.05793 6.22714 9.15563 6.35055C9.25333 6.47397 9.30218 6.63594 9.30218 6.83649V10.5697H10.2123C10.3666 10.5697 10.4952 10.6211 10.598 10.724C10.7008 10.8268 10.7523 10.9502 10.7523 11.0942C10.7523 11.2485 10.7008 11.3744 10.598 11.4722C10.4952 11.5699 10.3666 11.6187 10.2123 11.6187H7.2196ZM8.43829 4.94674C8.1709 4.94674 7.94207 4.85418 7.75181 4.66906C7.5667 4.4788 7.47414 4.24998 7.47414 3.98259C7.47414 3.71005 7.5667 3.48122 7.75181 3.29611C7.94207 3.10585 8.1709 3.01072 8.43829 3.01072C8.71083 3.01072 8.93708 3.10585 9.11706 3.29611C9.30218 3.48122 9.39474 3.71005 9.39474 3.98259C9.39474 4.24998 9.30218 4.4788 9.11706 4.66906C8.93708 4.85418 8.71083 4.94674 8.43829 4.94674Z"
		fill="currentColor"
	/>
</svg>
