<svg color="rgb(var(--foreground, 0, 0, 0))" viewBox="0 0 15 16" fill="none">
	<path
		d="M2.55839 15.5H12.4416C13.2944 15.5 13.9326 15.2882 14.3563 14.8645C14.7854 14.4462 15 13.8161 15 12.9742V3.0258C15 2.18387 14.7854 1.55378 14.3563 1.13552C13.9326 0.711841 13.2944 0.5 12.4416 0.5H2.55839C1.70559 0.5 1.06464 0.711841 0.635524 1.13552C0.211841 1.55378 0 2.18387 0 3.0258V12.9742C0 13.8161 0.211841 14.4462 0.635524 14.8645C1.06464 15.2882 1.70559 15.5 2.55839 15.5ZM6.03748 12.6972C5.86366 12.6972 5.717 12.6429 5.5975 12.5342C5.478 12.4202 5.41825 12.2762 5.41825 12.1024C5.41825 11.9394 5.478 11.8009 5.5975 11.6869C5.717 11.5674 5.86366 11.5076 6.03748 11.5076H7.07224V7.67002H6.17599C6.0076 7.67002 5.86366 7.6157 5.74416 7.50706C5.62466 7.39299 5.56491 7.24905 5.56491 7.07523C5.56491 6.91228 5.62466 6.77376 5.74416 6.6597C5.86366 6.5402 6.0076 6.48044 6.17599 6.48044H7.75665C7.97393 6.48044 8.13688 6.55106 8.24552 6.69229C8.35959 6.83351 8.41662 7.0182 8.41662 7.24633V11.5076H9.45138C9.6252 11.5076 9.77186 11.5674 9.89136 11.6869C10.0109 11.8009 10.0706 11.9394 10.0706 12.1024C10.0706 12.2762 10.0109 12.4202 9.89136 12.5342C9.77186 12.6429 9.6252 12.6972 9.45138 12.6972H6.03748ZM7.43074 5.08718C7.12656 5.08718 6.86583 4.98126 6.64856 4.76942C6.43672 4.55215 6.3308 4.29142 6.3308 3.98724C6.3308 3.67762 6.43672 3.41689 6.64856 3.20505C6.86583 2.98778 7.12656 2.87914 7.43074 2.87914C7.74036 2.87914 7.99837 2.98778 8.20478 3.20505C8.41662 3.41689 8.52254 3.67762 8.52254 3.98724C8.52254 4.29142 8.41662 4.55215 8.20478 4.76942C7.99837 4.98126 7.74036 5.08718 7.43074 5.08718Z"
		fill="currentColor"
	/>
</svg>
