<svg color="rgb(var(--foreground, 0, 0, 0))" viewBox="0 0 18 18" fill="none">
	<path
		d="M0.888953 10.754L7.24605 17.111C7.83334 17.6983 8.41799 17.9946 9 17.9999C9.58201 18.0052 10.164 17.7169 10.746 17.1349L17.1349 10.7381C17.7169 10.1614 18.0052 9.58201 17.9999 9C17.9946 8.4127 17.6983 7.82541 17.111 7.23811L10.7619 0.888953C10.1746 0.301656 9.58994 0.00536246 9.00794 7.14995e-05C8.42593 -0.00521946 7.84392 0.283138 7.26192 0.865144L0.865144 7.25398C0.283138 7.84128 -0.00521946 8.42593 7.14995e-05 9.00794C0.00536246 9.58465 0.301656 10.1667 0.888953 10.754ZM1.80958 9.87301C1.52916 9.5873 1.3863 9.29629 1.38101 9C1.37572 8.70371 1.52122 8.41006 1.81752 8.11905L8.11905 1.81752C8.41006 1.52651 8.70371 1.38101 9 1.38101C9.29629 1.38101 9.5873 1.52387 9.87301 1.80958L16.1904 8.12699C16.4708 8.40741 16.6137 8.69841 16.619 9C16.6243 9.29629 16.4788 9.58994 16.1825 9.88095L9.88095 16.1825C9.58465 16.4735 9.28836 16.619 8.99206 16.619C8.69577 16.619 8.40741 16.4788 8.12699 16.1984L1.80958 9.87301ZM8.84127 10.6428C9.03704 10.6428 9.19047 10.5873 9.30159 10.4762C9.41799 10.3651 9.47619 10.2328 9.47619 10.0794C9.47619 10.0635 9.47619 10.0476 9.47619 10.0317C9.47619 10.0106 9.47619 9.9947 9.47619 9.98412C9.47619 9.7619 9.54233 9.57142 9.6746 9.4127C9.80687 9.24868 10.0132 9.07407 10.2936 8.88889C10.6746 8.63492 10.9894 8.37038 11.2381 8.09525C11.4868 7.82012 11.6111 7.44446 11.6111 6.96827C11.6111 6.52912 11.492 6.15875 11.254 5.85717C11.0211 5.55558 10.7143 5.32807 10.3333 5.17463C9.95237 5.0159 9.53703 4.93654 9.0873 4.93654C8.40477 4.93654 7.84657 5.07675 7.41271 5.35717C6.98414 5.6323 6.7143 5.95241 6.60319 6.31748C6.58203 6.38097 6.56616 6.44447 6.55558 6.50796C6.54499 6.57145 6.5397 6.63759 6.5397 6.70637C6.5397 6.88626 6.5979 7.02383 6.7143 7.11906C6.83071 7.20901 6.95504 7.25398 7.08732 7.25398C7.21959 7.25398 7.3307 7.22488 7.42065 7.16668C7.51588 7.10848 7.5979 7.03176 7.66668 6.93652L7.80953 6.74605C7.90477 6.59261 8.01324 6.46298 8.13493 6.35716C8.25662 6.24605 8.39154 6.1614 8.53969 6.1032C8.69312 6.045 8.85714 6.0159 9.03175 6.0159C9.39682 6.0159 9.68783 6.11113 9.90476 6.30161C10.1217 6.48679 10.2301 6.73018 10.2301 7.03176C10.2301 7.3016 10.1455 7.52382 9.97618 7.69842C9.80687 7.86773 9.54762 8.07408 9.19841 8.31747C8.9127 8.51323 8.67461 8.73016 8.48413 8.96826C8.29895 9.20635 8.20636 9.52116 8.20636 9.91269C8.20636 9.92856 8.20636 9.94708 8.20636 9.96825C8.20636 9.98412 8.20636 9.99999 8.20636 10.0159C8.20636 10.4339 8.41799 10.6428 8.84127 10.6428ZM8.81746 13.0079C9.05026 13.0079 9.25132 12.9285 9.42063 12.7698C9.58994 12.6111 9.6746 12.4153 9.6746 12.1825C9.6746 11.9497 9.58994 11.7539 9.42063 11.5952C9.25132 11.4365 9.05026 11.3571 8.81746 11.3571C8.58466 11.3571 8.3836 11.4391 8.21429 11.6032C8.05027 11.7619 7.96826 11.955 7.96826 12.1825C7.96826 12.41 8.05292 12.6058 8.22223 12.7698C8.39154 12.9285 8.58995 13.0079 8.81746 13.0079Z"
		fill="currentColor"
	/>
</svg>
