<svg color="rgb(var(--foreground, 0, 0, 0))" viewBox="0 0 15 16" fill="none">
	<path
		d="M14.0357 1.47306C13.6126 1.04975 13.1099 0.783123 12.5275 0.673172C11.9451 0.557724 11.3022 0.5 10.5989 0.5H4.37637C3.68407 0.5 3.0467 0.557724 2.46429 0.673172C1.88736 0.783123 1.38736 1.04975 0.964286 1.47306C0.546703 1.89087 0.28022 2.3884 0.164835 2.96564C0.0549451 3.54288 0 4.17785 0 4.87053V11.1047C0 11.8084 0.0549451 12.4516 0.164835 13.0344C0.274725 13.6116 0.541209 14.1091 0.964286 14.5269C1.38736 14.9502 1.88736 15.2169 2.46429 15.3268C3.0467 15.4423 3.68956 15.5 4.39286 15.5H10.5989C11.3022 15.5 11.9451 15.4423 12.5275 15.3268C13.1099 15.2169 13.6126 14.9502 14.0357 14.5269C14.4533 14.1091 14.717 13.6116 14.8269 13.0344C14.9423 12.4516 15 11.8084 15 11.1047V4.89527C15 4.19159 14.9423 3.55113 14.8269 2.97389C14.717 2.39115 14.4533 1.89087 14.0357 1.47306ZM7.33517 9.76883C6.87912 9.76883 6.6511 9.54343 6.6511 9.09263C6.6511 9.07614 6.6511 9.05965 6.6511 9.04315C6.6511 9.02116 6.6511 9.00192 6.6511 8.98543C6.6511 8.56212 6.75275 8.22402 6.95604 7.97114C7.15934 7.71825 7.41209 7.48461 7.71429 7.2702C8.08791 7.01182 8.36539 6.79192 8.5467 6.6105C8.72802 6.42358 8.81868 6.18444 8.81868 5.89307C8.81868 5.56872 8.70055 5.30759 8.46429 5.10968C8.23352 4.91176 7.92582 4.81281 7.54121 4.81281C7.3544 4.81281 7.18132 4.84305 7.02198 4.90352C6.86264 4.96399 6.71703 5.05195 6.58517 5.1674C6.4533 5.28285 6.33517 5.42303 6.23077 5.58796L6.08242 5.79412C6.0055 5.89307 5.91758 5.97554 5.81868 6.04151C5.71978 6.10198 5.5989 6.13222 5.45604 6.13222C5.31319 6.13222 5.17857 6.08274 5.0522 5.98378C4.92582 5.87933 4.86264 5.73364 4.86264 5.54673C4.86264 5.47526 4.86813 5.40379 4.87912 5.33232C4.8956 5.26086 4.91484 5.19214 4.93681 5.12617C5.05769 4.73035 5.34615 4.38675 5.8022 4.09538C6.26374 3.80401 6.86264 3.65833 7.5989 3.65833C8.08242 3.65833 8.52747 3.74079 8.93407 3.90572C9.34616 4.07064 9.67857 4.31528 9.93132 4.63964C10.1841 4.95849 10.3104 5.35432 10.3104 5.8271C10.3104 6.33837 10.1758 6.74244 9.90659 7.03931C9.64286 7.33617 9.30495 7.6193 8.89286 7.88868C8.59615 8.08109 8.37637 8.26526 8.23352 8.44118C8.09066 8.6116 8.01923 8.81776 8.01923 9.05965C8.01923 9.07064 8.01923 9.08714 8.01923 9.10913C8.01923 9.12562 8.01923 9.14211 8.01923 9.1586C8.01923 9.32903 7.95879 9.47471 7.83791 9.59566C7.71703 9.71111 7.54945 9.76883 7.33517 9.76883ZM7.31044 12.3004C7.06868 12.3004 6.8544 12.2152 6.66758 12.0448C6.48626 11.8744 6.3956 11.6655 6.3956 11.4181C6.3956 11.1762 6.48626 10.9673 6.66758 10.7914C6.8489 10.6154 7.06319 10.5275 7.31044 10.5275C7.56319 10.5275 7.78022 10.6154 7.96154 10.7914C8.14286 10.9618 8.23352 11.1707 8.23352 11.4181C8.23352 11.6655 8.14011 11.8744 7.9533 12.0448C7.77198 12.2152 7.55769 12.3004 7.31044 12.3004Z"
		fill="currentColor"
	/>
</svg>
