<svg color="rgb(var(--foreground, 0, 0, 0))" viewBox="0 0 15 16" fill="none">
	<path
		d="M14.0483 1.46458C13.6307 1.04496 13.1345 0.780654 12.5597 0.671662C11.9848 0.557221 11.3503 0.5 10.6562 0.5H4.31941C3.63612 0.5 3.00705 0.557221 2.43221 0.671662C1.8628 0.780654 1.36931 1.04496 0.951735 1.46458C0.539588 1.87875 0.276573 2.37193 0.16269 2.94414C0.0542299 3.51635 0 4.14578 0 4.83243V11.1431C0 11.8406 0.0542299 12.4782 0.16269 13.0559C0.27115 13.6281 0.534165 14.1213 0.951735 14.5354C1.36931 14.955 1.8628 15.2193 2.43221 15.3283C3.00705 15.4428 3.64154 15.5 4.33568 15.5H10.6562C11.3503 15.5 11.9848 15.4428 12.5597 15.3283C13.1345 15.2193 13.6307 14.955 14.0483 14.5354C14.4604 14.1213 14.7207 13.6281 14.8292 13.0559C14.9431 12.4782 15 11.8406 15 11.1431V4.85695C15 4.1594 14.9431 3.52452 14.8292 2.95232C14.7207 2.37466 14.4604 1.87875 14.0483 1.46458ZM13.6903 4.62807V11.3638C13.6903 11.7888 13.6497 12.203 13.5683 12.6063C13.4924 13.0041 13.3324 13.3283 13.0884 13.579C12.8444 13.8242 12.519 13.985 12.1123 14.0613C11.711 14.1431 11.3015 14.1839 10.8839 14.1839H4.11605C3.69848 14.1839 3.28633 14.1431 2.87961 14.0613C2.47831 13.985 2.15293 13.8242 1.90347 13.579C1.65944 13.3283 1.49946 13.0041 1.42354 12.6063C1.34761 12.203 1.30965 11.7888 1.30965 11.3638V4.65259C1.30965 4.22207 1.34761 3.80518 1.42354 3.40191C1.49946 2.99319 1.65944 2.66621 1.90347 2.42098C2.14751 2.1703 2.47288 2.00681 2.87961 1.93052C3.29176 1.85422 3.71204 1.81608 4.14046 1.81608H10.8839C11.3015 1.81608 11.711 1.85695 12.1123 1.93869C12.519 2.01499 12.8444 2.17575 13.0884 2.42098C13.3379 2.67166 13.5005 2.99864 13.5765 3.40191C13.6524 3.79973 13.6903 4.20845 13.6903 4.62807ZM7.34544 9.67984C7.54609 9.67984 7.70336 9.62261 7.81725 9.50817C7.93655 9.39373 7.9962 9.25749 7.9962 9.09945C7.9962 9.08311 7.9962 9.06676 7.9962 9.05041C7.9962 9.02861 7.9962 9.01226 7.9962 9.00136C7.9962 8.77248 8.06399 8.57629 8.19957 8.41281C8.33514 8.24387 8.54664 8.06403 8.83406 7.8733C9.22451 7.61172 9.54718 7.33924 9.80206 7.05586C10.0569 6.77248 10.1844 6.38556 10.1844 5.8951C10.1844 5.44278 10.0624 5.06131 9.81833 4.75068C9.57972 4.44005 9.26518 4.20572 8.87473 4.04768C8.48427 3.8842 8.05857 3.80245 7.59761 3.80245C6.89805 3.80245 6.32592 3.94687 5.88124 4.23569C5.44197 4.51907 5.1654 4.84877 5.05152 5.2248C5.02983 5.29019 5.01356 5.35559 5.00271 5.42098C4.99187 5.48638 4.98644 5.5545 4.98644 5.62534C4.98644 5.81063 5.04609 5.95232 5.1654 6.05041C5.28471 6.14305 5.41215 6.18937 5.54772 6.18937C5.6833 6.18937 5.79718 6.1594 5.88937 6.09945C5.98698 6.03951 6.07104 5.96049 6.14154 5.8624L6.28796 5.66621C6.38557 5.50817 6.49675 5.37466 6.62147 5.26567C6.7462 5.15123 6.88449 5.06403 7.03633 5.00409C7.1936 4.94414 7.36171 4.91417 7.54067 4.91417C7.91486 4.91417 8.21312 5.01226 8.43547 5.20845C8.65781 5.39918 8.76898 5.64986 8.76898 5.96049C8.76898 6.23842 8.68221 6.4673 8.50868 6.64714C8.33514 6.82153 8.06941 7.03406 7.7115 7.28474C7.41865 7.48638 7.17462 7.70981 6.97939 7.95504C6.78959 8.20027 6.69468 8.52452 6.69468 8.92779C6.69468 8.94414 6.69468 8.96321 6.69468 8.98501C6.69468 9.00136 6.69468 9.01771 6.69468 9.03406C6.69468 9.46458 6.9116 9.67984 7.34544 9.67984ZM7.32104 12.1158C7.55965 12.1158 7.76573 12.0341 7.93926 11.8706C8.1128 11.7071 8.19957 11.5054 8.19957 11.2657C8.19957 11.0259 8.1128 10.8243 7.93926 10.6608C7.76573 10.4973 7.55965 10.4155 7.32104 10.4155C7.08243 10.4155 6.87636 10.5 6.70282 10.6689C6.53471 10.8324 6.45065 11.0313 6.45065 11.2657C6.45065 11.5 6.53742 11.7016 6.71095 11.8706C6.88449 12.0341 7.08785 12.1158 7.32104 12.1158Z"
		fill="currentColor"
	/>
</svg>
