<svg viewBox="0 0 16 16" fill="none" color="rgb(var(--foreground, 0, 0, 0))">
	<path
		d="M8 16C9.09281 16 10.1203 15.7909 11.0824 15.3726C12.0497 14.9542 12.902 14.3765 13.6392 13.6392C14.3765 12.902 14.9542 12.0523 15.3726 11.0902C15.7909 10.1229 16 9.09281 16 8C16 6.90719 15.7909 5.87974 15.3726 4.91765C14.9542 3.95033 14.3765 3.09804 13.6392 2.36078C12.902 1.62353 12.0497 1.04575 11.0824 0.627451C10.115 0.20915 9.08497 0 7.99216 0C6.89935 0 5.86928 0.20915 4.90196 0.627451C3.93987 1.04575 3.0902 1.62353 2.35294 2.36078C1.62092 3.09804 1.04575 3.95033 0.627451 4.91765C0.20915 5.87974 0 6.90719 0 8C0 9.09281 0.20915 10.1229 0.627451 11.0902C1.04575 12.0523 1.62353 12.902 2.36078 13.6392C3.09804 14.3765 3.94771 14.9542 4.9098 15.3726C5.87712 15.7909 6.90719 16 8 16ZM7.84314 9.67843C7.40915 9.67843 7.19216 9.46405 7.19216 9.03529C7.19216 9.01961 7.19216 9.00392 7.19216 8.98824C7.19216 8.96732 7.19216 8.94902 7.19216 8.93333C7.19216 8.53072 7.28889 8.20915 7.48235 7.96863C7.67582 7.72811 7.91634 7.50588 8.20392 7.30196C8.55948 7.05621 8.82353 6.84706 8.99608 6.67451C9.16863 6.49673 9.2549 6.26928 9.2549 5.99216C9.2549 5.68366 9.14248 5.43529 8.91765 5.24706C8.69804 5.05882 8.40523 4.96471 8.03922 4.96471C7.86144 4.96471 7.69673 4.99346 7.5451 5.05098C7.39346 5.1085 7.2549 5.19216 7.12941 5.30196C7.00392 5.41177 6.8915 5.5451 6.79216 5.70196L6.65098 5.89804C6.57778 5.99216 6.49412 6.07059 6.4 6.13333C6.30588 6.19085 6.19085 6.21961 6.0549 6.21961C5.91895 6.21961 5.79085 6.17255 5.67059 6.07843C5.55033 5.97908 5.4902 5.84052 5.4902 5.66275C5.4902 5.59477 5.49543 5.5268 5.50588 5.45882C5.52157 5.39085 5.53987 5.32549 5.56078 5.26275C5.67582 4.88627 5.95033 4.55948 6.38431 4.28235C6.82353 4.00523 7.39346 3.86667 8.09412 3.86667C8.55425 3.86667 8.97778 3.9451 9.36471 4.10196C9.75686 4.25882 10.0732 4.4915 10.3137 4.8C10.5542 5.10327 10.6745 5.47974 10.6745 5.92941C10.6745 6.41569 10.5464 6.8 10.2902 7.08235C10.0392 7.36471 9.71765 7.63399 9.32549 7.8902C9.04314 8.0732 8.83399 8.24837 8.69804 8.41569C8.56209 8.57778 8.49412 8.77386 8.49412 9.00392C8.49412 9.01438 8.49412 9.03007 8.49412 9.05098C8.49412 9.06667 8.49412 9.08235 8.49412 9.09804C8.49412 9.26013 8.4366 9.39869 8.32157 9.51373C8.20654 9.62353 8.04706 9.67843 7.84314 9.67843ZM7.81961 12.0863C7.58954 12.0863 7.38562 12.0052 7.20784 11.8431C7.03529 11.681 6.94902 11.4824 6.94902 11.2471C6.94902 11.017 7.03529 10.8183 7.20784 10.651C7.38039 10.4837 7.58431 10.4 7.81961 10.4C8.06013 10.4 8.26667 10.4837 8.43922 10.651C8.61177 10.8131 8.69804 11.0118 8.69804 11.2471C8.69804 11.4824 8.60915 11.681 8.43137 11.8431C8.25882 12.0052 8.0549 12.0863 7.81961 12.0863Z"
		fill="currentColor"
	/>
</svg>
