<svg color="rgb(var(--foreground, 0, 0, 0))" viewBox="0 0 15 16" fill="none">
	<path
		d="M0 4.79386H1.31179V3.09098C1.31179 2.6673 1.42042 2.34954 1.6377 2.1377C1.85497 1.92042 2.1673 1.81179 2.57469 1.81179H4.26127V0.5H2.55839C1.70559 0.5 1.06464 0.711841 0.635524 1.13552C0.211841 1.55378 0 2.18387 0 3.0258V4.79386ZM5.37751 1.81179H9.62249V0.5H5.37751V1.81179ZM13.6882 4.79386H15V3.0258C15 2.18387 14.7854 1.55378 14.3563 1.13552C13.9326 0.711841 13.2944 0.5 12.4416 0.5H10.7387V1.81179H12.4253C12.8273 1.81179 13.1369 1.92042 13.3542 2.1377C13.5769 2.34954 13.6882 2.6673 13.6882 3.09098V4.79386ZM13.6882 10.0899H15V5.9101H13.6882V10.0899ZM10.7387 15.5H12.4416C13.2944 15.5 13.9326 15.2882 14.3563 14.8645C14.7854 14.4462 15 13.8161 15 12.9742V11.2061H13.6882V12.909C13.6882 13.3327 13.5769 13.6532 13.3542 13.8705C13.1369 14.0823 12.8273 14.1882 12.4253 14.1882H10.7387V15.5ZM5.37751 15.5H9.62249V14.1882H5.37751V15.5ZM2.55839 15.5H4.26127V14.1882H2.57469C2.1673 14.1882 1.85497 14.0823 1.6377 13.8705C1.42042 13.6532 1.31179 13.3327 1.31179 12.909V11.2061H0V12.9742C0 13.8161 0.211841 14.4462 0.635524 14.8645C1.06464 15.2882 1.70559 15.5 2.55839 15.5ZM0 10.0899H1.31179V5.9101H0V10.0899ZM7.34927 9.67436C7.55024 9.67436 7.70777 9.61733 7.82184 9.50326C7.94134 9.38919 8.00109 9.25339 8.00109 9.09587C8.00109 9.07958 8.00109 9.06328 8.00109 9.04698C8.00109 9.02526 8.00109 9.00896 8.00109 8.9981C8.00109 8.76996 8.06898 8.57442 8.20478 8.41146C8.34058 8.24307 8.55242 8.06382 8.8403 7.87371C9.23139 7.61298 9.55459 7.34139 9.80989 7.05894C10.0652 6.77648 10.1928 6.39082 10.1928 5.90196C10.1928 5.45111 10.0706 5.07089 9.82618 4.76127C9.58718 4.45166 9.27213 4.21809 8.88104 4.06056C8.48995 3.89761 8.06355 3.81613 7.60185 3.81613C6.90114 3.81613 6.32808 3.96008 5.88267 4.24796C5.44269 4.53042 5.16567 4.85904 5.0516 5.23384C5.02988 5.29902 5.01358 5.3642 5.00272 5.42939C4.99185 5.49457 4.98642 5.56247 4.98642 5.63308C4.98642 5.81776 5.04617 5.95899 5.16567 6.05676C5.28517 6.1491 5.41282 6.19527 5.54861 6.19527C5.68441 6.19527 5.79848 6.1654 5.89082 6.10565C5.98859 6.0459 6.07279 5.96714 6.1434 5.86936L6.29006 5.67382C6.38783 5.51629 6.49918 5.38321 6.62412 5.27458C6.74905 5.16051 6.88756 5.0736 7.03965 5.01385C7.19718 4.9541 7.36556 4.92423 7.54481 4.92423C7.91961 4.92423 8.21836 5.022 8.44106 5.21754C8.66377 5.40766 8.77512 5.65752 8.77512 5.96714C8.77512 6.24416 8.68821 6.4723 8.51439 6.65155C8.34058 6.82537 8.07442 7.03721 7.71591 7.28707C7.4226 7.48805 7.17816 7.71075 6.98262 7.95519C6.7925 8.19962 6.69745 8.52281 6.69745 8.92477C6.69745 8.94106 6.69745 8.96008 6.69745 8.9818C6.69745 8.9981 6.69745 9.01439 6.69745 9.03069C6.69745 9.4598 6.91472 9.67436 7.34927 9.67436ZM7.32482 12.1024C7.56382 12.1024 7.77023 12.0209 7.94405 11.858C8.11787 11.695 8.20478 11.494 8.20478 11.255C8.20478 11.016 8.11787 10.815 7.94405 10.6521C7.77023 10.4891 7.56382 10.4077 7.32482 10.4077C7.08582 10.4077 6.87941 10.4919 6.70559 10.6602C6.53721 10.8232 6.45301 11.0215 6.45301 11.255C6.45301 11.4886 6.53992 11.6896 6.71374 11.858C6.88756 12.0209 7.09125 12.1024 7.32482 12.1024Z"
		fill="currentColor"
	/>
</svg>
