<svg color="rgb(var(--foreground, 0, 0, 0))" viewBox="0 0 17 18" fill="none">
	<path
		d="M4.58167 17.0026C4.73593 17.0026 4.87477 16.9614 4.99819 16.8791C5.12674 16.802 5.28358 16.6786 5.46869 16.5089L8.25318 13.9635H13.4673C14.2335 13.9635 14.8789 13.8273 15.4034 13.5547C15.9279 13.2822 16.3238 12.8837 16.5912 12.3592C16.8637 11.8347 17 11.1945 17 10.4386V4.53023C17 3.77433 16.8637 3.13413 16.5912 2.60963C16.3238 2.08513 15.9279 1.68661 15.4034 1.41407C14.8789 1.1364 14.2335 0.997559 13.4673 0.997559H3.53267C2.76649 0.997559 2.12114 1.1364 1.59664 1.41407C1.07214 1.68661 0.673624 2.08513 0.401089 2.60963C0.133696 3.13413 0 3.77433 0 4.53023V10.4386C0 11.1945 0.133696 11.8347 0.401089 12.3592C0.673624 12.8837 1.07214 13.2822 1.59664 13.5547C2.12114 13.8273 2.76649 13.9635 3.53267 13.9635H3.89519V16.2081C3.89519 16.4498 3.95433 16.6426 4.0726 16.7866C4.19087 16.9306 4.36056 17.0026 4.58167 17.0026ZM8.34573 9.12732C7.91893 9.12732 7.70554 8.91649 7.70554 8.49484C7.70554 8.47941 7.70554 8.46398 7.70554 8.44856C7.70554 8.42799 7.70554 8.40999 7.70554 8.39456C7.70554 7.99862 7.80067 7.68237 7.99093 7.44583C8.18119 7.20929 8.41773 6.99075 8.70054 6.79021C9.05021 6.54853 9.30989 6.34284 9.47958 6.17315C9.64927 5.99831 9.73412 5.77463 9.73412 5.5021C9.73412 5.19871 9.62356 4.95446 9.40245 4.76934C9.18648 4.58422 8.89852 4.49166 8.53857 4.49166C8.36373 4.49166 8.20175 4.51994 8.05263 4.57651C7.90351 4.63307 7.76724 4.71534 7.64383 4.82333C7.52042 4.93132 7.40986 5.06244 7.31216 5.21671L7.17332 5.40954C7.10133 5.5021 7.01906 5.57923 6.9265 5.64093C6.83394 5.6975 6.72081 5.72578 6.58711 5.72578C6.45342 5.72578 6.32744 5.6795 6.20917 5.58694C6.0909 5.48924 6.03176 5.35297 6.03176 5.17814C6.03176 5.11129 6.0369 5.04444 6.04719 4.9776C6.06261 4.91075 6.08061 4.84647 6.10118 4.78476C6.21431 4.41453 6.48427 4.09314 6.91107 3.82061C7.34301 3.54807 7.90351 3.41181 8.59256 3.41181C9.04507 3.41181 9.46159 3.48894 9.8421 3.6432C10.2278 3.79747 10.5389 4.02629 10.7754 4.32968C11.0119 4.62793 11.1302 4.99816 11.1302 5.44039C11.1302 5.91861 11.0042 6.29656 10.7523 6.57424C10.5054 6.85191 10.1892 7.11674 9.80354 7.3687C9.52586 7.54868 9.32018 7.72094 9.18648 7.88549C9.05278 8.0449 8.98593 8.23773 8.98593 8.46398C8.98593 8.47427 8.98593 8.48969 8.98593 8.51026C8.98593 8.52569 8.98593 8.54112 8.98593 8.55654C8.98593 8.71595 8.92937 8.85222 8.81624 8.96534C8.70312 9.07333 8.54628 9.12732 8.34573 9.12732ZM8.32259 11.4953C8.09634 11.4953 7.8958 11.4156 7.72096 11.2562C7.55127 11.0968 7.46642 10.9014 7.46642 10.67C7.46642 10.4437 7.55127 10.2483 7.72096 10.0838C7.89065 9.91922 8.0912 9.83694 8.32259 9.83694C8.55913 9.83694 8.76225 9.91922 8.93194 10.0838C9.10163 10.2432 9.18648 10.4386 9.18648 10.67C9.18648 10.9014 9.09906 11.0968 8.92423 11.2562C8.75454 11.4156 8.55399 11.4953 8.32259 11.4953Z"
		fill="currentColor"
	/>
</svg>
