<svg color="rgb(var(--foreground, 0, 0, 0))" viewBox="0 0 17 16" fill="none">
	<path
		d="M4.74365 16C4.93391 16 5.10874 15.9484 5.26815 15.8453C5.42756 15.7422 5.62296 15.5876 5.85436 15.3813L8.51543 13.0072H13.4673C14.2335 13.0072 14.8789 12.8706 15.4034 12.5974C15.9279 12.319 16.3238 11.9169 16.5912 11.391C16.8637 10.8652 17 10.2233 17 9.46544V3.54181C17 2.78395 16.8637 2.1421 16.5912 1.61624C16.3238 1.09038 15.9279 0.690833 15.4034 0.417593C14.8789 0.139198 14.2335 0 13.4673 0H3.53267C2.76649 0 2.12114 0.139198 1.59664 0.417593C1.07214 0.690833 0.673624 1.09038 0.401089 1.61624C0.133696 2.1421 0 2.78395 0 3.54181V9.46544C0 10.2233 0.133696 10.8652 0.401089 11.391C0.673624 11.9169 1.07214 12.319 1.59664 12.5974C2.12114 12.8706 2.76649 13.0072 3.53267 13.0072H3.9029V15.0179C3.9029 15.3169 3.97489 15.5541 4.11887 15.7293C4.268 15.9098 4.47626 16 4.74365 16ZM5.05989 14.5848V12.3422C5.05989 12.1308 5.01618 11.9813 4.92877 11.8937C4.84135 11.806 4.69223 11.7622 4.4814 11.7622H3.53267C2.75106 11.7622 2.17256 11.5689 1.79719 11.1822C1.42695 10.7904 1.24183 10.2156 1.24183 9.45771V3.54181C1.24183 2.78911 1.42695 2.21943 1.79719 1.83277C2.17256 1.44095 2.75106 1.24505 3.53267 1.24505H13.4673C14.2438 1.24505 14.8197 1.44095 15.1951 1.83277C15.5705 2.21943 15.7582 2.78911 15.7582 3.54181V9.45771C15.7582 10.2156 15.5705 10.7904 15.1951 11.1822C14.8197 11.5689 14.2438 11.7622 13.4673 11.7622H8.46915C8.25318 11.7622 8.07834 11.7854 7.94465 11.8318C7.81095 11.8782 7.67211 11.9762 7.52813 12.1257L5.05989 14.5848ZM8.35345 8.1044C8.54371 8.1044 8.69283 8.05027 8.80082 7.942C8.91394 7.83374 8.97051 7.70485 8.97051 7.55534C8.97051 7.53987 8.97051 7.52441 8.97051 7.50894C8.97051 7.48832 8.97051 7.47285 8.97051 7.46254C8.97051 7.24601 9.03479 7.06042 9.16334 6.90575C9.29189 6.74593 9.49244 6.5758 9.76497 6.39536C10.1352 6.1479 10.4412 5.89012 10.6828 5.62204C10.9245 5.35396 11.0454 4.98792 11.0454 4.52392C11.0454 4.09602 10.9297 3.73514 10.6983 3.44128C10.472 3.14741 10.1738 2.92573 9.80354 2.77622C9.4333 2.62156 9.02964 2.54422 8.59256 2.54422C7.92922 2.54422 7.38672 2.68084 6.96506 2.95408C6.54855 3.22217 6.2863 3.53407 6.17831 3.8898C6.15774 3.95167 6.14232 4.01353 6.13203 4.0754C6.12175 4.13726 6.11661 4.20171 6.11661 4.26873C6.11661 4.44402 6.17317 4.57806 6.2863 4.67086C6.39943 4.7585 6.52027 4.80232 6.64882 4.80232C6.77737 4.80232 6.88536 4.77396 6.97278 4.71726C7.06534 4.66054 7.14504 4.58579 7.21189 4.49299L7.35073 4.30739C7.44328 4.15789 7.5487 4.03158 7.66697 3.92847C7.78524 3.8202 7.91636 3.73772 8.06034 3.68101C8.20947 3.6243 8.36887 3.59594 8.53857 3.59594C8.89338 3.59594 9.17619 3.68874 9.38702 3.87434C9.59785 4.05478 9.70327 4.29193 9.70327 4.58579C9.70327 4.84872 9.62099 5.06525 9.45644 5.23538C9.29189 5.40035 9.03993 5.60142 8.70054 5.83857C8.42287 6.02932 8.19147 6.2407 8.00635 6.47269C7.82638 6.70469 7.73639 7.01144 7.73639 7.39294C7.73639 7.40841 7.73639 7.42645 7.73639 7.44708C7.73639 7.46254 7.73639 7.47801 7.73639 7.49348C7.73639 7.90076 7.94207 8.1044 8.35345 8.1044ZM8.33031 10.4089C8.55656 10.4089 8.75197 10.3316 8.91652 10.1769C9.08106 10.0222 9.16334 9.83148 9.16334 9.60464C9.16334 9.3778 9.08106 9.18705 8.91652 9.03238C8.75197 8.87772 8.55656 8.80039 8.33031 8.80039C8.10405 8.80039 7.90865 8.8803 7.7441 9.04012C7.58469 9.19478 7.50499 9.38295 7.50499 9.60464C7.50499 9.82633 7.58727 10.0171 7.75181 10.1769C7.91636 10.3316 8.10919 10.4089 8.33031 10.4089Z"
		fill="currentColor"
	/>
</svg>
