<svg color="rgb(var(--foreground, 0, 0, 0))" viewBox="0 0 18 18" fill="none">
	<path
		d="M0.888953 10.754L7.24605 17.111C7.83334 17.6983 8.41799 17.9946 9 17.9999C9.58201 18.0052 10.164 17.7169 10.746 17.1349L17.1349 10.7381C17.7169 10.1614 18.0052 9.58201 17.9999 9C17.9946 8.4127 17.6983 7.82541 17.111 7.23811L10.7619 0.888953C10.1746 0.301656 9.58994 0.00536246 9.00794 7.14995e-05C8.42593 -0.00521946 7.84392 0.283138 7.26192 0.865144L0.865144 7.25398C0.283138 7.84128 -0.00521946 8.42593 7.14995e-05 9.00794C0.00536246 9.58465 0.301656 10.1667 0.888953 10.754ZM8.83333 10.6984C8.39418 10.6984 8.17461 10.4815 8.17461 10.0476C8.17461 10.0317 8.17461 10.0159 8.17461 9.99999C8.17461 9.97883 8.17461 9.96031 8.17461 9.94444C8.17461 9.53703 8.27249 9.21164 8.46826 8.96826C8.66402 8.72487 8.90741 8.5 9.19841 8.29366C9.5582 8.04498 9.82539 7.83334 9.99999 7.65874C10.1746 7.47885 10.2619 7.24869 10.2619 6.96827C10.2619 6.6561 10.1481 6.40478 9.92063 6.21431C9.69841 6.02383 9.40211 5.9286 9.03174 5.9286C8.85185 5.9286 8.68519 5.9577 8.53175 6.0159C8.37831 6.0741 8.2381 6.15875 8.11112 6.26986C7.98413 6.38097 7.87038 6.51589 7.76985 6.67462L7.62699 6.87303C7.55292 6.96827 7.46827 7.04764 7.37303 7.11113C7.27779 7.16933 7.16139 7.19843 7.02382 7.19843C6.88626 7.19843 6.75663 7.15081 6.63494 7.05557C6.51325 6.95504 6.4524 6.81483 6.4524 6.63494C6.4524 6.56616 6.45769 6.49738 6.46827 6.42859C6.48415 6.35981 6.50266 6.29367 6.52383 6.23018C6.64023 5.84923 6.91801 5.51855 7.35716 5.23813C7.8016 4.95771 8.37831 4.81749 9.0873 4.81749C9.55291 4.81749 9.98147 4.89686 10.373 5.05559C10.7698 5.21432 11.0899 5.44976 11.3333 5.76193C11.5767 6.06881 11.6984 6.44976 11.6984 6.90478C11.6984 7.39684 11.5688 7.78572 11.3095 8.07144C11.0555 8.35715 10.7301 8.62963 10.3333 8.88889C10.0476 9.07407 9.83597 9.25132 9.69841 9.42063C9.56084 9.58465 9.49206 9.78306 9.49206 10.0159C9.49206 10.0264 9.49206 10.0423 9.49206 10.0635C9.49206 10.0794 9.49206 10.0952 9.49206 10.1111C9.49206 10.2751 9.43386 10.4153 9.31746 10.5317C9.20106 10.6428 9.03968 10.6984 8.83333 10.6984ZM8.80952 13.1349C8.57672 13.1349 8.37037 13.0529 8.19048 12.8889C8.01588 12.7248 7.92858 12.5238 7.92858 12.2857C7.92858 12.0529 8.01588 11.8518 8.19048 11.6825C8.36508 11.5132 8.57143 11.4286 8.80952 11.4286C9.05291 11.4286 9.2619 11.5132 9.4365 11.6825C9.61111 11.8465 9.69841 12.0476 9.69841 12.2857C9.69841 12.5238 9.60846 12.7248 9.42857 12.8889C9.25397 13.0529 9.04762 13.1349 8.80952 13.1349Z"
		fill="currentColor"
	/>
</svg>
