<svg viewBox="0 0 36 24" fill="none" xmlns="http://www.w3.org/2000/svg">
	<path d="M18 24H0V0H18V24Z" fill="#73AF00" />
	<path d="M18 0H36V24H18V0Z" fill="#F5F5F5" />
	<path
		d="M22.833 12.37L21.143 12.911L21.1 14.714C21.0997 14.7357 21.0925 14.7568 21.0795 14.7741C21.0664 14.7915 21.0483 14.8044 21.0275 14.8108C21.0068 14.8172 20.9845 14.8169 20.964 14.81C20.9434 14.803 20.9256 14.7897 20.913 14.772L19.884 13.304L18.186 13.819C18.165 13.8252 18.1425 13.8246 18.1218 13.8173C18.1011 13.8099 18.0833 13.7962 18.0708 13.7782C18.0584 13.7601 18.052 13.7385 18.0526 13.7166C18.0532 13.6946 18.0606 13.6734 18.074 13.656L19.128 12.207L18.122 10.723C18.1092 10.7051 18.1024 10.6836 18.1026 10.6616C18.1028 10.6396 18.1099 10.6182 18.1231 10.6005C18.1362 10.5828 18.1546 10.5698 18.1756 10.5632C18.1966 10.5566 18.2192 10.5569 18.24 10.564L19.92 11.136L20.996 9.704C21.0091 9.68672 21.0274 9.67402 21.0482 9.66773C21.0689 9.66144 21.0912 9.66188 21.1117 9.66897C21.1322 9.67607 21.1499 9.68947 21.1624 9.70725C21.1748 9.72503 21.1814 9.7463 21.181 9.768L21.165 11.571L22.837 12.171C22.8569 12.1791 22.8739 12.193 22.8857 12.2109C22.8975 12.2288 22.9036 12.2499 22.9032 12.2714C22.9027 12.2928 22.8958 12.3137 22.8833 12.3311C22.8707 12.3485 22.8532 12.3627 22.833 12.37ZM21.474 15.599C20.7818 16.08 19.959 16.3379 19.116 16.338C17.9816 16.3136 16.9019 15.8459 16.1083 15.035C15.3146 14.2241 14.8701 13.1346 14.8701 12C14.8701 10.8654 15.3146 9.77586 16.1083 8.96498C16.9019 8.1541 17.9816 7.68636 19.116 7.662C19.9579 7.66223 20.7796 7.91972 21.471 8.4C21.4922 8.41497 21.5183 8.42145 21.5441 8.41817C21.5698 8.41489 21.5934 8.40208 21.6102 8.38227C21.627 8.36246 21.6358 8.33708 21.6349 8.31112C21.6339 8.28516 21.6232 8.2605 21.605 8.242C21.0944 7.69558 20.4727 7.26488 19.7817 6.97889C19.0907 6.6929 18.3464 6.55825 17.599 6.584C16.1978 6.65984 14.8805 7.27599 13.9242 8.30292C12.9678 9.32985 12.4469 10.6876 12.4708 12.0906C12.4948 13.4937 13.0618 14.8329 14.0526 15.8265C15.0435 16.8202 16.381 17.391 17.784 17.419C18.5015 17.4183 19.2113 17.2702 19.8692 16.984C20.5272 16.6978 21.1193 16.2795 21.609 15.755C21.6192 15.7461 21.6276 15.7353 21.6337 15.7232C21.6398 15.7111 21.6434 15.6979 21.6444 15.6844C21.6454 15.6709 21.6437 15.6573 21.6394 15.6445C21.6351 15.6316 21.6284 15.6197 21.6195 15.6095C21.6106 15.5993 21.5998 15.5909 21.5877 15.5848C21.5756 15.5787 21.5624 15.5751 21.5489 15.5741C21.5354 15.5731 21.5218 15.5748 21.509 15.5791C21.4961 15.5834 21.4842 15.5901 21.474 15.599Z"
		fill="#FF4B55"
	/>
</svg>
