<svg viewBox="0 0 36 24" fill="none" xmlns="http://www.w3.org/2000/svg">
	<path d="M36 12.715H0V0H36V12.715Z" fill="#FF4B55" />
	<path d="M0 12H36V24H0V12Z" fill="#464655" />
	<path
		d="M14.553 8.23C14.5347 8.21631 14.5212 8.19726 14.5142 8.17551C14.5072 8.15376 14.5072 8.13037 14.5141 8.10861C14.5211 8.08684 14.5346 8.06777 14.5528 8.05404C14.5711 8.04032 14.5932 8.03261 14.616 8.032L15.957 8.022L16.382 6.727C16.3891 6.70547 16.4029 6.68673 16.4213 6.67345C16.4397 6.66017 16.4618 6.65303 16.4845 6.65303C16.5072 6.65303 16.5293 6.66017 16.5477 6.67345C16.5661 6.68673 16.5799 6.70547 16.587 6.727L17.011 8.021L18.353 8.031C18.3764 8.03105 18.3991 8.03854 18.4179 8.05237C18.4367 8.06621 18.4507 8.08567 18.4577 8.10795C18.4647 8.13023 18.4644 8.15416 18.4569 8.17628C18.4494 8.19841 18.4351 8.21757 18.416 8.231L17.337 9.041L17.742 10.342C17.749 10.3637 17.7491 10.3871 17.7421 10.4088C17.7351 10.4305 17.7215 10.4495 17.7032 10.4631C17.6849 10.4767 17.6627 10.4842 17.6399 10.4845C17.6171 10.4849 17.5947 10.478 17.576 10.465L16.484 9.672L15.394 10.465C15.3753 10.4784 15.3528 10.4856 15.3298 10.4855C15.3067 10.4853 15.2843 10.4779 15.2658 10.4642C15.2472 10.4506 15.2335 10.4314 15.2265 10.4094C15.2195 10.3875 15.2197 10.3639 15.227 10.342L15.632 9.042L14.553 8.23ZM14.418 11.632C14.2159 11.4437 14.0552 11.2154 13.946 10.9617C13.8369 10.7079 13.7817 10.4342 13.784 10.158C13.5593 10.3902 13.3844 10.6657 13.2699 10.9678C13.1553 11.2699 13.1037 11.5922 13.118 11.915C13.2051 12.3285 13.3879 12.7159 13.6519 13.0459C13.9159 13.3758 14.2537 13.6393 14.638 13.815C15.165 14.167 19.355 16.856 21.801 18.425L22.323 17.72C22.323 17.72 14.645 11.825 14.418 11.632ZM24.621 19.447C24.521 19.375 23.716 18.77 22.601 17.929L22.196 18.678L23.56 19.553C23.56 19.553 23.638 20.579 24.453 20.408C24.5401 20.368 24.6162 20.3074 24.6747 20.2315C24.7333 20.1555 24.7725 20.0665 24.789 19.9721C24.8055 19.8777 24.7989 19.7806 24.7696 19.6893C24.7403 19.598 24.6893 19.5142 24.621 19.447ZM16.138 17.053C15.3522 17.0517 14.5758 16.8829 13.8605 16.5576C13.1452 16.2324 12.5075 15.7583 11.99 15.167L11.081 15.999C11.381 16.3468 11.715 16.6637 12.078 16.945L11.897 17.264L13.241 18.054L13.419 17.74C14.0363 18.0131 14.6914 18.1911 15.362 18.268V18.631H16.914V18.268C17.5846 18.1911 18.2397 18.0131 18.857 17.74L19.035 18.053L19.569 17.739L17.99 16.726C17.3961 16.9409 16.7696 17.0515 16.138 17.053ZM21.724 11.368C21.7265 12.8218 21.1747 14.2219 20.181 15.283L21.162 16.037C21.323 15.8658 21.4752 15.6866 21.618 15.5L21.932 15.684L22.707 14.316L22.399 14.136C22.6683 13.5057 22.8435 12.8393 22.919 12.158H23.276V10.58H22.918C22.8428 9.89914 22.6679 9.23302 22.399 8.603L22.707 8.422L21.932 7.054L21.618 7.238C21.2182 6.68925 20.7397 6.20236 20.198 5.793L20.378 5.474L19.035 4.684L18.857 4.998C18.3463 4.77358 17.8094 4.614 17.259 4.523L17.055 5.768C18.3694 5.99988 19.5594 6.68945 20.4141 7.71459C21.2689 8.73973 21.7333 10.0343 21.725 11.369L21.724 11.368Z"
		fill="#FFE15A"
	/>
</svg>
