<svg viewBox="0 0 36 24" fill="none" xmlns="http://www.w3.org/2000/svg">
	<path d="M36 12H0V0H36V12Z" fill="#FF4B55" />
	<path d="M0 12H36V24H0V12Z" fill="#73AF00" />
	<path
		d="M18.189 8.555L18.969 10.938L21.438 10.958C21.48 10.9593 21.5206 10.9736 21.5541 10.9989C21.5877 11.0242 21.6125 11.0594 21.6253 11.0994C21.638 11.1395 21.638 11.1825 21.6252 11.2225C21.6124 11.2626 21.5876 11.2977 21.554 11.323L19.569 12.815L20.314 15.209C20.3274 15.2491 20.3277 15.2923 20.315 15.3326C20.3022 15.3729 20.2771 15.4081 20.2431 15.4331C20.2091 15.4582 20.1681 15.4719 20.1258 15.4723C20.0836 15.4726 20.0424 15.4596 20.008 15.435L18 13.975L15.992 15.435C15.9576 15.4592 15.9165 15.4719 15.8745 15.4713C15.8325 15.4708 15.7917 15.4571 15.758 15.432C15.7242 15.407 15.6992 15.372 15.6864 15.332C15.6737 15.2919 15.6739 15.2489 15.687 15.209L16.431 12.815L14.446 11.323C14.412 11.2978 14.3868 11.2627 14.3738 11.2224C14.3608 11.1822 14.3606 11.1389 14.3734 11.0986C14.3862 11.0583 14.4112 11.023 14.445 10.9976C14.4788 10.9722 14.5197 10.958 14.562 10.957L17.031 10.938L17.811 8.556C17.8236 8.51572 17.8487 8.48051 17.8827 8.4555C17.9167 8.4305 17.9578 8.41702 18 8.41702C18.0422 8.41702 18.0833 8.4305 18.1173 8.4555C18.1513 8.48051 18.1764 8.51472 18.189 8.555Z"
		fill="#FFE15A"
	/>
</svg>
