<svg viewBox="0 0 36 24" fill="none" xmlns="http://www.w3.org/2000/svg">
	<path d="M36.0001 0H6.10352e-05V23.993H36.0001" fill="#73AF00" />
	<path
		d="M18.0001 10.11L2.83006 0H33.1701L18.0001 10.11ZM2.83006 24H33.1701L18.0001 13.89L2.83006 24Z"
		fill="#FF4B55"
	/>
	<path
		d="M36.0001 0H33.1701L21.6351 7.69C20.631 6.80491 19.3385 6.31656 18.0001 6.31656C16.6616 6.31656 15.3691 6.80491 14.3651 7.69L2.83106 0H6.10352e-05V1.888L12.6601 10.328C12.3314 11.4184 12.3314 12.5816 12.6601 13.672L6.10352e-05 22.112V24H2.83106L14.3651 16.31C15.3691 17.1951 16.6616 17.6834 18.0001 17.6834C19.3385 17.6834 20.631 17.1951 21.6351 16.31L33.1701 24H35.9991V22.112L23.3391 13.672C23.6677 12.5816 23.6677 11.4184 23.3391 10.328L36.0001 1.888"
		fill="#F5F5F5"
	/>
	<path
		d="M19.2441 10.202L18.4021 10.179L18.0001 10.932L17.5981 10.179L16.7561 10.202L17.1961 9.471L16.7561 8.741L17.5981 8.762L18.0001 8.01L18.4021 8.762L19.2441 8.74L18.8041 9.47L19.2441 10.202ZM16.0911 12.947L15.6891 12.194L15.2861 12.947L14.4451 12.925L14.8851 13.655L14.4451 14.386L15.2861 14.364L15.6891 15.117L16.0911 14.364L16.9321 14.386L16.4921 13.656L16.9321 12.926L16.0911 12.947ZM21.5551 12.925L20.7141 12.947L20.3111 12.194L19.9091 12.947L19.0681 12.925L19.5071 13.655L19.0671 14.386L19.9091 14.364L20.3111 15.117L20.7141 14.364L21.5551 14.386L21.1151 13.656L21.5551 12.925Z"
		fill="#FF4B55"
	/>
	<path
		d="M19.4131 10.3L19.2331 10.003L18.9131 9.471L19.2331 8.938L19.4131 8.641L19.0701 8.651L18.4571 8.666L18.0001 7.812L17.5431 8.666L16.5871 8.641L16.7661 8.938L17.0861 9.471L16.5871 10.301L16.9301 10.291L17.5431 10.276L18.0001 11.13L18.4571 10.276L19.0701 10.292L19.4131 10.3ZM18.3471 10.083L18.0001 10.733L17.6521 10.083L16.9251 10.103L17.3051 9.471L16.9251 8.839L17.6521 8.859L18.0001 8.209L18.3471 8.859L19.0751 8.839L18.6951 9.471L19.0751 10.102L18.3471 10.083ZM17.1011 12.826L16.1451 12.851L15.6891 11.996L15.5251 12.302L15.2321 12.851L14.2761 12.826L14.4551 13.123L14.7751 13.656L14.4551 14.188L14.2751 14.486L14.6181 14.476L15.2321 14.461L15.6891 15.315L15.8521 15.009L16.1451 14.461L17.1011 14.486L16.9231 14.188L16.6031 13.656L17.1011 12.826ZM16.3841 13.656L16.7641 14.287L16.0361 14.268L15.6891 14.918L15.3411 14.268L14.6141 14.288L14.9941 13.656L14.6141 13.024L15.3411 13.044L15.6891 12.393L16.0361 13.043L16.7641 13.024L16.3841 13.656ZM21.2241 13.656L21.5451 13.123L21.7251 12.826L20.7681 12.851L20.4751 12.302L20.3111 11.996L19.8551 12.851L18.8991 12.826L19.3971 13.656L19.0771 14.188L18.8991 14.485L19.2411 14.477L19.8551 14.461L20.1481 15.009L20.3111 15.315L20.4751 15.009L20.7681 14.46L21.3821 14.476L21.7241 14.486L21.5451 14.188L21.2241 13.656ZM20.6591 14.268L20.3111 14.918L19.9641 14.268L19.2361 14.288L19.6161 13.656L19.2361 13.024L19.9641 13.044L20.3111 12.394L20.6591 13.044L21.3861 13.024L21.0061 13.656L21.3861 14.287L20.6591 14.268Z"
		fill="#73AF00"
	/>
</svg>
