<svg viewBox="0 0 36 24" fill="none" xmlns="http://www.w3.org/2000/svg">
	<path d="M12 24H0V0H12V24Z" fill="#73AF00" />
	<path d="M12 0H24V24H12V0Z" fill="#FF4B55" />
	<path
		d="M36 0V24H24V0H36ZM20.348 11.325L18.662 11.312L18.129 9.685C18.1205 9.65743 18.1034 9.63331 18.0802 9.61618C18.0569 9.59904 18.0289 9.5898 18 9.5898C17.9711 9.5898 17.9431 9.59904 17.9198 9.61618C17.8966 9.63331 17.8795 9.65743 17.871 9.685L17.338 11.312L15.652 11.325C15.6232 11.3257 15.5953 11.3354 15.5722 11.3528C15.5491 11.3701 15.532 11.3941 15.5232 11.4216C15.5144 11.4491 15.5144 11.4786 15.5231 11.5061C15.5319 11.5336 15.549 11.5577 15.572 11.575L16.929 12.594L16.42 14.229C16.4113 14.2563 16.4113 14.2857 16.4202 14.3129C16.429 14.3402 16.4461 14.364 16.4692 14.381C16.4923 14.398 16.5201 14.4074 16.5488 14.4077C16.5775 14.4081 16.6055 14.3994 16.629 14.383L17.999 13.386L19.371 14.383C19.3944 14.4001 19.4226 14.4094 19.4516 14.4093C19.4806 14.4093 19.5088 14.4 19.5321 14.3828C19.5554 14.3656 19.5727 14.3414 19.5813 14.3138C19.5899 14.2861 19.5894 14.2564 19.58 14.229L19.071 12.593L20.427 11.575C20.45 11.5577 20.4671 11.5336 20.4759 11.5061C20.4846 11.4786 20.4846 11.4491 20.4758 11.4216C20.467 11.3941 20.4499 11.3701 20.4268 11.3528C20.4037 11.3354 20.3768 11.3257 20.348 11.325Z"
		fill="#FFE15A"
	/>
</svg>
