<svg viewBox="0 0 36 24" fill="none" xmlns="http://www.w3.org/2000/svg">
	<path d="M12 24H0V0H12V24Z" fill="#F5F5F5" />
	<path d="M12 0H24V24H12V0Z" fill="#4173CD" />
	<path
		d="M16.198 12.012C15.9945 12.2928 15.8711 12.6236 15.841 12.969C15.841 12.969 16.119 12.889 16.127 12.7C16.123 12.6528 16.1368 12.6058 16.1657 12.5683C16.1945 12.5307 16.2364 12.5053 16.283 12.497V12.875L15.827 13.397C15.827 13.397 15.87 13.774 15.343 14.107C15.1177 14.2228 14.9145 14.3775 14.743 14.564C14.743 14.564 15.264 14.949 15.264 15.043C15.2352 15.2047 15.1948 15.3641 15.143 15.52C15.2298 15.6353 15.3306 15.7394 15.443 15.83C15.517 15.857 15.667 15.852 15.667 15.999H15.351C15.1896 15.8589 15.0361 15.71 14.891 15.553C14.891 15.52 14.971 15.275 14.881 15.193C14.7384 15.1217 14.585 15.0744 14.427 15.053V15.277C14.427 15.3019 14.4216 15.3264 14.4113 15.349C14.4009 15.3717 14.3858 15.3918 14.367 15.408L13.871 15.83C13.8833 16.0021 13.9094 16.173 13.949 16.341C13.985 16.392 14.223 16.352 14.223 16.551H13.874L13.618 15.747C13.618 15.747 13.931 15.537 13.874 15.406C13.7976 15.2679 13.7344 15.1229 13.685 14.973C13.6076 15.0244 13.5178 15.0538 13.425 15.058L13.402 15.057C13.27 15.047 13.047 14.953 13.047 14.421C13.0457 14.409 13.0469 14.3969 13.0506 14.3854C13.0543 14.3739 13.0604 14.3633 13.0685 14.3543C13.0766 14.3453 13.0864 14.3381 13.0975 14.3332C13.1085 14.3283 13.1204 14.3257 13.1325 14.3257C13.1446 14.3257 13.1565 14.3283 13.1675 14.3332C13.1786 14.3381 13.1884 14.3453 13.1965 14.3543C13.2046 14.3633 13.2106 14.3739 13.2144 14.3854C13.2181 14.3969 13.2193 14.409 13.218 14.421C13.218 14.578 13.241 14.847 13.391 14.88C13.4404 14.8831 13.49 14.8755 13.5362 14.8577C13.5825 14.8399 13.6243 14.8124 13.659 14.777C13.6579 14.6817 13.6941 14.5898 13.76 14.521C14.024 14.253 14.73 13.716 14.73 12.947V12.178C14.73 11.859 14.737 11.728 14.936 11.54C15.1119 11.395 15.3352 11.3202 15.563 11.33C15.756 11.315 15.891 11.192 15.956 11.236C16.02 11.279 15.948 11.714 15.948 11.714C15.948 11.714 15.506 11.932 15.506 12.034V12.606C15.5435 12.6081 15.581 12.6006 15.6147 12.5841C15.6485 12.5677 15.6775 12.5428 15.699 12.512C15.756 12.41 16.005 11.823 16.262 11.772C16.519 11.722 16.262 11.961 16.198 12.012ZM22.88 14.334C22.8686 14.334 22.8574 14.3363 22.8469 14.3406C22.8364 14.345 22.8268 14.3514 22.8188 14.3595C22.8108 14.3676 22.8045 14.3772 22.8003 14.3878C22.796 14.3983 22.7939 14.4096 22.794 14.421C22.794 14.578 22.772 14.847 22.622 14.88C22.5726 14.8831 22.523 14.8755 22.4768 14.8577C22.4305 14.8399 22.3887 14.8124 22.354 14.777C22.3551 14.6817 22.3189 14.5898 22.253 14.521C21.989 14.253 21.283 13.716 21.283 12.947V12.178C21.283 11.859 21.276 11.728 21.077 11.54C20.9011 11.395 20.6778 11.3202 20.45 11.33C20.257 11.315 20.122 11.192 20.058 11.235C19.993 11.279 20.065 11.715 20.065 11.715C20.065 11.715 20.507 11.932 20.507 12.033V12.606C20.4695 12.6081 20.432 12.6006 20.3983 12.5841C20.3645 12.5677 20.3355 12.5428 20.314 12.512C20.257 12.41 20.008 11.822 19.751 11.772C19.494 11.722 19.751 11.961 19.815 12.012C20.0185 12.2928 20.1419 12.6236 20.172 12.969C20.172 12.969 19.894 12.889 19.886 12.7C19.89 12.6528 19.8762 12.6058 19.8473 12.5683C19.8185 12.5307 19.7766 12.5053 19.73 12.497V12.875L20.186 13.397C20.186 13.397 20.143 13.774 20.67 14.107C20.8953 14.2228 21.0985 14.3775 21.27 14.564C21.27 14.564 20.749 14.949 20.749 15.043C20.7778 15.2047 20.8182 15.3641 20.87 15.52C20.7832 15.6353 20.6824 15.7394 20.57 15.83C20.496 15.857 20.346 15.852 20.346 15.998H20.662C20.8233 15.8582 20.9769 15.7096 21.122 15.553C21.122 15.52 21.042 15.275 21.132 15.193C21.2746 15.1217 21.428 15.0744 21.586 15.053V15.277C21.586 15.3019 21.5914 15.3264 21.6017 15.349C21.6121 15.3717 21.6272 15.3918 21.646 15.408L22.142 15.83C22.1297 16.0021 22.1036 16.173 22.064 16.341C22.028 16.392 21.79 16.352 21.79 16.551H22.139L22.395 15.747C22.395 15.747 22.082 15.537 22.139 15.406C22.2154 15.2679 22.2786 15.1229 22.328 14.973C22.4054 15.0244 22.4952 15.0538 22.588 15.058L22.611 15.057C22.743 15.047 22.966 14.953 22.966 14.421C22.9661 14.4096 22.964 14.3983 22.9597 14.3878C22.9555 14.3772 22.9492 14.3676 22.9412 14.3595C22.9332 14.3514 22.9236 14.345 22.9131 14.3406C22.9026 14.3363 22.8914 14.334 22.88 14.334Z"
		fill="#C17400"
	/>
	<path
		d="M19.64 10.373C19.6853 10.497 19.6873 10.6326 19.6457 10.7579C19.6041 10.8832 19.5214 10.9907 19.411 11.063L19.335 10.907C19.4074 10.8538 19.4606 10.7785 19.4866 10.6925C19.5125 10.6065 19.5099 10.5144 19.479 10.43C19.413 10.233 19.214 10.149 18.933 10.192C18.9598 10.2871 18.9633 10.3873 18.943 10.484L18.777 10.442C18.7887 10.3874 18.7884 10.3319 18.7759 10.2775C18.7635 10.2231 18.7393 10.1721 18.705 10.128C18.6178 10.0637 18.517 10.0203 18.4104 10.0011C18.3038 9.98184 18.1942 9.98729 18.09 10.017V10.463H17.92V10.017C17.8155 9.98688 17.7054 9.98131 17.5984 10.0007C17.4914 10.0202 17.3903 10.0641 17.303 10.129C17.2694 10.173 17.2457 10.2238 17.2337 10.2778C17.2216 10.3319 17.2213 10.3879 17.233 10.442L17.066 10.484C17.0456 10.3873 17.0491 10.2871 17.076 10.192C16.795 10.149 16.596 10.233 16.53 10.43C16.4991 10.5144 16.4965 10.6065 16.5224 10.6925C16.5484 10.7785 16.6016 10.8538 16.674 10.907L16.598 11.063C16.4874 10.9908 16.4045 10.8834 16.3627 10.7581C16.321 10.6328 16.3228 10.4971 16.368 10.373C16.406 10.263 16.574 9.911 17.163 10.029L17.178 10.011C17.2789 9.92546 17.3989 9.86539 17.5278 9.8358C17.6567 9.80622 17.7909 9.80801 17.919 9.841V9.68H17.834V9.506H17.919V9.419H18.09V9.506H18.176V9.68H18.09V9.841C18.2183 9.80784 18.3526 9.80597 18.4817 9.83555C18.6108 9.86514 18.731 9.92531 18.832 10.011L18.847 10.029C19.436 9.911 19.603 10.262 19.641 10.373H19.64ZM24 0V24H36V0H24Z"
		fill="#FFE15A"
	/>
	<path
		d="M18.689 10.463C18.479 10.3487 18.2436 10.2888 18.0045 10.2888C17.7654 10.2888 17.53 10.3487 17.32 10.463C16.978 10.289 16.465 10.463 16.465 10.811C16.465 11.159 16.978 11.681 16.978 11.681H19.031C19.031 11.681 19.544 11.159 19.544 10.811C19.544 10.463 19.031 10.289 18.689 10.463Z"
		fill="#FF4B55"
	/>
	<path
		d="M17.834 12.726H16.807L17.32 12.204L17.834 12.726ZM18.176 12.726H19.202L18.689 12.204L18.176 12.726ZM17.834 13.596L17.32 13.074L16.807 13.596H17.834ZM18.176 13.596H19.202L18.689 13.074L18.176 13.596ZM17.834 14.466L17.32 13.944L16.807 14.466H17.834ZM18.176 14.466H19.202L18.689 13.944L18.176 14.466ZM17.491 15.336H18.518L18.005 14.814L17.491 15.336ZM19.716 9.086V8.548H16.294V9.084L15.529 9.344L15.691 9.839L16.718 9.491L16.637 9.245H19.374L19.294 9.492L20.32 9.84L20.482 9.345L19.716 9.086Z"
		fill="#C8C8C8"
	/>
	<path
		d="M18.005 15.946C17.015 15.946 16.209 15.438 16.209 14.815V11.855C16.209 11.7867 16.2358 11.7212 16.2837 11.6726C16.3316 11.6239 16.3967 11.5961 16.465 11.595H19.545C19.6133 11.5961 19.6784 11.6239 19.7263 11.6726C19.7742 11.7212 19.801 11.7867 19.801 11.855V14.815C19.801 15.438 18.995 15.945 18.005 15.945V15.946ZM16.465 11.768C16.4537 11.7681 16.4425 11.7705 16.4322 11.7749C16.4218 11.7794 16.4124 11.7858 16.4045 11.7939C16.3966 11.802 16.3904 11.8115 16.3862 11.822C16.382 11.8325 16.3799 11.8437 16.38 11.855V14.815C16.38 15.342 17.109 15.772 18.005 15.772C18.901 15.772 19.63 15.342 19.63 14.814V11.855C19.6301 11.8436 19.628 11.8323 19.6237 11.8218C19.6195 11.8112 19.6132 11.8016 19.6052 11.7935C19.5972 11.7854 19.5876 11.779 19.5771 11.7746C19.5666 11.7703 19.5554 11.768 19.544 11.768H16.465Z"
		fill="#464655"
	/>
</svg>
