<svg viewBox="0 0 36 24" fill="none" xmlns="http://www.w3.org/2000/svg">
	<path d="M36.0001 24H6.10352e-05V0H36.0001" fill="#41479B" />
	<path
		d="M36.0001 13.895V15.579H6.10352e-05V13.895H36.0001ZM6.10352e-05 18.948H36.0001V17.264H6.10352e-05V18.948Z"
		fill="#F5F5F5"
	/>
	<path
		d="M6.10352e-05 15.579H36.0001V17.264H6.10352e-05V15.579Z"
		fill="#FF4B55"
	/>
	<path
		d="M12.7491 11.148L12.2651 11.512L12.4461 12.096C12.449 12.1057 12.4488 12.116 12.4457 12.1255C12.4425 12.1351 12.4365 12.1435 12.4284 12.1495C12.4203 12.1555 12.4105 12.1589 12.4005 12.1592C12.3904 12.1594 12.3805 12.1566 12.3721 12.151L11.8821 11.795L11.3921 12.151C11.3837 12.1566 11.3737 12.1594 11.3637 12.1592C11.3536 12.1589 11.3438 12.1555 11.3357 12.1495C11.3276 12.1435 11.3216 12.1351 11.3184 12.1255C11.3153 12.116 11.3151 12.1057 11.3181 12.096L11.5001 11.512L11.0161 11.148C11.0082 11.1417 11.0024 11.1332 10.9994 11.1235C10.9965 11.1139 10.9965 11.1035 10.9995 11.0939C11.0026 11.0843 11.0084 11.0758 11.0164 11.0695C11.0243 11.0633 11.034 11.0596 11.0441 11.059L11.6461 11.054L11.8361 10.474C11.8387 10.4637 11.8447 10.4545 11.8531 10.448C11.8615 10.4415 11.8719 10.4379 11.8826 10.4379C11.8932 10.4379 11.9036 10.4415 11.912 10.448C11.9204 10.4545 11.9264 10.4637 11.9291 10.474L12.1191 11.054L12.7211 11.059C12.7314 11.0594 12.7413 11.063 12.7495 11.0693C12.7577 11.0756 12.7638 11.0842 12.7669 11.0941C12.7699 11.104 12.7699 11.1146 12.7667 11.1244C12.7635 11.1342 12.7573 11.1428 12.7491 11.149V11.148ZM12.7211 21.266L12.1191 21.261L11.9291 20.681C11.9264 20.6707 11.9204 20.6615 11.912 20.655C11.9036 20.6485 11.8932 20.6449 11.8826 20.6449C11.8719 20.6449 11.8615 20.6485 11.8531 20.655C11.8447 20.6615 11.8387 20.6707 11.8361 20.681L11.6461 21.261L11.0441 21.266C11.034 21.2666 11.0243 21.2703 11.0164 21.2765C11.0084 21.2828 11.0026 21.2913 10.9995 21.3009C10.9965 21.3105 10.9965 21.3209 10.9994 21.3305C11.0024 21.3402 11.0082 21.3487 11.0161 21.355L11.5001 21.718L11.3181 22.302C11.3149 22.3118 11.3149 22.3223 11.3181 22.3321C11.3212 22.3419 11.3274 22.3505 11.3357 22.3566C11.344 22.3626 11.354 22.366 11.3643 22.366C11.3746 22.3661 11.3847 22.363 11.3931 22.357L11.8831 22.001L12.3721 22.357C12.3805 22.3626 12.3904 22.3654 12.4005 22.3652C12.4105 22.3649 12.4203 22.3615 12.4284 22.3555C12.4365 22.3495 12.4425 22.3411 12.4457 22.3315C12.4488 22.322 12.449 22.3117 12.4461 22.302L12.2651 21.718L12.7491 21.355C12.7574 21.3488 12.7636 21.3401 12.7667 21.3301C12.7699 21.3202 12.7699 21.3096 12.7667 21.2997C12.7635 21.2897 12.7573 21.2811 12.7489 21.2749C12.7406 21.2687 12.7305 21.2652 12.7201 21.265L12.7211 21.266ZM9.98306 20.137L9.38106 20.142L9.18106 19.565C9.178 19.5551 9.17184 19.5465 9.16348 19.5404C9.15513 19.5343 9.14503 19.5311 9.13469 19.5312C9.12435 19.5313 9.11432 19.5348 9.1061 19.541C9.09788 19.5473 9.0919 19.5561 9.08906 19.566L8.90906 20.15L8.30706 20.165C8.29682 20.1656 8.28701 20.1693 8.27896 20.1757C8.27091 20.182 8.26501 20.1907 8.26206 20.2005C8.25911 20.2104 8.25926 20.2209 8.26248 20.2306C8.2657 20.2404 8.27184 20.2489 8.28006 20.255L8.77006 20.61L8.59706 21.197C8.59451 21.2067 8.59496 21.2169 8.59838 21.2263C8.60179 21.2357 8.60799 21.2438 8.61615 21.2495C8.62431 21.2553 8.63404 21.2585 8.64404 21.2585C8.65403 21.2586 8.66381 21.2556 8.67206 21.25L9.15606 20.886L9.65106 21.234C9.65954 21.2397 9.6696 21.2427 9.67983 21.2424C9.69007 21.2422 9.69996 21.2387 9.70813 21.2325C9.71629 21.2263 9.72231 21.2178 9.72535 21.208C9.72839 21.1982 9.72829 21.1877 9.72506 21.178L9.53506 20.598L10.0131 20.226C10.0211 20.2196 10.0269 20.2109 10.0298 20.201C10.0327 20.1912 10.0324 20.1807 10.0292 20.171C10.0259 20.1613 10.0197 20.1528 10.0115 20.1467C10.0032 20.1407 9.99331 20.1373 9.98306 20.137ZM9.98306 11.86L9.38206 11.858L9.18806 11.278C9.18511 11.2681 9.17904 11.2594 9.17075 11.2532C9.16246 11.247 9.1524 11.2437 9.14206 11.2437C9.13172 11.2437 9.12166 11.247 9.11337 11.2532C9.10509 11.2594 9.09901 11.2681 9.09606 11.278L8.90906 11.861L8.30706 11.868C8.29674 11.8684 8.28679 11.872 8.27859 11.8783C8.27039 11.8846 8.26434 11.8932 8.26127 11.9031C8.2582 11.913 8.25826 11.9236 8.26145 11.9334C8.26463 11.9432 8.27079 11.9518 8.27906 11.958L8.76506 12.318L8.58606 12.903C8.5829 12.9128 8.5829 12.9233 8.58607 12.9331C8.58924 12.9429 8.59542 12.9515 8.60372 12.9576C8.61202 12.9636 8.62202 12.967 8.63232 12.967C8.64261 12.9671 8.65267 12.964 8.66106 12.958L9.14906 12.6L9.64006 12.953C9.64846 12.9586 9.65838 12.9614 9.66846 12.9612C9.67854 12.9609 9.68829 12.9575 9.69639 12.9515C9.70448 12.9455 9.71052 12.9371 9.71368 12.9275C9.71684 12.918 9.71698 12.9077 9.71406 12.898L9.53006 12.315L10.0121 11.949C10.0204 11.9428 10.0266 11.9341 10.0297 11.9241C10.0329 11.9142 10.0329 11.9036 10.0297 11.8937C10.0265 11.8837 10.0203 11.8751 10.0119 11.8689C10.0036 11.8627 9.99347 11.8602 9.98306 11.86ZM13.7791 11.964L14.2691 12.32L14.0961 12.907C14.093 12.9169 14.0931 12.9275 14.0964 12.9373C14.0997 12.9471 14.106 12.9556 14.1144 12.9616C14.1229 12.9676 14.133 12.9708 14.1433 12.9707C14.1537 12.9706 14.1638 12.9672 14.1721 12.961L14.6551 12.597L15.1511 12.945C15.1596 12.9505 15.1697 12.9533 15.1799 12.9528C15.19 12.9524 15.1998 12.9488 15.2079 12.9425C15.2159 12.9362 15.2218 12.9276 15.2247 12.9178C15.2276 12.9081 15.2274 12.8976 15.2241 12.888L15.0341 12.308L15.5121 11.936C15.5201 11.9296 15.5259 11.9209 15.5288 11.911C15.5317 11.9012 15.5314 11.8907 15.5282 11.881C15.5249 11.8713 15.5187 11.8628 15.5105 11.8567C15.5022 11.8507 15.4923 11.8473 15.4821 11.847L14.8801 11.853L14.6801 11.275C14.6768 11.2655 14.6706 11.2573 14.6623 11.2515C14.6541 11.2457 14.6443 11.2427 14.6342 11.2428C14.6241 11.2429 14.6144 11.2462 14.6063 11.2521C14.5982 11.2581 14.5922 11.2664 14.5891 11.276L14.4071 11.86L13.8061 11.875C13.7958 11.8756 13.786 11.8793 13.778 11.8857C13.7699 11.892 13.764 11.9007 13.7611 11.9105C13.7581 11.9204 13.7583 11.9309 13.7615 11.9406C13.7647 11.9504 13.7708 11.9589 13.7791 11.965V11.964ZM15.4831 20.15L14.8811 20.148L14.6881 19.568C14.6851 19.5581 14.679 19.5494 14.6707 19.5432C14.6625 19.537 14.6524 19.5337 14.6421 19.5337C14.6317 19.5337 14.6217 19.537 14.6134 19.5432C14.6051 19.5494 14.599 19.5581 14.5961 19.568L14.4081 20.15L13.8061 20.158C13.7957 20.1584 13.7858 20.162 13.7776 20.1683C13.7694 20.1746 13.7633 20.1832 13.7603 20.1931C13.7572 20.203 13.7573 20.2136 13.7604 20.2234C13.7636 20.2332 13.7698 20.2418 13.7781 20.248L14.2641 20.608L14.0861 21.193C14.0831 21.2027 14.0833 21.213 14.0864 21.2225C14.0896 21.2321 14.0956 21.2405 14.1037 21.2465C14.1118 21.2525 14.1216 21.2559 14.1317 21.2562C14.1417 21.2564 14.1517 21.2536 14.1601 21.248L14.6481 20.889L15.1391 21.243C15.1475 21.249 15.1575 21.2521 15.1678 21.252C15.1781 21.252 15.1881 21.2486 15.1964 21.2426C15.2047 21.2365 15.2109 21.2279 15.214 21.2181C15.2172 21.2083 15.2172 21.1978 15.2141 21.188L15.0291 20.605L15.5111 20.238C15.5186 20.2316 15.5241 20.2232 15.5268 20.2137C15.5296 20.2042 15.5294 20.1941 15.5264 20.1847C15.5234 20.1752 15.5177 20.1669 15.51 20.1608C15.5023 20.1546 15.4929 20.1508 15.4831 20.15ZM7.95306 17.676L7.35106 17.68L7.15306 17.102C7.15 17.0921 7.14384 17.0835 7.13548 17.0774C7.12712 17.0713 7.11703 17.0681 7.10669 17.0682C7.09635 17.0683 7.08632 17.0718 7.0781 17.078C7.06988 17.0843 7.0639 17.0931 7.06106 17.103L6.87806 17.687L6.27706 17.7C6.26682 17.7006 6.25701 17.7043 6.24896 17.7107C6.24091 17.717 6.23501 17.7257 6.23206 17.7355C6.22911 17.7454 6.22926 17.7559 6.23248 17.7656C6.2357 17.7754 6.24184 17.7839 6.25006 17.79L6.73906 18.146L6.56606 18.733C6.56321 18.7427 6.56345 18.7531 6.56675 18.7627C6.57004 18.7723 6.57623 18.7806 6.58446 18.7865C6.59268 18.7925 6.60255 18.7957 6.61268 18.7958C6.62282 18.7959 6.63274 18.7928 6.64106 18.787L7.12506 18.423L7.62006 18.773C7.62861 18.7785 7.63868 18.7813 7.64886 18.7808C7.65904 18.7804 7.66883 18.7768 7.67686 18.7705C7.68489 18.7642 7.69077 18.7556 7.69367 18.7458C7.69658 18.7361 7.69636 18.7256 7.69306 18.716L7.50306 18.136L7.98306 17.764C7.99069 17.7575 7.99619 17.7489 7.99885 17.7392C8.0015 17.7295 8.00119 17.7193 7.99796 17.7098C7.99473 17.7003 7.98872 17.692 7.98071 17.686C7.9727 17.68 7.96307 17.6765 7.95306 17.676ZM7.95306 14.51L7.35106 14.512L7.15506 13.933C7.152 13.9231 7.14584 13.9145 7.13748 13.9084C7.12913 13.9023 7.11903 13.8991 7.10869 13.8992C7.09835 13.8993 7.08832 13.9028 7.0801 13.909C7.07188 13.9153 7.0659 13.9241 7.06306 13.934L6.87906 14.517L6.27706 14.529C6.26682 14.5296 6.25701 14.5333 6.24896 14.5397C6.24091 14.546 6.23501 14.5547 6.23206 14.5645C6.22911 14.5744 6.22926 14.5849 6.23248 14.5946C6.2357 14.6044 6.24184 14.6129 6.25006 14.619L6.73806 14.976L6.56206 15.562C6.55896 15.5719 6.55906 15.5825 6.56236 15.5923C6.56566 15.6021 6.57198 15.6106 6.58043 15.6166C6.58887 15.6226 6.59899 15.6258 6.60935 15.6257C6.6197 15.6256 6.62975 15.6222 6.63806 15.616L7.12306 15.255L7.61606 15.605C7.62454 15.6107 7.6346 15.6137 7.64483 15.6134C7.65507 15.6132 7.66496 15.6097 7.67313 15.6035C7.68129 15.5973 7.68732 15.5888 7.69035 15.579C7.69339 15.5692 7.69329 15.5587 7.69006 15.549L7.50206 14.968L7.98206 14.598C7.98964 14.5916 7.99514 14.583 7.99783 14.5734C8.00052 14.5638 8.0003 14.5537 7.99719 14.5442C7.99407 14.5348 7.98821 14.5265 7.98035 14.5204C7.97249 14.5143 7.96299 14.5107 7.95306 14.51ZM15.7831 14.62L16.2731 14.977L16.0991 15.563C16.096 15.5729 16.0961 15.5835 16.0994 15.5933C16.1027 15.6031 16.109 15.6116 16.1174 15.6176C16.1259 15.6236 16.136 15.6268 16.1463 15.6267C16.1567 15.6266 16.1668 15.6232 16.1751 15.617L16.6591 15.254L17.1541 15.603C17.1625 15.6084 17.1725 15.611 17.1825 15.6106C17.1925 15.6101 17.2022 15.6066 17.2101 15.6005C17.2181 15.5944 17.224 15.586 17.227 15.5764C17.23 15.5668 17.2301 15.5566 17.2271 15.547L17.0371 14.966L17.5171 14.595C17.5251 14.5886 17.5309 14.5799 17.5338 14.57C17.5367 14.5602 17.5364 14.5497 17.5332 14.54C17.5299 14.5303 17.5237 14.5218 17.5155 14.5157C17.5072 14.5097 17.4973 14.5063 17.4871 14.506L16.8851 14.51L16.6861 13.932C16.683 13.9221 16.6768 13.9135 16.6685 13.9074C16.6601 13.9013 16.65 13.8981 16.6397 13.8982C16.6294 13.8983 16.6193 13.9018 16.6111 13.908C16.6029 13.9143 16.5969 13.9231 16.5941 13.933L16.4121 14.517L15.8111 14.531C15.8007 14.5314 15.7908 14.535 15.7826 14.5413C15.7744 14.5476 15.7683 14.5562 15.7653 14.5661C15.7622 14.576 15.7623 14.5866 15.7654 14.5964C15.7686 14.6062 15.7748 14.6148 15.7831 14.621V14.62ZM17.4871 17.68L16.8851 17.681L16.6881 17.103C16.6851 17.0931 16.679 17.0844 16.6707 17.0782C16.6625 17.072 16.6524 17.0687 16.6421 17.0687C16.6317 17.0687 16.6217 17.072 16.6134 17.0782C16.6051 17.0844 16.599 17.0931 16.5961 17.103L16.4121 17.687L15.8111 17.698C15.8007 17.6984 15.7908 17.702 15.7826 17.7083C15.7744 17.7146 15.7683 17.7232 15.7653 17.7331C15.7622 17.743 15.7623 17.7536 15.7654 17.7634C15.7686 17.7732 15.7748 17.7818 15.7831 17.788L16.2711 18.146L16.0961 18.732C16.0932 18.7417 16.0935 18.7521 16.0967 18.7617C16.1 18.7713 16.1062 18.7796 16.1145 18.7855C16.1227 18.7915 16.1325 18.7947 16.1427 18.7948C16.1528 18.7949 16.1627 18.7918 16.1711 18.786L16.6571 18.424L17.1501 18.774C17.1585 18.7796 17.1684 18.7824 17.1785 18.7822C17.1885 18.7819 17.1983 18.7785 17.2064 18.7725C17.2145 18.7665 17.2205 18.7581 17.2237 18.7485C17.2268 18.739 17.227 18.7287 17.2241 18.719L17.0361 18.137L17.5161 17.767C17.5237 17.7605 17.5292 17.7519 17.5318 17.7422C17.5345 17.7325 17.5342 17.7223 17.531 17.7128C17.5277 17.7033 17.5217 17.695 17.5137 17.689C17.5057 17.683 17.4961 17.6795 17.4861 17.679L17.4871 17.68Z"
		fill="#FFE15A"
	/>
</svg>
