<svg viewBox="0 0 36 24" fill="none" xmlns="http://www.w3.org/2000/svg">
	<path d="M0 12H36V18H0V12Z" fill="#73AF00" />
	<path d="M0 6H36V12H0V6Z" fill="#F5F5F5" />
	<path d="M36 6H0V0H36V6Z" fill="#41479B" />
	<path
		d="M36 18V24H0V18H36ZM4.213 3.633L3.719 5.221C3.71034 5.24755 3.71026 5.27616 3.71877 5.30276C3.72727 5.32936 3.74394 5.35261 3.7664 5.36921C3.78887 5.38581 3.81599 5.39491 3.84391 5.39523C3.87184 5.39556 3.89916 5.38708 3.922 5.371L5.254 4.403L6.585 5.371C6.60784 5.38708 6.63516 5.39556 6.66309 5.39523C6.69101 5.39491 6.71813 5.38581 6.7406 5.36921C6.76306 5.35261 6.77973 5.32936 6.78823 5.30276C6.79674 5.27616 6.79666 5.24755 6.788 5.221L6.294 3.633L7.611 2.643C7.63303 2.6261 7.64931 2.60281 7.65762 2.57632C7.66593 2.54983 7.66588 2.52143 7.65746 2.49497C7.64904 2.46851 7.63267 2.44529 7.61058 2.42848C7.58848 2.41166 7.56174 2.40207 7.534 2.401L5.897 2.39L5.379 0.809C5.37065 0.782382 5.35403 0.759123 5.33155 0.74261C5.30906 0.726097 5.2819 0.717192 5.254 0.717192C5.2261 0.717192 5.19894 0.726097 5.17645 0.74261C5.15397 0.759123 5.13735 0.782382 5.129 0.809L4.611 2.389L2.974 2.402C2.94617 2.40287 2.9193 2.41233 2.89705 2.42907C2.87481 2.44581 2.85828 2.46902 2.84974 2.49552C2.8412 2.52202 2.84106 2.55051 2.84934 2.57709C2.85762 2.60367 2.87392 2.62704 2.896 2.644L4.213 3.633Z"
		fill="#FFE15A"
	/>
	<path d="M15.052 0H20.948V24H15.052V0Z" fill="#FF4B55" />
</svg>
