<svg viewBox="0 0 36 24" fill="none" xmlns="http://www.w3.org/2000/svg">
	<path d="M6.10352e-05 0H36.0001V6H6.10352e-05V0Z" fill="#FFE15A" />
	<path d="M6.10352e-05 6H36.0001V12H6.10352e-05V6Z" fill="#F5F5F5" />
	<path d="M6.10352e-05 12H36.0001V18H6.10352e-05V12Z" fill="#FF4B55" />
	<path d="M6.10352e-05 18H36.0001V24H6.10352e-05V18Z" fill="#4173CD" />
	<path
		d="M6.10352e-05 24L17.6231 12.251C17.6641 12.2232 17.6977 12.1859 17.7209 12.1421C17.7442 12.0983 17.7563 12.0495 17.7563 12C17.7563 11.9505 17.7442 11.9017 17.7209 11.8579C17.6977 11.8141 17.6641 11.7768 17.6231 11.749L6.10352e-05 0"
		fill="#73AF00"
	/>
	<path
		d="M6.90806 17.09C6.69689 17.118 6.48409 17.1321 6.27106 17.132C4.92751 17.1055 3.64794 16.5531 2.70715 15.5936C1.76636 14.634 1.23938 13.3438 1.23938 12C1.23938 10.6562 1.76636 9.36597 2.70715 8.40642C3.64794 7.44687 4.92751 6.89452 6.27106 6.868C6.48409 6.86793 6.69689 6.88196 6.90806 6.91C6.93164 6.91381 6.95329 6.92532 6.96962 6.94274C6.98596 6.96017 6.99606 6.98251 6.99834 7.00628C7.00063 7.03005 6.99497 7.05391 6.98225 7.07413C6.96954 7.09434 6.95048 7.10977 6.92806 7.118C5.90902 7.46516 5.02417 8.12254 4.39758 8.99796C3.77099 9.87338 3.43407 10.9229 3.43407 11.9995C3.43407 13.0761 3.77099 14.1256 4.39758 15.001C5.02417 15.8765 5.90902 16.5338 6.92806 16.881C6.95096 16.8889 6.97054 16.9043 6.98365 16.9247C6.99675 16.9451 7.00262 16.9692 7.00031 16.9934C6.99801 17.0175 6.98765 17.0401 6.97092 17.0577C6.95419 17.0752 6.93205 17.0866 6.90806 17.09ZM6.84106 8.08L6.70206 8.503L6.26306 8.507C6.25038 8.50713 6.23806 8.51128 6.22788 8.51885C6.2177 8.52642 6.21018 8.53702 6.2064 8.54913C6.20263 8.56124 6.20279 8.57424 6.20686 8.58625C6.21093 8.59826 6.2187 8.60868 6.22906 8.616L6.58206 8.881L6.44906 9.307C6.4455 9.31885 6.4457 9.33151 6.44962 9.34325C6.45354 9.35499 6.46099 9.36522 6.47096 9.37256C6.48092 9.3799 6.49291 9.38397 6.50528 9.38423C6.51765 9.38449 6.5298 9.38091 6.54006 9.374L6.89706 9.114L7.25406 9.374C7.26432 9.38055 7.27634 9.38383 7.2885 9.38339C7.30067 9.38296 7.31242 9.37883 7.32218 9.37156C7.33195 9.36429 7.33927 9.35422 7.34318 9.34269C7.34709 9.33116 7.3474 9.31871 7.34406 9.307L7.21306 8.881L7.56606 8.616C7.57649 8.60863 7.5843 8.59813 7.58834 8.58601C7.59239 8.5739 7.59247 8.56081 7.58856 8.54866C7.58466 8.5365 7.57698 8.5259 7.56664 8.51841C7.55629 8.51092 7.54383 8.50692 7.53106 8.507L7.09206 8.503L6.95306 8.08C6.94916 8.06823 6.94165 8.05799 6.93159 8.05074C6.92154 8.04348 6.90946 8.03957 6.89706 8.03957C6.88466 8.03957 6.87258 8.04348 6.86253 8.05074C6.85247 8.05799 6.84496 8.06823 6.84106 8.08ZM7.53106 10.654L7.09206 10.65L6.95306 10.227C6.94916 10.2152 6.94165 10.205 6.93159 10.1977C6.92154 10.1905 6.90946 10.1866 6.89706 10.1866C6.88466 10.1866 6.87258 10.1905 6.86253 10.1977C6.85247 10.205 6.84496 10.2152 6.84106 10.227L6.70106 10.65L6.26306 10.654C6.25055 10.6542 6.23842 10.6583 6.22837 10.6658C6.21831 10.6732 6.21083 10.6836 6.20697 10.6955C6.20312 10.7074 6.20308 10.7202 6.20686 10.7321C6.21064 10.7441 6.21805 10.7545 6.22806 10.762L6.58106 11.028L6.44906 11.453C6.4452 11.4649 6.44516 11.4777 6.44895 11.4897C6.45275 11.5016 6.46018 11.5121 6.47022 11.5196C6.48025 11.5271 6.49239 11.5312 6.50491 11.5315C6.51744 11.5318 6.52973 11.5281 6.54006 11.521L6.89706 11.261L7.25406 11.521C7.2644 11.5277 7.27655 11.5311 7.28886 11.5306C7.30118 11.5302 7.31306 11.526 7.32289 11.5185C7.33272 11.5111 7.34003 11.5008 7.34382 11.4891C7.3476 11.4774 7.34769 11.4648 7.34406 11.453L7.21306 11.028L7.56606 10.762C7.57607 10.7545 7.58348 10.7441 7.58727 10.7321C7.59105 10.7202 7.59101 10.7074 7.58715 10.6955C7.58329 10.6836 7.57581 10.6732 7.56576 10.6658C7.5557 10.6583 7.54357 10.6542 7.53106 10.654ZM7.53106 12.801L7.09206 12.797L6.95306 12.373C6.94916 12.3612 6.94165 12.351 6.93159 12.3437C6.92154 12.3365 6.90946 12.3326 6.89706 12.3326C6.88466 12.3326 6.87258 12.3365 6.86253 12.3437C6.85247 12.351 6.84496 12.3612 6.84106 12.373L6.70106 12.797L6.26306 12.801C6.25055 12.8012 6.23842 12.8053 6.22837 12.8128C6.21831 12.8202 6.21083 12.8306 6.20697 12.8425C6.20312 12.8544 6.20308 12.8672 6.20686 12.8791C6.21064 12.8911 6.21805 12.9015 6.22806 12.909L6.58106 13.174L6.44906 13.6C6.44573 13.6117 6.44603 13.6242 6.44994 13.6357C6.45385 13.6472 6.46117 13.6573 6.47094 13.6646C6.4807 13.6718 6.49245 13.676 6.50462 13.6764C6.51679 13.6768 6.5288 13.6736 6.53906 13.667L6.89706 13.407L7.25406 13.667C7.26432 13.6736 7.27634 13.6768 7.2885 13.6764C7.30067 13.676 7.31242 13.6718 7.32218 13.6646C7.33195 13.6573 7.33927 13.6472 7.34318 13.6357C7.34709 13.6242 7.3474 13.6117 7.34406 13.6L7.21206 13.174L7.56506 12.909C7.57501 12.9016 7.5824 12.8912 7.58621 12.8794C7.59003 12.8675 7.59007 12.8548 7.58633 12.843C7.5826 12.8311 7.57528 12.8207 7.56538 12.8132C7.55548 12.8057 7.54348 12.8014 7.53106 12.801ZM7.53106 14.947L7.09206 14.944L6.95306 14.52C6.94916 14.5082 6.94165 14.498 6.93159 14.4907C6.92154 14.4835 6.90946 14.4796 6.89706 14.4796C6.88466 14.4796 6.87258 14.4835 6.86253 14.4907C6.85247 14.498 6.84496 14.5082 6.84106 14.52L6.70206 14.944L6.26306 14.948C6.25064 14.9484 6.23865 14.9527 6.22874 14.9602C6.21884 14.9677 6.21152 14.9781 6.20779 14.99C6.20405 15.0018 6.2041 15.0145 6.20791 15.0264C6.21172 15.0382 6.21911 15.0486 6.22906 15.056L6.58206 15.321L6.44906 15.747C6.4455 15.7589 6.4457 15.7715 6.44962 15.7832C6.45354 15.795 6.46099 15.8052 6.47096 15.8126C6.48092 15.8199 6.49291 15.824 6.50528 15.8242C6.51765 15.8245 6.5298 15.8209 6.54006 15.814L6.89706 15.554L7.25406 15.814C7.26432 15.8206 7.27634 15.8238 7.2885 15.8234C7.30067 15.823 7.31242 15.8188 7.32218 15.8116C7.33195 15.8043 7.33927 15.7942 7.34318 15.7827C7.34709 15.7712 7.3474 15.7587 7.34406 15.747L7.21306 15.321L7.56606 15.056C7.57649 15.0486 7.5843 15.0381 7.58834 15.026C7.59239 15.0139 7.59247 15.0008 7.58856 14.9887C7.58466 14.9765 7.57698 14.9659 7.56664 14.9584C7.55629 14.9509 7.54383 14.9469 7.53106 14.947Z"
		fill="#F5F5F5"
	/>
</svg>
