<svg viewBox="0 0 36 24" fill="none" xmlns="http://www.w3.org/2000/svg">
	<path d="M36 24H0V0H36" fill="#82AFFF" />
	<path d="M0 18.947V24L36 5.053V0" fill="#FF4B55" />
	<path
		d="M36 0L0 18.947V17.684L33.6 0H36ZM2.4 24L36 6.316V5.053L0 24H2.4ZM2.383 5.536L4.657 7.244L3.804 9.986C3.79264 10.0192 3.79215 10.0551 3.80258 10.0886C3.81301 10.122 3.83384 10.1513 3.86203 10.1721C3.89022 10.193 3.92432 10.2043 3.95937 10.2044C3.99443 10.2046 4.02862 10.1936 4.057 10.173L6.357 8.501L8.656 10.173C8.68439 10.1932 8.71844 10.2038 8.75327 10.2035C8.78811 10.2031 8.82193 10.1918 8.8499 10.171C8.87787 10.1502 8.89856 10.1212 8.90899 10.0879C8.91943 10.0547 8.91908 10.019 8.908 9.986L8.056 7.244L10.329 5.536C10.3567 5.51505 10.3773 5.48601 10.3879 5.45288C10.3984 5.41975 10.3984 5.38416 10.3879 5.35102C10.3773 5.31789 10.3568 5.28884 10.3291 5.26788C10.3013 5.24692 10.2678 5.23508 10.233 5.234L7.406 5.21L6.512 2.482C6.50131 2.44904 6.48046 2.42032 6.45243 2.39994C6.42441 2.37957 6.39065 2.3686 6.356 2.3686C6.32135 2.3686 6.28759 2.37957 6.25957 2.39994C6.23154 2.42032 6.21069 2.44904 6.2 2.482L5.306 5.21L2.479 5.233C2.44425 5.23408 2.41069 5.24592 2.38295 5.26688C2.35521 5.28784 2.33465 5.31689 2.32412 5.35002C2.31359 5.38316 2.31359 5.41875 2.32414 5.45188C2.33468 5.48501 2.35525 5.51505 2.383 5.536Z"
		fill="#FFE15A"
	/>
</svg>
