<svg viewBox="0 0 36 24" fill="none" xmlns="http://www.w3.org/2000/svg">
	<path d="M0 24L18 12L0 0" fill="#F5F5F5" />
	<path d="M36 24V12H18L0 24" fill="#73AF00" />
	<path d="M36 0V12H18L0 0" fill="#82AFFF" />
	<path
		d="M6.452 9.148L5.824 11.066L3.837 11.081C3.81282 11.0815 3.7894 11.0895 3.77001 11.1039C3.75061 11.1184 3.73622 11.1385 3.72884 11.1616C3.72146 11.1846 3.72146 11.2094 3.72884 11.2324C3.73622 11.2554 3.75061 11.2756 3.77 11.29L5.369 12.49L4.769 14.418C4.76144 14.4408 4.76126 14.4654 4.7685 14.4883C4.77574 14.5112 4.79002 14.5312 4.8093 14.5455C4.82859 14.5598 4.8519 14.5676 4.87591 14.5679C4.89991 14.5682 4.92339 14.5609 4.943 14.547L6.56 13.37L8.176 14.546C8.19561 14.5599 8.21909 14.5672 8.24309 14.5669C8.2671 14.5666 8.29041 14.5588 8.3097 14.5445C8.32898 14.5302 8.34326 14.5102 8.3505 14.4873C8.35774 14.4644 8.35756 14.4398 8.35 14.417L7.751 12.49L9.349 11.289C9.36833 11.2746 9.3827 11.2546 9.39011 11.2316C9.39752 11.2087 9.3976 11.184 9.39034 11.161C9.38309 11.138 9.36885 11.1179 9.34961 11.1034C9.33038 11.0888 9.30709 11.0807 9.283 11.08L7.296 11.065L6.667 9.147C6.65964 9.12428 6.64527 9.10448 6.62596 9.09044C6.60665 9.07639 6.58338 9.06882 6.5595 9.06882C6.53562 9.06882 6.51235 9.07639 6.49304 9.09044C6.47373 9.10448 6.45936 9.12528 6.452 9.148Z"
		fill="#FF4B55"
	/>
</svg>
