<svg viewBox="0 0 36 24" fill="none" xmlns="http://www.w3.org/2000/svg">
	<path d="M36.0001 8H6.10352e-05V0H36.0001V8Z" fill="#FF4B55" />
	<path d="M36.0001 24H6.10352e-05V16H36.0001V24Z" fill="#464655" />
	<path d="M6.10352e-05 8H36.0001V16H6.10352e-05V8Z" fill="#F5F5F5" />
	<path
		d="M19.9821 10.753C19.983 10.681 19.9667 10.6098 19.9345 10.5453C19.9024 10.4808 19.8553 10.425 19.7972 10.3824C19.739 10.3399 19.6716 10.3118 19.6004 10.3006C19.5293 10.2894 19.4565 10.2954 19.3881 10.318L18.8401 10.504L18.7061 9.685C18.6703 9.45114 18.5523 9.23772 18.3732 9.08317C18.194 8.92862 17.9656 8.8431 17.7291 8.842H17.2151L16.6791 9.514H17.3891L17.1901 10.514L16.6121 10.318C16.5437 10.2954 16.4709 10.2894 16.3997 10.3006C16.3285 10.3118 16.2611 10.3399 16.203 10.3824C16.1448 10.425 16.0977 10.4808 16.0656 10.5453C16.0334 10.6098 16.0171 10.681 16.0181 10.753V14.15L16.8181 13.337L16.4411 14.486H16.0181V15.158H19.9821V14.486H19.5591L19.1831 13.336L19.9821 14.15V10.753ZM17.6701 14.486H17.1371L17.5031 13.491L17.6701 13.707V14.486ZM18.3301 14.486V13.706L18.4971 13.491L18.8631 14.486H18.3301ZM18.0001 13.267C17.6899 13.0315 17.4396 12.7263 17.2693 12.376C17.099 12.0258 17.0137 11.6404 17.0201 11.251C17.4229 11.1651 17.7753 10.9231 18.0001 10.578C18.2249 10.923 18.5773 11.165 18.9801 11.251C18.9865 11.6404 18.9011 12.0258 18.7308 12.376C18.5606 12.7263 18.3102 13.0315 18.0001 13.267Z"
		fill="#F0C727"
	/>
</svg>
