<svg viewBox="0 0 36 24" fill="none" xmlns="http://www.w3.org/2000/svg">
	<path d="M36 24H0V16H36V24Z" fill="#FF4B55" />
	<path d="M0 8H36V16H0V8Z" fill="#F5F5F5" />
	<path
		d="M17.851 12.565C17.8568 13.3247 17.7288 14.0796 17.473 14.795H18.521C18.2651 14.0796 18.1372 13.3248 18.143 12.565C18.1658 12.3842 18.2241 12.2097 18.3145 12.0514C18.405 11.8932 18.5258 11.7544 18.67 11.643L18.494 11.405C18.3623 11.5117 18.2447 11.6347 18.144 11.771V11.375H17.851V11.771C17.7504 11.6346 17.6327 11.5116 17.501 11.405L17.325 11.643C17.469 11.7545 17.5896 11.8933 17.6799 12.0516C17.7702 12.2098 17.8283 12.3843 17.851 12.565Z"
		fill="#B46446"
	/>
	<path
		d="M36 0V8H0V0H36ZM19.459 10.78C19.449 10.78 19.441 10.783 19.433 10.783C19.4042 10.6961 19.3488 10.6204 19.2747 10.5666C19.2006 10.5128 19.1116 10.4836 19.02 10.483C18.9532 10.4835 18.8875 10.4996 18.828 10.53C18.7976 10.4713 18.7517 10.422 18.6953 10.3874C18.6389 10.3529 18.5741 10.3344 18.508 10.334C18.4695 10.3345 18.4313 10.3413 18.395 10.354C18.3525 10.249 18.2761 10.1613 18.178 10.1047C18.0799 10.0481 17.9657 10.0259 17.8535 10.0416C17.7414 10.0574 17.6377 10.1102 17.559 10.1916C17.4802 10.273 17.431 10.3784 17.419 10.491C17.3926 10.4862 17.3658 10.4835 17.339 10.483C17.2025 10.4846 17.0722 10.5402 16.9766 10.6377C16.881 10.7351 16.8279 10.8665 16.829 11.003C16.8288 11.0365 16.8318 11.07 16.838 11.103C16.774 11.1246 16.7158 11.1606 16.6679 11.2083C16.62 11.256 16.5838 11.314 16.562 11.378C16.553 11.378 16.545 11.375 16.536 11.375C16.4571 11.375 16.3814 11.4063 16.3256 11.4621C16.2698 11.5179 16.2385 11.5936 16.2385 11.6725C16.2385 11.7514 16.2698 11.8271 16.3256 11.8829C16.3814 11.9387 16.4571 11.97 16.536 11.97C16.6076 11.9696 16.6764 11.9425 16.729 11.894C16.7967 11.941 16.8766 11.9673 16.9589 11.9698C17.0413 11.9722 17.1226 11.9508 17.193 11.908C17.2594 11.9482 17.3354 11.9696 17.413 11.97C17.471 11.9695 17.5284 11.9575 17.5818 11.9348C17.6353 11.9121 17.6837 11.8791 17.7244 11.8377C17.765 11.7963 17.7972 11.7473 17.8189 11.6935C17.8406 11.6396 17.8515 11.582 17.851 11.524C17.8504 11.5056 17.8488 11.4872 17.846 11.469C17.9242 11.5094 18.0119 11.5281 18.0998 11.5232C18.1877 11.5183 18.2728 11.4899 18.346 11.441C18.3828 11.5105 18.4378 11.5688 18.505 11.6097C18.5723 11.6505 18.6493 11.6724 18.728 11.673C18.7628 11.6725 18.7974 11.6678 18.831 11.659C18.8704 11.7088 18.9204 11.7491 18.9773 11.7772C19.0342 11.8053 19.0967 11.8203 19.1601 11.8213C19.2236 11.8223 19.2865 11.8091 19.3442 11.7828C19.402 11.7564 19.4531 11.7176 19.494 11.669C19.6073 11.6584 19.7123 11.6047 19.7873 11.519C19.8622 11.4333 19.9015 11.3222 19.897 11.2084C19.8926 11.0947 19.8446 10.987 19.7632 10.9075C19.6817 10.8279 19.5728 10.7827 19.459 10.781V10.78Z"
		fill="#73AF00"
	/>
	<path
		d="M19.02 11.152C19.02 11.137 19.023 11.122 19.025 11.107C18.9789 11.1513 18.9236 11.1848 18.863 11.2051C18.8024 11.2254 18.738 11.232 18.6745 11.2243C18.611 11.2167 18.5501 11.195 18.496 11.1609C18.442 11.1267 18.3962 11.081 18.362 11.027C18.3274 11.0813 18.2812 11.1271 18.2266 11.1612C18.172 11.1953 18.1105 11.2167 18.0466 11.224C17.9827 11.2313 17.918 11.2242 17.8571 11.2033C17.7963 11.1823 17.7409 11.1481 17.695 11.103C17.6734 11.2206 17.6114 11.327 17.5198 11.4038C17.4281 11.4807 17.3126 11.5232 17.193 11.524C17.1685 11.5232 17.1441 11.5205 17.12 11.516V11.524C17.1205 11.6157 17.0926 11.7053 17.0402 11.7805C16.9877 11.8557 16.9132 11.9128 16.827 11.944C16.8867 11.9663 16.9507 11.9747 17.0142 11.9684C17.0776 11.9622 17.1388 11.9415 17.193 11.908C17.2594 11.9482 17.3354 11.9696 17.413 11.97C17.471 11.9695 17.5284 11.9575 17.5818 11.9348C17.6353 11.9121 17.6837 11.8791 17.7244 11.8377C17.765 11.7963 17.7972 11.7473 17.8189 11.6935C17.8406 11.6396 17.8515 11.582 17.851 11.524C17.8504 11.5056 17.8488 11.4872 17.846 11.469C17.9242 11.5094 18.0119 11.5281 18.0998 11.5232C18.1877 11.5183 18.2728 11.4899 18.346 11.441C18.3828 11.5105 18.4378 11.5688 18.505 11.6097C18.5723 11.6505 18.6493 11.6724 18.728 11.673C18.7628 11.6725 18.7974 11.6678 18.831 11.659C18.8704 11.7088 18.9204 11.7491 18.9773 11.7772C19.0342 11.8053 19.0967 11.8203 19.1601 11.8213C19.2236 11.8223 19.2865 11.8091 19.3442 11.7828C19.402 11.7564 19.4531 11.7176 19.494 11.669C19.3643 11.6586 19.2433 11.5996 19.1554 11.5037C19.0675 11.4078 19.0191 11.2821 19.02 11.152Z"
		fill="#5FA000"
	/>
	<path
		d="M17.997 15.743C17.9856 15.743 17.9744 15.7394 17.9651 15.7328C17.9558 15.7262 17.9487 15.7168 17.945 15.706C17.8897 15.5747 17.7941 15.4644 17.6721 15.3909C17.5501 15.3174 17.4079 15.2845 17.266 15.297H16.536C16.3259 15.2952 16.125 15.21 15.9777 15.0601C15.8303 14.9103 15.7484 14.7081 15.75 14.498V9.591C15.7499 9.58369 15.7512 9.57643 15.7539 9.56964C15.7566 9.56286 15.7606 9.55667 15.7658 9.55146C15.7709 9.54625 15.777 9.54211 15.7837 9.53928C15.7905 9.53645 15.7977 9.535 15.805 9.535H20.335C20.3423 9.535 20.3495 9.53645 20.3563 9.53928C20.363 9.54211 20.3691 9.54625 20.3742 9.55146C20.3794 9.55667 20.3834 9.56286 20.3861 9.56964C20.3888 9.57643 20.3901 9.58369 20.39 9.591V14.498C20.3919 14.7081 20.3102 14.9104 20.163 15.0604C20.0159 15.2104 19.8151 15.2959 19.605 15.298H18.728C18.5865 15.2865 18.4449 15.3195 18.3232 15.3925C18.2014 15.4655 18.1055 15.5748 18.049 15.705C18.0454 15.716 18.0385 15.7256 18.0291 15.7324C18.0198 15.7392 18.0086 15.7429 17.997 15.743ZM15.86 9.647V14.498C15.8587 14.6788 15.9291 14.8528 16.0558 14.9817C16.1825 15.1107 16.3552 15.1842 16.536 15.186H17.266C17.4107 15.1782 17.5548 15.2093 17.6834 15.2761C17.812 15.343 17.9203 15.4431 17.997 15.566C18.0736 15.4432 18.1818 15.3432 18.3101 15.2764C18.4385 15.2096 18.5825 15.1783 18.727 15.186H19.605C19.7858 15.1842 19.9585 15.1107 20.0852 14.9817C20.2119 14.8528 20.2823 14.6788 20.281 14.498V9.647H15.86Z"
		fill="#464655"
	/>
	<path
		d="M17.837 8.5L17.714 8.736L17.837 8.971L17.575 8.981L17.436 9.207L17.297 8.981L17.036 8.971L17.159 8.736L17.036 8.5L17.297 8.491L17.437 8.265L17.575 8.491L17.837 8.5ZM16.645 8.604L16.389 8.657L16.202 8.47L16.119 8.723L15.866 8.794L16.04 8.994L15.974 9.252L16.231 9.199L16.418 9.386L16.501 9.133L16.754 9.062L16.58 8.862L16.645 8.604ZM15.479 8.86L15.239 8.968L15.017 8.827L14.99 9.092L14.758 9.217L14.97 9.374L14.96 9.64L15.2 9.532L15.423 9.673L15.45 9.408L15.681 9.283L15.469 9.126L15.479 8.86ZM18.702 8.491L18.564 8.265L18.424 8.491L18.163 8.501L18.286 8.736L18.163 8.971L18.425 8.981L18.564 9.207L18.702 8.981L18.964 8.971L18.841 8.736L18.964 8.5L18.702 8.491ZM19.882 8.723L19.798 8.47L19.611 8.657L19.354 8.604L19.42 8.862L19.246 9.062L19.499 9.132L19.582 9.386L19.769 9.199L20.026 9.252L19.96 8.994L20.134 8.794L19.882 8.723ZM21.242 9.217L21.01 9.092L20.983 8.827L20.761 8.968L20.521 8.86L20.531 9.126L20.318 9.283L20.55 9.408L20.577 9.673L20.8 9.532L21.039 9.64L21.029 9.374L21.242 9.217Z"
		fill="#FFE15A"
	/>
	<path
		d="M0 24L9.007 12.391C9.09344 12.279 9.14033 12.1415 9.14033 12C9.14033 11.8585 9.09344 11.721 9.007 11.609L0 0"
		fill="#4173CD"
	/>
</svg>
