<svg viewBox="0 0 36 24" fill="none" xmlns="http://www.w3.org/2000/svg">
	<path d="M36 12H0V0H36V12Z" fill="#73AF00" />
	<path d="M0 12H36V24H0V12Z" fill="#4173CD" />
	<path d="M0 24L36 12L0 0" fill="#FF4B55" />
	<path
		d="M13.276 15.605C13.8219 15.3708 14.3074 15.0155 14.6957 14.5659C15.084 14.1163 15.3648 13.5842 15.517 13.01C15.152 13.5044 14.7156 13.9419 14.222 14.308C14.8819 13.3987 15.2085 12.2899 15.147 11.168C15.0767 11.4921 14.9284 11.7941 14.715 12.048C14.715 12.048 15.229 9.808 14.571 8.867C14.5706 9.40813 14.4804 9.94544 14.304 10.457C14.304 10.457 14.414 7.939 13.289 7.297C13.5334 7.74379 13.6227 8.25901 13.543 8.762C13.4252 8.3188 13.2065 7.9088 12.9042 7.56397C12.6019 7.21913 12.224 6.94879 11.8 6.774C11.7287 6.90132 11.7047 7.04968 11.732 7.193C11.5529 7.02217 11.3387 6.8925 11.1043 6.81305C10.8699 6.7336 10.621 6.70628 10.375 6.733C10.4017 6.9825 10.4938 7.22052 10.642 7.423C10.4477 7.53187 10.2263 7.58288 10.004 7.57C10.004 7.57 10.395 8.009 11.773 7.967C11.6122 8.08926 11.4194 8.16221 11.218 8.177C11.5727 8.33626 11.9492 8.44176 12.335 8.49C12.6316 8.5017 12.9148 8.61693 13.1353 8.81569C13.3558 9.01445 13.4997 9.28417 13.542 9.578C13.227 9.39258 12.9482 9.1517 12.719 8.867C12.719 8.867 12.678 9.474 13.809 10.646L13.233 10.395C13.233 10.395 13.603 11.483 14.056 12.717L13.583 12.194C13.583 12.194 13.48 13.074 13.398 14.705L13.068 13.931C13.068 13.931 12.493 15.856 11.608 16.171C11.0327 16.3667 10.4455 16.5254 9.85 16.646C9.821 15.569 10.272 15.333 10.272 15.333C11.074 15.375 11.259 14.475 11.259 14.475C11.125 14.5831 10.9582 14.6423 10.786 14.643C11.0778 14.3043 11.2448 13.8758 11.259 13.429C11.1907 13.5847 11.089 13.7236 10.9611 13.8357C10.8332 13.9479 10.6823 14.0306 10.519 14.078L10.559 13.513C10.3136 13.6642 10.1134 13.8785 9.97938 14.1336C9.84532 14.3887 9.78233 14.6752 9.797 14.963C9.777 14.827 9.629 13.767 9.552 13.513C9.469 13.241 9.655 12.696 9.942 12.78C10.874 13.051 11.094 12.362 11.094 12.362C10.9775 12.4321 10.8463 12.4742 10.7108 12.4849C10.5753 12.4957 10.4391 12.4748 10.313 12.424C10.4916 12.2842 10.6229 12.0928 10.6891 11.8758C10.7553 11.6588 10.7532 11.4267 10.683 11.211C10.6237 11.3862 10.5209 11.5433 10.384 11.6677C10.2472 11.7921 10.081 11.8796 9.901 11.922L9.881 11.252C9.613 11.399 9.367 12.048 9.367 12.048C9.33541 11.715 9.3774 11.379 9.49 11.064C9.51515 11.0032 9.55287 10.9484 9.60069 10.9031C9.64851 10.8579 9.70534 10.8233 9.76747 10.8016C9.8296 10.7799 9.89562 10.7715 9.9612 10.7771C10.0268 10.7827 10.0904 10.8021 10.148 10.834C10.3804 10.8802 10.6216 10.8397 10.8262 10.7201C11.0307 10.6005 11.1843 10.4102 11.258 10.185L10.703 10.269C10.8733 10.1649 11.0065 10.01 11.0841 9.82607C11.1616 9.64216 11.1794 9.43857 11.135 9.244C10.991 9.599 10.477 9.662 10.477 9.662L10.724 8.992C10.189 8.992 9.881 9.704 9.881 9.704L9.84 9.014C9.92653 8.79016 9.94125 8.54493 9.88212 8.31234C9.82299 8.07975 9.69293 7.87134 9.51 7.716C9.43562 7.8797 9.41429 8.06257 9.449 8.239C9.38814 8.1767 9.31413 8.12877 9.23238 8.09873C9.15063 8.06868 9.0632 8.05726 8.97648 8.06531C8.88976 8.07336 8.80592 8.10067 8.7311 8.14525C8.65628 8.18983 8.59236 8.25056 8.544 8.323C8.63459 8.43873 8.74999 8.53268 8.88169 8.59792C9.01339 8.66317 9.15804 8.69805 9.305 8.7C9.1201 8.76944 8.92605 8.81155 8.729 8.825C9.243 9.265 9.531 9.181 9.531 9.181C9.61963 9.45112 9.62798 9.74116 9.55502 10.0159C9.48207 10.2907 9.33095 10.5384 9.12 10.729C9.06441 10.281 8.85351 9.86661 8.524 9.558L8.544 10.081C8.30234 9.87675 8.1122 9.61844 7.989 9.327C7.93915 9.58536 7.94456 9.85135 8.00489 10.1075C8.06521 10.3636 8.17908 10.604 8.339 10.813L7.824 10.771C8.277 11.839 8.996 11.504 8.996 11.504C8.98695 12.1714 9.0493 12.8379 9.182 13.492C9.08 13.366 7.99 12.32 7.99 12.32C8.01206 12.6676 8.13355 13.0015 8.34 13.282C8.05325 13.1473 7.78367 12.9788 7.537 12.78C7.599 13.45 8.463 13.89 8.463 13.89C8.11942 13.8525 7.7888 13.7376 7.496 13.554C7.50972 13.749 7.57321 13.9371 7.68038 14.1006C7.78756 14.264 7.93485 14.3972 8.10819 14.4875C8.28152 14.5778 8.47511 14.6221 8.67046 14.6162C8.86581 14.6104 9.05639 14.5545 9.224 14.454L9.328 16.634C9.041 16.564 8.414 16.401 7.764 16.17C6.879 15.856 6.304 13.931 6.304 13.931L5.974 14.705C5.93712 13.8667 5.87543 13.0297 5.789 12.195L5.316 12.717C5.769 11.483 6.139 10.395 6.139 10.395L5.563 10.645C6.694 9.474 6.653 8.867 6.653 8.867C6.42406 9.15157 6.14559 9.39244 5.831 9.578C5.88601 9.28884 6.02422 9.02203 6.22867 8.81029C6.43313 8.59855 6.69495 8.45109 6.982 8.386C7.37769 8.34771 7.76963 8.27748 8.154 8.176C7.95267 8.1615 7.75988 8.0889 7.599 7.967C9.203 7.82 9.368 7.381 9.368 7.381C9.03222 7.40944 8.69439 7.40274 8.36 7.361C8.90321 7.0865 9.46731 6.85545 10.047 6.67C9.20816 6.55658 8.35614 6.74171 7.64 7.193C7.78895 6.92712 7.96094 6.67482 8.154 6.439C7.14818 6.94119 6.33263 7.7564 5.83 8.762C5.75029 8.25901 5.83962 7.74379 6.084 7.297C4.96 7.939 5.069 10.457 5.069 10.457C4.89255 9.94545 4.80232 9.40813 4.802 8.867C4.144 9.809 4.658 12.047 4.658 12.047C4.4449 11.7937 4.29664 11.4924 4.226 11.169C4.16497 12.2906 4.49196 13.3991 5.152 14.308C4.65806 13.9419 4.22129 13.5045 3.856 13.01C4.00829 13.5843 4.2893 14.1164 4.67775 14.566C5.06619 15.0157 5.55188 15.3709 6.098 15.605C5.131 15.229 4.72 15.542 4.72 15.542C5.40318 15.7311 6.04009 16.0589 6.591 16.505C7.16451 16.8486 7.81501 17.0428 8.483 17.07C8.70202 17.0982 8.91934 17.1382 9.134 17.19C8.95628 17.2792 8.80699 17.4162 8.70293 17.5856C8.59887 17.7551 8.54417 17.9502 8.545 18.149H10.643C10.6437 17.9576 10.593 17.7695 10.4963 17.6044C10.3995 17.4392 10.2603 17.303 10.093 17.21C10.304 17.164 10.585 17.11 10.89 17.07C11.5488 16.9933 12.189 16.8021 12.782 16.505C13.3603 16.1026 13.9894 15.7787 14.653 15.542C14.653 15.542 14.243 15.229 13.276 15.605Z"
		fill="#FFE15A"
	/>
</svg>
