<svg viewBox="0 0 36 24" fill="none" xmlns="http://www.w3.org/2000/svg">
	<path d="M0 19.579H36V24H0V19.579ZM0 0H36V4.421H0V0Z" fill="#4173CD" />
	<path d="M0 5.053H36V18.948H0V5.053Z" fill="#FF4B55" />
	<path
		d="M0 18.948H36V20.21H0V18.948ZM0 3.79V5.053H36V3.788L0 3.79ZM4.077 12.164V12.271C4.0766 12.3153 4.08493 12.3592 4.1015 12.4002C4.11807 12.4412 4.14256 12.4786 4.17358 12.5102C4.20459 12.5417 4.24153 12.5669 4.28226 12.5842C4.323 12.6015 4.36674 12.6106 4.411 12.611H31.563C31.6073 12.6106 31.651 12.6015 31.6917 12.5842C31.7325 12.5669 31.7694 12.5417 31.8004 12.5102C31.8314 12.4786 31.8559 12.4412 31.8725 12.4002C31.8891 12.3592 31.8974 12.3153 31.897 12.271V12.164C31.8974 12.1197 31.8891 12.0758 31.8725 12.0348C31.8559 11.9938 31.8314 11.9564 31.8004 11.9248C31.7694 11.8933 31.7325 11.8681 31.6917 11.8508C31.651 11.8335 31.6073 11.8244 31.563 11.824H4.411C4.36674 11.8244 4.323 11.8335 4.28226 11.8508C4.24153 11.8681 4.20459 11.8933 4.17358 11.9248C4.14256 11.9564 4.11807 11.9938 4.1015 12.0348C4.08493 12.0758 4.0766 12.1197 4.077 12.164ZM6.535 11.038C6.53474 11.0707 6.54092 11.1031 6.55319 11.1334C6.56546 11.1638 6.58358 11.1914 6.60651 11.2147C6.62945 11.238 6.65675 11.2565 6.68686 11.2693C6.71697 11.282 6.7493 11.2887 6.782 11.289H26.627C26.6936 11.289 26.7574 11.2626 26.8045 11.2155C26.8516 11.1684 26.878 11.1046 26.878 11.038C26.878 10.9714 26.8516 10.9076 26.8045 10.8605C26.7574 10.8134 26.6936 10.787 26.627 10.787H6.782C6.71613 10.7875 6.65316 10.8141 6.60687 10.861C6.56058 10.9078 6.53473 10.9711 6.535 11.037V11.038ZM28.033 9.913C28.0996 9.913 28.1634 9.88656 28.2105 9.83948C28.2576 9.79241 28.284 9.72857 28.284 9.662C28.284 9.59543 28.2576 9.53159 28.2105 9.48452C28.1634 9.43744 28.0996 9.411 28.033 9.411H8.188C8.12143 9.411 8.05759 9.43744 8.01052 9.48452C7.96344 9.53159 7.937 9.59543 7.937 9.662C7.937 9.72857 7.96344 9.79241 8.01052 9.83948C8.05759 9.88656 8.12143 9.913 8.188 9.913H28.033Z"
		fill="#FFE15A"
	/>
	<path
		d="M27.646 10.447L28.999 11.037L27.646 11.627L26.294 11.037L27.646 10.447ZM29.052 9.071L27.7 9.661L29.052 10.251L30.405 9.661L29.052 9.071ZM17.987 7.105C16.3297 7.1238 14.7083 7.59057 13.2946 8.45583C11.881 9.3211 10.7277 10.5527 9.957 12.02C10.7278 13.4872 11.8812 14.7185 13.2948 15.5836C14.7085 16.4487 16.3298 16.9153 17.987 16.934C19.6442 16.9153 21.2655 16.4487 22.6792 15.5836C24.0928 14.7185 25.2462 13.4872 26.017 12.02C25.2463 10.5527 24.093 9.3211 22.6794 8.45583C21.2657 7.59057 19.6443 7.1238 17.987 7.105Z"
		fill="#F5F5F5"
	/>
	<path
		d="M19.664 16.769C19.1116 16.8776 18.55 16.9329 17.987 16.934C16.3298 16.9153 14.7085 16.4487 13.2948 15.5836C11.8812 14.7185 10.7278 13.4872 9.957 12.02C10.7277 10.5527 11.881 9.3211 13.2946 8.45583C14.7083 7.59057 16.3297 7.1238 17.987 7.105C17.601 7.499 17.005 8.088 17.375 8.891C17.745 9.694 18.502 9.825 18.631 10.808C18.653 10.9884 18.696 11.1656 18.759 11.336V10.251H19.146V11.823H19.023C19.116 11.965 19.166 12.056 19.082 12.183C18.889 12.478 18.632 12.626 18.518 13.117C18.404 13.608 17.762 13.822 17.826 14.133C17.891 14.444 19.339 14.575 19.114 14.886C18.889 15.198 17.601 15.116 17.697 15.493C17.787 15.843 19.248 15.841 19.664 16.769ZM19.532 11.823H19.918V10.251H19.532V11.823ZM20.305 11.823H20.691V10.251H20.305V11.823ZM21.078 11.823H21.464V10.251H21.078V11.823ZM21.85 11.823H22.237V10.251H21.85V11.823ZM22.623 10.251V11.823H23.009V10.251H22.623ZM18.759 14.182H19.146V12.61H18.759V14.182ZM19.532 14.182H19.918V12.61H19.532V14.182ZM20.305 14.182H20.691V12.61H20.305V14.182ZM21.078 14.182H21.464V12.61H21.078V14.182ZM21.85 14.182H22.237V12.61H21.85V14.182ZM22.623 14.182H23.009V12.61H22.623V14.182Z"
		fill="#464655"
	/>
	<path
		d="M12.963 10.25H13.35V11.823H12.963V10.25ZM13.737 11.823H14.123V10.251H13.737V11.823ZM14.51 11.823H14.896V10.251H14.51V11.823ZM15.282 11.823H15.669V10.251H15.282V11.823ZM16.055 11.823H16.441V10.251H16.055V11.823ZM16.828 10.251V11.823H17.214V10.251H16.828ZM12.963 14.182H13.35V12.61H12.963V14.182ZM13.737 14.182H14.123V12.61H13.737V14.182ZM14.51 14.182H14.896V12.61H14.51V14.182ZM15.282 14.182H15.669V12.61H15.282V14.182ZM16.055 14.182H16.441V12.61H16.055V14.182ZM16.828 14.182H17.214V12.61H16.828V14.182Z"
		fill="#F5F5F5"
	/>
	<path
		d="M31.504 13.798L31.184 13.655C31.1281 14.308 30.8307 14.9166 30.35 15.362C29.9567 15.053 29.6495 14.648 29.458 14.186L29.208 14.444C28.72 12.579 29.6 12.494 29.91 11.762C31.35 11.891 31.504 13.798 31.504 13.798ZM5.786 12.008C5.527 12.619 4.791 12.691 5.199 14.25L5.408 14.035C5.56825 14.4212 5.82515 14.7597 6.154 15.018C6.55546 14.6455 6.80361 14.1367 6.85 13.591L7.119 13.711C7.119 13.711 6.989 12.116 5.786 12.008Z"
		fill="#245DBD"
	/>
	<path
		d="M31.119 13.228C31.111 13.2384 31.1007 13.2469 31.0889 13.2526C31.0771 13.2583 31.0641 13.2612 31.051 13.261C31.0379 13.2608 31.025 13.2575 31.0133 13.2515C31.0017 13.2454 30.9917 13.2367 30.984 13.226C30.802 13.0023 30.5629 12.8319 30.292 12.733C30.2657 12.7223 30.2441 12.7024 30.2312 12.6771C30.2184 12.6517 30.2151 12.6226 30.222 12.595C30.2234 12.5817 30.2276 12.5687 30.2343 12.5571C30.241 12.5455 30.25 12.5354 30.2609 12.5275C30.2717 12.5196 30.2841 12.514 30.2972 12.5112C30.3103 12.5083 30.3239 12.5083 30.337 12.511C30.6444 12.6198 30.9155 12.812 31.12 13.066C31.1379 13.0893 31.1475 13.1178 31.1473 13.1472C31.1471 13.1765 31.1371 13.2049 31.119 13.228ZM30.376 13.342C30.3654 13.3346 30.3533 13.3296 30.3405 13.3274C30.3277 13.3253 30.3146 13.326 30.3022 13.3295C30.2897 13.3331 30.2782 13.3393 30.2685 13.3479C30.2588 13.3565 30.2511 13.3671 30.246 13.379C30.2325 13.4049 30.2282 13.4345 30.2336 13.4632C30.2391 13.4919 30.254 13.5178 30.276 13.537C30.4658 13.6913 30.629 13.8758 30.759 14.083C30.7666 14.0963 30.7775 14.1073 30.7907 14.1152C30.8038 14.1231 30.8187 14.1275 30.834 14.128C30.8557 14.1277 30.8764 14.1191 30.892 14.104C30.9124 14.0831 30.9252 14.0561 30.9285 14.0271C30.9317 13.9981 30.9252 13.9689 30.91 13.944C30.7667 13.715 30.5863 13.5116 30.376 13.342ZM30.261 13.902C30.2348 13.9138 30.2138 13.9347 30.2016 13.9608C30.1895 13.9868 30.1872 14.0163 30.195 14.044C30.2554 14.3454 30.2706 14.6541 30.24 14.96C30.2343 14.9878 30.2391 15.0167 30.2535 15.0411C30.2679 15.0655 30.2909 15.0836 30.318 15.092L30.335 15.094C30.3593 15.0919 30.382 15.0812 30.3991 15.0637C30.4162 15.0463 30.4264 15.0233 30.428 14.999C30.4628 14.6598 30.446 14.3172 30.378 13.983C30.3763 13.9697 30.3718 13.957 30.3648 13.9456C30.3578 13.9342 30.3485 13.9244 30.3374 13.9168C30.3264 13.9093 30.3138 13.9041 30.3007 13.9017C30.2875 13.8994 30.274 13.8988 30.261 13.902ZM30.026 13.144C30.0127 13.1416 29.9991 13.142 29.986 13.1451C29.9728 13.1483 29.9605 13.1541 29.9498 13.1623C29.9391 13.1705 29.9302 13.1808 29.9236 13.1927C29.9171 13.2045 29.9132 13.2176 29.912 13.231C29.864 13.4549 29.7574 13.6619 29.603 13.831C29.5833 13.8531 29.5716 13.8812 29.5698 13.9108C29.568 13.9403 29.5761 13.9696 29.593 13.994C29.601 14.0059 29.6116 14.0158 29.6242 14.0227C29.6367 14.0297 29.6507 14.0335 29.665 14.034C29.688 14.0337 29.7099 14.0244 29.726 14.008C29.9141 13.8042 30.0427 13.5528 30.098 13.281C30.1047 13.2533 30.1011 13.2241 30.0879 13.1989C30.0746 13.1737 30.0526 13.1542 30.026 13.144ZM29.98 12.639C29.9908 12.6121 29.9921 12.5823 29.9835 12.5546C29.975 12.527 29.9571 12.5031 29.933 12.487C29.9212 12.4811 29.9081 12.4778 29.8949 12.4776C29.8816 12.4773 29.8685 12.48 29.8564 12.4855C29.8443 12.4909 29.8336 12.499 29.8251 12.5091C29.8165 12.5193 29.8104 12.5312 29.807 12.544C29.6992 12.7582 29.5431 12.9445 29.351 13.088C29.3285 13.1068 29.3131 13.1327 29.3073 13.1614C29.3015 13.1901 29.3056 13.2199 29.319 13.246C29.3263 13.2618 29.3378 13.2752 29.3523 13.2847C29.3668 13.2942 29.3837 13.2995 29.401 13.3C29.4191 13.2999 29.4366 13.294 29.451 13.283C29.6769 13.1144 29.8584 12.8934 29.98 12.639ZM6.143 12.634C6.13204 12.6317 6.12072 12.6317 6.10977 12.6341C6.09882 12.6364 6.08848 12.6411 6.07943 12.6477C6.07039 12.6543 6.06282 12.6627 6.05724 12.6724C6.05165 12.6821 6.04816 12.6929 6.047 12.704C6.04109 12.7271 6.04371 12.7515 6.05436 12.7728C6.06501 12.7941 6.08299 12.8109 6.105 12.82C6.33199 12.9024 6.53242 13.0448 6.685 13.232C6.69136 13.2408 6.69969 13.248 6.70933 13.2531C6.71896 13.2581 6.72963 13.2608 6.7405 13.261C6.75137 13.2612 6.76213 13.2589 6.77194 13.2542C6.78175 13.2495 6.79033 13.2426 6.797 13.234C6.81225 13.2146 6.82054 13.1907 6.82054 13.166C6.82054 13.1413 6.81225 13.1174 6.797 13.098C6.62621 12.8857 6.39979 12.7251 6.143 12.634ZM6.176 13.329C6.16715 13.3224 6.1569 13.3179 6.14603 13.3159C6.13517 13.3139 6.12399 13.3144 6.11335 13.3174C6.10272 13.3204 6.09291 13.3258 6.0847 13.3332C6.07649 13.3406 6.07009 13.3497 6.066 13.36C6.0545 13.3818 6.05081 13.4069 6.05554 13.4311C6.06027 13.4553 6.07314 13.4771 6.092 13.493C6.25033 13.622 6.38647 13.776 6.495 13.949C6.50144 13.9604 6.51073 13.9698 6.52195 13.9765C6.53318 13.9832 6.54595 13.9868 6.559 13.987C6.57697 13.9867 6.59416 13.9796 6.607 13.967C6.62425 13.9494 6.63511 13.9266 6.63783 13.9021C6.64055 13.8776 6.63497 13.8529 6.622 13.832C6.50232 13.6407 6.35159 13.4707 6.176 13.329ZM6.079 13.799C6.05725 13.8089 6.03976 13.8262 6.02967 13.8478C6.01958 13.8695 6.01757 13.894 6.024 13.917C6.07458 14.1687 6.08739 14.4265 6.062 14.682C6.05745 14.7051 6.06156 14.7291 6.07354 14.7494C6.08553 14.7697 6.10455 14.7848 6.127 14.792L6.141 14.794C6.1614 14.7921 6.18046 14.7831 6.19476 14.7684C6.20906 14.7537 6.21766 14.7344 6.219 14.714C6.24795 14.4305 6.23379 14.1443 6.177 13.865C6.17549 13.8539 6.17168 13.8433 6.1658 13.8337C6.15992 13.8242 6.15212 13.816 6.14288 13.8097C6.13364 13.8034 6.12319 13.7991 6.11218 13.7971C6.10118 13.7951 6.08988 13.7964 6.079 13.799ZM5.882 13.164C5.87095 13.162 5.85961 13.1624 5.84871 13.165C5.83781 13.1677 5.82759 13.1727 5.81873 13.1795C5.80986 13.1864 5.80254 13.1951 5.79725 13.205C5.79196 13.2149 5.7888 13.2258 5.788 13.237C5.74782 13.4244 5.65842 13.5977 5.529 13.739C5.51252 13.7572 5.50259 13.7803 5.50077 13.8048C5.49896 13.8292 5.50538 13.8536 5.519 13.874C5.52574 13.8843 5.53493 13.8928 5.54574 13.8988C5.55656 13.9047 5.56867 13.9079 5.581 13.908C5.59991 13.9075 5.61787 13.8996 5.631 13.886C5.7886 13.7156 5.8965 13.5054 5.943 13.278C5.94846 13.255 5.94539 13.2307 5.93436 13.2098C5.92333 13.1888 5.90409 13.1725 5.882 13.164ZM5.844 12.742C5.85304 12.7195 5.854 12.6945 5.8467 12.6713C5.83941 12.6482 5.82432 12.6283 5.804 12.615C5.79417 12.61 5.78334 12.6073 5.77232 12.607C5.7613 12.6067 5.75035 12.6089 5.74029 12.6135C5.73022 12.618 5.72129 12.6247 5.71415 12.6331C5.70701 12.6415 5.70183 12.6513 5.699 12.662C5.60896 12.8411 5.47853 12.9969 5.318 13.117C5.29937 13.1328 5.28666 13.1545 5.28194 13.1785C5.27721 13.2024 5.28076 13.2273 5.292 13.249C5.29808 13.262 5.30765 13.2732 5.31965 13.2811C5.33165 13.289 5.34562 13.2935 5.36 13.294C5.37482 13.2939 5.38919 13.2889 5.401 13.28C5.59004 13.1392 5.74206 12.9546 5.844 12.742Z"
		fill="#FF4B55"
	/>
</svg>
