<svg viewBox="0 0 36 24" fill="none" xmlns="http://www.w3.org/2000/svg">
	<path d="M36 8H0V0H36V8Z" fill="#73AF00" />
	<path d="M36 24H0V16H36V24Z" fill="#FF4B55" />
	<path d="M0 8H36V16H0V8Z" fill="#FFE15A" />
	<path
		d="M25.45 12.007C25.45 13.9829 24.6651 15.8778 23.2679 17.2749C21.8708 18.6721 19.9759 19.457 18 19.457C16.0241 19.457 14.1292 18.6721 12.7321 17.2749C11.3349 15.8778 10.55 13.9829 10.55 12.007C10.55 10.0311 11.3349 8.1362 12.7321 6.73905C14.1292 5.34191 16.0241 4.557 18 4.557C19.9759 4.557 21.8708 5.34191 23.2679 6.73905C24.6651 8.1362 25.45 10.0311 25.45 12.007Z"
		fill="#4173CD"
	/>
	<path
		d="M16.258 13.005L15.181 16.381L14.497 16.883L15.834 12.697L13.271 10.797H14.116L17.842 13.55L17.419 13.864L16.258 13.005ZM16.498 10.615L16.056 12.001L16.48 12.316L17.902 7.857L17.642 7.034L16.662 10.101H12.334L13.018 10.616L16.498 10.615ZM17.38 10.101L17.218 10.616H21.823L22.508 10.101H19.338L18 5.915L17.738 6.732L18.816 10.102L17.38 10.101ZM18.424 13.979L19.581 13.126L19.422 12.618L15.699 15.377L15.438 16.187L18 14.294L21.503 16.883L21.24 16.066L18.424 13.979ZM19.56 10.797H19.04L20.461 15.256L21.145 15.764L20.165 12.697L23.665 10.101H22.821L20.003 12.188L19.56 10.797ZM21.601 7.174L21.404 7.028L19.505 9.684L19.708 9.829L21.601 7.174ZM16.493 9.684L14.596 7.028L14.396 7.174L16.296 9.829L16.493 9.684ZM20.637 12.745L20.559 12.981L23.629 13.991L23.707 13.755L20.637 12.745ZM15.365 12.745L12.293 13.755L12.37 13.991L15.44 12.981L15.365 12.745ZM17.877 18.069H18.125V14.784H17.877V18.069Z"
		fill="#F2DD30"
	/>
</svg>
