<svg viewBox="0 0 36 24" fill="none" xmlns="http://www.w3.org/2000/svg">
	<path d="M36 8H0V0H36V8Z" fill="#FF4B55" />
	<path d="M36 24H0V16H36V24Z" fill="#73AF00" />
	<path d="M0 8H36V16H0V8Z" fill="#FFE15A" />
	<path
		d="M18.262 8.989L18.909 10.965L20.957 10.981C21.0154 10.9826 21.0719 11.0024 21.1186 11.0375C21.1653 11.0726 21.2 11.1214 21.2178 11.1771C21.2356 11.2327 21.2356 11.2926 21.2179 11.3483C21.2002 11.404 21.1657 11.4528 21.119 11.488L19.472 12.725L20.089 14.712C20.1073 14.7674 20.1076 14.8271 20.09 14.8827C20.0723 14.9383 20.0376 14.9868 19.9907 15.0215C19.9439 15.0562 19.8872 15.0752 19.8289 15.0758C19.7706 15.0765 19.7136 15.0587 19.666 15.025L18 13.813L16.334 15.024C16.2864 15.0577 16.2294 15.0755 16.1711 15.0748C16.1128 15.0742 16.0561 15.0552 16.0093 15.0205C15.9624 14.9858 15.9277 14.9373 15.91 14.8817C15.8924 14.8261 15.8927 14.7664 15.911 14.711L16.528 12.725L14.881 11.487C14.8347 11.4517 14.8005 11.4029 14.7831 11.3474C14.7656 11.2919 14.7658 11.2323 14.7835 11.1769C14.8013 11.1214 14.8358 11.0729 14.8822 11.0378C14.9287 11.0027 14.9848 10.9829 15.043 10.981L17.091 10.965L17.738 8.988C17.7552 8.9319 17.7899 8.8828 17.8371 8.84791C17.8842 8.81303 17.9413 8.7942 18 8.7942C18.0587 8.7942 18.1158 8.81303 18.1629 8.84791C18.2101 8.8828 18.2448 8.9319 18.262 8.988V8.989Z"
		fill="#464655"
	/>
</svg>
