<svg viewBox="0 0 36 24" fill="none" xmlns="http://www.w3.org/2000/svg">
	<path d="M36 12H0V0H36V12Z" fill="#FFE15A" />
	<path d="M0 12H36V24H0V12Z" fill="#73AF00" />
	<path d="M11.793 0V24H0V0H11.793Z" fill="#FF4B55" />
	<path
		d="M5.78 8.85L5.095 10.937L2.933 10.954C2.90698 10.9547 2.88182 10.9635 2.861 10.9791C2.84017 10.9948 2.82469 11.0164 2.81669 11.0412C2.80869 11.066 2.80855 11.0926 2.81631 11.1175C2.82407 11.1423 2.83933 11.1642 2.86 11.18L4.6 12.488L3.948 14.586C3.93968 14.6109 3.93946 14.6377 3.94737 14.6627C3.95529 14.6878 3.97093 14.7096 3.99204 14.7252C4.01315 14.7407 4.03866 14.7492 4.06488 14.7493C4.09111 14.7495 4.11671 14.7413 4.138 14.726L5.897 13.446L7.657 14.726C7.67831 14.7409 7.70376 14.7487 7.72977 14.7484C7.75577 14.748 7.78101 14.7395 7.80191 14.724C7.8228 14.7086 7.83831 14.6869 7.84622 14.6621C7.85413 14.6374 7.85406 14.6107 7.846 14.586L7.193 12.488L8.933 11.181C8.95401 11.1653 8.96962 11.1435 8.97765 11.1186C8.98569 11.0937 8.98575 11.0668 8.97783 11.0419C8.96991 11.0169 8.9544 10.995 8.93346 10.9793C8.91252 10.9635 8.88719 10.9547 8.861 10.954L6.698 10.937L6.014 8.849C6.00623 8.82391 5.99064 8.80196 5.96949 8.78637C5.94835 8.77078 5.92277 8.76237 5.8965 8.76237C5.87023 8.76237 5.84465 8.77078 5.82351 8.78637C5.80236 8.80196 5.78677 8.82391 5.779 8.849L5.78 8.85Z"
		fill="#464655"
	/>
</svg>
