<svg viewBox="0 0 36 24" fill="none" xmlns="http://www.w3.org/2000/svg">
	<path d="M0 16H36V24H0V16Z" fill="#73AF00" />
	<path d="M0 0H36V8H0V0Z" fill="#464655" />
	<path
		d="M19.894 8.842H36V7.58H20.496L20.77 7.005C20.8843 7.01249 20.9981 6.9854 21.0968 6.92725C21.1954 6.8691 21.2742 6.7826 21.323 6.679C21.7567 5.54873 22.0985 4.38528 22.345 3.2C21.5815 4.13264 20.8952 5.12593 20.293 6.17C20.2435 6.27423 20.2256 6.3907 20.2416 6.50499C20.2576 6.61928 20.3068 6.72637 20.383 6.813L20.019 7.579H15.98L15.615 6.813C15.6914 6.72648 15.7408 6.61944 15.7569 6.50515C15.7731 6.39085 15.7554 6.27433 15.706 6.17C15.1038 5.12593 14.4175 4.13264 13.654 3.2C13.9002 4.38491 14.2416 5.54802 14.675 6.678C14.7238 6.78176 14.8028 6.86838 14.9017 6.92654C15.0005 6.9847 15.1146 7.0117 15.229 7.004L15.503 7.579H0V8.842H16.106L17.761 12.315L16.406 15.158H0V16.421H15.804L14.691 18.757L15.077 18.947L16.281 16.421H19.718L20.923 18.947L21.309 18.757L20.196 16.421H36V15.158H19.594L18.239 12.315L19.894 8.842ZM16.584 8.842H19.417L18 11.815L16.584 8.842ZM19.116 15.158H16.884L18 12.816L19.116 15.158Z"
		fill="#F5F5F5"
	/>
	<path
		d="M36 15.175H20.43C19.638 17.053 18.38 18.315 17.999 18.315C17.618 18.315 16.36 17.053 15.568 15.175H0V8.842H15.562C16.353 6.954 17.617 5.684 18 5.684C18.383 5.684 19.647 6.954 20.438 8.842H36V15.175Z"
		fill="#C8414B"
	/>
	<path
		d="M21.103 12C21.0936 13.046 20.8831 14.0805 20.483 15.047C20.0825 14.0806 19.8717 13.0461 19.862 12C19.8714 10.954 20.0819 9.91952 20.482 8.953C20.8828 9.91937 21.093 10.9538 21.103 12ZM14.897 12C14.9064 13.046 15.1168 14.0805 15.517 15.047C15.9175 14.0805 16.1283 13.0461 16.138 12C16.1286 10.954 15.9181 9.91952 15.518 8.953C15.1172 9.91938 14.906 10.9538 14.896 12H14.897Z"
		fill="#464655"
	/>
	<path
		d="M18 12.947C17.657 12.947 17.38 12.523 17.38 12C17.38 11.477 17.657 11.053 18 11.053C18.343 11.053 18.62 11.477 18.62 12C18.62 12.523 18.343 12.947 18 12.947ZM18.093 5.684V11.053C18.417 10.1955 18.5765 9.28458 18.563 8.368C18.5763 7.45175 18.4169 6.54119 18.093 5.684ZM17.907 5.684C17.5831 6.54119 17.4237 7.45175 17.437 8.368C17.4235 9.28459 17.583 10.1955 17.907 11.053V5.684ZM18.093 18.316C18.4169 17.4588 18.5763 16.5482 18.563 15.632C18.5765 14.7154 18.417 13.8045 18.093 12.947V18.316ZM17.907 18.316V12.947C17.583 13.8045 17.4235 14.7154 17.437 15.632C17.4236 16.5483 17.5831 17.4588 17.907 18.316Z"
		fill="#F5F5F5"
	/>
</svg>
