<svg viewBox="0 0 36 24" fill="none" xmlns="http://www.w3.org/2000/svg">
	<path d="M0 16H36V24H0V16Z" fill="#73AF00" />
	<path d="M0 0H36V8H0V0Z" fill="#41479B" />
	<path d="M0 8H36V16H0V8Z" fill="#F5F5F5" />
	<path
		d="M20.143 13.425L19.999 13.499L19.938 13.529L18.663 11.89C18.901 11.3418 19.0421 10.7564 19.08 10.16C19.0903 9.89125 19.0084 9.62707 18.848 9.4112C18.6876 9.19532 18.4583 9.04072 18.198 8.973C18.1816 8.93432 18.1542 8.90134 18.1191 8.87815C18.0841 8.85495 18.043 8.84259 18.001 8.84259C17.959 8.84259 17.9179 8.85495 17.8829 8.87815C17.8478 8.90134 17.8204 8.93432 17.804 8.973C17.5437 9.04072 17.3144 9.19532 17.154 9.4112C16.9936 9.62707 16.9117 9.89125 16.922 10.16C16.9599 10.7564 17.101 11.3418 17.339 11.89L16.064 13.528L16.004 13.5L15.86 13.425L15.321 14.502L15.465 14.577C16.2556 14.9597 17.1226 15.1585 18.001 15.1585C18.8794 15.1585 19.7464 14.9597 20.537 14.577L20.681 14.502L20.143 13.425ZM18.865 10.16C18.836 10.6189 18.7421 11.0714 18.586 11.504C18.5627 11.572 18.5383 11.6363 18.513 11.697L18.325 11.455V10.6H18.649L18.217 10.161V9.205C18.4128 9.27452 18.5812 9.40476 18.6978 9.57673C18.8143 9.7487 18.8729 9.9534 18.865 10.161V10.16ZM17.415 11.504C17.2593 11.0714 17.1657 10.6189 17.137 10.16C17.1291 9.9524 17.1877 9.7477 17.3042 9.57573C17.4208 9.40376 17.5892 9.27352 17.785 9.204V10.16L17.353 10.6H17.677V11.455L17.489 11.697C17.4637 11.6363 17.4383 11.572 17.415 11.504ZM15.964 13.943L16.008 14.127L15.85 14.171L15.964 13.943ZM15.775 14.363L16.046 14.287L16.096 14.496C15.9877 14.4554 15.8809 14.4107 15.776 14.362L15.775 14.363ZM16.186 13.943C16.309 13.993 16.437 14.036 16.569 14.075L16.609 14.197L16.267 14.282L16.186 13.943ZM16.338 14.58L16.305 14.442L16.658 14.354L16.768 14.695C16.6213 14.6623 16.478 14.624 16.338 14.58ZM16.818 14.141C16.953 14.173 17.091 14.201 17.232 14.222L17.29 14.329L16.916 14.448L16.818 14.141ZM17.01 14.743L16.966 14.604L17.371 14.476L17.555 14.81C17.3703 14.796 17.1887 14.7737 17.01 14.743ZM17.497 14.254C17.663 14.27 17.832 14.279 18.001 14.279L18.109 14.276L18.154 14.346L17.656 14.543L17.497 14.254ZM18.001 14.828C17.937 14.828 17.873 14.826 17.81 14.824L17.736 14.689L18.244 14.488L18.451 14.81C18.3013 14.8216 18.1512 14.8276 18.001 14.828ZM18.359 14.265C18.531 14.254 18.699 14.234 18.866 14.205L18.914 14.269L18.52 14.516L18.359 14.265ZM18.693 14.786L18.608 14.654L19.015 14.4L19.24 14.694C19.0593 14.7339 18.8768 14.7646 18.693 14.786ZM19.104 14.16C19.2436 14.1297 19.3818 14.093 19.518 14.05L19.568 14.116L19.281 14.39L19.104 14.16ZM19.471 14.637L19.381 14.52L19.667 14.247L19.867 14.51C19.737 14.557 19.607 14.6 19.471 14.637ZM19.733 13.975C19.824 13.941 19.913 13.905 19.999 13.865L20.042 13.949L19.904 14.199L19.733 13.975ZM20.077 14.428L20.011 14.341L20.13 14.126L20.244 14.355C20.19 14.38 20.134 14.404 20.077 14.427V14.428Z"
		fill="#464655"
	/>
</svg>
