<svg viewBox="0 0 36 24" fill="none" xmlns="http://www.w3.org/2000/svg">
	<path
		d="M36 2.183V4.364H2.02246e-05V2.183H36ZM2.02246e-05 8.727H36V6.545H2.02246e-05V8.727ZM0.62002 10.105H2.02246e-05V13.091H36V10.909H0.62002V10.105ZM2.02246e-05 17.455H36V15.273H2.02246e-05V17.455ZM2.02246e-05 21.819H36V19.637H2.02246e-05V21.819Z"
		fill="#F5F5F5"
	/>
	<path
		d="M36 0V2.182H2.02246e-05V0H36ZM2.02246e-05 6.545H36V4.364H2.02246e-05V6.545ZM2.02246e-05 10.278C-0.00131211 10.4439 0.0632308 10.6035 0.179476 10.7218C0.295722 10.8401 0.454167 10.9074 0.62002 10.909H36V8.727H2.02246e-05V10.278ZM2.02246e-05 15.273H36V13.091H2.02246e-05V15.273ZM2.02246e-05 19.637H36V17.455H2.02246e-05V19.637ZM2.02246e-05 24H36V21.819H2.02246e-05V24Z"
		fill="#FF4B55"
	/>
	<path d="M10.552 10.91H2.02246e-05V0H10.552" fill="#41479B" />
	<path
		d="M5.09802 2.823L4.50602 4.631L2.63302 4.646C2.59323 4.64655 2.55461 4.65958 2.52262 4.68326C2.49063 4.70694 2.46688 4.74006 2.45473 4.77796C2.44257 4.81586 2.44263 4.85661 2.45488 4.89448C2.46713 4.93235 2.49097 4.96541 2.52302 4.989L4.03002 6.121L3.46502 7.94C3.45277 7.97754 3.45266 8.01798 3.46469 8.05559C3.47672 8.0932 3.50029 8.12606 3.53205 8.14952C3.56381 8.17299 3.60215 8.18585 3.64163 8.1863C3.68112 8.18674 3.71974 8.17474 3.75202 8.152L5.27602 7.043L6.80002 8.151C6.8323 8.17374 6.87092 8.18574 6.91041 8.1853C6.94989 8.18485 6.98823 8.17199 7.01999 8.14853C7.05175 8.12506 7.07532 8.0922 7.08735 8.05459C7.09938 8.01698 7.09927 7.97654 7.08702 7.939L6.52202 6.12L8.02802 4.99C8.06007 4.96641 8.08391 4.93335 8.09616 4.89548C8.10841 4.85761 8.10847 4.81686 8.09631 4.77896C8.08416 4.74106 8.06041 4.70794 8.02842 4.68426C7.99643 4.66058 7.95782 4.64755 7.91802 4.647L6.04602 4.632L5.45302 2.824C5.44118 2.78619 5.41758 2.75315 5.38565 2.72969C5.35372 2.70624 5.31514 2.69359 5.27552 2.69359C5.2359 2.69359 5.19732 2.70624 5.16539 2.72969C5.13346 2.75315 5.10986 2.78519 5.09802 2.823Z"
		fill="#F5F5F5"
	/>
</svg>
