<svg viewBox="0 0 36 24" fill="none" xmlns="http://www.w3.org/2000/svg">
	<path d="M0 17.684H36V24H0V17.684Z" fill="#73AF00" />
	<path d="M0 0H36V6.316H0V0Z" fill="#FF4B55" />
	<path d="M0 6.316H36V17.684H0V6.316Z" fill="#464655" />
	<path
		d="M23.959 13.528L22.485 13.081L21.592 14.356C21.581 14.3713 21.5654 14.3828 21.5474 14.3888C21.5295 14.3947 21.5101 14.3949 21.4921 14.3893C21.4741 14.3836 21.4583 14.3725 21.4469 14.3573C21.4356 14.3422 21.4293 14.3239 21.429 14.305L21.392 12.74L19.925 12.27C19.9071 12.2639 19.8915 12.2524 19.8804 12.2371C19.8693 12.2218 19.8631 12.2035 19.8628 12.1846C19.8625 12.1656 19.868 12.1471 19.8786 12.1314C19.8892 12.1158 19.9043 12.1037 19.922 12.097L21.372 11.577L21.359 10.012C21.3591 9.99344 21.365 9.97536 21.3758 9.96026C21.3865 9.94515 21.4017 9.93375 21.4193 9.92762C21.4368 9.92149 21.4558 9.92092 21.4736 9.926C21.4915 9.93108 21.5073 9.94156 21.519 9.956L22.454 11.199L23.912 10.703C23.9302 10.6965 23.9499 10.6959 23.9684 10.7015C23.9869 10.707 24.0031 10.7184 24.0146 10.7338C24.0262 10.7493 24.0324 10.7681 24.0325 10.7874C24.0326 10.8067 24.0264 10.8255 24.015 10.841L23.141 12.129L24.056 13.387C24.0675 13.4021 24.074 13.4204 24.0745 13.4394C24.075 13.4584 24.0694 13.4771 24.0587 13.4927C24.0479 13.5084 24.0325 13.5202 24.0146 13.5265C23.9967 13.5329 23.9772 13.5334 23.959 13.528ZM20.653 14.547C20.1629 14.8871 19.5805 15.0693 18.984 15.069C18.1836 15.0486 17.4229 14.7163 16.864 14.1429C16.3051 13.5696 15.9924 12.8006 15.9924 12C15.9924 11.1994 16.3051 10.4304 16.864 9.85706C17.4229 9.28374 18.1836 8.95143 18.984 8.931C19.5799 8.93095 20.1616 9.11309 20.651 9.453C20.6661 9.46288 20.6843 9.4669 20.7021 9.46432C20.72 9.46173 20.7363 9.45271 20.748 9.43895C20.7596 9.42519 20.7659 9.40764 20.7655 9.3896C20.7651 9.37157 20.7582 9.35428 20.746 9.341C20.3848 8.95447 19.9449 8.6498 19.4561 8.44747C18.9672 8.24514 18.4407 8.14984 17.912 8.168C16.9197 8.22033 15.9865 8.65565 15.3088 9.3823C14.631 10.1089 14.2617 11.0702 14.2786 12.0637C14.2954 13.0572 14.6971 14.0054 15.3991 14.7087C16.1011 15.4119 17.0485 15.8153 18.042 15.834C18.5496 15.8335 19.0517 15.7287 19.5171 15.5263C19.9826 15.3238 20.4015 15.028 20.748 14.657C20.7606 14.6439 20.7678 14.6265 20.7682 14.6084C20.7687 14.5902 20.7624 14.5725 20.7505 14.5588C20.7386 14.5451 20.7221 14.5362 20.704 14.534C20.686 14.5319 20.6678 14.5365 20.653 14.547Z"
		fill="#F5F5F5"
	/>
</svg>
