<svg viewBox="0 0 36 24" fill="none" xmlns="http://www.w3.org/2000/svg">
	<path d="M0 16H36V24H0V16Z" fill="#73AF00" />
	<path d="M0 0.534H36V16H0V0.534Z" fill="#FF4B55" />
	<path
		d="M36 0H0V8H36V0ZM24.74 4.473C24.852 4.613 24.768 4.871 24.553 5.051C24.338 5.231 22.788 6.098 22.788 6.098C22.788 6.098 23.931 4.725 24.146 4.546C24.362 4.366 24.628 4.334 24.74 4.473ZM24.158 3.819C24.283 3.947 24.225 4.212 24.028 4.413C23.831 4.613 22.375 5.633 22.375 5.633C22.375 5.633 23.378 4.152 23.575 3.951C23.772 3.751 24.033 3.691 24.158 3.819ZM23.526 3.236C23.663 3.351 23.631 3.621 23.454 3.84C23.277 4.059 21.926 5.22 21.926 5.22C21.926 5.22 22.781 3.645 22.958 3.426C23.135 3.207 23.389 3.122 23.526 3.236ZM22.811 2.699C22.959 2.799 22.954 3.07 22.8 3.307C22.646 3.544 21.418 4.837 21.418 4.837C21.418 4.837 22.111 3.182 22.265 2.947C22.419 2.712 22.663 2.599 22.811 2.699ZM22.116 2.276C22.272 2.361 22.292 2.633 22.16 2.882C22.029 3.132 20.924 4.537 20.924 4.537C20.924 4.537 21.464 2.824 21.595 2.574C21.727 2.324 21.96 2.191 22.116 2.276ZM21.333 1.898C21.496 1.968 21.543 2.235 21.436 2.498C21.329 2.759 20.368 4.268 20.368 4.268C20.368 4.268 20.737 2.509 20.843 2.248C20.95 1.986 21.169 1.829 21.333 1.898ZM20.53 1.606C20.699 1.658 20.77 1.92 20.69 2.192C20.609 2.462 19.797 4.061 19.797 4.061C19.797 4.061 19.995 2.273 20.077 2.002C20.159 1.731 20.36 1.553 20.53 1.606ZM19.256 1.829C19.309 1.551 19.493 1.353 19.667 1.387C19.841 1.422 19.938 1.675 19.885 1.954C19.832 2.232 19.185 3.906 19.185 3.906C19.185 3.906 19.202 2.106 19.255 1.829H19.256ZM18.496 1.746C18.524 1.464 18.689 1.25 18.866 1.267C19.042 1.285 19.162 1.529 19.135 1.811C19.108 2.093 18.615 3.821 18.615 3.821C18.615 3.821 18.469 2.028 18.496 1.746ZM18 1.224C18.177 1.224 18.32 1.454 18.32 1.737C18.32 2.02 18 3.79 18 3.79C18 3.79 17.68 2.02 17.68 1.737C17.68 1.453 17.823 1.224 18 1.224ZM17.148 1.266C17.324 1.249 17.489 1.463 17.516 1.745C17.544 2.027 17.395 3.82 17.395 3.82C17.395 3.82 16.905 2.09 16.878 1.809C16.851 1.528 16.972 1.284 17.148 1.266ZM16.268 1.401C16.442 1.365 16.628 1.561 16.683 1.839C16.739 2.116 16.77 3.915 16.77 3.915C16.77 3.915 16.11 2.246 16.055 1.968C15.999 1.691 16.094 1.436 16.268 1.401ZM15.484 1.601C15.653 1.55 15.856 1.727 15.936 1.999C16.016 2.269 16.212 4.058 16.212 4.058C16.212 4.058 15.402 2.458 15.322 2.188C15.242 1.916 15.314 1.654 15.483 1.602L15.484 1.601ZM14.667 1.898C14.831 1.829 15.05 1.986 15.157 2.248C15.263 2.509 15.632 4.268 15.632 4.268C15.632 4.268 14.67 2.759 14.564 2.498C14.458 2.237 14.504 1.968 14.667 1.898ZM13.896 2.269C14.052 2.184 14.286 2.319 14.416 2.569C14.546 2.819 15.084 4.532 15.084 4.532C15.084 4.532 13.982 3.126 13.851 2.876C13.719 2.626 13.74 2.354 13.896 2.269ZM13.134 2.736C13.281 2.636 13.526 2.744 13.682 2.979C13.838 3.214 14.543 4.864 14.543 4.864C14.543 4.864 13.306 3.579 13.15 3.344C12.994 3.109 12.987 2.836 13.134 2.736ZM12.484 3.227C12.621 3.113 12.876 3.199 13.052 3.417C13.228 3.637 14.082 5.213 14.082 5.213C14.082 5.213 12.732 4.051 12.556 3.831C12.379 3.611 12.347 3.341 12.484 3.227ZM11.842 3.819C11.967 3.692 12.228 3.751 12.425 3.951C12.622 4.151 13.625 5.634 13.625 5.634C13.625 5.634 12.169 4.614 11.972 4.413C11.775 4.213 11.717 3.947 11.842 3.819ZM11.269 4.462C11.381 4.323 11.647 4.356 11.862 4.536C12.077 4.716 13.218 6.09 13.218 6.09C13.218 6.09 11.67 5.22 11.455 5.04C11.24 4.86 11.156 4.602 11.269 4.462ZM10.618 6.427C10.372 6.293 10.241 6.056 10.325 5.897C10.409 5.738 10.675 5.718 10.921 5.852C11.166 5.986 12.547 7.11 12.547 7.11C12.547 7.11 10.863 6.561 10.617 6.427H10.618ZM10.984 5.745C10.752 5.589 10.643 5.34 10.741 5.19C10.838 5.04 11.106 5.045 11.338 5.201C11.57 5.358 12.842 6.607 12.842 6.607C12.842 6.607 11.216 5.902 10.984 5.745ZM13.178 7.245C13.6585 6.38847 14.3585 5.6754 15.206 5.1791C16.0535 4.68281 17.0179 4.42121 18 4.42121C18.9821 4.42121 19.9465 4.68281 20.794 5.1791C21.6415 5.6754 22.3415 6.38847 22.822 7.245H13.178ZM24.626 5.151C24.856 4.992 25.124 4.985 25.223 5.135C25.322 5.284 25.215 5.534 24.983 5.692C24.753 5.85 23.132 6.568 23.132 6.568C23.132 6.568 24.395 5.308 24.626 5.151ZM25.388 6.439C25.142 6.573 23.458 7.119 23.458 7.119C23.458 7.119 24.84 5.997 25.085 5.863C25.331 5.73 25.598 5.75 25.681 5.909C25.765 6.069 25.633 6.306 25.388 6.439Z"
		fill="#464655"
	/>
</svg>
