<svg viewBox="0 0 36 24" fill="none" xmlns="http://www.w3.org/2000/svg">
	<path d="M36 20.28H0V3.72H36" fill="#73AF00" />
	<path
		d="M24.88 10.807C24.88 12.6317 24.1551 14.3816 22.8649 15.6719C21.5746 16.9621 19.8247 17.687 18 17.687C16.1753 17.687 14.4254 16.9621 13.1351 15.6719C11.8449 14.3816 11.12 12.6317 11.12 10.807C11.12 10.4641 11.1468 10.1217 11.2 9.783C11.203 9.75986 11.2146 9.73868 11.2323 9.72357C11.2501 9.70846 11.2729 9.7005 11.2962 9.70125C11.3195 9.702 11.3418 9.7114 11.3585 9.72761C11.3753 9.74383 11.3855 9.76571 11.387 9.789C11.5735 11.4123 12.3505 12.9103 13.57 13.9978C14.7896 15.0853 16.3665 15.6862 18.0005 15.6862C19.6345 15.6862 21.2114 15.0853 22.431 13.9978C23.6505 12.9103 24.4275 11.4123 24.614 9.789C24.6172 9.76715 24.6279 9.74711 24.6444 9.73239C24.6608 9.71767 24.6819 9.70921 24.704 9.7085C24.7261 9.70778 24.7477 9.71485 24.765 9.72848C24.7824 9.7421 24.7944 9.7614 24.799 9.783C24.8524 10.1217 24.8795 10.4641 24.88 10.807ZM17.057 9.542L16.583 11.042C16.5775 11.06 16.5777 11.0792 16.5836 11.097C16.5896 11.1149 16.601 11.1304 16.6162 11.1414C16.6314 11.1525 16.6497 11.1584 16.6685 11.1585C16.6873 11.1586 16.7057 11.1529 16.721 11.142L18 10.226L19.28 11.14C19.2954 11.1505 19.3136 11.1559 19.3322 11.1557C19.3507 11.1554 19.3688 11.1493 19.3838 11.1384C19.3988 11.1274 19.4101 11.1121 19.416 11.0944C19.422 11.0768 19.4223 11.0578 19.417 11.04L18.943 9.54L20.208 8.607C20.223 8.59572 20.2342 8.58001 20.2398 8.56207C20.2455 8.54414 20.2454 8.52488 20.2395 8.50701C20.2337 8.48914 20.2224 8.47354 20.2072 8.46242C20.1921 8.4513 20.1738 8.44521 20.155 8.445L18.583 8.433L18.085 6.941C18.0789 6.92335 18.0674 6.90805 18.0521 6.89722C18.0369 6.8864 18.0187 6.88058 18 6.88058C17.9813 6.88058 17.9631 6.8864 17.9479 6.89722C17.9326 6.90805 17.9211 6.92335 17.915 6.941L17.417 8.433L15.845 8.445C15.8262 8.44521 15.8079 8.4513 15.7928 8.46242C15.7776 8.47354 15.7663 8.48914 15.7605 8.50701C15.7546 8.52488 15.7545 8.54414 15.7602 8.56207C15.7658 8.58001 15.777 8.59572 15.792 8.607L17.057 9.542Z"
		fill="#FFE15A"
	/>
	<path d="M36 0V3.72H0V0H36ZM0 24H36V20.28H0V24Z" fill="#FF4B55" />
</svg>
