<svg viewBox="0 0 36 24" fill="none" xmlns="http://www.w3.org/2000/svg">
	<path d="M36 24H0V0H36" fill="#FF4B55" />
	<path
		d="M20.95 13.571L25.691 10.031H19.819L18 4.334L16.18 10.031H10.31L15.051 13.571L13.246 19.225L17.996 15.77L18.001 15.773L18.006 15.77L22.756 19.225L20.95 13.571ZM21.9 11.294L20.546 12.306L20.223 11.294H21.9ZM16.508 13.093L17.083 11.294H18.917L19.492 13.093L18 14.207L16.508 13.093ZM18 8.422L18.514 10.032H17.486L18 8.422ZM14.1 11.294H15.777L15.454 12.306L14.1 11.294ZM15.59 15.966L16.104 14.358L16.942 14.983L15.59 15.966ZM19.896 14.358L20.409 15.966L19.059 14.983L19.896 14.358Z"
		fill="#5A8250"
	/>
</svg>
