<svg viewBox="0 0 36 24" fill="none" xmlns="http://www.w3.org/2000/svg">
	<path d="M36 8H0V0H36V8Z" fill="#5AA587" />
	<path d="M0 8H36V16H0V8Z" fill="#464655" />
	<path
		d="M0 24L14.491 12.327C14.5394 12.2873 14.5783 12.2374 14.6051 12.1809C14.6318 12.1243 14.6457 12.0626 14.6457 12C14.6457 11.9374 14.6318 11.8757 14.6051 11.8191C14.5783 11.7626 14.5394 11.7127 14.491 11.673L0 0"
		fill="#FF4B55"
	/>
	<path
		d="M36 16V24H0L9.932 16H36ZM1.562 10.99L3.87 12.723L3.005 15.505C2.994 15.5385 2.99383 15.5746 3.0045 15.6083C3.01518 15.6419 3.03617 15.6713 3.0645 15.6923C3.09282 15.7133 3.12704 15.7249 3.16231 15.7254C3.19758 15.7259 3.23211 15.7152 3.261 15.695L5.594 13.998L7.927 15.695C7.95588 15.7156 7.99055 15.7266 8.02604 15.7263C8.06153 15.726 8.09602 15.7145 8.12456 15.6934C8.1531 15.6723 8.17422 15.6427 8.1849 15.6089C8.19558 15.575 8.19526 15.5387 8.184 15.505L7.319 12.723L9.626 10.989C9.65429 10.9678 9.67527 10.9383 9.68601 10.9046C9.69676 10.871 9.69674 10.8348 9.68596 10.8011C9.67518 10.7674 9.65417 10.738 9.62586 10.7168C9.59755 10.6956 9.56334 10.6838 9.528 10.683L6.66 10.66L5.753 7.892C5.74248 7.85819 5.72142 7.82863 5.6929 7.80764C5.66439 7.78665 5.62991 7.77533 5.5945 7.77533C5.55909 7.77533 5.52461 7.78665 5.4961 7.80764C5.46758 7.82863 5.44652 7.85819 5.436 7.892L4.528 10.66L1.66 10.683C1.62466 10.6838 1.59045 10.6956 1.56214 10.7168C1.53383 10.738 1.51282 10.7674 1.50204 10.8011C1.49126 10.8348 1.49124 10.871 1.50199 10.9046C1.51273 10.9383 1.53371 10.9688 1.562 10.99Z"
		fill="#FFE15A"
	/>
	<path
		d="M10.289 15.713H35.999V16.71H9.05L10.289 15.713ZM9.049 7.289L10.288 8.287H36V7.289H9.049ZM6.986 11.173C6.675 11.075 5.941 10.911 5.663 11.15V12.894H7.324L6.986 11.173ZM3.78 13.033C3.76998 13.0332 3.76006 13.031 3.75102 13.0267C3.74199 13.0224 3.7341 13.0159 3.728 13.008C3.72165 12.9999 3.71704 12.9905 3.71446 12.9806C3.71188 12.9706 3.71138 12.9602 3.713 12.95L4.049 11.245L3.839 11.352L3.328 13.263H5.204L5.428 13.033H3.78ZM5.525 12.893V11.15C5.248 10.91 4.514 11.074 4.203 11.173L3.864 12.893H5.525ZM7.14 11.245L7.476 12.95C7.47748 12.9602 7.47682 12.9707 7.47407 12.9807C7.47132 12.9907 7.46653 13 7.46 13.008C7.454 13.0161 7.44616 13.0227 7.43712 13.0272C7.42808 13.0318 7.4181 13.0341 7.408 13.034H5.761L5.985 13.264H7.861L7.349 11.352L7.14 11.245ZM5.31 13.352C5.3913 13.4149 5.49119 13.4491 5.594 13.4491C5.69681 13.4491 5.7967 13.4149 5.878 13.352L5.594 13.063L5.31 13.352Z"
		fill="#F5F5F5"
	/>
	<path
		d="M8.26 13.456L7.98 13.171L7.474 11.285C7.47141 11.2756 7.46687 11.2668 7.46067 11.2592C7.45447 11.2516 7.44675 11.2454 7.438 11.241L7.075 11.056L7.07 11.055L7.067 11.052C6.71871 10.935 6.35217 10.8818 5.985 10.895L5.952 10.728L6.213 10.462H6.438L8.118 8.752L7.315 9.322C7.28105 9.34613 7.23957 9.35728 7.1981 9.35342C7.15663 9.34957 7.11792 9.33097 7.089 9.301L6.998 9.208V9.436L6.438 10.006H6.213L5.541 10.69L4.533 9.664L4.645 9.55L4.197 9.094C4.18246 9.079 4.16505 9.06708 4.14581 9.05893C4.12657 9.05079 4.10589 9.04659 4.085 9.04659C4.06411 9.04659 4.04343 9.05079 4.02419 9.05893C4.00495 9.06708 3.98754 9.079 3.973 9.094L3.749 9.322C3.71919 9.35246 3.7025 9.39338 3.7025 9.436C3.7025 9.47862 3.71919 9.51954 3.749 9.55L3.786 9.588L3.413 9.664L2.404 10.69L2.964 11.26L3.973 10.234L4.047 9.854L4.197 10.006L4.309 9.892L5.309 10.91C4.90774 10.8723 4.50306 10.9207 4.122 11.052L4.119 11.055L4.114 11.056L3.75 11.241C3.74144 11.2455 3.73391 11.2518 3.72789 11.2593C3.72186 11.2669 3.71748 11.2756 3.715 11.285L3.171 13.315C3.17046 13.32 3.17046 13.325 3.171 13.33L3.077 13.426H2.852L2.167 14.123C2.1408 14.1499 2.12613 14.186 2.12613 14.2235C2.12613 14.261 2.1408 14.2971 2.167 14.324L2.62 14.784C2.63533 14.7996 2.65374 14.8118 2.67406 14.8198C2.69438 14.8279 2.71615 14.8316 2.73799 14.8308C2.75983 14.8299 2.78125 14.8245 2.80088 14.8149C2.82051 14.8053 2.83792 14.7917 2.852 14.775L3.86 13.54L3.904 13.404H4.48L4.644 13.654L4.89 13.404H5.163C5.21849 13.4624 5.28526 13.5088 5.35927 13.5406C5.43328 13.5723 5.51297 13.5887 5.5935 13.5887C5.67403 13.5887 5.75372 13.5723 5.82773 13.5406C5.90174 13.5088 5.96851 13.4624 6.024 13.404H7.76L8.035 13.684L8.26 13.456ZM7.349 11.352L7.782 12.97L7.404 12.585L7.14 11.245L7.349 11.352ZM4.623 12.764L4.712 12.674C4.75378 12.6312 4.77717 12.5738 4.77717 12.514C4.77717 12.4542 4.75378 12.3968 4.712 12.354L4.645 12.286L4.708 12.222C4.93691 12.4297 5.22097 12.5669 5.526 12.617V12.894H4.707L4.623 12.764ZM5.526 11.39V12.13C5.34726 12.0867 5.18159 12.0009 5.043 11.88L5.526 11.39ZM5.663 12.63C5.88421 12.6396 6.10464 12.5979 6.307 12.508L6.12 12.063C5.9768 12.128 5.82003 12.1575 5.663 12.149V11.269L7.259 12.894H5.663V12.63ZM6.986 11.173L7.228 12.407L5.894 11.049C6.26268 11.0113 6.63515 11.0536 6.986 11.173ZM4.203 11.173C4.45682 11.0931 4.71942 11.0444 4.985 11.028L4.043 11.986L4.203 11.173ZM3.839 11.352L4.049 11.245L3.868 12.165L3.53 12.508L3.839 11.352ZM3.392 13.022L3.412 13.084L3.362 13.135L3.392 13.022ZM3.952 13.263L3.972 13.198L4.134 13.034H4.239L4.389 13.264L3.952 13.263ZM4.95 13.263L4.8 13.033H5.428L5.204 13.263H4.95ZM5.594 13.448C5.49172 13.4477 5.39134 13.414 5.31 13.352L5.594 13.063L5.878 13.352C5.79635 13.4141 5.69661 13.4479 5.594 13.448ZM5.985 13.263L5.761 13.033H7.397L7.622 13.263H5.985Z"
		fill="#464655"
	/>
</svg>
