<svg viewBox="0 0 36 24" fill="none" xmlns="http://www.w3.org/2000/svg">
	<path d="M2.90306e-05 18.316V0H27.31L2.90306e-05 18.316Z" fill="#41479B" />
	<path d="M36 5.684V24H8.69003L36 5.684Z" fill="#73AF00" />
	<path
		d="M36 6.04V0.632C36.0008 0.549792 35.9854 0.468232 35.9547 0.391979C35.924 0.315726 35.8785 0.246273 35.8209 0.187585C35.7634 0.128898 35.6948 0.0821259 35.6191 0.0499399C35.5435 0.0177538 35.4622 0.000784165 35.38 0H26.94L2.90306e-05 17.96V23.368C-0.000762687 23.4502 0.0146465 23.5318 0.0453766 23.608C0.0761067 23.6843 0.121556 23.7537 0.179129 23.8124C0.236702 23.8711 0.305271 23.9179 0.380921 23.9501C0.456571 23.9822 0.53782 23.9992 0.620029 24H9.06003L36 6.04Z"
		fill="#F5F5F5"
	/>
	<path
		d="M36 3.776V0H30.337L2.90306e-05 20.224V24H5.66303L36 3.776Z"
		fill="#FF4B55"
	/>
	<path
		d="M4.77803 4.782C5.05065 4.50352 5.39227 4.30235 5.76803 4.199L4.55803 3.23L4.77803 4.782ZM8.12803 3.23L6.91703 4.2C7.29268 4.30306 7.63429 4.50389 7.90703 4.782L8.12803 3.23ZM6.91403 4.2L6.34203 2.744L5.76903 4.2C6.14357 4.09821 6.53949 4.09821 6.91403 4.2ZM4.20403 5.793L2.77403 6.375L4.20403 6.957C4.104 6.57545 4.104 6.17455 4.20403 5.793ZM4.77703 7.967C4.50162 7.68655 4.30412 7.33911 4.20403 6.959L3.25203 8.191L4.77703 7.967ZM3.25203 4.56L4.20403 5.792C4.30412 5.41189 4.50162 5.06445 4.77703 4.784L3.25203 4.56ZM4.20403 5.792V5.793L4.20503 5.794L4.20403 5.792ZM8.48003 6.958L8.48103 6.959V6.957L8.48003 6.958ZM8.48003 5.792H8.48203L8.48103 5.791L8.48003 5.792ZM8.48203 5.792C8.58223 6.17387 8.58223 6.57513 8.48203 6.957L9.91203 6.375L8.48203 5.792ZM7.90903 7.967L9.43403 8.191L8.48103 6.959C8.38122 7.33901 8.18407 7.68643 7.90903 7.967ZM7.90903 4.783C8.18356 5.0634 8.38035 5.41045 8.48003 5.79L9.43303 4.558L7.90903 4.783ZM4.55903 9.52L5.76903 8.55C5.39302 8.4471 5.05105 8.24626 4.77803 7.968L4.55903 9.52ZM5.77103 8.551L6.34303 10.007L6.91503 8.551C6.54049 8.65279 6.14557 8.65279 5.77103 8.551ZM7.90803 7.968C7.63513 8.24663 7.29314 8.44781 6.91703 8.551L8.12703 9.52L7.90803 7.968ZM4.53503 6.375C4.54133 6.73116 4.65271 7.07752 4.85517 7.3706C5.05762 7.66369 5.34215 7.89044 5.67302 8.02239C6.0039 8.15434 6.36638 8.18561 6.71496 8.11227C7.06354 8.03894 7.3827 7.86427 7.63236 7.61019C7.88202 7.3561 8.05107 7.03394 8.11827 6.68412C8.18548 6.3343 8.14786 5.97243 8.01012 5.64392C7.87239 5.31541 7.64069 5.03491 7.34409 4.83762C7.0475 4.64033 6.69924 4.53506 6.34303 4.535C6.1035 4.53709 5.86672 4.58635 5.64622 4.67995C5.42572 4.77355 5.22582 4.90967 5.05793 5.08053C4.89004 5.25139 4.75745 5.45365 4.66773 5.67576C4.57801 5.89786 4.53292 6.13547 4.53503 6.375Z"
		fill="#FFE15A"
	/>
</svg>
