<svg viewBox="0 0 36 24" fill="none" xmlns="http://www.w3.org/2000/svg">
	<path d="M0 16H36V24H0V16Z" fill="#73AF00" />
	<path d="M0 8H36V16H0V8Z" fill="#F5F5F5" />
	<path
		d="M36 0V8H0V0H36ZM18 8.842C17.3729 8.83108 16.7568 9.00706 16.2301 9.34751C15.7034 9.68797 15.29 10.1775 15.0424 10.7537C14.7949 11.33 14.7245 11.9669 14.8402 12.5833C14.9559 13.1996 15.2524 13.7677 15.6921 14.2149C16.1317 14.6622 16.6945 14.9685 17.3088 15.0948C17.9231 15.2211 18.5611 15.1617 19.1415 14.9241C19.722 14.6866 20.2186 14.2817 20.568 13.7609C20.9175 13.2401 21.1041 12.6272 21.104 12C21.1076 11.5888 21.0301 11.181 20.876 10.7997C20.722 10.4185 20.4943 10.0714 20.2061 9.77811C19.9178 9.48486 19.5747 9.25125 19.1961 9.09063C18.8176 8.93002 18.4112 8.84553 18 8.842Z"
		fill="#FF9B55"
	/>
</svg>
