<svg viewBox="0 0 36 24" fill="none" xmlns="http://www.w3.org/2000/svg">
	<path
		d="M36 12H2.90306e-05V0H36V12ZM2.90306e-05 12H36V23.368C36.0008 23.4502 35.9854 23.5318 35.9547 23.608C35.924 23.6843 35.8785 23.7537 35.8209 23.8124C35.7634 23.8711 35.6948 23.9179 35.6191 23.9501C35.5435 23.9822 35.4622 23.9992 35.38 24H0.620029C0.53782 23.9992 0.456571 23.9822 0.380921 23.9501C0.305271 23.9179 0.236702 23.8711 0.179129 23.8124C0.121556 23.7537 0.0761067 23.6843 0.0453766 23.608C0.0146465 23.5318 -0.000762687 23.4502 2.90306e-05 23.368V12Z"
		fill="#4173CD"
	/>
	<path d="M2.90306e-05 24H36V18H2.90306e-05V24Z" fill="#73AF00" />
	<path
		d="M36 12V18H2.90306e-05V12H36ZM25.448 6L27.989 5.572L25.803 4.187L28.311 4.781L26.811 2.651L28.906 4.176L28.322 1.624L29.682 3.848L30.103 1.263L30.524 3.849L31.884 1.624L31.301 4.176L33.395 2.651L31.896 4.781L34.404 4.187L32.218 5.572L34.758 6L32.218 6.428L34.404 7.813L31.896 7.219L33.396 9.349L31.3 7.825L31.884 10.377L30.523 8.153L30.103 10.738L29.682 8.153L28.321 10.377L28.905 7.825L26.811 9.35L28.31 7.22L25.802 7.814L27.988 6.429L25.448 6ZM28.552 6C28.5573 6.30579 28.6529 6.6032 28.8267 6.85487C29.0005 7.10654 29.2447 7.30125 29.5288 7.41456C29.8129 7.52787 30.1241 7.55472 30.4234 7.49174C30.7227 7.42876 30.9967 7.27876 31.211 7.06057C31.4253 6.84238 31.5704 6.56574 31.628 6.26537C31.6856 5.96501 31.6532 5.65432 31.5348 5.37231C31.4165 5.09031 31.2174 4.84957 30.9627 4.68032C30.7079 4.51106 30.4089 4.42085 30.103 4.421C29.8975 4.42283 29.6944 4.46512 29.5052 4.54547C29.316 4.62581 29.1445 4.74263 29.0005 4.88926C28.8565 5.03588 28.7427 5.20944 28.6658 5.40003C28.5888 5.59061 28.5502 5.79448 28.552 6ZM30.104 7.184C30.339 7.18797 30.5699 7.12192 30.7672 6.99426C30.9645 6.86659 31.1194 6.68309 31.2121 6.46713C31.3047 6.25116 31.3311 6.01249 31.2877 5.78152C31.2443 5.55054 31.1331 5.33771 30.9683 5.17012C30.8036 5.00252 30.5927 4.88776 30.3625 4.84043C30.1323 4.7931 29.8932 4.81535 29.6757 4.90434C29.4582 4.99334 29.272 5.14506 29.141 5.34017C29.01 5.53529 28.9401 5.76498 28.94 6C28.9387 6.15417 28.9678 6.3071 29.0256 6.45004C29.0833 6.59298 29.1687 6.72314 29.2768 6.83308C29.3849 6.94303 29.5136 7.03061 29.6555 7.09082C29.7974 7.15103 29.9499 7.18269 30.104 7.184Z"
		fill="#FFE15A"
	/>
</svg>
