<svg viewBox="0 0 36 24" fill="none" xmlns="http://www.w3.org/2000/svg">
	<path d="M36 8H0V0H36V8Z" fill="#464655" />
	<path d="M36 24H0V16H36V24Z" fill="#73AF00" />
	<path d="M0 8H36V16H0V8Z" fill="#F5F5F5" />
	<path
		d="M14.491 12.327L0 24V0L14.491 11.673C14.5394 11.7127 14.5783 11.7626 14.6051 11.8191C14.6318 11.8757 14.6457 11.9374 14.6457 12C14.6457 12.0626 14.6318 12.1243 14.6051 12.1809C14.5783 12.2374 14.5394 12.2873 14.491 12.327ZM20.831 15.081C20.1884 14.8611 19.6307 14.4458 19.2358 13.8932C18.841 13.3407 18.6289 12.6784 18.6291 11.9993C18.6293 11.3201 18.8419 10.658 19.2371 10.1057C19.6323 9.55338 20.1903 9.13845 20.833 8.919C20.8489 8.91396 20.8625 8.90366 20.8717 8.88979C20.8809 8.87593 20.8851 8.85934 20.8836 8.84277C20.8821 8.82621 20.8749 8.81065 20.8634 8.79869C20.8518 8.78673 20.8365 8.77908 20.82 8.777C20.5676 8.75206 20.3131 8.75777 20.062 8.794C19.2609 8.92017 18.5361 9.34203 18.0308 9.97633C17.5254 10.6106 17.2761 11.4113 17.3321 12.2204C17.3881 13.0294 17.7453 13.7881 18.3332 14.3468C18.9212 14.9054 19.6971 15.2234 20.508 15.238C20.6127 15.238 20.716 15.233 20.818 15.223C20.8346 15.2211 20.85 15.2136 20.8617 15.2017C20.8734 15.1898 20.8806 15.1742 20.8823 15.1576C20.8839 15.1411 20.8798 15.1244 20.8707 15.1105C20.8615 15.0965 20.8479 15.0861 20.832 15.081H20.831ZM23.409 11.159L22.087 11.149L21.669 9.873C21.6575 9.83733 21.635 9.80622 21.6048 9.78415C21.5745 9.76208 21.538 9.75019 21.5005 9.75019C21.463 9.75019 21.4265 9.76208 21.3962 9.78415C21.366 9.80622 21.3435 9.83733 21.332 9.873L20.914 11.148L19.592 11.158C19.5541 11.159 19.5175 11.1717 19.4872 11.1944C19.457 11.2172 19.4345 11.2488 19.4231 11.2849C19.4117 11.321 19.4118 11.3598 19.4234 11.3958C19.435 11.4319 19.4576 11.4634 19.488 11.486L20.551 12.284L20.152 13.566C20.1404 13.6017 20.1402 13.6402 20.1517 13.676C20.1631 13.7117 20.1855 13.743 20.2157 13.7654C20.2459 13.7877 20.2824 13.8 20.3199 13.8005C20.3575 13.8009 20.3943 13.7896 20.425 13.768L21.5 12.986L22.575 13.768C22.6057 13.79 22.6426 13.8017 22.6804 13.8014C22.7182 13.8011 22.7549 13.7889 22.7853 13.7665C22.8157 13.7441 22.8383 13.7126 22.8497 13.6766C22.8612 13.6406 22.8609 13.6019 22.849 13.566L22.45 12.284L23.513 11.486C23.543 11.4633 23.5652 11.4318 23.5766 11.396C23.588 11.3601 23.588 11.3216 23.5766 11.2857C23.5652 11.2499 23.5429 11.2184 23.5129 11.1958C23.4829 11.1731 23.4466 11.1602 23.409 11.159Z"
		fill="#FF4B55"
	/>
</svg>
