<svg viewBox="0 0 36 24" fill="none" xmlns="http://www.w3.org/2000/svg">
	<path d="M36.0001 24H6.10352e-05V0H36.0001" fill="#73AF00" />
	<path
		d="M6.10352e-05 5.684H36.0001V18.315H6.10352e-05V5.684Z"
		fill="#FFE15A"
	/>
	<path d="M6.10352e-05 24L12.4141 12L6.10352e-05 0" fill="#FF4B55" />
	<path
		d="M22.3731 11.576L20.7561 12.791L21.3621 14.741C21.3801 14.7954 21.3806 14.854 21.3633 14.9087C21.3461 14.9633 21.3121 15.0111 21.2661 15.0452C21.2201 15.0794 21.1644 15.0981 21.1072 15.0988C21.0499 15.0995 20.9939 15.082 20.9471 15.049L19.3111 13.859L17.6751 15.049C17.6283 15.0824 17.5721 15.1002 17.5146 15.0997C17.4571 15.0993 17.4012 15.0806 17.355 15.0463C17.3088 15.0121 17.2746 14.9641 17.2574 14.9093C17.2401 14.8544 17.2407 14.7955 17.2591 14.741L17.8661 12.791L16.2491 11.576C16.2033 11.5415 16.1694 11.4936 16.152 11.439C16.1345 11.3844 16.1345 11.3257 16.1518 11.2711C16.1692 11.2165 16.203 11.1685 16.2487 11.134C16.2945 11.0994 16.3498 11.0798 16.4071 11.078L18.4181 11.062L19.0541 9.122C19.0716 9.06761 19.1059 9.02019 19.1521 8.98654C19.1983 8.9529 19.2539 8.93477 19.3111 8.93477C19.3682 8.93477 19.4239 8.9529 19.47 8.98654C19.5162 9.02019 19.5505 9.06761 19.5681 9.122L20.2041 11.062L22.2141 11.078C22.2715 11.0794 22.3271 11.0987 22.3731 11.1331C22.4192 11.1676 22.4533 11.2155 22.4709 11.2702C22.4885 11.3249 22.4886 11.3837 22.4713 11.4385C22.4539 11.4933 22.4199 11.5414 22.3741 11.576H22.3731ZM31.4961 11.078L29.4861 11.062L28.8491 9.122C28.8315 9.06761 28.7972 9.02019 28.751 8.98654C28.7049 8.9529 28.6492 8.93477 28.5921 8.93477C28.5349 8.93477 28.4793 8.9529 28.4331 8.98654C28.3869 9.02019 28.3526 9.06761 28.3351 9.122L27.6991 11.062L25.6891 11.078C25.6316 11.0794 25.576 11.0987 25.53 11.1331C25.484 11.1676 25.4498 11.2155 25.4322 11.2702C25.4146 11.3249 25.4145 11.3837 25.4319 11.4385C25.4492 11.4933 25.4832 11.5414 25.5291 11.576L27.1471 12.791L26.5411 14.741C26.5227 14.7955 26.5221 14.8544 26.5394 14.9093C26.5566 14.9641 26.5908 15.0121 26.637 15.0463C26.6832 15.0806 26.7391 15.0993 26.7966 15.0997C26.8541 15.1002 26.9103 15.0824 26.9571 15.049L28.5921 13.859L30.2281 15.049C30.2748 15.0824 30.331 15.1002 30.3885 15.0997C30.446 15.0993 30.5019 15.0806 30.5481 15.0463C30.5943 15.0121 30.6285 14.9641 30.6458 14.9093C30.663 14.8544 30.6624 14.7955 30.6441 14.741L30.0371 12.791L31.6551 11.576C31.7009 11.5414 31.7349 11.4933 31.7523 11.4385C31.7696 11.3837 31.7695 11.3249 31.7519 11.2702C31.7343 11.2155 31.7002 11.1676 31.6541 11.1331C31.6081 11.0987 31.5535 11.0794 31.4961 11.078Z"
		fill="#464655"
	/>
</svg>
