<svg viewBox="0 0 36 24" fill="none" xmlns="http://www.w3.org/2000/svg">
	<path d="M12 0H24V24H12V0Z" fill="#FFE15A" />
	<path d="M36 24H24V0H36V24Z" fill="#FF4B55" />
	<path
		d="M0 0H12V24H0V0ZM21.564 10.936L18.966 10.916L18.143 8.406C18.1336 8.37524 18.1146 8.3483 18.0888 8.32915C18.063 8.31001 18.0317 8.29968 17.9995 8.29968C17.9673 8.29968 17.936 8.31001 17.9102 8.32915C17.8844 8.3483 17.8654 8.37524 17.856 8.406L17.034 10.916L14.436 10.936C14.4039 10.9365 14.3728 10.9471 14.3471 10.9662C14.3213 10.9852 14.3021 11.0119 14.2922 11.0424C14.2823 11.0729 14.2821 11.1057 14.2918 11.1363C14.3014 11.1669 14.3204 11.1937 14.346 11.213L16.437 12.784L15.654 15.305C15.6439 15.3354 15.6437 15.3682 15.6533 15.3987C15.663 15.4292 15.682 15.4559 15.7077 15.475C15.7335 15.494 15.7645 15.5045 15.7965 15.5049C15.8286 15.5052 15.8599 15.4955 15.886 15.477L18 13.939L20.114 15.477C20.1401 15.4955 20.1714 15.5052 20.2035 15.5049C20.2355 15.5045 20.2665 15.494 20.2923 15.475C20.318 15.4559 20.337 15.4292 20.3467 15.3987C20.3563 15.3682 20.3561 15.3354 20.346 15.305L19.562 12.785L21.653 11.214C21.679 11.1949 21.6983 11.1681 21.7082 11.1374C21.7181 11.1068 21.7182 11.0737 21.7084 11.043C21.6985 11.0123 21.6793 10.9855 21.6534 10.9663C21.6275 10.9471 21.5962 10.9365 21.564 10.936Z"
		fill="#73AF00"
	/>
</svg>
