<svg viewBox="0 0 36 24" fill="none" xmlns="http://www.w3.org/2000/svg">
	<path d="M36 24H0V0H36" fill="#82AFFF" />
	<path
		d="M17.822 7.524L16.78 10.702L13.489 10.728C13.4495 10.7295 13.4115 10.7431 13.3801 10.7669C13.3486 10.7908 13.3253 10.8238 13.3133 10.8614C13.3012 10.899 13.3011 10.9394 13.3129 10.9771C13.3246 11.0148 13.3477 11.0479 13.379 11.072L16.027 13.062L15.034 16.255C15.0219 16.2927 15.0219 16.3332 15.034 16.3708C15.0461 16.4085 15.0697 16.4414 15.1015 16.4649C15.1333 16.4885 15.1717 16.5014 15.2113 16.502C15.2508 16.5025 15.2895 16.4906 15.322 16.468L18 14.521L20.678 16.468C20.7104 16.4906 20.7492 16.5025 20.7887 16.502C20.8283 16.5014 20.8667 16.4885 20.8985 16.4649C20.9303 16.4414 20.9539 16.4085 20.966 16.3708C20.9781 16.3332 20.9781 16.2927 20.966 16.255L19.973 13.062L22.621 11.072C22.6523 11.0479 22.6754 11.0148 22.6871 10.9771C22.6989 10.9394 22.6988 10.899 22.6867 10.8614C22.6747 10.8238 22.6514 10.7908 22.6199 10.7669C22.5885 10.7431 22.5505 10.7295 22.511 10.728L19.219 10.702L18.179 7.524C18.1671 7.48595 18.1434 7.4527 18.1113 7.42909C18.0792 7.40547 18.0404 7.39274 18.0005 7.39274C17.9606 7.39274 17.9218 7.40547 17.8897 7.42909C17.8576 7.4527 17.8339 7.48595 17.822 7.524Z"
		fill="#F5F5F5"
	/>
</svg>
