<svg viewBox="0 0 36 24" fill="none" xmlns="http://www.w3.org/2000/svg">
	<path d="M0 4.421V19.579L9.931 12L0 4.421Z" fill="#464655" />
	<path d="M4.966 0L16.138 8.842H36V0H4.966Z" fill="#FF4B55" />
	<path d="M4.966 24L16.138 15.158H36V24H4.966Z" fill="#41479B" />
	<path
		d="M4 0H0V3.222L10.897 12L0 20.778V24H4L15.76 14.526H36V9.474H15.76L4 0Z"
		fill="#73AF00"
	/>
	<path d="M6 0H4L15.76 9.474H36V8.211H16.192L6 0Z" fill="#F5F5F5" />
	<path
		d="M0 3.222V4.833L8.897 12L0 19.167V20.778L10.897 12L0 3.222Z"
		fill="#FFE15A"
	/>
	<path
		d="M15.76 14.526L4 24H6L16.192 15.789H36V14.526H15.76Z"
		fill="#F5F5F5"
	/>
</svg>
