<svg viewBox="0 0 36 24" fill="none" xmlns="http://www.w3.org/2000/svg">
	<path d="M36 8H0V0H36V8Z" fill="#464655" />
	<path d="M36 24H0V16H36V24Z" fill="#73AF00" />
	<path d="M0 8H36V16H0V8Z" fill="#FF4B55" />
	<path
		d="M4.99 12.408L5.689 11.861L5.293 11.059C5.28729 11.0479 5.28487 11.0355 5.28605 11.0231C5.28723 11.0107 5.29194 10.9989 5.29963 10.9891C5.30732 10.9793 5.31767 10.9719 5.32943 10.9678C5.3412 10.9637 5.35389 10.9631 5.366 10.966L6.222 11.18L6.591 10.366C6.59602 10.3547 6.60422 10.3451 6.61461 10.3383C6.62499 10.3316 6.63711 10.328 6.6495 10.328C6.66189 10.328 6.67401 10.3316 6.68439 10.3383C6.69478 10.3451 6.70298 10.3547 6.708 10.366L7.077 11.18L7.932 10.966C7.94411 10.9631 7.9568 10.9637 7.96857 10.9678C7.98033 10.9719 7.99068 10.9793 7.99837 10.9891C8.00606 10.9989 8.01077 11.0107 8.01195 11.0231C8.01313 11.0355 8.01071 11.0479 8.005 11.059L7.61 11.861L8.308 12.408C8.31773 12.4157 8.32509 12.426 8.32923 12.4377C8.33337 12.4494 8.33412 12.462 8.33141 12.4742C8.32869 12.4863 8.32262 12.4974 8.31388 12.5062C8.30514 12.515 8.29409 12.5212 8.282 12.524L7.419 12.709L7.434 13.605C7.43457 13.6174 7.43151 13.6297 7.4252 13.6404C7.41889 13.6511 7.4096 13.6598 7.39847 13.6653C7.38734 13.6708 7.37484 13.6729 7.36251 13.6715C7.35017 13.67 7.33853 13.665 7.329 13.657L6.649 13.087L5.969 13.657C5.95947 13.665 5.94783 13.67 5.93549 13.6715C5.92316 13.6729 5.91066 13.6708 5.89953 13.6653C5.8884 13.6598 5.87911 13.6511 5.8728 13.6404C5.86649 13.6297 5.86343 13.6174 5.864 13.605L5.879 12.709L5.017 12.524C5.00491 12.5212 4.99386 12.515 4.98512 12.5062C4.97638 12.4974 4.97031 12.4863 4.96759 12.4742C4.96488 12.462 4.96563 12.4494 4.96977 12.4377C4.97391 12.426 4.98127 12.4157 4.991 12.408H4.99ZM0 7.579V8.653H36V7.58L0 7.579ZM0 16.422H36V15.348H0V16.422Z"
		fill="#F5F5F5"
	/>
	<path
		d="M0 24L16.397 12.258C16.4377 12.2284 16.4708 12.1896 16.4937 12.1448C16.5165 12.0999 16.5284 12.0503 16.5284 12C16.5284 11.9497 16.5165 11.9001 16.4937 11.8552C16.4708 11.8104 16.4377 11.7716 16.397 11.742L0 0"
		fill="#41479B"
	/>
	<path
		d="M5.172 9.056L6.567 10.508L8.368 9.636C8.41963 9.61164 8.47764 9.60421 8.53375 9.61477C8.58985 9.62533 8.64119 9.65334 8.68044 9.69481C8.71968 9.73627 8.74483 9.78907 8.75229 9.84567C8.75976 9.90227 8.74916 9.95978 8.722 10.01L7.796 11.808L9.168 13.282C9.20695 13.3234 9.23202 13.3759 9.23971 13.4322C9.24741 13.4885 9.23734 13.5458 9.21092 13.5961C9.1845 13.6464 9.14305 13.6872 9.09233 13.7128C9.04162 13.7384 8.98417 13.7476 8.928 13.739L6.96 13.4L6.007 15.183C5.98026 15.233 5.93835 15.2733 5.88729 15.2979C5.83623 15.3226 5.77866 15.3305 5.72285 15.3203C5.66705 15.3102 5.6159 15.2827 5.57675 15.2416C5.5376 15.2006 5.51248 15.1482 5.505 15.092L5.215 13.083L3.254 12.711C3.19825 12.6995 3.14745 12.671 3.10859 12.6294C3.06974 12.5878 3.04474 12.5352 3.03706 12.4788C3.02938 12.4224 3.03939 12.365 3.06571 12.3145C3.09203 12.264 3.13336 12.223 3.184 12.197L4.972 11.297L4.713 9.283C4.70461 9.22658 4.71437 9.16895 4.74087 9.11843C4.76738 9.06792 4.80926 9.02714 4.86045 9.00199C4.91165 8.97683 4.96952 8.96861 5.0257 8.97849C5.08188 8.98838 5.13347 9.01588 5.173 9.057L5.172 9.056Z"
		fill="#FFE15A"
	/>
</svg>
