<svg viewBox="0 0 36 24" fill="none" xmlns="http://www.w3.org/2000/svg">
	<path d="M36.0001 24H6.10352e-05V0H36.0001" fill="#73AF00" />
	<path
		d="M36.0001 4.421V6.947H6.10352e-05V4.421H36.0001ZM6.10352e-05 19.58H36.0001V17.054H6.10352e-05V19.58Z"
		fill="#F5F5F5"
	/>
	<path
		d="M6.10352e-05 6.947H36.0001V17.052H6.10352e-05V6.947Z"
		fill="#C8414B"
	/>
	<path
		d="M17.8451 8.109L16.9421 10.866L14.0851 10.889C14.0502 10.8894 14.0164 10.9008 13.9884 10.9215C13.9603 10.9422 13.9395 10.9712 13.9289 11.0044C13.9183 11.0376 13.9184 11.0733 13.9292 11.1064C13.94 11.1395 13.9609 11.1684 13.9891 11.189L16.2871 12.915L15.4261 15.686C15.4155 15.7187 15.4154 15.7539 15.4259 15.7866C15.4364 15.8194 15.4569 15.848 15.4845 15.8684C15.5121 15.8889 15.5455 15.9001 15.5799 15.9006C15.6142 15.9011 15.6479 15.8907 15.6761 15.871L18.0001 14.181L20.3241 15.871C20.3522 15.8907 20.3859 15.9011 20.4203 15.9006C20.4546 15.9001 20.488 15.8889 20.5156 15.8684C20.5433 15.848 20.5638 15.8194 20.5743 15.7866C20.5847 15.7539 20.5847 15.7187 20.5741 15.686L19.7131 12.915L22.0111 11.188C22.0392 11.1674 22.0601 11.1385 22.0709 11.1054C22.0817 11.0723 22.0818 11.0366 22.0712 11.0034C22.0606 10.9702 22.0398 10.9412 22.0118 10.9205C21.9837 10.8998 21.9499 10.8884 21.9151 10.888L19.0581 10.866L18.1551 8.109C18.145 8.07576 18.1244 8.04665 18.0965 8.02596C18.0686 8.00527 18.0348 7.99411 18.0001 7.99411C17.9653 7.99411 17.9315 8.00527 17.9036 8.02596C17.8757 8.04665 17.8552 8.07576 17.8451 8.109Z"
		fill="#FFE15A"
	/>
</svg>
