<svg viewBox="0 0 36 24" fill="none" xmlns="http://www.w3.org/2000/svg">
	<path
		d="M36 0V4.8H0V0H36ZM0 14.4H36V9.6H0V14.4ZM36 24H0V19.2H36V24Z"
		fill="#73AF00"
	/>
	<path d="M36 4.8V9.6H0V4.8H36ZM0 19.2H36V14.4H0V19.2Z" fill="#FFE15A" />
	<path d="M14.276 14.4H0V0H14.276" fill="#FF4B55" />
	<path
		d="M6.984 3.389L6.087 6.125L3.252 6.148C3.21779 6.14902 3.18475 6.16064 3.15744 6.18127C3.13014 6.2019 3.10992 6.23051 3.09959 6.26314C3.08927 6.29577 3.08934 6.3308 3.09981 6.36338C3.11027 6.39596 3.13061 6.42449 3.158 6.445L5.438 8.158L4.583 10.909C4.57183 10.9415 4.5713 10.9768 4.58149 11.0096C4.59168 11.0425 4.61206 11.0712 4.63969 11.0917C4.66731 11.1122 4.70074 11.1234 4.73514 11.1236C4.76953 11.1238 4.80311 11.1131 4.831 11.093L7.138 9.415L9.445 11.093C9.47289 11.1131 9.50647 11.1238 9.54086 11.1236C9.57526 11.1234 9.60869 11.1122 9.63631 11.0917C9.66394 11.0712 9.68432 11.0425 9.69451 11.0096C9.7047 10.9768 9.70417 10.9415 9.693 10.909L8.838 8.159L11.118 6.445C11.1454 6.42449 11.1657 6.39596 11.1762 6.36338C11.1867 6.3308 11.1867 6.29577 11.1764 6.26314C11.1661 6.23051 11.1459 6.2019 11.1186 6.18127C11.0913 6.16064 11.0582 6.14902 11.024 6.148L8.189 6.125L7.29 3.39C7.28025 3.35685 7.26003 3.32774 7.23236 3.30703C7.20469 3.28633 7.17106 3.27514 7.1365 3.27514C7.10194 3.27514 7.06831 3.28633 7.04064 3.30703C7.01297 3.32774 6.99275 3.35685 6.983 3.39L6.984 3.389Z"
		fill="#F5F5F5"
	/>
</svg>
