<svg viewBox="0 0 36 24" fill="none" xmlns="http://www.w3.org/2000/svg">
	<path d="M36 24H0V0H36" fill="#FF4B55" />
	<path
		d="M18.07 5.684C16.8159 5.66117 15.5834 6.01218 14.5296 6.69232C13.4757 7.37246 12.6482 8.35093 12.1524 9.50307C11.6566 10.6552 11.5151 11.9289 11.7458 13.1617C11.9764 14.3946 12.5689 15.5309 13.4477 16.4259C14.3265 17.3208 15.4518 17.9339 16.6803 18.187C17.9088 18.4401 19.1848 18.3218 20.3458 17.8471C21.5068 17.3723 22.5002 16.5628 23.1994 15.5215C23.8986 14.4802 24.272 13.2543 24.272 12C24.2853 10.3405 23.6398 8.74357 22.4771 7.55948C21.3144 6.37539 19.7294 5.7009 18.07 5.684ZM21.079 15.153C20.6813 15.5551 20.2079 15.8743 19.6861 16.0923C19.1643 16.3103 18.6045 16.4227 18.039 16.423C16.8865 16.393 15.7914 15.9141 14.9869 15.0883C14.1824 14.2626 13.7322 13.1553 13.7322 12.0025C13.7322 10.8497 14.1824 9.74239 14.9869 8.91666C15.7914 8.09093 16.8865 7.61202 18.039 7.582C18.6046 7.58249 19.1644 7.69507 19.6862 7.91323C20.208 8.13139 20.6814 8.4508 21.079 8.853C21.0917 8.8665 21.0992 8.88409 21.1001 8.9026C21.101 8.92112 21.0953 8.93935 21.084 8.95403C21.0726 8.96871 21.0565 8.97889 21.0383 8.98273C21.0202 8.98657 21.0013 8.98383 20.985 8.975C20.4483 8.64226 19.8294 8.46598 19.198 8.466C18.2704 8.4816 17.386 8.86105 16.7355 9.52258C16.085 10.1841 15.7205 11.0747 15.7205 12.0025C15.7205 12.9303 16.085 13.8209 16.7355 14.4824C17.386 15.1439 18.2704 15.5234 19.198 15.539C19.8286 15.5393 20.4467 15.3637 20.983 15.032C20.9992 15.0225 21.0183 15.0192 21.0368 15.0226C21.0553 15.0261 21.0719 15.0361 21.0835 15.0508C21.0952 15.0655 21.1012 15.084 21.1004 15.1028C21.0995 15.1215 21.0919 15.1394 21.079 15.153ZM21.622 13.373C21.6495 13.4104 21.6645 13.4556 21.6648 13.5021C21.6651 13.5485 21.6506 13.5939 21.6235 13.6317C21.5964 13.6694 21.5581 13.6976 21.514 13.7122C21.4699 13.7268 21.4223 13.7271 21.378 13.713L19.837 13.215L18.874 14.538C18.847 14.5754 18.8088 14.6033 18.7649 14.6175C18.721 14.6318 18.6737 14.6316 18.6298 14.6171C18.586 14.6026 18.5479 14.5745 18.5212 14.5369C18.4944 14.4993 18.4803 14.4542 18.481 14.408L18.471 12.762L16.936 12.239C16.8924 12.2236 16.8546 12.1951 16.8279 12.1573C16.8013 12.1195 16.787 12.0744 16.7871 12.0281C16.7872 11.9819 16.8017 11.9368 16.8286 11.8992C16.8554 11.8615 16.8933 11.8332 16.937 11.818L18.472 11.299L18.487 9.653C18.4863 9.60685 18.5004 9.56169 18.5272 9.52408C18.5539 9.48647 18.592 9.45838 18.6358 9.44389C18.6797 9.42939 18.727 9.42924 18.7709 9.44347C18.8148 9.4577 18.853 9.48556 18.88 9.523L19.84 10.849L21.383 10.355C21.4271 10.3415 21.4744 10.3423 21.5181 10.3572C21.5618 10.372 21.5997 10.4002 21.6264 10.4378C21.6532 10.4754 21.6675 10.5205 21.6672 10.5667C21.6669 10.6128 21.6522 10.6577 21.625 10.695L20.683 12.033L21.622 13.373Z"
		fill="#F5F5F5"
	/>
</svg>
