<svg viewBox="0 0 36 24" fill="none" xmlns="http://www.w3.org/2000/svg">
	<path d="M36 0V4H0V0H36ZM0 16H36V12H0V16Z" fill="#464655" />
	<path d="M36 8V12H0V8H36ZM0 24H36V20H0V24Z" fill="#FF4B55" />
	<path
		d="M18 8.21C18.7523 8.1969 19.4914 8.40799 20.1233 8.8164C20.7552 9.2248 21.2512 9.81204 21.5482 10.5033C21.8452 11.1946 21.9297 11.9586 21.791 12.6981C21.6523 13.4376 21.2967 14.1191 20.7694 14.6557C20.2421 15.1924 19.5669 15.56 18.83 15.7116C18.0931 15.8633 17.3277 15.7922 16.6313 15.5074C15.9349 15.2226 15.339 14.7369 14.9196 14.1123C14.5002 13.4877 14.2761 12.7524 14.276 12C14.2716 11.5066 14.3645 11.0172 14.5493 10.5597C14.7341 10.1022 15.0072 9.68563 15.353 9.33369C15.6988 8.98175 16.1106 8.70138 16.5647 8.50857C17.0189 8.31577 17.5066 8.21431 18 8.21Z"
		fill="#F5F5F5"
	/>
	<path
		d="M19.503 13.197L17.844 11.228C17.8479 10.9168 17.925 10.6109 18.069 10.335C18.1871 10.2806 18.2828 10.1871 18.34 10.0704C18.3972 9.95359 18.4124 9.82066 18.383 9.694C18.3536 9.56035 18.2755 9.44239 18.164 9.36303C18.0525 9.28367 17.9155 9.24855 17.7796 9.2645C17.6437 9.28045 17.5185 9.34632 17.4284 9.44934C17.3383 9.55235 17.2897 9.68516 17.292 9.822L17.295 9.861C16.938 9.957 16.871 10.074 16.871 10.074L17.309 9.956C17.313 9.973 17.319 9.989 17.324 10.006L16.923 10.144L17.361 10.09C17.4094 10.1801 17.4812 10.2555 17.569 10.308C17.3461 10.4628 17.1573 10.6619 17.0145 10.8927C16.8718 11.1236 16.778 11.3814 16.739 11.65C16.7588 11.8967 16.8505 12.1323 17.0026 12.3276C17.1547 12.5229 17.3606 12.6694 17.595 12.749C17.7632 12.8277 17.9148 12.9377 18.042 13.073L18.046 13.078L18.088 13.725H17.153C16.808 13.725 16.713 13.953 16.713 14.331L16.877 14.094L17.015 14.358L17.032 14.058L17.179 14.252C17.179 14.252 17.178 13.999 17.365 13.966C17.6093 13.9382 17.8551 13.9248 18.101 13.926L18.163 14.89C17.8727 14.9039 17.5869 14.9675 17.318 15.078C17.4768 15.0692 17.6362 15.0782 17.793 15.105L17.737 15.272C18.0861 15.1275 18.4602 15.0527 18.838 15.052C18.6786 14.9641 18.5017 14.9128 18.32 14.902L18.328 13.927H18.898L18.985 13.698C18.8447 13.5189 18.7441 13.312 18.69 13.091C18.9585 13.1432 19.2301 13.1787 19.503 13.197ZM17.62 9.863C17.6013 9.8634 17.583 9.85822 17.5672 9.84814C17.5515 9.83806 17.5392 9.82352 17.5317 9.80638C17.5243 9.78924 17.5222 9.77028 17.5256 9.75192C17.529 9.73355 17.5378 9.71662 17.5508 9.70327C17.5639 9.68992 17.5806 9.68077 17.5989 9.67698C17.6172 9.67319 17.6362 9.67493 17.6535 9.68198C17.6708 9.68903 17.6856 9.70108 17.696 9.71657C17.7064 9.73207 17.712 9.75032 17.712 9.769C17.7121 9.78121 17.7099 9.79333 17.7053 9.80467C17.7008 9.816 17.694 9.82633 17.6855 9.83506C17.6769 9.84378 17.6667 9.85074 17.6555 9.85554C17.6443 9.86033 17.6322 9.86287 17.62 9.863ZM18.33 13.725L18.333 13.39L18.639 13.725H18.33Z"
		fill="#464655"
	/>
	<path
		d="M19.503 13.478C19.365 12.916 18.759 12.743 18.121 12.353C18.0282 12.298 17.9473 12.2251 17.883 12.1385C17.8187 12.0519 17.7723 11.9533 17.7465 11.8486C17.7208 11.7439 17.7161 11.635 17.7328 11.5285C17.7496 11.4219 17.7874 11.3198 17.844 11.228C17.844 11.228 20.159 11.92 20.332 12.916C20.3779 13.193 20.3361 13.4775 20.2123 13.7296C20.0886 13.9817 19.8892 14.1888 19.642 14.322L19.741 14.041H19.227C19.227 14.041 19.771 13.611 19.779 13.197L19.503 13.478Z"
		fill="#696E7D"
	/>
	<path
		d="M20.332 12.916C20.217 12.25 19.145 11.721 18.446 11.442C18.222 11.417 18.026 11.799 18.639 12.212C18.8676 12.3461 19.0636 12.5292 19.213 12.7481C19.3624 12.967 19.4614 13.2163 19.503 13.478L19.78 13.198C19.771 13.61 19.227 14.041 19.227 14.041H19.741L19.642 14.322C19.8892 14.1888 20.0886 13.9817 20.2123 13.7296C20.3361 13.4775 20.3779 13.193 20.332 12.916Z"
		fill="#FFFCFF"
	/>
	<path
		d="M18.591 9.544L18.225 9.693L17.522 9.458L17.301 9.074C17.2936 9.06126 17.2889 9.04709 17.2874 9.03243C17.2859 9.01777 17.2875 9.00295 17.2921 8.98895C17.2968 8.97496 17.3043 8.9621 17.3143 8.95125C17.3243 8.9404 17.3364 8.93179 17.35 8.926C17.5325 8.85244 17.7284 8.81836 17.925 8.826C18.0874 8.84601 18.2409 8.91089 18.3685 9.01334C18.496 9.11579 18.5925 9.25177 18.647 9.406C18.6527 9.4187 18.6558 9.43242 18.656 9.44633C18.6563 9.46025 18.6537 9.47407 18.6485 9.48697C18.6433 9.49987 18.6355 9.51157 18.6256 9.52137C18.6157 9.53118 18.6039 9.53887 18.591 9.544ZM20.332 12.916C20.256 12.474 19.759 12.094 19.229 11.806C19.0744 11.7591 18.9135 11.7362 18.752 11.738C18.8603 11.8265 18.9385 11.9463 18.976 12.081C18.86 12.0382 18.735 12.0261 18.613 12.046C18.6894 12.1277 18.7504 12.2226 18.793 12.326C18.9824 12.4607 19.1428 12.6321 19.2648 12.83C19.3868 13.0279 19.4678 13.2482 19.503 13.478L19.78 13.198C19.771 13.61 19.227 14.041 19.227 14.041H19.741L19.642 14.322C19.8892 14.1888 20.0886 13.9817 20.2123 13.7296C20.3361 13.4775 20.3779 13.193 20.332 12.916ZM17.378 10.126C17.378 10.126 17.176 10.366 17.308 10.437C17.44 10.508 17.569 10.307 17.569 10.307L17.378 10.126Z"
		fill="#FF4B55"
	/>
	<path
		d="M36 4V8H0V4H36ZM0 20H36V16H0V20ZM17.925 8.826C17.895 8.825 17.867 8.826 17.838 8.827L17.798 9.423L18.011 9.543L18.472 9.119C18.4081 9.03278 18.326 8.96178 18.2314 8.91111C18.1368 8.86045 18.0322 8.83138 17.925 8.826Z"
		fill="#FFE15A"
	/>
</svg>
