<svg viewBox="0 0 36 24" fill="none" xmlns="http://www.w3.org/2000/svg">
	<path d="M36 0H0V24H36" fill="#73AF00" />
	<path d="M22.965 8.21H27.31V24H22.965V8.21Z" fill="#FF4B55" />
	<path
		d="M36 8.21V24H31.655V8.21H36ZM31.865 4.932C31.8656 4.92332 31.8652 4.91461 31.864 4.906C32.2198 4.85577 32.5556 4.7107 32.836 4.486C32.8408 4.48131 32.8448 4.47591 32.848 4.47C33.1926 4.43379 33.5301 4.3479 33.85 4.215C34.42 3.955 34.708 3.603 34.656 3.475C34.6517 3.46478 34.6453 3.45554 34.6373 3.44782C34.6294 3.4401 34.6199 3.43406 34.6096 3.43005C34.5992 3.42604 34.5882 3.42415 34.5771 3.42448C34.566 3.42482 34.5551 3.42737 34.545 3.432C34.5165 3.44304 34.4882 3.45437 34.46 3.466C34.6565 3.31225 34.8204 3.12085 34.942 2.903C34.9483 2.88955 34.9501 2.87445 34.9472 2.85989C34.9443 2.84533 34.9369 2.83206 34.926 2.822C34.915 2.81187 34.9009 2.80576 34.886 2.80467C34.8712 2.80358 34.8563 2.80758 34.844 2.816C34.7217 2.89869 34.5959 2.97609 34.467 3.048C34.6907 2.88744 34.8541 2.65644 34.931 2.392C34.9334 2.37868 34.9319 2.36493 34.9265 2.35249C34.9212 2.34004 34.9123 2.32944 34.901 2.322C34.89 2.31475 34.877 2.31097 34.8638 2.31115C34.8507 2.31133 34.8378 2.31546 34.827 2.323C34.4362 2.59108 34.017 2.8151 33.577 2.991C33.8632 2.8201 34.1086 2.5887 34.296 2.313C34.3035 2.29993 34.3066 2.2848 34.3048 2.26984C34.303 2.25489 34.2964 2.24092 34.286 2.23C34.2754 2.21901 34.2614 2.21201 34.2463 2.21018C34.2312 2.20836 34.2159 2.21183 34.203 2.22C33.7805 2.46752 33.3313 2.66645 32.864 2.813C32.925 2.718 32.968 2.611 32.929 2.55C32.893 2.495 32.827 2.495 32.733 2.55C32.0142 2.79615 31.2832 3.00542 30.543 3.177C30.1451 3.10615 29.7357 3.14027 29.355 3.276C29.323 3.23865 29.3007 3.19401 29.29 3.146C29.2774 3.09221 29.286 3.03563 29.314 2.988C29.358 2.921 29.45 2.914 29.531 2.908C29.5623 2.90702 29.5934 2.90334 29.624 2.897C29.642 2.902 29.664 2.913 29.664 2.921C29.6632 2.9358 29.6673 2.95045 29.6756 2.96273C29.6839 2.975 29.696 2.98423 29.71 2.989C29.7242 2.99342 29.7395 2.99296 29.7535 2.98771C29.7674 2.98246 29.7792 2.97271 29.787 2.96C29.8148 2.91564 29.8317 2.8653 29.8362 2.81314C29.8407 2.76097 29.8328 2.70848 29.813 2.66C29.759 2.563 29.636 2.511 29.448 2.507C29.343 2.43261 29.2214 2.38505 29.0938 2.36849C28.9662 2.35193 28.8365 2.36687 28.716 2.412C28.5765 2.47835 28.4527 2.57354 28.3527 2.69127C28.2527 2.80901 28.1789 2.94661 28.136 3.095C27.3382 2.99752 26.5613 2.7723 25.835 2.428C25.8 2.412 25.683 2.365 25.617 2.429C25.577 2.469 25.572 2.529 25.603 2.609C25.6212 2.65437 25.6465 2.69656 25.678 2.734C25.298 2.557 24.785 2.309 24.398 2.088C24.338 2.06 24.228 2.021 24.171 2.082C24.135 2.12 24.136 2.175 24.173 2.246L24.196 2.296C24.2467 2.41714 24.3196 2.52772 24.411 2.622C24.3249 2.57525 24.2426 2.52175 24.165 2.462C23.825 2.193 23.779 2.167 23.718 2.208C23.665 2.244 23.682 2.305 23.7 2.369L23.705 2.386C23.7268 2.47239 23.7623 2.55476 23.81 2.63C23.757 2.593 23.712 2.586 23.676 2.611C23.656 2.626 23.623 2.663 23.648 2.745C23.7731 2.97654 23.9509 3.17546 24.1669 3.32571C24.383 3.47595 24.6314 3.57334 24.892 3.61C24.8125 3.62233 24.7324 3.62967 24.652 3.632C24.6374 3.63261 24.6234 3.6379 24.6121 3.64709C24.6007 3.65627 24.5926 3.66886 24.589 3.683C24.5854 3.69742 24.5866 3.71261 24.5924 3.72631C24.5982 3.74 24.6082 3.75147 24.621 3.759C24.8673 3.87759 25.1403 3.92997 25.413 3.911C25.3295 3.93241 25.2441 3.94581 25.158 3.951C25.1436 3.95209 25.13 3.95771 25.119 3.96706C25.1081 3.9764 25.1003 3.98899 25.097 4.003C25.0937 4.01692 25.0948 4.03152 25.1002 4.04478C25.1056 4.05804 25.1149 4.0693 25.127 4.077C25.36 4.20122 25.6237 4.25638 25.887 4.236L25.847 4.26C25.8359 4.26711 25.8271 4.27723 25.8216 4.28918C25.8161 4.30112 25.8141 4.31439 25.8159 4.32742C25.8177 4.34045 25.8232 4.3527 25.8317 4.36273C25.8402 4.37275 25.8514 4.38013 25.864 4.384C26.0556 4.43287 26.2544 4.44709 26.451 4.426L26.395 4.466C26.3839 4.47417 26.3754 4.48549 26.3708 4.49851C26.3661 4.51152 26.3655 4.52563 26.369 4.539C26.3722 4.5521 26.3793 4.56394 26.3892 4.57302C26.3992 4.5821 26.4117 4.58801 26.425 4.59C26.4622 4.59445 26.4996 4.59645 26.537 4.596C26.5905 4.59596 26.6439 4.59262 26.697 4.586C26.6952 4.60283 26.6969 4.61986 26.702 4.636C26.734 4.732 26.875 4.756 26.922 4.756H26.931C26.9905 4.75515 27.0498 4.74845 27.108 4.736C27.1745 4.77773 27.2497 4.80342 27.3278 4.81106C27.4059 4.81869 27.4847 4.80806 27.558 4.78C27.5486 4.79463 27.5412 4.81043 27.536 4.827C27.531 4.84209 27.5302 4.85828 27.5337 4.8738C27.5372 4.88931 27.5449 4.90356 27.556 4.915C27.578 4.938 27.631 4.991 28.116 4.853L28.11 4.857C28.0884 4.87005 28.0716 4.8898 28.0622 4.91327C28.0528 4.93674 28.0513 4.96262 28.058 4.987C28.088 5.084 28.301 5.147 28.69 5.173C28.6916 5.32789 28.6742 5.48238 28.638 5.633C28.6344 5.64594 28.6347 5.65964 28.6388 5.67243C28.6429 5.68522 28.6506 5.69654 28.661 5.705C28.6713 5.71298 28.6836 5.71779 28.6966 5.71886C28.7096 5.71992 28.7226 5.71719 28.734 5.711C28.7573 5.69797 28.7794 5.68291 28.8 5.666L28.798 5.739C28.7977 5.75177 28.801 5.76435 28.8076 5.77532C28.8141 5.78628 28.8236 5.79518 28.835 5.801C28.8442 5.80601 28.8545 5.80876 28.865 5.809L28.873 5.807C28.8737 5.8411 28.8634 5.87453 28.8436 5.90229C28.8238 5.93005 28.7955 5.95065 28.763 5.961C28.727 5.96806 28.6906 5.97307 28.654 5.976C28.489 5.993 28.302 6.013 28.272 6.398C28.2709 6.41206 28.2742 6.42612 28.2813 6.43828C28.2885 6.45044 28.2992 6.46011 28.312 6.466C28.3248 6.47156 28.3389 6.473 28.3526 6.47014C28.3662 6.46727 28.3786 6.46023 28.388 6.45L28.46 6.373C28.5194 6.38844 28.5813 6.39184 28.642 6.383C28.6294 6.43392 28.6296 6.48718 28.6427 6.53799C28.6558 6.58879 28.6813 6.63553 28.717 6.674C28.7261 6.68373 28.738 6.69047 28.751 6.69333C28.764 6.69618 28.7776 6.69502 28.79 6.69C28.8026 6.685 28.8135 6.67633 28.8212 6.6651C28.8288 6.65387 28.833 6.6406 28.833 6.627V6.577C28.8874 6.5644 28.9383 6.5398 28.982 6.505C29.0251 6.59491 29.095 6.6693 29.182 6.718C29.1939 6.72508 29.2078 6.72821 29.2216 6.72696C29.2355 6.7257 29.2485 6.72012 29.259 6.711C29.2696 6.70179 29.2771 6.68962 29.2807 6.67607C29.2842 6.66252 29.2837 6.64821 29.279 6.635L29.244 6.537C29.2742 6.50666 29.3023 6.47425 29.328 6.44C29.3346 6.45022 29.3438 6.45844 29.3548 6.46373C29.3657 6.46902 29.3779 6.47119 29.39 6.47C29.4026 6.46859 29.4146 6.46361 29.4245 6.45564C29.4345 6.44767 29.4419 6.43704 29.446 6.425L29.471 6.359C29.4853 6.35486 29.4993 6.34985 29.513 6.344C29.5308 6.44788 29.5776 6.54461 29.648 6.623C29.6543 6.62967 29.6619 6.63497 29.6703 6.63858C29.6787 6.6422 29.6878 6.64404 29.697 6.644L29.713 6.642C29.7248 6.63898 29.7356 6.63283 29.7442 6.62421C29.7528 6.61559 29.759 6.60481 29.762 6.593L29.799 6.451C29.8345 6.43098 29.864 6.40173 29.8842 6.36635C29.9044 6.33096 29.9147 6.29076 29.914 6.25L29.917 6.215C29.9906 6.27292 30.0527 6.34416 30.1 6.425C30.1059 6.43461 30.1141 6.44259 30.1239 6.44818C30.1337 6.45378 30.1447 6.45681 30.156 6.457C30.1672 6.45693 30.1782 6.45417 30.1882 6.44895C30.1981 6.44372 30.2066 6.4362 30.213 6.427C30.213 6.427 30.265 6.345 30.291 6.298C30.3076 6.26451 30.3173 6.22801 30.3195 6.19069C30.3216 6.15337 30.3163 6.11599 30.3037 6.0808C30.2911 6.0456 30.2715 6.01331 30.2461 5.98585C30.2207 5.9584 30.1901 5.93634 30.156 5.921C30.1386 5.90894 30.1219 5.89592 30.106 5.882C30.0937 5.85084 30.0937 5.81616 30.106 5.785C30.1731 5.83371 30.2487 5.86934 30.329 5.89L30.345 5.892C30.3559 5.89186 30.3666 5.88905 30.3762 5.88382C30.3858 5.8786 30.394 5.8711 30.4 5.862C30.4073 5.85068 30.4112 5.83748 30.4112 5.824C30.4112 5.81052 30.4073 5.79732 30.4 5.786C30.3163 5.64923 30.2479 5.50369 30.196 5.352C30.3146 5.43391 30.4481 5.49167 30.589 5.522C30.6039 5.52287 30.6189 5.52024 30.6326 5.51431C30.6464 5.50839 30.6585 5.49933 30.6681 5.48787C30.6778 5.4764 30.6846 5.46285 30.688 5.44829C30.6915 5.43373 30.6915 5.41856 30.688 5.404C30.7928 5.47489 30.9191 5.50675 31.045 5.494C31.075 5.486 31.145 5.468 31.156 5.403C31.1585 5.38739 31.1572 5.37139 31.1522 5.3564C31.1471 5.34141 31.1385 5.32788 31.127 5.317C31.2404 5.34733 31.3584 5.35615 31.475 5.343C31.573 5.33 31.602 5.281 31.609 5.243C31.613 5.219 31.621 5.172 31.534 5.083C31.702 5.073 31.853 5.035 31.865 4.932Z"
		fill="#FF9B55"
	/>
	<path
		d="M27.31 8.21H31.655V24H27.31V8.21ZM34.46 3.466C34.5 3.449 34.53 3.437 34.545 3.432C34.5551 3.42737 34.566 3.42482 34.5771 3.42448C34.5882 3.42415 34.5992 3.42604 34.6096 3.43005C34.6198 3.43414 34.6288 3.44111 34.6367 3.44885C34.6445 3.45659 34.6507 3.46582 34.655 3.476C34.707 3.603 34.419 3.954 33.85 4.215C33.5301 4.3479 33.1926 4.43379 32.848 4.47C32.8448 4.47591 32.8408 4.48131 32.836 4.486C32.5556 4.7107 32.2198 4.85577 31.864 4.906C31.8652 4.91461 31.8656 4.92332 31.865 4.932C31.853 5.035 31.702 5.073 31.534 5.083C31.621 5.172 31.613 5.219 31.609 5.243C31.602 5.282 31.573 5.33 31.475 5.343C31.3584 5.35615 31.2404 5.34733 31.127 5.317C31.1385 5.32788 31.1471 5.34141 31.1522 5.3564C31.1572 5.37139 31.1585 5.38739 31.156 5.403C31.145 5.468 31.075 5.487 31.044 5.495C30.9185 5.50751 30.7925 5.47566 30.688 5.405C30.6913 5.41958 30.6912 5.43473 30.6876 5.44924C30.684 5.46375 30.6771 5.47722 30.6673 5.48858C30.6576 5.49995 30.6454 5.50889 30.6316 5.51469C30.6179 5.52049 30.6029 5.52299 30.588 5.522C30.4475 5.49145 30.3143 5.4337 30.196 5.352C30.2479 5.50369 30.3163 5.64923 30.4 5.786C30.4073 5.79732 30.4112 5.81052 30.4112 5.824C30.4109 5.83769 30.4068 5.85177 30.399 5.863C30.3929 5.87192 30.3846 5.87922 30.3751 5.88427C30.3655 5.88932 30.3548 5.89197 30.344 5.892L30.329 5.89C30.2487 5.86934 30.1731 5.83371 30.106 5.785C30.0937 5.81616 30.0937 5.85084 30.106 5.882C30.1219 5.89592 30.1386 5.90894 30.156 5.921C30.1901 5.93634 30.2207 5.9584 30.2461 5.98585C30.2715 6.01331 30.2911 6.0456 30.3037 6.0808C30.3163 6.11599 30.3216 6.15337 30.3195 6.19069C30.3173 6.22801 30.3076 6.26451 30.291 6.298C30.2663 6.34144 30.2403 6.38512 30.213 6.427C30.2066 6.4362 30.1981 6.44372 30.1882 6.44895C30.1782 6.45417 30.1672 6.45693 30.156 6.457C30.1447 6.45681 30.1337 6.45378 30.1239 6.44818C30.1141 6.44295 30.1061 6.43624 30.1 6.427C30.0528 6.3458 29.9907 6.27322 29.917 6.215L29.914 6.25C29.9147 6.29076 29.9044 6.33096 29.8842 6.36635C29.864 6.40173 29.8345 6.43098 29.799 6.451L29.762 6.593C29.759 6.60481 29.7528 6.61559 29.7442 6.62421C29.7356 6.63283 29.7248 6.63898 29.713 6.642L29.697 6.644C29.6878 6.64404 29.6787 6.6422 29.6703 6.63858C29.6619 6.63497 29.6543 6.62967 29.648 6.623C29.5776 6.54461 29.5308 6.44788 29.513 6.344C29.4993 6.34985 29.4853 6.35486 29.471 6.359L29.446 6.425C29.4419 6.43704 29.4345 6.44767 29.4245 6.45564C29.4146 6.46361 29.4026 6.46859 29.39 6.47C29.3779 6.47119 29.3657 6.46902 29.3548 6.46373C29.344 6.45844 29.3355 6.45006 29.329 6.44C29.3033 6.47427 29.2753 6.50669 29.245 6.537L29.28 6.636C29.2848 6.6492 29.2855 6.66355 29.2819 6.67713C29.2783 6.69071 29.2707 6.70287 29.26 6.712C29.2493 6.72119 29.2357 6.72588 29.2216 6.72696C29.2078 6.72821 29.1939 6.72508 29.182 6.718C29.095 6.6693 29.0251 6.59491 28.982 6.505C28.9381 6.54029 28.8868 6.56524 28.832 6.578V6.628C28.8319 6.6412 28.8284 6.65409 28.8212 6.6651C28.8135 6.67633 28.8026 6.685 28.79 6.69C28.7776 6.69502 28.764 6.69618 28.751 6.69333C28.738 6.69047 28.7261 6.68373 28.717 6.674C28.6813 6.63553 28.6558 6.58879 28.6427 6.53799C28.6296 6.48718 28.6294 6.43392 28.642 6.383C28.5813 6.39184 28.5194 6.38844 28.46 6.373L28.388 6.451C28.3784 6.46106 28.3662 6.46745 28.3526 6.47014C28.3389 6.473 28.3248 6.47156 28.312 6.466C28.2992 6.46011 28.2885 6.45044 28.2813 6.43828C28.2742 6.42612 28.2709 6.41206 28.272 6.398C28.302 6.013 28.489 5.993 28.654 5.976C28.6906 5.97307 28.727 5.96806 28.763 5.961C28.7955 5.95065 28.8238 5.93005 28.8436 5.90229C28.8634 5.87474 28.8745 5.84193 28.874 5.808L28.865 5.809C28.8546 5.80907 28.8453 5.80667 28.836 5.802C28.8245 5.79611 28.8141 5.78648 28.8076 5.77532C28.801 5.76435 28.7977 5.75177 28.798 5.739L28.801 5.666C28.7804 5.68327 28.7583 5.69867 28.735 5.712C28.7234 5.71827 28.7098 5.7201 28.6966 5.71886C28.6836 5.71779 28.6713 5.71298 28.661 5.705C28.6509 5.6967 28.6434 5.68572 28.6394 5.67333C28.6353 5.66094 28.6348 5.64765 28.638 5.635C28.6742 5.48372 28.6917 5.32855 28.69 5.173C28.301 5.147 28.088 5.084 28.058 4.987C28.0513 4.96262 28.0528 4.93674 28.0622 4.91327C28.0716 4.8898 28.0884 4.87005 28.11 4.857L28.116 4.853C27.631 4.992 27.578 4.937 27.556 4.915C27.5449 4.90356 27.5372 4.88931 27.5337 4.8738C27.5302 4.85828 27.531 4.84209 27.536 4.827C27.5412 4.81043 27.5486 4.79463 27.558 4.78C27.4847 4.80806 27.4059 4.81869 27.3278 4.81106C27.2497 4.80342 27.1745 4.77773 27.108 4.736C27.0498 4.74845 26.9905 4.75515 26.931 4.756H26.922C26.875 4.756 26.734 4.733 26.702 4.636C26.6969 4.61986 26.6952 4.60283 26.697 4.586C26.6439 4.59262 26.5905 4.59596 26.537 4.596C26.4996 4.59645 26.4622 4.59445 26.425 4.59C26.4117 4.58801 26.3992 4.5821 26.3892 4.57302C26.3793 4.56394 26.3722 4.5521 26.369 4.539C26.3655 4.52563 26.3661 4.51152 26.3708 4.49851C26.3754 4.48549 26.3839 4.47417 26.395 4.466L26.451 4.426C26.2544 4.44709 26.0556 4.43287 25.864 4.384C25.8514 4.38013 25.8402 4.37275 25.8317 4.36273C25.8234 4.35279 25.8187 4.34066 25.817 4.32782C25.8152 4.31499 25.8171 4.30192 25.8224 4.2901C25.8277 4.27828 25.8362 4.2672 25.847 4.26L25.887 4.236C25.6237 4.25638 25.36 4.20122 25.127 4.077C25.1149 4.0693 25.1056 4.05804 25.1002 4.04478C25.0948 4.03152 25.0937 4.01692 25.097 4.003C25.1003 3.98899 25.1081 3.9764 25.119 3.96706C25.1298 3.9577 25.1428 3.95214 25.157 3.951C25.2434 3.9459 25.3291 3.9325 25.413 3.911C25.1403 3.92997 24.8673 3.87759 24.621 3.759C24.6082 3.75147 24.5982 3.74 24.5924 3.72631C24.5866 3.71261 24.5854 3.69742 24.589 3.683C24.5926 3.66886 24.6007 3.65627 24.6121 3.64709C24.6234 3.6379 24.6374 3.63261 24.652 3.632C24.7324 3.62967 24.8125 3.62233 24.892 3.61C24.6314 3.57334 24.383 3.47595 24.1669 3.32571C23.9507 3.17563 23.7733 2.97748 23.648 2.746C23.623 2.664 23.655 2.625 23.676 2.611C23.712 2.585 23.757 2.594 23.81 2.63C23.7623 2.55508 23.7269 2.47306 23.705 2.387L23.7 2.369C23.682 2.304 23.665 2.245 23.718 2.209C23.778 2.167 23.825 2.193 24.165 2.462C24.2426 2.52175 24.3249 2.57525 24.411 2.622C24.3196 2.52772 24.2467 2.41714 24.196 2.296C24.1887 2.27916 24.181 2.26249 24.173 2.246C24.136 2.176 24.136 2.12 24.171 2.082C24.228 2.022 24.338 2.059 24.398 2.088C24.786 2.308 25.298 2.556 25.678 2.734C25.6465 2.69656 25.6212 2.65437 25.603 2.609C25.572 2.529 25.576 2.469 25.617 2.429C25.683 2.366 25.801 2.412 25.835 2.428C26.5609 2.7722 27.3375 2.99841 28.135 3.096C28.1779 2.94734 28.2526 2.80919 28.3527 2.69127C28.4527 2.57354 28.5765 2.47835 28.716 2.412C28.8365 2.36687 28.9662 2.35193 29.0938 2.36849C29.2214 2.38505 29.343 2.43261 29.448 2.507C29.637 2.51 29.759 2.562 29.813 2.66C29.8328 2.70848 29.8407 2.76097 29.8362 2.81314C29.8317 2.8653 29.8148 2.91564 29.787 2.96C29.7792 2.97271 29.7674 2.98246 29.7535 2.98771C29.7395 2.99296 29.7242 2.99342 29.71 2.989C29.6954 2.98432 29.6829 2.97587 29.6743 2.96316C29.6658 2.95046 29.6618 2.93525 29.663 2.92C29.663 2.913 29.642 2.903 29.624 2.897C29.5931 2.90369 29.5616 2.9077 29.53 2.909C29.45 2.915 29.358 2.921 29.314 2.989C29.286 3.03663 29.2774 3.09321 29.29 3.147C29.3008 3.19498 29.3231 3.2386 29.355 3.276C29.7357 3.14027 30.1451 3.10615 30.543 3.177C31.2832 3.00574 32.0141 2.7968 32.733 2.551C32.827 2.495 32.893 2.495 32.929 2.551C32.969 2.611 32.925 2.718 32.864 2.813C33.3313 2.66645 33.7805 2.46752 34.203 2.22C34.2159 2.21183 34.2312 2.20836 34.2463 2.21018C34.261 2.212 34.2746 2.21949 34.285 2.23C34.2954 2.24092 34.302 2.25489 34.3038 2.26984C34.3056 2.2848 34.3025 2.29993 34.295 2.313C34.1079 2.58861 33.8629 2.82001 33.577 2.991C34.017 2.8151 34.4362 2.59108 34.827 2.323C34.8378 2.31546 34.8507 2.31133 34.8638 2.31115C34.877 2.31097 34.89 2.31475 34.901 2.322C34.9123 2.32944 34.9212 2.34004 34.9265 2.35249C34.9319 2.36493 34.9334 2.37868 34.931 2.392C34.8541 2.65644 34.6907 2.88744 34.467 3.048C34.592 2.978 34.719 2.901 34.844 2.816C34.8563 2.80758 34.8712 2.80358 34.886 2.80467C34.9009 2.80576 34.915 2.81187 34.926 2.822C34.9369 2.83206 34.9443 2.84533 34.9472 2.85989C34.9501 2.87445 34.9483 2.88955 34.942 2.903C34.8204 3.12085 34.6565 3.31225 34.46 3.466ZM31.907 3.219C32.0831 3.28078 32.2668 3.31813 32.453 3.33C32.4585 3.32607 32.4646 3.32303 32.471 3.321C33.0271 3.18698 33.5382 2.90901 33.953 2.515C33.3008 2.82867 32.6141 3.06494 31.907 3.219ZM29.477 3.379C29.5696 3.42965 29.6509 3.49886 29.7155 3.58231C29.7802 3.66576 29.827 3.76165 29.853 3.864C30.301 4.242 30.598 4.464 30.783 4.596H30.789C30.9535 4.62924 31.122 4.638 31.289 4.622L30.501 4.159C30.3916 4.09815 30.2835 4.0348 30.177 3.969C30.162 3.95934 30.1514 3.94426 30.1473 3.92693C30.1432 3.90959 30.146 3.89134 30.155 3.876C30.1638 3.86067 30.1783 3.84944 30.1954 3.84476C30.2124 3.84008 30.2306 3.84232 30.246 3.851L30.57 4.041C30.939 4.28701 31.36 4.44413 31.8 4.5C31.8592 4.48776 31.9158 4.46507 31.967 4.433C31.4458 4.36807 30.9507 4.16775 30.531 3.852C30.5184 3.8394 30.511 3.82244 30.5104 3.8046C30.5099 3.78675 30.5162 3.76937 30.528 3.756C30.5339 3.7495 30.541 3.74424 30.5489 3.74052C30.5568 3.73679 30.5654 3.73468 30.5742 3.73431C30.5829 3.73394 30.5916 3.73531 30.5999 3.73835C30.6081 3.74138 30.6156 3.74603 30.622 3.752C30.7373 3.84998 30.8729 3.92109 31.019 3.96018C31.1652 3.99926 31.3182 4.00535 31.467 3.978C31.3537 3.93801 31.2502 3.87464 31.163 3.792C31.1548 3.78077 31.1502 3.76735 31.1496 3.75346C31.1491 3.73957 31.1527 3.72583 31.16 3.714C31.1671 3.70238 31.1777 3.69326 31.1902 3.68789C31.2028 3.68251 31.2167 3.68116 31.23 3.684C31.4635 3.72707 31.703 3.72571 31.936 3.68L31.682 3.586C31.6653 3.58147 31.651 3.57077 31.6419 3.55607C31.6329 3.54137 31.6298 3.52378 31.6332 3.50685C31.6366 3.48992 31.6464 3.47494 31.6604 3.46494C31.6745 3.45494 31.6919 3.45067 31.709 3.453C31.8857 3.46062 32.0627 3.45728 32.239 3.443C32.0475 3.418 31.8621 3.35836 31.692 3.267C31.377 3.334 31.172 3.365 31.165 3.367C31.1561 3.36826 31.1471 3.36772 31.1384 3.36542C31.1297 3.36311 31.1216 3.35909 31.1145 3.35359C31.1074 3.34808 31.1015 3.34121 31.0971 3.33338C31.0927 3.32555 31.09 3.31692 31.089 3.308C31.0864 3.29024 31.091 3.27218 31.1016 3.25776C31.1123 3.24333 31.1283 3.23372 31.146 3.231C31.6476 3.14883 32.1434 3.03392 32.63 2.887L32.634 2.883C32.6984 2.82455 32.7511 2.75428 32.789 2.676C32.492 2.832 30.642 3.294 30.562 3.314C30.5528 3.31594 30.5432 3.31594 30.534 3.314C30.1822 3.25065 29.8203 3.27294 29.479 3.379H29.477ZM27.21 4.252L27.193 4.246C27.1799 4.24011 27.1689 4.23026 27.1617 4.21784C27.1544 4.20542 27.1512 4.19104 27.1526 4.17671C27.1539 4.16239 27.1596 4.14884 27.169 4.13795C27.1785 4.12707 27.191 4.11939 27.205 4.116C27.2833 4.09274 27.357 4.05621 27.423 4.008C27.1979 4.08561 26.9561 4.10116 26.723 4.053C26.7106 4.04934 26.6995 4.04223 26.691 4.03249C26.6825 4.02275 26.6769 4.01078 26.675 3.998C26.6729 3.98508 26.6745 3.97183 26.6796 3.95979C26.6848 3.94775 26.6932 3.93742 26.704 3.93L26.745 3.902C26.6386 3.9161 26.5307 3.91374 26.425 3.895C26.4124 3.89175 26.4009 3.88492 26.3921 3.87535C26.3832 3.86577 26.3773 3.85385 26.375 3.841C26.3724 3.82797 26.3735 3.81447 26.3783 3.80208C26.3831 3.78968 26.3913 3.7789 26.402 3.771L26.407 3.768C26.3125 3.77497 26.2177 3.75991 26.13 3.724C26.1194 3.71889 26.1102 3.71113 26.1034 3.70148C26.0967 3.69183 26.0925 3.68059 26.0913 3.66886C26.0901 3.65712 26.0919 3.64527 26.0966 3.63444C26.1012 3.62361 26.1086 3.61417 26.118 3.607L26.194 3.551C26.1099 3.54221 26.0271 3.52409 25.947 3.497C25.9351 3.49257 25.9246 3.48488 25.9168 3.4748C25.9091 3.46473 25.9043 3.45267 25.903 3.44C25.9016 3.42746 25.9036 3.41477 25.9089 3.40331C25.9142 3.39184 25.9225 3.38205 25.933 3.375L26.024 3.315C25.9492 3.30058 25.8803 3.2644 25.826 3.211C25.8176 3.20126 25.812 3.18939 25.8099 3.17669C25.8078 3.16398 25.8092 3.15094 25.814 3.139C25.8186 3.12704 25.8264 3.11664 25.8367 3.10902C25.847 3.1014 25.8592 3.09688 25.872 3.096C25.9256 3.08753 25.9773 3.06994 26.025 3.044C25.715 2.904 24.895 2.528 24.337 2.21C24.3243 2.20425 24.3113 2.19924 24.298 2.195L24.318 2.239C24.399 2.417 24.551 2.749 25.558 3.098C25.5746 3.10431 25.5881 3.11677 25.5957 3.13279C25.6034 3.1488 25.6045 3.16714 25.599 3.184C25.5964 3.19241 25.5921 3.20022 25.5865 3.20698C25.5808 3.21374 25.5739 3.21933 25.5661 3.22342C25.5583 3.2275 25.5498 3.23001 25.541 3.2308C25.5322 3.23158 25.5234 3.23063 25.515 3.228C25.0105 3.07265 24.5286 2.85141 24.082 2.57C24.027 2.526 23.922 2.444 23.846 2.388C23.894 2.542 24.039 2.847 24.754 3.128C25.0032 3.21958 25.2589 3.29245 25.519 3.346C25.5366 3.34962 25.5521 3.36006 25.562 3.37506C25.572 3.39005 25.5755 3.40837 25.572 3.426C25.5704 3.43477 25.5671 3.44315 25.5623 3.45063C25.5575 3.45812 25.5512 3.46456 25.5438 3.46959C25.5365 3.47462 25.5282 3.47813 25.5195 3.47992C25.5107 3.48171 25.5017 3.48173 25.493 3.48C25.2257 3.42536 24.9629 3.35047 24.707 3.256C24.3963 3.14492 24.1006 2.99543 23.827 2.811C24.0002 3.0404 24.2264 3.22445 24.4862 3.34739C24.746 3.47034 25.0318 3.52854 25.319 3.517H25.322L25.336 3.521L25.347 3.524L25.358 3.532L25.368 3.54L25.374 3.55L25.381 3.563L25.383 3.566V3.576L25.385 3.586V3.589L25.382 3.603L25.378 3.615L25.371 3.625L25.363 3.635L25.353 3.642L25.341 3.649L25.338 3.651C25.2178 3.68652 25.0956 3.71491 24.972 3.736C25.2524 3.78971 25.5407 3.78699 25.82 3.728C25.835 3.72521 25.8506 3.72766 25.8641 3.73494C25.8775 3.74222 25.8881 3.75388 25.894 3.768C25.9 3.78198 25.9014 3.79755 25.8977 3.81235C25.8941 3.82715 25.8858 3.84037 25.874 3.85C25.738 3.94645 25.5839 4.01447 25.421 4.05C25.6732 4.11869 25.9392 4.118 26.191 4.048C26.2069 4.04364 26.2239 4.04531 26.2387 4.0527C26.2534 4.06008 26.2649 4.07265 26.271 4.088C26.2773 4.10307 26.278 4.11988 26.2731 4.13545C26.2681 4.15101 26.2578 4.16432 26.244 4.173L26.066 4.284C26.2914 4.31613 26.5213 4.29489 26.737 4.222C26.7523 4.21661 26.7691 4.21699 26.7842 4.22306C26.7993 4.22913 26.8117 4.24048 26.819 4.255C26.8263 4.26956 26.8283 4.28622 26.8247 4.3021C26.821 4.31798 26.8119 4.33209 26.799 4.342L26.645 4.454C26.8471 4.43438 27.0412 4.36498 27.21 4.252ZM26.295 3.298L26.135 3.405C26.2141 3.41993 26.2949 3.42363 26.375 3.416L26.633 3.225C26.495 3.18487 26.3592 3.13781 26.226 3.084L26.213 3.094C26.1617 3.12691 26.1083 3.15631 26.053 3.182C26.116 3.19436 26.1811 3.19197 26.243 3.175C26.2584 3.17138 26.2745 3.17331 26.2886 3.18045C26.3027 3.18758 26.3138 3.19947 26.32 3.214C26.326 3.22876 26.3268 3.24512 26.3223 3.2604C26.3177 3.27567 26.3081 3.28894 26.295 3.298ZM28.189 4.018C28.1763 3.99844 28.1643 3.97842 28.153 3.958C28.0587 4.06692 27.941 4.15316 27.8087 4.21029C27.6764 4.26743 27.533 4.29399 27.389 4.288C27.239 4.4132 27.0631 4.50369 26.874 4.553C26.8587 4.56418 26.8452 4.57767 26.834 4.593C26.8616 4.60868 26.8923 4.61791 26.924 4.62C27.3881 4.52431 27.8221 4.31777 28.189 4.018ZM28.081 3.838C28.0855 3.834 28.0906 3.83063 28.096 3.828C28.0744 3.76544 28.062 3.70011 28.059 3.634C27.8751 3.82927 27.6702 4.00366 27.448 4.154C27.5698 4.14898 27.6892 4.11823 27.7983 4.06376C27.9074 4.0093 28.0038 3.93236 28.081 3.838ZM28.387 4.254C28.3454 4.21417 28.3063 4.17175 28.27 4.127C27.9811 4.35034 27.6636 4.53398 27.326 4.673C27.5379 4.65413 27.7442 4.59508 27.934 4.499C27.942 4.49512 27.9507 4.49287 27.9596 4.49238C27.9684 4.49189 27.9773 4.49317 27.9857 4.49615C27.9941 4.49912 28.0018 4.50374 28.0084 4.50972C28.0149 4.51571 28.0202 4.52294 28.024 4.531C28.0317 4.54722 28.0327 4.5658 28.027 4.58279C28.0212 4.59978 28.009 4.61384 27.993 4.622C27.8927 4.67207 27.7987 4.73383 27.713 4.806C27.9375 4.76267 28.1587 4.70386 28.375 4.63C28.3888 4.62537 28.4037 4.62541 28.4174 4.63011C28.4312 4.63481 28.443 4.64391 28.451 4.656C28.459 4.66814 28.463 4.68247 28.4624 4.69698C28.4619 4.71149 28.4568 4.72548 28.448 4.737C28.3751 4.81721 28.2944 4.88991 28.207 4.954C28.37 5.00363 28.5387 5.03187 28.709 5.038C28.745 4.931 28.789 4.633 28.387 4.254ZM28.895 5.434C28.9083 5.43901 28.9197 5.44808 28.9276 5.45992C28.9355 5.47176 28.9395 5.48578 28.939 5.5L28.937 5.555C28.978 5.501 29.019 5.441 29.047 5.397C29.0537 5.3863 29.0632 5.3777 29.0746 5.37218C29.0859 5.36667 29.0985 5.36446 29.1111 5.36582C29.1236 5.36718 29.1355 5.37204 29.1454 5.37986C29.1553 5.38767 29.1628 5.39812 29.167 5.41C29.1852 5.45736 29.2112 5.50132 29.244 5.54C29.2196 5.29646 29.2511 5.05057 29.336 4.821C29.3203 4.79343 29.3036 4.76642 29.286 4.74C29.1439 4.58464 28.9487 4.48828 28.739 4.47C28.805 4.56386 28.847 4.67246 28.8613 4.7863C28.8756 4.90013 28.8617 5.01574 28.821 5.123C28.8282 5.2399 28.8229 5.35724 28.805 5.473L28.82 5.455C28.8288 5.44417 28.8408 5.4364 28.8542 5.43281C28.8677 5.42922 28.882 5.42898 28.895 5.434ZM29.261 6.291C29.2375 6.22671 29.2317 6.15732 29.244 6.09C29.2478 6.07372 29.2535 6.05794 29.261 6.043C29.2354 6.02873 29.213 6.0094 29.1951 5.98619C29.1772 5.96298 29.1643 5.93638 29.157 5.908C29.1431 5.81365 29.1364 5.71837 29.137 5.623C29.1223 5.60512 29.1086 5.58642 29.096 5.567C29.0666 5.60893 29.0359 5.64995 29.004 5.69L29.007 5.7C29.023 5.816 28.999 6.048 28.792 6.094C28.7511 6.10244 28.7097 6.10845 28.668 6.112C28.563 6.123 28.488 6.131 28.444 6.227C28.4509 6.22766 28.4576 6.22934 28.464 6.232C28.506 6.24818 28.5514 6.25373 28.596 6.24815C28.6407 6.24257 28.6833 6.22602 28.72 6.2C28.732 6.18876 28.7478 6.18243 28.7643 6.18224C28.7808 6.18205 28.7967 6.18803 28.809 6.199C28.8214 6.21013 28.8294 6.2253 28.8316 6.24179C28.8338 6.25828 28.83 6.27502 28.821 6.289C28.791 6.3378 28.7729 6.39293 28.768 6.45C28.8075 6.44687 28.8456 6.43388 28.8788 6.41221C28.912 6.39055 28.9392 6.36091 28.958 6.326C28.9653 6.31275 28.9769 6.30237 28.9909 6.29656C29.0049 6.29075 29.0204 6.28985 29.035 6.294C29.0498 6.2985 29.0625 6.30787 29.0713 6.32059C29.08 6.33331 29.0841 6.34862 29.083 6.364C29.0844 6.4024 29.0962 6.43971 29.117 6.472L29.121 6.468C29.1742 6.42224 29.2189 6.36739 29.253 6.306L29.261 6.291ZM29.365 5.945C29.4542 5.89889 29.5536 5.87618 29.654 5.879L29.656 5.857C29.6496 5.85695 29.6431 5.85594 29.637 5.854C29.6224 5.84848 29.61 5.83815 29.602 5.8247C29.594 5.81126 29.5909 5.7955 29.593 5.78C29.6015 5.5074 29.5431 5.23686 29.423 4.992C29.3598 5.22279 29.3543 5.46559 29.407 5.699C29.4099 5.71174 29.4092 5.72506 29.405 5.73743C29.4008 5.7498 29.3931 5.76074 29.383 5.769C29.3727 5.77731 29.3601 5.78232 29.3469 5.78339C29.3337 5.78446 29.3205 5.78154 29.309 5.775C29.2974 5.76815 29.286 5.76081 29.275 5.753C29.2765 5.79524 29.2809 5.83734 29.288 5.879C29.294 5.907 29.334 5.931 29.365 5.945ZM30.078 6.032C30.0376 6.00876 30.0044 5.97485 29.982 5.934C29.9667 5.89583 29.9602 5.8547 29.963 5.81368C29.9658 5.77265 29.9777 5.73277 29.998 5.697C29.9528 5.65364 29.911 5.60683 29.873 5.557L29.786 5.706C29.7979 5.79263 29.7941 5.88068 29.775 5.966C29.7714 5.98274 29.7615 5.99745 29.7473 6.00713C29.7332 6.0168 29.7159 6.02069 29.699 6.018C29.5974 6.00629 29.4948 6.02731 29.406 6.078C29.3979 6.08269 29.3908 6.08903 29.3853 6.09661C29.3798 6.10418 29.376 6.11284 29.374 6.122C29.3678 6.16237 29.3719 6.20365 29.386 6.242C29.3939 6.23688 29.4027 6.23347 29.412 6.232C29.4702 6.22028 29.5229 6.1897 29.562 6.145C29.5731 6.1321 29.5886 6.12389 29.6055 6.12203C29.6224 6.12018 29.6394 6.12481 29.653 6.135C29.6667 6.14554 29.676 6.16084 29.6789 6.17788C29.6819 6.19492 29.6783 6.21245 29.669 6.227C29.6536 6.25543 29.6456 6.28729 29.6457 6.31963C29.6459 6.35197 29.6543 6.38374 29.67 6.412L29.678 6.384C29.6808 6.37325 29.6862 6.36335 29.6937 6.35515C29.7012 6.34696 29.7105 6.34073 29.721 6.337C29.77 6.32 29.774 6.295 29.781 6.236C29.779 6.20468 29.7863 6.17347 29.802 6.14627C29.8176 6.11906 29.8409 6.09706 29.869 6.083C29.964 6.046 30.074 6.158 30.154 6.266L30.173 6.233C30.216 6.153 30.187 6.112 30.078 6.032ZM30.185 5.675C30.1111 5.52983 30.0557 5.37596 30.02 5.217C29.9852 4.98452 29.8706 4.77137 29.696 4.614C29.6839 4.60181 29.6767 4.5856 29.6758 4.56845C29.6749 4.5513 29.6803 4.53442 29.691 4.521C29.7016 4.50786 29.7169 4.4993 29.7336 4.49707C29.7504 4.49483 29.7673 4.4991 29.781 4.509C29.9721 4.65825 30.1823 4.78133 30.406 4.875C30.3574 4.79889 30.2978 4.73047 30.229 4.672C30.1784 4.63226 30.1294 4.59057 30.082 4.547C30.0695 4.53489 30.0619 4.51854 30.0608 4.50116C30.0597 4.48378 30.0651 4.46661 30.076 4.453C30.087 4.4396 30.1027 4.43105 30.12 4.42917C30.1372 4.4273 30.1544 4.43227 30.168 4.443C30.199 4.467 30.258 4.513 30.318 4.57C30.4782 4.71692 30.6796 4.81117 30.895 4.84L30.837 4.8C30.689 4.697 30.393 4.49 29.893 4.074C29.9029 4.15766 29.9086 4.24177 29.91 4.326C29.9103 4.33493 29.9088 4.34383 29.9056 4.35218C29.9024 4.36053 29.8976 4.36818 29.8915 4.37468C29.8854 4.38118 29.878 4.38641 29.8699 4.39007C29.8617 4.39372 29.8529 4.39574 29.844 4.396C29.8261 4.39574 29.8081 4.38846 29.7956 4.37573C29.783 4.36301 29.776 4.34586 29.776 4.328C29.7759 4.19346 29.7612 4.05933 29.732 3.928C29.7288 3.92106 29.7267 3.91362 29.726 3.906C29.7032 3.81581 29.6615 3.73152 29.6035 3.65874C29.5456 3.58597 29.4728 3.5264 29.39 3.484C29.3599 3.4648 29.3314 3.44305 29.305 3.419C29.2916 3.41275 29.2807 3.40219 29.274 3.389C29.2166 3.32971 29.1767 3.25562 29.159 3.175C29.1378 3.08478 29.1533 2.98984 29.202 2.911C29.2404 2.86396 29.2894 2.82679 29.3451 2.8026C29.4008 2.77842 29.4614 2.76793 29.522 2.772C29.5473 2.77123 29.5724 2.76788 29.597 2.762C29.6079 2.75804 29.6196 2.757 29.631 2.759C29.6571 2.76289 29.6825 2.77099 29.706 2.783C29.7081 2.76344 29.7046 2.74369 29.696 2.726C29.666 2.673 29.57 2.644 29.426 2.644C29.4103 2.64426 29.3951 2.63894 29.383 2.629C29.2954 2.56348 29.1927 2.52092 29.0844 2.5052C28.9762 2.48948 28.8657 2.5011 28.763 2.539C28.6352 2.60366 28.5228 2.69524 28.4338 2.80745C28.3447 2.91965 28.281 3.04982 28.247 3.189C28.2428 3.20467 28.2331 3.21833 28.2197 3.2275C28.2064 3.23667 28.1901 3.24075 28.174 3.239C27.3419 3.14044 26.5314 2.90741 25.774 2.549C25.7566 2.54202 25.7385 2.53698 25.72 2.534L25.728 2.559C25.773 2.676 25.972 2.905 26.802 3.13C26.8143 3.13334 26.8254 3.14009 26.8341 3.14946C26.8428 3.15883 26.8486 3.17046 26.851 3.183C26.8533 3.19573 26.852 3.20885 26.8473 3.22087C26.8425 3.2329 26.8344 3.24334 26.824 3.251L26.315 3.629C26.4536 3.6388 26.5923 3.61044 26.716 3.547L27.072 3.293C27.0859 3.28345 27.1029 3.27948 27.1195 3.28189C27.1362 3.2843 27.1514 3.29291 27.162 3.306C27.1726 3.31954 27.1778 3.33649 27.1767 3.35364C27.1756 3.37079 27.1682 3.38694 27.156 3.399C27.0461 3.5059 26.9207 3.59557 26.784 3.665L26.635 3.772C26.815 3.76643 26.991 3.71737 27.148 3.629L27.305 3.522C27.3122 3.51706 27.3202 3.51357 27.3287 3.51175C27.3372 3.50993 27.346 3.5098 27.3545 3.51138C27.3631 3.51296 27.3712 3.51622 27.3785 3.52095C27.3858 3.52569 27.3921 3.53183 27.397 3.539C27.4067 3.55336 27.4108 3.57082 27.4084 3.588C27.406 3.60519 27.3973 3.62087 27.384 3.632C27.3305 3.67506 27.2736 3.71384 27.214 3.748L26.928 3.942C27.1539 3.94466 27.3775 3.896 27.5819 3.79969C27.7863 3.70338 27.9662 3.56193 28.108 3.386L28.111 3.384L28.121 3.375L28.132 3.369L28.145 3.366L28.157 3.364L28.17 3.366L28.183 3.37H28.187L28.194 3.377L28.202 3.382L28.205 3.385L28.213 3.396L28.219 3.406L28.222 3.42L28.224 3.432L28.222 3.445L28.219 3.458L28.218 3.462C28.211 3.476 28.08 3.777 28.478 4.154C28.5334 4.2061 28.5852 4.2619 28.633 4.321C28.7768 4.32338 28.9186 4.35481 29.0499 4.41342C29.1811 4.47202 29.2992 4.55658 29.397 4.662C29.5672 4.93052 29.6784 5.23221 29.723 5.547L29.81 5.397C29.8159 5.38691 29.8244 5.37856 29.8346 5.37277C29.8448 5.36698 29.8563 5.36395 29.868 5.364C29.8794 5.36473 29.8905 5.36808 29.9004 5.37381C29.9103 5.37953 29.9187 5.38747 29.925 5.397C29.9936 5.50501 30.0818 5.59929 30.185 5.675ZM31.464 5.206C31.3442 5.08885 31.2069 4.99102 31.057 4.916C31.0428 4.93016 31.0262 4.94168 31.008 4.95C30.9309 4.97345 30.8496 4.97951 30.7699 4.96775C30.6902 4.956 30.614 4.92671 30.547 4.882C30.5493 4.89846 30.5482 4.91522 30.5438 4.93123C30.5393 4.94724 30.5315 4.96214 30.521 4.975C30.497 5.005 30.431 5.085 30.041 4.848C30.0875 4.94759 30.122 5.05231 30.144 5.16C30.2655 5.24132 30.394 5.3116 30.528 5.37C30.49 5.31214 30.4475 5.25731 30.401 5.206C30.3897 5.19306 30.3836 5.17645 30.3838 5.15931C30.384 5.14217 30.3905 5.12569 30.402 5.113C30.4135 5.10019 30.4296 5.09239 30.4468 5.09127C30.464 5.09015 30.4809 5.0958 30.494 5.107C30.6298 5.23028 30.7935 5.31881 30.971 5.365L30.932 5.339C30.8161 5.26433 30.7082 5.17787 30.61 5.081C30.5981 5.06885 30.5911 5.05274 30.5904 5.03576C30.5897 5.01879 30.5952 5.00214 30.606 4.989C30.6165 4.97571 30.6317 4.96695 30.6484 4.96453C30.6652 4.96211 30.6822 4.96621 30.696 4.976C30.9196 5.12994 31.1855 5.21065 31.457 5.207L31.464 5.206ZM31.721 4.913C31.604 4.84614 31.4786 4.79535 31.348 4.762C31.3422 4.75942 31.3369 4.75605 31.332 4.752C31.2658 4.76187 31.1989 4.76688 31.132 4.767L31.064 4.766L31.072 4.768C31.197 4.838 31.292 4.896 31.366 4.948C31.4854 4.95551 31.6053 4.94369 31.721 4.913ZM32.584 4.498C32.338 4.518 32.147 4.521 32.079 4.521C32.0024 4.57624 31.9153 4.61505 31.823 4.635C31.7237 4.64649 31.623 4.63799 31.527 4.61C31.5365 4.62374 31.5407 4.6404 31.539 4.657C31.5381 4.66503 31.5357 4.67283 31.532 4.68C31.6112 4.70552 31.6879 4.73833 31.761 4.778C32.0545 4.7555 32.3376 4.65919 32.584 4.498ZM34.435 3.625C34.17 3.735 33.677 3.941 33.47 3.995L33.464 3.996C33.0095 4.13501 32.5362 4.20248 32.061 4.196C31.861 4.196 31.6473 4.18533 31.42 4.164C31.6567 4.23584 31.8988 4.28835 32.144 4.321C32.1567 4.32261 32.1687 4.32778 32.1786 4.33592C32.1885 4.34406 32.196 4.35483 32.2 4.367L32.203 4.382C32.7466 4.37888 33.2854 4.28039 33.795 4.091C34.0543 3.98479 34.2857 3.82019 34.471 3.61L34.435 3.625ZM34.625 3.115C34.0418 3.45186 33.4064 3.6888 32.745 3.816C32.7277 3.81865 32.71 3.81452 32.6957 3.80446C32.6813 3.7944 32.6714 3.77919 32.668 3.762C32.6644 3.74479 32.6675 3.72684 32.6769 3.71192C32.6862 3.697 32.7009 3.68628 32.718 3.682C33.1087 3.63661 33.4866 3.51406 33.8296 3.32145C34.1726 3.12884 34.4739 2.87002 34.716 2.56C34.1268 2.93301 33.4831 3.21202 32.808 3.387L32.81 3.392C32.8134 3.40762 32.8113 3.42394 32.804 3.43817C32.7967 3.45239 32.7847 3.46365 32.77 3.47C32.5498 3.54734 32.3184 3.58789 32.085 3.59L32.172 3.623C32.1848 3.62804 32.1958 3.6368 32.2036 3.64814C32.2114 3.65949 32.2156 3.6729 32.2157 3.68666C32.2158 3.70042 32.2118 3.7139 32.2042 3.72537C32.1966 3.73683 32.1857 3.74576 32.173 3.751C31.9642 3.8279 31.7423 3.86257 31.52 3.853C31.583 3.879 31.647 3.903 31.7 3.923C31.7126 3.92741 31.7236 3.93544 31.7317 3.94608C31.7398 3.95672 31.7446 3.96951 31.7454 3.98285C31.7463 3.99618 31.7432 4.00948 31.7365 4.02106C31.7299 4.03265 31.7199 4.04202 31.708 4.048C32.5426 4.13527 33.3836 3.95903 34.113 3.544C34.3032 3.42568 34.4756 3.2819 34.625 3.115Z"
		fill="#464655"
	/>
</svg>
