<svg viewBox="0 0 36 24" fill="none" xmlns="http://www.w3.org/2000/svg">
	<path
		d="M36 0V3.429H0.006V0H36ZM0.006 24H36V20.571H0.006V24Z"
		fill="#73AF00"
	/>
	<path d="M0 24L13.768 13.714H36V10.286H13.768L0 0" fill="#464655" />
	<path d="M0 23.07L14.9 12L0 0.776" fill="#F5F5F5" />
	<path
		d="M13.768 13.714H36V17.143H9.18L13.768 13.714ZM9.178 6.858L13.768 10.286H36V6.857L9.178 6.858ZM10.288 10.511L7.364 10.078L6.056 7.382L4.748 10.078L1.824 10.511L3.94 12.61L3.44 15.574L6.056 14.175L8.672 15.574L8.172 12.61L10.288 10.511Z"
		fill="#FF4B55"
	/>
	<path
		d="M9.18 17.143H36V20.571H4.59L9.18 17.143ZM4.59 3.429L9.178 6.858H35.999V3.428L4.59 3.429ZM8.604 15.03L9.072 13.071L9.073 13.07V13.066L9.223 12.444L9.401 12.464C9.4156 12.4662 9.43051 12.4632 9.44312 12.4555C9.45573 12.4478 9.46524 12.436 9.47 12.422C9.47514 12.4084 9.47588 12.3936 9.47211 12.3796C9.46834 12.3656 9.46025 12.3531 9.449 12.344L5.974 9.606C5.567 8.636 4.989 8.01 4.498 8.01C4.33122 8.02551 4.17423 8.09568 4.05144 8.20961C3.92865 8.32354 3.84693 8.47484 3.819 8.64C3.72959 8.68199 3.6501 8.74247 3.5858 8.81746C3.5215 8.89245 3.47385 8.98023 3.446 9.075C3.44357 9.08495 3.44338 9.09532 3.44546 9.10535C3.44754 9.11539 3.45182 9.12483 3.458 9.133C3.46421 9.14115 3.47223 9.14774 3.48143 9.15226C3.49063 9.15677 3.50075 9.15908 3.511 9.159L3.573 9.158C3.852 9.151 4.317 9.138 4.436 10.041C4.50146 10.8392 4.36887 11.6413 4.05 12.376C3.9016 12.6799 3.84595 13.0207 3.89 13.356C3.89336 13.3722 3.90253 13.3867 3.91579 13.3966C3.92905 13.4066 3.94548 13.4113 3.962 13.41L3.996 13.408L4.278 15.026C4.28057 15.0415 4.28848 15.0555 4.30036 15.0658C4.31224 15.076 4.32733 15.0817 4.343 15.082H8.539C8.55411 15.0819 8.56876 15.0768 8.58055 15.0673C8.59235 15.0579 8.60062 15.0447 8.604 15.03Z"
		fill="#FFE15A"
	/>
	<path
		d="M9.449 12.344L5.974 9.606C5.567 8.636 4.989 8.01 4.498 8.01C4.33122 8.02551 4.17423 8.09568 4.05144 8.20961C3.92865 8.32354 3.84693 8.47484 3.819 8.64C3.72959 8.68199 3.6501 8.74247 3.5858 8.81746C3.5215 8.89245 3.47385 8.98023 3.446 9.075C3.44357 9.08495 3.44338 9.09532 3.44546 9.10535C3.44754 9.11539 3.45182 9.12483 3.458 9.133C3.46421 9.14115 3.47223 9.14774 3.48143 9.15226C3.49063 9.15677 3.50075 9.15908 3.511 9.159L3.573 9.158C3.852 9.151 4.317 9.138 4.436 10.041C4.50146 10.8392 4.36887 11.6413 4.05 12.376C3.9016 12.6799 3.84595 13.0207 3.89 13.356C3.89336 13.3722 3.90253 13.3867 3.91579 13.3966C3.92905 13.4066 3.94548 13.4113 3.962 13.41L3.996 13.408L4.278 15.026C4.28057 15.0415 4.28848 15.0555 4.30036 15.0658C4.31224 15.076 4.32733 15.0817 4.343 15.082H8.539C8.55411 15.0819 8.56876 15.0768 8.58055 15.0673C8.59235 15.0579 8.60062 15.0447 8.604 15.03L9.072 13.071L9.073 13.07V13.066L9.223 12.444L9.401 12.464C9.4156 12.4662 9.43051 12.4632 9.44312 12.4555C9.45573 12.4478 9.46524 12.436 9.47 12.422C9.47514 12.4084 9.47588 12.3936 9.47211 12.3796C9.46834 12.3656 9.46025 12.3531 9.449 12.344ZM4.399 14.946L4.131 13.406C4.331 13.402 4.69 13.401 5.127 13.405C5.13816 13.9224 5.19336 14.4379 5.292 14.946H4.399ZM5.292 13.948L5.422 14.072H5.302L5.292 13.948ZM8.487 14.947H5.428C5.37493 14.7029 5.33686 14.4558 5.314 14.207C6.41178 14.1854 7.50974 14.2399 8.6 14.37C8.60602 14.376 8.61315 14.3808 8.621 14.384L8.487 14.947ZM5.699 14.075L5.946 13.855L6.188 14.083C6.02501 14.0796 5.86201 14.0769 5.699 14.075ZM6.452 14.089L6.712 13.867L6.948 14.105C6.7827 14.0987 6.61736 14.0933 6.452 14.089ZM7.227 14.117L7.479 13.92L7.678 14.141C7.52774 14.1317 7.3774 14.1237 7.227 14.117ZM8.003 14.165L8.259 13.99L8.457 14.211C8.351 14.198 8.203 14.181 8.003 14.165ZM8.657 14.233L8.319 13.856C8.3084 13.8441 8.29377 13.8364 8.27791 13.8346C8.26205 13.8328 8.24606 13.8368 8.233 13.846L7.835 14.116L7.536 13.783C7.52496 13.7703 7.50951 13.7623 7.49278 13.7607C7.47606 13.759 7.45933 13.7638 7.446 13.774L7.087 14.054L6.761 13.727C6.74917 13.7152 6.7333 13.7083 6.71659 13.7078C6.69989 13.7072 6.68359 13.713 6.671 13.724L6.321 14.024L5.992 13.714C5.98004 13.7023 5.9641 13.6956 5.94739 13.6953C5.93069 13.6949 5.91447 13.7009 5.902 13.712L5.56 14.019L5.278 13.749L5.265 13.5L5.517 13.752C5.52883 13.7638 5.5447 13.7707 5.56141 13.7712C5.57811 13.7718 5.59441 13.766 5.607 13.755L5.96 13.445L6.283 13.769C6.2947 13.7809 6.31051 13.788 6.32721 13.7887C6.34392 13.7895 6.36028 13.7839 6.373 13.773L6.727 13.473L7.067 13.798C7.07825 13.8092 7.09321 13.8159 7.10905 13.8168C7.12489 13.8177 7.14053 13.8128 7.153 13.803L7.508 13.525L7.806 13.873C7.81686 13.8856 7.83205 13.8936 7.84854 13.8954C7.86504 13.8973 7.88163 13.8928 7.895 13.883L8.29 13.597L8.683 14.043C8.68799 14.0479 8.69373 14.0519 8.7 14.055L8.657 14.233ZM5.362 13.407L5.792 13.415L5.567 13.612L5.362 13.407ZM6.128 13.423L6.56 13.438L6.334 13.629L6.128 13.423ZM6.9 13.453C7.053 13.46 7.204 13.468 7.35 13.478L7.117 13.66L6.9 13.453ZM7.665 13.501C7.829 13.515 7.985 13.531 8.128 13.548L7.867 13.738L7.665 13.501ZM8.737 13.901L8.47 13.598C8.57856 13.6158 8.68581 13.6408 8.791 13.673L8.737 13.901ZM8.823 13.541C7.55293 13.3279 6.26546 13.2361 4.978 13.267C5.09044 13.0293 5.28982 12.8439 5.535 12.749L5.545 12.751C6.6821 12.7441 7.81654 12.8618 8.928 13.102L8.823 13.541ZM8.959 12.971C7.93359 12.7485 6.88821 12.6309 5.839 12.62C5.94437 12.5778 6.04577 12.5262 6.142 12.466C6.24254 12.4782 6.34373 12.4842 6.445 12.484C6.749 12.484 7.175 12.426 7.293 12.122C7.986 12.276 8.695 12.377 9.089 12.428L8.959 12.971ZM6.337 12.319C6.45606 12.2192 6.54676 12.0899 6.6 11.944C6.669 11.965 6.74 11.984 6.811 12.004C6.7685 12.0949 6.7018 12.1724 6.61819 12.228C6.53459 12.2836 6.43731 12.315 6.337 12.319ZM6.94 12.038C7.01333 12.0567 7.08733 12.0747 7.162 12.092C7.11127 12.1641 7.04429 12.2234 6.96647 12.2649C6.88866 12.3064 6.80218 12.329 6.714 12.331C6.82149 12.263 6.90152 12.1592 6.94 12.038ZM6.177 11.656C6.01395 11.5985 5.86742 11.502 5.75014 11.3749C5.63285 11.2479 5.54836 11.0941 5.504 10.927C5.50109 10.9188 5.49658 10.9112 5.49072 10.9047C5.48486 10.8982 5.47777 10.893 5.46986 10.8892C5.46195 10.8855 5.45339 10.8834 5.44465 10.883C5.43592 10.8826 5.4272 10.884 5.419 10.887C5.40221 10.8933 5.38858 10.907 5.38109 10.9233C5.3736 10.9396 5.37285 10.9582 5.379 10.975C5.43054 11.1596 5.52538 11.3292 5.65566 11.4697C5.78593 11.6102 5.94786 11.7176 6.128 11.783C6.235 11.826 6.35 11.866 6.472 11.905C6.451 11.971 6.316 12.303 5.719 12.522C5.235 12.699 4.891 12.997 4.844 13.267H4.376V13.071C4.42583 12.854 4.52507 12.6514 4.666 12.479C4.90795 12.1782 5.06135 11.816 5.109 11.433C5.10726 11.4167 5.09963 11.4017 5.08754 11.3906C5.07546 11.3796 5.05975 11.3734 5.04339 11.3731C5.02702 11.3729 5.01113 11.3786 4.99872 11.3893C4.98631 11.3999 4.97822 11.4148 4.976 11.431V11.433C4.92608 11.7888 4.78058 12.1244 4.555 12.404C4.39579 12.5961 4.28839 12.8257 4.243 13.071V13.268L4.013 13.272C3.99214 12.9835 4.04622 12.6945 4.17 12.433C4.49879 11.6746 4.63549 10.8468 4.568 10.023C4.44 9.046 3.9 9.015 3.61 9.021C3.67193 8.89863 3.77598 8.80275 3.903 8.751C3.91331 8.74667 3.92237 8.73982 3.92936 8.73109C3.93635 8.72235 3.94104 8.71201 3.943 8.701C3.948 8.679 4.061 8.146 4.499 8.146C4.932 8.146 5.479 8.76 5.859 9.675C5.86327 9.68555 5.87015 9.69484 5.879 9.702L9.179 12.302C8.15862 12.1935 7.15164 11.977 6.177 11.656ZM4.465 8.383C4.42031 8.38222 4.37639 8.3947 4.3388 8.41887C4.30121 8.44305 4.27162 8.47783 4.2538 8.51881C4.23597 8.5598 4.23069 8.60515 4.23863 8.64913C4.24658 8.69312 4.26739 8.73376 4.29843 8.76592C4.32947 8.79808 4.36935 8.82031 4.41302 8.82981C4.4567 8.8393 4.50221 8.83563 4.5438 8.81927C4.58539 8.8029 4.62119 8.77457 4.64668 8.73785C4.67217 8.70114 4.6862 8.65769 4.687 8.613V8.61C4.68726 8.58058 4.68173 8.5514 4.67072 8.52413C4.6597 8.49685 4.64342 8.47201 4.62281 8.45102C4.60219 8.43003 4.57765 8.41331 4.55057 8.40181C4.52349 8.39031 4.49442 8.38326 4.465 8.383ZM4.465 8.7C4.44724 8.70019 4.42983 8.69513 4.41494 8.68545C4.40006 8.67576 4.38837 8.66189 4.38135 8.64558C4.37433 8.62927 4.3723 8.61125 4.3755 8.59379C4.3787 8.57632 4.38699 8.56019 4.39934 8.54743C4.41168 8.53467 4.42753 8.52584 4.44488 8.52207C4.46223 8.51829 4.48031 8.51973 4.49684 8.5262C4.51338 8.53268 4.52762 8.5439 4.5378 8.55845C4.54797 8.57301 4.5536 8.59025 4.554 8.608V8.609C4.554 8.6327 4.54466 8.65544 4.52799 8.67229C4.51133 8.68914 4.4887 8.69974 4.465 8.7ZM6.326 13.254C6.3699 13.2548 6.41304 13.2425 6.44998 13.2188C6.48691 13.1951 6.51598 13.1609 6.53351 13.1207C6.55103 13.0804 6.55623 13.0359 6.54844 12.9926C6.54065 12.9494 6.52022 12.9095 6.48974 12.8779C6.45926 12.8463 6.4201 12.8245 6.3772 12.8151C6.3343 12.8058 6.28959 12.8094 6.24873 12.8254C6.20787 12.8415 6.17269 12.8693 6.14764 12.9054C6.12259 12.9414 6.1088 12.9841 6.108 13.028V13.032C6.10774 13.0609 6.11317 13.0896 6.12398 13.1163C6.13479 13.1431 6.15078 13.1675 6.17102 13.1882C6.19126 13.2088 6.21537 13.2252 6.24196 13.2365C6.26855 13.2478 6.29711 13.2537 6.326 13.254ZM6.326 12.946C6.34324 12.9456 6.36022 12.9503 6.37476 12.9596C6.3893 12.9689 6.40077 12.9823 6.40769 12.9981C6.41461 13.0139 6.41667 13.0314 6.41363 13.0483C6.41058 13.0653 6.40255 13.081 6.39057 13.0934C6.37859 13.1058 6.36319 13.1144 6.34632 13.118C6.32946 13.1217 6.3119 13.1202 6.29587 13.1138C6.27984 13.1075 6.26607 13.0965 6.2563 13.0823C6.24653 13.068 6.2412 13.0512 6.241 13.034V13.032C6.241 13.0094 6.24992 12.9876 6.26583 12.9715C6.28175 12.9554 6.30337 12.9463 6.326 12.946ZM6.979 13.292C7.02286 13.2926 7.06591 13.2802 7.10271 13.2563C7.13952 13.2324 7.16844 13.1982 7.18581 13.1579C7.20318 13.1177 7.20823 13.0732 7.20033 13.03C7.19242 12.9869 7.17191 12.947 7.14139 12.9155C7.11087 12.884 7.0717 12.8623 7.02882 12.853C6.98595 12.8438 6.94129 12.8474 6.90049 12.8635C6.85969 12.8796 6.82457 12.9074 6.79957 12.9435C6.77456 12.9795 6.76079 13.0221 6.76 13.066V13.07C6.75974 13.099 6.7652 13.1277 6.77607 13.1546C6.78695 13.1814 6.80302 13.2059 6.82337 13.2265C6.84372 13.2471 6.86795 13.2635 6.89465 13.2748C6.92136 13.286 6.95002 13.2919 6.979 13.292ZM6.979 12.983C6.9962 12.9826 7.01313 12.9873 7.02765 12.9966C7.04217 13.0058 7.05363 13.0191 7.06057 13.0349C7.06752 13.0506 7.06964 13.068 7.06667 13.085C7.0637 13.1019 7.05578 13.1176 7.04389 13.1301C7.03201 13.1425 7.0167 13.1511 6.99991 13.1549C6.98312 13.1586 6.96559 13.1573 6.94955 13.1511C6.93351 13.1449 6.91967 13.1341 6.90978 13.12C6.89989 13.1059 6.8944 13.0892 6.894 13.072V13.07C6.89387 13.0587 6.89596 13.0475 6.90016 13.037C6.90436 13.0265 6.91059 13.017 6.91848 13.0089C6.92637 13.0008 6.93578 12.9944 6.94616 12.9899C6.95655 12.9855 6.96771 12.9831 6.979 12.983Z"
		fill="#464655"
	/>
</svg>
