<svg
	color="rgb(var(--foreground, 0, 0, 0))"
	viewBox="0 0 15 15"
	fill="none"
	xmlns="http://www.w3.org/2000/svg"
>
	<path
		d="M0.612851 4.87481C1.02654 4.87481 1.23336 4.6653 1.23336 4.2463V2.4374C1.23336 2.03883 1.33598 1.73991 1.54027 1.54062C1.74456 1.33623 2.03819 1.23403 2.42124 1.23403H4.27511C4.69391 1.23403 4.90328 1.02708 4.90328 0.613184C4.90328 0.204395 4.69391 0 4.27511 0H2.40592C1.60408 0 1.001 0.199285 0.597529 0.597854C0.199163 0.991313 0 1.5815 0 2.36842V4.2463C0 4.6653 0.20427 4.87481 0.612851 4.87481ZM14.3795 4.87481C14.7932 4.87481 15 4.6653 15 4.2463V2.36842C15 1.5815 14.7983 0.991313 14.3948 0.597854C13.9964 0.199285 13.3964 0 12.5946 0H10.7177C10.304 0 10.0972 0.204395 10.0972 0.613184C10.0972 1.02708 10.304 1.23403 10.7177 1.23403H12.5716C12.9495 1.23403 13.2432 1.33623 13.4526 1.54062C13.6619 1.73991 13.7666 2.03883 13.7666 2.4374V4.2463C13.7666 4.6653 13.9709 4.87481 14.3795 4.87481ZM2.40592 15H4.27511C4.69391 15 4.90328 14.7956 4.90328 14.3868C4.90328 13.9729 4.69391 13.766 4.27511 13.766H2.42124C2.03819 13.766 1.74456 13.6638 1.54027 13.4594C1.33598 13.2601 1.23336 12.9612 1.23336 12.5626V10.7537C1.23336 10.3347 1.02654 10.1252 0.612851 10.1252C0.20427 10.1252 0 10.3347 0 10.7537V12.6239C0 13.4159 0.199163 14.0087 0.597529 14.4021C1.001 14.8007 1.60408 15 2.40592 15ZM10.7177 15H12.5946C13.3964 15 13.9964 14.8007 14.3948 14.4021C14.7983 14.0087 15 13.4159 15 12.6239V10.7537C15 10.3347 14.7932 10.1252 14.3795 10.1252C13.9709 10.1252 13.7666 10.3347 13.7666 10.7537V12.5626C13.7666 12.9612 13.6619 13.2601 13.4526 13.4594C13.2432 13.6638 12.9495 13.766 12.5716 13.766H10.7177C10.304 13.766 10.0972 13.9729 10.0972 14.3868C10.0972 14.7956 10.304 15 10.7177 15ZM4.29809 10.6771H10.7024C11.0854 10.6771 11.374 10.5825 11.568 10.3935C11.7621 10.1993 11.8591 9.91058 11.8591 9.52734V6.67603H3.14134V9.52734C3.14134 9.91058 3.23837 10.1993 3.43244 10.3935C3.62652 10.5825 3.91505 10.6771 4.29809 10.6771ZM4.65814 9.52734C4.4181 9.52734 4.29809 9.40726 4.29809 9.16709V8.48493C4.29809 8.24476 4.4181 8.12468 4.65814 8.12468H5.56976C5.8098 8.12468 5.92981 8.24476 5.92981 8.48493V9.16709C5.92981 9.40726 5.8098 9.52734 5.56976 9.52734H4.65814ZM3.14134 5.82524H11.8591V5.48799C11.8591 5.10475 11.7621 4.8186 11.568 4.62953C11.374 4.43536 11.0854 4.33827 10.7024 4.33827H4.29809C3.91505 4.33827 3.62652 4.43536 3.43244 4.62953C3.23837 4.8186 3.14134 5.10475 3.14134 5.48799V5.82524Z"
		fill="currentColor"
	/>
</svg>
