<svg
	color="rgb(var(--foreground, 0, 0, 0))"
	viewBox="0 0 15 15"
	fill="none"
	xmlns="http://www.w3.org/2000/svg"
>
	<path
		d="M0.612873 4.87481C1.02656 4.87481 1.23341 4.6653 1.23341 4.2463V2.4374C1.23341 2.03883 1.33555 1.73991 1.53984 1.54062C1.74413 1.33623 2.0378 1.23403 2.42085 1.23403H4.27479C4.69359 1.23403 4.90298 1.02708 4.90298 0.613183C4.90298 0.204394 4.69359 0 4.27479 0H2.40553C1.60368 0 1.00103 0.199285 0.597551 0.597854C0.199184 0.991313 0 1.5815 0 2.36842V4.2463C0 4.6653 0.204291 4.87481 0.612873 4.87481ZM14.3795 4.87481C14.7932 4.87481 15 4.6653 15 4.2463V2.36842C15 1.5815 14.7983 0.991313 14.3948 0.597854C13.9964 0.199285 13.3964 0 12.5945 0H10.7176C10.3039 0 10.0971 0.204394 10.0971 0.613183C10.0971 1.02708 10.3039 1.23403 10.7176 1.23403H12.5716C12.9495 1.23403 13.2431 1.33623 13.4525 1.54062C13.6619 1.73991 13.7666 2.03883 13.7666 2.4374V4.2463C13.7666 4.6653 13.9709 4.87481 14.3795 4.87481ZM2.40553 15H4.27479C4.69359 15 4.90298 14.7956 4.90298 14.3868C4.90298 13.9729 4.69359 13.766 4.27479 13.766H2.42085C2.0378 13.766 1.74413 13.6638 1.53984 13.4594C1.33555 13.2601 1.23341 12.9612 1.23341 12.5626V10.7537C1.23341 10.3347 1.02656 10.1252 0.612873 10.1252C0.204291 10.1252 0 10.3347 0 10.7537V12.6239C0 13.4159 0.199184 14.0087 0.597551 14.4021C1.00103 14.8007 1.60368 15 2.40553 15ZM10.7176 15H12.5945C13.3964 15 13.9964 14.8007 14.3948 14.4021C14.7983 14.0087 15 13.4159 15 12.6239V10.7537C15 10.3347 14.7932 10.1252 14.3795 10.1252C13.9709 10.1252 13.7666 10.3347 13.7666 10.7537V12.5626C13.7666 12.9612 13.6619 13.2601 13.4525 13.4594C13.2431 13.6638 12.9495 13.766 12.5716 13.766H10.7176C10.3039 13.766 10.0971 13.9729 10.0971 14.3868C10.0971 14.7956 10.3039 15 10.7176 15ZM3.65425 11.7731H11.3535C11.522 11.7731 11.6471 11.7246 11.7289 11.6275C11.8106 11.5253 11.8514 11.395 11.8514 11.2366C11.8514 11.0066 11.762 10.7077 11.5833 10.3398C11.4096 9.9719 11.1441 9.60399 10.7866 9.23608C10.429 8.86817 9.97706 8.55902 9.43058 8.30864C8.88921 8.05314 8.2457 7.9254 7.50003 7.9254C6.75948 7.9254 6.11596 8.05314 5.56948 8.30864C5.02811 8.55902 4.57867 8.86817 4.22116 9.23608C3.86365 9.60399 3.59552 9.9719 3.41677 10.3398C3.24312 10.7077 3.1563 11.0066 3.1563 11.2366C3.1563 11.395 3.19715 11.5253 3.27887 11.6275C3.36059 11.7246 3.48571 11.7731 3.65425 11.7731ZM7.50003 7.23556C7.8984 7.24067 8.26101 7.13848 8.58787 6.92897C8.91985 6.71947 9.18287 6.43843 9.37695 6.08585C9.57103 5.72816 9.66807 5.32448 9.66807 4.87481C9.66807 4.45069 9.57103 4.0649 9.37695 3.71742C9.18287 3.36484 8.91985 3.0838 8.58787 2.8743C8.26101 2.65968 7.8984 2.55238 7.50003 2.55238C7.10167 2.55238 6.73905 2.65968 6.41218 2.8743C6.08532 3.0838 5.82485 3.36484 5.63077 3.71742C5.43669 4.0649 5.33966 4.45069 5.33966 4.87481C5.33966 5.32448 5.43669 5.7256 5.63077 6.07818C5.82485 6.43076 6.08532 6.7118 6.41218 6.92131C6.73905 7.13081 7.10167 7.23556 7.50003 7.23556Z"
		fill="currentColor"
	/>
</svg>
