<svg
	color="rgb(var(--foreground, 0, 0, 0))"
	viewBox="0 0 15 15"
	fill="none"
	xmlns="http://www.w3.org/2000/svg"
>
	<path
		d="M0.61287 4.87481C1.02656 4.87481 1.2334 4.6653 1.2334 4.2463V2.4374C1.2334 2.03884 1.33555 1.73991 1.53984 1.54062C1.74413 1.33623 2.03779 1.23403 2.42084 1.23403H4.27477C4.69356 1.23403 4.90296 1.02708 4.90296 0.613183C4.90296 0.204394 4.69356 0 4.27477 0H2.40552C1.60368 0 1.00102 0.199285 0.597548 0.597854C0.199183 0.991313 0 1.5815 0 2.36842V4.2463C0 4.6653 0.20429 4.87481 0.61287 4.87481ZM14.3795 4.87481C14.7932 4.87481 15 4.6653 15 4.2463V2.36842C15 1.5815 14.7983 0.991313 14.3948 0.597854C13.9964 0.199285 13.3963 0 12.5945 0H10.7176C10.3039 0 10.097 0.204394 10.097 0.613183C10.097 1.02708 10.3039 1.23403 10.7176 1.23403H12.5715C12.9494 1.23403 13.2431 1.33623 13.4525 1.54062C13.6619 1.73991 13.7666 2.03884 13.7666 2.4374V4.2463C13.7666 4.6653 13.9709 4.87481 14.3795 4.87481ZM2.40552 15H4.27477C4.69356 15 4.90296 14.7956 4.90296 14.3868C4.90296 13.9729 4.69356 13.766 4.27477 13.766H2.42084C2.03779 13.766 1.74413 13.6638 1.53984 13.4594C1.33555 13.2601 1.2334 12.9612 1.2334 12.5626V10.7537C1.2334 10.3347 1.02656 10.1252 0.61287 10.1252C0.20429 10.1252 0 10.3347 0 10.7537V12.6239C0 13.4159 0.199183 14.0087 0.597548 14.4021C1.00102 14.8007 1.60368 15 2.40552 15ZM10.7176 15H12.5945C13.3963 15 13.9964 14.8007 14.3948 14.4021C14.7983 14.0087 15 13.4159 15 12.6239V10.7537C15 10.3347 14.7932 10.1252 14.3795 10.1252C13.9709 10.1252 13.7666 10.3347 13.7666 10.7537V12.5626C13.7666 12.9612 13.6619 13.2601 13.4525 13.4594C13.2431 13.6638 12.9494 13.766 12.5715 13.766H10.7176C10.3039 13.766 10.097 13.9729 10.097 14.3868C10.097 14.7956 10.3039 15 10.7176 15ZM4.15986 11.1753H6.82584C6.92288 11.1753 7.00204 11.1446 7.06333 11.0833C7.12972 11.0169 7.16292 10.9351 7.16292 10.838V8.17067C7.16292 8.07358 7.12972 7.99438 7.06333 7.93306C7.00204 7.86663 6.92288 7.83342 6.82584 7.83342H4.15986C4.06793 7.83342 3.98876 7.86663 3.92237 7.93306C3.85598 7.99438 3.82278 8.07358 3.82278 8.17067V10.838C3.82278 10.9351 3.85598 11.0169 3.92237 11.0833C3.98876 11.1446 4.06793 11.1753 4.15986 11.1753ZM4.48927 10.5084V8.50026H6.49642V10.5084H4.48927ZM5.07916 9.91824H5.9142V9.08278H5.07916V9.91824ZM4.15986 7.16658H6.82584C6.92288 7.16658 7.00204 7.13592 7.06333 7.0746C7.12972 7.00818 7.16292 6.92897 7.16292 6.837V4.16198C7.16292 4.07 7.12972 3.9908 7.06333 3.92437C7.00204 3.85795 6.92288 3.82473 6.82584 3.82473H4.15986C4.06793 3.82473 3.98876 3.85795 3.92237 3.92437C3.85598 3.9908 3.82278 4.07 3.82278 4.16198V6.837C3.82278 6.92897 3.85598 7.00818 3.92237 7.0746C3.98876 7.13592 4.06793 7.16658 4.15986 7.16658ZM4.48927 6.49974V4.49157H6.49642V6.49974H4.48927ZM5.07916 5.91722H5.9142V5.07409H5.07916V5.91722ZM8.15884 7.16658H10.8325C10.9244 7.16658 11.001 7.13592 11.0623 7.0746C11.1287 7.00818 11.1619 6.92897 11.1619 6.837V4.16198C11.1619 4.07 11.1287 3.9908 11.0623 3.92437C11.001 3.85795 10.9244 3.82473 10.8325 3.82473H8.15884C8.06691 3.82473 7.98774 3.85795 7.92135 3.92437C7.85495 3.9908 7.82176 4.07 7.82176 4.16198V6.837C7.82176 6.92897 7.85495 7.00818 7.92135 7.0746C7.98774 7.13592 8.06691 7.16658 8.15884 7.16658ZM8.48825 6.49974V4.49157H10.4954V6.49974H8.48825ZM9.07814 5.91722H9.91318V5.07409H9.07814V5.91722ZM7.92135 11.0756H8.75638V10.2402H7.92135V11.0756ZM10.2273 11.0756H11.07V10.2402H10.2273V11.0756ZM9.07814 9.91824H9.91318V9.08278H9.07814V9.91824ZM7.92135 8.76086H8.75638V7.9254H7.92135V8.76086ZM10.2273 8.76086H11.07V7.9254H10.2273V8.76086Z"
		fill="currentColor"
	/>
</svg>
