<svg
	color="rgb(var(--foreground, 0, 0, 0))"
	viewBox="0 0 15 15"
	fill="none"
	xmlns="http://www.w3.org/2000/svg"
>
	<path
		d="M0.612871 4.87481C1.02656 4.87481 1.2334 4.6653 1.2334 4.2463V2.4374C1.2334 2.03883 1.33555 1.73991 1.53984 1.54062C1.74413 1.33623 2.0378 1.23403 2.42084 1.23403H4.27477C4.69357 1.23403 4.90297 1.02708 4.90297 0.613183C4.90297 0.204395 4.69357 0 4.27477 0H2.40552C1.60368 0 1.00102 0.199285 0.597549 0.597854C0.199183 0.991313 0 1.5815 0 2.36842V4.2463C0 4.6653 0.20429 4.87481 0.612871 4.87481ZM14.3795 4.87481C14.7932 4.87481 15 4.6653 15 4.2463V2.36842C15 1.5815 14.7983 0.991313 14.3948 0.597854C13.9964 0.199285 13.3963 0 12.5945 0H10.7176C10.3039 0 10.097 0.204395 10.097 0.613183C10.097 1.02708 10.3039 1.23403 10.7176 1.23403H12.5715C12.9494 1.23403 13.2431 1.33623 13.4525 1.54062C13.6619 1.73991 13.7666 2.03883 13.7666 2.4374V4.2463C13.7666 4.6653 13.9709 4.87481 14.3795 4.87481ZM2.40552 15H4.27477C4.69357 15 4.90297 14.7956 4.90297 14.3868C4.90297 13.9729 4.69357 13.766 4.27477 13.766H2.42084C2.0378 13.766 1.74413 13.6638 1.53984 13.4594C1.33555 13.2601 1.2334 12.9612 1.2334 12.5626V10.7537C1.2334 10.3347 1.02656 10.1252 0.612871 10.1252C0.20429 10.1252 0 10.3347 0 10.7537V12.6239C0 13.4159 0.199183 14.0087 0.597549 14.4021C1.00102 14.8007 1.60368 15 2.40552 15ZM10.7176 15H12.5945C13.3963 15 13.9964 14.8007 14.3948 14.4021C14.7983 14.0087 15 13.4159 15 12.6239V10.7537C15 10.3347 14.7932 10.1252 14.3795 10.1252C13.9709 10.1252 13.7666 10.3347 13.7666 10.7537V12.5626C13.7666 12.9612 13.6619 13.2601 13.4525 13.4594C13.2431 13.6638 12.9494 13.766 12.5715 13.766H10.7176C10.3039 13.766 10.097 13.9729 10.097 14.3868C10.097 14.7956 10.3039 15 10.7176 15ZM7.50765 2.82831C7.03268 2.82831 6.60367 2.94328 6.22062 3.17322C5.83758 3.39806 5.53114 3.7021 5.30132 4.08533C5.0766 4.46857 4.96425 4.89269 4.96425 5.35769C4.96425 5.89934 5.1098 6.38477 5.40091 6.814C5.69713 7.24323 6.09039 7.55493 6.58069 7.74911V11.6735C6.58579 11.7706 6.62665 11.8549 6.70326 11.9264L7.3621 12.5933C7.40296 12.6341 7.44892 12.6571 7.49999 12.6622C7.55107 12.6622 7.59703 12.6392 7.63789 12.5933L8.90193 11.3439C8.9479 11.2979 8.97088 11.2494 8.97088 11.1983C8.97088 11.1421 8.9479 11.0961 8.90193 11.0603L8.12052 10.2708L9.20071 9.20542C9.24157 9.16965 9.25944 9.12621 9.25434 9.07511C9.24923 9.01891 9.22625 8.97036 9.18539 8.92948L8.12052 7.85641C8.7385 7.60603 9.21348 7.26622 9.54545 6.837C9.87742 6.40266 10.0434 5.90956 10.0434 5.35769C10.0434 4.89269 9.92849 4.46857 9.69867 4.08533C9.46884 3.7021 9.16241 3.39806 8.77936 3.17322C8.39632 2.94328 7.97241 2.82831 7.50765 2.82831ZM7.49999 4.03935C7.7145 4.03935 7.89581 4.11855 8.04392 4.27695C8.19713 4.43025 8.27374 4.61421 8.27374 4.82882C8.27374 5.04854 8.19713 5.23505 8.04392 5.38835C7.89581 5.54165 7.7145 5.61829 7.49999 5.61829C7.28549 5.61829 7.09907 5.54165 6.94075 5.38835C6.78753 5.23505 6.71092 5.04854 6.71092 4.82882C6.71092 4.61421 6.78753 4.43025 6.94075 4.27695C7.09397 4.11855 7.28038 4.03935 7.49999 4.03935Z"
		fill="currentColor"
	/>
</svg>
