<svg viewBox="0 0 62 24" fill="none" color="rgb(var(--foreground, 0, 0, 0))">
	<path
		d="M43.9121 5.29193V5.36646H44.065C44.0664 5.29307 44.0815 5.22059 44.1094 5.1528V5.01863C44.0453 5.01863 43.9812 5.12298 43.922 5.30683L43.9121 5.29193ZM42.4624 1.77391V1.63975H42.2454V1.77391H42.4624ZM38.2511 9.72422C37.9337 9.17667 37.5439 8.67518 37.0923 8.23354C37.0923 8.07453 37.3388 7.84099 37.8763 7.52795L39.3853 6.20621C39.8028 5.56613 40.0225 4.81563 40.0165 4.04969V3.82112C39.9573 3.1354 39.4642 2.58385 38.5371 2.16149C37.9848 1.78716 36.9986 1.58013 35.5784 1.54037C33.9806 1.75095 32.4191 2.18233 30.9381 2.82236C30.3629 3.23478 29.7653 3.61466 29.1481 3.96025V4.07453C29.2125 4.06206 29.2733 4.03486 29.3256 3.99503C29.3411 3.9912 29.3573 3.99102 29.3729 3.99452C29.3884 3.99802 29.403 4.00509 29.4154 4.01519C29.4278 4.02529 29.4377 4.03815 29.4444 4.05275C29.4511 4.06735 29.4543 4.08331 29.4539 4.09938L29.5229 4.04969H29.5771V4.09938C29.2061 4.48203 28.7886 4.81593 28.3345 5.09317L28.3986 5.21242H28.3443L28.2063 5.16273C28.2063 5.20249 28.152 5.2323 28.0386 5.24224V5.29193L28.1717 5.46087C28.1053 5.45918 28.0399 5.44396 27.9794 5.41615C27.7575 5.4474 27.5543 5.55861 27.4074 5.72919L27.4863 5.38634C27.7396 4.32194 27.9306 3.24348 28.0583 2.15652L28.0435 2.06211C27.8396 1.92591 27.6582 1.75823 27.506 1.56522C27.5114 1.48415 27.5114 1.40281 27.506 1.32174V1.27205H27.4518C26.8436 2.18965 25.6749 3.75487 23.9457 5.9677C22.6307 7.5412 21.9502 8.41574 21.9042 8.5913C21.3667 9.1528 21.1103 9.49068 21.1349 9.58509C20.9919 9.6795 20.9327 9.76895 20.9574 9.87329C20.9493 9.87634 20.9407 9.87757 20.9321 9.87691C20.9235 9.87624 20.9151 9.87369 20.9076 9.86943C20.9001 9.86517 20.8936 9.8593 20.8886 9.85225C20.8835 9.84519 20.8801 9.83711 20.8785 9.82857C20.7659 10.0133 20.6167 10.1727 20.4403 10.2967C20.2638 10.4206 20.0638 10.5066 19.8528 10.5491L19.3597 10.6584C19.3442 10.6607 19.3293 10.6663 19.316 10.6747C19.3028 10.6831 19.2914 10.6942 19.2826 10.7072C19.2738 10.7203 19.2677 10.7351 19.2649 10.7506C19.262 10.7662 19.2624 10.7821 19.266 10.7975V10.8571L19.4435 10.8174V10.8671L19.0392 11.0261L18.3241 11.195H17.9494C17.8951 11.2497 18.2502 11.195 18.1121 11.2248L17.619 11.3342C17.333 11.3988 17.1801 11.3739 17.1258 11.2596H17.0716C17.0805 11.2989 17.0805 11.3396 17.0716 11.3789L17.042 11.2646L16.6672 11.354C16.6903 11.2182 16.2086 10.6054 15.2224 9.51553C15.2224 9.30186 15.5528 8.99379 16.2678 8.5913L18.2798 6.80745C18.7301 6.22443 18.9981 5.28861 19.0835 4L19.0539 3.6969C18.975 2.78758 18.3241 2.05714 17.0815 1.49068C16.3566 0.993789 15.0498 0.730436 13.1661 0.690685C11.0643 0.967967 9.00919 1.52955 7.05634 2.36025C6.30072 2.90388 5.51362 3.40166 4.69922 3.85093V4.00994C4.78378 3.99541 4.8644 3.96325 4.93592 3.91553C4.95562 3.9102 4.97627 3.9095 4.99628 3.91349C5.01628 3.91748 5.03511 3.92605 5.05132 3.93853C5.06752 3.95101 5.08066 3.96708 5.08972 3.9855C5.09878 4.00391 5.10352 4.02417 5.10358 4.04472L5.26138 3.95528H5.36V4.04969C4.86146 4.54195 4.30889 4.97538 3.71298 5.34161L3.80174 5.48075H3.73271L3.56504 5.42112C3.56504 5.46584 3.49108 5.50062 3.32835 5.51553V5.6L3.5108 5.80373C3.42624 5.80298 3.34258 5.78612 3.26424 5.75404C3.04462 5.80081 2.83757 5.8947 2.65717 6.02932C2.47678 6.16393 2.32728 6.33612 2.21883 6.53416L2.30759 6.67329C2.45945 6.50649 2.63572 6.36406 2.8303 6.25093V6.4795C2.74666 6.49724 2.66662 6.52916 2.5936 6.57391L2.78098 6.86211C3.13773 6.4818 3.54028 6.14795 3.97927 5.86832C4.19624 5.92298 4.30966 5.99255 4.31459 6.06708H4.48225C5.54899 5.24596 6.73709 4.59873 8.00313 4.14907V4.30808C7.78615 4.63934 7.63986 4.80497 7.56425 4.80497C7.56954 4.91249 7.60934 5.01538 7.67767 5.09814C7.69739 5.2969 7.16975 6.63851 6.09475 9.12298C3.68832 14.8505 1.65667 19.0957 -0.000213623 21.8584C0.015134 21.9396 0.048886 22.0161 0.0984104 22.082C0.373883 22.0366 0.637299 21.9351 0.872609 21.7839H0.961371V21.9429H1.11424L1.27204 21.8534C1.27204 21.8981 1.32628 21.923 1.43477 21.913V22.072C1.41439 22.3263 1.32575 22.5702 1.17834 22.7776C0.942929 23.1276 0.769418 23.5159 0.665499 23.9255V24H0.818366C1.41894 23.3429 1.92671 22.6056 2.32731 21.8087C3.85788 21.3973 5.34444 20.8347 6.7654 20.1292C7.60823 20.1055 8.42376 19.8229 9.10279 19.3193V19.2348L8.71815 19.3491H8.62939V19.2646C9.18224 19.2265 9.71811 19.0562 10.1926 18.7677C11.6588 17.6282 12.7667 16.8215 13.5162 16.3478C15.0547 15.2083 16.0541 14.0986 16.5144 13.0186L16.7708 12.959C16.894 12.9659 17.0175 12.9659 17.1406 12.959C17.1406 12.9193 17.1406 12.8944 17.19 12.8845C17.5351 12.8497 17.3675 12.8845 17.5894 12.8547L18.1663 12.7205H18.265L18.2206 12.7503C18.2906 12.7639 18.3626 12.7639 18.4326 12.7503L18.4721 12.9193L15.8388 17.1379L15.2224 17.8186L14.9364 18.7826H14.9906L15.2766 18.6634L15.183 19.036L15.2125 19.1453L15.2914 19.2447C15.2569 19.2447 15.2421 19.2795 15.252 19.3193V19.3789L15.3703 19.3491C15.5446 19.1967 15.6185 19.0576 15.5922 18.9317C15.7145 18.9634 15.8413 18.9735 15.967 18.9615V19.0211C15.8536 19.0509 15.7944 19.1404 15.7846 19.2994V19.359H15.8487C16.8053 18.3056 19.1476 14.713 21.0264 12.2683C20.9673 12.0033 21.9535 11.6356 23.9852 11.1652H24.0493C24.1216 11.4965 23.9572 12.27 23.5561 13.4857C23.3991 13.8769 23.2818 14.2831 23.206 14.6981C23.0076 15.2167 22.8558 15.7522 22.7524 16.2981L22.0768 18.6286C21.6069 19.8618 21.2504 21.1359 21.0116 22.4348C21.0767 22.4214 21.1438 22.4214 21.2089 22.4348L21.3124 22.3453C21.314 22.3539 21.3175 22.362 21.3225 22.369C21.3275 22.3761 21.334 22.3819 21.3416 22.3862C21.3491 22.3905 21.3574 22.393 21.366 22.3937C21.3746 22.3943 21.3833 22.3931 21.3913 22.3901L21.3519 22.2211H21.6626C21.7562 22.2211 21.8302 22.082 21.8993 21.8683C21.8993 21.5503 21.9486 21.3714 22.0916 21.3416C22.1643 20.9446 22.2835 20.5576 22.4466 20.1888C22.5224 19.7423 22.6567 19.3078 22.846 18.8969C23.1173 17.9031 23.3392 17.4062 23.4427 17.3764L23.4723 17.4957L23.2751 17.9925C23.0184 19.2347 22.6689 20.4556 22.2296 21.6447L22.3332 22.087H22.3973C23.252 20.2352 24.4816 16.5681 26.0858 11.0857C26.1092 10.8666 26.1822 10.6558 26.2994 10.4697C26.4165 10.2835 26.5746 10.1271 26.7614 10.0124L26.6677 9.91304V9.86335C26.818 9.83996 26.9547 9.76224 27.0524 9.64472C27.0524 9.60497 26.8847 9.54037 26.5592 9.46087L27.3581 5.98261C27.4464 5.88682 27.5497 5.80625 27.6638 5.7441V5.91801C27.5994 5.93049 27.5387 5.95768 27.4863 5.99752L27.6392 6.21615C27.9073 5.92767 28.2086 5.67245 28.5366 5.4559C28.7043 5.50062 28.7832 5.56025 28.7931 5.61491H28.9114C29.7234 4.99475 30.627 4.50683 31.5891 4.16895V4.28323C31.428 4.52837 31.3178 4.65259 31.2587 4.6559C31.2652 4.73533 31.2905 4.81203 31.3326 4.8795C31.016 5.92936 30.6187 6.95275 30.1442 7.94037C28.8028 11.2765 27.2478 14.5215 25.4892 17.6547C25.5044 17.7165 25.533 17.7742 25.573 17.8236C25.7809 17.79 25.9793 17.7121 26.1549 17.595H26.2091V17.7093H26.3373L26.4508 17.6497C26.4508 17.6828 26.4918 17.6961 26.574 17.6894V17.8137C26.5569 18.004 26.4887 18.1861 26.3768 18.3404C26.1812 18.6122 26.039 18.9191 25.9576 19.2447V19.3043H26.076C26.5321 18.8056 26.9171 18.2454 27.22 17.6398C28.3759 17.326 29.4989 16.8999 30.5732 16.3677C31.2168 16.3509 31.8397 16.1359 32.3583 15.7516V15.6919L32.0575 15.7814H31.9934V15.7217C32.4125 15.6908 32.8182 15.5596 33.1769 15.3391C34.2864 14.4795 35.1494 13.8484 35.7017 13.5006C37.4769 12.1988 38.3004 10.9516 38.2018 9.74907L38.2511 9.72422ZM37.9454 9.80373L37.9848 10.2708C37.9306 10.3851 37.8714 10.4447 37.8172 10.4497L37.7481 9.65466C37.8763 9.69938 37.9405 9.74907 37.9454 9.80373V9.80373ZM3.15082 6.03727H3.07193V5.89317L3.38752 5.86832V5.94286C3.30464 5.95791 3.22573 5.99005 3.15576 6.03727H3.15082ZM1.60243 21.6398C1.44979 21.5625 1.27987 21.5266 1.10931 21.5354V21.3068C1.10931 21.2174 1.14876 21.1578 1.26217 21.1379C1.37559 21.118 1.4249 21.2025 1.42983 21.3516C1.5595 21.1717 1.70651 21.0053 1.86871 20.8547L2.03637 20.9242C1.98213 21.3863 1.83912 21.6248 1.61229 21.6398H1.60243ZM18.1466 4.19876C18.0677 4.19876 17.9099 3.96025 17.688 3.47826V3.33416C17.8359 3.33416 17.9888 3.56273 18.1466 4.05466V4.19876ZM17.9247 2.46957L17.8606 2.6236L15.612 1.6795C17.1111 1.72919 17.882 1.99255 17.9247 2.46957V2.46957ZM8.442 10.6832L8.12641 10.713V10.5689L8.442 10.5391V10.6832ZM8.18558 5.75404H8.26448V5.98261C8.19051 5.98261 8.09682 6.09689 7.97354 6.31056V6.15155C8.11654 5.98261 8.19051 5.84845 8.18065 5.75901L8.18558 5.75404ZM7.51987 7.33913L7.54946 7.64224H7.47056L7.44097 7.33913H7.51987ZM7.16975 7.90559H7.32262C7.32262 8.15404 7.23879 8.2882 7.11551 8.29814H7.03661C7.11618 8.18594 7.16236 8.05322 7.16975 7.91553V7.90559ZM6.9084 8.69068H6.99716V8.76522L6.85416 9.00373H6.70129V8.92919C6.7322 8.93158 6.76323 8.92659 6.79186 8.91463C6.8205 8.90267 6.84593 8.88408 6.86611 8.86037C6.88628 8.83665 6.90062 8.80848 6.90797 8.77813C6.91532 8.74779 6.91546 8.71613 6.9084 8.68572V8.69068ZM6.65198 9.40124L6.6076 9.77888H6.5287L6.49418 9.40621H6.65198V9.40124ZM4.06803 16.7801C3.96447 17.277 3.85599 17.5602 3.74257 17.5702V17.4957C3.73436 17.3581 3.76026 17.2207 3.81795 17.0958C3.87563 16.9709 3.96327 16.8624 4.07296 16.7801H4.06803ZM3.57491 17.8137V17.8882C3.58048 17.9089 3.58105 17.9306 3.57657 17.9516C3.5721 17.9725 3.56271 17.9921 3.54919 18.0086C3.53567 18.0252 3.51841 18.0382 3.49886 18.0466C3.47932 18.0551 3.45805 18.0587 3.43683 18.0571V17.9627C3.43683 17.8733 3.48286 17.817 3.57491 17.7938V17.8137ZM3.46149 19.9503H3.69819V20.0348C3.61363 20.0493 3.53301 20.0815 3.46149 20.1292H3.30862C3.30862 20.0497 3.34807 19.9901 3.4467 19.9602L3.46149 19.9503ZM10.2616 17.8335C9.42633 18.1983 8.6327 18.6531 7.89464 19.1901C6.44158 19.6969 5.72162 20.0149 5.73477 20.1441C4.86373 20.4693 4.01245 20.846 3.18534 21.2721C3.03897 21.2698 2.89525 21.2324 2.76619 21.1627C2.75697 21.0326 2.78507 20.9025 2.84714 20.788C2.90921 20.6734 3.00264 20.5793 3.11631 20.5168C3.33686 20.4979 3.55864 20.5337 3.76229 20.6211C4.16277 20.4402 4.58091 20.302 5.00989 20.2087V20.0497L4.51677 20.0894C4.95231 19.8234 5.41739 19.6099 5.90243 19.4534H6.13913V19.528C5.72984 19.5627 5.50301 19.687 5.4537 19.9006C5.4537 20 5.5178 20.0398 5.62136 20.0298C5.92709 19.836 6.07996 19.7217 6.07503 19.687C6.65691 19.5743 8.26941 18.7246 10.9125 17.1379V17.282C10.9125 17.3516 10.6906 17.5453 10.237 17.8783L10.2616 17.8335ZM6.20817 19.1752C6.58121 19.145 6.93116 18.9811 7.19441 18.713C7.3029 18.713 7.36207 18.7478 7.367 18.8422C6.9818 18.9453 6.61668 19.1133 6.28707 19.3391H6.20817V19.1851V19.1752ZM12.7568 14.1217L10.7301 15.7416C9.95418 16.2961 9.14012 16.7942 8.29407 17.2323C5.89422 18.5573 4.40335 19.248 3.82147 19.3043H3.73271C3.80503 19.0327 4.87346 16.8282 6.93799 12.6907C8.41829 12.4506 9.86182 12.0198 11.2331 11.4087L11.7262 11.3689C12.1143 11.2991 12.5128 11.314 12.8948 11.4125C13.2767 11.5111 13.6333 11.6911 13.9403 11.9404L13.9699 12.2435C13.605 13.3019 13.2006 13.923 12.7667 14.1068L12.7568 14.1217ZM8.81184 11.8758L9.1373 11.846V11.9205L8.81184 11.9503V11.8758ZM13.3929 11.0957H13.6296C13.8515 11.2 13.9649 11.2944 13.9748 11.3789V11.4534C13.8566 11.455 13.74 11.425 13.6369 11.3666C13.5339 11.3081 13.448 11.2232 13.388 11.1205L13.3929 11.0957ZM14.0389 7.37888C13.4996 7.8797 12.9038 8.31498 12.2637 8.67578C11.953 8.70559 10.7843 9.17267 8.77733 10.0472C8.67825 10.0098 8.57147 9.9978 8.46666 10.0124V9.86832C8.47757 9.46838 8.61395 9.0822 8.85623 8.76522C9.01402 7.93044 9.18168 7.45342 9.34935 7.33913L11.026 3.53789C11.0062 3.30269 11.3646 3.12215 12.101 2.99627H12.3377V3.21491C13.0576 3.10559 13.5113 3.04099 13.6839 3.02609C15.0153 2.9118 15.7106 3.18509 15.7648 3.83603H15.9177L15.8832 3.45342H16.0508C16.2089 3.51183 16.3506 3.60783 16.4639 3.73328C16.5773 3.85872 16.6589 4.00988 16.7018 4.17391C16.6863 4.46993 16.5655 4.75043 16.3615 4.96398C16.258 4.96398 16.1988 4.89938 16.1939 4.75031H16.0262L15.9917 5.21242C15.3177 6.2294 14.8246 6.7528 14.5123 6.78261C14.2362 7.16522 14.0685 7.35901 14.0192 7.35901L14.0389 7.37888ZM15.0695 10.0422C14.9751 9.96617 14.8598 9.92109 14.7391 9.91304V9.68447H14.892L15.2273 9.88323C15.2329 9.90391 15.2335 9.92564 15.229 9.94659C15.2245 9.96754 15.2151 9.98711 15.2016 10.0036C15.1881 10.0202 15.1708 10.0332 15.1513 10.0417C15.1317 10.0501 15.1105 10.0537 15.0893 10.0522L15.0695 10.0422ZM16.1347 11.3143C16.2826 11.3739 16.3714 11.4385 16.3862 11.4981H16.2678L16.1593 11.5876L16.1297 11.2795L16.1347 11.3143ZM16.2086 11.9503V11.8907L16.401 11.846V11.9056L16.2086 11.9503ZM16.6722 12.4969C16.8694 12.4621 16.9681 12.4522 17.333 12.3677V12.4273L16.6327 12.5913C16.6343 12.5599 16.6343 12.5283 16.6327 12.4969H16.6722ZM17.3527 12.7901C17.1162 12.7951 16.8811 12.8285 16.6525 12.8894V12.8298L17.2393 12.641L17.5203 12.5764L17.5499 12.6857C17.4217 12.7155 17.5154 12.7155 17.3675 12.7901H17.3527ZM17.974 12.641C17.9575 12.6455 17.9403 12.6465 17.9233 12.6442C17.9064 12.6418 17.8901 12.6361 17.8754 12.6273C17.8607 12.6185 17.8479 12.6068 17.8377 12.593C17.8275 12.5791 17.8202 12.5633 17.8162 12.5466L17.9937 12.5068C18.0096 12.5005 18.0267 12.4981 18.0437 12.4997C18.0607 12.5014 18.0771 12.507 18.0915 12.5162C18.1059 12.5254 18.1179 12.5379 18.1267 12.5527C18.1354 12.5675 18.1405 12.5841 18.1417 12.6012L17.974 12.641V12.641ZM19.6605 10.7925V10.7329L19.9514 10.6634L19.981 10.7727H19.6753L19.6605 10.7925ZM21.4554 21.8932C21.4678 21.8325 21.4678 21.77 21.4554 21.7093H21.5196C21.5344 21.703 21.5505 21.7003 21.5665 21.7014C21.5826 21.7025 21.5981 21.7073 21.612 21.7155C21.6259 21.7237 21.6377 21.735 21.6465 21.7486C21.6552 21.7622 21.6607 21.7777 21.6626 21.7938V21.8534L21.4259 21.9081L21.4554 21.8932ZM22.7129 11.2696H22.5847C22.4151 11.3408 22.2403 11.3989 22.062 11.4435L21.9436 11.4733C21.9281 11.4786 21.9117 11.4806 21.8953 11.4791C21.879 11.4777 21.8632 11.4728 21.8488 11.4649C21.8344 11.457 21.8218 11.4461 21.8118 11.433C21.8019 11.4199 21.7947 11.4049 21.7908 11.3888L22.6192 11.1752L22.8954 11.046L22.989 11.1503C22.8852 11.1649 22.7868 11.2059 22.703 11.2696H22.7129ZM23.3589 11.0609V11.0012C23.42 10.9817 23.4746 10.9456 23.5167 10.8969L24.0986 10.7627V10.8224C23.8408 10.88 23.5884 10.9598 23.3441 11.0609H23.3589ZM23.4526 9.84348C23.3903 9.86654 23.3333 9.90203 23.2849 9.94783C23.2849 9.90807 23.1912 9.90807 23.0384 9.94783C23.0088 9.83354 23.4526 9.66957 24.3649 9.45093L24.4931 9.42112L24.5227 9.53043C23.8816 9.71925 23.5364 9.82857 23.4526 9.83851V9.84348ZM25.0602 8.09441C24.996 8.82981 24.7396 9.2472 24.286 9.35155V9.29193L23.8816 9.45093L23.7041 9.49068C23.6235 9.51388 23.5381 9.51388 23.4575 9.49068L23.423 9.32671C23.9579 8.47794 24.5442 7.66315 25.1785 6.88696H25.3166C25.3343 7.29629 25.2531 7.70384 25.0799 8.07453L25.0602 8.09441ZM27.9055 5.63975H27.8463V5.52547H28.083V5.58509C28.021 5.60241 27.9613 5.62745 27.9055 5.65963V5.63975ZM26.7318 17.4957C26.618 17.4354 26.4905 17.4062 26.362 17.4112V17.2373C26.362 17.1776 26.3982 17.1362 26.4705 17.113C26.5494 17.113 26.5938 17.1578 26.6036 17.282C26.6975 17.141 26.8085 17.0125 26.934 16.8994L27.0573 16.9689C27.0129 17.3217 26.9044 17.5056 26.7417 17.5205L26.7318 17.4957ZM39.2916 4.25838C39.2324 4.25838 39.119 4.0795 38.9366 3.70186V3.58758C39.05 3.58758 39.1733 3.75652 39.2916 4.12919V4.25838V4.25838ZM39.1239 2.93665L39.0697 3.0559L37.3684 2.34037C38.5026 2.37516 39.0894 2.57888 39.1239 2.93665V2.93665ZM31.9195 9.1677H31.6828V9.05342H31.9195V9.1677ZM31.7222 5.42112H31.7863V5.59503C31.7271 5.59503 31.6532 5.67785 31.5644 5.84348V5.72919C31.6476 5.64622 31.7013 5.53794 31.7173 5.42112H31.7222ZM31.2291 6.6236V6.85217H31.165V6.6236H31.2291ZM30.9579 7.0559H31.0762C31.0762 7.25135 31.0253 7.35238 30.9234 7.35901H30.8543C30.9126 7.26825 30.9466 7.16382 30.9529 7.0559H30.9579ZM30.7656 7.64721H30.8198V7.70683L30.7162 7.89068H30.5979V7.83106C30.7212 7.83106 30.7754 7.75652 30.7656 7.64224V7.64721ZM30.5732 8.18385L30.5338 8.48199H30.4795V8.18882H30.5979L30.5732 8.18385ZM28.6008 13.7988C28.5219 14.1863 28.4397 14.3851 28.3542 14.395V14.3453C28.3501 14.2407 28.3708 14.1365 28.4145 14.0415C28.4583 13.9465 28.5238 13.8633 28.6057 13.7988H28.6008ZM28.2408 14.5838V14.6335C28.2457 14.6499 28.2465 14.6672 28.2433 14.684C28.24 14.7008 28.2327 14.7164 28.2219 14.7297C28.2112 14.7429 28.1975 14.7533 28.1818 14.76C28.1662 14.7666 28.1492 14.7692 28.1323 14.7677V14.7081C28.1323 14.6484 28.1685 14.607 28.2408 14.5838V14.5838ZM28.1372 16.2137H28.3197V16.2733C28.2568 16.2854 28.1967 16.309 28.1422 16.3429H28.0238C28.0238 16.2766 28.06 16.2352 28.1323 16.2186L28.1372 16.2137ZM33.2953 14.6087C32.664 14.8907 32.0612 15.2335 31.4954 15.6323C30.3908 16.0199 29.8483 16.2634 29.8533 16.3578C29.1957 16.6034 28.5535 16.8888 27.9301 17.2124C27.8195 17.2076 27.7114 17.177 27.6145 17.123C27.6036 17.0227 27.6232 16.9215 27.6708 16.8327C27.7184 16.744 27.7916 16.6719 27.8808 16.6261C28.0487 16.6101 28.218 16.6357 28.3739 16.7006C28.6809 16.5682 28.9995 16.465 29.3256 16.3925V16.2783L28.9558 16.313C29.2868 16.106 29.6411 15.9392 30.0111 15.8161H30.1935V15.8658C29.8829 15.8957 29.7004 15.9851 29.6708 16.154C29.6704 16.1701 29.6736 16.1861 29.6803 16.2007C29.6869 16.2153 29.6969 16.2281 29.7093 16.2382C29.7217 16.2483 29.7362 16.2554 29.7518 16.2589C29.7674 16.2624 29.7835 16.2622 29.799 16.2584C30.0308 16.1043 30.1393 16.0199 30.1393 15.9901C30.5798 15.9106 31.8028 15.2646 33.8081 14.0522V14.1665C33.8081 14.2112 33.6404 14.3602 33.315 14.6137L33.2953 14.6087ZM30.2182 15.6025C30.5092 15.5915 30.787 15.4771 31.0023 15.2795C31.0811 15.2795 31.1255 15.3093 31.1305 15.3838C30.8413 15.4586 30.5652 15.5776 30.3119 15.7366H30.2478V15.6273L30.2182 15.6025ZM35.1888 11.7565L33.6602 12.9988C33.069 13.425 32.4477 13.807 31.8011 14.1416C29.9831 15.1354 28.8506 15.6588 28.4035 15.7118H28.3394C28.3953 15.5031 29.2089 13.8302 30.7803 10.6932C31.9043 10.5025 32.9996 10.1685 34.0399 9.69938L34.4097 9.6646C34.7043 9.61191 35.0067 9.62416 35.2961 9.7005C35.5856 9.77685 35.8551 9.91547 36.0863 10.1068V10.3354C35.8052 11.1304 35.5044 11.5975 35.174 11.7416L35.1888 11.7565ZM32.1857 10.077H32.4224V10.1366H32.1857V10.077ZM35.6622 9.48075H35.8447C36.0124 9.56522 36.1011 9.63975 36.106 9.69938V9.74907C36.0153 9.75253 35.9255 9.73071 35.8463 9.68599C35.7671 9.64128 35.7017 9.57541 35.6573 9.49565L35.6622 9.48075ZM36.1554 6.66335C35.7581 7.04507 35.3179 7.3786 34.8437 7.65714C33.9348 7.92916 33.0492 8.2748 32.1956 8.69068C32.1182 8.66271 32.036 8.65088 31.954 8.6559V8.54162C31.9613 8.23791 32.0631 7.94419 32.2449 7.70186C32.3633 7.06087 32.4964 6.70808 32.6345 6.6236L33.9166 3.73665C33.9166 3.5677 34.173 3.42857 34.7253 3.31925H34.9078V3.49317C35.4502 3.40373 35.7904 3.35238 35.9285 3.33913C36.9148 3.24969 37.4671 3.45342 37.5114 3.95528H37.6298V3.67702H37.7481C37.8741 3.72269 37.9859 3.80088 38.0725 3.90378C38.159 4.00668 38.2172 4.13067 38.2413 4.26335C38.2336 4.48769 38.1481 4.70222 37.9996 4.86957C37.9207 4.86957 37.8763 4.82485 37.8665 4.70062H37.7481L37.7136 5.04845C37.2205 5.82857 36.8309 6.23603 36.5992 6.25093C36.3921 6.53416 36.2638 6.67826 36.2047 6.68323L36.1554 6.66335ZM36.6929 8.5913V8.41739H36.8112L37.0676 8.5764C37.0698 8.59195 37.0685 8.60779 37.064 8.62282C37.0595 8.63786 37.0519 8.65174 37.0416 8.66353C37.0313 8.67531 37.0186 8.68473 37.0044 8.69113C36.9902 8.69753 36.9747 8.70077 36.9591 8.70062C36.8861 8.64455 36.799 8.61013 36.7077 8.60124L36.6929 8.5913ZM15.2964 19.8311L15.178 19.8609L15.0745 19.9503C15.0763 19.9664 15.0818 19.9819 15.0906 19.9955C15.0993 20.0091 15.1111 20.0204 15.125 20.0286C15.1389 20.0368 15.1545 20.0416 15.1705 20.0427C15.1866 20.0438 15.2026 20.0411 15.2175 20.0348C15.2964 20.0348 15.326 19.9702 15.3112 19.8957V19.836L15.2964 19.8311ZM14.8427 18.9168V18.9764C14.9216 18.9764 14.9512 18.9118 14.9364 18.8373V18.7776C14.9205 18.7792 14.9052 18.7843 14.8915 18.7925C14.8778 18.8006 14.8661 18.8118 14.8572 18.8251C14.8482 18.8383 14.8423 18.8534 14.8398 18.8693C14.8373 18.8851 14.8383 18.9014 14.8427 18.9168V18.9168ZM18.0973 12.7602L18.1861 12.7056H18.1417C18.1281 12.7091 18.1164 12.7178 18.109 12.7299C18.1017 12.7419 18.0992 12.7564 18.1022 12.7702L18.0973 12.7602ZM18.0973 11.1652L18.2354 11.1304L18.1811 11.0062L18.0431 11.041L18.0726 11.1602L18.0973 11.1652ZM50.5693 15.841L50.2586 15.8062L50.2044 15.9255V15.9752L52.0634 15.8161V15.7019L50.5841 15.8311L50.5693 15.841ZM52.2705 15.6969V15.8112V15.6969ZM60.0766 14.6683V14.7826L60.2788 14.8174V14.7031L60.0766 14.6683ZM59.7906 14.6683C59.183 14.8388 58.5571 14.9339 57.9266 14.9516V15.0658H58.1239L58.2767 15.0062C59.6575 14.8522 59.8202 14.9068 59.8054 14.7528V14.6981L59.7906 14.6683ZM51.4076 12.6211L51.2843 12.5814C51.2147 12.7402 51.165 12.9071 51.1363 13.0783V13.1279C51.235 13.1279 51.3188 12.959 51.4026 12.6311L51.4076 12.6211ZM49.726 11.7068V11.6472H49.6619L49.5485 11.7217L49.6126 11.8311C49.7014 11.8311 49.7408 11.7814 49.731 11.7019L49.726 11.7068ZM53.38 15.513V15.3988H53.3455V15.513H53.38ZM60.9593 13.7888H61.0481C61.0974 13.7888 61.122 13.7441 61.1171 13.6696L61.0678 13.5602C60.8162 13.5588 60.5684 13.6221 60.3478 13.7441V13.6845L59.9681 13.7193C59.9681 13.605 59.9287 13.5453 59.8744 13.5503H59.6772C59.4454 13.5503 59.3369 13.5503 59.2235 13.6497C59.2235 13.6099 59.2235 13.5901 59.1841 13.5901H58.9622L58.834 13.6646C58.834 13.6248 58.834 13.605 58.7945 13.605L58.7156 13.6745V13.6149H58.3359V13.7292L58.4937 13.7689H58.6416C58.6922 13.7988 58.7511 13.811 58.8093 13.8037L58.9375 13.7391V13.7888C58.5387 13.8934 58.1334 13.9714 57.7244 14.0224C57.6897 13.9929 57.6465 13.9755 57.6012 13.9727C57.5882 13.972 57.5755 13.9688 57.5638 13.9632C57.552 13.9576 57.5415 13.9498 57.5328 13.9401C57.5241 13.9304 57.5174 13.9191 57.513 13.9067C57.5087 13.8944 57.5068 13.8814 57.5075 13.8683L57.7639 13.8335C57.8205 13.8517 57.8782 13.8667 57.9365 13.8783C58.1436 13.7739 58.1534 13.7342 58.2619 13.7242V13.6099C57.8292 13.6901 57.3902 13.7317 56.9502 13.7342H56.9108V13.6199C58.0499 13.4807 57.6702 13.5602 58.0598 13.4509C58.0598 13.4907 58.0598 13.5106 58.0992 13.5106C58.1413 13.4668 58.197 13.4387 58.257 13.4311H58.3359C58.7629 13.4504 59.1904 13.4035 59.6032 13.2919V13.3416L59.7314 13.277H59.8498C59.8498 13.1627 60.0174 13.1429 60.0766 13.1379V13.0137C58.6909 13.2969 58.326 13.2174 57.9414 13.3267V13.277C57.7799 13.3147 57.6137 13.3281 57.4483 13.3168C57.4042 13.3302 57.3649 13.3561 57.3349 13.3913C57.3349 13.3516 57.3349 13.3317 57.2905 13.3317L56.1119 13.5255C56.1119 13.4907 56.1119 13.4758 56.0676 13.4807C55.6561 13.6022 55.2329 13.6788 54.8052 13.7093C54.7502 13.7194 54.698 13.7414 54.6523 13.7739C54.6523 13.7391 54.6523 13.7242 54.5882 13.7292L54.0951 13.7689L53.7597 13.8534C53.7597 13.8186 53.7597 13.8037 53.6956 13.8087C53.5346 13.8557 53.3695 13.8873 53.2025 13.9031C53.1187 13.9031 53.242 13.9031 53.2025 13.8534L53.099 13.913H52.5269C51.6393 14.0224 51.738 14.0373 51.6393 14.0422H51.3089C51.3106 14.0493 51.3105 14.0567 51.3087 14.0638C51.3069 14.0708 51.3035 14.0773 51.2986 14.0827C51.2938 14.0881 51.2877 14.0922 51.2809 14.0947C51.2741 14.0971 51.2668 14.0979 51.2596 14.0969C50.8849 14.0472 50.6876 13.9876 50.6876 13.918C50.7369 13.5569 50.824 13.3714 50.949 13.3615H51.0131L50.9588 13.4807H51.0229C51.1413 13.4162 51.1955 13.3565 51.1906 13.3019V13.1776H51.0722V13.0634C51.0612 12.9838 51.0732 12.9027 51.1068 12.8298L51.378 12.3876V12.5019H51.5062V12.3876L51.4322 12.2832C51.4957 12.2179 51.5759 12.1714 51.664 12.1491V12.0894H51.4914V11.9155C51.7135 11.5148 51.8795 11.0851 51.9845 10.6385L52.1078 10.6882C52.1867 10.6882 52.2212 10.6385 52.2163 10.554H52.0979V10.5043C52.0894 10.4206 52.1048 10.3361 52.1423 10.2609C52.2266 10.185 52.2933 10.0914 52.3376 9.98659C52.382 9.88181 52.4028 9.76848 52.3987 9.65466C52.4333 9.65466 52.453 9.65466 52.4579 9.70932C52.6206 9.61491 52.7439 9.37143 52.8327 8.96398C53.3119 7.95948 53.719 6.92162 54.0507 5.85839C55.0616 3.11553 55.0369 2.82733 55.1602 2.1764H55.0419C55.0508 2.25858 55.0354 2.34159 54.9975 2.41491C54.937 2.38709 54.8716 2.37188 54.8052 2.37019V2.3205C54.8101 2.01167 54.9158 1.71306 55.106 1.47081H55.1602L55.2638 1.86832H55.3821C55.4018 1.7007 55.4331 1.53466 55.4758 1.37143C55.4758 1.3118 55.4265 1.27205 55.3328 1.26708L55.2194 1.34162V0.695653H55.1602C55.0806 0.631669 55.025 0.542304 55.0024 0.442238L54.3466 0.506833C54.3343 0.434994 54.3092 0.365981 54.2726 0.303106C54.2726 0.243479 54.4156 0.183851 54.7164 0.124224L54.8495 0.173914L54.9728 0.0993793C54.9728 0.139131 55.0024 0.159007 55.0468 0.154038L55.1701 0.079503C55.1701 0.119255 55.1997 0.139131 55.244 0.134162H55.3032V0H54.5833L54.46 0.084473V0.00993812C51.3763 0.265011 49.6258 0.412422 49.2082 0.452174H48.5573C48.5573 0.501863 48.5179 0.531677 48.4242 0.541615L48.291 0.481988L47.7683 0.571429C47.5912 0.587401 47.4129 0.587401 47.2358 0.571429C47.1637 0.629248 47.0761 0.663877 46.9843 0.670809L48.291 0.571429C48.1962 0.636257 48.085 0.672458 47.9705 0.675777C47.8809 0.688048 47.7897 0.672445 47.7092 0.631056C47.386 0.7313 47.0565 0.809327 46.7229 0.864597L46.5898 0.814908L44.4398 1.14783C44.3488 1.10594 44.2481 1.09045 44.1488 1.10311C43.9551 1.12867 43.7638 1.17022 43.5768 1.22733L42.5363 1.6646L42.6152 1.79379C42.6908 1.78013 42.7629 1.75141 42.8273 1.70932L43.1971 1.7441L43.1527 2.09193C43.0067 2.14424 42.8761 2.23259 42.7727 2.3489C42.6693 2.46522 42.5965 2.60579 42.561 2.75777C42.0679 2.98634 41.7967 3.14534 41.7967 3.25466V3.31429H41.8756L42.0136 3.23975L42.1764 3.43354V3.70186C42.1764 3.78468 41.32 5.60663 39.6072 9.1677C38.1278 12.5963 37.3388 14.4696 37.2649 14.8075C36.7718 14.9516 36.4611 15.1602 36.3723 15.4385C36.3723 15.5279 36.5351 15.5876 36.826 15.6075V15.7416L36.6929 15.9652V16.2335C36.6929 16.3727 37.0643 16.4787 37.8073 16.5516C37.8073 16.5068 37.8073 16.477 37.8763 16.472C37.8713 16.8078 37.825 17.1416 37.7383 17.4658H37.9059C38.1288 17.2267 38.2793 16.9285 38.3399 16.6062H38.3991C38.473 16.6062 38.5519 16.6857 38.6407 16.8646C38.5486 16.901 38.2199 17.6381 37.6544 19.0758L37.7333 19.205H37.8122C38.4862 17.4824 38.9103 16.53 39.0845 16.3478C39.9721 16.2683 41.5057 16.1027 43.6853 15.8509L43.8234 15.7665C43.8229 15.7769 43.8249 15.7873 43.8293 15.7968C43.8336 15.8063 43.8402 15.8146 43.8485 15.8209C43.8567 15.8273 43.8664 15.8315 43.8766 15.8333C43.8868 15.8351 43.8973 15.8343 43.9072 15.8311H44.0502L44.1883 15.7466C44.1878 15.757 44.1898 15.7674 44.1942 15.7769C44.1985 15.7864 44.2051 15.7947 44.2134 15.8011C44.2216 15.8074 44.2313 15.8117 44.2415 15.8134C44.2517 15.8152 44.2622 15.8144 44.2721 15.8112L45.9241 15.6671C46.3629 15.6323 46.5651 15.4981 46.5503 15.2696C46.5503 15.2099 46.8018 15.1404 47.3245 15.0658C47.4019 15.065 47.4788 15.0784 47.5514 15.1056C47.5514 15.0658 47.8078 15.0211 48.3305 14.9764C48.3305 14.6981 48.4291 14.5491 48.5869 14.5342V14.4C48.4189 14.4196 48.2535 14.4579 48.0938 14.5143C47.873 14.5115 47.6531 14.4848 47.4379 14.4348C47.3732 14.4762 47.3013 14.5049 47.2259 14.5193L46.0473 14.4845L45.9093 14.559C45.9093 14.5159 45.8813 14.4977 45.8254 14.5043H45.7613L45.6134 14.5789C45.6134 14.5391 45.4901 14.5043 45.2485 14.4745L45.1006 14.564H44.8145V14.4894C46.2939 14.3271 47.0237 14.1251 47.004 13.8832C47.0235 13.8785 47.0439 13.8785 47.0635 13.8832C47.083 13.8878 47.1012 13.8971 47.1165 13.9101C47.1319 13.9232 47.144 13.9397 47.1519 13.9583C47.1597 13.977 47.1631 13.9972 47.1618 14.0174L47.5957 13.9081V13.7739L44.0551 13.8733C44.0551 13.918 44.0551 13.9478 43.9861 13.9528L43.5522 13.918C43.4526 13.9239 43.3568 13.9584 43.276 14.0174L43.1034 13.9876C42.77 14.0084 42.4396 14.0634 42.1172 14.1516C41.7889 14.1255 41.4592 14.1255 41.1309 14.1516L40.337 14.2211L39.9672 14.1814C39.9672 13.9429 40.4061 12.7851 41.343 10.7031C41.4817 10.2081 41.7431 9.75668 42.1024 9.3913C42.1811 9.39241 42.2585 9.41108 42.3292 9.44596L42.8371 9.25217L43.1281 9.2969C43.7112 9.23254 44.2833 9.09051 44.8293 8.87453C44.9536 8.85669 45.0803 8.8686 45.1992 8.90932L45.6331 8.80497L46.9202 8.69565C47.5265 8.63765 48.125 8.51438 48.7053 8.32795V8.19379C48.4686 8.19379 48.3404 8.19379 48.3354 8.0795C48.3354 7.90062 48.148 7.82609 47.8127 7.85093V7.71677L48.1678 7.61242L49.0948 7.53292V7.39876H48.5228V7.25466L48.8828 7.21988C48.9814 7.21988 49.0209 7.16522 49.011 7.07081C48.5179 7.07081 48.2861 7.07081 48.2812 6.99627C44.9181 7.16191 43.2316 7.19337 43.2218 7.09068C43.1455 7.10737 43.0733 7.13949 43.0097 7.18509L42.8667 7.03106C43.7576 5.12298 44.2803 4.16232 44.4348 4.14907C44.4258 4.27503 44.3888 4.39731 44.3264 4.50683V4.54658H44.4694C44.8244 3.69689 45.1203 3.25466 45.3718 3.23478C46.4271 3.14037 45.2238 3.07081 47.4873 2.73789C47.5493 2.77227 47.6187 2.79103 47.6894 2.79255C48.5771 2.61035 49.8131 2.42153 51.3977 2.22609V2.09193L50.5545 2.17143V2.03727C50.6463 2.03034 50.7339 1.99571 50.806 1.93789V2.01242C50.8761 1.99551 50.9418 1.96328 50.9983 1.91801C51.1115 1.89902 51.2278 1.9128 51.3336 1.95777C51.5664 1.89212 51.8038 1.84395 52.0437 1.81367L52.5713 1.76398C52.6995 1.6795 52.7587 1.60497 52.7538 1.5354V1.47578C52.5986 1.48769 52.4426 1.47765 52.2902 1.44596C52.2882 1.42833 52.2896 1.41045 52.2945 1.39338C52.2993 1.37631 52.3075 1.36038 52.3185 1.34652C52.3295 1.33265 52.3432 1.32112 52.3586 1.3126C52.3741 1.30409 52.3911 1.29875 52.4086 1.29689L53.3948 1.20249L53.8436 1.0882C53.8436 1.13789 53.8732 1.15776 53.9077 1.15776C53.9779 1.14085 54.0435 1.10863 54.1 1.06336H54.174C54.0943 1.23845 54.0284 1.41954 53.9767 1.60497H53.8485C53.8418 1.52091 53.8165 1.43942 53.7745 1.36646H53.6858C52.4924 4.7205 51.9599 6.28075 50.8553 8.85466C50.6531 9.51056 50.4854 9.87826 50.3375 9.95776C50.337 9.97383 50.3403 9.98979 50.3469 10.0044C50.3536 10.019 50.3635 10.0319 50.3759 10.042C50.3884 10.0521 50.4029 10.0591 50.4185 10.0626C50.434 10.0661 50.4502 10.0659 50.4657 10.0621C50.4911 10.3978 50.4118 10.7331 50.2389 11.0211C49.7458 12.5118 49.3907 13.3118 49.2132 13.4609L49.3266 14.1615C49.3287 14.177 49.3275 14.1929 49.323 14.2079C49.3185 14.2229 49.3109 14.2368 49.3006 14.2486C49.2903 14.2604 49.2776 14.2698 49.2634 14.2762C49.2491 14.2826 49.2337 14.2859 49.2181 14.2857H49.0998C49.0998 14.0919 49.011 13.9975 48.8877 14.0124H48.8236C48.6582 14.2751 48.5381 14.564 48.4686 14.8671H48.5869C48.6554 14.8329 48.7127 14.7796 48.7521 14.7135C48.7914 14.6475 48.8111 14.5714 48.8088 14.4944H49.0455L49.1836 14.5441C49.0904 14.6655 49.037 14.8131 49.0307 14.9665L49.0948 15.0758L48.937 15.4484V15.5081C49.0965 15.5016 49.2538 15.5469 49.3858 15.6373C49.5152 15.6143 49.6372 15.5597 49.7408 15.4783H51.2794L51.7232 15.3242C52.0901 15.3324 52.4571 15.3208 52.8228 15.2894H53.0151L53.1187 15.2199V15.2795C53.4211 15.2448 53.7271 15.2566 54.026 15.3143V15.3739H53.7548V15.4882C53.834 15.483 53.9097 15.4535 53.9718 15.4037C54.0408 15.4037 54.0803 15.4385 54.0852 15.518C53.9591 15.5315 53.8349 15.5598 53.7154 15.6025L53.597 15.5627C53.4096 15.6124 53.4491 15.6273 53.3209 15.6373L53.1335 15.6025C53.135 15.6091 53.135 15.616 53.1334 15.6227C53.1319 15.6293 53.1288 15.6355 53.1246 15.6408C53.1203 15.646 53.1149 15.6502 53.1087 15.6531C53.1026 15.6559 53.0959 15.6573 53.0891 15.6571C53.0882 15.672 53.0906 15.6868 53.0961 15.7006C53.1016 15.7143 53.1102 15.7266 53.121 15.7367C53.1319 15.7467 53.1449 15.7541 53.159 15.7584C53.1731 15.7627 53.188 15.7637 53.2025 15.7615H53.3948L54.3811 15.672L54.7608 15.5876C54.7608 15.6224 54.7608 15.6373 54.8101 15.6323L54.9925 15.5627L55.3377 15.5329C55.604 15.5329 55.5991 15.4932 56.181 15.3988C56.181 15.364 56.181 15.3491 56.2155 15.3441V15.3938C56.6048 15.3462 56.9903 15.2715 57.3694 15.1702V15.2C57.6061 15.1453 57.4729 15.1602 57.537 15.1106C57.537 15.1503 57.537 15.1702 57.5765 15.1702H57.7442V15.046H57.3299C57.2064 15.0693 57.0808 15.0793 56.9552 15.0758L56.1119 15.1205V15.0609L56.6051 14.9963H56.7727L56.8713 14.9267V14.9814C57.5321 14.9267 57.7688 15.0907 60.8163 14.4348C60.984 14.4348 60.9692 14.2807 61.0727 13.9925C61.0163 13.9975 60.9596 13.9853 60.91 13.9578C60.6236 14.0278 60.3314 14.0711 60.0372 14.087C59.9977 14.087 59.9632 14.0522 59.9484 13.9826V13.9329H60.4415C60.6163 13.9142 60.7848 13.8565 60.9346 13.764C60.9346 13.8037 60.836 13.8286 60.8952 13.8236L60.9593 13.7888ZM38.335 14.1565H38.118C38.1902 13.8117 38.3062 13.4777 38.4632 13.1627H38.6062C38.5611 13.5049 38.4699 13.8393 38.335 14.1565ZM38.5963 13.1031V13.0435C38.5963 12.9689 38.6358 12.9193 38.7393 12.8944V12.9938C38.7393 13.0832 38.6999 13.1329 38.5963 13.1429V13.1031ZM41.4663 15.3391V15.3988L41.1063 15.4335V15.3739L41.4663 15.3391ZM41.0323 15.3043C41.0323 15.3789 40.9288 15.4634 40.6871 15.5429L40.2483 15.5081H40.1053V15.3739L41.0471 15.2845L41.0323 15.3043ZM43.9368 1.83354H43.7198V1.75901C43.7198 1.68447 43.7543 1.63478 43.848 1.60994H43.9269L44.0749 1.66957C44.0778 1.68854 44.0765 1.70795 44.0711 1.72637C44.0657 1.74479 44.0563 1.76175 44.0435 1.77603C44.0308 1.79031 44.015 1.80155 43.9974 1.80892C43.9798 1.81628 43.9608 1.8196 43.9417 1.81863L43.9368 1.83354ZM47.221 1.18758H47.2752V1.32174H47.078C47.0759 1.3041 47.0774 1.28623 47.0822 1.26916C47.0871 1.25209 47.0952 1.23616 47.1062 1.22229C47.1172 1.20843 47.1309 1.1969 47.1463 1.18838C47.1618 1.17986 47.1788 1.17452 47.1963 1.17267L47.221 1.18758ZM46.3925 1.48075L46.0671 1.44596V1.38634C46.3502 1.36732 46.63 1.31393 46.9004 1.22733C46.9004 1.27702 46.9498 1.29689 47.0336 1.28696V1.42112H46.9054C46.8158 1.43339 46.7246 1.41779 46.644 1.3764C46.569 1.42787 46.4827 1.46026 46.3925 1.47081V1.48075ZM46.7821 2.70311V2.64348L47.3097 2.59379V2.65342L46.7821 2.70311ZM47.3492 2.24099V2.16149H47.6056V2.23602H47.3492V2.24099ZM47.4084 1.33168H47.3393L47.3985 1.18758L47.9853 1.13292V1.20745C47.7884 1.23076 47.5937 1.27065 47.4034 1.32671L47.4084 1.33168ZM47.7092 2.6087V2.47454H47.9656C48.0543 2.47454 48.1004 2.51594 48.1037 2.59876L47.719 2.63354L47.7092 2.6087ZM49.2674 0.47205L48.937 0.566461H48.8779C48.673 0.587045 48.4666 0.588707 48.2615 0.571429C48.6905 0.541616 49.0998 0.511803 49.2477 0.486958L49.2674 0.47205ZM48.9124 1.96273V2.02236L48.4587 2.06211V2.00249L48.9124 1.96273ZM49.657 2.3205C49.657 2.26584 49.5633 2.22609 49.3858 2.21118L48.9321 2.34037H48.582C48.5031 2.28572 48.4636 2.24596 48.4587 2.22112H48.8631L49.7704 2.07205H50.2339V2.14658C50.0361 2.16385 49.8409 2.20386 49.6521 2.26584L49.657 2.3205ZM54.3367 1.06832H54.4403C54.5977 0.910409 54.7835 0.78396 54.9876 0.695653C54.8865 1.29991 54.6181 1.86312 54.2134 2.3205L53.957 2.16149C54.1087 1.80305 54.2355 1.43447 54.3367 1.05839V1.06832ZM53.5477 2.43478H53.6118C53.523 2.60373 53.4441 2.6882 53.38 2.69317V2.51925C53.4449 2.50828 53.506 2.48093 53.5576 2.43975L53.5477 2.43478ZM53.0546 3.66211C53.0941 3.35012 53.2168 3.05475 53.4096 2.80745V2.86708C53.3455 3.32919 53.242 3.57764 53.1088 3.59255V3.88571C53.0185 3.99004 52.9633 4.12049 52.951 4.25838H52.8869L52.8524 3.8559C52.9264 3.8559 52.9856 3.78137 53.025 3.66211H53.0546ZM52.8573 4.32795C52.8383 4.49945 52.7934 4.66701 52.7242 4.82485H52.6601V4.65093C52.7489 4.44721 52.8228 4.34286 52.8721 4.34286L52.8573 4.32795ZM49.1491 15.1702V15.1205H49.2674V15.2944C49.2033 15.2944 49.1589 15.2596 49.1392 15.1801L49.1491 15.1702ZM54.4452 15.3093C54.4452 15.2696 54.4452 15.2497 54.3811 15.2547L54.0803 15.2845V15.2248H54.1099L54.815 15.1652V15.2248C54.6855 15.215 54.5562 15.2462 54.4452 15.3143V15.3093ZM54.0901 15.1602C54.1197 15.1602 54.0901 15.1901 54.0901 15.195C54.0901 15.2 54.0556 15.195 54.0901 15.1602ZM54.1247 14.3255L53.7302 14.3602V14.3006L54.0901 14.2658L54.4008 14.1863C54.4008 14.2211 54.4008 14.236 54.4649 14.2311C54.8348 14.1665 54.8002 14.1466 54.958 14.1317C55.0172 14.1317 55.0567 14.1665 55.0616 14.236L54.1099 14.3205L54.1247 14.3255ZM55.5054 14.2062C55.3773 14.18 55.2464 14.17 55.1158 14.1764V14.1267L55.4709 14.0919V14.1416C55.4364 14.1416 55.5695 14.1416 55.5054 14.2012V14.2062ZM55.535 14.1416V14.0919H55.7273V14.1416H55.535ZM55.964 14.1068V14.0571C56.0152 14.0436 56.0625 14.0181 56.1021 13.9826C56.121 13.9798 56.1403 13.981 56.1587 13.9861C56.1771 13.9912 56.1943 14.0002 56.2091 14.0123C56.224 14.0244 56.2361 14.0396 56.2449 14.0567C56.2536 14.0738 56.2587 14.0926 56.2599 14.1118L55.964 14.1068ZM56.5114 14.0373V13.9876H56.7481V14.0472H56.5114V14.0373ZM56.8368 14.0075C56.8368 13.9379 56.8368 13.8981 56.9206 13.8882L56.9995 13.9925C56.9981 13.9867 56.9979 13.9806 56.9988 13.9746C56.9998 13.9686 57.0019 13.9629 57.0052 13.9578C57.0084 13.9527 57.0126 13.9483 57.0176 13.9448C57.0226 13.9414 57.0282 13.9391 57.0341 13.9379L57.0932 14.0472L56.8368 14.0124V14.0075ZM61.4278 13.4311C61.4623 13.4311 61.482 13.3863 61.3932 13.3714C61.3045 13.3565 61.4376 13.4311 61.3489 13.436V13.4907L61.3982 13.4559L61.3489 13.4957L61.2502 13.6199L61.4426 13.5503V13.436L61.4278 13.4311ZM61.7631 13.6944H61.7286V13.8087H61.9998C61.9998 13.7342 61.8173 13.7093 61.7582 13.7093L61.7631 13.6944Z"
		fill="currentColor"
	/>
</svg>
