<svg viewBox="0 0 22 24" fill="none">
	<path
		d="M20.917 6.07276L20.9754 6.03395C20.8586 5.82053 20.6835 5.62652 20.5084 5.52951L11.1112 0.135812C10.9555 0.0388036 10.7415 0 10.5081 0C10.2746 0 10.0606 0.0582053 9.90492 0.135812L0.566054 5.54891C0.235303 5.74293 0.00183105 6.22797 0.00183105 6.5966V17.4034C0.00183105 17.6168 0.0407429 17.8496 0.176935 18.0631L0.138023 18.0825C0.235303 18.2377 0.371494 18.3735 0.507686 18.4511L9.88546 23.8642C10.0411 23.9612 10.2551 24 10.4886 24C10.7221 24 10.9361 23.9418 11.0917 23.8642L20.4306 18.4511C20.7613 18.2571 20.9948 17.772 20.9948 17.4034V6.5772C21.0143 6.42199 20.9948 6.24737 20.917 6.07276Z"
		fill="#03599C"
	/>
	<path
		d="M14.6522 14.3379C13.835 15.7736 12.2785 16.7437 10.5081 16.7437C7.8815 16.7437 5.74134 14.6095 5.74134 11.9903C5.74134 9.37106 7.8815 7.23686 10.5081 7.23686C12.2785 7.23686 13.835 8.20695 14.6522 9.66209L17.1814 8.20695C15.8584 5.89814 13.3681 4.3266 10.5081 4.3266C6.26665 4.3266 2.82295 7.76071 2.82295 11.9903C2.82295 16.2199 6.26665 19.654 10.5081 19.654C13.3486 19.654 15.839 18.1019 17.162 15.8124L14.6522 14.3379Z"
		fill="white"
	/>
</svg>
