<svg viewBox="0 0 24 24" fill="none" color="rgb(var(--foreground, 0, 0, 0))">
	<path
		d="M23.5445 7.48616L12.5758 0.173672C12.2014 -0.0569524 11.8018 -0.0588274 11.4242 0.173672L0.455437 7.48616C0.174187 7.67366 0 8.00854 0 8.34323V15.6557C0 15.9906 0.174187 16.3255 0.455437 16.5128L11.4242 23.8264C11.7984 24.0568 12.1982 24.0589 12.5758 23.8264L23.5445 16.5128C23.8258 16.3255 24 15.9906 24 15.6559V8.34341C24 8.00854 23.8258 7.67366 23.5445 7.48616V7.48616ZM13.0314 2.95917L21.107 8.34323L17.5044 10.7541L13.0312 7.76723V2.95954L13.0314 2.95917ZM10.9687 2.95917V7.76741L6.49537 10.7539L2.89275 8.34341L10.9687 2.95917V2.95917ZM2.0625 10.2717L4.64737 11.9995L2.0625 13.7273V10.2717V10.2717ZM10.9687 21.0398L2.89275 15.6557L6.49537 13.245L10.9687 16.2317V21.0398V21.0398ZM12 14.437L8.35724 11.9995L12 9.56198L15.6427 11.9995L12 14.437ZM13.0312 21.0398V16.2317L17.5044 13.245L21.107 15.6557L13.0314 21.0398H13.0312ZM21.9375 13.7273L19.3526 11.9995L21.9375 10.2718V13.7273Z"
		fill="currentColor"
	/>
</svg>
