<svg width="37" height="24" viewBox="0 0 37 24" fill="none" color="#019BC6">
	<path
		d="M36.5259 8.38806C35.2525 7.64179 33.5645 7.55224 32.143 7.97015C31.9653 6.41791 30.9585 5.07463 29.7739 4.1194L29.3001 3.73134L28.8855 4.20895C28.0859 5.13433 27.849 6.68657 27.9674 7.8806C28.0563 8.74627 28.3228 9.64179 28.8559 10.3582C28.4413 10.597 27.9971 10.9254 27.5825 11.0746C26.7533 11.3731 25.8352 11.6716 24.9468 11.6716H22.9626V7.46269H19.1128V0H14.6707V3.58209H7.26714V7.46269H3.4173V11.6418H0.100511L0.0412823 12.0896C-0.106789 14 0.130125 15.8507 0.929707 17.6119L1.25546 18.2687L1.28508 18.3284C3.6246 22.3284 7.71135 24 12.1831 24C20.8304 24 27.9674 20.0896 31.225 11.8806C33.4164 12 35.6671 11.3433 36.7332 9.22388L36.9998 8.68657L36.5259 8.38806V8.38806ZM7.85942 4.47761H10.8208V7.76119H7.85942V4.47761ZM11.7389 17.6716C11.7389 18.1791 11.3243 18.597 10.8208 18.597C10.3174 18.597 9.9028 18.1791 9.9028 17.6716C9.9028 17.1642 10.3174 16.7463 10.8208 16.7463C11.3243 16.7761 11.7389 17.1642 11.7389 17.6716ZM7.85942 8.35821H10.8208V11.6418H7.85942V8.35821ZM4.00958 8.35821H7.26714V11.6418H4.00958V8.35821ZM12.2127 23.3433C7.53367 23.3134 5.01646 21.7313 2.94347 19.6418C3.56537 19.6716 4.15765 19.7015 4.69071 19.7015C5.16453 19.7015 5.63836 19.7015 6.08257 19.6716C7.23752 19.6119 8.2444 19.4627 9.0736 19.2239C9.75473 20.806 10.9985 22.2687 13.2196 23.3433H12.2127ZM14.6707 11.6418H11.4131V8.35821H14.6707V11.6418ZM14.6707 7.76119H11.4131V4.47761H14.6707V7.76119ZM18.5205 11.6418H15.263V8.35821H18.5205V11.6418ZM18.5205 7.76119H15.263V4.47761H18.5205V7.76119ZM18.5205 3.8806H15.263V0.597015H18.5205V3.8806ZM22.3704 11.6418H19.1128V8.35821H22.3704V11.6418ZM11.0578 17.0746C10.9985 17.0448 10.9097 17.0149 10.8208 17.0149C10.4655 17.0149 10.1693 17.3134 10.1693 17.6716C10.1693 18.0298 10.4655 18.3284 10.8208 18.3284C11.1762 18.3284 11.4723 18.0298 11.4723 17.6716C11.4723 17.5821 11.4427 17.4925 11.4131 17.4328C11.3539 17.5224 11.2947 17.5821 11.1762 17.5821C11.0281 17.5821 10.9097 17.4627 10.9097 17.3134C10.9393 17.194 10.9985 17.1045 11.0578 17.0746V17.0746Z"
		fill="currentColor"
	/>
</svg>
