<svg viewBox="0 0 29 24" fill="none">
	<path
		d="M8.45911 8.73327L13.7661 5.74152C13.9016 5.67553 14.0597 5.67553 14.1951 5.74152L19.5247 8.73327C19.6602 8.79927 19.7505 8.95325 19.7505 9.08524V15.0687C19.7505 15.2227 19.6602 15.3547 19.5247 15.4427L14.2177 18.4345C14.0822 18.5005 13.9242 18.5005 13.7887 18.4345L8.45911 15.4427C8.32361 15.3767 8.23328 15.2227 8.23328 15.0687V9.08524C8.23328 8.95325 8.32361 8.79927 8.45911 8.73327Z"
		fill="#8080F2"
	/>
	<path
		d="M27.8126 11.461L21.4668 0.681943C21.241 0.285976 20.8119 0 20.3377 0H7.64612C7.19447 0 6.76539 0.285976 6.51698 0.681943L0.171202 11.439C-0.054626 11.835 -0.054626 12.319 0.171202 12.7149L6.51698 23.4061C6.74281 23.802 7.17188 24 7.64612 24H20.3603C20.8119 24 21.241 23.802 21.4894 23.428L27.8352 12.7369C28.061 12.297 28.061 11.835 27.8126 11.461ZM22.5508 16.6306C22.5508 16.7846 22.4605 16.9386 22.3024 17.0046L14.2177 21.5582C14.0822 21.6462 13.9016 21.6462 13.7661 21.5582L5.65883 17.0266C5.52334 16.9386 5.41042 16.8066 5.41042 16.6526V7.52337C5.41042 7.36939 5.50075 7.2154 5.65883 7.1494L13.7661 2.59578C13.9016 2.50779 14.0822 2.50779 14.2177 2.59578L22.325 7.1494C22.4605 7.2374 22.5734 7.36939 22.5734 7.52337V16.6306H22.5508Z"
		fill="#4B32C3"
	/>
</svg>
