<svg viewBox="0 0 42 24" fill="none" color="rgb(var(--foreground, 0, 0, 0))">
	<path
		d="M41.0018 23.3641C39.5106 23.7466 38.5883 23.3805 37.7609 22.1272C35.9034 19.3205 33.8529 16.6423 31.8744 13.9147C31.6193 13.5618 31.3544 13.2155 31.0241 12.7769C28.6825 15.9629 26.3443 18.9973 24.1499 22.1536C23.365 23.2816 22.5409 23.773 21.0758 23.3739L29.8795 11.4576L21.6841 0.695615C23.0936 0.418567 24.0681 0.56039 24.9315 1.83349C26.8381 4.64354 28.9409 7.31837 31.0372 10.1482C33.1465 7.32827 35.2232 4.65014 37.1854 1.86647C37.9735 0.738491 38.8205 0.309727 40.2366 0.725299C39.1639 2.16001 38.1141 3.57163 37.0578 4.97336C35.632 6.86322 34.2323 8.77617 32.7541 10.6265C32.2276 11.2861 32.3126 11.7149 32.7835 12.3382C35.5175 15.9629 38.2188 19.6239 41.0018 23.3641ZM0.011642 11.2597C0.247105 10.0691 0.40408 8.85533 0.731112 7.68777C2.6933 0.619757 10.7383 -2.31893 16.2651 2.06106C19.5027 4.63035 20.3072 8.25176 20.147 12.3349H1.89862C1.62391 19.6602 6.85315 24.0831 13.5181 21.8271C15.8563 21.0355 17.2331 19.1885 17.9232 16.8798C18.2731 15.7222 18.852 15.5408 19.9312 15.8706C19.3785 18.7598 18.1259 21.1741 15.5097 22.6846C11.5853 24.9472 5.98325 24.215 3.03669 21.0718C1.29688 19.2248 0.557785 16.926 0.230753 14.4425C0.181699 14.0467 0.0803187 13.6575 0.00183105 13.265C0.00837169 12.5966 0.011642 11.9281 0.011642 11.2597V11.2597ZM1.93132 10.7683H18.4235C18.3156 5.47139 15.0453 1.70816 10.5748 1.67518C5.6693 1.6356 2.14389 5.30978 1.93132 10.7683V10.7683Z"
		fill="currentColor"
	/>
</svg>
