<svg width="24" height="24" viewBox="0 0 24 24" fill="none" color="#F34F29">
	<path
		d="M23.5476 10.931L13.071 0.452588C12.4681 -0.150863 11.4895 -0.150863 10.8856 0.452588L8.71057 2.62874L11.4701 5.38894C12.1117 5.17239 12.8469 5.31765 13.358 5.82889C13.6016 6.07275 13.7716 6.38025 13.8487 6.71623C13.9258 7.05221 13.9068 7.40311 13.7939 7.72879L16.4534 10.3894C17.0969 10.1675 17.8395 10.3109 18.3531 10.8257C19.0716 11.5438 19.0716 12.7079 18.3531 13.4264C18.1824 13.5973 17.9796 13.7328 17.7565 13.8253C17.5334 13.9178 17.2942 13.9654 17.0527 13.9654C16.8111 13.9654 16.572 13.9178 16.3488 13.8253C16.1257 13.7328 15.923 13.5973 15.7522 13.4264C15.4957 13.1696 15.3208 12.8427 15.2496 12.4868C15.1784 12.1309 15.2141 11.7618 15.3521 11.4261L12.872 8.9452L12.8716 15.4742C13.0515 15.5629 13.2158 15.6802 13.358 15.8218C14.0763 16.5399 14.0763 17.7036 13.358 18.4232C12.6397 19.1413 11.4755 19.1413 10.7579 18.4232C10.0398 17.7038 9.98087 16.54 10.6988 15.8218C10.8763 15.6444 11.0514 15.5103 11.2415 15.4206V8.83112C11.0514 8.74138 10.8765 8.6083 10.6986 8.42977C10.1548 7.88602 10.0531 7.0875 10.3321 6.41903L7.62674 3.6978L0.450486 10.8826C-0.153016 11.4866 -0.149214 12.4653 0.454287 13.069L10.9326 23.5474C11.5357 24.1509 12.515 24.1509 13.1191 23.5474L23.5468 13.1176C24.1503 12.5138 24.1509 11.5345 23.5476 10.931V10.931Z"
		fill="currentColor"
	/>
</svg>
