<svg viewBox="0 0 25 24" fill="none" color="rgb(var(--foreground, 0, 0, 0))">
	<path
		fill-rule="evenodd"
		clip-rule="evenodd"
		d="M12.4997 0C5.59706 0 -0.000244141 5.50827 -0.000244141 12.3038C-0.000244141 17.7402 3.58136 22.3519 8.54795 23.9791C9.17245 24.0932 9.40179 23.7122 9.40179 23.3872C9.40179 23.0938 9.3902 22.1246 9.38482 21.0965C5.90734 21.8407 5.17355 19.6448 5.17355 19.6448C4.60494 18.2226 3.78566 17.8445 3.78566 17.8445C2.65134 17.0808 3.87115 17.0967 3.87115 17.0967C5.12615 17.1833 5.78728 18.3646 5.78728 18.3646C6.90215 20.2452 8.71147 19.7016 9.42477 19.3874C9.53696 18.5922 9.86091 18.0492 10.2184 17.742C7.44198 17.4313 4.52318 16.3761 4.52318 11.6616C4.52318 10.3183 5.01168 9.22072 5.81129 8.35888C5.6813 8.04919 5.25345 6.79778 5.93218 5.10302C5.93218 5.10302 6.98163 4.77234 9.37033 6.36421C10.3676 6.09139 11.4372 5.95427 12.4997 5.94958C13.5615 5.95427 14.6317 6.09098 15.6308 6.3638C18.0166 4.77193 19.0649 5.10261 19.0649 5.10261C19.7452 6.79717 19.3174 8.04878 19.1876 8.35847C19.9891 9.22032 20.4741 10.3179 20.4741 11.6612C20.4741 16.3869 17.5499 17.4272 14.7664 17.732C15.215 18.1138 15.6145 18.8628 15.6145 20.0105C15.6145 21.6568 15.6 22.9817 15.6 23.387C15.6 23.7144 15.8252 24.098 16.4586 23.9772C21.4223 22.3485 24.9998 17.7381 24.9998 12.3038C24.9995 5.50868 19.4029 0 12.4997 0Z"
		fill="currentColor"
	/>
	<path
		d="M4.7341 17.6654C4.70657 17.7265 4.60887 17.7448 4.51986 17.7031C4.42879 17.6631 4.37807 17.5798 4.40747 17.5185C4.43438 17.4553 4.53228 17.438 4.62274 17.4802C4.71382 17.5203 4.76556 17.6045 4.73389 17.6656L4.7341 17.6654ZM5.24041 18.2214C5.181 18.2758 5.06446 18.2505 4.98539 18.1644C4.90342 18.0788 4.8881 17.9641 4.94875 17.9089C5.01044 17.8547 5.12346 17.8803 5.20542 17.9659C5.28698 18.0527 5.30313 18.1664 5.24061 18.2216L5.24041 18.2214ZM5.73346 18.9298C5.65688 18.9824 5.53144 18.9333 5.45402 18.8239C5.37744 18.7143 5.37744 18.5828 5.45609 18.5305C5.5333 18.4779 5.65688 18.5254 5.73553 18.6338C5.81171 18.7448 5.81171 18.8764 5.73346 18.9298ZM6.40847 19.6146C6.34016 19.689 6.19402 19.669 6.08721 19.5678C5.97813 19.4685 5.9477 19.3273 6.01622 19.2532C6.08577 19.1786 6.23252 19.1994 6.33995 19.3C6.44904 19.3991 6.48195 19.5405 6.40888 19.6144L6.40847 19.6146ZM7.33994 20.0121C7.30951 20.1085 7.16917 20.1523 7.02738 20.1111C6.886 20.069 6.79348 19.9563 6.82245 19.8589C6.85143 19.7617 6.99281 19.7163 7.13543 19.7601C7.2768 19.8021 7.36933 19.9141 7.33994 20.0121ZM8.3631 20.0857C8.36662 20.1871 8.24657 20.2711 8.09815 20.2731C7.9485 20.2766 7.82741 20.1943 7.82596 20.0944C7.82596 19.992 7.94353 19.909 8.09298 19.9062C8.24139 19.9035 8.36331 19.985 8.36331 20.0855L8.3631 20.0857ZM9.31486 19.9263C9.33266 20.0252 9.22937 20.1268 9.08178 20.1539C8.93689 20.1804 8.80234 20.1189 8.78371 20.0209C8.76591 19.9194 8.87106 19.8178 9.01596 19.7915C9.16375 19.7664 9.29623 19.8259 9.31486 19.9263Z"
		fill="currentColor"
	/>
</svg>
