<svg width="64" height="24" viewBox="0 0 64 24" fill="none" color="#00ACD7">
	<path
		fill-rule="evenodd"
		clip-rule="evenodd"
		d="M4.82991 7.26712C4.70497 7.26712 4.67412 7.20416 4.73634 7.11075L5.39085 6.26595C5.45255 6.17203 5.60886 6.10958 5.73328 6.10958H16.858C16.983 6.10958 17.0138 6.20351 16.9516 6.29743L16.422 7.11075C16.3598 7.20416 16.204 7.29808 16.1105 7.29808L4.82991 7.26712ZM0.124372 10.1442C-5.36367e-05 10.1442 -0.031417 10.0823 0.0307957 9.98781L0.685314 9.14353C0.747527 9.04961 0.903316 8.98716 1.02826 8.98716H15.2374C15.3619 8.98716 15.4246 9.08109 15.3932 9.17501L15.1438 9.92537C15.113 10.0508 14.9881 10.1132 14.8636 10.1132L0.124372 10.1442ZM7.66496 13.0218C7.54053 13.0218 7.50969 12.9278 7.5719 12.8339L8.0079 12.0521C8.07063 11.9581 8.19505 11.8647 8.31999 11.8647H14.5515C14.6765 11.8647 14.7387 11.9581 14.7387 12.0836L14.677 12.8339C14.677 12.9593 14.5521 13.0532 14.4585 13.0532L7.66496 13.0218ZM40.0104 6.70409C38.0469 7.20467 36.707 7.57985 34.7753 8.07992C34.3074 8.20532 34.2766 8.23629 33.8714 7.76718C33.404 7.23564 33.0611 6.89142 32.4071 6.57869C30.4435 5.60952 28.5427 5.89077 26.7668 7.04831C24.648 8.42413 23.5575 10.4569 23.5883 12.9903C23.6192 15.4927 25.3334 17.5569 27.7951 17.9011C29.914 18.1824 31.6904 17.4315 33.0925 15.8369C33.3727 15.4927 33.622 15.1175 33.9336 14.6794H27.9196C27.2656 14.6794 27.1098 14.2727 27.3278 13.7411C27.7329 12.7715 28.4805 11.1453 28.9165 10.332C29.0106 10.1442 29.2286 9.83144 29.696 9.83144H41.0382C40.9765 10.6762 40.9765 11.5205 40.8516 12.3653C40.5086 14.6169 39.6675 16.6812 38.2962 18.4951C36.0525 21.4666 33.1238 23.3116 29.4152 23.8122C26.3617 24.2188 23.5261 23.6243 21.0335 21.7479C18.7275 19.9964 17.419 17.6818 17.076 14.8048C16.6709 11.3956 17.6678 8.33021 19.7245 5.64048C21.9369 2.73194 24.866 0.886496 28.4496 0.229545C31.3788 -0.302001 34.183 0.0422127 36.707 1.76226C38.3584 2.85683 39.5425 4.35806 40.3215 6.17203C40.5086 6.4538 40.3847 6.61068 40.0104 6.70409Z"
		fill="currentColor"
	/>
	<path
		d="M50.3243 24C47.4888 23.937 44.902 23.1242 42.721 21.2473C40.8824 19.6527 39.7297 17.6194 39.3559 15.2109C38.7949 11.6769 39.7605 8.54903 41.8798 5.76589C44.1545 2.76291 46.8965 1.19924 50.605 0.542288C53.783 -0.0202222 56.7749 0.292513 59.4855 2.13744C61.9473 3.82652 63.4738 6.10959 63.879 9.11206C64.4085 13.3345 63.1936 16.7751 60.2953 19.7151C58.2387 21.8103 55.7147 23.1242 52.8169 23.7182C51.9758 23.8746 51.1341 23.9061 50.3243 24ZM57.7405 11.3642C57.7096 10.9575 57.7096 10.6448 57.6469 10.332C57.0865 7.23565 54.2504 5.48412 51.2904 6.17255C48.3921 6.82899 46.5227 8.67443 45.8373 11.6145C45.2764 14.0539 46.4604 16.5248 48.7037 17.5255C50.4179 18.2763 52.1316 18.1824 53.783 17.3381C56.2448 16.0557 57.5847 14.0539 57.7405 11.3642Z"
		fill="currentColor"
	/>
</svg>
