<svg viewBox="0 0 31 24" fill="none">
	<path
		d="M19.2993 6.64174H19.4017L19.3505 6.59046L22.9365 3.00086V2.92394C19.914 0.257384 15.7389 -0.665655 11.8711 0.488144C8.00331 1.64194 5.03204 4.71874 3.95624 8.61602C4.00747 8.59038 4.08431 8.56474 4.16115 8.56474C5.4931 7.69298 7.08119 7.18018 8.74613 7.18018C9.30964 7.18018 9.84755 7.23146 10.3854 7.33402C10.4111 7.30838 10.4367 7.30838 10.4623 7.30838C12.7676 4.77002 16.661 4.46234 19.3249 6.64174H19.2993Z"
		fill="#EA4535"
	/>
	<path
		d="M26.3432 8.56474C25.7541 6.38534 24.5246 4.41106 22.8084 2.8983L19.1456 6.53918C20.6824 7.79554 21.5789 9.69289 21.5277 11.6672V12.3082C25.8565 12.3082 25.8565 18.7694 21.5277 18.7694H15.0216V23.8974H14.996L15.0216 23.9487H21.5277C25.2674 23.9744 28.5717 21.5642 29.6731 18.0259C30.7745 14.4876 29.4169 10.6416 26.3432 8.56474Z"
		fill="#557EBF"
	/>
	<path
		d="M8.64367 23.9744H15.3803V18.7951H8.64367C8.157 18.7951 7.69594 18.6925 7.26049 18.513L3.36711 22.2565V22.3078C4.90397 23.4103 6.74821 24 8.66928 24L8.64367 23.9744Z"
		fill="#36A852"
	/>
	<path
		d="M8.95104 7.05198C5.1345 7.07762 1.7534 9.43649 0.523912 12.8979C-0.705578 16.3849 0.523912 20.2053 3.54641 22.4616L7.54225 18.6412C5.33941 17.6926 4.82713 14.9234 6.51768 13.3081C8.20823 11.6672 11.077 12.18 12.076 14.2824L16.0718 10.4621C14.3813 8.33398 11.743 7.07762 8.95104 7.10326V7.05198Z"
		fill="#F9BC15"
	/>
</svg>
