<svg viewBox="0 0 22 24" fill="none" color="#E434AA">
	<path
		d="M2.00265 18.2919L1.09525 17.783L11.2049 0.78333L12.1118 1.29201L2.00265 18.2919Z"
		fill="currentColor"
	/>
	<path
		d="M0.886955 16.4251H21.1056V17.4421H0.886955V16.4251Z"
		fill="currentColor"
	/>
	<path
		d="M11.4004 22.6655L1.28779 16.9968L1.81172 16.1154L11.9246 21.7849L11.4004 22.6655ZM20.1855 7.89051L10.0729 2.22108L10.5968 1.34065L20.7096 7.00913L20.1855 7.89051Z"
		fill="currentColor"
	/>
	<path
		d="M1.81408 7.88668L1.28996 7.00549L11.4036 1.33682L11.9275 2.21744L1.81408 7.88668Z"
		fill="currentColor"
	/>
	<path
		d="M19.9991 18.2919L9.89019 1.29201L10.7972 0.78333L20.9069 17.783L19.9991 18.2919ZM1.68901 6.33057H2.73706V17.6694H1.6892L1.68901 6.33057Z"
		fill="currentColor"
	/>
	<path
		d="M19.2625 6.33057H20.3104V17.6694H19.2625V6.33057Z"
		fill="currentColor"
	/>
	<path
		d="M11.2225 22.2351L10.7649 21.4652L19.56 16.5345L20.0176 17.3044L11.2225 22.2351Z"
		fill="currentColor"
	/>
	<path
		d="M21.6989 18C21.0933 19.0235 19.7425 19.3728 18.6885 18.7849C17.6343 18.1961 17.2745 16.8846 17.8801 15.8611C18.4865 14.8376 19.8373 14.4883 20.8915 15.0764C21.9518 15.6711 22.3116 16.9765 21.6989 18ZM4.11337 8.13892C3.50699 9.16241 2.15613 9.51175 1.10196 8.92358C0.0477941 8.33485 -0.312013 7.02349 0.29378 6C0.900164 4.97651 2.25082 4.62717 3.30499 5.21514C4.35916 5.81001 4.71897 7.11542 4.11337 8.13892ZM0.300684 18C-0.305897 16.9765 0.0541062 15.6711 1.10808 15.0762C2.16225 14.4883 3.50679 14.8376 4.11949 15.8611C4.72508 16.8846 4.36527 18.19 3.3111 18.7849C2.25082 19.3728 0.90628 19.0235 0.300684 18ZM17.8862 8.13892C17.2806 7.11542 17.6404 5.81001 18.6946 5.21514C19.7488 4.62717 21.0933 4.97651 21.7058 6C22.3114 7.02349 21.9518 8.32891 20.8976 8.92377C19.8435 9.51175 18.4926 9.16241 17.8862 8.13892ZM10.9998 24C10.7104 24.0003 10.4238 23.9451 10.1564 23.8377C9.88903 23.7303 9.64607 23.5728 9.44145 23.3741C9.23682 23.1754 9.07456 22.9395 8.96394 22.6799C8.85332 22.4203 8.79651 22.142 8.79677 21.8611C8.79651 21.5801 8.85332 21.3019 8.96394 21.0423C9.07456 20.7826 9.23682 20.5467 9.44145 20.3481C9.64607 20.1494 9.88903 19.9919 10.1564 19.8845C10.4238 19.7771 10.7104 19.7219 10.9998 19.7222C11.2892 19.7219 11.5758 19.7771 11.8432 19.8845C12.1106 19.9919 12.3535 20.1494 12.5582 20.3481C12.7628 20.5467 12.925 20.7826 13.0357 21.0423C13.1463 21.3019 13.2031 21.5801 13.2028 21.8611C13.2028 23.038 12.2181 24 10.9998 24ZM10.9998 4.27784C10.7104 4.27809 10.4238 4.22293 10.1564 4.11553C9.88903 4.00813 9.64607 3.85059 9.44145 3.65192C9.23682 3.45326 9.07456 3.21736 8.96394 2.95774C8.85332 2.69813 8.79651 2.41988 8.79677 2.13892C8.79651 1.85796 8.85332 1.57971 8.96394 1.32009C9.07456 1.06047 9.23682 0.82458 9.44145 0.625913C9.64607 0.427246 9.88903 0.269705 10.1564 0.162303C10.4238 0.0549017 10.7104 -0.000251053 10.9998 8.59076e-07C11.2892 -0.000251053 11.5758 0.0549017 11.8432 0.162303C12.1106 0.269705 12.3535 0.427246 12.5582 0.625913C12.7628 0.82458 12.925 1.06047 13.0357 1.32009C13.1463 1.57971 13.2031 1.85796 13.2028 2.13892C13.2031 2.41988 13.1463 2.69813 13.0357 2.95774C12.925 3.21736 12.7628 3.45326 12.5582 3.65192C12.3535 3.85059 12.1106 4.00813 11.8432 4.11553C11.5758 4.22293 11.2892 4.27809 10.9998 4.27784Z"
		fill="currentColor"
	/>
</svg>
