<svg viewBox="0 0 22 24" fill="none">
	<path
		d="M12.4345 1.25383L19.7479 5.37718C20.6048 5.86114 21.1429 6.77099 21.1429 7.73891V16.1985C21.1429 17.2826 20.545 18.2699 19.5885 18.7926L12.3349 22.7611C11.3784 23.2837 10.2026 23.2837 9.24611 22.7417L2.57039 19.0055C1.51423 18.4248 0.876548 17.3407 0.876548 16.1598V8.14544C0.876548 6.96457 1.51423 5.86114 2.55046 5.24167L9.08669 1.31191C10.103 0.692436 11.3983 0.673077 12.4345 1.25383Z"
		fill="#FF4088"
	/>
	<path
		d="M10.8005 24C10.103 24 9.42548 23.8258 8.80773 23.4773L2.132 19.7411C0.816785 19.0055 -0.000244141 17.6311 -0.000244141 16.1598V8.14544C-0.000244141 6.65484 0.77693 5.3191 2.07222 4.52541L8.62838 0.595644C9.92367 -0.178693 11.5378 -0.198052 12.853 0.537569L20.1664 4.66092C21.3023 5.29975 21.9998 6.48061 21.9998 7.73891V16.1985C21.9998 17.573 21.2425 18.8507 20.007 19.5282L12.7534 23.4967C12.1556 23.8258 11.478 24 10.8005 24ZM10.8005 1.67972C10.3621 1.67972 9.92367 1.79587 9.54505 2.02817L2.96896 5.95793C2.17186 6.42254 1.71352 7.25495 1.71352 8.14544V16.1792C1.71352 17.0503 2.19178 17.8634 2.96896 18.3086L9.64468 22.0448C10.3421 22.432 11.199 22.432 11.8965 22.0642L19.1501 18.0957C19.8476 17.7085 20.2661 17.0116 20.2661 16.2373V7.75827C20.2661 7.08072 19.8874 6.46125 19.2896 6.1128L11.9961 1.98945C11.6374 1.77651 11.219 1.67972 10.8005 1.67972Z"
		fill="#FF4088"
	/>
	<path
		d="M5.93805 18.3667V5.51269H8.70797V10.1974H13.2913V5.51269H16.0612V18.3667H13.2913V12.7527H8.70797V18.3667H5.93805Z"
		fill="white"
	/>
</svg>
