<svg viewBox="0 0 25 24" fill="none" color="#FAA625">
	<path
		fill-rule="evenodd"
		clip-rule="evenodd"
		d="M8.94891 12.9523H11.8767C11.3727 11.2381 10.8763 9.6533 10.388 8.04264C9.91405 9.65901 9.43329 11.2381 8.94891 12.9523ZM23.455 0H0.361898C-0.0544809 0 0.00513796 0.0906663 0.00513796 0.492379V23.615C0.00513796 24.0163 -0.0544809 23.9999 0.332565 23.9999H23.4843C23.8711 23.9999 24.005 24.0163 24.005 23.6148V0.521712C24.005 0.0906663 23.8713 0 23.455 0ZM14.538 18.0952C14.2262 18.0952 13.9133 18.0698 13.603 18.0921C13.3792 18.1089 13.3043 18.0148 13.2447 17.8205C12.9563 16.8813 12.6499 15.9424 12.3613 15.0034C12.3032 14.8144 12.2201 14.7455 12.0154 14.7479C10.9634 14.7601 9.91081 14.759 8.85863 14.7466C8.6371 14.7439 8.5352 14.803 8.47196 15.0228C8.20415 15.9569 7.9112 16.8834 7.64054 17.8165C7.58187 18.0188 7.49273 18.0895 7.27787 18.0839C6.64587 18.0681 6.01292 18.0778 5.32093 18.0778C5.50359 17.4978 5.66931 16.9615 5.84073 16.4274C6.89102 13.1512 7.94492 9.87501 8.98758 6.59674C9.06034 6.36855 9.16148 6.29826 9.39577 6.3034C10.136 6.31978 10.8767 6.30759 11.6173 6.3034C11.7558 6.30245 11.8502 6.31064 11.9009 6.46797C13.1399 10.2996 14.3834 14.1548 15.6256 17.986C15.631 18.0034 15.6276 18.0952 15.6304 18.0952H14.538V18.0952ZM18.4813 18.0952H16.1956V9.52377H18.4813V18.0952ZM17.2717 8.3674C16.5736 8.36644 16.0738 7.88587 16.0691 7.21121C16.0645 6.53845 16.5847 6.03807 17.2893 6.03731C17.9994 6.03655 18.4997 6.52055 18.5053 7.21273C18.5102 7.88797 17.9973 8.36854 17.2717 8.3674V8.3674Z"
		fill="currentColor"
	/>
</svg>
