<svg viewBox="0 0 18 24" fill="none" color="#EA2D2E">
	<path
		d="M5.79684 18.5601C2.04437 19.591 8.07995 21.7208 12.8581 19.7077C12.0754 19.4086 11.5141 19.0634 11.5141 19.0634C9.3835 19.4595 8.39513 19.4907 6.46103 19.2734C4.86478 19.0936 5.79684 18.5601 5.79684 18.5601V18.5601ZM12.286 16.549C9.4619 17.0833 7.83066 17.0662 5.76458 16.8566C4.16696 16.6941 5.21281 15.9328 5.21281 15.9328C1.08006 17.2817 7.51352 18.8123 13.2896 17.151C12.6757 16.9383 12.286 16.549 12.286 16.549V16.549ZM14.4991 4.90242C14.4993 4.90242 6.14428 6.95371 10.1345 11.4754C11.3123 12.8088 9.82557 14.0076 9.82557 14.0076C9.82557 14.0076 12.8149 12.4904 11.4423 10.5897C10.1599 8.81793 9.17683 7.93773 14.4991 4.90242ZM16.454 20.5037C16.454 20.5037 17.144 21.0632 15.6938 21.4956C12.9365 22.317 4.21545 22.5646 1.79313 21.5285C0.923053 21.1559 2.55547 20.6393 3.06911 20.5302C3.60464 20.4162 3.91044 20.437 3.91044 20.437C2.94221 19.7666 -2.34882 21.754 1.22357 22.3241C10.9647 23.8768 18.9803 21.6248 16.454 20.5037V20.5037ZM13.106 14.6717C13.5743 14.3575 14.2211 14.0847 14.2211 14.0847C14.2211 14.0847 12.3785 14.4087 10.5427 14.5604C8.29542 14.7457 5.88482 14.7822 4.67473 14.623C1.80994 14.2464 6.24536 13.2103 6.24536 13.2103C6.24536 13.2103 4.52242 13.0957 2.40453 14.1032C-0.100506 15.2942 8.60082 15.8372 13.106 14.6717ZM14.2027 17.5836C14.1816 17.6393 14.1112 17.702 14.1112 17.702C20.2258 16.1214 17.9777 12.1303 15.054 13.1405C14.7975 13.2297 14.663 13.4371 14.663 13.4371C14.663 13.4371 14.8251 13.3729 15.1866 13.2987C16.6646 12.9959 18.7821 15.2443 14.2027 17.5836ZM9.03547 13.1668C8.13333 11.1617 5.07419 9.40742 9.03684 6.33C13.9779 2.49485 11.4425 0 11.4425 0C12.4651 3.96223 7.83496 5.15909 6.16364 7.62665C5.0255 9.30802 6.72224 11.1148 9.03547 13.1668V13.1668ZM14.3681 23.1162C10.6167 23.8107 5.98923 23.7298 3.24547 23.2843C3.24547 23.2843 3.8074 23.7419 6.69565 23.9247C11.0902 24.201 17.8404 23.7709 18 21.726C18.0002 21.726 17.693 22.5012 14.3681 23.1162Z"
		fill="currentColor"
	/>
</svg>
