<svg viewBox="0 0 24 24" fill="none" color="#323330">
	<path d="M-3.05176e-05 0H23.9998V24H-3.05176e-05V0Z" fill="#F0DB4F" />
	<path
		d="M22.0356 18.2759C21.8598 17.181 21.1459 16.2614 19.0311 15.4038C18.2964 15.0662 17.4774 14.8245 17.2333 14.2677C17.1467 13.9437 17.1352 13.7612 17.19 13.5651C17.3474 12.9286 18.1072 12.7302 18.7094 12.9127C19.0972 13.0426 19.4643 13.3415 19.6858 13.8183C20.7214 13.1477 20.7193 13.1521 21.4425 12.6912C21.1777 12.2808 21.0364 12.0914 20.8631 11.9157C20.2402 11.22 19.3915 10.8617 18.0341 10.8891L17.3271 10.9805C16.6496 11.1518 16.0039 11.5074 15.6252 11.9842C14.4891 13.2733 14.8131 15.5294 16.1956 16.4579C17.5575 17.4801 19.5583 17.7127 19.8138 18.6686C20.0625 19.8388 18.9538 20.2176 17.8518 20.083C17.0397 19.9141 16.588 19.5014 16.0997 18.7508C15.201 19.2709 15.201 19.2709 14.2769 19.8024C14.496 20.2815 14.7263 20.4983 15.0936 20.9134C16.8321 22.6768 21.1825 22.5901 21.9628 19.921C21.9944 19.8294 22.2045 19.2182 22.0356 18.2759ZM13.047 11.0304H10.8022L10.793 16.834C10.793 18.0683 10.8569 19.1998 10.6561 19.5466C10.3277 20.2287 9.4767 20.1442 9.08885 20.0119C8.69411 19.8179 8.49338 19.542 8.26083 19.1521C8.19699 19.0401 8.14906 18.9535 8.13296 18.9467L6.30782 20.0644C6.6113 20.6873 7.05839 21.228 7.63104 21.5792C8.48648 22.0926 9.6362 22.25 10.8386 21.9739C11.6212 21.746 12.2965 21.2738 12.65 20.555C13.1611 19.6128 13.0514 18.4722 13.0468 17.2108C13.0583 15.1527 13.047 13.095 13.047 11.0304Z"
		fill="currentColor"
	/>
</svg>
