<svg viewBox="0 0 24 24" fill="none" color="#99425B">
	<path
		d="M23.2739 11.8192C23.2739 10.374 22.181 9.1578 20.7138 8.81078L23.9998 0H7.71549L11.0089 8.83858C9.58788 9.2136 8.54039 10.4085 8.54039 11.8265C8.54039 12.8685 9.11383 13.7925 9.98486 14.3622C9.64133 14.8069 9.24359 15.217 8.79298 15.6059C7.94483 16.3289 7.00423 16.8845 5.98824 17.2529C5.07127 16.69 4.6741 15.6963 5.03301 14.8067C6.43135 14.4178 7.44828 13.2296 7.44828 11.8331C7.44828 10.1171 5.91211 8.72698 4.03165 8.72698C2.14407 8.72698 0.608846 10.1237 0.608846 11.8402C0.608846 12.6881 0.99045 13.466 1.60214 14.0215C1.54851 14.1192 1.49525 14.216 1.44162 14.3203C0.929693 15.2796 0.348755 16.3635 0.126731 17.5797C-0.316379 20.0111 0.409512 21.9641 2.15945 23.0687C3.14543 23.6874 4.23099 24 5.40018 24C7.40927 24 9.45005 23.0826 11.4213 22.1929C12.8277 21.5611 14.2795 20.9005 15.7085 20.5813C16.236 20.4631 16.786 20.3934 17.367 20.3171C18.5433 20.1644 19.7586 20.0045 20.8515 19.4277C22.1276 18.7539 22.9986 17.6279 23.2512 16.3357C23.4415 15.3418 23.2512 14.3415 22.7617 13.466C23.0961 12.9822 23.2747 12.4076 23.2737 11.8192H23.2739ZM21.784 11.8192C21.784 12.7849 20.9203 13.5702 19.8582 13.5702C18.7961 13.5702 17.9323 12.7849 17.9323 11.8192C17.9323 11.5063 18.024 11.2078 18.1844 10.9508C18.2453 10.8531 18.3222 10.7563 18.3981 10.6727C18.4787 10.5867 18.5684 10.5099 18.6657 10.4437L18.6738 10.4363C18.7346 10.3946 18.8034 10.3527 18.8722 10.3116C18.8722 10.3116 18.8797 10.3116 18.8797 10.3043C18.9103 10.2904 18.941 10.2697 18.972 10.2558C18.9793 10.2558 18.9866 10.2485 18.9945 10.2485C19.0254 10.2353 19.0635 10.2214 19.1014 10.2073C19.1375 10.1947 19.1732 10.1808 19.2084 10.1656C19.2159 10.1656 19.2238 10.1581 19.2311 10.1581C19.2619 10.1517 19.2926 10.1376 19.3228 10.131C19.3309 10.131 19.3463 10.1237 19.3536 10.1237C19.3916 10.1171 19.4224 10.1098 19.4605 10.103H19.4685L19.5829 10.0818C19.5908 10.0818 19.6054 10.0818 19.6135 10.0752C19.6442 10.0752 19.6744 10.0679 19.7052 10.0679H19.7432C19.7813 10.0679 19.8201 10.0613 19.8655 10.0613H19.9651C19.9951 10.0613 20.0187 10.0613 20.0487 10.0679H20.0641C20.1256 10.0754 20.1863 10.0818 20.2478 10.0959C21.1189 10.2624 21.784 10.9714 21.784 11.8192V11.8192ZM9.84704 1.3894H21.8675L19.1089 8.78955C18.9945 8.81078 18.8795 8.84516 18.7653 8.87973L15.8617 3.495L12.9499 8.84497C12.835 8.81059 12.7127 8.78936 12.591 8.76869L9.84704 1.3894ZM15.3108 11.2142C15.1659 10.5609 14.7989 9.97753 14.2795 9.54672L15.8617 6.64261L17.4585 9.60909C16.9846 10.0399 16.6409 10.5889 16.5033 11.2142H15.3108ZM11.4828 10.1169C11.5208 10.1094 11.5516 10.103 11.5897 10.0957H11.6124C11.6431 10.0891 11.674 10.0891 11.704 10.0816H11.7348C11.7656 10.0816 11.7882 10.075 11.819 10.075H12.1172C12.1472 10.075 12.1706 10.0816 12.1933 10.0816C12.2087 10.0816 12.216 10.0816 12.2314 10.0891C12.2621 10.0957 12.2848 10.0957 12.3157 10.103C12.3229 10.103 12.3309 10.103 12.3463 10.1096C12.3846 10.1169 12.4226 10.1235 12.4532 10.1308H12.4607C12.4914 10.1374 12.5222 10.144 12.5522 10.1581C12.5603 10.1581 12.5676 10.1654 12.583 10.1654C12.6056 10.172 12.6364 10.1793 12.6591 10.1932C12.6672 10.1932 12.6745 10.1998 12.6825 10.1998C12.7125 10.2139 12.7435 10.2212 12.7742 10.2351H12.7815C12.8196 10.2483 12.8504 10.2622 12.8811 10.2836H12.8886C12.9192 10.2975 12.9499 10.318 12.9807 10.3319C12.9882 10.3319 12.9882 10.3394 12.9953 10.3394C13.0261 10.3525 13.0489 10.3738 13.0797 10.3877L13.0878 10.3943C13.1793 10.4568 13.2635 10.5265 13.3469 10.5962L13.355 10.6028C13.4313 10.6791 13.5074 10.7627 13.5689 10.8531C13.7675 11.1311 13.8825 11.4579 13.8825 11.8122C13.8825 12.7781 13.0188 13.5627 11.9566 13.5627C10.8945 13.5627 10.0308 12.7781 10.0308 11.8122C10.0229 10.9991 10.6419 10.3114 11.4828 10.1169V10.1169ZM3.96283 10.0677C5.02514 10.0677 5.88867 10.8531 5.88867 11.8188C5.88867 12.7847 5.02514 13.5699 3.96283 13.5699C2.90072 13.5699 2.037 12.7847 2.037 11.8188C2.037 10.8531 2.90072 10.0677 3.96283 10.0677V10.0677ZM21.7379 16.0926C21.5701 16.9813 20.9657 17.76 20.0795 18.2252C19.2465 18.6634 18.2224 18.802 17.145 18.9409C16.5569 19.0172 15.9379 19.1008 15.3416 19.2328C13.7521 19.5874 12.224 20.2824 10.7415 20.9488C8.84643 21.8038 7.05767 22.6097 5.40018 22.6097C4.53646 22.6097 3.76444 22.3874 3.03123 21.922C1.35011 20.8659 1.43356 18.8858 1.63289 17.8017C1.81591 16.7868 2.32803 15.835 2.81727 14.9249C2.84728 14.8691 2.87072 14.8206 2.90072 14.7648C3.0693 14.8206 3.24501 14.8625 3.42821 14.8903C3.13812 16.3633 3.96283 17.8848 5.56782 18.6356L5.85848 18.7742L6.17145 18.6699C7.50903 18.2391 8.74685 17.5376 9.83972 16.5995C10.4587 16.0711 10.9862 15.5017 11.4293 14.883C11.605 14.911 11.7809 14.9183 11.9566 14.9183C13.5462 14.9183 14.8831 13.9244 15.2654 12.5902H16.5488C16.9312 13.9312 18.2686 14.9181 19.8582 14.9181C20.4926 14.9181 21.0808 14.7584 21.5847 14.4875C21.784 15.0085 21.8448 15.5501 21.7379 16.0926V16.0926Z"
		fill="currentColor"
	/>
</svg>
