<svg viewBox="0 0 66 24" fill="none" color="rgb(var(--foreground, 0, 0, 0))">
	<path
		d="M14.3102 11.4783H13.6812C13.4191 14.1391 13.0521 17.3739 8.43922 17.3739H6.34245C5.1368 17.3739 5.08438 17.2174 5.08438 16.3304V2.50435C5.08438 1.61739 5.08438 1.25217 7.54809 1.25217H8.3868V0.469566C7.39083 0.52174 5.08438 0.521739 3.98358 0.521739C2.98761 0.521739 0.943253 0.52174 0.052124 0.469566V1.25217H0.628737C2.62067 1.25217 2.67309 1.51304 2.67309 2.45217V16.0696C2.67309 17.0087 2.62067 17.2696 0.628737 17.2696H0.052124V18.0522H13.5763L14.3102 11.4783Z"
		fill="currentColor"
	/>
	<path
		d="M13.8384 0.417391C13.7336 0.104347 13.6812 0 13.3666 0C13.0521 0 12.9473 0.104347 12.8424 0.417391L8.6489 11.0087C8.49164 11.4261 8.17712 12.2609 6.55212 12.2609V12.887H10.5884V12.2609C9.80212 12.2609 9.27793 11.8957 9.27793 11.3739C9.27793 11.2696 9.27793 11.2174 9.33035 11.0087L10.2215 8.76522H15.411L16.4594 11.4261C16.5118 11.5304 16.5642 11.6348 16.5642 11.7391C16.5642 12.2609 15.5683 12.2609 15.0965 12.2609V12.887H20.2336V12.2609H19.8666C18.661 12.2609 18.5037 12.1043 18.3465 11.5826L13.8384 0.417391ZM12.8424 2.29565L15.1489 8.1913H10.4836L12.8424 2.29565Z"
		fill="currentColor"
	/>
	<path
		d="M34.7537 0.626087H18.8707L18.3989 6.41739H19.0279C19.3949 2.24348 19.7618 1.35652 23.7457 1.35652C24.2174 1.35652 24.8989 1.35652 25.161 1.4087C25.6852 1.51304 25.6852 1.77391 25.6852 2.4V16.0174C25.6852 16.9043 25.6852 17.2696 22.9594 17.2696H21.911V18.0522C22.9594 18 25.6328 18 26.8384 18C28.0441 18 30.7174 18 31.8183 18.0522V17.2696H30.7699C28.0441 17.2696 28.0441 16.9043 28.0441 16.0174V2.45217C28.0441 1.93044 28.0441 1.56522 28.5158 1.46087C28.7779 1.4087 29.5118 1.4087 29.9836 1.4087C33.915 1.4087 34.282 2.24348 34.6489 6.46957H35.2779L34.7537 0.626087Z"
		fill="currentColor"
	/>
	<path
		d="M48.7497 17.3217H48.1207C47.4916 21.287 46.8626 23.2174 42.407 23.2174H38.9473C37.7416 23.2174 37.6892 23.0609 37.6892 22.1739V15.2348H39.9957C42.5118 15.2348 42.8263 16.0696 42.8263 18.2609H43.4553V11.4261H42.8263C42.8263 13.6174 42.5642 14.4522 39.9957 14.4522H37.6892V8.1913C37.6892 7.35652 37.7416 7.14783 38.9473 7.14783H42.3021C46.286 7.14783 46.9674 8.55652 47.3868 12.2087H48.0158L47.282 6.36522H32.657V7.14783H33.2336C35.2255 7.14783 35.2779 7.4087 35.2779 8.34783V21.913C35.2779 22.8522 35.2255 23.113 33.2336 23.113H32.657V24H47.6489L48.7497 17.3217Z"
		fill="currentColor"
	/>
	<path
		d="M56.6126 8.13913L60.1771 2.92174C60.7013 2.08696 61.5924 1.25217 63.9513 1.25217V0.469566H57.7134V1.25217C58.7618 1.25217 59.3384 1.82609 59.3384 2.45217C59.3384 2.71304 59.286 2.76522 59.1287 3.02609L56.1408 7.4087L52.786 2.4C52.7336 2.34783 52.6287 2.13913 52.6287 2.03478C52.6287 1.72174 53.2053 1.30435 54.3062 1.25217V0.469566C53.415 0.52174 51.5279 0.521739 50.532 0.521739C49.7457 0.521739 48.1207 0.52174 47.1247 0.469566V1.25217H47.5965C49.0118 1.25217 49.536 1.40869 50.0078 2.13913L54.7779 9.33913L50.532 15.6C50.165 16.1217 49.3787 17.3217 46.7578 17.3217V18.1043H52.9957V17.3217C51.79 17.3217 51.3707 16.5913 51.3707 16.1217C51.3707 15.913 51.4231 15.8087 51.6328 15.4957L55.3021 10.0696L59.4433 16.2783C59.4957 16.3826 59.5481 16.487 59.5481 16.5391C59.5481 16.8522 58.9715 17.2696 57.8707 17.3217V18.1043C58.7618 18.0522 60.7013 18.0522 61.6449 18.0522C62.7457 18.0522 63.9513 18.0522 65.0521 18.1043V17.3217H64.5803C63.2174 17.3217 62.6933 17.2174 62.1166 16.3826L56.6126 8.13913Z"
		fill="currentColor"
	/>
</svg>
