<svg viewBox="0 0 11 24" fill="none">
	<path
		fill-rule="evenodd"
		clip-rule="evenodd"
		d="M10.3234 7.83111C10.6455 8.74468 10.8775 9.67733 10.9537 10.644C11.0485 11.8433 11.0051 13.0341 10.7472 14.2137C10.7402 14.2461 10.7254 14.2766 10.7143 14.3081C10.6335 14.3083 10.551 14.2985 10.4719 14.3105C9.80389 14.4134 9.13646 14.52 8.46903 14.6261C7.77913 14.7357 7.08822 14.8409 6.39952 14.958C6.1555 14.9993 5.85349 14.9499 5.75497 15.2809C5.75216 15.29 5.72406 15.2915 5.70781 15.2966L5.74112 13.319L5.7072 8.54713L6.02868 8.49302C6.55444 8.40861 7.08019 8.32302 7.60635 8.24097C8.23425 8.14318 8.86275 8.04814 9.49105 7.95271C9.76817 7.91041 10.0457 7.87164 10.3234 7.83111Z"
		fill="#439934"
	/>
	<path
		fill-rule="evenodd"
		clip-rule="evenodd"
		d="M5.044 21.0618C4.70487 20.7759 4.3539 20.5026 4.02881 20.2019C2.27957 18.5841 1.00009 16.6801 0.369988 14.3844C0.196408 13.7526 0.0806211 13.1106 0.0434971 12.4578C0.0174099 12.0009 -0.0203167 11.5399 0.0125932 11.0853C0.100286 9.87644 0.278482 8.67915 0.64009 7.51471L0.659957 7.48756C0.695074 7.5334 0.745643 7.57394 0.763502 7.62569C1.11648 8.64491 1.46685 9.66492 1.81542 10.6855C2.91068 13.8927 4.00453 17.1007 5.1016 20.3072C5.12307 20.3697 5.17865 20.4211 5.21859 20.4776L5.044 21.0618Z"
		fill="#439934"
	/>
	<path
		fill-rule="evenodd"
		clip-rule="evenodd"
		d="M10.3234 7.83111C10.0457 7.87164 9.76817 7.91041 9.49105 7.95271C8.86275 8.04814 8.23425 8.14318 7.60635 8.24097C7.08019 8.32302 6.55444 8.40861 6.02868 8.49302L5.7072 8.54713L5.70461 8.34111C5.69398 8.17209 5.67571 8.00327 5.67371 7.83425C5.65986 6.75639 5.65123 5.67853 5.63759 4.60067C5.62916 3.92597 5.61652 3.25148 5.60247 2.57698C5.59384 2.15787 5.58461 1.73858 5.56535 1.32006C5.55491 1.09516 5.51799 0.871447 5.50294 0.646548C5.49451 0.517276 5.50615 0.38702 5.50876 0.257157C5.6727 0.56863 5.83304 0.882465 6.0016 1.19158C6.26789 1.68033 6.69211 2.04041 7.07399 2.43334C8.58363 3.98618 9.6554 5.79168 10.3234 7.83111Z"
		fill="#439934"
	/>
	<path
		fill-rule="evenodd"
		clip-rule="evenodd"
		d="M5.70781 15.2966C5.72406 15.2915 5.75216 15.29 5.75497 15.2809C5.85349 14.9499 6.1555 14.9993 6.39952 14.958C7.08822 14.8409 7.77913 14.7357 8.46903 14.6261C9.13646 14.52 9.80389 14.4134 10.4719 14.3105C10.551 14.2985 10.6335 14.3083 10.7143 14.3081C10.5895 14.7449 10.491 15.191 10.3327 15.6158C10.1529 16.0977 9.93533 16.5679 9.70436 17.0289C9.35858 17.7165 8.93062 18.3614 8.4295 18.9499C8.04441 19.404 7.61518 19.8237 7.18494 20.2383C6.94715 20.4675 6.66681 20.6543 6.40594 20.8603L6.33831 20.815L6.0947 20.6108L5.84266 20.0691C5.6705 19.4372 5.57658 18.7873 5.56292 18.1333L5.56754 18.023L5.60185 17.5456C5.61329 17.3827 5.62854 17.22 5.63557 17.0567C5.66145 16.4699 5.68413 15.8834 5.70781 15.2966Z"
		fill="#439934"
	/>
	<path
		fill-rule="evenodd"
		clip-rule="evenodd"
		d="M5.70781 15.2966C5.68413 15.8834 5.66145 16.4699 5.63557 17.0567C5.62854 17.22 5.61329 17.3827 5.60185 17.5456L5.44876 17.6027C5.10783 16.6185 4.76669 15.6447 4.43297 14.6684C3.88113 13.0532 3.33591 11.4354 2.78486 9.81978C2.3398 8.51574 1.89163 7.21271 1.44037 5.91071C1.4193 5.84972 1.3587 5.8021 1.31656 5.74819L2.29904 3.97694C2.33275 4.0344 2.3773 4.08811 2.39857 4.1499C2.8536 5.46861 3.30631 6.7881 3.75671 8.10835C4.34187 9.82607 4.92341 11.5452 5.50816 13.2631C5.53144 13.3318 5.56997 13.3951 5.60669 13.4721L5.74112 13.319L5.70781 15.2966Z"
		fill="#439934"
	/>
	<path
		fill-rule="evenodd"
		clip-rule="evenodd"
		d="M1.31656 5.74819C1.3587 5.8021 1.4193 5.84972 1.44037 5.91071C1.89163 7.21271 2.3398 8.51574 2.78486 9.81978C3.33591 11.4354 3.88113 13.0532 4.43297 14.6684C4.76669 15.6447 5.10783 16.6185 5.44876 17.6027L5.60185 17.5456L5.56754 18.023L5.53706 18.1333C5.48368 18.6559 5.43873 19.1797 5.37372 19.7011C5.34101 19.9624 5.27136 20.2188 5.21859 20.4776C5.17865 20.4211 5.12307 20.3697 5.1016 20.3072C4.00453 17.1007 2.91068 13.8927 1.81542 10.6855C1.46685 9.66492 1.11648 8.64491 0.763502 7.62569C0.745643 7.57394 0.695074 7.5334 0.659957 7.48756L1.31656 5.74819Z"
		fill="#439934"
	/>
	<path
		fill-rule="evenodd"
		clip-rule="evenodd"
		d="M5.74112 13.319L5.60669 13.4721C5.56997 13.3951 5.53144 13.3318 5.50816 13.2631C4.92341 11.5452 4.34187 9.82607 3.75671 8.10835C3.30631 6.7881 2.8536 5.46861 2.39857 4.1499C2.3773 4.08811 2.33275 4.0344 2.29904 3.97694L3.5139 2.40993C3.55223 2.46011 3.60681 2.50477 3.62668 2.56124C3.96401 3.52951 4.29832 4.49895 4.63063 5.46899C4.94107 6.37488 5.24689 7.28215 5.56094 8.18686C5.58201 8.24746 5.65565 8.28995 5.70461 8.34111L5.7072 8.54713C5.71884 10.1374 5.72988 11.7284 5.74112 13.319Z"
		fill="#439934"
	/>
	<path
		fill-rule="evenodd"
		clip-rule="evenodd"
		d="M5.70461 8.34111C5.65565 8.28995 5.58201 8.24746 5.56094 8.18686C5.24689 7.28215 4.94107 6.37488 4.63063 5.46899C4.29832 4.49895 3.96401 3.52951 3.62668 2.56124C3.60681 2.50477 3.55223 2.46011 3.5139 2.40993C3.90902 2.03058 4.29228 1.63725 4.70325 1.27541C5.06868 0.953901 5.36246 0.609174 5.3759 0.101135C5.3765 0.080082 5.38774 0.0590285 5.405 0L5.50876 0.257157C5.50615 0.38702 5.49451 0.517276 5.50294 0.646548C5.51799 0.871447 5.55491 1.09516 5.56535 1.32006C5.58461 1.73858 5.59384 2.15787 5.60247 2.57698C5.61652 3.25148 5.62916 3.92597 5.63759 4.60067C5.65123 5.67853 5.65986 6.75639 5.67371 7.83425C5.67571 8.00327 5.69398 8.17209 5.70461 8.34111Z"
		fill="#439934"
	/>
	<path
		fill-rule="evenodd"
		clip-rule="evenodd"
		d="M5.21859 20.4776C5.27136 20.2188 5.34101 19.9624 5.37372 19.7011C5.43873 19.1797 5.48368 18.6559 5.53706 18.1333L5.5499 18.1312L5.56292 18.1333C5.57658 18.7873 5.6705 19.4372 5.84266 20.0691C5.80734 20.1147 5.75759 20.1555 5.73893 20.207C5.59304 20.6104 5.45558 21.0169 5.30889 21.4203C5.28882 21.4754 5.23304 21.5183 5.19371 21.5667L5.044 21.0618L5.21859 20.4776Z"
		fill="#EBE9DC"
	/>
	<path
		fill-rule="evenodd"
		clip-rule="evenodd"
		d="M5.19371 21.5667C5.23304 21.5183 5.28882 21.4754 5.30889 21.4203C5.45558 21.0169 5.59304 20.6104 5.73893 20.207C5.75759 20.1555 5.80734 20.1147 5.84266 20.0691L6.0947 20.6108C6.04493 20.68 5.97653 20.7428 5.94884 20.8199L5.46643 22.2089C5.44656 22.2646 5.37874 22.3039 5.33338 22.3509L5.19371 21.5667Z"
		fill="#EBE9DC"
	/>
	<path
		fill-rule="evenodd"
		clip-rule="evenodd"
		d="M5.33338 22.3509C5.37874 22.3039 5.44656 22.2646 5.46643 22.2089L5.94884 20.8199C5.97653 20.7428 6.04493 20.68 6.0947 20.6108L6.33831 20.815C6.22052 20.9291 6.15549 21.061 6.19483 21.2276L6.12078 21.4653C6.08707 21.506 6.0383 21.5415 6.02165 21.5881C5.85328 22.0609 5.69255 22.5363 5.52298 23.0091C5.50151 23.0691 5.44191 23.1161 5.39977 23.1689C5.3779 22.896 5.35566 22.6238 5.33338 22.3509Z"
		fill="#EBE9DC"
	/>
	<path
		fill-rule="evenodd"
		clip-rule="evenodd"
		d="M5.39977 23.1689C5.44191 23.1161 5.50151 23.0691 5.52298 23.0091C5.69255 22.5363 5.85328 22.0609 6.02165 21.5881C6.0383 21.5415 6.08707 21.506 6.12078 21.4653L6.01886 22.5564C5.99157 22.5872 5.95204 22.6142 5.939 22.6502C5.82361 22.9678 5.71485 23.2877 5.59906 23.6053C5.57518 23.6708 5.52943 23.7287 5.49371 23.7899C5.462 23.7491 5.40521 23.7098 5.4026 23.6673C5.39237 23.5018 5.39917 23.3351 5.39977 23.1689Z"
		fill="#EBE9DC"
	/>
	<path
		fill-rule="evenodd"
		clip-rule="evenodd"
		d="M5.49371 23.7899C5.52943 23.7287 5.57518 23.6708 5.59906 23.6053C5.71485 23.2877 5.82361 22.9678 5.939 22.6502C5.95204 22.6142 5.99157 22.5872 6.01886 22.5564L6.02106 23.2726L5.77665 23.8873L5.49371 23.7899Z"
		fill="#EBE9DC"
	/>
	<path
		fill-rule="evenodd"
		clip-rule="evenodd"
		d="M5.77665 23.8873L6.02106 23.2726L6.07141 24L5.77665 23.8873Z"
		fill="#EBE9DC"
	/>
	<path
		fill-rule="evenodd"
		clip-rule="evenodd"
		d="M6.19483 21.2276C6.15549 21.061 6.22052 20.9291 6.33831 20.815L6.40594 20.8603L6.19483 21.2276Z"
		fill="#EBE9DC"
	/>
	<path
		fill-rule="evenodd"
		clip-rule="evenodd"
		d="M5.56292 18.1333L5.5499 18.1312L5.53706 18.1333L5.56754 18.023L5.56292 18.1333Z"
		fill="#439934"
	/>
</svg>
