<svg viewBox="0 0 24 24" fill="none" color="#DF234F">
	<path
		d="M14.1231 0C13.9547 0 13.7864 0.0376471 13.6367 0.0941176C13.9547 0.301176 14.1231 0.583529 14.2166 0.903529C14.2166 0.941176 14.2353 0.978823 14.2353 1.01647C14.2353 1.05412 14.254 1.09176 14.254 1.12941C14.2727 1.67529 14.1044 1.75059 13.9921 2.07059C13.8051 2.48471 13.8612 2.93647 14.0856 3.29412C14.1044 3.33176 14.1231 3.38824 14.1605 3.42588C13.9173 1.84471 15.2267 1.61882 15.4699 1.12941C15.4886 0.696471 15.1332 0.414118 14.8526 0.207059C14.572 0.037647 14.3475 0 14.1231 0ZM16.0872 0.338824C16.0685 0.489412 16.0872 0.451765 16.0685 0.527059C16.0685 0.583529 16.0685 0.64 16.0498 0.696471C16.0311 0.752941 16.0311 0.790588 16.0124 0.847059C15.9937 0.903529 15.975 0.941176 15.9563 0.997647C15.9376 1.03529 15.9188 1.07294 15.9001 1.12941C15.8814 1.14824 15.8627 1.18588 15.844 1.20471C15.8253 1.22353 15.8253 1.24235 15.8066 1.26118C15.7692 1.29882 15.7505 1.35529 15.7131 1.39294L15.6008 1.50588C15.5634 1.54353 15.526 1.58118 15.4886 1.6C15.3577 1.69412 15.208 1.76941 15.0771 1.86353C15.0397 1.90118 14.9835 1.92 14.9461 1.95765C14.9087 1.99529 14.8713 2.01412 14.8339 2.05176L14.7217 2.16471C14.6842 2.20235 14.6468 2.24 14.6281 2.29647C14.5907 2.33412 14.572 2.39059 14.5346 2.42824C14.5159 2.48471 14.4972 2.52235 14.4598 2.57882C14.4411 2.63529 14.4224 2.67294 14.4037 2.72941C14.3849 2.78588 14.3662 2.84235 14.3662 2.88C14.3662 2.89882 14.3662 2.93647 14.3475 2.95529C14.3475 2.97412 14.3475 3.01176 14.3288 3.03059V3.29412C14.3288 3.35059 14.3288 3.38824 14.3475 3.44471C14.3475 3.50118 14.3662 3.53882 14.3849 3.59529C14.4037 3.65176 14.4224 3.68941 14.4411 3.74588C14.4598 3.78353 14.4785 3.80235 14.4785 3.84L13.0568 3.29412C12.8136 3.21882 12.5892 3.16235 12.346 3.10588C12.215 3.06824 12.0841 3.04941 11.9532 3.01176C11.579 2.93647 11.2049 2.88 10.8308 2.84235H10.7934C10.4193 2.80471 10.0638 2.78588 9.68972 2.78588C9.40913 2.78588 9.14724 2.80471 8.88536 2.82353C8.51124 2.84235 8.13712 2.89882 7.76299 2.95529L7.4824 3.01176C7.29534 3.04941 7.10828 3.08706 6.92122 3.14353C6.82769 3.16235 6.73416 3.2 6.64063 3.21882C6.5471 3.25647 6.45357 3.29412 6.37874 3.33176C6.30392 3.36941 6.2478 3.38824 6.17298 3.42588C6.15427 3.42588 6.15427 3.42588 6.13556 3.44471C6.07945 3.48235 6.02333 3.50118 5.96721 3.53882C5.9485 3.53882 5.9298 3.55765 5.9298 3.55765C5.85497 3.59529 5.79886 3.63294 5.74274 3.65177C5.70533 3.67059 5.64921 3.68941 5.61179 3.70824C5.59309 3.72706 5.57438 3.72706 5.55568 3.74588C5.49956 3.78353 5.44344 3.80235 5.38732 3.84C5.3312 3.87765 5.27508 3.89647 5.23767 3.93412C5.20026 3.97177 5.14414 3.99059 5.10673 4.02824C5.10673 4.02824 5.08802 4.02824 5.08802 4.04706C5.05061 4.06588 5.0132 4.10353 4.97579 4.14118L4.95708 4.16C4.91967 4.17882 4.90096 4.21647 4.86355 4.23529C4.84485 4.23529 4.84485 4.25412 4.82614 4.25412C4.78873 4.27294 4.77002 4.31059 4.73261 4.32941C4.73261 4.34824 4.7139 4.34824 4.7139 4.34824L4.60167 4.46118L4.58296 4.48L4.47072 4.59294C4.47072 4.59294 4.47072 4.61176 4.45202 4.61176L4.35849 4.70588C4.33978 4.72471 4.32107 4.72471 4.32107 4.74353L4.20884 4.85647C4.20884 4.87529 4.19013 4.87529 4.19013 4.89412L4.04048 5.04471L4.02178 5.06353C3.92825 5.17647 3.81601 5.27059 3.70377 5.36471C3.59154 5.45882 3.4793 5.55294 3.34836 5.64706C3.21742 5.74118 3.10518 5.81647 2.97424 5.89177C2.84329 5.96706 2.71235 6.02353 2.58141 6.08C2.45047 6.13647 2.31952 6.19294 2.18858 6.23059C1.9267 6.28706 1.66481 6.4 1.44034 6.41882C1.44034 6.32471 1.38422 6.34353 1.3281 6.34353C1.27198 6.36235 1.21586 6.36235 1.17845 6.38118C1.12233 6.4 1.08492 6.41882 1.0288 6.43765C0.972686 6.45647 0.935274 6.47529 0.879155 6.51294C0.841743 6.55059 0.785625 6.56941 0.748213 6.60706C0.710801 6.64471 0.654682 6.68235 0.61727 6.72C0.579858 6.75765 0.52374 6.79529 0.486328 6.83294C0.448915 6.87059 0.411503 6.90824 0.374091 6.96471C0.336679 7.02118 0.299267 7.05882 0.280561 7.11529C0.243149 7.15294 0.224442 7.20941 0.18703 7.26588C0.168324 7.32235 0.130912 7.37882 0.112206 7.43529L0.0560877 7.60471C0.0373817 7.66118 0.0373816 7.69882 0.0186756 7.75529V7.77412C-3.05176e-05 7.83059 -3.05176e-05 7.90588 -3.05176e-05 7.94353C0.0186756 7.92471 0.0186756 7.96235 0.0186756 8V8.07529C0.0186756 8.11294 0.0373816 8.15059 0.0373816 8.18824C0.0560877 8.22588 0.0560877 8.26353 0.0747938 8.30118C0.0934999 8.33882 0.112206 8.37647 0.149618 8.41412C0.168324 8.45177 0.205736 8.48941 0.224442 8.52706C0.261855 8.56471 0.299267 8.60235 0.336679 8.62118C0.374091 8.65882 0.411503 8.69647 0.448915 8.71529C0.598564 8.84706 0.635976 8.88471 0.823037 8.99765C0.860449 9.01647 0.879155 9.03529 0.916568 9.05412H0.935274V9.09176C0.935274 9.14824 0.95398 9.18588 0.972686 9.24235C0.991392 9.29882 1.0101 9.35529 1.0288 9.39294L1.08492 9.50588C1.08492 9.52471 1.10363 9.52471 1.10363 9.54353C1.12233 9.6 1.15975 9.63765 1.17845 9.67529C1.21586 9.71294 1.23457 9.76941 1.27198 9.80706L1.38422 9.92L1.49646 10.0329H1.51516C1.55257 10.0706 1.58999 10.0894 1.6274 10.1271C1.66481 10.1647 1.72093 10.1835 1.75834 10.2024C1.79575 10.2212 1.85187 10.2588 1.90799 10.2776C1.9454 10.2965 1.98281 10.3153 2.03893 10.3153C2.03893 10.3153 2.05764 10.3153 2.05764 10.3341C2.07634 10.3341 2.11376 10.3529 2.13246 10.3529C2.11376 10.6918 2.11376 11.0118 2.15117 11.1247C2.20729 11.2565 2.48788 10.8612 2.74976 10.4282C2.71235 10.8612 2.69365 11.3694 2.74976 11.52C2.82459 11.6706 3.18 11.1812 3.51671 10.6541C7.89394 9.63765 11.897 12.6871 12.3273 16.9976C12.2525 16.32 11.4294 15.9435 11.0366 16.0376C10.8495 16.4894 10.5315 17.0918 10.0264 17.4494C10.0638 17.0353 10.0451 16.6212 9.97031 16.2071C9.83937 16.7718 9.57748 17.3176 9.20336 17.7694C8.62347 17.8071 8.02488 17.5247 7.72558 17.0918C7.70688 17.0729 7.68817 17.0353 7.66946 17.0165C7.65076 16.9788 7.63205 16.9224 7.61334 16.8847C7.59464 16.8471 7.57593 16.7906 7.57593 16.7529V16.6212V16.5271C7.57593 16.4894 7.59464 16.4329 7.61334 16.3953C7.63205 16.3576 7.63205 16.3012 7.65076 16.2635C7.66946 16.2259 7.68817 16.1694 7.72558 16.1318C7.83782 15.8306 7.83782 15.5859 7.63205 15.4541L7.51981 15.3976C7.50111 15.3976 7.4637 15.3788 7.44499 15.3788C7.42628 15.3788 7.40758 15.36 7.38887 15.36C7.35146 15.3412 7.29534 15.3412 7.25793 15.3224C7.22052 15.3035 7.1644 15.3035 7.12699 15.3035C7.08957 15.3035 7.03346 15.2847 6.99604 15.2847H6.90251C6.8464 15.2847 6.80898 15.2847 6.77157 15.3035C6.73416 15.3035 6.67804 15.3224 6.64063 15.3224C6.60322 15.3412 6.5471 15.3412 6.50969 15.36C6.47227 15.3788 6.43486 15.3976 6.37874 15.4165L6.26651 15.4729C4.82614 16.4141 5.68662 18.6353 6.65933 19.2753C6.28521 19.3506 5.91109 19.4259 5.79886 19.5012L5.78015 19.52C6.04203 19.6894 6.32263 19.8212 6.62192 19.9341C7.01475 20.0659 7.44499 20.1788 7.63205 20.2353C8.13712 20.3482 8.66089 20.3859 9.18466 20.3482C11.9157 20.16 14.1605 18.0518 14.572 15.3035C14.5907 15.36 14.5907 15.4165 14.6094 15.4729C14.6281 15.5859 14.6468 15.6988 14.6655 15.8306C14.6842 15.8871 14.6842 15.9435 14.6842 16V16.0188C14.6842 16.0753 14.703 16.1318 14.703 16.1882C14.703 16.2635 14.7217 16.32 14.7217 16.3953V17.1859C14.7217 17.2424 14.703 17.28 14.703 17.3365V17.3929C14.703 17.4494 14.6842 17.5059 14.6842 17.5812C14.6655 17.6376 14.6655 17.6941 14.6468 17.7506V17.7694C14.6281 17.8259 14.6281 17.8824 14.6094 17.9388V17.9576C14.5907 18.0141 14.5907 18.0706 14.572 18.1271V18.1459L14.5159 18.3153V18.3341C14.4972 18.3906 14.4785 18.4659 14.4598 18.5224C14.4411 18.5788 14.4224 18.6353 14.3849 18.7106C14.3662 18.7671 14.3475 18.8424 14.3101 18.8988C14.2914 18.9553 14.254 19.0118 14.2353 19.0871C14.2166 19.1435 14.1792 19.2 14.1605 19.2565C14.1605 19.2753 14.1418 19.2941 14.1418 19.2941C14.1418 19.2941 14.1418 19.3129 14.1231 19.3129C13.7302 20.1224 13.1316 20.8376 12.3834 21.4024C12.3273 21.44 12.2899 21.4776 12.2337 21.5153C12.215 21.5341 12.1963 21.5341 12.1963 21.5529C12.1589 21.5906 12.1028 21.6094 12.0654 21.6471L12.0841 21.6847C12.1776 21.6659 12.2525 21.6659 12.346 21.6471C12.5143 21.6282 12.664 21.5906 12.8323 21.5529C12.8698 21.5529 12.9259 21.5341 12.9633 21.5153C13.0007 21.5153 13.0194 21.4965 13.0568 21.4965C13.0942 21.4965 13.1503 21.4776 13.1878 21.4776C13.2252 21.4588 13.2626 21.4588 13.3 21.44C13.9173 21.2894 14.5159 21.0824 15.0958 20.8376C14.1044 22.1929 12.7949 23.2847 11.261 24C11.9719 23.9435 12.6827 23.8306 13.3748 23.6235C15.8627 22.8894 17.9578 21.1953 19.2111 18.9176C18.9492 20.3482 18.388 21.7224 17.5463 22.9271C18.1449 22.5318 18.6873 22.0612 19.1924 21.5529C20.5767 20.1035 21.4933 18.24 21.7926 16.2635C21.9983 17.2424 22.0731 18.2588 21.9796 19.2565C26.4504 12.9882 22.3537 6.49412 20.6328 4.78118C20.6328 4.76235 20.6141 4.76235 20.6141 4.74353C20.6141 4.81882 20.6141 4.89412 20.5954 4.96941C20.5767 5.12 20.558 5.25176 20.5392 5.38353C20.5018 5.51529 20.4644 5.66588 20.427 5.79765C20.3896 5.92941 20.3335 6.06118 20.2774 6.19294C20.2212 6.32471 20.1651 6.45647 20.0903 6.56941C20.0155 6.68235 19.9407 6.81412 19.8658 6.92706C19.791 7.04 19.6975 7.15294 19.6039 7.26588C19.5104 7.37882 19.4169 7.47294 19.3046 7.58588C19.2485 7.64235 19.1924 7.69882 19.1176 7.73647C19.0615 7.77412 19.0241 7.81176 18.9679 7.86824C18.8557 7.96235 18.7435 8.03765 18.6125 8.11294C18.5003 8.18824 18.3693 8.26353 18.2384 8.32L17.8456 8.48941C17.7146 8.54588 17.5837 8.58353 17.4527 8.62118C17.3218 8.65882 17.1722 8.69647 17.0412 8.71529C16.8916 8.73412 16.7606 8.75294 16.6297 8.77177C16.5361 8.77177 16.4239 8.79059 16.3304 8.79059C16.1807 8.79059 16.0498 8.77177 15.9188 8.77177C15.7692 8.75294 15.6383 8.73412 15.5073 8.71529C15.3577 8.69647 15.2267 8.65882 15.0958 8.60235C15.2267 8.58353 15.3764 8.58353 15.5073 8.54588C15.657 8.52706 15.7879 8.48941 15.9188 8.45177C16.0498 8.41412 16.1994 8.37647 16.3117 8.32L16.7045 8.15059C16.8354 8.09412 16.9477 8.01882 17.0786 7.94353C17.1909 7.86824 17.3218 7.77412 17.434 7.69882C17.5463 7.60471 17.6585 7.51059 17.752 7.41647C17.8643 7.32235 17.9578 7.20941 18.0513 7.11529C18.1449 7.00235 18.2384 6.88941 18.3132 6.77647C18.3319 6.75765 18.3319 6.73882 18.3506 6.72C18.4068 6.62588 18.4816 6.51294 18.5377 6.41882C18.6125 6.28706 18.6686 6.17412 18.7248 6.04235C18.7809 5.91059 18.837 5.77882 18.8744 5.64706L18.9866 5.25177C19.0054 5.10118 19.0428 4.96941 19.0428 4.83765C19.0615 4.68706 19.0615 4.55529 19.0615 4.42353C19.0615 4.32941 19.0615 4.21647 19.0428 4.12235C19.0241 3.97177 19.0054 3.84 18.9866 3.70824C18.9679 3.55765 18.9305 3.42588 18.8931 3.29412C18.8557 3.16235 18.7996 3.03059 18.7622 2.89882C18.7061 2.76706 18.6499 2.63529 18.5938 2.52235C18.519 2.39059 18.4629 2.27765 18.388 2.14588C18.3132 2.03294 18.2197 1.92 18.1449 1.80706C18.0513 1.69412 17.9578 1.6 17.8643 1.48706C17.8082 1.43059 17.752 1.37412 17.6959 1.33647C17.4153 1.11059 17.1347 0.922353 16.8354 0.734118C16.798 0.715294 16.7606 0.696471 16.7045 0.677647C16.4613 0.470588 16.2743 0.414118 16.0872 0.338824V0.338824Z"
		fill="currentColor"
	/>
</svg>
