<svg viewBox="0 0 21 24" fill="none" color="#83CD29">
	<path
		d="M20.1516 5.31787L11.4881 0.235794C10.9423 -0.0785981 10.2273 -0.0785981 9.67718 0.235794L0.945972 5.31787C0.382903 5.64556 0 6.26145 0 6.9202V17.0709C0 17.7296 0.39095 18.3457 0.954216 18.6752L3.25615 20.0026C4.3605 20.5528 4.66647 20.5528 5.1689 20.5528C6.80453 20.5528 7.65394 19.5527 7.65394 17.8082V7.78696C7.65413 7.64545 7.74147 7.43486 7.60389 7.43486H6.50052C6.36078 7.43486 6.08406 7.64545 6.08406 7.78677V17.808C6.08406 18.5813 5.37438 19.3508 4.08181 18.6972L1.70275 17.3053C1.61993 17.2596 1.57008 17.1677 1.57008 17.0709V6.9202C1.57008 6.82453 1.66095 6.72847 1.74495 6.67945L10.4546 1.6061C10.4973 1.58313 10.545 1.57111 10.5934 1.57111C10.6418 1.57111 10.6895 1.58313 10.7323 1.6061L19.3604 6.67825C19.4431 6.72847 19.4299 6.82156 19.4299 6.9202V17.0709C19.4299 17.1677 19.448 17.262 19.3665 17.3086L10.705 22.385C10.6308 22.43 10.5342 22.43 10.4528 22.385L8.23173 21.0454C8.1648 21.0061 8.08414 20.992 8.01977 21.0284C7.40253 21.3822 7.28791 21.4293 6.70895 21.6323C6.56627 21.6825 6.35588 21.7697 6.78902 22.0152L9.69327 23.7527C9.97053 23.9147 10.2851 24 10.6053 24C10.9267 24.0005 11.2426 23.9152 11.521 23.7527L20.1518 18.6752C20.7152 18.3433 21 17.7296 21 17.0709V6.9202C20.9998 6.26145 20.715 5.64715 20.1516 5.31787V5.31787ZM13.2921 15.4624C10.9906 15.4624 10.4838 14.8203 10.3148 13.663C10.2948 13.5383 10.1904 13.3893 10.0648 13.3893H8.94023C8.80108 13.3893 8.68901 13.56 8.68901 13.7001C8.68901 15.1819 9.48583 16.9774 13.2921 16.9774C16.0472 16.9774 17.6271 15.8947 17.6271 13.9785C17.6271 12.0787 16.3579 11.5801 13.6858 11.2225C10.9849 10.8614 10.7105 10.679 10.7105 10.0391C10.7105 9.51156 10.9429 8.80794 12.9427 8.80794C14.7295 8.80794 15.3881 9.19577 15.6592 10.4138C15.6825 10.5284 15.786 10.6105 15.9027 10.6105H17.032C17.1015 10.6105 17.1676 10.5822 17.2163 10.5319C17.2636 10.478 17.2883 10.4103 17.2823 10.3376C17.107 8.2399 15.7292 7.26238 12.9426 7.26238C10.4634 7.26238 8.98478 8.32107 8.98478 10.0957C8.98478 12.0205 10.4561 12.5525 12.8358 12.7904C15.6825 13.0727 15.9039 13.4935 15.9039 14.0597C15.9039 15.0434 15.1232 15.4624 13.2921 15.4624Z"
		fill="currentColor"
	/>
</svg>
