<svg viewBox="0 0 33 24" fill="none">
	<path
		d="M9.8688 23.1553L9.7978 23.0147C9.65604 22.7331 9.65604 22.4515 9.72705 22.0995H2.06663L13.4156 2.11134L18.168 10.6277L19.7283 9.50142L14.9759 0.985095C14.9052 0.844438 14.3376 0 13.4156 0C12.9899 0 12.3516 0.140657 11.8551 1.05555L0.364339 21.2551C0.293337 21.4664 -0.203174 22.3813 0.222336 23.1553C0.506092 23.5778 0.931851 24 1.92487 24H11.5713C10.5783 24 10.0818 23.5775 9.8688 23.1553Z"
		fill="#00C58E"
	/>
	<path
		d="M31.715 21.3245L22.4941 4.85527C22.3523 4.71461 21.8558 3.79947 20.9335 3.79947C20.508 3.79947 19.8698 4.01058 19.3733 4.85527L18.1675 6.82596V10.6267L20.9338 5.91107L30.0837 22.0988H26.6082C26.6663 22.4339 26.6166 22.7786 26.4662 23.0841L26.3952 23.1546C25.9697 23.9286 24.9056 23.999 24.7639 23.999H30.1545C30.3673 23.999 31.3603 23.9288 31.8568 23.1546C32.0695 22.8026 32.2115 22.1692 31.715 21.3245Z"
		fill="#108775"
	/>
	<path
		d="M26.6799 23.1553V23.0849L26.7509 22.9442C26.8217 22.6626 26.8927 22.3811 26.8217 22.0995L26.5382 21.2551L19.3035 8.72718L18.2395 6.82695H18.1685L17.1045 8.72718L9.8698 21.2548L9.58629 22.0995C9.51757 22.4574 9.5673 22.8278 9.72804 23.1553C10.0118 23.5775 10.4373 24 11.4303 24H24.9071C25.1199 24 26.1839 23.9295 26.6804 23.1553H26.6799ZM18.1682 10.6274L24.7649 22.0995H11.5718L18.1682 10.6274Z"
		fill="#2F495E"
	/>
</svg>
