<svg viewBox="0 0 25 24" fill="none" color="#80B5E2">
	<path
		fill-rule="evenodd"
		clip-rule="evenodd"
		d="M9.40362 7.75158C8.70091 7.57504 7.99724 7.63172 7.25464 7.74738C7.25464 9.04611 7.25197 10.3099 7.26171 11.5739C7.26209 11.6386 7.35923 11.7512 7.42221 11.7598C8.23199 11.8692 9.03738 11.878 9.79467 11.5088C10.5781 11.1271 10.9772 10.329 10.8737 9.39193C10.7798 8.53864 10.2747 7.97048 9.40362 7.75158V7.75158ZM24.0521 12.0165V0.436093C24.0521 0.0360707 24.0565 0 23.6682 0H0.478123C0.10043 0 0.00500488 0.0362616 0.00500488 0.417199V23.6072C0.00500488 23.9924 0.0530992 23.9929 0.426593 23.9929C8.16653 23.9931 15.9296 23.9912 23.6695 24C23.9697 24.0004 24.0502 23.9204 24.0495 23.6261C24.0392 19.7563 24.0521 15.886 24.0521 12.0165V12.0165ZM10.569 13.1311C9.5084 13.5093 8.40242 13.5305 7.25732 13.4418V17.7491H5.15796V17.4815C5.15796 13.8754 5.14136 10.2697 5.13124 6.66373C5.1301 6.36429 5.17762 6.21962 5.51504 6.18527C7.10521 6.02266 8.6864 5.83983 10.2676 6.21065C11.9673 6.60896 12.9473 7.73268 13.0218 9.28525C13.1139 11.2079 12.269 12.5247 10.569 13.1311V13.1311ZM19.0255 15.5652C18.9446 16.6666 18.3236 17.3897 17.305 17.7393C15.942 18.2073 14.5863 18.0987 13.2542 17.5693C13.0361 17.4825 12.9939 17.3725 13.0658 17.1502C13.197 16.7444 13.293 16.3272 13.3941 15.9505C13.9573 16.1158 14.4928 16.3221 15.0476 16.4196C15.4395 16.4885 15.8629 16.4481 16.2613 16.3856C16.6183 16.3295 16.8752 16.0872 16.9338 15.7039C16.9934 15.3144 16.876 14.977 16.5321 14.7697C16.2588 14.6052 15.9576 14.4874 15.6689 14.3495C15.2045 14.1275 14.7096 13.9534 14.2814 13.6758C12.596 12.5828 13.1447 10.5491 14.2693 9.78318C14.8711 9.37361 15.537 9.19192 16.2498 9.16692C17.0882 9.13753 17.8955 9.2822 18.6885 9.66752L18.2696 11.1541C17.9375 11.0365 17.6283 10.8838 17.302 10.8231C16.9147 10.751 16.5086 10.7107 16.1177 10.7426C15.5937 10.7855 15.2868 11.1472 15.2868 11.5957C15.2868 11.8613 15.3875 12.0862 15.6091 12.215C15.9271 12.3999 16.2645 12.5524 16.5989 12.7072C16.9607 12.8746 17.3428 13.0032 17.6911 13.1942C18.6205 13.7038 19.1043 14.492 19.0255 15.5652Z"
		fill="currentColor"
	/>
</svg>
