<svg viewBox="0 0 24 24" fill="none">
	<path
		d="M14.2609 24C13.3787 24 12.8042 23.6691 12.4553 23.3496C11.9287 22.8677 11.7198 22.2469 11.5949 21.8761L11.541 21.7213C11.2897 21.0635 11.2044 20.1163 11.1539 18.8966C11.1462 18.7135 11.141 18.5248 11.1351 18.3248C11.1309 18.1784 11.1256 17.9949 11.118 17.8029C10.8001 17.9499 10.4628 18.0532 10.1156 18.1101C9.49355 18.2131 8.82488 18.1798 8.12772 18.0108C7.63581 17.8915 7.12471 17.6442 6.8334 17.2624C5.98433 17.9835 5.17445 17.8858 4.73324 17.743C3.95488 17.4912 3.25832 16.7838 2.60359 15.5808C2.13714 14.7238 1.68603 13.6071 1.26261 12.2617C0.525249 9.91873 0.0567741 7.45098 0.0151588 6.64074C-0.115748 4.10482 0.588278 2.29118 2.10724 1.25076C4.50335 -0.390492 8.13378 0.574706 9.45739 1.01293C10.3467 0.493211 11.3929 0.240305 12.5751 0.258524C13.21 0.268514 13.8147 0.322583 14.3763 0.419749C14.9621 0.241088 16.1193 -0.0153443 17.4439 0.000719459C19.8844 0.028929 21.9068 0.951225 23.2921 2.66789C24.2807 3.89266 23.7918 6.46463 23.4127 7.88882C22.8789 9.89209 21.9438 12.0227 20.7951 13.8775C21.107 13.8796 21.559 13.8434 22.2014 13.7147C23.4688 13.461 23.8395 14.12 23.9401 14.415C24.3431 15.5986 22.5913 16.4931 22.0448 16.7392C21.3446 17.0544 20.203 17.2464 19.2681 17.2048L19.2273 17.2023L18.9816 17.1813L18.9574 17.38L18.934 17.5741C18.8711 19.9247 18.5249 21.4133 17.8124 22.397C17.0655 23.4282 16.0276 23.7171 15.1132 23.9071C14.8013 23.9718 14.5179 24 14.2609 24V24ZM12.4044 15.4449C12.9739 15.8868 13.0238 16.7184 13.0684 18.2725C13.0741 18.4664 13.0793 18.65 13.0864 18.8214C13.1078 19.3405 13.1581 20.5561 13.3545 21.0697C13.3822 21.1424 13.407 21.2161 13.4333 21.2942C13.6521 21.9438 13.7617 22.2696 14.7078 22.0735C15.5019 21.9084 15.9102 21.7603 16.2298 21.3191C16.6942 20.6777 16.954 19.3875 17.0017 17.4844L17.9679 17.5071L17.0083 17.3954L17.0366 17.1631C17.1285 16.3971 17.1948 15.8439 17.7227 15.478C18.1463 15.1845 18.6289 15.2129 19.0134 15.2801C18.5909 14.9706 18.4742 14.6076 18.4431 14.4587L18.3625 14.0738L18.5889 13.748C19.8933 11.8713 20.9689 9.56474 21.5402 7.41964C22.1272 5.21557 21.9482 4.04507 21.7693 3.8237C19.3998 0.887753 15.291 2.09998 14.8619 2.2375L14.7894 2.27551L14.4258 2.34113L14.2395 2.30372C13.726 2.20028 13.1555 2.14308 12.544 2.13348C11.5832 2.11781 10.8081 2.338 10.1725 2.80561L9.73152 3.12983L9.21982 2.9255C8.12651 2.49198 4.91526 1.62042 3.22075 2.78426C2.28016 3.43034 1.85169 4.69624 1.94704 6.5469C1.97855 7.15792 2.40662 9.4709 3.11287 11.7141C4.08881 14.8143 4.97566 15.8441 5.34596 15.9638C5.4106 15.985 5.57828 15.8586 5.74514 15.6643C6.44089 14.8555 7.16133 14.067 7.9055 13.2998L8.46509 12.7287L9.14164 13.1646C9.41436 13.3403 9.71516 13.44 10.024 13.4588L11.6375 12.1244L11.4038 14.4375C11.3986 14.4895 11.3959 14.5602 11.4169 14.6914L11.4872 15.1299L11.1822 15.4605L11.1471 15.4989L12.0335 15.8956L12.4044 15.4449V15.4449Z"
		fill="black"
	/>
	<path
		d="M22.3967 14.6329C19.5836 15.1957 19.3903 14.272 19.3903 14.272C22.3606 9.99828 23.6021 4.57303 22.5307 3.24542C19.6075 -0.376378 14.5472 1.33637 14.4627 1.38084L14.4355 1.38554C13.8797 1.27369 13.2577 1.20708 12.5585 1.19611C11.2856 1.17593 10.3202 1.51974 9.58748 2.05846C9.58748 2.05846 0.560598 -1.54766 0.980387 6.59373C1.06968 8.32588 3.54033 19.6992 6.48734 16.2639C7.56449 15.0078 8.60508 13.9457 8.60508 13.9457C9.12204 14.2785 9.74081 14.4485 10.3895 14.3874L10.44 14.3459C10.4242 14.5018 10.4315 14.6544 10.4602 14.835C9.70102 15.6576 9.92404 15.802 8.4063 16.1049C6.87057 16.4116 7.77277 16.958 8.36185 17.1008C9.07578 17.274 10.7279 17.5193 11.844 16.0042L11.7994 16.177C12.0969 16.4081 12.3058 17.6799 12.2709 18.8328C12.2357 19.9856 12.2123 20.7773 12.4468 21.3955C12.6812 22.0138 12.9147 23.4047 14.9098 22.9901C16.5768 22.6438 17.4407 21.746 17.5611 20.2485C17.6463 19.1838 17.8392 19.3413 17.8516 18.3894L18.0065 17.9389C18.1851 16.4957 18.0348 16.0302 19.062 16.2467L19.3115 16.2679C20.0675 16.3012 21.0567 16.1499 21.6375 15.8882C22.888 15.3258 23.6296 14.3862 22.3967 14.6329V14.6329Z"
		fill="#336791"
	/>
	<path
		d="M14.3618 23.4223C12.6988 23.4223 12.1719 22.1452 11.9563 21.6229C11.6408 20.8576 11.5727 17.8873 11.643 15.4515C11.6441 15.4104 11.6535 15.37 11.6707 15.3324C11.688 15.2949 11.7127 15.261 11.7435 15.2328C11.7743 15.2046 11.8105 15.1826 11.8502 15.168C11.8898 15.1534 11.932 15.1466 11.9743 15.1479C12.0166 15.149 12.0583 15.1582 12.0969 15.1749C12.1356 15.1917 12.1705 15.2156 12.1995 15.2455C12.2286 15.2753 12.2513 15.3104 12.2664 15.3487C12.2815 15.3871 12.2887 15.4279 12.2875 15.469C12.2064 18.2784 12.3214 20.8243 12.5549 21.3908C12.9194 22.2741 13.4721 23.0467 15.0347 22.7221C16.5181 22.4136 17.0736 21.8682 17.3211 20.4771C17.511 19.4097 17.8865 16.3728 17.9328 15.7736C17.9359 15.7326 17.9473 15.6927 17.9663 15.656C17.9854 15.6193 18.0117 15.5867 18.0438 15.5599C18.0759 15.5331 18.1131 15.5127 18.1533 15.4999C18.1936 15.4871 18.236 15.4821 18.2782 15.4852C18.3635 15.4915 18.4426 15.5303 18.4984 15.5931C18.5541 15.6559 18.5819 15.7376 18.5756 15.8202C18.5273 16.4441 18.1536 19.4751 17.9564 20.5835C17.6643 22.2265 16.909 22.9717 15.1698 23.3333C14.8743 23.3947 14.6058 23.4221 14.3618 23.4223ZM5.34456 17.1846C5.19921 17.1842 5.05488 17.161 4.9171 17.1161C3.83692 16.7666 2.80805 15.0607 1.85898 12.0452C1.13657 9.74986 0.678803 7.35401 0.638601 6.5753C0.519614 4.26682 1.13253 2.63361 2.46079 1.7213C5.08841 -0.0841094 9.50872 1.63511 9.69559 1.70916C9.77475 1.74051 9.83782 1.80108 9.87093 1.87753C9.90405 1.95398 9.90448 2.04006 9.87215 2.11682C9.83982 2.19359 9.77736 2.25475 9.69852 2.28686C9.61968 2.31897 9.53091 2.3194 9.45175 2.28804C9.40913 2.27119 5.17043 0.62446 2.83209 2.23221C1.69636 3.01306 1.17495 4.4639 1.28222 6.54416C1.31596 7.20023 1.74363 9.53848 2.47533 11.8626C3.32259 14.5547 4.28681 16.2533 5.12093 16.5231C5.25184 16.5654 5.65022 16.6941 6.2197 16.03C6.88382 15.2566 7.57283 14.5035 8.28572 13.7721C8.34537 13.7144 8.42594 13.6816 8.51019 13.6808C8.59443 13.68 8.67566 13.7112 8.73649 13.7677C8.79732 13.8242 8.83291 13.9016 8.83565 13.9833C8.8384 14.0649 8.80807 14.1444 8.75116 14.2046C8.74146 14.2144 7.77199 15.1972 6.71545 16.4298C6.21505 17.0134 5.73547 17.1846 5.34456 17.1846ZM19.3703 14.5508C19.3119 14.5507 19.2546 14.5352 19.2045 14.506C19.1544 14.4768 19.1135 14.4349 19.0861 14.3849C19.0586 14.3348 19.0458 14.2785 19.0488 14.2219C19.0518 14.1653 19.0706 14.1106 19.1033 14.0636C22.1058 9.743 23.1598 4.52247 22.2571 3.40388C21.121 1.99615 19.5168 1.26094 17.4888 1.21843C15.9872 1.18708 14.7937 1.5589 14.5985 1.62374L14.5494 1.64314C14.3533 1.70289 14.2028 1.59867 14.146 1.47682C14.1136 1.40701 14.1087 1.32812 14.1322 1.25504C14.1557 1.18197 14.2059 1.11975 14.2735 1.08012C14.2828 1.07483 14.3123 1.06269 14.3601 1.04564C14.6916 0.927908 15.9033 0.575289 17.4041 0.59194C19.6481 0.615056 21.5018 1.45409 22.7644 3.01875C23.3618 3.75905 23.3632 5.46455 22.7682 7.6982C22.1618 9.97554 21.0206 12.4229 19.6376 14.4131C19.5758 14.5026 19.474 14.5508 19.3703 14.5508ZM19.5239 16.5509C19.0112 16.5509 18.5516 16.4808 18.2764 16.3209C17.9936 16.1566 17.9397 15.9332 17.9326 15.8147C17.8554 14.5002 18.6033 14.2714 18.9847 14.167C18.9316 14.089 18.856 13.9974 18.7778 13.9027C18.5554 13.6332 18.2508 13.2641 18.016 12.7121C17.9793 12.6259 17.8641 12.4255 17.7308 12.1933C17.0078 10.936 15.5033 8.31979 16.4698 6.98003C16.9171 6.36001 17.8077 6.11592 19.12 6.25207C18.734 5.11154 16.8956 1.54382 12.5335 1.47447C11.2216 1.45331 10.1457 1.84452 9.33721 2.63615C7.52715 4.40885 7.5926 7.61632 7.59361 7.64844C7.59472 7.68948 7.58749 7.73032 7.57233 7.76864C7.55717 7.80697 7.53437 7.84202 7.50523 7.8718C7.4761 7.90157 7.44121 7.9255 7.40254 7.9422C7.36387 7.9589 7.32219 7.96805 7.27988 7.96913C7.23757 7.97021 7.19545 7.9632 7.15593 7.94849C7.11641 7.93379 7.08026 7.91168 7.04955 7.88343C7.01884 7.85518 6.99418 7.82134 6.97695 7.78385C6.95973 7.74635 6.95029 7.70593 6.94918 7.6649C6.94514 7.52248 6.87766 4.15653 8.87924 2.19616C9.81599 1.27876 11.0491 0.825844 12.5442 0.849548C15.3349 0.894018 17.1312 2.26982 18.1465 3.41603C19.2534 4.66528 19.796 6.04324 19.8406 6.50321C19.874 6.84525 19.6208 6.91362 19.5697 6.92381L19.4534 6.92636C18.1655 6.72634 17.3393 6.86524 16.9977 7.33853C16.2625 8.3574 17.6857 10.8322 18.2934 11.8891C18.4485 12.1586 18.5605 12.3536 18.6118 12.4738C18.8114 12.9432 19.0718 13.2586 19.2808 13.5121C19.4649 13.735 19.6243 13.9284 19.6812 14.1553C19.7077 14.2003 20.0833 14.739 22.3117 14.293C22.8703 14.1813 23.2052 14.2767 23.3076 14.577C23.509 15.1677 22.379 15.8566 21.7533 16.1383C21.1927 16.3911 20.298 16.5509 19.5239 16.5509ZM18.5752 15.7632C18.6459 15.8323 18.9996 15.9517 19.7321 15.9211C20.3834 15.8941 21.0703 15.7567 21.4824 15.5712C22.0095 15.3338 22.3614 15.0683 22.5436 14.8871L22.4426 14.9052C21.0178 15.1904 20.0099 15.1524 19.4471 14.7921C19.4093 14.7679 19.3729 14.7417 19.338 14.7136C19.277 14.7369 19.2206 14.7522 19.1804 14.7631C18.8613 14.8499 18.5312 14.9398 18.5752 15.7632ZM9.37095 17.5096C9.01701 17.5096 8.6445 17.4628 8.2641 17.3706C7.86997 17.275 7.20554 16.9872 7.21564 16.5145C7.22715 15.9842 8.02249 15.8251 8.32188 15.7654C9.40347 15.5493 9.47398 15.4627 9.81195 15.0464C9.91053 14.9251 10.0332 14.7741 10.2004 14.5931C10.4487 14.3235 10.72 14.187 11.0069 14.187C11.2067 14.187 11.3705 14.2526 11.4788 14.2963C11.8238 14.435 12.1117 14.7704 12.2301 15.1714C12.3369 15.5332 12.2858 15.8815 12.0866 16.1521C11.4327 17.0401 10.4936 17.5096 9.37095 17.5096ZM7.91199 16.5413C8.00916 16.6142 8.2039 16.7115 8.42066 16.764C8.75015 16.844 9.06974 16.8845 9.37115 16.8845C10.2895 16.8845 11.0269 16.5158 11.5624 15.7887C11.6741 15.637 11.6406 15.4445 11.6107 15.3432C11.5481 15.131 11.3925 14.9381 11.2323 14.8736C11.1455 14.8387 11.0733 14.8121 11.0071 14.8121C10.9715 14.8121 10.8632 14.8121 10.681 15.0098C10.5553 15.1469 10.4344 15.2882 10.3186 15.4333C9.8976 15.9517 9.70468 16.1276 8.45218 16.3777C8.14653 16.4385 7.98976 16.5004 7.91199 16.5413ZM10.3905 15.0995C10.3136 15.0994 10.2392 15.0726 10.1809 15.0239C10.1225 14.9753 10.084 14.908 10.0723 14.8342C10.0643 14.7824 10.0589 14.7301 10.0562 14.6777C9.23519 14.6628 8.44309 14.3212 7.84169 13.7127C7.0813 12.9434 6.73524 11.8775 6.89241 10.7885C7.06312 9.60587 6.99928 8.56192 6.96494 8.00106C6.95544 7.84513 6.94857 7.73248 6.94898 7.65452C6.94958 7.55559 6.9516 7.29328 7.85583 6.84878C8.17744 6.69069 8.82227 6.41486 9.5267 6.34414C10.6937 6.22719 11.463 6.73124 11.6933 7.76363C12.3149 10.5509 11.7426 11.7837 11.3246 12.684C11.2469 12.8517 11.1733 13.01 11.1145 13.1634L11.0626 13.2986C10.8418 13.8728 10.6509 14.3688 10.7095 14.7392C10.7159 14.7798 10.7141 14.8212 10.704 14.8611C10.6939 14.9009 10.6758 14.9385 10.6508 14.9716C10.6258 15.0047 10.5942 15.0327 10.558 15.0539C10.5218 15.0752 10.4817 15.0894 10.4398 15.0956L10.3905 15.0995ZM7.59563 7.7411L7.60816 7.96423C7.64371 8.54684 7.70997 9.63095 7.53058 10.8753C7.40109 11.7735 7.68391 12.6502 8.30693 13.2802C8.79924 13.7781 9.44711 14.053 10.113 14.053H10.1267C10.2012 13.7484 10.3251 13.4267 10.4584 13.0802L10.5099 12.9458C10.5764 12.7726 10.6542 12.6049 10.7366 12.4274C11.1388 11.5608 11.6396 10.4819 11.0628 7.89586C10.9487 7.38359 10.6717 7.08719 10.2166 6.98944C9.28166 6.78923 7.88835 7.47115 7.59563 7.7411ZM9.54104 7.60848C9.52488 7.71897 9.74973 8.01399 10.0431 8.05337C10.3358 8.09314 10.5863 7.86237 10.6022 7.75188C10.6182 7.64139 10.3936 7.51954 10.1002 7.47997C9.8071 7.4404 9.5566 7.49799 9.54104 7.60848ZM10.1103 8.16209L10.0281 8.15661C9.84629 8.13212 9.66246 8.02104 9.5366 7.85923C9.49236 7.80242 9.42024 7.69232 9.43458 7.59398C9.45499 7.4498 9.6364 7.36341 9.91942 7.36341C9.98265 7.36341 10.0485 7.36791 10.1148 7.37693C10.2695 7.39769 10.4131 7.44099 10.5192 7.49838C10.703 7.5979 10.7166 7.70898 10.7083 7.76637C10.6857 7.92564 10.4245 8.16209 10.1103 8.16209ZM9.64791 7.62689C9.657 7.69507 9.83114 7.91996 10.0578 7.95032L10.1105 7.95385C10.3198 7.95385 10.4762 7.79419 10.4946 7.74189C10.4752 7.70623 10.3406 7.61769 10.0855 7.58321C10.0305 7.57557 9.97512 7.5717 9.91962 7.57165C9.75559 7.57165 9.66852 7.6075 9.64791 7.62689ZM18.4568 7.383C18.4728 7.49349 18.2481 7.78851 17.955 7.82808C17.6621 7.86765 17.4114 7.63708 17.3952 7.52659C17.3799 7.41611 17.6045 7.29406 17.8974 7.25468C18.1904 7.21492 18.4407 7.27271 18.4568 7.383ZM17.8873 7.8845C17.6053 7.8845 17.3619 7.67175 17.3419 7.53365C17.3187 7.36791 17.6001 7.24195 17.8898 7.20297C17.9536 7.19435 18.0168 7.19004 18.0776 7.19004C18.3277 7.19004 18.4934 7.26115 18.51 7.37595C18.5207 7.45019 18.4619 7.56479 18.3607 7.66823C18.2938 7.73621 18.1534 7.85394 17.9621 7.8796L17.8873 7.8845ZM18.0778 7.29426C18.0221 7.29426 17.9639 7.29837 17.9049 7.30621C17.6138 7.34558 17.4401 7.45881 17.4486 7.51954C17.4583 7.58634 17.6441 7.78048 17.8875 7.78048L17.9475 7.77637C18.1065 7.75501 18.2259 7.65432 18.2829 7.59633C18.3724 7.50524 18.4079 7.41944 18.4037 7.39025C18.398 7.35146 18.2906 7.29426 18.0778 7.29426ZM18.8788 13.7282C18.8204 13.7282 18.7631 13.7129 18.713 13.6837C18.663 13.6546 18.622 13.6128 18.5945 13.5629C18.567 13.5129 18.5541 13.4566 18.557 13.4C18.56 13.3435 18.5788 13.2888 18.6114 13.2418C19.2978 12.2476 19.1722 11.2338 19.0507 10.2533C18.9988 9.83566 18.9455 9.4037 18.9592 8.98918C18.9734 8.56271 19.0293 8.21087 19.0833 7.87059C19.1473 7.46743 19.2079 7.0866 19.1829 6.63447C19.1806 6.59349 19.1866 6.55247 19.2007 6.51376C19.2148 6.47505 19.2366 6.43941 19.2648 6.40887C19.2931 6.37832 19.3273 6.35348 19.3655 6.33575C19.4036 6.31803 19.445 6.30776 19.4873 6.30555C19.5296 6.30334 19.5719 6.30922 19.6118 6.32286C19.6517 6.3365 19.6885 6.35763 19.7199 6.38504C19.7514 6.41245 19.7771 6.44562 19.7953 6.48263C19.8136 6.51965 19.8242 6.55979 19.8265 6.60077C19.8552 7.11755 19.7867 7.54853 19.7204 7.9656C19.6693 8.28747 19.6164 8.6203 19.6037 9.00916C19.5913 9.37628 19.6396 9.76612 19.6907 10.1787C19.82 11.2213 19.9665 12.4029 19.1471 13.5895C19.1176 13.6322 19.0777 13.6672 19.0309 13.6914C18.9841 13.7156 18.9319 13.7283 18.8788 13.7282Z"
		fill="white"
	/>
</svg>
