<svg viewBox="0 0 32 24" fill="none" color="rgb(var(--foreground, 0, 0, 0))">
	<path
		d="M15.5521 0C6.99176 0 0.052124 4.66603 0.052124 10.4221C0.052124 15.4708 5.39139 19.6807 12.4802 20.639V17.5191C8.7142 16.3301 6.14314 13.9465 6.14314 11.1994C6.14314 7.26456 11.4177 4.07444 17.9246 4.07444C24.4312 4.07444 29.2331 6.25671 29.2331 11.1994C29.2331 13.7491 27.956 15.564 25.8264 16.7238C26.118 16.9446 26.3641 17.2276 26.5298 17.5551L26.6237 17.7144C29.3629 15.8348 31.0521 13.2616 31.0521 10.4218C31.0521 4.66602 24.1125 0 15.5521 0ZM20.4201 18.207C19.7875 18.2695 19.1312 18.3067 18.455 18.3193L18.4555 20.6608C19.4757 20.532 20.4853 20.3295 21.4765 20.0549L21.3552 19.8261C21.1905 19.5178 21.029 19.2078 20.8628 18.9004C20.7248 18.6633 20.5771 18.4318 20.4201 18.207Z"
		fill="currentColor"
	/>
	<path
		fill-rule="evenodd"
		clip-rule="evenodd"
		d="M23.6579 16.1422C23.6579 16.1422 24.5961 16.4264 25.1411 16.7031C25.33 16.7994 25.6574 16.991 25.8933 17.2429C26.0318 17.3902 26.1477 17.5573 26.2372 17.7389L29.9344 23.9976L23.9587 24L21.1646 18.7319C21.1646 18.7319 20.5923 17.7448 20.2401 17.4586C19.9464 17.2198 19.8212 17.1349 19.5308 17.1349H18.1111L18.112 23.9964L12.8241 23.9985V6.47141H23.4428C23.4428 6.47141 28.2793 6.55894 28.2793 11.1785C28.2793 15.7981 23.6581 16.1419 23.6581 16.1419L23.6579 16.1422ZM21.3578 10.2733L18.1566 10.2711L18.1552 13.2514L21.3578 13.2504C21.3578 13.2504 22.841 13.2458 22.841 11.7344C22.841 10.1928 21.3578 10.2733 21.3578 10.2733Z"
		fill="currentColor"
	/>
</svg>
