<svg viewBox="0 0 28 24" fill="none" color="#D82C20">
	<path
		d="M1.1988 9.48138C2.68651 10.1952 10.9022 13.5187 12.1901 14.1433C13.4779 14.7678 14.4105 14.7678 16.0537 13.9202C17.6968 13.0503 25.424 9.88288 26.9117 9.10218C27.6667 8.70068 27.9998 8.3884 27.9998 8.12073V5.33251C27.9998 5.04254 27.6223 4.79718 26.8895 4.52951C25.4462 3.99417 17.7634 0.938289 16.2979 0.380646C14.8324 -0.154691 14.2329 -0.132385 12.5009 0.492174C10.769 1.11673 2.6199 4.32876 1.1544 4.90871C0.443848 5.19868 0.0441651 5.44404 0.0441651 5.73402H-0.000244141V8.56684C0.0441651 8.83451 0.466052 9.12449 1.1988 9.48138V9.48138ZM14.6104 9.88288L10.1028 8.0092L16.5644 7.00544L14.6104 9.88288V9.88288ZM24.4026 5.42174L20.5834 6.93853L20.1615 7.09467L16.3423 5.57788L20.5834 3.90495L24.4026 5.42174V5.42174ZM13.1671 2.63352L12.5454 1.47363L14.4994 2.23202L16.3423 1.62977L15.8538 2.83427L17.719 3.54806L15.2987 3.79342L14.7658 5.10946L13.8998 3.65959L11.1021 3.41422L13.1671 2.63352V2.63352ZM8.34869 4.26184C10.2583 4.26184 11.8126 4.86409 11.8126 5.60018C11.8126 6.33627 10.2583 6.93853 8.34869 6.93853C6.43909 6.93853 4.88477 6.33627 4.88477 5.60018C4.88477 4.86409 6.43909 4.26184 8.34869 4.26184V4.26184ZM26.9117 11.0651C25.424 11.8458 17.719 15.0355 16.0759 15.8831C14.4327 16.753 13.5224 16.7307 12.2345 16.1062C10.9466 15.4816 2.68651 12.1581 1.22101 11.4443C0.466052 11.0874 0.0441651 10.7974 0.0441651 10.5074V13.3403C0.0441651 13.6302 0.466052 13.9202 1.1988 14.2771C2.68651 14.9909 10.9022 18.3144 12.1901 18.939C13.4779 19.5636 14.4105 19.5636 16.0537 18.7159C17.6968 17.846 25.424 14.6786 26.9117 13.8979C27.6667 13.4964 27.9998 13.1841 27.9998 12.9165V10.1282C27.9998 10.3736 27.6445 10.6859 26.9117 11.0651V11.0651ZM26.9117 15.6824C25.424 16.4631 17.719 19.6528 16.0759 20.5004C14.4327 21.3703 13.5224 21.348 12.2345 20.7235C10.9466 20.0989 2.68651 16.7753 1.22101 16.0616C0.466052 15.727 0.0441651 15.4147 0.0441651 15.1247V17.9575C0.0441651 18.2475 0.466052 18.5375 1.1988 18.8944C2.68651 19.6082 10.9022 22.9317 12.1901 23.5563C13.4779 24.1808 14.4105 24.1808 16.0537 23.3332C17.6968 22.4633 25.424 19.2959 26.9117 18.5152C27.6667 18.1137 27.9998 17.8014 27.9998 17.5337V14.7455C27.9998 15.0132 27.6445 15.3032 26.9117 15.6824Z"
		fill="currentColor"
	/>
</svg>
