<svg viewBox="0 0 25 24" fill="none" color="#764ABC">
	<path
		d="M17.3219 16.7617C15.5641 20.3957 12.4859 22.8407 8.4135 23.6445C7.78909 23.7992 7.1481 23.8748 6.50525 23.8697C4.16144 23.8697 2.01294 22.8822 0.969947 21.2646C-0.43048 19.1099 -0.907054 14.5418 3.71025 11.1626C3.80401 11.6781 3.99542 12.3851 4.12237 12.8038C3.21597 13.4847 2.47404 14.3646 1.95239 15.3772C1.093 17.0836 1.1887 18.788 2.20631 20.3641C2.90945 21.4266 4.02276 22.0724 5.45444 22.2699C7.24264 22.4988 9.05674 22.1533 10.6401 21.2824C13.1226 19.9631 14.7769 18.3871 15.859 16.2324C15.553 15.9127 15.3719 15.4917 15.3492 15.0474C15.3329 14.5706 15.5043 14.1067 15.8258 13.7576C16.1473 13.4084 16.5926 13.2025 17.0641 13.185H17.1305C17.5891 13.1827 18.0311 13.3587 18.3649 13.6767C18.6987 13.9946 18.8989 14.4302 18.924 14.8932C18.949 15.3562 18.7971 15.8113 18.4997 16.1642C18.2022 16.5172 17.7819 16.741 17.3258 16.7893L17.3219 16.7617ZM22.9217 12.7722C25.3065 15.5056 25.371 18.7228 24.4491 20.5892C23.5897 22.2936 21.324 24 18.277 24C16.8547 23.9707 15.4554 23.6304 14.1754 23.0026C14.6226 22.6807 15.2574 22.1652 15.607 21.8433C16.5942 22.2757 17.6565 22.5053 18.7321 22.5188C20.7048 22.5188 22.199 21.5866 23.0897 19.8822C23.6619 18.7564 23.6951 17.4371 23.1541 16.0862C22.4902 14.3865 21.3089 12.9444 19.781 11.9684C17.7764 10.602 15.4132 9.87357 12.9957 9.87689H12.4234C12.2899 10.1886 12.0728 10.4563 11.7967 10.6497C11.5205 10.843 11.1963 10.9544 10.8608 10.971H10.8003C10.3362 10.9653 9.8927 10.7768 9.56387 10.4457C9.23503 10.1145 9.04682 9.66684 9.03919 9.19765C9.03156 8.72845 9.20513 8.27473 9.52302 7.93285C9.84091 7.59098 10.2781 7.38788 10.7417 7.36669H10.8061C11.1292 7.36693 11.446 7.4572 11.7216 7.62757C11.9973 7.79794 12.2211 8.04183 12.3687 8.33246H12.8785C16.9411 8.33246 20.5076 9.90849 22.9217 12.7722V12.7722ZM6.75916 17.3147C6.72571 16.9867 6.80429 16.6571 6.98182 16.3805C5.20053 13.26 4.24738 9.30415 5.7103 5.18631C6.75916 2.09151 9.39985 0 12.2632 0C15.318 0 18.4997 2.70375 18.8806 7.91376C18.404 7.75379 17.7087 7.51876 17.2907 7.43186C17.1872 5.72745 15.7633 1.48124 12.3902 1.54444C11.1811 1.57801 9.39985 2.15668 8.48381 3.34562C7.3507 4.76489 6.69153 6.51073 6.60095 8.33246C6.38624 10.8304 6.96583 13.3324 8.25529 15.474C8.32648 15.4477 8.40236 15.4369 8.47795 15.4424H8.54046C9.01288 15.4338 9.46936 15.6152 9.80946 15.9469C10.1496 16.2786 10.3454 16.7333 10.354 17.211C10.3625 17.6887 10.1831 18.1503 9.85504 18.4942C9.52702 18.8381 9.07734 19.0361 8.60491 19.0448H8.54046C8.07957 19.0431 7.63709 18.8617 7.30524 18.5383C6.97339 18.2148 6.77777 17.7744 6.75916 17.3088V17.3147Z"
		fill="currentColor"
	/>
</svg>
