<svg viewBox="0 0 32 24" fill="none" color="#CB6699">
	<path
		fill-rule="evenodd"
		clip-rule="evenodd"
		d="M-0.000244141 10.0077C-0.000244141 10.1874 0.0525141 10.306 0.082079 10.4212C0.274761 11.1709 0.688925 11.8142 1.18032 12.401C1.88019 13.2373 2.73732 13.9105 3.61535 14.5436C4.3769 15.0926 5.154 15.6293 5.91861 16.1742C6.04987 16.2678 6.17399 16.3754 6.31646 16.4901C6.19387 16.5566 6.09192 16.6151 5.9859 16.669C4.97687 17.1823 4.00606 17.7576 3.11121 18.4546C2.57191 18.8747 2.05044 19.3212 1.68216 19.9048C1.08958 20.8433 0.879823 21.8431 1.32151 22.9107C1.45048 23.2225 1.64724 23.4919 1.92479 23.691C2.01476 23.7554 2.11569 23.8193 2.22095 23.8443C2.4906 23.908 2.76535 23.9496 3.03832 24L3.81134 23.9995C4.66618 23.9231 5.4443 23.6294 6.14749 23.1428C7.24649 22.3821 7.98688 21.3624 8.30522 20.0535C8.53664 19.1022 8.54607 18.1499 8.27336 17.203C8.24726 17.1152 8.21715 17.0287 8.18313 16.9438C8.15 16.8587 8.11101 16.7759 8.06513 16.6698L9.81762 15.6592L9.84387 15.6817C9.81201 15.7862 9.77811 15.8905 9.74931 15.9961C9.54108 16.7587 9.40269 17.5347 9.45239 18.3263C9.5054 19.1697 9.74014 19.9592 10.2325 20.6638C10.6307 21.2338 11.5793 21.255 12.0024 20.683C12.1525 20.4798 12.298 20.2674 12.4074 20.0407C12.6931 19.449 12.9576 18.8469 13.2306 18.2488L13.2782 18.1394C13.2586 18.4226 13.2357 18.6713 13.2252 18.9202C13.2089 19.309 13.2316 19.6954 13.3641 20.0653C13.4776 20.3817 13.6705 20.6181 14.0319 20.6598C14.2791 20.6881 14.4761 20.5746 14.6579 20.4307C14.9394 20.2076 15.1727 19.9295 15.3437 19.6131C15.8282 18.7209 16.3257 17.834 16.7649 16.9193C17.24 15.9299 17.6554 14.9116 18.0966 13.9054L18.1695 13.727C18.2737 14.1377 18.3463 14.54 18.4802 14.9208C18.6356 15.3627 18.8281 15.7942 19.0376 16.2136C19.1367 16.4117 19.1252 16.5402 18.9879 16.7064C18.4129 17.4015 17.8478 18.1052 17.2823 18.808C17.1571 18.9632 17.0325 19.1211 16.9282 19.2906C16.865 19.3976 16.8234 19.5161 16.8059 19.6392C16.7884 19.7526 16.8153 19.8683 16.881 19.9623C16.9467 20.0562 17.0461 20.1209 17.1584 20.143C17.385 20.1919 17.6174 20.2085 17.8486 20.1923C18.6379 20.134 19.3546 19.8562 19.9882 19.3854C20.8092 18.7756 21.0727 17.9434 20.8739 16.9571C20.8201 16.6895 20.7251 16.4293 20.6325 16.1714C20.591 16.0551 20.5882 15.9736 20.6639 15.8652C21.3202 14.9254 21.8809 13.9284 22.4024 12.9084C22.423 12.8682 22.4442 12.8281 22.4803 12.7852C22.6493 13.6669 22.9037 14.5168 23.3594 15.2879C23.127 15.5125 22.8968 15.7162 22.6886 15.9406C22.2301 16.4349 21.8325 16.9717 21.625 17.6262C21.5358 17.9084 21.4672 18.1951 21.507 18.4965C21.5687 18.9645 21.951 19.2686 22.41 19.162C23.3923 18.934 24.2402 18.4699 24.8598 17.6477C25.2768 17.0941 25.3148 16.4766 25.1402 15.8297C25.0923 15.6539 25.0354 15.4808 24.9743 15.2792C25.2166 15.2038 25.4529 15.1133 25.6973 15.0573C26.9663 14.767 28.2216 14.8176 29.4444 15.2771C30.1583 15.5455 30.7351 15.9945 31.0771 16.701C31.4949 17.5646 31.2639 18.384 30.4522 18.9299C30.3765 18.9808 30.2898 19.0209 30.2271 19.0846C30.207 19.1079 30.192 19.1352 30.183 19.1647C30.174 19.1942 30.1713 19.2252 30.1749 19.2558C30.1802 19.2873 30.2631 19.3266 30.3107 19.3261C30.5776 19.3241 30.794 19.1837 31.0017 19.0396C31.5221 18.6785 31.9019 18.1926 31.9837 17.5529L31.9998 17.5048L31.9801 17.0882C31.9722 17.0642 31.986 17.0404 31.9842 17.0223C31.8736 16.0906 31.3774 15.3681 30.6556 14.8017C29.8196 14.1462 28.8325 13.8763 27.7885 13.8336C26.9419 13.797 26.0963 13.9275 25.2997 14.2177C25.0711 14.3008 24.8445 14.3992 24.6146 14.492C24.5838 14.436 24.5507 14.3823 24.5234 14.3269C24.2874 13.8423 24.0014 13.3791 23.9382 12.8235C23.8933 12.4289 23.8383 12.0348 23.9318 11.6445C24.0218 11.269 24.139 10.9 24.2494 10.5296C24.3062 10.3389 24.2662 10.2321 24.0848 10.1462C24.0215 10.1146 23.954 10.0924 23.8844 10.0803C23.4384 10.0154 22.9985 10.0524 22.5665 10.1784C22.4136 10.2232 22.3024 10.309 22.2685 10.4788C22.2492 10.5761 22.2097 10.6694 22.1821 10.7655C22.0692 11.165 21.9892 11.5721 21.8067 11.9527C21.3495 12.9073 20.8275 13.8259 20.2933 14.7378C20.2354 14.8362 20.1745 14.9328 20.1016 15.0522C19.9141 14.6586 19.714 14.3054 19.6533 13.8913C19.5848 13.4231 19.5307 12.9556 19.647 12.491C19.7334 12.1444 19.8463 11.8042 19.9502 11.4622C19.9994 11.2997 19.9768 11.2143 19.8299 11.1287C19.7558 11.0855 19.6719 11.0472 19.5883 11.0347C19.131 10.9648 18.6637 11.0031 18.2238 11.1466C18.0854 11.1916 18.0127 11.2813 17.9704 11.4244C17.846 11.8466 17.74 12.2791 17.5654 12.6806C16.8584 14.3061 16.131 15.9232 15.4044 17.5401C15.2527 17.8777 15.0751 18.2036 14.9041 18.5323C14.8607 18.6156 14.7975 18.6889 14.7435 18.7671C14.7002 18.7158 14.6833 18.6805 14.6836 18.6452C14.6849 18.4374 14.6602 18.2235 14.6997 18.0226C14.821 17.415 14.9551 16.8101 15.1018 16.2082C15.2216 15.7108 15.3611 15.2181 15.4938 14.724C15.5384 14.5587 15.5392 14.404 15.4207 14.265C15.2216 14.0322 14.8057 13.981 14.559 14.1605L14.4499 14.2223L14.471 14.046C14.523 13.668 14.5335 13.2912 14.43 12.9188C14.301 12.4547 13.9707 12.1876 13.4906 12.2024C13.2668 12.2093 13.0318 12.2477 12.8246 12.3294C11.9532 12.6719 11.2831 13.2784 10.7127 14.0081C10.6598 14.0759 10.5943 14.1327 10.5198 14.1753C9.78245 14.5852 9.04281 14.9901 8.30343 15.3965L7.48046 15.8486C7.25974 15.6375 7.05916 15.4185 6.83156 15.2326C6.13653 14.6642 5.43028 14.1099 4.73041 13.5478C4.11005 13.0497 3.50907 12.5309 3.04928 11.8712C2.70724 11.3805 2.48678 10.8435 2.46563 10.2367C2.43887 9.46357 2.65754 8.75713 3.05005 8.09951C3.55214 7.25812 4.23698 6.58286 4.98986 5.97125C5.78633 5.32461 6.6478 4.77562 7.54061 4.27441C8.78973 3.57334 10.0745 2.95278 11.4521 2.54308C12.8646 2.12289 14.2977 1.88239 15.776 2.05005C16.3571 2.11599 16.9214 2.24941 17.4395 2.53439C17.8364 2.7524 18.1618 3.03789 18.3132 3.48414C18.4626 3.92324 18.458 4.36821 18.3545 4.81421C18.1442 5.71745 17.6511 6.46197 17.0305 7.12726C16.0125 8.21784 14.7708 8.96032 13.3728 9.45079C12.569 9.73316 11.7327 9.91206 10.884 9.98317C10.1885 10.0417 9.50744 9.97985 8.84886 9.7373C8.41277 9.57654 8.03302 9.33066 7.72768 8.97387C7.67314 8.90997 7.6033 8.84071 7.50161 8.90051C7.40196 8.9593 7.38437 9.05438 7.41776 9.15073C7.47358 9.31073 7.52506 9.47737 7.61197 9.6205C7.83039 9.9796 8.14898 10.24 8.49968 10.4634C9.17331 10.8931 9.92619 11.0375 10.7069 11.0709C11.8915 11.1223 13.0473 10.9449 14.1869 10.6262C15.8137 10.1713 17.2282 9.36772 18.3627 8.10002C19.3072 7.04445 19.9818 5.85317 20.1264 4.41473C20.197 3.71264 20.1218 3.02486 19.794 2.38436C19.4385 1.69044 18.8732 1.17442 18.1972 0.818896C17.2129 0.301336 16.1506 0 15.0542 0H13.9557C12.6278 0 11.344 0.381589 10.0962 0.836787C9.15164 1.18157 8.22544 1.58846 7.32626 2.03881C5.36809 3.02 3.54449 4.20311 2.04662 5.82991C1.30036 6.64037 0.668536 7.53466 0.305091 8.58768C0.195396 8.90206 0.100899 9.22158 0.0219296 9.5451M7.11727 18.7495C7.0324 19.8892 6.5173 20.8131 5.67547 21.5615C5.20192 21.9822 4.65879 22.2817 4.0262 22.387C3.79682 22.4251 3.56208 22.4343 3.33958 22.3389C3.02226 22.203 2.95116 21.9206 2.94504 21.6197C2.93561 21.1403 3.10306 20.7068 3.3327 20.2943C3.63242 19.7565 4.07182 19.3466 4.54104 18.9637C5.28016 18.3602 6.08198 17.8496 6.90318 17.3676L6.96511 17.342C7.09204 17.8123 7.15244 18.2767 7.11727 18.7495V18.7495ZM13.5293 13.7965C13.4694 14.1605 13.3945 14.5247 13.2884 14.8774C12.9219 16.0983 12.4512 17.2814 11.9422 18.4487C11.8482 18.6647 11.7113 18.8617 11.5923 19.0664C11.572 19.0979 11.5478 19.1266 11.5202 19.1518C11.3728 19.2977 11.2332 19.2901 11.1587 19.0991C11.0721 18.8773 11.0188 18.6399 10.9729 18.405C10.9421 18.2473 10.9495 18.0817 10.9398 17.9201C10.9498 16.7715 11.2992 15.7277 11.892 14.756C12.1364 14.3552 12.4025 13.9734 12.809 13.7198C12.9355 13.641 13.0723 13.5803 13.2156 13.5394C13.4322 13.4783 13.5652 13.5788 13.5293 13.7965V13.7965ZM17.9039 19.3857L19.4762 17.5447C19.5417 18.2284 18.3828 19.5932 17.9039 19.3857ZM22.9256 18.1468C22.8145 18.2107 22.6934 18.2567 22.5795 18.3158C22.4752 18.37 22.4408 18.3153 22.4378 18.2253C22.4362 18.163 22.4442 18.1009 22.4615 18.041C22.6738 17.2901 23.0645 16.6491 23.6459 16.1277L23.6866 16.1067C23.9632 16.8825 23.6436 17.7343 22.9256 18.1468Z"
		fill="currentColor"
	/>
</svg>
