<svg viewBox="0 0 25 24" fill="none">
	<path
		d="M22.5216 3.17551C19.8431 -0.0142278 14.5525 -0.959599 10.7286 1.06802L4.0107 4.6305C3.10189 5.10469 2.32208 5.73131 1.72096 6.47062C1.11983 7.20993 0.710897 8.04542 0.52021 8.92367C0.43525 9.31779 0.392012 9.71975 0.391211 10.1229C0.395336 11.2162 0.717459 12.2925 1.33002 13.2598C0.755709 13.9858 0.363648 14.801 0.177649 15.6564C-0.0128706 16.5504 0.0138131 17.4771 0.255461 18.3586C0.497335 19.2461 0.949583 20.0844 1.58596 20.8246C4.26419 24.0142 9.56667 24.9595 13.3787 22.9321L20.0897 19.3694C20.9979 18.8947 21.7768 18.2673 22.3764 17.5273C22.9759 16.7872 23.3827 15.951 23.5708 15.0723C23.657 14.6773 23.7004 14.2766 23.6998 13.875C23.6981 12.7837 23.3801 11.7092 22.7726 10.742C23.3467 10.0166 23.7388 9.20211 23.9252 8.34749C24.0084 7.95205 24.0508 7.55155 24.0519 7.15012C24.0523 5.72606 23.5172 4.33763 22.5216 3.17926V3.17551Z"
		fill="#FF3E00"
	/>
	<path
		d="M10.072 21.125C9.63074 21.2196 9.18075 21.2673 8.72949 21.2675C7.86793 21.2677 7.01912 21.0941 6.25581 20.7612C5.49269 20.4286 4.83775 19.9469 4.34726 19.3574C3.74838 18.6607 3.42664 17.8254 3.4272 16.9687C3.42755 16.7272 3.45268 16.4864 3.5022 16.25C3.5425 16.0722 3.59673 15.8977 3.66438 15.7284L3.79113 15.4081L4.13369 15.6249C4.92925 16.1107 5.81819 16.4806 6.76243 16.7188L7.01143 16.7812L6.98799 16.9882V17.0956C6.98743 17.3546 7.08437 17.6075 7.26493 17.8183C7.41081 17.9979 7.6073 18.1453 7.83718 18.2473C8.07262 18.3505 8.32689 18.404 8.58399 18.4042C8.71971 18.4046 8.85508 18.3903 8.98767 18.3613C9.13155 18.3299 9.27055 18.2793 9.40092 18.2109L16.1115 14.6308C16.3127 14.5246 16.4785 14.3778 16.593 14.204C16.7074 14.0302 16.767 13.835 16.7663 13.6366C16.7644 13.3777 16.665 13.1257 16.4822 12.9159C16.3341 12.7385 16.1365 12.5938 15.9064 12.4937C15.6708 12.3926 15.417 12.3409 15.1607 12.3418C15.025 12.3414 14.8896 12.3558 14.757 12.3849C14.6138 12.4155 14.4756 12.4661 14.3464 12.5351L11.788 13.8945C11.3574 14.12 10.8989 14.2875 10.4243 14.3925C9.98554 14.4866 9.53461 14.5346 9.08161 14.535C8.22024 14.535 7.37181 14.3613 6.60868 14.0291C5.84556 13.6968 5.19044 13.2157 4.69938 12.627C4.10126 11.9298 3.77951 11.0947 3.77932 10.2382C3.7797 9.99729 3.80482 9.75692 3.85432 9.51954C3.96926 8.99155 4.21451 8.48923 4.57507 8.04449C4.93544 7.59955 5.40306 7.22193 5.94812 6.93562L12.6658 3.37501C13.0873 3.15188 13.5471 2.98313 14.0295 2.87495C14.4683 2.78138 14.9192 2.73432 15.372 2.73432C16.2355 2.73245 17.0865 2.90495 17.8523 3.23701C18.618 3.56888 19.2754 4.05075 19.7683 4.64063C20.3629 5.33944 20.6805 6.17512 20.6767 7.03124C20.6763 7.27343 20.6511 7.51493 20.6016 7.75199C20.5613 7.92978 20.5072 8.10413 20.4396 8.27342L20.3128 8.59367L19.9703 8.3848C19.1753 7.89824 18.2861 7.5283 17.3415 7.29093L17.0925 7.22662L17.116 7.01943V6.91218C17.116 6.65249 17.0192 6.39937 16.839 6.18749C16.6911 6.01031 16.494 5.86575 16.2641 5.76562C16.029 5.6645 15.7757 5.61262 15.5198 5.61319C15.3854 5.61561 15.2517 5.63265 15.121 5.664C14.9768 5.69408 14.8377 5.74472 14.7079 5.81437L7.99018 9.37498C7.83082 9.45766 7.68991 9.57184 7.57599 9.7106C7.46976 9.84014 7.3954 9.99279 7.35887 10.1563C7.34233 10.2242 7.3321 10.2935 7.32831 10.3633C7.32812 10.6217 7.42487 10.8737 7.60524 11.084C7.75299 11.2612 7.95024 11.406 8.17993 11.5059C8.41503 11.607 8.66837 11.6588 8.9243 11.6582C9.06003 11.6586 9.1954 11.6441 9.32798 11.615C9.47211 11.5847 9.61123 11.5341 9.74123 11.4648L12.3043 10.0976C12.7347 9.87165 13.1933 9.70417 13.668 9.59961C14.1093 9.50514 14.5593 9.45738 15.0105 9.45711C15.8723 9.45711 16.7211 9.63054 17.4846 9.96279C18.2481 10.295 18.9038 10.7764 19.3952 11.3653C19.9933 12.0622 20.3151 12.8973 20.3153 13.754C20.3158 13.9976 20.2899 14.2408 20.2378 14.4804C20.1236 15.0086 19.8784 15.5111 19.518 15.956C19.1574 16.4008 18.6896 16.7782 18.144 17.0643L11.4381 20.6249C11.007 20.8516 10.5477 21.0197 10.0722 21.125H10.072Z"
		fill="white"
	/>
</svg>
