<svg viewBox="0 0 25 24" fill="none">
	<path
		d="M24.9978 5.9627C24.9976 5.43239 24.9445 4.90345 24.8393 4.3838C24.734 3.85184 24.5551 3.33734 24.3078 2.85532C24.0493 2.38844 23.728 1.9596 23.353 1.58091C22.9663 1.20048 22.5171 0.890087 22.0252 0.663418C21.5398 0.417349 21.0206 0.245404 20.4848 0.153252C19.9532 0.0504117 19.3695 0.0504117 18.838 0H5.72625C5.31724 0.00669543 4.90915 0.041053 4.50473 0.10284C4.1034 0.150338 3.71055 0.253485 3.33737 0.409343C3.23106 0.459755 3.07261 0.512183 2.9663 0.562595C2.61323 0.752859 2.27763 0.974192 1.96341 1.224C1.85711 1.32684 1.7508 1.37725 1.64449 1.47807C1.25358 1.84258 0.930291 2.27411 0.689743 2.75248C0.427052 3.22772 0.247276 3.74469 0.158212 4.28096C0.0791689 4.80426 0.0262837 5.33122 -0.000244141 5.85986V18.0373C-7.91505e-05 18.5676 0.0530054 19.0966 0.158212 19.6162C0.263471 20.1482 0.442389 20.6627 0.689743 21.1447C0.948245 21.6116 1.26952 22.0404 1.64449 22.4191C2.03124 22.7995 2.48045 23.1099 2.97232 23.3366C3.45772 23.5827 3.97691 23.7546 4.51275 23.8467C5.04428 23.9496 5.62796 23.9496 6.1595 24H18.84C19.3924 23.9996 19.9437 23.9483 20.4868 23.8467C21.0226 23.7546 21.5418 23.5827 22.0272 23.3366C22.5086 23.0917 22.9551 22.7831 23.355 22.4191C23.7459 22.0546 24.0692 21.623 24.3098 21.1447C24.5725 20.6694 24.7522 20.1525 24.8413 19.6162C24.9203 19.0929 24.9732 18.5659 24.9998 18.0373V5.9627H24.9978Z"
		fill="#F05138"
	/>
	<path
		d="M16.7079 18.5535C14.4795 19.7896 11.4166 19.9167 8.33376 18.6483C5.93007 17.6678 3.87489 15.9838 2.43477 13.8148C3.10404 14.3299 3.83523 14.7581 4.61104 15.0892C7.7942 16.5209 10.9754 16.4221 13.2158 15.0892C10.0266 12.738 7.31883 9.68106 5.30102 7.18467C4.90283 6.76279 4.5474 6.30211 4.23997 5.80944C6.67899 7.94892 10.5582 10.649 11.9381 11.4132C9.96781 9.38361 8.15718 7.20331 6.52254 4.89195C9.23979 7.5466 12.2298 9.90363 15.4422 11.9234C15.5846 12 15.695 12.0645 15.7832 12.125C15.8774 11.8939 15.9584 11.6576 16.0259 11.4172C16.7701 8.81801 15.9196 5.86389 14.0623 3.41791C18.3626 5.91228 20.92 10.5986 19.8489 14.5226C19.8208 14.6295 19.7908 14.7242 19.7587 14.8352L19.7968 14.8795C21.9209 17.4263 21.3372 20.1223 21.0704 19.6182C19.9171 17.4445 17.785 18.1159 16.7079 18.5535Z"
		fill="#FEFEFE"
	/>
</svg>
