<svg viewBox="0 0 24 24" fill="none">
	<path d="M4.06443 8.75328H23.2011V22.8979H4.06443V8.75328Z" fill="white" />
	<path
		d="M-0.000213623 24H23.9998V0H-0.000213623V24ZM19.3399 11.04C19.9148 11.1734 20.4372 11.474 20.8414 11.904C21.0639 12.1356 21.2573 12.3935 21.4174 12.672C21.4174 12.7027 20.3806 13.4035 19.7489 13.7952C19.7259 13.8106 19.6337 13.7107 19.5319 13.559C19.4166 13.3601 19.2528 13.1935 19.0557 13.075C18.8586 12.9565 18.6347 12.8899 18.4049 12.8813C17.6772 12.8314 17.2087 13.2134 17.2126 13.8413C17.2066 13.9976 17.2424 14.1527 17.3163 14.2906C17.4756 14.6227 17.7732 14.8205 18.7063 15.2237C20.4247 15.9629 21.1601 16.4506 21.6171 17.1437C22.1278 17.9117 22.2411 19.152 21.8955 20.0698C21.5115 21.0682 20.5707 21.7459 19.2401 21.9706C18.6324 22.0402 18.0184 22.0337 17.4123 21.9514C16.4833 21.7982 15.6276 21.3522 14.97 20.6784C14.7492 20.4346 14.3191 19.799 14.346 19.753C14.4161 19.7009 14.4899 19.6541 14.5668 19.6128L15.4558 19.1213L16.1451 18.7219L16.2891 18.935C16.5321 19.2827 16.8414 19.5789 17.1991 19.8067C17.9671 20.2099 19.0155 20.1542 19.5339 19.6877C19.7079 19.5167 19.8165 19.2901 19.8407 19.0474C19.8649 18.8046 19.8032 18.561 19.6663 18.359C19.4743 18.0922 19.0903 17.8675 18.0171 17.399C16.7787 16.8653 16.2449 16.535 15.7572 16.009C15.4528 15.6618 15.228 15.2522 15.0987 14.809C15.0022 14.3025 14.9879 13.7839 15.0564 13.273C15.3118 12.0768 16.2084 11.2416 17.5179 10.9939C18.1243 10.9189 18.7385 10.9357 19.3399 11.0438V11.04ZM13.7067 12.0461V13.0291H10.5905V21.9053H8.38059V13.0272H5.25675V12.0672C5.24702 11.7361 5.25471 11.4048 5.27979 11.0746C5.29515 11.0573 7.19979 11.0573 9.50379 11.0573H13.6951L13.7067 12.0461Z"
		fill="#007ACC"
	/>
</svg>
