<svg
	color="rgb(var(--foreground, 0, 0, 0))"
	viewBox="0 0 18 16"
	fill="none"
	xmlns="http://www.w3.org/2000/svg"
>
	<path
		d="M18 8C18 7.69614 17.8722 7.42633 17.6167 7.19057C17.3611 6.94957 17.0204 6.76097 16.5945 6.62475C16.1686 6.4833 15.7028 6.41257 15.197 6.41257H11.9787C11.7551 6.41257 11.5847 6.389 11.4676 6.34185C11.3558 6.28946 11.2334 6.18991 11.1003 6.04322L5.73381 0.282908C5.55812 0.0943026 5.35315 0 5.1189 0H4.19255C4.09139 0 4.0142 0.0392927 3.96096 0.117878C3.91304 0.196464 3.91571 0.290766 3.96894 0.400786L6.73203 6.41257L2.67524 6.86837L1.22981 4.25933C1.12334 4.07073 0.942325 3.97642 0.686779 3.97642H0.34339C0.242236 3.97642 0.159716 4.00786 0.0958296 4.07073C0.0319432 4.12836 0 4.20956 0 4.31434V11.6857C0 11.7852 0.0319432 11.8664 0.0958296 11.9293C0.159716 11.9869 0.242236 12.0157 0.34339 12.0157H0.686779C0.942325 12.0157 1.12334 11.924 1.22981 11.7407L2.67524 9.13163L6.73203 9.58743L3.96894 15.5992C3.91571 15.7092 3.91304 15.8035 3.96096 15.8821C4.0142 15.9607 4.09139 16 4.19255 16H5.1189C5.35315 16 5.55812 15.9057 5.73381 15.7171L11.1003 9.94892C11.2334 9.80223 11.3558 9.7053 11.4676 9.65815C11.5847 9.611 11.7551 9.58743 11.9787 9.58743H15.197C15.7028 9.58743 16.1686 9.51932 16.5945 9.3831C17.0204 9.24165 17.3611 9.05304 17.6167 8.81729C17.8722 8.57629 18 8.30386 18 8Z"
		fill="currentColor"
	/>
</svg>
