<svg
	color="rgb(var(--foreground, 0, 0, 0))"
	viewBox="0 0 19 16"
	fill="none"
	xmlns="http://www.w3.org/2000/svg"
>
	<path
		d="M2.08332 7.80246L15.6924 11.3913C16.2009 11.5263 16.6935 11.573 17.1701 11.5314C17.6468 11.4899 18.0493 11.3628 18.3777 11.15C18.7114 10.932 18.9127 10.6284 18.9815 10.2391C19.0398 9.88623 18.9603 9.55147 18.7432 9.23489C18.5313 8.9183 18.2294 8.64583 17.8375 8.41747C17.4456 8.18392 17.0139 8.02303 16.5425 7.9348L11.593 6.96947C11.4235 6.93833 11.2805 6.88643 11.164 6.81377C11.0475 6.73592 10.931 6.61136 10.8145 6.44009L6.61175 0.515752C6.47404 0.328914 6.29397 0.20695 6.07152 0.14986L5.50745 0.00973118C5.40682 -0.0162186 5.32472 0.00973118 5.26117 0.0875806C5.19761 0.16024 5.18172 0.256254 5.2135 0.375623L6.73886 6.70478L7.23938 6.12869L3.06845 5.32685L4.40315 6.13648L1.19353 2.46199C1.04523 2.29591 0.841314 2.23882 0.58179 2.29072L0.279895 2.353C0.173967 2.37376 0.0971687 2.42047 0.049501 2.49313C0.00183337 2.56579 -0.0114076 2.64883 0.00977799 2.74225L0.851907 6.77485C0.910167 7.03434 1.04258 7.24973 1.24914 7.421C1.46099 7.58707 1.73906 7.71423 2.08332 7.80246ZM0.923408 16H18.0679C18.2427 16 18.391 15.9377 18.5128 15.8132C18.6399 15.6886 18.7035 15.5407 18.7035 15.3694C18.7035 15.1982 18.6399 15.0502 18.5128 14.9257C18.391 14.8063 18.2427 14.7466 18.0679 14.7466H0.923408C0.748627 14.7466 0.597679 14.8063 0.470566 14.9257C0.348748 15.0502 0.287839 15.1982 0.287839 15.3694C0.287839 15.5407 0.348748 15.6886 0.470566 15.8132C0.597679 15.9377 0.748627 16 0.923408 16Z"
		fill="currentColor"
	/>
</svg>
