<svg
	color="rgb(var(--foreground, 0, 0, 0))"
	viewBox="0 0 25 16"
	fill="none"
	xmlns="http://www.w3.org/2000/svg"
>
	<path
		d="M4.91209 16C5.59069 16 6.22557 15.8673 6.81677 15.6018C7.40797 15.3416 7.9272 14.9779 8.37445 14.5107C8.82685 14.0488 9.179 13.5125 9.4309 12.9019C9.68794 12.286 9.81646 11.6303 9.81646 10.9348C9.81646 10.2339 9.69051 9.57823 9.43861 8.96765C9.18671 8.35175 8.83456 7.81284 8.38216 7.35092C7.93491 6.88369 7.41311 6.51999 6.81677 6.25983C6.22557 5.99967 5.59069 5.86959 4.91209 5.86959C4.2335 5.86959 3.59603 5.99967 2.99969 6.25983C2.40849 6.51999 1.8867 6.88369 1.4343 7.35092C0.987046 7.81284 0.634897 8.35175 0.377853 8.96765C0.125951 9.57823 0 10.2339 0 10.9348C0 11.6356 0.125951 12.2914 0.377853 12.9019C0.634897 13.5125 0.987046 14.0488 1.4343 14.5107C1.8867 14.9779 2.40849 15.3416 2.99969 15.6018C3.59603 15.8673 4.2335 16 4.91209 16ZM4.91209 14.7496C4.39801 14.7496 3.91734 14.6514 3.47008 14.455C3.02797 14.2585 2.63726 13.9877 2.29797 13.6426C1.95867 13.2922 1.69391 12.886 1.5037 12.4241C1.31349 11.9622 1.21838 11.4657 1.21838 10.9348C1.21838 10.4038 1.31349 9.91007 1.5037 9.45346C1.69391 8.99154 1.95867 8.58537 2.29797 8.23494C2.63726 7.88452 3.03054 7.61108 3.47779 7.41463C3.92505 7.21819 4.40315 7.11996 4.91209 7.11996C5.42104 7.11996 5.89913 7.21819 6.34638 7.41463C6.79363 7.61108 7.18691 7.88452 7.52621 8.23494C7.8655 8.58537 8.13026 8.99154 8.32047 9.45346C8.51068 9.91538 8.60579 10.4092 8.60579 10.9348C8.60579 11.4604 8.51068 11.9542 8.32047 12.4161C8.13026 12.878 7.8655 13.2842 7.52621 13.6346C7.18691 13.9851 6.79363 14.2585 6.34638 14.455C5.89913 14.6514 5.42104 14.7496 4.91209 14.7496ZM20.0956 16C20.7742 16 21.4091 15.8673 22.0003 15.6018C22.5915 15.3416 23.1107 14.9779 23.558 14.5107C24.0104 14.0488 24.3625 13.5125 24.6144 12.9019C24.8715 12.2914 25 11.6356 25 10.9348C25 10.2339 24.8715 9.57823 24.6144 8.96765C24.3625 8.35175 24.0104 7.81284 23.558 7.35092C23.1107 6.889 22.5915 6.52796 22.0003 6.26779C21.4091 6.00232 20.7742 5.86959 20.0956 5.86959C19.417 5.86959 18.7796 6.00232 18.1832 6.26779C17.592 6.52796 17.0702 6.889 16.6178 7.35092C16.1654 7.81284 15.8107 8.35175 15.5537 8.96765C15.3018 9.57823 15.1758 10.2339 15.1758 10.9348C15.1758 11.6356 15.3018 12.294 15.5537 12.9099C15.8107 13.5205 16.1654 14.0567 16.6178 14.5187C17.0702 14.9859 17.592 15.3496 18.1832 15.6098C18.7796 15.8699 19.417 16 20.0956 16ZM20.0956 14.7496C19.4119 14.7496 18.7898 14.5797 18.2295 14.2399C17.6691 13.9001 17.2219 13.4408 16.8877 12.8621C16.5587 12.2834 16.3942 11.6409 16.3942 10.9348C16.3942 10.4092 16.4893 9.91538 16.6795 9.45346C16.8749 8.99154 17.1396 8.58537 17.4738 8.23494C17.8131 7.88452 18.2064 7.61108 18.6536 7.41463C19.106 7.21819 19.5867 7.11996 20.0956 7.11996C20.6046 7.11996 21.0827 7.22084 21.5299 7.4226C21.9772 7.61905 22.3679 7.89248 22.702 8.24291C23.0413 8.59333 23.3061 8.9995 23.4963 9.46142C23.6917 9.91804 23.7893 10.4092 23.7893 10.9348C23.7893 11.4604 23.6917 11.9542 23.4963 12.4161C23.3061 12.878 23.0413 13.2842 22.702 13.6346C22.3679 13.9851 21.9772 14.2585 21.5299 14.455C21.0827 14.6514 20.6046 14.7496 20.0956 14.7496ZM13.1477 0.621205C13.1477 0.791107 13.2069 0.937116 13.3251 1.05923C13.4433 1.17604 13.5847 1.23444 13.7492 1.23444H15.7464C15.7927 1.23444 15.8261 1.25303 15.8467 1.29019L19.5173 11.1658L20.6354 10.7675L16.7952 0.533599C16.6615 0.177866 16.3813 0 15.9547 0H13.7492C13.5847 0 13.4433 0.0610586 13.3251 0.183176C13.2069 0.299983 13.1477 0.445993 13.1477 0.621205ZM17.9673 5.45545V4.30861L9.78562 5.55102V6.69786L17.9673 5.45545ZM11.644 11.6595V10.5127H4.98921V11.6595H11.644ZM12.4923 12.6312C12.7905 12.6312 13.0603 12.5568 13.302 12.4082C13.5487 12.2542 13.7441 12.0524 13.888 11.8029C14.0371 11.5533 14.1117 11.2746 14.1117 10.9666C14.1117 10.6587 14.0371 10.38 13.888 10.1304C13.7441 9.87556 13.5487 9.6738 13.302 9.52514C13.0603 9.37647 12.7905 9.30214 12.4923 9.30214C12.1941 9.30214 11.9216 9.37647 11.6749 9.52514C11.4333 9.6738 11.2379 9.87556 11.0888 10.1304C10.9449 10.38 10.8729 10.6587 10.8729 10.9666C10.8678 11.2693 10.9372 11.548 11.0811 11.8029C11.2251 12.0524 11.4204 12.2542 11.6672 12.4082C11.9139 12.5568 12.189 12.6312 12.4923 12.6312ZM12.5 11.5401C12.3406 11.5401 12.207 11.4843 12.099 11.3728C11.991 11.2613 11.9371 11.1286 11.9371 10.9746C11.9371 10.8153 11.991 10.6799 12.099 10.5684C12.207 10.4516 12.3406 10.3932 12.5 10.3932C12.6542 10.3932 12.7827 10.449 12.8856 10.5605C12.9935 10.672 13.0475 10.81 13.0475 10.9746C13.0475 11.1286 12.9935 11.2613 12.8856 11.3728C12.7827 11.4843 12.6542 11.5401 12.5 11.5401ZM4.91209 11.9701C5.1897 11.9701 5.42617 11.8693 5.62152 11.6675C5.82201 11.4657 5.92226 11.2215 5.92226 10.9348C5.92226 10.6428 5.82458 10.3959 5.62923 10.1941C5.43388 9.99237 5.19484 9.89149 4.91209 9.89149C4.62935 9.89149 4.3903 9.99237 4.19494 10.1941C4.00473 10.3906 3.90963 10.6375 3.90963 10.9348C3.90449 11.2215 3.99959 11.4657 4.19494 11.6675C4.3903 11.8693 4.62935 11.9701 4.91209 11.9701ZM20.0956 11.9781C20.3732 11.9781 20.6097 11.8772 20.8051 11.6755C21.0004 11.4684 21.0981 11.2215 21.0981 10.9348C21.0981 10.6428 21.0004 10.3985 20.8051 10.2021C20.6148 10.0003 20.3784 9.89945 20.0956 9.89945C19.818 9.89945 19.5815 9.99768 19.3862 10.1941C19.1908 10.3906 19.0906 10.6375 19.0854 10.9348C19.0803 11.2215 19.1754 11.4684 19.3708 11.6755C19.5712 11.8772 19.8129 11.9781 20.0956 11.9781ZM12.2301 9.71628L13.2249 10.2977L18.0213 4.98557L16.6255 4.93778L12.2301 9.71628ZM4.45713 10.5366L5.44416 11.118L10.0324 6.27576L9.08389 5.57491L4.45713 10.5366ZM11.4204 10.4569L12.4075 9.72424L9.00678 3.0662L7.85008 3.32106L11.4204 10.4569ZM6.40807 2.90692C6.40807 3.07682 6.46462 3.22283 6.57772 3.34495C6.69596 3.46176 6.8399 3.52016 7.00955 3.52016H10.0401C10.2097 3.52016 10.3511 3.46176 10.4642 3.34495C10.5825 3.22283 10.6416 3.07682 10.6416 2.90692C10.6416 2.73702 10.5825 2.59101 10.4642 2.46889C10.346 2.34677 10.2046 2.28571 10.0401 2.28571H7.00955C6.84504 2.28571 6.70367 2.34677 6.58543 2.46889C6.46719 2.59101 6.40807 2.73702 6.40807 2.90692Z"
		fill="currentColor"
	/>
</svg>
