<svg
	color="rgb(var(--foreground, 0, 0, 0))"
	viewBox="0 0 17 18"
	fill="none"
	xmlns="http://www.w3.org/2000/svg"
>
	<path
		d="M2.11528 18H3.03294C3.32327 18 3.56694 17.9014 3.76395 17.7043C3.96615 17.5071 4.06725 17.2633 4.06725 16.9728V15.6809C4.83974 15.7328 5.59927 15.7717 6.34584 15.7977C7.09759 15.8288 7.81565 15.8444 8.5 15.8444C9.18435 15.8444 9.89982 15.8314 10.6464 15.8054C11.3981 15.7795 12.1629 15.738 12.9405 15.6809V16.9728C12.9405 17.2633 13.039 17.5071 13.236 17.7043C13.4331 17.9014 13.6767 18 13.9671 18H14.8847C15.1751 18 15.4187 17.8988 15.6157 17.6965C15.8179 17.4994 15.919 17.2581 15.919 16.9728V2C15.919 1.49676 15.7765 1.10246 15.4913 0.817121C15.2062 0.531777 14.8018 0.357977 14.2781 0.29572C13.4486 0.202335 12.5284 0.129702 11.5174 0.077821C10.5064 0.0259403 9.50061 0 8.5 0C7.50457 0 6.50137 0.0259403 5.49039 0.077821C4.4846 0.124514 3.56435 0.197147 2.72964 0.29572C2.20082 0.357977 1.79384 0.531777 1.50869 0.817121C1.22873 1.10246 1.08875 1.49676 1.08875 2V16.9728C1.08875 17.2581 1.18725 17.4994 1.38426 17.6965C1.58127 17.8988 1.82495 18 2.11528 18ZM3.34401 10.5292C2.83074 10.4514 2.57411 10.1427 2.57411 9.60311V2.69261C2.57411 2.07523 2.86962 1.73541 3.46066 1.67315C3.99985 1.61608 4.54941 1.56939 5.10933 1.53307C5.66926 1.49157 6.23178 1.46303 6.79689 1.44747C7.36719 1.42672 7.93748 1.41634 8.50778 1.41634C9.08326 1.41634 9.65355 1.42672 10.2187 1.44747C10.789 1.46303 11.3515 1.49157 11.9062 1.53307C12.4661 1.56939 13.0157 1.61608 13.5549 1.67315C14.1407 1.73541 14.4337 2.07523 14.4337 2.69261V9.60311C14.4337 10.1427 14.177 10.4514 13.6638 10.5292C13.1246 10.607 12.5698 10.6744 11.9995 10.7315C11.4292 10.7834 10.8512 10.8223 10.2653 10.8482C9.67948 10.8742 9.08844 10.8872 8.49222 10.8872C7.90119 10.8872 7.31016 10.8742 6.71912 10.8482C6.13327 10.8223 5.55779 10.7834 4.99268 10.7315C4.42757 10.6744 3.87801 10.607 3.34401 10.5292ZM3.82617 14C3.54102 14 3.30253 13.904 3.1107 13.7121C2.91888 13.5201 2.82296 13.2815 2.82296 12.9961C2.82296 12.7108 2.91888 12.4721 3.1107 12.2802C3.30253 12.0882 3.54102 11.9922 3.82617 11.9922C4.11131 11.9922 4.3498 12.0882 4.54163 12.2802C4.73346 12.4721 4.82937 12.7108 4.82937 12.9961C4.82937 13.2815 4.73346 13.5201 4.54163 13.7121C4.3498 13.904 4.11131 14 3.82617 14ZM6.80467 13.6576C6.60247 13.6576 6.43657 13.5953 6.30695 13.4708C6.18253 13.3411 6.12031 13.1777 6.12031 12.9805C6.12031 12.7782 6.18253 12.6148 6.30695 12.4903C6.43657 12.3658 6.60247 12.3035 6.80467 12.3035H10.1876C10.3846 12.3035 10.5453 12.3658 10.6697 12.4903C10.7993 12.6148 10.8641 12.7782 10.8641 12.9805C10.8641 13.1777 10.7993 13.3411 10.6697 13.4708C10.5453 13.5953 10.3846 13.6576 10.1876 13.6576H6.80467ZM13.1738 14C12.8887 14 12.6502 13.904 12.4584 13.7121C12.2717 13.5201 12.1784 13.2815 12.1784 12.9961C12.1784 12.7108 12.2717 12.4721 12.4584 12.2802C12.6502 12.0882 12.8887 11.9922 13.1738 11.9922C13.4642 11.9922 13.7052 12.0882 13.8971 12.2802C14.0889 12.4721 14.1848 12.7108 14.1848 12.9961C14.1848 13.2815 14.0889 13.5201 13.8971 13.7121C13.7052 13.904 13.4642 14 13.1738 14ZM1.59424 7.28405V2.87938H0.738792C0.521043 2.87938 0.342178 2.94163 0.202196 3.06615C0.0673986 3.19066 0 3.35668 0 3.5642V6.607C0 6.81453 0.0673986 6.98054 0.202196 7.10506C0.342178 7.22438 0.521043 7.28405 0.738792 7.28405H1.59424ZM15.4058 7.28405H16.2612C16.479 7.28405 16.6552 7.22438 16.79 7.10506C16.93 6.98054 17 6.81453 17 6.607V3.5642C17 3.35668 16.93 3.19066 16.79 3.06615C16.6552 2.94163 16.479 2.87938 16.2612 2.87938H15.4058V7.28405Z"
		fill="currentColor"
	/>
</svg>
