<svg
	color="rgb(var(--foreground, 0, 0, 0))"
	viewBox="0 0 17 18"
	fill="none"
	xmlns="http://www.w3.org/2000/svg"
>
	<path
		d="M1.06918 13.8877C1.06918 14.3609 1.19901 14.7415 1.45867 15.0296V16.9816C1.45867 17.2645 1.55541 17.5036 1.74888 17.6991C1.94235 17.8997 2.18164 18 2.46676 18H3.36792C3.65304 18 3.89233 17.9023 4.0858 17.7068C4.28437 17.5114 4.38365 17.2696 4.38365 16.9816V15.7394C5.00988 15.7805 5.66667 15.8114 6.354 15.832C7.04642 15.8577 7.76175 15.8706 8.5 15.8706C9.23825 15.8706 9.95103 15.8577 10.6384 15.832C11.3308 15.8114 11.9927 15.7805 12.624 15.7394V16.9816C12.624 17.2696 12.7207 17.5114 12.9142 17.7068C13.1077 17.9023 13.347 18 13.6321 18H14.5332C14.8184 18 15.0577 17.8997 15.2511 17.6991C15.4497 17.5036 15.549 17.2645 15.549 16.9816V15.0296C15.8086 14.7415 15.9385 14.3609 15.9385 13.8877V1.98285C15.9385 1.48393 15.7984 1.09301 15.5184 0.810116C15.2384 0.527218 14.8387 0.354908 14.3194 0.293185C13.5252 0.2006 12.6189 0.12859 11.6006 0.0771539C10.5824 0.025718 9.54882 0 8.5 0C7.44609 0 6.41 0.025718 5.39173 0.0771539C4.37856 0.12859 3.47484 0.2006 2.68059 0.293185C2.16128 0.354908 1.76161 0.527218 1.48158 0.810116C1.20665 1.09301 1.06918 1.48393 1.06918 1.98285V13.8877ZM8.5 14.8598C7.37481 14.8598 6.34382 14.8367 5.40701 14.7904C4.4702 14.7441 3.65049 14.6772 2.94789 14.5898C2.62204 14.5486 2.39293 14.4458 2.26056 14.2812C2.13327 14.1114 2.06963 13.8774 2.06963 13.5791V2.29147C2.06963 1.99829 2.14346 1.76682 2.29111 1.59709C2.44385 1.4222 2.66277 1.31676 2.94789 1.28075C3.63522 1.19331 4.46256 1.12645 5.42992 1.08015C6.40237 1.03386 7.42573 1.01072 8.5 1.01072C9.56409 1.01072 10.5798 1.03386 11.5472 1.08015C12.5196 1.12645 13.3546 1.19331 14.0521 1.28075C14.378 1.3219 14.6071 1.42735 14.7394 1.59709C14.8718 1.76168 14.938 1.99314 14.938 2.29147V13.5791C14.938 13.8774 14.8718 14.1114 14.7394 14.2812C14.6071 14.4458 14.378 14.5486 14.0521 14.5898C13.3393 14.6772 12.512 14.7441 11.5701 14.7904C10.6333 14.8367 9.60991 14.8598 8.5 14.8598ZM3.55885 10.5315C4.30219 10.6498 5.09389 10.7398 5.93396 10.8015C6.77403 10.8581 7.62683 10.8864 8.49236 10.8864C9.36298 10.8864 10.2183 10.8581 11.0584 10.8015C11.9036 10.7398 12.7004 10.6498 13.4488 10.5315C13.9223 10.4544 14.159 10.1637 14.159 9.65966V3.02443C14.159 2.44835 13.8892 2.13202 13.3495 2.07544C12.596 1.99829 11.8094 1.94171 10.9897 1.9057C10.1751 1.86455 9.34771 1.84655 8.50764 1.85169C7.67266 1.85169 6.84531 1.8697 6.02561 1.9057C5.21099 1.94171 4.42438 1.99829 3.66577 2.07544C3.12099 2.13202 2.84861 2.44835 2.84861 3.02443V9.65966C2.84861 10.1637 3.08535 10.4544 3.55885 10.5315ZM1.56559 7.37591V2.85469H0.725517C0.51168 2.85469 0.336029 2.91642 0.198562 3.03986C0.0661875 3.16331 0 3.3279 0 3.53365V6.70467C0 6.91042 0.0661875 7.07501 0.198562 7.19846C0.336029 7.31676 0.51168 7.37591 0.725517 7.37591H1.56559ZM15.4344 7.37591H16.2745C16.4883 7.37591 16.6614 7.31676 16.7938 7.19846C16.9313 7.07501 17 6.91042 17 6.70467V3.53365C17 3.3279 16.9313 3.16331 16.7938 3.03986C16.6614 2.91642 16.4883 2.85469 16.2745 2.85469H15.4344V7.37591ZM4.13926 13.664C4.39892 13.664 4.61785 13.5739 4.79605 13.3939C4.97424 13.2139 5.06334 12.9927 5.06334 12.7304C5.06334 12.4629 4.97424 12.2417 4.79605 12.0669C4.61785 11.8868 4.39892 11.7968 4.13926 11.7968C3.87451 11.7968 3.65304 11.8868 3.47484 12.0669C3.30174 12.2417 3.21518 12.4629 3.21518 12.7304C3.21518 12.9927 3.30174 13.2139 3.47484 13.3939C3.65304 13.5739 3.87451 13.664 4.13926 13.664ZM6.68239 13.3862H10.31C10.5034 13.3862 10.6613 13.3245 10.7835 13.201C10.9108 13.0724 10.9744 12.9104 10.9744 12.715C10.9744 12.5144 10.9108 12.3523 10.7835 12.2289C10.6613 12.1054 10.5034 12.0437 10.31 12.0437H6.68239C6.48383 12.0437 6.3209 12.1054 6.19362 12.2289C6.07143 12.3523 6.01033 12.5144 6.01033 12.715C6.01033 12.9104 6.07143 13.0724 6.19362 13.201C6.3209 13.3245 6.48383 13.3862 6.68239 13.3862ZM12.8607 13.664C13.1255 13.664 13.347 13.5739 13.5252 13.3939C13.7034 13.2139 13.7925 12.9927 13.7925 12.7304C13.7925 12.4629 13.7034 12.2417 13.5252 12.0669C13.347 11.8868 13.1255 11.7968 12.8607 11.7968C12.6011 11.7968 12.3821 11.8868 12.204 12.0669C12.0308 12.2417 11.9443 12.4629 11.9443 12.7304C11.9443 12.9927 12.0308 13.2139 12.204 13.3939C12.3821 13.5739 12.6011 13.664 12.8607 13.664Z"
		fill="currentColor"
	/>
</svg>
