<svg
	color="rgb(var(--foreground, 0, 0, 0))"
	viewBox="0 0 16 20"
	fill="none"
	xmlns="http://www.w3.org/2000/svg"
>
	<path
		d="M0.88419 15.3557H15.1158V4.6599C15.1158 4.1873 14.9825 3.81338 14.716 3.53813C14.4495 3.25769 14.0599 3.08631 13.5473 3.02399C13.0501 2.96166 12.4966 2.90973 11.8866 2.86818C11.2766 2.82144 10.6385 2.78769 9.97213 2.76691C9.31091 2.74614 8.65225 2.73575 7.99616 2.73575C7.33494 2.73575 6.67371 2.74614 6.01249 2.76691C5.35127 2.78769 4.71568 2.82144 4.10572 2.86818C3.49576 2.90973 2.93961 2.96166 2.43729 3.02399C1.92984 3.08631 1.54285 3.25769 1.27631 3.53813C1.0149 3.81338 0.88419 4.1873 0.88419 4.6599V15.3557ZM2.45267 10.3311V6.44383C2.45267 6.02836 2.59362 5.67521 2.87554 5.38438C3.16258 5.09355 3.51626 4.94813 3.93657 4.94813C4.35175 4.94813 4.7003 5.09355 4.98222 5.38438C5.26926 5.67521 5.41278 6.02836 5.41278 6.44383V10.3311C5.41278 10.4557 5.37434 10.5544 5.29745 10.6271C5.22569 10.6998 5.12574 10.7362 4.9976 10.7362H2.86785C2.73971 10.7362 2.63719 10.6998 2.56031 10.6271C2.48855 10.5544 2.45267 10.4557 2.45267 10.3311ZM6.33542 10.3311V6.21792C6.33542 5.71416 6.48663 5.30907 6.78904 5.00266C7.09146 4.69626 7.49383 4.54305 7.99616 4.54305C8.49335 4.54305 8.89316 4.69626 9.19558 5.00266C9.50312 5.30907 9.6569 5.71416 9.6569 6.21792V10.3311C9.6569 10.4557 9.61845 10.5544 9.54157 10.6271C9.46981 10.6998 9.36985 10.7362 9.24171 10.7362H6.74291C6.61477 10.7362 6.51482 10.6998 6.44306 10.6271C6.3713 10.5544 6.33542 10.4557 6.33542 10.3311ZM10.5718 10.3311V6.44383C10.5718 6.02836 10.7154 5.67521 11.0024 5.38438C11.2894 5.09355 11.6431 4.94813 12.0634 4.94813C12.4735 4.94813 12.822 5.09355 13.1091 5.38438C13.3961 5.67521 13.5396 6.02836 13.5396 6.44383V10.3311C13.5396 10.4557 13.5012 10.5544 13.4243 10.6271C13.3474 10.6998 13.2475 10.7362 13.1245 10.7362H10.9947C10.8666 10.7362 10.7641 10.6998 10.6872 10.6271C10.6103 10.5544 10.5718 10.4557 10.5718 10.3311ZM7.99616 14.452C7.63735 14.452 7.34006 14.3352 7.10428 14.1015C6.87362 13.8626 6.75829 13.5666 6.75829 13.2134C6.75829 12.8499 6.87362 12.5461 7.10428 12.302C7.34006 12.0527 7.63735 11.928 7.99616 11.928C8.34471 11.928 8.63944 12.0527 8.88035 12.302C9.12638 12.5461 9.2494 12.8499 9.2494 13.2134C9.2494 13.5666 9.12638 13.8626 8.88035 14.1015C8.63944 14.3352 8.34471 14.452 7.99616 14.452ZM0 15.8542C0 16.0256 0.058946 16.1736 0.176838 16.2983C0.299856 16.4229 0.445939 16.4852 0.615089 16.4852H15.3849C15.5541 16.4852 15.6976 16.4229 15.8155 16.2983C15.9385 16.1736 16 16.0256 16 15.8542C16 15.6829 15.9385 15.5374 15.8155 15.418C15.6976 15.2934 15.5541 15.231 15.3849 15.231H0.615089C0.445939 15.231 0.299856 15.2934 0.176838 15.418C0.058946 15.5374 0 15.6829 0 15.8542ZM3.037 1.3647C3.037 1.54127 3.10107 1.69967 3.22922 1.83989C3.35736 1.97492 3.51113 2.02945 3.69053 2.00348C4.25949 1.93078 4.92071 1.87884 5.6742 1.84768C6.4328 1.81652 7.20679 1.80094 7.99616 1.80094C8.78552 1.80094 9.55694 1.81652 10.3104 1.84768C11.069 1.87884 11.7354 1.93078 12.3095 2.00348C12.4889 2.02945 12.6401 1.97492 12.7631 1.83989C12.8912 1.69967 12.9553 1.54127 12.9553 1.3647C12.9553 1.18812 12.8938 1.04271 12.7708 0.928454C12.6478 0.809006 12.494 0.736299 12.3095 0.710332C11.7303 0.637625 11.0588 0.585691 10.2951 0.554531C9.53644 0.518177 8.77014 0.5 7.99616 0.5C7.22217 0.5 6.45587 0.518177 5.69726 0.554531C4.93865 0.585691 4.26718 0.637625 3.68284 0.710332C3.50344 0.736299 3.34967 0.809006 3.22153 0.928454C3.09851 1.04271 3.037 1.18812 3.037 1.3647ZM3.9135 1.16216V3.29664H4.92071V1.16216H3.9135ZM11.0793 1.16216V3.29664H12.0865V1.16216H11.0793ZM2.56031 19.5H2.99087C3.18052 19.5 3.32917 19.4143 3.43681 19.2429L5.62037 15.6673H4.15185L2.21432 18.8223C2.14769 18.9313 2.11949 19.0378 2.12975 19.1417C2.14512 19.2455 2.18869 19.3312 2.26045 19.3987C2.33734 19.4662 2.43729 19.5 2.56031 19.5ZM12.74 19.5H13.1706C13.2885 19.5 13.3833 19.4662 13.4551 19.3987C13.532 19.3312 13.5755 19.2455 13.5858 19.1417C13.6012 19.0378 13.5755 18.9313 13.5089 18.8223L11.5714 15.6673H10.1028L12.2864 19.2429C12.394 19.4143 12.5453 19.5 12.74 19.5Z"
		fill="currentColor"
	/>
</svg>
