<svg
	color="rgb(var(--foreground, 0, 0, 0))"
	viewBox="0 0 17 18"
	fill="none"
	xmlns="http://www.w3.org/2000/svg"
>
	<path
		d="M0.99561 18H1.03388C1.51351 18 1.91405 17.9465 2.2355 17.8394C2.55695 17.7374 2.82993 17.6099 3.05444 17.4569C3.28405 17.3039 3.48814 17.1483 3.66673 16.9902C3.84531 16.8372 4.02645 16.7072 4.21014 16.6001C4.39893 16.4981 4.61833 16.4471 4.86835 16.4471C5.10816 16.4471 5.32246 16.4981 5.51125 16.6001C5.70004 16.7072 5.88628 16.8372 6.06997 16.9902C6.25366 17.1483 6.45265 17.3039 6.66695 17.4569C6.88636 17.6099 7.14148 17.7374 7.43232 17.8394C7.72826 17.9465 8.08543 18 8.50383 18C8.91712 18 9.26919 17.9465 9.56003 17.8394C9.85597 17.7374 10.1111 17.6099 10.3254 17.4569C10.5448 17.3039 10.7463 17.1483 10.93 16.9902C11.1137 16.8372 11.3 16.7072 11.4887 16.6001C11.6775 16.4981 11.8918 16.4471 12.1317 16.4471C12.3817 16.4471 12.5985 16.4981 12.7822 16.6001C12.971 16.7072 13.1547 16.8372 13.3333 16.9902C13.5119 17.1483 13.7134 17.3039 13.9379 17.4569C14.1675 17.6099 14.4431 17.7374 14.7645 17.8394C15.086 17.9465 15.4865 18 15.9661 18H16.0044C16.1524 18 16.2774 17.9465 16.3794 17.8394C16.4866 17.7374 16.5401 17.6124 16.5401 17.4645C16.5401 17.3166 16.4866 17.1891 16.3794 17.082C16.2774 16.9749 16.1524 16.9214 16.0044 16.9214H15.9661C15.5528 16.9214 15.211 16.8474 14.9405 16.6995C14.6701 16.5516 14.3895 16.3757 14.0986 16.1717C13.8537 15.9932 13.5705 15.8147 13.2491 15.6362C12.9327 15.4577 12.5603 15.3685 12.1317 15.3685C11.6928 15.3685 11.3102 15.4628 10.9836 15.6515C10.6622 15.8402 10.3764 16.0263 10.1264 16.2099C9.86618 16.4139 9.61616 16.5822 9.37634 16.7148C9.13653 16.8525 8.84569 16.9214 8.50383 16.9214C8.15686 16.9214 7.86347 16.8525 7.62366 16.7148C7.38384 16.5822 7.13382 16.4139 6.8736 16.2099C6.62358 16.0263 6.3353 15.8402 6.00874 15.6515C5.68729 15.4628 5.30716 15.3685 4.86835 15.3685C4.43975 15.3685 4.06472 15.4577 3.74327 15.6362C3.42691 15.8147 3.14628 15.9932 2.90137 16.1717C2.61053 16.3757 2.32989 16.5516 2.05947 16.6995C1.78904 16.8474 1.44717 16.9214 1.03388 16.9214H0.99561C0.84764 16.9214 0.720079 16.9749 0.612929 17.082C0.51088 17.1891 0.459856 17.3166 0.459856 17.4645C0.459856 17.6124 0.51088 17.7374 0.612929 17.8394C0.720079 17.9465 0.84764 18 0.99561 18ZM2.94729 16.7531L3.99583 16.4471L1.30941 12.7981C1.22267 12.6859 1.20226 12.5763 1.24818 12.4692C1.2941 12.3621 1.3936 12.3085 1.54667 12.3085H15.4533C15.6115 12.3085 15.711 12.3621 15.7518 12.4692C15.7977 12.5763 15.7773 12.6885 15.6906 12.8058L13.0042 16.4394L14.0604 16.7454L16.6626 13.2954C16.8973 12.9894 17.0096 12.6859 16.9994 12.385C16.9943 12.079 16.8795 11.8266 16.6549 11.6277C16.4355 11.4237 16.1243 11.3217 15.7212 11.3217H1.27879C0.875703 11.3217 0.564456 11.4237 0.345051 11.6277C0.125647 11.8266 0.0108426 12.079 0.000637803 12.385C-0.00956704 12.6859 0.102686 12.9894 0.337398 13.2954L2.94729 16.7531ZM4.48567 3.64131C4.46016 3.74331 4.47036 3.8147 4.51628 3.8555C4.5622 3.8963 4.63874 3.91415 4.74589 3.90905C5.04183 3.88865 5.36584 3.8708 5.7179 3.8555C6.06997 3.8351 6.47051 3.8198 6.91952 3.8096C7.37364 3.7994 7.89919 3.79431 8.49617 3.79431C9.09316 3.79431 9.61616 3.7994 10.0652 3.8096C10.5193 3.8198 10.9224 3.8351 11.2744 3.8555C11.6265 3.8708 11.9505 3.88865 12.2465 3.90905C12.3536 3.91415 12.4301 3.8963 12.4761 3.8555C12.522 3.8147 12.5322 3.74331 12.5067 3.64131C12.4403 3.34042 12.3511 3.02422 12.2388 2.69273C12.1265 2.35614 12.0245 2.11135 11.9327 1.95835C11.8612 1.82575 11.777 1.73141 11.6801 1.67531C11.5882 1.61411 11.4709 1.57076 11.328 1.54526C11.129 1.51976 10.7974 1.49936 10.333 1.48406C9.87383 1.46366 9.26154 1.45346 8.49617 1.45346C7.73081 1.45346 7.11597 1.46366 6.65165 1.48406C6.19243 1.49936 5.86332 1.51976 5.66433 1.54526C5.52146 1.57076 5.40155 1.61411 5.30461 1.67531C5.21276 1.73141 5.12857 1.82575 5.05204 1.95835C4.9653 2.11135 4.8658 2.35614 4.75354 2.69273C4.64129 3.02422 4.552 3.34042 4.48567 3.64131ZM4.45505 7.45091C4.71528 7.45091 4.93213 7.36677 5.10561 7.19847C5.27909 7.02507 5.36584 6.80833 5.36584 6.54824C5.36584 6.28814 5.27909 6.07395 5.10561 5.90565C4.93213 5.73226 4.71528 5.64556 4.45505 5.64556C4.19993 5.64556 3.98563 5.73226 3.81215 5.90565C3.63867 6.07395 3.55192 6.28814 3.55192 6.54824C3.55192 6.80833 3.63867 7.02507 3.81215 7.19847C3.98563 7.36677 4.19993 7.45091 4.45505 7.45091ZM7.01902 7.23672H9.97333C10.1672 7.23672 10.3254 7.17552 10.4479 7.05312C10.5703 6.93073 10.6315 6.77263 10.6315 6.57884C10.6315 6.38504 10.5703 6.22949 10.4479 6.1122C10.3254 5.9898 10.1672 5.9286 9.97333 5.9286H7.01902C6.82513 5.9286 6.66695 5.9898 6.5445 6.1122C6.42204 6.22949 6.36081 6.38504 6.36081 6.57884C6.36081 6.77263 6.42204 6.93073 6.5445 7.05312C6.66695 7.17552 6.82513 7.23672 7.01902 7.23672ZM12.5296 7.45091C12.7899 7.45091 13.0067 7.36677 13.1802 7.19847C13.3537 7.02507 13.4404 6.80833 13.4404 6.54824C13.4404 6.28814 13.3537 6.07395 13.1802 5.90565C13.0067 5.73226 12.7899 5.64556 12.5296 5.64556C12.2745 5.64556 12.0602 5.73226 11.8867 5.90565C11.7133 6.07395 11.6265 6.28814 11.6265 6.54824C11.6265 6.80833 11.7133 7.02507 11.8867 7.19847C12.0602 7.36677 12.2745 7.45091 12.5296 7.45091ZM8.49617 9.08032C8.9656 9.08032 9.46053 9.07522 9.98098 9.06502C10.5065 9.05482 11.0219 9.03952 11.527 9.01913C12.0322 8.99873 12.4939 8.97578 12.9123 8.95028C13.3358 8.92478 13.6828 8.89673 13.9532 8.86613C14.3665 8.82023 14.6854 8.68253 14.9099 8.45304C15.1344 8.21844 15.2467 7.9099 15.2467 7.52741V6.53294C15.2467 6.04335 15.1906 5.63791 15.0783 5.31662C14.966 4.99023 14.7773 4.65873 14.5119 4.32214L14.0527 3.74076C13.9813 3.39907 13.8971 3.06502 13.8001 2.73863C13.7083 2.41224 13.6139 2.119 13.517 1.8589C13.4251 1.59881 13.346 1.39737 13.2797 1.25457C12.9633 0.586485 12.3919 0.193795 11.5653 0.0764981C11.4377 0.0611985 11.226 0.0484488 10.93 0.038249C10.6392 0.0280493 10.2846 0.0203995 9.86618 0.0152996C9.44778 0.00509987 8.99111 0 8.49617 0C8.00634 0 7.55222 0.00509987 7.13382 0.0152996C6.72053 0.0203995 6.36591 0.0280493 6.06997 0.038249C5.77403 0.0484488 5.56228 0.0611985 5.43472 0.0764981C5.03673 0.127497 4.68976 0.254994 4.39382 0.458989C4.09788 0.657884 3.86827 0.923077 3.705 1.25457C3.61315 1.46366 3.48814 1.8028 3.32997 2.27199C3.17179 2.74118 3.03913 3.23077 2.93198 3.74076L2.48807 4.32214C2.22274 4.65873 2.03395 4.99023 1.9217 5.31662C1.80945 5.63791 1.75332 6.04335 1.75332 6.53294V7.52741C1.75332 7.9099 1.86302 8.21844 2.08243 8.45304C2.30693 8.68253 2.62583 8.82023 3.03913 8.86613C3.30446 8.89673 3.64887 8.92478 4.07237 8.95028C4.49587 8.97578 4.95764 8.99873 5.45768 9.01913C5.96282 9.03952 6.47561 9.05482 6.99606 9.06502C7.52161 9.07522 8.02165 9.08032 8.49617 9.08032ZM8.49617 8.10115C8.02165 8.10115 7.52416 8.0986 7.00371 8.0935C6.48837 8.0833 5.98578 8.07055 5.49595 8.05525C5.01122 8.03485 4.57241 8.01445 4.17952 7.99405C3.79174 7.96855 3.48559 7.9405 3.26109 7.9099C3.06719 7.8844 2.92943 7.82575 2.84779 7.73396C2.77125 7.64216 2.73299 7.49936 2.73299 7.30557V6.53294C2.73299 6.16575 2.76615 5.87505 2.83248 5.66086C2.90392 5.44156 3.04678 5.19422 3.26109 4.91883L3.85807 4.1462C3.90399 3.8759 3.97032 3.58266 4.05706 3.26647C4.14381 2.95028 4.23565 2.65193 4.33259 2.37144C4.43464 2.08585 4.52394 1.8589 4.60047 1.69061C4.68211 1.51211 4.80202 1.37187 4.96019 1.26987C5.11837 1.16277 5.31481 1.09647 5.54952 1.07097C5.72811 1.05057 6.08017 1.03017 6.60572 1.00977C7.13127 0.984275 7.76142 0.971526 8.49617 0.971526C9.23092 0.971526 9.86363 0.984275 10.3943 1.00977C10.9249 1.03017 11.2693 1.05057 11.4275 1.07097C11.6673 1.10157 11.8663 1.16787 12.0245 1.26987C12.1827 1.37187 12.3051 1.51211 12.3919 1.69061C12.4735 1.864 12.5628 2.0935 12.6598 2.37909C12.7618 2.65958 12.8562 2.95793 12.9429 3.27412C13.0297 3.59031 13.0935 3.881 13.1343 4.1462L13.7313 4.91883C13.9405 5.19422 14.0808 5.44156 14.1522 5.66086C14.2287 5.88015 14.267 6.17085 14.267 6.53294V7.30557C14.267 7.50446 14.2262 7.64981 14.1446 7.74161C14.0629 7.8283 13.9226 7.8844 13.7236 7.9099C13.4991 7.9354 13.1904 7.9609 12.7975 7.9864C12.4097 8.0119 11.9709 8.0323 11.4811 8.0476C10.9964 8.0629 10.4963 8.07565 9.98098 8.08585C9.46564 8.09605 8.9707 8.10115 8.49617 8.10115ZM2.90137 10.5032H3.55958C3.77388 10.5032 3.95246 10.4318 4.09533 10.289C4.2433 10.1462 4.31729 9.97025 4.31729 9.76116V8.42244L2.15131 8.1088V9.76116C2.15131 9.97025 2.22274 10.1462 2.36561 10.289C2.51358 10.4318 2.69217 10.5032 2.90137 10.5032ZM13.4328 10.5032H14.091C14.3002 10.5032 14.4762 10.4318 14.6191 10.289C14.7671 10.1462 14.841 9.97025 14.841 9.76116V8.1088L12.6751 8.42244L12.6827 9.76116C12.6827 9.97025 12.7541 10.1462 12.897 10.289C13.0399 10.4318 13.2185 10.5032 13.4328 10.5032Z"
		fill="currentColor"
	/>
</svg>
