<svg
	color="rgb(var(--foreground, 0, 0, 0))"
	viewBox="0 0 19 16"
	fill="none"
	xmlns="http://www.w3.org/2000/svg"
>
	<path
		d="M9.5 13.2763C10.1746 13.2763 10.8866 13.2682 11.6361 13.252C12.3856 13.2358 13.1217 13.2143 13.8445 13.1873C14.5672 13.155 15.2284 13.1199 15.828 13.0822C16.4329 13.0445 16.9255 13.004 17.3056 12.9609C17.8516 12.8962 18.2692 12.7156 18.5583 12.4191C18.8528 12.1226 19 11.7156 19 11.1981V9.77493C19 9.31671 18.9679 8.91779 18.9036 8.57817C18.8394 8.23315 18.7323 7.9124 18.5824 7.6159C18.4325 7.31402 18.2344 7.00135 17.9882 6.6779L17.3056 5.7965C17.2092 5.31132 17.0914 4.83154 16.9522 4.35714C16.8184 3.88275 16.6819 3.45687 16.5427 3.07951C16.4088 2.70216 16.2964 2.41375 16.2054 2.21429C15.9913 1.75606 15.6808 1.39218 15.2739 1.12264C14.8724 0.8531 14.4066 0.683288 13.8766 0.613208C13.6946 0.586253 13.3894 0.56469 12.9611 0.548518C12.5382 0.532345 12.0269 0.521563 11.4273 0.516173C10.8331 0.505391 10.1906 0.5 9.5 0.5C8.80938 0.5 8.16427 0.505391 7.56467 0.516173C6.97042 0.526954 6.45914 0.540431 6.03086 0.556604C5.60792 0.572776 5.30812 0.591644 5.13145 0.613208C4.59609 0.677898 4.12764 0.847709 3.72612 1.12264C3.3246 1.39218 3.01677 1.75606 2.80262 2.21429C2.70625 2.41375 2.59115 2.70216 2.45731 3.07951C2.32347 3.45687 2.18695 3.88275 2.04776 4.35714C1.90857 4.83154 1.79079 5.31132 1.69442 5.7965L1.01986 6.6779C0.768245 7.00135 0.567484 7.31402 0.417582 7.6159C0.273035 7.9124 0.165962 8.23315 0.0963652 8.57817C0.0321217 8.91779 0 9.31671 0 9.77493V11.1981C0 11.7156 0.147225 12.1226 0.441674 12.4191C0.736123 12.7156 1.15371 12.8962 1.69442 12.9609C2.07453 13.004 2.56439 13.0445 3.16399 13.0822C3.76895 13.1199 4.4328 13.155 5.15554 13.1873C5.87828 13.2143 6.6144 13.2358 7.36391 13.252C8.11341 13.2682 8.82545 13.2763 9.5 13.2763ZM1.06805 15.5H2.00761C2.30741 15.5 2.55903 15.3976 2.76247 15.1927C2.97126 14.9879 3.07566 14.7345 3.07566 14.4326V12.4191L0 10.9474V14.4326C0 14.7345 0.101719 14.9879 0.305156 15.1927C0.508594 15.3976 0.762891 15.5 1.06805 15.5ZM16.9924 15.5H17.94C18.2398 15.5 18.4914 15.3976 18.6948 15.1927C18.8983 14.9879 19 14.7345 19 14.4326V10.9474L15.9324 12.4191V14.4326C15.9324 14.7345 16.0341 14.9879 16.2375 15.1927C16.441 15.3976 16.6926 15.5 16.9924 15.5ZM6.88208 7.40566C6.88208 7.3248 6.91688 7.24394 6.98648 7.16307L10.303 2.96631C10.3833 2.85849 10.4744 2.80728 10.5761 2.81267C10.6778 2.81267 10.7554 2.8531 10.809 2.93396C10.8679 3.01482 10.8705 3.12264 10.817 3.25741L9.73288 6.20889H11.7806C11.8556 6.20889 11.9198 6.23585 11.9734 6.28976C12.0323 6.33828 12.0617 6.40027 12.0617 6.47574C12.0617 6.56199 12.0242 6.64286 11.9493 6.71833L8.64878 10.9151C8.56312 11.0175 8.46943 11.0687 8.36771 11.0687C8.26599 11.0633 8.18569 11.0202 8.1268 10.9394C8.07326 10.8585 8.07058 10.7534 8.11877 10.624L9.21894 7.66442H7.15512C7.08552 7.66442 7.02128 7.64016 6.96239 7.59164C6.90885 7.53774 6.88208 7.47574 6.88208 7.40566Z"
		fill="currentColor"
	/>
</svg>
