<svg
	color="rgb(var(--foreground, 0, 0, 0))"
	viewBox="0 0 19 16"
	fill="none"
	xmlns="http://www.w3.org/2000/svg"
>
	<path
		d="M3.31657 5.11725C3.37546 4.82615 3.45576 4.51617 3.55748 4.18733C3.6592 3.85849 3.7636 3.55391 3.87067 3.27359C3.97774 2.98787 4.07411 2.76685 4.15976 2.61051C4.26684 2.42183 4.38729 2.28167 4.52113 2.19003C4.65497 2.09838 4.82897 2.03639 5.04311 2.00404C5.34827 1.96092 5.85686 1.92857 6.56889 1.90701C7.28093 1.88005 8.25796 1.86658 9.5 1.86658C10.742 1.86658 11.7191 1.87736 12.4311 1.89892C13.1485 1.92049 13.6571 1.95553 13.9569 2.00404C14.1764 2.03639 14.3504 2.09838 14.4789 2.19003C14.6074 2.28167 14.7278 2.42183 14.8402 2.61051C14.9312 2.76146 15.0276 2.97978 15.1293 3.2655C15.2364 3.54582 15.3381 3.8531 15.4345 4.18733C15.5362 4.51617 15.6219 4.82615 15.6915 5.11725C15.7289 5.26819 15.7156 5.37601 15.6513 5.4407C15.5924 5.5 15.4853 5.52426 15.3301 5.51348C14.8857 5.48652 14.3959 5.45957 13.8605 5.43261C13.3305 5.40566 12.7122 5.3841 12.0055 5.36792C11.3042 5.35175 10.469 5.34367 9.5 5.34367C8.531 5.34367 7.69315 5.35175 6.98648 5.36792C6.28515 5.3841 5.66949 5.40566 5.13948 5.43261C4.60947 5.45957 4.12229 5.48652 3.67794 5.51348C3.52268 5.52426 3.41293 5.5 3.34869 5.4407C3.2898 5.37601 3.27909 5.26819 3.31657 5.11725ZM3.71006 11.093C3.34066 11.093 3.03283 10.969 2.78656 10.721C2.54029 10.4677 2.41716 10.1577 2.41716 9.79111C2.41716 9.41914 2.54029 9.10916 2.78656 8.86119C3.03283 8.61321 3.34066 8.48922 3.71006 8.48922C4.07946 8.48922 4.38729 8.61321 4.63356 8.86119C4.87983 9.10916 5.00296 9.41914 5.00296 9.79111C5.00296 10.1577 4.87983 10.4677 4.63356 10.721C4.38729 10.969 4.07946 11.093 3.71006 11.093ZM7.37997 10.7695C7.10158 10.7695 6.87673 10.6833 6.70541 10.5108C6.5341 10.3383 6.44844 10.1119 6.44844 9.83154C6.44844 9.5566 6.5341 9.33288 6.70541 9.16038C6.87673 8.98787 7.10158 8.90162 7.37997 8.90162H11.6281C11.9011 8.90162 12.1233 8.98787 12.2946 9.16038C12.4659 9.33288 12.5516 9.5566 12.5516 9.83154C12.5516 10.1119 12.4659 10.3383 12.2946 10.5108C12.1233 10.6833 11.9011 10.7695 11.6281 10.7695H7.37997ZM15.2899 11.093C14.9259 11.093 14.6207 10.969 14.3745 10.721C14.1282 10.4677 14.0051 10.1577 14.0051 9.79111C14.0051 9.41914 14.1282 9.10916 14.3745 8.86119C14.6207 8.61321 14.9259 8.48922 15.2899 8.48922C15.6593 8.48922 15.9672 8.61321 16.2134 8.86119C16.4597 9.10916 16.5828 9.41914 16.5828 9.79111C16.5828 10.1577 16.4597 10.4677 16.2134 10.721C15.9672 10.969 15.6593 11.093 15.2899 11.093ZM9.5 13.2763C10.1746 13.2763 10.8866 13.2682 11.6361 13.252C12.3856 13.2358 13.1217 13.2143 13.8445 13.1873C14.5672 13.155 15.2284 13.1199 15.828 13.0822C16.4329 13.0445 16.9255 13.004 17.3056 12.9609C17.8516 12.8962 18.2692 12.7156 18.5583 12.4191C18.8528 12.1226 19 11.7156 19 11.1981V9.77493C19 9.31671 18.9679 8.91779 18.9036 8.57817C18.8394 8.23315 18.7323 7.9124 18.5824 7.6159C18.4325 7.31402 18.2344 7.00135 17.9882 6.6779L17.3056 5.7965C17.2092 5.31132 17.0914 4.83154 16.9522 4.35714C16.8184 3.88275 16.6819 3.45687 16.5427 3.07951C16.4088 2.70216 16.2964 2.41375 16.2054 2.21429C15.9913 1.75606 15.6808 1.39218 15.2739 1.12264C14.8724 0.8531 14.4066 0.683288 13.8766 0.613208C13.6946 0.586253 13.3894 0.56469 12.9611 0.548518C12.5382 0.532345 12.0269 0.521563 11.4273 0.516173C10.8331 0.505391 10.1906 0.5 9.5 0.5C8.80938 0.5 8.16427 0.505391 7.56467 0.516173C6.97042 0.526954 6.45914 0.540431 6.03086 0.556604C5.60792 0.572776 5.30812 0.591644 5.13145 0.613208C4.59609 0.677898 4.12764 0.847709 3.72612 1.12264C3.3246 1.39218 3.01677 1.75606 2.80262 2.21429C2.70625 2.41375 2.59115 2.70216 2.45731 3.07951C2.32347 3.45687 2.18695 3.88275 2.04776 4.35714C1.90857 4.83154 1.79079 5.31132 1.69442 5.7965L1.01986 6.6779C0.768245 7.00135 0.567484 7.31402 0.417582 7.6159C0.273035 7.9124 0.165962 8.23315 0.0963652 8.57817C0.0321217 8.91779 0 9.31671 0 9.77493V11.1981C0 11.7156 0.147225 12.1226 0.441674 12.4191C0.736123 12.7156 1.15371 12.8962 1.69442 12.9609C2.07453 13.004 2.56439 13.0445 3.16399 13.0822C3.76895 13.1199 4.4328 13.155 5.15554 13.1873C5.87828 13.2143 6.6144 13.2358 7.36391 13.252C8.11341 13.2682 8.82545 13.2763 9.5 13.2763ZM1.06805 15.5H2.00761C2.30741 15.5 2.55903 15.3976 2.76247 15.1927C2.97126 14.9879 3.07566 14.7345 3.07566 14.4326V12.4191L0 10.9474V14.4326C0 14.7345 0.101719 14.9879 0.305156 15.1927C0.508594 15.3976 0.762891 15.5 1.06805 15.5ZM16.9924 15.5H17.94C18.2398 15.5 18.4914 15.3976 18.6948 15.1927C18.8983 14.9879 19 14.7345 19 14.4326V10.9474L15.9324 12.4191V14.4326C15.9324 14.7345 16.0341 14.9879 16.2375 15.1927C16.441 15.3976 16.6926 15.5 16.9924 15.5Z"
		fill="currentColor"
	/>
</svg>
