<svg
	color="rgb(var(--foreground, 0, 0, 0))"
	viewBox="0 0 17 18"
	fill="none"
	xmlns="http://www.w3.org/2000/svg"
>
	<path
		d="M0.99561 18H1.03388C1.51351 18 1.91405 17.9464 2.2355 17.8392C2.56205 17.7371 2.83759 17.6095 3.06209 17.4564C3.2866 17.3033 3.48814 17.1476 3.66673 16.9894C3.84531 16.8362 4.02645 16.7061 4.21014 16.5989C4.39893 16.4968 4.61833 16.4458 4.86835 16.4458C5.10817 16.4458 5.32247 16.4968 5.51126 16.5989C5.70005 16.7061 5.88628 16.8362 6.06997 16.9894C6.25366 17.1476 6.45265 17.3033 6.66696 17.4564C6.88636 17.6095 7.14148 17.7371 7.43232 17.8392C7.72826 17.9464 8.08543 18 8.50383 18C8.91712 18 9.27174 17.9464 9.56768 17.8392C9.86362 17.7371 10.1187 17.6095 10.333 17.4564C10.5473 17.3033 10.7463 17.1476 10.93 16.9894C11.1137 16.8362 11.3 16.7061 11.4887 16.5989C11.6775 16.4968 11.8918 16.4458 12.1317 16.4458C12.3817 16.4458 12.5985 16.4968 12.7822 16.5989C12.971 16.7061 13.1547 16.8362 13.3333 16.9894C13.5119 17.1476 13.7134 17.3033 13.9379 17.4564C14.1675 17.6095 14.443 17.7371 14.7645 17.8392C15.086 17.9464 15.4865 18 15.9661 18H16.0044C16.1524 18 16.2774 17.9464 16.3794 17.8392C16.4866 17.7371 16.5401 17.6121 16.5401 17.4641C16.5401 17.316 16.4866 17.1884 16.3794 17.0812C16.2774 16.9741 16.1524 16.9205 16.0044 16.9205H15.9661C15.5528 16.9205 15.211 16.8464 14.9405 16.6984C14.6701 16.5504 14.3895 16.3743 14.0986 16.1701C13.8537 15.9915 13.5705 15.8128 13.2491 15.6342C12.9327 15.4556 12.5603 15.3662 12.1317 15.3662C11.6979 15.3662 11.3178 15.4607 10.9913 15.6495C10.6647 15.8384 10.379 16.0247 10.1341 16.2084C9.86873 16.4126 9.61616 16.581 9.37634 16.7137C9.13653 16.8516 8.84569 16.9205 8.50383 16.9205C8.15686 16.9205 7.86347 16.8516 7.62366 16.7137C7.38385 16.581 7.13383 16.4126 6.8736 16.2084C6.62359 16.0247 6.3353 15.8384 6.00874 15.6495C5.68729 15.4607 5.30716 15.3662 4.86835 15.3662C4.44485 15.3662 4.07237 15.4556 3.75092 15.6342C3.43457 15.8128 3.15138 15.9915 2.90137 16.1701C2.61053 16.3743 2.32989 16.5504 2.05947 16.6984C1.78904 16.8464 1.44717 16.9205 1.03388 16.9205H0.99561C0.84764 16.9205 0.72008 16.9741 0.612929 17.0812C0.51088 17.1884 0.459856 17.316 0.459856 17.4641C0.459856 17.6121 0.51088 17.7371 0.612929 17.8392C0.72008 17.9464 0.84764 18 0.99561 18ZM0.337398 13.2914L2.01354 15.5194C2.05436 15.4938 2.09773 15.4632 2.14366 15.4275C2.18958 15.3969 2.23805 15.3637 2.28907 15.3279C2.72788 15.0115 3.14628 14.7639 3.54427 14.5853C3.94736 14.4117 4.38872 14.325 4.86835 14.325C5.36329 14.325 5.8123 14.4168 6.21539 14.6006C6.62359 14.7843 7.05219 15.0421 7.5012 15.3739C7.77163 15.5832 7.96552 15.7184 8.08288 15.7797C8.20534 15.846 8.34565 15.8792 8.50383 15.8792C8.6467 15.8792 8.77426 15.8486 8.88651 15.7873C9.00387 15.7312 9.17735 15.6189 9.40696 15.4504C9.87638 15.088 10.3203 14.8099 10.7387 14.6159C11.1622 14.4219 11.6265 14.325 12.1317 14.325C12.6113 14.325 13.0526 14.4117 13.4557 14.5853C13.8588 14.7639 14.2772 15.0115 14.7109 15.3279C14.762 15.3637 14.8104 15.3969 14.8563 15.4275C14.9023 15.4632 14.9482 15.4938 14.9941 15.5194L16.6626 13.2914C16.8973 12.9851 17.0096 12.6814 16.9994 12.3803C16.9943 12.074 16.8795 11.8214 16.6549 11.6223C16.4355 11.4181 16.1243 11.316 15.7212 11.316H1.27879C0.875703 11.316 0.564456 11.4181 0.345051 11.6223C0.125647 11.8214 0.0108426 12.074 0.000637803 12.3803C-0.00956704 12.6814 0.102686 12.9851 0.337398 13.2914ZM4.18718 3.20034C4.25351 2.89409 4.34535 2.56997 4.46271 2.22799C4.58006 1.8809 4.68466 1.62569 4.77651 1.46236C4.85304 1.32965 4.93723 1.23267 5.02908 1.17142C5.12092 1.10506 5.24338 1.06168 5.39645 1.04126C5.61075 1.01063 5.96537 0.987665 6.46031 0.972352C6.96034 0.95704 7.64152 0.949383 8.50383 0.949383C9.36614 0.949383 10.0448 0.95704 10.5397 0.972352C11.0346 0.982561 11.3892 1.00553 11.6036 1.04126C11.7566 1.06168 11.8791 1.10506 11.9709 1.17142C12.0628 1.23267 12.147 1.32965 12.2235 1.46236C12.3204 1.62059 12.425 1.87325 12.5373 2.22033C12.6495 2.56742 12.7414 2.89409 12.8128 3.20034C12.8383 3.30242 12.8281 3.37644 12.7822 3.42237C12.7414 3.46321 12.6674 3.48107 12.5603 3.47597C12.249 3.45555 11.9071 3.43769 11.5347 3.42237C11.1673 3.40196 10.7387 3.38664 10.2489 3.37644C9.75902 3.36112 9.17735 3.35347 8.50383 3.35347C7.82521 3.35347 7.24098 3.36112 6.75115 3.37644C6.26131 3.38664 5.83016 3.40196 5.45768 3.42237C5.09031 3.43769 4.751 3.45555 4.43975 3.47597C4.3326 3.48107 4.25861 3.46321 4.21779 3.42237C4.17697 3.37644 4.16677 3.30242 4.18718 3.20034ZM4.46271 7.32709C4.20759 7.32709 3.99328 7.24288 3.8198 7.07444C3.65142 6.90089 3.56723 6.68652 3.56723 6.43131C3.56723 6.1761 3.65142 5.96427 3.8198 5.79583C3.99328 5.62229 4.20759 5.53552 4.46271 5.53552C4.71783 5.53552 4.92958 5.62229 5.09796 5.79583C5.27144 5.96427 5.35818 6.1761 5.35818 6.43131C5.35818 6.68652 5.27144 6.90089 5.09796 7.07444C4.92958 7.24288 4.71783 7.32709 4.46271 7.32709ZM7.01902 7.11272C6.83023 7.11272 6.67461 7.05402 6.55215 6.93662C6.4348 6.81412 6.37612 6.65589 6.37612 6.46193C6.37612 6.27308 6.4348 6.11995 6.55215 6.00255C6.67461 5.88005 6.83023 5.8188 7.01902 5.8188H9.98098C10.1698 5.8188 10.3228 5.88005 10.4402 6.00255C10.5627 6.11995 10.6239 6.27308 10.6239 6.46193C10.6239 6.65589 10.5627 6.81412 10.4402 6.93662C10.3228 7.05402 10.1698 7.11272 9.98098 7.11272H7.01902ZM12.5373 7.32709C12.2822 7.32709 12.0679 7.24288 11.8944 7.07444C11.726 6.90089 11.6418 6.68652 11.6418 6.43131C11.6418 6.1761 11.726 5.96427 11.8944 5.79583C12.0679 5.62229 12.2822 5.53552 12.5373 5.53552C12.7924 5.53552 13.0042 5.62229 13.1725 5.79583C13.346 5.96427 13.4328 6.1761 13.4328 6.43131C13.4328 6.68652 13.346 6.90089 13.1725 7.07444C13.0042 7.24288 12.7924 7.32709 12.5373 7.32709ZM8.50383 8.84305C8.97325 8.84305 9.46819 8.83794 9.98863 8.82773C10.5091 8.81242 11.0219 8.79711 11.527 8.78179C12.0322 8.76138 12.4939 8.73841 12.9123 8.71289C13.3307 8.68737 13.6726 8.65929 13.9379 8.62867C14.3155 8.58273 14.6063 8.45768 14.8104 8.25351C15.0145 8.04934 15.1166 7.76606 15.1166 7.40366V6.41599C15.1166 5.94641 15.063 5.55593 14.9558 5.24458C14.8487 4.93322 14.6676 4.61165 14.4124 4.27988L13.9379 3.66738C13.8359 3.16206 13.7057 2.67461 13.5476 2.20502C13.3894 1.73033 13.2618 1.3909 13.1649 1.18673C13.0169 0.870268 12.8026 0.620162 12.522 0.43641C12.2414 0.247554 11.9148 0.130157 11.5423 0.0842195C11.4199 0.0638026 11.2107 0.04849 10.9147 0.0382816C10.6188 0.0280732 10.2616 0.0204168 9.84321 0.0153126C9.42992 0.00510421 8.98346 0 8.50383 0C8.0191 0 7.56753 0.00510421 7.14913 0.0153126C6.73584 0.0204168 6.38122 0.0306253 6.08528 0.0459379C5.78934 0.0561463 5.58014 0.0689069 5.45768 0.0842195C5.0852 0.125053 4.75865 0.239898 4.47802 0.428754C4.19738 0.61761 3.98308 0.870268 3.83511 1.18673C3.73816 1.3909 3.6106 1.73033 3.45243 2.20502C3.29425 2.67461 3.16414 3.16206 3.06209 3.66738L2.59522 4.27988C2.335 4.61165 2.15131 4.93322 2.04416 5.24458C1.93701 5.55593 1.88343 5.94641 1.88343 6.41599V7.40366C1.88343 7.76606 1.98548 8.04934 2.18958 8.25351C2.39367 8.45768 2.68451 8.58273 3.06209 8.62867C3.32742 8.65929 3.66928 8.68737 4.08768 8.71289C4.51118 8.73841 4.97295 8.76138 5.47299 8.78179C5.97813 8.79711 6.49092 8.81242 7.01137 8.82773C7.53182 8.83794 8.0293 8.84305 8.50383 8.84305ZM2.62583 10.382H3.28405C3.49325 10.382 3.66928 10.3105 3.81215 10.1676C3.95502 10.0247 4.02645 9.85113 4.02645 9.64696V8.25351L1.88343 7.22756V9.64696C1.88343 9.85113 1.95487 10.0247 2.09773 10.1676C2.2406 10.3105 2.41664 10.382 2.62583 10.382ZM13.716 10.382H14.3742C14.5834 10.382 14.7594 10.3105 14.9023 10.1676C15.0451 10.0247 15.1166 9.85113 15.1166 9.64696V7.22756L12.9812 8.25351V9.64696C12.9812 9.85113 13.0501 10.0247 13.1879 10.1676C13.3307 10.3105 13.5068 10.382 13.716 10.382Z"
		fill="currentColor"
	/>
</svg>
