<svg
	color="rgb(var(--foreground, 0, 0, 0))"
	viewBox="0 0 17 20"
	fill="none"
	xmlns="http://www.w3.org/2000/svg"
>
	<path
		d="M8.5 17.7152C9.11189 17.7152 9.75305 17.7014 10.4235 17.6738C11.0939 17.6518 11.7537 17.6159 12.4028 17.5662C13.0573 17.5221 13.6559 17.4669 14.1986 17.4007C14.7413 17.3344 15.1563 17.1496 15.4437 16.846C15.7363 16.5425 15.8826 16.1231 15.8826 15.5877V2.11921C15.8826 1.5894 15.7363 1.17274 15.4437 0.869205C15.1563 0.565673 14.7413 0.380795 14.1986 0.31457C13.6559 0.248344 13.0573 0.193157 12.4028 0.149007C11.7537 0.0993377 11.0939 0.0634658 10.4235 0.0413907C9.75305 0.0137969 9.11189 0 8.5 0C7.88811 0 7.24429 0.0137969 6.56854 0.0413907C5.89812 0.0634658 5.23834 0.0993377 4.5892 0.149007C3.94006 0.193157 3.34413 0.248344 2.80141 0.31457C2.25869 0.380795 1.841 0.565673 1.54836 0.869205C1.26103 1.17274 1.11737 1.5894 1.11737 2.11921V15.5877C1.11737 16.1231 1.26103 16.5425 1.54836 16.846C1.841 17.1496 2.25869 17.3344 2.80141 17.4007C3.34413 17.4669 3.94006 17.5221 4.5892 17.5662C5.23834 17.6159 5.89812 17.6518 6.56854 17.6738C7.24429 17.7014 7.88811 17.7152 8.5 17.7152ZM8.5 16.6308C7.8615 16.6308 7.21236 16.617 6.55258 16.5894C5.89812 16.5673 5.27027 16.5342 4.66901 16.4901C4.07308 16.4514 3.54366 16.4018 3.08075 16.3411C2.74022 16.2969 2.50078 16.1865 2.36244 16.0099C2.22942 15.8278 2.16291 15.5767 2.16291 15.2566V2.45033C2.16291 2.13576 2.22942 1.89018 2.36244 1.71358C2.50078 1.53146 2.74022 1.41832 3.08075 1.37417C3.54366 1.31347 4.07308 1.26104 4.66901 1.21689C5.27027 1.17274 5.89812 1.13962 6.55258 1.11755C7.21236 1.09547 7.8615 1.08444 8.5 1.08444C9.12786 1.08444 9.76635 1.09823 10.4155 1.12583C11.07 1.1479 11.6978 1.18102 12.2991 1.22517C12.9056 1.2638 13.4457 1.31347 13.9192 1.37417C14.2545 1.4128 14.4912 1.52318 14.6296 1.7053C14.7679 1.88742 14.8371 2.13576 14.8371 2.45033V15.2566C14.8371 15.5767 14.7679 15.8278 14.6296 16.0099C14.4912 16.1865 14.2545 16.2969 13.9192 16.3411C13.4457 16.4018 12.9056 16.4514 12.2991 16.4901C11.6978 16.5342 11.07 16.5673 10.4155 16.5894C9.76635 16.617 9.12786 16.6308 8.5 16.6308ZM2.57793 20H3.51972C3.81768 20 4.06776 19.8951 4.26995 19.6854C4.47746 19.4757 4.58122 19.2163 4.58122 18.9073V17.1192L1.52441 16.6391V18.9073C1.52441 19.2108 1.62551 19.4674 1.8277 19.6772C2.02989 19.8924 2.27997 20 2.57793 20ZM13.4803 20H14.4141C14.7174 20 14.9701 19.8924 15.1723 19.6772C15.3745 19.4674 15.4756 19.2108 15.4756 18.9073V16.6391L12.4188 17.1192V18.9073C12.4188 19.2163 12.5199 19.4757 12.7221 19.6854C12.9296 19.8951 13.1823 20 13.4803 20ZM1.63615 9.87583V5.6043H0.758216C0.534742 5.6043 0.351174 5.67053 0.207512 5.80298C0.0691706 5.93543 0 6.11203 0 6.33278V9.15563C0 9.37086 0.0691706 9.5447 0.207512 9.67715C0.351174 9.8096 0.534742 9.87583 0.758216 9.87583H1.63615ZM15.3638 9.87583H16.2418C16.4653 9.87583 16.6462 9.8096 16.7845 9.67715C16.9282 9.5447 17 9.37086 17 9.15563V6.33278C17 6.11203 16.9282 5.93543 16.7845 5.80298C16.6462 5.67053 16.4653 5.6043 16.2418 5.6043H15.3638V9.87583ZM2.98498 6.71358H14.015V3.32781C14.015 2.70419 13.7064 2.35651 13.0892 2.28477C12.3975 2.20751 11.6606 2.14956 10.8784 2.11093C10.1016 2.0723 9.30876 2.05298 8.5 2.05298C7.69124 2.05298 6.89577 2.0723 6.11361 2.11093C5.33678 2.14956 4.60516 2.20751 3.91878 2.28477C3.29624 2.36203 2.98498 2.70971 2.98498 3.32781V6.71358ZM2.98498 7.8394V11.1341C2.98498 11.6639 3.23239 11.973 3.72723 12.0613C4.3338 12.1716 5.04945 12.2544 5.87418 12.3096C6.70423 12.3648 7.56886 12.3951 8.46807 12.4007C9.36729 12.4007 10.2346 12.3731 11.07 12.3179C11.9106 12.2627 12.6449 12.1772 13.2728 12.0613C13.4909 12.0226 13.6692 11.9288 13.8075 11.7798C13.9459 11.6253 14.015 11.41 14.015 11.1341V7.8394H2.98498ZM4.22207 15.3477C4.47746 15.3477 4.6903 15.2566 4.86056 15.0745C5.03615 14.8924 5.12394 14.6716 5.12394 14.4123C5.12394 14.1473 5.03615 13.9266 4.86056 13.75C4.6903 13.5679 4.47746 13.4768 4.22207 13.4768C3.96667 13.4768 3.75117 13.5679 3.57559 13.75C3.40532 13.9266 3.32019 14.1473 3.32019 14.4123C3.32019 14.6716 3.40532 14.8924 3.57559 15.0745C3.75117 15.2566 3.96667 15.3477 4.22207 15.3477ZM6.95164 15.0993H10.0324C10.2239 15.0993 10.3836 15.0331 10.5113 14.9007C10.639 14.7682 10.7028 14.6026 10.7028 14.404C10.7028 14.1998 10.639 14.0342 10.5113 13.9073C10.3889 13.7748 10.2293 13.7086 10.0324 13.7086H6.95164C6.75477 13.7086 6.59249 13.7748 6.46479 13.9073C6.34241 14.0342 6.28122 14.1998 6.28122 14.404C6.28122 14.6026 6.34507 14.7682 6.47277 14.9007C6.60047 15.0331 6.76009 15.0993 6.95164 15.0993ZM12.7779 15.3477C13.028 15.3477 13.2408 15.2566 13.4164 15.0745C13.592 14.8924 13.6798 14.6716 13.6798 14.4123C13.6798 14.1473 13.592 13.9266 13.4164 13.75C13.2408 13.5679 13.028 13.4768 12.7779 13.4768C12.5225 13.4768 12.307 13.5679 12.1315 13.75C11.9612 13.9266 11.8761 14.1473 11.8761 14.4123C11.8761 14.6716 11.9612 14.8924 12.1315 15.0745C12.307 15.2566 12.5225 15.3477 12.7779 15.3477Z"
		fill="currentColor"
	/>
</svg>
