<svg
	color="rgb(var(--foreground, 0, 0, 0))"
	viewBox="0 0 17 20"
	fill="none"
	xmlns="http://www.w3.org/2000/svg"
>
	<path
		d="M1.13876 18.9118C1.13876 19.2141 1.24179 19.4696 1.44785 19.6785C1.65391 19.8928 1.90877 20 2.21244 20H3.17225C3.47592 20 3.73078 19.8956 3.93684 19.6867C4.14833 19.4779 4.25407 19.2196 4.25407 18.9118V17.5433C5.05662 17.5982 5.79952 17.6395 6.48278 17.6669C7.17145 17.6999 7.84386 17.7164 8.5 17.7164C9.16156 17.7164 9.83126 17.7027 10.5091 17.6752C11.1923 17.6477 11.938 17.6037 12.7459 17.5433V18.9118C12.7459 19.2196 12.849 19.4779 13.055 19.6867C13.2611 19.8956 13.5159 20 13.8196 20H14.7794C15.0831 20 15.338 19.8928 15.544 19.6785C15.7555 19.4696 15.8612 19.2141 15.8612 18.9118V2.10223C15.8612 1.57461 15.7121 1.15966 15.4139 0.857379C15.1156 0.555098 14.69 0.370981 14.1368 0.305029C13.2801 0.206101 12.3691 0.131904 11.4038 0.0824402C10.444 0.0274801 9.47608 0 8.5 0C7.52935 0 6.56411 0.0274801 5.60431 0.0824402C4.6445 0.131904 3.72807 0.206101 2.85502 0.305029C2.30191 0.370981 1.87624 0.555098 1.57799 0.857379C1.28517 1.15966 1.13876 1.57461 1.13876 2.10223V18.9118ZM2.62727 6.63644V2.76999C2.62727 2.18192 2.89569 1.85491 3.43254 1.78895C4.27847 1.69552 5.12169 1.62407 5.9622 1.57461C6.80813 1.52514 7.65407 1.50041 8.5 1.50041C9.34051 1.50041 10.1837 1.52514 11.0297 1.57461C11.8756 1.62407 12.7215 1.69552 13.5675 1.78895C14.1043 1.85491 14.3727 2.18192 14.3727 2.76999V6.63644H2.62727ZM2.62727 7.84007H14.3727V11.5334C14.3727 12.1215 14.1043 12.4457 13.5675 12.5062C12.7541 12.5996 11.919 12.6711 11.0622 12.7205C10.2108 12.77 9.35678 12.7947 8.5 12.7947C7.64322 12.7947 6.78915 12.7727 5.9378 12.7288C5.08644 12.6793 4.25136 12.6051 3.43254 12.5062C2.89569 12.4457 2.62727 12.1215 2.62727 11.5334V7.84007ZM4.14019 16.0017C3.86364 16.0017 3.63046 15.9055 3.44067 15.7131C3.2563 15.5207 3.16411 15.2872 3.16411 15.0124C3.16411 14.7321 3.2563 14.4985 3.44067 14.3116C3.63046 14.1193 3.86364 14.0231 4.14019 14.0231C4.41675 14.0231 4.64721 14.1193 4.83158 14.3116C5.02137 14.4985 5.11627 14.7321 5.11627 15.0124C5.11627 15.2872 5.02137 15.5207 4.83158 15.7131C4.64721 15.9055 4.41675 16.0017 4.14019 16.0017ZM7.08469 15.6966C6.88947 15.6966 6.72679 15.6307 6.59665 15.4988C6.46651 15.3669 6.40144 15.202 6.40144 15.0041C6.40144 14.8008 6.4638 14.6359 6.58852 14.5095C6.71866 14.3776 6.88405 14.3116 7.08469 14.3116H9.90718C10.1078 14.3116 10.2732 14.3776 10.4033 14.5095C10.5335 14.6359 10.5986 14.8008 10.5986 15.0041C10.5986 15.202 10.5335 15.3669 10.4033 15.4988C10.2732 15.6307 10.1078 15.6966 9.90718 15.6966H7.08469ZM12.8598 16.0017C12.5833 16.0017 12.3501 15.9055 12.1603 15.7131C11.9759 15.5207 11.8837 15.2872 11.8837 15.0124C11.8837 14.7321 11.9759 14.4985 12.1603 14.3116C12.3501 14.1193 12.5833 14.0231 12.8598 14.0231C13.1309 14.0231 13.3614 14.1193 13.5512 14.3116C13.741 14.4985 13.8359 14.7321 13.8359 15.0124C13.8359 15.2872 13.741 15.5207 13.5512 15.7131C13.3614 15.9055 13.1309 16.0017 12.8598 16.0017ZM1.66746 9.75268V5.49876H0.772727C0.544976 5.49876 0.357895 5.56472 0.211483 5.69662C0.0704944 5.82852 0 6.0044 0 6.22424V9.03545C0 9.2498 0.0704944 9.42292 0.211483 9.55482C0.357895 9.68673 0.544976 9.75268 0.772727 9.75268H1.66746ZM15.3325 9.75268H16.2273C16.455 9.75268 16.6394 9.68673 16.7804 9.55482C16.9268 9.42292 17 9.2498 17 9.03545V6.22424C17 6.0044 16.9268 5.82852 16.7804 5.69662C16.6394 5.56472 16.455 5.49876 16.2273 5.49876H15.3325V9.75268Z"
		fill="currentColor"
	/>
</svg>
