<svg
	color="rgb(var(--foreground, 0, 0, 0))"
	viewBox="0 0 16 18"
	fill="none"
	xmlns="http://www.w3.org/2000/svg"
>
	<path
		d="M11.7052 17.3949V2.04931C11.7052 1.38772 11.5299 0.882116 11.1793 0.532497C10.834 0.177499 10.3373 0 9.68924 0H3.26693C2.61355 0 2.11421 0.177499 1.76892 0.532497C1.42895 0.882116 1.25896 1.38772 1.25896 2.04931V17.3949H11.7052ZM3.52988 8.42313C3.23772 8.42313 3.0093 8.34783 2.84462 8.19722C2.67995 8.04124 2.59761 7.82878 2.59761 7.55984V2.23487C2.59761 1.96593 2.67995 1.75347 2.84462 1.59749C3.0093 1.44151 3.23772 1.36351 3.52988 1.36351H9.4263C9.71846 1.36351 9.94688 1.44151 10.1116 1.59749C10.2815 1.75347 10.3665 1.96593 10.3665 2.23487V7.55984C10.3665 7.82878 10.2815 8.04124 10.1116 8.19722C9.94688 8.34783 9.71846 8.42313 9.4263 8.42313H3.52988ZM0 17.3384C0 17.5213 0.061089 17.6773 0.183267 17.8064C0.305445 17.9355 0.454183 18 0.629482 18H12.3187C12.494 18 12.6454 17.9355 12.7729 17.8064C12.9004 17.6773 12.9641 17.5213 12.9641 17.3384C12.9641 17.1663 12.9004 17.0157 12.7729 16.8866C12.6454 16.7629 12.494 16.701 12.3187 16.701H0.629482C0.459495 16.701 0.310757 16.7629 0.183267 16.8866C0.061089 17.0103 0 17.1609 0 17.3384ZM11.0916 10.6257H11.7849C11.9655 10.6257 12.1089 10.6795 12.2151 10.7871C12.3267 10.8893 12.3825 11.0399 12.3825 11.2389V13.9095C12.3825 14.485 12.5418 14.9341 12.8606 15.2568C13.1846 15.5849 13.6308 15.749 14.1992 15.749C14.7623 15.749 15.2032 15.5849 15.5219 15.2568C15.8406 14.9341 16 14.485 16 13.9095V4.026C16 3.78395 15.9681 3.56611 15.9044 3.37248C15.846 3.17884 15.7583 2.9879 15.6414 2.79964L14.5498 1.00852C14.4489 0.847154 14.324 0.755715 14.1753 0.7342C14.0319 0.707306 13.8964 0.7342 13.7689 0.814881C13.6467 0.890184 13.5618 1.00045 13.5139 1.14567C13.4714 1.28552 13.5007 1.43882 13.6016 1.60556L14.5339 3.1385C14.6242 3.28911 14.6189 3.4424 14.5179 3.59839L13.4741 5.07485C13.1448 5.53743 13.166 5.98924 13.5378 6.4303L14.8765 8.00359V13.9095C14.8765 14.13 14.8154 14.3021 14.6932 14.4258C14.571 14.5495 14.4064 14.6114 14.1992 14.6114C13.9814 14.6114 13.8114 14.5495 13.6892 14.4258C13.5671 14.3021 13.506 14.13 13.506 13.9095V11.2389C13.506 10.6795 13.3519 10.2492 13.0438 9.948C12.741 9.64142 12.3214 9.48812 11.7849 9.48812H11.0916V10.6257Z"
		fill="currentColor"
	/>
</svg>
