<svg
	color="rgb(var(--foreground, 0, 0, 0))"
	viewBox="0 0 16 18"
	fill="none"
	xmlns="http://www.w3.org/2000/svg"
>
	<path
		d="M11.9128 17.3949V2.04931C11.9128 1.38772 11.746 0.882116 11.4123 0.532497C11.0837 0.177499 10.6085 0 9.98673 0H3.109C2.4872 0 2.01201 0.177499 1.68341 0.532497C1.35987 0.882116 1.1981 1.38772 1.1981 2.04931V17.3949H2.41137L2.41896 2.06544C2.41896 1.55446 2.65656 1.29897 3.13175 1.29897H9.96398C10.2016 1.29897 10.381 1.36351 10.5024 1.4926C10.6237 1.62169 10.6844 1.81264 10.6844 2.06544V17.3949H11.9128ZM0 17.3384C0 17.5213 0.0581359 17.6773 0.174408 17.8064C0.290679 17.9355 0.432227 18 0.599052 18H12.4967C12.6635 18 12.8051 17.9355 12.9213 17.8064C13.0427 17.6773 13.1033 17.5213 13.1033 17.3384C13.1033 17.1663 13.0427 17.0157 12.9213 16.8866C12.8051 16.7629 12.6635 16.701 12.4967 16.701H0.599052C0.437283 16.701 0.295735 16.7629 0.174408 16.8866C0.0581359 17.0103 0 17.1609 0 17.3384ZM4.12512 8.88301H8.97062C9.22338 8.88301 9.42812 8.80771 9.58483 8.6571C9.7466 8.5065 9.82749 8.31017 9.82749 8.06813V3.17884C9.82749 2.93142 9.7466 2.73241 9.58483 2.5818C9.42812 2.42582 9.22338 2.34783 8.97062 2.34783H4.12512C3.87741 2.34783 3.6752 2.42582 3.51848 2.5818C3.36177 2.73241 3.28341 2.93142 3.28341 3.17884V8.06813C3.28341 8.31017 3.35924 8.5065 3.5109 8.6571C3.66761 8.80771 3.87235 8.88301 4.12512 8.88301ZM11.3289 10.6257H11.9886C12.1605 10.6257 12.297 10.6795 12.3981 10.7871C12.4992 10.8893 12.5498 11.0399 12.5498 11.2389V13.9095C12.5498 14.485 12.7039 14.9341 13.0123 15.2568C13.3207 15.5849 13.7428 15.749 14.2787 15.749C14.8196 15.749 15.2417 15.5849 15.545 15.2568C15.8483 14.9341 16 14.485 16 13.9095V4.026C16 3.78395 15.9697 3.56611 15.909 3.37248C15.8534 3.17884 15.77 2.9879 15.6588 2.79964L14.6199 1.00852C14.5239 0.847154 14.4051 0.755715 14.2635 0.7342C14.127 0.707306 13.9981 0.7342 13.8768 0.814881C13.7605 0.890184 13.6796 1.00045 13.6341 1.14567C13.5886 1.28552 13.6139 1.43882 13.71 1.60556L14.6047 3.1385C14.6907 3.28911 14.6856 3.4424 14.5896 3.59839L13.5962 5.07485C13.2828 5.53743 13.303 5.98924 13.6569 6.4303L14.9308 8.00359V13.9095C14.9308 14.13 14.8727 14.3021 14.7564 14.4258C14.6401 14.5495 14.4809 14.6114 14.2787 14.6114C14.0765 14.6114 13.9172 14.5495 13.8009 14.4258C13.6847 14.3021 13.6265 14.13 13.6265 13.9095V11.2389C13.6265 10.6795 13.4799 10.2492 13.1867 9.94801C12.8986 9.64142 12.4992 9.48812 11.9886 9.48812H11.3289V10.6257Z"
		fill="currentColor"
	/>
</svg>
