<svg
	color="rgb(var(--foreground, 0, 0, 0))"
	viewBox="0 0 18 20"
	fill="none"
	xmlns="http://www.w3.org/2000/svg"
>
	<path
		d="M0.0689586 15.9468L0.742872 18.2551C0.805562 18.4533 0.876088 18.6255 0.95445 18.7715C1.03804 18.9228 1.13468 19.0506 1.24439 19.1549L2.27093 18.4898C2.1351 18.4377 2.02017 18.3542 1.92614 18.2394C1.8321 18.1247 1.75897 17.9786 1.70673 17.8013L1.1817 15.8607C1.1608 15.7981 1.1608 15.7486 1.1817 15.7121C1.20782 15.6703 1.25484 15.6495 1.32275 15.6495H16.5328C16.6007 15.6495 16.6425 15.6729 16.6582 15.7199C16.6739 15.7616 16.6582 15.8086 16.6112 15.8607L14.9186 17.7934C14.7827 17.9395 14.6469 18.0725 14.5111 18.1925C14.3805 18.3125 14.1976 18.4064 13.9625 18.4742L14.9186 19.1784C15.1223 19.0376 15.3104 18.8706 15.4828 18.6776C15.6604 18.4846 15.8485 18.2733 16.047 18.0438L17.7396 16.1033C17.9277 15.8894 18.0139 15.6651 17.9982 15.4304C17.9825 15.1904 17.8859 14.9896 17.7083 14.8279C17.5306 14.6661 17.2903 14.5853 16.9873 14.5853H1.05632C0.633165 14.5853 0.332777 14.7157 0.155157 14.9765C-0.0172397 15.2321 -0.0459724 15.5556 0.0689586 15.9468ZM7.52119 15.2426H8.57908V0.532081C8.57908 0.38602 8.52683 0.260824 8.42235 0.156495C8.32309 0.0521648 8.20033 0 8.05405 0C7.90777 0 7.78239 0.0521648 7.67791 0.156495C7.57343 0.260824 7.52119 0.38602 7.52119 0.532081V15.2426ZM8.12458 12.5509H11.3453C12.1341 12.5509 12.8002 12.4231 13.3435 12.1674C13.892 11.9118 14.3073 11.5493 14.5894 11.0798C14.8768 10.6051 15.0204 10.0443 15.0204 9.3975C15.0204 8.735 14.8924 8.06208 14.6365 7.37872C14.3857 6.69536 14.0409 6.02765 13.6021 5.37559C13.1633 4.71831 12.6591 4.09494 12.0897 3.50548C11.5203 2.91601 10.9143 2.38133 10.2717 1.90141C9.63435 1.41628 8.99439 1.00678 8.35183 0.672926L7.81896 1.58842C8.35182 1.81794 8.90297 2.13354 9.4724 2.53521C10.0418 2.93688 10.593 3.39593 11.1258 3.91236C11.6587 4.42879 12.1393 4.98435 12.5677 5.57903C12.9961 6.16849 13.3357 6.77621 13.5864 7.40219C13.8372 8.02295 13.9625 8.63328 13.9625 9.23318C13.9625 9.68701 13.8581 10.0835 13.6491 10.4225C13.4454 10.7564 13.1502 11.0172 12.7636 11.205C12.377 11.3928 11.9095 11.4867 11.3609 11.4867H8.12458V12.5509ZM8.78282 2.08138C9.30523 2.82733 9.69443 3.59155 9.95041 4.37402C10.2064 5.15649 10.3474 5.92332 10.3736 6.67449C10.3997 7.42567 10.3239 8.12728 10.1463 8.77934C9.9687 9.42619 9.70488 9.99218 9.35486 10.4773C9.00484 10.9624 8.58169 11.3302 8.08539 11.5806L8.30481 12.5039C8.97872 12.1961 9.54554 11.7684 10.0053 11.2207C10.465 10.6677 10.8098 10.0339 11.0396 9.31925C11.2747 8.59937 11.3844 7.82733 11.3688 7.00313C11.3583 6.17893 11.2147 5.33646 10.9378 4.47574C10.6661 3.60981 10.2508 2.75952 9.69182 1.92488L8.78282 2.08138ZM1.95748 12.5509H7.92867V11.4867H2.97619C2.92917 11.4867 2.89783 11.4684 2.88216 11.4319C2.87171 11.3954 2.88477 11.3641 2.92134 11.338C3.45942 10.9364 3.98184 10.4408 4.48858 9.85133C5.00054 9.26187 5.47855 8.61763 5.9226 7.91862C6.37188 7.21961 6.77414 6.49713 7.12938 5.75117C7.48462 5 7.77978 4.26187 8.01487 3.53678C8.24995 2.80647 8.40668 2.12311 8.48504 1.4867L7.52119 0.821596C7.53686 1.34846 7.45327 1.95618 7.27043 2.64476C7.09281 3.33333 6.82899 4.05842 6.47897 4.82003C6.12896 5.58164 5.7058 6.34324 5.20951 7.10485C4.71321 7.86646 4.15423 8.58894 3.53256 9.2723C2.91611 9.95566 2.24742 10.5582 1.52649 11.0798C1.3332 11.2154 1.21043 11.3693 1.15819 11.5415C1.10595 11.7084 1.10856 11.8701 1.16603 12.0266C1.22349 12.1779 1.32014 12.3031 1.45597 12.4022C1.59702 12.5013 1.76419 12.5509 1.95748 12.5509ZM8.29697 20C8.72535 20 9.08843 19.9452 9.3862 19.8357C9.6892 19.7314 9.95041 19.5983 10.1698 19.4366C10.3945 19.2801 10.5982 19.1236 10.781 18.9671C10.9691 18.8106 11.1598 18.6776 11.3531 18.5681C11.5464 18.4637 11.7684 18.4116 12.0192 18.4116C12.2752 18.4116 12.4972 18.4637 12.6852 18.5681C12.8733 18.6776 13.0588 18.8106 13.2416 18.9671C13.4297 19.1236 13.6387 19.2801 13.8685 19.4366C14.0984 19.5983 14.3779 19.7314 14.707 19.8357C15.0413 19.9452 15.4514 20 15.9373 20H16.7366C16.8881 20 17.0161 19.9452 17.1205 19.8357C17.2302 19.7261 17.2851 19.5957 17.2851 19.4444C17.2851 19.2932 17.2302 19.1628 17.1205 19.0532C17.0161 18.9489 16.8881 18.8967 16.7366 18.8967H15.9373C15.5193 18.8967 15.1693 18.8211 14.8872 18.6698C14.6103 18.5185 14.3256 18.3385 14.0331 18.1299C13.7771 17.9421 13.4845 17.7569 13.1554 17.5743C12.8315 17.397 12.4528 17.3083 12.0192 17.3083C11.5699 17.3083 11.1781 17.4022 10.8437 17.59C10.5146 17.783 10.2221 17.976 9.96608 18.169C9.69443 18.3725 9.43583 18.5446 9.1903 18.6854C8.94477 18.8263 8.64699 18.8967 8.29697 18.8967C7.94696 18.8967 7.64918 18.8263 7.40364 18.6854C7.15811 18.5446 6.89952 18.3725 6.62786 18.169C6.37188 17.976 6.07671 17.783 5.74237 17.59C5.41325 17.4022 5.02405 17.3083 4.57478 17.3083C4.14117 17.3083 3.75981 17.397 3.43069 17.5743C3.10679 17.7569 2.81685 17.9421 2.56087 18.1299C2.26832 18.3385 1.9836 18.5185 1.70673 18.6698C1.42985 18.8211 1.07983 18.8967 0.656674 18.8967H0.617493C0.465993 18.8967 0.335389 18.9489 0.225683 19.0532C0.115976 19.1628 0.0611224 19.2932 0.0611224 19.4444C0.0611224 19.5957 0.115976 19.7261 0.225683 19.8357C0.335389 19.9452 0.465993 20 0.617493 20H0.656674C1.14252 20 1.55 19.9452 1.87912 19.8357C2.21347 19.7314 2.49557 19.5983 2.72543 19.4366C2.95529 19.2801 3.16165 19.1236 3.34449 18.9671C3.53256 18.8106 3.72063 18.6776 3.9087 18.5681C4.10199 18.4637 4.32402 18.4116 4.57478 18.4116C4.82553 18.4116 5.04756 18.4637 5.24085 18.5681C5.43415 18.6776 5.62221 18.8106 5.80506 18.9671C5.99313 19.1236 6.19687 19.2801 6.41628 19.4366C6.64092 19.5983 6.90213 19.7314 7.1999 19.8357C7.5029 19.9452 7.86859 20 8.29697 20Z"
		fill="currentColor"
	/>
</svg>
