<svg
	color="rgb(var(--foreground, 0, 0, 0))"
	viewBox="0 0 18 20"
	fill="none"
	xmlns="http://www.w3.org/2000/svg"
>
	<path
		d="M1.95748 12.5509H7.52119V15.2426H8.57907V12.5509H11.3453C12.1341 12.5509 12.8002 12.4231 13.3435 12.1674C13.892 11.9118 14.3073 11.5493 14.5894 11.0798C14.8768 10.6051 15.0204 10.0443 15.0204 9.3975C15.0204 8.75065 14.9003 8.09598 14.66 7.43349C14.4197 6.76578 14.0879 6.11111 13.6648 5.46948C13.2468 4.82786 12.7636 4.21753 12.2151 3.6385C11.6665 3.05425 11.0814 2.51956 10.4598 2.03443C9.84332 1.5493 9.21642 1.13459 8.57907 0.790297V0.532081C8.57907 0.38602 8.52683 0.260824 8.42235 0.156495C8.32309 0.0521648 8.20033 0 8.05405 0C7.90777 0 7.78239 0.0521648 7.67791 0.156495C7.57343 0.260824 7.52119 0.38602 7.52119 0.532081V1.00939C7.52119 1.54669 7.42715 2.15702 7.23908 2.84038C7.05101 3.51852 6.77936 4.23057 6.42412 4.97653C6.0741 5.72248 5.65095 6.46844 5.15465 7.2144C4.66358 7.95514 4.11244 8.65676 3.50121 9.31925C2.88999 9.98174 2.23175 10.5686 1.52649 11.0798C1.3332 11.2154 1.21043 11.3693 1.15819 11.5415C1.10595 11.7084 1.10856 11.8701 1.16603 12.0266C1.22349 12.1779 1.32014 12.3031 1.45597 12.4022C1.59702 12.5013 1.76419 12.5509 1.95748 12.5509ZM8.57907 11.2441V1.97966C8.89252 2.33959 9.16157 2.723 9.3862 3.12989C9.61607 3.53678 9.80413 3.9567 9.95041 4.38967C10.0967 4.82264 10.2038 5.25822 10.2717 5.6964C10.3448 6.12937 10.3814 6.5519 10.3814 6.96401C10.3814 7.57433 10.3083 8.15336 10.162 8.7011C10.0209 9.24883 9.81719 9.73918 9.55076 10.1721C9.28433 10.6051 8.96044 10.9624 8.57907 11.2441ZM0.0689586 15.9468L0.617493 17.8013C0.627941 17.8273 0.635777 17.8534 0.641002 17.8795C0.646226 17.9056 0.654062 17.9291 0.66451 17.9499C0.894372 17.9395 1.11117 17.8899 1.31492 17.8013C1.51866 17.7178 1.75897 17.5796 2.03585 17.3865C2.20824 17.2613 2.41721 17.1205 2.66274 16.964C2.90828 16.8127 3.19038 16.6797 3.50905 16.5649C3.82772 16.4502 4.18296 16.3928 4.57477 16.3928C4.91957 16.3928 5.23824 16.4371 5.53079 16.5258C5.82334 16.6197 6.08977 16.7371 6.33008 16.8779C6.57562 17.0188 6.79764 17.1622 6.99616 17.3083C7.37752 17.5952 7.64395 17.7778 7.79545 17.856C7.94695 17.9395 8.11413 17.9812 8.29697 17.9812C8.47982 17.9812 8.64699 17.9395 8.79849 17.856C8.94999 17.7778 9.21642 17.5952 9.59778 17.3083C9.7963 17.1622 10.0157 17.0188 10.256 16.8779C10.5016 16.7423 10.7706 16.6275 11.0632 16.5336C11.3557 16.4398 11.6744 16.3928 12.0192 16.3928C12.411 16.3928 12.7662 16.4502 13.0849 16.5649C13.4036 16.6797 13.6857 16.8127 13.9312 16.964C14.1767 17.1205 14.3883 17.2613 14.5659 17.3865C14.8376 17.5796 15.0857 17.7204 15.3104 17.8091C15.5402 17.903 15.8014 17.9525 16.094 17.9577L17.7396 16.1033C17.9277 15.8894 18.0139 15.6651 17.9982 15.4304C17.9825 15.1904 17.8859 14.9896 17.7083 14.8279C17.5306 14.6661 17.2903 14.5853 16.9873 14.5853H1.05632C0.633165 14.5853 0.332777 14.7157 0.155157 14.9765C-0.0172397 15.2321 -0.0459724 15.5556 0.0689586 15.9468ZM0.0611224 19.4444C0.0611224 19.5957 0.115976 19.7261 0.225683 19.8357C0.33539 19.9452 0.465993 20 0.617493 20H0.656674C1.14252 20 1.55 19.9452 1.87912 19.8357C2.21347 19.7314 2.49557 19.5983 2.72543 19.4366C2.95529 19.2801 3.16165 19.1236 3.34449 18.9671C3.53256 18.8106 3.72063 18.6776 3.9087 18.5681C4.10199 18.4637 4.32402 18.4116 4.57477 18.4116C4.82553 18.4116 5.04756 18.4637 5.24085 18.5681C5.43414 18.6776 5.62221 18.8106 5.80506 18.9671C5.99313 19.1236 6.19687 19.2801 6.41628 19.4366C6.64092 19.5983 6.90213 19.7314 7.1999 19.8357C7.5029 19.9452 7.86859 20 8.29697 20C8.72535 20 9.08843 19.9452 9.3862 19.8357C9.6892 19.7314 9.95041 19.5983 10.1698 19.4366C10.3945 19.2801 10.5982 19.1236 10.781 18.9671C10.9691 18.8106 11.1598 18.6776 11.3531 18.5681C11.5464 18.4637 11.7684 18.4116 12.0192 18.4116C12.2752 18.4116 12.4972 18.4637 12.6852 18.5681C12.8733 18.6776 13.0588 18.8106 13.2416 18.9671C13.4297 19.1236 13.6386 19.2801 13.8685 19.4366C14.0984 19.5983 14.3779 19.7314 14.707 19.8357C15.0413 19.9452 15.4514 20 15.9373 20H16.7366C16.8881 20 17.0161 19.9452 17.1205 19.8357C17.2302 19.7261 17.2851 19.5957 17.2851 19.4444C17.2851 19.2932 17.2302 19.1628 17.1205 19.0532C17.0161 18.9489 16.8881 18.8967 16.7366 18.8967H15.9373C15.5193 18.8967 15.1693 18.8211 14.8872 18.6698C14.6103 18.5185 14.3256 18.3385 14.0331 18.1299C13.7771 17.9421 13.4845 17.7569 13.1554 17.5743C12.8315 17.397 12.4528 17.3083 12.0192 17.3083C11.5699 17.3083 11.1781 17.4022 10.8437 17.59C10.5146 17.783 10.2221 17.976 9.96608 18.169C9.69443 18.3725 9.43583 18.5446 9.1903 18.6854C8.94476 18.8263 8.64699 18.8967 8.29697 18.8967C7.94695 18.8967 7.64918 18.8263 7.40364 18.6854C7.15811 18.5446 6.89951 18.3725 6.62786 18.169C6.37188 17.976 6.07671 17.783 5.74237 17.59C5.41325 17.4022 5.02405 17.3083 4.57477 17.3083C4.14117 17.3083 3.75981 17.397 3.43069 17.5743C3.10679 17.7569 2.81685 17.9421 2.56087 18.1299C2.26832 18.3385 1.9836 18.5185 1.70673 18.6698C1.42985 18.8211 1.07983 18.8967 0.656674 18.8967H0.617493C0.465993 18.8967 0.33539 18.9489 0.225683 19.0532C0.115976 19.1628 0.0611224 19.2932 0.0611224 19.4444Z"
		fill="currentColor"
	/>
</svg>
