<svg
	color="rgb(var(--foreground, 0, 0, 0))"
	viewBox="0 0 20 16"
	fill="none"
	xmlns="http://www.w3.org/2000/svg"
>
	<path
		d="M2.89392 16C3.42434 16 3.90796 15.8671 4.34477 15.6014C4.78159 15.3357 5.13 14.9796 5.39002 14.5331C5.65003 14.0867 5.78003 13.5924 5.78003 13.0503C5.78003 12.5029 5.65003 12.006 5.39002 11.5595C5.13 11.1131 4.78159 10.757 4.34477 10.4913C3.90796 10.2255 3.42434 10.0927 2.89392 10.0927C2.35829 10.0927 1.87207 10.2255 1.43526 10.4913C0.99844 10.757 0.650026 11.1131 0.390016 11.5595C0.130005 12.006 0 12.5029 0 13.0503C0 13.5924 0.130005 14.0867 0.390016 14.5331C0.650026 14.9796 0.99844 15.3357 1.43526 15.6014C1.87207 15.8671 2.35829 16 2.89392 16ZM2.89392 14.9238C2.5507 14.9238 2.23869 14.8387 1.95788 14.6687C1.68227 14.5039 1.46126 14.278 1.29485 13.991C1.13365 13.7094 1.05304 13.3958 1.05304 13.0503C1.05304 12.6996 1.13365 12.3833 1.29485 12.1016C1.46126 11.82 1.68227 11.5941 1.95788 11.424C2.23869 11.2539 2.5507 11.1689 2.89392 11.1689C3.23193 11.1689 3.53874 11.2539 3.81435 11.424C4.09516 11.5941 4.31617 11.82 4.47738 12.1016C4.64379 12.3833 4.72699 12.6996 4.72699 13.0503C4.72699 13.3958 4.64379 13.7094 4.47738 13.991C4.31097 14.278 4.08996 14.5039 3.81435 14.6687C3.53874 14.8387 3.23193 14.9238 2.89392 14.9238ZM2.89392 13.8874C3.11752 13.8874 3.30993 13.805 3.47114 13.6403C3.63235 13.4755 3.71295 13.2789 3.71295 13.0503C3.71295 12.8165 3.63235 12.6172 3.47114 12.4524C3.31513 12.2877 3.12272 12.2053 2.89392 12.2053C2.65991 12.2053 2.4649 12.2877 2.30889 12.4524C2.15289 12.6119 2.07228 12.8112 2.06708 13.0503C2.06188 13.2789 2.13729 13.4755 2.29329 13.6403C2.4545 13.805 2.65471 13.8874 2.89392 13.8874ZM17.1061 16C17.6365 16 18.1201 15.8671 18.5569 15.6014C18.999 15.3357 19.35 14.9796 19.61 14.5331C19.87 14.0867 20 13.5924 20 13.0503C20 12.5029 19.87 12.006 19.61 11.5595C19.35 11.1131 18.999 10.757 18.5569 10.4913C18.1201 10.2255 17.6365 10.0927 17.1061 10.0927C16.5757 10.0927 16.092 10.2255 15.6552 10.4913C15.2184 10.757 14.8674 11.1131 14.6022 11.5595C14.3422 12.006 14.2122 12.5029 14.2122 13.0503C14.2122 13.5924 14.3422 14.0867 14.6022 14.5331C14.8674 14.9796 15.2184 15.3357 15.6552 15.6014C16.092 15.8671 16.5757 16 17.1061 16ZM17.1061 14.9238C16.7681 14.9238 16.4587 14.8387 16.1778 14.6687C15.9022 14.5039 15.6812 14.278 15.5148 13.991C15.3484 13.7094 15.2652 13.3958 15.2652 13.0503C15.2652 12.6996 15.3484 12.3833 15.5148 12.1016C15.6812 11.82 15.9022 11.5941 16.1778 11.424C16.4587 11.2539 16.7681 11.1689 17.1061 11.1689C17.4441 11.1689 17.7509 11.2539 18.0265 11.424C18.3073 11.5941 18.5309 11.82 18.6973 12.1016C18.8638 12.3833 18.947 12.6996 18.947 13.0503C18.947 13.3958 18.8638 13.7094 18.6973 13.991C18.5309 14.278 18.3073 14.5039 18.0265 14.6687C17.7509 14.8387 17.4441 14.9238 17.1061 14.9238ZM17.1061 13.8874C17.3349 13.8874 17.5299 13.805 17.6911 13.6403C17.8523 13.4755 17.9329 13.2789 17.9329 13.0503C17.9329 12.8165 17.8523 12.6172 17.6911 12.4524C17.5299 12.2877 17.3349 12.2053 17.1061 12.2053C16.8773 12.2053 16.6823 12.2877 16.5211 12.4524C16.3651 12.6119 16.2845 12.8112 16.2793 13.0503C16.2793 13.2789 16.3573 13.4755 16.5133 13.6403C16.6745 13.805 16.8721 13.8874 17.1061 13.8874ZM3.12792 13.6482H11.3105C11.4197 13.6482 11.5185 13.6376 11.6069 13.6163C11.6953 13.5898 11.7811 13.5473 11.8643 13.4888C11.9475 13.425 12.0359 13.34 12.1295 13.2337L15.9828 8.91281L15.6006 7.43L11.3183 12.3488C11.2819 12.386 11.2506 12.4126 11.2246 12.4285C11.2038 12.4391 11.17 12.4444 11.1232 12.4444H3.12792V13.6482ZM10.9126 0.605879C10.9126 0.770636 10.9698 0.911476 11.0842 1.0284C11.1986 1.14532 11.3391 1.20379 11.5055 1.20379H13.5257C13.5933 1.20379 13.6323 1.23036 13.6427 1.28351L16.4821 13.2656L17.6053 12.9706L14.571 0.518186C14.5294 0.348115 14.441 0.220561 14.3058 0.135526C14.1758 0.0451752 13.9886 0 13.7441 0H11.5055C11.3391 0 11.1986 0.058462 11.0842 0.175386C10.9698 0.29231 10.9126 0.435808 10.9126 0.605879Z"
		fill="currentColor"
	/>
</svg>
