<svg
	color="rgb(var(--foreground, 0, 0, 0))"
	viewBox="0 0 17 20"
	fill="none"
	xmlns="http://www.w3.org/2000/svg"
>
	<path
		d="M8.49835 20C8.93867 20 9.31186 19.9432 9.61793 19.8297C9.92937 19.7215 10.1979 19.5837 10.4234 19.4161C10.6543 19.2539 10.8637 19.0916 11.0516 18.9294C11.2449 18.7672 11.4409 18.6294 11.6396 18.5158C11.8383 18.4077 12.0665 18.3536 12.3243 18.3536C12.5874 18.3536 12.8156 18.4077 13.0089 18.5158C13.2022 18.6294 13.3928 18.7672 13.5808 18.9294C13.7741 19.0916 13.9889 19.2539 14.2251 19.4161C14.4614 19.5837 14.7487 19.7215 15.087 19.8297C15.4306 19.9432 15.8521 20 16.3515 20H16.3918C16.5529 20 16.6871 19.9432 16.7945 19.8297C16.9073 19.7215 16.9637 19.5864 16.9637 19.4242C16.9637 19.2674 16.9073 19.1322 16.7945 19.0187C16.6871 18.9105 16.5529 18.8564 16.3918 18.8564H16.3515C15.9219 18.8564 15.5622 18.778 15.2722 18.6212C14.9876 18.4644 14.695 18.2779 14.3943 18.0616C14.1312 17.867 13.8305 17.675 13.4922 17.4858C13.1592 17.302 12.7699 17.2101 12.3243 17.2101C11.8625 17.2101 11.4597 17.3074 11.1161 17.502C10.7778 17.7021 10.4771 17.9021 10.214 18.1022C9.93474 18.3131 9.66894 18.4915 9.41657 18.6375C9.16419 18.7835 8.85812 18.8564 8.49835 18.8564C8.13858 18.8564 7.83251 18.7835 7.58014 18.6375C7.32776 18.4915 7.06196 18.3131 6.78274 18.1022C6.51962 17.9021 6.21624 17.7021 5.87258 17.502C5.53429 17.3074 5.13424 17.2101 4.67245 17.2101C4.22677 17.2101 3.83478 17.302 3.49649 17.4858C3.16357 17.675 2.86555 17.867 2.60244 18.0616C2.30173 18.2779 2.00909 18.4644 1.72449 18.6212C1.4399 18.778 1.08013 18.8564 0.645186 18.8564H0.604914C0.449193 18.8564 0.31495 18.9105 0.202187 19.0187C0.0894236 19.1322 0.0330419 19.2674 0.0330419 19.4242C0.0330419 19.5864 0.0894236 19.7215 0.202187 19.8297C0.31495 19.9432 0.449193 20 0.604914 20H0.645186C1.14994 20 1.57146 19.9432 1.90975 19.8297C2.24804 19.7215 2.53532 19.5837 2.77158 19.4161C3.00785 19.2539 3.21995 19.0916 3.40789 18.9294C3.6012 18.7672 3.79451 18.6294 3.98782 18.5158C4.18649 18.4077 4.41471 18.3536 4.67245 18.3536C4.9302 18.3536 5.15841 18.4077 5.35709 18.5158C5.55576 18.6294 5.74907 18.7672 5.93701 18.9294C6.13032 19.0916 6.33974 19.2539 6.56526 19.4161C6.79616 19.5837 7.06465 19.7215 7.37072 19.8297C7.68216 19.9432 8.05804 20 8.49835 20ZM8.49835 17.9075C8.68629 17.9075 8.85007 17.8697 8.98968 17.794C9.13466 17.7237 9.35482 17.5723 9.65015 17.3398C9.82735 17.2101 10.0448 17.0614 10.3026 16.8938C10.5603 16.7261 10.8583 16.5775 11.1966 16.4477C11.5349 16.3233 11.9108 16.2612 12.3243 16.2612C12.6894 16.2612 13.0304 16.3125 13.3472 16.4152C13.664 16.518 13.9942 16.6748 14.3379 16.8856L16.6334 12.7899C16.9771 12.1844 17.0791 11.6626 16.9395 11.2247C16.7999 10.7813 16.4321 10.4217 15.836 10.146L9.98039 7.43715C9.80856 7.35604 9.60182 7.26683 9.36019 7.16951C9.11855 7.07218 8.83127 7.02352 8.49835 7.02352C8.16543 7.02352 7.87815 7.07218 7.63652 7.16951C7.39488 7.26683 7.18815 7.35604 7.01632 7.43715L1.16068 10.146C0.564641 10.4217 0.196817 10.7813 0.0572055 11.2247C-0.0770367 11.6626 0.0249873 12.1844 0.363278 12.7899L2.65882 16.8856C3.00248 16.6748 3.33271 16.518 3.64953 16.4152C3.96634 16.3125 4.30731 16.2612 4.67245 16.2612C5.08592 16.2612 5.46179 16.3233 5.80008 16.4477C6.13837 16.5775 6.43639 16.7261 6.69414 16.8938C6.95725 17.0614 7.17472 17.2101 7.34655 17.3398C7.64726 17.5723 7.86741 17.7237 8.00703 17.794C8.15201 17.8697 8.31578 17.9075 8.49835 17.9075ZM8.49835 5.92052C8.86349 5.92052 9.18299 5.96377 9.45684 6.05028C9.73606 6.13139 10.0636 6.25845 10.4395 6.43147L14.6601 8.38605L13.9674 3.21168C13.9083 2.77372 13.7445 2.41417 13.4761 2.13301C13.2129 1.84645 12.8639 1.70316 12.429 1.70316H4.58385C4.14891 1.70316 3.79988 1.85185 3.53676 2.14923C3.27902 2.44661 3.11524 2.85483 3.04544 3.37388L2.35275 8.37794L6.55721 6.43147C6.93309 6.25845 7.26064 6.13139 7.53986 6.05028C7.81909 5.96377 8.13858 5.92052 8.49835 5.92052ZM4.9463 5.06083C4.73152 5.06083 4.62413 4.94999 4.62413 4.72831V3.43066C4.62413 3.20898 4.73152 3.09813 4.9463 3.09813H7.44321C7.71169 3.09813 7.84594 3.20898 7.84594 3.43066V4.72831C7.84594 4.94999 7.71169 5.06083 7.44321 5.06083H4.9463ZM9.47295 5.06083C9.26353 5.06083 9.15882 4.94999 9.15882 4.72831V3.43066C9.15882 3.20898 9.26353 3.09813 9.47295 3.09813H11.9779C12.2464 3.09813 12.3806 3.20898 12.3806 3.43066V4.72831C12.3806 4.94999 12.2464 5.06083 11.9779 5.06083H9.47295ZM5.15572 1.94647H11.849V1.2571C11.849 0.862395 11.739 0.554204 11.5188 0.332522C11.304 0.110841 11.0006 0 10.6086 0H6.39612C6.00413 0 5.69806 0.110841 5.4779 0.332522C5.26312 0.554204 5.15572 0.862395 5.15572 1.2571V1.94647Z"
		fill="currentColor"
	/>
</svg>
