<svg
	color="rgb(var(--foreground, 0, 0, 0))"
	viewBox="0 0 13 20"
	fill="none"
	xmlns="http://www.w3.org/2000/svg"
>
	<path
		d="M2.16409 16.1249H10.8359C11.2945 16.1249 11.6835 16.0278 12.003 15.8335C12.3276 15.6443 12.5749 15.3809 12.7449 15.0434C12.915 14.7059 13 14.3173 13 13.8775V8.37767C13 7.69755 12.9717 7.03277 12.915 6.38333C12.8635 5.72877 12.7939 5.12024 12.7063 4.55773C12.6187 3.99011 12.5234 3.49664 12.4203 3.07731C12.3173 2.64265 12.1498 2.25145 11.918 1.90371C11.6861 1.55598 11.395 1.27217 11.0446 1.05228C10.6994 0.832391 10.3 0.699435 9.84661 0.653411C9.59929 0.627843 9.1742 0.597161 8.57134 0.561365C7.97364 0.520455 7.28319 0.5 6.5 0.5C5.71681 0.5 5.02378 0.520455 4.42093 0.561365C3.82323 0.597161 3.40071 0.627843 3.15339 0.653411C2.69481 0.699435 2.29033 0.832391 1.93995 1.05228C1.59473 1.27217 1.30618 1.55598 1.07432 1.90371C0.847602 2.25145 0.682719 2.64265 0.579667 3.07731C0.471463 3.49664 0.373563 3.99011 0.285969 4.55773C0.198375 5.12024 0.128815 5.72877 0.0772889 6.38333C0.025763 7.03277 0 7.69755 0 8.37767V13.8775C0 14.3173 0.0850178 14.7059 0.255054 15.0434C0.425089 15.3809 0.669838 15.6443 0.989298 15.8335C1.31391 16.0278 1.70551 16.1249 2.16409 16.1249ZM4.5214 2.88555C4.37713 2.88555 4.2612 2.84208 4.1736 2.75515C4.09116 2.66821 4.04994 2.55316 4.04994 2.40997C4.04994 2.2719 4.09116 2.16196 4.1736 2.08014C4.2612 1.9932 4.37713 1.94974 4.5214 1.94974H8.47087C8.61514 1.94974 8.73107 1.9932 8.81867 2.08014C8.90626 2.16196 8.95006 2.2719 8.95006 2.40997C8.95006 2.55316 8.90626 2.66821 8.81867 2.75515C8.73107 2.84208 8.61514 2.88555 8.47087 2.88555H4.5214ZM6.5 11.0624C5.60345 11.0573 4.7713 11.0368 4.00357 11.001C3.23583 10.9652 2.64328 10.9217 2.22592 10.8706C1.99405 10.8399 1.82917 10.7556 1.73127 10.6175C1.63337 10.4743 1.58442 10.2953 1.58442 10.0805V8.31631C1.58442 7.79982 1.59988 7.32169 1.6308 6.88191C1.66171 6.44213 1.70036 6.05861 1.74673 5.73133C1.7931 5.40405 1.8369 5.15092 1.87812 4.97194C1.91934 4.80319 1.99148 4.66256 2.09453 4.55006C2.19758 4.43756 2.33155 4.37108 2.49643 4.35063C2.9344 4.29949 3.45482 4.26114 4.05767 4.23557C4.66052 4.20488 5.47463 4.18699 6.5 4.18187C7.52537 4.17676 8.3369 4.1921 8.9346 4.2279C9.5323 4.25858 10.045 4.29949 10.4727 4.35063C10.6478 4.37108 10.787 4.43756 10.89 4.55006C10.9982 4.66256 11.0729 4.80319 11.1142 4.97194C11.1554 5.15092 11.1992 5.40405 11.2455 5.73133C11.2919 6.05861 11.3306 6.44213 11.3615 6.88191C11.3924 7.32169 11.4078 7.79982 11.4078 8.31631V10.0805C11.4078 10.3004 11.3589 10.482 11.261 10.6252C11.1631 10.7632 10.9982 10.845 10.7663 10.8706C10.1429 10.9371 9.44728 10.9857 8.67955 11.0164C7.91181 11.047 7.1853 11.0624 6.5 11.0624ZM2.90606 14.5141C2.60206 14.5141 2.34958 14.417 2.14863 14.2226C1.95283 14.0232 1.85493 13.7701 1.85493 13.4633C1.85493 13.1564 1.95283 12.9059 2.14863 12.7115C2.34958 12.5121 2.60206 12.4124 2.90606 12.4124C3.21522 12.4124 3.47027 12.5121 3.67122 12.7115C3.87218 12.9059 3.97265 13.1564 3.97265 13.4633C3.97265 13.7701 3.8696 14.0232 3.6635 14.2226C3.46254 14.417 3.21007 14.5141 2.90606 14.5141ZM10.0785 14.5218C9.77448 14.5218 9.51942 14.4221 9.31332 14.2226C9.10721 14.0181 9.00416 13.765 9.00416 13.4633C9.00416 13.1616 9.10721 12.911 9.31332 12.7115C9.51942 12.507 9.77448 12.4047 10.0785 12.4047C10.3825 12.4047 10.635 12.507 10.8359 12.7115C11.042 12.911 11.1451 13.1616 11.1451 13.4633C11.1451 13.765 11.042 14.0181 10.8359 14.2226C10.6298 14.4221 10.3773 14.5218 10.0785 14.5218ZM1.17479 19.5H1.60761C1.80341 19.5 1.95283 19.4131 2.05589 19.2392L4.25089 15.7261H2.77467L0.826992 18.8327C0.760008 18.94 0.731669 19.0449 0.741974 19.1472C0.757432 19.2494 0.801229 19.3338 0.873365 19.4003C0.950654 19.4668 1.05113 19.5 1.17479 19.5ZM1.85493 18.5335H11.1683V17.3829H1.85493V18.5335ZM11.4233 19.5H11.8561C11.9746 19.5 12.07 19.4642 12.1421 19.3926C12.2142 19.3261 12.2555 19.2418 12.2658 19.1395C12.2761 19.0423 12.2477 18.94 12.1807 18.8327L10.2485 15.7261H8.77229L10.9673 19.2392C11.0755 19.4131 11.2275 19.5 11.4233 19.5Z"
		fill="currentColor"
	/>
</svg>
