<svg
	color="rgb(var(--foreground, 0, 0, 0))"
	viewBox="0 0 14 20"
	fill="none"
	xmlns="http://www.w3.org/2000/svg"
>
	<path
		d="M2.84471 16.4873H11.1553C11.7463 16.4873 12.2551 16.3636 12.6817 16.1163C13.1083 15.8741 13.4347 15.536 13.6608 15.102C13.8869 14.6629 14 14.1608 14 13.5956V8.97052C14 8.29429 13.9717 7.62311 13.9152 6.95697C13.8638 6.28579 13.7919 5.65246 13.6993 5.05697C13.6068 4.46149 13.5015 3.93413 13.3833 3.4749C13.2548 2.93997 13.0466 2.47065 12.7588 2.06693C12.4761 1.66321 12.1267 1.34024 11.7104 1.09801C11.2992 0.855777 10.8392 0.706906 10.3304 0.651394C10.0786 0.626162 9.64427 0.595883 9.02753 0.560558C8.41079 0.520186 7.73495 0.5 7 0.5C6.18282 0.5 5.48642 0.520186 4.91079 0.560558C4.33517 0.595883 3.92144 0.626162 3.6696 0.651394C3.15565 0.706906 2.69053 0.855777 2.27423 1.09801C1.86307 1.34024 1.51615 1.66321 1.23348 2.06693C0.950808 2.47065 0.745228 2.93997 0.61674 3.4749C0.498532 3.93413 0.393172 4.45644 0.300661 5.04183C0.20815 5.62722 0.133627 6.24794 0.0770925 6.90398C0.0256975 7.56003 0 8.22616 0 8.90239V13.5956C0 14.1608 0.113069 14.6629 0.339207 15.102C0.565345 15.536 0.889134 15.8741 1.31057 16.1163C1.73715 16.3636 2.24853 16.4873 2.84471 16.4873ZM3.00661 15.4956C2.54919 15.4956 2.17144 15.4149 1.87335 15.2534C1.5804 15.0919 1.36197 14.8673 1.21806 14.5797C1.0793 14.292 1.00991 13.964 1.00991 13.5956V8.90239C1.00991 8.41288 1.02533 7.92842 1.05617 7.449C1.087 6.96454 1.12812 6.50027 1.17952 6.05617C1.23605 5.60704 1.29772 5.18313 1.36454 4.78446C1.43649 4.38579 1.51358 4.02244 1.59582 3.69442C1.69347 3.29575 1.84251 2.95007 2.04295 2.65737C2.24853 2.36467 2.49523 2.13254 2.78304 1.96096C3.07599 1.78433 3.40492 1.67835 3.76982 1.64303C4.03194 1.61275 4.44053 1.57995 4.99559 1.54462C5.55066 1.5093 6.2188 1.49163 7 1.49163C7.69897 1.49163 8.34398 1.5093 8.93502 1.54462C9.5312 1.57995 9.96035 1.61275 10.2225 1.64303C10.5874 1.67835 10.9163 1.78433 11.2093 1.96096C11.5022 2.13254 11.7489 2.36467 11.9493 2.65737C12.1549 2.95007 12.3065 3.29575 12.4042 3.69442C12.4813 4.02244 12.5558 4.38831 12.6278 4.79203C12.6997 5.19575 12.7614 5.62722 12.8128 6.08645C12.8693 6.54568 12.913 7.02005 12.9438 7.50956C12.9747 7.99402 12.9901 8.48101 12.9901 8.97052V13.5956C12.9901 13.964 12.9181 14.292 12.7742 14.5797C12.6355 14.8673 12.417 15.0919 12.1189 15.2534C11.826 15.4149 11.4482 15.4956 10.9857 15.4956H3.00661ZM5.02643 3.48247H8.96586C9.10977 3.48247 9.2254 3.43958 9.31278 3.35378C9.40015 3.26799 9.44383 3.15445 9.44383 3.01315C9.44383 2.87689 9.40015 2.76839 9.31278 2.68765C9.2254 2.60186 9.10977 2.55896 8.96586 2.55896H5.02643C4.88253 2.55896 4.76689 2.60186 4.67952 2.68765C4.59728 2.76839 4.55617 2.87689 4.55617 3.01315C4.55617 3.15445 4.59728 3.26799 4.67952 3.35378C4.76689 3.43958 4.88253 3.48247 5.02643 3.48247ZM7 11.1733C7.96623 11.1683 8.81167 11.1481 9.53634 11.1127C10.2662 11.0774 10.8392 11.0345 11.2555 10.9841C11.4868 10.9538 11.6512 10.8705 11.7489 10.7343C11.8465 10.593 11.8954 10.4163 11.8954 10.2044V8.46335C11.8954 7.95365 11.88 7.48181 11.8491 7.04781C11.8183 6.61381 11.7797 6.23533 11.7335 5.91235C11.6872 5.58938 11.6435 5.33957 11.6024 5.16295C11.5613 4.99641 11.4868 4.85764 11.3789 4.74661C11.2761 4.63559 11.1373 4.56999 10.9626 4.5498C10.6799 4.51448 10.3715 4.48672 10.0374 4.46653C9.70852 4.4413 9.3025 4.42112 8.81938 4.40598C8.33627 4.39084 7.72981 4.38327 7 4.38327C6.26505 4.38327 5.65602 4.39084 5.17291 4.40598C4.68979 4.42112 4.2812 4.4413 3.94714 4.46653C3.61307 4.48672 3.29956 4.51448 3.00661 4.5498C2.84214 4.56999 2.70852 4.63559 2.60573 4.74661C2.50294 4.85764 2.43098 4.99641 2.38987 5.16295C2.34875 5.33957 2.30507 5.58938 2.25881 5.91235C2.21256 6.23533 2.17401 6.61381 2.14317 7.04781C2.11233 7.48181 2.09692 7.95365 2.09692 8.46335V10.2044C2.09692 10.4163 2.14574 10.593 2.24339 10.7343C2.34104 10.8705 2.50551 10.9538 2.73678 10.9841C3.15308 11.0345 3.72357 11.0774 4.44824 11.1127C5.17805 11.1481 6.02863 11.1683 7 11.1733ZM3.4152 14.3147C3.71843 14.3147 3.97026 14.2163 4.1707 14.0195C4.37629 13.8227 4.47907 13.5729 4.47907 13.2701C4.47907 12.9724 4.37885 12.7276 4.17841 12.5359C3.97797 12.339 3.72357 12.2406 3.4152 12.2406C3.11197 12.2406 2.86013 12.339 2.65969 12.5359C2.46439 12.7276 2.36674 12.9724 2.36674 13.2701C2.36674 13.5729 2.46439 13.8227 2.65969 14.0195C2.86013 14.2163 3.11197 14.3147 3.4152 14.3147ZM10.5694 14.3223C10.8675 14.3223 11.1193 14.2214 11.3249 14.0195C11.5305 13.8177 11.6333 13.5679 11.6333 13.2701C11.6333 12.9774 11.5305 12.7327 11.3249 12.5359C11.1244 12.334 10.8726 12.2331 10.5694 12.2331C10.2662 12.2331 10.0117 12.334 9.80617 12.5359C9.60059 12.7327 9.4978 12.9774 9.4978 13.2701C9.4978 13.5679 9.60059 13.8177 9.80617 14.0195C10.0117 14.2214 10.2662 14.3223 10.5694 14.3223ZM1.68833 19.5H2.12004C2.31021 19.5 2.45925 19.4142 2.56718 19.2426L4.75661 15.7757H3.28414L1.34141 18.8414C1.2746 18.9474 1.24633 19.0509 1.25661 19.1518C1.27203 19.2527 1.31571 19.336 1.38767 19.4016C1.46476 19.4672 1.56498 19.5 1.68833 19.5ZM2.36674 18.5462H11.6564V17.4108H2.36674V18.5462ZM11.9108 19.5H12.3425C12.4607 19.5 12.5558 19.4647 12.6278 19.394C12.6997 19.3284 12.7408 19.2452 12.7511 19.1442C12.7614 19.0483 12.7331 18.9474 12.6663 18.8414L10.739 15.7757H9.26652L11.4559 19.2426C11.5639 19.4142 11.7155 19.5 11.9108 19.5Z"
		fill="currentColor"
	/>
</svg>
