<svg
	color="rgb(var(--foreground, 0, 0, 0))"
	viewBox="0 0 23 16"
	fill="none"
	xmlns="http://www.w3.org/2000/svg"
>
	<path
		d="M2.14835 13.9082H3.87809V12.701H2.16415C1.86928 12.701 1.64549 12.6311 1.49279 12.4911C1.34535 12.3461 1.27163 12.1337 1.27163 11.8538V2.06186C1.27163 1.77694 1.34535 1.56451 1.49279 1.42455C1.64549 1.2796 1.86928 1.20712 2.16415 1.20712H13.7194C14.0143 1.20712 14.2381 1.2796 14.3908 1.42455C14.5435 1.56451 14.6199 1.77694 14.6199 2.06186V13.0534L15.8915 12.6186V2.03936C15.8915 1.37457 15.7098 0.869728 15.3465 0.524836C14.9832 0.174945 14.4487 0 13.7431 0H2.14835C1.44277 0 0.908311 0.172446 0.544986 0.517338C0.181662 0.862231 0 1.36957 0 2.03936V11.8763C0 12.5411 0.181662 13.0459 0.544986 13.3908C0.908311 13.7357 1.44277 13.9082 2.14835 13.9082ZM7.96154 13.9082H15.1648V12.701H7.96154V13.9082ZM15.1964 5.34583H17.9135C18.1136 5.34583 18.2899 5.37082 18.4426 5.42081C18.6006 5.47079 18.7612 5.58076 18.9244 5.7507L21.4045 8.39738C21.5098 8.51234 21.5888 8.6423 21.6415 8.78725C21.6994 8.93221 21.7284 9.07217 21.7284 9.20712V11.8538C21.7284 12.1337 21.652 12.3461 21.4993 12.4911C21.3466 12.6311 21.1228 12.701 20.828 12.701H19.5563V13.9082H20.8516C21.5572 13.9082 22.0917 13.7357 22.455 13.3908C22.8183 13.0459 23 12.5411 23 11.8763V9.22962C23 8.85973 22.9605 8.56982 22.8815 8.35989C22.8078 8.14495 22.6604 7.92002 22.4392 7.6851L19.7538 4.806C19.5168 4.56107 19.2614 4.38863 18.9876 4.28866C18.7138 4.18869 18.3821 4.13871 17.9924 4.13871H15.1964V5.34583ZM17.3685 9.29709H20.8122C20.8122 9.20712 20.7937 9.13215 20.7569 9.07217C20.7253 9.01218 20.6805 8.9522 20.6226 8.89222L18.2689 6.38051C18.1846 6.29553 18.0899 6.22805 17.9845 6.17807C17.8845 6.12309 17.7792 6.0956 17.6686 6.0956H16.6892V8.65979C16.6892 8.85473 16.7498 9.00968 16.8709 9.12465C16.992 9.23961 17.1579 9.29709 17.3685 9.29709ZM5.86058 16C6.35554 16 6.80575 15.885 7.2112 15.6551C7.62191 15.4252 7.94838 15.1153 8.19059 14.7254C8.43281 14.3405 8.55392 13.9107 8.55392 13.4358C8.55392 12.9659 8.43281 12.5386 8.19059 12.1537C7.94838 11.7638 7.62191 11.4539 7.2112 11.224C6.80575 10.9941 6.35554 10.8791 5.86058 10.8791C5.36035 10.8791 4.90488 10.9941 4.49416 11.224C4.08871 11.4539 3.76225 11.7638 3.51477 12.1537C3.27255 12.5386 3.15144 12.9659 3.15144 13.4358C3.15144 13.9107 3.27255 14.3405 3.51477 14.7254C3.76225 15.1153 4.08871 15.4252 4.49416 15.6551C4.90488 15.885 5.36035 16 5.86058 16ZM5.86058 14.9803C5.56044 14.9803 5.28663 14.9103 5.03915 14.7704C4.79167 14.6354 4.59421 14.4505 4.44677 14.2156C4.29934 13.9806 4.22562 13.7207 4.22562 13.4358C4.22562 13.1509 4.29934 12.8935 4.44677 12.6635C4.59421 12.4286 4.79167 12.2412 5.03915 12.1012C5.28663 11.9613 5.56044 11.8913 5.86058 11.8913C6.15545 11.8913 6.42663 11.9613 6.67411 12.1012C6.92159 12.2412 7.11642 12.4286 7.25859 12.6635C7.40602 12.8935 7.47974 13.1509 7.47974 13.4358C7.47974 13.7207 7.40602 13.9806 7.25859 14.2156C7.11642 14.4505 6.92159 14.6354 6.67411 14.7704C6.42663 14.9103 6.15545 14.9803 5.86058 14.9803ZM17.2421 16C17.7371 16 18.1873 15.885 18.5927 15.6551C19.0034 15.4252 19.3299 15.1153 19.5721 14.7254C19.8143 14.3405 19.9354 13.9107 19.9354 13.4358C19.9354 12.9659 19.8143 12.5386 19.5721 12.1537C19.3299 11.7638 19.0034 11.4539 18.5927 11.224C18.1873 10.9941 17.7371 10.8791 17.2421 10.8791C16.7471 10.8791 16.2943 10.9941 15.8836 11.224C15.4729 11.4539 15.1464 11.7638 14.9042 12.1537C14.662 12.5386 14.5409 12.9659 14.5409 13.4358C14.5409 13.9107 14.662 14.3405 14.9042 14.7254C15.1464 15.1153 15.4729 15.4252 15.8836 15.6551C16.2943 15.885 16.7471 16 17.2421 16ZM17.2421 14.9803C16.942 14.9803 16.6682 14.9103 16.4207 14.7704C16.1785 14.6354 15.9836 14.4505 15.8362 14.2156C15.6888 13.9806 15.615 13.7207 15.615 13.4358C15.615 13.1509 15.6888 12.8935 15.8362 12.6635C15.9836 12.4286 16.1785 12.2412 16.4207 12.1012C16.6682 11.9613 16.942 11.8913 17.2421 11.8913C17.537 11.8913 17.8055 11.9613 18.0477 12.1012C18.2952 12.2412 18.4927 12.4286 18.6401 12.6635C18.7875 12.8935 18.8613 13.1509 18.8613 13.4358C18.8613 13.7207 18.7875 13.9806 18.6401 14.2156C18.4979 14.4505 18.3031 14.6354 18.0556 14.7704C17.8134 14.9103 17.5422 14.9803 17.2421 14.9803Z"
		fill="currentColor"
	/>
</svg>
