<svg viewBox="0 0 36 24" fill="none" xmlns="http://www.w3.org/2000/svg">
	<path d="M12 24H0V0H12V24Z" fill="#464655" />
	<path d="M12 0H24V24H12V0Z" fill="#FF4B55" />
	<path d="M36 24H24V0H36V24Z" fill="#73AF00" />
	<path
		d="M16.38 13.238L16.56 12.872H19.44L19.62 13.238H16.38ZM19.44 10.674L19.62 10.308H18.72L18.54 10.125H17.46L17.28 10.308H16.38L16.56 10.674H19.44ZM17.1 12.322H16.56V12.689H17.1V12.322ZM17.1 10.857H16.56V11.224H17.1V10.857ZM16.56 11.59H17.1V11.407H16.56V11.59ZM19.44 12.322H18.9V12.689H19.44V12.322ZM19.44 10.857H18.9V11.224H19.44V10.857ZM18.9 11.59H19.44V11.407H18.9V11.59ZM17.1 9.392H16.74V10.125H17.1V9.392ZM17.1 9.026C17.1 8.97826 17.081 8.93248 17.0473 8.89872C17.0135 8.86496 16.9677 8.846 16.92 8.846C16.8723 8.846 16.8265 8.86496 16.7927 8.89872C16.759 8.93248 16.74 8.97826 16.74 9.026V9.209H17.1V9.026ZM18.9 10.125H19.26V9.392H18.9V10.125ZM19.26 9.025C19.26 8.97726 19.241 8.93148 19.2073 8.89772C19.1735 8.86396 19.1277 8.845 19.08 8.845C19.0323 8.845 18.9865 8.86396 18.9527 8.89772C18.919 8.93148 18.9 8.97726 18.9 9.025V9.209H19.26V9.025ZM18 10.858C17.9046 10.8588 17.8102 10.8784 17.7224 10.9156C17.6345 10.9529 17.5549 11.0072 17.488 11.0752C17.4212 11.1433 17.3684 11.2239 17.3327 11.3124C17.297 11.4009 17.2791 11.4956 17.28 11.591V12.69H18.72V11.59C18.7208 11.4947 18.7028 11.4001 18.667 11.3117C18.6313 11.2233 18.5785 11.1428 18.5116 11.0749C18.4448 11.0069 18.3652 10.9528 18.2774 10.9156C18.1896 10.8783 18.0953 10.8588 18 10.858ZM15.66 10.607C15.7081 10.6075 15.754 10.6271 15.7878 10.6614C15.8215 10.6957 15.8403 10.7419 15.84 10.79C15.8393 10.8102 15.8352 10.8301 15.828 10.849L16.608 11.774H17.1V12.14H16.56V11.998L16.306 11.698L15.84 12.804L15.3 12.254L15.792 11.087L15.691 10.967C15.6812 10.9699 15.6712 10.9719 15.661 10.973C15.6125 10.973 15.5659 10.9537 15.5316 10.9194C15.4973 10.8851 15.478 10.8385 15.478 10.79C15.478 10.7415 15.4973 10.6949 15.5316 10.6606C15.5659 10.6263 15.6125 10.607 15.661 10.607H15.66ZM15.696 11.495L15.502 11.956L15.932 12.395L16.127 11.933L15.696 11.495ZM20.176 10.849C20.1646 10.8132 20.1648 10.7746 20.1767 10.7389C20.1885 10.7032 20.2114 10.6722 20.242 10.6503C20.2725 10.6284 20.3093 10.6167 20.3469 10.617C20.3845 10.6173 20.4211 10.6295 20.4513 10.6518C20.4816 10.6741 20.504 10.7055 20.5153 10.7413C20.5267 10.7772 20.5264 10.8157 20.5144 10.8514C20.5025 10.8871 20.4796 10.9181 20.449 10.9399C20.4184 10.9618 20.3816 10.9733 20.344 10.973C20.3338 10.9716 20.3238 10.9692 20.314 10.966L20.212 11.086L20.704 12.255L20.164 12.805L19.698 11.697L19.44 12.004V12.14H18.9V11.774H19.396L20.176 10.849ZM19.877 11.933L20.072 12.395L20.502 11.956L20.308 11.495L19.877 11.933ZM18.694 9.943C18.7104 9.883 18.7191 9.82118 18.72 9.759C18.7204 9.60241 18.6705 9.44983 18.5776 9.32378C18.4847 9.19773 18.3537 9.1049 18.204 9.059C18.1468 9.04428 18.097 9.00905 18.064 8.96C18.0406 8.92218 18.0192 8.88313 18 8.843C17.9804 8.88281 17.9587 8.92153 17.935 8.959C17.9024 9.00791 17.8529 9.04314 17.796 9.058C17.6462 9.10376 17.5151 9.19656 17.4222 9.32263C17.3293 9.44871 17.2794 9.60137 17.28 9.758C17.2809 9.82018 17.2896 9.88201 17.306 9.942L18.694 9.943ZM13.875 11.753C13.8654 11.6382 13.8604 11.5232 13.86 11.408C13.8605 11.1755 13.8799 10.9434 13.918 10.714C13.97 10.751 14.025 10.791 14.081 10.836C14.0544 11.0255 14.041 11.2166 14.041 11.408C14.041 11.543 14.047 11.677 14.06 11.808L14.44 11.925C14.4146 11.7538 14.4013 11.5811 14.4 11.408C14.4 11.32 14.405 11.234 14.412 11.148C14.6234 11.3604 14.75 11.6428 14.768 11.942C14.9306 11.6311 14.9722 11.271 14.8849 10.9312C14.7975 10.5914 14.5874 10.296 14.295 10.102L14.288 10.515L13.683 10.508C13.6562 10.5079 13.6303 10.5172 13.6097 10.5344C13.5892 10.5517 13.5755 10.5756 13.571 10.602C13.5244 10.8681 13.501 11.1378 13.501 11.408C13.501 11.4853 13.5027 11.5627 13.506 11.64L13.875 11.753ZM15.472 8.073C15.5101 8.04302 15.5348 7.9993 15.541 7.95124C15.5472 7.90319 15.5342 7.85463 15.505 7.816C15.4908 7.79695 15.4728 7.78095 15.4523 7.76894C15.4318 7.75694 15.4091 7.74916 15.3855 7.74609C15.3619 7.74301 15.3379 7.74469 15.315 7.75103C15.2921 7.75737 15.2707 7.76824 15.252 7.783C14.4482 8.41343 13.8794 9.29561 13.637 10.288L14.007 10.293C14.2415 9.41365 14.7557 8.63445 15.472 8.073ZM15.486 8.533C15.4696 8.51578 15.45 8.50201 15.4282 8.49252C15.4064 8.48302 15.3829 8.47798 15.3591 8.4777C15.3354 8.47742 15.3118 8.48191 15.2898 8.49089C15.2678 8.49987 15.2478 8.51317 15.231 8.53C14.8466 8.91463 14.5442 9.3732 14.342 9.878C14.4435 9.96211 14.5366 10.0559 14.62 10.158C14.8022 9.64399 15.097 9.17725 15.483 8.792C15.5176 8.75777 15.5373 8.71128 15.5379 8.66262C15.5384 8.61395 15.5198 8.56702 15.486 8.532V8.533ZM14.606 13.809C14.3351 13.4138 14.1329 12.9756 14.008 12.513L14.218 12.591C14.3469 13.014 14.5438 13.4133 14.801 13.773L15.198 13.699C14.9711 13.4125 14.7878 13.0941 14.654 12.754L14.889 12.842C15.0203 13.1376 15.1919 13.4135 15.399 13.662L15.813 13.584C15.6497 13.4128 15.5064 13.2236 15.386 13.02L15.146 12.533C15.1099 12.4588 15.059 12.3929 14.9964 12.3392C14.9338 12.2855 14.8608 12.2453 14.782 12.221L14.215 12.048L14.085 12.008L13.895 11.95L13.521 11.835L13.321 11.775L13.444 12.153C13.471 12.2345 13.5254 12.3041 13.598 12.35C13.7103 12.8935 13.92 13.4122 14.217 13.881L14.606 13.809ZM21.712 10.515L21.705 10.103C21.4129 10.2969 21.2029 10.5921 21.1156 10.9317C21.0282 11.2713 21.0697 11.6312 21.232 11.942C21.2497 11.6424 21.3763 11.3597 21.588 11.147C21.594 11.234 21.6 11.32 21.6 11.407C21.5988 11.5804 21.5854 11.7535 21.56 11.925L21.94 11.809C21.953 11.677 21.96 11.543 21.96 11.408C21.9597 11.2166 21.946 11.0255 21.919 10.836C21.975 10.791 22.029 10.751 22.081 10.714C22.1191 10.9434 22.1385 11.1755 22.139 11.408C22.139 11.524 22.133 11.638 22.124 11.752L22.494 11.64C22.4973 11.5627 22.499 11.4853 22.499 11.408C22.4989 11.1378 22.4755 10.8681 22.429 10.602C22.4245 10.5756 22.4108 10.5517 22.3903 10.5344C22.3697 10.5172 22.3438 10.5079 22.317 10.508L21.712 10.515ZM20.528 8.073C21.2439 8.63455 21.7578 9.41375 21.992 10.293L22.363 10.288C22.1206 9.29561 21.5518 8.41343 20.748 7.783C20.7293 7.76824 20.7079 7.75737 20.685 7.75103C20.6621 7.74469 20.6381 7.74301 20.6145 7.74609C20.5909 7.74916 20.5682 7.75694 20.5477 7.76894C20.5272 7.78095 20.5092 7.79695 20.495 7.816C20.4658 7.85463 20.4528 7.90319 20.459 7.95124C20.4652 7.9993 20.4899 8.04302 20.528 8.073ZM21.658 9.878C21.4555 9.37313 21.1527 8.91456 20.768 8.53C20.7512 8.51332 20.7313 8.50015 20.7094 8.49126C20.6875 8.48237 20.664 8.47793 20.6404 8.47821C20.6167 8.47849 20.5934 8.48348 20.5717 8.49289C20.55 8.5023 20.5304 8.51593 20.514 8.533C20.4808 8.56793 20.4625 8.61443 20.4631 8.66261C20.4637 8.71079 20.483 8.75686 20.517 8.791C20.9031 9.17654 21.198 9.64363 21.38 10.158C21.4633 10.0558 21.5564 9.96207 21.658 9.878ZM22.479 11.835L22.104 11.95L21.916 12.008L21.218 12.221C21.1393 12.2452 21.0664 12.2853 21.0038 12.3388C20.9411 12.3923 20.8902 12.458 20.854 12.532L20.614 13.02C20.4936 13.2236 20.3503 13.4129 20.187 13.584L20.601 13.661C20.8081 13.4126 20.9797 13.1366 21.111 12.841L21.346 12.754C21.2121 13.0937 21.0288 13.4118 20.802 13.698L21.199 13.772C21.4562 13.4126 21.6531 13.0137 21.782 12.591L21.992 12.512C21.8672 12.975 21.665 13.4135 21.394 13.809L21.783 13.881C22.0799 13.4121 22.2896 12.8935 22.402 12.35C22.4747 12.3038 22.5291 12.2338 22.556 12.152L22.679 11.774L22.479 11.835ZM20.145 13.77L21.96 14.155L21.557 14.514C21.505 14.5604 21.4442 14.5961 21.3783 14.6189C21.3124 14.6418 21.2426 14.6513 21.173 14.647C20.8487 14.9763 20.4761 15.2541 20.068 15.471L20.186 15.692C19.5169 16.0622 18.7647 16.2565 18 16.2565C17.2353 16.2565 16.4831 16.0622 15.814 15.692L15.932 15.471C15.5239 15.2541 15.1513 14.9763 14.827 14.647C14.7574 14.6513 14.6876 14.6418 14.6217 14.619C14.5557 14.5962 14.495 14.5605 14.443 14.514L14.04 14.154L15.855 13.77C15.9039 13.7599 15.9547 13.7629 16.0021 13.7787C16.0495 13.7945 16.0919 13.8226 16.125 13.86L16.134 13.868C16.6642 14.2904 17.3221 14.5203 18 14.5203C18.6779 14.5203 19.3358 14.2904 19.866 13.868L19.876 13.86C19.909 13.8227 19.9512 13.7948 19.9985 13.779C20.0457 13.7632 20.0962 13.7601 20.145 13.77ZM16.19 14.987C15.8993 14.8323 15.6289 14.6422 15.385 14.421L15.211 14.506C15.4791 14.7584 15.7793 14.9743 16.104 15.148L16.19 14.987ZM20.614 14.421C20.3704 14.6421 20.1003 14.8322 19.81 14.987L19.895 15.147C20.2199 14.9736 20.5205 14.7581 20.789 14.506L20.614 14.421ZM20.261 14.25L20.081 14.162C19.4888 14.6314 18.7552 14.8869 17.9995 14.8869C17.2438 14.8869 16.5102 14.6314 15.918 14.162L15.738 14.25C16.3722 14.7804 17.1727 15.0711 17.9995 15.0711C18.8263 15.0711 19.6268 14.7804 20.261 14.25ZM16.025 13.6C16.102 13.667 16.182 13.73 16.266 13.788H19.734C19.8173 13.7293 19.8977 13.6667 19.975 13.6L19.8 13.422H16.2L16.025 13.6Z"
		fill="#F5F5F5"
	/>
</svg>
