<svg viewBox="0 0 36 24" fill="none" xmlns="http://www.w3.org/2000/svg">
	<path d="M36 8H0V0H36V8Z" fill="#FF4B55" />
	<path d="M36 24H0V16H36V24Z" fill="#464655" />
	<path d="M0 8H36V16H0V8Z" fill="#F5F5F5" />
	<path
		d="M21.542 10.18C21.568 10.123 21.528 10.128 21.662 10.168C21.7538 10.2037 21.8537 10.2134 21.9507 10.1962C22.0478 10.1789 22.1381 10.1352 22.212 10.07L22.348 9.96L22.508 10.041C22.5713 10.0752 22.6405 10.0969 22.712 10.105C22.8147 10.0474 22.8908 9.95194 22.924 9.839C22.922 9.753 22.984 9.776 23.015 9.868C23.0489 9.9373 23.0602 10.0155 23.0473 10.0916C23.0343 10.1676 22.9978 10.2377 22.9428 10.2919C22.8879 10.346 22.8173 10.3816 22.7411 10.3934C22.6648 10.4053 22.5868 10.3929 22.518 10.358C22.37 10.3 22.348 10.3 22.268 10.358C22.1814 10.4227 22.0776 10.4604 21.9696 10.4665C21.8617 10.4725 21.7543 10.4466 21.661 10.392C21.596 10.357 21.518 10.234 21.542 10.18ZM22.417 9.497C22.433 9.172 22.401 9.083 22.266 9.034C22.19 9.01 22.162 9.026 22.135 9.116C22.1342 9.32756 22.1847 9.53616 22.282 9.724C22.362 9.821 22.394 9.74 22.417 9.497ZM16.946 11.48C16.619 11.67 16.132 11.702 16.132 12.226C15.42 12.253 14.58 12.286 13.822 12.27C14.028 12 15.327 10.778 15.868 10.293C15.9124 10.249 15.9426 10.1927 15.9546 10.1313C15.9665 10.07 15.9597 10.0064 15.935 9.949L15.921 9.919C15.9033 9.88122 15.8769 9.84823 15.8439 9.82278C15.8108 9.79733 15.7722 9.78016 15.7311 9.77272C15.6901 9.76528 15.6479 9.76777 15.608 9.78C15.5682 9.79223 15.5318 9.81383 15.502 9.843C14.964 10.367 14.43 10.855 14.343 10.939L13.333 11.977C13.2549 12.0573 13.2114 12.165 13.212 12.277V12.285C13.2117 12.3962 13.2554 12.5031 13.3335 12.5823C13.4116 12.6615 13.5178 12.7067 13.629 12.708H16.679C16.852 12.708 16.639 12.097 16.863 12.097C17.018 12.097 17.033 12.316 17.026 12.548C17.0242 12.6324 16.9895 12.7127 16.9294 12.7719C16.8692 12.8311 16.7884 12.8645 16.704 12.865C15.384 12.867 14.012 12.88 12.72 12.881C12.6944 12.8807 12.6692 12.8754 12.6457 12.8654C12.6222 12.8553 12.6009 12.8407 12.583 12.8224C12.5652 12.8041 12.5512 12.7825 12.5417 12.7587C12.5323 12.7349 12.5276 12.7096 12.528 12.684V12.448C12.5285 12.4032 12.5167 12.3591 12.494 12.3205C12.4713 12.2819 12.4384 12.2502 12.399 12.2289C12.3596 12.2076 12.3151 12.1975 12.2703 12.1996C12.2255 12.2017 12.1822 12.216 12.145 12.241L12.127 12.252C12.0841 12.2783 12.0512 12.3181 12.0336 12.3653C12.0161 12.4124 12.0148 12.4641 12.03 12.512C12.0522 12.5832 12.0636 12.6574 12.064 12.732C12.0653 12.783 12.0464 12.8325 12.0114 12.8696C11.9763 12.9067 11.928 12.9284 11.877 12.93C11.449 12.943 10.985 12.947 10.853 12.69C10.8381 12.6556 10.8164 12.6246 10.7893 12.5988C10.7621 12.573 10.73 12.5529 10.6948 12.5398C10.6597 12.5268 10.6223 12.5209 10.5849 12.5227C10.5474 12.5244 10.5108 12.5337 10.477 12.55L10.458 12.56C10.4218 12.5785 10.3897 12.6041 10.3635 12.6353C10.3374 12.6664 10.3177 12.7025 10.3057 12.7413C10.2936 12.7802 10.2895 12.821 10.2935 12.8615C10.2975 12.902 10.3096 12.9413 10.329 12.977C10.5322 13.2972 10.6128 13.68 10.556 14.055C10.4911 14.1896 10.3864 14.301 10.256 14.374C10.2262 14.3927 10.2039 14.4212 10.193 14.4547C10.1821 14.4881 10.1834 14.5243 10.1965 14.557C10.2096 14.5896 10.2337 14.6166 10.2647 14.6333C10.2957 14.6499 10.3316 14.6551 10.366 14.648C10.5514 14.6089 10.7211 14.5157 10.8537 14.3803C10.9863 14.2449 11.0758 14.0732 11.111 13.887H17.188C17.2958 13.8859 17.3987 13.8422 17.4743 13.7653C17.5498 13.6885 17.5918 13.5848 17.591 13.477V12.135C17.536 11.735 17.113 11.75 16.946 11.48ZM25.806 13.63C25.751 13.423 25.65 13.195 25.589 12.961C25.583 12.9357 25.5709 12.9123 25.5538 12.8928C25.5366 12.8733 25.5149 12.8584 25.4906 12.8493C25.4662 12.8402 25.4401 12.8372 25.4143 12.8407C25.3886 12.8441 25.3641 12.8538 25.343 12.869C25.2906 12.9047 25.2309 12.9282 25.1683 12.9377C25.1056 12.9472 25.0416 12.9425 24.981 12.924V10.263C24.9884 10.229 25.0016 10.1965 25.02 10.167C25.035 10.1423 25.0446 10.1147 25.0482 10.086C25.0519 10.0573 25.0495 10.0282 25.0412 10.0005C25.0329 9.97279 25.0189 9.94713 25.0001 9.92518C24.9813 9.90322 24.9581 9.88545 24.932 9.873C24.8352 9.82378 24.7416 9.76833 24.652 9.707C24.6292 9.69264 24.603 9.68468 24.5761 9.68394C24.5492 9.6832 24.5226 9.68972 24.4991 9.70281C24.4755 9.7159 24.456 9.73509 24.4424 9.75834C24.4288 9.7816 24.4218 9.80808 24.422 9.835V13.72C24.4219 13.7418 24.426 13.7634 24.4343 13.7836C24.4425 13.8038 24.4546 13.8222 24.4699 13.8377C24.4852 13.8532 24.5035 13.8655 24.5236 13.874C24.5436 13.8824 24.5652 13.8869 24.587 13.887H25.611C25.6421 13.8865 25.6726 13.879 25.7003 13.865C25.728 13.8509 25.7521 13.8307 25.7708 13.8059C25.7895 13.7811 25.8023 13.7524 25.8083 13.7219C25.8142 13.6914 25.8141 13.66 25.806 13.63ZM23.928 10.082V13.687C23.9281 13.7123 23.9233 13.7375 23.9137 13.7609C23.9041 13.7844 23.89 13.8058 23.8722 13.8238C23.8544 13.8418 23.8331 13.8561 23.8098 13.8659C23.7864 13.8757 23.7613 13.8809 23.736 13.881H20.886C20.8294 13.8803 20.7752 13.8577 20.7348 13.818C20.6944 13.7783 20.6708 13.7246 20.669 13.668C20.635 12.877 20.702 12.139 21.61 12.313V11.956C21.578 11.902 21.525 11.972 21.514 11.902C21.645 11.764 21.703 11.714 21.952 11.492C21.9691 11.4773 21.99 11.4678 22.0124 11.4646C22.0347 11.4614 22.0575 11.4647 22.078 11.4741C22.0985 11.4834 22.1159 11.4985 22.1281 11.5174C22.1404 11.5364 22.1469 11.5584 22.147 11.581L22.154 12.671C22.154 12.7192 22.173 12.7654 22.2069 12.7997C22.2408 12.834 22.2868 12.8535 22.335 12.854H22.351C22.375 12.8539 22.3988 12.849 22.421 12.8397C22.4431 12.8304 22.4632 12.8168 22.4801 12.7997C22.497 12.7826 22.5104 12.7624 22.5195 12.7401C22.5285 12.7179 22.5331 12.694 22.533 12.67L22.537 11.096C22.5372 11.0636 22.5442 11.0316 22.5576 11.0021C22.5711 10.9727 22.5906 10.9464 22.615 10.925L22.855 10.714C22.8719 10.699 22.8927 10.6893 22.915 10.686C22.9373 10.6827 22.9601 10.686 22.9806 10.6954C23.0011 10.7048 23.0184 10.72 23.0303 10.7392C23.0423 10.7583 23.0484 10.7805 23.048 10.803V12.669C23.0477 12.693 23.0522 12.7169 23.0612 12.7392C23.0701 12.7615 23.0834 12.7818 23.1002 12.799C23.117 12.8162 23.137 12.8299 23.1591 12.8393C23.1812 12.8487 23.205 12.8537 23.229 12.854H23.241C23.2651 12.8539 23.289 12.849 23.3112 12.8396C23.3334 12.8302 23.3536 12.8165 23.3705 12.7993C23.3874 12.7821 23.4007 12.7618 23.4097 12.7394C23.4188 12.717 23.4233 12.6931 23.423 12.669C23.421 11.881 23.413 11.089 23.413 10.355C23.4128 10.3203 23.4198 10.286 23.4336 10.2541C23.4474 10.2223 23.4676 10.1936 23.493 10.17C23.556 10.111 23.63 10.046 23.7 9.981C23.7193 9.96261 23.7437 9.95036 23.77 9.94581C23.7963 9.94125 23.8233 9.94458 23.8477 9.95539C23.8721 9.9662 23.8928 9.98399 23.907 10.0065C23.9213 10.0291 23.9286 10.0553 23.928 10.082ZM21.61 12.752C21.573 12.605 21.26 12.665 21.315 12.827C21.385 12.935 21.624 12.931 21.61 12.752ZM11.904 14.174C11.8507 14.174 11.7995 14.195 11.7615 14.2324C11.7235 14.2698 11.7018 14.3207 11.701 14.374C11.701 14.4005 11.7063 14.4268 11.7165 14.4512C11.7267 14.4757 11.7417 14.4979 11.7606 14.5165C11.7795 14.5351 11.8019 14.5498 11.8265 14.5596C11.8512 14.5695 11.8775 14.5744 11.904 14.574C11.9301 14.574 11.9559 14.5688 11.9799 14.5587C12.004 14.5486 12.0258 14.5338 12.044 14.5152C12.0623 14.4966 12.0766 14.4745 12.0862 14.4502C12.0959 14.426 12.1005 14.4001 12.1 14.374C12.1 14.3216 12.0795 14.2714 12.0428 14.234C12.0062 14.1966 11.9563 14.175 11.904 14.174ZM19.188 12.944C19.1822 12.9209 19.1707 12.8996 19.1547 12.8819C19.1387 12.8643 19.1186 12.8509 19.0961 12.8429C19.0737 12.8349 19.0496 12.8325 19.026 12.836C19.0025 12.8395 18.9801 12.8488 18.961 12.863C18.9079 12.9028 18.846 12.9291 18.7805 12.9397C18.715 12.9503 18.6479 12.9449 18.585 12.924V10.268C18.5938 10.2302 18.6094 10.1942 18.631 10.162C18.6457 10.1385 18.6552 10.1121 18.659 10.0847C18.6628 10.0572 18.6608 10.0293 18.6531 10.0027C18.6453 9.97605 18.6321 9.95136 18.6141 9.93023C18.5962 9.90909 18.574 9.89197 18.549 9.88C18.4918 9.8522 18.4361 9.8215 18.382 9.788C18.3462 9.76706 18.3054 9.75603 18.2639 9.75605C18.2224 9.75607 18.1816 9.76713 18.1458 9.78809C18.1099 9.80906 18.0803 9.83918 18.06 9.87536C18.0397 9.91155 18.0293 9.95249 18.03 9.994V13.654C18.0297 13.685 18.0356 13.7157 18.0472 13.7445C18.0588 13.7732 18.076 13.7994 18.0977 13.8215C18.1194 13.8436 18.1453 13.8612 18.1738 13.8733C18.2024 13.8854 18.233 13.8917 18.264 13.892H19.064C19.1142 13.8913 19.1635 13.8787 19.2079 13.8554C19.2523 13.832 19.2906 13.7985 19.3196 13.7576C19.3486 13.7167 19.3676 13.6695 19.375 13.6199C19.3823 13.5703 19.3779 13.5196 19.362 13.472C19.307 13.302 19.235 13.125 19.188 12.944Z"
		fill="#73AF00"
	/>
</svg>
