<svg viewBox="0 0 36 24" fill="none" xmlns="http://www.w3.org/2000/svg">
	<path d="M0 4.421H36V19.579H0V4.421Z" fill="#F5F5F5" />
	<path
		d="M36 4.421H0V0H36V4.421ZM0 24H36V19.579H0V24ZM22.838 9.158L21.225 12L22.838 14.842H19.613L18 17.684L16.387 14.842H13.162L14.775 12L13.162 9.158H16.387L18 6.316L19.613 9.158H22.838ZM17.442 9.158H18.558L18 8.175L17.442 9.158ZM15.302 11.071L15.86 10.088H14.744L15.302 11.071ZM15.86 13.912L15.302 12.929L14.744 13.912H15.86ZM18.558 14.842H17.442L18 15.825L18.558 14.842ZM20.17 12L19.085 10.088H16.915L15.829 12L16.915 13.912H19.085L20.17 12ZM20.698 12.93L20.14 13.912H21.256L20.698 12.93ZM21.256 10.088H20.14L20.698 11.071L21.256 10.088Z"
		fill="#41479B"
	/>
</svg>
