<svg viewBox="0 0 36 24" fill="none" xmlns="http://www.w3.org/2000/svg">
	<path d="M36 8H0V0H36V8Z" fill="#464655" />
	<path d="M36 24H0V16H36V24Z" fill="#73AF00" />
	<path d="M0 8H36V16H0V8Z" fill="#F5F5F5" />
	<path
		d="M0 24L21.26 12.256C21.3056 12.2306 21.3436 12.1935 21.3701 12.1485C21.3965 12.1035 21.4105 12.0522 21.4105 12C21.4105 11.9478 21.3965 11.8965 21.3701 11.8515C21.3436 11.8065 21.3056 11.7694 21.26 11.744L0 0"
		fill="#FF4B55"
	/>
	<path
		d="M6.708 10.366L7.077 11.18L7.932 10.966C7.94411 10.9631 7.9568 10.9637 7.96857 10.9678C7.98033 10.9719 7.99068 10.9793 7.99837 10.9891C8.00606 10.9989 8.01077 11.0107 8.01195 11.0231C8.01313 11.0355 8.01071 11.0479 8.005 11.059L7.61 11.861L8.308 12.408C8.31773 12.4157 8.32509 12.426 8.32923 12.4377C8.33337 12.4494 8.33412 12.462 8.33141 12.4742C8.32869 12.4863 8.32262 12.4974 8.31388 12.5062C8.30514 12.515 8.29409 12.5212 8.282 12.524L7.419 12.709L7.434 13.605C7.43457 13.6174 7.43151 13.6297 7.4252 13.6404C7.41889 13.6511 7.4096 13.6598 7.39847 13.6653C7.38734 13.6708 7.37484 13.6729 7.36251 13.6715C7.35017 13.67 7.33853 13.665 7.329 13.657L6.649 13.087L5.969 13.657C5.95947 13.665 5.94783 13.67 5.93549 13.6715C5.92316 13.6729 5.91066 13.6708 5.89953 13.6653C5.8884 13.6598 5.87911 13.6511 5.8728 13.6404C5.86649 13.6297 5.86343 13.6174 5.864 13.605L5.879 12.709L5.017 12.524C5.00491 12.5212 4.99386 12.515 4.98512 12.5062C4.97638 12.4974 4.97031 12.4863 4.96759 12.4742C4.96488 12.462 4.96563 12.4494 4.96977 12.4377C4.97391 12.426 4.98127 12.4157 4.991 12.408L5.689 11.861L5.293 11.059C5.28729 11.0479 5.28487 11.0355 5.28605 11.0231C5.28723 11.0107 5.29194 10.9989 5.29963 10.9891C5.30732 10.9793 5.31767 10.9719 5.32943 10.9678C5.3412 10.9637 5.35389 10.9631 5.366 10.966L6.222 11.18L6.591 10.366C6.59602 10.3547 6.60422 10.3451 6.61461 10.3383C6.62499 10.3316 6.63711 10.328 6.6495 10.328C6.66189 10.328 6.67401 10.3316 6.68439 10.3383C6.69478 10.3451 6.70298 10.3547 6.708 10.366Z"
		fill="#F5F5F5"
	/>
</svg>
