<svg viewBox="0 0 36 24" fill="none" xmlns="http://www.w3.org/2000/svg">
	<path d="M36 8H0V0H36V8Z" fill="#F5F5F5" />
	<path d="M36 24H0V16H36V24Z" fill="#73AF00" />
	<path
		d="M9.31 8V0H0V24H9.31V16H36V8H9.31ZM7.726 4.334V4.751C7.72613 4.75954 7.72458 4.76801 7.72144 4.77595C7.71829 4.78389 7.71361 4.79113 7.70767 4.79726C7.70173 4.80339 7.69464 4.80828 7.6868 4.81167C7.67896 4.81506 7.67054 4.81687 7.662 4.817H6.572C6.56338 4.817 6.55484 4.81529 6.54689 4.81196C6.53894 4.80863 6.53173 4.80375 6.52568 4.79761C6.51963 4.79147 6.51486 4.78418 6.51166 4.77618C6.50845 4.76818 6.50687 4.75962 6.507 4.751V4.743H6.556C6.56454 4.74287 6.57296 4.74106 6.5808 4.73767C6.58864 4.73428 6.59573 4.72939 6.60167 4.72326C6.60761 4.71713 6.61229 4.70989 6.61544 4.70195C6.61858 4.69401 6.62013 4.68554 6.62 4.677V4.408C6.62013 4.39946 6.61858 4.39098 6.61544 4.38305C6.61229 4.37511 6.60761 4.36787 6.60167 4.36174C6.59573 4.35561 6.58864 4.35072 6.5808 4.34733C6.57296 4.34394 6.56454 4.34213 6.556 4.342H6.507V4.334C6.50687 4.32538 6.50845 4.31682 6.51166 4.30882C6.51486 4.30082 6.51963 4.29353 6.52568 4.28739C6.53173 4.28125 6.53894 4.27637 6.54689 4.27304C6.55484 4.26971 6.56338 4.268 6.572 4.268H7.662C7.67054 4.26813 7.67896 4.26994 7.6868 4.27333C7.69464 4.27672 7.70173 4.28161 7.70767 4.28774C7.71361 4.29387 7.71829 4.30111 7.72144 4.30905C7.72458 4.31699 7.72613 4.32546 7.726 4.334ZM6.938 1.694C6.8907 1.84992 6.83324 2.00258 6.766 2.151C6.626 2.474 6.291 3.094 6.012 3.592L5.75 3.424C6.262 2.657 6.808 1.851 6.938 1.694ZM6.491 4.474V4.611H6.233V4.474H6.491ZM5.678 3.533L5.948 3.707L5.753 4.052L5.471 3.843L5.678 3.533ZM5.312 4.083L5.399 3.953L5.688 4.166L5.587 4.342H5.312V4.083ZM3.86 5.175V5.945C3.45876 5.90065 3.05994 5.83657 2.665 5.753V5.223C3.012 5.189 3.435 5.173 3.86 5.175ZM2.948 4.612V4.475H3.206V4.612H2.948ZM3.78 4.612V4.475H5.66V4.612H3.78ZM4.232 4.344V4.206H5.184V4.344H4.232ZM4.704 1.581C4.94 1.581 5.14 1.695 5.14 1.83C5.14 1.965 4.94 2.078 4.704 2.078C4.468 2.078 4.268 1.965 4.268 1.83C4.268 1.695 4.468 1.581 4.704 1.581ZM4.926 3.071L5.098 3.265H4.318L4.49 3.071H4.926ZM4.526 2.932V2.189C4.64439 2.21681 4.76761 2.21681 4.886 2.189V2.932H4.526ZM4.232 3.402H5.184V3.536H4.232V3.402ZM4.232 3.667H5.184V3.805H4.232V3.667ZM4.232 3.937H5.184V4.05C5.18117 4.05768 5.17981 4.06582 5.18 4.074H4.232V3.937ZM4.1 4.1V4.341H3.815C3.7812 4.28241 3.74754 4.22374 3.714 4.165L4.002 3.951L4.1 4.1ZM3.93 3.842L3.648 4.051C3.58267 3.93619 3.51767 3.82118 3.453 3.706L3.723 3.532L3.93 3.842ZM3.651 3.422L3.389 3.592C3.111 3.092 2.775 2.473 2.636 2.15C2.56848 2.00192 2.51069 1.8496 2.463 1.694C2.596 1.854 3.141 2.658 3.651 3.423V3.422ZM1.711 4.333C1.71087 4.32446 1.71242 4.31599 1.71556 4.30805C1.71871 4.30011 1.72339 4.29287 1.72933 4.28674C1.73527 4.28061 1.74236 4.27572 1.7502 4.27233C1.75804 4.26894 1.76646 4.26713 1.775 4.267H2.865C2.87362 4.267 2.88216 4.26871 2.89011 4.27204C2.89806 4.27537 2.90527 4.28025 2.91132 4.28639C2.91737 4.29253 2.92213 4.29982 2.92534 4.30782C2.92855 4.31582 2.93013 4.32438 2.93 4.333V4.341H2.881C2.87246 4.34113 2.86404 4.34294 2.8562 4.34633C2.84836 4.34972 2.84127 4.35461 2.83533 4.36074C2.82939 4.36687 2.82471 4.37411 2.82156 4.38205C2.81842 4.38998 2.81687 4.39846 2.817 4.407V4.677C2.817 4.69407 2.82371 4.71045 2.83568 4.72261C2.84766 4.73477 2.86393 4.74174 2.881 4.742H2.93V4.75C2.93013 4.75862 2.92855 4.76718 2.92534 4.77518C2.92213 4.78318 2.91737 4.79047 2.91132 4.79661C2.90527 4.80275 2.89806 4.80763 2.89011 4.81096C2.88216 4.81429 2.87362 4.816 2.865 4.816H1.775C1.76646 4.81587 1.75804 4.81406 1.7502 4.81067C1.74236 4.80728 1.73527 4.80239 1.72933 4.79626C1.72339 4.79013 1.71871 4.78289 1.71556 4.77495C1.71242 4.76702 1.71087 4.75854 1.711 4.75V4.333ZM2.534 5.233V5.722C2.50059 5.71362 2.46726 5.70495 2.434 5.696V5.246L2.534 5.234V5.233ZM2.304 5.266V5.661C2.15153 5.63091 2.00913 5.5628 1.89 5.463C1.875 5.444 1.877 5.435 1.878 5.431C1.895 5.363 2.057 5.308 2.304 5.266ZM2.457 7.524C2.2265 7.68788 1.95355 7.78165 1.671 7.794L2.402 7.111C2.515 7.127 2.726 7.159 2.852 7.185C2.666 7.349 2.53433 7.46133 2.457 7.524ZM2.971 7.08C2.84912 7.04905 2.72559 7.02502 2.601 7.008L3.661 6.048C3.829 6.069 3.971 6.084 4.063 6.091C3.60833 6.50633 3.24433 6.836 2.971 7.08ZM4.101 5.963C4.06296 5.96093 4.02496 5.95826 3.987 5.955V5.175L4.1 5.176L4.101 5.963ZM4.471 5.966H4.23V4.743H5.182V5.243C5.1836 5.43308 5.10976 5.61605 4.97666 5.75177C4.84356 5.88749 4.66208 5.96489 4.472 5.967L4.471 5.966ZM5.106 5.885L5.064 5.848C5.13763 5.77344 5.19695 5.68599 5.239 5.59L6.8 7.009C6.67539 7.0259 6.55185 7.04994 6.43 7.081C6.114 6.801 5.67267 6.40167 5.106 5.885ZM6.944 7.525C6.87 7.465 6.738 7.35167 6.548 7.185C6.69798 7.15658 6.8487 7.13224 7 7.112L7.728 7.791C7.44685 7.78113 7.17485 7.68861 6.946 7.525H6.944Z"
		fill="#FF4B55"
	/>
	<path
		d="M7.907 7.78L7.064 6.995C7.05717 6.98844 7.04894 6.9835 7.03994 6.98056C7.03094 6.97762 7.02139 6.97674 7.012 6.978L6.967 6.984L6.964 6.98L5.285 5.456C5.30275 5.38672 5.31182 5.31551 5.312 5.244V4.743H5.72C5.74597 4.77874 5.78004 4.80782 5.8194 4.82788C5.85877 4.84793 5.90232 4.85839 5.9465 4.85839C5.99068 4.85839 6.03423 4.84793 6.0736 4.82788C6.11296 4.80782 6.14703 4.77874 6.173 4.743H6.378V4.751C6.37773 4.80281 6.39799 4.85262 6.43435 4.88954C6.4707 4.92645 6.52019 4.94747 6.572 4.948H7.662C7.71363 4.94721 7.76287 4.92608 7.79901 4.88919C7.83515 4.8523 7.85527 4.80264 7.855 4.751V4.334C7.85527 4.28236 7.83515 4.2327 7.79901 4.19581C7.76287 4.15892 7.71363 4.13779 7.662 4.137H6.572C6.52019 4.13753 6.4707 4.15855 6.43435 4.19546C6.39799 4.23238 6.37773 4.28219 6.378 4.334V4.342H6.173C6.15014 4.31062 6.12098 4.28436 6.0874 4.2649C6.05381 4.24543 6.01653 4.23319 5.97794 4.22895C5.93935 4.22472 5.9003 4.22858 5.86329 4.2403C5.82628 4.25202 5.79212 4.27133 5.763 4.297C5.98 3.917 6.664 2.716 6.884 2.203C7.12 1.653 7.101 1.583 7.045 1.537C6.986 1.489 6.912 1.544 6.884 1.565C6.776 1.645 5.728 3.22 5.312 3.848V3.326C5.31142 3.31535 5.30819 3.30502 5.3026 3.29594C5.29701 3.28686 5.28924 3.27932 5.28 3.274L5.014 2.974V2.147C5.08279 2.12463 5.14351 2.08258 5.18865 2.02606C5.23379 1.96954 5.26138 1.90103 5.268 1.829C5.268 1.616 5.02 1.449 4.703 1.449C4.386 1.449 4.138 1.616 4.138 1.829C4.14455 1.90187 4.17255 1.97117 4.21847 2.02812C4.2644 2.08508 4.32618 2.12715 4.396 2.149V2.979L4.135 3.273C4.12473 3.27857 4.11616 3.2868 4.11018 3.29683C4.10419 3.30686 4.10102 3.31832 4.101 3.33V3.865C3.694 3.25 2.628 1.645 2.519 1.565C2.491 1.545 2.416 1.489 2.357 1.537C2.302 1.583 2.283 1.654 2.518 2.203C2.731 2.699 3.378 3.842 3.618 4.258C3.57893 4.23825 3.53577 4.22798 3.492 4.228C3.4479 4.228 3.4044 4.23831 3.36499 4.2581C3.32558 4.27789 3.29134 4.30662 3.265 4.342H3.06V4.334C3.06027 4.28219 3.04001 4.23238 3.00365 4.19546C2.9673 4.15855 2.91781 4.13753 2.866 4.137H1.776C1.72437 4.13779 1.67513 4.15892 1.63899 4.19581C1.60285 4.2327 1.58273 4.28236 1.583 4.334V4.751C1.58273 4.80264 1.60285 4.8523 1.63899 4.88919C1.67513 4.92608 1.72437 4.94721 1.776 4.948H2.866C2.91781 4.94747 2.9673 4.92645 3.00365 4.88954C3.04001 4.85262 3.06027 4.80281 3.06 4.751V4.743H3.265C3.29097 4.77874 3.32504 4.80782 3.3644 4.82788C3.40377 4.84793 3.44732 4.85839 3.4915 4.85839C3.53568 4.85839 3.57923 4.84793 3.6186 4.82788C3.65796 4.80782 3.69203 4.77874 3.718 4.743H4.101V5.045C3.503 5.032 1.845 5.03 1.754 5.4C1.74812 5.42522 1.74822 5.45147 1.7543 5.47665C1.76037 5.50183 1.77226 5.52524 1.789 5.545C2.31213 5.83341 2.89432 5.99829 3.491 6.027L2.438 6.98L2.435 6.984L2.39 6.978C2.38061 6.97674 2.37106 6.97762 2.36206 6.98056C2.35306 6.9835 2.34483 6.98844 2.338 6.995L1.496 7.78C1.48348 7.79148 1.47587 7.80735 1.47475 7.8243C1.47364 7.84125 1.4791 7.85797 1.49 7.871C1.54542 7.91206 1.61462 7.92998 1.683 7.921C1.99036 7.91072 2.28769 7.80905 2.537 7.629C2.737 7.471 3.287 6.979 4.176 6.167L4.251 6.098H4.473C4.65038 6.09771 4.82293 6.0402 4.965 5.934L5.02 5.984C6.043 6.915 6.664 7.469 6.865 7.629C7.11414 7.80952 7.41151 7.91154 7.719 7.922C7.78751 7.9307 7.85673 7.91241 7.912 7.871C7.92273 7.85816 7.92819 7.84172 7.92726 7.82501C7.92633 7.8083 7.91909 7.79157 7.907 7.78ZM6.507 4.743H6.556C6.56454 4.74287 6.57296 4.74106 6.5808 4.73767C6.58864 4.73428 6.59573 4.72939 6.60167 4.72326C6.60761 4.71713 6.61229 4.70989 6.61544 4.70195C6.61858 4.69401 6.62013 4.68554 6.62 4.677V4.408C6.62013 4.39946 6.61858 4.39098 6.61544 4.38305C6.61229 4.37511 6.60761 4.36787 6.60167 4.36174C6.59573 4.35561 6.58864 4.35072 6.5808 4.34733C6.57296 4.34394 6.56454 4.34213 6.556 4.342H6.507V4.334C6.50687 4.32538 6.50845 4.31682 6.51166 4.30882C6.51486 4.30082 6.51963 4.29353 6.52568 4.28739C6.53173 4.28125 6.53894 4.27637 6.54689 4.27304C6.55484 4.26971 6.56338 4.268 6.572 4.268H7.662C7.67054 4.26813 7.67896 4.26994 7.6868 4.27333C7.69464 4.27672 7.70173 4.28161 7.70767 4.28774C7.71361 4.29387 7.71829 4.30111 7.72144 4.30905C7.72458 4.31699 7.72613 4.32546 7.726 4.334V4.751C7.72613 4.75954 7.72458 4.76801 7.72144 4.77595C7.71829 4.78389 7.71361 4.79113 7.70767 4.79726C7.70173 4.80339 7.69464 4.80828 7.6868 4.81167C7.67896 4.81506 7.67054 4.81687 7.662 4.817H6.572C6.56338 4.817 6.55484 4.81529 6.54689 4.81196C6.53894 4.80863 6.53173 4.80375 6.52568 4.79761C6.51963 4.79147 6.51486 4.78418 6.51166 4.77618C6.50845 4.76818 6.50687 4.75962 6.507 4.751V4.743ZM6.233 4.474H6.491V4.611H6.233V4.474ZM5.789 4.519C5.789 4.47723 5.80559 4.43717 5.83513 4.40763C5.86467 4.37809 5.90473 4.3615 5.9465 4.3615C5.98827 4.3615 6.02833 4.37809 6.05787 4.40763C6.08741 4.43717 6.104 4.47723 6.104 4.519V4.566C6.104 4.60777 6.08741 4.64783 6.05787 4.67737C6.02833 4.70691 5.98827 4.7235 5.9465 4.7235C5.90473 4.7235 5.86467 4.70691 5.83513 4.67737C5.80559 4.64783 5.789 4.60777 5.789 4.566V4.519ZM2.93 4.75C2.93013 4.75862 2.92855 4.76718 2.92534 4.77518C2.92213 4.78318 2.91737 4.79047 2.91132 4.79661C2.90527 4.80275 2.89806 4.80763 2.89011 4.81096C2.88216 4.81429 2.87362 4.816 2.865 4.816H1.775C1.76646 4.81587 1.75804 4.81406 1.7502 4.81067C1.74236 4.80728 1.73527 4.80239 1.72933 4.79626C1.72339 4.79013 1.71871 4.78289 1.71556 4.77495C1.71242 4.76702 1.71087 4.75854 1.711 4.75V4.333C1.71087 4.32446 1.71242 4.31599 1.71556 4.30805C1.71871 4.30011 1.72339 4.29287 1.72933 4.28674C1.73527 4.28061 1.74236 4.27572 1.7502 4.27233C1.75804 4.26894 1.76646 4.26713 1.775 4.267H2.865C2.87362 4.267 2.88216 4.26871 2.89011 4.27204C2.89806 4.27537 2.90527 4.28025 2.91132 4.28639C2.91737 4.29253 2.92213 4.29982 2.92534 4.30782C2.92855 4.31582 2.93013 4.32438 2.93 4.333V4.341H2.881C2.87246 4.34113 2.86404 4.34294 2.8562 4.34633C2.84836 4.34972 2.84127 4.35461 2.83533 4.36074C2.82939 4.36687 2.82471 4.37411 2.82156 4.38205C2.81842 4.38998 2.81687 4.39846 2.817 4.407V4.677C2.817 4.69407 2.82371 4.71045 2.83568 4.72261C2.84766 4.73477 2.86393 4.74174 2.881 4.742H2.93V4.75ZM3.204 4.61H2.946V4.473H3.204V4.61ZM6.937 1.694C6.88962 1.84957 6.83216 2.00189 6.765 2.15C6.626 2.473 6.29 3.092 6.011 3.591L5.749 3.423C6.261 2.656 6.807 1.85 6.937 1.693V1.694ZM5.677 3.532L5.947 3.706L5.752 4.051L5.47 3.842L5.677 3.532ZM5.311 4.082L5.398 3.952L5.687 4.165L5.586 4.341H5.311V4.082ZM4.268 1.83C4.268 1.695 4.468 1.581 4.704 1.581C4.94 1.581 5.14 1.695 5.14 1.83C5.14 1.965 4.94 2.078 4.704 2.078C4.468 2.078 4.268 1.965 4.268 1.83ZM4.886 2.189V2.932H4.526L4.525 2.19C4.64347 2.21749 4.76769 2.21714 4.886 2.189ZM4.49 3.071H4.926L5.098 3.265H4.318L4.49 3.071ZM4.231 3.403H5.183L5.184 3.536H4.232L4.231 3.403ZM4.231 3.668H5.183L5.184 3.805H4.232L4.231 3.668ZM4.232 3.937H5.184V4.05C5.18117 4.05768 5.17981 4.06582 5.18 4.074H4.232V3.937ZM4.232 4.206H5.184L5.183 4.343H4.231L4.232 4.206ZM2.637 2.15C2.56943 2.00194 2.51064 1.84962 2.463 1.694C2.596 1.854 3.142 2.657 3.652 3.423L3.39 3.591C3.112 3.093 2.776 2.473 2.637 2.15ZM3.649 4.565C3.649 4.60677 3.63241 4.64683 3.60287 4.67637C3.57333 4.70591 3.53327 4.7225 3.4915 4.7225C3.44973 4.7225 3.40967 4.70591 3.38013 4.67637C3.35059 4.64683 3.334 4.60677 3.334 4.565V4.52C3.334 4.47823 3.35059 4.43817 3.38013 4.40863C3.40967 4.37909 3.44973 4.3625 3.4915 4.3625C3.53327 4.3625 3.57333 4.37909 3.60287 4.40863C3.63241 4.43817 3.649 4.47823 3.649 4.52V4.565ZM3.649 4.051C3.58368 3.93618 3.51768 3.82118 3.453 3.706L3.724 3.532L3.931 3.842L3.649 4.051ZM3.715 4.165L4.003 3.951L4.101 4.1V4.341H3.816C3.7822 4.28241 3.74854 4.22374 3.715 4.165ZM2.305 5.661C2.15256 5.63082 2.01018 5.56273 1.891 5.463C1.876 5.444 1.877 5.435 1.878 5.431C1.895 5.363 2.058 5.308 2.305 5.266V5.661ZM2.535 5.721C2.50158 5.71302 2.46725 5.70468 2.434 5.696V5.246L2.535 5.234V5.721ZM2.665 5.751V5.221C3.011 5.187 3.435 5.171 3.859 5.173V5.942C3.45779 5.89831 3.05897 5.8349 2.664 5.752L2.665 5.751ZM2.457 7.524C2.22656 7.68799 1.95457 7.78176 1.672 7.794L2.403 7.111C2.516 7.127 2.726 7.159 2.852 7.185C2.666 7.349 2.53433 7.46133 2.457 7.524ZM2.971 7.08C2.84912 7.04905 2.72559 7.02502 2.601 7.008L3.662 6.048C3.83 6.069 3.972 6.084 4.064 6.091C3.60933 6.50633 3.24433 6.836 2.971 7.08ZM4.102 5.963C4.06396 5.96092 4.02596 5.95826 3.988 5.955V5.175L4.101 5.176L4.102 5.963ZM3.779 4.61V4.473H5.659V4.61H3.779ZM4.473 5.966H4.23V4.743H5.182V5.243C5.1836 5.43308 5.10976 5.61605 4.97666 5.75177C4.84356 5.88749 4.66208 5.96489 4.472 5.967L4.473 5.966ZM5.107 5.885L5.065 5.847C5.13869 5.77248 5.19801 5.68502 5.24 5.589L6.8 7.01C6.67541 7.02702 6.55188 7.05106 6.43 7.082C6.114 6.80133 5.67233 6.403 5.105 5.887L5.107 5.885ZM6.946 7.525C6.872 7.465 6.739 7.35167 6.549 7.185C6.69865 7.15663 6.84904 7.13228 7 7.112L7.728 7.791C7.44685 7.78113 7.17485 7.68861 6.946 7.525Z"
		fill="#D23741"
	/>
</svg>
