<svg viewBox="0 0 36 24" fill="none" xmlns="http://www.w3.org/2000/svg">
	<path d="M16.7591 24H6.10352e-05V0H16.7591V24Z" fill="#F5F5F5" />
	<path
		d="M36.0001 0H11.7681C11.7847 0.00010083 11.8012 0.00279998 11.8171 0.008L15.5701 1.175C15.6037 1.18641 15.6329 1.20807 15.6536 1.23695C15.6743 1.26583 15.6855 1.30047 15.6855 1.336C15.6855 1.37153 15.6743 1.40617 15.6536 1.43505C15.6329 1.46393 15.6037 1.48559 15.5701 1.497L12.3121 2.507C12.2784 2.51841 12.2492 2.54007 12.2285 2.56895C12.2078 2.59783 12.1966 2.63247 12.1966 2.668C12.1966 2.70353 12.2078 2.73817 12.2285 2.76705C12.2492 2.79593 12.2784 2.81759 12.3121 2.829L15.5711 3.842C15.6047 3.85341 15.6339 3.87507 15.6546 3.90395C15.6753 3.93283 15.6865 3.96747 15.6865 4.003C15.6865 4.03853 15.6753 4.07317 15.6546 4.10205C15.6339 4.13093 15.6047 4.15259 15.5711 4.164L12.3121 5.174C12.2784 5.18541 12.2492 5.20707 12.2285 5.23595C12.2078 5.26483 12.1966 5.29947 12.1966 5.335C12.1966 5.37053 12.2078 5.40517 12.2285 5.43405C12.2492 5.46293 12.2784 5.48459 12.3121 5.496L15.5711 6.509C15.6047 6.52041 15.6339 6.54207 15.6546 6.57095C15.6753 6.59983 15.6865 6.63447 15.6865 6.67C15.6865 6.70553 15.6753 6.74017 15.6546 6.76905C15.6339 6.79793 15.6047 6.81959 15.5711 6.831L12.3131 7.841C12.2794 7.85241 12.2502 7.87407 12.2295 7.90295C12.2088 7.93183 12.1976 7.96647 12.1976 8.002C12.1976 8.03753 12.2088 8.07217 12.2295 8.10105C12.2502 8.12993 12.2794 8.15159 12.3131 8.163L15.5701 9.172C15.6037 9.18341 15.6329 9.20507 15.6536 9.23395C15.6743 9.26283 15.6855 9.29747 15.6855 9.333C15.6855 9.36853 15.6743 9.40317 15.6536 9.43205C15.6329 9.46093 15.6037 9.48259 15.5701 9.494L12.3121 10.507C12.2784 10.5184 12.2492 10.5401 12.2285 10.569C12.2078 10.5978 12.1966 10.6325 12.1966 10.668C12.1966 10.7035 12.2078 10.7382 12.2285 10.767C12.2492 10.7959 12.2784 10.8176 12.3121 10.829L15.5701 11.839C15.6037 11.8504 15.6329 11.8721 15.6536 11.901C15.6743 11.9298 15.6855 11.9645 15.6855 12C15.6855 12.0355 15.6743 12.0702 15.6536 12.099C15.6329 12.1279 15.6037 12.1496 15.5701 12.161L12.3121 13.174C12.278 13.1852 12.2484 13.2068 12.2274 13.2358C12.2064 13.2648 12.1951 13.2997 12.1951 13.3355C12.1951 13.3713 12.2064 13.4062 12.2274 13.4352C12.2484 13.4642 12.278 13.4858 12.3121 13.497L15.5701 14.507C15.6034 14.5186 15.6322 14.5403 15.6526 14.5691C15.6731 14.5978 15.684 14.6322 15.684 14.6675C15.684 14.7028 15.6731 14.7372 15.6526 14.7659C15.6322 14.7947 15.6034 14.8164 15.5701 14.828L12.3121 15.842C12.2784 15.8534 12.2492 15.8751 12.2285 15.904C12.2078 15.9328 12.1966 15.9675 12.1966 16.003C12.1966 16.0385 12.2078 16.0732 12.2285 16.102C12.2492 16.1309 12.2784 16.1526 12.3121 16.164L15.5701 17.174C15.6037 17.1854 15.6329 17.2071 15.6536 17.236C15.6743 17.2648 15.6855 17.2995 15.6855 17.335C15.6855 17.3705 15.6743 17.4052 15.6536 17.434C15.6329 17.4629 15.6037 17.4846 15.5701 17.496L12.3121 18.509C12.2784 18.5204 12.2492 18.5421 12.2285 18.571C12.2078 18.5998 12.1966 18.6345 12.1966 18.67C12.1966 18.7055 12.2078 18.7402 12.2285 18.769C12.2492 18.7979 12.2784 18.8196 12.3121 18.831L15.5691 19.841C15.6024 19.8526 15.6312 19.8743 15.6516 19.9031C15.6721 19.9318 15.683 19.9662 15.683 20.0015C15.683 20.0368 15.6721 20.0712 15.6516 20.0999C15.6312 20.1287 15.6024 20.1504 15.5691 20.162L12.3121 21.172C12.2784 21.1834 12.2492 21.2051 12.2285 21.234C12.2078 21.2628 12.1966 21.2975 12.1966 21.333C12.1966 21.3685 12.2078 21.4032 12.2285 21.432C12.2492 21.4609 12.2784 21.4826 12.3121 21.494L15.5711 22.507C15.6047 22.5184 15.6339 22.5401 15.6546 22.569C15.6753 22.5978 15.6865 22.6325 15.6865 22.668C15.6865 22.7035 15.6753 22.7382 15.6546 22.767C15.6339 22.7959 15.6047 22.8176 15.5711 22.829L11.8171 23.992C11.8012 23.9972 11.7847 23.9999 11.7681 24H36.0001"
		fill="#873250"
	/>
</svg>
