<svg viewBox="0 0 36 24" fill="none" xmlns="http://www.w3.org/2000/svg">
	<path d="M36 24H0V0H36" fill="#73AF00" />
	<path
		d="M7.19 6.86C7.17696 6.79572 7.18981 6.72889 7.22576 6.67403C7.26171 6.61917 7.31786 6.58071 7.382 6.567C7.41367 6.56062 7.44628 6.56058 7.47796 6.5669C7.50964 6.57322 7.53975 6.58577 7.56654 6.60382C7.59333 6.62187 7.61627 6.64505 7.63403 6.67203C7.65179 6.69902 7.66402 6.72926 7.67 6.761L7.92 8.016V6.81C7.91667 6.72762 7.93002 6.64541 7.95925 6.56831C7.98847 6.49122 8.03298 6.42082 8.09009 6.36135C8.1472 6.30188 8.21574 6.25457 8.2916 6.22225C8.36745 6.18993 8.44905 6.17327 8.5315 6.17327C8.61395 6.17327 8.69555 6.18993 8.7714 6.22225C8.84726 6.25457 8.9158 6.30188 8.97291 6.36135C9.03002 6.42082 9.07453 6.49122 9.10375 6.56831C9.13298 6.64541 9.14633 6.72762 9.143 6.81V8.185L9.436 8.065C9.43453 7.3321 9.34045 6.60232 9.156 5.893C9.13526 5.83066 9.1399 5.76266 9.16891 5.70372C9.19791 5.64477 9.24896 5.59961 9.311 5.578C9.34165 5.56758 9.37407 5.56338 9.40636 5.56566C9.43865 5.56794 9.47016 5.57665 9.49903 5.59128C9.52791 5.6059 9.55358 5.62615 9.57452 5.65083C9.59547 5.67551 9.61127 5.70413 9.621 5.735C9.80901 6.43485 9.90911 7.1554 9.919 7.88C10.0893 7.83443 10.2704 7.85293 10.428 7.932C10.4673 7.952 10.512 7.9589 10.5556 7.9517C10.5991 7.94451 10.6392 7.92359 10.67 7.892L10.714 7.847C10.7463 7.81423 10.769 7.77321 10.7796 7.72841C10.7902 7.68361 10.7883 7.63677 10.774 7.593L10.379 6.391C10.3637 6.34432 10.3623 6.29418 10.3751 6.24674C10.3879 6.1993 10.4143 6.15664 10.451 6.124C10.4872 6.09163 10.5324 6.07097 10.5806 6.06472C10.6288 6.05847 10.6777 6.06694 10.721 6.089L11.211 6.339C11.269 6.36934 11.3129 6.42113 11.3332 6.48333C11.3536 6.54554 11.3488 6.61324 11.32 6.672C11.2946 6.72441 11.2513 6.76602 11.198 6.78931C11.1446 6.8126 11.0847 6.81603 11.029 6.799L11.237 7.435C11.2806 7.5663 11.2872 7.7071 11.256 7.8419C11.2247 7.9767 11.1569 8.10026 11.06 8.199L11.016 8.244C10.9132 8.34932 10.7795 8.41903 10.6343 8.44296C10.4891 8.46688 10.3401 8.44377 10.209 8.377C10.1782 8.36141 10.1444 8.35263 10.1099 8.35125C10.0754 8.34987 10.041 8.35593 10.009 8.369L9.935 8.399C9.9477 9.20345 9.92835 10.0081 9.877 10.811C9.87297 10.8732 9.84558 10.9315 9.80033 10.9744C9.75508 11.0172 9.69531 11.0414 9.633 11.042H9.615C9.54988 11.0364 9.4896 11.0053 9.44728 10.9555C9.40496 10.9057 9.38401 10.8412 9.389 10.776C9.389 10.757 9.459 9.746 9.447 8.598L9.325 8.648C9.25086 8.67839 9.17029 8.68973 9.09064 8.681C9.01099 8.67227 8.93479 8.64373 8.869 8.598C8.80235 8.55176 8.74795 8.49001 8.71049 8.41805C8.67304 8.3461 8.65365 8.26612 8.654 8.185V6.811C8.654 6.77851 8.64109 6.74735 8.61812 6.72438C8.59515 6.70141 8.56399 6.6885 8.5315 6.6885C8.49901 6.6885 8.46785 6.70141 8.44488 6.72438C8.42191 6.74735 8.409 6.77851 8.409 6.811V8.181C8.40282 8.30257 8.35352 8.41797 8.26996 8.50648C8.18639 8.595 8.07402 8.65084 7.953 8.664C7.747 8.681 7.51 8.555 7.449 8.156L7.19 6.86ZM7.92 6.064C7.95244 6.06374 7.9845 6.05709 8.01437 6.04444C8.04424 6.03178 8.07132 6.01337 8.09407 5.99024C8.11682 5.96712 8.1348 5.93974 8.14697 5.90968C8.15914 5.87961 8.16526 5.84744 8.165 5.815V5.566C8.165 5.50102 8.13919 5.43871 8.09324 5.39276C8.04729 5.34681 7.98498 5.321 7.92 5.321C7.85502 5.321 7.79271 5.34681 7.74676 5.39276C7.70081 5.43871 7.675 5.50102 7.675 5.566V5.816C7.67473 5.88134 7.70036 5.94412 7.74628 5.9906C7.7922 6.03708 7.85467 6.06347 7.92 6.064ZM10.367 5.815H10.611C10.677 5.815 10.7404 5.78877 10.7871 5.74207C10.8338 5.69537 10.86 5.63204 10.86 5.566C10.86 5.49996 10.8338 5.43663 10.7871 5.38993C10.7404 5.34323 10.677 5.317 10.611 5.317H10.367C10.301 5.317 10.2376 5.34323 10.1909 5.38993C10.1442 5.43663 10.118 5.49996 10.118 5.566C10.118 5.63204 10.1442 5.69537 10.1909 5.74207C10.2376 5.78877 10.301 5.815 10.367 5.815ZM8.773 9.087L7.549 9.834C7.49291 9.86857 7.45267 9.92381 7.43696 9.9878C7.42124 10.0518 7.43131 10.1194 7.465 10.176C7.48655 10.2125 7.51726 10.2428 7.55408 10.2639C7.59091 10.2849 7.63259 10.296 7.675 10.296C7.71943 10.2962 7.76305 10.2841 7.801 10.261L9.025 9.514C9.08092 9.47927 9.12095 9.42395 9.13648 9.35998C9.152 9.29601 9.14178 9.2285 9.108 9.172C9.09181 9.14418 9.07024 9.11987 9.04455 9.1005C9.01885 9.08112 8.98955 9.06706 8.95835 9.05914C8.92716 9.05123 8.8947 9.04962 8.86287 9.0544C8.83104 9.05918 8.80049 9.07027 8.773 9.087ZM10.674 12.707C10.3888 12.895 10.0556 12.9974 9.714 13.002C9.45663 13.0009 9.20313 12.9392 8.974 12.822C8.69969 12.6716 8.47642 12.4429 8.33268 12.165C8.18894 11.8872 8.13126 11.5728 8.167 11.262C8.16887 11.2284 8.17763 11.1956 8.19272 11.1656C8.20781 11.1356 8.22892 11.109 8.25473 11.0875C8.28054 11.066 8.3105 11.05 8.34275 11.0405C8.375 11.0311 8.40885 11.0284 8.44219 11.0326C8.47554 11.0368 8.50766 11.0478 8.53656 11.0649C8.56547 11.082 8.59054 11.1049 8.61022 11.1322C8.6299 11.1594 8.64376 11.1904 8.65095 11.2232C8.65814 11.2561 8.6585 11.29 8.652 11.323C8.62893 11.5319 8.66759 11.743 8.76321 11.9301C8.85883 12.1173 9.00721 12.2723 9.19 12.376C9.38359 12.4725 9.59961 12.5151 9.81535 12.4993C10.0311 12.4834 10.2386 12.4098 10.416 12.286C10.7712 12.0294 11.062 11.6939 11.2657 11.3059C11.4694 10.918 11.5804 10.4881 11.59 10.05C11.5231 10.5184 11.3294 10.9596 11.03 11.326C10.8971 11.4995 10.7276 11.6415 10.5334 11.7417C10.3393 11.842 10.1254 11.8981 9.907 11.906L9.857 11.904C9.70244 11.9024 9.5499 11.8688 9.40908 11.8051C9.26825 11.7414 9.14222 11.649 9.039 11.534C8.76917 11.1744 8.63303 10.7321 8.654 10.283C8.65473 10.2504 8.66208 10.2182 8.6756 10.1885C8.68912 10.1588 8.70853 10.1322 8.73265 10.1102C8.75678 10.0883 8.78511 10.0714 8.81594 10.0607C8.84677 10.05 8.87945 10.0457 8.912 10.048C8.97737 10.0521 9.03844 10.082 9.08176 10.1312C9.12508 10.1803 9.14711 10.2446 9.143 10.31C9.12888 10.6271 9.21994 10.94 9.402 11.2C9.46229 11.2658 9.53572 11.3182 9.61754 11.3539C9.69936 11.3895 9.78775 11.4076 9.877 11.407C10.0294 11.402 10.1787 11.363 10.3141 11.2927C10.4494 11.2224 10.5672 11.1228 10.659 11.001C10.8435 10.7758 10.9791 10.5146 11.057 10.234C10.9413 10.2865 10.8148 10.3108 10.6879 10.3049C10.561 10.2989 10.4373 10.263 10.327 10.2C10.2133 10.118 10.1322 9.99853 10.098 9.8626C10.0638 9.72668 10.0787 9.58303 10.14 9.457C10.2092 9.28707 10.329 9.14261 10.4833 9.04329C10.6376 8.94397 10.8187 8.89463 11.002 8.902C11.123 8.91456 11.2377 8.9617 11.3326 9.03778C11.4275 9.11386 11.4985 9.21566 11.537 9.331L11.575 9.294C11.5241 8.14048 11.4481 6.9882 11.347 5.838C11.3408 5.77296 11.3606 5.70812 11.402 5.65756C11.4434 5.60701 11.503 5.57482 11.568 5.568C11.6003 5.56512 11.6328 5.56868 11.6637 5.57846C11.6946 5.58824 11.7232 5.60405 11.748 5.62498C11.7727 5.6459 11.793 5.67153 11.8078 5.70037C11.8226 5.72921 11.8315 5.7607 11.834 5.793C11.836 5.814 11.985 7.496 12.05 8.94L12.187 8.846C12.2275 8.81773 12.2756 8.80258 12.325 8.80258C12.3744 8.80258 12.4225 8.81773 12.463 8.846C12.504 8.87483 12.5355 8.91529 12.5533 8.96217C12.5711 9.00905 12.5745 9.06019 12.563 9.109C12.5338 9.21571 12.5338 9.32829 12.563 9.435C12.806 9.408 12.813 9.089 12.813 9.053C12.8076 8.98842 12.828 8.92432 12.8698 8.87481C12.9116 8.82531 12.9714 8.79444 13.036 8.789C13.1006 8.78356 13.1647 8.804 13.2142 8.84582C13.2637 8.88764 13.2946 8.94742 13.3 9.012C13.3123 9.08606 13.338 9.15724 13.376 9.222C13.553 9.112 13.548 8.816 13.548 8.813C13.5453 8.74787 13.5683 8.68429 13.6121 8.63601C13.6559 8.58772 13.7169 8.55862 13.782 8.555C13.8467 8.5541 13.9092 8.5781 13.9567 8.62203C14.0041 8.66596 14.0329 8.72646 14.037 8.791C14.0503 8.96312 14.0165 9.13562 13.9392 9.28997C13.8618 9.44431 13.7439 9.57465 13.598 9.667C13.533 9.70454 13.4598 9.72546 13.3848 9.7279C13.3097 9.73034 13.2353 9.71423 13.168 9.681C13.15 9.67186 13.1326 9.66151 13.116 9.65C13.0567 9.7303 12.9802 9.79637 12.8922 9.84342C12.8041 9.89047 12.7067 9.91732 12.607 9.922C12.5293 9.93088 12.4506 9.92046 12.3779 9.89169C12.3051 9.86291 12.2406 9.81665 12.19 9.757C12.1349 9.6887 12.0962 9.60864 12.077 9.523L12.071 9.527C12.076 9.712 12.079 9.887 12.079 10.047C12.0703 10.5696 11.9385 11.0828 11.6944 11.5449C11.4503 12.0071 11.1007 12.4052 10.674 12.707ZM11.114 9.658C11.1117 9.63757 11.1087 9.61723 11.105 9.597C11.069 9.409 10.986 9.401 10.955 9.398L10.935 9.397C10.8615 9.40393 10.7912 9.43027 10.7313 9.47332C10.6714 9.51637 10.624 9.57459 10.594 9.642C10.586 9.661 10.552 9.755 10.596 9.784C10.659 9.826 10.841 9.821 11.114 9.658ZM8.044 12.074C8.01629 12.0575 7.98558 12.0467 7.95366 12.0422C7.92174 12.0377 7.88925 12.0397 7.85807 12.0478C7.82689 12.056 7.79766 12.0703 7.77206 12.0899C7.74647 12.1095 7.72503 12.134 7.709 12.162C7.69678 12.1829 7.68308 12.203 7.668 12.222L7.66 12.2C7.5913 11.9222 7.59371 11.6316 7.667 11.355C7.68364 11.2918 7.67486 11.2245 7.64252 11.1677C7.61018 11.1109 7.55686 11.069 7.494 11.051C7.46274 11.0427 7.43016 11.0407 7.39812 11.0451C7.36609 11.0495 7.33524 11.0602 7.30735 11.0765C7.27946 11.0929 7.25509 11.1146 7.23563 11.1404C7.21618 11.1663 7.20203 11.1957 7.194 11.227C7.09405 11.6035 7.09681 11.9999 7.202 12.375C7.314 12.679 7.486 12.755 7.612 12.766L7.644 12.768C7.908 12.768 8.083 12.498 8.132 12.412C8.16497 12.3551 8.17423 12.2876 8.15776 12.2239C8.14129 12.1603 8.10042 12.1057 8.044 12.072V12.074ZM12.366 7.463C12.3257 7.41087 12.3075 7.34506 12.3152 7.27964C12.3228 7.21423 12.3558 7.15441 12.407 7.113L13.28 6.416C13.1806 6.33311 13.1102 6.22078 13.0789 6.09523C13.0476 5.96968 13.057 5.83743 13.1058 5.71758C13.1546 5.59774 13.2402 5.49651 13.3503 5.42853C13.4604 5.36056 13.5893 5.32935 13.7183 5.33943C13.8473 5.34951 13.9697 5.40035 14.0679 5.4846C14.1661 5.56885 14.235 5.68215 14.2646 5.80812C14.2942 5.93408 14.2829 6.0662 14.2325 6.18536C14.1821 6.30452 14.095 6.40455 13.984 6.471C13.9728 6.48867 13.9594 6.50481 13.944 6.519L12.71 7.505C12.6672 7.53942 12.6139 7.55813 12.559 7.558C12.5217 7.55804 12.4849 7.54949 12.4514 7.53302C12.4179 7.51655 12.3887 7.49259 12.366 7.463ZM13.547 5.94C13.5476 5.96395 13.5552 5.9872 13.5689 6.00684C13.5826 6.02648 13.6018 6.04165 13.6241 6.05046C13.6464 6.05926 13.6708 6.06131 13.6942 6.05635C13.7177 6.05139 13.7391 6.03964 13.7559 6.02256C13.7727 6.00549 13.7841 5.98384 13.7887 5.96033C13.7933 5.93681 13.7908 5.91247 13.7817 5.89033C13.7725 5.8682 13.757 5.84925 13.7372 5.83585C13.7173 5.82246 13.694 5.8152 13.67 5.815C13.6537 5.81513 13.6376 5.81847 13.6226 5.82482C13.6076 5.83117 13.594 5.84042 13.5826 5.85202C13.5712 5.86363 13.5622 5.87738 13.5561 5.89247C13.5499 5.90757 13.5469 5.92372 13.547 5.94ZM13.38 7.322C13.3494 7.31158 13.3169 7.30738 13.2846 7.30966C13.2524 7.31194 13.2208 7.32065 13.192 7.33528C13.1631 7.3499 13.1374 7.37015 13.1165 7.39483C13.0955 7.41951 13.0797 7.44813 13.07 7.479C13.0232 7.59959 13.0075 7.73 13.0243 7.85826C13.0411 7.98651 13.0898 8.10849 13.166 8.213C13.2138 8.26055 13.2709 8.2977 13.3337 8.32214C13.3965 8.34657 13.4637 8.35776 13.531 8.355C13.6463 8.35255 13.7605 8.33127 13.869 8.292C13.931 8.27039 13.9821 8.22523 14.0111 8.16628C14.0401 8.10734 14.0447 8.03934 14.024 7.977C14.0143 7.94613 13.9985 7.91751 13.9775 7.89283C13.9566 7.86815 13.9309 7.8479 13.902 7.83328C13.8732 7.81865 13.8416 7.80994 13.8094 7.80766C13.7771 7.80538 13.7446 7.80958 13.714 7.82C13.6493 7.84248 13.5822 7.85692 13.514 7.863C13.5029 7.78674 13.5101 7.70892 13.535 7.636C13.5554 7.57379 13.5506 7.50605 13.5217 7.44733C13.4927 7.38861 13.4418 7.34361 13.38 7.322ZM16.18 6.292C16.2027 6.29876 16.2263 6.30213 16.25 6.302C16.3031 6.30158 16.3547 6.28389 16.3969 6.2516C16.4391 6.21931 16.4697 6.17418 16.484 6.123L16.627 5.625C16.6451 5.56202 16.6377 5.49446 16.6065 5.43685C16.5752 5.37925 16.5226 5.33621 16.46 5.317C16.429 5.30802 16.3965 5.30527 16.3645 5.30892C16.3324 5.31257 16.3014 5.32255 16.2732 5.33826C16.2451 5.35398 16.2203 5.37513 16.2003 5.40049C16.1804 5.42585 16.1656 5.45491 16.157 5.486L16.014 5.984C15.9956 6.04699 16.0027 6.11469 16.0337 6.1725C16.0648 6.23031 16.1173 6.27359 16.18 6.293V6.292ZM14.754 6.263C14.7912 6.28523 14.8337 6.29697 14.877 6.297C14.92 6.29702 14.9623 6.28565 14.9996 6.26405C15.0368 6.24245 15.0677 6.21138 15.089 6.174C15.1217 6.11708 15.1308 6.0496 15.1144 5.98605C15.0979 5.92249 15.0572 5.86791 15.001 5.834C14.952 5.804 14.959 5.722 14.961 5.706C14.9627 5.67062 14.9741 5.63637 14.9938 5.60695C15.0135 5.57753 15.0409 5.55404 15.073 5.539C15.135 5.51838 15.1865 5.47427 15.2164 5.41614C15.2463 5.358 15.2523 5.29047 15.233 5.228C15.2238 5.19703 15.2086 5.16818 15.1883 5.14313C15.1679 5.11808 15.1427 5.09733 15.1143 5.08208C15.0858 5.06682 15.0546 5.05737 15.0224 5.05426C14.9903 5.05116 14.9579 5.05447 14.927 5.064C14.8031 5.10748 14.6945 5.18583 14.6141 5.28961C14.5338 5.3934 14.4851 5.5182 14.474 5.649C14.4561 5.76747 14.4731 5.88858 14.5228 5.99759C14.5725 6.1066 14.6528 6.19881 14.754 6.263ZM12.814 11.043C12.8119 11.0764 12.8166 11.1099 12.8279 11.1415C12.8392 11.173 12.8569 11.2018 12.8798 11.2263C12.9027 11.2507 12.9304 11.2702 12.9611 11.2835C12.9919 11.2968 13.025 11.3036 13.0585 11.3036C13.092 11.3036 13.1251 11.2968 13.1559 11.2835C13.1866 11.2702 13.2143 11.2507 13.2372 11.2263C13.2601 11.2018 13.2778 11.173 13.2891 11.1415C13.3004 11.1099 13.3051 11.0764 13.303 11.043C13.303 10.305 12.833 10.296 12.813 10.296C12.7521 10.2979 12.694 10.322 12.6496 10.3638C12.6052 10.4055 12.5776 10.462 12.572 10.5227C12.5663 10.5834 12.583 10.644 12.6189 10.6932C12.6548 10.7425 12.7075 10.7769 12.767 10.79C12.8054 10.8685 12.8213 10.956 12.813 11.043H12.814ZM16.964 9.266C16.9944 9.27088 17.0252 9.27322 17.056 9.273C17.1673 9.26543 17.276 9.23549 17.3754 9.18497C17.4749 9.13446 17.5632 9.06441 17.635 8.979C17.6809 8.93193 17.7066 8.86877 17.7066 8.803C17.7066 8.73723 17.6809 8.67407 17.635 8.627C17.6125 8.60396 17.5856 8.58565 17.5558 8.57316C17.5261 8.56066 17.4942 8.55422 17.462 8.55422C17.4298 8.55422 17.3979 8.56066 17.3682 8.57316C17.3384 8.58565 17.3115 8.60396 17.289 8.627C17.143 8.776 17.064 8.779 17.044 8.774C16.997 8.767 16.954 8.705 16.945 8.688C16.9308 8.65943 16.911 8.63395 16.8869 8.61304C16.8628 8.59212 16.8348 8.57619 16.8045 8.56615C16.7742 8.55611 16.7422 8.55217 16.7104 8.55455C16.6785 8.55692 16.6475 8.56557 16.619 8.58C16.5606 8.61017 16.5163 8.66206 16.4957 8.72452C16.4752 8.78698 16.4799 8.85502 16.509 8.914C16.5536 9.00303 16.6176 9.0809 16.6964 9.14183C16.7752 9.20276 16.8666 9.2452 16.964 9.266ZM21.174 7.447C21.1587 7.47093 21.142 7.49397 21.124 7.516L21.119 7.505C21.1092 7.47433 21.0933 7.44593 21.0724 7.42144C21.0515 7.39695 21.0259 7.37686 20.9971 7.36234C20.9684 7.34783 20.937 7.33917 20.9049 7.33688C20.8728 7.33459 20.8405 7.33871 20.81 7.349C20.748 7.37061 20.6969 7.41577 20.6679 7.47472C20.6389 7.53366 20.6343 7.60166 20.655 7.664C20.675 7.723 20.783 8.015 21.053 8.052C21.0709 8.05454 21.0889 8.05588 21.107 8.056C21.2074 8.04504 21.3035 8.00886 21.3862 7.95081C21.4689 7.89276 21.5356 7.81474 21.58 7.724C21.6163 7.66901 21.6296 7.60201 21.617 7.53734C21.6045 7.47267 21.5672 7.41547 21.513 7.378C21.4862 7.35981 21.4561 7.34718 21.4243 7.34085C21.3926 7.33452 21.3599 7.33462 21.3282 7.34115C21.2965 7.34767 21.2664 7.36049 21.2398 7.37885C21.2131 7.3972 21.1904 7.42072 21.173 7.448L21.174 7.447ZM14.281 6.562C14.2486 6.56226 14.2166 6.56892 14.1868 6.58158C14.157 6.59425 14.1299 6.61268 14.1073 6.63582C14.0846 6.65895 14.0667 6.68634 14.0547 6.7164C14.0426 6.74646 14.0366 6.77861 14.037 6.811C14.037 7.385 14.229 8.056 14.771 8.056C15.174 8.056 15.338 7.608 15.474 7.192C15.476 7.50817 15.5729 7.81646 15.752 8.077C15.8111 8.14878 15.8855 8.20642 15.9698 8.2457C16.054 8.28498 16.146 8.3049 16.239 8.304C16.3816 8.30705 16.523 8.27704 16.6521 8.21631C16.7812 8.15559 16.8944 8.06581 16.983 7.954C17.0163 7.91021 17.0463 7.8641 17.073 7.816C17.1909 8.00491 17.3736 8.14431 17.587 8.208C17.6432 8.22251 17.701 8.2299 17.759 8.23C17.9602 8.22528 18.1515 8.142 18.292 7.998C18.3222 7.96713 18.3497 7.93367 18.374 7.898C18.4324 7.91574 18.493 7.92516 18.554 7.926C18.7348 7.92099 18.9106 7.86595 19.062 7.767C19.1164 7.73084 19.1546 7.67488 19.1684 7.61102C19.1822 7.54716 19.1706 7.48042 19.136 7.425C19.1191 7.39759 19.097 7.3738 19.0709 7.35501C19.0448 7.33622 19.0152 7.32281 18.9838 7.31555C18.9525 7.3083 18.92 7.30734 18.8882 7.31274C18.8565 7.31814 18.8262 7.32978 18.799 7.347C18.7156 7.39754 18.6195 7.42322 18.522 7.421C18.5049 7.14014 18.4424 6.8639 18.337 6.603C18.2861 6.4671 18.2437 6.32817 18.21 6.187C18.23 6.204 18.25 6.222 18.268 6.24C18.2933 6.26865 18.3253 6.29056 18.3611 6.30375C18.397 6.31693 18.4356 6.32098 18.4734 6.31552C18.5112 6.31006 18.547 6.29527 18.5777 6.27248C18.6084 6.2497 18.6329 6.21963 18.649 6.185C18.903 6.541 19.425 7.288 19.961 8.149C20.064 9.207 20.153 10.558 20.153 12.039C20.153 12.104 20.1788 12.1663 20.2248 12.2122C20.2707 12.2582 20.333 12.284 20.398 12.284C20.463 12.284 20.5253 12.2582 20.5712 12.2122C20.6172 12.1663 20.643 12.104 20.643 12.039C20.6418 11.0613 20.6051 10.084 20.533 9.109C20.8652 9.67684 21.1527 10.2696 21.393 10.882C21.4039 10.9123 21.4207 10.9401 21.4425 10.9638C21.4642 10.9875 21.4905 11.0066 21.5197 11.0201C21.5489 11.0336 21.5805 11.0412 21.6127 11.0423C21.6448 11.0435 21.6769 11.0383 21.707 11.027C21.7682 11.0033 21.8176 10.9564 21.8446 10.8965C21.8715 10.8366 21.8738 10.7686 21.851 10.707C21.4648 9.7555 20.9911 8.84192 20.436 7.978C20.302 6.637 20.152 5.786 20.149 5.771C20.1438 5.73906 20.1323 5.70849 20.1151 5.68106C20.098 5.65363 20.0755 5.62991 20.0491 5.61128C20.0226 5.59265 19.9927 5.57949 19.9611 5.57257C19.9295 5.56566 19.8968 5.56512 19.865 5.571C19.801 5.58362 19.7445 5.62086 19.7076 5.67472C19.6708 5.72858 19.6565 5.79476 19.668 5.859C19.67 5.87 19.747 6.309 19.839 7.047C19.651 6.763 19.477 6.507 19.33 6.297L19.342 6.3C19.3726 6.31042 19.4051 6.31462 19.4374 6.31234C19.4696 6.31006 19.5012 6.30135 19.53 6.28672C19.5589 6.2721 19.5846 6.25185 19.6055 6.22717C19.6265 6.20249 19.6423 6.17387 19.652 6.143C19.6727 6.08066 19.6681 6.01266 19.6391 5.95372C19.6101 5.89477 19.559 5.84961 19.497 5.828L18.763 5.578C18.7134 5.56107 18.6596 5.56079 18.6097 5.57722C18.5599 5.59364 18.5168 5.62587 18.487 5.669C18.4707 5.69245 18.4586 5.71849 18.451 5.746C18.3843 5.6824 18.3022 5.63739 18.2127 5.61546C18.1232 5.59353 18.0295 5.59544 17.941 5.621C17.8601 5.66053 17.7938 5.72473 17.7518 5.80435C17.7097 5.88397 17.694 5.97489 17.707 6.064C17.7254 6.3065 17.7825 6.54451 17.876 6.769C18.02 7.184 18.11 7.489 17.957 7.635C17.9269 7.67068 17.888 7.69779 17.8441 7.7136C17.8002 7.7294 17.7529 7.73333 17.707 7.725C17.556 7.686 17.407 7.482 17.307 7.178C17.3013 7.16612 17.2946 7.15475 17.287 7.144C17.3366 6.68368 17.3116 6.21837 17.213 5.766C17.2071 5.73417 17.195 5.70382 17.1773 5.67672C17.1596 5.64963 17.1366 5.62633 17.1098 5.60818C17.083 5.59003 17.0529 5.5774 17.0212 5.57101C16.9894 5.56463 16.9567 5.56463 16.925 5.571C16.8609 5.58471 16.8047 5.62317 16.7688 5.67803C16.7328 5.73289 16.72 5.79972 16.733 5.864C16.9184 6.44999 16.8726 7.0847 16.605 7.638C16.5621 7.69355 16.5064 7.73792 16.4427 7.76734C16.379 7.79676 16.3091 7.81037 16.239 7.807C16.2164 7.8078 16.194 7.80312 16.1736 7.79337C16.1533 7.78362 16.1355 7.76908 16.122 7.751C15.9415 7.30632 15.8963 6.81827 15.992 6.348C15.9968 6.31277 15.9942 6.27692 15.9842 6.24279C15.9742 6.20867 15.9571 6.17704 15.934 6.15C15.9112 6.12311 15.8829 6.10149 15.851 6.08665C15.819 6.0718 15.7842 6.06407 15.749 6.064C15.329 6.064 15.169 6.551 15.028 6.981C14.966 7.17 14.851 7.521 14.771 7.558C14.623 7.558 14.527 7.115 14.526 6.811C14.5263 6.77856 14.5201 6.74639 14.508 6.71632C14.4958 6.68626 14.4778 6.65888 14.4551 6.63576C14.4323 6.61263 14.4052 6.59422 14.3754 6.58156C14.3455 6.56891 14.3134 6.56226 14.281 6.562ZM20.887 6.562C20.887 6.62698 20.9128 6.68929 20.9588 6.73524C21.0047 6.78119 21.067 6.807 21.132 6.807C21.197 6.807 21.2593 6.78119 21.3052 6.73524C21.3512 6.68929 21.377 6.62698 21.377 6.562C21.3381 6.26235 21.2467 5.9719 21.107 5.704C21.093 5.67479 21.0734 5.64866 21.0492 5.62716C21.025 5.60565 20.9967 5.5892 20.9661 5.57876C20.9354 5.56833 20.903 5.56413 20.8707 5.5664C20.8384 5.56867 20.8069 5.57738 20.778 5.592C20.7196 5.62217 20.6753 5.67406 20.6547 5.73652C20.6342 5.79898 20.6389 5.86702 20.668 5.926C20.773 6.12569 20.8472 6.34012 20.888 6.562H20.887ZM19.301 11.577C19.2543 11.548 19.199 11.5359 19.1445 11.5426C19.0899 11.5494 19.0393 11.5745 19.001 11.614L18.513 12.112C18.4671 12.1591 18.4414 12.2222 18.4414 12.288C18.4414 12.3538 18.4671 12.4169 18.513 12.464C18.5355 12.4869 18.5624 12.5051 18.592 12.5175C18.6216 12.5299 18.6534 12.5363 18.6855 12.5363C18.7176 12.5363 18.7494 12.5299 18.779 12.5175C18.8086 12.5051 18.8355 12.4869 18.858 12.464L18.871 12.451C18.8883 12.549 18.9334 12.64 19.001 12.713C19.0417 12.7572 19.091 12.7926 19.1458 12.8172C19.2007 12.8418 19.2599 12.855 19.32 12.856C19.3425 12.8558 19.3649 12.8537 19.387 12.85C19.664 12.805 19.837 12.494 19.883 12.4C19.9124 12.3412 19.9175 12.2731 19.8971 12.2106C19.8767 12.1481 19.8324 12.0961 19.774 12.066C19.7453 12.0513 19.714 12.0425 19.6818 12.0401C19.6497 12.0377 19.6174 12.0418 19.5869 12.052C19.5563 12.0623 19.5281 12.0785 19.5039 12.0998C19.4797 12.1211 19.46 12.147 19.446 12.176C19.4184 12.2294 19.3841 12.2792 19.344 12.324C19.3402 12.1681 19.3621 12.0127 19.409 11.864C19.4252 11.811 19.4235 11.754 19.4039 11.7021C19.3844 11.6502 19.3482 11.6062 19.301 11.577ZM19.91 10.395L19.665 11.095C19.6488 11.1426 19.6183 11.1841 19.5777 11.2138C19.5371 11.2435 19.4883 11.26 19.438 11.261C18.581 11.275 17.608 11.504 17.583 11.811C17.5738 11.8681 17.5761 11.9264 17.5898 11.9826C17.6036 12.0388 17.6285 12.0916 17.663 12.138C17.7453 12.221 17.853 12.2738 17.969 12.288C18.0313 12.2954 18.0886 12.326 18.1294 12.3736C18.1703 12.4213 18.1917 12.4826 18.1894 12.5453C18.1871 12.608 18.1614 12.6676 18.1172 12.7122C18.073 12.7568 18.0137 12.7831 17.951 12.786C17.2575 12.7892 16.5889 12.5282 16.081 12.056C16.0188 11.982 15.9642 11.9019 15.918 11.817C15.7728 12.1436 15.5458 12.4272 15.2591 12.6405C14.9724 12.8539 14.6355 12.9897 14.281 13.035C13.782 13.035 13.521 12.643 13.397 12.216C12.9262 12.51 12.4383 12.7758 11.936 13.012C11.9041 13.0271 11.8693 13.035 11.834 13.035C11.7869 13.0346 11.7409 13.0206 11.7015 12.9947C11.6621 12.9688 11.631 12.9321 11.612 12.889C11.5847 12.8291 11.5821 12.7609 11.6047 12.6991C11.6274 12.6374 11.6735 12.587 11.733 12.559C12.2776 12.3043 12.8036 12.0116 13.307 11.683C13.304 11.6357 13.3023 11.5884 13.302 11.541C13.3017 11.5086 13.3079 11.4764 13.32 11.4463C13.3322 11.4163 13.3502 11.3889 13.3729 11.3658C13.3957 11.3426 13.4228 11.3242 13.4526 11.3116C13.4825 11.2989 13.5146 11.2923 13.547 11.292C13.5827 11.2926 13.6179 11.3012 13.6499 11.3171C13.6819 11.333 13.71 11.3559 13.732 11.384C14.0813 11.1689 14.3598 10.8559 14.533 10.484C14.6092 10.1345 14.5604 9.76924 14.395 9.452C14.3313 9.32738 14.2925 9.19149 14.281 9.052C14.268 8.96289 14.2837 8.87197 14.3258 8.79235C14.3678 8.71273 14.4341 8.64853 14.515 8.609C14.767 8.501 15.045 8.729 15.188 8.875C15.2339 8.92207 15.2596 8.98523 15.2596 9.051C15.2596 9.11677 15.2339 9.17993 15.188 9.227C15.1655 9.25004 15.1386 9.26835 15.1088 9.28084C15.0791 9.29334 15.0472 9.29978 15.015 9.29978C14.9828 9.29978 14.9509 9.29334 14.9212 9.28084C14.8914 9.26835 14.8645 9.25004 14.842 9.227L14.827 9.213L14.845 9.256C15.0545 9.6734 15.1122 10.1507 15.008 10.606C14.7661 11.1589 14.3546 11.6205 13.833 11.924C13.886 12.204 14.006 12.537 14.281 12.537C14.7171 12.4239 15.1011 12.1642 15.3684 11.8014C15.6357 11.4387 15.7701 10.9951 15.749 10.545C15.7668 9.89851 15.6122 9.25893 15.301 8.692C15.2648 8.63689 15.2517 8.56981 15.2644 8.50513C15.2771 8.44044 15.3147 8.38332 15.369 8.346C15.3958 8.32781 15.4259 8.31518 15.4577 8.30885C15.4894 8.30252 15.5221 8.30262 15.5538 8.30915C15.5855 8.31567 15.6156 8.32849 15.6422 8.34685C15.6689 8.3652 15.6916 8.38872 15.709 8.416C15.9998 8.92275 16.173 9.48833 16.216 10.071C16.6188 9.73506 17.1082 9.51948 17.628 9.449C17.851 8.839 18.16 8.458 18.508 8.386C18.6261 8.36376 18.7482 8.3774 18.8586 8.42516C18.9689 8.47293 19.0624 8.55263 19.127 8.654C19.1904 8.73093 19.2323 8.82326 19.2484 8.92161C19.2646 9.01996 19.2544 9.12084 19.219 9.214C19.099 9.514 18.689 9.74 18.002 9.886C17.986 9.942 17.9703 10.001 17.955 10.063H19.679C19.7185 10.063 19.7573 10.0727 19.7922 10.0912C19.827 10.1097 19.8568 10.1364 19.879 10.169C19.9014 10.2017 19.9158 10.2391 19.921 10.2784C19.9262 10.3177 19.9231 10.3576 19.91 10.395ZM18.216 9.318C18.568 9.213 18.737 9.096 18.766 9.026C18.773 9.006 18.743 8.964 18.734 8.951C18.684 8.883 18.647 8.871 18.624 8.871L18.605 8.874C18.522 8.891 18.371 9.011 18.216 9.318ZM17.613 11.12C17.549 10.852 16.629 10.714 16.284 10.746C16.2646 10.7796 16.2479 10.8147 16.234 10.851C16.2042 11.0042 16.2081 11.162 16.2456 11.3135C16.2831 11.465 16.3532 11.6064 16.451 11.728C16.6346 11.9263 16.8686 12.0711 17.128 12.147C17.095 12.0242 17.0841 11.8966 17.096 11.77C17.1178 11.6259 17.177 11.49 17.2677 11.376C17.3584 11.2619 17.4775 11.1736 17.613 11.12ZM22.111 11.292C22.111 11.637 21.508 12.317 20.533 12.812C20.4746 12.8421 20.4303 12.8941 20.4099 12.9566C20.3895 13.0191 20.3946 13.0872 20.424 13.146C20.4379 13.1752 20.4574 13.2013 20.4815 13.2228C20.5056 13.2443 20.5338 13.2607 20.5644 13.2712C20.595 13.2816 20.6273 13.2858 20.6595 13.2836C20.6917 13.2813 20.7232 13.2726 20.752 13.258C21.642 12.805 22.6 11.997 22.6 11.292C22.6 10.924 22.35 8.278 22.207 6.791C22.264 6.76582 22.3095 6.72029 22.3346 6.66333C22.3598 6.60636 22.3628 6.54205 22.343 6.483L22.098 5.736C22.0795 5.67847 22.0403 5.62986 21.988 5.59956C21.9358 5.56926 21.8741 5.55944 21.815 5.572C21.7557 5.58539 21.7034 5.62007 21.668 5.66948C21.6326 5.71888 21.6166 5.77956 21.623 5.84C21.792 7.558 22.111 10.908 22.111 11.292ZM24.385 8.73C24.4225 8.76851 24.4718 8.79336 24.5251 8.80061C24.5784 8.80786 24.6326 8.79708 24.679 8.77C24.7258 8.74245 24.7624 8.70046 24.7833 8.65034C24.8043 8.60021 24.8083 8.54465 24.795 8.492C24.7523 8.33477 24.7401 8.17082 24.759 8.009C24.8207 8.00834 24.8801 7.98485 24.9255 7.94305C24.971 7.90126 24.9994 7.84412 25.0052 7.78265C25.011 7.72117 24.9939 7.65971 24.9571 7.61011C24.9204 7.56051 24.8665 7.52627 24.806 7.514C24.7326 7.50071 24.6571 7.50642 24.5865 7.53057C24.516 7.55473 24.4528 7.59653 24.403 7.652C24.3395 7.72881 24.2971 7.82083 24.28 7.919L23.997 7.631C23.9745 7.60796 23.9476 7.58965 23.9178 7.57716C23.8881 7.56466 23.8562 7.55822 23.824 7.55822C23.7918 7.55822 23.7599 7.56466 23.7302 7.57716C23.7004 7.58965 23.6735 7.60796 23.651 7.631C23.6051 7.67807 23.5794 7.74123 23.5794 7.807C23.5794 7.87277 23.6051 7.93593 23.651 7.983L24.385 8.73ZM24.935 8.99L24.017 9.659C23.9643 9.69815 23.929 9.75632 23.9185 9.82113C23.9081 9.88593 23.9233 9.95226 23.961 10.006C23.9835 10.0382 24.0134 10.0645 24.0482 10.0826C24.083 10.1007 24.1217 10.1101 24.161 10.11C24.2121 10.1099 24.2619 10.0934 24.303 10.063L25.22 9.394C25.2727 9.35485 25.308 9.29668 25.3185 9.23188C25.3289 9.16707 25.3137 9.10074 25.276 9.047C25.2577 9.02041 25.2343 8.99776 25.2071 8.98039C25.18 8.96302 25.1496 8.95128 25.1178 8.94587C25.086 8.94047 25.0534 8.9415 25.022 8.9489C24.9906 8.95631 24.961 8.97095 24.935 8.99ZM25.161 10.872H25.169C25.233 10.8715 25.2942 10.8462 25.3399 10.8015C25.3856 10.7567 25.4122 10.6959 25.414 10.632C25.432 10.124 25.268 9.938 25.197 9.882C25.1717 9.86204 25.1427 9.84733 25.1117 9.83873C25.0806 9.83013 25.0482 9.82781 25.0163 9.83191C24.9843 9.836 24.9535 9.84644 24.9256 9.86259C24.8978 9.87875 24.8734 9.90031 24.854 9.926C24.8171 9.97429 24.7989 10.0343 24.8028 10.0949C24.8067 10.1556 24.8323 10.2128 24.875 10.256C24.9227 10.3689 24.94 10.4923 24.925 10.614C24.9235 10.6464 24.9285 10.6789 24.9395 10.7094C24.9506 10.7399 24.9676 10.768 24.9895 10.7919C25.0114 10.8159 25.0378 10.8353 25.0673 10.8491C25.0967 10.8628 25.1286 10.8706 25.161 10.872ZM26.989 11.759C27.0214 11.7587 27.0535 11.7521 27.0834 11.7394C27.1132 11.7268 27.1403 11.7084 27.1631 11.6852C27.1858 11.6621 27.2038 11.6347 27.216 11.6047C27.2281 11.5746 27.2343 11.5424 27.234 11.51C27.234 11.143 27.215 10.733 27.184 10.306C27.3994 10.6541 27.5912 11.0162 27.758 11.39C27.7764 11.4346 27.8076 11.4727 27.8476 11.4996C27.8877 11.5265 27.9348 11.5409 27.983 11.541C28.016 11.5411 28.0487 11.5343 28.079 11.521C28.1392 11.4944 28.1865 11.4452 28.2107 11.384C28.2348 11.3228 28.2339 11.2545 28.208 11.194C27.8892 10.5097 27.5146 9.85283 27.088 9.23C26.9999 8.41073 26.8935 7.59353 26.769 6.779C26.823 6.7842 26.8771 6.77041 26.922 6.74C26.9585 6.71558 26.9879 6.68186 27.0071 6.64231C27.0262 6.60276 27.0345 6.55881 27.031 6.515C27.0362 6.54027 27.0453 6.56456 27.058 6.587C27.157 6.77402 27.1884 6.98948 27.147 7.197C27.1336 7.26115 27.1461 7.32799 27.1816 7.38302C27.2172 7.43806 27.273 7.47686 27.337 7.491C27.3535 7.49432 27.3702 7.49599 27.387 7.496C27.4437 7.49543 27.4984 7.47532 27.5419 7.43906C27.5855 7.4028 27.6152 7.35262 27.626 7.297C27.6921 6.96282 27.6367 6.61604 27.47 6.319C27.453 6.29175 27.4307 6.26815 27.4045 6.24956C27.3783 6.23096 27.3487 6.21775 27.3174 6.21068C27.286 6.20362 27.2536 6.20283 27.2219 6.20838C27.1903 6.21393 27.1601 6.22569 27.133 6.243C27.0963 6.26737 27.0668 6.30105 27.0475 6.34059C27.0282 6.38014 27.0197 6.42411 27.023 6.468C27.0179 6.44272 27.0088 6.41841 26.996 6.396L26.583 5.743C26.5529 5.69495 26.5069 5.65894 26.453 5.64123C26.3991 5.62351 26.3408 5.6252 26.288 5.646C26.235 5.66754 26.1911 5.70659 26.1634 5.75664C26.1357 5.80668 26.1261 5.86469 26.136 5.921C26.139 5.941 26.326 7.033 26.492 8.349C26.3087 8.08602 26.123 7.82467 25.935 7.565C25.905 7.188 25.875 6.84 25.85 6.552C25.8638 6.54785 25.8772 6.54249 25.89 6.536C25.9484 6.50583 25.9927 6.45394 26.0133 6.39148C26.0338 6.32902 26.0291 6.26098 26 6.202L25.755 5.704C25.7301 5.65214 25.6875 5.6108 25.635 5.58736C25.5824 5.56392 25.5232 5.5599 25.468 5.576C25.4126 5.59284 25.3648 5.62836 25.3328 5.6765C25.3007 5.72464 25.2863 5.78243 25.292 5.84C25.322 6.137 25.352 6.466 25.382 6.812C25.2429 6.62496 25.1029 6.43863 24.962 6.253C24.9866 6.23149 25.0066 6.20531 25.021 6.176C25.0501 6.11702 25.0548 6.04898 25.0343 5.98652C25.0137 5.92406 24.9694 5.87217 24.911 5.842L24.422 5.592C24.372 5.56669 24.3147 5.55953 24.26 5.57175C24.2053 5.58397 24.1565 5.61481 24.122 5.659C24.0871 5.70352 24.0682 5.75845 24.0682 5.815C24.0682 5.87155 24.0871 5.92648 24.122 5.971C24.135 5.988 24.737 6.756 25.458 7.748C25.6012 8.981 25.6313 10.2245 25.548 11.463C25.527 11.528 25.489 11.606 25.454 11.608C25.306 11.629 24.954 11.293 24.776 10.932C24.7519 10.8648 24.7072 10.8069 24.6483 10.7665C24.5895 10.7261 24.5194 10.7053 24.448 10.707C24.185 10.723 24.083 11.017 23.896 11.552C23.7932 11.9277 23.629 12.2839 23.41 12.606C23.2505 12.3003 23.1475 11.9683 23.106 11.626C23.1222 11.6738 23.1528 11.7153 23.1937 11.7449C23.2345 11.7744 23.2836 11.7906 23.334 11.791C23.3665 11.7907 23.3987 11.7841 23.4286 11.7713C23.4585 11.7586 23.4857 11.7401 23.5084 11.7169C23.5312 11.6937 23.5491 11.6662 23.5613 11.636C23.5734 11.6058 23.5794 11.5735 23.579 11.541C23.579 11.171 23.323 8.343 23.181 6.793C23.2391 6.76852 23.2859 6.72297 23.3118 6.66548C23.3378 6.60799 23.3411 6.5428 23.321 6.483L23.077 5.737C23.0587 5.67929 23.0196 5.63044 22.9673 5.59995C22.915 5.56945 22.8532 5.55949 22.794 5.572C22.7348 5.58536 22.6826 5.61986 22.647 5.66902C22.6115 5.71818 22.5951 5.77862 22.601 5.839C22.767 7.615 23.079 11.045 23.089 11.519L23.087 11.506C23.0824 11.4742 23.0716 11.4435 23.0551 11.4159C23.0387 11.3882 23.017 11.364 22.9912 11.3448C22.9655 11.3255 22.9361 11.3115 22.905 11.3036C22.8738 11.2956 22.8413 11.2939 22.8095 11.2985C22.7777 11.3031 22.747 11.3139 22.7194 11.3304C22.6917 11.3468 22.6675 11.3685 22.6483 11.3943C22.629 11.42 22.615 11.4494 22.6071 11.4805C22.5991 11.5117 22.5974 11.5442 22.602 11.576C22.674 12.086 22.856 12.961 23.277 13.103C23.3188 13.1174 23.3628 13.1249 23.407 13.125C23.4726 13.123 23.5371 13.1075 23.5965 13.0795C23.6559 13.0515 23.7088 13.0115 23.752 12.962C24.0322 12.5902 24.238 12.1678 24.358 11.718C24.393 11.615 24.436 11.493 24.476 11.388C24.701 11.722 25.092 12.138 25.489 12.105C25.6166 12.0905 25.7362 12.0356 25.8305 11.9484C25.9248 11.8612 25.9887 11.7461 26.013 11.62C26.1229 10.5867 26.1195 9.54454 26.003 8.512C26.21 8.806 26.416 9.107 26.613 9.404C26.689 10.15 26.744 10.897 26.744 11.51C26.7436 11.5425 26.7496 11.5748 26.7617 11.605C26.7739 11.6352 26.7918 11.6627 26.8146 11.6859C26.8373 11.7091 26.8645 11.7276 26.8944 11.7403C26.9243 11.7531 26.9565 11.7597 26.989 11.76V11.759ZM28.846 10.449C28.6748 9.18967 28.4854 7.93288 28.278 6.679C28.3133 6.68788 28.3501 6.68853 28.3856 6.6809C28.4212 6.67327 28.4545 6.65757 28.483 6.635C28.5347 6.59434 28.5684 6.53507 28.577 6.46986C28.5856 6.40465 28.5684 6.33867 28.529 6.286L28.086 5.696C28.0534 5.65156 28.0065 5.61961 27.9532 5.60542C27.8999 5.59124 27.8434 5.59568 27.793 5.618C27.7425 5.6409 27.701 5.67996 27.6751 5.72902C27.6492 5.77809 27.6404 5.83437 27.65 5.889C27.654 5.914 28.09 8.47 28.36 10.516C28.4266 10.8382 28.4253 11.1708 28.3561 11.4924C28.2868 11.8141 28.1513 12.1177 27.958 12.384C27.8451 12.5066 27.7051 12.6011 27.5492 12.6602C27.3933 12.7192 27.2258 12.741 27.06 12.724C26.9949 12.7213 26.9313 12.7443 26.8829 12.7881C26.8345 12.8318 26.8052 12.8927 26.8013 12.9578C26.7974 13.0229 26.8191 13.0869 26.8619 13.1361C26.9047 13.1853 26.965 13.2158 27.03 13.221C27.07 13.224 27.111 13.225 27.152 13.225C27.3706 13.2293 27.5876 13.1867 27.7884 13.1001C27.9892 13.0135 28.1691 12.8849 28.316 12.723C28.5617 12.404 28.7361 12.0361 28.8276 11.644C28.919 11.2519 28.9253 10.8437 28.846 10.449ZM26.493 12.069C26.4693 12.0482 26.4417 12.0322 26.4119 12.022C26.382 12.0118 26.3504 12.0077 26.3189 12.0097C26.2875 12.0117 26.2567 12.02 26.2284 12.0339C26.2001 12.0479 26.1748 12.0673 26.154 12.091C26.1109 12.1398 26.0882 12.2033 26.0904 12.2684C26.0926 12.3335 26.1197 12.3952 26.166 12.441C26.1807 12.4548 26.1911 12.4725 26.196 12.492C26.1891 12.514 26.1759 12.5335 26.158 12.548C26.1121 12.5951 26.0864 12.6582 26.0864 12.724C26.0864 12.7898 26.1121 12.8529 26.158 12.9C26.1806 12.9232 26.2075 12.9416 26.2373 12.9542C26.2671 12.9668 26.2991 12.9733 26.3315 12.9733C26.3638 12.9733 26.3959 12.9668 26.4257 12.9542C26.4555 12.9416 26.4824 12.9232 26.505 12.9C26.563 12.8456 26.6089 12.7797 26.6399 12.7065C26.6709 12.6333 26.6863 12.5545 26.685 12.475C26.6761 12.3202 26.6073 12.1739 26.493 12.069ZM26.026 18.297C26.0276 18.4934 25.9512 18.6823 25.8136 18.8224C25.6759 18.9624 25.4884 19.0422 25.292 19.044H23.334C23.2687 19.0432 23.2063 19.0166 23.1606 18.9699C23.1148 18.9232 23.0895 18.8603 23.09 18.795V18.298H12.324C11.5247 18.3174 10.7445 18.0527 10.122 17.551H23.09V17.301C23.0879 17.2676 23.0926 17.2341 23.1039 17.2025C23.1152 17.171 23.1329 17.1422 23.1558 17.1177C23.1787 17.0933 23.2064 17.0738 23.2371 17.0605C23.2679 17.0472 23.301 17.0404 23.3345 17.0404C23.368 17.0404 23.4011 17.0472 23.4319 17.0605C23.4626 17.0738 23.4903 17.0933 23.5132 17.1177C23.5361 17.1422 23.5538 17.171 23.5651 17.2025C23.5764 17.2341 23.5811 17.2676 23.579 17.301V17.551H25.292C25.4882 17.5528 25.6756 17.6324 25.8132 17.7723C25.9508 17.9121 26.0273 18.1008 26.026 18.297ZM25.536 18.297C25.5348 18.249 25.5195 18.2024 25.492 18.163L25.536 18.297H23.58V18.547H25.293C25.3254 18.5466 25.3575 18.5398 25.3873 18.5271C25.4171 18.5143 25.4441 18.4958 25.4668 18.4725C25.4894 18.4493 25.5073 18.4219 25.5194 18.3918C25.5314 18.3616 25.5374 18.3294 25.537 18.297H25.536Z"
		fill="#F5F5F5"
	/>
</svg>
