<svg viewBox="0 0 36 24" fill="none" xmlns="http://www.w3.org/2000/svg">
	<path d="M36 8H0V0H36V8Z" fill="#FF4B55" />
	<path d="M36 24H0V16H36V24Z" fill="#464655" />
	<path d="M0 8H36V16H0V8Z" fill="#F5F5F5" />
	<path
		d="M12.831 11.658L11.515 12.647L12.009 14.233C12.0238 14.2773 12.0242 14.3251 12.0102 14.3696C11.9962 14.4141 11.9684 14.4531 11.9308 14.4808C11.8933 14.5086 11.848 14.5237 11.8013 14.5241C11.7546 14.5245 11.709 14.5101 11.671 14.483L10.34 13.516L9.01 14.484C8.97203 14.5115 8.92628 14.5263 8.87937 14.5261C8.83247 14.5259 8.78684 14.5108 8.74908 14.483C8.71133 14.4551 8.68342 14.416 8.66938 14.3712C8.65534 14.3265 8.65591 14.2784 8.671 14.234L9.164 12.647L7.849 11.657C7.81199 11.6289 7.78461 11.59 7.77061 11.5456C7.75662 11.5013 7.75669 11.4537 7.77083 11.4094C7.78497 11.3652 7.81248 11.3263 7.84958 11.2983C7.88668 11.2703 7.93154 11.2545 7.978 11.253L9.613 11.24L10.131 9.661C10.1455 9.61699 10.1735 9.57866 10.211 9.55149C10.2485 9.52432 10.2937 9.5097 10.34 9.5097C10.3863 9.5097 10.4315 9.52432 10.469 9.55149C10.5065 9.57866 10.5345 9.61699 10.549 9.661L11.066 11.241L12.702 11.253C12.7488 11.254 12.7941 11.2696 12.8316 11.2976C12.8691 11.3256 12.897 11.3646 12.9113 11.4092C12.9256 11.4538 12.9257 11.5017 12.9114 11.5463C12.8972 11.5909 12.8685 11.6299 12.831 11.658ZM28.022 11.253L26.387 11.24L25.869 9.661C25.8545 9.61699 25.8265 9.57866 25.789 9.55149C25.7515 9.52432 25.7063 9.5097 25.66 9.5097C25.6137 9.5097 25.5685 9.52432 25.531 9.55149C25.4935 9.57866 25.4655 9.61699 25.451 9.661L24.934 11.241L23.298 11.253C23.2512 11.254 23.2059 11.2696 23.1684 11.2976C23.1309 11.3256 23.103 11.3646 23.0887 11.4092C23.0744 11.4538 23.0743 11.5017 23.0886 11.5463C23.1028 11.5909 23.1305 11.6299 23.168 11.658L24.485 12.647L23.991 14.233C23.9762 14.2773 23.9758 14.3251 23.9898 14.3696C24.0038 14.4141 24.0316 14.4531 24.0692 14.4808C24.1067 14.5086 24.152 14.5237 24.1987 14.5241C24.2454 14.5245 24.291 14.5101 24.329 14.483L25.66 13.516L26.99 14.484C27.028 14.5115 27.0737 14.5263 27.1206 14.5261C27.1675 14.5259 27.2132 14.5108 27.2509 14.483C27.2887 14.4551 27.3166 14.416 27.3306 14.3712C27.3447 14.3265 27.3441 14.2784 27.329 14.234L26.836 12.647L28.151 11.657C28.188 11.6289 28.2154 11.59 28.2294 11.5456C28.2434 11.5013 28.2433 11.4537 28.2292 11.4094C28.215 11.3652 28.1875 11.3263 28.1504 11.2983C28.1133 11.2703 28.0685 11.2545 28.022 11.253Z"
		fill="#73AF00"
	/>
</svg>
