<svg
	color="rgb(var(--foreground, 0, 0, 0))"
	viewBox="0 0 15 15"
	fill="none"
	xmlns="http://www.w3.org/2000/svg"
>
	<path
		d="M1.55622 6.82781H5.27159C5.78761 6.82781 6.17599 6.69745 6.43672 6.43672C6.69745 6.17056 6.82781 5.7686 6.82781 5.23085V1.58881C6.82781 1.05106 6.69745 0.65182 6.43672 0.391092C6.17599 0.130364 5.78761 0 5.27159 0H1.55622C1.0402 0 0.65182 0.130364 0.391092 0.391092C0.130364 0.65182 0 1.05106 0 1.58881V5.23085C0 5.7686 0.130364 6.17056 0.391092 6.43672C0.65182 6.69745 1.0402 6.82781 1.55622 6.82781ZM1.57251 5.67898C1.43129 5.67898 1.32537 5.64096 1.25475 5.56491C1.18414 5.48886 1.14883 5.37751 1.14883 5.23085V1.58881C1.14883 1.44215 1.18414 1.33351 1.25475 1.2629C1.32537 1.18685 1.43129 1.14883 1.57251 1.14883H5.24715C5.38838 1.14883 5.4943 1.18685 5.56491 1.2629C5.64096 1.33351 5.67898 1.44215 5.67898 1.58881V5.23085C5.67898 5.37751 5.64096 5.48886 5.56491 5.56491C5.4943 5.64096 5.38838 5.67898 5.24715 5.67898H1.57251ZM9.73656 6.82781H13.4438C13.9598 6.82781 14.3482 6.69745 14.6089 6.43672C14.8696 6.17056 15 5.7686 15 5.23085V1.58881C15 1.05106 14.8696 0.65182 14.6089 0.391092C14.3482 0.130364 13.9598 0 13.4438 0H9.73656C9.2151 0 8.82401 0.130364 8.56328 0.391092C8.30255 0.65182 8.17219 1.05106 8.17219 1.58881V5.23085C8.17219 5.7686 8.30255 6.17056 8.56328 6.43672C8.82401 6.69745 9.2151 6.82781 9.73656 6.82781ZM9.75285 5.67898C9.60619 5.67898 9.49755 5.64096 9.42694 5.56491C9.35633 5.48886 9.32102 5.37751 9.32102 5.23085V1.58881C9.32102 1.44215 9.35633 1.33351 9.42694 1.2629C9.49755 1.18685 9.60619 1.14883 9.75285 1.14883H13.4275C13.5741 1.14883 13.6801 1.18685 13.7452 1.2629C13.8159 1.33351 13.8512 1.44215 13.8512 1.58881V5.23085C13.8512 5.37751 13.8159 5.48886 13.7452 5.56491C13.6801 5.64096 13.5741 5.67898 13.4275 5.67898H9.75285ZM1.55622 15H5.27159C5.78761 15 6.17599 14.8696 6.43672 14.6089C6.69745 14.3482 6.82781 13.9489 6.82781 13.4112V9.761C6.82781 9.22868 6.69745 8.83216 6.43672 8.57143C6.17599 8.30527 5.78761 8.17219 5.27159 8.17219H1.55622C1.0402 8.17219 0.65182 8.30527 0.391092 8.57143C0.130364 8.83216 0 9.22868 0 9.761V13.4112C0 13.9489 0.130364 14.3482 0.391092 14.6089C0.65182 14.8696 1.0402 15 1.55622 15ZM1.57251 13.8512C1.43129 13.8512 1.32537 13.8131 1.25475 13.7371C1.18414 13.6665 1.14883 13.5578 1.14883 13.4112V9.76915C1.14883 9.61706 1.18414 9.5057 1.25475 9.43509C1.32537 9.35904 1.43129 9.32102 1.57251 9.32102H5.24715C5.38838 9.32102 5.4943 9.35904 5.56491 9.43509C5.64096 9.5057 5.67898 9.61706 5.67898 9.76915V13.4112C5.67898 13.5578 5.64096 13.6665 5.56491 13.7371C5.4943 13.8131 5.38838 13.8512 5.24715 13.8512H1.57251ZM9.73656 15H13.4438C13.9598 15 14.3482 14.8696 14.6089 14.6089C14.8696 14.3482 15 13.9489 15 13.4112V9.761C15 9.22868 14.8696 8.83216 14.6089 8.57143C14.3482 8.30527 13.9598 8.17219 13.4438 8.17219H9.73656C9.2151 8.17219 8.82401 8.30527 8.56328 8.57143C8.30255 8.83216 8.17219 9.22868 8.17219 9.761V13.4112C8.17219 13.9489 8.30255 14.3482 8.56328 14.6089C8.82401 14.8696 9.2151 15 9.73656 15ZM9.75285 13.8512C9.60619 13.8512 9.49755 13.8131 9.42694 13.7371C9.35633 13.6665 9.32102 13.5578 9.32102 13.4112V9.76915C9.32102 9.61706 9.35633 9.5057 9.42694 9.43509C9.49755 9.35904 9.60619 9.32102 9.75285 9.32102H13.4275C13.5741 9.32102 13.6801 9.35904 13.7452 9.43509C13.8159 9.5057 13.8512 9.61706 13.8512 9.76915V13.4112C13.8512 13.5578 13.8159 13.6665 13.7452 13.7371C13.6801 13.8131 13.5741 13.8512 13.4275 13.8512H9.75285Z"
		fill="currentColor"
	/>
</svg>
