<svg
	color="rgb(var(--foreground, 0, 0, 0))"
	viewBox="0 0 22 15"
	fill="none"
	xmlns="http://www.w3.org/2000/svg"
>
	<path
		d="M1.5873 7.19163H9.18254C9.71164 7.19163 10.1085 7.06057 10.373 6.79846C10.6376 6.53634 10.7698 6.1406 10.7698 5.61123V2.07269C10.7698 1.54332 10.6376 1.15015 10.373 0.893172C10.1085 0.631057 9.71164 0.5 9.18254 0.5H1.5873C1.0582 0.5 0.661376 0.631057 0.396825 0.893172C0.132275 1.15015 0 1.54332 0 2.07269V5.61123C0 6.1406 0.132275 6.53634 0.396825 6.79846C0.661376 7.06057 1.0582 7.19163 1.5873 7.19163ZM3.50794 14.5H10.1508C10.6852 14.5 11.0847 14.3689 11.3492 14.1068C11.6138 13.8499 11.746 13.4567 11.746 12.9273V10.3756C11.746 9.84104 11.6138 9.4453 11.3492 9.18833C11.0847 8.92621 10.6852 8.79515 10.1508 8.79515H3.50794C2.97884 8.79515 2.57937 8.92621 2.30952 9.18833C2.04497 9.4453 1.9127 9.84104 1.9127 10.3756V12.9273C1.9127 13.4567 2.04497 13.8499 2.30952 14.1068C2.57937 14.3689 2.97884 14.5 3.50794 14.5ZM14.8968 13.4901H20.4048C20.9339 13.4901 21.3307 13.359 21.5952 13.0969C21.8651 12.8348 22 12.4391 22 11.9097V3.17511C22 2.64574 21.8651 2.25 21.5952 1.98789C21.3307 1.72577 20.9339 1.59471 20.4048 1.59471H14.8968C14.3624 1.59471 13.963 1.72577 13.6984 1.98789C13.4339 2.25 13.3016 2.64574 13.3016 3.17511V11.9097C13.3016 12.4391 13.4339 12.8348 13.6984 13.0969C13.963 13.359 14.3624 13.4901 14.8968 13.4901Z"
		fill="currentColor"
	/>
</svg>
