<svg
	color="rgb(var(--foreground, 0, 0, 0))"
	viewBox="0 0 22 15"
	fill="none"
	xmlns="http://www.w3.org/2000/svg"
>
	<path
		d="M1.79688 7.19967H8.98438C9.58333 7.19967 10.0312 7.05592 10.3281 6.76843C10.6302 6.4758 10.7812 6.03429 10.7812 5.44389V2.24807C10.7812 1.66282 10.6302 1.22644 10.3281 0.938944C10.0312 0.646315 9.58333 0.5 8.98438 0.5H1.79688C1.19792 0.5 0.747396 0.646315 0.445312 0.938944C0.148438 1.22644 0 1.66282 0 2.24807V5.44389C0 6.03429 0.148438 6.4758 0.445312 6.76843C0.747396 7.05592 1.19792 7.19967 1.79688 7.19967ZM1.89062 6.03685C1.66146 6.03685 1.48438 5.97781 1.35938 5.85974C1.23958 5.73652 1.17969 5.55684 1.17969 5.32068V2.37899C1.17969 2.1377 1.23958 1.95801 1.35938 1.83993C1.48438 1.72186 1.66146 1.66282 1.89062 1.66282H8.89062C9.11979 1.66282 9.29427 1.72186 9.41406 1.83993C9.53906 1.95801 9.60156 2.1377 9.60156 2.37899V5.32068C9.60156 5.55684 9.53906 5.73652 9.41406 5.85974C9.29427 5.97781 9.11979 6.03685 8.89062 6.03685H1.89062ZM3.78906 14.5H9.95312C10.5521 14.5 11 14.3537 11.2969 14.0611C11.599 13.7736 11.75 13.3346 11.75 12.7442V10.5726C11.75 9.98221 11.599 9.54327 11.2969 9.25578C11 8.96828 10.5521 8.82453 9.95312 8.82453H3.78906C3.19531 8.82453 2.7474 8.96828 2.44531 9.25578C2.14323 9.54327 1.99219 9.98221 1.99219 10.5726V12.7442C1.99219 13.3346 2.14323 13.7736 2.44531 14.0611C2.7474 14.3537 3.19531 14.5 3.78906 14.5ZM3.88281 13.3372C3.65365 13.3372 3.47656 13.2756 3.35156 13.1524C3.23177 13.0343 3.17188 12.8572 3.17188 12.621V10.6958C3.17188 10.4545 3.23177 10.2774 3.35156 10.1645C3.47656 10.0464 3.65365 9.98735 3.88281 9.98735H9.85156C10.0859 9.98735 10.263 10.0464 10.3828 10.1645C10.5078 10.2774 10.5703 10.4545 10.5703 10.6958V12.621C10.5703 12.8572 10.5078 13.0343 10.3828 13.1524C10.263 13.2756 10.0859 13.3372 9.85156 13.3372H3.88281ZM15.1016 13.599H20.2031C20.8021 13.599 21.25 13.4527 21.5469 13.1601C21.849 12.8726 22 12.4336 22 11.8432V3.28768C22 2.69729 21.849 2.25834 21.5469 1.97085C21.25 1.68335 20.8021 1.5396 20.2031 1.5396H15.1016C14.5026 1.5396 14.0521 1.68335 13.75 1.97085C13.4531 2.25834 13.3047 2.69729 13.3047 3.28768V11.8432C13.3047 12.4336 13.4531 12.8726 13.75 13.1601C14.0521 13.4527 14.5026 13.599 15.1016 13.599ZM15.1875 12.4362C14.9583 12.4362 14.7839 12.3772 14.6641 12.2591C14.5443 12.141 14.4844 11.9613 14.4844 11.72V3.41859C14.4844 3.1773 14.5443 2.99762 14.6641 2.87954C14.7839 2.76146 14.9583 2.70242 15.1875 2.70242H20.1016C20.3359 2.70242 20.513 2.76146 20.6328 2.87954C20.7578 2.99762 20.8203 3.1773 20.8203 3.41859V11.72C20.8203 11.9613 20.7578 12.141 20.6328 12.2591C20.513 12.3772 20.3359 12.4362 20.1016 12.4362H15.1875Z"
		fill="currentColor"
	/>
</svg>
