<svg
	color="rgb(var(--foreground, 0, 0, 0))"
	viewBox="0 0 16 17"
	fill="none"
	xmlns="http://www.w3.org/2000/svg"
>
	<path
		d="M7.97653 10.2412C8.29549 10.2412 8.58565 10.1627 8.84709 10.0059C9.11375 9.84902 9.32549 9.63987 9.48236 9.37843C9.63922 9.11176 9.71764 8.81895 9.71764 8.5C9.71764 8.18105 9.63922 7.89085 9.48236 7.62941C9.32549 7.36274 9.11375 7.15098 8.84709 6.99412C8.58565 6.83726 8.29549 6.75882 7.97653 6.75882C7.65758 6.75882 7.36468 6.83726 7.09801 6.99412C6.83658 7.15098 6.62745 7.36274 6.47059 7.62941C6.31372 7.89085 6.2353 8.18105 6.2353 8.5C6.2353 8.81895 6.31372 9.11176 6.47059 9.37843C6.62745 9.63987 6.83658 9.84902 7.09801 10.0059C7.36468 10.1627 7.65758 10.2412 7.97653 10.2412ZM7.97653 9.25294C7.76738 9.25294 7.5895 9.17974 7.4431 9.03333C7.29669 8.88693 7.2235 8.70915 7.2235 8.5C7.2235 8.29085 7.29669 8.11307 7.4431 7.96667C7.5895 7.82026 7.76738 7.74706 7.97653 7.74706C8.18568 7.74706 8.36344 7.82026 8.50985 7.96667C8.65625 8.11307 8.72945 8.29085 8.72945 8.5C8.72945 8.70915 8.65625 8.88693 8.50985 9.03333C8.36344 9.17974 8.18568 9.25294 7.97653 9.25294ZM7.62348 9.77059L6.7294 8.87647L5.5765 10.0294C5.45624 10.1549 5.39612 10.3065 5.39612 10.4843C5.39612 10.6569 5.45624 10.8033 5.5765 10.9235C5.69676 11.0438 5.84315 11.1039 6.0157 11.1039C6.19348 11.1039 6.3451 11.0438 6.47059 10.9235L7.62348 9.77059ZM8.36867 7.2451L9.26276 8.12353L12.0392 5.34706C12.1647 5.2268 12.2275 5.08039 12.2275 4.90784C12.2275 4.73007 12.1647 4.57843 12.0392 4.45294C11.919 4.33268 11.77 4.27255 11.5922 4.27255C11.4197 4.27255 11.2731 4.33268 11.1529 4.45294L8.36867 7.2451ZM8.00006 16.5C9.09287 16.5 10.1202 16.2909 11.0823 15.8726C12.0496 15.4542 12.9019 14.8765 13.6392 14.1392C14.3764 13.402 14.9543 12.5523 15.3726 11.5902C15.7909 10.6229 16 9.59281 16 8.5C16 7.40719 15.7909 6.37974 15.3726 5.41765C14.9543 4.45033 14.3764 3.59804 13.6392 2.86078C12.9019 2.12353 12.0496 1.54575 11.0823 1.12745C10.115 0.70915 9.08502 0.5 7.99222 0.5C6.89941 0.5 5.86933 0.70915 4.90202 1.12745C3.93993 1.54575 3.09023 2.12353 2.35297 2.86078C1.62095 3.59804 1.04573 4.45033 0.627427 5.41765C0.209128 6.37974 0 7.40719 0 8.5C0 9.59281 0.209128 10.6229 0.627427 11.5902C1.04573 12.5523 1.62356 13.402 2.36082 14.1392C3.09807 14.8765 3.94777 15.4542 4.90986 15.8726C5.87718 16.2909 6.90726 16.5 8.00006 16.5ZM8.00006 15.1667C7.07457 15.1667 6.20919 14.9941 5.40396 14.649C4.59873 14.3039 3.89019 13.8281 3.27843 13.2216C2.6719 12.6098 2.19613 11.9013 1.85103 11.0961C1.51116 10.2908 1.34125 9.42549 1.34125 8.5C1.34125 7.57451 1.51116 6.70915 1.85103 5.90392C2.19613 5.09869 2.6719 4.3902 3.27843 3.77843C3.88496 3.16667 4.59089 2.69085 5.39612 2.35098C6.20134 2.00588 7.06673 1.83333 7.99222 1.83333C8.9177 1.83333 9.78297 2.00588 10.5882 2.35098C11.3987 2.69085 12.1072 3.16667 12.7137 3.77843C13.3255 4.3902 13.8039 5.09869 14.149 5.90392C14.4941 6.70915 14.6666 7.57451 14.6666 8.5C14.6666 9.42549 14.4941 10.2908 14.149 11.0961C13.8091 11.9013 13.3333 12.6098 12.7216 13.2216C12.1098 13.8281 11.4013 14.3039 10.596 14.649C9.79082 14.9941 8.92555 15.1667 8.00006 15.1667Z"
		fill="currentColor"
	/>
</svg>
