<svg
	color="rgb(var(--foreground, 0, 0, 0))"
	viewBox="0 0 16 17"
	fill="none"
	xmlns="http://www.w3.org/2000/svg"
>
	<path
		d="M7.9921 13.2686C8.34242 13.2686 8.63794 13.1458 8.87846 12.9C9.11898 12.6542 9.23923 12.3588 9.23923 12.0137C9.23923 11.7627 9.17126 11.5353 9.03532 11.3314C8.89937 11.1274 8.72422 10.9784 8.50985 10.8843V7.21373C8.50985 7.06209 8.45756 6.9366 8.35299 6.83726C8.25364 6.73268 8.13327 6.68039 7.9921 6.68039C7.85615 6.68039 7.7359 6.73268 7.63133 6.83726C7.53198 6.9366 7.48231 7.06209 7.48231 7.21373V10.8843C7.2627 10.9784 7.08495 11.1274 6.949 11.3314C6.81305 11.5353 6.74508 11.7627 6.74508 12.0137C6.74508 12.3588 6.86533 12.6542 7.10586 12.9C7.35161 13.1458 7.647 13.2686 7.9921 13.2686ZM4.00781 7.21373C4.22219 7.21373 4.40269 7.13791 4.54909 6.98627C4.70072 6.83464 4.77653 6.65163 4.77653 6.43726C4.77653 6.2281 4.70072 6.04771 4.54909 5.89608C4.40269 5.74444 4.22219 5.66863 4.00781 5.66863C3.79866 5.66863 3.61829 5.74444 3.46666 5.89608C3.31502 6.04771 3.23921 6.2281 3.23921 6.43726C3.23921 6.65163 3.31502 6.83464 3.46666 6.98627C3.61829 7.13791 3.79866 7.21373 4.00781 7.21373ZM5.74904 5.55882C5.96342 5.55882 6.1438 5.48301 6.2902 5.33137C6.44183 5.17974 6.51764 4.99673 6.51764 4.78235C6.51764 4.5732 6.44183 4.39281 6.2902 4.24118C6.1438 4.08954 5.96342 4.01373 5.74904 4.01373C5.5399 4.01373 5.35952 4.08954 5.20789 4.24118C5.05626 4.39281 4.98045 4.5732 4.98045 4.78235C4.98045 4.99673 5.05626 5.17974 5.20789 5.33137C5.35952 5.48301 5.5399 5.55882 5.74904 5.55882ZM7.9921 4.86079C8.20125 4.86079 8.38174 4.78497 8.53337 4.63333C8.68501 4.4817 8.76082 4.30131 8.76082 4.09216C8.76082 3.87778 8.68501 3.69477 8.53337 3.54314C8.38174 3.3915 8.20125 3.31569 7.9921 3.31569C7.77772 3.31569 7.59473 3.3915 7.4431 3.54314C7.29669 3.69477 7.2235 3.87778 7.2235 4.09216C7.2235 4.30131 7.29669 4.4817 7.4431 4.63333C7.59473 4.78497 7.77772 4.86079 7.9921 4.86079ZM10.2353 5.55882C10.4496 5.55882 10.63 5.48301 10.7764 5.33137C10.9281 5.17451 11.0039 4.98889 11.0039 4.77451C11.0039 4.56536 10.9281 4.38497 10.7764 4.23333C10.63 4.0817 10.4496 4.00588 10.2353 4.00588C10.0209 4.00588 9.8379 4.0817 9.68627 4.23333C9.53987 4.38497 9.46667 4.56536 9.46667 4.77451C9.46667 4.98889 9.53987 5.17451 9.68627 5.33137C9.8379 5.48301 10.0209 5.55882 10.2353 5.55882ZM11.9765 7.21373C12.1909 7.21373 12.3713 7.13791 12.5177 6.98627C12.6693 6.83464 12.7451 6.65163 12.7451 6.43726C12.7451 6.2281 12.6693 6.04771 12.5177 5.89608C12.3713 5.74444 12.1909 5.66863 11.9765 5.66863C11.7674 5.66863 11.5869 5.74444 11.4352 5.89608C11.2836 6.04771 11.2078 6.2281 11.2078 6.43726C11.2078 6.65163 11.2836 6.83464 11.4352 6.98627C11.5869 7.13791 11.7674 7.21373 11.9765 7.21373ZM7.99994 16.5C9.09274 16.5 10.1202 16.2909 11.0823 15.8726C12.0496 15.4542 12.9019 14.8765 13.6392 14.1392C14.3764 13.402 14.9542 12.5523 15.3725 11.5902C15.7907 10.6229 16 9.59281 16 8.5C16 7.40719 15.7907 6.37974 15.3725 5.41765C14.9542 4.45033 14.3764 3.59804 13.6392 2.86078C12.9019 2.12353 12.0496 1.54575 11.0823 1.12745C10.115 0.70915 9.0849 0.5 7.9921 0.5C6.89929 0.5 5.86933 0.70915 4.90202 1.12745C3.93993 1.54575 3.09023 2.12353 2.35297 2.86078C1.62095 3.59804 1.04573 4.45033 0.627427 5.41765C0.209128 6.37974 0 7.40719 0 8.5C0 9.59281 0.209128 10.6229 0.627427 11.5902C1.04573 12.5523 1.62356 13.402 2.36082 14.1392C3.09807 14.8765 3.94777 15.4542 4.90986 15.8726C5.87718 16.2909 6.90713 16.5 7.99994 16.5ZM7.99994 15.1667C7.07445 15.1667 6.20919 14.9941 5.40396 14.649C4.59873 14.3039 3.89019 13.8281 3.27843 13.2216C2.6719 12.6098 2.19613 11.9013 1.85103 11.0961C1.51116 10.2908 1.34125 9.42549 1.34125 8.5C1.34125 7.57451 1.51116 6.70915 1.85103 5.90392C2.19613 5.09869 2.6719 4.3902 3.27843 3.77843C3.88496 3.16667 4.59089 2.69085 5.39612 2.35098C6.20134 2.00588 7.06661 1.83333 7.9921 1.83333C8.91758 1.83333 9.78297 2.00588 10.5882 2.35098C11.3987 2.69085 12.1072 3.16667 12.7137 3.77843C13.3255 4.3902 13.8039 5.09869 14.149 5.90392C14.4941 6.70915 14.6666 7.57451 14.6666 8.5C14.6666 9.42549 14.4941 10.2908 14.149 11.0961C13.8091 11.9013 13.3333 12.6098 12.7216 13.2216C12.1098 13.8281 11.4013 14.3039 10.596 14.649C9.79082 14.9941 8.92543 15.1667 7.99994 15.1667Z"
		fill="currentColor"
	/>
</svg>
