<svg
	color="rgb(var(--foreground, 0, 0, 0))"
	viewBox="0 0 16 17"
	fill="none"
	xmlns="http://www.w3.org/2000/svg"
>
	<path
		d="M4.82355 12.4294C5.03793 12.4294 5.2183 12.3536 5.3647 12.202C5.51634 12.0451 5.59215 11.8621 5.59215 11.6529C5.59215 11.4438 5.51634 11.2634 5.3647 11.1118C5.2183 10.9601 5.03793 10.8843 4.82355 10.8843C4.61441 10.8843 4.43391 10.9601 4.28228 11.1118C4.13065 11.2634 4.05484 11.4438 4.05484 11.6529C4.05484 11.8621 4.13065 12.0451 4.28228 12.202C4.43391 12.3536 4.61441 12.4294 4.82355 12.4294ZM3.47447 9.26863C3.68885 9.26863 3.87184 9.19281 4.02347 9.04118C4.1751 8.88954 4.25091 8.70915 4.25091 8.5C4.25091 8.28562 4.1751 8.10523 4.02347 7.95882C3.87184 7.80719 3.68885 7.73137 3.47447 7.73137C3.26533 7.73137 3.08495 7.80719 2.93332 7.95882C2.78169 8.10523 2.70588 8.28562 2.70588 8.5C2.70588 8.70915 2.78169 8.88954 2.93332 9.04118C3.08495 9.19281 3.26533 9.26863 3.47447 9.26863ZM4.80787 6.11569C5.02224 6.11569 5.20262 6.03987 5.34902 5.88824C5.50065 5.7366 5.57646 5.55621 5.57646 5.34706C5.57646 5.13268 5.50065 4.95229 5.34902 4.80588C5.20262 4.65425 5.02224 4.57843 4.80787 4.57843C4.59872 4.57843 4.41823 4.65425 4.26659 4.80588C4.11496 4.95229 4.03915 5.13268 4.03915 5.34706C4.03915 5.55621 4.11496 5.7366 4.26659 5.88824C4.41823 6.03987 4.59872 6.11569 4.80787 6.11569ZM7.99216 4.73529C8.20131 4.73529 8.3818 4.65948 8.53343 4.50784C8.68506 4.35621 8.76087 4.17582 8.76087 3.96667C8.76087 3.75229 8.68506 3.56928 8.53343 3.41765C8.3818 3.26601 8.20131 3.1902 7.99216 3.1902C7.77778 3.1902 7.59467 3.26601 7.44304 3.41765C7.29664 3.56928 7.22344 3.75229 7.22344 3.96667C7.22344 4.17582 7.29664 4.35621 7.44304 4.50784C7.59467 4.65948 7.77778 4.73529 7.99216 4.73529ZM12.5098 9.26863C12.719 9.26863 12.8994 9.19281 13.051 9.04118C13.2026 8.88954 13.2784 8.70915 13.2784 8.5C13.2784 8.28562 13.2026 8.10523 13.051 7.95882C12.8994 7.80719 12.719 7.73137 12.5098 7.73137C12.2955 7.73137 12.1125 7.80719 11.9608 7.95882C11.8144 8.10523 11.7413 8.28562 11.7413 8.5C11.7413 8.70915 11.8144 8.88954 11.9608 9.04118C12.1125 9.19281 12.2955 9.26863 12.5098 9.26863ZM11.1608 12.4294C11.3699 12.4294 11.5504 12.3536 11.702 12.202C11.8537 12.0451 11.9295 11.8621 11.9295 11.6529C11.9295 11.4438 11.8537 11.2634 11.702 11.1118C11.5504 10.9601 11.3699 10.8843 11.1608 10.8843C10.9516 10.8843 10.7712 10.9601 10.6196 11.1118C10.468 11.2634 10.3922 11.4438 10.3922 11.6529C10.3922 11.8621 10.468 12.0451 10.6196 12.202C10.7712 12.3536 10.9516 12.4294 11.1608 12.4294ZM6.74503 9.70784C6.95941 9.91699 7.18945 10.0425 7.4352 10.0843C7.68095 10.1261 7.92169 10.0922 8.15698 9.98235C8.39227 9.87255 8.59878 9.69477 8.77656 9.44902L11.8432 5.16667C11.9373 5.03595 11.9635 4.91307 11.9216 4.79804C11.8798 4.68301 11.8014 4.60719 11.6864 4.57059C11.5713 4.52876 11.4483 4.55229 11.3176 4.64118L6.996 7.66863C6.75025 7.84118 6.5725 8.04771 6.46269 8.28824C6.35289 8.52353 6.31891 8.76667 6.36074 9.01765C6.4078 9.2634 6.53589 9.49346 6.74503 9.70784ZM8.00012 16.5C9.09292 16.5 10.1203 16.2909 11.0823 15.8726C12.0496 15.4542 12.902 14.8765 13.6392 14.1392C14.3764 13.402 14.9543 12.5523 15.3726 11.5902C15.7909 10.6229 16 9.59281 16 8.5C16 7.40719 15.7909 6.37974 15.3726 5.41765C14.9543 4.45033 14.3764 3.59804 13.6392 2.86078C12.902 2.12353 12.0496 1.54575 11.0823 1.12745C10.115 0.70915 9.08495 0.5 7.99216 0.5C6.89936 0.5 5.86929 0.70915 4.90198 1.12745C3.9399 1.54575 3.0902 2.12353 2.35296 2.86078C1.62094 3.59804 1.04572 4.45033 0.627422 5.41765C0.209127 6.37974 0 7.40719 0 8.5C0 9.59281 0.209127 10.6229 0.627422 11.5902C1.04572 12.5523 1.62355 13.402 2.3608 14.1392C3.09804 14.8765 3.94774 15.4542 4.90982 15.8726C5.87713 16.2909 6.90733 16.5 8.00012 16.5ZM8.00012 15.1667C7.07464 15.1667 6.20914 14.9941 5.40392 14.649C4.5987 14.3039 3.89016 13.8281 3.2784 13.2216C2.67188 12.6098 2.19611 11.9013 1.85102 11.0961C1.51115 10.2908 1.34124 9.42549 1.34124 8.5C1.34124 7.57451 1.51115 6.70915 1.85102 5.90392C2.19611 5.09869 2.67188 4.3902 3.2784 3.77843C3.88493 3.16667 4.59086 2.69085 5.39608 2.35098C6.20129 2.00588 7.06668 1.83333 7.99216 1.83333C8.91764 1.83333 9.78302 2.00588 10.5882 2.35098C11.3987 2.69085 12.1072 3.16667 12.7138 3.77843C13.3255 4.3902 13.8039 5.09869 14.149 5.90392C14.4941 6.70915 14.6666 7.57451 14.6666 8.5C14.6666 9.42549 14.4941 10.2908 14.149 11.0961C13.8091 11.9013 13.3334 12.6098 12.7216 13.2216C12.1098 13.8281 11.4013 14.3039 10.5961 14.649C9.79086 14.9941 8.9256 15.1667 8.00012 15.1667Z"
		fill="currentColor"
	/>
</svg>
