<svg
	color="rgb(var(--foreground, 0, 0, 0))"
	viewBox="0 0 16 18"
	fill="none"
	xmlns="http://www.w3.org/2000/svg"
>
	<path
		d="M1.10943 13.8396L7.34648 17.3168C7.78498 17.5611 8.22344 17.5611 8.66194 17.3168L14.8906 13.8396C15.2551 13.6369 15.5298 13.403 15.7147 13.1379C15.9049 12.8729 16 12.4622 16 11.9061V5.73137C16 5.32596 15.9208 4.99071 15.7623 4.72564C15.6091 4.45536 15.3661 4.22667 15.0332 4.03956L9.42269 0.905412C8.94721 0.635137 8.47441 0.5 8.00421 0.5C7.53401 0.5 7.05857 0.635137 6.57781 0.905412L0.97471 4.03956C0.636588 4.22667 0.388304 4.45536 0.22981 4.72564C0.076598 4.99071 0 5.32596 0 5.73137V11.9061C0 12.4622 0.0950872 12.8729 0.285281 13.1379C0.475475 13.403 0.750171 13.6369 1.10943 13.8396ZM1.82263 12.8105C1.59017 12.6857 1.42905 12.5506 1.33924 12.4051C1.24942 12.2595 1.20452 12.0802 1.20452 11.8671V5.98085L7.37818 9.45024V15.9212L1.82263 12.8105ZM14.1853 12.8105L8.62232 15.9212V9.45024L14.7955 5.98085V11.8671C14.7955 12.0802 14.7506 12.2595 14.6608 12.4051C14.571 12.5506 14.4125 12.6857 14.1853 12.8105ZM8.00421 8.35875L1.88602 4.95173L7.10875 2.02029C7.71103 1.68245 8.30796 1.68245 8.89968 2.02029L14.1219 4.95173L8.00421 8.35875Z"
		fill="currentColor"
	/>
</svg>
