<svg
	color="rgb(var(--foreground, 0, 0, 0))"
	viewBox="0 0 14 18"
	fill="none"
	xmlns="http://www.w3.org/2000/svg"
>
	<path
		d="M7 17.5585C8.4 17.5585 9.62364 17.3961 10.6709 17.0711C11.7236 16.7461 12.5403 16.2939 13.1209 15.7144C13.707 15.1403 14 14.4796 14 13.7322V3.9023H12.6895V13.7322C12.6895 14.2304 12.4508 14.6746 11.9733 15.0645C11.5012 15.4599 10.8391 15.7686 9.98721 15.9906C9.13527 16.2181 8.13953 16.3318 7 16.3318C5.86047 16.3318 4.86473 16.2181 4.01279 15.9906C3.16085 15.7686 2.49612 15.4599 2.0186 15.0645C1.54651 14.6746 1.31047 14.2304 1.31047 13.7322V3.9023H0V13.7322C0 14.4796 0.29031 15.1403 0.87093 15.7144C1.45698 16.2939 2.27364 16.7461 3.32093 17.0711C4.37364 17.3961 5.6 17.5585 7 17.5585ZM7 7.35494C8.4 7.35494 9.62364 7.20871 10.6709 6.91625C11.7236 6.6238 12.5403 6.22031 13.1209 5.7058C13.707 5.18587 14 4.5847 14 3.9023C14 3.21989 13.707 2.61873 13.1209 2.0988C12.5403 1.57887 11.7236 1.17268 10.6709 0.880217C9.62364 0.587758 8.4 0.441528 7 0.441528C5.6 0.441528 4.37364 0.587758 3.32093 0.880217C2.27364 1.17268 1.45698 1.57887 0.87093 2.0988C0.29031 2.61873 0 3.21989 0 3.9023C0 4.5847 0.29031 5.18587 0.87093 5.7058C1.45698 6.22031 2.27364 6.6238 3.32093 6.91625C4.37364 7.20871 5.6 7.35494 7 7.35494ZM7 6.12824C5.86047 6.12824 4.86473 6.03346 4.01279 5.8439C3.16085 5.65435 2.49612 5.39167 2.0186 5.05589C1.54651 4.7201 1.31047 4.33557 1.31047 3.9023C1.31047 3.44736 1.54651 3.04658 2.0186 2.69997C2.49612 2.35335 3.16085 2.08255 4.01279 1.88758C4.86473 1.68719 5.86047 1.58699 7 1.58699C8.13953 1.58699 9.13527 1.68719 9.98721 1.88758C10.8391 2.08255 11.5012 2.35335 11.9733 2.69997C12.4508 3.04658 12.6895 3.44736 12.6895 3.9023C12.6895 4.33557 12.4508 4.7201 11.9733 5.05589C11.5012 5.39167 10.8391 5.65435 9.98721 5.8439C9.13527 6.03346 8.13953 6.12824 7 6.12824Z"
		fill="currentColor"
	/>
</svg>
