<svg
	color="rgb(var(--foreground, 0, 0, 0))"
	viewBox="0 0 14 18"
	fill="none"
	xmlns="http://www.w3.org/2000/svg"
>
	<path
		d="M0 13.6998C0 14.2538 0.165504 14.7621 0.496512 15.2247C0.832946 15.6927 1.31047 16.0961 1.92907 16.435C2.5531 16.7738 3.29109 17.0347 4.14302 17.2176C5.00039 17.4059 5.95271 17.5 7 17.5C8.04186 17.5 8.99147 17.4059 9.84884 17.2176C10.7062 17.0347 11.4442 16.7738 12.0628 16.435C12.6814 16.0961 13.1589 15.6927 13.4953 15.2247C13.8318 14.7621 14 14.2538 14 13.6998V3.93711C14 3.25937 13.707 2.66232 13.1209 2.14594C12.5403 1.62957 11.7236 1.22615 10.6709 0.935691C9.62364 0.64523 8.4 0.5 7 0.5C5.6 0.5 4.37364 0.64523 3.32093 0.935691C2.27364 1.22615 1.45698 1.62957 0.87093 2.14594C0.29031 2.66232 0 3.25937 0 3.93711V13.6998ZM1.31047 3.93711C1.31047 3.48529 1.54651 3.08725 2.0186 2.743C2.49612 2.39875 3.16085 2.12981 4.01279 1.93617C4.86473 1.73715 5.86047 1.63764 7 1.63764C8.13953 1.63764 9.13527 1.73715 9.98721 1.93617C10.8391 2.12981 11.5012 2.39875 11.9733 2.743C12.4508 3.08725 12.6895 3.48529 12.6895 3.93711C12.6895 4.36743 12.4508 4.74933 11.9733 5.08282C11.4957 5.41631 10.8283 5.67719 9.97093 5.86545C9.11899 6.05371 8.12868 6.14784 7 6.14784C5.87132 6.14784 4.87829 6.05371 4.02093 5.86545C3.16899 5.67719 2.50426 5.41631 2.02674 5.08282C1.54922 4.74933 1.31047 4.36743 1.31047 3.93711Z"
		fill="currentColor"
	/>
</svg>
