<svg
	color="rgb(var(--foreground, 0, 0, 0))"
	viewBox="0 0 18 18"
	fill="none"
	xmlns="http://www.w3.org/2000/svg"
>
	<path
		d="M0.888953 10.754L7.24605 17.111C7.83334 17.6983 8.41799 17.9946 9 17.9999C9.58201 18.0052 10.164 17.7169 10.746 17.1349L17.1349 10.7381C17.7169 10.1614 18.0052 9.58201 17.9999 9C17.9946 8.4127 17.6983 7.82541 17.111 7.23811L10.7619 0.888953C10.1746 0.301656 9.58994 0.00536246 9.00794 7.14995e-05C8.42593 -0.00521946 7.84392 0.283138 7.26192 0.865144L0.865144 7.25398C0.283138 7.84128 -0.00521946 8.42593 7.14995e-05 9.00794C0.00536246 9.58465 0.301656 10.1667 0.888953 10.754Z"
		fill="currentColor"
	/>
</svg>
