<svg
	color="rgb(var(--foreground, 0, 0, 0))"
	viewBox="0 0 18 18"
	fill="none"
	xmlns="http://www.w3.org/2000/svg"
>
	<path
		d="M0.888954 10.754L7.24605 17.1111C7.83335 17.6984 8.418 17.9947 9.00001 17.9999C9.58201 18.0052 10.164 17.7169 10.746 17.1349L17.1349 10.7381C17.7169 10.1614 18.0052 9.58201 17.9999 9.00001C17.9946 8.41271 17.6984 7.82541 17.1111 7.23812L10.7619 0.888954C10.1746 0.301657 9.58995 0.00536247 9.00794 7.14996e-05C8.42594 -0.00521947 7.84393 0.283138 7.26192 0.865145L0.865145 7.25399C0.283138 7.84129 -0.00521947 8.42594 7.14996e-05 9.00794C0.00536247 9.58466 0.301657 10.1667 0.888954 10.754ZM1.80958 9.87302C1.52916 9.58731 1.3863 9.2963 1.38101 9.00001C1.37572 8.70371 1.52122 8.41006 1.81752 8.11906L8.11906 1.81752C8.41006 1.52652 8.70371 1.38101 9.00001 1.38101C9.2963 1.38101 9.58731 1.52387 9.87302 1.80958L16.1904 8.127C16.4709 8.40742 16.6137 8.69842 16.619 9.00001C16.6243 9.2963 16.4788 9.58995 16.1825 9.88095L9.88095 16.1825C9.58466 16.4735 9.28837 16.619 8.99207 16.619C8.69578 16.619 8.40742 16.4788 8.127 16.1984L1.80958 9.87302Z"
		fill="currentColor"
	/>
</svg>
