<svg
	color="rgb(var(--foreground, 0, 0, 0))"
	viewBox="0 0 20 20"
	fill="none"
	xmlns="http://www.w3.org/2000/svg"
>
	<path
		d="M19.3158 10.716C19.5439 10.604 19.7136 10.4733 19.825 10.324C19.9417 10.1693 20 10.012 20 9.852C20 9.692 19.9417 9.54267 19.825 9.404C19.7136 9.26533 19.5439 9.156 19.3158 9.076L15.5529 7.772L17.1679 4.452C17.2421 4.29733 17.2792 4.132 17.2792 3.956C17.2792 3.732 17.205 3.548 17.0565 3.404C16.908 3.25467 16.7224 3.18 16.4996 3.18C16.4254 3.18 16.3458 3.188 16.2609 3.204C16.1814 3.22 16.0992 3.24933 16.0143 3.292L12.6014 4.972L10.8194 1.14C10.7239 0.926667 10.602 0.766667 10.4535 0.66C10.3103 0.553333 10.1591 0.5 10 0.5C9.84089 0.5 9.68974 0.553333 9.54654 0.66C9.40334 0.766667 9.28136 0.926667 9.18059 1.14L7.40652 4.972L3.98568 3.292C3.90613 3.24933 3.82392 3.22 3.73906 3.204C3.6542 3.188 3.57465 3.18 3.5004 3.18C3.27765 3.18 3.09202 3.25467 2.94352 3.404C2.79501 3.548 2.72076 3.732 2.72076 3.956C2.72076 4.132 2.76054 4.29733 2.8401 4.452L4.4471 7.772L0.684169 9.076C0.461416 9.15067 0.2917 9.26 0.17502 9.404C0.05834 9.548 0 9.7 0 9.86C0 10.0147 0.0556881 10.1693 0.167064 10.324C0.283744 10.4733 0.456112 10.604 0.684169 10.716L4.29594 12.452L2.34686 16.604C2.2567 16.7853 2.21162 16.9613 2.21162 17.132C2.21162 17.3293 2.27261 17.492 2.39459 17.62C2.51657 17.7533 2.67303 17.82 2.86396 17.82C2.94352 17.82 3.02572 17.804 3.11058 17.772C3.20074 17.7453 3.2909 17.7053 3.38107 17.652L7.99523 14.908L9.26014 18.844C9.33439 19.0627 9.43781 19.2253 9.57041 19.332C9.703 19.444 9.8462 19.5 10 19.5C10.1591 19.5 10.3023 19.444 10.4296 19.332C10.5622 19.2253 10.6656 19.0627 10.7399 18.844L12.0127 14.908L16.6189 17.652C16.7144 17.7053 16.8046 17.7453 16.8894 17.772C16.9743 17.7987 17.0565 17.812 17.136 17.812C17.3217 17.812 17.4781 17.748 17.6054 17.62C17.7327 17.4973 17.7963 17.3373 17.7963 17.14C17.7963 16.9747 17.7486 16.796 17.6531 16.604L15.7041 12.452L19.3158 10.716Z"
		fill="currentColor"
	/>
</svg>
