<svg
	color="rgb(var(--foreground, 0, 0, 0))"
	viewBox="0 0 17 16"
	fill="none"
	xmlns="http://www.w3.org/2000/svg"
>
	<path
		d="M14.2771 11.905C15.1438 10.9608 15.8143 9.99507 16.2886 9.00773C16.7629 8.0204 17 7.02767 17 6.02955C17 5.31198 16.8828 4.65645 16.6484 4.06297C16.4194 3.4641 16.0951 2.94615 15.6753 2.50914C15.261 2.07212 14.7704 1.73492 14.2035 1.49752C13.642 1.26013 13.0287 1.14144 12.3636 1.14144C11.6059 1.14144 10.9272 1.30599 10.3276 1.6351C9.73337 1.96421 9.25092 2.40123 8.88023 2.94615C8.51499 2.40123 8.03255 1.96421 7.4329 1.6351C6.83325 1.30599 6.15456 1.14144 5.39683 1.14144C4.81898 1.14144 4.26022 1.24125 3.72054 1.44087L4.81626 2.52532C4.98525 2.47137 5.17332 2.44439 5.38047 2.44439C5.8929 2.44439 6.33718 2.53611 6.71332 2.71955C7.08947 2.8976 7.40837 3.1215 7.67003 3.39126C7.9317 3.66103 8.14975 3.93079 8.32419 4.20055C8.43867 4.36241 8.53407 4.47301 8.61039 4.53236C8.69216 4.58631 8.78211 4.61329 8.88023 4.61329C8.97835 4.61329 9.06558 4.58362 9.1419 4.52427C9.21821 4.46492 9.31634 4.35702 9.43627 4.20055C9.62161 3.93618 9.84512 3.66912 10.1068 3.39936C10.3739 3.1242 10.6901 2.8976 11.0553 2.71955C11.426 2.53611 11.8676 2.44439 12.38 2.44439C13.0123 2.44439 13.5766 2.59546 14.0726 2.8976C14.5742 3.19434 14.9667 3.61247 15.2501 4.152C15.539 4.68613 15.6835 5.31198 15.6835 6.02955C15.6835 6.84423 15.4654 7.66971 15.0293 8.50597C14.5932 9.34224 14.0208 10.1569 13.3122 10.95L14.2771 11.905ZM11.9384 14.0496L10.9981 13.1189C10.6874 13.3671 10.3684 13.6099 10.0414 13.8473C9.71429 14.0847 9.38448 14.314 9.05195 14.5352C8.95928 14.5999 8.90204 14.6323 8.88023 14.6323C8.85843 14.6323 8.80391 14.5999 8.71669 14.5352C7.86083 13.9741 7.03495 13.359 6.23906 12.69C5.44861 12.0156 4.73994 11.3088 4.11304 10.5697C3.48613 9.83051 2.99006 9.07787 2.62482 8.31175C2.25958 7.54022 2.07696 6.77949 2.07696 6.02955C2.07696 5.75439 2.10149 5.49811 2.15055 5.26072C2.20507 5.01794 2.27866 4.79133 2.37133 4.58092L1.35738 3.56931C1.16659 3.92 1.0194 4.30306 0.915825 4.7185C0.812249 5.12854 0.760462 5.56556 0.760462 6.02955C0.760462 7.17874 1.06574 8.31714 1.67629 9.44475C2.29229 10.567 3.1645 11.6622 4.29293 12.7305C5.42136 13.7933 6.75421 14.8103 8.29149 15.7815C8.37871 15.8354 8.47683 15.884 8.58586 15.9272C8.70034 15.9757 8.79846 16 8.88023 16C8.96745 16 9.06558 15.9757 9.1746 15.9272C9.28908 15.884 9.38993 15.8354 9.47715 15.7815C9.91326 15.5009 10.3385 15.215 10.7528 14.9236C11.1671 14.6323 11.5623 14.341 11.9384 14.0496ZM14.9394 15.652C15.0648 15.7761 15.2147 15.8381 15.3891 15.8381C15.5636 15.8381 15.7108 15.7761 15.8307 15.652C15.9506 15.5279 16.0106 15.3795 16.0106 15.2069C16.016 15.0396 15.9561 14.894 15.8307 14.7699L1.07937 0.178381C0.953984 0.0596851 0.804072 0.000337204 0.62963 0.000337204C0.455187 -0.00505806 0.305275 0.0542899 0.179894 0.178381C0.0599647 0.297077 0 0.445447 0 0.623491C0 0.796139 0.0599647 0.941811 0.179894 1.06051L14.9394 15.652Z"
		fill="currentColor"
	/>
</svg>
