<svg
	color="rgb(var(--foreground, 0, 0, 0))"
	viewBox="0 0 16 16"
	fill="none"
	xmlns="http://www.w3.org/2000/svg"
>
	<path
		d="M8 15.5C8.08593 15.5 8.18261 15.4755 8.29003 15.4265C8.40282 15.3829 8.50218 15.3339 8.58812 15.2794C10.1027 14.299 11.4132 13.2723 12.5196 12.1993C13.6314 11.1209 14.4881 10.0153 15.0896 8.88235C15.6965 7.74401 16 6.59477 16 5.43464C16 4.71024 15.8845 4.04848 15.6536 3.44935C15.428 2.84477 15.1111 2.3219 14.7029 1.88072C14.3001 1.43954 13.8248 1.09913 13.2769 0.859477C12.7345 0.619826 12.1464 0.5 11.5126 0.5C10.7284 0.5 10.0383 0.704248 9.44209 1.11275C8.84592 1.5158 8.36522 2.05501 8 2.73039C7.64015 2.06046 7.16214 1.52124 6.56596 1.11275C5.96979 0.704248 5.27694 0.5 4.48741 0.5C3.85364 0.5 3.26553 0.619826 2.72306 0.859477C2.1806 1.09913 1.70527 1.43954 1.29708 1.88072C0.888889 2.3219 0.569319 2.84477 0.338369 3.44935C0.11279 4.04848 0 4.71024 0 5.43464C0 6.59477 0.300772 7.74401 0.902316 8.88235C1.50923 10.0153 2.36858 11.1209 3.48036 12.1993C4.59214 13.2723 5.90534 14.299 7.41994 15.2794C7.50587 15.3339 7.60255 15.3829 7.70997 15.4265C7.82276 15.4755 7.91944 15.5 8 15.5Z"
		fill="currentColor"
	/>
</svg>
