<svg
	color="rgb(var(--foreground, 0, 0, 0))"
	viewBox="0 0 17 16"
	fill="none"
	xmlns="http://www.w3.org/2000/svg"
>
	<path
		d="M14.2689 11.9131C15.1356 10.9689 15.8062 10.0032 16.2804 9.01583C16.7601 8.02849 17 7.03307 17 6.02955C17 5.31198 16.8828 4.65645 16.6484 4.06297C16.4194 3.4641 16.0978 2.94615 15.6835 2.50914C15.2747 2.07212 14.7922 1.73492 14.2362 1.49752C13.6856 1.26013 13.0887 1.14144 12.4454 1.14144C11.6495 1.14144 10.949 1.34376 10.3439 1.7484C9.73882 2.14765 9.25092 2.68178 8.88023 3.3508C8.51499 2.68718 8.02982 2.15305 7.42472 1.7484C6.81962 1.34376 6.1164 1.14144 5.31506 1.14144C4.74266 1.14144 4.20571 1.23855 3.70418 1.43278L14.2689 11.9131ZM11.9303 14.0496L1.34921 3.56931C1.16386 3.92 1.0194 4.30306 0.915825 4.7185C0.812249 5.12854 0.760462 5.56556 0.760462 6.02955C0.760462 7.17874 1.06574 8.31714 1.67629 9.44475C2.29229 10.567 3.1645 11.6622 4.29293 12.7305C5.42136 13.7933 6.75421 14.8103 8.29149 15.7815C8.37871 15.8354 8.47683 15.884 8.58586 15.9272C8.70034 15.9757 8.79846 16 8.88023 16C8.96745 16 9.06558 15.9757 9.1746 15.9272C9.28908 15.884 9.38993 15.8354 9.47715 15.7815C9.91326 15.5009 10.3357 15.215 10.7446 14.9236C11.1589 14.6323 11.5541 14.341 11.9303 14.0496ZM14.9394 15.652C15.0648 15.7761 15.2147 15.8381 15.3891 15.8381C15.5636 15.8381 15.7108 15.7761 15.8307 15.652C15.9506 15.5279 16.0106 15.3795 16.0106 15.2069C16.016 15.0396 15.9561 14.894 15.8307 14.7699L1.07937 0.178381C0.953984 0.0596851 0.804072 0.000337204 0.62963 0.000337204C0.455187 -0.00505806 0.305275 0.0542899 0.179894 0.178381C0.0599647 0.297077 0 0.445447 0 0.623491C0 0.796139 0.0599647 0.941811 0.179894 1.06051L14.9394 15.652Z"
		fill="currentColor"
	/>
</svg>
