<svg
	color="rgb(var(--foreground, 0, 0, 0))"
	viewBox="0 0 16 16"
	fill="none"
	xmlns="http://www.w3.org/2000/svg"
>
	<path
		d="M0 5.43464C0 6.59477 0.300772 7.74401 0.902316 8.88235C1.50923 10.0153 2.36858 11.1209 3.48036 12.1993C4.59214 13.2723 5.90534 14.299 7.41994 15.2794C7.50587 15.3339 7.60255 15.3829 7.70997 15.4265C7.82276 15.4755 7.91944 15.5 8 15.5C8.08593 15.5 8.18261 15.4755 8.29003 15.4265C8.40282 15.3829 8.50218 15.3339 8.58812 15.2794C10.1027 14.299 11.4132 13.2723 12.5196 12.1993C13.6314 11.1209 14.4881 10.0153 15.0896 8.88235C15.6965 7.74401 16 6.59477 16 5.43464C16 4.71024 15.8845 4.04848 15.6536 3.44935C15.428 2.84477 15.1084 2.3219 14.6949 1.88072C14.2867 1.43954 13.8033 1.09913 13.2447 0.859477C12.6915 0.619826 12.0873 0.5 11.432 0.5C10.6855 0.5 10.0168 0.666122 9.42598 0.998366C8.84055 1.33061 8.36522 1.77179 8 2.3219C7.64015 1.77179 7.16482 1.33061 6.57402 0.998366C5.98322 0.666122 5.31454 0.5 4.56798 0.5C3.91809 0.5 3.31386 0.619826 2.75529 0.859477C2.20208 1.09913 1.7187 1.43954 1.30514 1.88072C0.891574 2.3219 0.569319 2.84477 0.338369 3.44935C0.11279 4.04848 0 4.71024 0 5.43464ZM1.29708 5.43464C1.29708 4.71024 1.43672 4.07843 1.71601 3.53922C2.00067 2.99455 2.38738 2.57244 2.87613 2.27288C3.37026 1.96786 3.92884 1.81536 4.55186 1.81536C5.05673 1.81536 5.49446 1.90795 5.86506 2.09314C6.23565 2.27288 6.54985 2.49891 6.80765 2.77124C7.06546 3.04357 7.2803 3.3159 7.45217 3.58824C7.56495 3.75163 7.65895 3.86329 7.73414 3.9232C7.8147 3.97767 7.90332 4.0049 8 4.0049C8.09668 4.0049 8.18261 3.97495 8.2578 3.91503C8.333 3.85512 8.42967 3.74619 8.54783 3.58824C8.73045 3.32135 8.95065 3.05174 9.20846 2.77941C9.47163 2.50163 9.78315 2.27288 10.143 2.09314C10.5082 1.90795 10.9433 1.81536 11.4481 1.81536C12.0712 1.81536 12.6271 1.96786 13.1158 2.27288C13.6099 2.57244 13.9966 2.99455 14.2759 3.53922C14.5606 4.07843 14.7029 4.71024 14.7029 5.43464C14.7029 6.19172 14.523 6.95969 14.1631 7.73856C13.8033 8.51198 13.3145 9.27179 12.6969 10.018C12.0846 10.7642 11.3864 11.4777 10.6022 12.1585C9.82343 12.8339 9.01242 13.4548 8.16918 14.0212C8.07788 14.0866 8.02148 14.1193 8 14.1193C7.97852 14.1193 7.92481 14.0866 7.83887 14.0212C6.99564 13.4548 6.18194 12.8339 5.39778 12.1585C4.619 11.4777 3.92078 10.7642 3.30312 10.018C2.68546 9.27179 2.19671 8.51198 1.83686 7.73856C1.47701 6.95969 1.29708 6.19172 1.29708 5.43464Z"
		fill="currentColor"
	/>
</svg>
