<svg
	color="rgb(var(--foreground, 0, 0, 0))"
	viewBox="0 0 17 18"
	fill="none"
	xmlns="http://www.w3.org/2000/svg"
>
	<path
		d="M0.148792 8.39314L2.46497 15.7638C2.64294 16.3372 2.92559 16.7686 3.31293 17.0579C3.70027 17.3526 4.1923 17.5 4.78901 17.5H12.2165C12.8132 17.5 13.3052 17.3526 13.6926 17.0579C14.0799 16.7686 14.3626 16.3372 14.5405 15.7638L16.841 8.42529C17.0294 7.8305 17.0504 7.29732 16.9038 6.82577C16.7625 6.35422 16.4563 5.94161 15.9852 5.58794L9.97097 1.06265C9.47895 0.687549 8.98954 0.5 8.50275 0.5C8.01596 0.5 7.52655 0.687549 7.03453 1.06265L1.0203 5.58794C0.549216 5.94161 0.240392 6.35422 0.0938314 6.82577C-0.0474949 7.29196 -0.0291748 7.81442 0.148792 8.39314ZM1.34221 7.99929C1.248 7.69385 1.23229 7.43664 1.29511 7.22766C1.36315 7.01868 1.52542 6.81773 1.7819 6.62482L7.78827 2.09149C8.05522 1.89322 8.29338 1.79409 8.50275 1.79409C8.71212 1.79409 8.94767 1.89322 9.20938 2.09149L15.2158 6.62482C15.4722 6.81773 15.6345 7.02135 15.7025 7.2357C15.7706 7.44468 15.7549 7.70725 15.6554 8.0234L13.355 15.37C13.2555 15.6754 13.1194 15.8898 12.9467 16.013C12.7739 16.1416 12.5306 16.2059 12.2165 16.2059H4.78901C4.46971 16.2059 4.2237 16.1416 4.05097 16.013C3.87824 15.8898 3.74476 15.6754 3.65055 15.37L1.34221 7.99929Z"
		fill="currentColor"
	/>
</svg>
