<svg
	color="rgb(var(--foreground, 0, 0, 0))"
	viewBox="0 0 17 18"
	fill="none"
	xmlns="http://www.w3.org/2000/svg"
>
	<path
		d="M0.148792 8.39314L2.46497 15.7638C2.64294 16.3372 2.92559 16.7686 3.31293 17.0579C3.70027 17.3526 4.1923 17.5 4.78901 17.5H12.2165C12.8132 17.5 13.3052 17.3526 13.6926 17.0579C14.0799 16.7686 14.3626 16.3372 14.5405 15.7638L16.841 8.42529C17.0294 7.8305 17.0504 7.29732 16.9038 6.82577C16.7625 6.35422 16.4563 5.94161 15.9852 5.58794L9.97097 1.06265C9.47895 0.687549 8.98954 0.5 8.50275 0.5C8.01596 0.5 7.52655 0.687549 7.03453 1.06265L1.0203 5.58794C0.549217 5.94161 0.240392 6.35422 0.0938315 6.82577C-0.0474949 7.29196 -0.0291748 7.81442 0.148792 8.39314Z"
		fill="currentColor"
	/>
</svg>
