<svg
	color="rgb(var(--foreground, 0, 0, 0))"
	viewBox="0 0 12 16"
	fill="none"
	xmlns="http://www.w3.org/2000/svg"
>
	<path
		d="M0.826279 16C1.01327 16 1.17751 15.9615 1.31901 15.8846C1.46557 15.8077 1.63234 15.6769 1.81933 15.4923L5.89766 11.3923C5.93809 11.3462 5.97347 11.3231 6.00379 11.3231C6.02906 11.3231 6.06443 11.3462 6.10992 11.3923L10.1807 15.4923C10.3677 15.6769 10.5319 15.8077 10.6734 15.8846C10.82 15.9615 10.9867 16 11.1737 16C11.4315 16 11.6336 15.9103 11.7802 15.7308C11.9267 15.5564 12 15.3385 12 15.0769C12 14.9333 11.9747 14.7769 11.9242 14.6077C11.8787 14.4436 11.8282 14.2821 11.7726 14.1231L7.03474 0.984615C6.91345 0.646154 6.76437 0.397436 6.58749 0.238462C6.41567 0.0794872 6.2211 0 6.00379 0C5.78648 0 5.58939 0.0794872 5.41251 0.238462C5.24068 0.397436 5.09412 0.646154 4.97284 0.984615L0.227416 14.1231C0.171826 14.2821 0.118762 14.4436 0.0682249 14.6077C0.0227416 14.7769 0 14.9333 0 15.0769C0 15.3385 0.0732786 15.5564 0.219836 15.7308C0.366393 15.9103 0.568541 16 0.826279 16Z"
		fill="currentColor"
	/>
</svg>
