<svg
	color="rgb(var(--foreground, 0, 0, 0))"
	viewBox="0 0 12 16"
	fill="none"
	xmlns="http://www.w3.org/2000/svg"
>
	<path
		d="M5.99614 16C6.20681 16 6.38407 15.9271 6.52794 15.7812C6.6718 15.6354 6.85164 15.4141 7.06744 15.1172L11.6686 8.89062C11.7714 8.74479 11.851 8.59896 11.9075 8.45312C11.9692 8.30729 12 8.15625 12 8C12 7.84375 11.9692 7.69271 11.9075 7.54687C11.851 7.39583 11.7714 7.25 11.6686 7.10937L7.06744 0.875C6.85164 0.583333 6.6718 0.364583 6.52794 0.21875C6.38407 0.0729166 6.20681 0 5.99614 0C5.78548 0 5.60822 0.0729166 5.46435 0.21875C5.32562 0.364583 5.14836 0.583333 4.93256 0.875L0.331406 7.10937C0.223507 7.25 0.141297 7.39583 0.0847784 7.54687C0.0282595 7.69271 0 7.84375 0 8C0 8.15625 0.0282595 8.30729 0.0847784 8.45312C0.141297 8.59896 0.223507 8.74479 0.331406 8.89062L4.93256 15.1172C5.14836 15.4141 5.32562 15.6354 5.46435 15.7812C5.60822 15.9271 5.78548 16 5.99614 16ZM5.99614 14.3516C5.98073 14.3516 5.96532 14.3437 5.9499 14.3281C5.93963 14.3177 5.92935 14.3047 5.91907 14.2891L1.46435 8.21094C1.41297 8.14323 1.38728 8.07292 1.38728 8C1.38728 7.92708 1.41297 7.85677 1.46435 7.78906L5.91907 1.70312C5.92935 1.6875 5.93963 1.67448 5.9499 1.66406C5.96532 1.65365 5.98073 1.64844 5.99614 1.64844C6.0167 1.64844 6.03211 1.65365 6.04239 1.66406C6.05266 1.67448 6.06294 1.6875 6.07322 1.70312L10.5356 7.78906C10.587 7.85677 10.6127 7.92708 10.6127 8C10.6127 8.07292 10.587 8.14323 10.5356 8.21094L6.07322 14.2891C6.06294 14.3047 6.05266 14.3177 6.04239 14.3281C6.03211 14.3437 6.0167 14.3516 5.99614 14.3516Z"
		fill="currentColor"
	/>
</svg>
