<svg
	color="rgb(var(--foreground, 0, 0, 0))"
	viewBox="0 0 18 18"
	fill="none"
	xmlns="http://www.w3.org/2000/svg"
>
	<path
		d="M4.20077 15.8758H5.92071C6.07923 15.8758 6.21133 15.9313 6.31701 16.0423L7.53761 17.255C8.03959 17.7569 8.52836 18.0053 9.00392 18C9.47948 18 9.96561 17.7516 10.4623 17.255L11.6829 16.0423C11.7939 15.9313 11.9286 15.8758 12.0871 15.8758H13.7991C14.5072 15.8758 15.0303 15.7067 15.3685 15.3686C15.7067 15.0357 15.8758 14.5126 15.8758 13.7992V12.0872C15.8758 11.9287 15.9312 11.794 16.0422 11.683L17.2549 10.4624C17.7569 9.96569 18.0052 9.47956 17.9999 9.004C17.9999 8.52844 17.7516 8.03967 17.2549 7.5377L16.0422 6.31709C15.9312 6.20613 15.8758 6.07403 15.8758 5.92079V4.20085C15.8758 3.49808 15.7067 2.97761 15.3685 2.63944C15.0356 2.29598 14.5125 2.12425 13.7991 2.12425H12.0871C11.9286 2.12425 11.7939 2.07141 11.6829 1.96573L10.4623 0.753051C9.96561 0.245787 9.47948 -0.00520228 9.00392 8.17112e-05C8.52836 8.17112e-05 8.03959 0.251071 7.53761 0.753051L6.31701 1.96573C6.21133 2.07141 6.07923 2.12425 5.92071 2.12425H4.20077C3.49272 2.12425 2.9696 2.29333 2.63143 2.63151C2.29325 2.9644 2.12416 3.48752 2.12416 4.20085V5.92079C2.12416 6.07403 2.07132 6.20613 1.96564 6.31709L0.752969 7.5377C0.25099 8.03967 0 8.52844 0 9.004C0 9.47956 0.25099 9.96569 0.752969 10.4624L1.96564 11.683C2.07132 11.794 2.12416 11.9287 2.12416 12.0872V13.7992C2.12416 14.5073 2.29325 15.0304 2.63143 15.3686C2.9696 15.7067 3.49272 15.8758 4.20077 15.8758Z"
		fill="currentColor"
	/>
</svg>
