<svg
	color="rgb(var(--foreground, 0, 0, 0))"
	viewBox="0 0 13 16"
	fill="none"
	xmlns="http://www.w3.org/2000/svg"
>
	<path
		d="M6.5 16C6.56258 16 6.64079 15.9868 6.73466 15.9604C6.82852 15.934 6.92499 15.8944 7.02407 15.8416C8.13999 15.2079 9.07862 14.6455 9.83995 14.1545C10.6065 13.6686 11.2218 13.196 11.6859 12.7366C12.15 12.2772 12.4838 11.7809 12.6871 11.2475C12.8957 10.7089 13 10.0779 13 9.35446V3.29505C13 2.87789 12.914 2.57954 12.7419 2.4C12.5698 2.22046 12.3169 2.05941 11.9832 1.91683C11.8006 1.83762 11.5477 1.73729 11.2244 1.61584C10.9011 1.48911 10.5439 1.35446 10.1528 1.21188C9.76695 1.06403 9.37846 0.918812 8.98736 0.776238C8.59627 0.633663 8.23907 0.50429 7.91576 0.388119C7.59246 0.271947 7.33955 0.182178 7.15704 0.118812C7.05275 0.0871287 6.94324 0.0607261 6.82852 0.039604C6.71901 0.0132013 6.60951 0 6.5 0C6.39049 0 6.28099 0.0132013 6.17148 0.039604C6.06197 0.0660066 5.95507 0.0924092 5.85078 0.118812C5.66306 0.171617 5.40754 0.256106 5.08424 0.372277C4.76093 0.483168 4.40373 0.612541 4.01264 0.760396C3.62675 0.90297 3.23827 1.04818 2.84717 1.19604C2.45608 1.34389 2.09888 1.48119 1.77557 1.60792C1.45227 1.73465 1.19936 1.83762 1.01685 1.91683C0.688327 2.05413 0.435419 2.21518 0.258123 2.4C0.0860409 2.57954 0 2.87789 0 3.29505V9.35446C0 10.0779 0.104292 10.7063 0.312876 11.2396C0.52146 11.7729 0.857802 12.2693 1.3219 12.7287C1.786 13.1881 2.39872 13.6634 3.16005 14.1545C3.92659 14.6455 4.86522 15.2079 5.97593 15.8416C6.07501 15.8944 6.17148 15.934 6.26534 15.9604C6.35921 15.9868 6.43743 16 6.5 16ZM6.5 14.5663C6.43743 14.5663 6.36964 14.5505 6.29663 14.5188C6.22363 14.4924 6.12976 14.4449 6.01504 14.3762C5.11292 13.8218 4.35419 13.3465 3.73887 12.9505C3.12876 12.5492 2.6412 12.169 2.27617 11.8099C1.91115 11.4455 1.64781 11.0495 1.48616 10.6218C1.32451 10.1941 1.24368 9.67393 1.24368 9.06139V3.54059C1.24368 3.40858 1.25933 3.31089 1.29061 3.24752C1.32712 3.17888 1.40012 3.12343 1.50963 3.08119C1.74428 2.98614 2.01805 2.88053 2.33093 2.76436C2.6438 2.64818 2.97493 2.52673 3.32431 2.4C3.67369 2.27327 4.02306 2.14917 4.37244 2.02772C4.72182 1.90099 5.05295 1.77954 5.36582 1.66337C5.6787 1.54719 5.95247 1.44158 6.18712 1.34653C6.2497 1.32013 6.30706 1.30165 6.35921 1.29109C6.41135 1.28053 6.45828 1.27525 6.5 1.27525C6.54172 1.27525 6.58865 1.28053 6.64079 1.29109C6.69294 1.30165 6.7503 1.32013 6.81288 1.34653C7.04753 1.44158 7.3213 1.54983 7.63418 1.67129C7.94705 1.78746 8.27557 1.91155 8.61974 2.04356C8.96911 2.1703 9.31588 2.29703 9.66005 2.42376C10.0094 2.5505 10.3406 2.67195 10.6534 2.78812C10.9715 2.89901 11.2531 2.9967 11.4982 3.08119C11.6025 3.11815 11.6703 3.17096 11.7016 3.2396C11.7381 3.30825 11.7563 3.40858 11.7563 3.54059V9.06139C11.7563 9.67393 11.6755 10.1941 11.5138 10.6218C11.3574 11.0495 11.0941 11.4429 10.7238 11.802C10.3588 12.1611 9.86863 12.5413 9.25331 12.9426C8.6432 13.3439 7.88708 13.8218 6.98496 14.3762C6.87024 14.4449 6.77637 14.4924 6.70337 14.5188C6.63037 14.5505 6.56258 14.5663 6.5 14.5663Z"
		fill="currentColor"
	/>
</svg>
