<svg
	color="rgb(var(--foreground, 0, 0, 0))"
	viewBox="0 0 17 16"
	fill="none"
	xmlns="http://www.w3.org/2000/svg"
>
	<path
		d="M6.6129 4.02639L12.546 9.85485L16.4197 7.11027C16.6596 6.94439 16.8255 6.77348 16.9173 6.59755C17.0092 6.42161 17.0245 6.24065 16.9633 6.05467C16.902 5.8737 16.7821 5.73798 16.6034 5.6475C16.4248 5.55702 16.1875 5.51429 15.8915 5.51932L10.8771 5.54948L9.3536 0.836946C9.26173 0.560477 9.14435 0.351869 9.00144 0.211122C8.86364 0.0703739 8.69522 0 8.49617 0C8.30223 0 8.13381 0.0703739 7.9909 0.211122C7.8531 0.351869 7.73827 0.560477 7.6464 0.836946L6.6129 4.02639ZM3.8722 5.5344L1.10853 5.51932C0.812513 5.51429 0.57519 5.55702 0.396559 5.6475C0.217929 5.73798 0.0979915 5.8737 0.0367468 6.05467C-0.0244979 6.24065 -0.00918671 6.42161 0.0826804 6.59755C0.174547 6.77348 0.340419 6.94439 0.580294 7.11027L4.66838 10.0057L3.06836 14.6956C2.97139 14.967 2.93821 15.2008 2.96884 15.3968C3.00456 15.5928 3.10153 15.7487 3.25975 15.8643C3.41796 15.9849 3.5966 16.0251 3.79564 15.9849C3.99469 15.9497 4.21159 15.8492 4.44637 15.6833L8.49617 12.7502L12.5536 15.6833C12.7884 15.8492 13.0053 15.9497 13.2044 15.9849C13.4034 16.0251 13.582 15.9849 13.7403 15.8643C13.7811 15.8341 13.8143 15.7989 13.8398 15.7587C13.8653 15.7235 13.8832 15.6733 13.8934 15.6079C13.9036 15.5476 13.9036 15.4672 13.8934 15.3666L3.8722 5.5344ZM15.1183 15.2988C15.2356 15.4094 15.376 15.4647 15.5393 15.4647C15.7026 15.4647 15.8404 15.4094 15.9527 15.2988C16.065 15.1832 16.1211 15.0449 16.1211 14.8841C16.1262 14.7232 16.0701 14.5875 15.9527 14.4769L3.55832 2.30726C3.44093 2.19164 3.30058 2.13384 3.13726 2.13384C2.97394 2.13384 2.83359 2.19164 2.7162 2.30726C2.60392 2.41784 2.54778 2.55608 2.54778 2.72196C2.54778 2.88281 2.60392 3.01854 2.7162 3.12912L15.1183 15.2988Z"
		fill="currentColor"
	/>
</svg>
