<svg
	color="rgb(var(--foreground, 0, 0, 0))"
	viewBox="0 0 15 16"
	fill="none"
	xmlns="http://www.w3.org/2000/svg"
>
	<path
		d="M0 9.72303C0 10.3374 0.149174 10.8924 0.447523 11.388C0.745871 11.8836 1.15077 12.2759 1.66223 12.565C2.17368 12.8542 2.7464 12.9987 3.38039 12.9987C3.91316 12.9987 4.42461 12.9058 4.91476 12.7199C5.4049 12.5289 5.76718 12.2062 6.0016 11.7519H6.08151C6.08151 12.0101 6.02025 12.2553 5.89771 12.4876C5.77517 12.7199 5.62334 12.9368 5.44219 13.1381C5.26105 13.3394 5.07725 13.5227 4.89078 13.6879C4.70964 13.8531 4.56047 13.9951 4.44326 14.1138C4.29941 14.2584 4.20884 14.4107 4.17155 14.5707C4.13958 14.7308 4.15024 14.8805 4.20352 15.0199C4.26212 15.1644 4.35535 15.2806 4.48322 15.3684C4.61641 15.4561 4.77624 15.5 4.96271 15.5H10.0373C10.2238 15.5 10.3809 15.4561 10.5088 15.3684C10.6367 15.2806 10.7299 15.1644 10.7885 15.0199C10.8471 14.8805 10.8578 14.7308 10.8205 14.5707C10.7885 14.4107 10.7006 14.2584 10.5567 14.1138C10.4342 13.9951 10.2824 13.8531 10.1012 13.6879C9.92009 13.5227 9.73895 13.3394 9.55781 13.1381C9.37667 12.9368 9.22483 12.7199 9.10229 12.4876C8.97976 12.2553 8.91849 12.0101 8.91849 11.7519H8.9984C9.23282 12.2062 9.5951 12.5289 10.0852 12.7199C10.5754 12.9058 11.0842 12.9987 11.6116 12.9987C12.2509 12.9987 12.8263 12.8542 13.3378 12.565C13.8492 12.2759 14.2541 11.8836 14.5525 11.388C14.8508 10.8924 15 10.3374 15 9.72303C15 9.14481 14.8801 8.61564 14.6404 8.13552C14.406 7.65023 14.0916 7.19334 13.6974 6.76484C13.3031 6.33118 12.8636 5.90527 12.3788 5.48709C11.894 5.06892 11.4012 4.63784 10.9004 4.19386C10.3996 3.74987 9.92541 3.27233 9.47789 2.76123C9.03037 2.25013 8.64678 1.68224 8.32712 1.05756C8.2472 0.902685 8.14065 0.771038 8.00746 0.662623C7.8796 0.554208 7.70911 0.5 7.496 0.5C7.28823 0.5 7.11774 0.554208 6.98455 0.662623C6.85669 0.771038 6.7528 0.902685 6.67288 1.05756C6.35322 1.68224 5.96963 2.25013 5.52211 2.76123C5.07459 3.27233 4.59776 3.74987 4.09164 4.19386C3.59084 4.63784 3.09803 5.06892 2.61321 5.48709C2.13372 5.90527 1.69686 6.33118 1.30261 6.76484C0.908364 7.19334 0.591369 7.65023 0.351625 8.13552C0.117208 8.61564 0 9.14481 0 9.72303Z"
		fill="currentColor"
	/>
</svg>
