<svg
	color="rgb(var(--foreground, 0, 0, 0))"
	viewBox="0 0 15 16"
	fill="none"
	xmlns="http://www.w3.org/2000/svg"
>
	<path
		d="M0 9.66102C0 10.3228 0.141183 10.9039 0.423548 11.4041C0.705914 11.8992 1.10016 12.2848 1.60629 12.561C2.11774 12.8372 2.71444 12.9752 3.39638 12.9752C3.92381 12.9752 4.41929 12.8788 4.88279 12.686C5.3463 12.4932 5.71657 12.2431 5.99361 11.9356L5.84177 11.6464C5.77251 12.0268 5.64997 12.3734 5.47416 12.686C5.30368 12.9935 5.11987 13.2671 4.92275 13.5068C4.72563 13.7413 4.55781 13.9393 4.41929 14.1008C4.29675 14.252 4.21684 14.4083 4.17954 14.5698C4.14758 14.7366 4.15823 14.8903 4.21151 15.031C4.26478 15.1717 4.36068 15.2837 4.4992 15.3671C4.63772 15.4557 4.81353 15.5 5.02664 15.5H9.97336C10.1865 15.5 10.3623 15.4557 10.5008 15.3671C10.6393 15.2837 10.7352 15.1717 10.7885 15.031C10.8418 14.8903 10.8498 14.7366 10.8125 14.5698C10.7805 14.4083 10.7006 14.252 10.5727 14.1008C10.4342 13.9393 10.2664 13.7413 10.0693 13.5068C9.87746 13.2671 9.69366 12.9935 9.51785 12.686C9.34736 12.3734 9.22749 12.0268 9.15823 11.6464L9.00639 11.9356C9.28343 12.2431 9.6537 12.4932 10.1172 12.686C10.5807 12.8788 11.0762 12.9752 11.6036 12.9752C12.2856 12.9752 12.8796 12.8372 13.3857 12.561C13.8972 12.2848 14.2941 11.8992 14.5765 11.4041C14.8588 10.9039 15 10.3228 15 9.66102C15 9.10865 14.8801 8.59797 14.6404 8.12897C14.406 7.65998 14.089 7.21183 13.6894 6.78452C13.2952 6.35722 12.853 5.93252 12.3628 5.51042C11.878 5.08833 11.3825 4.6532 10.8764 4.20505C10.3756 3.75169 9.89878 3.26967 9.44592 2.75899C8.99307 2.24831 8.60416 1.68551 8.27917 1.07061C8.19393 0.914278 8.09537 0.781397 7.98348 0.671965C7.87693 0.557322 7.71444 0.5 7.496 0.5C7.2829 0.5 7.12041 0.557322 7.00852 0.671965C6.90197 0.781397 6.80607 0.914278 6.72083 1.07061C6.39584 1.68551 6.00693 2.24831 5.55408 2.75899C5.10123 3.26967 4.62174 3.75169 4.11561 4.20505C3.60948 4.6532 3.11401 5.08833 2.6292 5.51042C2.14438 5.93252 1.70218 6.35722 1.30261 6.78452C0.908364 7.21183 0.591369 7.65998 0.351625 8.12897C0.117208 8.59797 0 9.10865 0 9.66102ZM1.17475 9.64539C1.17475 9.20766 1.28396 8.79859 1.5024 8.41819C1.72616 8.03778 2.02184 7.6678 2.38945 7.30823C2.76239 6.94867 3.17528 6.58129 3.62813 6.2061C4.08631 5.82569 4.55248 5.41923 5.02664 4.98671C5.5008 4.55419 5.95365 4.07478 6.38519 3.54846C6.81673 3.02215 7.187 2.43069 7.496 1.7741C7.81034 2.43069 8.18327 3.02215 8.61481 3.54846C9.04635 4.07478 9.4992 4.55419 9.97336 4.98671C10.4475 5.41923 10.911 5.82569 11.3639 6.2061C11.8221 6.58129 12.235 6.94867 12.6026 7.30823C12.9755 7.6678 13.2712 8.03778 13.4896 8.41819C13.7134 8.79859 13.8253 9.20766 13.8253 9.64539C13.8253 10.3176 13.6148 10.8596 13.1939 11.2712C12.773 11.6829 12.2163 11.8887 11.5237 11.8887C11.0442 11.8887 10.61 11.8028 10.2211 11.6308C9.83751 11.4536 9.51518 11.2478 9.25413 11.0133C9.08897 10.8726 8.91582 10.8022 8.73468 10.8022C8.55354 10.797 8.4017 10.8544 8.27917 10.9742C8.15663 11.0941 8.10069 11.2712 8.11135 11.5057C8.13799 11.7767 8.20991 12.0763 8.32712 12.4046C8.44965 12.7329 8.59616 13.056 8.76665 13.3739C8.94246 13.6866 9.1236 13.9549 9.31007 14.179C9.36867 14.2467 9.38466 14.3041 9.35802 14.351C9.33671 14.3979 9.29675 14.4213 9.23815 14.4213H5.76185C5.69792 14.4213 5.6553 14.3979 5.63399 14.351C5.61268 14.3041 5.63133 14.2467 5.68993 14.179C5.8764 13.9549 6.05487 13.6866 6.22536 13.3739C6.40117 13.056 6.54768 12.7329 6.66489 12.4046C6.78743 12.0763 6.86201 11.7767 6.88865 11.5057C6.89931 11.2712 6.84337 11.0941 6.72083 10.9742C6.5983 10.8544 6.44646 10.797 6.26532 10.8022C6.08418 10.8022 5.91103 10.8726 5.74587 11.0133C5.48482 11.2478 5.15983 11.4536 4.77091 11.6308C4.38732 11.8028 3.95578 11.8887 3.47629 11.8887C2.7837 11.8887 2.22696 11.6829 1.80607 11.2712C1.38519 10.8596 1.17475 10.3176 1.17475 9.64539Z"
		fill="currentColor"
	/>
</svg>
