<svg
	color="rgb(var(--foreground, 0, 0, 0))"
	viewBox="0 0 15 16"
	fill="none"
	xmlns="http://www.w3.org/2000/svg"
>
	<path
		d="M0 9.46488C0 10.1567 0.141584 10.7608 0.424751 11.277C0.707918 11.7932 1.10383 12.1951 1.61248 12.4824C2.12113 12.7698 2.71631 12.9135 3.39801 12.9135C3.91715 12.9135 4.41531 12.8177 4.8925 12.6261C5.36969 12.4345 5.73676 12.1791 5.99371 11.8598L5.86786 11.5644C5.79444 11.9529 5.67121 12.3068 5.49816 12.6261C5.33036 12.9401 5.14945 13.2195 4.95543 13.4643C4.76665 13.7038 4.60409 13.9061 4.46775 14.071C4.34714 14.2254 4.26848 14.385 4.23178 14.55C4.20031 14.7203 4.2108 14.8773 4.26324 15.021C4.31568 15.1647 4.40745 15.2791 4.53854 15.3643C4.67488 15.4548 4.85055 15.5 5.06555 15.5H9.93445C10.1442 15.5 10.3173 15.4548 10.4536 15.3643C10.5899 15.2791 10.6843 15.1647 10.7368 15.021C10.7892 14.8773 10.7971 14.7203 10.7604 14.55C10.7289 14.385 10.6502 14.2254 10.5244 14.071C10.388 13.9061 10.2229 13.7038 10.0288 13.4643C9.84006 13.2195 9.66177 12.9401 9.49397 12.6261C9.32617 12.3068 9.20556 11.9529 9.13214 11.5644L9.00629 11.8598C9.26324 12.1791 9.63031 12.4345 10.1075 12.6261C10.5847 12.8177 11.0829 12.9135 11.602 12.9135C12.2837 12.9135 12.8789 12.7698 13.3875 12.4824C13.8962 12.1951 14.2921 11.7932 14.5752 11.277C14.8584 10.7608 15 10.1567 15 9.46488C15 8.82624 14.8453 8.24614 14.5359 7.72459C14.2318 7.20303 13.8228 6.78792 13.3089 6.47924C12.795 6.16525 12.2286 6.00825 11.6099 6.00825C11.1746 6.00825 10.742 6.09074 10.312 6.25572C9.88726 6.41538 9.49921 6.64156 9.14788 6.93427L9.2344 7.0141C9.63293 6.748 9.95281 6.44465 10.194 6.10404C10.4405 5.75812 10.6188 5.40154 10.7289 5.03433C10.839 4.66179 10.8941 4.30255 10.8941 3.95663C10.8941 3.31799 10.7394 2.73789 10.43 2.21634C10.1259 1.69478 9.71683 1.27967 9.20294 0.970995C8.68904 0.656998 8.12008 0.5 7.49607 0.5C6.87729 0.5 6.31096 0.656998 5.79706 0.970995C5.28317 1.27967 4.87153 1.69478 4.56214 2.21634C4.258 2.73789 4.10593 3.31799 4.10593 3.95663C4.10593 4.30255 4.16099 4.65913 4.27111 5.02634C4.38123 5.39356 4.5569 5.75013 4.79811 6.09606C5.03933 6.43667 5.35658 6.74268 5.74987 7.0141L5.82066 6.91032C5.47981 6.62826 5.09701 6.4074 4.67226 6.24774C4.25275 6.08808 3.82538 6.00825 3.39014 6.00825C2.77137 6.00825 2.20503 6.16525 1.69114 6.47924C1.17724 6.78792 0.7656 7.20303 0.456214 7.72459C0.152071 8.24614 0 8.82624 0 9.46488ZM1.11694 9.48882C1.11694 9.06307 1.21919 8.67456 1.4237 8.32331C1.62821 7.97206 1.90351 7.69266 2.24961 7.4851C2.5957 7.27754 2.97588 7.17376 3.39014 7.17376C3.87257 7.17376 4.28684 7.23496 4.63293 7.35737C4.98427 7.47978 5.29365 7.59686 5.56109 7.70862C5.6817 7.7512 5.79182 7.78579 5.89145 7.8124C5.99633 7.83901 6.09858 7.85231 6.19822 7.85231C6.3398 7.85231 6.46827 7.80708 6.58364 7.7166C6.699 7.62081 6.75669 7.47978 6.75669 7.29351C6.75669 7.19239 6.73833 7.09127 6.70163 6.99015C6.66492 6.88904 6.60986 6.7959 6.53644 6.71075C6.30047 6.43401 6.08285 6.16525 5.88359 5.90447C5.68432 5.64369 5.52438 5.36163 5.40378 5.05828C5.28317 4.75492 5.22286 4.39569 5.22286 3.98057C5.22286 3.54949 5.32512 3.16099 5.52963 2.81506C5.73414 2.46381 6.00682 2.18441 6.34767 1.97685C6.69376 1.76929 7.07656 1.66551 7.49607 1.66551C7.92082 1.66551 8.30362 1.76929 8.64447 1.97685C8.99056 2.18441 9.26586 2.46381 9.47037 2.81506C9.67488 3.16099 9.77714 3.54949 9.77714 3.98057C9.77714 4.39569 9.71683 4.75492 9.59622 5.05828C9.47562 5.36163 9.31306 5.64369 9.10855 5.90447C8.90928 6.16525 8.69428 6.43401 8.46356 6.71075C8.39014 6.7959 8.33508 6.88904 8.29837 6.99015C8.26167 7.09127 8.24331 7.19239 8.24331 7.29351C8.24331 7.47978 8.301 7.62081 8.41636 7.7166C8.53172 7.80708 8.6602 7.85231 8.80178 7.85231C8.90142 7.85231 9.00105 7.83901 9.10068 7.8124C9.20031 7.78579 9.31044 7.7512 9.43104 7.70862C9.69848 7.60218 10.0052 7.48776 10.3513 7.36535C10.7027 7.23763 11.1222 7.17376 11.6099 7.17376C12.0241 7.17376 12.4017 7.27754 12.7425 7.4851C13.0886 7.69266 13.3639 7.97206 13.5684 8.32331C13.7782 8.67456 13.8831 9.06307 13.8831 9.48882C13.8831 10.1754 13.6733 10.7288 13.2538 11.1493C12.8395 11.5697 12.2889 11.7799 11.602 11.7799C11.13 11.7799 10.6791 11.6974 10.2491 11.5325C9.82433 11.3622 9.48086 11.1573 9.21867 10.9178C9.06135 10.7741 8.89355 10.7022 8.71526 10.7022C8.53697 10.6969 8.38752 10.7555 8.26691 10.8779C8.1463 11.0003 8.09124 11.1812 8.10173 11.4207C8.12795 11.6974 8.19874 12.0035 8.31411 12.3387C8.43471 12.674 8.57892 13.004 8.74672 13.3286C8.91977 13.648 9.09806 13.922 9.28159 14.1509C9.33928 14.2201 9.35501 14.2786 9.32879 14.3265C9.30781 14.3744 9.26848 14.3983 9.2108 14.3983H5.7892C5.72627 14.3983 5.68432 14.3744 5.66335 14.3265C5.64237 14.2786 5.66072 14.2201 5.71841 14.1509C5.90194 13.922 6.07761 13.648 6.24541 13.3286C6.41846 13.004 6.56266 12.674 6.67803 12.3387C6.79864 12.0035 6.87205 11.6974 6.89827 11.4207C6.90876 11.1812 6.8537 11.0003 6.73309 10.8779C6.61248 10.7555 6.46303 10.6969 6.28474 10.7022C6.10645 10.7022 5.93603 10.7741 5.77347 10.9178C5.51652 11.1573 5.17305 11.3622 4.74305 11.5325C4.3183 11.6974 3.86995 11.7799 3.39801 11.7799C2.71106 11.7799 2.15784 11.5697 1.73833 11.1493C1.32407 10.7288 1.11694 10.1754 1.11694 9.48882Z"
		fill="currentColor"
	/>
</svg>
