<svg
	color="rgb(var(--foreground, 0, 0, 0))"
	viewBox="0 0 16 14"
	fill="none"
	xmlns="http://www.w3.org/2000/svg"
>
	<path
		d="M2.08397 14H13.916C14.3486 14 14.7201 13.9116 15.0305 13.7347C15.341 13.5579 15.5802 13.3172 15.7481 13.0126C15.916 12.713 16 12.3765 16 12.0032C16 11.8312 15.9746 11.6568 15.9237 11.48C15.8728 11.3032 15.799 11.1337 15.7023 10.9716L9.77863 1.00947C9.58015 0.675439 9.32061 0.424912 9 0.257895C8.68448 0.0859649 8.35114 0 8 0C7.64886 0 7.31298 0.0859649 6.99237 0.257895C6.67176 0.424912 6.41476 0.675439 6.22137 1.00947L0.29771 10.9716C0.0992366 11.3007 0 11.6446 0 12.0032C0 12.3765 0.0839695 12.713 0.251908 13.0126C0.419847 13.3172 0.659033 13.5579 0.969466 13.7347C1.2799 13.9116 1.6514 14 2.08397 14ZM2.0916 12.8432C1.82697 12.8432 1.61832 12.7572 1.46565 12.5853C1.31298 12.4182 1.23664 12.2218 1.23664 11.9958C1.23664 11.927 1.24427 11.8509 1.25954 11.7674C1.2799 11.6839 1.31043 11.6028 1.35115 11.5242L7.26718 1.56947C7.3486 1.43193 7.45547 1.33368 7.58779 1.27474C7.7201 1.21088 7.85751 1.17895 8 1.17895C8.14249 1.17895 8.27735 1.21088 8.40458 1.27474C8.5369 1.33368 8.64377 1.43193 8.72519 1.56947L14.6412 11.5316C14.7226 11.6839 14.7634 11.8386 14.7634 11.9958C14.7634 12.2218 14.6845 12.4182 14.5267 12.5853C14.374 12.7572 14.1654 12.8432 13.9008 12.8432H2.0916Z"
		fill="currentColor"
	/>
</svg>
