<svg
	color="rgb(var(--foreground, 0, 0, 0))"
	viewBox="0 0 16 14"
	fill="none"
	xmlns="http://www.w3.org/2000/svg"
>
	<path
		d="M2.08397 14H13.916C14.3486 14 14.7201 13.9116 15.0305 13.7347C15.341 13.5579 15.5802 13.3172 15.7481 13.0126C15.916 12.713 16 12.3765 16 12.0032C16 11.8312 15.9746 11.6568 15.9237 11.48C15.8728 11.3032 15.799 11.1337 15.7023 10.9716L9.77864 1.00947C9.58016 0.675439 9.32062 0.424912 9.00001 0.257895C8.68449 0.0859649 8.35115 0 8.00001 0C7.64886 0 7.31298 0.0859649 6.99237 0.257895C6.67176 0.424912 6.41476 0.675439 6.22138 1.00947L0.29771 10.9716C0.0992367 11.3007 0 11.6446 0 12.0032C0 12.3765 0.0839695 12.713 0.251909 13.0126C0.419848 13.3172 0.659034 13.5579 0.969467 13.7347C1.2799 13.9116 1.6514 14 2.08397 14Z"
		fill="currentColor"
	/>
</svg>
