<svg
	color="rgb(var(--foreground, 0, 0, 0))"
	viewBox="0 0 18 19"
	fill="none"
	xmlns="http://www.w3.org/2000/svg"
>
	<path
		d="M0.1875 17.1961L5.44565 12.1396L1.03533 7.9576C0.839674 7.76678 0.839674 7.59982 1.03533 7.45671L8.01359 2.19346C8.22554 2.03445 8.40217 1.91519 8.54348 1.83569C8.68478 1.75618 8.83696 1.71643 9 1.71643C9.16304 1.71643 9.3125 1.75618 9.44837 1.83569C9.58967 1.91519 9.76902 2.03445 9.98641 2.19346L16.9647 7.45671C17.1603 7.59982 17.1603 7.76678 16.9647 7.9576L12.5788 12.1396L17.8125 17.1802C17.9375 16.9576 18 16.576 18 16.0353V7.9735C18 7.69258 17.9783 7.45141 17.9348 7.25C17.8967 7.04859 17.8234 6.86837 17.7147 6.70936C17.606 6.54505 17.4511 6.38339 17.25 6.22438L10.6793 1.2553C10.375 1.02208 10.0924 0.839223 9.83152 0.706714C9.57609 0.568905 9.29891 0.5 9 0.5C8.70109 0.5 8.4212 0.568905 8.16033 0.706714C7.90489 0.839223 7.625 1.02208 7.32065 1.2553L0.741848 6.22438C0.546196 6.38339 0.394022 6.54505 0.285326 6.70936C0.182065 6.86837 0.108696 7.04859 0.0652174 7.25C0.0217391 7.45141 0 7.69258 0 7.9735V16.0353C0 16.5813 0.0625 16.9682 0.1875 17.1961ZM2.31522 18.5H15.4402C16.25 18.5 16.8071 18.3569 17.1114 18.0707L10.019 11.2332C9.67663 10.8993 9.34239 10.7323 9.0163 10.7323C8.68478 10.7323 8.35054 10.8993 8.01359 11.2332L0.872283 18.1104C1.14402 18.3701 1.625 18.5 2.31522 18.5Z"
		fill="currentColor"
	/>
</svg>
