<svg
	color="rgb(var(--foreground, 0, 0, 0))"
	viewBox="0 0 18 13"
	fill="none"
	xmlns="http://www.w3.org/2000/svg"
>
	<path
		d="M2.55978 13H15.6848C16.4185 13 16.9864 12.8038 17.3886 12.4115C17.7962 12.0242 18 11.4407 18 10.6611V2.3314C18 1.55678 17.7853 0.975818 17.356 0.588509C16.9321 0.19617 16.2935 0 15.4402 0H2.31522C1.58152 0 1.01087 0.19617 0.603261 0.588509C0.201087 0.975818 0 1.55678 0 2.3314V10.6611C0 11.4407 0.211957 12.0242 0.63587 12.4115C1.06522 12.8038 1.70652 13 2.55978 13ZM2.51087 11.8456C2.10326 11.8456 1.79076 11.7475 1.57337 11.5514C1.35598 11.3502 1.24728 11.0534 1.24728 10.6611V2.3314C1.24728 1.94409 1.35598 1.65235 1.57337 1.45618C1.79076 1.25498 2.10326 1.15438 2.51087 1.15438H15.4891C15.8913 1.15438 16.2011 1.25498 16.4185 1.45618C16.6413 1.65235 16.7527 1.94661 16.7527 2.33894V10.6686C16.7527 11.0559 16.6413 11.3502 16.4185 11.5514C16.2011 11.7475 15.8913 11.8456 15.4891 11.8456H2.51087ZM9.0163 8.51075C9.30435 8.51075 9.58696 8.45291 9.86413 8.33722C10.1413 8.22153 10.4239 8.0329 10.712 7.77134L17.3315 1.75044L16.4837 0.958213L10.0027 6.88103C9.82337 7.04199 9.65217 7.1602 9.48913 7.23565C9.33152 7.3111 9.17391 7.34882 9.0163 7.34882C8.85326 7.34882 8.69022 7.3111 8.52717 7.23565C8.36957 7.15517 8.2038 7.03696 8.02989 6.88103L1.5163 0.928033L0.660326 1.72026L7.32065 7.77134C7.60326 8.0329 7.88315 8.22153 8.16033 8.33722C8.44293 8.45291 8.72826 8.51075 9.0163 8.51075ZM16.4022 12.0116L17.25 11.2194L11.9755 6.39815L11.1277 7.18283L16.4022 12.0116ZM0.774457 11.2269L1.62228 12.0192L6.90489 7.18283L6.04891 6.39815L0.774457 11.2269Z"
		fill="currentColor"
	/>
</svg>
