<svg
	color="rgb(var(--foreground, 0, 0, 0))"
	viewBox="0 0 18 19"
	fill="none"
	xmlns="http://www.w3.org/2000/svg"
>
	<path
		d="M2.55978 18.5H15.4402C16.2935 18.5 16.9321 18.2957 17.356 17.8872C17.7853 17.4839 18 16.8763 18 16.0644V8.24684C18 7.96399 17.981 7.71519 17.9429 7.50044C17.9103 7.28568 17.8533 7.0945 17.7717 6.92689C17.6957 6.75928 17.5924 6.60476 17.462 6.46333C17.3315 6.31667 17.1712 6.17001 16.981 6.02335L10.6793 1.2464C10.3859 1.01593 10.106 0.835225 9.83967 0.704278C9.5788 0.568093 9.29891 0.5 9 0.5C8.70109 0.5 8.41848 0.568093 8.15217 0.704278C7.8913 0.835225 7.61413 1.01593 7.32065 1.2464L1.01902 6.02335C0.828804 6.17001 0.668478 6.31667 0.538043 6.46333C0.407609 6.60476 0.30163 6.75928 0.220109 6.92689C0.144022 7.0945 0.0869565 7.28568 0.048913 7.50044C0.0163043 7.71519 0 7.96399 0 8.24684V16.0644C0 16.8763 0.211957 17.4839 0.63587 17.8872C1.06522 18.2957 1.70652 18.5 2.55978 18.5ZM2.51087 17.2979C2.10326 17.2979 1.79076 17.1931 1.57337 16.9836C1.35598 16.7794 1.24728 16.4729 1.24728 16.0644V8.0347C1.24728 7.84614 1.2663 7.68638 1.30435 7.55543C1.34239 7.42449 1.39946 7.30925 1.47554 7.20973C1.55707 7.10498 1.66304 7.00284 1.79348 6.90332L8.02174 2.22065C8.22283 2.07399 8.3913 1.96137 8.52717 1.8828C8.66304 1.799 8.82065 1.75709 9 1.75709C9.17935 1.75709 9.33696 1.799 9.47283 1.8828C9.6087 1.96137 9.77717 2.07399 9.97826 2.22065L16.2065 6.90332C16.337 7.00284 16.4402 7.10498 16.5163 7.20973C16.5978 7.30925 16.6576 7.42449 16.6957 7.55543C16.7337 7.68638 16.7527 7.84614 16.7527 8.0347V16.0644C16.7527 16.4729 16.6413 16.7794 16.4185 16.9836C16.2011 17.1931 15.8913 17.2979 15.4891 17.2979H2.51087ZM0.921196 17.0151L1.77717 17.8322L8.02989 11.8924C8.2038 11.7196 8.36957 11.5965 8.52717 11.5231C8.69022 11.4446 8.85326 11.4053 9.0163 11.4053C9.17391 11.4053 9.33152 11.4446 9.48913 11.5231C9.65217 11.5965 9.82337 11.7196 10.0027 11.8924L16.2554 17.8322L17.1033 17.0151L10.712 10.9653C10.4239 10.6929 10.1413 10.4965 9.86413 10.376C9.58696 10.2556 9.30435 10.1953 9.0163 10.1953C8.72826 10.1953 8.44293 10.2556 8.16033 10.376C7.88315 10.4965 7.60326 10.6929 7.32065 10.9653L0.921196 17.0151ZM6.04891 12.3874L6.90489 11.5781L1.80978 6.72261L0.961957 7.53972L6.04891 12.3874ZM11.1277 11.5781L11.9755 12.3874L17.0625 7.53972L16.2147 6.72261L11.1277 11.5781Z"
		fill="currentColor"
	/>
</svg>
