<svg
	color="rgb(var(--foreground, 0, 0, 0))"
	viewBox="0 0 16 17"
	fill="none"
	xmlns="http://www.w3.org/2000/svg"
>
	<path
		d="M3.11436 8.48436C2.94826 8.48436 2.8133 8.42962 2.70949 8.32015C2.60568 8.20546 2.55377 8.07252 2.55377 7.92134C2.55377 7.76495 2.60568 7.63201 2.70949 7.52254C2.8133 7.41306 2.94826 7.35833 3.11436 7.35833H8.20633C8.35685 7.35833 8.48402 7.41306 8.58783 7.52254C8.69684 7.63201 8.75134 7.76495 8.75134 7.92134C8.75134 8.07252 8.69684 8.20546 8.58783 8.32015C8.48402 8.42962 8.35685 8.48436 8.20633 8.48436H3.11436ZM3.11436 10.5957C2.94826 10.5957 2.8133 10.5435 2.70949 10.4393C2.60568 10.335 2.55377 10.2047 2.55377 10.0483C2.55377 9.8919 2.60568 9.75897 2.70949 9.64949C2.8133 9.54002 2.94826 9.48528 3.11436 9.48528H6.75036C6.90608 9.48528 7.03585 9.54002 7.13966 9.64949C7.24866 9.75897 7.30316 9.8919 7.30316 10.0483C7.30316 10.2047 7.24866 10.335 7.13966 10.4393C7.03585 10.5435 6.90608 10.5957 6.75036 10.5957H3.11436ZM11.8579 10.8068C11.5049 10.8068 11.1857 10.7234 10.9002 10.5566C10.6148 10.3845 10.3864 10.1552 10.2151 9.86845C10.0438 9.57651 9.95815 9.2559 9.95815 8.90662C9.95815 8.55734 10.0438 8.23934 10.2151 7.95262C10.3864 7.66069 10.6148 7.43131 10.9002 7.26449C11.1857 7.09246 11.5049 7.00644 11.8579 7.00644C12.2005 7.00644 12.5145 7.09246 12.8 7.26449C13.0907 7.43131 13.3191 7.66069 13.4852 7.95262C13.6564 8.23934 13.7421 8.55734 13.7421 8.90662C13.7421 9.2559 13.6564 9.57651 13.4852 9.86845C13.3191 10.1552 13.0907 10.3845 12.8 10.5566C12.5145 10.7234 12.2005 10.8068 11.8579 10.8068ZM2.36691 17H13.6331C14.4169 17 15.006 16.8019 15.4005 16.4057C15.8002 16.0095 16 15.423 16 14.6463V6.77967C16 6.00291 15.8002 5.41904 15.4005 5.02806C15.006 4.63186 14.4169 4.43376 13.6331 4.43376H2.36691C1.57794 4.43376 0.986212 4.63186 0.591727 5.02806C0.197242 5.41904 0 6.00291 0 6.77967V14.6463C0 15.4282 0.197242 16.0147 0.591727 16.4057C0.986212 16.8019 1.57794 17 2.36691 17ZM1.4871 3.17479H14.5207C14.4584 2.8203 14.3338 2.54922 14.147 2.36155C13.9653 2.16866 13.6798 2.07222 13.2905 2.07222H2.71727C2.32798 2.07222 2.0399 2.16866 1.85304 2.36155C1.66618 2.54922 1.5442 2.8203 1.4871 3.17479ZM3.091 1.00874H12.9168C12.8908 0.6751 12.7844 0.42487 12.5976 0.25805C12.4107 0.0860166 12.1356 0 11.7723 0H4.22774C3.86959 0 3.59448 0.0860166 3.40243 0.25805C3.21557 0.42487 3.11176 0.6751 3.091 1.00874Z"
		fill="currentColor"
	/>
</svg>
