<svg
	color="rgb(var(--foreground, 0, 0, 0))"
	viewBox="0 0 16 17"
	fill="none"
	xmlns="http://www.w3.org/2000/svg"
>
	<path
		d="M3.2 8.5H8.04964C8.1922 8.5 8.3144 8.44881 8.41623 8.34643C8.51806 8.23893 8.56897 8.11352 8.56897 7.97019C8.56897 7.82174 8.51806 7.69633 8.41623 7.59395C8.3144 7.49157 8.1922 7.44038 8.04964 7.44038H3.2C3.04726 7.44038 2.91997 7.49157 2.81814 7.59395C2.7214 7.69633 2.67303 7.82174 2.67303 7.97019C2.67303 8.11352 2.7214 8.23893 2.81814 8.34643C2.91997 8.44881 3.04726 8.5 3.2 8.5ZM3.2 10.5117H6.65967C6.80732 10.5117 6.93206 10.4631 7.03389 10.3659C7.13572 10.2635 7.18664 10.1381 7.18664 9.98961C7.18664 9.84116 7.13572 9.71575 7.03389 9.61337C6.93206 9.51099 6.80732 9.4598 6.65967 9.4598H3.2C3.04726 9.4598 2.91997 9.51099 2.81814 9.61337C2.7214 9.71575 2.67303 9.84116 2.67303 9.98961C2.67303 10.1381 2.7214 10.2635 2.81814 10.3659C2.91997 10.4631 3.04726 10.5117 3.2 10.5117ZM11.5246 10.7191C11.8504 10.7191 12.1483 10.6397 12.4181 10.481C12.6931 10.3172 12.9095 10.0971 13.0673 9.82069C13.2302 9.54426 13.3117 9.23969 13.3117 8.90696C13.3117 8.57422 13.2302 8.27221 13.0673 8.0009C12.9095 7.72448 12.6931 7.50437 12.4181 7.34056C12.1483 7.17675 11.8504 7.09485 11.5246 7.09485C11.1885 7.09485 10.8831 7.17675 10.6081 7.34056C10.3383 7.50437 10.1219 7.72448 9.95895 8.0009C9.79602 8.27221 9.71456 8.57422 9.71456 8.90696C9.71456 9.23969 9.79602 9.54426 9.95895 9.82069C10.1219 10.0971 10.3383 10.3172 10.6081 10.481C10.8831 10.6397 11.1885 10.7191 11.5246 10.7191ZM2.39809 17H13.6019C14.3962 17 14.9944 16.8004 15.3967 16.4011C15.7989 16.0018 16 15.408 16 14.6197V6.73397C16 5.94565 15.7989 5.35185 15.3967 4.95257C14.9944 4.5533 14.3962 4.35366 13.6019 4.35366H2.39809C1.59873 4.35366 0.997932 4.5533 0.595704 4.95257C0.198568 5.34673 0 5.94053 0 6.73397V14.6197C0 15.4131 0.198568 16.0069 0.595704 16.4011C0.997932 16.8004 1.59873 17 2.39809 17ZM2.41337 15.7638C2.0315 15.7638 1.73874 15.6614 1.53508 15.4566C1.33142 15.2519 1.22959 14.9499 1.22959 14.5506V6.80307C1.22959 6.40379 1.33142 6.10178 1.53508 5.89702C1.73874 5.69226 2.0315 5.58988 2.41337 5.58988H13.579C13.9558 5.58988 14.2485 5.69226 14.4573 5.89702C14.666 6.10178 14.7704 6.40379 14.7704 6.80307V14.5506C14.7704 14.9499 14.666 15.2519 14.4573 15.4566C14.2485 15.6614 13.9558 15.7638 13.579 15.7638H2.41337ZM1.61146 3.11743H14.3962C14.3351 2.76935 14.2129 2.50316 14.0296 2.31888C13.8514 2.12948 13.5714 2.03478 13.1895 2.03478H2.81814C2.43628 2.03478 2.1537 2.12948 1.97041 2.31888C1.78711 2.50316 1.66746 2.76935 1.61146 3.11743ZM3.18473 0.990515H12.8229C12.7975 0.662903 12.6905 0.417194 12.5021 0.253388C12.3189 0.0844625 12.0516 0 11.7002 0H4.29976C3.94845 0 3.6786 0.0844625 3.49021 0.253388C3.30692 0.417194 3.20509 0.662903 3.18473 0.990515Z"
		fill="currentColor"
	/>
</svg>
