<svg
	color="rgb(var(--foreground, 0, 0, 0))"
	viewBox="0 0 19 15"
	fill="none"
	xmlns="http://www.w3.org/2000/svg"
>
	<path
		d="M3.8274 5.10837C3.66624 5.10837 3.53195 5.05767 3.42451 4.95627C3.32245 4.84981 3.27142 4.72053 3.27142 4.56844C3.27142 4.42142 3.32245 4.29721 3.42451 4.19582C3.53195 4.09442 3.66624 4.04373 3.8274 4.04373H9.0246C9.18038 4.04373 9.31199 4.09442 9.41942 4.19582C9.53223 4.29721 9.58863 4.42142 9.58863 4.56844C9.58863 4.72053 9.53223 4.84981 9.41942 4.95627C9.31199 5.05767 9.18038 5.10837 9.0246 5.10837H3.8274ZM3.8274 7.13878C3.66624 7.13878 3.53195 7.08809 3.42451 6.98669C3.32245 6.88023 3.27142 6.75349 3.27142 6.60646C3.27142 6.45944 3.32245 6.33523 3.42451 6.23384C3.53195 6.12738 3.66624 6.07414 3.8274 6.07414H7.63062C7.7864 6.07414 7.91801 6.12738 8.02545 6.23384C8.13825 6.33523 8.19466 6.45944 8.19466 6.60646C8.19466 6.75349 8.13825 6.88023 8.02545 6.98669C7.91801 7.08809 7.7864 7.13878 7.63062 7.13878H3.8274ZM13.8028 7.34411C13.4483 7.34411 13.1233 7.26299 12.8278 7.10076C12.5377 6.93346 12.3041 6.71293 12.1268 6.43916C11.9549 6.16033 11.869 5.85361 11.869 5.51901C11.869 5.18441 11.9549 4.88023 12.1268 4.60646C12.3041 4.32763 12.5377 4.1071 12.8278 3.94487C13.1233 3.77757 13.4483 3.69392 13.8028 3.69392C14.1573 3.69392 14.4796 3.77757 14.7697 3.94487C15.0598 4.1071 15.2908 4.32763 15.4627 4.60646C15.6399 4.88023 15.7286 5.18441 15.7286 5.51901C15.7286 5.85361 15.6399 6.16033 15.4627 6.43916C15.2908 6.71293 15.0598 6.93346 14.7697 7.10076C14.4796 7.26299 14.1573 7.34411 13.8028 7.34411ZM2.53011 14.5H16.4699C17.3186 14.5 17.9525 14.3023 18.3715 13.9068C18.7905 13.5165 19 12.9309 19 12.1502V2.85741C19 2.07668 18.7905 1.48859 18.3715 1.09316C17.9525 0.697719 17.3186 0.5 16.4699 0.5H2.53011C1.68674 0.5 1.05287 0.697719 0.628499 1.09316C0.2095 1.48352 0 2.07161 0 2.85741V12.1502C0 12.9309 0.2095 13.5165 0.628499 13.9068C1.05287 14.3023 1.68674 14.5 2.53011 14.5Z"
		fill="currentColor"
	/>
</svg>
