<svg
	color="rgb(var(--foreground, 0, 0, 0))"
	viewBox="0 0 16 17"
	fill="none"
	xmlns="http://www.w3.org/2000/svg"
>
	<path
		d="M9.56181 16.5C9.83675 16.5 10.0735 16.3905 10.2721 16.1716C10.4706 15.9527 10.6412 15.6599 10.7838 15.2933L15.7862 2.22601C15.8523 2.04781 15.9033 1.88234 15.9389 1.72959C15.9796 1.57685 16 1.43429 16 1.30191C16 1.05243 15.9287 0.856404 15.7862 0.713842C15.6436 0.571281 15.4476 0.5 15.1981 0.5C15.0708 0.5 14.9282 0.520366 14.7704 0.561098C14.6177 0.596738 14.4522 0.647653 14.274 0.713842L1.13795 5.74678C0.817184 5.86897 0.547335 6.02936 0.328401 6.22792C0.109467 6.42649 0 6.66325 0 6.93819C0 7.2895 0.11965 7.54407 0.35895 7.70191C0.59825 7.85465 0.901193 7.98703 1.26778 8.09905L5.39189 9.35155C5.63628 9.42792 5.83739 9.45847 5.99523 9.4432C6.15306 9.42283 6.31599 9.33628 6.48401 9.18353L14.8621 1.35537C14.9079 1.30955 14.9562 1.28918 15.0072 1.29427C15.0632 1.29427 15.1115 1.31209 15.1523 1.34773C15.193 1.38337 15.2134 1.4292 15.2134 1.4852C15.2134 1.54121 15.1905 1.59212 15.1446 1.63795L7.34702 10.0465C7.19936 10.2044 7.11535 10.3622 7.09499 10.52C7.07462 10.6728 7.10008 10.8765 7.17136 11.131L8.38568 15.1635C8.49769 15.5453 8.63262 15.8636 8.79045 16.1181C8.94829 16.3727 9.20541 16.5 9.56181 16.5Z"
		fill="currentColor"
	/>
</svg>
