<svg
	color="rgb(var(--foreground, 0, 0, 0))"
	viewBox="0 0 16 17"
	fill="none"
	xmlns="http://www.w3.org/2000/svg"
>
	<path
		d="M9.56181 16.5C9.83675 16.5 10.0735 16.3905 10.2721 16.1716C10.4706 15.9527 10.6412 15.6599 10.7838 15.2933L15.7862 2.22601C15.8523 2.04781 15.9033 1.88234 15.9389 1.72959C15.9796 1.57685 16 1.43429 16 1.30191C16 1.05243 15.9287 0.856404 15.7862 0.713842C15.6436 0.571281 15.4476 0.5 15.1981 0.5C15.0708 0.5 14.9282 0.520366 14.7704 0.561098C14.6177 0.596738 14.4522 0.647653 14.274 0.713842L1.13795 5.74678C0.817184 5.86897 0.547335 6.02936 0.328401 6.22792C0.109467 6.42649 0 6.66325 0 6.93819C0 7.2895 0.11965 7.54407 0.35895 7.70191C0.59825 7.85465 0.901193 7.98703 1.26778 8.09905L6.78186 9.71814L8.38568 15.1635C8.49769 15.5453 8.63262 15.8636 8.79045 16.1181C8.94829 16.3727 9.20541 16.5 9.56181 16.5ZM7.12554 8.55728L1.85585 6.94582C1.79475 6.93055 1.75147 6.91273 1.72601 6.89236C1.70565 6.872 1.69547 6.84908 1.69547 6.82363C1.69547 6.79817 1.70565 6.77526 1.72601 6.75489C1.74638 6.72944 1.78457 6.70652 1.84057 6.68616L12.1661 2.7759C12.4716 2.65879 12.7695 2.5315 13.0597 2.39403C13.355 2.25147 13.6452 2.114 13.9303 1.98162C13.6757 2.18528 13.4059 2.40422 13.1208 2.63842C12.8356 2.87263 12.5887 3.09411 12.38 3.30286L7.12554 8.55728ZM9.68401 14.8198C9.65346 14.8198 9.628 14.8045 9.60764 14.774C9.59236 14.7485 9.57454 14.7053 9.55418 14.6442L7.94272 9.37446L13.1971 4.12005C13.4059 3.9113 13.6274 3.66181 13.8616 3.3716C14.1009 3.08138 14.3224 2.80644 14.526 2.54678C14.3936 2.83699 14.2562 3.12975 14.1136 3.42506C13.971 3.72037 13.8412 4.02331 13.7241 4.33389L9.81384 14.6594C9.79348 14.7154 9.77311 14.7562 9.75274 14.7816C9.73238 14.8071 9.70947 14.8198 9.68401 14.8198Z"
		fill="currentColor"
	/>
</svg>
