<svg
	color="rgb(var(--foreground, 0, 0, 0))"
	viewBox="0 0 16 17"
	fill="none"
	xmlns="http://www.w3.org/2000/svg"
>
	<path
		d="M1.10943 13.3365L7.34598 16.8129C7.56788 16.9376 7.78446 17 7.99579 17C8.2124 17 8.43427 16.9376 8.66145 16.8129L14.8906 13.3365C15.2551 13.1287 15.5298 12.8949 15.7147 12.635C15.9049 12.37 16 11.9595 16 11.4035V5.23017C16 4.82485 15.9208 4.48968 15.7623 4.22467C15.6091 3.95965 15.3661 3.73101 15.0332 3.53874L9.42219 0.405319C8.94671 0.135106 8.47392 0 8.00371 0C7.53351 0 7.05808 0.135106 6.57731 0.405319L0.97471 3.53874C0.636588 3.73101 0.388304 3.95965 0.22981 4.22467C0.076598 4.48968 0 4.82485 0 5.23017V11.4035C0 11.9595 0.0950872 12.37 0.285281 12.635C0.475475 12.8949 0.750171 13.1287 1.10943 13.3365ZM1.82263 12.3077C1.59017 12.1777 1.42905 12.0426 1.33924 11.9023C1.24942 11.7568 1.20452 11.5776 1.20452 11.3645V5.4796L7.37768 8.94819V15.4177L1.82263 12.3077ZM14.1853 12.3077L8.62182 15.4177V8.94819L14.7955 5.4796V11.3645C14.7955 11.5776 14.7506 11.7568 14.6608 11.9023C14.571 12.0426 14.4125 12.1777 14.1853 12.3077ZM8.00371 7.85695L1.88602 4.45071L4.33469 3.07107L10.4529 6.49289L8.00371 7.85695ZM11.7287 5.78359L5.58675 2.36956L7.10825 1.51994C7.71053 1.18218 8.30747 1.18218 8.89918 1.51994L14.1219 4.45071L11.7287 5.78359Z"
		fill="currentColor"
	/>
</svg>
