<svg
	color="rgb(var(--foreground, 0, 0, 0))"
	viewBox="0 0 23 13"
	fill="none"
	xmlns="http://www.w3.org/2000/svg"
>
	<path
		d="M0.66975 13C0.858856 13 1.01907 12.937 1.15039 12.8111C1.28172 12.6852 1.34738 12.5305 1.34738 12.3469V0.661017C1.34738 0.472155 1.28172 0.31477 1.15039 0.188862C1.01907 0.062954 0.858856 0 0.66975 0C0.485897 0 0.328309 0.062954 0.196985 0.188862C0.0656618 0.31477 0 0.472155 0 0.661017V12.3469C0 12.5305 0.0656618 12.6852 0.196985 12.8111C0.328309 12.937 0.485897 13 0.66975 13ZM11.0391 12.6852C11.349 12.6852 11.6143 12.5698 11.8349 12.339C12.0608 12.1082 12.1737 11.7724 12.1737 11.3317V1.66828C12.1737 1.2276 12.0608 0.891848 11.8349 0.661017C11.6143 0.430186 11.349 0.31477 11.0391 0.31477C10.8815 0.31477 10.7318 0.341001 10.5899 0.393462C10.4481 0.440678 10.2958 0.511501 10.1329 0.605932L2.1038 5.32748C1.8254 5.49536 1.62316 5.67635 1.49709 5.87046C1.37102 6.06457 1.30798 6.27442 1.30798 6.5C1.30798 6.72558 1.37102 6.93543 1.49709 7.12954C1.62316 7.32365 1.8254 7.50464 2.1038 7.67252L10.1329 12.3941C10.2958 12.4885 10.4481 12.5593 10.5899 12.6065C10.7318 12.659 10.8815 12.6852 11.0391 12.6852ZM10.7002 11.2294C10.674 11.2294 10.6425 11.2242 10.6057 11.2137C10.5742 11.2032 10.54 11.1848 10.5033 11.1586L3.01781 6.72034C2.90225 6.65738 2.84447 6.58394 2.84447 6.5C2.84447 6.41606 2.90225 6.34262 3.01781 6.27966L10.5033 1.8414C10.5453 1.81517 10.582 1.79681 10.6136 1.78632C10.6451 1.77583 10.674 1.77058 10.7002 1.77058C10.7528 1.77058 10.8 1.79157 10.8421 1.83354C10.8893 1.87026 10.913 1.92797 10.913 2.00666V10.9933C10.913 11.072 10.8893 11.1324 10.8421 11.1743C10.8 11.2111 10.7528 11.2294 10.7002 11.2294ZM21.8654 12.6852C22.1753 12.6852 22.4406 12.5698 22.6612 12.339C22.8871 12.1082 23 11.7724 23 11.3317V1.66828C23 1.2276 22.8871 0.891848 22.6612 0.661017C22.4406 0.430186 22.1753 0.31477 21.8654 0.31477C21.7078 0.31477 21.5581 0.341001 21.4162 0.393462C21.2744 0.440678 21.1221 0.511501 20.9592 0.605932L12.9301 5.32748C12.6517 5.49536 12.4495 5.67635 12.3234 5.87046C12.1973 6.06457 12.1343 6.27442 12.1343 6.5C12.1343 6.72558 12.1973 6.93543 12.3234 7.12954C12.4495 7.32365 12.6517 7.50464 12.9301 7.67252L20.9592 12.3941C21.1221 12.4885 21.2744 12.5593 21.4162 12.6065C21.5581 12.659 21.7078 12.6852 21.8654 12.6852ZM21.5266 11.2294C21.5003 11.2294 21.4688 11.2242 21.432 11.2137C21.4005 11.2032 21.3663 11.1848 21.3296 11.1586L13.8441 6.72034C13.7286 6.65738 13.6708 6.58394 13.6708 6.5C13.6708 6.41606 13.7286 6.34262 13.8441 6.27966L21.3296 1.8414C21.3716 1.81517 21.4084 1.79681 21.4399 1.78632C21.4714 1.77583 21.5003 1.77058 21.5266 1.77058C21.5843 1.77058 21.6342 1.79157 21.6763 1.83354C21.7183 1.87026 21.7393 1.92797 21.7393 2.00666V10.9933C21.7393 11.072 21.7183 11.1324 21.6763 11.1743C21.6342 11.2111 21.5843 11.2294 21.5266 11.2294Z"
		fill="currentColor"
	/>
</svg>
