<svg
	color="rgb(var(--foreground, 0, 0, 0))"
	viewBox="0 0 22 13"
	fill="none"
	xmlns="http://www.w3.org/2000/svg"
>
	<path
		d="M9.86923 13C10.1836 13 10.4526 12.8786 10.6764 12.6359C10.9054 12.3932 11.02 12.0429 11.02 11.585V1.41502C11.02 0.95714 10.9054 0.606832 10.6764 0.364099C10.4526 0.121366 10.1836 0 9.86923 0C9.70408 0 9.54958 0.0275833 9.40574 0.0827499C9.2619 0.1324 9.11006 0.206875 8.95024 0.306174L0.807119 5.27117C0.519433 5.44218 0.31166 5.62975 0.183799 5.83386C0.0612665 6.03798 0 6.25865 0 6.49586C0 6.73308 0.0639303 6.9565 0.191791 7.16614C0.319651 7.37025 0.524761 7.55782 0.807119 7.72884L8.95024 12.6938C9.11006 12.7931 9.2619 12.8676 9.40574 12.9173C9.54958 12.9724 9.70408 13 9.86923 13ZM9.51762 11.4691C9.49098 11.4691 9.46168 11.4636 9.42971 11.4526C9.39775 11.4415 9.36312 11.425 9.32583 11.4029L1.72612 6.73584C1.60891 6.66964 1.55031 6.58965 1.55031 6.49586C1.55031 6.41311 1.60891 6.33588 1.72612 6.26416L9.32583 1.59707C9.36312 1.57501 9.39775 1.55846 9.42971 1.54742C9.46168 1.53639 9.49098 1.53087 9.51762 1.53087C9.57622 1.53087 9.62683 1.55018 9.66945 1.5888C9.71207 1.62741 9.73338 1.69086 9.73338 1.77912V11.2209C9.73338 11.3091 9.71207 11.3726 9.66945 11.4112C9.62683 11.4498 9.57622 11.4691 9.51762 11.4691ZM20.8493 13C21.1636 13 21.4326 12.8786 21.6564 12.6359C21.8855 12.3932 22 12.0429 22 11.585V1.41502C22 0.95714 21.8855 0.606832 21.6564 0.364099C21.4326 0.121366 21.1636 0 20.8493 0C20.6841 0 20.5296 0.0275833 20.3858 0.0827499C20.2472 0.1324 20.0954 0.206875 19.9303 0.306174L11.7871 5.27117C11.5048 5.44218 11.2997 5.62975 11.1718 5.83386C11.044 6.03798 10.98 6.25865 10.98 6.49586C10.98 6.73308 11.044 6.9565 11.1718 7.16614C11.2997 7.37025 11.5048 7.55782 11.7871 7.72884L19.9303 12.6938C20.0901 12.7931 20.2419 12.8676 20.3858 12.9173C20.5296 12.9724 20.6841 13 20.8493 13ZM20.4976 11.4691C20.471 11.4691 20.4417 11.4636 20.4097 11.4526C20.3778 11.4415 20.3431 11.425 20.3058 11.4029L12.7061 6.73584C12.5943 6.66964 12.5383 6.58965 12.5383 6.49586C12.5383 6.41311 12.5943 6.33588 12.7061 6.26416L20.3058 1.59707C20.3431 1.57501 20.3778 1.55846 20.4097 1.54742C20.4417 1.53639 20.471 1.53087 20.4976 1.53087C20.5562 1.53087 20.6069 1.55018 20.6495 1.5888C20.6921 1.62741 20.7134 1.69086 20.7134 1.77912V11.2209C20.7134 11.3091 20.6921 11.3726 20.6495 11.4112C20.6069 11.4498 20.5562 11.4691 20.4976 11.4691Z"
		fill="currentColor"
	/>
</svg>
