<svg
	color="rgb(var(--foreground, 0, 0, 0))"
	viewBox="0 0 19 13"
	fill="none"
	xmlns="http://www.w3.org/2000/svg"
>
	<path
		d="M10.7442 12.7606C11.0683 12.7606 11.3456 12.6435 11.5763 12.4095C11.8124 12.1807 11.9305 11.8428 11.9305 11.3959V1.59607C11.9305 1.14917 11.8124 0.808676 11.5763 0.574586C11.3456 0.340495 11.0683 0.22345 10.7442 0.22345C10.574 0.22345 10.4147 0.250051 10.2664 0.303254C10.1236 0.351136 9.96711 0.422959 9.79686 0.518723L1.40235 5.30694C1.11127 5.47718 0.899832 5.66073 0.768024 5.85758C0.636216 6.05443 0.570312 6.26724 0.570312 6.49601C0.570312 6.72478 0.636216 6.93759 0.768024 7.13444C0.899832 7.33129 1.11127 7.51484 1.40235 7.68508L9.79686 12.4653C9.96162 12.5611 10.1181 12.6329 10.2664 12.6808C10.4147 12.734 10.574 12.7606 10.7442 12.7606ZM15.5964 13H17.4664C17.8289 13 18.1035 12.9096 18.2902 12.7287C18.4769 12.5478 18.5703 12.2818 18.5703 11.9306V1.06139C18.5703 0.699611 18.4769 0.433599 18.2902 0.263352C18.1035 0.0877839 17.8289 0 17.4664 0H15.5964C15.2339 0 14.9593 0.0904441 14.7726 0.271332C14.5914 0.45222 14.5007 0.715572 14.5007 1.06139V11.9306C14.5007 12.2818 14.5914 12.5478 14.7726 12.7287C14.9593 12.9096 15.2339 13 15.5964 13Z"
		fill="currentColor"
	/>
</svg>
