<svg
	color="rgb(var(--foreground, 0, 0, 0))"
	viewBox="0 0 22 13"
	fill="none"
	xmlns="http://www.w3.org/2000/svg"
>
	<path
		d="M9.86923 13C10.1836 13 10.4526 12.8786 10.6764 12.6359C10.9054 12.3932 11.02 12.0429 11.02 11.585V1.41502C11.02 0.95714 10.9054 0.606832 10.6764 0.364099C10.4526 0.121366 10.1836 0 9.86923 0C9.70408 0 9.54958 0.0275833 9.40574 0.0827499C9.2619 0.1324 9.11006 0.206875 8.95024 0.306174L0.807119 5.27117C0.519433 5.44218 0.31166 5.62975 0.183799 5.83386C0.0612665 6.03798 0 6.25865 0 6.49586C0 6.73308 0.0639303 6.9565 0.191791 7.16614C0.319651 7.37025 0.524761 7.55782 0.807119 7.72884L8.95024 12.6938C9.11006 12.7931 9.2619 12.8676 9.40574 12.9173C9.54958 12.9724 9.70408 13 9.86923 13ZM20.8493 13C21.1636 13 21.4326 12.8786 21.6564 12.6359C21.8855 12.3932 22 12.0429 22 11.585V1.41502C22 0.95714 21.8855 0.606832 21.6564 0.364099C21.4326 0.121366 21.1636 0 20.8493 0C20.6841 0 20.5296 0.0275833 20.3858 0.0827499C20.2472 0.1324 20.0954 0.206875 19.9303 0.306174L11.7871 5.27117C11.5048 5.44218 11.2997 5.62975 11.1718 5.83386C11.044 6.03798 10.98 6.25865 10.98 6.49586C10.98 6.73308 11.044 6.9565 11.1718 7.16614C11.2997 7.37025 11.5048 7.55782 11.7871 7.72884L19.9303 12.6938C20.0901 12.7931 20.2419 12.8676 20.3858 12.9173C20.5296 12.9724 20.6841 13 20.8493 13Z"
		fill="currentColor"
	/>
</svg>
