<svg
	color="rgb(var(--foreground, 0, 0, 0))"
	viewBox="0 0 15 13"
	fill="none"
	xmlns="http://www.w3.org/2000/svg"
>
	<path
		d="M9.64842 12.6852C9.95571 12.6852 10.2187 12.5698 10.4375 12.339C10.6614 12.1082 10.7734 11.7724 10.7734 11.3317V1.66828C10.7734 1.2276 10.6614 0.891848 10.4375 0.661017C10.2187 0.430186 9.95571 0.31477 9.64842 0.31477C9.48696 0.31477 9.33592 0.341001 9.1953 0.393462C9.05988 0.440678 8.91144 0.511501 8.74998 0.605932L0.789062 5.32748C0.513021 5.49536 0.3125 5.67635 0.1875 5.87046C0.0625 6.06457 0 6.27441 0 6.5C0 6.72558 0.0625 6.93543 0.1875 7.12954C0.3125 7.32365 0.513021 7.50464 0.789062 7.67252L8.74998 12.3941C8.90623 12.4885 9.05467 12.5593 9.1953 12.6065C9.33592 12.659 9.48696 12.6852 9.64842 12.6852ZM9.30467 11.2294C9.27863 11.2294 9.24998 11.2242 9.21873 11.2137C9.18748 11.2032 9.15363 11.1848 9.11717 11.1586L1.6875 6.72034C1.57812 6.65738 1.52344 6.58394 1.52344 6.5C1.52344 6.41606 1.57812 6.34261 1.6875 6.27966L9.11717 1.8414C9.15363 1.81517 9.18748 1.79681 9.21873 1.78632C9.24998 1.77583 9.27863 1.77058 9.30467 1.77058C9.36196 1.77058 9.41144 1.79157 9.45311 1.83354C9.49998 1.87026 9.52342 1.92797 9.52342 2.00666V10.9933C9.52342 11.072 9.49998 11.1324 9.45311 11.1743C9.41144 11.2111 9.36196 11.2294 9.30467 11.2294ZM13.8984 13C14.0807 13 14.237 12.937 14.3672 12.8111C14.5026 12.6852 14.5703 12.5305 14.5703 12.3469V0.661017C14.5703 0.472155 14.5026 0.31477 14.3672 0.188862C14.237 0.062954 14.0807 0 13.8984 0C13.7161 0 13.5599 0.062954 13.4297 0.188862C13.2995 0.31477 13.2344 0.472155 13.2344 0.661017V12.3469C13.2344 12.5305 13.2995 12.6852 13.4297 12.8111C13.5599 12.937 13.7161 13 13.8984 13Z"
		fill="currentColor"
	/>
</svg>
