<svg
	color="rgb(var(--foreground, 0, 0, 0))"
	viewBox="0 0 15 13"
	fill="none"
	xmlns="http://www.w3.org/2000/svg"
>
	<path
		d="M1.06799 13H2.89882C3.24679 13 3.51178 12.9096 3.69379 12.7287C3.8758 12.5478 3.96681 12.2818 3.96681 11.9306V1.06139C3.96681 0.699611 3.8758 0.433599 3.69379 0.263352C3.51178 0.0877839 3.24679 0 2.89882 0H1.06799C0.714668 0 0.447002 0.0904441 0.264989 0.271332C0.0883298 0.45222 0 0.715572 0 1.06139V11.9306C0 12.2818 0.0883298 12.5478 0.264989 12.7287C0.447002 12.9096 0.714668 13 1.06799 13ZM13.8437 12.7606C14.1595 12.7606 14.4299 12.6435 14.6547 12.4095C14.8849 12.1807 15 11.8428 15 11.3959V1.59607C15 1.14917 14.8849 0.808676 14.6547 0.574586C14.4299 0.340495 14.1595 0.22345 13.8437 0.22345C13.6831 0.22345 13.5305 0.250051 13.386 0.303254C13.2414 0.351136 13.0862 0.422959 12.9202 0.518723L4.73769 5.30694C4.45396 5.47718 4.24786 5.66073 4.11938 5.85758C3.9909 6.05443 3.92666 6.26724 3.92666 6.49601C3.92666 6.72478 3.9909 6.93759 4.11938 7.13444C4.24786 7.33129 4.45396 7.51484 4.73769 7.68508L12.9202 12.4653C13.0862 12.5611 13.2414 12.6329 13.386 12.6808C13.5305 12.734 13.6831 12.7606 13.8437 12.7606Z"
		fill="currentColor"
	/>
</svg>
