<svg
	color="rgb(var(--foreground, 0, 0, 0))"
	viewBox="0 0 13 13"
	fill="none"
	xmlns="http://www.w3.org/2000/svg"
>
	<path
		d="M0.71521 13C0.917152 13 1.08824 12.937 1.22848 12.8111C1.36872 12.6852 1.43884 12.5305 1.43884 12.3469V0.661017C1.43884 0.472155 1.36872 0.31477 1.22848 0.188862C1.08824 0.062954 0.917152 0 0.71521 0C0.518878 0 0.350593 0.062954 0.210356 0.188862C0.0701187 0.31477 0 0.472155 0 0.661017V12.3469C0 12.5305 0.0701187 12.6852 0.210356 12.8111C0.350593 12.937 0.518878 13 0.71521 13ZM11.7884 12.6852C12.1193 12.6852 12.4026 12.5698 12.6382 12.339C12.8794 12.1082 13 11.7724 13 11.3317V1.66828C13 1.2276 12.8794 0.891848 12.6382 0.661017C12.4026 0.430186 12.1193 0.31477 11.7884 0.31477C11.6201 0.31477 11.4602 0.341001 11.3087 0.393462C11.1573 0.440678 10.9946 0.511501 10.8207 0.605932L2.2466 5.32748C1.9493 5.49536 1.73333 5.67635 1.59871 5.87046C1.46408 6.06457 1.39676 6.27442 1.39676 6.5C1.39676 6.72558 1.46408 6.93543 1.59871 7.12954C1.73333 7.32365 1.9493 7.50464 2.2466 7.67252L10.8207 12.3941C10.9946 12.4885 11.1573 12.5593 11.3087 12.6065C11.4602 12.659 11.6201 12.6852 11.7884 12.6852ZM11.4265 11.2294C11.3985 11.2294 11.3648 11.2242 11.3256 11.2137C11.2919 11.2032 11.2554 11.1848 11.2162 11.1586L3.22265 6.72034C3.09925 6.65738 3.03754 6.58394 3.03754 6.5C3.03754 6.41606 3.09925 6.34262 3.22265 6.27966L11.2162 1.8414C11.2611 1.81517 11.3003 1.79681 11.334 1.78632C11.3676 1.77583 11.3985 1.77058 11.4265 1.77058C11.4826 1.77058 11.5331 1.79157 11.578 1.83354C11.6285 1.87026 11.6537 1.92797 11.6537 2.00666V10.9933C11.6537 11.072 11.6285 11.1324 11.578 11.1743C11.5331 11.2111 11.4826 11.2294 11.4265 11.2294Z"
		fill="currentColor"
	/>
</svg>
