<svg
	color="rgb(var(--foreground, 0, 0, 0))"
	viewBox="0 0 13 13"
	fill="none"
	xmlns="http://www.w3.org/2000/svg"
>
	<path
		d="M12.2848 13C12.4811 13 12.6494 12.937 12.7896 12.8111C12.9299 12.6852 13 12.5305 13 12.3469V0.661017C13 0.472155 12.9299 0.31477 12.7896 0.188862C12.6494 0.062954 12.4811 0 12.2848 0C12.0828 0 11.9118 0.062954 11.7715 0.188862C11.6313 0.31477 11.5612 0.472155 11.5612 0.661017V12.3469C11.5612 12.5305 11.6313 12.6852 11.7715 12.8111C11.9118 12.937 12.0828 13 12.2848 13ZM1.21165 12.6852C1.38554 12.6852 1.54822 12.659 1.69968 12.6065C1.85113 12.5593 2.011 12.4885 2.17929 12.3941L10.7534 7.67252C11.0507 7.50464 11.2667 7.32365 11.4013 7.12954C11.5359 6.93543 11.6032 6.72558 11.6032 6.5C11.6032 6.27442 11.5359 6.06457 11.4013 5.87046C11.2667 5.67635 11.0507 5.49536 10.7534 5.32748L2.17929 0.605932C2.00539 0.511501 1.84272 0.440678 1.69126 0.393462C1.54542 0.341001 1.38554 0.31477 1.21165 0.31477C0.88069 0.31477 0.594606 0.430186 0.353398 0.661017C0.117799 0.891848 0 1.2276 0 1.66828V11.3317C0 11.7724 0.117799 12.1082 0.353398 12.339C0.594606 12.5698 0.88069 12.6852 1.21165 12.6852ZM1.58188 11.2294C1.52017 11.2294 1.46408 11.2111 1.41359 11.1743C1.36872 11.1324 1.34628 11.072 1.34628 10.9933V2.00666C1.34628 1.92797 1.36872 1.87026 1.41359 1.83354C1.46408 1.79157 1.52017 1.77058 1.58188 1.77058C1.60992 1.77058 1.64078 1.77583 1.67443 1.78632C1.70809 1.79681 1.74455 1.81517 1.78382 1.8414L9.78576 6.27966C9.90356 6.34262 9.96246 6.41606 9.96246 6.5C9.96246 6.58394 9.90356 6.65738 9.78576 6.72034L1.78382 11.1586C1.74455 11.1848 1.70809 11.2032 1.67443 11.2137C1.64078 11.2242 1.60992 11.2294 1.58188 11.2294Z"
		fill="currentColor"
	/>
</svg>
