<svg
	color="rgb(var(--foreground, 0, 0, 0))"
	viewBox="0 0 19 13"
	fill="none"
	xmlns="http://www.w3.org/2000/svg"
>
	<path
		d="M3.54423 13C3.9067 13 4.17855 12.9096 4.35979 12.7287C4.54652 12.5478 4.63988 12.2818 4.63988 11.9306V1.06139C4.63988 0.715572 4.54652 0.45222 4.35979 0.271332C4.17855 0.090444 3.9067 0 3.54423 0H1.6742C1.31173 0 1.03713 0.0877839 0.850404 0.263352C0.663676 0.433599 0.570312 0.699611 0.570312 1.06139V11.9306C0.570312 12.2818 0.663676 12.5478 0.850404 12.7287C1.03713 12.9096 1.31173 13 1.6742 13H3.54423ZM8.39641 12.7606C8.56666 12.7606 8.72593 12.734 8.87421 12.6808C9.02249 12.6329 9.17902 12.5611 9.34378 12.4653L17.7383 7.68508C18.0294 7.51483 18.2408 7.33129 18.3726 7.13444C18.5044 6.93759 18.5703 6.72478 18.5703 6.49601C18.5703 6.26724 18.5044 6.05443 18.3726 5.85758C18.2463 5.66073 18.0348 5.47718 17.7383 5.30694L9.34378 0.518723C9.17902 0.422959 9.02249 0.351136 8.87421 0.303254C8.72593 0.250051 8.56666 0.22345 8.39641 0.22345C8.07238 0.22345 7.79229 0.340495 7.55613 0.574586C7.32547 0.808676 7.21013 1.14917 7.21013 1.59607V11.3959C7.21013 11.8428 7.32547 12.1807 7.55613 12.4095C7.79229 12.6435 8.07238 12.7606 8.39641 12.7606Z"
		fill="currentColor"
	/>
</svg>
