<svg
	color="rgb(var(--foreground, 0, 0, 0))"
	viewBox="0 0 16 13"
	fill="none"
	xmlns="http://www.w3.org/2000/svg"
>
	<path
		d="M1.25396 13C1.44699 13 1.61053 12.937 1.74458 12.8111C1.87862 12.6852 1.94565 12.5305 1.94565 12.3469V0.661017C1.94565 0.472155 1.87862 0.31477 1.74458 0.188862C1.61053 0.062954 1.44699 0 1.25396 0C1.06629 0 0.905433 0.062954 0.771385 0.188862C0.637337 0.31477 0.570312 0.472155 0.570312 0.661017V12.3469C0.570312 12.5305 0.637337 12.6852 0.771385 12.8111C0.905433 12.937 1.06629 13 1.25396 13ZM5.62928 12.6852C5.7955 12.6852 5.951 12.659 6.09577 12.6065C6.24054 12.5593 6.39604 12.4885 6.56226 12.3941L14.758 7.67252C15.0422 7.50464 15.2486 7.32365 15.3773 7.12954C15.506 6.93543 15.5703 6.72558 15.5703 6.5C15.5703 6.27442 15.506 6.06457 15.3773 5.87046C15.2486 5.67635 15.0422 5.49536 14.758 5.32748L6.56226 0.605932C6.39604 0.511501 6.24054 0.440678 6.09577 0.393462C5.951 0.341001 5.7955 0.31477 5.62928 0.31477C5.31829 0.31477 5.04751 0.430186 4.81695 0.661017C4.58639 0.891848 4.47111 1.2276 4.47111 1.66828V11.3317C4.47111 11.7724 4.58639 12.1082 4.81695 12.339C5.04751 12.5698 5.31829 12.6852 5.62928 12.6852ZM5.98317 11.2294C5.92419 11.2294 5.87325 11.2111 5.83036 11.1743C5.78746 11.1324 5.76601 11.072 5.76601 10.9933V2.00666C5.76601 1.92797 5.78746 1.87026 5.83036 1.83354C5.87325 1.79157 5.92419 1.77058 5.98317 1.77058C6.00998 1.77058 6.03947 1.77583 6.07164 1.78632C6.10381 1.79681 6.14135 1.81517 6.18424 1.8414L13.825 6.27966C13.943 6.34261 14.0019 6.41606 14.0019 6.5C14.0019 6.58394 13.943 6.65738 13.825 6.72034L6.18424 11.1586C6.14135 11.1848 6.10381 11.2032 6.07164 11.2137C6.03947 11.2242 6.00998 11.2294 5.98317 11.2294Z"
		fill="currentColor"
	/>
</svg>
