<svg
	color="rgb(var(--foreground, 0, 0, 0))"
	viewBox="0 0 23 13"
	fill="none"
	xmlns="http://www.w3.org/2000/svg"
>
	<path
		d="M22.3302 13C22.5141 13 22.6717 12.937 22.803 12.8111C22.9343 12.6852 23 12.5305 23 12.3469V0.661017C23 0.472155 22.9343 0.31477 22.803 0.188862C22.6717 0.062954 22.5141 0 22.3302 0C22.1411 0 21.9809 0.062954 21.8496 0.188862C21.7183 0.31477 21.6526 0.472155 21.6526 0.661017V12.3469C21.6526 12.5305 21.7183 12.6852 21.8496 12.8111C21.9809 12.937 22.1411 13 22.3302 13ZM1.13464 12.6852C1.29748 12.6852 1.44983 12.659 1.59166 12.6065C1.73349 12.5593 1.88319 12.4885 2.04078 12.3941L10.0699 7.67252C10.3483 7.50464 10.5505 7.32365 10.6766 7.12954C10.8027 6.93543 10.8657 6.72558 10.8657 6.5C10.8657 6.27442 10.8027 6.06457 10.6766 5.87046C10.5505 5.67635 10.3483 5.49536 10.0699 5.32748L2.04078 0.605932C1.87794 0.511501 1.72561 0.440678 1.58378 0.393462C1.4472 0.341001 1.29748 0.31477 1.13464 0.31477C0.824712 0.31477 0.556812 0.430186 0.330935 0.661017C0.110312 0.891848 0 1.2276 0 1.66828V11.3317C0 11.7724 0.110312 12.1082 0.330935 12.339C0.556812 12.5698 0.824712 12.6852 1.13464 12.6852ZM1.48134 11.2294C1.42356 11.2294 1.37103 11.2111 1.32376 11.1743C1.28173 11.1324 1.26072 11.072 1.26072 10.9933V2.00666C1.26072 1.92797 1.28173 1.87026 1.32376 1.83354C1.37103 1.79157 1.42356 1.77058 1.48134 1.77058C1.50761 1.77058 1.5365 1.77583 1.56802 1.78632C1.59954 1.79681 1.63368 1.81517 1.67045 1.8414L9.16377 6.27966C9.27408 6.34262 9.32924 6.41606 9.32924 6.5C9.32924 6.58394 9.27408 6.65738 9.16377 6.72034L1.67045 11.1586C1.63368 11.1848 1.59954 11.2032 1.56802 11.2137C1.5365 11.2242 1.50761 11.2294 1.48134 11.2294ZM11.961 12.6852C12.1238 12.6852 12.2761 12.659 12.418 12.6065C12.5598 12.5593 12.7095 12.4885 12.8671 12.3941L20.8962 7.67252C21.1746 7.50464 21.3769 7.32365 21.5029 7.12954C21.629 6.93543 21.692 6.72558 21.692 6.5C21.692 6.27442 21.629 6.06457 21.5029 5.87046C21.3769 5.67635 21.1746 5.49536 20.8962 5.32748L12.8671 0.605932C12.7043 0.511501 12.5519 0.440678 12.4101 0.393462C12.2735 0.341001 12.1238 0.31477 11.961 0.31477C11.651 0.31477 11.3831 0.430186 11.1573 0.661017C10.9366 0.891848 10.8263 1.2276 10.8263 1.66828V11.3317C10.8263 11.7724 10.9366 12.1082 11.1573 12.339C11.3831 12.5698 11.651 12.6852 11.961 12.6852ZM12.3077 11.2294C12.2499 11.2294 12.2 11.2111 12.1579 11.1743C12.1159 11.1324 12.0949 11.072 12.0949 10.9933V2.00666C12.0949 1.92797 12.1159 1.87026 12.1579 1.83354C12.2 1.79157 12.2499 1.77058 12.3077 1.77058C12.3339 1.77058 12.3628 1.77583 12.3943 1.78632C12.4258 1.79681 12.46 1.81517 12.4968 1.8414L19.9901 6.27966C20.1004 6.34262 20.1555 6.41606 20.1555 6.5C20.1555 6.58394 20.1004 6.65738 19.9901 6.72034L12.4968 11.1586C12.46 11.1848 12.4258 11.2032 12.3943 11.2137C12.3628 11.2242 12.3339 11.2294 12.3077 11.2294Z"
		fill="currentColor"
	/>
</svg>
