<svg
	color="rgb(var(--foreground, 0, 0, 0))"
	viewBox="0 0 22 13"
	fill="none"
	xmlns="http://www.w3.org/2000/svg"
>
	<path
		d="M1.15033 13C1.31542 13 1.46986 12.9724 1.61365 12.9173C1.75744 12.8676 1.90922 12.7931 2.06899 12.6938L10.2092 7.72884C10.4914 7.55782 10.6964 7.37025 10.8243 7.16614C10.9574 6.9565 11.024 6.73308 11.024 6.49586C11.024 6.25865 10.9601 6.03798 10.8322 5.83386C10.7044 5.62975 10.4967 5.44218 10.2092 5.27116L2.06899 0.306174C1.90922 0.206875 1.75744 0.1324 1.61365 0.0827498C1.46986 0.0275833 1.31542 0 1.15033 0C0.836117 0 0.564512 0.121366 0.335512 0.364099C0.111837 0.606832 0 0.95714 0 1.41502V11.585C0 12.0429 0.111837 12.3932 0.335512 12.6359C0.564512 12.8786 0.836117 13 1.15033 13ZM1.50182 11.4691C1.44323 11.4691 1.39264 11.4498 1.35004 11.4112C1.30743 11.3726 1.28613 11.3091 1.28613 11.2209V1.77912C1.28613 1.69086 1.30743 1.62741 1.35004 1.5888C1.39264 1.55018 1.44323 1.53087 1.50182 1.53087C1.52844 1.53087 1.55773 1.53639 1.58969 1.54742C1.62164 1.55846 1.65626 1.57501 1.69354 1.59707L9.29049 6.26416C9.40765 6.33588 9.46623 6.41311 9.46623 6.49586C9.46623 6.58965 9.40765 6.66964 9.29049 6.73584L1.69354 11.4029C1.65626 11.425 1.62164 11.4415 1.58969 11.4526C1.55773 11.4636 1.52844 11.4691 1.50182 11.4691ZM12.1264 13C12.2915 13 12.4459 12.9724 12.5897 12.9173C12.7335 12.8676 12.8853 12.7931 13.045 12.6938L21.1852 7.72884C21.4674 7.55782 21.6725 7.37025 21.8003 7.16614C21.9334 6.9565 22 6.73308 22 6.49586C22 6.25865 21.9361 6.03798 21.8083 5.83386C21.6805 5.62975 21.4728 5.44218 21.1852 5.27116L13.045 0.306174C12.8853 0.206875 12.7335 0.1324 12.5897 0.0827498C12.4459 0.0275833 12.2915 0 12.1264 0C11.8122 0 11.5405 0.121366 11.3115 0.364099C11.0879 0.606832 10.976 0.95714 10.976 1.41502V11.585C10.976 12.0429 11.0879 12.3932 11.3115 12.6359C11.5405 12.8786 11.8122 13 12.1264 13ZM12.4778 11.4691C12.4193 11.4691 12.3687 11.4498 12.3261 11.4112C12.2835 11.3726 12.2622 11.3091 12.2622 11.2209V1.77912C12.2622 1.69086 12.2835 1.62741 12.3261 1.5888C12.3687 1.55018 12.4193 1.53087 12.4778 1.53087C12.5045 1.53087 12.5338 1.53639 12.5657 1.54742C12.5977 1.55846 12.6323 1.57501 12.6696 1.59707L20.2665 6.26416C20.3837 6.33588 20.4423 6.41311 20.4423 6.49586C20.4423 6.58965 20.3837 6.66964 20.2665 6.73584L12.6696 11.4029C12.6323 11.425 12.5977 11.4415 12.5657 11.4526C12.5338 11.4636 12.5045 11.4691 12.4778 11.4691Z"
		fill="currentColor"
	/>
</svg>
