<svg
	color="rgb(var(--foreground, 0, 0, 0))"
	viewBox="0 0 26 13"
	fill="none"
	xmlns="http://www.w3.org/2000/svg"
>
	<path
		d="M23.1129 13H24.9334C25.2862 13 25.5509 12.9096 25.7273 12.7287C25.9091 12.5478 26 12.2818 26 11.9306V1.06139C26 0.699611 25.9091 0.433599 25.7273 0.263352C25.5509 0.0877839 25.2862 0 24.9334 0H23.1129C22.76 0 22.4927 0.0904441 22.3109 0.271332C22.1291 0.45222 22.0382 0.715572 22.0382 1.06139V11.9306C22.0382 12.2818 22.1291 12.5478 22.3109 12.7287C22.4927 12.9096 22.76 13 23.1129 13ZM12.174 12.7606C12.3397 12.7606 12.4948 12.734 12.6391 12.6808C12.7835 12.6329 12.9358 12.5611 13.0962 12.4653L21.2684 7.68508C21.5517 7.51484 21.7576 7.33129 21.8859 7.13444C22.0142 6.93759 22.0783 6.72478 22.0783 6.49601C22.0783 6.26724 22.0142 6.05443 21.8859 5.85758C21.7576 5.66073 21.5517 5.47718 21.2684 5.30694L13.0962 0.518723C12.9305 0.422959 12.7754 0.351136 12.6311 0.303254C12.4921 0.250051 12.3397 0.22345 12.174 0.22345C11.8585 0.22345 11.5859 0.340495 11.356 0.574586C11.1314 0.808676 11.0191 1.14917 11.0191 1.59607V11.3959C11.0191 11.8428 11.1314 12.1807 11.356 12.4095C11.5859 12.6435 11.8585 12.7606 12.174 12.7606ZM1.15484 12.7606C1.32058 12.7606 1.47563 12.734 1.61999 12.6808C1.76434 12.6329 1.91672 12.5611 2.07711 12.4653L10.2492 7.68508C10.5326 7.51484 10.7384 7.33129 10.8667 7.13444C10.9951 6.93759 11.0592 6.72478 11.0592 6.49601C11.0592 6.26724 10.9951 6.05443 10.8667 5.85758C10.7384 5.66073 10.5326 5.47718 10.2492 5.30694L2.07711 0.518723C1.91137 0.422959 1.75632 0.351136 1.61197 0.303254C1.47296 0.250051 1.32058 0.22345 1.15484 0.22345C0.839399 0.22345 0.566728 0.340495 0.336829 0.574586C0.112276 0.808676 0 1.14917 0 1.59607V11.3959C0 11.8428 0.112276 12.1807 0.336829 12.4095C0.566728 12.6435 0.839399 12.7606 1.15484 12.7606Z"
		fill="currentColor"
	/>
</svg>
