<svg
	color="rgb(var(--foreground, 0, 0, 0))"
	viewBox="0 0 17 17"
	fill="none"
	xmlns="http://www.w3.org/2000/svg"
>
	<path
		d="M0.570312 9.23822C0.570312 10.2985 0.779463 11.2979 1.19776 12.2364C1.61606 13.1749 2.19384 14.0018 2.9311 14.7171C3.66835 15.4274 4.51803 15.9854 5.48012 16.3912C6.44744 16.7971 7.4775 17 8.57031 17C9.66312 17 10.6906 16.7971 11.6527 16.3912C12.62 15.9854 13.4723 15.4274 14.2095 14.7171C14.9468 14.0018 15.5246 13.1749 15.9429 12.2364C16.3612 11.2979 16.5703 10.2985 16.5703 9.23822C16.5703 8.30478 16.4056 7.41699 16.0762 6.57486C15.7468 5.73274 15.2867 4.97178 14.6958 4.29199C14.1102 3.60713 13.4226 3.03641 12.6331 2.57983C11.8487 2.11818 10.9991 1.79858 10.084 1.62102V0.540462C10.084 0.266517 10.003 0.0965693 9.8409 0.0306195C9.67881 -0.0353302 9.49057 0.00525422 9.2762 0.152373L6.77423 1.84931C6.59123 1.97106 6.49972 2.11311 6.49972 2.27545C6.49972 2.43779 6.59123 2.58237 6.77423 2.70919L9.26835 4.41374C9.48273 4.56593 9.67097 4.60905 9.83306 4.54311C10.0004 4.47208 10.084 4.2996 10.084 4.02565V2.94509C10.8265 3.10743 11.5089 3.38137 12.1311 3.76693C12.7585 4.15248 13.3023 4.62427 13.7625 5.18231C14.2278 5.74035 14.5886 6.36433 14.8448 7.05427C15.101 7.73913 15.2291 8.46712 15.2291 9.23822C15.2291 10.1362 15.0566 10.9783 14.7115 11.7646C14.3716 12.5459 13.8958 13.2333 13.284 13.8268C12.6775 14.4153 11.9716 14.8744 11.1664 15.2041C10.3612 15.539 9.4958 15.7064 8.57031 15.7064C7.64482 15.7064 6.77685 15.539 5.96639 15.2041C5.16116 14.8744 4.45267 14.4153 3.8409 13.8268C3.23436 13.2333 2.75855 12.5459 2.41345 11.7646C2.07358 10.9783 1.90365 10.1362 1.90365 9.23822C1.90365 8.51785 2.01868 7.83298 2.24874 7.18363C2.47881 6.52921 2.80038 5.93312 3.21345 5.39538C3.62652 4.85763 4.11018 4.39599 4.66443 4.01043C4.82652 3.89375 4.92848 3.75171 4.97031 3.5843C5.01737 3.41689 4.99123 3.25455 4.89188 3.09728C4.79253 2.94509 4.64874 2.85378 4.46051 2.82334C4.27227 2.78783 4.09188 2.83348 3.91933 2.96031C3.24482 3.43211 2.65659 3.99521 2.15463 4.64964C1.65267 5.29899 1.26312 6.01429 0.985999 6.79554C0.708875 7.57172 0.570312 8.38595 0.570312 9.23822ZM6.94678 12.4266C7.2762 12.4266 7.4409 12.2364 7.4409 11.8559V11.2243H7.81737C7.95332 11.2243 8.06051 11.1863 8.13894 11.1102C8.2226 11.029 8.26443 10.9225 8.26443 10.7906C8.26443 10.6587 8.2226 10.5547 8.13894 10.4786C8.06051 10.4025 7.95332 10.3644 7.81737 10.3644H7.4409V7.13036C7.4409 6.89193 7.36508 6.71691 7.21345 6.6053C7.06704 6.4937 6.88142 6.43789 6.65659 6.43789C6.44744 6.43789 6.27227 6.48101 6.1311 6.56726C5.99515 6.64842 5.86704 6.79047 5.74678 6.99339C5.60561 7.22168 5.45659 7.46265 5.29972 7.7163C5.14809 7.96996 4.99384 8.22868 4.83698 8.49248C4.68012 8.75628 4.52587 9.01754 4.37423 9.27627C4.2226 9.53499 4.07881 9.78104 3.94286 10.0144C3.88012 10.126 3.83567 10.2275 3.80953 10.3188C3.78861 10.405 3.77816 10.5039 3.77816 10.6156C3.77816 10.7982 3.83306 10.9453 3.94286 11.0569C4.05789 11.1685 4.21737 11.2243 4.42129 11.2243H6.4762V11.8559C6.4762 12.2364 6.63306 12.4266 6.94678 12.4266ZM4.80561 10.3644V10.3416C5.0775 9.84445 5.3494 9.34983 5.62129 8.85774C5.89842 8.36058 6.17293 7.86342 6.44482 7.36626H6.4762V10.3644H4.80561ZM10.9311 12.4495C11.5795 12.4495 12.0997 12.2643 12.4919 11.894C12.8893 11.5186 13.088 11.0239 13.088 10.4101C13.088 9.85206 12.9102 9.39295 12.5546 9.03276C12.2043 8.67257 11.7494 8.49248 11.1899 8.49248C10.9442 8.49248 10.701 8.54828 10.4605 8.65989C10.22 8.7715 10.0501 8.92369 9.95071 9.11647H9.98992L10.1311 7.3967H12.4762C12.5912 7.3967 12.6906 7.35612 12.7742 7.27495C12.8631 7.19378 12.9076 7.08724 12.9076 6.95534C12.9076 6.82852 12.8631 6.72706 12.7742 6.65096C12.6906 6.56979 12.5912 6.52921 12.4762 6.52921H9.96639C9.55332 6.52921 9.3311 6.73974 9.29972 7.1608L9.12718 9.35236C9.11149 9.54007 9.1507 9.68211 9.24482 9.7785C9.33894 9.86982 9.46966 9.91547 9.63698 9.91547C9.7677 9.91547 9.87227 9.90025 9.95071 9.86982C10.0291 9.83938 10.1233 9.78357 10.2331 9.7024C10.3847 9.57051 10.5259 9.47665 10.6566 9.42085C10.7873 9.35997 10.9311 9.32954 11.088 9.32954C11.3912 9.32954 11.637 9.431 11.8252 9.63392C12.0135 9.83177 12.1076 10.0956 12.1076 10.4253C12.1076 10.7601 11.9978 11.0366 11.7782 11.2548C11.5638 11.4729 11.2945 11.582 10.9703 11.582C10.7402 11.582 10.5311 11.5236 10.3429 11.407C10.1546 11.2852 10.0082 11.1254 9.90365 10.9275C9.84613 10.8312 9.78077 10.7576 9.70757 10.7069C9.63437 10.6511 9.55071 10.6232 9.45659 10.6232C9.32587 10.6232 9.21868 10.6637 9.13502 10.7449C9.05659 10.8261 9.01737 10.9326 9.01737 11.0645C9.01737 11.1153 9.0226 11.166 9.03306 11.2167C9.04352 11.2674 9.0592 11.3182 9.08012 11.3689C9.18469 11.6428 9.39907 11.8914 9.72325 12.1146C10.0527 12.3379 10.4553 12.4495 10.9311 12.4495Z"
		fill="currentColor"
	/>
</svg>
