<svg
	color="rgb(var(--foreground, 0, 0, 0))"
	viewBox="0 0 17 17"
	fill="none"
	xmlns="http://www.w3.org/2000/svg"
>
	<path
		d="M0.570312 9.23822C0.570312 10.2985 0.779463 11.2979 1.19776 12.2364C1.61607 13.1749 2.19383 14.0018 2.93108 14.7171C3.66834 15.4274 4.51801 15.9854 5.48011 16.3912C6.44743 16.7971 7.47749 17 8.57031 17C9.66312 17 10.6906 16.7971 11.6527 16.3912C12.62 15.9854 13.4723 15.4274 14.2095 14.7171C14.9468 14.0018 15.5246 13.1749 15.9429 12.2364C16.3612 11.2979 16.5703 10.2985 16.5703 9.23822C16.5703 8.30478 16.4056 7.41699 16.0762 6.57486C15.7468 5.73274 15.2867 4.97178 14.6958 4.29199C14.1102 3.60713 13.4226 3.03641 12.6331 2.57983C11.8487 2.11818 10.9991 1.79858 10.084 1.62102V0.540462C10.084 0.266517 10.003 0.0965693 9.84089 0.0306195C9.6788 -0.0353302 9.49057 0.00525423 9.27619 0.152373L6.77423 1.84931C6.59122 1.97106 6.49971 2.11311 6.49971 2.27545C6.49971 2.43779 6.59122 2.58237 6.77423 2.70919L9.26834 4.41374C9.48272 4.56593 9.67096 4.60905 9.83305 4.5431C10.0004 4.47208 10.084 4.2996 10.084 4.02565V2.94509C10.8265 3.10743 11.5089 3.38137 12.1311 3.76693C12.7585 4.15248 13.3023 4.62427 13.7625 5.18231C14.2278 5.74035 14.5886 6.36433 14.8448 7.05427C15.101 7.73913 15.2291 8.46711 15.2291 9.23822C15.2291 10.1362 15.0566 10.9783 14.7115 11.7646C14.3716 12.5459 13.8958 13.2333 13.284 13.8268C12.6775 14.4153 11.9716 14.8744 11.1664 15.2041C10.3612 15.539 9.4958 15.7064 8.57031 15.7064C7.64481 15.7064 6.77684 15.539 5.96638 15.2041C5.16115 14.8744 4.45265 14.4153 3.84089 13.8268C3.23435 13.2333 2.75855 12.5459 2.41345 11.7646C2.07358 10.9783 1.90365 10.1362 1.90365 9.23822C1.90365 8.51785 2.01868 7.83298 2.24875 7.18363C2.47881 6.52921 2.80036 5.93312 3.21344 5.39538C3.62651 4.85763 4.11017 4.39599 4.66442 4.01043C4.82651 3.89375 4.92847 3.75171 4.9703 3.5843C5.01736 3.41689 4.99122 3.25455 4.89187 3.09728C4.79252 2.94509 4.64873 2.85378 4.4605 2.82334C4.27226 2.78783 4.09187 2.83348 3.91932 2.96031C3.24481 3.4321 2.65659 3.99521 2.15463 4.64964C1.65267 5.29899 1.26312 6.01429 0.985999 6.79554C0.708875 7.57172 0.570312 8.38595 0.570312 9.23822ZM5.93501 12.4495C6.66181 12.4495 7.21606 12.1755 7.59776 11.6276C7.98468 11.0747 8.17815 10.2858 8.17815 9.26105C8.17815 8.76389 8.12325 8.32761 8.01344 7.9522C7.90364 7.57172 7.74416 7.2648 7.53501 7.03144C7.35723 6.82344 7.14024 6.66364 6.88403 6.55204C6.63305 6.44043 6.34808 6.38462 6.02913 6.38462C5.4069 6.38462 4.91017 6.56979 4.53893 6.94012C4.16769 7.31046 3.98207 7.81015 3.98207 8.43921C3.98207 8.99725 4.152 9.45382 4.49187 9.80894C4.83697 10.159 5.27357 10.334 5.80167 10.334C6.152 10.334 6.45527 10.2554 6.71148 10.0981C6.96769 9.93577 7.15592 9.72016 7.27619 9.45129L7.23697 9.39802C7.23697 9.41324 7.23697 9.431 7.23697 9.45129C7.23697 9.46651 7.23697 9.48173 7.23697 9.49695C7.23697 9.91801 7.18207 10.2833 7.07226 10.5927C6.96769 10.9022 6.81605 11.1432 6.61736 11.3156C6.41867 11.4881 6.1886 11.5744 5.92717 11.5744C5.73893 11.5744 5.56899 11.5312 5.41736 11.445C5.26573 11.3588 5.14547 11.237 5.05658 11.0797C4.9886 10.9732 4.91801 10.8996 4.84481 10.8591C4.77684 10.8134 4.69056 10.7906 4.58599 10.7906C4.46573 10.7906 4.36115 10.8362 4.27226 10.9275C4.18337 11.0138 4.13893 11.1153 4.13893 11.2319C4.13893 11.2776 4.14154 11.3207 4.14677 11.3613C4.15723 11.4019 4.17553 11.4501 4.20167 11.5059C4.25396 11.6124 4.35069 11.7392 4.49187 11.8864C4.63305 12.0335 4.82128 12.1654 5.05658 12.2821C5.2971 12.3937 5.58991 12.4495 5.93501 12.4495ZM6.06834 9.52738C5.74416 9.52738 5.48011 9.42339 5.27618 9.21539C5.07749 9.0074 4.97814 8.73345 4.97814 8.39356C4.97814 8.03337 5.07749 7.74928 5.27618 7.54128C5.47488 7.33329 5.73893 7.22929 6.06834 7.22929C6.3873 7.22929 6.64873 7.33836 6.85266 7.5565C7.05658 7.77464 7.15854 8.05873 7.15854 8.40878C7.15854 8.73852 7.05658 9.0074 6.85266 9.21539C6.64873 9.42339 6.3873 9.52738 6.06834 9.52738ZM11.2683 12.4419C11.7023 12.4419 12.0814 12.3176 12.4056 12.069C12.7298 11.8153 12.9808 11.4628 13.1585 11.0113C13.3363 10.5598 13.4252 10.0296 13.4252 9.42085C13.4252 8.80701 13.3363 8.2718 13.1585 7.81523C12.9808 7.35865 12.7298 7.00354 12.4056 6.74988C12.0814 6.49623 11.7023 6.36941 11.2683 6.36941C10.6148 6.36941 10.0919 6.64842 9.69972 7.20646C9.31279 7.7645 9.11933 8.50516 9.11933 9.42846C9.11933 10.3416 9.3154 11.0721 9.70756 11.62C10.0997 12.1679 10.62 12.4419 11.2683 12.4419ZM11.2683 11.5211C10.9232 11.5211 10.6487 11.3334 10.4448 10.958C10.2409 10.5826 10.1389 10.0702 10.1389 9.42085C10.1389 8.75628 10.2383 8.23629 10.437 7.86088C10.6409 7.4804 10.918 7.29017 11.2683 7.29017C11.6187 7.29017 11.8932 7.47787 12.0919 7.85327C12.2958 8.22868 12.3978 8.75121 12.3978 9.42085C12.3978 10.0702 12.2958 10.5826 12.0919 10.958C11.8932 11.3334 11.6187 11.5211 11.2683 11.5211Z"
		fill="currentColor"
	/>
</svg>
