<svg
	color="rgb(var(--foreground, 0, 0, 0))"
	viewBox="0 0 17 17"
	fill="none"
	xmlns="http://www.w3.org/2000/svg"
>
	<path
		d="M0.570312 9.23822C0.570312 10.2985 0.779463 11.2979 1.19776 12.2364C1.61607 13.1749 2.19384 14.0018 2.9311 14.7171C3.66835 15.4274 4.51801 15.9854 5.48011 16.3912C6.44743 16.7971 7.47749 17 8.57031 17C9.66312 17 10.6906 16.7971 11.6527 16.3912C12.62 15.9854 13.4723 15.4274 14.2095 14.7171C14.9468 14.0018 15.5246 13.1749 15.9429 12.2364C16.3612 11.2979 16.5703 10.2985 16.5703 9.23822C16.5703 8.30478 16.4056 7.41699 16.0762 6.57486C15.7468 5.73274 15.2867 4.97178 14.6958 4.29199C14.1102 3.60713 13.4226 3.03641 12.6331 2.57983C11.8487 2.11818 10.9991 1.79858 10.084 1.62102V0.540462C10.084 0.266517 10.003 0.0965693 9.84089 0.0306195C9.6788 -0.0353302 9.49057 0.00525423 9.27619 0.152373L6.77423 1.84931C6.59122 1.97106 6.49971 2.11311 6.49971 2.27545C6.49971 2.43779 6.59122 2.58237 6.77423 2.70919L9.26834 4.41374C9.48272 4.56593 9.67096 4.60905 9.83305 4.5431C10.0004 4.47208 10.084 4.2996 10.084 4.02565V2.94509C10.8265 3.10743 11.5089 3.38137 12.1311 3.76693C12.7585 4.15248 13.3023 4.62427 13.7625 5.18231C14.2278 5.74035 14.5886 6.36433 14.8448 7.05427C15.101 7.73913 15.2291 8.46711 15.2291 9.23822C15.2291 10.1362 15.0566 10.9783 14.7115 11.7646C14.3716 12.5459 13.8958 13.2333 13.284 13.8268C12.6775 14.4153 11.9716 14.8744 11.1664 15.2041C10.3612 15.539 9.4958 15.7064 8.57031 15.7064C7.64481 15.7064 6.77684 15.539 5.96638 15.2041C5.16115 14.8744 4.45267 14.4153 3.8409 13.8268C3.23437 13.2333 2.75855 12.5459 2.41345 11.7646C2.07358 10.9783 1.90365 10.1362 1.90365 9.23822C1.90365 8.51785 2.01868 7.83298 2.24875 7.18363C2.47881 6.52921 2.80038 5.93312 3.21345 5.39538C3.62652 4.85763 4.11017 4.39599 4.66442 4.01043C4.82651 3.89375 4.92847 3.75171 4.9703 3.5843C5.01736 3.41689 4.99122 3.25455 4.89187 3.09728C4.79252 2.94509 4.64873 2.85378 4.4605 2.82334C4.27226 2.78783 4.09188 2.83348 3.91934 2.96031C3.24483 3.4321 2.65659 3.99521 2.15463 4.64964C1.65267 5.29899 1.26312 6.01429 0.985999 6.79554C0.708875 7.57172 0.570312 8.38595 0.570312 9.23822ZM6.42128 12.3505C6.57292 12.3505 6.69318 12.3049 6.78207 12.2136C6.87619 12.1172 6.92324 11.9878 6.92324 11.8255V7.03905C6.92324 6.85135 6.87357 6.70423 6.77423 6.59769C6.68011 6.48609 6.54416 6.43028 6.36638 6.43028C6.25658 6.43028 6.15723 6.45057 6.06834 6.49116C5.97945 6.52667 5.86181 6.59008 5.7154 6.6814L4.63305 7.38909C4.54416 7.44997 4.4788 7.51592 4.43697 7.58694C4.39514 7.65796 4.37422 7.73913 4.37422 7.83045C4.37422 7.95727 4.41867 8.06634 4.50756 8.15766C4.59645 8.24897 4.70363 8.29463 4.82912 8.29463C4.90233 8.29463 4.96246 8.28702 5.00952 8.2718C5.0618 8.25151 5.12716 8.21346 5.2056 8.15766L5.95854 7.62499H5.93501V11.8255C5.93501 11.9827 5.97945 12.1096 6.06834 12.206C6.15723 12.3023 6.27488 12.3505 6.42128 12.3505ZM10.5076 12.4419C10.9415 12.4419 11.3206 12.3176 11.6448 12.069C11.969 11.8153 12.22 11.4628 12.3978 11.0113C12.5755 10.5598 12.6644 10.0296 12.6644 9.42085C12.6644 8.80701 12.5755 8.2718 12.3978 7.81523C12.22 7.35865 11.969 7.00354 11.6448 6.74988C11.3206 6.49623 10.9415 6.36941 10.5076 6.36941C9.85919 6.36941 9.33632 6.64842 8.93893 7.20646C8.54678 7.75942 8.3507 8.49755 8.3507 9.42085C8.3507 10.334 8.54678 11.0671 8.93893 11.62C9.33632 12.1679 9.85919 12.4419 10.5076 12.4419ZM10.5076 11.5211C10.1625 11.5211 9.88534 11.3334 9.67619 10.958C9.47227 10.5826 9.37031 10.0702 9.37031 9.42085C9.37031 8.75628 9.47227 8.23629 9.67619 7.86088C9.88011 7.4804 10.1572 7.29017 10.5076 7.29017C10.8579 7.29017 11.1324 7.47787 11.3311 7.85327C11.535 8.22868 11.637 8.75121 11.637 9.42085C11.637 10.0702 11.535 10.5826 11.3311 10.958C11.1272 11.3334 10.8527 11.5211 10.5076 11.5211Z"
		fill="currentColor"
	/>
</svg>
