<svg
	color="rgb(var(--foreground, 0, 0, 0))"
	viewBox="0 0 17 17"
	fill="none"
	xmlns="http://www.w3.org/2000/svg"
>
	<path
		d="M0.570312 9.23822C0.570312 10.2985 0.779463 11.2979 1.19776 12.2364C1.61607 13.1749 2.19383 14.0018 2.93108 14.7171C3.66834 15.4274 4.51801 15.9854 5.48011 16.3912C6.44743 16.7971 7.47749 17 8.57031 17C9.66312 17 10.6906 16.7971 11.6527 16.3912C12.62 15.9854 13.4723 15.4274 14.2095 14.7171C14.9468 14.0018 15.5246 13.1749 15.9429 12.2364C16.3612 11.2979 16.5703 10.2985 16.5703 9.23822C16.5703 8.30478 16.4056 7.41699 16.0762 6.57486C15.7468 5.73274 15.2867 4.97178 14.6958 4.29199C14.1102 3.60713 13.4226 3.03641 12.6331 2.57983C11.8487 2.11818 10.9991 1.79858 10.084 1.62102V0.540462C10.084 0.266517 10.003 0.0965693 9.84089 0.0306195C9.6788 -0.0353302 9.49057 0.00525423 9.27619 0.152373L6.77423 1.84931C6.59122 1.97106 6.49971 2.11311 6.49971 2.27545C6.49971 2.43779 6.59122 2.58237 6.77423 2.70919L9.26834 4.41374C9.48272 4.56593 9.67096 4.60905 9.83305 4.5431C10.0004 4.47208 10.084 4.2996 10.084 4.02565V2.94509C10.8265 3.10743 11.5089 3.38137 12.1311 3.76693C12.7585 4.15248 13.3023 4.62427 13.7625 5.18231C14.2278 5.74035 14.5886 6.36433 14.8448 7.05427C15.101 7.73913 15.2291 8.46711 15.2291 9.23822C15.2291 10.1362 15.0566 10.9783 14.7115 11.7646C14.3716 12.5459 13.8958 13.2333 13.284 13.8268C12.6775 14.4153 11.9716 14.8744 11.1664 15.2041C10.3612 15.539 9.4958 15.7064 8.57031 15.7064C7.64481 15.7064 6.77684 15.539 5.96638 15.2041C5.16115 14.8744 4.45265 14.4153 3.84089 13.8268C3.23435 13.2333 2.75855 12.5459 2.41345 11.7646C2.07358 10.9783 1.90365 10.1362 1.90365 9.23822C1.90365 8.51785 2.01868 7.83298 2.24875 7.18363C2.47881 6.52921 2.80036 5.93312 3.21344 5.39538C3.62651 4.85763 4.11017 4.39599 4.66442 4.01043C4.82651 3.89375 4.92847 3.75171 4.9703 3.5843C5.01736 3.41689 4.99122 3.25455 4.89187 3.09728C4.79252 2.94509 4.64873 2.85378 4.4605 2.82334C4.27226 2.78783 4.09187 2.83348 3.91932 2.96031C3.24481 3.4321 2.65659 3.99521 2.15463 4.64964C1.65267 5.29899 1.26312 6.01429 0.985999 6.79554C0.708875 7.57172 0.570312 8.38595 0.570312 9.23822ZM6.09187 12.4419C6.72455 12.4419 7.22913 12.2542 7.6056 11.8787C7.98207 11.5033 8.1703 11.0036 8.1703 10.3797C8.1703 9.83177 7.99514 9.38027 7.64481 9.02515C7.29972 8.67004 6.8605 8.49248 6.32717 8.49248C5.96115 8.49248 5.64481 8.57619 5.37815 8.7436C5.11671 8.90593 4.9337 9.119 4.82912 9.3828L4.86834 9.43607C4.86311 9.4107 4.8605 9.39548 4.8605 9.39041C4.8605 9.38027 4.8605 9.36505 4.8605 9.34475C4.8605 8.71569 4.98076 8.21093 5.22128 7.83045C5.46703 7.44997 5.79383 7.25973 6.20168 7.25973C6.4056 7.25973 6.57292 7.29777 6.70364 7.37387C6.83958 7.44997 6.952 7.55904 7.04089 7.70108C7.16638 7.88879 7.3337 7.98264 7.54285 7.98264C7.65789 7.98264 7.752 7.94459 7.82521 7.86849C7.89841 7.78732 7.93501 7.68586 7.93501 7.56411C7.93501 7.51338 7.92978 7.46265 7.91932 7.41192C7.90887 7.36119 7.89579 7.31553 7.88011 7.27495C7.77553 7.01622 7.57945 6.80315 7.29187 6.63574C7.00429 6.46326 6.65396 6.37701 6.24089 6.37701C5.48795 6.37701 4.91017 6.6535 4.50756 7.20646C4.10494 7.75435 3.90363 8.53814 3.90363 9.55782C3.90363 9.95859 3.93501 10.3239 3.99775 10.6536C4.06573 10.9783 4.16769 11.2573 4.30363 11.4907C4.48141 11.8052 4.72455 12.0436 5.03305 12.206C5.34154 12.3632 5.69449 12.4419 6.09187 12.4419ZM6.04481 11.5972C5.72586 11.5972 5.46181 11.4881 5.25266 11.27C5.0435 11.0468 4.93893 10.7652 4.93893 10.4253C4.93893 10.0905 5.04089 9.81909 5.24481 9.61109C5.45396 9.39802 5.72063 9.29149 6.04481 9.29149C6.37422 9.29149 6.64089 9.39548 6.84481 9.60348C7.05396 9.81147 7.15854 10.0854 7.15854 10.4253C7.15854 10.7855 7.05658 11.0721 6.85266 11.2852C6.65396 11.4932 6.38468 11.5972 6.04481 11.5972ZM11.2527 12.4419C11.6866 12.4419 12.0657 12.3176 12.3899 12.069C12.7141 11.8153 12.9651 11.4628 13.1429 11.0113C13.3206 10.5598 13.4095 10.0296 13.4095 9.42085C13.4095 8.80701 13.3206 8.2718 13.1429 7.81523C12.9651 7.35865 12.7141 7.00354 12.3899 6.74988C12.0657 6.49623 11.6866 6.36941 11.2527 6.36941C10.5991 6.36941 10.0762 6.64842 9.68403 7.20646C9.2971 7.7645 9.10364 8.50516 9.10364 9.42846C9.10364 10.3416 9.29972 11.0721 9.69188 11.62C10.084 12.1679 10.6043 12.4419 11.2527 12.4419ZM11.2527 11.5211C10.9076 11.5211 10.6331 11.3334 10.4291 10.958C10.2252 10.5826 10.1232 10.0702 10.1232 9.42085C10.1232 8.75628 10.2226 8.23629 10.4213 7.86088C10.6252 7.4804 10.9023 7.29017 11.2527 7.29017C11.603 7.29017 11.8775 7.47787 12.0762 7.85327C12.2801 8.22868 12.3821 8.75121 12.3821 9.42085C12.3821 10.0702 12.2801 10.5826 12.0762 10.958C11.8775 11.3334 11.603 11.5211 11.2527 11.5211Z"
		fill="currentColor"
	/>
</svg>
