<svg
	color="rgb(var(--foreground, 0, 0, 0))"
	viewBox="0 0 17 17"
	fill="none"
	xmlns="http://www.w3.org/2000/svg"
>
	<path
		d="M0.570312 9.23822C0.570312 10.2985 0.779463 11.2979 1.19776 12.2364C1.61606 13.1749 2.19384 14.0018 2.9311 14.7171C3.66835 15.4274 4.51803 15.9854 5.48012 16.3912C6.44744 16.7971 7.4775 17 8.57031 17C9.66312 17 10.6906 16.7971 11.6527 16.3912C12.62 15.9854 13.4723 15.4274 14.2095 14.7171C14.9468 14.0018 15.5246 13.1749 15.9429 12.2364C16.3612 11.2979 16.5703 10.2985 16.5703 9.23822C16.5703 8.30478 16.4056 7.41699 16.0762 6.57486C15.7468 5.73274 15.2867 4.97178 14.6958 4.29199C14.1102 3.60713 13.4226 3.03641 12.6331 2.57983C11.8487 2.11818 10.9991 1.79858 10.084 1.62102V0.540462C10.084 0.266517 10.003 0.0965693 9.8409 0.0306195C9.67881 -0.0353302 9.49057 0.00525422 9.2762 0.152373L6.77423 1.84931C6.59123 1.97106 6.49972 2.11311 6.49972 2.27545C6.49972 2.43779 6.59123 2.58237 6.77423 2.70919L9.26835 4.41374C9.48273 4.56593 9.67097 4.60905 9.83306 4.54311C10.0004 4.47208 10.084 4.2996 10.084 4.02565V2.94509C10.8265 3.10743 11.5089 3.38137 12.1311 3.76693C12.7585 4.15248 13.3023 4.62427 13.7625 5.18231C14.2278 5.74035 14.5886 6.36433 14.8448 7.05427C15.101 7.73913 15.2291 8.46712 15.2291 9.23822C15.2291 10.1362 15.0566 10.9783 14.7115 11.7646C14.3716 12.5459 13.8958 13.2333 13.284 13.8268C12.6775 14.4153 11.9716 14.8744 11.1664 15.2041C10.3612 15.539 9.4958 15.7064 8.57031 15.7064C7.64482 15.7064 6.77685 15.539 5.96639 15.2041C5.16116 14.8744 4.45267 14.4153 3.8409 13.8268C3.23436 13.2333 2.75855 12.5459 2.41345 11.7646C2.07358 10.9783 1.90365 10.1362 1.90365 9.23822C1.90365 8.51785 2.01868 7.83298 2.24874 7.18363C2.47881 6.52921 2.80038 5.93312 3.21345 5.39538C3.62652 4.85763 4.11018 4.39599 4.66443 4.01043C4.82652 3.89375 4.92848 3.75171 4.97031 3.5843C5.01737 3.41689 4.99123 3.25455 4.89188 3.09728C4.79253 2.94509 4.64874 2.85378 4.46051 2.82334C4.27227 2.78783 4.09188 2.83348 3.91933 2.96031C3.24482 3.43211 2.65659 3.99521 2.15463 4.64964C1.65267 5.29899 1.26312 6.01429 0.985999 6.79554C0.708875 7.57172 0.570312 8.38595 0.570312 9.23822ZM6.1311 12.4419C6.74809 12.4419 7.25267 12.2795 7.64482 11.9548C8.04221 11.6251 8.2409 11.204 8.2409 10.6917C8.2409 10.3213 8.12064 10.0017 7.88012 9.73284C7.63959 9.4589 7.33371 9.30163 6.96247 9.26105V9.2991C7.26051 9.24837 7.5141 9.0911 7.72325 8.8273C7.93763 8.5635 8.04482 8.26166 8.04482 7.92176C8.04482 7.46519 7.86966 7.09232 7.51933 6.80315C7.17423 6.51399 6.72718 6.36941 6.17816 6.36941C5.70234 6.36941 5.28404 6.48862 4.92325 6.72706C4.5677 6.96042 4.34809 7.25973 4.26443 7.62499C4.2592 7.67065 4.25397 7.71377 4.24874 7.75435C4.24352 7.79494 4.2409 7.83552 4.2409 7.8761C4.2409 8.01308 4.28012 8.12468 4.35855 8.21093C4.44221 8.29717 4.55201 8.34029 4.68796 8.34029C4.90757 8.34029 5.0592 8.22107 5.14286 7.98264C5.22129 7.7442 5.34417 7.56411 5.51149 7.44236C5.67881 7.31553 5.89319 7.25212 6.15463 7.25212C6.43175 7.25212 6.65397 7.32568 6.82129 7.4728C6.99384 7.61484 7.08012 7.80255 7.08012 8.03591C7.08012 8.27941 6.99384 8.48234 6.82129 8.64467C6.64874 8.80194 6.42391 8.88057 6.14678 8.88057H5.80953C5.67881 8.88057 5.57162 8.92115 5.48796 9.00232C5.40953 9.07842 5.37031 9.18495 5.37031 9.32193C5.37031 9.44875 5.41214 9.55529 5.4958 9.64153C5.57946 9.7227 5.68404 9.76328 5.80953 9.76328H6.17816C6.5128 9.76328 6.77685 9.84445 6.97031 10.0068C7.16378 10.1691 7.26051 10.3847 7.26051 10.6536C7.26051 10.9123 7.15332 11.1305 6.93894 11.308C6.72979 11.4805 6.46312 11.5668 6.13894 11.5668C5.86182 11.5668 5.62914 11.5033 5.4409 11.3765C5.25267 11.2497 5.1141 11.0671 5.02521 10.8286C4.97816 10.7018 4.91803 10.6105 4.84482 10.5547C4.77162 10.4989 4.68273 10.471 4.57816 10.471C4.44744 10.471 4.33763 10.5141 4.24874 10.6003C4.16508 10.6866 4.12325 10.7982 4.12325 10.9352C4.12325 10.9757 4.12587 11.0189 4.1311 11.0645C4.13633 11.1051 4.14417 11.1457 4.15463 11.1863C4.23829 11.5414 4.46835 11.8407 4.84482 12.0842C5.22129 12.3226 5.65005 12.4419 6.1311 12.4419ZM11.1899 12.4419C11.6239 12.4419 12.0004 12.3176 12.3193 12.069C12.6435 11.8153 12.8945 11.4628 13.0723 11.0113C13.2553 10.5598 13.3468 10.0296 13.3468 9.42085C13.3468 8.80701 13.2553 8.2718 13.0723 7.81523C12.8945 7.35865 12.6435 7.00354 12.3193 6.74989C12.0004 6.49623 11.6239 6.36941 11.1899 6.36941C10.5363 6.36941 10.0134 6.64842 9.62129 7.20646C9.22914 7.75942 9.03306 8.49755 9.03306 9.42085C9.03306 10.334 9.22914 11.0671 9.62129 11.62C10.0134 12.1679 10.5363 12.4419 11.1899 12.4419ZM11.1899 11.5211C10.8448 11.5211 10.5677 11.3334 10.3585 10.958C10.1546 10.5826 10.0527 10.0702 10.0527 9.42085C10.0527 8.75628 10.1546 8.23629 10.3585 7.86089C10.5625 7.48041 10.8396 7.29017 11.1899 7.29017C11.5402 7.29017 11.8148 7.47787 12.0135 7.85328C12.2174 8.22868 12.3193 8.75121 12.3193 9.42085C12.3193 10.0702 12.2174 10.5826 12.0135 10.958C11.8095 11.3334 11.535 11.5211 11.1899 11.5211Z"
		fill="currentColor"
	/>
</svg>
