<svg
	color="rgb(var(--foreground, 0, 0, 0))"
	viewBox="0 0 17 17"
	fill="none"
	xmlns="http://www.w3.org/2000/svg"
>
	<path
		d="M0.570312 9.23822C0.570312 10.2985 0.779463 11.2979 1.19776 12.2364C1.61606 13.1749 2.19384 14.0018 2.9311 14.7171C3.66835 15.4274 4.51803 15.9854 5.48012 16.3912C6.44744 16.7971 7.4775 17 8.57031 17C9.66312 17 10.6906 16.7971 11.6527 16.3912C12.62 15.9854 13.4723 15.4274 14.2095 14.7171C14.9468 14.0018 15.5246 13.1749 15.9429 12.2364C16.3612 11.2979 16.5703 10.2985 16.5703 9.23822C16.5703 8.30478 16.4056 7.41699 16.0762 6.57486C15.7468 5.73274 15.2867 4.97178 14.6958 4.29199C14.1102 3.60713 13.4226 3.03641 12.6331 2.57983C11.8487 2.11818 10.9991 1.79858 10.084 1.62102V0.540462C10.084 0.266517 10.003 0.0965693 9.8409 0.0306195C9.67881 -0.0353302 9.49057 0.00525422 9.2762 0.152373L6.77423 1.84931C6.59123 1.97106 6.49972 2.11311 6.49972 2.27545C6.49972 2.43779 6.59123 2.58237 6.77423 2.70919L9.26835 4.41374C9.48273 4.56593 9.67097 4.60905 9.83306 4.54311C10.0004 4.47208 10.084 4.2996 10.084 4.02565V2.94509C10.8265 3.10743 11.5089 3.38137 12.1311 3.76693C12.7585 4.15248 13.3023 4.62427 13.7625 5.18231C14.2278 5.74035 14.5886 6.36433 14.8448 7.05427C15.101 7.73913 15.2291 8.46712 15.2291 9.23822C15.2291 10.1362 15.0566 10.9783 14.7115 11.7646C14.3716 12.5459 13.8958 13.2333 13.284 13.8268C12.6775 14.4153 11.9716 14.8744 11.1664 15.2041C10.3612 15.539 9.4958 15.7064 8.57031 15.7064C7.64482 15.7064 6.77685 15.539 5.96639 15.2041C5.16116 14.8744 4.45267 14.4153 3.8409 13.8268C3.23436 13.2333 2.75855 12.5459 2.41345 11.7646C2.07358 10.9783 1.90365 10.1362 1.90365 9.23822C1.90365 8.51785 2.01868 7.83298 2.24874 7.18363C2.47881 6.52921 2.80038 5.93312 3.21345 5.39538C3.62652 4.85763 4.11018 4.39599 4.66443 4.01043C4.82652 3.89375 4.92848 3.75171 4.97031 3.5843C5.01737 3.41689 4.99123 3.25455 4.89188 3.09728C4.79253 2.94509 4.64874 2.85378 4.46051 2.82334C4.27227 2.78783 4.09188 2.83348 3.91933 2.96031C3.24482 3.43211 2.65659 3.99521 2.15463 4.64964C1.65267 5.29899 1.26312 6.01429 0.985999 6.79554C0.708875 7.57172 0.570312 8.38595 0.570312 9.23822Z"
		fill="currentColor"
	/>
</svg>
