<svg
	color="rgb(var(--foreground, 0, 0, 0))"
	viewBox="0 0 17 17"
	fill="none"
	xmlns="http://www.w3.org/2000/svg"
>
	<path
		d="M0.570312 9.23624C0.570312 10.2968 0.779463 11.2964 1.19776 12.2352C1.61607 13.1739 2.19384 14.0011 2.9311 14.7165C3.66835 15.427 4.51803 15.9851 5.48012 16.3911C6.44744 16.797 7.47751 17 8.57032 17C9.66313 17 10.6906 16.797 11.6527 16.3911C12.62 15.9851 13.4723 15.427 14.2095 14.7165C14.9468 14.0011 15.5246 13.1739 15.9429 12.2352C16.3612 11.2964 16.5703 10.2968 16.5703 9.23624C16.5703 8.38375 16.4318 7.56932 16.1546 6.79294C15.8775 6.01149 15.488 5.29601 14.986 4.64649C14.484 3.9919 13.8958 3.42865 13.2213 2.95673C13.0488 2.82987 12.8684 2.7842 12.6801 2.81972C12.4919 2.85017 12.3481 2.94151 12.2488 3.09374C12.1494 3.25104 12.1207 3.41342 12.1625 3.58088C12.2095 3.74833 12.3141 3.89041 12.4762 4.00712C13.0305 4.39277 13.5141 4.85454 13.9272 5.39242C14.3403 5.9303 14.6618 6.52654 14.8919 7.18113C15.1219 7.83065 15.237 8.51569 15.237 9.23624C15.237 10.1344 15.0644 10.9767 14.7193 11.7633C14.3795 12.5447 13.9037 13.2323 13.2919 13.826C12.6854 14.4146 11.9769 14.8738 11.1664 15.2037C10.3612 15.5386 9.49581 15.706 8.57032 15.706C7.64483 15.706 6.77947 15.5386 5.97424 15.2037C5.16901 14.8738 4.46051 14.4146 3.84875 13.826C3.24221 13.2323 2.76639 12.5447 2.42129 11.7633C2.08143 10.9767 1.91149 10.1344 1.91149 9.23624C1.91149 8.46494 2.03959 7.73677 2.2958 7.05173C2.55201 6.36162 2.91018 5.73748 3.37032 5.1793C3.83568 4.62112 4.38208 4.1492 5.00953 3.76355C5.63698 3.3779 6.31934 3.10389 7.05659 2.94151V4.02996C7.05659 4.2989 7.13764 4.46889 7.29973 4.53993C7.46705 4.6059 7.6579 4.5653 7.87228 4.41815L10.3742 2.71316C10.552 2.59645 10.6409 2.45691 10.6409 2.29453C10.6461 2.12708 10.5573 1.98246 10.3742 1.86067L7.88012 0.15569C7.66052 0.00345978 7.46705 -0.037135 7.29973 0.0339059C7.13764 0.0998725 7.05659 0.269863 7.05659 0.543878V1.6171C6.14156 1.79471 5.28927 2.11439 4.49973 2.57616C3.71541 3.03285 3.02783 3.60371 2.43698 4.28875C1.85136 4.96871 1.39384 5.72987 1.06443 6.57221C0.735019 7.41455 0.570312 8.30256 0.570312 9.23624ZM6.09189 12.4407C6.70888 12.4407 7.21346 12.2783 7.60561 11.9536C8.003 11.6237 8.20169 11.2026 8.20169 10.69C8.20169 10.3196 8.08143 9.99993 7.84091 9.73099C7.60038 9.45698 7.2945 9.29967 6.92326 9.25908V9.29713C7.2213 9.24639 7.4749 9.08909 7.68405 8.82522C7.89842 8.56135 8.00561 8.25943 8.00561 7.91945C8.00561 7.46276 7.83045 7.08979 7.48012 6.80055C7.13503 6.51131 6.68797 6.3667 6.13895 6.3667C5.66313 6.3667 5.24483 6.48594 4.88404 6.72444C4.52849 6.95786 4.30888 7.25724 4.22522 7.6226C4.21999 7.66827 4.21476 7.7114 4.20953 7.75199C4.2043 7.79259 4.20169 7.83318 4.20169 7.87378C4.20169 8.01079 4.2409 8.12242 4.31934 8.20869C4.403 8.29495 4.5128 8.33808 4.64875 8.33808C4.86836 8.33808 5.01999 8.21883 5.10365 7.98034C5.18208 7.74185 5.30496 7.56171 5.47228 7.43992C5.6396 7.31306 5.85398 7.24963 6.11542 7.24963C6.39254 7.24963 6.61476 7.32321 6.78208 7.47037C6.95463 7.61245 7.04091 7.8002 7.04091 8.03362C7.04091 8.27719 6.95463 8.48016 6.78208 8.64254C6.60953 8.79985 6.3847 8.8785 6.10757 8.8785H5.77032C5.6396 8.8785 5.53241 8.9191 5.44875 9.00029C5.37032 9.0764 5.3311 9.18296 5.3311 9.31997C5.3311 9.44683 5.37293 9.55339 5.45659 9.63965C5.54025 9.72084 5.64483 9.76144 5.77032 9.76144H6.13895C6.47359 9.76144 6.73764 9.84263 6.9311 10.005C7.12457 10.1674 7.2213 10.383 7.2213 10.652C7.2213 10.9108 7.11411 11.129 6.89973 11.3066C6.69058 11.4791 6.42391 11.5654 6.09973 11.5654C5.82261 11.5654 5.58993 11.5019 5.40169 11.3751C5.21345 11.2482 5.07489 11.0655 4.986 10.8271C4.93894 10.7002 4.87881 10.6089 4.80561 10.553C4.73241 10.4972 4.64352 10.4693 4.53894 10.4693C4.40822 10.4693 4.29842 10.5124 4.20953 10.5987C4.12587 10.685 4.08404 10.7966 4.08404 10.9336C4.08404 10.9742 4.08666 11.0173 4.09188 11.063C4.09711 11.1036 4.10496 11.1442 4.11541 11.1848C4.19907 11.54 4.42914 11.8394 4.80561 12.083C5.18208 12.3214 5.61084 12.4407 6.09189 12.4407ZM11.1507 12.4407C11.5847 12.4407 11.9612 12.3164 12.2801 12.0677C12.6043 11.814 12.8553 11.4613 13.0331 11.0097C13.2161 10.5581 13.3076 10.0278 13.3076 9.41892C13.3076 8.80492 13.2161 8.26958 13.0331 7.81289C12.8553 7.3562 12.6043 7.00099 12.2801 6.74727C11.9612 6.49356 11.5847 6.3667 11.1507 6.3667C10.4971 6.3667 9.97424 6.64579 9.58209 7.20396C9.18993 7.75707 8.99385 8.49539 8.99385 9.41892C8.99385 10.3323 9.18993 11.0655 9.58209 11.6186C9.97424 12.1667 10.4971 12.4407 11.1507 12.4407ZM11.1507 11.5197C10.8056 11.5197 10.5285 11.3319 10.3193 10.9564C10.1154 10.5809 10.0135 10.0684 10.0135 9.41892C10.0135 8.75418 10.1154 8.23406 10.3193 7.85856C10.5233 7.47798 10.8004 7.28769 11.1507 7.28769C11.501 7.28769 11.7756 7.47544 11.9742 7.85094C12.1782 8.22645 12.2801 8.7491 12.2801 9.41892C12.2801 10.0684 12.1782 10.5809 11.9742 10.9564C11.7703 11.3319 11.4958 11.5197 11.1507 11.5197Z"
		fill="currentColor"
	/>
</svg>
