<svg
	color="rgb(var(--foreground, 0, 0, 0))"
	viewBox="0 0 17 17"
	fill="none"
	xmlns="http://www.w3.org/2000/svg"
>
	<path
		d="M0.570312 9.23624C0.570312 10.2968 0.779463 11.2964 1.19776 12.2352C1.61607 13.1739 2.19383 14.0011 2.93108 14.7165C3.66834 15.427 4.51801 15.9851 5.48011 16.3911C6.44743 16.797 7.47749 17 8.57031 17C9.66312 17 10.6906 16.797 11.6527 16.3911C12.62 15.9851 13.4723 15.427 14.2095 14.7165C14.9468 14.0011 15.5246 13.1739 15.9429 12.2352C16.3612 11.2964 16.5703 10.2968 16.5703 9.23624C16.5703 8.38375 16.4318 7.56932 16.1546 6.79294C15.8775 6.01149 15.488 5.29601 14.986 4.64649C14.484 3.9919 13.8958 3.42865 13.2213 2.95673C13.0487 2.82987 12.8683 2.7842 12.6801 2.81972C12.4919 2.85017 12.3481 2.94151 12.2487 3.09374C12.1494 3.25104 12.1206 3.41342 12.1625 3.58088C12.2095 3.74833 12.3141 3.89041 12.4762 4.00712C13.0304 4.39277 13.5141 4.85454 13.9272 5.39242C14.3402 5.9303 14.6618 6.52654 14.8919 7.18113C15.1219 7.83065 15.237 8.51569 15.237 9.23624C15.237 10.1344 15.0644 10.9767 14.7193 11.7633C14.3795 12.5447 13.9036 13.2323 13.2919 13.826C12.6853 14.4146 11.9768 14.8738 11.1664 15.2037C10.3612 15.5386 9.4958 15.706 8.57031 15.706C7.64481 15.706 6.77945 15.5386 5.97422 15.2037C5.16899 14.8738 4.4605 14.4146 3.84873 13.826C3.2422 13.2323 2.76639 12.5447 2.42129 11.7633C2.08143 10.9767 1.91149 10.1344 1.91149 9.23624C1.91149 8.46494 2.03959 7.73677 2.2958 7.05173C2.55201 6.36162 2.91017 5.73748 3.3703 5.1793C3.83566 4.62112 4.38207 4.1492 5.00952 3.76355C5.63697 3.3779 6.31932 3.10389 7.05658 2.94151V4.02996C7.05658 4.2989 7.13762 4.46889 7.29972 4.53993C7.46704 4.6059 7.65789 4.5653 7.87227 4.41815L10.3742 2.71316C10.552 2.59645 10.6409 2.45691 10.6409 2.29453C10.6461 2.12708 10.5572 1.98246 10.3742 1.86067L7.88011 0.15569C7.6605 0.00345978 7.46704 -0.037135 7.29972 0.0339059C7.13762 0.0998725 7.05658 0.269863 7.05658 0.543878V1.6171C6.14154 1.79471 5.28926 2.11439 4.49971 2.57616C3.7154 3.03285 3.02783 3.60371 2.43698 4.28875C1.85136 4.96871 1.39384 5.72987 1.06443 6.57221C0.735019 7.41455 0.570312 8.30256 0.570312 9.23624ZM5.89579 12.4483C6.62259 12.4483 7.17684 12.1743 7.55854 11.6263C7.94547 11.0732 8.13893 10.2841 8.13893 9.25908C8.13893 8.76179 8.08403 8.3254 7.97423 7.94989C7.86442 7.56932 7.70494 7.26232 7.49579 7.0289C7.31802 6.82085 7.10102 6.66101 6.84481 6.54937C6.59383 6.43774 6.30887 6.38192 5.98991 6.38192C5.36769 6.38192 4.87095 6.56713 4.49971 6.93756C4.12847 7.30799 3.94285 7.80781 3.94285 8.43703C3.94285 8.99521 4.11278 9.4519 4.45265 9.80711C4.79775 10.1572 5.23435 10.3323 5.76246 10.3323C6.11279 10.3323 6.41605 10.2536 6.67226 10.0963C6.92847 9.93397 7.11671 9.71831 7.23697 9.44936L7.19775 9.39608C7.19775 9.41131 7.19775 9.42907 7.19775 9.44936C7.19775 9.46459 7.19775 9.47981 7.19775 9.49503C7.19775 9.91621 7.14285 10.2816 7.03305 10.5911C6.92847 10.9006 6.77684 11.1417 6.57815 11.3142C6.37945 11.4867 6.14939 11.573 5.88795 11.573C5.69971 11.573 5.52978 11.5298 5.37815 11.4436C5.22651 11.3573 5.10625 11.2355 5.01736 11.0782C4.94939 10.9717 4.8788 10.8981 4.8056 10.8575C4.73762 10.8118 4.65135 10.789 4.54677 10.789C4.42651 10.789 4.32193 10.8347 4.23305 10.926C4.14416 11.0123 4.09971 11.1138 4.09971 11.2305C4.09971 11.2761 4.10233 11.3193 4.10756 11.3599C4.11801 11.4005 4.13631 11.4487 4.16246 11.5045C4.21475 11.611 4.31148 11.7379 4.45265 11.8851C4.59383 12.0322 4.78207 12.1641 5.01736 12.2809C5.25788 12.3925 5.55069 12.4483 5.89579 12.4483ZM6.02913 9.52548C5.70494 9.52548 5.44089 9.42146 5.23697 9.21341C5.03828 9.00536 4.93893 8.73134 4.93893 8.39136C4.93893 8.03108 5.03828 7.74692 5.23697 7.53887C5.43566 7.33082 5.69971 7.2268 6.02913 7.2268C6.34808 7.2268 6.60952 7.3359 6.81344 7.55409C7.01736 7.77229 7.11932 8.05646 7.11932 8.40659C7.11932 8.73642 7.01736 9.00536 6.81344 9.21341C6.60952 9.42146 6.34808 9.52548 6.02913 9.52548ZM11.2291 12.4407C11.6631 12.4407 12.0422 12.3164 12.3664 12.0677C12.6906 11.814 12.9416 11.4613 13.1193 11.0097C13.2971 10.5581 13.386 10.0278 13.386 9.41892C13.386 8.80492 13.2971 8.26958 13.1193 7.81289C12.9416 7.3562 12.6906 7.00099 12.3664 6.74727C12.0422 6.49356 11.6631 6.3667 11.2291 6.3667C10.5755 6.3667 10.0527 6.64579 9.6605 7.20396C9.27357 7.76214 9.08011 8.503 9.08011 9.42653C9.08011 10.3399 9.27619 11.0706 9.66835 11.6186C10.0605 12.1667 10.5808 12.4407 11.2291 12.4407ZM11.2291 11.5197C10.884 11.5197 10.6095 11.3319 10.4056 10.9564C10.2017 10.5809 10.0997 10.0684 10.0997 9.41892C10.0997 8.75418 10.1991 8.23406 10.3978 7.85856C10.6017 7.47798 10.8788 7.28769 11.2291 7.28769C11.5795 7.28769 11.854 7.47544 12.0527 7.85094C12.2566 8.22645 12.3585 8.7491 12.3585 9.41892C12.3585 10.0684 12.2566 10.5809 12.0527 10.9564C11.854 11.3319 11.5795 11.5197 11.2291 11.5197Z"
		fill="currentColor"
	/>
</svg>
