<svg
	color="rgb(var(--foreground, 0, 0, 0))"
	viewBox="0 0 17 17"
	fill="none"
	xmlns="http://www.w3.org/2000/svg"
>
	<path
		d="M0.570312 9.23624C0.570312 10.2968 0.779463 11.2964 1.19776 12.2352C1.61607 13.1739 2.19383 14.0011 2.93108 14.7165C3.66834 15.427 4.51801 15.9851 5.48011 16.3911C6.44743 16.797 7.47749 17 8.57031 17C9.66312 17 10.6906 16.797 11.6527 16.3911C12.62 15.9851 13.4723 15.427 14.2095 14.7165C14.9468 14.0011 15.5246 13.1739 15.9429 12.2352C16.3612 11.2964 16.5703 10.2968 16.5703 9.23624C16.5703 8.38375 16.4318 7.56932 16.1546 6.79294C15.8775 6.01149 15.488 5.29601 14.986 4.64649C14.484 3.9919 13.8958 3.42865 13.2213 2.95673C13.0487 2.82987 12.8683 2.7842 12.6801 2.81972C12.4919 2.85017 12.3481 2.94151 12.2487 3.09374C12.1494 3.25104 12.1206 3.41342 12.1625 3.58088C12.2095 3.74833 12.3141 3.89041 12.4762 4.00712C13.0304 4.39277 13.5141 4.85454 13.9272 5.39242C14.3402 5.9303 14.6618 6.52654 14.8919 7.18113C15.1219 7.83065 15.237 8.51569 15.237 9.23624C15.237 10.1344 15.0644 10.9767 14.7193 11.7633C14.3795 12.5447 13.9036 13.2323 13.2919 13.826C12.6853 14.4146 11.9768 14.8738 11.1664 15.2037C10.3612 15.5386 9.4958 15.706 8.57031 15.706C7.64481 15.706 6.77945 15.5386 5.97422 15.2037C5.16899 14.8738 4.4605 14.4146 3.84873 13.826C3.2422 13.2323 2.76639 12.5447 2.42129 11.7633C2.08143 10.9767 1.91149 10.1344 1.91149 9.23624C1.91149 8.46494 2.03959 7.73677 2.2958 7.05173C2.55201 6.36162 2.91017 5.73748 3.3703 5.1793C3.83566 4.62112 4.38207 4.1492 5.00952 3.76355C5.63697 3.3779 6.31932 3.10389 7.05658 2.94151V4.02996C7.05658 4.2989 7.13762 4.46889 7.29972 4.53993C7.46704 4.6059 7.65789 4.5653 7.87227 4.41815L10.3742 2.71316C10.552 2.59645 10.6409 2.45691 10.6409 2.29453C10.6461 2.12708 10.5572 1.98246 10.3742 1.86067L7.88011 0.15569C7.6605 0.00345978 7.46704 -0.037135 7.29972 0.0339059C7.13762 0.0998725 7.05658 0.269863 7.05658 0.543878V1.6171C6.14154 1.79471 5.28926 2.11439 4.49971 2.57616C3.7154 3.03285 3.02783 3.60371 2.43698 4.28875C1.85136 4.96871 1.39384 5.72987 1.06443 6.57221C0.735019 7.41455 0.570312 8.30256 0.570312 9.23624ZM6.05266 12.4407C6.68534 12.4407 7.18991 12.2529 7.56638 11.8774C7.94285 11.5019 8.13109 11.0021 8.13109 10.378C8.13109 9.82994 7.95593 9.37832 7.6056 9.02312C7.2605 8.66792 6.82128 8.49031 6.28795 8.49031C5.92194 8.49031 5.6056 8.57404 5.33893 8.74149C5.07749 8.90387 4.89448 9.11699 4.78991 9.38086L4.82912 9.43414C4.8239 9.40877 4.82128 9.39355 4.82128 9.38847C4.82128 9.37832 4.82128 9.3631 4.82128 9.3428C4.82128 8.71358 4.94154 8.20869 5.18207 7.82811C5.42782 7.44753 5.75462 7.25724 6.16246 7.25724C6.36638 7.25724 6.5337 7.2953 6.66442 7.37142C6.80037 7.44753 6.91279 7.55663 7.00168 7.69871C7.12717 7.88646 7.29449 7.98034 7.50364 7.98034C7.61867 7.98034 7.71279 7.94228 7.78599 7.86617C7.85919 7.78498 7.89579 7.68349 7.89579 7.56171C7.89579 7.51096 7.89057 7.46022 7.88011 7.40948C7.86965 7.35873 7.85658 7.31306 7.84089 7.27247C7.73632 7.01368 7.54024 6.80055 7.25266 6.6331C6.96508 6.46057 6.61475 6.37431 6.20168 6.37431C5.44873 6.37431 4.87095 6.65086 4.46834 7.20396C4.06573 7.75199 3.86442 8.53598 3.86442 9.55593C3.86442 9.9568 3.89579 10.3222 3.95854 10.652C4.02651 10.9767 4.12847 11.2558 4.26442 11.4893C4.4422 11.8039 4.68533 12.0424 4.99383 12.2047C5.30233 12.362 5.65527 12.4407 6.05266 12.4407ZM6.0056 11.5958C5.68664 11.5958 5.42259 11.4867 5.21344 11.2685C5.00429 11.0452 4.89971 10.7636 4.89971 10.4236C4.89971 10.0887 5.00167 9.81726 5.2056 9.60921C5.41475 9.39608 5.68141 9.28952 6.0056 9.28952C6.33501 9.28952 6.60168 9.39355 6.8056 9.6016C7.01475 9.80964 7.11932 10.0837 7.11932 10.4236C7.11932 10.7839 7.01736 11.0706 6.81344 11.2837C6.61475 11.4918 6.34547 11.5958 6.0056 11.5958ZM11.2134 12.4407C11.6474 12.4407 12.0265 12.3164 12.3507 12.0677C12.6749 11.814 12.9259 11.4613 13.1036 11.0097C13.2814 10.5581 13.3703 10.0278 13.3703 9.41892C13.3703 8.80492 13.2814 8.26958 13.1036 7.81289C12.9259 7.3562 12.6749 7.00099 12.3507 6.74727C12.0265 6.49356 11.6474 6.3667 11.2134 6.3667C10.5598 6.3667 10.037 6.64579 9.64482 7.20396C9.25789 7.76214 9.06442 8.503 9.06442 9.42653C9.06442 10.3399 9.2605 11.0706 9.65266 11.6186C10.0448 12.1667 10.5651 12.4407 11.2134 12.4407ZM11.2134 11.5197C10.8683 11.5197 10.5938 11.3319 10.3899 10.9564C10.186 10.5809 10.084 10.0684 10.084 9.41892C10.084 8.75418 10.1834 8.23406 10.3821 7.85856C10.586 7.47798 10.8631 7.28769 11.2134 7.28769C11.5638 7.28769 11.8383 7.47544 12.037 7.85094C12.2409 8.22645 12.3429 8.7491 12.3429 9.41892C12.3429 10.0684 12.2409 10.5809 12.037 10.9564C11.8383 11.3319 11.5638 11.5197 11.2134 11.5197Z"
		fill="currentColor"
	/>
</svg>
