<svg
	color="rgb(var(--foreground, 0, 0, 0))"
	viewBox="0 0 17 17"
	fill="none"
	xmlns="http://www.w3.org/2000/svg"
>
	<path
		d="M0.570312 9.23624C0.570312 10.2968 0.779463 11.2964 1.19776 12.2352C1.61607 13.1739 2.19384 14.0011 2.9311 14.7165C3.66835 15.427 4.51801 15.9851 5.48011 16.3911C6.44743 16.797 7.47749 17 8.57031 17C9.66312 17 10.6906 16.797 11.6527 16.3911C12.62 15.9851 13.4723 15.427 14.2095 14.7165C14.9468 14.0011 15.5246 13.1739 15.9429 12.2352C16.3612 11.2964 16.5703 10.2968 16.5703 9.23624C16.5703 8.38375 16.4318 7.56932 16.1546 6.79294C15.8775 6.01149 15.488 5.29601 14.986 4.64649C14.484 3.9919 13.8958 3.42865 13.2213 2.95673C13.0487 2.82987 12.8683 2.7842 12.6801 2.81972C12.4919 2.85017 12.3481 2.94151 12.2487 3.09374C12.1494 3.25104 12.1206 3.41342 12.1625 3.58088C12.2095 3.74833 12.3141 3.89041 12.4762 4.00712C13.0304 4.39277 13.5141 4.85454 13.9272 5.39242C14.3402 5.9303 14.6618 6.52654 14.8919 7.18113C15.1219 7.83065 15.237 8.51569 15.237 9.23624C15.237 10.1344 15.0644 10.9767 14.7193 11.7633C14.3795 12.5447 13.9036 13.2323 13.2919 13.826C12.6853 14.4146 11.9768 14.8738 11.1664 15.2037C10.3612 15.5386 9.4958 15.706 8.57031 15.706C7.64481 15.706 6.77945 15.5386 5.97422 15.2037C5.16899 14.8738 4.46051 14.4146 3.84875 13.826C3.24221 13.2323 2.76639 12.5447 2.42129 11.7633C2.08143 10.9767 1.91149 10.1344 1.91149 9.23624C1.91149 8.46494 2.03959 7.73677 2.2958 7.05173C2.55201 6.36162 2.91018 5.73748 3.37032 5.1793C3.83568 4.62112 4.38207 4.1492 5.00952 3.76355C5.63697 3.3779 6.31932 3.10389 7.05658 2.94151V4.02996C7.05658 4.2989 7.13762 4.46889 7.29972 4.53993C7.46704 4.6059 7.65789 4.5653 7.87227 4.41815L10.3742 2.71316C10.552 2.59645 10.6409 2.45691 10.6409 2.29453C10.6461 2.12708 10.5572 1.98246 10.3742 1.86067L7.88011 0.15569C7.6605 0.00345978 7.46704 -0.037135 7.29972 0.0339059C7.13762 0.0998725 7.05658 0.269863 7.05658 0.543878V1.6171C6.14154 1.79471 5.28926 2.11439 4.49971 2.57616C3.7154 3.03285 3.02783 3.60371 2.43698 4.28875C1.85136 4.96871 1.39384 5.72987 1.06443 6.57221C0.735019 7.41455 0.570312 8.30256 0.570312 9.23624ZM6.24089 12.357C6.39253 12.357 6.51279 12.3113 6.60168 12.22C6.69057 12.1235 6.73501 11.9942 6.73501 11.8318V7.0289C6.73501 6.831 6.68795 6.68384 6.59383 6.58743C6.49971 6.48594 6.36377 6.4352 6.18599 6.4352C6.07618 6.4352 5.97422 6.4555 5.88011 6.49609C5.78599 6.53161 5.66834 6.59504 5.52716 6.68638L4.45265 7.39425C4.36377 7.45514 4.29579 7.52365 4.24873 7.59976C4.2069 7.6708 4.18599 7.74946 4.18599 7.83572C4.18599 7.96258 4.23043 8.07168 4.31932 8.16302C4.40821 8.25436 4.5154 8.30002 4.64089 8.30002C4.71932 8.30002 4.78468 8.28988 4.83697 8.26958C4.88926 8.24928 4.94939 8.21122 5.01736 8.15541L5.7703 7.6226H5.75462V11.8318C5.75462 11.9891 5.79906 12.1159 5.88795 12.2123C5.97684 12.3088 6.09449 12.357 6.24089 12.357ZM10.2252 12.4483C10.8736 12.4483 11.3938 12.2631 11.786 11.8927C12.1834 11.5172 12.3821 11.0224 12.3821 10.4084C12.3821 9.85024 12.2069 9.39101 11.8566 9.03073C11.5063 8.67045 11.0514 8.49031 10.4919 8.49031C10.2409 8.49031 9.99514 8.54613 9.75462 8.65777C9.51933 8.7694 9.34939 8.92163 9.24482 9.11446H9.28403L9.42521 7.39425H11.7703C11.8853 7.39425 11.9847 7.35366 12.0683 7.27247C12.1572 7.19128 12.2017 7.08472 12.2017 6.95278C12.2017 6.82592 12.1572 6.72444 12.0683 6.64832C11.9847 6.56713 11.8853 6.52654 11.7703 6.52654H9.26834C8.85527 6.52654 8.63044 6.73712 8.59383 7.1583L8.42129 9.35042C8.4056 9.53817 8.44482 9.68025 8.53893 9.77666C8.63305 9.868 8.76638 9.91367 8.93893 9.91367C9.06442 9.91367 9.16638 9.89845 9.24482 9.868C9.32325 9.83755 9.41737 9.78174 9.52717 9.70055C9.6788 9.56861 9.81998 9.47474 9.9507 9.41892C10.0814 9.35803 10.2252 9.32758 10.3821 9.32758C10.6853 9.32758 10.9311 9.42907 11.1193 9.63204C11.3076 9.82994 11.4017 10.0938 11.4017 10.4236C11.4017 10.7585 11.2945 11.0351 11.0801 11.2533C10.8657 11.4715 10.5965 11.5806 10.2723 11.5806C10.037 11.5806 9.82521 11.5222 9.63697 11.4055C9.44874 11.2837 9.30495 11.1239 9.2056 10.926C9.14808 10.8296 9.08272 10.756 9.00952 10.7053C8.93632 10.6494 8.85004 10.6215 8.7507 10.6215C8.61998 10.6215 8.51279 10.6621 8.42913 10.7433C8.3507 10.8245 8.31148 10.9311 8.31148 11.063C8.31148 11.1138 8.31671 11.1645 8.32717 11.2152C8.33763 11.266 8.35331 11.3167 8.37423 11.3675C8.4788 11.6415 8.69318 11.8901 9.01736 12.1134C9.34678 12.3367 9.74939 12.4483 10.2252 12.4483Z"
		fill="currentColor"
	/>
</svg>
