<svg
	color="rgb(var(--foreground, 0, 0, 0))"
	viewBox="0 0 17 17"
	fill="none"
	xmlns="http://www.w3.org/2000/svg"
>
	<path
		d="M0.570312 9.23624C0.570312 10.2968 0.779463 11.2964 1.19776 12.2352C1.61607 13.1739 2.19383 14.0011 2.93108 14.7165C3.66834 15.427 4.51801 15.9851 5.48011 16.3911C6.44743 16.797 7.47749 17 8.57031 17C9.66312 17 10.6906 16.797 11.6527 16.3911C12.62 15.9851 13.4723 15.427 14.2095 14.7165C14.9468 14.0011 15.5246 13.1739 15.9429 12.2352C16.3612 11.2964 16.5703 10.2968 16.5703 9.23624C16.5703 8.38375 16.4318 7.56932 16.1546 6.79294C15.8775 6.01149 15.488 5.29601 14.986 4.64649C14.484 3.9919 13.8958 3.42865 13.2213 2.95673C13.0487 2.82987 12.8683 2.7842 12.6801 2.81972C12.4919 2.85017 12.3481 2.94151 12.2487 3.09374C12.1494 3.25104 12.1206 3.41342 12.1625 3.58088C12.2095 3.74833 12.3141 3.89041 12.4762 4.00712C13.0304 4.39277 13.5141 4.85454 13.9272 5.39242C14.3402 5.9303 14.6618 6.52654 14.8919 7.18113C15.1219 7.83065 15.237 8.51569 15.237 9.23624C15.237 10.1344 15.0644 10.9767 14.7193 11.7633C14.3795 12.5447 13.9036 13.2323 13.2919 13.826C12.6853 14.4146 11.9768 14.8738 11.1664 15.2037C10.3612 15.5386 9.4958 15.706 8.57031 15.706C7.64481 15.706 6.77945 15.5386 5.97422 15.2037C5.16899 14.8738 4.4605 14.4146 3.84873 13.826C3.2422 13.2323 2.76639 12.5447 2.42129 11.7633C2.08143 10.9767 1.91149 10.1344 1.91149 9.23624C1.91149 8.46494 2.03959 7.73677 2.2958 7.05173C2.55201 6.36162 2.91017 5.73748 3.3703 5.1793C3.83566 4.62112 4.38207 4.1492 5.00952 3.76355C5.63697 3.3779 6.31932 3.10389 7.05658 2.94151V4.02996C7.05658 4.2989 7.13762 4.46889 7.29972 4.53993C7.46704 4.6059 7.65789 4.5653 7.87227 4.41815L10.3742 2.71316C10.552 2.59645 10.6409 2.45691 10.6409 2.29453C10.6461 2.12708 10.5572 1.98246 10.3742 1.86067L7.88011 0.15569C7.6605 0.00345978 7.46704 -0.037135 7.29972 0.0339059C7.13762 0.0998725 7.05658 0.269863 7.05658 0.543878V1.6171C6.14154 1.79471 5.28926 2.11439 4.49971 2.57616C3.7154 3.03285 3.02783 3.60371 2.43698 4.28875C1.85136 4.96871 1.39384 5.72987 1.06443 6.57221C0.735019 7.41455 0.570312 8.30256 0.570312 9.23624ZM4.93893 9.23624C4.93893 9.41892 5.00167 9.56861 5.12716 9.68532C5.25265 9.80203 5.41475 9.86039 5.61344 9.86039H7.91932V12.1058C7.91932 12.2986 7.97945 12.4559 8.09972 12.5777C8.21998 12.6944 8.37423 12.7528 8.56246 12.7528C8.76116 12.7528 8.92063 12.6944 9.04089 12.5777C9.16638 12.4559 9.22913 12.2986 9.22913 12.1058V9.86039H11.5429C11.7416 9.86039 11.901 9.80203 12.0213 9.68532C12.1468 9.56861 12.2095 9.41892 12.2095 9.23624C12.2095 9.04342 12.1468 8.88865 12.0213 8.77194C11.901 8.65016 11.7416 8.58926 11.5429 8.58926H9.22913V6.35147C9.22913 6.15357 9.16638 5.99627 9.04089 5.87956C8.92063 5.75777 8.76116 5.69688 8.56246 5.69688C8.37423 5.69688 8.21998 5.75777 8.09972 5.87956C7.97945 6.00134 7.91932 6.15865 7.91932 6.35147V8.58926H5.61344C5.40952 8.58926 5.24481 8.65016 5.11932 8.77194C4.99906 8.88865 4.93893 9.04342 4.93893 9.23624Z"
		fill="currentColor"
	/>
</svg>
