<svg
	color="rgb(var(--foreground, 0, 0, 0))"
	viewBox="0 0 17 17"
	fill="none"
	xmlns="http://www.w3.org/2000/svg"
>
	<path
		d="M0.570312 9.23624C0.570312 10.2968 0.779463 11.2964 1.19776 12.2352C1.61607 13.1739 2.19383 14.0011 2.93108 14.7165C3.66834 15.427 4.51801 15.9851 5.48011 16.3911C6.44743 16.797 7.47749 17 8.57031 17C9.66312 17 10.6906 16.797 11.6527 16.3911C12.62 15.9851 13.4723 15.427 14.2095 14.7165C14.9468 14.0011 15.5246 13.1739 15.9429 12.2352C16.3612 11.2964 16.5703 10.2968 16.5703 9.23624C16.5703 8.38375 16.4318 7.56932 16.1546 6.79294C15.8775 6.01149 15.488 5.29601 14.986 4.64649C14.484 3.9919 13.8958 3.42865 13.2213 2.95673C13.0487 2.82987 12.8683 2.7842 12.6801 2.81972C12.4919 2.85017 12.3481 2.94151 12.2487 3.09374C12.1494 3.25104 12.1206 3.41342 12.1625 3.58088C12.2095 3.74833 12.3141 3.89041 12.4762 4.00712C13.0304 4.39277 13.5141 4.85454 13.9272 5.39242C14.3402 5.9303 14.6618 6.52654 14.8919 7.18113C15.1219 7.83065 15.237 8.51569 15.237 9.23624C15.237 10.1344 15.0644 10.9767 14.7193 11.7633C14.3795 12.5447 13.9036 13.2323 13.2919 13.826C12.6853 14.4146 11.9768 14.8738 11.1664 15.2037C10.3612 15.5386 9.4958 15.706 8.57031 15.706C7.64481 15.706 6.77945 15.5386 5.97422 15.2037C5.16899 14.8738 4.4605 14.4146 3.84873 13.826C3.2422 13.2323 2.76639 12.5447 2.42129 11.7633C2.08143 10.9767 1.91149 10.1344 1.91149 9.23624C1.91149 8.46494 2.03959 7.73677 2.2958 7.05173C2.55201 6.36162 2.91017 5.73748 3.3703 5.1793C3.83566 4.62112 4.38207 4.1492 5.00952 3.76355C5.63697 3.3779 6.31932 3.10389 7.05658 2.94151V4.02996C7.05658 4.2989 7.13762 4.46889 7.29972 4.53993C7.46704 4.6059 7.65789 4.5653 7.87227 4.41815L10.3742 2.71316C10.552 2.59645 10.6409 2.45691 10.6409 2.29453C10.6461 2.12708 10.5572 1.98246 10.3742 1.86067L7.88011 0.15569C7.6605 0.00345978 7.46704 -0.037135 7.29972 0.0339059C7.13762 0.0998725 7.05658 0.269863 7.05658 0.543878V1.6171C6.14154 1.79471 5.28926 2.11439 4.49971 2.57616C3.7154 3.03285 3.02783 3.60371 2.43698 4.28875C1.85136 4.96871 1.39384 5.72987 1.06443 6.57221C0.735019 7.41455 0.570312 8.30256 0.570312 9.23624ZM5.23697 12.4255C5.34154 12.4255 5.43305 12.3976 5.51148 12.3417C5.58991 12.2859 5.66311 12.1946 5.73109 12.0677L7.92717 7.68349C7.98468 7.57693 8.0239 7.48813 8.04481 7.41709C8.06573 7.34097 8.07619 7.26232 8.07619 7.18113C8.07619 6.99338 8.01083 6.83861 7.88011 6.71683C7.75462 6.59504 7.59253 6.53415 7.39383 6.53415H4.49187C4.37684 6.53415 4.28272 6.57474 4.20952 6.65593C4.13631 6.73712 4.09971 6.83861 4.09971 6.9604C4.09971 7.08725 4.13631 7.19128 4.20952 7.27247C4.28272 7.34858 4.37684 7.38664 4.49187 7.38664H6.97815L4.81344 11.5958C4.78207 11.6516 4.75854 11.7049 4.74285 11.7557C4.72716 11.8064 4.71932 11.8648 4.71932 11.9307C4.71932 12.0728 4.76638 12.1921 4.8605 12.2885C4.95984 12.3798 5.08533 12.4255 5.23697 12.4255ZM10.6958 12.4483C11.3442 12.4483 11.8644 12.2631 12.2566 11.8927C12.654 11.5172 12.8527 11.0224 12.8527 10.4084C12.8527 9.85024 12.6749 9.39101 12.3193 9.03073C11.969 8.67045 11.5141 8.49031 10.9546 8.49031C10.7089 8.49031 10.4657 8.54613 10.2252 8.65777C9.98469 8.7694 9.81475 8.92163 9.7154 9.11446H9.75462L9.8958 7.39425H12.2409C12.3559 7.39425 12.4553 7.35366 12.5389 7.27247C12.6278 7.19128 12.6723 7.08472 12.6723 6.95278C12.6723 6.82592 12.6278 6.72444 12.5389 6.64832C12.4553 6.56713 12.3559 6.52654 12.2409 6.52654H9.73109C9.31802 6.52654 9.0958 6.73712 9.06442 7.1583L8.89187 9.35042C8.87619 9.53817 8.9154 9.68025 9.00952 9.77666C9.10364 9.868 9.23436 9.91367 9.40168 9.91367C9.5324 9.91367 9.63697 9.89845 9.7154 9.868C9.79384 9.83755 9.88795 9.78174 9.99776 9.70055C10.1494 9.56861 10.2906 9.47474 10.4213 9.41892C10.552 9.35803 10.6958 9.32758 10.8527 9.32758C11.1559 9.32758 11.4017 9.42907 11.5899 9.63204C11.7782 9.82994 11.8723 10.0938 11.8723 10.4236C11.8723 10.7585 11.7625 11.0351 11.5429 11.2533C11.3285 11.4715 11.0592 11.5806 10.735 11.5806C10.5049 11.5806 10.2958 11.5222 10.1076 11.4055C9.91933 11.2837 9.77292 11.1239 9.66835 10.926C9.61083 10.8296 9.54547 10.756 9.47227 10.7053C9.39906 10.6494 9.3154 10.6215 9.22129 10.6215C9.09057 10.6215 8.98338 10.6621 8.89972 10.7433C8.82129 10.8245 8.78207 10.9311 8.78207 11.063C8.78207 11.1138 8.7873 11.1645 8.79776 11.2152C8.80821 11.266 8.8239 11.3167 8.84482 11.3675C8.94939 11.6415 9.16377 11.8901 9.48795 12.1134C9.81737 12.3367 10.22 12.4483 10.6958 12.4483Z"
		fill="currentColor"
	/>
</svg>
