<svg
	color="rgb(var(--foreground, 0, 0, 0))"
	viewBox="0 0 22 11"
	fill="none"
	xmlns="http://www.w3.org/2000/svg"
>
	<path
		d="M0.570312 5.5C0.570312 6.5123 0.758268 7.39318 1.13418 8.14262C1.51546 8.89206 2.04442 9.47371 2.72106 9.88758C3.40307 10.2959 4.1898 10.5 5.08125 10.5C5.81159 10.5 6.4936 10.3378 7.12728 10.0134C7.76096 9.68344 8.41075 9.18568 9.07665 8.52013L11.0743 6.52349L13.064 8.52013C13.7299 9.18568 14.3797 9.68344 15.0133 10.0134C15.6524 10.3378 16.3344 10.5 17.0594 10.5C17.9508 10.5 18.7349 10.2959 19.4115 9.88758C20.0935 9.47371 20.6225 8.89206 20.9984 8.14262C21.3797 7.39318 21.5703 6.5123 21.5703 5.5C21.5703 4.4877 21.3797 3.60682 20.9984 2.85738C20.6225 2.10794 20.0935 1.52908 19.4115 1.12081C18.7349 0.706935 17.9508 0.5 17.0594 0.5C16.3344 0.5 15.6524 0.664989 15.0133 0.994966C14.3797 1.31935 13.7299 1.81432 13.064 2.47987L11.0743 4.47651L9.07665 2.47987C8.41075 1.81432 7.76096 1.31935 7.12728 0.994966C6.4936 0.664989 5.81159 0.5 5.08125 0.5C4.1898 0.5 3.40307 0.706935 2.72106 1.12081C2.04442 1.52908 1.51546 2.10794 1.13418 2.85738C0.758268 3.60682 0.570312 4.4877 0.570312 5.5ZM2.02831 5.5C2.02831 4.78971 2.1572 4.1745 2.41496 3.65436C2.67273 3.13423 3.02985 2.73154 3.48631 2.44631C3.94814 2.16107 4.47979 2.01846 5.08125 2.01846C5.59678 2.01846 6.09084 2.14989 6.56341 2.41275C7.03599 2.67002 7.53273 3.05034 8.05363 3.55369L10.0513 5.5L8.04558 7.44631C7.53004 7.94966 7.03599 8.33277 6.56341 8.59564C6.09084 8.85291 5.59678 8.98154 5.08125 8.98154C4.47979 8.98154 3.94814 8.83893 3.48631 8.55369C3.02985 8.26846 2.67273 7.86577 2.41496 7.34564C2.1572 6.81991 2.02831 6.2047 2.02831 5.5ZM12.0893 5.5L14.087 3.55369C14.6079 3.05034 15.1046 2.67002 15.5772 2.41275C16.0498 2.14989 16.5438 2.01846 17.0594 2.01846C17.6608 2.01846 18.1898 2.16107 18.6463 2.44631C19.1081 2.73154 19.4679 3.13423 19.7257 3.65436C19.9834 4.1745 20.1123 4.78971 20.1123 5.5C20.1123 6.2047 19.9834 6.81991 19.7257 7.34564C19.4679 7.86577 19.1081 8.26846 18.6463 8.55369C18.1898 8.83893 17.6608 8.98154 17.0594 8.98154C16.5438 8.98154 16.0498 8.85291 15.5772 8.59564C15.1046 8.33277 14.6106 7.94966 14.095 7.44631L12.0893 5.5Z"
		fill="currentColor"
	/>
</svg>
