<svg
	color="rgb(var(--foreground, 0, 0, 0))"
	viewBox="0 0 21 13"
	fill="none"
	xmlns="http://www.w3.org/2000/svg"
>
	<path
		d="M14.9138 13C15.1041 13 15.2673 12.937 15.4033 12.8111C15.5392 12.6852 15.6072 12.5305 15.6072 12.3469V0.661017C15.6072 0.472155 15.5392 0.31477 15.4033 0.188862C15.2673 0.062954 15.1041 0 14.9138 0C14.7179 0 14.5521 0.062954 14.4161 0.188862C14.2801 0.31477 14.2121 0.472155 14.2121 0.661017V12.3469C14.2121 12.5305 14.2801 12.6852 14.4161 12.8111C14.5521 12.937 14.7179 13 14.9138 13ZM20.2984 13C20.4942 13 20.6601 12.937 20.796 12.8111C20.932 12.6852 21 12.5305 21 12.3469V0.661017C21 0.472155 20.932 0.31477 20.796 0.188862C20.6601 0.062954 20.4942 0 20.2984 0C20.108 0 19.9448 0.062954 19.8089 0.188862C19.6729 0.31477 19.6049 0.472155 19.6049 0.661017V12.3469C19.6049 12.5305 19.6729 12.6852 19.8089 12.8111C19.9448 12.937 20.108 13 20.2984 13ZM1.17483 12.6852C1.34343 12.6852 1.50117 12.659 1.64802 12.6065C1.79487 12.5593 1.94988 12.4885 2.11305 12.3941L10.4266 7.67252C10.7148 7.50464 10.9242 7.32365 11.0548 7.12954C11.1853 6.93543 11.2506 6.72559 11.2506 6.5C11.2506 6.27442 11.1853 6.06457 11.0548 5.87046C10.9242 5.67635 10.7148 5.49536 10.4266 5.32748L2.11305 0.605932C1.94444 0.511501 1.78671 0.440678 1.63986 0.393462C1.49845 0.341001 1.34343 0.31477 1.17483 0.31477C0.853924 0.31477 0.576535 0.430186 0.342657 0.661017C0.114219 0.891848 0 1.2276 0 1.66828V11.3317C0 11.7724 0.114219 12.1082 0.342657 12.339C0.576535 12.5698 0.853924 12.6852 1.17483 12.6852ZM1.5338 11.2294C1.47397 11.2294 1.41958 11.2111 1.37063 11.1743C1.32712 11.1324 1.30536 11.072 1.30536 10.9933V2.00666C1.30536 1.92797 1.32712 1.87026 1.37063 1.83354C1.41958 1.79157 1.47397 1.77058 1.5338 1.77058C1.56099 1.77058 1.59091 1.77583 1.62354 1.78632C1.65618 1.79681 1.69153 1.81517 1.7296 1.8414L9.48834 6.27966C9.60256 6.34262 9.65967 6.41606 9.65967 6.5C9.65967 6.58394 9.60256 6.65738 9.48834 6.72034L1.7296 11.1586C1.69153 11.1848 1.65618 11.2032 1.62354 11.2137C1.59091 11.2242 1.56099 11.2294 1.5338 11.2294Z"
		fill="currentColor"
	/>
</svg>
