<svg
	color="rgb(var(--foreground, 0, 0, 0))"
	viewBox="0 0 24 13"
	fill="none"
	xmlns="http://www.w3.org/2000/svg"
>
	<path
		d="M14.7483 13H16.5699C16.9161 13 17.1798 12.9096 17.3609 12.7287C17.5419 12.5478 17.6325 12.2818 17.6325 11.9306V1.06139C17.6325 0.699611 17.5419 0.433599 17.3609 0.263352C17.1798 0.0877839 16.9161 0 16.5699 0H14.7483C14.3968 0 14.1305 0.090444 13.9494 0.271332C13.7736 0.45222 13.6858 0.715572 13.6858 1.06139V11.9306C13.6858 12.2818 13.7736 12.5478 13.9494 12.7287C14.1305 12.9096 14.3968 13 14.7483 13ZM21.1238 13H22.9374C23.2889 13 23.5526 12.9096 23.7284 12.7287C23.9095 12.5478 24 12.2818 24 11.9306V1.06139C24 0.699611 23.9095 0.433599 23.7284 0.263352C23.5526 0.0877839 23.2889 0 22.9374 0H21.1238C20.7723 0 20.506 0.090444 20.3249 0.271332C20.1491 0.45222 20.0613 0.715572 20.0613 1.06139V11.9306C20.0613 12.2818 20.1491 12.5478 20.3249 12.7287C20.506 12.9096 20.7723 13 21.1238 13ZM1.15047 12.7606C1.31558 12.7606 1.47004 12.734 1.61385 12.6808C1.75766 12.6329 1.90945 12.5611 2.06924 12.4653L10.2104 7.68508C10.4927 7.51484 10.6977 7.33129 10.8256 7.13444C10.9534 6.93759 11.0173 6.72478 11.0173 6.49601C11.0173 6.26724 10.9534 6.05443 10.8256 5.85758C10.6977 5.66073 10.4927 5.47718 10.2104 5.30694L2.06924 0.518723C1.90413 0.422959 1.74967 0.351136 1.60586 0.303254C1.46738 0.250051 1.31558 0.22345 1.15047 0.22345C0.836218 0.22345 0.564581 0.340495 0.335553 0.574586C0.111851 0.808676 0 1.14917 0 1.59607V11.3959C0 11.8428 0.111851 12.1807 0.335553 12.4095C0.564581 12.6435 0.836218 12.7606 1.15047 12.7606Z"
		fill="currentColor"
	/>
</svg>
