<svg
	color="rgb(var(--foreground, 0, 0, 0))"
	viewBox="0 0 18 15"
	fill="none"
	xmlns="http://www.w3.org/2000/svg"
>
	<path
		d="M1.24586 7.879C1.43661 7.879 1.59556 7.81713 1.72272 7.69337C1.85518 7.56446 1.92141 7.40718 1.92141 7.22155V6.48674C1.92141 5.82155 2.136 5.29042 2.56517 4.89337C2.99434 4.49116 3.56922 4.29005 4.28981 4.29005H8.78816V6.10773C8.78816 6.26243 8.8332 6.38361 8.92327 6.47127C9.01335 6.55378 9.14051 6.59503 9.30476 6.59503C9.37364 6.59503 9.44252 6.58214 9.5114 6.55635C9.58558 6.53057 9.65181 6.49447 9.71009 6.44807L12.7143 4.02707C12.8468 3.92394 12.913 3.80276 12.913 3.66354C12.913 3.52431 12.8468 3.40055 12.7143 3.29227L9.71009 0.863536C9.65181 0.817127 9.58558 0.78361 9.5114 0.762983C9.44252 0.737201 9.37364 0.724309 9.30476 0.724309C9.14051 0.724309 9.01335 0.765562 8.92327 0.848066C8.8332 0.930571 8.78816 1.05175 8.78816 1.2116V3.00608H4.41697C3.6381 3.00608 2.9599 3.14273 2.38238 3.41602C1.81015 3.68932 1.36508 4.07864 1.04717 4.58398C0.729265 5.08932 0.570312 5.69263 0.570312 6.39392V7.22155C0.570312 7.40718 0.633894 7.56446 0.761056 7.69337C0.888218 7.81713 1.04982 7.879 1.24586 7.879ZM16.863 7.32983C16.6669 7.32983 16.5053 7.39171 16.3782 7.51547C16.251 7.63923 16.1874 7.7965 16.1874 7.98729V8.7221C16.1874 9.38729 15.9728 9.91842 15.5437 10.3155C15.1145 10.7125 14.537 10.911 13.8111 10.911H7.61191V9.11657C7.61191 8.95672 7.56687 8.83554 7.4768 8.75304C7.39203 8.67053 7.26751 8.62928 7.10326 8.62928C7.02908 8.62928 6.95491 8.64217 6.88073 8.66796C6.81185 8.68858 6.74827 8.7221 6.68998 8.76851L3.68579 11.1895C3.55863 11.2978 3.4924 11.4215 3.4871 11.5608C3.4871 11.7 3.55333 11.8212 3.68579 11.9243L6.68998 14.353C6.74827 14.3994 6.81185 14.4355 6.88073 14.4613C6.95491 14.4871 7.02908 14.5 7.10326 14.5C7.26751 14.5 7.39203 14.4562 7.4768 14.3685C7.56687 14.286 7.61191 14.1674 7.61191 14.0127V12.2028H13.6839C14.4628 12.2028 15.141 12.0661 15.7185 11.7928C16.296 11.5195 16.7438 11.1302 17.0617 10.6249C17.3796 10.1144 17.5385 9.51105 17.5385 8.81492V7.98729C17.5385 7.7965 17.4723 7.63923 17.3398 7.51547C17.2127 7.39171 17.0537 7.32983 16.863 7.32983ZM16.8709 5.65912C17.0882 5.65912 17.2577 5.59724 17.3796 5.47348C17.5067 5.34972 17.5703 5.17956 17.5703 4.96298V1.35856C17.5703 1.09558 17.4908 0.88674 17.3319 0.732044C17.1729 0.577348 16.9663 0.5 16.712 0.5C16.5053 0.5 16.3278 0.533517 16.1795 0.600552C16.0364 0.662431 15.8828 0.755249 15.7185 0.879006L14.6535 1.66796C14.5688 1.72983 14.5105 1.79429 14.4787 1.86133C14.4522 1.9232 14.4389 1.99282 14.4389 2.07017C14.4389 2.18877 14.4813 2.28674 14.5661 2.36409C14.6509 2.44144 14.7621 2.48011 14.8999 2.48011C15.0165 2.48011 15.1251 2.44144 15.2258 2.36409L16.0762 1.70663H16.1556V4.96298C16.1556 5.17956 16.2192 5.34972 16.3464 5.47348C16.4735 5.59724 16.6484 5.65912 16.8709 5.65912Z"
		fill="currentColor"
	/>
</svg>
