<svg
	color="rgb(var(--foreground, 0, 0, 0))"
	viewBox="0 0 19 15"
	fill="none"
	xmlns="http://www.w3.org/2000/svg"
>
	<path
		d="M0.570312 11.4619C0.570312 11.6526 0.635587 11.8072 0.766135 11.9257C0.901905 12.0443 1.07683 12.1035 1.29092 12.1035H3.07683C3.72435 12.1035 4.26482 11.9979 4.69824 11.7866C5.13688 11.5753 5.5938 11.1991 6.069 10.6579L10.8157 5.19243C11.0403 4.93475 11.257 4.7286 11.4659 4.57399C11.68 4.41938 11.9019 4.30858 12.1317 4.24158C12.3667 4.16943 12.6277 4.13335 12.915 4.13335H14.5129V5.88045C14.5129 6.03506 14.5546 6.15618 14.6382 6.24379C14.727 6.32625 14.8523 6.36748 15.0142 6.36748C15.0873 6.36748 15.1578 6.35459 15.2257 6.32882C15.2988 6.30305 15.364 6.26698 15.4215 6.2206L18.3823 3.80094C18.5077 3.69787 18.5703 3.57675 18.5703 3.4376C18.5703 3.29845 18.5077 3.17477 18.3823 3.06654L15.4215 0.63915C15.364 0.592766 15.2988 0.559267 15.2257 0.538653C15.1578 0.512884 15.0873 0.5 15.0142 0.5C14.8523 0.5 14.727 0.54123 14.6382 0.623689C14.5546 0.706148 14.5129 0.824683 14.5129 0.979293V2.84235H12.8758C12.223 2.84235 11.6774 2.948 11.2387 3.1593C10.8001 3.37061 10.3458 3.74682 9.87579 4.28796L5.13688 9.75345C4.79745 10.1451 4.4737 10.4209 4.1656 10.5806C3.86273 10.7404 3.51286 10.8203 3.11599 10.8203H1.29092C1.07683 10.8203 0.901905 10.8795 0.766135 10.9981C0.635587 11.1166 0.570312 11.2712 0.570312 11.4619ZM0.570312 3.49172C0.570312 3.6824 0.635587 3.83701 0.766135 3.95555C0.901905 4.07408 1.07683 4.13335 1.29092 4.13335H3.11599C3.51808 4.13335 3.87056 4.21323 4.17343 4.373C4.47631 4.53276 4.79745 4.80849 5.13688 5.20017L9.87579 10.6657C10.3458 11.2068 10.8001 11.583 11.2387 11.7943C11.6774 12.0005 12.223 12.1035 12.8758 12.1035H14.5129V14.0207C14.5129 14.1753 14.5546 14.2939 14.6382 14.3763C14.727 14.4588 14.8523 14.5 15.0142 14.5C15.0873 14.5 15.1578 14.4871 15.2257 14.4613C15.2988 14.4407 15.364 14.4072 15.4215 14.3609L18.3823 11.9412C18.5077 11.8381 18.5703 11.717 18.5703 11.5779C18.5703 11.4387 18.5077 11.315 18.3823 11.2068L15.4215 8.7794C15.364 8.73302 15.2988 8.69694 15.2257 8.67118C15.1578 8.64541 15.0873 8.63252 15.0142 8.63252C14.8523 8.63252 14.727 8.67633 14.6382 8.76394C14.5546 8.8464 14.5129 8.96494 14.5129 9.11955V10.8203H12.915C12.4868 10.8203 12.1134 10.7404 11.7949 10.5806C11.4815 10.4209 11.1552 10.1451 10.8157 9.75345L6.069 4.28796C5.5938 3.74682 5.13688 3.37318 4.69824 3.16703C4.26482 2.95573 3.72435 2.85008 3.07683 2.85008H1.29092C1.07683 2.85008 0.901905 2.90935 0.766135 3.02788C0.635587 3.14127 0.570312 3.29588 0.570312 3.49172Z"
		fill="currentColor"
	/>
</svg>
