<svg viewBox="0 0 36 24" fill="none" xmlns="http://www.w3.org/2000/svg">
	<path d="M36 24H0V0H36" fill="#41479B" />
	<path d="M36 0L0 12L36 24" fill="#FF4B55" />
	<path d="M36 22.67L3.988 12L36 1.33" fill="#FF4B55" />
	<path d="M3.988 12L36 22.67V1.329L3.988 12Z" fill="#F5F5F5" />
	<path
		d="M34.534 8.818C33.7639 8.92225 32.9852 8.94705 32.21 8.892L31.454 8.287C31.454 8.287 33.364 7.224 34.066 7.389C34.768 7.554 34.732 8.653 34.534 8.819V8.818ZM25.42 10.046L24.167 11.322C24.0465 11.4452 23.979 11.6107 23.979 11.783V12.393L25.132 12.099L26.572 11.219V10.926L26.861 10.633H25.708L25.42 10.046Z"
		fill="#FFF5DC"
	/>
	<path
		d="M30.247 11.757C30.1543 12.3988 29.9207 13.0121 29.563 13.553L28.686 13.016L28.878 12.196C28.6118 12.1127 28.3816 11.9419 28.2246 11.7114C28.0676 11.4809 27.9931 11.2042 28.013 10.926C28.0114 10.8149 28.0235 10.7041 28.049 10.596C28.049 10.596 30.283 10.938 30.247 11.757ZM25.402 8.452C24.915 8.69 24.447 9.228 24.795 9.741C25.061 10.133 25.762 9.698 25.762 9.698L25.42 10.046L25.708 10.926L27.473 9.991L26.861 8.397C26.377 8.29758 25.8761 8.31644 25.401 8.452H25.402ZM31.382 8.049C31.9449 7.74004 32.4358 7.31499 32.822 6.802L31.179 7.002L32.396 5.709C32.5918 5.24691 32.7097 4.7556 32.745 4.255L31.577 5.078C31.652 5.00165 31.7044 4.90597 31.7282 4.80162C31.752 4.69727 31.7464 4.58835 31.712 4.487L27.749 6.674L26.945 8.128L29.395 8.898L31.057 7.131L28.392 10.266L30.067 10.468C30.067 10.468 31.94 9.295 32.157 9.185C32.372 9.075 32.949 8.745 32.661 8.397C32.372 8.049 31.382 8.049 31.382 8.049Z"
		fill="#D27D69"
	/>
	<path
		d="M31.787 13.605C31.7873 13.6318 31.7822 13.6584 31.7722 13.6832C31.7622 13.7081 31.7474 13.7307 31.7287 13.7498C31.7099 13.769 31.6876 13.7842 31.6629 13.7947C31.6383 13.8052 31.6118 13.8107 31.585 13.811H29.105C29.1018 13.8518 29.0951 13.8923 29.085 13.932C29.035 14.118 28.8 14.069 28.699 14.039C28.269 14.471 28.422 14.629 28.422 14.629C28.422 14.629 31.172 14.139 31.412 14.189C31.652 14.238 31.532 14.469 31.532 14.469L28.518 14.934C28.494 15.337 28.061 15.264 28.061 15.264C27.9972 15.3134 27.922 15.3459 27.8423 15.3587C27.7626 15.3714 27.681 15.364 27.605 15.337C27.5561 15.3602 27.5028 15.3725 27.4487 15.3731C27.3946 15.3737 27.341 15.3626 27.2917 15.3406C27.2423 15.3185 27.1982 15.2861 27.1625 15.2454C27.1269 15.2047 27.1004 15.1568 27.085 15.105L25.444 15.3L25.251 15.545C25.42 15.631 25.36 15.814 25.251 16.058C25.143 16.303 25.42 16.315 25.924 16.119C26.3924 16.0089 26.8834 16.0473 27.329 16.229C27.689 16.315 28.349 16.022 28.914 16.29C29.478 16.56 29.706 16.254 29.706 16.254C29.946 16.486 29.61 16.694 29.61 16.694C30.139 16.474 30.319 16.694 30.319 16.694C30.127 16.608 29.707 16.95 29.707 16.95C29.8644 16.9278 30.0248 16.9546 30.1665 17.0267C30.3082 17.0988 30.4243 17.2127 30.499 17.353C30.2049 17.2414 29.8801 17.2414 29.586 17.353C29.686 17.4084 29.7691 17.49 29.8263 17.589C29.8836 17.688 29.9128 17.8007 29.911 17.915C29.6572 17.718 29.3432 17.6145 29.022 17.622C29.286 18.038 28.842 18.123 28.842 18.123C28.962 17.708 28.29 17.634 27.689 17.683C27.088 17.732 27.053 17.623 27.053 17.623C26.5559 17.741 26.0326 17.6667 25.588 17.415C25.3839 17.4683 25.1695 17.4681 24.9654 17.4145C24.7614 17.3609 24.5746 17.2557 24.423 17.109C24.2144 17.105 24.0121 17.0371 23.8434 16.9144C23.6747 16.7917 23.5477 16.6203 23.4795 16.4231C23.4114 16.226 23.4054 16.0127 23.4623 15.812C23.5193 15.6113 23.6365 15.433 23.798 15.301C24.0359 15.1516 24.3057 15.0604 24.5854 15.0349C24.8652 15.0094 25.147 15.0502 25.408 15.154L27.082 14.87C27.1543 14.7395 27.2532 14.6255 27.3722 14.5354C27.4912 14.4453 27.6277 14.3812 27.773 14.347C27.9667 14.2749 28.15 14.1773 28.318 14.057C28.265 14.0392 28.214 14.0157 28.166 13.987C28.1106 13.981 28.0574 13.9619 28.0108 13.9313C27.9642 13.9007 27.9255 13.8595 27.898 13.811H27.601C27.5846 13.8297 27.5645 13.8447 27.5419 13.855C27.5193 13.8654 27.4948 13.8708 27.47 13.871C27.2106 13.9851 26.9444 14.0833 26.673 14.165H26.591C26.5671 14.1649 26.5436 14.16 26.5216 14.1507C26.4996 14.1415 26.4797 14.1279 26.4629 14.1109C26.4462 14.0939 26.433 14.0738 26.4241 14.0516C26.4152 14.0295 26.4107 14.0059 26.411 13.982V13.811H25.501V13.981C25.5014 14.0049 25.497 14.0287 25.4882 14.051C25.4793 14.0732 25.4662 14.0935 25.4494 14.1106C25.4327 14.1277 25.4127 14.1413 25.3907 14.1507C25.3686 14.16 25.3449 14.1649 25.321 14.165H25.239C25.2151 14.1649 25.1916 14.16 25.1696 14.1507C25.1476 14.1415 25.1277 14.1279 25.1109 14.1109C25.0942 14.0939 25.081 14.0738 25.0721 14.0516C25.0632 14.0295 25.0587 14.0059 25.059 13.982V13.979C24.5005 13.9883 23.9447 14.0597 23.402 14.192L21.097 13.606L23.402 13.019C23.9447 13.1516 24.5004 13.2234 25.059 13.233V13.229C25.0589 13.2052 25.0634 13.1817 25.0724 13.1597C25.0814 13.1376 25.0946 13.1176 25.1113 13.1007C25.128 13.0838 25.1479 13.0704 25.1698 13.0612C25.1917 13.0519 25.2152 13.0471 25.239 13.047H25.321C25.3448 13.0471 25.3683 13.0519 25.3902 13.0612C25.4121 13.0704 25.432 13.0838 25.4487 13.1007C25.4654 13.1176 25.4786 13.1376 25.4876 13.1597C25.4966 13.1817 25.5011 13.2052 25.501 13.229V13.4H26.411V13.23C26.4107 13.2061 26.4152 13.1825 26.4241 13.1604C26.433 13.1382 26.4462 13.1181 26.4629 13.1011C26.4797 13.0841 26.4996 13.0705 26.5216 13.0613C26.5436 13.052 26.5671 13.0471 26.591 13.047H26.673C26.9444 13.1287 27.2106 13.2269 27.47 13.341C27.4947 13.3413 27.519 13.3468 27.5414 13.3572C27.5638 13.3675 27.5837 13.3824 27.6 13.401H27.832C27.8438 13.2698 27.9053 13.1482 28.004 13.061C28.256 12.878 28.995 13.043 28.995 13.043L29.409 12.374L29.787 12.658L29.379 13.4H31.585C31.6389 13.4005 31.6905 13.4224 31.7283 13.4608C31.7662 13.4992 31.7873 13.5511 31.787 13.605ZM23.979 12.979C24.3811 12.7102 24.7669 12.4163 25.132 12.099C25.132 12.099 25.131 11.806 24.555 12.099H23.979C23.979 12.099 23.402 12.979 23.979 12.979Z"
		fill="#FFE15A"
	/>
	<path
		d="M25.708 10.926C25.708 10.926 26.861 10.34 26.861 9.46C26.861 8.58 25.791 8.531 24.927 8.825C24.927 8.825 24.411 8.409 24.843 7.994C25.8451 7.31399 26.906 6.72498 28.013 6.234L27.725 7.7C27.725 7.7 28.752 8.25 29.166 7.994C29.514 7.778 32.913 5.061 32.913 5.061C32.5142 6.27997 31.6974 7.3188 30.607 7.994L30.393 9.081C30.3705 9.19829 30.3216 9.30893 30.2501 9.40456C30.1785 9.50019 30.0862 9.5783 29.98 9.633L29.166 10.046C29.166 10.046 31.472 10.34 31.472 10.633C31.3574 11.1208 31.145 11.5802 30.8476 11.9834C30.5502 12.3867 30.1741 12.7254 29.742 12.979L29.166 12.392L29.454 11.512C28.9631 11.3446 28.4813 11.149 28.013 10.926C27.5468 11.0847 27.0632 11.1832 26.572 11.219C26.2574 11.2336 25.9488 11.1289 25.708 10.926Z"
		fill="#B95546"
	/>
</svg>
