<svg viewBox="0 0 36 24" fill="none" xmlns="http://www.w3.org/2000/svg">
	<path d="M36 24H0V0H36" fill="#F5F5F5" />
	<path
		d="M32.396 16.421C34.198 16.421 34.198 17.053 36 17.053V18.947C34.198 18.947 34.198 18.316 32.396 18.316C30.594 18.316 30.594 18.947 28.792 18.947C26.992 18.947 26.992 18.316 25.191 18.316C23.391 18.316 23.391 18.947 21.592 18.947C19.792 18.947 19.792 18.316 17.992 18.316C16.192 18.316 16.192 18.947 14.392 18.947C12.592 18.947 12.592 18.316 10.793 18.316C8.993 18.316 8.993 18.947 7.193 18.947C5.395 18.947 5.395 18.316 3.596 18.316C1.798 18.316 1.798 18.947 0 18.947V17.053C1.798 17.053 1.798 16.421 3.596 16.421C5.395 16.421 5.395 17.053 7.194 17.053C8.994 17.053 8.994 16.421 10.794 16.421C12.593 16.421 12.593 17.053 14.393 17.053C16.193 17.053 16.193 16.421 17.992 16.421C19.792 16.421 19.792 17.053 21.592 17.053C23.392 17.053 23.392 16.421 25.191 16.421C26.991 16.421 26.991 17.053 28.792 17.053C30.594 17.053 30.594 16.421 32.396 16.421ZM28.792 20.842C26.992 20.842 26.992 20.211 25.191 20.211C23.391 20.211 23.391 20.842 21.592 20.842C19.792 20.842 19.792 20.211 17.992 20.211C16.192 20.211 16.192 20.842 14.392 20.842C12.593 20.842 12.592 20.211 10.793 20.211C8.993 20.211 8.993 20.842 7.193 20.842C5.395 20.842 5.395 20.211 3.596 20.211C1.798 20.211 1.798 20.842 0 20.842V22.737C1.798 22.737 1.798 22.105 3.596 22.105C5.395 22.105 5.395 22.737 7.194 22.737C8.994 22.737 8.994 22.105 10.794 22.105C12.593 22.105 12.593 22.737 14.393 22.737C16.193 22.737 16.193 22.105 17.992 22.105C19.792 22.105 19.792 22.737 21.592 22.737C23.392 22.737 23.392 22.105 25.191 22.105C26.991 22.105 26.991 22.737 28.792 22.737C30.594 22.737 30.594 22.105 32.396 22.105C34.198 22.105 34.198 22.737 36 22.737V20.842C34.198 20.842 34.198 20.211 32.396 20.211C30.594 20.211 30.594 20.842 28.792 20.842ZM21.592 3.79C23.392 3.79 23.392 3.158 25.191 3.158C26.991 3.158 26.991 3.79 28.792 3.79C30.594 3.79 30.594 3.158 32.396 3.158C34.198 3.158 34.198 3.79 36 3.79V1.895C34.198 1.895 34.198 1.263 32.396 1.263C30.594 1.263 30.594 1.895 28.792 1.895C26.992 1.895 26.992 1.263 25.191 1.263C23.391 1.263 23.391 1.895 21.592 1.895C19.795 1.895 19.791 1.265 18 1.264V0H0V12H18V10.737C19.791 10.739 19.795 11.368 21.592 11.368C23.392 11.368 23.392 10.737 25.191 10.737C26.991 10.737 26.991 11.368 28.792 11.368C30.594 11.368 30.594 10.737 32.396 10.737C34.198 10.737 34.198 11.368 36 11.368V9.474C34.198 9.474 34.198 8.842 32.396 8.842C30.594 8.842 30.594 9.474 28.792 9.474C26.992 9.474 26.992 8.842 25.191 8.842C23.391 8.842 23.391 9.474 21.592 9.474C19.795 9.474 19.791 8.844 18 8.842V6.948C19.791 6.95 19.795 7.578 21.592 7.578C23.392 7.578 23.392 6.948 25.191 6.948C26.991 6.948 26.991 7.578 28.792 7.578C30.594 7.578 30.594 6.948 32.396 6.948C34.198 6.948 34.198 7.578 36 7.578V5.685C34.198 5.685 34.198 5.054 32.396 5.054C30.594 5.054 30.594 5.685 28.792 5.685C26.992 5.685 26.992 5.054 25.191 5.054C23.391 5.054 23.391 5.685 21.592 5.685C19.795 5.685 19.791 5.056 18 5.054V3.158C19.791 3.16 19.795 3.79 21.592 3.79ZM28.792 13.263C26.992 13.263 26.992 12.632 25.191 12.632C23.391 12.632 23.391 13.263 21.592 13.263C19.792 13.263 19.792 12.632 17.992 12.632C16.192 12.632 16.192 13.263 14.392 13.263C12.593 13.263 12.593 12.632 10.793 12.632C8.993 12.632 8.993 13.263 7.193 13.263C5.395 13.263 5.395 12.632 3.596 12.632C1.798 12.632 1.798 13.263 0 13.263V15.158C1.798 15.158 1.798 14.526 3.596 14.526C5.395 14.526 5.395 15.158 7.194 15.158C8.994 15.158 8.994 14.526 10.794 14.526C12.593 14.526 12.593 15.158 14.393 15.158C16.193 15.158 16.193 14.526 17.992 14.526C19.792 14.526 19.792 15.158 21.592 15.158C23.392 15.158 23.392 14.526 25.191 14.526C26.991 14.526 26.991 15.158 28.792 15.158C30.594 15.158 30.594 14.526 32.396 14.526C34.198 14.526 34.198 15.158 36 15.158V13.263C34.198 13.263 34.198 12.632 32.396 12.632C30.594 12.632 30.594 13.263 28.792 13.263Z"
		fill="#41479B"
	/>
	<path
		d="M27.31 21.4C27.1951 21.3989 27.0852 21.3523 27.0046 21.2704C26.924 21.1885 26.8792 21.0779 26.88 20.963V6.972H27.74V20.963C27.7405 21.0199 27.7298 21.0764 27.7085 21.1292C27.6871 21.182 27.6556 21.2301 27.6157 21.2707C27.5757 21.3113 27.5282 21.3436 27.4757 21.3658C27.4233 21.388 27.3669 21.3996 27.31 21.4Z"
		fill="#965032"
	/>
	<path
		d="M33.326 8.721L32.466 8.284L29.302 7.881L31.26 5.32L31.564 4.393L30.652 4.702L28.135 6.694L27.74 3.474L27.31 2.6L26.881 3.474L26.485 6.694L23.968 4.702L23.057 4.393L23.361 5.32L25.318 7.881L22.154 8.284L21.295 8.721L22.154 9.158L25.318 9.561L23.361 12.122L23.057 13.049L23.968 12.74L26.703 10.576L27.31 9.595L27.918 10.576L30.652 12.74L31.564 13.049L31.26 12.122L29.302 9.561L32.466 9.158L33.326 8.721Z"
		fill="#73AF00"
	/>
	<path
		d="M29.18 13.813C28.795 13.421 27.968 13.565 27.525 13.679V13.312C27.525 13.2838 27.5194 13.2558 27.5086 13.2297C27.4978 13.2036 27.482 13.1799 27.462 13.16C27.4421 13.14 27.4184 13.1242 27.3923 13.1134C27.3662 13.1026 27.3382 13.097 27.31 13.097C27.2818 13.097 27.2538 13.1026 27.2277 13.1134C27.2016 13.1242 27.1779 13.14 27.158 13.16C27.138 13.1799 27.1222 13.2036 27.1114 13.2297C27.1006 13.2558 27.095 13.2838 27.095 13.312V13.679C26.653 13.565 25.826 13.42 25.44 13.813C25.071 14.188 25.338 15.091 25.592 15.719V16.299C25.5915 16.337 25.5985 16.3747 25.6126 16.41C25.6267 16.4453 25.6476 16.4774 25.6742 16.5045C25.7008 16.5317 25.7325 16.5533 25.7675 16.5681C25.8024 16.583 25.84 16.5907 25.878 16.591H28.743C28.7809 16.5907 28.8184 16.583 28.8533 16.5682C28.8882 16.5534 28.9198 16.5319 28.9464 16.5049C28.973 16.4778 28.994 16.4458 29.0081 16.4107C29.0223 16.3755 29.0294 16.3379 29.029 16.3V15.719C29.282 15.091 29.548 14.187 29.18 13.813ZM28.877 14.123C29.041 14.289 28.857 15.021 28.561 15.716H27.525V14.13C28.007 13.991 28.668 13.91 28.877 14.122V14.123ZM25.743 14.123C25.953 13.909 26.613 13.991 27.095 14.13V15.716H26.06C25.764 15.021 25.58 14.289 25.744 14.122L25.743 14.123Z"
		fill="#FFE15A"
	/>
	<path
		d="M18.028 1.133V0H16.327L10.568 3.833V0H7.46V3.833L1.7 0H0V1.133L4.94 4.42H0V7.58H4.94L0 10.867V12H1.702L7.46 8.167V12H10.568V8.167L16.327 12H18.028V10.867L13.088 7.579H18.028V4.421H13.088L18.028 1.133Z"
		fill="#F5F5F5"
	/>
	<path
		d="M18.028 6.947H9.947V12H8.082V6.947H0V5.053H8.082V0H9.947V5.053H18.028V6.947ZM0 12H0.739L7.443 7.579H6.3L0 11.736M18.028 11.425L12.197 7.579H11.055L17.763 12H18.028M0 0.664L5.696 4.421H6.838L0.121 0H0M17.272 0L10.568 4.421H11.71L18.028 0.253V0"
		fill="#FF4B55"
	/>
</svg>
