<svg viewBox="0 0 36 24" fill="none" xmlns="http://www.w3.org/2000/svg">
	<path d="M0 0H36V24H0V0Z" fill="#41479B" />
	<path d="M36 0V24L0 0" fill="#73AF00" />
	<path
		d="M3.725 13.331C3.73108 13.3352 3.73578 13.3411 3.73847 13.348C3.74117 13.3548 3.74175 13.3624 3.74014 13.3696C3.73852 13.3768 3.73479 13.3833 3.72942 13.3884C3.72405 13.3935 3.71729 13.3968 3.71 13.398L3.13 13.488L3.173 14.083C3.17367 14.0902 3.17214 14.0975 3.16861 14.1038C3.16509 14.1101 3.15974 14.1153 3.15325 14.1185C3.14677 14.1217 3.13946 14.123 3.13228 14.122C3.12509 14.121 3.11838 14.1179 3.113 14.113L2.682 13.707L2.251 14.113C2.24562 14.1179 2.23891 14.121 2.23172 14.122C2.22454 14.123 2.21723 14.1217 2.21075 14.1185C2.20427 14.1153 2.19891 14.1101 2.19539 14.1038C2.19186 14.0975 2.19033 14.0902 2.191 14.083L2.233 13.488L1.653 13.398C1.64579 13.3967 1.63914 13.3932 1.63389 13.3881C1.62865 13.3829 1.62505 13.3764 1.62355 13.3692C1.62205 13.362 1.62271 13.3545 1.62547 13.3477C1.62822 13.3409 1.63293 13.3351 1.639 13.331L2.123 12.994L1.83 12.476C1.82614 12.4697 1.82431 12.4624 1.82475 12.455C1.82519 12.4477 1.82789 12.4406 1.83247 12.4348C1.83705 12.429 1.8433 12.4248 1.85038 12.4227C1.85745 12.4206 1.86499 12.4207 1.872 12.423L2.432 12.598L2.648 12.043C2.65065 12.0363 2.65526 12.0305 2.66123 12.0264C2.66721 12.0224 2.67427 12.0202 2.6815 12.0202C2.68873 12.0202 2.69579 12.0224 2.70177 12.0264C2.70774 12.0305 2.71235 12.0363 2.715 12.043L2.93 12.598L3.491 12.423C3.49801 12.4207 3.50555 12.4206 3.51262 12.4227C3.5197 12.4248 3.52595 12.429 3.53053 12.4348C3.53511 12.4406 3.53781 12.4477 3.53825 12.455C3.53869 12.4624 3.53686 12.4697 3.533 12.476L3.241 12.994L3.725 13.331ZM11.57 11.835L11.086 11.497L11.378 10.98C11.3821 10.9738 11.3841 10.9665 11.3838 10.959C11.3836 10.9516 11.381 10.9445 11.3765 10.9386C11.372 10.9326 11.3658 10.9283 11.3588 10.926C11.3517 10.9238 11.3441 10.9238 11.337 10.926L10.776 11.101L10.56 10.546C10.5572 10.5396 10.5526 10.5341 10.5467 10.5303C10.5409 10.5264 10.534 10.5244 10.527 10.5244C10.52 10.5244 10.5131 10.5264 10.5073 10.5303C10.5014 10.5341 10.4968 10.5396 10.494 10.546L10.278 11.101L9.718 10.926C9.7108 10.9231 9.70286 10.9226 9.69535 10.9246C9.68785 10.9265 9.68118 10.9309 9.67634 10.9369C9.67151 10.943 9.66877 10.9505 9.66852 10.9583C9.66828 10.966 9.67055 10.9736 9.675 10.98L9.968 11.497L9.484 11.835C9.47825 11.8393 9.47386 11.8451 9.47138 11.8519C9.46889 11.8586 9.46842 11.8659 9.47001 11.8729C9.47159 11.8799 9.47518 11.8863 9.48033 11.8912C9.48548 11.8962 9.49196 11.8996 9.499 11.901L10.079 11.991L10.036 12.586C10.0353 12.5932 10.0369 12.6005 10.0404 12.6068C10.0439 12.6131 10.0493 12.6183 10.0557 12.6215C10.0622 12.6247 10.0695 12.626 10.0767 12.625C10.0839 12.624 10.0906 12.6209 10.096 12.616L10.526 12.211L10.958 12.616C10.9634 12.6209 10.9701 12.624 10.9773 12.625C10.9845 12.626 10.9918 12.6247 10.9983 12.6215C11.0047 12.6183 11.0101 12.6131 11.0136 12.6068C11.0171 12.6005 11.0187 12.5932 11.018 12.586L10.975 11.991L11.555 11.901C11.562 11.8996 11.5685 11.8962 11.5737 11.8912C11.5788 11.8863 11.5824 11.8799 11.584 11.8729C11.5856 11.8659 11.5851 11.8586 11.5826 11.8519C11.5801 11.8451 11.5758 11.8393 11.57 11.835ZM5.576 8.3L6.156 8.39L6.113 8.986C6.11233 8.99322 6.11386 9.00047 6.11739 9.0068C6.12091 9.01314 6.12627 9.01826 6.13275 9.0215C6.13923 9.02475 6.14654 9.02595 6.15372 9.02497C6.16091 9.02399 6.16762 9.02086 6.173 9.016L6.604 8.61L7.035 9.015C7.04038 9.01986 7.04709 9.02299 7.05428 9.02397C7.06146 9.02495 7.06877 9.02374 7.07525 9.0205C7.08173 9.01726 7.08709 9.01214 7.09061 9.0058C7.09414 8.99947 7.09567 8.99222 7.095 8.985L7.053 8.39L7.633 8.3C7.63996 8.29849 7.64634 8.29499 7.65136 8.28994C7.65639 8.28489 7.65985 8.27849 7.66133 8.27152C7.66281 8.26455 7.66224 8.2573 7.6597 8.25065C7.65716 8.24399 7.65275 8.23821 7.647 8.234L7.163 7.897L7.456 7.379C7.45986 7.37271 7.46169 7.36539 7.46125 7.35802C7.46081 7.35065 7.45811 7.3436 7.45353 7.33782C7.44895 7.33203 7.4427 7.3278 7.43563 7.32568C7.42855 7.32357 7.42101 7.32368 7.414 7.326L6.854 7.501L6.638 6.945C6.63535 6.93827 6.63074 6.9325 6.62477 6.92843C6.61879 6.92436 6.61173 6.92218 6.6045 6.92218C6.59727 6.92218 6.59021 6.92436 6.58423 6.92843C6.57826 6.9325 6.57365 6.93827 6.571 6.945L6.355 7.501L5.795 7.326C5.78799 7.32368 5.78045 7.32357 5.77338 7.32568C5.7663 7.3278 5.76005 7.33203 5.75547 7.33782C5.75089 7.3436 5.74819 7.35065 5.74775 7.35802C5.74731 7.36539 5.74914 7.37271 5.753 7.379L6.045 7.897L5.561 8.234C5.55525 8.23828 5.55086 8.24414 5.54838 8.25086C5.54589 8.25759 5.54542 8.26489 5.54701 8.27188C5.5486 8.27888 5.55218 8.28526 5.55733 8.29025C5.56248 8.29524 5.56896 8.29863 5.576 8.3ZM7.163 20.976L7.456 20.458C7.45986 20.4517 7.46169 20.4444 7.46125 20.437C7.46081 20.4297 7.45811 20.4226 7.45353 20.4168C7.44895 20.411 7.4427 20.4068 7.43563 20.4047C7.42855 20.4026 7.42101 20.4027 7.414 20.405L6.854 20.58L6.638 20.025C6.63535 20.0183 6.63074 20.0125 6.62477 20.0084C6.61879 20.0044 6.61173 20.0022 6.6045 20.0022C6.59727 20.0022 6.59021 20.0044 6.58423 20.0084C6.57826 20.0125 6.57365 20.0183 6.571 20.025L6.355 20.58L5.795 20.405C5.78799 20.4027 5.78045 20.4026 5.77338 20.4047C5.7663 20.4068 5.76005 20.411 5.75547 20.4168C5.75089 20.4226 5.74819 20.4297 5.74775 20.437C5.74731 20.4444 5.74914 20.4517 5.753 20.458L6.045 20.976L5.561 21.313C5.55492 21.3172 5.55022 21.3231 5.54753 21.33C5.54483 21.3368 5.54425 21.3444 5.54586 21.3516C5.54748 21.3588 5.55121 21.3653 5.55658 21.3704C5.56195 21.3755 5.56871 21.3788 5.576 21.38L6.156 21.47L6.113 22.065C6.11233 22.0722 6.11386 22.0795 6.11739 22.0858C6.12091 22.0921 6.12627 22.0973 6.13275 22.1005C6.13923 22.1037 6.14654 22.105 6.15372 22.104C6.16091 22.103 6.16762 22.0999 6.173 22.095L6.604 21.689L7.035 22.095C7.04038 22.0999 7.04709 22.103 7.05428 22.104C7.06146 22.105 7.06877 22.1037 7.07525 22.1005C7.08173 22.0973 7.08709 22.0921 7.09061 22.0858C7.09414 22.0795 7.09567 22.0722 7.095 22.065L7.053 21.47L7.633 21.38C7.64021 21.3787 7.64686 21.3752 7.65211 21.3701C7.65735 21.3649 7.66095 21.3584 7.66245 21.3512C7.66395 21.344 7.66329 21.3365 7.66053 21.3297C7.65778 21.3229 7.65307 21.3171 7.647 21.313L7.163 20.976ZM8.869 13.006L8.394 13.003L8.244 12.544C8.24171 12.5361 8.23691 12.5291 8.23033 12.5242C8.22375 12.5192 8.21573 12.5166 8.2075 12.5166C8.19927 12.5166 8.19125 12.5192 8.18467 12.5242C8.17809 12.5291 8.17329 12.5361 8.171 12.544L8.021 13.003L7.545 13.007C7.53717 13.0076 7.5297 13.0106 7.52353 13.0155C7.51735 13.0203 7.51275 13.0269 7.5103 13.0344C7.50785 13.0418 7.50765 13.0499 7.50973 13.0575C7.51181 13.065 7.51608 13.0718 7.522 13.077L7.905 13.364L7.761 13.826C7.75783 13.8339 7.7574 13.8426 7.75979 13.8508C7.76217 13.859 7.76722 13.8661 7.77413 13.871C7.78104 13.876 7.78942 13.8785 7.79792 13.8781C7.80642 13.8777 7.81454 13.8745 7.821 13.869L8.207 13.588L8.594 13.869C8.60054 13.8736 8.60836 13.8761 8.61636 13.876C8.62437 13.8759 8.63214 13.8733 8.63857 13.8685C8.64499 13.8637 8.64975 13.8571 8.65217 13.8494C8.65458 13.8418 8.65452 13.8336 8.652 13.826L8.509 13.364L8.892 13.077C8.89792 13.0718 8.90219 13.065 8.90427 13.0575C8.90635 13.0499 8.90615 13.0418 8.9037 13.0344C8.90125 13.0269 8.89665 13.0203 8.89047 13.0155C8.8843 13.0106 8.87683 13.0076 8.869 13.007V13.006Z"
		fill="#F5F5F5"
	/>
	<path
		d="M21.724 12C21.7112 12.7339 21.4819 13.4476 21.0648 14.0516C20.6477 14.6556 20.0615 15.1229 19.3798 15.3949C18.6981 15.6668 17.9512 15.7313 17.2329 15.5802C16.5146 15.4292 15.857 15.0693 15.3426 14.5457C14.8281 14.0222 14.4798 13.3583 14.3414 12.6375C14.203 11.9167 14.2806 11.1711 14.5645 10.4942C14.8484 9.81735 15.3259 9.23945 15.9371 8.83306C16.5484 8.42667 17.266 8.20991 18 8.21C18.4934 8.21431 18.9811 8.31577 19.4353 8.50857C19.8894 8.70138 20.3012 8.98175 20.647 9.33369C20.9928 9.68563 21.2659 10.1022 21.4507 10.5597C21.6355 11.0172 21.7284 11.5066 21.724 12ZM34.758 8.661C34.5943 8.50556 34.3863 8.40499 34.1628 8.37326C33.9393 8.34154 33.7115 8.38025 33.511 8.484C33.511 8.484 32.741 8.514 32.626 7.43C32.6067 6.52876 32.461 5.63469 32.193 4.774C31.927 4.3 29.733 1.932 29.466 2.118C29.199 2.304 30.132 4.656 30.996 5.485C30.996 5.485 31.196 6.94 30.946 7.008C30.696 7.075 29.316 5.789 26.856 5.485C27.477 6.33014 28.2706 7.03367 29.184 7.549C30.464 8.158 30.814 8.716 30.78 8.953C30.584 9.68802 30.1732 10.3478 29.6 10.848C28.885 11.373 27.089 12.794 23.015 12.049C23.015 12.049 22.566 12.032 22.699 12.176C22.982 12.482 26.091 13.343 29.234 11.668C30.8234 10.7725 32.5039 10.0494 34.247 9.511C34.2524 9.39503 34.2954 9.28397 34.3696 9.19465C34.4437 9.10533 34.545 9.04262 34.658 9.016C35.045 8.953 34.858 8.788 34.758 8.661Z"
		fill="#FFE15A"
	/>
	<path
		d="M15.79 10.37C15.638 10.334 15.485 10.732 15.655 10.87C15.825 11.008 16.13 11.268 15.943 11.423C15.756 11.578 15.689 11.596 15.655 11.785C15.621 11.975 15.655 12.01 15.502 12.096C15.349 12.182 14.992 12.356 15.146 12.528C15.3 12.7 15.502 12.597 15.638 12.321C15.9663 12.2984 16.296 12.3098 16.622 12.355C16.656 12.425 16.74 12.683 16.944 12.615L17.148 12.545C17.183 12.5309 17.2215 12.5284 17.258 12.5377C17.2945 12.5471 17.3271 12.5678 17.351 12.597C17.5014 12.7103 17.6903 12.7599 17.877 12.735C17.9376 12.7303 17.9985 12.7395 18.055 12.7619C18.1115 12.7843 18.1621 12.8193 18.203 12.8643C18.2439 12.9092 18.274 12.9629 18.291 13.0213C18.308 13.0797 18.3114 13.1411 18.301 13.201C18.291 13.411 18.238 13.848 18.201 14.135C18.1914 14.2082 18.2103 14.2823 18.2539 14.3419C18.2975 14.4015 18.3623 14.442 18.435 14.455L18.87 14.529C18.8972 14.5334 18.9249 14.5321 18.9515 14.5252C18.9782 14.5183 19.0031 14.5059 19.0247 14.4889C19.0463 14.4719 19.0641 14.4506 19.0771 14.4263C19.0901 14.4021 19.0979 14.3754 19.1 14.348C19.121 14.112 19.15 13.766 19.15 13.753C19.244 13.4066 19.3174 13.055 19.37 12.7L19.353 12.407C19.4943 12.3876 19.6223 12.3132 19.709 12.2C19.8644 11.8633 20.1355 11.5937 20.473 11.44L20.592 11.147C20.592 11.147 20.252 10.991 20.32 10.887C20.4016 10.6968 20.4195 10.4852 20.371 10.284C20.336 10.1071 20.3133 9.92802 20.303 9.748C20.303 9.748 20.183 9.696 20.157 9.768C20.131 9.84 20.106 9.878 20.042 9.866C19.978 9.853 19.882 9.846 19.856 9.788C19.831 9.729 19.761 9.671 19.696 9.703C19.633 9.736 19.524 10.171 19.371 10.216C19.371 10.216 19.358 10.028 19.263 10.067C19.168 10.106 19.173 10.197 19.16 10.359C19.147 10.521 18.075 11.62 17.136 11.328C17.1073 11.27 17.0625 11.2213 17.0071 11.1878C16.9516 11.1544 16.8878 11.1374 16.823 11.139C16.7292 11.1626 16.6311 11.1626 16.5373 11.1389C16.4436 11.1151 16.3572 11.0684 16.286 11.003C16.165 10.853 15.972 10.413 15.79 10.37Z"
		fill="#73AF00"
	/>
</svg>
