<svg viewBox="0 0 36 24" fill="none" xmlns="http://www.w3.org/2000/svg">
	<path d="M35.999 24L0 23.998L0.001 0L36 0.002" fill="#82AFFF" />
	<path
		d="M22.643 6.893V13.823C22.643 16.633 26.523 18.078 26.995 18.243C27.467 18.078 31.348 16.631 31.348 13.823V6.893H22.643Z"
		fill="#F5F5F5"
	/>
	<path
		d="M27.61 10.072V13.198H31.5V14.448H27.61V18.2L26.995 18.408L26.381 18.2V14.448H22.489V13.198H26.381V10.072H22.49V6.736H31.503V10.071L27.61 10.072Z"
		fill="#FF4B55"
	/>
	<path
		d="M25.69 8.245C25.974 8.49973 26.3228 8.67103 26.698 8.74C26.6424 8.80274 26.5701 8.84837 26.4895 8.87156C26.409 8.89476 26.3235 8.89456 26.243 8.871C26.3386 8.96226 26.416 9.07085 26.471 9.191C26.3331 9.21788 26.1902 9.19781 26.065 9.134C26.0833 9.23886 26.1228 9.33889 26.181 9.428C26.0078 9.41822 25.8431 9.3498 25.714 9.234L25.628 9.484C25.5254 9.40684 25.4431 9.30596 25.388 9.19C25.2886 9.26819 25.1689 9.3161 25.043 9.328C25.075 9.23274 25.0958 9.13408 25.105 9.034C24.9705 9.11662 24.8114 9.14986 24.655 9.128C24.6538 9.01087 24.6791 8.89499 24.729 8.789C24.6393 8.79927 24.5484 8.78654 24.465 8.752C24.465 8.752 24.526 8.608 24.557 8.514C24.4565 8.51626 24.3584 8.48297 24.28 8.42C24.28 8.42 24.612 8.288 24.686 8.163L25.69 8.245Z"
		fill="#FFD25A"
	/>
	<path
		d="M25.084 7.193C25.1975 7.25581 25.2837 7.3584 25.326 7.481C25.4152 7.35819 25.5472 7.27328 25.696 7.243C25.7731 7.36889 25.7992 7.51949 25.769 7.664C25.8357 7.64338 25.9063 7.63834 25.9753 7.64927C26.0443 7.66019 26.1099 7.68678 26.167 7.727C25.9998 7.77001 25.8557 7.87609 25.765 8.023C25.7378 8.15078 25.7507 8.28385 25.802 8.404C25.7362 8.41031 25.6698 8.4 25.609 8.374C25.609 8.374 25.56 8.612 25.609 8.687C25.5639 8.67802 25.5215 8.6586 25.4852 8.63029C25.4489 8.60199 25.4197 8.56559 25.4 8.524C25.3441 8.60646 25.3088 8.7011 25.297 8.8C25.2574 8.77665 25.2232 8.74528 25.1965 8.70791C25.1698 8.67053 25.1513 8.62799 25.142 8.583C25.142 8.583 25.039 8.779 24.928 8.796C24.9243 8.66722 24.9038 8.53948 24.867 8.416C24.8102 8.4766 24.732 8.5125 24.649 8.516C24.6481 8.4032 24.6843 8.29324 24.752 8.203C24.6983 8.21673 24.6415 8.21026 24.5922 8.18482C24.543 8.15937 24.5048 8.11673 24.485 8.065C24.485 8.065 24.768 8.149 24.838 7.973C24.8717 7.8501 24.9369 7.73809 25.027 7.648C25.125 7.552 25.084 7.193 25.084 7.193Z"
		fill="#FFBE5A"
	/>
	<path
		d="M23.5 9.293C23.3964 9.29479 23.2946 9.2657 23.2076 9.20944C23.1206 9.15317 23.0523 9.07229 23.0114 8.97708C22.9705 8.88186 22.9588 8.77664 22.978 8.67479C22.9971 8.57295 23.0461 8.4791 23.1187 8.40519C23.1913 8.33129 23.2843 8.28067 23.3858 8.25979C23.4873 8.2389 23.5927 8.2487 23.6886 8.28793C23.7845 8.32716 23.8666 8.39405 23.9244 8.48008C23.9821 8.56611 24.013 8.66738 24.013 8.771C24.0137 8.83898 24.0009 8.90642 23.9755 8.96946C23.95 9.0325 23.9124 9.08991 23.8648 9.1384C23.8171 9.18688 23.7604 9.22549 23.6978 9.25202C23.6352 9.27855 23.568 9.29248 23.5 9.293ZM25.252 15.971C25.4201 15.8855 25.5739 15.7745 25.708 15.642L25.472 15.626C25.6458 15.5122 25.7981 15.3687 25.922 15.202L25.756 15.218C25.8677 15.1005 25.9488 14.9573 25.992 14.801C25.8215 14.9742 25.6061 15.0964 25.37 15.154C25.37 15.154 25.504 14.801 25.535 14.664C25.4072 14.7468 25.2732 14.8193 25.134 14.881C24.969 14.945 24.709 14.953 24.827 15.498C24.7203 15.3935 24.6415 15.2639 24.598 15.121C24.512 14.865 24.48 14.769 24.362 14.769C24.3055 14.7705 24.2506 14.7878 24.2034 14.8189C24.1562 14.85 24.1187 14.8937 24.095 14.945L23.827 15.073C24.032 15.073 24.299 15.065 24.291 15.273C24.284 15.482 24.055 16.187 24.583 16.403C25.111 16.619 25.173 16.588 25.173 16.588L25.409 17.14L25.984 16.932L25.433 16.483C25.4031 16.303 25.3419 16.1297 25.252 15.971Z"
		fill="#FFECDE"
	/>
	<path
		d="M23.283 8.261C23.177 8.083 23.433 7.922 23.595 7.909C23.761 7.896 23.788 7.811 23.907 7.769C24.026 7.727 24.321 7.974 24.485 8.065C24.5734 8.0964 24.664 8.12146 24.756 8.14C24.806 8.14 24.703 8.42 24.481 8.437C24.26 8.453 24.081 8.2 24.081 8.2C24.0164 8.21282 23.9501 8.21451 23.885 8.205C23.856 8.313 23.422 8.494 23.283 8.261ZM24.655 9.128C24.5106 9.19579 24.3795 9.28893 24.268 9.403C24.268 9.403 24.265 9.346 24.151 9.322C23.967 9.282 23.911 9.311 23.838 9.172C23.764 9.035 23.351 9.103 23.295 9.215C23.2796 9.25368 23.2741 9.29557 23.2788 9.33692C23.2836 9.37828 23.2985 9.4178 23.3223 9.45198C23.3461 9.48615 23.378 9.5139 23.4151 9.53275C23.4522 9.5516 23.4934 9.56096 23.535 9.56C23.7584 9.5618 23.9797 9.60416 24.188 9.685C24.292 9.747 24.274 9.622 24.378 9.597C24.6789 9.5414 24.9547 9.39233 25.166 9.171L25.209 8.971C25.1465 8.95297 25.0831 8.93828 25.019 8.927C24.9022 9.00155 24.7806 9.06836 24.655 9.127V9.128ZM30.958 9.109C30.856 9.097 30.778 8.976 30.737 8.85C30.696 8.725 30.671 8.358 30.204 8.57C30.1404 8.59834 30.0718 8.61385 30.0022 8.61567C29.9326 8.61748 29.8633 8.60556 29.7982 8.58058C29.7332 8.55559 29.6738 8.51804 29.6233 8.47007C29.5728 8.4221 29.5323 8.36465 29.504 8.301C29.504 8.301 30.1 8.199 30.094 7.76C30.089 7.395 29.516 7.281 28.778 7.512C27.45 7.929 27.36 7.48 26.733 7.538C26.651 7.556 26.5652 7.54102 26.4941 7.49631C26.423 7.4516 26.3723 7.38073 26.353 7.299C26.3202 7.38229 26.3092 7.4726 26.3212 7.56133C26.3331 7.65006 26.3676 7.73424 26.4214 7.80584C26.4751 7.87744 26.5464 7.93408 26.6282 7.97034C26.7101 8.00661 26.7999 8.02129 26.889 8.013C26.8725 7.95592 26.8718 7.89544 26.887 7.838C27.853 8.281 29.188 7.491 29.62 7.623C29.895 7.707 29.714 8.201 29.295 8.045C28.876 7.889 28.63 7.938 27.775 8.22C27.1621 8.45607 26.4986 8.52945 25.849 8.433C25.7941 8.49182 25.7527 8.56191 25.7277 8.63837C25.7027 8.71483 25.6947 8.79583 25.7042 8.87572C25.7137 8.9556 25.7406 9.03245 25.7828 9.10089C25.8251 9.16933 25.8818 9.22773 25.949 9.272C26.446 9.697 27.693 9.025 27.98 8.733C28.268 8.441 28.706 8.412 28.723 8.516C28.739 8.621 28.267 8.574 28.139 8.73C28.046 8.844 28.157 8.95 28.304 9.063C28.451 9.176 28.366 9.359 28.19 9.413C28.014 9.467 27.755 9.063 27.665 9.038C27.575 9.013 27.209 9.234 27.509 9.618C27.808 10.002 28.464 9.626 28.678 9.498C28.892 9.37 29.006 9.213 28.895 9.142C28.8262 9.09685 28.7665 9.03919 28.719 8.972C29.039 9.022 29.002 8.679 29.002 8.679C29.0543 8.77478 29.1269 8.85803 29.2146 8.92296C29.3023 8.98789 29.4031 9.03295 29.51 9.055L29.519 8.85C29.826 9.284 30.323 8.917 30.323 8.917C30.319 9.047 30.487 9.101 30.52 9.217C30.552 9.335 30.294 9.351 30.08 9.355C29.867 9.359 29.978 9.639 29.978 9.639H30.589C30.782 9.639 30.975 9.393 31.003 9.364C31.033 9.334 30.958 9.109 30.958 9.109ZM25.018 8.477C25.338 8.683 25.689 8.001 25.689 8.001C25.5424 7.84743 25.3609 7.73149 25.16 7.663C25.105 7.719 24.668 8.25 25.018 8.477ZM29.738 15.135C29.477 15.033 29.378 14.816 29.178 14.775C28.808 14.697 28.718 15.297 28.723 15.435C28.723 15.435 29.526 16.011 29.756 15.957C29.8557 15.9217 29.944 15.8602 30.0116 15.7788C30.0792 15.6975 30.1235 15.5995 30.14 15.495C30.193 15.309 30.016 15.243 29.738 15.135Z"
		fill="#FFE15A"
	/>
	<path
		d="M23.609 12.254C23.5674 12.2366 23.5228 12.2276 23.4777 12.2276C23.4326 12.2276 23.3879 12.2365 23.3463 12.2539C23.3047 12.2713 23.267 12.2968 23.2354 12.3289C23.2037 12.3611 23.1788 12.3991 23.162 12.441C23.102 11.806 23.778 12.067 23.778 12.067L23.609 12.254ZM25.584 10.86C25.4884 10.9172 25.4154 11.0054 25.377 11.11C25.3525 11.0124 25.304 10.9225 25.2359 10.8484C25.1678 10.7744 25.0822 10.7185 24.987 10.686C25.205 10.593 25.502 10.512 25.523 10.491C25.523 10.491 25.053 10.515 24.976 10.515C24.8489 10.5772 24.7383 10.6686 24.6533 10.7817C24.5683 10.8949 24.5113 11.0266 24.487 11.166C24.4657 10.9904 24.3811 10.8286 24.249 10.711L24.255 10.709L24.242 10.706C24.2133 10.6837 24.1808 10.6667 24.146 10.656C23.9959 10.6131 23.8492 10.5593 23.707 10.495C23.7177 10.5461 23.74 10.5941 23.772 10.6353C23.8041 10.6766 23.8451 10.71 23.892 10.733C23.7885 10.784 23.7018 10.8635 23.642 10.9622C23.5823 11.0609 23.5521 11.1747 23.555 11.29L23.542 11.083C23.5389 11.0138 23.5162 10.9469 23.4765 10.89C23.4369 10.8332 23.3819 10.7888 23.318 10.762C23.2541 10.7352 23.1839 10.727 23.1156 10.7386C23.0472 10.7501 22.9836 10.7807 22.932 10.827C22.752 11.02 23.017 11.263 23.017 11.263C23.017 11.063 23.071 10.964 23.162 10.958C23.253 10.952 23.276 11.045 23.355 11.357L23.384 11.467C23.3299 11.4393 23.2707 11.423 23.21 11.419C22.86 11.398 23.047 11.949 23.047 11.949C23.099 11.575 23.277 11.572 23.453 11.681C23.4952 11.7846 23.5562 11.8796 23.633 11.961L23.681 11.943C23.6662 11.9072 23.6528 11.8709 23.641 11.834C23.6944 11.8877 23.7442 11.9448 23.79 12.005C23.754 11.9004 23.7046 11.8009 23.643 11.709C23.6004 11.5373 23.6166 11.3562 23.6892 11.1949C23.7617 11.0335 23.8863 10.9011 24.043 10.819L24.126 10.864C24.205 10.9259 24.2707 11.0032 24.319 11.0912C24.3673 11.1792 24.3972 11.2761 24.407 11.376C24.3958 11.3695 24.3841 11.3638 24.372 11.359C24.122 11.263 23.989 11.317 23.945 11.434C23.901 11.55 24.021 11.68 24.074 11.87C24.104 11.9937 24.1175 12.1208 24.114 12.248C24.2492 12.019 24.2897 11.7464 24.227 11.488C24.3533 11.5757 24.4613 11.6871 24.545 11.816C24.555 11.7589 24.5577 11.7008 24.553 11.643C24.5808 11.5644 24.633 11.4968 24.702 11.45C24.776 11.5023 24.8372 11.5706 24.8811 11.65C24.9249 11.7293 24.9502 11.8175 24.955 11.908C24.955 11.908 25.028 11.55 24.879 11.409C24.8094 11.3323 24.7124 11.2859 24.609 11.28C24.6384 11.077 24.7315 10.8886 24.875 10.742C24.9808 10.8014 25.0739 10.8811 25.1489 10.9765C25.2238 11.0719 25.2793 11.1811 25.312 11.298C25.2829 11.4089 25.2625 11.5219 25.251 11.636C25.1142 11.8193 25.0137 12.027 24.955 12.248C25.0032 12.279 25.0549 12.3041 25.109 12.323C25.109 12.323 25.194 12.058 25.299 12.064C25.404 12.07 25.529 12.242 25.532 12.351C25.532 12.351 25.689 12.027 25.502 11.902C25.452 11.8645 25.3923 11.8419 25.33 11.837L25.469 11.678C25.6223 11.7203 25.7571 11.8125 25.852 11.94C25.857 11.55 25.688 11.474 25.51 11.507C25.542 11.35 25.612 11.054 25.692 11.006C25.882 10.894 26.006 11.226 26.006 11.226C26.006 10.835 25.886 10.711 25.584 10.861V10.86ZM29.768 11.118C30.16 10.732 30.979 11.076 30.979 11.076C30.346 10.025 29.599 11.035 29.599 11.035L29.729 10.441L29.566 10.731C29.566 10.731 29.504 10.364 29.499 10.281C29.494 10.198 29.487 10.999 29.487 10.999C29.4099 10.8766 29.3009 10.7775 29.1717 10.7125C29.0425 10.6474 28.898 10.6189 28.7537 10.6299C28.6095 10.6409 28.471 10.6911 28.3532 10.775C28.2353 10.8588 28.1426 10.9733 28.085 11.106C28.938 10.625 29.353 11.236 29.353 11.236C28.265 10.969 28.293 11.972 28.327 11.937C28.932 11.296 29.33 11.415 29.33 11.415C28.433 11.908 28.792 12.502 28.792 12.502C28.91 11.985 29.314 11.646 29.459 11.658C29.722 11.68 30.104 12.466 30.104 12.466C30.1735 12.2614 30.1683 12.0388 30.0894 11.8377C30.0105 11.6366 29.863 11.4698 29.673 11.367C30.211 11.29 30.542 11.878 30.542 11.878C30.609 10.886 29.768 11.118 29.768 11.118ZM23.986 15.158C24.0025 15.1177 24.0103 15.0745 24.009 15.031C24.0221 15.0355 24.0354 15.0392 24.049 15.042L24.054 14.995C23.9967 14.9853 23.9422 14.9635 23.894 14.931C23.9234 14.9438 23.9565 14.9449 23.9868 14.9343C24.017 14.9236 24.0421 14.902 24.057 14.8736C24.0719 14.8452 24.0755 14.8123 24.0672 14.7814C24.0588 14.7504 24.039 14.7238 24.0119 14.7068C23.9847 14.6898 23.9521 14.6837 23.9206 14.6898C23.8892 14.6958 23.8611 14.7135 23.8422 14.7394C23.8232 14.7652 23.8147 14.7972 23.8184 14.8291C23.8221 14.8609 23.8377 14.8902 23.862 14.911C23.8405 14.8954 23.8198 14.8787 23.8 14.861C23.7954 14.8205 23.7766 14.783 23.747 14.755C23.7276 14.7363 23.7041 14.7225 23.6784 14.7147C23.6527 14.7069 23.6255 14.7053 23.599 14.71C23.5967 14.7372 23.6007 14.7645 23.6108 14.7898C23.6209 14.8152 23.6367 14.8378 23.657 14.856C23.6881 14.8845 23.7288 14.9003 23.771 14.9L23.799 14.923C23.7706 14.9196 23.7418 14.923 23.715 14.933C23.6892 14.9419 23.6659 14.9568 23.6469 14.9764C23.628 14.9961 23.614 15.0199 23.606 15.046C23.6286 15.0607 23.6544 15.0697 23.6812 15.0723C23.708 15.0749 23.735 15.071 23.76 15.061C23.7823 15.0528 23.8026 15.04 23.8197 15.0235C23.8367 15.007 23.8501 14.987 23.859 14.965C23.8927 14.9867 23.9285 15.0048 23.966 15.019L23.96 15.02C23.9605 15.0583 23.9551 15.0964 23.944 15.133C23.9233 15.1193 23.8998 15.1104 23.8753 15.107C23.8507 15.1035 23.8257 15.1056 23.802 15.113C23.7759 15.1202 23.7519 15.1335 23.7319 15.1517C23.712 15.17 23.6966 15.1927 23.687 15.218C23.706 15.2322 23.7277 15.2422 23.7508 15.2475C23.7739 15.2528 23.7979 15.2532 23.8211 15.2486C23.8444 15.2441 23.8664 15.2348 23.8859 15.2213C23.9053 15.2077 23.9217 15.1903 23.934 15.17C23.9252 15.1955 23.9152 15.2205 23.904 15.245C23.8673 15.2612 23.8376 15.2899 23.82 15.326C23.8076 15.3505 23.8011 15.3775 23.8009 15.4049C23.8007 15.4323 23.8069 15.4594 23.819 15.484C23.8455 15.4783 23.8702 15.4665 23.8912 15.4495C23.9122 15.4324 23.929 15.4107 23.94 15.386C23.9582 15.3476 23.9618 15.3038 23.95 15.263L23.963 15.229C23.9676 15.2579 23.9789 15.2853 23.996 15.309C24.0114 15.3312 24.0319 15.3494 24.0557 15.3621C24.0795 15.3747 24.106 15.3816 24.133 15.382C24.1403 15.3556 24.1414 15.3279 24.1362 15.301C24.131 15.2741 24.1197 15.2488 24.103 15.227C24.0893 15.2081 24.0718 15.1922 24.0517 15.1803C24.0316 15.1684 24.0092 15.1608 23.986 15.158ZM28.717 15.297C28.463 15.309 28.481 15.929 28.481 15.929C28.3604 16.0442 28.2902 16.2023 28.2857 16.3691C28.2812 16.5358 28.3428 16.6975 28.457 16.819C28.5824 16.8677 28.7179 16.8843 28.8513 16.8674C28.9847 16.8504 29.1118 16.8005 29.221 16.722C29.371 16.601 29.405 16.507 29.396 16.439C29.631 16.355 29.886 16.094 29.886 15.999C29.5619 15.67 29.1597 15.4285 28.717 15.297Z"
		fill="#5ABEA0"
	/>
	<path
		d="M24.028 12.5C24.078 12.7 24.049 12.744 24.001 12.781C23.953 12.818 23.874 12.779 23.844 12.597C23.8362 12.5249 23.8107 12.4558 23.7697 12.3959C23.7287 12.3361 23.6735 12.2873 23.609 12.254L23.657 12.095L23.633 11.961L23.6 11.899L23.654 11.793L23.79 12.005C23.8955 12.1561 23.9759 12.3232 24.028 12.5ZM24.4 11.563C24.4 11.718 24.342 12.354 24.33 12.485C24.3278 12.5078 24.3317 12.5307 24.3415 12.5514C24.3512 12.5721 24.3664 12.5898 24.3853 12.6026C24.4042 12.6154 24.4263 12.6228 24.4491 12.6241C24.472 12.6254 24.4947 12.6206 24.515 12.61C24.617 12.542 24.545 12.002 24.545 11.816C24.545 11.816 24.4 11.406 24.4 11.563ZM24.79 12.706C24.838 12.809 24.952 12.834 24.977 12.781C25.001 12.728 25.109 12.323 25.109 12.323L24.955 12.248L24.79 12.706ZM29.605 12.65C29.605 12.62 29.65 11.629 29.65 11.629L29.42 11.546V12.65C29.42 12.704 29.19 12.911 29.19 12.911H29.801C29.7287 12.8298 29.6632 12.7429 29.605 12.651V12.65ZM30.317 14.78C30.163 14.726 29.992 14.636 29.886 14.672C29.7283 14.7814 29.5837 14.9086 29.455 15.051L29.638 15.177C29.708 15.081 29.85 14.78 29.974 14.858C30.098 14.936 30.264 15.128 30.364 15.038C30.464 14.948 30.47 14.834 30.317 14.78ZM28.146 16.944C28.0843 17.1478 27.9966 17.3427 27.885 17.524C27.885 17.524 28.691 17.156 28.54 16.856C28.43 16.64 28.184 16.779 28.146 16.944Z"
		fill="#B46446"
	/>
	<path
		d="M26.995 18.572L26.948 18.557C26.14 18.2747 25.3707 17.892 24.658 17.418C24.0004 17.0618 23.443 16.5458 23.0372 15.9175C22.6314 15.2892 22.3902 14.5689 22.336 13.823V6.58L31.656 6.581L31.655 13.823C31.6009 14.5691 31.3599 15.2896 30.9541 15.9181C30.5483 16.5465 29.9908 17.0627 29.333 17.419C28.62 17.8928 27.8503 18.2751 27.042 18.557L26.995 18.572ZM22.643 6.893V13.823C22.643 16.633 26.523 18.078 26.995 18.243C27.467 18.078 31.348 16.631 31.348 13.823V6.893H22.643Z"
		fill="#464655"
	/>
	<path d="M18 12H0V0H18" fill="#41479B" />
	<path
		d="M18 1.133V0H16.3L10.55 3.833V0H7.449V3.833L1.698 0H0V1.133L4.933 4.42H0V7.58H4.933L0 10.867V12H1.699L7.449 8.167V12H10.552V8.167L16.302 12H18V10.867L13.067 7.58H18V4.421H13.067L18 1.133Z"
		fill="#F5F5F5"
	/>
	<path
		d="M18 6.947H9.93V12H8.069V6.947H0V5.053H8.069V0H9.93V5.053H18V6.947ZM0 12H0.738L7.43 7.579H6.29L0 11.736M18 11.425L12.178 7.579H11.038L17.735 12H18M0 0.664L5.688 4.421H6.828L0.12 0H0M17.245 0L10.552 4.421H11.692L18 0.253V0"
		fill="#FF4B55"
	/>
</svg>
