<svg viewBox="0 0 36 24" fill="none" xmlns="http://www.w3.org/2000/svg">
	<path d="M0 6.316H36V17.685H0V6.316Z" fill="#F5F5F5" />
	<path
		d="M22.092 10.387L18.152 12.024L18.147 12.012L21.952 10.073C21.8026 9.76908 21.6194 9.48295 21.406 9.22L18.126 11.98L18.117 11.968L21.124 8.904C20.9093 8.6859 20.6728 8.49053 20.418 8.321L18.09 11.948L18.074 11.937L19.976 8.062C19.6674 7.90495 19.3411 7.78544 19.004 7.706L18.037 11.924C18.0253 11.919 18.0127 11.9165 18 11.9165C17.9873 11.9165 17.9747 11.919 17.963 11.924L16.996 7.706C16.6589 7.78539 16.3326 7.90491 16.024 8.062L17.926 11.937L17.91 11.947L15.582 8.321C15.3273 8.49056 15.0907 8.68593 14.876 8.904L17.883 11.968L17.874 11.981L14.594 9.221C14.3806 9.48362 14.1975 9.76942 14.048 10.073L17.853 12.013L17.848 12.023L13.908 10.387C13.7879 10.6878 13.7004 11.0006 13.647 11.32L17.841 12.059L17.839 12.069L13.605 11.621C13.5627 12.0388 13.5781 12.4604 13.651 12.874L18 12.416L22.349 12.874C22.3951 12.6132 22.4185 12.3489 22.419 12.084C22.419 11.9273 22.411 11.773 22.395 11.621L18.161 12.07L18.159 12.059L22.353 11.319C22.2996 10.9999 22.2121 10.6874 22.092 10.387Z"
		fill="#FFB955"
	/>
	<path
		d="M22.27 13.239C22.24 13.355 22.2053 13.4693 22.166 13.582H13.834C13.7953 13.4693 13.7607 13.355 13.73 13.239C14.139 13.185 14.19 12.916 14.687 12.916C15.24 12.916 15.24 13.249 15.793 13.249C16.345 13.249 16.345 12.916 16.898 12.916C17.45 12.916 17.45 13.249 18.001 13.249C18.554 13.249 18.554 12.916 19.106 12.916C19.658 12.916 19.658 13.249 20.21 13.249C20.762 13.249 20.762 12.916 21.314 12.916C21.811 12.916 21.862 13.186 22.27 13.239ZM20.12 13.749C19.59 13.749 19.59 14.081 19.058 14.081C18.526 14.081 18.526 13.748 17.994 13.748C17.463 13.748 17.463 14.081 16.931 14.081C16.399 14.081 16.399 13.748 15.868 13.748C15.336 13.748 15.336 14.081 14.804 14.081C14.332 14.081 14.278 13.82 13.901 13.761C13.9899 13.9869 14.0969 14.2053 14.221 14.414H21.779C21.9032 14.2047 22.0102 13.9856 22.099 13.759C21.711 13.815 21.661 14.081 21.184 14.081C20.652 14.081 20.652 13.748 20.121 13.748L20.12 13.749ZM20.128 14.914C19.596 14.914 19.596 14.581 19.065 14.581C18.533 14.581 18.533 14.914 18.001 14.914C17.47 14.914 17.47 14.581 16.938 14.581C16.407 14.581 16.407 14.914 15.875 14.914C15.342 14.914 15.342 14.581 14.81 14.581C14.6651 14.5767 14.5217 14.6104 14.394 14.679C14.5343 14.8808 14.6908 15.0707 14.862 15.247H21.139C21.3099 15.0707 21.466 14.8807 21.606 14.679C21.4786 14.6106 21.3355 14.5768 21.191 14.581C20.66 14.581 20.66 14.914 20.128 14.914ZM19.058 15.746C18.526 15.746 18.526 15.413 17.994 15.413C17.463 15.413 17.463 15.746 16.931 15.746C16.399 15.746 16.399 15.413 15.868 15.413C15.6523 15.4136 15.4429 15.4861 15.273 15.619C15.4925 15.7944 15.7282 15.9484 15.977 16.079H20.023C20.2702 15.9494 20.5046 15.7968 20.723 15.623C20.5513 15.488 20.3394 15.4141 20.121 15.413C19.589 15.413 19.589 15.746 19.058 15.746ZM16.55 16.33C17.0157 16.4949 17.506 16.5791 18 16.579C17.47 16.579 17.47 16.246 16.938 16.246C16.8038 16.2423 16.6707 16.2711 16.55 16.33ZM18.004 16.579C18.4974 16.5786 18.9871 16.494 19.452 16.329C19.3315 16.2707 19.1988 16.2422 19.065 16.246C18.534 16.246 18.533 16.578 18.004 16.579Z"
		fill="#4173CD"
	/>
	<path
		d="M0 17.685H36V24H0V17.685ZM0 0V6.316H36V0H0ZM18.535 7.508C18.5441 7.5034 18.5514 7.4959 18.5558 7.4867C18.5601 7.4775 18.5613 7.4671 18.5592 7.45715C18.557 7.4472 18.5516 7.43825 18.5438 7.4317C18.5359 7.42516 18.5262 7.4214 18.516 7.421H18C17.7602 7.40531 17.5237 7.48343 17.3405 7.63886C17.1573 7.7943 17.0416 8.01488 17.018 8.254C17.018 8.539 17.041 10.396 17.048 10.924C17.0484 10.964 17.0615 11.0027 17.0854 11.0348C17.1093 11.0668 17.1428 11.0903 17.181 11.102L18.581 11.514C18.6089 11.5219 18.6382 11.5233 18.6666 11.5179C18.6951 11.5125 18.7219 11.5005 18.7449 11.483C18.7679 11.4654 18.7865 11.4427 18.7992 11.4166C18.8119 11.3906 18.8183 11.362 18.818 11.333V9.217C18.8184 9.1808 18.8072 9.14541 18.7862 9.11594C18.7652 9.08647 18.7354 9.06443 18.701 9.053C18.5145 9.01101 18.3462 8.91093 18.2202 8.76717C18.0942 8.6234 18.0171 8.44338 18 8.253C18.0022 8.08898 18.0546 7.92958 18.1503 7.79634C18.246 7.66311 18.3803 7.56246 18.535 7.508ZM15.743 9.586H15.511C15.4938 9.586 15.4769 9.58939 15.461 9.59599C15.4452 9.60259 15.4308 9.61225 15.4187 9.62443C15.4066 9.63661 15.3971 9.65106 15.3906 9.66694C15.3841 9.68283 15.3809 9.69984 15.381 9.717V13.249C15.381 13.749 15.545 14.414 16.364 14.414C16.962 14.414 17.298 13.79 17.435 13.455C17.44 13.443 17.4411 13.4297 17.4381 13.417C17.4351 13.4043 17.4281 13.3929 17.4183 13.3844C17.4084 13.3759 17.3962 13.3707 17.3832 13.3695C17.3702 13.3684 17.3572 13.3713 17.346 13.378C16.803 13.712 15.873 13.533 15.873 13.082V9.717C15.8731 9.69984 15.8699 9.68283 15.8634 9.66694C15.8569 9.65106 15.8474 9.63661 15.8353 9.62443C15.8232 9.61225 15.8088 9.60259 15.793 9.59599C15.7771 9.58939 15.7602 9.586 15.743 9.586ZM18.496 13.456C18.633 13.79 18.969 14.414 19.568 14.414C20.386 14.414 20.55 13.748 20.55 13.249V9.717C20.5501 9.69984 20.5469 9.68283 20.5404 9.66694C20.5339 9.65106 20.5244 9.63661 20.5123 9.62443C20.5002 9.61225 20.4858 9.60259 20.47 9.59599C20.4541 9.58939 20.4372 9.586 20.42 9.586H20.188C20.1708 9.586 20.1539 9.58939 20.138 9.59599C20.1222 9.60259 20.1078 9.61225 20.0957 9.62443C20.0836 9.63661 20.0741 9.65106 20.0676 9.66694C20.0611 9.68283 20.0579 9.69984 20.058 9.717V13.082C20.058 13.532 19.128 13.712 18.585 13.378C18.5738 13.3713 18.5608 13.3684 18.5478 13.3695C18.5348 13.3707 18.5226 13.3759 18.5127 13.3844C18.5029 13.3929 18.4959 13.4043 18.4929 13.417C18.4899 13.4297 18.491 13.443 18.496 13.455V13.456Z"
		fill="#FF4B55"
	/>
	<path
		d="M19.8 12.746V12.752C19.8 12.773 19.7917 12.7932 19.7769 12.8082C19.7621 12.8232 19.742 12.8317 19.721 12.832H16.279C16.258 12.8317 16.2379 12.8232 16.2231 12.8082C16.2083 12.7932 16.2 12.773 16.2 12.752V12.746C16.2 12.725 16.2083 12.7048 16.2231 12.6898C16.2379 12.6748 16.258 12.6663 16.279 12.666H19.721C19.742 12.6663 19.7621 12.6748 19.7769 12.6898C19.7917 12.7048 19.8 12.725 19.8 12.746ZM16.297 12.544L16.445 12.343L16.594 12.544C16.6014 12.5544 16.6111 12.5629 16.6224 12.5688C16.6337 12.5747 16.6463 12.5778 16.659 12.578C16.6771 12.5782 16.6947 12.5722 16.709 12.561C16.7264 12.5474 16.7377 12.5275 16.7405 12.5056C16.7433 12.4837 16.7374 12.4616 16.724 12.444L16.548 12.204L16.725 11.964C16.7383 11.9463 16.744 11.9241 16.741 11.9022C16.738 11.8803 16.7265 11.8605 16.709 11.847C16.7004 11.8404 16.6906 11.8356 16.6801 11.8329C16.6696 11.8302 16.6586 11.8296 16.6479 11.8312C16.6372 11.8328 16.6269 11.8365 16.6176 11.8421C16.6084 11.8478 16.6003 11.8552 16.594 11.864L16.525 11.957V11.893C16.525 11.8713 16.5164 11.8504 16.501 11.835C16.4856 11.8196 16.4647 11.811 16.443 11.811C16.4213 11.811 16.4004 11.8196 16.385 11.835C16.3696 11.8504 16.361 11.8713 16.361 11.893V11.951L16.297 11.864C16.2908 11.8551 16.2828 11.8475 16.2735 11.8418C16.2643 11.8361 16.2539 11.8323 16.2432 11.8307C16.2324 11.8291 16.2214 11.8298 16.2109 11.8326C16.2004 11.8354 16.1906 11.8403 16.182 11.847C16.1645 11.8605 16.153 11.8803 16.15 11.9022C16.147 11.9241 16.1527 11.9463 16.166 11.964L16.343 12.204L16.166 12.444C16.1527 12.4617 16.147 12.4839 16.15 12.5058C16.153 12.5277 16.1645 12.5475 16.182 12.561C16.1906 12.5677 16.2004 12.5726 16.2109 12.5754C16.2214 12.5782 16.2324 12.5789 16.2432 12.5773C16.2539 12.5757 16.2643 12.5719 16.2735 12.5662C16.2828 12.5605 16.2908 12.5529 16.297 12.544ZM17.87 12.204L17.693 12.444C17.6798 12.4618 17.6742 12.4841 17.6774 12.506C17.6806 12.5279 17.6923 12.5477 17.71 12.561C17.7185 12.5676 17.7283 12.5723 17.7387 12.5751C17.7491 12.5778 17.76 12.5783 17.7706 12.5767C17.7813 12.5752 17.7915 12.5714 17.8006 12.5658C17.8098 12.5602 17.8178 12.5528 17.824 12.544L17.972 12.343L18.121 12.544C18.1284 12.5544 18.1381 12.5629 18.1494 12.5688C18.1607 12.5747 18.1733 12.5778 18.186 12.578C18.2041 12.5782 18.2217 12.5722 18.236 12.561C18.2535 12.5475 18.265 12.5277 18.268 12.5058C18.271 12.4839 18.2653 12.4617 18.252 12.444L18.075 12.204L18.252 11.964C18.2653 11.9463 18.271 11.9241 18.268 11.9022C18.265 11.8803 18.2535 11.8605 18.236 11.847C18.2274 11.8404 18.2176 11.8356 18.2071 11.8329C18.1966 11.8302 18.1856 11.8296 18.1749 11.8312C18.1642 11.8328 18.1539 11.8365 18.1446 11.8421C18.1354 11.8478 18.1273 11.8552 18.121 11.864L18.052 11.957V11.893C18.0533 11.8815 18.0521 11.8699 18.0486 11.859C18.0451 11.848 18.0393 11.8379 18.0316 11.8293C18.0239 11.8207 18.0145 11.8138 18.004 11.8091C17.9934 11.8044 17.982 11.802 17.9705 11.802C17.959 11.802 17.9476 11.8044 17.937 11.8091C17.9265 11.8138 17.9171 11.8207 17.9094 11.8293C17.9017 11.8379 17.8959 11.848 17.8924 11.859C17.8889 11.8699 17.8877 11.8815 17.889 11.893V11.951L17.824 11.864C17.8178 11.8552 17.8098 11.8478 17.8006 11.8422C17.7915 11.8366 17.7813 11.8328 17.7706 11.8313C17.76 11.8297 17.7491 11.8302 17.7387 11.8329C17.7283 11.8357 17.7185 11.8404 17.71 11.847C17.6923 11.8603 17.6806 11.8801 17.6774 11.902C17.6742 11.9239 17.6798 11.9462 17.693 11.964L17.87 12.204ZM17.107 12.204L16.93 12.444C16.9167 12.4617 16.911 12.4839 16.914 12.5058C16.917 12.5277 16.9285 12.5475 16.946 12.561C16.9545 12.5676 16.9643 12.5723 16.9747 12.5751C16.9851 12.5778 16.996 12.5783 17.0066 12.5767C17.0173 12.5752 17.0275 12.5714 17.0366 12.5658C17.0458 12.5602 17.0538 12.5528 17.06 12.544L17.209 12.343L17.357 12.544C17.3645 12.5545 17.3744 12.5631 17.3859 12.569C17.3974 12.5749 17.4101 12.578 17.423 12.578C17.4408 12.5779 17.458 12.572 17.472 12.561C17.4895 12.5475 17.501 12.5277 17.504 12.5058C17.507 12.4839 17.5013 12.4617 17.488 12.444L17.311 12.204L17.489 11.964C17.5022 11.9462 17.5078 11.9239 17.5046 11.902C17.5014 11.8801 17.4897 11.8603 17.472 11.847C17.4634 11.8406 17.4537 11.8359 17.4433 11.8333C17.4329 11.8306 17.4221 11.8301 17.4114 11.8317C17.4008 11.8333 17.3907 11.8369 17.3815 11.8425C17.3723 11.848 17.3643 11.8553 17.358 11.864L17.288 11.957V11.893C17.2893 11.8815 17.2881 11.8699 17.2846 11.859C17.2811 11.848 17.2753 11.8379 17.2676 11.8293C17.2599 11.8207 17.2505 11.8138 17.24 11.8091C17.2294 11.8044 17.218 11.802 17.2065 11.802C17.195 11.802 17.1836 11.8044 17.173 11.8091C17.1625 11.8138 17.1531 11.8207 17.1454 11.8293C17.1377 11.8379 17.1319 11.848 17.1284 11.859C17.1249 11.8699 17.1237 11.8815 17.125 11.893V11.951L17.06 11.864C17.0538 11.8552 17.0458 11.8478 17.0366 11.8422C17.0275 11.8366 17.0173 11.8328 17.0066 11.8313C16.996 11.8297 16.9851 11.8302 16.9747 11.8329C16.9643 11.8357 16.9545 11.8404 16.946 11.847C16.9285 11.8605 16.917 11.8803 16.914 11.9022C16.911 11.9241 16.9167 11.9463 16.93 11.964L17.107 12.204ZM18.634 12.204L18.457 12.444C18.4437 12.4617 18.438 12.4839 18.441 12.5058C18.444 12.5277 18.4555 12.5475 18.473 12.561C18.4816 12.5677 18.4914 12.5726 18.5019 12.5754C18.5124 12.5782 18.5234 12.5789 18.5342 12.5773C18.5449 12.5757 18.5553 12.5719 18.5645 12.5662C18.5738 12.5605 18.5818 12.5529 18.588 12.544L18.736 12.343L18.885 12.544C18.8924 12.5544 18.9021 12.5629 18.9134 12.5688C18.9247 12.5747 18.9373 12.5778 18.95 12.578C18.9678 12.5779 18.985 12.572 18.999 12.561C19.0165 12.5475 19.028 12.5277 19.031 12.5058C19.034 12.4839 19.0283 12.4617 19.015 12.444L18.839 12.204L19.016 11.964C19.0292 11.9462 19.0348 11.9239 19.0316 11.902C19.0284 11.8801 19.0167 11.8603 18.999 11.847C18.9904 11.8406 18.9807 11.8359 18.9703 11.8333C18.9599 11.8306 18.9491 11.8301 18.9384 11.8317C18.9278 11.8333 18.9177 11.8369 18.9085 11.8425C18.8993 11.848 18.8913 11.8553 18.885 11.864L18.815 11.957V11.893C18.8163 11.8815 18.8151 11.8699 18.8116 11.859C18.8081 11.848 18.8023 11.8379 18.7946 11.8293C18.7869 11.8207 18.7775 11.8138 18.767 11.8091C18.7564 11.8044 18.745 11.802 18.7335 11.802C18.722 11.802 18.7106 11.8044 18.7 11.8091C18.6895 11.8138 18.6801 11.8207 18.6724 11.8293C18.6647 11.8379 18.6589 11.848 18.6554 11.859C18.6519 11.8699 18.6507 11.8815 18.652 11.893V11.951L18.588 11.864C18.5818 11.8551 18.5738 11.8475 18.5645 11.8418C18.5553 11.8361 18.5449 11.8323 18.5342 11.8307C18.5234 11.8291 18.5124 11.8298 18.5019 11.8326C18.4914 11.8354 18.4816 11.8403 18.473 11.847C18.4555 11.8605 18.444 11.8803 18.441 11.9022C18.438 11.9241 18.4437 11.9463 18.457 11.964L18.634 12.204ZM19.398 12.204L19.22 12.444C19.2068 12.4618 19.2012 12.4841 19.2044 12.506C19.2076 12.5279 19.2193 12.5477 19.237 12.561C19.2455 12.5676 19.2553 12.5723 19.2657 12.5751C19.2761 12.5778 19.287 12.5783 19.2976 12.5767C19.3083 12.5752 19.3185 12.5714 19.3276 12.5658C19.3368 12.5602 19.3448 12.5528 19.351 12.544L19.5 12.343L19.648 12.544C19.6555 12.5545 19.6654 12.5631 19.6769 12.569C19.6884 12.5749 19.7011 12.578 19.714 12.578C19.7318 12.5779 19.749 12.572 19.763 12.561C19.7805 12.5475 19.792 12.5277 19.795 12.5058C19.798 12.4839 19.7923 12.4617 19.779 12.444L19.602 12.204L19.779 11.964C19.7923 11.9463 19.798 11.9241 19.795 11.9022C19.792 11.8803 19.7805 11.8605 19.763 11.847C19.7544 11.8404 19.7446 11.8356 19.7341 11.8329C19.7236 11.8302 19.7126 11.8296 19.7019 11.8312C19.6912 11.8328 19.6809 11.8365 19.6716 11.8421C19.6624 11.8478 19.6543 11.8552 19.648 11.864L19.579 11.957V11.893C19.5803 11.8815 19.5791 11.8699 19.5756 11.859C19.5721 11.848 19.5663 11.8379 19.5586 11.8293C19.5509 11.8207 19.5415 11.8138 19.531 11.8091C19.5204 11.8044 19.509 11.802 19.4975 11.802C19.486 11.802 19.4746 11.8044 19.464 11.8091C19.4535 11.8138 19.4441 11.8207 19.4364 11.8293C19.4287 11.8379 19.4229 11.848 19.4194 11.859C19.4159 11.8699 19.4147 11.8815 19.416 11.893V11.951L19.351 11.864C19.3448 11.8552 19.3368 11.8478 19.3276 11.8422C19.3185 11.8366 19.3083 11.8328 19.2976 11.8313C19.287 11.8297 19.2761 11.8302 19.2657 11.8329C19.2553 11.8357 19.2455 11.8404 19.237 11.847C19.2193 11.8603 19.2076 11.8801 19.2044 11.902C19.2012 11.9239 19.2068 11.9462 19.22 11.964L19.398 12.204ZM16.691 12.947L16.397 13.347C16.7396 13.4223 17.0978 13.376 17.41 13.216C17.591 13.024 17.554 12.939 17.554 12.939L16.691 12.947ZM18.411 12.939C18.411 12.939 18.374 13.024 18.555 13.216C18.8676 13.3759 19.2262 13.4219 19.569 13.346L19.274 12.946L18.411 12.939Z"
		fill="#AA4650"
	/>
</svg>
