<svg viewBox="0 0 36 24" fill="none" xmlns="http://www.w3.org/2000/svg">
	<path d="M0 24V0H36V24" fill="#41479B" />
	<path
		d="M18 5.684C16.8836 6.34319 15.9421 7.26104 15.2547 8.36023C14.5672 9.45942 14.1541 10.7077 14.05 12C14.154 13.2923 14.5671 14.5406 15.2545 15.6398C15.942 16.739 16.8836 17.6569 18 18.316C19.1164 17.6568 20.0579 16.739 20.7453 15.6398C21.4328 14.5406 21.8459 13.2923 21.95 12C21.846 10.7077 21.4329 9.45937 20.7455 8.36016C20.058 7.26096 19.1164 6.34312 18 5.684Z"
		fill="#3CC8FF"
	/>
	<path
		d="M18.51 9.837C18.7766 9.6856 19.0728 9.59356 19.3783 9.56715C19.6838 9.54074 19.9913 9.5806 20.28 9.684C20.0647 9.4543 19.7723 9.31202 19.4586 9.28434C19.145 9.25667 18.8322 9.34556 18.58 9.534C18.855 9.15011 19.2369 8.85556 19.678 8.687C19.678 8.687 18.818 8.36 18.297 9.527C18.3959 9.1389 18.3666 8.7292 18.2134 8.35915C18.0602 7.9891 17.7913 7.67858 17.447 7.474C17.7445 8.13483 17.9375 8.83789 18.019 9.558C17.9895 9.36544 17.9019 9.18647 17.768 9.045C17.533 8.75775 17.2083 8.55773 16.846 8.477C17.246 8.93386 17.5885 9.43793 17.866 9.978C17.7398 9.81126 17.5756 9.67714 17.387 9.58685C17.1984 9.49656 16.991 9.45272 16.782 9.459C15.495 9.503 15.216 10.289 15.216 10.289C15.8657 10.0461 16.5605 9.9482 17.252 10.002C16.405 10.154 16.104 11.228 16.104 11.228C16.302 10.9454 16.5577 10.708 16.8542 10.5315C17.1506 10.355 17.4812 10.2434 17.824 10.204C17.6561 10.3745 17.5243 10.5772 17.4367 10.7999C17.349 11.0226 17.3073 11.2608 17.314 11.5C17.5021 11.0246 17.7931 10.5967 18.166 10.247C18.547 10.664 18.7958 11.1846 18.881 11.743C18.9804 11.5156 19.0069 11.2631 18.957 11.02C18.8977 10.6478 18.6971 10.3129 18.397 10.085C19.1099 10.2066 19.7647 10.5548 20.264 11.078C20.1507 10.7058 19.9167 10.3819 19.5989 10.1573C19.2812 9.93282 18.8977 9.82047 18.509 9.838L18.51 9.837Z"
		fill="#73AF00"
	/>
	<path
		d="M16.739 13.526L17.308 12.526L21.983 12.421L21.672 13.737L16.739 13.526Z"
		fill="#FF965A"
	/>
	<path
		d="M14.22 13.263C14.7654 15.3794 16.1237 17.1952 18 18.316C19.8763 17.1952 21.2346 15.3794 21.78 13.263H14.22Z"
		fill="#4173CD"
	/>
	<path
		d="M17.11 15.917C16.714 16.182 16.138 16.638 16.138 17.053L14.897 15.158C15.6297 15.1201 16.3634 15.2122 17.064 15.43C17.1101 15.4496 17.1501 15.4813 17.1798 15.5217C17.2094 15.5622 17.2275 15.6099 17.2322 15.6598C17.2369 15.7097 17.2281 15.7599 17.2065 15.8052C17.185 15.8505 17.1517 15.8891 17.11 15.917ZM18.271 15.355C18.679 15.691 19.125 16.204 18.311 16.526C17.681 16.776 17.224 17.158 17.276 17.684L18 18.316L19.758 16.842L21.052 14.79C18.414 14.842 17.785 14.955 18.271 15.355Z"
		fill="#FFE15A"
	/>
	<path
		d="M36 0H0V24H36M34.758 22.737H1.241V1.263H34.758V22.737ZM17.855 18.595L18 18.673L18.144 18.595C19.3074 17.9049 20.2883 16.9459 21.0045 15.7983C21.7207 14.6508 22.1512 13.3483 22.26 12C22.1512 10.6517 21.7207 9.34918 21.0045 8.20166C20.2883 7.05414 19.3074 6.0951 18.144 5.405L18 5.327L17.855 5.405C16.6918 6.09522 15.7111 7.05431 14.9951 8.20182C14.2791 9.34933 13.8487 10.6518 13.74 12C13.8488 13.3482 14.2792 14.6506 14.9952 15.7981C15.7112 16.9456 16.6919 17.9047 17.855 18.595ZM18 6.044C19.0289 6.68444 19.8939 7.55651 20.5259 8.59062C21.1579 9.62473 21.5394 10.7922 21.64 12C21.5394 13.2078 21.1579 14.3753 20.5259 15.4094C19.8939 16.4435 19.0289 17.3156 18 17.956C16.9711 17.3156 16.1061 16.4435 15.4741 15.4094C14.8422 14.3753 14.4606 13.2078 14.36 12C14.4606 10.7922 14.8422 9.62473 15.4741 8.59062C16.1061 7.55651 16.9711 6.68444 18 6.044Z"
		fill="#FF4B55"
	/>
	<path
		d="M19.45 15.531C19.4363 15.5535 19.4171 15.5721 19.3942 15.5851C19.3712 15.598 19.3453 15.6049 19.319 15.605C19.2896 15.6052 19.2608 15.5969 19.236 15.581C18.8236 15.3203 18.485 14.9582 18.2527 14.5292C18.0203 14.1002 17.902 13.6188 17.909 13.131V10.54C17.8411 10.5052 17.7868 10.4486 17.755 10.3792C17.7232 10.3099 17.7156 10.2318 17.7335 10.1577C17.7514 10.0835 17.7937 10.0175 17.8536 9.97027C17.9136 9.92306 17.9877 9.89739 18.064 9.89739C18.1403 9.89739 18.2144 9.92306 18.2743 9.97027C18.3343 10.0175 18.3766 10.0835 18.3945 10.1577C18.4124 10.2318 18.4048 10.3099 18.373 10.3792C18.3412 10.4486 18.2869 10.5052 18.219 10.54V13.133C18.2131 13.5673 18.3187 13.9958 18.5256 14.3776C18.7326 14.7594 19.034 15.0818 19.401 15.314C19.4362 15.3366 19.4611 15.3721 19.4704 15.4128C19.4798 15.4536 19.4728 15.4963 19.451 15.532L19.45 15.531Z"
		fill="#A54B37"
	/>
</svg>
