<svg viewBox="0 0 36 24" fill="none" xmlns="http://www.w3.org/2000/svg">
	<path d="M36 24H0V0H36" fill="#FF4B55" />
	<path
		d="M20.49 12.504L22.964 12L20.488 11.496L22.586 10.066L20.109 10.565L21.51 8.427L19.41 9.853L19.9 7.332L18.494 9.467L18 6.947L17.505 9.467L16.1 7.332L16.59 9.852L14.489 8.427L15.889 10.565L13.413 10.067L15.511 11.497L13.035 12L15.511 12.504L13.413 13.934L15.89 13.435L14.489 15.573L16.589 14.148L16.099 16.668L17.505 14.533L18 17.053L18.495 14.533L19.9 16.668L19.41 14.148L21.511 15.573L20.111 13.435L22.587 13.934L20.49 12.504Z"
		fill="#FFD25A"
	/>
	<path
		d="M21.478 12.199C21.3247 12.0673 21.1507 11.9619 20.963 11.887C21.6582 11.7007 22.2899 11.3296 22.791 10.813C22.5587 10.9347 22.3005 10.9984 22.0382 10.9987C21.776 10.9991 21.5176 10.9361 21.285 10.815C21.0936 10.7532 20.8931 10.7238 20.692 10.728C21.2645 10.2847 21.7082 9.69636 21.977 9.024C21.8093 9.22615 21.5955 9.38507 21.3537 9.4874C21.1118 9.58972 20.8488 9.63245 20.587 9.612C20.3867 9.62949 20.1907 9.68018 20.007 9.762C20.3685 9.13086 20.5565 8.41531 20.552 7.688C20.357 8.198 20.226 8.394 19.489 8.773C19.31 8.86747 19.1479 8.99079 19.009 9.138C19.1069 8.41617 19.012 7.6813 18.734 7.008C18.7557 7.27247 18.7151 7.53834 18.6154 7.78426C18.5157 8.03017 18.3597 8.24929 18.16 8.424C18.0298 8.58114 17.9261 8.75847 17.853 8.949C17.6732 8.24614 17.309 7.60403 16.798 7.089C16.9174 7.32644 16.9798 7.58848 16.9801 7.85426C16.9805 8.12005 16.9188 8.38225 16.8 8.62C16.739 8.81539 16.7099 9.01935 16.714 9.224C16.2838 8.64524 15.705 8.19363 15.039 7.917C15.2395 8.09086 15.3964 8.3094 15.497 8.55501C15.5975 8.80062 15.639 9.06643 15.618 9.331C15.635 9.53429 15.6846 9.73351 15.765 9.921C15.1486 9.55369 14.4435 9.36178 13.726 9.366C14.227 9.566 14.42 9.698 14.792 10.448C14.8846 10.6292 15.0062 10.794 15.152 10.936C14.4414 10.8369 13.7173 10.9341 13.058 11.217C13.3199 11.1956 13.583 11.2374 13.8253 11.3391C14.0676 11.4407 14.2818 11.5992 14.45 11.801C14.6033 11.9327 14.7773 12.0381 14.965 12.113C14.2702 12.2994 13.6388 12.6706 13.138 13.187C13.3702 13.0655 13.6282 13.0019 13.8903 13.0015C14.1523 13.0012 14.4105 13.0641 14.643 13.185C14.8344 13.2468 15.0349 13.2762 15.236 13.272C14.6635 13.7153 14.2198 14.3036 13.951 14.976C14.1187 14.7738 14.3325 14.6149 14.5743 14.5126C14.8162 14.4103 15.0792 14.3675 15.341 14.388C15.5413 14.3705 15.7373 14.3198 15.921 14.238C15.5595 14.8691 15.3715 15.5847 15.376 16.312C15.571 15.802 15.702 15.606 16.439 15.227C16.618 15.1325 16.7801 15.0092 16.919 14.862C16.8214 15.5839 16.9166 16.3188 17.195 16.992C17.1733 16.7275 17.2139 16.4617 17.3136 16.2157C17.4133 15.9698 17.5693 15.7507 17.769 15.576C17.8989 15.4188 18.0022 15.2415 18.075 15.051C18.2551 15.754 18.6197 16.3961 19.131 16.911C19.0114 16.6736 18.9489 16.4116 18.9484 16.1459C18.9478 15.8801 19.0093 15.6178 19.128 15.38C19.189 15.1846 19.2181 14.9807 19.214 14.776C19.6442 15.3548 20.223 15.8064 20.889 16.083C20.6887 15.909 20.532 15.6905 20.4316 15.4449C20.3312 15.1992 20.2899 14.9335 20.311 14.669C20.2937 14.4657 20.2437 14.2664 20.163 14.079C20.7794 14.4463 21.4845 14.6382 22.202 14.634C21.701 14.434 21.508 14.302 21.136 13.552C21.0434 13.3708 20.9218 13.206 20.776 13.064C21.4866 13.1631 22.2107 13.0659 22.87 12.783C22.6081 12.8045 22.3449 12.7627 22.1027 12.661C21.8604 12.5594 21.6461 12.4009 21.478 12.199ZM18 9.474C18.5016 9.46526 18.9945 9.60604 19.4158 9.87839C19.8371 10.1507 20.1679 10.5423 20.3659 11.0033C20.5639 11.4643 20.6202 11.9738 20.5276 12.4668C20.4351 12.9599 20.1978 13.4143 19.8461 13.7721C19.4944 14.1299 19.0442 14.3749 18.5528 14.4759C18.0614 14.5769 17.551 14.5293 17.0867 14.3393C16.6224 14.1492 16.2252 13.8253 15.9456 13.4087C15.6661 12.9921 15.5169 12.5017 15.517 12C15.5114 11.3358 15.7698 10.6966 16.2355 10.2229C16.7011 9.74918 17.3358 9.47981 18 9.474ZM19.292 3.354C20.9261 3.36379 22.5209 2.85275 23.845 1.895C23.628 1.98 20.243 2.269 19.275 2.354C18.5424 2.58252 17.8966 3.0282 17.423 3.632C17.3668 3.42854 17.2541 3.24515 17.098 3.10305C16.942 2.96095 16.7488 2.86593 16.541 2.829C15.065 2.72297 13.599 2.50737 12.155 2.184C12.155 2.184 12.585 2.861 14.811 3.168C15.5182 3.2267 16.1918 3.49555 16.745 3.94L16.491 3.932L16.057 3.711C15.9122 3.65536 15.755 3.64021 15.6023 3.66717C15.4495 3.69412 15.307 3.76217 15.19 3.864H14.5C14.4805 3.86445 14.4614 3.87024 14.445 3.88074C14.4285 3.89124 14.4152 3.90606 14.4065 3.92357C14.3979 3.94109 14.3942 3.96064 14.3959 3.98011C14.3975 3.99957 14.4045 4.01821 14.416 4.034L14.482 4.124C14.515 4.1693 14.5581 4.20621 14.608 4.23175C14.6578 4.25729 14.713 4.27073 14.769 4.271H15.474C15.7214 4.5538 16.0264 4.78042 16.3686 4.93564C16.7108 5.09087 17.0822 5.17112 17.458 5.171C18.6215 4.88945 19.7636 4.52622 20.876 4.084L18.704 4.009L19.292 3.354Z"
		fill="#FFE15A"
	/>
	<path
		d="M3.592 20.21C1.795 20.21 1.792 19.581 0 19.58V17.684C1.791 17.686 1.795 18.316 3.592 18.316C5.392 18.316 5.392 17.684 7.19 17.684C8.991 17.684 8.991 18.316 10.792 18.316C12.594 18.316 12.594 17.684 14.396 17.684C16.198 17.684 16.198 18.316 18 18.316C19.798 18.316 19.798 17.684 21.596 17.684C23.395 17.684 23.395 18.316 25.194 18.316C26.994 18.316 26.994 17.684 28.793 17.684C30.592 17.684 30.593 18.316 32.393 18.316C34.192 18.316 34.192 17.684 35.992 17.684H36V19.579H35.992C34.192 19.579 34.192 20.21 32.392 20.21C30.592 20.21 30.592 19.579 28.792 19.579C26.992 19.579 26.993 20.21 25.194 20.21C23.394 20.21 23.394 19.579 21.596 19.579C19.798 19.579 19.798 20.21 18 20.21C16.198 20.21 16.198 19.579 14.396 19.579C12.594 19.579 12.594 20.21 10.792 20.21C8.992 20.21 8.992 19.579 7.19 19.579C5.391 19.579 5.391 20.21 3.592 20.21ZM7.19 15.79C8.991 15.79 8.991 16.421 10.792 16.421C12.594 16.421 12.594 15.789 14.396 15.789C16.198 15.789 16.198 16.421 18 16.421C19.798 16.421 19.798 15.789 21.596 15.789C23.395 15.789 23.395 16.421 25.194 16.421C26.994 16.421 26.994 15.789 28.793 15.789C30.592 15.789 30.593 16.421 32.393 16.421C34.192 16.421 34.192 15.789 35.992 15.789H36V13.895H35.992C34.192 13.895 34.192 14.526 32.392 14.526C30.592 14.526 30.592 13.895 28.792 13.895C26.992 13.895 26.993 14.526 25.194 14.526C23.394 14.526 23.394 13.895 21.596 13.895C19.798 13.895 19.798 14.526 18 14.526C16.198 14.526 16.198 13.895 14.396 13.895C12.594 13.895 12.594 14.526 10.792 14.526C8.992 14.526 8.992 13.895 7.19 13.895C5.391 13.895 5.391 14.526 3.592 14.526C1.795 14.526 1.792 13.896 0 13.895V15.79C1.792 15.792 1.795 16.421 3.592 16.421C5.392 16.421 5.392 15.789 7.19 15.789V15.79ZM36 21.473H35.992C34.192 21.473 34.192 22.104 32.392 22.104C30.592 22.104 30.592 21.473 28.792 21.473C26.992 21.473 26.993 22.104 25.194 22.104C23.394 22.104 23.394 21.473 21.596 21.473C19.798 21.473 19.798 22.104 18 22.104C16.198 22.104 16.198 21.473 14.396 21.473C12.594 21.473 12.594 22.104 10.792 22.104C8.992 22.104 8.992 21.473 7.191 21.473C5.391 21.473 5.391 22.104 3.592 22.104C1.795 22.104 1.792 21.474 0 21.473L0 24H36V21.473Z"
		fill="#41479B"
	/>
	<path
		d="M35.992 19.579H36V21.474H35.992C34.192 21.474 34.192 22.104 32.392 22.104C30.592 22.104 30.592 21.474 28.792 21.474C26.992 21.474 26.993 22.104 25.194 22.104C23.394 22.104 23.394 21.474 21.596 21.474C19.798 21.474 19.798 22.104 18 22.104C16.198 22.104 16.198 21.474 14.396 21.474C12.594 21.474 12.594 22.104 10.792 22.104C8.992 22.104 8.992 21.474 7.191 21.474C5.391 21.474 5.391 22.104 3.592 22.104C1.795 22.104 1.792 21.475 0 21.474L0 19.58C1.792 19.582 1.795 20.21 3.592 20.21C5.391 20.21 5.391 19.579 7.19 19.579C8.99 19.579 8.991 20.21 10.792 20.21C12.594 20.21 12.594 19.579 14.396 19.579C16.198 19.579 16.198 20.21 18 20.21C19.798 20.21 19.798 19.579 21.596 19.579C23.395 19.579 23.395 20.21 25.194 20.21C26.993 20.21 26.992 19.579 28.792 19.579C30.591 19.579 30.593 20.21 32.393 20.21C34.192 20.21 34.192 19.579 35.992 19.579ZM32.392 16.421C30.592 16.421 30.593 15.789 28.793 15.789C26.994 15.789 26.994 16.421 25.194 16.421C23.394 16.421 23.394 15.789 21.596 15.789C19.798 15.789 19.798 16.421 18 16.421C16.198 16.421 16.198 15.789 14.396 15.789C12.594 15.789 12.594 16.421 10.792 16.421C8.992 16.421 8.991 15.789 7.19 15.789C5.39 15.789 5.391 16.421 3.592 16.421C1.795 16.421 1.792 15.791 0 15.79L0 17.684C1.792 17.686 1.795 18.316 3.592 18.316C5.392 18.316 5.391 17.684 7.19 17.684C8.99 17.684 8.991 18.316 10.792 18.316C12.594 18.316 12.594 17.684 14.396 17.684C16.198 17.684 16.198 18.316 18 18.316C19.798 18.316 19.798 17.684 21.596 17.684C23.395 17.684 23.395 18.316 25.194 18.316C26.994 18.316 26.994 17.684 28.793 17.684C30.592 17.684 30.593 18.316 32.393 18.316C34.192 18.316 34.192 17.684 35.992 17.684H36V15.79H35.992C34.192 15.79 34.192 16.421 32.392 16.421ZM35.992 12C34.192 12 34.192 12.632 32.392 12.632C30.592 12.632 30.592 12 28.792 12C26.992 12 26.993 12.632 25.194 12.632C23.394 12.632 23.394 12 21.596 12C19.798 12 19.798 12.632 18 12.632C16.198 12.632 16.198 12 14.396 12C12.594 12 12.594 12.632 10.792 12.632C8.992 12.632 8.992 12 7.191 12C5.391 12 5.391 12.632 3.592 12.632C1.795 12.632 1.792 12.002 0 12V13.895C1.792 13.897 1.795 14.526 3.592 14.526C5.391 14.526 5.391 13.895 7.19 13.895C8.99 13.895 8.991 14.526 10.792 14.526C12.594 14.526 12.594 13.895 14.396 13.895C16.198 13.895 16.198 14.526 18 14.526C19.798 14.526 19.798 13.895 21.596 13.895C23.395 13.895 23.395 14.526 25.194 14.526C26.993 14.526 26.992 13.895 28.792 13.895C30.591 13.895 30.593 14.526 32.393 14.526C34.192 14.526 34.192 13.895 35.992 13.895H36V12H35.992Z"
		fill="#F5F5F5"
	/>
</svg>
