<svg viewBox="0 0 36 24" fill="none" xmlns="http://www.w3.org/2000/svg">
	<path d="M36 24H0V0H36" fill="#82AFFF" />
	<path
		d="M20.122 5.085L18.906 5.998L19.362 7.464C19.3674 7.48125 19.3673 7.49976 19.3618 7.51696C19.3562 7.53416 19.3454 7.54919 19.3309 7.55997C19.3164 7.57075 19.2988 7.57674 19.2808 7.5771C19.2627 7.57747 19.2449 7.57219 19.23 7.562L18 6.668L16.77 7.562C16.7551 7.57219 16.7373 7.57747 16.7192 7.5771C16.7012 7.57674 16.6836 7.57075 16.6691 7.55997C16.6546 7.54919 16.6438 7.53416 16.6382 7.51696C16.6327 7.49976 16.6326 7.48125 16.638 7.464L17.094 5.998L15.878 5.085C15.8632 5.07414 15.8521 5.0589 15.8464 5.04143C15.8406 5.02396 15.8405 5.00512 15.846 4.98758C15.8515 4.97004 15.8624 4.95466 15.8771 4.94361C15.8918 4.93257 15.9096 4.92641 15.928 4.926L17.44 4.914L17.918 3.455C17.9235 3.43757 17.9344 3.42235 17.9492 3.41155C17.9639 3.40075 17.9817 3.39492 18 3.39492C18.0183 3.39492 18.0361 3.40075 18.0508 3.41155C18.0656 3.42235 18.0765 3.43757 18.082 3.455L18.56 4.915L20.071 4.926C20.0894 4.92641 20.1072 4.93257 20.1219 4.94361C20.1366 4.95466 20.1475 4.97004 20.153 4.98758C20.1585 5.00512 20.1584 5.02396 20.1526 5.04143C20.1469 5.0589 20.1368 5.07414 20.122 5.085ZM20.072 17.952L18.56 17.94L18.082 16.481C18.0765 16.4636 18.0656 16.4484 18.0508 16.4375C18.0361 16.4267 18.0183 16.4209 18 16.4209C17.9817 16.4209 17.9639 16.4267 17.9492 16.4375C17.9344 16.4484 17.9235 16.4636 17.918 16.481L17.44 17.94L15.929 17.952C15.9109 17.9527 15.8934 17.9589 15.879 17.9699C15.8645 17.9809 15.8538 17.9961 15.8484 18.0134C15.8429 18.0307 15.8429 18.0493 15.8484 18.0666C15.8539 18.0838 15.8646 18.099 15.879 18.11L17.094 19.024L16.638 20.49C16.6326 20.5072 16.6327 20.5258 16.6382 20.543C16.6438 20.5602 16.6546 20.5752 16.6691 20.586C16.6836 20.5968 16.7012 20.6027 16.7192 20.6031C16.7373 20.6035 16.7551 20.5982 16.77 20.588L18 19.694L19.23 20.588C19.2449 20.5982 19.2627 20.6035 19.2808 20.6031C19.2988 20.6027 19.3164 20.5968 19.3309 20.586C19.3454 20.5752 19.3562 20.5602 19.3618 20.543C19.3673 20.5258 19.3674 20.5072 19.362 20.49L18.906 19.024L20.122 18.11C20.1364 18.099 20.1471 18.0838 20.1526 18.0666C20.1581 18.0493 20.1581 18.0307 20.1526 18.0134C20.1472 17.9961 20.1365 17.9809 20.122 17.9699C20.1076 17.9589 20.0901 17.9527 20.072 17.952ZM26.397 11.917L24.964 11.43L24.952 9.892C24.9522 9.87369 24.9466 9.85578 24.9359 9.84089C24.9253 9.826 24.9101 9.8149 24.8927 9.80921C24.8753 9.80352 24.8566 9.80353 24.8392 9.80925C24.8218 9.81497 24.8066 9.82609 24.796 9.841L23.898 11.078L22.458 10.614C22.4404 10.6081 22.4213 10.608 22.4036 10.6137C22.386 10.6194 22.3706 10.6306 22.3597 10.6457C22.3489 10.6608 22.3431 10.679 22.3434 10.6976C22.3436 10.7162 22.3498 10.7342 22.361 10.749L23.241 12L22.361 13.251C22.35 13.2658 22.3439 13.2836 22.3437 13.302C22.3435 13.3205 22.3491 13.3385 22.3598 13.3535C22.3705 13.3685 22.3856 13.3797 22.4031 13.3856C22.4206 13.3914 22.4394 13.3916 22.457 13.386L23.898 12.922L24.796 14.159C24.8066 14.1739 24.8218 14.185 24.8392 14.1907C24.8566 14.1965 24.8753 14.1965 24.8927 14.1908C24.9101 14.1851 24.9253 14.174 24.9359 14.1591C24.9466 14.1442 24.9522 14.1263 24.952 14.108L24.964 12.57L26.397 12.083C26.4142 12.0769 26.4291 12.0657 26.4396 12.0508C26.4501 12.036 26.4558 12.0182 26.4558 12C26.4558 11.9818 26.4501 11.964 26.4396 11.9492C26.4291 11.9343 26.4142 11.9231 26.397 11.917ZM13.543 10.614L12.102 11.078L11.204 9.841C11.1934 9.82609 11.1782 9.81497 11.1608 9.80925C11.1434 9.80353 11.1247 9.80352 11.1073 9.80921C11.0899 9.8149 11.0747 9.826 11.0641 9.84089C11.0534 9.85578 11.0478 9.87369 11.048 9.892L11.036 11.43L9.602 11.917C9.58482 11.9231 9.56994 11.9343 9.55942 11.9492C9.54889 11.964 9.54324 11.9818 9.54324 12C9.54324 12.0182 9.54889 12.036 9.55942 12.0508C9.56994 12.0657 9.58482 12.0769 9.602 12.083L11.036 12.57L11.048 14.108C11.0478 14.1263 11.0534 14.1442 11.0641 14.1591C11.0747 14.174 11.0899 14.1851 11.1073 14.1908C11.1247 14.1965 11.1434 14.1965 11.1608 14.1907C11.1782 14.185 11.1934 14.1739 11.204 14.159L12.102 12.922L13.542 13.386C13.5596 13.3919 13.5787 13.392 13.5964 13.3863C13.614 13.3806 13.6294 13.3694 13.6403 13.3543C13.6511 13.3392 13.6569 13.321 13.6566 13.3024C13.6564 13.2838 13.6502 13.2658 13.639 13.251L12.759 12L13.639 10.749C13.65 10.7342 13.6561 10.7164 13.6563 10.698C13.6565 10.6795 13.6509 10.6615 13.6402 10.6465C13.6295 10.6315 13.6144 10.6203 13.5969 10.6144C13.5794 10.6086 13.5606 10.6084 13.543 10.614Z"
		fill="#F5F5F5"
	/>
</svg>
