<svg viewBox="0 0 36 24" fill="none" xmlns="http://www.w3.org/2000/svg">
	<path d="M36 24H0V0H36" fill="#41479B" />
	<path d="M0 10.736H36V13.262H0V10.736Z" fill="#FFE15A" />
	<path
		d="M8.379 15.789L8.741 17.259L9.776 16.17L9.367 17.627L10.798 17.21L9.728 18.264L11.172 18.632L9.728 18.999L10.798 20.053L9.367 19.636L9.776 21.093L8.741 20.004L8.379 21.474L8.018 20.004L6.983 21.093L7.392 19.636L5.96 20.053L7.03 18.999L5.586 18.632L7.03 18.264L5.96 17.21L7.392 17.627L6.983 16.17L8.018 17.259L8.379 15.789Z"
		fill="#F5F5F5"
	/>
</svg>
