<svg viewBox="0 0 36 24" fill="none" xmlns="http://www.w3.org/2000/svg">
	<path d="M36 24H0V0H36" fill="#41479B" />
	<path
		d="M18 7.579V4.421H13.067L18 1.133V0H16.301L10.552 3.833V0H7.448V3.833L1.699 0H0V1.133L4.933 4.421H0V7.579H4.933L0 10.867V12H1.699L7.448 8.167V12H10.552V8.167L16.301 12H18V10.867L13.067 7.579H18Z"
		fill="#F5F5F5"
	/>
	<path
		d="M18 6.947H9.931V12H8.069V6.947H0V5.053H8.069V0H9.931V5.053H18V6.947ZM6.828 4.421L0.126 0.001L0 0V0.664L5.688 4.421H6.828ZM18 0.264V0H17.245L10.552 4.421H11.692L18 0.264ZM0 11.74V12H0.738L7.43 7.579H6.29L0 11.74ZM12.178 7.58H11.038L17.638 12.001H18V11.425L12.178 7.58ZM28.306 18.208L27.404 18.201L27.118 17.329C27.1099 17.304 27.0942 17.2823 27.073 17.2669C27.0518 17.2514 27.0262 17.2431 27 17.2431C26.9738 17.2431 26.9482 17.2514 26.927 17.2669C26.9058 17.2823 26.8901 17.304 26.882 17.329L26.597 18.201L25.694 18.208C25.6676 18.2083 25.6419 18.217 25.6207 18.2328C25.5995 18.2486 25.5838 18.2707 25.576 18.296C25.5682 18.3211 25.5683 18.3481 25.5764 18.3731C25.5844 18.3982 25.6 18.4201 25.621 18.436L26.347 18.982L26.075 19.858C26.0673 19.8831 26.0676 19.91 26.0756 19.935C26.0836 19.9601 26.0991 19.982 26.12 19.998C26.1411 20.0136 26.1667 20.022 26.193 20.022C26.2188 20.0219 26.2439 20.0139 26.265 19.999L27 19.465L27.735 19.999C27.7561 20.0144 27.7814 20.0226 27.8075 20.0226C27.8336 20.0226 27.8589 20.0144 27.88 19.999C27.9014 19.9832 27.9173 19.9611 27.9255 19.9358C27.9337 19.9106 27.9339 19.8834 27.926 19.858L27.653 18.982L28.379 18.437C28.4002 18.4211 28.4159 18.3989 28.4239 18.3737C28.432 18.3484 28.432 18.3213 28.424 18.296C28.4162 18.2707 28.4005 18.2486 28.3793 18.2328C28.3581 18.217 28.3324 18.2083 28.306 18.208ZM28.306 8.025L27.404 8.019L27.118 7.147C27.1099 7.12204 27.0942 7.10029 27.073 7.08485C27.0518 7.06942 27.0262 7.06111 27 7.06111C26.9738 7.06111 26.9482 7.06942 26.927 7.08485C26.9058 7.10029 26.8901 7.12204 26.882 7.147L26.597 8.019L25.694 8.025C25.6676 8.0253 25.6419 8.03398 25.6207 8.04979C25.5995 8.0656 25.5838 8.08773 25.576 8.113C25.5682 8.13813 25.5683 8.16506 25.5764 8.19011C25.5844 8.21516 25.6 8.23712 25.621 8.253L26.347 8.799L26.075 9.675C26.0673 9.70014 26.0676 9.72702 26.0756 9.75204C26.0836 9.77706 26.0991 9.79903 26.12 9.815C26.141 9.83095 26.1666 9.83971 26.193 9.84C26.2189 9.83966 26.2441 9.83127 26.265 9.816L27 9.281L27.735 9.815C27.7561 9.83036 27.7814 9.83864 27.8075 9.83864C27.8336 9.83864 27.8589 9.83036 27.88 9.815C27.9012 9.79925 27.9169 9.77734 27.9252 9.75228C27.9334 9.72722 27.9337 9.70023 27.926 9.675L27.653 8.798L28.379 8.253C28.4002 8.23705 28.4159 8.21492 28.4239 8.18966C28.432 8.16441 28.432 8.13727 28.424 8.112C28.4162 8.08673 28.4005 8.0646 28.3793 8.04879C28.3581 8.03298 28.3324 8.0253 28.306 8.025ZM32.769 11.271C32.7612 11.2457 32.7455 11.2236 32.7243 11.2078C32.7031 11.192 32.6775 11.1833 32.651 11.183L31.748 11.176L31.463 10.305C31.4549 10.28 31.4392 10.2583 31.418 10.2429C31.3968 10.2274 31.3712 10.2191 31.345 10.2191C31.3188 10.2191 31.2932 10.2274 31.272 10.2429C31.2508 10.2583 31.2351 10.28 31.227 10.305L30.942 11.176L30.039 11.183C30.0126 11.1833 29.9869 11.192 29.9657 11.2078C29.9445 11.2236 29.9288 11.2457 29.921 11.271C29.9132 11.2961 29.9133 11.3231 29.9214 11.3481C29.9294 11.3732 29.945 11.3951 29.966 11.411L30.692 11.957L30.42 12.833C30.4123 12.8581 30.4126 12.885 30.4206 12.91C30.4286 12.9351 30.4441 12.957 30.465 12.973C30.4859 12.9885 30.5113 12.997 30.5373 12.9971C30.5634 12.9973 30.5888 12.9892 30.61 12.974L31.345 12.44L32.079 12.974C32.1001 12.9896 32.1257 12.998 32.152 12.998C32.1783 12.998 32.2039 12.9896 32.225 12.974C32.2462 12.9581 32.2619 12.9359 32.2699 12.9107C32.278 12.8854 32.278 12.8583 32.27 12.833L31.998 11.957L32.724 11.411C32.745 11.3951 32.7606 11.3732 32.7686 11.3481C32.7767 11.3231 32.7768 11.2961 32.769 11.271ZM23.962 12.446L23.059 12.44L22.773 11.568C22.7649 11.543 22.7492 11.5213 22.728 11.5059C22.7068 11.4904 22.6812 11.4821 22.655 11.4821C22.6288 11.4821 22.6032 11.4904 22.582 11.5059C22.5608 11.5213 22.5451 11.543 22.537 11.568L22.252 12.44L21.349 12.446C21.3227 12.4465 21.2973 12.4553 21.2763 12.4711C21.2553 12.4869 21.2398 12.5089 21.232 12.534C21.2241 12.559 21.2241 12.5859 21.2319 12.6109C21.2398 12.636 21.2552 12.658 21.276 12.674L22.002 13.22L21.73 14.096C21.7223 14.1211 21.7226 14.148 21.7306 14.173C21.7386 14.1981 21.7541 14.22 21.775 14.236C21.796 14.2519 21.8216 14.2607 21.848 14.261C21.8742 14.2609 21.8998 14.2525 21.921 14.237L22.655 13.703L23.39 14.237C23.4111 14.2524 23.4364 14.2606 23.4625 14.2606C23.4886 14.2606 23.5139 14.2524 23.535 14.237C23.5562 14.2212 23.5719 14.1993 23.5802 14.1743C23.5884 14.1492 23.5887 14.1222 23.581 14.097L23.308 13.22L24.034 12.674C24.055 12.6581 24.0706 12.6362 24.0786 12.6111C24.0867 12.5861 24.0868 12.5591 24.079 12.534C24.0712 12.5089 24.0557 12.4869 24.0347 12.4711C24.0137 12.4553 23.9883 12.4465 23.962 12.446Z"
		fill="#FF4B55"
	/>
	<path
		d="M28.307 18.08L27.493 18.074L27.236 17.288C27.2204 17.2376 27.1891 17.1935 27.1466 17.1621C27.1042 17.1308 27.0528 17.1139 27 17.1139C26.9472 17.1139 26.8958 17.1308 26.8534 17.1621C26.8109 17.1935 26.7796 17.2376 26.764 17.288L26.507 18.074L25.693 18.081C25.6407 18.0817 25.5899 18.0989 25.5479 18.1302C25.5059 18.1614 25.4748 18.2051 25.459 18.255C25.4426 18.3053 25.4422 18.3595 25.458 18.41C25.4738 18.4606 25.5049 18.5049 25.547 18.537L26.202 19.029L25.957 19.819C25.9413 19.8693 25.9415 19.9231 25.9576 19.9733C25.9737 20.0234 26.0049 20.0673 26.047 20.099C26.0889 20.13 26.1397 20.1468 26.1918 20.147C26.244 20.1472 26.2949 20.1307 26.337 20.1L27 19.62L27.662 20.101C27.704 20.1319 27.7548 20.1485 27.807 20.1485C27.8592 20.1485 27.91 20.1319 27.952 20.101C27.9945 20.0694 28.026 20.0254 28.0423 19.975C28.0586 19.9247 28.0589 19.8705 28.043 19.82L27.798 19.03L28.453 18.538C28.4951 18.5059 28.5262 18.4616 28.542 18.411C28.5578 18.3605 28.5574 18.3063 28.541 18.256C28.5252 18.2061 28.4941 18.1624 28.4521 18.1312C28.4101 18.0999 28.3593 18.0827 28.307 18.082V18.08ZM27.507 18.933L27.807 19.895L27 19.308L26.193 19.895L26.493 18.933L25.695 18.333L26.686 18.326L27 17.368L27.314 18.326L28.305 18.333L27.507 18.933ZM28.307 7.898L27.493 7.892L27.236 7.106C27.2204 7.05557 27.1891 7.01146 27.1466 6.98013C27.1042 6.9488 27.0528 6.93189 27 6.93189C26.9472 6.93189 26.8958 6.9488 26.8534 6.98013C26.8109 7.01146 26.7796 7.05557 26.764 7.106L26.507 7.892L25.693 7.898C25.6405 7.89879 25.5897 7.91614 25.5476 7.94757C25.5056 7.97899 25.4746 8.02289 25.459 8.073C25.4428 8.12319 25.4426 8.17716 25.4583 8.22749C25.4741 8.27781 25.5051 8.32201 25.547 8.354L26.202 8.846L25.957 9.636C25.9413 9.68625 25.9415 9.74015 25.9576 9.79028C25.9737 9.84042 26.0049 9.88433 26.047 9.916C26.0888 9.94716 26.1395 9.96416 26.1917 9.96452C26.2438 9.96488 26.2947 9.94858 26.337 9.918L27 9.436L27.662 9.918C27.7042 9.94873 27.755 9.9652 27.8072 9.96502C27.8593 9.96484 27.9101 9.94801 27.952 9.917C27.9943 9.88546 28.0257 9.8416 28.042 9.79146C28.0583 9.74132 28.0586 9.68735 28.043 9.637L27.798 8.847L28.453 8.354C28.4949 8.32201 28.5259 8.27781 28.5417 8.22749C28.5574 8.17716 28.5572 8.12319 28.541 8.073C28.5254 8.02289 28.4944 7.97899 28.4524 7.94757C28.4103 7.91614 28.3595 7.89879 28.307 7.898ZM27.507 8.75L27.807 9.712L27 9.125L26.193 9.712L26.493 8.75L25.695 8.15L26.686 8.143L27 7.186L27.314 8.143L28.305 8.151L27.507 8.75ZM32.887 11.23C32.8712 11.1799 32.8399 11.1361 32.7977 11.1049C32.7555 11.0736 32.7045 11.0565 32.652 11.056L31.838 11.05L31.58 10.264C31.5639 10.2143 31.5325 10.171 31.4903 10.1403C31.4481 10.1096 31.3972 10.0931 31.345 10.0931C31.2928 10.0931 31.2419 10.1096 31.1997 10.1403C31.1575 10.171 31.1261 10.2143 31.11 10.264L30.852 11.05L30.038 11.056C29.9854 11.0566 29.9343 11.0738 29.892 11.1053C29.8498 11.1367 29.8186 11.1807 29.803 11.231C29.7869 11.2813 29.7868 11.3353 29.8028 11.3857C29.8187 11.436 29.8499 11.4801 29.892 11.512L30.547 12.004L30.301 12.794C30.2854 12.8444 30.2857 12.8983 30.302 12.9485C30.3183 12.9986 30.3497 13.0425 30.392 13.074C30.4338 13.1052 30.4845 13.1222 30.5367 13.1225C30.5888 13.1229 30.6397 13.1066 30.682 13.076L31.345 12.594L32.007 13.076C32.0491 13.1067 32.1 13.1232 32.1522 13.123C32.2043 13.1228 32.2551 13.106 32.297 13.075C32.3395 13.0434 32.371 12.9994 32.3873 12.949C32.4036 12.8987 32.4039 12.8445 32.388 12.794L32.143 12.004L32.798 11.512C32.8399 11.48 32.8709 11.4358 32.8867 11.3855C32.9024 11.3352 32.9022 11.2812 32.886 11.231L32.887 11.23ZM31.852 11.908L32.152 12.87L31.345 12.283L30.538 12.87L30.838 11.908L30.039 11.308L31.031 11.301L31.345 10.344L31.658 11.301L32.65 11.309L31.852 11.908ZM23.962 12.319L23.148 12.313L22.891 11.527C22.8754 11.4766 22.8441 11.4325 22.8016 11.4011C22.7592 11.3698 22.7078 11.3529 22.655 11.3529C22.6022 11.3529 22.5508 11.3698 22.5084 11.4011C22.4659 11.4325 22.4346 11.4766 22.419 11.527L22.162 12.313L21.348 12.319C21.2955 12.3198 21.2447 12.3371 21.2026 12.3686C21.1606 12.4 21.1296 12.4439 21.114 12.494C21.0978 12.5442 21.0976 12.5982 21.1133 12.6485C21.1291 12.6988 21.1601 12.743 21.202 12.775L21.857 13.267L21.612 14.057C21.5963 14.1073 21.5965 14.1611 21.6126 14.2113C21.6287 14.2614 21.6599 14.3053 21.702 14.337C21.7438 14.3682 21.7945 14.3852 21.8467 14.3855C21.8988 14.3859 21.9497 14.3696 21.992 14.339L22.655 13.857L23.317 14.339C23.3591 14.3697 23.41 14.3862 23.4622 14.386C23.5143 14.3858 23.5651 14.369 23.607 14.338C23.6493 14.3065 23.6807 14.2626 23.697 14.2125C23.7133 14.1623 23.7136 14.1084 23.698 14.058L23.453 13.268L24.108 12.775C24.1499 12.743 24.1809 12.6988 24.1967 12.6485C24.2124 12.5982 24.2122 12.5442 24.196 12.494C24.1804 12.4439 24.1494 12.4 24.1074 12.3686C24.0653 12.3371 24.0145 12.3198 23.962 12.319ZM23.162 13.171L23.462 14.133L22.655 13.546L21.848 14.133L22.148 13.171L21.35 12.571L22.341 12.564L22.655 11.607L22.969 12.564L23.96 12.572L23.162 13.171Z"
		fill="#F5F5F5"
	/>
</svg>
