<svg viewBox="0 0 36 24" fill="none" xmlns="http://www.w3.org/2000/svg">
	<path d="M36 24H0V0H36" fill="#FFE15A" />
	<path
		d="M18 12H0.01C0.00734783 12 0.0048043 11.9989 0.00292893 11.9971C0.00105357 11.9952 0 11.9927 0 11.99V0H18V12Z"
		fill="#41479B"
	/>
	<path
		d="M18 0H16.3L10.55 3.833V0H7.449V3.833L1.698 0H0V1.133L4.933 4.42H0V7.58H4.933L0 10.867V12H1.699L7.449 8.167V12H10.552V8.167L16.302 12H18V10.867L13.067 7.58H18V4.421H13.067L18 1.133V0Z"
		fill="#F5F5F5"
	/>
	<path
		d="M18 5.053H9.931V0H8.069V5.053H0V6.947H8.069V12H9.931V6.947H18V5.053Z"
		fill="#FF4B55"
	/>
	<path
		d="M0 0V0.664L5.688 4.421H6.828L0.167 0M18 0H17.245L10.552 4.421H11.692L18 0.251M0.738 12L7.43 7.579H6.29L0 11.73V12M18 11.432L12.178 7.579H11.038L17.718 12H18"
		fill="#FF4B55"
	/>
	<path
		d="M9 4.105C9.37613 4.09845 9.7457 4.204 10.0616 4.4082C10.3776 4.6124 10.6256 4.90602 10.7741 5.25166C10.9226 5.59729 10.9649 5.97931 10.8955 6.34905C10.8262 6.71879 10.6483 7.05953 10.3847 7.32786C10.121 7.59619 9.78347 7.77998 9.415 7.85581C9.04654 7.93164 8.66384 7.89609 8.31564 7.75369C7.96745 7.61128 7.66952 7.36846 7.4598 7.05615C7.25008 6.74385 7.13806 6.37619 7.138 6C7.13374 5.50182 7.32749 5.02235 7.67666 4.66699C8.02583 4.31163 8.50183 4.10949 9 4.105Z"
		fill="#41479B"
	/>
	<path
		d="M10.498 5.664L9.707 6.258L10.003 7.212C10.0117 7.23855 10.0117 7.26716 10.0032 7.29376C9.99473 7.32036 9.97806 7.34361 9.9556 7.36021C9.93313 7.37681 9.90601 7.38591 9.87809 7.38623C9.85016 7.38656 9.82284 7.37808 9.8 7.362L9 6.782L8.2 7.364C8.17716 7.38008 8.14984 7.38856 8.12191 7.38823C8.09399 7.38791 8.06687 7.37881 8.0444 7.36221C8.02194 7.34561 8.00527 7.32236 7.99677 7.29576C7.98826 7.26916 7.98834 7.24055 7.997 7.214L8.293 6.259L7.503 5.665C7.48058 5.64821 7.46394 5.62487 7.45538 5.5982C7.44682 5.57153 7.44677 5.54286 7.45523 5.51616C7.46369 5.48946 7.48025 5.46606 7.5026 5.44919C7.52496 5.43231 7.552 5.42281 7.58 5.422L8.563 5.414L8.874 4.464C8.88239 4.43714 8.89913 4.41367 8.9218 4.397C8.94447 4.38033 8.97187 4.37134 9 4.37134C9.02813 4.37134 9.05553 4.38033 9.0782 4.397C9.10087 4.41367 9.11761 4.43714 9.126 4.464L9.436 5.414L10.42 5.422C10.4481 5.42262 10.4753 5.43197 10.4978 5.44877C10.5203 5.46557 10.537 5.48897 10.5456 5.51571C10.5542 5.54245 10.5542 5.5712 10.5457 5.59796C10.5371 5.62472 10.5205 5.64716 10.498 5.664ZM4.668 5.751L4.14 5.747L3.973 5.237C3.96894 5.22221 3.96013 5.20917 3.94794 5.19987C3.93574 5.19058 3.92083 5.18554 3.9055 5.18554C3.89017 5.18554 3.87526 5.19058 3.86306 5.19987C3.85087 5.20917 3.84206 5.22221 3.838 5.237L3.671 5.747L3.141 5.751C3.1261 5.75185 3.11182 5.75725 3.10008 5.76647C3.08834 5.77569 3.07971 5.78829 3.07535 5.80256C3.071 5.81684 3.07112 5.83211 3.0757 5.84631C3.08029 5.86051 3.08912 5.87297 3.101 5.882L3.525 6.202L3.365 6.715C3.36066 6.72931 3.36089 6.74462 3.36565 6.75879C3.37041 6.77297 3.37946 6.78531 3.39156 6.79411C3.40365 6.8029 3.41818 6.80771 3.43314 6.80787C3.44809 6.80803 3.46272 6.80353 3.475 6.795L3.905 6.483L4.335 6.796C4.34735 6.80471 4.36212 6.80931 4.37723 6.80916C4.39234 6.809 4.40702 6.8041 4.41919 6.79514C4.43135 6.78618 4.44039 6.77362 4.44503 6.75923C4.44966 6.74485 4.44965 6.72938 4.445 6.715L4.285 6.202L4.71 5.882C4.72156 5.87281 4.73005 5.86033 4.73437 5.84621C4.73869 5.83209 4.73862 5.81699 4.73418 5.80291C4.72974 5.78883 4.72113 5.77642 4.7095 5.76733C4.69786 5.75824 4.68374 5.7529 4.669 5.752L4.668 5.751ZM14.905 5.751L14.376 5.747L14.209 5.237C14.2049 5.22221 14.1961 5.20917 14.1839 5.19987C14.1717 5.19058 14.1568 5.18554 14.1415 5.18554C14.1262 5.18554 14.1113 5.19058 14.0991 5.19987C14.0869 5.20917 14.0781 5.22221 14.074 5.237L13.907 5.747L13.378 5.751C13.363 5.75166 13.3486 5.75693 13.3367 5.76608C13.3248 5.77522 13.316 5.78781 13.3116 5.80212C13.3071 5.81644 13.3071 5.83178 13.3117 5.84608C13.3162 5.86037 13.3251 5.87291 13.337 5.882L13.762 6.202L13.602 6.715C13.5977 6.72931 13.5979 6.74462 13.6026 6.75879C13.6074 6.77297 13.6165 6.78531 13.6286 6.79411C13.6407 6.8029 13.6552 6.80771 13.6701 6.80787C13.6851 6.80803 13.6997 6.80353 13.712 6.795L14.142 6.483L14.572 6.796C14.5844 6.80432 14.599 6.8086 14.6139 6.80826C14.6288 6.80791 14.6432 6.80296 14.6552 6.79407C14.6671 6.78518 14.676 6.7728 14.6807 6.75864C14.6853 6.74448 14.6854 6.72923 14.681 6.715L14.521 6.202L14.947 5.882C14.9586 5.87275 14.9671 5.86018 14.9714 5.84598C14.9757 5.83177 14.9755 5.81659 14.971 5.80247C14.9664 5.78835 14.9576 5.77596 14.9459 5.76694C14.9341 5.75792 14.9198 5.75171 14.905 5.751ZM8.628 2.369L8.468 2.882C8.46335 2.89638 8.46334 2.91185 8.46797 2.92623C8.47261 2.94062 8.48165 2.95318 8.49381 2.96214C8.50598 2.9711 8.52066 2.976 8.53577 2.97616C8.55088 2.97631 8.56565 2.97171 8.578 2.963L9.008 2.65L9.438 2.963C9.45028 2.97153 9.46491 2.97603 9.47986 2.97587C9.49482 2.97572 9.50935 2.9709 9.52144 2.96211C9.53354 2.95331 9.54259 2.94097 9.54735 2.92679C9.55211 2.91262 9.55234 2.89731 9.548 2.883L9.388 2.369L9.813 2.049C9.8246 2.03975 9.83311 2.02718 9.83739 2.01298C9.84167 1.99877 9.84152 1.98359 9.83696 1.96947C9.8324 1.95535 9.82364 1.94296 9.81186 1.93394C9.80007 1.92492 9.78582 1.91971 9.771 1.919L9.243 1.915L9.075 1.405C9.07065 1.39062 9.06178 1.37802 9.04972 1.36906C9.03765 1.36011 9.02303 1.35527 9.008 1.35527C8.99297 1.35527 8.97835 1.36011 8.96628 1.36906C8.95422 1.37802 8.94535 1.39062 8.941 1.405L8.773 1.915L8.245 1.919C8.23018 1.91971 8.21593 1.92492 8.20414 1.93394C8.19236 1.94296 8.1836 1.95535 8.17904 1.96947C8.17448 1.98359 8.17432 1.99877 8.17861 2.01298C8.18289 2.02718 8.1914 2.03975 8.203 2.049L8.628 2.369ZM9.771 9.676L9.243 9.672L9.075 9.162C9.07065 9.14762 9.06178 9.13502 9.04972 9.12606C9.03765 9.11711 9.02303 9.11227 9.008 9.11227C8.99297 9.11227 8.97835 9.11711 8.96628 9.12606C8.95422 9.13502 8.94535 9.14762 8.941 9.162L8.773 9.672L8.245 9.676C8.23018 9.67671 8.21593 9.68192 8.20414 9.69094C8.19236 9.69996 8.1836 9.71235 8.17904 9.72647C8.17448 9.74059 8.17432 9.75577 8.17861 9.76998C8.18289 9.78418 8.1914 9.79675 8.203 9.806L8.628 10.126L8.468 10.639C8.46335 10.6534 8.46334 10.6689 8.46797 10.6832C8.47261 10.6976 8.48165 10.7102 8.49381 10.7191C8.50598 10.7281 8.52066 10.733 8.53577 10.7332C8.55088 10.7333 8.56565 10.7287 8.578 10.72L9.008 10.407L9.438 10.72C9.45028 10.7285 9.46491 10.733 9.47986 10.7329C9.49482 10.7327 9.50935 10.7279 9.52144 10.7191C9.53354 10.7103 9.54259 10.698 9.54735 10.6838C9.55211 10.6696 9.55234 10.6543 9.548 10.64L9.388 10.127L9.813 9.807C9.8246 9.79775 9.83311 9.78518 9.83739 9.77098C9.84167 9.75677 9.84152 9.74159 9.83696 9.72747C9.8324 9.71335 9.82364 9.70096 9.81186 9.69194C9.80007 9.68292 9.78582 9.67771 9.771 9.677V9.676Z"
		fill="#FFE15A"
	/>
</svg>
