<svg viewBox="0 0 36 24" fill="none" xmlns="http://www.w3.org/2000/svg">
	<path d="M36 24H0V0H36" fill="#4173CD" />
	<path
		d="M19.844 9.474H16.141C16.0616 9.47341 15.9851 9.44346 15.9264 9.38993C15.8677 9.3364 15.8309 9.26305 15.823 9.184L15.592 7.016C15.5819 6.92861 15.5903 6.84007 15.6166 6.75613C15.6429 6.67218 15.6866 6.5947 15.7447 6.52871C15.8029 6.46271 15.8743 6.40968 15.9543 6.37303C16.0343 6.33639 16.121 6.31696 16.209 6.316H19.791C19.879 6.31696 19.9657 6.33639 20.0457 6.37303C20.1257 6.40968 20.1971 6.46271 20.2553 6.52871C20.3134 6.5947 20.3571 6.67218 20.3834 6.75613C20.4097 6.84007 20.4181 6.92861 20.408 7.016L20.178 9.169C20.1698 9.25212 20.1312 9.32928 20.0695 9.3856C20.0079 9.44192 19.9275 9.47341 19.844 9.474Z"
		fill="#AAAAAA"
	/>
	<path
		d="M19.725 21.474H16.275C16.0994 21.4722 15.9261 21.4335 15.7664 21.3605C15.6067 21.2875 15.4641 21.1818 15.3477 21.0502C15.2314 20.9187 15.144 20.7642 15.0912 20.5967C15.0384 20.4292 15.0213 20.2525 15.041 20.078L16.138 9.474H19.862L20.959 20.078C20.9787 20.2525 20.9616 20.4292 20.9088 20.5967C20.856 20.7642 20.7686 20.9187 20.6523 21.0502C20.5359 21.1818 20.3933 21.2875 20.2336 21.3605C20.0739 21.4335 19.9006 21.4722 19.725 21.474Z"
		fill="#B4B4B4"
	/>
	<path
		d="M18 2.842C15.593 2.86576 13.2937 3.84328 11.6065 5.56013C9.91923 7.27697 8.98188 9.59294 9 12C8.98188 14.4071 9.91923 16.723 11.6065 18.4399C13.2937 20.1567 15.593 21.1342 18 21.158C20.407 21.1342 22.7063 20.1567 24.3935 18.4399C26.0808 16.723 27.0181 14.4071 27 12C27.0181 9.59294 26.0808 7.27697 24.3935 5.56013C22.7063 3.84328 20.407 2.86576 18 2.842ZM18 19.263C16.5582 19.288 15.1415 18.8833 13.9305 18.1005C12.7194 17.3176 11.7688 16.192 11.1997 14.867C10.6305 13.542 10.4687 12.0776 10.7346 10.6603C11.0006 9.24301 11.6824 7.93694 12.6932 6.90844C13.704 5.87995 14.998 5.17558 16.4105 4.88505C17.823 4.59451 19.29 4.73096 20.6246 5.27701C21.9593 5.82307 23.1012 6.75401 23.905 7.95128C24.7088 9.14854 25.138 10.558 25.138 12C25.1521 13.909 24.4086 15.7456 23.0705 17.1072C21.7324 18.4687 19.9089 19.244 18 19.263ZM22.887 10.771L20.094 12.925L21.109 16.338C21.1187 16.3684 21.1185 16.4011 21.1087 16.4315C21.0988 16.4619 21.0797 16.4884 21.054 16.5073C21.0283 16.5263 20.9974 16.5368 20.9654 16.5372C20.9335 16.5377 20.9022 16.5282 20.876 16.51L18 14.473L15.123 16.51C15.0967 16.5278 15.0656 16.537 15.0339 16.5363C15.0022 16.5357 14.9715 16.5252 14.946 16.5063C14.9205 16.4874 14.9015 16.4611 14.8917 16.4309C14.8818 16.4008 14.8816 16.3683 14.891 16.338L15.906 12.925L13.113 10.771C13.0872 10.7517 13.0681 10.7248 13.0583 10.6942C13.0485 10.6635 13.0485 10.6305 13.0583 10.5998C13.0681 10.5692 13.0872 10.5423 13.1129 10.523C13.1387 10.5036 13.1698 10.4928 13.202 10.492L16.706 10.42L17.856 7.051C17.8657 7.02038 17.8848 6.99364 17.9107 6.97466C17.9366 6.95568 17.9679 6.94544 18 6.94544C18.0321 6.94544 18.0634 6.95568 18.0893 6.97466C18.1152 6.99364 18.1343 7.02038 18.144 7.051L19.294 10.42L22.798 10.492C22.8302 10.4928 22.8613 10.5036 22.8871 10.523C22.9128 10.5423 22.9319 10.5692 22.9417 10.5998C22.9515 10.6305 22.9515 10.6635 22.9417 10.6942C22.9319 10.7248 22.9128 10.7517 22.887 10.771Z"
		fill="#F5F5F5"
	/>
	<path
		d="M26.69 12C26.6902 11.8861 26.6597 11.7742 26.6016 11.6761C26.5435 11.5781 26.46 11.4975 26.36 11.443C26.3487 11.2557 26.3313 11.07 26.308 10.886C26.3949 10.8129 26.4607 10.7179 26.4984 10.6108C26.5362 10.5037 26.5446 10.3884 26.5228 10.2769C26.5009 10.1655 26.4496 10.0619 26.3742 9.977C26.2988 9.89207 26.2021 9.82888 26.094 9.794C26.0467 9.61267 25.9933 9.434 25.934 9.258C26.0254 9.14473 26.0752 9.00354 26.075 8.858C26.0764 8.70219 26.0197 8.55146 25.916 8.43518C25.8122 8.3189 25.6689 8.2454 25.514 8.229C25.4327 8.06233 25.346 7.89867 25.254 7.738C25.3032 7.64566 25.329 7.54264 25.329 7.438C25.3303 7.27214 25.2658 7.11254 25.1495 6.99423C25.0333 6.87592 24.8749 6.80858 24.709 6.807C24.687 6.80682 24.6649 6.80782 24.643 6.81C24.5323 6.66333 24.4173 6.521 24.298 6.383C24.3171 6.3218 24.3268 6.2581 24.327 6.194C24.3278 6.11171 24.3123 6.03007 24.2816 5.95375C24.2508 5.87743 24.2052 5.80793 24.1475 5.74923C24.0899 5.69053 24.0212 5.64378 23.9454 5.61165C23.8697 5.57953 23.7883 5.56265 23.706 5.562C23.6428 5.56231 23.5801 5.57243 23.52 5.592C23.384 5.47 23.244 5.35267 23.1 5.24C23.1025 5.21808 23.1038 5.19605 23.104 5.174C23.1048 5.09179 23.0894 5.01023 23.0587 4.93398C23.0279 4.85773 22.9825 4.78827 22.9249 4.72959C22.8673 4.6709 22.7988 4.62413 22.7231 4.59194C22.6475 4.55975 22.5662 4.54278 22.484 4.542C22.3808 4.54198 22.2793 4.56813 22.189 4.618C22.031 4.52467 21.87 4.437 21.706 4.355C21.6928 4.19979 21.6221 4.05511 21.5078 3.9493C21.3935 3.84349 21.2438 3.78418 21.088 3.783C20.9443 3.78304 20.8051 3.83366 20.695 3.926C20.5217 3.866 20.346 3.812 20.168 3.764C20.1305 3.63528 20.0524 3.52213 19.9454 3.4414C19.8383 3.36067 19.7081 3.31668 19.574 3.316C19.4819 3.31594 19.3909 3.33657 19.3078 3.37638C19.2247 3.41619 19.1517 3.47416 19.094 3.546C18.914 3.522 18.732 3.504 18.548 3.492C18.4963 3.39122 18.4177 3.30666 18.3211 3.24762C18.2244 3.18858 18.1133 3.15734 18 3.15734C17.8867 3.15734 17.7756 3.18858 17.6789 3.24762C17.5823 3.30666 17.5037 3.39122 17.452 3.492C17.268 3.50467 17.0857 3.523 16.905 3.547C16.8474 3.47498 16.7744 3.41682 16.6913 3.37683C16.6082 3.33685 16.5172 3.31606 16.425 3.316C16.2911 3.3169 16.1611 3.36098 16.0542 3.44169C15.9474 3.52241 15.8695 3.63545 15.832 3.764C15.654 3.81267 15.4783 3.86667 15.305 3.926C15.1949 3.83366 15.0557 3.78304 14.912 3.783C14.7564 3.78416 14.6068 3.84333 14.4925 3.94893C14.3782 4.05453 14.3074 4.19897 14.294 4.354C14.13 4.43667 13.969 4.52467 13.811 4.618C13.721 4.56829 13.6198 4.54215 13.517 4.542C13.4348 4.54278 13.3535 4.55975 13.2779 4.59194C13.2022 4.62413 13.1337 4.6709 13.0761 4.72959C13.0185 4.78827 12.9731 4.85773 12.9423 4.93398C12.9116 5.01023 12.8962 5.09179 12.897 5.174C12.8969 5.19604 12.8979 5.21806 12.9 5.24C12.756 5.35267 12.616 5.46967 12.48 5.591C12.4199 5.57177 12.3571 5.56198 12.294 5.562C12.2118 5.56278 12.1305 5.57975 12.0549 5.61194C11.9792 5.64413 11.9107 5.6909 11.8531 5.74959C11.7955 5.80827 11.7501 5.87773 11.7193 5.95398C11.6886 6.03023 11.6732 6.11179 11.674 6.194C11.6739 6.25804 11.6833 6.32175 11.702 6.383C11.582 6.52167 11.467 6.664 11.357 6.81C11.3351 6.80783 11.313 6.80682 11.291 6.807C11.1251 6.80858 10.9667 6.87592 10.8505 6.99423C10.7342 7.11254 10.6697 7.27214 10.671 7.438C10.6707 7.54256 10.6961 7.64559 10.745 7.738C10.6537 7.898 10.5673 8.06167 10.486 8.229C10.3311 8.2454 10.1878 8.3189 10.084 8.43518C9.98034 8.55146 9.92364 8.70219 9.925 8.858C9.92457 9.00342 9.97398 9.14459 10.065 9.258C10.0063 9.434 9.953 9.61267 9.905 9.794C9.797 9.829 9.70033 9.89228 9.62504 9.97726C9.54975 10.0622 9.49858 10.1658 9.47684 10.2773C9.45511 10.3887 9.4636 10.5039 9.50143 10.611C9.53927 10.718 9.60507 10.813 9.692 10.886C9.66867 11.07 9.651 11.2557 9.639 11.443C9.53962 11.4981 9.4568 11.5789 9.39914 11.6768C9.34147 11.7748 9.31106 11.8863 9.31106 12C9.31106 12.1137 9.34147 12.2252 9.39914 12.3232C9.4568 12.4211 9.53962 12.5019 9.639 12.557C9.7388 14.7074 10.6633 16.7366 12.2203 18.2231C13.7774 19.7096 15.8473 20.539 18 20.539C20.1527 20.539 22.2226 19.7096 23.7797 18.2231C25.3367 16.7366 26.2612 14.7074 26.361 12.557C26.4609 12.5023 26.5441 12.4217 26.602 12.3237C26.6599 12.2257 26.6903 12.1138 26.69 12ZM18 19.895C16.0176 19.8767 14.116 19.1068 12.6793 17.7406C11.2426 16.3745 10.378 14.514 10.26 12.535C10.3496 12.4774 10.4233 12.3982 10.4743 12.3048C10.5253 12.2113 10.5521 12.1065 10.5521 12C10.5521 11.8935 10.5253 11.7887 10.4743 11.6952C10.4233 11.6018 10.3496 11.5226 10.26 11.465C10.27 11.305 10.285 11.1463 10.305 10.989C10.4041 10.9497 10.4918 10.8861 10.5599 10.8041C10.628 10.722 10.6744 10.6242 10.6948 10.5195C10.7152 10.4149 10.709 10.3068 10.6767 10.2052C10.6444 10.1035 10.5871 10.0117 10.51 9.938C10.5513 9.78333 10.597 9.63067 10.647 9.48C10.7932 9.45448 10.9256 9.37801 11.0208 9.26415C11.116 9.15029 11.1678 9.0064 11.167 8.858C11.167 8.72696 11.1264 8.59914 11.051 8.492C11.121 8.34867 11.195 8.20767 11.273 8.069H11.291C11.4567 8.06742 11.615 8.00021 11.7312 7.88212C11.8474 7.76403 11.9121 7.60468 11.911 7.439C11.9113 7.35059 11.8933 7.26307 11.858 7.182C11.9547 7.05533 12.0547 6.93133 12.158 6.81C12.2026 6.82041 12.2482 6.82578 12.294 6.826C12.3762 6.82522 12.4575 6.80825 12.5331 6.77606C12.6088 6.74387 12.6773 6.6971 12.7349 6.63841C12.7925 6.57973 12.8379 6.51027 12.8687 6.43402C12.8994 6.35777 12.9148 6.27621 12.914 6.194C12.9143 6.14763 12.9096 6.10136 12.9 6.056C13.018 5.95067 13.1397 5.849 13.265 5.751C13.3442 5.78677 13.4301 5.80518 13.517 5.805C13.6829 5.80342 13.8413 5.73608 13.9575 5.61777C14.0738 5.49946 14.1383 5.33986 14.137 5.174V5.155C14.273 5.075 14.4113 4.99967 14.552 4.929C14.6566 5.00519 14.7826 5.04616 14.912 5.046C15.0601 5.04491 15.2029 4.99121 15.315 4.89448C15.4272 4.79776 15.5012 4.66431 15.524 4.518C15.6713 4.46667 15.8213 4.42033 15.974 4.379C16.0313 4.44188 16.1011 4.49214 16.1789 4.52658C16.2568 4.56101 16.3409 4.57886 16.426 4.579C16.553 4.57831 16.6768 4.53862 16.7805 4.46529C16.8843 4.39196 16.963 4.28853 17.006 4.169C17.1607 4.149 17.3167 4.134 17.474 4.124C17.5286 4.21469 17.6057 4.28972 17.6979 4.34181C17.7901 4.3939 17.8941 4.42127 18 4.42127C18.1059 4.42127 18.2099 4.3939 18.3021 4.34181C18.3943 4.28972 18.4714 4.21469 18.526 4.124C18.6833 4.13467 18.8393 4.15 18.994 4.17C19.037 4.28953 19.1157 4.39296 19.2195 4.46629C19.3232 4.53962 19.447 4.57931 19.574 4.58C19.6593 4.58 19.7436 4.56221 19.8216 4.52778C19.8996 4.49334 19.9696 4.44301 20.027 4.38C20.1783 4.42133 20.3283 4.46733 20.477 4.518C20.4997 4.66414 20.5737 4.79745 20.6856 4.89416C20.7975 4.99087 20.9401 5.04468 21.088 5.046C21.2174 5.04616 21.3434 5.00519 21.448 4.929C21.5887 5.00033 21.727 5.07567 21.863 5.155V5.174C21.8617 5.33986 21.9262 5.49946 22.0425 5.61777C22.1587 5.73608 22.3171 5.80342 22.483 5.805C22.5699 5.80518 22.6558 5.78677 22.735 5.751C22.8597 5.849 22.9813 5.95067 23.1 6.056C23.09 6.10132 23.085 6.14759 23.085 6.194C23.0842 6.27621 23.0996 6.35777 23.1303 6.43402C23.1611 6.51027 23.2065 6.57973 23.2641 6.63841C23.3217 6.6971 23.3902 6.74387 23.4659 6.77606C23.5415 6.80825 23.6228 6.82522 23.705 6.826C23.7508 6.82578 23.7964 6.82041 23.841 6.81C23.945 6.93067 24.045 7.05467 24.141 7.182C24.1059 7.26276 24.0878 7.34992 24.088 7.438C24.0872 7.52021 24.1026 7.60177 24.1333 7.67802C24.1641 7.75427 24.2095 7.82373 24.2671 7.88241C24.3247 7.9411 24.3932 7.98787 24.4689 8.02006C24.5445 8.05225 24.6258 8.06922 24.708 8.07L24.726 8.069C24.8047 8.207 24.879 8.348 24.949 8.492C24.8739 8.59925 24.8337 8.72707 24.834 8.858C24.8332 9.0064 24.885 9.15029 24.9802 9.26415C25.0754 9.37801 25.2078 9.45448 25.354 9.48C25.4033 9.63067 25.4483 9.78333 25.489 9.938C25.4122 10.0118 25.3551 10.1036 25.323 10.2052C25.2909 10.3067 25.2849 10.4147 25.3054 10.5192C25.3259 10.6237 25.3723 10.7214 25.4404 10.8033C25.5084 10.8852 25.596 10.9487 25.695 10.988C25.715 11.146 25.73 11.305 25.74 11.465C25.6504 11.5226 25.5767 11.6018 25.5257 11.6952C25.4746 11.7887 25.4479 11.8935 25.4479 12C25.4479 12.1065 25.4746 12.2113 25.5257 12.3048C25.5767 12.3982 25.6504 12.4774 25.74 12.535C25.622 14.514 24.7574 16.3745 23.3207 17.7406C21.884 19.1068 19.9824 19.8767 18 19.895Z"
		fill="#FFDC00"
	/>
	<path
		d="M26.069 12.316C26.0279 12.3156 25.9873 12.3071 25.9494 12.291C25.9116 12.2749 25.8773 12.2516 25.8485 12.2222C25.8198 12.1929 25.797 12.1581 25.7817 12.12C25.7663 12.0819 25.7586 12.0411 25.759 12C25.7755 10.9706 25.587 9.94818 25.2045 8.99234C24.822 8.03649 24.2531 7.16631 23.531 6.4325C22.8089 5.69868 21.948 5.1159 20.9984 4.7181C20.0488 4.32029 19.0295 4.11542 18 4.11542C16.9705 4.11542 15.9512 4.32029 15.0016 4.7181C14.052 5.1159 13.1911 5.69868 12.469 6.4325C11.7469 7.16631 11.178 8.03649 10.7955 8.99234C10.413 9.94818 10.2245 10.9706 10.241 12C10.241 12.0822 10.2083 12.1611 10.1502 12.2192C10.0921 12.2773 10.0132 12.31 9.931 12.31C9.84878 12.31 9.76993 12.2773 9.7118 12.2192C9.65366 12.1611 9.621 12.0822 9.621 12C9.60383 10.8888 9.80787 9.78521 10.2213 8.75357C10.6346 7.72194 11.2491 6.78284 12.0289 5.99094C12.8086 5.19903 13.7381 4.57014 14.7632 4.14088C15.7884 3.71161 16.8886 3.49054 18 3.49054C19.1114 3.49054 20.2116 3.71161 21.2368 4.14088C22.2619 4.57014 23.1914 5.19903 23.9711 5.99094C24.7509 6.78284 25.3654 7.72194 25.7787 8.75357C26.1921 9.78521 26.3962 10.8888 26.379 12C26.3794 12.0411 26.3717 12.0819 26.3563 12.12C26.341 12.1581 26.3182 12.1929 26.2894 12.2222C26.2607 12.2516 26.2264 12.2749 26.1886 12.291C26.1507 12.3071 26.1101 12.3156 26.069 12.316Z"
		fill="#FFA000"
	/>
</svg>
