<svg viewBox="0 0 36 24" fill="none" xmlns="http://www.w3.org/2000/svg">
	<path d="M36 24H0V0H36" fill="#41479B" />
	<path
		d="M28.567 4.784C28.3998 4.76054 28.2354 4.72068 28.076 4.665C27.9456 4.56471 27.7865 4.50865 27.622 4.505C27.5511 4.50579 27.4834 4.53465 27.4337 4.58526C27.3841 4.63586 27.3565 4.70409 27.357 4.775C27.357 4.925 27.457 5.103 27.984 5.063C28.1477 5.05494 28.3106 5.08939 28.457 5.163C28.4561 5.02867 28.4943 4.89698 28.567 4.784Z"
		fill="#FF4B55"
	/>
	<path
		d="M24.137 11.5C24.1015 11.5004 24.0665 11.5078 24.0339 11.5217C24.0013 11.5356 23.9717 11.5558 23.947 11.5812C23.9222 11.6065 23.9026 11.6365 23.8894 11.6694C23.8762 11.7024 23.8696 11.7375 23.87 11.773V14.77C23.87 15.588 24.137 18.585 26.815 19.675C29.494 18.585 29.761 15.588 29.761 14.77V11.773C29.7614 11.7375 29.7548 11.7022 29.7415 11.6692C29.7282 11.6362 29.7086 11.6062 29.6837 11.5808C29.6588 11.5555 29.6291 11.5353 29.5964 11.5214C29.5637 11.5075 29.5285 11.5003 29.493 11.5H24.137Z"
		fill="#4173CD"
	/>
	<path
		d="M25.298 5.335C25.298 5.325 25.307 4.33 26.048 4.162C26.486 4.062 26.695 4.186 26.788 4.282C26.7967 4.26956 26.8093 4.26049 26.8239 4.2563C26.8385 4.25211 26.8541 4.25306 26.868 4.259C26.8843 4.26662 26.8969 4.28029 26.9033 4.2971C26.9096 4.3139 26.9092 4.33252 26.902 4.349C26.8436 4.48069 26.799 4.61809 26.769 4.759C26.7993 4.72513 26.8343 4.69582 26.873 4.672C26.9946 4.60411 27.1362 4.58111 27.273 4.607C27.2063 4.50195 27.1758 4.378 27.186 4.254C27.2272 4.26326 27.2661 4.28084 27.3003 4.30567C27.3344 4.3305 27.3632 4.36205 27.3847 4.39838C27.4062 4.43471 27.4201 4.47507 27.4255 4.51696C27.4309 4.55885 27.4277 4.6014 27.416 4.642L27.431 4.647C27.4477 4.65368 27.461 4.66668 27.4681 4.68317C27.4753 4.69965 27.4756 4.71829 27.469 4.735C27.4641 4.74831 27.455 4.75968 27.4431 4.76743C27.4312 4.77517 27.4172 4.77888 27.403 4.778C27.436 5.034 27.118 5.088 27.118 5.088C27.1134 5.02449 27.1222 4.96072 27.1437 4.90079C27.1653 4.84086 27.1991 4.7861 27.243 4.74C27.1396 4.72162 27.033 4.73927 26.941 4.79C26.8775 4.83116 26.8277 4.89035 26.798 4.96C26.8342 4.99663 26.8627 5.04009 26.8819 5.08785C26.9011 5.13561 26.9106 5.18671 26.9098 5.23818C26.9091 5.28964 26.8981 5.34045 26.8775 5.38763C26.857 5.43481 26.8272 5.47743 26.79 5.513C26.8726 5.80074 27.0382 6.05777 27.266 6.252C27.2801 6.26306 27.2893 6.27915 27.2917 6.29687C27.2941 6.3146 27.2896 6.33257 27.279 6.347C27.2738 6.35415 27.2672 6.36017 27.2596 6.36471C27.252 6.36925 27.2435 6.37222 27.2348 6.37343C27.226 6.37465 27.2171 6.37408 27.2085 6.37177C27.2 6.36947 27.192 6.36546 27.185 6.36C26.9463 6.15199 26.7698 5.88205 26.675 5.58C26.6555 5.58701 26.6354 5.59236 26.615 5.596C26.4139 5.65981 26.2341 5.77738 26.095 5.936C26.0244 5.79297 25.9854 5.6364 25.9807 5.47694C25.9761 5.31749 26.0058 5.15891 26.068 5.012C26.094 4.96636 26.1293 4.92662 26.1715 4.89529C26.2136 4.86396 26.2619 4.84172 26.3131 4.82997C26.3643 4.81822 26.4174 4.81723 26.469 4.82704C26.5206 4.83686 26.5697 4.85727 26.613 4.887C26.6309 4.74173 26.6648 4.59887 26.714 4.461C26.4266 4.41675 26.1331 4.48451 25.8942 4.6503C25.6553 4.81609 25.4891 5.06727 25.43 5.352C25.4264 5.36654 25.4181 5.37947 25.4063 5.38871C25.3945 5.39796 25.38 5.40299 25.365 5.403H25.356C25.3397 5.40058 25.3249 5.39237 25.3143 5.37987C25.3036 5.36737 25.2978 5.35143 25.298 5.335ZM22.815 10.487L24.706 10.751L25.677 9.814L25.477 9.431C25.148 9.80452 24.7354 10.0949 24.2727 10.2784C23.8101 10.462 23.3106 10.5334 22.815 10.487ZM21.945 10.456C22.397 11.208 23.262 11.778 24.673 10.898C24.673 10.898 22.665 11.534 22.575 10.228C22.497 9.086 23.725 8.855 23.847 9.104C23.8828 9.17679 23.9006 9.25712 23.8989 9.33822C23.8971 9.41932 23.8759 9.49881 23.837 9.57C23.9211 9.55648 24.0005 9.52211 24.0679 9.47004C24.1353 9.41797 24.1885 9.34984 24.2228 9.27188C24.2572 9.19393 24.2714 9.10862 24.2643 9.02374C24.2571 8.93887 24.2288 8.85714 24.182 8.786C24.182 8.786 24.84 8.889 25.197 7.981C25.197 7.981 24.985 8.128 24.327 7.991C24.4023 7.82838 24.4294 7.64755 24.405 7.47C24.2221 7.61835 24.0147 7.73343 23.792 7.81C23.3141 8.03964 22.92 8.41309 22.665 8.878C22.665 8.878 23.643 6.582 22.857 6.348C22.7533 6.31372 22.6415 6.31233 22.537 6.34402C22.4324 6.3757 22.3402 6.43891 22.273 6.525C22.3228 6.58284 22.3517 6.65575 22.355 6.732C22.2778 7.55397 22.1207 8.36647 21.886 9.158C21.8422 8.99031 21.7687 8.83181 21.669 8.69C21.5727 8.56805 21.4937 8.43346 21.434 8.29C21.3671 8.3395 21.3143 8.40553 21.2806 8.48161C21.247 8.5577 21.2336 8.64122 21.242 8.724C21.1874 8.69043 21.1258 8.6699 21.062 8.66401C20.9981 8.65811 20.9338 8.667 20.874 8.69C20.8158 8.71478 20.7509 8.71898 20.69 8.70189C20.6291 8.6848 20.5758 8.64745 20.539 8.596C20.4851 8.75778 20.4959 8.93414 20.5692 9.08812C20.6425 9.24211 20.7725 9.36175 20.932 9.422C20.8504 9.46123 20.7721 9.50705 20.698 9.559C20.6408 9.59728 20.5738 9.61812 20.505 9.619C20.5734 9.73645 20.6679 9.83664 20.7811 9.91188C20.8943 9.98712 21.0232 10.0354 21.158 10.053C21.313 10.0455 21.4672 10.0787 21.6053 10.1494C21.7434 10.2202 21.8605 10.3259 21.945 10.456ZM33.28 6.723C33.046 6.821 32.767 6.451 32.616 6.348C32.5705 6.318 32.5186 6.29895 32.4645 6.29236C32.4103 6.28577 32.3554 6.2918 32.304 6.31C32.1703 6.14435 31.9766 6.03831 31.765 6.015C30.975 5.948 30.949 6.656 30.962 6.955C30.962 6.955 31.608 6.209 31.843 6.525C31.9115 6.59758 31.95 6.69341 31.9508 6.79321C31.9515 6.89302 31.9144 6.98941 31.847 7.063C31.847 7.063 31.998 7.362 32.383 7.15L32.393 7.34C32.423 7.924 33.159 7.817 33.159 7.817C33.1097 7.76655 33.0714 7.70653 33.0463 7.64065C33.0211 7.57477 33.0098 7.50443 33.013 7.434C33.0256 7.30422 32.9991 7.17365 32.937 7.059C32.9827 7.06408 33.0289 7.05894 33.0723 7.04395C33.1158 7.02897 33.1554 7.00451 33.1882 6.97235C33.221 6.94019 33.2463 6.90114 33.2622 6.85801C33.278 6.81489 33.2841 6.76877 33.28 6.723ZM32.843 12.294C32.1428 11.7621 31.3283 11.4009 30.464 11.239C30.3252 11.1951 30.1875 11.1478 30.051 11.097L30.866 11.253L31.494 10.725L31.644 10.308C31.3149 10.5144 30.9281 10.6093 30.5409 10.5787C30.1536 10.5481 29.7866 10.3935 29.494 10.138C29.059 9.66485 28.7239 9.10874 28.509 8.503C28.5211 8.50462 28.5334 8.5036 28.545 8.5C28.5968 8.35689 28.6045 8.20152 28.567 8.054C28.5596 8.04395 28.5501 8.03574 28.539 8.03C28.5875 7.9401 28.627 7.84565 28.657 7.748L28.427 7.782C28.4519 7.67152 28.4502 7.55669 28.422 7.447L28.166 7.651C28.1216 7.54995 28.0652 7.4546 27.998 7.367C27.998 7.367 27.82 7.623 27.719 7.657C27.6815 7.49781 27.6136 7.34738 27.519 7.214L27.345 7.464L27.089 7.259C27.089 7.259 27.089 7.435 27.083 7.475C27.078 7.515 26.748 7.123 26.748 7.123C26.6021 7.21628 26.4845 7.34769 26.408 7.503L26.163 7.248L26.063 7.583L25.722 7.493L25.778 7.691L25.482 7.668C25.5044 7.81761 25.5725 7.95663 25.677 8.066L25.975 8.076C25.9714 8.15667 25.9886 8.23692 26.025 8.309C26.2096 8.35162 26.4018 8.34853 26.585 8.3C26.604 8.279 26.593 8.193 26.571 8.099L26.987 8.114C26.9839 8.16769 26.9953 8.22123 27.02 8.269C27.2015 8.32401 27.3933 8.33532 27.58 8.302C27.598 8.285 27.596 8.217 27.584 8.136L28.041 8.153C28.0368 8.17854 28.0334 8.20422 28.031 8.23H27.619L27.887 10.683L28.322 10.766C28.7212 11.365 29.3236 11.7994 30.018 11.989C30.908 12.2115 31.7433 12.613 32.473 13.169C32.719 13.521 32.68 13.703 32.68 13.703C32.68 13.703 33.085 12.932 33.025 12.664C32.9952 12.5278 32.9327 12.4008 32.843 12.294ZM26.28 9.592C26.28 9.592 25.553 10.859 24.925 11.772H26.28V9.592ZM23.094 13.502L22.979 13.947C22.8978 13.8341 22.7917 13.7414 22.6689 13.676C22.5462 13.6106 22.41 13.5743 22.271 13.57C22.271 13.57 22.571 13.331 22.179 12.965C22.179 12.965 22.133 13.129 21.777 13.212C21.6655 13.2256 21.5526 13.2042 21.4538 13.1508C21.355 13.0974 21.2753 13.0147 21.2255 12.914C21.1758 12.8134 21.1586 12.6997 21.1762 12.5888C21.1938 12.4779 21.2455 12.3753 21.324 12.295C20.622 13.101 20.982 13.655 21.358 13.953C21.3522 14.0372 21.3642 14.1216 21.3931 14.2009C21.4221 14.2801 21.4673 14.3524 21.526 14.413C21.726 14.626 21.869 14.779 21.861 14.958C21.9595 14.8695 22.0341 14.7576 22.0778 14.6326C22.1215 14.5076 22.1329 14.3736 22.111 14.243C22.2205 14.3206 22.3472 14.3706 22.4802 14.3887C22.6133 14.4068 22.7487 14.3925 22.875 14.347L22.667 15.145L23.033 15.667C23.0334 15.2555 23.1189 14.8485 23.2841 14.4717C23.4493 14.0948 23.6907 13.7562 23.993 13.477L24.013 12.558C23.8426 12.5854 23.6837 12.661 23.555 12.776L23.094 13.502ZM31.257 15.009C31.0979 14.1627 30.6866 13.3842 30.077 12.776C30.445 13.352 31 14.827 30.57 15.349C30.4627 15.4444 30.329 15.505 30.1865 15.5229C30.0441 15.5407 29.8995 15.515 29.772 15.449C29.795 15.739 29.932 16.184 30.576 15.963C30.5677 16.4933 30.4459 17.0157 30.219 17.495L30.419 17.586C30.913 17.1243 31.2225 16.4988 31.29 15.826C31.29 15.826 31.935 16.261 32.172 15.372C32.172 15.372 31.48 15.656 31.257 15.009ZM24.356 17.159C24.5737 17.7235 24.9041 18.2377 25.327 18.6702C25.7499 19.1028 26.2556 19.4447 26.815 19.675C27.3744 19.4447 27.8821 19.1028 28.305 18.6702C28.7279 18.2377 29.0583 17.7235 29.276 17.159L26.816 12.362L24.356 17.159Z"
		fill="#73AF00"
	/>
	<path
		d="M27.565 4.624C27.735 4.604 28.198 4.903 28.198 4.903C27.9753 4.92654 27.7503 4.90892 27.534 4.851C27.424 4.769 27.452 4.637 27.565 4.624ZM21.723 7.34L21.733 7.15C22.118 7.362 22.269 7.063 22.269 7.063C22.2016 6.98941 22.1645 6.89302 22.1652 6.79321C22.166 6.69341 22.2045 6.59758 22.273 6.525C22.508 6.209 23.154 6.955 23.154 6.955C23.167 6.656 23.141 5.948 22.351 6.015C22.1394 6.03831 21.9457 6.14435 21.812 6.31C21.7606 6.2918 21.7057 6.28577 21.6515 6.29236C21.5974 6.29895 21.5455 6.318 21.5 6.348C21.35 6.451 21.07 6.821 20.836 6.723C20.8319 6.76877 20.838 6.81489 20.8538 6.85801C20.8697 6.90114 20.895 6.94019 20.9278 6.97235C20.9606 7.00451 21.0002 7.02897 21.0436 7.04395C21.0871 7.05894 21.1333 7.06408 21.179 7.059C21.1173 7.17376 21.0911 7.30432 21.104 7.434C21.107 7.50451 21.0956 7.57488 21.0703 7.64077C21.045 7.70665 21.0064 7.76664 20.957 7.817C20.957 7.817 21.694 7.924 21.723 7.34ZM33.418 9.56C33.3439 9.50805 33.2656 9.46223 33.184 9.423C33.3435 9.36275 33.4735 9.2431 33.5468 9.08912C33.6201 8.93514 33.6309 8.75878 33.577 8.597C33.5402 8.64845 33.4869 8.6858 33.426 8.70289C33.3651 8.71998 33.3002 8.71578 33.242 8.691C33.1822 8.668 33.1178 8.65911 33.054 8.66501C32.9902 8.6709 32.9286 8.69143 32.874 8.725C32.8824 8.64222 32.869 8.5587 32.8354 8.48261C32.8017 8.40653 32.7489 8.3405 32.682 8.291C32.6223 8.43446 32.5433 8.56905 32.447 8.691C32.3473 8.8328 32.2738 8.9913 32.23 9.159C31.9953 8.36747 31.8382 7.55497 31.761 6.733C31.7643 6.65675 31.7932 6.58284 31.843 6.525C31.7758 6.43891 31.6836 6.3767 31.579 6.34502C31.4745 6.31333 31.3627 6.31472 31.259 6.349C30.473 6.583 31.452 8.879 31.452 8.879C31.197 8.41409 30.8029 8.04064 30.325 7.811C30.102 7.73453 29.8942 7.61945 29.711 7.471C29.6864 7.64888 29.7135 7.83007 29.789 7.993C29.131 8.129 28.919 7.982 28.919 7.982C29.276 8.89 29.934 8.788 29.934 8.787C29.8871 8.8582 29.8589 8.94002 29.8518 9.02496C29.8447 9.1099 29.8591 9.19526 29.8935 9.27324C29.9279 9.35122 29.9813 9.41933 30.0488 9.47134C30.1163 9.52336 30.1958 9.55762 30.28 9.571C30.2409 9.4999 30.2196 9.42044 30.2176 9.33934C30.2157 9.25824 30.2333 9.17787 30.269 9.105C30.392 8.855 31.619 9.087 31.541 10.229C31.451 11.535 29.443 10.899 29.443 10.899C30.855 11.779 31.719 11.209 32.171 10.457C32.2555 10.3269 32.3726 10.2212 32.5107 10.1504C32.6488 10.0797 32.803 10.0465 32.958 10.054C33.0929 10.0363 33.2219 9.98785 33.3351 9.91244C33.4483 9.83702 33.5427 9.73663 33.611 9.619C33.5422 9.61812 33.4752 9.59728 33.418 9.559V9.56ZM32.39 13.213C32.034 13.13 31.988 12.966 31.988 12.966C31.595 13.332 31.896 13.571 31.896 13.571C31.6995 13.5676 31.5082 13.6343 31.3563 13.7591C31.2044 13.8838 31.1019 14.0586 31.067 14.252C31.2137 14.3496 31.3862 14.4009 31.5624 14.3992C31.7385 14.3976 31.9101 14.3432 32.055 14.243C32.0329 14.3737 32.0442 14.508 32.0879 14.6331C32.1316 14.7583 32.2063 14.8704 32.305 14.959C32.298 14.78 32.44 14.627 32.641 14.414C32.6995 14.3533 32.7446 14.281 32.7733 14.2017C32.8021 14.1225 32.8139 14.0381 32.808 13.954C33.185 13.656 33.544 13.102 32.843 12.296C32.9215 12.3763 32.9732 12.4789 32.9908 12.5898C33.0084 12.7007 32.9912 12.8144 32.9415 12.915C32.8917 13.0157 32.812 13.0984 32.7132 13.1518C32.6144 13.2052 32.5015 13.2266 32.39 13.213ZM28.263 11.706H29.159C29.242 11.186 29.067 11.024 29.067 11.024C29.2006 11.0599 29.34 11.0688 29.477 11.05C29.34 10.8055 29.1369 10.6045 28.891 10.47L29.251 10.48C29.251 10.48 29.203 10.326 28.673 9.997C28.4317 9.85811 28.2236 9.66838 28.063 9.441L28.263 11.706ZM21.693 13.17C22.4129 12.5981 23.2518 12.1949 24.148 11.99C25.208 11.774 26.168 10.616 26.012 9.866C25.856 9.117 25.654 9.548 25.654 9.548C25.5183 9.81161 25.3568 10.0612 25.172 10.293C24.98 10.4516 24.767 10.5829 24.539 10.683C24.5969 10.592 24.6232 10.4845 24.614 10.377C24.2708 10.5103 23.9041 10.573 23.5361 10.5614C23.168 10.5497 22.8061 10.4638 22.472 10.309L22.622 10.726L23.25 11.254L24.306 11.056C24.0815 11.1934 23.841 11.3029 23.59 11.382C22.262 11.802 22.02 11.722 21.324 12.295C21.2339 12.4017 21.1711 12.5287 21.141 12.665C21.081 12.933 21.487 13.704 21.487 13.704C21.487 13.704 21.447 13.522 21.693 13.17ZM23.495 17.642C23.5074 17.6301 23.5157 17.6146 23.5185 17.5976C23.5214 17.5807 23.5188 17.5633 23.511 17.548L23.393 17.328C23.3855 17.3138 23.3737 17.3024 23.3594 17.2952C23.3451 17.288 23.3288 17.2855 23.313 17.288C23.1515 16.8648 23.0643 16.4169 23.055 15.964C23.7 16.184 23.836 15.741 23.859 15.45C23.7315 15.516 23.5869 15.5417 23.4445 15.5239C23.302 15.506 23.1683 15.4454 23.061 15.35C22.631 14.828 23.186 13.353 23.554 12.777C22.9444 13.3852 22.5331 14.1637 22.374 15.01C22.151 15.657 21.459 15.373 21.459 15.373C21.696 16.262 22.341 15.827 22.341 15.827C22.4087 16.4222 22.6572 16.9824 23.053 17.432C23.0423 17.4441 23.0355 17.4592 23.0335 17.4753C23.0316 17.4914 23.0345 17.5076 23.042 17.522L23.159 17.742C23.1673 17.7577 23.1809 17.77 23.1973 17.7768C23.2137 17.7836 23.232 17.7843 23.249 17.779C23.3453 18.2985 23.3998 18.8248 23.412 19.353C23.6511 19.3573 23.8878 19.3043 24.1023 19.1986C24.3167 19.0928 24.5028 18.9373 24.645 18.745C24.1783 18.4755 23.7837 18.0971 23.495 17.642ZM30.076 12.777C29.9476 12.6622 29.789 12.5865 29.619 12.559L29.639 13.477C29.9414 13.7563 30.1829 14.0951 30.3481 14.4721C30.5133 14.8492 30.5987 15.2563 30.599 15.668L30.964 15.146L30.537 13.503L30.076 12.777ZM30.558 17.415L30.343 17.296C30.334 17.2911 30.3242 17.2881 30.314 17.2871C30.3038 17.286 30.2936 17.287 30.2838 17.29C30.274 17.293 30.2649 17.2979 30.2571 17.3044C30.2492 17.3109 30.2427 17.3189 30.238 17.328L30.12 17.548C30.1122 17.5633 30.1096 17.5807 30.1125 17.5976C30.1153 17.6146 30.1236 17.6301 30.136 17.642C29.8473 18.0971 29.4527 18.4755 28.986 18.745C29.1282 18.9373 29.3143 19.0928 29.5287 19.1986C29.7432 19.3043 29.9799 19.3573 30.219 19.353C30.2312 18.8248 30.2857 18.2985 30.382 17.779C30.399 17.7843 30.4173 17.7836 30.4337 17.7768C30.4501 17.77 30.4637 17.7577 30.472 17.742L30.589 17.522C30.5988 17.5036 30.601 17.4822 30.5952 17.4622C30.5894 17.4422 30.5761 17.4253 30.558 17.415ZM26.653 11.5L24.113 16.454C24.1795 16.6938 24.2606 16.9292 24.356 17.159L26.816 12.362L29.276 17.159C29.371 16.9292 29.4518 16.6937 29.518 16.454L26.978 11.5H26.653ZM27.811 17.47L28.422 16.678V17.768L28.216 17.668C28.0677 17.8957 27.8627 18.0808 27.621 18.205C27.387 18.3388 27.1625 18.4885 26.949 18.653L26.815 18.758L26.681 18.653C26.4675 18.4885 26.243 18.3388 26.009 18.205C25.7672 18.0805 25.5621 17.8951 25.414 17.667L25.209 17.767V16.677L25.819 17.47L25.657 17.549C25.7813 17.7244 25.9459 17.8674 26.137 17.966C26.3249 18.0722 26.5065 18.1891 26.681 18.316V16.066L26.012 15.996V15.724L26.334 15.69C26.2978 15.6509 26.2737 15.6022 26.2646 15.5497C26.2556 15.4971 26.262 15.4431 26.2831 15.3942C26.3041 15.3453 26.339 15.3035 26.3834 15.274C26.4277 15.2445 26.4797 15.2285 26.533 15.228C26.5893 15.2295 26.6437 15.2491 26.688 15.284C26.6943 15.2548 26.7102 15.2285 26.7333 15.2095C26.7563 15.1904 26.7851 15.1797 26.815 15.179C26.8327 15.1791 26.8503 15.1828 26.8666 15.1897C26.8829 15.1966 26.8977 15.2066 26.9102 15.2192C26.9226 15.2319 26.9324 15.2468 26.9391 15.2633C26.9458 15.2797 26.9491 15.2973 26.949 15.315V15.654L27.619 15.724V15.996L26.949 16.066V18.316C27.1239 18.1891 27.3058 18.0722 27.494 17.966C27.685 17.8674 27.8497 17.7244 27.974 17.549L27.811 17.47ZM26.671 15.505C26.6706 15.4778 26.6622 15.4513 26.6468 15.4289C26.6314 15.4065 26.6097 15.3891 26.5844 15.3789C26.5592 15.3688 26.5315 15.3664 26.5049 15.3719C26.4782 15.3774 26.4538 15.3907 26.4347 15.4101C26.4156 15.4295 26.4027 15.4541 26.3975 15.4808C26.3924 15.5075 26.3952 15.5352 26.4057 15.5603C26.4162 15.5854 26.4339 15.6068 26.4565 15.6219C26.4792 15.637 26.5058 15.645 26.533 15.645C26.5698 15.6445 26.6049 15.6295 26.6307 15.6033C26.6565 15.5771 26.671 15.5418 26.671 15.505ZM26.108 8.335C26.0877 8.15815 26.0268 7.98839 25.93 7.839C25.7858 7.81974 25.6392 7.84522 25.51 7.912C25.4903 8.08776 25.5216 8.26548 25.6 8.424C25.7743 8.44346 25.9504 8.41294 26.108 8.336V8.335ZM27.1 8.257C27.145 8.212 27.03 7.857 26.98 7.804C26.8215 7.76747 26.6565 7.76953 26.499 7.81C26.4499 7.95877 26.4574 8.1204 26.52 8.264C26.7115 8.3046 26.9096 8.30221 27.1 8.257ZM28.1 8.35C28.15 8.313 28.118 7.966 28.076 7.907C27.9146 7.84337 27.7412 7.81606 27.568 7.827C27.4984 7.96361 27.483 8.12152 27.525 8.269C27.7083 8.33672 27.9041 8.36401 28.099 8.349L28.1 8.35Z"
		fill="#FFE15A"
	/>
	<path
		d="M29.553 6.281L29.369 6.503L29.152 6.4L27.913 8.112L26.415 8.172L25.395 7.286L25.881 6.573C26.1271 6.6612 26.3907 6.68965 26.65 6.656C27.3155 6.48683 27.9245 6.14459 28.415 5.664L28.775 5.856L28.625 6.06L28.47 5.996L27.809 6.647L27.947 6.784L29.152 6.017L29.553 6.281ZM26.816 7.958C26.5876 7.93356 26.3569 7.97241 26.1492 8.0703C25.9414 8.16819 25.7646 8.32134 25.638 8.513C25.2436 8.68071 24.9078 8.96154 24.673 9.32C24.9011 9.44253 25.1513 9.51834 25.409 9.543C25.7508 9.93963 25.9667 10.4291 26.029 10.949C25.8722 11.1418 25.7852 11.382 25.7821 11.6305C25.779 11.8791 25.86 12.1213 26.012 12.318C26.5569 12.1649 27.0577 11.8845 27.473 11.5H28.69C28.3301 10.7331 28.1473 9.89511 28.155 9.048C28.155 9.048 28.156 7.958 26.816 7.958Z"
		fill="#B49B91"
	/>
	<path
		d="M28.473 11.5H27.473C27.937 11.079 28.423 10.998 28.473 11.5ZM28.448 10.986C28.2597 10.357 28.1607 9.70459 28.154 9.048C28.154 9.048 28.154 9.03 28.152 9C27.6696 8.95049 27.1831 9.03783 26.748 9.252C26.329 9.44879 25.8719 9.54827 25.409 9.543C25.7508 9.93963 25.9667 10.4291 26.029 10.949L26.039 11.529C26.5234 11.5081 26.9903 11.3419 27.379 11.052C27.839 10.782 28.227 10.76 28.448 10.986ZM27.022 8.929C27.3808 8.80643 27.7676 8.79114 28.135 8.885C28.0753 8.59099 27.9051 8.33104 27.6596 8.15861C27.4141 7.98619 27.1128 7.91439 26.816 7.958C26.5876 7.93356 26.3569 7.97241 26.1492 8.0703C25.9416 8.16836 25.7644 8.32232 25.638 8.514L25.231 9.094C25.8322 9.18583 26.4477 9.12918 27.022 8.929ZM25.9 6.357C25.7771 6.35482 25.6564 6.38926 25.5532 6.45593C25.4499 6.52261 25.3689 6.6185 25.3203 6.7314C25.2718 6.8443 25.258 6.96909 25.2806 7.08988C25.3032 7.21067 25.3613 7.32199 25.4474 7.40966C25.5335 7.49733 25.6438 7.55739 25.7641 7.58218C25.8845 7.60697 26.0095 7.59537 26.1233 7.54886C26.237 7.50235 26.3344 7.42303 26.4029 7.32101C26.4714 7.219 26.508 7.09889 26.508 6.976C26.5093 6.8135 26.4462 6.6571 26.3324 6.54107C26.2186 6.42504 26.0625 6.35885 25.9 6.357ZM25.9 7.39C25.8179 7.39119 25.7372 7.36793 25.6684 7.32316C25.5995 7.2784 25.5455 7.21417 25.5133 7.13863C25.481 7.0631 25.4719 6.97967 25.4872 6.89897C25.5025 6.81827 25.5415 6.74395 25.5991 6.68545C25.6568 6.62695 25.7305 6.58692 25.811 6.57045C25.8915 6.55398 25.975 6.56182 26.051 6.59297C26.127 6.62412 26.192 6.67718 26.2378 6.74538C26.2836 6.81359 26.308 6.89386 26.308 6.976C26.3088 7.08483 26.2664 7.18954 26.1901 7.26715C26.1138 7.34476 26.0088 7.38894 25.9 7.39ZM26.082 6.976C26.0814 7.01186 26.0702 7.04675 26.0499 7.07628C26.0295 7.10582 26.0009 7.12868 25.9676 7.14199C25.9343 7.15531 25.8978 7.15849 25.8627 7.15113C25.8276 7.14377 25.7954 7.12621 25.7703 7.10064C25.7451 7.07507 25.7281 7.04264 25.7213 7.00742C25.7145 6.9722 25.7183 6.93576 25.7322 6.90268C25.746 6.86959 25.7693 6.84135 25.7992 6.82148C25.8291 6.80161 25.8641 6.791 25.9 6.791C25.9486 6.79153 25.9951 6.81128 26.0292 6.84595C26.0633 6.88061 26.0823 6.92737 26.082 6.976Z"
		fill="#9B8278"
	/>
	<path
		d="M27.022 15.043H26.609C26.5569 15.0425 26.5072 15.0213 26.4706 14.9842C26.4341 14.9471 26.4137 14.8971 26.414 14.845V14.151C26.4137 14.0989 26.4341 14.0489 26.4706 14.0118C26.5072 13.9747 26.5569 13.9535 26.609 13.953H27.022C27.0741 13.9535 27.1238 13.9747 27.1604 14.0118C27.1969 14.0489 27.2173 14.0989 27.217 14.151V14.845C27.2173 14.8971 27.1969 14.9471 27.1604 14.9842C27.1238 15.0213 27.0741 15.0425 27.022 15.043ZM16.301 0H18V1.133L13.067 4.421H18V7.579H13.067L18 10.867V12H16.301L10.552 8.167V12H7.448V8.167L1.699 12H0V10.867L4.933 7.579H0V4.421H4.933L0 1.133V0H1.699L7.448 3.833V0H10.552V3.833L16.301 0Z"
		fill="#F5F5F5"
	/>
	<path
		d="M12.178 7.579L18 11.423V12H17.512L11.038 7.579H12.178ZM5.688 4.421L0 0.664V0H0.166L6.828 4.421H5.688ZM6.291 7.579H7.431L0.738 12H0V11.729L6.291 7.579ZM17.245 0H18V0.253L11.692 4.421H10.552L17.245 0Z"
		fill="#FF4B55"
	/>
	<path
		d="M9.931 5.053H18V6.947H9.931V12H8.069V6.947H0V5.053H8.069V0H9.931V5.053Z"
		fill="#FF4B55"
	/>
</svg>
