<svg viewBox="0 0 36 24" fill="none" xmlns="http://www.w3.org/2000/svg">
	<path d="M36 24H0V0H36" fill="#41479B" />
	<path
		d="M33.517 18.947L34.137 19.579L33.517 20.21H8.69C8.52686 20.2035 8.37257 20.1341 8.25944 20.0164C8.14632 19.8987 8.08313 19.7418 8.08313 19.5785C8.08313 19.4152 8.14632 19.2583 8.25944 19.1406C8.37257 19.0229 8.52686 18.9535 8.69 18.947H33.517ZM34.137 18C34.1374 17.9589 34.1297 17.9181 34.1143 17.88C34.099 17.8419 34.0762 17.8071 34.0475 17.7778C34.0187 17.7484 33.9844 17.7251 33.9466 17.709C33.9087 17.6929 33.8681 17.6844 33.827 17.684H32.276C24.828 12.632 27.93 4.421 27.93 4.421C18.621 6.947 8.69 18.316 8.69 18.316H33.827C33.8681 18.3156 33.9087 18.3071 33.9466 18.291C33.9844 18.2749 34.0187 18.2516 34.0475 18.2222C34.0762 18.1929 34.099 18.1581 34.1143 18.12C34.1297 18.0819 34.1374 18.0411 34.137 18Z"
		fill="#FFE15A"
	/>
	<path
		d="M8.667 15.589L8.055 16.049L8.285 16.787C8.2922 16.8077 8.29259 16.8302 8.28611 16.8512C8.27963 16.8722 8.26663 16.8905 8.24899 16.9036C8.23136 16.9166 8.21001 16.9237 8.18807 16.9238C8.16613 16.9239 8.14473 16.9169 8.127 16.904L7.507 16.454L6.889 16.904C6.87127 16.9169 6.84988 16.9239 6.82793 16.9238C6.80599 16.9237 6.78464 16.9166 6.76701 16.9036C6.74937 16.8905 6.73637 16.8722 6.72989 16.8512C6.72341 16.8302 6.7238 16.8077 6.731 16.787L6.961 16.049L6.348 15.589C6.33056 15.5759 6.31761 15.5578 6.31096 15.537C6.30431 15.5163 6.30427 15.494 6.31087 15.4732C6.31746 15.4524 6.33035 15.4342 6.34776 15.4211C6.36516 15.408 6.38622 15.4006 6.408 15.4L7.17 15.394L7.41 14.66C7.41641 14.6391 7.42934 14.6209 7.44689 14.6079C7.46444 14.595 7.48568 14.588 7.5075 14.588C7.52932 14.588 7.55056 14.595 7.56811 14.6079C7.58566 14.6209 7.59859 14.6391 7.605 14.66L7.846 15.394L8.607 15.4C8.62878 15.4006 8.64984 15.408 8.66724 15.4211C8.68465 15.4342 8.69754 15.4524 8.70413 15.4732C8.71073 15.494 8.7107 15.5163 8.70404 15.537C8.69739 15.5578 8.68444 15.5759 8.667 15.589ZM7.064 5.684L6.878 6.284C6.87305 6.30055 6.87333 6.31822 6.87879 6.33461C6.88425 6.35099 6.89462 6.3653 6.90851 6.37557C6.92239 6.38585 6.9391 6.3916 6.95637 6.39203C6.97364 6.39246 6.99062 6.38756 7.005 6.378L7.508 6.012L8.01 6.378C8.02445 6.38812 8.04171 6.39343 8.05934 6.39319C8.07698 6.39295 8.09409 6.38716 8.10825 6.37665C8.12241 6.36614 8.13291 6.35144 8.13825 6.33463C8.14359 6.31782 8.1435 6.29976 8.138 6.283L7.952 5.684L8.448 5.311C8.46209 5.30046 8.47256 5.2858 8.47796 5.26905C8.48336 5.25231 8.48344 5.2343 8.47817 5.21751C8.4729 5.20072 8.46255 5.18597 8.44855 5.17532C8.43455 5.16466 8.41759 5.15861 8.4 5.158L7.782 5.153L7.587 4.557C7.58161 4.54028 7.57106 4.52571 7.55687 4.51537C7.54267 4.50503 7.52556 4.49946 7.508 4.49946C7.49044 4.49946 7.47333 4.50503 7.45913 4.51537C7.44494 4.52571 7.43439 4.54028 7.429 4.557L7.233 5.153L6.616 5.158C6.59833 5.15841 6.58123 5.16432 6.56707 5.1749C6.55291 5.18549 6.54241 5.20022 6.53702 5.21705C6.53163 5.23388 6.53162 5.25198 6.53699 5.26882C6.54237 5.28566 6.55286 5.3004 6.567 5.311L7.064 5.684ZM3.72 8.847L3.102 8.842L2.907 8.246C2.90161 8.22928 2.89106 8.21471 2.87687 8.20437C2.86267 8.19403 2.84556 8.18846 2.828 8.18846C2.81044 8.18846 2.79333 8.19403 2.77913 8.20437C2.76494 8.21471 2.75439 8.22928 2.749 8.246L2.554 8.842L1.936 8.847C1.91841 8.84761 1.90145 8.85366 1.88745 8.86432C1.87345 8.87497 1.8631 8.88972 1.85783 8.90651C1.85256 8.9233 1.85264 8.94131 1.85804 8.95805C1.86344 8.9748 1.87391 8.98946 1.888 9L2.385 9.373L2.199 9.973C2.19382 9.98969 2.19397 10.0076 2.19944 10.0242C2.2049 10.0408 2.21541 10.0553 2.2295 10.0656C2.24359 10.076 2.26055 10.0817 2.27803 10.0819C2.29551 10.0822 2.31262 10.0769 2.327 10.067L2.829 9.701L3.332 10.067C3.34645 10.0767 3.36358 10.0817 3.381 10.0813C3.39842 10.0809 3.41527 10.075 3.42922 10.0646C3.44317 10.0541 3.45354 10.0396 3.45887 10.023C3.46421 10.0065 3.46425 9.98861 3.459 9.972L3.273 9.373L3.77 9C3.78421 8.98935 3.79472 8.97451 3.80006 8.95758C3.80541 8.94065 3.80532 8.92247 3.7998 8.90559C3.79429 8.88871 3.78362 8.87399 3.76931 8.86348C3.755 8.85297 3.73775 8.84721 3.72 8.847ZM11.557 8.457L11.082 8.453L10.932 7.995C10.9279 7.98205 10.9198 7.97074 10.9088 7.96272C10.8978 7.95469 10.8846 7.95037 10.871 7.95037C10.8574 7.95037 10.8442 7.95469 10.8332 7.96272C10.8222 7.97074 10.8141 7.98205 10.81 7.995L10.66 8.453L10.185 8.457C10.1712 8.45692 10.1577 8.46125 10.1465 8.46935C10.1353 8.47746 10.127 8.48892 10.1228 8.50207C10.1185 8.51523 10.1186 8.52939 10.1229 8.5425C10.1273 8.55562 10.1357 8.567 10.147 8.575L10.53 8.862L10.386 9.322C10.3815 9.33487 10.3812 9.34886 10.3852 9.36191C10.3892 9.37496 10.3972 9.3864 10.4081 9.39455C10.4191 9.4027 10.4324 9.40714 10.446 9.40722C10.4596 9.40731 10.473 9.40302 10.484 9.395L10.871 9.115L11.258 9.395C11.269 9.40283 11.2821 9.40699 11.2956 9.4069C11.3091 9.40681 11.3222 9.40246 11.3331 9.39448C11.3439 9.3865 11.352 9.37529 11.3561 9.36246C11.3602 9.34962 11.3602 9.33581 11.356 9.323L11.213 8.862L11.595 8.575C11.6063 8.567 11.6147 8.55562 11.6191 8.5425C11.6234 8.52939 11.6235 8.51523 11.6192 8.50207C11.615 8.48892 11.6067 8.47746 11.5955 8.46935C11.5843 8.46125 11.5708 8.45692 11.557 8.457Z"
		fill="#F5F5F5"
	/>
</svg>
