<svg viewBox="0 0 36 24" fill="none" xmlns="http://www.w3.org/2000/svg">
	<path d="M36 24H0V0H36" fill="#82AFFF" />
	<path d="M18 12H0V0H18" fill="#41479B" />
	<path
		d="M17.018 20.18L16.173 20.815L16.49 21.835C16.4969 21.856 16.497 21.8787 16.4902 21.8998C16.4834 21.9209 16.4701 21.9393 16.4523 21.9524C16.4344 21.9655 16.4129 21.9726 16.3907 21.9727C16.3686 21.9728 16.347 21.9659 16.329 21.953L15.474 21.332L14.62 21.953C14.6019 21.9661 14.5802 21.9731 14.5579 21.973C14.5356 21.9729 14.5139 21.9657 14.4959 21.9525C14.478 21.9392 14.4647 21.9206 14.4581 21.8993C14.4515 21.878 14.4518 21.8551 14.459 21.834L14.776 20.815L13.931 20.18C13.9135 20.1666 13.9005 20.1482 13.8939 20.1271C13.8872 20.1061 13.8872 20.0835 13.8939 20.0625C13.9006 20.0415 13.9136 20.0231 13.9312 20.0097C13.9487 19.9964 13.97 19.9888 13.992 19.988L15.042 19.98L15.375 18.966C15.3815 18.9447 15.3947 18.926 15.4126 18.9127C15.4305 18.8994 15.4522 18.8923 15.4745 18.8923C15.4968 18.8923 15.5185 18.8994 15.5364 18.9127C15.5543 18.926 15.5675 18.9447 15.574 18.966L15.906 19.98L16.956 19.988C16.9781 19.9886 16.9995 19.9961 17.0172 20.0093C17.0349 20.0226 17.0481 20.041 17.0549 20.0621C17.0617 20.0831 17.0618 20.1058 17.0552 20.1269C17.0486 20.148 17.0356 20.1666 17.018 20.18ZM33.133 12.093L32.083 12.085L31.751 11.071C31.7448 11.0493 31.7317 11.0302 31.7136 11.0165C31.6956 11.0029 31.6736 10.9956 31.651 10.9956C31.6284 10.9956 31.6064 11.0029 31.5884 11.0165C31.5703 11.0302 31.5572 11.0493 31.551 11.071L31.219 12.085L30.169 12.093C30.1467 12.0935 30.1252 12.101 30.1073 12.1144C30.0895 12.1278 30.0763 12.1465 30.0696 12.1677C30.0629 12.189 30.063 12.2118 30.0699 12.233C30.0767 12.2542 30.0901 12.2727 30.108 12.286L30.952 12.921L30.636 13.939C30.6287 13.96 30.6283 13.9828 30.6348 14.0041C30.6413 14.0254 30.6544 14.044 30.6722 14.0574C30.69 14.0707 30.7116 14.0781 30.7338 14.0784C30.7561 14.0787 30.7779 14.0719 30.796 14.059L31.651 13.437L32.506 14.058C32.5241 14.0707 32.5457 14.0774 32.5678 14.0771C32.5899 14.0768 32.6113 14.0695 32.629 14.0563C32.6467 14.0431 32.6598 14.0247 32.6665 14.0036C32.6731 13.9826 32.673 13.96 32.666 13.939L32.35 12.921L33.195 12.286C33.213 12.2727 33.2264 12.2541 33.2332 12.2328C33.2401 12.2115 33.2401 12.1886 33.2332 12.1673C33.2264 12.146 33.213 12.1273 33.1951 12.114C33.1771 12.1007 33.1554 12.0933 33.133 12.093ZM30.953 4.394L30.636 5.414C30.6294 5.4349 30.6294 5.45735 30.6362 5.4782C30.643 5.49906 30.6561 5.51727 30.6738 5.53028C30.6914 5.5433 30.7127 5.55046 30.7346 5.55077C30.7565 5.55108 30.778 5.54451 30.796 5.532L31.651 4.911L32.506 5.532C32.5241 5.54469 32.5457 5.55136 32.5678 5.55106C32.5899 5.55076 32.6113 5.54351 32.629 5.53032C32.6467 5.51714 32.6598 5.49871 32.6665 5.47765C32.6731 5.45658 32.673 5.43396 32.666 5.413L32.35 4.394L33.195 3.759C33.2126 3.74557 33.2256 3.72702 33.2322 3.7059C33.2388 3.68478 33.2387 3.66214 33.2319 3.64108C33.2251 3.62002 33.2119 3.60159 33.1942 3.58833C33.1765 3.57506 33.1551 3.56761 33.133 3.567L32.083 3.559L31.751 2.545C31.7448 2.52327 31.7317 2.50415 31.7136 2.49054C31.6956 2.47693 31.6736 2.46957 31.651 2.46957C31.6284 2.46957 31.6064 2.47693 31.5884 2.49054C31.5703 2.50415 31.5572 2.52327 31.551 2.545L31.219 3.559L30.169 3.567C30.147 3.5678 30.1257 3.57539 30.1082 3.58874C30.0906 3.60208 30.0776 3.62052 30.0709 3.64153C30.0642 3.66254 30.0642 3.68511 30.0709 3.70614C30.0775 3.72716 30.0905 3.74563 30.108 3.759L30.953 4.394ZM22.11 15.257L21.259 14.631L21.564 13.609C21.5708 13.5879 21.5708 13.5651 21.5639 13.544C21.557 13.5229 21.5436 13.5045 21.5256 13.4915C21.5076 13.4785 21.4859 13.4716 21.4637 13.4717C21.4415 13.4717 21.4199 13.4789 21.402 13.492L20.554 14.123L19.694 13.512C19.6759 13.4991 19.6541 13.4923 19.6318 13.4926C19.6096 13.4929 19.588 13.5003 19.5702 13.5136C19.5524 13.527 19.5393 13.5456 19.5328 13.5669C19.5263 13.5882 19.5267 13.611 19.534 13.632L19.862 14.648L19.024 15.292C19.0064 15.3055 18.9933 15.3241 18.9868 15.3453C18.9802 15.3665 18.9804 15.3893 18.9873 15.4104C18.9942 15.4315 19.0075 15.4499 19.0254 15.4631C19.0433 15.4763 19.0648 15.4836 19.087 15.484L20.137 15.48L20.481 16.49C20.4877 16.5113 20.5011 16.5298 20.5191 16.5429C20.5372 16.556 20.5589 16.563 20.5812 16.5628C20.6035 16.5625 20.6252 16.5551 20.643 16.5417C20.6607 16.5282 20.6737 16.5094 20.68 16.488L21 15.47L22.051 15.45C22.0732 15.4493 22.0946 15.4416 22.1123 15.4281C22.13 15.4147 22.143 15.396 22.1496 15.3748C22.1562 15.3536 22.156 15.3309 22.1491 15.3098C22.1422 15.2886 22.1279 15.2702 22.11 15.257ZM22.033 19.638L21.181 19.013L21.486 17.991C21.4932 17.9698 21.4934 17.9469 21.4866 17.9256C21.4798 17.9042 21.4664 17.8856 21.4484 17.8725C21.4303 17.8593 21.4085 17.8522 21.3861 17.8523C21.3637 17.8524 21.342 17.8597 21.324 17.873L20.477 18.505L19.616 17.893C19.5979 17.8801 19.5761 17.8733 19.5538 17.8736C19.5316 17.8739 19.51 17.8813 19.4922 17.8946C19.4744 17.908 19.4613 17.9266 19.4548 17.9479C19.4483 17.9692 19.4487 17.992 19.456 18.013L19.784 19.029L18.946 19.674C18.9287 19.6876 18.916 19.7063 18.9097 19.7274C18.9034 19.7486 18.9038 19.7711 18.9108 19.792C18.9178 19.8129 18.9311 19.8312 18.9488 19.8442C18.9666 19.8573 18.988 19.8645 19.01 19.865L20.06 19.862L20.403 20.872C20.4095 20.8936 20.4229 20.9126 20.4412 20.9259C20.4594 20.9393 20.4815 20.9463 20.5041 20.946C20.5267 20.9456 20.5486 20.9379 20.5665 20.924C20.5843 20.9102 20.5971 20.8908 20.603 20.869L20.923 19.852L21.973 19.832C21.9955 19.8315 22.0172 19.824 22.0352 19.8105C22.0531 19.7969 22.0663 19.7781 22.073 19.7566C22.0796 19.7352 22.0793 19.7122 22.0721 19.6909C22.065 19.6696 22.0513 19.6511 22.033 19.638ZM26.572 18.533L25.72 17.908L26.025 16.885C26.0318 16.8639 26.0318 16.8411 26.0249 16.82C26.018 16.7989 26.0046 16.7805 25.9866 16.7675C25.9686 16.7545 25.9469 16.7476 25.9247 16.7477C25.9025 16.7477 25.8809 16.7549 25.863 16.768L25.016 17.4L24.154 16.788C24.1359 16.7751 24.1141 16.7683 24.0918 16.7686C24.0696 16.7689 24.048 16.7763 24.0302 16.7896C24.0124 16.803 23.9993 16.8216 23.9928 16.8429C23.9863 16.8642 23.9867 16.887 23.994 16.908L24.323 17.924L23.485 18.568C23.4673 18.5815 23.4543 18.6003 23.4477 18.6216C23.4412 18.6429 23.4414 18.6657 23.4485 18.6868C23.4555 18.708 23.469 18.7264 23.487 18.7395C23.505 18.7526 23.5267 18.7598 23.549 18.76L24.599 18.756L24.942 19.766C24.9484 19.7877 24.9617 19.8067 24.9799 19.8201C24.9981 19.8335 25.0202 19.8407 25.0428 19.8404C25.0654 19.8402 25.0873 19.8326 25.1052 19.8188C25.1231 19.805 25.136 19.7858 25.142 19.764L25.462 18.746L26.512 18.726C26.5342 18.7253 26.5556 18.7176 26.5733 18.7041C26.591 18.6907 26.604 18.672 26.6106 18.6508C26.6172 18.6296 26.617 18.6069 26.6101 18.5858C26.6032 18.5646 26.5899 18.5462 26.572 18.533ZM24.522 9.203L24.865 10.213C24.8717 10.2343 24.8851 10.2528 24.9031 10.2659C24.9212 10.279 24.9429 10.286 24.9652 10.2858C24.9875 10.2855 25.0092 10.2781 25.027 10.2647C25.0447 10.2512 25.0577 10.2324 25.064 10.211L25.384 9.194L26.434 9.174C26.4565 9.17353 26.4782 9.16599 26.4962 9.15246C26.5141 9.13894 26.5273 9.12011 26.534 9.09864C26.5406 9.07717 26.5403 9.05416 26.5331 9.03286C26.526 9.01157 26.5123 8.99307 26.494 8.98L25.642 8.355L25.948 7.333C25.9551 7.31173 25.9552 7.28873 25.9483 7.26738C25.9414 7.24603 25.9279 7.22746 25.9097 7.21438C25.8914 7.20129 25.8695 7.19439 25.8471 7.19469C25.8246 7.19498 25.8029 7.20245 25.785 7.216L24.938 7.847L24.077 7.235C24.0588 7.22192 24.0369 7.21501 24.0145 7.21528C23.992 7.21556 23.9703 7.223 23.9524 7.23653C23.9345 7.25005 23.9214 7.26894 23.9151 7.29044C23.9087 7.31194 23.9094 7.33492 23.917 7.356L24.245 8.371L23.407 9.016C23.3893 9.02954 23.3763 9.04827 23.3697 9.06957C23.3632 9.09088 23.3634 9.1137 23.3705 9.13484C23.3775 9.15599 23.391 9.1744 23.409 9.18752C23.427 9.20063 23.4487 9.20779 23.471 9.208L24.522 9.203ZM30.334 7.678L29.483 7.053L29.788 6.03C29.7948 6.00887 29.7948 5.98613 29.7879 5.96502C29.781 5.94392 29.7676 5.92554 29.7496 5.91254C29.7316 5.89954 29.7099 5.89258 29.6877 5.89267C29.6655 5.89275 29.6439 5.89987 29.626 5.913L28.779 6.544L27.917 5.933C27.8989 5.92012 27.8771 5.91333 27.8548 5.91362C27.8326 5.91391 27.811 5.92126 27.7932 5.93461C27.7754 5.94796 27.7623 5.96662 27.7558 5.9879C27.7493 6.00918 27.7497 6.03198 27.757 6.053L28.086 7.069L27.248 7.713C27.2304 7.72648 27.2173 7.74512 27.2108 7.76633C27.2042 7.78755 27.2044 7.81028 27.2113 7.83138C27.2182 7.85248 27.2315 7.8709 27.2494 7.88409C27.2673 7.89728 27.2888 7.90459 27.311 7.905L28.361 7.901L28.705 8.911C28.7117 8.93227 28.7251 8.95083 28.7431 8.96393C28.7612 8.97702 28.7829 8.98398 28.8052 8.98375C28.8275 8.98353 28.8492 8.97614 28.867 8.96268C28.8847 8.94922 28.8977 8.9304 28.904 8.909L29.225 7.891L30.275 7.871C30.2972 7.87026 30.3186 7.86262 30.3363 7.84915C30.354 7.83568 30.367 7.81704 30.3736 7.79582C30.3802 7.77461 30.38 7.75187 30.3731 7.73075C30.3662 7.70964 30.3519 7.6912 30.334 7.678Z"
		fill="#FFE15A"
	/>
	<path
		d="M18 1.133V0H16.3L10.55 3.833V0H7.449V3.833L1.698 0H0V1.133L4.933 4.42H0V7.58H4.933L0 10.867V12H1.699L7.449 8.167V12H10.552V8.167L16.302 12H18V10.867L13.067 7.58H18V4.421H13.067L18 1.133Z"
		fill="#F5F5F5"
	/>
	<path
		d="M18 6.947H9.93V12H8.069V6.947H0V5.053H8.069V0H9.93V5.053H18V6.947ZM0 12H0.738L7.43 7.579H6.29L0 11.736M18 11.425L12.178 7.579H11.038L17.735 12H18M0 0.664L5.688 4.421H6.828L0.12 0H0M17.245 0L10.552 4.421H11.692L18 0.253V0"
		fill="#FF4B55"
	/>
</svg>
