<svg viewBox="0 0 36 24" fill="none" xmlns="http://www.w3.org/2000/svg">
	<path d="M36 24H0V0H36" fill="#464655" />
	<path d="M0 24H36V13.895H18" fill="#73AF00" />
	<path d="M0 0L18 10.105H36V0" fill="#FF4B55" />
	<path
		d="M36 11.368V12.632H17.539L0 22.478V21.035L16.094 12L0 2.965V1.522L17.539 11.368H36ZM6.417 11.608C6.41147 12.1847 6.19381 12.7391 5.80556 13.1656C5.4173 13.592 4.88563 13.8606 4.312 13.92V15.175C5.09511 15.16 5.846 14.8605 6.4244 14.3324C7.0028 13.8042 7.36914 13.0835 7.455 12.305C7.66867 11.5193 7.57186 10.6816 7.18462 9.96538C6.79738 9.24917 6.1494 8.70942 5.375 8.458C4.72968 8.26425 4.03722 8.29947 3.41489 8.55769C2.79255 8.81592 2.27858 9.28129 1.96 9.875C1.7 10.446 1.22 13.035 3.618 13.448C3.90321 13.5303 4.20398 13.543 4.49513 13.4851C4.78627 13.4273 5.05932 13.3005 5.2914 13.1154C5.52348 12.9304 5.70783 12.6924 5.82903 12.4214C5.95023 12.1504 6.00474 11.8544 5.988 11.558C5.88 11.925 5.686 12.971 3.955 12.971C3.50317 12.8684 3.10697 12.5984 2.84611 12.2155C2.58525 11.8326 2.4791 11.365 2.549 10.907C2.61929 10.4881 2.82898 10.1053 3.14407 9.82052C3.45916 9.53574 3.86119 9.36571 4.285 9.338C4.57784 9.3344 4.86823 9.39175 5.13772 9.5064C5.40721 9.62105 5.64991 9.79049 5.8504 10.004C6.0509 10.2174 6.2048 10.4703 6.30234 10.7464C6.39989 11.0226 6.43893 11.316 6.417 11.608ZM3.413 11.538C3.37144 11.5927 3.34865 11.6593 3.348 11.728L3.343 12.066L3.278 12.18C3.26661 12.2 3.26347 12.2236 3.26927 12.2458C3.27506 12.2681 3.28932 12.2871 3.309 12.299C3.31872 12.3048 3.32952 12.3086 3.34075 12.3102C3.35197 12.3117 3.3634 12.311 3.37433 12.308C3.38526 12.305 3.39547 12.2998 3.40435 12.2928C3.41323 12.2857 3.4206 12.277 3.426 12.267L3.493 12.149L3.757 12.051C3.7969 12.0362 3.83341 12.0136 3.86434 11.9844C3.89527 11.9552 3.91999 11.92 3.937 11.881C4.05783 11.6138 4.2117 11.3629 4.395 11.134C4.57865 11.3628 4.73286 11.6138 4.854 11.881C4.87101 11.92 4.89573 11.9552 4.92666 11.9844C4.95759 12.0136 4.9941 12.0362 5.034 12.051L5.298 12.149L5.365 12.267C5.3704 12.277 5.37777 12.2857 5.38665 12.2928C5.39553 12.2998 5.40574 12.305 5.41667 12.308C5.4276 12.311 5.43903 12.3117 5.45025 12.3102C5.46148 12.3086 5.47228 12.3048 5.482 12.299C5.50151 12.287 5.51556 12.2678 5.52117 12.2456C5.52677 12.2234 5.52348 12.1998 5.512 12.18L5.448 12.066L5.443 11.728C5.44242 11.6593 5.41962 11.5927 5.378 11.538C5.17319 11.2778 4.94196 11.0395 4.688 10.827C4.88205 10.6346 5.10468 10.4734 5.348 10.349C5.37787 10.3337 5.40172 10.3089 5.41569 10.2784C5.42967 10.2479 5.43295 10.2136 5.425 10.181C5.42017 10.1598 5.41065 10.1399 5.39714 10.1228C5.38362 10.1057 5.36645 10.0918 5.34689 10.0823C5.32733 10.0727 5.30587 10.0676 5.28409 10.0674C5.26231 10.0671 5.24075 10.0718 5.221 10.081C4.93038 10.2226 4.65381 10.3913 4.395 10.585C4.13645 10.3915 3.86022 10.2227 3.57 10.081C3.55021 10.0716 3.52855 10.0668 3.50665 10.0669C3.48474 10.0671 3.46314 10.0721 3.44346 10.0817C3.42377 10.0913 3.40649 10.1052 3.39291 10.1224C3.37933 10.1396 3.36979 10.1596 3.365 10.181C3.35732 10.2137 3.36083 10.248 3.37497 10.2785C3.38911 10.3089 3.41307 10.3338 3.443 10.349C3.68631 10.4734 3.90894 10.6346 4.103 10.827C3.84909 11.0396 3.61786 11.2778 3.413 11.538Z"
		fill="#FFE15A"
	/>
</svg>
