<svg
	color="rgb(var(--foreground, 0, 0, 0))"
	viewBox="0 0 13 20"
	fill="none"
	xmlns="http://www.w3.org/2000/svg"
>
	<path
		d="M6.49639 19.5C7.0476 19.5 7.57022 19.3621 8.06424 19.0864C8.56345 18.816 9.00547 18.4422 9.39028 17.965C9.77509 17.4932 10.0767 16.9577 10.2951 16.3585C10.5187 15.7594 10.6305 15.1337 10.6305 14.4816C10.6305 14.2801 10.6123 14.0945 10.5759 13.9249C10.5395 13.7552 10.4875 13.5988 10.4199 13.4556C10.5343 13.4874 10.6461 13.5193 10.7553 13.5511C10.8697 13.5776 10.9815 13.6067 11.0907 13.6386C11.3611 13.7128 11.5406 13.8135 11.629 13.9408C11.7226 14.0627 11.7512 14.243 11.7148 14.4816L11.1453 18.2911C11.1089 18.5191 11.1479 18.6967 11.2623 18.824C11.3819 18.9512 11.5328 19.0149 11.7148 19.0149C11.9072 19.0149 12.0502 18.9565 12.1438 18.8399C12.2374 18.7285 12.2998 18.5748 12.331 18.3786L12.9706 14.2509C13.0434 13.7844 12.981 13.4185 12.7834 13.1534C12.591 12.883 12.2452 12.6895 11.746 12.5728L8.22804 11.7378L8.22024 11.6582C8.39185 11.5734 8.53226 11.4567 8.64146 11.3083C8.75066 11.1545 8.83126 10.9875 8.88327 10.8072L11.2779 10.4573C11.7668 10.3884 12.123 10.2161 12.3466 9.94035C12.5754 9.66464 12.6898 9.28024 12.6898 8.78715V6.03537C12.6898 5.8445 12.6378 5.69604 12.5338 5.59C12.4298 5.47865 12.2842 5.42298 12.097 5.42298C11.9098 5.42298 11.7642 5.47865 11.6602 5.59C11.5562 5.69604 11.5042 5.8445 11.5042 6.03537V8.5406C11.5042 8.82161 11.4339 9.02044 11.2935 9.13709C11.1531 9.24843 10.9555 9.32266 10.7007 9.35977L8.91447 9.60632C8.87287 9.48437 8.81306 9.37038 8.73506 9.26434C8.65706 9.15829 8.56606 9.06816 8.46205 8.99393V8.9144C9.12767 8.79245 9.63989 8.5353 9.9987 8.14295C10.3575 7.74529 10.5369 7.24424 10.5369 6.63981C10.5369 6.13081 10.4485 5.64832 10.2717 5.19234C10.1001 4.73636 9.8609 4.33075 9.55409 3.97551L9.62429 3.91984C10.0039 3.64413 10.2275 3.3101 10.2951 2.91775C10.3627 2.52009 10.2743 2.10123 10.0299 1.66116L9.56969 0.889703C9.42408 0.629901 9.23688 0.5 9.00807 0.5C8.84686 0.5 8.71166 0.553021 8.60246 0.659062C8.49845 0.765104 8.44645 0.895005 8.44645 1.04877C8.44645 1.11769 8.45165 1.17867 8.46205 1.23169C8.47765 1.28471 8.50885 1.35098 8.55566 1.43051L8.96127 2.05881C9.08607 2.26559 9.14587 2.45912 9.14067 2.63939C9.13547 2.81436 9.05227 2.97342 8.89107 3.11658C8.87027 3.13248 8.84947 3.15104 8.82866 3.17225C8.80786 3.18815 8.78446 3.20406 8.75846 3.21997C8.43605 2.99728 8.08244 2.82496 7.69763 2.70301C7.31281 2.57576 6.9124 2.51214 6.49639 2.51214C6.08557 2.51214 5.69036 2.57576 5.31075 2.70301C4.93114 2.82496 4.58273 2.99463 4.26551 3.21201C4.24471 3.20141 4.22131 3.1855 4.19531 3.16429C4.17451 3.14309 4.15371 3.12453 4.13291 3.10862C3.97691 2.96547 3.8937 2.8064 3.8833 2.63144C3.8781 2.45647 3.9405 2.26559 4.07051 2.05881L4.47612 1.43051C4.51772 1.35098 4.54632 1.28471 4.56192 1.23169C4.57752 1.17867 4.58533 1.11769 4.58533 1.04877C4.58533 0.895005 4.53072 0.765104 4.42152 0.659062C4.31752 0.553021 4.18491 0.5 4.02371 0.5C3.7897 0.5 3.60249 0.629901 3.46209 0.889703L3.00187 1.66116C2.75747 2.10123 2.66906 2.52009 2.73667 2.91775C2.80427 3.3101 3.02787 3.64413 3.40749 3.91984L3.46209 3.95961C3.15008 4.31485 2.90307 4.72311 2.72106 5.18439C2.54426 5.64567 2.45586 6.13081 2.45586 6.63981C2.45586 7.24424 2.63526 7.74529 2.99407 8.14295C3.35809 8.5353 3.8729 8.79245 4.53852 8.9144V8.99393C4.42932 9.06816 4.33572 9.15829 4.25771 9.26434C4.18491 9.37038 4.12771 9.48437 4.08611 9.60632L2.29985 9.35977C2.04504 9.32266 1.84744 9.24843 1.70703 9.13709C1.56663 9.02044 1.49642 8.82161 1.49642 8.5406V6.03537C1.49642 5.8445 1.44442 5.69604 1.34042 5.59C1.23642 5.47865 1.09081 5.42298 0.903606 5.42298C0.7164 5.42298 0.570795 5.47865 0.466792 5.59C0.362788 5.69604 0.310787 5.8445 0.310787 6.03537V8.78715C0.310787 9.28024 0.42259 9.66464 0.646197 9.94035C0.875005 10.2161 1.23382 10.3884 1.72263 10.4573L4.11731 10.8072C4.16931 10.9875 4.24991 11.1545 4.35912 11.3083C4.46832 11.4567 4.60873 11.5734 4.78033 11.6582V11.7378L1.25462 12.5728C0.750201 12.6895 0.401789 12.883 0.209383 13.1534C0.016977 13.4185 -0.0428249 13.7844 0.0299774 14.2509L0.669598 18.3786C0.695599 18.5748 0.755401 18.7285 0.849004 18.8399C0.947807 18.9565 1.09341 19.0149 1.28582 19.0149C1.46782 19.0149 1.61603 18.9512 1.73043 18.824C1.85004 18.6967 1.89164 18.5191 1.85524 18.2911L1.28582 14.4816C1.24942 14.243 1.27542 14.0627 1.36382 13.9408C1.45742 13.8135 1.63943 13.7128 1.90984 13.6386C2.01904 13.6067 2.12825 13.5776 2.23745 13.5511C2.35185 13.5193 2.46366 13.4874 2.57286 13.4556C2.50526 13.5988 2.45326 13.7552 2.41685 13.9249C2.38565 14.0945 2.37005 14.2801 2.37005 14.4816C2.37005 15.1337 2.47926 15.7594 2.69766 16.3585C2.92127 16.9577 3.22548 17.4932 3.61029 17.965C3.99511 18.4422 4.43452 18.816 4.92854 19.0864C5.42255 19.3621 5.94517 19.5 6.49639 19.5Z"
		fill="currentColor"
	/>
</svg>
