<svg
	color="rgb(var(--foreground, 0, 0, 0))"
	viewBox="0 0 13 20"
	fill="none"
	xmlns="http://www.w3.org/2000/svg"
>
	<path
		d="M6.49639 19.5C7.04761 19.5 7.57022 19.3621 8.06424 19.0864C8.56346 18.816 9.00547 18.4422 9.39028 17.965C9.77509 17.4932 10.0767 16.9577 10.2951 16.3585C10.5187 15.7594 10.6305 15.1337 10.6305 14.4816C10.6305 13.9249 10.5317 13.4636 10.3341 13.0977C10.1417 12.7319 9.8713 12.4429 9.52289 12.2308C9.17448 12.0135 8.76626 11.8491 8.29825 11.7378V11.6582C8.53225 11.5416 8.71426 11.3666 8.84426 11.1333C8.97427 10.9 9.05227 10.6455 9.07827 10.3698C9.10427 10.0941 9.07307 9.83166 8.98467 9.58246C8.89627 9.33326 8.74806 9.13709 8.54005 8.99393V8.9144C9.20568 8.79245 9.70489 8.5353 10.0377 8.14295C10.3705 7.74529 10.5369 7.24424 10.5369 6.63981C10.5369 6.07249 10.4303 5.53963 10.2171 5.04123C10.0091 4.54284 9.71789 4.10541 9.34348 3.72897C8.97427 3.34722 8.54525 3.0503 8.05644 2.83822C7.57282 2.62083 7.05281 2.51214 6.49639 2.51214C5.94517 2.51214 5.42515 2.62083 4.93634 2.83822C4.45272 3.0503 4.02371 3.34722 3.6493 3.72897C3.28008 4.10541 2.98887 4.54284 2.77567 5.04123C2.56246 5.53963 2.45586 6.07249 2.45586 6.63981C2.45586 7.24424 2.62226 7.74529 2.95507 8.14295C3.29308 8.5353 3.7949 8.79245 4.46052 8.9144V8.99393C4.25251 9.13709 4.10431 9.33326 4.01591 9.58246C3.9275 9.83166 3.8937 10.0941 3.9145 10.3698C3.9405 10.6455 4.01851 10.9 4.14851 11.1333C4.28372 11.3666 4.46832 11.5416 4.70233 11.6582V11.7378C4.23951 11.8491 3.8313 12.0135 3.47769 12.2308C3.12928 12.4429 2.85627 12.7319 2.65866 13.0977C2.46626 13.4636 2.37005 13.9249 2.37005 14.4816C2.37005 15.1337 2.47926 15.7594 2.69766 16.3585C2.92127 16.9577 3.22548 17.4932 3.61029 17.965C3.99511 18.4422 4.43452 18.816 4.92854 19.0864C5.42255 19.3621 5.94517 19.5 6.49639 19.5ZM6.49639 18.1718C6.09597 18.1718 5.72156 18.0658 5.37315 17.8537C5.02994 17.6416 4.72833 17.3606 4.46832 17.0107C4.20831 16.6607 4.00551 16.279 3.8599 15.8654C3.7143 15.4519 3.64149 15.0463 3.64149 14.6486C3.64149 14.1184 3.7897 13.7022 4.08611 13.4C4.38772 13.0924 4.83233 12.9387 5.41995 12.9387H7.58062C8.16304 12.9387 8.60246 13.0924 8.89887 13.4C9.20048 13.7022 9.35128 14.1184 9.35128 14.6486C9.35128 15.0463 9.27848 15.4519 9.13287 15.8654C8.99247 16.279 8.79226 16.6607 8.53225 17.0107C8.27225 17.3606 7.96804 17.6416 7.61962 17.8537C7.27641 18.0658 6.902 18.1718 6.49639 18.1718ZM5.08454 10.1392C5.08454 9.77334 5.18855 9.48968 5.39655 9.2882C5.60456 9.08672 5.89837 8.98598 6.27798 8.98598C6.35078 8.98598 6.42359 8.98598 6.49639 8.98598C6.57439 8.98598 6.65239 8.98598 6.7304 8.98598C7.10481 8.98598 7.39342 9.08672 7.59622 9.2882C7.80423 9.48968 7.90823 9.77334 7.90823 10.1392C7.90823 10.5899 7.77823 10.9796 7.51822 11.3083C7.25821 11.637 6.9488 11.8014 6.58999 11.8014C6.55879 11.8014 6.52759 11.8014 6.49639 11.8014C6.47039 11.8014 6.44179 11.8014 6.41059 11.8014C6.05177 11.8014 5.73976 11.637 5.47456 11.3083C5.21455 10.9796 5.08454 10.5899 5.08454 10.1392ZM5.09234 7.74529C4.80633 7.74529 4.56192 7.70022 4.35912 7.61009C4.16151 7.51995 4.00811 7.39005 3.8989 7.22038C3.7949 7.04542 3.7429 6.83598 3.7429 6.59209C3.7429 6.22094 3.8157 5.87101 3.96131 5.54228C4.11211 5.20825 4.31492 4.91398 4.56973 4.65948C4.82973 4.39968 5.12354 4.1982 5.45115 4.05504C5.78396 3.90659 6.13238 3.83236 6.49639 3.83236C6.8656 3.83236 7.21401 3.90659 7.54162 4.05504C7.87443 4.1982 8.16824 4.39968 8.42305 4.65948C8.68306 4.91398 8.88587 5.20825 9.03147 5.54228C9.18228 5.87101 9.25768 6.22094 9.25768 6.59209C9.25768 6.83598 9.20308 7.04542 9.09387 7.22038C8.98987 7.39005 8.83646 7.51995 8.63366 7.61009C8.43085 7.70022 8.18904 7.74529 7.90823 7.74529H5.09234ZM1.28582 19.0149C1.46782 19.0149 1.61603 18.9512 1.73043 18.824C1.85004 18.6967 1.89164 18.5191 1.85524 18.2911L1.28582 14.4816C1.24942 14.243 1.27542 14.0627 1.36382 13.9408C1.45742 13.8135 1.63943 13.7128 1.90984 13.6386L4.70233 12.8751V11.7378L1.25462 12.5728C0.750201 12.6948 0.40179 12.8883 0.209383 13.1534C0.016977 13.4185 -0.0428249 13.7844 0.0299774 14.2509L0.669598 18.3786C0.695599 18.5748 0.755401 18.7285 0.849004 18.8399C0.947807 18.9565 1.09341 19.0149 1.28582 19.0149ZM11.7148 19.0149C11.9072 19.0149 12.0502 18.9565 12.1438 18.8399C12.2374 18.7285 12.2998 18.5748 12.331 18.3786L12.9706 14.2509C13.0434 13.7844 12.981 13.4185 12.7834 13.1534C12.591 12.8883 12.2452 12.6948 11.746 12.5728L8.29825 11.7378V12.8751L11.0907 13.6386C11.3611 13.7128 11.5406 13.8135 11.629 13.9408C11.7226 14.0627 11.7512 14.243 11.7148 14.4816L11.1453 18.2911C11.1089 18.5191 11.1479 18.6967 11.2623 18.824C11.3819 18.9512 11.5328 19.0149 11.7148 19.0149ZM4.58533 10.8868V9.6938L2.29985 9.35977C2.04504 9.31736 1.84744 9.24048 1.70703 9.12913C1.56663 9.01779 1.49643 8.82161 1.49643 8.5406V6.03537C1.49643 5.8445 1.44442 5.69604 1.34042 5.59C1.23642 5.47865 1.09081 5.42298 0.903606 5.42298C0.7164 5.42298 0.570795 5.47865 0.466792 5.59C0.362788 5.69604 0.310787 5.8445 0.310787 6.03537V8.78715C0.310787 9.28024 0.42259 9.66464 0.646198 9.94035C0.875005 10.2161 1.23382 10.3884 1.72263 10.4573L4.58533 10.8868ZM8.41525 10.8868L11.2779 10.4573C11.7668 10.3884 12.123 10.2161 12.3466 9.94035C12.5754 9.66464 12.6898 9.28024 12.6898 8.78715V6.03537C12.6898 5.8445 12.6378 5.69604 12.5338 5.59C12.4298 5.47865 12.2842 5.42298 12.097 5.42298C11.9098 5.42298 11.7642 5.47865 11.6602 5.59C11.5562 5.69604 11.5042 5.8445 11.5042 6.03537V8.5406C11.5042 8.82161 11.4339 9.01779 11.2935 9.12913C11.1531 9.24048 10.9555 9.31736 10.7007 9.35977L8.41525 9.6938V10.8868ZM4.17191 4.46861L4.82713 3.62558L4.21871 3.1802C4.02111 3.03704 3.9119 2.87268 3.8911 2.68711C3.8755 2.49623 3.9353 2.2868 4.07051 2.05881L4.47612 1.43051C4.51772 1.35098 4.54632 1.28471 4.56192 1.23169C4.57753 1.17867 4.58533 1.11769 4.58533 1.04877C4.58533 0.895005 4.53072 0.765104 4.42152 0.659062C4.31752 0.553021 4.18491 0.5 4.02371 0.5C3.7897 0.5 3.60249 0.629901 3.46209 0.889703L3.00187 1.66116C2.75747 2.10123 2.66906 2.52009 2.73667 2.91775C2.80427 3.3101 3.02788 3.64413 3.40749 3.91984L4.17191 4.46861ZM8.84426 4.47656L9.62429 3.91984C10.0039 3.64413 10.2275 3.3101 10.2951 2.91775C10.3627 2.52009 10.2743 2.10123 10.0299 1.66116L9.56969 0.889703C9.42408 0.629901 9.23688 0.5 9.00807 0.5C8.84686 0.5 8.71166 0.553021 8.60246 0.659062C8.49845 0.765104 8.44645 0.895005 8.44645 1.04877C8.44645 1.11769 8.45165 1.17867 8.46205 1.23169C8.47765 1.28471 8.50885 1.35098 8.55566 1.43051L8.96127 2.05881C9.09647 2.2868 9.15368 2.49623 9.13287 2.68711C9.11207 2.87268 9.00547 3.03704 8.81306 3.1802L8.18904 3.63353L8.84426 4.47656Z"
		fill="currentColor"
	/>
</svg>
