<svg
	color="rgb(var(--foreground, 0, 0, 0))"
	viewBox="0 0 17 20"
	fill="none"
	xmlns="http://www.w3.org/2000/svg"
>
	<path
		d="M8.49201 11.3815C9.25918 11.3815 9.9784 11.2369 10.6497 10.9478C11.3209 10.6533 11.9096 10.2517 12.4157 9.74297C12.9272 9.22892 13.3268 8.63454 13.6144 7.95984C13.9075 7.28514 14.054 6.56225 14.054 5.79116C14.054 5.74833 14.0513 5.69746 14.046 5.63855C14.0407 5.5743 14.038 5.51539 14.038 5.46185C14.4802 5.4083 14.8771 5.25569 15.2287 5.00402C15.5856 4.74699 15.8653 4.4257 16.0678 4.04016C16.2702 3.64926 16.3715 3.22356 16.3715 2.76305C16.3715 2.25971 16.2463 1.7992 15.9959 1.38153C15.7508 0.958501 15.4178 0.623829 14.9969 0.37751C14.5814 0.125837 14.1206 0 13.6144 0C13.1829 0 12.778 0.0963855 12.3998 0.289157C12.0215 0.476573 11.7072 0.736278 11.4568 1.06827C11.0093 0.789826 10.5325 0.575636 10.0263 0.425703C9.52555 0.27577 9.01411 0.200803 8.49201 0.200803C7.96991 0.200803 7.4558 0.27577 6.94968 0.425703C6.44356 0.575636 5.96941 0.789826 5.52723 1.06827C5.27683 0.736278 4.96251 0.476573 4.58425 0.289157C4.20599 0.0963855 3.8011 0 3.36957 0C2.86345 0 2.39995 0.125837 1.97908 0.37751C1.56353 0.623829 1.23056 0.958501 0.980161 1.38153C0.735093 1.7992 0.61256 2.25971 0.61256 2.76305C0.61256 3.22356 0.713783 3.64926 0.91623 4.04016C1.11868 4.4257 1.39571 4.74699 1.74733 5.00402C2.10427 5.25569 2.50384 5.4083 2.94603 5.46185C2.94603 5.51539 2.94336 5.5743 2.93804 5.63855C2.93271 5.69746 2.93004 5.74833 2.93004 5.79116C2.93004 6.56225 3.07389 7.28514 3.36158 7.95984C3.65459 8.63454 4.05416 9.22892 4.56028 9.74297C5.07172 10.2517 5.66308 10.6533 6.33435 10.9478C7.00562 11.2369 7.72484 11.3815 8.49201 11.3815ZM8.49201 10.2249C7.88467 10.2249 7.31462 10.1098 6.78186 9.87952C6.24911 9.64926 5.78028 9.33066 5.37539 8.9237C4.9705 8.51673 4.65351 8.04552 4.42442 7.51004C4.19534 6.97456 4.0808 6.40161 4.0808 5.79116C4.0808 5.65194 4.09145 5.47523 4.11276 5.26104C4.13407 5.04685 4.19267 4.76573 4.28857 4.41767L4.20067 4.33735C4.05682 4.37483 3.91564 4.40161 3.77713 4.41767C3.63861 4.42838 3.50276 4.43373 3.36957 4.43373C3.07122 4.43373 2.79686 4.36145 2.54646 4.21687C2.30139 4.06693 2.10427 3.86881 1.9551 3.62249C1.81126 3.37082 1.73934 3.09237 1.73934 2.78715C1.73934 2.48728 1.81126 2.21419 1.9551 1.96787C2.10427 1.72155 2.30139 1.5261 2.54646 1.38153C2.79686 1.23159 3.07122 1.15663 3.36957 1.15663C3.79577 1.15663 4.16337 1.30388 4.47237 1.59839C4.78137 1.88755 4.94919 2.23829 4.97582 2.6506C4.97582 2.68809 4.97582 2.72825 4.97582 2.77108C4.97582 2.80857 4.97316 2.84605 4.96783 2.88353L5.13565 2.93173C5.57251 2.42303 6.07596 2.03213 6.64601 1.75904C7.22139 1.48594 7.83672 1.3494 8.49201 1.3494C9.1473 1.3494 9.75996 1.48594 10.33 1.75904C10.9054 2.03213 11.4115 2.42303 11.8484 2.93173L12.0162 2.88353C12.0109 2.84605 12.0082 2.80857 12.0082 2.77108C12.0082 2.72825 12.0082 2.68809 12.0082 2.6506C12.0348 2.23829 12.2026 1.88755 12.5116 1.59839C12.8206 1.30388 13.1882 1.15663 13.6144 1.15663C13.9128 1.15663 14.1845 1.23159 14.4296 1.38153C14.68 1.5261 14.8771 1.72155 15.0209 1.96787C15.1701 2.21419 15.2447 2.48728 15.2447 2.78715C15.2447 3.09237 15.1701 3.37082 15.0209 3.62249C14.8771 3.86881 14.68 4.06693 14.4296 4.21687C14.1845 4.36145 13.9128 4.43373 13.6144 4.43373C13.4813 4.43373 13.3427 4.42838 13.1989 4.41767C13.0604 4.40161 12.9219 4.37483 12.7834 4.33735L12.6954 4.41767C12.7913 4.76573 12.8499 5.04685 12.8713 5.26104C12.8926 5.47523 12.9032 5.65194 12.9032 5.79116C12.9032 6.40161 12.7887 6.97456 12.5596 7.51004C12.3305 8.04552 12.0135 8.51673 11.6086 8.9237C11.2037 9.33066 10.7349 9.64926 10.2022 9.87952C9.6694 10.1098 9.09935 10.2249 8.49201 10.2249ZM8.50799 11.1566C9.00345 11.1566 9.4563 11.0335 9.86652 10.7871C10.2767 10.5408 10.6044 10.2115 10.8495 9.7992C11.0998 9.38688 11.225 8.92905 11.225 8.4257C11.225 7.92236 11.1025 7.46452 10.8574 7.05221C10.6124 6.63989 10.2847 6.31058 9.87451 6.06426C9.46429 5.81794 9.00878 5.69478 8.50799 5.69478C8.0072 5.69478 7.5517 5.82062 7.14147 6.07229C6.73125 6.31861 6.40361 6.64792 6.15854 7.06024C5.91347 7.47256 5.79094 7.92771 5.79094 8.4257C5.79094 8.92905 5.91081 9.38956 6.15055 9.80723C6.39562 10.2195 6.72326 10.5489 7.13348 10.7952C7.54903 11.0361 8.0072 11.1566 8.50799 11.1566ZM8.50799 10.1606C8.18834 10.1606 7.89799 10.083 7.63694 9.92771C7.37589 9.77242 7.16811 9.56359 7.01361 9.30121C6.85911 9.03882 6.78186 8.74699 6.78186 8.4257C6.78186 8.10977 6.85911 7.82062 7.01361 7.55823C7.16811 7.29585 7.37589 7.08701 7.63694 6.93173C7.89799 6.77644 8.18834 6.6988 8.50799 6.6988C8.82232 6.6988 9.11 6.77644 9.37105 6.93173C9.6321 7.08701 9.83988 7.29585 9.99438 7.55823C10.1489 7.82062 10.2261 8.10977 10.2261 8.4257C10.2261 8.74699 10.1489 9.03882 9.99438 9.30121C9.83988 9.56359 9.6321 9.77242 9.37105 9.92771C9.11 10.083 8.82232 10.1606 8.50799 10.1606ZM6.5661 5.42972C6.75789 5.42972 6.92038 5.36278 7.05357 5.22892C7.19209 5.08969 7.26134 4.92369 7.26134 4.73092C7.26134 4.53815 7.19209 4.37483 7.05357 4.24096C6.92038 4.10174 6.75789 4.03213 6.5661 4.03213C6.38496 4.03213 6.22514 4.10174 6.08662 4.24096C5.9481 4.37483 5.87884 4.53815 5.87884 4.73092C5.87884 4.92369 5.9481 5.08969 6.08662 5.22892C6.22514 5.36278 6.38496 5.42972 6.5661 5.42972ZM10.4259 5.42972C10.607 5.42972 10.7669 5.36278 10.9054 5.22892C11.0439 5.08969 11.1132 4.92369 11.1132 4.73092C11.1132 4.53815 11.0439 4.37483 10.9054 4.24096C10.7669 4.10174 10.607 4.03213 10.4259 4.03213C10.2341 4.03213 10.069 4.10174 9.93045 4.24096C9.79726 4.37483 9.73066 4.53815 9.73066 4.73092C9.73066 4.92369 9.79726 5.08969 9.93045 5.22892C10.069 5.36278 10.2341 5.42972 10.4259 5.42972ZM8.49201 8.6747C8.64118 8.6747 8.80367 8.61847 8.97948 8.50602C9.16062 8.38822 9.31778 8.26238 9.45097 8.12851C9.58416 7.98929 9.65075 7.89023 9.65075 7.83133C9.65075 7.67604 9.53887 7.51539 9.31511 7.3494C9.09669 7.1834 8.82232 7.1004 8.49201 7.1004C8.15637 7.1004 7.87401 7.1834 7.64493 7.3494C7.42117 7.51539 7.30929 7.67604 7.30929 7.83133C7.30929 7.89023 7.37589 7.98929 7.50908 8.12851C7.64759 8.26238 7.81008 8.38822 7.99655 8.50602C8.18301 8.61847 8.34816 8.6747 8.49201 8.6747ZM4.92788 20C5.48194 20 5.98273 19.8233 6.43025 19.4699C6.88309 19.1218 7.2427 18.6533 7.50908 18.0643C7.77545 17.4752 7.90864 16.8193 7.90864 16.0964C7.90864 15.3788 7.77545 14.7256 7.50908 14.1365C7.2427 13.5475 6.88309 13.079 6.43025 12.7309C5.98273 12.3829 5.48194 12.2088 4.92788 12.2088C4.36848 12.2088 3.86237 12.3829 3.40952 12.7309C2.96201 13.079 2.60506 13.5475 2.33869 14.1365C2.07764 14.7256 1.94711 15.3788 1.94711 16.0964C1.94711 16.8193 2.07764 17.4752 2.33869 18.0643C2.60506 18.6533 2.96201 19.1218 3.40952 19.4699C3.86237 19.8233 4.36848 20 4.92788 20ZM4.92788 18.7871C4.60822 18.7871 4.31254 18.664 4.04084 18.4177C3.77446 18.1767 3.5587 17.8527 3.39354 17.4458C3.23372 17.0388 3.1538 16.589 3.1538 16.0964C3.1538 15.6037 3.23372 15.1566 3.39354 14.755C3.5587 14.3481 3.77446 14.0241 4.04084 13.7831C4.31254 13.5422 4.60822 13.4217 4.92788 13.4217C5.24753 13.4217 5.54054 13.5422 5.80692 13.7831C6.07863 14.0241 6.29439 14.3481 6.45422 14.755C6.61937 15.1566 6.70195 15.6037 6.70195 16.0964C6.70195 16.589 6.61937 17.0388 6.45422 17.4458C6.29439 17.8527 6.07863 18.1767 5.80692 18.4177C5.54054 18.664 5.24753 18.7871 4.92788 18.7871ZM12.0721 20C12.6262 20 13.1296 19.8233 13.5825 19.4699C14.0353 19.1218 14.3923 18.6533 14.6533 18.0643C14.9197 17.4752 15.0529 16.8193 15.0529 16.0964C15.0529 15.3788 14.9197 14.7256 14.6533 14.1365C14.3923 13.5475 14.0353 13.079 13.5825 12.7309C13.1296 12.3829 12.6262 12.2088 12.0721 12.2088C11.5181 12.2088 11.0146 12.3829 10.5618 12.7309C10.1142 13.079 9.7573 13.5475 9.49092 14.1365C9.22455 14.7256 9.09136 15.3788 9.09136 16.0964C9.09136 16.8193 9.22455 17.4752 9.49092 18.0643C9.7573 18.6533 10.1142 19.1218 10.5618 19.4699C11.0146 19.8233 11.5181 20 12.0721 20ZM12.0721 18.7871C11.7525 18.7871 11.4568 18.664 11.1851 18.4177C10.9187 18.1767 10.7029 17.8527 10.5378 17.4458C10.378 17.0388 10.298 16.589 10.298 16.0964C10.298 15.6037 10.378 15.1566 10.5378 14.755C10.7029 14.3481 10.9187 14.0241 11.1851 13.7831C11.4568 13.5422 11.7525 13.4217 12.0721 13.4217C12.3918 13.4217 12.6848 13.5422 12.9512 13.7831C13.2229 14.0241 13.4386 14.3481 13.5985 14.755C13.7636 15.1566 13.8462 15.6037 13.8462 16.0964C13.8462 16.589 13.7636 17.0388 13.5985 17.4458C13.4386 17.8527 13.2229 18.1767 12.9512 18.4177C12.6848 18.664 12.3918 18.7871 12.0721 18.7871ZM2.80218 15.3815L2.83415 14.249C2.5145 14.2544 2.21349 14.174 1.93113 14.008C1.64877 13.842 1.43833 13.6064 1.29981 13.3012C1.17728 13.0281 1.12933 12.7497 1.15597 12.4659C1.18261 12.1821 1.27584 11.9224 1.43567 11.6867C1.59549 11.4511 1.81659 11.2691 2.09895 11.1406L5.02377 9.79116L4.54429 8.75502L1.61148 10.0884C1.14798 10.3025 0.777714 10.6131 0.500681 11.0201C0.223648 11.427 0.0611581 11.8768 0.0132102 12.3695C-0.0347378 12.8568 0.0478392 13.3307 0.260941 13.7912C0.495354 14.2945 0.844308 14.6881 1.30781 14.9719C1.7713 15.2503 2.26943 15.3869 2.80218 15.3815ZM14.1978 15.3815C14.7306 15.3869 15.2287 15.2503 15.6922 14.9719C16.1557 14.6881 16.5046 14.2945 16.7391 13.7912C16.9522 13.3307 17.0347 12.8568 16.9868 12.3695C16.9388 11.8768 16.7764 11.427 16.4993 11.0201C16.2223 10.6131 15.852 10.3025 15.3885 10.0884L12.4557 8.75502L11.9762 9.79116L14.9011 11.1406C15.1834 11.2691 15.4045 11.4511 15.5643 11.6867C15.7242 11.9224 15.8174 12.1821 15.844 12.4659C15.8707 12.7497 15.8227 13.0281 15.7002 13.3012C15.5617 13.6064 15.3512 13.842 15.0689 14.008C14.7865 14.174 14.4855 14.2544 14.1659 14.249L14.1978 15.3815ZM6.33435 18.9398C7.07488 19.1058 7.78877 19.1888 8.47603 19.1888C9.16328 19.1888 9.87984 19.1058 10.6257 18.9398L10.4019 17.7992C9.118 18.1205 7.83672 18.1205 6.55811 17.7992L6.33435 18.9398Z"
		fill="currentColor"
	/>
</svg>
