<svg
	color="rgb(var(--foreground, 0, 0, 0))"
	viewBox="0 0 17 20"
	fill="none"
	xmlns="http://www.w3.org/2000/svg"
>
	<path
		d="M8.49201 11.2592C9.23786 11.2592 9.93577 11.1175 10.5857 10.834C11.241 10.5451 11.8164 10.1472 12.3119 9.64023C12.8073 9.13328 13.1936 8.54729 13.4706 7.88226C13.753 7.21177 13.8941 6.49496 13.8941 5.73181C13.8941 5.67185 13.8915 5.61461 13.8862 5.5601C13.8862 5.50559 13.8862 5.45108 13.8862 5.39657C14.3283 5.34751 14.7279 5.20033 15.0849 4.95503C15.4471 4.70428 15.7322 4.38267 15.9399 3.99019C16.153 3.59771 16.2596 3.16708 16.2596 2.69828C16.2596 2.20224 16.1397 1.7498 15.9 1.34096C15.6656 0.932134 15.3459 0.607795 14.941 0.367948C14.5414 0.122649 14.0993 0 13.6144 0C13.1723 0 12.7647 0.10357 12.3918 0.310711C12.0188 0.512401 11.7125 0.784955 11.4728 1.12837C11.0412 0.834015 10.5724 0.607795 10.0663 0.449714C9.56551 0.286182 9.04074 0.204415 8.49201 0.204415C7.94327 0.204415 7.41584 0.286182 6.90972 0.449714C6.40361 0.607795 5.93745 0.834015 5.51124 1.12837C5.2715 0.784955 4.96517 0.512401 4.59224 0.310711C4.21931 0.10357 3.81175 0 3.36957 0C2.88476 0 2.43991 0.122649 2.03502 0.367948C1.63545 0.607795 1.3158 0.932134 1.07606 1.34096C0.841644 1.7498 0.724438 2.20224 0.724438 2.69828C0.724438 3.16708 0.828326 3.59771 1.0361 3.99019C1.2492 4.38267 1.53423 4.70428 1.89117 4.95503C2.25345 5.20033 2.65568 5.34751 3.09786 5.39657C3.09786 5.45108 3.0952 5.50559 3.08987 5.5601C3.08987 5.61461 3.08987 5.67185 3.08987 5.73181C3.08987 6.49496 3.22839 7.21177 3.50542 7.88226C3.78778 8.54729 4.17669 9.13328 4.67215 9.64023C5.16762 10.1472 5.74033 10.5451 6.39029 10.834C7.04558 11.1175 7.74615 11.2592 8.49201 11.2592ZM6.40627 5.36386C6.22513 5.36386 6.06531 5.29572 5.92679 5.15944C5.78827 5.01772 5.71902 4.84873 5.71902 4.65249C5.71902 4.45626 5.78827 4.29 5.92679 4.15372C6.06531 4.01199 6.22513 3.94113 6.40627 3.94113C6.59806 3.94113 6.76055 4.01199 6.89374 4.15372C7.03226 4.29 7.10152 4.45626 7.10152 4.65249C7.10152 4.84873 7.03226 5.01772 6.89374 5.15944C6.76055 5.29572 6.59806 5.36386 6.40627 5.36386ZM10.5857 5.36386C10.3939 5.36386 10.2288 5.29572 10.0903 5.15944C9.95708 5.01772 9.89049 4.84873 9.89049 4.65249C9.89049 4.45626 9.95708 4.29 10.0903 4.15372C10.2288 4.01199 10.3939 3.94113 10.5857 3.94113C10.7669 3.94113 10.9267 4.01199 11.0652 4.15372C11.2037 4.29 11.273 4.45626 11.273 4.65249C11.273 4.84873 11.2037 5.01772 11.0652 5.15944C10.9267 5.29572 10.7669 5.36386 10.5857 5.36386ZM3.36957 1.16926C3.63062 1.16926 3.87036 1.23467 4.08879 1.36549C4.31254 1.49087 4.49102 1.66258 4.62421 1.88062C4.31521 2.20224 4.04617 2.56201 3.81708 2.95993C3.59333 3.35241 3.42018 3.77215 3.29765 4.21913C3.25503 4.21913 3.20708 4.21368 3.1538 4.20278C2.79153 4.14827 2.48786 3.98201 2.24279 3.70401C1.99772 3.42055 1.87519 3.08531 1.87519 2.69828C1.87519 2.27855 2.0217 1.91878 2.31471 1.61897C2.60773 1.31916 2.95935 1.16926 3.36957 1.16926ZM13.6144 1.16926C14.0247 1.16926 14.3763 1.31916 14.6693 1.61897C14.9623 1.91878 15.1088 2.27855 15.1088 2.69828C15.1088 3.07986 14.9863 3.4151 14.7412 3.70401C14.4962 3.98746 14.1925 4.15372 13.8302 4.20278C13.7663 4.21368 13.7183 4.21913 13.6864 4.21913C13.5638 3.77215 13.388 3.35241 13.1589 2.95993C12.9352 2.56201 12.6688 2.20224 12.3598 1.88062C12.4877 1.66258 12.6635 1.49087 12.8872 1.36549C13.111 1.23467 13.3534 1.16926 13.6144 1.16926ZM8.50799 10.5724C8.04982 10.5724 7.63427 10.4606 7.26134 10.2371C6.88841 10.0082 6.59007 9.70292 6.36631 9.32134C6.14788 8.93431 6.03867 8.50913 6.03867 8.04579C6.03867 7.58245 6.14788 7.15999 6.36631 6.77841C6.59007 6.39684 6.88841 6.09158 7.26134 5.86263C7.6396 5.63369 8.05515 5.51922 8.50799 5.51922C8.96083 5.51922 9.37372 5.63369 9.74665 5.86263C10.1196 6.08613 10.4179 6.38866 10.6417 6.77024C10.8654 7.15181 10.9773 7.577 10.9773 8.04579C10.9773 8.50913 10.8654 8.93159 10.6417 9.31316C10.4179 9.69474 10.1196 10 9.74665 10.2289C9.37372 10.4579 8.96083 10.5724 8.50799 10.5724ZM8.49201 8.36468C8.65183 8.36468 8.82764 8.30199 9.01943 8.17662C9.21655 8.04579 9.38437 7.90679 9.52289 7.75961C9.66673 7.60698 9.73865 7.49523 9.73865 7.42437C9.73865 7.25538 9.62145 7.08095 9.38704 6.90106C9.15262 6.71573 8.85428 6.62306 8.49201 6.62306C8.12973 6.62306 7.82606 6.71573 7.581 6.90106C7.34126 7.08095 7.22139 7.25538 7.22139 7.42437C7.22139 7.49523 7.29331 7.60698 7.43715 7.75961C7.58632 7.90679 7.75947 8.04579 7.95659 8.17662C8.15904 8.30199 8.33751 8.36468 8.49201 8.36468ZM15.3885 10.1063L12.4557 8.74898L9.25917 10.9321H7.74082L4.54429 8.74898L1.61148 10.1063C1.14798 10.3243 0.777714 10.6405 0.500681 11.0548C0.223648 11.4691 0.0611581 11.927 0.0132102 12.4285C-0.0347378 12.9245 0.0478392 13.4069 0.260941 13.8757C0.426095 14.23 0.644525 14.5298 0.91623 14.7751C1.18794 15.0204 1.49693 15.2031 1.84322 15.323C2.05633 14.5326 2.43192 13.8866 2.97 13.3851C3.51341 12.8782 4.1394 12.6247 4.84796 12.6247C5.44465 12.6247 5.98273 12.8073 6.46221 13.1725C6.94169 13.5323 7.32261 14.0202 7.60497 14.6361C7.89266 15.2467 8.0365 15.9253 8.0365 16.6721C8.0365 17.1736 7.96991 17.6451 7.83672 18.0867C7.70886 18.5337 7.53038 18.9343 7.3013 19.2886C7.55169 19.3213 7.81274 19.3431 8.08445 19.354C8.36148 19.365 8.63585 19.365 8.90756 19.354C9.17926 19.3431 9.44298 19.3213 9.6987 19.2886C9.46961 18.9343 9.28848 18.5337 9.15529 18.0867C9.02743 17.6451 8.9635 17.1736 8.9635 16.6721C8.9635 15.9253 9.10468 15.2467 9.38704 14.6361C9.67472 14.0202 10.0583 13.5323 10.5378 13.1725C11.0173 12.8073 11.5553 12.6247 12.152 12.6247C12.8606 12.6247 13.4839 12.8782 14.022 13.3851C14.5654 13.8866 14.9437 14.5326 15.1568 15.323C15.4977 15.2031 15.8041 15.0204 16.0758 14.7751C16.3528 14.5298 16.5739 14.23 16.7391 13.8757C16.9522 13.4069 17.0347 12.9245 16.9868 12.4285C16.9388 11.927 16.7764 11.4691 16.4993 11.0548C16.2223 10.6405 15.852 10.3243 15.3885 10.1063ZM4.84796 20C5.30613 20 5.72168 19.8501 6.09461 19.5503C6.46754 19.2505 6.76322 18.8471 6.98165 18.3401C7.20008 17.8386 7.30929 17.2826 7.30929 16.6721C7.30929 16.067 7.20008 15.5165 6.98165 15.0204C6.76322 14.5189 6.46754 14.1183 6.09461 13.8185C5.72168 13.5187 5.30613 13.3688 4.84796 13.3688C4.38447 13.3688 3.96625 13.5187 3.59333 13.8185C3.22572 14.1183 2.93271 14.5189 2.71428 15.0204C2.49585 15.5165 2.38663 16.067 2.38663 16.6721C2.38663 17.2826 2.49585 17.8386 2.71428 18.3401C2.93271 18.8471 3.22572 19.2505 3.59333 19.5503C3.96625 19.8501 4.38447 20 4.84796 20ZM12.152 20C12.6155 20 13.0311 19.8501 13.3987 19.5503C13.7716 19.2505 14.0673 18.8471 14.2857 18.3401C14.5041 17.8386 14.6134 17.2826 14.6134 16.6721C14.6134 16.067 14.5041 15.5165 14.2857 15.0204C14.0673 14.5189 13.7716 14.1183 13.3987 13.8185C13.0311 13.5187 12.6155 13.3688 12.152 13.3688C11.6939 13.3688 11.2783 13.5187 10.9054 13.8185C10.5325 14.1183 10.2368 14.5189 10.0184 15.0204C9.79992 15.5165 9.69071 16.067 9.69071 16.6721C9.69071 17.2826 9.79992 17.8386 10.0184 18.3401C10.2368 18.8471 10.5325 19.2505 10.9054 19.5503C11.2783 19.8501 11.6939 20 12.152 20Z"
		fill="currentColor"
	/>
</svg>
