<svg
	color="rgb(var(--foreground, 0, 0, 0))"
	viewBox="0 0 18 20"
	fill="none"
	xmlns="http://www.w3.org/2000/svg"
>
	<path
		d="M12.8167 4.89649C12.4388 4.89649 12.0864 4.9702 11.7595 5.11762C11.4378 5.25995 11.1441 5.48615 10.8785 5.79624C10.618 6.10123 10.3831 6.49519 10.1737 6.9781C9.61698 6.42402 8.98878 5.89282 8.28907 5.38449C7.58936 4.87616 6.83857 4.41866 6.03672 4.012C5.23486 3.60533 4.40236 3.27238 3.53921 3.01313C2.68117 2.7488 1.81547 2.58359 0.942115 2.51751C0.681639 2.50226 0.48499 2.54801 0.352199 2.65475C0.224514 2.75642 0.137689 2.88859 0.0917228 3.05125C0.0457564 3.21392 0.0202196 3.36896 0.0151122 3.51637C-0.0461762 4.47204 0.0789543 5.38195 0.390504 6.24611C0.707161 7.11027 1.16684 7.88802 1.76951 8.57934C2.37729 9.26559 3.09232 9.82984 3.9146 10.2721C4.73689 10.7143 5.62557 10.9888 6.58065 11.0956C6.24356 11.8428 5.86306 12.5748 5.43915 13.2916C5.02035 14.0083 4.55047 14.6996 4.02952 15.3656C3.51367 16.0315 2.94165 16.6618 2.31344 17.2565C2.2113 17.3531 2.14745 17.4573 2.12192 17.5692C2.10149 17.681 2.10659 17.7928 2.13724 17.9047C2.16788 18.0165 2.2164 18.1207 2.2828 18.2173C2.46156 18.4969 2.70926 18.7485 3.02592 18.9722C3.34258 19.2009 3.70265 19.3941 4.10613 19.5517C4.50961 19.7092 4.93097 19.8262 5.3702 19.9024C5.81455 19.9837 6.25378 20.0142 6.68791 19.9939C7.12714 19.9736 7.53828 19.8999 7.92134 19.7728C8.15117 19.6914 8.29673 19.5872 8.35802 19.4602C8.42441 19.3331 8.45761 19.1831 8.45761 19.0103V16.1814C8.87641 16.156 9.32586 16.0772 9.80595 15.9451C10.2912 15.8129 10.7636 15.6121 11.2232 15.3427C11.6829 15.0682 12.0889 14.7123 12.4414 14.2752C12.7989 13.838 13.0593 13.3068 13.2228 12.6816C13.3913 12.0512 13.422 11.3116 13.3147 10.4627L13.2381 9.92896C13.7591 9.79679 14.2162 9.60617 14.6094 9.35709C15.0078 9.10292 15.3168 8.81572 15.5364 8.49547C15.7611 8.17014 15.8735 7.83718 15.8735 7.4966C15.8735 7.18144 15.7918 6.87135 15.6284 6.56636C15.47 6.25628 15.2504 5.97669 14.9695 5.72761C14.6886 5.47853 14.3643 5.27774 13.9966 5.12524C13.6288 4.97274 13.2356 4.89649 12.8167 4.89649ZM12.8857 5.99448C13.2483 5.99448 13.5701 6.07073 13.851 6.22323C14.137 6.37573 14.3617 6.56636 14.5252 6.79511C14.6886 7.02385 14.7703 7.25769 14.7703 7.4966C14.7703 7.78635 14.5788 8.0761 14.1957 8.36585C13.8178 8.65051 13.256 8.84622 12.5103 8.95297C12.3979 8.96313 12.3035 9.00634 12.2268 9.08259C12.1553 9.15884 12.1247 9.25034 12.1349 9.35709L12.2345 10.4932C12.3009 11.276 12.2447 11.9343 12.066 12.4681C11.8923 13.0018 11.6395 13.4364 11.3075 13.7719C10.9755 14.1024 10.6002 14.3591 10.1813 14.5421C9.76254 14.72 9.33863 14.8445 8.90961 14.9157C8.48059 14.9868 8.08988 15.0326 7.73747 15.0529C7.62511 15.058 7.53062 15.0961 7.45401 15.1673C7.38251 15.2385 7.34676 15.33 7.34676 15.4418V18.7815C7.34676 18.8171 7.33654 18.8476 7.31611 18.873C7.30079 18.9035 7.2727 18.9213 7.23184 18.9264C6.859 18.9925 6.48361 19.0128 6.10567 18.9874C5.73283 18.962 5.37276 18.8984 5.02546 18.7968C4.67816 18.6951 4.3615 18.563 4.07549 18.4003C3.78947 18.2427 3.55198 18.0673 3.36301 17.8742C3.2915 17.7979 3.2864 17.7344 3.34769 17.6835C4.03718 17.0227 4.65773 16.3212 5.20932 15.5791C5.76092 14.8369 6.25633 14.0642 6.69557 13.2611C7.1348 12.4579 7.53062 11.637 7.88303 10.7982C7.95453 10.6254 7.95709 10.4754 7.89069 10.3483C7.8294 10.2213 7.70938 10.1552 7.53062 10.1501C6.6164 10.1298 5.77113 9.95692 4.99481 9.63159C4.2236 9.30626 3.54687 8.85893 2.96463 8.2896C2.3875 7.71518 1.9355 7.04673 1.60863 6.28423C1.28686 5.51665 1.12343 4.68299 1.11832 3.78325C1.11832 3.68667 1.16684 3.64346 1.26388 3.65362C2.07084 3.75529 2.85993 3.93575 3.63114 4.195C4.40746 4.45424 5.14293 4.76941 5.83753 5.14049C6.53724 5.50649 7.18077 5.90807 7.76811 6.34523C8.35546 6.7824 8.86875 7.22719 9.30799 7.6796C9.46631 7.83718 9.60677 7.95664 9.72934 8.03797C9.85703 8.11422 9.99748 8.15235 10.1507 8.15235C10.401 8.15235 10.595 8.09135 10.7329 7.96935C10.8759 7.84227 11.0113 7.65164 11.139 7.39748C11.2871 7.09248 11.4378 6.83577 11.591 6.62736C11.7442 6.41894 11.923 6.26136 12.1273 6.15461C12.3315 6.04786 12.5844 5.99448 12.8857 5.99448ZM11.4531 5.79624L12.4873 5.43786C11.9562 4.2077 11.3177 3.16309 10.5721 2.30401C9.83149 1.43985 8.96324 0.7231 7.9673 0.15377C7.67107 -0.0139791 7.39272 -0.0444789 7.13225 0.0622705C6.87177 0.16902 6.70067 0.382519 6.61896 0.702767C6.42488 1.39918 6.29464 2.08543 6.22824 2.7615C6.16185 3.4325 6.17461 4.1162 6.26655 4.81262L7.46933 5.37686C7.33143 4.68553 7.2727 4.0247 7.29313 3.39438C7.31867 2.76405 7.4106 2.12609 7.56893 1.48051C7.57914 1.41443 7.61234 1.37122 7.66852 1.35089C7.72981 1.32547 7.78854 1.33055 7.84472 1.36614C8.62104 1.86938 9.30288 2.47938 9.89023 3.19613C10.4776 3.91287 10.9985 4.77958 11.4531 5.79624ZM13.3913 7.69485C13.5139 7.69485 13.6212 7.6491 13.7131 7.5576C13.8101 7.4661 13.8587 7.35681 13.8587 7.22973C13.8587 7.10265 13.8101 6.99335 13.7131 6.90185C13.6212 6.80527 13.5139 6.75698 13.3913 6.75698C13.2585 6.75698 13.1462 6.80527 13.0542 6.90185C12.9623 6.99335 12.9163 7.10265 12.9163 7.22973C12.9163 7.35681 12.9623 7.4661 13.0542 7.5576C13.1462 7.6491 13.2585 7.69485 13.3913 7.69485ZM14.6707 8.68609L17.467 9.08259C17.5947 9.10292 17.7045 9.08005 17.7964 9.01397C17.8884 8.9428 17.9497 8.8513 17.9803 8.73947C18.0109 8.62764 18.0058 8.51834 17.965 8.41159C17.9241 8.30485 17.8373 8.22351 17.7045 8.1676L15.1764 7.1001L14.6707 8.68609Z"
		fill="currentColor"
	/>
</svg>
