<svg
	color="rgb(var(--foreground, 0, 0, 0))"
	viewBox="0 0 18 20"
	fill="none"
	xmlns="http://www.w3.org/2000/svg"
>
	<path
		d="M12.74 5.02416C12.357 5.02416 12.0045 5.09795 11.6828 5.24553C11.3661 5.39311 11.0775 5.62466 10.817 5.94018C10.5617 6.2557 10.3318 6.66537 10.1275 7.16919C9.57082 6.6043 8.9426 6.06487 8.24287 5.55087C7.54315 5.03688 6.78979 4.57378 5.98281 4.16156C5.18093 3.74935 4.34586 3.41093 3.47759 3.1463C2.61442 2.87658 1.74104 2.70864 0.857445 2.64248C0.622501 2.62722 0.443739 2.66793 0.321159 2.76462C0.203687 2.85622 0.124521 2.97582 0.0836607 3.1234C0.0428008 3.27098 0.0198171 3.41856 0.0147096 3.56615C-0.0465803 4.53815 0.0836606 5.46181 0.405432 6.33713C0.732312 7.20735 1.20986 7.98852 1.83808 8.68063C2.47141 9.36765 3.21966 9.9249 4.08282 10.3524C4.9511 10.7748 5.89087 11.0216 6.90216 11.0928C6.53442 11.9682 6.10028 12.7799 5.59975 13.5279C5.10432 14.276 4.57314 14.9707 4.00621 15.6119C3.43928 16.248 2.86724 16.8358 2.2901 17.3753C2.15219 17.5025 2.0909 17.645 2.10623 17.8027C2.12155 17.9605 2.17518 18.1081 2.26711 18.2455C2.44077 18.5203 2.68337 18.7671 2.99493 18.9859C3.31159 19.2099 3.66656 19.4007 4.05984 19.5585C4.45822 19.7162 4.87448 19.8333 5.30862 19.9096C5.74276 19.9859 6.17434 20.0139 6.60337 19.9936C7.03751 19.9732 7.44355 19.8994 7.82151 19.7722C8.03091 19.6959 8.16371 19.6043 8.21989 19.4974C8.28118 19.3905 8.31182 19.2506 8.31182 19.0775V16.1768C8.72042 16.1564 9.16477 16.0826 9.64488 15.9554C10.1301 15.8282 10.6025 15.6323 11.0622 15.3676C11.5219 15.0979 11.9279 14.7493 12.2803 14.3218C12.6379 13.8893 12.9009 13.36 13.0694 12.7341C13.238 12.1081 13.2686 11.3727 13.1614 10.528L13.0771 9.9249C13.8688 9.73661 14.5072 9.42109 14.9924 8.97834C15.4776 8.53051 15.7202 8.05214 15.7202 7.54323C15.7202 7.1412 15.5849 6.7468 15.3142 6.36003C15.0486 5.97326 14.6885 5.6552 14.234 5.40583C13.7845 5.15138 13.2865 5.02416 12.74 5.02416ZM13.5444 7.673C13.4117 7.673 13.2993 7.6272 13.2074 7.5356C13.1154 7.444 13.0694 7.33458 13.0694 7.20735C13.0694 7.08013 13.1154 6.97071 13.2074 6.87911C13.2993 6.78242 13.4117 6.73407 13.5444 6.73407C13.667 6.73407 13.7743 6.78242 13.8662 6.87911C13.9633 6.97071 14.0118 7.08013 14.0118 7.20735C14.0118 7.33458 13.9633 7.444 13.8662 7.5356C13.7743 7.6272 13.667 7.673 13.5444 7.673ZM14.6706 8.66536L17.467 9.06231C17.5947 9.08267 17.7045 9.05977 17.7964 8.99361C17.8884 8.92236 17.9497 8.83076 17.9803 8.7188C18.0109 8.60684 18.0058 8.49743 17.965 8.39056C17.9241 8.28369 17.8373 8.20226 17.7045 8.14628L15.1763 7.07758L14.6706 8.66536ZM11.7517 4.11576C11.2563 3.23536 10.6894 2.472 10.0509 1.82569C9.4176 1.1743 8.69744 0.617046 7.89046 0.153943C7.59422 -0.0139949 7.31586 -0.0445291 7.05538 0.0623408C6.7949 0.169211 6.6238 0.38295 6.54208 0.70356C6.42971 1.09542 6.33778 1.48982 6.26627 1.88676C6.19988 2.28371 6.15646 2.67811 6.13603 3.06996C6.82554 3.40584 7.48186 3.77989 8.10497 4.1921C8.73319 4.60431 9.31545 5.03942 9.85173 5.49744C10.1173 5.13612 10.4084 4.84095 10.7251 4.61194C11.0418 4.38294 11.384 4.21754 11.7517 4.11576Z"
		fill="currentColor"
	/>
</svg>
