<svg
	color="rgb(var(--foreground, 0, 0, 0))"
	viewBox="0 0 22 18"
	fill="none"
	xmlns="http://www.w3.org/2000/svg"
>
	<path
		d="M9.11911 4.73653L10.2348 4.51122C10.1723 4.10203 10.0787 3.71615 9.95389 3.35357C9.82906 2.991 9.62102 2.59217 9.32975 2.15708C9.24133 2.02759 9.25434 1.94472 9.36876 1.90846C9.9877 1.6961 10.6326 1.60804 11.3036 1.6443C11.9745 1.68056 12.6143 1.83077 13.2228 2.09493C13.8365 2.35391 14.3671 2.71389 14.8144 3.17488C15.2617 3.63586 15.5711 4.1849 15.7428 4.82199L16.913 4.68214C16.7466 3.97254 16.4423 3.34062 16.0002 2.78641C15.5633 2.23219 15.0328 1.77379 14.4087 1.41122C13.7845 1.04864 13.1136 0.792254 12.3958 0.642045C11.6781 0.491836 10.9525 0.460759 10.2191 0.548812C9.49099 0.636866 8.80184 0.859589 8.15169 1.21698C7.95925 1.32057 7.84482 1.46819 7.80842 1.65984C7.77721 1.84631 7.84222 2.04572 8.00346 2.25808C8.26352 2.59994 8.46376 2.90036 8.60419 3.15934C8.74983 3.41832 8.85905 3.66953 8.93187 3.91297C9.00468 4.15641 9.06709 4.43093 9.11911 4.73653ZM12.8327 14.7202C13.4309 14.7202 14.0706 14.6581 14.752 14.5338C15.4385 14.4095 16.1225 14.2308 16.8038 13.9977C17.4904 13.7594 18.1431 13.4771 18.762 13.1508C19.3862 12.8193 19.9401 12.4464 20.4238 12.032C20.9127 11.6176 21.2978 11.1722 21.5787 10.6957C21.8596 10.214 22 9.70637 22 9.17287C22 8.64455 21.8596 8.14213 21.5787 7.6656C21.2978 7.1839 20.9127 6.73586 20.4238 6.32149C19.9401 5.90712 19.3862 5.53678 18.762 5.21046C18.1431 4.87897 17.4904 4.59668 16.8038 4.3636C16.1225 4.12534 15.4385 3.94405 14.752 3.81974C14.0706 3.69543 13.4309 3.63327 12.8327 3.63327C11.5636 3.63327 10.3024 3.86635 9.04889 4.33252C7.79541 4.79351 6.64335 5.5316 5.59272 6.5468C4.90617 5.76986 4.15981 5.17421 3.35363 4.75984C2.55265 4.34029 1.68666 4.12275 0.755653 4.10721C0.558009 4.10203 0.388972 4.159 0.248541 4.27813C0.113311 4.39209 0.0378941 4.54747 0.0222906 4.7443C-0.0297209 5.28298 0.00928777 5.82425 0.139317 6.36811C0.269345 6.91197 0.46959 7.42734 0.740049 7.91422C1.01571 8.40111 1.34078 8.82065 1.71527 9.17287C1.34078 9.53026 1.01571 9.9524 0.740049 10.4393C0.46959 10.9262 0.269345 11.4415 0.139317 11.9854C0.00928777 12.5293 -0.0297209 13.0705 0.0222906 13.6092C0.0378941 13.806 0.113311 13.964 0.248541 14.0831C0.388972 14.1971 0.558009 14.2515 0.755653 14.2463C1.68666 14.2308 2.55265 14.0158 3.35363 13.6014C4.15981 13.1819 4.90617 12.5862 5.59272 11.8145C6.64335 12.8245 7.79541 13.5626 9.04889 14.0288C10.3024 14.4897 11.5636 14.7202 12.8327 14.7202ZM12.8327 13.4694C11.5793 13.4694 10.3674 13.2337 9.19712 12.7623C8.03207 12.2858 6.96063 11.5037 5.98281 10.416C5.85278 10.2709 5.70715 10.201 5.54591 10.2062C5.38468 10.2114 5.23904 10.2917 5.10902 10.4471C4.54209 11.1463 3.96996 11.7031 3.39264 12.1175C2.81531 12.5318 2.18597 12.7986 1.50462 12.9177C1.437 12.9281 1.37979 12.91 1.33298 12.8633C1.29137 12.8167 1.27577 12.7598 1.28617 12.6924C1.35379 12.0864 1.54883 11.5166 1.8713 10.9831C2.19897 10.4496 2.58646 10.0068 3.03376 9.65457C3.2366 9.48364 3.33802 9.32567 3.33802 9.18064C3.33802 9.03043 3.234 8.86727 3.02595 8.69116C2.58386 8.33895 2.19897 7.89868 1.8713 7.37036C1.54883 6.83686 1.35379 6.26711 1.28617 5.66109C1.27577 5.59376 1.29137 5.53678 1.33298 5.49016C1.37979 5.44355 1.437 5.42542 1.50462 5.43578C2.18597 5.55491 2.81271 5.82166 3.38483 6.23603C3.96216 6.64522 4.53689 7.20203 5.10902 7.90645C5.23384 8.06702 5.37687 8.14989 5.53811 8.15507C5.70455 8.15507 5.85018 8.08515 5.97501 7.9453C6.95802 6.8524 8.03207 6.07028 9.19712 5.59894C10.3674 5.12241 11.5793 4.88415 12.8327 4.88415C13.4985 4.88415 14.1954 4.96443 14.9236 5.125C15.6518 5.28039 16.3617 5.49793 17.0535 5.77763C17.7452 6.05733 18.3694 6.37847 18.9259 6.74104C19.4876 7.10361 19.9349 7.49467 20.2678 7.91422C20.6006 8.32859 20.7671 8.74814 20.7671 9.17287C20.7671 9.60278 20.6006 10.0275 20.2678 10.4471C19.9349 10.8614 19.4876 11.2499 18.9259 11.6125C18.3694 11.975 17.7452 12.2962 17.0535 12.5759C16.3617 12.8556 15.6518 13.0757 14.9236 13.2363C14.1954 13.3917 13.4985 13.4694 12.8327 13.4694ZM17.6776 9.6468C17.9012 9.6468 18.0937 9.56652 18.2549 9.40595C18.4214 9.24538 18.5046 9.05374 18.5046 8.83101C18.5046 8.60829 18.4214 8.41665 18.2549 8.25608C18.0937 8.09551 17.9012 8.01523 17.6776 8.01523C17.454 8.01523 17.2615 8.09551 17.1003 8.25608C16.939 8.41665 16.8584 8.60829 16.8584 8.83101C16.8584 9.05374 16.939 9.24538 17.1003 9.40595C17.2615 9.56652 17.454 9.6468 17.6776 9.6468ZM10.3752 13.8345L10.0475 16.5072C10.0215 16.7247 10.0475 16.9138 10.1255 17.0744C10.2087 17.2349 10.3362 17.3515 10.5078 17.424C10.6847 17.5017 10.9005 17.5198 11.1554 17.4784C11.6547 17.4007 12.1618 17.2557 12.6767 17.0433C13.1916 16.8361 13.6883 16.5745 14.1668 16.2586C14.6505 15.9478 15.0978 15.5982 15.5087 15.2097C15.9196 14.8264 16.2681 14.4224 16.5542 13.9977L14.947 14.1919C14.4581 14.6166 13.9406 15.0077 13.3945 15.3651C12.8535 15.7225 12.2658 15.9866 11.6313 16.1576C11.444 16.2042 11.3608 16.1343 11.3816 15.9478L11.5767 14.0132L10.3752 13.8345Z"
		fill="currentColor"
	/>
</svg>
