<svg
	color="rgb(var(--foreground, 0, 0, 0))"
	viewBox="0 0 22 18"
	fill="none"
	xmlns="http://www.w3.org/2000/svg"
>
	<path
		d="M0.0258776 13.6796C0.0364283 13.8484 0.0918192 13.9776 0.19205 14.0672C0.297557 14.1516 0.437353 14.1911 0.611439 14.1858C1.561 14.17 2.43934 13.9459 3.24646 13.5136C4.05359 13.0759 4.80796 12.4511 5.50958 11.6391C6.24285 12.372 7.02887 12.9652 7.86765 13.4186C8.7117 13.8668 9.57949 14.1911 10.471 14.3915L10.1941 16.6614C10.1571 16.9567 10.2178 17.1808 10.3761 17.3337C10.5396 17.4866 10.7928 17.5341 11.1357 17.4761C11.7899 17.3759 12.4545 17.1597 13.1298 16.8275C13.805 16.5006 14.4325 16.0972 15.0128 15.6174C15.5984 15.1376 16.0837 14.6182 16.4688 14.0593C17.1863 13.8326 17.8773 13.5531 18.542 13.2209C19.2067 12.8887 19.7976 12.5144 20.3145 12.0978C20.8368 11.6812 21.2483 11.2278 21.549 10.7374C21.8497 10.247 22 9.72767 22 9.1793C22 8.65729 21.8602 8.15901 21.5806 7.68445C21.301 7.2099 20.9159 6.76962 20.4253 6.36361C19.94 5.95233 19.3834 5.58324 18.7557 5.25632C18.1332 4.92413 17.4764 4.6394 16.7853 4.40212C16.5902 3.7272 16.2684 3.13138 15.82 2.61464C15.3768 2.09263 14.8519 1.6629 14.2453 1.32544C13.6386 0.987975 12.9874 0.753335 12.291 0.621514C11.5999 0.484421 10.901 0.46333 10.1941 0.558241C9.48717 0.653151 8.81984 0.87461 8.19208 1.22262C8.02327 1.31225 7.92831 1.42562 7.90721 1.56271C7.89139 1.69981 7.95205 1.86063 8.08921 2.04518C8.45321 2.525 8.7117 2.93365 8.86468 3.27111C9.01767 3.60329 9.12845 3.96184 9.19703 4.34676C8.53234 4.59458 7.89139 4.91622 7.27417 5.31169C6.65696 5.70187 6.06876 6.17643 5.50958 6.73535C4.80796 5.91806 4.05359 5.29323 3.24646 4.86086C2.43934 4.42322 1.561 4.19648 0.611439 4.18067C0.437353 4.17539 0.297557 4.21758 0.19205 4.30721C0.0918192 4.39158 0.0364283 4.51813 0.0258776 4.68686C-0.032151 5.2405 0.00741397 5.79679 0.144572 6.3557C0.287006 6.90935 0.500657 7.43136 0.785525 7.92173C1.07567 8.4121 1.41856 8.83129 1.81421 9.1793C1.41856 9.53258 1.07567 9.9544 0.785525 10.4448C0.500657 10.9351 0.287006 11.4598 0.144572 12.0187C0.00741397 12.5724 -0.032151 13.126 0.0258776 13.6796ZM17.7745 9.66176C17.5476 9.66176 17.3524 9.58003 17.1889 9.41657C17.0254 9.25312 16.9436 9.05802 16.9436 8.83129C16.9436 8.60456 17.0254 8.40947 17.1889 8.24601C17.3524 8.08255 17.5476 8.00082 17.7745 8.00082C18.0013 8.00082 18.1965 8.08255 18.36 8.24601C18.5288 8.40947 18.6132 8.60456 18.6132 8.83129C18.6132 9.05802 18.5288 9.25312 18.36 9.41657C18.1965 9.58003 18.0013 9.66176 17.7745 9.66176Z"
		fill="currentColor"
	/>
</svg>
