<svg
	color="rgb(var(--foreground, 0, 0, 0))"
	viewBox="0 0 18 18"
	fill="none"
	xmlns="http://www.w3.org/2000/svg"
>
	<path
		d="M4.43883 1.01205C4.247 1.45845 4.10442 1.90485 4.0111 2.35125C3.92296 2.7924 3.87889 3.2283 3.87889 3.65894C3.87889 4.37844 3.99814 5.05329 4.23663 5.6835C4.48031 6.31372 4.82509 6.8704 5.27097 7.35357C5.72203 7.83148 6.26124 8.20698 6.88858 8.48007C7.52111 8.75317 8.22881 8.88971 9.0117 8.88971C9.79458 8.88971 10.4997 8.75317 11.127 8.48007C11.7596 8.20698 12.3014 7.83148 12.7524 7.35357C13.2035 6.8704 13.5483 6.31372 13.7868 5.6835C14.0253 5.05329 14.1445 4.37844 14.1445 3.65894C14.1445 3.2283 14.0978 2.7924 14.0045 2.35125C13.9164 1.90485 13.779 1.45845 13.5923 1.01205C13.5094 0.822984 13.3746 0.717949 13.1879 0.696942C13.0013 0.670683 12.8328 0.733704 12.6824 0.886006L10.9404 2.68211L9.45498 0.73633C9.33574 0.578777 9.18797 0.5 9.0117 0.5C8.83542 0.5 8.69025 0.578777 8.57619 0.73633L7.09078 2.68211L5.34096 0.886006C5.19579 0.733704 5.02988 0.670683 4.84323 0.696942C4.65659 0.717949 4.52179 0.822984 4.43883 1.01205ZM8.38954 16.9092C8.38954 17.0877 8.44916 17.2295 8.56841 17.3346C8.68766 17.4449 8.83542 17.5 9.0117 17.5C10.0175 17.5 10.9896 17.3503 11.9281 17.051C12.8665 16.7569 13.7323 16.3394 14.5256 15.7984C15.324 15.2627 16.0162 14.6273 16.602 13.892C17.1931 13.1515 17.639 12.3401 17.9397 11.4578C18.0226 11.2162 18.02 11.0246 17.9319 10.8828C17.8489 10.741 17.6804 10.6701 17.4264 10.6701C16.4309 10.6701 15.5081 10.8092 14.6578 11.0876C13.8127 11.3607 13.0505 11.7414 12.3714 12.2298C11.6922 12.7183 11.1063 13.2854 10.6138 13.9314C10.1212 14.5774 9.72977 15.2732 9.43943 16.019L9.64163 16.2868V8.09407H8.38954V16.9092ZM7.32409 13.8999C6.83673 13.2592 6.25346 12.6973 5.57427 12.2141C4.90027 11.7309 4.14331 11.3528 3.30339 11.0797C2.46348 10.8066 1.55351 10.6701 0.573611 10.6701C0.324748 10.6701 0.156247 10.741 0.0681075 10.8828C-0.0200316 11.0246 -0.0226239 11.2162 0.0603305 11.4578C0.407702 12.4767 0.941722 13.3984 1.66239 14.2229C2.38306 15.0422 3.2334 15.7223 4.2133 16.2632C5.19838 16.8094 6.25605 17.1744 7.38631 17.3582C7.34483 17.1954 7.32409 17.0457 7.32409 16.9092V13.8999Z"
		fill="currentColor"
	/>
</svg>
