<svg
	color="rgb(var(--foreground, 0, 0, 0))"
	viewBox="0 0 18 20"
	fill="none"
	xmlns="http://www.w3.org/2000/svg"
>
	<path
		d="M4.77989 5.21975C4.77989 5.43459 4.82753 5.62795 4.92281 5.79983C5.02338 5.96633 5.20071 6.10866 5.45479 6.22682C5.88884 6.43092 6.41817 6.59205 7.04279 6.71022C7.6727 6.82838 8.32378 6.88746 8.99603 6.88746C9.67358 6.88746 10.3247 6.82838 10.9493 6.71022C11.5792 6.59205 12.1112 6.43092 12.5452 6.22682C12.7993 6.10866 12.974 5.96633 13.0693 5.79983C13.1698 5.62795 13.2201 5.43459 13.2201 5.21975C13.2201 4.62894 13.0454 4.09452 12.6961 3.6165C12.3467 3.13311 11.8544 2.74908 11.2192 2.46441C10.5893 2.17975 9.84826 2.03741 8.99603 2.03741C8.1491 2.03741 7.40803 2.17975 6.77283 2.46441C6.14292 2.74908 5.65329 3.13311 5.30393 3.6165C4.95457 4.09452 4.77989 4.62894 4.77989 5.21975ZM2.0247 12.3256C2.0247 13.6254 2.25761 14.7883 2.72342 15.8141C3.19453 16.8346 3.8509 17.6644 4.69255 18.3036C5.53948 18.9481 6.53198 19.3429 7.67005 19.4879C7.94001 19.5201 8.14116 19.4879 8.27349 19.3912C8.41112 19.2999 8.47993 19.1495 8.47993 18.9401V9.77171C8.47993 9.62669 8.53022 9.50316 8.63079 9.40111C8.73136 9.29906 8.85311 9.24803 8.99603 9.24803C9.13895 9.24803 9.2607 9.29906 9.36127 9.40111C9.46714 9.50316 9.52007 9.62669 9.52007 9.77171V18.9401C9.52007 19.1495 9.58624 19.2999 9.71857 19.3912C9.8562 19.4879 10.06 19.5201 10.33 19.4879C11.468 19.3429 12.4579 18.9481 13.2995 18.3036C14.1465 17.6644 14.8028 16.8346 15.2686 15.8141C15.7397 14.7883 15.9753 13.6254 15.9753 12.3256C15.9753 11.7456 15.9065 11.1279 15.7689 10.4726C15.6312 9.81736 15.438 9.20775 15.1892 8.64379C14.9405 8.07446 14.6467 7.62866 14.3079 7.3064C14.0485 7.0647 13.8341 6.93043 13.6648 6.90357C13.4954 6.87135 13.3366 6.88746 13.1884 6.95191C12.6008 7.22046 11.9471 7.43262 11.2272 7.58838C10.5073 7.74414 9.76357 7.82202 8.99603 7.82202C8.23379 7.82202 7.49272 7.74414 6.77283 7.58838C6.05293 7.43262 5.39921 7.22046 4.81165 6.95191C4.66343 6.88746 4.50463 6.87135 4.33525 6.90357C4.16586 6.93043 3.95148 7.0647 3.6921 7.3064C3.35333 7.62866 3.05955 8.07446 2.81076 8.64379C2.56198 9.20775 2.36877 9.81736 2.23114 10.4726C2.09352 11.1279 2.0247 11.7456 2.0247 12.3256ZM5.90737 10.7949C5.62682 10.7949 5.38597 10.6928 5.18483 10.4887C4.98897 10.2793 4.89105 10.0349 4.89105 9.7556C4.89105 9.47093 4.98897 9.22655 5.18483 9.02245C5.38597 8.81835 5.62682 8.7163 5.90737 8.7163C6.18791 8.7163 6.42876 8.81835 6.62991 9.02245C6.83105 9.22655 6.93163 9.47093 6.93163 9.7556C6.93163 10.0349 6.83105 10.2793 6.62991 10.4887C6.42876 10.6928 6.18791 10.7949 5.90737 10.7949ZM5.05779 14.2592C4.7296 14.2592 4.44905 14.141 4.21615 13.9047C3.98324 13.6684 3.86678 13.381 3.86678 13.0427C3.86678 12.715 3.98324 12.4331 4.21615 12.1967C4.44905 11.9604 4.7296 11.8422 5.05779 11.8422C5.38068 11.8422 5.65858 11.9604 5.89149 12.1967C6.12969 12.4331 6.24879 12.715 6.24879 13.0427C6.24879 13.381 6.12969 13.6684 5.89149 13.9047C5.65858 14.141 5.38068 14.2592 5.05779 14.2592ZM6.06617 17.2079C5.82267 17.2079 5.61623 17.122 5.44685 16.9501C5.27746 16.7782 5.19277 16.5688 5.19277 16.3217C5.19277 16.0746 5.27746 15.8651 5.44685 15.6933C5.61623 15.5214 5.82267 15.4355 6.06617 15.4355C6.30966 15.4355 6.5161 15.5214 6.68549 15.6933C6.86017 15.8651 6.94751 16.0746 6.94751 16.3217C6.94751 16.5688 6.86017 16.7782 6.68549 16.9501C6.5161 17.122 6.30966 17.2079 6.06617 17.2079ZM12.0926 10.7949C11.8121 10.7949 11.5712 10.6928 11.3701 10.4887C11.1689 10.2793 11.0684 10.0349 11.0684 9.7556C11.0684 9.47093 11.1689 9.22655 11.3701 9.02245C11.5712 8.81835 11.8121 8.7163 12.0926 8.7163C12.3732 8.7163 12.6114 8.81835 12.8072 9.02245C13.0084 9.22655 13.109 9.47093 13.109 9.7556C13.109 10.0349 13.0084 10.2793 12.8072 10.4887C12.6114 10.6928 12.3732 10.7949 12.0926 10.7949ZM12.9422 14.2592C12.614 14.2592 12.3335 14.141 12.1006 13.9047C11.8677 13.6684 11.7512 13.381 11.7512 13.0427C11.7512 12.715 11.8677 12.4331 12.1006 12.1967C12.3335 11.9604 12.614 11.8422 12.9422 11.8422C13.2704 11.8422 13.5509 11.9604 13.7839 12.1967C14.0168 12.4331 14.1332 12.715 14.1332 13.0427C14.1332 13.381 14.0168 13.6684 13.7839 13.9047C13.5509 14.141 13.2704 14.2592 12.9422 14.2592ZM11.9338 17.2079C11.6903 17.2079 11.4813 17.122 11.3066 16.9501C11.1372 16.7782 11.0525 16.5688 11.0525 16.3217C11.0525 16.0746 11.1372 15.8651 11.3066 15.6933C11.4813 15.5214 11.6903 15.4355 11.9338 15.4355C12.1773 15.4355 12.3838 15.5214 12.5532 15.6933C12.7225 15.8651 12.8072 16.0746 12.8072 16.3217C12.8072 16.5688 12.7225 16.7782 12.5532 16.9501C12.3838 17.122 12.1773 17.2079 11.9338 17.2079ZM5.50243 1.66681L6.04235 1.86823C6.21173 1.92731 6.33083 2.00519 6.39965 2.10187C6.46846 2.19854 6.48699 2.31671 6.45523 2.45635L6.35995 2.86724L7.52713 2.85918L7.58271 2.4483C7.62506 2.05621 7.55624 1.72052 7.37627 1.44123C7.20159 1.15656 6.91839 0.944407 6.52669 0.80476L5.89943 0.54695C5.70357 0.477127 5.53683 0.485183 5.39921 0.57112C5.26158 0.651686 5.1663 0.767163 5.11337 0.917552C5.06573 1.06794 5.07102 1.21564 5.12925 1.36066C5.18747 1.50568 5.31187 1.60773 5.50243 1.66681ZM12.4976 1.66681C12.6881 1.60773 12.8125 1.50568 12.8708 1.36066C12.929 1.21564 12.9316 1.06794 12.8787 0.917552C12.8311 0.767163 12.7384 0.651686 12.6008 0.57112C12.4632 0.485183 12.2964 0.477127 12.1006 0.54695L11.4733 0.80476C11.0816 0.944407 10.7958 1.15656 10.6158 1.44123C10.4358 1.72052 10.3697 2.05621 10.4173 2.4483L10.4729 2.85918L11.6401 2.86724L11.5448 2.45635C11.513 2.31671 11.5315 2.19854 11.6004 2.10187C11.6692 2.00519 11.7883 1.92731 11.9577 1.86823L12.4976 1.66681ZM4.0494 7.46753L2.57256 6.20265C2.42435 6.07375 2.2629 6.00661 2.08822 6.00124C1.91884 5.99587 1.77327 6.06569 1.65152 6.21071C1.52978 6.3611 1.48743 6.52491 1.52448 6.70216C1.56154 6.87403 1.65152 7.02174 1.79444 7.14527L3.28716 8.41821L4.0494 7.46753ZM2.60432 11.2783H0.651081C0.455227 11.2783 0.296427 11.3347 0.17468 11.4475C0.0582267 11.5603 0 11.7107 0 11.8986C0 12.0813 0.0582267 12.229 0.17468 12.3417C0.296427 12.4545 0.457874 12.5109 0.659021 12.5109L2.60432 12.5029V11.2783ZM3.24746 15.9914L1.76268 17.2482C1.61976 17.3717 1.52978 17.5194 1.49272 17.6913C1.46096 17.8685 1.50596 18.0297 1.6277 18.1747C1.74945 18.3251 1.89502 18.3976 2.0644 18.3922C2.23908 18.3869 2.40053 18.3197 2.54874 18.1908L4.0097 16.934L3.24746 15.9914ZM13.9506 7.46753L14.7128 8.41821L16.2056 7.14527C16.3485 7.02174 16.4358 6.87403 16.4676 6.70216C16.5046 6.52491 16.4649 6.3611 16.3485 6.21071C16.2267 6.06569 16.0785 5.99587 15.9038 6.00124C15.7345 6.00661 15.5757 6.07375 15.4274 6.20265L13.9506 7.46753ZM15.3957 11.2783V12.5029L17.341 12.5109C17.5421 12.5109 17.7009 12.4545 17.8174 12.3417C17.9391 12.229 18 12.0813 18 11.8986C18 11.7107 17.9391 11.5603 17.8174 11.4475C17.7009 11.3347 17.5448 11.2783 17.3489 11.2783H15.3957ZM14.7525 15.9914L13.9824 16.934L15.4513 18.1908C15.5995 18.3197 15.7583 18.3869 15.9277 18.3922C16.1023 18.3976 16.2506 18.3251 16.3723 18.1747C16.494 18.0297 16.5364 17.8685 16.4993 17.6913C16.4676 17.5194 16.3776 17.3717 16.2294 17.2482L14.7525 15.9914Z"
		fill="currentColor"
	/>
</svg>
