<svg
	color="rgb(var(--foreground, 0, 0, 0))"
	viewBox="0 0 8 18"
	fill="none"
	xmlns="http://www.w3.org/2000/svg"
>
	<path
		d="M5.44723 16.2048C5.22021 16.184 4.98017 16.2022 4.72735 16.2595C4.47453 16.3219 4.25267 16.4104 4.06176 16.5249C3.88118 16.629 3.8657 16.7513 4.01533 16.8919C4.19075 17.0532 4.39971 17.1885 4.64221 17.2978C4.88987 17.4071 5.12734 17.4696 5.35436 17.4852C5.58654 17.5164 5.83162 17.4982 6.0896 17.4306C6.35274 17.3629 6.57976 17.2562 6.77066 17.1105C6.90481 17.0116 6.90997 16.9023 6.78614 16.7826C6.61587 16.6212 6.40691 16.4885 6.15925 16.3844C5.91675 16.2803 5.67941 16.2204 5.44723 16.2048ZM7.0725 13.566C6.94867 13.7586 6.85322 13.985 6.78614 14.2452C6.71907 14.5003 6.69069 14.7397 6.70101 14.9635C6.71649 15.2029 6.77324 15.4475 6.87127 15.6974C6.97447 15.9472 7.10088 16.1554 7.2505 16.3219C7.35885 16.4521 7.46721 16.4495 7.57556 16.3141C7.72518 16.132 7.83612 15.9108 7.90835 15.6505C7.98574 15.3903 8.01412 15.1404 7.99348 14.901C7.978 14.672 7.91867 14.4352 7.81548 14.1906C7.71229 13.9407 7.5833 13.7273 7.42851 13.5504C7.29952 13.3942 7.18085 13.3994 7.0725 13.566ZM3.26461 14.0891C3.0479 14.011 2.80798 13.9694 2.54485 13.9642C2.28171 13.9537 2.04179 13.9824 1.82508 14.05C1.63934 14.1073 1.59806 14.2218 1.70125 14.3936C1.82508 14.5965 1.99019 14.7813 2.19657 14.9479C2.40812 15.1144 2.62224 15.2367 2.83894 15.3148C3.05564 15.4033 3.29814 15.4475 3.56644 15.4475C3.83474 15.4475 4.07982 15.4007 4.30168 15.307C4.46163 15.2497 4.49517 15.1457 4.40229 14.9947C4.27846 14.7917 4.11078 14.6096 3.89924 14.4482C3.69285 14.2817 3.48131 14.1619 3.26461 14.0891ZM5.49367 11.9655C5.3234 12.1165 5.17377 12.309 5.04478 12.5432C4.92095 12.7723 4.8357 12.9961 4.78926 13.2147C4.74283 13.4489 4.73509 13.6987 4.76604 13.9642C4.797 14.2296 4.8642 14.4638 4.96739 14.6668C5.03446 14.823 5.14023 14.849 5.2847 14.7449C5.47045 14.6096 5.63298 14.4274 5.77228 14.1984C5.91159 13.9642 5.99931 13.7247 6.03542 13.4801C6.08186 13.2563 6.08702 13.0117 6.0509 12.7462C6.01478 12.4808 5.94513 12.2414 5.84194 12.028C5.75938 11.8406 5.64329 11.8198 5.49367 11.9655ZM0.00633221 11.0677C0.0372897 11.2967 0.114683 11.5335 0.238513 11.7781C0.362343 12.0176 0.506811 12.2179 0.671918 12.3793C0.831865 12.5511 1.03309 12.6916 1.27559 12.8009C1.52325 12.905 1.76833 12.9622 2.01083 12.9726C2.17594 12.9831 2.24817 12.8998 2.22753 12.7228C2.19141 12.4834 2.10886 12.2466 1.97987 12.0124C1.85604 11.7781 1.71157 11.5856 1.54647 11.4346C1.38136 11.2733 1.18014 11.1353 0.942796 11.0208C0.705455 10.9063 0.475854 10.8361 0.253992 10.81C0.057928 10.7892 -0.0246253 10.8751 0.00633221 11.0677ZM4.44099 10.3963C4.22945 10.4691 4.01791 10.5862 3.80636 10.7476C3.59482 10.9037 3.42455 11.0729 3.29556 11.2551C3.15626 11.4372 3.0479 11.6558 2.97051 11.9109C2.89828 12.1659 2.86474 12.4157 2.8699 12.6604C2.88538 12.8269 2.97567 12.8946 3.14078 12.8633C3.37296 12.8061 3.59998 12.702 3.82184 12.5511C4.0437 12.3949 4.21655 12.2153 4.34038 12.0124C4.46937 11.8146 4.56998 11.5882 4.64221 11.3331C4.71961 11.0729 4.75057 10.8283 4.73509 10.5993C4.73509 10.3911 4.63705 10.3234 4.44099 10.3963ZM3.14852 8.56938C2.96793 8.71512 2.80798 8.90509 2.66868 9.13931C2.52937 9.36832 2.43649 9.59733 2.39006 9.82634C2.3591 9.99289 2.42618 10.0788 2.59128 10.084C2.82862 10.0892 3.0737 10.0449 3.32652 9.95126C3.5845 9.85757 3.79862 9.73265 3.96889 9.57651C4.14432 9.42557 4.30168 9.2356 4.44099 9.00658C4.5803 8.77237 4.67575 8.54075 4.72735 8.31174C4.75831 8.11916 4.67833 8.02548 4.48743 8.03068C4.25525 8.0515 4.01533 8.11136 3.76767 8.21025C3.52517 8.30394 3.31878 8.42365 3.14852 8.56938ZM0.0140716 7.54664C-0.0117263 7.77565 0.00375242 8.02288 0.0605078 8.28832C0.122423 8.54856 0.215295 8.78017 0.339125 8.98316C0.452636 9.19135 0.612583 9.38133 0.818966 9.55309C1.03051 9.71964 1.24979 9.83415 1.47681 9.89661C1.64192 9.94865 1.73479 9.8862 1.75543 9.70923C1.78123 9.48543 1.76317 9.2434 1.70125 8.98316C1.63934 8.72292 1.54647 8.49131 1.42264 8.28832C1.29881 8.09054 1.13628 7.90837 0.935057 7.74182C0.733833 7.57006 0.53003 7.44254 0.323646 7.35926C0.137901 7.27599 0.0347099 7.33844 0.0140716 7.54664ZM3.57418 5.94616C3.35232 6.02423 3.13562 6.14654 2.92407 6.3131C2.71769 6.47445 2.55258 6.65662 2.42875 6.8596C2.33588 7.00013 2.36942 7.10683 2.52937 7.1797C2.74607 7.27338 2.98857 7.32023 3.25687 7.32023C3.52517 7.31502 3.77025 7.26818 3.99211 7.1797C4.21913 7.09122 4.43583 6.9611 4.64221 6.78934C4.85376 6.61758 5.01641 6.43281 5.12992 6.23503C5.23311 6.07888 5.19183 5.96958 5.00609 5.90712C4.78422 5.84467 4.5416 5.81604 4.27846 5.82124C4.01533 5.82645 3.78056 5.86809 3.57418 5.94616ZM0.973753 3.90067C0.875721 4.11407 0.808647 4.35609 0.77253 4.62674C0.736413 4.89219 0.738993 5.13681 0.780269 5.36062C0.826705 5.60004 0.919578 5.83426 1.05889 6.06327C1.1982 6.29228 1.3633 6.47705 1.55421 6.61758C1.6832 6.71647 1.78897 6.68784 1.87152 6.5317C1.97471 6.32871 2.04179 6.0945 2.07274 5.82905C2.1037 5.56361 2.09338 5.31638 2.04179 5.08737C1.99535 4.86356 1.90506 4.63715 1.77091 4.40814C1.64192 4.17392 1.49487 3.97874 1.32976 3.8226C1.1853 3.69769 1.06663 3.72371 0.973753 3.90067ZM4.97513 3.69769C4.74811 3.73932 4.51838 3.82781 4.2862 3.96313C4.05918 4.09846 3.87344 4.2572 3.72897 4.43937C3.62578 4.56429 3.64384 4.67359 3.78314 4.76727C3.98953 4.88698 4.22429 4.96505 4.48743 5.00149C4.75573 5.03792 5.00351 5.02491 5.23053 4.96245C5.46271 4.9104 5.69231 4.81672 5.91933 4.68139C6.14635 4.54086 6.33468 4.38472 6.48431 4.21296C6.6133 4.06202 6.5875 3.94491 6.40691 3.86164C6.20053 3.76795 5.96577 3.70549 5.70263 3.67426C5.44465 3.64304 5.20215 3.65084 4.97513 3.69769ZM2.69189 1.29307C2.5629 1.49085 2.46229 1.72246 2.39006 1.98791C2.31782 2.24815 2.28945 2.49017 2.30492 2.71398C2.31008 2.94819 2.36426 3.19022 2.46745 3.44005C2.5758 3.68988 2.71511 3.90067 2.88538 4.07243C3.01437 4.19214 3.1253 4.18173 3.21817 4.0412C3.34716 3.84342 3.44519 3.61441 3.51227 3.35417C3.5845 3.09393 3.6103 2.8493 3.58966 2.62029C3.57418 2.39648 3.51743 2.16227 3.41939 1.91764C3.32136 1.67302 3.20011 1.45962 3.05564 1.27745C2.92665 1.12651 2.8054 1.13172 2.69189 1.29307ZM6.68553 0.504539C6.45851 0.540973 6.22633 0.621647 5.98899 0.746562C5.7568 0.866273 5.56074 1.0068 5.40079 1.16815C5.23569 1.3295 5.0938 1.53249 4.97513 1.77711C4.86162 2.01653 4.79184 2.25075 4.76604 2.47976C4.75057 2.64632 4.8255 2.72699 4.99061 2.72179C5.22279 2.70617 5.46013 2.64111 5.70263 2.5266C5.94513 2.4121 6.14893 2.26376 6.31404 2.08159C6.46883 1.92025 6.60298 1.71986 6.71649 1.48044C6.83516 1.23581 6.91255 0.996393 6.94867 0.762177C6.96931 0.564394 6.88159 0.478515 6.68553 0.504539Z"
		fill="currentColor"
	/>
</svg>
