<svg
	color="rgb(var(--foreground, 0, 0, 0))"
	viewBox="0 0 17 14"
	fill="none"
	xmlns="http://www.w3.org/2000/svg"
>
	<path
		d="M0.228345 0.444643C0.144356 0.836446 0.083989 1.26132 0.0472438 1.71927C0.0157479 2.17723 0 2.57666 0 2.91758C0 4.34741 0.207348 5.64239 0.622044 6.80253C1.04199 7.96268 1.64041 8.95999 2.41731 9.79448C3.19946 10.629 4.13396 11.2726 5.22056 11.7255C6.30717 12.1733 7.51975 12.3972 8.85832 12.3972C9.54598 12.3972 10.1628 12.3285 10.7087 12.1911C11.2599 12.0537 11.7428 11.8782 12.1575 11.6644C12.5722 11.4507 12.9239 11.2243 13.2126 10.9852C13.5066 10.7409 13.7402 10.5145 13.9134 10.3059C14.0919 10.0921 14.2152 9.92169 14.2835 9.79448L13.2992 9.77158C13.6404 10.1176 13.9265 10.4789 14.1575 10.8554C14.3937 11.2269 14.5984 11.6314 14.7717 12.069C14.9502 12.5015 15.126 12.9798 15.2992 13.5039C15.3622 13.6871 15.4515 13.8143 15.5669 13.8855C15.6877 13.9618 15.8163 14 15.9528 14C16.2415 14 16.4882 13.8906 16.6929 13.6718C16.8976 13.453 17 13.1757 17 12.8399C17 12.5753 16.916 12.2751 16.748 11.9392C16.5853 11.6034 16.3753 11.2625 16.1181 10.9165C15.8661 10.5654 15.6037 10.2423 15.3307 9.94713C15.063 9.64692 14.8294 9.40268 14.6299 9.21441C14.0525 8.70049 13.4357 8.3036 12.7796 8.02374C12.1286 7.74388 11.4646 7.53017 10.7874 7.3826C10.1155 7.23504 9.45674 7.10783 8.81108 7.00098C8.17066 6.89412 7.56963 6.75928 7.00796 6.59645C6.45153 6.42854 5.96334 6.18684 5.5434 5.87137C5.12345 5.55589 4.8005 5.11575 4.57478 4.55094C4.52228 4.41864 4.54853 4.31688 4.65352 4.24564C4.76375 4.16931 4.88461 4.19476 5.01584 4.32196C5.46728 4.75956 5.93972 5.08267 6.43316 5.29129C6.92659 5.49483 7.43576 5.6373 7.96069 5.71872C8.48562 5.79504 9.02105 5.85356 9.56698 5.89426C10.1129 5.93497 10.6667 6.00621 11.2284 6.10797C11.7901 6.20974 12.3544 6.38529 12.9213 6.63462C13.4935 6.88395 14.063 7.26303 14.6299 7.77186C14.7612 7.88381 14.8924 7.91943 15.0236 7.87872C15.1601 7.83292 15.2389 7.74133 15.2599 7.60395C15.2809 7.49709 15.2966 7.36225 15.3071 7.19942C15.3176 7.03151 15.3229 6.86359 15.3229 6.69568C15.3229 5.45412 15.0473 4.42627 14.4961 3.61214C13.9449 2.79292 13.1838 2.18231 12.2126 1.78033C11.2468 1.37835 10.1365 1.17737 8.88194 1.17737C8.462 1.17737 8.02631 1.20281 7.57487 1.25369C7.12343 1.29949 6.67725 1.34782 6.23631 1.39871C5.79536 1.44959 5.38067 1.47503 4.99222 1.47503C4.57227 1.47503 4.13908 1.45214 3.69289 1.40634C3.2467 1.35546 2.80838 1.24097 2.37794 1.06288C1.94749 0.879697 1.5433 0.592205 1.16535 0.200403C1.00262 0.0375755 0.821517 -0.0260289 0.622044 0.00958958C0.42257 0.0401197 0.291337 0.185138 0.228345 0.444643Z"
		fill="currentColor"
	/>
</svg>
