<svg
	color="rgb(var(--foreground, 0, 0, 0))"
	viewBox="0 0 17 14"
	fill="none"
	xmlns="http://www.w3.org/2000/svg"
>
	<path
		d="M0 3.10385C0 4.51045 0.213939 5.78644 0.641816 6.93182C1.06969 8.07217 1.68209 9.05177 2.47902 9.87061C3.28129 10.6895 4.24123 11.3199 5.35906 11.762C6.47689 12.199 7.72575 12.4176 9.10566 12.4176C10.0684 12.4176 10.9509 12.2794 11.7532 12.0031C12.5554 11.7268 13.248 11.3375 13.831 10.8351C14.4194 10.3328 14.874 9.73749 15.1949 9.04926C15.5211 8.36103 15.6843 7.60498 15.6843 6.78111C15.6843 5.98738 15.5211 5.25896 15.1949 4.59585C14.874 3.92771 14.4194 3.35 13.831 2.86271C13.248 2.3704 12.5554 1.99112 11.7532 1.72487C10.9562 1.4536 10.0844 1.31796 9.13775 1.31796C8.47989 1.31796 7.814 1.37573 7.1401 1.49128C6.47154 1.60682 5.77089 1.66459 5.03815 1.66459C4.41773 1.66459 3.84275 1.56663 3.31325 1.37071C2.78375 1.17479 2.29717 0.840721 1.85324 0.368504C1.69814 0.197702 1.50827 0.0846717 1.28363 0.0294123C1.059 -0.0258472 0.847732 -0.00324102 0.649839 0.0972307C0.451946 0.197702 0.31556 0.39111 0.240681 0.677455C0.176499 0.92361 0.125689 1.20995 0.0882497 1.53649C0.0561589 1.86302 0.0320908 2.17197 0.0160454 2.46334C0.00534847 2.75471 0 2.96821 0 3.10385ZM1.21143 3.10385C1.21143 2.85267 1.2141 2.59646 1.21945 2.33524C1.23015 2.07401 1.25422 1.84293 1.29166 1.64198C1.3077 1.54151 1.35584 1.52644 1.43606 1.59677C1.88534 1.98359 2.4361 2.28249 3.08862 2.49348C3.74113 2.69945 4.39098 2.80243 5.03815 2.80243C5.47137 2.80243 5.88321 2.78234 6.27364 2.74215C6.66943 2.69694 7.04382 2.65172 7.39682 2.60651C7.71773 2.56632 8.01992 2.53116 8.30339 2.50102C8.58686 2.47087 8.86498 2.4558 9.13775 2.4558C10.1807 2.4558 11.1033 2.64168 11.9056 3.01342C12.7079 3.38014 13.3363 3.89004 13.7909 4.5431C14.2455 5.19114 14.4728 5.93715 14.4728 6.78111C14.4728 7.66526 14.2455 8.44643 13.7909 9.12461C13.3363 9.79777 12.7052 10.3252 11.8976 10.707C11.0953 11.0888 10.1647 11.2797 9.10566 11.2797C7.89691 11.2797 6.80582 11.0888 5.8324 10.707C4.86432 10.3252 4.0353 9.77768 3.34534 9.06433C2.65539 8.35098 2.12602 7.49195 1.75697 6.48723C1.39328 5.48251 1.21143 4.35472 1.21143 3.10385ZM4.69317 4.85959C4.85897 5.34688 5.12907 5.74876 5.50347 6.06525C5.88321 6.37671 6.33783 6.63291 6.86733 6.83386C7.39682 7.0348 7.97713 7.20811 8.60825 7.3538C9.28751 7.50451 9.88386 7.65521 10.3973 7.80592C10.9108 7.95663 11.36 8.11989 11.7451 8.29572C12.1356 8.47155 12.4832 8.67751 12.7881 8.91362C13.0983 9.14471 13.3898 9.421 13.6626 9.74251C13.9621 10.0891 14.1974 10.4584 14.3686 10.8502C14.5451 11.2421 14.6975 11.659 14.8258 12.1011C14.9542 12.5432 15.1013 13.0129 15.2671 13.5102C15.3313 13.691 15.4222 13.8166 15.5399 13.887C15.6629 13.9623 15.7939 14 15.933 14C16.2271 14 16.4785 13.887 16.6871 13.6609C16.8957 13.4348 17 13.1661 17 12.8546C17 12.5934 16.9305 12.2945 16.7914 11.9579C16.6577 11.6213 16.4812 11.2722 16.2619 10.9105C16.048 10.5488 15.818 10.1971 15.572 9.85554C15.3313 9.50892 15.1066 9.20248 14.8981 8.93623C14.3579 8.26307 13.6117 7.72303 12.6597 7.31612C11.7077 6.90921 10.4936 6.59273 9.01741 6.36666C8.50931 6.28629 8.02259 6.1833 7.55728 6.05771C7.09731 5.9271 6.66943 5.74876 6.27364 5.5227C5.88321 5.29664 5.53288 4.99522 5.22267 4.61846C5.13709 4.50794 5.04617 4.45519 4.9499 4.46021C4.85363 4.46021 4.77607 4.49789 4.71724 4.57324C4.65841 4.6486 4.65038 4.74405 4.69317 4.85959Z"
		fill="currentColor"
	/>
</svg>
