<svg
	color="rgb(var(--foreground, 0, 0, 0))"
	viewBox="0 0 20 22"
	fill="none"
	xmlns="http://www.w3.org/2000/svg"
>
	<path
		d="M9.22733 0C8.79178 0 8.40193 0.119065 8.05778 0.357196C7.71902 0.595326 7.42327 0.903813 7.17054 1.28266C6.92319 1.6615 6.71616 2.0674 6.54947 2.50037C6.38278 2.93333 6.2591 3.35547 6.17844 3.76679C6.09778 4.17269 6.05745 4.51907 6.05745 4.8059C6.05745 5.2984 6.11929 5.68266 6.24297 5.95867C6.37202 6.22927 6.5199 6.43764 6.68659 6.58376C6.85866 6.72448 7.00653 6.83813 7.13021 6.92472C7.25926 7.0059 7.32379 7.10332 7.32379 7.21697C7.32379 7.31439 7.23776 7.41722 7.06568 7.52546L4.42009 9.17343L3.78288 8.36162C3.7076 8.2588 3.66996 8.14514 3.66996 8.02066C3.66996 7.89619 3.71298 7.78795 3.79902 7.69594C3.88505 7.59852 4.01679 7.54982 4.19424 7.54982C4.44697 7.54982 4.64862 7.47405 4.79918 7.32251C4.95512 7.17097 5.03309 6.98155 5.03309 6.75424C5.03309 6.52694 4.95512 6.33481 4.79918 6.17786C4.64324 6.02091 4.45235 5.94244 4.22651 5.94244C4.00066 5.94244 3.80708 6.02091 3.64576 6.17786C3.48982 6.33481 3.41185 6.52694 3.41185 6.75424C3.41185 6.81919 3.41454 6.86519 3.41992 6.89225C3.44681 7.05461 3.42261 7.16556 3.34733 7.22509C3.27205 7.28463 3.18332 7.30627 3.08115 7.29004C2.98436 7.26839 2.91177 7.21697 2.86338 7.13579C2.82036 7.05461 2.84187 6.95449 2.9279 6.83542C3.03545 6.6893 3.08922 6.52694 3.08922 6.34834C3.08922 6.12103 3.00856 5.92891 2.84724 5.77196C2.69131 5.61501 2.50041 5.53653 2.27457 5.53653C2.0541 5.53653 1.86321 5.61501 1.70189 5.77196C1.54595 5.92891 1.46798 6.12103 1.46798 6.34834C1.46798 6.52694 1.51638 6.68389 1.61317 6.81919C1.70996 6.94908 1.83633 7.0492 1.99226 7.11956C2.11594 7.17368 2.18047 7.24403 2.18585 7.33063C2.1966 7.41722 2.16971 7.4957 2.10519 7.56605C2.04604 7.63641 1.97344 7.677 1.88741 7.68782C1.80137 7.69324 1.7234 7.64723 1.6535 7.54982C1.4868 7.30627 1.25827 7.1845 0.967902 7.1845C0.742058 7.1845 0.551166 7.26298 0.395227 7.41993C0.239287 7.57688 0.161317 7.769 0.161317 7.99631C0.161317 8.22362 0.239287 8.41845 0.395227 8.58081C0.551166 8.73776 0.742058 8.81624 0.967902 8.81624C1.11846 8.81624 1.26365 8.77294 1.40346 8.68635C1.58628 8.57269 1.75567 8.52669 1.91161 8.54834C2.06755 8.56458 2.21811 8.66741 2.36329 8.85683L3.60543 10.4561C3.76137 10.6563 3.95495 10.7916 4.18618 10.862C4.42277 10.9323 4.654 10.908 4.87984 10.7889L6.08165 10.1395L5.84774 10.107C5.71869 10.4804 5.62727 10.908 5.5735 11.3897C5.52511 11.8713 5.57888 12.4098 5.73482 13.0052L5.82354 12.8022L4.71852 12.1934C4.49268 12.0689 4.26146 12.0418 4.02486 12.1122C3.79364 12.1825 3.60006 12.3205 3.44412 12.5262L2.21004 14.1255C2.05948 14.3149 1.90623 14.4204 1.75029 14.4421C1.59435 14.4583 1.42497 14.4096 1.24214 14.2959C1.10771 14.2093 0.965213 14.1661 0.814651 14.1661C0.588807 14.1661 0.395227 14.2472 0.23391 14.4096C0.0779699 14.5665 0 14.7587 0 14.986C0 15.2079 0.0779699 15.4 0.23391 15.5624C0.395227 15.7193 0.588807 15.7978 0.814651 15.7978C1.09964 15.7978 1.32549 15.6733 1.49218 15.4244C1.56209 15.3323 1.64006 15.2918 1.72609 15.3026C1.81213 15.308 1.88472 15.3459 1.94387 15.4162C2.0084 15.4812 2.03528 15.557 2.02453 15.6435C2.01915 15.7301 1.95462 15.8032 1.83095 15.8627C1.67501 15.9331 1.54864 16.0359 1.45185 16.1712C1.35506 16.3011 1.30667 16.4526 1.30667 16.6258C1.30667 16.8531 1.38464 17.0453 1.54058 17.2022C1.70189 17.3646 1.89547 17.4458 2.12132 17.4458C2.34178 17.4458 2.52999 17.3646 2.68593 17.2022C2.84724 17.0453 2.9279 16.8531 2.9279 16.6258C2.9279 16.4526 2.87682 16.2903 2.77465 16.1387C2.68324 16.0197 2.65904 15.9223 2.70206 15.8465C2.75045 15.7653 2.82305 15.7166 2.91984 15.7004C3.02201 15.6787 3.11073 15.6977 3.18601 15.7572C3.26667 15.8167 3.29356 15.9277 3.26667 16.09C3.25591 16.1117 3.25054 16.1577 3.25054 16.228C3.25054 16.4554 3.32851 16.6475 3.48445 16.8044C3.64576 16.9614 3.83934 17.0399 4.06519 17.0399C4.29103 17.0399 4.48192 16.9614 4.63786 16.8044C4.7938 16.6475 4.87177 16.4554 4.87177 16.228C4.87177 16.0007 4.79649 15.8113 4.64593 15.6598C4.49537 15.5082 4.29103 15.4325 4.03292 15.4325C3.85548 15.4325 3.72373 15.3865 3.6377 15.2945C3.55166 15.197 3.50864 15.0861 3.50864 14.9616C3.50864 14.8317 3.54629 14.7181 3.62157 14.6207L4.26683 13.8089L7.33186 16.2768C7.43402 17.0669 7.67062 17.8084 8.04165 18.5011C8.41268 19.1939 8.90201 19.8027 9.50964 20.3277C10.1226 20.8526 10.8405 21.2613 11.6632 21.5535C12.4859 21.8512 13.3974 22 14.3975 22C15.2041 22 15.922 21.8891 16.5511 21.6672C17.1803 21.4507 17.7207 21.1747 18.1724 20.8391C18.6294 20.5036 18.998 20.1626 19.2776 19.8162C19.5626 19.4699 19.7616 19.1722 19.8745 18.9232C19.9982 18.6472 20.0304 18.3983 19.9713 18.1764C19.9175 17.9599 19.8073 17.7867 19.6406 17.6568C19.4739 17.5323 19.2857 17.4728 19.076 17.4782C18.8717 17.4836 18.6805 17.5784 18.5031 17.7624C18.1213 18.152 17.718 18.4389 17.2932 18.6229C16.8738 18.8123 16.4597 18.9368 16.051 18.9963C15.6424 19.0558 15.2687 19.0856 14.9299 19.0856C14.5427 19.0856 14.1583 19.0125 13.7765 18.8664C13.3947 18.7257 13.0371 18.5201 12.7037 18.2494C12.3757 17.9788 12.0961 17.6568 11.8649 17.2834C11.639 16.91 11.4831 16.4905 11.397 16.0251L14.1717 13.8089L14.8089 14.6207C14.8896 14.7181 14.9299 14.8317 14.9299 14.9616C14.9299 15.0861 14.8869 15.197 14.8008 15.2945C14.7148 15.3865 14.5831 15.4325 14.4056 15.4325C14.1475 15.4325 13.9432 15.5082 13.7926 15.6598C13.642 15.8113 13.5668 16.0007 13.5668 16.228C13.5668 16.4554 13.6447 16.6475 13.8007 16.8044C13.9566 16.9614 14.1475 17.0399 14.3733 17.0399C14.5992 17.0399 14.7901 16.9614 14.946 16.8044C15.1073 16.6475 15.188 16.4554 15.188 16.228C15.188 16.1577 15.1826 16.1117 15.1719 16.09C15.145 15.9277 15.1692 15.8167 15.2445 15.7572C15.3251 15.6977 15.4138 15.6787 15.5106 15.7004C15.6128 15.7166 15.6854 15.7653 15.7284 15.8465C15.7768 15.9223 15.7553 16.0197 15.6639 16.1387C15.5617 16.2903 15.5106 16.4526 15.5106 16.6258C15.5106 16.8531 15.5886 17.0453 15.7445 17.2022C15.9005 17.3646 16.0914 17.4458 16.3172 17.4458C16.5431 17.4458 16.7339 17.3646 16.8899 17.2022C17.0512 17.0453 17.1319 16.8531 17.1319 16.6258C17.1319 16.4526 17.0835 16.3011 16.9867 16.1712C16.8899 16.0359 16.7635 15.9331 16.6076 15.8627C16.4839 15.8032 16.4167 15.7301 16.4059 15.6435C16.4006 15.557 16.4274 15.4812 16.4866 15.4162C16.5511 15.3459 16.6264 15.308 16.7124 15.3026C16.7985 15.2918 16.8764 15.3323 16.9464 15.4244C17.1077 15.6733 17.3335 15.7978 17.6239 15.7978C17.8497 15.7978 18.0406 15.7193 18.1966 15.5624C18.3579 15.4 18.4385 15.2079 18.4385 14.986C18.4385 14.7587 18.3579 14.5665 18.1966 14.4096C18.0406 14.2472 17.8497 14.1661 17.6239 14.1661C17.4733 14.1661 17.3281 14.2093 17.1883 14.2959C17.0109 14.4096 16.8442 14.4583 16.6882 14.4421C16.5323 14.4204 16.3791 14.3149 16.2285 14.1255L14.9944 12.5262C14.8385 12.3205 14.6422 12.1825 14.4056 12.1122C14.1744 12.0418 13.9459 12.0689 13.72 12.1934L12.6231 12.7941L12.7118 13.0133C12.8731 12.418 12.9242 11.8768 12.865 11.3897C12.8113 10.9026 12.7225 10.4696 12.5989 10.0908L12.3649 10.1395L13.5668 10.7889C13.7926 10.908 14.0211 10.9323 14.2524 10.862C14.489 10.7916 14.6852 10.6563 14.8412 10.4561L16.0833 8.85683C16.2285 8.66741 16.3791 8.56458 16.535 8.54834C16.6909 8.52669 16.8603 8.57269 17.0431 8.68635C17.1829 8.77294 17.3281 8.81624 17.4787 8.81624C17.7045 8.81624 17.8954 8.73776 18.0514 8.58081C18.2073 8.41845 18.2853 8.22362 18.2853 7.99631C18.2853 7.769 18.2073 7.57688 18.0514 7.41993C17.8954 7.26298 17.7045 7.1845 17.4787 7.1845C17.1883 7.1845 16.9598 7.30627 16.7931 7.54982C16.7232 7.64723 16.6452 7.69324 16.5592 7.68782C16.4732 7.677 16.3979 7.63641 16.3333 7.56605C16.2742 7.4957 16.2473 7.41722 16.2527 7.33063C16.2634 7.24403 16.3307 7.17368 16.4543 7.11956C16.6103 7.0492 16.7366 6.94908 16.8334 6.81919C16.9302 6.68389 16.9786 6.52694 16.9786 6.34834C16.9786 6.12103 16.898 5.92891 16.7366 5.77196C16.5807 5.61501 16.3925 5.53653 16.172 5.53653C15.9462 5.53653 15.7526 5.61501 15.5913 5.77196C15.4353 5.92891 15.3574 6.12103 15.3574 6.34834C15.3574 6.52694 15.4111 6.6893 15.5187 6.83542C15.6047 6.95449 15.6236 7.05461 15.5752 7.13579C15.5321 7.21697 15.4595 7.26839 15.3574 7.29004C15.2606 7.30627 15.1746 7.28463 15.0993 7.22509C15.024 7.16556 14.9998 7.05461 15.0267 6.89225C15.0321 6.86519 15.0347 6.81919 15.0347 6.75424C15.0347 6.52694 14.9541 6.33481 14.7928 6.17786C14.6368 6.02091 14.4459 5.94244 14.2201 5.94244C13.9996 5.94244 13.8087 6.02091 13.6474 6.17786C13.4915 6.33481 13.4135 6.52694 13.4135 6.75424C13.4135 6.98155 13.4888 7.17097 13.6394 7.32251C13.7953 7.47405 13.9996 7.54982 14.2524 7.54982C14.4298 7.54982 14.5615 7.59852 14.6476 7.69594C14.7336 7.78795 14.7766 7.89619 14.7766 8.02066C14.7766 8.14514 14.739 8.2588 14.6637 8.36162L14.0265 9.17343L11.389 7.52546C11.2115 7.41181 11.1228 7.30898 11.1228 7.21697C11.1228 7.10332 11.1846 7.0032 11.3083 6.91661C11.4374 6.83001 11.5852 6.71636 11.7519 6.57565C11.924 6.42952 12.0719 6.22116 12.1956 5.95055C12.3246 5.67454 12.3891 5.29299 12.3891 4.8059C12.3891 4.51907 12.3488 4.17269 12.2682 3.76679C12.1875 3.35547 12.0638 2.93333 11.8971 2.50037C11.7304 2.0674 11.5207 1.6615 11.268 1.28266C11.0206 0.903813 10.7249 0.595326 10.3807 0.357196C10.042 0.119065 9.65751 0 9.22733 0Z"
		fill="currentColor"
	/>
</svg>
