<svg
	color="rgb(var(--foreground, 0, 0, 0))"
	viewBox="0 0 17 16"
	fill="none"
	xmlns="http://www.w3.org/2000/svg"
>
	<path
		d="M0 7.24573C0 7.7616 0.0834918 8.22537 0.250475 8.63703C0.422845 9.04869 0.654468 9.37697 0.945342 9.62189C1.2416 9.86159 1.57018 9.98144 1.93108 9.98144C2.29737 9.98144 2.62595 9.86159 2.91683 9.62189C3.21309 9.37697 3.44471 9.04869 3.61169 8.63703C3.78406 8.22537 3.87025 7.7616 3.87025 7.24573C3.87025 6.73506 3.78406 6.2739 3.61169 5.86224C3.44471 5.44537 3.21309 5.11708 2.91683 4.87738C2.62595 4.63247 2.29737 4.51001 1.93108 4.51001C1.57018 4.51001 1.2416 4.63247 0.945342 4.87738C0.654468 5.11708 0.422845 5.44537 0.250475 5.86224C0.0834918 6.2739 0 6.73506 0 7.24573ZM3.91873 2.73571C3.91873 3.24638 4.00491 3.71014 4.17728 4.12702C4.34965 4.53867 4.58127 4.86435 4.87215 5.10405C5.16841 5.34376 5.49699 5.46361 5.85789 5.46361C6.22418 5.46361 6.55276 5.34376 6.84363 5.10405C7.13989 4.86435 7.37421 4.53867 7.54658 4.12702C7.71895 3.71014 7.80513 3.24638 7.80513 2.73571C7.80513 2.21983 7.71895 1.75607 7.54658 1.34441C7.37421 0.932747 7.13989 0.607067 6.84363 0.367367C6.55276 0.122456 6.22418 0 5.85789 0C5.49699 0 5.16841 0.122456 4.87215 0.367367C4.58127 0.607067 4.34965 0.932747 4.17728 1.34441C4.00491 1.75607 3.91873 2.21983 3.91873 2.73571ZM9.20295 2.73571C9.20295 3.24638 9.28644 3.71014 9.45342 4.12702C9.62579 4.53867 9.85742 4.86435 10.1483 5.10405C10.4446 5.34376 10.7758 5.46361 11.1421 5.46361C11.503 5.46361 11.8289 5.34376 12.1198 5.10405C12.416 4.86435 12.6503 4.53867 12.8227 4.12702C12.9951 3.71014 13.0813 3.24638 13.0813 2.73571C13.0813 2.21983 12.9951 1.75607 12.8227 1.34441C12.6503 0.932747 12.416 0.607067 12.1198 0.367367C11.8289 0.122456 11.503 0 11.1421 0C10.7758 0 10.4446 0.122456 10.1483 0.367367C9.85742 0.607067 9.62579 0.932747 9.45342 1.34441C9.28644 1.75607 9.20295 2.21983 9.20295 2.73571ZM13.1298 7.24573C13.1298 7.7616 13.2159 8.22537 13.3883 8.63703C13.5607 9.04869 13.7923 9.37697 14.0832 9.62189C14.3741 9.86159 14.7026 9.98144 15.0689 9.98144C15.4298 9.98144 15.7557 9.86159 16.0466 9.62189C16.3428 9.37697 16.5745 9.04869 16.7414 8.63703C16.9138 8.22537 17 7.7616 17 7.24573C17 6.73506 16.9138 6.2739 16.7414 5.86224C16.5745 5.44537 16.3428 5.11708 16.0466 4.87738C15.7557 4.63247 15.4298 4.51001 15.0689 4.51001C14.7026 4.51001 14.3741 4.63247 14.0832 4.87738C13.7923 5.11708 13.5607 5.44537 13.3883 5.86224C13.2159 6.2739 13.1298 6.73506 13.1298 7.24573ZM2.42395 13.2956C2.42395 13.8219 2.53707 14.2882 2.76331 14.6947C2.99493 15.1011 3.31274 15.419 3.71673 15.6483C4.12611 15.8828 4.60013 16 5.13878 16C5.53739 16 5.89021 15.9557 6.19724 15.8671C6.50428 15.7785 6.79785 15.6873 7.07795 15.5936C7.30418 15.5154 7.53042 15.445 7.75665 15.3825C7.98828 15.3252 8.23606 15.2965 8.5 15.2965C8.76394 15.2965 9.00903 15.3252 9.23527 15.3825C9.4615 15.445 9.69043 15.5154 9.92205 15.5936C10.1968 15.6873 10.4876 15.7785 10.7947 15.8671C11.1017 15.9557 11.4545 16 11.8531 16C12.3918 16 12.8658 15.8828 13.2752 15.6483C13.6846 15.419 14.0024 15.1011 14.2286 14.6947C14.4602 14.2882 14.576 13.8219 14.576 13.2956C14.576 12.8474 14.4952 12.4644 14.3337 12.1466C14.1721 11.8287 13.9647 11.5525 13.7115 11.318C13.4637 11.0783 13.2079 10.8517 12.9439 10.638C12.7231 10.466 12.5103 10.2941 12.3056 10.1221C12.1009 9.94496 11.9259 9.74695 11.7804 9.52809C11.6565 9.35092 11.5434 9.17114 11.4411 8.98876C11.3441 8.80117 11.2525 8.61619 11.1664 8.4338C10.9724 8.03257 10.7731 7.65478 10.5684 7.30044C10.3691 6.94089 10.1106 6.65168 9.79278 6.43283C9.47497 6.20876 9.04404 6.09673 8.5 6.09673C7.95596 6.09673 7.52503 6.20876 7.20722 6.43283C6.88942 6.65168 6.62817 6.94089 6.42348 7.30044C6.22418 7.65478 6.02757 8.02996 5.83365 8.42599C5.74747 8.60837 5.6532 8.79336 5.55086 8.98095C5.4539 9.16333 5.34617 9.3405 5.22766 9.51246C5.08222 9.73131 4.90447 9.93193 4.69439 10.1143C4.4897 10.2915 4.27693 10.466 4.05608 10.638C3.78676 10.8517 3.5282 11.0783 3.28042 11.318C3.03264 11.5525 2.82795 11.8287 2.66635 12.1466C2.50475 12.4644 2.42395 12.8474 2.42395 13.2956Z"
		fill="currentColor"
	/>
</svg>
