<svg
	color="rgb(var(--foreground, 0, 0, 0))"
	viewBox="0 0 17 16"
	fill="none"
	xmlns="http://www.w3.org/2000/svg"
>
	<path
		d="M5.45715 16C5.8503 16 6.18841 15.9622 6.47147 15.8867C6.75454 15.8111 7.00878 15.728 7.23418 15.6374C7.47007 15.5417 7.68237 15.4536 7.87108 15.373C8.06504 15.2924 8.2721 15.2521 8.49226 15.2521C8.70718 15.2521 8.91162 15.2924 9.10557 15.373C9.29953 15.4536 9.51445 15.5417 9.75034 15.6374C9.9705 15.728 10.2221 15.8111 10.5052 15.8867C10.7882 15.9622 11.1264 16 11.5195 16C12.0856 16 12.5941 15.8791 13.0449 15.6374C13.4957 15.4007 13.8522 15.0759 14.1143 14.6629C14.3764 14.2499 14.5074 13.7866 14.5074 13.2729C14.5074 12.7642 14.4209 12.3362 14.248 11.9887C14.075 11.6361 13.8574 11.3365 13.5953 11.0897C13.3332 10.8429 13.0711 10.6163 12.809 10.4098C12.5994 10.2537 12.4054 10.1026 12.2272 9.95656C12.0542 9.80548 11.9153 9.64432 11.8104 9.47309C11.7056 9.31193 11.6112 9.14322 11.5274 8.96695C11.4435 8.78565 11.3596 8.60434 11.2758 8.42304C11.1028 8.04029 10.9114 7.67265 10.7018 7.32011C10.4921 6.96758 10.2143 6.678 9.86828 6.45137C9.52231 6.2197 9.06364 6.10387 8.49226 6.10387C7.91564 6.10387 7.45435 6.2197 7.10838 6.45137C6.7624 6.678 6.48458 6.96758 6.2749 7.32011C6.06522 7.67265 5.87651 8.03777 5.70877 8.41549C5.62489 8.60182 5.54102 8.78313 5.45715 8.95939C5.37328 9.13566 5.2813 9.30186 5.1817 9.45798C5.07162 9.63425 4.92746 9.79792 4.74924 9.94901C4.57101 10.1001 4.37968 10.2537 4.17524 10.4098C3.9079 10.6163 3.64318 10.8429 3.38108 11.0897C3.12422 11.3365 2.9093 11.6361 2.73632 11.9887C2.56333 12.3362 2.47684 12.7642 2.47684 13.2729C2.47684 13.7866 2.60789 14.2499 2.86999 14.6629C3.13209 15.0759 3.48854 15.4007 3.93935 15.6374C4.39016 15.8791 4.89626 16 5.45715 16ZM5.45715 14.9046C4.92247 14.9046 4.4819 14.751 4.13593 14.4438C3.78995 14.1366 3.61697 13.7463 3.61697 13.2729C3.61697 12.8297 3.69822 12.4847 3.86072 12.238C4.02846 11.9912 4.24077 11.7797 4.49762 11.6034C4.75448 11.4271 5.02444 11.2282 5.30751 11.0066C5.59582 10.78 5.86078 10.4677 6.10191 10.0699C6.28014 9.77778 6.44002 9.46805 6.58156 9.1407C6.72309 8.80831 6.87249 8.49607 7.02975 8.20397C7.18701 7.90683 7.38096 7.66509 7.61161 7.47875C7.84225 7.29241 8.13581 7.19924 8.49226 7.19924C8.84871 7.19924 9.13964 7.29241 9.36505 7.47875C9.5957 7.66509 9.78965 7.90683 9.94691 8.20397C10.1094 8.49607 10.2614 8.80831 10.403 9.1407C10.5445 9.47309 10.7044 9.78785 10.8826 10.085C11.1237 10.4778 11.3858 10.785 11.6689 11.0066C11.9572 11.2282 12.2298 11.4271 12.4867 11.6034C12.7435 11.7797 12.9532 11.9912 13.1157 12.238C13.2834 12.4847 13.3673 12.8297 13.3673 13.2729C13.3673 13.7463 13.1917 14.1366 12.8405 14.4438C12.4945 14.751 12.0542 14.9046 11.5195 14.9046C11.2469 14.9046 10.9901 14.8669 10.7489 14.7913C10.513 14.7208 10.2798 14.6352 10.0491 14.5345C9.81848 14.4388 9.57735 14.3532 9.32574 14.2776C9.07412 14.2021 8.79629 14.1643 8.49226 14.1643C8.18822 14.1643 7.90778 14.2021 7.65092 14.2776C7.39931 14.3532 7.15817 14.4388 6.92753 14.5345C6.69688 14.6352 6.46361 14.7208 6.22772 14.7913C5.99183 14.8669 5.73498 14.9046 5.45715 14.9046ZM0 7.22191C0 8.07806 0.191332 8.77054 0.573997 9.29934C0.961904 9.8231 1.473 10.085 2.10728 10.085C2.74156 10.085 3.25265 9.8231 3.64056 9.29934C4.02846 8.77054 4.22242 8.07806 4.22242 7.22191C4.22242 6.36575 4.02846 5.67579 3.64056 5.15203C3.25265 4.62323 2.74156 4.35883 2.10728 4.35883C1.473 4.35883 0.961904 4.62323 0.573997 5.15203C0.191332 5.67579 0 6.36575 0 7.22191ZM1.09295 7.22191C1.09295 6.678 1.18469 6.23985 1.36816 5.90746C1.55687 5.57507 1.80324 5.40888 2.10728 5.40888C2.41131 5.40888 2.65769 5.57507 2.8464 5.90746C3.03511 6.23985 3.12946 6.678 3.12946 7.22191C3.12946 7.76582 3.03511 8.20397 2.8464 8.53635C2.65769 8.86874 2.41131 9.03494 2.10728 9.03494C1.80324 9.03494 1.55687 8.86874 1.36816 8.53635C1.18469 8.20397 1.09295 7.76582 1.09295 7.22191ZM3.82141 2.85552C3.82141 3.71671 4.01274 4.40919 4.3954 4.93296C4.78331 5.45168 5.29465 5.71105 5.92893 5.71105C6.56321 5.71105 7.0743 5.44917 7.46221 4.9254C7.85012 4.40164 8.04407 3.71168 8.04407 2.85552C8.04407 1.99937 7.85012 1.30941 7.46221 0.785647C7.07955 0.261882 6.56845 0 5.92893 0C5.29465 0 4.78331 0.261882 4.3954 0.785647C4.01274 1.30941 3.82141 1.99937 3.82141 2.85552ZM4.91436 2.85552C4.91436 2.31161 5.00609 1.87598 5.18956 1.54863C5.37828 1.21624 5.62489 1.05005 5.92893 1.05005C6.23821 1.05005 6.48458 1.21624 6.66805 1.54863C6.85676 1.88102 6.95112 2.31665 6.95112 2.85552C6.95112 3.39943 6.85676 3.83758 6.66805 4.16997C6.48458 4.49732 6.23821 4.661 5.92893 4.661C5.62489 4.661 5.37828 4.49732 5.18956 4.16997C5.00609 3.83758 4.91436 3.39943 4.91436 2.85552ZM8.95617 2.85552C8.95617 3.42461 9.04267 3.92572 9.21565 4.35883C9.39388 4.78691 9.64025 5.11929 9.95477 5.356C10.2745 5.5927 10.6467 5.71105 11.0713 5.71105C11.7056 5.71105 12.2141 5.45168 12.5967 4.93296C12.9846 4.40919 13.1786 3.71671 13.1786 2.85552C13.1786 1.99937 12.9846 1.30941 12.5967 0.785647C12.2141 0.261882 11.7056 0 11.0713 0C10.6467 0 10.2745 0.120869 9.95477 0.362606C9.64025 0.599308 9.39388 0.931696 9.21565 1.35977C9.04267 1.78281 8.95617 2.2814 8.95617 2.85552ZM10.0491 2.85552C10.0491 2.31665 10.1409 1.88102 10.3243 1.54863C10.513 1.21624 10.762 1.05005 11.0713 1.05005C11.3754 1.05005 11.6191 1.21624 11.8026 1.54863C11.9913 1.87598 12.0856 2.31161 12.0856 2.85552C12.0856 3.39943 11.9913 3.83758 11.8026 4.16997C11.6191 4.49732 11.3754 4.661 11.0713 4.661C10.762 4.661 10.513 4.49732 10.3243 4.16997C10.1409 3.83758 10.0491 3.39943 10.0491 2.85552ZM12.7776 7.22191C12.7776 7.791 12.8641 8.2921 13.0371 8.72521C13.2153 9.15329 13.4617 9.4882 13.7762 9.72993C14.0959 9.96663 14.4681 10.085 14.8927 10.085C15.527 10.085 16.0355 9.8231 16.4181 9.29934C16.806 8.77054 17 8.07806 17 7.22191C17 6.36575 16.806 5.67579 16.4181 5.15203C16.0355 4.62323 15.527 4.35883 14.8927 4.35883C14.4681 4.35883 14.0959 4.4797 13.7762 4.72144C13.4617 4.95814 13.2153 5.29304 13.0371 5.72616C12.8641 6.15423 12.7776 6.65282 12.7776 7.22191ZM13.8705 7.22191C13.8705 6.678 13.9649 6.23985 14.1536 5.90746C14.3423 5.57507 14.5887 5.40888 14.8927 5.40888C15.202 5.40888 15.4484 5.57507 15.6318 5.90746C15.8153 6.23985 15.907 6.678 15.907 7.22191C15.907 7.76582 15.8153 8.20397 15.6318 8.53635C15.4484 8.86874 15.202 9.03494 14.8927 9.03494C14.5887 9.03494 14.3423 8.86874 14.1536 8.53635C13.9649 8.20397 13.8705 7.76582 13.8705 7.22191Z"
		fill="currentColor"
	/>
</svg>
