<svg
	color="rgb(var(--foreground, 0, 0, 0))"
	viewBox="0 0 24 18"
	fill="none"
	xmlns="http://www.w3.org/2000/svg"
>
	<path
		d="M12.5769 16.8774C12.8599 16.8774 13.151 16.8327 13.45 16.7434C13.7491 16.6593 14.1603 16.6173 14.6837 16.6173C15.0361 16.6173 15.3219 16.6383 15.5408 16.6803C15.7598 16.7224 15.96 16.7644 16.1416 16.8064C16.3285 16.8537 16.5528 16.8774 16.8145 16.8774C17.4073 16.8774 17.8559 16.7618 18.1603 16.5306C18.47 16.3047 18.6249 15.9868 18.6249 15.577C18.6249 15.1146 18.462 14.71 18.1362 14.3632C17.8158 14.0165 17.3592 13.7459 16.7664 13.5515C16.179 13.3571 15.4821 13.2599 14.6757 13.2599C14.2805 13.2599 13.9467 13.273 13.6743 13.2993C13.402 13.3203 13.159 13.3518 12.9454 13.3938C12.7318 13.4359 12.5128 13.4832 12.2885 13.5357L11.4234 11.5969C11.1403 10.9769 10.7985 10.4383 10.398 9.98122C9.99748 9.51885 9.53553 9.16157 9.01217 8.90936C8.49415 8.65191 7.91205 8.52318 7.26586 8.52318H6.32061C6.16574 8.52318 6.04024 8.48903 5.94411 8.42072C5.84799 8.35242 5.79992 8.24208 5.79992 8.08971C5.79992 7.84801 5.94144 7.68776 6.22448 7.60895C6.50753 7.52488 6.83062 7.48285 7.19377 7.48285C8.36865 7.48285 9.386 7.80073 10.2458 8.43649C11.1056 9.07225 11.7999 10.0285 12.3286 11.3053L12.8813 12.6215C13.1483 12.5637 13.426 12.5216 13.7144 12.4954C14.0081 12.4691 14.3018 12.456 14.5956 12.456C14.8359 12.456 15.0655 12.4638 15.2845 12.4796C15.5088 12.4954 15.7331 12.519 15.9574 12.5505C16.203 12.3719 16.47 12.1932 16.7584 12.0146C17.0521 11.8307 17.4019 11.6521 17.8078 11.4787C18.1069 11.6783 18.4193 11.8517 18.745 11.9988C19.0708 12.146 19.4046 12.2616 19.7464 12.3456C20.0882 12.4244 20.438 12.4638 20.7958 12.4638C21.5327 12.4638 22.1362 12.3955 22.6062 12.2589C23.0814 12.1223 23.4312 11.8727 23.6555 11.5102C23.8852 11.1424 24 10.617 24 9.93394C24 9.31394 23.8932 8.74123 23.6796 8.21581C23.466 7.68513 23.1669 7.22539 22.7824 6.83658C22.3979 6.44251 21.9466 6.13777 21.4286 5.92235C20.9159 5.70167 20.3552 5.59396 19.7464 5.59921L17.5995 2.78558C17.0014 2.00796 16.3499 1.43262 15.6449 1.05957C14.9454 0.686524 14.2404 0.5 13.5301 0.5C13.2364 0.5 12.9213 0.539407 12.5849 0.61822C12.2538 0.691779 11.9387 0.802117 11.6396 0.949235C11.3406 1.0911 11.0949 1.25923 10.9027 1.45364C10.7158 1.64805 10.6223 1.86084 10.6223 2.09203C10.6223 2.30219 10.7425 2.53338 10.9828 2.78558C11.2284 3.03778 11.5302 3.28999 11.888 3.54219C12.2458 3.78914 12.5902 4.01244 12.9213 4.2121L17.5354 6.98632C17.3592 7.15446 17.183 7.28319 17.0067 7.37251C16.8359 7.46183 16.6516 7.50649 16.454 7.50649C16.1443 7.50649 15.8158 7.42242 15.4687 7.25429C15.1216 7.08615 14.705 6.86285 14.2191 6.58438C13.6049 6.23234 13.0148 5.89607 12.4487 5.57557C11.888 5.24981 11.3326 4.9582 10.7825 4.70074C10.2378 4.44329 9.67705 4.241 9.10029 4.09388C8.52887 3.94151 7.92273 3.86532 7.28188 3.86532C6.39538 3.86532 5.58097 4.03083 4.83865 4.36185C4.10168 4.69286 3.45282 5.18938 2.89208 5.85141C2.33133 6.50819 1.86914 7.32522 1.50599 8.3025C1.07876 8.3025 0.720954 8.4286 0.432572 8.68081C0.144191 8.93301 0 9.2614 0 9.66597C0 10.1231 0.165552 10.4856 0.496657 10.7536C0.827762 11.0216 1.24431 11.1555 1.74631 11.1555C2.13616 11.6915 2.60369 12.1249 3.14841 12.456C3.69314 12.787 4.29927 13.0287 4.96682 13.181C5.63437 13.3334 6.34464 13.4096 7.09764 13.4096C7.15638 13.4096 7.21513 13.4096 7.27387 13.4096C7.33796 13.4043 7.39937 13.4017 7.45812 13.4017L10.7024 16.0498C11.1083 16.4019 11.4447 16.6278 11.7117 16.7276C11.9841 16.8275 12.2725 16.8774 12.5769 16.8774ZM6.78523 17.5C7.55958 17.5 8.20043 17.4291 8.70777 17.2872C9.21511 17.1453 9.66103 16.9457 10.0455 16.6882L7.56225 14.6548C7.50351 14.6601 7.43942 14.6654 7.37 14.6706C7.30591 14.6759 7.23115 14.6785 7.1457 14.6785C7.01219 14.6785 6.85732 14.668 6.68109 14.647C6.5102 14.6259 6.32061 14.6076 6.11234 14.5918C5.90406 14.5708 5.68243 14.5603 5.44746 14.5603C4.99886 14.5603 4.64373 14.668 4.38205 14.8834C4.12571 15.0988 3.99754 15.3852 3.99754 15.7425C3.99754 16.2731 4.24854 16.6987 4.75053 17.0192C5.25787 17.3397 5.9361 17.5 6.78523 17.5ZM20.6115 9.55563C20.4299 9.55563 20.2751 9.49258 20.1469 9.36648C20.0241 9.23513 19.9627 9.08275 19.9627 8.90936C19.9627 8.73072 20.0267 8.57572 20.1549 8.44437C20.2831 8.30776 20.438 8.23945 20.6195 8.23945C20.8064 8.23945 20.9613 8.3025 21.0841 8.4286C21.2123 8.54945 21.2764 8.6992 21.2764 8.87784C21.2764 9.05123 21.2096 9.20885 21.0761 9.35072C20.948 9.48733 20.7931 9.55563 20.6115 9.55563Z"
		fill="currentColor"
	/>
</svg>
