<svg
	color="rgb(var(--foreground, 0, 0, 0))"
	viewBox="0 0 20 16"
	fill="none"
	xmlns="http://www.w3.org/2000/svg"
>
	<path
		d="M9.30144 16C10.6613 16 11.9265 15.7797 13.0972 15.3392C14.2729 14.8986 15.326 14.2792 16.2564 13.481C17.1868 12.6829 17.969 11.7473 18.6029 10.6744C19.2368 9.59637 19.6943 8.42242 19.9755 7.15258C20.0164 6.95562 20.0061 6.7794 19.9448 6.62391C19.8834 6.46842 19.7812 6.34661 19.6381 6.2585C19.4949 6.16521 19.3211 6.11856 19.1166 6.11856H11.8319V7.37026H19.27L18.7716 6.93489C18.5006 8.08552 18.0763 9.14027 17.4987 10.0991C16.921 11.0528 16.2181 11.8769 15.3899 12.5714C14.5618 13.266 13.6314 13.8024 12.5987 14.1808C11.5712 14.5591 10.4721 14.7483 9.30144 14.7483C8.08987 14.7483 6.98822 14.5669 5.99647 14.2041C5.00984 13.8465 4.15868 13.3385 3.44299 12.6803C2.73241 12.0168 2.18542 11.2316 1.80201 10.3246C1.4186 9.41756 1.2269 8.41723 1.2269 7.32361C1.2269 6.4425 1.37004 5.63136 1.65632 4.89018C1.9477 4.14901 2.35156 3.50632 2.86788 2.9621C3.38931 2.41788 3.99765 1.99806 4.69289 1.70262C5.39325 1.40201 6.15239 1.2517 6.97033 1.2517C7.59911 1.2517 8.17678 1.35018 8.70332 1.54713C9.23498 1.74409 9.69251 2.02138 10.0759 2.37901C10.4644 2.73664 10.7635 3.15905 10.9731 3.64626C11.1878 4.13346 11.2951 4.66991 11.2951 5.25559C11.2951 5.90347 11.1699 6.47878 10.9194 6.98154C10.674 7.48429 10.3341 7.88079 9.89955 8.17104C9.46502 8.45611 8.96659 8.59864 8.40427 8.59864C7.92884 8.59864 7.50965 8.50275 7.14669 8.31098C6.78373 8.11921 6.50001 7.86006 6.29553 7.53353C6.09105 7.207 5.98881 6.839 5.98881 6.42954C5.98881 6.10819 6.05271 5.82054 6.18051 5.56657C6.31342 5.30742 6.49235 5.10269 6.71728 4.95238C6.94732 4.80207 7.21059 4.72692 7.50709 4.72692C7.87005 4.72692 8.15122 4.82281 8.35059 5.01458C8.54996 5.20635 8.64965 5.44736 8.64965 5.73761C8.64965 5.9553 8.59086 6.13411 8.47328 6.27405C8.3557 6.41399 8.20234 6.48396 8.01319 6.48396C7.85983 6.48396 7.74736 6.45287 7.67579 6.39067C7.60934 6.32329 7.55566 6.25073 7.51476 6.17298C7.47387 6.10042 7.42019 6.04341 7.35373 6.00194C7.29239 5.96048 7.20804 5.93975 7.10068 5.93975C6.97799 5.93975 6.86297 5.98899 6.75562 6.08746C6.64826 6.18594 6.59459 6.33107 6.59459 6.52284C6.59459 6.78199 6.71217 7.04891 6.94732 7.32361C7.18759 7.59832 7.54032 7.73567 8.00552 7.73567C8.52696 7.73567 8.96915 7.55426 9.33211 7.19145C9.70018 6.82345 9.88421 6.33884 9.88421 5.73761C9.88421 5.31778 9.77942 4.93683 9.56982 4.59475C9.36023 4.25267 9.07395 3.98056 8.71099 3.77843C8.35314 3.57629 7.95185 3.47522 7.50709 3.47522C7.00611 3.47522 6.54602 3.60739 6.12683 3.87172C5.71275 4.13087 5.38047 4.48591 5.12998 4.93683C4.87949 5.38257 4.75424 5.88014 4.75424 6.42954C4.75424 7.06705 4.91016 7.64496 5.22199 8.16327C5.53894 8.67639 5.97091 9.08584 6.51791 9.39164C7.07001 9.69744 7.6988 9.85034 8.40427 9.85034C9.00749 9.85034 9.53659 9.75186 9.99157 9.55491C10.4465 9.35795 10.8351 9.09621 11.1571 8.76968C11.4792 8.44315 11.7399 8.08034 11.9393 7.68124C12.1438 7.27697 12.292 6.86492 12.384 6.44509C12.4812 6.02527 12.5297 5.62877 12.5297 5.25559C12.5297 4.49368 12.3917 3.79397 12.1156 3.15646C11.8447 2.51377 11.4587 1.95659 10.9578 1.48494C10.4619 1.01328 9.87399 0.647878 9.19408 0.388727C8.51929 0.129576 7.77804 0 6.97033 0C5.97858 0 5.05841 0.181406 4.2098 0.544218C3.36631 0.901846 2.62761 1.40978 1.99371 2.06803C1.36493 2.72627 0.874166 3.50113 0.521433 4.39261C0.173811 5.28409 0 6.26109 0 7.32361C0 8.59864 0.222376 9.76482 0.667127 10.8222C1.11188 11.8795 1.74578 12.7969 2.56882 13.5743C3.39187 14.3466 4.37083 14.9427 5.50572 15.3625C6.64571 15.7875 7.91095 16 9.30144 16ZM10.8197 1.50826L7.95185 4.42371L8.61131 5.09232L11.4792 2.17687L10.8197 1.50826ZM6.57158 0.272109V4.47813H7.49943V0.272109H6.57158ZM2.53048 2.12245L5.55939 5.20117L6.21118 4.52478L3.18994 1.45384L2.53048 2.12245ZM0.927843 6.88047H5.36002V5.93975H0.927843V6.88047ZM2.56882 12.4237L6.23419 8.70748L5.58239 8.03887L1.9247 11.7551L2.56882 12.4237ZM7.69113 15.2692H8.61897V9.43051H7.69113V15.2692ZM14.7918 13.6365L15.4436 12.9679L10.674 8.12439L10.0222 8.793L14.7918 13.6365Z"
		fill="currentColor"
	/>
</svg>
