<svg
	color="rgb(var(--foreground, 0, 0, 0))"
	viewBox="0 0 20 16"
	fill="none"
	xmlns="http://www.w3.org/2000/svg"
>
	<path
		d="M8.40363 9.76179C8.98126 9.76179 9.51543 9.65289 10.0062 9.4351C10.502 9.21731 10.9339 8.91136 11.302 8.51726C11.6751 8.11797 11.9639 7.64868 12.1684 7.10938C12.378 6.5649 12.4828 5.97116 12.4828 5.32815C12.4828 4.71107 12.3984 4.13288 12.2298 3.59358C12.0611 3.05429 11.8183 2.56944 11.5013 2.13904L9.98315 3.68692C10.1774 3.92546 10.3282 4.19511 10.4355 4.49587C10.5429 4.79663 10.5966 5.11554 10.5966 5.4526C10.5966 5.92967 10.4969 6.35229 10.2975 6.72047C10.0982 7.08864 9.82725 7.37903 9.48476 7.59164C9.14228 7.80425 8.75634 7.91055 8.32696 7.91055C7.98447 7.91055 7.67266 7.84314 7.39151 7.70831C7.11037 7.5683 6.88801 7.38681 6.72443 7.16383C6.56086 6.93567 6.47907 6.68935 6.47907 6.42489C6.47907 6.29007 6.52508 6.18376 6.61709 6.10598C6.7091 6.02301 6.81133 5.98153 6.92379 5.98153C7.0158 5.98153 7.10015 6.01264 7.17682 6.07487C7.2535 6.13191 7.30973 6.22525 7.34551 6.35489C7.39663 6.54675 7.50142 6.7075 7.65988 6.83714C7.81834 6.96159 8.02537 7.02382 8.28095 7.02382C8.68989 7.02382 9.01448 6.889 9.25473 6.61935C9.49498 6.34451 9.61511 5.97634 9.61511 5.51483C9.61511 5.14665 9.52054 4.81478 9.33141 4.5192C9.14739 4.22363 8.89691 3.99028 8.57999 3.81915C8.26306 3.64285 7.90524 3.55469 7.50653 3.55469C7.02091 3.55469 6.57619 3.68174 6.17237 3.93583C5.76854 4.18992 5.44395 4.53476 5.19859 4.97035C4.95834 5.40593 4.83821 5.89078 4.83821 6.42489C4.83821 7.04716 4.99156 7.60979 5.29827 8.11279C5.61008 8.61578 6.0318 9.01766 6.56342 9.31843C7.10015 9.614 7.71355 9.76179 8.40363 9.76179ZM7.49886 2.53573C7.80556 2.53573 8.11482 2.57981 8.42664 2.66796C8.73845 2.75093 9.02471 2.87798 9.2854 3.0491L10.8803 1.43899C10.4509 1.03452 9.94737 0.71042 9.36975 0.466699C8.79724 0.217793 8.17361 0.0700049 7.49886 0.023335V2.53573ZM5.13725 3.43024C5.56152 3.06206 6.03691 2.80538 6.56342 2.66018V0C5.88867 0.0362988 5.24715 0.160752 4.63885 0.373359C4.03567 0.580781 3.48108 0.863393 2.97502 1.2212L5.13725 3.43024ZM0.115014 5.93486H3.87976C3.91043 5.61335 3.982 5.29963 4.09446 4.99368C4.20691 4.68255 4.35004 4.39734 4.52384 4.13807L2.2466 1.81235C1.69454 2.32572 1.23448 2.93243 0.866436 3.63247C0.498392 4.33252 0.247918 5.09998 0.115014 5.93486ZM0 7.31162C0 8.25539 0.122681 9.14212 0.368044 9.9718C0.618518 10.8015 0.976338 11.5586 1.4415 12.2431L4.67719 8.94507C4.45228 8.6443 4.27081 8.31762 4.13279 7.965C3.99478 7.61238 3.90532 7.24939 3.86443 6.87603H0.00766757C0.00255586 6.95382 0 7.02901 0 7.1016C0 7.16902 0 7.23902 0 7.31162ZM2.0089 12.9976C2.68365 13.7702 3.5015 14.4054 4.4625 14.9033C5.4235 15.4063 6.49952 15.7355 7.69055 15.8911V10.7185C7.23049 10.6563 6.79855 10.5318 6.39473 10.3452C5.9909 10.1533 5.63053 9.91476 5.3136 9.62956L2.0089 12.9976ZM8.62599 15.9844C8.72823 15.9896 8.83302 15.9922 8.94036 15.9922C9.05282 15.9974 9.16272 16 9.27007 16C10.4202 16 11.5039 15.8392 12.5211 15.5177C13.5435 15.1962 14.4816 14.7425 15.3352 14.1565L11.187 9.9718C10.8394 10.2 10.4509 10.3866 10.0215 10.5318C9.59722 10.677 9.13205 10.7574 8.62599 10.773V15.9844ZM16.079 13.6043C17.0502 12.8057 17.8681 11.849 18.5326 10.7341C19.2023 9.614 19.6828 8.41873 19.9741 7.14827C20.0201 6.93567 20.0048 6.75158 19.9281 6.59601C19.8514 6.44045 19.739 6.32118 19.5907 6.23821C19.4425 6.15524 19.284 6.11376 19.1154 6.11376H13.4182C13.3773 6.65824 13.2316 7.22346 12.9812 7.80943C12.7307 8.39021 12.3729 8.91136 11.9077 9.37287L16.079 13.6043Z"
		fill="currentColor"
	/>
</svg>
