<svg
	color="rgb(var(--foreground, 0, 0, 0))"
	viewBox="0 0 26 14"
	fill="none"
	xmlns="http://www.w3.org/2000/svg"
>
	<path
		d="M9.49599 12.4545C10.1502 12.4545 10.7065 12.3853 11.1649 12.2469C11.6234 12.1085 12.0329 11.9343 12.3935 11.7241C12.754 11.5191 13.1146 11.3141 13.4752 11.1091C13.8409 10.899 14.2504 10.7247 14.7037 10.5863C15.157 10.4428 15.7107 10.3711 16.3649 10.3711C17.0912 10.3711 17.6888 10.3121 18.1575 10.1943C18.6262 10.0713 19.0177 9.92007 19.3319 9.74069C19.6513 9.5613 19.9475 9.38192 20.2205 9.20254C20.4935 9.02316 20.7923 8.87453 21.1168 8.75665C21.4465 8.63365 21.8585 8.57215 22.353 8.57215C23.0484 8.57215 23.6691 8.49271 24.2152 8.33383C24.7663 8.17495 25.2016 7.93663 25.521 7.61886C25.8403 7.29598 26 6.89622 26 6.41957C26 5.39966 25.8223 4.5412 25.4669 3.84417C25.1166 3.14715 24.653 2.62182 24.0761 2.26818C23.4992 1.90942 22.8707 1.73004 22.1908 1.73004C21.4851 1.73004 20.885 1.86586 20.3905 2.13749C19.9011 2.404 19.5019 2.76789 19.1929 3.22915C18.889 3.69042 18.6623 4.21062 18.5129 4.78977C18.3841 5.26129 18.2064 5.6508 17.9798 5.95831C17.7531 6.26069 17.4698 6.49645 17.1299 6.66558L16.6431 5.7738C15.9632 4.52326 15.2806 3.51104 14.5955 2.73714C13.9104 1.96324 13.1661 1.39691 12.3626 1.03814C11.559 0.679381 10.6395 0.5 9.60416 0.5C8.76454 0.5 8.01248 0.602503 7.34799 0.80751C6.68866 1.01252 6.07311 1.35078 5.50134 1.82229C4.92957 2.28869 4.36553 2.91908 3.80921 3.71348C3.25805 4.50276 2.66825 5.48679 2.03982 6.66558C1.85438 7.02434 1.64319 7.32417 1.40624 7.56505C1.17444 7.80593 0.950371 8.01607 0.734027 8.19545C0.522833 8.37483 0.347697 8.55165 0.208618 8.7259C0.0695394 8.89503 0 9.09235 0 9.31786C0 9.63562 0.12105 9.89188 0.36315 10.0866C0.610401 10.2763 0.978702 10.3711 1.46805 10.3711C1.61743 10.3711 1.77454 10.3711 1.93938 10.3711C2.10936 10.3711 2.27935 10.3711 2.44933 10.3711C3.16533 10.3711 3.78088 10.4428 4.29599 10.5863C4.81625 10.7247 5.27727 10.899 5.67905 11.1091C6.08598 11.3141 6.47489 11.5191 6.84577 11.7241C7.22179 11.9343 7.61842 12.1085 8.03566 12.2469C8.45805 12.3853 8.94482 12.4545 9.49599 12.4545ZM9.49599 11.2321C9.00149 11.2321 8.56365 11.1629 8.18247 11.0245C7.80129 10.881 7.43299 10.7068 7.07756 10.5018C6.72214 10.2916 6.34354 10.0815 5.94175 9.87138C5.54512 9.66125 5.08668 9.48699 4.56642 9.34861C4.05131 9.20511 3.43318 9.13335 2.71204 9.13335C2.51114 9.13335 2.31283 9.13592 2.11709 9.14104C1.92135 9.14104 1.73333 9.14873 1.55305 9.1641L1.49123 9.05648C1.66637 8.90785 1.85181 8.74384 2.04755 8.56446C2.24329 8.38508 2.43388 8.18007 2.61932 7.94944C2.80991 7.71881 2.98504 7.44973 3.14473 7.14222C3.68044 6.10694 4.18524 5.24335 4.65914 4.55145C5.13304 3.85443 5.61208 3.29834 6.09629 2.88321C6.58564 2.46807 7.11104 2.17081 7.67251 1.99143C8.23913 1.81204 8.88301 1.72235 9.60416 1.72235C10.3923 1.72235 11.0825 1.84536 11.6749 2.09137C12.2724 2.33737 12.8004 2.6782 13.2588 3.11384C13.7173 3.54435 14.1371 4.04406 14.5183 4.61295C14.9046 5.18185 15.2806 5.78918 15.6464 6.43495C15.8266 6.75271 16.0198 7.0756 16.2259 7.40361C16.4319 7.73162 16.6457 8.04682 16.8672 8.3492C17.0938 8.64646 17.3205 8.90785 17.5471 9.13335C17.3874 9.13335 17.2174 9.13335 17.0371 9.13335C16.862 9.13335 16.6817 9.13335 16.4963 9.13335C15.7648 9.13335 15.139 9.20511 14.6187 9.34861C14.0985 9.48699 13.6349 9.66125 13.2279 9.87138C12.8262 10.0815 12.4424 10.2916 12.0767 10.5018C11.7109 10.7068 11.3246 10.881 10.9177 11.0245C10.5107 11.1629 10.0368 11.2321 9.49599 11.2321ZM18.7988 8.79509C18.6237 8.66184 18.4408 8.48246 18.2502 8.25695C18.0648 8.02632 17.9128 7.80337 17.7944 7.58811C18.0725 7.48561 18.3198 7.34723 18.5361 7.17297C18.7576 6.99359 18.9508 6.76296 19.1156 6.48108C19.2804 6.19407 19.4195 5.83274 19.5328 5.3971C19.6565 4.86921 19.8342 4.41819 20.066 4.04406C20.2978 3.66992 20.5888 3.38547 20.9391 3.19072C21.2894 2.99083 21.7066 2.89089 22.1908 2.89089C22.6801 2.89089 23.1283 3.03184 23.5352 3.31372C23.9473 3.5956 24.2744 3.98768 24.5165 4.48995C24.7637 4.99221 24.8874 5.57392 24.8874 6.23507C24.8874 6.48108 24.7766 6.69633 24.5551 6.88084C24.3336 7.06022 24.0477 7.20116 23.6975 7.30367C23.3472 7.40104 22.9763 7.44973 22.5848 7.44973C22.1006 7.44973 21.6757 7.49074 21.31 7.57274C20.9494 7.64962 20.6249 7.75468 20.3364 7.88794C20.0531 8.02119 19.7878 8.16726 19.5406 8.32614C19.2933 8.47989 19.0461 8.63621 18.7988 8.79509ZM22.4844 5.74305C22.675 5.74305 22.8372 5.67642 22.9712 5.54317C23.1103 5.40479 23.1798 5.24078 23.1798 5.05115C23.1798 4.86152 23.1103 4.70008 22.9712 4.56682C22.8372 4.42844 22.675 4.35925 22.4844 4.35925C22.2938 4.35925 22.129 4.42844 21.9899 4.56682C21.8508 4.70008 21.7813 4.86152 21.7813 5.05115C21.7813 5.24078 21.8508 5.40479 21.9899 5.54317C22.129 5.67642 22.2938 5.74305 22.4844 5.74305ZM9.51144 6.68865C10.3665 6.68865 11.1495 6.57845 11.8603 6.35807C12.5712 6.13256 13.2099 5.84043 13.7765 5.48167C14.3431 5.11778 14.8376 4.72827 15.26 4.31313L14.6883 3.48285C14.0032 4.185 13.2254 4.73083 12.3548 5.12034C11.4843 5.50473 10.5365 5.69693 9.51144 5.69693C8.48638 5.69693 7.54116 5.50729 6.67578 5.12803C5.8104 4.74364 5.03774 4.19525 4.3578 3.48285L3.79376 4.3285C4.19039 4.72827 4.66686 5.10753 5.22318 5.46629C5.77949 5.82505 6.41308 6.11975 7.12392 6.35038C7.83992 6.57589 8.63576 6.68865 9.51144 6.68865ZM5.87221 10.5018C6.10916 10.2404 6.32808 9.94057 6.52897 9.60231C6.73502 9.25892 6.91788 8.90016 7.07756 8.52602C7.23725 8.15188 7.3686 7.77774 7.47162 7.40361C7.57464 7.02434 7.64418 6.66558 7.68024 6.32732L6.83804 6.04287C6.81228 6.33501 6.74532 6.66558 6.63715 7.03459C6.53413 7.39848 6.4002 7.77006 6.23536 8.14932C6.07053 8.52346 5.88252 8.87966 5.67132 9.21792C5.46528 9.55106 5.24378 9.84063 5.00683 10.0866L5.87221 10.5018ZM13.2743 10.4864L14.1629 10.0789C13.9156 9.82781 13.6864 9.53568 13.4752 9.20254C13.264 8.86428 13.0786 8.51064 12.9189 8.14163C12.7592 7.77262 12.6278 7.40873 12.5248 7.04997C12.4269 6.68608 12.3651 6.35038 12.3394 6.04287L11.4817 6.28119C11.5023 6.62971 11.5616 6.99616 11.6594 7.38054C11.7573 7.76493 11.8861 8.14676 12.0458 8.52602C12.2054 8.90016 12.3883 9.25636 12.5944 9.59462C12.8055 9.93288 13.0322 10.2301 13.2743 10.4864ZM2.27162 13.4846C2.79188 13.4846 3.31213 13.4052 3.83239 13.2463C4.3578 13.0925 4.86261 12.8619 5.34681 12.5544C5.83616 12.2469 6.28945 11.8676 6.70669 11.4166L5.73314 10.7939C5.3056 11.1783 4.89351 11.4909 4.49688 11.7318C4.10025 11.9778 3.71649 12.1598 3.34562 12.2776C2.97989 12.3955 2.62704 12.4545 2.28707 12.4545C1.9471 12.4545 1.68955 12.4032 1.51441 12.3007C1.34443 12.1982 1.25944 12.0547 1.25944 11.8702C1.25944 11.7318 1.3161 11.6139 1.42942 11.5166C1.54789 11.4192 1.75651 11.3346 2.05527 11.2629C2.16345 11.2321 2.31798 11.186 2.51887 11.1245C2.71976 11.063 2.93868 10.9912 3.17563 10.9092C3.41773 10.8221 3.6521 10.7298 3.87875 10.6325C4.11055 10.5351 4.30887 10.4377 4.4737 10.3403L3.52333 9.97132C3.18851 10.1199 2.82278 10.2404 2.42615 10.3326C2.02952 10.4198 1.65607 10.5274 1.30579 10.6555C1.06369 10.7427 0.852501 10.8452 0.672214 10.963C0.491927 11.0809 0.352848 11.227 0.254978 11.4012C0.157107 11.5755 0.108172 11.7856 0.108172 12.0316C0.108172 12.5032 0.314215 12.8619 0.7263 13.1079C1.14354 13.3591 1.65864 13.4846 2.27162 13.4846ZM16.6817 13.5C17.2947 13.5 17.8072 13.3744 18.2193 13.1233C18.6366 12.8773 18.8452 12.5211 18.8452 12.0547C18.8452 11.7574 18.7756 11.514 18.6366 11.3244C18.5026 11.1296 18.3172 10.9733 18.0802 10.8554C17.8433 10.7324 17.5729 10.6299 17.2689 10.5479C16.9547 10.4659 16.6379 10.3839 16.3186 10.3019C15.9992 10.2199 15.703 10.1174 15.43 9.99438L14.4796 10.3557C14.6393 10.4582 14.8325 10.5582 15.0591 10.6555C15.2909 10.7529 15.5253 10.8452 15.7623 10.9323C16.0044 11.0143 16.2259 11.086 16.4267 11.1475C16.6328 11.209 16.7899 11.2552 16.8981 11.2859C17.1917 11.3577 17.3977 11.4422 17.5162 11.5396C17.6347 11.637 17.6939 11.7549 17.6939 11.8933C17.6939 12.0778 17.6063 12.2187 17.4312 12.3161C17.2612 12.4186 17.0062 12.4698 16.6663 12.4698C16.3263 12.4698 15.9709 12.4109 15.6 12.293C15.2343 12.1803 14.8531 12.0009 14.4565 11.7549C14.0598 11.514 13.6477 11.2014 13.2202 10.817L12.2389 11.4397C12.6459 11.8804 13.0914 12.2546 13.5756 12.5621C14.065 12.8696 14.5724 13.1028 15.0978 13.2617C15.6283 13.4206 16.1563 13.5 16.6817 13.5Z"
		fill="currentColor"
	/>
</svg>
