<svg
	color="rgb(var(--foreground, 0, 0, 0))"
	viewBox="0 0 26 14"
	fill="none"
	xmlns="http://www.w3.org/2000/svg"
>
	<path
		d="M9.50045 5.55044C10.5894 5.54518 11.5836 5.35084 12.4832 4.96742C13.388 4.58399 14.1981 4.00097 14.9135 3.21835C14.4295 2.60382 13.9245 2.09696 13.3985 1.69777C12.8724 1.29334 12.2964 0.993948 11.6704 0.799608C11.0497 0.600015 10.3448 0.500219 9.55569 0.500219C8.77188 0.494966 8.06697 0.584258 7.44097 0.768093C6.82023 0.946676 6.24158 1.23819 5.70501 1.64262C5.1737 2.04706 4.65291 2.58281 4.14264 3.24987C4.86859 4.03248 5.68923 4.61288 6.60455 4.99105C7.51988 5.36398 8.48518 5.55044 9.50045 5.55044ZM4.37936 10.3328C4.7739 9.95461 5.13424 9.51865 5.46039 9.02492C5.79181 8.53119 6.06272 8.02433 6.27314 7.50434C6.48882 6.9791 6.62296 6.48537 6.67557 6.02316C6.14426 5.82882 5.58665 5.55569 5.00273 5.20378C4.42408 4.85186 3.94537 4.47106 3.56662 4.06137C3.37724 4.345 3.18786 4.64439 2.99848 4.95954C2.8091 5.27468 2.62762 5.60559 2.45402 5.95225C2.20678 6.44072 1.95427 6.85041 1.69651 7.18132C1.44401 7.51222 1.19939 7.7906 0.962671 8.01646C0.731209 8.23706 0.52605 8.4314 0.347193 8.59948C0.241983 8.69927 0.157815 8.80957 0.0946889 8.93038C0.031563 9.04593 0 9.17987 0 9.33219C0 9.5633 0.118361 9.73926 0.355083 9.86006C0.591806 9.98087 0.923217 10.0413 1.34932 10.0413H2.29621C2.74335 10.0413 3.12736 10.0675 3.44825 10.1201C3.77441 10.1726 4.08477 10.2435 4.37936 10.3328ZM9.48467 12.1449C10.0844 12.1449 10.6315 12.0582 11.1259 11.8849C11.6204 11.7115 12.0728 11.5093 12.4832 11.2782C12.8935 11.0471 13.2749 10.8449 13.6273 10.6716C13.2275 10.2934 12.8777 9.86269 12.5778 9.37946C12.278 8.89624 12.036 8.392 11.8519 7.86676C11.673 7.33627 11.5652 6.81102 11.5284 6.29103C10.8813 6.46961 10.2133 6.5589 9.52413 6.5589C9.18219 6.56416 8.84552 6.54577 8.51411 6.50375C8.1827 6.45648 7.85655 6.39083 7.53566 6.30679C7.49358 6.79001 7.38048 7.29687 7.19636 7.82737C7.0175 8.35261 6.77552 8.86472 6.47041 9.36371C6.17056 9.86269 5.81811 10.3118 5.41305 10.711C5.75498 10.8423 6.12322 11.0235 6.51775 11.2546C6.91755 11.4804 7.35943 11.6853 7.8434 11.8691C8.33262 12.053 8.87972 12.1449 9.48467 12.1449ZM14.5505 10.2934C14.9082 10.2093 15.2607 10.1437 15.6079 10.0964C15.9551 10.0439 16.3601 10.0176 16.8231 10.0176C17.2018 10.0176 17.5595 9.99137 17.8962 9.93885C18.2381 9.88107 18.4985 9.79966 18.6774 9.69461C18.5038 9.46875 18.3065 9.16937 18.0856 8.79644C17.8699 8.42352 17.6411 8.01383 17.3991 7.56737C17.1571 7.11566 16.9178 6.66395 16.681 6.21224C16.4443 5.76053 16.2181 5.34034 16.0024 4.95166C15.792 4.55773 15.6053 4.2347 15.4422 3.98258C15.1686 4.26096 14.853 4.53409 14.4953 4.80196C14.1376 5.06459 13.7746 5.30095 13.4064 5.51104C13.0434 5.72114 12.7094 5.88397 12.4042 5.99952C12.4516 6.47224 12.5673 6.96072 12.7514 7.46495C12.9356 7.96918 13.1775 8.46554 13.4774 8.95402C13.7825 9.43724 14.1402 9.8837 14.5505 10.2934ZM2.20941 13.4842C2.89853 13.4842 3.56136 13.3451 4.19788 13.0667C4.8344 12.7883 5.31836 12.418 5.64977 11.9558C5.2605 11.6984 4.83177 11.4673 4.36358 11.2625C3.8954 11.0576 3.42984 10.9447 2.96692 10.9237C2.7565 10.9815 2.53556 11.0235 2.3041 11.0497C2.0779 11.0707 1.8438 11.1049 1.60182 11.1522C1.26515 11.2152 0.965301 11.3255 0.702276 11.4831C0.439251 11.6406 0.307739 11.8822 0.307739 12.2079C0.307739 12.6176 0.489226 12.9327 0.8522 13.1533C1.22043 13.3739 1.67284 13.4842 2.20941 13.4842ZM16.4917 13.5C17.0282 13.5 17.478 13.3897 17.841 13.1691C18.2092 12.9537 18.3933 12.6386 18.3933 12.2237C18.3933 12.0083 18.3328 11.8113 18.2118 11.6328C18.0908 11.4542 17.9304 11.3097 17.7305 11.1994C17.5359 11.0891 17.3254 11.0261 17.0992 11.0103C16.852 10.9998 16.6232 10.992 16.4127 10.9867C16.2076 10.9762 15.9814 10.9631 15.7341 10.9473C15.429 10.9631 15.1213 11.0208 14.8109 11.1206C14.5006 11.2204 14.1954 11.3439 13.8956 11.4909C13.601 11.6433 13.3196 11.8035 13.0513 11.9715C13.2722 12.2814 13.5642 12.5493 13.9272 12.7752C14.2954 13.0063 14.7005 13.1849 15.1423 13.3109C15.5842 13.437 16.034 13.5 16.4917 13.5ZM19.4586 9.34795C19.8321 9.17987 20.1582 9.00654 20.437 8.82796C20.7211 8.64937 21.0262 8.49968 21.3524 8.37887C21.6785 8.25807 22.0941 8.19766 22.5991 8.19766C23.283 8.19766 23.88 8.1215 24.3903 7.96918C24.9006 7.81161 25.2951 7.59101 25.5739 7.30738C25.858 7.01849 26 6.67971 26 6.29103C26 5.39812 25.8501 4.61288 25.5502 3.93531C25.2556 3.25775 24.8401 2.72988 24.3035 2.3517C23.7669 1.96827 23.1409 1.77656 22.4255 1.77656C21.8048 1.77656 21.2629 1.89474 20.8 2.1311C20.3371 2.36221 19.9504 2.69574 19.6401 3.13169C19.3297 3.56764 19.1009 4.08238 18.9536 4.67591C18.8431 5.09085 18.7221 5.427 18.5906 5.68437C18.4643 5.94174 18.3328 6.14921 18.1961 6.30679C18.0593 6.46436 17.9225 6.60092 17.7857 6.71648C17.9751 6.9896 18.2197 7.37828 18.5196 7.88252C18.8247 8.38675 19.1377 8.87523 19.4586 9.34795ZM22.6149 5.50316C22.4255 5.50316 22.265 5.43751 22.1335 5.3062C22.002 5.17489 21.9363 5.01469 21.9363 4.8256C21.9363 4.64177 22.002 4.48419 22.1335 4.35288C22.265 4.22157 22.4255 4.15591 22.6149 4.15591C22.7937 4.15591 22.9489 4.22157 23.0804 4.35288C23.2172 4.48419 23.2856 4.64177 23.2856 4.8256C23.2856 5.01469 23.2172 5.17489 23.0804 5.3062C22.9489 5.43751 22.7937 5.50316 22.6149 5.50316Z"
		fill="currentColor"
	/>
</svg>
