<svg color="rgb(var(--foreground, 0, 0, 0))" viewBox="0 0 15 16" fill="none">
	<path
		d="M7.26155 16C7.69744 16 8.08465 15.9063 8.42311 15.7188C8.7667 15.5313 9.04359 15.2855 9.25385 14.9815C9.46411 14.6774 9.58717 14.3481 9.62307 13.9933H4.90002C4.93592 14.3481 5.05642 14.6774 5.26155 14.9815C5.47181 15.2855 5.7487 15.5313 6.09229 15.7188C6.43588 15.9063 6.82565 16 7.26155 16ZM1.16156 12.952H10.4462L2.42306 5.01663C2.33588 5.37641 2.26922 5.75899 2.22307 6.16437C2.18204 6.56469 2.15897 6.98781 2.15384 7.43373C2.13332 7.72763 2.09999 8.03167 2.05384 8.34584C2.01281 8.66002 1.94359 8.95645 1.84615 9.23515C1.75385 9.51386 1.62309 9.73935 1.45386 9.91164C1.22822 10.1397 1.00254 10.3677 0.776898 10.5957C0.556385 10.8238 0.371788 11.0568 0.22307 11.295C0.0743515 11.5332 0 11.7789 0 12.0323C0 12.311 0.102554 12.534 0.307682 12.7012C0.512811 12.8684 0.797458 12.952 1.16156 12.952ZM7.26155 0C6.69231 0 6.21538 0.172288 5.83076 0.516865C5.44615 0.861441 5.18207 1.28203 5.03848 1.77862C4.83848 1.8445 4.6487 1.92557 4.46921 2.02185C4.29485 2.11813 4.13076 2.22708 3.97692 2.34869L14.3231 12.5872C14.4513 12.4402 14.5154 12.2553 14.5154 12.0323C14.5154 11.7789 14.441 11.5332 14.2923 11.295C14.1436 11.0568 13.9565 10.8238 13.7308 10.5957C13.5103 10.3677 13.2897 10.1397 13.0692 9.91164C12.9 9.73935 12.7667 9.51386 12.6692 9.23515C12.5769 8.95645 12.5077 8.66002 12.4616 8.34584C12.4154 8.03167 12.3846 7.72763 12.3693 7.43373C12.3487 6.46081 12.2411 5.5943 12.0462 4.8342C11.8513 4.07411 11.5462 3.43563 11.1308 2.91876C10.7154 2.4019 10.1667 2.02185 9.48461 1.77862C9.33589 1.28203 9.06925 0.861441 8.68464 0.516865C8.30002 0.172288 7.82565 0 7.26155 0ZM0.169225 1.54299L13.9923 15.1867C14.1052 15.2982 14.2436 15.3539 14.4077 15.3539C14.5769 15.3539 14.718 15.2982 14.8308 15.1867C14.9436 15.0702 15 14.9308 15 14.7686C15 14.6065 14.9436 14.4697 14.8308 14.3582L1.01541 0.714489C0.902591 0.603009 0.76152 0.547268 0.592289 0.547268C0.428186 0.547268 0.287174 0.603009 0.169225 0.714489C0.0564046 0.82597 0 0.965321 0 1.13254C0 1.29469 0.0564046 1.43151 0.169225 1.54299Z"
		fill="currentColor"
	/>
</svg>
