<svg color="rgb(var(--foreground, 0, 0, 0))" viewBox="0 0 28 16" fill="none">
	<path
		d="M3.02996 13.2972C3.15555 13.1578 3.20265 13.0029 3.17125 12.8325C3.14508 12.6621 3.06136 12.4969 2.92007 12.3369C2.39152 11.7586 1.98593 11.1004 1.70334 10.3621C1.42075 9.6186 1.27946 8.83125 1.27946 8.00002C1.27946 7.16362 1.42075 6.37628 1.70334 5.63798C1.98593 4.89968 2.39152 4.24141 2.92007 3.66316C3.06136 3.50311 3.14508 3.33789 3.17125 3.16752C3.20265 2.99714 3.15555 2.84225 3.02996 2.70285C2.90436 2.55829 2.74477 2.48859 2.55114 2.49375C2.36275 2.49375 2.19269 2.57636 2.04093 2.74158C1.38678 3.43857 0.88177 4.23882 0.525915 5.14234C0.175293 6.04585 0 6.99841 0 8.00002C0 9.00163 0.175293 9.95419 0.525915 10.8577C0.88177 11.756 1.38678 12.5563 2.04093 13.2585C2.19269 13.4185 2.36275 13.5011 2.55114 13.5063C2.74477 13.5114 2.90436 13.4417 3.02996 13.2972ZM5.22787 11.09C5.35347 10.9506 5.39795 10.7983 5.36131 10.6331C5.32992 10.4627 5.25143 10.2949 5.12583 10.1297C4.89034 9.8406 4.71504 9.51534 4.59992 9.15393C4.48479 8.78736 4.42723 8.40273 4.42723 8.00002C4.42723 7.59731 4.48479 7.21525 4.59992 6.85385C4.71504 6.48728 4.89034 6.15943 5.12583 5.87031C5.25143 5.69993 5.32992 5.53214 5.36131 5.36692C5.39795 5.20171 5.35347 5.0494 5.22787 4.91001C5.09704 4.76544 4.9296 4.69574 4.72551 4.70091C4.52665 4.70091 4.3592 4.78868 4.22314 4.96422C3.88298 5.38241 3.61868 5.85224 3.43028 6.37369C3.24189 6.88999 3.1477 7.4321 3.1477 8.00002C3.1477 8.56794 3.24189 9.11263 3.43028 9.63408C3.61868 10.1504 3.88298 10.6176 4.22314 11.0358C4.3592 11.2114 4.52665 11.3017 4.72551 11.3069C4.9296 11.3069 5.09704 11.2346 5.22787 11.09ZM24.97 13.2972C25.0956 13.4417 25.2526 13.5114 25.4409 13.5063C25.6346 13.5011 25.8073 13.4185 25.9591 13.2585C26.6132 12.5563 27.1156 11.756 27.4662 10.8577C27.8221 9.95419 28 9.00163 28 8.00002C28 6.99841 27.8221 6.04585 27.4662 5.14234C27.1156 4.23882 26.6132 3.43857 25.9591 2.74158C25.8073 2.57636 25.6346 2.49375 25.4409 2.49375C25.2526 2.48859 25.0956 2.55829 24.97 2.70285C24.8444 2.84225 24.7947 2.99714 24.8208 3.16752C24.8522 3.33789 24.9386 3.50311 25.0799 3.66316C25.6032 4.24141 26.0062 4.89968 26.2888 5.63798C26.5766 6.37628 26.7205 7.16362 26.7205 8.00002C26.7205 8.83125 26.5766 9.6186 26.2888 10.3621C26.0062 11.1004 25.6032 11.7586 25.0799 12.3369C24.9386 12.4969 24.8522 12.6621 24.8208 12.8325C24.7947 13.0029 24.8444 13.1578 24.97 13.2972ZM22.7642 11.09C22.895 11.2346 23.0599 11.3069 23.2587 11.3069C23.4628 11.3017 23.6356 11.2114 23.7769 11.0358C24.117 10.6176 24.3813 10.1504 24.5697 9.63408C24.758 9.11263 24.8522 8.56794 24.8522 8.00002C24.8522 7.4321 24.758 6.88999 24.5697 6.37369C24.3813 5.85224 24.117 5.38241 23.7769 4.96422C23.6356 4.78868 23.4628 4.70091 23.2587 4.70091C23.0599 4.69574 22.895 4.76544 22.7642 4.91001C22.6439 5.0494 22.5994 5.20171 22.6308 5.36692C22.6674 5.53214 22.7485 5.69993 22.8741 5.87031C23.1044 6.15943 23.277 6.48728 23.3922 6.85385C23.5125 7.21525 23.5727 7.59731 23.5727 8.00002C23.5727 8.40273 23.5125 8.78736 23.3922 9.15393C23.277 9.51534 23.1044 9.8406 22.8741 10.1297C22.7485 10.2949 22.6674 10.4627 22.6308 10.6331C22.5994 10.7983 22.6439 10.9506 22.7642 11.09ZM6.59374 12.2594C6.59374 12.5434 6.6984 12.7706 6.90772 12.9409C7.11705 13.1113 7.40752 13.1965 7.77908 13.1965H11.0917C11.1126 13.6973 11.2487 14.1594 11.4998 14.5827C11.7563 15.0061 12.099 15.3469 12.5281 15.605C12.9572 15.8683 13.4466 16 13.996 16C14.5508 16 15.0427 15.8709 15.4718 15.6128C15.9009 15.3546 16.2411 15.0113 16.4923 14.5827C16.7487 14.1594 16.8874 13.6973 16.9083 13.1965H20.2209C20.5925 13.1965 20.8829 13.1113 21.0922 12.9409C21.3015 12.7706 21.4062 12.5434 21.4062 12.2594C21.4062 12.0013 21.3303 11.7509 21.1786 11.5082C21.0268 11.2656 20.8358 11.0281 20.6055 10.7957C20.3805 10.5634 20.1555 10.3311 19.9304 10.0987C19.7577 9.92321 19.6217 9.69346 19.5223 9.4095C19.4281 9.12554 19.3574 8.8235 19.3103 8.5034C19.2632 8.1833 19.2292 7.87353 19.2083 7.57408C19.1926 6.55698 19.0827 5.66379 18.8786 4.89452C18.6797 4.12008 18.3683 3.47471 17.9445 2.95842C17.5206 2.44213 16.9606 2.06007 16.2646 1.81225C16.1338 1.30628 15.8669 0.877759 15.464 0.52668C15.0662 0.175601 14.5769 6.10352e-05 13.996 6.10352e-05C13.4204 6.10352e-05 12.9311 0.175601 12.5281 0.52668C12.1304 0.877759 11.8662 1.30628 11.7353 1.81225C11.0393 2.06007 10.4768 2.44213 10.0476 2.95842C9.62375 3.47471 9.31241 4.12008 9.11355 4.89452C8.91469 5.66379 8.80736 6.55698 8.79166 7.57408C8.77073 7.87353 8.73671 8.1833 8.68961 8.5034C8.64252 8.8235 8.56926 9.12554 8.46983 9.4095C8.37563 9.69346 8.2422 9.92321 8.06951 10.0987C7.84448 10.3311 7.61686 10.5634 7.3866 10.7957C7.16158 11.0281 6.97314 11.2656 6.82138 11.5082C6.66962 11.7509 6.59374 12.0013 6.59374 12.2594ZM8.1166 12.0271V11.9342C8.1637 11.8619 8.24219 11.7664 8.35209 11.6476C8.46198 11.5237 8.58495 11.3895 8.72101 11.2449C8.86231 11.1004 9.00103 10.9532 9.1371 10.8035C9.27839 10.6486 9.40136 10.4705 9.50602 10.2691C9.61068 10.0626 9.69964 9.83027 9.7729 9.57213C9.84617 9.31398 9.90373 9.02744 9.94559 8.7125C9.98746 8.39756 10.0189 8.05165 10.0398 7.67475C10.0607 6.54923 10.1785 5.65605 10.393 4.99519C10.6076 4.33434 10.8928 3.84386 11.2487 3.52376C11.6098 3.19849 12.0153 2.97391 12.4653 2.85C12.5648 2.82935 12.6406 2.7932 12.693 2.74158C12.7453 2.68478 12.7741 2.60734 12.7794 2.50924C12.7951 2.10654 12.9102 1.77869 13.1248 1.52571C13.3445 1.26756 13.635 1.13849 13.996 1.13849C14.3624 1.13849 14.6528 1.26756 14.8674 1.52571C15.0872 1.77869 15.2049 2.10654 15.2206 2.50924C15.2259 2.60734 15.2546 2.68478 15.307 2.74158C15.3593 2.7932 15.4352 2.82935 15.5346 2.85C15.9794 2.97391 16.3798 3.19849 16.7356 3.52376C17.0967 3.84386 17.3845 4.33434 17.5991 4.99519C17.8189 5.65605 17.9392 6.54923 17.9602 7.67475C17.9759 8.05165 18.0046 8.39756 18.0465 8.7125C18.0936 9.02744 18.1512 9.31398 18.2192 9.57213C18.2925 9.83027 18.3815 10.0626 18.4861 10.2691C18.5908 10.4705 18.7138 10.6486 18.8551 10.8035C18.9963 10.9532 19.135 11.1004 19.2711 11.2449C19.4124 11.3895 19.5353 11.5237 19.64 11.6476C19.7499 11.7664 19.8284 11.8619 19.8755 11.9342V12.0271H8.1166ZM12.3162 13.1965H15.6837C15.6523 13.7231 15.4823 14.1387 15.1735 14.4434C14.8648 14.7531 14.4723 14.908 13.996 14.908C13.5251 14.908 13.1326 14.7531 12.8186 14.4434C12.5099 14.1387 12.3424 13.7231 12.3162 13.1965Z"
		fill="currentColor"
	/>
</svg>
