<svg color="rgb(var(--foreground, 0, 0, 0))" viewBox="0 0 28 16" fill="none">
	<path
		d="M3.03001 13.1953C3.15561 13.0584 3.2027 12.9064 3.1713 12.7392C3.14514 12.572 3.06142 12.4098 2.92012 12.2527C2.39157 11.6852 1.98598 11.0391 1.70339 10.3145C1.4208 9.5848 1.27952 8.81204 1.27952 7.9962C1.27952 7.1753 1.4208 6.40253 1.70339 5.67791C1.98598 4.95329 2.39157 4.30721 2.92012 3.73967C3.06142 3.58258 3.14514 3.42043 3.1713 3.25321C3.2027 3.08599 3.15561 2.93397 3.03001 2.79715C2.90442 2.65527 2.74482 2.58686 2.5512 2.59192C2.3628 2.59192 2.19268 2.673 2.04092 2.83515C1.38678 3.51924 0.881768 4.30467 0.525914 5.19145C0.175293 6.07823 0 7.01314 0 7.9962C0 8.97926 0.175293 9.91417 0.525914 10.801C0.881768 11.6827 1.38678 12.4681 2.04092 13.1572C2.19268 13.3143 2.3628 13.3954 2.5512 13.4005C2.74482 13.4055 2.90442 13.3371 3.03001 13.1953ZM5.22792 11.029C5.35352 10.8922 5.398 10.7427 5.36136 10.5805C5.32997 10.4133 5.25148 10.2486 5.12588 10.0865C4.89039 9.80269 4.7151 9.48345 4.59997 9.12874C4.48484 8.76896 4.42728 8.39145 4.42728 7.9962C4.42728 7.60095 4.48484 7.22597 4.59997 6.87126C4.7151 6.51148 4.89039 6.18971 5.12588 5.90594C5.25148 5.73872 5.32997 5.57403 5.36136 5.41188C5.398 5.24972 5.35352 5.10024 5.22792 4.96342C5.09709 4.82154 4.92965 4.75313 4.72556 4.7582C4.5267 4.7582 4.35919 4.84434 4.22313 5.01663C3.88298 5.42708 3.61873 5.8882 3.43034 6.4C3.24194 6.90673 3.14776 7.4388 3.14776 7.9962C3.14776 8.5536 3.24194 9.0882 3.43034 9.6C3.61873 10.1067 3.88298 10.5653 4.22313 10.9758C4.35919 11.1481 4.5267 11.2367 4.72556 11.2418C4.92965 11.2418 5.09709 11.1709 5.22792 11.029ZM24.97 13.1953C25.0956 13.3371 25.2526 13.4055 25.441 13.4005C25.6346 13.3954 25.8073 13.3143 25.959 13.1572C26.6132 12.4681 27.1156 11.6827 27.4662 10.801C27.822 9.91417 28 8.97926 28 7.9962C28 7.01314 27.822 6.07823 27.4662 5.19145C27.1156 4.30467 26.6132 3.51924 25.959 2.83515C25.8073 2.673 25.6346 2.59192 25.441 2.59192C25.2526 2.58686 25.0956 2.65527 24.97 2.79715C24.8444 2.93397 24.7947 3.08599 24.8208 3.25321C24.8522 3.42043 24.9386 3.58258 25.0799 3.73967C25.6032 4.30721 26.0062 4.95329 26.2888 5.67791C26.5766 6.40253 26.7205 7.1753 26.7205 7.9962C26.7205 8.81204 26.5766 9.5848 26.2888 10.3145C26.0062 11.0391 25.6032 11.6852 25.0799 12.2527C24.9386 12.4098 24.8522 12.572 24.8208 12.7392C24.7947 12.9064 24.8444 13.0584 24.97 13.1953ZM22.7642 11.029C22.8951 11.1709 23.0599 11.2418 23.2587 11.2418C23.4628 11.2367 23.6355 11.1481 23.7768 10.9758C24.117 10.5653 24.3813 10.1067 24.5697 9.6C24.7581 9.0882 24.8522 8.5536 24.8522 7.9962C24.8522 7.4388 24.7581 6.90673 24.5697 6.4C24.3813 5.8882 24.117 5.42708 23.7768 5.01663C23.6355 4.84434 23.4628 4.7582 23.2587 4.7582C23.0599 4.75313 22.8951 4.82154 22.7642 4.96342C22.6439 5.10024 22.5994 5.24972 22.6308 5.41188C22.6674 5.57403 22.7485 5.73872 22.8741 5.90594C23.1044 6.18971 23.2771 6.51148 23.3922 6.87126C23.5125 7.22597 23.5727 7.60095 23.5727 7.9962C23.5727 8.39145 23.5125 8.76896 23.3922 9.12874C23.2771 9.48345 23.1044 9.80269 22.8741 10.0865C22.7485 10.2486 22.6674 10.4133 22.6308 10.5805C22.5994 10.7427 22.6439 10.8922 22.7642 11.029ZM7.77906 12.952H20.2209C20.5924 12.952 20.8829 12.8684 21.0922 12.7012C21.3016 12.534 21.4062 12.311 21.4062 12.0323C21.4062 11.7789 21.3303 11.5332 21.1786 11.295C21.0268 11.0568 20.8358 10.8238 20.6055 10.5957C20.3805 10.3677 20.1555 10.1397 19.9305 9.91164C19.7578 9.73935 19.6217 9.51386 19.5223 9.23516C19.4281 8.95645 19.3574 8.66002 19.3103 8.34584C19.2632 8.03167 19.2292 7.72763 19.2083 7.43373C19.1926 6.46081 19.0827 5.5943 18.8786 4.8342C18.6798 4.07411 18.3684 3.43563 17.9445 2.91877C17.5206 2.4019 16.9606 2.02185 16.2646 1.77862C16.1181 1.28203 15.8486 0.861441 15.4561 0.516865C15.0637 0.172288 14.577 0 13.9961 0C13.4204 0 12.9363 0.172288 12.5439 0.516865C12.1514 0.861441 11.8819 1.28203 11.7354 1.77862C11.0394 2.02185 10.4768 2.4019 10.0477 2.91877C9.62379 3.43563 9.31239 4.07411 9.11353 4.8342C8.91467 5.5943 8.8074 6.46081 8.7917 7.43373C8.77077 7.72763 8.73676 8.03167 8.68966 8.34584C8.64256 8.66002 8.5693 8.95645 8.46987 9.23516C8.37568 9.51386 8.24224 9.73935 8.06955 9.91164C7.84452 10.1397 7.61684 10.3677 7.38659 10.5957C7.16156 10.8238 6.97319 11.0568 6.82142 11.295C6.66966 11.5332 6.59379 11.7789 6.59379 12.0323C6.59379 12.311 6.69844 12.534 6.90777 12.7012C7.11709 12.8684 7.40751 12.952 7.77906 12.952ZM13.9961 16C14.4409 16 14.8386 15.9063 15.1892 15.7188C15.5398 15.5313 15.8224 15.2855 16.037 14.9815C16.2516 14.6774 16.3745 14.3481 16.4059 13.9934H11.5941C11.6255 14.3481 11.7484 14.6774 11.963 14.9815C12.1776 15.2855 12.4601 15.5313 12.8107 15.7188C13.1614 15.9063 13.5565 16 13.9961 16Z"
		fill="currentColor"
	/>
</svg>
