<svg viewBox="0 0 15 16" fill="none" color="rgb(var(--foreground, 0, 0, 0))">
	<path
		d="M0 12.2594C0 12.5434 0.105978 12.7706 0.317954 12.9409C0.529931 13.1113 0.824081 13.1965 1.20034 13.1965H4.55488C4.57608 13.6973 4.71385 14.1594 4.96823 14.5828C5.2279 15.0061 5.57497 15.3469 6.00953 15.605C6.44408 15.8683 6.93959 16 7.49603 16C8.05776 16 8.55592 15.8709 8.99047 15.6128C9.42503 15.3546 9.76945 15.0113 10.0238 14.5828C10.2835 14.1594 10.424 13.6973 10.4452 13.1965H13.7997C14.176 13.1965 14.4701 13.1113 14.682 12.9409C14.894 12.7706 15 12.5434 15 12.2594C15 12.0013 14.9232 11.7509 14.7695 11.5082C14.6158 11.2656 14.4224 11.0281 14.1892 10.7957C13.9613 10.5634 13.7334 10.3311 13.5056 10.0987C13.3307 9.9232 13.1929 9.69345 13.0922 9.40949C12.9968 9.12553 12.9253 8.82349 12.8776 8.50339C12.8299 8.18329 12.7955 7.87351 12.7743 7.57406C12.7584 6.55695 12.6471 5.66376 12.4404 4.89448C12.239 4.12004 11.9237 3.47467 11.4944 2.95837C11.0652 2.44208 10.4981 2.06002 9.79331 1.8122C9.66082 1.30623 9.39058 0.877703 8.98252 0.526622C8.57977 0.175541 8.08426 0 7.49603 0C6.91309 0 6.41758 0.175541 6.00953 0.526622C5.60677 0.877703 5.33918 1.30623 5.20669 1.8122C4.50187 2.06002 3.93218 2.44208 3.49762 2.95837C3.06837 3.47467 2.75302 4.12004 2.55165 4.89448C2.35027 5.66376 2.24164 6.55695 2.22574 7.57406C2.20455 7.87351 2.1701 8.18329 2.12241 8.50339C2.07471 8.82349 2.00053 9.12553 1.89984 9.40949C1.80445 9.69345 1.66933 9.9232 1.49445 10.0987C1.26657 10.3311 1.03601 10.5634 0.802835 10.7957C0.57496 11.0281 0.3842 11.2656 0.230517 11.5082C0.0768338 11.7509 0 12.0013 0 12.2594ZM1.54214 12.0271V11.9342C1.58984 11.8619 1.66932 11.7664 1.78061 11.6476C1.8919 11.5237 2.01642 11.3895 2.1542 11.2449C2.29729 11.1004 2.43771 10.9532 2.57549 10.8035C2.71858 10.6486 2.84316 10.4705 2.94915 10.2691C3.05514 10.0626 3.14522 9.83027 3.21941 9.57212C3.29361 9.31397 3.35189 9.02743 3.39429 8.71249C3.43668 8.39755 3.46848 8.05163 3.48967 7.67473C3.51087 6.54921 3.6301 5.65602 3.84737 4.99516C4.06465 4.3343 4.3535 3.84382 4.71386 3.52372C5.07952 3.19845 5.49019 2.97386 5.94594 2.84995C6.04662 2.8293 6.12346 2.79316 6.17645 2.74153C6.22945 2.68474 6.25859 2.60729 6.26389 2.5092C6.27979 2.10649 6.39643 1.77864 6.6137 1.52565C6.83628 1.26751 7.13037 1.13843 7.49603 1.13843C7.86699 1.13843 8.16113 1.26751 8.37841 1.52565C8.60099 1.77864 8.72021 2.10649 8.73611 2.5092C8.73611 2.60729 8.7626 2.68474 8.8156 2.74153C8.87389 2.79316 8.95073 2.8293 9.04612 2.84995C9.50187 2.97386 9.90994 3.19845 10.2703 3.52372C10.636 3.84382 10.9274 4.3343 11.1447 4.99516C11.3673 5.65602 11.4891 6.54921 11.5103 7.67473C11.5262 8.05163 11.5554 8.39755 11.5978 8.71249C11.6455 9.02743 11.7037 9.31397 11.7726 9.57212C11.8468 9.83027 11.937 10.0626 12.043 10.2691C12.1489 10.4705 12.2735 10.6486 12.4166 10.8035C12.5596 10.9532 12.7001 11.1004 12.8378 11.2449C12.9809 11.3895 13.1055 11.5237 13.2114 11.6476C13.3227 11.7664 13.4022 11.8619 13.4499 11.9342V12.0271H1.54214ZM5.79491 13.1965H9.20509C9.1733 13.7231 9.00108 14.1388 8.68842 14.4434C8.37575 14.7531 7.97827 14.908 7.49603 14.908C7.01908 14.908 6.6216 14.7531 6.30363 14.4434C5.99097 14.1388 5.8214 13.7231 5.79491 13.1965Z"
		fill="currentColor"
	/>
</svg>
