<svg color="rgb(var(--foreground, 0, 0, 0))" viewBox="0 0 15 16" fill="none">
	<path
		d="M7.2769 16C7.79485 16 8.25896 15.8787 8.66922 15.636C9.07947 15.3985 9.41027 15.081 9.66155 14.6834C9.91283 14.2859 10.0615 13.847 10.1077 13.3669H10.6077L9.27695 12.0271H1.51539V11.9342C1.56154 11.8619 1.6359 11.7664 1.73846 11.6476C1.84615 11.5237 1.96928 11.3895 2.10774 11.2449C2.2462 11.1004 2.38208 10.9532 2.51541 10.8035C2.65388 10.6486 2.77438 10.4705 2.87694 10.2691C2.9795 10.0626 3.06667 9.83027 3.13847 9.57212C3.21026 9.31397 3.26667 9.02743 3.30769 8.71249C3.34872 8.39755 3.37692 8.05163 3.39231 7.67473C3.39743 7.40626 3.41025 7.15069 3.43077 6.90803C3.45128 6.66537 3.47692 6.43562 3.50769 6.21878L2.4308 5.13456C2.34875 5.48564 2.28465 5.86512 2.2385 6.27299C2.19748 6.68086 2.1744 7.11455 2.16927 7.57406C2.14876 7.87351 2.11537 8.18328 2.06922 8.50339C2.02306 8.82349 1.95384 9.12552 1.86153 9.40949C1.76922 9.69345 1.63847 9.9232 1.46924 10.0987C1.2436 10.3311 1.01798 10.5634 0.792339 10.7957C0.571827 11.0281 0.387171 11.2656 0.238453 11.5082C0.0897353 11.7509 0.0153841 12.0013 0.0153841 12.2594C0.0153841 12.5434 0.117998 12.7706 0.323125 12.9409C0.528253 13.1113 0.815403 13.1965 1.18463 13.1965H4.4231C4.44361 13.6973 4.57693 14.1594 4.82308 14.5828C5.07436 15.0061 5.41029 15.3469 5.8308 15.605C6.25131 15.8683 6.73331 16 7.2769 16ZM7.2769 14.908C6.81024 14.908 6.42566 14.7531 6.1231 14.4434C5.82053 14.1388 5.65382 13.7231 5.62305 13.1965H8.92306C8.89741 13.7231 8.73077 14.1388 8.42307 14.4434C8.12051 14.7531 7.73844 14.908 7.2769 14.908ZM3.97696 2.40077L4.86154 3.29138C5 3.18813 5.14358 3.10035 5.2923 3.02807C5.44614 2.95579 5.60772 2.89642 5.77696 2.84995C5.86926 2.8293 5.94105 2.79316 5.99233 2.74153C6.04874 2.68474 6.07694 2.60729 6.07694 2.5092C6.09233 2.10649 6.20514 1.77864 6.41539 1.52565C6.63078 1.26751 6.91793 1.13843 7.2769 1.13843C7.63075 1.13843 7.91283 1.26751 8.12308 1.52565C8.33847 1.77864 8.45384 2.10649 8.46923 2.5092C8.47435 2.60729 8.50256 2.68474 8.55384 2.74153C8.60512 2.79316 8.67947 2.8293 8.77691 2.84995C9.22306 2.97386 9.62308 3.20361 9.97692 3.53921C10.3359 3.8748 10.623 4.38851 10.8384 5.08035C11.0538 5.76702 11.1692 6.69894 11.1846 7.87609C11.2 8.19103 11.2205 8.46983 11.2462 8.71249C11.2718 8.95515 11.3077 9.17457 11.3539 9.37076C11.4051 9.56179 11.4769 9.74508 11.5692 9.92062L14.3 12.7551C14.4333 12.6002 14.5 12.4117 14.5 12.1897C14.5 11.88 14.3692 11.5805 14.1077 11.2914C13.8513 10.9971 13.5846 10.708 13.3077 10.424C13.1487 10.2485 13.0128 10.0678 12.9 9.8819C12.7923 9.69087 12.7025 9.49209 12.6307 9.28558C12.5641 9.07389 12.5128 8.84931 12.4769 8.61181C12.441 8.37431 12.4179 8.11875 12.4077 7.84511C12.3872 6.19813 12.1538 4.87383 11.7077 3.87222C11.2615 2.8706 10.5257 2.18393 9.50002 1.8122C9.36668 1.30623 9.10255 0.877703 8.70768 0.526622C8.31794 0.175541 7.841 0 7.2769 0C6.70767 0 6.22567 0.175541 5.8308 0.526622C5.44106 0.877703 5.18205 1.30623 5.05384 1.8122C4.84872 1.87932 4.65643 1.9645 4.47694 2.06776C4.29745 2.16586 4.13081 2.27686 3.97696 2.40077ZM0.169225 1.57212L13.9923 15.4734C14.1051 15.587 14.2436 15.6438 14.4077 15.6438C14.5769 15.6438 14.718 15.587 14.8308 15.4734C14.9436 15.3546 15 15.2126 15 15.0474C15 14.8822 14.9436 14.7428 14.8308 14.6292L1.01541 0.727977C0.902588 0.614392 0.761577 0.557599 0.592346 0.557599C0.428244 0.557599 0.287173 0.614392 0.169225 0.727977C0.0564044 0.841562 0 0.983543 0 1.15392C0 1.31913 0.0564044 1.45853 0.169225 1.57212Z"
		fill="currentColor"
	/>
</svg>
