<svg viewBox="0 0 17 20" fill="none" color="rgb(var(--foreground, 0, 0, 0))">
	<path
		d="M11.5394 3.96251C11.8497 3.96251 12.1315 3.88556 12.3849 3.73167C12.6434 3.57778 12.8477 3.37083 12.9976 3.11081C13.1528 2.84548 13.2303 2.55362 13.2303 2.23523C13.2303 1.91153 13.1528 1.61968 12.9976 1.35966C12.8477 1.09433 12.6434 0.884723 12.3849 0.730834C12.1315 0.576945 11.8497 0.5 11.5394 0.5C11.2291 0.5 10.9447 0.576945 10.6862 0.730834C10.4328 0.884723 10.2285 1.09433 10.0734 1.35966C9.92346 1.61968 9.84848 1.91153 9.84848 2.23523C9.84848 2.55362 9.92346 2.84548 10.0734 3.11081C10.2285 3.37083 10.4328 3.57778 10.6862 3.73167C10.9447 3.88556 11.2291 3.96251 11.5394 3.96251ZM3.13131 12.2168H7.59908L11.7256 12.8138C12.5012 12.9252 13.1372 12.8138 13.6337 12.4795C14.1353 12.1399 14.386 11.5906 14.386 10.8318V7.96628C14.386 7.89198 14.4145 7.84423 14.4714 7.823C14.5283 7.80177 14.58 7.81504 14.6265 7.8628L15.3944 8.65878V11.381C15.3944 11.6092 15.4745 11.8055 15.6348 11.97C15.7952 12.1345 15.9839 12.2168 16.2011 12.2168C16.4234 12.2168 16.6122 12.1345 16.7673 11.97C16.9224 11.8055 17 11.6092 17 11.381V8.30855C17 8.07506 16.9198 7.87872 16.7595 7.71952L14.8049 5.72162C14.5102 5.42976 14.1792 5.20423 13.8121 5.04504C13.4501 4.88053 13.0623 4.79828 12.6486 4.79828H4.99289C4.77571 4.79828 4.58696 4.88053 4.42666 5.04504C4.26636 5.20954 4.1862 5.40323 4.1862 5.6261C4.1862 5.85428 4.26378 6.05062 4.41891 6.21512C4.57921 6.37432 4.77054 6.45392 4.99289 6.45392H10.8801C10.9939 6.45392 11.0895 6.49637 11.1671 6.58127C11.2447 6.66087 11.2834 6.75639 11.2834 6.86783V10.5612H3.13131C2.90379 10.5612 2.70988 10.6408 2.54957 10.8C2.39444 10.9592 2.31688 11.1528 2.31688 11.381C2.31688 11.6092 2.39703 11.8055 2.55733 11.97C2.71763 12.1345 2.90896 12.2168 3.13131 12.2168ZM13.0287 19.2612C13.1838 19.4204 13.3699 19.5 13.5871 19.5C13.8095 19.5 13.9982 19.4204 14.1534 19.2612C14.3137 19.102 14.3912 18.9083 14.386 18.6801C14.386 18.4573 14.3085 18.2636 14.1534 18.0991L11.5859 15.4326L12.5012 13.6098C12.3668 13.6204 12.2246 13.623 12.0746 13.6177C11.9246 13.6071 11.7721 13.5912 11.617 13.57L10.5078 13.4108L9.83296 15.3211C9.7192 15.6448 9.78384 15.9314 10.0269 16.1808L13.0287 19.2612ZM0.78884 8.69858C1.12496 9.03819 1.46366 9.26372 1.80495 9.37516C2.14623 9.48659 2.45391 9.51843 2.72797 9.47067C3.00204 9.42292 3.21146 9.3274 3.35625 9.18412C3.49587 9.03554 3.58119 8.82593 3.61222 8.5553C3.64842 8.28467 3.60446 7.9822 3.48036 7.64788C3.36142 7.31357 3.13648 6.97396 2.80554 6.62903C2.46425 6.28411 2.12813 6.04797 1.79719 5.92061C1.47141 5.79325 1.17667 5.74815 0.912944 5.7853C0.649222 5.82244 0.444967 5.91531 0.300178 6.06389C0.16056 6.20716 0.0674819 6.41942 0.0209426 6.70067C-0.0255966 6.98192 0.00542957 7.29765 0.114021 7.64788C0.227784 7.99811 0.452723 8.34835 0.78884 8.69858Z"
		fill="currentColor"
	/>
</svg>
