<svg viewBox="0 0 14 18" fill="none" color="rgb(var(--foreground, 0, 0, 0))">
	<path
		d="M5.43319 16.7471C5.58988 16.7028 5.71956 16.6502 5.82222 16.5893C5.92488 16.5284 6.00863 16.4343 6.07347 16.307L7.85653 13.019C7.88355 12.9637 7.92678 12.936 7.98621 12.936H12.3466V17.1456C12.3466 17.3836 12.4277 17.5829 12.5898 17.7434C12.7519 17.9095 12.9437 17.9925 13.1652 17.9925C13.3975 17.9925 13.5948 17.9095 13.7569 17.7434C13.919 17.5829 14 17.3836 14 17.1456V12.1887C14 11.912 13.9271 11.6933 13.7812 11.5328C13.6353 11.3723 13.4219 11.2782 13.1409 11.2505L9.4694 10.9101V6.1857C9.4694 5.72627 9.31811 5.3305 9.01553 4.99838C8.71295 4.66626 8.28339 4.5002 7.72686 4.5002H7.33783C7.00823 4.5002 6.70565 4.54172 6.43008 4.62475C6.15452 4.70224 5.85464 4.86553 5.53045 5.11462L2.80722 7.20696C2.65053 7.32321 2.54787 7.46989 2.49924 7.64702C2.45601 7.81861 2.46141 7.99021 2.51545 8.1618C2.57488 8.3334 2.68565 8.47455 2.84774 8.58525L6.17883 10.852V11.0678L4.72807 15.1861L0.61081 16.3485C0.389278 16.4094 0.221778 16.5395 0.10831 16.7388C-0.00515763 16.938 -0.0294721 17.1511 0.0353666 17.3781C0.100205 17.6161 0.224479 17.7877 0.408189 17.8929C0.597302 18.0036 0.810729 18.0285 1.04847 17.9676L5.43319 16.7471ZM4.72807 7.83799L5.96 6.89145C6.00863 6.85824 6.05726 6.8527 6.10589 6.87485C6.15452 6.89699 6.17883 6.9385 6.17883 6.99939V8.82604L4.72807 7.83799ZM7.72686 3.62839C8.05105 3.62839 8.34553 3.54813 8.61028 3.38761C8.87504 3.22155 9.08577 3.00013 9.24246 2.72337C9.40456 2.4466 9.48561 2.13939 9.48561 1.80174C9.48561 1.47516 9.40456 1.17625 9.24246 0.905022C9.08577 0.628257 8.87504 0.409612 8.61028 0.249089C8.34553 0.0830295 8.05105 0 7.72686 0C7.39726 0 7.09738 0.0830295 6.82722 0.249089C6.55706 0.409612 6.34093 0.628257 6.17883 0.905022C6.02214 1.17625 5.94379 1.47516 5.94379 1.80174C5.94379 2.13939 6.02214 2.4466 6.17883 2.72337C6.34093 3.00013 6.55706 3.22155 6.82722 3.38761C7.09738 3.54813 7.39726 3.62839 7.72686 3.62839Z"
		fill="currentColor"
	/>
</svg>
