<svg color="rgb(var(--foreground, 0, 0, 0))" viewBox="0 0 16 18" fill="none">
	<path
		d="M10.8844 3.84338C11.1943 3.84338 11.4758 3.76943 11.7289 3.62151C11.9871 3.4685 12.1911 3.26703 12.3409 3.0171C12.4906 2.76208 12.5655 2.479 12.5655 2.16787C12.5655 1.85674 12.4906 1.57621 12.3409 1.32628C12.1911 1.07126 11.9871 0.869787 11.7289 0.721872C11.4758 0.573957 11.1943 0.5 10.8844 0.5C10.5694 0.5 10.2828 0.573957 10.0245 0.721872C9.7663 0.869787 9.55972 1.07126 9.40478 1.32628C9.255 1.57621 9.18012 1.85674 9.18012 2.16787C9.18012 2.479 9.255 2.76208 9.40478 3.0171C9.55972 3.26703 9.7663 3.4685 10.0245 3.62151C10.2828 3.76943 10.5694 3.84338 10.8844 3.84338ZM5.60878 17.5C5.8257 17.5 6.0142 17.4235 6.17431 17.2705C6.33441 17.1175 6.41446 16.9313 6.41446 16.712V9.5279C7.29761 9.38509 8.09813 9.04591 8.81601 8.51035C9.53389 7.9697 10.0788 7.30408 10.4506 6.5135C10.4816 6.43699 10.5436 6.38344 10.6365 6.35284C10.7295 6.31713 10.8535 6.32733 11.0084 6.38344L14.9283 7.68407C15.1969 7.77588 15.4216 7.76568 15.6023 7.65347C15.7831 7.53615 15.9019 7.38314 15.9587 7.19442C16.0207 7.0057 16.0129 6.81188 15.9354 6.61296C15.858 6.40894 15.6927 6.26613 15.4396 6.18452L3.69529 2.31323C3.42156 2.22142 3.19432 2.23417 3.01356 2.35149C2.83796 2.4637 2.71917 2.61416 2.6572 2.80288C2.59522 2.9916 2.60297 3.18797 2.68044 3.39199C2.76307 3.59091 2.93092 3.73117 3.18399 3.81278L7.40607 5.20522C7.5042 5.24092 7.57134 5.30723 7.60749 5.40414C7.64881 5.50105 7.63848 5.60051 7.5765 5.70252C7.35442 6.05446 7.07812 6.32988 6.74758 6.5288C6.41704 6.72262 6.03745 6.81953 5.60878 6.81953H1.60362V2.84878C1.60362 2.61416 1.52873 2.42544 1.37895 2.28263C1.23434 2.13471 1.04067 2.06076 0.797934 2.06076C0.560362 2.06076 0.366688 2.13471 0.216914 2.28263C0.0723047 2.42544 0 2.61416 0 2.84878V7.54635C0 7.80648 0.0593932 8.00285 0.178179 8.13546C0.30213 8.26298 0.464816 8.34458 0.666236 8.38029L4.21433 8.96175L4.81085 12.4199V16.712C4.81085 16.9313 4.88832 17.1175 5.04326 17.2705C5.19819 17.4235 5.3867 17.5 5.60878 17.5Z"
		fill="currentColor"
	/>
</svg>
