<svg viewBox="0 0 17 16" fill="none" color="rgb(var(--foreground, 0, 0, 0))">
	<path
		d="M4.85226 3.45446C5.16917 3.45446 5.45703 3.37805 5.71584 3.22522C5.97993 3.06712 6.18856 2.85632 6.34173 2.59282C6.50019 2.32932 6.57941 2.03684 6.57941 1.71537C6.57941 1.39918 6.50019 1.11196 6.34173 0.853734C6.18856 0.590236 5.97993 0.382072 5.71584 0.229243C5.45703 0.0764145 5.16917 0 4.85226 0C4.53536 0 4.24486 0.0764145 3.98077 0.229243C3.72196 0.382072 3.51333 0.590236 3.35487 0.853734C3.19642 1.11196 3.11719 1.39918 3.11719 1.71537C3.11719 2.03684 3.19642 2.32932 3.35487 2.59282C3.51333 2.85632 3.72196 3.06712 3.98077 3.22522C4.24486 3.37805 4.53536 3.45446 4.85226 3.45446ZM16.5699 14.474L11.3489 11.6598L8.33033 9.56499C8.1085 9.41216 7.90515 9.22244 7.72028 8.99583C7.87346 8.90097 7.97909 8.77449 8.03719 8.61639C8.10057 8.45829 8.11114 8.29229 8.06888 8.11838L7.47468 5.71528C7.36904 5.29368 7.14193 4.95113 6.79333 4.68763C6.45001 4.41887 6.05916 4.28448 5.62077 4.28448H3.73516C3.44466 4.28448 3.19114 4.32401 2.97458 4.40306C2.76331 4.48211 2.56524 4.61385 2.38038 4.7983L0.233324 6.94054C0.101279 7.07229 0.0246924 7.23039 0.00356522 7.41484C-0.0122802 7.59402 0.0246924 7.76266 0.114483 7.92076L1.6198 10.5531V15.1854C1.6198 15.4015 1.69902 15.5886 1.85748 15.7467C2.01593 15.91 2.20608 15.9917 2.42791 15.9917C2.64975 15.9917 2.8399 15.91 2.99835 15.7467C3.1568 15.5886 3.23603 15.4015 3.23603 15.1854V11.2092L7.85497 11.5412L10.6517 13.1222L15.8094 15.8889C16.047 16.0154 16.2689 16.0339 16.4749 15.9443C16.6809 15.86 16.8261 15.7361 16.9106 15.5727C17.011 15.3725 17.0268 15.1643 16.9582 14.9483C16.8948 14.7375 16.7654 14.5794 16.5699 14.474ZM1.82579 7.65199L3.22019 6.25281L4.3056 9.04326L3.44994 9.53337H2.90328L1.82579 7.65199Z"
		fill="currentColor"
	/>
</svg>
