<svg color="rgb(var(--foreground, 0, 0, 0))" viewBox="0 0 19 18" fill="none">
	<path
		d="M5.17684 3.99477C5.46922 3.99477 5.73595 3.92324 5.97704 3.78018C6.21813 3.63712 6.41048 3.44552 6.55411 3.20538C6.69773 2.96524 6.76955 2.69956 6.76955 2.40833C6.76955 2.1171 6.69773 1.85397 6.55411 1.61894C6.41048 1.3788 6.21813 1.1872 5.97704 1.04414C5.73595 0.901081 5.46922 0.829551 5.17684 0.829551C4.88445 0.829551 4.61772 0.901081 4.37663 1.04414C4.14068 1.1872 3.95088 1.3788 3.80726 1.61894C3.66363 1.85397 3.59182 2.1171 3.59182 2.40833C3.59182 2.69956 3.66363 2.96524 3.80726 3.20538C3.95088 3.44552 4.14068 3.63712 4.37663 3.78018C4.61772 3.92324 4.88445 3.99477 5.17684 3.99477ZM14.4638 3.66522C14.7562 3.66522 15.0229 3.59369 15.264 3.45063C15.5051 3.30757 15.6975 3.11597 15.8411 2.87583C15.9847 2.63569 16.0565 2.37001 16.0565 2.07878C16.0565 1.79266 15.9847 1.52953 15.8411 1.28939C15.6975 1.04925 15.5051 0.857652 15.264 0.714591C15.0229 0.57153 14.7562 0.5 14.4638 0.5C14.1714 0.5 13.9047 0.57153 13.6636 0.714591C13.4276 0.857652 13.2379 1.04925 13.0942 1.28939C12.9506 1.52953 12.8788 1.79266 12.8788 2.07878C12.8788 2.37001 12.9506 2.63569 13.0942 2.87583C13.2379 3.11597 13.4276 3.30757 13.6636 3.45063C13.9047 3.59369 14.1714 3.66522 14.4638 3.66522ZM0.744944 5.94142L2.36843 6.0717C2.49154 6.08192 2.55309 6.1509 2.55309 6.27863V9.21393C2.55309 9.51027 2.59926 9.79639 2.69159 10.0723C2.78905 10.3482 2.92755 10.6011 3.10708 10.831L5.00756 13.2682L4.03809 16.4794C3.9714 16.6889 3.98936 16.8907 4.09195 17.0848C4.19967 17.2841 4.35612 17.4118 4.5613 17.468C4.76648 17.5242 4.96653 17.5063 5.16145 17.4144C5.35637 17.3224 5.48717 17.1615 5.55385 16.9315L6.63874 13.3218C6.649 13.2912 6.6567 13.2605 6.66183 13.2298C6.66696 13.1992 6.66952 13.166 6.66952 13.1302L9.60873 16.8319C9.7421 17.0005 9.91907 17.0976 10.1396 17.1231C10.3602 17.1538 10.55 17.1027 10.709 16.9699C10.8834 16.8268 10.9834 16.648 11.0091 16.4334C11.0347 16.2188 10.9809 16.0272 10.8475 15.8586L5.60002 9.24459L5.83854 6.89941C5.8488 6.81255 5.88471 6.75124 5.94626 6.71548C6.01295 6.67971 6.08476 6.67971 6.1617 6.71548L7.98524 7.62749C8.12887 7.70413 8.30327 7.74245 8.50845 7.74245H11.3169C11.5169 7.74245 11.6862 7.68114 11.8247 7.55851L13.1558 6.42425C13.2225 6.36293 13.2892 6.34505 13.3558 6.3706C13.4276 6.39104 13.4789 6.43957 13.5097 6.51621L14.2561 8.58549L11.1091 9.44385C10.9501 9.48983 10.8142 9.57414 10.7013 9.69676C10.5936 9.81938 10.532 9.965 10.5167 10.1336L10.1627 13.7433C10.1371 14.0039 10.214 14.2134 10.3935 14.3718C10.5731 14.5251 10.7603 14.6017 10.9552 14.6017C11.1553 14.6017 11.3297 14.5353 11.4784 14.4024C11.6323 14.2696 11.7195 14.101 11.74 13.8966L12.0401 10.8923L14.2484 10.5551L13.1943 12.6704C13.1327 12.7879 13.0917 12.908 13.0711 13.0306C13.0506 13.1481 13.0635 13.2682 13.1096 13.3908L14.5638 17.0005C14.6562 17.2202 14.8024 17.3658 15.0024 17.4374C15.2076 17.514 15.4051 17.514 15.5949 17.4374C15.7949 17.3556 15.9385 17.2151 16.0257 17.0158C16.1129 16.8166 16.1155 16.6148 16.0334 16.4104L14.7408 13.1992L16.5259 10.6701C16.7516 10.3533 16.9055 10.0033 16.9875 9.62012C17.0696 9.23181 17.0747 8.84861 17.0029 8.47053L16.7259 6.95306C16.7105 6.85087 16.7362 6.77168 16.8029 6.71548C16.8695 6.65928 16.9491 6.6465 17.0414 6.67716L17.957 6.98372C18.2699 7.09101 18.5264 7.06546 18.7264 6.90708C18.9316 6.74358 19.0214 6.506 18.9957 6.19433L18.6264 2.54628C18.6059 2.32147 18.5084 2.14264 18.334 2.0098C18.1647 1.87185 17.975 1.81309 17.7646 1.83353C17.5543 1.85397 17.3774 1.95104 17.2337 2.12476C17.0901 2.29337 17.0286 2.48752 17.0491 2.70722L17.2953 5.11371L15.1101 4.38563C14.6639 4.23746 14.215 4.20425 13.7636 4.286C13.3122 4.36775 12.9019 4.56701 12.5325 4.88379L11.0322 6.17134H8.60078L6.25403 5.00641C5.91036 4.8327 5.54616 4.73051 5.16145 4.69985L1.876 4.45461L2.63773 2.16308C2.70954 1.9536 2.69672 1.75178 2.59926 1.55763C2.5018 1.35836 2.35048 1.22552 2.1453 1.1591C1.93499 1.09268 1.73237 1.10801 1.53745 1.20508C1.34253 1.30216 1.21173 1.45289 1.14505 1.65726L0.0447666 4.89912C-0.0373055 5.14436 -0.00652845 5.37428 0.137098 5.58887C0.285853 5.80346 0.488469 5.92098 0.744944 5.94142Z"
		fill="currentColor"
	/>
</svg>
