<svg viewBox="0 0 13 18" fill="none" color="rgb(var(--foreground, 0, 0, 0))">
	<path
		d="M9.21592 3.86902C9.53661 3.86902 9.8279 3.79415 10.0898 3.64442C10.357 3.49468 10.5681 3.29332 10.7231 3.04032C10.8835 2.78216 10.9637 2.4956 10.9637 2.18064C10.9637 1.87084 10.8835 1.58945 10.7231 1.33645C10.5681 1.07828 10.357 0.874336 10.0898 0.724601C9.8279 0.574867 9.53661 0.5 9.21592 0.5C8.89524 0.5 8.60128 0.574867 8.33404 0.724601C8.07215 0.874336 7.86103 1.07828 7.70069 1.33645C7.54569 1.58945 7.46819 1.87084 7.46819 2.18064C7.46819 2.4956 7.54569 2.78216 7.70069 3.04032C7.86103 3.29332 8.07215 3.49468 8.33404 3.64442C8.60128 3.79415 8.89524 3.86902 9.21592 3.86902ZM6.26562 17.5C7.43078 17.5 8.44895 17.2651 9.32014 16.7952C10.1967 16.3254 10.8781 15.667 11.3645 14.8203C11.8509 13.9787 12.0941 12.9951 12.0941 11.8695C12.0941 10.9814 11.8803 10.2921 11.4527 9.80159C11.0251 9.30592 10.4025 9.05809 9.58471 9.05809H8.51042C8.41956 9.05809 8.3474 9.02969 8.29395 8.97289C8.24585 8.9161 8.24051 8.83348 8.27792 8.72506L9.01549 6.56424C9.18653 6.06856 9.15713 5.61936 8.92731 5.21663C8.69748 4.80873 8.2993 4.53508 7.73276 4.39567L4.42169 3.5902C4.26135 3.55406 4.11437 3.5489 3.98075 3.57472C3.85247 3.59537 3.71618 3.647 3.57187 3.72961L0.357012 5.47995C0.164601 5.58322 0.0496894 5.74844 0.0122762 5.97563C-0.025137 6.19765 0.0229657 6.39385 0.156584 6.56424C0.284858 6.73979 0.453217 6.84563 0.661662 6.88178C0.870107 6.91276 1.07588 6.87661 1.27898 6.77335L4.22928 5.2631L5.95296 5.70456C6.12399 5.75103 6.2389 5.82847 6.29769 5.9369C6.36183 6.04533 6.3645 6.17441 6.30571 6.32415L5.39978 8.77927C5.26081 9.16651 5.23676 9.52278 5.32762 9.84806C5.41848 10.1682 5.59753 10.4263 5.86477 10.6226C6.13201 10.8188 6.45804 10.9169 6.84286 10.9169H9.82522C10.1299 10.9169 10.3811 11.0021 10.5788 11.1724C10.7766 11.3377 10.8755 11.57 10.8755 11.8695C10.8755 12.7576 10.6831 13.5372 10.2982 14.2084C9.91876 14.8745 9.38161 15.3934 8.68679 15.7651C7.99732 16.1369 7.19294 16.3228 6.27364 16.3228C5.349 16.3228 4.53927 16.1369 3.84446 15.7651C3.15498 15.3934 2.61784 14.8745 2.23302 14.2084C1.8482 13.5372 1.65578 12.7576 1.65578 11.8695C1.65578 11.4099 1.72259 10.9788 1.85621 10.5761C1.98983 10.1733 2.17155 9.80418 2.40138 9.46856C2.52965 9.28269 2.57508 9.1123 2.53767 8.9574C2.50025 8.79734 2.41207 8.67859 2.2731 8.60114C2.13414 8.51853 1.97914 8.49529 1.80811 8.53144C1.63708 8.56758 1.48208 8.68375 1.34312 8.87995C1.06519 9.29301 0.843384 9.75254 0.677697 10.2585C0.517354 10.7594 0.437183 11.2964 0.437183 11.8695C0.437183 12.9951 0.680369 13.9787 1.16674 14.8203C1.65311 15.667 2.33189 16.3254 3.20309 16.7952C4.07963 17.2651 5.10047 17.5 6.26562 17.5ZM12.1181 17.5C12.364 17.5 12.5724 17.4174 12.7435 17.2522C12.9145 17.0869 13 16.8856 13 16.6481C13 16.4106 12.9145 16.2092 12.7435 16.044C12.5724 15.8787 12.364 15.7961 12.1181 15.7961C11.8723 15.7961 11.6638 15.8787 11.4928 16.044C11.3218 16.2092 11.2362 16.4106 11.2362 16.6481C11.2362 16.8856 11.3218 17.0869 11.4928 17.2522C11.6638 17.4174 11.8723 17.5 12.1181 17.5Z"
		fill="currentColor"
	/>
</svg>
