<svg viewBox="0 0 18 18" fill="none" color="rgb(var(--foreground, 0, 0, 0))">
	<path
		d="M10.0088 3.91005C10.3252 3.91005 10.6127 3.83462 10.8712 3.68376C11.1349 3.52769 11.3433 3.3196 11.4962 3.05949C11.6545 2.79938 11.7336 2.51326 11.7336 2.20112C11.7336 1.88899 11.6545 1.60547 11.4962 1.35056C11.3433 1.09045 11.1349 0.884964 10.8712 0.7341C10.6127 0.578033 10.3252 0.5 10.0088 0.5C9.69227 0.5 9.40216 0.578033 9.13842 0.7341C8.87996 0.884964 8.67161 1.09045 8.51337 1.35056C8.35512 1.60547 8.276 1.88899 8.276 2.20112C8.276 2.51326 8.35512 2.79938 8.51337 3.05949C8.67161 3.3196 8.87996 3.52769 9.13842 3.68376C9.40216 3.83462 9.69227 3.91005 10.0088 3.91005ZM12.2321 17.4332C12.4009 17.3656 12.538 17.2485 12.6435 17.0821C12.749 16.9156 12.7674 16.7153 12.6989 16.4812L11.5041 12.3689C11.4408 12.166 11.3195 12.0125 11.1402 11.9085L8.64787 10.4648L9.83469 6.99237C9.87689 6.85711 9.95601 6.78168 10.0721 6.76607C10.1934 6.75046 10.3041 6.79208 10.4044 6.89092L12.1688 8.62326C12.3376 8.77933 12.5222 8.85736 12.7226 8.85736C12.9441 8.85736 13.134 8.77933 13.2923 8.62326L15.6738 6.26666C15.8268 6.11059 15.9033 5.92851 15.9033 5.72042C15.9086 5.50713 15.8321 5.32245 15.6738 5.16639C15.5209 5.01552 15.3336 4.94009 15.1121 4.94009C14.8958 4.93489 14.7085 5.01032 14.5503 5.16639L12.7226 6.96896L11.1956 5.40829C10.8422 5.04934 10.4492 4.81524 10.0167 4.70599C9.58941 4.59675 9.00919 4.54212 8.276 4.54212H0.799123C0.582859 4.54212 0.395605 4.62015 0.237363 4.77622C0.0791211 4.92709 0 5.11176 0 5.33026C0 5.54355 0.0791211 5.72823 0.237363 5.88429C0.395605 6.03516 0.582859 6.11059 0.799123 6.11059H6.35336C6.46941 6.11059 6.56699 6.15481 6.64611 6.24325C6.73051 6.33168 6.74369 6.45394 6.68567 6.61L5.75995 9.34897C5.64918 9.67151 5.62281 9.99404 5.68083 10.3166C5.74413 10.6339 5.87336 10.92 6.06853 11.1749C6.26897 11.4299 6.52743 11.6249 6.84391 11.7602L10.0641 13.157L11.1718 16.887C11.251 17.1627 11.396 17.3396 11.607 17.4176C11.8233 17.4956 12.0316 17.5008 12.2321 17.4332ZM2.13627 17.1601C2.24176 17.311 2.38682 17.415 2.57144 17.4722C2.76133 17.5295 2.96704 17.4982 3.18858 17.3786L6.74106 15.4356C6.9204 15.3367 7.04435 15.1859 7.11292 14.983L7.79337 12.9931L6.54325 12.4547C6.46941 12.4183 6.39556 12.3819 6.32171 12.3454C6.25314 12.309 6.18193 12.2674 6.10809 12.2206L5.67292 14.2182L2.42111 16.013C2.16792 16.1535 2.0255 16.3381 1.99385 16.567C1.96748 16.7959 2.01495 16.9936 2.13627 17.1601ZM13.1182 10.6131H18V9.74694H13.1182C12.9969 9.74694 12.894 9.78856 12.8096 9.87179C12.7252 9.95503 12.683 10.0565 12.683 10.1761C12.683 10.301 12.7252 10.405 12.8096 10.4883C12.894 10.5715 12.9969 10.6131 13.1182 10.6131ZM1.09187 4.84645H1.89099V3.74618H1.09187V4.84645ZM1.49539 0.773116C1.07868 0.773116 0.725277 0.916177 0.435166 1.2023C0.145055 1.48842 0 1.83957 0 2.25575C0 2.50545 0.0659342 2.76036 0.197803 3.02047C0.334946 3.27538 0.514287 3.50168 0.735826 3.69936C0.96264 3.89705 1.21583 4.0271 1.49539 4.08953C1.76968 4.0271 2.02023 3.89705 2.24704 3.69936C2.47385 3.50168 2.65319 3.27538 2.78506 3.02047C2.91693 2.76036 2.98286 2.50545 2.98286 2.25575C2.98286 1.83957 2.83781 1.48842 2.5477 1.2023C2.25759 0.916177 1.90682 0.773116 1.49539 0.773116Z"
		fill="currentColor"
	/>
</svg>
