<svg viewBox="0 0 20 18" fill="none" color="rgb(var(--foreground, 0, 0, 0))">
	<path
		d="M10.0994 3.77413C10.4052 3.77413 10.683 3.7017 10.9327 3.55685C11.1876 3.412 11.3889 3.21471 11.5367 2.96496C11.6896 2.71522 11.7661 2.4405 11.7661 2.14081C11.7661 1.83612 11.6896 1.56141 11.5367 1.31666C11.3889 1.06692 11.1876 0.86962 10.9327 0.724769C10.683 0.574923 10.4052 0.5 10.0994 0.5C9.78848 0.5 9.50561 0.574923 9.25076 0.724769C9.00102 0.86962 8.79969 1.06692 8.64679 1.31666C8.49898 1.56141 8.42508 1.83612 8.42508 2.14081C8.42508 2.4405 8.49898 2.71522 8.64679 2.96496C8.79969 3.21471 9.00102 3.412 9.25076 3.55685C9.50561 3.7017 9.78848 3.77413 10.0994 3.77413ZM16.6972 6.08925C16.9113 6.08925 17.0948 6.01432 17.2477 5.86448C17.4006 5.71463 17.4771 5.53232 17.4771 5.31754C17.4771 5.10776 17.4006 4.93044 17.2477 4.78559C17.0948 4.63574 16.9113 4.56082 16.6972 4.56082H8.48624C8.11417 4.56082 7.77268 4.65322 7.46177 4.83803C7.15596 5.02284 6.91641 5.28258 6.74312 5.61723L3.27982 12.4127L1.32263 10.4947C1.16972 10.3449 0.98369 10.2724 0.764526 10.2774C0.550459 10.2774 0.369521 10.3499 0.221713 10.4947C0.0739042 10.6446 0 10.8244 0 11.0342C0 11.2439 0.0739042 11.4238 0.221713 11.5736L2.98165 14.2858C3.14475 14.4456 3.33588 14.5131 3.55505 14.4881C3.77931 14.4681 3.9577 14.3632 4.09021 14.1734L6.35321 10.9368C6.41437 10.8419 6.50102 10.7869 6.61315 10.7719C6.73038 10.7569 6.83231 10.7819 6.91896 10.8468L9.70183 12.9372V16.7433C9.70183 16.9531 9.77574 17.1304 9.92355 17.2752C10.0765 17.4251 10.2625 17.5 10.4817 17.5C10.7008 17.5 10.8843 17.4251 11.0321 17.2752C11.185 17.1304 11.2615 16.9531 11.2615 16.7433V12.5551C11.2615 12.3503 11.185 12.1705 11.0321 12.0156L8.32569 9.36338L9.77829 6.50881C9.9261 6.2291 10.1555 6.08925 10.4664 6.08925H16.6972ZM11.6437 9.51322H14.7554C14.9694 9.51322 15.1504 9.4383 15.2982 9.28845C15.4511 9.13861 15.5275 8.96129 15.5275 8.7565C15.5275 8.54172 15.4511 8.35941 15.2982 8.20956C15.1504 8.05972 14.9694 7.98479 14.7554 7.98479H11.9648L10.7569 6.80851H10.5657C10.4944 6.80851 10.4409 6.84097 10.4052 6.90591L9.81651 8.03724L11.1009 9.28845C11.2589 9.4383 11.4399 9.51322 11.6437 9.51322ZM16.1009 7.89489C16.1009 8.13464 16.1876 8.35691 16.3609 8.5617C16.5392 8.7615 16.7762 8.92133 17.0719 9.04121C17.3675 9.16108 17.6937 9.22102 18.0505 9.22102C18.4072 9.22102 18.7334 9.16108 19.0291 9.04121C19.3247 8.92133 19.5591 8.7615 19.7324 8.5617C19.9108 8.35691 20 8.13464 20 7.89489C20 7.64514 19.9108 7.42038 19.7324 7.22058C19.5591 7.02079 19.3247 6.86095 19.0291 6.74108C18.7334 6.6212 18.4072 6.56126 18.0505 6.56126C17.6937 6.56126 17.3675 6.6212 17.0719 6.74108C16.7762 6.86095 16.5392 7.02079 16.3609 7.22058C16.1876 7.42038 16.1009 7.64514 16.1009 7.89489Z"
		fill="currentColor"
	/>
</svg>
