<svg viewBox="0 0 12 20" fill="none" color="rgb(var(--foreground, 0, 0, 0))">
	<path
		d="M6.23958 3.81983C6.54211 3.81983 6.8169 3.7464 7.06396 3.59952C7.31103 3.44759 7.50767 3.245 7.65389 2.99177C7.80515 2.73854 7.88078 2.45746 7.88078 2.14852C7.88078 1.84465 7.80515 1.56863 7.65389 1.32046C7.50767 1.0723 7.31103 0.874779 7.06396 0.727906C6.8169 0.575969 6.54211 0.5 6.23958 0.5C5.93201 0.5 5.65218 0.575969 5.40007 0.727906C5.14797 0.874779 4.94629 1.0723 4.79502 1.32046C4.6488 1.56863 4.57569 1.84465 4.57569 2.14852C4.57569 2.45746 4.6488 2.73854 4.79502 2.99177C4.94629 3.245 5.14797 3.44759 5.40007 3.59952C5.65218 3.7464 5.93201 3.81983 6.23958 3.81983ZM9.06063 19.4694C9.26735 19.4086 9.41609 19.2795 9.50685 19.0819C9.59761 18.8895 9.61021 18.6894 9.54467 18.4818L8.34213 14.8429C8.32701 14.7872 8.30684 14.7441 8.28163 14.7137C8.26146 14.6783 8.23373 14.6352 8.19843 14.5846L6.17908 12.26L6.60261 7.63346C6.60765 7.55749 6.64295 7.51191 6.7085 7.49672C6.77909 7.47646 6.83455 7.49925 6.87489 7.56509L7.85053 9.07687C7.99675 9.29464 8.18583 9.46937 8.41776 9.60105L10.8607 10.9229C11.0472 11.0242 11.2413 11.0445 11.443 10.9837C11.6497 10.9229 11.806 10.7988 11.9119 10.6114C12.0077 10.424 12.0254 10.2265 11.9649 10.0189C11.9094 9.81123 11.7884 9.65676 11.6018 9.55547L9.15139 8.24121L7.52531 5.71905C7.30346 5.36959 7.02615 5.09864 6.69337 4.90618C6.36563 4.71373 5.97739 4.6175 5.52865 4.6175H3.9177L3.28996 10.6114C3.24962 11.0014 3.27484 11.3407 3.36559 11.6294C3.46139 11.913 3.6656 12.2144 3.97821 12.5334L6.92783 15.5114L8.08499 18.968C8.16566 19.2212 8.3018 19.3782 8.49339 19.439C8.69004 19.5048 8.87911 19.515 9.06063 19.4694ZM2.33701 10.6114H3.57736C3.91014 10.6114 4.18997 10.5025 4.41687 10.2848C4.64376 10.067 4.75721 9.79857 4.75721 9.4795V4.94417C4.75721 4.6251 4.64376 4.35668 4.41687 4.1389C4.18997 3.91606 3.91014 3.80464 3.57736 3.80464H2.73029C2.25129 3.80464 1.87818 3.94138 1.61095 4.21487C1.34372 4.48329 1.2101 4.86314 1.2101 5.3544V9.4795C1.2101 9.81376 1.31346 10.0872 1.52019 10.3C1.73196 10.5076 2.00423 10.6114 2.33701 10.6114ZM0.226894 19.2643C0.383199 19.4263 0.564714 19.5048 0.771439 19.4998C0.978165 19.4947 1.15716 19.4162 1.30842 19.2643L4.13703 16.4382C4.16224 16.4078 4.18745 16.3775 4.21266 16.3471C4.24292 16.3217 4.26561 16.2914 4.28073 16.2559L5.05973 14.6682L3.70593 13.3083L2.91937 15.4734L0.226894 18.1931C0.0756313 18.345 0 18.5248 0 18.7325C0 18.9401 0.0756313 19.1174 0.226894 19.2643ZM11.1783 6.69905C11.0623 6.69905 10.964 6.73956 10.8833 6.8206C10.8027 6.90163 10.7623 7.00039 10.7623 7.11687V8.2716L11.6018 8.72741V7.11687C11.6018 7.00039 11.5615 6.90163 11.4808 6.8206C11.4002 6.73956 11.2993 6.69905 11.1783 6.69905ZM11.1783 19.4922C11.2993 19.4922 11.4002 19.4491 11.4808 19.363C11.5615 19.282 11.6018 19.1832 11.6018 19.0667V11.6978C11.3195 11.7738 11.0396 11.7662 10.7623 11.675V19.0667C10.7623 19.1832 10.8027 19.282 10.8833 19.363C10.964 19.4491 11.0623 19.4922 11.1783 19.4922Z"
		fill="currentColor"
	/>
</svg>
