<svg color="rgb(var(--foreground, 0, 0, 0))" viewBox="0 0 12 16" fill="none">
	<path
		d="M10.1315 3.35745C10.4378 3.35745 10.716 3.28284 10.9662 3.13362C11.2214 2.9844 11.4231 2.78373 11.5712 2.5316C11.7243 2.27432 11.8009 1.99132 11.8009 1.68259C11.8009 1.36871 11.7243 1.08571 11.5712 0.833575C11.4231 0.576298 11.2214 0.37305 10.9662 0.22383C10.716 0.0746101 10.4378 0 10.1315 0C9.82514 0 9.54435 0.0746101 9.28909 0.22383C9.03893 0.37305 8.83727 0.576298 8.68411 0.833575C8.53606 1.08571 8.46203 1.36871 8.46203 1.68259C8.46203 1.99132 8.53606 2.27432 8.68411 2.5316C8.83727 2.78373 9.03893 2.9844 9.28909 3.13362C9.54435 3.28284 9.82514 3.35745 10.1315 3.35745ZM5.56733 16C6.34844 16 7.07594 15.8559 7.74984 15.5678C8.42885 15.2848 9.02106 14.886 9.52648 14.3714C10.0319 13.862 10.425 13.2677 10.7058 12.5885C10.9917 11.9093 11.1347 11.1735 11.1347 10.3811C11.1347 9.65557 10.9815 9.06898 10.6752 8.62132C10.374 8.17366 9.90172 7.8392 9.25846 7.61795L8.0485 7.19344C7.82387 7.1214 7.78302 6.98505 7.92597 6.78437L8.71474 5.62663C9.02106 5.18411 9.12317 4.77504 9.02106 4.39942C8.92406 4.0238 8.63816 3.67133 8.16337 3.34202L5.25335 1.28895C5.10019 1.18604 4.93427 1.13201 4.75558 1.12687C4.5769 1.12172 4.41098 1.17061 4.25782 1.27352L1.56222 3.10275C1.31206 3.27255 1.16911 3.46294 1.13338 3.6739C1.10274 3.87972 1.14359 4.06754 1.2559 4.23734C1.37332 4.40199 1.53414 4.50748 1.73835 4.55379C1.94257 4.6001 2.15699 4.54607 2.38162 4.3917L4.67135 2.83261L6.24888 3.94404C6.38162 4.04181 6.45565 4.14472 6.47096 4.25277C6.49138 4.36083 6.4582 4.4766 6.37141 4.6001L5.10785 6.45249C4.87811 6.78694 4.77601 7.11883 4.80153 7.44814C4.83216 7.77231 4.95724 8.05789 5.17677 8.30487C5.4014 8.54671 5.68985 8.71394 6.04212 8.80656L9.40396 9.65557C9.58775 9.69674 9.72814 9.78936 9.82514 9.93343C9.92214 10.0775 9.97064 10.2525 9.97064 10.4583C9.97064 11.2661 9.77409 12.0019 9.38098 12.6657C8.99298 13.3243 8.46713 13.8466 7.80345 14.2325C7.13976 14.6236 6.39694 14.8191 5.57498 14.8191C4.74793 14.8191 4 14.6236 3.33121 14.2325C2.66752 13.8415 2.13912 13.3115 1.74601 12.6425C1.35801 11.9685 1.16401 11.2147 1.16401 10.3811C1.16401 9.92314 1.22782 9.49606 1.35546 9.09986C1.48309 8.69851 1.65667 8.32803 1.8762 7.98842C1.99872 7.80318 2.04212 7.63338 2.00638 7.47902C1.97064 7.31951 1.88641 7.20116 1.75367 7.12398C1.62093 7.04165 1.47288 7.01849 1.30951 7.05451C1.14614 7.09053 0.998085 7.2063 0.865348 7.40183C0.599872 7.81862 0.388003 8.27657 0.229738 8.77569C0.0765795 9.2748 0 9.80994 0 10.3811C0 11.1684 0.140396 11.9042 0.421187 12.5885C0.707084 13.2677 1.10274 13.862 1.60817 14.3714C2.11359 14.8809 2.70325 15.2796 3.37715 15.5678C4.05105 15.8559 4.78111 16 5.56733 16ZM11.1576 16C11.3925 16 11.5916 15.9151 11.7549 15.7453C11.9183 15.5806 12 15.38 12 15.1433C12 14.9066 11.9183 14.7059 11.7549 14.5412C11.5916 14.3766 11.3925 14.2943 11.1576 14.2943C10.9228 14.2943 10.7211 14.3766 10.5526 14.5412C10.3893 14.7059 10.3076 14.9066 10.3076 15.1433C10.3076 15.38 10.3893 15.5806 10.5526 15.7453C10.7211 15.9151 10.9228 16 11.1576 16Z"
		fill="currentColor"
	/>
</svg>
