<svg color="rgb(var(--foreground, 0, 0, 0))" viewBox="0 0 19 20" fill="none">
	<path
		d="M9.50398 3.93059C9.82237 3.93059 10.1142 3.8547 10.3796 3.70293C10.6449 3.54592 10.8545 3.33658 11.0084 3.0749C11.1676 2.81323 11.2472 2.52276 11.2472 2.20352C11.2472 1.88951 11.1676 1.60428 11.0084 1.34783C10.8545 1.09139 10.6449 0.887282 10.3796 0.735509C10.1142 0.578503 9.82237 0.5 9.50398 0.5C9.18559 0.5 8.89373 0.578503 8.6284 0.735509C8.36838 0.887282 8.15878 1.09139 7.99958 1.34783C7.84569 1.60428 7.76875 1.88951 7.76875 2.20352C7.76875 2.52276 7.84569 2.81323 7.99958 3.0749C8.15878 3.33658 8.36838 3.54592 8.6284 3.70293C8.89373 3.8547 9.18559 3.93059 9.50398 3.93059ZM7.76079 9.80262H11.2631V7.9264C11.2631 7.85836 11.3002 7.81649 11.3745 7.80079C11.4541 7.77986 11.5152 7.81126 11.5576 7.89499L13.7784 12.3461C13.8792 12.545 14.0331 12.6811 14.2401 12.7543C14.4523 12.8224 14.6566 12.8041 14.853 12.6994C15.044 12.6052 15.174 12.456 15.243 12.2519C15.3173 12.0426 15.304 11.8385 15.2032 11.6396L12.2819 5.80681C12.1068 5.4614 11.8601 5.19187 11.5417 4.99823C11.2286 4.80459 10.8678 4.70777 10.4592 4.70777H8.55676C8.14816 4.70777 7.78467 4.80459 7.46627 4.99823C7.15319 5.19187 6.90909 5.4614 6.73397 5.80681L3.81274 11.6396C3.71191 11.8385 3.69599 12.0426 3.76498 12.2519C3.83927 12.456 3.97193 12.6052 4.16297 12.6994C4.35931 12.8041 4.56096 12.8224 4.76791 12.7543C4.98017 12.6811 5.13406 12.545 5.22958 12.3461L7.46627 7.89499C7.50873 7.81126 7.5671 7.77724 7.64139 7.79294C7.72099 7.80864 7.76079 7.85051 7.76079 7.91855V9.80262ZM6.28027 19.4821C6.4713 19.5239 6.65968 19.4925 6.84541 19.3879C7.03645 19.2832 7.16115 19.0974 7.21952 18.8305L7.96774 15.4548L9.50398 12.6601L11.0482 15.4548L11.7964 18.8305C11.8548 19.1079 11.9848 19.2963 12.1864 19.3957C12.3881 19.4951 12.5871 19.5213 12.7834 19.4742C12.9691 19.4219 13.123 19.3093 13.2451 19.1366C13.3671 18.9692 13.399 18.752 13.3406 18.4851L12.5844 15.0074C12.5844 14.9707 12.5791 14.9393 12.5685 14.9132C12.5632 14.8818 12.5526 14.8504 12.5367 14.819L11.5974 12.1891H7.42648L6.4713 14.819C6.45008 14.8713 6.43416 14.9341 6.42354 15.0074L5.66737 18.4851C5.60899 18.7624 5.64614 18.9875 5.7788 19.1602C5.91677 19.3381 6.08393 19.4454 6.28027 19.4821ZM1.63176 13.6336H2.09342C2.25262 13.6336 2.37998 13.5839 2.47549 13.4844C2.57632 13.385 2.62673 13.2568 2.62673 13.0998V8.88413C2.62673 8.72713 2.57632 8.60152 2.47549 8.50732C2.37998 8.40788 2.25262 8.35816 2.09342 8.35816H1.63176C1.47256 8.35816 1.34255 8.40788 1.24173 8.50732C1.14621 8.60152 1.09845 8.72713 1.09845 8.88413V13.0998C1.09845 13.2568 1.14621 13.385 1.24173 13.4844C1.34255 13.5839 1.47256 13.6336 1.63176 13.6336ZM16.9066 13.6336H17.3762C17.5354 13.6336 17.6628 13.5839 17.7583 13.4844C17.8538 13.385 17.9016 13.2568 17.9016 13.0998V8.88413C17.9016 8.72713 17.8538 8.60152 17.7583 8.50732C17.6628 8.40788 17.5354 8.35816 17.3762 8.35816H16.9066C16.7474 8.35816 16.6174 8.40788 16.5165 8.50732C16.421 8.60152 16.3733 8.72713 16.3733 8.88413V13.0998C16.3733 13.2568 16.421 13.385 16.5165 13.4844C16.6174 13.5839 16.7474 13.6336 16.9066 13.6336ZM0.445748 11.4276H18.5622C18.6843 11.4276 18.7877 11.3858 18.8726 11.302C18.9575 11.2183 19 11.1162 19 10.9959C19 10.8755 18.9575 10.7734 18.8726 10.6897C18.7877 10.6007 18.6843 10.5563 18.5622 10.5563H0.445748C0.318391 10.5563 0.212261 10.6007 0.127357 10.6897C0.0424522 10.7734 0 10.8755 0 10.9959C0 11.1162 0.0424522 11.2183 0.127357 11.302C0.212261 11.3858 0.318391 11.4276 0.445748 11.4276Z"
		fill="currentColor"
	/>
</svg>
