<svg color="rgb(var(--foreground, 0, 0, 0))" viewBox="0 0 15 20" fill="none">
	<path
		d="M6.48885 5.04941C6.79891 5.04941 7.08313 4.9725 7.34151 4.81866C7.5999 4.65953 7.80402 4.45 7.95388 4.19008C8.10891 3.93016 8.18643 3.64106 8.18643 3.32279C8.18643 3.00452 8.10891 2.71542 7.95388 2.4555C7.80402 2.19027 7.5999 1.98074 7.34151 1.82691C7.08313 1.66778 6.79891 1.58821 6.48885 1.58821C6.17879 1.58821 5.89715 1.66778 5.64393 1.82691C5.39072 1.98074 5.18659 2.19027 5.03156 2.4555C4.8817 2.71542 4.80677 3.00452 4.80677 3.32279C4.80677 3.64106 4.8817 3.93016 5.03156 4.19008C5.18659 4.45 5.39072 4.65953 5.64393 4.81866C5.89715 4.9725 6.17879 5.04941 6.48885 5.04941ZM12.4963 5.88487H3.69831L3.9386 6.07584C4.12981 6.00688 4.26158 5.89018 4.33393 5.72574C4.40628 5.5613 4.42178 5.39686 4.38044 5.23242C4.32876 5.04676 4.21766 4.89558 4.04712 4.77888C3.88176 4.65688 3.65438 4.63035 3.36499 4.69931L1.0783 5.24037C0.711393 5.32525 0.437506 5.48969 0.256638 5.7337C0.0757692 5.9777 -0.00949734 6.24028 0.000838001 6.52142C0.0111733 6.79725 0.114527 7.03596 0.310898 7.23753C0.50727 7.4338 0.796659 7.53193 1.17907 7.53193H3.67505C3.78874 7.53193 3.88434 7.57437 3.96186 7.65924C4.03937 7.73881 4.07813 7.83694 4.07813 7.95364V11.3114L1.68291 13.7541C1.52272 13.9239 1.38577 14.1016 1.27208 14.2872C1.16356 14.4676 1.07571 14.6877 1.00853 14.9477L0.101608 18.4407C0.0240925 18.743 0.0525147 18.9817 0.186874 19.1568C0.321234 19.3372 0.489183 19.4432 0.690722 19.4751C0.881926 19.5122 1.07055 19.4804 1.25658 19.3796C1.44262 19.2841 1.56923 19.1117 1.63641 18.8624L2.49682 15.5842C2.53816 15.4304 2.58209 15.311 2.6286 15.2261C2.68027 15.1413 2.76296 15.0484 2.87665 14.9477L4.75251 13.3006C4.94371 13.1415 5.17368 13.0778 5.44239 13.1096C5.71111 13.1415 5.91007 13.2741 6.03926 13.5075L7.17873 15.5444L8.98483 19.0374C9.11919 19.2974 9.30523 19.4459 9.54294 19.483C9.78582 19.5255 9.9977 19.4883 10.1786 19.3716C10.3388 19.2655 10.4447 19.1117 10.4964 18.9101C10.5481 18.7086 10.5145 18.4964 10.3956 18.2736L8.58175 14.7249L7.5508 12.314C7.3751 11.9055 7.28725 11.4679 7.28725 11.0011V7.95364C7.28725 7.83694 7.32601 7.73881 7.40352 7.65924C7.48621 7.57437 7.58439 7.53193 7.69808 7.53193H12.4963C12.7185 7.53193 12.9071 7.45236 13.0621 7.29323C13.2223 7.13409 13.3024 6.94313 13.3024 6.72034C13.3024 6.49224 13.2223 6.29597 13.0621 6.13153C12.9071 5.96709 12.7185 5.88487 12.4963 5.88487ZM14.1163 6.72034C14.1163 7.30383 14.0776 7.88468 14.0001 8.46287C13.9225 9.03576 13.7959 9.63783 13.6202 10.2691C13.4497 10.895 13.2249 11.5713 12.9459 12.298C12.8993 12.4254 12.8968 12.5474 12.9381 12.6641C12.9846 12.7755 13.0621 12.855 13.1706 12.9028C13.2843 12.9505 13.3954 12.9532 13.504 12.9107C13.6125 12.8683 13.6952 12.7887 13.752 12.672C14.1964 11.6695 14.5142 10.704 14.7054 9.77574C14.9018 8.84215 15 7.82368 15 6.72034C15 5.64882 14.9018 4.64892 14.7054 3.72063C14.5142 2.79234 14.1938 1.80835 13.7443 0.768659C13.6874 0.651959 13.6047 0.572391 13.4962 0.529955C13.3929 0.487519 13.2843 0.490171 13.1706 0.537912C13.057 0.585652 12.9794 0.667873 12.9381 0.784572C12.8968 0.895967 12.8993 1.01532 12.9459 1.14263C13.2249 1.87465 13.4497 2.55628 13.6202 3.18752C13.7959 3.81346 13.9225 4.41552 14.0001 4.99371C14.0776 5.5666 14.1163 6.14214 14.1163 6.72034Z"
		fill="currentColor"
	/>
</svg>
