<svg color="rgb(var(--foreground, 0, 0, 0))" viewBox="0 0 17 18" fill="none">
	<path
		d="M8.25426 3.40287C8.56421 3.40287 8.84367 3.32725 9.09264 3.17601C9.3467 3.01956 9.5474 2.81356 9.69475 2.55802C9.84719 2.29726 9.9234 2.01304 9.9234 1.70535C9.9234 1.38722 9.84719 1.10039 9.69475 0.84485C9.5474 0.584094 9.3467 0.378096 9.09264 0.226858C8.84367 0.0756193 8.56421 0 8.25426 0C7.94939 0 7.67247 0.0756193 7.4235 0.226858C7.17452 0.378096 6.97382 0.584094 6.82139 0.84485C6.67403 1.10039 6.60036 1.38722 6.60036 1.70535C6.60036 2.01304 6.67403 2.29726 6.82139 2.55802C6.97382 2.81356 7.17452 3.01956 7.4235 3.17601C7.67247 3.32725 7.94939 3.40287 8.25426 3.40287ZM2.32461 16.1226C2.12136 16.3312 2.0299 16.5502 2.05023 16.7797C2.07055 17.0143 2.15693 17.2021 2.30936 17.3429C2.44655 17.4681 2.62185 17.5332 2.83526 17.5385C3.04866 17.5437 3.24937 17.4498 3.43737 17.2568L6.34122 14.2764C6.39711 14.219 6.44284 14.1565 6.47841 14.0887L7.91128 11.3272C8.01291 11.1239 8.18058 11.0143 8.41431 10.9987C8.65313 10.9778 8.85891 11.0352 9.03167 11.1708L12.2785 13.6975V17.1395C12.2785 17.4055 12.3496 17.6141 12.4919 17.7653C12.6393 17.9218 12.8323 18 13.0711 18C13.31 18 13.5005 17.9218 13.6428 17.7653C13.7901 17.6141 13.8638 17.4055 13.8638 17.1395V13.3064C13.8638 13.0665 13.7647 12.8579 13.5666 12.6806L9.90816 9.45763V5.95306C9.90816 5.72881 10.0276 5.59844 10.2664 5.56193L16.3332 4.61539C16.5466 4.57888 16.7168 4.46936 16.8439 4.28683C16.976 4.1043 17.0243 3.90352 16.9887 3.68448C16.9582 3.46545 16.854 3.29074 16.6762 3.16037C16.5034 3.02477 16.3104 2.97523 16.0969 3.01173L4.00899 4.88918V2.40156H2.43893V5.83572C2.43893 6.09126 2.52531 6.29726 2.69807 6.45372C2.87591 6.60495 3.09185 6.66232 3.34591 6.62581L5.96014 6.21904C6.08209 6.19817 6.18117 6.22164 6.25738 6.28944C6.3336 6.35724 6.37171 6.45372 6.37171 6.57888V9.74707L5.11413 13.2595L2.32461 16.1226ZM2.63709 3.28553C3.08423 3.28553 3.53645 3.18644 3.99375 2.98827C4.45105 2.78488 4.82705 2.51369 5.12176 2.17471C5.22338 2.05997 5.27419 1.93481 5.27419 1.79922C5.27419 1.65841 5.22338 1.53064 5.12176 1.41591C4.82705 1.07692 4.45105 0.808344 3.99375 0.610169C3.53645 0.40678 3.08423 0.305085 2.63709 0.305085C2.18996 0.305085 1.73774 0.40678 1.28044 0.610169C0.823139 0.808344 0.447137 1.07692 0.152433 1.41591C0.0508111 1.53064 0 1.65841 0 1.79922C0 1.93481 0.0508111 2.06258 0.152433 2.18253C0.447137 2.52151 0.823139 2.79009 1.28044 2.98827C1.73774 3.18644 2.18996 3.28553 2.63709 3.28553Z"
		fill="currentColor"
	/>
</svg>
