<svg color="rgb(var(--foreground, 0, 0, 0))" viewBox="0 0 20 16" fill="none">
	<path
		d="M13.1955 3.98255C13.5128 3.98255 13.7989 3.90552 14.0538 3.75145C14.314 3.59206 14.5194 3.3822 14.6703 3.12188C14.8264 2.85624 14.9044 2.56137 14.9044 2.23729C14.9044 1.91852 14.8264 1.62897 14.6703 1.36865C14.5194 1.103 14.314 0.893149 14.0538 0.739077C13.7989 0.579692 13.5128 0.5 13.1955 0.5C12.8833 0.5 12.5972 0.579692 12.3371 0.739077C12.0822 0.893149 11.8767 1.103 11.7206 1.36865C11.5698 1.62897 11.4943 1.91852 11.4943 2.23729C11.4943 2.56137 11.5698 2.85624 11.7206 3.12188C11.8767 3.3822 12.0822 3.59206 12.3371 3.75145C12.5972 3.90552 12.8833 3.98255 13.1955 3.98255ZM7.46001 15.4184C7.61087 15.5034 7.79555 15.522 8.01404 15.4742C8.23254 15.4264 8.39641 15.2882 8.50566 15.0598L10.4643 11.0831C10.5371 10.9291 10.5605 10.767 10.5345 10.597C10.5137 10.427 10.4409 10.2809 10.316 10.1587L7.95942 7.74403L10.9325 6.22191C11.0834 6.14221 11.2238 6.16612 11.3539 6.29363L12.8833 7.86357V11.123C12.8833 11.3408 12.9614 11.5294 13.1174 11.6888C13.2735 11.8429 13.4582 11.9199 13.6715 11.9199C13.8848 11.9199 14.0668 11.8429 14.2177 11.6888C14.3738 11.5294 14.4518 11.3408 14.4518 11.123V7.53683C14.4518 7.43057 14.4362 7.32963 14.405 7.234C14.3738 7.13837 14.314 7.04805 14.2255 6.96304L10.6984 3.37689C10.2874 2.96249 9.79321 2.75529 9.21576 2.75529H6.21927C5.95916 2.75529 5.76148 2.83498 5.62622 2.99437C5.49616 3.14844 5.43374 3.33173 5.43894 3.54425C5.44414 3.75676 5.52738 3.94271 5.68864 4.10209L6.62505 5.05043L6.24268 5.20981C5.88893 5.35857 5.60021 5.5764 5.37651 5.86329C5.15802 6.14487 5.02016 6.46098 4.96293 6.81163C4.90571 7.15696 4.93952 7.49698 5.06438 7.83169C5.18923 8.1664 5.41813 8.4586 5.75107 8.70831L8.77097 10.9716L7.11666 14.3505C7.01782 14.5471 7.00221 14.749 7.06984 14.9562C7.14267 15.1634 7.27273 15.3175 7.46001 15.4184ZM0.780335 12.3263H4.68982C4.84588 12.3263 4.98374 12.2838 5.10339 12.1988C5.22304 12.1085 5.31408 12.0023 5.37651 11.8801L6.26609 10.0551L5.30628 9.32991C5.08779 9.16521 4.90311 8.98723 4.75224 8.79597L4.12017 10.7245H0.780335C0.567044 10.7245 0.382364 10.8042 0.226297 10.9636C0.0754324 11.1177 0 11.3063 0 11.5294C0 11.7472 0.0754324 11.9358 0.226297 12.0952C0.382364 12.2493 0.567044 12.3263 0.780335 12.3263ZM17.2298 15.1554H19.5786C19.6931 15.1554 19.7919 15.1103 19.8751 15.0199C19.9584 14.9349 20 14.834 20 14.7171V14.3186C20 14.1964 19.9584 14.0902 19.8751 13.9999C19.7919 13.9149 19.6931 13.8724 19.5786 13.8724H16.9801L9.40304 6.14221L8.63051 6.59646L16.8474 14.9881C16.9151 15.0624 16.9775 15.1076 17.0347 15.1235C17.0919 15.1448 17.157 15.1554 17.2298 15.1554Z"
		fill="currentColor"
	/>
</svg>
