<svg viewBox="0 0 15 22" fill="none" color="rgb(var(--foreground, 0, 0, 0))">
	<path
		d="M6.02871 4.03369C6.34237 4.03369 6.63211 3.95553 6.89793 3.79919C7.16374 3.63747 7.37374 3.42453 7.52791 3.16038C7.6874 2.89084 7.76714 2.59434 7.76714 2.27089C7.76714 1.94744 7.6874 1.65094 7.52791 1.3814C7.37374 1.11186 7.16374 0.898922 6.89793 0.742588C6.63211 0.580863 6.34237 0.5 6.02871 0.5C5.70973 0.5 5.41733 0.580863 5.15151 0.742588C4.8857 0.898922 4.67305 1.11186 4.51356 1.3814C4.35938 1.65094 4.2823 1.94744 4.2823 2.27089C4.2823 2.59434 4.35938 2.89084 4.51356 3.16038C4.67305 3.42453 4.8857 3.63747 5.15151 3.79919C5.41733 3.95553 5.70973 4.03369 6.02871 4.03369ZM7.05742 17.3032C7.21159 17.341 7.395 17.3221 7.60765 17.2466C7.82562 17.1766 7.97182 17.0121 8.04625 16.7534L9.20255 12.8639C9.26103 12.6536 9.24774 12.4542 9.16268 12.2655C9.07762 12.0714 8.92345 11.9367 8.70016 11.8612L5.56619 10.7615L5.95694 8.05256C5.96757 7.9717 6.0101 7.92588 6.08453 7.91509C6.16427 7.89892 6.22009 7.92857 6.25199 8.00404L6.92185 9.3221C7.07071 9.6186 7.30994 9.76685 7.63955 9.76685H10.8453C11.0633 9.76685 11.252 9.69138 11.4115 9.54043C11.571 9.3841 11.6507 9.19003 11.6507 8.95822C11.6507 8.7372 11.571 8.54852 11.4115 8.39218C11.252 8.23046 11.0633 8.1496 10.8453 8.1496H8.13397L7.08931 6.05526C6.91919 5.71563 6.68793 5.43261 6.39553 5.2062C6.10845 4.97978 5.77884 4.82884 5.4067 4.75337L4.96013 4.66442C4.55077 4.58356 4.17863 4.58086 3.8437 4.65633C3.51409 4.72642 3.22169 4.84232 2.96651 5.00404L0.374801 6.63747C0.263158 6.71294 0.17278 6.81267 0.103668 6.93666C0.0345561 7.06065 0 7.19542 0 7.34097V10.5836C0 10.81 0.0797448 11.004 0.239234 11.1658C0.398724 11.3275 0.587453 11.4084 0.805422 11.4084C1.02339 11.4084 1.21212 11.3275 1.37161 11.1658C1.5311 11.004 1.61084 10.81 1.61084 10.5836V7.77763L2.72727 7.07412C2.78044 7.04178 2.82828 7.04178 2.87081 7.07412C2.91866 7.10108 2.93727 7.14421 2.92663 7.2035L2.55981 10.2035C2.4907 10.7803 2.56512 11.2601 2.78309 11.6429C3.00638 12.0202 3.44232 12.2871 4.09091 12.4434L7.41627 13.2359L6.51515 16.3005C6.45135 16.5108 6.46199 16.7129 6.54705 16.907C6.63743 17.1011 6.80755 17.2332 7.05742 17.3032ZM1.17225 20.2305C1.31579 20.3275 1.4992 20.3652 1.72249 20.3437C1.94577 20.3221 2.12919 20.2035 2.27273 19.9879L4.63317 16.4218C4.7395 16.2547 4.80595 16.0876 4.83254 15.9205L5.16746 13.535L3.91547 13.2359C3.81978 13.2143 3.7294 13.19 3.64434 13.1631C3.55928 13.1307 3.47687 13.1011 3.39713 13.0741L3.22966 15.6375L0.948963 19.0984C0.821371 19.2871 0.778841 19.4919 0.821371 19.7129C0.863902 19.934 0.980861 20.1065 1.17225 20.2305ZM4.34609 21.5H6.91387C7.04147 21.5 7.14779 21.4542 7.23285 21.3625C7.32323 21.2763 7.36842 21.1685 7.36842 21.0391V19.4784H9.48963C9.61191 19.4784 9.71558 19.4353 9.80064 19.3491C9.8857 19.2628 9.92823 19.155 9.92823 19.0256V17.4569H12.0654C12.1877 17.4569 12.2913 17.4137 12.3764 17.3275C12.4615 17.2412 12.504 17.1361 12.504 17.0121V15.4434H14.5455C14.673 15.4434 14.7794 15.4003 14.8644 15.314C14.9548 15.2224 15 15.1146 15 14.9906C15 14.8666 14.9548 14.7615 14.8644 14.6752C14.7794 14.5836 14.673 14.5377 14.5455 14.5377H12.0654C11.9378 14.5377 11.8315 14.5836 11.7464 14.6752C11.6667 14.7615 11.6268 14.8666 11.6268 14.9906V16.5593H9.48963C9.36204 16.5593 9.25572 16.6051 9.17065 16.6968C9.09091 16.783 9.05104 16.8881 9.05104 17.0121V18.5809H6.91387C6.79692 18.5809 6.69591 18.624 6.61084 18.7102C6.52578 18.7965 6.48325 18.9016 6.48325 19.0256V20.6024H4.34609C4.2185 20.6024 4.11217 20.6456 4.02711 20.7318C3.94737 20.8181 3.9075 20.9205 3.9075 21.0391C3.9075 21.1685 3.94737 21.2763 4.02711 21.3625C4.11217 21.4542 4.2185 21.5 4.34609 21.5Z"
		fill="currentColor"
	/>
</svg>
