<svg color="rgb(var(--foreground, 0, 0, 0))" viewBox="0 0 17 20" fill="none">
	<path
		d="M12.9001 7.95314C13.2177 7.95314 13.504 7.87665 13.7591 7.72365C14.0194 7.56538 14.225 7.35436 14.376 7.09057C14.5322 6.82679 14.6103 6.53663 14.6103 6.22009C14.6103 5.89828 14.5322 5.60812 14.376 5.34961C14.225 5.08583 14.0194 4.87744 13.7591 4.72444C13.504 4.56618 13.2177 4.48704 12.9001 4.48704C12.5878 4.48704 12.3015 4.56618 12.0412 4.72444C11.7861 4.87744 11.5804 5.08583 11.4243 5.34961C11.2733 5.60812 11.1978 5.89828 11.1978 6.22009C11.1978 6.53663 11.2733 6.82679 11.4243 7.09057C11.5804 7.35436 11.7861 7.56538 12.0412 7.72365C12.3015 7.87665 12.5878 7.95314 12.9001 7.95314ZM8.50379 0.498648C8.13938 0.124077 7.73072 -0.0394685 7.27781 0.0080124C6.8301 0.0502176 6.32252 0.358843 5.75508 0.933889C5.54164 1.15019 5.35943 1.42716 5.20846 1.7648C5.0627 2.10245 4.93776 2.45591 4.83364 2.82521C4.73473 3.19451 4.65143 3.53742 4.58376 3.85396L3.42806 5.03307C3.25106 5.21772 3.17297 5.42347 3.19379 5.65032C3.21982 5.8719 3.31093 6.06182 3.4671 6.22009L5.77069 8.54665C5.93208 8.69437 6.11688 8.76823 6.32512 8.76823H7.88689C7.91292 8.76823 7.93114 8.78406 7.94155 8.81571C7.95197 8.84737 7.94416 8.86847 7.91813 8.87902L6.29388 9.70202C5.9503 9.87612 5.67439 10.1109 5.46615 10.4063C5.26312 10.6965 5.14079 11.0157 5.09914 11.3639C5.05749 11.712 5.10955 12.0576 5.25531 12.4005C5.40108 12.7382 5.64836 13.0389 5.99715 13.3027L8.88642 15.4393L7.20753 18.8421C7.10862 19.0373 7.093 19.2404 7.16068 19.4514C7.22835 19.6677 7.3585 19.8234 7.55112 19.9183C7.72811 20.008 7.92073 20.0238 8.12897 19.9658C8.34241 19.9078 8.50379 19.7732 8.61311 19.5622L10.5497 15.6371C10.6278 15.4736 10.6642 15.2995 10.659 15.1148C10.6538 14.9249 10.5627 14.7403 10.3857 14.5609L8.05869 12.2106L11.0885 10.6833C11.2395 10.5989 11.3774 10.62 11.5024 10.7466L15.6644 14.9566C15.8206 15.1148 16.008 15.1913 16.2267 15.1861C16.4505 15.1808 16.6327 15.1043 16.7733 14.9566C16.9243 14.7983 16.9997 14.611 16.9997 14.3947C17.005 14.1731 16.9295 13.9832 16.7733 13.8249L10.6356 7.60495C10.5002 7.46778 10.3571 7.36227 10.2061 7.28841C10.0551 7.20928 9.88334 7.16971 9.69072 7.16971H6.65309L4.59938 5.08846L5.20846 4.47121C5.51561 4.40791 5.85139 4.32613 6.2158 4.2259C6.58541 4.12038 6.93422 3.99113 7.26219 3.83814C7.59536 3.68514 7.86607 3.50049 8.0743 3.28419C8.64695 2.70915 8.9567 2.19477 9.00355 1.74106C9.0504 1.28208 8.88381 0.867944 8.50379 0.498648ZM7.90251 1.12381C8.10554 1.32429 8.17321 1.54059 8.10554 1.77272C8.03786 1.99957 7.82442 2.29765 7.46522 2.66694C7.31425 2.81466 7.12943 2.94127 6.91078 3.04679C6.69213 3.14703 6.46307 3.23407 6.2236 3.30793C5.98934 3.37652 5.76549 3.44246 5.55205 3.50577C5.60931 3.28419 5.67178 3.05206 5.73946 2.80938C5.81234 2.5667 5.90084 2.33721 6.00496 2.12091C6.10908 1.89933 6.23402 1.71205 6.37978 1.55905C6.73898 1.19503 7.03053 0.98137 7.25438 0.918062C7.47823 0.849479 7.69428 0.918062 7.90251 1.12381ZM0.788688 16.7925H4.74774C4.91433 16.7925 5.0627 16.7397 5.19284 16.6342C5.32299 16.5287 5.4245 16.4021 5.49739 16.2544L6.34854 14.5372L5.53643 13.9278C5.26052 13.7221 5.02365 13.482 4.82583 13.2077L4.16989 15.1861H0.788688C0.575247 15.1861 0.390439 15.2652 0.234264 15.4235C0.0780879 15.5817 0 15.769 0 15.9853C0 16.2122 0.0780879 16.4021 0.234264 16.5551C0.390439 16.7134 0.575247 16.7925 0.788688 16.7925Z"
		fill="currentColor"
	/>
</svg>
