<svg viewBox="0 0 20 16" fill="none" color="rgb(var(--foreground, 0, 0, 0))">
	<path
		d="M13.3123 3.5578C13.633 3.5578 13.9222 3.4791 14.1798 3.3217C14.4427 3.15887 14.6504 2.94448 14.8028 2.67852C14.9606 2.40714 15.0394 2.10591 15.0394 1.77483C15.0394 1.44917 14.9606 1.15065 14.8028 0.879273C14.6504 0.607892 14.4427 0.393502 14.1798 0.236101C13.9222 0.0787003 13.633 0 13.3123 0C12.9968 0 12.7077 0.0787003 12.4448 0.236101C12.1819 0.393502 11.9742 0.607892 11.8218 0.879273C11.6693 1.15065 11.5931 1.44917 11.5931 1.77483C11.5931 2.10591 11.6693 2.40714 11.8218 2.67852C11.9742 2.94448 12.1819 3.15887 12.4448 3.3217C12.7077 3.4791 12.9968 3.5578 13.3123 3.5578ZM7.77603 15.949C7.95479 16.0142 8.14143 16.0169 8.33596 15.9572C8.53575 15.8975 8.69085 15.7482 8.80126 15.5094L10.8202 11.341C10.8991 11.1836 10.928 11.018 10.9069 10.8444C10.8859 10.6707 10.807 10.516 10.6703 10.3803L8.23344 7.85646L11.317 6.26889C11.4695 6.18205 11.6088 6.20647 11.735 6.34216L13.5726 8.22283C13.725 8.38566 13.9117 8.46707 14.1325 8.46707H17.776C17.9968 8.46707 18.1861 8.38566 18.3438 8.22283C18.5016 8.06 18.5804 7.86189 18.5804 7.6285C18.5804 7.40054 18.5016 7.20515 18.3438 7.04232C18.1861 6.87949 17.9968 6.79808 17.776 6.79808H14.4637L11.0647 3.28099C10.6493 2.84678 10.1393 2.62968 9.5347 2.62968H2.82334C2.60252 2.62968 2.41325 2.71109 2.25552 2.87392C2.09779 3.03675 2.01893 3.23214 2.01893 3.4601C2.01893 3.69349 2.09779 3.8916 2.25552 4.05442C2.41325 4.21725 2.60252 4.29867 2.82334 4.29867H7.88644C7.93376 4.29867 7.96267 4.3258 7.97319 4.38008C7.9837 4.42893 7.96793 4.46149 7.92587 4.47778L6.41956 5.25121C6.01998 5.45746 5.7203 5.7397 5.52051 6.09792C5.32072 6.45071 5.22082 6.8225 5.22082 7.21329C5.22082 7.5498 5.29443 7.87817 5.44164 8.1984C5.58885 8.5132 5.81231 8.78187 6.11199 9.0044L9.0694 11.227L7.35805 14.7685C7.22135 15.0453 7.20558 15.2896 7.31073 15.5013C7.42114 15.7184 7.57624 15.8676 7.77603 15.949ZM0.804416 12.6355H4.84227C5.17876 12.6355 5.42324 12.4835 5.57571 12.1796L6.49054 10.2663L5.67035 9.63943C5.52314 9.53088 5.38643 9.41147 5.26025 9.28121C5.13933 9.15095 5.03154 9.01526 4.93691 8.87414L4.27445 10.9665H0.804416C0.583596 10.9665 0.394322 11.0479 0.236593 11.2107C0.0788643 11.3736 0 11.5689 0 11.7969C0 12.0249 0.0788643 12.223 0.236593 12.3912C0.394322 12.5541 0.583596 12.6355 0.804416 12.6355ZM18.1546 0.415212C17.7971 0.415212 17.479 0.496626 17.2003 0.659454C16.9217 0.822283 16.7035 1.04753 16.5457 1.33519C16.388 1.61743 16.3091 1.94308 16.3091 2.31216C16.3091 2.70838 16.3775 3.11002 16.5142 3.51709C16.6562 3.91873 16.8218 4.29052 17.011 4.63246C17.2056 4.96898 17.3817 5.2485 17.5394 5.47103C17.6972 5.69356 17.7944 5.82654 17.8312 5.86996H18.47C18.5068 5.82654 18.6041 5.69356 18.7618 5.47103C18.9248 5.2485 19.1009 4.96898 19.2902 4.63246C19.4795 4.29052 19.6451 3.91873 19.7871 3.51709C19.929 3.11002 20 2.70838 20 2.31216C20 1.94308 19.9185 1.61743 19.7555 1.33519C19.5978 1.04753 19.3796 0.822283 19.1009 0.659454C18.8276 0.496626 18.5121 0.415212 18.1546 0.415212ZM18.1546 1.31891C18.4385 1.31891 18.6698 1.41389 18.8486 1.60386C19.0326 1.7884 19.1246 2.0245 19.1246 2.31216C19.1246 2.57269 19.0694 2.85764 18.959 3.16701C18.8538 3.47096 18.725 3.76676 18.5726 4.05442C18.4201 4.34209 18.2808 4.59176 18.1546 4.80343C18.0231 4.59176 17.8812 4.34209 17.7287 4.05442C17.5815 3.76676 17.4527 3.47096 17.3423 3.16701C17.2371 2.85764 17.1845 2.57269 17.1845 2.31216C17.1845 2.0245 17.2739 1.7884 17.4527 1.60386C17.6367 1.41389 17.8707 1.31891 18.1546 1.31891ZM17.7129 7.6285H18.5804V5.5443H17.7129V7.6285Z"
		fill="currentColor"
	/>
</svg>
