<svg viewBox="0 0 15 20" fill="none" color="rgb(var(--foreground, 0, 0, 0))">
	<path
		d="M8.89561 3.80929C9.19818 3.80929 9.47302 3.73608 9.72012 3.58968C9.97227 3.43822 10.1715 3.23881 10.3177 2.99143C10.469 2.73901 10.5446 2.45629 10.5446 2.14328C10.5446 1.84037 10.469 1.56523 10.3177 1.31786C10.1715 1.07048 9.97227 0.873588 9.72012 0.727182C9.47302 0.575727 9.19818 0.5 8.89561 0.5C8.588 0.5 8.30812 0.575727 8.05598 0.727182C7.80888 0.873588 7.60968 1.07048 7.4584 1.31786C7.31215 1.56523 7.23903 1.84037 7.23903 2.14328C7.23903 2.45629 7.31215 2.73901 7.4584 2.99143C7.60968 3.23881 7.80888 3.43822 8.05598 3.58968C8.30812 3.73608 8.588 3.80929 8.89561 3.80929ZM1.53555 12.9269H6.52042C6.7524 12.9269 6.93646 12.8562 7.07262 12.7148C7.20878 12.5684 7.28442 12.3993 7.29955 12.2075C7.31468 12.0106 7.25668 11.8339 7.12557 11.6774L5.56732 9.76146L10.0303 9.46612H14.2209C14.4327 9.46612 14.6142 9.39292 14.7655 9.24651C14.9218 9.09506 15 8.91331 15 8.70128C15 8.48924 14.9218 8.30749 14.7655 8.15604C14.6142 8.00458 14.4327 7.92886 14.2209 7.92886H6.46747L8.29803 6.08868C8.39385 5.99781 8.49471 5.95994 8.60061 5.97509L14.0923 6.68693C14.3142 6.71217 14.5108 6.65159 14.6823 6.50518C14.8588 6.35878 14.9471 6.16693 14.9471 5.92965C14.9471 5.73781 14.884 5.57121 14.7579 5.42985C14.6319 5.28345 14.473 5.19762 14.2814 5.17238L2.78366 3.71841C2.54665 3.68812 2.33485 3.7588 2.14826 3.93045L0.226929 5.85393C0.075643 6.00538 0 6.1846 0 6.39159C0 6.59353 0.075643 6.77275 0.226929 6.92925C0.363086 7.07061 0.539586 7.14634 0.75643 7.15644C0.973273 7.16149 1.15734 7.08576 1.30862 6.92925L2.9652 5.2784L4.75794 5.50558C4.84367 5.51568 4.89914 5.55607 4.92436 5.62674C4.94957 5.69742 4.93192 5.76305 4.87141 5.82364L3.177 7.49721C2.84922 7.82536 2.68028 8.22167 2.6702 8.68613C2.66011 9.14554 2.82905 9.54942 3.177 9.89777L4.65961 11.3972H1.53555C1.32375 11.3972 1.14221 11.4729 0.990923 11.6244C0.84468 11.7708 0.771558 11.95 0.771558 12.162C0.771558 12.369 0.84468 12.5482 0.990923 12.6997C1.14221 12.8511 1.32375 12.9269 1.53555 12.9269ZM8.97882 19.5C9.09481 19.5 9.19314 19.4596 9.27383 19.3788C9.35451 19.2981 9.39486 19.1996 9.39486 19.0835V11.1927C9.39486 11.0766 9.35451 10.9781 9.27383 10.8974C9.19314 10.8166 9.09481 10.7762 8.97882 10.7762C8.85779 10.7762 8.75694 10.8166 8.67625 10.8974C8.59556 10.9781 8.55522 11.0766 8.55522 11.1927V19.0835C8.55522 19.1996 8.59556 19.2981 8.67625 19.3788C8.75694 19.4596 8.85779 19.5 8.97882 19.5Z"
		fill="currentColor"
	/>
</svg>
