<svg viewBox="0 0 19 18" fill="none" color="rgb(var(--foreground, 0, 0, 0))">
	<path
		d="M14.3961 8.72323C14.7125 8.72323 14.9999 8.64806 15.2583 8.49773C15.522 8.34221 15.7303 8.13744 15.8832 7.88342C16.0414 7.62422 16.1205 7.3391 16.1205 7.02806C16.1205 6.71184 16.0414 6.42672 15.8832 6.1727C15.7303 5.9135 15.522 5.70874 15.2583 5.5584C14.9999 5.40288 14.7125 5.32512 14.3961 5.32512C14.0745 5.32512 13.7818 5.40288 13.5181 5.5584C13.2597 5.70874 13.0514 5.9135 12.8932 6.1727C12.7403 6.42672 12.6639 6.71184 12.6639 7.02806C12.6639 7.3391 12.7403 7.62422 12.8932 7.88342C13.0514 8.13744 13.2597 8.34221 13.5181 8.49773C13.7818 8.64806 14.0745 8.72323 14.3961 8.72323ZM8.89872 14.8196H12.0152L15.2504 11.6392C15.3295 11.5615 15.4244 11.5226 15.5352 11.5226C15.6512 11.5226 15.7461 11.5615 15.8199 11.6392L17.1488 12.9378L15.7725 14.2986C15.5985 14.4749 15.5194 14.6589 15.5352 14.8507C15.5563 15.0477 15.638 15.2136 15.7804 15.3484C15.9228 15.4884 16.0915 15.5687 16.2866 15.5894C16.487 15.6102 16.6742 15.5324 16.8482 15.3562L18.7704 13.4744C18.9286 13.3188 19.005 13.14 18.9997 12.9378C18.9997 12.7305 18.9233 12.5516 18.7704 12.4013L16.5318 10.2084C16.3156 9.9959 16.0678 9.83261 15.7883 9.71856C15.5141 9.59933 15.2241 9.53971 14.9182 9.53971H9.09646V11.056H11.0344C11.103 11.056 11.1504 11.0845 11.1768 11.1416C11.2032 11.1986 11.1926 11.2504 11.1451 11.2971L8.89872 13.4977V14.8196ZM1.09949 14.8196H9.3654V0.558432C9.3654 0.366624 9.28894 0.21888 9.13601 0.1152C8.98309 0.01152 8.80907 -0.022176 8.61396 0.014112C8.42412 0.045216 8.26592 0.172224 8.13936 0.395136L0.561608 13.801C0.408682 14.0757 0.392862 14.3142 0.514148 14.5164C0.635434 14.7185 0.830549 14.8196 1.09949 14.8196ZM1.66901 13.9565C1.62155 13.9565 1.58991 13.9409 1.57409 13.9098C1.55827 13.8735 1.55827 13.8424 1.57409 13.8165L8.29756 1.90368C8.32392 1.85702 8.36084 1.83888 8.4083 1.84925C8.46103 1.85443 8.4874 1.88294 8.4874 1.93478V13.9565H1.66901ZM0.442958 18H1.24187C1.77447 18 2.21743 17.9352 2.57074 17.8056C2.92933 17.676 3.24573 17.5257 3.51994 17.3546C3.79415 17.1887 4.06836 17.041 4.34257 16.9114C4.61679 16.7818 4.93846 16.717 5.30759 16.717C5.67145 16.717 5.99048 16.7818 6.2647 16.9114C6.53891 17.041 6.81312 17.1887 7.08733 17.3546C7.36155 17.5257 7.67531 17.676 8.02862 17.8056C8.3872 17.9352 8.8328 18 9.3654 18C9.89273 18 10.3331 17.9352 10.6864 17.8056C11.045 17.676 11.3614 17.5257 11.6356 17.3546C11.9098 17.1887 12.184 17.041 12.4582 16.9114C12.7324 16.7818 13.0541 16.717 13.4232 16.717C13.7871 16.717 14.1061 16.7818 14.3803 16.9114C14.6545 17.041 14.9287 17.1887 15.203 17.3546C15.4824 17.5257 15.7988 17.676 16.1522 17.8056C16.5107 17.9352 16.9537 18 17.481 18H18.2878C18.4091 18 18.512 17.9585 18.5963 17.8756C18.6807 17.7926 18.7229 17.6916 18.7229 17.5723C18.7229 17.4479 18.6807 17.3442 18.5963 17.2613C18.512 17.1783 18.4091 17.1369 18.2878 17.1369H17.481C17.1014 17.1369 16.7691 17.0721 16.4844 16.9425C16.1996 16.8129 15.9175 16.6625 15.638 16.4915C15.3638 16.3256 15.0527 16.1778 14.7046 16.0482C14.3566 15.9186 13.9295 15.8538 13.4232 15.8538C12.917 15.8538 12.4898 15.9186 12.1418 16.0482C11.7938 16.1778 11.48 16.3256 11.2005 16.4915C10.9263 16.6625 10.6468 16.8129 10.3621 16.9425C10.0773 17.0721 9.74508 17.1369 9.3654 17.1369C8.98573 17.1369 8.65351 17.0721 8.36875 16.9425C8.08399 16.8129 7.80187 16.6625 7.52238 16.4915C7.24817 16.3256 6.93704 16.1778 6.589 16.0482C6.24097 15.9186 5.81383 15.8538 5.30759 15.8538C4.79608 15.8538 4.3663 15.9186 4.01827 16.0482C3.67023 16.1778 3.35646 16.3256 3.07698 16.4915C2.80277 16.6625 2.52328 16.8129 2.23852 16.9425C1.95376 17.0721 1.62155 17.1369 1.24187 17.1369H0.442958C0.321672 17.1369 0.216206 17.1783 0.126559 17.2613C0.0421865 17.3442 0 17.4479 0 17.5723C0 17.6916 0.0421865 17.7926 0.126559 17.8756C0.216206 17.9585 0.321672 18 0.442958 18Z"
		fill="currentColor"
	/>
</svg>
