<svg color="rgb(var(--foreground, 0, 0, 0))" viewBox="0 0 13 20" fill="none">
	<path
		d="M6.28948 4.38779C6.60395 4.38779 6.8896 4.31202 7.14642 4.16048C7.40848 4.00371 7.61551 3.79469 7.7675 3.53342C7.92474 3.27214 8.00336 2.98212 8.00336 2.66337C8.00336 2.35506 7.92474 2.07288 7.7675 1.81683C7.61551 1.55556 7.40848 1.34915 7.14642 1.19761C6.8896 1.04084 6.60395 0.962459 6.28948 0.962459C5.96976 0.962459 5.67887 1.04084 5.41681 1.19761C5.15999 1.34915 4.95296 1.55556 4.79573 1.81683C4.64373 2.07288 4.56773 2.35506 4.56773 2.66337C4.56773 2.98212 4.64373 3.27214 4.79573 3.53342C4.95296 3.79469 5.15999 4.00371 5.41681 4.16048C5.67887 4.31202 5.96976 4.38779 6.28948 4.38779ZM0.801908 19.4059C0.974869 19.4948 1.16879 19.5183 1.38368 19.4765C1.59858 19.4347 1.76629 19.3067 1.88684 19.0924L3.86803 15.5338L5.03944 12.908C5.05517 12.8819 5.07613 12.8636 5.10234 12.8531C5.13379 12.8427 5.16261 12.8505 5.18882 12.8766L8.33356 15.1498V18.7005C8.33356 18.9252 8.40955 19.1133 8.56155 19.2649C8.71879 19.4216 8.90747 19.5 9.1276 19.5C9.35298 19.5 9.54166 19.4216 9.69366 19.2649C9.84565 19.1133 9.92165 18.9252 9.92165 18.7005V14.797C9.92165 14.6873 9.90331 14.5776 9.86662 14.4678C9.82993 14.3529 9.76703 14.2536 9.67793 14.17L6.39954 11.0817L6.70615 8.59695C6.7114 8.54992 6.73498 8.5264 6.77691 8.5264C6.82408 8.52118 6.85553 8.53685 6.87125 8.57343L7.60241 10.3057C7.73868 10.6297 7.98239 10.7917 8.33356 10.7917H11.7063C11.9264 10.7917 12.1125 10.7159 12.2645 10.5644C12.4217 10.4076 12.5003 10.2195 12.5003 10C12.5003 9.78053 12.4217 9.59502 12.2645 9.44348C12.1125 9.28672 11.9264 9.20833 11.7063 9.20833H8.85244L7.72033 6.55115C7.57358 6.20627 7.37179 5.92932 7.11497 5.7203C6.85815 5.51128 6.47816 5.33622 5.975 5.19513L5.51902 5.06972C4.97393 4.91818 4.49436 4.8398 4.0803 4.83457C3.66624 4.82412 3.23908 4.91295 2.79882 5.10107L1.58809 5.6184V2.67904C1.58809 2.4648 1.50947 2.2819 1.35224 2.13036C1.195 1.9736 1.00894 1.89521 0.794046 1.89521C0.573915 1.89521 0.38523 1.9736 0.227994 2.13036C0.0759978 2.2819 0 2.4648 0 2.67904V6.91955C0 7.10767 0.0550329 7.26444 0.165099 7.38985C0.280406 7.51004 0.421919 7.58842 0.589638 7.625C0.762599 7.66158 0.93556 7.64068 1.10852 7.56229L3.35701 6.58251C3.40418 6.56683 3.44611 6.57206 3.4828 6.59818C3.52473 6.61909 3.54307 6.65828 3.53783 6.71576L2.40573 14.8989L0.487434 18.3321C0.387851 18.5202 0.366886 18.7214 0.42454 18.9356C0.482193 19.1499 0.607983 19.3067 0.801908 19.4059ZM11.1717 8.00124H12.0443V0.931106C12.0443 0.810919 11.9998 0.709021 11.9107 0.625413C11.8268 0.541804 11.7246 0.5 11.6041 0.5C11.4835 0.5 11.3813 0.541804 11.2975 0.625413C11.2136 0.709021 11.1717 0.810919 11.1717 0.931106V8.00124ZM10.5191 8.45586H12.689C12.8201 8.45586 12.9092 8.41144 12.9563 8.32261C13.0087 8.22855 13.014 8.12142 12.972 8.00124C12.8725 7.70861 12.6969 7.47085 12.4453 7.28795C12.199 7.09983 11.9186 7.00578 11.6041 7.00578C11.2896 7.00578 11.0066 7.09983 10.755 7.28795C10.5087 7.47085 10.3357 7.70861 10.2361 8.00124C10.1942 8.12142 10.1968 8.22855 10.244 8.32261C10.2964 8.41144 10.3881 8.45586 10.5191 8.45586Z"
		fill="currentColor"
	/>
</svg>
