<svg color="rgb(var(--foreground, 0, 0, 0))" viewBox="0 0 19 20" fill="none">
	<path
		d="M12.0789 5.08207C12.3995 5.08207 12.6907 5.00591 12.9525 4.85359C13.2197 4.69602 13.4334 4.48855 13.5937 4.23118C13.7539 3.96855 13.8341 3.67967 13.8341 3.36452C13.8341 3.04938 13.7539 2.76312 13.5937 2.50575C13.4334 2.24313 13.2197 2.03303 12.9525 1.87546C12.6907 1.71789 12.3995 1.6391 12.0789 1.6391C11.7584 1.6391 11.4645 1.71789 11.1974 1.87546C10.9356 2.03303 10.7245 2.24313 10.5642 2.50575C10.4093 2.76312 10.3318 3.04938 10.3318 3.36452C10.3318 3.67967 10.4093 3.96855 10.5642 4.23118C10.7245 4.48855 10.9356 4.69602 11.1974 4.85359C11.4645 5.00591 11.7584 5.08207 12.0789 5.08207ZM6.63718 15.2692C6.81884 15.39 7.02187 15.4346 7.24627 15.4031C7.47068 15.3663 7.64966 15.2587 7.78324 15.0801L9.67463 12.4801L11.4618 12.7795L9.69868 15.3637C9.57579 15.5528 9.53304 15.7576 9.57045 15.9782C9.61319 16.2041 9.7334 16.3722 9.93109 16.4825C10.1608 16.619 10.3799 16.6584 10.5883 16.6007C10.7966 16.5429 10.9569 16.43 11.0691 16.2619L13.4574 12.7322C13.5589 12.5747 13.607 12.4013 13.6017 12.2122C13.6017 12.0232 13.5429 11.8525 13.4254 11.7001C13.3132 11.5426 13.1422 11.4349 12.9124 11.3771L9.63456 10.605C9.47427 10.563 9.36741 10.4842 9.31399 10.3686C9.2659 10.2478 9.28727 10.1192 9.3781 9.98259L10.7646 7.9499C10.8768 7.78182 11.0184 7.75556 11.1893 7.87111L13.201 9.22624C13.3025 9.28927 13.4093 9.33129 13.5215 9.3523L18.0256 10.1638C18.2286 10.1953 18.429 10.1533 18.6267 10.0377C18.8297 9.92219 18.9499 9.74623 18.9873 9.50987C19.0247 9.29452 18.9793 9.09493 18.8511 8.9111C18.7229 8.72726 18.5492 8.61696 18.3302 8.58019L13.9944 7.80021L7.31039 3.30937L9.22583 1.96213C9.41283 1.83081 9.52503 1.65748 9.56243 1.44213C9.59983 1.22153 9.55442 1.02194 9.42619 0.843357C9.28727 0.659522 9.10561 0.54922 8.88121 0.512453C8.66215 0.475686 8.46179 0.520332 8.28013 0.64639L5.41098 2.66333C5.1759 2.8314 5.05568 3.05463 5.05034 3.33301C5.05034 3.61139 5.17322 3.82937 5.419 3.98694L7.86338 5.63358C8.02901 5.74913 8.05306 5.88569 7.93551 6.04327L5.89986 8.95837C5.68614 9.26301 5.55791 9.58341 5.51517 9.91956C5.47243 10.2557 5.50983 10.5761 5.62737 10.8808C5.74492 11.1854 5.93993 11.448 6.21242 11.6686C6.48491 11.884 6.82953 12.0232 7.24627 12.0862L7.86338 12.1886L6.44484 14.1346C6.31126 14.3185 6.26318 14.5207 6.30058 14.7413C6.33798 14.9619 6.45018 15.1379 6.63718 15.2692ZM0.16157 12.6928C0.0653973 12.7769 0.0119681 12.8846 0.0012823 13.0159C-0.00940353 13.1472 0.0466971 13.268 0.169584 13.3783C1.11528 14.1977 2.22928 14.975 3.51158 15.7104C4.79388 16.451 6.19639 17.1049 7.71912 17.6722C9.24185 18.2394 10.8394 18.6859 12.5117 19.0115C14.1894 19.3372 15.8884 19.5 17.6089 19.5C17.7317 19.5 17.8359 19.458 17.9214 19.3739C18.0069 19.2899 18.0497 19.1875 18.0497 19.0667C18.0497 18.9406 18.0069 18.8356 17.9214 18.7515C17.8359 18.6675 17.7317 18.6255 17.6089 18.6255C15.9365 18.6255 14.2909 18.4679 12.672 18.1528C11.0584 17.8429 9.51434 17.4122 8.0397 16.8607C6.5704 16.3144 5.21597 15.6867 3.97641 14.9777C2.7422 14.2633 1.66827 13.507 0.754633 12.7086C0.653118 12.6193 0.54626 12.5773 0.434058 12.5825C0.3272 12.5878 0.236371 12.6246 0.16157 12.6928ZM0.658461 16.0807C0.979036 16.0807 1.35838 16.0176 1.7965 15.8916C2.23462 15.7708 2.6674 15.5791 3.09483 15.3164L1.8526 14.111C1.69766 14.2948 1.55607 14.4498 1.42784 14.5758C1.29961 14.6967 1.16069 14.8096 1.01109 14.9146C0.866835 15.0144 0.690518 15.1195 0.482145 15.2298C0.359258 15.2981 0.273771 15.3821 0.225685 15.4819C0.182941 15.5764 0.177598 15.6762 0.209656 15.7813C0.231028 15.8601 0.279114 15.9283 0.353915 15.9861C0.434058 16.0492 0.535574 16.0807 0.658461 16.0807Z"
		fill="currentColor"
	/>
</svg>
