<svg color="rgb(var(--foreground, 0, 0, 0))" viewBox="0 0 13 18" fill="none">
	<path
		d="M5.9561 3.31295C6.26203 3.31295 6.53991 3.23966 6.78974 3.09309C7.04468 2.94147 7.24608 2.74184 7.39394 2.49419C7.54691 2.24148 7.62339 1.96351 7.62339 1.66026C7.62339 1.35702 7.54691 1.08157 7.39394 0.833922C7.24608 0.581219 7.04468 0.379056 6.78974 0.227433C6.53991 0.0758111 6.26203 0 5.9561 0C5.65018 0 5.36975 0.0758111 5.11481 0.227433C4.85988 0.379056 4.65593 0.581219 4.50296 0.833922C4.3551 1.08157 4.28117 1.35702 4.28117 1.66026C4.28117 1.96351 4.3551 2.24148 4.50296 2.49419C4.65593 2.74184 4.85988 2.94147 5.11481 3.09309C5.36975 3.23966 5.65018 3.31295 5.9561 3.31295ZM0.793637 5.54179H3.27927C3.33535 5.54179 3.38379 5.56201 3.42458 5.60244C3.46537 5.64288 3.48322 5.69089 3.47812 5.74648L3.24103 8.94571C3.20024 9.52188 3.32771 9.98433 3.62343 10.3331C3.92426 10.6818 4.31941 10.9042 4.80889 11.0002L8.00579 11.6673L8.69412 15.0637C8.74001 15.2962 8.85983 15.4655 9.05358 15.5716C9.24733 15.6777 9.43344 15.7131 9.61189 15.6777C9.82604 15.6373 9.99175 15.5261 10.109 15.3442C10.2314 15.1622 10.2722 14.9651 10.2314 14.7528L9.45128 10.8486C9.42069 10.6969 9.34676 10.5681 9.22949 10.4619C9.11732 10.3558 8.9873 10.28 8.83944 10.2345L6.3691 9.46881L6.58325 6.51218C6.59344 6.40099 6.64188 6.3277 6.72856 6.29232C6.82034 6.25695 6.90957 6.27463 6.99624 6.34539L8.1664 7.30819C8.31936 7.42949 8.48762 7.49014 8.67118 7.49014H12.2199C12.4391 7.49014 12.6227 7.41433 12.7706 7.26271C12.9235 7.11108 13 6.92661 13 6.70928C13 6.49196 12.9235 6.31001 12.7706 6.16344C12.6227 6.01182 12.4391 5.93601 12.2199 5.93601H8.95416L7.24863 4.52592C7.03448 4.34903 6.81779 4.2151 6.59854 4.12413C6.3844 4.0281 6.12436 3.98008 5.81844 3.98008H1.85672L2.73625 1.0841C2.79744 0.871828 2.77449 0.672192 2.66742 0.485191C2.56545 0.293136 2.41248 0.166784 2.20853 0.106136C1.99949 0.0454867 1.79554 0.06823 1.59669 0.174366C1.40294 0.275447 1.27547 0.429596 1.21428 0.636813L0.0441236 4.53351C-0.0323573 4.79126 -0.00941304 5.02375 0.112957 5.23097C0.240425 5.43819 0.467318 5.54179 0.793637 5.54179ZM4.12056 17.9672C4.30411 18.0228 4.49532 18.0077 4.69417 17.9218C4.89812 17.8358 5.03578 17.6792 5.10716 17.4517L6.27732 13.5778C6.29262 13.5272 6.30282 13.4742 6.30791 13.4186C6.31301 13.3579 6.31556 13.2973 6.31556 13.2366V12.0616L4.66357 11.7128C4.64318 11.7128 4.62533 11.7128 4.61004 11.7128C4.59474 11.7078 4.57944 11.7027 4.56415 11.6977L4.73241 13.2366L3.59284 17.0044C3.53166 17.2066 3.55205 17.4012 3.65403 17.5882C3.7611 17.7802 3.91661 17.9066 4.12056 17.9672Z"
		fill="currentColor"
	/>
</svg>
