<svg color="rgb(var(--foreground, 0, 0, 0))" viewBox="0 0 17 16" fill="none">
	<path
		d="M8.53896 4.09916C8.85645 4.09916 9.14485 4.01954 9.40414 3.86031C9.66872 3.69559 9.87774 3.47596 10.0312 3.20143C10.1899 2.92689 10.2693 2.62216 10.2693 2.28723C10.2693 1.95778 10.1899 1.65854 10.0312 1.38949C9.87774 1.12045 9.66872 0.906312 9.40414 0.747082C9.14485 0.582361 8.85645 0.5 8.53896 0.5C8.21617 0.5 7.92248 0.582361 7.6579 0.747082C7.39861 0.906312 7.18959 1.12045 7.03084 1.38949C6.87738 1.65854 6.80065 1.95778 6.80065 2.28723C6.80065 2.62216 6.87738 2.92689 7.03084 3.20143C7.18959 3.47596 7.39861 3.69559 7.6579 3.86031C7.92248 4.01954 8.21617 4.09916 8.53896 4.09916ZM1.15713 11.7175L5.14173 12.0634C5.37985 12.0854 5.57035 12.1074 5.71322 12.1293C5.8561 12.1513 5.99633 12.1815 6.13391 12.2199C6.27678 12.2583 6.46199 12.3105 6.68953 12.3764L11.5472 13.793L15.9128 15.4484C16.1033 15.5198 16.3044 15.5171 16.5161 15.4402C16.733 15.3633 16.8812 15.1986 16.9606 14.946C17.0241 14.7264 17.0109 14.5123 16.9209 14.3036C16.8362 14.095 16.6881 13.9522 16.4764 13.8754L12.1187 12.2281C12.0817 12.2172 12.0341 12.2007 11.9759 12.1787C11.9177 12.1513 11.8753 12.1321 11.8489 12.1211L8.45958 10.8527C8.68183 10.4025 8.91995 9.83695 9.17395 9.1561C9.43324 8.46976 9.60257 7.73401 9.68195 6.94883C9.70311 6.76764 9.79836 6.67704 9.9677 6.67704H15.7938C16.0213 6.67704 16.2118 6.59468 16.3653 6.42996C16.5187 6.26524 16.5955 6.06758 16.5955 5.83697C16.5955 5.60087 16.5187 5.4032 16.3653 5.24397C16.2118 5.07925 16.0213 4.99689 15.7938 4.99689H9.40414C9.13426 4.99689 8.91466 4.99414 8.74533 4.98865C8.576 4.98316 8.41725 4.97218 8.26908 4.95571C8.12621 4.93375 7.96217 4.9008 7.77696 4.85688C7.59705 4.80746 7.36157 4.74157 7.07053 4.65921L1.03013 2.9214C0.813175 2.861 0.606801 2.88846 0.411011 3.00376C0.220512 3.11907 0.093513 3.28653 0.0300135 3.50616C-0.0281945 3.73128 -0.00173631 3.94542 0.109388 4.14857C0.220512 4.35173 0.381907 4.48351 0.593572 4.54391L6.22916 6.15817C6.3932 6.20759 6.46728 6.3174 6.45141 6.48762C6.3932 6.98178 6.28737 7.45947 6.13391 7.92069C5.98574 8.37642 5.82435 8.79097 5.64973 9.16434C5.48039 9.53221 5.33487 9.82322 5.21317 10.0374H2.03025V6.67704C2.03025 6.44644 1.94823 6.24877 1.78419 6.08405C1.62544 5.91933 1.43494 5.83697 1.21269 5.83697C0.990444 5.83697 0.799946 5.91933 0.641197 6.08405C0.482448 6.24877 0.403073 6.44644 0.403073 6.67704V10.8692C0.403073 11.1163 0.461281 11.3139 0.577697 11.4622C0.694113 11.605 0.887258 11.6901 1.15713 11.7175Z"
		fill="currentColor"
	/>
</svg>
