<svg color="rgb(var(--foreground, 0, 0, 0))" viewBox="0 0 19 18" fill="none">
	<path
		d="M9.4573 3.84591C9.76788 3.84591 10.05 3.77189 10.3036 3.62387C10.5625 3.47074 10.7669 3.26656 10.917 3.01134C11.0723 2.75613 11.15 2.47539 11.15 2.16913C11.15 1.86286 11.0723 1.58468 10.917 1.33456C10.7669 1.07934 10.5625 0.877723 10.3036 0.729696C10.05 0.576565 9.76788 0.5 9.4573 0.5C9.14671 0.5 8.86201 0.576565 8.60319 0.729696C8.34437 0.877723 8.13731 1.07934 7.98202 1.33456C7.8319 1.58468 7.75685 1.86286 7.75685 2.16913C7.75685 2.47539 7.8319 2.75613 7.98202 3.01134C8.13731 3.26656 8.34437 3.47074 8.60319 3.62387C8.86201 3.77189 9.14671 3.84591 9.4573 3.84591ZM6.96486 13.7994C7.12015 13.9525 7.30391 14.0291 7.51614 14.0291C7.73355 14.0291 7.9199 13.9525 8.0752 13.7994L11.2742 10.6449C11.4192 10.502 11.489 10.3335 11.4839 10.1396C11.4839 9.94562 11.4192 9.77207 11.2897 9.61894C11.1655 9.4607 10.9921 9.37138 10.7695 9.35096L7.1745 8.96813C7.02438 8.95282 6.9338 8.90688 6.90274 8.83032C6.87686 8.74864 6.89756 8.65932 6.96486 8.56234L8.23825 6.66351C8.30555 6.57164 8.39096 6.51549 8.49448 6.49507C8.60319 6.47465 8.70154 6.49507 8.78954 6.55632L11.0568 8.03403C11.1137 8.07487 11.1785 8.10805 11.2509 8.13357C11.3234 8.15909 11.401 8.17185 11.4839 8.17185H15.0478C15.26 8.17185 15.4438 8.09529 15.5991 7.94216C15.7544 7.78903 15.832 7.60782 15.832 7.39854C15.832 7.17905 15.7544 6.99275 15.5991 6.83961C15.4438 6.68648 15.26 6.60992 15.0478 6.60992H11.709L4.79077 2.06193C4.72865 2.0211 4.65877 1.98792 4.58112 1.9624C4.50865 1.93688 4.43359 1.92412 4.35595 1.92412H0.784226C0.571993 1.92412 0.388231 2.00323 0.232938 2.16147C0.0776461 2.3146 0 2.49836 0 2.71274C0 2.92202 0.0776461 3.10322 0.232938 3.25635C0.388231 3.40949 0.571993 3.48605 0.784226 3.48605H4.12301L5.3964 4.32061C5.48958 4.38187 5.54652 4.46609 5.56723 4.57328C5.58793 4.67537 5.56723 4.77235 5.50511 4.86423L3.6649 7.58996C3.45266 7.90132 3.33361 8.23055 3.30772 8.57765C3.28702 8.91964 3.34914 9.24377 3.49408 9.55003C3.64419 9.85119 3.86419 10.1013 4.15407 10.3004C4.44395 10.4943 4.79335 10.6041 5.20229 10.6296L8.87495 10.821L6.96486 12.7045C6.80956 12.8577 6.73192 13.0414 6.73192 13.2558C6.73192 13.4651 6.80956 13.6463 6.96486 13.7994ZM4.00654 11.0584V13.6846L1.80915 16.1882C1.66939 16.3516 1.60727 16.543 1.6228 16.7625C1.63833 16.9871 1.73151 17.1708 1.90233 17.3138C2.09386 17.4669 2.29574 17.5256 2.50797 17.4899C2.72538 17.4541 2.89879 17.3648 3.0282 17.2219L5.3964 14.4885C5.4637 14.4119 5.51029 14.3328 5.53617 14.2511C5.56205 14.1644 5.58017 14.0827 5.59052 14.0061L6.0331 11.4029L5.17123 11.3646C4.95382 11.3544 4.74677 11.3238 4.55006 11.2728C4.35336 11.2166 4.17218 11.1451 4.00654 11.0584ZM15.0478 5.24705C15.0478 5.42571 15.1358 5.58905 15.3118 5.73707C15.493 5.8851 15.7337 6.0025 16.0339 6.08927C16.3342 6.17605 16.6654 6.21943 17.0278 6.21943C17.3901 6.21943 17.7188 6.17605 18.0139 6.08927C18.3141 6.0025 18.5522 5.8851 18.7282 5.73707C18.9094 5.58905 19 5.42571 19 5.24705C19 5.0684 18.9094 4.90506 18.7282 4.75704C18.5522 4.60901 18.3141 4.49161 18.0139 4.40484C17.7188 4.31296 17.3901 4.26702 17.0278 4.26702C16.6654 4.26702 16.3342 4.31296 16.0339 4.40484C15.7337 4.49161 15.493 4.60901 15.3118 4.75704C15.1358 4.90506 15.0478 5.0684 15.0478 5.24705Z"
		fill="currentColor"
	/>
</svg>
