<svg color="rgb(var(--foreground, 0, 0, 0))" viewBox="0 0 11 20" fill="none">
	<path
		d="M4.10884 3.59523C4.43624 3.59523 4.73362 3.5157 5.001 3.35664C5.27383 3.1921 5.4921 2.97271 5.6558 2.69848C5.8195 2.42424 5.90135 2.12258 5.90135 1.7935C5.90135 1.46442 5.8195 1.1655 5.6558 0.89675C5.4921 0.622515 5.27383 0.405869 5.001 0.246812C4.73362 0.0822707 4.43624 0 4.10884 0C3.78144 0 3.48135 0.0822707 3.20852 0.246812C2.94114 0.405869 2.7256 0.622515 2.5619 0.89675C2.40366 1.1655 2.32454 1.46442 2.32454 1.7935C2.32454 2.12258 2.40366 2.42424 2.5619 2.69848C2.7256 2.97271 2.94114 3.1921 3.20852 3.35664C3.48135 3.5157 3.78144 3.59523 4.10884 3.59523ZM8.36504 16.6516C8.53965 16.5693 8.66788 16.4295 8.74973 16.232C8.83158 16.04 8.81794 15.8042 8.70881 15.5245L7.26825 11.8963C7.23005 11.7921 7.1291 11.6797 6.9654 11.559L4.32983 9.60099L4.52627 6.68038C4.53173 6.59811 4.56174 6.54326 4.61631 6.51584C4.67087 6.48841 4.73635 6.48841 4.81275 6.51584L6.52341 7.09996C6.69802 7.15481 6.88083 7.17126 7.07181 7.14932L10.2476 6.79556C10.5313 6.76265 10.7332 6.6557 10.8533 6.4747C10.9733 6.29371 11.0197 6.09351 10.9924 5.87413C10.9651 5.65474 10.8724 5.471 10.7141 5.32291C10.5559 5.16934 10.3376 5.10627 10.0593 5.13369L6.98177 5.48745L3.84695 4.44262C3.46498 4.31098 3.1103 4.28904 2.7829 4.3768C2.4555 4.46456 2.18539 4.63732 1.97258 4.8951C1.76523 5.15289 1.64518 5.47374 1.61244 5.85767L1.38326 8.73714C1.34507 9.16495 1.42692 9.57356 1.62881 9.96298C1.83617 10.3524 2.12537 10.6541 2.49642 10.868L5.84405 12.8178L7.17003 16.1415C7.28462 16.4322 7.46196 16.6132 7.70205 16.6845C7.9476 16.7613 8.1686 16.7503 8.36504 16.6516ZM0.70391 18.1325C0.873066 18.2147 1.05314 18.2339 1.24412 18.19C1.44056 18.1517 1.61244 18.0228 1.75977 17.8034L3.92877 14.5537C3.96151 14.4988 3.98879 14.4358 4.01062 14.3645C4.0379 14.2932 4.05427 14.2109 4.05973 14.1176L4.14976 12.6532L2.2918 11.5673L2.3982 13.8626L0.401065 16.8737C0.226452 17.1425 0.182798 17.3948 0.270105 17.6306C0.357411 17.8664 0.502013 18.0337 0.70391 18.1325ZM7.04725 19.2513L10.2558 18.1818C10.4959 18.0995 10.6159 17.924 10.6159 17.6553V7.52777C10.5668 7.53874 10.515 7.55245 10.4604 7.5689C10.4058 7.57987 10.3513 7.5881 10.2967 7.59358L9.70738 7.6594V17.4002L6.77714 18.3793C6.61344 18.4341 6.50704 18.5219 6.45793 18.6425C6.41428 18.7687 6.417 18.8866 6.46611 18.9963C6.49885 19.095 6.56706 19.1746 6.67074 19.2349C6.77442 19.2952 6.89992 19.3007 7.04725 19.2513ZM0.450175 20H3.80602C3.93153 20 4.04063 19.9534 4.13339 19.8601C4.22615 19.7724 4.27254 19.6654 4.27254 19.5393C4.27254 19.4131 4.22615 19.3062 4.13339 19.2184C4.04063 19.1307 3.93153 19.0868 3.80602 19.0868H0.450175C0.324671 19.0868 0.218267 19.1307 0.13096 19.2184C0.0436533 19.3062 0 19.4131 0 19.5393C0 19.6654 0.0436533 19.7724 0.13096 19.8601C0.218267 19.9534 0.324671 20 0.450175 20Z"
		fill="currentColor"
	/>
</svg>
