<svg color="rgb(var(--foreground, 0, 0, 0))" viewBox="0 0 19 20" fill="none">
	<path
		d="M7.98954 4.06275C8.30753 4.06275 8.59637 3.98579 8.85607 3.83187C9.11576 3.67795 9.32245 3.47095 9.47615 3.21087C9.63515 2.94549 9.71464 2.65092 9.71464 2.32715C9.71464 2.00869 9.63515 1.71943 9.47615 1.45935C9.32245 1.19397 9.11576 0.984322 8.85607 0.8304C8.59637 0.676479 8.30753 0.599518 7.98954 0.599518C7.66625 0.599518 7.37211 0.676479 7.10711 0.8304C6.84742 0.984322 6.63807 1.19397 6.47908 1.45935C6.32538 1.71943 6.24853 2.00869 6.24853 2.32715C6.24853 2.65092 6.32538 2.94549 6.47908 3.21087C6.63807 3.47095 6.84742 3.67795 7.10711 3.83187C7.37211 3.98579 7.66625 4.06275 7.98954 4.06275ZM8.51423 11.5386L12.8866 12.892L17.0682 14.7948C17.3385 14.9169 17.5743 14.9328 17.7757 14.8426C17.9771 14.747 18.1202 14.6011 18.205 14.4047C18.2951 14.203 18.3084 13.996 18.2448 13.7837C18.1812 13.5714 18.0222 13.4068 17.7678 13.2901L10.5653 10.0338V6.16457C10.5653 6.00534 10.5865 5.90184 10.6289 5.85407C10.6766 5.80631 10.7587 5.76119 10.8753 5.71873L13.0456 4.83501C13.1834 4.77663 13.2709 4.7262 13.308 4.68374C13.3503 4.64128 13.406 4.58024 13.4749 4.50063L15.7565 1.84947C15.9049 1.67431 15.9685 1.47528 15.9473 1.25236C15.9314 1.02413 15.836 0.838362 15.6611 0.695056C15.4915 0.546442 15.2927 0.48275 15.0649 0.503981C14.837 0.525211 14.6515 0.620749 14.5084 0.790593L12.3301 3.3303L2.30544 7.43044C2.16234 7.48883 2.0431 7.54721 1.9477 7.60559C1.8523 7.66398 1.77545 7.72236 1.71715 7.78075H5.80335L7.03556 7.28714C7.25816 7.19691 7.36946 7.24468 7.36946 7.43044V9.96218C7.36946 10.7796 7.75105 11.305 8.51423 11.5386ZM7.79079 18.4809C7.7272 18.6932 7.72985 18.8737 7.79874 19.0223C7.87294 19.1762 7.98159 19.293 8.12469 19.3726C8.27308 19.4575 8.42943 19.5 8.59372 19.5C8.75802 19.5 8.91436 19.4522 9.06276 19.3567C9.21646 19.2612 9.3198 19.1125 9.3728 18.9109L10.5414 14.6754C10.552 14.6329 10.5573 14.5931 10.5573 14.5559C10.5626 14.5188 10.5653 14.4843 10.5653 14.4524V12.9557L8.66527 12.3745L8.91171 14.4047L7.79079 18.4809ZM0.445188 9.46061H6.58243V8.57689H0.445188C0.317992 8.57689 0.211994 8.61935 0.127197 8.70428C0.0423989 8.7892 0 8.8927 0 9.01477C0 9.13685 0.0423989 9.243 0.127197 9.33323C0.211994 9.41815 0.317992 9.46061 0.445188 9.46061ZM18.5628 9.46061C18.6847 9.46061 18.788 9.41815 18.8728 9.33323C18.9576 9.243 19 9.13685 19 9.01477C19 8.8927 18.9576 8.7892 18.8728 8.70428C18.788 8.61935 18.6847 8.57689 18.5628 8.57689H11.3603V9.46061H18.5628Z"
		fill="currentColor"
	/>
</svg>
