<svg color="rgb(var(--foreground, 0, 0, 0))" viewBox="0 0 11 18" fill="none">
	<path
		d="M1.37538 17.7124L3.83048 14.774C3.9501 14.6317 4.02895 14.525 4.06701 14.4539C4.11051 14.3773 4.15673 14.2651 4.20567 14.1174L4.38511 13.5593L3.07193 11.9013L2.67226 13.7562L0.249791 16.6454C0.0594742 16.8752 -0.0220904 17.0941 0.00509779 17.302C0.0377236 17.5099 0.132882 17.6796 0.290574 17.8109C0.448265 17.9422 0.627707 18.0051 0.8289 17.9997C1.03553 17.9997 1.21769 17.9039 1.37538 17.7124ZM7.34591 17.4662C7.47097 17.7233 7.63954 17.882 7.85161 17.9422C8.06911 18.0079 8.27574 17.9969 8.4715 17.9094C8.66725 17.8218 8.80591 17.6741 8.88748 17.4662C8.96904 17.2637 8.94185 17.0229 8.80591 16.7439L7.142 13.3541C7.07675 13.2282 7.00334 13.0996 6.92177 12.9683C6.84021 12.8315 6.76136 12.7084 6.68524 12.5989L5.63305 11.0969L5.70646 10.8753C5.8424 10.4485 5.943 10.0792 6.00825 9.76726C6.0735 9.45537 6.12244 9.08875 6.15507 8.66742L6.31819 6.29537C6.35626 5.73724 6.22032 5.2694 5.91037 4.89184C5.60586 4.50881 5.16542 4.3173 4.58903 4.3173C4.15945 4.3173 3.77882 4.424 3.44712 4.6374C3.11543 4.84533 2.7511 5.14355 2.35416 5.53205L1.10622 6.77142C0.905027 6.97388 0.763648 7.16813 0.682084 7.35418C0.600519 7.54022 0.548862 7.7673 0.527111 8.03542L0.380295 9.97246C0.358544 10.2187 0.410202 10.4212 0.535267 10.5798C0.660333 10.733 0.834337 10.8151 1.05728 10.8261C1.28566 10.8425 1.46782 10.785 1.60376 10.6537C1.7397 10.5224 1.81583 10.3254 1.83214 10.0627L2.01974 7.93693L2.61516 7.39521C2.72392 7.29672 2.83267 7.2721 2.94142 7.32134C3.05561 7.36512 3.10999 7.44173 3.10455 7.55116L2.97405 9.34867C2.93598 9.80283 2.97405 10.1749 3.08824 10.4649C3.20787 10.7495 3.42265 11.086 3.7326 11.4745L5.38836 13.5593C5.46992 13.6632 5.5243 13.7453 5.55149 13.8055C5.57868 13.8602 5.60858 13.9204 5.64121 13.9861L7.34591 17.4662ZM10.1844 7.51833H8.30021L7.11753 6.19688L6.97887 8.17495L7.45194 8.65101C7.58245 8.78233 7.71567 8.87262 7.85161 8.92186C7.99299 8.97111 8.18602 8.99573 8.43072 8.99573H10.1844C10.429 8.99573 10.6248 8.93007 10.7716 8.79875C10.9239 8.66742 11 8.48685 11 8.25703C11 8.03816 10.9239 7.86032 10.7716 7.72353C10.6248 7.58673 10.429 7.51833 10.1844 7.51833ZM5.50255 3.57859C5.82881 3.57859 6.12516 3.49925 6.3916 3.34057C6.66348 3.17641 6.87827 2.96027 7.03596 2.69215C7.19365 2.41856 7.2725 2.11761 7.2725 1.7893C7.2725 1.45551 7.19365 1.15456 7.03596 0.886441C6.87827 0.612848 6.66348 0.39671 6.3916 0.238026C6.12516 0.0793419 5.82881 0 5.50255 0C5.17085 0 4.86906 0.0793419 4.59718 0.238026C4.33074 0.39671 4.11867 0.612848 3.96098 0.886441C3.80329 1.15456 3.72444 1.45551 3.72444 1.7893C3.72444 2.11761 3.80329 2.41856 3.96098 2.69215C4.11867 2.96027 4.33074 3.17641 4.59718 3.34057C4.86906 3.49925 5.17085 3.57859 5.50255 3.57859Z"
		fill="currentColor"
	/>
</svg>
