<svg viewBox="0 0 10 20" fill="none" color="rgb(var(--foreground, 0, 0, 0))">
	<path
		d="M1.13728 19.5C1.36058 19.5 1.54753 19.4252 1.69812 19.2757C1.84872 19.1312 1.92402 18.9533 1.92402 18.7419V15.0362L4.1051 12.7309C4.12587 12.7102 4.15184 12.6999 4.18299 12.6999C4.21415 12.6999 4.23752 12.7128 4.2531 12.7386L6.3407 15.5159L8.11672 19.0204C8.23616 19.2679 8.39715 19.4175 8.59968 19.4691C8.8022 19.5206 8.99435 19.5 9.1761 19.4072C9.36305 19.3195 9.49548 19.1802 9.57337 18.9894C9.65646 18.8037 9.63828 18.5949 9.51884 18.3628L5.87333 11.1063C5.70715 10.7814 5.57992 10.41 5.49164 9.99226C5.40336 9.56935 5.34104 9.13613 5.30469 8.69259C5.29431 8.54818 5.32806 8.44761 5.40596 8.39088C5.48904 8.32899 5.59291 8.32899 5.71754 8.39088L7.15861 9.11808L8.49062 11.7638C8.61006 11.9959 8.77105 12.1403 8.97357 12.1971C9.1761 12.2486 9.37084 12.2306 9.55779 12.1429C9.74474 12.0552 9.87716 11.916 9.95506 11.7252C10.033 11.5343 10.0096 11.3151 9.88495 11.0676L8.4361 8.19748C8.35301 8.04275 8.23616 7.92671 8.08556 7.84935L6.01354 6.82044C5.70715 6.66572 5.39817 6.54967 5.08658 6.47231C4.775 6.39495 4.4738 6.32017 4.18299 6.24796C3.84545 6.16545 3.53127 6.05972 3.24046 5.93078C2.95484 5.80185 2.71077 5.59297 2.50824 5.30415L1.5657 3.94259V1.26588C1.5657 1.05442 1.48781 0.873914 1.33202 0.724349C1.17622 0.574783 0.991871 0.5 0.778956 0.5C0.566041 0.5 0.381689 0.574783 0.225897 0.724349C0.0752991 0.873914 0 1.05442 0 1.26588V4.19015C0 4.27782 0.0103861 4.35518 0.0311582 4.42223C0.0519304 4.48412 0.0882817 4.55117 0.140212 4.62337L1.7916 6.99064C1.8643 7.09894 1.92402 7.20209 1.97076 7.30008C2.0175 7.39292 2.04865 7.52959 2.06423 7.7101C2.08501 7.99376 2.11876 8.34446 2.1655 8.76222C2.21743 9.17997 2.28494 9.61577 2.36803 10.0696C2.45112 10.5183 2.54978 10.9335 2.66403 11.3151L0.514111 14.2781C0.462181 14.3555 0.425829 14.4302 0.405057 14.5024C0.384285 14.5746 0.373899 14.6494 0.373899 14.7268V18.7419C0.373899 18.9533 0.446602 19.1312 0.592007 19.2757C0.742605 19.4252 0.924361 19.5 1.13728 19.5ZM4.72047 5.41246C5.03206 5.41246 5.31508 5.33768 5.56954 5.18811C5.824 5.03339 6.02652 4.82967 6.17712 4.57695C6.33291 4.31908 6.41081 4.03284 6.41081 3.71824C6.41081 3.40879 6.33291 3.12771 6.17712 2.875C6.02652 2.62229 5.824 2.42115 5.56954 2.27158C5.31508 2.11686 5.03206 2.0395 4.72047 2.0395C4.4037 2.0395 4.11549 2.11686 3.85583 2.27158C3.60137 2.42115 3.39625 2.62229 3.24046 2.875C3.08986 3.12771 3.01456 3.40879 3.01456 3.71824C3.01456 4.03284 3.08986 4.31908 3.24046 4.57695C3.39625 4.82967 3.60137 5.03339 3.85583 5.18811C4.11549 5.33768 4.4037 5.41246 4.72047 5.41246Z"
		fill="currentColor"
	/>
</svg>
