<svg viewBox="0 0 18 12" fill="none" color="rgb(var(--foreground, 0, 0, 0))">
	<path
		d="M14.825 3.37235C15.1385 3.37235 15.426 3.29775 15.6873 3.14855C15.9486 2.99936 16.1551 2.79614 16.3066 2.53891C16.4582 2.28167 16.534 1.99871 16.534 1.69003C16.534 1.37621 16.4582 1.09325 16.3066 0.841158C16.1551 0.583923 15.9486 0.380707 15.6873 0.231511C15.426 0.0771704 15.1385 0 14.825 0C14.5061 0 14.2161 0.0771704 13.9548 0.231511C13.6987 0.380707 13.4923 0.583923 13.3355 0.841158C13.1839 1.09325 13.1081 1.37621 13.1081 1.69003C13.1081 1.99871 13.1839 2.28167 13.3355 2.53891C13.4923 2.79614 13.6987 2.99936 13.9548 3.14855C14.2161 3.29775 14.5061 3.37235 14.825 3.37235ZM1.05083 11.29L5.66052 10.1556V11.2206C5.66052 11.4367 5.73892 11.6193 5.89571 11.7685C6.0525 11.9228 6.23804 12 6.45232 12C6.67183 12 6.85998 11.9228 7.01677 11.7685C7.17357 11.6193 7.25196 11.4367 7.25196 11.2206V9.8701L10.5995 9.37621C10.9078 9.33505 11.211 9.25016 11.5089 9.12154C11.8068 8.99293 12.0812 8.83344 12.332 8.64309L15.2326 6.50547C15.2849 6.46945 15.3424 6.45659 15.4051 6.46688C15.473 6.47203 15.5227 6.50804 15.554 6.57492L16.4086 8.27267V11.2206C16.4086 11.4469 16.4817 11.6322 16.6281 11.7762C16.7796 11.9254 16.973 12 17.2082 12C17.4434 12 17.6342 11.9254 17.7805 11.7762C17.9268 11.6322 18 11.4469 18 11.2206V8.08746C18 7.9537 17.9713 7.8328 17.9138 7.72476L16.5418 5.03151C16.4059 4.75884 16.21 4.54534 15.9539 4.391C15.703 4.23666 15.426 4.15949 15.1229 4.15949H14.4173C13.7117 4.15949 13.0768 4.37042 12.5123 4.79228L10.2389 6.45916L6.89918 5.80322C6.54901 5.73633 6.25372 5.77749 6.0133 5.92669C5.77812 6.07074 5.66052 6.3254 5.66052 6.69068V8.53505L0.666693 9.78521C0.405373 9.84694 0.222449 9.96527 0.117921 10.1402C0.0186191 10.31 -0.0179658 10.4849 0.00816626 10.665C0.0447511 10.8707 0.151892 11.0457 0.32959 11.1897C0.512514 11.3338 0.752929 11.3672 1.05083 11.29ZM7.25196 8.15691V7.5627L8.34167 7.89453L7.25196 8.15691ZM11.0307 12H14.2135C14.5427 12 14.8223 11.8842 15.0523 11.6527C15.2875 11.4264 15.4051 11.1486 15.4051 10.8193C15.4051 10.5003 15.2875 10.2251 15.0523 9.99357C14.8223 9.76206 14.5427 9.6463 14.2135 9.6463H11.0307C10.7014 9.6463 10.4192 9.76206 10.184 9.99357C9.95401 10.2251 9.83903 10.5003 9.83903 10.8193C9.83903 11.1486 9.95401 11.4264 10.184 11.6527C10.4192 11.8842 10.7014 12 11.0307 12ZM14.2135 11.4444C14.041 11.4444 13.892 11.3826 13.7666 11.2592C13.6464 11.1357 13.5864 10.9865 13.5864 10.8116C13.5864 10.6418 13.6464 10.4977 13.7666 10.3794C13.892 10.2611 14.041 10.2019 14.2135 10.2019C14.3912 10.2019 14.5401 10.2611 14.6603 10.3794C14.7805 10.4977 14.8406 10.6418 14.8406 10.8116C14.8406 10.9865 14.7805 11.1357 14.6603 11.2592C14.5401 11.3826 14.3912 11.4444 14.2135 11.4444Z"
		fill="currentColor"
	/>
</svg>
