<svg viewBox="0 0 11 22" fill="none" color="rgb(var(--foreground, 0, 0, 0))">
	<path
		d="M8.63508 6.0187C8.94594 6.0187 9.2283 5.94314 9.48217 5.79202C9.73604 5.63568 9.9381 5.42723 10.0883 5.16667C10.2438 4.90611 10.3215 4.61688 10.3215 4.299C10.3215 3.98632 10.2438 3.70231 10.0883 3.44696C9.9381 3.19161 9.73604 2.98837 9.48217 2.83724C9.2283 2.6809 8.94594 2.60274 8.63508 2.60274C8.31904 2.60274 8.0315 2.6809 7.77245 2.83724C7.5134 2.98837 7.30616 3.19161 7.15073 3.44696C7.00048 3.70231 6.92536 3.98632 6.92536 4.299C6.92536 4.61688 7.00048 4.90611 7.15073 5.16667C7.30616 5.42723 7.5134 5.63568 7.77245 5.79202C8.0315 5.94314 8.31904 6.0187 8.63508 6.0187ZM4.71826 21.4961C4.93068 21.4961 5.1146 21.4179 5.27003 21.2616C5.42546 21.1105 5.50318 20.9255 5.50318 20.7066V16.806L7.3217 14.1092C7.35797 14.0518 7.4046 14.031 7.46159 14.0466C7.52376 14.057 7.55744 14.0987 7.56262 14.1717L7.84239 16.5793C7.85275 16.647 7.86311 16.7044 7.87348 16.7513C7.88902 16.7982 7.91233 16.8581 7.94342 16.931L9.4744 20.988C9.56766 21.2329 9.71272 21.3867 9.9096 21.4492C10.1065 21.5169 10.2956 21.5169 10.4769 21.4492C10.6583 21.3814 10.8033 21.2564 10.9121 21.074C11.0209 20.8968 11.0287 20.6831 10.9354 20.433L9.42777 16.3995V8.95784C9.42777 8.54095 9.33451 8.13968 9.148 7.75405C8.96666 7.36842 8.67653 7.09222 8.27759 6.92546L7.78799 6.72222C7.33724 6.53462 6.89945 6.46687 6.47461 6.51898C6.05495 6.56589 5.65601 6.72743 5.2778 7.00363L3.43596 8.34031L1.37652 7.46482L5.46432 1.76633H6.82433C7.00048 1.76633 7.15073 1.7038 7.27507 1.57873C7.39942 1.45366 7.46159 1.30514 7.46159 1.13317C7.46159 0.955984 7.39942 0.807463 7.27507 0.687605C7.15073 0.562535 7.00048 0.5 6.82433 0.5H5.53426C5.46691 0.5 5.39956 0.515634 5.3322 0.546901C5.27003 0.578169 5.21563 0.622464 5.169 0.679788L0.164172 7.65243C0.0294668 7.84003 -0.022343 8.04848 0.00874291 8.27778C0.0450098 8.50707 0.174534 8.66862 0.397317 8.76242L3.22613 9.98185C3.28831 10.0027 3.3453 10.0183 3.39711 10.0288C3.4541 10.034 3.52663 10.0366 3.61471 10.0366H5.48763C5.63788 10.0366 5.7415 10.0783 5.79849 10.1616C5.85548 10.245 5.88398 10.3414 5.88398 10.4509V12.6161L4.01105 16.1884C3.97479 16.2562 3.95147 16.3187 3.94111 16.376C3.93075 16.4282 3.92557 16.4933 3.92557 16.5715V20.7066C3.92557 20.9255 4.00069 21.1105 4.15094 21.2616C4.30637 21.4179 4.49547 21.4961 4.71826 21.4961Z"
		fill="currentColor"
	/>
</svg>
