<svg viewBox="0 0 12 18" fill="none" color="rgb(var(--foreground, 0, 0, 0))">
	<path
		d="M10.2577 3.35437C10.5566 3.35437 10.8302 3.28017 11.0785 3.13177C11.3318 2.97825 11.5319 2.77356 11.6788 2.5177C11.8308 2.26183 11.9068 1.97783 11.9068 1.66567C11.9068 1.35864 11.8308 1.07974 11.6788 0.828998C11.5319 0.578252 11.3318 0.378678 11.0785 0.230277C10.8302 0.0767591 10.5566 0 10.2577 0C9.94865 0 9.66746 0.0767591 9.41414 0.230277C9.16082 0.378678 8.95816 0.578252 8.80617 0.828998C8.65924 1.07974 8.58578 1.35864 8.58578 1.66567C8.58578 1.97783 8.65924 2.26183 8.80617 2.5177C8.95816 2.77356 9.16082 2.97825 9.41414 3.13177C9.66746 3.28017 9.94865 3.35437 10.2577 3.35437ZM6.44267 15.206C6.66052 15.206 6.84798 15.1267 7.00504 14.968C7.1621 14.8145 7.24063 14.6303 7.24063 14.4154V10.3932C7.24063 10.2038 7.17984 10.0375 7.05824 9.89424L5.25712 7.66055C5.20139 7.58891 5.18112 7.51983 5.19632 7.4533C5.21152 7.38166 5.25458 7.32537 5.32551 7.28443L7.51422 6.13305C7.59528 6.09211 7.67128 6.08699 7.74221 6.1177C7.81314 6.14328 7.85367 6.20469 7.86381 6.30192L8.0538 7.66055C8.09433 7.94712 8.26912 8.16716 8.57818 8.32068L10.7441 9.41834C11.0379 9.56674 11.2913 9.59744 11.5041 9.51045C11.7219 9.42345 11.8688 9.28529 11.9448 9.09595C12.0158 8.92196 12.0183 8.73262 11.9524 8.52793C11.8866 8.32324 11.732 8.15949 11.4889 8.03667L9.55853 7.03881L9.24695 4.72068C9.18615 4.30618 9.01389 3.96077 8.73017 3.68444C8.44645 3.40299 8.0994 3.229 7.68901 3.16247C7.2837 3.09595 6.86572 3.17783 6.43507 3.4081L3.57759 4.91258C3.14188 5.14286 2.83029 5.44478 2.64283 5.81834C2.46044 6.1919 2.40218 6.58337 2.46804 6.99275C2.53897 7.40213 2.7391 7.77313 3.06842 8.10576L5.6751 10.7309V14.4154C5.6751 14.6303 5.7511 14.8145 5.90309 14.968C6.05508 15.1267 6.23494 15.206 6.44267 15.206ZM0.362931 10.2397C0.509858 10.5058 0.709983 10.6849 0.963305 10.777C1.21663 10.864 1.48008 10.8768 1.75367 10.8154L3.3952 10.4469C3.51173 10.4264 3.60293 10.3753 3.66879 10.2934C3.73465 10.2115 3.76759 10.1092 3.76759 9.98635C3.76759 9.86866 3.72959 9.77143 3.65359 9.69467C3.58266 9.61279 3.49146 9.56162 3.38 9.54115L0.575722 9.04989C0.342665 9.00896 0.175472 9.06524 0.0741432 9.21876C-0.0271858 9.37228 -0.0246526 9.54627 0.0817428 9.74073L0.362931 10.2397ZM1.69287 10.3164L3.74479 16.4725L4.57315 16.1808L2.55164 10.0554L1.69287 10.3164ZM6.42747 17.977C6.98984 17.977 7.49649 17.8414 7.9474 17.5702C8.40338 17.2989 8.76563 16.9331 9.03416 16.4725C9.30268 16.0171 9.43694 15.5079 9.43694 14.945C9.43694 14.3667 9.29001 13.8422 8.99616 13.3714C8.70737 12.9006 8.32485 12.5348 7.84861 12.2738V13.4252C8.05633 13.6145 8.21593 13.8397 8.32739 14.1006C8.43885 14.3616 8.49458 14.6431 8.49458 14.945C8.49458 15.3288 8.40085 15.6768 8.21339 15.9889C8.02593 16.3062 7.77514 16.5569 7.46102 16.7412C7.15197 16.9305 6.80745 17.0252 6.42747 17.0252C6.05255 17.0252 5.70803 16.9305 5.39391 16.7412C5.08486 16.5518 4.8366 16.2985 4.64914 15.9812C4.46169 15.6691 4.36796 15.3237 4.36796 14.945C4.36796 14.6431 4.42875 14.3591 4.55035 14.093C4.67701 13.8217 4.84674 13.5889 5.05953 13.3945V12.2584C4.57821 12.5041 4.18556 12.8674 3.88158 13.3484C3.57759 13.8294 3.4256 14.3616 3.4256 14.945C3.4256 15.5079 3.55986 16.0171 3.82838 16.4725C4.10197 16.9331 4.46675 17.2989 4.92273 17.5702C5.37871 17.8414 5.88029 17.977 6.42747 17.977ZM8.26659 16.2652L9.11775 16.5569L11.0329 10.6772C11.0734 10.5646 11.0658 10.452 11.0101 10.3394C10.9594 10.2217 10.8809 10.1475 10.7745 10.1168C10.6478 10.0759 10.5313 10.0861 10.4249 10.1475C10.3236 10.2038 10.2552 10.2883 10.2197 10.4009L8.26659 16.2652ZM2.24765 17.3245C2.14632 17.391 2.08552 17.478 2.06526 17.5855C2.05006 17.693 2.07032 17.7876 2.12606 17.8695C2.18179 17.9565 2.27045 18 2.39204 18H10.4553C10.5769 18 10.6656 17.9565 10.7213 17.8695C10.7821 17.7825 10.8023 17.6853 10.7821 17.5778C10.7669 17.4704 10.7112 17.3859 10.6149 17.3245L8.82897 16.1424L7.21023 17.2708H5.6447L4.02597 16.1424L2.24765 17.3245Z"
		fill="currentColor"
	/>
</svg>
