<svg viewBox="0 0 11 20" fill="none" color="rgb(var(--foreground, 0, 0, 0))">
	<path
		d="M4.71102 8.04226C5.01594 8.04226 5.29291 7.96937 5.54193 7.82357C5.79094 7.67275 5.98914 7.47417 6.13652 7.22783C6.2839 6.97647 6.35759 6.69745 6.35759 6.39078C6.35759 6.08914 6.2839 5.81515 6.13652 5.56881C5.98914 5.32247 5.79094 5.12641 5.54193 4.98061C5.29291 4.82979 5.01594 4.75438 4.71102 4.75438C4.40102 4.75438 4.11897 4.82979 3.86486 4.98061C3.61076 5.12641 3.41003 5.32247 3.26265 5.56881C3.11527 5.81515 3.04158 6.08914 3.04158 6.39078C3.04158 6.69745 3.11527 6.97647 3.26265 7.22783C3.41003 7.47417 3.61076 7.67275 3.86486 7.82357C4.11897 7.96937 4.40102 8.04226 4.71102 8.04226ZM0.777547 19.497H4.71102C4.94987 19.497 5.12774 19.4417 5.24463 19.3311C5.3666 19.2205 5.44537 19.0622 5.48094 18.8561L6.15177 15.2213H9.26195L8.65211 18.5695C8.60638 18.841 8.65465 19.0572 8.79695 19.218C8.94433 19.3839 9.11712 19.4769 9.31532 19.497C9.50843 19.5121 9.69392 19.4694 9.87179 19.3689C10.0497 19.2733 10.1615 19.1024 10.2072 18.8561L10.9695 14.6557C11.0203 14.3641 10.9746 14.1329 10.8323 13.962C10.69 13.786 10.5121 13.688 10.2987 13.6679L7.53153 13.3662L7.76784 10.7721C7.77801 10.6313 7.85678 10.561 8.00416 10.561H10.2148C10.4283 10.561 10.6112 10.483 10.7637 10.3272C10.9212 10.1713 11 9.98784 11 9.77669V5.50094C11 5.34007 10.9543 5.19428 10.8628 5.06357C10.7713 4.93285 10.6519 4.83985 10.5045 4.78455C10.3622 4.72422 10.2123 4.70914 10.0547 4.7393C9.90229 4.76444 9.76761 4.83231 9.65073 4.94291L5.34373 9.21866C5.15061 9.4097 4.99561 9.62336 4.87873 9.85964C4.76184 10.0959 4.69069 10.3599 4.66528 10.6514L3.98683 17.9436H0.777547C0.559021 17.9436 0.373527 18.0165 0.221067 18.1623C0.0736891 18.3131 0 18.4966 0 18.7128C0 18.929 0.0736891 19.1125 0.221067 19.2633C0.373527 19.4191 0.559021 19.497 0.777547 19.497ZM9.42966 7.37865V8.99243H7.78309L9.42966 7.37865ZM7.8517 5.09373L9.62024 6.65472L10.0319 6.20226L8.28621 4.63373L7.8517 5.09373ZM3.48371 1.92651L7.50866 5.51603C7.63063 5.62663 7.7653 5.6769 7.91268 5.66685C8.06006 5.65176 8.19219 5.58389 8.30908 5.46324L8.7131 5.05602C8.83507 4.93537 8.88843 4.79963 8.87318 4.64881C8.85793 4.49799 8.79187 4.36728 8.67498 4.25668L4.62717 0.652077C4.5052 0.541476 4.36544 0.491202 4.2079 0.501257C4.05544 0.511312 3.92585 0.576667 3.81913 0.697323L3.43798 1.1347C3.33125 1.25536 3.28043 1.38858 3.28552 1.53437C3.2906 1.68017 3.35666 1.81088 3.48371 1.92651Z"
		fill="currentColor"
	/>
</svg>
