<svg color="rgb(var(--foreground, 0, 0, 0))" viewBox="0 0 15 18" fill="none">
	<path
		d="M2.78634 3.98539C3.10524 3.98539 3.3949 3.90832 3.65533 3.75419C3.92107 3.59474 4.13101 3.3848 4.28514 3.12437C4.44459 2.85863 4.52432 2.56631 4.52432 2.24741C4.52432 1.9232 4.44459 1.63088 4.28514 1.37045C4.13101 1.10471 3.92107 0.894768 3.65533 0.740636C3.3949 0.581188 3.10524 0.501465 2.78634 0.501465C2.46213 0.501465 2.16715 0.581188 1.90141 0.740636C1.64098 0.894768 1.43104 1.10471 1.27159 1.37045C1.11746 1.63088 1.04039 1.9232 1.04039 2.24741C1.04039 2.56631 1.11746 2.85863 1.27159 3.12437C1.43104 3.3848 1.64098 3.59474 1.90141 3.75419C2.16715 3.90832 2.46213 3.98539 2.78634 3.98539ZM5.52883 17.4268C5.72548 17.4799 5.92214 17.4587 6.11879 17.363C6.32075 17.2673 6.45363 17.0999 6.51741 16.8608L7.72123 12.4919C7.79564 12.2102 7.77704 11.9737 7.66543 11.7824C7.55913 11.591 7.36513 11.4555 7.08344 11.3758L3.5756 10.3792L3.84666 7.30189C3.85198 7.25406 3.8759 7.21951 3.91842 7.19825C3.96625 7.17699 4.00877 7.1823 4.04597 7.21419L5.67234 8.37816C5.81584 8.48446 5.97263 8.53761 6.14271 8.53761C6.31278 8.53761 6.47223 8.48446 6.62105 8.37816L9.45124 6.35318C9.63726 6.22562 9.74887 6.05289 9.78607 5.83498C9.82328 5.61175 9.77544 5.40712 9.64257 5.2211C9.51501 5.03508 9.33962 4.92613 9.1164 4.89424C8.89317 4.85703 8.6912 4.90221 8.5105 5.02977L6.15068 6.72788L4.20542 5.33272C4.00345 5.1839 3.77757 5.06166 3.52777 4.96599C3.27797 4.87032 2.99894 4.82249 2.69067 4.82249C2.17513 4.82249 1.74196 4.96865 1.39118 5.26097C1.04571 5.55329 0.857029 5.92799 0.82514 6.38507L0.554079 10.1799C0.516875 10.7486 0.63646 11.2269 0.912835 11.6149C1.19453 12.0029 1.65161 12.2421 2.28408 12.3325L5.92745 12.8586L4.95482 16.4302C4.89104 16.6694 4.91496 16.8794 5.02657 17.0601C5.1435 17.2461 5.31092 17.3683 5.52883 17.4268ZM12.8315 7.56498C13.2248 7.56498 13.5862 7.46665 13.9158 7.27C14.2453 7.07335 14.5084 6.81026 14.705 6.48074C14.9017 6.15121 15 5.78714 15 5.38852C15 4.9899 14.9017 4.62849 14.705 4.30428C14.5084 3.97476 14.2453 3.71433 13.9158 3.52299C13.5862 3.32634 13.2248 3.22801 12.8315 3.22801C12.4276 3.22801 12.0609 3.32634 11.7313 3.52299C11.4071 3.71433 11.1467 3.97476 10.95 4.30428C10.7534 4.62849 10.6551 4.9899 10.6551 5.38852C10.6551 5.78714 10.7534 6.15121 10.95 6.48074C11.1467 6.81026 11.4071 7.07335 11.7313 7.27C12.0609 7.46665 12.4276 7.56498 12.8315 7.56498ZM12.8315 6.68005C12.4648 6.68005 12.1565 6.5578 11.9067 6.31332C11.6622 6.06352 11.54 5.75525 11.54 5.38852C11.54 5.03242 11.6622 4.73213 11.9067 4.48765C12.1565 4.23785 12.4648 4.11295 12.8315 4.11295C13.1982 4.11295 13.5039 4.23785 13.7483 4.48765C13.9928 4.73213 14.1151 5.03242 14.1151 5.38852C14.1151 5.75525 13.9928 6.06352 13.7483 6.31332C13.5039 6.5578 13.1982 6.68005 12.8315 6.68005ZM7.56179 17.4985H12.0502C12.2044 17.4985 12.316 17.448 12.3851 17.3471C12.4595 17.2461 12.4887 17.1292 12.4728 16.9963C12.4568 16.8687 12.3877 16.7624 12.2655 16.6774L10.687 15.633C10.7667 15.5055 10.8331 15.3726 10.8863 15.2344C10.9394 15.0962 10.9846 14.95 11.0218 14.7959L12.8794 7.38959L11.9944 7.1823L10.1448 14.5886C9.99601 15.1839 9.68243 15.6676 9.20409 16.0396C8.73107 16.4116 8.18363 16.5977 7.56179 16.5977C7.43423 16.5977 7.32793 16.6428 7.24289 16.7332C7.15785 16.8235 7.11533 16.9298 7.11533 17.0521C7.11533 17.169 7.15785 17.2727 7.24289 17.363C7.32793 17.4534 7.43423 17.4985 7.56179 17.4985ZM1.63035 14.469L3.22482 14.1262C3.3258 14.1103 3.40287 14.0625 3.45602 13.9827C3.51448 13.903 3.54372 13.8127 3.54372 13.7117C3.54372 13.6107 3.51183 13.523 3.44805 13.4486C3.38427 13.3742 3.30454 13.3317 3.20888 13.321L0.52219 12.8586C0.373372 12.8374 0.259102 12.8586 0.179378 12.9224C0.0996545 12.9809 0.0491629 13.0606 0.0279033 13.1616C0.0119585 13.2626 0.0279033 13.3635 0.0757374 13.4645L0.227212 13.7595C0.3654 14.0465 0.548764 14.2538 0.777305 14.3813C1.01116 14.5089 1.29551 14.5381 1.63035 14.469ZM0.466383 17.4985H3.91842C4.05129 17.4985 4.16024 17.4534 4.24528 17.363C4.33032 17.278 4.37284 17.1743 4.37284 17.0521C4.37284 16.9298 4.33032 16.8235 4.24528 16.7332C4.16024 16.6428 4.05129 16.5977 3.91842 16.5977C3.65799 16.5977 3.43476 16.5365 3.24874 16.4143C3.06803 16.2921 2.94579 16.0768 2.88201 15.7685L2.41164 13.6479L1.53468 13.8392L1.90938 15.5613L0.21924 16.6774C0.0969971 16.7624 0.0252458 16.8687 0.00398618 16.9963C-0.0119585 17.1292 0.0199309 17.2461 0.0996545 17.3471C0.179378 17.448 0.301621 17.4985 0.466383 17.4985Z"
		fill="currentColor"
	/>
</svg>
