<svg color="rgb(var(--foreground, 0, 0, 0))" viewBox="0 0 14 20" fill="none">
	<path
		d="M3.36192 6.42769C3.6821 6.42769 3.97294 6.35179 4.23442 6.2C4.50124 6.04298 4.71203 5.83623 4.86678 5.57975C5.02154 5.31804 5.09891 5.02755 5.09891 4.70826C5.09891 4.39421 5.02154 4.10895 4.86678 3.85248C4.71203 3.59601 4.50124 3.39187 4.23442 3.24008C3.97294 3.08306 3.6821 3.00455 3.36192 3.00455C3.0364 3.00455 2.74023 3.08306 2.47341 3.24008C2.21193 3.39187 2.00114 3.59601 1.84105 3.85248C1.6863 4.10895 1.60892 4.39421 1.60892 4.70826C1.60892 5.02755 1.6863 5.31804 1.84105 5.57975C2.00114 5.83623 2.21193 6.04298 2.47341 6.2C2.74023 6.35179 3.0364 6.42769 3.36192 6.42769ZM7.72441 14.6479L10.2058 11.3033L11.7747 14.114C11.9508 14.9201 12.0789 15.6477 12.1589 16.2967C12.2443 16.9457 12.3004 17.477 12.327 17.8905C12.3537 18.304 12.3671 18.5578 12.3671 18.6521C12.3671 18.8928 12.4471 19.0944 12.6072 19.2566C12.7673 19.4189 12.9594 19.5 13.1835 19.5C13.413 19.5 13.6051 19.4189 13.7599 19.2566C13.92 19.0996 14 18.9059 14 18.6756C14 18.6494 13.9893 18.4165 13.968 17.9769C13.9466 17.5372 13.8906 16.9431 13.7999 16.1946C13.7092 15.4514 13.5678 14.6087 13.3756 13.6665L13.3436 13.5252C13.2102 12.8762 13.0128 12.1355 12.7513 11.3033C12.4898 10.4658 12.1483 9.58127 11.7267 8.64959C11.3051 7.71791 10.7875 6.78099 10.1738 5.83884C9.56546 4.89146 8.84239 3.98333 8.00457 3.11446C7.1721 2.24036 6.21422 1.45 5.13093 0.743388C4.99219 0.659642 4.85878 0.599449 4.7307 0.56281C4.60797 0.520937 4.47723 0.5 4.33848 0.5H0.816467C0.592339 0.5 0.400229 0.578512 0.240137 0.735537C0.0800458 0.892562 0 1.08099 0 1.30083C0 1.53113 0.0800458 1.72741 0.240137 1.88967C0.400229 2.04669 0.592339 2.12521 0.816467 2.12521H4.27444C4.70135 2.41309 5.10158 2.71405 5.47513 3.0281C5.85401 3.34215 6.21422 3.66928 6.55575 4.0095C6.65714 4.10372 6.67048 4.21364 6.59577 4.33926L3.82619 8.97934C3.71412 9.173 3.67677 9.36405 3.71412 9.55248C3.75681 9.73567 3.8502 9.89008 3.99428 10.0157C4.1437 10.1361 4.32514 10.1963 4.53859 10.1963H8.31675L6.33162 13.7764L6.25157 13.9178L3.81018 18.2988C3.69811 18.4977 3.67143 18.7044 3.73013 18.919C3.79417 19.1388 3.92758 19.2985 4.13036 19.3979C4.31713 19.4974 4.51992 19.5209 4.73871 19.4686C4.96284 19.4215 5.13627 19.2906 5.259 19.076L7.72441 14.6479ZM5.96341 8.58678L6.57976 7.55826C6.62779 7.46928 6.68915 7.43003 6.76386 7.4405C6.84391 7.44573 6.90528 7.47714 6.94797 7.53471L7.66838 8.58678H5.96341Z"
		fill="currentColor"
	/>
</svg>
