<svg color="rgb(var(--foreground, 0, 0, 0))" viewBox="0 0 15 18" fill="none">
	<path
		d="M7.43472 5.72597C7.74706 5.72597 8.02867 5.65268 8.27957 5.50611C8.53559 5.35449 8.73784 5.15485 8.88633 4.9072C9.03994 4.65449 9.11674 4.37398 9.11674 4.06568C9.11674 3.76243 9.03994 3.48698 8.88633 3.23932C8.73784 2.98661 8.53559 2.78697 8.27957 2.6404C8.02867 2.48878 7.74706 2.41297 7.43472 2.41297C7.1275 2.41297 6.84588 2.48878 6.58986 2.6404C6.33897 2.78697 6.13671 2.98661 5.9831 3.23932C5.83461 3.48698 5.76037 3.76243 5.76037 4.06568C5.76037 4.37398 5.83461 4.65449 5.9831 4.9072C6.13671 5.15485 6.33897 5.35449 6.58986 5.50611C6.84588 5.65268 7.1275 5.72597 7.43472 5.72597ZM14.2243 18C14.4393 18 14.6211 17.9242 14.7696 17.7726C14.9232 17.6209 15 17.4415 15 17.2343V13.3906C15 13.2541 14.9667 13.1328 14.9002 13.0267C14.8387 12.9206 14.7568 12.8271 14.6544 12.7462L11.6359 10.2899L11.0369 7.09059C10.9754 6.75196 11.0241 6.43103 11.1828 6.12778L13.725 1.11657C13.8223 0.929571 13.8351 0.734986 13.7634 0.532819C13.6918 0.330653 13.5612 0.181555 13.3717 0.0855259C13.1772 -0.0105032 12.9775 -0.0256657 12.7727 0.0400384C12.5678 0.105743 12.4194 0.232097 12.3272 0.4191L9.83103 5.36207C9.66718 5.69564 9.39836 5.93824 9.02458 6.08987L4.62366 7.8942L2.84946 6.49167C2.7829 6.44113 2.71121 6.40575 2.63441 6.38554C2.56272 6.36532 2.49616 6.35521 2.43472 6.35521V4.27037H1.58218V7.06027C1.58218 7.33825 1.67435 7.55052 1.85868 7.69709L4.02458 9.39529C4.16283 9.49637 4.30364 9.54692 4.44701 9.54692C4.59549 9.54692 4.75422 9.51406 4.9232 9.44836L7.32719 8.45522C7.49616 8.38446 7.62417 8.38446 7.71121 8.45522C7.79826 8.52598 7.85202 8.61695 7.8725 8.72814L9.06298 15.2101L5.76037 16.5141C5.5658 16.5899 5.42499 16.7264 5.33794 16.9235C5.2509 17.1206 5.24578 17.3177 5.32258 17.5148C5.41475 17.7372 5.55812 17.8812 5.75269 17.9469C5.95238 18.0126 6.14695 18.0076 6.33641 17.9318L10.2304 16.4004C10.3994 16.3296 10.5274 16.2184 10.6144 16.0668C10.7015 15.9202 10.7373 15.761 10.722 15.5892L10.4992 12.6022C10.489 12.4354 10.5556 12.3141 10.6989 12.2383C10.8423 12.1624 10.978 12.1675 11.106 12.2534L13.4485 13.8V17.2343C13.4485 17.4415 13.5228 17.6209 13.6713 17.7726C13.8249 17.9242 14.0092 18 14.2243 18ZM2.01229 0.237151C1.63851 0.237151 1.298 0.325599 0.990784 0.502494C0.688684 0.67939 0.448029 0.919462 0.268817 1.22271C0.0896057 1.52596 0 1.86459 0 2.2386C0 2.57723 0.0870456 2.91586 0.261137 3.25448C0.440348 3.59311 0.681004 3.89636 0.983103 4.16423C1.29032 4.4321 1.63338 4.62922 2.01229 4.75557C2.39119 4.62922 2.7317 4.4321 3.03379 4.16423C3.33589 3.89636 3.57399 3.59311 3.74808 3.25448C3.92729 2.91586 4.0169 2.57723 4.0169 2.2386C4.0169 1.86459 3.92729 1.52596 3.74808 1.22271C3.57399 0.919462 3.33333 0.67939 3.02611 0.502494C2.72401 0.325599 2.38607 0.237151 2.01229 0.237151ZM2.01229 1.07867C2.33487 1.07867 2.60625 1.19239 2.82642 1.41982C3.05172 1.64726 3.16436 1.92777 3.16436 2.26134C3.16436 2.58986 3.05428 2.90827 2.8341 3.21658C2.61905 3.52488 2.34511 3.73463 2.01229 3.84582C1.67947 3.73463 1.40297 3.52488 1.1828 3.21658C0.962622 2.90827 0.852535 2.58986 0.852535 2.26134C0.852535 1.92777 0.962622 1.64726 1.1828 1.41982C1.40809 1.19239 1.68459 1.07867 2.01229 1.07867Z"
		fill="currentColor"
	/>
</svg>
