<svg color="rgb(var(--foreground, 0, 0, 0))" viewBox="0 0 16 20" fill="none">
	<path
		d="M7.23052 5.69199C7.53556 5.69199 7.81264 5.61915 8.06176 5.47346C8.31596 5.32275 8.51678 5.12432 8.66422 4.87815C8.81674 4.62697 8.893 4.35067 8.893 4.04924C8.893 3.74782 8.81674 3.47403 8.66422 3.22787C8.51678 2.97668 8.31596 2.77825 8.06176 2.63256C7.81264 2.48185 7.53556 2.40649 7.23052 2.40649C6.92548 2.40649 6.64586 2.48185 6.39166 2.63256C6.14254 2.77825 5.94172 2.97668 5.7892 3.22787C5.64176 3.47403 5.56805 3.74782 5.56805 4.04924C5.56805 4.35067 5.64176 4.62697 5.7892 4.87815C5.94172 5.12432 6.14254 5.32275 6.39166 5.47346C6.64586 5.61915 6.92548 5.69199 7.23052 5.69199ZM3.20397 17.1385H6.76533C6.91277 17.1385 7.05512 17.1033 7.19239 17.033C7.32966 16.9677 7.43642 16.8622 7.51268 16.7165L9.13703 13.7626C9.16245 13.7073 9.20312 13.6822 9.25905 13.6872C9.32005 13.6872 9.36073 13.7148 9.38106 13.7701L10.2352 16.0308L7.15426 18.0578C6.97632 18.1784 6.86447 18.3442 6.81872 18.5552C6.77804 18.7662 6.81872 18.9646 6.94073 19.1505C7.05766 19.3313 7.22289 19.4419 7.43642 19.482C7.65504 19.5273 7.85586 19.4871 8.03888 19.3615L11.5392 17.0707C11.7121 16.9501 11.8366 16.8019 11.9129 16.6261C11.9943 16.4502 12.0095 16.2619 11.9587 16.0609L9.82337 7.67384C9.75728 7.42266 9.82846 7.24432 10.0369 7.13882L15.5582 4.41095C15.7564 4.3155 15.8886 4.16228 15.9547 3.95128C16.0259 3.74029 16.0132 3.53934 15.9166 3.34844C15.82 3.15251 15.6649 3.01939 15.4514 2.94905C15.2429 2.87872 15.0396 2.89379 14.8413 2.99427L3.37175 8.66854L1.5415 6.86C1.45507 6.7746 1.35847 6.69673 1.25171 6.6264L3.02858 3.54436L2.28885 3.12991L0.100178 6.91275C0.01375 7.06849 -0.0167542 7.22673 0.00866595 7.38749C0.0340861 7.54323 0.112888 7.68389 0.245073 7.80948L2.63965 10.1832C2.74641 10.2837 2.88877 10.354 3.06671 10.3942C3.24465 10.4344 3.43276 10.4042 3.63103 10.3038L6.3459 8.95489C6.4425 8.90967 6.52893 8.90465 6.60519 8.93981C6.68145 8.96996 6.72974 9.02522 6.75008 9.1056L7.56607 12.3459L6.26201 15.556H3.20397C2.98028 15.556 2.78963 15.6314 2.63202 15.7821C2.4795 15.9378 2.40324 16.1262 2.40324 16.3473C2.40324 16.5633 2.4795 16.7492 2.63202 16.9049C2.78963 17.0606 2.98028 17.1385 3.20397 17.1385ZM3.25736 3.7855C3.5624 3.7855 3.83948 3.71266 4.08859 3.56697C4.3428 3.41626 4.54361 3.21782 4.69105 2.97166C4.84357 2.72048 4.91983 2.44417 4.91983 2.14275C4.91983 1.8363 4.84357 1.56 4.69105 1.31384C4.54361 1.06768 4.3428 0.871754 4.08859 0.726066C3.83948 0.575355 3.5624 0.5 3.25736 0.5C2.94723 0.5 2.66507 0.575355 2.41087 0.726066C2.16175 0.871754 1.96347 1.06768 1.81604 1.31384C1.6686 1.56 1.59488 1.8363 1.59488 2.14275C1.59488 2.44417 1.6686 2.72048 1.81604 2.97166C1.96347 3.21782 2.16175 3.41626 2.41087 3.56697C2.66507 3.71266 2.94723 3.7855 3.25736 3.7855ZM3.25736 2.94905C3.02349 2.94905 2.82776 2.8737 2.67015 2.72299C2.51763 2.56725 2.44137 2.37384 2.44137 2.14275C2.44137 1.91166 2.51763 1.72076 2.67015 1.57005C2.82776 1.41431 3.02349 1.33645 3.25736 1.33645C3.48614 1.33645 3.67933 1.41431 3.83694 1.57005C3.99454 1.72076 4.07334 1.91166 4.07334 2.14275C4.07334 2.37384 3.99454 2.56725 3.83694 2.72299C3.67933 2.8737 3.48614 2.94905 3.25736 2.94905Z"
		fill="currentColor"
	/>
</svg>
