<svg color="rgb(var(--foreground, 0, 0, 0))" viewBox="0 0 17 14" fill="none">
	<path
		d="M13.0302 3.43322C13.3459 3.43322 13.6353 3.35728 13.8983 3.20539C14.1614 3.04826 14.3692 2.84138 14.5218 2.58474C14.6797 2.32286 14.7586 2.03479 14.7586 1.72054C14.7586 1.40105 14.6797 1.11298 14.5218 0.856341C14.3692 0.594463 14.1614 0.38758 13.8983 0.23569C13.6353 0.0785634 13.3459 0 13.0302 0C12.7092 0 12.4172 0.0785634 12.1541 0.23569C11.8963 0.38758 11.6911 0.594463 11.5385 0.856341C11.3859 1.11298 11.3097 1.40105 11.3097 1.72054C11.3097 2.03479 11.3859 2.32286 11.5385 2.58474C11.6911 2.84138 11.8963 3.04826 12.1541 3.20539C12.4172 3.35728 12.7092 3.43322 13.0302 3.43322ZM7.5608 14C7.79757 14 7.99488 13.9162 8.15273 13.7486C8.31583 13.5862 8.39739 13.3898 8.39739 13.1594V9.49832C8.39739 9.32548 8.36319 9.17621 8.29479 9.0505C8.22639 8.9248 8.13957 8.80958 8.03434 8.70483L5.59562 6.26936L8.54734 5.52301C8.621 5.5073 8.68414 5.52301 8.73676 5.57015C8.79463 5.61205 8.82357 5.66966 8.82357 5.74299V7.3064C8.82357 7.53685 8.90513 7.73326 9.06823 7.89562L11.578 10.4097C11.7411 10.572 11.941 10.6532 12.1778 10.6532C12.4146 10.6532 12.6145 10.572 12.7776 10.4097C12.9355 10.2473 13.0144 10.0509 13.0144 9.82043C13.0197 9.58474 12.9407 9.38571 12.7776 9.22334L10.4967 6.96857V5.38159L11.7595 6.81145C11.9331 7.00524 12.1436 7.10213 12.3909 7.10213H16.1713C16.4028 7.10213 16.5975 7.02095 16.7553 6.85859C16.9185 6.69622 17 6.49719 17 6.2615C17 6.03105 16.9185 5.83726 16.7553 5.68013C16.5975 5.51777 16.4028 5.43659 16.1713 5.43659H12.7776L10.7651 3.12682C10.4547 2.77067 10.0732 2.5245 9.6207 2.38833C9.17346 2.25215 8.71834 2.24168 8.25533 2.3569L3.95402 3.43322C3.53309 3.53797 3.19898 3.73176 2.95169 4.01459C2.70966 4.29218 2.55708 4.61429 2.49394 4.98092C2.43606 5.34231 2.47289 5.70632 2.60443 6.07295C2.74123 6.43434 2.978 6.75122 3.31474 7.02357L6.72422 9.789V13.1594C6.72422 13.3898 6.80577 13.5862 6.96888 13.7486C7.13199 13.9162 7.32929 14 7.5608 14ZM0.244662 13.7565C0.407769 13.9188 0.607708 14 0.844477 14C1.08125 14 1.28119 13.9188 1.44429 13.7565L4.3802 10.8339C4.45912 10.7553 4.51174 10.6768 4.53805 10.5982C4.56962 10.5144 4.59855 10.4097 4.62486 10.2839L4.81428 9.22334L2.9438 7.70707V9.89113L0.244662 12.5701C0.0815539 12.7325 0 12.9289 0 13.1594C0 13.3951 0.0815539 13.5941 0.244662 13.7565Z"
		fill="currentColor"
	/>
</svg>
