<svg color="rgb(var(--foreground, 0, 0, 0))" viewBox="0 0 19 16" fill="none">
	<path
		d="M9.93746 6.06594C10.2639 6.06594 10.5582 5.98852 10.8204 5.83369C11.088 5.67352 11.2994 5.46263 11.4546 5.20101C11.6151 4.93406 11.6954 4.64042 11.6954 4.32007C11.6954 3.99439 11.6151 3.70075 11.4546 3.43914C11.2994 3.17218 11.088 2.96129 10.8204 2.80646C10.5582 2.64629 10.2639 2.5662 9.93746 2.5662C9.61638 2.5662 9.32205 2.64629 9.05449 2.80646C8.79227 2.96129 8.58089 3.17218 8.42035 3.43914C8.26516 3.70075 8.18757 3.99439 8.18757 4.32007C8.18757 4.64042 8.26516 4.93406 8.42035 5.20101C8.58089 5.46263 8.79227 5.67352 9.05449 5.83369C9.32205 5.98852 9.61638 6.06594 9.93746 6.06594ZM6.11659 9.89402C6.57146 9.94741 6.9407 10.0435 7.22432 10.1823C7.5133 10.3158 7.76749 10.46 7.98689 10.6148C8.2063 10.7643 8.42838 10.8924 8.65313 10.9992C8.88324 11.106 9.16419 11.1594 9.49597 11.1594C9.54949 11.1594 9.5923 11.1567 9.6244 11.1514L10.4111 8.94901C10.4967 8.71409 10.6652 8.59664 10.9168 8.59664H18.0528C18.2883 8.59664 18.4889 8.51121 18.6548 8.34036C18.8261 8.16951 18.9117 7.96663 18.9117 7.73171C18.9117 7.50214 18.8261 7.30459 18.6548 7.13908C18.4889 6.96823 18.2883 6.88281 18.0528 6.88281H4.60751L3.49176 3.24693C3.42219 3.01735 3.28573 2.8465 3.08238 2.73438C2.87903 2.61692 2.66497 2.5929 2.44022 2.66231C2.21546 2.73171 2.04689 2.87053 1.93451 3.07875C1.82749 3.28697 1.80608 3.49786 1.8703 3.71143L3.12251 7.88388C3.18138 8.08142 3.28306 8.2496 3.42754 8.38841C3.57738 8.52723 3.75665 8.59664 3.96535 8.59664H6.26108C6.3467 8.59664 6.41092 8.62867 6.45373 8.69274C6.50189 8.75147 6.51259 8.82088 6.48584 8.90096L6.11659 9.89402ZM5.16941 3.00667C5.51724 3.00667 5.81157 2.88388 6.05238 2.63828C6.29854 2.39269 6.42162 2.09904 6.42162 1.75734C6.42162 1.4103 6.29854 1.11399 6.05238 0.868393C5.81157 0.622798 5.51724 0.5 5.16941 0.5C4.82157 0.5 4.52457 0.622798 4.27841 0.868393C4.0376 1.11399 3.91719 1.4103 3.91719 1.75734C3.91719 2.09904 4.0376 2.39269 4.27841 2.63828C4.52457 2.88388 4.82157 3.00667 5.16941 3.00667ZM0.449513 13.2736H1.26024C1.79538 13.2736 2.24222 13.2069 2.60076 13.0734C2.96465 12.9399 3.28573 12.7878 3.564 12.6169C3.84762 12.4407 4.12857 12.2886 4.40684 12.1604C4.68511 12.027 5.00887 11.9602 5.37811 11.9602C5.7527 11.9602 6.07914 12.027 6.35741 12.1604C6.63568 12.2886 6.91395 12.4407 7.19222 12.6169C7.47049 12.7878 7.78889 12.9399 8.14743 13.0734C8.51132 13.2069 8.96084 13.2736 9.49597 13.2736C10.0365 13.2736 10.486 13.2069 10.8445 13.0734C11.2084 12.9399 11.5295 12.7878 11.8078 12.6169C12.086 12.4407 12.3643 12.2886 12.6426 12.1604C12.9208 12.027 13.2473 11.9602 13.6219 11.9602C13.9911 11.9602 14.3149 12.027 14.5931 12.1604C14.8714 12.2886 15.1497 12.4407 15.4279 12.6169C15.7062 12.7878 16.0246 12.9399 16.3832 13.0734C16.7471 13.2069 17.1993 13.2736 17.7398 13.2736H18.5505C18.6789 13.2736 18.7859 13.2309 18.8716 13.1455C18.9572 13.0601 19 12.956 19 12.8332C19 12.705 18.9572 12.5982 18.8716 12.5128C18.7859 12.4274 18.6789 12.3847 18.5505 12.3847H17.7398C17.3545 12.3847 17.0173 12.3179 16.7284 12.1845C16.4394 12.051 16.1531 11.8988 15.8694 11.728C15.5912 11.5518 15.2754 11.3996 14.9222 11.2715C14.5691 11.138 14.1356 11.0713 13.6219 11.0713C13.1028 11.0713 12.6666 11.138 12.3135 11.2715C11.9603 11.3996 11.6419 11.5518 11.3582 11.728C11.08 11.8988 10.7964 12.051 10.5074 12.1845C10.2184 12.3179 9.88127 12.3847 9.49597 12.3847C9.11067 12.3847 8.77354 12.3179 8.48457 12.1845C8.19559 12.051 7.9093 11.8988 7.62568 11.728C7.3474 11.5518 7.03168 11.3996 6.67849 11.2715C6.3253 11.138 5.89184 11.0713 5.37811 11.0713C4.86438 11.0713 4.43092 11.138 4.07773 11.2715C3.72454 11.3996 3.40614 11.5518 3.12251 11.728C2.84424 11.8988 2.56062 12.051 2.27165 12.1845C1.98268 12.3179 1.64554 12.3847 1.26024 12.3847H0.449513C0.321081 12.3847 0.214054 12.4274 0.128432 12.5128C0.0428108 12.5982 0 12.705 0 12.8332C0 12.956 0.0428108 13.0601 0.128432 13.1455C0.214054 13.2309 0.321081 13.2736 0.449513 13.2736ZM0.658216 15.5C0.792 15.5 0.904378 15.4546 0.995351 15.3639C1.08632 15.2731 1.13181 15.161 1.13181 15.0275C1.13181 14.8994 1.08632 14.7899 0.995351 14.6991C0.904378 14.6084 0.792 14.563 0.658216 14.563C0.529784 14.563 0.420081 14.6084 0.329108 14.6991C0.238135 14.7899 0.192649 14.8994 0.192649 15.0275C0.192649 15.161 0.238135 15.2731 0.329108 15.3639C0.420081 15.4546 0.529784 15.5 0.658216 15.5ZM2.1673 15.2277C2.29573 15.2277 2.40543 15.1823 2.4964 15.0916C2.58738 15.0008 2.63286 14.8914 2.63286 14.7632C2.63286 14.6297 2.58738 14.5176 2.4964 14.4269C2.40543 14.3361 2.29573 14.2907 2.1673 14.2907C2.03351 14.2907 1.92113 14.3361 1.83016 14.4269C1.73919 14.5176 1.6937 14.6297 1.6937 14.7632C1.6937 14.8914 1.73919 15.0008 1.83016 15.0916C1.92113 15.1823 2.03351 15.2277 2.1673 15.2277ZM3.57203 14.563C3.70581 14.563 3.81819 14.5176 3.90916 14.4269C4.00014 14.3414 4.04562 14.232 4.04562 14.0985C4.04562 13.9704 4.00014 13.8609 3.90916 13.7702C3.81819 13.6794 3.70581 13.634 3.57203 13.634C3.4436 13.634 3.33389 13.6794 3.24292 13.7702C3.15195 13.8609 3.10646 13.9704 3.10646 14.0985C3.10646 14.232 3.15195 14.3414 3.24292 14.4269C3.33389 14.5176 3.4436 14.563 3.57203 14.563ZM5.08914 14.2106C5.22292 14.2106 5.3353 14.1652 5.42627 14.0745C5.51724 13.9837 5.56273 13.8716 5.56273 13.7381C5.56273 13.61 5.51724 13.5005 5.42627 13.4098C5.3353 13.319 5.22292 13.2736 5.08914 13.2736C4.9607 13.2736 4.851 13.319 4.76003 13.4098C4.66905 13.5005 4.62357 13.61 4.62357 13.7381C4.62357 13.8716 4.66905 13.9837 4.76003 14.0745C4.851 14.1652 4.9607 14.2106 5.08914 14.2106ZM6.60624 14.563C6.73468 14.563 6.84438 14.5176 6.93535 14.4269C7.02632 14.3414 7.07181 14.232 7.07181 14.0985C7.07181 13.9704 7.02632 13.8609 6.93535 13.7702C6.84438 13.6794 6.73468 13.634 6.60624 13.634C6.47246 13.634 6.36008 13.6794 6.26911 13.7702C6.18349 13.8609 6.14068 13.9704 6.14068 14.0985C6.14068 14.232 6.18349 14.3414 6.26911 14.4269C6.36008 14.5176 6.47246 14.563 6.60624 14.563ZM8.02703 15.2277C8.16081 15.2277 8.27319 15.1823 8.36416 15.0916C8.45513 15.0008 8.50062 14.8914 8.50062 14.7632C8.50062 14.6297 8.45513 14.5176 8.36416 14.4269C8.27319 14.3361 8.16081 14.2907 8.02703 14.2907C7.89859 14.2907 7.78889 14.3361 7.69792 14.4269C7.60695 14.5176 7.56146 14.6297 7.56146 14.7632C7.56146 14.8914 7.60695 15.0008 7.69792 15.0916C7.78889 15.1823 7.89859 15.2277 8.02703 15.2277ZM9.51203 15.5C9.64046 15.5 9.75016 15.4546 9.84113 15.3639C9.93211 15.2731 9.97759 15.161 9.97759 15.0275C9.97759 14.8994 9.93211 14.7899 9.84113 14.6991C9.75016 14.6084 9.64046 14.563 9.51203 14.563C9.37824 14.563 9.26586 14.6084 9.17489 14.6991C9.08392 14.7899 9.03843 14.8994 9.03843 15.0275C9.03843 15.161 9.08392 15.2731 9.17489 15.3639C9.26586 15.4546 9.37824 15.5 9.51203 15.5ZM10.989 15.2277C11.1228 15.2277 11.2325 15.1823 11.3181 15.0916C11.4091 15.0008 11.4546 14.8914 11.4546 14.7632C11.4546 14.6297 11.4091 14.5176 11.3181 14.4269C11.2325 14.3361 11.1228 14.2907 10.989 14.2907C10.8606 14.2907 10.7509 14.3361 10.6599 14.4269C10.5689 14.5176 10.5234 14.6297 10.5234 14.7632C10.5234 14.8914 10.5689 15.0008 10.6599 15.0916C10.7509 15.1823 10.8606 15.2277 10.989 15.2277ZM12.4098 14.563C12.5436 14.563 12.6559 14.5176 12.7469 14.4269C12.8379 14.3414 12.8834 14.232 12.8834 14.0985C12.8834 13.9704 12.8379 13.8609 12.7469 13.7702C12.6559 13.6794 12.5436 13.634 12.4098 13.634C12.2813 13.634 12.1716 13.6794 12.0807 13.7702C11.9897 13.8609 11.9442 13.9704 11.9442 14.0985C11.9442 14.232 11.9897 14.3414 12.0807 14.4269C12.1716 14.5176 12.2813 14.563 12.4098 14.563ZM13.9269 14.2106C14.0607 14.2106 14.1704 14.1652 14.256 14.0745C14.347 13.9837 14.3925 13.8716 14.3925 13.7381C14.3925 13.61 14.347 13.5005 14.256 13.4098C14.1704 13.319 14.0607 13.2736 13.9269 13.2736C13.7985 13.2736 13.6888 13.319 13.5978 13.4098C13.5068 13.5005 13.4613 13.61 13.4613 13.7381C13.4613 13.8716 13.5068 13.9837 13.5978 14.0745C13.6888 14.1652 13.7985 14.2106 13.9269 14.2106ZM15.444 14.563C15.5778 14.563 15.6875 14.5176 15.7731 14.4269C15.8641 14.3414 15.9096 14.232 15.9096 14.0985C15.9096 13.9704 15.8641 13.8609 15.7731 13.7702C15.6875 13.6794 15.5778 13.634 15.444 13.634C15.3156 13.634 15.2059 13.6794 15.1149 13.7702C15.0239 13.8609 14.9784 13.9704 14.9784 14.0985C14.9784 14.232 15.0239 14.3414 15.1149 14.4269C15.2059 14.5176 15.3156 14.563 15.444 14.563ZM16.8568 15.2277C16.9852 15.2277 17.0949 15.1823 17.1859 15.0916C17.2769 15.0008 17.3224 14.8914 17.3224 14.7632C17.3224 14.6297 17.2769 14.5176 17.1859 14.4269C17.0949 14.3361 16.9852 14.2907 16.8568 14.2907C16.723 14.2907 16.6106 14.3361 16.5196 14.4269C16.434 14.5176 16.3912 14.6297 16.3912 14.7632C16.3912 14.8914 16.434 15.0008 16.5196 15.0916C16.6106 15.1823 16.723 15.2277 16.8568 15.2277ZM18.3498 15.5C18.4836 15.5 18.596 15.4546 18.6869 15.3639C18.7779 15.2731 18.8234 15.161 18.8234 15.0275C18.8234 14.8994 18.7779 14.7899 18.6869 14.6991C18.596 14.6084 18.4836 14.563 18.3498 14.563C18.2214 14.563 18.1117 14.6084 18.0207 14.6991C17.9297 14.7899 17.8842 14.8994 17.8842 15.0275C17.8842 15.161 17.9297 15.2731 18.0207 15.3639C18.1117 15.4546 18.2214 15.5 18.3498 15.5Z"
		fill="currentColor"
	/>
</svg>
