<svg color="rgb(var(--foreground, 0, 0, 0))" viewBox="0 0 17 16" fill="none">
	<path
		d="M11.2916 3.80727C11.6022 3.80727 11.8844 3.73411 12.1381 3.58779C12.3969 3.43643 12.6014 3.23713 12.7516 2.98991C12.9069 2.73764 12.9845 2.46014 12.9845 2.15742C12.9845 1.84965 12.9069 1.57215 12.7516 1.32492C12.6014 1.07265 12.3969 0.87336 12.1381 0.727043C11.8844 0.575681 11.6022 0.5 11.2916 0.5C10.9758 0.5 10.6885 0.575681 10.4296 0.727043C10.1759 0.87336 9.97145 1.07265 9.81614 1.32492C9.666 1.57215 9.59093 1.84965 9.59093 2.15742C9.59093 2.46014 9.666 2.73764 9.81614 2.98991C9.97145 3.23713 10.1759 3.43643 10.4296 3.58779C10.6885 3.73411 10.9758 3.80727 11.2916 3.80727ZM5.21108 13.7215C5.39228 13.8325 5.59419 13.8628 5.81681 13.8123C6.0446 13.7619 6.21804 13.6458 6.33711 13.4642L8.24747 10.4823L10.3209 10.5959L9.02404 12.6165C8.89979 12.8032 8.86096 13.0076 8.90755 13.2296C8.95932 13.4516 9.08358 13.6155 9.28031 13.7215C9.47704 13.8325 9.68153 13.8628 9.8938 13.8123C10.1112 13.7669 10.2795 13.6509 10.3986 13.4642L12.4099 10.331C12.5186 10.1594 12.5626 9.98285 12.5419 9.80121C12.5212 9.61453 12.4409 9.45308 12.3012 9.31685C12.1666 9.18062 11.975 9.0999 11.7265 9.07467L8.33289 8.70383C8.16722 8.6887 8.05592 8.61302 7.99897 8.47679C7.9472 8.33552 7.96273 8.20686 8.04556 8.09082L9.45115 6.03229C9.49257 5.9667 9.5521 5.92634 9.62976 5.9112C9.70742 5.89102 9.7799 5.90111 9.8472 5.94147L14.9958 8.96115C15.1822 9.0671 15.3867 9.09485 15.6093 9.0444C15.8371 8.99395 16.0054 8.8779 16.1141 8.69627C16.2228 8.4995 16.2513 8.29516 16.1995 8.08325C16.1478 7.87134 16.0235 7.70989 15.8268 7.59889L5.65373 1.64279C5.52948 1.57719 5.39228 1.5444 5.24215 1.5444H1.98056C1.75277 1.5444 1.55862 1.62008 1.39813 1.77144C1.23764 1.92281 1.1574 2.10696 1.1574 2.32392C1.1574 2.54087 1.23764 2.72755 1.39813 2.88396C1.55862 3.04036 1.75277 3.11857 1.98056 3.11857H5.00918L6.4303 3.95106C6.6115 4.05197 6.64515 4.19072 6.53125 4.36731L4.76844 6.94046C4.53029 7.28355 4.39569 7.6443 4.36462 8.0227C4.33356 8.40111 4.3931 8.75933 4.54324 9.09738C4.69855 9.43542 4.93152 9.72301 5.24215 9.96014C5.55795 10.1922 5.93847 10.3335 6.3837 10.384L4.94705 12.6165C4.82798 12.8032 4.79174 13.005 4.83833 13.222C4.8901 13.439 5.01435 13.6054 5.21108 13.7215ZM2.31448 15.5H14.693C15.1279 15.5 15.5213 15.4521 15.8734 15.3562C16.2306 15.2603 16.5464 15.0964 16.8208 14.8643C16.9399 14.7684 16.9994 14.665 16.9994 14.554C17.0046 14.448 16.9761 14.3522 16.914 14.2664C16.8467 14.1806 16.7509 14.1251 16.6266 14.0999C16.5076 14.0797 16.3885 14.115 16.2694 14.2059C16.0623 14.3673 15.8397 14.4833 15.6016 14.554C15.3634 14.6246 15.0606 14.6599 14.693 14.6599H2.31448C1.94691 14.6599 1.64405 14.6246 1.4059 14.554C1.16775 14.4833 0.945136 14.3673 0.738051 14.2059C0.624154 14.1251 0.510257 14.0898 0.396361 14.0999C0.287641 14.11 0.19963 14.1504 0.132327 14.221C0.0494933 14.3017 0.00548775 14.4026 0.000310627 14.5237C-0.0048665 14.6448 0.0546704 14.7583 0.178921 14.8643C0.458486 15.0964 0.77429 15.2603 1.12633 15.3562C1.48356 15.4521 1.87961 15.5 2.31448 15.5Z"
		fill="currentColor"
	/>
</svg>
