<svg color="rgb(var(--foreground, 0, 0, 0))" viewBox="0 0 24 8" fill="none">
	<path
		d="M3.2035 3.35707C3.52828 3.35707 3.82111 3.28264 4.082 3.13378C4.34821 2.98492 4.55852 2.78473 4.71292 2.53321C4.86733 2.27655 4.94453 1.99166 4.94453 1.67854C4.94453 1.37055 4.86733 1.09079 4.71292 0.839269C4.55852 0.582612 4.34821 0.379852 4.082 0.230991C3.82111 0.0769971 3.52828 0 3.2035 0C2.88405 0 2.59121 0.0769971 2.325 0.230991C2.06411 0.379852 1.85647 0.582612 1.70206 0.839269C1.54766 1.09079 1.47046 1.37055 1.47046 1.67854C1.47046 1.99166 1.54766 2.27655 1.70206 2.53321C1.85647 2.78473 2.06411 2.98492 2.325 3.13378C2.59121 3.28264 2.88405 3.35707 3.2035 3.35707ZM8.42659 8H10.7107C11.3389 8 11.8261 7.89734 12.1722 7.69201C12.5236 7.48669 12.7579 7.21463 12.875 6.87584C12.9975 6.53192 13.0321 6.16234 12.9788 5.76708L12.4517 1.72474H16.5487C16.7777 1.72474 16.972 1.64774 17.1317 1.49374C17.2915 1.33462 17.3713 1.14469 17.3713 0.923965C17.3713 0.70324 17.2915 0.518447 17.1317 0.369586C16.972 0.215592 16.7777 0.138595 16.5487 0.138595H11.4374C11.2032 0.138595 11.0062 0.215592 10.8465 0.369586C10.6867 0.518447 10.6069 0.726339 10.6069 0.993263V5.07411H9.2412C8.87915 5.07411 8.54904 5.00995 8.25089 4.88162C7.95805 4.75329 7.72378 4.5531 7.54808 4.28104C7.44692 4.12705 7.47088 3.96792 7.61996 3.80366L9.67246 1.45525C9.83219 1.27559 9.90407 1.08309 9.88809 0.877767C9.87212 0.672441 9.78959 0.497915 9.64051 0.354187C9.49676 0.210459 9.30775 0.138595 9.07348 0.138595H6.1904C5.96146 0.138595 5.76712 0.215592 5.6074 0.369586C5.44767 0.518447 5.36781 0.70324 5.36781 0.923965C5.36781 1.14982 5.44501 1.33975 5.59941 1.49374C5.75914 1.64774 5.95614 1.72474 6.1904 1.72474H7.35641L6.15846 3.08758C5.73252 3.57523 5.30392 3.99615 4.87265 4.35034C4.44139 4.70452 3.9063 5.01764 3.26739 5.2897L2.02152 5.82868L2.41285 4.49663C2.47674 4.27591 2.4448 4.07315 2.31701 3.88835C2.19456 3.69843 2.02951 3.58037 1.82186 3.53417C1.59824 3.4777 1.38793 3.50594 1.19094 3.61886C0.99394 3.73179 0.86882 3.89092 0.815578 4.09625L0.0408999 7.01444C-0.0283153 7.27623 -0.00968044 7.49182 0.0968044 7.66121C0.208614 7.82547 0.371003 7.9307 0.583973 7.9769C0.796943 8.0231 1.02056 7.99743 1.25483 7.8999L3.83442 6.79884C3.96753 6.74751 4.07668 6.72698 4.16187 6.73725C4.25238 6.74238 4.34821 6.78345 4.44937 6.86044C4.86467 7.19923 5.40241 7.47385 6.06262 7.68431C6.72815 7.89477 7.51614 8 8.42659 8ZM17.2435 6.21367H23.1774C23.4063 6.21367 23.6007 6.13667 23.7604 5.98268C23.9201 5.82868 24 5.63875 24 5.4129C24 5.19217 23.9201 5.00481 23.7604 4.85082C23.6007 4.69682 23.4063 4.61983 23.1774 4.61983H17.1637C17.1317 4.61983 17.0945 4.61983 17.0519 4.61983C17.0146 4.61983 16.9747 4.62239 16.9321 4.62753L13.6417 4.88932L13.7535 5.65929C13.8121 6.12127 13.7961 6.53449 13.7056 6.89894L17.2435 6.21367Z"
		fill="currentColor"
	/>
</svg>
