<svg color="rgb(var(--foreground, 0, 0, 0))" viewBox="0 0 11 22" fill="none">
	<path
		d="M5.5 5.97131C5.82145 5.97131 6.11293 5.8931 6.37444 5.73667C6.64141 5.58024 6.85389 5.36987 7.01189 5.10555C7.16989 4.84124 7.24889 4.54726 7.24889 4.22361C7.24889 3.90536 7.16989 3.61677 7.01189 3.35785C6.85389 3.09354 6.64141 2.88317 6.37444 2.72674C6.11293 2.57031 5.82145 2.49209 5.5 2.49209C5.17311 2.49209 4.87618 2.57031 4.60921 2.72674C4.34225 2.88317 4.12977 3.09354 3.97177 3.35785C3.81377 3.61677 3.73477 3.90536 3.73477 4.22361C3.73477 4.54726 3.81377 4.84124 3.97177 5.10555C4.12977 5.36987 4.34225 5.58024 4.60921 5.73667C4.87618 5.8931 5.17311 5.97131 5.5 5.97131ZM4.31501 22C4.52749 22 4.71273 21.9218 4.87073 21.7654C5.02873 21.6089 5.10773 21.4255 5.10773 21.2152V16.9754L5.5 13.8279L5.8841 16.9754V21.2152C5.8841 21.4255 5.9631 21.6089 6.1211 21.7654C6.2791 21.9218 6.46434 22 6.67682 22C6.89475 22 7.07999 21.9218 7.23254 21.7654C7.39054 21.6089 7.46954 21.4255 7.46954 21.2152V9.92792C7.46954 9.87937 7.49133 9.8524 7.53492 9.847C7.58395 9.83622 7.61937 9.8524 7.64116 9.89555C7.9735 10.5051 8.25954 11.085 8.49926 11.6352C8.74443 12.18 8.94601 12.6627 9.10401 13.0835C9.26746 13.5042 9.38732 13.8333 9.4636 14.0706C9.53987 14.2702 9.67335 14.4185 9.86404 14.5156C10.0602 14.6127 10.2618 14.6262 10.4688 14.5561C10.6322 14.5021 10.7603 14.4077 10.8529 14.2729C10.951 14.1326 11 13.9816 11 13.8198C11 13.7281 10.9864 13.6445 10.9591 13.569C10.9482 13.5366 10.8883 13.3694 10.7793 13.0673C10.6704 12.7598 10.5206 12.3715 10.3299 11.9022C10.1392 11.4275 9.91308 10.9204 9.65156 10.381C9.39549 9.83622 9.11219 9.30759 8.80164 8.79515C8.49653 8.2827 8.17509 7.83499 7.8373 7.452C7.65751 7.24703 7.43958 7.0879 7.18351 6.97462C6.93289 6.86135 6.6632 6.80471 6.37444 6.80471H4.61739C4.33408 6.80471 4.06439 6.86135 3.80832 6.97462C3.55225 7.0879 3.33705 7.24703 3.1627 7.452C2.81947 7.83499 2.49257 8.2827 2.18202 8.79515C1.87692 9.30759 1.59634 9.83622 1.34027 10.381C1.0842 10.9204 0.860822 11.4275 0.670134 11.9022C0.479445 12.3715 0.329619 12.7598 0.220654 13.0673C0.111689 13.3694 0.0517583 13.5366 0.0408618 13.569C0.0136206 13.6445 0 13.7308 0 13.8279C0 13.9897 0.0463101 14.138 0.13893 14.2729C0.236999 14.4077 0.367756 14.5021 0.531204 14.5561C0.732789 14.6262 0.93165 14.6127 1.12779 14.5156C1.32392 14.4185 1.4574 14.2702 1.52823 14.0706C1.60996 13.8333 1.72982 13.5042 1.88782 13.0835C2.04582 12.6627 2.24468 12.18 2.4844 11.6352C2.72957 11.085 3.02105 10.5051 3.35884 9.89555C3.37519 9.8524 3.40788 9.83622 3.45691 9.847C3.50594 9.8524 3.53046 9.87937 3.53046 9.92792V21.2152C3.53046 21.4255 3.60674 21.6089 3.75929 21.7654C3.91729 21.9218 4.10253 22 4.31501 22ZM5.5 0.898124C6.47524 0.898124 7.30337 1.18671 7.9844 1.76388C8.67088 2.33566 9.19391 3.16636 9.55349 4.25598C9.91308 5.3402 10.0929 6.65367 10.0929 8.1964V13.8279H11V8.1964C11 6.45948 10.7848 4.98149 10.3544 3.76241C9.92942 2.53794 9.3056 1.60476 8.48291 0.962854C7.66568 0.320951 6.67137 0 5.5 0C4.32863 0 3.33432 0.320951 2.51709 0.962854C1.69985 1.60476 1.07603 2.53794 0.645617 3.76241C0.220654 4.98149 0.00817236 6.45948 0.00817236 8.1964V13.836H0.915305V8.1964C0.915305 6.65367 1.09237 5.3402 1.44651 4.25598C1.80609 3.16636 2.3264 2.33566 3.00743 1.76388C3.69391 1.18671 4.52477 0.898124 5.5 0.898124Z"
		fill="currentColor"
	/>
</svg>
