<svg color="rgb(var(--foreground, 0, 0, 0))" viewBox="0 0 16 18" fill="none">
	<path
		d="M12.6374 3.42624C12.9531 3.42624 13.2399 3.35027 13.4978 3.19834C13.7556 3.04118 13.9609 2.83424 14.1135 2.57754C14.2713 2.31559 14.3503 2.02483 14.3503 1.70526C14.3503 1.39093 14.2713 1.10541 14.1135 0.848701C13.9609 0.591995 13.7556 0.387678 13.4978 0.23575C13.2399 0.0785834 12.9531 0 12.6374 0C12.3164 0 12.0243 0.0785834 11.7612 0.23575C11.5034 0.387678 11.2955 0.591995 11.1376 0.848701C10.985 1.10541 10.9087 1.39093 10.9087 1.70526C10.9087 2.02483 10.985 2.31559 11.1376 2.57754C11.2955 2.83424 11.5034 3.04118 11.7612 3.19834C12.0243 3.35027 12.3164 3.42624 12.6374 3.42624ZM6.53577 10.0508L10.5535 13.0999L9.30636 16.9347C9.2169 17.2124 9.23795 17.4429 9.36951 17.6263C9.50633 17.8096 9.67999 17.9275 9.89048 17.9799C10.0747 18.0218 10.2615 17.9982 10.4509 17.9092C10.6404 17.8201 10.7772 17.6472 10.8614 17.3905L12.2585 13.092C12.3111 12.9348 12.3217 12.7777 12.2901 12.6205C12.2638 12.4633 12.1954 12.3324 12.0849 12.2276L9.3853 9.54003L12.4874 6.44384C12.5558 6.37573 12.6348 6.34168 12.7242 6.34168C12.8137 6.34168 12.8926 6.37573 12.961 6.44384L14.0345 7.50471L12.5664 8.96637C12.4032 9.12877 12.3217 9.32261 12.3217 9.54788C12.3269 9.77316 12.4085 9.96438 12.5664 10.1215C12.7137 10.2682 12.9005 10.3468 13.1268 10.3573C13.3583 10.3625 13.5557 10.2839 13.7188 10.1215L15.7632 8.08623C15.9211 7.92383 16 7.73261 16 7.51257C16 7.29254 15.9211 7.10132 15.7632 6.93891L13.7898 4.95861C13.3162 4.48711 12.7426 4.25136 12.0691 4.25136H2.58905C2.36803 4.25136 2.17596 4.32995 2.01283 4.48711C1.85496 4.64428 1.77602 4.8355 1.77602 5.06077C1.77602 5.28604 1.85496 5.47988 2.01283 5.64229C2.17596 5.79946 2.36803 5.87804 2.58905 5.87804H8.03552C8.17234 5.87804 8.26443 5.93567 8.31179 6.05092C8.36441 6.16094 8.34073 6.2631 8.24075 6.3574L6.66206 7.92907C6.42526 8.16481 6.27265 8.42414 6.20424 8.70704C6.13583 8.98994 6.1332 9.25451 6.19635 9.50073C6.2595 9.74696 6.37263 9.93032 6.53577 10.0508ZM6.29896 10.8209L5.90429 13.2099H2.12334C1.88653 13.2099 1.6892 13.2911 1.53133 13.4535C1.37346 13.6106 1.29452 13.8019 1.29452 14.0271C1.29452 14.2524 1.37346 14.4436 1.53133 14.6008C1.6892 14.758 1.88653 14.8365 2.12334 14.8365H6.55945C6.99095 14.8365 7.26459 14.6401 7.38036 14.2472L8.01973 12.1333L6.29896 10.8209ZM1.77602 8.59702C2.10229 8.59702 2.39961 8.51844 2.66798 8.36127C2.93636 8.19887 3.14948 7.98407 3.30735 7.71689C3.47048 7.44971 3.55205 7.15371 3.55205 6.8289C3.55205 6.50409 3.47048 6.20809 3.30735 5.94091C3.14948 5.67372 2.93636 5.46155 2.66798 5.30438C2.39961 5.14197 2.10229 5.06077 1.77602 5.06077C1.44976 5.06077 1.15244 5.14197 0.884065 5.30438C0.615688 5.46155 0.399934 5.67372 0.236803 5.94091C0.0789344 6.20809 0 6.50409 0 6.8289C0 7.15371 0.0789344 7.44971 0.236803 7.71689C0.399934 7.98407 0.615688 8.19887 0.884065 8.36127C1.15244 8.51844 1.44976 8.59702 1.77602 8.59702Z"
		fill="currentColor"
	/>
</svg>
