<svg color="rgb(var(--foreground, 0, 0, 0))" viewBox="0 0 13 20" fill="none">
	<path
		d="M4.48786 6.45217C4.79844 6.45217 5.08314 6.37573 5.34196 6.22286C5.60078 6.06472 5.80524 5.85387 5.95536 5.5903C6.11065 5.32673 6.1883 5.03417 6.1883 4.71261C6.1883 4.39633 6.11065 4.10904 5.95536 3.85074C5.80524 3.58717 5.60078 3.37895 5.34196 3.22608C5.08314 3.07321 4.79844 2.99678 4.48786 2.99678C4.17728 2.99678 3.89257 3.07321 3.63376 3.22608C3.38011 3.37895 3.17565 3.58717 3.02036 3.85074C2.87024 4.10904 2.79518 4.39633 2.79518 4.71261C2.79518 5.03417 2.87024 5.32673 3.02036 5.5903C3.17565 5.85387 3.38011 6.06472 3.63376 6.22286C3.89257 6.37573 4.17728 6.45217 4.48786 6.45217ZM0 10.3029C0 10.5085 0.0595283 10.6745 0.178585 10.8011C0.297642 10.9276 0.44258 11.0066 0.6134 11.0383C0.789397 11.0699 0.957569 11.0435 1.11804 10.9592L3.83563 9.56755C3.90293 9.53592 3.96763 9.53592 4.02975 9.56755C4.09187 9.59918 4.13069 9.64926 4.14622 9.71779L4.9382 12.9439L3.69587 16.1067H0.768692C0.55646 16.1067 0.375287 16.1805 0.225172 16.3281C0.0750574 16.481 0 16.6655 0 16.8816C0 17.0977 0.0750574 17.2796 0.225172 17.4272C0.375287 17.58 0.55646 17.6565 0.768692 17.6565H4.16951C4.5008 17.6565 4.74668 17.5036 4.90714 17.1979L6.561 14.0825L7.48498 16.5653L4.54997 18.5737C4.37398 18.6949 4.26527 18.861 4.22386 19.0718C4.18245 19.2827 4.21869 19.4751 4.33257 19.6491C4.45162 19.823 4.6095 19.9337 4.8062 19.9812C5.00808 20.0286 5.2022 19.9864 5.38855 19.8546L8.85931 17.5063C8.99389 17.4166 9.08707 17.3007 9.13883 17.1583C9.19577 17.0213 9.19318 16.8341 9.13107 16.5969L7.08122 8.25498C7.03463 8.05467 7.09934 7.9097 7.27533 7.82009L12.5708 5.12378C12.7623 5.0289 12.8917 4.87866 12.959 4.67308C13.0263 4.46749 13.0108 4.26982 12.9124 4.08005C12.8192 3.88501 12.6717 3.75586 12.4698 3.6926C12.2731 3.62407 12.079 3.63725 11.8875 3.73214L1.52956 9.00615V6.3731C1.52956 6.15697 1.4545 5.97511 1.30439 5.82751C1.15945 5.67464 0.980923 5.5982 0.768692 5.5982C0.55646 5.5982 0.375287 5.67464 0.225172 5.82751C0.0750574 5.97511 0 6.15697 0 6.3731V10.3029ZM10.7073 3.06004C11.1214 3.06004 11.4734 2.91244 11.7633 2.61724C12.0583 2.31677 12.2058 1.95568 12.2058 1.53397C12.2058 1.25459 12.1385 0.998926 12.004 0.766986C11.8694 0.535045 11.6882 0.350547 11.4604 0.213491C11.2327 0.0711636 10.9816 0 10.7073 0C10.4277 0 10.1741 0.0711636 9.94634 0.213491C9.71858 0.350547 9.53741 0.535045 9.40282 0.766986C9.26824 0.998926 9.20095 1.25459 9.20095 1.53397C9.20095 1.95568 9.34588 2.31677 9.63576 2.61724C9.93081 2.91244 10.288 3.06004 10.7073 3.06004Z"
		fill="currentColor"
	/>
</svg>
