<svg viewBox="0 0 12 20" fill="none" color="rgb(var(--foreground, 0, 0, 0))">
	<path
		d="M6.70267 3.5356C7.0276 3.5356 7.32274 3.45739 7.5881 3.30097C7.85888 3.13916 8.07279 2.92341 8.22984 2.65372C8.38689 2.38403 8.46541 2.08468 8.46541 1.75566C8.46541 1.43204 8.38689 1.13808 8.22984 0.873786C8.07279 0.609493 7.85888 0.399137 7.5881 0.242718C7.32274 0.0809062 7.0276 0 6.70267 0C6.37233 0 6.07177 0.0809062 5.80099 0.242718C5.53022 0.399137 5.3136 0.609493 5.15114 0.873786C4.99409 1.13808 4.91556 1.43204 4.91556 1.75566C4.91556 2.08468 4.99409 2.38403 5.15114 2.65372C5.3136 2.92341 5.53022 3.13916 5.80099 3.30097C6.07177 3.45739 6.37233 3.5356 6.70267 3.5356ZM8.6035 8.26052C8.76597 8.43312 8.97988 8.51133 9.24524 8.49515C9.51601 8.47896 9.72451 8.35491 9.87073 8.12298L11.8447 4.96764C11.9963 4.72492 12.0369 4.50378 11.9665 4.30421C11.9015 4.10464 11.777 3.95092 11.5928 3.84304C11.4087 3.73517 11.2084 3.69741 10.9917 3.72977C10.7805 3.76214 10.6045 3.88889 10.4637 4.11003L9.03403 6.40777L7.91303 5.28317C7.37148 4.74919 6.79203 4.40939 6.17466 4.26375C5.5573 4.11812 4.83704 4.09115 4.01389 4.18285L1.12202 4.50647C0.937893 4.52805 0.778137 4.60626 0.64275 4.7411C0.512778 4.87055 0.436962 5.02427 0.4153 5.20227L0.00913862 8.38188C-0.0233543 8.64078 0.0308005 8.84574 0.171603 8.99676C0.317821 9.14779 0.496532 9.23948 0.707735 9.27184C0.918939 9.30421 1.1139 9.26645 1.29261 9.15858C1.47132 9.04531 1.57692 8.85113 1.60941 8.57605L1.93434 6.0356L3.44526 5.8657C3.55357 5.85491 3.63751 5.88457 3.69708 5.95469C3.76207 6.01942 3.78644 6.10841 3.77019 6.22168L3.3884 9.33657C3.29633 10.0701 3.44526 10.6365 3.83517 11.0356C4.22509 11.4347 4.78559 11.6073 5.51668 11.5534L8.50603 11.343L7.61247 14.5874C7.53665 14.8625 7.55832 15.089 7.67746 15.267C7.80201 15.4396 7.96719 15.5529 8.17297 15.6068C8.38418 15.6553 8.58726 15.6338 8.78222 15.5421C8.97717 15.445 9.10985 15.2643 9.18025 15L10.3581 10.6796C10.4339 10.4045 10.3879 10.1672 10.22 9.96764C10.0576 9.76268 9.82199 9.66019 9.5133 9.66019H6.42648L6.8164 7.00647C6.83264 6.87702 6.8868 6.8069 6.97886 6.79612C7.07634 6.78533 7.16299 6.82039 7.2388 6.90129L8.6035 8.26052ZM4.1926 12.1683L3.99764 15.0485L2.47047 18.8511C2.38383 19.0777 2.36758 19.2772 2.42173 19.4498C2.4813 19.6224 2.58149 19.7573 2.72229 19.8544C2.86851 19.9515 3.02556 20 3.19344 20C3.35049 20 3.50212 19.9542 3.64834 19.8625C3.79456 19.7762 3.90828 19.6305 3.98952 19.4256L5.54917 15.5259C5.56 15.4935 5.56813 15.4639 5.57354 15.4369C5.58437 15.4045 5.5925 15.3749 5.59791 15.3479L6.05281 12.3058L5.57354 12.3382C5.06449 12.3706 4.60417 12.3139 4.1926 12.1683Z"
		fill="currentColor"
	/>
</svg>
