<svg viewBox="0 0 16 22" fill="none" color="rgb(var(--foreground, 0, 0, 0))">
	<path
		d="M14.3419 7.46596C14.6476 7.46596 14.9252 7.39054 15.1748 7.23972C15.4295 7.08889 15.6307 6.88345 15.7784 6.6234C15.9261 6.36336 16 6.0773 16 5.76525C16 5.45319 15.9261 5.16974 15.7784 4.91489C15.6307 4.65485 15.4295 4.44941 15.1748 4.29858C14.9252 4.14775 14.6476 4.07234 14.3419 4.07234C14.0312 4.07234 13.7485 4.14775 13.4938 4.29858C13.2442 4.44941 13.043 4.65485 12.8902 4.91489C12.7424 5.16974 12.6686 5.45319 12.6686 5.76525C12.6686 6.0773 12.7424 6.36336 12.8902 6.6234C13.043 6.88345 13.2442 7.08889 13.4938 7.23972C13.7485 7.39054 14.0312 7.46596 14.3419 7.46596ZM0.78701 9.60355H4.59216L6.93027 11.7723C6.98121 11.8191 6.99649 11.8712 6.97612 11.9284C6.95574 11.9804 6.91244 12.0064 6.84622 12.0064H4.17956C4.0624 12.0064 3.94778 12.022 3.83572 12.0532C3.72874 12.0844 3.63705 12.1416 3.56065 12.2248L0.725883 15.1269C0.573065 15.2882 0.49411 15.478 0.489016 15.6965C0.489016 15.9097 0.567971 16.0969 0.725883 16.2582C0.8787 16.4142 1.06208 16.4922 1.27603 16.4922C1.49506 16.4922 1.68099 16.4142 1.83381 16.2582L4.37822 13.6603L7.48806 14.183C7.98726 14.2662 8.47627 14.2324 8.9551 14.0816C9.43393 13.9255 9.85418 13.6603 10.2158 13.2858L11.9732 11.4993C12.0446 11.4213 12.121 11.4005 12.2025 11.4369C12.284 11.4681 12.3247 11.5357 12.3247 11.6397V12.8723L10.2082 15.0333C10.0554 15.1894 9.97898 15.3792 9.97898 15.6028C9.98407 15.8213 10.0605 16.0085 10.2082 16.1645C10.361 16.3206 10.5495 16.3986 10.7736 16.3986C10.9876 16.3986 11.171 16.3206 11.3238 16.1645L13.6695 13.7695C13.8223 13.6135 13.8988 13.4236 13.8988 13.2V9.63475C13.8988 9.11986 13.7459 8.70898 13.4403 8.40213L8.79464 3.67447V5.93688L10.7966 7.98085C10.9443 8.12648 10.9443 8.2747 10.7966 8.42553L8.71824 10.5553L5.34097 8.13688C5.21362 8.04326 5.05571 7.99645 4.86723 7.99645H0.78701C0.567971 7.99645 0.382044 8.07707 0.229226 8.2383C0.0764087 8.39433 0 8.58156 0 8.8C0 9.01844 0.0764087 9.20827 0.229226 9.3695C0.382044 9.52553 0.567971 9.60355 0.78701 9.60355ZM9.19961 17.6234C9.57656 17.6234 9.91531 17.5324 10.2158 17.3504C10.5164 17.1683 10.7533 16.9213 10.9264 16.6092C11.1047 16.2972 11.1913 15.9487 11.1862 15.5638H10.3381C10.3432 15.9071 10.2362 16.1931 10.0172 16.422C9.79815 16.6456 9.52562 16.7574 9.19961 16.7574C8.8736 16.7574 8.60108 16.6586 8.38204 16.461C8.163 16.2634 8.05348 15.9747 8.05348 15.595V0.429078C8.05348 0.314657 8.01018 0.215839 7.92358 0.132624C7.84208 0.044208 7.7453 0 7.63323 0C7.51607 0 7.41419 0.044208 7.3276 0.132624C7.24609 0.215839 7.20534 0.314657 7.20534 0.429078V15.595C7.20534 16.0111 7.29194 16.37 7.46513 16.6716C7.64342 16.9785 7.88283 17.2125 8.18337 17.3738C8.48392 17.5402 8.82266 17.6234 9.19961 17.6234ZM10.7583 22C10.8806 22 10.9825 21.9584 11.064 21.8752C11.1455 21.792 11.1862 21.6879 11.1862 21.5631V11.9674H10.3381V21.5631C10.3381 21.6879 10.3789 21.792 10.4604 21.8752C10.5419 21.9584 10.6412 22 10.7583 22Z"
		fill="currentColor"
	/>
</svg>
