<svg color="rgb(var(--foreground, 0, 0, 0))" viewBox="0 0 19 14" fill="none">
	<path
		d="M9.43981 3.60706C9.76624 3.60706 10.0606 3.52745 10.3228 3.36824C10.5904 3.20353 10.8017 2.98392 10.9569 2.70941C11.1175 2.4349 11.1977 2.13294 11.1977 1.80353C11.1977 1.46863 11.1175 1.16667 10.9569 0.897647C10.8017 0.623137 10.5904 0.406274 10.3228 0.247059C10.0606 0.0823529 9.76624 0 9.43981 0C9.11873 0 8.82441 0.0823529 8.55684 0.247059C8.29462 0.406274 8.08325 0.623137 7.92271 0.897647C7.76752 1.16667 7.68992 1.46863 7.68992 1.80353C7.68992 2.13294 7.76752 2.4349 7.92271 2.70941C8.08325 2.98392 8.29462 3.20353 8.55684 3.36824C8.82441 3.52745 9.11873 3.60706 9.43981 3.60706ZM0.826784 2.37176L6.72668 5.61647C6.823 5.67137 6.89525 5.74823 6.94341 5.84706C6.99157 5.94039 6.9996 6.04196 6.96749 6.15176L6.39757 8.28471C6.77217 8.36157 7.09325 8.46863 7.36081 8.60588C7.62838 8.74314 7.87187 8.88314 8.09127 9.02588C8.31068 9.16863 8.53008 9.28941 8.74949 9.38824C8.97425 9.48706 9.22308 9.53647 9.496 9.53647C9.65119 9.53647 9.793 9.51725 9.92143 9.47882C10.0552 9.44039 10.1837 9.39098 10.3067 9.33059L11.0854 6.38235C11.1282 6.22863 11.179 6.10784 11.2379 6.02C11.2967 5.92667 11.4011 5.83882 11.5509 5.75647L17.7317 2.37176C17.9511 2.24549 18.0983 2.05882 18.1732 1.81176C18.2481 1.56471 18.2294 1.32863 18.117 1.10353C17.9886 0.878431 17.804 0.727451 17.5632 0.650588C17.3277 0.568235 17.0976 0.590196 16.8728 0.716471L10.7402 4.05176C10.2586 4.31529 9.77695 4.45255 9.29533 4.46353C8.8137 4.47451 8.28392 4.32353 7.70598 4.01059L1.68568 0.716471C1.46092 0.590196 1.22813 0.568235 0.987324 0.650588C0.746513 0.727451 0.567243 0.878431 0.449513 1.10353C0.331784 1.32863 0.307703 1.56471 0.37727 1.81176C0.452189 2.05882 0.602027 2.24549 0.826784 2.37176ZM0.449513 11.7106H1.26024C1.79538 11.7106 2.24222 11.642 2.60076 11.5047C2.96465 11.3675 3.28573 11.211 3.564 11.0353C3.84762 10.8541 4.12857 10.6949 4.40684 10.5576C4.68511 10.4204 5.0089 10.3518 5.37814 10.3518C5.75273 10.3518 6.07917 10.4204 6.35744 10.5576C6.63571 10.6949 6.91398 10.8541 7.19225 11.0353C7.47052 11.211 7.78892 11.3675 8.14746 11.5047C8.51136 11.642 8.96087 11.7106 9.496 11.7106C10.0365 11.7106 10.486 11.642 10.8445 11.5047C11.2084 11.3675 11.5295 11.211 11.8078 11.0353C12.0861 10.8541 12.3643 10.6949 12.6426 10.5576C12.9209 10.4204 13.2473 10.3518 13.6219 10.3518C13.9911 10.3518 14.3149 10.4204 14.5932 10.5576C14.8714 10.6949 15.1497 10.8541 15.428 11.0353C15.7062 11.211 16.0247 11.3675 16.3832 11.5047C16.7471 11.642 17.1993 11.7106 17.7398 11.7106H18.5505C18.6789 11.7106 18.7859 11.6667 18.8716 11.5788C18.9572 11.491 19 11.3839 19 11.2576C19 11.1259 18.9572 11.0161 18.8716 10.9282C18.7859 10.8404 18.6789 10.7965 18.5505 10.7965H17.7398C17.3545 10.7965 17.0173 10.7278 16.7284 10.5906C16.4394 10.4533 16.1531 10.2969 15.8695 10.1212C15.5912 9.94 15.2755 9.78078 14.9223 9.64353C14.5691 9.50627 14.1356 9.43765 13.6219 9.43765C13.1028 9.43765 12.6667 9.50627 12.3135 9.64353C11.9603 9.78078 11.6419 9.94 11.3583 10.1212C11.08 10.2969 10.7964 10.4533 10.5074 10.5906C10.2184 10.7278 9.8813 10.7965 9.496 10.7965C9.1107 10.7965 8.77357 10.7278 8.4846 10.5906C8.19563 10.4533 7.90933 10.2969 7.62571 10.1212C7.34744 9.94 7.03171 9.78078 6.67852 9.64353C6.32533 9.50627 5.89187 9.43765 5.37814 9.43765C4.86441 9.43765 4.43092 9.50627 4.07773 9.64353C3.72454 9.78078 3.40613 9.94 3.12251 10.1212C2.84424 10.2969 2.56062 10.4533 2.27165 10.5906C1.98268 10.7278 1.64554 10.7965 1.26024 10.7965H0.449513C0.321081 10.7965 0.214054 10.8404 0.128432 10.9282C0.0428108 11.0161 0 11.1259 0 11.2576C0 11.3839 0.0428108 11.491 0.128432 11.5788C0.214054 11.6667 0.321081 11.7106 0.449513 11.7106ZM0.658216 14C0.792 14 0.904378 13.9533 0.995351 13.86C1.08632 13.7667 1.13181 13.6514 1.13181 13.5141C1.13181 13.3824 1.08632 13.2698 0.995351 13.1765C0.904378 13.0831 0.792 13.0365 0.658216 13.0365C0.529784 13.0365 0.420081 13.0831 0.329108 13.1765C0.238135 13.2698 0.192649 13.3824 0.192649 13.5141C0.192649 13.6514 0.238135 13.7667 0.329108 13.86C0.420081 13.9533 0.529784 14 0.658216 14ZM2.1673 13.72C2.29573 13.72 2.40543 13.6733 2.49641 13.58C2.58738 13.4867 2.63286 13.3741 2.63286 13.2424C2.63286 13.1051 2.58738 12.9898 2.49641 12.8965C2.40543 12.8031 2.29573 12.7565 2.1673 12.7565C2.03351 12.7565 1.92113 12.8031 1.83016 12.8965C1.73919 12.9898 1.6937 13.1051 1.6937 13.2424C1.6937 13.3741 1.73919 13.4867 1.83016 13.58C1.92113 13.6733 2.03351 13.72 2.1673 13.72ZM3.57203 13.0365C3.70581 13.0365 3.81819 12.9925 3.90916 12.9047C4.00013 12.8114 4.04562 12.6961 4.04562 12.5588C4.04562 12.4271 4.00013 12.3145 3.90916 12.2212C3.81819 12.1278 3.70581 12.0812 3.57203 12.0812C3.44359 12.0812 3.33389 12.1278 3.24292 12.2212C3.15195 12.3145 3.10646 12.4271 3.10646 12.5588C3.10646 12.6961 3.15195 12.8114 3.24292 12.9047C3.33389 12.9925 3.44359 13.0365 3.57203 13.0365ZM5.08917 12.6741C5.22295 12.6741 5.33533 12.6275 5.4263 12.5341C5.51727 12.4408 5.56276 12.3255 5.56276 12.1882C5.56276 12.0565 5.51727 11.9439 5.4263 11.8506C5.33533 11.7573 5.22295 11.7106 5.08917 11.7106C4.96073 11.7106 4.85103 11.7573 4.76006 11.8506C4.66909 11.9439 4.6236 12.0565 4.6236 12.1882C4.6236 12.3255 4.66909 12.4408 4.76006 12.5341C4.85103 12.6275 4.96073 12.6741 5.08917 12.6741ZM6.60627 13.0365C6.73471 13.0365 6.84441 12.9925 6.93538 12.9047C7.02636 12.8114 7.07184 12.6961 7.07184 12.5588C7.07184 12.4271 7.02636 12.3145 6.93538 12.2212C6.84441 12.1278 6.73471 12.0812 6.60627 12.0812C6.47249 12.0812 6.36011 12.1278 6.26914 12.2212C6.18352 12.3145 6.14071 12.4271 6.14071 12.5588C6.14071 12.6961 6.18352 12.8114 6.26914 12.9047C6.36011 12.9925 6.47249 13.0365 6.60627 13.0365ZM8.02706 13.72C8.16084 13.72 8.27322 13.6733 8.36419 13.58C8.45517 13.4867 8.50065 13.3741 8.50065 13.2424C8.50065 13.1051 8.45517 12.9898 8.36419 12.8965C8.27322 12.8031 8.16084 12.7565 8.02706 12.7565C7.89863 12.7565 7.78892 12.8031 7.69795 12.8965C7.60698 12.9898 7.56149 13.1051 7.56149 13.2424C7.56149 13.3741 7.60698 13.4867 7.69795 13.58C7.78892 13.6733 7.89863 13.72 8.02706 13.72ZM9.51206 14C9.64049 14 9.75019 13.9533 9.84116 13.86C9.93214 13.7667 9.97762 13.6514 9.97762 13.5141C9.97762 13.3824 9.93214 13.2698 9.84116 13.1765C9.75019 13.0831 9.64049 13.0365 9.51206 13.0365C9.37827 13.0365 9.26589 13.0831 9.17492 13.1765C9.08395 13.2698 9.03846 13.3824 9.03846 13.5141C9.03846 13.6514 9.08395 13.7667 9.17492 13.86C9.26589 13.9533 9.37827 14 9.51206 14ZM10.989 13.72C11.1228 13.72 11.2325 13.6733 11.3181 13.58C11.4091 13.4867 11.4546 13.3741 11.4546 13.2424C11.4546 13.1051 11.4091 12.9898 11.3181 12.8965C11.2325 12.8031 11.1228 12.7565 10.989 12.7565C10.8606 12.7565 10.7509 12.8031 10.6599 12.8965C10.5689 12.9898 10.5235 13.1051 10.5235 13.2424C10.5235 13.3741 10.5689 13.4867 10.6599 13.58C10.7509 13.6733 10.8606 13.72 10.989 13.72ZM12.4098 13.0365C12.5436 13.0365 12.656 12.9925 12.7469 12.9047C12.8379 12.8114 12.8834 12.6961 12.8834 12.5588C12.8834 12.4271 12.8379 12.3145 12.7469 12.2212C12.656 12.1278 12.5436 12.0812 12.4098 12.0812C12.2814 12.0812 12.1717 12.1278 12.0807 12.2212C11.9897 12.3145 11.9442 12.4271 11.9442 12.5588C11.9442 12.6961 11.9897 12.8114 12.0807 12.9047C12.1717 12.9925 12.2814 13.0365 12.4098 13.0365ZM13.9269 12.6741C14.0607 12.6741 14.1704 12.6275 14.256 12.5341C14.347 12.4408 14.3925 12.3255 14.3925 12.1882C14.3925 12.0565 14.347 11.9439 14.256 11.8506C14.1704 11.7573 14.0607 11.7106 13.9269 11.7106C13.7985 11.7106 13.6888 11.7573 13.5978 11.8506C13.5068 11.9439 13.4614 12.0565 13.4614 12.1882C13.4614 12.3255 13.5068 12.4408 13.5978 12.5341C13.6888 12.6275 13.7985 12.6741 13.9269 12.6741ZM15.444 13.0365C15.5778 13.0365 15.6875 12.9925 15.7731 12.9047C15.8641 12.8114 15.9096 12.6961 15.9096 12.5588C15.9096 12.4271 15.8641 12.3145 15.7731 12.2212C15.6875 12.1278 15.5778 12.0812 15.444 12.0812C15.3156 12.0812 15.2059 12.1278 15.1149 12.2212C15.0239 12.3145 14.9785 12.4271 14.9785 12.5588C14.9785 12.6961 15.0239 12.8114 15.1149 12.9047C15.2059 12.9925 15.3156 13.0365 15.444 13.0365ZM16.8568 13.72C16.9852 13.72 17.0949 13.6733 17.1859 13.58C17.2769 13.4867 17.3224 13.3741 17.3224 13.2424C17.3224 13.1051 17.2769 12.9898 17.1859 12.8965C17.0949 12.8031 16.9852 12.7565 16.8568 12.7565C16.723 12.7565 16.6106 12.8031 16.5196 12.8965C16.434 12.9898 16.3912 13.1051 16.3912 13.2424C16.3912 13.3741 16.434 13.4867 16.5196 13.58C16.6106 13.6733 16.723 13.72 16.8568 13.72ZM18.3498 14C18.4836 14 18.596 13.9533 18.6869 13.86C18.7779 13.7667 18.8234 13.6514 18.8234 13.5141C18.8234 13.3824 18.7779 13.2698 18.6869 13.1765C18.596 13.0831 18.4836 13.0365 18.3498 13.0365C18.2214 13.0365 18.1117 13.0831 18.0207 13.1765C17.9297 13.2698 17.8842 13.3824 17.8842 13.5141C17.8842 13.6514 17.9297 13.7667 18.0207 13.86C18.1117 13.9533 18.2214 14 18.3498 14Z"
		fill="currentColor"
	/>
</svg>
