<svg color="rgb(var(--foreground, 0, 0, 0))" viewBox="0 0 15 20" fill="none">
	<path
		d="M10.6368 3.5002C10.9577 3.5002 11.247 3.42277 11.5047 3.26792C11.7677 3.10773 11.9755 2.89681 12.128 2.63516C12.2858 2.36818 12.3647 2.07182 12.3647 1.7461C12.3647 1.42571 12.2858 1.13469 12.128 0.873048C11.9755 0.606061 11.7677 0.395141 11.5047 0.240288C11.247 0.0800961 10.9577 0 10.6368 0C10.3212 0 10.0319 0.0800961 9.76893 0.240288C9.50593 0.395141 9.29816 0.606061 9.14562 0.873048C8.99308 1.13469 8.91681 1.42571 8.91681 1.7461C8.91681 2.07182 8.99308 2.36818 9.14562 2.63516C9.29816 2.89681 9.50593 3.10773 9.76893 3.26792C10.0319 3.42277 10.3212 3.5002 10.6368 3.5002ZM5.169 9.8358L8.11197 12.8394V17.541H9.72948V12.5991C9.72948 12.4763 9.7137 12.3615 9.68214 12.2547C9.65058 12.1426 9.59535 12.0331 9.51645 11.9263L7.536 9.37124L9.22452 6.74409C9.28238 6.65866 9.35865 6.61861 9.45333 6.62395C9.54801 6.62395 9.61639 6.67201 9.65847 6.76812L10.2187 7.9135C10.287 8.04699 10.387 8.15645 10.5185 8.24189C10.65 8.32732 10.792 8.37004 10.9445 8.37004H14.1952C14.4161 8.37004 14.6055 8.28995 14.7633 8.12976C14.9211 7.96956 15 7.77466 15 7.54505C15 7.32078 14.9211 7.12855 14.7633 6.96836C14.6055 6.80817 14.4161 6.72807 14.1952 6.72807H11.4416L10.5895 4.97397C10.4212 4.62689 10.174 4.35189 9.84783 4.14898C9.52171 3.94607 9.16666 3.84461 8.78268 3.84461H4.4589C4.3274 3.84461 4.19853 3.87932 4.07229 3.94874C3.95131 4.01281 3.854 4.10092 3.78036 4.21306L2.16291 6.68802C2.04193 6.86958 2.00248 7.07249 2.04456 7.29676C2.08664 7.51569 2.20236 7.68923 2.39172 7.81738C2.57056 7.94553 2.77044 7.98825 2.99136 7.94553C3.21228 7.89748 3.38586 7.77733 3.5121 7.5851L4.89285 5.48658H6.22626C6.27886 5.48658 6.31568 5.50794 6.33672 5.55066C6.36302 5.58804 6.36039 5.63343 6.32883 5.68682L4.96386 7.76932C4.75346 8.08971 4.66667 8.4448 4.70349 8.8346C4.74031 9.2244 4.89548 9.55814 5.169 9.8358ZM0.285092 11.0453L3.46476 13.8726C3.71724 14.1023 3.96709 14.1797 4.21431 14.1049C4.46679 14.0248 4.65352 13.8887 4.7745 13.6964L5.99745 11.7821L4.65615 10.4205C4.65089 10.4098 4.643 10.3991 4.63248 10.3885C4.62196 10.3778 4.61144 10.3671 4.60092 10.3564L3.80403 11.9824L1.34235 9.80376C1.17929 9.65959 0.984672 9.59284 0.758492 9.60352C0.537572 9.6142 0.353472 9.70765 0.206192 9.88386C0.058912 10.0547 -0.009468 10.255 0.001052 10.4846C0.016832 10.7089 0.111512 10.8957 0.285092 11.0453ZM4.3011 18.1578H9.80838C10.245 18.1578 10.6421 18.1071 10.9998 18.0056C11.3627 17.9042 11.6836 17.7306 11.9623 17.485C12.0728 17.3889 12.1333 17.2847 12.1438 17.1726C12.1543 17.0605 12.1307 16.9617 12.0728 16.8762C12.0097 16.7801 11.915 16.7161 11.7888 16.684C11.6625 16.6573 11.5337 16.692 11.4022 16.7881C11.1918 16.959 10.9656 17.0818 10.7236 17.1566C10.4817 17.2313 10.1766 17.2687 9.80838 17.2687H4.3011C3.9329 17.2687 3.62782 17.2313 3.38586 17.1566C3.1439 17.0818 2.91509 16.959 2.69943 16.7881C2.58371 16.6974 2.46799 16.66 2.35227 16.676C2.23655 16.6974 2.1445 16.7481 2.07612 16.8282C1.99722 16.9083 1.95777 17.0097 1.95777 17.1326C1.95777 17.2607 2.01826 17.3782 2.13924 17.485C2.42328 17.7306 2.74414 17.9042 3.10182 18.0056C3.4595 18.1071 3.85926 18.1578 4.3011 18.1578ZM4.3011 20C4.4852 20 4.64563 19.9306 4.78239 19.7917C4.91915 19.6583 4.98753 19.4981 4.98753 19.3112C4.98753 19.1189 4.91915 18.9534 4.78239 18.8146C4.64563 18.6811 4.4852 18.6143 4.3011 18.6143C4.117 18.6143 3.95657 18.6811 3.81981 18.8146C3.68305 18.9534 3.61467 19.1189 3.61467 19.3112C3.61467 19.4981 3.68305 19.6583 3.81981 19.7917C3.95657 19.9306 4.117 20 4.3011 20ZM9.80838 20C9.99248 20 10.1503 19.9306 10.2818 19.7917C10.4185 19.6583 10.4869 19.4981 10.4869 19.3112C10.4869 19.1189 10.4185 18.9534 10.2818 18.8146C10.1503 18.6811 9.99248 18.6143 9.80838 18.6143C9.61902 18.6143 9.45596 18.6811 9.3192 18.8146C9.1877 18.9534 9.12195 19.1189 9.12195 19.3112C9.12195 19.4981 9.1877 19.6583 9.3192 19.7917C9.45596 19.9306 9.61902 20 9.80838 20Z"
		fill="currentColor"
	/>
</svg>
