<svg viewBox="0 0 15 14" fill="none" color="rgb(var(--foreground, 0, 0, 0))">
	<path
		d="M4.94391 3.42361C5.26977 3.42361 5.56356 3.34788 5.82532 3.19642C6.09241 3.03973 6.30342 2.83343 6.45833 2.5775C6.61859 2.31636 6.69871 2.02649 6.69871 1.70789C6.69871 1.38929 6.61859 1.10203 6.45833 0.846111C6.30342 0.584965 6.09241 0.378661 5.82532 0.227196C5.56356 0.0757321 5.26977 0 4.94391 0C4.6234 0 4.32959 0.0757321 4.0625 0.227196C3.80075 0.378661 3.58975 0.584965 3.42949 0.846111C3.27457 1.10203 3.19712 1.38929 3.19712 1.70789C3.19712 2.02649 3.27457 2.31636 3.42949 2.5775C3.58975 2.83343 3.80075 3.03973 4.0625 3.19642C4.32959 3.34788 4.6234 3.42361 4.94391 3.42361ZM0.705128 9.37773C0.587607 9.80601 0.587607 10.1794 0.705128 10.498C0.827992 10.8166 1.02564 11.0621 1.29808 11.2345C1.57586 11.4068 1.88568 11.493 2.22757 11.493C2.39316 11.493 2.55876 11.4721 2.72436 11.4303C2.8953 11.3885 3.06624 11.3233 3.23718 11.2345L7.58814 8.97034L12.4038 11.3285C12.6976 11.4695 12.9541 11.4982 13.1731 11.4147C13.3974 11.3311 13.555 11.1979 13.6458 11.0151C13.7366 10.8375 13.7473 10.6391 13.6779 10.4197C13.6084 10.2003 13.4322 10.0228 13.149 9.88696L8.10897 7.4113C7.76709 7.23895 7.42254 7.2285 7.07532 7.37997L3.82211 8.75881L4.47917 6.51819C4.53793 6.32494 4.65011 6.16564 4.81571 6.04029C4.9813 5.91494 5.16827 5.85227 5.3766 5.85227H11.859C12.0887 5.85227 12.2837 5.77392 12.4439 5.61724C12.6042 5.46055 12.6843 5.26991 12.6843 5.04533C12.6843 4.82596 12.6042 4.63794 12.4439 4.48125C12.2837 4.31934 12.0887 4.23839 11.859 4.23839H4.77564C4.24145 4.23839 3.74733 4.3324 3.29327 4.52042C2.84455 4.70845 2.46261 4.97221 2.14744 5.3117C1.83761 5.65118 1.62126 6.04551 1.4984 6.49468L0.705128 9.37773ZM0.448718 14H14.5513C14.6741 14 14.7783 13.9582 14.8638 13.8747C14.9546 13.7911 15 13.6892 15 13.5691C15 13.449 14.9546 13.3445 14.8638 13.2557C14.7783 13.1722 14.6741 13.1304 14.5513 13.1304H0.448718C0.320513 13.1304 0.213675 13.1722 0.128205 13.2557C0.0427351 13.3445 0 13.449 0 13.5691C0 13.6892 0.0427351 13.7911 0.128205 13.8747C0.213675 13.9582 0.320513 14 0.448718 14Z"
		fill="currentColor"
	/>
</svg>
