<svg viewBox="0 0 17 16" fill="none" color="rgb(var(--foreground, 0, 0, 0))">
	<path
		d="M0.264373 7.42927L2.94816 10.1878C3.13509 10.3739 3.35674 10.467 3.6131 10.467C3.8748 10.4615 4.09645 10.3438 4.27804 10.114L5.96843 7.97935C6.02183 7.91367 6.08325 7.89451 6.15269 7.92188C6.22212 7.94924 6.25683 8.00398 6.25683 8.08608V11.7231L3.22856 11.3783C2.96686 11.3455 2.75322 11.4029 2.58765 11.5507C2.42743 11.693 2.32328 11.8736 2.27521 12.0926C2.22714 12.3115 2.24851 12.5222 2.3393 12.7248C2.4301 12.9273 2.60101 13.0723 2.85203 13.1599L6.28888 14.3257C6.23013 14.5665 6.25149 14.7855 6.35297 14.9825C6.45445 15.185 6.60132 15.3328 6.79359 15.4259C6.9912 15.5189 7.20751 15.5244 7.44251 15.4423L8.5 15.0892L9.55749 15.4423C9.79249 15.5244 10.0061 15.5189 10.1984 15.4259C10.396 15.3328 10.5456 15.185 10.647 14.9825C10.7485 14.7855 10.7699 14.5665 10.7111 14.3257L14.156 13.1599C14.407 13.0723 14.5752 12.9273 14.6607 12.7248C14.7515 12.5222 14.7729 12.3115 14.7248 12.0926C14.6821 11.8736 14.5779 11.693 14.4123 11.5507C14.2468 11.4029 14.0331 11.3455 13.7714 11.3783L10.7432 11.7231V8.08608C10.7432 8.00398 10.7779 7.94924 10.8473 7.92188C10.9167 7.89451 10.9782 7.91367 11.0316 7.97935L12.722 10.114C12.9036 10.3438 13.1252 10.4615 13.3869 10.467C13.6486 10.4725 13.8702 10.3794 14.0518 10.1878L16.7356 7.42927C16.9119 7.24318 17 7.02698 17 6.78068C17 6.52891 16.9119 6.31271 16.7356 6.13209C16.5647 5.95694 16.3538 5.86937 16.1027 5.86937C15.8571 5.86937 15.6461 5.95694 15.4698 6.13209L13.491 8.16818L11.4722 5.63128C11.3013 5.42329 11.0957 5.25909 10.8553 5.13867C10.615 5.01279 10.3613 4.94984 10.0943 4.94984H6.91376C6.64138 4.94984 6.38501 5.01279 6.14468 5.13867C5.90434 5.25909 5.69871 5.42329 5.5278 5.63128L3.50895 8.16818L1.53016 6.13209C1.35391 5.95694 1.14028 5.86937 0.889255 5.86937C0.643575 5.86937 0.435281 5.95694 0.264373 6.13209C0.0881244 6.31271 0 6.52891 0 6.78068C0 7.02698 0.0881244 7.24318 0.264373 7.42927ZM8.5 4.08779C8.82045 4.08779 9.11153 4.00842 9.37323 3.8497C9.64028 3.6855 9.85124 3.46656 10.0061 3.19289C10.161 2.91922 10.2385 2.61545 10.2385 2.28158C10.2385 1.95318 10.161 1.65488 10.0061 1.38668C9.85124 1.11849 9.64028 0.905029 9.37323 0.746301C9.11153 0.5821 8.82045 0.5 8.5 0.5C8.17421 0.5 7.87779 0.5821 7.61074 0.746301C7.3437 0.905029 7.13007 1.11849 6.96984 1.38668C6.81495 1.65488 6.73751 1.95318 6.73751 2.28158C6.73751 2.61545 6.81495 2.91922 6.96984 3.19289C7.13007 3.46656 7.3437 3.6855 7.61074 3.8497C7.87779 4.00842 8.17421 4.08779 8.5 4.08779Z"
		fill="currentColor"
	/>
</svg>
