<svg viewBox="0 0 17 20" fill="none" color="rgb(var(--foreground, 0, 0, 0))">
	<path
		d="M12.838 3.85882C13.1457 3.85882 13.43 3.78452 13.6908 3.63592C13.9515 3.4822 14.1575 3.2798 14.3088 3.02872C14.4653 2.77252 14.5435 2.4907 14.5435 2.18325C14.5435 1.87581 14.4653 1.59655 14.3088 1.34547C14.1575 1.08927 13.9515 0.884304 13.6908 0.730583C13.43 0.576861 13.1457 0.5 12.838 0.5C12.5251 0.5 12.2382 0.576861 11.9775 0.730583C11.7167 0.884304 11.5081 1.08927 11.3516 1.34547C11.2003 1.59655 11.1247 1.87581 11.1247 2.18325C11.1247 2.4907 11.2003 2.77252 11.3516 3.02872C11.5081 3.2798 11.7167 3.4822 11.9775 3.63592C12.2382 3.78452 12.5251 3.85882 12.838 3.85882ZM9.80258 14.6424C10.0268 14.6424 10.2146 14.5655 10.3659 14.4118C10.5223 14.2581 10.6006 14.0736 10.6006 13.8584V10.1537C10.6006 9.91802 10.5275 9.73355 10.3815 9.60032L8.30833 7.5712L10.1546 5.7496C10.212 5.69323 10.2824 5.66505 10.3659 5.66505C10.4545 5.66505 10.5275 5.69323 10.5849 5.7496L11.8757 7.02549C11.9435 7.09722 12.027 7.15359 12.1261 7.19458C12.2252 7.23045 12.3269 7.24838 12.4312 7.24838H16.202C16.4263 7.24838 16.6141 7.17152 16.7653 7.0178C16.9218 6.86408 17 6.67705 17 6.45672C17 6.2415 16.9218 6.05704 16.7653 5.90332C16.6141 5.7496 16.4263 5.67273 16.202 5.67273H12.7598L9.95904 2.90574C9.78171 2.7264 9.57049 2.59061 9.32536 2.49838C9.08544 2.40102 8.84031 2.35235 8.58997 2.35235H5.64059C5.3746 2.35235 5.1738 2.43177 5.0382 2.59061C4.90259 2.74434 4.8374 2.9288 4.84261 3.14401C4.85304 3.3541 4.94171 3.54113 5.10861 3.7051L6.42292 4.98867L5.36677 6.00324C5.14772 6.21845 5.00169 6.47209 4.92867 6.76416C4.85565 7.05111 4.85565 7.34061 4.92867 7.63269C5.00169 7.91963 5.14772 8.17071 5.36677 8.38592L6.75932 9.73867V14.0429C6.75932 14.2581 6.83494 14.4426 6.98619 14.5963C7.14266 14.75 7.33303 14.8269 7.55729 14.8269C7.77635 14.8269 7.9641 14.75 8.12057 14.5963C8.27704 14.4426 8.35527 14.2581 8.35527 14.0429V9.84628L9.0046 10.4765V13.8584C9.0046 14.0736 9.08283 14.2581 9.2393 14.4118C9.39577 14.5655 9.58352 14.6424 9.80258 14.6424ZM0.438104 5.86489H8.01887V5.01173H0.438104C0.318147 5.01173 0.213836 5.05529 0.125173 5.14239C0.0417242 5.22438 0 5.3243 0 5.44215C0 5.55488 0.0417242 5.6548 0.125173 5.74191C0.213836 5.82389 0.318147 5.86489 0.438104 5.86489ZM16.5462 14.2658C16.6662 14.2658 16.7679 14.2248 16.8514 14.1428C16.94 14.0557 16.9844 13.9532 16.9844 13.8354V6.47977H16.116V13.8354C16.116 13.9532 16.1577 14.0557 16.2411 14.1428C16.3298 14.2248 16.4315 14.2658 16.5462 14.2658ZM12.8067 19.5C12.9267 19.5 13.0284 19.4564 13.1118 19.3693C13.2005 19.2874 13.2448 19.1874 13.2448 19.0696C13.2448 18.9517 13.2005 18.8518 13.1118 18.7698C13.0284 18.6878 12.9267 18.6468 12.8067 18.6468C12.5407 18.6468 12.3399 18.6135 12.2043 18.5469C12.0687 18.4803 11.8888 18.3368 11.6645 18.1165L3.33272 9.92314C3.24406 9.83603 3.13975 9.79248 3.01979 9.79248C2.89983 9.79248 2.79813 9.83603 2.71468 9.92314C2.63123 10.0051 2.58951 10.105 2.58951 10.2229C2.58951 10.3407 2.63123 10.4407 2.71468 10.5227L11.1717 18.8313C11.4168 19.0721 11.6749 19.2438 11.9462 19.3463C12.2174 19.4488 12.5042 19.5 12.8067 19.5ZM14.8329 19.085C14.9529 19.085 15.0546 19.044 15.1381 18.962C15.2215 18.88 15.2632 18.7775 15.2632 18.6545C15.2632 18.5367 15.2215 18.4368 15.1381 18.3548C15.0546 18.2728 14.9529 18.2318 14.8329 18.2318C14.5617 18.2318 14.3583 18.1985 14.2227 18.1319C14.0923 18.0653 13.9124 17.9218 13.6829 17.7015L5.35113 9.51578C5.26246 9.42354 5.15815 9.37743 5.0382 9.37743C4.91824 9.37743 4.81654 9.42098 4.73309 9.50809C4.64964 9.59008 4.60792 9.68999 4.60792 9.80785C4.60792 9.9257 4.64964 10.0256 4.73309 10.1076L13.1901 18.4163C13.4352 18.6571 13.6934 18.8287 13.9646 18.9312C14.2358 19.0337 14.5252 19.085 14.8329 19.085Z"
		fill="currentColor"
	/>
</svg>
