<svg color="rgb(var(--foreground, 0, 0, 0))" viewBox="0 0 15 20" fill="none">
	<path
		d="M13.3393 7.43225C13.6454 7.43225 13.9235 7.35788 14.1735 7.20913C14.4286 7.05525 14.6301 6.85008 14.7781 6.59362C14.926 6.33716 15 6.05249 15 5.73961C15 5.43185 14.926 5.15231 14.7781 4.90098C14.6301 4.64452 14.4286 4.44191 14.1735 4.29316C13.9235 4.14442 13.6454 4.07004 13.3393 4.07004C13.0281 4.07004 12.7449 4.14442 12.4898 4.29316C12.2347 4.44191 12.0306 4.64452 11.8776 4.90098C11.7296 5.15231 11.6556 5.43185 11.6556 5.73961C11.6556 6.05249 11.7296 6.33716 11.8776 6.59362C12.0306 6.85008 12.2347 7.05525 12.4898 7.20913C12.7449 7.35788 13.0281 7.43225 13.3393 7.43225ZM6.4898 13.4642L9.32908 15.5493L7.67602 18.8653C7.57908 19.0551 7.56378 19.2526 7.6301 19.4577C7.70153 19.668 7.83418 19.8245 8.02806 19.9271C8.20153 20.0091 8.39031 20.0219 8.59439 19.9655C8.80357 19.9142 8.95918 19.7834 9.06122 19.5731L10.9974 15.6801C11.0842 15.5108 11.1122 15.3415 11.0816 15.1723C11.051 15.003 10.9694 14.8542 10.8367 14.726L9.375 13.3488H11.8622C12.0867 13.3488 12.273 13.2719 12.4209 13.118C12.5689 12.9641 12.6429 12.7795 12.6429 12.564V9.43265C12.6429 9.00692 12.5383 8.6171 12.3291 8.26319C12.125 7.90414 11.8444 7.61947 11.4872 7.40917C11.1352 7.19887 10.7449 7.09372 10.3163 7.09372H7.44643L7.94388 5.33953C8 5.13436 7.97704 4.93945 7.875 4.75479C7.77806 4.56501 7.625 4.43935 7.41582 4.3778C7.21174 4.31625 7.01531 4.33933 6.82653 4.44704C6.64286 4.54963 6.52041 4.7035 6.45918 4.90867L5.68622 7.64768C5.6148 7.90927 5.64541 8.14265 5.77806 8.34782C5.91582 8.54786 6.12245 8.64788 6.39796 8.64788H9.19133C9.20663 8.64788 9.21684 8.65814 9.22194 8.67865C9.23214 8.69404 9.22959 8.70687 9.21429 8.71712L6.78061 9.95583C6.43878 10.1251 6.17092 10.3585 5.97704 10.656C5.78826 10.9535 5.67857 11.2766 5.64796 11.6254C5.62245 11.9691 5.67857 12.305 5.81633 12.6333C5.95408 12.9564 6.17857 13.2334 6.4898 13.4642ZM9.43622 11.8177L10.9821 11.0791C11.0179 11.0637 11.051 11.0663 11.0816 11.0868C11.1173 11.1073 11.1352 11.1356 11.1352 11.1715V11.8177H9.43622ZM5.35714 13.3257L4.69133 15.2954H0.795918C0.576531 15.2954 0.387755 15.3723 0.229592 15.5262C0.0765306 15.6801 0 15.8647 0 16.0801C0 16.3058 0.0765306 16.4956 0.229592 16.6495C0.387755 16.8034 0.576531 16.8803 0.795918 16.8803H5.25C5.39796 16.8803 5.53571 16.8393 5.66326 16.7572C5.79592 16.6802 5.89541 16.57 5.96173 16.4264L6.84949 14.6414L6.05357 14.0643C5.77806 13.8592 5.54592 13.613 5.35714 13.3257ZM6.88776 3.45454H7.51531C7.66837 3.26475 7.81888 3.0442 7.96684 2.79286C8.1199 2.54153 8.24745 2.28507 8.34949 2.02348C8.45153 1.76189 8.50255 1.52595 8.50255 1.31565C8.50255 0.925826 8.38265 0.610378 8.14286 0.369304C7.90306 0.123101 7.59184 0 7.20918 0C6.82143 0 6.5051 0.123101 6.26021 0.369304C6.01531 0.610378 5.89286 0.925826 5.89286 1.31565C5.89286 1.55159 5.94388 1.80292 6.04592 2.06964C6.14796 2.33636 6.27296 2.59283 6.42092 2.83903C6.57398 3.0801 6.72959 3.28527 6.88776 3.45454ZM6.76531 11.5331H7.6301V3.16986H6.76531V11.5331Z"
		fill="currentColor"
	/>
</svg>
