<svg color="rgb(var(--foreground, 0, 0, 0))" viewBox="0 0 14 18" fill="none">
	<path
		d="M7 10.5231L8.82739 13.3421L10.1923 17.0411C10.2681 17.2449 10.3945 17.3791 10.5714 17.4438C10.7483 17.5134 10.9202 17.5184 11.087 17.4587C11.269 17.399 11.4004 17.2797 11.4813 17.1007C11.5622 16.9267 11.5697 16.7527 11.504 16.5787L8.75157 9.13596V5.77256C8.75157 5.60352 8.82739 5.47922 8.97905 5.39968L13.6271 2.96102C13.799 2.87153 13.9128 2.73729 13.9684 2.55831C14.024 2.37933 14.0063 2.20283 13.9153 2.02882C13.8243 1.86475 13.6878 1.75537 13.5058 1.70068C13.3238 1.64599 13.1469 1.66339 12.975 1.75289L8.48618 4.08713C7.99584 4.34069 7.50045 4.46747 7 4.46747C6.49955 4.46747 6.00416 4.34069 5.51382 4.08713L1.02495 1.75289C0.85308 1.66339 0.676154 1.64599 0.494173 1.70068C0.312192 1.75537 0.175706 1.86475 0.0847154 2.02882C-0.00627521 2.20283 -0.0239678 2.37933 0.0316375 2.55831C0.0872429 2.73729 0.200981 2.87153 0.372852 2.96102L5.02096 5.39968C5.17261 5.47922 5.24843 5.60352 5.24843 5.77256V9.13596L2.49597 16.5787C2.43025 16.7527 2.43783 16.9267 2.51871 17.1007C2.59959 17.2797 2.7285 17.399 2.90542 17.4587C3.0773 17.5184 3.25169 17.5134 3.42862 17.4438C3.60555 17.3791 3.73192 17.2449 3.80775 17.0411L5.17261 13.3421L7 10.5231ZM7 3.69187C7.29319 3.69187 7.56111 3.61978 7.80375 3.4756C8.05145 3.33142 8.24607 3.13752 8.38761 2.89391C8.5342 2.65029 8.6075 2.38181 8.6075 2.08848C8.6075 1.79515 8.5342 1.52916 8.38761 1.29051C8.24607 1.05187 8.05145 0.860453 7.80375 0.716272C7.56111 0.572091 7.29319 0.5 7 0.5C6.6967 0.5 6.4212 0.572091 6.1735 0.716272C5.93086 0.860453 5.73624 1.05187 5.58965 1.29051C5.44305 1.52916 5.36975 1.79515 5.36975 2.08848C5.36975 2.38181 5.44305 2.65029 5.58965 2.89391C5.73624 3.13752 5.93086 3.33142 6.1735 3.4756C6.4212 3.61978 6.6967 3.69187 7 3.69187Z"
		fill="currentColor"
	/>
</svg>
