<svg color="rgb(var(--foreground, 0, 0, 0))" viewBox="0 0 14 20" fill="none">
	<path
		d="M6.36172 5.25759C6.68456 5.25759 6.97782 5.17806 7.24148 5.01899C7.50514 4.85992 7.71499 4.64325 7.87103 4.36899C8.03245 4.09473 8.11317 3.79304 8.11317 3.46392C8.11317 3.13481 8.03245 2.83586 7.87103 2.56709C7.71499 2.29283 7.50514 2.07616 7.24148 1.91709C6.97782 1.75802 6.68456 1.67848 6.36172 1.67848C6.03349 1.67848 5.73485 1.75802 5.46581 1.91709C5.20216 2.07616 4.98961 2.29283 4.82819 2.56709C4.67215 2.83586 4.59413 3.13481 4.59413 3.46392C4.59413 3.79304 4.67215 4.09473 4.82819 4.36899C4.98961 4.64325 5.20216 4.85992 5.46581 5.01899C5.73485 5.17806 6.03349 5.25759 6.36172 5.25759ZM1.90642 19.9854C2.13241 20.0238 2.33688 19.9772 2.51983 19.8456C2.70277 19.7139 2.81846 19.5274 2.86689 19.2861L3.63365 15.0816L6.84599 13.3044C6.94284 13.2441 7.01279 13.2633 7.05584 13.362L8.67815 17.3525C8.72658 17.4622 8.78576 17.5527 8.85571 17.6241C8.93105 17.7008 9.01445 17.7639 9.10592 17.8133L12.7541 19.8785C12.9855 20.0101 13.2088 20.0348 13.424 19.9525C13.6392 19.8757 13.7953 19.7441 13.8921 19.5576C14.0051 19.3546 14.0294 19.138 13.9648 18.9076C13.9056 18.6772 13.7738 18.5044 13.5693 18.3892L10.1713 16.4722L7.87103 7.08418C7.80108 6.80443 7.6558 6.57405 7.43519 6.39304C7.21995 6.21203 6.96437 6.12152 6.66842 6.12152H1.73692L4.04528 1.11899C4.14752 0.894093 4.17442 0.699367 4.126 0.53481C4.07757 0.364768 3.98341 0.233122 3.8435 0.139873C3.70898 0.0466245 3.56101 0 3.39959 0C3.26507 0 3.13593 0.0383966 3.01217 0.11519C2.88841 0.191983 2.79156 0.315401 2.72161 0.485443L0.0581126 7.56139C-0.00645695 7.72595 -0.0172185 7.88502 0.0258278 8.03861C0.0688742 8.18671 0.138825 8.31287 0.235679 8.41709L2.29383 10.5234C2.44988 10.6825 2.64359 10.762 2.87496 10.762C3.10634 10.762 3.30273 10.6825 3.46416 10.5234L4.3762 9.58544C4.43539 9.52511 4.50265 9.49768 4.57798 9.50316C4.65331 9.50865 4.70443 9.55527 4.73134 9.64304L5.22368 11.6589L2.37455 13.8392C2.27231 13.916 2.19429 14.012 2.14048 14.1272C2.09205 14.2424 2.05708 14.3576 2.03555 14.4728L1.23651 18.9899C1.19346 19.2148 1.23651 19.4232 1.36565 19.6152C1.50017 19.8127 1.68042 19.9361 1.90642 19.9854ZM3.73051 7.81646L2.87496 8.68861L2.01941 7.81646H3.73051Z"
		fill="currentColor"
	/>
</svg>
