<svg viewBox="0 0 19 18" fill="none" color="rgb(var(--foreground, 0, 0, 0))">
	<path
		d="M7.261 8.79401C7.57635 8.79401 7.86279 8.71666 8.12033 8.56196C8.38313 8.40192 8.59073 8.19121 8.74315 7.92982C8.90083 7.66309 8.97967 7.36702 8.97967 7.04161C8.97967 6.72154 8.90083 6.43081 8.74315 6.16941C8.59073 5.90269 8.38313 5.69197 8.12033 5.53727C7.86279 5.37723 7.57635 5.29721 7.261 5.29721C6.94039 5.29721 6.64869 5.37723 6.38589 5.53727C6.12835 5.69197 5.92075 5.90269 5.76307 6.16941C5.61065 6.43081 5.53444 6.72154 5.53444 7.04161C5.53444 7.36702 5.61065 7.66309 5.76307 7.92982C5.92075 8.19121 6.12835 8.40192 6.38589 8.56196C6.64869 8.71666 6.94039 8.79401 7.261 8.79401ZM8.08091 14.9394C8.27538 14.8167 8.4751 14.7047 8.68008 14.6033C8.88506 14.4967 9.0953 14.4033 9.31079 14.3233V11.2826C9.31079 11.1492 9.37649 11.0825 9.50788 11.0825H10.5091C10.7299 11.0825 10.9191 11.0025 11.0768 10.8425C11.2344 10.6824 11.3133 10.4904 11.3133 10.2664V5.28921L9.70498 6.60151V9.45817H6.87469C6.52255 9.45817 6.23347 9.57019 6.00747 9.79424C5.78672 10.0183 5.67635 10.309 5.67635 10.6664V12.1948C6.11259 12.5255 6.53569 12.9176 6.94564 13.3711C7.3556 13.8192 7.73403 14.342 8.08091 14.9394ZM12.5274 9.43416C12.7481 9.43416 12.9373 9.35681 13.095 9.20211C13.2527 9.04741 13.3315 8.85536 13.3315 8.62598V3.26475L11.7154 4.89712V8.62598C11.7154 8.85536 11.7942 9.04741 11.9519 9.20211C12.1148 9.35681 12.3066 9.43416 12.5274 9.43416ZM9.70498 7.18565H10.5959V6.41747L16.1618 0.768176C16.2459 0.682823 16.288 0.578799 16.288 0.456104C16.288 0.328075 16.2459 0.221384 16.1618 0.136031C16.0725 0.0453437 15.9674 0 15.8465 0C15.7256 0 15.6205 0.0453437 15.5311 0.136031L9.93361 5.80933C9.78119 5.96403 9.70498 6.16941 9.70498 6.42547V7.18565ZM0.441494 12.6989C1.03541 12.6989 1.63721 12.7709 2.24689 12.915C2.86183 13.0537 3.45837 13.3017 4.03651 13.6591C4.61992 14.0165 5.1639 14.5153 5.66847 15.1555C6.17829 15.801 6.62503 16.6225 7.00871 17.62C7.0823 17.8281 7.21369 17.9508 7.4029 17.9881C7.59737 18.0255 7.76293 17.9748 7.89959 17.8361C8.78257 16.9345 9.76017 16.3451 10.8324 16.0677C11.9046 15.7903 13.1739 15.8623 14.6403 16.2837C14.7611 16.3157 14.8663 16.3077 14.9556 16.2597C15.0502 16.2117 15.1238 16.1264 15.1763 16.0037C15.4812 15.2942 15.9306 14.7607 16.5245 14.4033C17.1237 14.0405 17.8017 13.8592 18.5585 13.8592C18.6846 13.8592 18.7898 13.8165 18.8739 13.7311C18.958 13.6458 19 13.5418 19 13.4191C19 13.291 18.958 13.1844 18.8739 13.099C18.7898 13.0136 18.6846 12.971 18.5585 12.971C17.7228 12.971 16.9423 13.1737 16.217 13.5791C15.4917 13.9845 14.9267 14.5687 14.522 15.3315C13.1029 14.9741 11.8284 14.9314 10.6983 15.2035C9.57358 15.4755 8.55657 16.0277 7.6473 16.8599C7.21107 15.8463 6.70913 15.0114 6.14149 14.3553C5.57386 13.6991 4.96681 13.187 4.32033 12.8189C3.67912 12.4455 3.02476 12.1841 2.35726 12.0348C1.69502 11.8854 1.05643 11.8107 0.441494 11.8107C0.315353 11.8107 0.210235 11.856 0.126141 11.9467C0.042047 12.0321 0 12.1361 0 12.2588C0 12.3815 0.042047 12.4855 0.126141 12.5709C0.210235 12.6562 0.315353 12.6989 0.441494 12.6989Z"
		fill="currentColor"
	/>
</svg>
