<svg viewBox="0 0 22 18" fill="none" color="rgb(var(--foreground, 0, 0, 0))">
	<path
		d="M8.24601 2.95863C8.58659 2.95863 8.87397 2.84117 9.10812 2.60625C9.3476 2.37133 9.46734 2.08036 9.46734 1.73332C9.46734 1.39162 9.3476 1.10064 9.10812 0.860385C8.87397 0.620128 8.58659 0.5 8.24601 0.5C7.90542 0.5 7.61538 0.620128 7.37591 0.860385C7.13643 1.10064 7.01669 1.39162 7.01669 1.73332C7.01669 2.08036 7.13643 2.37133 7.37591 2.60625C7.61538 2.84117 7.90542 2.95863 8.24601 2.95863ZM0.806255 13.8743H5.17272C5.29512 13.8743 5.38825 13.869 5.45211 13.8583C5.52129 13.8476 5.60112 13.8316 5.69158 13.8102L10.1139 12.7371C10.1512 12.7317 10.1804 12.7424 10.2017 12.7691C10.2283 12.7905 10.2416 12.8198 10.2416 12.8572L9.94629 15.2758L8.21408 14.0345C8.02781 13.901 7.82293 13.8556 7.59942 13.8983C7.38123 13.9357 7.20827 14.0452 7.08055 14.2267C6.94219 14.4082 6.88897 14.6138 6.9209 14.8433C6.95815 15.0676 7.06991 15.2438 7.25617 15.3719L9.93033 17.2619C10.1272 17.4007 10.3268 17.4782 10.529 17.4942C10.7366 17.5155 10.9202 17.4782 11.0798 17.3821C11.2395 17.286 11.3432 17.1365 11.3911 16.9336L13.5943 8.06809C13.6316 7.9453 13.7114 7.89725 13.8338 7.92394L21.0341 9.35747C21.3428 9.42154 21.5796 9.36281 21.7446 9.18129C21.9149 8.99976 22 8.7942 22 8.56462C22 8.38844 21.9468 8.22293 21.8403 8.06809C21.7392 7.90792 21.5769 7.80648 21.3534 7.76377L14.2569 6.33024C13.5544 6.19142 12.9265 6.07663 12.373 5.98587C11.8195 5.8951 11.3007 5.82837 10.8164 5.78565C10.3321 5.7376 9.83986 5.71358 9.33962 5.71358H7.33599V3.66338C7.33599 3.4338 7.25617 3.2416 7.09652 3.08677C6.93686 2.9266 6.74528 2.84651 6.52177 2.84651C6.29294 2.84651 6.0987 2.9266 5.93904 3.08677C5.77939 3.2416 5.69957 3.4338 5.69957 3.66338V6.52244C5.69957 6.74668 5.77939 6.93889 5.93904 7.09906C6.0987 7.25923 6.29294 7.33931 6.52177 7.33931H9.89041C9.96492 7.33931 10.0235 7.36868 10.066 7.42741C10.1139 7.4808 10.1272 7.54487 10.1059 7.61961L9.45137 10.1503C9.33962 10.5828 9.07885 10.8711 8.66908 11.0152L5.15675 12.2406H0.806255C0.577421 12.2406 0.38584 12.3206 0.23151 12.4808C0.0771804 12.641 0 12.8359 0 13.0654C0 13.295 0.0771804 13.4872 0.23151 13.6421C0.38584 13.7969 0.577421 13.8743 0.806255 13.8743ZM12.7961 5.23306C13.1154 5.23306 13.4054 5.15565 13.6662 5.00081C13.9323 4.84064 14.1425 4.62708 14.2968 4.36013C14.4564 4.09318 14.5363 3.79686 14.5363 3.47118C14.5363 3.15084 14.4564 2.85986 14.2968 2.59824C14.1425 2.33129 13.9323 2.1204 13.6662 1.96557C13.4054 1.81074 13.1154 1.73332 12.7961 1.73332C12.4714 1.73332 12.1761 1.81074 11.91 1.96557C11.6492 2.1204 11.439 2.33129 11.2794 2.59824C11.1251 2.85986 11.0479 3.15084 11.0479 3.47118C11.0479 3.79686 11.1251 4.09318 11.2794 4.36013C11.439 4.62708 11.6492 4.84064 11.91 5.00081C12.1761 5.15565 12.4714 5.23306 12.7961 5.23306Z"
		fill="currentColor"
	/>
</svg>
