<svg viewBox="0 0 15 20" fill="none" color="rgb(var(--foreground, 0, 0, 0))">
	<path
		d="M5.67495 7.58552C6.00045 7.58552 6.29394 7.50715 6.5554 7.35041C6.82221 7.18827 7.03298 6.97479 7.18773 6.70996C7.34781 6.43973 7.42785 6.13977 7.42785 5.81008C7.42785 5.4858 7.34781 5.19125 7.18773 4.92642C7.03298 4.65619 6.82221 4.4427 6.5554 4.28597C6.29394 4.12383 6.00045 4.04276 5.67495 4.04276C5.35479 4.04276 5.0613 4.12383 4.7945 4.28597C4.52769 4.4427 4.31692 4.65619 4.16217 4.92642C4.00743 5.19125 3.93005 5.4858 3.93005 5.81008C3.93005 6.13977 4.00743 6.43973 4.16217 6.70996C4.31692 6.97479 4.52769 7.18827 4.7945 7.35041C5.0613 7.50715 5.35479 7.58552 5.67495 7.58552ZM1.41673 18.2381L6.22724 19.4623C6.56874 19.5487 6.83822 19.4866 7.03565 19.2758C7.23842 19.0704 7.31846 18.8083 7.27577 18.4894L6.82754 15.3844H10.6375L13.615 18.4408C13.7698 18.5975 13.9592 18.6759 14.1833 18.6759C14.4074 18.6759 14.5995 18.5975 14.7596 18.4408C14.925 18.284 15.0051 18.0895 14.9998 17.8571C14.9998 17.6247 14.9197 17.4274 14.7596 17.2653L11.614 14.063C11.502 13.9549 11.4086 13.8792 11.3339 13.836C11.2592 13.7928 11.1311 13.7603 10.9497 13.7387L7.49989 13.3901L6.62744 10.7229C6.59542 10.631 6.60877 10.5473 6.66746 10.4716C6.72616 10.3959 6.8062 10.3689 6.90759 10.3905L13.2148 11.6633C13.4176 11.7066 13.615 11.6741 13.8071 11.5661C14.0046 11.458 14.122 11.2796 14.1593 11.031C14.1967 10.804 14.1567 10.5986 14.0393 10.4149C13.9219 10.2257 13.7538 10.1095 13.535 10.0663L4.81851 8.30704C4.43431 8.23137 4.12749 8.15571 3.89804 8.08004C3.66859 7.99897 3.46845 7.87196 3.2977 7.69901L1.61683 6.01276V2.243C1.61683 2.01601 1.53946 1.82414 1.38471 1.66741C1.22997 1.50527 1.04054 1.4242 0.81642 1.4242C0.581632 1.4242 0.386866 1.50527 0.232119 1.66741C0.0773731 1.82414 0 2.01601 0 2.243V6.21543C0 6.38298 0.0160082 6.5235 0.0480247 6.637C0.0800412 6.75049 0.157414 6.8694 0.280144 6.9937L2.15311 8.88263C2.34521 9.0772 2.47061 9.23124 2.5293 9.34473C2.588 9.45823 2.65203 9.61497 2.7214 9.81494L5.25073 17.5166L1.80893 16.641C1.59549 16.5816 1.39272 16.6113 1.20062 16.7302C1.00852 16.8491 0.888457 17.0221 0.840432 17.2491C0.792407 17.4652 0.821756 17.6706 0.928477 17.8652C1.04054 18.0598 1.20329 18.1841 1.41673 18.2381ZM3.13762 2.52675C3.40976 2.52675 3.64457 2.42947 3.84201 2.2349C4.03944 2.03492 4.13816 1.79442 4.13816 1.51337C4.13816 1.23233 4.03944 0.994527 3.84201 0.799959C3.64457 0.599986 3.40976 0.5 3.13762 0.5C2.8548 0.5 2.61735 0.599986 2.42525 0.799959C2.23849 0.994527 2.14511 1.23233 2.14511 1.51337C2.14511 1.79442 2.23849 2.03492 2.42525 2.2349C2.61735 2.42947 2.8548 2.52675 3.13762 2.52675Z"
		fill="currentColor"
	/>
</svg>
