<svg color="rgb(var(--foreground, 0, 0, 0))" viewBox="0 0 12 20" fill="none">
	<path
		d="M4.99814 4.02302C5.31677 4.02302 5.60619 3.94473 5.8664 3.78815C6.13193 3.62617 6.34169 3.4129 6.49569 3.14834C6.65501 2.87837 6.73467 2.58411 6.73467 2.26556C6.73467 1.9416 6.65501 1.64734 6.49569 1.38278C6.34169 1.11282 6.13193 0.899545 5.8664 0.742967C5.60619 0.580989 5.31677 0.5 4.99814 0.5C4.67951 0.5 4.38744 0.580989 4.12191 0.742967C3.8617 0.899545 3.65194 1.11282 3.49262 1.38278C3.33862 1.64734 3.26162 1.9416 3.26162 2.26556C3.26162 2.58411 3.33862 2.87837 3.49262 3.14834C3.65194 3.4129 3.8617 3.62617 4.12191 3.78815C4.38744 3.94473 4.67951 4.02302 4.99814 4.02302ZM0.393961 8.17775C0.1603 8.5125 0.0301938 8.86075 0.00364147 9.22251C-0.0176004 9.57886 0.054091 9.90821 0.218716 10.2106C0.38334 10.5075 0.627622 10.7343 0.951561 10.8909C1.28081 11.0475 1.6791 11.0907 2.14642 11.0205L5.06983 10.575L3.9387 13.9928C3.84311 14.2735 3.84842 14.5111 3.95463 14.7055C4.06615 14.8944 4.22281 15.0213 4.42461 15.0861C4.63172 15.1509 4.83352 15.1401 5.03 15.0537C5.2318 14.9673 5.37784 14.7918 5.46812 14.5273L6.97364 9.88661C7.06392 9.60585 7.03205 9.35209 6.87805 9.12532C6.72936 8.89315 6.49304 8.77707 6.1691 8.77707H3.28551L4.799 6.72805C4.87334 6.62006 4.93973 6.55527 4.99814 6.53367C5.06187 6.50668 5.14418 6.49318 5.24508 6.49318H11.2034C11.4212 6.49318 11.607 6.41489 11.761 6.25831C11.9203 6.10173 12 5.91006 12 5.68329C12 5.46192 11.923 5.27295 11.769 5.11637C11.615 4.95439 11.4265 4.8734 11.2034 4.8734H3.62804C3.34658 4.8734 3.07841 4.94359 2.8235 5.08397C2.5686 5.21895 2.35353 5.40793 2.17828 5.6509L0.393961 8.17775ZM1.09494 18.8845C1.09494 19.0681 1.1507 19.2165 1.26222 19.3299C1.37905 19.4433 1.53306 19.5 1.72423 19.5H7.69852C7.88438 19.5 8.03308 19.4433 8.1446 19.3299C8.26143 19.2165 8.31984 19.0681 8.31984 18.8845V16.4467C8.31984 16.2631 8.26143 16.1147 8.1446 16.0013C8.03308 15.8933 7.88438 15.8393 7.69852 15.8393H1.72423C1.53306 15.8393 1.37905 15.8933 1.26222 16.0013C1.1507 16.1147 1.09494 16.2631 1.09494 16.4467V18.8845Z"
		fill="currentColor"
	/>
</svg>
