<svg color="rgb(var(--foreground, 0, 0, 0))" viewBox="0 0 14 20" fill="none">
	<path
		d="M6.93224 3.56823C7.25168 3.56823 7.54185 3.48676 7.80273 3.32383C8.06894 3.1609 8.27924 2.94637 8.43364 2.68024C8.59336 2.40869 8.67322 2.10998 8.67322 1.78411C8.67322 1.45825 8.59336 1.16225 8.43364 0.89613C8.27924 0.624576 8.06894 0.407332 7.80273 0.244399C7.54185 0.0814664 7.25168 0 6.93224 0C6.61279 0 6.31997 0.0814664 6.05376 0.244399C5.79288 0.407332 5.58258 0.624576 5.42285 0.89613C5.26313 1.16225 5.18327 1.45825 5.18327 1.78411C5.18327 2.10998 5.26313 2.40869 5.42285 2.68024C5.58258 2.94637 5.79288 3.1609 6.05376 3.32383C6.31997 3.48676 6.61279 3.56823 6.93224 3.56823ZM0.647122 9.80041C0.854762 9.83843 1.05442 9.80584 1.24608 9.70265C1.43775 9.59946 1.56021 9.42295 1.61345 9.17312L2.29227 6.07739H3.49819C3.57272 6.07739 3.63395 6.10726 3.68187 6.16701C3.72978 6.22132 3.74309 6.28649 3.7218 6.36253L2.91519 9.53157C2.80339 9.96062 2.81404 10.3652 2.94714 10.7454C3.08557 11.1256 3.32781 11.4107 3.67388 11.6008C4.02527 11.7909 4.46717 11.8181 4.99959 11.6823L7.93051 10.9409L7.36349 13.8248C7.31557 14.0475 7.35284 14.2566 7.4753 14.4521C7.60308 14.6422 7.77611 14.7617 7.9944 14.8106C8.18074 14.8486 8.37507 14.8106 8.57739 14.6965C8.77971 14.5825 8.90748 14.4033 8.96072 14.1589L9.77531 9.99593C9.81258 9.79498 9.79129 9.61575 9.71142 9.45825C9.63156 9.30075 9.51709 9.17855 9.36802 9.09165C9.21894 9.00475 9.06188 8.96945 8.89684 8.98574L6.29335 9.24644L7.06002 6.28106C7.07599 6.22132 7.1106 6.17515 7.16384 6.14257C7.2224 6.10998 7.28097 6.10455 7.33953 6.12627L10.3264 7.2831C10.5979 7.38629 10.8481 7.36999 11.0771 7.23422C11.306 7.09844 11.4205 6.88663 11.4205 6.59878V2.75356C11.4205 2.52546 11.3406 2.32994 11.1809 2.16701C11.0265 2.00407 10.8322 1.92261 10.5979 1.92261C10.3743 1.92261 10.1826 2.00407 10.0229 2.16701C9.86316 2.32994 9.7833 2.52546 9.7833 2.75356V5.29532L8.25794 4.69246C8.00771 4.60014 7.74949 4.52953 7.48328 4.48065C7.21708 4.43177 6.94821 4.40733 6.67668 4.40733H1.62942C1.43775 4.40733 1.26738 4.46979 1.11831 4.5947C0.974555 4.71962 0.881383 4.87441 0.83879 5.05906L0.0242005 8.80652C-0.0290406 9.03462 0.00556611 9.24915 0.128021 9.4501C0.250475 9.64562 0.423509 9.76239 0.647122 9.80041ZM4.32875 19.8045C4.52042 19.8425 4.71475 19.8018 4.91174 19.6823C5.11405 19.5682 5.23917 19.3917 5.28709 19.1528L6.10168 14.9898C6.107 14.9572 6.10966 14.9192 6.10966 14.8758C6.11499 14.8323 6.11765 14.7916 6.11765 14.7536V12.22L5.18327 12.4481C5.00225 12.4969 4.82655 12.5295 4.65618 12.5458C4.49113 12.5567 4.33141 12.5567 4.17701 12.5458L4.48048 14.7862L3.68985 18.8106C3.64726 19.0387 3.68719 19.2478 3.80965 19.4379C3.9321 19.6334 4.10513 19.7556 4.32875 19.8045ZM7.44335 18.167H12.7462C12.8686 18.167 12.9724 18.1236 13.0576 18.0367C13.1481 17.9498 13.1934 17.8411 13.1934 17.7108C13.1934 17.5859 13.1481 17.48 13.0576 17.3931C12.9724 17.3062 12.8686 17.2627 12.7462 17.2627H7.44335C7.31557 17.2627 7.20909 17.3062 7.12391 17.3931C7.03872 17.48 6.99613 17.5859 6.99613 17.7108C6.99613 17.8411 7.03872 17.9498 7.12391 18.0367C7.20909 18.1236 7.31557 18.167 7.44335 18.167ZM6.62078 20H13.5528C13.6752 20 13.779 19.9538 13.8642 19.8615C13.9547 19.7746 14 19.6687 14 19.5438C14 19.4189 13.9547 19.313 13.8642 19.2261C13.779 19.1392 13.6752 19.0957 13.5528 19.0957H6.62078C6.49832 19.0957 6.3945 19.1392 6.30932 19.2261C6.22413 19.313 6.18154 19.4189 6.18154 19.5438C6.18154 19.6687 6.22413 19.7746 6.30932 19.8615C6.3945 19.9538 6.49832 20 6.62078 20Z"
		fill="currentColor"
	/>
</svg>
