<svg color="rgb(var(--foreground, 0, 0, 0))" viewBox="0 0 15 18" fill="none">
	<path
		d="M7.1076 3.27C7.41321 3.27 7.69081 3.1975 7.94039 3.0525C8.18997 2.9025 8.38862 2.705 8.53633 2.46C8.68914 2.21 8.76554 1.9325 8.76554 1.6275C8.76554 1.3275 8.68914 1.055 8.53633 0.81C8.38862 0.565 8.18997 0.37 7.94039 0.225C7.69081 0.075 7.41321 0 7.1076 0C6.7969 0 6.51421 0.075 6.25953 0.225C6.00995 0.37 5.80876 0.565 5.65595 0.81C5.50824 1.055 5.43438 1.3275 5.43438 1.6275C5.43438 1.9325 5.50824 2.21 5.65595 2.46C5.80876 2.705 6.00995 2.9025 6.25953 3.0525C6.51421 3.1975 6.7969 3.27 7.1076 3.27ZM0.277199 17.805C0.440191 17.94 0.628651 18.0025 0.842578 17.9925C1.0616 17.9825 1.24497 17.895 1.39268 17.73L4.11261 14.6775C4.26033 14.5075 4.34437 14.3225 4.36474 14.1225L4.70855 10.8375C4.71365 10.7825 4.73912 10.7475 4.78496 10.7325C4.83589 10.7125 4.87919 10.725 4.91484 10.77L7.1076 13.2525V17.22C7.1076 17.435 7.184 17.6175 7.33681 17.7675C7.49471 17.9225 7.68317 18 7.90219 18C8.11612 18 8.30203 17.9225 8.45993 17.7675C8.61783 17.6175 8.69678 17.435 8.69678 17.22V12.9975C8.69678 12.8925 8.6815 12.8025 8.65094 12.7275C8.62037 12.6475 8.57963 12.5725 8.52869 12.5025L6.20605 9.1725L7.33681 5.8575C7.39284 5.6925 7.51508 5.61 7.70354 5.61H13.8158C14.0297 5.61 14.2156 5.535 14.3735 5.385C14.5314 5.235 14.6103 5.0525 14.6103 4.8375C14.6103 4.6225 14.5314 4.44 14.3735 4.29C14.2156 4.135 14.0297 4.0575 13.8158 4.0575H4.60923C4.28834 4.0575 3.99292 4.1075 3.72296 4.2075C3.453 4.3075 3.18814 4.485 2.92837 4.74L1.42324 6.2325C1.25515 6.3975 1.16856 6.585 1.16347 6.795C1.15838 7 1.2195 7.1775 1.34684 7.3275C1.47927 7.4775 1.66009 7.5525 1.8893 7.5525H3.31039L3.00477 8.445C2.84688 8.915 2.76793 9.4025 2.76793 9.9075V13.8375L0.200796 16.71C0.053084 16.875 -0.0131317 17.0625 0.00214883 17.2725C0.0174294 17.4875 0.109113 17.665 0.277199 17.805ZM13.8158 6.3975C14.1417 6.3975 14.4193 6.2825 14.6485 6.0525C14.8828 5.8225 15 5.545 15 5.22C15 4.9 14.8828 4.6275 14.6485 4.4025C14.4193 4.1725 14.1417 4.0575 13.8158 4.0575C13.4847 4.0575 13.202 4.1725 12.9677 4.4025C12.7334 4.6275 12.6162 4.9 12.6162 5.22C12.6162 5.545 12.7334 5.8225 12.9677 6.0525C13.202 6.2825 13.4847 6.3975 13.8158 6.3975Z"
		fill="currentColor"
	/>
</svg>
