<svg color="rgb(var(--foreground, 0, 0, 0))" viewBox="0 0 19 12" fill="none">
	<path
		d="M12.6988 4.17078C13.0252 4.17078 13.3195 4.09086 13.5817 3.93102C13.8493 3.76567 14.0607 3.54797 14.2159 3.2779C14.3764 3.00232 14.4567 2.69918 14.4567 2.36848C14.4567 2.03228 14.3764 1.72914 14.2159 1.45907C14.0607 1.18349 13.8493 0.965782 13.5817 0.805946C13.3195 0.640598 13.0252 0.557924 12.6988 0.557924C12.3777 0.557924 12.0834 0.640598 11.8158 0.805946C11.5482 0.965782 11.3369 1.18349 11.1817 1.45907C11.0265 1.72914 10.9489 2.03228 10.9489 2.36848C10.9489 2.69918 11.0265 3.00232 11.1817 3.2779C11.3369 3.54797 11.5482 3.76567 11.8158 3.93102C12.0834 4.09086 12.3777 4.17078 12.6988 4.17078ZM9.49599 7.51907C9.85453 7.51907 10.1569 7.47222 10.403 7.37853C10.6546 7.28483 10.8847 7.16909 11.0934 7.0313C11.3074 6.88799 11.5295 6.7502 11.7596 6.61793C11.9897 6.48013 12.2626 6.3699 12.5784 6.28723L7.01563 0.326437C6.83368 0.133531 6.61963 0.0260548 6.37347 0.00400844C6.13266 -0.018038 5.90522 0.050857 5.69117 0.210693L2.54457 2.5173C2.27165 2.71571 2.13252 2.94445 2.12717 3.20349C2.12717 3.46254 2.20744 3.67749 2.36798 3.84835C2.49641 3.99716 2.66765 4.09086 2.8817 4.12944C3.10111 4.16802 3.32319 4.10464 3.54795 3.93929L6.10055 2.07912L7.54541 3.60859C7.62568 3.69678 7.6685 3.79874 7.67385 3.91449C7.68455 4.03023 7.62836 4.13219 7.50528 4.22038L4.53527 6.22936C4.70652 6.21282 4.88579 6.2018 5.07309 6.19629C5.26038 6.19078 5.46106 6.19353 5.67511 6.20456C6.12998 6.22109 6.50993 6.29825 6.81495 6.43604C7.11998 6.57383 7.39825 6.72816 7.64977 6.89902C7.90128 7.06436 8.16885 7.21042 8.45247 7.33719C8.73609 7.45844 9.08393 7.51907 9.49599 7.51907ZM0.449514 9.70166H1.26025C1.79538 9.70166 2.24222 9.63552 2.60076 9.50325C2.96465 9.36546 3.28573 9.20838 3.564 9.032C3.84762 8.85012 4.12857 8.69029 4.40684 8.5525C4.68511 8.41471 5.00887 8.34581 5.37811 8.34581C5.75271 8.34581 6.07914 8.41471 6.35741 8.5525C6.63568 8.69029 6.91395 8.85012 7.19222 9.032C7.4705 9.20838 7.7889 9.36546 8.14744 9.50325C8.51133 9.63552 8.96085 9.70166 9.49599 9.70166C10.0365 9.70166 10.486 9.63552 10.8445 9.50325C11.2084 9.36546 11.5295 9.20838 11.8078 9.032C12.086 8.85012 12.3643 8.69029 12.6426 8.5525C12.9209 8.41471 13.2473 8.34581 13.6219 8.34581C13.9911 8.34581 14.3149 8.41471 14.5932 8.5525C14.8714 8.69029 15.1497 8.85012 15.428 9.032C15.7062 9.20838 16.0246 9.36546 16.3832 9.50325C16.7471 9.63552 17.1993 9.70166 17.7398 9.70166H18.5505C18.6789 9.70166 18.7859 9.65757 18.8716 9.56939C18.9572 9.4812 19 9.37372 19 9.24696C19 9.12019 18.9572 9.01271 18.8716 8.92453C18.7859 8.83083 18.6789 8.78398 18.5505 8.78398H17.7398C17.3545 8.78398 17.0173 8.71784 16.7283 8.58557C16.4394 8.44778 16.1531 8.2907 15.8695 8.11432C15.5912 7.93244 15.2755 7.7726 14.9223 7.63481C14.5691 7.49703 14.1356 7.42813 13.6219 7.42813C13.1028 7.42813 12.6667 7.49703 12.3135 7.63481C11.9603 7.7726 11.6419 7.93244 11.3583 8.11432C11.08 8.2907 10.7964 8.44778 10.5074 8.58557C10.2184 8.71784 9.88128 8.78398 9.49599 8.78398C9.11069 8.78398 8.77355 8.71784 8.48458 8.58557C8.1956 8.44778 7.90931 8.2907 7.62568 8.11432C7.34741 7.93244 7.03168 7.7726 6.67849 7.63481C6.3253 7.49703 5.89184 7.42813 5.37811 7.42813C4.86438 7.42813 4.43092 7.49703 4.07773 7.63481C3.72454 7.7726 3.40614 7.93244 3.12251 8.11432C2.84424 8.2907 2.56063 8.44778 2.27165 8.58557C1.98268 8.71784 1.64554 8.78398 1.26025 8.78398H0.449514C0.321082 8.78398 0.214054 8.83083 0.128433 8.92453C0.0428109 9.01271 0 9.12019 0 9.24696C0 9.37372 0.0428109 9.4812 0.128433 9.56939C0.214054 9.65757 0.321082 9.70166 0.449514 9.70166ZM0.658217 12C0.792001 12 0.90438 11.9532 0.995353 11.8595C1.08633 11.7658 1.13181 11.6528 1.13181 11.5205C1.13181 11.3827 1.08633 11.267 0.995353 11.1733C0.90438 11.0796 0.792001 11.0327 0.658217 11.0327C0.529785 11.0327 0.420082 11.0796 0.329109 11.1733C0.238136 11.267 0.192649 11.3827 0.192649 11.5205C0.192649 11.6528 0.238136 11.7658 0.329109 11.8595C0.420082 11.9532 0.529785 12 0.658217 12ZM2.1673 11.7189C2.29573 11.7189 2.40544 11.6748 2.49641 11.5866C2.58738 11.4929 2.63287 11.3772 2.63287 11.2394C2.63287 11.1071 2.58738 10.9941 2.49641 10.9004C2.40544 10.8067 2.29573 10.7599 2.1673 10.7599C2.03352 10.7599 1.92114 10.8067 1.83017 10.9004C1.73919 10.9941 1.69371 11.1071 1.69371 11.2394C1.69371 11.3772 1.73919 11.4929 1.83017 11.5866C1.92114 11.6748 2.03352 11.7189 2.1673 11.7189ZM3.57203 11.041C3.70581 11.041 3.81819 10.9941 3.90916 10.9004C4.00014 10.8067 4.04562 10.691 4.04562 10.5532C4.04562 10.4209 4.00014 10.3079 3.90916 10.2142C3.81819 10.1205 3.70581 10.0737 3.57203 10.0737C3.4436 10.0737 3.33389 10.1205 3.24292 10.2142C3.15195 10.3079 3.10646 10.4209 3.10646 10.5532C3.10646 10.691 3.15195 10.8067 3.24292 10.9004C3.33389 10.9941 3.4436 11.041 3.57203 11.041ZM5.08914 10.6689C5.22292 10.6689 5.3353 10.6221 5.42628 10.5284C5.51725 10.4347 5.56274 10.3217 5.56274 10.1894C5.56274 10.0517 5.51725 9.93591 5.42628 9.84221C5.3353 9.74851 5.22292 9.70166 5.08914 9.70166C4.96071 9.70166 4.851 9.74851 4.76003 9.84221C4.66906 9.93591 4.62357 10.0517 4.62357 10.1894C4.62357 10.3217 4.66906 10.4347 4.76003 10.5284C4.851 10.6221 4.96071 10.6689 5.08914 10.6689ZM6.60625 11.041C6.73468 11.041 6.84439 10.9941 6.93536 10.9004C7.02633 10.8067 7.07182 10.691 7.07182 10.5532C7.07182 10.4209 7.02633 10.3079 6.93536 10.2142C6.84439 10.1205 6.73468 10.0737 6.60625 10.0737C6.47247 10.0737 6.36009 10.1205 6.26911 10.2142C6.18349 10.3079 6.14068 10.4209 6.14068 10.5532C6.14068 10.691 6.18349 10.8067 6.26911 10.9004C6.36009 10.9941 6.47247 11.041 6.60625 11.041ZM8.02704 11.7189C8.16082 11.7189 8.2732 11.6748 8.36417 11.5866C8.45514 11.4929 8.50063 11.3772 8.50063 11.2394C8.50063 11.1071 8.45514 10.9941 8.36417 10.9004C8.2732 10.8067 8.16082 10.7599 8.02704 10.7599C7.8986 10.7599 7.7889 10.8067 7.69793 10.9004C7.60695 10.9941 7.56147 11.1071 7.56147 11.2394C7.56147 11.3772 7.60695 11.4929 7.69793 11.5866C7.7889 11.6748 7.8986 11.7189 8.02704 11.7189ZM9.51204 12C9.64047 12 9.75017 11.9532 9.84115 11.8595C9.93212 11.7658 9.97761 11.6528 9.97761 11.5205C9.97761 11.3827 9.93212 11.267 9.84115 11.1733C9.75017 11.0796 9.64047 11.0327 9.51204 11.0327C9.37825 11.0327 9.26588 11.0796 9.1749 11.1733C9.08393 11.267 9.03844 11.3827 9.03844 11.5205C9.03844 11.6528 9.08393 11.7658 9.1749 11.8595C9.26588 11.9532 9.37825 12 9.51204 12ZM10.989 11.7189C11.1228 11.7189 11.2325 11.6748 11.3181 11.5866C11.4091 11.4929 11.4546 11.3772 11.4546 11.2394C11.4546 11.1071 11.4091 10.9941 11.3181 10.9004C11.2325 10.8067 11.1228 10.7599 10.989 10.7599C10.8606 10.7599 10.7509 10.8067 10.6599 10.9004C10.5689 10.9941 10.5234 11.1071 10.5234 11.2394C10.5234 11.3772 10.5689 11.4929 10.6599 11.5866C10.7509 11.6748 10.8606 11.7189 10.989 11.7189ZM12.4098 11.041C12.5436 11.041 12.656 10.9941 12.7469 10.9004C12.8379 10.8067 12.8834 10.691 12.8834 10.5532C12.8834 10.4209 12.8379 10.3079 12.7469 10.2142C12.656 10.1205 12.5436 10.0737 12.4098 10.0737C12.2814 10.0737 12.1717 10.1205 12.0807 10.2142C11.9897 10.3079 11.9442 10.4209 11.9442 10.5532C11.9442 10.691 11.9897 10.8067 12.0807 10.9004C12.1717 10.9941 12.2814 11.041 12.4098 11.041ZM13.9269 10.6689C14.0607 10.6689 14.1704 10.6221 14.256 10.5284C14.347 10.4347 14.3925 10.3217 14.3925 10.1894C14.3925 10.0517 14.347 9.93591 14.256 9.84221C14.1704 9.74851 14.0607 9.70166 13.9269 9.70166C13.7985 9.70166 13.6888 9.74851 13.5978 9.84221C13.5068 9.93591 13.4613 10.0517 13.4613 10.1894C13.4613 10.3217 13.5068 10.4347 13.5978 10.5284C13.6888 10.6221 13.7985 10.6689 13.9269 10.6689ZM15.444 11.041C15.5778 11.041 15.6875 10.9941 15.7731 10.9004C15.8641 10.8067 15.9096 10.691 15.9096 10.5532C15.9096 10.4209 15.8641 10.3079 15.7731 10.2142C15.6875 10.1205 15.5778 10.0737 15.444 10.0737C15.3156 10.0737 15.2059 10.1205 15.1149 10.2142C15.0239 10.3079 14.9785 10.4209 14.9785 10.5532C14.9785 10.691 15.0239 10.8067 15.1149 10.9004C15.2059 10.9941 15.3156 11.041 15.444 11.041ZM16.8568 11.7189C16.9852 11.7189 17.0949 11.6748 17.1859 11.5866C17.2769 11.4929 17.3223 11.3772 17.3223 11.2394C17.3223 11.1071 17.2769 10.9941 17.1859 10.9004C17.0949 10.8067 16.9852 10.7599 16.8568 10.7599C16.723 10.7599 16.6106 10.8067 16.5196 10.9004C16.434 10.9941 16.3912 11.1071 16.3912 11.2394C16.3912 11.3772 16.434 11.4929 16.5196 11.5866C16.6106 11.6748 16.723 11.7189 16.8568 11.7189ZM18.3498 12C18.4836 12 18.596 11.9532 18.6869 11.8595C18.7779 11.7658 18.8234 11.6528 18.8234 11.5205C18.8234 11.3827 18.7779 11.267 18.6869 11.1733C18.596 11.0796 18.4836 11.0327 18.3498 11.0327C18.2214 11.0327 18.1117 11.0796 18.0207 11.1733C17.9297 11.267 17.8842 11.3827 17.8842 11.5205C17.8842 11.6528 17.9297 11.7658 18.0207 11.8595C18.1117 11.9532 18.2214 12 18.3498 12Z"
		fill="currentColor"
	/>
</svg>
