<svg color="rgb(var(--foreground, 0, 0, 0))" viewBox="0 0 13 20" fill="none">
	<path
		d="M4.62164 3.88208C4.93675 3.88208 5.22297 3.80726 5.48031 3.65764C5.7429 3.50285 5.95297 3.29905 6.11053 3.04623C6.26808 2.78826 6.34686 2.50448 6.34686 2.19491C6.34686 1.88534 6.26808 1.60414 6.11053 1.35132C5.95297 1.09335 5.7429 0.886965 5.48031 0.732179C5.22297 0.577393 4.93675 0.5 4.62164 0.5C4.30653 0.5 4.01769 0.577393 3.7551 0.732179C3.49776 0.886965 3.29031 1.09335 3.13276 1.35132C2.98045 1.60414 2.9043 1.88534 2.9043 2.19491C2.9043 2.50448 2.98045 2.78826 3.13276 3.04623C3.29031 3.29905 3.49776 3.50285 3.7551 3.65764C4.01769 3.80726 4.30653 3.88208 4.62164 3.88208ZM5.81117 15.6923C5.98974 15.7232 6.16567 15.6923 6.33898 15.5994C6.51229 15.5117 6.63571 15.3492 6.70923 15.1118L7.77272 11.6136C7.84625 11.3763 7.83574 11.1622 7.74121 10.9713C7.64668 10.7804 7.48387 10.6437 7.25279 10.5611L4.4956 9.58595L4.90524 6.78432C4.9315 6.61405 5.03128 6.56762 5.20459 6.64501L6.59107 7.26415C6.68035 7.30543 6.767 7.33639 6.85103 7.35703C6.93506 7.37251 7.03484 7.3854 7.15038 7.39572L10.6323 7.74399C10.8529 7.76463 11.0472 7.70788 11.2153 7.57373C11.3886 7.43958 11.4831 7.26674 11.4989 7.05519C11.5199 6.84881 11.4595 6.66307 11.3177 6.49796C11.1811 6.3277 11.0052 6.23225 10.7899 6.21161L7.23704 5.87108L4.55074 4.65601C4.16736 4.48574 3.79448 4.42899 3.43211 4.48574C3.06974 4.5425 2.7625 4.68955 2.51042 4.92688C2.26358 5.16422 2.11391 5.47122 2.06139 5.84786L1.62024 9.14481C1.55722 9.62464 1.66225 10.0606 1.93535 10.4528C2.20844 10.8449 2.58657 11.0977 3.06974 11.2112L6.06326 11.8845L5.19671 14.6707C5.10743 14.9544 5.13369 15.1866 5.27549 15.3672C5.42254 15.5478 5.6011 15.6561 5.81117 15.6923ZM0.391316 18.1301C0.559374 18.2179 0.745813 18.2437 0.950633 18.2075C1.15545 18.1714 1.33401 18.0424 1.48632 17.8206L3.62117 14.6862C3.66844 14.6242 3.70258 14.5572 3.72358 14.4849C3.74984 14.4075 3.77085 14.3224 3.78661 14.2295L4.11747 12.2251L2.91218 11.9542C2.71261 11.9129 2.5288 11.851 2.36074 11.7684L2.21107 13.9819L0.186496 16.9615C0.0131866 17.2195 -0.0393314 17.4542 0.028942 17.6658C0.0972154 17.8773 0.218007 18.0321 0.391316 18.1301ZM12.9562 5.40672C12.8985 5.29321 12.8118 5.2184 12.6963 5.18228C12.586 5.14101 12.4731 5.14616 12.3575 5.19776C12.1737 5.28547 12.0109 5.36545 11.8691 5.43768C11.7273 5.50991 11.5881 5.58215 11.4516 5.65438C11.5934 5.72661 11.7194 5.81948 11.8297 5.93299C11.9453 6.0465 12.0345 6.17291 12.0976 6.31222C12.1868 6.26578 12.2814 6.21677 12.3812 6.16517C12.4862 6.10842 12.6096 6.04392 12.7514 5.97169C12.8617 5.91494 12.9352 5.83238 12.972 5.72403C13.014 5.61568 13.0088 5.50991 12.9562 5.40672ZM2.27409 19.5H5.20459C5.32538 19.5 5.42779 19.4587 5.51182 19.3762C5.6011 19.2936 5.64574 19.193 5.64574 19.0743V17.6813H8.14296C8.2585 17.6813 8.35828 17.6374 8.44231 17.5497C8.53159 17.462 8.57623 17.3588 8.57623 17.2401V15.847H10.1912C10.312 15.847 10.4144 15.8058 10.4984 15.7232C10.5824 15.6458 10.6271 15.5452 10.6323 15.4214L10.908 8.45601C10.8713 8.45601 10.8371 8.45859 10.8056 8.46375C10.7794 8.46375 10.7505 8.46375 10.719 8.46375C10.6087 8.47407 10.4931 8.47407 10.3723 8.46375C10.2516 8.45343 10.1386 8.44053 10.0336 8.42505L9.76577 14.9802H8.14296C8.01692 14.9802 7.91189 15.0215 7.82787 15.1041C7.74384 15.1815 7.70182 15.2821 7.70182 15.4059V16.8145H5.20459C5.0838 16.8145 4.98139 16.8557 4.89736 16.9383C4.81333 17.0208 4.77132 17.1215 4.77132 17.2401V18.6409H2.27409C2.1533 18.6409 2.04826 18.6822 1.95898 18.7648C1.8697 18.8525 1.82506 18.9557 1.82506 19.0743C1.82506 19.1878 1.8697 19.2859 1.95898 19.3684C2.04826 19.4561 2.1533 19.5 2.27409 19.5Z"
		fill="currentColor"
	/>
</svg>
