<svg color="rgb(var(--foreground, 0, 0, 0))" viewBox="0 0 16 18" fill="none">
	<path
		d="M10.4618 3.43643C10.7836 3.43643 11.0758 3.36042 11.3386 3.20839C11.6067 3.05636 11.8186 2.84928 11.9741 2.58716C12.1349 2.32503 12.2154 2.0367 12.2154 1.72215C12.2154 1.40236 12.1349 1.11402 11.9741 0.857143C11.8186 0.59502 11.6067 0.387942 11.3386 0.235911C11.0758 0.078637 10.7836 0 10.4618 0C10.1347 0 9.8371 0.078637 9.56897 0.235911C9.30621 0.387942 9.09439 0.59502 8.93351 0.857143C8.778 1.11402 8.70024 1.40236 8.70024 1.72215C8.70024 2.0367 8.778 2.32503 8.93351 2.58716C9.09439 2.84928 9.30621 3.05636 9.56897 3.20839C9.8371 3.36042 10.1347 3.43643 10.4618 3.43643ZM2.40193 9.14548C2.64861 9.25557 2.87383 9.26868 3.07761 9.1848C3.28139 9.10092 3.43154 8.96461 3.52806 8.77588L5.00008 5.90564H6.76168C6.85821 5.90564 6.9306 5.94233 6.97886 6.01573C7.02713 6.08388 7.02713 6.15989 6.97886 6.24377L5.43445 9.23984C5.29502 9.51769 5.22799 9.80341 5.23335 10.097C5.24408 10.3853 5.32184 10.6527 5.46662 10.8991C5.61678 11.1402 5.82591 11.3316 6.09404 11.4731C6.36217 11.6147 6.68392 11.675 7.0593 11.654L11.218 11.4024L9.68159 14.7366C9.58506 14.9515 9.57702 15.1691 9.65746 15.3893C9.73789 15.6094 9.88805 15.7588 10.1079 15.8375C10.3492 15.9266 10.5691 15.9345 10.7675 15.8611C10.9659 15.7929 11.1161 15.6461 11.218 15.4207L13.3576 10.8283C13.438 10.6606 13.4568 10.4875 13.4139 10.3093C13.371 10.1258 13.2799 9.97117 13.1404 9.84535C13.001 9.71428 12.824 9.64875 12.6095 9.64875H8.83699L10.5101 6.38532C10.5423 6.31717 10.5932 6.27523 10.6629 6.2595C10.738 6.24377 10.805 6.26474 10.864 6.32241L12.8348 8.16252C12.9688 8.28309 13.1243 8.35911 13.3013 8.39056C13.4836 8.41677 13.6552 8.39318 13.8161 8.31979C13.9823 8.2464 14.111 8.12058 14.2022 7.94233L15.8995 4.60813C16.0067 4.39843 16.0282 4.18611 15.9638 3.97117C15.8995 3.75098 15.7547 3.58847 15.5294 3.48362C15.3203 3.38401 15.1031 3.37353 14.8779 3.45216C14.6527 3.52556 14.4891 3.66448 14.3872 3.86894L13.1967 6.16514L12.2315 5.21363C11.9044 4.89384 11.5531 4.65269 11.1777 4.49017C10.8077 4.32765 10.3573 4.2464 9.82638 4.2464H4.47723C4.31636 4.2464 4.16889 4.28834 4.03482 4.37221C3.90076 4.45609 3.79887 4.56619 3.72916 4.70249L2.00778 8.04456C1.90589 8.24902 1.8898 8.45872 1.95952 8.67366C2.03459 8.88336 2.18206 9.04063 2.40193 9.14548ZM0.0933507 17.2215C0.184514 17.405 0.299809 17.5334 0.439235 17.6068C0.584024 17.6802 0.726132 17.7169 0.865558 17.7169C1.01035 17.7169 1.12832 17.6959 1.21949 17.654L5.46662 15.8453C5.65431 15.7667 5.79374 15.6356 5.8849 15.4522L7.43736 12.3932L7.10756 12.4168C6.76972 12.4377 6.45601 12.4063 6.16644 12.3224C5.88222 12.2333 5.63018 12.1075 5.41032 11.945L4.4531 14.4535L0.535761 16.1048C0.310534 16.1992 0.152339 16.3539 0.0611754 16.5688C-0.0299879 16.7837 -0.0192628 17.0013 0.0933507 17.2215ZM14.1298 18C14.4623 18 14.7599 17.924 15.0227 17.772C15.2908 17.6199 15.5026 17.4128 15.6581 17.1507C15.819 16.8938 15.8995 16.6029 15.8995 16.2778C15.8995 15.9633 15.819 15.675 15.6581 15.4128C15.5026 15.156 15.2908 14.9489 15.0227 14.7916C14.7599 14.6396 14.4623 14.5636 14.1298 14.5636C13.8081 14.5636 13.5131 14.6396 13.245 14.7916C12.9822 14.9489 12.7731 15.156 12.6176 15.4128C12.4621 15.675 12.3843 15.9633 12.3843 16.2778C12.3843 16.6029 12.4621 16.8938 12.6176 17.1507C12.7731 17.4128 12.9822 17.6199 13.245 17.772C13.5131 17.924 13.8081 18 14.1298 18Z"
		fill="currentColor"
	/>
</svg>
