<svg viewBox="0 0 15 18" fill="none" color="rgb(var(--foreground, 0, 0, 0))">
	<path
		d="M1.70994 3.32371C2.02084 3.32371 2.30323 3.25019 2.55713 3.10314C2.81103 2.95103 3.01312 2.74821 3.16338 2.49468C3.31883 2.24116 3.39656 1.95975 3.39656 1.65045C3.39656 1.34622 3.31883 1.06987 3.16338 0.82142C3.01312 0.567895 2.81103 0.367611 2.55713 0.220566C2.30323 0.0735222 2.02084 0 1.70994 0C1.39386 0 1.10628 0.0735222 0.847196 0.220566C0.588115 0.367611 0.38085 0.567895 0.225401 0.82142C0.0751336 1.06987 0 1.34622 0 1.65045C0 1.95975 0.0751336 2.24116 0.225401 2.49468C0.38085 2.74821 0.588115 2.95103 0.847196 3.10314C1.10628 3.25019 1.39386 3.32371 1.70994 3.32371ZM0.816106 9.51478H4.0339L4.22821 9.70492C4.42511 9.89253 4.64792 10.0345 4.89664 10.1308C5.14536 10.2272 5.39926 10.2754 5.65834 10.2754C5.87079 10.2754 6.07805 10.2449 6.28013 10.1841C6.4874 10.1182 6.68171 10.0168 6.86307 9.87986L10.7493 7.03531L14.6122 4.76119C14.7987 4.65471 14.9178 4.50006 14.9697 4.29724C15.0267 4.08935 15.0033 3.89414 14.8997 3.7116C14.7805 3.52906 14.6148 3.41244 14.4023 3.36174C14.1951 3.31103 13.9982 3.34146 13.8116 3.45301L6.45113 7.76546L4.40698 5.75755C4.38107 5.73726 4.37329 5.71445 4.38366 5.68909C4.39402 5.65867 4.41734 5.64346 4.45361 5.64346H6.32677C6.5444 5.64346 6.73094 5.56994 6.88638 5.42289C7.04183 5.27078 7.11956 5.08824 7.11956 4.87528V1.51354C7.11956 1.29551 7.04183 1.11297 6.88638 0.965929C6.73094 0.813814 6.5444 0.737757 6.32677 0.737757C6.10914 0.737757 5.9226 0.813814 5.76715 0.965929C5.61689 1.11297 5.54175 1.29551 5.54175 1.51354V4.11471H1.59335C1.30836 4.11471 1.04669 4.18569 0.808334 4.32767C0.569979 4.46457 0.38085 4.64964 0.240946 4.88288C0.101042 5.11106 0.0310898 5.36458 0.0310898 5.64346V8.7466C0.0310898 8.95449 0.106223 9.13449 0.256491 9.28661C0.406758 9.43872 0.593296 9.51478 0.816106 9.51478ZM1.53894 8.00884V7.27869C1.53894 7.22799 1.56226 7.19249 1.6089 7.17221C1.65553 7.14686 1.69957 7.15447 1.74103 7.19503L2.57268 8.00884H1.53894ZM5.77493 17.9876C5.97701 18.0231 6.17132 17.9825 6.35786 17.8659C6.54958 17.7543 6.66876 17.5921 6.71539 17.3791L7.50041 13.523C7.51595 13.4419 7.51854 13.3481 7.50818 13.2416L7.3605 10.4351C7.09106 10.6328 6.81125 10.7773 6.52108 10.8686C6.23609 10.9599 5.94851 11.0055 5.65834 11.0055C5.62207 11.0055 5.5832 11.0055 5.54175 11.0055C5.50548 11.0055 5.46921 11.003 5.43294 10.9979L5.91483 13.3709L5.1609 17.0749C5.11945 17.2828 5.15831 17.4755 5.27749 17.6529C5.40185 17.8355 5.56766 17.947 5.77493 17.9876ZM6.72316 2.66201C7.04961 2.66201 7.32941 2.55046 7.56259 2.32736C7.79576 2.10425 7.91235 1.83298 7.91235 1.51354C7.91235 1.1941 7.79576 0.92283 7.56259 0.699728C7.32941 0.471556 7.04961 0.35747 6.72316 0.35747C6.39672 0.35747 6.11691 0.471556 5.88374 0.699728C5.65575 0.92283 5.54175 1.1941 5.54175 1.51354C5.54175 1.83298 5.65575 2.10425 5.88374 2.32736C6.11691 2.55046 6.39672 2.66201 6.72316 2.66201Z"
		fill="currentColor"
	/>
</svg>
