<svg color="rgb(var(--foreground, 0, 0, 0))" viewBox="0 0 18 18" fill="none">
	<path
		d="M13.3275 3.99458C13.6359 3.99458 13.9181 3.9171 14.1742 3.76214C14.4355 3.60184 14.642 3.39077 14.7935 3.12895C14.9451 2.86178 15.0209 2.56522 15.0209 2.23927C15.0209 1.91867 14.9451 1.62746 14.7935 1.36563C14.642 1.1038 14.4355 0.895411 14.1742 0.740453C13.9181 0.580151 13.6359 0.5 13.3275 0.5C13.0087 0.5 12.7186 0.580151 12.4573 0.740453C12.196 0.895411 11.9895 1.1038 11.838 1.36563C11.6864 1.62746 11.6106 1.91867 11.6106 2.23927C11.6106 2.56522 11.6864 2.86178 11.838 3.12895C11.9895 3.39077 12.196 3.60184 12.4573 3.76214C12.7186 3.9171 13.0087 3.99458 13.3275 3.99458ZM9.35278 16.955H10.9442V11.7532C10.9442 11.5715 10.892 11.4085 10.7874 11.2643L9.04703 8.86775L11.2578 6.59948C11.331 6.51933 11.4172 6.47925 11.5165 6.47925C11.6158 6.47925 11.7021 6.51933 11.7752 6.59948L13.8763 8.76355C13.9495 8.84371 14.0357 8.90248 14.135 8.93989C14.2343 8.97195 14.3362 8.98798 14.4408 8.98798C14.6655 8.98798 14.851 8.91317 14.9974 8.76355L17.3493 6.35903C17.4329 6.27353 17.493 6.18003 17.5296 6.0785C17.5662 5.97698 17.5845 5.87812 17.5845 5.78194C17.5845 5.54149 17.5061 5.34913 17.3493 5.20486C17.1925 5.05524 17.007 4.97509 16.7927 4.9644C16.5784 4.95372 16.385 5.03387 16.2125 5.20486L14.4408 7.01627L11.446 3.97855C11.2526 3.78619 11.0514 3.63924 10.8423 3.53772C10.6333 3.43085 10.3746 3.37742 10.0662 3.37742H6.73432C6.45731 3.37742 6.22212 3.4736 6.02874 3.66596L3.74738 5.99835C3.57491 6.17468 3.4939 6.37239 3.50435 6.59147C3.51481 6.81054 3.5932 7.00024 3.73954 7.16054C3.88589 7.32084 4.07404 7.40099 4.304 7.40099C4.52352 7.40099 4.70906 7.31817 4.86062 7.15252L6.96951 5.00448H8.36497C8.42246 5.00448 8.45905 5.02852 8.47473 5.07661C8.49564 5.11936 8.48257 5.16211 8.43553 5.20486L6.73432 6.95214C6.38414 7.31015 6.20644 7.72159 6.20122 8.18647C6.20122 8.646 6.37892 9.05744 6.73432 9.42079L9.35278 12.0898V16.955ZM5.79355 9.43682L4.68815 10.9517H0.791811C0.577526 10.9517 0.391986 11.0292 0.235191 11.1841C0.0783972 11.3391 0 11.5314 0 11.7612C0 11.9856 0.0783972 12.1753 0.235191 12.3303C0.391986 12.4852 0.577526 12.5627 0.791811 12.5627H5.08014C5.3101 12.5627 5.51393 12.4719 5.69163 12.2902L7.0871 10.8715L6.20122 9.97383C6.03397 9.7975 5.89808 9.6185 5.79355 9.43682ZM16.7143 14.9031C16.7143 15.026 16.7561 15.1302 16.8397 15.2157C16.9286 15.3065 17.0279 15.352 17.1376 15.352C17.2631 15.352 17.3676 15.3065 17.4512 15.2157C17.5401 15.1302 17.5845 15.026 17.5845 14.9031V5.78194H16.7143V14.9031ZM0.517421 6.51131C0.397212 6.51131 0.292683 6.55406 0.203833 6.63956C0.120209 6.72505 0.0783972 6.82657 0.0783972 6.94413C0.0783972 7.06703 0.120209 7.1739 0.203833 7.26473C0.292683 7.35557 0.397212 7.40099 0.517421 7.40099H4.304V6.51131H0.517421ZM15.899 17.5C16.3014 17.5 16.6385 17.4546 16.9103 17.3637C17.1821 17.2729 17.4564 17.1607 17.7334 17.0271C17.8537 16.9737 17.9321 16.8909 17.9686 16.7786C18.0105 16.6718 18.0105 16.5676 17.9686 16.4661C17.9373 16.3538 17.8641 16.2683 17.7491 16.2096C17.6341 16.1508 17.5061 16.1588 17.365 16.2336C17.1402 16.3512 16.9233 16.442 16.7143 16.5061C16.5052 16.5756 16.2334 16.6103 15.899 16.6103H2.18728C2.06707 16.6103 1.96254 16.6504 1.87369 16.7306C1.79007 16.816 1.74826 16.9202 1.74826 17.0431C1.74826 17.1607 1.79007 17.2649 1.87369 17.3557C1.95732 17.4519 2.06185 17.5 2.18728 17.5H15.899Z"
		fill="currentColor"
	/>
</svg>
