<svg viewBox="0 0 21 14" fill="none" color="rgb(var(--foreground, 0, 0, 0))">
	<path
		d="M1.68305 9.99267C1.99046 9.99267 2.26969 9.91896 2.52074 9.77155C2.77691 9.62414 2.97929 9.42336 3.12787 9.16921C3.28157 8.91505 3.35842 8.63548 3.35842 8.3305C3.35842 8.02043 3.28157 7.74086 3.12787 7.49179C2.97929 7.23763 2.77691 7.03685 2.52074 6.88944C2.26969 6.73695 1.99046 6.6607 1.68305 6.6607C1.37052 6.6607 1.08617 6.73695 0.83 6.88944C0.57895 7.03685 0.376574 7.23763 0.22287 7.49179C0.0742901 7.74086 0 8.02043 0 8.3305C0 8.63548 0.0742901 8.91505 0.22287 9.16921C0.376574 9.42336 0.57895 9.62414 0.83 9.77155C1.08617 9.91896 1.37052 9.99267 1.68305 9.99267ZM3.51213 10.5264C3.36355 10.9076 3.35074 11.2787 3.4737 11.6396C3.60179 12.0005 3.82466 12.2928 4.14231 12.5164C4.6649 12.8722 5.19262 13.1239 5.72546 13.2713C6.26342 13.4238 6.91922 13.5 7.69287 13.5H10.1444C10.7746 13.5 11.2537 13.3602 11.5816 13.0806C11.9146 12.8011 12.1042 12.4529 12.1503 12.0361C12.1964 11.6193 12.1118 11.205 11.8967 10.7933L9.92157 7.01144V1.29296C9.92157 1.06931 9.84215 0.881232 9.68333 0.728739C9.52962 0.576246 9.33749 0.5 9.10694 0.5C8.88663 0.5 8.69963 0.576246 8.54592 0.728739C8.39734 0.881232 8.32305 1.06931 8.32305 1.29296V7.20205C8.32305 7.25797 8.32561 7.3088 8.33074 7.35455C8.33586 7.39521 8.34354 7.43333 8.35379 7.46891L9.46814 10.6331H8.02333C7.55709 10.6331 7.16515 10.5721 6.8475 10.4501C6.52984 10.3282 6.18913 10.1579 5.82537 9.9393C5.72802 9.8783 5.66398 9.80714 5.63324 9.72581C5.60762 9.63939 5.61787 9.54027 5.66398 9.42845L7.45463 4.88416C7.5366 4.68084 7.53148 4.47752 7.43925 4.27419C7.34703 4.07087 7.19845 3.93108 6.99351 3.85484C6.77833 3.77351 6.57083 3.77859 6.37102 3.87009C6.17632 3.9565 6.03799 4.10391 5.95602 4.31232L3.51213 10.5264ZM12.9495 12.2648L15.793 11.3422L20.335 10.5264C20.5553 10.4908 20.7269 10.3841 20.8499 10.2062C20.978 10.0282 21.0241 9.82747 20.9882 9.60381C20.9421 9.38524 20.8294 9.21496 20.6501 9.09296C20.4708 8.97097 20.2709 8.92776 20.0506 8.96334L12.5576 10.3129L12.6191 10.4196C12.8035 10.7246 12.9162 11.0372 12.9572 11.3575C13.0033 11.6777 13.0008 11.9802 12.9495 12.2648Z"
		fill="currentColor"
	/>
</svg>
