<svg viewBox="0 0 13 18" fill="none" color="rgb(var(--foreground, 0, 0, 0))">
	<path
		d="M8.1168 3.87984C8.42743 3.87984 8.70958 3.80491 8.96326 3.65504C9.22211 3.5 9.42661 3.29587 9.57675 3.04264C9.73206 2.78424 9.80972 2.5 9.80972 2.18992C9.80972 1.87468 9.73206 1.59044 9.57675 1.33721C9.42661 1.08398 9.22211 0.882429 8.96326 0.732558C8.70958 0.577519 8.42743 0.5 8.1168 0.5C7.80099 0.5 7.51625 0.577519 7.26257 0.732558C7.0089 0.882429 6.8044 1.08398 6.64909 1.33721C6.49895 1.59044 6.42388 1.87468 6.42388 2.18992C6.42388 2.5 6.49895 2.78424 6.64909 3.04264C6.8044 3.29587 7.0089 3.5 7.26257 3.65504C7.51625 3.80491 7.80099 3.87984 8.1168 3.87984ZM5.46094 10.624L8.43519 12.2907L6.51707 13.9341C6.30998 14.1098 6.20126 14.301 6.19091 14.5078C6.18056 14.7093 6.2375 14.8798 6.36176 15.0194C6.49118 15.1641 6.65944 15.2442 6.86652 15.2597C7.07879 15.2752 7.29105 15.1925 7.50331 15.0116L10.1825 12.7326C10.3067 12.6292 10.3818 12.4974 10.4077 12.3372C10.4387 12.1718 10.4232 12.009 10.3611 11.8488C10.299 11.6886 10.1954 11.562 10.0505 11.469L7.13832 9.56202L7.71298 7.55426C7.7544 7.40956 7.83982 7.32946 7.96925 7.31395C8.09868 7.29845 8.2074 7.35271 8.29541 7.47674L9.14963 8.72481C9.248 8.86951 9.38002 8.9677 9.54568 9.01938C9.71653 9.06589 9.88479 9.05039 10.0505 8.97287L12.5122 7.87985C12.7296 7.78165 12.8746 7.6447 12.9471 7.46899C13.0247 7.29328 13.0169 7.10723 12.9238 6.91085C12.8254 6.71447 12.6882 6.59044 12.5122 6.53876C12.3362 6.48191 12.1394 6.50258 11.922 6.60078L9.9728 7.46124L8.62933 5.60853C8.27729 5.12791 7.8683 4.78682 7.40236 4.58527C6.93642 4.38372 6.34622 4.30879 5.63178 4.36047L2.90603 4.55426C2.68859 4.56977 2.50998 4.6447 2.3702 4.77907C2.23041 4.91344 2.14499 5.09173 2.11393 5.31395L1.74894 8.07364C1.71788 8.31654 1.75671 8.5155 1.86543 8.67054C1.97415 8.82558 2.13464 8.91344 2.3469 8.93411C2.56434 8.95478 2.74036 8.90568 2.87497 8.78682C3.00957 8.66796 3.0924 8.48708 3.12347 8.24419L3.45739 5.98837L4.55235 5.91085C4.6766 5.90052 4.78273 5.93669 4.87075 6.01938C4.96393 6.0969 4.98982 6.21059 4.9484 6.36047L4.31162 8.57752C4.21843 8.90827 4.19254 9.18475 4.23396 9.40698C4.28055 9.62403 4.36856 9.80749 4.49799 9.95736C4.62742 10.1021 4.77756 10.2261 4.9484 10.3295C5.12442 10.4328 5.29527 10.531 5.46094 10.624ZM0.265697 17.3217C0.410657 17.4406 0.58409 17.5 0.785998 17.5C0.993083 17.5 1.19499 17.4044 1.39172 17.2132L3.9078 14.7248C4.01134 14.6214 4.08382 14.5388 4.12524 14.4767C4.17183 14.4147 4.22878 14.3036 4.29608 14.1434L5.35222 11.4147L5.09595 11.2752C4.80085 11.115 4.54718 10.9548 4.33491 10.7946C4.12783 10.6292 3.9544 10.4587 3.81461 10.2829L2.8905 13.5465L0.281229 16.1434C0.0793209 16.345 -0.0138673 16.5568 0.00166407 16.7791C0.0223726 17.0013 0.110384 17.1822 0.265697 17.3217Z"
		fill="currentColor"
	/>
</svg>
