<svg viewBox="0 0 20 14" fill="none" color="rgb(var(--foreground, 0, 0, 0))">
	<path
		d="M11.8495 3.40541C12.1697 3.40541 12.4606 3.32973 12.7222 3.17838C12.9891 3.02181 13.1999 2.81566 13.3547 2.55993C13.5148 2.29897 13.5949 2.01193 13.5949 1.69879C13.5949 1.38565 13.5148 1.10121 13.3547 0.84548C13.1999 0.589748 12.9891 0.386207 12.7222 0.234856C12.4606 0.0782852 12.1697 0 11.8495 0C11.5292 0 11.2357 0.0782852 10.9688 0.234856C10.7072 0.386207 10.4964 0.589748 10.3363 0.84548C10.1815 1.10121 10.1041 1.38565 10.1041 1.69879C10.1041 2.01193 10.1815 2.29897 10.3363 2.55993C10.4964 2.81566 10.7072 3.02181 10.9688 3.17838C11.2357 3.32973 11.5292 3.40541 11.8495 3.40541ZM8.9992 13.0736C8.94582 13.3398 8.98852 13.5512 9.1273 13.7077C9.26608 13.8643 9.44222 13.9582 9.65572 13.9896C9.86923 14.0209 10.0694 13.9817 10.2562 13.8721C10.4484 13.7678 10.5685 13.5799 10.6165 13.3085L11.4412 8.90885C11.4785 8.70531 11.4358 8.5096 11.3131 8.32172C11.1903 8.13383 11.0088 8.02423 10.7686 7.99292L8.06245 7.61715L9.73579 5.98099C9.81585 5.89748 9.90926 5.85573 10.016 5.85573C10.1228 5.85573 10.2162 5.89748 10.2962 5.98099L14.964 10.545C15.1188 10.6964 15.3082 10.7747 15.5324 10.7799C15.7619 10.7851 15.9568 10.7068 16.1169 10.545C16.2717 10.3832 16.3491 10.1953 16.3491 9.98136C16.3544 9.76216 16.277 9.57428 16.1169 9.41771L9.92794 3.36626C9.52762 2.97484 9.04724 2.77912 8.48679 2.77912H4.90793C4.68375 2.77912 4.49159 2.85741 4.33147 3.01398L1.88151 5.41734C1.72138 5.57391 1.64131 5.76179 1.64131 5.98099C1.64131 6.20019 1.72138 6.38807 1.88151 6.54464C2.04163 6.70121 2.23112 6.7795 2.44996 6.7795C2.67414 6.7795 2.86629 6.70121 3.02642 6.54464L5.2522 4.37614H6.68535C6.76541 4.37614 6.81612 4.40224 6.83747 4.45443C6.85882 4.50662 6.84548 4.55881 6.79744 4.611L4.58767 6.76384C4.32079 7.02479 4.15266 7.31706 4.08327 7.64063C4.01922 7.95899 4.04057 8.26692 4.14732 8.5644C4.25941 8.85666 4.45423 9.09935 4.73179 9.29245C5.00934 9.48034 5.35895 9.57428 5.78062 9.57428H9.64772L8.9992 13.0736ZM4.36349 9.95788L4.14732 12.3769H0.816653C0.592474 12.3769 0.40032 12.4552 0.240192 12.6117C0.0800641 12.7683 0 12.9562 0 13.1754C0 13.3946 0.0800641 13.5825 0.240192 13.739C0.40032 13.8956 0.592474 13.9739 0.816653 13.9739H4.90793C5.11609 13.9739 5.2949 13.9061 5.44436 13.7704C5.59381 13.6347 5.68455 13.4677 5.71657 13.2693L6.26101 10.3336H5.78062C5.23619 10.3336 4.76381 10.2084 4.36349 9.95788ZM16.5572 13.9739H19.0072C19.2794 13.9739 19.5116 13.8774 19.7038 13.6843C19.9013 13.4964 20 13.2667 20 12.9953C20 12.7292 19.9013 12.5021 19.7038 12.3143C19.5116 12.1212 19.2794 12.0246 19.0072 12.0246H16.5572C16.2744 12.0246 16.0342 12.1212 15.8367 12.3143C15.6445 12.5021 15.5484 12.7292 15.5484 12.9953C15.5484 13.2667 15.6445 13.4964 15.8367 13.6843C16.0342 13.8774 16.2744 13.9739 16.5572 13.9739ZM18.2306 12.5178H18.9672V11.7428C18.9672 11.4192 18.8551 11.1478 18.6309 10.9286C18.4067 10.7042 18.1318 10.592 17.8062 10.592H16.9656C16.8588 10.592 16.7681 10.6285 16.6934 10.7016C16.624 10.7694 16.5893 10.8555 16.5893 10.9599C16.5893 11.0591 16.624 11.1452 16.6934 11.2183C16.7681 11.2861 16.8588 11.32 16.9656 11.32H17.8062C17.929 11.32 18.0304 11.3618 18.1105 11.4453C18.1906 11.5236 18.2306 11.6227 18.2306 11.7428V12.5178Z"
		fill="currentColor"
	/>
</svg>
