<svg
	color="rgb(var(--foreground, 0, 0, 0))"
	viewBox="0 0 14 3"
	fill="none"
	xmlns="http://www.w3.org/2000/svg"
>
	<path
		d="M1.48463 3C1.7667 3 2.01909 2.9325 2.24178 2.7975C2.46943 2.6625 2.65006 2.4825 2.78367 2.2575C2.92224 2.0325 2.99152 1.78 2.99152 1.5C2.99152 1.085 2.84553 0.7325 2.55356 0.4425C2.26158 0.1475 1.90527 0 1.48463 0C1.21244 0 0.962532 0.0675 0.734889 0.2025C0.512196 0.3375 0.334041 0.52 0.200424 0.75C0.0668081 0.975 0 1.225 0 1.5C0 1.78 0.0668081 2.0325 0.200424 2.2575C0.334041 2.4825 0.512196 2.6625 0.734889 2.7975C0.962532 2.9325 1.21244 3 1.48463 3ZM7.00001 3C7.27714 3 7.52703 2.9325 7.74973 2.7975C7.97242 2.6625 8.15058 2.4825 8.28419 2.2575C8.41781 2.0325 8.48462 1.78 8.48462 1.5C8.48462 1.085 8.33863 0.7325 8.04665 0.4425C7.75963 0.1475 7.41075 0 7.00001 0C6.72783 0 6.47791 0.0675 6.25027 0.2025C6.02758 0.3375 5.84942 0.52 5.71581 0.75C5.58714 0.975 5.52281 1.225 5.52281 1.5C5.52281 1.78 5.58714 2.0325 5.71581 2.2575C5.84942 2.4825 6.02758 2.6625 6.25027 2.7975C6.47791 2.9325 6.72783 3 7.00001 3ZM12.5154 3C12.7876 3 13.035 2.9325 13.2577 2.7975C13.4853 2.6625 13.666 2.4825 13.7996 2.2575C13.9332 2.0325 14 1.78 14 1.5C14 1.085 13.854 0.7325 13.562 0.4425C13.275 0.1475 12.9261 0 12.5154 0C12.2382 0 11.9859 0.0675 11.7582 0.2025C11.5306 0.3375 11.3499 0.52 11.2163 0.75C11.0827 0.975 11.0159 1.225 11.0159 1.5C11.0159 1.78 11.0827 2.0325 11.2163 2.2575C11.3499 2.4825 11.5306 2.6625 11.7582 2.7975C11.9859 2.9325 12.2382 3 12.5154 3Z"
		fill="currentColor"
	/>
</svg>
