<svg
	color="rgb(var(--foreground, 0, 0, 0))"
	viewBox="0 0 17 15"
	fill="none"
	xmlns="http://www.w3.org/2000/svg"
>
	<path
		d="M12.1154 14.9927C12.3256 14.9927 12.5103 14.9291 12.6692 14.8021C12.8282 14.675 12.9974 14.4648 13.1769 14.1716L16.6846 8.43108C16.7923 8.25513 16.8718 8.09384 16.9231 7.94721C16.9744 7.7957 17 7.64663 17 7.5C17 7.35337 16.9744 7.20674 16.9231 7.06012C16.8718 6.9086 16.7923 6.74487 16.6846 6.56891L13.1769 0.828446C12.9974 0.535191 12.8282 0.325024 12.6692 0.197947C12.5103 0.07087 12.3256 0.00733138 12.1154 0.00733138C11.9051 0.00733138 11.7205 0.07087 11.5615 0.197947C11.4026 0.325024 11.2308 0.535191 11.0462 0.828446L7.54615 6.56891C7.43333 6.74487 7.35128 6.9086 7.3 7.06012C7.25385 7.20674 7.23077 7.35337 7.23077 7.5C7.23077 7.64663 7.25641 7.7957 7.30769 7.94721C7.35897 8.09384 7.43846 8.25513 7.54615 8.43108L11.0462 14.1716C11.2308 14.4648 11.4026 14.675 11.5615 14.8021C11.7205 14.9291 11.9051 14.9927 12.1154 14.9927ZM12.1154 13.4604C12.0846 13.4604 12.059 13.4409 12.0385 13.4018L8.68462 7.82258C8.60769 7.70039 8.56923 7.59286 8.56923 7.5C8.56923 7.40225 8.60513 7.29472 8.67692 7.17742L12.0385 1.59091C12.059 1.5567 12.0846 1.53959 12.1154 1.53959C12.1462 1.53959 12.1718 1.5567 12.1923 1.59091L15.5462 7.17742C15.6179 7.29472 15.6538 7.40225 15.6538 7.5C15.6538 7.59286 15.6179 7.70039 15.5462 7.82258L12.1923 13.4018C12.1718 13.4409 12.1462 13.4604 12.1154 13.4604ZM8.26923 15C8.4282 15 8.56667 14.9536 8.68462 14.8607C8.80769 14.7727 8.89487 14.6774 8.94615 14.5748L4.81538 7.77859C4.78462 7.72483 4.75897 7.67595 4.73846 7.63196C4.71795 7.58309 4.70769 7.5391 4.70769 7.5C4.70769 7.45601 4.71795 7.41202 4.73846 7.36804C4.75897 7.31916 4.78462 7.27028 4.81538 7.22141L8.94615 0.42522C8.88974 0.322581 8.8 0.227273 8.67692 0.139296C8.55897 0.0464321 8.42308 0 8.26923 0C8.14615 0 8.02308 0.0342131 7.9 0.102639C7.78205 0.166178 7.67949 0.266373 7.59231 0.403226L3.69231 6.70088C3.59487 6.8524 3.51538 6.99169 3.45385 7.11877C3.39231 7.24096 3.36154 7.36804 3.36154 7.5C3.36154 7.63196 3.39231 7.75904 3.45385 7.88123C3.51538 8.00342 3.59487 8.14272 3.69231 8.29912L7.6 14.5968C7.68718 14.7336 7.78974 14.8338 7.90769 14.8974C8.03077 14.9658 8.15128 15 8.26923 15ZM4.50769 14.6994C4.64615 14.6994 4.7641 14.653 4.86154 14.5601C4.95897 14.4673 5.00769 14.3524 5.00769 14.2155C5.00769 14.0787 4.95897 13.9638 4.86154 13.871C4.7641 13.7781 4.64615 13.7317 4.50769 13.7317C4.3641 13.7317 4.24359 13.7781 4.14615 13.871C4.04872 13.9638 4 14.0787 4 14.2155C4 14.3524 4.04872 14.4673 4.14615 14.5601C4.24359 14.653 4.3641 14.6994 4.50769 14.6994ZM3.70769 13.3358C3.85128 13.3358 3.97179 13.2893 4.06923 13.1965C4.16667 13.1036 4.21538 12.9888 4.21538 12.8519C4.21538 12.7199 4.16667 12.6075 4.06923 12.5147C3.97179 12.4218 3.85128 12.3754 3.70769 12.3754C3.56923 12.3754 3.45128 12.4218 3.35385 12.5147C3.25641 12.6075 3.20769 12.7199 3.20769 12.8519C3.20769 12.9888 3.25641 13.1036 3.35385 13.1965C3.45128 13.2893 3.56923 13.3358 3.70769 13.3358ZM2.90769 11.9795C3.04615 11.9795 3.1641 11.933 3.26154 11.8402C3.3641 11.7424 3.41538 11.6276 3.41538 11.4956C3.41538 11.3636 3.3641 11.2512 3.26154 11.1584C3.1641 11.0606 3.04615 11.0117 2.90769 11.0117C2.76923 11.0117 2.65128 11.0606 2.55385 11.1584C2.45641 11.2512 2.40769 11.3636 2.40769 11.4956C2.40769 11.6276 2.45641 11.7424 2.55385 11.8402C2.65128 11.933 2.76923 11.9795 2.90769 11.9795ZM2.1 10.6305C2.23846 10.6305 2.35641 10.5841 2.45385 10.4912C2.55641 10.3935 2.60769 10.2786 2.60769 10.1466C2.60769 10.0147 2.55641 9.90225 2.45385 9.80938C2.35641 9.71163 2.23846 9.66276 2.1 9.66276C1.96154 9.66276 1.84359 9.71163 1.74615 9.80938C1.64872 9.90225 1.6 10.0147 1.6 10.1466C1.6 10.2786 1.64872 10.3935 1.74615 10.4912C1.84359 10.5841 1.96154 10.6305 2.1 10.6305ZM1.30769 9.25953C1.44615 9.25953 1.5641 9.2131 1.66154 9.12023C1.75897 9.02737 1.80769 8.91496 1.80769 8.78299C1.80769 8.64614 1.75897 8.53128 1.66154 8.43842C1.5641 8.34555 1.44615 8.29912 1.30769 8.29912C1.16923 8.29912 1.04872 8.34555 0.946154 8.43842C0.848718 8.53128 0.8 8.64614 0.8 8.78299C0.8 8.91496 0.848718 9.02737 0.946154 9.12023C1.04872 9.2131 1.16923 9.25953 1.30769 9.25953ZM0.507692 7.90323C0.646154 7.90323 0.764103 7.85679 0.861538 7.76393C0.958974 7.67107 1.00769 7.55865 1.00769 7.42669C1.00769 7.28983 0.958974 7.17498 0.861538 7.08211C0.764103 6.98925 0.646154 6.94282 0.507692 6.94282C0.364103 6.94282 0.24359 6.98925 0.146154 7.08211C0.0487179 7.17498 0 7.28983 0 7.42669C0 7.55865 0.0487179 7.67107 0.146154 7.76393C0.24359 7.85679 0.364103 7.90323 0.507692 7.90323ZM1.30769 6.54692C1.44615 6.54692 1.5641 6.50049 1.66154 6.40762C1.75897 6.31476 1.80769 6.20235 1.80769 6.07038C1.80769 5.93353 1.75897 5.81867 1.66154 5.72581C1.5641 5.63294 1.44615 5.58651 1.30769 5.58651C1.16923 5.58651 1.04872 5.63294 0.946154 5.72581C0.848718 5.81867 0.8 5.93353 0.8 6.07038C0.8 6.20235 0.848718 6.31476 0.946154 6.40762C1.04872 6.50049 1.16923 6.54692 1.30769 6.54692ZM2.1 5.18328C2.23846 5.18328 2.35641 5.13685 2.45385 5.04399C2.55641 4.94624 2.60769 4.83138 2.60769 4.69941C2.60769 4.56745 2.55641 4.45503 2.45385 4.36217C2.35641 4.26931 2.23846 4.22287 2.1 4.22287C1.96154 4.22287 1.84359 4.26931 1.74615 4.36217C1.64872 4.45503 1.6 4.56745 1.6 4.69941C1.6 4.83138 1.64872 4.94624 1.74615 5.04399C1.84359 5.13685 1.96154 5.18328 2.1 5.18328ZM2.90769 3.83431C3.04615 3.83431 3.1641 3.78788 3.26154 3.69501C3.3641 3.59726 3.41538 3.4824 3.41538 3.35044C3.41538 3.21848 3.3641 3.10606 3.26154 3.0132C3.1641 2.91544 3.04615 2.86657 2.90769 2.86657C2.76923 2.86657 2.65128 2.91544 2.55385 3.0132C2.45641 3.10606 2.40769 3.21848 2.40769 3.35044C2.40769 3.4824 2.45641 3.59726 2.55385 3.69501C2.65128 3.78788 2.76923 3.83431 2.90769 3.83431ZM3.70769 2.46334C3.85128 2.46334 3.97179 2.41691 4.06923 2.32405C4.16667 2.23118 4.21538 2.11877 4.21538 1.9868C4.21538 1.84995 4.16667 1.73509 4.06923 1.64223C3.97179 1.54936 3.85128 1.50293 3.70769 1.50293C3.56923 1.50293 3.45128 1.54936 3.35385 1.64223C3.25641 1.73509 3.20769 1.84995 3.20769 1.9868C3.20769 2.11877 3.25641 2.23118 3.35385 2.32405C3.45128 2.41691 3.56923 2.46334 3.70769 2.46334ZM4.50769 1.10704C4.64615 1.10704 4.7641 1.06061 4.86154 0.967742C4.95897 0.874878 5.00769 0.762463 5.00769 0.630499C5.00769 0.493646 4.95897 0.378788 4.86154 0.285924C4.7641 0.19306 4.64615 0.146628 4.50769 0.146628C4.3641 0.146628 4.24359 0.19306 4.14615 0.285924C4.04872 0.378788 4 0.493646 4 0.630499C4 0.762463 4.04872 0.874878 4.14615 0.967742C4.24359 1.06061 4.3641 1.10704 4.50769 1.10704Z"
		fill="currentColor"
	/>
</svg>
