<svg
	color="rgb(var(--foreground, 0, 0, 0))"
	viewBox="0 0 15 17"
	fill="none"
	xmlns="http://www.w3.org/2000/svg"
>
	<path
		d="M7.09964 17C7.36909 17 7.69192 16.8953 8.06812 16.6859L14.0468 13.3203C14.2806 13.1857 14.4662 13.046 14.6035 12.9015C14.7458 12.7519 14.8475 12.5799 14.9085 12.3854C14.9695 12.1909 15 11.9541 15 11.6749V4.89881C15 4.45007 14.9212 4.11351 14.7636 3.88913C14.6111 3.65977 14.3925 3.54509 14.1078 3.54509C13.8434 3.54509 13.5333 3.64482 13.1774 3.84426L7.18353 7.23229C6.94459 7.3719 6.75394 7.5165 6.61159 7.66608C6.46924 7.81566 6.36756 7.98768 6.30656 8.18214C6.24555 8.37659 6.21505 8.60845 6.21505 8.87769V15.6538C6.21505 16.0875 6.28876 16.4191 6.4362 16.6485C6.58871 16.8828 6.80986 17 7.09964 17ZM7.51144 15.5416C7.47585 15.5366 7.45806 15.5092 7.45806 15.4593L7.51144 8.90013C7.51144 8.64584 7.62328 8.45388 7.84698 8.32424L13.6197 4.99604C13.6502 4.98108 13.6756 4.97859 13.696 4.98856C13.7316 4.99355 13.7494 5.02097 13.7494 5.07083L13.7265 11.6524C13.7265 11.7771 13.7011 11.8868 13.6502 11.9815C13.6045 12.0763 13.518 12.161 13.391 12.2358L7.5877 15.5341C7.55719 15.5491 7.53177 15.5515 7.51144 15.5416ZM3.82816 15.1751C3.98068 15.1751 4.13066 15.1252 4.27809 15.0255V7.02288C4.27809 6.92316 4.28571 6.84587 4.30097 6.79103C4.31622 6.73618 4.34418 6.68881 4.38485 6.64892C4.42552 6.60903 4.48907 6.56665 4.5755 6.52178L11.6446 2.52046C11.6548 2.27614 11.5887 2.08168 11.4464 1.93709C11.3091 1.79249 11.1286 1.72019 10.9049 1.72019C10.7067 1.72019 10.4957 1.78003 10.272 1.89969L3.87392 5.5121C3.62481 5.65171 3.43925 5.77636 3.31723 5.88605C3.2003 5.99076 3.12405 6.1204 3.08846 6.27497C3.05287 6.42953 3.03508 6.64643 3.03508 6.92565V14.0906C3.03508 14.4097 3.1088 14.669 3.25623 14.8685C3.40874 15.0729 3.59939 15.1751 3.82816 15.1751ZM0.78546 13.4474C0.937977 13.4474 1.08795 13.3976 1.23538 13.2978V5.2952C1.23538 5.20546 1.24301 5.13316 1.25826 5.07831C1.27351 5.01848 1.30147 4.96862 1.34215 4.92873C1.3879 4.88385 1.44891 4.83898 1.52517 4.7941L8.59431 0.800264C8.60956 0.550961 8.54601 0.356504 8.40366 0.216894C8.26131 0.072298 8.08338 0 7.86985 0C7.76818 0 7.66396 0.0149582 7.55719 0.0448746C7.45043 0.074791 7.34113 0.122159 7.22928 0.186978L0.831215 3.7919C0.582105 3.9365 0.399085 4.06115 0.282156 4.16586C0.165226 4.27057 0.088968 4.40021 0.0533808 4.55477C0.0177936 4.70436 0 4.92125 0 5.20546V12.363C0 12.6821 0.0711744 12.9438 0.213523 13.1483C0.360956 13.3477 0.551601 13.4474 0.78546 13.4474Z"
		fill="currentColor"
	/>
</svg>
