<svg
	color="rgb(var(--foreground, 0, 0, 0))"
	viewBox="0 0 16 17"
	fill="none"
	xmlns="http://www.w3.org/2000/svg"
>
	<path
		d="M8.00391 9.70225C8.16039 9.70225 8.31687 9.67673 8.47335 9.62568C8.63504 9.57463 8.80978 9.4955 8.99755 9.38829L15.1159 5.91171C15.4341 5.72793 15.6584 5.55946 15.7888 5.40631C15.9244 5.24805 15.9922 5.06171 15.9922 4.8473C15.9922 4.63799 15.9244 4.45676 15.7888 4.3036C15.6584 4.14535 15.4341 3.97432 15.1159 3.79054L8.99755 0.313964C8.80978 0.206757 8.63504 0.127628 8.47335 0.0765766C8.31687 0.0255255 8.16039 0 8.00391 0C7.84222 0 7.68313 0.0255255 7.52665 0.0765766C7.37017 0.127628 7.19544 0.206757 7.00244 0.313964L0.884108 3.79054C0.565933 3.97432 0.339038 4.14535 0.203423 4.3036C0.0730236 4.45676 0.00782396 4.63799 0.00782396 4.8473C0.00782396 5.06171 0.0730236 5.24805 0.203423 5.40631C0.339038 5.55946 0.565933 5.72793 0.884108 5.91171L7.00244 9.38829C7.19544 9.4955 7.37017 9.57463 7.52665 9.62568C7.68313 9.67673 7.84222 9.70225 8.00391 9.70225ZM8.00391 13.4775C8.14474 13.4775 8.28036 13.4468 8.41076 13.3856C8.54116 13.3243 8.68981 13.2477 8.85672 13.1559L15.5775 9.27342C15.7236 9.18664 15.8305 9.08453 15.8983 8.96712C15.9661 8.84459 16 8.72463 16 8.60721C16 8.44895 15.9504 8.31111 15.8513 8.19369C15.7575 8.07117 15.6557 7.98438 15.5462 7.93333L8.30122 12.0302C8.24385 12.0608 8.18908 12.0863 8.13692 12.1068C8.08998 12.1272 8.04564 12.1374 8.00391 12.1374C7.95697 12.1374 7.90742 12.1272 7.85526 12.1068C7.80831 12.0863 7.75615 12.0608 7.69878 12.0302L0.45379 7.93333C0.344254 7.98438 0.239935 8.07117 0.140831 8.19369C0.0469438 8.31111 0 8.44895 0 8.60721C0 8.72463 0.0339038 8.84459 0.101711 8.96712C0.174735 9.08453 0.284271 9.18664 0.430318 9.27342L7.14328 13.1559C7.31019 13.2477 7.45884 13.3243 7.58924 13.3856C7.71964 13.4468 7.85786 13.4775 8.00391 13.4775ZM8.00391 17C8.14474 17 8.28036 16.9694 8.41076 16.9081C8.54116 16.852 8.68981 16.7754 8.85672 16.6784L15.5775 12.7959C15.7183 12.7143 15.8227 12.6147 15.8905 12.4973C15.9635 12.3748 16 12.2523 16 12.1297C16 11.9766 15.9504 11.8413 15.8513 11.7239C15.7575 11.6014 15.6557 11.512 15.5462 11.4559L8.30122 15.5604C8.24385 15.591 8.18908 15.6165 8.13692 15.6369C8.08998 15.6574 8.04564 15.6676 8.00391 15.6676C7.95697 15.6676 7.90742 15.6574 7.85526 15.6369C7.80831 15.6165 7.75615 15.591 7.69878 15.5604L0.45379 11.4559C0.344254 11.512 0.239935 11.6014 0.140831 11.7239C0.0469438 11.8413 0 11.9766 0 12.1297C0 12.2523 0.0339038 12.3748 0.101711 12.4973C0.174735 12.6147 0.284271 12.7143 0.430318 12.7959L7.14328 16.6784C7.31019 16.7754 7.45884 16.852 7.58924 16.9081C7.71964 16.9694 7.85786 17 8.00391 17Z"
		fill="currentColor"
	/>
</svg>
