<svg
	color="rgb(var(--foreground, 0, 0, 0))"
	viewBox="0 0 10 17"
	fill="none"
	xmlns="http://www.w3.org/2000/svg"
>
	<path
		d="M2.11673 16.5H7.88327C8.5214 16.5 9.03243 16.3186 9.41634 15.9558C9.80545 15.5981 10 15.1245 10 14.535V2.46504C10 1.87553 9.80545 1.40191 9.41634 1.04417C9.03243 0.681389 8.5214 0.5 7.88327 0.5H2.11673C1.48379 0.5 0.972763 0.681389 0.583658 1.04417C0.194553 1.40191 0 1.87553 0 2.46504V14.535C0 15.1245 0.194553 15.5981 0.583658 15.9558C0.972763 16.3186 1.48379 16.5 2.11673 16.5ZM2.28016 15.2832C1.94812 15.2832 1.6939 15.2 1.51751 15.0338C1.34112 14.8725 1.25292 14.6408 1.25292 14.3385V2.66155C1.25292 2.35923 1.34112 2.12746 1.51751 1.96623C1.6939 1.79995 1.94812 1.71682 2.28016 1.71682H7.72763C8.05447 1.71682 8.3061 1.79995 8.48249 1.96623C8.65889 2.12746 8.74708 2.35923 8.74708 2.66155V14.3385C8.74708 14.6408 8.65889 14.8725 8.48249 15.0338C8.3061 15.2 8.05447 15.2832 7.72763 15.2832H2.28016ZM3.79767 15.457H6.21012V15.0262C6.21012 14.87 6.16083 14.7441 6.06226 14.6483C5.96887 14.5526 5.84176 14.5047 5.68093 14.5047H4.33463C4.1738 14.5047 4.0441 14.5526 3.94553 14.6483C3.84695 14.7441 3.79767 14.87 3.79767 15.0262V15.457Z"
		fill="currentColor"
	/>
</svg>
