<svg
	color="rgb(var(--foreground, 0, 0, 0))"
	viewBox="0 0 19 17"
	fill="none"
	xmlns="http://www.w3.org/2000/svg"
>
	<path
		d="M1.83305 13.6811H17.159C17.7328 13.6811 18.1818 13.5197 18.5059 13.1968C18.8353 12.8686 19 12.4186 19 11.8469V2.3263C19 1.75459 18.8353 1.30728 18.5059 0.984367C18.1818 0.661456 17.7328 0.5 17.159 0.5H1.83305C1.26454 0.5 0.815576 0.661456 0.486158 0.984367C0.162053 1.30728 0 1.75459 0 2.3263V11.8469C0 12.4186 0.162053 12.8686 0.486158 13.1968C0.815576 13.5197 1.26454 13.6811 1.83305 13.6811ZM1.85696 12.4027C1.68163 12.4027 1.54083 12.3524 1.43456 12.2519C1.33361 12.146 1.28314 12.0057 1.28314 11.831V2.35012C1.28314 2.17014 1.33361 2.02986 1.43456 1.92928C1.54083 1.8287 1.68163 1.77841 1.85696 1.77841H17.143C17.3184 1.77841 17.4565 1.8287 17.5575 1.92928C17.6637 2.02986 17.7169 2.17014 17.7169 2.35012V11.831C17.7169 12.0057 17.6637 12.146 17.5575 12.2519C17.4565 12.3524 17.3184 12.4027 17.143 12.4027H1.85696ZM6.98154 15.571H12.0185V13.5779H6.98154V15.571ZM6.93372 16.5H12.0663C12.2416 16.5 12.3904 16.4365 12.5126 16.3094C12.6401 16.1877 12.7039 16.0368 12.7039 15.8568C12.7039 15.6768 12.6401 15.5233 12.5126 15.3963C12.3904 15.2745 12.2416 15.2136 12.0663 15.2136H6.93372C6.75839 15.2136 6.60696 15.2745 6.47945 15.3963C6.35193 15.5233 6.28817 15.6768 6.28817 15.8568C6.28817 16.0368 6.35193 16.1877 6.47945 16.3094C6.60696 16.4365 6.75839 16.5 6.93372 16.5Z"
		fill="currentColor"
	/>
</svg>
