<svg
	color="rgb(var(--foreground, 0, 0, 0))"
	viewBox="0 0 18 15"
	fill="none"
	xmlns="http://www.w3.org/2000/svg"
>
	<path
		d="M2.39695 14.5H15.6031C16.4071 14.5 17.0076 14.3023 17.4046 13.9068C17.8015 13.5165 18 12.9284 18 12.1426V2.85741C18 2.07161 17.8015 1.48352 17.4046 1.09316C17.0076 0.697719 16.4071 0.5 15.6031 0.5H2.39695C1.59796 0.5 0.997455 0.697719 0.59542 1.09316C0.198473 1.48352 0 2.07161 0 2.85741V12.1426C0 12.9284 0.198473 13.5165 0.59542 13.9068C0.997455 14.3023 1.59796 14.5 2.39695 14.5ZM2.41221 13.2757C2.03053 13.2757 1.73791 13.1768 1.53435 12.9791C1.33079 12.7763 1.22901 12.4772 1.22901 12.0817V2.91825C1.22901 2.52281 1.33079 2.22624 1.53435 2.02852C1.73791 1.82573 2.03053 1.72433 2.41221 1.72433H15.5878C15.9644 1.72433 16.2545 1.82573 16.458 2.02852C16.6667 2.22624 16.771 2.52281 16.771 2.91825V12.0817C16.771 12.4772 16.6667 12.7763 16.458 12.9791C16.2545 13.1768 15.9644 13.2757 15.5878 13.2757H2.41221ZM6.05344 12.6901H11.9542C12.056 12.6901 12.1399 12.6597 12.2061 12.5989C12.2723 12.533 12.3053 12.4468 12.3053 12.3403C12.3053 12.2338 12.2723 12.1477 12.2061 12.0817C12.1399 12.0158 12.056 11.9829 11.9542 11.9829H6.05344C5.94657 11.9829 5.86005 12.0158 5.79389 12.0817C5.72774 12.1477 5.69466 12.2338 5.69466 12.3403C5.69466 12.4468 5.72774 12.533 5.79389 12.5989C5.86005 12.6597 5.94657 12.6901 6.05344 12.6901Z"
		fill="currentColor"
	/>
</svg>
