<svg
	color="rgb(var(--foreground, 0, 0, 0))"
	viewBox="0 0 13 19"
	fill="none"
	xmlns="http://www.w3.org/2000/svg"
>
	<path
		d="M0 16.3908C0 17.0193 0.197088 17.528 0.591263 17.9168C0.990624 18.3056 1.51187 18.5 2.155 18.5H10.845C11.4881 18.5 12.0068 18.3056 12.401 17.9168C12.8003 17.528 13 17.0193 13 16.3908V2.61718C13 1.98336 12.8003 1.47204 12.401 1.08322C12.0068 0.694407 11.4881 0.5 10.845 0.5H2.155C1.51187 0.5 0.990624 0.694407 0.591263 1.08322C0.197088 1.47204 0 1.98336 0 2.61718V16.3908ZM1.25254 16.1751V2.83289C1.25254 2.50266 1.3459 2.247 1.53262 2.06591C1.71933 1.87949 1.97866 1.78629 2.31059 1.78629H10.6894C11.0213 1.78629 11.2807 1.87949 11.4674 2.06591C11.6541 2.247 11.7475 2.50266 11.7475 2.83289V16.1751C11.7475 16.5 11.6541 16.753 11.4674 16.9341C11.2807 17.1205 11.0213 17.2137 10.6894 17.2137H2.31059C1.97866 17.2137 1.71933 17.1205 1.53262 16.9341C1.3459 16.753 1.25254 16.5 1.25254 16.1751ZM4.29443 16.6065H8.70557C8.81448 16.6065 8.90265 16.5719 8.97008 16.5027C9.0375 16.4334 9.07121 16.3429 9.07121 16.231C9.07121 16.1192 9.0375 16.0286 8.97008 15.9594C8.90265 15.8955 8.81448 15.8635 8.70557 15.8635H4.29443C4.1907 15.8635 4.10513 15.8955 4.0377 15.9594C3.97028 16.0286 3.93656 16.1192 3.93656 16.231C3.93656 16.3429 3.97028 16.4334 4.0377 16.5027C4.10513 16.5719 4.1907 16.6065 4.29443 16.6065Z"
		fill="currentColor"
	/>
</svg>
