<svg
	color="rgb(var(--foreground, 0, 0, 0))"
	viewBox="0 0 20 17"
	fill="none"
	xmlns="http://www.w3.org/2000/svg"
>
	<path
		d="M2.056 13.7853H17.944C18.6213 13.7853 19.1333 13.6118 19.48 13.2648C19.8267 12.9178 20 12.4052 20 11.7272V2.55005C20 1.87738 19.8267 1.36753 19.48 1.02052C19.1333 0.673507 18.6213 0.5 17.944 0.5H2.056C1.37867 0.5 0.866667 0.673507 0.52 1.02052C0.173333 1.36753 0 1.87738 0 2.55005V11.7272C0 12.4052 0.173333 12.9178 0.52 13.2648C0.866667 13.6118 1.37867 13.7853 2.056 13.7853ZM2.08 12.496C1.81867 12.496 1.62133 12.4319 1.488 12.3038C1.35467 12.1703 1.288 11.9728 1.288 11.7112V2.57407C1.288 2.31248 1.35467 2.11762 1.488 1.98949C1.62133 1.85602 1.81867 1.78929 2.08 1.78929H17.92C18.1867 1.78929 18.384 1.85602 18.512 1.98949C18.6453 2.11762 18.712 2.31248 18.712 2.57407V11.7112C18.712 11.9728 18.6453 12.1703 18.512 12.3038C18.384 12.4319 18.1867 12.496 17.92 12.496H2.08ZM5.976 16.5H14.024C14.2 16.5 14.352 16.4359 14.48 16.3078C14.608 16.185 14.672 16.0329 14.672 15.8513C14.672 15.6752 14.608 15.523 14.48 15.3949C14.352 15.2668 14.2 15.2027 14.024 15.2027H5.976C5.8 15.2027 5.648 15.2668 5.52 15.3949C5.392 15.523 5.328 15.6752 5.328 15.8513C5.328 16.0329 5.392 16.185 5.52 16.3078C5.648 16.4359 5.8 16.5 5.976 16.5ZM10.4 10.3819C10.5493 10.3819 10.6453 10.2965 10.688 10.1256C10.7733 9.65048 10.8587 9.25008 10.944 8.92442C11.0293 8.59343 11.136 8.31848 11.264 8.0996C11.392 7.88071 11.5573 7.70187 11.76 7.56306C11.968 7.42426 12.2347 7.31214 12.56 7.22673C12.8907 7.13597 13.3013 7.05856 13.792 6.99449C13.968 6.97314 14.056 6.87704 14.056 6.70621C14.056 6.54071 13.968 6.44461 13.792 6.41792C13.3013 6.34851 12.8907 6.2711 12.56 6.18569C12.2293 6.09493 11.9573 5.98015 11.744 5.84134C11.5307 5.70254 11.3573 5.52369 11.224 5.3048C11.096 5.08592 10.992 4.81365 10.912 4.48799C10.832 4.16233 10.7573 3.76994 10.688 3.31081C10.656 3.1293 10.56 3.03854 10.4 3.03854C10.2347 3.03854 10.1333 3.12663 10.096 3.3028C10.0107 3.77261 9.92267 4.17301 9.832 4.504C9.74667 4.82966 9.64 5.10194 9.512 5.32082C9.38933 5.53971 9.224 5.71855 9.016 5.85736C8.81333 5.99082 8.54667 6.10027 8.216 6.18569C7.89067 6.2711 7.48533 6.34851 7 6.41792C6.81867 6.44461 6.728 6.54071 6.728 6.70621C6.728 6.8717 6.81867 6.9678 7 6.99449C7.61333 7.05856 8.104 7.14932 8.472 7.26677C8.84533 7.37888 9.13333 7.54705 9.336 7.77127C9.544 7.99016 9.70133 8.28912 9.808 8.66817C9.91467 9.04721 10.0107 9.53036 10.096 10.1176C10.128 10.2938 10.2293 10.3819 10.4 10.3819ZM7.248 11.6792C7.36533 11.6792 7.43733 11.6205 7.464 11.503C7.53867 11.1133 7.60267 10.8303 7.656 10.6542C7.70933 10.478 7.82133 10.3552 7.992 10.2858C8.16267 10.2164 8.45867 10.1496 8.88 10.0856C9.008 10.0696 9.072 9.9975 9.072 9.86937C9.072 9.74124 9.008 9.66917 8.88 9.65315C8.45867 9.57841 8.16267 9.50634 7.992 9.43694C7.82133 9.36753 7.70933 9.24741 7.656 9.07658C7.60267 8.90574 7.53867 8.6308 7.464 8.25175C7.43733 8.11828 7.36533 8.05155 7.248 8.05155C7.13067 8.05155 7.056 8.11828 7.024 8.25175C6.94933 8.6308 6.88533 8.90574 6.832 9.07658C6.784 9.24741 6.67467 9.36753 6.504 9.43694C6.33867 9.50634 6.04267 9.57841 5.616 9.65315C5.49333 9.66917 5.432 9.74124 5.432 9.86937C5.432 9.9975 5.49867 10.0696 5.632 10.0856C6.05333 10.1496 6.34667 10.2164 6.512 10.2858C6.67733 10.3552 6.784 10.478 6.832 10.6542C6.88533 10.825 6.94933 11.0999 7.024 11.479C7.056 11.6124 7.13067 11.6792 7.248 11.6792Z"
		fill="currentColor"
	/>
</svg>
