<svg
	color="rgb(var(--foreground, 0, 0, 0))"
	viewBox="0 0 20 17"
	fill="none"
	xmlns="http://www.w3.org/2000/svg"
>
	<path
		d="M2.056 13.7853H17.944C18.6213 13.7853 19.1333 13.6118 19.48 13.2648C19.8267 12.9178 20 12.4052 20 11.7272V2.55005C20 1.87738 19.8267 1.36753 19.48 1.02052C19.1333 0.673507 18.6213 0.5 17.944 0.5H2.056C1.37867 0.5 0.866667 0.673507 0.52 1.02052C0.173333 1.36753 0 1.87738 0 2.55005V11.7272C0 12.4052 0.173333 12.9178 0.52 13.2648C0.866667 13.6118 1.37867 13.7853 2.056 13.7853ZM2.08 12.496C1.81867 12.496 1.62133 12.4319 1.488 12.3038C1.35467 12.1703 1.288 11.9728 1.288 11.7112V2.57407C1.288 2.31248 1.35467 2.11762 1.488 1.98949C1.62133 1.85602 1.81867 1.78929 2.08 1.78929H17.92C18.1867 1.78929 18.384 1.85602 18.512 1.98949C18.6453 2.11762 18.712 2.31248 18.712 2.57407V11.7112C18.712 11.9728 18.6453 12.1703 18.512 12.3038C18.384 12.4319 18.1867 12.496 17.92 12.496H2.08ZM5.976 16.5H14.024C14.2 16.5 14.352 16.4359 14.48 16.3078C14.608 16.185 14.672 16.0329 14.672 15.8513C14.672 15.6752 14.608 15.523 14.48 15.3949C14.352 15.2668 14.2 15.2027 14.024 15.2027H5.976C5.8 15.2027 5.648 15.2668 5.52 15.3949C5.392 15.523 5.328 15.6752 5.328 15.8513C5.328 16.0329 5.392 16.185 5.52 16.3078C5.648 16.4359 5.8 16.5 5.976 16.5Z"
		fill="currentColor"
	/>
</svg>
