<svg
	color="rgb(var(--foreground, 0, 0, 0))"
	viewBox="0 0 20 16"
	fill="none"
	xmlns="http://www.w3.org/2000/svg"
>
	<path
		d="M0 11.6433C0 12.3809 0.195848 13.0395 0.587544 13.6191C0.984463 14.1986 1.51195 14.657 2.17 14.9942C2.82805 15.3314 3.5566 15.5 4.35566 15.5C5.1495 15.5 5.87544 15.3314 6.53349 14.9942C7.19154 14.657 7.71641 14.1986 8.10811 13.6191C8.4998 13.0395 8.69565 12.3809 8.69565 11.6433V2.91043C8.69565 2.18862 8.46847 1.60643 8.0141 1.16386C7.56496 0.721286 6.96436 0.5 6.2123 0.5C5.62214 0.5 5.10249 0.642255 4.65335 0.926765C4.20943 1.21127 3.87779 1.6117 3.65844 2.12803L0.39953 9.77819C0.242852 10.1523 0.135788 10.4842 0.0783392 10.774C0.0261131 11.0638 0 11.3535 0 11.6433ZM2.33451 8.2608L4.72385 2.65753C4.85964 2.34141 5.05288 2.09642 5.30356 1.92255C5.55947 1.74341 5.84672 1.65385 6.1653 1.65385C6.57788 1.65385 6.90691 1.78293 7.15237 2.0411C7.40305 2.29399 7.5284 2.62592 7.5284 3.03688V9.0432C7.1367 8.65332 6.66144 8.34773 6.10262 8.12645C5.54903 7.89989 4.96671 7.78662 4.35566 7.78662C4.00574 7.78662 3.65583 7.82877 3.30591 7.91307C2.96122 7.9921 2.63742 8.10801 2.33451 8.2608ZM1.22993 11.6433C1.22993 11.1112 1.36832 10.6449 1.64512 10.2445C1.92192 9.84405 2.29534 9.53319 2.76537 9.31191C3.23541 9.08535 3.7655 8.97208 4.35566 8.97208C4.94059 8.97208 5.4733 9.08535 5.95378 9.31191C6.43426 9.53319 6.81551 9.84405 7.09753 10.2445C7.37955 10.6449 7.52056 11.1112 7.52056 11.6433C7.52056 12.1754 7.37955 12.6417 7.09753 13.0421C6.81551 13.4426 6.43426 13.7534 5.95378 13.9747C5.47852 14.2013 4.94582 14.3145 4.35566 14.3145C3.7655 14.3145 3.23541 14.2013 2.76537 13.9747C2.29534 13.7482 1.92192 13.4347 1.64512 13.0342C1.36832 12.6338 1.22993 12.1702 1.22993 11.6433ZM20 11.6433C20 11.3535 19.9713 11.0638 19.9138 10.774C19.8616 10.4842 19.7545 10.1523 19.5926 9.77819L16.3416 2.12803C16.117 1.6117 15.7801 1.21127 15.331 0.926765C14.8871 0.642255 14.3726 0.5 13.7877 0.5C13.0356 0.5 12.4324 0.721286 11.9781 1.16386C11.5289 1.60643 11.3043 2.18862 11.3043 2.91043V11.6433C11.3043 12.3809 11.4976 13.0395 11.8841 13.6191C12.2758 14.1986 12.8006 14.657 13.4587 14.9942C14.1167 15.3314 14.8453 15.5 15.6443 15.5C16.4434 15.5 17.172 15.3314 17.83 14.9942C18.4881 14.657 19.0129 14.1986 19.4046 13.6191C19.8015 13.0395 20 12.3809 20 11.6433ZM17.6655 8.2608C17.3574 8.10801 17.0283 7.9921 16.6784 7.91307C16.3337 7.82877 15.989 7.78662 15.6443 7.78662C15.0281 7.78662 14.4405 7.89989 13.8817 8.12645C13.3281 8.34773 12.8555 8.65332 12.4638 9.0432V3.03688C12.4638 2.62592 12.5865 2.29399 12.832 2.0411C13.0826 1.78293 13.4169 1.65385 13.8347 1.65385C14.1533 1.65385 14.4379 1.74341 14.6886 1.92255C14.9393 2.09642 15.1325 2.34141 15.2683 2.65753L17.6655 8.2608ZM18.7622 11.6433C18.7622 12.1702 18.6238 12.6338 18.347 13.0342C18.0755 13.4347 17.7047 13.7482 17.2346 13.9747C16.7646 14.2013 16.2345 14.3145 15.6443 14.3145C15.0542 14.3145 14.5189 14.2013 14.0384 13.9747C13.5631 13.7534 13.1845 13.4426 12.9025 13.0421C12.6204 12.6417 12.4794 12.1754 12.4794 11.6433C12.4794 11.1112 12.6204 10.6449 12.9025 10.2445C13.1845 9.84405 13.5631 9.53319 14.0384 9.31191C14.5189 9.08535 15.0542 8.97208 15.6443 8.97208C16.2345 8.97208 16.7646 9.08535 17.2346 9.31191C17.7047 9.53319 18.0755 9.84405 18.347 10.2445C18.6238 10.6449 18.7622 11.1112 18.7622 11.6433ZM8.17078 9.86512C8.39535 9.7176 8.66693 9.60169 8.98551 9.51739C9.30931 9.42782 9.64878 9.38303 10.0039 9.38303C10.8395 9.38303 11.4662 9.53846 11.8841 9.84931V8.67176C11.3775 8.45574 10.7508 8.34773 10.0039 8.34773C9.67489 8.34773 9.3537 8.37935 9.04034 8.44257C8.73221 8.5058 8.44236 8.59536 8.17078 8.71127V9.86512ZM8.17078 7.45469C8.39535 7.30717 8.66693 7.19125 8.98551 7.10695C9.30931 7.01739 9.64878 6.9726 10.0039 6.9726C10.8395 6.9726 11.4662 7.12803 11.8841 7.43888V6.26133C11.3775 6.04531 10.7508 5.9373 10.0039 5.9373C9.67489 5.9373 9.3537 5.96891 9.04034 6.03214C8.73221 6.09536 8.44236 6.18493 8.17078 6.30084V7.45469ZM8.17078 5.03635C8.39535 4.88883 8.66693 4.77292 8.98551 4.68862C9.30931 4.59905 9.64878 4.55427 10.0039 4.55427C10.8395 4.55427 11.4662 4.70969 11.8841 5.02055V3.8509C11.3775 3.62961 10.7508 3.51897 10.0039 3.51897C9.67489 3.51897 9.3537 3.55321 9.04034 3.62171C8.73221 3.68493 8.44236 3.7745 8.17078 3.89041V5.03635Z"
		fill="currentColor"
	/>
</svg>
