<svg
	color="rgb(var(--foreground, 0, 0, 0))"
	viewBox="0 0 16 16"
	fill="none"
	xmlns="http://www.w3.org/2000/svg"
>
	<path
		d="M6.59049 3.24561H7.84769V0.615677C7.84769 0.448456 7.78522 0.304038 7.66028 0.182423C7.53534 0.0608076 7.38698 0 7.21519 0C7.0434 0 6.89503 0.0608076 6.77009 0.182423C6.65036 0.304038 6.59049 0.448456 6.59049 0.615677V3.24561ZM1.65543 9.69121L11.8457 9.67601C12.1997 9.67601 12.4756 9.62787 12.6734 9.53159C12.8765 9.43531 13.0769 9.29343 13.2747 9.10594L15.3596 7.1677C15.7813 6.77751 15.9947 6.38733 15.9999 5.99715C16.0051 5.60697 15.7891 5.20665 15.3518 4.7962L13.2747 2.86556C13.0769 2.67807 12.8765 2.53618 12.6734 2.43991C12.4756 2.33856 12.2023 2.28789 11.8535 2.28789H1.65543C1.12444 2.28789 0.715792 2.4247 0.429475 2.69834C0.143158 2.97197 0 3.36215 0 3.86888V8.10261C0 8.61441 0.143158 9.00713 0.429475 9.28076C0.715792 9.55439 1.12444 9.69121 1.65543 9.69121ZM6.59049 9.25796V15.962H7.84769V9.25796H6.59049ZM3.58417 15.3919C3.58417 15.5591 3.64664 15.701 3.77157 15.8176C3.89651 15.9392 4.04488 16 4.21667 16H10.2293C10.4011 16 10.5495 15.9392 10.6744 15.8176C10.7994 15.701 10.8618 15.5591 10.8618 15.3919C10.8618 15.2247 10.7994 15.0803 10.6744 14.9587C10.5495 14.8371 10.4011 14.7762 10.2293 14.7762H4.21667C4.04488 14.7762 3.89651 14.8371 3.77157 14.9587C3.64664 15.0803 3.58417 15.2247 3.58417 15.3919Z"
		fill="currentColor"
	/>
</svg>
