<svg
	color="rgb(var(--foreground, 0, 0, 0))"
	viewBox="0 0 16 16"
	fill="none"
	xmlns="http://www.w3.org/2000/svg"
>
	<path
		d="M9.40951 3.24561V0.615677C9.40951 0.448456 9.34704 0.304038 9.2221 0.182423C9.10237 0.0608076 8.9566 0 8.78481 0C8.61302 0 8.46466 0.0608076 8.33972 0.182423C8.21478 0.304038 8.15231 0.448456 8.15231 0.615677V3.24561H9.40951ZM14.3446 9.69121C14.8756 9.69121 15.2842 9.55439 15.5705 9.28076C15.8568 9.00713 16 8.61441 16 8.10261V3.86888C16 3.36215 15.8568 2.97197 15.5705 2.69834C15.2842 2.4247 14.8756 2.28789 14.3446 2.28789H4.14648C3.7977 2.28789 3.52179 2.33856 3.31876 2.43991C3.12095 2.53618 2.92313 2.67807 2.72531 2.86556L0.648209 4.7962C0.210925 5.20665 -0.0051139 5.60697 9.18664e-05 5.99715C0.00529763 6.38733 0.218734 6.77751 0.640401 7.1677L2.72531 9.10594C2.92313 9.29343 3.12095 9.43785 3.31876 9.53919C3.52179 9.63547 3.8003 9.68361 4.15429 9.68361L14.3446 9.69121ZM9.40951 9.25796H8.15231V15.962H9.40951V9.25796ZM12.4158 15.3919C12.4158 15.2247 12.3534 15.0803 12.2284 14.9587C12.1087 14.8371 11.9629 14.7762 11.7911 14.7762H5.77068C5.59889 14.7762 5.45052 14.8371 5.32559 14.9587C5.20585 15.0803 5.14599 15.2247 5.14599 15.3919C5.14599 15.5591 5.20585 15.701 5.32559 15.8176C5.45052 15.9392 5.59889 16 5.77068 16H11.7911C11.9629 16 12.1087 15.9392 12.2284 15.8176C12.3534 15.701 12.4158 15.5591 12.4158 15.3919Z"
		fill="currentColor"
	/>
</svg>
