<svg
	color="rgb(var(--foreground, 0, 0, 0))"
	viewBox="0 0 15 18"
	fill="none"
	xmlns="http://www.w3.org/2000/svg"
>
	<path
		d="M3.83864 3.90151L4.71737 3.0398L2.30473 0.681414C2.18654 0.560471 2.04008 0.5 1.86536 0.5C1.69579 0.5 1.54933 0.560471 1.426 0.681414C1.30781 0.797317 1.24872 0.940937 1.24872 1.11227C1.24872 1.27857 1.30781 1.42219 1.426 1.54313L3.83864 3.90151ZM13.7282 12.7303L12.8649 11.861C12.2533 12.4708 11.5313 12.9495 10.6989 13.2972C9.87153 13.6399 8.98253 13.8112 8.03186 13.8112C7.08119 13.8112 6.19476 13.6424 5.37256 13.3048C4.55036 12.9621 3.82837 12.4884 3.20658 11.8837C2.58993 11.274 2.10689 10.566 1.75745 9.75967C1.41316 8.95339 1.24101 8.08411 1.24101 7.15185C1.24101 6.21958 1.41572 5.3503 1.76516 4.54402C2.11973 3.7327 2.60277 3.0272 3.21429 2.42752L2.31244 1.59604C1.59301 2.30154 1.02775 3.13302 0.61665 4.09048C0.20555 5.04291 0 6.06336 0 7.15185C0 8.25041 0.20555 9.2759 0.61665 10.2283C1.03289 11.1807 1.60586 12.0173 2.33556 12.7379C3.0704 13.4585 3.92343 14.0204 4.89466 14.4235C5.86588 14.8267 6.91161 15.0282 8.03186 15.0282C9.15211 15.0282 10.2004 14.8241 11.1768 14.416C12.1531 14.0027 13.0036 13.4409 13.7282 12.7303ZM12.148 10.3341L11.2307 11.1505L13.944 13.8112C14.0622 13.9322 14.2061 13.9927 14.3756 13.9927C14.5504 13.9927 14.6968 13.9322 14.815 13.8112C14.9383 13.6953 15 13.5542 15 13.388C15 13.2166 14.9383 13.0705 14.815 12.9495L12.148 10.3341ZM7.4075 14.7108V16.7214H8.64851V14.7108H7.4075ZM5.26465 17.5H10.8145C10.9841 17.5 11.128 17.4395 11.2461 17.3186C11.3695 17.2027 11.4311 17.0616 11.4311 16.8953C11.4311 16.729 11.3695 16.5854 11.2461 16.4644C11.128 16.3435 10.9841 16.283 10.8145 16.283H5.26465C5.09507 16.283 4.94861 16.3435 4.82528 16.4644C4.70195 16.5854 4.64029 16.729 4.64029 16.8953C4.64029 17.0616 4.70195 17.2027 4.82528 17.3186C4.94861 17.4395 5.09507 17.5 5.26465 17.5ZM8.03186 12.7076C8.81295 12.7076 9.54522 12.564 10.2287 12.2768C10.9121 11.9896 11.5134 11.5914 12.0324 11.0825C12.5514 10.5735 12.9573 9.98392 13.2503 9.3137C13.5432 8.63843 13.6896 7.91782 13.6896 7.15185C13.6896 6.38588 13.5432 5.66778 13.2503 4.99755C12.9573 4.32733 12.5514 3.73774 12.0324 3.22877C11.5134 2.7198 10.9121 2.3217 10.2287 2.03446C9.54522 1.74722 8.81295 1.6036 8.03186 1.6036C7.25077 1.6036 6.51593 1.74722 5.82734 2.03446C5.14389 2.3217 4.54265 2.7198 4.02364 3.22877C3.50976 3.73774 3.1038 4.32733 2.80576 4.99755C2.51285 5.66778 2.36639 6.38588 2.36639 7.15185C2.36639 7.91782 2.51285 8.63843 2.80576 9.3137C3.1038 9.98392 3.50976 10.5735 4.02364 11.0825C4.54265 11.5914 5.14389 11.9896 5.82734 12.2768C6.51593 12.564 7.25077 12.7076 8.03186 12.7076ZM8.03186 11.5663C7.36896 11.5663 6.76259 11.4604 6.21274 11.2488C5.6629 11.0321 5.18756 10.7272 4.78674 10.3341C4.39106 9.94108 4.08273 9.47495 3.86177 8.93575C3.6408 8.39655 3.53032 7.80191 3.53032 7.15185C3.53032 6.50682 3.6408 5.9147 3.86177 5.3755C4.08273 4.8363 4.39106 4.37016 4.78674 3.9771C5.18756 3.58404 5.6629 3.28168 6.21274 3.07003C6.76259 2.85334 7.36896 2.745 8.03186 2.745C8.68962 2.745 9.29342 2.85334 9.84327 3.07003C10.3931 3.28168 10.8684 3.58404 11.2693 3.9771C11.6701 4.37016 11.9784 4.8363 12.1942 5.3755C12.4152 5.9147 12.5257 6.50682 12.5257 7.15185C12.5257 7.80191 12.4152 8.39655 12.1942 8.93575C11.9784 9.47495 11.6701 9.94108 11.2693 10.3341C10.8684 10.7272 10.3931 11.0321 9.84327 11.2488C9.29342 11.4604 8.68962 11.5663 8.03186 11.5663Z"
		fill="currentColor"
	/>
</svg>
