<svg
	color="rgb(var(--foreground, 0, 0, 0))"
	viewBox="0 0 16 16"
	fill="none"
	xmlns="http://www.w3.org/2000/svg"
>
	<path
		d="M0 14.3886C0 14.6696 0.0769231 14.8868 0.230769 15.0401C0.384615 15.1934 0.6 15.2701 0.876923 15.2701C1.06667 15.2701 1.28205 15.2036 1.52308 15.0708L4.75385 13.3309V0.630301C4.68718 0.660961 4.61538 0.69673 4.53846 0.737609C4.46154 0.773378 4.38974 0.811702 4.32308 0.85258L0.676923 2.9374C0.446154 3.06515 0.274359 3.22356 0.161538 3.41262C0.0538462 3.59658 0 3.8163 0 4.07179V14.3886ZM5.80769 13.1852L9.68462 15.3544C9.74615 15.385 9.80513 15.4131 9.86154 15.4387C9.92308 15.4642 9.98205 15.4847 10.0385 15.5V2.99106L6.23846 0.67629C6.17179 0.635411 6.1 0.599642 6.02308 0.568983C5.95128 0.538324 5.87949 0.51533 5.80769 0.5V13.1852ZM11.0846 15.477C11.1256 15.4668 11.1641 15.4515 11.2 15.431C11.241 15.4157 11.2795 15.3978 11.3154 15.3774L15.3231 13.1086C15.5538 12.9808 15.7231 12.825 15.8308 12.641C15.9436 12.452 16 12.2297 16 11.9742V1.64972C16 1.36868 15.9231 1.15151 15.7692 0.998212C15.6154 0.844916 15.4 0.768268 15.1231 0.768268C14.9333 0.768268 14.7179 0.834696 14.4769 0.967552L11.0846 2.84543V15.477Z"
		fill="currentColor"
	/>
</svg>
