<svg
	color="rgb(var(--foreground, 0, 0, 0))"
	viewBox="0 0 15 18"
	fill="none"
	xmlns="http://www.w3.org/2000/svg"
>
	<path
		d="M4.53397 3.41849C4.53397 3.87265 4.62875 4.29326 4.81833 4.68033C5.01316 5.0674 5.27909 5.39769 5.61611 5.67122C5.95313 5.94475 6.33491 6.13312 6.76145 6.23634V11.1366C6.76145 11.7095 6.78515 12.2152 6.83254 12.6539C6.87994 13.0926 6.9405 13.4616 7.01422 13.7609C7.08794 14.0603 7.16693 14.2873 7.25118 14.4422C7.33544 14.5918 7.41706 14.6667 7.49605 14.6667C7.57504 14.6667 7.65666 14.5918 7.74092 14.4422C7.83044 14.2873 7.90943 14.0603 7.97788 13.7609C8.05161 13.4616 8.11216 13.0926 8.15956 12.6539C8.20695 12.2152 8.23065 11.7095 8.23065 11.1366V6.23634C8.65719 6.13312 9.03897 5.94475 9.37599 5.67122C9.71301 5.39769 9.97894 5.0674 10.1738 4.68033C10.3686 4.29326 10.466 3.87265 10.466 3.41849C10.466 2.88175 10.3318 2.39405 10.0632 1.95537C9.79989 1.51154 9.44444 1.15801 8.99684 0.894809C8.54924 0.631603 8.04897 0.5 7.49605 0.5C6.94839 0.5 6.45076 0.631603 6.00316 0.894809C5.55556 1.15801 5.19747 1.51154 4.92891 1.95537C4.66561 2.39405 4.53397 2.88175 4.53397 3.41849ZM6.65087 3.57331C6.38231 3.57331 6.14534 3.47526 5.93997 3.27914C5.73986 3.07787 5.63981 2.84305 5.63981 2.57468C5.63981 2.30631 5.73986 2.07407 5.93997 1.87796C6.14534 1.68185 6.38231 1.58379 6.65087 1.58379C6.92996 1.58379 7.16956 1.68185 7.36967 1.87796C7.56977 2.07407 7.66983 2.30631 7.66983 2.57468C7.66983 2.84305 7.56977 3.07787 7.36967 3.27914C7.16956 3.47526 6.92996 3.57331 6.65087 3.57331ZM7.50395 17.5C8.69405 17.5 9.7525 17.4071 10.6793 17.2213C11.6114 17.0407 12.3986 16.793 13.0411 16.4781C13.6835 16.1685 14.1706 15.815 14.5024 15.4176C14.8341 15.0253 15 14.6151 15 14.1867C15 13.779 14.8815 13.4048 14.6445 13.0642C14.4128 12.7184 14.0995 12.4114 13.7046 12.143C13.3096 11.8746 12.8699 11.6475 12.3855 11.4617C11.9063 11.2708 11.4165 11.1263 10.9163 11.0282C10.4213 10.925 9.95524 10.8734 9.51817 10.8734V12.0036C9.90258 12.0088 10.316 12.063 10.7583 12.1662C11.2059 12.2643 11.6298 12.401 12.03 12.5765C12.4302 12.752 12.7593 12.961 13.0174 13.2036C13.2754 13.4461 13.4044 13.7119 13.4044 14.0009C13.4044 14.3364 13.257 14.6409 12.9621 14.9144C12.6672 15.1931 12.2538 15.4331 11.722 15.6343C11.1954 15.8408 10.5714 15.9982 9.84992 16.1066C9.13375 16.2201 8.35176 16.2769 7.50395 16.2769C6.65087 16.2769 5.86361 16.2201 5.14218 16.1066C4.42601 15.9982 3.802 15.8434 3.27014 15.6421C2.74355 15.4408 2.33281 15.2008 2.03791 14.9221C1.74829 14.6434 1.60348 14.3364 1.60348 14.0009C1.60348 13.7119 1.72986 13.4461 1.98262 13.2036C2.24065 12.961 2.56977 12.752 2.96998 12.5765C3.37019 12.401 3.7941 12.2643 4.24171 12.1662C4.68931 12.063 5.10269 12.0088 5.48183 12.0036V10.8734C5.05003 10.8734 4.58399 10.925 4.08373 11.0282C3.58873 11.1263 3.099 11.2708 2.61453 11.4617C2.13533 11.6475 1.69826 11.8746 1.30332 12.143C0.908373 12.4114 0.592417 12.7184 0.35545 13.0642C0.118483 13.4048 0 13.779 0 14.1867C0 14.6151 0.165877 15.0253 0.49763 15.4176C0.83465 15.815 1.32438 16.1685 1.96682 16.4781C2.60927 16.793 3.39389 17.0407 4.32069 17.2213C5.25276 17.4071 6.31385 17.5 7.50395 17.5Z"
		fill="currentColor"
	/>
</svg>
