<svg
	color="rgb(var(--foreground, 0, 0, 0))"
	viewBox="0 0 6 18"
	fill="none"
	xmlns="http://www.w3.org/2000/svg"
>
	<path
		d="M0 3.516C0 3.98533 0.0958722 4.42 0.287617 4.82C0.484687 5.22 0.753662 5.56133 1.09454 5.844C1.43542 6.12667 1.82157 6.32133 2.253 6.428V13.852C2.253 14.444 2.27696 14.964 2.3249 15.412C2.37284 15.8653 2.43409 16.2467 2.50866 16.556C2.58322 16.8653 2.66312 17.1 2.74834 17.26C2.83356 17.42 2.91611 17.5 2.99601 17.5C3.0759 17.5 3.15846 17.42 3.24368 17.26C3.33422 17.1053 3.41411 16.8733 3.48336 16.564C3.55792 16.2547 3.61917 15.8733 3.66711 15.42C3.71505 14.9667 3.73901 14.444 3.73901 13.852V6.428C4.17044 6.32133 4.55659 6.12667 4.89747 5.844C5.23835 5.56133 5.50732 5.22 5.70439 4.82C5.90146 4.42 6 3.98533 6 3.516C6 2.96133 5.86418 2.45733 5.59254 2.004C5.32623 1.54533 4.96671 1.18 4.51398 0.908C4.06125 0.636 3.55526 0.5 2.99601 0.5C2.44208 0.5 1.93875 0.636 1.48602 0.908C1.03329 1.18 0.671105 1.54533 0.399467 2.004C0.133156 2.45733 0 2.96133 0 3.516ZM2.13316 3.676C1.86152 3.676 1.62184 3.57467 1.41411 3.372C1.21172 3.164 1.11052 2.92133 1.11052 2.644C1.11052 2.36667 1.21172 2.12667 1.41411 1.924C1.62184 1.72133 1.86152 1.62 2.13316 1.62C2.41545 1.62 2.65779 1.72133 2.86019 1.924C3.06258 2.12667 3.16378 2.36667 3.16378 2.644C3.16378 2.92133 3.06258 3.164 2.86019 3.372C2.65779 3.57467 2.41545 3.676 2.13316 3.676Z"
		fill="currentColor"
	/>
</svg>
