<svg
	color="rgb(var(--foreground, 0, 0, 0))"
	viewBox="0 0 12 18"
	fill="none"
	xmlns="http://www.w3.org/2000/svg"
>
	<path
		d="M3.37757 3.516C3.37757 3.98533 3.47053 4.42 3.65645 4.82C3.84754 5.22 4.10835 5.56133 4.43887 5.844C4.7694 6.12667 5.14383 6.32133 5.56215 6.428V7.404L7.00304 8.892V6.428C7.42136 6.32133 7.79579 6.12667 8.12632 5.844C8.45684 5.56133 8.71765 5.22 8.90873 4.82C9.09982 4.42 9.19536 3.98533 9.19536 3.516C9.19536 2.96133 9.06367 2.45733 8.80028 2.004C8.54206 1.54533 8.19345 1.18 7.75447 0.908C7.31549 0.636 6.82486 0.5 6.28259 0.5C5.74549 0.5 5.25744 0.636 4.81846 0.908C4.37948 1.18 4.0283 1.54533 3.76491 2.004C3.50668 2.45733 3.37757 2.96133 3.37757 3.516ZM5.56215 13.852C5.56215 14.444 5.58539 14.964 5.63187 15.412C5.67835 15.8653 5.73774 16.2467 5.81004 16.556C5.88235 16.8653 5.95981 17.1 6.04245 17.26C6.12508 17.42 6.20513 17.5 6.28259 17.5C6.38072 17.5 6.48401 17.3773 6.59246 17.132C6.70608 16.8867 6.80162 16.5293 6.87909 16.06C6.95656 15.596 6.99529 15.0333 6.99529 14.372V13.26L5.56215 11.78V13.852ZM5.44595 3.676C5.18256 3.676 4.95016 3.57467 4.74874 3.372C4.55249 3.164 4.45437 2.92133 4.45437 2.644C4.45437 2.36667 4.55249 2.12667 4.74874 1.924C4.95016 1.72133 5.18256 1.62 5.44595 1.62C5.71967 1.62 5.95465 1.72133 6.1509 1.924C6.34715 2.12667 6.44528 2.36667 6.44528 2.644C6.44528 2.92133 6.34715 3.164 6.1509 3.372C5.95465 3.57467 5.71967 3.676 5.44595 3.676ZM10.9849 16.052C11.1036 16.1747 11.2457 16.236 11.4109 16.236C11.5762 16.236 11.7156 16.1747 11.8292 16.052C11.9429 15.9347 11.9997 15.7907 11.9997 15.62C12.0048 15.4493 11.948 15.3027 11.8292 15.18L1.02257 4.028C0.908949 3.91067 0.766926 3.852 0.596498 3.852C0.42607 3.852 0.284047 3.91067 0.170428 4.028C0.0568093 4.14533 0 4.292 0 4.468C0 4.63867 0.0568093 4.78267 0.170428 4.9L10.9849 16.052Z"
		fill="currentColor"
	/>
</svg>
