<svg
	color="rgb(var(--foreground, 0, 0, 0))"
	viewBox="0 0 16 16"
	fill="none"
	xmlns="http://www.w3.org/2000/svg"
>
	<path
		d="M0.869231 15.2035C0.966667 15.2035 1.06667 15.1858 1.16923 15.1503C1.27179 15.1199 1.38462 15.0692 1.50769 14.9982L5.42308 12.9151L9.67692 15.2719C9.95385 15.424 10.241 15.5 10.5385 15.5C10.8205 15.5 11.0769 15.4341 11.3077 15.3023L15.3308 13.0443C15.5615 12.9176 15.7308 12.7631 15.8385 12.5806C15.9462 12.3931 16 12.1726 16 11.9192V1.67841C16 1.39965 15.9231 1.18424 15.7692 1.03218C15.6205 0.880132 15.4077 0.804105 15.1308 0.804105C15.0333 0.804105 14.9333 0.821845 14.8308 0.857324C14.7282 0.887734 14.6128 0.935884 14.4846 1.00177L10.4077 3.24455L6.23077 0.712874C5.99487 0.570958 5.7359 0.5 5.45385 0.5C5.16667 0.5 4.90256 0.570958 4.66154 0.712874L0.661538 2.96325C0.435897 3.08996 0.269231 3.24709 0.161538 3.43462C0.0538462 3.61708 0 3.83756 0 4.09605V14.3216C0 14.6054 0.074359 14.8234 0.223077 14.9754C0.376923 15.1275 0.592308 15.2035 0.869231 15.2035ZM4.92308 11.7063L1.45385 13.5917C1.40256 13.6171 1.3641 13.6298 1.33846 13.6298C1.27179 13.6298 1.23846 13.5892 1.23846 13.5081V4.39255C1.23846 4.30132 1.25641 4.22276 1.29231 4.15687C1.33333 4.08591 1.4 4.02509 1.49231 3.9744L4.64615 2.14977C4.69744 2.12443 4.74359 2.09909 4.78462 2.07375C4.83077 2.0484 4.87692 2.02306 4.92308 1.99772V11.7063ZM6.16154 11.8279V2.15737C6.20256 2.17765 6.24359 2.20046 6.28462 2.2258C6.32564 2.24607 6.36667 2.26888 6.40769 2.29422L9.83846 4.36214V13.8654C9.78205 13.835 9.72564 13.8046 9.66923 13.7742C9.61282 13.7489 9.55641 13.721 9.5 13.6906L6.16154 11.8279ZM11.0769 14.0023V4.28611L14.5462 2.41586C14.5974 2.39052 14.6333 2.37785 14.6538 2.37785C14.6897 2.37785 14.7154 2.38799 14.7308 2.40826C14.7513 2.42854 14.7615 2.45895 14.7615 2.49949V11.6151C14.7615 11.7063 14.741 11.7874 14.7 11.8583C14.6641 11.9293 14.6 11.9901 14.5077 12.0408L11.4231 13.8122C11.3667 13.8477 11.3077 13.8806 11.2462 13.911C11.1897 13.9415 11.1333 13.9719 11.0769 14.0023Z"
		fill="currentColor"
	/>
</svg>
