<svg
	color="rgb(var(--foreground, 0, 0, 0))"
	viewBox="0 0 14 18"
	fill="none"
	xmlns="http://www.w3.org/2000/svg"
>
	<path
		d="M2.56282 5.56701C3.03506 5.56701 3.46485 5.45441 3.85219 5.22921C4.23953 4.99877 4.54728 4.69239 4.77544 4.31007C5.00891 3.92252 5.12564 3.49569 5.12564 3.02957C5.12564 2.56346 5.00891 2.13925 4.77544 1.75693C4.54728 1.37461 4.23953 1.07086 3.85219 0.845656C3.46485 0.615219 3.03506 0.5 2.56282 0.5C2.09058 0.5 1.66079 0.615219 1.27345 0.845656C0.88611 1.07086 0.575706 1.37461 0.34224 1.75693C0.11408 2.13925 0 2.56346 0 3.02957C0 3.49569 0.11408 3.92252 0.34224 4.31007C0.575706 4.69239 0.88611 4.99877 1.27345 5.22921C1.66079 5.45441 2.09058 5.56701 2.56282 5.56701ZM1.91814 5.85767C1.91814 6.64325 2.16221 7.30838 2.65037 7.85305C3.13853 8.39248 3.85749 8.79051 4.80728 9.04713L8.81069 10.1627C10.1319 10.5345 10.7925 11.1944 10.7925 12.1423V12.6922H12.0739V12.1423C12.0739 11.362 11.8298 10.7021 11.3417 10.1627C10.8588 9.61799 10.1425 9.21734 9.19272 8.96072L5.18931 7.84519C3.8628 7.47859 3.19955 6.81608 3.19955 5.85767V5.31562H1.91814V5.85767ZM11.4372 12.4408C10.9649 12.4408 10.5325 12.5561 10.1399 12.7865C9.75251 13.0117 9.44211 13.3181 9.20864 13.7056C8.98048 14.088 8.8664 14.5122 8.8664 14.9783C8.8664 15.4444 8.98048 15.8686 9.20864 16.2509C9.44211 16.6332 9.75251 16.937 10.1399 17.1622C10.5325 17.3874 10.9649 17.5 11.4372 17.5C11.9094 17.5 12.3392 17.3874 12.7265 17.1622C13.1139 16.937 13.4216 16.6332 13.6498 16.2509C13.8833 15.8686 14 15.4444 14 14.9783C14 14.5122 13.8833 14.088 13.6498 13.7056C13.4216 13.3181 13.1139 13.0117 12.7265 12.7865C12.3392 12.5561 11.9094 12.4408 11.4372 12.4408ZM11.4372 13.6742C11.8033 13.6742 12.1137 13.7999 12.3684 14.0513C12.6231 14.3027 12.7504 14.6117 12.7504 14.9783C12.7504 15.3396 12.6231 15.6434 12.3684 15.8896C12.1137 16.1409 11.8033 16.2666 11.4372 16.2666C11.0658 16.2666 10.7527 16.1409 10.498 15.8896C10.2433 15.6434 10.116 15.3396 10.116 14.9783C10.116 14.6117 10.2433 14.3027 10.498 14.0513C10.7527 13.7999 11.0658 13.6742 11.4372 13.6742Z"
		fill="currentColor"
	/>
</svg>
