<svg
	color="rgb(var(--foreground, 0, 0, 0))"
	viewBox="0 0 14 18"
	fill="none"
	xmlns="http://www.w3.org/2000/svg"
>
	<path
		d="M1.94334 5.88281C1.94334 7.47135 2.90047 8.52865 4.81473 9.05469L8.80453 10.1641C10.1265 10.5339 10.7875 11.1901 10.7875 12.1328V12.6797H12.0646V12.1328C12.0646 10.5443 11.1075 9.48958 9.1932 8.96875L5.2034 7.85938C3.8814 7.49479 3.2204 6.83594 3.2204 5.88281V5.34375H1.94334V5.88281ZM4.84646 0.835938C4.69839 0.690104 4.52389 0.598958 4.32295 0.5625C4.122 0.520833 3.89991 0.5 3.65666 0.5H1.51501C1.27705 0.5 1.0576 0.520833 0.856657 0.5625C0.655713 0.598958 0.481209 0.690104 0.333144 0.835938C0.18508 0.981771 0.0925401 1.15365 0.0555241 1.35156C0.018508 1.54427 0 1.75781 0 1.99219V4.10156C0 4.34115 0.018508 4.5599 0.0555241 4.75781C0.0925401 4.95573 0.18508 5.125 0.333144 5.26563C0.481209 5.41146 0.655713 5.50521 0.856657 5.54688C1.0576 5.58333 1.2797 5.60156 1.52295 5.60156H3.65666C3.89991 5.60156 4.122 5.58333 4.32295 5.54688C4.52389 5.50521 4.69839 5.41146 4.84646 5.26563C4.98923 5.125 5.07913 4.95573 5.11615 4.75781C5.15845 4.5599 5.1796 4.34115 5.1796 4.10156V2C5.1796 1.76042 5.15845 1.54427 5.11615 1.35156C5.07913 1.15365 4.98923 0.981771 4.84646 0.835938ZM13.6748 12.7422C13.5267 12.5964 13.3522 12.5052 13.1513 12.4688C12.9503 12.4271 12.7282 12.4063 12.485 12.4063H10.3433C10.1054 12.4063 9.88593 12.4271 9.68499 12.4688C9.48404 12.5052 9.30954 12.5964 9.16147 12.7422C9.01341 12.888 8.92087 13.0599 8.88385 13.2578C8.84684 13.4505 8.82833 13.6641 8.82833 13.8984V16.0078C8.82833 16.2422 8.84684 16.4583 8.88385 16.6563C8.92087 16.8594 9.01341 17.0313 9.16147 17.1719C9.30954 17.3125 9.48404 17.401 9.68499 17.4375C9.88593 17.4792 10.1054 17.5 10.3433 17.5H12.485C12.7282 17.5 12.9503 17.4792 13.1513 17.4375C13.3522 17.401 13.5267 17.3125 13.6748 17.1719C13.8176 17.0313 13.9075 16.8594 13.9445 16.6563C13.9815 16.4583 14 16.2422 14 16.0078V13.8984C14 13.6641 13.9815 13.4479 13.9445 13.25C13.9075 13.0521 13.8176 12.8828 13.6748 12.7422Z"
		fill="currentColor"
	/>
</svg>
