<svg
	color="rgb(var(--foreground, 0, 0, 0))"
	viewBox="0 0 15 18"
	fill="none"
	xmlns="http://www.w3.org/2000/svg"
>
	<path
		d="M1.86636 11.1429C1.86636 11.4723 1.96834 11.7375 2.17231 11.9382C2.37629 12.1338 2.6491 12.2317 2.99076 12.2317H7.12886V15.8378C7.12886 16.1313 7.15436 16.4093 7.20535 16.6718C7.25635 16.9344 7.32009 17.1634 7.39658 17.3591C7.47307 17.5598 7.54701 17.7169 7.6184 17.8301C7.69489 17.9434 7.75863 18 7.80963 18C7.85552 18 7.91416 17.9434 7.98555 17.8301C8.06204 17.7169 8.13853 17.5598 8.21502 17.3591C8.29151 17.1634 8.35525 16.9344 8.40625 16.6718C8.45724 16.4093 8.48274 16.1313 8.48274 15.8378V12.3398H8.92638L4.2146 7.56757C3.71996 7.861 3.29672 8.20077 2.94486 8.58687C2.59811 8.97297 2.33039 9.38481 2.14172 9.82239C1.95814 10.26 1.86636 10.7001 1.86636 11.1429ZM3.73271 0C3.46245 0 3.24572 0.0772201 3.08255 0.23166C2.91937 0.3861 2.83778 0.581725 2.83778 0.818533C2.83778 1.06049 2.93212 1.30759 3.12079 1.55985C3.24827 1.73488 3.43185 1.9305 3.67152 2.14672C3.91629 2.35779 4.1993 2.57658 4.52056 2.80309C4.84181 3.02445 5.18857 3.24324 5.56082 3.45946L5.49198 4.47104L13.1027 12.1467C13.5311 11.9768 13.7452 11.6422 13.7452 11.1429C13.7452 10.5972 13.6076 10.0592 13.3322 9.52896C13.0568 8.99356 12.6616 8.5045 12.1466 8.06178C11.6316 7.61905 11.0171 7.26641 10.3032 7.00386L10.0508 3.45946C10.6117 3.14028 11.1063 2.81338 11.5347 2.47876C11.963 2.139 12.2766 1.84041 12.4755 1.58301C12.6795 1.32046 12.7815 1.06564 12.7815 0.818533C12.7815 0.581725 12.6973 0.3861 12.5291 0.23166C12.3659 0.0772201 12.1517 0 11.8865 0H3.73271ZM0.168278 2.13127L13.9977 16.0772C14.1149 16.1956 14.2552 16.2548 14.4184 16.2548C14.5815 16.2548 14.7192 16.1956 14.8314 16.0772C14.9436 15.9588 14.9997 15.8172 14.9997 15.6525C15.0048 15.4929 14.9487 15.3539 14.8314 15.2355L1.00967 1.28958C0.892383 1.17117 0.752151 1.11197 0.588973 1.11197C0.425794 1.11197 0.285563 1.17117 0.168278 1.28958C0.0560926 1.40283 0 1.5444 0 1.71429C0 1.87902 0.0560926 2.01802 0.168278 2.13127Z"
		fill="currentColor"
	/>
</svg>
