<svg
	color="rgb(var(--foreground, 0, 0, 0))"
	viewBox="0 0 15 18"
	fill="none"
	xmlns="http://www.w3.org/2000/svg"
>
	<path
		d="M1.86636 11.1429C1.86636 11.4723 1.96834 11.7375 2.17231 11.9382C2.37629 12.1338 2.6491 12.2317 2.99076 12.2317H7.12886V15.8378C7.12886 16.1313 7.15436 16.4093 7.20535 16.6718C7.25635 16.9344 7.32009 17.1634 7.39658 17.3591C7.47307 17.5598 7.54701 17.7169 7.6184 17.8301C7.69489 17.9434 7.75863 18 7.80963 18C7.85552 18 7.91416 17.9434 7.98555 17.8301C8.06204 17.7169 8.13853 17.5598 8.21502 17.3591C8.29151 17.1634 8.35525 16.9344 8.40625 16.6718C8.45724 16.4093 8.48274 16.1313 8.48274 15.8378V12.3243H8.91873L7.67194 11.0656H3.29672C3.11824 11.0656 3.0443 10.9627 3.0749 10.7568C3.10549 10.4685 3.20238 10.1802 3.36556 9.89189C3.52874 9.6036 3.75056 9.33076 4.03102 9.07336C4.31148 8.81081 4.64039 8.58172 5.01774 8.3861L4.2146 7.57529C3.73526 7.86358 3.31966 8.1982 2.96781 8.57915C2.61596 8.9601 2.34314 9.36937 2.14937 9.80695C1.96069 10.2445 1.86636 10.6898 1.86636 11.1429ZM2.83778 0.818533C2.83778 1.06564 2.93466 1.31532 3.12844 1.56757C3.25592 1.7426 3.43695 1.93565 3.67152 2.14672C3.91119 2.35779 4.1789 2.57658 4.47466 2.80309C4.77552 3.02445 5.08658 3.24324 5.40784 3.45946L5.34665 4.30888L6.4787 5.45174L6.63168 2.88803C6.63678 2.79537 6.60873 2.73359 6.54754 2.7027C6.26198 2.55341 5.99426 2.40154 5.7444 2.2471C5.49963 2.09266 5.28291 1.94852 5.09423 1.81467C4.90556 1.67568 4.75513 1.55727 4.64294 1.45946C4.53076 1.3565 4.46701 1.287 4.45172 1.25097C4.42112 1.19949 4.41602 1.16088 4.43642 1.13514C4.46191 1.10425 4.49506 1.0888 4.53585 1.0888H11.0757C11.1165 1.0888 11.1471 1.10425 11.1675 1.13514C11.193 1.16088 11.1905 1.19949 11.1599 1.25097C11.1446 1.287 11.0808 1.3565 10.9687 1.45946C10.8616 1.55727 10.7137 1.67568 10.525 1.81467C10.3363 1.94852 10.1171 2.09266 9.8672 2.2471C9.61734 2.40154 9.34962 2.55341 9.06406 2.7027C9.00287 2.73359 8.97737 2.79537 8.98757 2.88803L9.21704 6.71815C8.7683 6.62548 8.29916 6.57915 7.80963 6.57915H7.6031L8.7887 7.79151C9.31393 7.84299 9.80091 7.97941 10.2497 8.20077C10.6984 8.42214 11.0885 8.69241 11.42 9.01158C11.7514 9.32561 12.0064 9.65766 12.1849 10.0077C12.3684 10.3526 12.4602 10.6795 12.4602 10.9884C12.4602 11.009 12.4602 11.0296 12.4602 11.0502C12.4602 11.0656 12.4602 11.0837 12.4602 11.1042L13.2863 12.0618C13.4138 11.9846 13.5209 11.8687 13.6076 11.7143C13.6994 11.5598 13.7452 11.3694 13.7452 11.1429C13.7452 10.6023 13.6101 10.0721 13.3398 9.55212C13.0696 9.02703 12.6871 8.55084 12.1925 8.12355C11.6979 7.69112 11.1191 7.34363 10.4562 7.08108L10.2038 3.45946C10.525 3.24324 10.8361 3.02445 11.1369 2.80309C11.4378 2.57658 11.7055 2.35779 11.9401 2.14672C12.1747 1.93565 12.3557 1.7426 12.4832 1.56757C12.682 1.31532 12.7815 1.06564 12.7815 0.818533C12.7815 0.581725 12.6973 0.3861 12.5291 0.23166C12.3659 0.0772201 12.1517 0 11.8865 0H3.73271C3.46245 0 3.24572 0.0772201 3.08255 0.23166C2.91937 0.3861 2.83778 0.581725 2.83778 0.818533ZM0.168278 2.13127L13.9977 16.0772C14.1149 16.1956 14.2552 16.2548 14.4184 16.2548C14.5815 16.2548 14.7192 16.1956 14.8314 16.0772C14.9436 15.9588 14.9997 15.8172 14.9997 15.6525C15.0048 15.4929 14.9487 15.3539 14.8314 15.2355L1.00967 1.28958C0.892383 1.17117 0.752151 1.11197 0.588973 1.11197C0.425794 1.11197 0.285563 1.17117 0.168278 1.28958C0.0560926 1.40283 0 1.5444 0 1.71429C0 1.87902 0.0560926 2.01802 0.168278 2.13127Z"
		fill="currentColor"
	/>
</svg>
