<svg
	color="rgb(var(--foreground, 0, 0, 0))"
	viewBox="0 0 12 18"
	fill="none"
	xmlns="http://www.w3.org/2000/svg"
>
	<path
		d="M0 11.1429C0 11.4723 0.103026 11.7375 0.309079 11.9382C0.515132 12.1338 0.790728 12.2317 1.13587 12.2317H5.31616V15.8378C5.31616 16.1313 5.34192 16.4093 5.39343 16.6718C5.44495 16.9344 5.50934 17.1634 5.58661 17.3591C5.66388 17.5598 5.73857 17.7169 5.81069 17.8301C5.88796 17.9434 5.95235 18 6.00386 18C6.05023 18 6.10947 17.9434 6.18158 17.8301C6.25885 17.7169 6.33612 17.5598 6.41339 17.3591C6.49066 17.1634 6.55505 16.9344 6.60657 16.6718C6.65808 16.4093 6.68384 16.1313 6.68384 15.8378V12.2317H10.8641C11.2144 12.2317 11.49 12.1338 11.6909 11.9382C11.897 11.7375 12 11.4723 12 11.1429C12 10.5972 11.8609 10.0592 11.5827 9.52896C11.3046 8.99356 10.9053 8.5045 10.3851 8.06178C9.86478 7.61905 9.24404 7.26641 8.52286 7.00386L8.26787 3.45946C8.64392 3.24324 8.99163 3.02445 9.31101 2.80309C9.63554 2.58172 9.91887 2.36551 10.161 2.15444C10.4031 1.94337 10.5911 1.75032 10.725 1.57529C10.926 1.31789 11.0264 1.06564 11.0264 0.818533C11.0264 0.581725 10.9414 0.3861 10.7714 0.23166C10.6066 0.0772201 10.3902 0 10.1223 0H1.88538C1.61236 0 1.39343 0.0772201 1.22859 0.23166C1.06375 0.3861 0.981326 0.581725 0.981326 0.818533C0.981326 1.06564 1.0792 1.31789 1.27495 1.57529C1.40889 1.75032 1.59691 1.94337 1.83902 2.15444C2.08113 2.36551 2.36188 2.5843 2.68126 2.81081C3.0058 3.03218 3.35608 3.24839 3.73213 3.45946L3.47714 7.00386C2.75596 7.26641 2.13522 7.61905 1.61494 8.06178C1.09466 8.5045 0.695428 8.99356 0.417257 9.52896C0.139086 10.0592 0 10.5972 0 11.1429Z"
		fill="currentColor"
	/>
</svg>
