<svg
	color="rgb(var(--foreground, 0, 0, 0))"
	viewBox="0 0 12 18"
	fill="none"
	xmlns="http://www.w3.org/2000/svg"
>
	<path
		d="M6.00386 18C6.05023 18 6.10947 17.9434 6.18158 17.8301C6.25885 17.7169 6.33612 17.5598 6.41339 17.3591C6.49066 17.1634 6.55505 16.9344 6.60657 16.6718C6.65808 16.4093 6.68384 16.1313 6.68384 15.8378V11.5985H5.31616V15.8378C5.31616 16.1313 5.34192 16.4093 5.39343 16.6718C5.44495 16.9344 5.50934 17.1634 5.58661 17.3591C5.66388 17.5598 5.73857 17.7169 5.81069 17.8301C5.88796 17.9434 5.95235 18 6.00386 18ZM1.13587 12.2317H10.8641C11.2144 12.2317 11.49 12.1338 11.6909 11.9382C11.897 11.7375 12 11.4723 12 11.1429C12 10.5766 11.8506 10.0232 11.5518 9.48263C11.2582 8.93694 10.841 8.44788 10.3001 8.01544C9.75918 7.57786 9.12299 7.23037 8.3915 6.97297C7.66516 6.71042 6.86929 6.57915 6.00386 6.57915C5.13844 6.57915 4.33999 6.71042 3.6085 6.97297C2.87701 7.23037 2.24082 7.57786 1.69994 8.01544C1.1642 8.44788 0.746941 8.93694 0.448165 9.48263C0.149388 10.0232 0 10.5766 0 11.1429C0 11.4723 0.103026 11.7375 0.309079 11.9382C0.515132 12.1338 0.790728 12.2317 1.13587 12.2317ZM1.44495 11.0656C1.26465 11.0656 1.18995 10.9627 1.22086 10.7568C1.26207 10.4118 1.40116 10.0618 1.63812 9.70656C1.87508 9.3462 2.19961 9.01673 2.61172 8.71815C3.02382 8.41441 3.5132 8.16988 4.07985 7.98456C4.65164 7.79923 5.29298 7.70656 6.00386 7.70656C6.70959 7.70656 7.34578 7.79923 7.91243 7.98456C8.48422 8.16988 8.97618 8.41441 9.38828 8.71815C9.80039 9.01673 10.1249 9.3462 10.3619 9.70656C10.5988 10.0618 10.7379 10.4118 10.7791 10.7568C10.81 10.9627 10.7354 11.0656 10.5551 11.0656H1.44495ZM0.981326 0.818533C0.981326 1.06564 1.0792 1.31532 1.27495 1.56757C1.40373 1.7426 1.58661 1.93565 1.82357 2.14672C2.06568 2.35779 2.33612 2.57658 2.6349 2.80309C2.93883 3.02445 3.25306 3.24324 3.57759 3.45946L3.29169 7.53668H4.52801L4.81391 2.88803C4.81906 2.79537 4.79073 2.73359 4.72891 2.7027C4.44044 2.55341 4.16999 2.40154 3.91758 2.2471C3.67032 2.09266 3.45138 1.94852 3.26079 1.81467C3.07019 1.67568 2.91822 1.55727 2.80489 1.45946C2.69156 1.3565 2.62717 1.287 2.61172 1.25097C2.58081 1.19949 2.57566 1.16088 2.59627 1.13514C2.62202 1.10425 2.65551 1.0888 2.69672 1.0888H9.30328C9.34449 1.0888 9.3754 1.10425 9.39601 1.13514C9.42176 1.16088 9.41919 1.19949 9.38828 1.25097C9.37283 1.287 9.30844 1.3565 9.19511 1.45946C9.08693 1.55727 8.93754 1.67568 8.74694 1.81467C8.55634 1.94852 8.33484 2.09266 8.08242 2.2471C7.83001 2.40154 7.55956 2.55341 7.27109 2.7027C7.20927 2.73359 7.18352 2.79537 7.19382 2.88803L7.47199 7.53668H8.70831L8.42241 3.45946C8.74694 3.24324 9.06117 3.02445 9.3651 2.80309C9.66903 2.57658 9.93947 2.35779 10.1764 2.14672C10.4134 1.93565 10.5963 1.7426 10.725 1.56757C10.926 1.31532 11.0264 1.06564 11.0264 0.818533C11.0264 0.581725 10.9414 0.3861 10.7714 0.23166C10.6066 0.0772201 10.3902 0 10.1223 0H1.88538C1.61236 0 1.39343 0.0772201 1.22859 0.23166C1.06375 0.3861 0.981326 0.581725 0.981326 0.818533Z"
		fill="currentColor"
	/>
</svg>
