<svg color="rgb(var(--foreground, 0, 0, 0))" viewBox="0 0 18 19" fill="none">
	<path
		d="M0.862414 11.0601C0.292726 11.6246 0.00529843 12.2465 7.19313e-05 12.926C-0.00515456 13.6002 0.274435 14.2195 0.838896 14.784L4.36666 18.3197C4.4921 18.4399 4.64104 18.5 4.81351 18.5C4.99121 18.5 5.14301 18.4399 5.26844 18.3197C5.38865 18.1943 5.44875 18.0453 5.44875 17.8728C5.44875 17.7004 5.38865 17.5514 5.26844 17.426L1.86587 14.0235C1.52092 13.6786 1.34585 13.3154 1.34062 12.9338C1.3354 12.5523 1.50263 12.1943 1.84235 11.8598L11.3597 2.3424C11.6994 2.00268 12.0603 1.83543 12.4418 1.84066C12.8286 1.84066 13.1892 2.01052 13.5237 2.35024L16.9338 5.75266C17.054 5.8781 17.2004 5.94343 17.3728 5.94866C17.5453 5.94866 17.6916 5.88594 17.8119 5.7605C17.9373 5.63507 18 5.48611 18 5.31364C18 5.14117 17.9373 4.99222 17.8119 4.86678L14.2841 1.33892C13.7196 0.774461 13.1003 0.494845 12.4261 0.500072C11.7519 0.505298 11.1298 0.792754 10.5601 1.36244L0.862414 11.0601ZM1.9913 15.0662L2.885 15.9599L15.4835 3.36156L14.5898 2.46783L1.9913 15.0662ZM13.9235 4.36504L13.1866 5.11765L15.4443 7.37548C15.5489 7.48524 15.6743 7.54011 15.8206 7.54011C15.967 7.54011 16.0898 7.48785 16.1891 7.38332C16.2936 7.28402 16.3459 7.1612 16.3459 7.01485C16.3511 6.86329 16.3014 6.73524 16.1969 6.63071L13.9235 4.36504ZM12.3713 5.9173L11.6263 6.66991L13.8921 8.92774C13.9966 9.03227 14.1221 9.08453 14.2684 9.08453C14.4148 9.08453 14.5376 9.03488 14.6369 8.93558C14.7414 8.83628 14.7937 8.71346 14.7937 8.56711C14.7989 8.42077 14.7492 8.29534 14.6447 8.19081L12.3713 5.9173ZM10.8188 7.46956L10.0819 8.22217L12.3399 10.4878C12.4444 10.5871 12.5698 10.6368 12.7162 10.6368C12.8625 10.6368 12.9853 10.5898 13.0846 10.4957C13.1892 10.3911 13.2414 10.2657 13.2414 10.1194C13.2467 9.9678 13.197 9.84237 13.0925 9.74307L10.8188 7.46956ZM9.27442 9.02182L8.52967 9.76659L10.7953 12.0323C10.8998 12.1368 11.0252 12.189 11.1716 12.189C11.3179 12.189 11.4407 12.1368 11.54 12.0323C11.6446 11.933 11.6968 11.8101 11.6968 11.6638C11.702 11.5174 11.6524 11.392 11.5479 11.2875L9.27442 9.02182ZM7.7222 10.5741L6.97745 11.3188L9.24306 13.5924C9.34759 13.6917 9.47301 13.7413 9.61935 13.7413C9.7657 13.7413 9.8885 13.6917 9.98781 13.5924C10.0923 13.4878 10.1446 13.3624 10.1446 13.216C10.1498 13.0697 10.1002 12.9443 9.99565 12.8397L7.7222 10.5741ZM6.16998 12.1263L5.42523 12.8711L7.69084 15.1446C7.79537 15.2439 7.9208 15.2936 8.06714 15.2936C8.21348 15.2936 8.33629 15.2439 8.43559 15.1446C8.5349 15.0401 8.58454 14.9146 8.58454 14.7683C8.58977 14.622 8.54274 14.4965 8.44343 14.392L6.16998 12.1263ZM4.61752 13.6786L3.87277 14.4234L6.13863 16.6969C6.24316 16.7962 6.36858 16.8458 6.51492 16.8458C6.66126 16.8458 6.78407 16.7962 6.88338 16.6969C6.98791 16.5923 7.04017 16.4669 7.04017 16.3206C7.04539 16.1742 6.99575 16.0488 6.89122 15.9443L4.61752 13.6786Z"
		fill="currentColor"
	/>
</svg>
