<svg color="rgb(var(--foreground, 0, 0, 0))" viewBox="0 0 12 17" fill="none">
	<path
		d="M0 13.3959C0 14.1295 0.140625 14.7647 0.421875 15.3016C0.708333 15.8438 1.10938 16.2611 1.625 16.5535C2.14062 16.8512 2.7474 17 3.44531 17C4.23177 17 4.91667 16.8246 5.5 16.4737C6.08333 16.1282 6.5599 15.6179 6.92969 14.9428L7.63281 13.659C7.90365 13.1434 8.19792 12.6942 8.51562 12.3114C8.83854 11.9234 9.16406 11.5672 9.49219 11.243C9.82031 10.9187 10.1328 10.5971 10.4297 10.2781C10.7318 9.95388 11 9.60569 11.2344 9.23358C11.4687 8.86148 11.6536 8.43355 11.7891 7.94981C11.9297 7.46076 12 6.88665 12 6.22749C12 4.98358 11.7526 3.8965 11.2578 2.96623C10.7682 2.03064 10.0781 1.30238 9.1875 0.781426C8.30208 0.260475 7.26823 0 6.08594 0C4.8724 0 3.8099 0.263133 2.89844 0.7894C1.98698 1.31035 1.27604 2.04128 0.765625 2.98218C0.255208 3.91776 0 5.01016 0 6.25938V13.3959ZM2.10156 9.95122V5.97233C2.10156 5.22811 2.26302 4.57427 2.58594 4.01079C2.90885 3.44731 3.36719 3.00876 3.96094 2.69512C4.5599 2.38149 5.26562 2.22467 6.07812 2.22467C6.86458 2.22467 7.54427 2.38149 8.11719 2.69512C8.6901 3.00876 9.13021 3.44731 9.4375 4.01079C9.75 4.57427 9.90625 5.22811 9.90625 5.97233C9.90625 6.13712 9.84635 6.28064 9.72656 6.40291C9.61198 6.51986 9.47396 6.57833 9.3125 6.57833C9.15625 6.57833 9.01823 6.51986 8.89844 6.40291C8.78385 6.28064 8.72656 6.13712 8.72656 5.97233C8.72656 5.20153 8.49219 4.5849 8.02344 4.12242C7.5599 3.65994 6.91146 3.42871 6.07812 3.42871C5.49479 3.42871 4.99219 3.53502 4.57031 3.74765C4.15365 3.96029 3.83333 4.25797 3.60938 4.64071C3.39062 5.01814 3.28125 5.46201 3.28125 5.97233V6.98499H5.64062C6.27083 6.98499 6.77865 7.16573 7.16406 7.5272C7.54948 7.88868 7.74219 8.36179 7.74219 8.94653C7.74219 9.19106 7.69271 9.45419 7.59375 9.73593C7.5 10.0124 7.3724 10.2542 7.21094 10.4615L6.19531 11.7772C6.0599 11.9526 5.89844 12.0403 5.71094 12.0403C5.54948 12.0403 5.40885 11.9819 5.28906 11.8649C5.17448 11.748 5.11719 11.6071 5.11719 11.4423C5.11719 11.2881 5.16927 11.1446 5.27344 11.0117L6.21094 9.80769C6.30469 9.69074 6.38021 9.55785 6.4375 9.40901C6.49479 9.25485 6.52344 9.11664 6.52344 8.99437C6.52344 8.75516 6.44531 8.56113 6.28906 8.41229C6.13281 8.26345 5.92188 8.18902 5.65625 8.18902H3.28125V9.95122C3.28125 10.116 3.22135 10.2595 3.10156 10.3818C2.98698 10.4987 2.84896 10.5572 2.6875 10.5572C2.52604 10.5572 2.38802 10.4987 2.27344 10.3818C2.15885 10.2595 2.10156 10.116 2.10156 9.95122Z"
		fill="currentColor"
	/>
</svg>
