<svg color="rgb(var(--foreground, 0, 0, 0))" viewBox="0 0 16 15" fill="none">
	<path
		d="M1.64371 6.95934C1.88595 6.95934 2.21322 6.87237 2.62554 6.69844C3.04301 6.5245 3.51201 6.30049 4.03256 6.02641C4.55826 5.74706 5.10974 5.45453 5.68698 5.14883C6.26422 4.83785 6.83888 4.54532 7.41097 4.27124C7.98821 3.99716 8.53452 3.77315 9.04991 3.59922C9.57046 3.42528 10.0292 3.33831 10.426 3.33831C10.8486 3.33831 11.2506 3.42792 11.632 3.60712C12.0134 3.78106 12.4 4.04987 12.7917 4.41355L14.7321 6.23988C14.8919 6.39273 15.0594 6.47179 15.2346 6.47706C15.4099 6.47706 15.5645 6.42963 15.6985 6.33475C15.8376 6.23461 15.9304 6.10547 15.9768 5.94735C16.0232 5.78923 16 5.62583 15.9072 5.45717C15.7938 5.26742 15.6547 5.04868 15.4898 4.80096C15.3248 4.55323 15.1135 4.26597 14.8558 3.93918C14.6033 3.6124 14.2863 3.2329 13.9049 2.8007C13.4926 2.3316 13.0803 1.92575 12.668 1.58315C12.2608 1.24054 11.8227 0.97437 11.3537 0.784622C10.8899 0.594874 10.3616 0.5 9.76888 0.5C9.00095 0.5 8.12222 0.639676 7.13266 0.919027C6.1431 1.19311 5.09943 1.56733 4.00164 2.0417C2.90385 2.5108 1.81379 3.03788 0.731463 3.62294C0.458304 3.77579 0.262455 3.98662 0.143914 4.25543C0.0305272 4.52424 -0.0158583 4.81413 0.00475748 5.12511C0.0305272 5.43081 0.11299 5.72334 0.252147 6.00269C0.396457 6.28204 0.587153 6.51132 0.824234 6.69053C1.06132 6.86974 1.33447 6.95934 1.64371 6.95934ZM14.3456 10.2246C14.4693 10.0875 14.5363 9.94524 14.5466 9.79765C14.562 9.65007 14.5337 9.51567 14.4615 9.39444C14.3945 9.27321 14.2992 9.18097 14.1755 9.11772C14.0518 9.0492 13.9127 9.02812 13.758 9.05447C13.6086 9.07556 13.4617 9.15989 13.3174 9.30747C12.8071 9.82401 12.1397 10.2325 11.3151 10.5329C10.4904 10.8334 9.5988 10.9836 8.64017 10.9836C7.58877 10.9836 6.56057 10.8571 5.55555 10.6041C4.55569 10.3458 3.57644 9.95051 2.61781 9.41816C2.44257 9.31801 2.28022 9.28375 2.13076 9.31538C1.98129 9.34173 1.8576 9.40762 1.75967 9.51303C1.66175 9.61845 1.5999 9.74495 1.57413 9.89253C1.54836 10.0348 1.5664 10.1798 1.62825 10.3274C1.69525 10.4697 1.81894 10.5909 1.99933 10.6911C3.04043 11.255 4.12018 11.6793 5.23858 11.9639C6.35699 12.2486 7.49084 12.3909 8.64017 12.3909C9.82042 12.3909 10.9079 12.2038 11.9026 11.8295C12.9025 11.45 13.7168 10.9151 14.3456 10.2246ZM3.39863 11.197C3.31101 11.371 3.18474 11.5924 3.01981 11.8612C2.85489 12.13 2.71058 12.3303 2.58688 12.462C2.47865 12.578 2.4168 12.6939 2.40134 12.8099C2.39103 12.9259 2.41422 13.0313 2.47092 13.1262C2.52761 13.2158 2.60492 13.2843 2.70285 13.3317C2.80592 13.3791 2.91673 13.3897 3.03527 13.3633C3.15382 13.3423 3.2672 13.2711 3.37544 13.1499C3.53521 12.9654 3.68209 12.7625 3.8161 12.5411C3.95525 12.3197 4.07379 12.1142 4.17172 11.9244C4.2748 11.7347 4.34953 11.5976 4.39592 11.5133L3.39863 11.197ZM6.09672 11.8295C6.01941 12.1827 5.93179 12.5332 5.83386 12.8811C5.73594 13.2237 5.65348 13.4714 5.58648 13.6242C5.52463 13.7718 5.50659 13.9036 5.53236 14.0195C5.56328 14.1355 5.61998 14.2277 5.70244 14.2963C5.7849 14.3648 5.88025 14.4017 5.98848 14.407C6.10187 14.4122 6.2101 14.3832 6.31318 14.32C6.41626 14.2567 6.49872 14.1487 6.56057 13.9958C6.64819 13.7639 6.7255 13.5083 6.7925 13.2289C6.86465 12.9549 6.92135 12.7045 6.96258 12.4778C7.00896 12.2459 7.03989 12.0799 7.05535 11.9798L6.09672 11.8295ZM8.90302 12.0035C8.94941 12.3619 8.97002 12.7229 8.96487 13.0866C8.95972 13.4503 8.95198 13.7165 8.94168 13.8851C8.93137 14.0485 8.95972 14.1777 9.02672 14.2725C9.09372 14.3727 9.17876 14.4386 9.28184 14.4702C9.38492 14.5071 9.48799 14.5097 9.59107 14.4781C9.69931 14.4465 9.7895 14.3806 9.86166 14.2805C9.93381 14.1856 9.97246 14.0564 9.97762 13.8931C9.98277 13.6401 9.97762 13.3712 9.96216 13.0866C9.95185 12.802 9.93381 12.5437 9.90804 12.3118C9.88742 12.0746 9.86939 11.9086 9.85392 11.8137L8.90302 12.0035ZM11.5315 11.4896C11.7274 11.8902 11.864 12.2776 11.9413 12.6518C12.0237 13.026 12.083 13.2975 12.1191 13.4661C12.1449 13.6242 12.2015 13.7402 12.2892 13.814C12.3768 13.8878 12.4721 13.9247 12.5752 13.9247C12.6834 13.9247 12.7839 13.8931 12.8767 13.8298C12.9746 13.7718 13.0494 13.6875 13.1009 13.5768C13.1524 13.4714 13.1602 13.3475 13.1241 13.2052C13.021 12.7625 12.9025 12.3329 12.7685 11.9165C12.6396 11.5001 12.503 11.1812 12.3587 10.9599L11.5315 11.4896Z"
		fill="currentColor"
	/>
</svg>
