<svg color="rgb(var(--foreground, 0, 0, 0))" viewBox="0 0 18 15" fill="none">
	<path
		d="M4.21899 14.5C4.80411 14.5 5.35073 14.331 5.85885 13.9931C6.37211 13.6552 6.82122 13.1765 7.20616 12.557C7.5911 11.9376 7.89136 11.2003 8.10693 10.3453C8.3225 9.48519 8.43028 8.53547 8.43028 7.49616C8.43028 6.45173 8.3225 5.50201 8.10693 4.64701C7.89136 3.79201 7.5911 3.05476 7.20616 2.43527C6.82122 1.81578 6.37211 1.33964 5.85885 1.00686C5.35073 0.668952 4.80411 0.5 4.21899 0.5C3.62874 0.5 3.07956 0.668952 2.57143 1.00686C2.0633 1.33964 1.61677 1.81578 1.23182 2.43527C0.846878 3.05476 0.544055 3.79201 0.323353 4.64701C0.107784 5.50201 0 6.45173 0 7.49616C0 8.53547 0.107784 9.48519 0.323353 10.3453C0.544055 11.2003 0.846878 11.9376 1.23182 12.557C1.61677 13.1765 2.0633 13.6552 2.57143 13.9931C3.07956 14.331 3.62874 14.5 4.21899 14.5ZM4.21899 13.4172C3.79812 13.4172 3.40034 13.2764 3.02566 12.9948C2.65098 12.7081 2.31993 12.3036 2.03251 11.7814C1.74508 11.2541 1.51925 10.6295 1.355 9.90757C1.19076 9.18056 1.10864 8.37676 1.10864 7.49616C1.10864 6.62068 1.1882 5.822 1.34731 5.10011C1.51155 4.37822 1.73738 3.75617 2.02481 3.23396C2.31737 2.71174 2.65098 2.30728 3.02566 2.02057C3.40034 1.73386 3.79812 1.58795 4.21899 1.58283C4.645 1.58283 5.04534 1.72618 5.42002 2.01289C5.79983 2.29448 6.13345 2.69638 6.42087 3.2186C6.7083 3.74081 6.93413 4.36542 7.09838 5.09243C7.26262 5.81432 7.34474 6.61556 7.34474 7.49616C7.34474 8.37164 7.26262 9.17032 7.09838 9.89221C6.93413 10.6141 6.7083 11.2387 6.42087 11.766C6.13345 12.2883 5.79983 12.6927 5.42002 12.9794C5.04534 13.2661 4.645 13.4121 4.21899 13.4172ZM2.55603 10.2071C3.19761 10.2071 3.71343 10.0023 4.10351 9.5927C4.49872 9.18312 4.69632 8.64043 4.69632 7.96462C4.69632 7.29905 4.49872 6.76147 4.10351 6.35189C3.71343 5.94231 3.19761 5.73752 2.55603 5.73752C1.90932 5.73752 1.38837 5.94231 0.993157 6.35189C0.60308 6.76147 0.408041 7.29905 0.408041 7.96462C0.408041 8.64043 0.60308 9.18312 0.993157 9.5927C1.38837 10.0023 1.90932 10.2071 2.55603 10.2071ZM1.94782 7.70351C1.80924 7.68303 1.70145 7.60368 1.62447 7.46544C1.55261 7.32209 1.53208 7.16594 1.56287 6.99698C1.59367 6.83315 1.66809 6.70004 1.78614 6.59764C1.90419 6.49013 2.02737 6.44917 2.15569 6.47477C2.29427 6.50037 2.39949 6.58228 2.47134 6.72052C2.5432 6.85875 2.56373 7.00978 2.53293 7.17361C2.50214 7.34257 2.43028 7.47824 2.31737 7.58064C2.20445 7.68303 2.08127 7.72399 1.94782 7.70351ZM13.781 14.5C14.3713 14.5 14.9204 14.331 15.4286 13.9931C15.9367 13.6552 16.3832 13.1765 16.7682 12.557C17.1531 11.9376 17.4534 11.2003 17.6689 10.3453C17.8897 9.48519 18 8.53547 18 7.49616C18 6.45173 17.8897 5.50201 17.6689 4.64701C17.4534 3.79201 17.1531 3.05476 16.7682 2.43527C16.3832 1.81578 15.9367 1.33964 15.4286 1.00686C14.9204 0.668952 14.3713 0.5 13.781 0.5C13.1959 0.5 12.6467 0.668952 12.1334 1.00686C11.6253 1.33964 11.1788 1.81578 10.7938 2.43527C10.4089 3.05476 10.1086 3.79201 9.89307 4.64701C9.6775 5.50201 9.56972 6.45173 9.56972 7.49616C9.56972 8.53547 9.6775 9.48519 9.89307 10.3453C10.1086 11.2003 10.4089 11.9376 10.7938 12.557C11.1788 13.1765 11.6253 13.6552 12.1334 13.9931C12.6467 14.331 13.1959 14.5 13.781 14.5ZM13.781 13.4095C13.3601 13.4095 12.9598 13.2687 12.58 12.9871C12.2053 12.7004 11.8717 12.2959 11.5791 11.7737C11.2917 11.2464 11.0659 10.6218 10.9016 9.89989C10.7374 9.17288 10.6553 8.37164 10.6553 7.49616C10.6553 6.62068 10.7374 5.822 10.9016 5.10011C11.0659 4.37822 11.2917 3.75617 11.5791 3.23396C11.8717 2.71174 12.2053 2.30984 12.58 2.02825C12.9547 1.74154 13.355 1.59563 13.781 1.59051C14.2019 1.59051 14.5997 1.73386 14.9743 2.02057C15.3541 2.30216 15.6878 2.70662 15.9752 3.23396C16.2626 3.75617 16.4885 4.37822 16.6527 5.10011C16.8169 5.822 16.8991 6.62068 16.8991 7.49616C16.8991 8.37164 16.8169 9.17032 16.6527 9.89221C16.4885 10.6141 16.2626 11.2387 15.9752 11.766C15.6878 12.2883 15.3541 12.6927 14.9743 12.9794C14.5997 13.261 14.2019 13.4044 13.781 13.4095ZM12.1104 10.2071C12.7519 10.2071 13.2703 10.0023 13.6655 9.5927C14.0659 9.18312 14.266 8.64043 14.266 7.96462C14.266 7.29905 14.0659 6.76147 13.6655 6.35189C13.2703 5.94231 12.7519 5.73752 12.1104 5.73752C11.4636 5.73752 10.9427 5.94231 10.5475 6.35189C10.1574 6.76147 9.96236 7.29905 9.96236 7.96462C9.96236 8.64043 10.1574 9.18312 10.5475 9.5927C10.9427 10.0023 11.4636 10.2071 12.1104 10.2071ZM11.5021 7.70351C11.3687 7.67791 11.2635 7.596 11.1865 7.45776C11.1146 7.31953 11.0941 7.16594 11.1249 6.99698C11.1608 6.83315 11.2352 6.70004 11.3482 6.59764C11.4611 6.49013 11.5843 6.44917 11.7177 6.47477C11.8563 6.49525 11.9615 6.57716 12.0334 6.72052C12.1052 6.85875 12.1232 7.00978 12.0873 7.17361C12.0565 7.34257 11.9846 7.47824 11.8717 7.58064C11.7588 7.68303 11.6356 7.72399 11.5021 7.70351Z"
		fill="currentColor"
	/>
</svg>
