<svg color="rgb(var(--foreground, 0, 0, 0))" viewBox="0 0 17 21" fill="none">
	<path
		d="M9.82935 20.5C10.8772 20.5 11.7765 20.3823 12.5271 20.1468C13.2778 19.9165 13.8513 19.5838 14.2475 19.1488C14.6489 18.7188 14.8496 18.2019 14.8496 17.5979V13.3829C15.5273 12.8148 16.0538 12.0905 16.4292 11.2102C16.8097 10.3298 17 9.3778 17 8.35413C17 7.17178 16.8123 6.09949 16.437 5.13724C16.0669 4.17498 15.5377 3.34837 14.8496 2.65739C14.1667 1.96641 13.3482 1.4341 12.3942 1.06046C11.4402 0.68682 10.3793 0.5 9.2116 0.5C8.04907 0.5 6.99341 0.681702 6.04462 1.04511C5.09584 1.40851 4.27997 1.93058 3.59706 2.61132C2.91414 3.28695 2.38761 4.09565 2.01748 5.03743C1.65256 5.97921 1.4701 7.02591 1.4701 8.17754C1.4701 8.32086 1.47271 8.45138 1.47792 8.5691C1.48313 8.68682 1.49095 8.79942 1.50138 8.90691L0.414443 10.8186C0.138148 11.3049 0 11.7732 0 12.2236C0 12.6484 0.127721 13.0195 0.383164 13.3369C0.64382 13.6542 1.00613 13.8615 1.4701 13.9587V15.6939C1.4701 16.4207 1.69687 16.9555 2.15041 17.2985C2.60396 17.6414 3.16697 17.777 3.83947 17.7054L5.43469 17.5365L4.87948 16.9607V17.5979C4.87948 18.2019 5.07498 18.7188 5.46597 19.1488C5.86216 19.5838 6.43039 19.9165 7.17066 20.1468C7.91092 20.3823 8.79715 20.5 9.82935 20.5ZM9.82935 19.2639C9.04738 19.2639 8.37489 19.1871 7.81187 19.0336C7.24886 18.88 6.81617 18.6599 6.5138 18.3733C6.21666 18.0867 6.06808 17.7463 6.06808 17.3522V16.3772C6.06808 16.3209 6.05244 16.2799 6.02116 16.2543C5.98989 16.2338 5.94818 16.2262 5.89605 16.2313L3.67525 16.477C3.37289 16.5077 3.1383 16.4539 2.97148 16.3157C2.80987 16.1775 2.72907 15.9395 2.72907 15.6017V13.0528C2.72907 13.0118 2.71343 12.9811 2.68215 12.9607C2.65609 12.9351 2.6196 12.9223 2.57268 12.9223H2.15823C1.87673 12.9223 1.65777 12.8583 1.50138 12.7303C1.3502 12.6024 1.27461 12.4258 1.27461 12.2006C1.27461 11.96 1.35281 11.7041 1.5092 11.4328L2.79945 9.16027C2.77338 8.99136 2.75253 8.82502 2.73689 8.66123C2.72646 8.49232 2.72125 8.32598 2.72125 8.16219C2.72125 6.87236 2.98973 5.74632 3.52668 4.78407C4.06884 3.82182 4.82736 3.07454 5.80221 2.54223C6.77707 2.0048 7.91353 1.73608 9.2116 1.73608C10.5149 1.73608 11.6565 2.01248 12.6366 2.56526C13.6167 3.11292 14.3778 3.88324 14.92 4.8762C15.4673 5.86916 15.741 7.02847 15.741 8.35413C15.741 9.30614 15.5481 10.1763 15.1624 10.9645C14.7818 11.7476 14.2579 12.349 13.5906 12.7687V17.3522C13.5906 17.7463 13.4394 18.0867 13.1371 18.3733C12.8347 18.6599 12.402 18.88 11.839 19.0336C11.2812 19.1871 10.6113 19.2639 9.82935 19.2639ZM4.00368 6.87236C4.00368 7.61452 4.24088 8.21337 4.71527 8.66891C5.19488 9.12444 5.82307 9.35221 6.59982 9.35221C7.36615 9.35221 7.98391 9.14747 8.45309 8.738C8.92748 8.32853 9.16468 7.79111 9.16468 7.12572C9.16468 6.84933 9.11515 6.59853 9.0161 6.37332C8.92227 6.14811 8.78673 5.96129 8.60948 5.81286C8.46351 5.69514 8.32536 5.63628 8.19504 5.63628C8.08035 5.63628 7.98391 5.66955 7.90571 5.73608C7.83273 5.80262 7.79623 5.88964 7.79623 5.99712C7.79623 6.11484 7.82751 6.20441 7.89007 6.26583C7.95784 6.32214 8.03082 6.38612 8.10902 6.45777C8.27584 6.61644 8.35925 6.83397 8.35925 7.11036C8.35925 7.54543 8.19764 7.89603 7.87443 8.16219C7.55643 8.42322 7.13417 8.55374 6.60764 8.55374C6.07069 8.55374 5.638 8.40019 5.30957 8.09309C4.98115 7.78599 4.81693 7.37908 4.81693 6.87236C4.81693 6.56526 4.89512 6.27863 5.05152 6.01248C5.20791 5.74632 5.41905 5.53903 5.68492 5.39059L5.2783 4.67658C4.89252 4.90179 4.58234 5.21401 4.34775 5.61324C4.11837 6.00736 4.00368 6.42706 4.00368 6.87236ZM5.0828 4.81478C5.0828 5.29079 5.2392 5.67722 5.55198 5.97409C5.86477 6.26583 6.274 6.41171 6.77967 6.41171C6.88394 6.41171 6.97777 6.37332 7.06118 6.29655C7.14459 6.21465 7.1863 6.11996 7.1863 6.01248C7.1863 5.90499 7.14459 5.81286 7.06118 5.73608C6.98299 5.65419 6.88915 5.61324 6.77967 5.61324C6.5138 5.61324 6.30007 5.54159 6.13846 5.39827C5.97685 5.24984 5.89605 5.05534 5.89605 4.81478C5.89605 4.55886 5.99249 4.34901 6.18538 4.18522C6.37826 4.02143 6.62328 3.93954 6.92043 3.93954C7.25407 3.93954 7.55904 4.04447 7.83533 4.25432L8.31233 3.60173C7.89528 3.29463 7.43392 3.14107 6.92825 3.14107C6.40172 3.14107 5.96121 3.29974 5.60672 3.61708C5.25744 3.93442 5.0828 4.33365 5.0828 4.81478ZM7.2254 4.70729C7.2254 4.83013 7.26189 4.9325 7.33487 5.0144C7.40786 5.09117 7.5069 5.12956 7.63202 5.12956C7.74671 5.12956 7.84054 5.09373 7.91353 5.02207C7.99172 4.95042 8.03082 4.85573 8.03082 4.738C8.05168 4.37972 8.1794 4.08797 8.41399 3.86276C8.65379 3.63244 8.95615 3.51472 9.32107 3.5096C9.53481 3.5096 9.7303 3.56334 9.90755 3.67083C10.0848 3.77319 10.2099 3.91139 10.2829 4.08541C10.335 4.17754 10.4575 4.20058 10.6504 4.15451C10.6973 4.13916 10.7469 4.12892 10.799 4.1238C10.8511 4.11868 10.9059 4.11612 10.9632 4.11612C11.3281 4.11612 11.6357 4.24152 11.8859 4.49232C12.1414 4.738 12.2691 5.04766 12.2691 5.42131C12.2691 5.77959 12.1779 6.06878 11.9954 6.28887C11.8182 6.50896 11.5966 6.69834 11.3307 6.85701C11.0649 7.01056 10.799 7.16667 10.5331 7.32534C10.2673 7.484 10.0431 7.68106 9.86063 7.91651C9.67817 8.14683 9.58694 8.45393 9.58694 8.83781C9.58694 9.26775 9.74594 9.62348 10.0639 9.90499C10.3872 10.1814 10.799 10.3196 11.2995 10.3196C11.3307 10.3196 11.3646 10.3196 11.4011 10.3196C11.4428 10.3196 11.4845 10.3196 11.5262 10.3196C11.594 10.7137 11.7452 11.0336 11.9798 11.2793C12.2144 11.5198 12.4933 11.6401 12.8165 11.6401C13.2804 11.6401 13.6584 11.4072 13.9503 10.9415C14.2475 10.4757 14.396 9.88452 14.396 9.16795C14.396 8.88644 14.3882 8.64843 14.3726 8.45393C14.3569 8.25432 14.3413 8.06494 14.3257 7.8858L13.4968 8.11612C13.5176 8.29015 13.5359 8.45905 13.5515 8.62284C13.5724 8.78151 13.5828 8.95809 13.5828 9.15259C13.5828 9.62348 13.5072 10.0227 13.356 10.3503C13.2048 10.6779 13.025 10.8417 12.8165 10.8417C12.634 10.8417 12.4854 10.7418 12.3707 10.5422C12.2613 10.3375 12.2065 10.0739 12.2065 9.75144C12.2065 9.64395 12.1466 9.59021 12.0267 9.59021C11.9641 9.59021 11.899 9.59277 11.8312 9.59789C11.7634 9.59789 11.7061 9.59789 11.6592 9.59789C11.2421 9.59789 10.9293 9.53391 10.7208 9.40595C10.5123 9.27287 10.408 9.08093 10.408 8.83013C10.408 8.54862 10.4966 8.32598 10.6739 8.16219C10.8563 7.9984 11.0805 7.84997 11.3464 7.71689C11.6122 7.58381 11.8781 7.43282 12.144 7.26392C12.4151 7.08989 12.6392 6.85956 12.8165 6.57294C12.9989 6.28631 13.0902 5.90243 13.0902 5.42131C13.0902 5.02207 12.9989 4.66379 12.8165 4.34645C12.6392 4.02399 12.3942 3.77063 12.0814 3.58637C11.7738 3.40211 11.4272 3.30998 11.0414 3.30998C10.9997 3.30998 10.9528 3.31254 10.9006 3.31766C10.8537 3.32278 10.8042 3.33045 10.7521 3.34069C10.58 3.14619 10.3689 2.9952 10.1187 2.88772C9.86845 2.77511 9.60258 2.71881 9.32107 2.71881C8.73199 2.71881 8.24195 2.90563 7.85097 3.27927C7.45999 3.64779 7.25146 4.1238 7.2254 4.70729ZM11.9798 8.57678C11.9798 8.68426 12.0163 8.77639 12.0892 8.85317C12.1622 8.92994 12.2561 8.97345 12.3707 8.98368C13.0849 9.02463 13.661 8.85573 14.0989 8.47697C14.542 8.09309 14.7636 7.57102 14.7636 6.91075C14.7636 6.34773 14.5707 5.87172 14.1849 5.48273C13.8044 5.09373 13.3065 4.87108 12.6914 4.81478L12.5662 5.62092C12.9833 5.60045 13.3169 5.71049 13.5672 5.95106C13.8226 6.1865 13.9503 6.5064 13.9503 6.91075C13.9503 7.32534 13.807 7.65035 13.5202 7.8858C13.2387 8.12124 12.8608 8.22105 12.3864 8.18522C12.2769 8.17498 12.1805 8.21081 12.0971 8.29271C12.0189 8.3746 11.9798 8.46929 11.9798 8.57678ZM10.0248 9.01439C9.90494 9.06046 9.7694 9.09629 9.61822 9.12188C9.47225 9.14747 9.32628 9.16027 9.18032 9.16027C8.8154 9.16027 8.47915 9.09373 8.17158 8.96065C7.86922 8.82246 7.67112 8.64843 7.57728 8.43858L6.89697 8.99136C7.12113 9.29335 7.42871 9.53135 7.81969 9.70537C8.21589 9.87428 8.64858 9.95873 9.11776 9.95873C9.30543 9.95873 9.50092 9.94338 9.70424 9.91267C9.90755 9.88196 10.103 9.83589 10.2907 9.77447L10.0248 9.01439ZM8.56256 6.25048L8.82843 7.01823C9.36017 6.93122 9.76419 6.73161 10.0405 6.41939C10.3168 6.10717 10.4549 5.69258 10.4549 5.17562C10.4549 5.07326 10.4132 4.98113 10.3298 4.89923C10.2464 4.81734 10.15 4.77639 10.0405 4.77639C9.93101 4.77639 9.83717 4.81734 9.75897 4.89923C9.68078 4.97601 9.64168 5.0707 9.64168 5.1833C9.64168 5.52111 9.55566 5.77447 9.38363 5.94338C9.2116 6.11228 8.93791 6.21465 8.56256 6.25048Z"
		fill="currentColor"
	/>
</svg>
