<svg color="rgb(var(--foreground, 0, 0, 0))" viewBox="0 0 12 17" fill="none">
	<path
		d="M0 13.3959C0 14.1295 0.140625 14.7647 0.421875 15.3016C0.703125 15.8438 1.10156 16.2611 1.61719 16.5535C2.13281 16.8512 2.74219 17 3.44531 17C4.23177 17 4.91667 16.8246 5.50001 16.4737C6.08334 16.1282 6.5573 15.6179 6.92188 14.9428L7.62501 13.659C7.90105 13.1434 8.19792 12.6942 8.51563 12.3114C8.83855 11.9234 9.16407 11.5672 9.4922 11.243C9.82032 10.9187 10.1328 10.5971 10.4297 10.2781C10.7318 9.95388 11 9.60569 11.2344 9.23358C11.4687 8.86148 11.6536 8.43355 11.7891 7.94981C11.9297 7.46076 12 6.88665 12 6.22749C12 4.98358 11.7526 3.8965 11.2578 2.96623C10.7682 2.03064 10.0781 1.30238 9.18751 0.781426C8.30209 0.260475 7.26824 0 6.08595 0C4.8724 0 3.80729 0.263133 2.89062 0.7894C1.97917 1.31035 1.26823 2.04128 0.757812 2.98218C0.252604 3.91776 0 5.01016 0 6.25938V13.3959ZM2.28125 11.1871C2.28125 10.8788 2.33594 10.6316 2.44531 10.4456C2.5599 10.2595 2.69792 10.108 2.85938 9.99109C3.02604 9.87414 3.19271 9.77048 3.35938 9.68011C3.52604 9.58974 3.66406 9.4914 3.77344 9.38508C3.88802 9.27345 3.94531 9.12992 3.94531 8.9545C3.94531 8.75782 3.85938 8.56379 3.6875 8.37242C3.52083 8.18105 3.32812 7.97108 3.10938 7.7425C2.89062 7.51391 2.69792 7.24547 2.53125 6.93715C2.36458 6.62351 2.28125 6.24343 2.28125 5.7969C2.28125 5.11648 2.4401 4.51579 2.75781 3.99484C3.07552 3.46857 3.51823 3.0566 4.08594 2.75891C4.65365 2.45591 5.31511 2.30441 6.07032 2.30441C6.83074 2.30441 7.4948 2.46654 8.06251 2.79081C8.63022 3.11507 9.07292 3.56692 9.39063 4.14634C9.70834 4.72577 9.86718 5.40088 9.86718 6.17167C9.86718 6.34709 9.80468 6.49593 9.67968 6.6182C9.55989 6.74046 9.41667 6.80159 9.25001 6.80159C9.08855 6.80159 8.94532 6.74046 8.82032 6.6182C8.70053 6.49593 8.64063 6.34709 8.64063 6.17167C8.64063 5.38493 8.40626 4.75235 7.93751 4.27392C7.47397 3.7955 6.85157 3.55629 6.07032 3.55629C5.5599 3.55629 5.11199 3.65463 4.72657 3.85131C4.34115 4.04268 4.04167 4.30847 3.82812 4.64869C3.61458 4.98358 3.50781 5.36632 3.50781 5.7969C3.50781 6.12648 3.58854 6.41886 3.75 6.67402C3.91146 6.92386 4.11199 7.16307 4.35157 7.39165C4.59115 7.62023 4.82813 7.8621 5.06251 8.11726C5.30209 8.37242 5.50261 8.67011 5.66407 9.01032C5.82553 9.34522 5.90626 9.74922 5.90626 10.2223C5.90626 10.6635 5.82032 11.0649 5.64845 11.4264C5.47657 11.7878 5.23699 12.0749 4.9297 12.2875C4.62761 12.5002 4.27344 12.6091 3.86719 12.6144C3.39323 12.6144 3.01042 12.4842 2.71875 12.2237C2.42708 11.9633 2.28125 11.6177 2.28125 11.1871Z"
		fill="currentColor"
	/>
</svg>
