<svg color="rgb(var(--foreground, 0, 0, 0))" viewBox="0 0 12 17" fill="none">
	<path
		d="M0 13.3959C0 14.1295 0.140625 14.7647 0.421875 15.3016C0.708333 15.8438 1.10938 16.2611 1.625 16.5535C2.14062 16.8512 2.7474 17 3.44531 17C4.23177 17 4.91667 16.8246 5.5 16.4737C6.08333 16.1282 6.5599 15.6179 6.92969 14.9428L7.63281 13.659C7.90365 13.1434 8.19792 12.6942 8.51562 12.3114C8.83854 11.9234 9.16406 11.5672 9.49219 11.243C9.82031 10.9187 10.1328 10.5971 10.4297 10.2781C10.7318 9.95388 11 9.60569 11.2344 9.23358C11.4688 8.86148 11.6536 8.43355 11.7891 7.94981C11.9297 7.46076 12 6.88665 12 6.22749C12 4.98358 11.7526 3.8965 11.2578 2.96623C10.7682 2.03064 10.0781 1.30238 9.1875 0.781426C8.30208 0.260475 7.26823 0 6.08594 0C4.8724 0 3.8099 0.263133 2.89844 0.7894C1.98698 1.31035 1.27604 2.04128 0.765625 2.98218C0.255208 3.91776 0 5.01016 0 6.25938V13.3959ZM1.17969 13.3161V6.25938C1.17969 5.24406 1.38281 4.35897 1.78906 3.60413C2.20052 2.84396 2.77344 2.25391 3.50781 1.83396C4.2474 1.41401 5.10677 1.20403 6.08594 1.20403C7.03385 1.20403 7.86198 1.41401 8.57031 1.83396C9.28385 2.25391 9.83594 2.84131 10.2266 3.59615C10.6224 4.351 10.8203 5.22811 10.8203 6.22749C10.8203 6.78033 10.7552 7.26673 10.625 7.68668C10.5 8.10131 10.3255 8.47874 10.1016 8.81895C9.87761 9.15916 9.6224 9.48343 9.33594 9.79174C9.04948 10.0947 8.7474 10.4084 8.42969 10.7326C8.11719 11.0516 7.80208 11.4051 7.48438 11.7932C7.16667 12.1759 6.86458 12.6171 6.57812 13.1168L5.89844 14.3049C5.6224 14.7992 5.28646 15.166 4.89062 15.4053C4.5 15.6445 4.03646 15.7641 3.5 15.7641C2.78125 15.7641 2.21354 15.5461 1.79688 15.1102C1.38542 14.6743 1.17969 14.0763 1.17969 13.3161ZM2.40625 11.0755C2.40625 11.4901 2.54427 11.825 2.82031 12.0802C3.10156 12.3301 3.47135 12.455 3.92969 12.455C4.51823 12.4497 4.99479 12.2237 5.35938 11.7772C5.72917 11.3307 5.91406 10.7858 5.91406 10.1426C5.91406 9.68543 5.83333 9.29471 5.67188 8.97045C5.51562 8.64087 5.32292 8.35116 5.09375 8.10131C4.86458 7.85147 4.63281 7.61757 4.39844 7.39962C4.16927 7.17636 3.97656 6.94246 3.82031 6.69794C3.66406 6.45341 3.58594 6.16901 3.58594 5.84475C3.58594 5.4248 3.6901 5.05269 3.89844 4.72842C4.10677 4.39884 4.39583 4.14103 4.76562 3.95497C5.14062 3.7636 5.57812 3.66792 6.07812 3.66792C6.83333 3.66792 7.4375 3.89916 7.89062 4.36163C8.34375 4.82411 8.57031 5.44074 8.57031 6.21154C8.57031 6.37633 8.6276 6.51986 8.74219 6.64212C8.86198 6.75907 9 6.81754 9.15625 6.81754C9.31771 6.81754 9.45573 6.75907 9.57031 6.64212C9.6901 6.51986 9.75 6.37633 9.75 6.21154C9.75 5.46201 9.59635 4.80816 9.28906 4.25C8.98177 3.68652 8.55208 3.24797 8 2.93433C7.45312 2.6207 6.8125 2.46388 6.07812 2.46388C5.34375 2.46388 4.70052 2.61007 4.14844 2.90244C3.60156 3.18949 3.17448 3.58818 2.86719 4.0985C2.5599 4.6035 2.40625 5.18558 2.40625 5.84475C2.40625 6.27533 2.48698 6.64478 2.64844 6.9531C2.8099 7.2561 2.99479 7.51923 3.20312 7.7425C3.41667 7.96044 3.60417 8.16245 3.76562 8.3485C3.92708 8.53455 4.00781 8.72326 4.00781 8.91463C4.00781 9.08474 3.95312 9.22295 3.84375 9.32927C3.73438 9.43559 3.59896 9.53393 3.4375 9.6243C3.28125 9.70935 3.1224 9.80769 2.96094 9.91932C2.80469 10.031 2.67188 10.1771 2.5625 10.3579C2.45833 10.5386 2.40625 10.7778 2.40625 11.0755Z"
		fill="currentColor"
	/>
</svg>
