<svg color="rgb(var(--foreground, 0, 0, 0))" viewBox="0 0 20 11" fill="none">
	<path
		d="M0.543016 5.15936C1.47378 6.287 2.41494 7.24759 3.3665 8.04111C4.32326 8.83464 5.33982 9.44283 6.41618 9.8657C7.49773 10.2886 8.69108 10.5 9.99623 10.5C11.3066 10.5 12.4999 10.2886 13.5763 9.8657C14.6578 9.44283 15.6744 8.83464 16.6259 8.04111C17.5827 7.24759 18.5265 6.287 19.4572 5.15936C19.764 4.78348 19.9408 4.40499 19.9876 4.02388C20.0344 3.64278 19.9486 3.31389 19.7302 3.0372C19.517 2.76051 19.166 2.59345 18.6773 2.53602C18.2249 2.48382 17.8219 2.38202 17.4683 2.23062C17.1199 2.07922 16.7949 1.90694 16.4934 1.71378C16.1918 1.5154 15.885 1.32485 15.573 1.14213C15.2662 0.95419 14.9308 0.800183 14.5668 0.68011C14.2028 0.560037 13.7817 0.5 13.3033 0.5C12.8353 0.5 12.4141 0.570478 12.0397 0.711433C11.6706 0.852388 11.3482 1.01684 11.0726 1.20478C10.797 1.3875 10.5682 1.54933 10.3862 1.69029C10.2094 1.83125 10.0794 1.90172 9.99623 1.90172C9.91824 1.90172 9.78824 1.83125 9.60625 1.69029C9.42946 1.54933 9.20327 1.3875 8.92768 1.20478C8.65209 1.01684 8.3271 0.852388 7.95272 0.711433C7.58353 0.570478 7.16495 0.5 6.69697 0.5C6.21859 0.5 5.7974 0.560037 5.43342 0.68011C5.06943 0.800183 4.73145 0.95419 4.41946 1.14213C4.11267 1.32485 3.80588 1.5154 3.4991 1.71378C3.19751 1.90694 2.87252 2.07922 2.52414 2.23062C2.17575 2.38202 1.77537 2.48382 1.32298 2.53602C0.834204 2.59345 0.480617 2.76051 0.262225 3.0372C0.049034 3.31389 -0.0341626 3.64278 0.0126355 4.02388C0.0594336 4.40499 0.236228 4.78348 0.543016 5.15936ZM1.19039 4.36061C1.05 4.19877 0.997997 4.04216 1.0344 3.89076C1.07079 3.73936 1.19299 3.64539 1.40098 3.60885L1.99376 3.49139C2.58653 3.38175 3.09871 3.23036 3.53029 3.0372C3.96708 2.83881 4.35966 2.63782 4.70805 2.43422C5.05643 2.23062 5.39442 2.05834 5.72201 1.91738C6.04959 1.77643 6.40058 1.70595 6.77496 1.70595C7.17015 1.70595 7.51853 1.78948 7.82012 1.95654C8.12171 2.11838 8.4077 2.29588 8.67809 2.48904C8.93808 2.67698 9.16687 2.82837 9.36446 2.94323C9.56725 3.05286 9.77784 3.10767 9.99623 3.10767C10.2198 3.10767 10.4304 3.05286 10.628 2.94323C10.8308 2.82837 11.0622 2.67698 11.3222 2.48904C11.5926 2.29588 11.876 2.11838 12.1723 1.95654C12.4739 1.78948 12.8249 1.70595 13.2253 1.70595C13.5997 1.70595 13.9507 1.77643 14.2782 1.91738C14.6058 2.05834 14.9438 2.23062 15.2922 2.43422C15.6406 2.63782 16.0306 2.83881 16.4622 3.0372C16.8989 3.23036 17.4137 3.38175 18.0065 3.49139L18.5993 3.60885C18.8073 3.64539 18.9295 3.73936 18.9659 3.89076C19.0023 4.04216 18.9503 4.19877 18.8099 4.36061C18.3731 4.82002 17.9129 5.28465 17.4293 5.7545C16.9457 6.21913 16.431 6.66288 15.885 7.08575C15.3442 7.50861 14.7696 7.8871 14.1612 8.22122C13.5529 8.55012 12.9029 8.81115 12.2113 9.00431C11.5198 9.19747 10.7814 9.29405 9.99623 9.29405C9.21626 9.29405 8.48049 9.19747 7.78892 9.00431C7.09735 8.81115 6.44738 8.55012 5.839 8.22122C5.23063 7.8871 4.65345 7.50861 4.10747 7.08575C3.56669 6.66288 3.05451 6.21913 2.57093 5.7545C2.08735 5.28465 1.62717 4.82002 1.19039 4.36061ZM9.99623 6.23218C10.2666 6.23218 10.4928 6.18781 10.6748 6.09906C10.862 6.01031 11.0466 5.90851 11.2286 5.79366C11.4106 5.67358 11.629 5.56917 11.8838 5.48042C12.1385 5.39167 12.4687 5.3473 12.8743 5.3473C13.2799 5.35252 13.7115 5.38123 14.169 5.43344C14.6266 5.48042 15.1102 5.49608 15.6198 5.48042C16.1294 5.46476 16.6701 5.36557 17.2421 5.18285C17.8141 4.99491 18.4173 4.6634 19.0517 4.18833C19.192 4.08392 19.2622 3.98212 19.2622 3.88293C19.2674 3.77852 19.2284 3.70282 19.1452 3.65583C19.062 3.60363 18.9581 3.60624 18.8333 3.66366C18.2977 3.94558 17.7517 4.14135 17.1953 4.25098C16.6441 4.36061 16.0956 4.41543 15.5496 4.41543C15.0088 4.41021 14.4862 4.38149 13.9819 4.32929C13.7791 4.30318 13.5789 4.27969 13.3813 4.25881C13.1837 4.23271 12.9887 4.21966 12.7963 4.21966C12.1931 4.21966 11.7148 4.30318 11.3612 4.47024C11.0076 4.63208 10.7216 4.77565 10.5032 4.90094C10.3628 4.98447 10.2588 5.03929 10.1912 5.06539C10.1236 5.09149 10.0586 5.10454 9.99623 5.10454C9.93903 5.10454 9.87664 5.09149 9.80904 5.06539C9.74144 5.03929 9.63485 4.98447 9.48925 4.90094C9.27606 4.77565 8.99267 4.63208 8.63909 4.47024C8.2855 4.30318 7.80712 4.21966 7.20395 4.21966C7.01155 4.21966 6.81916 4.23271 6.62677 4.25881C6.43438 4.27969 6.23938 4.30057 6.04179 4.32146C5.53221 4.37888 5.00444 4.4076 4.45846 4.4076C3.91768 4.4076 3.3665 4.35278 2.80492 4.24315C2.24855 4.13352 1.70257 3.94036 1.16699 3.66366C1.0422 3.60624 0.9382 3.60363 0.855003 3.65583C0.771807 3.70282 0.730208 3.77852 0.730208 3.88293C0.735408 3.98212 0.808205 4.08392 0.948599 4.18833C1.58297 4.65818 2.18615 4.98708 2.75813 5.17502C3.3301 5.36296 3.87088 5.46476 4.38046 5.48042C4.89004 5.49608 5.37362 5.48042 5.8312 5.43344C6.28878 5.38123 6.72037 5.35252 7.12595 5.3473C7.53153 5.3473 7.86172 5.39167 8.11651 5.48042C8.3713 5.56917 8.58969 5.67358 8.77168 5.79366C8.95368 5.90851 9.13567 6.01031 9.31766 6.09906C9.50485 6.18781 9.73104 6.23218 9.99623 6.23218Z"
		fill="currentColor"
	/>
</svg>
