<svg color="rgb(var(--foreground, 0, 0, 0))" viewBox="0 0 20 11" fill="none">
	<path
		d="M0.439925 4.72257C1.43235 5.96961 2.41952 7.0246 3.40156 7.88753C4.3836 8.7452 5.4098 9.39503 6.48017 9.83702C7.55573 10.279 8.73003 10.5 10.003 10.5C11.2709 10.5 12.4425 10.279 13.5181 9.83702C14.5937 9.39503 15.6225 8.7452 16.6045 7.88753C17.5865 7.0246 18.5712 5.96961 19.5584 4.72257C19.8286 4.38582 19.9741 4.06748 19.9949 3.76756C20.0209 3.46764 19.9481 3.22034 19.7766 3.02565C19.6104 2.8257 19.374 2.70731 19.0674 2.67048C18.5062 2.60208 18.0152 2.48632 17.5943 2.3232C17.1735 2.15483 16.7916 1.96803 16.4486 1.76283C16.1057 1.55762 15.7732 1.3603 15.451 1.17088C15.1289 0.976191 14.7885 0.815706 14.43 0.689424C14.0715 0.563141 13.661 0.5 13.1986 0.5C12.7465 0.5 12.3386 0.573665 11.9749 0.720994C11.6112 0.868324 11.2942 1.03933 11.024 1.23402C10.7591 1.42344 10.5408 1.59182 10.3694 1.73915C10.1979 1.88122 10.0758 1.95225 10.003 1.95225C9.9303 1.95225 9.80819 1.88122 9.63673 1.73915C9.46526 1.59182 9.24443 1.42344 8.97424 1.23402C8.70925 1.03933 8.39488 0.868324 8.03116 0.720994C7.66744 0.573665 7.25696 0.5 6.79972 0.5C6.33728 0.5 5.9268 0.563141 5.56827 0.689424C5.20975 0.815706 4.86942 0.976191 4.54727 1.17088C4.22512 1.3603 3.89258 1.55762 3.54964 1.76283C3.21191 1.96803 2.8326 2.15483 2.41173 2.3232C1.99086 2.48632 1.4973 2.60208 0.930943 2.67048C0.624381 2.70731 0.387965 2.8257 0.221694 3.02565C0.0554236 3.22034 -0.0173199 3.46764 0.00346397 3.76756C0.0294438 4.06748 0.174931 4.38582 0.439925 4.72257ZM2.22468 4.53315C2.08958 4.44896 2.0195 4.35688 2.0143 4.25691C2.0143 4.15167 2.05321 4.07011 2.13115 4.01223C2.20909 3.95435 2.31041 3.95435 2.43511 4.01223C2.79883 4.18587 3.17034 4.30426 3.54964 4.3674C3.93415 4.42528 4.33683 4.44633 4.7577 4.43054C5.17858 4.41476 5.62803 4.38056 6.10606 4.32794C6.29831 4.30163 6.49056 4.27795 6.68281 4.25691C6.87506 4.23586 7.06471 4.22534 7.25177 4.22534C7.84411 4.22534 8.31434 4.30689 8.66247 4.47001C9.0106 4.63312 9.29119 4.77782 9.50423 4.9041C9.64452 4.98303 9.74584 5.03565 9.80819 5.06196C9.87574 5.08827 9.94069 5.10142 10.003 5.10142C10.0654 5.10142 10.1277 5.08827 10.1901 5.06196C10.2576 5.03565 10.3616 4.98303 10.5019 4.9041C10.7149 4.77782 10.9929 4.63312 11.3358 4.47001C11.6839 4.30689 12.1542 4.22534 12.7465 4.22534C12.9388 4.22534 13.1284 4.23586 13.3155 4.25691C13.5077 4.27795 13.7026 4.30163 13.9 4.32794C14.3728 4.39634 14.8197 4.43844 15.2406 4.45422C15.6614 4.46475 16.0615 4.43844 16.4408 4.3753C16.8253 4.30689 17.202 4.18587 17.571 4.01223C17.6905 3.95435 17.7892 3.95435 17.8671 4.01223C17.9503 4.07011 17.9892 4.15167 17.984 4.25691C17.9788 4.35688 17.9087 4.44896 17.7736 4.53315C17.3267 4.81202 16.8695 5.00934 16.4019 5.1251C15.9394 5.24086 15.4926 5.30663 15.0613 5.32242C14.6352 5.3382 14.2481 5.33557 13.9 5.31452C13.5571 5.28821 13.2765 5.27243 13.0583 5.26717C12.6062 5.26717 12.2373 5.31715 11.9515 5.41713C11.6709 5.51184 11.4319 5.62234 11.2345 5.74862C11.0422 5.8749 10.8526 5.9854 10.6655 6.08011C10.4837 6.17482 10.2628 6.22218 10.003 6.22218C9.73805 6.22218 9.51202 6.17482 9.32497 6.08011C9.14311 5.9854 8.95344 5.8749 8.756 5.74862C8.56375 5.62234 8.32733 5.51184 8.04675 5.41713C7.76617 5.31715 7.39725 5.26717 6.94001 5.26717C6.72697 5.27243 6.44639 5.28821 6.09826 5.31452C5.75013 5.34083 5.36044 5.34609 4.92917 5.33031C4.5031 5.31452 4.05885 5.24875 3.59641 5.13299C3.13397 5.01723 2.67672 4.81729 2.22468 4.53315Z"
		fill="currentColor"
	/>
</svg>
