<svg color="rgb(var(--foreground, 0, 0, 0))" viewBox="0 0 22 17" fill="none">
	<path
		d="M3.00096 16.4222L6.34765 15.7694C7.22379 15.5953 7.86308 15.2573 8.26549 14.7555C8.67301 14.2537 8.87676 13.5317 8.87676 12.5895V3.2958C8.87676 2.73766 8.75451 2.24865 8.51 1.82877C8.27059 1.40889 7.93185 1.08374 7.49377 0.853315C7.06079 0.617772 6.55395 0.5 5.97324 0.5C5.23463 0.5 4.57497 0.740664 3.99427 1.22199C3.41866 1.70332 3.02643 2.33826 2.81758 3.12682L0.135651 13.3499C-0.047729 14.0617 -0.0451821 14.671 0.143292 15.1779C0.33686 15.69 0.680697 16.0587 1.1748 16.284C1.66891 16.5144 2.27763 16.5605 3.00096 16.4222ZM7.64659 3.2958V12.5895C7.64659 13.2347 7.53707 13.6956 7.31803 13.9721C7.09899 14.2435 6.69658 14.4355 6.11078 14.5481L2.74882 15.201C2.41771 15.2676 2.12736 15.2445 1.87776 15.1319C1.63325 15.0243 1.45751 14.84 1.35054 14.5788C1.24867 14.3177 1.24867 13.9977 1.35054 13.6188L4.01719 3.44173C4.15473 2.92968 4.40178 2.51748 4.75835 2.20513C5.12002 1.89278 5.52498 1.7366 5.97324 1.7366C6.47245 1.7366 6.87486 1.87998 7.1805 2.16673C7.49122 2.45348 7.64659 2.82983 7.64659 3.2958ZM19.0009 16.4222C19.7242 16.5605 20.3329 16.5144 20.827 16.284C21.3211 16.0587 21.6624 15.69 21.8509 15.1779C22.0445 14.671 22.0496 14.0617 21.8662 13.3499L19.1843 3.12682C18.9754 2.33826 18.5806 1.70332 17.9999 1.22199C17.4243 0.740664 16.7672 0.5 16.0286 0.5C15.4479 0.5 14.9385 0.617772 14.5004 0.853315C14.0674 1.08374 13.7312 1.40889 13.4918 1.82877C13.2524 2.24865 13.1327 2.73766 13.1327 3.2958V12.5895C13.1327 13.5317 13.3339 14.2537 13.7363 14.7555C14.1387 15.2573 14.7806 15.5953 15.6618 15.7694L19.0009 16.4222ZM14.3629 3.2958C14.3629 2.82983 14.5157 2.45348 14.8213 2.16673C15.1321 1.87998 15.5345 1.7366 16.0286 1.7366C16.4819 1.7366 16.8869 1.89278 17.2435 2.20513C17.6051 2.51748 17.8522 2.92968 17.9846 3.44173L20.6589 13.6188C20.7557 13.9977 20.7506 14.3177 20.6437 14.5788C20.5418 14.84 20.366 15.0243 20.1164 15.1319C19.8719 15.2445 19.5841 15.2676 19.253 15.201L15.891 14.5481C15.3052 14.4355 14.9028 14.2435 14.6838 13.9721C14.4698 13.6956 14.3629 13.2347 14.3629 12.5895V3.2958ZM8.87676 11.6141V10.3544L7.7994 10.5848L5.1786 8.20381C5.05634 8.09628 4.90607 8.04507 4.72779 8.0502C4.55459 8.05532 4.41451 8.11932 4.30754 8.24221C4.19548 8.37023 4.14454 8.52128 4.15473 8.69538C4.16491 8.86948 4.23113 9.01029 4.35339 9.11782L6.33236 10.8921L3.9255 11.4144C3.7625 11.4451 3.63261 11.5321 3.53582 11.6755C3.44413 11.8189 3.41611 11.9725 3.45177 12.1364C3.48234 12.3002 3.57148 12.4282 3.7192 12.5204C3.86692 12.6126 4.01974 12.6433 4.17765 12.6126L8.87676 11.6141ZM13.1327 10.3544V11.6141L17.8318 12.6126C17.9897 12.6433 18.1426 12.6126 18.2903 12.5204C18.438 12.4282 18.5297 12.3002 18.5653 12.1364C18.5959 11.9725 18.5628 11.8189 18.466 11.6755C18.3743 11.5321 18.2495 11.4451 18.0916 11.4144L15.6847 10.8921L17.6561 9.11782C17.7783 9.01029 17.8446 8.86948 17.8547 8.69538C17.87 8.52128 17.8191 8.37023 17.7019 8.24221C17.595 8.11932 17.4523 8.05532 17.274 8.0502C17.1008 8.04507 16.9557 8.09628 16.8385 8.20381L14.2101 10.5848L13.1327 10.3544ZM13.1327 11.6141V10.3544L11.6198 10.0242V1.51386C11.6198 1.34488 11.5587 1.19895 11.4364 1.07606C11.3193 0.953165 11.1767 0.891719 11.0086 0.891719C10.8405 0.891719 10.6953 0.953165 10.573 1.07606C10.4508 1.19895 10.3896 1.34488 10.3896 1.51386V10.0242L8.87676 10.3544V11.6141L11.0086 11.1532L13.1327 11.6141Z"
		fill="currentColor"
	/>
</svg>
