<svg color="rgb(var(--foreground, 0, 0, 0))" viewBox="0 0 22 17" fill="none">
	<path
		d="M2.95269 16.422L6.25683 15.7942C7.13043 15.632 7.76553 15.3103 8.16214 14.829C8.55874 14.3477 8.75704 13.6545 8.75704 12.7495V3.18375C8.75704 2.6449 8.63645 2.17407 8.39527 1.77125C8.15946 1.36842 7.82717 1.05715 7.3984 0.83743C6.96964 0.612477 6.46853 0.5 5.89506 0.5C5.16617 0.5 4.51231 0.732801 3.93348 1.1984C3.36001 1.65877 2.97681 2.26824 2.78387 3.0268L0.122869 13.4793C-0.0486356 14.1594 -0.0405963 14.7427 0.146987 15.2292C0.33457 15.721 0.669539 16.0767 1.1519 16.2964C1.63961 16.5162 2.23988 16.558 2.95269 16.422ZM19.0473 16.422C19.7601 16.558 20.3577 16.5162 20.8401 16.2964C21.3278 16.0767 21.6654 15.721 21.853 15.2292C22.0406 14.7427 22.0486 14.1594 21.8771 13.4793L19.2161 3.0268C19.0178 2.26824 18.6319 1.65877 18.0585 1.1984C17.485 0.732801 16.8338 0.5 16.1049 0.5C15.5315 0.5 15.0277 0.612477 14.5936 0.83743C14.1648 1.05715 13.8298 1.36842 13.5886 1.77125C13.3528 2.17407 13.2349 2.6449 13.2349 3.18375V12.7495C13.2349 13.6545 13.4332 14.3477 13.8298 14.829C14.2318 15.3103 14.8669 15.632 15.7351 15.7942L19.0473 16.422ZM3.81289 12.7024C3.64675 12.7338 3.48596 12.7024 3.33054 12.6082C3.17511 12.5141 3.08132 12.3833 3.04916 12.2159C3.01165 12.0485 3.04112 11.8915 3.1376 11.7451C3.23943 11.5986 3.37609 11.5096 3.5476 11.4782L6.07996 10.9446L3.9978 9.13193C3.86917 9.02207 3.7995 8.8782 3.78878 8.70033C3.77806 8.52246 3.83165 8.36814 3.94956 8.23735C4.06211 8.11179 4.2095 8.0464 4.39172 8.04117C4.5793 8.03594 4.73741 8.08825 4.86604 8.19811L7.6235 10.6307L8.75704 10.3953V11.6823L3.81289 12.7024ZM13.2349 11.6823V10.3953L14.3685 10.6307L17.134 8.19811C17.2572 8.08825 17.41 8.03594 17.5922 8.04117C17.7798 8.0464 17.9298 8.11179 18.0424 8.23735C18.1657 8.36814 18.2193 8.52246 18.2032 8.70033C18.1925 8.8782 18.1228 9.02207 17.9942 9.13193L15.92 10.9446L18.4524 11.4782C18.6185 11.5096 18.7499 11.5986 18.8463 11.7451C18.9482 11.8915 18.983 12.0485 18.9508 12.2159C18.9133 12.3833 18.8168 12.5141 18.6614 12.6082C18.506 12.7024 18.3452 12.7338 18.1791 12.7024L13.2349 11.6823ZM13.2349 10.3953V11.6823L11 11.2114L8.75704 11.6823V10.3953L10.3488 10.0579V1.36319C10.3488 1.19055 10.4131 1.04146 10.5418 0.915902C10.6704 0.790347 10.8231 0.727569 11 0.727569C11.1769 0.727569 11.3269 0.790347 11.4502 0.915902C11.5788 1.04146 11.6431 1.19055 11.6431 1.36319V10.0579L13.2349 10.3953Z"
		fill="currentColor"
	/>
</svg>
