<svg color="rgb(var(--foreground, 0, 0, 0))" viewBox="0 0 22 9" fill="none">
	<path
		d="M6.00494 8.5C7.05108 8.5 8.004 8.33877 8.8637 8.01631C9.72858 7.68874 10.4407 7.22041 11 6.61132C11.5593 7.22041 12.2688 7.68874 13.1285 8.01631C13.9934 8.33877 14.9489 8.5 15.9951 8.5C16.8392 8.5 17.6238 8.38228 18.3489 8.14683C19.0791 7.91139 19.7161 7.58381 20.2599 7.16411C20.8089 6.73928 21.2361 6.24792 21.5417 5.69002C21.8472 5.127 22 4.51791 22 3.86276C22 3.3151 21.8887 2.89028 21.666 2.58829C21.4484 2.28119 21.1377 2.12764 20.7338 2.12764C20.568 2.12764 20.4101 2.16347 20.2599 2.23512C20.1149 2.30678 19.9776 2.41171 19.8482 2.5499C19.7394 2.66763 19.6125 2.77255 19.4675 2.86468C19.3225 2.9517 19.1645 3.02079 18.9936 3.07198C18.8279 3.12316 18.6492 3.14875 18.4576 3.14875C18.0692 3.14875 17.7248 3.06174 17.4244 2.88772C17.1292 2.70857 16.8418 2.48848 16.5621 2.22745C16.2825 1.96129 15.9769 1.6977 15.6455 1.43666C15.3192 1.17051 14.9334 0.947857 14.488 0.768714C14.0426 0.589571 13.5014 0.5 12.8644 0.5C12.5071 0.5 12.1704 0.548624 11.8545 0.645873C11.5386 0.743122 11.2538 0.881318 11 1.06046C10.7462 0.881318 10.4614 0.743122 10.1455 0.645873C9.82957 0.548624 9.49294 0.5 9.13559 0.5C8.49859 0.5 7.95739 0.589571 7.51201 0.768714C7.06662 0.947857 6.6782 1.17051 6.34675 1.43666C6.02048 1.6977 5.71751 1.96129 5.43785 2.22745C5.15819 2.48848 4.86817 2.70857 4.5678 2.88772C4.2726 3.06174 3.93079 3.14875 3.54237 3.14875C3.35075 3.14875 3.16949 3.12316 2.99859 3.07198C2.83286 3.02079 2.6775 2.9517 2.53249 2.86468C2.38748 2.77255 2.26059 2.66763 2.15184 2.5499C2.02236 2.41171 1.88253 2.30678 1.73234 2.23512C1.58733 2.16347 1.43197 2.12764 1.26624 2.12764C0.862288 2.12764 0.548964 2.28119 0.326271 2.58829C0.108757 2.89028 0 3.3151 0 3.86276C0 4.51791 0.152778 5.127 0.458333 5.69002C0.763889 6.24792 1.18856 6.73928 1.73234 7.16411C2.28131 7.58381 2.91831 7.91139 3.64336 8.14683C4.37359 8.38228 5.16078 8.5 6.00494 8.5ZM6.00494 7.26392C5.33686 7.26392 4.71539 7.1769 4.14054 7.00288C3.56568 6.82885 3.06073 6.58573 2.62571 6.27351C2.19586 5.96129 1.85923 5.60045 1.61582 5.19098C1.37241 4.77639 1.25071 4.33109 1.25071 3.85509C1.25071 3.7476 1.28696 3.68618 1.35946 3.67083C1.43715 3.65547 1.50706 3.66827 1.56921 3.70921C1.80226 3.9293 2.09487 4.09821 2.44703 4.21593C2.7992 4.32853 3.16431 4.38484 3.54237 4.38484C3.99294 4.38484 4.39948 4.31318 4.76201 4.16987C5.12453 4.02655 5.45339 3.84741 5.74859 3.63244C6.04378 3.41747 6.31827 3.19994 6.57203 2.97985C6.83616 2.75976 7.09252 2.55502 7.3411 2.36564C7.59487 2.17626 7.86417 2.02527 8.14901 1.91267C8.43903 1.79495 8.76789 1.73608 9.13559 1.73608C9.50848 1.73608 9.83216 1.81286 10.1066 1.96641C10.3811 2.11484 10.5935 2.32214 10.7436 2.58829C10.8006 2.7009 10.8861 2.75976 11 2.76488C11.1139 2.76488 11.1968 2.70601 11.2486 2.58829C11.3988 2.32214 11.6111 2.11484 11.8856 1.96641C12.1653 1.81286 12.4915 1.73608 12.8644 1.73608C13.2321 1.73608 13.5584 1.79495 13.8432 1.91267C14.1332 2.02527 14.4025 2.17626 14.6511 2.36564C14.9049 2.55502 15.1638 2.75976 15.428 2.97985C15.6817 3.19994 15.9562 3.41747 16.2514 3.63244C16.5466 3.84741 16.8755 4.02655 17.238 4.16987C17.6005 4.31318 18.0071 4.38484 18.4576 4.38484C18.8357 4.38484 19.2008 4.32598 19.553 4.20825C19.9103 4.08541 20.2107 3.90883 20.4541 3.6785C20.5214 3.63244 20.5862 3.61708 20.6483 3.63244C20.7156 3.64779 20.7493 3.72201 20.7493 3.85509C20.7493 4.33109 20.6276 4.77639 20.3842 5.19098C20.1408 5.60045 19.8016 5.96129 19.3665 6.27351C18.9367 6.58573 18.4343 6.82885 17.8595 7.00288C17.2846 7.1769 16.6631 7.26392 15.9951 7.26392C14.8402 7.26392 13.851 7.0515 13.0275 6.62668C12.2093 6.19674 11.637 5.61068 11.3107 4.86852C11.2486 4.72521 11.145 4.65355 11 4.65355C10.855 4.64843 10.7514 4.72009 10.6893 4.86852C10.3682 5.61068 9.79591 6.19674 8.97246 6.62668C8.15419 7.0515 7.16502 7.26392 6.00494 7.26392Z"
		fill="currentColor"
	/>
</svg>
