<svg color="rgb(var(--foreground, 0, 0, 0))" viewBox="0 0 22 9" fill="none">
	<path
		d="M0 3.76971C0 4.44468 0.149711 5.06985 0.449136 5.64523C0.748562 6.22061 1.16156 6.7213 1.68814 7.1473C2.21988 7.57331 2.83421 7.90526 3.53115 8.14315C4.23325 8.38105 4.98182 8.5 5.77684 8.5C6.92292 8.5 7.94252 8.29253 8.83563 7.87759C9.73391 7.45712 10.4541 6.85131 10.9961 6.06017C11.5434 6.85131 12.2635 7.45712 13.1566 7.87759C14.0549 8.29253 15.0745 8.5 16.2154 8.5C17.0156 8.5 17.7642 8.38105 18.4611 8.14315C19.1581 7.90526 19.7698 7.57331 20.2964 7.1473C20.8281 6.7213 21.2437 6.22061 21.5431 5.64523C21.8477 5.06985 22 4.44468 22 3.76971C22 3.30498 21.9355 2.93707 21.8064 2.66598C21.6825 2.39488 21.4889 2.25934 21.2256 2.25934C21.1379 2.25934 21.0475 2.287 20.9546 2.34232C20.8668 2.39765 20.792 2.4751 20.73 2.57469C20.3119 3.21646 19.6743 3.53734 18.8173 3.53734C18.3527 3.53734 17.9397 3.43499 17.5783 3.23029C17.2221 3.02559 16.8866 2.77386 16.5716 2.4751C16.2567 2.17082 15.9315 1.86929 15.5959 1.57054C15.2655 1.26625 14.8938 1.01176 14.4808 0.807054C14.0678 0.602351 13.5826 0.5 13.025 0.5C12.3229 0.5 11.7421 0.701936 11.2827 1.10581C10.8232 1.50968 10.5418 2.0657 10.4386 2.77386H11.5537C11.4556 2.0657 11.1768 1.50968 10.7174 1.10581C10.2579 0.701936 9.67454 0.5 8.96727 0.5C8.40972 0.5 7.92445 0.602351 7.51145 0.807054C7.09845 1.01176 6.72416 1.26625 6.3886 1.57054C6.0582 1.86929 5.73554 2.17082 5.42063 2.4751C5.10572 2.77386 4.77015 3.02559 4.41394 3.23029C4.05773 3.43499 3.64731 3.53734 3.18268 3.53734C2.3825 3.53734 1.73976 3.21369 1.25449 2.56639C1.18737 2.47234 1.10994 2.39765 1.02217 2.34232C0.939574 2.287 0.854393 2.25934 0.76663 2.25934C0.508505 2.25934 0.314913 2.39488 0.18585 2.66598C0.0619501 2.93707 0 3.30498 0 3.76971Z"
		fill="currentColor"
	/>
</svg>
