<svg color="rgb(var(--foreground, 0, 0, 0))" viewBox="0 0 16 17" fill="none">
	<path
		d="M3.51491 16.2555C3.88602 16.2555 4.25447 16.1821 4.62028 16.0354C4.98608 15.8887 5.33068 15.6822 5.65407 15.4159L4.83499 14.5683C4.63883 14.7095 4.42942 14.8182 4.20676 14.8943C3.9894 14.9704 3.76143 15.0084 3.52286 15.0084C3.10404 15.0084 2.72763 14.9187 2.39364 14.7394C2.06494 14.5601 1.80517 14.3129 1.61431 13.9977C1.42346 13.6825 1.32803 13.3185 1.32803 12.9055C1.32803 12.3078 1.47117 11.816 1.75745 11.4302C2.04904 11.039 2.43075 10.7618 2.90258 10.5988C3.37442 10.4358 3.88867 10.3978 4.44533 10.4847C4.76342 9.76201 5.0391 8.99856 5.27237 8.19435C5.50563 7.39013 5.71239 6.57777 5.89264 5.75726C6.0782 4.93675 6.26375 4.13797 6.4493 3.36093C6.56594 2.86101 6.74354 2.47793 6.9821 2.21167C7.22597 1.94541 7.56527 1.81228 8 1.81228C8.42942 1.81228 8.76342 1.94541 9.00198 2.21167C9.24585 2.47793 9.42611 2.86101 9.54274 3.36093C9.72829 4.13797 9.91385 4.93675 10.0994 5.75726C10.285 6.57777 10.4917 7.39013 10.7197 8.19435C10.9529 8.99856 11.2313 9.76201 11.5547 10.4847C12.106 10.3978 12.6176 10.4358 13.0895 10.5988C13.5666 10.7618 13.9483 11.039 14.2346 11.4302C14.5262 11.816 14.672 12.3078 14.672 12.9055C14.672 13.3185 14.5765 13.6825 14.3857 13.9977C14.1948 14.3129 13.9324 14.5601 13.5984 14.7394C13.2697 14.9187 12.896 15.0084 12.4771 15.0084C12.2386 15.0084 12.008 14.9704 11.7853 14.8943C11.5679 14.8182 11.3585 14.7095 11.1571 14.5683L10.3459 15.4159C10.664 15.6822 11.006 15.8887 11.3718 16.0354C11.7429 16.1821 12.114 16.2555 12.4851 16.2555C13.1902 16.2555 13.8052 16.1115 14.33 15.8235C14.8602 15.5409 15.271 15.1415 15.5626 14.6253C15.8542 14.1145 16 13.5141 16 12.824C16 12.1719 15.8542 11.5851 15.5626 11.0634C15.2763 10.5363 14.8708 10.1071 14.3459 9.7756C13.8211 9.4387 13.2087 9.23221 12.5089 9.15614C12.3287 8.67253 12.1564 8.17804 11.992 7.6727C11.8277 7.16735 11.674 6.65656 11.5308 6.14035C11.3877 5.6187 11.2498 5.09976 11.1173 4.58355C10.9901 4.0619 10.8681 3.54568 10.7515 3.0349C10.5712 2.20352 10.2531 1.57319 9.79721 1.14391C9.34128 0.714637 8.74221 0.5 8 0.5C7.25778 0.5 6.65871 0.714637 6.20278 1.14391C5.74685 1.57319 5.42876 2.20352 5.24851 3.0349C5.13187 3.54568 5.00729 4.0619 4.87475 4.58355C4.74751 5.09976 4.60967 5.6187 4.46123 6.14035C4.31809 6.65656 4.16435 7.16735 4 7.6727C3.84095 8.17804 3.6713 8.67253 3.49105 9.15614C2.78595 9.23221 2.17097 9.4387 1.64612 9.7756C1.12657 10.1071 0.721007 10.5363 0.429423 11.0634C0.143141 11.5851 0 12.1719 0 12.824C0 13.5141 0.145792 14.1145 0.437376 14.6253C0.72896 15.1415 1.13718 15.5409 1.66203 15.8235C2.19218 16.1115 2.80981 16.2555 3.51491 16.2555ZM8 16.5C8.64678 16.5 9.20079 16.4103 9.66202 16.231C10.1233 16.0517 10.5156 15.8181 10.839 15.5301C11.1624 15.2475 11.4407 14.9486 11.674 14.6335C11.8489 14.7421 12.0318 14.7965 12.2227 14.7965C12.5408 14.7965 12.7873 14.7014 12.9622 14.5112C13.1372 14.321 13.2247 14.1064 13.2247 13.8673C13.2247 13.6336 13.1425 13.4217 12.9781 13.2315C12.8138 13.0359 12.5832 12.9381 12.2863 12.9381C12.0689 12.9381 11.886 12.9952 11.7376 13.1093C11.5944 13.2234 11.4327 13.3782 11.2525 13.5739C10.9238 13.9379 10.5977 14.2341 10.2744 14.4623C9.95096 14.6905 9.60636 14.859 9.24055 14.9677C8.87475 15.0763 8.46123 15.1307 8 15.1307C7.53876 15.1307 7.12259 15.0763 6.75149 14.9677C6.38568 14.859 6.04109 14.6905 5.71769 14.4623C5.3943 14.2341 5.07091 13.9379 4.74751 13.5739C4.56726 13.3782 4.40292 13.2234 4.25447 13.1093C4.10603 12.9952 3.92578 12.9381 3.71372 12.9381C3.41153 12.9381 3.17826 13.0359 3.01392 13.2315C2.85487 13.4217 2.77535 13.6336 2.77535 13.8673C2.77535 14.1064 2.86282 14.321 3.03777 14.5112C3.21272 14.7014 3.45659 14.7965 3.76938 14.7965C3.96024 14.7965 4.14314 14.7421 4.31809 14.6335C4.55666 14.9486 4.83764 15.2475 5.16103 15.5301C5.48443 15.8181 5.87674 16.0517 6.33797 16.231C6.7992 16.4103 7.35321 16.5 8 16.5Z"
		fill="currentColor"
	/>
</svg>
