<svg color="rgb(var(--foreground, 0, 0, 0))" viewBox="0 0 16 17" fill="none">
	<path
		d="M0 13.0153C0 13.7161 0.145792 14.3258 0.437376 14.8445C0.728959 15.3688 1.13718 15.7744 1.66203 16.0613C2.19218 16.3538 2.80981 16.5 3.51491 16.5C3.833 16.5 4.15374 16.4476 4.47714 16.3427C4.80053 16.2379 5.07356 16.0972 5.29622 15.9206C5.12127 15.7937 4.95427 15.6502 4.79523 15.4902C4.63618 15.3301 4.45328 15.1149 4.24652 14.8445C4.15639 14.8832 4.05036 14.9163 3.92843 14.9439C3.81179 14.9715 3.69251 14.9853 3.57058 14.9853C3.24188 14.9853 2.97415 14.8942 2.76739 14.7121C2.56594 14.5355 2.46521 14.3065 2.46521 14.0251C2.46521 13.7547 2.55268 13.5367 2.72763 13.3712C2.90258 13.2001 3.1332 13.1146 3.41948 13.1146C3.66865 13.1146 3.88602 13.1836 4.07157 13.3215C4.26242 13.4595 4.45063 13.6361 4.63618 13.8513C4.90656 14.1603 5.18489 14.4665 5.47117 14.77C5.76275 15.0735 6.10735 15.3274 6.50497 15.5316C6.90788 15.7357 7.40622 15.8378 7.99999 15.8378C8.59377 15.8378 9.08946 15.7357 9.48707 15.5316C9.88469 15.3274 10.2293 15.0735 10.5209 14.77C10.8125 14.4665 11.0934 14.1603 11.3638 13.8513C11.5494 13.6361 11.7349 13.4595 11.9205 13.3215C12.1113 13.1836 12.3313 13.1146 12.5805 13.1146C12.8615 13.1146 13.0895 13.2001 13.2644 13.3712C13.4447 13.5367 13.5348 13.7547 13.5348 14.0251C13.5348 14.3065 13.4314 14.5355 13.2246 14.7121C13.0232 14.8942 12.7555 14.9853 12.4215 14.9853C12.3048 14.9853 12.1855 14.9715 12.0636 14.9439C11.947 14.9163 11.8409 14.8832 11.7455 14.8445C11.5441 15.1149 11.3612 15.3301 11.1968 15.4902C11.0378 15.6502 10.8734 15.7937 10.7038 15.9206C10.9264 16.0972 11.1968 16.2379 11.5149 16.3427C11.8383 16.4476 12.1617 16.5 12.4851 16.5C13.1902 16.5 13.8052 16.3538 14.33 16.0613C14.8602 15.7744 15.271 15.3688 15.5626 14.8445C15.8542 14.3258 16 13.7161 16 13.0153C16 12.3531 15.8542 11.7571 15.5626 11.2274C15.2763 10.6921 14.8708 10.2562 14.3459 9.91956C13.8211 9.57743 13.2087 9.36774 12.5089 9.29048C12.3075 8.79936 12.1193 8.29721 11.9443 7.78401C11.7694 7.27082 11.6077 6.75211 11.4592 6.22788C11.3108 5.69814 11.1703 5.17115 11.0378 4.64692C10.9105 4.11718 10.7886 3.59295 10.672 3.07424C10.4917 2.22995 10.1869 1.58984 9.75745 1.15391C9.32803 0.717969 8.74221 0.5 7.99999 0.5C7.25778 0.5 6.67197 0.717969 6.24254 1.15391C5.81312 1.58984 5.50828 2.22995 5.32803 3.07424C5.2114 3.59295 5.08681 4.11718 4.95427 4.64692C4.82704 5.17115 4.68655 5.69814 4.5328 6.22788C4.38436 6.75211 4.22266 7.27082 4.04771 7.78401C3.87806 8.29721 3.69251 8.79936 3.49105 9.29048C2.78595 9.36774 2.17097 9.57743 1.64612 9.91956C1.12657 10.2562 0.721007 10.6921 0.429423 11.2274C0.143141 11.7571 0 12.3531 0 13.0153Z"
		fill="currentColor"
	/>
</svg>
