<svg color="rgb(var(--foreground, 0, 0, 0))" viewBox="0 0 21 17" fill="none">
	<path
		d="M6.46709 17H14.537C15.2201 17 15.7629 16.8059 16.1653 16.4176C16.5678 16.0293 16.7743 15.5038 16.7849 14.8411L16.8881 7.26155L18.7865 7.68868C19.1677 7.77151 19.4801 7.73786 19.7237 7.58772C19.9673 7.4324 20.1394 7.16319 20.24 6.78007L20.939 4.02317C21.0396 3.64523 21.0158 3.32424 20.8675 3.0602C20.7245 2.79098 20.4704 2.5813 20.105 2.43116L14.5767 0.124686C14.3702 0.0366723 14.1876 -0.00474583 14.0287 0.000431439C13.8751 0.000431439 13.7136 0.039261 13.5442 0.11692C13.2 0.277415 12.869 0.412024 12.5513 0.520747C12.2389 0.624293 11.9159 0.70454 11.5823 0.76149C11.254 0.81844 10.8939 0.846915 10.5021 0.846915C10.1102 0.846915 9.7475 0.81844 9.41389 0.76149C9.08559 0.70454 8.76258 0.624293 8.44486 0.520747C8.13244 0.412024 7.80149 0.277415 7.45201 0.11692C7.28785 0.039261 7.12635 0.000431439 6.96749 0.000431439C6.80863 -0.00474583 6.62595 0.0366723 6.41943 0.124686L0.899133 2.43116C0.528466 2.5813 0.271646 2.79098 0.128675 3.0602C-0.0142972 3.32424 -0.0381258 3.64523 0.0571887 4.02317L0.764105 6.78007C0.859419 7.16319 1.02887 7.4324 1.27245 7.58772C1.52133 7.73786 1.83639 7.77151 2.21765 7.68868L4.116 7.26155L4.21926 14.8411C4.22985 15.5038 4.43371 16.0293 4.83086 16.4176C5.2333 16.8059 5.77871 17 6.46709 17ZM6.48297 15.804C6.15996 15.804 5.90579 15.7134 5.72046 15.5322C5.54042 15.351 5.44775 15.0999 5.44246 14.779L5.33126 6.11997C5.33126 6.02677 5.29684 5.95429 5.228 5.90252C5.16446 5.84557 5.07709 5.82745 4.96589 5.84816L2.18588 6.4539C2.03232 6.49014 1.937 6.43837 1.89994 6.29858L1.27245 3.85232C1.24597 3.75913 1.24597 3.68924 1.27245 3.64264C1.30422 3.59605 1.35982 3.55722 1.43925 3.52615L7.15018 1.14202C7.685 1.41641 8.21982 1.62351 8.75464 1.76329C9.29475 1.90308 9.87723 1.97297 10.5021 1.97297C11.1269 1.97297 11.7067 1.90308 12.2416 1.76329C12.7817 1.62351 13.3191 1.41641 13.854 1.14202L19.5649 3.52615C19.639 3.55722 19.692 3.59605 19.7237 3.64264C19.7555 3.68924 19.7582 3.75913 19.7317 3.85232L19.0962 6.29858C19.0645 6.43837 18.9718 6.49014 18.8182 6.4539L16.0382 5.84816C15.927 5.82745 15.837 5.84557 15.7682 5.90252C15.7046 5.95429 15.6729 6.02677 15.6729 6.11997L15.5617 14.779C15.5564 15.0999 15.4611 15.351 15.2757 15.5322C15.0957 15.7134 14.8442 15.804 14.5211 15.804H6.48297ZM10.5021 4.30274C11.1269 4.30274 11.712 4.17072 12.2574 3.90668C12.8082 3.63746 13.2715 3.26988 13.6474 2.80392C14.0234 2.33279 14.2696 1.79694 14.3861 1.19638L13.2265 0.699363C13.1735 1.15496 13.0173 1.56656 12.7578 1.93414C12.4984 2.29655 12.1701 2.58389 11.7729 2.79616C11.3811 3.00325 10.9575 3.10679 10.5021 3.10679C10.0467 3.10679 9.62041 3.00325 9.22327 2.79616C8.83142 2.58389 8.50576 2.29655 8.24629 1.93414C7.98682 1.56656 7.83062 1.15496 7.77766 0.699363L6.618 1.19638C6.7345 1.79694 6.98073 2.33279 7.35669 2.80392C7.73265 3.26988 8.19334 3.63746 8.73875 3.90668C9.28946 4.17072 9.87723 4.30274 10.5021 4.30274Z"
		fill="currentColor"
	/>
</svg>
