<svg color="rgb(var(--foreground, 0, 0, 0))" viewBox="0 0 21 17" fill="none">
	<path
		d="M6.44548 17H14.5545C15.2934 17 15.8436 16.8231 16.205 16.4693C16.5718 16.1206 16.7605 15.5873 16.7712 14.8692L16.8748 7.20464L18.8283 7.64172C19.2004 7.71977 19.5034 7.68595 19.7373 7.54025C19.9765 7.39456 20.1413 7.13439 20.2316 6.75975L20.9413 3.98895C21.037 3.61951 21.0157 3.30731 20.8775 3.05234C20.7393 2.79217 20.4868 2.58664 20.12 2.43574L14.5067 0.0942183C14.3472 0.0265744 14.1931 -0.00464587 14.0442 0.000557505C13.8954 0.000557505 13.7465 0.0343795 13.5977 0.102023C13.2469 0.263328 12.9093 0.398616 12.5851 0.507887C12.2661 0.617158 11.9366 0.700412 11.5964 0.757649C11.2615 0.814886 10.8973 0.843505 10.504 0.843505C10.1053 0.843505 9.73588 0.814886 9.39567 0.757649C9.06079 0.700412 8.73122 0.617158 8.40696 0.507887C8.08802 0.398616 7.75313 0.263328 7.4023 0.102023C7.25346 0.0343795 7.10462 0.000557505 6.95578 0.000557505C6.80695 -0.00464587 6.65279 0.0265744 6.49332 0.0942183L0.879985 2.43574C0.51852 2.58664 0.266025 2.79217 0.122502 3.05234C-0.0157054 3.30731 -0.036968 3.61951 0.0587139 3.98895L0.768357 6.75975C0.858723 7.13439 1.02085 7.39456 1.25474 7.54025C1.49394 7.68595 1.79959 7.71977 2.17169 7.64172L4.13317 7.20464L4.22885 14.8692C4.23948 15.5873 4.42553 16.1206 4.787 16.4693C5.15378 16.8231 5.7066 17 6.44548 17ZM10.504 3.27869C10.0468 3.27869 9.63754 3.20584 9.27607 3.06014C8.91992 2.91445 8.61427 2.70632 8.35912 2.43574C8.10928 2.16516 7.91526 1.83995 7.77705 1.46011C8.19168 1.61621 8.63022 1.73588 9.09268 1.81914C9.56046 1.90239 10.0309 1.94402 10.504 1.94402C10.9718 1.94402 11.4369 1.90239 11.8993 1.81914C12.3671 1.73588 12.8083 1.61621 13.2229 1.46011C13.0901 1.83475 12.8987 2.15736 12.6489 2.42793C12.399 2.69851 12.0934 2.90925 11.7319 3.06014C11.3704 3.20584 10.9611 3.27869 10.504 3.27869Z"
		fill="currentColor"
	/>
</svg>
