<svg color="rgb(var(--foreground, 0, 0, 0))" viewBox="0 0 15 19" fill="none">
	<path
		d="M3.34265 0C2.90559 0 2.48473 0.151875 2.08005 0.455624C1.68077 0.75385 1.32465 1.14596 1.0117 1.63196C0.698745 2.11244 0.450542 2.63433 0.267088 3.19765C0.0890293 3.76097 0 4.30772 0 4.8379C0 5.17478 0.03777 5.60279 0.11331 6.12193C0.194246 6.63554 0.31565 7.18505 0.477521 7.77046C0.639393 8.35034 0.849826 8.90537 1.10882 9.43555H5.58457C5.84356 8.90537 6.054 8.35034 6.21587 7.77046C6.37774 7.18505 6.49644 6.63554 6.57198 6.12193C6.65292 5.60279 6.69339 5.17478 6.69339 4.8379C6.69339 4.30772 6.60166 3.76097 6.41821 3.19765C6.24015 2.63433 5.99194 2.11244 5.6736 1.63196C5.36065 1.14596 5.00453 0.75385 4.60525 0.455624C4.20596 0.151875 3.7851 0 3.34265 0ZM3.35074 14.3066C3.77161 14.3066 4.12503 14.174 4.411 13.9089C4.70237 13.6439 4.92089 13.2794 5.06658 12.8155C5.21766 12.346 5.2932 11.8076 5.2932 11.2001C5.2932 11.1117 5.2878 11.0095 5.27701 10.8935C5.27162 10.7776 5.26083 10.6699 5.24464 10.5705H1.45684C1.44066 10.6699 1.42717 10.7776 1.41638 10.8935C1.41098 11.0095 1.40828 11.1117 1.40828 11.2001C1.40828 12.1113 1.57285 12.8569 1.90199 13.4368C2.23653 14.0166 2.71944 14.3066 3.35074 14.3066ZM13.1763 5.44263C12.7663 5.288 12.3211 5.28247 11.8409 5.42606C11.3661 5.56965 10.8994 5.81265 10.4407 6.15506C9.98747 6.49747 9.5801 6.90339 9.21858 7.37282C8.86247 7.83673 8.59538 8.3172 8.41732 8.81425C8.30401 9.12904 8.1961 9.54325 8.09358 10.0569C7.99645 10.5705 7.92631 11.131 7.88314 11.7385C7.84537 12.3405 7.85617 12.937 7.91552 13.5279L12.1242 15.0936C12.545 14.6794 12.9281 14.2293 13.2735 13.7433C13.6242 13.2517 13.921 12.7796 14.1638 12.3267C14.412 11.8683 14.5927 11.4762 14.706 11.1504C14.8841 10.6588 14.9812 10.1176 14.9974 9.52668C15.0136 8.93023 14.9542 8.35034 14.8193 7.78702C14.6898 7.22371 14.4875 6.73219 14.2123 6.31246C13.9371 5.88721 13.5918 5.59727 13.1763 5.44263ZM8.40113 18.8877C8.99466 19.1086 9.54502 19.0037 10.0522 18.5729C10.5594 18.1421 10.9641 17.5015 11.2663 16.651C11.2986 16.5681 11.3283 16.4687 11.3553 16.3527C11.3877 16.2423 11.4146 16.1374 11.4362 16.038L7.87505 14.7042C7.82649 14.7926 7.77793 14.892 7.72937 15.0024C7.6808 15.1074 7.64303 15.2013 7.61606 15.2841C7.3139 16.1401 7.21947 16.8967 7.33278 17.5539C7.45149 18.2167 7.8076 18.6612 8.40113 18.8877Z"
		fill="currentColor"
	/>
</svg>
