<svg
	color="rgb(var(--foreground, 0, 0, 0))"
	viewBox="0 0 20 20"
	fill="none"
	xmlns="http://www.w3.org/2000/svg"
>
	<path
		d="M6.81423 16.5632C7.43582 16.5632 8.00041 16.4107 8.50804 16.1055C9.02086 15.8055 9.42747 15.3995 9.72791 14.8875C10.0335 14.3755 10.1863 13.8066 10.1863 13.1808C10.1863 12.5653 10.0335 12.0041 9.72791 11.4973C9.42747 10.9904 9.02086 10.587 8.50804 10.287C7.99523 9.9819 7.43064 9.82932 6.81423 9.82932C6.19264 9.82932 5.62543 9.9819 5.11261 10.287C4.60498 10.587 4.19835 10.9904 3.89274 11.4973C3.5923 12.0041 3.44208 12.5653 3.44208 13.1808C3.44208 13.8066 3.5923 14.3755 3.89274 14.8875C4.19835 15.3995 4.60498 15.8055 5.11261 16.1055C5.62543 16.4107 6.19264 16.5632 6.81423 16.5632ZM12.8359 11.0318C13.5507 11.0318 14.2008 10.856 14.7861 10.5043C15.3766 10.1526 15.8457 9.68192 16.1927 9.09232C16.545 8.50272 16.7211 7.85363 16.7211 7.14507C16.7211 6.43134 16.545 5.78226 16.1927 5.19783C15.8457 4.6134 15.3766 4.14792 14.7861 3.8014C14.2008 3.4497 13.5507 3.27386 12.8359 3.27386C12.1262 3.27386 11.4761 3.4497 10.8856 3.8014C10.3003 4.14792 9.83151 4.6134 9.47927 5.19783C9.12703 5.78226 8.95092 6.43134 8.95092 7.14507C8.95092 7.85363 9.12703 8.50272 9.47927 9.09232C9.83151 9.68192 10.3003 10.1526 10.8856 10.5043C11.4761 10.856 12.1262 11.0318 12.8359 11.0318ZM12.8359 1.87742C13.1001 1.87742 13.3228 1.78691 13.5041 1.6059C13.6854 1.41971 13.776 1.19731 13.776 0.938712C13.776 0.674942 13.6854 0.452547 13.5041 0.271528C13.3228 0.0905094 13.1001 0 12.8359 0C12.5769 0 12.3541 0.0905094 12.1677 0.271528C11.9864 0.452547 11.8957 0.674942 11.8957 0.938712C11.8957 1.19731 11.9864 1.41971 12.1677 1.6059C12.3541 1.78691 12.5769 1.87742 12.8359 1.87742ZM17.4048 3.74709C17.6638 3.74709 17.884 3.65658 18.0653 3.47556C18.2518 3.29454 18.345 3.07215 18.345 2.80838C18.345 2.54978 18.2518 2.32997 18.0653 2.14895C17.884 1.96276 17.6638 1.86967 17.4048 1.86967C17.1407 1.86967 16.9153 1.96276 16.7289 2.14895C16.5476 2.32997 16.4569 2.54978 16.4569 2.80838C16.4569 3.07215 16.5476 3.29454 16.7289 3.47556C16.9153 3.65658 17.1407 3.74709 17.4048 3.74709ZM19.0598 8.11482C19.3188 8.11482 19.539 8.02431 19.7203 7.84329C19.9068 7.6571 20 7.43212 20 7.16835C20 6.90975 19.9068 6.68994 19.7203 6.50892C19.539 6.32273 19.3188 6.22964 19.0598 6.22964C18.8008 6.22964 18.5781 6.32273 18.3916 6.50892C18.2103 6.68994 18.1197 6.90975 18.1197 7.16835C18.1197 7.43212 18.2103 7.6571 18.3916 7.84329C18.5781 8.02431 18.8008 8.11482 19.0598 8.11482ZM17.1717 12.661C17.4359 12.661 17.6587 12.5705 17.84 12.3894C18.0264 12.2033 18.1197 11.9809 18.1197 11.7223C18.1197 11.4585 18.0264 11.2361 17.84 11.0551C17.6587 10.8689 17.4359 10.7758 17.1717 10.7758C16.9127 10.7758 16.69 10.8689 16.5035 11.0551C16.3222 11.2361 16.2316 11.4585 16.2316 11.7223C16.2316 11.9809 16.3222 12.2033 16.5035 12.3894C16.69 12.5705 16.9127 12.661 17.1717 12.661ZM12.8359 14.1195C13.1001 14.1195 13.3228 14.029 13.5041 13.8479C13.6854 13.6618 13.776 13.4394 13.776 13.1808C13.776 12.917 13.6854 12.6946 13.5041 12.5136C13.3228 12.3326 13.1001 12.242 12.8359 12.242C12.5769 12.242 12.3541 12.3326 12.1677 12.5136C11.9864 12.6946 11.8957 12.917 11.8957 13.1808C11.8957 13.4394 11.9864 13.6618 12.1677 13.8479C12.3541 14.029 12.5769 14.1195 12.8359 14.1195ZM11.041 18.1148C11.3 18.1148 11.5202 18.0217 11.7015 17.8355C11.8879 17.6545 11.9812 17.4347 11.9812 17.1761C11.9812 16.9175 11.8879 16.6951 11.7015 16.5089C11.5202 16.3279 11.3 16.2374 11.041 16.2374C10.782 16.2374 10.5593 16.3279 10.3728 16.5089C10.1915 16.6951 10.1009 16.9175 10.1009 17.1761C10.1009 17.4347 10.1915 17.6545 10.3728 17.8355C10.5593 18.0217 10.782 18.1148 11.041 18.1148ZM6.81423 20C7.07323 20 7.29334 19.9069 7.47464 19.7207C7.66112 19.5397 7.75436 19.3199 7.75436 19.0613C7.75436 18.7975 7.66112 18.5725 7.47464 18.3863C7.29334 18.2053 7.07323 18.1148 6.81423 18.1148C6.55005 18.1148 6.32731 18.2053 6.14602 18.3863C5.96472 18.5725 5.87407 18.7975 5.87407 19.0613C5.87407 19.3199 5.96472 19.5397 6.14602 19.7207C6.32731 19.9069 6.55005 20 6.81423 20ZM2.82825 18.3243C3.08725 18.3243 3.3074 18.2312 3.4887 18.045C3.67518 17.864 3.76842 17.6442 3.76842 17.3856C3.76842 17.1218 3.67518 16.8968 3.4887 16.7106C3.3074 16.5296 3.08725 16.4391 2.82825 16.4391C2.56408 16.4391 2.34134 16.5296 2.16004 16.7106C1.97874 16.8968 1.88809 17.1218 1.88809 17.3856C1.88809 17.6442 1.97874 17.864 2.16004 18.045C2.34134 18.2312 2.56408 18.3243 2.82825 18.3243ZM0.940162 14.135C1.20434 14.135 1.42708 14.0445 1.60838 13.8635C1.78967 13.6824 1.88032 13.46 1.88032 13.1963C1.88032 12.9377 1.78967 12.7179 1.60838 12.5369C1.42708 12.3507 1.20434 12.2576 0.940162 12.2576C0.681164 12.2576 0.458426 12.3507 0.271948 12.5369C0.0906492 12.7179 0 12.9377 0 13.1963C0 13.46 0.0906492 13.6824 0.271948 13.8635C0.458426 14.0445 0.681164 14.135 0.940162 14.135ZM2.82825 9.94569C3.08725 9.94569 3.3074 9.85518 3.4887 9.67417C3.67518 9.48797 3.76842 9.26558 3.76842 9.00698C3.76842 8.74321 3.67518 8.52082 3.4887 8.3398C3.3074 8.15361 3.08725 8.06051 2.82825 8.06051C2.56408 8.06051 2.34134 8.15361 2.16004 8.3398C1.97874 8.52082 1.88809 8.74321 1.88809 9.00698C1.88809 9.26558 1.97874 9.48797 2.16004 9.67417C2.34134 9.85518 2.56408 9.94569 2.82825 9.94569ZM6.81423 8.08379C7.07323 8.08379 7.29334 7.99328 7.47464 7.81226C7.66112 7.62607 7.75436 7.40367 7.75436 7.14507C7.75436 6.8813 7.66112 6.65891 7.47464 6.47789C7.29334 6.2917 7.07323 6.1986 6.81423 6.1986C6.55005 6.1986 6.32731 6.2917 6.14602 6.47789C5.96472 6.65891 5.87407 6.8813 5.87407 7.14507C5.87407 7.40367 5.96472 7.62607 6.14602 7.81226C6.32731 7.99328 6.55005 8.08379 6.81423 8.08379ZM8.50027 3.53763C8.75927 3.53763 8.9794 3.44712 9.1607 3.2661C9.34718 3.07991 9.44042 2.85493 9.44042 2.59116C9.44042 2.33256 9.34718 2.11275 9.1607 1.93173C8.9794 1.74554 8.75927 1.65244 8.50027 1.65244C8.2361 1.65244 8.01336 1.74554 7.83206 1.93173C7.65076 2.11275 7.56011 2.33256 7.56011 2.59116C7.56011 2.85493 7.65076 3.07991 7.83206 3.2661C8.01336 3.44712 8.2361 3.53763 8.50027 3.53763Z"
		fill="currentColor"
	/>
</svg>
