<svg
	color="rgb(var(--foreground, 0, 0, 0))"
	viewBox="0 0 20 20"
	fill="none"
	xmlns="http://www.w3.org/2000/svg"
>
	<path
		d="M12.8361 1.87742C13.1002 1.87742 13.323 1.78691 13.5043 1.6059C13.6856 1.41971 13.7762 1.19731 13.7762 0.938712C13.7762 0.674942 13.6856 0.452547 13.5043 0.271528C13.323 0.0905094 13.1002 0 12.8361 0C12.5771 0 12.3543 0.0905094 12.1678 0.271528C11.9865 0.452547 11.8959 0.674942 11.8959 0.938712C11.8959 1.19731 11.9865 1.41971 12.1678 1.6059C12.3543 1.78691 12.5771 1.87742 12.8361 1.87742ZM17.4048 3.74709C17.6638 3.74709 17.884 3.65658 18.0653 3.47556C18.2517 3.29454 18.345 3.07215 18.345 2.80838C18.345 2.54978 18.2517 2.32997 18.0653 2.14895C17.884 1.96276 17.6638 1.86967 17.4048 1.86967C17.1406 1.86967 16.9153 1.96276 16.7288 2.14895C16.5475 2.32997 16.4569 2.54978 16.4569 2.80838C16.4569 3.07215 16.5475 3.29454 16.7288 3.47556C16.9153 3.65658 17.1406 3.74709 17.4048 3.74709ZM19.0598 8.11482C19.3188 8.11482 19.539 8.02431 19.7203 7.84329C19.9068 7.6571 20 7.43212 20 7.16835C20 6.90975 19.9068 6.68994 19.7203 6.50892C19.539 6.32273 19.3188 6.22964 19.0598 6.22964C18.8008 6.22964 18.5781 6.32273 18.3916 6.50892C18.2103 6.68994 18.1197 6.90975 18.1197 7.16835C18.1197 7.43212 18.2103 7.6571 18.3916 7.84329C18.5781 8.02431 18.8008 8.11482 19.0598 8.11482ZM17.1717 12.661C17.4359 12.661 17.6586 12.5705 17.8399 12.3894C18.0264 12.2033 18.1197 11.9809 18.1197 11.7223C18.1197 11.4585 18.0264 11.2361 17.8399 11.0551C17.6586 10.8689 17.4359 10.7758 17.1717 10.7758C16.9127 10.7758 16.69 10.8689 16.5035 11.0551C16.3222 11.2361 16.2315 11.4585 16.2315 11.7223C16.2315 11.9809 16.3222 12.2033 16.5035 12.3894C16.69 12.5705 16.9127 12.661 17.1717 12.661ZM12.8361 14.1195C13.1002 14.1195 13.323 14.029 13.5043 13.8479C13.6856 13.6618 13.7762 13.4394 13.7762 13.1808C13.7762 12.917 13.6856 12.6946 13.5043 12.5136C13.323 12.3326 13.1002 12.242 12.8361 12.242C12.5771 12.242 12.3543 12.3326 12.1678 12.5136C11.9865 12.6946 11.8959 12.917 11.8959 13.1808C11.8959 13.4394 11.9865 13.6618 12.1678 13.8479C12.3543 14.029 12.5771 14.1195 12.8361 14.1195ZM11.0412 18.1148C11.3002 18.1148 11.5203 18.0217 11.7016 17.8355C11.8881 17.6545 11.9814 17.4347 11.9814 17.1761C11.9814 16.9175 11.8881 16.6951 11.7016 16.5089C11.5203 16.3279 11.3002 16.2374 11.0412 16.2374C10.7822 16.2374 10.5594 16.3279 10.373 16.5089C10.1917 16.6951 10.101 16.9175 10.101 17.1761C10.101 17.4347 10.1917 17.6545 10.373 17.8355C10.5594 18.0217 10.7822 18.1148 11.0412 18.1148ZM6.8143 20C7.0733 20 7.29345 19.9069 7.47475 19.7207C7.66123 19.5397 7.75447 19.3199 7.75447 19.0613C7.75447 18.7975 7.66123 18.5725 7.47475 18.3863C7.29345 18.2053 7.0733 18.1148 6.8143 18.1148C6.55012 18.1148 6.32738 18.2053 6.14608 18.3863C5.96478 18.5725 5.87413 18.7975 5.87413 19.0613C5.87413 19.3199 5.96478 19.5397 6.14608 19.7207C6.32738 19.9069 6.55012 20 6.8143 20ZM2.82828 18.3243C3.08728 18.3243 3.30743 18.2312 3.48873 18.045C3.67521 17.864 3.76845 17.6442 3.76845 17.3856C3.76845 17.1218 3.67521 16.8968 3.48873 16.7106C3.30743 16.5296 3.08728 16.4391 2.82828 16.4391C2.5641 16.4391 2.34136 16.5296 2.16006 16.7106C1.97876 16.8968 1.88811 17.1218 1.88811 17.3856C1.88811 17.6442 1.97876 17.864 2.16006 18.045C2.34136 18.2312 2.5641 18.3243 2.82828 18.3243ZM0.940171 14.135C1.20435 14.135 1.42709 14.0445 1.60839 13.8635C1.78969 13.6824 1.88034 13.46 1.88034 13.1963C1.88034 12.9377 1.78969 12.7179 1.60839 12.5368C1.42709 12.3507 1.20435 12.2576 0.940171 12.2576C0.681171 12.2576 0.45843 12.3507 0.27195 12.5368C0.0906501 12.7179 0 12.9377 0 13.1963C0 13.46 0.0906501 13.6824 0.27195 13.8635C0.45843 14.0445 0.681171 14.135 0.940171 14.135ZM2.82828 9.94569C3.08728 9.94569 3.30743 9.85519 3.48873 9.67417C3.67521 9.48798 3.76845 9.26558 3.76845 9.00698C3.76845 8.74321 3.67521 8.52082 3.48873 8.3398C3.30743 8.15361 3.08728 8.06051 2.82828 8.06051C2.5641 8.06051 2.34136 8.15361 2.16006 8.3398C1.97876 8.52082 1.88811 8.74321 1.88811 9.00698C1.88811 9.26558 1.97876 9.48798 2.16006 9.67417C2.34136 9.85519 2.5641 9.94569 2.82828 9.94569ZM6.8143 8.08379C7.0733 8.08379 7.29345 7.99328 7.47475 7.81226C7.66123 7.62607 7.75447 7.40367 7.75447 7.14507C7.75447 6.8813 7.66123 6.65891 7.47475 6.47789C7.29345 6.2917 7.0733 6.1986 6.8143 6.1986C6.55012 6.1986 6.32738 6.2917 6.14608 6.47789C5.96478 6.65891 5.87413 6.8813 5.87413 7.14507C5.87413 7.40367 5.96478 7.62607 6.14608 7.81226C6.32738 7.99328 6.55012 8.08379 6.8143 8.08379ZM8.50039 3.53763C8.75939 3.53763 8.97954 3.44712 9.16084 3.2661C9.34732 3.07991 9.44056 2.85493 9.44056 2.59116C9.44056 2.33256 9.34732 2.11275 9.16084 1.93173C8.97954 1.74554 8.75939 1.65244 8.50039 1.65244C8.23621 1.65244 8.01347 1.74554 7.83217 1.93173C7.65087 2.11275 7.56022 2.33256 7.56022 2.59116C7.56022 2.85493 7.65087 3.07991 7.83217 3.2661C8.01347 3.44712 8.23621 3.53763 8.50039 3.53763ZM6.8143 16.5632C7.4359 16.5632 8.00052 16.4107 8.50816 16.1055C9.02098 15.8055 9.42761 15.3995 9.72805 14.8875C10.0337 14.3755 10.1865 13.8066 10.1865 13.1808C10.1865 12.5653 10.0337 12.0041 9.72805 11.4973C9.42761 10.9904 9.02098 10.587 8.50816 10.287C7.99534 9.9819 7.43072 9.82932 6.8143 9.82932C6.1927 9.82932 5.62549 9.9819 5.11267 10.287C4.60502 10.587 4.19839 10.9904 3.89277 11.4973C3.59233 12.0041 3.44211 12.5653 3.44211 13.1808C3.44211 13.8066 3.59233 14.3755 3.89277 14.8875C4.19839 15.3995 4.60502 15.8055 5.11267 16.1055C5.62549 16.4107 6.1927 16.5632 6.8143 16.5632ZM6.8143 15.2754C6.43098 15.2754 6.08133 15.1823 5.76535 14.9961C5.44937 14.8048 5.19814 14.5513 5.01166 14.2358C4.82517 13.9152 4.73194 13.5635 4.73194 13.1808C4.73194 12.8032 4.82517 12.4593 5.01166 12.149C5.20332 11.8335 5.45455 11.5826 5.76535 11.3964C6.08133 11.2102 6.43098 11.1171 6.8143 11.1171C7.19244 11.1171 7.5395 11.2102 7.85548 11.3964C8.17146 11.5826 8.42269 11.8335 8.60917 12.149C8.80083 12.4593 8.89666 12.8032 8.89666 13.1808C8.89666 13.5687 8.80083 13.9204 8.60917 14.2358C8.42269 14.5513 8.17146 14.8048 7.85548 14.9961C7.54468 15.1823 7.19762 15.2754 6.8143 15.2754ZM12.8361 11.0318C13.5509 11.0318 14.201 10.856 14.7863 10.5043C15.3768 10.1526 15.8456 9.68192 16.1927 9.09232C16.5449 8.50271 16.7211 7.85363 16.7211 7.14507C16.7211 6.43134 16.5449 5.78226 16.1927 5.19783C15.8456 4.6134 15.3768 4.14792 14.7863 3.8014C14.201 3.4497 13.5509 3.27386 12.8361 3.27386C12.1264 3.27386 11.4763 3.4497 10.8858 3.8014C10.3004 4.14792 9.83165 4.6134 9.47941 5.19783C9.12717 5.78226 8.95105 6.43134 8.95105 7.14507C8.95105 7.85363 9.12717 8.50271 9.47941 9.09232C9.83165 9.68192 10.3004 10.1526 10.8858 10.5043C11.4763 10.856 12.1264 11.0318 12.8361 11.0318ZM12.8361 9.74399C12.3647 9.74399 11.9321 9.62762 11.5385 9.39488C11.1448 9.15697 10.8288 8.84148 10.5905 8.44841C10.3574 8.05017 10.2409 7.61572 10.2409 7.14507C10.2409 6.66925 10.3574 6.23739 10.5905 5.8495C10.8288 5.4616 11.1448 5.15128 11.5385 4.91854C11.9321 4.6858 12.3647 4.56943 12.8361 4.56943C13.3126 4.56943 13.7451 4.6858 14.1336 4.91854C14.5273 5.15128 14.8407 5.4616 15.0738 5.8495C15.3121 6.23739 15.4312 6.66925 15.4312 7.14507C15.4312 7.61572 15.3121 8.05017 15.0738 8.44841C14.8407 8.84148 14.5273 9.15697 14.1336 9.39488C13.7451 9.62762 13.3126 9.74399 12.8361 9.74399Z"
		fill="currentColor"
	/>
</svg>
