<svg
	color="rgb(var(--foreground, 0, 0, 0))"
	viewBox="0 0 16 18"
	fill="none"
	xmlns="http://www.w3.org/2000/svg"
>
	<path
		d="M8.01933 1.23174C8.19977 1.23174 8.34928 1.1738 8.46786 1.05793C8.58643 0.942066 8.64572 0.79597 8.64572 0.619647C8.64572 0.448363 8.58386 0.302267 8.46013 0.18136C8.34155 0.0604534 8.19462 0 8.01933 0C7.84405 0 7.69454 0.0604534 7.57081 0.18136C7.44708 0.302267 7.38521 0.448363 7.38521 0.619647C7.38521 0.790932 7.4445 0.937028 7.56307 1.05793C7.68681 1.1738 7.83889 1.23174 8.01933 1.23174ZM4.32286 3.31738C4.5033 3.31738 4.65281 3.25945 4.77139 3.14358C4.89512 3.02267 4.95698 2.87406 4.95698 2.69773C4.95698 2.52645 4.89512 2.38035 4.77139 2.25945C4.64766 2.13854 4.49815 2.07809 4.32286 2.07809C4.15273 2.07809 4.00322 2.14106 3.87434 2.267C3.7506 2.38791 3.68874 2.53149 3.68874 2.69773C3.68874 2.86902 3.7506 3.01511 3.87434 3.13602C3.99807 3.25693 4.14758 3.31738 4.32286 3.31738ZM11.7081 3.31738C11.8885 3.31738 12.038 3.25945 12.1566 3.14358C12.2803 3.02267 12.3422 2.87406 12.3422 2.69773C12.3422 2.52645 12.2803 2.38035 12.1566 2.25945C12.0329 2.13854 11.8834 2.07809 11.7081 2.07809C11.5379 2.07809 11.3884 2.14106 11.2595 2.267C11.1358 2.38791 11.0739 2.53149 11.0739 2.69773C11.0739 2.86902 11.1358 3.01511 11.2595 3.13602C11.3833 3.25693 11.5328 3.31738 11.7081 3.31738ZM0.634123 5.42569C0.814564 5.42569 0.964073 5.36776 1.08265 5.25189C1.20122 5.13602 1.26051 4.98741 1.26051 4.80605C1.26051 4.63476 1.19865 4.49118 1.07492 4.37532C0.95634 4.25441 0.809409 4.19395 0.634123 4.19395C0.458837 4.19395 0.309328 4.25441 0.185597 4.37532C0.0618656 4.49622 0 4.6398 0 4.80605C0 4.98237 0.0592879 5.13098 0.177864 5.25189C0.301595 5.36776 0.453681 5.42569 0.634123 5.42569ZM8.01933 5.42569C8.19977 5.42569 8.34928 5.36776 8.46786 5.25189C8.58643 5.13602 8.64572 4.98741 8.64572 4.80605C8.64572 4.63476 8.58386 4.49118 8.46013 4.37532C8.34155 4.25441 8.19462 4.19395 8.01933 4.19395C7.84405 4.19395 7.69454 4.25441 7.57081 4.37532C7.44708 4.49622 7.38521 4.6398 7.38521 4.80605C7.38521 4.98237 7.4445 5.13098 7.56307 5.25189C7.68681 5.36776 7.83889 5.42569 8.01933 5.42569ZM15.3736 5.42569C15.5541 5.42569 15.7036 5.36776 15.8221 5.25189C15.9407 5.13602 16 4.98741 16 4.80605C16 4.63476 15.9381 4.49118 15.8144 4.37532C15.6958 4.25441 15.5489 4.19395 15.3736 4.19395C15.1983 4.19395 15.0488 4.25441 14.9251 4.37532C14.8014 4.49622 14.7395 4.6398 14.7395 4.80605C14.7395 4.98237 14.8014 5.13098 14.9251 5.25189C15.0488 5.36776 15.1983 5.42569 15.3736 5.42569ZM4.32286 7.51889C4.5033 7.51889 4.65281 7.46096 4.77139 7.34509C4.89512 7.22418 4.95698 7.07557 4.95698 6.89924C4.95698 6.72796 4.89512 6.58186 4.77139 6.46096C4.64766 6.34005 4.49815 6.2796 4.32286 6.2796C4.15273 6.2796 4.00322 6.34257 3.87434 6.46851C3.7506 6.58942 3.68874 6.733 3.68874 6.89924C3.68874 7.07053 3.7506 7.21662 3.87434 7.33753C3.99807 7.45844 4.14758 7.51889 4.32286 7.51889ZM11.7081 7.51889C11.8885 7.51889 12.038 7.46096 12.1566 7.34509C12.2803 7.22418 12.3422 7.07557 12.3422 6.89924C12.3422 6.72796 12.2803 6.58186 12.1566 6.46096C12.0329 6.34005 11.8834 6.2796 11.7081 6.2796C11.5379 6.2796 11.3884 6.34257 11.2595 6.46851C11.1358 6.58942 11.0739 6.733 11.0739 6.89924C11.0739 7.07053 11.1358 7.21662 11.2595 7.33753C11.3833 7.45844 11.5328 7.51889 11.7081 7.51889ZM0.634123 9.61209C0.814564 9.61209 0.964073 9.55416 1.08265 9.43829C1.20122 9.32242 1.26051 9.17632 1.26051 9C1.26051 8.82872 1.19865 8.68262 1.07492 8.56171C0.95634 8.44081 0.809409 8.38035 0.634123 8.38035C0.458837 8.38035 0.309328 8.44081 0.185597 8.56171C0.0618656 8.68262 0 8.82872 0 9C0 9.17128 0.0592879 9.31738 0.177864 9.43829C0.301595 9.55416 0.453681 9.61209 0.634123 9.61209ZM8.01933 9.61209C8.19977 9.61209 8.34928 9.55416 8.46786 9.43829C8.58643 9.32242 8.64572 9.17632 8.64572 9C8.64572 8.82872 8.58386 8.68262 8.46013 8.56171C8.34155 8.44081 8.19462 8.38035 8.01933 8.38035C7.84405 8.38035 7.69454 8.44081 7.57081 8.56171C7.44708 8.68262 7.38521 8.82872 7.38521 9C7.38521 9.17128 7.4445 9.31738 7.56307 9.43829C7.68681 9.55416 7.83889 9.61209 8.01933 9.61209ZM15.3736 9.61209C15.5541 9.61209 15.7036 9.55416 15.8221 9.43829C15.9407 9.32242 16 9.17632 16 9C16 8.82368 15.9381 8.67758 15.8144 8.56171C15.6958 8.44081 15.5489 8.38035 15.3736 8.38035C15.1983 8.38035 15.0488 8.44333 14.9251 8.56927C14.8014 8.69018 14.7395 8.83375 14.7395 9C14.7395 9.17128 14.8014 9.31738 14.9251 9.43829C15.0488 9.55416 15.1983 9.61209 15.3736 9.61209ZM4.32286 11.7128C4.5033 11.7128 4.65281 11.6549 4.77139 11.539C4.89512 11.4232 4.95698 11.2771 4.95698 11.1008C4.95698 10.9295 4.89512 10.7834 4.77139 10.6625C4.64766 10.5416 4.49815 10.4811 4.32286 10.4811C4.15273 10.4811 4.00322 10.5416 3.87434 10.6625C3.7506 10.7834 3.68874 10.9295 3.68874 11.1008C3.68874 11.272 3.7506 11.4181 3.87434 11.539C3.99807 11.6549 4.14758 11.7128 4.32286 11.7128ZM11.7081 11.7128C11.8885 11.7128 12.038 11.6549 12.1566 11.539C12.2803 11.4232 12.3422 11.2771 12.3422 11.1008C12.3422 10.9295 12.2803 10.7834 12.1566 10.6625C12.0329 10.5416 11.8834 10.4811 11.7081 10.4811C11.5379 10.4811 11.3884 10.5416 11.2595 10.6625C11.1358 10.7834 11.0739 10.9295 11.0739 11.1008C11.0739 11.272 11.1358 11.4181 11.2595 11.539C11.3833 11.6549 11.5328 11.7128 11.7081 11.7128ZM0.634123 13.806C0.814564 13.806 0.964073 13.7481 1.08265 13.6322C1.20122 13.5164 1.26051 13.3678 1.26051 13.1864C1.26051 13.0151 1.19865 12.8715 1.07492 12.7557C0.95634 12.6348 0.809409 12.5743 0.634123 12.5743C0.458837 12.5743 0.309328 12.6348 0.185597 12.7557C0.0618656 12.8766 0 13.0202 0 13.1864C0 13.3627 0.0592879 13.5113 0.177864 13.6322C0.301595 13.7481 0.453681 13.806 0.634123 13.806ZM8.01933 13.806C8.19977 13.806 8.34928 13.7481 8.46786 13.6322C8.58643 13.5164 8.64572 13.3678 8.64572 13.1864C8.64572 13.0151 8.58386 12.8715 8.46013 12.7557C8.34155 12.6348 8.19462 12.5743 8.01933 12.5743C7.84405 12.5743 7.69454 12.6348 7.57081 12.7557C7.44708 12.8766 7.38521 13.0202 7.38521 13.1864C7.38521 13.3627 7.4445 13.5113 7.56307 13.6322C7.68681 13.7481 7.83889 13.806 8.01933 13.806ZM15.3736 13.806C15.5541 13.806 15.7036 13.7481 15.8221 13.6322C15.9407 13.5164 16 13.3678 16 13.1864C16 13.0151 15.9381 12.8715 15.8144 12.7557C15.6958 12.6348 15.5489 12.5743 15.3736 12.5743C15.1983 12.5743 15.0488 12.6348 14.9251 12.7557C14.8014 12.8766 14.7395 13.0202 14.7395 13.1864C14.7395 13.3627 14.8014 13.5113 14.9251 13.6322C15.0488 13.7481 15.1983 13.806 15.3736 13.806ZM4.32286 15.9144C4.5033 15.9144 4.65281 15.8564 4.77139 15.7406C4.89512 15.6247 4.95698 15.4786 4.95698 15.3023C4.95698 15.1259 4.89512 14.9773 4.77139 14.8564C4.64766 14.7406 4.49815 14.6826 4.32286 14.6826C4.15273 14.6826 4.00322 14.7431 3.87434 14.864C3.7506 14.9849 3.68874 15.131 3.68874 15.3023C3.68874 15.4736 3.7506 15.6171 3.87434 15.733C3.99807 15.8539 4.14758 15.9144 4.32286 15.9144ZM11.7081 15.9144C11.8885 15.9144 12.038 15.8564 12.1566 15.7406C12.2803 15.6247 12.3422 15.4786 12.3422 15.3023C12.3422 15.1259 12.2803 14.9773 12.1566 14.8564C12.0329 14.7406 11.8834 14.6826 11.7081 14.6826C11.5379 14.6826 11.3884 14.7431 11.2595 14.864C11.1358 14.9849 11.0739 15.131 11.0739 15.3023C11.0739 15.4736 11.1358 15.6171 11.2595 15.733C11.3833 15.8539 11.5328 15.9144 11.7081 15.9144ZM8.01933 18C8.19977 18 8.34928 17.9395 8.46786 17.8186C8.58643 17.7028 8.64572 17.5567 8.64572 17.3804C8.64572 17.2091 8.58386 17.063 8.46013 16.9421C8.34155 16.8212 8.19462 16.7607 8.01933 16.7607C7.84405 16.7607 7.69454 16.8212 7.57081 16.9421C7.44708 17.068 7.38521 17.2141 7.38521 17.3804C7.38521 17.5516 7.4445 17.6977 7.56307 17.8186C7.68681 17.9395 7.83889 18 8.01933 18Z"
		fill="currentColor"
	/>
</svg>
