<svg
	color="rgb(var(--foreground, 0, 0, 0))"
	viewBox="0 0 19 16"
	fill="none"
	xmlns="http://www.w3.org/2000/svg"
>
	<path
		d="M3.98336 15.5H14.2737C14.9429 15.5 15.562 15.3809 16.131 15.1427C16.7054 14.9097 17.2059 14.5815 17.6327 14.158C18.0648 13.7398 18.3993 13.2528 18.6364 12.6969C18.8788 12.1358 19 11.5323 19 10.8864C19 10.2353 18.8762 9.63182 18.6285 9.07597C18.3809 8.51482 18.0331 8.02779 17.5853 7.61488C17.1374 7.20196 16.6105 6.88168 16.0046 6.65405C15.4039 6.42112 14.7427 6.30466 14.0208 6.30466C13.4939 5.25649 12.7668 4.4333 11.8394 3.8351C10.9174 3.2316 9.87146 2.92986 8.70175 2.92986C7.93247 2.92986 7.20535 3.07014 6.52038 3.35071C5.83541 3.62599 5.22157 4.01509 4.67887 4.518C4.14143 5.02091 3.7041 5.61117 3.36689 6.28878C3.02967 6.96109 2.82682 7.69428 2.75832 8.48835C2.23142 8.63658 1.76775 8.87745 1.3673 9.21096C0.97213 9.54447 0.663893 9.9468 0.442596 10.4179C0.221298 10.8838 0.110649 11.3973 0.110649 11.9584C0.110649 12.6149 0.260815 13.2104 0.561148 13.7451C0.86675 14.2798 1.30671 14.7059 1.88103 15.0236C2.46062 15.3412 3.1614 15.5 3.98336 15.5ZM6.7812 12.8399C6.31226 12.8399 5.93289 12.7208 5.64309 12.4825C5.35857 12.239 5.15044 11.9187 5.01872 11.5217C4.88699 11.1194 4.82113 10.6853 4.82113 10.2194C4.82113 9.74828 4.88963 9.31683 5.02662 8.92509C5.16362 8.52806 5.37438 8.21308 5.6589 7.98015C5.94343 7.74722 6.30962 7.63076 6.75749 7.63076C7.28966 7.63076 7.70854 7.79222 8.01414 8.11514C8.32501 8.43806 8.48572 8.80863 8.49626 9.22684C8.50152 9.37507 8.46464 9.49418 8.38561 9.58417C8.30657 9.66887 8.20383 9.71122 8.07737 9.71122C7.8508 9.71122 7.70327 9.57094 7.63478 9.29037C7.59262 9.08391 7.50568 8.89333 7.37396 8.71863C7.2475 8.53865 7.04728 8.44865 6.77329 8.44865C6.50984 8.44865 6.30172 8.536 6.14892 8.71069C5.99612 8.8801 5.88547 9.09979 5.81697 9.36977C5.75374 9.63976 5.72213 9.92298 5.72213 10.2194C5.72213 10.5318 5.75374 10.8256 5.81697 11.1008C5.88547 11.3761 5.99612 11.5985 6.14892 11.7679C6.30172 11.9373 6.51248 12.022 6.7812 12.022C7.05519 12.022 7.25804 11.932 7.38977 11.752C7.52676 11.572 7.61633 11.3788 7.65849 11.1723C7.72698 10.8917 7.87451 10.7515 8.10108 10.7515C8.22754 10.7515 8.33028 10.7965 8.40932 10.8864C8.48835 10.9764 8.52524 11.0929 8.51997 11.2358C8.50943 11.654 8.34872 12.0273 8.03785 12.3555C7.73225 12.6784 7.31337 12.8399 6.7812 12.8399ZM10.8041 12.8399C10.2087 12.8399 9.73447 12.6043 9.38145 12.1331C9.03369 11.662 8.85982 11.0294 8.85982 10.2353C8.85982 9.43594 9.03369 8.80334 9.38145 8.33748C9.73447 7.86633 10.206 7.63076 10.7962 7.63076C11.3916 7.63076 11.8631 7.86633 12.2109 8.33748C12.5587 8.80334 12.7325 9.43594 12.7325 10.2353C12.7325 11.0294 12.5587 11.662 12.2109 12.1331C11.8631 12.6043 11.3942 12.8399 10.8041 12.8399ZM13.3569 13.1496C13.2779 13.1496 13.212 13.1231 13.1593 13.0701C13.1066 13.0119 13.0803 12.9404 13.0803 12.8557C13.0803 12.7393 13.1198 12.6413 13.1988 12.5619L13.8311 11.9187C13.9154 11.8235 13.9945 11.7255 14.0682 11.6249C14.1473 11.5244 14.1868 11.4291 14.1868 11.3391C14.1868 11.2014 14.1156 11.1326 13.9734 11.1326C13.8522 11.1326 13.7679 11.212 13.7205 11.3708C13.6941 11.4291 13.6546 11.4873 13.6019 11.5455C13.5545 11.5985 13.4807 11.6249 13.3806 11.6249C13.3016 11.6249 13.2304 11.5958 13.1672 11.5376C13.104 11.4741 13.0724 11.392 13.0724 11.2914C13.0724 11.1167 13.1514 10.9447 13.3095 10.7753C13.4728 10.6059 13.6915 10.5212 13.9655 10.5212C14.2289 10.5212 14.445 10.5979 14.6136 10.7515C14.7822 10.8997 14.8665 11.0903 14.8665 11.3232C14.8665 11.4873 14.8138 11.6461 14.7084 11.7996C14.6083 11.9532 14.4766 12.1093 14.3132 12.2681L14.0524 12.5461H14.6768C14.7558 12.5461 14.8243 12.5778 14.8823 12.6413C14.9402 12.6996 14.9692 12.7657 14.9692 12.8399C14.9692 12.9246 14.9402 12.9987 14.8823 13.0622C14.8243 13.1204 14.7558 13.1496 14.6768 13.1496H13.3569ZM10.8041 12.022C11.1255 12.022 11.3784 11.8658 11.5628 11.5535C11.7472 11.2358 11.8394 10.7965 11.8394 10.2353C11.8394 9.66887 11.7446 9.22949 11.5549 8.91715C11.3705 8.60482 11.1176 8.44865 10.7962 8.44865C10.4748 8.44865 10.2219 8.60482 10.0374 8.91715C9.85302 9.22949 9.76081 9.66887 9.76081 10.2353C9.76081 10.7965 9.85302 11.2358 10.0374 11.5535C10.2271 11.8658 10.4827 12.022 10.8041 12.022ZM1.10649 7.72605C1.41209 7.72605 1.67027 7.62017 1.88103 7.40842C2.09706 7.19137 2.20507 6.92668 2.20507 6.61435C2.20507 6.30731 2.09706 6.04791 1.88103 5.83616C1.67027 5.61911 1.41209 5.51059 1.10649 5.51059C0.800887 5.51059 0.540072 5.61911 0.324043 5.83616C0.108014 6.04791 0 6.30731 0 6.61435C0 6.92668 0.108014 7.19137 0.324043 7.40842C0.540072 7.62017 0.800887 7.72605 1.10649 7.72605ZM12.693 2.58841C12.9775 2.58841 13.2199 2.48782 13.4201 2.28666C13.6256 2.0802 13.7284 1.83404 13.7284 1.54817C13.7284 1.26231 13.6256 1.01615 13.4201 0.809688C13.2199 0.603229 12.9775 0.5 12.693 0.5C12.4085 0.5 12.1635 0.603229 11.958 0.809688C11.7578 1.01615 11.6577 1.26231 11.6577 1.54817C11.6577 1.83404 11.7578 2.0802 11.958 2.28666C12.1635 2.48782 12.4085 2.58841 12.693 2.58841ZM16.0204 5.33589C16.4472 5.33589 16.8107 5.18502 17.1111 4.88327C17.4114 4.58152 17.5616 4.21096 17.5616 3.77157C17.5616 3.34277 17.4114 2.9775 17.1111 2.67575C16.8107 2.36871 16.4472 2.21519 16.0204 2.21519C15.5831 2.21519 15.2116 2.36871 14.906 2.67575C14.6057 2.9775 14.4555 3.34277 14.4555 3.77157C14.4555 4.21096 14.6057 4.58152 14.906 4.88327C15.2116 5.18502 15.5831 5.33589 16.0204 5.33589Z"
		fill="currentColor"
	/>
</svg>
