<svg
	color="rgb(var(--foreground, 0, 0, 0))"
	viewBox="0 0 17 14"
	fill="none"
	xmlns="http://www.w3.org/2000/svg"
>
	<path
		d="M13.5844 14C14.2169 14 14.7915 13.8477 15.308 13.5432C15.8246 13.244 16.2357 12.838 16.5414 12.3251C16.8471 11.8176 17 11.2486 17 10.6182C17 10.1 16.8946 9.58977 16.6837 9.08758C16.4782 8.58539 16.2621 8.12326 16.0354 7.7012L14.2406 4.31139C14.0983 4.03358 13.8796 3.89468 13.5844 3.89468C13.2892 3.89468 13.0678 4.03358 12.9203 4.31139L11.1334 7.7012C10.9067 8.12326 10.6906 8.58539 10.4851 9.08758C10.2795 9.58977 10.1767 10.1 10.1767 10.6182C10.1767 11.2486 10.3296 11.8176 10.6353 12.3251C10.941 12.838 11.3495 13.244 11.8608 13.5432C12.3773 13.8477 12.9519 14 13.5844 14ZM3.2032 4.31139C3.90424 4.31139 4.54994 4.20988 5.14029 4.00687C5.73591 3.80385 6.30254 3.55276 6.84018 3.25358C7.37782 2.9544 7.91019 2.65522 8.43729 2.35604C8.96966 2.05152 9.52047 1.79775 10.0897 1.59473C10.659 1.39172 11.2757 1.29021 11.9399 1.29021C12.3246 1.29021 12.6989 1.33829 13.0626 1.43446C13.4263 1.53062 13.8084 1.69624 14.209 1.93131C14.3777 2.02748 14.5358 2.05152 14.6834 2.00343C14.831 1.95535 14.947 1.87254 15.0313 1.75501C15.1262 1.61076 15.1604 1.44514 15.1341 1.25816C15.1077 1.06583 14.9838 0.902881 14.7625 0.769319C14.3197 0.507537 13.8638 0.315207 13.3946 0.19233C12.9308 0.0641099 12.4459 0 11.9399 0C11.223 0 10.5641 0.101507 9.96324 0.304522C9.36234 0.507537 8.79044 0.761305 8.24753 1.06583C7.70989 1.36501 7.17752 1.66419 6.65042 1.96337C6.1286 2.26255 5.58568 2.51364 5.02169 2.71666C4.45769 2.91967 3.85153 3.02118 3.2032 3.02118C2.81315 3.02118 2.43627 2.9731 2.07257 2.87693C1.70888 2.78077 1.32673 2.61515 0.926136 2.38008C0.757464 2.28392 0.599335 2.25987 0.451747 2.30796C0.30416 2.35604 0.188198 2.44152 0.103862 2.5644C0.0142556 2.70864 -0.0173703 2.87693 0.00898463 3.06926C0.0353395 3.25625 0.156572 3.41385 0.372682 3.54207C0.820716 3.80385 1.27666 3.99886 1.7405 4.12708C2.20435 4.24995 2.69192 4.31139 3.2032 4.31139ZM3.21111 8.61477C3.83835 8.61477 4.4208 8.53196 4.95844 8.36634C5.49608 8.19538 6.01 7.98435 6.5002 7.73326C6.9904 7.47682 7.47006 7.21236 7.93918 6.9399C8.41357 6.66209 8.89586 6.41099 9.38606 6.18661C9.88154 5.96222 10.4034 5.80195 10.9515 5.70578C11.0728 5.47071 11.1966 5.23831 11.3232 5.00859C11.4497 4.77352 11.5735 4.53845 11.6948 4.30338C10.9937 4.33543 10.3507 4.45831 9.76557 4.67201C9.1805 4.88571 8.62704 5.13948 8.10522 5.43331C7.58866 5.72715 7.07474 6.01832 6.56345 6.30681C6.05744 6.59531 5.53034 6.83839 4.98216 7.03606C4.43925 7.22839 3.8489 7.32456 3.21111 7.32456C2.82105 7.32456 2.44418 7.27647 2.08048 7.18031C1.72205 7.0788 1.33991 6.91051 0.934042 6.67544C0.765371 6.57928 0.607241 6.55524 0.459654 6.60332C0.312066 6.6514 0.19874 6.73688 0.119675 6.85976C0.0247976 7.00401 -0.00946381 7.1723 0.0168911 7.36463C0.043246 7.55161 0.164479 7.70922 0.380589 7.83744C0.828623 8.09922 1.28456 8.29422 1.74841 8.42244C2.21753 8.55066 2.70509 8.61477 3.21111 8.61477ZM3.2032 12.9101C3.79882 12.9101 4.35491 12.8327 4.87147 12.6777C5.39329 12.5228 5.88877 12.3251 6.35788 12.0847C6.827 11.8443 7.28821 11.5932 7.74152 11.3314C8.19482 11.0696 8.65603 10.8292 9.12515 10.6102C9.10407 10.4339 9.11461 10.2068 9.15678 9.92902C9.19894 9.64587 9.25429 9.38676 9.32281 9.15169C8.79571 9.36539 8.2897 9.61382 7.80477 9.89697C7.32511 10.1748 6.84281 10.4446 6.35788 10.7064C5.87822 10.9681 5.38012 11.1872 4.86356 11.3635C4.347 11.5344 3.79355 11.6199 3.2032 11.6199C2.81315 11.6199 2.43627 11.5718 2.07257 11.4757C1.70888 11.3742 1.32673 11.2059 0.926136 10.9708C0.757464 10.8746 0.599335 10.8506 0.451747 10.8987C0.30416 10.9468 0.188198 11.0322 0.103862 11.1551C0.0142556 11.2994 -0.0173703 11.4677 0.00898463 11.66C0.0353395 11.847 0.156572 12.0046 0.372682 12.1328C0.820716 12.3946 1.27666 12.5896 1.7405 12.7178C2.20435 12.846 2.69192 12.9101 3.2032 12.9101Z"
		fill="currentColor"
	/>
</svg>
