<svg
	color="rgb(var(--foreground, 0, 0, 0))"
	viewBox="0 0 17 18"
	fill="none"
	xmlns="http://www.w3.org/2000/svg"
>
	<path
		d="M8.49999 2.43146C8.76603 2.43146 8.99217 2.33834 9.1784 2.15211C9.36995 1.96056 9.46572 1.73177 9.46572 1.46573C9.46572 1.19969 9.36995 0.973553 9.1784 0.787324C8.99217 0.595775 8.76603 0.5 8.49999 0.5C8.23395 0.5 8.00516 0.595775 7.81361 0.787324C7.62738 0.973553 7.53426 1.19969 7.53426 1.46573C7.53426 1.73177 7.62738 1.96056 7.81361 2.15211C8.00516 2.33834 8.23395 2.43146 8.49999 2.43146ZM11.7883 3.30939C12.0171 3.44241 12.2592 3.477 12.5145 3.41315C12.7753 3.34398 12.9721 3.19233 13.1052 2.95822C13.2382 2.72942 13.2701 2.48733 13.2009 2.23193C13.1318 1.97121 12.9828 1.77434 12.754 1.64132C12.5199 1.50297 12.2725 1.47105 12.0117 1.54554C11.7563 1.61471 11.5621 1.76369 11.4291 1.99249C11.2961 2.22661 11.2642 2.47136 11.3333 2.72676C11.4025 2.98216 11.5541 3.17637 11.7883 3.30939ZM14.1906 5.71174C14.3236 5.94586 14.5178 6.0975 14.7732 6.16667C15.0286 6.23584 15.2734 6.20392 15.5075 6.0709C15.7363 5.93788 15.8853 5.74367 15.9545 5.48827C16.0289 5.22755 15.997 4.98013 15.8587 4.74601C15.7257 4.51722 15.5315 4.36824 15.2761 4.29906C15.0207 4.22989 14.7759 4.26182 14.5418 4.39484C14.3077 4.52786 14.156 4.72473 14.0869 4.98545C14.0177 5.24085 14.0523 5.48295 14.1906 5.71174ZM15.0685 9.00001C15.0685 9.26605 15.1617 9.49484 15.3479 9.68639C15.5341 9.87262 15.7629 9.96574 16.0343 9.96574C16.3003 9.96574 16.5264 9.87262 16.7127 9.68639C16.9042 9.49484 17 9.26605 17 9.00001C17 8.72865 16.9042 8.49985 16.7127 8.31362C16.5264 8.12739 16.3003 8.03428 16.0343 8.03428C15.7629 8.03428 15.5341 8.12739 15.3479 8.31362C15.1617 8.49985 15.0685 8.72865 15.0685 9.00001ZM14.1906 12.2803C14.0523 12.5144 14.0177 12.7592 14.0869 13.0146C14.156 13.27 14.3077 13.4668 14.5418 13.6052C14.7706 13.7382 15.0127 13.7701 15.2681 13.701C15.5288 13.6318 15.7257 13.4801 15.8587 13.246C15.997 13.0172 16.0289 12.7751 15.9545 12.5197C15.8853 12.2643 15.7363 12.0675 15.5075 11.9291C15.2734 11.7961 15.0286 11.7642 14.7732 11.8333C14.5178 11.9025 14.3236 12.0515 14.1906 12.2803ZM11.7883 14.6906C11.5541 14.8183 11.4025 15.0099 11.3333 15.2653C11.2642 15.526 11.2961 15.7734 11.4291 16.0075C11.5621 16.2363 11.7563 16.3853 12.0117 16.4545C12.2725 16.529 12.5199 16.497 12.754 16.3587C12.9828 16.2257 13.1291 16.0315 13.193 15.7761C13.2621 15.5207 13.2329 15.2733 13.1052 15.0338C12.9721 14.805 12.7753 14.656 12.5145 14.5869C12.2592 14.5177 12.0171 14.5523 11.7883 14.6906ZM8.49999 15.5686C8.23395 15.5686 8.00516 15.6617 7.81361 15.8479C7.62738 16.0341 7.53426 16.2629 7.53426 16.5343C7.53426 16.8003 7.62738 17.0265 7.81361 17.2127C8.00516 17.4042 8.23395 17.5 8.49999 17.5C8.76603 17.5 8.99217 17.4042 9.1784 17.2127C9.36995 17.0265 9.46572 16.8003 9.46572 16.5343C9.46572 16.2629 9.36995 16.0341 9.1784 15.8479C8.99217 15.6617 8.76603 15.5686 8.49999 15.5686ZM5.21971 14.6906C4.98559 14.5523 4.73817 14.5177 4.47745 14.5869C4.22205 14.656 4.02784 14.805 3.89482 15.0338C3.7618 15.2679 3.72988 15.5127 3.79905 15.7681C3.86822 16.0288 4.01986 16.2257 4.25398 16.3587C4.48277 16.497 4.72487 16.529 4.98027 16.4545C5.24099 16.3853 5.43786 16.2363 5.57088 16.0075C5.7039 15.7734 5.73583 15.5287 5.66666 15.2733C5.59749 15.0179 5.4485 14.8236 5.21971 14.6906ZM2.80938 12.2803C2.67636 12.0515 2.48215 11.9025 2.22675 11.8333C1.97135 11.7642 1.72659 11.7961 1.49247 11.9291C1.26368 12.0568 1.11204 12.251 1.03754 12.5117C0.968373 12.7725 1.00296 13.0199 1.1413 13.254C1.27432 13.4828 1.46853 13.6318 1.72393 13.701C1.97933 13.7701 2.22675 13.7382 2.46618 13.6052C2.69498 13.4668 2.84396 13.27 2.91313 13.0146C2.9823 12.7592 2.94772 12.5144 2.80938 12.2803ZM1.93144 9.00001C1.93144 8.73397 1.83833 8.50783 1.6521 8.3216C1.46587 8.13005 1.23707 8.03428 0.965713 8.03428C0.699672 8.03428 0.470892 8.12739 0.279343 8.31362C0.0931143 8.49985 0 8.72865 0 9.00001C0 9.26605 0.0931143 9.49218 0.279343 9.67841C0.470892 9.86464 0.699672 9.96041 0.965713 9.96574C1.23707 9.96574 1.46587 9.87262 1.6521 9.68639C1.83833 9.49484 1.93144 9.26605 1.93144 9.00001ZM2.80938 5.71972C2.94772 5.48561 2.9823 5.24085 2.91313 4.98545C2.84396 4.72473 2.69498 4.52786 2.46618 4.39484C2.23207 4.26182 1.98465 4.22989 1.72393 4.29906C1.46853 4.36824 1.27432 4.51722 1.1413 4.74601C1.00296 4.98013 0.968373 5.22489 1.03754 5.48029C1.11204 5.73569 1.26368 5.93256 1.49247 6.0709C1.72659 6.20392 1.97135 6.23584 2.22675 6.16667C2.48215 6.0975 2.67636 5.94852 2.80938 5.71972ZM5.21971 3.30939C5.4485 3.17637 5.59749 2.98216 5.66666 2.72676C5.73583 2.47136 5.7039 2.22661 5.57088 1.99249C5.43786 1.76369 5.24099 1.61471 4.98027 1.54554C4.72487 1.47105 4.48277 1.50297 4.25398 1.64132C4.01986 1.77434 3.86822 1.96855 3.79905 2.22395C3.7352 2.47934 3.76712 2.7241 3.89482 2.95822C4.02784 3.19233 4.22205 3.34398 4.47745 3.41315C4.73817 3.48232 4.98559 3.44773 5.21971 3.30939ZM8.48403 14.0521C9.18638 14.0521 9.8435 13.9218 10.4554 13.661C11.0673 13.4003 11.6047 13.0385 12.0676 12.5756C12.5305 12.1127 12.8923 11.5753 13.153 10.9634C13.4138 10.3515 13.5415 9.69437 13.5361 8.99203C13.5361 8.28968 13.4058 7.63522 13.1451 7.02864C12.8843 6.41675 12.5225 5.87935 12.0596 5.41644C11.5967 4.95353 11.0593 4.59171 10.4474 4.33099C9.83552 4.07027 9.1784 3.93991 8.47605 3.93991C7.7737 3.93991 7.11658 4.07027 6.50468 4.33099C5.89811 4.58639 5.36337 4.94554 4.90046 5.40845C4.43755 5.87137 4.07573 6.40877 3.81501 7.02066C3.55961 7.63256 3.43191 8.28968 3.43191 8.99203C3.43191 9.6997 3.56227 10.3595 3.82299 10.9714C4.08371 11.5833 4.44287 12.1207 4.90046 12.5836C5.36337 13.0412 5.90077 13.4003 6.51267 13.661C7.12456 13.9218 7.78168 14.0521 8.48403 14.0521ZM8.48403 12.7193C7.96259 12.7193 7.47573 12.6261 7.02346 12.4399C6.57652 12.2484 6.18278 11.9823 5.84224 11.6418C5.50171 11.3013 5.23567 10.9049 5.04412 10.4526C4.85789 10.0003 4.76478 9.51347 4.76478 8.99203C4.76478 8.47591 4.85789 7.99171 5.04412 7.53944C5.23567 7.08717 5.49905 6.69077 5.83426 6.35024C6.17479 6.00971 6.56853 5.74367 7.01548 5.55212C7.46775 5.36057 7.95461 5.26479 8.47605 5.26479C8.99217 5.26479 9.47636 5.36057 9.92863 5.55212C10.3809 5.74367 10.7773 6.00971 11.1178 6.35024C11.4584 6.69077 11.7244 7.08717 11.916 7.53944C12.1128 7.99171 12.2113 8.47591 12.2113 8.99203C12.2113 9.51347 12.1155 10.0003 11.9239 10.4526C11.7324 10.8995 11.4663 11.2933 11.1258 11.6338C10.7853 11.9743 10.3889 12.2404 9.93661 12.4319C9.48966 12.6235 9.00547 12.7193 8.48403 12.7193Z"
		fill="currentColor"
	/>
</svg>
