<svg
	color="rgb(var(--foreground, 0, 0, 0))"
	viewBox="0 0 13 18"
	fill="none"
	xmlns="http://www.w3.org/2000/svg"
>
	<path
		d="M5.58435 0.5C4.9714 0.5 4.45391 0.683618 4.03188 1.05086C3.61488 1.41809 3.35865 1.90774 3.26319 2.5198L3.25565 3.02475L4.31072 4.09586V3.16247C4.31072 2.70342 4.42628 2.33363 4.65739 2.05311C4.89353 1.76748 5.20251 1.62466 5.58435 1.62466C5.95111 1.62466 6.25256 1.76748 6.4887 2.05311C6.72483 2.33363 6.8429 2.70342 6.8429 3.16247V6.66652L7.94319 7.79118V3.16247C7.94319 2.63201 7.84271 2.16787 7.64174 1.77003C7.4458 1.36709 7.16947 1.05596 6.81275 0.836634C6.46106 0.612211 6.05159 0.5 5.58435 0.5ZM5.58435 17.5C6.23749 17.5 6.84039 17.3495 7.39304 17.0486C7.9457 16.7528 8.4029 16.3498 8.76464 15.8398C9.1314 15.3297 9.36 14.7559 9.45043 14.1184C9.46551 14.0317 9.47304 13.9449 9.47304 13.8582C9.47807 13.7715 9.47807 13.6848 9.47304 13.5981L8.09391 12.198C8.19942 12.3969 8.2773 12.6061 8.32754 12.8254C8.3828 13.0447 8.41043 13.2717 8.41043 13.5063C8.41043 14.0368 8.28232 14.5188 8.02609 14.9523C7.76986 15.3909 7.42821 15.7403 7.00116 16.0005C6.57411 16.2606 6.10184 16.3906 5.58435 16.3906C5.05681 16.3906 4.577 16.2606 4.14493 16.0005C3.71787 15.7403 3.37623 15.3909 3.12 14.9523C2.86879 14.5188 2.74319 14.0368 2.74319 13.5063C2.74319 13.0269 2.85121 12.5806 3.06725 12.1674C3.28329 11.7543 3.58976 11.4125 3.98667 11.1422C4.10222 11.0606 4.18512 10.9764 4.23536 10.8897C4.2856 10.803 4.31072 10.6806 4.31072 10.5225V8.29613L3.2029 7.17147V10.0329C3.2029 10.1451 3.19034 10.2318 3.16522 10.293C3.1401 10.3542 3.08734 10.423 3.00696 10.4996C2.55981 10.9127 2.21816 11.3717 1.98203 11.8767C1.75092 12.3816 1.63536 12.9248 1.63536 13.5063C1.63536 14.0572 1.73585 14.5723 1.93681 15.0518C2.1428 15.5363 2.42667 15.9622 2.78841 16.3294C3.15015 16.6967 3.56966 16.9823 4.04696 17.1863C4.52425 17.3954 5.03672 17.5 5.58435 17.5ZM5.57681 15.3578C5.91343 15.3578 6.21739 15.2736 6.4887 15.1053C6.76502 14.9421 6.98609 14.7202 7.15188 14.4397C7.31768 14.1541 7.40058 13.8404 7.40058 13.4987C7.40058 13.1416 7.31014 12.8228 7.12928 12.5423C6.94841 12.2567 6.71227 12.0323 6.42087 11.869C6.30029 11.8027 6.21488 11.7339 6.16464 11.6625C6.11942 11.5911 6.09681 11.461 6.09681 11.2723V10.1017L5.05681 9.0459V11.2723C5.05681 11.461 5.03169 11.5911 4.98145 11.6625C4.93623 11.7339 4.85333 11.8027 4.73275 11.869C4.44135 12.0323 4.20522 12.2567 4.02435 12.5423C3.84348 12.8228 3.75304 13.1416 3.75304 13.4987C3.75304 13.8404 3.83343 14.1541 3.9942 14.4397C4.16 14.7202 4.38106 14.9421 4.65739 15.1053C4.93372 15.2736 5.24019 15.3578 5.57681 15.3578ZM9.36 3.30783H10.9954C11.131 3.30783 11.239 3.26448 11.3194 3.17777C11.3998 3.08596 11.44 2.9814 11.44 2.86409C11.44 2.74677 11.3998 2.64476 11.3194 2.55806C11.239 2.46625 11.131 2.42034 10.9954 2.42034H9.36C9.22937 2.42034 9.12135 2.46625 9.03594 2.55806C8.95556 2.64476 8.91536 2.74677 8.91536 2.86409C8.91536 2.9814 8.95556 3.08596 9.03594 3.17777C9.12135 3.26448 9.22937 3.30783 9.36 3.30783ZM9.36 5.4577H10.9954C11.131 5.4577 11.239 5.41434 11.3194 5.32763C11.3998 5.23582 11.44 5.13126 11.44 5.01395C11.44 4.89664 11.3998 4.79463 11.3194 4.70792C11.239 4.61611 11.131 4.57021 10.9954 4.57021H9.36C9.22937 4.57021 9.12135 4.61611 9.03594 4.70792C8.95556 4.79463 8.91536 4.89664 8.91536 5.01395C8.91536 5.13126 8.95556 5.23582 9.03594 5.32763C9.12135 5.41434 9.22937 5.4577 9.36 5.4577ZM9.36 7.60756H10.9954C11.131 7.60756 11.239 7.56421 11.3194 7.4775C11.3998 7.38569 11.44 7.28113 11.44 7.16382C11.44 7.0414 11.3998 6.93684 11.3194 6.85014C11.239 6.75833 11.131 6.71242 10.9954 6.71242H9.36C9.22937 6.71242 9.12135 6.75833 9.03594 6.85014C8.95556 6.93684 8.91536 7.0414 8.91536 7.16382C8.91536 7.28113 8.95556 7.38569 9.03594 7.4775C9.12135 7.56421 9.22937 7.60756 9.36 7.60756ZM12.0128 14.8452C12.1233 14.9625 12.2589 15.0212 12.4197 15.0212C12.5855 15.0212 12.7237 14.9625 12.8342 14.8452C12.9447 14.7279 13 14.5902 13 14.432C13 14.2688 12.9447 14.1286 12.8342 14.0113L0.994783 1.99955C0.884251 1.88224 0.746087 1.82358 0.58029 1.82358C0.419517 1.82358 0.281353 1.88224 0.165797 1.99955C0.0552657 2.11176 0 2.25203 0 2.42034C0 2.58356 0.0552657 2.72127 0.165797 2.83348L12.0128 14.8452Z"
		fill="currentColor"
	/>
</svg>
