<svg
	color="rgb(var(--foreground, 0, 0, 0))"
	viewBox="0 0 16 20"
	fill="none"
	xmlns="http://www.w3.org/2000/svg"
>
	<path
		d="M4.12396 20C4.69061 20 5.22053 19.8939 5.71373 19.6817C6.21217 19.4746 6.64765 19.1848 7.02017 18.8121C7.39794 18.4394 7.69176 18.0072 7.90163 17.5155C8.11674 17.029 8.2243 16.5062 8.2243 15.9472C8.2243 15.3571 8.10363 14.8059 7.86228 14.2935C7.62092 13.7811 7.26414 13.3152 6.79194 12.896C6.70799 12.8183 6.6529 12.7484 6.62666 12.6863C6.60043 12.6242 6.58731 12.5362 6.58731 12.4224L6.59518 5.40373C6.59518 4.87578 6.49025 4.41253 6.28038 4.01397C6.07575 3.61542 5.78718 3.30487 5.41466 3.0823C5.04214 2.85973 4.61191 2.74845 4.12396 2.74845C3.63076 2.74845 3.19528 2.85973 2.81751 3.0823C2.44499 3.30487 2.1538 3.61542 1.94393 4.01397C1.73406 4.41253 1.62912 4.87578 1.62912 5.40373L1.63699 12.4224C1.63699 12.5362 1.62387 12.6242 1.59764 12.6863C1.57141 12.7484 1.51631 12.8183 1.43237 12.896C0.965405 13.3152 0.608625 13.7811 0.362027 14.2935C0.120676 14.8059 0 15.3571 0 15.9472C0 16.5062 0.104935 17.029 0.314806 17.5155C0.529923 18.0072 0.826365 18.4394 1.20413 18.8121C1.5819 19.1848 2.02 19.4746 2.51845 19.6817C3.01689 19.8939 3.55206 20 4.12396 20ZM4.12396 18.8742C3.57305 18.8742 3.07198 18.7422 2.62076 18.4783C2.17478 18.2143 1.818 17.8597 1.55042 17.4146C1.28808 16.9695 1.15691 16.4803 1.15691 15.9472C1.15691 15.4607 1.26972 15.0078 1.49533 14.5885C1.72094 14.1693 2.04099 13.8225 2.45549 13.5481C2.57616 13.4653 2.66273 13.3799 2.7152 13.2919C2.76767 13.2039 2.7939 13.0797 2.7939 12.9193V5.45031C2.7939 4.98447 2.9172 4.60921 3.1638 4.32453C3.4104 4.03468 3.73045 3.88975 4.12396 3.88975C4.50697 3.88975 4.82178 4.03468 5.06837 4.32453C5.31497 4.60921 5.43827 4.98447 5.43827 5.45031V12.9193C5.43827 13.0797 5.46188 13.2039 5.5091 13.2919C5.56157 13.3799 5.65076 13.4653 5.77669 13.5481C6.19118 13.8225 6.51123 14.1693 6.73684 14.5885C6.96246 15.0078 7.07526 15.4607 7.07526 15.9472C7.07526 16.4803 6.94147 16.9695 6.67388 17.4146C6.4063 17.8597 6.04952 18.2143 5.60354 18.4783C5.15757 18.7422 4.66437 18.8742 4.12396 18.8742ZM4.11609 17.8261C4.46762 17.8261 4.78505 17.7407 5.06837 17.5699C5.35695 17.3991 5.5878 17.1713 5.76095 16.8866C5.93409 16.602 6.02066 16.2862 6.02066 15.9394C6.02066 15.5771 5.92622 15.2536 5.73734 14.9689C5.54845 14.6791 5.30185 14.4513 4.99754 14.2857C4.87162 14.2184 4.78242 14.1485 4.72996 14.0761C4.68274 13.9984 4.65913 13.8665 4.65913 13.6801V6.11025C4.65913 5.92391 4.60666 5.7764 4.50172 5.6677C4.39679 5.55383 4.26824 5.49689 4.11609 5.49689C3.96393 5.49689 3.83538 5.55383 3.73045 5.6677C3.62551 5.7764 3.57305 5.92391 3.57305 6.11025V13.6801C3.57305 13.8665 3.54681 13.9984 3.49434 14.0761C3.44712 14.1485 3.36055 14.2184 3.23463 14.2857C2.93032 14.4513 2.68372 14.6791 2.49484 14.9689C2.30595 15.2536 2.21151 15.5771 2.21151 15.9394C2.21151 16.2862 2.29546 16.602 2.46336 16.8866C2.6365 17.1713 2.86736 17.3991 3.15593 17.5699C3.4445 17.7407 3.76455 17.8261 4.11609 17.8261ZM7.87015 11.8944C8.58895 11.8944 9.24217 11.7236 9.82981 11.382C10.4227 11.0352 10.8923 10.5719 11.2386 9.99224C11.5849 9.40735 11.758 8.76035 11.758 8.05124C11.758 7.33696 11.5849 6.68996 11.2386 6.11025C10.8923 5.52536 10.4227 5.06211 9.82981 4.7205C9.24217 4.37371 8.58895 4.20031 7.87015 4.20031C7.51337 4.20031 7.16708 4.24689 6.83129 4.34006C6.50074 4.43323 6.18593 4.57039 5.88687 4.75155L6.51648 5.72205C6.71586 5.59783 6.93097 5.50207 7.16183 5.43478C7.39269 5.36749 7.62879 5.33385 7.87015 5.33385C8.38433 5.33385 8.84604 5.45549 9.25529 5.69876C9.66978 5.93685 9.99771 6.26035 10.2391 6.66925C10.4857 7.07816 10.609 7.53882 10.609 8.05124C10.609 8.55849 10.4857 9.01656 10.2391 9.42547C9.99771 9.83437 9.66978 10.1605 9.25529 10.4037C8.84604 10.6418 8.38433 10.7609 7.87015 10.7609C7.55534 10.7609 7.25103 10.7091 6.95721 10.6056C6.66864 10.5021 6.40367 10.3571 6.16232 10.1708V11.4984C6.42466 11.6278 6.69749 11.7262 6.98082 11.7935C7.26939 11.8608 7.56583 11.8944 7.87015 11.8944ZM7.87015 2.96584C8.04854 2.96584 8.20069 2.90114 8.32661 2.77174C8.45778 2.64234 8.52337 2.49224 8.52337 2.32143V0.64441C8.52337 0.468426 8.45778 0.318323 8.32661 0.194099C8.20069 0.0646998 8.04854 0 7.87015 0C7.69176 0 7.53698 0.0646998 7.40581 0.194099C7.27988 0.318323 7.21692 0.468426 7.21692 0.64441V2.32143C7.21692 2.49224 7.27988 2.64234 7.40581 2.77174C7.53698 2.90114 7.69176 2.96584 7.87015 2.96584ZM11.5062 4.46429C11.6268 4.58851 11.779 4.65321 11.9626 4.65838C12.1463 4.65838 12.3037 4.59369 12.4348 4.46429L13.6311 3.26863C13.7623 3.14441 13.8252 2.99431 13.82 2.81832C13.82 2.63716 13.757 2.48447 13.6311 2.36025C13.5104 2.23602 13.3583 2.17391 13.1746 2.17391C12.9962 2.17391 12.8441 2.23602 12.7182 2.36025L11.5062 3.56366C11.3802 3.68789 11.3173 3.83799 11.3173 4.01397C11.3225 4.18996 11.3855 4.34006 11.5062 4.46429ZM13.6547 8.69565H15.3547C15.533 8.69565 15.6852 8.63354 15.8111 8.50932C15.937 8.37992 16 8.22723 16 8.05124C16 7.87008 15.937 7.71739 15.8111 7.59317C15.6852 7.46894 15.533 7.40683 15.3547 7.40683H13.6547C13.4816 7.40683 13.3294 7.46894 13.1982 7.59317C13.0671 7.71739 13.0015 7.87008 13.0015 8.05124C13.0015 8.22723 13.0671 8.37992 13.1982 8.50932C13.3294 8.63354 13.4816 8.69565 13.6547 8.69565ZM12.7182 13.75C12.8441 13.8742 12.9962 13.9363 13.1746 13.9363C13.3583 13.9312 13.5104 13.8665 13.6311 13.7422C13.757 13.618 13.82 13.4679 13.82 13.2919C13.8252 13.1108 13.7623 12.9607 13.6311 12.8416L12.4191 11.646C12.2932 11.5269 12.141 11.4674 11.9626 11.4674C11.7842 11.4622 11.6321 11.5217 11.5062 11.646C11.3802 11.7702 11.3173 11.9229 11.3173 12.104C11.3173 12.28 11.3802 12.4301 11.5062 12.5543L12.7182 13.75Z"
		fill="currentColor"
	/>
</svg>
