<svg
	color="rgb(var(--foreground, 0, 0, 0))"
	viewBox="0 0 10 18"
	fill="none"
	xmlns="http://www.w3.org/2000/svg"
>
	<path
		d="M4.02767 17.5C4.58109 17.5 5.09864 17.3954 5.58032 17.1863C6.06713 16.9823 6.49244 16.6967 6.85626 16.3294C7.22521 15.9622 7.51217 15.5363 7.71714 15.0518C7.92724 14.5723 8.03228 14.0572 8.03228 13.5063C8.03228 12.9248 7.91442 12.3816 7.67871 11.8767C7.44299 11.3717 7.09454 10.9127 6.63336 10.4995C6.55137 10.423 6.49757 10.3542 6.47194 10.293C6.44632 10.2318 6.43351 10.1451 6.43351 10.0329L6.4412 3.11656C6.4412 2.60141 6.33871 2.14746 6.13374 1.75473C5.9339 1.36199 5.65206 1.05596 5.28824 0.836634C4.92442 0.612211 4.50423 0.5 4.02767 0.5C3.54599 0.5 3.12068 0.612211 2.75173 0.836634C2.38791 1.05596 2.10351 1.36199 1.89854 1.75473C1.69357 2.14746 1.59108 2.60141 1.59108 3.11656L1.59877 10.0329C1.59877 10.1451 1.58596 10.2318 1.56034 10.293C1.53472 10.3542 1.48091 10.423 1.39892 10.4995C0.942864 10.9127 0.594415 11.3717 0.353574 11.8767C0.117858 12.3816 0 12.9248 0 13.5063C0 14.0572 0.102485 14.5723 0.307456 15.0518C0.517551 15.5363 0.807072 15.9622 1.17602 16.3294C1.54497 16.6967 1.97284 16.9823 2.45965 17.1863C2.94645 17.3954 3.46913 17.5 4.02767 17.5ZM4.02767 16.3906C3.48962 16.3906 3.00026 16.2606 2.55957 16.0004C2.12401 15.7403 1.77556 15.3909 1.51422 14.9523C1.25801 14.5188 1.1299 14.0368 1.1299 13.5063C1.1299 13.0269 1.24007 12.5806 1.46042 12.1674C1.68076 11.7543 1.99334 11.4125 2.39816 11.1422C2.51601 11.0606 2.60056 10.9764 2.65181 10.8897C2.70305 10.803 2.72867 10.6806 2.72867 10.5225V3.16247C2.72867 2.70342 2.84909 2.33363 3.08993 2.05311C3.33077 1.76748 3.64335 1.62466 4.02767 1.62466C4.40174 1.62466 4.7092 1.76748 4.95004 2.05311C5.19088 2.33363 5.3113 2.70342 5.3113 3.16247V10.5225C5.3113 10.6806 5.33436 10.803 5.38048 10.8897C5.43172 10.9764 5.51883 11.0606 5.64181 11.1422C6.04663 11.4125 6.35921 11.7543 6.57955 12.1674C6.7999 12.5806 6.91007 13.0269 6.91007 13.5063C6.91007 14.0368 6.7794 14.5188 6.51806 14.9523C6.25673 15.3909 5.90828 15.7403 5.47271 16.0004C5.03715 16.2606 4.55547 16.3906 4.02767 16.3906ZM4.01998 15.3578C4.36331 15.3578 4.67333 15.2736 4.95004 15.1053C5.23187 14.9421 5.45734 14.7202 5.62644 14.4397C5.79554 14.1541 5.88009 13.8404 5.88009 13.4986C5.88009 13.1416 5.78786 12.8228 5.60338 12.5423C5.41891 12.2567 5.17807 12.0323 4.88086 11.869C4.75788 11.8027 4.67077 11.7339 4.61952 11.6625C4.57341 11.5911 4.55035 11.461 4.55035 11.2723V2.9865C4.55035 2.80288 4.4991 2.65752 4.39662 2.5504C4.29413 2.43819 4.16859 2.38209 4.01998 2.38209C3.87138 2.38209 3.74584 2.43819 3.64335 2.5504C3.54087 2.65752 3.48962 2.80288 3.48962 2.9865V11.2723C3.48962 11.461 3.464 11.5911 3.41276 11.6625C3.36664 11.7339 3.28209 11.8027 3.15911 11.869C2.8619 12.0323 2.62106 12.2567 2.43659 12.5423C2.25211 12.8228 2.15988 13.1416 2.15988 13.4986C2.15988 13.8404 2.24187 14.1541 2.40584 14.4397C2.57494 14.7202 2.80041 14.9421 3.08224 15.1053C3.36408 15.2736 3.67666 15.3578 4.01998 15.3578ZM7.87856 3.30783H9.5465C9.68486 3.30783 9.79503 3.26448 9.87702 3.17777C9.95901 3.08596 10 2.9814 10 2.86409C10 2.74677 9.95901 2.64476 9.87702 2.55806C9.79503 2.46625 9.68486 2.42034 9.5465 2.42034H7.87856C7.74532 2.42034 7.63515 2.46625 7.54804 2.55806C7.46605 2.64476 7.42506 2.74677 7.42506 2.86409C7.42506 2.9814 7.46605 3.08596 7.54804 3.17777C7.63515 3.26448 7.74532 3.30783 7.87856 3.30783ZM7.87856 5.4577H9.5465C9.68486 5.4577 9.79503 5.41434 9.87702 5.32763C9.95901 5.23582 10 5.13126 10 5.01395C10 4.89664 9.95901 4.79463 9.87702 4.70792C9.79503 4.61611 9.68486 4.57021 9.5465 4.57021H7.87856C7.74532 4.57021 7.63515 4.61611 7.54804 4.70792C7.46605 4.79463 7.42506 4.89664 7.42506 5.01395C7.42506 5.13126 7.46605 5.23582 7.54804 5.32763C7.63515 5.41434 7.74532 5.4577 7.87856 5.4577ZM7.87856 7.60756H9.5465C9.68486 7.60756 9.79503 7.56421 9.87702 7.4775C9.95901 7.38569 10 7.28113 10 7.16382C10 7.0414 9.95901 6.93684 9.87702 6.85013C9.79503 6.75833 9.68486 6.71242 9.5465 6.71242H7.87856C7.74532 6.71242 7.63515 6.75833 7.54804 6.85013C7.46605 6.93684 7.42506 7.0414 7.42506 7.16382C7.42506 7.28113 7.46605 7.38569 7.54804 7.4775C7.63515 7.56421 7.74532 7.60756 7.87856 7.60756ZM7.87856 9.75743H9.5465C9.68486 9.75743 9.79503 9.71407 9.87702 9.62736C9.95901 9.53555 10 9.43099 10 9.31368C10 9.19127 9.95901 9.08671 9.87702 9C9.79503 8.90819 9.68486 8.86229 9.5465 8.86229H7.87856C7.74532 8.86229 7.63515 8.90819 7.54804 9C7.46605 9.08671 7.42506 9.19127 7.42506 9.31368C7.42506 9.43099 7.46605 9.53555 7.54804 9.62736C7.63515 9.71407 7.74532 9.75743 7.87856 9.75743Z"
		fill="currentColor"
	/>
</svg>
