<svg
	color="rgb(var(--foreground, 0, 0, 0))"
	viewBox="0 0 15 20"
	fill="none"
	xmlns="http://www.w3.org/2000/svg"
>
	<path
		d="M4.22116 19.5C4.80117 19.5 5.34358 19.3872 5.8484 19.1616C6.35859 18.9415 6.80434 18.6334 7.18564 18.2372C7.57231 17.841 7.87305 17.3816 8.08787 16.8588C8.30806 16.3416 8.41815 15.7858 8.41815 15.1916C8.41815 14.5643 8.29463 13.9783 8.04759 13.4335C7.80055 12.8888 7.43536 12.3936 6.95202 11.9479C6.8661 11.8653 6.80971 11.7911 6.78285 11.725C6.756 11.659 6.74258 11.5654 6.74258 11.4444L6.75063 3.98306C6.75063 3.42731 6.64322 2.93759 6.42841 2.5139C6.21896 2.09021 5.92359 1.76006 5.54228 1.52346C5.16098 1.28135 4.72061 1.1603 4.22116 1.1603C3.71634 1.1603 3.27059 1.28135 2.88392 1.52346C2.50262 1.76006 2.20456 2.09021 1.98974 2.5139C1.77493 2.93759 1.66752 3.42731 1.66752 3.98306L1.67557 11.4444C1.67557 11.5654 1.66215 11.659 1.6353 11.725C1.60844 11.7911 1.55205 11.8653 1.46613 11.9479C0.988159 12.3936 0.62297 12.8888 0.37056 13.4335C0.12352 13.9783 0 14.5643 0 15.1916C0 15.7858 0.107409 16.3416 0.322226 16.8588C0.542414 17.3816 0.845843 17.841 1.23251 18.2372C1.61918 18.6334 2.06762 18.9415 2.57781 19.1616C3.088 19.3872 3.63578 19.5 4.22116 19.5ZM4.22116 18.3032C3.65726 18.3032 3.14439 18.1629 2.68253 17.8823C2.22604 17.6016 1.86085 17.2247 1.58696 16.7515C1.31844 16.2838 1.18418 15.7638 1.18418 15.1916C1.18418 14.6743 1.29964 14.1929 1.53057 13.7472C1.7615 13.3015 2.0891 12.9328 2.51336 12.6412C2.63688 12.5531 2.72549 12.4624 2.7792 12.3688C2.8329 12.2753 2.85975 12.1432 2.85975 11.9726V4.03258C2.85975 3.53736 2.98596 3.13843 3.23837 2.83579C3.49078 2.52766 3.81838 2.37359 4.22116 2.37359C4.6132 2.37359 4.93543 2.52766 5.18784 2.83579C5.44025 3.13843 5.56645 3.53736 5.56645 4.03258V11.9726C5.56645 12.1432 5.59062 12.2753 5.63895 12.3688C5.69266 12.4624 5.78395 12.5531 5.91284 12.6412C6.33711 12.9328 6.66471 13.3015 6.89563 13.7472C7.12656 14.1929 7.24203 14.6743 7.24203 15.1916C7.24203 15.7638 7.10508 16.2838 6.83119 16.7515C6.5573 17.2247 6.19211 17.6016 5.73562 17.8823C5.27913 18.1629 4.77431 18.3032 4.22116 18.3032ZM4.2131 17.189C4.57292 17.189 4.89783 17.0982 5.18784 16.9166C5.48321 16.7405 5.71951 16.5012 5.89673 16.1985C6.07396 15.8904 6.16257 15.552 6.16257 15.1833C6.16257 14.7981 6.0659 14.4542 5.87257 14.1516C5.67923 13.8435 5.42682 13.6014 5.11534 13.4253C4.98645 13.3537 4.89515 13.2795 4.84144 13.2024C4.79311 13.1254 4.76894 12.9851 4.76894 12.7815V11.1308C4.76894 10.9327 4.71524 10.7758 4.60783 10.6603C4.50042 10.5392 4.36885 10.4787 4.2131 10.4787C4.05736 10.4787 3.92579 10.5392 3.81838 10.6603C3.71097 10.7758 3.65726 10.9327 3.65726 11.1308V12.7815C3.65726 12.9851 3.63041 13.1254 3.57671 13.2024C3.52837 13.2795 3.43976 13.3537 3.31087 13.4253C2.99939 13.6014 2.74698 13.8435 2.55364 14.1516C2.3603 14.4542 2.26364 14.7981 2.26364 15.1833C2.26364 15.552 2.34956 15.8904 2.52142 16.1985C2.69864 16.5012 2.93494 16.7405 3.23031 16.9166C3.52569 17.0982 3.85328 17.189 4.2131 17.189ZM14.7257 9.31494L13.6302 8.67116L14.6049 8.0934C14.7069 8.03287 14.7741 7.94758 14.8063 7.83753C14.8439 7.72748 14.8358 7.62019 14.7821 7.51564C14.723 7.40559 14.6371 7.34231 14.5243 7.3258C14.4116 7.30379 14.2988 7.3258 14.186 7.39183L12.8165 8.19244L10.416 6.79757L12.8407 5.39444L14.2102 6.2033C14.3176 6.26933 14.425 6.29134 14.5324 6.26933C14.6452 6.24732 14.7365 6.18404 14.8063 6.0795C14.86 5.97495 14.868 5.86765 14.8304 5.7576C14.7982 5.64755 14.7311 5.56226 14.6291 5.50174L13.6543 4.92398L14.7338 4.2967C14.8573 4.21966 14.9379 4.12337 14.9754 4.00782C15.0184 3.89227 15.005 3.77396 14.9352 3.65291C14.8761 3.53736 14.7848 3.46858 14.6613 3.44657C14.5431 3.41906 14.4304 3.43831 14.3229 3.50434L13.2274 4.15639V3.01738C13.2274 2.89082 13.1898 2.78627 13.1146 2.70374C13.0394 2.6157 12.9454 2.57168 12.8326 2.57168C12.7038 2.57168 12.6017 2.6157 12.5265 2.70374C12.4567 2.79178 12.4218 2.90458 12.4218 3.04214L12.4138 4.64335L10.0132 6.08775L10.0373 3.21546L11.3987 2.4066C11.5115 2.33507 11.5867 2.24703 11.6243 2.14248C11.6619 2.03244 11.6512 1.92239 11.5921 1.81234C11.533 1.70779 11.4471 1.64451 11.3343 1.6225C11.2269 1.60049 11.1222 1.61975 11.0201 1.68028L10.0454 2.25804L10.0534 1.00348C10.0534 0.865914 10.0132 0.747611 9.93261 0.648566C9.85743 0.549522 9.75271 0.5 9.61844 0.5C9.48418 0.5 9.37677 0.549522 9.29622 0.648566C9.22103 0.747611 9.18344 0.865914 9.18344 1.00348L9.19149 2.25804L8.21676 1.68028C8.11472 1.61975 8.00731 1.60049 7.89453 1.6225C7.78713 1.64451 7.70388 1.70779 7.64481 1.81234C7.58573 1.92239 7.57499 2.03244 7.61259 2.14248C7.65018 2.24703 7.72537 2.33507 7.83814 2.4066L9.19955 3.21546L9.22372 6.08775L7.69314 5.16334V6.13727L8.81288 6.79757L7.69314 7.44961V8.4318L9.22372 7.50738L9.19955 10.3632L7.96703 11.0895C8.01537 11.1995 8.08518 11.3178 8.17648 11.4444C8.27315 11.5654 8.3725 11.6645 8.47454 11.7415L9.19149 11.3206L9.18344 12.5917C9.18344 12.7347 9.22103 12.8558 9.29622 12.9548C9.37677 13.0484 9.48418 13.0951 9.61844 13.0951C9.75271 13.0951 9.85743 13.0456 9.93261 12.9466C10.0132 12.8475 10.0534 12.7292 10.0534 12.5917L10.0454 11.3288L11.0121 11.8983C11.1141 11.9589 11.2188 11.9781 11.3262 11.9561C11.439 11.9341 11.5249 11.8708 11.584 11.7663C11.6485 11.6507 11.6592 11.5407 11.6162 11.4361C11.5787 11.3316 11.5035 11.2436 11.3907 11.172L10.0373 10.3632L10.0132 7.50738L12.3976 8.94353V10.553C12.3976 10.6851 12.4352 10.7951 12.5104 10.8831C12.5856 10.9712 12.685 11.0152 12.8085 11.0152C12.9213 11.0152 13.0152 10.9712 13.0904 10.8831C13.1656 10.7951 13.2032 10.6933 13.2032 10.5778L13.2113 9.4305L14.2907 10.0825C14.4142 10.1541 14.5351 10.1788 14.6532 10.1568C14.7767 10.1348 14.8707 10.066 14.9352 9.95048C15.005 9.82942 15.0184 9.71112 14.9754 9.59557C14.9325 9.47451 14.8492 9.38097 14.7257 9.31494Z"
		fill="currentColor"
	/>
</svg>
