<svg viewBox="0 0 36 24" fill="none" xmlns="http://www.w3.org/2000/svg">
	<path
		d="M36 3.429H0V0H36V3.429ZM36 6.857H0V10.286H36V6.857ZM36 13.715H0V17.144H36V13.715ZM0 20.571V24H36V20.571H0Z"
		fill="#73AF00"
	/>
	<path d="M0 10.286H18V0H0V10.286Z" fill="#FF4B55" />
	<path
		d="M36 3.429V6.857H18V3.43L36 3.429ZM0 13.714H36V10.286H0V13.714ZM0 20.571H36V17.144H0V20.571ZM8.34 9.33C8.35499 9.3722 8.38262 9.40875 8.41912 9.43469C8.45562 9.46064 8.49922 9.47471 8.544 9.475H9.544C9.59718 9.47468 9.64842 9.45502 9.68817 9.41969C9.72791 9.38436 9.75345 9.33577 9.76 9.283L9.764 9.255C9.78217 9.11641 9.83439 8.98448 9.916 8.871L10.728 7.742C10.7706 7.68195 10.7924 7.6096 10.79 7.536C10.7737 7.34453 10.7954 7.15172 10.8537 6.96863C10.9121 6.78554 11.0059 6.61575 11.13 6.469C11.1447 6.4531 11.156 6.43433 11.1631 6.41386C11.1702 6.39339 11.173 6.37167 11.1713 6.35006C11.1697 6.32845 11.1635 6.30743 11.1533 6.28832C11.1431 6.26921 11.129 6.25241 11.112 6.239C11.0879 6.22045 11.0588 6.20965 11.0284 6.20805C10.998 6.20644 10.9679 6.2141 10.942 6.23C10.6744 6.4462 10.4779 6.7378 10.378 7.067C10.3742 7.07729 10.3672 7.08613 10.3581 7.0923C10.349 7.09847 10.3383 7.10166 10.3273 7.10144C10.3163 7.10122 10.3057 7.0976 10.2968 7.09107C10.288 7.08454 10.2814 7.07543 10.278 7.065L9.99 6.21L9.882 4.36C9.88044 4.33202 9.87148 4.30495 9.85601 4.28158C9.84055 4.25821 9.81915 4.23937 9.794 4.227C9.77055 4.21596 9.7447 4.21098 9.71883 4.21251C9.69295 4.21404 9.66787 4.22204 9.64589 4.23577C9.6239 4.24949 9.60571 4.26852 9.59298 4.29109C9.58024 4.31367 9.57337 4.33908 9.573 4.365L9.526 5.87C9.52584 5.87994 9.52317 5.88968 9.51824 5.89831C9.51331 5.90694 9.50628 5.91418 9.4978 5.91937C9.48932 5.92456 9.47967 5.92752 9.46974 5.92798C9.45981 5.92844 9.44992 5.92638 9.441 5.922C9.43165 5.91707 9.42376 5.90976 9.41814 5.9008C9.41252 5.89185 9.40937 5.88157 9.409 5.871L9.317 3.927C9.31564 3.8958 9.30488 3.86575 9.28615 3.84076C9.26741 3.81578 9.24157 3.79704 9.212 3.787C9.18912 3.77966 9.16484 3.77778 9.1411 3.78151C9.11736 3.78523 9.09482 3.79446 9.07529 3.80846C9.05576 3.82245 9.03977 3.84082 9.02861 3.8621C9.01744 3.88338 9.01141 3.90697 9.011 3.931L8.973 5.855C8.973 5.87038 8.96689 5.88514 8.95601 5.89601C8.94513 5.90689 8.93038 5.913 8.915 5.913C8.89962 5.913 8.88487 5.90689 8.87399 5.89601C8.86311 5.88514 8.857 5.87038 8.857 5.855L8.795 4.125C8.79527 4.08389 8.77919 4.04436 8.75031 4.01511C8.72143 3.98585 8.68211 3.96927 8.641 3.969C8.59989 3.96873 8.56036 3.98481 8.53111 4.01369C8.50185 4.04257 8.48526 4.08189 8.485 4.123L8.395 5.979C8.39283 5.99292 8.38566 6.00558 8.37483 6.0146C8.36401 6.02363 8.35027 6.0284 8.33618 6.02803C8.32209 6.02767 8.30862 6.02218 8.29828 6.01261C8.28794 6.00303 8.28144 5.99002 8.28 5.976V4.813C8.28024 4.78748 8.2743 4.76227 8.26268 4.73955C8.25106 4.71682 8.2341 4.69725 8.21327 4.6825C8.19243 4.66776 8.16833 4.65828 8.14303 4.65489C8.11773 4.65149 8.09199 4.65427 8.068 4.663C8.03853 4.67398 8.01295 4.6934 7.99445 4.71883C7.97596 4.74426 7.96536 4.77458 7.964 4.806L7.852 7.363C7.83582 7.73074 7.89222 8.09806 8.018 8.444L8.34 9.33ZM8.68 1.755L8.525 2.255C8.52234 2.26327 8.5223 2.27216 8.52491 2.28045C8.52751 2.28874 8.53262 2.29601 8.53953 2.30128C8.54643 2.30654 8.55481 2.30954 8.56349 2.30984C8.57217 2.31015 8.58073 2.30776 8.588 2.303L9.008 1.998L9.427 2.303C9.43426 2.30815 9.44296 2.31087 9.45186 2.31075C9.46076 2.31064 9.4694 2.3077 9.47652 2.30236C9.48364 2.29701 9.48888 2.28955 9.49148 2.28104C9.49408 2.27253 9.49392 2.26341 9.491 2.255L9.335 1.755L9.75 1.444C9.75714 1.43882 9.76247 1.43153 9.76523 1.42316C9.768 1.41479 9.76806 1.40576 9.7654 1.39735C9.76274 1.38894 9.75751 1.38158 9.75044 1.37631C9.74337 1.37104 9.73482 1.36814 9.726 1.368L9.21 1.364L9.047 0.866C9.0446 0.857369 9.03944 0.849762 9.0323 0.844343C9.02517 0.838923 9.01646 0.835989 9.0075 0.835989C8.99854 0.835989 8.98983 0.838923 8.9827 0.844343C8.97556 0.849762 8.9704 0.857369 8.968 0.866L8.805 1.364L8.29 1.368C8.2811 1.36793 8.2724 1.37068 8.26517 1.37587C8.25794 1.38106 8.25254 1.38842 8.24976 1.39687C8.24698 1.40533 8.24695 1.41445 8.24969 1.42292C8.25243 1.43139 8.25779 1.43877 8.265 1.444L8.68 1.755ZM6.255 2.471L6.1 2.971C6.09741 2.97935 6.09748 2.98829 6.10022 2.99659C6.10295 3.00489 6.10821 3.01214 6.11525 3.01731C6.12229 3.02248 6.13078 3.02533 6.13951 3.02545C6.14825 3.02558 6.15681 3.02297 6.164 3.018L6.584 2.713L7.002 3.018C7.00919 3.02297 7.01775 3.02558 7.02649 3.02545C7.03522 3.02533 7.04371 3.02248 7.05075 3.01731C7.05779 3.01214 7.06305 3.00489 7.06578 2.99659C7.06852 2.98829 7.06859 2.97935 7.066 2.971L6.911 2.471L7.325 2.16C7.33258 2.15498 7.33832 2.14763 7.34137 2.13906C7.34441 2.1305 7.3446 2.12117 7.34189 2.11249C7.33919 2.10381 7.33374 2.09625 7.32636 2.09093C7.31899 2.08561 7.31009 2.08283 7.301 2.083L6.786 2.079L6.623 1.582C6.62096 1.57292 6.61588 1.5648 6.60861 1.55898C6.60134 1.55317 6.59231 1.55 6.583 1.55C6.57369 1.55 6.56466 1.55317 6.55739 1.55898C6.55012 1.5648 6.54504 1.57292 6.543 1.582L6.381 2.079L5.865 2.083C5.85591 2.08283 5.84701 2.08561 5.83964 2.09093C5.83226 2.09625 5.82681 2.10381 5.82411 2.11249C5.8214 2.12117 5.82159 2.1305 5.82463 2.13906C5.82768 2.14763 5.83342 2.15498 5.841 2.16L6.255 2.471ZM11.164 2.471L11.008 2.971C11.0054 2.97935 11.0055 2.98829 11.0082 2.99659C11.011 3.00489 11.0162 3.01214 11.0233 3.01731C11.0303 3.02248 11.0388 3.02533 11.0475 3.02545C11.0563 3.02558 11.0648 3.02297 11.072 3.018L11.492 2.713L11.91 3.018C11.9172 3.02297 11.9257 3.02558 11.9345 3.02545C11.9432 3.02533 11.9517 3.02248 11.9587 3.01731C11.9658 3.01214 11.971 3.00489 11.9738 2.99659C11.9765 2.98829 11.9766 2.97935 11.974 2.971L11.819 2.471L12.233 2.16C12.2406 2.15498 12.2463 2.14763 12.2494 2.13906C12.2524 2.1305 12.2526 2.12117 12.2499 2.11249C12.2472 2.10381 12.2417 2.09625 12.2344 2.09093C12.227 2.08561 12.2181 2.08283 12.209 2.083L11.694 2.079L11.531 1.582C11.529 1.57292 11.5239 1.5648 11.5166 1.55898C11.5093 1.55317 11.5003 1.55 11.491 1.55C11.4817 1.55 11.4727 1.55317 11.4654 1.55898C11.4581 1.5648 11.453 1.57292 11.451 1.582L11.289 2.079L10.773 2.083C10.7639 2.08283 10.755 2.08561 10.7476 2.09093C10.7403 2.09625 10.7348 2.10381 10.7321 2.11249C10.7294 2.12117 10.7296 2.1305 10.7326 2.13906C10.7357 2.14763 10.7414 2.15498 10.749 2.16L11.164 2.471ZM12.79 4.353L12.634 4.853C12.6314 4.86135 12.6315 4.87029 12.6342 4.87859C12.637 4.88689 12.6422 4.89414 12.6493 4.89931C12.6563 4.90448 12.6648 4.90733 12.6735 4.90745C12.6823 4.90758 12.6908 4.90497 12.698 4.9L13.118 4.595L13.537 4.9C13.5442 4.9046 13.5526 4.9069 13.5611 4.9066C13.5697 4.90629 13.5779 4.90339 13.5848 4.89829C13.5916 4.89318 13.5967 4.88612 13.5994 4.87802C13.6022 4.86993 13.6024 4.8612 13.6 4.853L13.445 4.353L13.859 4.041C13.8661 4.03582 13.8715 4.02853 13.8742 4.02016C13.877 4.01179 13.8771 4.00276 13.8744 3.99435C13.8717 3.98594 13.8665 3.97858 13.8594 3.97331C13.8524 3.96804 13.8438 3.96514 13.835 3.965L13.32 3.961L13.157 3.463C13.155 3.45392 13.1499 3.4458 13.1426 3.43998C13.1353 3.43417 13.1263 3.431 13.117 3.431C13.1077 3.431 13.0987 3.43417 13.0914 3.43998C13.0841 3.4458 13.079 3.45392 13.077 3.463L12.915 3.961L12.399 3.965C12.3902 3.96514 12.3816 3.96804 12.3746 3.97331C12.3675 3.97858 12.3623 3.98594 12.3596 3.99435C12.3569 4.00276 12.357 4.01179 12.3598 4.02016C12.3625 4.02853 12.3679 4.03582 12.375 4.041L12.79 4.353ZM4.494 4.353L4.339 4.853C4.33664 4.8612 4.33683 4.86993 4.33955 4.87802C4.34228 4.88612 4.3474 4.89318 4.35424 4.89829C4.36109 4.90339 4.36932 4.90629 4.37786 4.9066C4.38639 4.9069 4.39481 4.9046 4.402 4.9L4.822 4.595L5.242 4.9C5.24919 4.9046 5.25761 4.9069 5.26614 4.9066C5.27468 4.90629 5.28291 4.90339 5.28976 4.89829C5.2966 4.89318 5.30172 4.88612 5.30445 4.87802C5.30717 4.86993 5.30736 4.8612 5.305 4.853L5.149 4.353L5.564 4.041C5.57114 4.03582 5.57647 4.02853 5.57923 4.02016C5.582 4.01179 5.58205 4.00276 5.5794 3.99435C5.57674 3.98594 5.57151 3.97858 5.56444 3.97331C5.55737 3.96804 5.54882 3.96514 5.54 3.965L5.024 3.961L4.861 3.463C4.8586 3.45437 4.85344 3.44676 4.8463 3.44134C4.83917 3.43592 4.83046 3.43299 4.8215 3.43299C4.81254 3.43299 4.80383 3.43592 4.7967 3.44134C4.78956 3.44676 4.7844 3.45437 4.782 3.463L4.619 3.961L4.104 3.965C4.09518 3.96514 4.08663 3.96804 4.07956 3.97331C4.07249 3.97858 4.06726 3.98594 4.0646 3.99435C4.06195 4.00276 4.062 4.01179 4.06477 4.02016C4.06753 4.02853 4.07286 4.03582 4.08 4.041L4.494 4.353ZM13.624 5.931C13.6216 5.92237 13.6164 5.91476 13.6093 5.90934C13.6022 5.90392 13.5935 5.90099 13.5845 5.90099C13.5755 5.90099 13.5668 5.90392 13.5597 5.90934C13.5526 5.91476 13.5474 5.92237 13.545 5.931L13.382 6.428L12.867 6.432C12.8579 6.43183 12.849 6.43461 12.8416 6.43993C12.8343 6.44525 12.8288 6.45281 12.8261 6.46149C12.8234 6.47017 12.8236 6.4795 12.8266 6.48806C12.8297 6.49663 12.8354 6.50398 12.843 6.509L13.257 6.82L13.102 7.32C13.0994 7.32835 13.0995 7.33729 13.1022 7.34559C13.105 7.35389 13.1102 7.36114 13.1173 7.36631C13.1243 7.37148 13.1328 7.37433 13.1415 7.37445C13.1503 7.37458 13.1588 7.37197 13.166 7.367L13.585 7.062L14.005 7.367C14.0122 7.3716 14.0206 7.3739 14.0291 7.3736C14.0377 7.37329 14.0459 7.37039 14.0528 7.36529C14.0596 7.36018 14.0647 7.35311 14.0674 7.34502C14.0702 7.33693 14.0704 7.3282 14.068 7.32L13.913 6.82L14.327 6.509C14.3346 6.50398 14.3403 6.49663 14.3434 6.48806C14.3464 6.4795 14.3466 6.47017 14.3439 6.46149C14.3412 6.45281 14.3357 6.44525 14.3284 6.43993C14.321 6.43461 14.3121 6.43183 14.303 6.432L13.787 6.428L13.624 5.931ZM3.862 6.821L3.707 7.321C3.70471 7.32928 3.70501 7.33806 3.70786 7.34616C3.71072 7.35426 3.71599 7.3613 3.72297 7.36631C3.72994 7.37132 3.73829 7.37408 3.74687 7.3742C3.75546 7.37432 3.76388 7.37181 3.771 7.367L4.19 7.062L4.61 7.367C4.61719 7.3716 4.62561 7.3739 4.63414 7.3736C4.64268 7.37329 4.65091 7.37039 4.65776 7.36529C4.6646 7.36018 4.66972 7.35311 4.67245 7.34502C4.67517 7.33693 4.67536 7.3282 4.673 7.32L4.518 6.82L4.932 6.509C4.93958 6.50398 4.94532 6.49663 4.94837 6.48806C4.95141 6.4795 4.9516 6.47017 4.94889 6.46149C4.94619 6.45281 4.94074 6.44525 4.93336 6.43993C4.92599 6.43461 4.91709 6.43183 4.908 6.432L4.392 6.428L4.229 5.931C4.2266 5.92237 4.22144 5.91476 4.2143 5.90934C4.20717 5.90392 4.19846 5.90099 4.1895 5.90099C4.18054 5.90099 4.17183 5.90392 4.1647 5.90934C4.15756 5.91476 4.1524 5.92237 4.15 5.931L3.987 6.428L3.472 6.432C3.46291 6.43183 3.45401 6.43461 3.44664 6.43993C3.43926 6.44525 3.43381 6.45281 3.43111 6.46149C3.4284 6.47017 3.42859 6.4795 3.43163 6.48806C3.43468 6.49663 3.44042 6.50398 3.448 6.509L3.862 6.821Z"
		fill="#F5F5F5"
	/>
</svg>
