<svg viewBox="0 0 36 24" fill="none" xmlns="http://www.w3.org/2000/svg">
	<path d="M0 16H36V24H0V16Z" fill="#73AF00" />
	<path d="M0 0H36V8H0V0Z" fill="#82AFFF" />
	<path d="M0 8H36V16H0V8Z" fill="#FF4B55" />
	<path
		d="M20.323 14.274C20.033 14.5845 19.6823 14.8321 19.2927 15.0016C18.9031 15.171 18.4829 15.2586 18.058 15.259C17.2266 15.2437 16.4335 14.9063 15.8458 14.3179C15.2582 13.7295 14.9218 12.936 14.9076 12.1046C14.8933 11.2731 15.2023 10.4686 15.7694 9.86036C16.3365 9.25217 17.1176 8.8878 17.948 8.844C18.3905 8.82864 18.8312 8.90825 19.2403 9.07746C19.6495 9.24668 20.0176 9.50157 20.32 9.825C20.33 9.83612 20.3356 9.85047 20.3359 9.86541C20.3361 9.88036 20.331 9.89489 20.3213 9.90633C20.3117 9.91777 20.2983 9.92535 20.2835 9.92768C20.2688 9.93001 20.2537 9.92693 20.241 9.919C19.8317 9.63467 19.3453 9.4822 18.847 9.482C18.1746 9.49527 17.5342 9.77171 17.0633 10.252C16.5924 10.7322 16.3287 11.3779 16.3287 12.0505C16.3287 12.7231 16.5924 13.3688 17.0633 13.849C17.5342 14.3293 18.1746 14.6057 18.847 14.619C19.346 14.6191 19.8331 14.4667 20.243 14.182C20.2553 14.1721 20.2709 14.1673 20.2867 14.1687C20.3024 14.1701 20.317 14.1775 20.3273 14.1894C20.3377 14.2014 20.343 14.2168 20.3422 14.2326C20.3414 14.2484 20.3345 14.2632 20.323 14.274ZM22.506 11.946L21.77 11.68L22.106 10.962C22.112 10.9502 22.1141 10.9368 22.112 10.9238C22.11 10.9107 22.1039 10.8987 22.0946 10.8893C22.0853 10.8799 22.0733 10.8736 22.0603 10.8714C22.0472 10.8692 22.0339 10.8712 22.022 10.877L21.317 11.219L21.055 10.469C21.051 10.4565 21.0431 10.4456 21.0325 10.4379C21.0219 10.4302 21.0091 10.4261 20.996 10.4261C20.9829 10.4261 20.9701 10.4302 20.9595 10.4379C20.9489 10.4456 20.941 10.4565 20.937 10.469L20.676 11.219L19.97 10.877C19.9582 10.8715 19.9449 10.8698 19.9321 10.8722C19.9193 10.8746 19.9075 10.8808 19.8984 10.8901C19.8893 10.8995 19.8833 10.9114 19.8813 10.9243C19.8793 10.9371 19.8812 10.9503 19.887 10.962L20.222 11.68L19.486 11.946C19.4738 11.9505 19.4632 11.9587 19.4557 11.9695C19.4483 11.9802 19.4443 11.9929 19.4443 12.006C19.4443 12.0191 19.4483 12.0318 19.4557 12.0425C19.4632 12.0533 19.4738 12.0615 19.486 12.066L20.222 12.333L19.887 13.051C19.8816 13.0627 19.8799 13.0757 19.8821 13.0883C19.8843 13.101 19.8903 13.1127 19.8993 13.1218C19.9083 13.131 19.92 13.1371 19.9326 13.1395C19.9452 13.1418 19.9583 13.1403 19.97 13.135L20.676 12.795L20.937 13.543C20.941 13.5555 20.9489 13.5664 20.9595 13.5741C20.9701 13.5818 20.9829 13.5859 20.996 13.5859C21.0091 13.5859 21.0219 13.5818 21.0325 13.5741C21.0431 13.5664 21.051 13.5555 21.055 13.543L21.317 12.794L22.022 13.135C22.0338 13.1406 22.047 13.1424 22.0598 13.1402C22.0726 13.138 22.0845 13.1319 22.0937 13.1227C22.1029 13.1135 22.109 13.1016 22.1112 13.0888C22.1134 13.076 22.1116 13.0628 22.106 13.051L21.77 12.333L22.506 12.066C22.5182 12.0615 22.5288 12.0533 22.5363 12.0425C22.5437 12.0318 22.5477 12.0191 22.5477 12.006C22.5477 11.9929 22.5437 11.9802 22.5363 11.9695C22.5288 11.9587 22.5182 11.9505 22.506 11.946Z"
		fill="#F5F5F5"
	/>
</svg>
