<svg viewBox="0 0 36 24" fill="none" xmlns="http://www.w3.org/2000/svg">
	<path d="M36 24H0V0H36" fill="#73AF00" />
	<path
		d="M15.517 3.79C16.586 3.79915 17.6427 4.01878 18.6268 4.43633C19.6109 4.85388 20.5031 5.46118 21.2524 6.22356C22.0018 6.98594 22.5937 7.88846 22.9942 8.87958C23.3948 9.87071 23.5962 10.931 23.587 12C23.5989 13.0673 23.3989 14.1263 22.9987 15.1157C22.5985 16.1052 22.006 17.0054 21.2555 17.7643C20.505 18.5232 19.6114 19.1257 18.6265 19.5369C17.6416 19.9481 16.5848 20.1598 15.5175 20.1598C14.4502 20.1598 13.3934 19.9481 12.4085 19.5369C11.4236 19.1257 10.53 18.5232 9.77948 17.7643C9.02897 17.0054 8.43647 16.1052 8.03627 15.1157C7.63607 14.1263 7.43612 13.0673 7.448 12C7.43877 10.931 7.64019 9.87071 8.04075 8.87958C8.44132 7.88846 9.03319 6.98594 9.78256 6.22356C10.5319 5.46118 11.4241 4.85388 12.4082 4.43633C13.3923 4.01878 14.448 3.79915 15.517 3.79Z"
		fill="#FF4B55"
	/>
</svg>
