<svg viewBox="0 0 36 24" fill="none" xmlns="http://www.w3.org/2000/svg">
	<path d="M36 0H0V24H36" fill="#FF6E55" />
	<path d="M0 0V24L36 0" fill="#FFCC33" />
	<path
		d="M26.19 6.692C26.879 6.907 27.436 6.207 27.78 6.226C28.566 6.268 28.774 6.005 28.774 6.005C28.4742 6.04296 28.1698 6.01671 27.881 5.928C27.7549 5.89947 27.6235 5.90489 27.5002 5.94371C27.3768 5.98253 27.266 6.05337 27.179 6.149C27.0478 6.22091 26.9006 6.25873 26.751 6.259C26.8692 6.17972 26.9767 6.08562 27.071 5.979C27.221 5.784 27.496 5.749 27.731 5.673C27.8096 5.63522 27.8797 5.58188 27.9371 5.51622C27.9946 5.45057 28.038 5.37395 28.065 5.291C28.0061 5.35703 27.9316 5.40721 27.8482 5.43691C27.7649 5.46662 27.6754 5.4749 27.588 5.461C27.238 5.444 27.121 5.427 26.887 5.681C26.8075 5.76081 26.7135 5.82464 26.61 5.869C26.609 5.75129 26.6235 5.63395 26.653 5.52C26.711 5.342 26.979 5.197 26.995 4.84C27.012 4.483 27.029 4.517 27.229 4.305C27.429 4.093 27.489 3.693 27.429 3.82C27.369 3.947 27.104 4.1 26.879 4.313C26.654 4.526 26.812 4.763 26.695 4.951C26.578 5.138 26.302 5.181 26.285 5.529C26.279 5.64963 26.2454 5.76729 26.187 5.873C25.815 5.806 25.176 5.896 24.801 5.816C24.8447 5.79437 24.8902 5.77664 24.937 5.763C24.9511 5.67243 24.9342 5.57976 24.889 5.5C24.8459 5.41495 24.7709 5.35045 24.6804 5.32064C24.5898 5.29083 24.4912 5.29815 24.406 5.341L24.4 5.344C24.3296 5.38699 24.2779 5.45477 24.255 5.534C24.0642 5.34505 23.821 5.21787 23.557 5.169C23.3823 5.16082 23.2074 5.18246 23.04 5.233C22.388 4.61134 21.5503 4.22041 20.655 4.12C21.0214 4.20989 21.3733 4.3513 21.7 4.54C21.6676 4.5571 21.6371 4.57755 21.609 4.601C21.4083 4.5005 21.1905 4.43844 20.967 4.418C21.1632 4.47812 21.3463 4.57445 21.507 4.702C21.4421 4.78226 21.3858 4.86906 21.339 4.961C21.1977 4.78348 20.9962 4.66389 20.7727 4.62483C20.5492 4.58576 20.3191 4.62994 20.126 4.749C20.2334 4.72511 20.3444 4.72261 20.4527 4.74165C20.561 4.76069 20.6645 4.80089 20.7573 4.85996C20.8501 4.91902 20.9303 4.9958 20.9934 5.08589C21.0565 5.17598 21.1012 5.27762 21.125 5.385C21.1297 5.405 21.1333 5.42567 21.136 5.447C20.999 5.35284 20.8564 5.26702 20.709 5.19C20.729 5.175 20.738 5.161 20.761 5.146C20.761 5.146 20.712 5.148 20.644 5.158C19.647 4.67 19.157 5.055 19.157 5.055C19.561 5.01522 19.9681 5.08717 20.334 5.263C20.2509 5.30776 20.188 5.38261 20.1582 5.47221C20.1285 5.56182 20.1341 5.65941 20.174 5.745C19.6585 5.56478 19.1117 5.49195 18.567 5.531C18.4861 5.54766 18.4098 5.58157 18.3433 5.63042C18.2767 5.67927 18.2214 5.7419 18.1813 5.81404C18.1411 5.88618 18.117 5.96614 18.1106 6.04845C18.1041 6.13076 18.1155 6.21349 18.144 6.291C18.1515 6.17288 18.1983 6.06065 18.2769 5.97221C18.3556 5.88377 18.4616 5.8242 18.578 5.803C19.1739 5.86402 19.7601 5.99698 20.324 6.199C20.3021 6.22658 20.2808 6.25458 20.26 6.283C20.0531 6.2273 19.837 6.21437 19.625 6.245C19.3534 6.2688 19.0799 6.23402 18.823 6.143C18.9803 6.33247 19.197 6.46322 19.438 6.514C19.2154 6.53646 18.9917 6.54514 18.768 6.54C18.4894 6.5245 18.2111 6.57492 17.9557 6.68717C17.7003 6.79941 17.475 6.97032 17.298 7.186C17.6864 6.97591 18.1408 6.92327 18.567 7.039C18.6919 7.05364 18.8179 7.05465 18.943 7.042C18.8616 7.26945 18.8095 7.50636 18.788 7.747C18.4216 8.00517 18.1453 8.37168 17.998 8.795C18.1658 8.64453 18.3629 8.53046 18.577 8.46C18.5861 8.60125 18.5427 8.74089 18.455 8.852C18.199 9.237 18.344 9.385 18.344 9.385C18.4163 9.2768 18.5118 9.18604 18.6235 9.11928C18.7353 9.05252 18.8604 9.01144 18.99 8.999C18.967 9.11419 18.9701 9.23306 18.999 9.34691C19.0279 9.46075 19.0819 9.5667 19.157 9.657L19.347 9.43C19.3505 9.73294 19.4381 10.0289 19.6 10.285C19.5659 10.3038 19.5292 10.3173 19.491 10.325C19.3211 10.3608 19.1565 10.4179 19.001 10.495C19.1309 10.4657 19.267 10.4856 19.383 10.551C19.5172 10.662 19.6869 10.721 19.861 10.717C19.8312 10.8503 19.8336 10.9888 19.868 11.121C19.757 11.0922 19.6426 11.079 19.528 11.082C19.4116 11.0814 19.2995 11.038 19.213 10.96C19.3343 11.1352 19.4741 11.2968 19.63 11.442C19.4203 11.4142 19.2158 11.3559 19.023 11.269C18.7766 10.9857 18.5004 10.7299 18.199 10.506L18.255 10.722C18.255 10.722 18.088 10.71 17.787 10.336C17.648 10.1424 17.4698 9.98025 17.264 9.86C17.3719 10.0278 17.4402 10.2179 17.464 10.416C17.2111 10.4087 16.959 10.4491 16.721 10.535C16.6343 10.525 16.5473 10.518 16.46 10.514C16.3789 10.348 16.2571 10.2053 16.106 10.099C16.1248 10.2375 16.1231 10.378 16.101 10.516H16.079C15.975 10.436 15.8795 10.3455 15.794 10.246C15.6546 10.1084 15.4712 10.0241 15.276 10.008C15.451 10.331 14.926 10.824 14.926 10.824C14.549 10.688 14.182 11.045 14.015 11.181C13.7864 11.3048 13.5417 11.3963 13.288 11.453C13.509 11.5357 13.7465 11.5648 13.981 11.538C13.7097 11.7438 13.4848 12.0045 13.321 12.303L13.722 12.125C13.5536 12.4181 13.3599 12.6958 13.143 12.955C12.9373 13.1268 12.6983 13.2542 12.441 13.329C12.714 13.4317 13.015 13.4317 13.288 13.329C13.108 13.6783 12.8875 14.0052 12.631 14.303C12.8123 14.2621 12.9912 14.2114 13.167 14.151C13.117 14.244 13.062 14.341 12.999 14.441C12.57 14.734 11.918 15.108 11.918 15.108C12.1062 15.1339 12.2965 15.1406 12.486 15.128C12.394 15.232 12.2937 15.338 12.185 15.446C11.7681 15.4872 11.355 15.5598 10.949 15.663L11.205 15.947C10.4735 15.7983 9.71952 15.7983 8.988 15.947C9.53956 15.9741 10.0823 16.0966 10.592 16.309C9.91953 16.3973 9.25625 16.5452 8.61 16.751C9.03995 16.8423 9.48465 16.8385 9.913 16.74C9.16231 17.1755 8.37619 17.5468 7.563 17.85C8.07081 17.819 8.57059 17.7083 9.044 17.522C8.43374 18.0295 7.78995 18.4952 7.117 18.916C8.38275 18.672 9.56576 18.1105 10.555 17.284L10.643 17.258L10.08 17.918C10.4997 17.8201 10.8894 17.6221 11.216 17.341L10.815 17.861C11.5337 17.5918 12.1641 17.1295 12.637 16.525C13.025 16.3613 13.3768 16.1223 13.672 15.822L14.173 15.839L14.087 16.204C13.914 16.2022 13.7431 16.2423 13.589 16.321C13.7214 16.3319 13.8447 16.3927 13.934 16.491C13.934 16.491 13.844 16.513 13.8 16.74C13.7815 16.8089 13.7449 16.8715 13.6938 16.9213C13.6428 16.9711 13.5793 17.0062 13.51 17.023C13.5947 17.0538 13.6855 17.0636 13.7748 17.0518C13.8641 17.04 13.9493 17.0068 14.023 16.955L14.112 17.273C14.1894 17.1427 14.303 17.0378 14.439 16.971C14.6149 17.2116 14.7196 17.4968 14.741 17.794C14.6032 17.8179 14.474 17.8768 14.3657 17.9653C14.2574 18.0537 14.1737 18.1685 14.1227 18.2987C14.0717 18.4289 14.0552 18.57 14.0747 18.7084C14.0942 18.8469 14.1491 18.978 14.234 19.089C14.2289 19.1281 14.2262 19.1675 14.226 19.207C14.2239 19.3273 14.2455 19.4468 14.2896 19.5588C14.3337 19.6707 14.3994 19.7729 14.483 19.8594C14.5665 19.9459 14.6663 20.0152 14.7767 20.0632C14.887 20.1111 15.0057 20.1369 15.126 20.139C15.2463 20.1411 15.3658 20.1195 15.4778 20.0754C15.5897 20.0313 15.6919 19.9656 15.7784 19.882C15.8649 19.7985 15.9342 19.6986 15.9822 19.5883C16.0301 19.478 16.0559 19.3593 16.058 19.239V19.207C16.0575 19.1598 16.0535 19.1126 16.046 19.066C16.206 18.9 16.323 18.58 15.927 18.009C15.927 18.009 16.673 17.828 16.774 18.779C16.774 18.779 17.253 17.239 15.543 17.352C15.543 17.352 15.543 17.08 15.092 16.587C15.0236 16.3713 15.0236 16.1397 15.092 15.924C15.125 15.808 15.156 15.688 15.181 15.564C15.31 15.6383 15.4552 15.6802 15.604 15.686C15.7189 15.8307 15.8695 15.9431 16.041 16.012C16.2124 16.0809 16.3989 16.104 16.582 16.079C16.6994 16.1454 16.8321 16.1802 16.967 16.18C17.1561 16.1751 17.3375 16.1041 17.4798 15.9794C17.622 15.8548 17.7161 15.6842 17.7458 15.4974C17.7755 15.3106 17.7389 15.1193 17.6423 14.9567C17.5457 14.794 17.3952 14.6703 17.217 14.607C17.199 14.511 17.052 13.945 16.05 14.371C16.0526 14.2195 16.1149 14.0751 16.2233 13.9691C16.3317 13.8631 16.4774 13.8042 16.629 13.805C16.629 13.805 15.693 13.079 15.482 14.462L15.095 14.56C14.905 14.027 14.665 12.788 15.727 12.337C16.846 11.861 18.016 12.932 20.087 13.034C20.0557 13.2593 20.051 13.4876 20.073 13.714C19.8695 13.6839 19.6617 13.7196 19.48 13.816C19.6124 13.8269 19.7357 13.8877 19.825 13.986C19.825 13.986 19.736 14.009 19.692 14.236C19.6735 14.3049 19.6369 14.3675 19.5858 14.4173C19.5348 14.4671 19.4713 14.5022 19.402 14.519C19.4867 14.5498 19.5775 14.5596 19.6668 14.5478C19.7561 14.536 19.8413 14.5028 19.915 14.451L20.004 14.768C20.0861 14.6243 20.2144 14.5126 20.368 14.451C20.4223 14.5049 20.4856 14.5489 20.555 14.581C21.3049 14.8449 22.0761 15.044 22.86 15.176C22.846 16.761 23.847 16.756 24.077 16.734C24.2333 16.8324 24.4143 16.8848 24.599 16.885C24.7316 16.8838 24.8627 16.8565 24.9848 16.8047C25.1069 16.7528 25.2176 16.6774 25.3106 16.5828C25.4035 16.4882 25.4769 16.3762 25.5266 16.2532C25.5762 16.1302 25.6012 15.9986 25.6 15.866C25.6003 15.6014 25.4982 15.347 25.315 15.156C25.283 14.306 24.102 14.439 24.102 14.439C24.292 13.872 25.038 13.725 25.038 13.725C24.002 13.34 23.144 14.479 23.144 14.479L21.39 13.969C21.385 13.8131 21.4137 13.6581 21.4741 13.5143C21.5345 13.3705 21.6252 13.2415 21.74 13.136C21.9903 12.8465 22.1777 12.5081 22.2901 12.1422C22.4025 11.7764 22.4376 11.3911 22.393 11.011C22.5518 10.913 22.734 10.8596 22.9205 10.8565C23.1071 10.8533 23.291 10.9005 23.453 10.993L23.415 10.999C23.061 11.079 22.989 11.636 22.989 11.636C23.0727 11.5322 23.1929 11.4643 23.325 11.446C23.325 11.446 23.292 11.533 23.448 11.701C23.493 11.7569 23.5224 11.8237 23.5332 11.8947C23.5441 11.9656 23.5361 12.0382 23.51 12.105C23.5837 12.0516 23.6439 11.9815 23.6855 11.9006C23.7272 11.8197 23.7493 11.73 23.75 11.639L24.056 11.747C24.0151 11.665 23.9916 11.5754 23.9868 11.4839C23.9819 11.3924 23.996 11.3009 24.028 11.215C23.9842 11.1687 23.9348 11.1281 23.881 11.094C24.4066 11.0326 24.9138 10.8634 25.371 10.597C25.929 11.323 27.254 11.187 27.432 10.314C27.562 9.681 27.257 9.454 27.08 9.376C27.058 9.18641 26.9641 9.01248 26.8177 8.8901C26.6712 8.76772 26.4834 8.70621 26.2929 8.71827C26.1024 8.73032 25.9238 8.81503 25.794 8.9549C25.6641 9.09477 25.5929 9.27915 25.595 9.47C25.576 9.38234 25.5683 9.29262 25.572 9.203C25.4299 9.38021 25.3103 9.57436 25.216 9.781C24.5644 9.96455 23.8738 9.95704 23.2264 9.75937C22.579 9.5617 22.0019 9.18219 21.564 8.666C21.961 8.678 22.276 8.209 22.888 8.229C23.1062 8.24553 23.3236 8.18888 23.506 8.068C23.8192 8.23042 24.099 8.45023 24.331 8.716C24.578 8.98 25.216 8.996 25.116 8.486C25.0944 8.39552 25.0476 8.31301 24.981 8.248C25.0633 8.17527 25.1531 8.11158 25.249 8.058L25.301 8.031L25.458 8.093C25.4525 8.21018 25.4571 8.32763 25.472 8.444C25.539 8.909 25.394 9.067 25.394 9.067C25.5099 8.96887 25.6013 8.84516 25.6612 8.70564C25.7211 8.56611 25.7477 8.41458 25.739 8.263C25.7376 8.24436 25.7366 8.22569 25.736 8.207C25.846 8.253 25.936 8.294 25.998 8.325L26.003 8.327L26.018 8.342L26.014 8.332C26.599 8.607 27.508 7.762 28.145 8.427C28.1018 8.28885 28.0161 8.16787 27.9001 8.08131C27.7841 7.99475 27.6437 7.94705 27.499 7.945C27.5001 7.8834 27.4875 7.82233 27.4622 7.76616C27.4369 7.70998 27.3995 7.66009 27.3527 7.62005C27.3059 7.58001 27.2508 7.55082 27.1914 7.53456C27.132 7.5183 27.0697 7.51538 27.009 7.526C27.009 7.526 27.377 7.798 27.165 7.991C27.1142 7.89145 27.0323 7.8111 26.9319 7.76204C26.8314 7.71299 26.7178 7.69788 26.608 7.719C26.608 7.719 26.92 7.844 26.842 8.036C26.842 8.036 26.347 8.28 26.124 8.121C26.0855 8.095 26.0462 8.07031 26.006 8.047C26.0835 7.87106 26.1731 7.70065 26.274 7.537C26.385 7.299 26.107 6.914 26.107 6.914C26.1248 6.83655 26.1521 6.76187 26.19 6.692ZM25.57 7.563C25.5555 7.65936 25.5204 7.75146 25.467 7.833C25.102 7.64096 24.7275 7.4674 24.345 7.313C24.5006 7.25134 24.6693 7.22974 24.8354 7.25018C25.0016 7.27063 25.1599 7.33245 25.296 7.43C25.3828 7.4825 25.4752 7.52701 25.57 7.563ZM21.443 7.713C21.4656 7.69175 21.4904 7.67298 21.517 7.657C21.7194 7.7447 21.9436 7.76877 22.16 7.726C22.1002 7.80682 22.0193 7.86957 21.9261 7.90733C21.833 7.94509 21.7312 7.95639 21.632 7.94C21.5425 7.92712 21.4515 7.92983 21.363 7.948C21.3734 7.86504 21.4006 7.78507 21.443 7.713ZM22.132 4.888C22.3629 5.05121 22.5598 5.2577 22.712 5.496C22.6152 5.50407 22.5181 5.50774 22.421 5.507C22.3486 5.28662 22.2155 5.09114 22.037 4.943C22.0664 4.92105 22.0983 4.90259 22.132 4.888ZM21.897 5.095C21.9898 5.21358 22.0593 5.34861 22.102 5.493L22.089 5.492C21.9696 5.48247 21.8495 5.48954 21.732 5.513L21.755 5.481C21.776 5.34413 21.8243 5.21287 21.897 5.095ZM20.709 5.539C20.8464 5.61332 20.9784 5.69719 21.104 5.79C21.0275 5.8431 20.954 5.90053 20.884 5.962C20.778 5.902 20.577 5.755 20.709 5.539ZM21.675 8.775C21.5602 8.63872 21.453 8.49617 21.354 8.348C21.3476 8.27719 21.3453 8.20608 21.347 8.135C21.4684 8.12596 21.5904 8.13269 21.71 8.155C21.936 8.18826 22.1668 8.15345 22.373 8.055C22.2704 8.17586 22.1824 8.30845 22.111 8.45C22.048 8.6 21.811 8.718 21.675 8.775ZM24.987 8.285C24.6827 8.09373 24.3489 7.95418 23.999 7.872C24.033 7.813 24.065 7.752 24.095 7.689C24.25 7.746 24.705 7.912 25.16 8.086C25.0916 8.14258 25.0331 8.21018 24.987 8.286V8.285ZM25.94 8.087C25.9483 8.06006 25.9583 8.03367 25.97 8.008C25.9739 8.04327 25.9796 8.07831 25.987 8.113L25.94 8.087Z"
		fill="#F5F5F5"
	/>
</svg>
