<svg viewBox="0 0 36 24" fill="none" xmlns="http://www.w3.org/2000/svg">
	<path d="M36 24H0V0H36" fill="#FF4B55" />
	<path
		d="M8.587 6.036L7.082 7.166L7.646 8.981C7.66265 9.03153 7.66294 9.08602 7.64684 9.13673C7.63074 9.18744 7.59907 9.23178 7.55632 9.26345C7.51358 9.29512 7.46193 9.31251 7.40874 9.31315C7.35554 9.31379 7.30349 9.29764 7.26 9.267L5.738 8.16L4.216 9.267C4.17251 9.29764 4.12046 9.31379 4.06726 9.31315C4.01407 9.31251 3.96242 9.29512 3.91968 9.26345C3.87693 9.23178 3.84525 9.18744 3.82916 9.13673C3.81306 9.08602 3.81335 9.03153 3.83 8.981L4.394 7.166L2.889 6.036C2.84608 6.00401 2.81422 5.95942 2.79787 5.90845C2.78152 5.85748 2.78149 5.80268 2.79779 5.75169C2.81408 5.7007 2.8459 5.65608 2.88878 5.62404C2.93167 5.59201 2.98348 5.57416 3.037 5.573L4.907 5.558L5.499 3.753C5.51469 3.70186 5.54638 3.6571 5.5894 3.6253C5.63242 3.5935 5.6845 3.57634 5.738 3.57634C5.7915 3.57634 5.84358 3.5935 5.8866 3.6253C5.92962 3.6571 5.96131 3.70186 5.977 3.753L6.569 5.558L8.439 5.573C8.49252 5.57416 8.54433 5.59201 8.58722 5.62404C8.6301 5.65608 8.66192 5.7007 8.67821 5.75169C8.69451 5.80268 8.69448 5.85748 8.67813 5.90845C8.66178 5.95942 8.62992 6.00401 8.587 6.036ZM11.904 5.4L12.584 5.634L12.587 6.364C12.5866 6.3845 12.5927 6.4046 12.6045 6.42136C12.6163 6.43812 12.6332 6.45066 12.6526 6.45714C12.6721 6.46362 12.6931 6.46371 12.7126 6.45739C12.7321 6.45106 12.7491 6.43866 12.761 6.422L13.189 5.836L13.873 6.059C13.8926 6.06495 13.9136 6.0646 13.933 6.058C13.9524 6.0514 13.9692 6.03889 13.9811 6.02223C13.9931 6.00556 13.9995 5.98558 13.9994 5.96509C13.9994 5.9446 13.993 5.92463 13.981 5.908L13.566 5.313L13.985 4.72C13.9968 4.70343 14.0031 4.68361 14.0032 4.66327C14.0032 4.64293 13.9969 4.62309 13.9851 4.6065C13.9734 4.5899 13.9567 4.57738 13.9375 4.57066C13.9184 4.56394 13.8975 4.56336 13.878 4.569L13.193 4.787L12.769 4.198C12.7573 4.18097 12.7403 4.16818 12.7207 4.16156C12.7011 4.15493 12.6799 4.15481 12.6602 4.16122C12.6406 4.16762 12.6235 4.18021 12.6116 4.19711C12.5996 4.21401 12.5935 4.23432 12.594 4.255L12.586 4.985L11.905 5.214C11.8859 5.22086 11.8694 5.23342 11.8576 5.25C11.8459 5.26657 11.8395 5.28635 11.8394 5.30665C11.8393 5.32695 11.8455 5.3468 11.857 5.3635C11.8686 5.38019 11.885 5.39294 11.904 5.4ZM10.633 3.111L10.339 3.777C10.3299 3.79561 10.327 3.81666 10.3307 3.83704C10.3344 3.85743 10.3446 3.87609 10.3597 3.89029C10.3748 3.90449 10.394 3.91348 10.4146 3.91595C10.4352 3.91841 10.456 3.91423 10.474 3.904L11.102 3.551L11.633 4.041C11.6481 4.05462 11.6672 4.06312 11.6874 4.06531C11.7077 4.06749 11.7281 4.06325 11.7458 4.05318C11.7635 4.04312 11.7776 4.02773 11.7861 4.00921C11.7945 3.99069 11.797 3.96998 11.793 3.95L11.657 3.233L12.28 2.87C12.2976 2.85956 12.3115 2.84393 12.3198 2.82528C12.3281 2.80663 12.3305 2.78585 12.3265 2.76581C12.3226 2.74576 12.3125 2.72743 12.2978 2.71332C12.283 2.69921 12.2642 2.69002 12.244 2.687L11.532 2.597L11.385 1.882C11.3812 1.86192 11.371 1.84359 11.356 1.82968C11.3411 1.81577 11.322 1.80701 11.3017 1.80466C11.2814 1.80232 11.2609 1.80652 11.2431 1.81665C11.2254 1.82679 11.2113 1.84232 11.203 1.861L10.899 2.521L10.185 2.443C10.1645 2.44088 10.1438 2.44529 10.1259 2.45561C10.108 2.46593 10.0939 2.48164 10.0854 2.50048C10.077 2.51933 10.0748 2.54035 10.079 2.56056C10.0832 2.58076 10.0937 2.59912 10.109 2.613L10.633 3.111ZM12.177 10.534L11.496 10.305L11.488 9.575C11.4885 9.55432 11.4824 9.53401 11.4704 9.51711C11.4585 9.50022 11.4414 9.48762 11.4218 9.48122C11.4021 9.47481 11.3809 9.47493 11.3613 9.48156C11.3417 9.48818 11.3247 9.50097 11.313 9.518L10.889 10.108L10.204 9.889C10.1843 9.88311 10.1633 9.88356 10.1438 9.89028C10.1244 9.89701 10.1076 9.90967 10.0958 9.92648C10.0839 9.94328 10.0777 9.96338 10.0779 9.98394C10.0781 10.0045 10.0848 10.0245 10.097 10.041L10.516 10.633L10.1 11.228C10.0879 11.2447 10.0813 11.2648 10.0813 11.2855C10.0812 11.3061 10.0877 11.3262 10.0998 11.343C10.1119 11.3597 10.129 11.3722 10.1486 11.3787C10.1682 11.3852 10.1893 11.3853 10.209 11.379L10.892 11.156L11.32 11.742C11.3319 11.7587 11.3489 11.7711 11.3684 11.7774C11.3879 11.7837 11.4089 11.7836 11.4284 11.7771C11.4478 11.7707 11.4647 11.7581 11.4765 11.7414C11.4883 11.7246 11.4944 11.7045 11.494 11.684L11.498 10.954L12.178 10.721C12.1974 10.7141 12.2141 10.7014 12.226 10.6846C12.2378 10.6678 12.2441 10.6477 12.244 10.6271C12.2439 10.6066 12.2373 10.5866 12.2253 10.5699C12.2133 10.5532 12.1965 10.5407 12.177 10.534ZM13.897 7.869L13.183 7.948L12.879 7.287C12.8709 7.2679 12.8569 7.25194 12.839 7.24149C12.8211 7.23104 12.8002 7.22667 12.7796 7.22903C12.759 7.2314 12.7398 7.24037 12.7247 7.2546C12.7096 7.26884 12.6995 7.28757 12.696 7.308L12.55 8.023L11.838 8.113C11.8178 8.11602 11.799 8.12521 11.7842 8.13932C11.7695 8.15343 11.7594 8.17176 11.7555 8.19181C11.7515 8.21185 11.7539 8.23263 11.7622 8.25128C11.7705 8.26994 11.7844 8.28556 11.802 8.296L12.424 8.659L12.288 9.376C12.284 9.39598 12.2865 9.41669 12.2949 9.43521C12.3034 9.45373 12.3175 9.46912 12.3352 9.47918C12.3529 9.48925 12.3733 9.49349 12.3936 9.49131C12.4138 9.48912 12.4329 9.48062 12.448 9.467L12.98 8.977L13.608 9.33C13.626 9.34023 13.6468 9.34441 13.6674 9.34195C13.688 9.33948 13.7072 9.33049 13.7223 9.31629C13.7374 9.30209 13.7476 9.28343 13.7513 9.26304C13.755 9.24265 13.7521 9.22161 13.743 9.203L13.449 8.537L13.973 8.038C13.988 8.02398 13.9982 8.00561 14.0021 7.9855C14.0061 7.96538 14.0037 7.94452 13.9952 7.92586C13.9867 7.9072 13.9725 7.89167 13.9547 7.88147C13.9369 7.87127 13.9164 7.86691 13.896 7.869H13.897Z"
		fill="#FFE15A"
	/>
</svg>
