<svg viewBox="0 0 36 24" fill="none" xmlns="http://www.w3.org/2000/svg">
	<path d="M36 0H0V24H36" fill="#FF4B55" />
	<path
		d="M0 24L20.205 12.392C20.2735 12.352 20.3303 12.2948 20.3697 12.226C20.4092 12.1572 20.43 12.0793 20.43 12C20.43 11.9207 20.4092 11.8428 20.3697 11.774C20.3303 11.7052 20.2735 11.648 20.205 11.608L0 0"
		fill="#FFE15A"
	/>
	<path
		d="M0 24L13.758 12.434C13.8208 12.3805 13.8713 12.314 13.9059 12.239C13.9406 12.1641 13.9585 12.0825 13.9585 12C13.9585 11.9175 13.9406 11.8359 13.9059 11.761C13.8713 11.686 13.8208 11.6195 13.758 11.566L0 0"
		fill="#464655"
	/>
	<path
		d="M3.876 9.034L3.936 11.307L1.841 12.1C1.797 12.1172 1.75943 12.1476 1.73347 12.1871C1.70752 12.2266 1.69446 12.2731 1.69611 12.3203C1.69776 12.3675 1.71402 12.4131 1.74267 12.4506C1.77131 12.4882 1.81091 12.5159 1.856 12.53L3.998 13.176L4.092 15.448C4.09278 15.4954 4.1087 15.5413 4.13743 15.5789C4.16616 15.6166 4.20619 15.6441 4.25167 15.6574C4.29715 15.6707 4.34569 15.6691 4.39019 15.6528C4.43469 15.6366 4.47282 15.6065 4.499 15.567L5.764 13.692L7.917 14.303C7.96257 14.315 8.01076 14.3125 8.05483 14.2958C8.09889 14.279 8.13662 14.2489 8.16274 14.2097C8.18886 14.1705 8.20206 14.1241 8.20049 14.077C8.19892 14.0298 8.18267 13.9844 8.154 13.947L6.793 12.143L8.029 10.249C8.0553 10.2098 8.06866 10.1633 8.06719 10.1161C8.06573 10.0689 8.04951 10.0234 8.02083 9.98584C7.99214 9.94833 7.95242 9.92074 7.90726 9.90696C7.86209 9.89318 7.81374 9.89389 7.769 9.909L5.662 10.669L4.274 8.887C4.24484 8.84998 4.20471 8.82315 4.15935 8.81036C4.114 8.79757 4.06576 8.79947 4.02155 8.8158C3.97735 8.83213 3.93945 8.86204 3.9133 8.90124C3.88715 8.94044 3.8741 8.98692 3.876 9.034Z"
		fill="#F5F5F5"
	/>
</svg>
