<svg viewBox="0 0 36 24" fill="none" xmlns="http://www.w3.org/2000/svg">
	<path d="M36 24H0V0H36" fill="#FF4B55" />
	<path
		d="M17.194 12.645C16.7437 12.819 16.2666 12.9137 15.784 12.925C15.3217 12.9326 14.8636 12.8369 14.443 12.6448C14.0224 12.4528 13.65 12.1693 13.353 11.815C13.3275 11.7858 13.3147 11.7477 13.3173 11.7091C13.32 11.6705 13.3378 11.6345 13.367 11.609C13.3951 11.5849 13.4317 11.573 13.4686 11.5758C13.5055 11.5786 13.5398 11.596 13.564 11.624C13.9914 12.1044 14.56 12.4372 15.1882 12.5746C15.8164 12.7121 16.472 12.6471 17.061 12.389C16.7221 12.4254 16.3799 12.3615 16.077 12.205C14.993 11.48 15.484 10.709 14.764 9.777C14.5055 9.40931 14.1332 9.13687 13.7045 9.0017C13.2759 8.86652 12.8147 8.87612 12.392 9.029C12.2317 9.06231 12.0663 9.0622 11.9061 9.02866C11.7458 8.99512 11.5942 8.92888 11.4608 8.83408C11.3273 8.73928 11.2148 8.61797 11.1304 8.47772C11.0459 8.33747 10.9913 8.18131 10.97 8.019C10.9662 8.00291 10.9573 7.98849 10.9446 7.97792C10.9319 7.96735 10.9161 7.96121 10.8996 7.96041C10.8831 7.95962 10.8668 7.96423 10.8532 7.97354C10.8395 7.98285 10.8293 7.99635 10.824 8.012C9.573 11.45 13.334 15.704 17.194 12.645ZM12.164 11.13L12.571 10.841L12.434 10.356C12.4297 10.3424 12.4299 10.3278 12.4345 10.3142C12.4391 10.3007 12.448 10.2891 12.4597 10.2809C12.4714 10.2728 12.4854 10.2686 12.4997 10.269C12.5139 10.2693 12.5277 10.2742 12.539 10.283L12.934 10.588L13.346 10.306C13.3577 10.2983 13.3715 10.2945 13.3855 10.2951C13.3994 10.2957 13.4129 10.3006 13.4239 10.3092C13.4349 10.3178 13.443 10.3297 13.4469 10.3431C13.4509 10.3565 13.4506 10.3708 13.446 10.384L13.284 10.861L13.674 11.171C13.6853 11.1797 13.6937 11.1917 13.6978 11.2054C13.7019 11.219 13.7016 11.2336 13.697 11.2471C13.6923 11.2606 13.6836 11.2723 13.6719 11.2806C13.6602 11.2888 13.6463 11.2931 13.632 11.293L13.136 11.283L12.966 11.758C12.9614 11.7713 12.9527 11.7828 12.9411 11.7908C12.9295 11.7988 12.9156 11.8029 12.9015 11.8024C12.8874 11.802 12.8739 11.797 12.8628 11.7883C12.8517 11.7796 12.8437 11.7676 12.84 11.754L12.696 11.271L12.2 11.254C12.1857 11.2535 12.172 11.2485 12.1607 11.2397C12.1494 11.2309 12.1412 11.2187 12.1372 11.205C12.1332 11.1913 12.1337 11.1766 12.1385 11.1632C12.1433 11.1497 12.1522 11.1381 12.164 11.13ZM25.418 11.544C24.392 8.03 18.876 6.921 17.589 11.724C17.8466 11.3107 18.1726 10.9441 18.553 10.64C18.9144 10.3529 19.3356 10.1505 19.7855 10.0475C20.2354 9.94456 20.7027 9.9437 21.153 10.045C21.1716 10.049 21.1893 10.0567 21.205 10.0676C21.2206 10.0785 21.2339 10.0924 21.2442 10.1085C21.2544 10.1246 21.2613 10.1426 21.2646 10.1614C21.2678 10.1802 21.2673 10.1994 21.263 10.218C21.2551 10.2545 21.2331 10.2864 21.2019 10.3067C21.1706 10.3271 21.1326 10.3344 21.096 10.327C20.4631 10.2073 19.8085 10.2898 19.2252 10.563C18.6418 10.8362 18.1593 11.2861 17.846 11.849C18.094 11.6135 18.4054 11.4556 18.742 11.395C20.037 11.314 20.098 12.231 21.224 12.537C22.342 12.842 22.844 12.431 23.564 11.687C23.6696 11.5627 23.8 11.4617 23.9468 11.3907C24.0937 11.3196 24.2537 11.28 24.4167 11.2744C24.5798 11.2687 24.7422 11.2972 24.8936 11.3579C25.045 11.4186 25.1821 11.5103 25.296 11.627C25.3089 11.6375 25.3247 11.6435 25.3413 11.6442C25.3579 11.6449 25.3742 11.6403 25.3879 11.6309C25.4016 11.6216 25.4119 11.6081 25.4174 11.5925C25.4228 11.5768 25.423 11.5598 25.418 11.544ZM22.706 10.774L22.21 10.771L22.048 11.248C22.0439 11.2618 22.0354 11.2738 22.0238 11.2823C22.0122 11.2908 21.9981 11.2953 21.9837 11.295C21.9694 11.2948 21.9555 11.2899 21.9441 11.281C21.9328 11.2722 21.9247 11.2599 21.921 11.246L21.77 10.766L21.274 10.756C21.2599 10.7554 21.2463 10.7504 21.2352 10.7418C21.224 10.7331 21.2159 10.7212 21.2118 10.7077C21.2077 10.6941 21.208 10.6797 21.2125 10.6663C21.217 10.6529 21.2256 10.6413 21.237 10.633L21.639 10.338L21.495 9.855C21.4903 9.8414 21.4902 9.82667 21.4945 9.81297C21.4989 9.79928 21.5075 9.78735 21.5192 9.77894C21.5309 9.77054 21.5449 9.7661 21.5593 9.76629C21.5736 9.76648 21.5876 9.77129 21.599 9.78L21.999 10.079L22.406 9.79C22.4177 9.78195 22.4316 9.77781 22.4458 9.7782C22.46 9.77859 22.4737 9.78347 22.485 9.79215C22.4962 9.80083 22.5044 9.81285 22.5083 9.82648C22.5123 9.84011 22.5118 9.85465 22.507 9.868L22.352 10.347L22.747 10.652C22.7582 10.6606 22.7665 10.6724 22.7706 10.6859C22.7748 10.6994 22.7747 10.7138 22.7703 10.7272C22.7659 10.7406 22.7575 10.7523 22.7461 10.7607C22.7348 10.7691 22.7211 10.7737 22.707 10.774H22.706ZM17.271 12.193C16.9407 11.8334 16.6736 11.4206 16.481 10.972C16.2982 10.5411 16.211 10.0756 16.2255 9.60778C16.24 9.13991 16.3558 8.68076 16.565 8.262C16.573 8.24481 16.5844 8.22942 16.5985 8.21677C16.6126 8.20411 16.6291 8.19445 16.6471 8.18837C16.665 8.1823 16.684 8.17993 16.7029 8.18141C16.7218 8.18289 16.7402 8.1882 16.757 8.197C16.7898 8.21486 16.8145 8.24462 16.8261 8.28015C16.8376 8.31568 16.8351 8.35427 16.819 8.388C16.5452 8.97821 16.4593 9.63828 16.5728 10.2789C16.6864 10.9196 16.994 11.5099 17.454 11.97C17.2918 11.6644 17.22 11.3189 17.247 10.974C17.493 9.679 18.381 9.847 18.954 8.814C19.1896 8.42555 19.2951 7.972 19.255 7.51944C19.2148 7.06688 19.0313 6.63895 18.731 6.298C18.6386 6.16141 18.5749 6.00749 18.5438 5.84556C18.5127 5.68363 18.5148 5.51706 18.5499 5.35596C18.5851 5.19486 18.6526 5.04257 18.7483 4.90833C18.8441 4.77409 18.9661 4.66069 19.107 4.575C19.12 4.56507 19.1296 4.55129 19.1343 4.53562C19.1391 4.51995 19.1388 4.50319 19.1335 4.4877C19.1281 4.47221 19.1181 4.45879 19.1047 4.44933C19.0914 4.43987 19.0754 4.43486 19.059 4.435C15.458 4.566 13.023 9.724 17.271 12.193ZM16.425 7.756L16.809 7.436L16.636 6.964C16.6307 6.95075 16.6297 6.93615 16.6332 6.92231C16.6368 6.90848 16.6447 6.89614 16.6557 6.88709C16.6668 6.87805 16.6804 6.87278 16.6947 6.87204C16.7089 6.8713 16.7231 6.87514 16.735 6.883L17.152 7.156L17.541 6.843C17.5521 6.83436 17.5656 6.82941 17.5796 6.82885C17.5936 6.82829 17.6075 6.83216 17.6192 6.83989C17.6309 6.84763 17.6399 6.85884 17.6449 6.87196C17.6499 6.88508 17.6506 6.89943 17.647 6.913L17.52 7.401L17.933 7.681C17.9446 7.68893 17.9535 7.70028 17.9585 7.71348C17.9634 7.72668 17.9641 7.74108 17.9604 7.75469C17.9568 7.76831 17.9491 7.78046 17.9382 7.78947C17.9274 7.79848 17.914 7.80391 17.9 7.805L17.405 7.834L17.271 8.32C17.2675 8.33366 17.2597 8.34585 17.2488 8.35476C17.2378 8.36366 17.2243 8.36883 17.2102 8.3695C17.1961 8.37018 17.1822 8.36631 17.1704 8.35848C17.1587 8.35065 17.1498 8.33927 17.145 8.326L16.965 7.856L16.47 7.876C16.456 7.87625 16.4422 7.87214 16.4306 7.86424C16.419 7.85634 16.4101 7.84504 16.4051 7.83189C16.4002 7.81873 16.3995 7.80438 16.403 7.79079C16.4066 7.7772 16.4143 7.76505 16.425 7.756ZM17.972 12.045C18.4407 12.1647 18.8852 12.3643 19.286 12.635C19.6706 12.8988 19.9928 13.2437 20.2298 13.6454C20.4668 14.047 20.613 14.4958 20.658 14.96C20.6604 14.9789 20.6589 14.998 20.6538 15.0164C20.6487 15.0347 20.6399 15.0518 20.6281 15.0667C20.6163 15.0816 20.6016 15.094 20.5849 15.1031C20.5683 15.1123 20.5499 15.118 20.531 15.12C20.4938 15.1234 20.4567 15.1119 20.4279 15.0881C20.3991 15.0644 20.3808 15.0302 20.377 14.993C20.2972 14.351 20.0194 13.7498 19.5821 13.2731C19.1447 12.7964 18.5697 12.4678 17.937 12.333C18.2363 12.5008 18.4808 12.7515 18.641 13.055C19.124 14.28 18.288 14.628 18.355 15.811C18.422 16.988 18.963 17.343 19.883 17.804C20.0337 17.8703 20.1695 17.9664 20.282 18.0867C20.3945 18.2069 20.4814 18.3487 20.5375 18.5036C20.5936 18.6584 20.6177 18.823 20.6083 18.9874C20.599 19.1518 20.5563 19.3126 20.483 19.46C20.4773 19.4753 20.4767 19.4921 20.4812 19.5078C20.4857 19.5236 20.4951 19.5374 20.508 19.5475C20.521 19.5575 20.5368 19.5632 20.5531 19.5636C20.5695 19.5641 20.5855 19.5593 20.599 19.55C23.555 17.456 22.858 11.779 17.972 12.045ZM21.249 16.212H20.754L20.594 16.69C20.5901 16.7038 20.5818 16.716 20.5703 16.7247C20.5588 16.7333 20.5449 16.738 20.5305 16.738C20.5161 16.738 20.5022 16.7333 20.4907 16.7247C20.4792 16.716 20.4709 16.7038 20.467 16.69L20.313 16.21L19.817 16.202C19.8028 16.2016 19.7891 16.1968 19.7778 16.1882C19.7665 16.1796 19.7582 16.1677 19.754 16.1541C19.7498 16.1405 19.7499 16.126 19.7544 16.1125C19.7589 16.0991 19.7675 16.0873 19.779 16.079L20.179 15.782L20.034 15.3C20.0296 15.2866 20.0296 15.2721 20.034 15.2586C20.0383 15.2452 20.0468 15.2334 20.0583 15.2251C20.0697 15.2168 20.0835 15.2123 20.0976 15.2123C20.1118 15.2123 20.1255 15.2167 20.137 15.225L20.538 15.521L20.944 15.231C20.9555 15.2229 20.9693 15.2187 20.9834 15.2189C20.9975 15.2191 21.0111 15.2238 21.0224 15.2322C21.0337 15.2406 21.0421 15.2523 21.0463 15.2658C21.0505 15.2792 21.0504 15.2936 21.046 15.307L20.893 15.787L21.289 16.09C21.3002 16.0986 21.3085 16.1104 21.3126 16.1239C21.3168 16.1374 21.3167 16.1518 21.3123 16.1652C21.3079 16.1786 21.2995 16.1903 21.2881 16.1987C21.2768 16.2071 21.2631 16.2117 21.249 16.212ZM17.669 14.062C17.5433 14.51 17.3206 14.9248 17.0166 15.277C16.7126 15.6292 16.3348 15.9102 15.91 16.1C15.8928 16.1079 15.8742 16.1121 15.8553 16.1126C15.8363 16.1131 15.8175 16.1097 15.8 16.1027C15.7824 16.0957 15.7664 16.0852 15.753 16.0718C15.7396 16.0585 15.7291 16.0425 15.722 16.025C15.7076 15.9906 15.7071 15.9519 15.7205 15.9171C15.7339 15.8822 15.7602 15.8539 15.794 15.838C16.3768 15.5532 16.8575 15.0954 17.1704 14.5271C17.4832 13.9588 17.613 13.3078 17.542 12.663C17.4774 13.0019 17.3171 13.3153 17.08 13.566C16.08 14.406 15.5 13.702 14.412 14.127C13.332 14.55 13.163 15.182 13.012 16.214C12.9997 16.3776 12.9537 16.5369 12.8769 16.6818C12.8001 16.8268 12.6941 16.9543 12.5656 17.0563C12.4371 17.1583 12.2889 17.2326 12.1303 17.2746C11.9717 17.3165 11.8061 17.3252 11.644 17.3C11.6275 17.2994 11.6112 17.3041 11.5975 17.3134C11.5838 17.3227 11.5734 17.3361 11.5678 17.3517C11.5622 17.3673 11.5618 17.3843 11.5665 17.4001C11.5712 17.416 11.5808 17.43 11.594 17.44C12.3046 18.0079 13.1856 18.3202 14.0953 18.3269C15.0049 18.3335 15.8904 18.034 16.6092 17.4765C17.328 16.919 17.8385 16.136 18.0585 15.2533C18.2784 14.3706 18.1952 13.4396 17.822 12.61C17.8526 13.0995 17.8008 13.5896 17.669 14.062ZM15.703 16.58L15.207 16.578L15.044 17.055C15.0396 17.0684 15.031 17.08 15.0196 17.0881C15.0081 17.0963 14.9943 17.1006 14.9803 17.1003C14.9662 17.1001 14.9526 17.0954 14.9414 17.0869C14.9302 17.0784 14.922 17.0665 14.918 17.053L14.766 16.573L14.27 16.563C14.2556 16.5627 14.2417 16.5578 14.2303 16.5491C14.2189 16.5404 14.2105 16.5282 14.2064 16.5145C14.2023 16.5007 14.2026 16.486 14.2074 16.4724C14.2122 16.4588 14.2212 16.4471 14.233 16.439L14.635 16.144L14.491 15.662C14.4863 15.6484 14.4862 15.6337 14.4905 15.62C14.4949 15.6063 14.5035 15.5943 14.5152 15.5859C14.5269 15.5775 14.5409 15.5731 14.5553 15.5733C14.5696 15.5735 14.5836 15.5783 14.595 15.587L14.995 15.885L15.402 15.597C15.4136 15.5891 15.4274 15.5851 15.4414 15.5855C15.4555 15.5859 15.469 15.5907 15.4802 15.5992C15.4913 15.6077 15.4995 15.6195 15.5036 15.6329C15.5077 15.6463 15.5075 15.6607 15.503 15.674L15.348 16.154L15.743 16.458C15.7542 16.4666 15.7625 16.4784 15.7666 16.4919C15.7708 16.5054 15.7707 16.5198 15.7663 16.5332C15.7619 16.5466 15.7535 16.5583 15.7421 16.5667C15.7308 16.5751 15.7171 16.5797 15.703 16.58Z"
		fill="#F5F5F5"
	/>
</svg>
