<svg viewBox="0 0 36 24" fill="none" xmlns="http://www.w3.org/2000/svg">
	<path d="M36 8H0V0H36V8Z" fill="#FAB446" />
	<path d="M36 24H0V16H36V24Z" fill="#73AF00" />
	<path d="M0 8H36V16H0V8Z" fill="#F5F5F5" />
	<path
		d="M18 11.689C18.0617 11.688 18.1223 11.7054 18.1741 11.739C18.2259 11.7725 18.2666 11.8207 18.2909 11.8775C18.3152 11.9342 18.3221 11.9969 18.3106 12.0576C18.2992 12.1182 18.27 12.1741 18.2267 12.2181C18.1834 12.2621 18.128 12.2922 18.0675 12.3046C18.0071 12.317 17.9443 12.3112 17.8872 12.2878C17.83 12.2644 17.7812 12.2245 17.7468 12.1733C17.7124 12.122 17.694 12.0617 17.694 12C17.6935 11.9182 17.7254 11.8396 17.7827 11.7813C17.8401 11.723 17.9182 11.6898 18 11.689Z"
		fill="#41479B"
	/>
	<path
		d="M18 8.605C17.3261 8.59329 16.664 8.7824 16.098 9.14826C15.532 9.51411 15.0877 10.0402 14.8217 10.6594C14.5557 11.2786 14.4799 11.963 14.6042 12.6254C14.7285 13.2878 15.0471 13.8983 15.5194 14.379C15.9918 14.8597 16.5965 15.189 17.2567 15.3248C17.9168 15.4607 18.6024 15.397 19.2262 15.1418C19.85 14.8867 20.3838 14.4517 20.7595 13.8921C21.1352 13.3326 21.3359 12.674 21.336 12C21.3427 11.1078 20.9952 10.2493 20.3698 9.61286C19.7445 8.97642 18.8922 8.61398 18 8.605ZM20.714 11.927L18.961 11.844L18.579 11.883L18.947 11.77L20.535 11.01C20.6458 11.3034 20.7063 11.6134 20.714 11.927ZM20.48 10.877L18.83 11.481L18.491 11.666L18.788 11.419L19.968 10.099C20.1812 10.3273 20.3543 10.591 20.48 10.877ZM19.868 9.997L18.571 11.197L18.328 11.5L18.51 11.156L19.105 9.476C19.3871 9.60458 19.6452 9.78145 19.868 9.997ZM18.973 9.421L18.226 11.037L18.116 11.411L18.154 11.022L18.071 9.239C18.38 9.24679 18.6852 9.30837 18.973 9.421ZM17.929 9.239L17.846 11.022L17.885 11.411L17.775 11.037L17.027 9.421C17.3148 9.30837 17.62 9.24679 17.929 9.239ZM16.895 9.477L17.49 11.157L17.672 11.5L17.429 11.198L16.132 9.997C16.3549 9.78146 16.6129 9.6056 16.895 9.477ZM16.031 10.1L17.211 11.42L17.509 11.666L17.171 11.481L15.521 10.876C15.6462 10.5905 15.8186 10.3282 16.031 10.1ZM15.465 11.01L17.053 11.77L17.421 11.883L17.039 11.843L15.286 11.927C15.294 11.6134 15.3539 11.3034 15.465 11.01ZM15.286 12.073L17.039 12.156L17.421 12.117L17.053 12.23L15.465 12.99C15.3542 12.6966 15.2937 12.3866 15.286 12.073ZM15.52 13.123L17.17 12.519L17.509 12.334L17.212 12.581L16.032 13.901C15.8188 13.6727 15.6457 13.409 15.52 13.123ZM16.132 14.003L17.429 12.803L17.672 12.5L17.49 12.844L16.895 14.524C16.6129 14.3954 16.3549 14.2185 16.132 14.003ZM17.027 14.579L17.774 12.963L17.884 12.589L17.846 12.979L17.929 14.761C17.62 14.7532 17.3148 14.6916 17.027 14.579ZM17.49 12C17.492 11.8996 17.5235 11.802 17.5808 11.7194C17.638 11.6369 17.7183 11.5731 17.8117 11.536C17.905 11.4989 18.0072 11.4903 18.1055 11.511C18.2037 11.5318 18.2937 11.5812 18.364 11.6529C18.4343 11.7246 18.4819 11.8155 18.5008 11.9141C18.5197 12.0128 18.509 12.1148 18.4701 12.2074C18.4313 12.3 18.3659 12.3791 18.2823 12.4347C18.1986 12.4903 18.1004 12.52 18 12.52C17.9324 12.5193 17.8655 12.5054 17.8033 12.4789C17.7411 12.4524 17.6847 12.4139 17.6373 12.3656C17.5899 12.3173 17.5526 12.2602 17.5273 12.1975C17.502 12.1347 17.4893 12.0676 17.49 12ZM18.071 14.761L18.154 12.978L18.115 12.589L18.225 12.963L18.973 14.579C18.6852 14.6916 18.38 14.7532 18.071 14.761ZM19.104 14.523L18.51 12.843L18.328 12.5L18.571 12.802L19.868 14.003C19.6448 14.2186 19.3865 14.3945 19.104 14.523ZM19.969 13.9L18.789 12.58L18.491 12.334L18.829 12.519L20.479 13.124C20.3538 13.4095 20.1814 13.6718 19.969 13.9ZM20.535 12.99L18.947 12.23L18.579 12.117L18.961 12.157L20.714 12.073C20.706 12.3866 20.6461 12.6966 20.535 12.99Z"
		fill="#41479B"
	/>
</svg>
