<svg viewBox="0 0 36 24" fill="none" xmlns="http://www.w3.org/2000/svg">
	<path d="M36 24H0V0H36" fill="#F5F5F5" />
	<path
		d="M18 5.053C19.3791 5.02898 20.7342 5.41599 21.8926 6.16474C23.051 6.91349 23.9604 7.9901 24.5048 9.25743C25.0493 10.5248 25.2042 11.9255 24.9499 13.2812C24.6955 14.6368 24.0434 15.8861 23.0766 16.8699C22.1098 17.8537 20.872 18.5275 19.521 18.8054C18.17 19.0834 16.7668 18.9529 15.4901 18.4306C14.2135 17.9083 13.1212 17.0179 12.3524 15.8727C11.5836 14.7275 11.173 13.3793 11.173 12C11.1573 10.1735 11.8677 8.41557 13.1479 7.1128C14.4282 5.81002 16.1735 5.06911 18 5.053Z"
		fill="#FF4B55"
	/>
</svg>
