<svg viewBox="0 0 36 24" fill="none" xmlns="http://www.w3.org/2000/svg">
	<path d="M36 0H0V24H36" fill="#82C3D2" />
	<path
		d="M4.26 3.966C4.26026 3.94832 4.25703 3.93076 4.25047 3.91434C4.24392 3.89791 4.23418 3.88295 4.22182 3.87031C4.20945 3.85766 4.19471 3.84759 4.17844 3.84068C4.16216 3.83376 4.14468 3.83013 4.127 3.83H4.123C4.21141 3.71262 4.25978 3.56995 4.261 3.423C4.25753 3.23763 4.23202 3.05334 4.185 2.874C4.129 2.632 4.115 2.543 4.221 2.434C4.24586 2.40843 4.25977 2.37417 4.25977 2.3385C4.25977 2.30283 4.24586 2.26857 4.221 2.243C4.20872 2.23054 4.19409 2.22065 4.17795 2.2139C4.16181 2.20715 4.14449 2.20367 4.127 2.20367C4.10951 2.20367 4.09219 2.20715 4.07605 2.2139C4.05992 2.22065 4.04528 2.23054 4.033 2.243C3.95082 2.33559 3.89688 2.44977 3.87756 2.57205C3.85824 2.69434 3.87436 2.81959 3.924 2.933C3.84851 2.90323 3.76567 2.89743 3.68677 2.9164C3.60786 2.93536 3.53672 2.97817 3.483 3.039C3.43264 3.11464 3.40849 3.20471 3.41427 3.2954C3.42006 3.38609 3.45544 3.47237 3.515 3.541C3.52419 3.55599 3.53628 3.56899 3.55056 3.57924C3.56484 3.5895 3.58103 3.59679 3.59817 3.60071C3.6153 3.60462 3.63305 3.60507 3.65037 3.60203C3.66768 3.59899 3.68422 3.59252 3.699 3.583C3.72873 3.5632 3.74955 3.53257 3.75702 3.49763C3.7645 3.4627 3.75803 3.42623 3.739 3.396C3.676 3.293 3.674 3.23 3.692 3.207C3.71369 3.19002 3.7397 3.17944 3.76708 3.17643C3.79446 3.17343 3.82214 3.17813 3.847 3.19C3.89376 3.2072 3.93352 3.23937 3.96011 3.28151C3.98669 3.32365 3.99861 3.37339 3.994 3.423C3.99427 3.48645 3.97967 3.54908 3.95136 3.60587C3.92306 3.66266 3.88183 3.71202 3.831 3.75C3.77933 3.78873 3.71908 3.81441 3.65535 3.82486C3.59163 3.8353 3.52633 3.83021 3.465 3.81C3.38202 3.77778 3.3113 3.72026 3.26284 3.64559C3.21438 3.57093 3.19064 3.48291 3.195 3.394C3.19495 3.2551 3.22319 3.11764 3.278 2.99C3.286 2.971 3.49 2.542 3.542 2.382C3.58631 2.29493 3.60307 2.19644 3.59003 2.09962C3.57698 2.00279 3.53477 1.91224 3.469 1.84C3.42147 1.79648 3.3622 1.76788 3.29856 1.75775C3.23492 1.74761 3.1697 1.75639 3.111 1.783C3.09339 1.79172 3.07664 1.8021 3.061 1.814C3.04536 1.80209 3.02862 1.79171 3.011 1.783C2.95243 1.75661 2.88741 1.74794 2.82397 1.75807C2.76053 1.7682 2.70144 1.79668 2.654 1.84C2.58807 1.91213 2.54567 2.00263 2.53245 2.09946C2.51923 2.19628 2.53582 2.29484 2.58 2.382C2.633 2.542 2.836 2.972 2.843 2.986C2.89889 3.11477 2.92782 3.25362 2.928 3.394C2.93214 3.48274 2.90831 3.57054 2.85986 3.645C2.81142 3.71947 2.74081 3.77683 2.658 3.809C2.59662 3.8296 2.53116 3.835 2.46723 3.82472C2.40331 3.81444 2.34283 3.7888 2.291 3.75C2.24035 3.71192 2.19932 3.66251 2.17119 3.60573C2.14306 3.54895 2.12861 3.48637 2.129 3.423C2.12439 3.37339 2.13631 3.32365 2.16289 3.28151C2.18948 3.23937 2.22924 3.2072 2.276 3.19C2.30086 3.17813 2.32854 3.17343 2.35592 3.17643C2.3833 3.17944 2.40931 3.19002 2.431 3.207C2.449 3.23 2.447 3.293 2.383 3.396C2.36397 3.42623 2.3575 3.4627 2.36498 3.49763C2.37245 3.53257 2.39327 3.5632 2.423 3.583C2.43778 3.59252 2.45432 3.59899 2.47163 3.60203C2.48895 3.60507 2.5067 3.60462 2.52384 3.60071C2.54097 3.59679 2.55716 3.5895 2.57144 3.57924C2.58572 3.56899 2.59781 3.55599 2.607 3.541C2.66656 3.4724 2.70202 3.3862 2.70798 3.29555C2.71394 3.20491 2.69007 3.1148 2.64 3.039C2.58633 2.97779 2.51506 2.93466 2.43594 2.91551C2.35682 2.89636 2.27372 2.90212 2.198 2.932C2.24777 2.81868 2.26405 2.69348 2.24491 2.57121C2.22577 2.44893 2.17202 2.33469 2.09 2.242C2.0777 2.22939 2.06301 2.21937 2.04678 2.21253C2.03055 2.20569 2.01311 2.20216 1.9955 2.20216C1.97789 2.20216 1.96045 2.20569 1.94422 2.21253C1.92799 2.21937 1.9133 2.22939 1.901 2.242C1.87584 2.26762 1.86174 2.30209 1.86174 2.338C1.86174 2.37391 1.87584 2.40838 1.901 2.434C2.008 2.543 1.994 2.632 1.938 2.874C1.8907 3.05328 1.86518 3.23761 1.862 3.423C1.86322 3.56995 1.91159 3.71262 2 3.83H1.995C1.96203 3.83402 1.93166 3.84997 1.90964 3.87484C1.88762 3.89971 1.87546 3.93178 1.87546 3.965C1.87546 3.99822 1.88762 4.03029 1.90964 4.05516C1.93166 4.08003 1.96203 4.09598 1.995 4.1H2C1.91139 4.21766 1.86301 4.36071 1.862 4.508C1.86532 4.69305 1.89083 4.87703 1.938 5.056C1.994 5.298 2.008 5.388 1.901 5.496C1.87584 5.52162 1.86174 5.55609 1.86174 5.592C1.86174 5.62791 1.87584 5.66238 1.901 5.688C1.9133 5.70061 1.92799 5.71063 1.94422 5.71747C1.96045 5.72431 1.97789 5.72784 1.9955 5.72784C2.01311 5.72784 2.03055 5.72431 2.04678 5.71747C2.06301 5.71063 2.0777 5.70061 2.09 5.688C2.17202 5.59531 2.22577 5.48107 2.24491 5.35879C2.26405 5.23652 2.24777 5.11132 2.198 4.998C2.27374 5.02774 2.35681 5.03342 2.43589 5.01427C2.51498 4.99513 2.58624 4.95209 2.64 4.891C2.69023 4.81526 2.7142 4.72512 2.70824 4.63443C2.70228 4.54374 2.66671 4.45752 2.607 4.389C2.59773 4.37409 2.58558 4.36118 2.57126 4.35103C2.55694 4.34087 2.54074 4.33368 2.52361 4.32986C2.50648 4.32604 2.48875 4.32568 2.47148 4.32879C2.4542 4.33191 2.43772 4.33844 2.423 4.348C2.39327 4.3678 2.37245 4.39843 2.36498 4.43337C2.3575 4.4683 2.36397 4.50477 2.383 4.535C2.447 4.637 2.448 4.7 2.431 4.723C2.4092 4.73977 2.38322 4.75023 2.35588 4.75322C2.32855 4.75622 2.30091 4.75165 2.276 4.74C2.22942 4.72284 2.18978 4.69082 2.16322 4.64889C2.13665 4.60696 2.12462 4.55745 2.129 4.508C2.12845 4.44446 2.14283 4.38169 2.17096 4.32472C2.1991 4.26775 2.24022 4.21818 2.291 4.18C2.34272 4.14136 2.40302 4.11581 2.46675 4.10554C2.53049 4.09526 2.59576 4.10057 2.657 4.121C2.74016 4.15306 2.81111 4.21051 2.85976 4.28519C2.9084 4.35987 2.93228 4.44798 2.928 4.537C2.92788 4.67738 2.89895 4.81625 2.843 4.945L1.97 6.942C1.89837 7.10563 1.86159 7.28238 1.862 7.461C1.86089 7.57 1.88421 7.67786 1.93024 7.77667C1.97627 7.87548 2.04384 7.96272 2.128 8.032C2.04371 8.10138 1.97606 8.18879 1.93002 8.28778C1.88399 8.38678 1.86074 8.49483 1.862 8.604C1.86176 8.78228 1.89854 8.95867 1.97 9.122L2.843 11.12C2.89889 11.2488 2.92782 11.3876 2.928 11.528C2.93214 11.6167 2.90831 11.7045 2.85986 11.779C2.81142 11.8535 2.74081 11.9108 2.658 11.943C2.59662 11.9636 2.53116 11.969 2.46723 11.9587C2.40331 11.9484 2.34283 11.9228 2.291 11.884C2.24017 11.846 2.19894 11.7967 2.17064 11.7399C2.14233 11.6831 2.12773 11.6205 2.128 11.557C2.12339 11.5074 2.13531 11.4576 2.16189 11.4155C2.18848 11.3734 2.22824 11.3412 2.275 11.324C2.29989 11.3122 2.32754 11.3076 2.3549 11.3106C2.38226 11.3136 2.40825 11.3241 2.43 11.341C2.448 11.364 2.446 11.427 2.383 11.53C2.36397 11.5602 2.3575 11.5967 2.36498 11.6316C2.37245 11.6666 2.39327 11.6972 2.423 11.717C2.43778 11.7265 2.45432 11.733 2.47163 11.736C2.48895 11.7391 2.5067 11.7386 2.52384 11.7347C2.54097 11.7308 2.55716 11.7235 2.57144 11.7132C2.58572 11.703 2.59781 11.69 2.607 11.675C2.66656 11.6064 2.70202 11.5202 2.70798 11.4296C2.71394 11.3389 2.69007 11.2488 2.64 11.173C2.58624 11.1119 2.51498 11.0689 2.43589 11.0497C2.35681 11.0306 2.27374 11.0363 2.198 11.066C2.24764 10.9526 2.26376 10.8273 2.24444 10.7051C2.22512 10.5828 2.17118 10.4686 2.089 10.376C2.07672 10.3635 2.06208 10.3537 2.04595 10.3469C2.02981 10.3401 2.01249 10.3367 1.995 10.3367C1.97751 10.3367 1.96019 10.3401 1.94405 10.3469C1.92791 10.3537 1.91328 10.3635 1.901 10.376C1.87584 10.4016 1.86174 10.4361 1.86174 10.472C1.86174 10.5079 1.87584 10.5424 1.901 10.568C2.008 10.677 1.994 10.766 1.938 11.008C1.89075 11.1873 1.86524 11.3716 1.862 11.557C1.86293 11.7038 1.91095 11.8465 1.999 11.964H1.995C1.96203 11.968 1.93166 11.984 1.90964 12.0088C1.88762 12.0337 1.87546 12.0658 1.87546 12.099C1.87546 12.1322 1.88762 12.1643 1.90964 12.1892C1.93166 12.214 1.96203 12.23 1.995 12.234H2C1.91175 12.3518 1.86372 12.4948 1.863 12.642C1.86624 12.8274 1.89175 13.0117 1.939 13.191C1.995 13.433 2.009 13.521 1.902 13.631C1.87714 13.6566 1.86323 13.6908 1.86323 13.7265C1.86323 13.7622 1.87714 13.7964 1.902 13.822C1.91428 13.8345 1.92892 13.8443 1.94505 13.8511C1.96119 13.8579 1.97851 13.8613 1.996 13.8613C2.01349 13.8613 2.03081 13.8579 2.04695 13.8511C2.06309 13.8443 2.07772 13.8345 2.09 13.822C2.17218 13.7294 2.22612 13.6152 2.24544 13.4929C2.26475 13.3707 2.24864 13.2454 2.199 13.132C2.27474 13.1617 2.35781 13.1674 2.43689 13.1483C2.51598 13.1291 2.58724 13.0861 2.641 13.025C2.69107 12.9492 2.71494 12.8591 2.70898 12.7684C2.70302 12.6778 2.66756 12.5916 2.608 12.523C2.59873 12.5081 2.58658 12.4952 2.57226 12.485C2.55794 12.4749 2.54174 12.4677 2.52461 12.4639C2.50748 12.46 2.48975 12.4597 2.47248 12.4628C2.4552 12.4659 2.43872 12.4724 2.424 12.482C2.39427 12.5018 2.37345 12.5324 2.36598 12.5674C2.3585 12.6023 2.36497 12.6388 2.384 12.669C2.448 12.771 2.449 12.834 2.432 12.857C2.41031 12.874 2.3843 12.8846 2.35692 12.8876C2.32954 12.8906 2.30186 12.8859 2.277 12.874C2.23042 12.8568 2.19078 12.8248 2.16422 12.7829C2.13765 12.741 2.12562 12.6914 2.13 12.642C2.12945 12.5785 2.14383 12.5157 2.17196 12.4587C2.2001 12.4018 2.24122 12.3522 2.292 12.314C2.34372 12.2754 2.40402 12.2498 2.46775 12.2395C2.53149 12.2293 2.59676 12.2346 2.658 12.255C2.74098 12.2872 2.8117 12.3447 2.86016 12.4194C2.90862 12.4941 2.93236 12.5821 2.928 12.671C2.92819 12.8113 2.8996 12.9502 2.844 13.079L1.971 15.077C1.89951 15.2403 1.86273 15.4167 1.863 15.595C1.86174 15.7042 1.88499 15.8122 1.93102 15.9112C1.97706 16.0102 2.04471 16.0976 2.129 16.167C2.04484 16.2363 1.97727 16.3235 1.93124 16.4223C1.88521 16.5211 1.86189 16.629 1.863 16.738C1.86262 16.9166 1.8994 17.0934 1.971 17.257L2.844 19.254C2.89989 19.3828 2.92882 19.5216 2.929 19.662C2.93336 19.7509 2.90963 19.8389 2.86116 19.9136C2.8127 19.9883 2.74197 20.0458 2.659 20.078C2.59754 20.0985 2.53203 20.1037 2.4681 20.0932C2.40418 20.0828 2.34374 20.057 2.292 20.018C2.2413 19.9801 2.20016 19.9309 2.17186 19.8743C2.14356 19.8177 2.12888 19.7553 2.129 19.692C2.12439 19.6424 2.13631 19.5926 2.16289 19.5505C2.18948 19.5084 2.22924 19.4762 2.276 19.459C2.30089 19.4472 2.32854 19.4426 2.3559 19.4456C2.38326 19.4486 2.40925 19.4591 2.431 19.476C2.449 19.499 2.447 19.562 2.384 19.664C2.36497 19.6942 2.3585 19.7307 2.36598 19.7656C2.37345 19.8006 2.39427 19.8312 2.424 19.851C2.43872 19.8606 2.4552 19.8671 2.47248 19.8702C2.48975 19.8733 2.50748 19.873 2.52461 19.8691C2.54174 19.8653 2.55794 19.8581 2.57226 19.848C2.58658 19.8378 2.59873 19.8249 2.608 19.81C2.66756 19.7414 2.70302 19.6552 2.70898 19.5646C2.71494 19.4739 2.69107 19.3838 2.641 19.308C2.58733 19.2468 2.51606 19.2037 2.43694 19.1845C2.35782 19.1654 2.27472 19.1711 2.199 19.201C2.24864 19.0876 2.26475 18.9623 2.24544 18.8401C2.22612 18.7178 2.17218 18.6036 2.09 18.511C2.07772 18.4985 2.06309 18.4887 2.04695 18.4819C2.03081 18.4751 2.01349 18.4717 1.996 18.4717C1.97851 18.4717 1.96119 18.4751 1.94505 18.4819C1.92892 18.4887 1.91428 18.4985 1.902 18.511C1.87684 18.5366 1.86274 18.5711 1.86274 18.607C1.86274 18.6429 1.87684 18.6774 1.902 18.703C2.009 18.811 1.995 18.901 1.939 19.143C1.89182 19.322 1.86631 19.5059 1.863 19.691C1.86295 19.7959 1.887 19.8994 1.93329 19.9936C1.97959 20.0877 2.04689 20.17 2.13 20.234C2.04702 20.2979 1.9798 20.38 1.93351 20.474C1.88723 20.5679 1.8631 20.6713 1.863 20.776C1.86624 20.9614 1.89175 21.1457 1.939 21.325C1.995 21.567 2.009 21.656 1.902 21.765C1.87714 21.7906 1.86323 21.8248 1.86323 21.8605C1.86323 21.8962 1.87714 21.9304 1.902 21.956C1.91428 21.9685 1.92892 21.9783 1.94505 21.9851C1.96119 21.9919 1.97851 21.9953 1.996 21.9953C2.01349 21.9953 2.03081 21.9919 2.04695 21.9851C2.06309 21.9783 2.07772 21.9685 2.09 21.956C2.17218 21.8634 2.22612 21.7492 2.24544 21.6269C2.26475 21.5047 2.24864 21.3794 2.199 21.266C2.27464 21.2959 2.35764 21.3017 2.43672 21.2827C2.5158 21.2638 2.58712 21.2209 2.641 21.16C2.69123 21.0843 2.7152 20.9941 2.70924 20.9034C2.70328 20.8127 2.66771 20.7265 2.608 20.658C2.59881 20.643 2.58672 20.63 2.57244 20.6198C2.55816 20.6095 2.54197 20.6022 2.52484 20.5983C2.5077 20.5944 2.48995 20.5939 2.47263 20.597C2.45532 20.6 2.43878 20.6065 2.424 20.616C2.39427 20.6358 2.37345 20.6664 2.36598 20.7014C2.3585 20.7363 2.36497 20.7728 2.384 20.803C2.448 20.906 2.449 20.969 2.432 20.992C2.4102 21.0088 2.38422 21.0192 2.35688 21.0222C2.32955 21.0252 2.30191 21.0206 2.277 21.009C2.23024 20.9918 2.19048 20.9596 2.16389 20.9175C2.13731 20.8754 2.12539 20.8256 2.13 20.776C2.12961 20.7126 2.14406 20.6501 2.17219 20.5933C2.20032 20.5365 2.24135 20.4871 2.292 20.449C2.34367 20.4103 2.40392 20.3846 2.46765 20.3741C2.53137 20.3637 2.59667 20.3688 2.658 20.389C2.74098 20.4212 2.8117 20.4787 2.86016 20.5534C2.90862 20.6281 2.93236 20.7161 2.928 20.805C2.92836 20.9438 2.90046 21.0813 2.846 21.209C2.837 21.228 2.633 21.657 2.581 21.817C2.53682 21.9042 2.52023 22.0027 2.53345 22.0995C2.54667 22.1964 2.58907 22.2869 2.655 22.359C2.71511 22.4148 2.79401 22.4458 2.876 22.446C2.92327 22.4457 2.96995 22.4355 3.013 22.416C3.03061 22.4073 3.04736 22.3969 3.063 22.385C3.07832 22.3969 3.09473 22.4072 3.112 22.416C3.15472 22.4354 3.20106 22.4457 3.248 22.446C3.33033 22.4461 3.40964 22.415 3.47 22.359C3.53577 22.2868 3.57798 22.1962 3.59103 22.0994C3.60407 22.0026 3.58731 21.9041 3.543 21.817C3.491 21.657 3.287 21.227 3.281 21.213C3.22476 21.0843 3.19549 20.9454 3.195 20.805C3.19093 20.7161 3.21491 20.6283 3.26355 20.5538C3.31218 20.4793 3.38301 20.422 3.466 20.39C3.52725 20.3697 3.59251 20.3644 3.65623 20.3747C3.71995 20.3849 3.78025 20.4104 3.832 20.449C3.88283 20.487 3.92406 20.5363 3.95236 20.5931C3.98067 20.6499 3.99527 20.7125 3.995 20.776C3.99961 20.8256 3.98769 20.8754 3.96111 20.9175C3.93452 20.9596 3.89476 20.9918 3.848 21.009C3.82311 21.0208 3.79546 21.0254 3.7681 21.0224C3.74074 21.0194 3.71475 21.0089 3.693 20.992C3.675 20.969 3.677 20.906 3.741 20.803C3.76003 20.7728 3.7665 20.7363 3.75902 20.7014C3.75155 20.6664 3.73073 20.6358 3.701 20.616C3.68614 20.6065 3.66953 20.6 3.65214 20.5969C3.63474 20.5939 3.61692 20.5943 3.5997 20.5982C3.58247 20.6021 3.5662 20.6094 3.55183 20.6197C3.53746 20.63 3.52528 20.643 3.516 20.658C3.45659 20.7267 3.42131 20.813 3.41553 20.9036C3.40975 20.9943 3.4338 21.0843 3.484 21.16C3.53768 21.2209 3.60877 21.2638 3.68765 21.2829C3.76653 21.3021 3.84939 21.2965 3.925 21.267C3.87536 21.3804 3.85925 21.5057 3.87856 21.6279C3.89788 21.7502 3.95182 21.8644 4.034 21.957C4.04628 21.9695 4.06091 21.9793 4.07705 21.9861C4.09319 21.9929 4.11051 21.9963 4.128 21.9963C4.14549 21.9963 4.16281 21.9929 4.17895 21.9861C4.19509 21.9793 4.20972 21.9695 4.222 21.957C4.24716 21.9314 4.26126 21.8969 4.26126 21.861C4.26126 21.8251 4.24716 21.7906 4.222 21.765C4.116 21.656 4.13 21.567 4.186 21.325C4.23291 21.1457 4.25809 20.9613 4.261 20.776C4.2609 20.6713 4.23677 20.5679 4.19049 20.474C4.1442 20.38 4.07698 20.2979 3.994 20.234C4.07711 20.17 4.14441 20.0877 4.19071 19.9936C4.237 19.8994 4.26105 19.7959 4.261 19.691C4.25809 19.5057 4.23291 19.3213 4.186 19.142C4.13 18.9 4.116 18.812 4.222 18.702C4.24686 18.6764 4.26077 18.6422 4.26077 18.6065C4.26077 18.5708 4.24686 18.5366 4.222 18.511C4.20972 18.4985 4.19509 18.4887 4.17895 18.4819C4.16281 18.4751 4.14549 18.4717 4.128 18.4717C4.11051 18.4717 4.09319 18.4751 4.07705 18.4819C4.06091 18.4887 4.04628 18.4985 4.034 18.511C3.95182 18.6036 3.89788 18.7178 3.87856 18.8401C3.85925 18.9623 3.87536 19.0876 3.925 19.201C3.84951 19.1712 3.76667 19.1654 3.68777 19.1844C3.60886 19.2034 3.53772 19.2462 3.484 19.307C3.43339 19.3827 3.40911 19.473 3.41489 19.5639C3.42068 19.6548 3.45621 19.7413 3.516 19.81C3.52527 19.8249 3.53742 19.8378 3.55174 19.848C3.56606 19.8581 3.58226 19.8653 3.59939 19.8691C3.61652 19.873 3.63425 19.8733 3.65152 19.8702C3.6688 19.8671 3.68528 19.8606 3.7 19.851C3.72973 19.8312 3.75055 19.8006 3.75802 19.7656C3.7655 19.7307 3.75903 19.6942 3.74 19.664C3.677 19.562 3.675 19.499 3.693 19.476C3.7148 19.4592 3.74078 19.4488 3.76812 19.4458C3.79545 19.4428 3.82309 19.4474 3.848 19.459C3.89458 19.4762 3.93422 19.5082 3.96078 19.5501C3.98735 19.592 3.99938 19.6416 3.995 19.691C3.99555 19.7545 3.98117 19.8173 3.95304 19.8743C3.9249 19.9312 3.88378 19.9808 3.833 20.019C3.78117 20.0578 3.72069 20.0834 3.65677 20.0937C3.59284 20.104 3.52738 20.0986 3.466 20.078C3.38303 20.0458 3.3123 19.9883 3.26384 19.9136C3.21537 19.8389 3.19164 19.7509 3.196 19.662C3.19612 19.5216 3.22505 19.3828 3.281 19.254L4.153 17.256C4.22446 17.0927 4.26124 16.9163 4.261 16.738C4.26211 16.629 4.23879 16.5211 4.19276 16.4223C4.14673 16.3235 4.07916 16.2363 3.995 16.167C4.07929 16.0976 4.14694 16.0102 4.19298 15.9112C4.23901 15.8122 4.26226 15.7042 4.261 15.595C4.26124 15.4167 4.22446 15.2403 4.153 15.077L3.281 13.079C3.22511 12.9502 3.19618 12.8114 3.196 12.671C3.19186 12.5823 3.21569 12.4945 3.26414 12.42C3.31258 12.3455 3.38319 12.2882 3.466 12.256C3.52739 12.2355 3.59284 12.2301 3.65675 12.2404C3.72066 12.2507 3.78113 12.2763 3.833 12.315C3.88365 12.3531 3.92468 12.4025 3.95281 12.4593C3.98094 12.5161 3.99539 12.5786 3.995 12.642C3.99961 12.6916 3.98769 12.7414 3.96111 12.7835C3.93452 12.8256 3.89476 12.8578 3.848 12.875C3.82314 12.8869 3.79546 12.8916 3.76808 12.8886C3.7407 12.8856 3.71469 12.875 3.693 12.858C3.675 12.835 3.677 12.772 3.741 12.669C3.76003 12.6388 3.7665 12.6023 3.75902 12.5674C3.75155 12.5324 3.73073 12.5018 3.701 12.482C3.68614 12.4725 3.66953 12.466 3.65214 12.4629C3.63474 12.4599 3.61692 12.4603 3.5997 12.4642C3.58247 12.4681 3.5662 12.4754 3.55183 12.4857C3.53746 12.496 3.52528 12.509 3.516 12.524C3.45659 12.5927 3.42131 12.679 3.41553 12.7696C3.40975 12.8603 3.4338 12.9503 3.484 13.026C3.53776 13.0871 3.60902 13.1301 3.68811 13.1493C3.76719 13.1684 3.85026 13.1627 3.926 13.133C3.87623 13.2463 3.85995 13.3715 3.87909 13.4938C3.89823 13.6161 3.95198 13.7303 4.034 13.823C4.0463 13.8356 4.06099 13.8456 4.07722 13.8525C4.09345 13.8593 4.11089 13.8628 4.1285 13.8628C4.14611 13.8628 4.16355 13.8593 4.17978 13.8525C4.19601 13.8456 4.2107 13.8356 4.223 13.823C4.24816 13.7974 4.26226 13.7629 4.26226 13.727C4.26226 13.6911 4.24816 13.6566 4.223 13.631C4.116 13.522 4.13 13.433 4.186 13.191C4.23325 13.0117 4.25876 12.8274 4.262 12.642C4.26078 12.4951 4.21241 12.3524 4.124 12.235H4.128C4.16097 12.231 4.19134 12.215 4.21336 12.1902C4.23538 12.1653 4.24754 12.1332 4.24754 12.1C4.24754 12.0668 4.23538 12.0347 4.21336 12.0098C4.19134 11.985 4.16097 11.969 4.128 11.965H4.124C4.21267 11.8474 4.26107 11.7043 4.262 11.557C4.25876 11.3716 4.23325 11.1873 4.186 11.008C4.13 10.766 4.116 10.678 4.223 10.568C4.24786 10.5424 4.26177 10.5082 4.26177 10.4725C4.26177 10.4368 4.24786 10.4026 4.223 10.377C4.2107 10.3644 4.19601 10.3544 4.17978 10.3475C4.16355 10.3407 4.14611 10.3372 4.1285 10.3372C4.11089 10.3372 4.09345 10.3407 4.07722 10.3475C4.06099 10.3544 4.0463 10.3644 4.034 10.377C3.95198 10.4697 3.89823 10.5839 3.87909 10.7062C3.85995 10.8285 3.87623 10.9537 3.926 11.067C3.85026 11.0373 3.76719 11.0316 3.68811 11.0507C3.60902 11.0699 3.53776 11.1129 3.484 11.174C3.4338 11.2497 3.40975 11.3397 3.41553 11.4304C3.42131 11.521 3.45659 11.6073 3.516 11.676C3.52527 11.6909 3.53742 11.7038 3.55174 11.714C3.56606 11.7241 3.58226 11.7313 3.59939 11.7351C3.61652 11.739 3.63425 11.7393 3.65152 11.7362C3.6688 11.7331 3.68528 11.7266 3.7 11.717C3.7299 11.6974 3.75092 11.6668 3.75858 11.6318C3.76624 11.5969 3.75993 11.5604 3.741 11.53C3.677 11.428 3.675 11.365 3.693 11.342C3.7148 11.3252 3.74078 11.3148 3.76812 11.3118C3.79545 11.3088 3.82309 11.3134 3.848 11.325C3.89458 11.3422 3.93422 11.3742 3.96078 11.4161C3.98735 11.458 3.99938 11.5076 3.995 11.557C3.99555 11.6205 3.98117 11.6833 3.95304 11.7403C3.9249 11.7972 3.88378 11.8468 3.833 11.885C3.78113 11.9237 3.72066 11.9493 3.65675 11.9596C3.59284 11.9699 3.52739 11.9645 3.466 11.944C3.38303 11.9118 3.3123 11.8543 3.26384 11.7796C3.21537 11.7049 3.19164 11.6169 3.196 11.528C3.19612 11.3876 3.22505 11.2488 3.281 11.12L4.153 9.122C4.22481 8.95874 4.26192 8.78235 4.262 8.604C4.26311 8.495 4.23979 8.38714 4.19376 8.28833C4.14773 8.18952 4.08016 8.10228 3.996 8.033C4.08029 7.96362 4.14794 7.87621 4.19398 7.77722C4.24001 7.67822 4.26326 7.57017 4.262 7.461C4.26189 7.28265 4.22478 7.10627 4.153 6.943L3.28 4.945C3.22411 4.81623 3.19518 4.67738 3.195 4.537C3.19086 4.44826 3.21469 4.36046 3.26314 4.286C3.31158 4.21153 3.38219 4.15417 3.465 4.122C3.52639 4.10148 3.59184 4.09613 3.65575 4.10641C3.71966 4.11668 3.78013 4.14228 3.832 4.181C3.88265 4.21908 3.92368 4.26849 3.95181 4.32527C3.97994 4.38205 3.99439 4.44463 3.994 4.508C3.99861 4.55761 3.98669 4.60735 3.96011 4.64949C3.93352 4.69163 3.89376 4.7238 3.847 4.741C3.82209 4.75265 3.79445 4.75722 3.76712 4.75422C3.73978 4.75123 3.7138 4.74077 3.692 4.724C3.674 4.701 3.676 4.638 3.74 4.535C3.75903 4.50477 3.7655 4.4683 3.75802 4.43337C3.75055 4.39843 3.72973 4.3678 3.7 4.348C3.68518 4.33832 3.66857 4.33172 3.65115 4.3286C3.63373 4.32547 3.61586 4.32588 3.5986 4.32979C3.58134 4.33371 3.56505 4.34106 3.55068 4.35141C3.53632 4.36175 3.52419 4.37487 3.515 4.39C3.45559 4.45871 3.42031 4.54497 3.41453 4.63562C3.40875 4.72626 3.4328 4.81631 3.483 4.892C3.53676 4.95309 3.60802 4.99613 3.68711 5.01527C3.76619 5.03442 3.84926 5.02874 3.925 4.999C3.87523 5.11232 3.85895 5.23752 3.87809 5.35979C3.89723 5.48207 3.95098 5.59631 4.033 5.689C4.0453 5.70161 4.05999 5.71163 4.07622 5.71847C4.09245 5.72531 4.10989 5.72884 4.1275 5.72884C4.14511 5.72884 4.16255 5.72531 4.17878 5.71847C4.19501 5.71163 4.2097 5.70161 4.222 5.689C4.24716 5.66338 4.26126 5.62891 4.26126 5.593C4.26126 5.55709 4.24716 5.52262 4.222 5.497C4.115 5.388 4.129 5.299 4.185 5.057C4.23233 4.87738 4.25784 4.69272 4.261 4.507C4.25957 4.3604 4.2112 4.21811 4.123 4.101H4.127C4.14468 4.101 4.16219 4.0975 4.17851 4.0907C4.19483 4.08391 4.20965 4.07395 4.22211 4.0614C4.23456 4.04885 4.24441 4.03396 4.25109 4.01759C4.25776 4.00121 4.26013 3.98368 4.26 3.966ZM2.833 2.296C2.785 2.152 2.802 2.069 2.833 2.041C2.84261 2.03267 2.85443 2.02729 2.86702 2.02552C2.87962 2.02374 2.89246 2.02565 2.904 2.031C2.91136 2.03359 2.91768 2.0385 2.92201 2.04499C2.92634 2.05149 2.92844 2.05921 2.928 2.067C2.928 2.10227 2.94201 2.1361 2.96695 2.16105C2.9919 2.18599 3.02573 2.2 3.061 2.2C3.09627 2.2 3.1301 2.18599 3.15505 2.16105C3.17999 2.1361 3.194 2.10227 3.194 2.067C3.19356 2.05921 3.19566 2.05149 3.19999 2.04499C3.20432 2.0385 3.21064 2.03359 3.218 2.031C3.22954 2.02565 3.24238 2.02374 3.25498 2.02552C3.26757 2.02729 3.27939 2.03267 3.289 2.041C3.321 2.069 3.337 2.151 3.289 2.296C3.21988 2.47424 3.14382 2.6497 3.061 2.822C2.97815 2.64972 2.90209 2.47425 2.833 2.296ZM3.193 3.966C3.1424 4.00636 3.09794 4.05385 3.061 4.107C3.02387 4.0534 2.97906 4.00556 2.928 3.965C2.97895 3.92472 3.02376 3.87722 3.061 3.824C3.09824 3.87722 3.14305 3.92472 3.194 3.965L3.193 3.966ZM3.29 21.903C3.337 22.047 3.32 22.129 3.29 22.158C3.28023 22.1664 3.26825 22.1718 3.25547 22.1736C3.2427 22.1754 3.22969 22.1734 3.218 22.168C3.21064 22.1654 3.20432 22.1605 3.19999 22.154C3.19566 22.1475 3.19356 22.1398 3.194 22.132C3.194 22.0967 3.17999 22.0629 3.15505 22.038C3.1301 22.013 3.09627 21.999 3.061 21.999C3.02573 21.999 2.9919 22.013 2.96695 22.038C2.94201 22.0629 2.928 22.0967 2.928 22.132C2.92844 22.1398 2.92634 22.1475 2.92201 22.154C2.91768 22.1605 2.91136 22.1654 2.904 22.168C2.89243 22.1732 2.87962 22.1751 2.86705 22.1733C2.85448 22.1715 2.84267 22.1662 2.833 22.158C2.802 22.129 2.785 22.048 2.833 21.903C2.867 21.798 2.992 21.525 3.061 21.377C3.129 21.521 3.255 21.797 3.29 21.903ZM2.928 20.233C2.97895 20.1927 3.02376 20.1452 3.061 20.092C3.09813 20.1456 3.14294 20.1934 3.194 20.234C3.14305 20.2743 3.09824 20.3218 3.061 20.375C3.02376 20.3218 2.97895 20.2733 2.928 20.233ZM3.908 17.146L3.061 19.086L2.214 17.146C2.15776 17.0173 2.12849 16.8784 2.128 16.738C2.12372 16.649 2.1476 16.5609 2.19624 16.4862C2.24489 16.4115 2.31584 16.3541 2.399 16.322C2.46033 16.3018 2.52563 16.2967 2.58935 16.3071C2.65308 16.3176 2.71333 16.3433 2.765 16.382C2.81583 16.42 2.85706 16.4693 2.88536 16.5261C2.91367 16.5829 2.92827 16.6455 2.928 16.709C2.93238 16.7584 2.92035 16.808 2.89378 16.8499C2.86722 16.8918 2.82758 16.9238 2.781 16.941C2.75611 16.9528 2.72846 16.9574 2.7011 16.9544C2.67374 16.9514 2.64775 16.9409 2.626 16.924C2.608 16.901 2.61 16.838 2.674 16.736C2.69303 16.7058 2.6995 16.6693 2.69202 16.6344C2.68455 16.5994 2.66373 16.5688 2.634 16.549C2.61914 16.5395 2.60253 16.533 2.58514 16.5299C2.56774 16.5269 2.54992 16.5273 2.5327 16.5312C2.51547 16.5351 2.4992 16.5424 2.48483 16.5527C2.47046 16.563 2.45828 16.576 2.449 16.591C2.38959 16.6597 2.35431 16.746 2.34853 16.8366C2.34275 16.9273 2.3668 17.0173 2.417 17.093C2.47174 17.1555 2.5447 17.1992 2.62561 17.2181C2.70651 17.2369 2.79129 17.2299 2.868 17.198C2.88858 17.1907 2.90863 17.1821 2.928 17.172V17.515C2.92707 17.4796 2.91212 17.446 2.88642 17.4216C2.86073 17.3972 2.82641 17.3841 2.791 17.385C2.75559 17.3859 2.72201 17.4009 2.69763 17.4266C2.67325 17.4523 2.66007 17.4866 2.661 17.522C2.66533 17.5937 2.69426 17.6617 2.7429 17.7145C2.79154 17.7673 2.85692 17.8018 2.928 17.812V18.064C2.928 18.0993 2.94201 18.1331 2.96695 18.158C2.9919 18.183 3.02573 18.197 3.061 18.197C3.09627 18.197 3.1301 18.183 3.15505 18.158C3.17999 18.1331 3.194 18.0993 3.194 18.064V17.812C3.26508 17.8018 3.33046 17.7673 3.3791 17.7145C3.42774 17.6617 3.45667 17.5937 3.461 17.522C3.46155 17.4859 3.44793 17.451 3.42307 17.4249C3.3982 17.3987 3.36408 17.3833 3.328 17.382C3.31059 17.3816 3.29328 17.3847 3.2771 17.3911C3.26091 17.3975 3.24618 17.4071 3.23377 17.4193C3.22137 17.4316 3.21154 17.4462 3.20488 17.4622C3.19822 17.4783 3.19486 17.4956 3.195 17.513V17.172C3.21404 17.182 3.23376 17.1907 3.254 17.198C3.33073 17.2297 3.41547 17.2367 3.49634 17.2178C3.57721 17.199 3.65017 17.1554 3.705 17.093C3.75536 17.0174 3.77951 16.9273 3.77373 16.8366C3.76794 16.7459 3.73256 16.6596 3.673 16.591C3.66381 16.576 3.65172 16.563 3.63744 16.5528C3.62316 16.5425 3.60697 16.5352 3.58984 16.5313C3.5727 16.5274 3.55495 16.5269 3.53763 16.53C3.52032 16.533 3.50378 16.5395 3.489 16.549C3.45927 16.5688 3.43845 16.5994 3.43098 16.6344C3.4235 16.6693 3.42997 16.7058 3.449 16.736C3.512 16.839 3.514 16.902 3.496 16.925C3.4742 16.9418 3.44822 16.9522 3.42088 16.9552C3.39355 16.9582 3.36591 16.9536 3.341 16.942C3.29424 16.9248 3.25448 16.8926 3.22789 16.8505C3.20131 16.8084 3.18939 16.7586 3.194 16.709C3.19373 16.6455 3.20833 16.5829 3.23664 16.5261C3.26494 16.4693 3.30617 16.42 3.357 16.382C3.40863 16.3432 3.46889 16.3175 3.53263 16.307C3.59636 16.2966 3.66168 16.3017 3.723 16.322C3.80598 16.3542 3.8767 16.4117 3.92516 16.4864C3.97362 16.5611 3.99736 16.6491 3.993 16.738C3.99331 16.8783 3.96371 17.0172 3.908 17.146ZM2.928 16.166C2.97907 16.1255 3.02388 16.0776 3.061 16.024C3.09837 16.078 3.14353 16.1262 3.195 16.167C3.14362 16.2075 3.09847 16.2554 3.061 16.309C3.02355 16.2553 2.9784 16.2075 2.927 16.167L2.928 16.166ZM3.908 15.186C3.9645 15.3153 3.99378 15.4549 3.994 15.596C3.99814 15.6847 3.97431 15.7725 3.92586 15.847C3.87742 15.9215 3.80681 15.9788 3.724 16.011C3.66254 16.0315 3.59703 16.0367 3.5331 16.0262C3.46918 16.0158 3.40874 15.99 3.357 15.951C3.30617 15.913 3.26494 15.8637 3.23664 15.8069C3.20833 15.7501 3.19373 15.6875 3.194 15.624C3.18962 15.5746 3.20165 15.525 3.22822 15.4831C3.25478 15.4412 3.29442 15.4092 3.341 15.392C3.36589 15.3802 3.39354 15.3756 3.4209 15.3786C3.44826 15.3816 3.47425 15.3921 3.496 15.409C3.514 15.432 3.512 15.495 3.448 15.597C3.42907 15.6274 3.42276 15.6639 3.43042 15.6988C3.43808 15.7338 3.4591 15.7644 3.489 15.784C3.50378 15.7935 3.52032 15.8 3.53763 15.803C3.55495 15.8061 3.5727 15.8056 3.58984 15.8017C3.60697 15.7978 3.62316 15.7905 3.63744 15.7802C3.65172 15.77 3.66381 15.757 3.673 15.742C3.73241 15.6733 3.76769 15.587 3.77347 15.4964C3.77925 15.4057 3.7552 15.3157 3.705 15.24C3.65005 15.1778 3.57704 15.1344 3.49617 15.1157C3.41531 15.0971 3.33063 15.1042 3.254 15.136C3.23345 15.143 3.21341 15.1513 3.194 15.161V14.818C3.19493 14.8534 3.20988 14.887 3.23558 14.9114C3.26127 14.9358 3.29559 14.9489 3.331 14.948C3.36641 14.9471 3.39999 14.9321 3.42437 14.9064C3.44875 14.8807 3.46193 14.8464 3.461 14.811C3.45667 14.7393 3.42774 14.6713 3.3791 14.6185C3.33046 14.5657 3.26508 14.5312 3.194 14.521V14.269C3.194 14.2337 3.17999 14.1999 3.15505 14.175C3.1301 14.15 3.09627 14.136 3.061 14.136C3.02573 14.136 2.9919 14.15 2.96695 14.175C2.94201 14.1999 2.928 14.2337 2.928 14.269V14.522C2.85708 14.5322 2.79182 14.5665 2.7432 14.6191C2.69458 14.6717 2.66555 14.7395 2.661 14.811C2.66045 14.8471 2.67407 14.882 2.69893 14.9081C2.7238 14.9343 2.75792 14.9497 2.794 14.951C2.81141 14.9514 2.82872 14.9483 2.8449 14.9419C2.86109 14.9355 2.87582 14.9259 2.88823 14.9137C2.90063 14.9014 2.91046 14.8868 2.91712 14.8708C2.92378 14.8547 2.92714 14.8374 2.927 14.82L2.928 15.161C2.90863 15.1509 2.88858 15.1423 2.868 15.135C2.79127 15.1033 2.70653 15.0963 2.62566 15.1152C2.54479 15.134 2.47183 15.1776 2.417 15.24C2.3668 15.3157 2.34275 15.4057 2.34853 15.4964C2.35431 15.587 2.38959 15.6733 2.449 15.742C2.45819 15.757 2.47028 15.77 2.48456 15.7802C2.49884 15.7905 2.51503 15.7978 2.53216 15.8017C2.5493 15.8056 2.56705 15.8061 2.58437 15.803C2.60168 15.8 2.61822 15.7935 2.633 15.784C2.66273 15.7642 2.68355 15.7336 2.69102 15.6986C2.6985 15.6637 2.69203 15.6272 2.673 15.597C2.61 15.495 2.608 15.431 2.626 15.408C2.64775 15.3911 2.67374 15.3806 2.7011 15.3776C2.72846 15.3746 2.75611 15.3792 2.781 15.391C2.82776 15.4082 2.86752 15.4404 2.89411 15.4825C2.92069 15.5246 2.93261 15.5744 2.928 15.624C2.92839 15.6874 2.91394 15.7499 2.88581 15.8067C2.85768 15.8635 2.81665 15.9129 2.766 15.951C2.71426 15.99 2.65382 16.0158 2.5899 16.0262C2.52597 16.0367 2.46046 16.0315 2.399 16.011C2.31602 15.9788 2.2453 15.9213 2.19684 15.8466C2.14838 15.7719 2.12464 15.6839 2.129 15.595C2.12915 15.4546 2.15808 15.3158 2.214 15.187L3.061 13.247L3.908 15.186ZM2.928 12.099C2.97894 12.0587 3.02375 12.0112 3.061 11.958C3.09824 12.0112 3.14305 12.0587 3.194 12.099C3.14297 12.1396 3.09817 12.1874 3.061 12.241C3.02376 12.1878 2.97895 12.1403 2.928 12.1V12.099ZM3.908 9.012L3.061 10.952L2.214 9.012C2.15776 8.8833 2.12849 8.74445 2.128 8.604C2.12372 8.51498 2.1476 8.42687 2.19624 8.35219C2.24489 8.27751 2.31584 8.22006 2.399 8.188C2.46033 8.16779 2.52563 8.1627 2.58935 8.17314C2.65308 8.18359 2.71333 8.20927 2.765 8.248C2.81583 8.28598 2.85706 8.33534 2.88536 8.39213C2.91367 8.44892 2.92827 8.51155 2.928 8.575C2.93238 8.62445 2.92035 8.67396 2.89378 8.71589C2.86722 8.75782 2.82758 8.78984 2.781 8.807C2.75614 8.81887 2.72846 8.82357 2.70108 8.82057C2.6737 8.81756 2.64769 8.80698 2.626 8.79C2.608 8.767 2.61 8.704 2.674 8.602C2.69303 8.57177 2.6995 8.5353 2.69202 8.50037C2.68455 8.46543 2.66373 8.4348 2.634 8.415C2.61918 8.40532 2.60257 8.39872 2.58515 8.3956C2.56773 8.39247 2.54986 8.39288 2.5326 8.3968C2.51534 8.40071 2.49905 8.40806 2.48468 8.4184C2.47032 8.42875 2.45819 8.44187 2.449 8.457C2.38959 8.52571 2.35431 8.61197 2.34853 8.70262C2.34275 8.79326 2.3668 8.8833 2.417 8.959C2.47195 9.02119 2.54496 9.06465 2.62583 9.0833C2.70669 9.10195 2.79137 9.09485 2.868 9.063C2.88856 9.05607 2.9086 9.04772 2.928 9.038V9.38C2.92694 9.34459 2.91186 9.31106 2.88607 9.28677C2.86028 9.26249 2.82591 9.24944 2.7905 9.2505C2.75509 9.25156 2.72156 9.26664 2.69727 9.29243C2.67299 9.31822 2.65994 9.35259 2.661 9.388C2.66533 9.45968 2.69426 9.52768 2.7429 9.58051C2.79154 9.63334 2.85692 9.66777 2.928 9.678V9.93C2.928 9.96527 2.94201 9.9991 2.96695 10.024C2.9919 10.049 3.02573 10.063 3.061 10.063C3.09627 10.063 3.1301 10.049 3.15505 10.024C3.17999 9.9991 3.194 9.96527 3.194 9.93V9.677C3.26492 9.66681 3.33018 9.63252 3.3788 9.57989C3.42742 9.52727 3.45645 9.45951 3.461 9.388C3.46155 9.35191 3.44793 9.31703 3.42307 9.29086C3.3982 9.26469 3.36408 9.2493 3.328 9.248C3.31059 9.2476 3.29328 9.2507 3.2771 9.25711C3.26091 9.26353 3.24618 9.27313 3.23377 9.28535C3.22137 9.29757 3.21154 9.31215 3.20488 9.32824C3.19822 9.34433 3.19486 9.36159 3.195 9.379V9.038C3.21407 9.04768 3.23378 9.05603 3.254 9.063C3.33063 9.09485 3.41531 9.10195 3.49617 9.0833C3.57704 9.06465 3.65005 9.02119 3.705 8.959C3.75536 8.88336 3.77951 8.79329 3.77373 8.7026C3.76794 8.61191 3.73256 8.52563 3.673 8.457C3.66381 8.44201 3.65172 8.42901 3.63744 8.41876C3.62316 8.4085 3.60697 8.40121 3.58984 8.39729C3.5727 8.39338 3.55495 8.39293 3.53763 8.39597C3.52032 8.39901 3.50378 8.40548 3.489 8.415C3.45927 8.4348 3.43845 8.46543 3.43098 8.50037C3.4235 8.5353 3.42997 8.57177 3.449 8.602C3.512 8.704 3.514 8.767 3.496 8.79C3.47431 8.80698 3.4483 8.81756 3.42092 8.82057C3.39354 8.82357 3.36586 8.81887 3.341 8.807C3.29442 8.78984 3.25478 8.75782 3.22822 8.71589C3.20165 8.67396 3.18962 8.62445 3.194 8.575C3.19357 8.51138 3.2081 8.44855 3.23641 8.39157C3.26472 8.3346 3.30603 8.28508 3.357 8.247C3.40876 8.20844 3.46905 8.18294 3.53277 8.17267C3.59649 8.16239 3.66175 8.16765 3.723 8.188C3.80598 8.22022 3.8767 8.27774 3.92516 8.35241C3.97362 8.42707 3.99736 8.51509 3.993 8.604C3.99328 8.74432 3.96369 8.8832 3.908 9.012ZM2.928 8.032C2.97905 7.99143 3.02386 7.94359 3.061 7.89C3.09845 7.94366 3.1436 7.99151 3.195 8.032C3.14361 8.0725 3.09846 8.12035 3.061 8.174C3.02355 8.12034 2.9794 8.07249 2.928 8.032ZM3.908 7.052C3.96437 7.18101 3.99364 7.32022 3.994 7.461C3.99814 7.54974 3.97431 7.63754 3.92586 7.712C3.87742 7.78647 3.80681 7.84383 3.724 7.876C3.66262 7.8966 3.59716 7.902 3.53323 7.89172C3.46931 7.88144 3.40883 7.8558 3.357 7.817C3.30617 7.77902 3.26494 7.72966 3.23664 7.67287C3.20833 7.61608 3.19373 7.55345 3.194 7.49C3.18939 7.44039 3.20131 7.39065 3.22789 7.34851C3.25448 7.30637 3.29424 7.2742 3.341 7.257C3.36589 7.24524 3.39354 7.2406 3.4209 7.24361C3.44826 7.24661 3.47425 7.25713 3.496 7.274C3.514 7.297 3.512 7.36 3.448 7.463C3.42907 7.49335 3.42276 7.52991 3.43042 7.56485C3.43808 7.59979 3.4591 7.63035 3.489 7.65C3.50378 7.65952 3.52032 7.66599 3.53763 7.66903C3.55495 7.67207 3.5727 7.67162 3.58984 7.66771C3.60697 7.66379 3.62316 7.6565 3.63744 7.64624C3.65172 7.63599 3.66381 7.62299 3.673 7.608C3.73241 7.53929 3.76769 7.45303 3.77347 7.36238C3.77925 7.27174 3.7552 7.1817 3.705 7.106C3.65017 7.04364 3.57721 6.99999 3.49634 6.98116C3.41547 6.96233 3.33073 6.96927 3.254 7.001C3.23342 7.00825 3.21337 7.01694 3.194 7.027V6.684C3.19493 6.71941 3.20988 6.75299 3.23558 6.77737C3.26127 6.80175 3.29559 6.81493 3.331 6.814C3.36641 6.81307 3.39999 6.79812 3.42437 6.77242C3.44875 6.74673 3.46193 6.71241 3.461 6.677C3.45667 6.60532 3.42774 6.53732 3.3791 6.48449C3.33046 6.43166 3.26508 6.39723 3.194 6.387V6.134C3.194 6.09873 3.17999 6.0649 3.15505 6.03995C3.1301 6.01501 3.09627 6.001 3.061 6.001C3.02573 6.001 2.9919 6.01501 2.96695 6.03995C2.94201 6.0649 2.928 6.09873 2.928 6.134V6.387C2.85692 6.39723 2.79154 6.43166 2.7429 6.48449C2.69426 6.53732 2.66533 6.60532 2.661 6.677C2.66045 6.71309 2.67407 6.74797 2.69893 6.77414C2.7238 6.80031 2.75792 6.8157 2.794 6.817C2.81141 6.8174 2.82872 6.8143 2.8449 6.80789C2.86109 6.80147 2.87582 6.79187 2.88823 6.77965C2.90063 6.76743 2.91046 6.75285 2.91712 6.73676C2.92378 6.72067 2.92714 6.70341 2.927 6.686L2.928 6.685V7.027C2.90863 7.01694 2.88858 7.00825 2.868 7.001C2.79127 6.96927 2.70653 6.96233 2.62566 6.98116C2.54479 6.99999 2.47183 7.04364 2.417 7.106C2.3668 7.1817 2.34275 7.27174 2.34853 7.36238C2.35431 7.45303 2.38959 7.53929 2.449 7.608C2.45819 7.62299 2.47028 7.63599 2.48456 7.64624C2.49884 7.6565 2.51503 7.66379 2.53216 7.66771C2.5493 7.67162 2.56705 7.67207 2.58437 7.66903C2.60168 7.66599 2.61822 7.65952 2.633 7.65C2.66301 7.63018 2.68402 7.59936 2.6915 7.56419C2.69898 7.52902 2.69234 7.49232 2.673 7.462C2.61 7.36 2.608 7.297 2.626 7.274C2.64775 7.25713 2.67374 7.24661 2.7011 7.24361C2.72846 7.2406 2.75611 7.24524 2.781 7.257C2.82776 7.2742 2.86752 7.30637 2.89411 7.34851C2.92069 7.39065 2.93261 7.44039 2.928 7.49C2.92839 7.55337 2.91394 7.61595 2.88581 7.67273C2.85768 7.72951 2.81665 7.77892 2.766 7.817C2.71426 7.85597 2.65382 7.88179 2.5899 7.89224C2.52597 7.90269 2.46046 7.89746 2.399 7.877C2.31602 7.84478 2.2453 7.78726 2.19684 7.71259C2.14838 7.63793 2.12464 7.54991 2.129 7.461C2.12915 7.32062 2.15808 7.18176 2.214 7.053L3.061 5.113L3.908 7.052ZM19.036 13.762C18.3883 13.7731 17.752 13.5912 17.2081 13.2394C16.6641 12.8877 16.2372 12.382 15.9817 11.7868C15.7261 11.1915 15.6535 10.5337 15.7731 9.89707C15.8927 9.26044 16.199 8.67381 16.6532 8.21189C17.1073 7.74997 17.6886 7.43367 18.3232 7.30328C18.9577 7.17288 19.6166 7.23429 20.2161 7.47968C20.8156 7.72507 21.3285 8.14334 21.6894 8.68122C22.0504 9.21909 22.2431 9.85223 22.243 10.5C22.2467 10.9248 22.1667 11.3462 22.0075 11.7401C21.8483 12.134 21.6131 12.4927 21.3153 12.7957C21.0175 13.0987 20.663 13.3401 20.2719 13.5061C19.8808 13.672 19.4608 13.7583 19.036 13.762ZM18.796 6.34C18.8555 6.08878 18.9358 5.84293 19.036 5.605C19.1365 5.8429 19.2172 6.08875 19.277 6.34C19.277 6.40365 19.2517 6.4647 19.2067 6.50971C19.1617 6.55471 19.1007 6.58 19.037 6.58C18.9733 6.58 18.9123 6.55471 18.8673 6.50971C18.8223 6.4647 18.797 6.40365 18.797 6.34H18.796ZM19.036 14.416C19.0679 14.4163 19.0995 14.4228 19.1288 14.4353C19.1582 14.4477 19.1849 14.4658 19.2072 14.4886C19.2296 14.5113 19.2473 14.5383 19.2593 14.5679C19.2712 14.5974 19.2773 14.6291 19.277 14.661C19.2174 14.9119 19.1372 15.1574 19.037 15.395C18.9368 15.1574 18.8566 14.9119 18.797 14.661C18.7965 14.5967 18.8214 14.5349 18.8664 14.4889C18.9114 14.443 18.9727 14.4168 19.037 14.416H19.036ZM23.847 10.5C23.6141 10.602 23.3729 10.684 23.126 10.745C23.061 10.745 22.9987 10.7192 22.9528 10.6732C22.9068 10.6273 22.881 10.565 22.881 10.5C22.881 10.435 22.9068 10.3727 22.9528 10.3268C22.9987 10.2808 23.061 10.255 23.126 10.255C23.3729 10.316 23.6141 10.398 23.847 10.5ZM14.948 10.745C14.7011 10.684 14.4599 10.602 14.227 10.5C14.4599 10.398 14.7011 10.316 14.948 10.255C15.013 10.255 15.0753 10.2808 15.1212 10.3268C15.1672 10.3727 15.193 10.435 15.193 10.5C15.193 10.565 15.1672 10.6273 15.1212 10.6732C15.0753 10.7192 15.013 10.745 14.948 10.745ZM21.758 7.385C21.9744 7.25058 22.2019 7.13483 22.438 7.039C22.3441 7.27871 22.2304 7.51018 22.098 7.731C22.0758 7.75362 22.0494 7.77158 22.0202 7.78385C21.991 7.79612 21.9597 7.80243 21.928 7.80243C21.8963 7.80243 21.865 7.79612 21.8358 7.78385C21.8066 7.77158 21.7802 7.75362 21.758 7.731C21.7129 7.6847 21.6877 7.62262 21.6877 7.558C21.6877 7.49338 21.7129 7.4313 21.758 7.385ZM16.316 13.615C16.0996 13.7494 15.8721 13.8652 15.636 13.961C15.7299 13.7213 15.8437 13.4898 15.976 13.269C15.9982 13.2464 16.0246 13.2284 16.0538 13.2161C16.083 13.2039 16.1143 13.1976 16.146 13.1976C16.1777 13.1976 16.209 13.2039 16.2382 13.2161C16.2674 13.2284 16.2938 13.2464 16.316 13.269C16.3611 13.3153 16.3863 13.3774 16.3863 13.442C16.3863 13.5066 16.3611 13.5687 16.316 13.615ZM21.758 13.615C21.7129 13.5687 21.6877 13.5066 21.6877 13.442C21.6877 13.3774 21.7129 13.3153 21.758 13.269C21.7802 13.2464 21.8066 13.2284 21.8358 13.2161C21.865 13.2039 21.8963 13.1976 21.928 13.1976C21.9597 13.1976 21.991 13.2039 22.0202 13.2161C22.0494 13.2284 22.0758 13.2464 22.098 13.269C22.2304 13.4898 22.3441 13.7213 22.438 13.961C22.202 13.8651 21.9745 13.7494 21.758 13.615ZM15.976 7.731C15.8436 7.51018 15.7299 7.27871 15.636 7.039C15.872 7.13488 16.0995 7.25063 16.316 7.385C16.3611 7.4313 16.3863 7.49338 16.3863 7.558C16.3863 7.62262 16.3611 7.6847 16.316 7.731C16.2938 7.75362 16.2674 7.77158 16.2382 7.78385C16.209 7.79612 16.1777 7.80243 16.146 7.80243C16.1143 7.80243 16.083 7.79612 16.0538 7.78385C16.0246 7.77158 15.9982 7.75362 15.976 7.731ZM17.25 6.75C17.2107 6.4946 17.1927 6.23638 17.196 5.978C17.378 6.1584 17.5446 6.35375 17.694 6.562C17.7187 6.62172 17.7189 6.68877 17.6946 6.74865C17.6703 6.80853 17.6234 6.85643 17.564 6.882C17.5347 6.8942 17.5034 6.90047 17.4717 6.90042C17.44 6.90038 17.4086 6.89403 17.3794 6.88175C17.3501 6.86946 17.3237 6.85149 17.3014 6.82887C17.2792 6.80625 17.2617 6.77944 17.25 6.75ZM20.824 14.25C20.8633 14.5054 20.8813 14.7636 20.878 15.022C20.6956 14.8417 20.5287 14.6463 20.379 14.438C20.3543 14.3783 20.3541 14.3112 20.3784 14.2513C20.4027 14.1915 20.4496 14.1436 20.509 14.118C20.5383 14.1056 20.5698 14.0993 20.6016 14.0992C20.6334 14.0992 20.6649 14.1055 20.6942 14.1178C20.7236 14.1301 20.7502 14.1481 20.7725 14.1708C20.7947 14.1935 20.8123 14.2204 20.824 14.25ZM22.722 8.682C22.973 8.64203 23.2269 8.62363 23.481 8.627C23.3039 8.81186 23.1116 8.98146 22.906 9.134C22.8767 9.1462 22.8454 9.15247 22.8137 9.15242C22.782 9.15238 22.7506 9.14603 22.7214 9.13375C22.6921 9.12146 22.6657 9.10349 22.6434 9.08087C22.6212 9.05825 22.6037 9.03144 22.592 9.002C22.5673 8.94228 22.5671 8.87523 22.5914 8.81535C22.6157 8.75547 22.6626 8.70757 22.722 8.682ZM15.352 12.318C15.1007 12.358 14.8464 12.3764 14.592 12.373C14.7691 12.1881 14.9614 12.0185 15.167 11.866C15.1964 11.8537 15.2279 11.8473 15.2598 11.8474C15.2916 11.8474 15.3232 11.8538 15.3525 11.8662C15.3818 11.8786 15.4084 11.8967 15.4307 11.9195C15.4529 11.9423 15.4704 11.9693 15.482 11.999C15.5067 12.0587 15.5069 12.1258 15.4826 12.1857C15.4583 12.2455 15.4114 12.2934 15.352 12.319V12.318ZM20.379 6.563C20.5287 6.35438 20.6956 6.15869 20.878 5.978C20.8813 6.23638 20.8633 6.4946 20.824 6.75C20.8121 6.77936 20.7946 6.80608 20.7724 6.82862C20.7501 6.85117 20.7237 6.86909 20.6945 6.88136C20.6653 6.89363 20.634 6.9 20.6023 6.90011C20.5706 6.90022 20.5393 6.89407 20.51 6.882C20.4506 6.85643 20.4037 6.80853 20.3794 6.74865C20.3551 6.68877 20.3553 6.62172 20.38 6.562L20.379 6.563ZM17.564 14.118C17.6234 14.1436 17.6703 14.1915 17.6946 14.2513C17.7189 14.3112 17.7187 14.3783 17.694 14.438C17.5446 14.6463 17.378 14.8416 17.196 15.022C17.1927 14.7636 17.2107 14.5054 17.25 14.25C17.2619 14.2206 17.2794 14.1939 17.3016 14.1714C17.3239 14.1488 17.3503 14.1309 17.3795 14.1186C17.4087 14.1064 17.44 14.1 17.4717 14.0999C17.5034 14.0998 17.5347 14.1059 17.564 14.118ZM23.481 12.373C23.2269 12.3764 22.973 12.358 22.722 12.318C22.6626 12.2924 22.6157 12.2445 22.5914 12.1847C22.5671 12.1248 22.5673 12.0577 22.592 11.998C22.6039 11.9686 22.6214 11.9419 22.6436 11.9194C22.6659 11.8968 22.6923 11.8789 22.7215 11.8666C22.7507 11.8544 22.782 11.848 22.8137 11.8479C22.8454 11.8478 22.8767 11.8539 22.906 11.866C23.1116 12.0185 23.3039 12.1881 23.481 12.373ZM15.167 9.134C14.9618 8.98141 14.7698 8.81181 14.593 8.627C14.8468 8.62364 15.1004 8.64204 15.351 8.682C15.4104 8.70757 15.4573 8.75547 15.4816 8.81535C15.5059 8.87523 15.5057 8.94228 15.481 9.002C15.4691 9.03136 15.4516 9.05808 15.4294 9.08062C15.4071 9.10317 15.3807 9.12109 15.3515 9.13336C15.3223 9.14563 15.291 9.152 15.2593 9.15211C15.2276 9.15222 15.1963 9.14607 15.167 9.134ZM18.003 6.467C18.0134 6.20882 18.0452 5.95194 18.098 5.699C18.2422 5.91246 18.3683 6.13757 18.475 6.372C18.4877 6.4351 18.475 6.50066 18.4396 6.55442C18.4042 6.60817 18.349 6.64576 18.286 6.659C18.2548 6.66523 18.2227 6.66518 18.1915 6.65887C18.1603 6.65256 18.1306 6.64011 18.1043 6.62224C18.078 6.60438 18.0555 6.58145 18.0381 6.5548C18.0207 6.52815 18.0088 6.4983 18.003 6.467ZM20.07 14.533C20.0596 14.7912 20.0278 15.0481 19.975 15.301C19.8312 15.0875 19.7054 14.8624 19.599 14.628C19.5863 14.5649 19.599 14.4993 19.6344 14.4456C19.6698 14.3918 19.725 14.3542 19.788 14.341C19.8191 14.3349 19.8512 14.3351 19.8822 14.3415C19.9133 14.3478 19.9428 14.3603 19.9691 14.3782C19.9953 14.396 20.0177 14.4189 20.035 14.4455C20.0524 14.4721 20.0642 14.5018 20.07 14.533ZM23.755 9.545C23.5459 9.69115 23.3248 9.81928 23.094 9.928C23.0628 9.93423 23.0307 9.93418 22.9995 9.92787C22.9683 9.92156 22.9386 9.90911 22.9123 9.89124C22.886 9.87338 22.8635 9.85045 22.8461 9.8238C22.8287 9.79715 22.8168 9.7673 22.811 9.736C22.798 9.67261 22.8107 9.60666 22.8464 9.55266C22.882 9.49865 22.9376 9.461 23.001 9.448C23.2546 9.45877 23.5069 9.49122 23.755 9.545ZM15.074 11.552C14.82 11.5413 14.5674 11.5088 14.319 11.455C14.5278 11.3089 14.7486 11.1808 14.979 11.072C15.0103 11.0656 15.0425 11.0656 15.0738 11.0718C15.1051 11.078 15.1349 11.0905 15.1613 11.1083C15.1878 11.1262 15.2104 11.1492 15.2279 11.1759C15.2453 11.2027 15.2573 11.2326 15.263 11.264C15.276 11.3274 15.2633 11.3933 15.2276 11.4473C15.192 11.5014 15.1364 11.539 15.073 11.552H15.074ZM21.109 6.905C21.2953 6.73004 21.496 6.57114 21.709 6.43C21.6631 6.68409 21.5962 6.93395 21.509 7.177C21.4917 7.20363 21.4693 7.22654 21.4431 7.24438C21.4168 7.26222 21.3872 7.27462 21.3561 7.28087C21.325 7.28711 21.2929 7.28706 21.2618 7.28073C21.2307 7.2744 21.2012 7.26191 21.175 7.244C21.1216 7.20731 21.0848 7.1511 21.0724 7.08751C21.0601 7.02391 21.0732 6.958 21.109 6.904V6.905ZM16.364 14.57C16.4103 14.3159 16.4775 14.066 16.565 13.823C16.5823 13.7964 16.6047 13.7735 16.6309 13.7556C16.6572 13.7378 16.6868 13.7254 16.7179 13.7191C16.749 13.7129 16.7811 13.7129 16.8122 13.7193C16.8433 13.7256 16.8728 13.7381 16.899 13.756C16.9524 13.7927 16.9892 13.8489 17.0016 13.9125C17.0139 13.9761 17.0008 14.042 16.965 14.096C16.7787 14.2706 16.577 14.4292 16.364 14.57ZM23.037 13.22C22.7869 13.1727 22.5414 13.1041 22.303 13.015C22.2496 12.9783 22.2128 12.9221 22.2004 12.8585C22.1881 12.7949 22.2012 12.729 22.237 12.675C22.2543 12.6485 22.2766 12.6257 22.3028 12.608C22.329 12.5902 22.3584 12.5779 22.3894 12.5716C22.4204 12.5654 22.4524 12.5654 22.4834 12.5716C22.5144 12.5779 22.5438 12.5902 22.57 12.608C22.7425 12.7983 22.8987 13.0026 23.037 13.219V13.22ZM15.037 7.78C15.2871 7.8273 15.5326 7.89589 15.771 7.985C15.8244 8.02169 15.8612 8.0779 15.8736 8.14149C15.8859 8.20509 15.8728 8.271 15.837 8.325C15.8197 8.35163 15.7973 8.37454 15.7711 8.39238C15.7448 8.41022 15.7152 8.42262 15.6841 8.42887C15.653 8.43511 15.6209 8.43506 15.5898 8.42873C15.5587 8.4224 15.5292 8.40991 15.503 8.392C15.3309 8.20169 15.175 7.99631 15.037 7.78ZM16.565 7.177C16.4778 6.93395 16.4109 6.68409 16.365 6.43C16.578 6.57116 16.7787 6.73006 16.965 6.905C17.0008 6.959 17.0139 7.02491 17.0016 7.08851C16.9892 7.1521 16.9524 7.20831 16.899 7.245C16.8727 7.26287 16.8432 7.27529 16.812 7.28155C16.7809 7.2878 16.7488 7.28776 16.7177 7.28143C16.6865 7.27509 16.657 7.26258 16.6308 7.24465C16.6046 7.22671 16.5822 7.20371 16.565 7.177ZM21.108 14.095C21.0726 14.0408 21.0597 13.9749 21.0723 13.9114C21.0848 13.8478 21.1217 13.7917 21.175 13.755C21.2012 13.7373 21.2307 13.725 21.2618 13.7188C21.2928 13.7127 21.3248 13.7127 21.3558 13.7191C21.3868 13.7254 21.4162 13.7379 21.4424 13.7557C21.4685 13.7735 21.4908 13.7964 21.508 13.823C21.5955 14.066 21.6627 14.3159 21.709 14.57C21.496 14.4288 21.2943 14.2699 21.108 14.095ZM22.303 7.985C22.5411 7.89629 22.7863 7.82804 23.036 7.781C22.898 7.99733 22.7421 8.20171 22.57 8.392C22.5438 8.40975 22.5144 8.42211 22.4834 8.42836C22.4524 8.4346 22.4204 8.43461 22.3894 8.42837C22.3584 8.42213 22.329 8.40978 22.3028 8.39203C22.2766 8.37428 22.2543 8.35149 22.237 8.325C22.2012 8.271 22.1881 8.20509 22.2004 8.14149C22.2128 8.0779 22.2496 8.02169 22.303 7.985ZM15.771 13.015C15.5326 13.1038 15.287 13.172 15.037 13.219C15.1753 13.0026 15.3315 12.7983 15.504 12.608C15.5302 12.5902 15.5596 12.5779 15.5906 12.5716C15.6216 12.5654 15.6536 12.5654 15.6846 12.5716C15.7156 12.5779 15.745 12.5902 15.7712 12.608C15.7974 12.6257 15.8197 12.6485 15.837 12.675C15.8728 12.729 15.8859 12.7949 15.8736 12.8585C15.8612 12.9221 15.8244 12.9783 15.771 13.015ZM19.599 6.372C19.7054 6.13761 19.8312 5.91249 19.975 5.699C20.0278 5.95194 20.0596 6.20882 20.07 6.467C20.0642 6.4982 20.0524 6.52795 20.035 6.55452C20.0177 6.5811 19.9953 6.60398 19.9691 6.62183C19.9428 6.63969 19.9133 6.65216 19.8822 6.65854C19.8512 6.66492 19.8191 6.66508 19.788 6.659C19.725 6.64575 19.6697 6.6082 19.6341 6.55448C19.5986 6.50077 19.5856 6.43521 19.598 6.372H19.599ZM18.286 14.341C18.349 14.3543 18.4043 14.3918 18.4399 14.4455C18.4754 14.4992 18.4884 14.5648 18.476 14.628C18.3689 14.8625 18.2425 15.0876 18.098 15.301C18.0452 15.0481 18.0134 14.7912 18.003 14.533C18.0088 14.5017 18.0207 14.4719 18.0381 14.4452C18.0555 14.4186 18.078 14.3956 18.1043 14.3778C18.1306 14.3599 18.1603 14.3474 18.1915 14.3411C18.2227 14.3348 18.2548 14.3348 18.286 14.341ZM23.755 11.455C23.5066 11.5088 23.254 11.5413 23 11.552C22.9369 11.5385 22.8817 11.5007 22.8463 11.4468C22.811 11.3929 22.7983 11.3272 22.811 11.264C22.8168 11.2327 22.8287 11.2029 22.8461 11.1762C22.8635 11.1496 22.886 11.1266 22.9123 11.1088C22.9386 11.0909 22.9683 11.0784 22.9995 11.0721C23.0307 11.0658 23.0628 11.0658 23.094 11.072C23.3244 11.1808 23.5462 11.3089 23.755 11.455ZM14.98 9.928C14.7492 9.81925 14.5281 9.69112 14.319 9.545C14.5674 9.4912 14.82 9.45874 15.074 9.448C15.1371 9.46147 15.1923 9.49926 15.2277 9.55318C15.263 9.60709 15.2757 9.67278 15.263 9.736C15.2572 9.7673 15.2453 9.79715 15.2279 9.8238C15.2105 9.85045 15.188 9.87338 15.1617 9.89124C15.1354 9.90911 15.1057 9.92156 15.0745 9.92787C15.0433 9.93418 15.0112 9.93423 14.98 9.928ZM26.58 11.358C26.5576 11.3487 26.5336 11.344 26.5094 11.344C26.4852 11.3441 26.4612 11.349 26.4389 11.3584C26.4166 11.3678 26.3963 11.3815 26.3794 11.3988C26.3624 11.416 26.349 11.4365 26.34 11.459L26.329 11.485C26.1214 11.9247 25.8818 12.3485 25.612 12.753C25.882 11.867 26.13 10.921 26.147 10.854C26.1596 10.8065 26.153 10.756 26.1287 10.7134C26.1044 10.6707 26.0643 10.6393 26.017 10.626C25.9699 10.6135 25.9198 10.6201 25.8776 10.6445C25.8355 10.6689 25.8047 10.709 25.792 10.756C25.6241 11.2969 25.4159 11.8243 25.169 12.334C25.213 11.763 25.221 11.234 25.222 11.194C25.2228 11.1458 25.205 11.0992 25.1721 11.064C25.1393 11.0287 25.0941 11.0076 25.046 11.005C24.9984 11.0057 24.9527 11.0238 24.9175 11.0558C24.8824 11.0879 24.8601 11.1317 24.855 11.179C24.619 14.475 21.502 15.949 21.199 16.085C20.665 16.1407 20.1386 16.2541 19.629 16.423C19.553 16.45 19.489 16.477 19.424 16.503C19.3995 16.4935 19.3732 16.4894 19.347 16.491C18.3735 16.5832 17.3941 16.3913 16.5273 15.9386C15.6605 15.4859 14.9435 14.7917 14.463 13.94C13.9105 13.0582 13.5134 12.0881 13.289 11.072C13.2848 11.048 13.2759 11.0251 13.2628 11.0046C13.2497 10.984 13.2326 10.9663 13.2127 10.9523C13.1927 10.9384 13.1701 10.9286 13.1464 10.9233C13.1226 10.9181 13.098 10.9177 13.074 10.922C13.0499 10.9268 13.027 10.9363 13.0065 10.9499C12.9861 10.9636 12.9686 10.9811 12.9549 11.0015C12.9413 11.022 12.9318 11.0449 12.927 11.069C12.9222 11.0931 12.9222 11.1179 12.927 11.142C13.0371 11.6608 13.1941 12.1686 13.396 12.659C13.0067 12.0158 12.7107 11.3205 12.517 10.594C12.514 10.5854 12.5103 10.5771 12.506 10.569C12.5017 10.5561 12.496 10.5437 12.489 10.532C12.4828 10.5248 12.4762 10.5182 12.469 10.512C12.4599 10.5008 12.4495 10.4907 12.438 10.482C12.4171 10.4716 12.3953 10.4629 12.373 10.456C12.3624 10.4547 12.3517 10.4544 12.341 10.455C12.3301 10.4536 12.319 10.4532 12.308 10.454L12.301 10.456H12.294C12.285 10.4596 12.2763 10.4639 12.268 10.469C12.2565 10.4732 12.2455 10.4786 12.235 10.485C12.2255 10.4924 12.2168 10.5008 12.209 10.51C12.2005 10.5179 12.1928 10.5266 12.186 10.536C12.18 10.5465 12.175 10.5576 12.171 10.569C12.1659 10.5796 12.1619 10.5906 12.159 10.602C12.1578 10.6143 12.1578 10.6267 12.159 10.639C12.1574 10.6489 12.1568 10.659 12.157 10.669L12.16 10.682V10.686C12.2886 11.3525 12.5003 12.0002 12.79 12.614C12.4503 12.2339 12.1704 11.8043 11.96 11.34C11.956 11.3316 11.9513 11.3236 11.946 11.316C11.94 11.3035 11.9326 11.2918 11.924 11.281C11.9172 11.2744 11.9098 11.2684 11.902 11.263C11.8917 11.2534 11.8803 11.245 11.868 11.238C11.8595 11.2347 11.8508 11.232 11.842 11.23C11.8288 11.2251 11.815 11.2217 11.801 11.22C11.7896 11.2202 11.7782 11.2215 11.767 11.224C11.7562 11.2243 11.7455 11.2257 11.735 11.228L11.73 11.231H11.724C11.7148 11.2359 11.7061 11.2416 11.698 11.248C11.687 11.2536 11.6766 11.2603 11.667 11.268C11.6583 11.2768 11.6506 11.2866 11.644 11.297C11.6365 11.3057 11.6298 11.3151 11.624 11.325C11.6195 11.3363 11.6162 11.348 11.614 11.36C11.6106 11.3711 11.6082 11.3825 11.607 11.394C11.6072 11.4061 11.6085 11.4182 11.611 11.43C11.611 11.4407 11.612 11.4514 11.614 11.462C11.874 12.1703 12.23 12.8395 12.672 13.451C12.4488 13.2738 12.2437 13.0749 12.06 12.857L12.038 12.831C12.0229 12.8122 12.0042 12.7966 11.983 12.7851C11.9617 12.7736 11.9385 12.7664 11.9144 12.764C11.8904 12.7616 11.8662 12.764 11.8431 12.771C11.82 12.778 11.7986 12.7896 11.78 12.805C11.7425 12.8367 11.7188 12.8817 11.7137 12.9306C11.7087 12.9794 11.7228 13.0283 11.753 13.067L11.793 13.117C12.0594 13.4354 12.3431 13.7389 12.643 14.026L12.27 13.864C12.2284 13.8459 12.1816 13.844 12.1387 13.8586C12.0958 13.8732 12.0599 13.9033 12.038 13.943C12.0158 13.9828 12.0087 14.0292 12.0179 14.0738C12.027 14.1184 12.0519 14.1582 12.088 14.186C12.4896 14.4911 12.9127 14.7668 13.354 15.011C13.2916 15.0131 13.2291 15.0111 13.167 15.005C13.123 15.0022 13.0794 15.0152 13.0441 15.0416C13.0087 15.0679 12.9839 15.106 12.974 15.149C12.9639 15.1922 12.9694 15.2376 12.9895 15.2771C13.0097 15.3166 13.0431 15.3478 13.084 15.365C13.097 15.371 13.271 15.444 13.486 15.521C13.4605 15.5318 13.4378 15.5482 13.4194 15.569C13.4011 15.5898 13.3876 15.6144 13.38 15.641C13.3679 15.6812 13.3695 15.7243 13.3848 15.7635C13.4 15.8026 13.4279 15.8356 13.464 15.857C13.6577 15.9682 13.8581 16.0674 14.064 16.154C14.0555 16.1678 14.0488 16.1826 14.044 16.198C14.0318 16.2362 14.032 16.2773 14.0446 16.3154C14.0572 16.3534 14.0815 16.3866 14.114 16.41C14.9352 16.9585 15.8914 17.2705 16.878 17.312C16.974 17.312 17.071 17.308 17.168 17.3C17.217 17.2957 17.2624 17.2721 17.294 17.2344C17.3257 17.1967 17.3412 17.148 17.337 17.099C17.3356 17.0745 17.3293 17.0505 17.3185 17.0285C17.3077 17.0065 17.2925 16.9869 17.274 16.9708C17.2554 16.9548 17.2338 16.9426 17.2104 16.9351C17.1871 16.9276 17.1624 16.9248 17.138 16.927C16.3289 16.9579 15.5263 16.7711 14.814 16.386C14.8548 16.3765 14.8949 16.3641 14.934 16.349C14.9734 16.3322 15.006 16.3024 15.0262 16.2646C15.0463 16.2267 15.053 16.1831 15.045 16.141C15.0376 16.099 15.016 16.0608 14.9838 16.033C14.9515 16.0051 14.9106 15.9892 14.868 15.988C14.6025 15.9591 14.3443 15.8836 14.105 15.765C14.1607 15.7373 14.2133 15.7038 14.262 15.665C14.2893 15.6417 14.3095 15.611 14.3201 15.5767C14.3307 15.5423 14.3314 15.5057 14.322 15.471C14.3129 15.4367 14.2941 15.4057 14.2679 15.3817C14.2416 15.3578 14.209 15.3419 14.174 15.336C14.08 15.3185 13.9871 15.2951 13.896 15.266C13.9626 15.2308 14.0175 15.1769 14.054 15.111C14.0666 15.0855 14.0733 15.0576 14.0736 15.0292C14.074 15.0008 14.0679 14.9727 14.056 14.947C14.044 14.9213 14.0262 14.8987 14.004 14.881C13.9818 14.8633 13.9558 14.851 13.928 14.845C13.8731 14.8319 13.8192 14.8145 13.767 14.793C13.7783 14.7817 13.7881 14.7689 13.796 14.755C13.8186 14.7157 13.8264 14.6696 13.8179 14.625C13.8095 14.5804 13.7854 14.5403 13.75 14.512C13.6271 14.4126 13.5064 14.3106 13.388 14.206C13.4231 14.1924 13.4531 14.1683 13.474 14.137C13.4965 14.1038 13.5079 14.0644 13.5067 14.0244C13.5054 13.9843 13.4915 13.9457 13.467 13.914C13.349 13.7612 13.2343 13.6058 13.123 13.448C13.188 13.499 13.253 13.552 13.318 13.594C13.3528 13.6166 13.3943 13.6267 13.4356 13.6225C13.4768 13.6183 13.5155 13.6001 13.545 13.571C13.5591 13.557 13.571 13.5408 13.58 13.523C13.6876 13.6414 13.8054 13.7501 13.932 13.848C13.9485 13.8573 13.9664 13.8637 13.985 13.867C14.0377 13.9557 14.0923 14.0447 14.149 14.134C14.6155 14.9434 15.2811 15.6201 16.0827 16.0998C16.8843 16.5795 17.7953 16.8464 18.729 16.875C18.5196 17.0083 18.298 17.1212 18.067 17.212C18.002 17.238 17.944 17.264 17.887 17.29C17.859 17.2945 17.8326 17.3059 17.81 17.323C17.471 17.4477 17.1815 17.6789 16.985 17.982C16.9492 18.0541 16.9392 18.1362 16.9564 18.2147C16.9737 18.2933 17.0173 18.3636 17.08 18.414C17.108 18.4367 17.1419 18.4509 17.1778 18.4548C17.2136 18.4587 17.2498 18.4522 17.282 18.436C17.3144 18.4196 17.3416 18.3944 17.3604 18.3633C17.3791 18.3321 17.3887 18.2963 17.388 18.26C17.395 18.251 17.428 18.224 17.528 18.22C17.6637 18.2213 17.7992 18.23 17.934 18.246C18.104 18.26 18.309 18.276 18.527 18.288L18.232 18.637C18.2087 18.6648 18.1939 18.6987 18.1893 18.7347C18.1847 18.7707 18.1905 18.8072 18.206 18.84C18.2212 18.8725 18.2456 18.8999 18.2761 18.9187C18.3067 18.9376 18.3421 18.947 18.378 18.946L18.687 18.936C18.7287 18.9932 18.7887 19.0345 18.857 19.053C18.9174 19.0642 18.9794 19.0629 19.0393 19.0492C19.0992 19.0354 19.1556 19.0095 19.205 18.973C19.2638 19.0169 19.3325 19.0457 19.405 19.057C19.5201 19.0701 19.6366 19.0482 19.739 18.994C19.811 19.0418 19.8956 19.0672 19.982 19.067H19.985C20.1164 19.0606 20.2421 19.0115 20.343 18.927C20.4068 18.966 20.4793 18.9884 20.554 18.992C20.666 18.994 20.7759 18.9608 20.868 18.897C20.982 18.9154 21.0987 18.9061 21.2084 18.8699C21.318 18.8337 21.4174 18.7716 21.498 18.689C21.5527 18.7223 21.616 18.7387 21.68 18.736C21.7376 18.731 21.7935 18.7143 21.8444 18.687C21.8953 18.6597 21.9401 18.6222 21.976 18.577C22.0858 18.6051 22.201 18.6046 22.3106 18.5755C22.4202 18.5464 22.5205 18.4898 22.602 18.411C22.6607 18.3394 22.696 18.2514 22.703 18.159C23.518 18.154 23.593 17.701 23.598 17.645C23.6006 17.62 23.5983 17.5948 23.5911 17.5708C23.5839 17.5467 23.5719 17.5244 23.556 17.505C23.5401 17.4854 23.5204 17.4694 23.498 17.4579C23.4756 17.4463 23.4511 17.4396 23.426 17.438L21.289 17.308C21.2455 17.3053 21.2024 17.3182 21.1676 17.3444C21.1328 17.3706 21.1084 17.4084 21.099 17.451C21.0703 17.5454 21.0188 17.6313 20.949 17.701C20.7575 17.8557 20.5242 17.9497 20.279 17.971C20.2802 17.9451 20.2761 17.9193 20.267 17.895C20.2497 17.8494 20.2151 17.8125 20.1706 17.7925C20.1262 17.7724 20.0756 17.7708 20.03 17.788C19.471 17.9359 18.8886 17.9743 18.315 17.901C18.4001 17.8307 18.4911 17.7678 18.587 17.713C18.6214 17.6936 18.6488 17.6638 18.6653 17.6279C18.6819 17.592 18.6866 17.5518 18.679 17.513C18.6726 17.486 18.6601 17.4609 18.6424 17.4396C18.6247 17.4182 18.6023 17.4013 18.577 17.39C18.733 17.31 18.86 17.233 18.981 17.158C19.2208 16.9992 19.4795 16.8709 19.751 16.776C20.2414 16.6152 20.7476 16.5072 21.261 16.454C21.2796 16.4525 21.2978 16.4481 21.315 16.441C22.7636 15.7687 23.9499 14.6372 24.69 13.222C24.676 13.29 24.66 13.352 24.644 13.406C24.6306 13.4501 24.6339 13.4976 24.6533 13.5395C24.6726 13.5813 24.7067 13.6146 24.749 13.633C24.7815 13.6468 24.8174 13.6509 24.8522 13.6447C24.887 13.6385 24.9193 13.6222 24.945 13.598C24.8959 13.7392 24.8357 13.8763 24.765 14.008C24.741 14.0495 24.7335 14.0985 24.7441 14.1452C24.7546 14.1919 24.7825 14.2329 24.822 14.26C24.8403 14.2724 24.8606 14.2815 24.882 14.287C24.8 14.41 24.715 14.527 24.632 14.634C24.6051 14.6685 24.5909 14.7112 24.5918 14.7549C24.5927 14.7986 24.6087 14.8407 24.637 14.874C24.5213 15.0009 24.3984 15.1211 24.269 15.234C24.2385 15.2596 24.2167 15.2941 24.2068 15.3326C24.197 15.3712 24.1995 15.4119 24.214 15.449C24.1433 15.4932 24.0682 15.5301 23.99 15.559C23.9571 15.5696 23.9278 15.5891 23.9053 15.6153C23.8828 15.6415 23.8679 15.6734 23.8623 15.7075C23.8567 15.7416 23.8607 15.7766 23.8737 15.8086C23.8867 15.8406 23.9082 15.8684 23.936 15.889C23.824 15.92 23.701 15.949 23.567 15.977C23.5302 15.9848 23.4966 16.0037 23.4707 16.031C23.4448 16.0583 23.4279 16.0928 23.422 16.13C23.4159 16.1675 23.4212 16.206 23.4372 16.2404C23.4533 16.2748 23.4793 16.3036 23.512 16.323C23.5655 16.3529 23.6206 16.38 23.677 16.404C23.0233 16.6462 22.3384 16.7944 21.643 16.844C21.6184 16.8464 21.5946 16.8537 21.5728 16.8653C21.5511 16.877 21.5318 16.8928 21.5162 16.9119C21.5005 16.9309 21.4888 16.9529 21.4817 16.9765C21.4745 17.0001 21.4721 17.0249 21.4745 17.0495C21.4769 17.0741 21.4842 17.0979 21.4958 17.1197C21.5075 17.1414 21.5233 17.1607 21.5424 17.1763C21.5614 17.192 21.5834 17.2037 21.607 17.2108C21.6306 17.218 21.6554 17.2204 21.68 17.218C22.6007 17.2157 23.5037 16.9652 24.294 16.493C24.3219 16.4688 24.3422 16.437 24.3523 16.4015C24.3624 16.366 24.362 16.3283 24.351 16.293C24.3367 16.2459 24.3044 16.2063 24.261 16.183C24.5907 16.093 24.9016 15.9446 25.179 15.745C25.2124 15.716 25.2347 15.6763 25.242 15.6327C25.2493 15.5891 25.2412 15.5443 25.219 15.506C25.1976 15.4676 25.163 15.4384 25.1216 15.4236C25.0802 15.4089 25.0348 15.4098 24.994 15.426C24.9588 15.4384 24.9227 15.4481 24.886 15.455C25.284 15.1738 25.6732 14.8804 26.053 14.575C26.09 14.5429 26.1132 14.4977 26.1177 14.4488C26.1222 14.4 26.1076 14.3513 26.077 14.313C26.0621 14.2943 26.0437 14.2787 26.0227 14.2671C26.0018 14.2555 25.9788 14.2481 25.955 14.2454C25.9312 14.2427 25.9072 14.2447 25.8842 14.2514C25.8612 14.258 25.8397 14.2691 25.821 14.284L25.731 14.356C25.64 14.425 25.523 14.503 25.395 14.583C25.877 14.027 26.362 13.424 26.5 13.251L26.538 13.204C26.5684 13.1651 26.5825 13.1159 26.5773 13.0668C26.572 13.0177 26.5479 12.9726 26.51 12.941C26.4913 12.9254 26.4697 12.9138 26.4464 12.9067C26.4232 12.8997 26.3987 12.8974 26.3746 12.9C26.3504 12.9026 26.327 12.9101 26.3058 12.9219C26.2845 12.9338 26.2659 12.9498 26.251 12.969L26.205 13.026C26.06 13.206 25.908 13.381 25.757 13.544C26.247 12.639 26.619 11.749 26.673 11.617L26.679 11.602C26.6974 11.5566 26.6974 11.5058 26.6789 11.4604C26.6604 11.415 26.6249 11.3786 26.58 11.359V11.358ZM17.86 17.865C17.7834 17.8584 17.7068 17.853 17.63 17.849C17.7356 17.7807 17.8459 17.7199 17.96 17.667L18.01 17.673C17.9513 17.7297 17.9008 17.7943 17.86 17.865Z"
		fill="#FFE15A"
	/>
</svg>
