<svg viewBox="0 0 36 24" fill="none" xmlns="http://www.w3.org/2000/svg">
	<path d="M36 24H0V0H36" fill="#FF4B55" />
	<path
		d="M24.565 13.884C23.7804 13.73 23.0431 13.3932 22.413 12.901C22.099 12.6633 21.7451 12.4834 21.368 12.37C21.6829 12.3508 21.9989 12.3703 22.309 12.428C23.1639 12.5604 24.0388 12.4326 24.82 12.061C24.0248 12.1223 23.2263 11.9945 22.49 11.688C22.1576 11.5529 21.8045 11.4761 21.446 11.461C21.7157 11.3786 21.9937 11.3269 22.275 11.307C23.137 11.2147 23.9517 10.8664 24.614 10.307C23.861 10.5702 23.0564 10.6514 22.266 10.544C21.8819 10.4967 21.4925 10.5184 21.116 10.608C21.3757 10.4368 21.655 10.2974 21.948 10.193C22.7574 9.87373 23.4538 9.32141 23.949 8.606C23.2911 9.0592 22.5357 9.35108 21.744 9.458C21.3529 9.51695 20.9756 9.64566 20.63 9.838C20.8398 9.59602 21.0782 9.38044 21.34 9.196C22.0383 8.67132 22.5669 7.95284 22.86 7.13C22.3431 7.74313 21.6901 8.227 20.953 8.543C20.6207 8.68938 20.316 8.89164 20.052 9.141C20.1859 8.88545 20.3479 8.64563 20.535 8.426C21.0799 7.73953 21.4126 6.90886 21.492 6.036C21.1441 6.76204 20.6327 7.39765 19.998 7.893C19.6925 8.13749 19.4322 8.43364 19.229 8.768C19.2936 8.45927 19.3943 8.15921 19.529 7.874C19.8788 7.0682 19.9865 6.17799 19.839 5.312C19.6894 6.10629 19.3592 6.85557 18.874 7.502C18.6394 7.82322 18.4627 8.18296 18.352 8.565C18.3332 8.24487 18.3523 7.92363 18.409 7.608C18.5395 6.73935 18.414 5.8515 18.048 5.053C18.1083 5.86132 17.9828 6.67272 17.681 7.425C17.5484 7.76417 17.4733 8.12311 17.459 8.487C17.3777 8.21205 17.3267 7.92904 17.307 7.643C17.2189 6.77067 16.8772 5.94325 16.324 5.263C16.583 6.03111 16.6627 6.84832 16.557 7.652C16.5109 8.04278 16.5325 8.43858 16.621 8.822C16.4515 8.55711 16.3139 8.27315 16.211 7.976C15.9036 7.15836 15.3616 6.44971 14.653 5.939C15.1007 6.61284 15.3874 7.38063 15.491 8.183C15.548 8.57979 15.6739 8.96356 15.863 9.317C15.6246 9.10229 15.4131 8.85952 15.233 8.594C14.7249 7.88787 14.0177 7.34927 13.202 7.047C13.8087 7.57761 14.2842 8.24167 14.591 8.987C14.7338 9.32398 14.9326 9.63436 15.179 9.905C14.9269 9.76832 14.6911 9.60361 14.476 9.414C13.8083 8.86113 12.99 8.52147 12.127 8.439C12.8459 8.79633 13.4712 9.31686 13.953 9.959C14.1915 10.2684 14.4826 10.5335 14.813 10.742C14.5085 10.6765 14.213 10.5745 13.933 10.438C13.1449 10.0819 12.2678 9.97145 11.416 10.121C12.2006 10.275 12.9379 10.6118 13.568 11.104C13.882 11.3414 14.2359 11.5209 14.613 11.634C14.2985 11.6535 13.9828 11.6343 13.673 11.577C12.8178 11.4444 11.9425 11.5722 11.161 11.944C11.9562 11.8827 12.7547 12.0105 13.491 12.317C13.8234 12.4518 14.1766 12.5282 14.535 12.543C14.2654 12.6257 13.9873 12.6777 13.706 12.698C12.844 12.7903 12.0293 13.1386 11.367 13.698C12.12 13.4348 12.9246 13.3536 13.715 13.461C14.0991 13.508 14.4886 13.486 14.865 13.396C14.6054 13.5676 14.326 13.7073 14.033 13.812C13.2236 14.1312 12.5272 14.6836 12.032 15.399C12.6898 14.9454 13.4452 14.6532 14.237 14.546C14.6284 14.4875 15.0061 14.3591 15.352 14.167C15.1422 14.409 14.9038 14.6245 14.642 14.809C13.9433 15.3335 13.4143 16.052 13.121 16.875C13.6379 16.2618 14.2909 15.778 15.028 15.462C15.3603 15.3156 15.665 15.1134 15.929 14.864C15.7954 15.1195 15.6337 15.3593 15.447 15.579C14.9017 16.2654 14.5687 17.096 14.489 17.969C14.8368 17.2426 15.3482 16.6066 15.983 16.111C16.2885 15.8665 16.5487 15.5703 16.752 15.236C16.6875 15.5451 16.5868 15.8455 16.452 16.131C16.1022 16.9368 15.9945 17.827 16.142 18.693C16.2919 17.8986 16.6224 17.1493 17.108 16.503C17.3422 16.1817 17.5186 15.822 17.629 15.44C17.6478 15.7601 17.6287 16.0814 17.572 16.397C17.4415 17.2657 17.567 18.1535 17.933 18.952C17.8727 18.1437 17.9982 17.3323 18.3 16.58C18.4326 16.2408 18.5077 15.8819 18.522 15.518C18.6033 15.7929 18.6543 16.076 18.674 16.362C18.7621 17.2343 19.1038 18.0617 19.657 18.742C19.398 17.9739 19.3183 17.1567 19.424 16.353C19.4705 15.9623 19.4491 15.5665 19.361 15.183C19.5298 15.448 19.6667 15.7319 19.769 16.029C20.0769 16.8469 20.6196 17.5556 21.329 18.066C20.8813 17.3922 20.5946 16.6244 20.491 15.822C20.4337 15.4251 20.3075 15.0414 20.118 14.688C20.3564 14.9027 20.5679 15.1455 20.748 15.411C21.2562 16.1171 21.9633 16.6557 22.779 16.958C22.1726 16.4273 21.6975 15.7632 21.391 15.018C21.2482 14.681 21.0494 14.3706 20.803 14.1C21.0547 14.2368 21.2902 14.4015 21.505 14.591C22.173 15.144 22.9917 15.4837 23.855 15.566C23.1361 15.2086 22.5108 14.6881 22.029 14.046C21.7905 13.7365 21.4994 13.4715 21.169 13.263C21.4732 13.3285 21.7683 13.4306 22.048 13.567C22.8361 13.9231 23.7132 14.0335 24.565 13.884ZM17.998 15.207C17.3615 15.2179 16.7361 15.0391 16.2016 14.6935C15.667 14.3478 15.2474 13.8508 14.9962 13.2659C14.745 12.6809 14.6736 12.0344 14.7911 11.4087C14.9085 10.7831 15.2095 10.2065 15.6558 9.75248C16.102 9.29845 16.6733 8.98751 17.2968 8.85924C17.9204 8.73098 18.568 8.79119 19.1572 9.03222C19.7464 9.27325 20.2506 9.68419 20.6055 10.2127C20.9603 10.7412 21.1499 11.3634 21.15 12C21.1572 12.8432 20.8292 13.6548 20.2381 14.2562C19.647 14.8576 18.8412 15.1996 17.998 15.207ZM17 10.703C16.6639 10.5446 16.3101 10.4271 15.946 10.353C15.986 10.301 16.027 10.247 16.072 10.198C16.4629 10.2626 16.8431 10.3803 17.202 10.548C17.134 10.596 17.068 10.649 17 10.703ZM17.436 10.396C17.0455 10.2231 16.6318 10.1085 16.208 10.056C16.254 10.012 16.304 9.974 16.354 9.934C16.8104 9.97235 17.2579 10.0824 17.68 10.26C17.5972 10.3026 17.5158 10.348 17.436 10.396ZM17.786 11.543C17.0751 12.2618 16.6282 13.2 16.518 14.205C16.4257 14.1374 16.3378 14.0639 16.255 13.985C16.4169 12.9948 16.8856 12.0805 17.595 11.371C17.659 11.425 17.7233 11.4823 17.786 11.543ZM17.511 10.706C17.593 10.752 17.675 10.799 17.758 10.853C17.69 10.902 17.623 10.957 17.556 11.011C17.4727 10.9572 17.3877 10.9062 17.301 10.858C17.371 10.803 17.441 10.755 17.511 10.706ZM20.179 10.51C20.4051 10.8467 20.5503 11.2311 20.6032 11.6332C20.6561 12.0354 20.6153 12.4443 20.484 12.828C20.2198 12.0746 19.7744 11.3977 19.187 10.857C19.5011 10.6984 19.8346 10.5818 20.179 10.51ZM17.999 11.025C18.065 11.075 18.129 11.128 18.195 11.183C18.129 11.233 18.065 11.289 17.999 11.345C17.935 11.289 17.87 11.233 17.804 11.183C17.8675 11.1285 17.9325 11.0758 17.999 11.025ZM18.247 10.55C18.1628 10.5949 18.0801 10.6426 17.999 10.693C17.918 10.6425 17.8353 10.5949 17.751 10.55C17.834 10.5 17.917 10.452 17.999 10.41C18.082 10.452 18.165 10.5 18.247 10.55ZM15.969 13.676C15.8769 13.5604 15.7946 13.4373 15.723 13.308C15.9625 12.4316 16.4434 11.6402 17.111 11.024C17.193 11.074 17.275 11.128 17.357 11.187C16.6549 11.8588 16.1712 12.7265 15.969 13.677V13.676ZM15.515 12.828C15.3837 12.4443 15.3429 12.0354 15.3958 11.6332C15.4487 11.2311 15.5939 10.8467 15.82 10.51C16.1644 10.5818 16.4979 10.6985 16.812 10.857C16.2247 11.3974 15.7793 12.074 15.515 12.827V12.828ZM18 10.11C17.542 9.91696 17.055 9.80203 16.559 9.77C16.9844 9.48256 17.4861 9.32897 17.9995 9.32897C18.5129 9.32897 19.0146 9.48256 19.44 9.77C18.9444 9.80218 18.4577 9.9171 18 10.11ZM18 11.769C18.6336 12.5171 19.0169 13.4449 19.096 14.422C18.7541 14.5872 18.3792 14.6731 17.9995 14.6731C17.6198 14.6731 17.2449 14.5872 16.903 14.422C16.9821 13.4449 17.3664 12.5171 18 11.769ZM20.276 13.309C20.2043 13.4379 20.122 13.5607 20.03 13.676C19.8278 12.7255 19.3442 11.8578 18.642 11.186C18.724 11.128 18.806 11.074 18.888 11.024C19.5556 11.6402 20.0365 12.4316 20.276 13.308V13.309ZM19.744 13.985C19.6612 14.064 19.5733 14.1374 19.481 14.205C19.3712 13.2001 18.9246 12.2619 18.214 11.543C18.2767 11.4823 18.34 11.425 18.404 11.371C19.1134 12.0805 19.5821 12.9949 19.744 13.985ZM18.319 10.26C18.7412 10.0825 19.1886 9.97246 19.645 9.934C19.695 9.974 19.745 10.012 19.791 10.056C19.3672 10.1085 18.9535 10.2231 18.563 10.396C18.4832 10.348 18.4018 10.3026 18.319 10.26ZM18.443 11.011C18.376 10.957 18.309 10.901 18.241 10.853C18.324 10.799 18.406 10.753 18.488 10.706C18.558 10.756 18.628 10.803 18.698 10.858C18.613 10.905 18.528 10.956 18.443 11.011ZM18.797 10.548C19.1559 10.3803 19.5361 10.2625 19.927 10.198C19.972 10.248 20.012 10.301 20.053 10.354C19.689 10.4278 19.3351 10.545 18.999 10.703C18.931 10.649 18.865 10.596 18.796 10.548H18.797Z"
		fill="#FFE15A"
	/>
</svg>
