<svg viewBox="0 0 36 24" fill="none" xmlns="http://www.w3.org/2000/svg">
	<path d="M36 0V5.403H0V0H36ZM0 24H36V18.624H0V24Z" fill="#FF4B55" />
	<path d="M0 5.053H36V18.948H0V5.053Z" fill="#41479B" />
	<path
		d="M18 6.947C19.0029 6.92973 19.9883 7.21134 20.8306 7.75597C21.6729 8.3006 22.3341 9.0836 22.7299 10.0053C23.1258 10.9269 23.2383 11.9455 23.0533 12.9314C22.8682 13.9172 22.394 14.8257 21.6909 15.5411C20.9878 16.2565 20.0877 16.7465 19.1052 16.9486C18.1227 17.1507 17.1023 17.0559 16.1739 16.6761C15.2455 16.2963 14.4512 15.6489 13.892 14.8161C13.3328 13.9834 13.0341 13.0031 13.034 12C13.0225 10.6714 13.5393 9.3927 14.4706 8.4451C15.4019 7.49749 16.6714 6.95862 18 6.947Z"
		fill="#F5F5F5"
	/>
</svg>
