<svg viewBox="0 0 36 24" fill="none" xmlns="http://www.w3.org/2000/svg">
	<path
		d="M36 0V1.714H0V0H36ZM0 5.143H36V3.43H0V5.143ZM0 8.572H36V6.857H0V8.572ZM0 12H36V10.286H0V12ZM0.62 12.632H0V15.429H36V13.714H0.62V12.632ZM0 18.857H36V17.143H0V18.857ZM0 22.285H36V20.571H0V22.285Z"
		fill="#FF4B55"
	/>
	<path
		d="M36 1.714V3.428H0V1.714H36ZM0 6.857H36V5.143H0V6.857ZM0 10.286H36V8.572H0V10.286ZM0 13.714H36V12H0V13.714ZM0 17.143H36V15.429H0V17.143ZM0 20.572H36V18.857H0V20.572ZM0 24H36V22.285H0V24Z"
		fill="#F5F5F5"
	/>
	<path d="M22.345 13.714H0V0H22.345" fill="#41479B" />
	<path
		d="M11.86 10.942C11.0601 11.4962 10.1102 11.7935 9.137 11.794C7.86105 11.7744 6.64204 11.2624 5.73476 10.3651C4.82748 9.46768 4.30216 8.25436 4.26859 6.97869C4.23502 5.70303 4.6958 4.46376 5.55463 3.51991C6.41345 2.57605 7.60384 2.00066 8.877 1.914C9.94032 1.85556 10.9927 2.15403 11.867 2.762C11.8811 2.76956 11.8915 2.78239 11.8961 2.79768C11.9007 2.81296 11.8991 2.82944 11.8915 2.8435C11.8839 2.85756 11.8711 2.86803 11.8558 2.87263C11.8405 2.87722 11.8241 2.87556 11.81 2.868C11.2852 2.64037 10.7191 2.52327 10.147 2.524C9.00999 2.53483 7.92376 2.9965 7.12689 3.80762C6.33002 4.61874 5.88767 5.71298 5.897 6.85C5.88741 7.9872 6.32964 9.08169 7.12654 9.89303C7.92343 10.7044 9.00981 11.1662 10.147 11.177C10.7166 11.1774 11.2802 11.061 11.803 10.835C11.8172 10.8274 11.8338 10.8258 11.8492 10.8305C11.8646 10.8352 11.8774 10.8458 11.885 10.86C11.8926 10.8742 11.8942 10.8908 11.8895 10.9062C11.8848 10.9216 11.8742 10.9344 11.86 10.942ZM17.41 7.558L15.614 6.85L17.411 6.143C17.4298 6.13568 17.4453 6.12186 17.4547 6.10406C17.4641 6.08627 17.4668 6.06568 17.4623 6.04605C17.4579 6.02642 17.4465 6.00905 17.4303 5.99711C17.414 5.98517 17.3941 5.97945 17.374 5.981L15.454 6.137L16.774 4.702C16.787 4.68728 16.7945 4.66846 16.795 4.64883C16.7956 4.62919 16.7893 4.60997 16.7772 4.59451C16.765 4.57905 16.7479 4.56833 16.7287 4.56422C16.7094 4.56011 16.6894 4.56286 16.672 4.572L15.004 5.562L15.58 3.689C15.5864 3.6699 15.5856 3.64913 15.5778 3.63056C15.57 3.612 15.5557 3.5969 15.5376 3.58809C15.5195 3.57928 15.4988 3.57735 15.4793 3.58267C15.4599 3.58799 15.4431 3.60019 15.432 3.617L14.352 5.244L14.076 3.302C14.076 3.28025 14.0674 3.2594 14.052 3.24402C14.0366 3.22864 14.0157 3.22 13.994 3.22C13.9723 3.22 13.9514 3.22864 13.936 3.24402C13.9206 3.2594 13.912 3.28025 13.912 3.302L13.735 4.531L13.662 5.051L13.634 5.244L12.554 3.618C12.5426 3.60206 12.5258 3.59069 12.5068 3.58591C12.4878 3.58112 12.4677 3.58323 12.4501 3.59186C12.4324 3.60049 12.4185 3.61509 12.4106 3.63305C12.4027 3.65101 12.4014 3.67119 12.407 3.69L12.984 5.562L11.317 4.572C11.2996 4.56286 11.2796 4.56011 11.2603 4.56422C11.2411 4.56833 11.224 4.57905 11.2118 4.59451C11.1997 4.60997 11.1934 4.62919 11.194 4.64883C11.1945 4.66846 11.202 4.68728 11.215 4.702L12.535 6.137L10.614 5.98C10.5933 5.97746 10.5725 5.98268 10.5554 5.99465C10.5384 6.00662 10.5264 6.02448 10.5218 6.04478C10.5172 6.06508 10.5203 6.08636 10.5305 6.10451C10.5407 6.12266 10.5573 6.13637 10.577 6.143L12.376 6.85L10.577 7.558C10.5582 7.56532 10.5427 7.57914 10.5333 7.59694C10.5239 7.61473 10.5212 7.63532 10.5257 7.65495C10.5301 7.67458 10.5415 7.69195 10.5577 7.70389C10.574 7.71583 10.5939 7.72155 10.614 7.72L12.534 7.564L11.214 9.002C11.2005 9.01673 11.1927 9.03577 11.192 9.05572C11.1913 9.07567 11.1977 9.09522 11.2101 9.11086C11.2225 9.12651 11.2401 9.13723 11.2597 9.1411C11.2793 9.14497 11.2996 9.14175 11.317 9.132L12.985 8.139L12.407 10.01C12.4014 10.0288 12.4027 10.049 12.4106 10.0669C12.4185 10.0849 12.4324 10.0995 12.4501 10.1081C12.4677 10.1168 12.4878 10.1189 12.5068 10.1141C12.5258 10.1093 12.5426 10.0979 12.554 10.082L13.634 8.457L13.735 9.17L13.912 10.402C13.912 10.4237 13.9206 10.4446 13.936 10.46C13.9514 10.4754 13.9723 10.484 13.994 10.484C14.0157 10.484 14.0366 10.4754 14.052 10.46C14.0674 10.4446 14.076 10.4237 14.076 10.402L14.353 8.457L15.433 10.084C15.4444 10.0999 15.4612 10.1113 15.4802 10.1161C15.4992 10.1209 15.5193 10.1188 15.5369 10.1101C15.5546 10.1015 15.5685 10.0869 15.5764 10.069C15.5843 10.051 15.5856 10.0308 15.58 10.012L15.004 8.139L16.672 9.132C16.6894 9.14114 16.7094 9.14389 16.7287 9.13978C16.7479 9.13566 16.765 9.12495 16.7772 9.10949C16.7893 9.09403 16.7956 9.07481 16.795 9.05517C16.7945 9.03553 16.787 9.01672 16.774 9.002L15.454 7.564L17.374 7.72C17.3941 7.72155 17.414 7.71583 17.4303 7.70389C17.4465 7.69195 17.4579 7.67458 17.4623 7.65495C17.4668 7.63532 17.4641 7.61473 17.4547 7.59694C17.4453 7.57914 17.4288 7.56532 17.41 7.558Z"
		fill="#FFE15A"
	/>
</svg>
