<svg viewBox="0 0 36 24" fill="none" xmlns="http://www.w3.org/2000/svg">
	<path d="M36 24H0V0H36" fill="#FF4B55" />
	<path d="M31.034 5.053V18.947H4.966V5.053H31.034Z" fill="#73AF00" />
	<path
		d="M16.76 12.002C16.7537 10.8738 17.1196 9.77503 17.801 8.87581C18.4823 7.9766 19.4412 7.32714 20.529 7.028C20.5436 7.02323 20.5563 7.01377 20.565 7.00108C20.5737 6.9884 20.578 6.97319 20.5772 6.95782C20.5764 6.94245 20.5706 6.92776 20.5606 6.91605C20.5506 6.90433 20.5371 6.89623 20.522 6.893C20.3231 6.86629 20.1227 6.8526 19.922 6.852C18.5745 6.87856 17.2912 7.43251 16.3476 8.39487C15.404 9.35722 14.8755 10.6512 14.8755 11.999C14.8755 13.3468 15.404 14.6408 16.3476 15.6031C17.2912 16.5655 18.5745 17.1194 19.922 17.146C20.1227 17.1454 20.3231 17.1317 20.522 17.105C20.5371 17.1018 20.5506 17.0937 20.5606 17.082C20.5706 17.0702 20.5764 17.0556 20.5772 17.0402C20.578 17.0248 20.5737 17.0096 20.565 16.9969C20.5563 16.9842 20.5436 16.9748 20.529 16.97C19.4425 16.6706 18.4848 16.0219 17.8038 15.124C17.1228 14.2261 16.7553 13.1289 16.76 12.002Z"
		fill="#F5F5F5"
	/>
</svg>
