<svg viewBox="0 0 36 24" fill="none" xmlns="http://www.w3.org/2000/svg">
	<path d="M12 0H24V24H12V0Z" fill="#41479B" />
	<path d="M36 0V24H24V0H36ZM0 24H12V0H0V24Z" fill="#FF4B55" />
	<path
		d="M8.121 8.53C8.121 8.543 8.125 8.555 8.125 8.567C8.125 8.84278 8.07068 9.11585 7.96515 9.37064C7.85961 9.62542 7.70493 9.85692 7.50992 10.0519C7.31492 10.2469 7.08342 10.4016 6.82864 10.5071C6.57385 10.6127 6.30078 10.667 6.025 10.667C5.74922 10.667 5.47615 10.6127 5.22136 10.5071C4.96658 10.4016 4.73508 10.2469 4.54008 10.0519C4.34507 9.85692 4.19039 9.62542 4.08485 9.37064C3.97932 9.11585 3.925 8.84278 3.925 8.567C3.925 8.555 3.929 8.543 3.929 8.531C4.10189 8.9443 4.39311 9.29726 4.76605 9.54551C5.13899 9.79376 5.57699 9.92621 6.025 9.92621C6.47301 9.92621 6.91101 9.79376 7.28395 9.54551C7.65689 9.29726 7.94811 8.9443 8.121 8.531V8.53ZM6.025 9.54C6.33345 9.54536 6.63651 9.4588 6.89559 9.29133C7.15467 9.12387 7.35804 8.88308 7.47981 8.59964C7.60158 8.31619 7.63624 8.00292 7.57936 7.69972C7.52248 7.39652 7.37665 7.1171 7.16043 6.89706C6.94421 6.67702 6.6674 6.52631 6.36524 6.46413C6.06308 6.40195 5.74925 6.43111 5.46372 6.54789C5.17818 6.66467 4.93387 6.8638 4.76189 7.1199C4.58991 7.37601 4.49805 7.67751 4.498 7.986C4.49615 8.18832 4.53419 8.38902 4.60995 8.57664C4.6857 8.76425 4.79768 8.9351 4.93949 9.07941C5.0813 9.22373 5.25016 9.33869 5.43642 9.41772C5.62267 9.49675 5.82268 9.5383 6.025 9.54ZM6.025 6.043C6.28023 6.04062 6.52408 5.93702 6.70296 5.75495C6.88185 5.57287 6.98113 5.32723 6.979 5.072C6.979 4.683 6.741 4.635 6.741 4.489C6.741 4.343 6.884 4.149 6.598 3.906C6.741 4.149 6.502 4.198 6.502 4.441C6.502 4.684 6.598 4.683 6.598 4.878C6.598 4.92866 6.57788 4.97724 6.54206 5.01306C6.50624 5.04888 6.45766 5.069 6.407 5.069C6.35634 5.069 6.30776 5.04888 6.27194 5.01306C6.23612 4.97724 6.216 4.92866 6.216 4.878C6.216 4.683 6.406 4.489 6.406 4.198C6.41698 3.97178 6.3499 3.74866 6.216 3.566C6.073 3.324 5.834 3.129 6.026 2.936C5.739 3.032 5.882 3.421 5.882 3.664C5.882 3.906 5.692 4.052 5.692 4.344C5.692 4.636 5.834 4.684 5.834 4.878C5.834 4.92852 5.81393 4.97698 5.7782 5.0127C5.74248 5.04843 5.69402 5.0685 5.6435 5.0685C5.59298 5.0685 5.54452 5.04843 5.5088 5.0127C5.47307 4.97698 5.453 4.92852 5.453 4.878C5.453 4.683 5.548 4.683 5.548 4.441C5.548 4.199 5.309 4.149 5.453 3.906C5.166 4.149 5.31 4.343 5.31 4.489C5.31 4.635 5.07 4.683 5.07 5.072C5.06895 5.19846 5.09281 5.3239 5.14023 5.44114C5.18766 5.55838 5.25771 5.66513 5.34639 5.7553C5.43507 5.84546 5.54064 5.91728 5.65708 5.96664C5.77352 6.01601 5.89854 6.04195 6.025 6.043ZM3.577 11.093H1.983C1.96212 11.0931 1.94147 11.0974 1.92223 11.1055C1.90299 11.1136 1.88553 11.1254 1.87086 11.1403C1.85619 11.1551 1.84459 11.1727 1.83672 11.1921C1.82885 11.2114 1.82487 11.2321 1.825 11.253V20.257C1.82487 20.2779 1.82885 20.2986 1.83672 20.3179C1.84459 20.3373 1.85619 20.3549 1.87086 20.3697C1.88553 20.3846 1.90299 20.3964 1.92223 20.4045C1.94147 20.4126 1.96212 20.4169 1.983 20.417H3.577C3.619 20.4165 3.65908 20.3994 3.68849 20.3694C3.71791 20.3394 3.73427 20.299 3.734 20.257V11.254C3.73427 11.212 3.71791 11.1716 3.68849 11.1416C3.65908 11.1116 3.619 11.0935 3.577 11.093ZM10.067 11.093H8.473C8.431 11.0935 8.39092 11.1106 8.36151 11.1406C8.33209 11.1706 8.31573 11.211 8.316 11.253V20.257C8.31573 20.299 8.33209 20.3394 8.36151 20.3694C8.39092 20.3994 8.431 20.4165 8.473 20.417H10.067C10.0879 20.4169 10.1085 20.4126 10.1278 20.4045C10.147 20.3964 10.1645 20.3846 10.1791 20.3697C10.1938 20.3549 10.2054 20.3373 10.2133 20.3179C10.2211 20.2986 10.2251 20.2779 10.225 20.257V11.254C10.2251 11.2331 10.2211 11.2124 10.2133 11.1931C10.2054 11.1737 10.1938 11.1561 10.1791 11.1413C10.1645 11.1264 10.147 11.1146 10.1278 11.1065C10.1085 11.0984 10.0879 11.0931 10.067 11.093ZM4.116 12.808V13.264C4.11587 13.2849 4.11985 13.3056 4.12772 13.3249C4.13559 13.3443 4.14719 13.3619 4.16186 13.3767C4.17653 13.3916 4.19399 13.4034 4.21323 13.4115C4.23247 13.4196 4.25312 13.4239 4.274 13.424H7.776C7.79688 13.4239 7.81753 13.4196 7.83677 13.4115C7.85601 13.4034 7.87347 13.3916 7.88814 13.3767C7.90281 13.3619 7.91441 13.3443 7.92228 13.3249C7.93015 13.3056 7.93413 13.2849 7.934 13.264V12.808C7.93413 12.7871 7.93015 12.7664 7.92228 12.7471C7.91441 12.7277 7.90281 12.7101 7.88814 12.6953C7.87347 12.6804 7.85601 12.6686 7.83677 12.6605C7.81753 12.6524 7.79688 12.6481 7.776 12.648H4.274C4.25312 12.6481 4.23247 12.6524 4.21323 12.6605C4.19399 12.6686 4.17653 12.6804 4.16186 12.6953C4.14719 12.7101 4.13559 12.7277 4.12772 12.7471C4.11985 12.7664 4.11587 12.7871 4.116 12.808ZM7.776 18.086H4.274C4.25312 18.0861 4.23247 18.0904 4.21323 18.0985C4.19399 18.1066 4.17653 18.1184 4.16186 18.1333C4.14719 18.1481 4.13559 18.1657 4.12772 18.1851C4.11985 18.2044 4.11587 18.2251 4.116 18.246V18.703C4.11587 18.7239 4.11985 18.7446 4.12772 18.7639C4.13559 18.7833 4.14719 18.8009 4.16186 18.8157C4.17653 18.8306 4.19399 18.8424 4.21323 18.8505C4.23247 18.8586 4.25312 18.8629 4.274 18.863H7.776C7.79688 18.8629 7.81753 18.8586 7.83677 18.8505C7.85601 18.8424 7.87347 18.8306 7.88814 18.8157C7.90281 18.8009 7.91441 18.7833 7.92228 18.7639C7.93015 18.7446 7.93413 18.7239 7.934 18.703V18.247C7.93413 18.2261 7.93015 18.2054 7.92228 18.1861C7.91441 18.1667 7.90281 18.1491 7.88814 18.1343C7.87347 18.1194 7.85601 18.1076 7.83677 18.0995C7.81753 18.0914 7.79688 18.0861 7.776 18.086ZM5.904 12.185C5.94058 12.2074 5.98263 12.2192 6.0255 12.2192C6.06837 12.2192 6.11042 12.2074 6.147 12.185L7.69 11.242C7.70511 11.2331 7.7169 11.2196 7.72354 11.2033C7.73019 11.1871 7.73133 11.1692 7.72678 11.1523C7.72224 11.1353 7.71227 11.1204 7.69839 11.1097C7.68452 11.099 7.66752 11.0931 7.65 11.093H4.4C4.38215 11.0927 4.36473 11.0984 4.35048 11.1092C4.33624 11.1199 4.32601 11.1351 4.32141 11.1524C4.31681 11.1696 4.31811 11.1879 4.32511 11.2043C4.3321 11.2208 4.34438 11.2344 4.36 11.243L5.904 12.185ZM7.65 19.25H4.4C4.38248 19.2501 4.36548 19.256 4.3516 19.2667C4.33773 19.2774 4.32776 19.2923 4.32322 19.3093C4.31867 19.3262 4.31981 19.3441 4.32646 19.3603C4.3331 19.3766 4.34489 19.3901 4.36 19.399L5.903 20.341C5.9397 20.3636 5.98193 20.3755 6.025 20.3755C6.06807 20.3755 6.1103 20.3636 6.147 20.341L7.69 19.4C7.70562 19.3914 7.7179 19.3778 7.72489 19.3613C7.73189 19.3449 7.73319 19.3266 7.72859 19.3094C7.72399 19.2921 7.71376 19.2769 7.69952 19.2662C7.68528 19.2554 7.66785 19.2497 7.65 19.25ZM4.908 16.771C4.90789 16.921 4.93746 17.0695 4.995 17.208C5.00047 17.2211 5.00156 17.2357 4.99811 17.2494C4.99465 17.2632 4.98683 17.2755 4.97582 17.2845C4.96481 17.2935 4.95119 17.2987 4.93699 17.2993C4.92278 17.3 4.90876 17.296 4.897 17.288C4.57568 17.0451 4.33814 16.7079 4.21748 16.3236C4.09682 15.9393 4.09905 15.5269 4.22385 15.1439C4.34866 14.7609 4.58983 14.4263 4.91375 14.1869C5.23768 13.9474 5.62824 13.815 6.031 13.808C6.093 13.808 6.151 13.82 6.211 13.826C6.35021 13.8575 6.48022 13.9209 6.59084 14.0111C6.70146 14.1013 6.78968 14.2159 6.84858 14.3459C6.90748 14.4759 6.93547 14.6178 6.93033 14.7604C6.9252 14.903 6.88709 15.0426 6.819 15.168C6.74498 15.3108 6.6321 15.4297 6.49338 15.5111C6.35466 15.5925 6.19575 15.633 6.035 15.628C5.88591 15.6289 5.73847 15.6592 5.6011 15.7172C5.46374 15.7751 5.33915 15.8596 5.23447 15.9658C5.12979 16.072 5.04708 16.1977 4.99106 16.3359C4.93504 16.4741 4.90681 16.6219 4.908 16.771ZM5.651 14.718C5.65238 14.7928 5.67583 14.8656 5.71842 14.9272C5.761 14.9887 5.82082 15.0364 5.89037 15.064C5.95991 15.0917 6.03609 15.0983 6.10933 15.0828C6.18258 15.0674 6.24963 15.0306 6.30208 14.9772C6.35452 14.9238 6.39003 14.8561 6.40413 14.7826C6.41823 14.7091 6.41031 14.633 6.38135 14.564C6.3524 14.495 6.3037 14.436 6.24137 14.3946C6.17904 14.3531 6.10586 14.331 6.031 14.331C5.92933 14.3321 5.83223 14.3734 5.76099 14.4459C5.68976 14.5185 5.6502 14.6163 5.651 14.718ZM7.935 15.745C7.93873 16.2542 7.74038 16.744 7.38345 17.1071C7.02652 17.4702 6.54015 17.677 6.031 17.682C5.97 17.682 5.911 17.669 5.851 17.663C5.71202 17.6313 5.58226 17.5679 5.47187 17.4777C5.36148 17.3875 5.27344 17.273 5.21466 17.1432C5.15588 17.0133 5.12794 16.8716 5.13303 16.7291C5.13812 16.5867 5.1761 16.4473 5.244 16.322C5.31788 16.179 5.43071 16.0599 5.56943 15.9783C5.70816 15.8967 5.86714 15.8561 6.028 15.861C6.21465 15.8586 6.39787 15.8105 6.56161 15.7209C6.72536 15.6313 6.86464 15.5029 6.96727 15.347C7.0699 15.1911 7.13275 15.0124 7.15031 14.8265C7.16787 14.6407 7.13961 14.4534 7.068 14.281C7.06253 14.2679 7.06144 14.2533 7.06489 14.2396C7.06835 14.2258 7.07617 14.2135 7.08718 14.2045C7.09819 14.1955 7.11181 14.1903 7.12601 14.1897C7.14022 14.189 7.15424 14.193 7.166 14.201C7.40522 14.3811 7.5993 14.6143 7.73293 14.8823C7.86656 15.1502 7.93508 15.4456 7.935 15.745ZM6.412 16.771C6.41043 16.6962 6.38681 16.6235 6.34411 16.5621C6.30141 16.5007 6.24152 16.4532 6.17196 16.4257C6.1024 16.3981 6.02626 16.3917 5.95308 16.4073C5.87991 16.4229 5.81295 16.4597 5.7606 16.5131C5.70825 16.5666 5.67285 16.6343 5.65882 16.7078C5.6448 16.7812 5.65277 16.8572 5.68176 16.9262C5.71074 16.9952 5.75943 17.0541 5.82174 17.0955C5.88404 17.1369 5.95719 17.159 6.032 17.159C6.08243 17.1585 6.13226 17.148 6.17865 17.1282C6.22504 17.1085 6.26708 17.0797 6.30236 17.0437C6.33765 17.0077 6.36549 16.965 6.38431 16.9183C6.40312 16.8715 6.41253 16.8214 6.412 16.771Z"
		fill="#F9CF02"
	/>
</svg>
