<svg viewBox="0 0 36 24" fill="none" xmlns="http://www.w3.org/2000/svg">
	<path d="M0 16H36V24H0V16Z" fill="#FF4B55" />
	<path d="M0 0H36V8H0V0Z" fill="#FFE15A" />
	<path d="M0 8H36V16H0V8Z" fill="#73AF00" />
	<path
		d="M18.354 4.055L20.212 9.726L26.087 9.773C26.1662 9.77458 26.243 9.80089 26.3066 9.84827C26.3701 9.89565 26.4173 9.96171 26.4414 10.0372C26.4655 10.1127 26.4655 10.1939 26.4412 10.2693C26.4169 10.3448 26.3696 10.4107 26.306 10.458L21.58 14.008L23.352 19.708C23.3767 19.7829 23.3771 19.8636 23.3533 19.9388C23.3294 20.0139 23.2825 20.0796 23.2191 20.1266C23.1558 20.1735 23.0793 20.1993 23.0004 20.2003C22.9216 20.2013 22.8445 20.1774 22.78 20.132L18 16.655L13.22 20.132C13.1555 20.1774 13.0784 20.2013 12.9996 20.2003C12.9207 20.1993 12.8442 20.1735 12.7809 20.1266C12.7175 20.0796 12.6706 20.0139 12.6467 19.9388C12.6229 19.8636 12.6233 19.7829 12.648 19.708L14.42 14.008L9.694 10.458C9.63037 10.4107 9.5831 10.3448 9.55882 10.2693C9.53455 10.1939 9.53447 10.1127 9.55861 10.0372C9.58274 9.96171 9.62989 9.89565 9.69343 9.84827C9.75698 9.80089 9.83375 9.77458 9.913 9.773L15.787 9.726L17.647 4.056C17.6703 3.98048 17.7173 3.91442 17.7809 3.8675C17.8445 3.82058 17.9215 3.79526 18.0005 3.79526C18.0795 3.79526 18.1565 3.82058 18.2201 3.8675C18.2837 3.91442 18.3307 3.98048 18.354 4.056V4.055Z"
		fill="#F5F5F5"
	/>
</svg>
