<svg viewBox="0 0 36 24" fill="none" xmlns="http://www.w3.org/2000/svg">
	<path d="M36 24H0V0H36" fill="#F5F5F5" />
	<path
		d="M0.807 1.617L13.667 11.179H3.757L14.331 23.179H0.807V1.617ZM0 24H16.138L5.565 12H16.138L0 0"
		fill="#41479B"
	/>
	<path
		d="M0.807 1.617L13.667 11.179H3.757L14.331 23.179H0.807V1.617Z"
		fill="#FF4B55"
	/>
	<path
		d="M7.763 18.081L6.737 18.587L7.377 19.547C7.38335 19.5564 7.38694 19.5674 7.38737 19.5788C7.38781 19.5901 7.38506 19.6014 7.37945 19.6112C7.37384 19.6211 7.36558 19.6292 7.35561 19.6347C7.34563 19.6401 7.33434 19.6426 7.323 19.642L6.186 19.558L6.269 20.714C6.2701 20.7254 6.26791 20.7369 6.2627 20.7471C6.25748 20.7573 6.24946 20.7658 6.23958 20.7715C6.22969 20.7773 6.21836 20.7802 6.20692 20.7797C6.19547 20.7793 6.1844 20.7755 6.175 20.769L5.232 20.119L4.735 21.162C4.73009 21.1721 4.72242 21.1807 4.71287 21.1867C4.70331 21.1927 4.69227 21.1958 4.681 21.1958C4.66973 21.1958 4.65869 21.1927 4.64913 21.1867C4.63958 21.1807 4.63191 21.1721 4.627 21.162L4.13 20.119L3.187 20.769C3.1776 20.7755 3.16653 20.7793 3.15508 20.7797C3.14364 20.7802 3.13231 20.7773 3.12242 20.7715C3.11254 20.7658 3.10452 20.7573 3.0993 20.7471C3.09409 20.7369 3.0919 20.7254 3.093 20.714L3.176 19.558L2.039 19.642C2.0275 19.6428 2.01601 19.6403 2.00587 19.6348C1.99573 19.6293 1.98735 19.6211 1.9817 19.611C1.97604 19.601 1.97335 19.5896 1.97394 19.578C1.97452 19.5665 1.97836 19.5554 1.985 19.546L2.625 18.586L1.599 18.081C1.58894 18.0758 1.5805 18.0679 1.57462 18.0582C1.56873 18.0485 1.56562 18.0373 1.56562 18.026C1.56562 18.0147 1.56873 18.0035 1.57462 17.9938C1.5805 17.9841 1.58894 17.9762 1.599 17.971L2.624 17.466L1.984 16.506C1.97759 16.4965 1.97397 16.4854 1.97357 16.474C1.97317 16.4625 1.97601 16.4512 1.98174 16.4413C1.98748 16.4314 1.9959 16.4233 2.00602 16.4179C2.01615 16.4126 2.02758 16.4102 2.039 16.411L3.175 16.495L3.093 15.338C3.0919 15.3266 3.09409 15.3151 3.0993 15.3049C3.10452 15.2947 3.11254 15.2862 3.12242 15.2805C3.13231 15.2747 3.14364 15.2718 3.15508 15.2723C3.16653 15.2727 3.1776 15.2765 3.187 15.283L4.13 15.933L4.627 14.891C4.63191 14.8809 4.63958 14.8723 4.64913 14.8663C4.65869 14.8603 4.66973 14.8572 4.681 14.8572C4.69227 14.8572 4.70331 14.8603 4.71287 14.8663C4.72242 14.8723 4.73009 14.8809 4.735 14.891L5.232 15.934L6.175 15.283C6.1844 15.2765 6.19547 15.2727 6.20692 15.2723C6.21836 15.2718 6.22969 15.2747 6.23958 15.2805C6.24946 15.2862 6.25748 15.2947 6.2627 15.3049C6.26791 15.3151 6.2701 15.3266 6.269 15.338L6.186 16.494L7.323 16.411C7.33434 16.4104 7.34563 16.4129 7.35561 16.4183C7.36558 16.4238 7.37384 16.4319 7.37945 16.4418C7.38506 16.4516 7.38781 16.4629 7.38737 16.4742C7.38694 16.4856 7.38335 16.4966 7.377 16.506L6.737 17.466L7.763 17.971C7.77306 17.9762 7.7815 17.9841 7.78738 17.9938C7.79327 18.0035 7.79638 18.0147 7.79638 18.026C7.79638 18.0373 7.79327 18.0485 7.78738 18.0582C7.7815 18.0679 7.77306 18.0758 7.763 18.081ZM4.345 10.395C5.0878 10.3896 5.80469 10.1213 6.3685 9.63766C6.93232 9.15403 7.30661 8.48633 7.425 7.753C7.04715 8.2212 6.56863 8.59822 6.025 8.856L5.594 8.556L5.974 8.152L5.433 8.051L5.618 7.524L5.083 7.656L5.041 7.098L4.606 7.44L4.345 6.947L4.084 7.44L3.648 7.098L3.606 7.656L3.072 7.524L3.257 8.051L2.716 8.151L3.096 8.557L2.664 8.857C2.12029 8.5989 1.64176 8.22154 1.264 7.753C1.38239 8.48633 1.75668 9.15403 2.3205 9.63766C2.88431 10.1213 3.6022 10.3896 4.345 10.395Z"
		fill="#F5F5F5"
	/>
</svg>
