<svg viewBox="0 0 36 24" fill="none" xmlns="http://www.w3.org/2000/svg">
	<path d="M36 0V3.158H0V0H36ZM0 24H36V20.842H0V24Z" fill="#41479B" />
	<path d="M0 4.421H36V19.579H0V4.421Z" fill="#FF4B55" />
	<path
		d="M36 3.158V4.421H0V3.158H36ZM0 20.842H36V19.579H0V20.842ZM14.896 12C14.8789 11.0217 14.5731 10.0702 14.017 9.26504C13.461 8.45989 12.6795 7.83695 11.7707 7.47442C10.8618 7.11189 9.86612 7.02593 8.90858 7.22734C7.95105 7.42875 7.07435 7.90854 6.38856 8.60649C5.70277 9.30443 5.23845 10.1894 5.05389 11.1503C4.86934 12.1113 4.97277 13.1053 5.35121 14.0076C5.72965 14.91 6.36623 15.6804 7.18102 16.2222C7.99582 16.764 8.95251 17.053 9.931 17.053C11.2594 17.0411 12.5287 16.5021 13.4598 15.5546C14.3908 14.607 14.9075 13.3284 14.896 12Z"
		fill="#F5F5F5"
	/>
	<path
		d="M10.063 7.4L11.059 10.44L14.208 10.464C14.2376 10.4647 14.2661 10.4747 14.2898 10.4925C14.3134 10.5102 14.3309 10.5349 14.3398 10.5631C14.3487 10.5913 14.3486 10.6216 14.3395 10.6497C14.3304 10.6778 14.3127 10.7024 14.289 10.72L11.757 12.623L12.707 15.678C12.7165 15.7061 12.7168 15.7366 12.7079 15.7649C12.6989 15.7933 12.6812 15.818 12.6573 15.8356C12.6333 15.8532 12.6044 15.8627 12.5747 15.8628C12.545 15.8629 12.516 15.8535 12.492 15.836L9.931 13.973L7.37 15.836C7.34589 15.8533 7.31692 15.8624 7.28727 15.8621C7.25762 15.8619 7.22882 15.8522 7.20502 15.8345C7.18122 15.8168 7.16365 15.7921 7.15484 15.7638C7.14603 15.7354 7.14644 15.7051 7.156 15.677L8.106 12.623L5.573 10.72C5.54926 10.7024 5.53161 10.6778 5.5225 10.6497C5.5134 10.6216 5.5133 10.5913 5.52222 10.5631C5.53113 10.5349 5.54862 10.5102 5.57225 10.4925C5.59587 10.4747 5.62445 10.4647 5.654 10.464L8.803 10.439L9.799 7.399C9.80827 7.37126 9.82605 7.34715 9.84982 7.33011C9.87358 7.31306 9.90212 7.30394 9.93136 7.30405C9.96061 7.30416 9.98907 7.3135 10.0127 7.33072C10.0363 7.34795 10.0539 7.37219 10.063 7.4Z"
		fill="#FF4B55"
	/>
</svg>
