<svg viewBox="0 0 36 24" fill="none" xmlns="http://www.w3.org/2000/svg">
	<path d="M31.015 24H0V0H31.015V24Z" fill="#F5F5F5" />
	<path
		d="M36 0H9.31V24H36M23.706 8.309L25.073 7.699L24.896 5.575L26.29 7.165L27.666 6.577C27.7053 6.56115 27.7486 6.558 27.7898 6.56799C27.8309 6.57798 27.868 6.6006 27.8956 6.63268C27.9233 6.66477 27.9402 6.70471 27.9441 6.74691C27.9479 6.78911 27.9384 6.83145 27.917 6.868L27.165 8.179L28.535 9.792L26.487 9.339L25.715 10.638C25.6935 10.6748 25.6607 10.7037 25.6216 10.7206C25.5824 10.7375 25.5389 10.7414 25.4974 10.7318C25.4559 10.7222 25.4185 10.6995 25.3907 10.6672C25.3629 10.6349 25.3462 10.5945 25.343 10.552L25.194 9.042L23.741 8.695C23.7 8.68429 23.6633 8.66118 23.6359 8.62884C23.6085 8.59651 23.5917 8.5565 23.5879 8.51429C23.5841 8.47208 23.5934 8.42972 23.6145 8.39298C23.6356 8.35624 23.6676 8.32692 23.706 8.309ZM29.1 15.399C28.4702 16.6224 27.5167 17.6496 26.3434 18.3685C25.1701 19.0874 23.822 19.4704 22.446 19.476C20.6703 19.4377 18.9622 18.7881 17.6097 17.6368C16.2573 16.4855 15.3433 14.9029 15.022 13.1561C14.7006 11.4093 14.9916 9.60512 15.8458 8.0479C16.7 6.49069 18.0652 5.27574 19.711 4.608C19.7291 4.59871 19.75 4.59665 19.7695 4.60224C19.7891 4.60782 19.8058 4.62063 19.8162 4.63807C19.8266 4.65551 19.8301 4.67626 19.8257 4.69612C19.8214 4.71598 19.8097 4.73346 19.793 4.745L19.78 4.757C18.4062 6.01511 17.5772 7.75942 17.4692 9.61916C17.3613 11.4789 17.9829 13.3074 19.202 14.716C19.7978 15.4071 20.526 15.9717 21.3437 16.3766C22.1613 16.7815 23.0519 17.0184 23.9626 17.0733C24.8734 17.1282 25.7859 17 26.6463 16.6963C27.5067 16.3926 28.2975 15.9195 28.972 15.305L28.976 15.301C28.99 15.2875 29.0084 15.2795 29.0278 15.2786C29.0472 15.2777 29.0663 15.2839 29.0815 15.296C29.0967 15.3081 29.1069 15.3254 29.1103 15.3445C29.1138 15.3637 29.1101 15.3824 29.1 15.399Z"
		fill="#73AF00"
	/>
</svg>
