<svg viewBox="0 0 36 24" fill="none" xmlns="http://www.w3.org/2000/svg">
	<path d="M0 24L18 12L0 0" fill="#F5F5F5" />
	<path d="M36 24V12H18L0 24" fill="#FF4B55" />
	<path d="M36 0V12H18L0 0" fill="#41479B" />
	<path
		d="M9.543 11.23L10.552 12L9.543 12.77L8.474 12.498C8.42609 12.6941 8.3496 12.8821 8.247 13.056L9.192 13.633L9.37 14.903L8.122 14.721L7.555 13.761C7.3849 13.8647 7.20017 13.9423 7.007 13.991L7.274 15.079L6.517 16.105L5.761 15.079L6.028 13.992C5.83437 13.9427 5.64929 13.8645 5.479 13.76L4.913 14.721L3.664 14.903L3.843 13.633L4.787 13.056C4.6844 12.8821 4.60791 12.6941 4.56 12.498L3.491 12.77L2.483 12L3.491 11.23L4.561 11.502C4.6086 11.3059 4.68475 11.1179 4.787 10.944L3.843 10.367L3.664 9.097L4.913 9.279L5.479 10.239C5.64941 10.1352 5.83448 10.0577 6.028 10.009L5.76 8.92L6.516 7.894L7.273 8.92L7.006 10.007C7.19928 10.0564 7.38402 10.1346 7.554 10.239L8.121 9.278L9.369 9.096L9.191 10.366L8.246 10.943C8.3486 11.1169 8.42508 11.3049 8.473 11.501L9.543 11.23ZM1.09 4.468L1.868 4.613L1.986 5.41C1.98853 5.4327 1.99832 5.45398 2.01392 5.47067C2.02952 5.48735 2.05009 5.49855 2.07257 5.5026C2.09505 5.50665 2.11824 5.50332 2.13868 5.49312C2.15912 5.48293 2.17572 5.4664 2.186 5.446L2.561 4.736L3.342 4.869C3.36446 4.87274 3.38753 4.86929 3.40792 4.85913C3.4283 4.84897 3.44495 4.83263 3.45548 4.81244C3.46602 4.79225 3.46991 4.76925 3.46659 4.74672C3.46327 4.72419 3.45291 4.70329 3.437 4.687L2.891 4.104L3.256 3.39C3.26621 3.37012 3.27 3.34755 3.26685 3.32542C3.26369 3.30329 3.25375 3.28268 3.23839 3.26645C3.22303 3.25021 3.203 3.23913 3.18108 3.23475C3.15916 3.23038 3.13642 3.23291 3.116 3.242L2.4 3.59L1.845 3.016C1.82919 3.00004 1.80876 2.98946 1.78661 2.98577C1.76445 2.98207 1.74169 2.98543 1.72156 2.99539C1.70142 3.00535 1.68493 3.02139 1.67442 3.04124C1.66391 3.06109 1.65992 3.08375 1.663 3.106L1.769 3.905L1.06 4.265C1.04068 4.27587 1.02509 4.29233 1.01529 4.31221C1.00548 4.33209 1.00191 4.35447 1.00505 4.37642C1.00818 4.39837 1.01788 4.41886 1.03286 4.4352C1.04784 4.45154 1.06741 4.46297 1.089 4.468H1.09ZM3.323 19.215L2.539 19.332L2.177 18.616C2.16705 18.5957 2.15087 18.5791 2.13083 18.5687C2.11079 18.5582 2.08793 18.5545 2.0656 18.5579C2.04326 18.5614 2.02262 18.5719 2.00668 18.5879C1.99074 18.604 1.98034 18.6246 1.977 18.647L1.844 19.441L1.063 19.571C1.04114 19.5755 1.02116 19.5865 1.0057 19.6026C0.99025 19.6187 0.980057 19.6391 0.976477 19.6611C0.972897 19.6831 0.976099 19.7057 0.985658 19.7259C0.995218 19.7461 1.01068 19.7628 1.03 19.774L1.731 20.148L1.611 20.944C1.60741 20.9662 1.6109 20.9889 1.62097 21.009C1.63104 21.0291 1.64718 21.0455 1.6671 21.0559C1.68702 21.0663 1.7097 21.0702 1.73194 21.067C1.75418 21.0638 1.77484 21.0536 1.791 21.038L2.357 20.475L3.064 20.838C3.08422 20.8475 3.10688 20.8505 3.12887 20.8465C3.15086 20.8426 3.17109 20.832 3.18677 20.8161C3.20245 20.8002 3.21282 20.7798 3.21644 20.7577C3.22007 20.7357 3.21677 20.7131 3.207 20.693L2.857 19.971L3.414 19.399C3.42961 19.3828 3.43985 19.3622 3.44331 19.34C3.44676 19.3178 3.44327 19.2951 3.43331 19.2749C3.42335 19.2548 3.4074 19.2382 3.38765 19.2275C3.36791 19.2168 3.34532 19.2124 3.323 19.215ZM15.23 11.925L14.474 11.688L14.45 10.883C14.4502 10.8602 14.443 10.8379 14.4296 10.8195C14.4161 10.8011 14.3971 10.7876 14.3753 10.7808C14.3535 10.7741 14.3302 10.7745 14.3087 10.7821C14.2872 10.7897 14.2687 10.8041 14.256 10.823L13.8 11.483L13.04 11.257C13.0181 11.2508 12.9948 11.2516 12.9734 11.2594C12.9521 11.2672 12.9337 11.2815 12.9209 11.3003C12.9082 11.3192 12.9017 11.3416 12.9024 11.3643C12.9032 11.3871 12.9111 11.409 12.925 11.427L13.4 12.071L12.954 12.737C12.9411 12.7556 12.9343 12.7779 12.9347 12.8006C12.9352 12.8233 12.9427 12.8452 12.9563 12.8634C12.9699 12.8815 12.9889 12.8949 13.0106 12.9017C13.0322 12.9084 13.0555 12.9082 13.077 12.901L13.826 12.641L14.311 13.277C14.3247 13.2948 14.3436 13.3078 14.3652 13.3141C14.3867 13.3204 14.4097 13.3198 14.4308 13.3122C14.4519 13.3047 14.4701 13.2906 14.4827 13.272C14.4953 13.2535 14.5017 13.2314 14.501 13.209L14.49 12.404L15.235 12.131C15.2558 12.1226 15.2735 12.1081 15.2859 12.0894C15.2982 12.0707 15.3045 12.0487 15.3039 12.0263C15.3034 12.0039 15.296 11.9822 15.2828 11.9641C15.2696 11.946 15.2512 11.9323 15.23 11.925Z"
		fill="#FFE15A"
	/>
</svg>
