<svg viewBox="0 0 36 24" fill="none" xmlns="http://www.w3.org/2000/svg">
	<path d="M36 12H0V0H36V12Z" fill="#FF4B55" />
	<path
		d="M36 12V24H0V12H36ZM7.604 10.432C7.92617 10.4323 8.24729 10.3954 8.561 10.322C8.58404 10.3179 8.60482 10.3056 8.61952 10.2874C8.63423 10.2692 8.64185 10.2463 8.641 10.223C8.64015 10.1996 8.63087 10.1773 8.61489 10.1602C8.5989 10.1431 8.57727 10.1324 8.554 10.13C7.58609 9.95847 6.70951 9.45155 6.07807 8.69819C5.44664 7.94482 5.10068 6.99315 5.10092 6.01016C5.10116 5.02717 5.44758 4.07567 6.07938 3.32261C6.71118 2.56956 7.58801 2.06306 8.556 1.892C8.57804 1.88823 8.59811 1.87696 8.61279 1.86009C8.62748 1.84323 8.63589 1.8218 8.6366 1.79945C8.6373 1.7771 8.63026 1.75519 8.61667 1.73743C8.60307 1.71967 8.58376 1.70715 8.562 1.702C8.06016 1.58363 7.54073 1.55922 7.03 1.63C5.99261 1.7872 5.04455 2.3071 4.35429 3.09732C3.66404 3.88754 3.27631 4.89689 3.26 5.946C3.24673 6.52682 3.34898 7.10449 3.56082 7.64546C3.77266 8.18643 4.08987 8.67993 4.49402 9.09729C4.89817 9.51465 5.38121 9.84756 5.91509 10.0767C6.44897 10.3058 7.02305 10.4266 7.604 10.432ZM8.662 6.894L8.404 7.681L7.589 7.687L8.245 8.18L7.999 8.971L8.662 8.489L9.326 8.971L9.08 8.181L9.735 7.687L8.92 7.681L8.662 6.894ZM10.46 7.687L11.115 8.18L10.869 8.971L11.533 8.489L12.196 8.971L11.95 8.181L12.606 7.687L11.791 7.681L11.533 6.894L11.275 7.681L10.46 7.687ZM9.693 3.672L9.447 4.463L10.111 3.981L10.774 4.463L10.528 3.673L11.184 3.18L10.368 3.173L10.11 2.386L9.852 3.173L9.037 3.18L9.693 3.672ZM8.08 4.9L7.822 4.113L7.564 4.9L6.748 4.907L7.404 5.399L7.158 6.19L7.822 5.708L8.485 6.19L8.239 5.4L8.895 4.907L8.08 4.9ZM11.963 5.4L11.717 6.19L12.38 5.708L13.043 6.19L12.797 5.4L13.453 4.907L12.638 4.9L12.38 4.113L12.122 4.9L11.307 4.907L11.963 5.4Z"
		fill="#F5F5F5"
	/>
</svg>
