<svg viewBox="0 0 36 24" fill="none" xmlns="http://www.w3.org/2000/svg">
	<path d="M36 24H0V0H36" fill="#F5F5F5" />
	<path
		d="M21.506 6.744C20.1123 5.81638 18.4073 5.47996 16.7657 5.80866C15.1241 6.13736 13.6801 7.10428 12.751 8.497C12.5159 8.84168 12.3515 9.22955 12.2672 9.63818C12.183 10.0468 12.1806 10.4681 12.2602 10.8776C12.3398 11.2872 12.4999 11.6769 12.7311 12.0242C12.9623 12.3715 13.26 12.6695 13.6071 12.901C13.9542 13.1325 14.3438 13.2929 14.7533 13.3729C15.1628 13.4529 15.5841 13.4508 15.9928 13.367C16.4015 13.2831 16.7895 13.119 17.1344 12.8842C17.4792 12.6494 17.7741 12.3485 18.002 11.999C18.2285 11.6466 18.5229 11.3427 18.868 11.1053C19.2131 10.8678 19.6021 10.7014 20.0121 10.6158C20.4222 10.5302 20.8453 10.5271 21.2566 10.6067C21.6679 10.6862 22.0592 10.8469 22.4078 11.0793C22.7564 11.3117 23.0552 11.6112 23.2868 11.9603C23.5184 12.3093 23.6782 12.701 23.7569 13.1125C23.8356 13.524 23.8315 13.947 23.745 14.3569C23.6585 14.7668 23.4912 15.1554 23.253 15.5C24.182 14.1071 24.5199 12.4023 24.1923 10.7603C23.8647 9.11836 22.8985 7.67372 21.506 6.744Z"
		fill="#FF4B55"
	/>
	<path
		d="M12.75 8.497C12.52 8.84192 12.3602 9.22876 12.2797 9.63544C12.1992 10.0421 12.1995 10.4607 12.2808 10.8672C12.362 11.2738 12.5226 11.6603 12.7532 12.0048C12.9838 12.3493 13.2801 12.645 13.625 12.875C13.9699 13.105 14.3568 13.2648 14.7634 13.3453C15.1701 13.4258 15.5887 13.4255 15.9952 13.3442C16.4018 13.263 16.7883 13.1024 17.1328 12.8718C17.4773 12.6412 17.773 12.3449 18.003 12C18.2295 11.6476 18.5239 11.3437 18.869 11.1063C19.2141 10.8688 19.6031 10.7024 20.0131 10.6168C20.4232 10.5312 20.8463 10.5281 21.2576 10.6077C21.6689 10.6872 22.0602 10.8479 22.4088 11.0803C22.7574 11.3127 23.0562 11.6122 23.2878 11.9613C23.5194 12.3103 23.6792 12.702 23.7579 13.1135C23.8366 13.525 23.8325 13.948 23.746 14.3579C23.6595 14.7678 23.4922 15.1564 23.254 15.501C22.7998 16.2033 22.2106 16.8083 21.5205 17.2809C20.8305 17.7535 20.0534 18.0842 19.2345 18.2539C18.4155 18.4236 17.571 18.4288 16.75 18.2693C15.929 18.1098 15.1479 17.7887 14.452 17.3247C13.7562 16.8607 13.1595 16.263 12.6966 15.5664C12.2338 14.8698 11.914 14.0882 11.7558 13.2669C11.5976 12.4457 11.6042 11.6012 11.7752 10.7825C11.9463 9.96379 12.2783 9.18726 12.752 8.498"
		fill="#41479B"
	/>
	<path
		d="M23.901 4.903C23.8549 4.83332 23.8383 4.74823 23.8548 4.66634C23.8713 4.58445 23.9196 4.51242 23.989 4.466L24.281 4.271C24.3155 4.24783 24.3543 4.2317 24.395 4.22353C24.4358 4.21536 24.4778 4.21531 24.5186 4.22339C24.5593 4.23148 24.5981 4.24753 24.6327 4.27062C24.6673 4.29372 24.6969 4.32341 24.72 4.358L25.867 6.083C25.9132 6.15256 25.9299 6.23756 25.9136 6.31944C25.8973 6.40132 25.8493 6.47342 25.78 6.52L25.489 6.715C25.4544 6.73812 25.4156 6.75419 25.3748 6.76229C25.334 6.77038 25.292 6.77034 25.2512 6.76216C25.2104 6.75399 25.1717 6.73784 25.1371 6.71464C25.1026 6.69145 25.073 6.66166 25.05 6.627L23.901 4.903ZM26.823 9.284C26.8694 9.35345 26.9414 9.40169 27.0233 9.41819C27.1052 9.43468 27.1903 9.41807 27.26 9.372L27.552 9.179C27.5867 9.15608 27.6166 9.12653 27.6399 9.09204C27.6632 9.05754 27.6794 9.01878 27.6877 8.97799C27.696 8.9372 27.6961 8.89518 27.6881 8.85434C27.6801 8.81349 27.6641 8.77464 27.641 8.74L26.49 7.017C26.4669 6.98242 26.4373 6.95272 26.4027 6.92962C26.3681 6.90653 26.3293 6.89048 26.2886 6.88239C26.2478 6.87431 26.2058 6.87436 26.165 6.88253C26.1243 6.8907 26.0855 6.90683 26.051 6.93L25.76 7.125C25.6904 7.17159 25.6422 7.24388 25.6259 7.326C25.6096 7.40812 25.6265 7.49336 25.673 7.563L26.823 9.284ZM28.05 8.468C28.0964 8.53773 28.1686 8.58617 28.2508 8.60267C28.3329 8.61917 28.4182 8.60239 28.488 8.556L28.781 8.36C28.8507 8.31357 28.8992 8.24135 28.9157 8.15922C28.9322 8.07708 28.9154 7.99176 28.869 7.922L25.948 3.538C25.9014 3.46843 25.8291 3.4202 25.747 3.40388C25.6649 3.38757 25.5796 3.40452 25.51 3.451L25.216 3.647C25.1463 3.69343 25.0978 3.76565 25.0813 3.84778C25.0648 3.92992 25.0816 4.01524 25.128 4.085L28.05 8.468ZM27.505 4.991C27.5514 5.06045 27.6234 5.10869 27.7053 5.12519C27.7872 5.14168 27.8723 5.12507 27.942 5.079L28.234 4.886C28.2686 4.86309 28.2984 4.83358 28.3216 4.79917C28.3448 4.76476 28.361 4.72611 28.3692 4.68544C28.3775 4.64476 28.3777 4.60286 28.3697 4.56212C28.3618 4.52138 28.3459 4.4826 28.323 4.448L27.173 2.72C27.1266 2.65027 27.0544 2.60183 26.9722 2.58533C26.8901 2.56883 26.8048 2.58561 26.735 2.632L26.442 2.828C26.3725 2.87442 26.3243 2.94645 26.3078 3.02834C26.2913 3.11023 26.3079 3.19532 26.354 3.265L27.505 4.991ZM28.127 5.929L29.275 7.653C29.3214 7.72273 29.3936 7.77117 29.4758 7.78767C29.5579 7.80417 29.6432 7.78739 29.713 7.741L30.005 7.546C30.0746 7.49941 30.1228 7.42712 30.1391 7.345C30.1554 7.26288 30.1385 7.17764 30.092 7.108L28.944 5.384C28.8974 5.31443 28.8251 5.2662 28.743 5.24988C28.6609 5.23357 28.5756 5.25052 28.506 5.297L28.214 5.492C28.1447 5.53858 28.0967 5.61068 28.0804 5.69256C28.0641 5.77444 28.0808 5.85944 28.127 5.929ZM9.18 14.717C9.13341 14.6474 9.06112 14.5992 8.979 14.5829C8.89688 14.5666 8.81164 14.5835 8.742 14.63L8.449 14.825C8.37943 14.8716 8.3312 14.9439 8.31488 15.026C8.29857 15.1081 8.31552 15.1934 8.362 15.263L11.282 19.643C11.3051 19.6776 11.3347 19.7073 11.3693 19.7304C11.4039 19.7535 11.4427 19.7695 11.4834 19.7776C11.5242 19.7857 11.5662 19.7856 11.607 19.7775C11.6477 19.7693 11.6865 19.7532 11.721 19.73L12.013 19.534C12.0824 19.4876 12.1307 19.4156 12.1472 19.3337C12.1637 19.2518 12.1471 19.1667 12.101 19.097L9.18 14.717ZM7.516 15.449L7.223 15.644C7.15343 15.6906 7.1052 15.7629 7.08888 15.845C7.07257 15.9271 7.08952 16.0124 7.136 16.082L8.284 17.802C8.33059 17.8716 8.40288 17.9198 8.485 17.9361C8.56712 17.9524 8.65236 17.9355 8.722 17.889L9.013 17.694C9.08229 17.6474 9.13033 17.5753 9.14663 17.4934C9.16293 17.4116 9.14617 17.3266 9.1 17.257L7.954 15.537C7.90757 15.4673 7.83535 15.4188 7.75322 15.4023C7.67108 15.3858 7.58576 15.4026 7.516 15.449ZM9.726 18.196C9.70293 18.1614 9.67326 18.1317 9.63869 18.1086C9.60412 18.0855 9.56534 18.0695 9.52456 18.0614C9.48377 18.0533 9.4418 18.0534 9.40103 18.0615C9.36027 18.0697 9.32152 18.0858 9.287 18.109L8.995 18.304C8.92543 18.3506 8.8772 18.4229 8.86088 18.505C8.84457 18.5871 8.86152 18.6724 8.908 18.742L10.056 20.466C10.0791 20.5006 10.1087 20.5303 10.1433 20.5534C10.1779 20.5765 10.2167 20.5925 10.2574 20.6006C10.2982 20.6087 10.3402 20.6086 10.381 20.6005C10.4217 20.5923 10.4605 20.5762 10.495 20.553L10.786 20.358C10.8555 20.3116 10.9037 20.2396 10.9202 20.1577C10.9367 20.0758 10.9201 19.9907 10.874 19.921L9.726 18.196ZM6.727 16.356C6.68058 16.2866 6.60855 16.2383 6.52666 16.2218C6.44477 16.2053 6.35968 16.2219 6.29 16.268L5.996 16.463C5.92627 16.5094 5.87783 16.5816 5.86133 16.6638C5.84483 16.7459 5.86161 16.8312 5.908 16.901L8.829 21.281C8.87559 21.3506 8.94788 21.3988 9.03 21.4151C9.11212 21.4314 9.19736 21.4145 9.267 21.368L9.559 21.173C9.62857 21.1264 9.67681 21.0541 9.69312 20.972C9.70943 20.8899 9.69248 20.8046 9.646 20.735L6.727 16.356ZM8.451 9.179L8.742 9.372C8.81168 9.41807 8.89677 9.43468 8.97866 9.41819C9.06055 9.40169 9.13258 9.35345 9.179 9.284L12.101 4.904C12.1474 4.83424 12.1642 4.74892 12.1477 4.66678C12.1312 4.58465 12.0827 4.51243 12.013 4.466L11.721 4.27C11.6512 4.22361 11.5659 4.20683 11.4838 4.22333C11.4016 4.23983 11.3294 4.28827 11.283 4.358L8.363 8.74C8.31661 8.80976 8.29983 8.89508 8.31633 8.97722C8.33283 9.05935 8.38127 9.13257 8.451 9.179ZM7.223 8.36L7.515 8.556C7.54958 8.57912 7.58838 8.59519 7.62918 8.60329C7.66999 8.61138 7.71199 8.61134 7.75277 8.60316C7.79356 8.59499 7.83233 8.57884 7.86686 8.55564C7.90139 8.53245 7.93101 8.50267 7.954 8.468L10.874 4.084C10.9201 4.01432 10.9367 3.92923 10.9202 3.84734C10.9037 3.76545 10.8555 3.69342 10.786 3.647L10.495 3.452C10.4605 3.42883 10.4217 3.4127 10.381 3.40453C10.3402 3.39636 10.2982 3.39631 10.2574 3.40439C10.2167 3.41248 10.1779 3.42853 10.1433 3.45162C10.1087 3.47472 10.0791 3.50441 10.056 3.539L7.136 7.923C7.08983 7.99256 7.07307 8.07756 7.08937 8.15944C7.10567 8.24132 7.15371 8.31342 7.223 8.36ZM5.996 7.546L6.289 7.741C6.35864 7.78748 6.44388 7.80443 6.526 7.78812C6.60812 7.77181 6.68041 7.72357 6.727 7.654L9.647 3.265C9.69307 3.19532 9.70968 3.11023 9.69319 3.02834C9.6767 2.94645 9.62845 2.87442 9.559 2.828L9.268 2.633C9.23348 2.60983 9.19473 2.5937 9.15397 2.58553C9.1132 2.57736 9.07123 2.57731 9.03045 2.58539C8.98966 2.59348 8.95088 2.60953 8.91631 2.63262C8.88174 2.65572 8.85207 2.68542 8.829 2.72L5.908 7.108C5.86161 7.17776 5.84483 7.26308 5.86133 7.34522C5.87783 7.42735 5.92627 7.49957 5.996 7.546ZM25.779 17.485L25.489 17.29C25.4545 17.2668 25.4157 17.2507 25.375 17.2425C25.3342 17.2344 25.2922 17.2343 25.2514 17.2424C25.2107 17.2505 25.1719 17.2665 25.1373 17.2896C25.1027 17.3127 25.0731 17.3424 25.05 17.377L23.902 19.097C23.8555 19.1666 23.8386 19.2519 23.8549 19.334C23.8712 19.4161 23.9194 19.4884 23.989 19.535L24.282 19.73C24.3518 19.7764 24.4371 19.7932 24.5192 19.7767C24.6013 19.7602 24.6736 19.7117 24.72 19.642L25.866 17.922C25.9122 17.8524 25.9289 17.7674 25.9126 17.6856C25.8963 17.6037 25.8483 17.5316 25.779 17.485ZM25.761 16.885L26.051 17.077C26.1208 17.1234 26.2061 17.1402 26.2882 17.1237C26.3704 17.1072 26.4426 17.0587 26.489 16.989L27.641 15.264C27.6642 15.2295 27.6803 15.1907 27.6885 15.15C27.6966 15.1092 27.6967 15.0672 27.6886 15.0264C27.6805 14.9857 27.6645 14.9469 27.6414 14.9123C27.6183 14.8777 27.5886 14.8481 27.554 14.825L27.261 14.63C27.1912 14.5836 27.1059 14.5668 27.0238 14.5833C26.9416 14.5998 26.8694 14.6483 26.823 14.718L25.673 16.446C25.6266 16.5158 25.6098 16.6011 25.6263 16.6832C25.6428 16.7654 25.6913 16.8386 25.761 16.885ZM27.008 18.305L26.715 18.108C26.6452 18.0616 26.5599 18.0448 26.4778 18.0613C26.3957 18.0778 26.3234 18.1263 26.277 18.196L25.127 19.92C25.1041 19.9546 25.0882 19.9934 25.0803 20.0341C25.0723 20.0749 25.0725 20.1168 25.0808 20.1574C25.089 20.1981 25.1052 20.2368 25.1284 20.2712C25.1516 20.3056 25.1814 20.3351 25.216 20.358L25.51 20.554C25.5798 20.6004 25.6651 20.6172 25.7472 20.6007C25.8294 20.5842 25.9016 20.5357 25.948 20.466L27.096 18.742C27.1424 18.6722 27.1592 18.5869 27.1427 18.5048C27.1262 18.4226 27.0777 18.3514 27.008 18.305ZM26.988 17.695L27.282 17.89C27.3516 17.9362 27.4366 17.9529 27.5184 17.9366C27.6003 17.9203 27.6724 17.8723 27.719 17.803L28.869 16.083C28.8921 16.0484 28.9082 16.0096 28.9163 15.9688C28.9244 15.928 28.9243 15.886 28.9162 15.8452C28.908 15.8044 28.8918 15.7657 28.8686 15.7311C28.8454 15.6966 28.8157 15.667 28.781 15.644L28.488 15.449C28.4184 15.4025 28.3331 15.3856 28.251 15.4019C28.1689 15.4182 28.0966 15.4664 28.05 15.536L26.9 17.256C26.8536 17.3258 26.8368 17.4111 26.8533 17.4932C26.8698 17.5754 26.9183 17.6486 26.988 17.695ZM28.234 19.119L27.941 18.925C27.8714 18.8792 27.7865 18.8628 27.7049 18.8793C27.6232 18.8958 27.5514 18.9438 27.505 19.013L26.355 20.734C26.3318 20.7685 26.3157 20.8073 26.3075 20.848C26.2994 20.8888 26.2993 20.9308 26.3074 20.9716C26.3155 21.0123 26.3315 21.0511 26.3546 21.0857C26.3777 21.1203 26.4074 21.1499 26.442 21.173L26.735 21.368C26.8046 21.4145 26.8899 21.4314 26.972 21.4151C27.0541 21.3988 27.1264 21.3506 27.173 21.281L28.323 19.557C28.346 19.5223 28.362 19.4834 28.3699 19.4425C28.3779 19.4016 28.3776 19.3596 28.3693 19.3188C28.3609 19.278 28.3446 19.2393 28.3212 19.2048C28.2978 19.1703 28.2678 19.1408 28.233 19.118L28.234 19.119ZM30.004 16.463L29.714 16.269C29.6794 16.2457 29.6406 16.2294 29.5998 16.2212C29.5589 16.2129 29.5168 16.2128 29.4759 16.2209C29.435 16.229 29.3961 16.2451 29.3614 16.2683C29.3268 16.2915 29.2971 16.3213 29.274 16.356L28.128 18.079C28.0816 18.1488 28.0648 18.2341 28.0813 18.3162C28.0978 18.3984 28.1463 18.4706 28.216 18.517L28.506 18.71C28.5757 18.7561 28.6608 18.7727 28.7427 18.7562C28.8246 18.7397 28.8966 18.6915 28.943 18.622L30.092 16.902C30.1152 16.8675 30.1313 16.8287 30.1395 16.788C30.1476 16.7472 30.1477 16.7052 30.1396 16.6644C30.1315 16.6237 30.1155 16.5849 30.0924 16.5503C30.0693 16.5157 30.0386 16.4861 30.004 16.463Z"
		fill="#464655"
	/>
</svg>
