<svg viewBox="0 0 36 24" fill="none" xmlns="http://www.w3.org/2000/svg">
	<path d="M36 0H0V24H36" fill="#FFD250" />
	<path d="M6.517 1.895H1.862V22.105H6.517V1.895Z" fill="#5AA587" />
	<path d="M11.172 1.895H6.517V22.105H11.172V1.895Z" fill="#FF7350" />
	<path
		d="M13.034 22.105H34.138V1.895H13.034M19.173 7.557C19.2059 7.52481 19.2461 7.50115 19.2902 7.48808C19.3343 7.47501 19.3809 7.47292 19.426 7.482C19.4614 7.49097 19.4947 7.50691 19.5239 7.52889C19.5531 7.55087 19.5776 7.57844 19.596 7.61C19.6149 7.64004 19.6276 7.67358 19.6333 7.70864C19.639 7.74369 19.6375 7.77952 19.629 7.814C19.6251 7.82875 19.6247 7.8442 19.6278 7.85913C19.6309 7.87406 19.6375 7.88806 19.647 7.9C19.6564 7.91179 19.6684 7.92114 19.6822 7.92723C19.6959 7.93333 19.711 7.93599 19.726 7.935C19.966 7.923 21.172 7.842 21.366 7.44C21.3842 7.40282 21.3943 7.36216 21.3955 7.32076C21.3967 7.27936 21.389 7.23818 21.373 7.2C21.5 7.125 21.816 7.015 22.224 7.386C22.2402 7.40085 22.261 7.40958 22.2829 7.41068C22.3048 7.41177 22.3264 7.40516 22.344 7.392C22.4134 7.34079 22.4695 7.27361 22.5074 7.19615C22.5453 7.11869 22.5641 7.03323 22.562 6.947C22.6771 6.96161 22.7872 7.0026 22.8838 7.06678C22.9804 7.13096 23.0609 7.21659 23.119 7.317C23.1264 7.32962 23.1367 7.34033 23.1491 7.34826C23.1614 7.35619 23.1754 7.36113 23.19 7.36269C23.2046 7.36424 23.2193 7.36237 23.233 7.35721C23.2467 7.35206 23.2591 7.34377 23.269 7.333C23.3686 7.22339 23.4451 7.09483 23.494 6.955C23.7199 7.01902 23.9172 7.1584 24.053 7.35C24.061 7.36048 24.0711 7.36918 24.0826 7.37555C24.0941 7.38192 24.1069 7.38582 24.12 7.387C24.2169 7.38915 24.3134 7.37564 24.406 7.347C24.0286 7.60902 23.5917 7.77264 23.135 7.823C23.1177 7.82477 23.1013 7.83119 23.0873 7.84158C23.0734 7.85197 23.0626 7.86594 23.056 7.882C23.0492 7.89824 23.047 7.916 23.0494 7.93342C23.0519 7.95084 23.059 7.96727 23.07 7.981L23.206 8.149C22.933 8.17518 22.6591 8.10822 22.429 7.959C22.4123 7.94407 22.3909 7.93556 22.3686 7.93501C22.3462 7.93446 22.3244 7.9419 22.307 7.956C22.2895 7.97042 22.2776 7.99046 22.2732 8.01271C22.2688 8.03495 22.2723 8.05803 22.283 8.078L22.401 8.3C22.2022 8.2491 22.0112 8.17175 21.833 8.07C21.628 7.964 21.467 7.88 21.325 7.923C21.2705 7.94179 21.2225 7.97579 21.1867 8.02098C21.1509 8.06616 21.1288 8.12065 21.123 8.178C21.1123 8.242 21.1199 8.30773 21.1451 8.36756C21.1702 8.42739 21.2118 8.47886 21.265 8.516C21.3181 8.55202 21.3808 8.57119 21.445 8.571C21.5388 8.57004 21.6283 8.53192 21.694 8.465C21.7485 8.41213 21.7843 8.34299 21.796 8.268C22.0325 8.40612 22.2963 8.49077 22.569 8.516C22.586 8.51731 22.603 8.51377 22.618 8.50581C22.6331 8.49784 22.6455 8.48577 22.654 8.471C22.6631 8.45637 22.6681 8.43961 22.6686 8.4224C22.6692 8.4052 22.6651 8.38816 22.657 8.373L22.594 8.256C22.8564 8.33941 23.1338 8.36466 23.407 8.33C23.4244 8.32825 23.441 8.32172 23.455 8.31113C23.4689 8.30054 23.4796 8.28631 23.486 8.27C23.4924 8.25381 23.4944 8.23619 23.4918 8.21896C23.4892 8.20174 23.482 8.18553 23.471 8.172L23.325 7.992C23.8043 7.92592 24.2548 7.72474 24.624 7.412C24.5681 7.60126 24.4483 7.76526 24.285 7.876C24.2732 7.88318 24.2631 7.89277 24.2554 7.90415C24.2476 7.91553 24.2424 7.92843 24.24 7.942C24.2377 7.95568 24.2384 7.96967 24.2418 7.9831C24.2452 7.99653 24.2514 8.0091 24.26 8.02C24.4984 8.47508 24.574 8.99806 24.474 9.502C24.1705 9.34653 23.9235 9.09955 23.768 8.796C23.7583 8.77577 23.7417 8.75966 23.7211 8.7505C23.7006 8.74135 23.6776 8.73976 23.656 8.746C23.6345 8.75261 23.6159 8.7665 23.6035 8.78529C23.5911 8.80408 23.5856 8.82661 23.588 8.849C23.6041 9.00412 23.6081 9.16026 23.6 9.316C23.4731 9.23161 23.3682 9.11812 23.294 8.985C23.2863 8.96639 23.2728 8.95077 23.2555 8.94049C23.2382 8.93021 23.218 8.92583 23.198 8.928C23.1779 8.93006 23.1589 8.93842 23.1438 8.95189C23.1288 8.96536 23.1183 8.98325 23.114 9.003C23.0904 9.10727 23.063 9.21067 23.032 9.313C22.9229 9.25013 22.8296 9.16328 22.759 9.059C22.7494 9.04066 22.734 9.02601 22.7152 9.01733C22.6963 9.00865 22.6752 9.00642 22.655 9.011C22.6347 9.01576 22.6164 9.02703 22.6031 9.04309C22.5897 9.05916 22.582 9.07913 22.581 9.1C22.5735 9.23518 22.5601 9.36997 22.541 9.504C22.4349 9.43943 22.3345 9.36582 22.241 9.284C22.229 9.27244 22.2142 9.2643 22.198 9.26043C22.1818 9.25656 22.1649 9.2571 22.149 9.262C22.1331 9.26689 22.1188 9.27582 22.1074 9.28792C22.096 9.30001 22.0879 9.31486 22.084 9.331L22.035 9.519C21.9338 9.46232 21.8428 9.38895 21.766 9.302C21.7582 9.29214 21.7485 9.28393 21.7375 9.27787C21.7265 9.27181 21.7144 9.26802 21.702 9.26671C21.6895 9.26541 21.6768 9.26662 21.6648 9.27028C21.6528 9.27393 21.6416 9.27996 21.632 9.288C21.6126 9.30452 21.6003 9.32797 21.5979 9.35336C21.5955 9.37876 21.603 9.4041 21.619 9.424C21.7424 9.56056 21.8916 9.67136 22.058 9.75C22.0705 9.75582 22.0842 9.75883 22.098 9.75883C22.1118 9.75883 22.1255 9.75582 22.138 9.75C22.1507 9.74369 22.1618 9.7347 22.1706 9.72364C22.1794 9.71259 22.1857 9.69974 22.189 9.686L22.231 9.525C22.3358 9.60281 22.4453 9.67395 22.559 9.738C22.5708 9.74465 22.5838 9.74869 22.5973 9.74985C22.6107 9.751 22.6243 9.74924 22.637 9.74468C22.6497 9.74013 22.6613 9.73289 22.671 9.72345C22.6806 9.71401 22.6881 9.7026 22.693 9.69C22.7254 9.57716 22.7455 9.46116 22.753 9.344C22.8403 9.41929 22.9359 9.48437 23.038 9.538C23.0594 9.54897 23.0841 9.55135 23.1072 9.54466C23.1302 9.53796 23.1498 9.5227 23.162 9.502C23.1986 9.42309 23.2271 9.34067 23.247 9.256C23.3559 9.37493 23.4815 9.47734 23.62 9.56C23.632 9.56697 23.6453 9.57121 23.6591 9.57243C23.6729 9.57364 23.6868 9.57179 23.6998 9.56701C23.7128 9.56224 23.7245 9.55465 23.7343 9.54479C23.744 9.53494 23.7514 9.52306 23.756 9.51C23.7853 9.40699 23.7985 9.30005 23.795 9.193C23.9444 9.37644 24.1273 9.52983 24.334 9.645V9.652C24.3466 9.85335 24.3717 10.0537 24.409 10.252C24.1663 10.16 23.9443 10.0207 23.756 9.842C23.7449 9.83101 23.7312 9.82297 23.7162 9.8186C23.7012 9.81423 23.6853 9.81368 23.67 9.817C23.6548 9.82043 23.6407 9.8275 23.6288 9.8376C23.617 9.84771 23.6078 9.86054 23.602 9.875L23.529 10.059L23.223 9.833C23.2097 9.82336 23.1941 9.81737 23.1778 9.81561C23.1615 9.81386 23.145 9.8164 23.13 9.823C23.1148 9.82972 23.1015 9.84023 23.0916 9.85354C23.0816 9.86685 23.0752 9.88251 23.073 9.899L23.045 10.115C22.9714 10.0624 22.9034 10.0024 22.842 9.936C22.8338 9.92657 22.8238 9.91887 22.8126 9.91335C22.8014 9.90783 22.7892 9.90461 22.7767 9.90386C22.7642 9.90312 22.7517 9.90487 22.7399 9.90901C22.7281 9.91316 22.7173 9.91961 22.708 9.928C22.689 9.94524 22.6775 9.96925 22.676 9.99487C22.6745 10.0205 22.6831 10.0457 22.7 10.065C22.8103 10.1801 22.9346 10.2809 23.07 10.365C23.0833 10.3734 23.0986 10.3783 23.1144 10.3791C23.1301 10.38 23.1458 10.3769 23.16 10.37C23.1746 10.3631 23.1872 10.3525 23.1966 10.3394C23.2061 10.3263 23.212 10.311 23.214 10.295L23.241 10.085L23.516 10.289C23.5277 10.2974 23.5412 10.303 23.5554 10.3055C23.5696 10.3079 23.5842 10.307 23.598 10.303C23.6119 10.2989 23.6247 10.2918 23.6354 10.2821C23.6461 10.2724 23.6546 10.2604 23.66 10.247L23.728 10.074C23.8778 10.1989 24.044 10.3025 24.222 10.382C24.223 10.5616 24.2625 10.739 24.338 10.902C24.0955 10.8982 23.8567 10.8419 23.638 10.737C23.6171 10.7264 23.593 10.7241 23.5704 10.7304C23.5478 10.7367 23.5284 10.7511 23.516 10.771L23.378 10.987L22.808 10.597C22.7961 10.5889 22.7825 10.5837 22.7683 10.5818C22.7541 10.5799 22.7396 10.5813 22.726 10.586C22.7121 10.5906 22.6995 10.5983 22.6891 10.6085C22.6787 10.6187 22.6708 10.6312 22.666 10.645L22.578 10.887C22.4802 10.771 22.3767 10.6599 22.268 10.554C22.2492 10.5385 22.2252 10.5309 22.201 10.5328C22.1767 10.5347 22.1542 10.5458 22.138 10.564C22.0484 10.6597 21.9499 10.7468 21.844 10.824L21.734 10.524C21.7299 10.5121 21.7234 10.5012 21.715 10.4919C21.7066 10.4825 21.6965 10.4749 21.6851 10.4695C21.6738 10.4641 21.6615 10.4611 21.6489 10.4604C21.6364 10.4598 21.6238 10.4617 21.612 10.466C21.588 10.4752 21.5687 10.4935 21.5582 10.5169C21.5477 10.5404 21.5469 10.567 21.556 10.591L21.706 11.002C21.7108 11.0151 21.7184 11.0269 21.7282 11.0368C21.7381 11.0466 21.7499 11.0542 21.763 11.059C21.7758 11.0638 21.7895 11.0658 21.8032 11.0647C21.8168 11.0637 21.8301 11.0597 21.842 11.053C21.976 10.9725 22.0996 10.8757 22.21 10.765C22.298 10.858 22.446 11.027 22.54 11.137C22.5507 11.15 22.5647 11.1598 22.5806 11.1654C22.5964 11.1711 22.6135 11.1723 22.63 11.169C22.6464 11.1659 22.6617 11.1585 22.6743 11.1476C22.6869 11.1368 22.6965 11.1227 22.702 11.107L22.802 10.827L23.352 11.202C23.3675 11.2129 23.386 11.2188 23.405 11.219L23.425 11.217C23.4373 11.2143 23.4489 11.2092 23.4592 11.202C23.4695 11.1948 23.4783 11.1856 23.485 11.175L23.63 10.947C23.8405 11.0359 24.0656 11.0854 24.294 11.093C24.2924 11.1167 24.2995 11.1402 24.314 11.159C24.338 11.188 24.385 11.245 24.442 11.304L24.204 11.308C24.1909 11.3082 24.178 11.3112 24.1661 11.3167C24.1542 11.3222 24.1436 11.3302 24.135 11.34C24.1262 11.35 24.1195 11.3618 24.1153 11.3745C24.1112 11.3872 24.1097 11.4007 24.111 11.414L24.147 11.793C23.9796 11.7593 23.8188 11.6985 23.671 11.613C23.6557 11.6029 23.6378 11.5974 23.6195 11.5974C23.6012 11.5974 23.5833 11.6029 23.568 11.613L23.152 11.88L22.939 11.29C22.9327 11.2724 22.9214 11.257 22.9065 11.2458C22.8916 11.2346 22.8736 11.2281 22.855 11.227C22.8363 11.2254 22.8177 11.2296 22.8015 11.2391C22.7854 11.2486 22.7726 11.2629 22.765 11.28L22.531 11.756L22.368 11.49C22.3597 11.4766 22.3483 11.4655 22.3347 11.4577C22.3211 11.4498 22.3057 11.4455 22.29 11.445C22.2745 11.4449 22.2591 11.4485 22.2452 11.4555C22.2313 11.4624 22.2193 11.4725 22.21 11.485C22.1248 11.6056 22.0288 11.718 21.923 11.821L21.815 11.472C21.8101 11.4545 21.8003 11.4387 21.7866 11.4267C21.773 11.4147 21.7561 11.4069 21.7381 11.4042C21.7201 11.4016 21.7018 11.4042 21.6852 11.4118C21.6687 11.4194 21.6547 11.4316 21.645 11.447C21.5638 11.5647 21.4746 11.6766 21.378 11.782L21.351 11.35C21.35 11.3341 21.3452 11.3186 21.3368 11.305C21.3284 11.2914 21.3168 11.28 21.303 11.272C21.2891 11.2639 21.2733 11.2595 21.2571 11.2593C21.241 11.2592 21.2251 11.2632 21.211 11.271C21.171 11.293 21.095 11.333 21.016 11.373C21.1513 11.1513 21.2096 10.8912 21.182 10.633C21.1606 10.5849 21.1211 10.5472 21.072 10.528L21.064 10.521L21.05 10.516L21.041 10.512L21.031 10.51H21.025C20.9796 10.4979 20.9321 10.4958 20.8858 10.5039C20.8395 10.512 20.7956 10.5301 20.757 10.557C20.7098 10.5934 20.6726 10.6413 20.649 10.696C20.5734 10.623 20.5132 10.5356 20.472 10.439C20.4651 10.4218 20.4532 10.407 20.4379 10.3965C20.4226 10.386 20.4046 10.3802 20.386 10.38C20.3673 10.3794 20.3488 10.3846 20.3331 10.3947C20.3174 10.4049 20.3051 10.4197 20.298 10.437L20.198 10.662C20.1325 10.589 20.0816 10.5041 20.048 10.412C20.0398 10.39 20.0237 10.3718 20.0028 10.361C19.9819 10.3503 19.9577 10.3478 19.935 10.354L19.58 10.449L19.661 10.247C19.6671 10.2316 19.6692 10.2149 19.6671 10.1985C19.665 10.182 19.6588 10.1664 19.649 10.153C19.6395 10.1396 19.6267 10.1289 19.6118 10.122C19.5968 10.1152 19.5803 10.1124 19.564 10.114L19.134 10.158L19.294 9.717C19.6672 9.82859 20.0492 9.90788 20.436 9.954L20.366 10.043C20.3535 10.0587 20.3461 10.0779 20.3449 10.0979C20.3436 10.1179 20.3486 10.1379 20.359 10.155C20.3693 10.172 20.3847 10.1854 20.403 10.1931C20.4213 10.2008 20.4416 10.2025 20.461 10.198C20.744 10.1323 21.0352 10.1091 21.325 10.129C21.3443 10.1315 21.364 10.1281 21.3813 10.1191C21.3986 10.1102 21.4128 10.0962 21.422 10.079C21.4311 10.0617 21.4348 10.0421 21.4327 10.0227C21.4305 10.0032 21.4226 9.9849 21.41 9.97C21.1008 9.62074 20.8214 9.24609 20.575 8.85C20.5668 8.83113 20.5527 8.81542 20.5348 8.80524C20.517 8.79506 20.4963 8.79096 20.4759 8.79355C20.4555 8.79614 20.4364 8.80529 20.4217 8.81962C20.4069 8.83395 20.3972 8.85268 20.394 8.873L20.346 9.183C20.2479 9.11669 20.1631 9.03257 20.096 8.935C20.0849 8.91827 20.0687 8.90556 20.0498 8.89872C20.0309 8.89188 20.0103 8.89128 19.991 8.897C19.9717 8.90262 19.9547 8.91413 19.9424 8.92992C19.93 8.9457 19.9229 8.96496 19.922 8.985C19.922 8.995 19.92 9.032 19.922 9.083C19.5871 8.80385 19.3244 8.44815 19.156 8.046C19.086 7.817 19.091 7.649 19.173 7.557ZM21.56 8.327C21.5368 8.3535 21.505 8.37087 21.4702 8.376C21.4353 8.38113 21.3998 8.37369 21.37 8.355C21.347 8.33832 21.3292 8.3155 21.3185 8.28914C21.3079 8.26278 21.305 8.23397 21.31 8.206C21.3118 8.18514 21.3191 8.16513 21.3312 8.14807C21.3434 8.13101 21.3599 8.11752 21.379 8.109C21.3877 8.1063 21.3968 8.10495 21.406 8.105C21.471 8.1129 21.5338 8.13327 21.591 8.165C21.6049 8.19145 21.6095 8.22181 21.6041 8.2512C21.5987 8.2806 21.5835 8.3073 21.561 8.327H21.56ZM19.13 9.242C19.233 9.188 19.449 9.295 19.574 9.356C19.9903 9.53765 20.4388 9.63421 20.893 9.64C20.976 9.744 21.056 9.844 21.121 9.923C20.9713 9.92499 20.8219 9.93769 20.674 9.961L20.696 9.932C20.707 9.91808 20.7141 9.90141 20.7163 9.8838C20.7186 9.86619 20.7161 9.84828 20.709 9.832C20.702 9.81597 20.6908 9.80216 20.6765 9.79211C20.6622 9.78205 20.6454 9.77613 20.628 9.775C20.1646 9.73412 19.707 9.6436 19.263 9.505H19.262C19.156 9.472 19.094 9.417 19.088 9.349C19.0855 9.32907 19.088 9.30884 19.0954 9.29014C19.1027 9.27145 19.1146 9.2549 19.13 9.242ZM18.243 6.017C17.8092 7.89218 17.6412 9.81904 17.744 11.741C17.7118 11.7901 17.6915 11.846 17.6845 11.9043C17.6776 11.9626 17.6843 12.0217 17.704 12.077C17.4855 12.1291 17.257 12.1222 17.042 12.057C17.0813 11.9596 17.082 11.8509 17.044 11.753L17.036 11.74L17.014 8.695C17.038 6.888 17.858 6.228 18.243 6.017ZM14.833 21.279C14.7407 21.2865 14.6479 21.2724 14.562 21.2379C14.4761 21.2033 14.3994 21.1493 14.338 21.08C14.3285 21.0676 14.3162 21.0577 14.3021 21.0511C14.288 21.0445 14.2726 21.0414 14.257 21.042L14.034 21.056L14.074 20.906C14.0789 20.8882 14.0787 20.8694 14.0734 20.8517C14.0681 20.834 14.0579 20.8181 14.044 20.806C13.9529 20.7295 13.89 20.6248 13.8652 20.5085C13.8404 20.3922 13.8551 20.271 13.907 20.164C14.053 19.894 14.524 19.767 14.867 19.674C14.9945 19.6447 15.1193 19.6046 15.24 19.554C15.3954 19.4698 15.53 19.3519 15.634 19.209C15.597 19.989 15.414 21.25 14.833 21.279ZM15.24 4.447C15.1193 4.39645 14.9945 4.35631 14.867 4.327C14.524 4.233 14.053 4.106 13.907 3.837C13.8546 3.72978 13.8396 3.6081 13.8644 3.49137C13.8893 3.37465 13.9525 3.2696 14.044 3.193C14.0579 3.18085 14.0681 3.16502 14.0734 3.14733C14.0787 3.12963 14.0789 3.1108 14.074 3.093L14.034 2.944L14.257 2.958C14.2724 2.95847 14.2877 2.95527 14.3016 2.94866C14.3155 2.94206 14.3276 2.93223 14.337 2.92C14.3985 2.85025 14.4755 2.79584 14.5618 2.76112C14.6481 2.7264 14.7413 2.71232 14.834 2.72C15.415 2.75 15.597 4.011 15.634 4.791C15.5299 4.64849 15.3953 4.53097 15.24 4.447ZM16.442 12.122C16.4322 12.0879 16.4311 12.052 16.4388 12.0174C16.4465 11.9828 16.4627 11.9507 16.486 11.924C16.5241 11.8895 16.5686 11.863 16.617 11.8458C16.6654 11.8286 16.7167 11.8212 16.768 11.824C16.7931 11.8239 16.8181 11.8256 16.843 11.829C16.87 11.832 16.874 11.841 16.876 11.844C16.8816 11.8965 16.8761 11.9497 16.86 12C16.8438 12.0503 16.8172 12.0966 16.782 12.136C16.9402 12.2269 17.116 12.2829 17.2977 12.3001C17.4793 12.3174 17.6625 12.2955 17.835 12.236C17.8529 12.229 17.869 12.2179 17.882 12.2037C17.895 12.1895 17.9046 12.1725 17.91 12.154C17.9166 12.1159 17.911 12.0767 17.894 12.042C17.8751 12.0078 17.867 11.9688 17.8705 11.9299C17.8741 11.8911 17.8892 11.8542 17.914 11.824C17.951 11.774 18.031 11.797 18.054 11.805C18.1195 11.8282 18.1765 11.8707 18.2174 11.927C18.2582 11.9832 18.2811 12.0505 18.283 12.12C18.2816 12.1589 18.2723 12.197 18.2558 12.2323C18.2393 12.2675 18.2159 12.299 18.187 12.325C17.9489 12.5064 17.6525 12.5943 17.354 12.572C16.839 12.567 16.498 12.399 16.442 12.122ZM18.042 15.695C18.0156 15.7547 17.9699 15.8038 17.9122 15.8342C17.8545 15.8647 17.7882 15.8749 17.724 15.863C17.704 15.862 17.6842 15.8673 17.6675 15.8783C17.6508 15.8892 17.638 15.9053 17.631 15.924C17.6234 15.9428 17.6219 15.9634 17.6265 15.9831C17.6312 16.0028 17.6418 16.0206 17.657 16.034L17.813 16.169L17.559 16.232C17.5425 16.2362 17.5274 16.2447 17.5153 16.2567C17.5032 16.2686 17.4944 16.2836 17.49 16.3C17.4638 16.3898 17.4255 16.4756 17.376 16.555C17.3265 16.4756 17.2882 16.3898 17.262 16.3C17.2576 16.2836 17.2488 16.2686 17.2367 16.2567C17.2246 16.2447 17.2095 16.2362 17.193 16.232L16.94 16.169L17.095 16.034C17.1102 16.0206 17.1208 16.0028 17.1255 15.9831C17.1301 15.9634 17.1286 15.9428 17.121 15.924C17.1137 15.9055 17.1008 15.8898 17.0841 15.8791C17.0675 15.8683 17.0478 15.863 17.028 15.864C16.9636 15.8759 16.897 15.8656 16.8392 15.8347C16.7815 15.8038 16.7359 15.7542 16.71 15.694C16.6997 15.6717 16.6959 15.647 16.6989 15.6226C16.7019 15.5982 16.7116 15.5751 16.727 15.556C16.7378 15.547 16.7505 15.5404 16.7642 15.5368C16.7778 15.5331 16.7921 15.5325 16.806 15.535C16.8534 15.5512 16.8939 15.5829 16.921 15.625C16.9289 15.6375 16.9396 15.648 16.9523 15.6556C16.965 15.6633 16.9792 15.6679 16.994 15.669C17.0087 15.6698 17.0234 15.6674 17.0371 15.6618C17.0507 15.6563 17.063 15.6478 17.073 15.637C17.1637 15.5294 17.215 15.3942 17.2187 15.2535C17.2223 15.1128 17.178 14.9751 17.093 14.863C17.1713 14.7546 17.2399 14.6395 17.298 14.519C17.3051 14.5024 17.3075 14.4842 17.3049 14.4664C17.3022 14.4485 17.2946 14.4318 17.283 14.418C17.2709 14.4038 17.2553 14.3931 17.2377 14.387C17.2202 14.3808 17.2013 14.3794 17.183 14.383C17.0789 14.4159 16.966 14.4062 16.869 14.356C16.852 14.3368 16.8415 14.3129 16.8388 14.2874C16.8361 14.2619 16.8414 14.2363 16.854 14.214C16.863 14.198 16.89 14.151 16.988 14.189C17.082 14.226 17.217 14.266 17.301 14.189C17.3187 14.1724 17.332 14.1519 17.34 14.129C17.365 14.133 17.39 14.134 17.415 14.137C17.4232 14.1567 17.4354 14.1744 17.451 14.189C17.536 14.266 17.671 14.226 17.764 14.189C17.864 14.151 17.89 14.199 17.898 14.214C17.9104 14.2363 17.9157 14.262 17.913 14.2874C17.9103 14.3128 17.8998 14.3368 17.883 14.356C17.8331 14.3814 17.7788 14.3966 17.723 14.4009C17.6672 14.4052 17.6112 14.3984 17.558 14.381C17.5405 14.3773 17.5224 14.3788 17.5057 14.3852C17.489 14.3916 17.4746 14.4026 17.464 14.417C17.4531 14.4314 17.4464 14.4486 17.4446 14.4666C17.4428 14.4846 17.4461 14.5027 17.454 14.519C17.5124 14.6395 17.5813 14.7546 17.66 14.863C17.575 14.9751 17.5307 15.1128 17.5343 15.2535C17.538 15.3942 17.5893 15.5294 17.68 15.637C17.6896 15.6482 17.7018 15.6569 17.7154 15.6625C17.7291 15.6681 17.7438 15.6704 17.7585 15.6692C17.7732 15.668 17.7875 15.6634 17.8 15.6557C17.8126 15.6481 17.8232 15.6375 17.831 15.625C17.8583 15.5831 17.8988 15.5514 17.946 15.535C17.96 15.5322 17.9744 15.5325 17.9883 15.536C18.0021 15.5394 18.015 15.5459 18.026 15.555C18.0418 15.5743 18.0518 15.5978 18.0548 15.6225C18.0578 15.6473 18.0527 15.6724 18.042 15.695ZM17.988 12.915C17.9742 12.9282 17.9645 12.9452 17.9603 12.9639C17.956 12.9826 17.9573 13.0021 17.964 13.02C17.9797 13.0525 17.9863 13.0886 17.9831 13.1245C17.9799 13.1604 17.9671 13.1948 17.946 13.224C17.9314 13.2392 17.922 13.2586 17.9193 13.2795C17.9166 13.3004 17.9207 13.3216 17.931 13.34C17.97 13.41 17.906 13.5 17.906 13.5C17.8928 13.5178 17.886 13.5395 17.8867 13.5617C17.8874 13.5839 17.8956 13.6051 17.91 13.622C17.984 13.711 17.967 13.75 17.959 13.769C17.9412 13.8027 17.9168 13.8324 17.8872 13.8565C17.8577 13.8805 17.8236 13.8984 17.787 13.909C17.6925 13.9412 17.5927 13.9551 17.493 13.95H17.482C17.3733 13.9479 17.266 13.9248 17.166 13.882C17.123 13.862 17.07 13.828 17.058 13.785C17.0534 13.7571 17.0595 13.7286 17.075 13.705C17.0827 13.6945 17.0882 13.6825 17.0912 13.6698C17.0942 13.6572 17.0946 13.644 17.0925 13.6312C17.0903 13.6183 17.0856 13.606 17.0787 13.595C17.0717 13.584 17.0627 13.5745 17.052 13.567C17.002 13.533 16.999 13.504 16.997 13.494C16.9974 13.4523 17.0122 13.412 17.039 13.38C17.0474 13.3699 17.0537 13.3582 17.0575 13.3457C17.0613 13.3331 17.0626 13.3199 17.0612 13.3068C17.0598 13.2938 17.0557 13.2811 17.0494 13.2696C17.043 13.2582 17.0344 13.2481 17.024 13.24C16.995 13.217 16.947 13.174 16.947 13.132C16.9552 13.0921 16.9785 13.057 17.012 13.034C17.0245 13.0248 17.0347 13.0127 17.0417 12.9988C17.0486 12.9849 17.0522 12.9696 17.052 12.954C17.0518 12.9385 17.0481 12.9233 17.0411 12.9094C17.0342 12.8956 17.0243 12.8835 17.012 12.874C16.9817 12.8317 16.9685 12.7796 16.975 12.728C17.0993 12.7519 17.2255 12.7643 17.352 12.765H17.373C17.6127 12.769 17.8504 12.7212 18.07 12.625C18.0789 12.6764 18.0762 12.7291 18.062 12.7793C18.0478 12.8295 18.0225 12.8759 17.988 12.915ZM19.24 15.39C19.0892 15.2822 18.9513 15.1573 18.829 15.018C18.694 14.874 18.595 14.77 18.475 14.783C18.4346 14.7878 18.3968 14.8053 18.367 14.833C18.2756 14.7222 18.2286 14.5815 18.235 14.438C18.2505 14.2511 18.201 14.0647 18.095 13.91C18.1092 13.8905 18.1216 13.8698 18.132 13.848C18.1526 13.7999 18.1602 13.7471 18.1538 13.6952C18.1475 13.6432 18.1276 13.5938 18.096 13.552C18.1341 13.4758 18.1434 13.3884 18.122 13.306C18.1725 13.2152 18.1857 13.1084 18.159 13.008C18.1906 12.9657 18.2162 12.9193 18.235 12.87C18.5425 13.2077 18.8747 13.5219 19.229 13.81C19.2527 13.9369 19.2878 14.0614 19.334 14.182C19.4878 14.5623 19.7465 14.8911 20.08 15.13C19.918 15.354 19.615 15.645 19.24 15.39ZM27.672 17.06C27.686 17.157 27.723 17.302 27.759 17.443C27.7946 17.5662 27.8227 17.6914 27.843 17.818C27.8145 17.8678 27.7685 17.9052 27.714 17.923C27.6613 17.9376 27.6058 17.9394 27.5523 17.9283C27.4987 17.9171 27.4485 17.8934 27.406 17.859C27.3888 17.8472 27.3681 17.8415 27.3473 17.8428C27.3265 17.8441 27.3067 17.8522 27.291 17.866C27.218 17.9336 27.1237 17.9736 27.0244 17.979C26.9251 17.9845 26.827 17.9551 26.747 17.896C26.7295 17.8821 26.7078 17.8748 26.6855 17.8753C26.6631 17.8759 26.6417 17.8843 26.625 17.899C26.5842 17.9373 26.5357 17.9663 26.4827 17.9842C26.4297 18.0021 26.3735 18.0084 26.3178 18.0027C26.2622 17.997 26.2084 17.9795 26.1601 17.9512C26.1119 17.923 26.0702 17.8847 26.038 17.839C25.913 17.924 25.674 18.01 25.618 17.975C25.61 17.971 25.609 17.945 25.609 17.939C25.611 17.8956 25.6222 17.853 25.6418 17.8143C25.6615 17.7755 25.6891 17.7413 25.723 17.714C25.7886 17.6594 25.8647 17.6188 25.9465 17.5946C26.0283 17.5703 26.1142 17.563 26.199 17.573C26.3294 17.5909 26.4623 17.5706 26.5814 17.5145C26.7005 17.4584 26.8008 17.369 26.87 17.257C26.9618 16.735 26.8847 16.1972 26.65 15.722C26.581 15.6229 26.5086 15.5262 26.433 15.432C26.2876 15.2893 26.173 15.1184 26.0963 14.9297C26.0196 14.741 25.9824 14.5386 25.987 14.335C26.2213 14.3322 26.4535 14.3791 26.6683 14.4727C26.8831 14.5663 27.0756 14.7044 27.233 14.878C27.4236 15.0664 27.6304 15.2377 27.851 15.39C27.7301 15.503 27.6491 15.6521 27.62 15.815C27.6172 15.8548 27.6224 15.8948 27.6353 15.9326C27.6482 15.9703 27.6685 16.0052 27.695 16.035C27.7445 16.0903 27.807 16.1325 27.8768 16.1576C27.9466 16.1827 28.0216 16.1901 28.095 16.179C28.115 16.1776 28.135 16.1772 28.155 16.178C28.0989 16.2821 28.0343 16.3814 27.962 16.475C27.773 16.737 27.651 16.92 27.672 17.061V17.06ZM30.706 8.563C30.6681 8.64539 30.599 8.70939 30.514 8.741C30.4218 8.77133 30.3242 8.78149 30.2278 8.7708C30.1313 8.7601 30.0383 8.72879 29.955 8.679C29.7171 8.56 29.494 8.41368 29.29 8.243C29.1347 8.11444 28.9688 7.99936 28.794 7.899C28.7768 7.88947 28.757 7.8856 28.7374 7.88794C28.7178 7.89027 28.6995 7.89869 28.685 7.912C28.6704 7.92557 28.6603 7.94327 28.656 7.96275C28.6517 7.98223 28.6534 8.00255 28.661 8.021L28.774 8.301C28.5492 8.1736 28.3637 7.98678 28.238 7.761C28.2281 7.74218 28.2122 7.72722 28.1928 7.71852C28.1734 7.70982 28.1516 7.70787 28.131 7.713C28.1103 7.71852 28.092 7.73074 28.079 7.74774C28.066 7.76474 28.0589 7.78558 28.059 7.807C28.0533 7.89816 28.0142 7.984 27.949 8.048C27.9359 7.88486 27.877 7.72872 27.7792 7.59748C27.6814 7.46625 27.5486 7.36523 27.396 7.306C27.3808 7.30051 27.3643 7.29909 27.3484 7.3019C27.3324 7.30471 27.3175 7.31164 27.305 7.322C27.2922 7.33231 27.2822 7.34569 27.2759 7.36089C27.2696 7.3761 27.2672 7.39264 27.269 7.409C27.2842 7.53426 27.2628 7.66123 27.2074 7.77461C27.1521 7.88799 27.0651 7.98294 26.957 8.048C26.9809 7.80736 26.9212 7.56583 26.788 7.364C26.7255 7.28641 26.6463 7.22397 26.5562 7.18137C26.4662 7.13876 26.3676 7.1171 26.268 7.118C26.2555 7.11736 26.243 7.11934 26.2313 7.12382C26.2195 7.12829 26.2089 7.13517 26.2 7.144C26.1908 7.15281 26.1834 7.16334 26.1782 7.17501C26.1731 7.18668 26.1703 7.19925 26.17 7.212C26.1634 7.3603 26.1144 7.5036 26.029 7.625C25.9774 7.54162 25.9013 7.47629 25.811 7.438C25.7549 7.41805 25.6951 7.41093 25.6359 7.41716C25.5767 7.42339 25.5197 7.44281 25.469 7.474C25.3834 7.51985 25.3117 7.58784 25.2614 7.67087C25.2111 7.7539 25.184 7.84892 25.183 7.946C25.1784 8.05084 25.2008 8.15512 25.248 8.24881C25.2953 8.3425 25.3659 8.42246 25.453 8.481C25.4723 8.49289 25.4951 8.49751 25.5175 8.49402C25.5399 8.49054 25.5603 8.47918 25.575 8.462C25.6524 8.37314 25.7535 8.3081 25.8664 8.27447C25.9794 8.24083 26.0996 8.23997 26.213 8.272C26.1095 8.37451 26.0394 8.50593 26.012 8.649C26.0039 8.70823 26.008 8.76848 26.024 8.82607C26.04 8.88367 26.0676 8.93741 26.105 8.984C26.1137 8.99625 26.1252 9.00614 26.1387 9.01277C26.1521 9.01941 26.167 9.02258 26.182 9.022C26.1967 9.02161 26.2112 9.0178 26.2242 9.01086C26.2372 9.00391 26.2485 8.99403 26.257 8.982C26.3238 8.89248 26.4127 8.82184 26.515 8.777C26.5126 8.87646 26.5375 8.97468 26.587 9.061C26.6252 9.1212 26.6756 9.17264 26.7351 9.21193C26.7946 9.25123 26.8617 9.27749 26.932 9.289C27.3624 9.33098 27.7966 9.31281 28.222 9.235C28.7395 9.12641 29.2735 9.12131 29.793 9.22C29.9576 9.27663 30.1061 9.37194 30.2262 9.49793C30.3463 9.62392 30.4343 9.7769 30.483 9.944C30.4935 10.1687 30.4476 10.3925 30.3494 10.595C30.2512 10.7974 30.104 10.9721 29.921 11.103C29.9034 11.12 29.8929 11.143 29.8914 11.1674C29.8899 11.1919 29.8976 11.216 29.913 11.235C30.101 11.4831 30.2365 11.767 30.3111 12.0693C30.3858 12.3715 30.398 12.6859 30.347 12.993C30.2661 13.3517 30.1653 13.7056 30.045 14.053C29.822 14.738 29.629 15.331 29.828 15.705C30.054 16.129 30.273 16.158 30.404 16.176C30.4252 16.178 30.4462 16.1813 30.467 16.186C30.486 16.226 30.419 16.43 30.125 16.621C30.0468 16.6707 29.9802 16.7366 29.9297 16.8142C29.8791 16.8918 29.8458 16.9794 29.832 17.071C29.8153 17.1747 29.8194 17.2807 29.844 17.3828C29.8685 17.4849 29.913 17.5812 29.975 17.666C30.0164 17.7163 30.0439 17.7765 30.0548 17.8407C30.0656 17.905 30.0595 17.9709 30.037 18.032C30.027 18.046 29.999 18.087 29.887 18.052C29.7924 18.0243 29.7057 17.9746 29.634 17.907C29.624 17.8959 29.6116 17.8873 29.5977 17.8817C29.5838 17.8762 29.5689 17.8739 29.554 17.875C29.5392 17.8765 29.525 17.8815 29.5125 17.8894C29.5 17.8974 29.4896 17.9082 29.482 17.921C29.4414 17.9828 29.3782 18.0262 29.306 18.042C29.2549 18.0431 29.2043 18.0329 29.1576 18.0122C29.1109 17.9914 29.0694 17.9606 29.036 17.922C29.0201 17.9069 28.9994 17.8978 28.9774 17.8963C28.9555 17.8948 28.9338 17.9011 28.916 17.914C28.856 17.957 28.661 18.069 28.541 18.031C28.524 18.025 28.471 18.008 28.437 17.908C28.4329 17.8952 28.4261 17.8835 28.4171 17.8735C28.4082 17.8635 28.3972 17.8555 28.385 17.85C28.3728 17.8447 28.3597 17.842 28.3464 17.8422C28.3331 17.8423 28.32 17.8453 28.308 17.851C28.2186 17.8974 28.1197 17.9227 28.019 17.925C28.0166 17.906 28.019 17.8868 28.026 17.869C28.092 17.639 28.36 17.583 28.537 17.547C28.57 17.54 28.599 17.534 28.624 17.527L28.69 17.513C28.865 17.478 29.228 17.405 29.182 16.94C29.1747 16.8485 29.1734 16.7567 29.178 16.665C29.2032 16.4925 29.1761 16.3165 29.1001 16.1596C29.0242 16.0027 28.9029 15.8722 28.752 15.785C28.589 15.665 28.432 15.558 28.281 15.455C27.9536 15.248 27.6478 15.0088 27.368 14.741C27.1242 14.4691 26.8045 14.2764 26.4503 14.1876C26.096 14.0989 25.7232 14.1181 25.38 14.243C24.9755 14.3782 24.5803 14.5399 24.197 14.727C23.8453 14.9007 23.4801 15.0455 23.105 15.16C23.3818 14.6263 23.5298 14.0352 23.537 13.434C23.5346 13.4088 23.5223 13.3856 23.5028 13.3695C23.4833 13.3533 23.4582 13.3456 23.433 13.348C23.4078 13.3504 23.3846 13.3627 23.3685 13.3822C23.3523 13.4017 23.3446 13.4268 23.347 13.452C23.3344 14.1623 23.1101 14.8528 22.703 15.435C22.5881 15.5444 22.5098 15.6865 22.4787 15.842C22.4475 15.9975 22.4651 16.1588 22.529 16.304C22.5756 16.3732 22.6396 16.4291 22.7145 16.4659C22.7894 16.5028 22.8727 16.5193 22.956 16.514C22.8788 16.6399 22.7773 16.7492 22.6575 16.8355C22.5376 16.9219 22.4019 16.9836 22.258 17.017C22.2455 17.0201 22.2337 17.0257 22.2234 17.0334C22.2131 17.0411 22.2045 17.0509 22.198 17.062C22.1913 17.0733 22.187 17.0859 22.1853 17.099C22.1835 17.112 22.1845 17.1253 22.188 17.138C22.19 17.144 22.348 17.704 22.075 17.941C21.9948 17.9684 21.9095 17.9774 21.8254 17.9674C21.7413 17.9573 21.6605 17.9285 21.589 17.883C21.5715 17.8753 21.5521 17.8731 21.5334 17.8766C21.5146 17.8802 21.4974 17.8894 21.484 17.903C21.3975 17.9848 21.2849 18.0333 21.166 18.04C21.1189 18.0375 21.0729 18.0252 21.0308 18.0039C20.9888 17.9825 20.9517 17.9526 20.922 17.916C20.9055 17.8978 20.8826 17.8868 20.8581 17.8854C20.8337 17.8839 20.8096 17.892 20.791 17.908C20.779 17.918 20.51 18.146 20.311 17.918C20.2971 17.9016 20.278 17.8905 20.2569 17.8865C20.2358 17.8825 20.2139 17.8859 20.195 17.896C20.119 17.937 19.977 17.982 19.917 17.949C19.91 17.945 19.885 17.931 19.879 17.865C19.8717 17.7981 19.8797 17.7305 19.9022 17.6671C19.9247 17.6038 19.9612 17.5463 20.009 17.499C20.0572 17.455 20.1151 17.4231 20.1781 17.4059C20.241 17.3887 20.3071 17.3867 20.371 17.4C20.87 17.485 21.407 17.373 21.485 16.934C21.5037 16.5642 21.4348 16.1952 21.284 15.857C21.1799 15.6004 21.1125 15.3304 21.084 15.055C21.0821 14.7413 21.1133 14.4282 21.177 14.121C21.1828 14.0964 21.1787 14.0704 21.1656 14.0488C21.1525 14.0271 21.1315 14.0114 21.107 14.005C21.0947 14.0019 21.0819 14.0013 21.0694 14.0033C21.0569 14.0053 21.0449 14.0098 21.0341 14.0165C21.0234 14.0232 21.0141 14.032 21.0069 14.0424C20.9996 14.0528 20.9946 14.0646 20.992 14.077C20.9241 14.3995 20.8912 14.7284 20.894 15.058C20.8986 15.1632 20.9137 15.2678 20.939 15.37C20.6245 15.2747 20.3342 15.1129 20.0878 14.8955C19.8414 14.6781 19.6447 14.4102 19.511 14.11C19.4055 13.8215 19.3594 13.5147 19.3755 13.2079C19.3917 12.9011 19.4697 12.6008 19.605 12.325C19.855 11.8595 20.2043 11.4547 20.628 11.139C20.7673 11.0317 20.8965 10.9118 21.014 10.781C20.9606 11.0441 20.8618 11.2958 20.722 11.525C20.7121 11.542 20.7076 11.5616 20.7091 11.5812C20.7105 11.6009 20.7178 11.6196 20.73 11.635C20.7419 11.6501 20.7582 11.6611 20.7766 11.6667C20.795 11.6722 20.8147 11.672 20.833 11.666C20.949 11.6219 21.0619 11.5701 21.171 11.511L21.201 11.999C21.202 12.0167 21.2078 12.0338 21.2179 12.0485C21.2279 12.0631 21.2418 12.0747 21.258 12.082C21.2741 12.0893 21.292 12.0919 21.3095 12.0894C21.3271 12.087 21.3435 12.0795 21.357 12.068C21.4798 11.9602 21.5914 11.8403 21.69 11.71L21.784 12.014C21.7883 12.0285 21.796 12.0417 21.8065 12.0527C21.8169 12.0636 21.8297 12.072 21.844 12.077C21.8581 12.082 21.8732 12.0835 21.888 12.0814C21.9028 12.0793 21.9168 12.0737 21.929 12.065C22.0609 11.9631 22.1786 11.8441 22.279 11.711L22.46 12.004C22.4686 12.0189 22.4813 12.031 22.4965 12.0389C22.5117 12.0469 22.5289 12.0504 22.546 12.049C22.5628 12.0481 22.5791 12.0427 22.5932 12.0333C22.6072 12.024 22.6186 12.0111 22.626 11.996L22.836 11.567L23.015 12.059C23.0198 12.0724 23.0275 12.0845 23.0375 12.0945C23.0475 12.1045 23.0596 12.1122 23.073 12.117C23.0826 12.1203 23.0928 12.122 23.103 12.122C23.1214 12.1222 23.1395 12.117 23.155 12.107L23.621 11.808C23.8158 11.9052 24.0242 11.9726 24.239 12.008C24.2534 12.0102 24.268 12.009 24.2819 12.0047C24.2957 12.0004 24.3084 11.9929 24.319 11.983C24.3298 11.9728 24.3381 11.9603 24.3433 11.9465C24.3485 11.9326 24.3504 11.9177 24.349 11.903L24.311 11.5L24.723 11.493C24.7461 11.4924 24.7683 11.4835 24.7854 11.4679C24.8025 11.4523 24.8134 11.431 24.816 11.408C24.8188 11.385 24.8132 11.3618 24.8004 11.3426C24.7876 11.3233 24.7683 11.3093 24.746 11.303C24.655 11.2478 24.575 11.1763 24.51 11.092L24.531 11.09C24.769 11.109 28.795 11.41 29.677 10.757C30.168 10.393 30.134 10.063 30.07 9.899C29.9619 9.71267 29.7982 9.56485 29.6018 9.47626C29.4054 9.38767 29.1862 9.36275 28.975 9.405C28.784 9.429 28.579 9.467 28.365 9.505C27.7625 9.65967 27.1352 9.69197 26.52 9.6C26.3262 9.54879 26.1358 9.48533 25.95 9.41C25.67 9.302 25.467 9.224 25.312 9.319C25.243 9.36484 25.1929 9.43411 25.171 9.514C25.097 9.43492 25.0507 9.3339 25.0392 9.2262C25.0276 9.1185 25.0514 9.00997 25.107 8.917C25.1164 8.89907 25.12 8.87867 25.1173 8.85862C25.1146 8.83857 25.1058 8.81984 25.092 8.805C24.9374 8.63674 24.8288 8.43149 24.7766 8.20904C24.7244 7.9866 24.7304 7.75446 24.794 7.535C25.027 6.942 25.945 6.607 26.977 6.741C27.8767 6.96589 28.7107 7.39999 29.411 8.008C29.6256 8.20624 29.8756 8.36229 30.148 8.468C30.162 8.46978 30.1762 8.46836 30.1895 8.46386C30.2028 8.45935 30.215 8.45188 30.225 8.442C30.2353 8.43208 30.2432 8.42007 30.2484 8.40678C30.2536 8.39349 30.2558 8.37924 30.255 8.365C30.2519 8.29191 30.2753 8.22016 30.321 8.163C30.3444 8.14222 30.3722 8.12694 30.4023 8.11829C30.4324 8.10963 30.4641 8.10783 30.495 8.113C30.5341 8.11242 30.5727 8.12153 30.6074 8.1395C30.6422 8.15747 30.6719 8.18375 30.694 8.216C30.7206 8.26964 30.7355 8.32835 30.7375 8.3882C30.7396 8.44805 30.7289 8.50765 30.706 8.563ZM33.129 20.807C33.1153 20.8191 33.1052 20.8347 33.0999 20.8522C33.0946 20.8697 33.0943 20.8883 33.099 20.906L33.138 21.056L32.916 21.042C32.9004 21.0414 32.885 21.0445 32.8709 21.0511C32.8568 21.0577 32.8445 21.0676 32.835 21.08C32.7736 21.1496 32.6968 21.2039 32.6106 21.2386C32.5245 21.2734 32.4315 21.2875 32.339 21.28C31.757 21.25 31.575 19.989 31.538 19.209C31.6424 19.3517 31.7773 19.4692 31.933 19.553C32.0534 19.6035 32.1778 19.6436 32.305 19.673C32.649 19.767 33.12 19.894 33.265 20.163C33.3175 20.2701 33.3327 20.3917 33.308 20.5084C33.2834 20.6252 33.2203 20.7303 33.129 20.807ZM33.265 3.837C33.12 4.106 32.649 4.233 32.305 4.327C32.1778 4.35637 32.0534 4.39651 31.933 4.447C31.7774 4.53082 31.6424 4.64835 31.538 4.791C31.575 4.011 31.757 2.75 32.338 2.721C32.4306 2.71319 32.5238 2.72712 32.6101 2.76167C32.6963 2.79621 32.7734 2.85043 32.835 2.92C32.8444 2.93223 32.8565 2.94206 32.8704 2.94866C32.8843 2.95527 32.8996 2.95847 32.915 2.958L33.138 2.944L33.098 3.094C33.0931 3.1118 33.0933 3.13063 33.0986 3.14833C33.1039 3.16602 33.1141 3.18185 33.128 3.194C33.2191 3.27048 33.282 3.37517 33.3068 3.49146C33.3316 3.60776 33.3169 3.73001 33.265 3.837Z"
		fill="#963C3C"
	/>
	<path
		d="M30.507 7.92C30.4489 7.91258 30.3899 7.91835 30.3343 7.93688C30.2787 7.9554 30.228 7.9862 30.186 8.027C30.1305 8.08527 30.0927 8.15809 30.077 8.237C29.8849 8.11928 29.7 7.99039 29.523 7.851C28.7977 7.22208 27.9327 6.77537 27 6.548C26.6341 6.48323 26.2587 6.49465 25.8973 6.58154C25.536 6.66844 25.1965 6.82893 24.9 7.053C24.908 6.993 24.91 6.953 24.91 6.947V6.943C24.9101 6.92536 24.9052 6.90804 24.896 6.893L24.889 6.885C24.8788 6.87028 24.8646 6.85882 24.848 6.852C24.8309 6.84615 24.8115 6.84545 24.794 6.85L24.784 6.853C24.7675 6.85884 24.7529 6.86924 24.742 6.883L24.739 6.885C24.6739 6.97611 24.589 7.0512 24.4906 7.10456C24.3921 7.15793 24.2829 7.18817 24.171 7.193C24.0834 7.07149 23.9716 6.96936 23.8428 6.89296C23.7139 6.81657 23.5707 6.76756 23.422 6.749C23.3986 6.74857 23.3758 6.7568 23.3581 6.77212C23.3404 6.78744 23.329 6.80876 23.326 6.832C23.3058 6.93101 23.2638 7.02427 23.203 7.105C23.1117 6.98781 22.9935 6.89435 22.8584 6.83255C22.7234 6.77075 22.5754 6.74244 22.427 6.75C22.4119 6.75158 22.3974 6.75676 22.3847 6.76511C22.372 6.77346 22.3614 6.78474 22.354 6.798C22.3466 6.81136 22.3424 6.82626 22.3417 6.84153C22.341 6.8568 22.3438 6.87202 22.35 6.886C22.3698 6.93686 22.3739 6.99245 22.362 7.0457C22.3501 7.09894 22.3226 7.14743 22.283 7.185C22.1422 7.03909 21.9531 6.94946 21.751 6.9329C21.5489 6.91633 21.3477 6.97396 21.185 7.095C21.167 7.11083 21.1555 7.1327 21.1525 7.15647C21.1496 7.18023 21.1554 7.20426 21.169 7.224C21.215 7.292 21.207 7.329 21.195 7.354C21.095 7.561 20.369 7.695 19.826 7.734C19.8225 7.65404 19.7987 7.57628 19.757 7.508C19.7215 7.44625 19.672 7.39371 19.6125 7.35464C19.5529 7.31556 19.485 7.29104 19.4142 7.28306C19.3435 7.27508 19.2718 7.28385 19.2051 7.30869C19.1383 7.33352 19.0783 7.37371 19.03 7.426C18.962 7.52414 18.9209 7.63847 18.9111 7.75749C18.9013 7.87651 18.923 7.99602 18.974 8.104C19.1573 8.54986 19.4479 8.94352 19.82 9.25C19.7571 9.22662 19.6954 9.20025 19.635 9.171C19.483 9.096 19.229 8.971 19.042 9.07C18.9924 9.10071 18.9525 9.14477 18.9269 9.19713C18.9013 9.24949 18.8909 9.30802 18.897 9.366C18.9045 9.42837 18.9283 9.48766 18.9661 9.53788C19.0038 9.5881 19.0542 9.62746 19.112 9.652L18.901 10.236C18.8955 10.2513 18.8939 10.2677 18.8964 10.2838C18.8988 10.2998 18.9052 10.315 18.915 10.328C18.9246 10.3412 18.9375 10.3517 18.9524 10.3584C18.9673 10.3651 18.9837 10.3677 19 10.366L19.424 10.322L19.33 10.555C19.3234 10.5716 19.3216 10.5897 19.3246 10.6074C19.3276 10.625 19.3353 10.6415 19.347 10.655C19.3584 10.6687 19.3736 10.6788 19.3906 10.6841C19.4076 10.6894 19.4258 10.6897 19.443 10.685L19.903 10.561C19.9618 10.7003 20.0611 10.8188 20.188 10.901C20.1994 10.9072 20.2119 10.911 20.2249 10.912C20.2378 10.9131 20.2508 10.9113 20.263 10.907C20.2754 10.9026 20.2868 10.8958 20.2964 10.8868C20.306 10.8779 20.3137 10.867 20.319 10.855L20.392 10.69C20.4508 10.7733 20.5215 10.8474 20.602 10.91L20.507 10.989C20.063 11.3218 19.6969 11.7474 19.434 12.236C19.2413 12.638 19.1572 13.0834 19.19 13.528C18.8354 13.2294 18.5075 12.9005 18.21 12.545C18.249 12.5206 18.2858 12.4928 18.32 12.462C18.3669 12.4178 18.4045 12.3647 18.4306 12.3058C18.4567 12.2469 18.4708 12.1834 18.472 12.119C18.4703 12.0096 18.4352 11.9034 18.3714 11.8145C18.3076 11.7257 18.2181 11.6585 18.115 11.622C18.0567 11.6013 17.994 11.5958 17.933 11.606C17.927 7.386 18.4 6.094 18.496 5.876C18.5031 5.85919 18.5053 5.84074 18.5025 5.82272C18.4997 5.8047 18.4919 5.78783 18.48 5.774C18.4683 5.76005 18.4528 5.74979 18.4354 5.74447C18.4181 5.73914 18.3995 5.73898 18.382 5.744C18.32 5.764 16.855 6.229 16.823 8.694L16.843 11.635C16.7537 11.6213 16.6625 11.6282 16.5764 11.6553C16.4902 11.6823 16.4114 11.7288 16.346 11.791C16.3013 11.8403 16.2695 11.8999 16.2535 11.9644C16.2374 12.029 16.2376 12.0965 16.254 12.161C16.2879 12.288 16.3557 12.4033 16.4501 12.4947C16.5445 12.5862 16.662 12.6502 16.79 12.68C16.7815 12.715 16.7792 12.7512 16.783 12.787C16.7883 12.8418 16.8039 12.895 16.829 12.944C16.7848 12.995 16.759 13.0595 16.756 13.127C16.7559 13.1655 16.7634 13.2036 16.7782 13.2391C16.793 13.2747 16.8146 13.3069 16.842 13.334C16.8128 13.3907 16.8007 13.4546 16.807 13.518C16.8147 13.5757 16.8403 13.6295 16.88 13.672C16.8624 13.7228 16.8596 13.7776 16.872 13.83C16.8895 13.8951 16.9282 13.9525 16.982 13.993C16.9258 13.9789 16.8665 13.9835 16.8133 14.0063C16.76 14.029 16.7156 14.0686 16.687 14.119C16.6519 14.1817 16.6392 14.2545 16.651 14.3254C16.6628 14.3963 16.6984 14.4611 16.752 14.509C16.8341 14.5716 16.9361 14.6021 17.039 14.595C17.0037 14.6627 16.9593 14.7253 16.907 14.781C16.8967 14.7893 16.8882 14.7996 16.882 14.8113C16.8758 14.823 16.872 14.8358 16.871 14.849C16.8699 14.8622 16.8714 14.8754 16.8755 14.888C16.8797 14.9005 16.8863 14.9121 16.895 14.922C16.9553 14.9877 16.996 15.069 17.0126 15.1566C17.0293 15.2442 17.0211 15.3348 16.989 15.418C16.9471 15.3821 16.8969 15.357 16.843 15.345C16.8041 15.3371 16.764 15.3375 16.7252 15.3461C16.6864 15.3548 16.6499 15.3714 16.618 15.395C16.5666 15.4378 16.5302 15.4959 16.514 15.5608C16.4978 15.6257 16.5027 15.6941 16.528 15.756C16.55 15.8201 16.5869 15.8782 16.6355 15.9254C16.6842 15.9727 16.7433 16.0078 16.808 16.028L16.674 16.144C16.6608 16.1558 16.651 16.171 16.6457 16.1879C16.6405 16.2048 16.6399 16.2228 16.644 16.24C16.6479 16.2573 16.6565 16.2732 16.6688 16.2859C16.6812 16.2986 16.6968 16.3076 16.714 16.312L17.094 16.407C17.1376 16.5412 17.2088 16.6649 17.303 16.77C17.3244 16.7886 17.3517 16.7989 17.38 16.799C17.3925 16.7989 17.4049 16.7963 17.4164 16.7913C17.4279 16.7863 17.4383 16.7791 17.447 16.77C17.5408 16.6648 17.6117 16.5412 17.655 16.407L18.037 16.312C18.0542 16.3076 18.0698 16.2986 18.0822 16.2859C18.0945 16.2732 18.1031 16.2573 18.107 16.24C18.111 16.2227 18.1103 16.2046 18.1048 16.1877C18.0993 16.1708 18.0894 16.1557 18.076 16.144L17.942 16.028C18.0067 16.0078 18.0658 15.9726 18.1144 15.9253C18.163 15.8781 18.1999 15.8201 18.222 15.756C18.247 15.6942 18.2518 15.626 18.2356 15.5613C18.2195 15.4966 18.1832 15.4388 18.132 15.396C18.1001 15.3723 18.0636 15.3555 18.0249 15.3467C17.9861 15.3379 17.946 15.3373 17.907 15.345C17.8531 15.357 17.8029 15.3821 17.761 15.418C17.7296 15.3347 17.7218 15.2443 17.7384 15.1568C17.755 15.0693 17.7953 14.9881 17.855 14.922C17.8637 14.9121 17.8704 14.9005 17.8745 14.8879C17.8786 14.8754 17.8802 14.8621 17.8791 14.8489C17.878 14.8358 17.8742 14.823 17.868 14.8113C17.8618 14.7996 17.8533 14.7893 17.843 14.781C17.7907 14.7254 17.7462 14.6628 17.711 14.595C17.8137 14.6004 17.9151 14.57 17.998 14.509C18.0163 14.4927 18.0322 14.4739 18.045 14.453C18.0395 14.5685 18.0624 14.6836 18.1118 14.7883C18.1611 14.8929 18.2353 14.9838 18.328 15.053C18.3387 15.0595 18.3505 15.0638 18.3629 15.0656C18.3752 15.0675 18.3878 15.0668 18.3999 15.0638C18.412 15.0607 18.4234 15.0552 18.4334 15.0477C18.4433 15.0402 18.4517 15.0308 18.458 15.02C18.4671 15.0032 18.4793 14.9882 18.494 14.976C18.527 14.977 18.621 15.078 18.69 15.151C18.8217 15.301 18.9703 15.4353 19.133 15.551C19.248 15.6346 19.3858 15.681 19.528 15.684C19.6723 15.6679 19.811 15.6194 19.934 15.5421C20.0569 15.4649 20.1608 15.361 20.238 15.238C20.4668 15.3828 20.7118 15.5002 20.968 15.588C20.9773 15.5912 20.9871 15.5929 20.997 15.593C21.029 15.702 21.065 15.811 21.103 15.92C21.2404 16.2279 21.3064 16.563 21.296 16.9C21.234 17.253 20.684 17.257 20.401 17.209C20.3082 17.1906 20.2123 17.1944 20.1212 17.2201C20.0302 17.2459 19.9465 17.2928 19.877 17.357C19.8078 17.4249 19.7549 17.5076 19.7221 17.5989C19.6894 17.6901 19.6777 17.7876 19.688 17.884C19.689 17.9317 19.7022 17.9784 19.7264 18.0195C19.7505 18.0606 19.7848 18.0949 19.826 18.119C19.8892 18.143 19.9567 18.1535 20.0242 18.1498C20.0917 18.1462 20.1577 18.1286 20.218 18.098C20.3058 18.1699 20.4153 18.2101 20.5288 18.2119C20.6422 18.2137 20.753 18.1771 20.843 18.108C20.9305 18.186 21.0428 18.2306 21.16 18.234H21.171C21.3151 18.2278 21.4533 18.1752 21.565 18.084C21.6591 18.1351 21.7641 18.1632 21.8712 18.1658C21.9783 18.1684 22.0845 18.1455 22.181 18.099C22.2902 17.9755 22.3667 17.8265 22.4033 17.6658C22.44 17.505 22.4358 17.3377 22.391 17.179C22.5753 17.1215 22.7446 17.0238 22.8867 16.8931C23.0289 16.7624 23.1403 16.6019 23.213 16.423C23.219 16.4062 23.2203 16.3882 23.2167 16.3707C23.2132 16.3533 23.205 16.3371 23.193 16.324C23.1814 16.3112 23.1665 16.3019 23.1499 16.2969C23.1333 16.292 23.1157 16.2917 23.099 16.296C22.909 16.348 22.759 16.313 22.689 16.199C22.592 16.046 22.655 15.794 22.848 15.559C22.8897 15.5077 22.9288 15.4543 22.965 15.399C23.4183 15.2816 23.8576 15.1153 24.275 14.903C24.6512 14.7196 25.0391 14.5609 25.436 14.428C25.5531 14.3913 25.6732 14.3652 25.795 14.35C25.793 14.5729 25.8352 14.794 25.9191 15.0004C26.003 15.2069 26.1271 15.3947 26.284 15.553C26.355 15.644 26.427 15.736 26.492 15.832C26.686 16.253 26.7561 16.7206 26.694 17.18C26.6403 17.2519 26.5685 17.3082 26.486 17.3434C26.4034 17.3785 26.313 17.3911 26.224 17.38C26.112 17.3662 25.9984 17.3757 25.8903 17.4081C25.7822 17.4404 25.682 17.4949 25.596 17.568C25.5416 17.6136 25.4976 17.6703 25.4669 17.7343C25.4362 17.7982 25.4195 17.868 25.418 17.939C25.415 17.9787 25.4228 18.0184 25.4406 18.0539C25.4584 18.0895 25.4855 18.1196 25.519 18.141C25.657 18.225 25.885 18.136 26.007 18.076C26.1028 18.1549 26.2229 18.1983 26.347 18.199C26.4687 18.1968 26.5872 18.1593 26.688 18.091C26.7905 18.1529 26.9093 18.1827 27.0289 18.1764C27.1485 18.1702 27.2635 18.1282 27.359 18.056C27.4229 18.0962 27.4952 18.1211 27.5703 18.1287C27.6455 18.1363 27.7213 18.1265 27.792 18.1C27.8227 18.0877 27.8519 18.0719 27.879 18.053L27.89 18.066C27.991 18.156 28.179 18.108 28.298 18.064C28.3384 18.1355 28.404 18.1893 28.482 18.215C28.5648 18.2307 28.6499 18.2298 28.7323 18.2123C28.8147 18.1948 28.8928 18.161 28.962 18.113C29.0119 18.1577 29.0706 18.1915 29.1343 18.2122C29.198 18.2328 29.2654 18.2399 29.332 18.233C29.4241 18.218 29.5089 18.1739 29.574 18.107C29.6519 18.1634 29.7383 18.207 29.83 18.236C29.8732 18.2507 29.9184 18.2584 29.964 18.259C30.0089 18.2603 30.0534 18.2502 30.0935 18.2298C30.1335 18.2093 30.1677 18.1791 30.193 18.142C30.2392 18.0461 30.2571 17.939 30.2447 17.8333C30.2323 17.7276 30.1901 17.6276 30.123 17.545C30.0316 17.4171 29.9942 17.2583 30.019 17.103C30.0286 17.038 30.0521 16.9758 30.0878 16.9206C30.1235 16.8654 30.1706 16.8184 30.226 16.783C30.3364 16.7252 30.4324 16.6435 30.5072 16.5439C30.5819 16.4442 30.6335 16.3291 30.658 16.207C30.6605 16.1733 30.6545 16.1395 30.6406 16.1087C30.6266 16.078 30.6051 16.0512 30.578 16.031C30.5328 16.0029 30.4812 15.9868 30.428 15.984C30.315 15.969 30.174 15.95 29.995 15.612C29.835 15.312 30.025 14.73 30.225 14.113C30.3476 13.759 30.4505 13.3984 30.533 13.033C30.5901 12.7122 30.5823 12.3832 30.5102 12.0655C30.438 11.7478 30.303 11.4477 30.113 11.183C30.3044 11.033 30.4554 10.8377 30.5525 10.6148C30.6495 10.3919 30.6896 10.1483 30.669 9.906C30.6142 9.70706 30.5121 9.52432 30.3714 9.37335C30.2307 9.22239 30.0556 9.10768 29.861 9.039C29.3127 8.92563 28.7468 8.92699 28.199 9.043C27.7941 9.11724 27.381 9.13608 26.971 9.099C26.9264 9.09274 26.8836 9.07723 26.8454 9.05346C26.8072 9.0297 26.7743 8.9982 26.749 8.961C26.7052 8.87455 26.6931 8.77543 26.715 8.681C26.7189 8.66625 26.7193 8.6508 26.7162 8.63587C26.7131 8.62094 26.7065 8.60695 26.697 8.595C26.6879 8.58317 26.676 8.57372 26.6624 8.56745C26.6488 8.56119 26.6339 8.55829 26.619 8.559C26.461 8.5722 26.313 8.64177 26.202 8.755C26.1969 8.72863 26.1962 8.70159 26.2 8.675C26.2386 8.53557 26.3219 8.41263 26.437 8.325C26.4494 8.3154 26.4593 8.30296 26.466 8.28872C26.4726 8.27448 26.4757 8.25887 26.475 8.24319C26.4743 8.22751 26.4698 8.21222 26.462 8.19861C26.4542 8.18501 26.4432 8.17348 26.43 8.165C26.285 8.07519 26.1141 8.03663 25.9445 8.05548C25.775 8.07434 25.6167 8.14952 25.495 8.269C25.4546 8.22695 25.423 8.17724 25.402 8.12281C25.3811 8.06837 25.3712 8.0103 25.373 7.952C25.3731 7.88874 25.3904 7.82668 25.423 7.77245C25.4555 7.71822 25.5022 7.67383 25.558 7.644C25.585 7.62616 25.6156 7.61457 25.6476 7.61007C25.6796 7.60557 25.7122 7.60828 25.743 7.618C25.8204 7.65864 25.8801 7.72624 25.911 7.808C25.9158 7.82107 25.9234 7.83293 25.9332 7.84277C25.9431 7.85261 25.9549 7.8602 25.968 7.865C25.9811 7.86981 25.9951 7.87159 26.0089 7.8702C26.0228 7.86882 26.0361 7.8643 26.048 7.857C26.1335 7.79411 26.2046 7.71366 26.2566 7.62104C26.3085 7.52843 26.34 7.42579 26.349 7.32C26.4629 7.33454 26.5666 7.39303 26.638 7.483C26.7568 7.69285 26.7973 7.93811 26.752 8.175C26.7489 8.19123 26.7499 8.20799 26.7549 8.22373C26.76 8.23947 26.769 8.25366 26.781 8.265C26.7927 8.27596 26.8071 8.28374 26.8226 8.28759C26.8382 8.29144 26.8545 8.29123 26.87 8.287C27.0343 8.2438 27.1803 8.14894 27.2865 8.01642C27.3928 7.88389 27.4536 7.72073 27.46 7.551C27.5614 7.62726 27.6423 7.72745 27.6955 7.84262C27.7488 7.95779 27.7726 8.08436 27.765 8.211C27.7639 8.2274 27.767 8.2438 27.774 8.25867C27.781 8.27353 27.7917 8.28638 27.805 8.296C27.8179 8.30527 27.8328 8.31115 27.8486 8.31307C27.8643 8.31499 27.8803 8.3129 27.895 8.307C28.023 8.25748 28.1279 8.16189 28.189 8.039C28.3778 8.28667 28.633 8.47566 28.925 8.584C28.9425 8.58966 28.9613 8.59012 28.979 8.58533C28.9968 8.58054 29.0127 8.57069 29.025 8.557C29.0371 8.54327 29.045 8.52645 29.048 8.50842C29.0511 8.4904 29.049 8.4719 29.042 8.455L28.949 8.225C29.025 8.28 29.098 8.337 29.173 8.395C29.3876 8.57481 29.6225 8.72886 29.873 8.854C29.98 8.91556 30.0989 8.95332 30.2218 8.96471C30.3447 8.9761 30.4686 8.96085 30.585 8.92C30.6516 8.89436 30.7123 8.85555 30.7635 8.80589C30.8147 8.75623 30.8553 8.69675 30.883 8.631C30.9169 8.54753 30.9318 8.45756 30.9266 8.36762C30.9214 8.27768 30.8963 8.19002 30.853 8.111C30.8154 8.05289 30.7641 8.00496 30.7036 7.97147C30.6431 7.93797 30.5752 7.91995 30.506 7.919L30.507 7.92ZM25.177 9.776C25.1905 9.78482 25.2061 9.79 25.2222 9.79105C25.2383 9.7921 25.2544 9.78899 25.269 9.782C25.2835 9.77498 25.2961 9.76444 25.3055 9.75134C25.3149 9.73825 25.3209 9.72301 25.323 9.707C25.339 9.585 25.368 9.51 25.41 9.485C25.486 9.438 25.67 9.509 25.882 9.591C26.075 9.6691 26.2727 9.7349 26.474 9.788C27.1153 9.88823 27.7702 9.85693 28.399 9.696C28.609 9.658 28.811 9.621 28.999 9.596C29.1684 9.56042 29.3445 9.57713 29.5042 9.64391C29.6638 9.7107 29.7994 9.82442 29.893 9.97C29.968 10.164 29.852 10.388 29.565 10.6C28.77 11.189 24.961 10.927 24.573 10.9C24.4762 10.7733 24.4217 10.6194 24.417 10.46C24.48 10.48 24.522 10.49 24.527 10.49L24.547 10.493C24.5607 10.493 24.5742 10.4901 24.5866 10.4844C24.599 10.4787 24.6101 10.4704 24.619 10.46C24.6301 10.4468 24.6376 10.4308 24.6406 10.4138C24.6436 10.3968 24.642 10.3792 24.636 10.363C24.5792 10.1589 24.5437 9.94943 24.53 9.738C24.5425 9.74181 24.5556 9.74289 24.5686 9.74116C24.5815 9.73944 24.5939 9.73495 24.605 9.728C24.617 9.72029 24.6272 9.71002 24.6348 9.69792C24.6424 9.68582 24.6473 9.67219 24.649 9.658C24.7567 9.09531 24.6918 8.51321 24.463 7.988C24.4875 7.96838 24.5109 7.94734 24.533 7.925C24.5521 8.27766 24.6839 8.61487 24.909 8.887C24.8396 9.04278 24.8286 9.21835 24.878 9.38159C24.9274 9.54483 25.0329 9.68483 25.177 9.776ZM19.088 9.349C19.0855 9.32907 19.088 9.30884 19.0954 9.29014C19.1027 9.27145 19.1146 9.2549 19.13 9.242C19.233 9.188 19.449 9.295 19.574 9.356C19.9903 9.53765 20.4388 9.63421 20.893 9.64C20.976 9.744 21.056 9.844 21.121 9.923C20.9713 9.92499 20.8219 9.93769 20.674 9.961L20.696 9.932C20.707 9.91808 20.7141 9.90141 20.7163 9.8838C20.7186 9.86619 20.7161 9.84828 20.709 9.832C20.702 9.81597 20.6908 9.80216 20.6765 9.79211C20.6622 9.78205 20.6454 9.77613 20.628 9.775C20.1646 9.73412 19.707 9.6436 19.263 9.505C19.156 9.472 19.094 9.417 19.088 9.349ZM20.155 9.29L20.147 9.273C20.1964 9.31415 20.2493 9.35095 20.305 9.383C20.2575 9.37401 20.2101 9.36401 20.163 9.353C20.1674 9.33169 20.1646 9.30953 20.155 9.29ZM20.473 9.411C20.4834 9.40381 20.4923 9.39464 20.4992 9.384C20.5061 9.37336 20.5108 9.36146 20.513 9.349L20.54 9.167C20.597 9.252 20.666 9.345 20.738 9.439C20.6494 9.43273 20.561 9.42339 20.473 9.411ZM20.472 10.439C20.4651 10.4218 20.4532 10.407 20.4379 10.3965C20.4224 10.3858 20.4038 10.3793 20.385 10.379C20.3662 10.3785 20.3476 10.3838 20.3319 10.3941C20.3161 10.4045 20.305 10.4195 20.298 10.437L20.197 10.661C20.1316 10.5879 20.0807 10.5031 20.047 10.411C20.0388 10.389 20.0227 10.3708 20.0018 10.36C19.9809 10.3493 19.9567 10.3468 19.934 10.353L19.58 10.449L19.661 10.247C19.6671 10.2316 19.6692 10.2149 19.6671 10.1985C19.665 10.182 19.6588 10.1664 19.649 10.153C19.6395 10.1396 19.6267 10.1289 19.6118 10.122C19.5968 10.1152 19.5803 10.1124 19.564 10.114L19.133 10.158L19.293 9.716C19.6665 9.82761 20.0489 9.9079 20.436 9.954L20.366 10.043C20.3535 10.0587 20.3461 10.0779 20.3449 10.0979C20.3436 10.1179 20.3486 10.1379 20.359 10.155C20.3693 10.172 20.3847 10.1854 20.403 10.1931C20.4213 10.2008 20.4416 10.2025 20.461 10.198C20.744 10.1323 21.0352 10.1091 21.325 10.129C21.3443 10.1315 21.364 10.1281 21.3813 10.1191C21.3986 10.1102 21.4128 10.0962 21.422 10.079C21.4311 10.0617 21.4348 10.0421 21.4327 10.0227C21.4305 10.003 21.4228 9.98399 21.41 9.969C21.1008 9.62041 20.8215 9.24543 20.575 8.85C20.5668 8.83113 20.5527 8.81542 20.5348 8.80524C20.517 8.7946 20.4967 8.78975 20.476 8.79213C20.4553 8.79452 20.436 8.80363 20.421 8.81805C20.406 8.83248 20.3962 8.85144 20.393 8.872L20.345 9.182C20.2469 9.11571 20.1621 9.03158 20.095 8.934C20.0839 8.91753 20.0685 8.90538 20.0498 8.89872C20.0309 8.89188 20.0103 8.89128 19.991 8.897C19.9717 8.90262 19.9547 8.91413 19.9424 8.92992C19.9298 8.94571 19.9219 8.96483 19.921 8.985C19.921 8.995 19.92 9.032 19.922 9.083C19.5871 8.80385 19.3244 8.44815 19.156 8.046C19.085 7.817 19.09 7.648 19.172 7.556C19.205 7.52366 19.2454 7.49991 19.2896 7.48683C19.3339 7.47375 19.3808 7.47275 19.426 7.482C19.4614 7.49097 19.4947 7.50691 19.5239 7.52889C19.5531 7.55087 19.5776 7.57844 19.596 7.61C19.6149 7.64004 19.6276 7.67358 19.6333 7.70864C19.639 7.74369 19.6375 7.77952 19.629 7.814C19.6251 7.82875 19.6247 7.8442 19.6278 7.85913C19.6309 7.87406 19.6375 7.88806 19.647 7.9C19.6564 7.91179 19.6684 7.92114 19.6822 7.92723C19.6959 7.93333 19.711 7.93599 19.726 7.935C19.966 7.923 21.172 7.842 21.366 7.44C21.3842 7.40282 21.3943 7.36216 21.3955 7.32076C21.3965 7.27919 21.3883 7.23727 21.372 7.199C21.5 7.125 21.815 7.015 22.224 7.386C22.2402 7.40085 22.261 7.40958 22.2829 7.41068C22.3048 7.41177 22.3264 7.40516 22.344 7.392C22.4134 7.34079 22.4695 7.27361 22.5074 7.19615C22.5453 7.11869 22.5641 7.03323 22.562 6.947C22.6771 6.96161 22.7872 7.0026 22.8838 7.06678C22.9804 7.13096 23.0609 7.21659 23.119 7.317C23.1264 7.32962 23.1367 7.34033 23.1491 7.34826C23.1614 7.35619 23.1754 7.36113 23.19 7.36269C23.2046 7.36424 23.2193 7.36237 23.233 7.35721C23.2467 7.35206 23.2591 7.34377 23.269 7.333C23.3686 7.22339 23.4451 7.09483 23.494 6.955C23.7199 7.01902 23.9172 7.1584 24.053 7.35C24.061 7.36048 24.0711 7.36918 24.0826 7.37555C24.094 7.38174 24.1061 7.38481 24.119 7.386C24.2161 7.38858 24.3131 7.37541 24.406 7.347C24.0286 7.60902 23.5917 7.77264 23.135 7.823C23.1177 7.82477 23.1013 7.83119 23.0873 7.84158C23.0734 7.85197 23.0626 7.86594 23.056 7.882C23.0492 7.89824 23.047 7.916 23.0494 7.93342C23.0519 7.95084 23.059 7.96727 23.07 7.981L23.205 8.148C22.9323 8.17395 22.6589 8.108 22.429 7.959C22.4123 7.94407 22.3909 7.93556 22.3686 7.93501C22.3462 7.93446 22.3244 7.9419 22.307 7.956C22.2895 7.97042 22.2776 7.99046 22.2732 8.01271C22.2688 8.03495 22.2723 8.05803 22.283 8.078L22.401 8.299C22.2022 8.24813 22.0112 8.17177 21.833 8.07C21.628 7.965 21.466 7.88 21.324 7.923C21.2696 7.94172 21.2225 7.97598 21.1867 8.02098C21.1509 8.06597 21.128 8.11983 21.122 8.177C21.1111 8.24116 21.1186 8.3071 21.1438 8.36712C21.1689 8.42715 21.2116 8.47879 21.265 8.516C21.3181 8.55202 21.3808 8.57119 21.445 8.571C21.4916 8.57066 21.5367 8.56111 21.5796 8.54292C21.6225 8.52473 21.6614 8.49825 21.694 8.465C21.7483 8.41177 21.7838 8.34224 21.795 8.267C22.0314 8.40547 22.2962 8.49047 22.569 8.516C22.586 8.51731 22.603 8.51377 22.618 8.50581C22.6331 8.49766 22.6447 8.48496 22.653 8.47C22.6619 8.45548 22.6668 8.43891 22.6674 8.4219C22.6679 8.40489 22.665 8.38804 22.657 8.373L22.594 8.256C22.8564 8.33941 23.1338 8.36466 23.407 8.33C23.4244 8.32825 23.441 8.32172 23.455 8.31113C23.4689 8.30054 23.4796 8.28631 23.486 8.27C23.4924 8.25381 23.4944 8.23619 23.4918 8.21896C23.4892 8.20174 23.482 8.18553 23.471 8.172L23.325 7.992C23.8039 7.92579 24.2542 7.72462 24.623 7.412C24.5672 7.60074 24.4478 7.76534 24.285 7.876C24.2731 7.88312 24.2628 7.89169 24.2549 7.90306C24.247 7.91444 24.2416 7.92737 24.239 7.941C24.2365 7.95499 24.2369 7.96936 24.2404 7.98316C24.2438 7.99695 24.2502 8.00985 24.259 8.021C24.4973 8.47539 24.5732 8.99858 24.474 9.502C24.1705 9.34653 23.9235 9.09955 23.768 8.796C23.7583 8.77577 23.7417 8.75966 23.7211 8.7505C23.7006 8.74135 23.6776 8.73976 23.656 8.746C23.6345 8.75261 23.6159 8.7665 23.6035 8.78529C23.5911 8.80408 23.5856 8.82661 23.588 8.849C23.6041 9.00412 23.6081 9.16026 23.6 9.316C23.4731 9.23161 23.3682 9.11812 23.294 8.985C23.2863 8.96639 23.2728 8.95077 23.2555 8.94049C23.2382 8.93021 23.218 8.92583 23.198 8.928C23.1779 8.93006 23.1589 8.93842 23.1438 8.95189C23.1288 8.96516 23.1185 8.98243 23.114 9.002C23.0904 9.10629 23.0631 9.2107 23.032 9.313C22.9229 9.25013 22.8296 9.16328 22.759 9.059C22.7494 9.04066 22.734 9.02601 22.7152 9.01733C22.6963 9.00865 22.6752 9.00642 22.655 9.011C22.6347 9.01576 22.6164 9.02703 22.6031 9.04309C22.5897 9.05916 22.582 9.07913 22.581 9.1C22.574 9.211 22.56 9.384 22.541 9.504C22.4349 9.43943 22.3345 9.36582 22.241 9.284C22.229 9.27244 22.2142 9.2643 22.198 9.26043C22.1818 9.25656 22.1649 9.2571 22.149 9.262C22.1331 9.26689 22.1188 9.27582 22.1074 9.28792C22.096 9.29983 22.0881 9.31404 22.084 9.33L22.035 9.519C21.9338 9.46232 21.8428 9.38895 21.766 9.302C21.7582 9.29214 21.7485 9.28393 21.7375 9.27787C21.7265 9.27181 21.7144 9.26802 21.702 9.26671C21.6895 9.26541 21.6768 9.26662 21.6648 9.27028C21.6528 9.27393 21.6416 9.27996 21.632 9.288C21.6126 9.30452 21.6003 9.32797 21.5979 9.35336C21.5955 9.37876 21.603 9.4041 21.619 9.424C21.7422 9.56012 21.891 9.67056 22.057 9.749C22.0695 9.75482 22.0832 9.75783 22.097 9.75783C22.1108 9.75783 22.1245 9.75482 22.137 9.749C22.1497 9.74291 22.1616 9.73452 22.1706 9.72364C22.1794 9.71259 22.1857 9.69974 22.189 9.686L22.231 9.525C22.3358 9.60281 22.4453 9.67395 22.559 9.738C22.5708 9.74465 22.5838 9.74869 22.5973 9.74985C22.6107 9.751 22.6243 9.74924 22.637 9.74468C22.6497 9.74013 22.6613 9.73289 22.671 9.72345C22.6806 9.71401 22.6881 9.7026 22.693 9.69C22.7254 9.57716 22.7455 9.46116 22.753 9.344C22.8403 9.41929 22.9359 9.48437 23.038 9.538C23.0594 9.54897 23.0841 9.55135 23.1072 9.54466C23.1302 9.53796 23.1498 9.5227 23.162 9.502C23.1986 9.42309 23.2271 9.34067 23.247 9.256C23.3559 9.37493 23.4815 9.47734 23.62 9.56C23.632 9.56697 23.6453 9.57121 23.6591 9.57243C23.6729 9.57364 23.6868 9.57179 23.6998 9.56701C23.7128 9.56224 23.7245 9.55465 23.7343 9.54479C23.744 9.53494 23.7514 9.52306 23.756 9.51C23.7853 9.40699 23.7985 9.30005 23.795 9.193C23.9444 9.37644 24.1273 9.52983 24.334 9.645L24.333 9.651C24.3459 9.85238 24.3713 10.0538 24.409 10.252C24.1662 10.1601 23.9442 10.0197 23.756 9.841C23.7448 9.83018 23.7312 9.82279 23.7162 9.8186C23.7012 9.81423 23.6853 9.81368 23.67 9.817C23.6548 9.82043 23.6407 9.8275 23.6288 9.8376C23.617 9.84771 23.6078 9.86054 23.602 9.875L23.529 10.059L23.223 9.833C23.2097 9.82336 23.1941 9.81737 23.1778 9.81561C23.1615 9.81386 23.145 9.8164 23.13 9.823C23.1148 9.82972 23.1015 9.84023 23.0916 9.85354C23.0816 9.86685 23.0752 9.88251 23.073 9.899L23.045 10.115C22.9714 10.0624 22.9034 10.0024 22.842 9.936C22.8338 9.92657 22.8238 9.91887 22.8126 9.91335C22.8014 9.90783 22.7892 9.90461 22.7767 9.90386C22.7642 9.90312 22.7517 9.90487 22.7399 9.90901C22.7281 9.91316 22.7173 9.91961 22.708 9.928C22.689 9.94524 22.6775 9.96925 22.676 9.99487C22.6745 10.0205 22.6831 10.0457 22.7 10.065C22.8103 10.1801 22.9346 10.2809 23.07 10.365C23.0833 10.3734 23.0986 10.3783 23.1144 10.3791C23.1301 10.38 23.1458 10.3769 23.16 10.37C23.1746 10.3631 23.1872 10.3525 23.1966 10.3394C23.2061 10.3263 23.212 10.311 23.214 10.295L23.241 10.085L23.516 10.289C23.5277 10.2974 23.5412 10.303 23.5554 10.3055C23.5696 10.3079 23.5842 10.307 23.598 10.303C23.6119 10.2989 23.6247 10.2918 23.6354 10.2821C23.6461 10.2724 23.6546 10.2604 23.66 10.247L23.728 10.074C23.8778 10.1989 24.044 10.3025 24.222 10.382C24.2232 10.5613 24.2627 10.7383 24.338 10.901C24.0955 10.8973 23.8567 10.841 23.638 10.736C23.6171 10.7254 23.593 10.7241 23.5704 10.7304C23.5478 10.7367 23.5284 10.7511 23.516 10.771L23.378 10.986L22.808 10.597C22.7961 10.5889 22.7825 10.5837 22.7683 10.5818C22.7541 10.5799 22.7396 10.5813 22.726 10.586C22.7121 10.5906 22.6995 10.5983 22.6891 10.6085C22.6787 10.6185 22.67 10.6304 22.665 10.644L22.578 10.887C22.4802 10.771 22.3767 10.6599 22.268 10.554C22.2492 10.5385 22.2252 10.5309 22.201 10.5328C22.1767 10.5347 22.1542 10.5458 22.138 10.564C22.0483 10.6593 21.9498 10.746 21.844 10.823L21.734 10.524C21.7299 10.5121 21.7234 10.5012 21.715 10.4919C21.7066 10.4825 21.6965 10.4749 21.6851 10.4695C21.6738 10.4641 21.6615 10.4611 21.6489 10.4604C21.6364 10.4598 21.6238 10.4617 21.612 10.466C21.588 10.4752 21.5687 10.4935 21.5582 10.5169C21.5477 10.5404 21.5469 10.567 21.556 10.591L21.706 11.002C21.7108 11.0151 21.7184 11.0269 21.7282 11.0368C21.7381 11.0466 21.7499 11.0542 21.763 11.059C21.7758 11.0638 21.7895 11.0658 21.8032 11.0647C21.8168 11.0637 21.8301 11.0597 21.842 11.053C21.976 10.9725 22.0996 10.8757 22.21 10.765C22.298 10.858 22.446 11.027 22.54 11.137C22.5507 11.15 22.5647 11.1598 22.5806 11.1654C22.5964 11.1709 22.6136 11.1714 22.63 11.168C22.6462 11.1647 22.6613 11.1573 22.6737 11.1464C22.6862 11.1356 22.6956 11.1216 22.701 11.106L22.802 10.827L23.352 11.202C23.3675 11.2129 23.386 11.2188 23.405 11.219L23.425 11.216C23.4373 11.2134 23.4489 11.2092 23.4592 11.202C23.4695 11.1948 23.4783 11.1847 23.485 11.174L23.63 10.946C23.8405 11.0353 24.0655 11.0851 24.294 11.093C24.2924 11.1167 24.2995 11.1402 24.314 11.159C24.338 11.187 24.385 11.244 24.442 11.303L24.204 11.307C24.1909 11.3072 24.178 11.3102 24.1661 11.3157C24.1542 11.3212 24.1436 11.3292 24.135 11.339C24.1262 11.349 24.1195 11.3608 24.1153 11.3735C24.1112 11.3862 24.1097 11.4007 24.111 11.414L24.147 11.793C23.9796 11.7593 23.8188 11.6985 23.671 11.613C23.6557 11.6029 23.6378 11.5974 23.6195 11.5974C23.6012 11.5974 23.5833 11.6029 23.568 11.613L23.152 11.879L22.939 11.289C22.9326 11.2716 22.9214 11.2569 22.9065 11.2458C22.8916 11.2346 22.8736 11.2281 22.855 11.227C22.8363 11.2254 22.8177 11.2296 22.8015 11.2391C22.7854 11.2486 22.7726 11.2629 22.765 11.28L22.531 11.755L22.368 11.49C22.3597 11.4766 22.3483 11.4655 22.3347 11.4577C22.3211 11.4498 22.3057 11.4455 22.29 11.445C22.2745 11.4449 22.2591 11.4485 22.2452 11.4555C22.2313 11.4624 22.2193 11.4725 22.21 11.485C22.1247 11.6051 22.0286 11.7172 21.923 11.82L21.815 11.472C21.8101 11.4545 21.8003 11.4387 21.7866 11.4267C21.773 11.4147 21.7561 11.4069 21.7381 11.4042C21.7201 11.4016 21.7018 11.4042 21.6852 11.4118C21.6686 11.4193 21.6548 11.4306 21.645 11.446C21.5638 11.5637 21.4746 11.6766 21.378 11.782L21.351 11.35C21.35 11.3341 21.3452 11.3186 21.3368 11.305C21.3284 11.2912 21.3169 11.2791 21.303 11.271C21.289 11.263 21.2733 11.2593 21.2571 11.2593C21.241 11.2592 21.2251 11.2632 21.211 11.271C21.171 11.293 21.095 11.333 21.016 11.373C21.1513 11.1513 21.2096 10.8912 21.182 10.633C21.1606 10.5849 21.1211 10.5472 21.072 10.528L21.064 10.521L21.05 10.516L21.041 10.511L21.031 10.51H21.025C20.9796 10.4979 20.9321 10.4958 20.8858 10.5039C20.8395 10.5119 20.7956 10.5292 20.757 10.556C20.7097 10.5927 20.6725 10.6409 20.649 10.696C20.5734 10.623 20.5132 10.5356 20.472 10.439ZM21.56 8.327C21.5368 8.3535 21.505 8.37087 21.4702 8.376C21.4353 8.38113 21.3998 8.37369 21.37 8.355C21.347 8.33832 21.3292 8.3155 21.3185 8.28914C21.3079 8.26278 21.305 8.23397 21.31 8.206C21.3118 8.18514 21.3191 8.16513 21.3312 8.14807C21.3434 8.13101 21.3599 8.11752 21.379 8.109C21.3877 8.1063 21.3968 8.10495 21.406 8.105C21.471 8.1129 21.5338 8.13327 21.591 8.165C21.6049 8.19145 21.6095 8.22181 21.6041 8.2512C21.5987 8.2806 21.5835 8.3073 21.561 8.327H21.56ZM18.243 6.017C17.8092 7.89218 17.6412 9.81904 17.744 11.741C17.7118 11.7901 17.6915 11.846 17.6845 11.9043C17.6776 11.9626 17.6843 12.0217 17.704 12.077C17.4855 12.1291 17.257 12.1222 17.042 12.057C17.0813 11.9596 17.082 11.8509 17.044 11.753L17.036 11.74L17.014 8.695C17.038 6.888 17.858 6.227 18.243 6.017ZM16.442 12.122C16.4322 12.0879 16.4311 12.052 16.4388 12.0174C16.4465 11.9828 16.4627 11.9507 16.486 11.924C16.5241 11.8895 16.5686 11.863 16.617 11.8458C16.6654 11.8286 16.7167 11.8212 16.768 11.824C16.7931 11.8239 16.8181 11.8256 16.843 11.829C16.87 11.832 16.874 11.841 16.876 11.844C16.8865 11.9206 16.8717 11.9985 16.834 12.066C16.8227 12.0889 16.8208 12.1152 16.8286 12.1395C16.8365 12.1638 16.8535 12.1841 16.876 12.196C17.18 12.3264 17.5212 12.3406 17.835 12.236C17.8529 12.229 17.869 12.2179 17.882 12.2037C17.895 12.1895 17.9046 12.1725 17.91 12.154C17.9166 12.1162 17.9109 12.0774 17.894 12.043C17.8747 12.0086 17.867 11.9692 17.8705 11.9299C17.8741 11.8907 17.8888 11.8533 17.914 11.823C17.951 11.775 18.031 11.797 18.055 11.806C18.1202 11.8293 18.1767 11.871 18.2174 11.927C18.2582 11.9832 18.2811 12.0505 18.283 12.12C18.2816 12.1589 18.2723 12.197 18.2558 12.2323C18.2393 12.2675 18.2159 12.299 18.187 12.325C17.9489 12.5064 17.6525 12.5943 17.354 12.572C16.839 12.567 16.498 12.399 16.442 12.122ZM17.883 14.356C17.7823 14.4071 17.6654 14.4161 17.558 14.381C17.5405 14.3773 17.5224 14.3788 17.5057 14.3852C17.489 14.3916 17.4746 14.4026 17.464 14.417C17.4531 14.4314 17.4464 14.4486 17.4446 14.4666C17.4428 14.4846 17.4461 14.5027 17.454 14.519C17.5124 14.6395 17.5813 14.7546 17.66 14.863C17.575 14.9751 17.5307 15.1128 17.5343 15.2535C17.538 15.3942 17.5893 15.5294 17.68 15.637C17.6896 15.6482 17.7018 15.6569 17.7154 15.6625C17.7291 15.6681 17.7438 15.6704 17.7585 15.6692C17.7732 15.668 17.7875 15.6634 17.8 15.6557C17.8126 15.6481 17.8232 15.6375 17.831 15.625C17.8583 15.5831 17.8988 15.5514 17.946 15.535C17.96 15.5322 17.9744 15.5325 17.9883 15.536C18.0021 15.5394 18.015 15.5459 18.026 15.555C18.0418 15.5743 18.0518 15.5978 18.0548 15.6225C18.0578 15.6473 18.0527 15.6724 18.042 15.695C18.0157 15.7553 17.9707 15.8048 17.9126 15.8355C17.8545 15.8662 17.7876 15.8763 17.723 15.864C17.7033 15.8629 17.6841 15.8675 17.6675 15.8783C17.6508 15.8892 17.638 15.9053 17.631 15.924C17.6234 15.9428 17.6219 15.9634 17.6265 15.9831C17.6312 16.0028 17.6418 16.0206 17.657 16.034L17.813 16.169L17.559 16.232C17.5425 16.2362 17.5274 16.2447 17.5153 16.2567C17.5032 16.2686 17.4944 16.2836 17.49 16.3C17.4638 16.3898 17.4255 16.4756 17.376 16.555C17.3265 16.4756 17.2882 16.3898 17.262 16.3C17.2576 16.2836 17.2488 16.2686 17.2367 16.2567C17.2246 16.2447 17.2095 16.2362 17.193 16.232L16.94 16.169L17.095 16.034C17.1102 16.0206 17.1208 16.0028 17.1255 15.9831C17.1301 15.9634 17.1286 15.9428 17.121 15.924C17.1137 15.9055 17.1008 15.8898 17.0841 15.8791C17.0675 15.8683 17.0478 15.863 17.028 15.864C16.9636 15.8759 16.897 15.8656 16.8392 15.8347C16.7815 15.8038 16.7359 15.7542 16.71 15.694C16.6997 15.6717 16.6959 15.647 16.6989 15.6226C16.7019 15.5982 16.7116 15.5751 16.727 15.556C16.7378 15.547 16.7505 15.5404 16.7642 15.5368C16.7778 15.5331 16.7921 15.5325 16.806 15.535C16.8534 15.5512 16.8939 15.5829 16.921 15.625C16.9289 15.6375 16.9396 15.648 16.9523 15.6556C16.965 15.6633 16.9792 15.6679 16.994 15.669C17.0087 15.6698 17.0234 15.6674 17.0371 15.6618C17.0507 15.6563 17.063 15.6478 17.073 15.637C17.1637 15.5294 17.215 15.3942 17.2187 15.2535C17.2223 15.1128 17.178 14.9751 17.093 14.863C17.1713 14.7546 17.2399 14.6395 17.298 14.519C17.3051 14.5024 17.3075 14.4842 17.3049 14.4664C17.3022 14.4485 17.2946 14.4318 17.283 14.418C17.2709 14.4038 17.2553 14.3931 17.2377 14.387C17.22 14.3808 17.2004 14.3793 17.182 14.383C17.0782 14.4156 16.9657 14.4059 16.869 14.356C16.852 14.3368 16.8415 14.3129 16.8388 14.2874C16.8361 14.2619 16.8414 14.2363 16.854 14.214C16.863 14.198 16.89 14.15 16.988 14.189C17.082 14.225 17.217 14.266 17.301 14.189C17.3187 14.1724 17.332 14.1519 17.34 14.129C17.365 14.133 17.39 14.134 17.415 14.137C17.4232 14.1567 17.4354 14.1744 17.451 14.189C17.536 14.266 17.671 14.226 17.764 14.189C17.864 14.151 17.89 14.199 17.898 14.214C17.9104 14.2363 17.9157 14.262 17.913 14.2874C17.9103 14.3128 17.8998 14.3368 17.883 14.356ZM17.988 12.915C17.9742 12.9282 17.9645 12.9452 17.9603 12.9639C17.956 12.9826 17.9573 13.0021 17.964 13.02C17.9797 13.0525 17.9863 13.0886 17.9831 13.1245C17.9799 13.1604 17.9671 13.1948 17.946 13.224C17.9314 13.2392 17.922 13.2586 17.9193 13.2795C17.9166 13.3004 17.9207 13.3216 17.931 13.34C17.97 13.41 17.906 13.5 17.906 13.5C17.8928 13.5178 17.886 13.5395 17.8867 13.5617C17.8874 13.5839 17.8956 13.6051 17.91 13.622C17.985 13.71 17.967 13.75 17.959 13.769C17.9412 13.8027 17.9168 13.8324 17.8872 13.8565C17.8577 13.8805 17.8236 13.8984 17.787 13.909C17.6925 13.9412 17.5927 13.9551 17.493 13.95H17.482C17.3733 13.9479 17.266 13.9248 17.166 13.882C17.123 13.862 17.07 13.828 17.058 13.785C17.0534 13.7571 17.0595 13.7286 17.075 13.705C17.0827 13.6945 17.0882 13.6825 17.0912 13.6698C17.0942 13.6572 17.0946 13.644 17.0925 13.6312C17.0903 13.6183 17.0856 13.606 17.0787 13.595C17.0717 13.584 17.0627 13.5745 17.052 13.567C17.002 13.533 16.999 13.504 16.997 13.494C16.9974 13.4523 17.0122 13.412 17.039 13.38C17.0474 13.3699 17.0537 13.3582 17.0575 13.3457C17.0613 13.3331 17.0626 13.3199 17.0612 13.3068C17.0598 13.2938 17.0557 13.2811 17.0494 13.2696C17.043 13.2582 17.0344 13.2481 17.024 13.24C16.994 13.218 16.946 13.174 16.947 13.132C16.9552 13.0921 16.9785 13.057 17.012 13.034C17.0245 13.0248 17.0347 13.0127 17.0417 12.9988C17.0486 12.9849 17.0522 12.9696 17.052 12.954C17.0518 12.9385 17.0481 12.9233 17.0411 12.9094C17.0342 12.8956 17.0243 12.8835 17.012 12.874C16.9817 12.8317 16.9685 12.7796 16.975 12.728C17.0993 12.7519 17.2255 12.7643 17.352 12.765H17.373C17.6019 12.7688 17.8292 12.7259 18.041 12.639L18.075 12.682C18.0755 12.7677 18.0445 12.8506 17.988 12.915ZM19.24 15.39C19.0892 15.2825 18.9513 15.158 18.829 15.019C18.694 14.874 18.595 14.768 18.475 14.783C18.4346 14.7878 18.3968 14.8053 18.367 14.833C18.2756 14.7222 18.2286 14.5815 18.235 14.438C18.2505 14.2511 18.202 14.0647 18.096 13.91C18.1099 13.8905 18.1219 13.8697 18.132 13.848C18.1526 13.7999 18.1602 13.7471 18.1538 13.6952C18.1475 13.6432 18.1276 13.5938 18.096 13.552C18.1341 13.4758 18.1434 13.3884 18.122 13.306C18.1725 13.2152 18.1857 13.1084 18.159 13.008C18.1906 12.9657 18.2162 12.9193 18.235 12.87C18.5425 13.2077 18.8747 13.5219 19.229 13.81C19.2527 13.9369 19.2878 14.0614 19.334 14.182C19.4878 14.5623 19.7465 14.8911 20.08 15.13C19.918 15.354 19.615 15.645 19.24 15.39ZM27.714 17.923C27.6613 17.9376 27.6058 17.9394 27.5523 17.9283C27.4987 17.9171 27.4485 17.8934 27.406 17.859C27.3888 17.8472 27.3681 17.8415 27.3473 17.8428C27.3265 17.8441 27.3067 17.8522 27.291 17.866C27.218 17.9336 27.1237 17.9736 27.0244 17.979C26.9251 17.9845 26.827 17.9551 26.747 17.896C26.7295 17.8821 26.7078 17.8748 26.6855 17.8753C26.6631 17.8759 26.6417 17.8843 26.625 17.899C26.5515 17.9676 26.4542 18.0051 26.3537 18.0034C26.2531 18.0017 26.1572 17.9611 26.086 17.89C26.0715 17.8763 26.0531 17.8676 26.0333 17.8651C26.0135 17.8625 25.9935 17.8664 25.976 17.876C25.846 17.947 25.666 18.006 25.617 17.976C25.609 17.971 25.609 17.945 25.609 17.939C25.611 17.8956 25.6222 17.853 25.6418 17.8143C25.6615 17.7755 25.6891 17.7413 25.723 17.714C25.7886 17.6594 25.8647 17.6188 25.9465 17.5946C26.0283 17.5703 26.1142 17.563 26.199 17.573C26.3294 17.5909 26.4623 17.5706 26.5814 17.5145C26.7005 17.4584 26.8008 17.369 26.87 17.257C26.9618 16.735 26.8847 16.1972 26.65 15.722C26.581 15.6229 26.5086 15.5262 26.433 15.432C26.2876 15.2893 26.173 15.1184 26.0963 14.9297C26.0196 14.741 25.9824 14.5386 25.987 14.335C26.2213 14.3322 26.4535 14.3791 26.6683 14.4727C26.8831 14.5661 27.0755 14.7036 27.233 14.877C27.4235 15.0658 27.6303 15.2375 27.851 15.39C27.7301 15.503 27.6491 15.6521 27.62 15.815C27.6172 15.8548 27.6224 15.8948 27.6353 15.9326C27.6482 15.9703 27.6685 16.0052 27.695 16.035C27.7445 16.0903 27.807 16.1325 27.8768 16.1576C27.9466 16.1827 28.0216 16.1901 28.095 16.179C28.115 16.1776 28.135 16.1772 28.155 16.178C28.0989 16.2821 28.0343 16.3814 27.962 16.475C27.773 16.737 27.651 16.92 27.672 17.061C27.686 17.157 27.723 17.302 27.759 17.443C27.7946 17.5662 27.8227 17.6914 27.843 17.818C27.8145 17.8678 27.7685 17.9052 27.714 17.923ZM27.943 17.394C27.908 17.259 27.873 17.118 27.86 17.032C27.85 16.959 28.022 16.719 28.115 16.59C28.298 16.336 28.391 16.198 28.337 16.089C28.282 15.977 28.169 15.981 28.087 15.986C28.042 15.9951 27.9953 15.9926 27.9516 15.9786C27.9078 15.9646 27.8684 15.9396 27.837 15.906C27.827 15.8954 27.8195 15.8827 27.8148 15.8689C27.8102 15.8551 27.8085 15.8405 27.81 15.826C27.8431 15.7006 27.9127 15.5878 28.01 15.502L28.174 15.616C28.324 15.718 28.479 15.824 28.64 15.942C28.7655 16.0103 28.8664 16.1162 28.9286 16.2448C28.9909 16.3734 29.0113 16.5182 28.987 16.659C28.9824 16.759 28.9844 16.8592 28.993 16.959C29.019 17.229 28.868 17.279 28.653 17.324C28.6279 17.3287 28.6029 17.3341 28.578 17.34C28.555 17.346 28.528 17.351 28.499 17.357C28.312 17.3827 28.1356 17.4591 27.989 17.578C27.9742 17.5165 27.9588 17.4552 27.943 17.394ZM30.706 8.563C30.6679 8.64507 30.5989 8.70872 30.514 8.74C30.4219 8.77048 30.3242 8.78132 30.2278 8.7708C30.1313 8.7601 30.0383 8.72879 29.955 8.679C29.7171 8.55967 29.4939 8.41301 29.29 8.242C29.1347 8.11383 28.9687 7.99909 28.794 7.899C28.7768 7.88947 28.757 7.8856 28.7374 7.88794C28.7178 7.89027 28.6995 7.89869 28.685 7.912C28.6704 7.92557 28.6603 7.94327 28.656 7.96275C28.6517 7.98223 28.6534 8.00255 28.661 8.021L28.774 8.301C28.5492 8.1736 28.3637 7.98678 28.238 7.761C28.2281 7.74218 28.2122 7.72722 28.1928 7.71852C28.1734 7.70982 28.1516 7.70787 28.131 7.713C28.1103 7.71852 28.092 7.73074 28.079 7.74774C28.066 7.76474 28.0589 7.78558 28.059 7.807C28.0533 7.89816 28.0142 7.984 27.949 8.048C27.9359 7.88486 27.877 7.72872 27.7792 7.59748C27.6814 7.46625 27.5486 7.36523 27.396 7.306C27.3808 7.30051 27.3643 7.29909 27.3484 7.3019C27.3324 7.30471 27.3175 7.31164 27.305 7.322C27.2922 7.33231 27.2822 7.34569 27.2759 7.36089C27.2698 7.37609 27.2681 7.39273 27.27 7.409C27.285 7.5341 27.2628 7.66143 27.2074 7.77461C27.1521 7.88779 27.0659 7.98201 26.958 8.047C26.9815 7.80656 26.9215 7.56536 26.788 7.364C26.7255 7.28641 26.6463 7.22397 26.5562 7.18137C26.4662 7.13876 26.3676 7.1171 26.268 7.118C26.2555 7.11736 26.243 7.11934 26.2313 7.12382C26.2195 7.12829 26.2089 7.13517 26.2 7.144C26.1815 7.16185 26.1707 7.18627 26.17 7.212C26.1634 7.3603 26.1144 7.5036 26.029 7.625C25.9776 7.54125 25.9014 7.47555 25.811 7.437C25.7549 7.41705 25.6951 7.41093 25.6359 7.41716C25.5767 7.42339 25.5197 7.44281 25.469 7.474C25.3834 7.51985 25.3117 7.58784 25.2614 7.67087C25.2111 7.7539 25.184 7.84892 25.183 7.946C25.1785 8.05068 25.202 8.15475 25.2493 8.24825C25.2966 8.34175 25.3671 8.42155 25.454 8.48C25.473 8.49147 25.4953 8.49594 25.5172 8.49265C25.5392 8.48937 25.5592 8.47852 25.574 8.462C25.6515 8.37296 25.7533 8.30811 25.8664 8.27447C25.9794 8.24083 26.0996 8.23997 26.213 8.272C26.1097 8.37424 26.0396 8.50529 26.012 8.648C26.0039 8.70739 26.008 8.7683 26.024 8.82607C26.04 8.88367 26.0676 8.93741 26.105 8.984C26.1137 8.99625 26.1252 9.00614 26.1387 9.01277C26.1521 9.01923 26.1671 9.02169 26.182 9.021C26.1967 9.02061 26.2112 9.0178 26.2242 9.01086C26.2372 9.00391 26.2485 8.99303 26.257 8.981C26.3238 8.89151 26.4127 8.82088 26.515 8.776C26.5123 8.87581 26.5373 8.97443 26.587 9.061C26.6252 9.1212 26.6756 9.17264 26.7351 9.21193C26.7946 9.25123 26.8617 9.27749 26.932 9.289C27.3624 9.33098 27.7966 9.31281 28.222 9.235C28.7395 9.12641 29.2735 9.12131 29.793 9.22C29.9576 9.27663 30.1061 9.37194 30.2262 9.49793C30.3463 9.62392 30.4343 9.7769 30.483 9.944C30.4935 10.1687 30.4476 10.3925 30.3494 10.595C30.2512 10.7972 30.1038 10.9712 29.921 11.102C29.9031 11.1191 29.8929 11.1428 29.8914 11.1674C29.8899 11.1919 29.8976 11.216 29.913 11.235C30.101 11.4831 30.2365 11.767 30.3111 12.0693C30.3858 12.3715 30.398 12.6859 30.347 12.993C30.2661 13.3517 30.1653 13.7056 30.045 14.053C29.822 14.738 29.629 15.331 29.828 15.705C30.054 16.129 30.273 16.158 30.404 16.175C30.4252 16.1773 30.4463 16.181 30.467 16.186C30.486 16.226 30.419 16.431 30.125 16.621C30.0468 16.6707 29.9802 16.7366 29.9297 16.8142C29.8791 16.8918 29.8458 16.9794 29.832 17.071C29.8153 17.1747 29.8194 17.2807 29.844 17.3828C29.8685 17.4849 29.913 17.5812 29.975 17.666C30.0164 17.7163 30.0439 17.7765 30.0548 17.8407C30.0656 17.905 30.0595 17.9709 30.037 18.032C30.027 18.046 29.999 18.087 29.887 18.052C29.7924 18.0243 29.7057 17.9746 29.634 17.907C29.624 17.8959 29.6116 17.8873 29.5977 17.8817C29.5838 17.8762 29.5689 17.8739 29.554 17.875C29.5392 17.8765 29.525 17.8815 29.5125 17.8894C29.5 17.8974 29.4896 17.9082 29.482 17.921C29.4414 17.9828 29.3782 18.0262 29.306 18.042C29.2549 18.0431 29.2043 18.0329 29.1576 18.0122C29.1109 17.9914 29.0694 17.9606 29.036 17.922C29.0201 17.9069 28.9994 17.8978 28.9774 17.8963C28.9555 17.8948 28.9338 17.9011 28.916 17.914C28.856 17.957 28.661 18.069 28.541 18.031C28.524 18.025 28.471 18.008 28.437 17.907C28.4327 17.8944 28.4261 17.8833 28.4171 17.8735C28.4082 17.8635 28.3972 17.8555 28.385 17.85C28.3728 17.8447 28.3597 17.842 28.3464 17.8422C28.3331 17.8423 28.32 17.8453 28.308 17.851C28.2186 17.8974 28.1197 17.9227 28.019 17.925C28.0166 17.906 28.019 17.8868 28.026 17.869C28.092 17.639 28.36 17.583 28.537 17.546C28.57 17.54 28.599 17.533 28.624 17.527C28.644 17.522 28.666 17.517 28.69 17.513C28.865 17.478 29.228 17.404 29.182 16.939C29.1747 16.8475 29.1733 16.7557 29.178 16.664C29.2033 16.4915 29.1763 16.3154 29.1003 16.1585C29.0243 16.0016 28.903 15.8721 28.752 15.785C28.589 15.665 28.432 15.558 28.281 15.455C27.9536 15.248 27.6478 15.0078 27.368 14.74C27.124 14.4683 26.8045 14.2762 26.4503 14.1876C26.096 14.0989 25.7232 14.1181 25.38 14.243C24.9755 14.3782 24.5803 14.5399 24.197 14.727C23.8453 14.9007 23.4801 15.0455 23.105 15.16C23.3818 14.6263 23.5298 14.0352 23.537 13.434C23.5346 13.4088 23.5223 13.3856 23.5028 13.3695C23.4833 13.3533 23.4582 13.3456 23.433 13.348C23.4078 13.3504 23.3846 13.3627 23.3685 13.3822C23.3523 13.4017 23.3446 13.4268 23.347 13.452C23.3344 14.1623 23.1101 14.8528 22.703 15.435C22.5881 15.5444 22.5098 15.6865 22.4787 15.842C22.4475 15.9975 22.4651 16.1588 22.529 16.304C22.5756 16.3732 22.6396 16.4291 22.7145 16.4659C22.7894 16.5028 22.8727 16.5193 22.956 16.514C22.8788 16.6399 22.7773 16.7492 22.6575 16.8355C22.5376 16.9219 22.4019 16.9836 22.258 17.017C22.2455 17.0201 22.2337 17.0257 22.2234 17.0334C22.2131 17.0411 22.2045 17.0509 22.198 17.062C22.1913 17.0733 22.187 17.0859 22.1853 17.099C22.1835 17.112 22.1845 17.1253 22.188 17.138C22.19 17.143 22.347 17.705 22.075 17.941C21.9948 17.9684 21.9095 17.9774 21.8254 17.9674C21.7413 17.9573 21.6605 17.9285 21.589 17.883C21.5715 17.8753 21.5521 17.8731 21.5334 17.8766C21.5146 17.8802 21.4974 17.8894 21.484 17.903C21.3975 17.9848 21.2849 18.0333 21.166 18.04C21.1189 18.0375 21.0729 18.0252 21.0308 18.0039C20.9888 17.9825 20.9517 17.9526 20.922 17.916C20.9055 17.8978 20.8826 17.8868 20.8581 17.8854C20.8337 17.8839 20.8096 17.892 20.791 17.908C20.779 17.918 20.51 18.145 20.31 17.918C20.2961 17.9019 20.2778 17.8905 20.2569 17.8865C20.2358 17.8825 20.2139 17.8859 20.195 17.896C20.118 17.936 19.977 17.983 19.917 17.949C19.909 17.945 19.885 17.931 19.879 17.865C19.8717 17.7981 19.8797 17.7305 19.9022 17.6671C19.9245 17.6038 19.9604 17.5464 20.008 17.499C20.0562 17.4547 20.1143 17.4225 20.1774 17.4051C20.2405 17.3877 20.3069 17.3866 20.371 17.4C20.87 17.485 21.407 17.373 21.485 16.934C21.5038 16.5639 21.4349 16.1945 21.284 15.856C21.1798 15.5994 21.1125 15.3294 21.084 15.054C21.0821 14.7403 21.1133 14.4272 21.177 14.12C21.1827 14.0952 21.1785 14.0692 21.1652 14.0475C21.152 14.0258 21.1307 14.0102 21.106 14.004C21.0937 14.0011 21.081 14.0006 21.0685 14.0027C21.056 14.0049 21.0448 14.0097 21.0341 14.0165C21.0234 14.0232 21.0141 14.032 21.0069 14.0424C20.9996 14.0528 20.9946 14.0646 20.992 14.077C20.9241 14.3992 20.8912 14.7278 20.894 15.057C20.8986 15.1622 20.9137 15.2668 20.939 15.369C20.6245 15.2738 20.3342 15.1129 20.0878 14.8955C19.8414 14.6781 19.6446 14.4092 19.511 14.109C19.4056 13.8207 19.3594 13.5145 19.3755 13.2079C19.3917 12.9011 19.4697 12.6008 19.605 12.325C19.855 11.8595 20.2043 11.4547 20.628 11.139C20.7673 11.0317 20.8965 10.9118 21.014 10.781C20.9606 11.0441 20.8618 11.2958 20.722 11.525C20.7121 11.542 20.7076 11.5616 20.7091 11.5812C20.7105 11.6006 20.718 11.6187 20.73 11.634C20.7418 11.6493 20.7582 11.661 20.7766 11.6667C20.795 11.6722 20.8147 11.672 20.833 11.666C20.949 11.6219 21.0619 11.5701 21.171 11.511L21.201 11.999C21.202 12.0167 21.2078 12.0338 21.2179 12.0485C21.2279 12.0629 21.242 12.0738 21.258 12.081C21.274 12.0881 21.2917 12.0906 21.309 12.0881C21.3264 12.0856 21.3426 12.0783 21.356 12.067C21.4791 11.9596 21.5911 11.84 21.69 11.71L21.784 12.014C21.7883 12.0285 21.796 12.0417 21.8065 12.0527C21.8169 12.0636 21.8297 12.072 21.844 12.077C21.8581 12.0819 21.8732 12.0824 21.8879 12.0803C21.9027 12.0782 21.9168 12.0726 21.929 12.064C22.0609 11.9624 22.1786 11.8437 22.279 11.711L22.46 12.004C22.4686 12.0189 22.4813 12.031 22.4965 12.0389C22.5117 12.0469 22.5289 12.0504 22.546 12.049C22.5628 12.0481 22.5791 12.0427 22.5932 12.0333C22.6072 12.024 22.6186 12.0111 22.626 11.996L22.836 11.566L23.015 12.058C23.0197 12.0715 23.0275 12.0843 23.0375 12.0945C23.0475 12.1045 23.0596 12.1122 23.073 12.117C23.0826 12.1203 23.0928 12.122 23.103 12.122C23.1214 12.1222 23.1395 12.117 23.155 12.107L23.621 11.807C23.8159 11.9042 24.0242 11.9716 24.239 12.007C24.2533 12.0092 24.268 12.0088 24.2819 12.0047C24.2957 12.0004 24.3084 11.9929 24.319 11.983C24.3298 11.9728 24.3381 11.9603 24.3433 11.9465C24.3485 11.9326 24.3504 11.9177 24.349 11.903L24.311 11.499L24.723 11.493C24.7461 11.4924 24.7683 11.4835 24.7854 11.4679C24.8025 11.4523 24.8134 11.431 24.816 11.408C24.8188 11.385 24.8132 11.3618 24.8004 11.3426C24.7876 11.3233 24.7683 11.3093 24.746 11.303C24.655 11.2475 24.5749 11.1756 24.51 11.091L24.531 11.09C24.768 11.108 28.794 11.41 29.677 10.756C30.168 10.393 30.134 10.064 30.07 9.899C29.9619 9.71267 29.7982 9.56385 29.6018 9.47526C29.4054 9.38667 29.1862 9.36275 28.975 9.405C28.784 9.43 28.578 9.466 28.365 9.505C27.7625 9.65967 27.1352 9.69197 26.52 9.6C26.3262 9.54879 26.1358 9.48533 25.95 9.41C25.67 9.302 25.467 9.224 25.313 9.318C25.2434 9.36384 25.1929 9.43354 25.171 9.514C25.097 9.43492 25.0507 9.3339 25.0392 9.2262C25.0276 9.1185 25.0514 9.00997 25.107 8.917C25.1164 8.89907 25.12 8.87767 25.1173 8.85762C25.1146 8.83757 25.1058 8.81884 25.092 8.804C24.9376 8.63584 24.8288 8.4313 24.7766 8.20904C24.7244 7.9866 24.7304 7.75446 24.794 7.535C25.0318 7.19392 25.3691 6.93454 25.7598 6.79226C26.1505 6.64998 26.5755 6.63173 26.977 6.74C27.8767 6.96496 28.7106 7.39906 29.411 8.007C29.6256 8.2052 29.8757 8.36125 30.148 8.467C30.162 8.46878 30.1762 8.46836 30.1895 8.46386C30.2028 8.45935 30.215 8.45088 30.225 8.441C30.2352 8.43124 30.2432 8.4199 30.2484 8.40678C30.2536 8.39349 30.2558 8.37924 30.255 8.365C30.2516 8.29157 30.2751 8.21942 30.321 8.162C30.3444 8.14122 30.3722 8.12694 30.4023 8.11829C30.4324 8.10963 30.4641 8.10783 30.495 8.113C30.5341 8.11242 30.5727 8.12153 30.6074 8.1395C30.6422 8.15747 30.6719 8.18375 30.694 8.216C30.7206 8.26964 30.7355 8.32835 30.7375 8.3882C30.7396 8.44805 30.7289 8.50765 30.706 8.563ZM14.843 2.528C14.7288 2.52043 14.6143 2.53739 14.5072 2.57776C14.4 2.61812 14.3028 2.68094 14.222 2.762L13.914 2.742C13.8988 2.74113 13.8835 2.74395 13.8696 2.75021C13.8557 2.75648 13.8435 2.76601 13.834 2.778C13.8244 2.79006 13.8177 2.80422 13.8146 2.81934C13.8114 2.83446 13.8119 2.85011 13.816 2.865L13.876 3.088C13.7655 3.19469 13.6926 3.33428 13.6681 3.48588C13.6436 3.63747 13.6688 3.79293 13.74 3.929C13.925 4.272 14.441 4.411 14.818 4.513C14.9333 4.54 15.0464 4.57611 15.156 4.621C15.3754 4.75233 15.5484 4.94877 15.651 5.183C15.6586 5.1994 15.6708 5.21329 15.686 5.22303C15.7012 5.23278 15.7189 5.23797 15.737 5.238L15.757 5.236C15.7783 5.23122 15.7974 5.21929 15.811 5.2022C15.8247 5.1851 15.8321 5.16387 15.832 5.142C15.833 5.038 15.845 2.577 14.842 2.527L14.843 2.528ZM15.24 4.447C15.1193 4.39645 14.9945 4.35631 14.867 4.327C14.523 4.233 14.053 4.106 13.907 3.837C13.8546 3.72978 13.8396 3.6081 13.8644 3.49137C13.8893 3.37465 13.9525 3.2696 14.044 3.193C14.0579 3.18085 14.0681 3.16502 14.0734 3.14733C14.0787 3.12963 14.0789 3.1108 14.074 3.093L14.034 2.944L14.256 2.957C14.2716 2.95791 14.2873 2.95511 14.3016 2.94866C14.3159 2.94222 14.3283 2.93233 14.338 2.92C14.3994 2.85033 14.4757 2.79584 14.5618 2.76112C14.6481 2.7264 14.7413 2.71232 14.834 2.72C15.415 2.75 15.597 4.011 15.634 4.791C15.5299 4.64849 15.3953 4.53097 15.24 4.447ZM31.415 5.236L31.435 5.238C31.4531 5.23797 31.4708 5.23278 31.486 5.22303C31.5012 5.21329 31.5134 5.1994 31.521 5.183C31.6236 4.94877 31.7966 4.75233 32.016 4.621C32.1256 4.57642 32.2387 4.54064 32.354 4.514C32.731 4.412 33.247 4.272 33.432 3.93C33.5036 3.79392 33.5291 3.63832 33.5047 3.48652C33.4804 3.33471 33.4075 3.19488 33.297 3.088L33.357 2.865C33.3609 2.85003 33.3613 2.83434 33.358 2.81922C33.3546 2.8041 33.3478 2.78997 33.338 2.778C33.3284 2.76619 33.3162 2.75685 33.3023 2.75076C33.2883 2.74467 33.2732 2.74201 33.258 2.743L32.95 2.762C32.8693 2.68112 32.7722 2.61841 32.6653 2.57806C32.5583 2.53771 32.444 2.52064 32.33 2.528C31.327 2.578 31.34 5.038 31.34 5.142C31.3401 5.16382 31.3476 5.18497 31.3612 5.20202C31.3748 5.21908 31.3937 5.23105 31.415 5.236ZM32.338 2.721C32.4306 2.71319 32.5238 2.72712 32.6101 2.76167C32.6963 2.79621 32.7734 2.85043 32.835 2.92C32.8444 2.93223 32.8565 2.94206 32.8704 2.94866C32.8843 2.95527 32.8996 2.95847 32.915 2.958L33.138 2.944L33.098 3.094C33.0931 3.1118 33.0933 3.13063 33.0986 3.14833C33.1039 3.16602 33.1141 3.18185 33.128 3.194C33.2191 3.27048 33.282 3.37517 33.3068 3.49146C33.3316 3.60776 33.3169 3.73001 33.265 3.837C33.12 4.107 32.649 4.234 32.305 4.327C32.1778 4.35637 32.0534 4.39651 31.933 4.447C31.7774 4.53082 31.6424 4.64835 31.538 4.791C31.575 4.011 31.757 2.75 32.338 2.721ZM33.297 20.912C33.4073 20.8052 33.48 20.6655 33.5044 20.514C33.5287 20.3624 33.5033 20.207 33.432 20.071C33.247 19.729 32.731 19.589 32.354 19.487C32.2387 19.4603 32.1257 19.4245 32.016 19.38C31.7964 19.2484 31.6234 19.0516 31.521 18.817C31.5134 18.8006 31.5012 18.7867 31.486 18.777C31.4708 18.7672 31.4531 18.762 31.435 18.762L31.415 18.764C31.3937 18.7688 31.3746 18.7807 31.361 18.7978C31.3473 18.8149 31.3399 18.8361 31.34 18.858C31.34 18.963 31.327 21.423 32.33 21.473C32.4441 21.4804 32.5584 21.4634 32.6653 21.423C32.7722 21.3827 32.8693 21.3199 32.95 21.239L33.259 21.257C33.2742 21.258 33.2893 21.2553 33.3033 21.2492C33.3172 21.2431 33.3294 21.2338 33.339 21.222C33.3483 21.21 33.3547 21.1959 33.3577 21.181C33.3606 21.1661 33.36 21.1507 33.356 21.136L33.297 20.912ZM33.129 20.807C33.1153 20.8191 33.1052 20.8347 33.0999 20.8522C33.0946 20.8699 33.0942 20.8892 33.099 20.907L33.139 21.057L32.916 21.043C32.9004 21.0424 32.885 21.0455 32.8709 21.0521C32.8568 21.0587 32.8445 21.0686 32.835 21.081C32.7734 21.1503 32.6968 21.2043 32.6106 21.2386C32.5245 21.273 32.4314 21.2868 32.339 21.279C31.757 21.25 31.574 19.989 31.538 19.209C31.6424 19.3517 31.7773 19.4692 31.933 19.553C32.0534 19.6035 32.1778 19.6436 32.305 19.673C32.649 19.767 33.12 19.894 33.265 20.164C33.3173 20.271 33.3327 20.3919 33.308 20.5084C33.2834 20.6252 33.2203 20.7303 33.129 20.807ZM15.757 18.764L15.737 18.762C15.7189 18.762 15.7012 18.7672 15.686 18.777C15.6708 18.7867 15.6586 18.8006 15.651 18.817C15.5484 19.0512 15.3754 19.2477 15.156 19.379C15.0464 19.4236 14.9333 19.4594 14.818 19.486C14.441 19.589 13.925 19.728 13.74 20.07C13.6684 20.2061 13.6429 20.3617 13.6673 20.5135C13.6916 20.6653 13.7645 20.8051 13.875 20.912L13.816 21.135C13.8119 21.1499 13.8114 21.1655 13.8146 21.1807C13.8177 21.1958 13.8244 21.2099 13.834 21.222C13.8436 21.2338 13.8558 21.2431 13.8697 21.2492C13.8837 21.2553 13.8988 21.258 13.914 21.257L14.222 21.238C14.3027 21.3189 14.3998 21.3816 14.5067 21.4219C14.6137 21.4623 14.728 21.4794 14.842 21.472C15.845 21.422 15.833 18.962 15.832 18.858C15.8319 18.8362 15.8244 18.815 15.8108 18.798C15.7972 18.7809 15.7783 18.7689 15.757 18.764ZM14.833 21.279C14.7407 21.2865 14.6479 21.2724 14.562 21.2379C14.4759 21.2035 14.3996 21.1502 14.338 21.081C14.3285 21.0686 14.3162 21.0587 14.3021 21.0521C14.288 21.0455 14.2726 21.0424 14.257 21.043L14.034 21.056L14.074 20.906C14.0789 20.8882 14.0787 20.8694 14.0734 20.8517C14.0681 20.8342 14.0577 20.8191 14.044 20.807C13.9527 20.7305 13.89 20.625 13.8652 20.5085C13.8404 20.3922 13.8551 20.271 13.907 20.164C14.053 19.894 14.523 19.767 14.867 19.674C14.9945 19.6447 15.1193 19.6046 15.24 19.554C15.3954 19.4698 15.53 19.3519 15.634 19.209C15.597 19.989 15.414 21.25 14.833 21.279Z"
		fill="#464655"
	/>
</svg>
