<svg viewBox="0 0 36 24" fill="none" xmlns="http://www.w3.org/2000/svg">
	<path d="M36 24H0V0H36" fill="#FF4B55" />
	<path d="M0 0H18V12H0" fill="#41479B" />
	<path
		d="M6.778 6C6.7782 6.19712 6.80375 6.39339 6.854 6.584L4.976 6.107C4.95239 6.1009 4.93148 6.08713 4.91656 6.06785C4.90163 6.04857 4.89353 6.02488 4.89353 6.0005C4.89353 5.97612 4.90163 5.95243 4.91656 5.93315C4.93148 5.91387 4.95239 5.9001 4.976 5.894L6.854 5.416C6.80375 5.60661 6.7782 5.80288 6.778 6ZM6.854 6.586L5.462 7.956C5.44513 7.97308 5.43431 7.9952 5.43119 8.019C5.42807 8.0428 5.43283 8.06697 5.44472 8.08782C5.45662 8.10867 5.47501 8.12505 5.49709 8.13447C5.51916 8.14389 5.54372 8.14584 5.567 8.14L7.429 7.598C7.15256 7.31643 6.95437 6.96761 6.854 6.586ZM5.567 3.86C5.54352 3.8538 5.51864 3.85554 5.49626 3.86496C5.47387 3.87437 5.45523 3.89093 5.44324 3.91206C5.43125 3.93318 5.42659 3.95767 5.42998 3.98172C5.43338 4.00577 5.44464 4.02802 5.462 4.045L6.854 5.416C6.95417 5.03402 7.15238 4.68382 7.429 4.402L5.567 3.86ZM6.854 6.584V6.586L6.855 6.585L6.854 6.584ZM9.574 3.816L9.104 1.905C9.09797 1.88188 9.08443 1.86141 9.06553 1.8468C9.04662 1.8322 9.0234 1.82427 8.9995 1.82427C8.97561 1.82427 8.95238 1.8322 8.93347 1.8468C8.91456 1.86141 8.90103 1.88188 8.895 1.905L8.425 3.816C8.80148 3.71351 9.19752 3.71351 9.574 3.816ZM7.43 4.401C7.70383 4.12182 8.04683 3.92029 8.424 3.817L7.078 2.4C7.06114 2.38244 7.03885 2.37108 7.01473 2.36778C6.99061 2.36448 6.96608 2.36943 6.94512 2.38182C6.92417 2.39421 6.90801 2.41331 6.89928 2.43603C6.89054 2.45876 6.88974 2.48376 6.897 2.507L7.43 4.401ZM11.103 2.507C11.1107 2.48356 11.1102 2.45818 11.1015 2.43509C11.0928 2.412 11.0764 2.39258 11.0552 2.38007C11.0339 2.36756 11.009 2.36272 10.9846 2.36634C10.9602 2.36997 10.9377 2.38185 10.921 2.4L9.576 3.817C9.95317 3.92029 10.2962 4.12182 10.57 4.401L11.103 2.507ZM8.426 8.184L8.896 10.095C8.90203 10.1181 8.91557 10.1386 8.93447 10.1532C8.95338 10.1678 8.9766 10.1757 9.0005 10.1757C9.02439 10.1757 9.04762 10.1678 9.06653 10.1532C9.08544 10.1386 9.09897 10.1181 9.105 10.095L9.575 8.184C9.19852 8.28649 8.80248 8.28649 8.426 8.184ZM10.57 7.599C10.2963 7.87855 9.95327 8.08042 9.576 8.184L10.922 9.6C10.9389 9.61756 10.9612 9.62892 10.9853 9.63222C11.0094 9.63552 11.0339 9.63057 11.0549 9.61818C11.0758 9.60579 11.092 9.58669 11.1007 9.56397C11.1095 9.54124 11.1103 9.51624 11.103 9.493L10.57 7.599ZM6.897 9.493C6.88974 9.51624 6.89054 9.54124 6.89928 9.56397C6.90801 9.58669 6.92417 9.60579 6.94512 9.61818C6.96608 9.63057 6.99061 9.63552 7.01473 9.63222C7.03885 9.62892 7.06114 9.61756 7.078 9.6L8.424 8.184C8.04673 8.08042 7.70371 7.87855 7.43 7.599L6.897 9.493ZM9.575 8.184H9.576L9.575 8.182V8.184ZM8.424 8.184H8.426V8.182L8.424 8.184ZM12.433 8.14C12.4565 8.1462 12.4814 8.14446 12.5037 8.13504C12.5261 8.12563 12.5448 8.10907 12.5568 8.08794C12.5687 8.06682 12.5734 8.04233 12.57 8.01828C12.5666 7.99423 12.5554 7.97198 12.538 7.955L11.146 6.585C11.0458 6.96698 10.8476 7.31618 10.571 7.598L12.433 8.14ZM12.433 3.86L10.571 4.402C10.8475 4.68354 11.0457 5.03337 11.146 5.415L12.538 4.044C12.5549 4.02692 12.5657 4.0048 12.5688 3.981C12.5719 3.9572 12.5672 3.93303 12.5553 3.91218C12.5434 3.89133 12.525 3.87495 12.5029 3.86553C12.4808 3.85611 12.4563 3.85416 12.433 3.86ZM13.024 5.893L11.146 5.415C11.2464 5.79786 11.2464 6.20214 11.146 6.585L13.024 6.107C13.0481 6.10126 13.0695 6.08758 13.0848 6.06817C13.1001 6.04875 13.1085 6.02474 13.1085 6C13.1085 5.97526 13.1001 5.95125 13.0848 5.93183C13.0695 5.91242 13.0481 5.89874 13.024 5.893ZM7.231 6C7.23691 6.34878 7.34575 6.68803 7.54384 6.97515C7.74194 7.26228 8.02045 7.48447 8.34441 7.61381C8.66837 7.74316 9.02333 7.7739 9.3647 7.70218C9.70607 7.63045 10.0186 7.45945 10.2631 7.21066C10.5077 6.96187 10.6732 6.64638 10.739 6.30381C10.8048 5.96124 10.7679 5.60687 10.6329 5.28521C10.498 4.96355 10.271 4.68893 9.98044 4.49586C9.68992 4.30278 9.34883 4.19985 9 4.2C8.76559 4.20196 8.53386 4.25008 8.31804 4.3416C8.10223 4.43312 7.90655 4.56626 7.74219 4.7334C7.57783 4.90055 7.448 5.09843 7.36012 5.31576C7.27224 5.53308 7.22902 5.76559 7.231 6Z"
		fill="#F5F5F5"
	/>
</svg>
