<svg viewBox="0 0 36 24" fill="none" xmlns="http://www.w3.org/2000/svg">
	<path d="M36 24H0V0H36" fill="#FFE15A" />
	<path d="M1.862 1.895H36V22.105H1.862V1.895Z" fill="#41479B" />
	<path
		d="M10.397 1.895L18.93 12L1.862 1.895H10.397ZM18.931 1.895L18.93 12L27.465 1.895H18.931ZM36 1.895L18.93 12L36 6.947V1.895ZM36 12H18.93L36 17.053V12ZM1.862 12H18.93L1.862 6.947V12ZM1.862 22.105L18.93 12L1.862 17.053V22.105Z"
		fill="#FF4B55"
	/>
	<path
		d="M22.147 13.155L25.419 14.856L21.989 13.536C21.7152 14.1157 21.2822 14.6056 20.7406 14.9487C20.199 15.2917 19.571 15.4738 18.9299 15.4736C18.2887 15.4734 17.6609 15.2909 17.1195 14.9475C16.5781 14.6041 16.1454 14.1139 15.872 13.534L12.435 14.856L15.714 13.151C15.6647 13.0117 15.6243 12.8694 15.593 12.725L11.875 13.06L15.533 12.308C15.5232 12.2056 15.5179 12.1028 15.517 12C15.517 11.9 15.524 11.801 15.532 11.703L11.905 10.926L15.589 11.289C15.622 11.1346 15.6654 10.9826 15.719 10.834L12.426 9.083L15.88 10.449C15.9666 10.2728 16.068 10.1042 16.183 9.945L13.454 7.385L16.447 9.623C16.7628 9.27935 17.1457 9.00403 17.572 8.814L16.486 5.218L17.957 8.672C18.5891 8.4788 19.2645 8.47811 19.897 8.67L21.368 5.218L20.283 8.811C20.711 9.00012 21.0956 9.27513 21.413 9.619L24.4 7.385L21.675 9.94C21.7911 10.0997 21.8935 10.269 21.981 10.446L25.428 9.083L22.142 10.831C22.1957 10.9805 22.2392 11.1335 22.272 11.289L25.949 10.926L22.329 11.702C22.3501 11.9041 22.3501 12.1079 22.329 12.31L25.979 13.06L22.269 12.726C22.2376 12.8718 22.1969 13.0154 22.147 13.156V13.155Z"
		fill="#FFE15A"
	/>
	<path
		d="M36 22.105L19.32 12.231C19.202 12.1609 19.0673 12.124 18.93 12.124C18.7927 12.124 18.658 12.1609 18.54 12.231L1.862 22.105H36Z"
		fill="#F5F5F5"
	/>
	<path
		d="M19.613 19.3C19.6169 19.3446 19.6121 19.3895 19.5986 19.4322C19.5852 19.4749 19.5635 19.5145 19.5348 19.5488C19.506 19.5832 19.4708 19.6115 19.4311 19.6322C19.3915 19.6529 19.3481 19.6656 19.3035 19.6695C19.2589 19.6734 19.214 19.6686 19.1713 19.6551C19.1286 19.6417 19.089 19.62 19.0547 19.5913C19.0203 19.5625 18.992 19.5273 18.9713 19.4876C18.9506 19.448 18.9379 19.4046 18.934 19.36C18.9263 19.27 18.8832 19.1867 18.8141 19.1284C18.7449 19.0702 18.6555 19.0418 18.5655 19.0495C18.4755 19.0572 18.3922 19.1003 18.3339 19.1694C18.2757 19.2386 18.2473 19.328 18.255 19.418C18.2438 19.3271 18.251 19.2348 18.2763 19.1467C18.3015 19.0586 18.3442 18.9765 18.4019 18.9053C18.4596 18.8341 18.531 18.7753 18.6119 18.7323C18.6928 18.6893 18.7816 18.663 18.8728 18.6551C18.9641 18.6472 19.0561 18.6577 19.1432 18.6861C19.2303 18.7145 19.3108 18.7602 19.3799 18.8204C19.449 18.8805 19.5052 18.954 19.5453 19.0364C19.5853 19.1189 19.6084 19.2085 19.613 19.3ZM18.591 19.272C18.5737 19.2716 18.5567 19.2764 18.5421 19.2857C18.5276 19.295 18.5161 19.3084 18.5092 19.3243C18.5023 19.3402 18.5003 19.3577 18.5034 19.3747C18.5066 19.3917 18.5147 19.4074 18.5268 19.4198C18.5389 19.4321 18.5543 19.4406 18.5713 19.4442C18.5882 19.4477 18.6058 19.4461 18.6218 19.4396C18.6378 19.433 18.6515 19.4219 18.6612 19.4075C18.6708 19.3932 18.676 19.3763 18.676 19.359C18.6761 19.3477 18.674 19.3365 18.6698 19.326C18.6656 19.3155 18.6594 19.306 18.6515 19.2979C18.6436 19.2898 18.6342 19.2834 18.6238 19.2789C18.6135 19.2745 18.6023 19.2721 18.591 19.272ZM18.441 15.701C18.3827 15.8196 18.3549 15.9509 18.36 16.083C18.5447 16.1031 18.7313 16.0691 18.897 15.985C18.857 15.8595 18.7862 15.746 18.691 15.655C18.781 15.4381 18.7999 15.1983 18.745 14.97C18.675 14.568 18.485 14.265 18.322 14.295C18.159 14.325 18.085 14.675 18.156 15.078C18.182 15.3106 18.2825 15.5288 18.441 15.701Z"
		fill="#FF9B55"
	/>
	<path
		d="M14.792 20.632C14.7629 20.6758 14.7248 20.7129 14.6801 20.7407C14.6355 20.7684 14.5854 20.7863 14.5332 20.793C14.481 20.7998 14.4281 20.7952 14.3778 20.7797C14.3276 20.7641 14.2813 20.738 14.242 20.703C14.045 20.56 14.031 20.431 13.827 20.481C13.6526 20.4881 13.4811 20.4351 13.341 20.331C13.341 20.331 13.524 19.521 13.545 19.528L13.989 19.664C13.989 19.664 13.862 20.058 14.207 20.173C14.552 20.288 14.742 20.137 14.869 20.173C14.996 20.209 14.968 20.438 14.792 20.632ZM24.317 19.528L23.873 19.664C23.873 19.664 24 20.058 23.655 20.173C23.31 20.288 23.119 20.137 22.992 20.173C22.865 20.209 22.894 20.438 23.07 20.632C23.0991 20.6758 23.1372 20.7129 23.1819 20.7407C23.2265 20.7684 23.2766 20.7863 23.3288 20.793C23.381 20.7998 23.4339 20.7952 23.4842 20.7797C23.5344 20.7641 23.5807 20.738 23.62 20.703C23.817 20.56 23.83 20.431 24.035 20.481C24.2094 20.4881 24.3809 20.4351 24.521 20.331C24.521 20.331 24.338 19.521 24.317 19.528Z"
		fill="#F5DCD2"
	/>
	<path
		d="M14.963 17.554C14.9387 17.3449 14.9324 17.1342 14.944 16.924C15.0565 16.5906 15.1867 16.2635 15.334 15.944C15.6413 15.8081 15.965 15.7129 16.297 15.661C16.297 15.661 16.451 15.847 16.548 15.821C16.645 15.795 16.87 15.7 16.941 15.728C17.011 15.757 17.03 15.919 17.03 15.953C17.03 15.987 16.851 16.22 16.847 16.249C16.6661 16.3421 16.4798 16.4243 16.289 16.495L15.732 17.427C15.732 17.427 14.982 17.544 14.963 17.554ZM17.708 18.934C17.587 18.877 17.513 18.964 17.484 19.211C17.458 19.426 17.334 19.439 17.241 19.43L17.145 19.8C17.145 19.8 17.391 19.965 17.511 19.936C17.6655 19.8668 17.7903 19.7449 17.863 19.592C17.933 19.449 17.8 19.09 17.8 19.09C17.807 19.0572 17.8014 19.023 17.7843 18.9941C17.7673 18.9652 17.7401 18.9438 17.708 18.934ZM16.983 19.365C16.856 19.32 16.689 19.268 16.689 19.268L16.529 19.115C16.6541 18.8327 16.7059 18.5234 16.6797 18.2158C16.6535 17.9081 16.5501 17.6121 16.379 17.355L16.151 17.42C15.9621 17.4636 15.7689 17.486 15.575 17.487L14.836 17.725C14.836 17.725 14.331 17.849 13.386 18.145C12.9583 18.2418 12.5542 18.4227 12.197 18.677C12.197 18.677 12.141 19.658 13.04 19.687C13.938 19.715 14.144 20.058 14.611 19.906C15.079 19.753 15.107 19.82 15.107 19.82L16.53 19.887L17.016 19.658C17.016 19.658 17.11 19.411 16.983 19.365ZM21.573 16.495L22.129 17.427C22.129 17.427 22.879 17.544 22.899 17.554C22.9229 17.3449 22.929 17.1341 22.917 16.924C22.8045 16.5906 22.6743 16.2635 22.527 15.944C22.22 15.8085 21.8966 15.7137 21.565 15.662C21.565 15.662 21.411 15.847 21.313 15.822C21.215 15.797 20.992 15.7 20.921 15.728C20.851 15.757 20.831 15.919 20.831 15.953C20.831 15.987 21.011 16.221 21.015 16.249C21.1959 16.3421 21.3822 16.4243 21.573 16.495ZM20.378 19.211C20.348 18.964 20.275 18.877 20.153 18.934C20.1211 18.944 20.0941 18.9655 20.0773 18.9944C20.0604 19.0232 20.055 19.0573 20.062 19.09C20.062 19.09 19.928 19.449 19.998 19.592C20.071 19.745 20.1961 19.867 20.351 19.936C20.471 19.965 20.717 19.8 20.717 19.8L20.621 19.43C20.527 19.44 20.404 19.426 20.378 19.21V19.211ZM25.664 18.677C25.3072 18.4224 24.9034 18.2413 24.476 18.144C23.531 17.849 23.026 17.725 23.026 17.725L22.286 17.487C22.0921 17.486 21.8989 17.4636 21.71 17.42L21.482 17.354C21.3108 17.6112 21.2072 17.9074 21.181 18.2153C21.1548 18.5231 21.2067 18.8326 21.332 19.115L21.172 19.268C21.172 19.268 21.006 19.32 20.879 19.365C20.752 19.411 20.845 19.658 20.845 19.658L21.332 19.887L22.754 19.82C22.754 19.82 22.782 19.753 23.25 19.906C23.718 20.058 23.924 19.716 24.822 19.686C25.72 19.658 25.664 18.677 25.664 18.677Z"
		fill="#FFF5E6"
	/>
	<path
		d="M18.35 16.918C18.373 17.114 18.11 17.124 17.955 17.133C17.8 17.143 17.865 17.334 17.748 17.597C17.4036 17.985 17.0052 18.3214 16.565 18.596L16.353 17.831C16.353 17.831 16.508 17.621 16.549 17.581C16.6559 17.5478 16.7671 17.5306 16.879 17.53C16.911 17.4838 16.9517 17.4444 16.999 17.414C17.0675 17.3779 17.1469 17.3683 17.222 17.387C17.3632 17.352 17.4936 17.283 17.602 17.186C17.664 17.11 17.622 16.971 17.664 16.818C17.706 16.665 17.927 16.77 17.997 16.808C18.067 16.846 18.327 16.722 18.35 16.918ZM12.26 19.661L11.986 20.296L12.516 20.982C12.5657 21.087 12.6091 21.1949 12.646 21.305C12.662 21.3407 12.685 21.3727 12.7137 21.3993C12.7423 21.4259 12.776 21.4465 12.8127 21.4599C12.8495 21.4732 12.8885 21.479 12.9276 21.477C12.9666 21.4749 13.0048 21.4651 13.04 21.448C13.161 21.362 13.367 21.106 13.282 21.049C13.198 20.992 12.834 21.039 12.778 20.839C12.7443 20.7311 12.7314 20.6177 12.74 20.505C12.8686 20.5461 13.0067 20.5466 13.1356 20.5063C13.2644 20.4661 13.3777 20.387 13.46 20.28C13.5941 19.9874 13.6915 19.6794 13.75 19.363C13.795 19.2762 13.8632 19.2035 13.947 19.153C13.804 18.576 12.057 18.163 12.26 19.661ZM16.954 17.195C17.236 17.109 17.086 16.904 17.086 16.904C16.931 17.081 16.828 17.014 16.63 16.966C16.432 16.918 16.41 17.066 16.231 17.138C16.053 17.21 16.123 16.737 16.273 16.708C16.423 16.679 16.438 16.675 16.56 16.517C16.682 16.359 16.677 16.393 16.86 16.311C17.043 16.229 17.082 16.145 17.067 16.068C17.048 15.972 16.917 15.958 16.851 16.12C16.785 16.283 16.602 16.278 16.381 16.311C16.16 16.344 16.245 16.436 16.109 16.546C16.007 16.6193 15.922 16.7138 15.86 16.823C15.804 16.923 15.705 16.976 15.715 17.112C15.747 17.582 16.241 17.42 16.38 17.354C16.519 17.288 16.672 17.282 16.954 17.195ZM20.982 17.53C20.9503 17.4839 20.9099 17.4445 20.863 17.414C20.7942 17.3777 20.7144 17.368 20.639 17.387C20.4978 17.352 20.3674 17.283 20.259 17.186C20.198 17.11 20.239 16.971 20.198 16.818C20.155 16.665 19.935 16.77 19.864 16.808C19.793 16.846 19.535 16.722 19.512 16.918C19.489 17.114 19.752 17.124 19.906 17.133C20.061 17.143 19.996 17.334 20.113 17.597C20.4577 17.9851 20.8565 18.3215 21.297 18.596L21.508 17.831C21.508 17.831 21.353 17.621 21.312 17.581C21.2051 17.5478 21.0939 17.5306 20.982 17.53ZM25.602 19.661C25.804 18.163 24.058 18.576 23.914 19.153C23.9978 19.2035 24.066 19.2762 24.111 19.363C24.1696 19.6794 24.267 19.9874 24.401 20.28C24.4833 20.387 24.5966 20.4661 24.7254 20.5063C24.8543 20.5466 24.9924 20.5461 25.121 20.505C25.1299 20.6177 25.1174 20.731 25.084 20.839C25.028 21.039 24.664 20.992 24.579 21.049C24.494 21.106 24.7 21.362 24.822 21.448C24.8571 21.4649 24.8953 21.4747 24.9342 21.4766C24.9731 21.4786 25.012 21.4727 25.0487 21.4594C25.0853 21.446 25.1189 21.4255 25.1474 21.399C25.176 21.3725 25.199 21.3405 25.215 21.305C25.2522 21.1948 25.296 21.087 25.346 20.982L25.876 20.296L25.602 19.661ZM21.752 16.546C21.616 16.436 21.701 16.345 21.48 16.311C21.259 16.277 21.076 16.283 21.01 16.121C20.944 15.958 20.813 15.972 20.794 16.068C20.779 16.145 20.818 16.23 21.001 16.311C21.184 16.393 21.179 16.359 21.301 16.517C21.424 16.675 21.438 16.679 21.588 16.707C21.738 16.737 21.808 17.21 21.63 17.138C21.452 17.066 21.428 16.918 21.231 16.966C21.034 17.014 20.931 17.081 20.776 16.904C20.776 16.904 20.626 17.109 20.907 17.195C21.189 17.282 21.343 17.287 21.482 17.354C21.621 17.419 22.115 17.581 22.147 17.112C22.157 16.976 22.057 16.923 22.001 16.822C21.9391 16.7132 21.8536 16.6191 21.752 16.546Z"
		fill="#FFE6D7"
	/>
	<path
		d="M18.934 16.824C18.96 16.8236 18.9855 16.8309 19.0073 16.8451C19.0291 16.8592 19.0462 16.8796 19.0564 16.9035C19.0667 16.9274 19.0695 16.9538 19.0647 16.9793C19.0599 17.0049 19.0476 17.0284 19.0293 17.0469C19.0111 17.0654 18.9878 17.0781 18.9623 17.0833C18.9368 17.0885 18.9104 17.0861 18.8863 17.0762C18.8623 17.0664 18.8417 17.0496 18.8272 17.028C18.8127 17.0064 18.805 16.981 18.805 16.955C18.8049 16.9378 18.8081 16.9208 18.8146 16.9049C18.8211 16.8891 18.8306 16.8746 18.8427 16.8624C18.8548 16.8503 18.8692 16.8406 18.885 16.834C18.9009 16.8274 18.9168 16.824 18.934 16.824ZM18.737 12.553C19.124 13.04 18.497 13.283 18.575 13.75C18.4946 13.6088 18.4669 13.4437 18.497 13.284C18.5189 13.2193 18.5191 13.1491 18.4974 13.0843C18.4757 13.0195 18.4335 12.9635 18.377 12.925C18.3984 13.0081 18.3994 13.0952 18.3799 13.1788C18.3604 13.2623 18.321 13.34 18.265 13.405C18.075 13.578 18.131 13.972 18.131 13.972C18.0649 13.9261 18.0124 13.8633 17.9789 13.7901C17.9455 13.7169 17.9324 13.636 17.941 13.556C17.8438 13.6582 17.7868 13.7921 17.7804 13.933C17.774 14.0739 17.8186 14.2123 17.906 14.323C17.8554 14.3197 17.8061 14.3059 17.7612 14.2825C17.7162 14.2591 17.6767 14.2265 17.645 14.187C17.645 14.187 17.476 14.692 18.155 15.077C18.834 15.462 18.935 14.546 18.935 14.546L19.42 15.162C19.6096 15.1433 19.7902 15.0725 19.942 14.9574C20.0938 14.8423 20.2108 14.6875 20.28 14.51L19.946 14.572C19.967 14.392 20.414 14.345 20.237 13.807C20.2287 13.8474 20.2119 13.8856 20.1878 13.919C20.1636 13.9524 20.1327 13.9804 20.097 14.001C20.0923 13.7708 19.9996 13.551 19.838 13.387C19.8357 13.4846 19.8028 13.5791 19.744 13.657C19.7566 13.4946 19.712 13.333 19.618 13.2C19.5321 13.094 19.4761 12.9669 19.456 12.832C19.456 12.832 19.279 13.162 19.343 13.327C19.2944 13.3097 19.2526 13.2774 19.2235 13.2348C19.1944 13.1923 19.1795 13.1416 19.181 13.09C19.1704 12.966 19.1222 12.8481 19.0429 12.7521C18.9636 12.6562 18.8568 12.5867 18.737 12.553ZM18.934 15.926C19.459 15.926 19.885 16.121 19.885 16.36C19.885 16.599 19.459 16.794 18.935 16.794C18.411 16.794 17.984 16.599 17.984 16.36C17.984 16.121 18.409 15.926 18.934 15.926ZM18.934 15.869C19.251 15.869 19.509 15.971 19.509 16.097C19.509 16.223 19.251 16.327 18.934 16.327C18.617 16.327 18.36 16.224 18.36 16.097C18.36 15.97 18.617 15.869 18.934 15.869ZM18.934 18.46C18.7556 18.457 18.5803 18.5072 18.4305 18.6042C18.2807 18.7011 18.1632 18.8405 18.0928 19.0044C18.0225 19.1684 18.0025 19.3496 18.0355 19.525C18.0685 19.7004 18.1529 19.862 18.278 19.9892C18.4031 20.1164 18.5632 20.2035 18.738 20.2395C18.9128 20.2754 19.0943 20.2585 19.2595 20.1909C19.4246 20.1233 19.5659 20.0081 19.6654 19.86C19.7648 19.7118 19.818 19.5374 19.818 19.359C19.8191 19.2419 19.797 19.1258 19.7532 19.0172C19.7093 18.9086 19.6444 18.8098 19.5623 18.7263C19.4802 18.6428 19.3825 18.5763 19.2747 18.5306C19.1669 18.4849 19.0511 18.4609 18.934 18.46ZM18.934 20.048C18.7972 20.0504 18.6629 20.012 18.548 19.9378C18.4331 19.8635 18.3429 19.7568 18.289 19.6311C18.235 19.5054 18.2196 19.3665 18.2448 19.2321C18.27 19.0977 18.3347 18.9738 18.4305 18.8762C18.5264 18.7786 18.6491 18.7118 18.7831 18.6842C18.9171 18.6567 19.0562 18.6696 19.1828 18.7214C19.3094 18.7732 19.4177 18.8614 19.494 18.975C19.5702 19.0885 19.611 19.2222 19.611 19.359C19.6118 19.4487 19.5949 19.5377 19.5613 19.6208C19.5277 19.704 19.4781 19.7797 19.4152 19.8437C19.3523 19.9077 19.2775 19.9587 19.1949 19.9937C19.1124 20.0288 19.0237 20.0472 18.934 20.048ZM18.934 17.84C18.9548 17.8396 18.9753 17.8454 18.9929 17.8567C19.0104 17.868 19.0242 17.8843 19.0324 17.9034C19.0407 17.9226 19.043 17.9437 19.0392 17.9642C19.0354 17.9847 19.0256 18.0036 19.011 18.0185C18.9964 18.0334 18.9777 18.0436 18.9572 18.0478C18.9368 18.052 18.9156 18.0501 18.8963 18.0422C18.877 18.0343 18.8605 18.0208 18.8488 18.0035C18.8372 17.9862 18.831 17.9659 18.831 17.945C18.8309 17.9313 18.8334 17.9178 18.8385 17.9051C18.8436 17.8925 18.8512 17.8809 18.8608 17.8712C18.8703 17.8614 18.8817 17.8536 18.8943 17.8483C18.9068 17.8429 18.9203 17.8401 18.934 17.84ZM19.037 18.023C19.0578 18.0226 19.0783 18.0284 19.0959 18.0397C19.1134 18.051 19.1272 18.0673 19.1354 18.0864C19.1437 18.1056 19.146 18.1267 19.1422 18.1472C19.1384 18.1677 19.1286 18.1866 19.114 18.2015C19.0994 18.2164 19.0807 18.2266 19.0602 18.2308C19.0398 18.235 19.0186 18.2331 18.9993 18.2252C18.98 18.2173 18.9635 18.2038 18.9518 18.1865C18.9402 18.1692 18.934 18.1489 18.934 18.128C18.9339 18.1143 18.9364 18.1008 18.9415 18.0881C18.9466 18.0755 18.9542 18.0639 18.9638 18.0542C18.9733 18.0444 18.9847 18.0366 18.9973 18.0313C19.0098 18.026 19.0233 18.0231 19.037 18.023ZM18.831 18.023C18.8518 18.0226 18.8723 18.0284 18.8899 18.0397C18.9074 18.051 18.9212 18.0673 18.9294 18.0864C18.9377 18.1056 18.94 18.1267 18.9362 18.1472C18.9324 18.1677 18.9226 18.1866 18.908 18.2015C18.8934 18.2164 18.8747 18.2266 18.8542 18.2308C18.8338 18.235 18.8126 18.2331 18.7933 18.2252C18.774 18.2173 18.7575 18.2038 18.7458 18.1865C18.7342 18.1692 18.728 18.1489 18.728 18.128C18.7279 18.1143 18.7304 18.1008 18.7355 18.0881C18.7406 18.0755 18.7482 18.0639 18.7578 18.0542C18.7673 18.0444 18.7787 18.0366 18.7913 18.0313C18.8038 18.026 18.8173 18.0231 18.831 18.023ZM18.934 20.671C18.9548 20.6706 18.9753 20.6764 18.9928 20.6877C19.0103 20.6989 19.024 20.7151 19.0323 20.7342C19.0406 20.7533 19.043 20.7744 19.0393 20.7949C19.0355 20.8153 19.0258 20.8342 19.0113 20.8492C18.9968 20.8641 18.9782 20.8744 18.9578 20.8787C18.9375 20.883 18.9163 20.8812 18.897 20.8735C18.8777 20.8657 18.8611 20.8524 18.8493 20.8353C18.8376 20.8181 18.8312 20.7978 18.831 20.777C18.8307 20.7633 18.8332 20.7496 18.8382 20.7368C18.8433 20.724 18.8508 20.7124 18.8604 20.7025C18.87 20.6927 18.8814 20.6848 18.894 20.6794C18.9067 20.674 18.9203 20.6711 18.934 20.671ZM18.831 20.488C18.8518 20.4876 18.8723 20.4934 18.8899 20.5047C18.9074 20.516 18.9212 20.5323 18.9294 20.5514C18.9377 20.5706 18.94 20.5917 18.9362 20.6122C18.9324 20.6327 18.9226 20.6516 18.908 20.6665C18.8934 20.6814 18.8747 20.6916 18.8542 20.6958C18.8338 20.7 18.8126 20.6981 18.7933 20.6902C18.774 20.6823 18.7575 20.6688 18.7458 20.6515C18.7342 20.6342 18.728 20.6139 18.728 20.593C18.7279 20.5793 18.7304 20.5658 18.7355 20.5531C18.7406 20.5405 18.7482 20.5289 18.7578 20.5192C18.7673 20.5094 18.7787 20.5016 18.7913 20.4963C18.8038 20.491 18.8173 20.4881 18.831 20.488ZM19.037 20.488C19.0578 20.4876 19.0783 20.4934 19.0959 20.5047C19.1134 20.516 19.1272 20.5323 19.1354 20.5514C19.1437 20.5706 19.146 20.5917 19.1422 20.6122C19.1384 20.6327 19.1286 20.6516 19.114 20.6665C19.0994 20.6814 19.0807 20.6916 19.0602 20.6958C19.0398 20.7 19.0186 20.6981 18.9993 20.6902C18.98 20.6823 18.9635 20.6688 18.9518 20.6515C18.9402 20.6342 18.934 20.6139 18.934 20.593C18.9339 20.5793 18.9364 20.5658 18.9415 20.5531C18.9466 20.5405 18.9542 20.5289 18.9638 20.5192C18.9733 20.5094 18.9847 20.5016 18.9973 20.4963C19.0098 20.491 19.0233 20.4881 19.037 20.488ZM16.454 16.538C16.546 16.565 16.635 16.584 16.664 16.698C16.664 16.698 16.757 16.508 16.626 16.393C16.602 16.372 16.454 16.538 16.454 16.538ZM16.844 16.218C16.936 16.244 17.025 16.264 17.054 16.378C17.054 16.378 17.147 16.188 17.016 16.072C16.992 16.052 16.844 16.218 16.844 16.218ZM17.086 16.904C17.105 16.799 17.086 16.727 17.218 16.632C17.35 16.537 17.368 16.483 17.368 16.422C17.3126 16.4757 17.2439 16.5137 17.169 16.532C17.1165 16.5476 17.0675 16.5734 17.025 16.608C17.0165 16.5718 17.0202 16.5338 17.0356 16.5C17.051 16.4662 17.0771 16.4384 17.11 16.421C17.0541 16.4204 16.9998 16.4391 16.9561 16.4738C16.9123 16.5086 16.882 16.5574 16.87 16.612C16.837 16.803 16.945 16.832 16.79 16.852C16.635 16.87 16.274 16.794 16.147 17.086C16.02 17.377 16.405 17.166 16.509 17.129C16.613 17.092 16.941 17.172 16.992 17.099C17.0309 17.0379 17.0625 16.9725 17.086 16.904ZM17.063 15.814C17.0485 15.7871 17.0275 15.7642 17.0019 15.7475C16.9762 15.7309 16.9468 15.7209 16.9163 15.7186C16.8858 15.7163 16.8552 15.7218 16.8274 15.7344C16.7995 15.7471 16.7753 15.7665 16.757 15.791C16.692 15.891 16.551 15.891 16.517 16.015C16.492 16.113 16.649 16.292 16.743 16.259C16.836 16.2181 16.9256 16.1699 17.011 16.115C17.011 16.115 17.147 15.938 17.063 15.814ZM16.805 16.067C16.767 16.117 16.67 16.055 16.669 15.999C16.668 15.943 16.749 15.941 16.789 15.969C16.7971 15.9739 16.8041 15.9804 16.8094 15.9882C16.8147 15.9961 16.8182 16.005 16.8197 16.0143C16.8213 16.0236 16.8207 16.0332 16.8182 16.0423C16.8156 16.0514 16.8111 16.0598 16.805 16.067ZM16.95 15.944C16.894 15.971 16.834 15.872 16.858 15.822C16.881 15.772 16.955 15.805 16.978 15.849C16.9832 15.8569 16.9865 15.8658 16.9879 15.8751C16.9893 15.8844 16.9886 15.8939 16.986 15.903C16.9833 15.912 16.9787 15.9204 16.9725 15.9274C16.9663 15.9345 16.9586 15.9402 16.95 15.944ZM21.407 16.538C21.316 16.565 21.227 16.584 21.198 16.698C21.198 16.698 21.104 16.508 21.236 16.393C21.26 16.372 21.407 16.538 21.407 16.538ZM21.017 16.218C20.926 16.244 20.837 16.264 20.808 16.378C20.808 16.378 20.714 16.188 20.846 16.072C20.87 16.052 21.017 16.218 21.017 16.218ZM20.776 16.904C20.756 16.799 20.776 16.727 20.644 16.632C20.513 16.536 20.494 16.483 20.494 16.422C20.5491 16.4755 20.6174 16.5135 20.692 16.532C20.7449 16.5475 20.7942 16.5733 20.837 16.608C20.8455 16.5718 20.8418 16.5338 20.8264 16.5C20.811 16.4662 20.7849 16.4384 20.752 16.421C20.8079 16.4204 20.8622 16.4391 20.9059 16.4738C20.9497 16.5086 20.98 16.5574 20.992 16.612C21.025 16.803 20.916 16.832 21.072 16.852C21.228 16.872 21.588 16.794 21.715 17.086C21.842 17.378 21.457 17.166 21.353 17.129C21.249 17.092 20.921 17.172 20.869 17.099C20.8304 17.0379 20.7992 16.9724 20.776 16.904ZM20.851 16.115C20.9361 16.1698 21.0254 16.218 21.118 16.259C21.212 16.292 21.37 16.113 21.344 16.015C21.311 15.891 21.17 15.891 21.104 15.791C21.0856 15.7667 21.0615 15.7475 21.0337 15.735C21.006 15.7225 20.9756 15.7171 20.9452 15.7194C20.9149 15.7217 20.8856 15.7315 20.8601 15.7481C20.8345 15.7646 20.8135 15.7873 20.799 15.814C20.714 15.939 20.851 16.115 20.851 16.115ZM21.071 15.97C21.112 15.94 21.193 15.944 21.192 16C21.192 16.055 21.095 16.117 21.056 16.067C21.05 16.0598 21.0457 16.0515 21.0432 16.0425C21.0408 16.0335 21.0403 16.024 21.0418 16.0148C21.0433 16.0056 21.0468 15.9969 21.052 15.9891C21.0572 15.9814 21.064 15.9749 21.072 15.97H21.071ZM20.883 15.849C20.906 15.805 20.98 15.771 21.003 15.821C21.026 15.871 20.968 15.971 20.911 15.943C20.9025 15.9392 20.895 15.9335 20.8889 15.9265C20.8828 15.9195 20.8782 15.9113 20.8756 15.9024C20.8729 15.8935 20.8722 15.8841 20.8735 15.8749C20.8748 15.8657 20.878 15.8568 20.883 15.849Z"
		fill="#FF4B55"
	/>
	<path
		d="M16.668 18.438C16.8113 18.3666 16.9252 18.2474 16.99 18.101C17.124 17.836 17.257 17.943 17.455 17.8C17.652 17.656 17.525 17.441 17.469 17.355C17.4523 17.3243 17.4438 17.2897 17.4443 17.2547C17.4449 17.2197 17.4545 17.1855 17.4722 17.1553C17.4899 17.1251 17.5152 17.1 17.5454 17.0824C17.5757 17.0648 17.61 17.0554 17.645 17.055C17.7946 17.1212 17.9138 17.2413 17.979 17.3913C18.0442 17.5414 18.0507 17.7104 17.997 17.865C17.9719 17.808 17.9389 17.7548 17.899 17.707C17.9268 17.8043 17.9284 17.9073 17.9036 18.0054C17.8789 18.1036 17.8286 18.1935 17.758 18.266C17.7609 18.1771 17.7365 18.0895 17.688 18.015C17.675 18.2482 17.5708 18.4669 17.398 18.624C17.4171 18.5099 17.4151 18.3933 17.392 18.28C17.3264 18.5376 17.1618 18.7589 16.934 18.896C16.9769 18.8022 16.9938 18.6986 16.983 18.596L16.631 18.782L16.668 18.438ZM16.241 15.26C16.2796 15.2986 16.3063 15.3475 16.3178 15.4009C16.3294 15.4543 16.3253 15.5099 16.306 15.561C16.2241 15.4739 16.1255 15.4042 16.016 15.356C15.813 15.296 15.771 15.409 15.324 15.431C15.042 15.444 14.928 15.719 14.654 15.651C14.472 15.6099 14.2814 15.6336 14.115 15.718C14.171 15.7139 14.2273 15.7215 14.2802 15.7405C14.333 15.7594 14.3814 15.7892 14.422 15.828C14.5304 15.9107 14.6665 15.9483 14.802 15.933C14.7439 15.9752 14.6773 16.0043 14.6069 16.0185C14.5365 16.0326 14.4639 16.0314 14.394 16.015C14.2394 15.9816 14.078 16.0047 13.939 16.08C13.9939 16.0821 14.0476 16.0963 14.0963 16.1215C14.1451 16.1467 14.1876 16.1824 14.221 16.226C14.3357 16.3096 14.4784 16.3455 14.619 16.326C14.5786 16.3675 14.5288 16.3987 14.4738 16.417C14.4188 16.4353 14.3602 16.4401 14.303 16.431C14.0968 16.4031 13.887 16.4293 13.694 16.507C13.7718 16.4909 13.8524 16.4937 13.9289 16.5151C14.0055 16.5365 14.0758 16.5759 14.134 16.63C14.2118 16.6853 14.3017 16.7211 14.3961 16.7345C14.4906 16.7479 14.5869 16.7385 14.677 16.707C14.64 16.8677 14.5513 17.0119 14.4245 17.1174C14.2977 17.2228 14.1398 17.2838 13.975 17.291C13.415 17.271 13.273 17.601 13.273 17.601C13.4404 17.5533 13.6164 17.5437 13.788 17.573C13.9534 17.5998 14.1226 17.5925 14.2851 17.5516C14.4476 17.5107 14.6 17.437 14.733 17.335C14.733 17.335 14.64 17.783 14.256 17.764C13.9353 17.8035 13.6329 17.9355 13.386 18.144C13.7133 18.0903 14.0443 18.0616 14.376 18.058C14.5423 18.0516 14.7028 17.9948 14.836 17.895C15.0256 17.7594 15.2494 17.6793 15.482 17.664C15.361 17.7053 15.2495 17.7704 15.1541 17.8554C15.0586 17.9404 14.9811 18.0436 14.926 18.159C15.1215 18.0006 15.3644 17.9122 15.616 17.908C16.025 17.908 16.152 17.42 16.152 17.42C16.0541 17.4307 15.9557 17.4053 15.8753 17.3486C15.7948 17.2919 15.7378 17.2078 15.715 17.112C15.6286 17.1464 15.5529 17.2034 15.496 17.277C15.4276 17.3467 15.3363 17.3893 15.239 17.397C15.2341 17.2233 15.2904 17.0534 15.398 16.917C15.3259 16.7907 15.2943 16.6452 15.3075 16.5004C15.3208 16.3555 15.3782 16.2182 15.472 16.107C15.8 15.688 16.548 15.821 16.548 15.821C16.5796 15.7059 16.5652 15.5831 16.5079 15.4784C16.4507 15.3738 16.3549 15.2954 16.241 15.26ZM15.48 16.646C15.602 16.626 16.17 16.436 16.16 16.178C16.151 15.92 15.813 16.01 15.832 16.148C15.8321 16.1652 15.8361 16.1822 15.8437 16.1976C15.8513 16.213 15.8623 16.2265 15.8759 16.2371C15.8894 16.2477 15.9052 16.2551 15.922 16.2587C15.9389 16.2623 15.9563 16.2621 15.973 16.258C15.973 16.258 15.961 16.321 15.71 16.373C15.6487 16.3901 15.5939 16.4254 15.5529 16.474C15.5119 16.5227 15.4865 16.5827 15.48 16.646ZM16.983 19.365C16.983 19.365 17.335 19.308 17.321 19.566C17.2977 19.7275 17.2238 19.8774 17.1098 19.9942C16.9959 20.111 16.8479 20.1887 16.687 20.216C16.687 20.216 16.842 20.08 16.807 20.001C16.771 19.921 16.595 19.901 16.504 20.037C16.4634 20.0987 16.4062 20.1476 16.3389 20.1781C16.2717 20.2085 16.1971 20.2192 16.124 20.209C16.124 20.209 16.363 20.029 16.194 19.965C16.042 19.907 16.1 20.159 15.736 20.201C15.736 20.201 16.004 19.986 15.849 19.929C15.694 19.872 15.609 20.244 15.334 20.216C15.334 20.216 15.564 19.982 15.44 19.943C15.244 19.883 15.193 20.23 14.841 20.08C14.841 20.08 15.017 20 14.876 19.807C14.736 19.614 14.933 19.37 15.031 19.27C15.129 19.17 15.201 19.105 15.172 19.004C15.2426 19.0502 15.2942 19.1204 15.3172 19.2016C15.3401 19.2828 15.333 19.3696 15.297 19.446C15.177 19.711 15.66 19.565 16.034 19.532C16.419 19.499 16.648 19.724 16.894 19.647C17.124 19.575 16.983 19.365 16.983 19.365ZM10.167 19.486C10.167 19.486 10.629 19.704 10.891 19.485C11.153 19.266 11.224 19.525 11.533 19.335C11.842 19.144 11.823 19.249 12.066 19.249C12.31 19.249 12.487 18.849 12.338 18.573C12.338 18.573 12.846 18.373 12.742 17.958C12.664 17.649 12.282 17.744 12.282 17.744C12.1776 17.6736 12.0515 17.6427 11.9263 17.6568C11.8012 17.6709 11.6851 17.7291 11.599 17.821C11.37 18.094 11.496 18.278 11.112 18.325C10.728 18.373 10.672 18.773 10.261 18.725C10.3431 18.8295 10.4604 18.9006 10.591 18.925C10.7216 18.9495 10.8566 18.9257 10.971 18.858C10.971 18.858 10.961 19.216 10.167 19.486ZM14.257 20.187C14.257 20.187 14.651 20.546 13.876 20.761C13.9166 20.7043 13.9521 20.644 13.982 20.581C13.8205 20.6923 13.6281 20.75 13.432 20.746C13.4838 20.7051 13.523 20.6503 13.545 20.588C13.3817 20.6317 13.2078 20.6113 13.059 20.531C13.1401 20.5213 13.218 20.4938 13.2873 20.4506C13.3566 20.4074 13.4156 20.3485 13.46 20.28C13.4694 20.2993 13.4826 20.3175 13.4989 20.3316C13.5151 20.3457 13.5341 20.3563 13.5545 20.3628C13.575 20.3694 13.5966 20.3717 13.618 20.3697C13.6394 20.3676 13.6601 20.3613 13.679 20.351C13.827 20.281 13.911 20.383 14.045 20.388C14.0725 20.3911 14.1004 20.3882 14.1267 20.3794C14.1529 20.3706 14.1769 20.3562 14.197 20.3371C14.2171 20.318 14.2328 20.2948 14.243 20.2691C14.2532 20.2433 14.2576 20.2156 14.256 20.188L14.257 20.187ZM14.061 17.974C14.061 17.974 13.78 18.108 13.911 18.362C13.9335 18.4025 13.9653 18.4369 14.0039 18.4626C14.0424 18.4882 14.0866 18.5042 14.1326 18.5093C14.1786 18.5144 14.2251 18.5084 14.2684 18.4918C14.3116 18.4753 14.3502 18.4486 14.381 18.414C14.4007 18.3924 14.4145 18.3661 14.4213 18.3377C14.4281 18.3093 14.4275 18.2797 14.4197 18.2515C14.412 18.2233 14.3972 18.1976 14.3767 18.1767C14.3563 18.1558 14.331 18.1404 14.303 18.132C14.2608 18.1221 14.2163 18.1277 14.1779 18.1479C14.1395 18.1681 14.1097 18.2016 14.094 18.242C14.094 18.242 13.921 18.175 14.062 17.974H14.061ZM15.327 18.42C15.327 18.42 15.939 18.444 15.908 18.875C15.901 18.9212 15.8832 18.965 15.856 19.0031C15.8289 19.0411 15.7932 19.0722 15.7519 19.0939C15.7105 19.1156 15.6646 19.1273 15.6179 19.128C15.5712 19.1287 15.525 19.1184 15.483 19.098C15.4573 19.0852 15.435 19.0665 15.4182 19.0433C15.4013 19.0201 15.3902 18.9931 15.386 18.9647C15.3818 18.9363 15.3845 18.9074 15.3939 18.8802C15.4033 18.8531 15.4191 18.8287 15.44 18.809C15.518 18.739 15.595 18.765 15.672 18.824C15.672 18.824 15.712 18.589 15.327 18.42ZM16.549 17.581C16.549 17.581 16.879 17.356 17.009 17.624C17.0204 17.6544 17.0246 17.687 17.0213 17.7192C17.0179 17.7515 17.0072 17.7826 16.9899 17.81C16.9725 17.8374 16.9491 17.8604 16.9213 17.8773C16.8936 17.8941 16.8623 17.9043 16.83 17.907C16.8103 17.9084 16.7906 17.905 16.7726 17.897C16.7545 17.889 16.7387 17.8768 16.7265 17.8613C16.7142 17.8458 16.706 17.8276 16.7024 17.8082C16.6989 17.7888 16.7001 17.7688 16.706 17.75C16.729 17.68 16.784 17.669 16.85 17.677C16.85 17.677 16.869 17.502 16.549 17.581ZM16.999 17.414C16.999 17.414 17.303 17.206 17.422 17.454C17.4325 17.4819 17.4363 17.5119 17.4332 17.5416C17.4301 17.5713 17.4202 17.5999 17.4042 17.6251C17.3882 17.6503 17.3666 17.6714 17.3411 17.6868C17.3155 17.7023 17.2867 17.7116 17.257 17.714C17.2389 17.7151 17.2208 17.7119 17.2042 17.7045C17.1876 17.697 17.1731 17.6857 17.1619 17.6714C17.1507 17.6572 17.1431 17.6404 17.1398 17.6226C17.1365 17.6047 17.1376 17.5863 17.143 17.569C17.164 17.506 17.215 17.494 17.276 17.502C17.276 17.502 17.294 17.342 16.998 17.414H16.999ZM15.857 18.789C15.857 18.789 16.384 18.809 16.357 19.181C16.3509 19.2207 16.3356 19.2585 16.3122 19.2912C16.2888 19.3239 16.258 19.3506 16.2224 19.3692C16.1867 19.3878 16.1472 19.3978 16.107 19.3982C16.0668 19.3987 16.0271 19.3897 15.991 19.372C15.968 19.3596 15.9477 19.3426 15.9315 19.322C15.9153 19.3015 15.9035 19.2778 15.8967 19.2525C15.89 19.2273 15.8885 19.2009 15.8923 19.175C15.8961 19.1491 15.9052 19.1242 15.919 19.102C15.9392 19.0709 15.9696 19.0477 16.005 19.0364C16.0403 19.0251 16.0785 19.0264 16.113 19.04C16.113 19.04 16.187 18.934 15.857 18.789ZM16.243 19.083C16.243 19.083 16.824 19.026 16.781 19.425C16.777 19.4503 16.7671 19.4744 16.7521 19.4953C16.7372 19.5161 16.7175 19.5332 16.6948 19.5451C16.6721 19.5571 16.6469 19.5636 16.6212 19.564C16.5956 19.5645 16.5702 19.5591 16.547 19.548C16.5321 19.54 16.519 19.5291 16.5086 19.5158C16.4981 19.5026 16.4905 19.4873 16.4862 19.471C16.4818 19.4547 16.4809 19.4376 16.4835 19.421C16.486 19.4043 16.492 19.3883 16.501 19.374C16.514 19.3542 16.5335 19.3396 16.5561 19.3325C16.5787 19.3254 16.603 19.3263 16.625 19.335C16.625 19.335 16.588 19.158 16.243 19.083ZM11.896 20.957C12.016 21.035 12.456 21.262 12.728 21.09C12.95 20.95 12.953 20.79 12.812 20.753C12.671 20.716 12.594 20.818 12.516 20.753C12.439 20.689 12.002 20.323 12.164 20.209C12.24 20.1716 12.3036 20.1131 12.3474 20.0407C12.3911 19.9682 12.4132 19.8847 12.411 19.8C12.4075 19.7243 12.3775 19.6522 12.3264 19.5963C12.2752 19.5404 12.2061 19.5042 12.131 19.494C11.944 19.476 11.798 19.556 11.601 19.556L11.831 19.676C11.683 19.747 11.671 19.951 11.495 19.986C11.5278 20.024 11.57 20.0529 11.6173 20.0697C11.6646 20.0865 11.7155 20.0908 11.765 20.082C11.7492 20.1231 11.7232 20.1596 11.6894 20.1879C11.6557 20.2163 11.6153 20.2356 11.572 20.244C11.6422 20.3262 11.7287 20.3929 11.826 20.44C11.7646 20.4774 11.6912 20.4896 11.621 20.474C11.7397 20.6453 11.9105 20.7737 12.108 20.84L11.896 20.957ZM12.745 20.411C12.7697 20.4049 12.7915 20.3906 12.8069 20.3704C12.8224 20.3502 12.8305 20.3254 12.83 20.3C12.8294 20.2822 12.8252 20.2647 12.8175 20.2486C12.8097 20.2325 12.7988 20.2182 12.7852 20.2067C12.7716 20.1951 12.7558 20.1865 12.7387 20.1814C12.7216 20.1762 12.7037 20.1748 12.686 20.177C12.659 20.1818 12.6334 20.1928 12.6113 20.209C12.5891 20.2253 12.571 20.2463 12.5583 20.2707C12.5455 20.295 12.5385 20.3219 12.5378 20.3493C12.537 20.3768 12.5426 20.404 12.554 20.429C12.689 20.679 13.188 20.579 13.249 20.489C13.249 20.489 12.849 20.507 12.745 20.411ZM13.369 18.346C13.3586 18.2934 13.3688 18.2387 13.3975 18.1934C13.4261 18.148 13.471 18.1153 13.523 18.102L13.386 18.144L13.273 18.182C13.258 18.202 13.238 18.214 13.228 18.242C13.2143 18.2839 13.2107 18.3284 13.2174 18.3719C13.2242 18.4154 13.2411 18.4568 13.2668 18.4925C13.2926 18.5283 13.3264 18.5575 13.3655 18.5777C13.4046 18.5979 13.448 18.6087 13.492 18.609C13.5195 18.6087 13.5465 18.6014 13.5705 18.5878C13.5944 18.5742 13.6145 18.5547 13.6288 18.5312C13.6431 18.5077 13.6512 18.4809 13.6523 18.4534C13.6533 18.4259 13.6474 18.3986 13.635 18.374C13.6206 18.3531 13.6018 18.3355 13.58 18.3225C13.5581 18.3095 13.5337 18.3014 13.5084 18.2988C13.4832 18.2961 13.4576 18.2989 13.4335 18.3071C13.4095 18.3153 13.3875 18.3285 13.369 18.346ZM13.429 20.164C13.3783 20.1817 13.3243 20.1877 13.271 20.1817C13.2177 20.1756 13.1664 20.1576 13.121 20.129C13.1457 20.1229 13.1675 20.1086 13.1829 20.0884C13.1984 20.0682 13.2065 20.0434 13.206 20.018C13.2055 20.0001 13.2012 19.9825 13.1934 19.9663C13.1856 19.9502 13.1745 19.9358 13.1609 19.9242C13.1472 19.9127 13.1312 19.9041 13.114 19.899C13.0968 19.894 13.0788 19.8926 13.061 19.895C13.0342 19.9001 13.0088 19.9112 12.9869 19.9276C12.965 19.9439 12.9471 19.965 12.9346 19.9893C12.9221 20.0136 12.9152 20.0404 12.9146 20.0677C12.914 20.0951 12.9196 20.1222 12.931 20.147C13.046 20.363 13.373 20.312 13.518 20.159L13.54 20.112C13.5065 20.1353 13.4693 20.1529 13.43 20.164H13.429ZM13.645 19.802C13.65 19.777 13.658 19.752 13.662 19.729C13.412 19.832 13.339 19.702 13.339 19.702C13.3635 19.6959 13.3852 19.6817 13.4006 19.6618C13.4161 19.6418 13.4243 19.6172 13.424 19.592C13.4234 19.5742 13.4192 19.5567 13.4115 19.5406C13.4037 19.5245 13.3928 19.5102 13.3792 19.4987C13.3656 19.4871 13.3498 19.4785 13.3327 19.4734C13.3156 19.4682 13.2977 19.4668 13.28 19.469C13.2531 19.474 13.2276 19.485 13.2056 19.5013C13.1836 19.5176 13.1656 19.5387 13.1529 19.563C13.1403 19.5873 13.1334 19.6142 13.1327 19.6415C13.132 19.6689 13.1376 19.6961 13.149 19.721C13.271 19.949 13.489 19.886 13.645 19.802ZM14.208 19.922C14.1416 19.9953 14.0496 20.0404 13.951 20.048C13.9682 20.0293 13.9787 20.0054 13.9809 19.98C13.983 19.9547 13.9768 19.9294 13.963 19.908C13.9528 19.8934 13.9397 19.8812 13.9244 19.872C13.9091 19.8629 13.8921 19.8571 13.8744 19.855C13.8568 19.853 13.8389 19.8546 13.8219 19.86C13.8049 19.8653 13.7893 19.8742 13.776 19.886C13.7559 19.9048 13.7404 19.9278 13.7306 19.9535C13.7207 19.9792 13.7169 20.0067 13.7193 20.0341C13.7217 20.0615 13.7303 20.0879 13.7445 20.1115C13.7586 20.135 13.778 20.155 13.801 20.17C14.039 20.3 14.193 20.098 14.275 19.936C14.2525 19.9326 14.2301 19.9273 14.208 19.922ZM21.194 18.438C21.0507 18.3666 20.9368 18.2474 20.872 18.101C20.738 17.836 20.604 17.943 20.407 17.8C20.21 17.656 20.337 17.441 20.393 17.355C20.4097 17.3243 20.4182 17.2897 20.4177 17.2547C20.4171 17.2197 20.4075 17.1855 20.3898 17.1553C20.3721 17.1251 20.3468 17.1 20.3166 17.0824C20.2863 17.0648 20.252 17.0554 20.217 17.055C20.0672 17.1211 19.9478 17.241 19.8824 17.3911C19.817 17.5412 19.8104 17.7103 19.864 17.865C19.8894 17.8079 19.9227 17.7547 19.963 17.707C19.9351 17.8043 19.9333 17.9072 19.9579 18.0053C19.9825 18.1035 20.0325 18.1934 20.103 18.266C20.1003 18.177 20.1251 18.0894 20.174 18.015C20.1868 18.248 20.2905 18.4667 20.463 18.624C20.4442 18.5099 20.4466 18.3933 20.47 18.28C20.5356 18.5376 20.7002 18.7589 20.928 18.896C20.8848 18.8023 20.8675 18.6987 20.878 18.596L21.231 18.782L21.194 18.438ZM21.621 15.26C21.5822 15.2985 21.5553 15.3474 21.5436 15.4008C21.5319 15.4542 21.5359 15.5098 21.555 15.561C21.6372 15.4738 21.7362 15.404 21.846 15.356C22.049 15.296 22.091 15.409 22.538 15.431C22.819 15.444 22.933 15.719 23.208 15.651C23.3897 15.6101 23.5799 15.6338 23.746 15.718C23.6901 15.714 23.6341 15.7217 23.5814 15.7407C23.5287 15.7596 23.4805 15.7894 23.44 15.828C23.3316 15.9107 23.1955 15.9483 23.06 15.933C23.1181 15.9752 23.1847 16.0043 23.2551 16.0185C23.3255 16.0326 23.3981 16.0314 23.468 16.015C23.6222 15.982 23.7832 16.005 23.922 16.08C23.8671 16.0821 23.8134 16.0963 23.7647 16.1215C23.7159 16.1467 23.6734 16.1824 23.64 16.226C23.5253 16.3096 23.3826 16.3455 23.242 16.326C23.2825 16.3677 23.3325 16.399 23.3877 16.4172C23.4428 16.4355 23.5016 16.4402 23.559 16.431C23.7648 16.4033 23.9743 16.4295 24.167 16.507C24.0892 16.4909 24.0086 16.4937 23.9321 16.5151C23.8555 16.5365 23.7852 16.5759 23.727 16.63C23.6492 16.6853 23.5593 16.7211 23.4649 16.7345C23.3704 16.7479 23.2741 16.7385 23.184 16.707C23.2211 16.8679 23.3099 17.0122 23.4369 17.1177C23.5639 17.2232 23.722 17.2841 23.887 17.291C24.447 17.271 24.588 17.601 24.588 17.601C24.4206 17.5533 24.2446 17.5437 24.073 17.573C23.9076 17.5998 23.7384 17.5925 23.5759 17.5516C23.4134 17.5107 23.261 17.437 23.128 17.335C23.128 17.335 23.222 17.783 23.606 17.764C23.9267 17.8035 24.2291 17.9355 24.476 18.144C24.1487 18.0903 23.8177 18.0616 23.486 18.058C23.3193 18.0518 23.1585 17.995 23.025 17.895C22.8354 17.7594 22.6116 17.6793 22.379 17.664C22.5001 17.7052 22.6118 17.7702 22.7075 17.8553C22.8031 17.9403 22.8808 18.0435 22.936 18.159C22.7405 18.0006 22.4976 17.9122 22.246 17.908C21.836 17.908 21.71 17.42 21.71 17.42C21.8079 17.4307 21.9063 17.4053 21.9867 17.3486C22.0672 17.2919 22.1242 17.2078 22.147 17.112C22.2331 17.1466 22.3084 17.2035 22.365 17.277C22.4334 17.3467 22.5247 17.3893 22.622 17.397C22.6272 17.2234 22.5713 17.0535 22.464 16.917C22.536 16.7906 22.5674 16.6451 22.554 16.5002C22.5406 16.3553 22.483 16.2181 22.389 16.107C22.061 15.688 21.313 15.822 21.313 15.822C21.2815 15.7068 21.296 15.5829 21.3534 15.4782C21.4109 15.3735 21.5069 15.2952 21.621 15.26ZM22.381 16.646C22.26 16.626 21.691 16.436 21.701 16.178C21.711 15.92 22.048 16.01 22.03 16.148C22.0299 16.1652 22.0259 16.1822 22.0183 16.1976C22.0107 16.213 21.9997 16.2265 21.9861 16.2371C21.9726 16.2477 21.9568 16.2551 21.94 16.2587C21.9231 16.2623 21.9057 16.2621 21.889 16.258C21.889 16.258 21.9 16.321 22.152 16.373C22.2133 16.3901 22.2681 16.4254 22.3091 16.474C22.3501 16.5227 22.3745 16.5827 22.381 16.646ZM20.879 19.365C20.879 19.365 20.527 19.308 20.541 19.566C20.5645 19.7274 20.6384 19.8773 20.7523 19.9941C20.8662 20.1108 21.0142 20.1885 21.175 20.216C21.175 20.216 21.02 20.08 21.055 20.001C21.09 19.921 21.266 19.901 21.358 20.037C21.3986 20.0987 21.4558 20.1476 21.5231 20.1781C21.5903 20.2085 21.6649 20.2192 21.738 20.209C21.738 20.209 21.498 20.029 21.668 19.965C21.82 19.907 21.762 20.159 22.126 20.201C22.126 20.201 21.858 19.986 22.013 19.929C22.168 19.872 22.253 20.244 22.527 20.216C22.527 20.216 22.297 19.982 22.422 19.943C22.618 19.883 22.668 20.23 23.02 20.08C23.02 20.08 22.844 20 22.985 19.807C23.126 19.614 22.929 19.37 22.83 19.27C22.732 19.17 22.661 19.105 22.69 19.004C22.6194 19.0502 22.5678 19.1204 22.5448 19.2016C22.5219 19.2828 22.529 19.3696 22.565 19.446C22.684 19.711 22.202 19.565 21.827 19.532C21.442 19.499 21.214 19.724 20.968 19.647C20.738 19.575 20.879 19.365 20.879 19.365ZM27.694 19.486C27.694 19.486 27.232 19.704 26.97 19.485C26.708 19.266 26.637 19.525 26.328 19.335C26.02 19.144 26.038 19.249 25.795 19.249C25.552 19.249 25.375 18.849 25.524 18.573C25.524 18.573 25.016 18.373 25.12 17.958C25.197 17.649 25.58 17.744 25.58 17.744C25.6844 17.6736 25.8105 17.6427 25.9357 17.6568C26.0608 17.6709 26.1769 17.7291 26.263 17.821C26.491 18.094 26.366 18.278 26.75 18.325C27.133 18.373 27.19 18.773 27.6 18.725C27.5179 18.8295 27.4006 18.9006 27.27 18.925C27.1394 18.9495 27.0044 18.9257 26.89 18.858C26.89 18.858 26.9 19.216 27.694 19.486ZM23.605 20.187C23.605 20.187 23.211 20.546 23.985 20.761C23.9447 20.7042 23.9096 20.644 23.88 20.581C24.0415 20.6923 24.2339 20.75 24.43 20.746C24.3782 20.7051 24.339 20.6503 24.317 20.588C24.4803 20.6317 24.6542 20.6113 24.803 20.531C24.7217 20.5214 24.6436 20.494 24.5741 20.4508C24.5046 20.4076 24.4455 20.3486 24.401 20.28C24.3916 20.2992 24.3784 20.3173 24.3622 20.3313C24.3461 20.3452 24.3272 20.3558 24.3069 20.3623C24.2865 20.3689 24.2651 20.3712 24.2438 20.3693C24.2225 20.3673 24.2018 20.3611 24.183 20.351C24.035 20.281 23.95 20.383 23.817 20.388C23.7894 20.3913 23.7614 20.3884 23.735 20.3797C23.7086 20.371 23.6845 20.3566 23.6643 20.3375C23.6441 20.3185 23.6283 20.2952 23.618 20.2693C23.6078 20.2435 23.6033 20.2147 23.605 20.187ZM23.8 17.974C23.8 17.974 24.082 18.108 23.95 18.362C23.9275 18.4025 23.8957 18.4369 23.8571 18.4626C23.8186 18.4882 23.7744 18.5042 23.7284 18.5093C23.6824 18.5144 23.6359 18.5084 23.5926 18.4918C23.5494 18.4753 23.5108 18.4486 23.48 18.414C23.4603 18.3924 23.4465 18.3661 23.4397 18.3377C23.4329 18.3093 23.4335 18.2797 23.4413 18.2515C23.449 18.2233 23.4638 18.1976 23.4843 18.1767C23.5047 18.1558 23.53 18.1404 23.558 18.132C23.6004 18.1218 23.645 18.1273 23.6837 18.1475C23.7223 18.1678 23.7523 18.2013 23.768 18.242C23.768 18.242 23.941 18.175 23.8 17.974ZM22.534 18.42C22.534 18.42 21.922 18.444 21.954 18.875C21.9611 18.921 21.9789 18.9648 22.0059 19.0027C22.033 19.0406 22.0686 19.0717 22.1098 19.0933C22.151 19.115 22.1968 19.1267 22.2433 19.1276C22.2899 19.1284 22.336 19.1182 22.378 19.098C22.4037 19.0852 22.426 19.0665 22.4428 19.0433C22.4597 19.0201 22.4708 18.9931 22.475 18.9647C22.4792 18.9363 22.4765 18.9074 22.4671 18.8802C22.4577 18.8531 22.4419 18.8287 22.421 18.809C22.343 18.739 22.266 18.765 22.189 18.824C22.189 18.824 22.15 18.589 22.534 18.42ZM21.312 17.581C21.312 17.581 20.982 17.356 20.853 17.624C20.8416 17.6543 20.8374 17.6868 20.8407 17.719C20.8439 17.7512 20.8546 17.7822 20.8718 17.8096C20.8891 17.837 20.9124 17.8601 20.94 17.877C20.9676 17.8939 20.9988 17.9041 21.031 17.907C21.0507 17.9084 21.0704 17.905 21.0884 17.897C21.1065 17.889 21.1223 17.8768 21.1345 17.8613C21.1468 17.8458 21.155 17.8276 21.1586 17.8082C21.1621 17.7888 21.1609 17.7688 21.155 17.75C21.132 17.68 21.078 17.669 21.012 17.677C21.012 17.677 20.992 17.502 21.312 17.581ZM20.863 17.414C20.863 17.414 20.559 17.206 20.44 17.454C20.4296 17.4819 20.4257 17.5118 20.4287 17.5414C20.4318 17.571 20.4416 17.5995 20.4575 17.6247C20.4734 17.6499 20.4949 17.671 20.5203 17.6865C20.5457 17.702 20.5743 17.7114 20.604 17.714C20.6222 17.7153 20.6404 17.7122 20.6571 17.7048C20.6738 17.6975 20.6885 17.6862 20.6998 17.6719C20.7111 17.6576 20.7188 17.6408 20.7222 17.6228C20.7255 17.6049 20.7244 17.5864 20.719 17.569C20.697 17.506 20.647 17.494 20.586 17.502C20.586 17.502 20.568 17.342 20.863 17.414ZM22.004 18.789C22.004 18.789 21.478 18.809 21.504 19.181C21.5101 19.2207 21.5254 19.2585 21.5488 19.2912C21.5722 19.3239 21.603 19.3506 21.6386 19.3692C21.6743 19.3878 21.7138 19.3978 21.754 19.3982C21.7942 19.3987 21.8339 19.3897 21.87 19.372C21.8931 19.3597 21.9134 19.3427 21.9298 19.3222C21.9461 19.3017 21.958 19.2781 21.9648 19.2528C21.9717 19.2275 21.9733 19.2011 21.9695 19.1751C21.9658 19.1492 21.9567 19.1243 21.943 19.102C21.9228 19.0709 21.8924 19.0477 21.857 19.0364C21.8217 19.0251 21.7835 19.0264 21.749 19.04C21.749 19.04 21.674 18.934 22.004 18.789ZM21.619 19.083C21.619 19.083 21.037 19.026 21.081 19.425C21.085 19.4503 21.0949 19.4744 21.1099 19.4953C21.1248 19.5161 21.1445 19.5332 21.1672 19.5451C21.1899 19.5571 21.2151 19.5636 21.2408 19.564C21.2664 19.5645 21.2918 19.5591 21.315 19.548C21.3299 19.54 21.343 19.5291 21.3534 19.5158C21.3639 19.5026 21.3715 19.4873 21.3758 19.471C21.3802 19.4547 21.3811 19.4376 21.3785 19.421C21.376 19.4043 21.37 19.3883 21.361 19.374C21.348 19.3542 21.3285 19.3396 21.3059 19.3325C21.2833 19.3254 21.259 19.3263 21.237 19.335C21.237 19.335 21.273 19.158 21.619 19.083ZM25.965 20.957C25.845 21.035 25.406 21.262 25.134 21.09C24.911 20.95 24.909 20.79 25.049 20.753C25.189 20.716 25.268 20.818 25.345 20.753C25.423 20.689 25.86 20.323 25.698 20.209C25.622 20.1716 25.5584 20.1131 25.5146 20.0407C25.4709 19.9682 25.4488 19.8847 25.451 19.8C25.4545 19.7243 25.4845 19.6522 25.5356 19.5963C25.5868 19.5404 25.6559 19.5042 25.731 19.494C25.918 19.476 26.064 19.556 26.261 19.556L26.031 19.676C26.179 19.747 26.191 19.951 26.367 19.986C26.3342 20.024 26.292 20.0529 26.2447 20.0697C26.1974 20.0865 26.1465 20.0908 26.097 20.082C26.1128 20.1231 26.1388 20.1596 26.1726 20.1879C26.2063 20.2163 26.2467 20.2356 26.29 20.244C26.2198 20.3262 26.1333 20.3929 26.036 20.44C26.0971 20.4771 26.1702 20.4893 26.24 20.474C26.1216 20.6451 25.9512 20.7735 25.754 20.84L25.965 20.957ZM25.117 20.411C25.0923 20.4049 25.0705 20.3906 25.0551 20.3704C25.0396 20.3502 25.0315 20.3254 25.032 20.3C25.0326 20.2822 25.0368 20.2647 25.0445 20.2486C25.0523 20.2325 25.0632 20.2182 25.0768 20.2067C25.0904 20.1951 25.1062 20.1865 25.1233 20.1814C25.1404 20.1762 25.1583 20.1748 25.176 20.177C25.2029 20.182 25.2284 20.193 25.2504 20.2093C25.2724 20.2256 25.2904 20.2467 25.3031 20.271C25.3157 20.2953 25.3226 20.3222 25.3233 20.3495C25.324 20.3769 25.3184 20.4041 25.307 20.429C25.173 20.679 24.674 20.579 24.613 20.489C24.613 20.489 25.012 20.507 25.117 20.411ZM24.493 18.346C24.5034 18.2934 24.4932 18.2387 24.4645 18.1934C24.4359 18.148 24.391 18.1153 24.339 18.102L24.476 18.144L24.588 18.182C24.603 18.202 24.624 18.214 24.634 18.242C24.6477 18.2839 24.6513 18.3284 24.6446 18.3719C24.6378 18.4154 24.6209 18.4568 24.5952 18.4925C24.5694 18.5283 24.5356 18.5575 24.4965 18.5777C24.4574 18.5979 24.414 18.6087 24.37 18.609C24.3424 18.6089 24.3153 18.6017 24.2912 18.5882C24.2671 18.5747 24.2469 18.5552 24.2325 18.5316C24.2181 18.5081 24.2099 18.4813 24.2088 18.4537C24.2076 18.4261 24.2136 18.3987 24.226 18.374C24.2404 18.3529 24.2592 18.3352 24.2812 18.3221C24.3031 18.309 24.3276 18.3008 24.353 18.2982C24.3784 18.2955 24.4041 18.2984 24.4283 18.3067C24.4525 18.3149 24.4745 18.3283 24.493 18.346ZM24.433 20.164C24.4837 20.1817 24.5377 20.1877 24.591 20.1817C24.6443 20.1756 24.6956 20.1576 24.741 20.129C24.7163 20.1229 24.6945 20.1086 24.6791 20.0884C24.6636 20.0682 24.6555 20.0434 24.656 20.018C24.6566 20.0002 24.6608 19.9827 24.6685 19.9666C24.6763 19.9505 24.6872 19.9362 24.7008 19.9247C24.7144 19.9131 24.7302 19.9045 24.7473 19.8994C24.7644 19.8942 24.7823 19.8928 24.8 19.895C24.8269 19.9 24.8524 19.911 24.8744 19.9273C24.8964 19.9436 24.9144 19.9647 24.9271 19.989C24.9397 20.0133 24.9466 20.0402 24.9473 20.0675C24.948 20.0949 24.9424 20.1221 24.931 20.147C24.816 20.362 24.488 20.312 24.344 20.159L24.321 20.112C24.3549 20.1354 24.3924 20.1529 24.432 20.164H24.433ZM24.217 19.802L24.199 19.729C24.449 19.832 24.522 19.702 24.522 19.702C24.4977 19.6957 24.4762 19.6815 24.461 19.6615C24.4457 19.6416 24.4377 19.6171 24.438 19.592C24.4386 19.5742 24.4428 19.5567 24.4505 19.5406C24.4583 19.5245 24.4692 19.5102 24.4828 19.4987C24.4964 19.4871 24.5122 19.4785 24.5293 19.4734C24.5464 19.4682 24.5643 19.4668 24.582 19.469C24.6088 19.4741 24.6342 19.4852 24.6561 19.5016C24.678 19.5179 24.6959 19.539 24.7084 19.5633C24.7209 19.5876 24.7278 19.6144 24.7284 19.6417C24.729 19.6691 24.7234 19.6962 24.712 19.721C24.591 19.949 24.372 19.886 24.217 19.802ZM23.654 19.922C23.7202 19.9951 23.8117 20.0401 23.91 20.048C23.893 20.0292 23.8826 20.0052 23.8806 19.9799C23.8787 19.9545 23.8851 19.9293 23.899 19.908C23.9091 19.8933 23.9222 19.881 23.9374 19.8718C23.9527 19.8626 23.9697 19.8567 23.9873 19.8545C24.005 19.8523 24.0229 19.8539 24.0399 19.8592C24.0569 19.8644 24.0726 19.8732 24.086 19.885C24.106 19.9038 24.1215 19.927 24.1312 19.9527C24.141 19.9784 24.1447 20.006 24.1422 20.0333C24.1397 20.0607 24.131 20.0872 24.1168 20.1107C24.1025 20.1342 24.0831 20.1541 24.06 20.169C23.823 20.299 23.669 20.099 23.586 19.936C23.608 19.933 23.631 19.927 23.654 19.922Z"
		fill="#5AA587"
	/>
	<path
		d="M12.979 21.602C12.9943 21.5767 13.0021 21.5476 13.0016 21.5181C13.001 21.4885 12.9922 21.4597 12.976 21.435C12.976 21.435 12.999 21.315 13.089 21.358C13.1096 21.41 13.1121 21.4674 13.096 21.521C13.0834 21.542 13.0664 21.56 13.0462 21.5738C13.026 21.5876 13.0031 21.5979 12.979 21.602ZM13.162 21.534C13.161 21.448 13.142 21.4 13.072 21.394C13.072 21.394 13.055 21.268 13.157 21.268C13.1986 21.3048 13.2258 21.3551 13.234 21.41C13.2316 21.4346 13.2239 21.4584 13.2115 21.4798C13.199 21.5012 13.1822 21.5197 13.162 21.534ZM13.275 21.45C13.259 21.365 13.243 21.306 13.166 21.3C13.1604 21.2877 13.1579 21.2742 13.1588 21.2607C13.1596 21.2473 13.1638 21.2342 13.1709 21.2227C13.1781 21.2112 13.1879 21.2017 13.1996 21.1949C13.2113 21.1882 13.2245 21.1844 13.238 21.184C13.279 21.2178 13.309 21.2631 13.324 21.314C13.3261 21.3389 13.3227 21.3639 13.3143 21.3873C13.3058 21.4108 13.2924 21.4322 13.275 21.45ZM13.389 21.319C13.354 21.239 13.319 21.208 13.244 21.219C13.244 21.219 13.179 21.126 13.268 21.076C13.268 21.076 13.378 21.108 13.407 21.176C13.4143 21.1997 13.4165 21.2248 13.4134 21.2494C13.4103 21.2741 13.402 21.2978 13.389 21.319ZM14.726 20.834C14.7366 20.8064 14.7393 20.7764 14.7336 20.7474C14.728 20.7184 14.7142 20.6916 14.694 20.67C14.694 20.67 14.696 20.548 14.791 20.574C14.8206 20.6214 14.8333 20.6775 14.827 20.733C14.8184 20.756 14.8049 20.7768 14.7875 20.7941C14.77 20.8113 14.7491 20.8256 14.726 20.834ZM14.895 20.734C14.878 20.65 14.851 20.606 14.782 20.612C14.782 20.612 14.743 20.492 14.843 20.473C14.8902 20.5019 14.9256 20.5465 14.943 20.599C14.9452 20.6238 14.942 20.6487 14.9338 20.6722C14.9255 20.6957 14.9123 20.7171 14.895 20.735V20.734ZM14.991 20.631C14.961 20.551 14.934 20.496 14.858 20.504C14.8501 20.4929 14.845 20.48 14.8433 20.4665C14.8416 20.4529 14.8433 20.4392 14.8483 20.4264C14.8533 20.4137 14.8613 20.4025 14.8718 20.3937C14.8822 20.3848 14.8946 20.3788 14.908 20.376C14.9542 20.4021 14.9915 20.4414 15.015 20.489C15.0213 20.513 15.0224 20.5381 15.0183 20.5626C15.0141 20.5871 15.0048 20.6104 14.991 20.631ZM15.08 20.481C15.032 20.41 14.993 20.385 14.92 20.41C14.92 20.41 14.84 20.33 14.92 20.264C14.9781 20.2691 15.0325 20.295 15.073 20.337C15.0843 20.3591 15.0907 20.3834 15.0919 20.4083C15.0931 20.4331 15.0891 20.4579 15.08 20.481ZM18.934 15.985C19.542 15.985 20.034 16.2 20.034 16.465C20.034 16.73 19.542 16.944 18.934 16.944C18.326 16.944 17.834 16.729 17.834 16.464C17.834 16.199 18.327 15.985 18.934 15.985ZM18.934 15.745C19.361 15.745 19.706 15.903 19.706 16.097C19.706 16.291 19.361 16.449 18.934 16.449C18.507 16.449 18.163 16.292 18.163 16.097C18.163 15.902 18.508 15.746 18.934 15.746V15.745ZM18.934 18.224C18.7085 18.22 18.4869 18.2833 18.2974 18.4057C18.108 18.5282 17.9593 18.7042 17.8702 18.9115C17.7812 19.1187 17.7559 19.3478 17.7975 19.5695C17.8391 19.7912 17.9458 19.9954 18.104 20.1563C18.2621 20.3171 18.4646 20.4272 18.6855 20.4726C18.9065 20.518 19.1359 20.4965 19.3447 20.411C19.5534 20.3255 19.7319 20.1798 19.8576 19.9924C19.9832 19.8051 20.0502 19.5846 20.05 19.359C20.0524 19.0605 19.9362 18.7733 19.7269 18.5605C19.5177 18.3477 19.2325 18.2266 18.934 18.224ZM18.934 20.258C18.7556 20.261 18.5803 20.2108 18.4305 20.1138C18.2807 20.0169 18.1632 19.8775 18.0928 19.7136C18.0225 19.5496 18.0025 19.3684 18.0355 19.193C18.0685 19.0176 18.1529 18.856 18.278 18.7288C18.4031 18.6016 18.5632 18.5145 18.738 18.4785C18.9128 18.4426 19.0943 18.4595 19.2595 18.5271C19.4246 18.5947 19.5659 18.7099 19.6654 18.858C19.7648 19.0062 19.818 19.1806 19.818 19.359C19.8191 19.4761 19.797 19.5922 19.7532 19.7008C19.7093 19.8094 19.6444 19.9082 19.5623 19.9917C19.4802 20.0752 19.3825 20.1417 19.2747 20.1874C19.1669 20.2331 19.0511 20.2571 18.934 20.258ZM18.934 15.8C18.7692 15.8035 18.6046 15.7864 18.444 15.749C18.4343 15.7463 18.4253 15.7418 18.4174 15.7356C18.4095 15.7295 18.4028 15.7218 18.3979 15.713C18.393 15.7043 18.3898 15.6947 18.3887 15.6847C18.3875 15.6748 18.3883 15.6647 18.391 15.655C18.3933 15.6453 18.3976 15.6362 18.4035 15.6283C18.4094 15.6203 18.417 15.6136 18.4256 15.6087C18.4342 15.6037 18.4437 15.6006 18.4536 15.5994C18.4635 15.5983 18.4735 15.5991 18.483 15.602C18.7811 15.6578 19.0869 15.6578 19.385 15.602C19.3945 15.599 19.4046 15.598 19.4145 15.5991C19.4244 15.6001 19.434 15.6033 19.4427 15.6083C19.4513 15.6132 19.4588 15.62 19.4647 15.628C19.4707 15.6361 19.4748 15.6453 19.477 15.655C19.4826 15.6744 19.4802 15.6951 19.4705 15.7128C19.4607 15.7304 19.4444 15.7434 19.425 15.749C19.2644 15.7861 19.0998 15.8029 18.935 15.799L18.934 15.8ZM18.294 17.004C18.374 16.994 18.476 16.968 18.484 16.843C18.423 16.8345 18.3613 16.8331 18.3 16.839L18.293 17.004H18.294ZM16.483 16.882C16.426 16.868 16.328 16.739 16.454 16.538C16.58 16.337 16.024 16.638 16.004 16.804C15.982 16.969 15.961 17.262 16.088 17.184C16.215 17.104 16.483 16.882 16.483 16.882ZM17.957 19.795C17.947 19.742 17.892 19.641 17.825 19.635C17.825 19.635 17.747 19.493 17.836 19.442C17.8955 19.4763 17.9419 19.5294 17.968 19.593C17.9865 19.6597 17.982 19.7305 17.957 19.795ZM18.02 19.539C17.951 19.456 17.903 19.429 17.854 19.494C17.854 19.494 17.746 19.389 17.81 19.284C17.8391 19.281 17.8685 19.2848 17.8959 19.295C17.9233 19.3052 17.948 19.3217 17.968 19.343C18.005 19.4015 18.0231 19.4699 18.02 19.539ZM18.026 19.339C17.949 19.274 17.893 19.233 17.841 19.306C17.8099 19.287 17.7877 19.2564 17.779 19.221C17.7704 19.1856 17.7762 19.1482 17.795 19.117C17.8222 19.1126 17.85 19.1139 17.8767 19.1208C17.9033 19.1277 17.9283 19.14 17.95 19.157C17.9937 19.2082 18.0209 19.2719 18.026 19.339ZM17.994 19.093C17.911 19.053 17.864 19.057 17.826 19.147C17.7913 19.1376 17.7618 19.1149 17.7438 19.0838C17.7258 19.0527 17.7208 19.0157 17.73 18.981C17.73 18.981 17.824 18.899 17.894 18.935C17.964 18.97 17.994 19.093 17.994 19.093ZM19.569 17.004C19.488 16.994 19.385 16.968 19.379 16.844C19.4393 16.8353 19.5003 16.8336 19.561 16.839L19.569 17.004ZM21.379 16.882C21.435 16.868 21.534 16.739 21.407 16.538C21.28 16.337 21.837 16.638 21.858 16.804C21.879 16.97 21.9 17.262 21.774 17.184C21.647 17.104 21.379 16.882 21.379 16.882ZM24.883 21.602C24.8677 21.5767 24.8599 21.5476 24.8604 21.5181C24.861 21.4885 24.8698 21.4597 24.886 21.435C24.886 21.435 24.863 21.315 24.773 21.358C24.752 21.4099 24.7492 21.4673 24.765 21.521C24.7777 21.5421 24.7948 21.5602 24.8152 21.574C24.8356 21.5878 24.8587 21.598 24.883 21.602ZM24.699 21.534C24.701 21.448 24.72 21.4 24.789 21.394C24.789 21.394 24.806 21.268 24.704 21.268C24.6628 21.305 24.6359 21.3552 24.628 21.41C24.6303 21.4345 24.6379 21.4583 24.6501 21.4797C24.6623 21.5011 24.679 21.5196 24.699 21.534ZM24.586 21.45C24.603 21.365 24.619 21.306 24.696 21.3C24.7016 21.2876 24.7041 21.2741 24.7032 21.2605C24.7023 21.2469 24.698 21.2338 24.6908 21.2223C24.6836 21.2108 24.6736 21.2013 24.6617 21.1946C24.6499 21.1879 24.6366 21.1843 24.623 21.184C24.5824 21.2179 24.5528 21.2632 24.538 21.314C24.5358 21.3388 24.539 21.3637 24.5472 21.3872C24.5555 21.4107 24.5687 21.4321 24.586 21.45ZM24.473 21.319C24.508 21.239 24.543 21.208 24.618 21.219C24.618 21.219 24.683 21.126 24.593 21.076C24.593 21.076 24.483 21.108 24.455 21.176C24.4477 21.1997 24.4455 21.2248 24.4486 21.2494C24.4517 21.2741 24.46 21.2978 24.473 21.319ZM23.136 20.834C23.1254 20.8064 23.1227 20.7764 23.1284 20.7474C23.134 20.7184 23.1478 20.6916 23.168 20.67C23.168 20.67 23.166 20.548 23.07 20.574C23.0404 20.6214 23.0277 20.6775 23.034 20.733C23.0428 20.756 23.0565 20.7769 23.0741 20.7942C23.0917 20.8114 23.1128 20.8257 23.136 20.834ZM22.967 20.734C22.984 20.65 23.011 20.606 23.08 20.612C23.08 20.612 23.119 20.492 23.018 20.473C22.9708 20.5019 22.9354 20.5465 22.918 20.599C22.9159 20.6239 22.9193 20.6489 22.9277 20.6723C22.9362 20.6958 22.9496 20.7172 22.967 20.735V20.734ZM22.87 20.631C22.901 20.551 22.927 20.496 23.004 20.504C23.0119 20.4929 23.017 20.48 23.0187 20.4665C23.0204 20.4529 23.0187 20.4392 23.0137 20.4264C23.0087 20.4137 23.0007 20.4025 22.9902 20.3937C22.9798 20.3848 22.9674 20.3788 22.954 20.376C22.9074 20.4019 22.8698 20.4413 22.846 20.489C22.8397 20.513 22.8386 20.5381 22.8427 20.5626C22.8469 20.5871 22.8562 20.6104 22.87 20.631ZM22.782 20.481C22.83 20.41 22.869 20.385 22.942 20.41C22.942 20.41 23.022 20.33 22.942 20.264C22.8839 20.2691 22.8295 20.295 22.789 20.337C22.7777 20.3591 22.7713 20.3834 22.7701 20.4083C22.7689 20.4331 22.7729 20.4579 22.782 20.481ZM19.904 19.795C19.914 19.742 19.969 19.641 20.036 19.635C20.036 19.635 20.116 19.493 20.026 19.442C19.9665 19.4763 19.9201 19.5294 19.894 19.593C19.8755 19.6597 19.879 19.7305 19.904 19.795ZM19.842 19.539C19.91 19.456 19.959 19.429 20.008 19.494C20.008 19.494 20.116 19.389 20.052 19.284C20.0229 19.281 19.9935 19.2848 19.9661 19.295C19.9387 19.3052 19.914 19.3217 19.894 19.343C19.857 19.4015 19.8389 19.4699 19.842 19.539ZM19.836 19.339C19.913 19.274 19.968 19.233 20.021 19.306C20.0519 19.2868 20.074 19.2562 20.0824 19.2208C20.0908 19.1854 20.0849 19.1481 20.066 19.117C20.0388 19.1127 20.011 19.114 19.9843 19.1209C19.9577 19.1278 19.9327 19.1401 19.911 19.157C19.8674 19.2082 19.8411 19.2719 19.836 19.339ZM19.867 19.093C19.951 19.053 19.997 19.057 20.035 19.147C20.0697 19.1376 20.0992 19.1149 20.1172 19.0838C20.1352 19.0527 20.1402 19.0157 20.131 18.981C20.131 18.981 20.038 18.899 19.967 18.935C19.897 18.971 19.867 19.093 19.867 19.093Z"
		fill="#FFE15A"
	/>
	<path
		d="M19.701 16.327C19.7217 16.3701 19.7336 16.4169 19.7358 16.4647C19.738 16.5124 19.7306 16.5602 19.714 16.605C19.6664 16.6024 19.6199 16.59 19.5774 16.5684C19.5349 16.5469 19.4973 16.5168 19.467 16.48C19.4687 16.5302 19.4594 16.5801 19.4399 16.6264C19.4204 16.6727 19.3911 16.7142 19.354 16.748C19.3015 16.7325 19.2532 16.7051 19.2131 16.6678C19.173 16.6304 19.1422 16.5843 19.123 16.533C19.1141 16.5881 19.0923 16.6404 19.0595 16.6855C19.0267 16.7307 18.9837 16.7675 18.934 16.793C18.8837 16.7671 18.8403 16.7297 18.8073 16.6838C18.7743 16.6379 18.7526 16.5849 18.744 16.529C18.7251 16.5814 18.6942 16.6286 18.6537 16.6668C18.6133 16.705 18.5644 16.7332 18.511 16.749C18.4738 16.7151 18.4444 16.6734 18.4249 16.627C18.4053 16.5805 18.3962 16.5304 18.398 16.48C18.3676 16.5169 18.3299 16.5471 18.2872 16.5686C18.2445 16.5902 18.1978 16.6025 18.15 16.605C18.1334 16.5602 18.126 16.5124 18.1282 16.4647C18.1304 16.4169 18.1423 16.3701 18.163 16.327C18.1043 16.3494 18.0417 16.3596 17.979 16.357C17.97 16.216 18.144 16.034 18.235 15.947L18.334 16.201C18.3207 16.2179 18.306 16.2336 18.29 16.248L18.431 16.343L18.741 16.417H19.123L19.433 16.343L19.574 16.248C19.5584 16.2336 19.544 16.2179 19.531 16.201L19.63 15.947C19.72 16.034 19.894 16.216 19.885 16.357C19.8223 16.3596 19.7597 16.3494 19.701 16.327Z"
		fill="#FF82AA"
	/>
	<path
		d="M21.814 16.335C21.8136 16.361 21.8055 16.3863 21.7908 16.4078C21.776 16.4292 21.7553 16.4458 21.7311 16.4555C21.707 16.4652 21.6805 16.4675 21.655 16.4622C21.6296 16.4569 21.6062 16.4442 21.588 16.4256C21.5697 16.4071 21.5573 16.3836 21.5524 16.358C21.5475 16.3325 21.5502 16.306 21.5602 16.282C21.5703 16.258 21.5872 16.2375 21.6089 16.2231C21.6305 16.2087 21.656 16.201 21.682 16.201C21.6995 16.2011 21.7167 16.2047 21.7328 16.2115C21.7489 16.2183 21.7635 16.2282 21.7758 16.2407C21.788 16.2531 21.7977 16.2678 21.8043 16.284C21.8108 16.3002 21.8141 16.3175 21.814 16.335ZM21.411 15.738C21.3893 15.7376 21.368 15.7437 21.3498 15.7555C21.3316 15.7672 21.3173 15.7842 21.3088 15.8041C21.3003 15.8241 21.2979 15.8461 21.3019 15.8674C21.306 15.8887 21.3163 15.9083 21.3316 15.9237C21.3468 15.9391 21.3663 15.9496 21.3876 15.9539C21.4089 15.9581 21.4309 15.9559 21.4509 15.9476C21.471 15.9393 21.488 15.9251 21.5 15.907C21.5119 15.8889 21.5182 15.8677 21.518 15.846C21.518 15.8175 21.5068 15.7902 21.4867 15.77C21.4667 15.7498 21.4395 15.7383 21.411 15.738ZM16.557 15.846C16.5568 15.8671 16.5504 15.8877 16.5385 15.9052C16.5266 15.9226 16.5098 15.9362 16.4903 15.9441C16.4707 15.9521 16.4492 15.9541 16.4285 15.9498C16.4078 15.9456 16.3889 15.9353 16.374 15.9203C16.3591 15.9053 16.349 15.8862 16.345 15.8655C16.3409 15.8448 16.3431 15.8233 16.3512 15.8038C16.3594 15.7843 16.3731 15.7677 16.3907 15.756C16.4082 15.7443 16.4289 15.738 16.45 15.738C16.4785 15.7383 16.5057 15.7498 16.5257 15.77C16.5458 15.7902 16.557 15.8175 16.557 15.846ZM16.179 16.201C16.1524 16.2006 16.1263 16.2081 16.104 16.2226C16.0817 16.2371 16.0642 16.2579 16.0538 16.2823C16.0433 16.3068 16.0404 16.3338 16.0453 16.3599C16.0503 16.386 16.0629 16.4101 16.0815 16.429C16.1002 16.448 16.1241 16.4609 16.1501 16.4663C16.1762 16.4716 16.2032 16.4691 16.2278 16.459C16.2524 16.4489 16.2735 16.4317 16.2883 16.4097C16.3031 16.3876 16.311 16.3616 16.311 16.335C16.3113 16.2999 16.2976 16.2661 16.2731 16.241C16.2486 16.2159 16.2141 16.2015 16.179 16.201Z"
		fill="#F5F5F5"
	/>
	<path
		d="M18.992 20.05C18.9021 20.057 18.8117 20.0461 18.726 20.0181C18.6403 19.9901 18.5609 19.9455 18.4925 19.8868C18.424 19.8281 18.3678 19.7565 18.3271 19.676C18.2863 19.5956 18.2618 19.5079 18.255 19.418C18.2511 19.3733 18.2561 19.3284 18.2696 19.2856C18.2831 19.2429 18.3051 19.2038 18.3339 19.1694C18.3628 19.1351 18.3979 19.1063 18.4376 19.0857C18.4774 19.065 18.5209 19.0534 18.5655 19.0495C18.6101 19.0456 18.6551 19.0496 18.6979 19.0631C18.7406 19.0766 18.7802 19.0984 18.8146 19.1272C18.8489 19.1561 18.8772 19.1914 18.8978 19.2311C18.9185 19.2709 18.9311 19.3143 18.935 19.359C18.9428 19.4489 18.986 19.532 19.0552 19.5901C19.1243 19.6481 19.2136 19.6773 19.3035 19.6695C19.3934 19.6617 19.4767 19.618 19.5348 19.5488C19.5928 19.4797 19.6208 19.3899 19.613 19.3C19.6297 19.4816 19.5739 19.6624 19.4577 19.8029C19.3415 19.9434 19.1735 20.0323 18.992 20.05ZM19.273 19.272C19.2903 19.2716 19.3073 19.2764 19.3219 19.2857C19.3364 19.295 19.3479 19.3084 19.3548 19.3243C19.3617 19.3402 19.3637 19.3577 19.3606 19.3747C19.3574 19.3917 19.3493 19.4074 19.3372 19.4198C19.3251 19.4321 19.3097 19.4406 19.2927 19.4442C19.2758 19.4477 19.2582 19.4461 19.2422 19.4396C19.2262 19.433 19.2125 19.4219 19.2028 19.4075C19.1932 19.3932 19.188 19.3763 19.188 19.359C19.1879 19.3477 19.19 19.3365 19.1942 19.326C19.1984 19.3155 19.2046 19.306 19.2125 19.2979C19.2204 19.2898 19.2298 19.2834 19.2402 19.2789C19.2505 19.2745 19.2617 19.2721 19.273 19.272ZM19.121 14.97C19.191 14.568 19.381 14.265 19.544 14.295C19.707 14.325 19.781 14.675 19.71 15.078C19.684 15.3106 19.5845 15.5288 19.426 15.701C19.484 15.8197 19.5114 15.951 19.506 16.083C19.3213 16.1031 19.1347 16.0691 18.969 15.985C19.009 15.8595 19.0798 15.746 19.175 15.655C19.085 15.4381 19.0661 15.1983 19.121 14.97ZM16.18 16.286C16.1897 16.2858 16.1993 16.2885 16.2075 16.2938C16.2157 16.299 16.2221 16.3066 16.226 16.3155C16.2298 16.3245 16.231 16.3344 16.2292 16.3439C16.2274 16.3535 16.2228 16.3623 16.216 16.3693C16.2092 16.3762 16.2005 16.381 16.1909 16.383C16.1814 16.3849 16.1715 16.384 16.1625 16.3804C16.1535 16.3767 16.1458 16.3704 16.1403 16.3623C16.1349 16.3542 16.132 16.3447 16.132 16.335C16.1319 16.3286 16.133 16.3223 16.1354 16.3163C16.1377 16.3104 16.1412 16.305 16.1457 16.3004C16.1502 16.2958 16.1555 16.2922 16.1614 16.2897C16.1673 16.2873 16.1736 16.286 16.18 16.286ZM16.45 15.806C16.458 15.8058 16.4658 15.808 16.4725 15.8123C16.4792 15.8165 16.4845 15.8227 16.4877 15.83C16.4908 15.8373 16.4918 15.8453 16.4903 15.8532C16.4889 15.861 16.4852 15.8682 16.4796 15.8739C16.4741 15.8796 16.467 15.8835 16.4592 15.8851C16.4514 15.8868 16.4433 15.886 16.4359 15.883C16.4286 15.88 16.4223 15.8749 16.4178 15.8683C16.4134 15.8617 16.411 15.854 16.411 15.846C16.411 15.8354 16.4152 15.8252 16.4227 15.8177C16.4302 15.8102 16.4394 15.806 16.45 15.806ZM21.682 16.286C21.6917 16.2858 21.7013 16.2885 21.7095 16.2938C21.7177 16.299 21.7241 16.3066 21.728 16.3155C21.7318 16.3245 21.733 16.3344 21.7312 16.3439C21.7294 16.3535 21.7248 16.3623 21.718 16.3693C21.7112 16.3762 21.7025 16.381 21.6929 16.383C21.6834 16.3849 21.6735 16.384 21.6645 16.3804C21.6555 16.3767 21.6478 16.3704 21.6423 16.3623C21.6369 16.3542 21.634 16.3447 21.634 16.335C21.6339 16.3286 21.635 16.3223 21.6374 16.3163C21.6397 16.3104 21.6432 16.305 21.6477 16.3004C21.6522 16.2958 21.6575 16.2922 21.6634 16.2897C21.6693 16.2873 21.6756 16.286 21.682 16.286ZM21.411 15.806C21.419 15.8058 21.4268 15.808 21.4335 15.8123C21.4402 15.8165 21.4455 15.8227 21.4487 15.83C21.4518 15.8373 21.4528 15.8453 21.4514 15.8532C21.4499 15.861 21.4462 15.8682 21.4406 15.8739C21.4351 15.8796 21.428 15.8835 21.4202 15.8851C21.4124 15.8868 21.4043 15.886 21.3969 15.883C21.3896 15.88 21.3833 15.8749 21.3788 15.8683C21.3744 15.8617 21.372 15.854 21.372 15.846C21.372 15.8356 21.3761 15.8255 21.3834 15.8181C21.3906 15.8106 21.4006 15.8063 21.411 15.806Z"
		fill="#41479B"
	/>
	<path
		d="M12.657 18.474L12.422 18.773C12.3028 18.7614 12.1859 18.7324 12.075 18.687C11.9665 18.6432 11.847 18.6343 11.7332 18.6615C11.6194 18.6888 11.5169 18.7508 11.44 18.839C11.44 18.839 11.436 18.589 11.819 18.459C12.115 18.359 12.535 18.569 12.657 18.474ZM26.043 18.459C25.747 18.359 25.326 18.569 25.204 18.474L25.44 18.773C25.5592 18.7614 25.6761 18.7324 25.787 18.687C25.8955 18.6432 26.015 18.6343 26.1288 18.6615C26.2426 18.6888 26.3451 18.7508 26.422 18.839C26.422 18.839 26.426 18.589 26.043 18.459Z"
		fill="#FFF5E6"
	/>
</svg>
