<svg viewBox="0 0 36 24" fill="none" xmlns="http://www.w3.org/2000/svg">
	<path d="M36 24H0V0H36" fill="#FF4B55" />
	<path
		d="M20.72 13.557L19.158 13.091L18.211 14.418C18.1994 14.4341 18.183 14.4462 18.1642 14.4525C18.1453 14.4588 18.125 14.459 18.106 14.4532C18.087 14.4473 18.0703 14.4357 18.0583 14.4199C18.0463 14.404 18.0395 14.3849 18.039 14.365L17.999 12.735L16.445 12.245C16.4261 12.239 16.4095 12.2271 16.3976 12.2112C16.3858 12.1952 16.3792 12.176 16.3789 12.1561C16.3786 12.1362 16.3845 12.1167 16.3958 12.1004C16.4071 12.084 16.4233 12.0717 16.442 12.065L17.979 11.525L17.965 9.895C17.9649 9.87514 17.9709 9.85574 17.9824 9.83952C17.9938 9.82329 18.0101 9.81107 18.0288 9.80456C18.0476 9.79805 18.0679 9.79758 18.087 9.80322C18.106 9.80886 18.1228 9.82032 18.135 9.836L19.125 11.131L20.671 10.614C20.6897 10.608 20.7099 10.608 20.7286 10.614C20.7473 10.62 20.7638 10.6316 20.7756 10.6473C20.7875 10.663 20.7942 10.6819 20.7948 10.7016C20.7954 10.7213 20.7899 10.7406 20.779 10.757L19.853 12.099L20.823 13.409C20.8349 13.425 20.8416 13.4443 20.8419 13.4643C20.8422 13.4842 20.8363 13.5038 20.8249 13.5202C20.8135 13.5365 20.7972 13.5489 20.7784 13.5555C20.7596 13.5621 20.7391 13.5627 20.72 13.557ZM15.458 16.194C14.6333 16.7563 13.6582 17.0567 12.66 17.056C11.3191 17.056 10.0331 16.5233 9.08487 15.5751C8.13668 14.6269 7.604 13.3409 7.604 12C7.604 10.6591 8.13668 9.37305 9.08487 8.42487C10.0331 7.47668 11.3191 6.944 12.66 6.944C13.6563 6.94348 14.6296 7.24318 15.453 7.804C15.4776 7.82384 15.5089 7.83337 15.5403 7.83059C15.5718 7.82782 15.601 7.81295 15.6217 7.78912C15.6424 7.76529 15.6531 7.73435 15.6515 7.70281C15.6498 7.67127 15.6361 7.64158 15.613 7.62C15.0024 6.9811 14.2634 6.47865 13.4448 6.14567C12.6261 5.81269 11.7462 5.65672 10.863 5.688C9.20889 5.74688 7.64399 6.45271 6.50499 7.65364C5.366 8.85457 4.74393 10.4546 4.77263 12.1095C4.80133 13.7644 5.4785 15.3419 6.65846 16.5027C7.83841 17.6634 9.42684 18.3145 11.082 18.316C11.9298 18.3163 12.7689 18.1445 13.5485 17.8111C14.328 17.4776 15.0317 16.9894 15.617 16.376C15.6411 16.3548 15.6559 16.3248 15.6579 16.2928C15.66 16.2607 15.6492 16.2291 15.628 16.205C15.6068 16.1809 15.5768 16.1661 15.5448 16.1641C15.5127 16.162 15.4811 16.1728 15.457 16.194H15.458Z"
		fill="#F5F5F5"
	/>
</svg>
