<svg viewBox="0 0 36 24" fill="none" xmlns="http://www.w3.org/2000/svg">
	<path d="M36 24H0V0H36" fill="#73AF00" />
	<path
		d="M4.965 0V24H11.173V0H4.965ZM10.552 16L9.31 17.052H6.828L5.586 16V14.947L6.828 13.895H9.31L10.552 14.947V16ZM10.552 11.579L9.31 12.63H6.828L5.586 11.58V10.527L6.828 9.475H9.31L10.552 10.527V11.579ZM10.552 7.158L9.31 8.21H6.828L5.586 7.158V6.105L6.828 5.053H9.31L10.552 6.105V7.158ZM6.827 6.316H9.31V6.947H6.827V6.316ZM6.827 10.106H9.31V12H6.827V10.106ZM7.758 14.526H8.379V15.158H7.759L7.758 14.526ZM7.758 15.789H8.379V16.42H7.759L7.758 15.789Z"
		fill="#FF4B55"
	/>
	<path
		d="M10.552 1.684V2.737L9.31 3.789H6.828L5.586 2.737V1.684L6.828 0.632H9.31L10.552 1.684ZM6.828 18.315L5.586 19.368V20.421L6.828 21.473H9.31L10.552 20.421V19.368L9.31 18.315H6.828ZM7.758 10.736V11.368H8.379V10.736H7.758Z"
		fill="#F5F5F5"
	/>
	<path
		d="M6.207 4.421L4.966 5.684V3.158L6.207 4.421ZM11.172 5.684V3.158L9.931 4.42L11.172 5.684ZM4.966 7.58V10.106L6.206 8.843L4.966 7.58ZM11.172 10.106V7.58L9.931 8.842L11.172 10.106ZM4.966 12V14.526L6.206 13.263L4.966 12ZM11.172 14.526V12L9.931 13.263L11.172 14.526ZM4.966 16.421V18.947L6.206 17.684L4.966 16.421ZM11.172 18.947V16.421L9.931 17.684L11.172 18.947ZM4.965 0L4.966 1.263L6.206 0H4.965ZM9.93 0L11.171 1.263V0H9.93ZM7.758 8.21H8.379V5.054H7.759L7.758 8.21ZM9.931 5.58L9.311 5.054L9.31 8.21L9.931 7.684V5.58ZM6.828 5.053L6.207 5.58V7.685L6.827 8.211L6.828 5.053ZM5.586 2.21H8.07V0.63H6.828L5.586 1.684V2.21ZM9.31 3.789L10.552 2.737V2.21H8.07L8.069 3.788L9.31 3.789ZM9.93 10.736H9.31V11.368H9.93V10.736ZM8.69 15.79H9.31V15.159H8.69V15.79ZM7.448 15.159H6.828V15.79H7.448V15.159ZM6.828 10.737H6.208V11.369H6.828V10.737ZM6.828 18.317L5.586 19.368V19.895H8.07V18.316L6.828 18.317ZM8.068 21.474H9.31L10.552 20.422V19.895H8.07L8.068 21.474Z"
		fill="#FFB400"
	/>
	<path
		d="M8.069 3.158L6.828 2.214L8.068 1.264L9.31 2.214L8.069 3.158ZM6.828 19.578V20.21L8.068 20.842L9.31 20.21V19.579L8.069 18.947L6.828 19.578Z"
		fill="#FF4B55"
	/>
	<path
		d="M21.77 6.808C21.775 7.29952 21.6829 7.78719 21.4989 8.243C21.3149 8.69881 21.0427 9.11378 20.6978 9.46409C20.353 9.81439 19.9424 10.0931 19.4895 10.2843C19.0367 10.4754 18.5505 10.5753 18.059 10.578C17.3146 10.578 16.5888 10.3455 15.983 9.913C15.9702 9.90426 15.961 9.89125 15.957 9.87632C15.953 9.86139 15.9544 9.84551 15.961 9.83154C15.9676 9.81756 15.979 9.80641 15.9931 9.80008C16.0073 9.79375 16.0232 9.79266 16.038 9.797C16.3836 9.90713 16.7442 9.96313 17.107 9.963C17.8443 9.94793 18.5606 9.71463 19.1654 9.29259C19.7702 8.87056 20.2362 8.27872 20.5048 7.59187C20.7733 6.90502 20.8321 6.15398 20.674 5.43368C20.5158 4.71338 20.1476 4.05613 19.616 3.545C19.6049 3.53437 19.598 3.52016 19.5964 3.50491C19.5948 3.48965 19.5987 3.47432 19.6073 3.46163C19.6159 3.44894 19.6287 3.43971 19.6435 3.43557C19.6583 3.43143 19.674 3.43264 19.688 3.439C20.3138 3.75196 20.84 4.23301 21.2077 4.82824C21.5755 5.42346 21.7702 6.10834 21.77 6.808ZM14.485 6.313L14.637 5.876C14.6414 5.8638 14.6418 5.85053 14.6383 5.83807C14.6347 5.82561 14.6273 5.81457 14.6172 5.80652C14.607 5.79846 14.5946 5.79379 14.5817 5.79316C14.5687 5.79253 14.5559 5.79597 14.545 5.803L14.166 6.06L13.804 5.778C13.7936 5.77062 13.7813 5.76661 13.7685 5.7665C13.7558 5.7664 13.7434 5.7702 13.7329 5.77741C13.7224 5.78461 13.7144 5.79487 13.71 5.80678C13.7055 5.81869 13.7048 5.83169 13.708 5.844L13.831 6.291L13.456 6.553C13.4455 6.56054 13.4376 6.57113 13.4333 6.58333C13.429 6.59553 13.4286 6.60876 13.4321 6.6212C13.4356 6.63365 13.4428 6.64473 13.4528 6.65292C13.4628 6.66111 13.4751 6.66603 13.488 6.667L13.943 6.687L14.073 7.131C14.0765 7.1434 14.0839 7.15435 14.0941 7.16229C14.1042 7.17023 14.1167 7.17474 14.1295 7.17519C14.1424 7.17563 14.1551 7.17198 14.1658 7.16476C14.1765 7.15754 14.1846 7.14712 14.189 7.135L14.347 6.7L14.803 6.712C14.8158 6.71184 14.8283 6.70776 14.8387 6.70032C14.8492 6.69288 14.8571 6.68243 14.8615 6.67036C14.8658 6.6583 14.8664 6.64519 14.8631 6.63279C14.8598 6.6204 14.8528 6.60931 14.843 6.601L14.485 6.313ZM16.034 8.083L16.192 7.648L16.647 7.66C16.6601 7.66008 16.6728 7.6561 16.6835 7.64861C16.6942 7.64112 16.7023 7.63049 16.7067 7.61819C16.7111 7.60589 16.7116 7.59253 16.7081 7.57995C16.7045 7.56738 16.6972 7.55621 16.687 7.548L16.33 7.261L16.482 6.824C16.4864 6.8118 16.4868 6.79853 16.4833 6.78607C16.4797 6.77361 16.4723 6.76257 16.4622 6.75452C16.452 6.74646 16.4396 6.74179 16.4267 6.74116C16.4137 6.74053 16.4009 6.74397 16.39 6.751L16.01 7.008L15.65 6.726C15.6397 6.71824 15.6271 6.71391 15.6142 6.71361C15.6013 6.71331 15.5886 6.71706 15.5779 6.72433C15.5672 6.73161 15.5591 6.74204 15.5546 6.75417C15.5501 6.76631 15.5496 6.77953 15.553 6.792L15.675 7.239L15.3 7.501C15.2895 7.50854 15.2816 7.51913 15.2773 7.53133C15.273 7.54353 15.2726 7.55676 15.2761 7.5692C15.2796 7.58165 15.2868 7.59273 15.2968 7.60092C15.3068 7.60911 15.3191 7.61403 15.332 7.615L15.788 7.635L15.918 8.079C15.9217 8.09135 15.9291 8.10223 15.9394 8.11007C15.9496 8.11791 15.962 8.12232 15.9749 8.12265C15.9878 8.12298 16.0004 8.11923 16.0111 8.11193C16.0217 8.10462 16.0297 8.09415 16.034 8.082V8.083ZM15.314 5.663L15.769 5.681L15.899 6.126C15.9025 6.1384 15.9099 6.14935 15.9201 6.15729C15.9302 6.16523 15.9427 6.16974 15.9555 6.17019C15.9684 6.17063 15.9811 6.16698 15.9918 6.15976C16.0025 6.15254 16.0106 6.14212 16.015 6.13L16.173 5.695L16.629 5.707C16.6418 5.70684 16.6543 5.70276 16.6647 5.69532C16.6752 5.68788 16.6831 5.67743 16.6875 5.66536C16.6918 5.6533 16.6924 5.64019 16.6891 5.62779C16.6858 5.6154 16.6788 5.60431 16.669 5.596L16.311 5.308L16.463 4.871C16.4674 4.8588 16.4678 4.84553 16.4643 4.83307C16.4607 4.82061 16.4533 4.80957 16.4432 4.80152C16.433 4.79346 16.4206 4.78879 16.4077 4.78816C16.3947 4.78753 16.3819 4.79097 16.371 4.798L15.992 5.055L15.63 4.773C15.6196 4.76562 15.6073 4.76161 15.5945 4.7615C15.5818 4.7614 15.5694 4.7652 15.5589 4.77241C15.5484 4.77961 15.5404 4.78987 15.536 4.80178C15.5315 4.81369 15.5308 4.82669 15.534 4.839L15.657 5.286L15.281 5.549C15.2708 5.55671 15.2632 5.56733 15.2592 5.57945C15.2552 5.59156 15.255 5.60461 15.2586 5.61686C15.2622 5.62911 15.2694 5.63999 15.2793 5.64805C15.2892 5.65611 15.3013 5.66197 15.314 5.663ZM15.377 3.777L15.832 3.797L15.962 4.241C15.9655 4.2534 15.9729 4.26435 15.9831 4.27229C15.9932 4.28023 16.0057 4.28474 16.0185 4.28519C16.0314 4.28563 16.0441 4.28198 16.0548 4.27476C16.0655 4.26754 16.0736 4.25712 16.078 4.245L16.236 3.81L16.692 3.822C16.7048 3.82184 16.7173 3.81776 16.7277 3.81032C16.7382 3.80288 16.7461 3.79243 16.7505 3.78036C16.7548 3.7683 16.7554 3.75519 16.7521 3.74279C16.7488 3.7304 16.7418 3.71931 16.732 3.711L16.374 3.423L16.526 2.986C16.5304 2.9738 16.5308 2.96053 16.5273 2.94807C16.5237 2.93561 16.5163 2.92457 16.5062 2.91652C16.496 2.90846 16.4836 2.90379 16.4707 2.90316C16.4577 2.90253 16.4449 2.90597 16.434 2.913L16.054 3.17L15.694 2.888C15.6836 2.88007 15.6709 2.87564 15.6579 2.87533C15.6448 2.87503 15.632 2.87887 15.6212 2.8863C15.6104 2.89374 15.6023 2.90439 15.5979 2.91673C15.5936 2.92906 15.5933 2.94246 15.597 2.955L15.72 3.401L15.344 3.664C15.3338 3.67171 15.3262 3.68233 15.3222 3.69445C15.3182 3.70656 15.318 3.71961 15.3216 3.73186C15.3252 3.74411 15.3324 3.75499 15.3423 3.76305C15.3522 3.77111 15.3643 3.77597 15.377 3.777ZM17.184 4.725L17.639 4.745L17.769 5.189C17.7725 5.2014 17.7799 5.21235 17.7901 5.22029C17.8002 5.22823 17.8127 5.23274 17.8255 5.23319C17.8384 5.23363 17.8511 5.22998 17.8618 5.22276C17.8725 5.21554 17.8806 5.20512 17.885 5.193L18.044 4.758L18.499 4.77C18.5118 4.76984 18.5243 4.76576 18.5347 4.75832C18.5452 4.75088 18.5531 4.74043 18.5575 4.72836C18.5618 4.7163 18.5624 4.70319 18.5591 4.69079C18.5558 4.6784 18.5488 4.66731 18.539 4.659L18.182 4.371L18.333 3.934C18.3371 3.92193 18.3375 3.90888 18.3339 3.89663C18.3303 3.88437 18.3231 3.87351 18.3131 3.86553C18.3032 3.85754 18.291 3.85283 18.2783 3.85202C18.2656 3.8512 18.2529 3.85434 18.242 3.861L17.862 4.118L17.501 3.836C17.4907 3.82824 17.4781 3.82391 17.4652 3.82361C17.4523 3.82331 17.4396 3.82706 17.4289 3.83433C17.4182 3.84161 17.4101 3.85204 17.4056 3.86417C17.4011 3.87631 17.4006 3.88953 17.404 3.902L17.527 4.349L17.152 4.612C17.1419 4.61965 17.1343 4.63018 17.1302 4.64222C17.1262 4.65425 17.1259 4.66723 17.1293 4.67945C17.1328 4.69166 17.1399 4.70255 17.1496 4.71068C17.1594 4.71881 17.1714 4.7238 17.184 4.725Z"
		fill="#F5F5F5"
	/>
	<path
		d="M8.069 3.158L9.31 2.214L9.305 2.211H8.069V3.158ZM8.069 2.211V1.263L6.832 2.211H8.069Z"
		fill="#73AF00"
	/>
</svg>
