<svg viewBox="0 0 36 24" fill="none" xmlns="http://www.w3.org/2000/svg">
	<path d="M36 24H0V16H36V24Z" fill="#73AF00" />
	<path d="M0 0.459H36V16H0V0.459Z" fill="#F5F5F5" />
	<path
		d="M36 7.29V8.287H0V7.289L36 7.29ZM0 16.71H36V15.713H0V16.71Z"
		fill="#FF4B55"
	/>
	<path
		d="M0 0V7.289L36 7.29V0H0ZM8.032 6.131C7.63493 6.34821 7.1896 6.46203 6.737 6.462C6.00585 6.44526 5.31013 6.14372 4.79801 5.62161C4.2859 5.0995 3.99786 4.39808 3.99525 3.66674C3.99265 2.9354 4.27567 2.23194 4.78405 1.70619C5.29243 1.18045 5.98599 0.873955 6.717 0.852C7.1753 0.848435 7.62692 0.962028 8.029 1.182C8.04271 1.19001 8.05343 1.20228 8.05954 1.21693C8.06565 1.23159 8.06682 1.24784 8.06286 1.26322C8.0589 1.27859 8.05004 1.29226 8.03761 1.30215C8.02518 1.31204 8.00987 1.3176 7.994 1.318H7.98C7.36816 1.33065 6.78566 1.58259 6.35743 2.01976C5.9292 2.45694 5.68936 3.04453 5.68936 3.6565C5.68936 4.26847 5.9292 4.85606 6.35743 5.29324C6.78566 5.73041 7.36816 5.98235 7.98 5.995H7.996C8.01241 5.99428 8.02857 5.9992 8.04181 6.00893C8.05504 6.01866 8.06455 6.03263 8.06875 6.04851C8.07296 6.06439 8.0716 6.08123 8.06492 6.09623C8.05823 6.11124 8.04662 6.12351 8.032 6.131ZM10.318 5.746L10.056 5.943L10.154 6.258C10.1569 6.26679 10.157 6.27628 10.1543 6.28512C10.1515 6.29397 10.146 6.30171 10.1386 6.30725C10.1312 6.31279 10.1222 6.31585 10.1129 6.31598C10.1037 6.31612 10.0946 6.31332 10.087 6.308L9.823 6.115L9.559 6.307C9.55144 6.31275 9.54222 6.31589 9.53272 6.31597C9.52323 6.31604 9.51396 6.31304 9.50631 6.30742C9.49866 6.30179 9.49303 6.29384 9.49027 6.28475C9.48751 6.27567 9.48777 6.26593 9.491 6.257L9.589 5.943L9.329 5.746C9.32194 5.74034 9.31675 5.73268 9.31411 5.72402C9.31146 5.71536 9.3115 5.70611 9.3142 5.69747C9.3169 5.68883 9.32214 5.6812 9.32924 5.67559C9.33634 5.66997 9.34497 5.66663 9.354 5.666L9.679 5.663L9.781 5.35C9.78403 5.34141 9.78964 5.33397 9.79708 5.32871C9.80451 5.32345 9.81339 5.32062 9.8225 5.32062C9.83161 5.32062 9.84049 5.32345 9.84792 5.32871C9.85536 5.33397 9.86097 5.34141 9.864 5.35L9.967 5.663L10.292 5.666C10.3011 5.66645 10.3099 5.66966 10.3171 5.6752C10.3244 5.68074 10.3298 5.68836 10.3326 5.69704C10.3354 5.70571 10.3355 5.71504 10.3329 5.72379C10.3303 5.73253 10.3251 5.74028 10.318 5.746ZM12.606 5.746L12.344 5.943L12.442 6.258C12.4449 6.26679 12.445 6.27628 12.4423 6.28512C12.4395 6.29397 12.434 6.30171 12.4266 6.30725C12.4192 6.31279 12.4102 6.31585 12.4009 6.31598C12.3917 6.31612 12.3826 6.31332 12.375 6.308L12.111 6.115L11.847 6.307C11.8394 6.31232 11.8303 6.31512 11.8211 6.31498C11.8118 6.31485 11.8028 6.31179 11.7954 6.30625C11.788 6.30071 11.7825 6.29297 11.7797 6.28412C11.777 6.27528 11.7771 6.26579 11.78 6.257L11.878 5.943L11.616 5.746C11.6089 5.74028 11.6037 5.73253 11.6011 5.72379C11.5985 5.71504 11.5986 5.70571 11.6014 5.69704C11.6042 5.68836 11.6096 5.68074 11.6169 5.6752C11.6241 5.66966 11.6329 5.66645 11.642 5.666L11.967 5.663L12.069 5.35C12.0715 5.34089 12.0769 5.33284 12.0844 5.3271C12.0919 5.32137 12.1011 5.31826 12.1105 5.31826C12.1199 5.31826 12.1291 5.32137 12.1366 5.3271C12.1441 5.33284 12.1495 5.34089 12.152 5.35L12.255 5.663L12.58 5.666C12.5891 5.66645 12.5979 5.66966 12.6051 5.6752C12.6124 5.68074 12.6178 5.68836 12.6206 5.69704C12.6234 5.70571 12.6235 5.71504 12.6209 5.72379C12.6183 5.73253 12.6131 5.74028 12.606 5.746ZM12.606 3.573L12.344 3.77L12.442 4.085C12.4449 4.09379 12.445 4.10328 12.4423 4.11212C12.4395 4.12097 12.434 4.12871 12.4266 4.13425C12.4192 4.13979 12.4102 4.14285 12.4009 4.14298C12.3917 4.14312 12.3826 4.14032 12.375 4.135L12.111 3.942L11.847 4.134C11.8394 4.13932 11.8303 4.14212 11.8211 4.14198C11.8118 4.14185 11.8028 4.13879 11.7954 4.13325C11.788 4.12771 11.7825 4.11997 11.7797 4.11112C11.777 4.10228 11.7771 4.09279 11.78 4.084L11.878 3.77L11.616 3.573C11.6089 3.56728 11.6037 3.55953 11.6011 3.55079C11.5985 3.54204 11.5986 3.53271 11.6014 3.52404C11.6042 3.51536 11.6096 3.50774 11.6169 3.5022C11.6241 3.49666 11.6329 3.49345 11.642 3.493L11.967 3.49L12.069 3.177C12.0715 3.16789 12.0769 3.15984 12.0844 3.1541C12.0919 3.14837 12.1011 3.14526 12.1105 3.14526C12.1199 3.14526 12.1291 3.14837 12.1366 3.1541C12.1441 3.15984 12.1495 3.16789 12.152 3.177L12.255 3.49L12.58 3.493C12.5891 3.49345 12.5979 3.49666 12.6051 3.5022C12.6124 3.50774 12.6178 3.51536 12.6206 3.52404C12.6234 3.53271 12.6235 3.54204 12.6209 3.55079C12.6183 3.55953 12.6131 3.56728 12.606 3.573ZM14.894 5.746L14.633 5.943L14.731 6.258C14.7342 6.26693 14.7345 6.27667 14.7317 6.28575C14.729 6.29484 14.7233 6.30279 14.7157 6.30842C14.708 6.31404 14.6988 6.31704 14.6893 6.31697C14.6798 6.31689 14.6706 6.31375 14.663 6.308L14.399 6.115L14.135 6.307C14.1274 6.31232 14.1183 6.31512 14.1091 6.31498C14.0998 6.31485 14.0908 6.31179 14.0834 6.30625C14.076 6.30071 14.0705 6.29297 14.0677 6.28412C14.065 6.27528 14.0651 6.26579 14.068 6.257L14.166 5.943L13.904 5.746C13.8969 5.74028 13.8917 5.73253 13.8891 5.72379C13.8865 5.71504 13.8866 5.70571 13.8894 5.69704C13.8922 5.68836 13.8976 5.68074 13.9049 5.6752C13.9121 5.66966 13.9209 5.66645 13.93 5.666L14.255 5.663L14.358 5.35C14.361 5.34141 14.3666 5.33397 14.3741 5.32871C14.3815 5.32345 14.3904 5.32062 14.3995 5.32062C14.4086 5.32062 14.4175 5.32345 14.4249 5.32871C14.4324 5.33397 14.438 5.34141 14.441 5.35L14.543 5.663L14.868 5.666C14.8771 5.66645 14.8859 5.66966 14.8931 5.6752C14.9004 5.68074 14.9058 5.68836 14.9086 5.69704C14.9114 5.70571 14.9115 5.71504 14.9089 5.72379C14.9063 5.73253 14.9011 5.74028 14.894 5.746ZM14.894 3.573L14.633 3.77L14.731 4.085C14.7342 4.09393 14.7345 4.10367 14.7317 4.11275C14.729 4.12184 14.7233 4.12979 14.7157 4.13542C14.708 4.14104 14.6988 4.14404 14.6893 4.14397C14.6798 4.14389 14.6706 4.14075 14.663 4.135L14.399 3.942L14.135 4.134C14.1274 4.13932 14.1183 4.14212 14.1091 4.14198C14.0998 4.14185 14.0908 4.13879 14.0834 4.13325C14.076 4.12771 14.0705 4.11997 14.0677 4.11112C14.065 4.10228 14.0651 4.09279 14.068 4.084L14.166 3.77L13.904 3.573C13.8969 3.56728 13.8917 3.55953 13.8891 3.55079C13.8865 3.54204 13.8866 3.53271 13.8894 3.52404C13.8922 3.51536 13.8976 3.50774 13.9049 3.5022C13.9121 3.49666 13.9209 3.49345 13.93 3.493L14.255 3.49L14.358 3.177C14.3605 3.16789 14.3659 3.15984 14.3734 3.1541C14.3809 3.14837 14.3901 3.14526 14.3995 3.14526C14.4089 3.14526 14.4181 3.14837 14.4256 3.1541C14.4331 3.15984 14.4385 3.16789 14.441 3.177L14.543 3.49L14.868 3.493C14.8771 3.49345 14.8859 3.49666 14.8931 3.5022C14.9004 3.50774 14.9058 3.51536 14.9086 3.52404C14.9114 3.53271 14.9115 3.54204 14.9089 3.55079C14.9063 3.55953 14.9011 3.56728 14.894 3.573ZM14.894 1.4L14.633 1.596L14.731 1.912C14.7342 1.92093 14.7345 1.93067 14.7317 1.93975C14.729 1.94884 14.7233 1.95679 14.7157 1.96242C14.708 1.96804 14.6988 1.97104 14.6893 1.97097C14.6798 1.97089 14.6706 1.96775 14.663 1.962L14.399 1.769L14.135 1.961C14.1274 1.96632 14.1183 1.96912 14.1091 1.96898C14.0998 1.96885 14.0908 1.96579 14.0834 1.96025C14.076 1.95471 14.0705 1.94697 14.0677 1.93812C14.065 1.92928 14.0651 1.91979 14.068 1.911L14.166 1.596L13.904 1.4C13.8969 1.39428 13.8917 1.38653 13.8891 1.37779C13.8865 1.36904 13.8866 1.35971 13.8894 1.35104C13.8922 1.34236 13.8976 1.33474 13.9049 1.3292C13.9121 1.32366 13.9209 1.32045 13.93 1.32L14.255 1.317L14.358 1.004C14.361 0.99541 14.3666 0.987971 14.3741 0.982709C14.3815 0.977446 14.3904 0.97462 14.3995 0.97462C14.4086 0.97462 14.4175 0.977446 14.4249 0.982709C14.4324 0.987971 14.438 0.99541 14.441 1.004L14.543 1.317L14.868 1.32C14.8771 1.32045 14.8859 1.32366 14.8931 1.3292C14.9004 1.33474 14.9058 1.34236 14.9086 1.35104C14.9114 1.35971 14.9115 1.36904 14.9089 1.37779C14.9063 1.38653 14.9011 1.39428 14.894 1.4ZM17.182 5.746L16.921 5.943L17.019 6.258C17.0222 6.26693 17.0225 6.27667 17.0197 6.28575C17.017 6.29484 17.0113 6.30279 17.0037 6.30842C16.996 6.31404 16.9868 6.31704 16.9773 6.31697C16.9678 6.31689 16.9586 6.31375 16.951 6.308L16.687 6.115L16.423 6.307C16.4154 6.31232 16.4063 6.31512 16.3971 6.31498C16.3878 6.31485 16.3788 6.31179 16.3714 6.30625C16.364 6.30071 16.3585 6.29297 16.3557 6.28412C16.353 6.27528 16.3531 6.26579 16.356 6.257L16.454 5.943L16.193 5.746C16.1859 5.74034 16.1807 5.73268 16.1781 5.72402C16.1755 5.71536 16.1755 5.70611 16.1782 5.69747C16.1809 5.68883 16.1861 5.6812 16.1932 5.67559C16.2003 5.66997 16.209 5.66663 16.218 5.666L16.543 5.663L16.646 5.35C16.6485 5.34089 16.6539 5.33284 16.6614 5.3271C16.6689 5.32137 16.6781 5.31826 16.6875 5.31826C16.6969 5.31826 16.7061 5.32137 16.7136 5.3271C16.7211 5.33284 16.7265 5.34089 16.729 5.35L16.831 5.663L17.156 5.666C17.1651 5.66645 17.1739 5.66966 17.1811 5.6752C17.1884 5.68074 17.1938 5.68836 17.1966 5.69704C17.1994 5.70571 17.1995 5.71504 17.1969 5.72379C17.1943 5.73253 17.1891 5.74028 17.182 5.746ZM17.182 3.573L16.921 3.77L17.019 4.085C17.0222 4.09393 17.0225 4.10367 17.0197 4.11275C17.017 4.12184 17.0113 4.12979 17.0037 4.13542C16.996 4.14104 16.9868 4.14404 16.9773 4.14397C16.9678 4.14389 16.9586 4.14075 16.951 4.135L16.687 3.942L16.423 4.134C16.4154 4.13932 16.4063 4.14212 16.3971 4.14198C16.3878 4.14185 16.3788 4.13879 16.3714 4.13325C16.364 4.12771 16.3585 4.11997 16.3557 4.11112C16.353 4.10228 16.3531 4.09279 16.356 4.084L16.454 3.77L16.193 3.573C16.1859 3.56734 16.1807 3.55968 16.1781 3.55102C16.1755 3.54236 16.1755 3.53311 16.1782 3.52447C16.1809 3.51583 16.1861 3.5082 16.1932 3.50259C16.2003 3.49697 16.209 3.49363 16.218 3.493L16.543 3.49L16.646 3.177C16.6485 3.16789 16.6539 3.15984 16.6614 3.1541C16.6689 3.14837 16.6781 3.14526 16.6875 3.14526C16.6969 3.14526 16.7061 3.14837 16.7136 3.1541C16.7211 3.15984 16.7265 3.16789 16.729 3.177L16.831 3.49L17.156 3.493C17.1651 3.49345 17.1739 3.49666 17.1811 3.5022C17.1884 3.50774 17.1938 3.51536 17.1966 3.52404C17.1994 3.53271 17.1995 3.54204 17.1969 3.55079C17.1943 3.55953 17.1891 3.56728 17.182 3.573ZM17.182 1.4L16.921 1.596L17.019 1.911C17.0222 1.91993 17.0225 1.92967 17.0197 1.93875C17.017 1.94784 17.0113 1.95579 17.0037 1.96142C16.996 1.96704 16.9868 1.97004 16.9773 1.96997C16.9678 1.96989 16.9586 1.96675 16.951 1.961L16.687 1.769L16.423 1.961C16.4154 1.96632 16.4063 1.96912 16.3971 1.96898C16.3878 1.96885 16.3788 1.96579 16.3714 1.96025C16.364 1.95471 16.3585 1.94697 16.3557 1.93812C16.353 1.92928 16.3531 1.91979 16.356 1.911L16.454 1.596L16.193 1.4C16.1859 1.39434 16.1807 1.38668 16.1781 1.37802C16.1755 1.36936 16.1755 1.36011 16.1782 1.35147C16.1809 1.34283 16.1861 1.3352 16.1932 1.32959C16.2003 1.32397 16.209 1.32063 16.218 1.32L16.543 1.317L16.646 1.004C16.6485 0.994886 16.6539 0.98684 16.6614 0.981103C16.6689 0.975367 16.6781 0.972258 16.6875 0.972258C16.6969 0.972258 16.7061 0.975367 16.7136 0.981103C16.7211 0.98684 16.7265 0.994886 16.729 1.004L16.831 1.317L17.156 1.32C17.1651 1.32045 17.1739 1.32366 17.1811 1.3292C17.1884 1.33474 17.1938 1.34236 17.1966 1.35104C17.1994 1.35971 17.1995 1.36904 17.1969 1.37779C17.1943 1.38653 17.1891 1.39428 17.182 1.4ZM19.47 5.746L19.209 5.943L19.307 6.258C19.3099 6.26679 19.31 6.27628 19.3073 6.28512C19.3045 6.29397 19.299 6.30171 19.2916 6.30725C19.2842 6.31279 19.2752 6.31585 19.2659 6.31598C19.2567 6.31612 19.2476 6.31332 19.24 6.308L18.975 6.115L18.711 6.307C18.7034 6.31232 18.6943 6.31512 18.6851 6.31498C18.6758 6.31485 18.6668 6.31179 18.6594 6.30625C18.652 6.30071 18.6465 6.29297 18.6437 6.28412C18.641 6.27528 18.6411 6.26579 18.644 6.257L18.742 5.943L18.481 5.746C18.4739 5.74034 18.4687 5.73268 18.4661 5.72402C18.4635 5.71536 18.4635 5.70611 18.4662 5.69747C18.4689 5.68883 18.4741 5.6812 18.4812 5.67559C18.4883 5.66997 18.497 5.66663 18.506 5.666L18.831 5.663L18.934 5.35C18.937 5.34141 18.9426 5.33397 18.9501 5.32871C18.9575 5.32345 18.9664 5.32062 18.9755 5.32062C18.9846 5.32062 18.9935 5.32345 19.0009 5.32871C19.0084 5.33397 19.014 5.34141 19.017 5.35L19.12 5.663L19.444 5.666C19.4531 5.66645 19.4619 5.66966 19.4691 5.6752C19.4764 5.68074 19.4818 5.68836 19.4846 5.69704C19.4874 5.70571 19.4875 5.71504 19.4849 5.72379C19.4823 5.73253 19.4771 5.74028 19.47 5.746ZM19.47 3.573L19.209 3.77L19.307 4.085C19.3099 4.09379 19.31 4.10328 19.3073 4.11212C19.3045 4.12097 19.299 4.12871 19.2916 4.13425C19.2842 4.13979 19.2752 4.14285 19.2659 4.14298C19.2567 4.14312 19.2476 4.14032 19.24 4.135L18.975 3.942L18.711 4.134C18.7034 4.13932 18.6943 4.14212 18.6851 4.14198C18.6758 4.14185 18.6668 4.13879 18.6594 4.13325C18.652 4.12771 18.6465 4.11997 18.6437 4.11112C18.641 4.10228 18.6411 4.09279 18.644 4.084L18.742 3.77L18.481 3.573C18.4739 3.56734 18.4687 3.55968 18.4661 3.55102C18.4635 3.54236 18.4635 3.53311 18.4662 3.52447C18.4689 3.51583 18.4741 3.5082 18.4812 3.50259C18.4883 3.49697 18.497 3.49363 18.506 3.493L18.831 3.49L18.934 3.177C18.937 3.16841 18.9426 3.16097 18.9501 3.15571C18.9575 3.15045 18.9664 3.14762 18.9755 3.14762C18.9846 3.14762 18.9935 3.15045 19.0009 3.15571C19.0084 3.16097 19.014 3.16841 19.017 3.177L19.12 3.49L19.444 3.493C19.4531 3.49345 19.4619 3.49666 19.4691 3.5022C19.4764 3.50774 19.4818 3.51536 19.4846 3.52404C19.4874 3.53271 19.4875 3.54204 19.4849 3.55079C19.4823 3.55953 19.4771 3.56728 19.47 3.573ZM19.47 1.4L19.209 1.596L19.307 1.911C19.3099 1.91979 19.31 1.92928 19.3073 1.93812C19.3045 1.94697 19.299 1.95471 19.2916 1.96025C19.2842 1.96579 19.2752 1.96885 19.2659 1.96898C19.2567 1.96912 19.2476 1.96632 19.24 1.961L18.975 1.769L18.711 1.961C18.7034 1.96632 18.6943 1.96912 18.6851 1.96898C18.6758 1.96885 18.6668 1.96579 18.6594 1.96025C18.652 1.95471 18.6465 1.94697 18.6437 1.93812C18.641 1.92928 18.6411 1.91979 18.644 1.911L18.742 1.596L18.481 1.4C18.4739 1.39434 18.4687 1.38668 18.4661 1.37802C18.4635 1.36936 18.4635 1.36011 18.4662 1.35147C18.4689 1.34283 18.4741 1.3352 18.4812 1.32959C18.4883 1.32397 18.497 1.32063 18.506 1.32L18.831 1.317L18.934 1.004C18.937 0.99541 18.9426 0.987971 18.9501 0.982709C18.9575 0.977446 18.9664 0.97462 18.9755 0.97462C18.9846 0.97462 18.9935 0.977446 19.0009 0.982709C19.0084 0.987971 19.014 0.99541 19.017 1.004L19.12 1.317L19.445 1.32C19.454 1.32063 19.4627 1.32397 19.4698 1.32959C19.4769 1.3352 19.4821 1.34283 19.4848 1.35147C19.4875 1.36011 19.4875 1.36936 19.4849 1.37802C19.4823 1.38668 19.4771 1.39434 19.47 1.4Z"
		fill="#82AFFF"
	/>
</svg>
