<svg viewBox="0 0 36 24" fill="none" xmlns="http://www.w3.org/2000/svg">
	<path d="M36 24H0V0H36" fill="#FF4B55" />
	<path
		d="M18.29 4.843L19.95 9.908L25.196 9.949C25.2605 9.95089 25.3228 9.97271 25.3743 10.0115C25.4259 10.0502 25.4642 10.104 25.4839 10.1654C25.5036 10.2268 25.5039 10.2928 25.4845 10.3543C25.4652 10.4159 25.4273 10.4699 25.376 10.509L21.155 13.682L22.737 18.772C22.7568 18.8332 22.7568 18.899 22.7371 18.9603C22.7175 19.0215 22.6791 19.075 22.6274 19.1132C22.5757 19.1515 22.5133 19.1725 22.449 19.1733C22.3847 19.1742 22.3217 19.1548 22.269 19.118L18 16.014L13.731 19.118C13.6783 19.1548 13.6153 19.1742 13.551 19.1733C13.4867 19.1725 13.4243 19.1515 13.3726 19.1132C13.3209 19.075 13.2825 19.0215 13.2629 18.9603C13.2432 18.899 13.2432 18.8332 13.263 18.772L14.845 13.682L10.625 10.51C10.5738 10.471 10.5359 10.4172 10.5166 10.3558C10.4972 10.2945 10.4972 10.2286 10.5167 10.1673C10.5362 10.106 10.5742 10.0522 10.6254 10.0133C10.6767 9.97438 10.7387 9.95228 10.803 9.95L16.05 9.908L17.71 4.843C17.7294 4.78129 17.768 4.72737 17.8201 4.6891C17.8723 4.65083 17.9353 4.63019 18 4.63019C18.0647 4.63019 18.1277 4.65083 18.1799 4.6891C18.232 4.72737 18.2706 4.78129 18.29 4.843Z"
		fill="#FFE15A"
	/>
</svg>
