<svg
	color="rgb(var(--foreground, 0, 0, 0))"
	viewBox="0 0 19 15"
	fill="none"
	xmlns="http://www.w3.org/2000/svg"
>
	<path
		d="M3.10221 12.5801H8.80704C9.05951 12.5801 9.23947 12.5231 9.3469 12.409C9.45971 12.2949 9.51612 12.1075 9.51612 11.8468V3.16133C9.51612 2.9006 9.45971 2.7132 9.3469 2.59913C9.23947 2.48506 9.05951 2.42803 8.80704 2.42803H3.10221C2.84973 2.42803 2.66978 2.48506 2.56234 2.59913C2.45491 2.7132 2.40119 2.9006 2.40119 3.16133V11.8468C2.40119 12.1075 2.45491 12.2949 2.56234 12.409C2.66978 12.5231 2.84973 12.5801 3.10221 12.5801ZM16.2765 7.49593C16.2765 7.34927 16.2228 7.22162 16.1154 7.11298C16.0079 7.00435 15.8844 6.95003 15.7447 6.95003H13.4886L12.296 6.99077L12.9648 6.34709L13.835 5.48343C13.9425 5.38023 13.9962 5.25258 13.9962 5.10049C13.9962 4.95383 13.9505 4.83433 13.8592 4.74199C13.7679 4.64422 13.6524 4.59533 13.5127 4.59533C13.4321 4.59533 13.3596 4.61162 13.2952 4.64422C13.2361 4.67681 13.1797 4.72298 13.126 4.78273L10.9907 7.09669C10.8671 7.22705 10.8053 7.36013 10.8053 7.49593C10.8053 7.63172 10.8671 7.7648 10.9907 7.89517L13.126 10.2091C13.1797 10.2743 13.2361 10.3232 13.2952 10.3558C13.3596 10.3884 13.4321 10.4047 13.5127 10.4047C13.6524 10.4047 13.7679 10.3585 13.8592 10.2662C13.9505 10.1684 13.9962 10.0462 13.9962 9.89951C13.9962 9.74199 13.9425 9.61434 13.835 9.51657L12.9648 8.64476L12.296 8.00109L13.4886 8.04997H15.7447C15.8844 8.04997 16.0052 7.99565 16.1073 7.88702C16.2147 7.77295 16.2711 7.64259 16.2765 7.49593ZM2.53011 15H16.4699C17.3186 15 17.9525 14.7882 18.3715 14.3645C18.7905 13.9462 19 13.3188 19 12.4823V2.5258C19 1.6893 18.7905 1.05921 18.3715 0.635524C17.9525 0.211841 17.3186 0 16.4699 0H2.53011C1.68674 0 1.05287 0.211841 0.628499 0.635524C0.2095 1.05378 0 1.68387 0 2.5258V12.4823C0 13.3188 0.2095 13.9462 0.628499 14.3645C1.05287 14.7882 1.68674 15 2.53011 15ZM2.54623 13.6882C2.14334 13.6882 1.83446 13.5823 1.61959 13.3705C1.40472 13.1532 1.29729 12.8327 1.29729 12.409V2.59913C1.29729 2.17545 1.40472 1.85497 1.61959 1.6377C1.83446 1.42042 2.14334 1.31179 2.54623 1.31179H16.4538C16.8513 1.31179 17.1575 1.42042 17.3724 1.6377C17.5926 1.85497 17.7027 2.17545 17.7027 2.59913V12.409C17.7027 12.8327 17.5926 13.1532 17.3724 13.3705C17.1575 13.5823 16.8513 13.6882 16.4538 13.6882H2.54623Z"
		fill="currentColor"
	/>
</svg>
