<svg
	color="rgb(var(--foreground, 0, 0, 0))"
	viewBox="0 0 10 17"
	fill="none"
	xmlns="http://www.w3.org/2000/svg"
>
	<path
		d="M2.92607 9.46764C2.92607 9.59613 2.95979 9.69784 3.02724 9.77279L4.67704 11.4591C4.77562 11.5609 4.88457 11.6117 5.00389 11.6117C5.12322 11.6117 5.22957 11.5609 5.32296 11.4591L6.97276 9.77279C7.0454 9.69784 7.08171 9.59613 7.08171 9.46764C7.08171 9.33916 7.0428 9.23744 6.96498 9.16249C6.88716 9.08219 6.78859 9.04204 6.66926 9.04204C6.56031 9.03669 6.45914 9.07951 6.36576 9.17052L5.82101 9.73264L5.393 10.2867L5.42412 9.25886V6.99433C5.42412 6.8712 5.38521 6.76948 5.30739 6.68918C5.22957 6.60353 5.1284 6.5607 5.00389 6.5607C4.87938 6.5607 4.77562 6.60353 4.69261 6.68918C4.61479 6.76948 4.57588 6.8712 4.57588 6.99433V9.25886L4.61479 10.2867L4.18677 9.73264L3.63424 9.17052C3.54086 9.07951 3.43969 9.03669 3.33074 9.04204C3.21141 9.04204 3.11284 9.08219 3.03502 9.16249C2.96239 9.23744 2.92607 9.33916 2.92607 9.46764ZM2.94163 14.6873H7.06615C7.27367 14.6873 7.43969 14.6204 7.5642 14.4865C7.6939 14.3527 7.75875 14.176 7.75875 13.9565V13.0009C7.75875 12.7761 7.6939 12.5994 7.5642 12.4709C7.43969 12.3371 7.27367 12.2702 7.06615 12.2702H2.94163C2.72892 12.2702 2.56031 12.3371 2.4358 12.4709C2.31128 12.5994 2.24903 12.7761 2.24903 13.0009V13.9565C2.24903 14.176 2.31128 14.3527 2.4358 14.4865C2.56031 14.6204 2.72892 14.6873 2.94163 14.6873ZM0 14.9121C0 15.5385 0.194553 16.0417 0.583658 16.4218C0.972763 16.8073 1.48379 17 2.11673 17H7.88327C8.5214 17 9.03242 16.8073 9.41634 16.4218C9.80545 16.0417 10 15.5385 10 14.9121V2.08786C10 1.4615 9.80545 0.958274 9.41634 0.578177C9.03242 0.192726 8.5214 0 7.88327 0H2.11673C1.48379 0 0.972763 0.192726 0.583658 0.578177C0.194553 0.958274 0 1.4615 0 2.08786V14.9121ZM1.25292 14.7034V2.29665C1.25292 1.97544 1.34112 1.72918 1.51751 1.55786C1.6939 1.3812 1.94812 1.29287 2.28016 1.29287H7.72763C8.05447 1.29287 8.3061 1.3812 8.48249 1.55786C8.65888 1.72918 8.74708 1.97544 8.74708 2.29665V14.7034C8.74708 15.0246 8.65888 15.2708 8.48249 15.4421C8.3061 15.6188 8.05447 15.7071 7.72763 15.7071H2.28016C1.94812 15.7071 1.6939 15.6188 1.51751 15.4421C1.34112 15.2708 1.25292 15.0246 1.25292 14.7034Z"
		fill="currentColor"
	/>
</svg>
