<svg
	color="rgb(var(--foreground, 0, 0, 0))"
	viewBox="0 0 10 17"
	fill="none"
	xmlns="http://www.w3.org/2000/svg"
>
	<path
		d="M2.94163 4.72981H7.06615C7.27367 4.72981 7.43969 4.66556 7.5642 4.53708C7.6939 4.40324 7.75875 4.2239 7.75875 3.99906V3.04346C7.75875 2.82396 7.6939 2.6473 7.5642 2.51346C7.43969 2.37963 7.27367 2.31271 7.06615 2.31271H2.94163C2.72892 2.31271 2.56031 2.37963 2.4358 2.51346C2.31128 2.6473 2.24903 2.82396 2.24903 3.04346V3.99906C2.24903 4.2239 2.31128 4.40324 2.4358 4.53708C2.56031 4.66556 2.72892 4.72981 2.94163 4.72981ZM0 14.9121C0 15.5385 0.194553 16.0417 0.583658 16.4218C0.972763 16.8073 1.48379 17 2.11673 17H7.88327C8.5214 17 9.03242 16.8073 9.41634 16.4218C9.80545 16.0417 10 15.5385 10 14.9121V2.08786C10 1.4615 9.80545 0.958274 9.41634 0.578177C9.03242 0.192726 8.5214 0 7.88327 0H2.11673C1.48379 0 0.972763 0.192726 0.583658 0.578177C0.194553 0.958274 0 1.4615 0 2.08786V14.9121ZM1.25292 14.7034V2.29665C1.25292 1.97544 1.34112 1.72918 1.51751 1.55786C1.6939 1.3812 1.94812 1.29287 2.28016 1.29287H7.72763C8.05447 1.29287 8.3061 1.3812 8.48249 1.55786C8.65888 1.72918 8.74708 1.97544 8.74708 2.29665V14.7034C8.74708 15.0246 8.65888 15.2708 8.48249 15.4421C8.3061 15.6188 8.05447 15.7071 7.72763 15.7071H2.28016C1.94812 15.7071 1.6939 15.6188 1.51751 15.4421C1.34112 15.2708 1.25292 15.0246 1.25292 14.7034Z"
		fill="currentColor"
	/>
</svg>
