<svg
	color="rgb(var(--foreground, 0, 0, 0))"
	viewBox="0 0 19 15"
	fill="none"
	xmlns="http://www.w3.org/2000/svg"
>
	<path
		d="M3.10221 7.39815H8.79093C9.0434 7.39815 9.22335 7.34112 9.33079 7.22705C9.4436 7.11298 9.5 6.92558 9.5 6.66486V3.06355C9.5 2.80282 9.4436 2.61543 9.33079 2.50136C9.22335 2.38729 9.0434 2.33026 8.79093 2.33026H3.10221C2.84973 2.33026 2.66978 2.38729 2.56234 2.50136C2.45491 2.61543 2.40119 2.80282 2.40119 3.06355V6.66486C2.40119 6.92558 2.45491 7.11298 2.56234 7.22705C2.66978 7.34112 2.84973 7.39815 3.10221 7.39815ZM2.53011 15H16.4699C17.3186 15 17.9525 14.7882 18.3715 14.3645C18.7905 13.9462 19 13.3161 19 12.4742V2.5258C19 1.68387 18.7905 1.05378 18.3715 0.635524C17.9525 0.211841 17.3186 0 16.4699 0H2.53011C1.68674 0 1.05287 0.211841 0.628499 0.635524C0.2095 1.05378 0 1.68387 0 2.5258V12.4742C0 13.3161 0.2095 13.9462 0.628499 14.3645C1.05287 14.7882 1.68674 15 2.53011 15ZM2.54623 13.6882C2.14334 13.6882 1.83446 13.5796 1.61959 13.3623C1.40472 13.145 1.29729 12.8273 1.29729 12.409V2.59098C1.29729 2.1673 1.40472 1.84954 1.61959 1.6377C1.83446 1.42042 2.14334 1.31179 2.54623 1.31179H16.4538C16.8513 1.31179 17.1575 1.42042 17.3724 1.6377C17.5926 1.84954 17.7027 2.1673 17.7027 2.59098V12.409C17.7027 12.8273 17.5926 13.145 17.3724 13.3623C17.1575 13.5796 16.8513 13.6882 16.4538 13.6882H2.54623Z"
		fill="currentColor"
	/>
</svg>
