<svg
	color="rgb(var(--foreground, 0, 0, 0))"
	viewBox="0 0 16 16"
	fill="none"
	xmlns="http://www.w3.org/2000/svg"
>
	<path
		d="M1.17861 14.8159C1.71338 15.3608 2.30007 15.7162 2.93868 15.8823C3.58248 16.0535 4.23926 16.0379 4.90902 15.8356C5.57878 15.6332 6.21739 15.2492 6.82485 14.6836L8.17216 13.4226C7.83469 13.5212 7.48942 13.5264 7.13637 13.4382C6.78851 13.3447 6.42507 13.1086 6.04606 12.7298L3.21126 9.88873C2.83224 9.50992 2.6064 9.15705 2.53371 8.83013C2.46102 8.49802 2.474 8.16332 2.57265 7.82602L1.311 9.17262C0.745081 9.78495 0.360877 10.4232 0.158391 11.0874C-0.0389031 11.7517 -0.0518829 12.4055 0.119451 13.049C0.290786 13.6872 0.643838 14.2762 1.17861 14.8159ZM6.77813 11.9359C7.16752 12.3251 7.55173 12.5223 7.93074 12.5274C8.31494 12.5326 8.70693 12.3354 9.10671 11.9359L11.9415 9.09478C12.3465 8.69522 12.5464 8.30602 12.5412 7.92721C12.5412 7.5484 12.3465 7.1644 11.9571 6.77521L9.22353 4.04309C8.83414 3.6539 8.44993 3.4593 8.07092 3.4593C7.69191 3.45411 7.30251 3.6539 6.90273 4.05866L4.06014 6.89196C3.66036 7.29153 3.46307 7.68332 3.46826 8.06732C3.47345 8.44613 3.67074 8.83013 4.06014 9.21932L6.77813 11.9359ZM5.84357 8.51878C5.69301 8.36829 5.61772 8.19446 5.61772 7.99727C5.61772 7.79489 5.69301 7.62105 5.84357 7.47575C5.98895 7.33045 6.16028 7.2604 6.35758 7.26559C6.56006 7.26559 6.73659 7.33824 6.88716 7.48353C7.02215 7.62364 7.08964 7.79489 7.08964 7.99727C7.09483 8.19446 7.02734 8.3631 6.88716 8.50321C6.7314 8.65889 6.55228 8.73673 6.34979 8.73673C6.1525 8.73154 5.98376 8.65889 5.84357 8.51878ZM7.49461 6.8764C7.34405 6.7311 7.26876 6.55726 7.26876 6.35488C7.26876 6.1525 7.33886 5.97866 7.47904 5.83337C7.6296 5.68807 7.80353 5.61542 8.00083 5.61542C8.20331 5.61542 8.37725 5.68807 8.52262 5.83337C8.66799 5.97866 8.74068 6.1525 8.74068 6.35488C8.74068 6.55207 8.6654 6.72591 8.51483 6.8764C8.37465 7.01651 8.20331 7.08656 8.00083 7.08656C7.79834 7.08656 7.6296 7.01651 7.49461 6.8764ZM10.1659 8.51878C10.0205 8.65889 9.84657 8.72894 9.64408 8.72894C9.4416 8.72894 9.26766 8.6537 9.12229 8.50321C8.98211 8.36829 8.91202 8.19965 8.91202 7.99727C8.91202 7.79489 8.98211 7.62364 9.12229 7.48353C9.27286 7.33305 9.44679 7.2604 9.64408 7.26559C9.84657 7.26559 10.0205 7.33564 10.1659 7.47575C10.3112 7.62105 10.3839 7.79489 10.3839 7.99727C10.3839 8.19446 10.3112 8.36829 10.1659 8.51878ZM7.47904 10.1534C7.33886 10.0133 7.26617 9.84462 7.26098 9.64743C7.26098 9.44506 7.33886 9.26862 7.49461 9.11813C7.6348 8.97284 7.80353 8.90278 8.00083 8.90797C8.20331 8.90797 8.37465 8.97803 8.51483 9.11813C8.66021 9.26343 8.73549 9.43727 8.74068 9.63965C8.74587 9.84203 8.67319 10.0133 8.52262 10.1534C8.37205 10.3039 8.19812 10.3791 8.00083 10.3791C7.80353 10.3791 7.6296 10.3039 7.47904 10.1534ZM13.4368 8.18408L14.6907 6.82191C15.2566 6.20439 15.6382 5.56353 15.8355 4.89931C16.038 4.23509 16.0535 3.58384 15.8822 2.94557C15.7161 2.3073 15.3656 1.71832 14.8308 1.17864C14.2909 0.633778 13.699 0.278317 13.0552 0.112262C12.4166 -0.0537924 11.7624 -0.0356301 11.0926 0.166749C10.4281 0.369128 9.78946 0.750535 9.17681 1.31097L7.82171 2.56416C8.15399 2.46557 8.50185 2.46557 8.86529 2.56416C9.22873 2.66276 9.59995 2.90406 9.97896 3.28806L12.8138 6.12137C13.1928 6.50018 13.416 6.85564 13.4835 7.18775C13.551 7.51467 13.5354 7.84678 13.4368 8.18408Z"
		fill="currentColor"
	/>
</svg>
