<svg
	color="rgb(var(--foreground, 0, 0, 0))"
	viewBox="0 0 16 16"
	fill="none"
	xmlns="http://www.w3.org/2000/svg"
>
	<path
		d="M1.19524 14.8048C1.60625 15.2106 2.05066 15.5137 2.52845 15.7141C3.00625 15.9145 3.49689 16.0095 4.00038 15.9992C4.509 15.989 5.01248 15.8708 5.51083 15.6448C6.00918 15.4187 6.48184 15.0822 6.92881 14.6352L9.27926 12.2693L8.40844 11.3908L6.05799 13.749C5.64184 14.16 5.19487 14.4503 4.71707 14.6198C4.24441 14.7893 3.77175 14.8227 3.29909 14.72C2.83157 14.6224 2.40258 14.3783 2.01212 13.9879C1.61653 13.5974 1.36992 13.1684 1.27231 12.7009C1.17469 12.2282 1.21066 11.7556 1.3802 11.2829C1.54974 10.8051 1.84001 10.3582 2.25102 9.94201L4.60918 7.58385L3.73065 6.72074L1.36479 9.07119C0.917814 9.51816 0.581301 9.99082 0.355246 10.4892C0.129192 10.9875 0.0110271 11.491 0.000751844 11.9996C-0.00952336 12.5031 0.0855223 12.9963 0.285889 13.4793C0.486255 13.9571 0.789374 14.3989 1.19524 14.8048ZM14.8048 1.19524C14.3937 0.789374 13.9493 0.486255 13.4715 0.285889C12.9937 0.0855223 12.5005 -0.00952336 11.9919 0.000751844C11.4884 0.0110271 10.9875 0.129192 10.4892 0.355246C9.99596 0.581301 9.52587 0.915245 9.0789 1.35708L6.72074 3.72295L7.59156 4.60918L9.94972 2.25102C10.3607 1.84001 10.8026 1.54974 11.2752 1.3802C11.753 1.21066 12.2257 1.17726 12.6932 1.28001C13.1659 1.37763 13.5974 1.6191 13.9879 2.00442C14.3835 2.39487 14.6301 2.82643 14.7277 3.29909C14.8304 3.76661 14.7945 4.23927 14.6198 4.71707C14.4503 5.19487 14.16 5.63927 13.749 6.05028L11.3908 8.40844L12.2771 9.27926L14.6352 6.9211C15.0822 6.47413 15.4187 6.00404 15.6448 5.51083C15.8708 5.01248 15.989 4.51157 15.9992 4.00808C16.0095 3.49946 15.9145 3.00625 15.7141 2.52845C15.5137 2.04552 15.2106 1.60112 14.8048 1.19524ZM12.2848 6.58202L9.41027 3.71524C8.95816 3.26827 8.51119 3.04221 8.06936 3.03708C7.63266 3.0268 7.18312 3.25542 6.72074 3.72295L3.73065 6.72074C3.26313 7.18312 3.03194 7.63523 3.03708 8.07706C3.04221 8.51376 3.26827 8.95816 3.71524 9.41027L6.58973 12.2848C7.04184 12.7317 7.48624 12.9578 7.92294 12.9629C8.36477 12.9681 8.81688 12.7369 9.27926 12.2693L12.2771 9.27926C12.7446 8.81688 12.9732 8.36734 12.9629 7.93064C12.9578 7.48881 12.7317 7.03927 12.2848 6.58202ZM8.70128 4.64771L11.3523 7.29872C11.5732 7.51963 11.6734 7.72257 11.6528 7.90752C11.6374 8.08734 11.5141 8.29027 11.2829 8.51633L8.51633 11.2829C8.29027 11.5141 8.08477 11.64 7.89982 11.6605C7.72 11.676 7.51963 11.5732 7.29872 11.3523L4.64771 8.70128C4.4268 8.48036 4.32404 8.28 4.33946 8.10018C4.36001 7.91523 4.48588 7.70716 4.71707 7.47596L7.48367 4.71707C7.70972 4.48588 7.91523 4.36258 8.10018 4.34716C8.28514 4.32661 8.4855 4.4268 8.70128 4.64771ZM7.99229 7.13688C8.18238 7.13688 8.33908 7.07523 8.46238 6.95193C8.58569 6.82349 8.64734 6.66936 8.64734 6.48954C8.65247 6.30973 8.59082 6.1556 8.46238 6.02716C8.33394 5.89872 8.17982 5.8345 8 5.8345C7.82018 5.8345 7.66605 5.90129 7.53761 6.03487C7.41431 6.16331 7.35266 6.32 7.35266 6.50496C7.35266 6.66936 7.41688 6.81578 7.54532 6.94422C7.67376 7.07266 7.82275 7.13688 7.99229 7.13688ZM6.51266 8.64734C6.68734 8.64734 6.83633 8.58312 6.95963 8.45468C7.08807 8.32624 7.15229 8.17725 7.15229 8.00771C7.15229 7.82275 7.08807 7.66605 6.95963 7.53761C6.83633 7.40917 6.68477 7.34495 6.50496 7.34495C6.32 7.34495 6.16331 7.40917 6.03487 7.53761C5.91156 7.66605 5.84991 7.82018 5.84991 8C5.84991 8.17468 5.91156 8.32624 6.03487 8.45468C6.16331 8.58312 6.32257 8.64734 6.51266 8.64734ZM9.49504 8.64734C9.68 8.64734 9.83412 8.58312 9.95743 8.45468C10.0859 8.32624 10.1501 8.17211 10.1501 7.99229C10.1501 7.81248 10.0859 7.66092 9.95743 7.53761C9.83412 7.40917 9.67743 7.34495 9.48734 7.34495C9.31779 7.34495 9.1688 7.40917 9.04036 7.53761C8.91192 7.66605 8.8477 7.81248 8.8477 7.97688C8.8477 8.16183 8.90936 8.3211 9.03266 8.45468C9.1611 8.58312 9.31523 8.64734 9.49504 8.64734ZM8 10.1501C8.17982 10.1501 8.33137 10.0859 8.45468 9.95743C8.58312 9.82899 8.64734 9.67229 8.64734 9.48734C8.64734 9.31779 8.58312 9.1688 8.45468 9.04036C8.33137 8.91192 8.18238 8.8477 8.00771 8.8477C7.81761 8.8477 7.65835 8.91192 7.52991 9.04036C7.40661 9.1688 7.34495 9.32036 7.34495 9.49504C7.34495 9.67486 7.40661 9.82899 7.52991 9.95743C7.65835 10.0859 7.81505 10.1501 8 10.1501Z"
		fill="currentColor"
	/>
</svg>
