<svg
	color="rgb(var(--foreground, 0, 0, 0))"
	viewBox="0 0 19 18"
	fill="none"
	xmlns="http://www.w3.org/2000/svg"
>
	<path
		d="M0.557684 10.3512H2.82715C2.93043 10.3512 3.02595 10.3222 3.11374 10.2643C3.20152 10.2011 3.25832 10.1115 3.28414 9.99561L3.64819 8.35206H3.37709L4.6009 14.1361C4.62672 14.252 4.68352 14.3415 4.7713 14.4047C4.86425 14.4627 4.96494 14.4917 5.07338 14.4917C5.18698 14.4917 5.28509 14.4627 5.36771 14.4047C5.4555 14.3415 5.50972 14.2493 5.53037 14.1282L6.47534 7.79104L7.58296 17.5654C7.60361 17.7076 7.65783 17.8156 7.74562 17.8894C7.83856 17.9631 7.94184 18 8.05544 18C8.17421 18 8.27748 17.9631 8.36527 17.8894C8.45821 17.8156 8.50985 17.7076 8.52018 17.5654L9.53485 5.91045L10.5573 17.5575C10.5676 17.705 10.6167 17.8156 10.7044 17.8894C10.7974 17.9631 10.9007 18 11.0143 18C11.133 18 11.2363 17.9631 11.3241 17.8894C11.417 17.8156 11.4738 17.705 11.4945 17.5575L12.6021 7.79104L13.5471 14.1361C13.5677 14.2572 13.622 14.3468 13.7097 14.4047C13.7975 14.4627 13.8956 14.4917 14.0041 14.4917C14.1125 14.4917 14.2106 14.4627 14.2984 14.4047C14.3914 14.3468 14.4507 14.2572 14.4766 14.1361L15.6926 8.39157L15.3983 8.39947L15.7933 9.99561C15.8295 10.1273 15.8888 10.2195 15.9715 10.2722C16.0541 10.3248 16.147 10.3512 16.2503 10.3512H18.4501C18.605 10.3512 18.7341 10.2985 18.8373 10.1932C18.9458 10.0825 19 9.95083 19 9.79807C19 9.6453 18.9458 9.51361 18.8373 9.40298C18.7341 9.29236 18.605 9.23705 18.4501 9.23705H16.5911L15.9715 6.78753C15.9353 6.65584 15.8734 6.55838 15.7856 6.49517C15.6978 6.42669 15.6023 6.39245 15.499 6.39245C15.3957 6.39245 15.3002 6.42669 15.2124 6.49517C15.1298 6.55838 15.073 6.65584 15.042 6.78753L14.0893 11.4021L12.9971 4.12467C12.9765 3.98244 12.9197 3.87708 12.8267 3.8086C12.7338 3.73485 12.6305 3.69798 12.5169 3.69798C12.4085 3.69798 12.3078 3.73485 12.2148 3.8086C12.1271 3.88235 12.0754 3.99034 12.0599 4.13257L11.084 12.7691L10.0151 0.442493C10.0048 0.294996 9.95054 0.184372 9.85243 0.110623C9.75948 0.0368745 9.65362 0 9.53485 0C9.42125 0 9.3154 0.0368745 9.21729 0.110623C9.12434 0.184372 9.0727 0.294996 9.06237 0.442493L7.99348 12.7691L7.01753 4.13257C7.00204 3.98507 6.94782 3.87445 6.85487 3.8007C6.76709 3.72695 6.66639 3.69008 6.55279 3.69008C6.44435 3.69008 6.34366 3.72695 6.25071 3.8007C6.15777 3.87445 6.10097 3.98244 6.08031 4.12467L4.98818 11.4021L4.03547 6.78753C4.00448 6.66637 3.9451 6.57682 3.85732 6.51888C3.7747 6.45566 3.68175 6.42406 3.57848 6.42406C3.4752 6.42406 3.37709 6.45566 3.28414 6.51888C3.19636 6.57682 3.13698 6.66637 3.10599 6.78753L2.48634 9.23705H0.557684C0.397608 9.23705 0.263351 9.29236 0.154912 9.40298C0.0516375 9.51361 0 9.6453 0 9.79807C0 9.95083 0.0516375 10.0825 0.154912 10.1932C0.263351 10.2985 0.397608 10.3512 0.557684 10.3512Z"
		fill="currentColor"
	/>
</svg>
