<svg
	color="rgb(var(--foreground, 0, 0, 0))"
	viewBox="0 0 16 16"
	fill="none"
	xmlns="http://www.w3.org/2000/svg"
>
	<path
		d="M0.575137 9.12528H4.11383C4.47595 9.12528 4.69429 8.96957 4.76885 8.65815L6.31053 1.7445H5.70344L8.0679 15.5874C8.0892 15.7275 8.15044 15.8313 8.25162 15.8988C8.35813 15.9663 8.47529 16 8.6031 16C8.73623 16 8.85605 15.9663 8.96256 15.8988C9.06906 15.8313 9.13563 15.7275 9.16226 15.5874L11.4548 5.10011L10.9516 5.09232L11.6705 8.59586C11.7397 8.94881 11.9581 9.12528 12.3255 9.12528H15.4249C15.5846 9.12528 15.7204 9.07338 15.8323 8.96957C15.9441 8.86057 16 8.73081 16 8.58029C16 8.42458 15.9441 8.29482 15.8323 8.19101C15.7257 8.08201 15.5899 8.02751 15.4249 8.02751H11.6545L12.8048 8.93843L11.6785 4.06462C11.6465 3.92967 11.58 3.83105 11.4788 3.76877C11.3776 3.70129 11.2658 3.66755 11.1433 3.66755C11.0208 3.66755 10.9063 3.70389 10.7998 3.77655C10.6986 3.84403 10.6321 3.94784 10.6001 4.08798L8.2676 14.2482H8.83475L6.49426 0.413158C6.47296 0.278207 6.41438 0.176993 6.31852 0.109518C6.22267 0.036852 6.1135 0.000519042 5.99101 0.000519042C5.87386 -0.00467138 5.76469 0.0290664 5.6635 0.101732C5.56232 0.169208 5.49576 0.273016 5.4638 0.413158L3.57064 8.93843L4.72092 8.02751H0.575137C0.410052 8.02751 0.271593 8.08201 0.15976 8.19101C0.0532534 8.30001 0 8.42977 0 8.58029C0 8.73081 0.0532534 8.86057 0.15976 8.96957C0.271593 9.07338 0.410052 9.12528 0.575137 9.12528Z"
		fill="currentColor"
	/>
</svg>
