<svg
	color="rgb(var(--foreground, 0, 0, 0))"
	viewBox="0 0 12 22"
	fill="none"
	xmlns="http://www.w3.org/2000/svg"
>
	<path
		d="M2.23482 17.996H9.76518C10.4723 17.996 11.0202 17.7996 11.4089 17.4067C11.803 17.0138 12 16.4644 12 15.7582V4.38623C12 3.68013 11.803 3.13064 11.4089 2.73777C11.0202 2.3449 10.4723 2.14846 9.76518 2.14846H7.62753V2.09272C7.62753 1.6149 7.47638 1.23 7.17409 0.937998C6.8718 0.645999 6.48043 0.5 6 0.5C5.51957 0.5 5.12821 0.645999 4.82591 0.937998C4.52362 1.23 4.37247 1.6149 4.37247 2.09272V2.14846H2.23482C1.52767 2.14846 0.977058 2.3449 0.582996 2.73777C0.194332 3.13064 0 3.68013 0 4.38623V15.7582C0 16.4644 0.194332 17.0138 0.582996 17.4067C0.977058 17.7996 1.52767 17.996 2.23482 17.996ZM6 2.68999C5.83266 2.68999 5.69231 2.63424 5.57895 2.52275C5.46559 2.40595 5.40891 2.26526 5.40891 2.10068C5.40891 1.94141 5.46559 1.80603 5.57895 1.69454C5.69231 1.57774 5.83266 1.51934 6 1.51934C6.16734 1.51934 6.30769 1.57774 6.42105 1.69454C6.53441 1.80603 6.59109 1.94141 6.59109 2.10068C6.59109 2.26526 6.53441 2.40595 6.42105 2.52275C6.30769 2.63424 6.16734 2.68999 6 2.68999ZM3.22267 15.7025C2.96896 15.7025 2.76383 15.6308 2.60729 15.4875C2.45614 15.3388 2.38057 15.1424 2.38057 14.8982V6.04266C2.38057 5.79845 2.45614 5.60201 2.60729 5.45336C2.76383 5.3047 2.96896 5.23038 3.22267 5.23038H8.79352C9.04723 5.23038 9.24966 5.3047 9.40081 5.45336C9.55736 5.60201 9.63563 5.79845 9.63563 6.04266V14.8982C9.63563 15.1424 9.55736 15.3388 9.40081 15.4875C9.24966 15.6308 9.04723 15.7025 8.79352 15.7025H3.22267ZM4.97976 14.1018H7.03644C7.1552 14.1018 7.25506 14.0647 7.33603 13.9903C7.417 13.916 7.45749 13.8231 7.45749 13.7116C7.45749 13.5948 7.417 13.4966 7.33603 13.417C7.25506 13.332 7.1552 13.2895 7.03644 13.2895H4.97976C4.8556 13.2895 4.75304 13.332 4.67206 13.417C4.59649 13.4966 4.5587 13.5948 4.5587 13.7116C4.5587 13.8231 4.59649 13.916 4.67206 13.9903C4.75304 14.0647 4.8556 14.1018 4.97976 14.1018ZM4.34008 12.3896H7.70041C7.81916 12.3896 7.91633 12.3498 7.9919 12.2702C8.07287 12.1906 8.11336 12.0923 8.11336 11.9755C8.11336 11.864 8.07287 11.7711 7.9919 11.6968C7.91633 11.6172 7.81916 11.5774 7.70041 11.5774H4.34008C4.21592 11.5774 4.11336 11.6172 4.03239 11.6968C3.95682 11.7711 3.91903 11.864 3.91903 11.9755C3.91903 12.0923 3.95682 12.1906 4.03239 12.2702C4.11336 12.3498 4.21592 12.3896 4.34008 12.3896ZM6 10.4306C6.36167 10.4306 6.67206 10.3085 6.93117 10.0643C7.19028 9.82006 7.31984 9.5201 7.31984 9.16439C7.31984 8.96796 7.27665 8.77418 7.19028 8.58305C7.10391 8.38661 7.01215 8.19814 6.91498 8.01763L6.23482 6.79124C6.15924 6.65851 6.07827 6.59215 5.9919 6.59215C5.91093 6.59215 5.83536 6.65851 5.76518 6.79124L5.08502 8.01763C4.98785 8.19814 4.89609 8.38661 4.80972 8.58305C4.72335 8.77418 4.68016 8.96796 4.68016 9.16439C4.68016 9.5201 4.80972 9.82006 5.06883 10.0643C5.33333 10.3085 5.64372 10.4306 6 10.4306ZM7.88664 21.5H11.417C11.5789 21.5 11.7166 21.4443 11.83 21.3328C11.9433 21.2213 12 21.0859 12 20.9266C12 20.762 11.9433 20.6214 11.83 20.5046C11.7166 20.3931 11.5789 20.3373 11.417 20.3373H7.88664C7.417 20.3373 7.06343 20.2364 6.82591 20.0347C6.59379 19.833 6.47773 19.5011 6.47773 19.0392V17.12H5.29555V19.0392C5.29555 19.8197 5.52767 20.4249 5.9919 20.8549C6.46154 21.285 7.09312 21.5 7.88664 21.5Z"
		fill="currentColor"
	/>
</svg>
