<svg
	color="rgb(var(--foreground, 0, 0, 0))"
	viewBox="0 0 12 22"
	fill="none"
	xmlns="http://www.w3.org/2000/svg"
>
	<path
		d="M2.23482 17.9973H9.76518C10.4723 17.9973 11.0202 17.801 11.4089 17.4083C11.803 17.0155 12 16.4663 12 15.7604V4.39272C12 3.68688 11.803 3.1376 11.4089 2.74488C11.0202 2.35216 10.4723 2.1558 9.76518 2.1558H7.62753V2.09212C7.62753 1.61979 7.47638 1.23768 7.17409 0.945792C6.87719 0.648597 6.48583 0.5 6 0.5C5.51417 0.5 5.12011 0.648597 4.81781 0.945792C4.52092 1.23768 4.37247 1.61979 4.37247 2.09212V2.1558H2.23482C1.52767 2.1558 0.977058 2.35216 0.582996 2.74488C0.194332 3.1376 0 3.68688 0 4.39272V15.7604C0 16.4663 0.194332 17.0155 0.582996 17.4083C0.977058 17.801 1.52767 17.9973 2.23482 17.9973ZM2.2996 16.6759C1.9973 16.6759 1.76248 16.5936 1.59514 16.4291C1.4332 16.2646 1.35223 16.0364 1.35223 15.7445V4.40864C1.35223 4.11676 1.4332 3.88855 1.59514 3.72403C1.76248 3.55951 1.9973 3.47726 2.2996 3.47726H9.70041C10.0081 3.47726 10.2429 3.55951 10.4049 3.72403C10.5668 3.88855 10.6478 4.11676 10.6478 4.40864V15.7445C10.6478 16.0364 10.5668 16.2646 10.4049 16.4291C10.2429 16.5936 10.0081 16.6759 9.70041 16.6759H2.2996ZM6 2.69712C5.83266 2.69712 5.69231 2.6414 5.57895 2.52995C5.46559 2.41319 5.40891 2.27255 5.40891 2.10804C5.40891 1.94882 5.46559 1.8135 5.57895 1.70205C5.69231 1.58529 5.83266 1.52691 6 1.52691C6.16734 1.52691 6.30769 1.58529 6.42105 1.70205C6.53441 1.8135 6.59109 1.94882 6.59109 2.10804C6.59109 2.27255 6.53441 2.41319 6.42105 2.52995C6.30769 2.6414 6.16734 2.69712 6 2.69712ZM3.31174 15.5535H8.70445C8.94737 15.5535 9.1444 15.4818 9.29555 15.3385C9.44669 15.1952 9.52227 15.0042 9.52227 14.7654V6.19181C9.52227 5.95299 9.44669 5.76194 9.29555 5.61865C9.1444 5.47536 8.94737 5.40372 8.70445 5.40372H3.31174C3.06343 5.40372 2.8637 5.47536 2.71255 5.61865C2.5668 5.76194 2.49393 5.95299 2.49393 6.19181V14.7654C2.49393 15.0042 2.5668 15.1952 2.71255 15.3385C2.8637 15.4818 3.06343 15.5535 3.31174 15.5535ZM5.00405 13.9932C4.88529 13.9932 4.78812 13.956 4.71255 13.8817C4.64237 13.8074 4.60729 13.7172 4.60729 13.6111C4.60729 13.4996 4.64237 13.4067 4.71255 13.3324C4.78812 13.2528 4.88529 13.213 5.00405 13.213H7.01215C7.12551 13.213 7.21997 13.2528 7.29555 13.3324C7.37112 13.4067 7.40891 13.4996 7.40891 13.6111C7.40891 13.7172 7.37112 13.8074 7.29555 13.8817C7.21997 13.956 7.12551 13.9932 7.01215 13.9932H5.00405ZM4.38866 12.3294C4.26991 12.3294 4.17274 12.2923 4.09717 12.218C4.02159 12.1437 3.98381 12.0508 3.98381 11.9393C3.98381 11.8332 4.02159 11.743 4.09717 11.6687C4.17274 11.5891 4.26991 11.5493 4.38866 11.5493H7.65182C7.76518 11.5493 7.85965 11.5891 7.93522 11.6687C8.0108 11.743 8.04858 11.8332 8.04858 11.9393C8.04858 12.0508 8.0108 12.1437 7.93522 12.218C7.85965 12.2923 7.76518 12.3294 7.65182 12.3294H4.38866ZM6 10.4428C5.65452 10.4428 5.35493 10.326 5.10121 10.0925C4.8475 9.85368 4.72065 9.55914 4.72065 9.20887C4.72065 9.01782 4.76113 8.82942 4.84211 8.64367C4.92848 8.45262 5.02024 8.27218 5.11741 8.10235L5.77328 6.90826C5.84346 6.78089 5.91903 6.71721 6 6.71721C6.08097 6.7119 6.15655 6.77559 6.22672 6.90826L6.88259 8.10235C6.97976 8.27218 7.06883 8.45262 7.1498 8.64367C7.23617 8.82942 7.27935 9.01782 7.27935 9.20887C7.27935 9.55914 7.1552 9.85368 6.90688 10.0925C6.65857 10.326 6.35628 10.4428 6 10.4428ZM7.88664 21.5H11.417C11.5789 21.5 11.7166 21.4443 11.83 21.3328C11.9433 21.2214 12 21.0861 12 20.9268C12 20.7623 11.9433 20.6217 11.83 20.5049C11.7166 20.3935 11.5789 20.3378 11.417 20.3378H7.88664C7.417 20.3378 7.06343 20.2369 6.82591 20.0353C6.59379 19.8336 6.47773 19.5019 6.47773 19.0402V17.1217H5.29555V19.0402C5.29555 19.8203 5.52767 20.4253 5.9919 20.8552C6.46154 21.2851 7.09312 21.5 7.88664 21.5Z"
		fill="currentColor"
	/>
</svg>
