<svg
	color="rgb(var(--foreground, 0, 0, 0))"
	viewBox="0 0 24 12"
	fill="none"
	xmlns="http://www.w3.org/2000/svg"
>
	<path
		d="M12.0039 12C13.1658 12 14.2309 11.8931 15.1992 11.6793C16.1727 11.4654 17.0154 11.163 17.7272 10.7718C18.4442 10.3755 18.9964 9.90352 19.3837 9.35593C19.7763 8.80834 19.9725 8.20339 19.9725 7.54107V3.62973C19.9725 2.84746 19.6637 2.18774 19.0461 1.65059C18.4338 1.10821 17.5361 0.698827 16.3533 0.422425C15.1704 0.140808 13.7206 0 12.0039 0C10.2872 0 8.83481 0.140808 7.64671 0.422425C6.46385 0.698827 5.56362 1.10821 4.94603 1.65059C4.33366 2.18774 4.02748 2.84746 4.02748 3.62973V7.54107C4.02748 8.20339 4.22113 8.80834 4.60844 9.35593C5.00098 9.90352 5.55316 10.3755 6.26497 10.7718C6.98201 11.163 7.82467 11.4654 8.79293 11.6793C9.76644 11.8931 10.8368 12 12.0039 12ZM7.74877 4.31812C7.74877 4.14081 7.81158 3.98957 7.93719 3.86441C8.06804 3.73403 8.22244 3.66884 8.40039 3.66884H15.6075C15.7906 3.66884 15.945 3.73403 16.0707 3.86441C16.2015 3.98957 16.2669 4.14081 16.2669 4.31812C16.2669 4.50065 16.2015 4.65711 16.0707 4.78748C15.945 4.91265 15.7906 4.97523 15.6075 4.97523H8.40039C8.22244 4.97523 8.06804 4.91265 7.93719 4.78748C7.81158 4.65711 7.74877 4.50065 7.74877 4.31812ZM7.74877 7.33768C7.74877 7.15515 7.81158 7.0013 7.93719 6.87614C8.06804 6.74576 8.22244 6.68057 8.40039 6.68057H15.6075C15.7906 6.68057 15.945 6.74576 16.0707 6.87614C16.2015 7.0013 16.2669 7.15515 16.2669 7.33768C16.2669 7.51499 16.2015 7.66884 16.0707 7.79922C15.945 7.92438 15.7906 7.98696 15.6075 7.98696H8.40039C8.22244 7.98696 8.06804 7.92438 7.93719 7.79922C7.81158 7.66884 7.74877 7.51499 7.74877 7.33768ZM0 5.1395C0 5.97914 0.191037 6.72229 0.573111 7.36897C0.955185 8.01043 1.48904 8.51369 2.17468 8.87875C2.86555 9.23859 3.67157 9.41851 4.59274 9.41851H5.10304V8.15906H4.46712C3.83382 8.15906 3.27641 8.03129 2.7949 7.77575C2.31338 7.51499 1.93654 7.15776 1.66438 6.70404C1.39745 6.24511 1.26398 5.7236 1.26398 5.1395C1.26398 4.70665 1.37651 4.36506 1.60157 4.11473C1.82663 3.86441 2.14851 3.73924 2.56722 3.73924H4.78116V2.47979H2.56722C2.0229 2.47979 1.5597 2.5867 1.17763 2.80052C0.795551 3.01434 0.502453 3.31943 0.298332 3.71578C0.0994439 4.11213 0 4.5867 0 5.1395ZM24 5.1395C24 4.5867 23.8979 4.11213 23.6938 3.71578C23.4949 3.31943 23.2044 3.01434 22.8224 2.80052C22.4403 2.5867 21.9771 2.47979 21.4328 2.47979H19.2188V3.73924H21.4328C21.8515 3.73924 22.1734 3.86441 22.3984 4.11473C22.6235 4.36506 22.736 4.70665 22.736 5.1395C22.736 5.7236 22.5999 6.24511 22.3278 6.70404C22.0608 7.15776 21.6866 7.51499 21.2051 7.77575C20.7288 8.03129 20.1714 8.15906 19.5329 8.15906H18.897V9.41851H19.4151C20.331 9.41851 21.1318 9.23859 21.8175 8.87875C22.5083 8.51369 23.0448 8.01043 23.4269 7.36897C23.809 6.72229 24 5.97914 24 5.1395Z"
		fill="currentColor"
	/>
</svg>
