<svg
	color="rgb(var(--foreground, 0, 0, 0))"
	viewBox="0 0 24 12"
	fill="none"
	xmlns="http://www.w3.org/2000/svg"
>
	<path
		d="M12.0039 12C13.1658 12 14.2309 11.8931 15.1992 11.6793C16.1727 11.4654 17.0154 11.163 17.7272 10.7718C18.4442 10.3755 18.9964 9.90352 19.3837 9.35593C19.7763 8.80834 19.9725 8.20339 19.9725 7.54107V3.62973C19.9725 2.84746 19.6637 2.18774 19.0461 1.65059C18.4338 1.10821 17.5361 0.698827 16.3533 0.422425C15.1704 0.140808 13.7206 0 12.0039 0C10.2872 0 8.83481 0.140808 7.64671 0.422425C6.46385 0.698827 5.56362 1.10821 4.94603 1.65059C4.33366 2.18774 4.02748 2.84746 4.02748 3.62973V7.54107C4.02748 8.20339 4.22113 8.80834 4.60844 9.35593C5.00098 9.90352 5.55316 10.3755 6.26497 10.7718C6.98201 11.163 7.82467 11.4654 8.79293 11.6793C9.76644 11.8931 10.8368 12 12.0039 12ZM12.0039 10.7405C11.0304 10.7405 10.1354 10.6623 9.31894 10.5059C8.50245 10.3442 7.79326 10.1199 7.19136 9.83312C6.58947 9.54107 6.12365 9.19948 5.79392 8.80834C5.46418 8.41721 5.29931 7.99478 5.29931 7.54107V3.62973C5.29931 3.11864 5.55577 2.6884 6.06869 2.33898C6.58685 1.98435 7.34315 1.71578 8.33759 1.53325C9.33726 1.35072 10.5594 1.25945 12.0039 1.25945C13.4432 1.25945 14.6601 1.35072 15.6546 1.53325C16.6542 1.71578 17.4132 1.98435 17.9313 2.33898C18.4495 2.6884 18.7085 3.11864 18.7085 3.62973V7.54107C18.7085 7.99478 18.5411 8.41721 18.2061 8.80834C17.8764 9.19948 17.4105 9.54107 16.8086 9.83312C16.2067 10.1199 15.4975 10.3442 14.6811 10.5059C13.8646 10.6623 12.9722 10.7405 12.0039 10.7405ZM7.88224 4.36506C7.88224 4.53716 7.94243 4.68579 8.06281 4.81095C8.18842 4.93611 8.33759 4.9987 8.5103 4.9987H15.5054C15.6781 4.9987 15.8247 4.93611 15.945 4.81095C16.0707 4.68579 16.1335 4.53716 16.1335 4.36506C16.1335 4.19817 16.0707 4.05215 15.945 3.92699C15.8247 3.80183 15.6781 3.73924 15.5054 3.73924H8.5103C8.33759 3.73924 8.18842 3.80183 8.06281 3.92699C7.94243 4.05215 7.88224 4.19817 7.88224 4.36506ZM7.88224 7.29074C7.88224 7.46284 7.94243 7.61147 8.06281 7.73664C8.18842 7.85658 8.33759 7.91656 8.5103 7.91656H15.5054C15.6781 7.91656 15.8247 7.85658 15.945 7.73664C16.0707 7.61147 16.1335 7.46284 16.1335 7.29074C16.1335 7.11864 16.0707 6.97001 15.945 6.84485C15.8247 6.71969 15.6781 6.65711 15.5054 6.65711H8.5103C8.33759 6.65711 8.18842 6.71969 8.06281 6.84485C7.94243 6.97001 7.88224 7.11864 7.88224 7.29074ZM0 5.1395C0 5.97914 0.191037 6.72229 0.573111 7.36897C0.955185 8.01043 1.48904 8.51369 2.17468 8.87875C2.86555 9.23859 3.67157 9.41851 4.59274 9.41851H5.10304V8.15906H4.46712C3.83382 8.15906 3.27641 8.03129 2.7949 7.77575C2.31338 7.51499 1.93654 7.15776 1.66438 6.70404C1.39745 6.24511 1.26398 5.7236 1.26398 5.1395C1.26398 4.70665 1.37651 4.36506 1.60157 4.11473C1.82663 3.86441 2.14851 3.73924 2.56722 3.73924H4.78116V2.47979H2.56722C2.0229 2.47979 1.5597 2.5867 1.17763 2.80052C0.795551 3.01434 0.502453 3.31943 0.298332 3.71578C0.0994439 4.11213 0 4.5867 0 5.1395ZM24 5.1395C24 4.5867 23.8979 4.11213 23.6938 3.71578C23.4949 3.31943 23.2044 3.01434 22.8224 2.80052C22.4403 2.5867 21.9771 2.47979 21.4328 2.47979H19.2188V3.73924H21.4328C21.8515 3.73924 22.1734 3.86441 22.3984 4.11473C22.6235 4.36506 22.736 4.70665 22.736 5.1395C22.736 5.7236 22.5999 6.24511 22.3278 6.70404C22.0608 7.15776 21.6866 7.51499 21.2051 7.77575C20.7288 8.03129 20.1714 8.15906 19.5329 8.15906H18.897V9.41851H19.4151C20.331 9.41851 21.1318 9.23859 21.8175 8.87875C22.5083 8.51369 23.0448 8.01043 23.4269 7.36897C23.809 6.72229 24 5.97914 24 5.1395Z"
		fill="currentColor"
	/>
</svg>
