<svg
	color="rgb(var(--foreground, 0, 0, 0))"
	viewBox="0 0 11 20"
	fill="none"
	xmlns="http://www.w3.org/2000/svg"
>
	<path
		d="M1.42013 2.7381C1.42013 3.17725 1.54316 3.52116 1.7892 3.76984C2.03525 4.01852 2.37491 4.14286 2.80817 4.14286H8.18381C8.62242 4.14286 8.96475 4.01852 9.21079 3.76984C9.45684 3.52116 9.57987 3.17725 9.57987 2.7381V1.90476C9.57987 1.46561 9.45684 1.12169 9.21079 0.873016C8.96475 0.624339 8.62242 0.5 8.18381 0.5H2.80817C2.37491 0.5 2.03525 0.624339 1.7892 0.873016C1.54316 1.12169 1.42013 1.46561 1.42013 1.90476V2.7381ZM2.55142 2.72222V1.92063C2.55142 1.8254 2.57817 1.75132 2.63166 1.69841C2.69049 1.64021 2.76805 1.61111 2.86433 1.61111H8.12764C8.22927 1.61111 8.30683 1.64021 8.36032 1.69841C8.41916 1.75132 8.44858 1.8254 8.44858 1.92063V2.72222C8.44858 2.81217 8.41916 2.88624 8.36032 2.94444C8.30683 3.00265 8.22927 3.03175 8.12764 3.03175H2.86433C2.76805 3.03175 2.69049 3.00265 2.63166 2.94444C2.57817 2.88624 2.55142 2.81217 2.55142 2.72222ZM3.72283 5.5873V3.70635H2.59154V5.5873H3.72283ZM8.40846 5.5873V3.70635H7.27717V5.5873H8.40846ZM0 16.8968C0 17.4259 0.106978 17.8836 0.320934 18.2698C0.534889 18.6614 0.834427 18.963 1.21955 19.1746C1.61002 19.3915 2.06735 19.5 2.59154 19.5H8.40846C8.9273 19.5 9.38196 19.3915 9.77243 19.1746C10.1629 18.963 10.4651 18.6614 10.6791 18.2698C10.893 17.8836 11 17.4259 11 16.8968V7.89683C11 7.36773 10.893 6.91005 10.6791 6.52381C10.4651 6.13228 10.1629 5.83069 9.77243 5.61905C9.38196 5.40212 8.9273 5.29365 8.40846 5.29365H2.59154C2.06735 5.29365 1.61002 5.40212 1.21955 5.61905C0.834427 5.83069 0.534889 6.13228 0.320934 6.52381C0.106978 6.91005 0 7.36773 0 7.89683V16.8968ZM1.22757 16.881V7.9127C1.22757 7.48942 1.35594 7.15079 1.61269 6.89683C1.87479 6.64286 2.22247 6.51587 2.65573 6.51587H8.34427C8.77753 6.51587 9.12254 6.64286 9.37928 6.89683C9.64138 7.15079 9.77243 7.48942 9.77243 7.9127V16.881C9.77243 17.3095 9.64138 17.6508 9.37928 17.9048C9.12254 18.1587 8.77753 18.2857 8.34427 18.2857H2.65573C2.22247 18.2857 1.87479 18.1587 1.61269 17.9048C1.35594 17.6508 1.22757 17.3095 1.22757 16.881ZM2.50328 12.9603C2.50328 13.1296 2.5541 13.2646 2.65573 13.3651C2.75735 13.4603 2.89108 13.5079 3.05689 13.5079H4.37272V14.8016C4.37272 14.9656 4.42086 15.1005 4.51714 15.2064C4.61877 15.3069 4.75517 15.3571 4.92633 15.3571H6.06565C6.23681 15.3571 6.37053 15.3069 6.46681 15.2064C6.56844 15.1005 6.61926 14.9656 6.61926 14.8016V13.5079H7.93508C8.09555 13.5079 8.22927 13.4603 8.33625 13.3651C8.44323 13.2646 8.49672 13.1296 8.49672 12.9603V11.8333C8.49672 11.664 8.44323 11.5317 8.33625 11.4365C8.22927 11.336 8.09555 11.2857 7.93508 11.2857H6.61926V9.99206C6.61926 9.82804 6.56844 9.69577 6.46681 9.59524C6.37053 9.49471 6.23681 9.44445 6.06565 9.44445H4.92633C4.75517 9.44445 4.61877 9.49471 4.51714 9.59524C4.42086 9.69577 4.37272 9.82804 4.37272 9.99206V11.2857H3.05689C2.89108 11.2857 2.75735 11.336 2.65573 11.4365C2.5541 11.5317 2.50328 11.664 2.50328 11.8333V12.9603Z"
		fill="currentColor"
	/>
</svg>
