<svg
	color="rgb(var(--foreground, 0, 0, 0))"
	viewBox="0 0 18 16"
	fill="none"
	xmlns="http://www.w3.org/2000/svg"
>
	<path
		d="M2.40259 15.5H15.5974C16.4009 15.5 17.0022 15.3039 17.4013 14.9118C17.8004 14.5196 18 13.9288 18 13.1393V5.60836C18 4.81373 17.8004 4.22291 17.4013 3.83591C17.0022 3.44376 16.4009 3.24768 15.5974 3.24768H2.40259C1.60432 3.24768 1.00302 3.44376 0.598704 3.83591C0.199568 4.22291 0 4.81373 0 5.60836V13.1393C0 13.9288 0.199568 14.5196 0.598704 14.9118C1.00302 15.3039 1.60432 15.5 2.40259 15.5ZM5.054 3.92105H6.25918V2.55108C6.25918 2.25697 6.34212 2.02993 6.50799 1.86997C6.67387 1.71001 6.90972 1.63003 7.21555 1.63003H10.7844C11.0851 1.63003 11.3184 1.71001 11.4842 1.86997C11.6501 2.02993 11.733 2.25697 11.733 2.55108V3.90557H12.9382V2.63622C12.9382 1.90867 12.7516 1.37203 12.3784 1.02632C12.0052 0.675439 11.4661 0.5 10.7611 0.5H7.2311C6.5676 0.5 6.03888 0.675439 5.64492 1.02632C5.25097 1.37203 5.054 1.90867 5.054 2.63622V3.92105ZM5.34168 10.0588V8.66564C5.34168 8.4644 5.40389 8.30186 5.52829 8.17802C5.6527 8.04902 5.81857 7.98452 6.02592 7.98452H7.61987V6.41331C7.61987 6.20175 7.68207 6.03406 7.80648 5.91022C7.93089 5.78638 8.09417 5.72446 8.29633 5.72446H9.70367C9.90583 5.72446 10.0691 5.78638 10.1935 5.91022C10.3179 6.03406 10.3801 6.20175 10.3801 6.41331V7.98452H11.9741C12.1814 7.98452 12.3473 8.04902 12.4717 8.17802C12.6013 8.30186 12.6661 8.4644 12.6661 8.66564V10.0588C12.6661 10.2652 12.6013 10.4329 12.4717 10.5619C12.3473 10.6858 12.1814 10.7477 11.9741 10.7477H10.3801V12.3189C10.3801 12.5304 10.3179 12.6981 10.1935 12.822C10.0691 12.9458 9.90583 13.0077 9.70367 13.0077H8.29633C8.09417 13.0077 7.93089 12.9458 7.80648 12.822C7.68207 12.6981 7.61987 12.5304 7.61987 12.3189V10.7477H6.02592C5.82376 10.7477 5.65788 10.6858 5.52829 10.5619C5.40389 10.4329 5.34168 10.2652 5.34168 10.0588Z"
		fill="currentColor"
	/>
</svg>
