<svg
	color="rgb(var(--foreground, 0, 0, 0))"
	viewBox="0 0 14 14"
	fill="none"
	xmlns="http://www.w3.org/2000/svg"
>
	<path
		d="M2.38783 14H11.6122C12.4081 14 13.0038 13.8023 13.3992 13.4068C13.7997 13.0165 14 12.4284 14 11.6426V2.35741C14 1.57161 13.7997 0.983523 13.3992 0.593156C13.0038 0.197719 12.4081 0 11.6122 0H2.38783C1.59189 0 0.993663 0.197719 0.593156 0.593156C0.197719 0.983523 0 1.57161 0 2.35741V11.6426C0 12.4284 0.197719 13.0165 0.593156 13.4068C0.993663 13.8023 1.59189 14 2.38783 14ZM3.42205 2.04563C3.62991 2.04563 3.80989 2.10139 3.96198 2.21293C4.11914 2.31939 4.24335 2.45881 4.3346 2.63118C4.43093 2.45881 4.55513 2.31939 4.70722 2.21293C4.86439 2.10139 5.04183 2.04563 5.23954 2.04563C5.55894 2.04563 5.82256 2.15463 6.03042 2.37262C6.23828 2.59062 6.34221 2.86692 6.34221 3.20152C6.34221 3.44994 6.2839 3.69075 6.1673 3.92395C6.05577 4.15716 5.90875 4.37769 5.72624 4.58555C5.54373 4.79341 5.34601 4.98352 5.13308 5.15589C4.92522 5.32319 4.72497 5.46768 4.53232 5.58935C4.49683 5.60963 4.46388 5.62991 4.43346 5.65019C4.40304 5.6654 4.37262 5.673 4.34221 5.673C4.32193 5.673 4.29404 5.6654 4.25855 5.65019C4.22307 5.62991 4.18758 5.60963 4.15209 5.58935C3.96451 5.45754 3.76426 5.30545 3.55133 5.13308C3.34347 4.96071 3.14575 4.77313 2.95817 4.57034C2.77567 4.36248 2.62611 4.14449 2.50951 3.91635C2.3929 3.68821 2.3346 3.44994 2.3346 3.20152C2.3346 2.86692 2.43599 2.59062 2.63878 2.37262C2.84664 2.15463 3.10773 2.04563 3.42205 2.04563ZM2.81369 9.07224C2.67681 9.07224 2.56274 9.02662 2.47148 8.93536C2.38023 8.84411 2.3346 8.73257 2.3346 8.60076C2.3346 8.46895 2.38023 8.35995 2.47148 8.27376C2.56274 8.18251 2.67681 8.13688 2.81369 8.13688H10.4563C10.5881 8.13688 10.6971 8.18251 10.7833 8.27376C10.8745 8.35995 10.9202 8.46895 10.9202 8.60076C10.9202 8.73257 10.8745 8.84411 10.7833 8.93536C10.6971 9.02662 10.5881 9.07224 10.4563 9.07224H2.81369ZM2.81369 11.673C2.67681 11.673 2.56274 11.6299 2.47148 11.5437C2.38023 11.4525 2.3346 11.3409 2.3346 11.2091C2.3346 11.0773 2.38023 10.9658 2.47148 10.8745C2.56274 10.7833 2.67681 10.7376 2.81369 10.7376H8.44867C8.58555 10.7376 8.69708 10.7833 8.78327 10.8745C8.87453 10.9658 8.92015 11.0773 8.92015 11.2091C8.92015 11.3409 8.87453 11.4525 8.78327 11.5437C8.69708 11.6299 8.58555 11.673 8.44867 11.673H2.81369Z"
		fill="currentColor"
	/>
</svg>
