<svg
	color="rgb(var(--foreground, 0, 0, 0))"
	viewBox="0 0 17 18"
	fill="none"
	xmlns="http://www.w3.org/2000/svg"
>
	<path
		d="M0 10.2867C0 11.031 0.179559 11.5879 0.538677 11.9574C0.903076 12.3216 1.45231 12.5037 2.18639 12.5037H4.9986V15.3146C4.9986 16.0484 5.1808 16.5947 5.5452 16.9537C5.91488 17.3179 6.47204 17.5 7.21668 17.5H9.78332C10.528 17.5 11.0825 17.3179 11.4469 16.9537C11.8166 16.5947 12.0014 16.0484 12.0014 15.3146V12.5037H14.8136C15.5477 12.5037 16.0943 12.3216 16.4534 11.9574C16.8178 11.5879 17 11.031 17 10.2867V7.72124C17 6.97694 16.8178 6.42268 16.4534 6.05845C16.0943 5.68895 15.5477 5.50419 14.8136 5.50419H12.0014V2.68537C12.0014 1.95164 11.8166 1.40529 11.4469 1.04634C11.0825 0.682115 10.528 0.5 9.78332 0.5H7.21668C6.47204 0.5 5.91488 0.682115 5.5452 1.04634C5.1808 1.40529 4.9986 1.95164 4.9986 2.68537V5.50419H2.18639C1.45231 5.50419 0.903076 5.68895 0.538677 6.05845C0.179559 6.42268 0 6.97694 0 7.72124V10.2867ZM1.2754 10.2629V7.74499C1.2754 7.42299 1.35725 7.18281 1.52097 7.02445C1.68468 6.86081 1.93026 6.77899 2.25769 6.77899H6.274V2.75664C6.274 2.42936 6.35322 2.1839 6.51165 2.02026C6.67537 1.85662 6.9183 1.7748 7.24045 1.7748H9.75955C10.0817 1.7748 10.322 1.85662 10.4804 2.02026C10.6441 2.1839 10.726 2.42936 10.726 2.75664V6.77899H14.7423C15.0697 6.77899 15.3153 6.86081 15.479 7.02445C15.6427 7.18281 15.7246 7.42299 15.7246 7.74499V10.2629C15.7246 10.5849 15.6427 10.8277 15.479 10.9914C15.3153 11.1497 15.0697 11.2289 14.7423 11.2289H10.726V15.2513C10.726 15.5733 10.6441 15.8161 10.4804 15.9797C10.322 16.1434 10.0817 16.2252 9.75955 16.2252H7.24045C6.9183 16.2252 6.67537 16.1434 6.51165 15.9797C6.35322 15.8161 6.274 15.5733 6.274 15.2513V11.2289H2.25769C1.93026 11.2289 1.68468 11.1497 1.52097 10.9914C1.35725 10.8277 1.2754 10.5849 1.2754 10.2629Z"
		fill="currentColor"
	/>
</svg>
