<svg
	color="rgb(var(--foreground, 0, 0, 0))"
	viewBox="0 0 18 16"
	fill="none"
	xmlns="http://www.w3.org/2000/svg"
>
	<path
		d="M2.40266 15.5H15.5973C16.4008 15.5 17.0021 15.3039 17.4013 14.9118C17.8004 14.5196 18 13.9288 18 13.1393V5.60836C18 4.81373 17.8004 4.22291 17.4013 3.83591C17.0021 3.44376 16.4008 3.24768 15.5973 3.24768H2.40266C1.60436 3.24768 1.00305 3.44376 0.59872 3.83591C0.199573 4.22291 0 4.81373 0 5.60836V13.1393C0 13.9288 0.199573 14.5196 0.59872 14.9118C1.00305 15.3039 1.60436 15.5 2.40266 15.5ZM2.41821 14.2616C2.0398 14.2616 1.74951 14.1636 1.54734 13.9675C1.35036 13.7714 1.25187 13.4747 1.25187 13.0774V5.67028C1.25187 5.27296 1.35036 4.97626 1.54734 4.78019C1.74951 4.58411 2.0398 4.48607 2.41821 4.48607H15.5818C15.9602 4.48607 16.2479 4.58411 16.4449 4.78019C16.647 4.97626 16.7481 5.27296 16.7481 5.67028V13.0774C16.7481 13.4747 16.647 13.7714 16.4449 13.9675C16.2479 14.1636 15.9602 14.2616 15.5818 14.2616H2.41821ZM5.05413 3.92105H6.25935V2.55108C6.25935 2.25697 6.34229 2.02993 6.50817 1.86997C6.67405 1.71001 6.90991 1.63003 7.21575 1.63003H10.7847C11.0854 1.63003 11.3187 1.71001 11.4845 1.86997C11.6504 2.02993 11.7334 2.25697 11.7334 2.55108V3.90557H12.9386V2.63622C12.9386 1.90867 12.752 1.37203 12.3787 1.02632C12.0055 0.675439 11.4664 0.5 10.7614 0.5H7.2313C6.56778 0.5 6.03904 0.675439 5.64508 1.02632C5.25111 1.37203 5.05413 1.90867 5.05413 2.63622V3.92105ZM5.38071 10.0511C5.38071 10.2523 5.44291 10.4149 5.56732 10.5387C5.69173 10.6625 5.85243 10.7245 6.04941 10.7245H7.63563V12.2957C7.63563 12.4969 7.69524 12.6594 7.81447 12.7833C7.93888 12.9071 8.10216 12.969 8.30433 12.969H9.69616C9.89832 12.969 10.059 12.9071 10.1782 12.7833C10.3027 12.6594 10.3649 12.4969 10.3649 12.2957V10.7245H11.9511C12.1532 10.7245 12.3165 10.6625 12.4409 10.5387C12.5654 10.4149 12.6276 10.2523 12.6276 10.0511V8.66564C12.6276 8.4644 12.5654 8.30444 12.4409 8.18576C12.3165 8.06192 12.1532 8 11.9511 8H10.3649V6.43653C10.3649 6.23013 10.3027 6.0676 10.1782 5.94892C10.059 5.82508 9.89832 5.76316 9.69616 5.76316H8.30433C8.10216 5.76316 7.93888 5.82508 7.81447 5.94892C7.69524 6.0676 7.63563 6.23013 7.63563 6.43653V8H6.04941C5.84724 8 5.68395 8.06192 5.55955 8.18576C5.44032 8.30444 5.38071 8.4644 5.38071 8.66564V10.0511Z"
		fill="currentColor"
	/>
</svg>
