<svg
	color="rgb(var(--foreground, 0, 0, 0))"
	viewBox="0 0 14 14"
	fill="none"
	xmlns="http://www.w3.org/2000/svg"
>
	<path
		d="M3.82509 2.5019C3.51077 2.5019 3.24968 2.6109 3.04183 2.8289C2.83904 3.04689 2.73764 3.32319 2.73764 3.65779C2.73764 3.90621 2.79594 4.14449 2.91255 4.37262C3.02915 4.60076 3.17871 4.81876 3.36122 5.02662C3.5488 5.2294 3.74651 5.41698 3.95437 5.58935C4.1673 5.76172 4.36755 5.91128 4.55513 6.03802C4.59062 6.06337 4.62611 6.08618 4.6616 6.10646C4.69708 6.12167 4.7275 6.12928 4.75285 6.12928C4.7782 6.12928 4.80608 6.12167 4.8365 6.10646C4.86692 6.08618 4.89987 6.06337 4.93536 6.03802C5.12801 5.92142 5.32826 5.77947 5.53612 5.61217C5.74905 5.4398 5.94677 5.24968 6.12928 5.04182C6.31179 4.83397 6.45881 4.61343 6.57034 4.38023C6.68695 4.14702 6.74525 3.90621 6.74525 3.65779C6.74525 3.32319 6.64132 3.04689 6.43346 2.8289C6.2256 2.6109 5.96198 2.5019 5.64259 2.5019C5.44994 2.5019 5.27503 2.55767 5.11787 2.6692C4.96071 2.77567 4.8365 2.91508 4.74525 3.08745C4.64892 2.91508 4.52218 2.77567 4.36502 2.6692C4.21293 2.55767 4.03295 2.5019 3.82509 2.5019ZM3.21673 8.50951H10.7072C10.839 8.50951 10.9506 8.46388 11.0418 8.37262C11.1331 8.28137 11.1787 8.16984 11.1787 8.03802C11.1787 7.90621 11.1331 7.79721 11.0418 7.71103C10.9506 7.61977 10.839 7.57414 10.7072 7.57414H3.21673C3.07985 7.57414 2.96578 7.61977 2.87452 7.71103C2.78327 7.79721 2.73764 7.90621 2.73764 8.03802C2.73764 8.16984 2.78327 8.28137 2.87452 8.37262C2.96578 8.46388 3.07985 8.50951 3.21673 8.50951ZM3.21673 11.1103H8.70722C8.83904 11.1103 8.95057 11.0672 9.04183 10.981C9.13308 10.8897 9.17871 10.7782 9.17871 10.6464C9.17871 10.5146 9.13308 10.403 9.04183 10.3118C8.95057 10.2205 8.83904 10.1749 8.70722 10.1749H3.21673C3.07985 10.1749 2.96578 10.2205 2.87452 10.3118C2.78327 10.403 2.73764 10.5146 2.73764 10.6464C2.73764 10.7782 2.78327 10.8897 2.87452 10.981C2.96578 11.0672 3.07985 11.1103 3.21673 11.1103ZM2.38783 14H11.6122C12.4081 14 13.0038 13.8023 13.3992 13.4068C13.7997 13.0165 14 12.4284 14 11.6426V2.35741C14 1.57161 13.7997 0.983523 13.3992 0.593156C13.0038 0.197719 12.4081 0 11.6122 0H2.38783C1.59189 0 0.993663 0.197719 0.593156 0.593156C0.197719 0.983523 0 1.57161 0 2.35741V11.6426C0 12.4284 0.197719 13.0165 0.593156 13.4068C0.993663 13.8023 1.59189 14 2.38783 14ZM2.40304 12.7757C2.02281 12.7757 1.73131 12.6768 1.52852 12.4791C1.32573 12.2763 1.22433 11.9772 1.22433 11.5817V2.41825C1.22433 2.02281 1.32573 1.72624 1.52852 1.52852C1.73131 1.32573 2.02281 1.22433 2.40304 1.22433H11.597C11.9721 1.22433 12.2611 1.32573 12.4639 1.52852C12.6717 1.72624 12.7757 2.02281 12.7757 2.41825V11.5817C12.7757 11.9772 12.6717 12.2763 12.4639 12.4791C12.2611 12.6768 11.9721 12.7757 11.597 12.7757H2.40304Z"
		fill="currentColor"
	/>
</svg>
