<svg
	color="rgb(var(--foreground, 0, 0, 0))"
	viewBox="0 0 11 20"
	fill="none"
	xmlns="http://www.w3.org/2000/svg"
>
	<path
		d="M2.80817 4.14286H8.18381C8.62242 4.14286 8.96475 4.01852 9.21079 3.76984C9.45684 3.52116 9.57987 3.17725 9.57987 2.7381V1.90476C9.57987 1.46561 9.45684 1.12169 9.21079 0.873016C8.96475 0.624339 8.62242 0.5 8.18381 0.5H2.80817C2.37491 0.5 2.03525 0.624339 1.7892 0.873016C1.54316 1.12169 1.42013 1.46561 1.42013 1.90476V2.7381C1.42013 3.17725 1.54316 3.52116 1.7892 3.76984C2.03525 4.01852 2.37491 4.14286 2.80817 4.14286ZM2.91247 5.5873H8.08753V3.70635H2.91247V5.5873ZM2.59154 19.5H8.40846C8.9273 19.5 9.38196 19.3915 9.77243 19.1746C10.1629 18.963 10.4651 18.6614 10.6791 18.2698C10.893 17.8836 11 17.4259 11 16.8968V7.89683C11 7.36773 10.893 6.91005 10.6791 6.52381C10.4651 6.13228 10.1629 5.83069 9.77243 5.61905C9.38196 5.40212 8.9273 5.29365 8.40846 5.29365H2.59154C2.06735 5.29365 1.61002 5.40212 1.21955 5.61905C0.834427 5.83069 0.534889 6.13228 0.320934 6.52381C0.106978 6.91005 0 7.36773 0 7.89683V16.8968C0 17.4259 0.106978 17.8836 0.320934 18.2698C0.534889 18.6614 0.834427 18.963 1.21955 19.1746C1.61002 19.3915 2.06735 19.5 2.59154 19.5ZM2.407 12.9762V11.8175C2.407 11.6429 2.46049 11.5053 2.56747 11.4048C2.67445 11.3042 2.81084 11.254 2.97666 11.254H4.34063V9.9127C4.34063 9.74339 4.39144 9.60847 4.49307 9.50794C4.5947 9.40212 4.73377 9.34921 4.91028 9.34921H6.08169C6.25821 9.34921 6.39728 9.40212 6.49891 9.50794C6.60053 9.60847 6.65135 9.74339 6.65135 9.9127V11.254H8.01532C8.18113 11.254 8.31753 11.3042 8.42451 11.4048C8.53683 11.5053 8.593 11.6429 8.593 11.8175V12.9762C8.593 13.1508 8.53683 13.2884 8.42451 13.3889C8.31753 13.4894 8.18113 13.5397 8.01532 13.5397H6.65135V14.881C6.65135 15.0503 6.60053 15.1878 6.49891 15.2937C6.39728 15.3995 6.25821 15.4524 6.08169 15.4524H4.91028C4.73377 15.4524 4.5947 15.3995 4.49307 15.2937C4.39144 15.1878 4.34063 15.0503 4.34063 14.881V13.5397H2.97666C2.81084 13.5397 2.67445 13.4894 2.56747 13.3889C2.46049 13.2884 2.407 13.1508 2.407 12.9762Z"
		fill="currentColor"
	/>
</svg>
