<svg
	color="rgb(var(--foreground, 0, 0, 0))"
	viewBox="0 0 15 16"
	fill="none"
	xmlns="http://www.w3.org/2000/svg"
>
	<path
		d="M1.18484 14.3152C1.58965 14.7149 2.02483 15.0135 2.49038 15.2108C2.96098 15.4132 3.44423 15.5094 3.94013 15.4993C4.4411 15.4942 4.937 15.3778 5.42784 15.1501C5.91869 14.9275 6.38676 14.5935 6.83206 14.1482L13.6558 7.32445C14.1011 6.87915 14.4351 6.41361 14.6577 5.92782C14.8804 5.43698 14.9942 4.94361 14.9993 4.44771C15.0094 3.94674 14.9133 3.46096 14.7108 2.99036C14.5135 2.51976 14.2149 2.08458 13.8152 1.68482C13.4154 1.28506 12.9802 0.986506 12.5096 0.789156C12.039 0.586747 11.5533 0.490602 11.0523 0.500723C10.5564 0.510843 10.063 0.627229 9.57218 0.849879C9.08133 1.07253 8.61579 1.40651 8.17555 1.85181L1.35182 8.66794C0.906523 9.11324 0.572547 9.58132 0.349897 10.0722C0.127246 10.563 0.010861 11.0589 0.000740522 11.5599C-0.00937995 12.0558 0.0842344 12.539 0.281584 13.0096C0.483993 13.4802 0.785077 13.9154 1.18484 14.3152ZM1.98941 13.5182C1.6099 13.1387 1.36953 12.7212 1.26833 12.2658C1.16712 11.8053 1.19749 11.3397 1.35941 10.8691C1.5264 10.3935 1.81483 9.94818 2.22471 9.53324L9.03326 2.7247C9.44314 2.30976 9.88338 2.02132 10.354 1.8594C10.8246 1.69747 11.2901 1.66711 11.7506 1.76831C12.2111 1.86952 12.6336 2.10988 13.0182 2.4894C13.3977 2.86385 13.6381 3.28132 13.7393 3.7418C13.8455 4.20229 13.8152 4.67036 13.6482 5.14602C13.4863 5.61662 13.1953 6.05939 12.7753 6.47433L5.97435 13.2829C5.56447 13.6928 5.12423 13.9787 4.65363 14.1406C4.18302 14.3076 3.71495 14.3405 3.24941 14.2393C2.78893 14.1381 2.36893 13.8977 1.98941 13.5182ZM4.86616 6.17072L9.35205 10.6566L10.1642 9.84445L5.67073 5.35855L4.86616 6.17072Z"
		fill="currentColor"
	/>
</svg>
