<svg
	color="rgb(var(--foreground, 0, 0, 0))"
	viewBox="0 0 19 18"
	fill="none"
	xmlns="http://www.w3.org/2000/svg"
>
	<path
		d="M9.31479 9.37038L11.847 6.71408C12.347 6.18959 12.683 5.62844 12.855 5.03063C13.0324 4.42718 13.0432 3.8322 12.8873 3.24567C12.7367 2.6535 12.4222 2.10645 11.9437 1.60452C11.4599 1.10258 10.9357 0.772661 10.3712 0.61475C9.80671 0.451198 9.23952 0.462478 8.66965 0.648588C8.10515 0.829058 7.5729 1.18154 7.07292 1.70603L4.54073 4.36233L9.31479 9.37038ZM8.46804 10.2671L3.68592 5.25058L1.15373 7.91534C0.648369 8.43983 0.309669 9.0038 0.137631 9.60725C-0.0344076 10.2051 -0.04516 10.8 0.105373 11.3922C0.261283 11.9844 0.578478 12.5286 1.05696 13.0249C1.54082 13.5268 2.065 13.8596 2.6295 14.0231C3.194 14.181 3.7585 14.1698 4.323 13.9893C4.89287 13.8032 5.4278 13.4507 5.92779 12.9318L8.46804 10.2671ZM19 12.4412C18.9032 11.725 18.6586 11.0792 18.2661 10.504C17.8737 9.92871 17.3791 9.47189 16.7823 9.13351C16.1856 8.79513 15.5297 8.62594 14.8146 8.62594C14.105 8.62594 13.4491 8.79513 12.8469 9.13351C12.2502 9.47189 11.7556 9.92871 11.3631 10.504C10.9707 11.0792 10.7287 11.725 10.6373 12.4412H19ZM19 13.6763H10.6373C10.7341 14.3925 10.976 15.0383 11.3631 15.6135C11.7556 16.1944 12.2502 16.654 12.8469 16.9924C13.4437 17.3308 14.0996 17.5 14.8146 17.5C15.5297 17.5 16.1856 17.3308 16.7823 16.9924C17.3845 16.654 17.8791 16.1972 18.2661 15.622C18.6586 15.0467 18.9032 14.3982 19 13.6763Z"
		fill="currentColor"
	/>
</svg>
