<svg
	color="rgb(var(--foreground, 0, 0, 0))"
	viewBox="0 0 19 18"
	fill="none"
	xmlns="http://www.w3.org/2000/svg"
>
	<path
		d="M1.14176 12.9338C1.65008 13.4539 2.19854 13.8016 2.78712 13.9768C3.37571 14.1465 3.96162 14.1465 4.54485 13.9768C5.13344 13.8071 5.67922 13.4649 6.18219 12.9502L12.1697 6.82367C12.6727 6.30902 13.0071 5.75056 13.173 5.14831C13.3389 4.54605 13.3362 3.9438 13.165 3.34155C12.9991 2.73929 12.662 2.18084 12.1537 1.66618C11.6453 1.14605 11.0969 0.801127 10.5083 0.631401C9.91972 0.4562 9.33113 0.4562 8.74255 0.631401C8.15931 0.801127 7.61621 1.14332 7.11323 1.65797L1.13373 7.77633C0.630756 8.29098 0.293656 8.84944 0.122431 9.45169C-0.0434433 10.0539 -0.0407679 10.6562 0.130457 11.2585C0.301682 11.8607 0.638782 12.4192 1.14176 12.9338ZM2.06477 11.9894C1.74372 11.6609 1.53236 11.3023 1.4307 10.9135C1.33438 10.5248 1.34509 10.1333 1.4628 9.73913C1.58052 9.33945 1.80525 8.96989 2.137 8.63043L7.94795 2.68454C8.2797 2.34509 8.63821 2.11514 9.02346 1.99469C9.41407 1.87424 9.79933 1.86602 10.1792 1.97005C10.5645 2.0686 10.915 2.28213 11.2307 2.61063C11.5517 2.93913 11.7631 3.30048 11.8647 3.69469C11.9664 4.08341 11.9584 4.47488 11.8406 4.86908C11.7229 5.26328 11.4955 5.63285 11.1584 5.97778L5.3555 11.9155C5.02375 12.2604 4.66257 12.4931 4.27196 12.6135C3.88671 12.734 3.50145 12.7422 3.1162 12.6382C2.73629 12.5341 2.38581 12.3179 2.06477 11.9894ZM4.23986 5.77246L8.14861 9.76377L9.07162 8.81932L5.16287 4.82802L4.23986 5.77246ZM14.6097 17.5C15.2197 17.5 15.7895 17.3823 16.3193 17.1469C16.849 16.9169 17.3145 16.5966 17.7158 16.186C18.1171 15.7754 18.4301 15.299 18.6549 14.757C18.885 14.215 19 13.6346 19 13.0159C19 12.4027 18.885 11.8279 18.6549 11.2913C18.4301 10.7493 18.1171 10.2729 17.7158 9.86232C17.3145 9.45169 16.849 9.1314 16.3193 8.90145C15.7895 8.66602 15.2197 8.54831 14.6097 8.54831C14.0104 8.54831 13.4459 8.66602 12.9162 8.90145C12.3864 9.1314 11.9209 9.45169 11.5196 9.86232C11.1183 10.2729 10.8026 10.7493 10.5725 11.2913C10.3478 11.8279 10.2354 12.4027 10.2354 13.0159C10.2354 13.6346 10.3478 14.215 10.5725 14.757C10.8026 15.299 11.1183 15.7754 11.5196 16.186C11.9209 16.5966 12.3864 16.9169 12.9162 17.1469C13.4459 17.3823 14.0104 17.5 14.6097 17.5ZM14.6097 16.1778C14.0425 16.1778 13.5261 16.0354 13.0606 15.7507C12.5951 15.466 12.2232 15.0855 11.945 14.6092C11.6667 14.1274 11.5276 13.5963 11.5276 13.0159C11.5276 12.4356 11.6667 11.9072 11.945 11.4309C12.2232 10.9546 12.5951 10.5768 13.0606 10.2976C13.5315 10.0129 14.0478 9.87053 14.6097 9.87053C15.1822 9.87053 15.7012 10.0129 16.1668 10.2976C16.6376 10.5768 17.0122 10.9546 17.2904 11.4309C17.5687 11.9072 17.7078 12.4356 17.7078 13.0159C17.7078 13.6018 17.5687 14.1356 17.2904 14.6174C17.0122 15.0937 16.6376 15.4715 16.1668 15.7507C15.7012 16.0354 15.1822 16.1778 14.6097 16.1778ZM10.9658 13.6894H18.2616V12.3507H10.9658V13.6894Z"
		fill="currentColor"
	/>
</svg>
