<svg
	color="rgb(var(--foreground, 0, 0, 0))"
	viewBox="0 0 21 18"
	fill="none"
	xmlns="http://www.w3.org/2000/svg"
>
	<path
		d="M0 3.68946C0 4.33364 0.10725 5.01972 0.321749 5.74769C0.536248 6.47042 0.826607 7.18269 1.19283 7.88447C1.56428 8.58102 1.98804 9.21473 2.46413 9.78558C2.94544 10.3564 3.45553 10.8121 3.99439 11.1525C4.53849 11.4929 5.08259 11.6631 5.62668 11.6631H5.97982C6.52392 11.6631 7.0654 11.4929 7.60426 11.1525C8.14312 10.8121 8.65321 10.3564 9.13453 9.78558C9.61584 9.21473 10.0396 8.58102 10.4058 7.88447C10.7773 7.18269 11.0703 6.47042 11.2848 5.74769C11.4993 5.01972 11.6065 4.33364 11.6065 3.68946C11.6065 2.82009 11.3946 2.16543 10.9709 1.72551C10.5523 1.28558 9.92713 1.06562 9.09529 1.06562H8.26345V2.33041H9.15807C9.55568 2.33041 9.85127 2.44563 10.0448 2.67606C10.2436 2.9065 10.343 3.23906 10.343 3.67375C10.343 4.17129 10.2567 4.7212 10.0841 5.32347C9.91667 5.92052 9.68386 6.51756 9.38565 7.1146C9.09268 7.71164 8.75262 8.25893 8.36547 8.75647C7.97833 9.24877 7.56502 9.6468 7.12556 9.95055C6.69133 10.2491 6.24925 10.3983 5.79933 10.3983C5.35463 10.3983 4.91256 10.2491 4.47309 9.95055C4.03886 9.6468 3.62818 9.24877 3.24103 8.75647C2.85389 8.25893 2.51121 7.71164 2.213 7.1146C1.92003 6.51756 1.68722 5.92052 1.51457 5.32347C1.34716 4.7212 1.26345 4.17129 1.26345 3.67375C1.26345 3.23906 1.36024 2.9065 1.55381 2.67606C1.75262 2.44563 2.04821 2.33041 2.44058 2.33041H3.3352V1.06562H2.50336C1.67676 1.06562 1.05157 1.28558 0.627803 1.72551C0.209268 2.16543 0 2.82009 0 3.68946ZM9.14238 17.5C9.93759 17.5 10.6125 17.2879 11.167 16.8637C11.7268 16.4395 12.1872 15.8031 12.5482 14.9547C12.9144 14.1063 13.2074 13.0431 13.4271 11.7652C13.5945 10.8121 13.7855 10.0632 14 9.51848C14.2197 8.96858 14.4735 8.58102 14.7612 8.35582C15.049 8.12538 15.3838 8.01017 15.7657 8.01017C16.2052 8.01017 16.5714 8.15943 16.8643 8.45795C17.1573 8.75647 17.3823 9.20687 17.5392 9.80915C17.7014 10.4114 17.8008 11.1682 17.8374 12.0795H19.1009C19.0224 10.8959 18.855 9.90866 18.5987 9.11784C18.3475 8.32702 17.9892 7.73521 17.5235 7.34242C17.0579 6.94439 16.472 6.74538 15.7657 6.74538C15.1274 6.74538 14.5807 6.90249 14.1256 7.21673C13.6704 7.53096 13.2859 8.03635 12.972 8.7329C12.6581 9.42421 12.3965 10.3407 12.1872 11.4824C12.046 12.2523 11.8916 12.9331 11.7242 13.525C11.5568 14.1168 11.3554 14.6117 11.12 15.0097C10.8845 15.413 10.5994 15.7167 10.2646 15.921C9.92975 16.1305 9.52952 16.2352 9.0639 16.2352C8.21637 16.2352 7.56241 15.7927 7.10202 14.9076C6.64163 14.0277 6.41405 12.776 6.41928 11.1525H5.15583C5.1506 13.1898 5.49327 14.7557 6.18386 15.8503C6.87967 16.9501 7.86584 17.5 9.14238 17.5ZM3.72758 2.87246C4.05194 2.87246 4.32922 2.75724 4.55942 2.5268C4.78961 2.29113 4.90471 2.01094 4.90471 1.68623C4.90471 1.36152 4.78961 1.08395 4.55942 0.853512C4.32922 0.617837 4.05194 0.5 3.72758 0.5C3.40321 0.5 3.12332 0.617837 2.88789 0.853512C2.6577 1.08395 2.5426 1.36152 2.5426 1.68623C2.5426 2.01094 2.6577 2.29113 2.88789 2.5268C3.12332 2.75724 3.40321 2.87246 3.72758 2.87246ZM7.86323 2.87246C8.18759 2.87246 8.46487 2.75724 8.69507 2.5268C8.93049 2.29113 9.04821 2.01094 9.04821 1.68623C9.04821 1.36152 8.93049 1.08395 8.69507 0.853512C8.46487 0.617837 8.18759 0.5 7.86323 0.5C7.53886 0.5 7.26158 0.617837 7.03139 0.853512C6.8012 1.08395 6.6861 1.36152 6.6861 1.68623C6.6861 2.01094 6.8012 2.29113 7.03139 2.5268C7.26158 2.75724 7.53886 2.87246 7.86323 2.87246ZM18.5202 16.4552C18.9753 16.4552 19.3886 16.3426 19.7601 16.1174C20.1368 15.8974 20.4376 15.5989 20.6626 15.2218C20.8875 14.8447 21 14.4258 21 13.9649C21 13.5092 20.8875 13.0955 20.6626 12.7237C20.4376 12.3466 20.1368 12.0481 19.7601 11.8281C19.3886 11.6029 18.9753 11.4877 18.5202 11.4824C18.0598 11.4824 17.6413 11.595 17.2646 11.8202C16.8931 12.0402 16.5949 12.3387 16.37 12.7158C16.145 13.0929 16.0325 13.5092 16.0325 13.9649C16.0325 14.4258 16.145 14.8447 16.37 15.2218C16.5949 15.5989 16.8931 15.8974 17.2646 16.1174C17.6413 16.3426 18.0598 16.4552 18.5202 16.4552ZM18.5202 15.3475C18.2638 15.3475 18.031 15.2847 17.8217 15.159C17.6125 15.0385 17.4451 14.8709 17.3195 14.6562C17.1939 14.4467 17.1312 14.2163 17.1312 13.9649C17.1312 13.7083 17.1939 13.4752 17.3195 13.2657C17.4451 13.0562 17.6125 12.8913 17.8217 12.7708C18.031 12.6451 18.2638 12.5823 18.5202 12.5823C18.7765 12.5823 19.0067 12.6451 19.2108 12.7708C19.42 12.8913 19.5874 13.0562 19.713 13.2657C19.8386 13.4752 19.9013 13.7083 19.9013 13.9649C19.9013 14.2163 19.8386 14.4467 19.713 14.6562C19.5874 14.8709 19.42 15.0385 19.2108 15.159C19.0067 15.2847 18.7765 15.3475 18.5202 15.3475Z"
		fill="currentColor"
	/>
</svg>
