<svg
	color="rgb(var(--foreground, 0, 0, 0))"
	viewBox="0 0 18 18"
	fill="none"
	xmlns="http://www.w3.org/2000/svg"
>
	<path
		d="M0.165476 17.856C0.270324 17.957 0.39614 18.0049 0.542927 17.9996C0.689713 17.9996 0.818151 17.9464 0.92824 17.84L4.31743 14.4013L3.55467 13.6353L0.165476 17.0741C0.0606291 17.1805 0.00558426 17.3081 0.000341893 17.4571C-0.00490047 17.6113 0.0501443 17.7443 0.165476 17.856ZM2.89413 13.5875L4.40393 15.1034C4.80235 15.5023 5.25319 15.6965 5.75646 15.6858C6.25972 15.6752 6.72105 15.4571 7.14044 15.0316L15.3972 6.65411L14.5007 5.74455L6.25186 14.122C6.09983 14.2763 5.92683 14.3507 5.73287 14.3454C5.54414 14.3401 5.36852 14.255 5.20601 14.0901L3.88493 12.7577C3.72242 12.5981 3.64116 12.4226 3.64116 12.2311C3.64116 12.0343 3.7198 11.8561 3.87707 11.6965L12.1259 3.33503L11.2216 2.4175L2.9649 10.803C2.54027 11.2391 2.32009 11.7125 2.30436 12.2231C2.29388 12.7338 2.49047 13.1885 2.89413 13.5875ZM4.16802 9.9652L6.10245 11.9359C6.18109 12.0157 6.26759 12.0556 6.36195 12.0556C6.46156 12.0503 6.55068 12.0077 6.62931 11.9279C6.69746 11.8588 6.72892 11.7737 6.72367 11.6726C6.72367 11.5716 6.6896 11.4838 6.62145 11.4093L4.67915 9.45458L4.16802 9.9652ZM5.80364 8.32162L7.73807 10.2843C7.81146 10.3588 7.89796 10.396 7.99757 10.396C8.09717 10.396 8.18367 10.3588 8.25707 10.2843C8.32522 10.2152 8.35667 10.1301 8.35143 10.029C8.35143 9.92265 8.31735 9.83489 8.2492 9.76574L6.31477 7.80302L5.80364 8.32162ZM7.43926 6.65411L9.37369 8.62481C9.44708 8.69928 9.53358 8.73651 9.63319 8.73651C9.73279 8.73651 9.81929 8.69928 9.89268 8.62481C9.96083 8.55566 9.99491 8.47056 9.99491 8.36949C9.99491 8.26311 9.95821 8.17269 9.88482 8.09822L7.95039 6.1355L7.43926 6.65411ZM9.07487 5.00255L11.0093 6.97325C11.0827 7.0424 11.1666 7.07697 11.2609 7.07697C11.3605 7.07697 11.447 7.0424 11.5204 6.97325C11.5938 6.9041 11.6279 6.81634 11.6227 6.70996C11.6227 6.60358 11.5886 6.51581 11.5204 6.44667L9.57814 4.48394L9.07487 5.00255ZM9.91627 2.05846L15.7668 7.9945C15.8873 8.11684 16.0341 8.17801 16.2071 8.17801C16.3854 8.17801 16.5348 8.11684 16.6553 7.9945C16.7812 7.86685 16.8441 7.71525 16.8441 7.53973C16.8441 7.35888 16.7812 7.20729 16.6553 7.08495L10.8127 1.15689C10.6817 1.02391 10.5296 0.960085 10.3566 0.965404C10.1889 0.965404 10.0421 1.02923 9.91627 1.15689C9.7957 1.27923 9.73279 1.42816 9.72755 1.60369C9.72231 1.7739 9.78522 1.92549 9.91627 2.05846ZM11.4103 2.24197L15.5702 6.47858L16.1363 5.90412C16.2569 5.78179 16.3172 5.63285 16.3172 5.45733C16.3224 5.27648 16.2622 5.12489 16.1363 5.00255L14.9961 3.84566L15.9791 2.84834L16.9227 3.80577C17.0433 3.9281 17.1901 3.98927 17.3631 3.98927C17.5413 3.98927 17.6907 3.9281 17.8113 3.80577C17.9371 3.67811 18 3.52652 18 3.35099C18 3.17014 17.9371 3.01855 17.8113 2.89621L15.1455 0.191485C15.025 0.0638284 14.8756 0 14.6973 0C14.5243 0 14.3749 0.0638284 14.2491 0.191485C14.1285 0.313823 14.0682 0.465415 14.0682 0.646262C14.0682 0.82179 14.1285 0.970723 14.2491 1.09306L15.2006 2.05049L14.2176 3.0478L12.8651 1.67549C12.7393 1.55316 12.5873 1.49199 12.409 1.49199C12.236 1.49199 12.0892 1.55316 11.9687 1.67549L11.4103 2.24197Z"
		fill="currentColor"
	/>
</svg>
