<svg
	color="rgb(var(--foreground, 0, 0, 0))"
	viewBox="0 0 17 18"
	fill="none"
	xmlns="http://www.w3.org/2000/svg"
>
	<path
		d="M1.48348 14.5411L2.95902 16.0166L3.83658 15.1313C4.23524 14.7275 4.64684 14.4168 5.07138 14.1994C5.49592 13.9768 5.92823 13.7982 6.36831 13.6635C6.81356 13.5289 7.25881 13.3917 7.70407 13.2519C8.1545 13.107 8.59975 12.9206 9.03982 12.6928C9.4799 12.4598 9.90962 12.1336 10.329 11.7143L16.037 6.00624C16.4667 5.57652 16.7515 5.08984 16.8913 4.54622C17.0362 4.0026 17.0362 3.45898 16.8913 2.91536C16.7515 2.37173 16.4667 1.88765 16.037 1.46311C15.6125 1.03339 15.1284 0.748635 14.5848 0.608846C14.0411 0.463881 13.4975 0.463881 12.9539 0.608846C12.4103 0.748635 11.9236 1.03339 11.4939 1.46311L5.78586 7.17114C5.34578 7.61122 5.00666 8.05388 4.76851 8.49913C4.53035 8.94438 4.34138 9.38964 4.20159 9.83489C4.06698 10.2801 3.93495 10.7202 3.80552 11.1551C3.67608 11.5848 3.50523 12.0094 3.29296 12.4287C3.08069 12.8481 2.77523 13.2571 2.37657 13.6558L1.48348 14.5411ZM4.76074 11.59C4.90053 11.1914 5.03773 10.7901 5.17234 10.3863C5.31213 9.98244 5.49075 9.5812 5.7082 9.18254C5.93082 8.77871 6.2337 8.38523 6.61682 8.00211L12.3249 2.29407C12.5993 2.01968 12.9073 1.83847 13.249 1.75045C13.5959 1.65726 13.9402 1.65726 14.2819 1.75045C14.6288 1.83847 14.9394 2.01709 15.2138 2.28631C15.483 2.56071 15.6617 2.87135 15.7497 3.21823C15.8429 3.55994 15.8429 3.90423 15.7497 4.25111C15.6617 4.59282 15.4804 4.90087 15.206 5.17527L9.49802 10.8833C9.11489 11.2716 8.72659 11.5797 8.33311 11.8075C7.93963 12.0301 7.54616 12.2165 7.15268 12.3666C6.7592 12.5116 6.36831 12.6591 5.98001 12.8093L4.76074 11.59ZM0.349636 15.6749C0.111478 15.9131 -0.00501212 16.1642 0.000165235 16.4282C0.00534259 16.6923 0.121833 16.9356 0.349636 17.1583C0.572263 17.3861 0.815598 17.5 1.07964 17.5C1.34887 17.5 1.59997 17.3835 1.83295 17.1505L2.23678 16.7544L0.745704 15.2789L0.349636 15.6749ZM8.48067 9.04275C8.71365 9.27573 8.99581 9.39222 9.32716 9.39222C9.66369 9.39222 9.95104 9.27315 10.1892 9.03499L12.4724 6.73624C12.7157 6.48773 12.8348 6.20039 12.8296 5.87421C12.8296 5.54286 12.7106 5.2607 12.4724 5.02772C12.2342 4.78438 11.9495 4.6653 11.6181 4.67048C11.2868 4.67566 11.002 4.79474 10.7639 5.02772L8.48067 7.3187C8.24251 7.55168 8.12084 7.83902 8.11566 8.18072C8.11566 8.51725 8.23733 8.80459 8.48067 9.04275ZM8.97769 8.53796C8.87415 8.43441 8.82237 8.31534 8.82237 8.18072C8.82237 8.04611 8.87415 7.92445 8.97769 7.81572L11.2609 5.52474C11.3489 5.43673 11.4525 5.39013 11.5715 5.38495C11.6958 5.3746 11.8071 5.40825 11.9055 5.48591C12.0349 5.5791 12.1048 5.70077 12.1152 5.85092C12.1307 5.99588 12.0841 6.12532 11.9754 6.23922L9.69993 8.5302C9.59639 8.63374 9.47213 8.68552 9.32716 8.68552C9.18738 8.68552 9.07089 8.63633 8.97769 8.53796ZM6.84204 9.78053L7.7196 10.6503C7.82314 10.7487 7.93446 10.7953 8.05354 10.7901C8.17779 10.7849 8.28134 10.7409 8.36418 10.6581C8.45219 10.5701 8.49879 10.4665 8.50397 10.3474C8.51432 10.2232 8.46772 10.1093 8.36418 10.0057L7.48662 9.13595C7.38825 9.04275 7.27693 8.99875 7.15268 9.00392C7.0336 9.00392 6.93005 9.04793 6.84204 9.13595C6.7592 9.21878 6.7126 9.32492 6.70225 9.45435C6.69707 9.57861 6.74367 9.68733 6.84204 9.78053ZM11.0901 2.23195L15.2682 6.41007L15.8662 5.80432L11.688 1.61843L11.0901 2.23195Z"
		fill="currentColor"
	/>
</svg>
