<svg
	color="rgb(var(--foreground, 0, 0, 0))"
	viewBox="0 0 17 18"
	fill="none"
	xmlns="http://www.w3.org/2000/svg"
>
	<path
		d="M11.812 1.3419L16.1507 5.69036L16.1898 5.65125C16.5806 5.2602 16.8282 4.81441 16.9324 4.31387C17.0418 3.80811 17.0184 3.30496 16.862 2.80442C16.7109 2.29867 16.4399 1.85027 16.049 1.45922C15.6582 1.06296 15.21 0.789222 14.7045 0.638017C14.1989 0.481598 13.6934 0.458135 13.1879 0.567628C12.6876 0.671908 12.242 0.916964 11.8511 1.3028L11.812 1.3419ZM1.50875 14.5124L2.98623 15.9906L3.9634 15.0129C4.35948 14.6219 4.76598 14.3143 5.18291 14.0901C5.59984 13.8659 6.02197 13.6834 6.44932 13.5426C6.88188 13.3966 7.31444 13.2506 7.747 13.1046C8.17957 12.9534 8.60952 12.7605 9.03687 12.5259C9.46422 12.2912 9.88375 11.968 10.2955 11.5561L15.5253 6.32385L11.171 1.96758L5.94119 7.20762C5.51384 7.64038 5.1803 8.07314 4.94057 8.5059C4.70084 8.93345 4.50801 9.3636 4.36209 9.79636C4.21616 10.2239 4.07284 10.6488 3.93213 11.0712C3.79663 11.4935 3.61944 11.9106 3.40055 12.3225C3.18688 12.7344 2.882 13.1385 2.48592 13.5348L1.50875 14.5124ZM8.48184 9.05337C8.22647 8.79788 8.10139 8.49547 8.1066 8.14614C8.11181 7.7968 8.23689 7.4996 8.48184 7.25455L10.8427 4.87698C11.0876 4.63192 11.3847 4.50678 11.7339 4.50157C12.083 4.49636 12.3775 4.62149 12.6172 4.87698C12.8726 5.11682 13.0003 5.4088 13.0003 5.75292C13.0003 6.09704 12.8726 6.39685 12.6172 6.65233L10.2564 9.03773C10.0114 9.28278 9.71437 9.40792 9.3652 9.41313C9.01602 9.41313 8.72157 9.29321 8.48184 9.05337ZM6.78547 9.81982C6.67603 9.72076 6.62652 9.60605 6.63694 9.4757C6.65257 9.34535 6.70208 9.23586 6.78547 9.14722C6.87407 9.05337 6.9809 9.00644 7.10598 9.00644C7.23106 9.00123 7.34571 9.04815 7.44994 9.14722L8.35676 10.0466C8.4662 10.1509 8.51571 10.2682 8.50529 10.3986C8.50008 10.5237 8.45057 10.6332 8.35676 10.7271C8.26816 10.8105 8.16132 10.8548 8.03625 10.86C7.91117 10.8652 7.79391 10.8157 7.68447 10.7114L6.78547 9.81982ZM9.04469 8.47462C9.14371 8.57368 9.25836 8.63364 9.38865 8.6545C9.51894 8.67014 9.6362 8.62582 9.74043 8.52154L12.1091 6.13615C12.2133 6.03187 12.255 5.91456 12.2342 5.78421C12.2185 5.65386 12.1612 5.54176 12.0622 5.44791C11.958 5.34884 11.8381 5.2967 11.7026 5.29149C11.5671 5.28627 11.4472 5.33581 11.343 5.44008L9.04469 7.74727C8.94567 7.85155 8.89616 7.97408 8.89616 8.11485C8.89616 8.25042 8.94567 8.37034 9.04469 8.47462ZM0.343964 17.1559C0.568062 17.3853 0.815611 17.5 1.08661 17.5C1.35761 17.5 1.60777 17.3853 1.83708 17.1559L2.24358 16.757L0.750467 15.2632L0.343964 15.6699C0.114655 15.8993 0 16.1496 0 16.4207C0 16.6918 0.114655 16.9369 0.343964 17.1559Z"
		fill="currentColor"
	/>
</svg>
