<svg
	color="rgb(var(--foreground, 0, 0, 0))"
	viewBox="0 0 13 18"
	fill="none"
	xmlns="http://www.w3.org/2000/svg"
>
	<path
		d="M6.13338 17.5C7.16337 17.5 8.09713 17.3323 8.93465 16.997C9.77737 16.6617 10.503 16.1849 11.1117 15.5666C11.7203 14.9483 12.1859 14.2069 12.5084 13.3423C12.8361 12.4778 13 11.519 13 10.4658C13 9.29211 12.8491 8.23108 12.5474 7.28271C12.2457 6.33434 11.8322 5.49337 11.3068 4.75982C10.7866 4.02104 10.1883 3.38442 9.51207 2.84998C8.83581 2.31029 8.12054 1.86755 7.36625 1.52173C6.61717 1.17067 5.86028 0.913931 5.09559 0.751503C4.3361 0.583834 3.61278 0.5 2.92612 0.5C2.55677 0.5 2.26286 0.565495 2.04438 0.696486C1.8311 0.822238 1.72446 1.01086 1.72446 1.26237C1.72446 1.36192 1.74527 1.46147 1.78688 1.56103C1.8285 1.66058 1.89092 1.75751 1.97415 1.85183C2.28107 2.22384 2.57498 2.61943 2.85589 3.0386C3.142 3.45777 3.37609 3.90052 3.55816 4.36685C3.74543 4.83318 3.84166 5.32571 3.84687 5.84443C3.84687 6.02258 3.82866 6.1981 3.79225 6.37101C3.76103 6.53868 3.683 6.73255 3.55816 6.95261L3.94831 6.87402C3.82866 6.48628 3.65439 6.14571 3.42551 5.85229C3.20182 5.55363 2.94692 5.32047 2.66081 5.1528C2.37991 4.98513 2.1016 4.90129 1.8259 4.90129C1.66463 4.90129 1.53459 4.95631 1.43575 5.06634C1.33691 5.17638 1.28749 5.31785 1.28749 5.49075C1.28749 5.59031 1.29529 5.74488 1.3109 5.95446C1.33171 6.15881 1.34211 6.34743 1.34211 6.52034C1.34211 6.8714 1.29789 7.2015 1.20946 7.51063C1.12103 7.81977 1.00918 8.13153 0.873933 8.44591C0.738682 8.76029 0.60343 9.09562 0.468178 9.45192C0.338129 9.80297 0.226286 10.1986 0.132651 10.6387C0.0442169 11.0788 0 11.5818 0 12.1477C0 13.2218 0.254897 14.1597 0.764692 14.9614C1.27449 15.7631 1.98716 16.3866 2.90271 16.8319C3.82346 17.2773 4.90051 17.5 6.13338 17.5ZM6.31285 15.2915C5.58457 15.2915 4.99675 15.0898 4.54938 14.6863C4.10721 14.2776 3.88588 13.7432 3.88588 13.083C3.88588 12.7372 3.9353 12.4411 4.03414 12.1949C4.13818 11.9434 4.25807 11.7181 4.39332 11.519C4.52857 11.3146 4.65342 11.1207 4.76786 10.9374C4.88231 10.7487 4.95513 10.5418 4.98634 10.3165C4.99155 10.2798 5.00455 10.2588 5.02536 10.2536C5.05137 10.2431 5.07738 10.2483 5.10339 10.2693C5.28546 10.4317 5.43632 10.6125 5.55596 10.8116C5.68081 11.0055 5.79265 11.2151 5.89149 11.4404C6.09957 11.1574 6.24783 10.7409 6.33626 10.1907C6.42469 9.63531 6.4351 9.03537 6.36747 8.39089C6.36227 8.35422 6.37007 8.32802 6.39088 8.3123C6.41169 8.29134 6.4403 8.28872 6.47671 8.30444C7.04893 8.5769 7.52751 8.9332 7.91246 9.37332C8.29741 9.81345 8.58612 10.2929 8.77859 10.8116C8.97627 11.3303 9.0751 11.8464 9.0751 12.3599C9.0751 12.8786 8.97367 13.3607 8.77079 13.8061C8.56791 14.2514 8.26099 14.6103 7.85004 14.8828C7.44428 15.1553 6.93189 15.2915 6.31285 15.2915Z"
		fill="currentColor"
	/>
</svg>
