<svg
	color="rgb(var(--foreground, 0, 0, 0))"
	viewBox="0 0 20 14"
	fill="none"
	xmlns="http://www.w3.org/2000/svg"
>
	<path
		d="M14.2255 9.66524C14.2255 9.0765 14.1137 8.52224 13.89 8.00245C13.6715 7.48266 13.3671 7.02387 12.977 6.62607C12.592 6.22827 12.1446 5.91534 11.6348 5.68727C11.125 5.4592 10.5813 5.34517 10.0039 5.34517C9.42125 5.34517 8.87502 5.4592 8.3652 5.68727C7.85538 5.91534 7.40538 6.22827 7.01522 6.62607C6.63025 7.02387 6.32592 7.48266 6.10222 8.00245C5.88373 8.52224 5.77448 9.0765 5.77448 9.66524C5.77448 9.95696 5.8031 10.2407 5.86032 10.5165C5.91754 10.787 6.00078 11.0469 6.11003 11.2962H13.89C13.9992 11.0469 14.0825 10.787 14.1397 10.5165C14.1969 10.2407 14.2255 9.95696 14.2255 9.66524ZM1.69333 10.1187H3.61295C3.81584 10.1187 3.98231 10.0577 4.11237 9.93574C4.24763 9.80844 4.31526 9.65463 4.31526 9.4743C4.31005 9.29396 4.24242 9.1428 4.11237 9.02081C3.98231 8.89351 3.81584 8.82986 3.61295 8.82986H1.69333C1.49044 8.82986 1.32397 8.89351 1.19391 9.02081C1.06386 9.1428 0.998829 9.29396 0.998829 9.4743C0.998829 9.65463 1.06386 9.80844 1.19391 9.93574C1.32397 10.0577 1.49044 10.1187 1.69333 10.1187ZM5.03316 5.52815C5.17362 5.67666 5.33489 5.75357 5.51697 5.75887C5.70425 5.76418 5.85772 5.70318 5.97737 5.57589C6.09702 5.44859 6.15425 5.29213 6.14904 5.10649C6.14904 4.92085 6.07621 4.75643 5.93055 4.61322L4.57277 3.22889C4.4271 3.08038 4.26583 3.00612 4.08896 3.00612C3.91208 3.00612 3.76122 3.06712 3.63636 3.18911C3.51151 3.3111 3.44908 3.46491 3.44908 3.65055C3.45429 3.83089 3.52972 3.99531 3.67538 4.14382L5.03316 5.52815ZM14.0226 5.57589C14.1475 5.69788 14.3009 5.75887 14.483 5.75887C14.6651 5.75357 14.8264 5.67666 14.9668 5.52815L16.3246 4.14382C16.4703 3.99531 16.5431 3.83089 16.5431 3.65055C16.5483 3.47022 16.4885 3.3164 16.3636 3.18911C16.244 3.06181 16.0931 3.00082 15.911 3.00612C15.7342 3.00612 15.5729 3.08038 15.4272 3.22889L14.0694 4.61322C13.9238 4.75643 13.8484 4.9235 13.8432 5.11444C13.8379 5.30008 13.8978 5.4539 14.0226 5.57589ZM16.387 10.1187H18.3067C18.5096 10.1187 18.676 10.0577 18.8061 9.93574C18.9361 9.80844 19.0012 9.65463 19.0012 9.4743C19.0012 9.29396 18.9361 9.1428 18.8061 9.02081C18.676 8.89351 18.5096 8.82986 18.3067 8.82986H16.387C16.1894 8.82986 16.0229 8.89351 15.8876 9.02081C15.7524 9.1428 15.6847 9.29396 15.6847 9.4743C15.6899 9.65463 15.7576 9.80844 15.8876 9.93574C16.0229 10.0577 16.1894 10.1187 16.387 10.1187ZM10.0039 3.88127C10.1756 3.87597 10.3238 3.80702 10.4487 3.67442C10.5735 3.53652 10.636 3.36679 10.636 3.16524V1.20808C10.636 1.00122 10.5735 0.831497 10.4487 0.698898C10.3238 0.566299 10.1756 0.5 10.0039 0.5C9.82703 0.5 9.67616 0.566299 9.55131 0.698898C9.42645 0.831497 9.36403 1.00122 9.36403 1.20808V3.16524C9.36403 3.36679 9.42645 3.53652 9.55131 3.67442C9.67616 3.81232 9.82703 3.88127 10.0039 3.88127ZM0.678892 13.5H19.3211C19.5032 13.5 19.6619 13.439 19.7971 13.317C19.9324 13.1897 20 13.0386 20 12.8635C20 12.6885 19.9324 12.54 19.7971 12.418C19.6619 12.2907 19.5032 12.227 19.3211 12.227H0.678892C0.496814 12.227 0.338145 12.2907 0.202887 12.418C0.0676291 12.54 0 12.6885 0 12.8635C0 13.0386 0.0676291 13.1897 0.202887 13.317C0.338145 13.439 0.496814 13.5 0.678892 13.5Z"
		fill="currentColor"
	/>
</svg>
