<svg
	color="rgb(var(--foreground, 0, 0, 0))"
	viewBox="0 0 18 20"
	fill="none"
	xmlns="http://www.w3.org/2000/svg"
>
	<path
		d="M5.74783 12.3869H7.79896C7.26863 12.1603 6.83449 11.7967 6.49653 11.2962C6.15858 10.7956 5.9896 10.2371 5.9896 9.62063C5.9896 9.06212 6.12478 8.55103 6.39515 8.08735C6.66551 7.62368 7.02946 7.25485 7.487 6.98086C7.94454 6.70688 8.44887 6.56988 9 6.56988C9.55113 6.56988 10.0529 6.70688 10.5052 6.98086C10.9627 7.25485 11.3267 7.62368 11.5971 8.08735C11.8726 8.55103 12.0104 9.06212 12.0104 9.62063C12.0104 10.2371 11.8388 10.7956 11.4957 11.2962C11.1577 11.7967 10.7262 12.1603 10.201 12.3869H12.2444C12.5615 12.0128 12.8111 11.5912 12.9931 11.1223C13.175 10.6481 13.266 10.1475 13.266 9.62063C13.266 9.02524 13.1542 8.46672 12.9307 7.94509C12.7071 7.42346 12.3977 6.96506 12.0026 6.56988C11.6127 6.16944 11.1603 5.85593 10.6456 5.62937C10.1308 5.4028 9.58232 5.28952 9 5.28952C8.41768 5.28952 7.86915 5.4028 7.35442 5.62937C6.83969 5.85593 6.38475 6.16944 5.9896 6.56988C5.59965 6.96506 5.29289 7.42346 5.06932 7.94509C4.84575 8.46672 4.73397 9.02524 4.73397 9.62063C4.73397 10.1475 4.82236 10.6481 4.99913 11.1223C5.18111 11.5912 5.43068 12.0128 5.74783 12.3869ZM0.694107 10.0553H2.61265C2.81542 10.0553 2.9844 9.99473 3.11958 9.87354C3.25477 9.74709 3.31976 9.59429 3.31456 9.41514C3.30936 9.24126 3.24177 9.0911 3.11178 8.96464C2.9818 8.83819 2.81542 8.77496 2.61265 8.77496H0.694107C0.491334 8.77496 0.324957 8.83819 0.194974 8.96464C0.0649913 9.0911 0 9.24126 0 9.41514C0 9.59429 0.0649913 9.74709 0.194974 9.87354C0.324957 9.99473 0.491334 10.0553 0.694107 10.0553ZM4.97574 5.54243C5.09532 5.41597 5.15251 5.26054 5.14731 5.07612C5.14731 4.89171 5.07452 4.72837 4.92894 4.58611L3.57192 3.2109C3.42634 3.06337 3.26516 2.9896 3.08839 2.9896C2.91161 2.9896 2.76083 3.05019 2.63605 3.17138C2.51127 3.29257 2.44887 3.44537 2.44887 3.62978C2.45407 3.80893 2.52946 3.97227 2.67504 4.1198L4.03206 5.49501C4.17764 5.64254 4.34142 5.71894 4.5234 5.72421C4.70537 5.72948 4.85615 5.66889 4.97574 5.54243ZM9 3.85899C9.17158 3.85372 9.31976 3.78522 9.44454 3.65349C9.56932 3.52177 9.63172 3.35316 9.63172 3.14767V1.20341C9.63172 0.99792 9.56932 0.829312 9.44454 0.697587C9.31976 0.565862 9.17158 0.5 9 0.5C8.82322 0.5 8.67244 0.565862 8.54766 0.697587C8.42808 0.829312 8.36828 0.99792 8.36828 1.20341V3.14767C8.36828 3.35316 8.42808 3.5244 8.54766 3.6614C8.67244 3.79839 8.82322 3.86425 9 3.85899ZM13.0243 5.54243C13.1438 5.66362 13.2946 5.72421 13.4766 5.72421C13.6586 5.71894 13.8224 5.64254 13.9679 5.49501L15.325 4.1198C15.4705 3.97227 15.5433 3.80893 15.5433 3.62978C15.5433 3.45064 15.4809 3.29784 15.3562 3.17138C15.2418 3.04493 15.0936 2.98433 14.9116 2.9896C14.7296 2.9896 14.5659 3.06337 14.4203 3.2109L13.0633 4.58611C12.9229 4.72837 12.8501 4.89434 12.8449 5.08403C12.8397 5.26844 12.8995 5.42124 13.0243 5.54243ZM15.3873 10.0553H17.3059C17.5087 10.0553 17.675 9.99473 17.805 9.87354C17.935 9.74709 18 9.59429 18 9.41514C18 9.24126 17.935 9.0911 17.805 8.96464C17.675 8.83819 17.5087 8.77496 17.3059 8.77496H15.3873C15.1846 8.77496 15.0156 8.83819 14.8804 8.96464C14.7452 9.0911 14.6802 9.24126 14.6854 9.41514C14.6854 9.59429 14.7504 9.74709 14.8804 9.87354C15.0156 9.99473 15.1846 10.0553 15.3873 10.0553ZM1.06066 13.1219H16.9003C17.0407 13.1219 17.1577 13.0745 17.2513 12.9796C17.3449 12.8848 17.3917 12.7662 17.3917 12.624C17.3917 12.4817 17.3449 12.3631 17.2513 12.2683C17.1577 12.1735 17.0407 12.126 16.9003 12.126H1.06066C0.925477 12.126 0.808492 12.1735 0.709705 12.2683C0.616118 12.3631 0.569324 12.4817 0.569324 12.624C0.569324 12.7662 0.616118 12.8848 0.709705 12.9796C0.808492 13.0745 0.925477 13.1219 1.06066 13.1219ZM1.76256 15.6747C1.86655 15.6747 1.95754 15.6352 2.03553 15.5562C2.11352 15.4771 2.15251 15.3823 2.15251 15.2716C2.15251 15.161 2.11352 15.0661 2.03553 14.9871C1.95754 14.9081 1.86655 14.8686 1.76256 14.8686C1.64818 14.8686 1.55199 14.9081 1.474 14.9871C1.40121 15.0661 1.36482 15.161 1.36482 15.2716C1.36482 15.3823 1.40121 15.4771 1.474 15.5562C1.55199 15.6352 1.64818 15.6747 1.76256 15.6747ZM5.05373 15.6747C5.16291 15.6747 5.2565 15.6352 5.33449 15.5562C5.41248 15.4771 5.45147 15.3823 5.45147 15.2716C5.45147 15.161 5.41248 15.0661 5.33449 14.9871C5.2565 14.9081 5.16291 14.8686 5.05373 14.8686C4.94454 14.8686 4.85095 14.9081 4.77296 14.9871C4.69497 15.0661 4.65598 15.161 4.65598 15.2716C4.65598 15.3823 4.69497 15.4771 4.77296 15.5562C4.85095 15.6352 4.94454 15.6747 5.05373 15.6747ZM8.35269 15.6747C8.45667 15.6747 8.54766 15.6352 8.62565 15.5562C8.70364 15.4771 8.74263 15.3823 8.74263 15.2716C8.74263 15.161 8.70364 15.0661 8.62565 14.9871C8.54766 14.9081 8.45667 14.8686 8.35269 14.8686C8.2383 14.8686 8.14211 14.9081 8.06413 14.9871C7.99133 15.0661 7.95494 15.161 7.95494 15.2716C7.95494 15.3823 7.99133 15.4771 8.06413 15.5562C8.14211 15.6352 8.2383 15.6747 8.35269 15.6747ZM11.6438 15.6747C11.753 15.6747 11.8466 15.6352 11.9246 15.5562C12.0026 15.4771 12.0416 15.3823 12.0416 15.2716C12.0416 15.161 12.0026 15.0661 11.9246 14.9871C11.8466 14.9081 11.753 14.8686 11.6438 14.8686C11.5347 14.8686 11.4411 14.9081 11.3631 14.9871C11.2851 15.0661 11.2461 15.161 11.2461 15.2716C11.2461 15.3823 11.2851 15.4771 11.3631 15.5562C11.4411 15.6352 11.5347 15.6747 11.6438 15.6747ZM14.9428 15.6747C15.0468 15.6747 15.1378 15.6352 15.2158 15.5562C15.2938 15.4771 15.3328 15.3823 15.3328 15.2716C15.3328 15.161 15.2938 15.0661 15.2158 14.9871C15.1378 14.9081 15.0468 14.8686 14.9428 14.8686C14.8284 14.8686 14.7322 14.9081 14.6542 14.9871C14.5815 15.0661 14.5451 15.161 14.5451 15.2716C14.5451 15.3823 14.5815 15.4771 14.6542 15.5562C14.7322 15.6352 14.8284 15.6747 14.9428 15.6747ZM0.764298 17.5953C0.873484 17.5953 0.967071 17.5557 1.04506 17.4767C1.12305 17.3977 1.16205 17.3002 1.16205 17.1843C1.16205 17.0736 1.12305 16.9788 1.04506 16.8997C0.967071 16.826 0.873484 16.7891 0.764298 16.7891C0.655113 16.7891 0.561525 16.826 0.483536 16.8997C0.405546 16.9788 0.366551 17.0736 0.366551 17.1843C0.366551 17.3002 0.405546 17.3977 0.483536 17.4767C0.561525 17.5557 0.655113 17.5953 0.764298 17.5953ZM4.06326 17.5953C4.16724 17.5953 4.25823 17.5557 4.33622 17.4767C4.41421 17.3977 4.45321 17.3002 4.45321 17.1843C4.45321 17.0736 4.41421 16.9788 4.33622 16.8997C4.25823 16.826 4.16724 16.7891 4.06326 16.7891C3.94887 16.7891 3.85269 16.826 3.7747 16.8997C3.69671 16.9788 3.65771 17.0736 3.65771 17.1843C3.65771 17.3002 3.69671 17.3977 3.7747 17.4767C3.85269 17.5557 3.94887 17.5953 4.06326 17.5953ZM7.35442 17.5953C7.4636 17.5953 7.55719 17.5557 7.63518 17.4767C7.71317 17.3977 7.75217 17.3002 7.75217 17.1843C7.75217 17.0736 7.71317 16.9788 7.63518 16.8997C7.55719 16.826 7.4636 16.7891 7.35442 16.7891C7.24523 16.7891 7.15165 16.826 7.07366 16.8997C6.99567 16.9788 6.95667 17.0736 6.95667 17.1843C6.95667 17.3002 6.99567 17.3977 7.07366 17.4767C7.15165 17.5557 7.24523 17.5953 7.35442 17.5953ZM10.6534 17.5953C10.7574 17.5953 10.8484 17.5557 10.9263 17.4767C11.0043 17.3977 11.0433 17.3002 11.0433 17.1843C11.0433 17.0736 11.0043 16.9788 10.9263 16.8997C10.8484 16.826 10.7574 16.7891 10.6534 16.7891C10.539 16.7891 10.4428 16.826 10.3648 16.8997C10.2868 16.9788 10.2478 17.0736 10.2478 17.1843C10.2478 17.3002 10.2868 17.3977 10.3648 17.4767C10.4428 17.5557 10.539 17.5953 10.6534 17.5953ZM13.9445 17.5953C14.0537 17.5953 14.1473 17.5557 14.2253 17.4767C14.3033 17.3977 14.3423 17.3002 14.3423 17.1843C14.3423 17.0736 14.3033 16.9788 14.2253 16.8997C14.1473 16.826 14.0537 16.7891 13.9445 16.7891C13.8354 16.7891 13.7418 16.826 13.6638 16.8997C13.5858 16.9788 13.5468 17.0736 13.5468 17.1843C13.5468 17.3002 13.5858 17.3977 13.6638 17.4767C13.7418 17.5557 13.8354 17.5953 13.9445 17.5953ZM17.2435 17.5953C17.3475 17.5953 17.4385 17.5557 17.5165 17.4767C17.5945 17.3977 17.6334 17.3002 17.6334 17.1843C17.6334 17.0736 17.5945 16.9788 17.5165 16.8997C17.4385 16.826 17.3475 16.7891 17.2435 16.7891C17.1291 16.7891 17.0329 16.826 16.9549 16.8997C16.8769 16.9788 16.838 17.0736 16.838 17.1843C16.838 17.3002 16.8769 17.3977 16.9549 17.4767C17.0329 17.5557 17.1291 17.5953 17.2435 17.5953ZM3.06499 19.5C3.17418 19.5 3.26516 19.4605 3.33795 19.3814C3.41594 19.3024 3.45494 19.2049 3.45494 19.089C3.45494 18.9836 3.41594 18.8914 3.33795 18.8124C3.26516 18.7334 3.17418 18.6938 3.06499 18.6938C2.95581 18.6938 2.86222 18.7334 2.78423 18.8124C2.70624 18.8914 2.66724 18.9836 2.66724 19.089C2.66724 19.2049 2.70624 19.3024 2.78423 19.3814C2.86222 19.4605 2.95581 19.5 3.06499 19.5ZM6.36395 19.5C6.46794 19.5 6.55893 19.4605 6.63691 19.3814C6.7149 19.3024 6.7539 19.2049 6.7539 19.089C6.7539 18.9836 6.7149 18.8914 6.63691 18.8124C6.55893 18.7334 6.46794 18.6938 6.36395 18.6938C6.24957 18.6938 6.15338 18.7334 6.07539 18.8124C5.9974 18.8914 5.95841 18.9836 5.95841 19.089C5.95841 19.2049 5.9974 19.3024 6.07539 19.3814C6.15338 19.4605 6.24957 19.5 6.36395 19.5ZM9.65511 19.5C9.7643 19.5 9.85529 19.4605 9.92808 19.3814C10.0061 19.3024 10.0451 19.2049 10.0451 19.089C10.0451 18.9836 10.0061 18.8914 9.92808 18.8124C9.85529 18.7334 9.7643 18.6938 9.65511 18.6938C9.54593 18.6938 9.45234 18.7334 9.37435 18.8124C9.29636 18.8914 9.25737 18.9836 9.25737 19.089C9.25737 19.2049 9.29636 19.3024 9.37435 19.3814C9.45234 19.4605 9.54593 19.5 9.65511 19.5ZM12.9541 19.5C13.0581 19.5 13.149 19.4605 13.227 19.3814C13.305 19.3024 13.344 19.2049 13.344 19.089C13.344 18.9836 13.305 18.8914 13.227 18.8124C13.149 18.7334 13.0581 18.6938 12.9541 18.6938C12.8397 18.6938 12.7435 18.7334 12.6655 18.8124C12.5875 18.8914 12.5485 18.9836 12.5485 19.089C12.5485 19.2049 12.5875 19.3024 12.6655 19.3814C12.7435 19.4605 12.8397 19.5 12.9541 19.5ZM16.2452 19.5C16.3544 19.5 16.4454 19.4605 16.5182 19.3814C16.5962 19.3024 16.6352 19.2049 16.6352 19.089C16.6352 18.9836 16.5962 18.8914 16.5182 18.8124C16.4454 18.7334 16.3544 18.6938 16.2452 18.6938C16.136 18.6938 16.0425 18.7334 15.9645 18.8124C15.8865 18.8914 15.8475 18.9836 15.8475 19.089C15.8475 19.2049 15.8865 19.3024 15.9645 19.3814C16.0425 19.4605 16.136 19.5 16.2452 19.5Z"
		fill="currentColor"
	/>
</svg>
