<svg
	color="rgb(var(--foreground, 0, 0, 0))"
	viewBox="0 0 20 14"
	fill="none"
	xmlns="http://www.w3.org/2000/svg"
>
	<path
		d="M6.74989 12.4877H8.80218C8.27155 12.2592 7.83456 11.8926 7.49121 11.3878C7.15307 10.883 6.98399 10.3197 6.98399 9.69804C6.98399 9.13478 7.11925 8.61935 7.38977 8.15175C7.66549 7.68414 8.03224 7.31218 8.49004 7.03587C8.94784 6.75424 9.45246 6.61343 10.0039 6.61343C10.5501 6.61343 11.0521 6.75424 11.5099 7.03587C11.9677 7.31218 12.3319 7.68414 12.6024 8.15175C12.8781 8.61935 13.016 9.13478 13.016 9.69804C13.016 10.3197 12.8443 10.883 12.501 11.3878C12.1628 11.8926 11.7284 12.2592 11.1978 12.4877H13.2501C13.5674 12.1105 13.8145 11.6854 13.9914 11.2124C14.1735 10.7342 14.2645 10.2294 14.2645 9.69804C14.2645 9.09759 14.1527 8.53433 13.929 8.00828C13.7105 7.48222 13.4036 7.01993 13.0082 6.6214C12.6128 6.21756 12.1576 5.90139 11.6426 5.6729C11.1276 5.44441 10.5813 5.33017 10.0039 5.33017C9.42124 5.33017 8.87241 5.44441 8.35738 5.6729C7.84236 5.90139 7.38717 6.21756 6.9918 6.6214C6.59643 7.01993 6.28689 7.48222 6.0632 8.00828C5.8447 8.53433 5.73546 9.09759 5.73546 9.69804C5.73546 10.2294 5.82389 10.7342 6.00077 11.2124C6.18285 11.6854 6.43256 12.1105 6.74989 12.4877ZM1.69333 10.1364H3.61296C3.81584 10.1364 3.98232 10.0753 4.11237 9.9531C4.24763 9.82557 4.31526 9.67147 4.31526 9.4908C4.31006 9.31014 4.24243 9.1587 4.11237 9.03648C3.98232 8.90895 3.81584 8.84519 3.61296 8.84519H1.69333C1.49044 8.84519 1.32397 8.90895 1.19391 9.03648C1.06386 9.1587 0.99883 9.31014 0.99883 9.4908C0.99883 9.67147 1.06386 9.82557 1.19391 9.9531C1.32397 10.0753 1.49044 10.1364 1.69333 10.1364ZM5.97736 5.58522C6.09701 5.45769 6.15424 5.30094 6.14903 5.11496C6.14903 4.92898 6.0762 4.76426 5.93054 4.62078L4.57275 3.23391C4.42709 3.08512 4.26584 3.01073 4.08896 3.01073C3.91209 3.01073 3.76122 3.07184 3.63637 3.19405C3.51151 3.31627 3.44909 3.47037 3.44909 3.65635C3.45429 3.83701 3.52972 4.00174 3.67538 4.15052L5.03315 5.5374C5.17361 5.68618 5.33488 5.76323 5.51696 5.76855C5.70424 5.77386 5.85771 5.71275 5.97736 5.58522ZM14.0226 5.58522C14.1475 5.70744 14.3009 5.76855 14.483 5.76855C14.6651 5.76323 14.8264 5.68618 14.9668 5.5374L16.3246 4.15052C16.4703 4.00174 16.5431 3.83701 16.5431 3.65635C16.5483 3.47568 16.4885 3.32158 16.3636 3.19405C16.244 3.06652 16.0931 3.00542 15.911 3.01073C15.7342 3.01073 15.5729 3.08512 15.4272 3.23391L14.0694 4.62078C13.9238 4.76426 13.8484 4.93164 13.8431 5.12293C13.8379 5.30891 13.8978 5.46301 14.0226 5.58522ZM16.387 10.1364H18.3067C18.5096 10.1364 18.676 10.0753 18.8061 9.9531C18.9361 9.82557 19.0012 9.67147 19.0012 9.4908C19.0012 9.31014 18.9361 9.1587 18.8061 9.03648C18.676 8.90895 18.5096 8.84519 18.3067 8.84519H16.387C16.1894 8.84519 16.0229 8.90895 15.8876 9.03648C15.7524 9.1587 15.6847 9.31014 15.6847 9.4908C15.6899 9.67147 15.7576 9.82557 15.8876 9.9531C16.0229 10.0753 16.1894 10.1364 16.387 10.1364ZM10.0039 3.88749C10.1756 3.88218 10.3238 3.8131 10.4487 3.68026C10.5735 3.5421 10.636 3.37206 10.636 3.17014V1.20938C10.636 1.00215 10.5735 0.832107 10.4487 0.699264C10.3238 0.566421 10.1756 0.5 10.0039 0.5C9.82702 0.5 9.67615 0.566421 9.5513 0.699264C9.42645 0.832107 9.36402 1.00215 9.36402 1.20938V3.17014C9.36402 3.37206 9.42645 3.5421 9.5513 3.68026C9.67615 3.81841 9.82702 3.88749 10.0039 3.88749ZM0.678892 13.5H19.3211C19.5032 13.5 19.6619 13.4389 19.7971 13.3167C19.9324 13.1891 20 13.0377 20 12.8624C20 12.687 19.9324 12.5382 19.7971 12.416C19.6619 12.2885 19.5032 12.2247 19.3211 12.2247H0.678892C0.496814 12.2247 0.338146 12.2885 0.202887 12.416C0.0676291 12.5382 0 12.687 0 12.8624C0 13.0377 0.0676291 13.1891 0.202887 13.3167C0.338146 13.4389 0.496814 13.5 0.678892 13.5Z"
		fill="currentColor"
	/>
</svg>
