<svg
	color="rgb(var(--foreground, 0, 0, 0))"
	viewBox="0 0 18 20"
	fill="none"
	xmlns="http://www.w3.org/2000/svg"
>
	<path
		d="M5.74783 12.5778H7.79895C7.26862 12.3476 6.83448 11.9782 6.49653 11.4696C6.15857 10.961 5.9896 10.3935 5.9896 9.76712C5.9896 9.19963 6.12478 8.68033 6.39514 8.20921C6.66551 7.7381 7.02946 7.36334 7.487 7.08495C7.94453 6.80657 8.44887 6.66737 8.99999 6.66737C9.55112 6.66737 10.0529 6.80657 10.5052 7.08495C10.9627 7.36334 11.3267 7.7381 11.597 8.20921C11.8726 8.68033 12.0104 9.19963 12.0104 9.76712C12.0104 10.3935 11.8388 10.961 11.4957 11.4696C11.1577 11.9782 10.7262 12.3476 10.201 12.5778H12.2444C12.5615 12.1977 12.8111 11.7694 12.9931 11.2929C13.175 10.8111 13.266 10.3025 13.266 9.76712C13.266 9.16216 13.1542 8.59467 12.9307 8.06467C12.7071 7.53466 12.3977 7.06889 12.0026 6.66737C11.6126 6.2605 11.1603 5.94196 10.6456 5.71175C10.1308 5.48154 9.58231 5.36644 8.99999 5.36644C8.41767 5.36644 7.86914 5.48154 7.35441 5.71175C6.83968 5.94196 6.38474 6.2605 5.9896 6.66737C5.59965 7.06889 5.29289 7.53466 5.06932 8.06467C4.84575 8.59467 4.73396 9.16216 4.73396 9.76712C4.73396 10.3025 4.82235 10.8111 4.99913 11.2929C5.1811 11.7694 5.43067 12.1977 5.74783 12.5778ZM0.694107 10.2088H2.61265C2.81542 10.2088 2.9844 10.1472 3.11958 10.0241C3.25476 9.8956 3.31975 9.74035 3.31456 9.55833C3.30936 9.38166 3.24177 9.22908 3.11178 9.10059C2.9818 8.9721 2.81542 8.90786 2.61265 8.90786H0.694107C0.491334 8.90786 0.324956 8.9721 0.194974 9.10059C0.0649913 9.22908 0 9.38166 0 9.55833C0 9.74035 0.0649913 9.8956 0.194974 10.0241C0.324956 10.1472 0.491334 10.2088 0.694107 10.2088ZM4.97573 5.62342C5.09532 5.49493 5.15251 5.337 5.14731 5.14962C5.14731 4.96224 5.07452 4.79628 4.92894 4.65173L3.57192 3.25444C3.42634 3.10454 3.26516 3.02959 3.08839 3.02959C2.91161 3.02959 2.76083 3.09115 2.63605 3.21429C2.51126 3.33742 2.44887 3.49267 2.44887 3.68005C2.45407 3.86207 2.52946 4.02804 2.67504 4.17794L4.03206 5.57523C4.17764 5.72513 4.34142 5.80276 4.52339 5.80812C4.70537 5.81347 4.85615 5.7519 4.97573 5.62342ZM8.99999 3.91293C9.17157 3.90758 9.31975 3.83798 9.44453 3.70414C9.56932 3.5703 9.63171 3.39899 9.63171 3.19019V1.21471C9.63171 1.00592 9.56932 0.834601 9.44453 0.700761C9.31975 0.56692 9.17157 0.5 8.99999 0.5C8.82322 0.5 8.67244 0.56692 8.54765 0.700761C8.42807 0.834601 8.36828 1.00592 8.36828 1.21471V3.19019C8.36828 3.39899 8.42807 3.57298 8.54765 3.71217C8.67244 3.85137 8.82322 3.91829 8.99999 3.91293ZM13.0243 5.62342C13.1438 5.74655 13.2946 5.80812 13.4766 5.80812C13.6586 5.80276 13.8223 5.72513 13.9679 5.57523L15.325 4.17794C15.4705 4.02804 15.5433 3.86207 15.5433 3.68005C15.5433 3.49803 15.4809 3.34277 15.3562 3.21429C15.2418 3.0858 15.0936 3.02423 14.9116 3.02959C14.7296 3.02959 14.5658 3.10454 14.4203 3.25444L13.0632 4.65173C12.9229 4.79628 12.8501 4.96492 12.8449 5.15765C12.8397 5.34503 12.8995 5.50028 13.0243 5.62342ZM15.3874 10.2088H17.3059C17.5087 10.2088 17.675 10.1472 17.805 10.0241C17.935 9.8956 18 9.74035 18 9.55833C18 9.38166 17.935 9.22908 17.805 9.10059C17.675 8.9721 17.5087 8.90786 17.3059 8.90786H15.3874C15.1846 8.90786 15.0156 8.9721 14.8804 9.10059C14.7452 9.22908 14.6802 9.38166 14.6854 9.55833C14.6854 9.74035 14.7504 9.8956 14.8804 10.0241C15.0156 10.1472 15.1846 10.2088 15.3874 10.2088ZM1.66898 13.3246H17.5087C17.6438 13.3246 17.7582 13.2764 17.8518 13.1801C17.9506 13.0837 18 12.9632 18 12.8187C18 12.6741 17.9506 12.5537 17.8518 12.4573C17.7582 12.3609 17.6438 12.3128 17.5087 12.3128H1.66898C1.52859 12.3128 1.41161 12.3609 1.31802 12.4573C1.22444 12.5537 1.17764 12.6741 1.17764 12.8187C1.17764 12.9632 1.22444 13.0837 1.31802 13.1801C1.41161 13.2764 1.52859 13.3246 1.66898 13.3246ZM0.491334 16.4163H16.331C16.4714 16.4163 16.5884 16.3655 16.682 16.2637C16.7756 16.1674 16.8224 16.0469 16.8224 15.9024C16.8224 15.7578 16.7756 15.6374 16.682 15.541C16.5884 15.4446 16.4714 15.3964 16.331 15.3964H0.491334C0.356152 15.3964 0.239168 15.4446 0.140381 15.541C0.0467937 15.6374 0 15.7578 0 15.9024C0 16.0469 0.0467937 16.1674 0.140381 16.2637C0.239168 16.3655 0.356152 16.4163 0.491334 16.4163ZM1.66898 19.5H17.5087C17.6438 19.5 17.7582 19.4518 17.8518 19.3555C17.9506 19.2591 18 19.1386 18 18.9941C18 18.8442 17.9506 18.721 17.8518 18.6247C17.7582 18.5283 17.6438 18.4801 17.5087 18.4801H1.66898C1.52859 18.4801 1.41161 18.5283 1.31802 18.6247C1.22444 18.721 1.17764 18.8442 1.17764 18.9941C1.17764 19.1386 1.22444 19.2591 1.31802 19.3555C1.41161 19.4518 1.52859 19.5 1.66898 19.5Z"
		fill="currentColor"
	/>
</svg>
