<svg
	color="rgb(var(--foreground, 0, 0, 0))"
	viewBox="0 0 11 18"
	fill="none"
	xmlns="http://www.w3.org/2000/svg"
>
	<path
		d="M3.70049 17.6661L10.797 8.24922C10.9323 8.072 11 7.90015 11 7.73367C11 7.57793 10.948 7.44904 10.8439 7.347C10.7398 7.24497 10.6044 7.19395 10.4379 7.19395H6.02698L8.35345 0.926766C8.43152 0.722694 8.44453 0.545473 8.39248 0.395103C8.34564 0.239364 8.25977 0.129272 8.13486 0.0648276C8.00994 -0.00498675 7.86942 -0.0184126 7.71328 0.0245501C7.56235 0.0621424 7.42442 0.166864 7.29951 0.338715L0.20298 9.74754C0.0676601 9.92476 0 10.0966 0 10.2631C0 10.4188 0.0520462 10.5504 0.156139 10.6578C0.260231 10.7599 0.395551 10.8109 0.562099 10.8109H4.97305L2.64655 17.07C2.56848 17.2794 2.55287 17.4593 2.59971 17.6097C2.65176 17.7601 2.74023 17.8675 2.86514 17.9319C2.99006 18.0017 3.12798 18.0179 3.27891 17.9803C3.43505 17.9427 3.57558 17.838 3.70049 17.6661ZM4.1611 15.4992L6.77645 9.6106H1.95173L7.04969 2.62648L6.8311 2.50564L4.22355 8.39422H9.04046L3.9425 15.3783L4.1611 15.4992Z"
		fill="currentColor"
	/>
</svg>
