<svg
	color="rgb(var(--foreground, 0, 0, 0))"
	viewBox="0 0 13 18"
	fill="none"
	xmlns="http://www.w3.org/2000/svg"
>
	<path
		d="M4.71094 17.6695L8.28125 13.0527L2.8125 7.41274L1.21094 9.48343C1.07031 9.66605 1 9.83794 1 9.99908C1 10.1549 1.05208 10.2865 1.15625 10.3939C1.26562 10.4959 1.40104 10.547 1.5625 10.547L5.85156 10.6114L3.64844 17.0732C3.55469 17.3526 3.5625 17.5755 3.67188 17.742C3.78646 17.9139 3.94271 17.9998 4.14062 17.9998C4.34375 18.0052 4.53385 17.8951 4.71094 17.6695ZM10.1875 10.5953L11.8047 8.51657C11.9401 8.33931 12.0078 8.16743 12.0078 8.00091C12.0078 7.84514 11.9557 7.71623 11.8516 7.61417C11.7474 7.51211 11.6146 7.4584 11.4531 7.45303L7.15625 7.38857L9.36719 0.926753C9.46094 0.647439 9.45052 0.424525 9.33594 0.258011C9.22656 0.0861258 9.07031 0.000183117 8.86719 0.000183117C8.66927 -0.0051883 8.48177 0.107612 8.30469 0.338583L4.71875 4.96338L10.1875 10.5953ZM11.9688 15.5182C12.0885 15.6418 12.2318 15.7035 12.3984 15.7035C12.5651 15.7035 12.7057 15.6418 12.8203 15.5182C12.9401 15.4054 13 15.2604 13 15.0831C13 14.9112 12.9401 14.7635 12.8203 14.64L1.03125 2.48178C0.916667 2.36361 0.773438 2.30452 0.601562 2.30452C0.429688 2.29915 0.286458 2.35824 0.171875 2.48178C0.0572917 2.59995 0 2.74766 0 2.92492C0 3.09681 0.0572917 3.24184 0.171875 3.36001L11.9688 15.5182Z"
		fill="currentColor"
	/>
</svg>
