<svg
	color="rgb(var(--foreground, 0, 0, 0))"
	viewBox="0 0 13 18"
	fill="none"
	xmlns="http://www.w3.org/2000/svg"
>
	<path
		d="M1 10.2631C1 10.4188 1.05208 10.5504 1.15625 10.6578C1.26042 10.7598 1.39583 10.8109 1.5625 10.8109H5.97656L3.64844 17.07C3.57031 17.2794 3.55469 17.4593 3.60156 17.6097C3.65365 17.7601 3.74219 17.8675 3.86719 17.9319C3.99219 18.0017 4.13021 18.0179 4.28125 17.9803C4.4375 17.9427 4.57812 17.838 4.70312 17.6661L8.22653 12.9939L7.35156 12.0917L4.94531 15.3783L5.16406 15.4992L6.86719 11.5842L4.9375 9.6106H2.95312L3.8125 8.44255L2.89844 7.50006L1.20312 9.74754C1.06771 9.92476 1 10.0966 1 10.2631ZM4.77344 5.01091L5.64844 5.91312L8.05466 2.62648L7.83594 2.50564L6.13281 6.42062L8.04684 8.39422H10.0468L9.18747 9.56227L10.1015 10.5048L11.8047 8.24922C11.9401 8.072 12.0078 7.90015 12.0078 7.73367C12.0078 7.57793 11.9557 7.44904 11.8515 7.347C11.7474 7.24497 11.6119 7.19395 11.4453 7.19395H7.03125L9.35934 0.926766C9.43747 0.722694 9.45049 0.545473 9.39841 0.395103C9.35153 0.239363 9.26559 0.129272 9.14059 0.0648276C9.01559 -0.00498674 8.87497 -0.0184126 8.71872 0.0245501C8.56768 0.0621425 8.42966 0.166864 8.30466 0.338715L4.77344 5.01091ZM11.9687 15.5153C12.0885 15.6388 12.2317 15.7006 12.3984 15.7006C12.5651 15.7006 12.7057 15.6388 12.8203 15.5153C12.9401 15.4025 13 15.2575 13 15.0803C13 14.9084 12.9401 14.7607 12.8203 14.6372L1.03125 2.48148C0.916667 2.36333 0.773438 2.30426 0.601562 2.30426C0.429688 2.29889 0.286458 2.35796 0.171875 2.48148C0.0572917 2.59963 0 2.74731 0 2.92453C0 3.09638 0.0572917 3.24138 0.171875 3.35953L11.9687 15.5153Z"
		fill="currentColor"
	/>
</svg>
