<svg
	color="rgb(var(--foreground, 0, 0, 0))"
	viewBox="0 0 16 16"
	fill="none"
	xmlns="http://www.w3.org/2000/svg"
>
	<path
		d="M12.493 10.7405C11.0351 10.7405 9.77336 10.4637 8.70775 9.91003C7.64745 9.3564 6.82836 8.56813 6.2505 7.54523C5.67793 6.52233 5.39165 5.30697 5.39165 3.89916C5.39165 3.29807 5.43671 2.74708 5.52684 2.24617C5.61696 1.74526 5.73625 1.35245 5.88469 1.06772C5.94301 0.951722 5.98012 0.85945 5.99602 0.790905C6.01723 0.72236 6.02783 0.648542 6.02783 0.569451C6.02783 0.437634 5.97217 0.311089 5.86083 0.189817C5.7548 0.0632724 5.61696 0 5.44732 0C5.41551 0 5.36249 0.00790905 5.28827 0.0237271C5.21405 0.0342725 5.12127 0.0632724 5.00994 0.110727C4.02916 0.506179 3.16236 1.08881 2.40954 1.85863C1.65673 2.62844 1.06561 3.51953 0.636183 4.53188C0.212061 5.53897 0 6.59614 0 7.70341C0 8.90559 0.204109 10.0129 0.612326 11.0252C1.02584 12.0323 1.60636 12.9076 2.35388 13.651C3.10139 14.3945 3.98144 14.9718 4.99404 15.3831C6.01193 15.7944 7.12525 16 8.334 16C9.48443 16 10.5527 15.8075 11.5388 15.4226C12.5248 15.043 13.389 14.4973 14.1312 13.7855C14.8734 13.0737 15.4592 12.2247 15.8887 11.2388C15.9364 11.1333 15.9655 11.041 15.9761 10.9619C15.992 10.8776 16 10.8143 16 10.7721C16 10.6087 15.9417 10.4768 15.825 10.3767C15.7137 10.2765 15.5971 10.2264 15.4751 10.2264C15.4115 10.2264 15.3506 10.2317 15.2922 10.2422C15.2339 10.2528 15.1571 10.2739 15.0616 10.3055C14.8443 10.3951 14.5951 10.4716 14.3141 10.5348C14.0384 10.5981 13.7442 10.6482 13.4314 10.6851C13.1239 10.722 12.8111 10.7405 12.493 10.7405ZM1.24851 7.64805C1.24851 6.83078 1.3837 6.03724 1.65408 5.26742C1.92975 4.49761 2.31677 3.79371 2.81511 3.15571C3.31875 2.51771 3.91252 1.98517 4.59642 1.55808C4.46918 1.9219 4.37111 2.30944 4.30219 2.72071C4.23857 3.12671 4.20676 3.55643 4.20676 4.00989C4.20676 5.65497 4.5275 7.06805 5.16899 8.24913C5.81577 9.42495 6.74354 10.3266 7.95229 10.954C9.16634 11.5815 10.619 11.8952 12.3101 11.8952C12.7184 11.8952 13.1001 11.8715 13.4553 11.824C13.8105 11.7713 14.1524 11.6869 14.4811 11.5709C14.0782 12.23 13.5613 12.7995 12.9304 13.2793C12.3048 13.7591 11.6024 14.1256 10.8231 14.3786C10.049 14.637 9.23525 14.7662 8.38171 14.7662C7.35321 14.7662 6.40424 14.5896 5.53479 14.2363C4.66534 13.8883 3.90987 13.3953 3.26839 12.7573C2.62691 12.1193 2.12856 11.3679 1.77336 10.5032C1.42346 9.63322 1.24851 8.6815 1.24851 7.64805Z"
		fill="currentColor"
	/>
</svg>
