<svg
	color="rgb(var(--foreground, 0, 0, 0))"
	viewBox="0 0 16 18"
	fill="none"
	xmlns="http://www.w3.org/2000/svg"
>
	<path
		d="M6.9885 17.5C7.96401 17.5 8.86756 17.339 9.69914 17.0171C10.5307 16.6952 11.2584 16.2286 11.8821 15.6175C12.5111 15.0118 13.0042 14.2806 13.3613 13.4239C13.4359 13.2493 13.4653 13.0965 13.4493 12.9656C13.4333 12.8292 13.3853 12.7228 13.3053 12.6464C13.236 12.5754 13.1428 12.5345 13.0255 12.5236C12.9082 12.5072 12.7803 12.5263 12.6417 12.5809C12.3378 12.7064 11.9993 12.8046 11.6262 12.8755C11.2584 12.941 10.8452 12.9738 10.3868 12.9738C9.19273 12.9738 8.15591 12.7337 7.27635 12.2535C6.39679 11.7679 5.71448 11.0858 5.22939 10.2073C4.74963 9.32876 4.50975 8.29201 4.50975 7.09701C4.50975 6.60047 4.54973 6.12574 4.62969 5.67285C4.71498 5.21449 4.81893 4.85709 4.94153 4.60063C5.10145 4.27323 5.10145 4.01677 4.94153 3.83125C4.8669 3.73849 4.76296 3.68119 4.62969 3.65936C4.49642 3.63754 4.3365 3.66482 4.14993 3.74121C3.32901 4.08498 2.6067 4.58971 1.98301 5.25542C1.36465 5.91566 0.879561 6.6905 0.527737 7.57992C0.175912 8.46935 0 9.42425 0 10.4446C0 11.4432 0.167916 12.3708 0.503749 13.2275C0.844912 14.0787 1.32734 14.8263 1.95103 15.4701C2.57472 16.1086 3.31301 16.6051 4.16592 16.9598C5.01883 17.3199 5.95968 17.5 6.9885 17.5ZM7.00449 16.2477C6.15158 16.2477 5.37065 16.0977 4.66167 15.7975C3.95802 15.5029 3.34766 15.0909 2.83059 14.5616C2.31884 14.0269 1.92171 13.4021 1.63918 12.6873C1.36199 11.967 1.22339 11.1867 1.22339 10.3464C1.22339 9.65888 1.32201 9.00682 1.51924 8.39023C1.71648 7.76818 1.99634 7.19523 2.35882 6.6714C2.72131 6.14757 3.15043 5.69194 3.64618 5.30453C3.5449 5.5719 3.4676 5.89657 3.4143 6.27853C3.36099 6.66049 3.33434 7.04791 3.33434 7.44078C3.33434 8.78856 3.61686 9.96718 4.18191 10.9766C4.74696 11.9861 5.53589 12.7719 6.54872 13.3339C7.56154 13.8959 8.73962 14.1769 10.083 14.1769C10.4401 14.1769 10.7706 14.1551 11.0745 14.1115C11.3836 14.0678 11.6235 14.0187 11.7941 13.9641C11.4636 14.4334 11.0505 14.8399 10.5547 15.1837C10.0643 15.5274 9.51524 15.7894 8.90754 15.9694C8.30517 16.155 7.67082 16.2477 7.00449 16.2477ZM12.9215 10.019C13.0815 10.019 13.1721 9.92898 13.1934 9.74892C13.2574 9.20326 13.3267 8.77492 13.4013 8.46389C13.4759 8.15287 13.5905 7.92096 13.7451 7.76818C13.905 7.60993 14.1396 7.48989 14.4488 7.40804C14.758 7.32619 15.1844 7.23889 15.7281 7.14612C15.9094 7.11884 16 7.02881 16 6.87602C16 6.72324 15.92 6.63048 15.7601 6.59774C15.2164 6.48861 14.7846 6.39312 14.4648 6.31127C14.1503 6.22942 13.913 6.1121 13.7531 5.95932C13.5932 5.80653 13.4759 5.57736 13.4013 5.27179C13.3267 4.96622 13.2574 4.5406 13.1934 3.99494C13.1721 3.81488 13.0815 3.72484 12.9215 3.72484C12.7616 3.72484 12.671 3.81215 12.6497 3.98676C12.5804 4.53788 12.5084 4.97167 12.4338 5.28816C12.3645 5.60464 12.2499 5.84473 12.09 6.00843C11.9354 6.16667 11.7008 6.28398 11.3863 6.36038C11.0718 6.43677 10.6373 6.51589 10.083 6.59774C10.0137 6.60319 9.95502 6.63321 9.90704 6.68777C9.8644 6.73688 9.84307 6.79963 9.84307 6.87602C9.84307 7.02881 9.92303 7.11884 10.083 7.14612C10.6373 7.25526 11.0718 7.35347 11.3863 7.44078C11.7008 7.52809 11.9354 7.64813 12.09 7.80091C12.2499 7.9537 12.3645 8.18288 12.4338 8.48844C12.5084 8.79401 12.5804 9.21963 12.6497 9.76529C12.6603 9.83622 12.6897 9.89625 12.7376 9.94535C12.7856 9.99446 12.8469 10.019 12.9215 10.019ZM9.09944 4.47785C9.19006 4.47785 9.24337 4.42874 9.25936 4.33052C9.32333 3.98676 9.3793 3.71939 9.42728 3.52841C9.48059 3.33197 9.55255 3.18464 9.64317 3.08642C9.73912 2.98275 9.88305 2.90363 10.075 2.84906C10.2722 2.7945 10.5441 2.73174 10.8905 2.66081C10.9918 2.63898 11.0425 2.58169 11.0425 2.48893C11.0425 2.39616 10.9918 2.33887 10.8905 2.31704C10.5441 2.24611 10.2749 2.18063 10.083 2.12061C9.89638 2.06058 9.75512 1.98146 9.65916 1.88325C9.56854 1.78503 9.49658 1.64043 9.44327 1.44945C9.3953 1.25301 9.33399 0.985636 9.25936 0.647328C9.24337 0.549109 9.19006 0.5 9.09944 0.5C9.00882 0.5 8.95285 0.549109 8.93153 0.647328C8.86223 0.985636 8.80093 1.25301 8.74762 1.44945C8.69964 1.64043 8.62768 1.78503 8.53173 1.88325C8.4411 1.98146 8.29984 2.06058 8.10794 2.12061C7.92136 2.18063 7.65483 2.24611 7.30834 2.31704C7.20705 2.33887 7.15641 2.39616 7.15641 2.48893C7.15641 2.58169 7.20705 2.63898 7.30834 2.66081C7.65483 2.73174 7.92403 2.79722 8.11593 2.85725C8.30784 2.91181 8.45177 2.99093 8.54772 3.09461C8.64367 3.19283 8.71564 3.33743 8.76361 3.52841C8.81159 3.71939 8.86756 3.98676 8.93153 4.33052C8.95285 4.42874 9.00882 4.47785 9.09944 4.47785Z"
		fill="currentColor"
	/>
</svg>
