<svg
	color="rgb(var(--foreground, 0, 0, 0))"
	viewBox="0 0 16 18"
	fill="none"
	xmlns="http://www.w3.org/2000/svg"
>
	<path
		d="M6.90855 17.5C7.8734 17.5 8.76628 17.3418 9.58721 17.0253C10.4081 16.7088 11.1278 16.2504 11.7461 15.6502C12.3645 15.05 12.8522 14.3243 13.2094 13.473C13.3373 13.1729 13.324 12.9437 13.1694 12.7855C13.0415 12.6491 12.8496 12.6327 12.5937 12.7364C12.2632 12.8728 11.9087 12.9738 11.5302 13.0392C11.1518 13.1047 10.744 13.1375 10.3068 13.1375C9.10212 13.1375 8.05197 12.8946 7.15642 12.409C6.2662 11.9179 5.57588 11.2277 5.08546 10.3382C4.59504 9.44335 4.34983 8.39023 4.34983 7.17886C4.34983 6.71505 4.38981 6.24852 4.46977 5.77925C4.54973 5.30998 4.65634 4.93348 4.78961 4.64974C4.93353 4.35508 4.9362 4.1259 4.7976 3.96221C4.659 3.78759 4.42712 3.76577 4.10195 3.89673C3.28103 4.22958 2.56405 4.72613 1.95102 5.38637C1.338 6.04662 0.858238 6.81873 0.511744 7.7027C0.170581 8.58666 0 9.52793 0 10.5265C0 11.5196 0.167916 12.4417 0.503748 13.293C0.844911 14.1387 1.32467 14.8781 1.94303 15.5111C2.56139 16.1386 3.29169 16.6269 4.13393 16.9762C4.97618 17.3254 5.90105 17.5 6.90855 17.5ZM12.9215 10.019C13.0815 10.019 13.1721 9.92898 13.1934 9.74892C13.2574 9.20326 13.3267 8.77492 13.4013 8.46389C13.4759 8.15286 13.5905 7.92096 13.7451 7.76818C13.905 7.60993 14.1396 7.48989 14.4488 7.40804C14.758 7.32619 15.1844 7.23889 15.7281 7.14612C15.9094 7.11884 16 7.02881 16 6.87602C16 6.72324 15.92 6.63048 15.7601 6.59774C15.2164 6.48861 14.7846 6.39312 14.4648 6.31127C14.1503 6.22942 13.913 6.1121 13.7531 5.95932C13.5932 5.80653 13.4759 5.57736 13.4013 5.27179C13.3267 4.96622 13.2574 4.5406 13.1934 3.99494C13.1721 3.81488 13.0815 3.72484 12.9215 3.72484C12.7616 3.72484 12.671 3.81215 12.6497 3.98676C12.5804 4.53788 12.5084 4.97167 12.4338 5.28816C12.3645 5.60464 12.2499 5.84473 12.09 6.00843C11.9354 6.16667 11.7008 6.28398 11.3863 6.36038C11.0718 6.43677 10.6373 6.51589 10.083 6.59774C10.0137 6.60319 9.95502 6.63321 9.90705 6.68777C9.8644 6.73688 9.84308 6.79963 9.84308 6.87602C9.84308 7.02881 9.92304 7.11884 10.083 7.14612C10.6373 7.25526 11.0718 7.35347 11.3863 7.44078C11.7008 7.52809 11.9354 7.64813 12.09 7.80091C12.2499 7.9537 12.3645 8.18288 12.4338 8.48844C12.5084 8.79401 12.5804 9.21963 12.6497 9.76529C12.6603 9.83622 12.6897 9.89625 12.7376 9.94535C12.7856 9.99446 12.8469 10.019 12.9215 10.019ZM9.09945 4.47785C9.19007 4.47785 9.24338 4.42874 9.25937 4.33052C9.32334 3.98676 9.37931 3.71939 9.42729 3.52841C9.48059 3.33197 9.55256 3.18464 9.64318 3.08642C9.73913 2.98275 9.88306 2.90363 10.075 2.84906C10.2722 2.7945 10.5441 2.73174 10.8906 2.66081C10.9918 2.63898 11.0425 2.58169 11.0425 2.48893C11.0425 2.39616 10.9918 2.33887 10.8906 2.31704C10.5441 2.24611 10.2749 2.18063 10.083 2.12061C9.89639 2.06058 9.75512 1.98146 9.65917 1.88325C9.56855 1.78503 9.49658 1.64043 9.44328 1.44945C9.3953 1.25301 9.334 0.985636 9.25937 0.647328C9.24338 0.549109 9.19007 0.5 9.09945 0.5C9.00883 0.5 8.95286 0.549109 8.93153 0.647328C8.86224 0.985636 8.80093 1.25301 8.74763 1.44945C8.69965 1.64043 8.62769 1.78503 8.53173 1.88325C8.44111 1.98146 8.29985 2.06058 8.10795 2.12061C7.92137 2.18063 7.65484 2.24611 7.30835 2.31704C7.20706 2.33887 7.15642 2.39616 7.15642 2.48893C7.15642 2.58169 7.20706 2.63898 7.30835 2.66081C7.65484 2.73174 7.92404 2.79722 8.11594 2.85725C8.30785 2.91181 8.45177 2.99093 8.54773 3.09461C8.64368 3.19283 8.71564 3.33743 8.76362 3.52841C8.81159 3.71939 8.86757 3.98676 8.93153 4.33052C8.95286 4.42874 9.00883 4.47785 9.09945 4.47785Z"
		fill="currentColor"
	/>
</svg>
