<svg
	color="rgb(var(--foreground, 0, 0, 0))"
	viewBox="0 0 16 16"
	fill="none"
	xmlns="http://www.w3.org/2000/svg"
>
	<path
		d="M12.5454 10.8065C11.4479 10.8065 10.4558 10.6425 9.56918 10.3145C8.68795 9.98656 7.93107 9.51344 7.29853 8.89516C6.6714 8.27688 6.19024 7.53226 5.85504 6.66129C5.51985 5.78495 5.35226 4.79839 5.35226 3.70161C5.35226 3.40054 5.37388 3.07258 5.41713 2.71774C5.46579 2.35753 5.52796 2.01075 5.60365 1.67742C5.67934 1.34409 5.76584 1.06452 5.86315 0.83871C5.901 0.747312 5.92533 0.672043 5.93614 0.612903C5.94695 0.548387 5.95236 0.497312 5.95236 0.459677C5.95236 0.352151 5.91181 0.25 5.83071 0.153226C5.74962 0.0510753 5.63068 0 5.4739 0C5.43065 0 5.36577 0.00806452 5.27927 0.0241935C5.19277 0.0349462 5.10357 0.0564516 5.01166 0.0887097C4.01149 0.486559 3.13566 1.08333 2.38419 1.87903C1.63271 2.66935 1.04612 3.58333 0.62443 4.62097C0.208143 5.6586 0 6.74194 0 7.87097C0 9.05914 0.210846 10.1478 0.632539 11.1371C1.05964 12.1263 1.65163 12.9866 2.40851 13.7177C3.17081 14.4435 4.06015 15.0054 5.07653 15.4032C6.09833 15.8011 7.20122 16 8.3852 16C9.26102 16 10.0963 15.8763 10.891 15.629C11.6858 15.3871 12.4156 15.0484 13.0806 14.6129C13.7456 14.1828 14.3213 13.6828 14.8079 13.1129C15.2945 12.5376 15.6621 11.922 15.9108 11.2661C15.9486 11.1694 15.973 11.0806 15.9838 11C15.9946 10.914 16 10.8522 16 10.8145C16 10.664 15.9486 10.543 15.8459 10.4516C15.7432 10.3602 15.6351 10.3145 15.5215 10.3145C15.4296 10.3145 15.3134 10.3387 15.1728 10.3871C14.8593 10.4892 14.4673 10.586 13.997 10.6774C13.5266 10.7634 13.0427 10.8065 12.5454 10.8065Z"
		fill="currentColor"
	/>
</svg>
