<svg
	color="rgb(var(--foreground, 0, 0, 0))"
	viewBox="0 0 17 18"
	fill="none"
	xmlns="http://www.w3.org/2000/svg"
>
	<path
		d="M8.49607 12.9975C9.04049 12.9975 9.5535 12.8931 10.0351 12.6842C10.5219 12.4754 10.9486 12.1883 11.315 11.8229C11.6814 11.4522 11.9694 11.0268 12.1788 10.5465C12.3881 10.0663 12.4928 9.55205 12.4928 9.00392C12.4928 8.45578 12.3881 7.94158 12.1788 7.46131C11.9694 6.97582 11.6814 6.55036 11.315 6.18494C10.9486 5.81429 10.5219 5.52457 10.0351 5.31575C9.5535 5.10694 9.04049 5.00253 8.49607 5.00253C7.94642 5.00253 7.43079 5.10694 6.94919 5.31575C6.46759 5.52457 6.04095 5.81429 5.66928 6.18494C5.30285 6.55036 5.01493 6.97582 4.80554 7.46131C4.59615 7.94158 4.49146 8.45578 4.49146 9.00392C4.49146 9.55205 4.59615 10.0663 4.80554 10.5465C5.01493 11.0268 5.30285 11.4522 5.66928 11.8229C6.04095 12.1883 6.46759 12.4754 6.94919 12.6842C7.43079 12.8931 7.94642 12.9975 8.49607 12.9975ZM8.49607 11.7994C7.98306 11.7994 7.51455 11.6741 7.09053 11.4235C6.66651 11.1677 6.32625 10.8284 6.06975 10.4056C5.81324 9.98273 5.68499 9.51551 5.68499 9.00392C5.68499 8.49232 5.81324 8.0251 6.06975 7.60226C6.32625 7.17941 6.66651 6.84009 7.09053 6.58429C7.51455 6.3285 7.98306 6.2006 8.49607 6.2006C9.00908 6.2006 9.4776 6.3285 9.90162 6.58429C10.3256 6.84009 10.6633 7.17941 10.9145 7.60226C11.1711 8.0251 11.2993 8.49232 11.2993 9.00392C11.2993 9.51551 11.1711 9.98273 10.9145 10.4056C10.6633 10.8284 10.3256 11.1677 9.90162 11.4235C9.4776 11.6741 9.00908 11.7994 8.49607 11.7994ZM9.18707 1.18908C9.18707 1.00115 9.11901 0.839321 8.98291 0.703593C8.84681 0.567864 8.68453 0.5 8.49607 0.5C8.31286 0.5 8.15319 0.567864 8.01709 0.703593C7.88099 0.839321 7.81293 1.00115 7.81293 1.18908V2.83349C7.81293 3.0162 7.88099 3.17542 8.01709 3.31115C8.15319 3.44688 8.31286 3.51474 8.49607 3.51474C8.68453 3.51474 8.84681 3.44688 8.98291 3.31115C9.11901 3.17542 9.18707 3.0162 9.18707 2.83349V1.18908ZM12.3751 4.1725C12.2442 4.30301 12.1788 4.46484 12.1788 4.65799C12.1788 4.84592 12.2442 5.00514 12.3751 5.13565C12.5059 5.26616 12.6656 5.33402 12.854 5.33924C13.0477 5.33924 13.2126 5.27138 13.3487 5.13565L14.5187 3.96891C14.6496 3.8384 14.715 3.67657 14.715 3.48342C14.715 3.29027 14.6496 3.12844 14.5187 2.99793C14.3878 2.86742 14.2282 2.80217 14.0397 2.80217C13.8513 2.80217 13.6916 2.86742 13.5607 2.99793L12.3751 4.1725ZM16.309 9.68517C16.4975 9.68517 16.6597 9.6173 16.7958 9.48158C16.9319 9.34585 17 9.18663 17 9.00392C17 8.81598 16.9319 8.65676 16.7958 8.52626C16.6597 8.39053 16.4975 8.32266 16.309 8.32266H14.6679C14.4847 8.32266 14.325 8.39053 14.1889 8.52626C14.0528 8.65676 13.9848 8.81598 13.9848 9.00392C13.9848 9.18663 14.0528 9.34585 14.1889 9.48158C14.325 9.6173 14.4847 9.68517 14.6679 9.68517H16.309ZM13.3409 12.88C13.21 12.7495 13.0477 12.6842 12.854 12.6842C12.6656 12.6842 12.5059 12.7495 12.3751 12.88C12.2442 13.0105 12.1788 13.1697 12.1788 13.3577C12.1788 13.5456 12.2442 13.7074 12.3751 13.8432L13.5607 15.0177C13.6916 15.1482 13.8513 15.2109 14.0397 15.2057C14.2282 15.2057 14.3878 15.1404 14.5187 15.0099C14.6496 14.8794 14.715 14.7202 14.715 14.5322C14.715 14.3391 14.6496 14.1773 14.5187 14.0468L13.3409 12.88ZM9.18707 15.1743C9.18707 14.9864 9.11901 14.8246 8.98291 14.6889C8.84681 14.5531 8.68453 14.4853 8.49607 14.4853C8.31286 14.4853 8.15319 14.5531 8.01709 14.6889C7.88099 14.8246 7.81293 14.9864 7.81293 15.1743V16.8187C7.81293 17.0015 7.88099 17.1607 8.01709 17.2964C8.15319 17.4321 8.31286 17.5 8.49607 17.5C8.68453 17.5 8.84681 17.4321 8.98291 17.2964C9.11901 17.1607 9.18707 17.0015 9.18707 16.8187V15.1743ZM2.47344 14.0389C2.34257 14.1694 2.27714 14.3313 2.27714 14.5244C2.27714 14.7123 2.33995 14.8716 2.46559 15.0021C2.59646 15.1326 2.75874 15.1978 2.95243 15.1978C3.14611 15.2031 3.30839 15.1404 3.43926 15.0099L4.60924 13.8432C4.74011 13.7127 4.80554 13.5534 4.80554 13.3655C4.81078 13.1723 4.74796 13.0105 4.61709 12.88C4.48622 12.7495 4.32394 12.6842 4.13025 12.6842C3.93657 12.6842 3.77429 12.7495 3.64342 12.88L2.47344 14.0389ZM0.683141 8.32266C0.499923 8.32266 0.340262 8.39053 0.204157 8.52626C0.0680523 8.65676 0 8.81598 0 9.00392C0 9.18663 0.0680523 9.34585 0.204157 9.48158C0.340262 9.6173 0.499923 9.68517 0.683141 9.68517H2.32425C2.5127 9.68517 2.67498 9.6173 2.81109 9.48158C2.94719 9.34585 3.01524 9.18663 3.01524 9.00392C3.01524 8.81598 2.94719 8.65676 2.81109 8.52626C2.67498 8.39053 2.5127 8.32266 2.32425 8.32266H0.683141ZM3.64342 5.13565C3.77429 5.26616 3.93395 5.33141 4.1224 5.33141C4.31609 5.33141 4.47837 5.26616 4.60924 5.13565C4.74011 5.01036 4.80554 4.85114 4.80554 4.65799C4.81078 4.45962 4.74796 4.29779 4.61709 4.1725L3.44711 2.99793C3.32148 2.87264 3.16182 2.81 2.96813 2.81C2.77968 2.80478 2.6174 2.86742 2.48129 2.99793C2.35042 3.12844 2.28499 3.29027 2.28499 3.48342C2.28499 3.67135 2.34781 3.83057 2.47344 3.96108L3.64342 5.13565Z"
		fill="currentColor"
	/>
</svg>
