<svg
	color="rgb(var(--foreground, 0, 0, 0))"
	viewBox="0 0 15 18"
	fill="none"
	xmlns="http://www.w3.org/2000/svg"
>
	<path
		d="M8.61892 18C8.72703 18 8.81622 17.9658 8.88649 17.8974C8.95676 17.8343 9.0027 17.7475 9.02432 17.637C9.13784 16.7742 9.26486 16.0456 9.40541 15.4511C9.55135 14.8566 9.74054 14.3674 9.97297 13.9833C10.2108 13.5993 10.5243 13.2942 10.9135 13.068C11.3027 12.8365 11.7973 12.655 12.3973 12.5235C12.9973 12.3919 13.7378 12.2788 14.6189 12.1841C14.7324 12.1736 14.8243 12.1315 14.8946 12.0579C14.9649 11.9842 15 11.8948 15 11.7896C15 11.6896 14.9649 11.6028 14.8946 11.5292C14.8243 11.4555 14.7324 11.4134 14.6189 11.4029C13.7378 11.3082 12.9973 11.1951 12.3973 11.0636C11.7973 10.932 11.3027 10.7505 10.9135 10.5191C10.5243 10.2876 10.2108 9.97983 9.97297 9.59579C9.74054 9.21175 9.55135 8.72512 9.40541 8.13591C9.26486 7.54143 9.13784 6.81017 9.02432 5.94213C9.0027 5.83691 8.95676 5.75274 8.88649 5.68961C8.81622 5.62122 8.72703 5.58702 8.61892 5.58702C8.51622 5.58702 8.42703 5.62122 8.35135 5.68961C8.28108 5.75274 8.23784 5.83691 8.22162 5.94213C8.10811 6.81017 7.97838 7.54143 7.83243 8.13591C7.69189 8.72512 7.5027 9.21175 7.26486 9.59579C7.02703 9.97983 6.71351 10.2876 6.32432 10.5191C5.93514 10.7505 5.44054 10.932 4.84054 11.0636C4.24054 11.1951 3.5027 11.3082 2.62703 11.4029C2.50811 11.4134 2.41351 11.4555 2.34324 11.5292C2.27297 11.6028 2.23784 11.6896 2.23784 11.7896C2.23784 11.8948 2.27297 11.9842 2.34324 12.0579C2.41351 12.1315 2.50811 12.1736 2.62703 12.1841C3.5027 12.2946 4.23784 12.4209 4.83243 12.5629C5.43243 12.6997 5.92432 12.8812 6.30811 13.1074C6.6973 13.3336 7.01081 13.6361 7.24865 14.0149C7.48649 14.3937 7.67568 14.8751 7.81622 15.459C7.96216 16.0482 8.0973 16.7742 8.22162 17.637C8.23784 17.7475 8.28108 17.8343 8.35135 17.8974C8.42703 17.9658 8.51622 18 8.61892 18ZM3.12162 9.27225C3.1973 9.27225 3.25946 9.24858 3.30811 9.20123C3.35676 9.15388 3.38649 9.09601 3.3973 9.02762C3.46757 8.50153 3.54054 8.09119 3.61622 7.79658C3.69189 7.50197 3.80811 7.28102 3.96486 7.13371C4.12703 6.98115 4.36486 6.86541 4.67838 6.7865C4.9973 6.70232 5.43784 6.60763 6 6.50241C6.16216 6.47085 6.24324 6.38141 6.24324 6.23411C6.24324 6.16046 6.21892 6.09996 6.17027 6.05261C6.12703 6.00526 6.07027 5.97896 6 5.9737C5.43784 5.89478 4.9973 5.8185 4.67838 5.74485C4.35946 5.6712 4.11892 5.55809 3.95676 5.40552C3.8 5.2477 3.68378 5.01622 3.60811 4.71109C3.53784 4.40596 3.46757 3.98772 3.3973 3.45638C3.37568 3.28803 3.28378 3.20386 3.12162 3.20386C2.95946 3.20386 2.86757 3.29066 2.84595 3.46427C2.78108 3.99036 2.71081 4.4007 2.63514 4.69531C2.55946 4.98466 2.44054 5.20298 2.27838 5.35029C2.11622 5.49759 1.87568 5.61333 1.55676 5.6975C1.23784 5.77641 0.8 5.86848 0.243243 5.9737C0.0810811 6 0 6.0868 0 6.23411C0 6.38667 0.0918919 6.47611 0.275676 6.50241C0.827027 6.59185 1.25946 6.67602 1.57297 6.75493C1.89189 6.83385 2.12973 6.94958 2.28649 7.10215C2.44865 7.24945 2.56486 7.47304 2.63514 7.77291C2.71081 8.07278 2.78108 8.48575 2.84595 9.01184C2.86757 9.18544 2.95946 9.27225 3.12162 9.27225ZM7.04595 3.84305C7.14324 3.84305 7.2027 3.79044 7.22432 3.68523C7.28378 3.36431 7.33784 3.11179 7.38649 2.92766C7.43514 2.74353 7.50541 2.60412 7.5973 2.50943C7.69459 2.40947 7.84054 2.33056 8.03514 2.27269C8.22973 2.21482 8.5027 2.15695 8.85405 2.09908C8.96216 2.07804 9.01622 2.01754 9.01622 1.91758C9.01622 1.82288 8.96216 1.76502 8.85405 1.74397C8.5027 1.68084 8.22973 1.62297 8.03514 1.57036C7.84054 1.51249 7.69459 1.43621 7.5973 1.34152C7.50541 1.24156 7.43514 1.09952 7.38649 0.915388C7.33784 0.731258 7.28378 0.478737 7.22432 0.157826C7.2027 0.0526085 7.14324 0 7.04595 0C6.94324 0 6.88378 0.0526085 6.86757 0.157826C6.8027 0.478737 6.74595 0.731258 6.6973 0.915388C6.65405 1.09952 6.58378 1.24156 6.48649 1.34152C6.39459 1.43621 6.25135 1.51249 6.05676 1.57036C5.86216 1.62297 5.58919 1.68084 5.23784 1.74397C5.12973 1.76502 5.07568 1.82288 5.07568 1.91758C5.07568 2.01754 5.12973 2.07804 5.23784 2.09908C5.58919 2.15695 5.86216 2.21482 6.05676 2.27269C6.25135 2.33056 6.39459 2.40947 6.48649 2.50943C6.58378 2.60412 6.65405 2.74353 6.6973 2.92766C6.74595 3.11179 6.8027 3.36431 6.86757 3.68523C6.88378 3.79044 6.94324 3.84305 7.04595 3.84305Z"
		fill="currentColor"
	/>
</svg>
