<svg
	color="rgb(var(--foreground, 0, 0, 0))"
	viewBox="0 0 17 18"
	fill="none"
	xmlns="http://www.w3.org/2000/svg"
>
	<path
		d="M8.49608 5.00253C7.94643 5.00253 7.4308 5.10694 6.9492 5.31575C6.4676 5.52457 6.04096 5.81429 5.66929 6.18494C5.30286 6.55036 5.01495 6.97582 4.80555 7.46131C4.59616 7.94158 4.49147 8.45578 4.49147 9.00392C4.49147 9.55205 4.59616 10.0663 4.80555 10.5465C5.01495 11.0268 5.30286 11.4522 5.66929 11.8229C6.04096 12.1883 6.4676 12.4754 6.9492 12.6842C7.4308 12.8931 7.94643 12.9975 8.49608 12.9975C9.0405 12.9975 9.55351 12.8931 10.0351 12.6842C10.5219 12.4754 10.9486 12.1883 11.315 11.8229C11.6815 11.4522 11.9694 11.0268 12.1788 10.5465C12.3881 10.0663 12.4928 9.55205 12.4928 9.00392C12.4928 8.45578 12.3881 7.94158 12.1788 7.46131C11.9694 6.97582 11.6815 6.55036 11.315 6.18494C10.9486 5.81429 10.5219 5.52457 10.0351 5.31575C9.55351 5.10694 9.0405 5.00253 8.49608 5.00253ZM9.18707 1.18908C9.18707 1.00115 9.11902 0.839321 8.98292 0.703593C8.84681 0.567864 8.68453 0.5 8.49608 0.5C8.31286 0.5 8.1532 0.567864 8.0171 0.703593C7.88099 0.839321 7.81294 1.00115 7.81294 1.18908V2.83349C7.81294 3.0162 7.88099 3.17542 8.0171 3.31115C8.1532 3.44688 8.31286 3.51474 8.49608 3.51474C8.68453 3.51474 8.84681 3.44688 8.98292 3.31115C9.11902 3.17542 9.18707 3.0162 9.18707 2.83349V1.18908ZM12.3751 4.1725C12.2442 4.30301 12.1788 4.46484 12.1788 4.65799C12.1788 4.84592 12.2442 5.00514 12.3751 5.13565C12.5059 5.26616 12.6656 5.33402 12.854 5.33924C13.0477 5.33924 13.2126 5.27138 13.3487 5.13565L14.5187 3.96891C14.6496 3.8384 14.715 3.67657 14.715 3.48342C14.715 3.29027 14.6496 3.12844 14.5187 2.99793C14.3878 2.86742 14.2282 2.80217 14.0397 2.80217C13.8513 2.80217 13.6916 2.86742 13.5607 2.99793L12.3751 4.1725ZM16.309 9.68517C16.4975 9.68517 16.6597 9.6173 16.7958 9.48158C16.9319 9.34585 17 9.18663 17 9.00392C17 8.81598 16.9319 8.65676 16.7958 8.52626C16.6597 8.39053 16.4975 8.32266 16.309 8.32266H14.6679C14.4847 8.32266 14.325 8.39053 14.1889 8.52626C14.0528 8.65676 13.9848 8.81598 13.9848 9.00392C13.9848 9.18663 14.0528 9.34585 14.1889 9.48158C14.325 9.6173 14.4847 9.68517 14.6679 9.68517H16.309ZM13.3409 12.88C13.21 12.7495 13.0477 12.6842 12.854 12.6842C12.6656 12.6842 12.5059 12.7495 12.3751 12.88C12.2442 13.0105 12.1788 13.1697 12.1788 13.3577C12.1788 13.5456 12.2442 13.7074 12.3751 13.8432L13.5607 15.0177C13.6916 15.1482 13.8513 15.2109 14.0397 15.2057C14.2282 15.2057 14.3878 15.1404 14.5187 15.0099C14.6496 14.8794 14.715 14.7202 14.715 14.5322C14.715 14.3391 14.6496 14.1773 14.5187 14.0468L13.3409 12.88ZM9.18707 15.1743C9.18707 14.9864 9.11902 14.8246 8.98292 14.6889C8.84681 14.5531 8.68453 14.4853 8.49608 14.4853C8.31286 14.4853 8.1532 14.5531 8.0171 14.6889C7.88099 14.8246 7.81294 14.9864 7.81294 15.1743V16.8187C7.81294 17.0015 7.88099 17.1607 8.0171 17.2964C8.1532 17.4321 8.31286 17.5 8.49608 17.5C8.68453 17.5 8.84681 17.4321 8.98292 17.2964C9.11902 17.1607 9.18707 17.0015 9.18707 16.8187V15.1743ZM2.47345 14.0389C2.34258 14.1694 2.27715 14.3313 2.27715 14.5244C2.27715 14.7123 2.33997 14.8716 2.4656 15.0021C2.59647 15.1326 2.75875 15.1978 2.95244 15.1978C3.14612 15.2031 3.3084 15.1404 3.43927 15.0099L4.60925 13.8432C4.74012 13.7127 4.80555 13.5534 4.80555 13.3655C4.81079 13.1723 4.74797 13.0105 4.6171 12.88C4.48623 12.7495 4.32395 12.6842 4.13027 12.6842C3.93658 12.6842 3.7743 12.7495 3.64343 12.88L2.47345 14.0389ZM0.68314 8.32266C0.499923 8.32266 0.340261 8.39053 0.204157 8.52626C0.0680523 8.65676 0 8.81598 0 9.00392C0 9.18663 0.0680523 9.34585 0.204157 9.48158C0.340261 9.6173 0.499923 9.68517 0.68314 9.68517H2.32426C2.51272 9.68517 2.67499 9.6173 2.8111 9.48158C2.9472 9.34585 3.01525 9.18663 3.01525 9.00392C3.01525 8.81598 2.9472 8.65676 2.8111 8.52626C2.67499 8.39053 2.51272 8.32266 2.32426 8.32266H0.68314ZM3.64343 5.13565C3.7743 5.26616 3.93396 5.33141 4.12241 5.33141C4.3161 5.33141 4.47838 5.26616 4.60925 5.13565C4.74012 5.01036 4.80555 4.85114 4.80555 4.65799C4.81079 4.45962 4.74797 4.29779 4.6171 4.1725L3.44713 2.99793C3.32149 2.87264 3.16183 2.81 2.96814 2.81C2.77969 2.80478 2.61741 2.86742 2.48131 2.99793C2.35044 3.12844 2.285 3.29027 2.285 3.48342C2.285 3.67135 2.34782 3.83057 2.47345 3.96108L3.64343 5.13565Z"
		fill="currentColor"
	/>
</svg>
