<svg
	color="rgb(var(--foreground, 0, 0, 0))"
	viewBox="0 0 16 16"
	fill="none"
	xmlns="http://www.w3.org/2000/svg"
>
	<path
		d="M8 12.0598C8.55301 12.0598 9.07411 11.9535 9.56331 11.7408C10.0578 11.5281 10.4912 11.2356 10.8634 10.8634C11.2409 10.4912 11.5361 10.0605 11.7488 9.57129C11.9614 9.07677 12.0678 8.55301 12.0678 8C12.0678 7.44168 11.9614 6.91791 11.7488 6.42871C11.5361 5.93952 11.2409 5.50881 10.8634 5.13659C10.4912 4.75906 10.0578 4.46394 9.56331 4.25125C9.07411 4.03855 8.55301 3.9322 8 3.9322C7.44699 3.9322 6.92323 4.03855 6.42871 4.25125C5.93952 4.46394 5.50881 4.75906 5.13659 5.13659C4.76437 5.50881 4.47192 5.93952 4.25922 6.42871C4.04653 6.91791 3.94018 7.44168 3.94018 8C3.94018 8.55301 4.04653 9.07677 4.25922 9.57129C4.47192 10.0605 4.76437 10.4912 5.13659 10.8634C5.50881 11.2356 5.93952 11.5281 6.42871 11.7408C6.92323 11.9535 7.44699 12.0598 8 12.0598ZM8 10.8475C7.4789 10.8475 7.00299 10.7198 6.57228 10.4646C6.14158 10.2041 5.79595 9.85843 5.53539 9.42772C5.28016 8.99701 5.15254 8.5211 5.15254 8C5.15254 7.48421 5.28016 7.01097 5.53539 6.58026C5.79595 6.14423 6.14158 5.79595 6.57228 5.53539C7.00299 5.27484 7.4789 5.14457 8 5.14457C8.5211 5.14457 8.99701 5.27484 9.42772 5.53539C9.85843 5.79595 10.2041 6.14158 10.4646 6.57228C10.7252 7.00299 10.8554 7.4789 10.8554 8C10.8554 8.5211 10.7252 8.99701 10.4646 9.42772C10.2041 9.85843 9.85843 10.2041 9.42772 10.4646C8.99701 10.7198 8.5211 10.8475 8 10.8475ZM0.9332 8.9332C1.18843 8.9332 1.40645 8.8428 1.58724 8.66201C1.77335 8.47591 1.8664 8.25523 1.8664 8C1.8664 7.74477 1.77335 7.52675 1.58724 7.34596C1.40645 7.15985 1.18843 7.0668 0.9332 7.0668C0.677966 7.0668 0.457295 7.15985 0.271186 7.34596C0.0903955 7.52675 0 7.74477 0 8C0 8.25523 0.0903955 8.47591 0.271186 8.66201C0.457295 8.8428 0.677966 8.9332 0.9332 8.9332ZM2.999 3.9322C3.25424 3.9322 3.47225 3.84181 3.65304 3.66102C3.83915 3.47491 3.9322 3.25424 3.9322 2.999C3.9322 2.74377 3.83915 2.52576 3.65304 2.34497C3.47225 2.15886 3.25424 2.0658 2.999 2.0658C2.74377 2.0658 2.5231 2.15886 2.33699 2.34497C2.1562 2.52576 2.0658 2.74377 2.0658 2.999C2.0658 3.25424 2.1562 3.47491 2.33699 3.66102C2.5231 3.84181 2.74377 3.9322 2.999 3.9322ZM8 1.8664C8.25523 1.8664 8.47325 1.77601 8.65404 1.59521C8.84015 1.40911 8.9332 1.18843 8.9332 0.9332C8.9332 0.677966 8.84015 0.459953 8.65404 0.279163C8.47325 0.0930542 8.25523 0 8 0C7.74477 0 7.52409 0.0930542 7.33799 0.279163C7.1572 0.459953 7.0668 0.677966 7.0668 0.9332C7.0668 1.18843 7.1572 1.40911 7.33799 1.59521C7.52409 1.77601 7.74477 1.8664 8 1.8664ZM13.001 3.9322C13.2562 3.9322 13.4742 3.84181 13.655 3.66102C13.8411 3.47491 13.9342 3.25424 13.9342 2.999C13.9342 2.74377 13.8411 2.52576 13.655 2.34497C13.4742 2.15886 13.2562 2.0658 13.001 2.0658C12.7458 2.0658 12.5251 2.15886 12.339 2.34497C12.1582 2.52576 12.0678 2.74377 12.0678 2.999C12.0678 3.25424 12.1582 3.47491 12.339 3.66102C12.5251 3.84181 12.7458 3.9322 13.001 3.9322ZM15.0668 8.9332C15.322 8.9332 15.54 8.8428 15.7208 8.66201C15.9069 8.47591 16 8.25523 16 8C16 7.74477 15.9069 7.52675 15.7208 7.34596C15.54 7.15985 15.322 7.0668 15.0668 7.0668C14.8116 7.0668 14.5909 7.15985 14.4048 7.34596C14.224 7.52675 14.1336 7.74477 14.1336 8C14.1336 8.25523 14.224 8.47591 14.4048 8.66201C14.5909 8.8428 14.8116 8.9332 15.0668 8.9332ZM13.001 13.9342C13.2562 13.9342 13.4742 13.8438 13.655 13.663C13.8411 13.4769 13.9342 13.2562 13.9342 13.001C13.9342 12.7458 13.8411 12.5278 13.655 12.347C13.4742 12.1609 13.2562 12.0678 13.001 12.0678C12.7458 12.0678 12.5251 12.1609 12.339 12.347C12.1582 12.5278 12.0678 12.7458 12.0678 13.001C12.0678 13.2562 12.1582 13.4769 12.339 13.663C12.5251 13.8438 12.7458 13.9342 13.001 13.9342ZM8 16C8.25523 16 8.47325 15.9069 8.65404 15.7208C8.84015 15.54 8.9332 15.322 8.9332 15.0668C8.9332 14.8116 8.84015 14.5909 8.65404 14.4048C8.47325 14.224 8.25523 14.1336 8 14.1336C7.74477 14.1336 7.52409 14.224 7.33799 14.4048C7.1572 14.5909 7.0668 14.8116 7.0668 15.0668C7.0668 15.322 7.1572 15.54 7.33799 15.7208C7.52409 15.9069 7.74477 16 8 16ZM2.999 13.9342C3.25424 13.9342 3.47225 13.8438 3.65304 13.663C3.83915 13.4769 3.9322 13.2562 3.9322 13.001C3.9322 12.7458 3.83915 12.5278 3.65304 12.347C3.47225 12.1609 3.25424 12.0678 2.999 12.0678C2.74377 12.0678 2.5231 12.1609 2.33699 12.347C2.1562 12.5278 2.0658 12.7458 2.0658 13.001C2.0658 13.2562 2.1562 13.4769 2.33699 13.663C2.5231 13.8438 2.74377 13.9342 2.999 13.9342Z"
		fill="currentColor"
	/>
</svg>
