<svg
	color="rgb(var(--foreground, 0, 0, 0))"
	viewBox="0 0 20 16"
	fill="none"
	xmlns="http://www.w3.org/2000/svg"
>
	<path
		d="M6.74989 15.0264H8.80218C8.27155 14.8066 7.83456 14.4539 7.49121 13.9684C7.15307 13.4828 6.98399 12.9411 6.98399 12.3431C6.98399 11.8013 7.11925 11.3055 7.38977 10.8558C7.66549 10.406 8.03224 10.0482 8.49004 9.78246C8.94784 9.51158 9.45246 9.37614 10.0039 9.37614C10.5501 9.37614 11.0521 9.51158 11.5099 9.78246C11.9677 10.0482 12.3319 10.406 12.6024 10.8558C12.8781 11.3055 13.016 11.8013 13.016 12.3431C13.016 12.9411 12.8443 13.4828 12.501 13.9684C12.1628 14.4539 11.7284 14.8066 11.1978 15.0264H13.2501C13.5674 14.6635 13.8145 14.252 13.9914 13.792C14.1735 13.3372 14.2645 12.8542 14.2645 12.3431C14.2645 11.7655 14.1527 11.2238 13.929 10.7178C13.7105 10.2118 13.4036 9.76713 13.0082 9.3838C12.6128 8.99537 12.1576 8.69126 11.6426 8.47149C11.1276 8.25172 10.5813 8.14183 10.0039 8.14183C9.42124 8.14183 8.87241 8.25172 8.35738 8.47149C7.84236 8.69126 7.38717 8.99537 6.9918 9.3838C6.59643 9.76713 6.28689 10.2118 6.0632 10.7178C5.8447 11.2238 5.73546 11.7655 5.73546 12.3431C5.73546 12.8542 5.82389 13.3372 6.00077 13.792C6.18285 14.252 6.43256 14.6635 6.74989 15.0264ZM1.69331 12.7647H3.61294C3.81583 12.7647 3.9823 12.706 4.11236 12.5884C4.24761 12.4657 4.31524 12.3175 4.31524 12.1437C4.31004 11.9751 4.24241 11.8294 4.11236 11.7068C3.9823 11.5841 3.81583 11.5228 3.61294 11.5228H1.69331C1.49043 11.5228 1.32396 11.5841 1.1939 11.7068C1.06384 11.8294 0.998815 11.9751 0.998815 12.1437C0.998815 12.3175 1.06384 12.4657 1.1939 12.5884C1.32396 12.706 1.49043 12.7647 1.69331 12.7647ZM5.97736 8.38716C6.09701 8.26449 6.15424 8.11372 6.14903 7.93483C6.14903 7.75595 6.0762 7.59751 5.93054 7.45951L4.57275 6.12554C4.42709 5.98243 4.26582 5.91088 4.08895 5.91088C3.91207 5.91088 3.7612 5.96965 3.63635 6.08721C3.5115 6.20476 3.44907 6.35298 3.44907 6.53186C3.45427 6.70564 3.52971 6.86408 3.67537 7.00719L5.03315 8.34116C5.17361 8.48427 5.33488 8.55838 5.51696 8.56349C5.70424 8.5686 5.85771 8.50982 5.97736 8.38716ZM14.0226 8.38716C14.1475 8.50471 14.3009 8.56349 14.483 8.56349C14.6651 8.55838 14.8264 8.48427 14.9668 8.34116L16.3246 7.00719C16.4703 6.86408 16.5431 6.70564 16.5431 6.53186C16.5483 6.35809 16.4885 6.20987 16.3636 6.08721C16.244 5.96454 16.0931 5.90577 15.911 5.91088C15.7342 5.91088 15.5729 5.98243 15.4272 6.12554L14.0694 7.45951C13.9238 7.59751 13.8484 7.7585 13.8431 7.9425C13.8379 8.12139 13.8978 8.26961 14.0226 8.38716ZM16.387 12.7647H18.3067C18.5096 12.7647 18.676 12.706 18.8061 12.5884C18.9361 12.4657 19.0012 12.3175 19.0012 12.1437C19.0012 11.9751 18.9361 11.8294 18.8061 11.7068C18.676 11.5841 18.5096 11.5228 18.3067 11.5228H16.387C16.1894 11.5228 16.0229 11.5841 15.8876 11.7068C15.7524 11.8294 15.6847 11.9751 15.6847 12.1437C15.6899 12.3175 15.7576 12.4657 15.8876 12.5884C16.0229 12.706 16.1894 12.7647 16.387 12.7647ZM0.678877 16H19.3211C19.5032 16 19.6619 15.9387 19.7971 15.816C19.9324 15.6985 20 15.5553 20 15.3867C20 15.218 19.9324 15.0724 19.7971 14.9497C19.6619 14.8321 19.5032 14.7734 19.3211 14.7734H0.678877C0.496799 14.7734 0.338146 14.8321 0.202887 14.9497C0.0676291 15.0724 0 15.218 0 15.3867C0 15.5553 0.0676291 15.6985 0.202887 15.816C0.338146 15.9387 0.496799 16 0.678877 16ZM10.0039 6.25587C10.1756 6.25587 10.3238 6.19198 10.4487 6.06421C10.5735 5.93132 10.636 5.77032 10.636 5.58122V2.70628L10.5423 1.54863L11.1198 2.20029L12.0952 3.17393C12.1524 3.22504 12.2174 3.26849 12.2903 3.30426C12.3631 3.33493 12.4359 3.35026 12.5088 3.35026C12.6648 3.35026 12.7923 3.30171 12.8911 3.2046C12.9952 3.10749 13.0472 2.98483 13.0472 2.83661C13.0472 2.75483 13.0316 2.68328 13.0004 2.62195C12.9692 2.5555 12.9224 2.49161 12.8599 2.43028L10.4253 0.199329C10.2744 0.0664431 10.134 0 10.0039 0C9.86864 0 9.72557 0.0664431 9.57471 0.199329L7.14006 2.43028C7.07763 2.49161 7.03081 2.5555 6.9996 2.62195C6.96839 2.68328 6.95278 2.75483 6.95278 2.83661C6.95278 2.98483 7.0022 3.10749 7.10104 3.2046C7.20509 3.30171 7.33514 3.35026 7.49121 3.35026C7.56404 3.35026 7.63687 3.33493 7.70971 3.30426C7.78254 3.26849 7.84757 3.22504 7.90479 3.17393L8.95824 2.12362L9.45766 1.54863L9.36402 2.70628V5.58122C9.36402 5.77032 9.42645 5.93132 9.5513 6.06421C9.67615 6.19198 9.82702 6.25587 10.0039 6.25587Z"
		fill="currentColor"
	/>
</svg>
