<svg
	color="rgb(var(--foreground, 0, 0, 0))"
	viewBox="0 0 20 16"
	fill="none"
	xmlns="http://www.w3.org/2000/svg"
>
	<path
		d="M14.2255 12.3047C14.2255 11.7374 14.1137 11.2033 13.89 10.7024C13.6715 10.2016 13.3671 9.75946 12.977 9.37614C12.592 8.99281 12.1446 8.69382 11.6348 8.47916C11.125 8.25938 10.5813 8.1495 10.0039 8.1495C9.42125 8.1495 8.87502 8.25938 8.3652 8.47916C7.85538 8.69382 7.40538 8.99281 7.01522 9.37614C6.63025 9.75946 6.32592 10.2016 6.10222 10.7024C5.88373 11.2033 5.77448 11.7374 5.77448 12.3047C5.77448 12.5858 5.8031 12.8593 5.86032 13.1251C5.91754 13.3857 6.00078 13.6362 6.11003 13.8764H13.89C13.9992 13.6362 14.0825 13.3857 14.1397 13.1251C14.1969 12.8593 14.2255 12.5858 14.2255 12.3047ZM1.69333 12.7417H3.61295C3.81584 12.7417 3.98231 12.683 4.11237 12.5654C4.24763 12.4427 4.31526 12.2945 4.31526 12.1207C4.31005 11.9521 4.24242 11.8064 4.11237 11.6838C3.98231 11.5611 3.81584 11.4998 3.61295 11.4998H1.69333C1.49044 11.4998 1.32397 11.5611 1.19391 11.6838C1.06386 11.8064 0.998829 11.9521 0.998829 12.1207C0.998829 12.2945 1.06386 12.4427 1.19391 12.5654C1.32397 12.683 1.49044 12.7417 1.69333 12.7417ZM5.03316 8.31816C5.17362 8.46127 5.33489 8.53538 5.51697 8.54049C5.70425 8.5456 5.85772 8.48682 5.97737 8.36416C6.09702 8.2415 6.15425 8.09072 6.14904 7.91183C6.14904 7.73295 6.07621 7.57451 5.93055 7.43651L4.57277 6.10254C4.4271 5.95943 4.26583 5.88788 4.08896 5.88788C3.91208 5.88788 3.76122 5.94665 3.63636 6.06421C3.51151 6.18176 3.44908 6.32998 3.44908 6.50886C3.45429 6.68264 3.52972 6.84108 3.67538 6.98419L5.03316 8.31816ZM14.0226 8.36416C14.1475 8.48171 14.3009 8.54049 14.483 8.54049C14.6651 8.53538 14.8264 8.46127 14.9668 8.31816L16.3246 6.98419C16.4703 6.84108 16.5431 6.68264 16.5431 6.50886C16.5483 6.33509 16.4885 6.18687 16.3636 6.06421C16.244 5.94154 16.0931 5.88277 15.911 5.88788C15.7342 5.88788 15.5729 5.95943 15.4272 6.10254L14.0694 7.43651C13.9238 7.57451 13.8484 7.73551 13.8432 7.9195C13.8379 8.09839 13.8978 8.24661 14.0226 8.36416ZM16.387 12.7417H18.3067C18.5096 12.7417 18.676 12.683 18.8061 12.5654C18.9361 12.4427 19.0012 12.2945 19.0012 12.1207C19.0012 11.9521 18.9361 11.8064 18.8061 11.6838C18.676 11.5611 18.5096 11.4998 18.3067 11.4998H16.387C16.1894 11.4998 16.0229 11.5611 15.8876 11.6838C15.7524 11.8064 15.6847 11.9521 15.6847 12.1207C15.6899 12.2945 15.7576 12.4427 15.8876 12.5654C16.0229 12.683 16.1894 12.7417 16.387 12.7417ZM0.678892 16H19.3211C19.5032 16 19.6619 15.9387 19.7971 15.816C19.9324 15.6985 20 15.5553 20 15.3867C20 15.218 19.9324 15.0724 19.7971 14.9497C19.6619 14.8321 19.5032 14.7734 19.3211 14.7734H0.678892C0.496814 14.7734 0.338145 14.8321 0.202887 14.9497C0.0676291 15.0724 0 15.218 0 15.3867C0 15.5553 0.0676291 15.6985 0.202887 15.816C0.338145 15.9387 0.496814 16 0.678892 16ZM10.0039 6.25587C10.1756 6.25587 10.3238 6.19198 10.4487 6.06421C10.5735 5.93132 10.636 5.77032 10.636 5.58122V2.70628L10.5423 1.54863L11.1198 2.20029L12.0952 3.17393C12.1524 3.22504 12.2175 3.26849 12.2903 3.30426C12.3631 3.33493 12.4359 3.35026 12.5088 3.35026C12.6648 3.35026 12.7923 3.30171 12.8911 3.2046C12.9952 3.10749 13.0472 2.98483 13.0472 2.83661C13.0472 2.75483 13.0316 2.68328 13.0004 2.62195C12.9692 2.5555 12.9224 2.49161 12.8599 2.43028L10.4253 0.199329C10.2744 0.0664431 10.134 0 10.0039 0C9.86864 0 9.72558 0.0664431 9.57472 0.199329L7.14007 2.43028C7.07764 2.49161 7.03082 2.5555 6.99961 2.62195C6.9684 2.68328 6.95279 2.75483 6.95279 2.83661C6.95279 2.98483 7.00221 3.10749 7.10105 3.2046C7.2051 3.30171 7.33515 3.35026 7.49122 3.35026C7.56405 3.35026 7.63688 3.33493 7.70971 3.30426C7.78255 3.26849 7.84757 3.22504 7.9048 3.17393L8.95825 2.12362L9.45767 1.54863L9.36403 2.70628V5.58122C9.36403 5.77032 9.42645 5.93132 9.55131 6.06421C9.67616 6.19198 9.82703 6.25587 10.0039 6.25587Z"
		fill="currentColor"
	/>
</svg>
