<svg
	color="rgb(var(--foreground, 0, 0, 0))"
	viewBox="0 0 20 16"
	fill="none"
	xmlns="http://www.w3.org/2000/svg"
>
	<path
		d="M14.2255 12.3047C14.2255 11.7374 14.1137 11.2033 13.89 10.7024C13.6715 10.2016 13.3671 9.75946 12.977 9.37614C12.592 8.99281 12.1446 8.69382 11.6348 8.47916C11.125 8.25938 10.5813 8.1495 10.0039 8.1495C9.42124 8.1495 8.87502 8.25938 8.3652 8.47916C7.85538 8.69382 7.40539 8.99281 7.01522 9.37614C6.63026 9.75946 6.32592 10.2016 6.10223 10.7024C5.88373 11.2033 5.77449 11.7374 5.77449 12.3047C5.77449 12.5858 5.8031 12.8593 5.86032 13.1251C5.91755 13.3857 6.00078 13.6362 6.11003 13.8764H13.89C13.9992 13.6362 14.0825 13.3857 14.1397 13.1251C14.1969 12.8593 14.2255 12.5858 14.2255 12.3047ZM1.69333 12.7417H3.61296C3.81584 12.7417 3.98232 12.683 4.11237 12.5654C4.24763 12.4427 4.31526 12.2945 4.31526 12.1207C4.31006 11.9521 4.24243 11.8064 4.11237 11.6838C3.98232 11.5611 3.81584 11.4998 3.61296 11.4998H1.69333C1.49044 11.4998 1.32397 11.5611 1.19391 11.6838C1.06386 11.8064 0.99883 11.9521 0.99883 12.1207C0.99883 12.2945 1.06386 12.4427 1.19391 12.5654C1.32397 12.683 1.49044 12.7417 1.69333 12.7417ZM5.03317 8.31816C5.17363 8.46127 5.3349 8.53538 5.51698 8.54049C5.70426 8.5456 5.85772 8.48682 5.97738 8.36416C6.09703 8.24149 6.15425 8.09072 6.14905 7.91183C6.14905 7.73295 6.07622 7.57451 5.93055 7.43651L4.57277 6.10254C4.42711 5.95943 4.26584 5.88788 4.08896 5.88788C3.91209 5.88788 3.76122 5.94665 3.63637 6.06421C3.51151 6.18176 3.44909 6.32998 3.44909 6.50886C3.45429 6.68264 3.52972 6.84108 3.67538 6.98419L5.03317 8.31816ZM14.0226 8.36416C14.1475 8.48171 14.3009 8.54049 14.483 8.54049C14.6651 8.53538 14.8264 8.46127 14.9668 8.31816L16.3246 6.98419C16.4703 6.84108 16.5431 6.68264 16.5431 6.50886C16.5483 6.33509 16.4885 6.18687 16.3636 6.06421C16.244 5.94154 16.0931 5.88277 15.911 5.88788C15.7342 5.88788 15.5729 5.95943 15.4272 6.10254L14.0694 7.43651C13.9238 7.57451 13.8484 7.73551 13.8431 7.9195C13.8379 8.09839 13.8978 8.24661 14.0226 8.36416ZM16.387 12.7417H18.3067C18.5096 12.7417 18.676 12.683 18.8061 12.5654C18.9361 12.4427 19.0012 12.2945 19.0012 12.1207C19.0012 11.9521 18.9361 11.8064 18.8061 11.6838C18.676 11.5611 18.5096 11.4998 18.3067 11.4998H16.387C16.1894 11.4998 16.0229 11.5611 15.8876 11.6838C15.7524 11.8064 15.6847 11.9521 15.6847 12.1207C15.6899 12.2945 15.7576 12.4427 15.8876 12.5654C16.0229 12.683 16.1894 12.7417 16.387 12.7417ZM0.678892 16H19.3211C19.5032 16 19.6619 15.9387 19.7971 15.816C19.9324 15.6985 20 15.5553 20 15.3867C20 15.218 19.9324 15.0724 19.7971 14.9497C19.6619 14.8321 19.5032 14.7734 19.3211 14.7734H0.678892C0.496814 14.7734 0.338146 14.8321 0.202887 14.9497C0.0676291 15.0724 0 15.218 0 15.3867C0 15.5553 0.0676291 15.6985 0.202887 15.816C0.338146 15.9387 0.496814 16 0.678892 16ZM10.0039 0C9.82702 0 9.67617 0.0664431 9.55131 0.199329C9.42646 0.332215 9.36403 0.493212 9.36403 0.682319V3.54959L9.45767 4.70724L8.95826 4.13225L7.90481 3.0896C7.84758 3.03338 7.78255 2.98994 7.70972 2.95927C7.63689 2.92861 7.56406 2.91327 7.49123 2.91327C7.33516 2.91327 7.2051 2.96183 7.10106 3.05894C7.00222 3.15093 6.9528 3.2736 6.9528 3.42693C6.9528 3.5087 6.9684 3.58281 6.99962 3.64926C7.03083 3.71059 7.07765 3.76937 7.14008 3.82559L9.57472 6.05654C9.72559 6.18943 9.86864 6.25587 10.0039 6.25587C10.134 6.25587 10.2744 6.18943 10.4253 6.05654L12.8599 3.82559C12.9224 3.76937 12.9692 3.71059 13.0004 3.64926C13.0316 3.58281 13.0472 3.5087 13.0472 3.42693C13.0472 3.2736 12.9952 3.15093 12.8911 3.05894C12.7923 2.96183 12.6648 2.91327 12.5088 2.91327C12.4359 2.91327 12.3631 2.92861 12.2903 2.95927C12.2174 2.98994 12.1524 3.03338 12.0952 3.0896L11.1198 4.05558L10.5423 4.70724L10.636 3.54959V0.682319C10.636 0.493212 10.5735 0.332215 10.4487 0.199329C10.3238 0.0664431 10.1756 0 10.0039 0Z"
		fill="currentColor"
	/>
</svg>
