<svg
	color="rgb(var(--foreground, 0, 0, 0))"
	viewBox="0 0 16 14"
	fill="none"
	xmlns="http://www.w3.org/2000/svg"
>
	<path
		d="M0 2.56818C0 2.7197 0.0507457 2.84849 0.152237 2.95455C0.258803 3.05556 0.388205 3.10606 0.540442 3.10606H0.578501C1.05044 3.10606 1.44625 3.05556 1.76595 2.95455C2.09072 2.84849 2.36475 2.7197 2.58803 2.56818C2.81131 2.41162 3.01176 2.25758 3.18937 2.10606C3.36698 1.95455 3.54713 1.82828 3.72981 1.72727C3.91757 1.62121 4.13578 1.56818 4.38443 1.56818C4.62801 1.56818 4.84368 1.62121 5.03144 1.72727C5.2192 1.82828 5.40188 1.95455 5.57949 2.10606C5.76218 2.25758 5.96008 2.41162 6.17322 2.56818C6.39142 2.7197 6.64515 2.84849 6.9344 2.95455C7.22873 3.05556 7.58395 3.10606 8.00006 3.10606C8.41618 3.10606 8.76886 3.05556 9.05811 2.95455C9.35244 2.84849 9.60616 2.7197 9.81929 2.56818C10.0375 2.41162 10.2353 2.25758 10.4129 2.10606C10.5956 1.95455 10.7808 1.82828 10.9686 1.72727C11.1563 1.62121 11.372 1.56818 11.6156 1.56818C11.8591 1.56818 12.0723 1.62121 12.255 1.72727C12.4427 1.82828 12.6254 1.95455 12.803 2.10606C12.9806 2.25758 13.1811 2.41162 13.4044 2.56818C13.6327 2.7197 13.9067 2.84849 14.2264 2.95455C14.5461 3.05556 14.9445 3.10606 15.4215 3.10606H15.4596C15.6067 3.10606 15.7336 3.05556 15.8402 2.95455C15.9467 2.84849 16 2.7197 16 2.56818C16 2.42172 15.9467 2.29798 15.8402 2.19697C15.7336 2.09091 15.6067 2.03788 15.4596 2.03788H15.4215C15.0105 2.03788 14.6705 1.96465 14.4015 1.81818C14.1326 1.67172 13.856 1.49747 13.5718 1.29545C13.3232 1.11364 13.039 0.936869 12.7193 0.765152C12.4047 0.588384 12.0368 0.5 11.6156 0.5C11.1792 0.5 10.7986 0.593434 10.4738 0.780303C10.1541 0.962121 9.87004 1.14646 9.62139 1.33333C9.35751 1.5303 9.10632 1.69697 8.86781 1.83333C8.62931 1.9697 8.34006 2.03788 8.00006 2.03788C7.66007 2.03788 7.36828 1.9697 7.1247 1.83333C6.88619 1.69697 6.63754 1.5303 6.37874 1.33333C6.13008 1.14646 5.84337 0.962121 5.5186 0.780303C5.1989 0.593434 4.82084 0.5 4.38443 0.5C3.96324 0.5 3.5928 0.588384 3.2731 0.765152C2.95848 0.936869 2.67684 1.11364 2.42818 1.29545C2.13893 1.49747 1.85983 1.67172 1.59088 1.81818C1.32193 1.96465 0.984467 2.03788 0.578501 2.03788H0.540442C0.388205 2.03788 0.258803 2.09091 0.152237 2.19697C0.0507457 2.29798 0 2.42172 0 2.56818ZM4.38443 5.22727C3.96324 5.22727 3.5928 5.31566 3.2731 5.49242C2.95848 5.66919 2.67684 5.84596 2.42818 6.02273C2.13893 6.22475 1.85983 6.39899 1.59088 6.54545C1.32193 6.69192 0.984467 6.76515 0.578501 6.76515H0.540442C0.388205 6.76515 0.258803 6.81818 0.152237 6.92424C0.0507457 7.02525 0 7.15152 0 7.30303C0 7.4495 0.0507457 7.57576 0.152237 7.68182C0.258803 7.78283 0.388205 7.83333 0.540442 7.83333H0.578501C1.05044 7.83333 1.44625 7.78283 1.76595 7.68182C2.09072 7.57576 2.36475 7.44697 2.58803 7.29545C2.81131 7.14394 3.01176 6.99242 3.18937 6.84091C3.36698 6.68434 3.54713 6.55556 3.72981 6.45455C3.91757 6.34848 4.13578 6.29545 4.38443 6.29545C4.50622 6.29545 4.61279 6.31313 4.70413 6.34848C4.80054 6.38384 4.89442 6.42424 4.98577 6.4697L5.66322 5.59849C5.48054 5.49748 5.28517 5.41162 5.07711 5.34091C4.86905 5.26515 4.63816 5.22727 4.38443 5.22727ZM15.4596 6.76515H15.4215C15.0105 6.76515 14.6705 6.69192 14.4015 6.54545C14.1326 6.39899 13.856 6.22475 13.5718 6.02273C13.3232 5.84596 13.039 5.66919 12.7193 5.49242C12.4047 5.31566 12.0368 5.22727 11.6156 5.22727C11.3618 5.22727 11.1284 5.26515 10.9153 5.34091C10.7072 5.41162 10.5094 5.5 10.3217 5.60606L10.999 6.47727C11.0904 6.42677 11.1842 6.38384 11.2806 6.34848C11.3771 6.31313 11.4887 6.29545 11.6156 6.29545C11.8591 6.29545 12.0723 6.34848 12.255 6.45455C12.4427 6.55556 12.6254 6.68434 12.803 6.84091C12.9806 6.99242 13.1811 7.14394 13.4044 7.29545C13.6327 7.44697 13.9067 7.57576 14.2264 7.68182C14.5461 7.78283 14.9445 7.83333 15.4215 7.83333H15.4596C15.6067 7.83333 15.7336 7.78283 15.8402 7.68182C15.9467 7.57576 16 7.4495 16 7.30303C16 7.15152 15.9467 7.02525 15.8402 6.92424C15.7336 6.81818 15.6067 6.76515 15.4596 6.76515ZM5.99053 8.22727H9.99436C10.1568 8.22727 10.2836 8.18434 10.375 8.09849C10.4663 8.00758 10.5144 7.89899 10.5195 7.77273C10.5296 7.64646 10.4891 7.52273 10.3978 7.40152L8.44155 4.84849C8.30454 4.67172 8.15484 4.58333 7.99245 4.58333C7.83514 4.58333 7.68544 4.67172 7.54335 4.84849L5.5871 7.39394C5.49069 7.51515 5.44501 7.64141 5.45009 7.77273C5.46024 7.89899 5.51098 8.00758 5.60233 8.09849C5.69874 8.18434 5.82815 8.22727 5.99053 8.22727ZM7.39111 7.47727V12.9091C7.39111 13.0707 7.44947 13.2096 7.56619 13.3258C7.68798 13.4419 7.83006 13.5 7.99245 13.5C8.15484 13.5 8.29692 13.4419 8.41871 13.3258C8.5405 13.2096 8.6014 13.0707 8.6014 12.9091V7.47727H7.39111Z"
		fill="currentColor"
	/>
</svg>
