<svg
	color="rgb(var(--foreground, 0, 0, 0))"
	viewBox="0 0 16 14"
	fill="none"
	xmlns="http://www.w3.org/2000/svg"
>
	<path
		d="M8 3.10754C8.41611 3.10754 8.76879 3.057 9.05804 2.95594C9.35236 2.84982 9.60609 2.72096 9.81922 2.56935C10.0374 2.4127 10.2353 2.25857 10.4129 2.10697C10.5956 1.95537 10.7808 1.82904 10.9686 1.72797C11.1564 1.62185 11.372 1.56879 11.6156 1.56879C11.8592 1.56879 12.0723 1.62185 12.255 1.72797C12.4428 1.82904 12.6254 1.95537 12.803 2.10697C12.9807 2.25857 13.1811 2.4127 13.4044 2.56935C13.6327 2.72096 13.9068 2.84982 14.2265 2.95594C14.5461 3.057 14.9445 3.10754 15.4215 3.10754H15.4596C15.6067 3.10754 15.7336 3.057 15.8402 2.95594C15.9467 2.84982 16 2.72096 16 2.56935C16 2.42281 15.9467 2.299 15.8402 2.19793C15.7336 2.09181 15.6067 2.03875 15.4596 2.03875H15.4215C15.0105 2.03875 14.6705 1.96548 14.4015 1.81893C14.1326 1.67238 13.856 1.49804 13.5718 1.29591C13.3232 1.11398 13.039 0.937116 12.7193 0.765302C12.4047 0.588434 12.0368 0.5 11.6156 0.5C11.1792 0.5 10.7986 0.593487 10.4738 0.780462C10.1541 0.962383 9.86996 1.14683 9.62131 1.33381C9.35744 1.53089 9.10625 1.69765 8.86774 1.83409C8.62924 1.97053 8.33999 2.03875 8 2.03875C7.66001 2.03875 7.36822 1.97053 7.12464 1.83409C6.88614 1.69765 6.63749 1.53089 6.37869 1.33381C6.13003 1.14683 5.84332 0.962383 5.51855 0.780462C5.19886 0.593487 4.82081 0.5 4.3844 0.5C3.96321 0.5 3.59277 0.588434 3.27307 0.765302C2.95845 0.937116 2.67682 1.11398 2.42816 1.29591C2.13892 1.49804 1.85982 1.67238 1.59087 1.81893C1.32192 1.96548 0.984459 2.03875 0.578497 2.03875H0.540438C0.388202 2.03875 0.258801 2.09181 0.152236 2.19793C0.0507453 2.299 0 2.42281 0 2.56935C0 2.72096 0.0507453 2.84982 0.152236 2.95594C0.258801 3.057 0.388202 3.10754 0.540438 3.10754H0.578497C1.05043 3.10754 1.44624 3.057 1.76594 2.95594C2.09071 2.84982 2.36473 2.72096 2.58801 2.56935C2.81129 2.4127 3.01173 2.25857 3.18934 2.10697C3.36695 1.95537 3.5471 1.82904 3.72978 1.72797C3.91754 1.62185 4.13574 1.56879 4.3844 1.56879C4.62797 1.56879 4.84364 1.62185 5.0314 1.72797C5.21916 1.82904 5.40184 1.95537 5.57945 2.10697C5.76213 2.25857 5.96004 2.4127 6.17317 2.56935C6.39137 2.72096 6.6451 2.84982 6.93435 2.95594C7.22867 3.057 7.58389 3.10754 8 3.10754ZM4.3844 6.29874C4.58738 6.29874 4.76752 6.33664 4.92483 6.41244C5.08214 6.48319 5.23438 6.57667 5.38154 6.6929C5.5287 6.80408 5.68094 6.92283 5.83825 7.04916C5.99556 7.17045 6.17063 7.28415 6.36346 7.39027V6.81418C6.36346 6.6828 6.36346 6.55141 6.36346 6.42002C6.36346 6.28863 6.36346 6.15725 6.36346 6.02586C6.28735 5.99554 6.2163 5.95764 6.15033 5.91216C6.08944 5.86162 6.02347 5.81362 5.95243 5.76814C5.7393 5.62664 5.50333 5.50283 5.24453 5.39671C4.9908 5.28554 4.70409 5.22995 4.3844 5.22995C3.96321 5.22995 3.59277 5.31839 3.27307 5.49525C2.95845 5.67212 2.67682 5.84899 2.42816 6.02586C2.13892 6.22799 1.85982 6.40233 1.59087 6.54888C1.32192 6.69543 0.984459 6.7687 0.578497 6.7687H0.540438C0.388202 6.7687 0.258801 6.82176 0.152236 6.92788C0.0507453 7.02895 0 7.15529 0 7.30689C0 7.45343 0.0507453 7.57977 0.152236 7.68589C0.258801 7.78696 0.388202 7.83749 0.540438 7.83749H0.578497C1.05043 7.83749 1.44624 7.78696 1.76594 7.68589C2.09071 7.57977 2.36473 7.45091 2.58801 7.29931C2.81129 7.14771 3.01173 6.9961 3.18934 6.8445C3.36695 6.68785 3.5471 6.55899 3.72978 6.45792C3.91754 6.3518 4.13574 6.29874 4.3844 6.29874ZM11.6156 6.29874C11.8592 6.29874 12.0723 6.3518 12.255 6.45792C12.4428 6.55899 12.6254 6.68785 12.803 6.8445C12.9807 6.9961 13.1811 7.14771 13.4044 7.29931C13.6327 7.45091 13.9068 7.57977 14.2265 7.68589C14.5461 7.78696 14.9445 7.83749 15.4215 7.83749H15.4596C15.6067 7.83749 15.7336 7.78696 15.8402 7.68589C15.9467 7.57977 16 7.45343 16 7.30689C16 7.15529 15.9467 7.02895 15.8402 6.92788C15.7336 6.82176 15.6067 6.7687 15.4596 6.7687H15.4215C15.0105 6.7687 14.6705 6.69543 14.4015 6.54888C14.1326 6.40233 13.856 6.22799 13.5718 6.02586C13.3232 5.84899 13.039 5.67212 12.7193 5.49525C12.4047 5.31839 12.0368 5.22995 11.6156 5.22995C11.2908 5.22995 11.0016 5.28554 10.7479 5.39671C10.4941 5.50283 10.2607 5.62664 10.0476 5.76814C9.97653 5.81362 9.90802 5.86162 9.84206 5.91216C9.77609 5.95764 9.70758 5.99554 9.63654 6.02586C9.63654 6.15725 9.63654 6.28863 9.63654 6.42002C9.63654 6.55141 9.63654 6.6828 9.63654 6.81418V7.39027C9.82937 7.28415 10.0044 7.16792 10.1618 7.04158C10.3191 6.91525 10.4688 6.7965 10.6108 6.68532C10.758 6.57415 10.9102 6.48319 11.0676 6.41244C11.2299 6.33664 11.4126 6.29874 11.6156 6.29874ZM5.99049 9.86136C5.8281 9.86136 5.6987 9.90432 5.60228 9.99023C5.51094 10.0761 5.4602 10.1848 5.45005 10.3162C5.44497 10.4425 5.49064 10.5663 5.58706 10.6876L7.54329 13.2421C7.68538 13.4189 7.83508 13.5048 7.99239 13.4998C8.15477 13.4998 8.30447 13.4139 8.44148 13.2421L10.3977 10.68C10.4891 10.5638 10.5297 10.4425 10.5195 10.3162C10.5144 10.1848 10.4662 10.0761 10.3749 9.99023C10.2835 9.90432 10.1567 9.86136 9.99429 9.86136H5.99049ZM7.39106 10.6042H8.60133V5.16931C8.60133 5.01266 8.54044 4.87622 8.41865 4.75999C8.29686 4.64376 8.15477 4.58565 7.99239 4.58565C7.83 4.58565 7.68792 4.64376 7.56613 4.75999C7.44941 4.87622 7.39106 5.01266 7.39106 5.16931V10.6042Z"
		fill="currentColor"
	/>
</svg>
