<svg
	color="rgb(var(--foreground, 0, 0, 0))"
	viewBox="0 0 11 16"
	fill="none"
	xmlns="http://www.w3.org/2000/svg"
>
	<path
		d="M5.5 16C6.60053 16 7.56349 15.7761 8.38889 15.3284C9.21429 14.8859 9.8545 14.2644 10.3095 13.4637C10.7698 12.6578 11 11.7202 11 10.6509C11 10.1241 10.9418 9.60527 10.8254 9.09432C10.709 8.58337 10.5661 8.1014 10.3968 7.64839C10.2275 7.19539 10.0661 6.79506 9.9127 6.44741C9.63228 5.81004 9.29365 5.15951 8.89683 4.4958C8.5 3.82683 8.08201 3.16049 7.64286 2.49679C7.209 1.83309 6.78571 1.18519 6.37302 0.553086C6.25132 0.373992 6.1164 0.237037 5.96825 0.142222C5.82011 0.0474074 5.66402 0 5.5 0C5.34127 0 5.18519 0.0474074 5.03175 0.142222C4.8836 0.237037 4.74868 0.373992 4.62698 0.553086C4.21958 1.18519 3.7963 1.83309 3.35714 2.49679C2.91799 3.16049 2.5 3.82683 2.10317 4.4958C1.71164 5.15951 1.37302 5.81004 1.0873 6.44741C0.933863 6.79506 0.772487 7.19539 0.603175 7.64839C0.433862 8.1014 0.291005 8.58337 0.174603 9.09432C0.0582011 9.60527 0 10.1241 0 10.6509C0 11.7202 0.227513 12.6578 0.68254 13.4637C1.14286 14.2644 1.78571 14.8859 2.61111 15.3284C3.43651 15.7761 4.39947 16 5.5 16Z"
		fill="currentColor"
	/>
</svg>
