<svg
	color="rgb(var(--foreground, 0, 0, 0))"
	viewBox="0 0 16 16"
	fill="none"
	xmlns="http://www.w3.org/2000/svg"
>
	<path
		d="M16 3.62565C16 3.4757 15.9467 3.34902 15.8402 3.24561C15.7336 3.13702 15.6067 3.08273 15.4596 3.08273H15.4215C15.0105 3.08273 14.6705 3.00776 14.4015 2.85781C14.1326 2.70786 13.856 2.52947 13.5718 2.32265C13.3232 2.1365 13.039 1.95553 12.7193 1.77973C12.4047 1.59876 12.0368 1.50827 11.6156 1.50827C11.1792 1.50827 10.7986 1.60393 10.4738 1.79524C10.1541 1.98139 9.86996 2.17011 9.62131 2.36143C9.35744 2.56308 9.10625 2.73371 8.86774 2.87332C8.62924 3.01293 8.33999 3.08273 8 3.08273C7.66001 3.08273 7.36822 3.01293 7.12464 2.87332C6.88614 2.73371 6.63749 2.56308 6.37869 2.36143C6.13003 2.17011 5.84332 1.98139 5.51855 1.79524C5.19886 1.60393 4.82081 1.50827 4.3844 1.50827C4.16619 1.50827 3.96067 1.53671 3.76784 1.59359L5.03901 2.88108C5.05931 2.89142 5.08214 2.90434 5.10752 2.91986C5.13289 2.93537 5.15826 2.94829 5.18363 2.95864C5.33587 3.03102 5.48303 3.11892 5.62512 3.22234C5.77228 3.32575 5.92452 3.43433 6.08183 3.54809C6.23914 3.65667 6.40913 3.76008 6.59182 3.85832C6.7745 3.9514 6.98002 4.02896 7.20837 4.091C7.43673 4.14788 7.7006 4.17632 8 4.17632C8.41611 4.17632 8.76879 4.12461 9.05804 4.0212C9.35236 3.91262 9.60609 3.78077 9.81922 3.62565C10.0374 3.46536 10.2353 3.30765 10.4129 3.15253C10.5956 2.99741 10.7808 2.86815 10.9686 2.76474C11.1564 2.65615 11.372 2.60186 11.6156 2.60186C11.8592 2.60186 12.0723 2.65615 12.255 2.76474C12.4428 2.86815 12.6254 2.99741 12.803 3.15253C12.9807 3.30765 13.1811 3.46536 13.4044 3.62565C13.6327 3.78077 13.9068 3.91262 14.2265 4.0212C14.5461 4.12461 14.9445 4.17632 15.4215 4.17632H15.4596C15.6067 4.17632 15.7336 4.12461 15.8402 4.0212C15.9467 3.91262 16 3.78077 16 3.62565ZM0 8.47311C0 8.62306 0.0507453 8.75233 0.152236 8.86091C0.258801 8.96432 0.388202 9.01603 0.540438 9.01603H0.578497C1.05043 9.01603 1.44624 8.96432 1.76594 8.86091C2.09071 8.75233 2.36473 8.62048 2.58801 8.46536C2.81129 8.31024 3.01173 8.15512 3.18934 8C3.36695 7.83971 3.5471 7.70786 3.72978 7.60445C3.91754 7.49586 4.13574 7.44157 4.3844 7.44157C4.51633 7.44157 4.63305 7.46226 4.73454 7.50362C4.83603 7.54499 4.93245 7.59411 5.02379 7.65098C5.1202 7.70786 5.21916 7.76474 5.32065 7.82161C5.42214 7.87849 5.53885 7.91986 5.67079 7.94571L4.50618 6.75905C4.45544 6.74354 4.40723 6.72285 4.36156 6.697C4.31589 6.66598 4.27276 6.63495 4.23216 6.60393C4.17634 6.56257 4.11545 6.52379 4.04948 6.48759C3.98858 6.4514 3.91754 6.4333 3.83635 6.4333C3.71963 6.4333 3.57501 6.47466 3.40247 6.55739C3.22994 6.64012 3.05487 6.73837 2.87726 6.85212C2.69965 6.96587 2.54995 7.06929 2.42816 7.16236C2.13892 7.36918 1.85982 7.54757 1.59087 7.69752C1.32192 7.84747 0.984459 7.92244 0.578497 7.92244H0.540438C0.388202 7.92244 0.258801 7.97673 0.152236 8.08532C0.0507453 8.18873 0 8.31799 0 8.47311ZM16 8.47311C16 8.31799 15.9467 8.18873 15.8402 8.08532C15.7336 7.97673 15.6067 7.92244 15.4596 7.92244H15.4215C15.0105 7.92244 14.6705 7.84747 14.4015 7.69752C14.1326 7.54757 13.856 7.36918 13.5718 7.16236C13.3232 6.98139 13.039 6.80041 12.7193 6.61944C12.4047 6.43847 12.0368 6.34798 11.6156 6.34798C11.1792 6.34798 10.7986 6.44364 10.4738 6.63495C10.1541 6.82627 9.86996 7.015 9.62131 7.20114C9.58579 7.22699 9.55027 7.25284 9.51475 7.2787C9.4843 7.30455 9.45385 7.32782 9.42341 7.3485L10.215 8.16288C10.3673 8.03878 10.5119 7.92244 10.6489 7.81386C10.791 7.70527 10.9382 7.61737 11.0904 7.55016C11.2426 7.47777 11.4177 7.44157 11.6156 7.44157C11.8592 7.44157 12.0723 7.49586 12.255 7.60445C12.4428 7.70786 12.6254 7.83971 12.803 8C12.9807 8.15512 13.1811 8.31024 13.4044 8.46536C13.6327 8.62048 13.9068 8.75233 14.2265 8.86091C14.5461 8.96432 14.9445 9.01603 15.4215 9.01603H15.4596C15.6067 9.01603 15.7336 8.96432 15.8402 8.86091C15.9467 8.75233 16 8.62306 16 8.47311ZM0 13.3128C0 13.4628 0.0507453 13.592 0.152236 13.7006C0.258801 13.8092 0.388202 13.8635 0.540438 13.8635H0.578497C1.05043 13.8635 1.44624 13.8092 1.76594 13.7006C2.09071 13.5972 2.36473 13.4654 2.58801 13.3051C2.81129 13.1499 3.01173 12.9948 3.18934 12.8397C3.36695 12.6846 3.5471 12.5553 3.72978 12.4519C3.91754 12.3433 4.13574 12.289 4.3844 12.289C4.62797 12.289 4.84364 12.3433 5.0314 12.4519C5.21916 12.5553 5.40184 12.6846 5.57945 12.8397C5.76213 12.9948 5.96004 13.1499 6.17317 13.3051C6.39137 13.4654 6.6451 13.5972 6.93435 13.7006C7.22867 13.8092 7.58389 13.8635 8 13.8635C8.32984 13.8635 8.61909 13.8273 8.86774 13.7549C9.1164 13.6825 9.33714 13.5895 9.52997 13.4757C9.72788 13.3619 9.90802 13.2404 10.0704 13.1112C10.2328 12.9819 10.3926 12.863 10.55 12.7544L9.75833 11.9478C9.57057 12.0822 9.38788 12.2141 9.21028 12.3433C9.03774 12.4674 8.85506 12.5708 8.66223 12.6536C8.46939 12.7311 8.24865 12.7699 8 12.7699C7.66001 12.7699 7.36822 12.7001 7.12464 12.5605C6.88614 12.4209 6.63749 12.2477 6.37869 12.0408C6.13003 11.8547 5.84332 11.6686 5.51855 11.4824C5.19886 11.2911 4.82081 11.1955 4.3844 11.1955C3.96321 11.1955 3.59277 11.2859 3.27307 11.4669C2.95845 11.6427 2.67682 11.8237 2.42816 12.0098C2.13892 12.2166 1.85982 12.395 1.59087 12.545C1.32192 12.6949 0.984459 12.7699 0.578497 12.7699H0.540438C0.388202 12.7699 0.258801 12.8242 0.152236 12.9328C0.0507453 13.0362 0 13.1629 0 13.3128ZM14.333 15.3294C14.4497 15.4431 14.5893 15.5 14.7517 15.5C14.9141 15.5 15.0511 15.4431 15.1627 15.3294C15.2743 15.2104 15.3302 15.0683 15.3302 14.9028C15.3352 14.7373 15.2794 14.5977 15.1627 14.484L1.6137 0.670631C1.49699 0.556877 1.35744 0.5 1.19505 0.5C1.03267 0.5 0.893118 0.556877 0.776403 0.670631C0.664764 0.784385 0.608944 0.926577 0.608944 1.09721C0.608944 1.26784 0.664764 1.40745 0.776403 1.51603L14.333 15.3294Z"
		fill="currentColor"
	/>
</svg>
