<svg
	color="rgb(var(--foreground, 0, 0, 0))"
	viewBox="0 0 14 16"
	fill="none"
	xmlns="http://www.w3.org/2000/svg"
>
	<path
		d="M3.7205 3.29481L4.6827 4.24296C4.96067 3.79523 5.24399 3.35276 5.53265 2.91556C5.82131 2.47835 6.10997 2.04642 6.39863 1.61975C6.42535 1.57761 6.45208 1.55654 6.47881 1.55654C6.51088 1.55654 6.54028 1.57761 6.56701 1.61975C7.12295 2.45202 7.68156 3.30798 8.24284 4.18765C8.80947 5.06732 9.31462 6.02601 9.7583 7.0637C9.88125 7.34288 10.0122 7.65893 10.1512 8.01185C10.2902 8.35951 10.4051 8.69399 10.496 9.01531C10.5922 9.33663 10.6403 9.59737 10.6403 9.79753C10.6403 9.85547 10.6376 9.90551 10.6323 9.94765C10.6323 9.98979 10.627 10.0346 10.6163 10.082L11.9714 11.4173C11.9927 11.2961 12.0088 11.1723 12.0195 11.0459C12.0302 10.9195 12.0355 10.7878 12.0355 10.6509C12.0355 10.1241 11.9767 9.60527 11.8591 9.09432C11.7415 8.58337 11.5972 8.1014 11.4261 7.64839C11.2551 7.19539 11.092 6.79506 10.937 6.44741C10.5094 5.49399 9.98549 4.51424 9.36541 3.50815C8.75067 2.50206 8.14929 1.55391 7.56128 0.663704C7.41695 0.453004 7.25926 0.289712 7.0882 0.173827C6.91714 0.0579424 6.71401 0 6.47881 0C6.23826 0 6.03246 0.0579424 5.8614 0.173827C5.69034 0.289712 5.53532 0.453004 5.39633 0.663704C5.11837 1.07984 4.83772 1.51177 4.55441 1.95951C4.27644 2.40198 3.99847 2.84708 3.7205 3.29481ZM6.47881 16C7.34479 16 8.12791 15.8604 8.82818 15.5812C9.53379 15.3021 10.1298 14.9123 10.6163 14.4119L9.66209 13.4795C9.29324 13.8693 8.8362 14.1695 8.29095 14.3802C7.75105 14.5962 7.147 14.7042 6.47881 14.7042C5.62887 14.7042 4.88583 14.5356 4.24971 14.1985C3.61359 13.8614 3.11646 13.39 2.7583 12.7842C2.4055 12.1732 2.2291 11.4621 2.2291 10.6509C2.2291 10.0188 2.32799 9.40247 2.52577 8.80198C2.7289 8.19621 2.9454 7.62733 3.17526 7.09531L2.17297 6.10765C1.86292 6.80296 1.57694 7.53778 1.31501 8.3121C1.05307 9.08115 0.922108 9.86074 0.922108 10.6509C0.922108 11.7202 1.15197 12.6578 1.61168 13.4637C2.07675 14.2644 2.72623 14.8859 3.56014 15.3284C4.39404 15.7761 5.36693 16 6.47881 16ZM12.9416 15.4074C13.0645 15.5233 13.2115 15.5812 13.3826 15.5812C13.5536 15.5812 13.698 15.5233 13.8156 15.4074C13.9385 15.2863 14 15.1414 14 14.9728C14 14.8043 13.9385 14.6621 13.8156 14.5462L1.05842 1.97531C0.940817 1.85942 0.793814 1.80148 0.617411 1.80148C0.446354 1.80148 0.299351 1.85942 0.176403 1.97531C0.0588011 2.09119 0 2.23605 0 2.40988C0 2.57844 0.0588011 2.72066 0.176403 2.83654L12.9416 15.4074Z"
		fill="currentColor"
	/>
</svg>
