<svg
	color="rgb(var(--foreground, 0, 0, 0))"
	viewBox="0 0 13 18"
	fill="none"
	xmlns="http://www.w3.org/2000/svg"
>
	<path
		d="M5.26842 17.5C6.32261 17.5 7.24503 17.2881 8.03567 16.8643C8.82632 16.4454 9.43957 15.8571 9.87544 15.0992C10.3164 14.3363 10.5368 13.4488 10.5368 12.4366C10.5368 11.938 10.4811 11.4469 10.3696 10.9633C10.2581 10.4796 10.1212 10.0234 9.95906 9.59459C9.79688 9.16579 9.6423 8.78684 9.49532 8.45777C9.08986 7.55529 8.59318 6.62788 8.00526 5.67554C7.42242 4.7232 6.85224 3.82571 6.29474 2.98306C6.15789 2.78362 6.00838 2.62905 5.8462 2.51936C5.68402 2.40966 5.49142 2.35482 5.26842 2.35482C5.04035 2.35482 4.84522 2.40966 4.68304 2.51936C4.52086 2.62905 4.37388 2.78362 4.24211 2.98306C3.6846 3.82571 3.11189 4.7232 2.52398 5.67554C1.94113 6.62788 1.44698 7.55529 1.04152 8.45777C0.894542 8.78684 0.739961 9.16579 0.577778 9.59459C0.415595 10.0234 0.278752 10.4796 0.167251 10.9633C0.0557505 11.4469 0 11.938 0 12.4366C0 13.4488 0.217934 14.3363 0.653801 15.0992C1.09474 15.8571 1.71053 16.4454 2.50117 16.8643C3.29181 17.2881 4.21423 17.5 5.26842 17.5ZM10.6737 5.06973C11.1096 5.06973 11.5023 4.97001 11.852 4.77057C12.2068 4.56614 12.4856 4.2919 12.6883 3.94787C12.8961 3.59884 13 3.21242 13 2.78861C13 2.3598 12.8961 1.97338 12.6883 1.62934C12.4856 1.28032 12.2068 1.00609 11.852 0.806643C11.5023 0.602214 11.1096 0.5 10.6737 0.5C10.2429 0.5 9.8501 0.602214 9.49532 0.806643C9.14561 1.00609 8.86686 1.28032 8.65906 1.62934C8.45634 1.97338 8.35497 2.3598 8.35497 2.78861C8.35497 3.21242 8.45634 3.59884 8.65906 3.94787C8.86686 4.2919 9.14561 4.56614 9.49532 4.77057C9.8501 4.97001 10.2429 5.06973 10.6737 5.06973ZM10.6737 4.01518C10.324 4.01518 10.0275 3.89801 9.78421 3.66366C9.546 3.42433 9.4269 3.13264 9.4269 2.78861C9.4269 2.43958 9.546 2.1479 9.78421 1.91355C10.0275 1.67422 10.324 1.55455 10.6737 1.55455C11.0285 1.55455 11.325 1.67422 11.5632 1.91355C11.8064 2.1479 11.9281 2.43958 11.9281 2.78861C11.9281 3.13264 11.8064 3.42433 11.5632 3.66366C11.325 3.89801 11.0285 4.01518 10.6737 4.01518Z"
		fill="currentColor"
	/>
</svg>
