<svg
	color="rgb(var(--foreground, 0, 0, 0))"
	viewBox="0 0 14 16"
	fill="none"
	xmlns="http://www.w3.org/2000/svg"
>
	<path
		d="M3.7205 3.29481L11.9714 11.4173C11.9927 11.2961 12.0088 11.1723 12.0195 11.0459C12.0302 10.9195 12.0355 10.7878 12.0355 10.6509C12.0355 10.1241 11.9767 9.60527 11.8591 9.09432C11.7415 8.58337 11.5972 8.1014 11.4261 7.64839C11.2551 7.19539 11.092 6.79506 10.937 6.44741C10.5094 5.49399 9.98549 4.51424 9.36541 3.50815C8.75067 2.50206 8.14929 1.55391 7.56128 0.663704C7.41695 0.453004 7.25926 0.289712 7.0882 0.173827C6.91714 0.0579424 6.71401 0 6.47881 0C6.23826 0 6.03246 0.0579424 5.8614 0.173827C5.69034 0.289712 5.53532 0.453004 5.39633 0.663704C5.11837 1.07984 4.83772 1.51177 4.55441 1.95951C4.27644 2.40198 3.99847 2.84708 3.7205 3.29481ZM6.47881 16C7.34479 16 8.12791 15.8604 8.82818 15.5812C9.53379 15.3021 10.1298 14.9123 10.6163 14.4119L2.17297 6.10765C1.86292 6.80296 1.57694 7.53778 1.31501 8.3121C1.05307 9.08115 0.922108 9.86074 0.922108 10.6509C0.922108 11.7202 1.15197 12.6578 1.61168 13.4637C2.07675 14.2644 2.72623 14.8859 3.56014 15.3284C4.39404 15.7761 5.36693 16 6.47881 16ZM12.9416 15.4074C13.0645 15.5233 13.2115 15.5812 13.3826 15.5812C13.5536 15.5812 13.698 15.5233 13.8156 15.4074C13.9385 15.2863 14 15.1414 14 14.9728C14 14.8043 13.9385 14.6621 13.8156 14.5462L1.05842 1.97531C0.940817 1.85942 0.793814 1.80148 0.617411 1.80148C0.446354 1.80148 0.299351 1.85942 0.176403 1.97531C0.0588011 2.09119 0 2.23605 0 2.40988C0 2.57844 0.0588011 2.72066 0.176403 2.83654L12.9416 15.4074Z"
		fill="currentColor"
	/>
</svg>
