<svg
	color="rgb(var(--foreground, 0, 0, 0))"
	viewBox="0 0 11 16"
	fill="none"
	xmlns="http://www.w3.org/2000/svg"
>
	<path
		d="M5.5 16C6.60053 16 7.56349 15.7761 8.38889 15.3284C9.21429 14.8859 9.8545 14.2644 10.3095 13.4637C10.7698 12.6578 11 11.7202 11 10.6509C11 10.1241 10.9418 9.60527 10.8254 9.09432C10.709 8.58337 10.5661 8.1014 10.3968 7.64839C10.2275 7.19539 10.0661 6.79506 9.9127 6.44741C9.48942 5.49399 8.9709 4.51424 8.35714 3.50815C7.74868 2.50206 7.15344 1.55391 6.57143 0.663704C6.43386 0.453004 6.27778 0.289712 6.10318 0.173827C5.93386 0.0579424 5.7328 0 5.5 0C5.2672 0 5.06614 0.0579424 4.89683 0.173827C4.72751 0.289712 4.57143 0.453004 4.42857 0.663704C3.85185 1.55391 3.25661 2.50206 2.64286 3.50815C2.0291 4.51424 1.51058 5.49399 1.0873 6.44741C0.933863 6.79506 0.772487 7.19539 0.603175 7.64839C0.433862 8.1014 0.291005 8.58337 0.174603 9.09432C0.0582011 9.60527 0 10.1241 0 10.6509C0 11.7202 0.227513 12.6578 0.68254 13.4637C1.14286 14.2644 1.78571 14.8859 2.61111 15.3284C3.43651 15.7761 4.39947 16 5.5 16ZM5.5 14.7042C4.65873 14.7042 3.92328 14.5356 3.29365 14.1985C2.66402 13.8614 2.1746 13.39 1.8254 12.7842C1.47619 12.1732 1.30159 11.4621 1.30159 10.6509C1.30159 10.003 1.40212 9.3735 1.60317 8.76247C1.80952 8.14617 2.02381 7.58255 2.24603 7.0716C2.69048 6.03391 3.19048 5.07523 3.74603 4.19556C4.30688 3.31062 4.86508 2.45202 5.42064 1.61975C5.44709 1.57761 5.47619 1.55654 5.50794 1.55654C5.53968 1.55654 5.56614 1.57761 5.5873 1.61975C6.13757 2.45202 6.69312 3.30798 7.25397 4.18765C7.81482 5.06732 8.31217 6.02601 8.74603 7.0637C8.96825 7.57992 9.18254 8.14617 9.38889 8.76247C9.60053 9.3735 9.70635 10.003 9.70635 10.6509C9.70635 11.4621 9.5291 12.1732 9.1746 12.7842C8.8254 13.39 8.33598 13.8614 7.70635 14.1985C7.07672 14.5356 6.34127 14.7042 5.5 14.7042Z"
		fill="currentColor"
	/>
</svg>
