<svg
	color="rgb(var(--foreground, 0, 0, 0))"
	viewBox="0 0 16 16"
	fill="none"
	xmlns="http://www.w3.org/2000/svg"
>
	<path
		d="M8.31373 13.9294C8.51242 13.9294 8.76863 13.8039 9.08235 13.5529C9.39608 13.2967 9.72288 12.9699 10.0627 12.5725C10.4078 12.1752 10.732 11.749 11.0353 11.2941C11.3386 10.8392 11.5843 10.4052 11.7725 9.99216C11.966 9.57909 12.0627 9.23922 12.0627 8.97255C12.0627 8.77909 11.9712 8.55686 11.7882 8.30588C11.6105 8.04967 11.383 7.80131 11.1059 7.56078C10.8288 7.32026 10.5438 7.12157 10.251 6.96471C9.95817 6.80784 9.70196 6.72941 9.48235 6.72941C9.35163 6.72941 9.20261 6.77647 9.03529 6.87059C8.86797 6.95948 8.69543 7.05098 8.51765 7.1451C8.3451 7.23399 8.18301 7.27843 8.03137 7.27843C7.92157 7.27843 7.78562 7.23399 7.62353 7.1451C7.46144 7.05098 7.29935 6.93595 7.13726 6.8C6.98039 6.65882 6.84706 6.51765 6.73726 6.37647C6.63268 6.23007 6.58039 6.1098 6.58039 6.01569C6.58039 5.90588 6.61961 5.82222 6.69804 5.76471C6.7817 5.70196 6.87843 5.67059 6.98824 5.67059C7.11373 5.67059 7.26275 5.72549 7.43529 5.83529C7.60784 5.93987 7.79085 6.04706 7.98431 6.15686C8.18301 6.26144 8.38431 6.31373 8.58824 6.31373C8.84445 6.31373 9.03791 6.23268 9.16863 6.07059C9.30458 5.9085 9.37255 5.70196 9.37255 5.45098C9.37255 5.32026 9.33856 5.18431 9.27059 5.04314C9.20261 4.90196 9.11373 4.7451 9.00392 4.57255C9.20784 4.4732 9.44837 4.34771 9.72549 4.19608C10.0078 4.04444 10.2954 3.86928 10.5882 3.67059C10.881 3.4719 11.1477 3.2549 11.3882 3.01961C11.634 2.77909 11.8222 2.52288 11.9529 2.25098C11.6601 1.79608 11.1529 1.43268 10.4314 1.16078C9.7098 0.88366 8.89412 0.745098 7.98431 0.745098C7.31503 0.745098 6.65882 0.833987 6.01569 1.01176C5.37778 1.18954 4.79739 1.43007 4.27451 1.73333C3.75163 2.03137 3.32288 2.36601 2.98824 2.73726C2.65882 3.10327 2.46536 3.47974 2.40784 3.86667C2.36078 4.27974 2.48366 4.71111 2.77647 5.16078C3.07451 5.61046 3.49804 6.0732 4.04706 6.54902L5.19216 7.5451C5.37516 7.70719 5.51634 7.83529 5.61569 7.92941C5.71503 8.02353 5.76471 8.12026 5.76471 8.21961C5.76471 8.32941 5.73333 8.43399 5.67059 8.53333C5.60784 8.63268 5.5451 8.73726 5.48235 8.84706C5.41961 8.95163 5.38824 9.07712 5.38824 9.22353C5.38824 9.61569 5.58693 9.95817 5.98431 10.251C6.40784 10.5699 6.73203 10.8105 6.95686 10.9725C7.18693 11.1346 7.34379 11.2627 7.42745 11.3569C7.51634 11.4458 7.56078 11.5373 7.56078 11.6314C7.56601 11.8928 7.51634 12.1307 7.41177 12.3451C7.31242 12.5542 7.26275 12.7791 7.26275 13.0196C7.26275 13.234 7.37516 13.4405 7.6 13.6392C7.83007 13.8327 8.06797 13.9294 8.31373 13.9294ZM8 16C9.09281 16 10.1203 15.7909 11.0824 15.3726C12.0497 14.9542 12.902 14.3765 13.6392 13.6392C14.3765 12.902 14.9542 12.0523 15.3726 11.0902C15.7909 10.1229 16 9.09281 16 8C16 6.90719 15.7909 5.87974 15.3726 4.91765C14.9542 3.95033 14.3765 3.09804 13.6392 2.36078C12.902 1.62353 12.0497 1.04575 11.0824 0.627451C10.115 0.20915 9.08497 0 7.99216 0C6.89935 0 5.86928 0.20915 4.90196 0.627451C3.93987 1.04575 3.0902 1.62353 2.35294 2.36078C1.62092 3.09804 1.04575 3.95033 0.627451 4.91765C0.20915 5.87974 0 6.90719 0 8C0 9.09281 0.20915 10.1229 0.627451 11.0902C1.04575 12.0523 1.62353 12.902 2.36078 13.6392C3.09804 14.3765 3.94771 14.9542 4.9098 15.3726C5.87712 15.7909 6.90719 16 8 16ZM8 14.9333C7.0536 14.9333 6.16209 14.7503 5.32549 14.3843C4.48889 14.0235 3.75163 13.5242 3.11373 12.8863C2.47582 12.2484 1.97386 11.5111 1.60784 10.6745C1.24706 9.83791 1.06667 8.94641 1.06667 8C1.06667 7.0536 1.24706 6.16209 1.60784 5.32549C1.97386 4.48889 2.4732 3.75163 3.10588 3.11373C3.74379 2.47582 4.48105 1.97647 5.31765 1.61569C6.15425 1.24967 7.04575 1.06667 7.99216 1.06667C8.93856 1.06667 9.83007 1.24967 10.6667 1.61569C11.5033 1.97647 12.2405 2.47582 12.8784 3.11373C13.5216 3.75163 14.0235 4.48889 14.3843 5.32549C14.7503 6.16209 14.9333 7.0536 14.9333 8C14.9333 8.94641 14.7503 9.83791 14.3843 10.6745C14.0235 11.5111 13.5242 12.2484 12.8863 12.8863C12.2484 13.5242 11.5111 14.0235 10.6745 14.3843C9.83791 14.7503 8.94641 14.9333 8 14.9333Z"
		fill="currentColor"
	/>
</svg>
