<svg
	color="rgb(var(--foreground, 0, 0, 0))"
	viewBox="0 0 16 16"
	fill="none"
	xmlns="http://www.w3.org/2000/svg"
>
	<path
		d="M8.32941 14.0314C8.70065 14.0314 9.0536 13.9137 9.38824 13.6784C9.72288 13.4431 10.0261 13.1608 10.298 12.8314C10.5699 12.4967 10.8 12.1778 10.9882 11.8745C11.1817 11.5712 11.3176 11.3542 11.3961 11.2235C11.6 10.8889 11.6863 10.5673 11.6549 10.2588C11.6288 9.9451 11.6157 9.6915 11.6157 9.49804C11.6157 9.41961 11.6837 9.30196 11.8196 9.1451C11.9608 8.98824 12.0993 8.80784 12.2353 8.60392C12.3765 8.39477 12.4471 8.17255 12.4471 7.93726C12.4471 7.75425 12.366 7.5817 12.2039 7.41961C12.0418 7.25752 11.8536 7.1085 11.6392 6.97255C11.4301 6.83137 11.2444 6.7085 11.0824 6.60392C10.9203 6.49412 10.8392 6.40261 10.8392 6.32941C10.8392 6.23529 10.8706 6.14379 10.9333 6.0549C11.0013 5.96078 11.0745 5.91373 11.1529 5.91373C11.2314 5.91373 11.3359 5.96863 11.4667 6.07843C11.6026 6.18824 11.749 6.31634 11.9059 6.46275C12.068 6.60392 12.2275 6.72941 12.3843 6.83922C12.5464 6.94902 12.6928 7.00392 12.8235 7.00392C12.9281 7.00392 13.0118 6.98301 13.0745 6.94118C13.1373 6.89412 13.1895 6.84706 13.2314 6.8C13.2732 6.75294 13.315 6.72941 13.3569 6.72941C13.3987 6.72941 13.4405 6.81046 13.4824 6.97255C13.5294 7.13464 13.5843 7.33856 13.6471 7.58431C13.715 7.82484 13.7987 8.07843 13.898 8.3451C13.9974 8.60654 14.1203 8.84706 14.2667 9.06667C14.4131 9.28105 14.5961 9.43791 14.8157 9.53726L15.1451 8.81569C14.9464 8.7634 14.7922 8.63007 14.6824 8.41569C14.5778 8.20131 14.4915 7.95294 14.4235 7.67059C14.3556 7.38301 14.2876 7.10327 14.2196 6.83137C14.1516 6.55425 14.0575 6.3268 13.9373 6.14902C13.8222 5.96601 13.6575 5.87451 13.4431 5.87451C13.2706 5.87451 13.1294 5.9268 13.0196 6.03137C12.9098 6.13072 12.8209 6.18039 12.7529 6.18039C12.7268 6.18039 12.6824 6.16209 12.6196 6.12549C12.5621 6.08366 12.481 6.02353 12.3765 5.9451C12.2771 5.86144 12.1516 5.75686 12 5.63137C11.8902 5.53726 11.7673 5.44314 11.6314 5.34902C11.5007 5.2549 11.3281 5.20784 11.1137 5.20784C10.8523 5.20784 10.617 5.3281 10.4078 5.56863C10.1987 5.80915 10.0941 6.06536 10.0941 6.33726C10.0941 6.55163 10.1725 6.74248 10.3294 6.9098C10.4863 7.0719 10.6667 7.2183 10.8706 7.34902C11.0797 7.47451 11.2627 7.58693 11.4196 7.68628C11.5765 7.78039 11.6549 7.86405 11.6549 7.93726C11.6549 8.02614 11.6288 8.11503 11.5765 8.20392C11.5294 8.29281 11.4353 8.42092 11.2941 8.58824C11.132 8.76601 11.0118 8.92549 10.9333 9.06667C10.8601 9.20261 10.8235 9.34641 10.8235 9.49804C10.8235 9.56601 10.8261 9.63137 10.8314 9.69412C10.8366 9.75686 10.8418 9.81699 10.8471 9.87451C10.868 10.1359 10.868 10.332 10.8471 10.4627C10.8314 10.5935 10.7869 10.7216 10.7137 10.8471C10.6248 10.9882 10.4967 11.1895 10.3294 11.451C10.1673 11.7124 9.97647 11.9817 9.75686 12.2588C9.54248 12.5307 9.31242 12.7634 9.06667 12.9569C8.82614 13.1451 8.58039 13.2392 8.32941 13.2392C8.10458 13.2392 7.93464 13.1686 7.81961 13.0275C7.7098 12.8863 7.63399 12.698 7.59216 12.4627C7.55033 12.2222 7.5268 11.9582 7.52157 11.6706C7.52157 11.3778 7.52157 11.085 7.52157 10.7922C7.52157 10.217 7.31765 9.73856 6.9098 9.35686C6.50719 8.97516 6.00523 8.78431 5.40392 8.78431C4.48366 8.78431 4.02353 8.33987 4.02353 7.45098C4.02353 7.04314 4.14641 6.68758 4.39216 6.38431C4.64314 6.08105 4.95948 5.84575 5.34118 5.67843C5.72811 5.51111 6.12549 5.42745 6.53333 5.42745C6.81046 5.42745 7.06928 5.46405 7.3098 5.53726C7.55033 5.60523 7.78039 5.6732 8 5.74118C8.21961 5.80915 8.4366 5.84314 8.65098 5.84314C8.82353 5.84314 8.97778 5.76994 9.11373 5.62353C9.24967 5.47712 9.35425 5.29935 9.42745 5.0902C9.50588 4.87582 9.5451 4.6719 9.5451 4.47843C9.5451 4.29542 9.46405 4.11503 9.30196 3.93726C9.13987 3.75425 8.94118 3.58693 8.70588 3.43529C8.47582 3.28366 8.25098 3.1634 8.03137 3.07451C7.81177 2.98562 7.64444 2.94118 7.52941 2.94118C7.33595 2.94118 7.19477 3.00131 7.10588 3.12157C7.01699 3.2366 6.96471 3.41699 6.94902 3.66275L7.10588 3.64706L6.8549 3.45098C6.69281 3.33072 6.54118 3.2366 6.4 3.16863C6.26405 3.10065 6.12026 3.06667 5.96863 3.06667C5.78039 3.06667 5.63137 3.11895 5.52157 3.22353C5.41177 3.32288 5.32026 3.44052 5.24706 3.57647C5.17386 3.70719 5.10327 3.82484 5.03529 3.92941C4.96732 4.02876 4.88366 4.07843 4.78431 4.07843C4.66928 4.07843 4.61176 4.0183 4.61176 3.89804C4.61176 3.78301 4.68235 3.62876 4.82353 3.43529C4.96471 3.24183 5.10588 3.01438 5.24706 2.75294C5.38824 2.4915 5.45882 2.19869 5.45882 1.87451L5.46667 1.23922H4.72157V1.9451C4.72157 2.25882 4.65098 2.52026 4.5098 2.72941C4.37386 2.93856 4.23529 3.13726 4.09412 3.32549C3.95294 3.5085 3.88235 3.72549 3.88235 3.97647C3.88235 4.20131 3.95556 4.38431 4.10196 4.52549C4.24837 4.66144 4.44706 4.72941 4.69804 4.72941C4.9281 4.72941 5.11111 4.67974 5.24706 4.58039C5.38301 4.48105 5.4902 4.36601 5.56863 4.23529C5.64706 4.10458 5.71765 3.98954 5.78039 3.8902C5.84837 3.79085 5.92941 3.74118 6.02353 3.74118C6.12288 3.74118 6.23007 3.78562 6.3451 3.87451C6.46013 3.9634 6.59085 4.05229 6.73726 4.14118C6.88889 4.22484 7.06405 4.26667 7.26275 4.26667C7.44052 4.26667 7.57386 4.20654 7.66275 4.08627C7.75163 3.96601 7.79085 3.79608 7.78039 3.57647L7.56078 3.64706C7.68105 3.68889 7.81177 3.74379 7.95294 3.81176C8.09412 3.87451 8.22745 3.94771 8.35294 4.03137C8.48366 4.1098 8.59085 4.19346 8.67451 4.28235C8.75817 4.37124 8.8 4.46013 8.8 4.54902C8.8 4.64837 8.77909 4.75817 8.73726 4.87843C8.69543 4.99346 8.63268 5.05098 8.54902 5.05098C8.43399 5.05098 8.26928 5.01699 8.0549 4.94902C7.84052 4.88105 7.6 4.81307 7.33333 4.7451C7.06667 4.6719 6.8 4.63529 6.53333 4.63529C5.98431 4.63529 5.45621 4.75556 4.94902 4.99608C4.44706 5.23137 4.03399 5.56078 3.7098 5.98431C3.39085 6.40784 3.23137 6.89673 3.23137 7.45098C3.23137 8.1098 3.41961 8.63007 3.79608 9.01177C4.17778 9.38824 4.71373 9.57647 5.40392 9.57647C5.78562 9.57647 6.10196 9.6915 6.35294 9.92157C6.60392 10.1464 6.72941 10.4366 6.72941 10.7922C6.72941 11.085 6.73203 11.417 6.73726 11.7882C6.74771 12.1542 6.79477 12.5098 6.87843 12.8549C6.96209 13.1948 7.11634 13.4745 7.34118 13.6941C7.56601 13.919 7.89543 14.0314 8.32941 14.0314ZM10.4471 3.22353C10.5307 3.22353 10.617 3.25229 10.7059 3.3098C10.8 3.36209 10.9203 3.38824 11.0667 3.38824C11.1556 3.38824 11.2288 3.35163 11.2863 3.27843C11.349 3.20523 11.3804 3.11634 11.3804 3.01177C11.3804 2.82353 11.2837 2.66405 11.0902 2.53333C10.902 2.40261 10.6667 2.33726 10.3843 2.33726C10.0497 2.33726 9.79085 2.38954 9.60784 2.49412C9.42484 2.59869 9.33333 2.74771 9.33333 2.94118C9.33333 3.06667 9.37516 3.17124 9.45882 3.2549C9.54248 3.33333 9.64706 3.37255 9.77255 3.37255C9.90327 3.37255 10.0105 3.34902 10.0941 3.30196C10.183 3.24967 10.3007 3.22353 10.4471 3.22353ZM8 16C9.09281 16 10.1203 15.7909 11.0824 15.3726C12.0497 14.9542 12.902 14.3765 13.6392 13.6392C14.3765 12.902 14.9542 12.0523 15.3726 11.0902C15.7909 10.1229 16 9.09281 16 8C16 6.90719 15.7909 5.87974 15.3726 4.91765C14.9542 3.95033 14.3765 3.09804 13.6392 2.36078C12.902 1.62353 12.0497 1.04575 11.0824 0.627451C10.115 0.20915 9.08497 0 7.99216 0C6.89935 0 5.86928 0.20915 4.90196 0.627451C3.93987 1.04575 3.0902 1.62353 2.35294 2.36078C1.62092 3.09804 1.04575 3.95033 0.627451 4.91765C0.20915 5.87974 0 6.90719 0 8C0 9.09281 0.20915 10.1229 0.627451 11.0902C1.04575 12.0523 1.62353 12.902 2.36078 13.6392C3.09804 14.3765 3.94771 14.9542 4.9098 15.3726C5.87712 15.7909 6.90719 16 8 16ZM8 14.9333C7.0536 14.9333 6.16209 14.7503 5.32549 14.3843C4.48889 14.0235 3.75163 13.5242 3.11373 12.8863C2.47582 12.2484 1.97386 11.5111 1.60784 10.6745C1.24706 9.83791 1.06667 8.94641 1.06667 8C1.06667 7.0536 1.24706 6.16209 1.60784 5.32549C1.97386 4.48889 2.4732 3.75163 3.10588 3.11373C3.74379 2.47582 4.48105 1.97647 5.31765 1.61569C6.15425 1.24967 7.04575 1.06667 7.99216 1.06667C8.93856 1.06667 9.83007 1.24967 10.6667 1.61569C11.5033 1.97647 12.2405 2.47582 12.8784 3.11373C13.5216 3.75163 14.0235 4.48889 14.3843 5.32549C14.7503 6.16209 14.9333 7.0536 14.9333 8C14.9333 8.94641 14.7503 9.83791 14.3843 10.6745C14.0235 11.5111 13.5242 12.2484 12.8863 12.8863C12.2484 13.5242 11.5111 14.0235 10.6745 14.3843C9.83791 14.7503 8.94641 14.9333 8 14.9333Z"
		fill="currentColor"
	/>
</svg>
