<svg
	color="rgb(var(--foreground, 0, 0, 0))"
	viewBox="0 0 16 16"
	fill="none"
	xmlns="http://www.w3.org/2000/svg"
>
	<path
		d="M1.80392 11.4588L2.68235 9.78039C2.79216 9.57124 2.90458 9.40654 3.01961 9.28627C3.13987 9.16078 3.26275 9.09804 3.38824 9.09804C3.5085 9.09804 3.6366 9.16078 3.77255 9.28627C3.91373 9.40654 4.07843 9.58954 4.26667 9.83529C4.62745 10.3007 4.94118 10.6536 5.20784 10.8941C5.47451 11.1294 5.73333 11.2471 5.98431 11.2471C6.14641 11.2471 6.3085 11.1843 6.47059 11.0588C6.63268 10.9281 6.76601 10.7739 6.87059 10.5961C6.98039 10.4131 7.03529 10.2431 7.03529 10.0863C7.03529 9.97124 6.99608 9.86144 6.91765 9.75686C6.83922 9.64706 6.76078 9.55033 6.68235 9.46667C6.60392 9.37778 6.56471 9.30458 6.56471 9.24706C6.56471 9.1634 6.63268 9.12157 6.76863 9.12157C7.15033 9.12157 7.50327 9.03268 7.82745 8.8549C8.15163 8.67712 8.41307 8.45752 8.61176 8.19608C8.81046 7.92941 8.9098 7.67059 8.9098 7.41961C8.9098 7.17909 8.84445 6.96209 8.71373 6.76863C8.58824 6.56993 8.46013 6.4 8.32941 6.25882C8.19869 6.11765 8.13333 6.00523 8.13333 5.92157C8.13333 5.86405 8.16209 5.83529 8.21961 5.83529C8.25621 5.83529 8.30065 5.85621 8.35294 5.89804C8.40523 5.93464 8.47582 5.98693 8.56471 6.0549C8.85752 6.28497 9.10327 6.41046 9.30196 6.43137C9.50065 6.45229 9.65229 6.41046 9.75686 6.30588C9.86667 6.19608 9.93464 6.06797 9.96078 5.92157C9.97647 5.83791 10.0183 5.75163 10.0863 5.66275C10.1595 5.56863 10.3033 5.46667 10.5176 5.35686C10.7895 5.21569 11.051 5.04575 11.302 4.84706C11.5529 4.64837 11.7595 4.43922 11.9216 4.21961C12.0837 4 12.1647 3.78824 12.1647 3.58431C12.1647 3.38562 12.1098 3.21569 12 3.07451C11.8954 2.9281 11.7725 2.80261 11.6314 2.69804C11.4902 2.59346 11.3647 2.50719 11.2549 2.43922C11.1503 2.37124 11.098 2.31373 11.098 2.26667C11.098 2.16209 11.349 2.03922 11.851 1.89804L11.6549 1.12941C11.2418 1.23399 10.8967 1.38301 10.6196 1.57647C10.3477 1.76471 10.2118 1.97909 10.2118 2.21961C10.2118 2.37647 10.2693 2.52026 10.3843 2.65098C10.5046 2.77647 10.6405 2.89412 10.7922 3.00392C10.9438 3.1085 11.0771 3.20784 11.1922 3.30196C11.3124 3.39608 11.3726 3.4902 11.3726 3.58431C11.3726 3.70458 11.3098 3.82745 11.1843 3.95294C11.0588 4.07843 10.9072 4.19869 10.7294 4.31373C10.5516 4.42876 10.3791 4.53072 10.2118 4.61961C9.93464 4.7817 9.74118 4.91765 9.63137 5.02745C9.52157 5.13726 9.45098 5.23399 9.41961 5.31765C9.39347 5.40131 9.36209 5.48235 9.32549 5.56078C9.27843 5.64967 9.2183 5.68105 9.1451 5.6549C9.0719 5.62876 8.98301 5.57909 8.87843 5.50588C8.77909 5.42745 8.66405 5.35425 8.53333 5.28627C8.40261 5.2183 8.25621 5.18431 8.09412 5.18431C7.90065 5.18431 7.73595 5.24444 7.6 5.36471C7.46928 5.47974 7.40392 5.63399 7.40392 5.82745C7.40392 6.02614 7.46405 6.22222 7.58431 6.41569C7.70458 6.60392 7.82222 6.78431 7.93726 6.95686C8.05752 7.12418 8.11765 7.27843 8.11765 7.41961C8.11765 7.58693 8.0549 7.74641 7.92941 7.89804C7.80392 8.04445 7.62353 8.16732 7.38824 8.26667C7.15294 8.36078 6.87059 8.40784 6.54118 8.40784C6.26928 8.40784 6.06013 8.46797 5.91373 8.58824C5.76732 8.70327 5.69412 8.86536 5.69412 9.07451C5.69412 9.21569 5.73595 9.35163 5.81961 9.48235C5.9085 9.60784 5.99477 9.72288 6.07843 9.82745C6.16732 9.93203 6.21177 10.0183 6.21177 10.0863C6.21177 10.1333 6.20131 10.1804 6.18039 10.2275C6.15948 10.2745 6.13072 10.3137 6.09412 10.3451C6.06275 10.3712 6.03137 10.3843 6 10.3843C5.91634 10.3843 5.78301 10.3059 5.6 10.149C5.42222 9.98693 5.18693 9.72026 4.89412 9.34902C4.64314 9.01438 4.39739 8.75817 4.15686 8.58039C3.91634 8.39739 3.67582 8.30588 3.43529 8.30588C3.09543 8.30588 2.8183 8.4183 2.60392 8.64314C2.38954 8.86275 2.21961 9.08497 2.09412 9.3098L1.32549 10.7216L1.80392 11.4588ZM11.4902 14.6902L12.1255 14.2039C12.0052 14.0471 11.8719 13.8797 11.7255 13.702C11.5791 13.5242 11.3987 13.3726 11.1843 13.2471C10.9699 13.1163 10.7059 13.051 10.3922 13.051C10.1987 13.051 10.0471 13.0667 9.93726 13.098C9.82745 13.1294 9.72811 13.1608 9.63922 13.1922C9.55033 13.2235 9.44052 13.2392 9.3098 13.2392C9.19477 13.2392 9.10065 13.1895 9.02745 13.0902C8.95948 12.9856 8.89935 12.8235 8.84706 12.6039C8.8 12.4157 8.77386 12.2562 8.76863 12.1255C8.76863 11.9948 8.83137 11.9033 8.95686 11.851C9.05098 11.8144 9.2 11.7673 9.40392 11.7098C9.61307 11.6471 9.82222 11.5346 10.0314 11.3726C10.2458 11.2105 10.4052 10.9621 10.5098 10.6275C10.6248 10.2824 10.7425 10.0392 10.8627 9.89804C10.983 9.75163 11.1373 9.67843 11.3255 9.67843C11.4928 9.67843 11.6209 9.71503 11.7098 9.78824C11.8039 9.86144 11.8876 9.9451 11.9608 10.0392C12.034 10.1333 12.1229 10.217 12.2275 10.2902C12.3373 10.3582 12.4941 10.3922 12.698 10.3922C12.8758 10.3922 13.0196 10.3686 13.1294 10.3216C13.2444 10.2693 13.3647 10.2431 13.4902 10.2431C13.6627 10.2431 13.8039 10.3346 13.9137 10.5176C14.0288 10.6954 14.102 10.9909 14.1333 11.4039L14.9255 11.0902C14.8627 10.5725 14.7111 10.1699 14.4706 9.88235C14.2353 9.59477 13.9451 9.45098 13.6 9.45098C13.3909 9.45098 13.1817 9.48497 12.9725 9.55294C12.8471 9.59477 12.7556 9.60784 12.698 9.59216C12.6458 9.57124 12.5699 9.50327 12.4706 9.38824C12.3085 9.20523 12.149 9.07712 11.9922 9.00392C11.8353 8.92549 11.6444 8.88628 11.4196 8.88628C11.0222 8.88628 10.6902 8.99869 10.4235 9.22353C10.1569 9.44314 9.92941 9.83529 9.74118 10.4C9.69412 10.5516 9.62092 10.6667 9.52157 10.7451C9.42745 10.8235 9.24444 10.9124 8.97255 11.0118L8.64314 11.1294C8.33464 11.2497 8.13333 11.4353 8.03922 11.6863C7.9451 11.9373 7.95294 12.3007 8.06275 12.7765C8.26144 13.6183 8.65359 14.0392 9.23922 14.0392C9.49543 14.0392 9.7098 14.0078 9.88235 13.9451C10.0549 13.8876 10.2248 13.8588 10.3922 13.8588C10.6379 13.8536 10.8366 13.9242 10.9882 14.0706C11.1399 14.2222 11.3072 14.4288 11.4902 14.6902ZM9.8902 7.52157C10.0575 7.52157 10.2039 7.48235 10.3294 7.40392C10.4549 7.32026 10.583 7.22876 10.7137 7.12941C10.8444 7.03007 11.0065 6.95163 11.2 6.89412C11.3882 6.84183 11.532 6.73203 11.6314 6.56471C11.7307 6.39739 11.7804 6.23268 11.7804 6.07059C11.7804 5.93464 11.7464 5.81961 11.6784 5.72549C11.6105 5.62614 11.5033 5.57647 11.3569 5.57647C11.0379 5.57647 10.7791 5.78824 10.5804 6.21177C10.5281 6.32157 10.4523 6.41046 10.3529 6.47843C10.2536 6.54641 10.0993 6.60915 9.8902 6.66667C9.59216 6.75556 9.44314 6.91242 9.44314 7.13726C9.44314 7.26797 9.48758 7.36471 9.57647 7.42745C9.66536 7.4902 9.76994 7.52157 9.8902 7.52157ZM7.61569 11.1451C7.84052 11.1451 8.04445 11.0405 8.22745 10.8314C8.41046 10.617 8.50196 10.3948 8.50196 10.1647C8.50196 9.87712 8.44967 9.66536 8.3451 9.52941C8.24575 9.39347 8.12811 9.32549 7.99216 9.32549C7.84575 9.32549 7.72811 9.40654 7.63922 9.56863C7.55033 9.73072 7.50588 9.9451 7.50588 10.2118C7.50588 10.3634 7.46144 10.468 7.37255 10.5255C7.28366 10.5778 7.23922 10.6797 7.23922 10.8314C7.23922 11.0405 7.36471 11.1451 7.61569 11.1451ZM6.24314 12.5804C6.61438 12.5804 6.8 12.4261 6.8 12.1176C6.8 11.8771 6.66667 11.7569 6.4 11.7569C6.08628 11.7569 5.8536 11.7124 5.70196 11.6235C5.55033 11.5346 5.42484 11.4458 5.32549 11.3569C5.23137 11.268 5.1085 11.2235 4.95686 11.2235C4.83137 11.2235 4.72941 11.2575 4.65098 11.3255C4.57255 11.3935 4.53333 11.4824 4.53333 11.5922C4.53333 11.681 4.57255 11.7542 4.65098 11.8118C4.72941 11.8693 4.82614 11.898 4.94118 11.898C5.06667 11.898 5.15817 11.932 5.21569 12C5.2732 12.068 5.33072 12.149 5.38824 12.2431C5.45098 12.332 5.5451 12.4105 5.67059 12.4784C5.79608 12.5464 5.98693 12.5804 6.24314 12.5804ZM8 16C9.09281 16 10.1203 15.7909 11.0824 15.3726C12.0497 14.9542 12.902 14.3765 13.6392 13.6392C14.3765 12.902 14.9542 12.0523 15.3726 11.0902C15.7909 10.1229 16 9.09281 16 8C16 6.90719 15.7909 5.87974 15.3726 4.91765C14.9542 3.95033 14.3765 3.09804 13.6392 2.36078C12.902 1.62353 12.0497 1.04575 11.0824 0.627451C10.115 0.20915 9.08497 0 7.99216 0C6.89935 0 5.86928 0.20915 4.90196 0.627451C3.93987 1.04575 3.0902 1.62353 2.35294 2.36078C1.62092 3.09804 1.04575 3.95033 0.627451 4.91765C0.20915 5.87974 0 6.90719 0 8C0 9.09281 0.20915 10.1229 0.627451 11.0902C1.04575 12.0523 1.62353 12.902 2.36078 13.6392C3.09804 14.3765 3.94771 14.9542 4.9098 15.3726C5.87712 15.7909 6.90719 16 8 16ZM8 14.9333C7.0536 14.9333 6.16209 14.7503 5.32549 14.3843C4.48889 14.0235 3.75163 13.5242 3.11373 12.8863C2.47582 12.2484 1.97386 11.5111 1.60784 10.6745C1.24706 9.83791 1.06667 8.94641 1.06667 8C1.06667 7.0536 1.24706 6.16209 1.60784 5.32549C1.97386 4.48889 2.4732 3.75163 3.10588 3.11373C3.74379 2.47582 4.48105 1.97647 5.31765 1.61569C6.15425 1.24967 7.04575 1.06667 7.99216 1.06667C8.93856 1.06667 9.83007 1.24967 10.6667 1.61569C11.5033 1.97647 12.2405 2.47582 12.8784 3.11373C13.5216 3.75163 14.0235 4.48889 14.3843 5.32549C14.7503 6.16209 14.9333 7.0536 14.9333 8C14.9333 8.94641 14.7503 9.83791 14.3843 10.6745C14.0235 11.5111 13.5242 12.2484 12.8863 12.8863C12.2484 13.5242 11.5111 14.0235 10.6745 14.3843C9.83791 14.7503 8.94641 14.9333 8 14.9333Z"
		fill="currentColor"
	/>
</svg>
