<svg
	color="rgb(var(--foreground, 0, 0, 0))"
	viewBox="0 0 16 16"
	fill="none"
	xmlns="http://www.w3.org/2000/svg"
>
	<path
		d="M8.71373 12.8627C9.0536 12.8627 9.32026 12.698 9.51373 12.3686C9.71242 12.034 9.81177 11.498 9.81177 10.7608C9.81177 10.4523 9.88235 10.1595 10.0235 9.88235C10.1699 9.60523 10.3477 9.35948 10.5569 9.1451C10.766 8.92549 10.9725 8.75556 11.1765 8.63529C11.3856 8.5098 11.5529 8.44706 11.6784 8.44706C11.8196 8.44706 11.9477 8.52288 12.0627 8.67451C12.1778 8.82614 12.3007 9.01699 12.4314 9.24706C12.5673 9.47713 12.7346 9.70719 12.9333 9.93726C13.1373 10.1673 13.3909 10.366 13.6941 10.5333C14.0026 10.6954 14.3869 10.7869 14.8471 10.8078C14.9987 10.3477 15.1242 9.88235 15.2235 9.41177C15.3229 8.94118 15.3673 8.47059 15.3569 8C15.3412 7.12157 15.1948 6.30065 14.9176 5.53726C14.6405 4.76863 14.2614 4.07843 13.7804 3.46667C13.2993 2.84967 12.7477 2.32418 12.1255 1.8902C11.5033 1.45098 10.8392 1.11634 10.1333 0.886275C9.42745 0.656209 8.71111 0.546405 7.98431 0.556863C7.2732 0.562092 6.57516 0.682353 5.8902 0.917647C5.21046 1.14771 4.55948 1.4902 3.93726 1.9451C4.15686 2.25882 4.29804 2.46275 4.36078 2.55686C4.42876 2.64575 4.46275 2.74771 4.46275 2.86275C4.46275 2.96209 4.41307 3.04575 4.31373 3.11373C4.21961 3.1817 4.11765 3.26536 4.00784 3.36471C3.90327 3.45882 3.83529 3.58954 3.80392 3.75686C3.77255 3.91373 3.70719 4.04444 3.60784 4.14902C3.5085 4.24837 3.39085 4.29804 3.2549 4.29804C3.1085 4.29804 2.94902 4.21438 2.77647 4.04706C2.60915 3.87974 2.50196 3.60261 2.4549 3.21569C1.84314 3.80654 1.38562 4.51242 1.08235 5.33333C0.779085 6.15425 0.627451 7.03791 0.627451 7.98431C0.627451 8.64314 0.718954 9.29935 0.901961 9.95294C1.0902 10.6013 1.38824 11.2444 1.79608 11.8824C2.21961 11.8092 2.55425 11.702 2.8 11.5608C3.05098 11.4196 3.22876 11.2366 3.33333 11.0118C3.43791 10.7817 3.4902 10.5046 3.4902 10.1804C3.4902 9.93987 3.5268 9.74902 3.6 9.60784C3.67843 9.46144 3.76732 9.33333 3.86667 9.22353C3.96601 9.11373 4.0549 8.99869 4.13333 8.87843C4.21176 8.75294 4.25098 8.59085 4.25098 8.39216C4.25098 8.21961 4.16732 8.05752 4 7.90588C3.83791 7.74902 3.59216 7.53203 3.26275 7.2549L2.7451 6.82353C2.65621 6.7451 2.61176 6.64837 2.61176 6.53333C2.61176 6.43399 2.64575 6.34248 2.71373 6.25882C2.7817 6.17516 2.8732 6.13333 2.98824 6.13333C3.06144 6.13333 3.13464 6.16471 3.20784 6.22745C3.28627 6.28497 3.42484 6.39739 3.62353 6.56471C3.90065 6.8 4.11765 6.97516 4.27451 7.0902C4.4366 7.20523 4.59608 7.26275 4.75294 7.26275C4.92026 7.26275 5.04837 7.22614 5.13726 7.15294C5.23137 7.07974 5.33333 7.04314 5.44314 7.04314C5.61046 7.04314 5.73333 7.15033 5.81177 7.36471L6.07843 8.08628C6.15163 8.30588 6.24575 8.47843 6.36078 8.60392C6.48105 8.72418 6.60131 8.83137 6.72157 8.92549C6.84706 9.01438 6.95686 9.12418 7.05098 9.2549C7.15033 9.38562 7.22092 9.56863 7.26275 9.80392C7.39346 10.5778 7.52418 11.1869 7.6549 11.6314C7.78562 12.0758 7.93464 12.3922 8.10196 12.5804C8.26928 12.7686 8.4732 12.8627 8.71373 12.8627ZM8 16C9.09281 16 10.1203 15.7909 11.0824 15.3726C12.0497 14.9542 12.902 14.3765 13.6392 13.6392C14.3765 12.902 14.9542 12.0523 15.3726 11.0902C15.7909 10.1229 16 9.09281 16 8C16 6.90719 15.7909 5.87974 15.3726 4.91765C14.9542 3.95033 14.3765 3.09804 13.6392 2.36078C12.902 1.62353 12.0497 1.04575 11.0824 0.627451C10.115 0.20915 9.08497 0 7.99216 0C6.89935 0 5.86928 0.20915 4.90196 0.627451C3.93987 1.04575 3.0902 1.62353 2.35294 2.36078C1.62092 3.09804 1.04575 3.95033 0.627451 4.91765C0.20915 5.87974 0 6.90719 0 8C0 9.09281 0.20915 10.1229 0.627451 11.0902C1.04575 12.0523 1.62353 12.902 2.36078 13.6392C3.09804 14.3765 3.94771 14.9542 4.9098 15.3726C5.87712 15.7909 6.90719 16 8 16ZM8 14.9333C7.0536 14.9333 6.16209 14.7503 5.32549 14.3843C4.48889 14.0235 3.75163 13.5242 3.11373 12.8863C2.47582 12.2484 1.97386 11.5111 1.60784 10.6745C1.24706 9.83791 1.06667 8.94641 1.06667 8C1.06667 7.0536 1.24706 6.16209 1.60784 5.32549C1.97386 4.48889 2.4732 3.75163 3.10588 3.11373C3.74379 2.47582 4.48105 1.97647 5.31765 1.61569C6.15425 1.24967 7.04575 1.06667 7.99216 1.06667C8.93856 1.06667 9.83007 1.24967 10.6667 1.61569C11.5033 1.97647 12.2405 2.47582 12.8784 3.11373C13.5216 3.75163 14.0235 4.48889 14.3843 5.32549C14.7503 6.16209 14.9333 7.0536 14.9333 8C14.9333 8.94641 14.7503 9.83791 14.3843 10.6745C14.0235 11.5111 13.5242 12.2484 12.8863 12.8863C12.2484 13.5242 11.5111 14.0235 10.6745 14.3843C9.83791 14.7503 8.94641 14.9333 8 14.9333Z"
		fill="currentColor"
	/>
</svg>
