<svg
	color="rgb(var(--foreground, 0, 0, 0))"
	viewBox="0 0 16 16"
	fill="none"
	xmlns="http://www.w3.org/2000/svg"
>
	<path
		d="M1.74118 12.0157C2.13856 11.9529 2.47582 11.8562 2.75294 11.7255C3.03007 11.5895 3.24183 11.3987 3.38824 11.1529C3.53464 10.9072 3.60784 10.583 3.60784 10.1804C3.60784 9.97124 3.64444 9.80131 3.71765 9.67059C3.79608 9.53464 3.88497 9.41177 3.98431 9.30196C4.08366 9.19216 4.17255 9.06928 4.25098 8.93333C4.32941 8.79216 4.36863 8.61176 4.36863 8.39216C4.36863 8.19346 4.27712 8.00523 4.09412 7.82745C3.91634 7.64444 3.66275 7.41699 3.33333 7.1451L2.81569 6.72941C2.74771 6.6719 2.71373 6.60654 2.71373 6.53333C2.71373 6.46013 2.73987 6.39477 2.79216 6.33726C2.84967 6.27974 2.91503 6.25098 2.98824 6.25098C3.04575 6.25098 3.1085 6.28235 3.17647 6.3451C3.24967 6.40261 3.37255 6.50458 3.5451 6.65098C3.82222 6.88627 4.04706 7.06667 4.21961 7.19216C4.39216 7.31765 4.56993 7.38039 4.75294 7.38039C4.94118 7.38039 5.07712 7.34379 5.16078 7.27059C5.24967 7.19739 5.34379 7.16078 5.44314 7.16078C5.55817 7.16078 5.64444 7.24183 5.70196 7.40392L6.01569 8.26667C6.12549 8.58562 6.25621 8.81307 6.40784 8.94902C6.55948 9.08497 6.69804 9.20784 6.82353 9.31765C6.94902 9.42222 7.03007 9.58954 7.06667 9.81961C7.17647 10.5725 7.29935 11.1817 7.43529 11.6471C7.57124 12.1072 7.74118 12.4444 7.9451 12.6588C8.14902 12.8732 8.40523 12.9804 8.71373 12.9804C9.17386 12.9804 9.4902 12.7843 9.66275 12.3922C9.84052 11.9948 9.92941 11.451 9.92941 10.7608C9.92941 10.4941 9.99739 10.2301 10.1333 9.96863C10.2693 9.70719 10.434 9.4719 10.6275 9.26275C10.8261 9.04837 11.0222 8.87843 11.2157 8.75294C11.4092 8.62745 11.5634 8.56471 11.6784 8.56471C11.7935 8.56471 11.9033 8.64314 12.0078 8.8C12.1124 8.95686 12.2327 9.15033 12.3686 9.38039C12.5098 9.61046 12.685 9.84314 12.8941 10.0784C13.1085 10.3137 13.3778 10.5124 13.702 10.6745C14.0314 10.8314 14.4418 10.915 14.9333 10.9255V10.1333C14.4732 10.1229 14.1098 10.0392 13.8431 9.88235C13.5817 9.72026 13.3726 9.52418 13.2157 9.29412C13.0641 9.05882 12.9281 8.82614 12.8078 8.59608C12.6876 8.36078 12.5438 8.16471 12.3765 8.00784C12.2092 7.85098 11.9765 7.77255 11.6784 7.77255C11.4536 7.77255 11.1948 7.85882 10.902 8.03137C10.6144 8.20392 10.3346 8.4366 10.0627 8.72941C9.79608 9.01699 9.57386 9.33856 9.39608 9.69412C9.22353 10.0444 9.13726 10.4 9.13726 10.7608C9.13726 11.2941 9.1085 11.6654 9.05098 11.8745C8.99346 12.0837 8.88105 12.1882 8.71373 12.1882C8.5098 12.1882 8.3451 11.9843 8.21961 11.5765C8.09412 11.1686 7.96863 10.5412 7.84314 9.69412C7.79608 9.40654 7.72811 9.19477 7.63922 9.05882C7.55556 8.91765 7.46144 8.81046 7.35686 8.73726C7.25229 8.65882 7.14771 8.57516 7.04314 8.48627C6.94379 8.39739 6.85752 8.2536 6.78431 8.0549L6.3451 6.93333C6.25621 6.69804 6.13856 6.53333 5.99216 6.43922C5.84575 6.3451 5.68889 6.29804 5.52157 6.29804C5.33856 6.29804 5.17909 6.34248 5.04314 6.43137C4.90719 6.52026 4.80523 6.56471 4.73726 6.56471C4.67974 6.56471 4.57255 6.49935 4.41569 6.36863C4.26405 6.23791 4.13595 6.12549 4.03137 6.03137C3.8536 5.87451 3.67843 5.74118 3.50588 5.63137C3.33856 5.51634 3.16601 5.45882 2.98824 5.45882C2.70065 5.45882 2.44967 5.57386 2.23529 5.80392C2.02614 6.02876 1.92157 6.26667 1.92157 6.51765C1.92157 6.71111 2.00261 6.89935 2.16471 7.08235C2.33203 7.26536 2.52549 7.44052 2.7451 7.60784C2.96471 7.77516 3.15817 7.93203 3.32549 8.07843C3.49281 8.22484 3.57647 8.35817 3.57647 8.47843C3.57647 8.62484 3.53726 8.74248 3.45882 8.83137C3.38039 8.92026 3.2915 9.01177 3.19216 9.10588C3.09281 9.2 3.00392 9.3281 2.92549 9.4902C2.85229 9.64706 2.81569 9.86928 2.81569 10.1569C2.81569 10.4706 2.7634 10.6954 2.65882 10.8314C2.55425 10.9673 2.40784 11.0588 2.21961 11.1059C2.0366 11.1529 1.82484 11.1974 1.58431 11.2392L1.74118 12.0157ZM2.01569 3.47451C2.06275 3.84052 2.19608 4.15163 2.41569 4.40784C2.63529 4.66405 2.90196 4.79216 3.21569 4.79216C3.45621 4.79216 3.67059 4.71895 3.85882 4.57255C4.04706 4.42614 4.17255 4.23007 4.23529 3.98431C4.26144 3.88497 4.29281 3.80915 4.32941 3.75686C4.36601 3.69935 4.42353 3.64706 4.50196 3.6C4.67451 3.50588 4.8 3.40131 4.87843 3.28627C4.95686 3.16601 4.99608 3.01438 4.99608 2.83137C4.99608 2.63791 4.93072 2.43922 4.8 2.23529C4.66928 2.03137 4.48627 1.80915 4.25098 1.56863L3.68627 2.1098C3.86405 2.30327 3.99477 2.44183 4.07843 2.52549C4.16209 2.60915 4.20392 2.70065 4.20392 2.8C4.20392 2.88889 4.15948 2.95686 4.07059 3.00392C3.98693 3.05098 3.89543 3.11634 3.79608 3.2C3.70196 3.27843 3.6366 3.41176 3.6 3.6C3.57386 3.73595 3.52157 3.83791 3.44314 3.90588C3.36471 3.96863 3.28627 4 3.20784 4C3.12941 4 3.03791 3.95033 2.93333 3.85098C2.82876 3.75163 2.77909 3.58954 2.78431 3.36471L2.01569 3.47451ZM8 16C9.09281 16 10.1203 15.7909 11.0824 15.3726C12.0497 14.9542 12.902 14.3765 13.6392 13.6392C14.3765 12.902 14.9542 12.0523 15.3726 11.0902C15.7909 10.1229 16 9.09281 16 8C16 6.90719 15.7909 5.87974 15.3726 4.91765C14.9542 3.95033 14.3765 3.09804 13.6392 2.36078C12.902 1.62353 12.0497 1.04575 11.0824 0.627451C10.115 0.20915 9.08497 0 7.99216 0C6.89935 0 5.86928 0.20915 4.90196 0.627451C3.93987 1.04575 3.0902 1.62353 2.35294 2.36078C1.62092 3.09804 1.04575 3.95033 0.627451 4.91765C0.20915 5.87974 0 6.90719 0 8C0 9.09281 0.20915 10.1229 0.627451 11.0902C1.04575 12.0523 1.62353 12.902 2.36078 13.6392C3.09804 14.3765 3.94771 14.9542 4.9098 15.3726C5.87712 15.7909 6.90719 16 8 16ZM8 14.9333C7.0536 14.9333 6.16209 14.7503 5.32549 14.3843C4.48889 14.0235 3.75163 13.5242 3.11373 12.8863C2.47582 12.2484 1.97386 11.5111 1.60784 10.6745C1.24706 9.83791 1.06667 8.94641 1.06667 8C1.06667 7.0536 1.24706 6.16209 1.60784 5.32549C1.97386 4.48889 2.4732 3.75163 3.10588 3.11373C3.74379 2.47582 4.48105 1.97647 5.31765 1.61569C6.15425 1.24967 7.04575 1.06667 7.99216 1.06667C8.93856 1.06667 9.83007 1.24967 10.6667 1.61569C11.5033 1.97647 12.2405 2.47582 12.8784 3.11373C13.5216 3.75163 14.0235 4.48889 14.3843 5.32549C14.7503 6.16209 14.9333 7.0536 14.9333 8C14.9333 8.94641 14.7503 9.83791 14.3843 10.6745C14.0235 11.5111 13.5242 12.2484 12.8863 12.8863C12.2484 13.5242 11.5111 14.0235 10.6745 14.3843C9.83791 14.7503 8.94641 14.9333 8 14.9333Z"
		fill="currentColor"
	/>
</svg>
