<svg
	color="rgb(var(--foreground, 0, 0, 0))"
	viewBox="0 0 16 16"
	fill="none"
	xmlns="http://www.w3.org/2000/svg"
>
	<path
		d="M1.79608 11.4588C2.08889 11.234 2.31634 10.9856 2.47843 10.7137C2.64575 10.4366 2.77386 10.1725 2.86275 9.92157C2.95686 9.67059 3.03791 9.46405 3.10588 9.30196C3.17909 9.13987 3.2732 9.05882 3.38824 9.05882C3.5085 9.05882 3.6366 9.11634 3.77255 9.23137C3.9085 9.34641 4.08366 9.53987 4.29804 9.81177C4.65882 10.2771 4.96732 10.6275 5.22353 10.8627C5.48497 11.0928 5.73856 11.2078 5.98431 11.2078C6.13595 11.2078 6.2902 11.1451 6.44706 11.0196C6.60392 10.8941 6.73464 10.7399 6.83922 10.5569C6.94379 10.3686 6.99608 10.1856 6.99608 10.0078C6.99608 9.92418 6.95686 9.83529 6.87843 9.74118C6.8 9.64706 6.72157 9.55817 6.64314 9.47451C6.56471 9.38562 6.52549 9.3098 6.52549 9.24706C6.52549 9.13726 6.61438 9.08235 6.79216 9.08235C7.15817 9.08235 7.49804 8.99608 7.81177 8.82353C8.13072 8.64575 8.38693 8.42876 8.58039 8.17255C8.77386 7.91634 8.87059 7.66536 8.87059 7.41961C8.87059 7.24183 8.8 7.0719 8.65882 6.9098C8.51765 6.74771 8.37386 6.59608 8.22745 6.4549C8.08628 6.31373 8.01569 6.18562 8.01569 6.07059C8.01569 5.99739 8.04183 5.93987 8.09412 5.89804C8.14641 5.85621 8.20654 5.83529 8.27451 5.83529C8.32157 5.83529 8.37386 5.84575 8.43137 5.86667C8.48889 5.88758 8.55163 5.92418 8.61961 5.97647C8.90719 6.20131 9.14248 6.32418 9.32549 6.3451C9.51373 6.36601 9.65752 6.3268 9.75686 6.22745C9.86144 6.12811 9.9268 6.00784 9.95294 5.86667C9.96863 5.77778 10.0131 5.68628 10.0863 5.59216C10.1595 5.49281 10.3085 5.38824 10.5333 5.27843C10.8471 5.11634 11.1216 4.93856 11.3569 4.7451C11.5974 4.54641 11.7856 4.34771 11.9216 4.14902C12.0575 3.95033 12.1255 3.76209 12.1255 3.58431C12.1255 3.43791 12.0706 3.29935 11.9608 3.16863C11.8562 3.03268 11.7333 2.90719 11.5922 2.79216C11.451 2.67712 11.3255 2.57516 11.2157 2.48627C11.1111 2.39739 11.0588 2.32418 11.0588 2.26667C11.0588 2.20392 11.1137 2.14379 11.2235 2.08627C11.3333 2.02353 11.5163 1.95294 11.7725 1.87451C11.5007 1.62876 11.1791 1.40915 10.8078 1.21569C10.4366 1.02222 10.0157 0.870588 9.5451 0.760784C9.07451 0.65098 8.55686 0.596078 7.99216 0.596078C7.1085 0.63268 6.28758 0.781699 5.52941 1.04314C4.77647 1.30458 4.10196 1.66013 3.50588 2.1098C2.9098 2.55948 2.4 3.08758 1.97647 3.69412C1.55294 4.29542 1.22876 4.96209 1.00392 5.69412C0.779085 6.42092 0.664052 7.18954 0.658824 8C0.653595 8.63268 0.747712 9.25229 0.941177 9.85882C1.13987 10.4654 1.42484 10.9987 1.79608 11.4588ZM11.498 14.6275C13.0353 13.6444 14.1647 12.4601 14.8863 11.0745C14.8235 10.5725 14.6771 10.183 14.4471 9.90588C14.217 9.62876 13.9346 9.4902 13.6 9.4902C13.5059 9.4902 13.4039 9.49804 13.2941 9.51373C13.1895 9.52941 13.0876 9.55556 12.9882 9.59216C12.8523 9.63399 12.7529 9.64706 12.6902 9.63137C12.6327 9.61046 12.549 9.53726 12.4392 9.41177C12.2824 9.23399 12.1255 9.1085 11.9686 9.03529C11.817 8.96209 11.634 8.92549 11.4196 8.92549C11.0118 8.92549 10.6797 9.04052 10.4235 9.27059C10.1725 9.49543 9.95817 9.87451 9.78039 10.4078C9.73333 10.5699 9.65752 10.6928 9.55294 10.7765C9.4536 10.8549 9.26536 10.9464 8.98824 11.051L8.65882 11.1686C8.35033 11.2889 8.15425 11.4719 8.07059 11.7176C7.98693 11.9582 7.99739 12.3085 8.10196 12.7686C8.29543 13.5895 8.67451 14 9.23922 14C9.4902 14 9.70196 13.9686 9.87451 13.9059C10.0471 13.8484 10.2196 13.8196 10.3922 13.8196C10.6431 13.8144 10.8444 13.885 10.9961 14.0314C11.1529 14.183 11.3203 14.3817 11.498 14.6275ZM9.8902 7.52157C10.0575 7.52157 10.2039 7.48235 10.3294 7.40392C10.4549 7.32026 10.583 7.22876 10.7137 7.12941C10.8444 7.03007 11.0065 6.95163 11.2 6.89412C11.3882 6.84183 11.532 6.73203 11.6314 6.56471C11.7307 6.39739 11.7804 6.23268 11.7804 6.07059C11.7804 5.93464 11.7464 5.81961 11.6784 5.72549C11.6105 5.62614 11.5033 5.57647 11.3569 5.57647C11.0379 5.57647 10.7791 5.78824 10.5804 6.21177C10.5281 6.32157 10.4523 6.41046 10.3529 6.47843C10.2536 6.54641 10.0993 6.60915 9.8902 6.66667C9.59216 6.75556 9.44314 6.91242 9.44314 7.13726C9.44314 7.26797 9.48758 7.36471 9.57647 7.42745C9.66536 7.4902 9.76994 7.52157 9.8902 7.52157ZM7.61569 11.1451C7.84052 11.1451 8.04445 11.0405 8.22745 10.8314C8.41046 10.617 8.50196 10.3948 8.50196 10.1647C8.50196 9.87712 8.44967 9.66536 8.3451 9.52941C8.24575 9.39347 8.12811 9.32549 7.99216 9.32549C7.84575 9.32549 7.72811 9.40654 7.63922 9.56863C7.55033 9.73072 7.50588 9.9451 7.50588 10.2118C7.50588 10.3634 7.46144 10.468 7.37255 10.5255C7.28366 10.5778 7.23922 10.6797 7.23922 10.8314C7.23922 11.0405 7.36471 11.1451 7.61569 11.1451ZM6.24314 12.5804C6.61438 12.5804 6.8 12.4261 6.8 12.1176C6.8 11.8771 6.66667 11.7569 6.4 11.7569C6.08628 11.7569 5.8536 11.7124 5.70196 11.6235C5.55033 11.5346 5.42484 11.4458 5.32549 11.3569C5.23137 11.268 5.1085 11.2235 4.95686 11.2235C4.83137 11.2235 4.72941 11.2575 4.65098 11.3255C4.57255 11.3935 4.53333 11.4824 4.53333 11.5922C4.53333 11.681 4.57255 11.7542 4.65098 11.8118C4.72941 11.8693 4.82614 11.898 4.94118 11.898C5.06667 11.898 5.15817 11.932 5.21569 12C5.2732 12.068 5.33072 12.149 5.38824 12.2431C5.45098 12.332 5.5451 12.4105 5.67059 12.4784C5.79608 12.5464 5.98693 12.5804 6.24314 12.5804ZM8 16C9.09281 16 10.1203 15.7909 11.0824 15.3726C12.0497 14.9542 12.902 14.3765 13.6392 13.6392C14.3765 12.902 14.9542 12.0523 15.3726 11.0902C15.7909 10.1229 16 9.09281 16 8C16 6.90719 15.7909 5.87974 15.3726 4.91765C14.9542 3.95033 14.3765 3.09804 13.6392 2.36078C12.902 1.62353 12.0497 1.04575 11.0824 0.627451C10.115 0.20915 9.08497 0 7.99216 0C6.89935 0 5.86928 0.20915 4.90196 0.627451C3.93987 1.04575 3.0902 1.62353 2.35294 2.36078C1.62092 3.09804 1.04575 3.95033 0.627451 4.91765C0.20915 5.87974 0 6.90719 0 8C0 9.09281 0.20915 10.1229 0.627451 11.0902C1.04575 12.0523 1.62353 12.902 2.36078 13.6392C3.09804 14.3765 3.94771 14.9542 4.9098 15.3726C5.87712 15.7909 6.90719 16 8 16ZM8 14.9333C7.0536 14.9333 6.16209 14.7503 5.32549 14.3843C4.48889 14.0235 3.75163 13.5242 3.11373 12.8863C2.47582 12.2484 1.97386 11.5111 1.60784 10.6745C1.24706 9.83791 1.06667 8.94641 1.06667 8C1.06667 7.0536 1.24706 6.16209 1.60784 5.32549C1.97386 4.48889 2.4732 3.75163 3.10588 3.11373C3.74379 2.47582 4.48105 1.97647 5.31765 1.61569C6.15425 1.24967 7.04575 1.06667 7.99216 1.06667C8.93856 1.06667 9.83007 1.24967 10.6667 1.61569C11.5033 1.97647 12.2405 2.47582 12.8784 3.11373C13.5216 3.75163 14.0235 4.48889 14.3843 5.32549C14.7503 6.16209 14.9333 7.0536 14.9333 8C14.9333 8.94641 14.7503 9.83791 14.3843 10.6745C14.0235 11.5111 13.5242 12.2484 12.8863 12.8863C12.2484 13.5242 11.5111 14.0235 10.6745 14.3843C9.83791 14.7503 8.94641 14.9333 8 14.9333Z"
		fill="currentColor"
	/>
</svg>
