<svg
	color="rgb(var(--foreground, 0, 0, 0))"
	viewBox="0 0 16 16"
	fill="none"
	xmlns="http://www.w3.org/2000/svg"
>
	<path
		d="M8.32941 14.2745C8.55425 14.2745 8.83399 14.1438 9.16863 13.8824C9.50327 13.6209 9.85098 13.281 10.2118 12.8627C10.5725 12.4444 10.9098 12 11.2235 11.5294C11.5425 11.0536 11.8013 10.5987 12 10.1647C12.1987 9.73072 12.298 9.36994 12.298 9.08235C12.298 8.86275 12.2013 8.61438 12.0078 8.33726C11.8144 8.06013 11.5686 7.79346 11.2706 7.53726C10.9778 7.28105 10.6745 7.06928 10.3608 6.90196C10.0471 6.73464 9.76732 6.65098 9.52157 6.65098C9.36994 6.65098 9.20523 6.69804 9.02745 6.79216C8.84967 6.88105 8.67451 6.97255 8.50196 7.06667C8.32941 7.15556 8.17778 7.2 8.04706 7.2C7.95817 7.2 7.83529 7.15817 7.67843 7.07451C7.5268 6.98562 7.37255 6.87843 7.21569 6.75294C7.05882 6.62745 6.92549 6.50196 6.81569 6.37647C6.70588 6.25098 6.65098 6.15163 6.65098 6.07843C6.65098 6.02092 6.68758 5.9634 6.76078 5.90588C6.83922 5.84314 6.91503 5.81177 6.98824 5.81177C7.06144 5.81177 7.18693 5.87451 7.36471 6C7.54771 6.12026 7.74118 6.24052 7.9451 6.36078C8.14902 6.48105 8.3268 6.54118 8.47843 6.54118C8.80784 6.54118 9.0719 6.44183 9.27059 6.24314C9.46928 6.03922 9.56863 5.76732 9.56863 5.42745C9.56863 5.21307 9.46928 4.96209 9.27059 4.67451C9.4902 4.56471 9.74118 4.43137 10.0235 4.27451C10.3059 4.11242 10.5908 3.92941 10.8784 3.72549C11.166 3.52157 11.4275 3.29935 11.6627 3.05882C11.898 2.8183 12.0758 2.56471 12.1961 2.29804L11.4902 1.92941C11.3856 2.17516 11.2105 2.41046 10.9647 2.63529C10.7242 2.86013 10.4497 3.06928 10.1412 3.26275C9.83268 3.45621 9.52418 3.63399 9.21569 3.79608C8.91242 3.95294 8.64837 4.0915 8.42353 4.21176C8.33464 4.25882 8.27451 4.3268 8.24314 4.41569C8.21177 4.50458 8.23529 4.60392 8.31373 4.71373C8.47582 4.93333 8.59346 5.10327 8.66667 5.22353C8.73987 5.33856 8.77647 5.44052 8.77647 5.52941C8.77647 5.59216 8.75556 5.64444 8.71373 5.68628C8.6719 5.72811 8.61699 5.74902 8.54902 5.74902C8.46013 5.74902 8.31895 5.68889 8.12549 5.56863C7.93726 5.44837 7.73595 5.3281 7.52157 5.20784C7.31242 5.08235 7.13464 5.01961 6.98824 5.01961C6.81046 5.01961 6.63529 5.07451 6.46275 5.18431C6.2902 5.28889 6.14641 5.42222 6.03137 5.58431C5.91634 5.74641 5.85882 5.91111 5.85882 6.07843C5.85882 6.25621 5.93726 6.4549 6.09412 6.67451C6.25098 6.89412 6.44444 7.10588 6.67451 7.3098C6.9098 7.5085 7.15033 7.6732 7.39608 7.80392C7.64706 7.92941 7.86405 7.99216 8.04706 7.99216C8.19346 7.99216 8.36601 7.94771 8.56471 7.85882C8.7634 7.76471 8.95163 7.67059 9.12941 7.57647C9.30719 7.48235 9.43791 7.43529 9.52157 7.43529C9.65229 7.43529 9.82745 7.50065 10.0471 7.63137C10.2667 7.75686 10.4863 7.91373 10.7059 8.10196C10.9307 8.2902 11.119 8.47582 11.2706 8.65882C11.4275 8.8366 11.5059 8.97778 11.5059 9.08235C11.5059 9.26536 11.4196 9.53464 11.2471 9.8902C11.0745 10.2405 10.8523 10.6196 10.5804 11.0275C10.3085 11.4353 10.0235 11.8275 9.72549 12.2039C9.42745 12.5752 9.15033 12.881 8.89412 13.1216C8.63791 13.3621 8.44183 13.4824 8.30588 13.4824C8.21699 13.4824 8.12549 13.4484 8.03137 13.3804C7.94248 13.3072 7.89804 13.234 7.89804 13.1608C7.89804 13.119 7.90327 13.0719 7.91373 13.0196C7.92941 12.9673 7.96078 12.8732 8.00784 12.7373C8.04967 12.6118 8.0915 12.4654 8.13333 12.298C8.18039 12.1307 8.20131 11.9529 8.19608 11.7647C8.19085 11.5085 8.08105 11.2732 7.86667 11.0588C7.65229 10.8392 7.31503 10.5673 6.8549 10.2431C6.77124 10.1856 6.68497 10.1255 6.59608 10.0627C6.51242 10 6.42876 9.93726 6.3451 9.87451C6.1098 9.69673 5.99216 9.51634 5.99216 9.33333C5.99216 9.23922 6.02614 9.08758 6.09412 8.87843C6.17255 8.60654 6.21177 8.41046 6.21177 8.2902C6.21177 8.11242 6.16471 7.95817 6.07059 7.82745C5.9817 7.6915 5.84314 7.54248 5.6549 7.38039C5.62876 7.35948 5.60523 7.33856 5.58431 7.31765C5.5634 7.29673 5.53987 7.27843 5.51373 7.26275L4.25882 6.14118C3.73595 5.67059 3.37516 5.25752 3.17647 4.90196C2.97778 4.54641 2.90196 4.20915 2.94902 3.8902C2.99608 3.57124 3.12418 3.2366 3.33333 2.88627L2.56471 2.72941C2.3451 3.07974 2.20915 3.45882 2.15686 3.86667C2.1098 4.26928 2.20131 4.7085 2.43137 5.18431C2.66667 5.66013 3.10065 6.17778 3.73333 6.73726L4.98039 7.83529C5.1268 7.96601 5.2366 8.06536 5.3098 8.13333C5.38301 8.19608 5.41961 8.25621 5.41961 8.31373C5.41961 8.39739 5.38301 8.5281 5.3098 8.70588C5.2366 8.88366 5.2 9.09281 5.2 9.33333C5.2 9.78824 5.42222 10.1804 5.86667 10.5098C6.3268 10.8549 6.69804 11.1294 6.98039 11.3333C7.26275 11.532 7.40392 11.681 7.40392 11.7804C7.40915 12.0209 7.35948 12.2484 7.2549 12.4627C7.15556 12.6771 7.10588 12.9203 7.10588 13.1922C7.10588 13.3699 7.16601 13.5399 7.28627 13.702C7.41177 13.8693 7.56863 14.0052 7.75686 14.1098C7.95033 14.2196 8.14118 14.2745 8.32941 14.2745ZM8 16C9.09281 16 10.1203 15.7909 11.0824 15.3726C12.0497 14.9542 12.902 14.3765 13.6392 13.6392C14.3765 12.902 14.9542 12.0523 15.3726 11.0902C15.7909 10.1229 16 9.09281 16 8C16 6.90719 15.7909 5.87974 15.3726 4.91765C14.9542 3.95033 14.3765 3.09804 13.6392 2.36078C12.902 1.62353 12.0497 1.04575 11.0824 0.627451C10.115 0.20915 9.08497 0 7.99216 0C6.89935 0 5.86928 0.20915 4.90196 0.627451C3.93987 1.04575 3.0902 1.62353 2.35294 2.36078C1.62092 3.09804 1.04575 3.95033 0.627451 4.91765C0.20915 5.87974 0 6.90719 0 8C0 9.09281 0.20915 10.1229 0.627451 11.0902C1.04575 12.0523 1.62353 12.902 2.36078 13.6392C3.09804 14.3765 3.94771 14.9542 4.9098 15.3726C5.87712 15.7909 6.90719 16 8 16ZM8 14.9333C7.0536 14.9333 6.16209 14.7503 5.32549 14.3843C4.48889 14.0235 3.75163 13.5242 3.11373 12.8863C2.47582 12.2484 1.97386 11.5111 1.60784 10.6745C1.24706 9.83791 1.06667 8.94641 1.06667 8C1.06667 7.0536 1.24706 6.16209 1.60784 5.32549C1.97386 4.48889 2.4732 3.75163 3.10588 3.11373C3.74379 2.47582 4.48105 1.97647 5.31765 1.61569C6.15425 1.24967 7.04575 1.06667 7.99216 1.06667C8.93856 1.06667 9.83007 1.24967 10.6667 1.61569C11.5033 1.97647 12.2405 2.47582 12.8784 3.11373C13.5216 3.75163 14.0235 4.48889 14.3843 5.32549C14.7503 6.16209 14.9333 7.0536 14.9333 8C14.9333 8.94641 14.7503 9.83791 14.3843 10.6745C14.0235 11.5111 13.5242 12.2484 12.8863 12.8863C12.2484 13.5242 11.5111 14.0235 10.6745 14.3843C9.83791 14.7503 8.94641 14.9333 8 14.9333Z"
		fill="currentColor"
	/>
</svg>
