<svg
	color="rgb(var(--foreground, 0, 0, 0))"
	viewBox="0 0 17 18"
	fill="none"
	xmlns="http://www.w3.org/2000/svg"
>
	<path
		d="M7.75167 17.5H9.24832C9.45981 17.5 9.63876 17.4403 9.78517 17.3211C9.93158 17.2072 10.0265 17.0445 10.0699 16.833L10.4928 15.0435C10.6501 14.9893 10.8046 14.9324 10.9565 14.8727C11.1083 14.8131 11.252 14.7507 11.3876 14.6856L12.9574 15.6455C13.1309 15.7539 13.3099 15.8 13.4943 15.7837C13.6841 15.7675 13.8522 15.6861 13.9986 15.5397L15.0478 14.4986C15.1943 14.3522 15.2756 14.1813 15.2919 13.9861C15.3136 13.7909 15.2648 13.6065 15.1455 13.433L14.1856 11.8794C14.2561 11.7384 14.3185 11.5947 14.3727 11.4483C14.4324 11.3019 14.4866 11.1555 14.5354 11.0091L16.3411 10.578C16.5472 10.5346 16.7072 10.4397 16.8211 10.2933C16.9403 10.1469 17 9.96794 17 9.75646V8.28421C17 8.07815 16.9403 7.90191 16.8211 7.7555C16.7072 7.60909 16.5472 7.51419 16.3411 7.47081L14.5517 7.03971C14.4974 6.87161 14.4378 6.71435 14.3727 6.56794C14.3131 6.42153 14.2561 6.28325 14.2019 6.15311L15.1617 4.57512C15.2756 4.40159 15.3244 4.22265 15.3081 4.03828C15.2973 3.84848 15.2159 3.68038 15.0641 3.53397L13.9986 2.48469C13.8467 2.34912 13.6841 2.27049 13.5105 2.2488C13.337 2.22169 13.1608 2.25965 12.9818 2.36268L11.3876 3.34689C11.2574 3.2764 11.1164 3.21132 10.9646 3.15167C10.8182 3.09203 10.6609 3.03509 10.4928 2.98086L10.0699 1.16699C10.0265 0.960925 9.93158 0.798246 9.78517 0.678947C9.63876 0.559649 9.45981 0.5 9.24832 0.5H7.75167C7.54019 0.5 7.36124 0.559649 7.21483 0.678947C7.06842 0.798246 6.97081 0.960925 6.92201 1.16699L6.49904 2.96459C6.34179 3.01882 6.18453 3.07847 6.02727 3.14354C5.87544 3.20319 5.73174 3.26826 5.59617 3.33876L4.01818 2.36268C3.83923 2.25965 3.66029 2.21898 3.48134 2.24067C3.30782 2.26236 3.14514 2.3437 2.9933 2.48469L1.93589 3.53397C1.78405 3.68038 1.7 3.84848 1.68373 4.03828C1.66746 4.22265 1.71898 4.40159 1.83828 4.57512L2.78995 6.15311C2.73573 6.28325 2.67608 6.42153 2.611 6.56794C2.55136 6.71435 2.49713 6.87161 2.44833 7.03971L0.658852 7.47081C0.447368 7.51419 0.284689 7.60909 0.170813 7.7555C0.0569378 7.90191 0 8.07815 0 8.28421V9.75646C0 9.96794 0.0569378 10.1469 0.170813 10.2933C0.284689 10.4397 0.447368 10.5346 0.658852 10.578L2.46459 11.0091C2.50797 11.1555 2.55949 11.3019 2.61914 11.4483C2.67879 11.5947 2.74115 11.7384 2.80622 11.8794L1.85455 13.433C1.73525 13.6065 1.68373 13.7909 1.7 13.9861C1.72169 14.1813 1.80574 14.3522 1.95215 14.4986L2.9933 15.5397C3.13971 15.6861 3.3051 15.7675 3.48947 15.7837C3.67927 15.8 3.86364 15.7539 4.04258 15.6455L5.60431 14.6856C5.73987 14.7507 5.88357 14.8131 6.03541 14.8727C6.18724 14.9324 6.34179 14.9893 6.49904 15.0435L6.92201 16.833C6.97081 17.0445 7.06842 17.2072 7.21483 17.3211C7.36124 17.4403 7.54019 17.5 7.75167 17.5ZM8.5 11.8713C7.974 11.8713 7.49139 11.7411 7.05215 11.4809C6.61834 11.2206 6.27129 10.8735 6.011 10.4397C5.75614 10.0005 5.62871 9.51786 5.62871 8.99187C5.62871 8.46587 5.75885 7.98868 6.01914 7.56029C6.27943 7.12647 6.62647 6.77943 7.06029 6.51914C7.4941 6.25885 7.974 6.12871 8.5 6.12871C9.026 6.12871 9.5059 6.25885 9.93971 6.51914C10.3789 6.77943 10.726 7.12647 10.9809 7.56029C11.2411 7.98868 11.3713 8.46587 11.3713 8.99187C11.3713 9.51786 11.2411 10.0005 10.9809 10.4397C10.726 10.8735 10.3789 11.2206 9.93971 11.4809C9.5059 11.7411 9.026 11.8713 8.5 11.8713Z"
		fill="currentColor"
	/>
</svg>
