<svg
	color="rgb(var(--foreground, 0, 0, 0))"
	viewBox="0 0 17 18"
	fill="none"
	xmlns="http://www.w3.org/2000/svg"
>
	<path
		d="M7.69766 17.5H9.30234C9.6095 17.5 9.87165 17.4125 10.0888 17.2376C10.3112 17.068 10.4569 16.8347 10.5257 16.5379L10.8673 15.051L11.1215 14.9635L12.4164 15.7587C12.6706 15.923 12.938 15.9866 13.2187 15.9495C13.4994 15.9124 13.7483 15.7852 13.9654 15.5678L15.0776 14.4626C15.2947 14.2452 15.4218 13.9961 15.4589 13.7152C15.496 13.4342 15.4324 13.1665 15.2682 12.9121L14.4579 11.6239L14.5533 11.3854L16.0388 11.0355C16.3301 10.9666 16.5631 10.8209 16.7379 10.5982C16.9126 10.3756 17 10.1132 17 9.81104V8.23667C17 7.93452 16.9126 7.67212 16.7379 7.44949C16.5631 7.22685 16.3301 7.08107 16.0388 7.01216L14.5692 6.65435L14.4659 6.39991L15.2762 5.11179C15.4403 4.85734 15.5039 4.5923 15.4668 4.31665C15.4298 4.0357 15.3026 3.78391 15.0855 3.56127L13.9734 2.44808C13.7615 2.23605 13.5153 2.11147 13.2346 2.07437C12.9539 2.03726 12.6864 2.09822 12.4322 2.25725L11.1374 3.05239L10.8673 2.94902L10.5257 1.46211C10.4569 1.17056 10.3112 0.937325 10.0888 0.762395C9.87165 0.587465 9.6095 0.5 9.30234 0.5H7.69766C7.3905 0.5 7.1257 0.587465 6.90327 0.762395C6.68614 0.937325 6.54315 1.17056 6.4743 1.46211L6.12477 2.94902L5.85467 3.05239L4.56776 2.25725C4.30826 2.09822 4.03816 2.03726 3.75748 2.07437C3.48209 2.11147 3.23583 2.23605 3.01869 2.44808L1.91449 3.56127C1.69206 3.78391 1.56231 4.0357 1.52523 4.31665C1.49346 4.5923 1.55966 4.85734 1.72383 5.11179L2.52617 6.39991L2.43084 6.65435L0.961215 7.01216C0.664642 7.08107 0.428972 7.22685 0.254206 7.44949C0.0847352 7.67212 0 7.93452 0 8.23667V9.81104C0 10.1132 0.0873832 10.3756 0.26215 10.5982C0.436916 10.8209 0.669938 10.9666 0.961215 11.0355L2.44673 11.3854L2.53411 11.6239L1.73178 12.9121C1.5676 13.1665 1.5014 13.4342 1.53318 13.7152C1.57025 13.9961 1.7 14.2452 1.92243 14.4626L3.02664 15.5678C3.24377 15.7852 3.49268 15.9124 3.77336 15.9495C4.05405 15.9866 4.32414 15.923 4.58364 15.7587L5.87056 14.9635L6.12477 15.051L6.4743 16.5379C6.54315 16.8347 6.68614 17.068 6.90327 17.2376C7.1257 17.4125 7.3905 17.5 7.69766 17.5ZM7.82477 16.2596C7.69237 16.2596 7.61558 16.1986 7.59439 16.0767L7.11776 14.1048C6.87414 14.0465 6.64112 13.9722 6.41869 13.8821C6.20156 13.7867 6.00826 13.686 5.83879 13.58L4.10701 14.6455C4.01168 14.7144 3.91371 14.7011 3.81308 14.6057L2.8757 13.6674C2.79097 13.5879 2.78037 13.4899 2.84393 13.3732L3.90841 11.6558C3.81838 11.4861 3.7257 11.2926 3.63037 11.0753C3.53505 10.858 3.45561 10.6274 3.39206 10.3835L1.42196 9.91441C1.30016 9.8932 1.23925 9.81634 1.23925 9.68382V8.35594C1.23925 8.22872 1.30016 8.15186 1.42196 8.12535L3.38411 7.64827C3.44766 7.38853 3.52975 7.14733 3.63037 6.9247C3.73629 6.70206 3.82368 6.51653 3.89252 6.3681L2.83598 4.65061C2.76713 4.53399 2.77508 4.43062 2.85981 4.34051L3.80514 3.41815C3.90047 3.33333 4.00109 3.32008 4.10701 3.37839L5.8229 4.42002C5.99237 4.3246 6.19097 4.22919 6.41869 4.13377C6.65171 4.03835 6.88738 3.95884 7.1257 3.89523L7.59439 1.92329C7.61558 1.80137 7.69237 1.74041 7.82477 1.74041H9.17523C9.30763 1.74041 9.38178 1.80137 9.39766 1.92329L9.88224 3.91113C10.1312 3.97474 10.3615 4.05426 10.5734 4.14967C10.7905 4.23979 10.9864 4.33255 11.1612 4.42797L12.885 3.37839C12.9963 3.32008 13.0995 3.33333 13.1949 3.41815L14.1322 4.34051C14.2223 4.43062 14.2302 4.53399 14.1561 4.65061L13.0995 6.3681C13.1737 6.51653 13.2611 6.70206 13.3617 6.9247C13.4623 7.14733 13.5444 7.38853 13.6079 7.64827L15.578 8.12535C15.6998 8.15186 15.7607 8.22872 15.7607 8.35594V9.68382C15.7607 9.81634 15.6998 9.8932 15.578 9.91441L13.6 10.3835C13.5364 10.6274 13.457 10.858 13.3617 11.0753C13.2717 11.2926 13.179 11.4861 13.0836 11.6558L14.1481 13.3732C14.217 13.4899 14.2064 13.5879 14.1164 13.6674L13.1869 14.6057C13.0863 14.7011 12.9857 14.7144 12.885 14.6455L11.1533 13.58C10.9838 13.686 10.7905 13.7867 10.5734 13.8821C10.3562 13.9722 10.1259 14.0465 9.88224 14.1048L9.39766 16.0767C9.38178 16.1986 9.30763 16.2596 9.17523 16.2596H7.82477ZM8.5 12.0374C9.05608 12.0374 9.56184 11.9022 10.0173 11.6319C10.478 11.3563 10.8435 10.9878 11.1136 10.5267C11.3889 10.0655 11.5266 9.55659 11.5266 9C11.5266 8.44871 11.3889 7.94512 11.1136 7.48924C10.8435 7.02806 10.478 6.6623 10.0173 6.39196C9.56184 6.11631 9.05608 5.97848 8.5 5.97848C7.94393 5.97848 7.43551 6.11631 6.97477 6.39196C6.51931 6.6623 6.15389 7.02806 5.8785 7.48924C5.60312 7.94512 5.46542 8.44871 5.46542 9C5.46542 9.55659 5.60312 10.0655 5.8785 10.5267C6.15389 10.9825 6.51931 11.3483 6.97477 11.6239C7.43551 11.8996 7.94393 12.0374 8.5 12.0374ZM8.5 10.805C8.17165 10.805 7.86978 10.7254 7.59439 10.5664C7.3243 10.4021 7.10717 10.1848 6.94299 9.91441C6.78411 9.63876 6.70467 9.33396 6.70467 9C6.70467 8.67134 6.78411 8.37184 6.94299 8.1015C7.10717 7.83115 7.3243 7.61646 7.59439 7.45744C7.86978 7.29311 8.17165 7.21095 8.5 7.21095C8.82305 7.21095 9.11963 7.29311 9.38972 7.45744C9.65981 7.61646 9.8743 7.83115 10.0332 8.1015C10.1974 8.37184 10.2794 8.67134 10.2794 9C10.2794 9.32866 10.1974 9.63081 10.0332 9.90646C9.8743 10.1768 9.65981 10.3941 9.38972 10.5585C9.11963 10.7228 8.82305 10.805 8.5 10.805Z"
		fill="currentColor"
	/>
</svg>
