<svg
	color="rgb(var(--foreground, 0, 0, 0))"
	viewBox="0 0 21 18"
	fill="none"
	xmlns="http://www.w3.org/2000/svg"
>
	<path
		d="M5.4859 12.7304H6.52069C6.67794 12.7304 6.80728 12.6864 6.90873 12.5985C7.01526 12.5106 7.08627 12.3943 7.12178 12.2495L7.42613 10.9699C7.53265 10.9285 7.63664 10.8872 7.73809 10.8458C7.83954 10.8044 7.93591 10.7579 8.02722 10.7062L9.13049 11.4042C9.2573 11.4818 9.38918 11.5154 9.52614 11.505C9.6631 11.4895 9.78484 11.4275 9.89136 11.3189L10.6218 10.5666C10.7232 10.458 10.7816 10.3339 10.7968 10.1943C10.8171 10.0496 10.7867 9.90998 10.7055 9.77555L10.0283 8.67427C10.074 8.57603 10.1171 8.4778 10.1577 8.37956C10.2033 8.27616 10.2414 8.17275 10.2718 8.06934L11.5272 7.75912C11.6794 7.72293 11.7961 7.65313 11.8772 7.54973C11.9635 7.44632 12.0066 7.31448 12.0066 7.1542V6.10721C12.0066 5.78148 11.8468 5.57984 11.5272 5.50228L10.287 5.18431C10.2464 5.07056 10.2059 4.96457 10.1653 4.86633C10.1247 4.76293 10.0841 4.66727 10.0435 4.57938L10.7055 3.45484C10.7816 3.31524 10.8171 3.17822 10.812 3.0438C10.8069 2.90937 10.7486 2.78786 10.637 2.67929L9.89136 1.93476C9.78484 1.83136 9.66563 1.76931 9.53375 1.74863C9.40187 1.72795 9.27252 1.75639 9.1457 1.83394L8.02722 2.53969C7.94099 2.48799 7.84715 2.44145 7.7457 2.40009C7.64425 2.35873 7.53772 2.31995 7.42613 2.28376L7.12178 0.980839C7.08627 0.836071 7.01526 0.719738 6.90873 0.631843C6.80728 0.543948 6.67794 0.5 6.52069 0.5H5.4859C5.32865 0.5 5.19677 0.543948 5.09025 0.631843C4.9888 0.719738 4.92032 0.836071 4.88481 0.980839L4.58046 2.26825C4.47394 2.30961 4.36742 2.35097 4.26089 2.39234C4.15944 2.4337 4.06307 2.48023 3.97176 2.53193L2.86089 1.83394C2.73407 1.75639 2.60472 1.72795 2.47284 1.74863C2.34096 1.76931 2.22175 1.83136 2.11523 1.93476L1.36957 2.67929C1.25798 2.78786 1.19964 2.90937 1.19457 3.0438C1.1895 3.17822 1.22501 3.31524 1.30109 3.45484L1.96305 4.57938C1.92247 4.66727 1.88189 4.76293 1.84131 4.86633C1.80073 4.96457 1.76015 5.07056 1.71957 5.18431L0.471742 5.50228C0.157247 5.57984 0 5.78148 0 6.10721V7.1542C0 7.31448 0.0405799 7.44632 0.12174 7.54973C0.207972 7.65313 0.32464 7.72293 0.471742 7.75912L1.73479 8.06934C1.76523 8.17275 1.80073 8.27616 1.84131 8.37956C1.88697 8.4778 1.93262 8.57603 1.97827 8.67427L1.30109 9.77555C1.21993 9.90998 1.18696 10.0496 1.20218 10.1943C1.22247 10.3339 1.28334 10.458 1.38479 10.5666L2.11523 11.3189C2.22175 11.4275 2.34349 11.4895 2.48045 11.505C2.61741 11.5154 2.74929 11.4818 2.8761 11.4042L3.97937 10.7062C4.07068 10.7579 4.16705 10.8044 4.2685 10.8458C4.36995 10.8872 4.47394 10.9285 4.58046 10.9699L4.88481 12.2495C4.92032 12.3943 4.9888 12.5106 5.09025 12.5985C5.19677 12.6864 5.32865 12.7304 5.4859 12.7304ZM6.00329 8.56569C5.65329 8.56569 5.33119 8.4778 5.03698 8.30201C4.74785 8.12622 4.51705 7.89097 4.34459 7.59626C4.17212 7.29638 4.08589 6.96548 4.08589 6.60356C4.08589 6.25198 4.17212 5.92883 4.34459 5.63412C4.51705 5.33942 4.74785 5.10417 5.03698 4.92838C5.33119 4.75258 5.65329 4.66469 6.00329 4.66469C6.3533 4.66469 6.67286 4.75258 6.962 4.92838C7.25113 5.10417 7.48193 5.33942 7.65439 5.63412C7.83193 5.92883 7.9207 6.25198 7.9207 6.60356C7.9207 6.96548 7.83193 7.29638 7.65439 7.59626C7.48193 7.89097 7.25113 8.12622 6.962 8.30201C6.67286 8.4778 6.3533 8.56569 6.00329 8.56569ZM15.4153 17.5H16.2827C16.4197 17.5 16.5338 17.4612 16.6251 17.3837C16.7164 17.3113 16.7773 17.213 16.8077 17.089L17.0588 15.9799C17.1552 15.9437 17.2464 15.9075 17.3326 15.8713C17.4239 15.8352 17.5101 15.7938 17.5913 15.7473L18.5424 16.3522C18.6489 16.4194 18.7605 16.4478 18.8772 16.4375C18.9938 16.4272 19.1004 16.3755 19.1967 16.2824L19.8054 15.6542C19.8967 15.556 19.95 15.4448 19.9652 15.3207C19.9804 15.1966 19.9525 15.0803 19.8815 14.9717L19.2956 14.01C19.3362 13.9273 19.3743 13.842 19.4098 13.7541C19.4453 13.6662 19.4783 13.5783 19.5087 13.4904L20.6043 13.2267C20.8681 13.1647 21 12.9889 21 12.6994V11.823C21 11.5283 20.8681 11.3499 20.6043 11.2879L19.5163 11.0242C19.4504 10.8122 19.3793 10.6364 19.3033 10.4968L19.8815 9.51962C19.9525 9.40587 19.983 9.29212 19.9728 9.17838C19.9677 9.05946 19.917 8.95088 19.8206 8.85265L19.1967 8.23221C19.1004 8.13914 18.9938 8.08485 18.8772 8.06934C18.7656 8.04866 18.6565 8.07193 18.55 8.13914L17.5913 8.75182C17.5152 8.71563 17.4315 8.67686 17.3402 8.63549C17.2489 8.59413 17.1552 8.56052 17.0588 8.53467L16.8077 7.40237C16.7773 7.27828 16.7164 7.17746 16.6251 7.09991C16.5338 7.02235 16.4197 6.98358 16.2827 6.98358H15.4153C15.2783 6.98358 15.1642 7.02235 15.0729 7.09991C14.9816 7.17746 14.9207 7.27828 14.8903 7.40237L14.6316 8.51916C14.5403 8.55535 14.449 8.59155 14.3577 8.62774C14.2664 8.65876 14.1802 8.69754 14.099 8.74407L13.1403 8.13914C13.0388 8.0771 12.9298 8.05383 12.8131 8.06934C12.6964 8.08485 12.5925 8.13914 12.5012 8.23221L11.8848 8.85265C11.7834 8.95088 11.7276 9.05946 11.7175 9.17838C11.7124 9.29212 11.7454 9.40587 11.8164 9.51962L12.387 10.4968C12.3515 10.5692 12.316 10.6493 12.2805 10.7372C12.2501 10.8251 12.2171 10.9208 12.1816 11.0242L11.1011 11.2879C10.9743 11.3189 10.8729 11.3809 10.7968 11.474C10.7258 11.5671 10.6903 11.6834 10.6903 11.823V12.6994C10.6903 12.839 10.7258 12.9553 10.7968 13.0484C10.8729 13.1414 10.9743 13.2009 11.1011 13.2267L12.1968 13.4904C12.2222 13.5783 12.2526 13.6662 12.2881 13.7541C12.3236 13.842 12.3617 13.9273 12.4022 14.01L11.8164 14.9717C11.7403 15.0803 11.7098 15.1966 11.7251 15.3207C11.7454 15.4448 11.8012 15.556 11.8925 15.6542L12.5012 16.2824C12.5925 16.3755 12.6964 16.4272 12.8131 16.4375C12.9349 16.4478 13.049 16.4194 13.1555 16.3522L14.1066 15.7473C14.1878 15.7938 14.2715 15.8352 14.3577 15.8713C14.449 15.9075 14.5403 15.9437 14.6316 15.9799L14.8903 17.089C14.9207 17.213 14.9816 17.3113 15.0729 17.3837C15.1642 17.4612 15.2783 17.5 15.4153 17.5ZM15.849 13.7929C15.4331 13.7929 15.0754 13.6429 14.7762 13.3431C14.4769 13.038 14.3273 12.6683 14.3273 12.234C14.3273 11.8101 14.4769 11.4481 14.7762 11.1483C15.0754 10.8432 15.4331 10.6907 15.849 10.6907C16.27 10.6907 16.6276 10.8432 16.9218 11.1483C17.2211 11.4481 17.3706 11.8101 17.3706 12.234C17.3706 12.6683 17.2211 13.038 16.9218 13.3431C16.6276 13.6429 16.27 13.7929 15.849 13.7929Z"
		fill="currentColor"
	/>
</svg>
