<svg
	color="rgb(var(--foreground, 0, 0, 0))"
	viewBox="0 0 21 18"
	fill="none"
	xmlns="http://www.w3.org/2000/svg"
>
	<path
		d="M5.45663 12.7847H6.57398C6.81378 12.7847 7.02041 12.717 7.19388 12.5814C7.37245 12.4407 7.48725 12.253 7.53827 12.0184L7.75255 11.0253C7.76276 11.0201 7.77551 11.0149 7.79082 11.0097C7.80612 11.0044 7.81888 10.9992 7.82908 10.994L8.69388 11.5258C8.88776 11.6457 9.09439 11.6926 9.31378 11.6665C9.53827 11.6404 9.73214 11.544 9.89541 11.3772L10.676 10.5718C10.8495 10.3945 10.9464 10.1938 10.9668 9.96964C10.9923 9.74548 10.9439 9.53434 10.8214 9.33625L10.2934 8.4839C10.2934 8.47869 10.2934 8.47347 10.2934 8.46826C10.2985 8.45783 10.301 8.45002 10.301 8.4448C10.3061 8.43959 10.3087 8.43438 10.3087 8.42916C10.3138 8.41874 10.3189 8.40831 10.324 8.39788L11.2806 8.16329C11.5051 8.10595 11.6862 7.98865 11.824 7.81141C11.9617 7.62895 12.0306 7.41521 12.0306 7.17019V6.10672C12.0306 5.8617 11.9617 5.65057 11.824 5.47332C11.6913 5.29086 11.5102 5.17096 11.2806 5.11362L10.324 4.87902C10.3189 4.86339 10.3138 4.85035 10.3087 4.83993C10.3036 4.82429 10.2985 4.80865 10.2934 4.79301L10.8214 3.94066C10.9439 3.73735 10.9923 3.52622 10.9668 3.30727C10.9464 3.0831 10.8495 2.8824 10.676 2.70515L9.89541 1.90754C9.73214 1.74072 9.53827 1.64428 9.31378 1.61822C9.09439 1.59215 8.88776 1.63907 8.69388 1.75897L7.82908 2.28289C7.82398 2.28289 7.81633 2.28289 7.80612 2.28289C7.80102 2.27768 7.79337 2.27507 7.78316 2.27507C7.77806 2.26986 7.77296 2.26725 7.76786 2.26725C7.76276 2.26204 7.7551 2.25943 7.7449 2.25943L7.53827 1.25851C7.49235 1.02913 7.3801 0.846673 7.20153 0.711132C7.02296 0.570377 6.81378 0.5 6.57398 0.5H5.45663C5.21684 0.5 5.00765 0.570377 4.82908 0.711132C4.65561 0.846673 4.54337 1.02913 4.49235 1.25851L4.27806 2.25943C4.26275 2.26464 4.24745 2.26986 4.23214 2.27507C4.22194 2.27507 4.20918 2.27768 4.19388 2.28289L3.33673 1.75897C3.14286 1.63907 2.93367 1.59215 2.70918 1.61822C2.4898 1.64428 2.29847 1.74072 2.1352 1.90754L1.35459 2.70515C1.18112 2.8824 1.08418 3.0831 1.06378 3.30727C1.04337 3.53143 1.09184 3.74256 1.20918 3.94066L1.73724 4.79301C1.73724 4.80343 1.73469 4.81125 1.72959 4.81647C1.72449 4.82168 1.71939 4.8295 1.71429 4.83993C1.71429 4.84514 1.71429 4.85296 1.71429 4.86339C1.71429 4.8686 1.71173 4.87381 1.70663 4.87902L0.742347 5.11362C0.517857 5.17096 0.336735 5.29086 0.19898 5.47332C0.0663265 5.65057 0 5.8617 0 6.10672V7.17019C0 7.41521 0.0663265 7.62895 0.19898 7.81141C0.336735 7.98865 0.517857 8.10595 0.742347 8.16329L1.70663 8.39788C1.71173 8.41352 1.71684 8.42916 1.72194 8.4448C1.72704 8.45523 1.73214 8.46826 1.73724 8.4839L1.20918 9.33625C1.08673 9.53434 1.03571 9.74548 1.05612 9.96964C1.08163 10.1938 1.18112 10.3945 1.35459 10.5718L2.1352 11.3772C2.29847 11.544 2.4898 11.6404 2.70918 11.6665C2.92857 11.6926 3.1352 11.6457 3.32908 11.5258L4.20153 10.994C4.21173 10.9992 4.22449 11.0044 4.2398 11.0097C4.2551 11.0149 4.26786 11.0201 4.27806 11.0253L4.49235 12.0184C4.54337 12.253 4.65561 12.4407 4.82908 12.5814C5.00765 12.717 5.21684 12.7847 5.45663 12.7847ZM5.60204 11.69C5.56122 11.69 5.53061 11.6795 5.5102 11.6587C5.4898 11.6378 5.47449 11.6092 5.46429 11.5727L5.1352 10.173C4.95153 10.1312 4.77551 10.0739 4.60714 10.0009C4.44388 9.92272 4.29592 9.84453 4.16327 9.76633L2.96939 10.5092C2.93367 10.5301 2.90051 10.5405 2.8699 10.5405C2.83929 10.5353 2.81122 10.5196 2.78571 10.4936L2.20408 9.90708C2.17347 9.88102 2.15816 9.85495 2.15816 9.82889C2.15816 9.79761 2.16837 9.76372 2.18878 9.72723L2.90816 8.51518C2.86224 8.39528 2.79847 8.25192 2.71684 8.0851C2.6352 7.91306 2.57143 7.72539 2.52551 7.52208L1.17857 7.19365C1.13776 7.18323 1.10714 7.16759 1.08673 7.14673C1.07143 7.12588 1.06378 7.0946 1.06378 7.0529V6.22401C1.06378 6.18752 1.07143 6.15885 1.08673 6.13799C1.10714 6.11193 1.13776 6.09629 1.17857 6.09108L2.52551 5.76265C2.57143 5.55412 2.6352 5.36645 2.71684 5.19963C2.79847 5.0276 2.86224 4.88163 2.90816 4.76173L2.18878 3.54968C2.16837 3.51319 2.15816 3.48191 2.15816 3.45584C2.15816 3.42978 2.17347 3.4011 2.20408 3.36983L2.78571 2.79117C2.81122 2.75989 2.83929 2.74425 2.8699 2.74425C2.90051 2.73904 2.93367 2.74686 2.96939 2.76771L4.16327 3.51058C4.29592 3.4376 4.44388 3.36461 4.60714 3.29163C4.77551 3.21343 4.95153 3.15087 5.1352 3.10396L5.46429 1.71205C5.47449 1.67035 5.4898 1.64167 5.5102 1.62603C5.53061 1.60518 5.56122 1.59476 5.60204 1.59476H6.42857C6.46939 1.59476 6.5 1.60518 6.52041 1.62603C6.54082 1.64167 6.55612 1.67035 6.56633 1.71205L6.89541 3.10396C7.07908 3.15087 7.25255 3.21343 7.41582 3.29163C7.58418 3.36461 7.73469 3.4376 7.86735 3.51058L9.06122 2.76771C9.09694 2.74686 9.12755 2.73904 9.15306 2.74425C9.18367 2.74425 9.21429 2.75989 9.2449 2.79117L9.82653 3.36983C9.85714 3.4011 9.87245 3.42978 9.87245 3.45584C9.87245 3.48191 9.86224 3.51319 9.84184 3.54968L9.12245 4.76173C9.16837 4.88163 9.23214 5.0276 9.31378 5.19963C9.39541 5.36645 9.45918 5.55412 9.5051 5.76265L10.852 6.09108C10.8929 6.09629 10.9209 6.11193 10.9362 6.13799C10.9566 6.15885 10.9668 6.18752 10.9668 6.22401V7.0529C10.9668 7.0946 10.9566 7.12588 10.9362 7.14673C10.9209 7.16759 10.8929 7.18323 10.852 7.19365L9.5051 7.52208C9.45918 7.72539 9.39541 7.91306 9.31378 8.0851C9.23214 8.25192 9.16837 8.39528 9.12245 8.51518L9.84184 9.72723C9.86224 9.76372 9.87245 9.79761 9.87245 9.82889C9.87245 9.85495 9.85714 9.88102 9.82653 9.90708L9.2449 10.4936C9.21429 10.5196 9.18367 10.5353 9.15306 10.5405C9.12755 10.5405 9.09694 10.5301 9.06122 10.5092L7.86735 9.76633C7.73469 9.84453 7.58418 9.92272 7.41582 10.0009C7.25255 10.0739 7.07908 10.1312 6.89541 10.173L6.56633 11.5727C6.55612 11.6092 6.54082 11.6378 6.52041 11.6587C6.5 11.6795 6.46939 11.69 6.42857 11.69H5.60204ZM6.01531 9.01564C6.43878 9.01564 6.82398 8.90877 7.17092 8.69503C7.52296 8.47608 7.80102 8.18936 8.0051 7.83487C8.21429 7.47516 8.31888 7.07636 8.31888 6.63845C8.31888 6.20576 8.21429 5.81217 8.0051 5.45768C7.80102 5.10319 7.52296 4.81907 7.17092 4.60534C6.82398 4.3916 6.43878 4.28473 6.01531 4.28473C5.58673 4.28473 5.19643 4.3916 4.84439 4.60534C4.49745 4.81907 4.21939 5.10319 4.0102 5.45768C3.80102 5.81217 3.69643 6.20576 3.69643 6.63845C3.69643 7.07114 3.80102 7.46734 4.0102 7.82705C4.21939 8.18675 4.49745 8.47608 4.84439 8.69503C5.19643 8.90877 5.58673 9.01564 6.01531 9.01564ZM6.01531 7.85833C5.80102 7.85833 5.60204 7.80359 5.41837 7.69411C5.2398 7.58464 5.09439 7.43867 4.98214 7.25621C4.875 7.07375 4.82143 6.86783 4.82143 6.63845C4.82143 6.4195 4.875 6.2188 4.98214 6.03634C5.09439 5.85388 5.2398 5.70791 5.41837 5.59844C5.60204 5.48896 5.80102 5.43422 6.01531 5.43422C6.22959 5.43422 6.42602 5.48896 6.60459 5.59844C6.78316 5.70791 6.92347 5.85388 7.02551 6.03634C7.13265 6.2188 7.18622 6.4195 7.18622 6.63845C7.18622 6.86262 7.13265 7.06854 7.02551 7.25621C6.92347 7.43867 6.78316 7.58464 6.60459 7.69411C6.42602 7.80359 6.22959 7.85833 6.01531 7.85833ZM15.4974 17.5H16.3776C16.5918 17.5 16.7806 17.44 16.9439 17.3201C17.1122 17.2002 17.2143 17.0386 17.25 16.8353L17.3954 16.0455C17.4107 16.0455 17.4235 16.0429 17.4337 16.0377C17.449 16.0325 17.4643 16.0273 17.4796 16.0221L18.1301 16.4365C18.3087 16.5512 18.4974 16.5955 18.6964 16.5695C18.8954 16.5434 19.0714 16.4496 19.2245 16.2879L19.8444 15.6546C19.9974 15.4929 20.0867 15.3105 20.1122 15.1072C20.1378 14.9039 20.0918 14.711 19.9745 14.5285L19.5612 13.8873C19.5612 13.8821 19.5612 13.8769 19.5612 13.8717C19.5663 13.8612 19.5689 13.8534 19.5689 13.8482C19.574 13.843 19.5765 13.8378 19.5765 13.8326C19.5816 13.8221 19.5867 13.8143 19.5918 13.8091L20.3495 13.6449C20.5434 13.6032 20.699 13.5015 20.8163 13.3399C20.9388 13.1731 21 12.9776 21 12.7535V11.8776C21 11.6587 20.9388 11.4658 20.8163 11.299C20.699 11.1322 20.5434 11.0279 20.3495 10.9862L19.5918 10.8298C19.5867 10.8142 19.5816 10.8011 19.5765 10.7907C19.5714 10.7751 19.5663 10.7594 19.5612 10.7438L19.9745 10.1026C20.0918 9.92012 20.1378 9.72723 20.1122 9.52392C20.0867 9.32061 19.9974 9.14075 19.8444 8.98436L19.2245 8.34315C19.0714 8.18154 18.8954 8.09031 18.6964 8.06946C18.4974 8.04339 18.3087 8.0851 18.1301 8.19457L17.4796 8.60902C17.4745 8.60902 17.4668 8.60902 17.4566 8.60902C17.4515 8.6038 17.4464 8.6012 17.4413 8.6012C17.4362 8.59598 17.4286 8.59338 17.4184 8.59338C17.4133 8.58816 17.4056 8.58556 17.3954 8.58556L17.25 7.80359C17.2143 7.59506 17.1122 7.43085 16.9439 7.31095C16.7806 7.19105 16.5918 7.13109 16.3776 7.13109H15.4974C15.2781 7.13109 15.0842 7.19105 14.9158 7.31095C14.7526 7.43085 14.6531 7.59506 14.6173 7.80359L14.4719 8.58556C14.4566 8.59077 14.4413 8.59598 14.426 8.6012C14.4158 8.6012 14.4031 8.6038 14.3878 8.60902L13.7372 8.19457C13.5587 8.0851 13.3699 8.04339 13.1709 8.06946C12.977 8.09031 12.8036 8.18154 12.6505 8.34315L12.0306 8.98436C11.8776 9.14075 11.7857 9.32061 11.7551 9.52392C11.7296 9.72723 11.7755 9.92012 11.8929 10.1026L12.3061 10.7438C12.3061 10.749 12.3036 10.7568 12.2985 10.7672C12.2985 10.7725 12.2959 10.7777 12.2908 10.7829C12.2908 10.7881 12.2883 10.7959 12.2832 10.8063C12.2832 10.8116 12.2832 10.8194 12.2832 10.8298L11.5255 10.9862C11.3265 11.0279 11.1658 11.1322 11.0434 11.299C10.926 11.4658 10.8673 11.6587 10.8673 11.8776V12.7535C10.8673 12.9776 10.926 13.1731 11.0434 13.3399C11.1658 13.5015 11.3265 13.6032 11.5255 13.6449L12.2832 13.8091C12.2883 13.8247 12.2908 13.8378 12.2908 13.8482C12.2959 13.8586 12.301 13.8717 12.3061 13.8873L11.8929 14.5285C11.7755 14.711 11.7296 14.9039 11.7551 15.1072C11.7857 15.3105 11.8776 15.4929 12.0306 15.6546L12.6505 16.2879C12.8036 16.4496 12.977 16.5434 13.1709 16.5695C13.3699 16.5955 13.5587 16.5512 13.7372 16.4365L14.3878 16.0221C14.3929 16.0221 14.398 16.0221 14.4031 16.0221C14.4133 16.0273 14.4209 16.0299 14.426 16.0299C14.4362 16.0351 14.4439 16.0377 14.449 16.0377C14.4541 16.0429 14.4617 16.0455 14.4719 16.0455L14.6173 16.8353C14.6531 17.0386 14.7526 17.2002 14.9158 17.3201C15.0842 17.44 15.2781 17.5 15.4974 17.5ZM15.6964 16.46C15.6505 16.46 15.6148 16.4496 15.5893 16.4287C15.5689 16.4079 15.551 16.3766 15.5357 16.3349L15.2679 15.2088C14.9617 15.1411 14.6709 15.0159 14.3954 14.8335L13.4311 15.4512C13.4005 15.4721 13.3673 15.4799 13.3316 15.4747C13.2959 15.4695 13.2628 15.4538 13.2321 15.4278L12.8878 15.0603C12.852 15.0238 12.8316 14.9899 12.8265 14.9586C12.8265 14.9273 12.8367 14.8934 12.8571 14.8569L13.4388 13.8951C13.4082 13.8013 13.352 13.6762 13.2704 13.5198C13.1939 13.3582 13.1352 13.1809 13.0944 12.988L12 12.73C11.9643 12.7248 11.9337 12.7091 11.9082 12.6831C11.8878 12.6518 11.8776 12.6153 11.8776 12.5736V12.0575C11.8776 12.021 11.8878 11.9897 11.9082 11.9637C11.9337 11.9324 11.9643 11.9115 12 11.9011L13.0944 11.6431C13.1352 11.4502 13.1939 11.2755 13.2704 11.1191C13.352 10.9627 13.4082 10.835 13.4388 10.736L12.8571 9.77415C12.8367 9.74287 12.8265 9.71159 12.8265 9.68031C12.8316 9.64382 12.852 9.60733 12.8878 9.57084L13.2321 9.21113C13.2628 9.17985 13.2959 9.16421 13.3316 9.16421C13.3673 9.159 13.4005 9.16682 13.4311 9.18767L14.3954 9.79761C14.6709 9.62036 14.9617 9.49525 15.2679 9.42226L15.5357 8.29623C15.551 8.25974 15.5689 8.23106 15.5893 8.21021C15.6148 8.18415 15.6505 8.17111 15.6964 8.17111H16.1709C16.2168 8.17111 16.2526 8.18415 16.2781 8.21021C16.3036 8.23106 16.3214 8.25974 16.3316 8.29623L16.5995 9.42226C16.9107 9.49525 17.2015 9.62036 17.4719 9.79761L18.4362 9.18767C18.4719 9.16682 18.5051 9.159 18.5357 9.16421C18.5714 9.16421 18.6046 9.17985 18.6352 9.21113L18.9872 9.57084C19.0179 9.60733 19.0357 9.64382 19.0408 9.68031C19.0459 9.71159 19.0383 9.74287 19.0179 9.77415L18.4286 10.736C18.4643 10.835 18.5204 10.9627 18.5969 11.1191C18.6786 11.2755 18.7372 11.4502 18.773 11.6431L19.8673 11.9011C19.9082 11.9115 19.9388 11.9324 19.9592 11.9637C19.9796 11.9897 19.9898 12.021 19.9898 12.0575V12.5736C19.9898 12.6153 19.9796 12.6518 19.9592 12.6831C19.9388 12.7091 19.9082 12.7248 19.8673 12.73L18.773 12.988C18.7372 13.1809 18.6786 13.3582 18.5969 13.5198C18.5204 13.6762 18.4643 13.8013 18.4286 13.8951L19.0179 14.8569C19.0383 14.8934 19.0459 14.9273 19.0408 14.9586C19.0357 14.9899 19.0179 15.0238 18.9872 15.0603L18.6352 15.4278C18.6046 15.4538 18.5714 15.4695 18.5357 15.4747C18.5051 15.4799 18.4719 15.4721 18.4362 15.4512L17.4719 14.8335C17.2015 15.0159 16.9107 15.1411 16.5995 15.2088L16.3316 16.3349C16.3214 16.3766 16.3036 16.4079 16.2781 16.4287C16.2526 16.4496 16.2168 16.46 16.1709 16.46H15.6964ZM15.9337 14.1532C16.2602 14.1532 16.5587 14.0698 16.8291 13.9029C17.0995 13.7361 17.3163 13.5146 17.4796 13.2383C17.6429 12.962 17.7245 12.6544 17.7245 12.3155C17.7245 11.9819 17.6429 11.6769 17.4796 11.4006C17.3163 11.1243 17.0995 10.9054 16.8291 10.7438C16.5587 10.577 16.2602 10.4936 15.9337 10.4936C15.602 10.4936 15.2985 10.577 15.023 10.7438C14.7526 10.9054 14.5357 11.1243 14.3724 11.4006C14.2143 11.6769 14.1352 11.9819 14.1352 12.3155C14.1352 12.6492 14.2143 12.9568 14.3724 13.2383C14.5357 13.5146 14.7526 13.7361 15.023 13.9029C15.2985 14.0698 15.602 14.1532 15.9337 14.1532ZM15.9337 13.1679C15.7041 13.1679 15.5077 13.0845 15.3444 12.9177C15.1862 12.7508 15.1071 12.5501 15.1071 12.3155C15.1071 12.0862 15.1862 11.8907 15.3444 11.7291C15.5077 11.5675 15.7041 11.4867 15.9337 11.4867C16.1531 11.4867 16.3418 11.5675 16.5 11.7291C16.6633 11.8907 16.7449 12.0862 16.7449 12.3155C16.7449 12.5449 16.6633 12.7456 16.5 12.9177C16.3418 13.0845 16.1531 13.1679 15.9337 13.1679Z"
		fill="currentColor"
	/>
</svg>
