<svg
	color="rgb(var(--foreground, 0, 0, 0))"
	viewBox="0 0 18 18"
	fill="none"
	xmlns="http://www.w3.org/2000/svg"
>
	<path
		d="M9.00003 16.894C9.1066 16.894 9.20785 16.8913 9.30376 16.8858C9.405 16.8804 9.51157 16.8723 9.62348 16.8615L10.0791 17.7454C10.127 17.8373 10.191 17.9049 10.2709 17.9481C10.3562 17.9914 10.4547 18.0076 10.5666 17.9968C10.6625 17.9751 10.7425 17.9292 10.8064 17.8589C10.8757 17.7886 10.9183 17.6994 10.9343 17.5913L11.0702 16.6101C11.2673 16.5561 11.4645 16.4912 11.6617 16.4155C11.8588 16.3399 12.0506 16.2615 12.2371 16.1804L12.9565 16.8372C13.0311 16.9075 13.1164 16.948 13.2123 16.9588C13.3082 16.975 13.4041 16.9561 13.5 16.9021C13.6812 16.7939 13.7505 16.6237 13.7078 16.3912L13.508 15.4263C13.6732 15.3073 13.8357 15.1803 13.9956 15.0451C14.1608 14.91 14.318 14.7694 14.4672 14.6235L15.3544 14.9965C15.4556 15.0397 15.5515 15.0505 15.6421 15.0289C15.7327 15.0073 15.8179 14.9505 15.8979 14.8586C15.9618 14.783 15.9965 14.6965 16.0018 14.5992C16.0124 14.5018 15.9885 14.4072 15.9298 14.3153L15.4103 13.472C15.5329 13.3044 15.6421 13.1288 15.738 12.9449C15.8393 12.7611 15.9352 12.5719 16.0258 12.3773L17.0089 12.426C17.1101 12.4314 17.2007 12.4071 17.2806 12.353C17.3659 12.2989 17.4245 12.2233 17.4565 12.126C17.4885 12.0232 17.4885 11.9259 17.4565 11.834C17.4298 11.7421 17.3766 11.6638 17.2966 11.5989L16.5293 10.9826C16.5826 10.7826 16.6279 10.5799 16.6652 10.3744C16.7078 10.1636 16.7371 9.95009 16.7531 9.73385L17.6723 9.43382C17.7735 9.40139 17.8535 9.34733 17.9121 9.27165C17.9707 9.19596 18 9.10406 18 8.99595C18 8.88783 17.9707 8.79593 17.9121 8.72024C17.8535 8.64456 17.7735 8.5878 17.6723 8.54996L16.7531 8.25804C16.7371 8.0364 16.7078 7.82287 16.6652 7.61744C16.6279 7.41202 16.5826 7.2093 16.5293 7.00928L17.2966 6.39301C17.3766 6.32814 17.4298 6.25246 17.4565 6.16596C17.4885 6.07406 17.4885 5.97675 17.4565 5.87404C17.4245 5.77674 17.3659 5.70105 17.2806 5.647C17.2007 5.59294 17.1101 5.56861 17.0089 5.57402L16.0258 5.60645C15.9352 5.41184 15.8393 5.22534 15.738 5.04694C15.6421 4.86314 15.5329 4.68475 15.4103 4.51176L15.9298 3.66844C15.9831 3.58194 16.0071 3.49275 16.0018 3.40085C15.9965 3.30354 15.9618 3.21705 15.8979 3.14136C15.8179 3.04946 15.7327 2.9927 15.6421 2.97108C15.5515 2.94945 15.4556 2.96027 15.3544 3.00351L14.4672 3.36841C14.318 3.22245 14.1608 3.0819 13.9956 2.94675C13.8357 2.8116 13.6732 2.68457 13.508 2.56564L13.7078 1.60879C13.7345 1.49527 13.7291 1.39526 13.6918 1.30877C13.6545 1.21687 13.5906 1.14659 13.5 1.09794C13.4041 1.04388 13.3082 1.02225 13.2123 1.03307C13.1217 1.04388 13.0364 1.08712 12.9565 1.16281L12.2371 1.81151C12.0506 1.72502 11.8588 1.64663 11.6617 1.57636C11.4645 1.50608 11.2673 1.44121 11.0702 1.38175L10.9343 0.408685C10.9183 0.300568 10.8757 0.21137 10.8064 0.141094C10.7425 0.0708172 10.6599 0.0248671 10.5586 0.00324354C10.4521 -0.00756825 10.3562 0.00864943 10.2709 0.0518966C10.1856 0.0897378 10.1217 0.154609 10.0791 0.246509L9.62348 1.13037C9.51157 1.12497 9.405 1.11956 9.30376 1.11415C9.20785 1.10875 9.1066 1.10605 9.00003 1.10605C8.89346 1.10605 8.78955 1.10875 8.68831 1.11415C8.58707 1.11956 8.48316 1.12497 8.37659 1.13037L7.913 0.246509C7.87037 0.154609 7.80643 0.0897378 7.72117 0.0518966C7.63592 0.00864943 7.54 -0.00756825 7.43343 0.00324354C7.33219 0.0248671 7.24693 0.0708172 7.17766 0.141094C7.11371 0.21137 7.07641 0.300568 7.06576 0.408685L6.92189 1.38175C6.72473 1.44121 6.52757 1.50608 6.33041 1.57636C6.13858 1.64663 5.94669 1.72502 5.75486 1.81151L5.03551 1.16281C4.96091 1.08712 4.87565 1.04388 4.77973 1.03307C4.68382 1.02225 4.58791 1.04388 4.49199 1.09794C4.40141 1.14659 4.33746 1.21687 4.30016 1.30877C4.26286 1.39526 4.25753 1.49527 4.28418 1.60879L4.484 2.56564C4.31881 2.68457 4.15363 2.8116 3.98844 2.94675C3.82858 3.0819 3.67405 3.22245 3.52485 3.36841L2.63765 3.00351C2.5364 2.96027 2.44049 2.94945 2.3499 2.97108C2.25932 2.9927 2.17672 3.04946 2.10212 3.14136C2.03285 3.21705 1.99555 3.30354 1.99022 3.40085C1.9849 3.49275 2.00887 3.58194 2.06216 3.66844L2.5817 4.51176C2.46447 4.68475 2.35523 4.86314 2.25399 5.04694C2.15275 5.22534 2.05683 5.41184 1.96625 5.60645L0.991116 5.57402C0.884544 5.56861 0.791294 5.59294 0.711365 5.647C0.631437 5.70105 0.572822 5.77674 0.535522 5.87404C0.503551 5.97675 0.500886 6.07406 0.527529 6.16596C0.559501 6.25246 0.615451 6.32814 0.695379 6.39301L1.46269 7.00928C1.40941 7.2093 1.36412 7.41202 1.32682 7.61744C1.28952 7.82287 1.26554 8.0337 1.25488 8.24993L0.319715 8.54996C0.106572 8.62564 0 8.7743 0 8.99595C0 9.21759 0.106572 9.36355 0.319715 9.43382L1.25488 9.73385C1.26554 9.95009 1.28952 10.1636 1.32682 10.3744C1.36412 10.5799 1.40941 10.7826 1.46269 10.9826L0.695379 11.5989C0.615451 11.6638 0.562165 11.7421 0.535522 11.834C0.508879 11.9259 0.508879 12.0232 0.535522 12.126C0.572822 12.2233 0.631437 12.2989 0.711365 12.353C0.791294 12.4071 0.884544 12.4314 0.991116 12.426L1.96625 12.3773C2.05683 12.5719 2.15275 12.7611 2.25399 12.9449C2.35523 13.1288 2.46447 13.3044 2.5817 13.472L2.06216 14.3153C2.00887 14.4072 1.9849 14.5018 1.99022 14.5992C1.99555 14.6965 2.03285 14.783 2.10212 14.8586C2.17672 14.9505 2.25932 15.0073 2.3499 15.0289C2.44049 15.0505 2.5364 15.0397 2.63765 14.9965L3.52485 14.6235C3.67405 14.7694 3.82858 14.91 3.98844 15.0451C4.15363 15.1803 4.31881 15.3073 4.484 15.4263L4.28418 16.3912C4.26286 16.4993 4.26819 16.5966 4.30016 16.6831C4.33746 16.775 4.40141 16.848 4.49199 16.9021C4.59323 16.9561 4.68915 16.975 4.77973 16.9588C4.87565 16.948 4.96091 16.9075 5.03551 16.8372L5.75486 16.1804C5.94669 16.2615 6.13858 16.3399 6.33041 16.4155C6.52757 16.4912 6.72473 16.5561 6.92189 16.6101L7.06576 17.5913C7.07641 17.6994 7.11371 17.7886 7.17766 17.8589C7.24693 17.9292 7.33219 17.9751 7.43343 17.9968C7.54 18.0076 7.63325 17.9914 7.71318 17.9481C7.79844 17.9049 7.86504 17.8373 7.913 17.7454L8.37659 16.8615C8.48316 16.8723 8.58707 16.8804 8.68831 16.8858C8.78955 16.8913 8.89346 16.894 9.00003 16.894ZM9.00003 15.6695C8.08352 15.6695 7.23094 15.4965 6.44231 15.1506C5.65901 14.81 4.97156 14.3343 4.38009 13.7234C3.79395 13.1125 3.33569 12.4044 3.00532 11.5989C2.67495 10.7934 2.50976 9.92846 2.50976 9.00406C2.50976 8.07424 2.67495 7.2066 3.00532 6.40112C3.33569 5.59564 3.79395 4.88747 4.38009 4.2766C4.97156 3.66574 5.65901 3.19002 6.44231 2.84945C7.23094 2.50347 8.08352 2.33048 9.00003 2.33048C9.91655 2.33048 10.7665 2.50347 11.5498 2.84945C12.3384 3.19002 13.0258 3.66574 13.6119 4.2766C14.2034 4.88747 14.6643 5.59564 14.9947 6.40112C15.3251 7.2066 15.4902 8.07424 15.4902 9.00406C15.4902 9.92846 15.3251 10.7934 14.9947 11.5989C14.6643 12.4044 14.2034 13.1125 13.6119 13.7234C13.0258 14.3343 12.3384 14.81 11.5498 15.1506C10.7665 15.4965 9.91655 15.6695 9.00003 15.6695ZM7.60128 7.6661L8.48849 7.09848L5.77884 2.39535L4.85966 2.92243L7.60128 7.6661ZM10.8544 9.51491H16.2496L16.2416 8.46887H10.8544V9.51491ZM8.49648 10.9177L7.61727 10.3339L4.77973 15.0451L5.69092 15.5884L8.49648 10.9177ZM8.98405 11.1367C9.3677 11.1367 9.71673 11.0421 10.0311 10.8529C10.3508 10.6583 10.6039 10.4015 10.7904 10.0825C10.9769 9.75818 11.0702 9.40139 11.0702 9.01216C11.0702 8.61753 10.9769 8.26075 10.7904 7.9418C10.6039 7.61744 10.3508 7.36066 10.0311 7.17146C9.71673 6.98225 9.3677 6.88765 8.98405 6.88765C8.59506 6.88765 8.24071 6.98225 7.92099 7.17146C7.60661 7.36066 7.35616 7.61744 7.16966 7.9418C6.98316 8.26075 6.88991 8.61753 6.88991 9.01216C6.88991 9.40139 6.98316 9.75818 7.16966 10.0825C7.35616 10.4015 7.60661 10.6583 7.92099 10.8529C8.24071 11.0421 8.59506 11.1367 8.98405 11.1367ZM8.98405 9.99333C8.70696 9.99333 8.47517 9.89873 8.28867 9.70952C8.10749 9.52032 8.01691 9.28786 8.01691 9.01216C8.01691 8.73646 8.10749 8.50401 8.28867 8.3148C8.47517 8.1256 8.70696 8.03099 8.98405 8.03099C9.2558 8.03099 9.48227 8.1256 9.66344 8.3148C9.84994 8.50401 9.94319 8.73646 9.94319 9.01216C9.94319 9.28786 9.84994 9.52032 9.66344 9.70952C9.48227 9.89873 9.2558 9.99333 8.98405 9.99333Z"
		fill="currentColor"
	/>
</svg>
