<svg
	color="rgb(var(--foreground, 0, 0, 0))"
	viewBox="0 0 15 16"
	fill="none"
	xmlns="http://www.w3.org/2000/svg"
>
	<path
		d="M7.5 16C8.53553 16 9.50559 15.8071 10.4104 15.4214C11.3204 15.0408 12.1179 14.5137 12.803 13.8399C13.4934 13.161 14.032 12.3767 14.419 11.487C14.806 10.5972 15 9.6432 15 8.62488C15 7.60656 14.806 6.65252 14.419 5.76278C14.032 4.86789 13.4934 4.08357 12.803 3.40984C12.1179 2.73095 11.3204 2.20122 10.4104 1.82064C9.50559 1.43491 8.53553 1.24204 7.5 1.24204C6.46447 1.24204 5.49441 1.43491 4.58963 1.82064C3.68484 2.20122 2.88735 2.73095 2.197 3.40984C1.51187 4.08357 0.973243 4.86789 0.580996 5.76278C0.193979 6.65252 0 7.60656 0 8.62488C0 9.6432 0.193979 10.5972 0.580996 11.487C0.973243 12.3767 1.51187 13.161 2.197 13.8399C2.88735 14.5137 3.68484 15.0408 4.58963 15.4214C5.49441 15.8071 6.46447 16 7.5 16ZM7.5 14.6808C6.64752 14.6808 5.85003 14.5239 5.10737 14.2102C4.36472 13.8965 3.71104 13.4619 3.14621 12.9065C2.58137 12.351 2.13948 11.7081 1.82045 10.9778C1.50143 10.2424 1.34193 9.45805 1.34193 8.62488C1.34193 7.78656 1.50143 7.00225 1.82045 6.27194C2.13948 5.54163 2.58137 4.89875 3.14621 4.3433C3.71104 3.78785 4.36472 3.35326 5.10737 3.03954C5.85003 2.72581 6.64752 2.56895 7.5 2.56895C8.34725 2.56895 9.14213 2.72581 9.88478 3.03954C10.6327 3.35326 11.289 3.78785 11.8538 4.3433C12.4186 4.89875 12.8605 5.54163 13.1795 6.27194C13.4986 7.00225 13.6581 7.78656 13.6581 8.62488C13.6581 9.45805 13.4986 10.2424 13.1795 10.9778C12.8605 11.7081 12.4186 12.351 11.8538 12.9065C11.289 13.4619 10.6327 13.8965 9.88478 14.2102C9.14213 14.5239 8.34725 14.6808 7.5 14.6808ZM1.05952 3.22469C1.11705 3.22469 1.16935 3.21954 1.21641 3.20926C1.26348 3.19383 1.31578 3.16554 1.37331 3.1244L4.00127 1.17261C4.13202 1.0749 4.19739 0.959177 4.19739 0.825458C4.19739 0.67631 4.12679 0.537448 3.98559 0.408872C3.83392 0.275153 3.63781 0.174863 3.39723 0.108004C3.15666 0.0360013 2.91872 0 2.68337 0C2.27543 0 1.90414 0.0977177 1.56943 0.293153C1.23471 0.488589 0.968007 0.750884 0.769268 1.08004C0.57576 1.40405 0.479015 1.76663 0.479015 2.16779C0.479015 2.3118 0.489474 2.45066 0.510394 2.58438C0.536544 2.7181 0.570535 2.82867 0.612375 2.9161C0.654215 3.01382 0.714353 3.09097 0.792803 3.14754C0.871252 3.19897 0.960152 3.22469 1.05952 3.22469ZM13.9405 3.22469C14.0398 3.22469 14.1287 3.1964 14.2072 3.13983C14.2856 3.08325 14.3484 3.00868 14.3955 2.9161C14.4373 2.83382 14.4687 2.72581 14.4896 2.59209C14.5105 2.45323 14.521 2.3118 14.521 2.16779C14.521 1.76663 14.4216 1.40405 14.2229 1.08004C14.0294 0.750884 13.7653 0.488589 13.4306 0.293153C13.0959 0.0977177 12.7246 0 12.3166 0C12.0813 0 11.8433 0.0360013 11.6028 0.108004C11.3622 0.174863 11.1661 0.275153 11.0144 0.408872C10.8732 0.537448 10.8026 0.67631 10.8026 0.825458C10.8026 0.959177 10.8706 1.0749 11.0066 1.17261L13.6267 3.1244C13.6842 3.16554 13.7365 3.19383 13.7836 3.20926C13.8307 3.21954 13.8829 3.22469 13.9405 3.22469ZM0.941851 15.7763C1.05691 15.8946 1.19811 15.9537 1.36546 15.9537C1.53805 15.9537 1.68448 15.892 1.80477 15.7686L3.28741 14.3182L2.44018 13.4928L0.949696 14.9431C0.829407 15.0614 0.769268 15.2028 0.769268 15.3674C0.769268 15.532 0.826792 15.6683 0.941851 15.7763ZM14.0581 15.7763C14.1732 15.6683 14.2307 15.532 14.2307 15.3674C14.236 15.2028 14.1758 15.0614 14.0503 14.9431L12.5598 13.4928L11.7204 14.3182L13.1952 15.7686C13.3155 15.892 13.4593 15.9537 13.6267 15.9537C13.7993 15.9537 13.9431 15.8946 14.0581 15.7763ZM3.93067 9.47348H7.49216C7.64905 9.47348 7.77979 9.42205 7.88439 9.31919C7.98899 9.21633 8.04128 9.09032 8.04128 8.94118V4.26615C8.04128 4.11186 7.98899 3.98328 7.88439 3.88042C7.77979 3.77756 7.64905 3.72613 7.49216 3.72613C7.34049 3.72613 7.21237 3.77756 7.10777 3.88042C7.00317 3.98328 6.95087 4.11186 6.95087 4.26615V8.40116H3.93067C3.779 8.40116 3.65088 8.45259 3.54628 8.55545C3.44168 8.65831 3.38939 8.78688 3.38939 8.94118C3.38939 9.09032 3.44168 9.21633 3.54628 9.31919C3.65088 9.42205 3.779 9.47348 3.93067 9.47348Z"
		fill="currentColor"
	/>
</svg>
