<svg
	color="rgb(var(--foreground, 0, 0, 0))"
	viewBox="0 0 15 16"
	fill="none"
	xmlns="http://www.w3.org/2000/svg"
>
	<path
		d="M7.50024 16C8.53581 16 9.5059 15.8071 10.4107 15.4214C11.3208 15.0408 12.1183 14.5137 12.8034 13.8399C13.4938 13.161 14.0324 12.3767 14.4195 11.487C14.8065 10.5972 15 9.6432 15 8.62488C15 7.60656 14.8065 6.65252 14.4195 5.76278C14.0324 4.86789 13.4938 4.08357 12.8034 3.40984C12.1183 2.73095 11.3208 2.20122 10.4107 1.82064C9.5059 1.43491 8.53581 1.24204 7.50024 1.24204C6.46468 1.24204 5.4941 1.43491 4.58928 1.82064C3.68447 2.20122 2.88696 2.73095 2.19658 3.40984C1.51143 4.08357 0.972785 4.86789 0.580525 5.76278C0.193495 6.65252 0 7.60656 0 8.62488C0 9.6432 0.193495 10.5972 0.580525 11.487C0.972785 12.3767 1.51143 13.161 2.19658 13.8399C2.88696 14.5137 3.68447 15.0408 4.58928 15.4214C5.4941 15.8071 6.46468 16 7.50024 16ZM3.93031 9.47348C3.77864 9.47348 3.65051 9.42205 3.54591 9.31919C3.44131 9.21633 3.38901 9.09032 3.38901 8.94118C3.38901 8.78689 3.44131 8.65831 3.54591 8.55545C3.65051 8.45259 3.77864 8.40116 3.93031 8.40116H6.9511V4.26615C6.9511 4.11186 7.0034 3.98329 7.108 3.88042C7.2126 3.77756 7.34073 3.72613 7.4924 3.72613C7.6493 3.72613 7.78004 3.77756 7.88465 3.88042C7.98925 3.98329 8.04154 4.11186 8.04154 4.26615V8.94118C8.04154 9.09032 7.98925 9.21633 7.88465 9.31919C7.78004 9.42205 7.6493 9.47348 7.4924 9.47348H3.93031ZM1.05907 3.22469C1.1166 3.22469 1.16889 3.21954 1.21596 3.20926C1.26304 3.19383 1.31533 3.16554 1.37286 3.1244L4.00092 1.17261C4.13167 1.0749 4.19704 0.959177 4.19704 0.825458C4.19704 0.67631 4.12644 0.537448 3.98523 0.408872C3.83355 0.275153 3.63744 0.174863 3.39686 0.108004C3.15627 0.0360013 2.91832 0 2.68297 0C2.27502 0 1.90371 0.0977177 1.56899 0.293153C1.23426 0.488589 0.967548 0.750884 0.768803 1.08004C0.575288 1.40405 0.478541 1.76663 0.478541 2.16779C0.478541 2.3118 0.489 2.45066 0.509921 2.58438C0.536071 2.7181 0.570064 2.82867 0.611905 2.9161C0.653746 3.01382 0.713886 3.09097 0.792338 3.14754C0.87079 3.19897 0.959693 3.22469 1.05907 3.22469ZM13.9409 3.22469C14.0403 3.22469 14.1292 3.1964 14.2077 3.13983C14.2861 3.08325 14.3489 3.00868 14.3959 2.9161C14.4378 2.83382 14.4692 2.72581 14.4901 2.59209C14.511 2.45323 14.5215 2.3118 14.5215 2.16779C14.5215 1.76663 14.4221 1.40405 14.2234 1.08004C14.0298 0.750884 13.7657 0.488589 13.431 0.293153C13.0963 0.0977177 12.725 0 12.317 0C12.0817 0 11.8437 0.0360013 11.6031 0.108004C11.3626 0.174863 11.1664 0.275153 11.0148 0.408872C10.8736 0.537448 10.803 0.67631 10.803 0.825458C10.803 0.959177 10.8709 1.0749 11.0069 1.17261L13.6271 3.1244C13.6847 3.16554 13.737 3.19383 13.784 3.20926C13.8311 3.21954 13.8834 3.22469 13.9409 3.22469ZM0.941392 15.7763C1.05645 15.8946 1.19765 15.9537 1.36502 15.9537C1.53761 15.9537 1.68404 15.892 1.80433 15.7686L3.28703 14.3182L2.43977 13.4928L0.949237 14.9431C0.828944 15.0614 0.768803 15.2028 0.768803 15.3674C0.768803 15.532 0.826329 15.6683 0.941392 15.7763ZM14.0586 15.7763C14.1737 15.6683 14.2312 15.532 14.2312 15.3674C14.2364 15.2028 14.1763 15.0614 14.0508 14.9431L12.5602 13.4928L11.7208 14.3182L13.1957 15.7686C13.316 15.892 13.4598 15.9537 13.6271 15.9537C13.7997 15.9537 13.9435 15.8946 14.0586 15.7763Z"
		fill="currentColor"
	/>
</svg>
