<svg
	color="rgb(var(--foreground, 0, 0, 0))"
	viewBox="0 0 16 16"
	fill="none"
	xmlns="http://www.w3.org/2000/svg"
>
	<path
		d="M3.89792 8.84706C3.74106 8.84706 3.61035 8.79477 3.50577 8.6902C3.4012 8.58562 3.34892 8.4549 3.34892 8.29804C3.34892 8.14641 3.4012 8.0183 3.50577 7.91373C3.61035 7.80915 3.74106 7.75686 3.89792 7.75686H7.45124V3.01176C7.45124 2.86013 7.50352 2.73203 7.6081 2.62745C7.71268 2.52288 7.84077 2.47059 7.9924 2.47059C8.14927 2.47059 8.27997 2.52288 8.38455 2.62745C8.48912 2.73203 8.5414 2.86013 8.5414 3.01176V8.29804C8.5414 8.4549 8.48912 8.58562 8.38455 8.6902C8.27997 8.79477 8.14927 8.84706 7.9924 8.84706H3.89792ZM8.00024 16C9.09306 16 10.1204 15.7909 11.0825 15.3725C12.0498 14.9542 12.902 14.3765 13.6393 13.6392C14.3765 12.902 14.9543 12.0523 15.3726 11.0902C15.7909 10.1229 16 9.09281 16 8C16 6.90719 15.7909 5.87974 15.3726 4.91765C14.9543 3.95033 14.3765 3.09804 13.6393 2.36078C12.902 1.62353 12.0498 1.04575 11.0825 0.627451C10.1152 0.20915 9.08522 0 7.9924 0C6.89959 0 5.86962 0.20915 4.9023 0.627451C3.94021 1.04575 3.09013 1.62353 2.35287 2.36078C1.62084 3.09804 1.04573 3.95033 0.627432 4.91765C0.20913 5.87974 0 6.90719 0 8C0 9.09281 0.20913 10.1229 0.627432 11.0902C1.04573 12.0523 1.62345 12.902 2.36071 13.6392C3.09797 14.3765 3.94805 14.9542 4.91014 15.3725C5.87747 15.7909 6.90743 16 8.00024 16Z"
		fill="currentColor"
	/>
</svg>
