<svg
	color="rgb(var(--foreground, 0, 0, 0))"
	viewBox="0 0 16 16"
	fill="none"
	xmlns="http://www.w3.org/2000/svg"
>
	<path
		d="M3.89829 8.84706H7.99216C8.14902 8.84706 8.27972 8.79477 8.38429 8.6902C8.48886 8.58562 8.54114 8.4549 8.54114 8.29804V3.01177C8.54114 2.86013 8.48886 2.73203 8.38429 2.62745C8.27972 2.52288 8.14902 2.47059 7.99216 2.47059C7.84053 2.47059 7.71244 2.52288 7.60787 2.62745C7.5033 2.73203 7.45101 2.86013 7.45101 3.01177V7.75686H3.89829C3.74143 7.75686 3.61073 7.80915 3.50616 7.91373C3.40159 8.0183 3.3493 8.14641 3.3493 8.29804C3.3493 8.4549 3.40159 8.58562 3.50616 8.6902C3.61073 8.79477 3.74143 8.84706 3.89829 8.84706ZM8 16C9.09278 16 10.1201 15.7909 11.0822 15.3726C12.0495 14.9542 12.9016 14.3765 13.6389 13.6392C14.3761 12.902 14.9543 12.0523 15.3726 11.0902C15.7909 10.1229 16 9.09281 16 8C16 6.90719 15.7909 5.87974 15.3726 4.91765C14.9543 3.95033 14.3761 3.09804 13.6389 2.36078C12.9016 1.62353 12.0495 1.04575 11.0822 0.627451C10.1149 0.20915 9.08494 0 7.99216 0C6.89938 0 5.86944 0.20915 4.90215 0.627451C3.94009 1.04575 3.09052 1.62353 2.35329 2.36078C1.62128 3.09804 1.04619 3.95033 0.627903 4.91765C0.209614 5.87974 0 6.90719 0 8C0 9.09281 0.209614 10.1229 0.627903 11.0902C1.04619 12.0523 1.6239 12.902 2.36113 13.6392C3.09836 14.3765 3.94793 14.9542 4.90999 15.3726C5.87729 15.7909 6.90722 16 8 16ZM8 14.6667C7.07454 14.6667 6.20929 14.4941 5.40408 14.149C4.59887 13.8039 3.89047 13.3281 3.27872 12.7216C2.6722 12.1098 2.19645 11.4013 1.85136 10.5961C1.5115 9.79085 1.34158 8.92549 1.34158 8C1.34158 7.07451 1.5115 6.20915 1.85136 5.40392C2.19645 4.59869 2.6722 3.8902 3.27872 3.27843C3.88524 2.66667 4.59103 2.19085 5.39624 1.85098C6.20145 1.50588 7.06669 1.33333 7.99216 1.33333C8.91762 1.33333 9.78287 1.50588 10.5881 1.85098C11.3985 2.19085 12.1069 2.66667 12.7134 3.27843C13.3252 3.8902 13.8036 4.59869 14.1486 5.40392C14.4937 6.20915 14.6663 7.07451 14.6663 8C14.6663 8.92549 14.4937 9.79085 14.1486 10.5961C13.8088 11.4013 13.333 12.1098 12.7213 12.7216C12.1095 13.3281 11.4011 13.8039 10.5959 14.149C9.79071 14.4941 8.92547 14.6667 8 14.6667Z"
		fill="currentColor"
	/>
</svg>
