<svg
	color="rgb(var(--foreground, 0, 0, 0))"
	viewBox="0 0 16 18"
	fill="none"
	xmlns="http://www.w3.org/2000/svg"
>
	<path
		d="M7.99975 17.5C9.09257 17.5 10.1204 17.2978 11.0825 16.8934C12.0498 16.489 12.902 15.9304 13.6393 15.2177C14.3765 14.5049 14.9543 13.6835 15.3726 12.7533C15.7909 11.8182 16 10.8223 16 9.76583C16 8.70934 15.7909 7.71603 15.3726 6.78591C14.9543 5.85073 14.3765 5.02676 13.6393 4.31401C12.902 3.60125 12.0498 3.04267 11.0825 2.63827C10.1152 2.23387 9.08473 2.03167 7.99191 2.03167C6.8991 2.03167 5.86913 2.23387 4.90181 2.63827C3.93972 3.04267 3.09013 3.60125 2.35287 4.31401C1.62084 5.02676 1.04573 5.85073 0.627432 6.78591C0.20913 7.71603 0 8.70934 0 9.76583C0 10.8223 0.20913 11.8182 0.627432 12.7533C1.04573 13.6835 1.62345 14.5049 2.36071 15.2177C3.09797 15.9304 3.94756 16.489 4.90965 16.8934C5.87698 17.2978 6.90694 17.5 7.99975 17.5ZM7.99975 16.211C7.07426 16.211 6.20899 16.0442 5.40376 15.7105C4.59852 15.3769 3.8901 14.9169 3.27833 14.3305C2.67179 13.7391 2.19602 13.0541 1.85092 12.2756C1.51105 11.4972 1.34114 10.6606 1.34114 9.76583C1.34114 8.8711 1.51105 8.03449 1.85092 7.25602C2.19602 6.47755 2.67179 5.7926 3.27833 5.20116C3.88487 4.60972 4.59068 4.14972 5.39591 3.82114C6.20114 3.48751 7.06642 3.3207 7.99191 3.3207C8.91741 3.3207 9.78317 3.48751 10.5884 3.82114C11.3936 4.14972 12.1021 4.60972 12.7138 5.20116C13.3256 5.7926 13.804 6.47755 14.1491 7.25602C14.4942 8.03449 14.6667 8.8711 14.6667 9.76583C14.6667 10.6606 14.4942 11.4972 14.1491 12.2756C13.8092 13.0541 13.3334 13.7391 12.7217 14.3305C12.1151 14.9169 11.4067 15.3769 10.5962 15.7105C9.79101 16.0442 8.92525 16.211 7.99975 16.211ZM7.15272 2.50178H8.8311V1.33408C8.8311 1.1066 8.75006 0.911983 8.58797 0.750223C8.42588 0.583408 8.22721 0.5 7.99191 0.5C7.76185 0.5 7.56317 0.583408 7.39585 0.750223C7.23376 0.911983 7.15272 1.1066 7.15272 1.33408V2.50178ZM12.8864 4.13961L14.055 5.29973L14.9177 4.45049C15.1059 4.26851 15.2 4.06378 15.2 3.83631C15.2 3.624 15.1216 3.44454 14.9647 3.29795C14.8131 3.1463 14.6223 3.07047 14.3922 3.07047C14.1412 3.07047 13.9269 3.15388 13.7491 3.3207L12.8864 4.13961ZM7.99975 10.9942C8.35008 10.9942 8.64809 10.8754 8.89384 10.6378C9.1396 10.4002 9.26246 10.1121 9.26246 9.77342C9.26246 9.53078 9.19711 9.31341 9.06639 9.12132C8.93567 8.92417 8.76052 8.77505 8.54091 8.67395V4.90544C8.54091 4.75885 8.48863 4.635 8.38406 4.5339C8.27948 4.4328 8.14878 4.38225 7.99191 4.38225C7.84028 4.38225 7.71218 4.4328 7.60761 4.5339C7.50303 4.635 7.45075 4.75885 7.45075 4.90544V8.66637C7.23637 8.77758 7.06384 8.93176 6.93312 9.1289C6.8024 9.32099 6.73705 9.53583 6.73705 9.77342C6.73705 10.107 6.8573 10.3952 7.09782 10.6378C7.34357 10.8754 7.6442 10.9942 7.99975 10.9942Z"
		fill="currentColor"
	/>
</svg>
