<svg
	color="rgb(var(--foreground, 0, 0, 0))"
	viewBox="0 0 16 18"
	fill="none"
	xmlns="http://www.w3.org/2000/svg"
>
	<path
		d="M7.99975 17.5C9.09257 17.5 10.1199 17.2978 11.082 16.8934C12.0493 16.489 12.902 15.9304 13.6393 15.2177C14.3765 14.5049 14.9543 13.6835 15.3726 12.7533C15.7909 11.8182 16 10.8223 16 9.76583C16 8.70934 15.7909 7.71603 15.3726 6.78591C14.9543 5.85073 14.3765 5.02676 13.6393 4.31401C12.902 3.60125 12.0493 3.04267 11.082 2.63827C10.1147 2.23387 9.08473 2.03167 7.99191 2.03167C6.8991 2.03167 5.86913 2.23387 4.90181 2.63827C3.93972 3.04267 3.09013 3.60125 2.35287 4.31401C1.62084 5.02676 1.04573 5.85073 0.627432 6.78591C0.20913 7.71603 0 8.70934 0 9.76583C0 10.8223 0.20913 11.8182 0.627432 12.7533C1.04573 13.6835 1.62345 14.5049 2.36071 15.2177C3.09797 15.9304 3.94756 16.489 4.90965 16.8934C5.87698 17.2978 6.90694 17.5 7.99975 17.5ZM7.99975 10.9942C7.6442 10.9942 7.34357 10.8754 7.09782 10.6378C6.8573 10.3952 6.73705 10.107 6.73705 9.77342C6.73705 9.53583 6.8024 9.32099 6.93312 9.1289C7.06384 8.93176 7.23637 8.77758 7.45075 8.66637V4.90544C7.45075 4.75885 7.50303 4.635 7.60761 4.5339C7.71218 4.4328 7.84028 4.38225 7.99191 4.38225C8.14878 4.38225 8.27948 4.4328 8.38406 4.5339C8.48863 4.635 8.54091 4.75885 8.54091 4.90544V8.67395C8.76052 8.77505 8.93567 8.92417 9.06639 9.12132C9.19711 9.31341 9.26246 9.53078 9.26246 9.77342C9.26246 10.1121 9.1396 10.4002 8.89384 10.6378C8.64809 10.8754 8.35008 10.9942 7.99975 10.9942ZM7.15272 2.44112H8.8311V1.33408C8.8311 1.1066 8.75006 0.911983 8.58797 0.750223C8.42588 0.583408 8.22721 0.5 7.99191 0.5C7.76185 0.5 7.56317 0.583408 7.39585 0.750223C7.23376 0.911983 7.15272 1.1066 7.15272 1.33408V2.44112ZM12.8859 4.13961L14.0393 5.30732L14.9177 4.45049C15.1059 4.26851 15.2 4.06378 15.2 3.83631C15.2 3.624 15.1216 3.44454 14.9647 3.29795C14.8131 3.1463 14.6223 3.07047 14.3922 3.07047C14.1412 3.07047 13.9269 3.15388 13.7491 3.3207L12.8859 4.13961Z"
		fill="currentColor"
	/>
</svg>
