<svg
	color="rgb(var(--foreground, 0, 0, 0))"
	viewBox="0 0 16 16"
	fill="none"
	xmlns="http://www.w3.org/2000/svg"
>
	<path
		d="M8.00024 16C9.09306 16 10.1204 15.7908 11.0825 15.3725C12.0498 14.9542 12.902 14.3765 13.6393 13.6392C14.3765 12.902 14.9543 12.0523 15.3726 11.0902C15.7909 10.1229 16 9.09281 16 8C16 6.90719 15.7909 5.87974 15.3726 4.91765C14.9543 3.95033 14.3765 3.09804 13.6393 2.36078C12.9073 1.62353 12.0577 1.04575 11.0903 0.627451C10.1283 0.20915 9.1009 0 8.00809 0C7.79894 0 7.64209 0.0601307 7.53751 0.180392C7.43817 0.295425 7.3885 0.454902 7.3885 0.658823V3.69412C7.3885 3.86667 7.44078 4.01307 7.54536 4.13333C7.65516 4.24837 7.79371 4.30588 7.96103 4.30588C8.13358 4.30588 8.27213 4.24837 8.3767 4.13333C8.48651 4.01307 8.5414 3.86667 8.5414 3.69412V0.643137L7.9924 1.33333C8.92312 1.33333 9.79101 1.50588 10.5962 1.85098C11.4015 2.19085 12.1073 2.66667 12.7138 3.27843C13.3256 3.88497 13.8014 4.59346 14.1412 5.40392C14.4863 6.20915 14.6589 7.07451 14.6589 8C14.6589 8.92549 14.4863 9.79085 14.1412 10.5961C13.8014 11.4013 13.3256 12.1098 12.7138 12.7216C12.1073 13.3281 11.4015 13.8039 10.5962 14.149C9.79101 14.4941 8.92574 14.6667 8.00024 14.6667C7.07475 14.6667 6.20686 14.4941 5.3964 14.149C4.59117 13.8039 3.88225 13.3281 3.27049 12.7216C2.66395 12.1098 2.18818 11.4013 1.84308 10.5961C1.50321 9.79085 1.33329 8.92549 1.33329 8C1.33852 7.17386 1.47968 6.39477 1.75681 5.66274C2.03393 4.92549 2.42082 4.26928 2.91756 3.69412C3.03259 3.54248 3.09272 3.38039 3.09794 3.20784C3.10317 3.03529 3.04043 2.88105 2.90971 2.7451C2.779 2.60915 2.61692 2.54902 2.42345 2.56471C2.23522 2.57516 2.07053 2.66667 1.92935 2.83922C1.33327 3.53987 0.86273 4.33203 0.517631 5.21569C0.172532 6.09412 0 7.02222 0 8C0 9.09281 0.20913 10.1229 0.627432 11.0902C1.04573 12.0523 1.62345 12.902 2.36071 13.6392C3.09797 14.3765 3.94805 14.9542 4.91014 15.3725C5.87747 15.7908 6.90743 16 8.00024 16ZM9.25511 9.12941C9.46426 8.9098 9.58974 8.67712 9.63157 8.43137C9.6734 8.18039 9.63941 7.93725 9.52961 7.70196C9.42503 7.46667 9.24989 7.26275 9.00414 7.0902L4.85524 4.18823C4.72452 4.09935 4.60166 4.07582 4.48663 4.11765C4.37159 4.15948 4.29317 4.23791 4.25134 4.35294C4.21474 4.46274 4.24088 4.58301 4.32977 4.71372L7.2238 8.86274C7.39635 9.11372 7.60025 9.29412 7.83554 9.40392C8.07084 9.5085 8.31395 9.53987 8.56493 9.49804C8.81591 9.45621 9.04596 9.33333 9.25511 9.12941Z"
		fill="currentColor"
	/>
</svg>
