<svg
	color="rgb(var(--foreground, 0, 0, 0))"
	viewBox="0 0 20 17"
	fill="none"
	xmlns="http://www.w3.org/2000/svg"
>
	<path
		d="M4.80989 5.1931H8.28742V1.89924H4.80989V5.1931ZM11.7141 5.1931H15.1916V1.89924H11.7141V5.1931ZM1.3663 8.50435H4.80989V5.1931H1.3663V8.50435ZM8.28742 8.50435H11.7141V5.1931H8.28742V8.50435ZM15.1916 8.50435H18.6437V5.1931H15.1916V8.50435ZM4.80989 11.7982H8.28742V8.50435H4.80989V11.7982ZM11.7141 11.7982H15.1916V8.50435H11.7141V11.7982ZM1.3663 14.7271L1.77342 15.1008H4.80989V11.7982H1.3663V14.7271ZM8.28742 15.1008H11.7141V11.7982H8.28742V15.1008ZM15.1916 15.1008H18.1941L18.6437 14.701V11.7982H15.1916V15.1008ZM2.66401 16.5H17.3375C18.2309 16.5 18.8981 16.274 19.3392 15.8221C19.7802 15.376 20.0007 14.7068 20.0007 13.8145V3.19419C20.0007 2.30192 19.7802 1.62982 19.3392 1.17789C18.8981 0.725964 18.2309 0.5 17.3375 0.5H2.66401C1.77625 0.5 1.10902 0.725964 0.66231 1.17789C0.221258 1.62403 0.000732422 2.29613 0.000732422 3.19419V13.8145C0.000732422 14.7068 0.221258 15.376 0.66231 15.8221C1.10902 16.274 1.77625 16.5 2.66401 16.5ZM2.68097 15.1008C2.25688 15.1008 1.93175 14.9878 1.70557 14.7618C1.47939 14.5301 1.3663 14.1882 1.3663 13.7363V3.27241C1.3663 2.82048 1.47939 2.47864 1.70557 2.24688C1.93175 2.01512 2.25688 1.89924 2.68097 1.89924H17.3205C17.7389 1.89924 18.0612 2.01512 18.2874 2.24688C18.5193 2.47864 18.6352 2.82048 18.6352 3.27241V13.7363C18.6352 14.1882 18.5193 14.5301 18.2874 14.7618C18.0612 14.9878 17.7389 15.1008 17.3205 15.1008H2.68097Z"
		fill="currentColor"
	/>
</svg>
