<svg
	color="rgb(var(--foreground, 0, 0, 0))"
	viewBox="0 0 16 17"
	fill="none"
	xmlns="http://www.w3.org/2000/svg"
>
	<path
		d="M2.72973 16.5H13.2717C14.1814 16.5 14.8622 16.274 15.3142 15.8221C15.7719 15.376 16.0007 14.7039 16.0007 13.8058V3.19419C16.0007 2.29613 15.7719 1.62403 15.3142 1.17789C14.8622 0.725964 14.1814 0.5 13.2717 0.5H2.72973C1.82008 0.5 1.13632 0.725964 0.678602 1.17789C0.226674 1.62403 0.000732422 2.29613 0.000732422 3.19419V13.8058C0.000732422 14.7039 0.226674 15.376 0.678602 15.8221C1.13632 16.274 1.82008 16.5 2.72973 16.5ZM2.74711 15.1008C2.31256 15.1008 1.97931 14.9878 1.74755 14.7618C1.51579 14.5301 1.39992 14.1882 1.39992 13.7363V3.26372C1.39992 2.81179 1.51579 2.47284 1.74755 2.24688C1.97931 2.01512 2.31256 1.89924 2.74711 1.89924H13.2544C13.6831 1.89924 14.0135 2.01512 14.2452 2.24688C14.4828 2.47284 14.6015 2.81179 14.6015 3.26372V13.7363C14.6015 14.1882 14.4828 14.5301 14.2452 14.7618C14.0135 14.9878 13.6831 15.1008 13.2544 15.1008H2.74711ZM4.10285 6.00136C4.48525 6.00715 4.81547 5.87099 5.09358 5.59288C5.37169 5.31477 5.51073 4.97583 5.51073 4.57605C5.51073 4.18785 5.37169 3.8576 5.09358 3.58528C4.81547 3.31296 4.48525 3.17681 4.10285 3.17681C3.71465 3.17681 3.38153 3.31296 3.10342 3.58528C2.82531 3.8576 2.68627 4.18785 2.68627 4.57605C2.68627 4.97583 2.82531 5.31188 3.10342 5.58419C3.38153 5.85651 3.71465 5.99556 4.10285 6.00136ZM11.916 6.00136C12.2984 6.00715 12.6286 5.87099 12.9067 5.59288C13.1848 5.31477 13.3239 4.97583 13.3239 4.57605C13.3239 4.18785 13.1848 3.8576 12.9067 3.58528C12.6286 3.31296 12.2984 3.17681 11.916 3.17681C11.5278 3.17681 11.1918 3.31296 10.9079 3.58528C10.6298 3.8576 10.4907 4.18785 10.4907 4.57605C10.4907 4.97583 10.6298 5.31188 10.9079 5.58419C11.1918 5.85651 11.5278 5.99556 11.916 6.00136ZM4.10285 9.91228C4.48525 9.91228 4.81547 9.77322 5.09358 9.49511C5.37169 9.217 5.51073 8.88095 5.51073 8.48696C5.51073 8.10456 5.37169 7.7772 5.09358 7.50489C4.81547 7.22678 4.48525 7.08772 4.10285 7.08772C3.71465 7.08772 3.38153 7.22678 3.10342 7.50489C2.83111 7.7772 2.69496 8.10456 2.69496 8.48696C2.69496 8.88095 2.83111 9.217 3.10342 9.49511C3.38153 9.77322 3.71465 9.91228 4.10285 9.91228ZM11.916 9.91228C12.2984 9.91228 12.6286 9.77322 12.9067 9.49511C13.1848 9.217 13.3239 8.88095 13.3239 8.48696C13.3239 8.10456 13.1848 7.7772 12.9067 7.50489C12.6286 7.22678 12.2984 7.08772 11.916 7.08772C11.522 7.08772 11.186 7.22678 10.9079 7.50489C10.6356 7.7772 10.4994 8.10456 10.4994 8.48696C10.4994 8.88095 10.6356 9.217 10.9079 9.49511C11.186 9.77322 11.522 9.91228 11.916 9.91228ZM4.10285 13.8232C4.48525 13.8232 4.81547 13.6841 5.09358 13.406C5.37169 13.1279 5.51073 12.7948 5.51073 12.4066C5.51073 12.0184 5.37169 11.6881 5.09358 11.4158C4.81547 11.1377 4.48525 10.9986 4.10285 10.9986C3.71465 10.9986 3.38153 11.1377 3.10342 11.4158C2.83111 11.6881 2.69496 12.0184 2.69496 12.4066C2.69496 12.7948 2.83111 13.1279 3.10342 13.406C3.38153 13.6841 3.71465 13.8232 4.10285 13.8232ZM11.916 13.8232C12.2984 13.8232 12.6286 13.6841 12.9067 13.406C13.1848 13.1279 13.3239 12.7948 13.3239 12.4066C13.3239 12.0184 13.1848 11.6881 12.9067 11.4158C12.6286 11.1377 12.2984 10.9986 11.916 10.9986C11.5278 10.9986 11.1947 11.1377 10.9166 11.4158C10.6443 11.6881 10.5081 12.0184 10.5081 12.4066C10.5081 12.7948 10.6443 13.1279 10.9166 13.406C11.1947 13.6841 11.5278 13.8232 11.916 13.8232Z"
		fill="currentColor"
	/>
</svg>
