<svg
	color="rgb(var(--foreground, 0, 0, 0))"
	viewBox="0 0 16 17"
	fill="none"
	xmlns="http://www.w3.org/2000/svg"
>
	<path
		d="M2.72973 16.5H13.2717C14.1814 16.5 14.8622 16.274 15.3142 15.8221C15.7719 15.376 16.0007 14.7039 16.0007 13.8058V3.19419C16.0007 2.29613 15.7719 1.62403 15.3142 1.17789C14.8622 0.725964 14.1814 0.5 13.2717 0.5H2.72973C1.82008 0.5 1.13632 0.725964 0.678602 1.17789C0.226674 1.62403 0.000732422 2.29613 0.000732422 3.19419V13.8058C0.000732422 14.7039 0.226674 15.376 0.678602 15.8221C1.13632 16.274 1.82008 16.5 2.72973 16.5ZM3.98118 5.92314C3.5814 5.91735 3.23669 5.77539 2.94699 5.49728C2.66309 5.21338 2.52115 4.86574 2.52115 4.45437C2.52115 4.05459 2.66309 3.71564 2.94699 3.43753C3.23669 3.15363 3.5814 3.01168 3.98118 3.01168C4.38096 3.01168 4.72277 3.15363 5.00667 3.43753C5.29058 3.71564 5.43251 4.05459 5.43251 4.45437C5.43251 4.86574 5.29058 5.21628 5.00667 5.50598C4.72277 5.78988 4.38096 5.92893 3.98118 5.92314ZM12.0377 5.92314C11.6321 5.91735 11.2845 5.77539 10.9948 5.49728C10.7109 5.21338 10.5689 4.86574 10.5689 4.45437C10.5689 4.05459 10.7109 3.71564 10.9948 3.43753C11.2845 3.15363 11.6321 3.01168 12.0377 3.01168C12.4317 3.01168 12.7706 3.15363 13.0545 3.43753C13.3442 3.71564 13.489 4.05459 13.489 4.45437C13.489 4.86574 13.3442 5.21628 13.0545 5.50598C12.7706 5.78988 12.4317 5.92893 12.0377 5.92314ZM3.98118 9.95573C3.5814 9.95573 3.23959 9.81378 2.95568 9.52988C2.67178 9.24018 2.52984 8.89254 2.52984 8.48696C2.52984 8.08718 2.67178 7.74823 2.95568 7.47012C3.23959 7.18622 3.5814 7.04427 3.98118 7.04427C4.38096 7.04427 4.72277 7.18622 5.00667 7.47012C5.29058 7.74823 5.43251 8.08718 5.43251 8.48696C5.43251 8.89254 5.29058 9.24018 5.00667 9.52988C4.72277 9.81378 4.38096 9.95573 3.98118 9.95573ZM12.0377 9.95573C11.6321 9.95573 11.2874 9.81378 11.0035 9.52988C10.7196 9.24018 10.5776 8.89254 10.5776 8.48696C10.5776 8.08718 10.7196 7.74823 11.0035 7.47012C11.2874 7.18622 11.6321 7.04427 12.0377 7.04427C12.4317 7.04427 12.7706 7.18622 13.0545 7.47012C13.3442 7.74823 13.489 8.08718 13.489 8.48696C13.489 8.89254 13.3442 9.24018 13.0545 9.52988C12.7706 9.81378 12.4317 9.95573 12.0377 9.95573ZM3.98118 13.9883C3.5814 13.9883 3.23959 13.8464 2.95568 13.5625C2.67178 13.2786 2.52984 12.9338 2.52984 12.5282C2.52984 12.1285 2.67178 11.7866 2.95568 11.5027C3.23959 11.2188 3.5814 11.0769 3.98118 11.0769C4.38096 11.0769 4.72277 11.2188 5.00667 11.5027C5.29058 11.7866 5.43251 12.1285 5.43251 12.5282C5.43251 12.9338 5.29058 13.2786 5.00667 13.5625C4.72277 13.8464 4.38096 13.9883 3.98118 13.9883ZM12.0377 13.9883C11.6321 13.9883 11.2874 13.8464 11.0035 13.5625C10.7254 13.2786 10.5863 12.9338 10.5863 12.5282C10.5863 12.1285 10.7254 11.7866 11.0035 11.5027C11.2874 11.2188 11.6321 11.0769 12.0377 11.0769C12.4317 11.0769 12.7706 11.2188 13.0545 11.5027C13.3442 11.7866 13.489 12.1285 13.489 12.5282C13.489 12.9338 13.3442 13.2786 13.0545 13.5625C12.7706 13.8464 12.4317 13.9883 12.0377 13.9883Z"
		fill="currentColor"
	/>
</svg>
