<svg
	color="rgb(var(--foreground, 0, 0, 0))"
	viewBox="0 0 23 15"
	fill="none"
	xmlns="http://www.w3.org/2000/svg"
>
	<path
		d="M0.000732422 7.5039C0.000732422 8.03377 0.114556 8.48312 0.342227 8.85195C0.569898 9.21558 0.866369 9.49351 1.2317 9.68571C1.60233 9.87273 2.00203 9.96623 2.4309 9.96623C2.70093 9.96623 2.94711 9.92987 3.16948 9.85714C3.39186 9.77922 3.62215 9.66753 3.86041 9.52208C4.08809 9.38701 4.27338 9.35065 4.41634 9.41299C4.56459 9.47533 4.6387 9.6026 4.6387 9.79481V12.6779C4.6387 13.4468 4.84013 14.026 5.24252 14.4156C5.65021 14.8052 6.2511 15 7.0453 15H9.16574C9.35635 15 9.48341 14.9299 9.54694 14.7896C9.61577 14.6494 9.58136 14.4675 9.4437 14.2442C9.29015 14.0052 9.17368 13.7766 9.09426 13.5584C9.02014 13.3455 8.98308 13.1065 8.98308 12.8416C8.98308 12.4208 9.08102 12.0286 9.27692 11.6649C9.47283 11.3013 9.75606 11.0104 10.1267 10.7922C10.5026 10.5688 10.9606 10.4571 11.5006 10.4571C12.0407 10.4571 12.4962 10.5688 12.8668 10.7922C13.2428 11.0104 13.526 11.3013 13.7166 11.6649C13.9125 12.0286 14.0104 12.4208 14.0104 12.8416C14.0104 13.1065 13.9734 13.3455 13.8993 13.5584C13.8251 13.7766 13.7113 14.0052 13.5578 14.2442C13.4201 14.4675 13.383 14.6494 13.4466 14.7896C13.5154 14.9299 13.6451 15 13.8357 15H15.9562C16.7451 15 17.3433 14.8052 17.751 14.4156C18.1587 14.026 18.3625 13.4468 18.3625 12.6779V9.79481C18.3625 9.6026 18.434 9.47533 18.5769 9.41299C18.7252 9.35065 18.9105 9.38701 19.1329 9.52208C19.3764 9.66753 19.6096 9.77922 19.832 9.85714C20.0544 9.92987 20.2979 9.96623 20.5626 9.96623C20.9968 9.96623 21.3965 9.87273 21.7618 9.68571C22.1325 9.49351 22.4316 9.21558 22.6592 8.85195C22.8869 8.48312 23.0007 8.03377 23.0007 7.5039C23.0007 6.96883 22.8869 6.51948 22.6592 6.15584C22.4316 5.78701 22.1325 5.50909 21.7618 5.32208C21.3965 5.12987 20.9968 5.03377 20.5626 5.03377C20.2979 5.03377 20.0544 5.07273 19.832 5.15065C19.6096 5.22338 19.3764 5.33247 19.1329 5.47792C18.9105 5.61299 18.7252 5.64935 18.5769 5.58701C18.434 5.52468 18.3625 5.3974 18.3625 5.2052V2.32208C18.3625 1.55844 18.1587 0.981818 17.751 0.592208C17.3433 0.197403 16.7451 0 15.9562 0H13.8357C13.6451 0 13.5154 0.0727272 13.4466 0.218182C13.383 0.358441 13.4201 0.54026 13.5578 0.763636C13.7113 1.0026 13.8251 1.23117 13.8993 1.44935C13.9734 1.66234 14.0104 1.9013 14.0104 2.16623C14.0104 2.58701 13.9125 2.97922 13.7166 3.34286C13.526 3.7013 13.2428 3.99221 12.8668 4.21559C12.4962 4.43896 12.0407 4.55065 11.5006 4.55065C10.9606 4.55065 10.5026 4.43896 10.1267 4.21559C9.75606 3.99221 9.47283 3.7013 9.27692 3.34286C9.08102 2.97922 8.98308 2.58701 8.98308 2.16623C8.98308 1.9013 9.02014 1.66234 9.09426 1.44935C9.17368 1.23117 9.29015 1.0026 9.4437 0.763636C9.58136 0.54026 9.61577 0.358441 9.54694 0.218182C9.48341 0.0727272 9.35635 0 9.16574 0H7.0453C6.2511 0 5.65021 0.197403 5.24252 0.592208C4.84013 0.981818 4.6387 1.55844 4.6387 2.32208V5.2052C4.6387 5.3974 4.56459 5.52468 4.41634 5.58701C4.27338 5.64935 4.08809 5.61299 3.86041 5.47792C3.62215 5.33247 3.39186 5.22338 3.16948 5.15065C2.94711 5.07273 2.70093 5.03377 2.4309 5.03377C2.00203 5.03377 1.60233 5.12987 1.2317 5.32208C0.866369 5.50909 0.569898 5.78701 0.342227 6.15584C0.114556 6.51948 0.000732422 6.96883 0.000732422 7.5039Z"
		fill="currentColor"
	/>
</svg>
