<svg
	color="rgb(var(--foreground, 0, 0, 0))"
	viewBox="0 0 19 15"
	fill="none"
	xmlns="http://www.w3.org/2000/svg"
>
	<path
		d="M0 12.6643C0 13.4351 0.201776 14.0171 0.605369 14.4102C1.00896 14.8034 1.59901 15 2.37515 15H11.9138C12.69 15 13.2772 14.8034 13.6756 14.4102C14.0792 14.0171 14.281 13.4351 14.281 12.6643V9.92499C14.281 9.86291 14.3017 9.82152 14.3431 9.80083C14.3845 9.77496 14.4414 9.78789 14.5138 9.83963C14.6742 9.95344 14.845 10.0569 15.0261 10.15C15.2072 10.238 15.396 10.3078 15.5926 10.3595C15.7944 10.4113 16.004 10.4371 16.2213 10.4371C16.7077 10.4371 17.1632 10.3156 17.5875 10.0724C18.0118 9.82411 18.3532 9.48267 18.6119 9.04811C18.8707 8.61355 19 8.10657 19 7.52716C19 6.95292 18.8707 6.44853 18.6119 6.01397C18.3532 5.57424 18.0118 5.2328 17.5875 4.98965C17.1632 4.74651 16.7077 4.62493 16.2213 4.62493C16.004 4.62493 15.7944 4.6508 15.5926 4.70253C15.396 4.75427 15.2072 4.82669 15.0261 4.91981C14.845 5.00776 14.6742 5.10864 14.5138 5.22245C14.4414 5.27418 14.3845 5.2897 14.3431 5.26901C14.3017 5.24314 14.281 5.19917 14.281 5.13709V2.33575C14.281 1.5701 14.0792 0.990688 13.6756 0.597517C13.2772 0.199172 12.69 0 11.9138 0H2.37515C1.59901 0 1.00896 0.199172 0.605369 0.597517C0.201776 0.990688 0 1.5701 0 2.33575V5.76565C0 6.09157 0.0931274 6.34765 0.279401 6.53388C0.465675 6.71495 0.693319 6.80548 0.962381 6.80548C1.10726 6.80548 1.25471 6.77444 1.40477 6.71236C1.55999 6.64511 1.71262 6.54165 1.86267 6.40197C2.04895 6.23125 2.24838 6.09674 2.46052 5.99845C2.67267 5.90016 2.89514 5.85101 3.12798 5.85101C3.5678 5.85101 3.94807 6.00362 4.26887 6.30885C4.59485 6.6089 4.75782 7.00983 4.75782 7.51164C4.75782 8.01345 4.59485 8.41697 4.26887 8.72219C3.94807 9.02224 3.5678 9.17227 3.12798 9.17227C2.89514 9.17227 2.67267 9.12312 2.46052 9.02483C2.24838 8.92137 2.04895 8.78427 1.86267 8.61355C1.71262 8.47905 1.55999 8.38075 1.40477 8.31868C1.25471 8.25142 1.10726 8.2178 0.962381 8.2178C0.693319 8.2178 0.465675 8.31092 0.279401 8.49716C0.0931274 8.67822 0 8.92913 0 9.24987V12.6643ZM1.24954 12.6022V10.0181C1.24954 9.83704 1.28576 9.75944 1.3582 9.78531C1.43581 9.806 1.51083 9.83963 1.58327 9.88619C1.74367 9.98448 1.90689 10.075 2.07247 10.1578C2.24322 10.2354 2.41913 10.2975 2.60022 10.344C2.7865 10.3906 2.9831 10.4139 3.19007 10.4139C3.67645 10.4139 4.12916 10.2923 4.54827 10.0491C4.97256 9.806 5.31403 9.46715 5.57274 9.03259C5.83663 8.59286 5.96856 8.08588 5.96856 7.51164C5.96856 6.9374 5.83663 6.43301 5.57274 5.99845C5.31403 5.55872 4.97256 5.21728 4.54827 4.97413C4.12916 4.73099 3.67645 4.60942 3.19007 4.60942C2.9831 4.60942 2.7865 4.63269 2.60022 4.67925C2.41913 4.72064 2.24322 4.78272 2.07247 4.86549C1.90689 4.94309 1.74367 5.03363 1.58327 5.13709C1.51083 5.18365 1.43581 5.21987 1.3582 5.24573C1.28576 5.26643 1.24954 5.18624 1.24954 5.00517V2.39783C1.24954 2.03052 1.35043 1.74858 1.55223 1.55199C1.75402 1.35023 2.03624 1.24935 2.39844 1.24935H11.8906C12.2476 1.24935 12.527 1.35023 12.7288 1.55199C12.9306 1.74858 13.0314 2.03052 13.0314 2.39783V5.76565C13.0314 6.09157 13.1246 6.35023 13.3108 6.54165C13.4971 6.73306 13.7248 6.82876 13.9938 6.82876C14.1439 6.82876 14.2939 6.79772 14.444 6.73564C14.594 6.66839 14.7441 6.56493 14.8941 6.42525C15.0856 6.25453 15.2873 6.12002 15.4995 6.02173C15.7116 5.91826 15.9315 5.86653 16.1592 5.86653C16.599 5.86653 16.9795 6.01914 17.3003 6.32437C17.6263 6.62959 17.7893 7.03052 17.7893 7.52716C17.7893 8.02897 17.6263 8.43249 17.3003 8.73771C16.9795 9.04294 16.599 9.19555 16.1592 9.19555C15.9315 9.19555 15.7116 9.1464 15.4995 9.04811C15.2873 8.94464 15.0856 8.80755 14.8941 8.63683C14.7441 8.49716 14.594 8.39627 14.444 8.33419C14.2939 8.26694 14.1439 8.23332 13.9938 8.23332C13.7248 8.23332 13.4971 8.32902 13.3108 8.52043C13.1246 8.71185 13.0314 8.97051 13.0314 9.29643V12.6022C13.0314 12.9746 12.9306 13.2592 12.7288 13.4558C12.527 13.6524 12.2476 13.7506 11.8906 13.7506H2.39844C2.03624 13.7506 1.75402 13.6524 1.55223 13.4558C1.35043 13.2592 1.24954 12.9746 1.24954 12.6022Z"
		fill="currentColor"
	/>
</svg>
