<svg
	color="rgb(var(--foreground, 0, 0, 0))"
	viewBox="0 0 19 15"
	fill="none"
	xmlns="http://www.w3.org/2000/svg"
>
	<path
		d="M0 12.6565C0 13.4273 0.199307 14.0093 0.597962 14.4025C1.00193 14.8008 1.59745 15 2.38412 15H12.2468C13.0441 15 13.6447 14.8034 14.0486 14.4102C14.4579 14.0222 14.6625 13.448 14.6625 12.6875V9.41283C14.6625 9.33523 14.6891 9.2835 14.7423 9.25763C14.8007 9.23176 14.8698 9.24987 14.9496 9.31195C15.0984 9.42059 15.2552 9.51888 15.4199 9.60683C15.5847 9.69477 15.7628 9.7672 15.9541 9.82411C16.1508 9.87584 16.3634 9.90171 16.592 9.90171C17.0438 9.90171 17.4506 9.79824 17.812 9.59131C18.1788 9.3792 18.4685 9.09467 18.6811 8.73771C18.8937 8.37558 19 7.97206 19 7.52716C19 7.08743 18.8937 6.68908 18.6811 6.33213C18.4685 5.96999 18.1788 5.68546 17.812 5.47853C17.4506 5.26642 17.0438 5.16037 16.592 5.16037C16.3634 5.16037 16.1508 5.18883 15.9541 5.24573C15.7628 5.29746 15.5847 5.3673 15.4199 5.45525C15.2552 5.5432 15.0984 5.64149 14.9496 5.75013C14.8698 5.81221 14.8007 5.83032 14.7423 5.80445C14.6891 5.77858 14.6625 5.72685 14.6625 5.64925V2.31247C14.6625 1.55199 14.4579 0.977754 14.0486 0.589756C13.6447 0.196585 13.0441 0 12.2468 0H2.38412C1.59745 0 1.00193 0.199172 0.597962 0.597517C0.199307 0.990688 0 1.57268 0 2.34351V5.67253C0 5.92602 0.0876952 6.13037 0.263103 6.28557C0.438512 6.43559 0.645791 6.5106 0.884984 6.5106C1.01787 6.5106 1.15074 6.48474 1.28363 6.43301C1.42183 6.3761 1.55204 6.28815 1.67429 6.16917C1.79655 6.05535 1.93498 5.93895 2.08913 5.81997C2.24328 5.70098 2.4293 5.6001 2.64723 5.51733C2.86516 5.43456 3.12825 5.39317 3.43654 5.39317C3.83519 5.39317 4.1966 5.48629 4.52084 5.67253C4.8504 5.85877 5.11083 6.11226 5.30218 6.43301C5.49353 6.75375 5.5892 7.1133 5.5892 7.51164C5.5892 7.90481 5.49353 8.26177 5.30218 8.58251C5.11083 8.90326 4.8504 9.15934 4.52084 9.35075C4.1966 9.53699 3.83519 9.63011 3.43654 9.63011C3.12825 9.63011 2.86516 9.58872 2.64723 9.50595C2.4293 9.42317 2.24328 9.3223 2.08913 9.20331C1.93498 9.07915 1.79655 8.96016 1.67429 8.84635C1.55204 8.73254 1.42183 8.64977 1.28363 8.59803C1.15074 8.54113 1.01787 8.51267 0.884984 8.51267C0.645791 8.51267 0.438512 8.59027 0.263103 8.74547C0.0876952 8.8955 0 9.09726 0 9.35075V12.6565Z"
		fill="currentColor"
	/>
</svg>
