<svg
	color="rgb(var(--foreground, 0, 0, 0))"
	viewBox="0 0 23 15"
	fill="none"
	xmlns="http://www.w3.org/2000/svg"
>
	<path
		d="M7.13306 15H9.72705C10.05 15 10.3078 14.9069 10.5005 14.7206C10.6932 14.5344 10.7896 14.3068 10.7896 14.0378C10.7896 13.8929 10.7557 13.7429 10.688 13.5877C10.6255 13.4377 10.5239 13.2876 10.3833 13.1376C10.2114 12.9514 10.076 12.7522 9.97705 12.5401C9.87809 12.328 9.82861 12.1081 9.82861 11.8805C9.82861 11.4304 9.97964 11.045 10.2817 10.7243C10.5838 10.4035 10.9901 10.2431 11.5005 10.2431C12.0109 10.2431 12.4171 10.4035 12.7192 10.7243C13.0213 11.045 13.1724 11.4304 13.1724 11.8805C13.1724 12.1081 13.1203 12.328 13.0161 12.5401C12.9172 12.7522 12.7817 12.9514 12.6099 13.1376C12.4744 13.2876 12.3729 13.4377 12.3052 13.5877C12.2427 13.7429 12.2114 13.8929 12.2114 14.0378C12.2114 14.3068 12.3078 14.5344 12.5005 14.7206C12.6932 14.9069 12.951 15 13.2739 15H15.8599C16.6463 15 17.2403 14.8034 17.6414 14.4102C18.0476 14.0171 18.2507 13.4351 18.2507 12.6643V9.92499C18.2507 9.86291 18.2716 9.82152 18.3132 9.80083C18.3549 9.77496 18.4096 9.78789 18.4773 9.83963C18.644 9.95344 18.8184 10.0569 19.0007 10.15C19.183 10.238 19.3731 10.3078 19.571 10.3595C19.7742 10.4113 19.9825 10.4371 20.196 10.4371C20.6909 10.4371 21.1492 10.3156 21.571 10.0724C21.9981 9.82411 22.3419 9.48267 22.6023 9.04811C22.8679 8.61355 23.0007 8.10657 23.0007 7.52716C23.0007 6.95292 22.8679 6.44853 22.6023 6.01397C22.3419 5.57424 21.9981 5.2328 21.571 4.98965C21.1492 4.74651 20.6909 4.62493 20.196 4.62493C19.9825 4.62493 19.7742 4.6508 19.571 4.70253C19.3731 4.75427 19.183 4.82669 19.0007 4.91981C18.8184 5.00776 18.644 5.10864 18.4773 5.22245C18.4096 5.27418 18.3549 5.2897 18.3132 5.26901C18.2716 5.24314 18.2507 5.19917 18.2507 5.13709V2.33575C18.2507 1.5701 18.0476 0.990688 17.6414 0.597517C17.2403 0.199172 16.6463 0 15.8599 0H13.2739C12.951 0 12.6932 0.0931192 12.5005 0.279358C12.3078 0.465597 12.2114 0.693223 12.2114 0.962235C12.2114 1.10709 12.2427 1.25711 12.3052 1.41231C12.3729 1.56234 12.4744 1.71236 12.6099 1.86239C12.7817 2.04863 12.9172 2.2478 13.0161 2.45991C13.1203 2.67201 13.1724 2.89446 13.1724 3.12726C13.1724 3.56699 13.0187 3.94982 12.7114 4.27574C12.4093 4.59648 12.0057 4.75685 11.5005 4.75685C10.9953 4.75685 10.589 4.59648 10.2817 4.27574C9.97964 3.94982 9.82861 3.56699 9.82861 3.12726C9.82861 2.89446 9.87809 2.67201 9.97705 2.45991C10.076 2.2478 10.2114 2.04863 10.3833 1.86239C10.5239 1.71236 10.6255 1.56234 10.688 1.41231C10.7557 1.25711 10.7896 1.10709 10.7896 0.962235C10.7896 0.693223 10.6932 0.465597 10.5005 0.279358C10.3078 0.0931192 10.05 0 9.72705 0H7.13306C6.35178 0 5.75807 0.199172 5.35181 0.597517C4.95075 0.990688 4.75024 1.5701 4.75024 2.33575V5.13709C4.75024 5.19917 4.72941 5.24314 4.68774 5.26901C4.64608 5.2897 4.59139 5.27418 4.52368 5.22245C4.35701 5.10864 4.18254 5.00776 4.00024 4.91981C3.81795 4.82669 3.62525 4.75427 3.42212 4.70253C3.2242 4.6508 3.01588 4.62493 2.79712 4.62493C2.30752 4.62493 1.84897 4.74651 1.42188 4.98965C0.994777 5.2328 0.65105 5.57424 0.390625 6.01397C0.1302 6.44853 0 6.95292 0 7.52716C0 8.10657 0.1302 8.61355 0.390625 9.04811C0.65105 9.48267 0.994777 9.82411 1.42188 10.0724C1.84897 10.3156 2.30752 10.4371 2.79712 10.4371C3.01588 10.4371 3.2242 10.4113 3.42212 10.3595C3.62525 10.3078 3.81795 10.238 4.00024 10.15C4.18254 10.0569 4.35701 9.95344 4.52368 9.83963C4.59139 9.78789 4.64608 9.77496 4.68774 9.80083C4.72941 9.82152 4.75024 9.86291 4.75024 9.92499V12.6643C4.75024 13.4351 4.95075 14.0171 5.35181 14.4102C5.75807 14.8034 6.35178 15 7.13306 15ZM7.15649 13.7506C6.79711 13.7506 6.51588 13.6524 6.31274 13.4558C6.10961 13.2592 6.00806 12.9746 6.00806 12.6022V9.29643C6.00806 8.97051 5.91431 8.71185 5.72681 8.52043C5.5393 8.32902 5.31015 8.23332 5.03931 8.23332C4.89347 8.23332 4.74244 8.26694 4.58618 8.33419C4.43513 8.39627 4.2841 8.49716 4.13306 8.63683C3.94555 8.80755 3.74244 8.94464 3.52368 9.04811C3.31013 9.1464 3.08879 9.19555 2.85962 9.19555C2.4169 9.19555 2.03126 9.04294 1.70312 8.73771C1.3802 8.43249 1.21875 8.02897 1.21875 7.52716C1.21875 7.03052 1.3802 6.62959 1.70312 6.32437C2.03126 6.01914 2.4169 5.86653 2.85962 5.86653C3.08879 5.86653 3.31013 5.91826 3.52368 6.02173C3.74244 6.12002 3.94555 6.25453 4.13306 6.42525C4.2841 6.56493 4.43513 6.66839 4.58618 6.73564C4.74244 6.79772 4.89347 6.82876 5.03931 6.82876C5.31015 6.82876 5.5393 6.73306 5.72681 6.54165C5.91431 6.35023 6.00806 6.09157 6.00806 5.76565V2.39783C6.00806 2.03052 6.10961 1.74858 6.31274 1.55199C6.51588 1.35023 6.79711 1.24935 7.15649 1.24935H8.95337C9.13567 1.24935 9.219 1.28815 9.20337 1.36575C9.18774 1.43818 9.1565 1.5106 9.10962 1.58303C9.00545 1.7434 8.91171 1.90895 8.82837 2.07967C8.75024 2.24521 8.68775 2.42111 8.64087 2.60735C8.5992 2.78841 8.57837 2.98241 8.57837 3.18934C8.57837 3.67563 8.70076 4.13088 8.94556 4.5551C9.19036 4.97413 9.53172 5.31557 9.96924 5.57941C10.412 5.83808 10.9223 5.96741 11.5005 5.96741C12.0786 5.96741 12.5864 5.83808 13.0239 5.57941C13.4666 5.31557 13.8104 4.97413 14.0552 4.5551C14.3 4.13088 14.4224 3.67563 14.4224 3.18934C14.4224 2.98241 14.3989 2.78841 14.3521 2.60735C14.3052 2.42111 14.2427 2.24521 14.1646 2.07967C14.0864 1.90895 13.9953 1.7434 13.8911 1.58303C13.8442 1.5106 13.8104 1.43818 13.7896 1.36575C13.7739 1.28815 13.8599 1.24935 14.0474 1.24935H15.8442C16.2036 1.24935 16.4851 1.35023 16.6882 1.55199C16.8914 1.74858 16.9929 2.03052 16.9929 2.39783V5.76565C16.9929 6.09157 17.0867 6.35023 17.2742 6.54165C17.4617 6.73306 17.6908 6.82876 17.9617 6.82876C18.1075 6.82876 18.2559 6.79772 18.407 6.73564C18.5632 6.66839 18.7169 6.56493 18.8679 6.42525C19.0554 6.25453 19.2559 6.12002 19.4695 6.02173C19.683 5.91826 19.9044 5.86653 20.1335 5.86653C20.5815 5.86653 20.9669 6.01914 21.2898 6.32437C21.6179 6.62959 21.782 7.03052 21.782 7.52716C21.782 8.02897 21.6179 8.43249 21.2898 8.73771C20.9669 9.04294 20.5815 9.19555 20.1335 9.19555C19.9044 9.19555 19.683 9.1464 19.4695 9.04811C19.2559 8.94464 19.0554 8.80755 18.8679 8.63683C18.7169 8.49716 18.5632 8.39627 18.407 8.33419C18.2559 8.26694 18.1075 8.23332 17.9617 8.23332C17.6908 8.23332 17.4617 8.32902 17.2742 8.52043C17.0867 8.71185 16.9929 8.97051 16.9929 9.29643V12.6022C16.9929 12.9746 16.8914 13.2592 16.6882 13.4558C16.4851 13.6524 16.2036 13.7506 15.8442 13.7506H14.0474C13.8599 13.7506 13.7739 13.7118 13.7896 13.6342C13.8104 13.5618 13.8442 13.4894 13.8911 13.417C13.9953 13.2618 14.0864 13.0988 14.1646 12.9281C14.2427 12.7574 14.3052 12.5815 14.3521 12.4004C14.3989 12.2142 14.4224 12.0202 14.4224 11.8184C14.4224 11.3218 14.3 10.8639 14.0552 10.4449C13.8156 10.0207 13.4745 9.67925 13.0317 9.42059C12.5942 9.16192 12.0838 9.03259 11.5005 9.03259C10.9171 9.03259 10.4041 9.16192 9.96143 9.42059C9.52391 9.67925 9.18254 10.0207 8.93774 10.4449C8.69815 10.8639 8.57837 11.3218 8.57837 11.8184C8.57837 12.0202 8.5992 12.2142 8.64087 12.4004C8.68775 12.5815 8.75024 12.7574 8.82837 12.9281C8.91171 13.0988 9.00545 13.2618 9.10962 13.417C9.1565 13.4894 9.18774 13.5618 9.20337 13.6342C9.219 13.7118 9.13567 13.7506 8.95337 13.7506H7.15649Z"
		fill="currentColor"
	/>
</svg>
