<svg
	color="rgb(var(--foreground, 0, 0, 0))"
	viewBox="0 0 15 16"
	fill="none"
	xmlns="http://www.w3.org/2000/svg"
>
	<path
		d="M7.48796 13.8226C8.29588 13.8226 9.05022 13.6728 9.75113 13.3732C10.4574 13.0736 11.0781 12.6562 11.6131 12.1212C12.1482 11.5861 12.5682 10.9655 12.8731 10.2592C13.1781 9.55297 13.3306 8.79588 13.3306 7.98796C13.3306 7.18004 13.1781 6.42563 12.8731 5.72472C12.5682 5.01846 12.1482 4.39781 11.6131 3.86276C11.0781 3.32772 10.4574 2.91038 9.75113 2.61075C9.05022 2.30578 8.29588 2.15329 7.48796 2.15329C6.68539 2.15329 5.93093 2.30578 5.22467 2.61075C4.51841 2.91038 3.89782 3.32772 3.36277 3.86276C2.82773 4.39781 2.40764 5.01846 2.10266 5.72472C1.80303 6.42563 1.65324 7.18004 1.65324 7.98796C1.65324 8.79588 1.80303 9.55297 2.10266 10.2592C2.40764 10.9655 2.82773 11.5861 3.36277 12.1212C3.89782 12.6562 4.51841 13.0736 5.22467 13.3732C5.93093 13.6728 6.68539 13.8226 7.48796 13.8226ZM7.48796 12.5225C6.86196 12.5225 6.27602 12.4074 5.73027 12.1774C5.18453 11.9419 4.70303 11.6156 4.2857 11.1982C3.86836 10.7809 3.54202 10.2994 3.3066 9.75361C3.07118 9.20787 2.95335 8.62199 2.95335 7.99599C2.95335 7.36998 3.07118 6.78411 3.3066 6.23836C3.54202 5.69262 3.86836 5.21108 4.2857 4.79374C4.70303 4.3764 5.18453 4.05003 5.73027 3.81461C6.27602 3.57919 6.86196 3.46148 7.48796 3.46148C8.11397 3.46148 8.69978 3.57919 9.24553 3.81461C9.79662 4.05003 10.2808 4.3764 10.6981 4.79374C11.1155 5.21108 11.4419 5.69262 11.6774 6.23836C11.9128 6.78411 12.0305 7.36998 12.0305 7.99599C12.0305 8.62199 11.9128 9.20787 11.6774 9.75361C11.4419 10.2994 11.1155 10.7809 10.6981 11.1982C10.2808 11.6156 9.79662 11.9419 9.24553 12.1774C8.69978 12.4074 8.11397 12.5225 7.48796 12.5225ZM13.78 14.6814C14.1171 14.3443 14.2294 13.8708 14.1171 13.2608C14.0101 12.6455 13.7265 11.9419 13.2664 11.1501C12.8062 10.3529 12.2178 9.51284 11.5008 8.63002C10.7838 7.74719 9.98389 6.86704 9.10107 5.98957C8.22359 5.10674 7.34341 4.30685 6.46058 3.58989C5.57776 2.87293 4.73782 2.28438 3.9406 1.82424C3.14874 1.3641 2.4451 1.08052 1.8298 0.973515C1.21984 0.861156 0.746377 0.973515 0.409298 1.31059C0.0722192 1.64767 -0.040129 2.12386 0.0722306 2.73917C0.18459 3.34912 0.468136 4.05003 0.922924 4.84189C1.38306 5.63376 1.97155 6.47378 2.68851 7.36196C3.41083 8.24478 4.21076 9.12493 5.08824 10.0024C5.96571 10.8799 6.8459 11.6798 7.72872 12.4021C8.6169 13.119 9.45684 13.7049 10.2487 14.1597C11.0406 14.6198 11.7415 14.9061 12.3515 15.0185C12.9668 15.1308 13.4429 15.0185 13.78 14.6814ZM12.8651 13.7665C12.7153 13.9216 12.4077 13.9002 11.9422 13.7022C11.4767 13.4989 10.9148 13.1699 10.2567 12.7151C9.59862 12.2549 8.90046 11.7119 8.1621 11.0859C7.42373 10.4599 6.70404 9.79374 6.00314 9.08748C5.29688 8.38657 4.63081 7.66693 4.00481 6.92857C3.3788 6.19021 2.83566 5.49197 2.37552 4.83387C1.92074 4.17576 1.59172 3.61396 1.3884 3.14848C1.19043 2.68299 1.16903 2.37533 1.32419 2.22552C1.47401 2.07036 1.78163 2.09176 2.24712 2.28973C2.71261 2.48769 3.2718 2.81675 3.92455 3.27689C4.58266 3.73167 5.28082 4.27475 6.01919 4.9061C6.7629 5.5321 7.48794 6.19556 8.1942 6.89647C8.89511 7.60273 9.5585 8.32504 10.1845 9.0634C10.8159 9.80176 11.359 10.5 11.8138 11.1581C12.2739 11.8162 12.6029 12.378 12.8009 12.8435C12.9989 13.309 13.0203 13.6166 12.8651 13.7665ZM12.0786 3.42135C12.298 3.64072 12.5548 3.78785 12.8491 3.86276C13.1433 3.93767 13.4349 3.93767 13.7238 3.86276C14.0181 3.78785 14.2777 3.64072 14.5024 3.42135C14.7218 3.20198 14.8689 2.94516 14.9438 2.65088C15.0187 2.35661 15.0187 2.06233 14.9438 1.76806C14.8689 1.47378 14.7218 1.21696 14.5024 0.997592C14.2777 0.772873 14.0181 0.625736 13.7238 0.55618C13.4349 0.481273 13.1433 0.481273 12.8491 0.55618C12.5548 0.625736 12.298 0.772873 12.0786 0.997592C11.8539 1.21696 11.7041 1.47378 11.6292 1.76806C11.5596 2.06233 11.5596 2.35661 11.6292 2.65088C11.7041 2.94516 11.8539 3.20198 12.0786 3.42135ZM12.0626 2.51445L1.74954 12.8435L2.65641 13.7504L12.9775 3.4374L12.0626 2.51445ZM0.505603 14.9944C0.724972 15.2191 0.979092 15.3689 1.26802 15.4438C1.56229 15.5187 1.85654 15.5187 2.15081 15.4438C2.44509 15.3689 2.70188 15.2191 2.92125 14.9944C3.14597 14.775 3.29589 14.5182 3.3708 14.2239C3.44571 13.9296 3.44571 13.638 3.3708 13.3491C3.29589 13.0548 3.14597 12.798 2.92125 12.5787C2.70188 12.3539 2.44509 12.2041 2.15081 12.1292C1.85654 12.0543 1.56229 12.0543 1.26802 12.1292C0.979092 12.2041 0.724972 12.3539 0.505603 12.5787C0.280884 12.798 0.131086 13.0548 0.0561798 13.3491C-0.0187266 13.638 -0.0187266 13.9296 0.0561798 14.2239C0.131086 14.5182 0.280884 14.775 0.505603 14.9944Z"
		fill="currentColor"
	/>
</svg>
