<svg
	color="rgb(var(--foreground, 0, 0, 0))"
	viewBox="0 0 16 16"
	fill="none"
	xmlns="http://www.w3.org/2000/svg"
>
	<path
		d="M0 8C0 9.09281 0.20915 10.1229 0.627451 11.0902C1.04575 12.0523 1.62353 12.902 2.36078 13.6392C3.09804 14.3765 3.94771 14.9542 4.9098 15.3726C5.87712 15.7909 6.90719 16 8 16C9.09281 16 10.1203 15.7909 11.0824 15.3726C12.0497 14.9542 12.902 14.3765 13.6392 13.6392C14.3765 12.902 14.9542 12.0523 15.3726 11.0902C15.7909 10.1229 16 9.09281 16 8C16 6.90719 15.7909 5.87974 15.3726 4.91765C14.9542 3.95033 14.3765 3.09804 13.6392 2.36078C12.902 1.62353 12.0497 1.04575 11.0824 0.627451C10.115 0.20915 9.08497 0 7.99216 0C6.89935 0 5.86928 0.20915 4.90196 0.627451C3.93987 1.04575 3.0902 1.62353 2.35294 2.36078C1.62092 3.09804 1.04575 3.95033 0.627451 4.91765C0.20915 5.87974 0 6.90719 0 8ZM1.34118 8H7.98431L4.65882 2.21961C5.1451 1.93726 5.67059 1.72026 6.23529 1.56863C6.8 1.41176 7.38562 1.33333 7.99216 1.33333C8.59869 1.33333 9.18431 1.41176 9.74902 1.56863C10.3137 1.72026 10.8392 1.93726 11.3255 2.21961L7.98431 8H14.6667C14.6667 8.83137 14.5281 9.61569 14.251 10.3529C13.9739 11.085 13.5843 11.7438 13.0824 12.3294C12.5804 12.915 11.9974 13.3987 11.3333 13.7804L7.98431 8L4.65882 13.7725C3.99477 13.3909 3.41438 12.9072 2.91765 12.3216C2.42092 11.7359 2.03399 11.0771 1.75686 10.3451C1.47974 9.60784 1.34118 8.82614 1.34118 8Z"
		fill="currentColor"
	/>
</svg>
