<svg
	color="rgb(var(--foreground, 0, 0, 0))"
	viewBox="0 0 8 18"
	fill="none"
	xmlns="http://www.w3.org/2000/svg"
>
	<path
		d="M3.05138 18H4.94862C5.42293 18 5.77866 17.8767 6.01581 17.6302C6.25823 17.3837 6.37945 17.0085 6.37945 16.5047V7.96695C6.37945 7.54355 6.42424 7.17642 6.51383 6.86556C6.60343 6.55471 6.72464 6.28138 6.87747 6.04556L7.3913 5.27378C7.57049 4.98973 7.71542 4.70567 7.82609 4.42162C7.94203 4.13756 8 3.82403 8 3.48102V2.8218H0V3.48102C0 3.82403 0.055336 4.13756 0.166008 4.42162C0.27668 4.70567 0.424242 4.98973 0.608696 5.27378L1.11462 6.04556C1.26746 6.28138 1.38867 6.55471 1.47826 6.86556C1.56785 7.17642 1.61265 7.54355 1.61265 7.96695V16.5047C1.61265 17.0085 1.73386 17.3837 1.97628 17.6302C2.21871 17.8767 2.57708 18 3.05138 18ZM4 7.33184C4.32148 7.33184 4.57971 7.44171 4.7747 7.66146C4.9697 7.87584 5.06719 8.15185 5.06719 8.4895V10.6923C5.06719 11.0246 4.9697 11.2952 4.7747 11.5042C4.57971 11.7079 4.32148 11.8124 4 11.8178C3.67852 11.8231 3.42029 11.7213 3.2253 11.5123C3.0303 11.3033 2.93281 11.0299 2.93281 10.6923V8.4895C2.93281 8.15185 3.0303 7.87584 3.2253 7.66146C3.42029 7.44171 3.67852 7.33184 4 7.33184ZM4 7.90264C3.82609 7.90264 3.67325 7.96695 3.5415 8.09558C3.40975 8.22421 3.34387 8.37963 3.34387 8.56186C3.34387 8.73872 3.40975 8.89415 3.5415 9.02814C3.67325 9.15677 3.82609 9.22108 4 9.22108C4.17391 9.22108 4.32411 9.15677 4.45059 9.02814C4.58235 8.89415 4.64822 8.73872 4.64822 8.56186C4.64822 8.37963 4.58235 8.22421 4.45059 8.09558C4.32411 7.96695 4.17391 7.90264 4 7.90264ZM0 1.8812H8V1.49531C8 0.986155 7.87879 0.610987 7.63636 0.369808C7.39394 0.123269 7.03557 0 6.56126 0H1.43874C0.964427 0 0.606061 0.123269 0.363636 0.369808C0.121212 0.610987 0 0.986155 0 1.49531V1.8812Z"
		fill="currentColor"
	/>
</svg>
