<svg
	color="rgb(var(--foreground, 0, 0, 0))"
	viewBox="0 0 8 18"
	fill="none"
	xmlns="http://www.w3.org/2000/svg"
>
	<path
		d="M3.05138 18H4.94862C5.42293 18 5.77866 17.8767 6.01581 17.6302C6.25823 17.3837 6.37945 17.0085 6.37945 16.5047V7.96695C6.37945 7.54355 6.42424 7.17642 6.51383 6.86556C6.60343 6.55471 6.72464 6.28138 6.87747 6.04556L7.3913 5.27378C7.57049 4.98973 7.71542 4.70567 7.82609 4.42162C7.94203 4.13756 8 3.82403 8 3.48102V2.8218H0V3.48102C0 3.82403 0.055336 4.13756 0.166008 4.42162C0.27668 4.70567 0.424242 4.98973 0.608696 5.27378L1.11462 6.04556C1.26746 6.28138 1.38867 6.55471 1.47826 6.86556C1.56785 7.17642 1.61265 7.54355 1.61265 7.96695V16.5047C1.61265 17.0085 1.73386 17.3837 1.97628 17.6302C2.21871 17.8767 2.57708 18 3.05138 18ZM4 11.8178C3.67852 11.8178 3.42029 11.7106 3.2253 11.4962C3.0303 11.2765 2.93281 10.9978 2.93281 10.6601V8.45735C2.93281 8.1197 3.0303 7.84636 3.2253 7.63734C3.42029 7.42832 3.67852 7.32649 4 7.33184C4.32148 7.3372 4.57971 7.44439 4.7747 7.65342C4.9697 7.85708 5.06719 8.12506 5.06719 8.45735V10.6601C5.06719 10.9978 4.9697 11.2765 4.7747 11.4962C4.57971 11.7106 4.32148 11.8178 4 11.8178ZM4 11.247C4.17391 11.247 4.32411 11.1827 4.45059 11.054C4.58235 10.9254 4.64822 10.77 4.64822 10.5878C4.64822 10.4109 4.58235 10.2555 4.45059 10.1215C4.32411 9.98749 4.17391 9.9205 4 9.9205C3.82609 9.9205 3.67325 9.98749 3.5415 10.1215C3.40975 10.2555 3.34387 10.4109 3.34387 10.5878C3.34387 10.77 3.40975 10.9254 3.5415 11.054C3.67325 11.1827 3.82609 11.247 4 11.247ZM0 1.8812H8V1.49531C8 0.986155 7.87879 0.610987 7.63636 0.369808C7.39394 0.123269 7.03557 0 6.56126 0H1.43874C0.964427 0 0.606061 0.123269 0.363636 0.369808C0.121212 0.610987 0 0.986155 0 1.49531V1.8812Z"
		fill="currentColor"
	/>
</svg>
