<svg
	color="rgb(var(--foreground, 0, 0, 0))"
	viewBox="0 0 19 18"
	fill="none"
	xmlns="http://www.w3.org/2000/svg"
>
	<path
		d="M1.76447 17.5193C2.10316 17.8685 2.46237 18.0274 2.84211 17.9961C3.22698 17.9701 3.59389 17.7564 3.94284 17.3551L11.2631 8.88851L9.00005 6.5901L0.640646 14.0013C0.24038 14.3609 0.0274175 14.7336 0.00175941 15.1192C-0.0187671 15.5049 0.140313 15.8723 0.479 16.2215L1.76447 17.5193ZM15.4505 10.7882C15.6147 10.9446 15.7866 11.028 15.9662 11.0384C16.1458 11.0488 16.3152 10.9732 16.4743 10.8117L18.7912 8.47417C18.94 8.32303 19.0093 8.15364 18.999 7.96602C18.9887 7.77318 18.9041 7.59859 18.745 7.44223L18.1908 6.87154C18.0368 6.7204 17.9034 6.62658 17.7905 6.5901C17.6776 6.55362 17.5391 6.54059 17.3748 6.55101L16.4743 6.66046L15.8969 6.07413L16.1587 4.97184C16.2254 4.70082 16.2074 4.4246 16.1048 4.14316C16.0021 3.86172 15.8097 3.57768 15.5275 3.29103L13.9803 1.7353C13.5544 1.30272 13.0669 0.948319 12.5178 0.672093C11.9687 0.395868 11.3888 0.205637 10.7782 0.1014C10.1675 -0.00804764 9.55683 -0.0288949 8.94617 0.0388586C8.33551 0.106612 7.7505 0.268178 7.19115 0.523557C6.63181 0.773724 6.13148 1.12031 5.69016 1.56331C5.50542 1.75094 5.41818 1.94117 5.42844 2.13401C5.44384 2.32684 5.51055 2.49101 5.62858 2.62652C5.72095 2.71512 5.83384 2.78027 5.96726 2.82196C6.10069 2.85845 6.23411 2.85584 6.36753 2.81415C7.11675 2.58483 7.81721 2.46756 8.46893 2.46235C9.12064 2.45193 9.72617 2.6161 10.2855 2.95487L9.69282 4.53404C9.56453 4.8676 9.52861 5.15685 9.58505 5.40181C9.64663 5.64676 9.78262 5.87869 9.99302 6.09759L11.7095 7.84094C11.8686 7.99729 12.0354 8.10153 12.2099 8.15364C12.3895 8.20055 12.605 8.20055 12.8565 8.15364L14.0957 7.89566L14.6654 8.48199L14.5807 9.39666C14.5704 9.56865 14.5807 9.71458 14.6115 9.83445C14.6474 9.95432 14.7423 10.0872 14.8963 10.2332L15.4505 10.7882Z"
		fill="currentColor"
	/>
</svg>
