<svg
	color="rgb(var(--foreground, 0, 0, 0))"
	viewBox="0 0 19 8"
	fill="none"
	xmlns="http://www.w3.org/2000/svg"
>
	<path
		d="M2.10507 8H16.8949C17.594 8 18.1196 7.83272 18.4718 7.49816C18.8239 7.16359 19 6.66913 19 6.01476V1.98524C19 1.33087 18.8213 0.836408 18.464 0.501845C18.1119 0.167282 17.5863 0 16.8872 0H2.0973C1.40338 0 0.880349 0.167282 0.528209 0.501845C0.17607 0.836408 0 1.33087 0 1.98524V6.01476C0 6.66913 0.17607 7.16359 0.528209 7.49816C0.885527 7.83272 1.41115 8 2.10507 8ZM2.2915 6.81181C1.96007 6.81181 1.70373 6.72571 1.52249 6.55351C1.34124 6.3813 1.25061 6.13038 1.25061 5.80074V2.19926C1.25061 1.8647 1.34124 1.61378 1.52249 1.44649C1.70373 1.27429 1.96266 1.18819 2.29926 1.18819H16.7007C17.0322 1.18819 17.2885 1.27429 17.4697 1.44649C17.651 1.61378 17.7416 1.8647 17.7416 2.19926V5.80074C17.7416 6.13038 17.651 6.3813 17.4697 6.55351C17.2885 6.72571 17.0296 6.81181 16.693 6.81181H2.2915ZM3.16149 7.15129H3.9072V0.848709H3.16149V7.15129ZM15.0928 7.15129H15.8385V0.848709H15.0928V7.15129ZM9.5 4.33948C10.282 4.33948 10.9811 4.19434 11.5973 3.90406C12.2135 3.61378 12.7107 3.20787 13.0887 2.68635C13.4667 2.1599 13.6842 1.54736 13.7412 0.848709H12.9101C12.8686 1.41451 12.6951 1.90898 12.3896 2.3321C12.0893 2.75523 11.6879 3.08487 11.1856 3.32103C10.6885 3.55228 10.1266 3.6679 9.5 3.6679C8.8734 3.6679 8.30894 3.55228 7.80662 3.32103C7.30948 3.08487 6.90815 2.75523 6.60262 2.3321C6.30226 1.90898 6.12878 1.41451 6.08217 0.848709H5.25102C5.31316 1.54736 5.53325 2.1599 5.91128 2.68635C6.28932 3.20787 6.78645 3.61378 7.4027 3.90406C8.02412 4.19434 8.72322 4.33948 9.5 4.33948ZM9.5 2.57565C10.0282 2.57565 10.4684 2.43296 10.8205 2.1476C11.1778 1.85732 11.3772 1.47355 11.4186 0.99631H7.58136C7.62279 1.47355 7.81957 1.85732 8.17171 2.1476C8.52903 2.43296 8.97179 2.57565 9.5 2.57565Z"
		fill="currentColor"
	/>
</svg>
