<svg
	color="rgb(var(--foreground, 0, 0, 0))"
	viewBox="0 0 19 8"
	fill="none"
	xmlns="http://www.w3.org/2000/svg"
>
	<path
		d="M2.11282 8H3.16924V0H2.09729C1.40337 0 0.880344 0.167282 0.528206 0.501845C0.176069 0.836408 0 1.33087 0 1.98524L0.00776774 6.01476C0.00776774 6.67405 0.183837 7.17097 0.535974 7.50553C0.888111 7.83518 1.41373 8 2.11282 8ZM3.91494 8H15.0849V0H13.7489C13.6919 0.703567 13.4744 1.31857 13.0964 1.84502C12.7184 2.36654 12.2212 2.77245 11.605 3.06273C10.9888 3.35301 10.2897 3.49815 9.50771 3.49815C8.73094 3.49815 8.03184 3.35301 7.41042 3.06273C6.79418 2.77245 6.29705 2.36654 5.91902 1.84502C5.54099 1.31857 5.3209 0.703567 5.25876 0H3.91494V8ZM15.8307 8H16.8871C17.5862 8 18.1092 7.83518 18.4561 7.50553C18.8031 7.17097 18.9792 6.67405 18.9844 6.01476L18.9999 1.98524C19.0051 1.33087 18.829 0.836408 18.4717 0.501845C18.1195 0.167282 17.5939 0 16.8948 0H15.8307V8ZM9.50771 2.81919C10.1343 2.81919 10.6962 2.70357 11.1933 2.47232C11.6956 2.24108 12.097 1.9139 12.3973 1.49077C12.7028 1.06273 12.8763 0.565806 12.9177 0H11.7137C11.662 0.551045 11.4315 0.99385 11.0224 1.32841C10.6185 1.65806 10.1136 1.82288 9.50771 1.82288C8.90183 1.82288 8.39434 1.65806 7.98524 1.32841C7.57613 0.99385 7.34828 0.551045 7.30167 0H6.08991C6.13651 0.565806 6.30999 1.06273 6.61035 1.49077C6.91588 1.9139 7.31721 2.24108 7.81434 2.47232C8.31666 2.70357 8.88111 2.81919 9.50771 2.81919Z"
		fill="currentColor"
	/>
</svg>
