<svg
	color="rgb(var(--foreground, 0, 0, 0))"
	viewBox="0 0 17 16"
	fill="none"
	xmlns="http://www.w3.org/2000/svg"
>
	<path
		d="M3.19847 10.9241H4.83969V3.75633H3.19847C2.15522 3.75633 1.36132 4.01624 0.816794 4.53608C0.272265 5.05592 0 5.80819 0 6.79288V7.88754C0 8.87223 0.272265 9.62449 0.816794 10.1443C1.36132 10.6642 2.15522 10.9241 3.19847 10.9241ZM5.8855 10.9316C6.60305 11.0066 7.36641 11.1265 8.17557 11.2915C8.98473 11.4564 9.79135 11.6664 10.5954 11.9213C11.3995 12.1712 12.1501 12.4636 12.8473 12.7985C12.8473 12.7635 12.8473 12.726 12.8473 12.686C12.8473 12.646 12.8473 12.6061 12.8473 12.5661V2.13683C12.8473 2.09185 12.8473 2.04936 12.8473 2.00937C12.8473 1.96938 12.8473 1.9269 12.8473 1.88191C12.1399 2.22181 11.3715 2.51921 10.542 2.77413C9.71756 3.02905 8.89822 3.23899 8.08397 3.40394C7.27481 3.56888 6.54198 3.68635 5.8855 3.75633V10.9316ZM15.4427 14.6279C15.7532 14.6279 16.0254 14.5629 16.2595 14.433C16.4936 14.308 16.6743 14.1306 16.8015 13.9007C16.9338 13.6707 17 13.4058 17 13.1059V1.52952C17 1.22962 16.9338 0.964698 16.8015 0.73477C16.6743 0.499844 16.4936 0.3199 16.2595 0.194939C16.0254 0.0649797 15.7532 0 15.4427 0C15.1374 0 14.8677 0.0649797 14.6336 0.194939C14.3995 0.3199 14.2163 0.499844 14.084 0.73477C13.9567 0.964698 13.8931 1.22962 13.8931 1.52952V13.1059C13.8931 13.4058 13.9567 13.6707 14.084 13.9007C14.2163 14.1306 14.3995 14.308 14.6336 14.433C14.8677 14.5629 15.1374 14.6279 15.4427 14.6279ZM6.23664 16C6.55216 16 6.82952 15.93 7.0687 15.7901C7.31298 15.6501 7.48855 15.4452 7.59542 15.1753C7.70229 14.9053 7.71501 14.5779 7.63359 14.1931L7.20611 12.1762C6.91603 12.1262 6.52163 12.0837 6.0229 12.0487C5.52926 12.0137 4.79898 11.9838 3.83206 11.9588C3.7659 11.9588 3.67684 11.9563 3.56489 11.9513C3.45293 11.9463 3.33588 11.9438 3.21374 11.9438L4.49618 14.6954C4.68957 15.1053 4.91603 15.4252 5.17557 15.6551C5.4402 15.885 5.79389 16 6.23664 16Z"
		fill="currentColor"
	/>
</svg>
