<svg
	color="rgb(var(--foreground, 0, 0, 0))"
	viewBox="0 0 17 16"
	fill="none"
	xmlns="http://www.w3.org/2000/svg"
>
	<path
		d="M0 7.97029C0 8.96027 0.272265 9.7179 0.816794 10.2432C1.36132 10.7685 2.15522 11.0311 3.19847 11.0311H5.84733C6.50891 11.1069 7.17303 11.218 7.83969 11.3645C8.51145 11.511 9.17812 11.6928 9.83969 11.91C10.5064 12.1272 11.1578 12.3822 11.7939 12.6752C12.4351 12.9681 13.056 13.2964 13.6565 13.6601V12.3115C13.0712 11.958 12.4656 11.6423 11.8397 11.3645C11.2137 11.0867 10.57 10.8442 9.9084 10.6372C9.25191 10.4301 8.58015 10.2583 7.89313 10.122C7.20611 9.98559 6.50891 9.88205 5.80153 9.81134H3.19847C2.50127 9.81134 1.99746 9.66739 1.68702 9.37949C1.38168 9.09159 1.22901 8.62186 1.22901 7.97029V6.85657C1.22901 6.20501 1.38168 5.73528 1.68702 5.44738C1.99746 5.15948 2.50127 5.01553 3.19847 5.01553H5.73282C6.45038 4.94481 7.16031 4.84127 7.8626 4.7049C8.56489 4.56347 9.24936 4.38922 9.91603 4.18213C10.5827 3.97504 11.229 3.7326 11.855 3.4548C12.4809 3.17701 13.0814 2.86133 13.6565 2.50776V1.16675C13.0814 1.53042 12.4656 1.85872 11.8092 2.15168C11.1578 2.44463 10.4911 2.70475 9.80916 2.93204C9.12723 3.15428 8.45293 3.33863 7.78626 3.48511C7.12468 3.62653 6.49364 3.73008 5.89313 3.79574H3.19847C2.15522 3.79574 1.36132 4.05838 0.816794 4.58368C0.272265 5.10392 0 5.86155 0 6.85657V7.97029ZM7.09924 10.9326H5.93893L6.58015 14.1601C6.61069 14.3268 6.58779 14.4632 6.51145 14.5693C6.4402 14.6804 6.34351 14.7587 6.22137 14.8041C6.09415 14.8496 5.9542 14.8471 5.80153 14.7966C5.65394 14.7461 5.5369 14.6299 5.45038 14.4481L3.72519 10.7887H2.47328L4.23664 14.6678C4.44529 15.1274 4.69466 15.4582 4.98473 15.6603C5.27481 15.8623 5.56997 15.9734 5.87023 15.9936C6.17048 16.0138 6.44275 15.986 6.68702 15.9103C7.05852 15.7941 7.34351 15.5693 7.54198 15.236C7.74555 14.9026 7.79644 14.4834 7.69466 13.9783L7.09924 10.9326ZM4.81679 4.37154V10.4553H6.05344V4.37154H4.81679ZM13.2214 12.9025C13.2214 13.2762 13.3003 13.602 13.458 13.8798C13.6158 14.1627 13.8371 14.3824 14.1221 14.539C14.4071 14.6955 14.7354 14.7738 15.1069 14.7738C15.4886 14.7738 15.8193 14.6955 16.0992 14.539C16.3842 14.3824 16.6056 14.1627 16.7634 13.8798C16.9211 13.602 17 13.2762 17 12.9025V1.87135C17 1.49759 16.9211 1.1718 16.7634 0.894006C16.6056 0.611157 16.3842 0.391443 16.0992 0.234866C15.8193 0.0782887 15.4886 0 15.1069 0C14.7354 0 14.4071 0.0782887 14.1221 0.234866C13.8371 0.391443 13.6158 0.611157 13.458 0.894006C13.3003 1.1718 13.2214 1.49759 13.2214 1.87135V12.9025ZM14.458 12.9025V1.87135C14.458 1.67437 14.5165 1.51779 14.6336 1.40162C14.7506 1.2804 14.9084 1.21979 15.1069 1.21979C15.3053 1.21979 15.4656 1.2804 15.5878 1.40162C15.7099 1.51779 15.771 1.67437 15.771 1.87135V12.9025C15.771 13.0995 15.7099 13.2586 15.5878 13.3798C15.4656 13.496 15.3053 13.554 15.1069 13.554C14.9084 13.554 14.7506 13.496 14.6336 13.3798C14.5165 13.2586 14.458 13.0995 14.458 12.9025Z"
		fill="currentColor"
	/>
</svg>
