<svg
	color="rgb(var(--foreground, 0, 0, 0))"
	viewBox="0 0 15 16"
	fill="none"
	xmlns="http://www.w3.org/2000/svg"
>
	<path
		d="M0.114203 13.5163C-0.0829683 14.3038 -0.0248279 14.9147 0.288625 15.3488C0.607133 15.7829 1.14809 16 1.9115 16H13.0896C13.853 16 14.3915 15.7829 14.7049 15.3488C15.0234 14.9147 15.0841 14.3038 14.8869 13.5163L13.211 6.75438C13.0745 6.19909 12.8116 5.76747 12.4223 5.45954C12.038 5.1516 11.5628 4.99763 10.9966 4.99763H4.00455C3.43832 4.99763 2.96055 5.1516 2.57127 5.45954C2.18703 5.76747 1.92667 6.19909 1.79016 6.75438L0.114203 13.5163ZM6.88629 5.88358H8.10724V3.72551H6.88629V5.88358ZM7.50056 4.31614C7.8949 4.31614 8.25638 4.22022 8.585 4.0284C8.91362 3.83152 9.17652 3.57154 9.37369 3.24846C9.57086 2.92033 9.66945 2.55939 9.66945 2.16564C9.66945 1.77189 9.56834 1.41095 9.36611 1.08282C9.16894 0.754693 8.90604 0.492191 8.57742 0.295315C8.2488 0.0984383 7.88985 0 7.50056 0C7.10622 0 6.74473 0.0984383 6.41611 0.295315C6.0875 0.492191 5.8246 0.754693 5.62743 1.08282C5.43026 1.41095 5.33167 1.77189 5.33167 2.16564C5.33167 2.55939 5.43026 2.92033 5.62743 3.24846C5.8246 3.57154 6.0875 3.83152 6.41611 4.0284C6.74473 4.22022 7.10622 4.31614 7.50056 4.31614ZM7.50056 3.26361C7.19722 3.26361 6.93685 3.15507 6.71946 2.938C6.50206 2.72093 6.39336 2.46348 6.39336 2.16564C6.39336 1.8678 6.50206 1.60782 6.71946 1.38571C6.93685 1.16359 7.19722 1.05253 7.50056 1.05253C7.79884 1.05253 8.05668 1.16359 8.27408 1.38571C8.49653 1.60782 8.60775 1.8678 8.60775 2.16564C8.60775 2.46348 8.49906 2.72093 8.28166 2.938C8.06427 3.15507 7.8039 3.26361 7.50056 3.26361Z"
		fill="currentColor"
	/>
</svg>
