<svg
	color="rgb(var(--foreground, 0, 0, 0))"
	viewBox="0 0 20 20"
	fill="none"
	xmlns="http://www.w3.org/2000/svg"
>
	<path
		d="M7.25546 8.04806C7.06051 8.24858 6.96033 8.46807 6.95492 8.70653C6.95492 8.94499 7.0551 9.16448 7.25546 9.365L10.6507 12.7712C10.8511 12.9717 11.0704 13.0692 11.3087 13.0638C11.5469 13.053 11.7662 12.9473 11.9666 12.7468L12.852 11.8526C12.7004 11.6304 12.6354 11.3892 12.657 11.1291C12.6787 10.8689 12.787 10.6413 12.9819 10.4462C13.1823 10.2511 13.4097 10.1427 13.6642 10.121C13.9242 10.0993 14.1651 10.1671 14.3872 10.3243L19.1146 5.58489C19.7048 4.98874 19.9999 4.38988 19.9999 3.78832C20.0053 3.18133 19.7238 2.5906 19.1552 2.01614L17.9855 0.85365C17.4115 0.279181 16.8185 -0.00534354 16.2066 7.59745e-05C15.6001 0.00549549 15.0018 0.300859 14.4115 0.886167L9.68413 5.6174C9.84117 5.83418 9.90886 6.07535 9.8872 6.34091C9.87096 6.60105 9.76265 6.83138 9.56229 7.0319C9.36735 7.22158 9.13992 7.32726 8.87999 7.34894C8.62006 7.3652 8.37638 7.30016 8.14895 7.15384L7.25546 8.04806ZM11.8123 6.34904L15.6949 2.44699C15.7545 2.38195 15.833 2.35215 15.9305 2.35757C16.0279 2.36298 16.1119 2.39279 16.1823 2.44699C16.2527 2.5066 16.2824 2.58518 16.2716 2.68274C16.2662 2.77487 16.2337 2.85074 16.1741 2.91036L12.2753 6.81241C12.2049 6.87744 12.1264 6.90996 12.0397 6.90996C11.9531 6.90454 11.8827 6.87473 11.8285 6.82054C11.7581 6.75008 11.7202 6.6715 11.7148 6.58479C11.7148 6.49266 11.7473 6.41407 11.8123 6.34904ZM13.2094 7.72289L17.0839 3.85335C17.1543 3.78832 17.2355 3.7558 17.3276 3.7558C17.4196 3.75038 17.4954 3.7829 17.555 3.85335C17.6146 3.91839 17.6444 3.99697 17.6444 4.0891C17.6444 4.17581 17.6146 4.24898 17.555 4.30859L13.6724 8.21064C13.6074 8.2811 13.5289 8.31361 13.4368 8.30819C13.3447 8.30277 13.2689 8.27026 13.2094 8.21064C13.1336 8.13477 13.0957 8.05619 13.0957 7.97489C13.0957 7.88818 13.1336 7.80418 13.2094 7.72289ZM1.6102 15.5839L0.115629 18.3235C0.0506472 18.4481 0.0127414 18.5592 0.00191122 18.6568C-0.00891901 18.7543 0.0262792 18.8437 0.107506 18.925L1.06598 19.8924C1.15262 19.9737 1.24468 20.0089 1.34215 19.9981C1.43962 19.9872 1.54793 19.952 1.66706 19.8924L4.42064 18.3885C4.55602 18.3126 4.66432 18.2096 4.74555 18.0796C4.82678 17.9549 4.8701 17.833 4.87551 17.7138L4.91613 16.8277L9.03432 12.7061L7.29607 10.9583L3.16975 15.0799L2.30063 15.1287C2.17066 15.1287 2.0407 15.1693 1.91074 15.2506C1.78619 15.3319 1.68601 15.443 1.6102 15.5839Z"
		fill="currentColor"
	/>
</svg>
