<svg
	color="rgb(var(--foreground, 0, 0, 0))"
	viewBox="0 0 20 20"
	fill="none"
	xmlns="http://www.w3.org/2000/svg"
>
	<path
		d="M7.04786 8.16082C6.84012 8.37396 6.73625 8.60308 6.73625 8.84819C6.74157 9.08797 6.84544 9.30911 7.04786 9.51159L10.4916 12.9564C10.694 13.1589 10.9151 13.2602 11.1548 13.2602C11.3998 13.2602 11.6262 13.1563 11.834 12.9484L13.1284 11.6616C12.9739 11.4751 12.8993 11.2673 12.9047 11.0382C12.9153 10.8091 13.0059 10.6093 13.1763 10.4387C13.3468 10.2629 13.5465 10.1723 13.7756 10.167C14.0046 10.1617 14.2097 10.2363 14.3908 10.3908L19.097 5.69108C19.6936 5.09429 19.9946 4.48418 19.9999 3.86075C20.0053 3.232 19.7149 2.62189 19.129 2.03043L17.9624 0.871486C17.3712 0.280027 16.7639 -0.010374 16.1407 0.000282927C15.5174 0.00561139 14.9049 0.30667 14.3029 0.903457L9.61271 5.61115C9.76718 5.79232 9.8391 5.99747 9.82844 6.22659C9.82311 6.45571 9.73522 6.65553 9.56477 6.82604C9.38898 6.99655 9.18657 7.08714 8.95751 7.0978C8.72846 7.10312 8.52338 7.02586 8.34227 6.86601L7.04786 8.16082ZM8.0706 8.56845L8.57399 8.06491C8.87228 8.12885 9.1546 8.11553 9.42094 8.02495C9.69261 7.92904 9.94829 7.76119 10.188 7.52141C10.4277 7.28163 10.5928 7.02852 10.6834 6.7621C10.7739 6.49035 10.7846 6.21061 10.7154 5.92287L15.086 1.55886C15.4322 1.21784 15.7891 1.04733 16.1567 1.04733C16.5242 1.042 16.8758 1.20984 17.2114 1.55087L18.4498 2.78174C18.7854 3.12276 18.9532 3.4771 18.9532 3.84477C18.9532 4.21243 18.7828 4.56944 18.4418 4.91579L14.0792 9.28779C13.7916 9.21852 13.5119 9.22918 13.2402 9.31976C12.9739 9.40502 12.7182 9.5702 12.4732 9.81531C12.2335 10.0551 12.0684 10.3082 11.9778 10.5746C11.8872 10.841 11.8713 11.1261 11.9299 11.4298L11.4345 11.9254C11.3492 12.0106 11.256 12.0559 11.1548 12.0613C11.0589 12.0666 10.9657 12.024 10.8752 11.9334L8.06261 9.11995C7.97739 9.03469 7.93744 8.94144 7.94276 8.8402C7.94809 8.73896 7.9907 8.64838 8.0706 8.56845ZM12.3853 6.08272C12.316 6.14666 12.2814 6.22393 12.2814 6.31451C12.2868 6.40509 12.324 6.48502 12.3933 6.55429C12.4466 6.60758 12.5185 6.63688 12.609 6.64221C12.7049 6.64754 12.7821 6.61823 12.8407 6.55429L16.1407 3.22134C16.2046 3.16273 16.2366 3.09079 16.2366 3.00554C16.2419 2.92028 16.2099 2.84302 16.1407 2.77375C16.0821 2.71513 16.0075 2.68583 15.917 2.68583C15.8317 2.6805 15.7571 2.70981 15.6932 2.77375L12.3853 6.08272ZM13.456 7.16174C13.3921 7.22568 13.3601 7.30294 13.3601 7.39352C13.3654 7.48411 13.3974 7.55871 13.456 7.61732C13.5252 7.68126 13.6025 7.71323 13.6877 7.71323C13.7782 7.71323 13.8555 7.68126 13.9194 7.61732L17.2273 4.31634C17.2913 4.2524 17.3232 4.1778 17.3232 4.09254C17.3232 4.00196 17.2913 3.92203 17.2273 3.85276C17.1687 3.78882 17.0915 3.75951 16.9956 3.76484C16.9051 3.76484 16.8305 3.79415 16.7719 3.85276L13.456 7.16174ZM1.95812 15.0345L0.120385 17.768C0.0458103 17.8746 0.00585946 17.9759 0.000532678 18.0718C-0.0047941 18.173 0.02983 18.2609 0.104405 18.3355L1.66249 19.9021C1.73706 19.9767 1.82495 20.0087 1.92616 19.998C2.02737 19.9927 2.13124 19.9554 2.23778 19.8861L4.97042 18.0478C5.22078 17.8773 5.36726 17.6535 5.40988 17.3764L5.53772 16.5372L10.172 11.9094L9.48486 11.222L4.56292 16.1535L4.38714 17.1366L2.05401 18.911L1.0872 17.9439L2.86101 15.61L3.85179 15.4422L8.77374 10.5107L8.08659 9.8233L3.46028 14.4671L2.62131 14.5949C2.34432 14.6322 2.12325 14.7788 1.95812 15.0345Z"
		fill="currentColor"
	/>
</svg>
