<svg
	color="rgb(var(--foreground, 0, 0, 0))"
	viewBox="0 0 19 20"
	fill="none"
	xmlns="http://www.w3.org/2000/svg"
>
	<path
		d="M6.09552 11.5628L6.86345 10.8039L1.55988 5.42663C1.2719 5.13059 1.12791 4.83185 1.12791 4.53042C1.12791 4.229 1.2719 3.93026 1.55988 3.63422L2.68779 2.48771C2.97043 2.19705 3.26374 2.05441 3.56772 2.0598C3.87703 2.0598 4.17567 2.20513 4.46365 2.49579L10.1752 8.25251L10.9751 7.53393L5.30358 1.76913C4.74362 1.20396 4.17034 0.921369 3.58372 0.921369C2.9971 0.915986 2.42914 1.1905 1.87985 1.74491L0.815935 2.81875C0.271978 3.37316 0 3.94641 0 4.5385C0 5.12521 0.279978 5.70115 0.839933 6.26632L6.09552 11.5628ZM5.57556 7.96993C5.63422 8.02914 5.70355 8.05874 5.78354 8.05874C5.86887 8.05874 5.94086 8.02914 5.99952 7.96993C6.05819 7.91072 6.08752 7.84074 6.08752 7.76C6.08752 7.67926 6.05819 7.60929 5.99952 7.55008L3.00776 4.53042C2.95443 4.48198 2.8851 4.45776 2.79978 4.45776C2.71445 4.45238 2.64246 4.4766 2.58379 4.53042C2.53047 4.59502 2.50113 4.67037 2.4958 4.75649C2.4958 4.84262 2.52513 4.91259 2.58379 4.96642L5.57556 7.96993ZM6.55948 6.9849C6.61814 7.04411 6.69014 7.07372 6.77546 7.07372C6.86079 7.06834 6.93012 7.03873 6.98345 6.9849C7.04211 6.91493 7.07144 6.83957 7.07144 6.75883C7.07144 6.67271 7.04477 6.60274 6.99144 6.54891L3.99968 3.53733C3.94102 3.47812 3.86903 3.45121 3.7837 3.45659C3.70371 3.45659 3.63704 3.4835 3.58372 3.53733C3.52505 3.60192 3.49572 3.67459 3.49572 3.75532C3.50106 3.83068 3.53039 3.89796 3.58372 3.95717L6.55948 6.9849ZM16.8547 19.3703L18.2865 17.9251C18.3719 17.8336 18.4092 17.7259 18.3985 17.6021C18.3932 17.4837 18.3505 17.3626 18.2705 17.2388L16.5987 14.7197C16.4174 14.4506 16.18 14.2945 15.8867 14.2515L15.1668 14.1384L11.2871 10.2226L10.5432 11.0865L14.7028 15.2688L15.5988 15.4222L17.1266 17.473L16.3987 18.2077L14.3749 16.6656L14.2149 15.7613L10.0952 11.5951L9.34326 12.451L13.095 16.2296L13.207 16.9562C13.2229 17.1016 13.2736 17.2361 13.3589 17.3599C13.4443 17.4837 13.5483 17.586 13.6709 17.6667L16.1747 19.3784C16.3027 19.4645 16.4254 19.5049 16.5427 19.4995C16.66 19.4995 16.764 19.4565 16.8547 19.3703ZM1.2479 18.4176C1.71186 18.8805 2.21316 19.19 2.75178 19.3461C3.29574 19.5076 3.83703 19.5103 4.37565 19.3542C4.91961 19.2035 5.41824 18.8967 5.87153 18.4338C6.16484 18.1377 6.41549 17.8255 6.62347 17.4972C6.83146 17.1742 7.03677 16.819 7.23942 16.4314C7.44208 16.0493 7.67939 15.6186 7.95137 15.1396C8.22868 14.6605 8.57798 14.1223 8.99928 13.5248C9.42058 12.9219 9.95121 12.2437 10.5912 11.4902C11.2311 10.7312 12.0204 9.87807 12.959 8.93073L12.263 8.22022C11.2338 9.25907 10.3832 10.1687 9.71123 10.9492C9.04461 11.7297 8.50332 12.4106 8.08736 12.9919C7.67672 13.5679 7.34608 14.0738 7.09544 14.5098C6.84479 14.9458 6.62614 15.3361 6.43949 15.6805C6.25817 16.025 6.06352 16.3507 5.85553 16.6575C5.65288 16.9697 5.38624 17.2926 5.0556 17.6264C4.61297 18.0785 4.11434 18.3046 3.55972 18.3046C3.01043 18.31 2.5038 18.0812 2.03984 17.6183C1.58121 17.1446 1.35189 16.6306 1.35189 16.0762C1.35189 15.5218 1.57321 15.0212 2.01584 14.5744C2.35181 14.2407 2.67179 13.9716 2.97576 13.767C3.28507 13.5571 3.61038 13.3606 3.95169 13.1776C4.29833 12.9892 4.68496 12.7685 5.11159 12.5156C5.54356 12.2626 6.04752 11.9289 6.62347 11.5144C7.19943 11.0945 7.87137 10.5482 8.63931 9.87538C9.41259 9.19717 10.3138 8.33864 11.3431 7.29979L10.6472 6.59735C9.70856 7.5447 8.8633 8.34133 8.11136 8.98724C7.36475 9.63316 6.6928 10.1687 6.09552 10.594C5.50356 11.0138 4.97027 11.3637 4.49564 11.6436C4.02101 11.9181 3.59171 12.1603 3.20775 12.3702C2.82911 12.5748 2.47714 12.782 2.15183 12.9919C1.83185 13.1965 1.52521 13.4468 1.2319 13.7428C0.773272 14.2057 0.46663 14.709 0.311975 15.2526C0.162654 15.7963 0.16532 16.3426 0.319975 16.8916C0.479962 17.4407 0.789271 17.9493 1.2479 18.4176ZM3.52772 17.1339C3.7997 17.1339 4.03168 17.0343 4.22366 16.8351C4.42098 16.6413 4.51964 16.4072 4.51964 16.1327C4.51964 15.8582 4.42098 15.624 4.22366 15.4303C4.03168 15.2365 3.7997 15.1396 3.52772 15.1396C3.25574 15.1396 3.02376 15.2365 2.83177 15.4303C2.63979 15.624 2.5438 15.8582 2.5438 16.1327C2.5438 16.4072 2.63979 16.6413 2.83177 16.8351C3.02376 17.0343 3.25574 17.1339 3.52772 17.1339ZM11.1991 8.36555C11.6577 8.82846 12.1697 9.17833 12.735 9.41516C13.3056 9.652 13.8896 9.77849 14.4868 9.79464C15.0841 9.8054 15.6628 9.70313 16.2227 9.48783C16.7827 9.27252 17.284 8.94149 17.7266 8.49473C18.2066 8.0103 18.5505 7.4505 18.7585 6.81535C18.9718 6.1802 19.0438 5.52352 18.9745 4.84531C18.9105 4.16171 18.6998 3.51042 18.3425 2.89141L17.5666 3.68266C17.7906 4.14557 17.9159 4.62462 17.9426 5.11982C17.9692 5.60964 17.8999 6.08331 17.7346 6.54084C17.5746 6.99298 17.3213 7.39398 16.9747 7.74386C16.5214 8.196 15.9934 8.49204 15.3908 8.63199C14.7935 8.77194 14.1882 8.75579 13.5749 8.58355C12.967 8.4113 12.4257 8.08834 11.951 7.61467C11.4764 7.13562 11.1538 6.58928 10.9831 5.97566C10.8125 5.35666 10.7965 4.74304 10.9351 4.1348C11.0791 3.52656 11.3778 2.99637 11.8311 2.54423C12.3537 2.01673 12.983 1.70185 13.7189 1.59958C14.4602 1.49193 15.1641 1.61035 15.8307 1.95483L16.6147 1.16359C16.0067 0.802951 15.3668 0.590337 14.6948 0.525745C14.0229 0.455771 13.3723 0.528437 12.743 0.743742C12.119 0.953665 11.5671 1.30354 11.0871 1.79336C10.6445 2.23473 10.3138 2.73801 10.0952 3.30318C9.88188 3.86836 9.78056 4.45238 9.79122 5.05523C9.80189 5.6527 9.92455 6.23941 10.1592 6.81535C10.3938 7.38591 10.7405 7.90264 11.1991 8.36555ZM13.6229 4.74035L14.8068 5.92722C15.1055 6.22864 15.4281 6.38205 15.7747 6.38743C16.1214 6.39282 16.436 6.25287 16.7187 5.96759L18.3985 4.26398L17.6946 3.56155L16.1667 5.08753C15.9267 5.33513 15.6868 5.33513 15.4468 5.08753L14.4708 4.09443C14.2149 3.83068 14.2015 3.58308 14.4309 3.35163L15.9747 1.8095L15.2468 1.099L13.5829 2.78645C13.2843 3.0825 13.1403 3.40545 13.151 3.75532C13.1616 4.1052 13.3189 4.43354 13.6229 4.74035Z"
		fill="currentColor"
	/>
</svg>
