<svg
	color="rgb(var(--foreground, 0, 0, 0))"
	viewBox="0 0 19 20"
	fill="none"
	xmlns="http://www.w3.org/2000/svg"
>
	<path
		d="M6.09552 11.5807L10.9751 7.54532L5.30358 1.77119C4.74362 1.2051 4.17034 0.922051 3.58372 0.922051C2.9971 0.91666 2.42914 1.19162 1.87985 1.74693L0.815935 2.8225C0.271978 3.37781 0 3.95199 0 4.54504C0 5.13269 0.279978 5.70957 0.839933 6.27566L6.09552 11.5807ZM5.62355 8.1195L2.44781 4.92513C2.38381 4.86043 2.35181 4.78495 2.35181 4.69869C2.35715 4.60704 2.38914 4.52617 2.44781 4.45608C2.5118 4.39678 2.58913 4.36982 2.67979 4.37521C2.77045 4.37521 2.84244 4.40217 2.89577 4.45608L6.07952 7.67472C6.14351 7.73941 6.17284 7.81489 6.16751 7.90115C6.16751 7.98202 6.13818 8.05481 6.07952 8.1195C6.01552 8.1842 5.93819 8.21655 5.84754 8.21655C5.76221 8.21655 5.68755 8.1842 5.62355 8.1195ZM6.67147 7.07628L3.50372 3.84955C3.44506 3.79025 3.41306 3.71747 3.40773 3.6312C3.40773 3.54494 3.43973 3.46946 3.50372 3.40477C3.56238 3.34546 3.63438 3.31581 3.7197 3.31581C3.81036 3.31042 3.88769 3.34007 3.95169 3.40477L7.12743 6.60723C7.1861 6.66653 7.21543 6.74201 7.21543 6.83366C7.21543 6.92532 7.18343 7.00619 7.11943 7.07628C7.06611 7.13019 6.99144 7.15984 6.89545 7.16523C6.80479 7.17062 6.73013 7.14097 6.67147 7.07628ZM17.1026 19.1502L18.0386 18.204C18.1132 18.1285 18.1452 18.0396 18.1346 17.9371C18.1292 17.8401 18.0919 17.7269 18.0226 17.5975L16.5747 14.9045C16.4147 14.6134 16.188 14.4624 15.8947 14.4516L15.0468 14.4112L10.8951 10.214L9.21527 11.9689L13.3429 16.1418L13.3829 16.9991C13.3829 17.1231 13.4229 17.2471 13.5029 17.3711C13.5829 17.5004 13.6922 17.6002 13.8309 17.6703L16.5107 19.1502C16.628 19.2095 16.7347 19.2446 16.8307 19.2553C16.932 19.2661 17.0226 19.2311 17.1026 19.1502ZM1.2479 18.4466C1.71186 18.9103 2.21316 19.2203 2.75178 19.3766C3.29574 19.5384 3.83703 19.5411 4.37565 19.3847C4.91961 19.2338 5.41824 18.9265 5.87153 18.4628C6.16484 18.1663 6.41549 17.8536 6.62347 17.5247C6.83146 17.2012 7.03677 16.8454 7.23942 16.4572C7.44208 16.0744 7.67939 15.6431 7.95137 15.1633C8.22868 14.6835 8.57798 14.1443 8.99928 13.5459C9.42058 12.9421 9.95121 12.2628 10.5912 11.508C11.2311 10.7478 12.0204 9.89326 12.959 8.94438L12.263 8.23272C11.2338 9.27325 10.3832 10.1844 9.71123 10.9661C9.04461 11.7479 8.50332 12.4299 8.08736 13.0121C7.67672 13.589 7.34608 14.0958 7.09544 14.5325C6.84479 14.9692 6.62614 15.3601 6.43949 15.7051C6.25817 16.0502 6.06352 16.3764 5.85553 16.6837C5.65288 16.9964 5.38624 17.3198 5.0556 17.6541C4.61297 18.107 4.11434 18.3334 3.55972 18.3334C3.01043 18.3388 2.5038 18.1097 2.03984 17.646C1.58121 17.1716 1.35189 16.6567 1.35189 16.1014C1.35189 15.5461 1.57321 15.0447 2.01584 14.5972C2.35181 14.2629 2.67179 13.9934 2.97576 13.7885C3.28507 13.5782 3.61038 13.3815 3.95169 13.1982C4.29833 13.0095 4.68496 12.7884 5.11159 12.535C5.54356 12.2816 6.04752 11.9474 6.62347 11.5322C7.19943 11.1117 7.87137 10.5645 8.63931 9.89056C9.41259 9.21125 10.3138 8.35133 11.3431 7.3108L10.6472 6.60723C9.70856 7.55611 8.8633 8.35402 8.11136 9.00099C7.36475 9.64795 6.6928 10.1844 6.09552 10.6103C5.50356 11.0308 4.97027 11.3813 4.49564 11.6616C4.02101 11.9366 3.59171 12.1792 3.20775 12.3895C2.82911 12.5943 2.47714 12.8019 2.15183 13.0121C1.83185 13.217 1.52521 13.4677 1.2319 13.7642C0.773272 14.2279 0.46663 14.732 0.311975 15.2765C0.162654 15.821 0.16532 16.3683 0.319975 16.9182C0.479962 17.4681 0.789271 17.9776 1.2479 18.4466ZM11.1991 8.37829C11.6577 8.84194 12.1697 9.19238 12.735 9.4296C13.3056 9.66682 13.8896 9.79352 14.4868 9.80969C15.0841 9.82047 15.6628 9.71804 16.2227 9.50238C16.7827 9.28673 17.284 8.95516 17.7266 8.50768C18.2066 8.02246 18.5505 7.46176 18.7585 6.82558C18.9718 6.1894 19.0438 5.53165 18.9745 4.85234C18.9105 4.16764 18.6998 3.51529 18.3425 2.89528L17.5666 3.68781C17.7906 4.15147 17.9159 4.6313 17.9426 5.1273C17.9692 5.61792 17.8999 6.09235 17.7346 6.55062C17.5746 7.00349 17.3213 7.40515 16.9747 7.75559C16.5214 8.20846 15.9934 8.50498 15.3908 8.64516C14.7935 8.78533 14.1882 8.76916 13.5749 8.59664C12.967 8.42411 12.4257 8.10063 11.951 7.62619C11.4764 7.14636 11.1538 6.59914 10.9831 5.98453C10.8125 5.36452 10.7965 4.74991 10.9351 4.14069C11.0791 3.53146 11.3778 3.00042 11.8311 2.54754C12.3537 2.01919 12.983 1.7038 13.7189 1.60136C14.4602 1.49353 15.1641 1.61214 15.8307 1.95719L16.6147 1.16466C16.0067 0.803441 15.3668 0.590483 14.6948 0.525787C14.0229 0.455699 13.3723 0.528483 12.743 0.744137C12.119 0.954399 11.5671 1.30484 11.0871 1.79545C10.6445 2.23754 10.3138 2.74163 10.0952 3.30772C9.88188 3.87381 9.78056 4.45878 9.79122 5.06261C9.80189 5.66105 9.92455 6.2487 10.1592 6.82558C10.3938 7.39706 10.7405 7.91463 11.1991 8.37829ZM13.6229 4.74721L14.8068 5.93601C15.1055 6.23792 15.4281 6.39157 15.7747 6.39697C16.1214 6.40236 16.436 6.26218 16.7187 5.97644L18.3985 4.27008L17.6946 3.56651L16.1667 5.09495C15.9267 5.34296 15.6868 5.34296 15.4468 5.09495L14.4708 4.10025C14.2149 3.83608 14.2015 3.58807 14.4309 3.35625L15.9747 1.81162L15.2468 1.09997L13.5829 2.79015C13.2843 3.08668 13.1403 3.41016 13.151 3.7606C13.1616 4.11103 13.3189 4.43991 13.6229 4.74721ZM3.52772 17.1608C3.7997 17.1608 4.03168 17.0611 4.22366 16.8616C4.42098 16.6675 4.51964 16.433 4.51964 16.158C4.51964 15.883 4.42098 15.6485 4.22366 15.4544C4.03168 15.2603 3.7997 15.1633 3.52772 15.1633C3.25574 15.1633 3.02376 15.2603 2.83177 15.4544C2.63979 15.6485 2.5438 15.883 2.5438 16.158C2.5438 16.433 2.63979 16.6675 2.83177 16.8616C3.02376 17.0611 3.25574 17.1608 3.52772 17.1608Z"
		fill="currentColor"
	/>
</svg>
