<svg
	color="rgb(var(--foreground, 0, 0, 0))"
	viewBox="0 0 18 18"
	fill="none"
	xmlns="http://www.w3.org/2000/svg"
>
	<path
		d="M0.954194 17.0701C1.37706 17.4832 1.85149 17.7602 2.37749 17.9013C2.90864 18.0423 3.43722 18.0322 3.96322 17.871C4.48922 17.7149 4.96108 17.3925 5.37878 16.9039C5.56443 16.6872 5.79907 16.38 6.08269 15.982C6.36632 15.5891 6.68605 15.1433 7.04187 14.6446C7.40285 14.1459 7.78188 13.6295 8.17896 13.0955C8.58119 12.5616 8.98859 12.0452 9.40113 11.5465C9.81368 11.0428 10.2211 10.597 10.6233 10.2091C10.9534 9.88166 11.2911 9.66001 11.6366 9.54415C11.9873 9.42829 12.3431 9.36028 12.7041 9.34014C13.0651 9.31999 13.4286 9.29732 13.7948 9.27213C14.1609 9.24191 14.5296 9.15375 14.9009 9.00766L13.5859 4.32284C13.5086 4.03067 13.5292 3.77376 13.6478 3.55212C13.7716 3.32543 14.0062 3.16675 14.3517 3.07608L17.2525 2.32046C17.206 2.18949 17.1235 2.04088 17.0049 1.87465C16.8863 1.70337 16.7471 1.53714 16.5872 1.37594C16.1386 0.927609 15.6306 0.5901 15.0634 0.363415C14.5013 0.131693 13.9211 0.0107945 13.3229 0.000719634C12.7247 -0.00935525 12.1446 0.0863561 11.5825 0.287854C11.0204 0.484314 10.5202 0.786561 10.0818 1.19459C9.65382 1.59759 9.3341 2.00058 9.12266 2.40358C8.91639 2.80154 8.77715 3.19949 8.70496 3.59745C8.63792 3.99541 8.60182 4.38581 8.59666 4.76866C8.59151 5.14647 8.57861 5.5142 8.55799 5.87186C8.53736 6.22448 8.47032 6.56199 8.35687 6.88438C8.24858 7.20174 8.05262 7.49895 7.76899 7.77601C7.23783 8.29487 6.668 8.78098 6.05949 9.23435C5.45098 9.68772 4.84247 10.1159 4.23396 10.5189C3.63061 10.9219 3.05819 11.3073 2.51672 11.675C1.98041 12.0427 1.51629 12.3979 1.12437 12.7404C0.634469 13.1636 0.30443 13.632 0.134253 14.1459C-0.0307664 14.6546 -0.0436585 15.1634 0.0955768 15.6722C0.239969 16.186 0.526175 16.652 0.954194 17.0701ZM3.14328 15.8611C2.88028 15.8611 2.65338 15.7704 2.46258 15.5891C2.27693 15.4077 2.18411 15.1886 2.18411 14.9317C2.18411 14.6748 2.27693 14.4557 2.46258 14.2743C2.65338 14.0879 2.88028 13.9947 3.14328 13.9947C3.40628 13.9947 3.63061 14.0879 3.81625 14.2743C4.0019 14.4557 4.09472 14.6748 4.09472 14.9317C4.09472 15.1886 4.0019 15.4077 3.81625 15.5891C3.63061 15.7704 3.40628 15.8611 3.14328 15.8611ZM10.4145 5.76607C10.3319 5.78622 10.2546 5.77866 10.1824 5.7434C10.1154 5.7031 10.0689 5.63762 10.0432 5.54694C10.0174 5.48146 10.0251 5.41345 10.0664 5.34293C10.1128 5.2724 10.1747 5.22455 10.252 5.19936L12.0621 4.72332C12.1343 4.70317 12.2065 4.71325 12.2787 4.75355C12.3509 4.79384 12.3973 4.85429 12.4179 4.93489C12.4488 5.02053 12.4411 5.09861 12.3947 5.16913C12.3483 5.23462 12.2864 5.27996 12.209 5.30514L10.4145 5.76607ZM10.6465 6.66525C10.4609 6.71563 10.3345 6.64259 10.2675 6.44613C10.2469 6.38064 10.2572 6.31263 10.2984 6.24211C10.3397 6.17159 10.4016 6.12625 10.4841 6.1061L12.2864 5.6225C12.3638 5.60739 12.4385 5.61999 12.5107 5.66028C12.5829 5.69555 12.6293 5.75348 12.65 5.83408C12.6757 5.91971 12.6654 5.99779 12.619 6.06832C12.5778 6.1338 12.5159 6.17914 12.4334 6.20433L10.6465 6.66525ZM10.8708 7.56444C10.7883 7.58962 10.711 7.58207 10.6388 7.54177C10.5666 7.50147 10.5228 7.43598 10.5073 7.34531C10.4609 7.169 10.5331 7.05566 10.7239 7.00528L12.5185 6.5368C12.601 6.51161 12.6783 6.51917 12.7505 6.55947C12.8227 6.59977 12.8665 6.6577 12.882 6.73326C12.9026 6.80882 12.8923 6.88438 12.8511 6.95994C12.8098 7.03047 12.7531 7.07329 12.6809 7.0884L10.8708 7.56444ZM15.7518 8.64497C15.9014 8.55933 16.0535 8.45858 16.2082 8.34272C16.3629 8.22686 16.5202 8.09589 16.68 7.9498C17.1699 7.51658 17.5283 7.01032 17.7553 6.43101C17.9873 5.85171 18.0543 5.33033 17.9564 4.86689L15.6126 5.49405C15.4837 5.52931 15.3599 5.55198 15.2413 5.56205C15.1278 5.56709 15.0092 5.55954 14.8855 5.53939L15.7518 8.64497Z"
		fill="currentColor"
	/>
</svg>
