<svg
	color="rgb(var(--foreground, 0, 0, 0))"
	viewBox="0 0 18 18"
	fill="none"
	xmlns="http://www.w3.org/2000/svg"
>
	<path
		d="M0.954061 17.0776C1.37686 17.4914 1.84865 17.7665 2.36942 17.9027C2.89535 18.044 3.42128 18.0314 3.9472 17.8649C4.47313 17.7034 4.95265 17.3829 5.38577 16.9035C5.73123 16.515 6.09473 16.0507 6.47629 15.5107C6.85784 14.9708 7.2626 14.3955 7.69056 13.7849C8.11852 13.1743 8.57484 12.5611 9.05952 11.9455C9.54419 11.3248 10.065 10.7444 10.6218 10.2045C10.9054 9.92188 11.1967 9.72003 11.4958 9.59891C11.8 9.47276 12.1094 9.39201 12.4239 9.35669C12.7436 9.31632 13.071 9.28856 13.4061 9.27342C13.7413 9.25324 14.0842 9.21034 14.4348 9.14474C14.7906 9.07409 15.1541 8.94793 15.5253 8.76626C15.9017 8.58459 16.2859 8.30704 16.6777 7.93361C16.9974 7.63588 17.2629 7.30786 17.4743 6.94957C17.6909 6.59128 17.8404 6.23046 17.9229 5.86712C18.0106 5.49874 18.0235 5.16063 17.9616 4.8528L14.9917 5.64761C14.7442 5.71321 14.5328 5.67789 14.3575 5.54163C14.1873 5.40538 14.0636 5.20605 13.9862 4.94364L13.7619 4.17911C13.6846 3.9167 13.6897 3.68709 13.7774 3.49028C13.8702 3.28843 14.0403 3.1547 14.2878 3.0891L17.25 2.30187C17.2088 2.17066 17.1289 2.02179 17.0103 1.85526C16.8917 1.68368 16.7525 1.51715 16.5926 1.35567C16.1441 0.906544 15.6362 0.570961 15.069 0.34892C14.5018 0.121834 13.9166 0.00576728 13.3133 0.00072091C12.7152 -0.00937183 12.1352 0.0865092 11.5731 0.288364C11.0163 0.490219 10.5213 0.790478 10.0882 1.18914C9.66021 1.59285 9.34053 1.99656 9.12912 2.40027C8.92288 2.79893 8.78366 3.1976 8.71148 3.59626C8.64445 3.99492 8.60578 4.38602 8.59546 4.76954C8.59031 5.14802 8.57742 5.5164 8.55679 5.87469C8.53617 6.22794 8.46914 6.56605 8.3557 6.88901C8.24742 7.20694 8.05149 7.50467 7.7679 7.78222C7.2626 8.27677 6.70832 8.75112 6.10505 9.2053C5.50178 9.65442 4.89335 10.0834 4.27977 10.4921C3.66619 10.9009 3.08613 11.292 2.53957 11.6654C1.99302 12.0388 1.52124 12.3971 1.12421 12.7403C0.629224 13.1591 0.299231 13.6259 0.134234 14.1406C-0.0307621 14.6554 -0.0436524 15.1676 0.0955634 15.6773C0.239935 16.192 0.526101 16.6588 0.954061 17.0776ZM1.68881 16.351C1.41038 16.0734 1.22734 15.7605 1.13968 15.4123C1.05203 15.0692 1.06492 14.726 1.17835 14.3829C1.29179 14.0347 1.51092 13.7218 1.83576 13.4442C2.23794 13.1011 2.72262 12.7352 3.28979 12.3467C3.85697 11.9581 4.45508 11.5544 5.08413 11.1355C5.71318 10.7116 6.32676 10.2802 6.92487 9.84114C7.52299 9.39706 8.05149 8.95046 8.51039 8.50133C8.84038 8.17332 9.07241 7.83521 9.20647 7.48701C9.34568 7.13881 9.43076 6.78304 9.4617 6.4197C9.49263 6.05132 9.5081 5.67789 9.5081 5.29941C9.5081 4.92093 9.53388 4.54245 9.58544 4.16397C9.64216 3.7855 9.76333 3.40702 9.94895 3.02854C10.1346 2.65006 10.4311 2.27663 10.8384 1.90825C11.1684 1.61051 11.5525 1.38847 11.9908 1.24213C12.4342 1.09074 12.8931 1.02009 13.3675 1.03018C13.8418 1.04027 14.3033 1.13111 14.7519 1.30268C15.2005 1.47426 15.6027 1.73163 15.9584 2.07478L16.2137 1.62061L14.079 2.16561C13.5118 2.31196 13.1122 2.58698 12.8802 2.99069C12.6533 3.3944 12.625 3.8839 12.7951 4.45919L13.0117 5.19343C13.1973 5.83432 13.4758 6.25569 13.847 6.45755C14.2234 6.6594 14.6694 6.69221 15.185 6.55595L17.3893 5.9731L16.9252 5.73087C16.8427 6.00338 16.7241 6.27588 16.5694 6.54838C16.4199 6.81584 16.224 7.06816 15.9816 7.30534C15.5949 7.66868 15.1979 7.921 14.7906 8.06229C14.3884 8.19855 13.9811 8.28181 13.5686 8.31209C13.1561 8.34237 12.741 8.37517 12.3234 8.41049C11.9057 8.44582 11.4932 8.53665 11.0859 8.683C10.6785 8.82934 10.2764 9.09428 9.87934 9.4778C9.37404 9.97235 8.88421 10.5249 8.40984 11.1355C7.93548 11.7411 7.47916 12.3593 7.04089 12.9901C6.60261 13.6209 6.18497 14.2163 5.78794 14.7765C5.39092 15.3366 5.0171 15.8135 4.66648 16.2071C4.37258 16.5351 4.04775 16.7547 3.69197 16.8657C3.3362 16.9818 2.983 16.9944 2.63239 16.9035C2.28177 16.8127 1.96724 16.6285 1.68881 16.351ZM10.9389 7.42645L12.6173 6.98742C12.6843 6.97228 12.7358 6.93191 12.7719 6.86631C12.8132 6.79566 12.8235 6.72501 12.8029 6.65436C12.7874 6.58371 12.7462 6.53072 12.6791 6.4954C12.6173 6.45503 12.5476 6.44746 12.4703 6.47269L10.7997 6.91172C10.6347 6.95209 10.5703 7.05807 10.6064 7.22964C10.6167 7.31039 10.6553 7.36842 10.7224 7.40374C10.7946 7.43907 10.8667 7.44664 10.9389 7.42645ZM10.7378 6.5938L12.393 6.16234C12.4651 6.14215 12.5193 6.10178 12.5554 6.04122C12.5966 5.97562 12.6069 5.90245 12.5863 5.82171C12.5657 5.75106 12.5219 5.69807 12.4548 5.66275C12.393 5.62742 12.3259 5.61733 12.2537 5.63247L10.5832 6.07907C10.511 6.09421 10.4543 6.13458 10.413 6.20018C10.3769 6.26579 10.3692 6.33139 10.3898 6.39699C10.4414 6.57866 10.5574 6.64427 10.7378 6.5938ZM10.529 5.76115L12.1919 5.32969C12.2641 5.3095 12.3182 5.26661 12.3543 5.201C12.3955 5.1354 12.4033 5.06475 12.3775 4.98906C12.362 4.91841 12.3208 4.86542 12.2537 4.8301C12.1867 4.78972 12.1197 4.77963 12.0527 4.79982L10.3743 5.23885C10.3021 5.25904 10.248 5.30193 10.2119 5.36753C10.1758 5.43314 10.1681 5.49874 10.1887 5.56434C10.2093 5.64508 10.2506 5.70312 10.3125 5.73844C10.3743 5.77377 10.4465 5.78134 10.529 5.76115ZM13.9785 8.64515L14.6746 8.49376L13.7078 5.05718L13.0117 5.19343L13.9785 8.64515ZM3.14284 15.8741C3.40581 15.8741 3.6301 15.7832 3.81572 15.6016C4.00134 15.4199 4.09415 15.2004 4.09415 14.943C4.09415 14.6857 4.00134 14.4661 3.81572 14.2845C3.6301 14.0978 3.40581 14.0044 3.14284 14.0044C2.87988 14.0044 2.65301 14.0978 2.46223 14.2845C2.27661 14.4661 2.1838 14.6857 2.1838 14.943C2.1838 15.2004 2.27661 15.4199 2.46223 15.6016C2.65301 15.7832 2.87988 15.8741 3.14284 15.8741Z"
		fill="currentColor"
	/>
</svg>
