<svg
	color="rgb(var(--foreground, 0, 0, 0))"
	viewBox="0 0 16 17"
	fill="none"
	xmlns="http://www.w3.org/2000/svg"
>
	<path
		d="M0 8.40976C0 9.39719 0.175163 10.3355 0.52549 11.2247C0.881046 12.1087 1.36732 12.8997 1.98431 13.5976C2.60654 14.2956 3.31242 14.8591 4.10196 15.2882C4.26405 15.376 4.4183 15.4122 4.56471 15.3967C4.71111 15.3812 4.83137 15.3269 4.92549 15.2339C5.02484 15.1408 5.08758 15.0297 5.11373 14.9004C5.1451 14.7712 5.12941 14.6368 5.06667 14.4972C5.00392 14.3628 4.88105 14.2439 4.69804 14.1405C4.03922 13.7786 3.45621 13.3081 2.94902 12.7291C2.44706 12.1501 2.05229 11.4935 1.76471 10.7594C1.48235 10.0202 1.34118 9.23693 1.34118 8.40976C1.34118 7.49471 1.51111 6.63911 1.85098 5.84297C2.19608 5.04682 2.6719 4.34632 3.27843 3.74145C3.88497 3.13659 4.59085 2.66614 5.39608 2.3301C6.20131 1.9889 7.06667 1.81829 7.99216 1.81829C8.91765 1.81829 9.78301 1.9889 10.5882 2.3301C11.3987 2.66614 12.1072 3.13659 12.7137 3.74145C13.3255 4.34632 13.8039 5.04682 14.149 5.84297C14.4941 6.63911 14.6667 7.49471 14.6667 8.40976C14.6667 8.6424 14.7399 8.81559 14.8863 8.92933C15.0379 9.04306 15.2 9.09993 15.3726 9.09993C15.5294 9.09993 15.6732 9.04306 15.8039 8.92933C15.9346 8.81042 16 8.63723 16 8.40976C16 7.32928 15.7909 6.31342 15.3726 5.36218C14.9542 4.40577 14.3765 3.56309 13.6392 2.83416C12.902 2.10522 12.0497 1.53396 11.0824 1.12037C10.115 0.706791 9.08497 0.5 7.99216 0.5C6.89935 0.5 5.86928 0.706791 4.90196 1.12037C3.93987 1.53396 3.0902 2.10522 2.35294 2.83416C1.62092 3.56309 1.04575 4.40577 0.627451 5.36218C0.20915 6.31342 0 7.32928 0 8.40976ZM3.16863 8.40976C3.16863 8.98361 3.26275 9.52127 3.45098 10.0227C3.64444 10.5242 3.90065 10.9714 4.21961 11.3643C4.53856 11.7572 4.88889 12.0751 5.27059 12.3181C5.46928 12.4474 5.65229 12.4939 5.81961 12.4577C5.99216 12.4215 6.12549 12.3362 6.21961 12.2018C6.31895 12.0674 6.36078 11.92 6.3451 11.7598C6.33464 11.5995 6.24575 11.4625 6.07843 11.3488C5.59216 11.0334 5.2 10.6198 4.90196 10.108C4.60915 9.59106 4.46275 9.02497 4.46275 8.40976C4.46275 7.91863 4.55163 7.46369 4.72941 7.04494C4.91242 6.62102 5.16601 6.2488 5.4902 5.92827C5.81438 5.60774 6.18824 5.35701 6.61176 5.17607C7.04052 4.99512 7.50065 4.90465 7.99216 4.90465C8.48366 4.90465 8.94118 4.99512 9.36471 5.17607C9.78824 5.35701 10.1595 5.60774 10.4784 5.92827C10.7974 6.24363 11.0484 6.61327 11.2314 7.03719C11.4196 7.46111 11.5216 7.91863 11.5373 8.40976C11.5477 8.58554 11.6131 8.73546 11.7333 8.85954C11.8536 8.98361 12.0052 9.04565 12.1882 9.04565C12.366 9.04565 12.5176 8.98361 12.6431 8.85954C12.7686 8.73546 12.8314 8.58554 12.8314 8.40976C12.8314 7.7532 12.7059 7.138 12.4549 6.56415C12.2039 5.98514 11.8536 5.47591 11.4039 5.03648C10.9595 4.59705 10.4444 4.25326 9.85882 4.00511C9.27843 3.75179 8.65621 3.62513 7.99216 3.62513C7.33333 3.62513 6.71111 3.75179 6.12549 4.00511C5.5451 4.25326 5.03268 4.59705 4.58824 5.03648C4.14379 5.47591 3.79608 5.98514 3.5451 6.56415C3.29412 7.138 3.16863 7.7532 3.16863 8.40976ZM7.70196 14.0241C7.69673 14.1741 7.76209 14.2697 7.89804 14.3111C8.03399 14.3524 8.15164 14.3266 8.25098 14.2335L9.44314 13.0471L10.7843 16.3195C10.8157 16.3919 10.8654 16.4436 10.9333 16.4746C11.0065 16.5056 11.0771 16.5082 11.1451 16.4824L11.9294 16.1722C11.9974 16.1412 12.0418 16.0895 12.0627 16.0171C12.0889 15.9447 12.0863 15.8723 12.0549 15.8L10.6431 12.574L12.3373 12.5042C12.4837 12.4991 12.583 12.4396 12.6353 12.3259C12.6928 12.2121 12.6693 12.101 12.5647 11.9924L8.27451 7.6343C8.17516 7.53607 8.06536 7.51022 7.9451 7.55675C7.83007 7.59811 7.77255 7.69116 7.77255 7.83592L7.70196 14.0241Z"
		fill="currentColor"
	/>
</svg>
