<svg
	color="rgb(var(--foreground, 0, 0, 0))"
	viewBox="0 0 14 15"
	fill="none"
	xmlns="http://www.w3.org/2000/svg"
>
	<path
		d="M0.231876 14.2703C0.337784 14.3705 0.458403 14.4382 0.59373 14.4735C0.729058 14.5088 0.864386 14.5088 0.999714 14.4735C1.13504 14.4382 1.25272 14.3705 1.35274 14.2703L7.0012 8.61735L12.6497 14.2703C12.7497 14.3705 12.8674 14.4382 13.0027 14.4735C13.138 14.5088 13.2733 14.5088 13.4087 14.4735C13.5499 14.4441 13.6705 14.3763 13.7705 14.2703C13.8706 14.1702 13.9353 14.0525 13.9647 13.917C14 13.7816 14 13.6462 13.9647 13.5107C13.9353 13.3753 13.8706 13.2575 13.7705 13.1574L8.12207 7.49558L13.7705 1.84259C13.8706 1.74248 13.9382 1.62471 13.9735 1.48927C14.0088 1.35384 14.0088 1.2184 13.9735 1.08297C13.9382 0.947529 13.8706 0.829758 13.7705 0.729653C13.6646 0.623659 13.544 0.555941 13.4087 0.526498C13.2733 0.491167 13.138 0.491167 13.0027 0.526498C12.8674 0.555941 12.7497 0.623659 12.6497 0.729653L7.0012 6.38265L1.35274 0.729653C1.25272 0.623659 1.1321 0.555941 0.990888 0.526498C0.85556 0.491167 0.720232 0.491167 0.584905 0.526498C0.449577 0.555941 0.331901 0.623659 0.231876 0.729653C0.131851 0.829758 0.0641871 0.947529 0.0288842 1.08297C-0.000534892 1.2184 -0.000534892 1.35384 0.0288842 1.48927C0.0641871 1.62471 0.131851 1.74248 0.231876 1.84259L5.88034 7.49558L0.231876 13.1574C0.131851 13.2575 0.0641871 13.3753 0.0288842 13.5107C-0.00641871 13.6462 -0.00936061 13.7816 0.0200585 13.917C0.0553613 14.0525 0.125967 14.1702 0.231876 14.2703Z"
		fill="currentColor"
	/>
</svg>
