<svg
	color="rgb(var(--foreground, 0, 0, 0))"
	viewBox="0 0 19 19"
	fill="none"
	xmlns="http://www.w3.org/2000/svg"
>
	<path
		d="M9.5 16.8906C10.5156 16.8906 11.4688 16.6979 12.3594 16.3125C13.25 15.9323 14.0339 15.4036 14.7109 14.7266C15.388 14.0443 15.9167 13.2578 16.2969 12.3672C16.6823 11.4714 16.875 10.5156 16.875 9.5C16.875 8.48438 16.6823 7.53125 16.2969 6.64062C15.9167 5.74479 15.388 4.95833 14.7109 4.28125C14.0339 3.59896 13.25 3.06771 12.3594 2.6875C11.4688 2.30208 10.5156 2.10938 9.5 2.10938C8.48438 2.10938 7.53125 2.30208 6.64062 2.6875C5.75 3.06771 4.96615 3.59896 4.28906 4.28125C3.61198 4.95833 3.08073 5.74479 2.69531 6.64062C2.3151 7.53125 2.125 8.48438 2.125 9.5C2.125 10.5156 2.3151 11.4714 2.69531 12.3672C3.08073 13.2578 3.61198 14.0443 4.28906 14.7266C4.96615 15.4036 5.75 15.9323 6.64062 16.3125C7.53125 16.6979 8.48438 16.8906 9.5 16.8906ZM9.5 15.6172C8.65104 15.6172 7.85938 15.4609 7.125 15.1484C6.39583 14.8359 5.75521 14.401 5.20312 13.8438C4.65104 13.2865 4.21875 12.638 3.90625 11.8984C3.59375 11.1536 3.4375 10.3542 3.4375 9.5C3.4375 8.64583 3.59375 7.84896 3.90625 7.10938C4.21875 6.36979 4.65104 5.72135 5.20312 5.16406C5.75521 4.60156 6.39583 4.16406 7.125 3.85156C7.85938 3.53906 8.65104 3.38281 9.5 3.38281C10.349 3.38281 11.138 3.53906 11.8672 3.85156C12.6016 4.16406 13.2448 4.60156 13.7969 5.16406C14.349 5.72135 14.7812 6.36979 15.0938 7.10938C15.4062 7.84896 15.5625 8.64583 15.5625 9.5C15.5625 10.3542 15.4062 11.1536 15.0938 11.8984C14.7812 12.638 14.349 13.2865 13.7969 13.8438C13.2448 14.401 12.6016 14.8359 11.8672 15.1484C11.138 15.4609 10.349 15.6172 9.5 15.6172ZM9.5 19C9.65625 19 9.78646 18.9453 9.89062 18.8359C10 18.7266 10.0547 18.5938 10.0547 18.4375V13.1484C10.0547 12.9922 10 12.862 9.89062 12.7578C9.78646 12.6484 9.65625 12.5938 9.5 12.5938C9.34375 12.5938 9.21094 12.6484 9.10156 12.7578C8.99219 12.862 8.9375 12.9922 8.9375 13.1484V18.4375C8.9375 18.5938 8.99219 18.7266 9.10156 18.8359C9.21094 18.9453 9.34375 19 9.5 19ZM0.5625 10.0625H5.85156C6.00781 10.0625 6.14062 10.0078 6.25 9.89844C6.35938 9.78906 6.41406 9.65625 6.41406 9.5C6.41406 9.34375 6.35938 9.21354 6.25 9.10938C6.14062 9 6.00781 8.94531 5.85156 8.94531H0.5625C0.40625 8.94531 0.273438 9 0.164062 9.10938C0.0546875 9.21354 0 9.34375 0 9.5C0 9.65625 0.0546875 9.78906 0.164062 9.89844C0.273438 10.0078 0.40625 10.0625 0.5625 10.0625ZM9.5 6.41406C9.65625 6.41406 9.78646 6.35938 9.89062 6.25C10 6.14062 10.0547 6.00781 10.0547 5.85156V0.5625C10.0547 0.40625 10 0.273438 9.89062 0.164062C9.78646 0.0546875 9.65625 0 9.5 0C9.34375 0 9.21094 0.0546875 9.10156 0.164062C8.99219 0.273438 8.9375 0.40625 8.9375 0.5625V5.85156C8.9375 6.00781 8.99219 6.14062 9.10156 6.25C9.21094 6.35938 9.34375 6.41406 9.5 6.41406ZM13.1484 10.0625H18.4375C18.5938 10.0625 18.7266 10.0078 18.8359 9.89844C18.9453 9.78906 19 9.65625 19 9.5C19 9.34375 18.9453 9.21354 18.8359 9.10938C18.7266 9 18.5938 8.94531 18.4375 8.94531H13.1484C12.9922 8.94531 12.8594 9 12.75 9.10938C12.6406 9.21354 12.5859 9.34375 12.5859 9.5C12.5859 9.65625 12.6406 9.78906 12.75 9.89844C12.8594 10.0078 12.9922 10.0625 13.1484 10.0625Z"
		fill="currentColor"
	/>
</svg>
