<svg
	color="rgb(var(--foreground, 0, 0, 0))"
	viewBox="0 0 13 17"
	fill="none"
	xmlns="http://www.w3.org/2000/svg"
>
	<path
		d="M3.01772 16.5H6.12758C6.2914 16.5 6.41681 16.4566 6.50384 16.3699C6.59598 16.2883 6.64206 16.171 6.64206 16.0179C6.64206 15.87 6.59598 15.7552 6.50384 15.6736C6.41681 15.592 6.2914 15.5512 6.12758 15.5512H3.69344V15.5206L6.24276 12.4216C6.36562 12.2736 6.45009 12.1487 6.49616 12.0466C6.54223 11.9395 6.56527 11.8324 6.56527 11.7253C6.56527 11.5416 6.5064 11.3988 6.38866 11.2967C6.27092 11.1947 6.10967 11.1437 5.9049 11.1437H2.82575C2.66194 11.1437 2.53396 11.1871 2.44182 11.2738C2.35479 11.3605 2.31128 11.4778 2.31128 11.6258C2.31128 11.7788 2.35479 11.8961 2.44182 11.9778C2.53396 12.0594 2.66194 12.1002 2.82575 12.1002H5.29061V12.1308L2.62611 15.3446C2.52884 15.4568 2.4623 15.5537 2.42646 15.6353C2.39575 15.717 2.38039 15.8113 2.38039 15.9185C2.38039 16.0868 2.4367 16.2245 2.54932 16.3317C2.66706 16.4439 2.82319 16.5 3.01772 16.5ZM8.56172 12.2532H12.4395C12.6186 12.2532 12.7568 12.2073 12.8541 12.1155C12.9514 12.0237 13 11.8961 13 11.7329C13 11.5748 12.9514 11.4523 12.8541 11.3656C12.7568 11.2738 12.6186 11.2279 12.4395 11.2279H9.28352V11.1973L12.57 7.24892C12.7031 7.09079 12.7927 6.9607 12.8387 6.85868C12.8899 6.75666 12.9155 6.65208 12.9155 6.54495C12.9155 6.3358 12.849 6.17256 12.7159 6.05524C12.5879 5.93791 12.4011 5.87924 12.1553 5.87924H8.37744C8.20339 5.87924 8.06773 5.92516 7.97047 6.01698C7.8732 6.1037 7.82457 6.22868 7.82457 6.39192C7.82457 6.55516 7.8732 6.68269 7.97047 6.77451C8.06773 6.86123 8.20339 6.90459 8.37744 6.90459H11.5257V6.9352L8.14708 11.006C7.96279 11.2202 7.87064 11.4217 7.87064 11.6105C7.87064 11.8043 7.93207 11.9599 8.05493 12.0772C8.18291 12.1946 8.35184 12.2532 8.56172 12.2532ZM0.760189 8.13654H5.64383C5.82812 8.13654 5.96889 8.09063 6.06615 7.9988C6.16854 7.90188 6.21973 7.7667 6.21973 7.59326C6.21973 7.43002 6.16854 7.30249 6.06615 7.21066C5.96889 7.11884 5.82812 7.07293 5.64383 7.07293H1.54341V7.04232L5.84347 1.87733C5.96633 1.7294 6.04824 1.60442 6.08919 1.50239C6.13014 1.40037 6.15062 1.29324 6.15062 1.18101C6.15062 0.971864 6.08151 0.806074 5.9433 0.683644C5.80508 0.561215 5.60799 0.5 5.35204 0.5H0.575901C0.391613 0.5 0.248277 0.545911 0.145895 0.637733C0.0486316 0.729555 0 0.859637 0 1.02798C0 1.19632 0.0486316 1.32895 0.145895 1.42587C0.248277 1.51769 0.391613 1.56361 0.575901 1.56361H4.67631V1.58656L0.276432 6.88929C0.184288 6.99131 0.122859 7.08568 0.0921441 7.17241C0.0665485 7.25913 0.0537507 7.3586 0.0537507 7.47083C0.0537507 7.66978 0.11774 7.83046 0.245718 7.95289C0.373696 8.07532 0.545186 8.13654 0.760189 8.13654Z"
		fill="currentColor"
	/>
</svg>
