<svg
	color="rgb(var(--foreground, 0, 0, 0))"
	viewBox="0 0 16 17"
	fill="none"
	xmlns="http://www.w3.org/2000/svg"
>
	<path
		d="M8 16.5C9.09281 16.5 10.1203 16.2909 11.0824 15.8726C12.0497 15.4542 12.902 14.8765 13.6392 14.1392C14.3765 13.402 14.9542 12.5523 15.3726 11.5902C15.7909 10.6229 16 9.59281 16 8.5C16 7.40719 15.7909 6.37974 15.3726 5.41765C14.9542 4.45033 14.3765 3.59804 13.6392 2.86078C12.902 2.12353 12.0497 1.54575 11.0824 1.12745C10.115 0.70915 9.08497 0.5 7.99216 0.5C6.89935 0.5 5.86928 0.70915 4.90196 1.12745C3.93987 1.54575 3.0902 2.12353 2.35294 2.86078C1.62092 3.59804 1.04575 4.45033 0.627451 5.41765C0.20915 6.37974 0 7.40719 0 8.5C0 9.59281 0.20915 10.6229 0.627451 11.5902C1.04575 12.5523 1.62353 13.402 2.36078 14.1392C3.09804 14.8765 3.94771 15.4542 4.9098 15.8726C5.87712 16.2909 6.90719 16.5 8 16.5ZM8 15.1667C7.07451 15.1667 6.20915 14.9941 5.40392 14.649C4.59869 14.3039 3.8902 13.8281 3.27843 13.2216C2.6719 12.6098 2.19608 11.9013 1.85098 11.0961C1.51111 10.2909 1.34118 9.42549 1.34118 8.5C1.34118 7.57451 1.51111 6.70915 1.85098 5.90392C2.19608 5.09869 2.6719 4.3902 3.27843 3.77843C3.88497 3.16667 4.59085 2.69085 5.39608 2.35098C6.20131 2.00588 7.06667 1.83333 7.99216 1.83333C8.91765 1.83333 9.78301 2.00588 10.5882 2.35098C11.3935 2.69085 12.102 3.16667 12.7137 3.77843C13.3255 4.3902 13.8039 5.09869 14.149 5.90392C14.4941 6.70915 14.6667 7.57451 14.6667 8.5C14.6667 9.42549 14.4941 10.2909 14.149 11.0961C13.8092 11.9013 13.3333 12.6098 12.7216 13.2216C12.115 13.8281 11.4065 14.3039 10.5961 14.649C9.79085 14.9941 8.92549 15.1667 8 15.1667ZM8 13.4725C8.67974 13.4725 9.32026 13.3418 9.92157 13.0804C10.5229 12.819 11.051 12.4608 11.5059 12.0059C11.966 11.5458 12.3242 11.0176 12.5804 10.4216C12.8418 9.82026 12.9725 9.17974 12.9725 8.5C12.9725 7.82026 12.8418 7.17974 12.5804 6.57843C12.319 5.97712 11.9582 5.44902 11.498 4.99412C11.0431 4.53399 10.515 4.1732 9.91373 3.91176C9.31765 3.65033 8.67974 3.51961 8 3.51961C7.32026 3.51961 6.67974 3.65033 6.07843 3.91176C5.47712 4.1732 4.94641 4.53399 4.48627 4.99412C4.03137 5.44902 3.6732 5.97712 3.41176 6.57843C3.15556 7.17974 3.02745 7.82026 3.02745 8.5C3.02745 9.17974 3.15817 9.82026 3.41961 10.4216C3.68105 11.0176 4.03922 11.5458 4.49412 12.0059C4.95425 12.4608 5.48235 12.819 6.07843 13.0804C6.67974 13.3418 7.32026 13.4725 8 13.4725ZM8 12.2098C7.49804 12.2098 7.02222 12.1131 6.57255 11.9196C6.1281 11.7209 5.73333 11.4516 5.38824 11.1118C5.04837 10.7667 4.77909 10.3719 4.58039 9.92745C4.38693 9.47778 4.2902 9.00196 4.2902 8.5C4.2902 7.99281 4.38693 7.51438 4.58039 7.06471C4.77386 6.61503 5.04052 6.22026 5.38039 5.88039C5.72549 5.53529 6.12026 5.26601 6.56471 5.07255C7.01438 4.87909 7.49281 4.78235 8 4.78235C8.50196 4.78235 8.97516 4.8817 9.41961 5.08039C9.86928 5.27386 10.2641 5.54314 10.6039 5.88824C10.949 6.2281 11.2183 6.62288 11.4118 7.07255C11.6105 7.51699 11.7098 7.99281 11.7098 8.5C11.7098 9.00719 11.6131 9.48562 11.4196 9.9353C11.2261 10.3797 10.9569 10.7745 10.6118 11.1196C10.2719 11.4595 9.87712 11.7261 9.42745 11.9196C8.98301 12.1131 8.50719 12.2098 8 12.2098ZM8.00784 10.5314C8.37909 10.5314 8.71895 10.4399 9.02745 10.2569C9.33595 10.0739 9.5817 9.8281 9.76471 9.51961C9.94771 9.21111 10.0392 8.86863 10.0392 8.49216C10.0392 8.12092 9.94771 7.78366 9.76471 7.48039C9.5817 7.1719 9.33595 6.92614 9.02745 6.74314C8.71895 6.56013 8.37909 6.46863 8.00784 6.46863C7.63137 6.46863 7.28889 6.56013 6.98039 6.74314C6.6719 6.92614 6.42614 7.1719 6.24314 7.48039C6.06013 7.78366 5.96863 8.12092 5.96863 8.49216C5.96863 8.86863 6.06013 9.21111 6.24314 9.51961C6.42614 9.8281 6.6719 10.0739 6.98039 10.2569C7.29412 10.4399 7.6366 10.5314 8.00784 10.5314Z"
		fill="currentColor"
	/>
</svg>
