<svg
	color="rgb(var(--foreground, 0, 0, 0))"
	viewBox="0 0 15 19"
	fill="none"
	xmlns="http://www.w3.org/2000/svg"
>
	<path
		d="M4.0191 4.00681H5.42075V2.57629C5.42075 2.36921 5.48271 2.203 5.60661 2.07766C5.73051 1.95232 5.8983 1.88965 6.10996 1.88965H8.88229C9.09396 1.88965 9.26174 1.95232 9.38565 2.07766C9.50955 2.203 9.5715 2.36921 9.5715 2.57629V4.00681H10.9654V2.49455C10.9654 1.87875 10.7847 1.39373 10.4233 1.03951C10.0671 0.679837 9.57925 0.5 8.95973 0.5H6.02478C5.40527 0.5 4.91482 0.679837 4.55343 1.03951C4.19721 1.39373 4.0191 1.87875 4.0191 2.49455V4.00681ZM0.580795 4.97956H14.4192C14.5792 4.97956 14.7161 4.91962 14.8296 4.79973C14.9432 4.67439 15 4.52725 15 4.35831C15 4.18937 14.9432 4.04496 14.8296 3.92507C14.7161 3.80518 14.5792 3.74523 14.4192 3.74523H0.580795C0.425916 3.74523 0.289107 3.8079 0.170367 3.93324C0.0567888 4.05313 0 4.19482 0 4.35831C0 4.52725 0.0567888 4.67439 0.170367 4.79973C0.289107 4.91962 0.425916 4.97956 0.580795 4.97956ZM13.2654 4.8079H1.74239L2.24574 16.9223C2.26639 17.4292 2.41353 17.8188 2.68714 18.0913C2.96593 18.3638 3.3428 18.5 3.81776 18.5H11.1822C11.6624 18.5 12.0392 18.3638 12.3129 18.0913C12.5916 17.8188 12.7414 17.4292 12.762 16.9223L13.2654 4.8079ZM5.04904 16.1621C4.90965 16.1621 4.7935 16.1185 4.70057 16.0313C4.6128 15.9441 4.56892 15.827 4.56892 15.6798L4.32886 6.77793C4.32886 6.63624 4.37274 6.5218 4.46051 6.4346C4.54827 6.34196 4.66701 6.29564 4.81673 6.29564C4.95095 6.29564 5.06195 6.33924 5.14972 6.42643C5.24264 6.51362 5.29169 6.62807 5.29685 6.76975L5.52917 15.6798C5.53433 15.8215 5.49303 15.9387 5.40527 16.0313C5.3175 16.1185 5.19876 16.1621 5.04904 16.1621ZM7.50387 16.1621C7.35416 16.1621 7.23283 16.1185 7.13991 16.0313C7.04698 15.9387 7.00052 15.8215 7.00052 15.6798V6.77793C7.00052 6.63624 7.04698 6.5218 7.13991 6.4346C7.23283 6.34196 7.35416 6.29564 7.50387 6.29564C7.64843 6.29564 7.76717 6.34196 7.86009 6.4346C7.95302 6.5218 7.99948 6.63624 7.99948 6.77793V15.6798C7.99948 15.8215 7.95302 15.9387 7.86009 16.0313C7.76717 16.1185 7.64843 16.1621 7.50387 16.1621ZM9.95095 16.1621C9.80124 16.1621 9.6825 16.1185 9.59473 16.0313C9.50697 15.9387 9.46567 15.8215 9.47083 15.6798L9.70315 6.77793C9.70831 6.63079 9.75478 6.51362 9.84254 6.42643C9.93547 6.33924 10.049 6.29564 10.1833 6.29564C10.333 6.29564 10.4517 6.34196 10.5395 6.4346C10.6273 6.5218 10.6711 6.63624 10.6711 6.77793L10.4311 15.6798C10.4311 15.827 10.3846 15.9441 10.2917 16.0313C10.2039 16.1185 10.0903 16.1621 9.95095 16.1621Z"
		fill="currentColor"
	/>
</svg>
