<svg
	color="rgb(var(--foreground, 0, 0, 0))"
	viewBox="0 0 15 19"
	fill="none"
	xmlns="http://www.w3.org/2000/svg"
>
	<path
		d="M13.1173 13.1736L13.4969 4.84037H14.4267C14.5868 4.84037 14.7211 4.7811 14.8295 4.66255C14.9432 4.53862 15 4.39313 15 4.22609C15 4.06444 14.9432 3.92434 14.8295 3.80579C14.7211 3.68186 14.5868 3.61989 14.4267 3.61989H10.8858V2.4075C10.8858 1.82555 10.7102 1.36215 10.359 1.01729C10.0129 0.672429 9.54029 0.5 8.94112 0.5H6.04339C5.44938 0.5 4.97676 0.672429 4.62552 1.01729C4.27944 1.36215 4.1064 1.82555 4.1064 2.4075V3.45016H3.80424L5.13688 4.84037H12.2572L11.9396 11.945L13.1173 13.1736ZM5.34607 3.61989V2.48833C5.34607 2.25662 5.41839 2.06803 5.56302 1.92254C5.71281 1.77705 5.90393 1.70431 6.13636 1.70431H8.85589C9.09349 1.70431 9.28461 1.77705 9.42924 1.92254C9.57903 2.06803 9.65393 2.25662 9.65393 2.48833V3.61989H5.34607ZM3.95145 18.5H11.0563C11.4695 18.5 11.8208 18.403 12.11 18.209C12.3993 18.015 12.6162 17.751 12.7608 17.4169L12.7686 17.2391L11.7536 16.1803L11.7459 16.447C11.7407 16.6841 11.6606 16.8808 11.5057 17.037C11.3559 17.1987 11.1648 17.2795 10.9323 17.2795H4.05992C3.84298 17.2795 3.65702 17.2014 3.50207 17.0451C3.35227 16.8889 3.27221 16.6922 3.26188 16.4551L2.8125 6.84486L1.54184 5.51931L2.04545 16.6006C2.07128 17.1825 2.25465 17.6432 2.59556 17.9827C2.94163 18.3276 3.39359 18.5 3.95145 18.5ZM8.00362 7.83094V6.7802C8.00362 6.6401 7.95713 6.52694 7.86415 6.44073C7.77118 6.34912 7.64979 6.30332 7.5 6.30332C7.33988 6.30332 7.21333 6.3599 7.12035 6.47306V6.90952L8.00362 7.83094ZM10.421 10.3527L10.5217 6.7802C10.5217 6.6401 10.4778 6.52694 10.39 6.44073C10.3022 6.34912 10.1834 6.30332 10.0336 6.30332C9.89411 6.30332 9.78048 6.34643 9.69267 6.43264C9.60485 6.51886 9.55837 6.63471 9.5532 6.7802L9.48347 9.37472L10.421 10.3527ZM5.20661 15.8974C5.35124 15.8974 5.46746 15.8543 5.55527 15.7681C5.64824 15.6765 5.69215 15.5606 5.68698 15.4205L5.52428 9.68994L4.54029 8.65537L4.71849 15.4205C4.72366 15.566 4.77014 15.6819 4.85795 15.7681C4.94576 15.8543 5.06198 15.8974 5.20661 15.8974ZM7.5 15.8974C7.64979 15.8974 7.77118 15.8543 7.86415 15.7681C7.95713 15.6765 8.00362 15.5606 8.00362 15.4205V12.2683L7.00413 11.2337V15.4205C7.00413 15.566 7.05062 15.6819 7.14359 15.7681C7.23657 15.8543 7.35537 15.8974 7.5 15.8974ZM9.80114 15.8974C10.1162 15.8974 10.2763 15.7384 10.2815 15.4205L10.3048 14.6769L9.36725 13.6989L9.32076 15.4205C9.3156 15.5606 9.35692 15.6765 9.44473 15.7681C9.53254 15.8543 9.65134 15.8974 9.80114 15.8974ZM13.985 17.1744C14.0987 17.293 14.2381 17.3523 14.4034 17.3523C14.5739 17.3523 14.7159 17.293 14.8295 17.1744C14.9432 17.0505 15 16.9023 15 16.7299C15 16.5575 14.9432 16.412 14.8295 16.2934L1.02273 1.88213C0.903926 1.76358 0.76188 1.70431 0.596591 1.70431C0.431302 1.69892 0.289256 1.75819 0.170455 1.88213C0.0568182 2.00067 0 2.14885 0 2.32667C0 2.4991 0.0568182 2.64459 0.170455 2.76313L13.985 17.1744Z"
		fill="currentColor"
	/>
</svg>
