<svg
	color="rgb(var(--foreground, 0, 0, 0))"
	viewBox="0 0 15 19"
	fill="none"
	xmlns="http://www.w3.org/2000/svg"
>
	<path
		d="M4.09866 4.19376H5.33058V2.46408C5.33058 2.23776 5.40031 2.05456 5.53977 1.91446C5.6844 1.77436 5.87293 1.70431 6.10537 1.70431H8.87913C9.11157 1.70431 9.29752 1.77436 9.43698 1.91446C9.58161 2.05456 9.65393 2.23776 9.65393 2.46408V4.19376H10.8858V2.38325C10.8858 1.8013 10.7128 1.34329 10.3667 1.00921C10.0258 0.669735 9.55837 0.5 8.96436 0.5H6.02014C5.42614 0.5 4.9561 0.669735 4.61002 1.00921C4.26911 1.34329 4.09866 1.8013 4.09866 2.38325V4.19376ZM0.581095 4.84037H14.4267C14.5868 4.84037 14.7211 4.7811 14.8295 4.66255C14.9432 4.53862 15 4.39313 15 4.22609C15 4.05905 14.9432 3.91625 14.8295 3.79771C14.7159 3.67916 14.5816 3.61989 14.4267 3.61989H0.581095C0.426136 3.61989 0.289256 3.68186 0.170455 3.80579C0.0568182 3.92434 0 4.06444 0 4.22609C0 4.39313 0.0568182 4.53862 0.170455 4.66255C0.289256 4.7811 0.426136 4.84037 0.581095 4.84037ZM3.95145 18.5H11.0563C11.609 18.5 12.0584 18.3276 12.4044 17.9827C12.7505 17.6379 12.9365 17.1744 12.9623 16.5925L13.5046 4.6868H12.2572L11.7381 16.4551C11.7278 16.6976 11.6477 16.8943 11.4979 17.0451C11.3481 17.2014 11.1596 17.2795 10.9323 17.2795H4.05992C3.83781 17.2795 3.65186 17.2014 3.50207 17.0451C3.35227 16.8889 3.27221 16.6922 3.26188 16.4551L2.71178 4.6868H1.49535L2.04545 16.6006C2.07128 17.1825 2.25465 17.6432 2.59556 17.9827C2.94163 18.3276 3.39359 18.5 3.95145 18.5ZM5.20661 15.8974C5.35124 15.8974 5.46746 15.8543 5.55527 15.7681C5.64308 15.6765 5.68698 15.5606 5.68698 15.4205L5.4468 6.77212C5.4468 6.63202 5.40031 6.51886 5.30733 6.43264C5.21952 6.34643 5.10589 6.30332 4.96643 6.30332C4.8218 6.30332 4.703 6.34912 4.61002 6.44073C4.52221 6.52694 4.48089 6.6401 4.48605 6.7802L4.71849 15.4205C4.72366 15.566 4.77014 15.6819 4.85795 15.7681C4.94576 15.8543 5.06198 15.8974 5.20661 15.8974ZM7.5 15.8974C7.64979 15.8974 7.77118 15.8543 7.86415 15.7681C7.95713 15.6765 8.00362 15.5606 8.00362 15.4205V6.7802C8.00362 6.6401 7.95713 6.52694 7.86415 6.44073C7.77118 6.34912 7.64979 6.30332 7.5 6.30332C7.35537 6.30332 7.23657 6.34912 7.14359 6.44073C7.05062 6.52694 7.00413 6.6401 7.00413 6.7802V15.4205C7.00413 15.5606 7.05062 15.6765 7.14359 15.7681C7.23657 15.8543 7.35537 15.8974 7.5 15.8974ZM9.80114 15.8974C9.9406 15.8974 10.0542 15.8543 10.142 15.7681C10.2299 15.6819 10.2763 15.566 10.2815 15.4205L10.5139 6.7802C10.5191 6.6401 10.4778 6.52694 10.39 6.44073C10.3022 6.34912 10.1834 6.30332 10.0336 6.30332C9.89411 6.30332 9.78048 6.34643 9.69267 6.43264C9.60485 6.51886 9.55837 6.63471 9.5532 6.7802L9.32076 15.4205C9.3156 15.5606 9.35692 15.6765 9.44473 15.7681C9.53254 15.8543 9.65134 15.8974 9.80114 15.8974Z"
		fill="currentColor"
	/>
</svg>
