<svg
	color="rgb(var(--foreground, 0, 0, 0))"
	viewBox="0 0 15 19"
	fill="none"
	xmlns="http://www.w3.org/2000/svg"
>
	<path
		d="M12.9169 13.2275L13.2576 4.97956H14.4192C14.5792 4.97956 14.7161 4.91962 14.8296 4.79973C14.9432 4.67439 15 4.52725 15 4.35831C15 4.18937 14.9432 4.04496 14.8296 3.92507C14.7161 3.80518 14.5792 3.74523 14.4192 3.74523H10.9654V2.49455C10.9654 1.87875 10.7847 1.39373 10.4233 1.03951C10.0671 0.679837 9.57925 0.5 8.95973 0.5H6.01704C5.40268 0.5 4.91482 0.679837 4.55343 1.03951C4.19721 1.39373 4.0191 1.87875 4.0191 2.49455V3.5327H3.72483L7.03924 7.03133V6.58992C7.11151 6.39373 7.26381 6.29564 7.49613 6.29564C7.64584 6.29564 7.76717 6.34196 7.86009 6.4346C7.95302 6.5218 7.99948 6.63624 7.99948 6.77793V8.04496L9.62571 9.76158L9.70315 6.77793C9.70831 6.63079 9.75478 6.51362 9.84254 6.42643C9.9303 6.33924 10.0439 6.29564 10.1833 6.29564C10.333 6.29564 10.4517 6.34196 10.5395 6.4346C10.6273 6.5218 10.6686 6.63624 10.6634 6.77793L10.5627 10.7507L12.9169 13.2275ZM5.42075 3.74523V2.57629C5.42075 2.36921 5.48271 2.203 5.60661 2.07766C5.73051 1.95232 5.8983 1.88965 6.10996 1.88965H8.88229C9.09396 1.88965 9.26174 1.95232 9.38565 2.07766C9.50955 2.203 9.5715 2.36921 9.5715 2.57629V3.74523H5.42075ZM3.81776 18.5H11.1822C11.5385 18.5 11.8405 18.4183 12.0883 18.2548C12.3412 18.0967 12.5168 17.876 12.6149 17.5926L12.6226 17.4128L10.4466 15.1158L10.4311 15.6798C10.4311 15.827 10.3846 15.9441 10.2917 16.0313C10.2039 16.1185 10.0903 16.1621 9.95095 16.1621C9.80124 16.1621 9.6825 16.1185 9.59473 16.0313C9.50697 15.9387 9.46567 15.8215 9.47083 15.6798L9.50955 14.1185L7.99948 12.5245V15.6798C7.99948 15.8215 7.95302 15.9387 7.86009 16.0313C7.76717 16.1185 7.64584 16.1621 7.49613 16.1621C7.35157 16.1621 7.23283 16.1185 7.13991 16.0313C7.04698 15.9387 7.00052 15.8215 7.00052 15.6798V11.4782L5.37429 9.75341L5.52917 15.6798C5.53433 15.8215 5.49045 15.9387 5.39752 16.0313C5.30976 16.1185 5.1936 16.1621 5.04904 16.1621C4.90449 16.1621 4.78833 16.1185 4.70057 16.0313C4.6128 15.9441 4.56634 15.827 4.56118 15.6798L4.38307 8.70708L1.78885 5.98501L2.24574 16.9223C2.26639 17.4292 2.41353 17.8188 2.68714 18.0913C2.96076 18.3638 3.33764 18.5 3.81776 18.5ZM13.9778 17.4537C14.0914 17.5736 14.2308 17.6335 14.396 17.6335C14.5663 17.6335 14.7083 17.5736 14.8219 17.4537C14.9355 17.3283 14.9923 17.1785 14.9923 17.0041C14.9923 16.8297 14.9355 16.6826 14.8219 16.5627L1.0222 1.98774C0.903459 1.86785 0.761487 1.8079 0.596283 1.8079C0.431079 1.80245 0.289107 1.8624 0.170367 1.98774C0.0567888 2.10763 0 2.25749 0 2.43733C0 2.61172 0.0567888 2.75886 0.170367 2.87875L13.9778 17.4537Z"
		fill="currentColor"
	/>
</svg>
