<svg
	color="rgb(var(--foreground, 0, 0, 0))"
	viewBox="0 0 16 16"
	fill="none"
	xmlns="http://www.w3.org/2000/svg"
>
	<path
		d="M3.60981 15.5H12.3902C13.1799 15.5 13.7802 15.2936 14.1911 14.8808C14.602 14.4734 14.8074 13.8705 14.8074 13.072V4.37018H13.5188V13.1372C13.5188 13.5011 13.42 13.7808 13.2226 13.9764C13.0305 14.1719 12.7584 14.2697 12.4062 14.2697H3.5938C3.23628 14.2697 2.96148 14.1719 2.76938 13.9764C2.57729 13.7808 2.48124 13.5011 2.48124 13.1372V4.37018H1.1926V13.072C1.1926 13.8759 1.39803 14.4815 1.8089 14.8889C2.21978 15.2963 2.82008 15.5 3.60981 15.5ZM5.36268 8.2648H10.6453C10.8161 8.2648 10.9548 8.21048 11.0615 8.10185C11.1683 7.99321 11.2216 7.84927 11.2216 7.67002V7.40929C11.2216 7.23004 11.1683 7.08881 11.0615 6.98561C10.9548 6.87697 10.8161 6.82265 10.6453 6.82265H5.36268C5.19193 6.82265 5.05319 6.87697 4.94647 6.98561C4.84509 7.08881 4.7944 7.23004 4.7944 7.40929V7.67002C4.7944 7.84927 4.84509 7.99321 4.94647 8.10185C5.05319 8.21048 5.19193 8.2648 5.36268 8.2648ZM1.52076 4.98126H14.4792C14.9702 4.98126 15.3463 4.8346 15.6078 4.54128C15.8693 4.24796 16 3.85416 16 3.35986V2.1214C16 1.62167 15.8693 1.22787 15.6078 0.939978C15.3463 0.646659 14.9702 0.5 14.4792 0.5H1.52076C1.05119 0.5 0.68034 0.646659 0.408204 0.939978C0.136068 1.22787 0 1.62167 0 2.1214V3.35986C0 3.85416 0.130732 4.24796 0.392196 4.54128C0.65366 4.8346 1.02985 4.98126 1.52076 4.98126ZM1.84892 3.75095C1.64616 3.75095 1.50208 3.70478 1.41671 3.61244C1.33133 3.5201 1.28864 3.37344 1.28864 3.17246V2.3088C1.28864 2.10239 1.33133 1.95573 1.41671 1.86882C1.50208 1.77648 1.64616 1.73031 1.84892 1.73031H14.1591C14.3618 1.73031 14.5033 1.77648 14.5833 1.86882C14.6687 1.95573 14.7114 2.10239 14.7114 2.3088V3.17246C14.7114 3.37344 14.6687 3.5201 14.5833 3.61244C14.5033 3.70478 14.3618 3.75095 14.1591 3.75095H1.84892Z"
		fill="currentColor"
	/>
</svg>
