<svg
	color="rgb(var(--foreground, 0, 0, 0))"
	viewBox="0 0 16 16"
	fill="none"
	xmlns="http://www.w3.org/2000/svg"
>
	<path
		d="M3.60981 15.5H12.3902C13.1799 15.5 13.7802 15.2936 14.1911 14.8808C14.602 14.4734 14.8074 13.8705 14.8074 13.072V5.27458H1.1926V13.072C1.1926 13.8759 1.39803 14.4815 1.8089 14.8889C2.21978 15.2963 2.82008 15.5 3.60981 15.5ZM5.36268 8.21592C5.19193 8.21592 5.05319 8.1616 4.94647 8.05296C4.84509 7.94432 4.7944 7.80038 4.7944 7.62113V7.36855C4.7944 7.1893 4.84509 7.04807 4.94647 6.94487C5.05319 6.83623 5.19193 6.78191 5.36268 6.78191H10.6453C10.8161 6.78191 10.9548 6.83623 11.0615 6.94487C11.1683 7.04807 11.2216 7.1893 11.2216 7.36855V7.62113C11.2216 7.80038 11.1683 7.94432 11.0615 8.05296C10.9548 8.1616 10.8161 8.21592 10.6453 8.21592H5.36268ZM1.36068 4.15834H14.6393C15.0929 4.15834 15.4317 4.03069 15.6558 3.77539C15.8853 3.51467 16 3.15617 16 2.69989V1.95845C16 1.50217 15.8853 1.14639 15.6558 0.891092C15.4317 0.630364 15.0929 0.5 14.6393 0.5H1.36068C0.9338 0.5 0.6003 0.630364 0.36018 0.891092C0.12006 1.14639 0 1.50217 0 1.95845V2.69989C0 3.15617 0.112056 3.51467 0.336168 3.77539C0.565616 4.03069 0.90712 4.15834 1.36068 4.15834Z"
		fill="currentColor"
	/>
</svg>
