<svg
	color="rgb(var(--foreground, 0, 0, 0))"
	viewBox="0 0 19 16"
	fill="none"
	xmlns="http://www.w3.org/2000/svg"
>
	<path
		d="M5.33806 15.5H13.654C14.4355 15.5 15.0163 15.3072 15.3964 14.9215C15.7766 14.5413 16.0247 13.9519 16.1409 13.1535L17.416 4.2887L16.1409 4.37018L14.8737 13.1372C14.8156 13.5391 14.681 13.827 14.4698 14.0008C14.2639 14.1801 13.9867 14.2697 13.6382 14.2697H5.36182C5.00806 14.2697 4.72822 14.1801 4.5223 14.0008C4.31638 13.827 4.18438 13.5391 4.1263 13.1372L2.85911 4.37018L1.58399 4.2887L2.85911 13.1535C2.97527 13.9574 3.22343 14.5494 3.60358 14.9297C3.98374 15.3099 4.5619 15.5 5.33806 15.5ZM1.50479 4.98126H17.4952C17.981 4.98126 18.3532 4.8346 18.6119 4.54128C18.8706 4.24796 19 3.85416 19 3.35986V2.1214C19 1.62167 18.8706 1.22787 18.6119 0.939978C18.3532 0.646659 17.981 0.5 17.4952 0.5H1.50479C1.04016 0.5 0.673197 0.646659 0.403918 0.939978C0.134639 1.22787 0 1.62167 0 2.1214V3.35986C0 3.85416 0.129359 4.24796 0.388078 4.54128C0.646797 4.8346 1.01904 4.98126 1.50479 4.98126ZM1.82951 3.75095C1.62887 3.75095 1.48631 3.70478 1.40183 3.61244C1.31735 3.5201 1.27511 3.37344 1.27511 3.17246V2.3088C1.27511 2.10239 1.31735 1.95573 1.40183 1.86882C1.48631 1.77648 1.62887 1.73031 1.82951 1.73031H17.1784C17.3738 1.73031 17.5137 1.77648 17.5982 1.86882C17.6826 1.95573 17.7249 2.10239 17.7249 2.3088V3.17246C17.7249 3.37344 17.6826 3.5201 17.5982 3.61244C17.5137 3.70478 17.3738 3.75095 17.1784 3.75095H1.82951ZM7.19925 12.5587C7.35765 12.5587 7.49757 12.4935 7.61901 12.3631L9.49604 10.4403L11.3731 12.3631C11.4312 12.4174 11.4945 12.4636 11.5632 12.5016C11.6318 12.5397 11.711 12.5587 11.8007 12.5587C11.9697 12.5587 12.1123 12.4962 12.2284 12.3713C12.3499 12.2463 12.4106 12.0997 12.4106 11.9313C12.4106 11.8389 12.3921 11.7575 12.3551 11.6869C12.3182 11.6162 12.2733 11.5511 12.2205 11.4913L10.3514 9.56029L12.2284 7.62113C12.3551 7.48533 12.4185 7.34411 12.4185 7.19745C12.4185 7.0182 12.3578 6.86882 12.2363 6.74932C12.1202 6.62439 11.975 6.56192 11.8007 6.56192C11.6582 6.56192 11.5209 6.62711 11.3889 6.75747L9.49604 8.69663L7.61109 6.76562C7.48437 6.64068 7.34709 6.57822 7.19925 6.57822C7.03029 6.57822 6.88509 6.63797 6.76365 6.75747C6.64749 6.87697 6.58941 7.02363 6.58941 7.19745C6.58941 7.35497 6.65277 7.49891 6.77949 7.62928L8.64068 9.56029L6.77949 11.4995C6.65277 11.6244 6.58941 11.7683 6.58941 11.9313C6.58941 12.0997 6.64749 12.2463 6.76365 12.3713C6.88509 12.4962 7.03029 12.5587 7.19925 12.5587Z"
		fill="currentColor"
	/>
</svg>
