<svg
	color="rgb(var(--foreground, 0, 0, 0))"
	viewBox="0 0 19 16"
	fill="none"
	xmlns="http://www.w3.org/2000/svg"
>
	<path
		d="M5.30307 15.5H13.6889C14.477 15.5 15.0493 15.2936 15.4061 14.8808C15.7681 14.468 16.0077 13.865 16.1248 13.072L17.2589 5.31532H1.73308L2.87516 13.072C2.99229 13.8705 3.22923 14.4734 3.58596 14.8808C3.94802 15.2936 4.52039 15.5 5.30307 15.5ZM1.35771 4.20722H17.6423C18.0895 4.20722 18.4276 4.07958 18.6566 3.82428C18.8855 3.56355 19 3.20505 19 2.74878V1.95845C19 1.50217 18.8855 1.14639 18.6566 0.891092C18.4276 0.630364 18.0895 0.5 17.6423 0.5H1.35771C0.931764 0.5 0.598991 0.630364 0.359395 0.891092C0.119798 1.14639 0 1.50217 0 1.95845V2.74878C0 3.20505 0.111812 3.56355 0.335435 3.82428C0.564383 4.07958 0.905142 4.20722 1.35771 4.20722ZM7.10803 13.2349C6.93232 13.2349 6.78058 13.1697 6.6528 13.0394C6.53034 12.909 6.4691 12.7569 6.4691 12.5831C6.4691 12.4147 6.53566 12.2653 6.66877 12.135L8.60151 10.1388L6.66877 8.15073C6.53566 8.01494 6.4691 7.86556 6.4691 7.70261C6.4691 7.52879 6.533 7.37941 6.66078 7.25448C6.78857 7.12955 6.93765 7.06708 7.10803 7.06708C7.19854 7.06708 7.27575 7.08609 7.33964 7.12412C7.40886 7.15671 7.47541 7.20016 7.5393 7.25448L9.49601 9.24253L11.4607 7.24633C11.6098 7.11597 11.7535 7.05079 11.892 7.05079C12.0677 7.05079 12.2194 7.11597 12.3472 7.24633C12.475 7.37126 12.5389 7.52336 12.5389 7.70261C12.5389 7.78952 12.5202 7.86828 12.483 7.93889C12.4457 8.00407 12.3978 8.07197 12.3392 8.14258L10.3905 10.1388L12.3312 12.1268C12.3845 12.1866 12.4297 12.2545 12.467 12.3305C12.5096 12.4011 12.5309 12.4853 12.5309 12.5831C12.5309 12.7569 12.467 12.909 12.3392 13.0394C12.2114 13.1697 12.0624 13.2349 11.892 13.2349C11.8015 13.2349 11.7189 13.2159 11.6444 13.1779C11.5698 13.1344 11.5033 13.0856 11.4447 13.0312L9.49601 11.0513L7.54729 13.0312C7.4195 13.167 7.27308 13.2349 7.10803 13.2349Z"
		fill="currentColor"
	/>
</svg>
