<svg
	color="rgb(var(--foreground, 0, 0, 0))"
	viewBox="0 0 13 20"
	fill="none"
	xmlns="http://www.w3.org/2000/svg"
>
	<path
		d="M2.39596 19.5H10.604C11.4027 19.5 12.0004 19.2935 12.3971 18.8805C12.799 18.4728 13 17.8585 13 17.0378V5.15002C13 4.34496 12.8068 3.73332 12.4203 3.31511C12.039 2.89689 11.462 2.68778 10.6891 2.68778H10.5036C10.5087 2.71915 10.5113 2.75313 10.5113 2.78972C10.5113 2.82109 10.5113 2.85246 10.5113 2.88382V3.58956C10.5113 3.73593 10.501 3.85617 10.4804 3.95027H10.6659C11.0266 3.95027 11.2971 4.06005 11.4774 4.27961C11.6629 4.49917 11.7556 4.79454 11.7556 5.1657V17.0221C11.7556 17.4142 11.6526 17.7147 11.4465 17.9239C11.2455 18.133 10.9441 18.2375 10.5422 18.2375H2.45779C2.05589 18.2375 1.75188 18.133 1.54578 17.9239C1.34483 17.7147 1.24435 17.4142 1.24435 17.0221V5.1657C1.24435 4.79454 1.33452 4.49917 1.51486 4.27961C1.70036 4.06005 1.97344 3.95027 2.33413 3.95027H2.51962C2.49901 3.85617 2.4887 3.73593 2.4887 3.58956V2.88382C2.4887 2.85246 2.4887 2.82109 2.4887 2.78972C2.4887 2.75313 2.49128 2.71915 2.49643 2.68778H2.31094C1.53805 2.68778 0.958383 2.89689 0.571938 3.31511C0.190646 3.73332 0 4.34496 0 5.15002V17.0378C0 17.8585 0.198375 18.4728 0.595125 18.8805C0.997027 19.2935 1.5973 19.5 2.39596 19.5ZM4.11177 4.48349H8.88823C9.11494 4.48349 9.29013 4.41553 9.41379 4.27961C9.54261 4.14369 9.60702 3.95288 9.60702 3.70718V2.88382C9.60702 2.63812 9.54261 2.44731 9.41379 2.31139C9.29013 2.17547 9.11494 2.10751 8.88823 2.10751H8.17717C8.15141 1.66316 7.97622 1.28415 7.65161 0.970491C7.33214 0.65683 6.94828 0.5 6.5 0.5C6.05172 0.5 5.66528 0.65683 5.34067 0.970491C5.0212 1.28415 4.84859 1.66316 4.82283 2.10751H4.11177C3.88506 2.10751 3.70729 2.17547 3.57848 2.31139C3.45482 2.44731 3.39298 2.63812 3.39298 2.88382V3.70718C3.39298 3.95288 3.45482 4.14369 3.57848 4.27961C3.70729 4.41553 3.88506 4.48349 4.11177 4.48349ZM6.5 2.85246C6.31451 2.85246 6.15478 2.7845 6.02081 2.64858C5.89199 2.51266 5.82759 2.35321 5.82759 2.17024C5.82759 1.97682 5.89199 1.81476 6.02081 1.68407C6.15478 1.54815 6.31451 1.48019 6.5 1.48019C6.68549 1.48019 6.84265 1.54815 6.97146 1.68407C7.10543 1.81476 7.17241 1.97682 7.17241 2.17024C7.17241 2.35321 7.10543 2.51266 6.97146 2.64858C6.84265 2.7845 6.68549 2.85246 6.5 2.85246Z"
		fill="currentColor"
	/>
</svg>
