<svg
	color="rgb(var(--foreground, 0, 0, 0))"
	viewBox="0 0 13 18"
	fill="none"
	xmlns="http://www.w3.org/2000/svg"
>
	<path
		d="M3.47027 11.2677C3.32085 11.2677 3.19461 11.2201 3.09156 11.125C2.99366 11.0246 2.94471 10.9003 2.94471 10.7523C2.94471 10.6043 2.99366 10.4801 3.09156 10.3797C3.19461 10.2792 3.32085 10.229 3.47027 10.229H9.55291C9.69719 10.229 9.81827 10.2792 9.91617 10.3797C10.0192 10.4801 10.0707 10.6043 10.0707 10.7523C10.0707 10.9003 10.0192 11.0246 9.91617 11.125C9.81827 11.2201 9.69719 11.2677 9.55291 11.2677H3.47027ZM3.47027 14.2729C3.32085 14.2729 3.19461 14.2226 3.09156 14.1222C2.99366 14.0218 2.94471 13.9002 2.94471 13.7575C2.94471 13.6095 2.99366 13.4852 3.09156 13.3848C3.19461 13.2844 3.32085 13.2341 3.47027 13.2341H9.55291C9.69719 13.2341 9.81827 13.2844 9.91617 13.3848C10.0192 13.4852 10.0707 13.6095 10.0707 13.7575C10.0707 13.9002 10.0192 14.0218 9.91617 14.1222C9.81827 14.2226 9.69719 14.2729 9.55291 14.2729H3.47027ZM2.39596 17.5H10.604C11.4027 17.5 12.0004 17.2912 12.3971 16.8736C12.799 16.4613 13 15.8428 13 15.0182V7.81856H7.40428C6.43044 7.81856 5.94352 7.31903 5.94352 6.31996V0.5H2.39596C1.5973 0.5 0.997027 0.7088 0.595125 1.1264C0.198375 1.544 0 2.16511 0 2.98974V15.0182C0 15.8481 0.198375 16.4692 0.595125 16.8815C0.997027 17.2938 1.5973 17.5 2.39596 17.5ZM7.42747 6.73228H12.9073C12.8815 6.56841 12.8145 6.40454 12.7063 6.24067C12.5981 6.0768 12.4512 5.89708 12.2658 5.70149L8.00713 1.25326C7.82679 1.06297 7.65418 0.912313 7.4893 0.801306C7.32442 0.685012 7.16211 0.613651 7.00238 0.58722V6.3041C7.00238 6.58955 7.14407 6.73228 7.42747 6.73228Z"
		fill="currentColor"
	/>
</svg>
