<svg
	color="rgb(var(--foreground, 0, 0, 0))"
	viewBox="0 0 16 20"
	fill="none"
	xmlns="http://www.w3.org/2000/svg"
>
	<path
		d="M3.79462 4.40382H5.05428V2.51987C5.05428 2.12242 5.15599 1.8177 5.35941 1.60572C5.56805 1.38845 5.87579 1.27981 6.28264 1.27981H9.74083V5.35771C9.74083 5.81876 9.85037 6.16057 10.0694 6.38315C10.2937 6.60572 10.6302 6.71701 11.0787 6.71701H14.7403V13.5135C14.7403 13.911 14.636 14.2183 14.4274 14.4356C14.2187 14.6476 13.911 14.7536 13.5042 14.7536H11.9628V16.0334H13.5746C14.383 16.0334 14.9881 15.8241 15.3897 15.4054C15.7966 14.9868 16 14.3641 16 13.5374V7.08267C16 6.59512 15.9426 6.18177 15.8279 5.84261C15.7131 5.50344 15.5097 5.18018 15.2176 4.87281L11.2665 0.794913C10.9901 0.503445 10.6849 0.299417 10.3511 0.18283C10.0173 0.0609433 9.63912 0 9.21663 0H6.22005C5.41157 0 4.80391 0.209327 4.39707 0.627981C3.99544 1.04663 3.79462 1.66932 3.79462 2.49603V4.40382ZM10.8753 5.16693V1.90779L14.4117 5.56439H11.2587C11.1231 5.56439 11.024 5.53524 10.9614 5.47695C10.904 5.41335 10.8753 5.31002 10.8753 5.16693ZM0 17.504C0 18.336 0.200815 18.9587 0.602445 19.372C1.00929 19.7907 1.61695 20 2.42543 20H9.77995C10.5884 20 11.1935 19.7907 11.5951 19.372C12.002 18.9534 12.2054 18.3307 12.2054 17.504V11.2957C12.2054 10.9565 12.1871 10.6704 12.1506 10.4372C12.1141 10.204 12.0411 9.99205 11.9315 9.80127C11.8272 9.60519 11.6707 9.39852 11.4621 9.18124L7.1511 4.72178C6.85379 4.40912 6.5617 4.20509 6.27482 4.1097C5.98794 4.01431 5.62543 3.96661 5.18729 3.96661H2.42543C1.61695 3.96661 1.00929 4.17594 0.602445 4.59459C0.200815 5.01325 0 5.63593 0 6.46264V17.504ZM1.25966 17.4801V6.47854C1.25966 6.08638 1.36137 5.78431 1.56479 5.57234C1.77343 5.35506 2.08117 5.24642 2.48802 5.24642H5.05428V9.85692C5.05428 10.3604 5.17685 10.7366 5.422 10.9857C5.67237 11.2348 6.0401 11.3593 6.52518 11.3593H10.9457V17.4801C10.9457 17.8776 10.8414 18.1823 10.6328 18.3943C10.4241 18.6116 10.119 18.7202 9.71736 18.7202H2.4802C2.07857 18.7202 1.77343 18.6116 1.56479 18.3943C1.36137 18.1823 1.25966 17.8776 1.25966 17.4801ZM6.67384 10.159C6.51736 10.159 6.40522 10.1245 6.33741 10.0556C6.2696 9.98675 6.2357 9.87281 6.2357 9.71383V5.54054L10.7032 10.159H6.67384Z"
		fill="currentColor"
	/>
</svg>
