<svg
	color="rgb(var(--foreground, 0, 0, 0))"
	viewBox="0 0 16 20"
	fill="none"
	xmlns="http://www.w3.org/2000/svg"
>
	<path
		d="M2.42543 20H9.77995C10.5884 20 11.1935 19.7907 11.5951 19.372C12.002 18.9534 12.2054 18.3307 12.2054 17.504V11.2242H6.74425C6.2383 11.2242 5.86536 11.1023 5.62543 10.8585C5.38549 10.6094 5.26553 10.2305 5.26553 9.72178V3.96661H2.42543C1.61695 3.96661 1.00929 4.17594 0.602445 4.59459C0.200815 5.01325 0 5.63593 0 6.46264V17.504C0 18.336 0.200815 18.9587 0.602445 19.372C1.00929 19.7907 1.61695 20 2.42543 20ZM6.73643 10.1351H12.0645C12.0228 9.98145 11.955 9.82777 11.8611 9.67409C11.7672 9.5204 11.6316 9.35347 11.4543 9.17329L7.27628 4.84897C7.10416 4.66879 6.93985 4.5204 6.78337 4.40382C6.63211 4.28723 6.48085 4.20774 6.32958 4.16534V9.72973C6.32958 10 6.4652 10.1351 6.73643 10.1351ZM13.2694 16.0334H13.5746C13.9762 16.0334 14.3283 15.9804 14.6308 15.8744C14.9333 15.7684 15.1863 15.6121 15.3897 15.4054C15.5932 15.1987 15.7444 14.9391 15.8435 14.6264C15.9478 14.3137 16 13.9507 16 13.5374V5.99364H11.6733C11.2613 5.99364 10.9431 5.88235 10.7188 5.65978C10.4998 5.4319 10.3902 5.11129 10.3902 4.69793V0H6.22005C5.42722 0 4.82478 0.206677 4.41271 0.620032C4.00065 1.03339 3.79462 1.63752 3.79462 2.43243V2.88553H4.9291C5.47677 2.88553 5.98011 2.96502 6.43912 3.12401C6.89813 3.28299 7.3467 3.58506 7.78484 4.03021L12.2289 8.53736C12.667 8.98251 12.9487 9.44356 13.0738 9.92051C13.2042 10.3922 13.2694 10.8983 13.2694 11.4388V16.0334ZM11.822 5H15.9061C15.8852 4.87281 15.8331 4.75093 15.7496 4.63434C15.6714 4.51775 15.5619 4.38792 15.421 4.24483L12.1115 0.81876C11.9759 0.675676 11.8481 0.561738 11.7281 0.476948C11.6134 0.392157 11.496 0.341812 11.376 0.325914L11.3839 4.53895C11.3839 4.84632 11.5299 5 11.822 5Z"
		fill="currentColor"
	/>
</svg>
