<svg
	color="rgb(var(--foreground, 0, 0, 0))"
	viewBox="0 0 13 18"
	fill="none"
	xmlns="http://www.w3.org/2000/svg"
>
	<path
		d="M9.34423 10.0625H3.478C3.33888 10.0625 3.22295 10.1101 3.1302 10.2052C3.03746 10.2951 2.99108 10.4087 2.99108 10.5462C2.99108 10.6836 3.03746 10.7999 3.1302 10.8951C3.22295 10.9902 3.33888 11.0378 3.478 11.0378H9.34423C9.4782 11.0378 9.58898 10.9902 9.67658 10.8951C9.76932 10.7999 9.8157 10.6836 9.8157 10.5462C9.8157 10.4087 9.76932 10.2951 9.67658 10.2052C9.58898 10.1101 9.4782 10.0625 9.34423 10.0625ZM9.34423 12.8298H3.478C3.33888 12.8298 3.22295 12.8773 3.1302 12.9725C3.03746 13.0676 2.99108 13.1866 2.99108 13.3293C2.99108 13.4614 3.03746 13.5751 3.1302 13.6702C3.22295 13.7601 3.33888 13.805 3.478 13.805H9.34423C9.4782 13.805 9.58898 13.7601 9.67658 13.6702C9.76932 13.5751 9.8157 13.4614 9.8157 13.3293C9.8157 13.1866 9.76932 13.0676 9.67658 12.9725C9.58898 12.8773 9.4782 12.8298 9.34423 12.8298ZM2.39596 17.5H10.604C11.4027 17.5 12.0004 17.2912 12.3971 16.8736C12.799 16.4613 13 15.8428 13 15.0182V7.81856C13 7.47497 12.982 7.18688 12.9459 6.95429C12.9098 6.7217 12.8377 6.51026 12.7295 6.31996C12.6264 6.12438 12.4719 5.91822 12.2658 5.70149L8.00713 1.25326C7.81134 1.04711 7.62069 0.891169 7.4352 0.785448C7.2497 0.67444 7.04618 0.600435 6.82461 0.563433C6.6082 0.521144 6.35573 0.5 6.06718 0.5H2.39596C1.5973 0.5 0.997027 0.7088 0.595125 1.1264C0.198375 1.544 0 2.16511 0 2.98974V15.0182C0 15.8481 0.198375 16.4692 0.595125 16.8815C0.997027 17.2938 1.5973 17.5 2.39596 17.5ZM2.45006 16.2234C2.05331 16.2234 1.75188 16.1177 1.54578 15.9063C1.34483 15.6948 1.24435 15.3909 1.24435 14.9944V3.01353C1.24435 2.62236 1.34483 2.31841 1.54578 2.10168C1.75188 1.88495 2.05589 1.77659 2.45779 1.77659H5.89715V6.3834C5.89715 6.88029 6.01823 7.25295 6.2604 7.5014C6.50258 7.74985 6.86583 7.87407 7.35018 7.87407H11.7556V14.9944C11.7556 15.3909 11.6526 15.6948 11.4465 15.9063C11.2455 16.1177 10.9441 16.2234 10.5422 16.2234H2.45006ZM7.4893 6.67677C7.33472 6.67677 7.22394 6.64241 7.15696 6.57369C7.09513 6.50498 7.06421 6.39132 7.06421 6.23274V2.02239L11.5161 6.67677H7.4893Z"
		fill="currentColor"
	/>
</svg>
