<svg
	color="rgb(var(--foreground, 0, 0, 0))"
	viewBox="0 0 13 18"
	fill="none"
	xmlns="http://www.w3.org/2000/svg"
>
	<path
		d="M2.39596 17.5H10.604C11.4027 17.5 12.0004 17.2912 12.3971 16.8736C12.799 16.4613 13 15.8428 13 15.0182V7.81856H7.40428C6.43044 7.81856 5.94352 7.31903 5.94352 6.31996V0.5H2.39596C1.5973 0.5 0.997027 0.7088 0.595125 1.1264C0.198375 1.544 0 2.16511 0 2.98974V15.0182C0 15.8481 0.198375 16.4692 0.595125 16.8815C0.997027 17.2938 1.5973 17.5 2.39596 17.5ZM7.42747 6.73228H12.9073C12.8815 6.56841 12.8145 6.40454 12.7063 6.24067C12.5981 6.0768 12.4512 5.89708 12.2658 5.70149L8.00713 1.25326C7.82679 1.06297 7.65418 0.912313 7.4893 0.801306C7.32442 0.685012 7.16211 0.613651 7.00238 0.58722V6.3041C7.00238 6.58955 7.14407 6.73228 7.42747 6.73228Z"
		fill="currentColor"
	/>
</svg>
