<svg
	color="rgb(var(--foreground, 0, 0, 0))"
	viewBox="0 0 18 16"
	fill="none"
	xmlns="http://www.w3.org/2000/svg"
>
	<path
		d="M2.48877 15.5H15.749C16.4571 15.5 17.0092 15.2869 17.4055 14.8607C17.8018 14.4399 18 13.806 18 12.959V4.54098C18 3.69945 17.7913 3.06557 17.3738 2.63934C16.9564 2.21311 16.3355 2 15.5112 2H7.90225C7.63276 2 7.40555 1.96448 7.22061 1.89344C7.03567 1.81694 6.8428 1.69126 6.64201 1.51639L6.15852 1.10656C5.98415 0.953552 5.81506 0.833333 5.65125 0.745902C5.49273 0.65847 5.31572 0.595628 5.12021 0.557377C4.92999 0.519126 4.70542 0.5 4.4465 0.5H2.18758C1.49009 0.5 0.951123 0.704918 0.570674 1.11475C0.190225 1.52459 0 2.14208 0 2.96721V12.959C0 13.806 0.206077 14.4399 0.61823 14.8607C1.03567 15.2869 1.65918 15.5 2.48877 15.5ZM2.50462 14.1803C2.10832 14.1803 1.80449 14.0738 1.59313 13.8607C1.38177 13.6421 1.27609 13.3197 1.27609 12.8934V3.04098C1.27609 2.63661 1.37649 2.3306 1.57728 2.12295C1.77807 1.9153 2.06869 1.81148 2.44914 1.81148H4.12153C4.38573 1.81148 4.60766 1.84973 4.78732 1.92623C4.97226 2.00273 5.16513 2.12842 5.36592 2.30328L5.84941 2.72131C6.01849 2.86885 6.18494 2.98634 6.34874 3.07377C6.51255 3.1612 6.69221 3.22404 6.88771 3.26229C7.08322 3.30055 7.31044 3.31967 7.56935 3.31967H15.4874C15.8785 3.31967 16.1823 3.42896 16.3989 3.64754C16.6156 3.86612 16.7239 4.18852 16.7239 4.61475V12.9016C16.7239 13.3224 16.6156 13.6421 16.3989 13.8607C16.1823 14.0738 15.8785 14.1803 15.4874 14.1803H2.50462ZM0.77675 6.31967H17.2153V5.08197H0.77675V6.31967Z"
		fill="currentColor"
	/>
</svg>
