<svg
	color="rgb(var(--foreground, 0, 0, 0))"
	viewBox="0 0 16 16"
	fill="none"
	xmlns="http://www.w3.org/2000/svg"
>
	<path
		d="M2.52082 15.5H13.4872C14.3275 15.5 14.9563 15.2882 15.3738 14.8645C15.7913 14.4462 16 13.8161 16 12.9742V3.0258C16 2.18387 15.7913 1.55378 15.3738 1.13552C14.9563 0.711841 14.3275 0.5 13.4872 0.5H2.52082C1.68055 0.5 1.049 0.711841 0.626192 1.13552C0.208731 1.55378 0 2.18387 0 3.0258V12.9742C0 13.8161 0.208731 14.4462 0.626192 14.8645C1.049 15.2882 1.68055 15.5 2.52082 15.5ZM2.4004 14.1882C2.04716 14.1882 1.77421 14.0904 1.58154 13.8949C1.38886 13.7048 1.29252 13.4223 1.29252 13.0475V5.3642C1.29252 4.98941 1.38886 4.70695 1.58154 4.51684C1.77421 4.32129 2.04716 4.22352 2.4004 4.22352H13.5916C13.9502 4.22352 14.2258 4.32129 14.4185 4.51684C14.6111 4.70695 14.7075 4.98941 14.7075 5.3642V13.0475C14.7075 13.4223 14.6111 13.7048 14.4185 13.8949C14.2258 14.0904 13.9502 14.1882 13.5916 14.1882H2.4004ZM3.79729 7.25448H12.2268C12.3713 7.25448 12.489 7.20559 12.58 7.10782C12.6764 7.01005 12.7245 6.88783 12.7245 6.74117C12.7245 6.60538 12.6764 6.49131 12.58 6.39897C12.489 6.30119 12.3713 6.25231 12.2268 6.25231H3.79729C3.65278 6.25231 3.53236 6.30119 3.43603 6.39897C3.33969 6.49131 3.29152 6.60538 3.29152 6.74117C3.29152 6.88783 3.33969 7.01005 3.43603 7.10782C3.53236 7.20559 3.65278 7.25448 3.79729 7.25448ZM3.79729 9.70695H12.2268C12.3713 9.70695 12.489 9.66078 12.58 9.56844C12.6764 9.47067 12.7245 9.35388 12.7245 9.21809C12.7245 9.07686 12.6764 8.95736 12.58 8.85959C12.489 8.75638 12.3713 8.70478 12.2268 8.70478H3.79729C3.65278 8.70478 3.53236 8.75638 3.43603 8.85959C3.33969 8.95736 3.29152 9.07686 3.29152 9.21809C3.29152 9.35388 3.33969 9.47067 3.43603 9.56844C3.53236 9.66078 3.65278 9.70695 3.79729 9.70695ZM3.79729 12.1676H9.15203C9.29654 12.1676 9.41428 12.1214 9.50527 12.0291C9.60161 11.9313 9.64977 11.8118 9.64977 11.6706C9.64977 11.5293 9.60161 11.4098 9.50527 11.3121C9.41428 11.2143 9.29654 11.1654 9.15203 11.1654H3.79729C3.65278 11.1654 3.53236 11.2143 3.43603 11.3121C3.33969 11.4098 3.29152 11.5293 3.29152 11.6706C3.29152 11.8118 3.33969 11.9313 3.43603 12.0291C3.53236 12.1214 3.65278 12.1676 3.79729 12.1676Z"
		fill="currentColor"
	/>
</svg>
