<svg
	color="rgb(var(--foreground, 0, 0, 0))"
	viewBox="0 0 18 18"
	fill="none"
	xmlns="http://www.w3.org/2000/svg"
>
	<path
		d="M2.39695 11.8748H15.6031C16.4071 11.8748 17.0076 11.6767 17.4046 11.2803C17.8015 10.884 18 10.3103 18 9.55932V5.2412C18 5.0013 17.9898 4.78748 17.9695 4.59974C17.9542 4.41199 17.916 4.2425 17.855 4.09126C17.7939 3.93481 17.6972 3.794 17.5649 3.66884L14.8626 1.04824C14.5878 0.782268 14.3257 0.573664 14.0763 0.422425C13.8321 0.271186 13.57 0.164276 13.2901 0.101695C13.0102 0.0338983 12.6819 0 12.3053 0H5.69465C5.31806 0 4.98983 0.0338983 4.70993 0.101695C4.43512 0.164276 4.17303 0.271186 3.92367 0.422425C3.67939 0.573664 3.41985 0.782268 3.14504 1.04824L0.435115 3.66884C0.302799 3.794 0.206107 3.93481 0.145038 4.09126C0.0839695 4.2425 0.043257 4.41199 0.0229008 4.59974C0.00763359 4.78748 0 5.0013 0 5.2412V9.55932C0 10.3155 0.198473 10.8918 0.59542 11.2881C0.997456 11.6793 1.59797 11.8748 2.39695 11.8748ZM8.99999 7.21252C8.63867 7.21252 8.32569 7.12125 8.06106 6.93872C7.79643 6.75098 7.59032 6.5163 7.44274 6.23468C7.30025 5.94785 7.229 5.65319 7.229 5.35072V5.31943C7.229 5.15776 7.18065 5.01173 7.08396 4.88136C6.98727 4.75098 6.83969 4.68579 6.64121 4.68579H1.79389C1.57506 4.68579 1.43766 4.63885 1.38168 4.54498C1.33079 4.44589 1.39186 4.31291 1.56489 4.14602L4.08397 1.71317C4.31807 1.48892 4.53436 1.32986 4.73283 1.23598C4.93639 1.14211 5.21882 1.09518 5.58014 1.09518H12.4198C12.7863 1.09518 13.0687 1.14211 13.2672 1.23598C13.4656 1.32986 13.6819 1.48892 13.916 1.71317L16.4351 4.14602C16.6183 4.32334 16.6794 4.45893 16.6183 4.5528C16.5623 4.64146 16.4275 4.68579 16.2137 4.68579H11.3588C11.1603 4.68579 11.0127 4.75098 10.916 4.88136C10.8244 5.01173 10.7786 5.15776 10.7786 5.31943V5.35072C10.7786 5.65319 10.7048 5.94785 10.5572 6.23468C10.4097 6.5163 10.2036 6.75098 9.93892 6.93872C9.67429 7.12125 9.36132 7.21252 8.99999 7.21252ZM2.41222 10.7249C2.03054 10.7249 1.73791 10.6206 1.53435 10.412C1.33079 10.2034 1.22901 9.8957 1.22901 9.48892V5.83572H6.06869C6.12976 6.32073 6.29516 6.75619 6.56488 7.14211C6.8346 7.52282 7.17811 7.82529 7.59541 8.04954C8.0178 8.26858 8.486 8.3781 8.99999 8.3781C9.51908 8.3781 9.98727 8.26858 10.4046 8.04954C10.827 7.82529 11.1705 7.52282 11.4351 7.14211C11.7048 6.75619 11.8702 6.32073 11.9313 5.83572H16.771V9.48892C16.771 9.8957 16.6667 10.2034 16.458 10.412C16.2545 10.6206 15.9644 10.7249 15.5878 10.7249H2.41222ZM2.39695 18H15.6031C16.402 18 17 17.7966 17.3969 17.3898C17.799 16.983 18 16.3781 18 15.575V11.5932C18 11.4472 17.9695 11.309 17.9084 11.1786C17.8524 11.043 17.7684 10.9335 17.6565 10.8501C17.5445 10.7666 17.4122 10.7249 17.2595 10.7249H11.3588C11.1603 10.7249 11.0127 10.7901 10.916 10.9205C10.8244 11.0508 10.7786 11.1969 10.7786 11.3585V11.3898C10.7786 11.6923 10.7048 11.987 10.5572 12.2738C10.4097 12.5554 10.2036 12.7901 9.93892 12.9778C9.67429 13.1604 9.36132 13.2516 8.99999 13.2516C8.63867 13.2516 8.32569 13.1604 8.06106 12.9778C7.79643 12.7901 7.59032 12.5554 7.44274 12.2738C7.30025 11.987 7.229 11.6923 7.229 11.3898V11.3585C7.229 11.1969 7.18065 11.0508 7.08396 10.9205C6.98727 10.7901 6.83969 10.7249 6.64121 10.7249H0.740459C0.587787 10.7249 0.455471 10.7666 0.343512 10.8501C0.236641 10.9335 0.152672 11.043 0.0916031 11.1786C0.0305344 11.309 0 11.4472 0 11.5932V15.575C0 16.3833 0.198473 16.9883 0.59542 17.3898C0.997456 17.7966 1.59797 18 2.39695 18ZM2.41222 16.7405C2.03054 16.7405 1.73791 16.6362 1.53435 16.4276C1.33079 16.219 1.22901 15.9113 1.22901 15.5046V11.8748H6.06869C6.12976 12.3598 6.29516 12.7953 6.56488 13.1812C6.8346 13.5619 7.17811 13.8644 7.59541 14.0887C8.0178 14.3077 8.486 14.4172 8.99999 14.4172C9.51908 14.4172 9.98727 14.3077 10.4046 14.0887C10.827 13.8644 11.1705 13.5619 11.4351 13.1812C11.7048 12.7953 11.8702 12.3598 11.9313 11.8748H16.771V15.5046C16.771 15.9113 16.6667 16.219 16.458 16.4276C16.2545 16.6362 15.9644 16.7405 15.5878 16.7405H2.41222Z"
		fill="currentColor"
	/>
</svg>
