<svg
	color="rgb(var(--foreground, 0, 0, 0))"
	viewBox="0 0 18 18"
	fill="none"
	xmlns="http://www.w3.org/2000/svg"
>
	<path
		d="M2.39693 10.7249H15.6031C16.4071 10.7249 17.0076 10.5293 17.4046 10.1382C17.8015 9.74707 18 9.1708 18 8.40939V5.2412C18 5.0013 17.9898 4.78748 17.9695 4.59974C17.9542 4.41199 17.916 4.2425 17.855 4.09126C17.7939 3.93481 17.6972 3.794 17.5649 3.66884L14.8626 1.04824C14.5878 0.782268 14.3257 0.573664 14.0763 0.422425C13.8321 0.271186 13.57 0.164276 13.2901 0.101695C13.0102 0.0338983 12.6819 0 12.3053 0H5.69465C5.31806 0 4.98981 0.0338983 4.70991 0.101695C4.4351 0.164276 4.17302 0.271186 3.92365 0.422425C3.67938 0.573664 3.41984 0.782268 3.14503 1.04824L0.435115 3.66884C0.302799 3.794 0.206107 3.93481 0.145038 4.09126C0.0839695 4.2425 0.043257 4.41199 0.0229008 4.59974C0.00763359 4.78748 0 5.0013 0 5.2412V8.40939C0 9.16558 0.198473 9.74185 0.59542 10.1382C0.997456 10.5293 1.59795 10.7249 2.39693 10.7249ZM8.99999 7.21252C8.63867 7.21252 8.32569 7.12125 8.06106 6.93872C7.79643 6.75098 7.59032 6.5163 7.44274 6.23468C7.30025 5.94785 7.229 5.65319 7.229 5.35072V5.31943C7.229 5.15776 7.18065 5.01173 7.08396 4.88136C6.98727 4.75098 6.83969 4.68579 6.64121 4.68579H1.79388C1.57505 4.68579 1.43766 4.63885 1.38168 4.54498C1.33079 4.44589 1.39186 4.31291 1.56489 4.14602L4.08396 1.71317C4.31806 1.48892 4.53434 1.32986 4.73281 1.23598C4.93638 1.14211 5.21882 1.09518 5.58014 1.09518H12.4198C12.7863 1.09518 13.0687 1.14211 13.2672 1.23598C13.4656 1.32986 13.6819 1.48892 13.916 1.71317L16.4351 4.14602C16.6183 4.32334 16.6794 4.45893 16.6183 4.5528C16.5623 4.64146 16.4275 4.68579 16.2137 4.68579H11.3588C11.1603 4.68579 11.0127 4.75098 10.916 4.88136C10.8244 5.01173 10.7786 5.15776 10.7786 5.31943V5.35072C10.7786 5.65319 10.7048 5.94785 10.5572 6.23468C10.4097 6.5163 10.2036 6.75098 9.93892 6.93872C9.67429 7.12125 9.36132 7.21252 8.99999 7.21252ZM2.39693 18H15.6031C16.402 18 17 17.7966 17.3969 17.3898C17.799 16.983 18 16.3781 18 15.575V12.6962C18 12.472 17.9338 12.2712 17.8015 12.0939C17.6692 11.9166 17.4886 11.8279 17.2595 11.8279H11.3588C11.1603 11.8279 11.0127 11.8931 10.916 12.0235C10.8244 12.1486 10.7786 12.292 10.7786 12.4537V12.485C10.7786 12.7875 10.7048 13.0821 10.5572 13.369C10.4097 13.6558 10.2036 13.8931 9.93892 14.0808C9.67429 14.2634 9.36132 14.3546 8.99999 14.3546C8.63867 14.3546 8.32569 14.2634 8.06106 14.0808C7.79643 13.8931 7.59032 13.6558 7.44274 13.369C7.30025 13.0821 7.229 12.7875 7.229 12.485V12.4537C7.229 12.292 7.18065 12.1486 7.08396 12.0235C6.98727 11.8931 6.83969 11.8279 6.64121 11.8279H0.740459C0.511451 11.8279 0.330789 11.9166 0.198473 12.0939C0.0661578 12.2712 0 12.472 0 12.6962V15.575C0 16.3833 0.198473 16.9883 0.59542 17.3898C0.997456 17.7966 1.59795 18 2.39693 18Z"
		fill="currentColor"
	/>
</svg>
