<svg
	color="rgb(var(--foreground, 0, 0, 0))"
	viewBox="0 0 18 14"
	fill="none"
	xmlns="http://www.w3.org/2000/svg"
>
	<path
		d="M2.39695 13.5H15.6031C16.4071 13.5 17.0076 13.302 17.4046 12.906C17.8015 12.515 18 11.9261 18 11.1391V6.63064C18 6.40217 17.9873 6.2067 17.9618 6.04423C17.9364 5.87668 17.8906 5.72691 17.8244 5.5949C17.7634 5.45782 17.6768 5.32074 17.5649 5.18366L14.9313 1.93175C14.631 1.5662 14.3664 1.27934 14.1374 1.07118C13.9135 0.863015 13.6616 0.715778 13.3817 0.629467C13.1018 0.543156 12.7354 0.5 12.2824 0.5H5.71756C5.26463 0.5 4.89822 0.543156 4.61832 0.629467C4.34351 0.715778 4.0916 0.863015 3.8626 1.07118C3.63359 1.27934 3.3715 1.5662 3.07634 1.93175L0.435115 5.18366C0.323155 5.32074 0.234097 5.45782 0.167939 5.5949C0.10687 5.72691 0.0636132 5.87668 0.0381679 6.04423C0.0127226 6.2067 0 6.40217 0 6.63064V11.1391C0 11.9261 0.198473 12.515 0.59542 12.906C0.997455 13.302 1.59796 13.5 2.39695 13.5ZM2.41221 12.2739C2.03053 12.2739 1.73791 12.1749 1.53435 11.9769C1.33079 11.7738 1.22901 11.4742 1.22901 11.0782V7.28559H6.0687C6.12977 7.76284 6.29517 8.18932 6.56489 8.56503C6.83461 8.93566 7.17812 9.22759 7.59542 9.44083C8.01781 9.65407 8.486 9.76069 9 9.76069C9.51908 9.76069 9.98728 9.65407 10.4046 9.44083C10.827 9.22252 11.1705 8.92804 11.4351 8.55741C11.7048 8.1817 11.8702 7.75776 11.9313 7.28559H16.771V11.0782C16.771 11.4742 16.6667 11.7738 16.458 11.9769C16.2545 12.1749 15.9644 12.2739 15.5878 12.2739H2.41221ZM9 8.63357C8.63868 8.63357 8.3257 8.54472 8.06107 8.36702C7.79644 8.18424 7.59033 7.95323 7.44275 7.67399C7.30025 7.39475 7.22901 7.10789 7.22901 6.81342V6.79057C7.22901 6.63318 7.18066 6.49102 7.08397 6.36409C6.98728 6.23716 6.83969 6.1737 6.64122 6.1737H1.61069C1.48346 6.1737 1.40458 6.13054 1.37405 6.04423C1.3486 5.95792 1.36896 5.87415 1.43511 5.79291L4.26718 2.22876C4.45547 1.99014 4.65903 1.82005 4.87786 1.71851C5.10178 1.61697 5.35114 1.5662 5.62595 1.5662H12.374C12.6539 1.5662 12.9033 1.61697 13.1221 1.71851C13.341 1.82005 13.5445 1.99014 13.7328 2.22876L16.5725 5.79291C16.6336 5.87415 16.6489 5.95792 16.6183 6.04423C16.5929 6.13054 16.5191 6.1737 16.3969 6.1737H11.3588C11.1603 6.1737 11.0127 6.23716 10.916 6.36409C10.8244 6.49102 10.7786 6.63318 10.7786 6.79057V6.81342C10.7786 7.10789 10.7048 7.39475 10.5573 7.67399C10.4097 7.95323 10.2036 8.18424 9.93893 8.36702C9.6743 8.54472 9.36132 8.63357 9 8.63357Z"
		fill="currentColor"
	/>
</svg>
