<svg color="rgb(var(--foreground, 0, 0, 0))" viewBox="0 0 19 15" fill="none">
	<path
		d="M2.42915 15H16.5709C17.3754 15 17.9814 14.7955 18.3888 14.3865C18.7963 13.9827 19 13.3744 19 12.5616V4.32617C19 3.51862 18.7963 2.91295 18.3888 2.50918C17.9814 2.10016 17.3754 1.89565 16.5709 1.89565H14.3583C14.152 1.89565 13.987 1.87992 13.8632 1.84845C13.7394 1.81699 13.6285 1.76455 13.5306 1.69114C13.4377 1.61248 13.3319 1.5076 13.2133 1.37651L12.5944 0.668589C12.4036 0.453592 12.1921 0.288411 11.9601 0.173047C11.728 0.0576822 11.4134 0 11.0163 0H7.92953C7.53241 0 7.21781 0.0576822 6.98573 0.173047C6.7588 0.288411 6.54735 0.453592 6.35136 0.668589L5.73247 1.37651C5.56228 1.57053 5.40498 1.70687 5.26057 1.78553C5.11616 1.85894 4.89181 1.89565 4.58753 1.89565H2.42915C1.61943 1.89565 1.01085 2.10016 0.603418 2.50918C0.201139 2.91295 0 3.51862 0 4.32617V12.5616C0 13.3744 0.201139 13.9827 0.603418 14.3865C1.01085 14.7955 1.61943 15 2.42915 15ZM9.49997 12.6796C8.91202 12.6796 8.36276 12.5695 7.85217 12.3492C7.34159 12.129 6.89289 11.8222 6.50609 11.4289C6.12444 11.0357 5.82273 10.5794 5.60096 10.0603C5.38435 9.54116 5.27604 8.98007 5.27604 8.37703C5.27604 7.77923 5.38435 7.22077 5.60096 6.70163C5.82273 6.18249 6.12444 5.72627 6.50609 5.33298C6.89289 4.9397 7.34159 4.63293 7.85217 4.41269C8.36276 4.19245 8.91202 4.08233 9.49997 4.08233C10.2787 4.08233 10.9879 4.27373 11.6274 4.65653C12.2669 5.03933 12.7749 5.55585 13.1514 6.20608C13.5279 6.85632 13.7162 7.57997 13.7162 8.37703C13.7162 8.98007 13.6079 9.54116 13.3912 10.0603C13.1746 10.5794 12.8729 11.0357 12.4861 11.4289C12.0993 11.8222 11.6506 12.129 11.14 12.3492C10.6294 12.5695 10.0828 12.6796 9.49997 12.6796ZM9.49997 11.484C10.0621 11.484 10.5727 11.345 11.0317 11.0671C11.4959 10.7892 11.8646 10.4169 12.138 9.95018C12.4113 9.47824 12.548 8.95385 12.548 8.37703C12.548 7.80545 12.4113 7.28631 12.138 6.81961C11.8646 6.34767 11.4959 5.97273 11.0317 5.69481C10.5727 5.41164 10.0621 5.27006 9.49997 5.27006C8.93781 5.27006 8.42465 5.41164 7.96048 5.69481C7.50147 5.97273 7.13271 6.34767 6.85421 6.81961C6.58087 7.28631 6.4442 7.80545 6.4442 8.37703C6.4442 8.95385 6.58087 9.47824 6.85421 9.95018C7.13271 10.4169 7.50147 10.7892 7.96048 11.0671C8.42465 11.345 8.93781 11.484 9.49997 11.484ZM14.2345 5.48243C14.2345 5.215 14.3325 4.98165 14.5285 4.78238C14.7297 4.57787 14.9669 4.47562 15.2402 4.47562C15.5033 4.47562 15.7328 4.57787 15.9288 4.78238C16.1299 4.98165 16.2305 5.215 16.2305 5.48243C16.2305 5.7656 16.1299 6.00419 15.9288 6.19822C15.7328 6.39224 15.5033 6.48925 15.2402 6.48925C14.9669 6.49449 14.7297 6.4001 14.5285 6.20608C14.3325 6.00682 14.2345 5.7656 14.2345 5.48243Z"
		fill="currentColor"
	/>
</svg>
