<svg color="rgb(var(--foreground, 0, 0, 0))" viewBox="0 0 19 15" fill="none">
	<path
		d="M2.42915 15H16.5708C17.3754 15 17.9814 14.7955 18.3888 14.3865C18.7963 13.9827 19 13.3744 19 12.5616V4.32617C19 3.51862 18.7963 2.91295 18.3888 2.50918C17.9814 2.10016 17.3754 1.89565 16.5708 1.89565H14.3583C14.152 1.89565 13.987 1.87992 13.8632 1.84845C13.7394 1.81699 13.6285 1.76455 13.5305 1.69114C13.4377 1.61248 13.332 1.5076 13.2134 1.37651L12.5945 0.668589C12.4036 0.453592 12.1922 0.288411 11.9601 0.173047C11.728 0.0576822 11.4134 0 11.0163 0H7.92956C7.53244 0 7.21783 0.0576822 6.98575 0.173047C6.75882 0.288411 6.54737 0.453592 6.35138 0.668589L5.73249 1.37651C5.5623 1.57053 5.40499 1.70687 5.26059 1.78553C5.11618 1.85894 4.89183 1.89565 4.58754 1.89565H2.42915C1.61944 1.89565 1.01086 2.10016 0.60342 2.50918C0.20114 2.91295 0 3.51862 0 4.32617V12.5616C0 13.3744 0.20114 13.9827 0.60342 14.3865C1.01086 14.7955 1.61944 15 2.42915 15ZM2.44463 13.7336C2.06297 13.7336 1.76642 13.6314 1.55497 13.4268C1.34867 13.2171 1.24552 12.9077 1.24552 12.4987V4.39696C1.24552 3.98794 1.34867 3.68117 1.55497 3.47666C1.76642 3.26691 2.06297 3.16203 2.44463 3.16203H4.89699C5.24769 3.16203 5.52877 3.12271 5.74023 3.04405C5.95684 2.96015 6.16314 2.80808 6.35912 2.58783L6.96254 1.89565C7.18431 1.64394 7.38029 1.47614 7.55049 1.39224C7.72068 1.30834 7.97598 1.26639 8.31637 1.26639H10.6295C10.9699 1.26639 11.2252 1.30834 11.3954 1.39224C11.5656 1.47614 11.7615 1.64394 11.9833 1.89565L12.5867 2.58783C12.7827 2.80808 12.9864 2.96015 13.1979 3.04405C13.4145 3.12271 13.6982 3.16203 14.0489 3.16203H16.5476C16.9293 3.16203 17.2258 3.26691 17.4373 3.47666C17.6488 3.68117 17.7545 3.98794 17.7545 4.39696V12.4987C17.7545 12.9077 17.6488 13.2171 17.4373 13.4268C17.2258 13.6314 16.9293 13.7336 16.5476 13.7336H2.44463ZM9.5 12.6009C10.0828 12.6009 10.6295 12.4908 11.1401 12.2706C11.6507 12.0503 12.0993 11.7436 12.4862 11.3503C12.873 10.957 13.1747 10.5008 13.3913 9.98165C13.6079 9.46251 13.7162 8.90142 13.7162 8.29837C13.7162 7.50131 13.528 6.77766 13.1515 6.12743C12.775 5.47719 12.267 4.96067 11.6274 4.57787C10.9879 4.19507 10.2788 4.00367 9.5 4.00367C8.91205 4.00367 8.36279 4.11379 7.8522 4.33403C7.34161 4.55427 6.89292 4.86104 6.50611 5.25433C6.12446 5.64761 5.82275 6.10383 5.60098 6.62297C5.38436 7.14211 5.27606 7.70058 5.27606 8.29837C5.27606 8.90142 5.38436 9.46251 5.60098 9.98165C5.82275 10.5008 6.12446 10.957 6.50611 11.3503C6.89292 11.7436 7.34161 12.0503 7.8522 12.2706C8.36279 12.4908 8.91205 12.6009 9.5 12.6009ZM9.5 11.4053C8.93784 11.4053 8.42467 11.2664 7.9605 10.9885C7.50149 10.7105 7.13274 10.3382 6.85423 9.87153C6.58089 9.39958 6.44422 8.8752 6.44422 8.29837C6.44422 7.7268 6.58089 7.20766 6.85423 6.74095C7.13274 6.26901 7.50149 5.89407 7.9605 5.61615C8.42467 5.33298 8.93784 5.1914 9.5 5.1914C10.0622 5.1914 10.5727 5.33298 11.0318 5.61615C11.4959 5.89407 11.8647 6.26901 12.138 6.74095C12.4114 7.20766 12.548 7.7268 12.548 8.29837C12.548 8.8752 12.4114 9.39958 12.138 9.87153C11.8647 10.3382 11.4959 10.7105 11.0318 10.9885C10.5727 11.2664 10.0622 11.4053 9.5 11.4053ZM14.0334 5.40378C14.0334 5.6817 14.1288 5.91505 14.3196 6.10383C14.5105 6.28736 14.74 6.37913 15.0081 6.37913C15.266 6.37913 15.4904 6.28474 15.6812 6.09596C15.872 5.90718 15.9674 5.67646 15.9674 5.40378C15.9674 5.14158 15.872 4.91348 15.6812 4.71945C15.4904 4.52543 15.266 4.42842 15.0081 4.42842C14.74 4.42842 14.5105 4.52543 14.3196 4.71945C14.1288 4.91348 14.0334 5.14158 14.0334 5.40378Z"
		fill="currentColor"
	/>
</svg>
