<svg color="rgb(var(--foreground, 0, 0, 0))" viewBox="0 0 19 15" fill="none">
	<path
		d="M2.42915 15H16.5708C17.3754 15 17.9814 14.7955 18.3888 14.3865C18.7963 13.9827 19 13.3744 19 12.5616V4.32617C19 3.51862 18.7963 2.91295 18.3888 2.50918C17.9814 2.10016 17.3754 1.89565 16.5708 1.89565H14.3583C14.152 1.89565 13.987 1.87992 13.8632 1.84845C13.7394 1.81699 13.6285 1.76455 13.5305 1.69114C13.4377 1.61248 13.332 1.5076 13.2134 1.37651L12.5945 0.668589C12.4036 0.453592 12.1922 0.288411 11.9601 0.173047C11.728 0.0576822 11.4134 0 11.0163 0H7.92956C7.53244 0 7.21783 0.0576822 6.98575 0.173047C6.75882 0.288411 6.54737 0.453592 6.35138 0.668589L5.73249 1.37651C5.5623 1.57053 5.40499 1.70687 5.26059 1.78553C5.11618 1.85894 4.89183 1.89565 4.58754 1.89565H2.42915C1.61944 1.89565 1.01086 2.10016 0.60342 2.50918C0.20114 2.91295 0 3.51862 0 4.32617V12.5616C0 13.3744 0.20114 13.9827 0.60342 14.3865C1.01086 14.7955 1.61944 15 2.42915 15ZM4.13111 8.0624L5.36889 6.29261C5.4772 6.13529 5.60871 6.05926 5.76344 6.0645C5.91816 6.06974 6.0471 6.14578 6.15024 6.29261L7.4035 8.0624C7.50665 8.20399 7.53759 8.34557 7.49634 8.48715C7.45508 8.62349 7.34419 8.69166 7.16368 8.69166H6.35138C6.46485 9.15836 6.67372 9.57787 6.97801 9.95018C7.2823 10.3173 7.65106 10.6083 8.08428 10.8233C8.52267 11.0383 8.99973 11.1458 9.51547 11.1458C9.88681 11.1458 10.2195 11.0881 10.5134 10.9727C10.8126 10.8521 11.1014 10.6791 11.3799 10.4536C11.5295 10.3382 11.6868 10.2779 11.8518 10.2727C12.022 10.2622 12.1741 10.3304 12.3082 10.4772C12.4423 10.624 12.4887 10.7918 12.4475 10.9806C12.4114 11.1641 12.3005 11.3293 12.1148 11.4761C11.7796 11.7593 11.3825 11.9822 10.9235 12.1447C10.4644 12.302 9.99511 12.3807 9.51547 12.3807C8.77796 12.3807 8.10491 12.226 7.49634 11.9166C6.88776 11.6072 6.38233 11.1746 5.98005 10.6188C5.57777 10.0629 5.31474 9.42056 5.19096 8.69166H4.37093C4.19042 8.69166 4.07953 8.62349 4.03827 8.48715C4.00217 8.34557 4.03312 8.20399 4.13111 8.0624ZM6.69951 5.47457C6.56542 5.33298 6.51642 5.17042 6.55252 4.98689C6.59378 4.79811 6.70725 4.63031 6.89292 4.48348C7.22815 4.20031 7.62527 3.97745 8.08428 3.81489C8.5433 3.65233 9.0152 3.57105 9.5 3.57105C10.2324 3.57105 10.9028 3.72837 11.5114 4.043C12.12 4.35239 12.6254 4.785 13.0277 5.34085C13.43 5.89145 13.693 6.5312 13.8168 7.26009H14.5904C14.7761 7.26009 14.8869 7.33089 14.923 7.47247C14.9591 7.60881 14.9282 7.74777 14.8302 7.88936L13.5924 9.66702C13.4841 9.82433 13.3526 9.90037 13.1979 9.89512C13.0432 9.88988 12.9142 9.81384 12.8111 9.66702L11.5578 7.88936C11.4547 7.74777 11.4237 7.60881 11.465 7.47247C11.5062 7.33089 11.6171 7.26009 11.7976 7.26009H12.6564C12.5429 6.79339 12.334 6.37651 12.0297 6.00944C11.7254 5.63713 11.3541 5.34609 10.9157 5.13634C10.4825 4.92134 10.0106 4.81384 9.5 4.81384C9.12351 4.81384 8.78569 4.87153 8.48656 4.98689C8.19259 5.10225 7.90635 5.27268 7.62785 5.49816C7.47828 5.61353 7.32098 5.67646 7.15594 5.68694C6.99091 5.69743 6.83876 5.62664 6.69951 5.47457Z"
		fill="currentColor"
	/>
</svg>
