<svg color="rgb(var(--foreground, 0, 0, 0))" viewBox="0 0 19 15" fill="none">
	<path
		d="M4.29358 8.0624C4.20075 8.20399 4.17238 8.34033 4.20848 8.47142C4.24458 8.60252 4.35031 8.66807 4.52567 8.66807H5.31476C5.43854 9.37598 5.69641 10 6.08837 10.5401C6.48034 11.075 6.9703 11.4945 7.55825 11.7986C8.15136 12.0975 8.80371 12.247 9.51544 12.247C9.97961 12.247 10.4335 12.1683 10.877 12.011C11.3257 11.8537 11.7151 11.6387 12.0452 11.366C12.2205 11.2244 12.3263 11.0645 12.3624 10.8862C12.4036 10.7027 12.3572 10.5401 12.2231 10.3985C12.0942 10.2569 11.9498 10.1914 11.7899 10.2019C11.63 10.2124 11.4753 10.2727 11.3257 10.3828C11.0524 10.5978 10.7713 10.763 10.4825 10.8783C10.1988 10.9937 9.87646 11.0514 9.51544 11.0514C9.01517 11.0514 8.55364 10.9465 8.13073 10.7368C7.70781 10.527 7.34679 10.2438 7.04766 9.88726C6.75369 9.53068 6.54997 9.12428 6.4365 8.66807H7.23333C7.40868 8.66807 7.51699 8.60252 7.55825 8.47142C7.59951 8.33508 7.57114 8.19874 7.47315 8.0624L6.25083 6.34767C6.15284 6.20608 6.02906 6.13267 5.8795 6.12743C5.72993 6.12218 5.601 6.1956 5.49269 6.34767L4.29358 8.0624ZM6.79237 5.55323C6.9213 5.69481 7.06571 5.76298 7.22559 5.75773C7.38547 5.74725 7.53762 5.68432 7.68203 5.56896C7.95021 5.34872 8.22872 5.18353 8.51754 5.07341C8.80635 4.96329 9.13379 4.90823 9.49997 4.90823C9.99509 4.90823 10.4541 5.01311 10.877 5.22286C11.2999 5.42737 11.6584 5.71054 11.9523 6.07236C12.2515 6.42895 12.4578 6.83272 12.5712 7.28369H11.728C11.5578 7.28369 11.4521 7.35186 11.4108 7.4882C11.3695 7.6193 11.3979 7.75302 11.4959 7.88936L12.7105 9.61196C12.8136 9.75354 12.94 9.82695 13.0896 9.8322C13.2391 9.83744 13.3681 9.76403 13.4764 9.61196L14.6755 7.88936C14.7683 7.75302 14.7941 7.6193 14.7528 7.4882C14.7167 7.35186 14.6136 7.28369 14.4434 7.28369H13.693C13.5692 6.58102 13.3113 5.96224 12.9194 5.42737C12.5274 4.88726 12.0374 4.46513 11.4495 4.16099C10.8615 3.85684 10.2117 3.70477 9.49997 3.70477C9.03064 3.70477 8.57169 3.78343 8.12299 3.94074C7.67945 4.09806 7.29522 4.31568 6.9703 4.5936C6.79495 4.73519 6.68664 4.89512 6.64538 5.07341C6.60928 5.2517 6.65827 5.41164 6.79237 5.55323ZM2.42916 15H16.5708C17.3754 15 17.9814 14.7955 18.3888 14.3865C18.7963 13.9827 19 13.3744 19 12.5616V4.32617C19 3.51862 18.7963 2.91295 18.3888 2.50918C17.9814 2.10016 17.3754 1.89565 16.5708 1.89565H14.3583C14.152 1.89565 13.987 1.87992 13.8632 1.84845C13.7394 1.81699 13.6285 1.76455 13.5305 1.69114C13.4377 1.61248 13.332 1.5076 13.2133 1.37651L12.5944 0.668589C12.4036 0.453592 12.1922 0.288411 11.9601 0.173047C11.728 0.0576822 11.4134 0 11.0163 0H7.92959C7.53246 0 7.21786 0.0576822 6.98577 0.173047C6.75884 0.288411 6.54739 0.453592 6.3514 0.668589L5.73251 1.37651C5.56231 1.57053 5.40501 1.70687 5.2606 1.78553C5.11619 1.85894 4.89184 1.89565 4.58756 1.89565H2.42916C1.61944 1.89565 1.01086 2.10016 0.603422 2.50918C0.201141 2.91295 0 3.51862 0 4.32617V12.5616C0 13.3744 0.201141 13.9827 0.603422 14.3865C1.01086 14.7955 1.61944 15 2.42916 15ZM2.44463 13.7336C2.06298 13.7336 1.76643 13.6314 1.55497 13.4268C1.34867 13.2171 1.24553 12.9077 1.24553 12.4987V4.39696C1.24553 3.98794 1.34867 3.68117 1.55497 3.47666C1.76643 3.26691 2.06298 3.16203 2.44463 3.16203H4.897C5.24771 3.16203 5.52879 3.12271 5.74025 3.04405C5.95686 2.96015 6.16316 2.80808 6.35914 2.58783L6.96256 1.89565C7.18433 1.64394 7.38032 1.47614 7.55051 1.39224C7.72071 1.30834 7.976 1.26639 8.31639 1.26639H10.6295C10.9698 1.26639 11.2251 1.30834 11.3953 1.39224C11.5655 1.47614 11.7615 1.64394 11.9833 1.89565L12.5867 2.58783C12.7827 2.80808 12.9864 2.96015 13.1979 3.04405C13.4145 3.12271 13.6981 3.16203 14.0488 3.16203H16.5476C16.9293 3.16203 17.2258 3.26691 17.4373 3.47666C17.6487 3.68117 17.7545 3.98794 17.7545 4.39696V12.4987C17.7545 12.9077 17.6487 13.2171 17.4373 13.4268C17.2258 13.6314 16.9293 13.7336 16.5476 13.7336H2.44463Z"
		fill="currentColor"
	/>
</svg>
