<svg color="rgb(var(--foreground, 0, 0, 0))" viewBox="0 0 21 17" fill="none">
	<path
		d="M4.32165 15.0348H12.8289L11.6284 13.8285H4.54573C3.88948 13.8285 3.38262 13.6581 3.02515 13.3173C2.66768 12.9764 2.48895 12.4598 2.48895 11.7675V4.76951L1.20046 3.47536C1.20046 3.65643 1.20046 3.83484 1.20046 4.01059C1.20046 4.18634 1.20046 4.36209 1.20046 4.53784V11.9512C1.20046 12.9258 1.47523 13.6847 2.02477 14.228C2.57965 14.7659 3.34527 15.0348 4.32165 15.0348ZM12.6848 1.90161H4.14558L5.34604 3.0999H12.4607C13.117 3.0999 13.6239 3.27298 13.9813 3.61915C14.3388 3.96 14.5175 4.47659 14.5175 5.16893V11.7036C14.5175 11.7994 14.5122 11.8847 14.5015 11.9592C14.4909 12.0338 14.4722 12.1083 14.4455 12.1829L15.5659 13.3013C15.726 12.9232 15.806 12.5078 15.806 12.0551V4.97721C15.806 4.00793 15.5286 3.25434 14.9737 2.71644C14.4242 2.17322 13.6612 1.90161 12.6848 1.90161ZM15.6139 6.2394V7.75723L19.4314 4.60974C19.4688 4.58311 19.5008 4.5618 19.5274 4.54583C19.5595 4.52452 19.5915 4.51387 19.6235 4.51387C19.7142 4.51387 19.7595 4.57778 19.7595 4.7056V12.2308C19.7595 12.3533 19.7142 12.4146 19.6235 12.4146C19.5915 12.4146 19.5595 12.4066 19.5274 12.3906C19.5008 12.3693 19.4688 12.348 19.4314 12.3267L15.6139 9.17919V10.697L18.8312 13.4131C18.9912 13.5463 19.1566 13.6555 19.3274 13.7407C19.4981 13.8205 19.6662 13.8605 19.8316 13.8605C20.1837 13.8605 20.4665 13.7433 20.6799 13.509C20.8933 13.2747 21 12.9711 21 12.5983V4.33812C21 3.96532 20.8933 3.66176 20.6799 3.42743C20.4665 3.1931 20.1837 3.07593 19.8316 3.07593C19.6662 3.07593 19.4981 3.11854 19.3274 3.20375C19.1566 3.28363 18.9912 3.39015 18.8312 3.52329L15.6139 6.2394ZM15.9901 16.8163C16.1128 16.9388 16.2595 17 16.4303 17C16.601 17 16.745 16.9388 16.8624 16.8163C16.9798 16.6938 17.0385 16.5473 17.0385 16.3769C17.0438 16.2118 16.9851 16.068 16.8624 15.9455L1.0564 0.176081C0.933689 0.0589157 0.786966 0.000332857 0.616235 0.000332857C0.445503 -0.00499285 0.29878 0.05359 0.176067 0.176081C0.058689 0.293247 0 0.439704 0 0.615452C0 0.785875 0.058689 0.929669 0.176067 1.04683L15.9901 16.8163Z"
		fill="currentColor"
	/>
</svg>
