<svg color="rgb(var(--foreground, 0, 0, 0))" viewBox="0 0 21 17" fill="none">
	<path
		d="M3.86272 14.9469H12.8168L1.43748 3.62714C1.39465 3.72833 1.35985 3.86147 1.33308 4.02657C1.30631 4.19167 1.29293 4.35943 1.29293 4.52985V12.3986C1.29293 13.2028 1.51778 13.8285 1.9675 14.2759C2.42256 14.7233 3.0543 14.9469 3.86272 14.9469ZM12.5679 1.97351H4.20803L14.9771 12.6862C15.0038 12.5477 15.0252 12.3933 15.0413 12.2228C15.0574 12.0471 15.0654 11.874 15.0654 11.7036V4.49789C15.0654 3.69904 14.8512 3.07859 14.4229 2.63656C13.9946 2.19453 13.3763 1.97351 12.5679 1.97351ZM16.1576 10.8168L19.0807 13.3332C19.2199 13.4504 19.3644 13.5463 19.5143 13.6208C19.6696 13.6901 19.8195 13.7247 19.9641 13.7247C20.2746 13.7247 20.5235 13.6235 20.7109 13.4211C20.9036 13.2134 21 12.9445 21 12.6143V4.30617C21 3.97598 20.9036 3.70969 20.7109 3.50731C20.5235 3.29961 20.2746 3.19576 19.9641 3.19576C19.8195 3.19576 19.6696 3.23038 19.5143 3.29961C19.3644 3.36884 19.2199 3.46471 19.0807 3.5872L16.1576 6.09561V10.8168ZM16.0451 16.8163C16.1683 16.9388 16.3155 17 16.4868 17C16.6581 17 16.8027 16.9388 16.9205 16.8163C17.0382 16.6938 17.0971 16.5473 17.0971 16.3769C17.1025 16.2118 17.0436 16.068 16.9205 15.9455L1.06004 0.176081C0.936902 0.0589157 0.789675 0.000332857 0.618356 0.000332857C0.447036 -0.00499285 0.299809 0.05359 0.176673 0.176081C0.058891 0.293247 0 0.439704 0 0.615452C0 0.785875 0.058891 0.929669 0.176673 1.04683L16.0451 16.8163Z"
		fill="currentColor"
	/>
</svg>
