<svg
	color="rgb(var(--foreground, 0, 0, 0))"
	viewBox="0 0 18 15"
	fill="none"
	xmlns="http://www.w3.org/2000/svg"
>
	<path
		d="M9.00404 7.32198C10.0494 7.32198 11.0705 7.27296 12.0674 7.17492C13.0696 7.07172 14.0611 6.90402 15.0418 6.67183C16.0278 6.43963 17.0139 6.12745 18 5.73529V5.10836C18 4.31372 17.7925 3.72291 17.3776 3.33591C16.9627 2.94376 16.3377 2.74768 15.5025 2.74768H13.1019V2.13622C13.1019 1.40867 12.9053 0.872033 12.5119 0.526316C12.1239 0.175439 11.5662 0 10.8388 0H7.1612C6.47149 0 5.92187 0.175439 5.51235 0.526316C5.10822 0.872033 4.90615 1.40867 4.90615 2.13622V2.74768H2.49753C1.66771 2.74768 1.04266 2.94376 0.622362 3.33591C0.207454 3.72291 0 4.31372 0 5.10836V5.73529C0.991468 6.12745 1.97755 6.43963 2.95824 6.67183C3.93893 6.90402 4.92771 7.07172 5.92456 7.17492C6.92681 7.27296 7.9533 7.32198 9.00404 7.32198ZM6.15896 2.74768V2.05108C6.15896 1.75697 6.24517 1.52993 6.4176 1.36997C6.59003 1.21001 6.83251 1.13003 7.14504 1.13003H10.855C11.1729 1.13003 11.4181 1.21001 11.5905 1.36997C11.7629 1.52993 11.8491 1.75697 11.8491 2.05108V2.74768H6.15896ZM2.49753 15H15.5025C16.3377 15 16.9627 14.8039 17.3776 14.4118C17.7925 14.0196 18 13.4288 18 12.6393V7.00464C17.2133 7.27812 16.4374 7.50774 15.6722 7.6935C14.9124 7.87926 14.1554 8.0289 13.401 8.14242C12.652 8.25077 11.903 8.33075 11.154 8.38235V9.00929C11.154 9.57172 10.855 9.85294 10.2568 9.85294H7.74315C7.15043 9.85294 6.85406 9.57172 6.85406 9.00929V8.38235C6.09969 8.33075 5.34531 8.25077 4.59093 8.14242C3.84194 8.0289 3.08487 7.87926 2.31971 7.6935C1.55995 7.50774 0.786709 7.27812 0 7.00464V12.6393C0 13.4288 0.207454 14.0196 0.622362 14.4118C1.04266 14.8039 1.66771 15 2.49753 15Z"
		fill="currentColor"
	/>
</svg>
