<svg
	color="rgb(var(--foreground, 0, 0, 0))"
	viewBox="0 0 18 15"
	fill="none"
	xmlns="http://www.w3.org/2000/svg"
>
	<path
		d="M2.49753 15H15.5025C16.3377 15 16.9627 14.8039 17.3776 14.4118C17.7925 14.0196 18 13.4288 18 12.6393V5.10836C18 4.31372 17.7925 3.72291 17.3776 3.33591C16.9627 2.94376 16.3377 2.74768 15.5025 2.74768H2.49753C1.66771 2.74768 1.04266 2.94376 0.622362 3.33591C0.207454 3.72291 0 4.31372 0 5.10836V12.6393C0 13.4288 0.207454 14.0196 0.622362 14.4118C1.04266 14.8039 1.66771 15 2.49753 15ZM2.5137 13.7616C2.12034 13.7616 1.81859 13.6636 1.60844 13.4675C1.40368 13.2714 1.3013 12.9747 1.3013 12.5774V5.17028C1.3013 4.77296 1.40368 4.47626 1.60844 4.28019C1.81859 4.08411 2.12034 3.98607 2.5137 3.98607H15.4863C15.885 3.98607 16.1868 4.08411 16.3916 4.28019C16.5963 4.47626 16.6987 4.77296 16.6987 5.17028V12.5774C16.6987 12.9747 16.5963 13.2714 16.3916 13.4675C16.1868 13.6636 15.885 13.7616 15.4863 13.7616H2.5137ZM0.670858 7.24458C1.92097 7.65738 3.24652 7.96698 4.64751 8.17337C6.05388 8.37977 7.50606 8.48297 9.00404 8.48297C10.502 8.48297 11.9515 8.37977 13.3525 8.17337C14.7535 7.96698 16.079 7.65738 17.3291 7.24458V5.92105C16.106 6.37513 14.7939 6.71569 13.3929 6.94272C11.9919 7.16976 10.529 7.28328 9.00404 7.28328C7.47373 7.28328 6.00808 7.16976 4.60709 6.94272C3.20611 6.71569 1.89403 6.37513 0.670858 5.92105V7.24458ZM7.74315 9.87616H10.2568C10.855 9.87616 11.154 9.59494 11.154 9.03251V7.8483H6.85406V9.03251C6.85406 9.59494 7.15043 9.87616 7.74315 9.87616ZM4.90615 3.42105H6.15896V2.05108C6.15896 1.75697 6.24517 1.52993 6.4176 1.36997C6.59003 1.21001 6.83251 1.13003 7.14504 1.13003H10.855C11.1729 1.13003 11.4181 1.21001 11.5905 1.36997C11.7629 1.52993 11.8491 1.75697 11.8491 2.05108V3.40557H13.1019V2.13622C13.1019 1.40867 12.9053 0.872033 12.5119 0.526316C12.1239 0.175439 11.5662 0 10.8388 0H7.1612C6.47149 0 5.92187 0.175439 5.51235 0.526316C5.10822 0.872033 4.90615 1.40867 4.90615 2.13622V3.42105Z"
		fill="currentColor"
	/>
</svg>
