<svg
	color="rgb(var(--foreground, 0, 0, 0))"
	viewBox="0 0 18 15"
	fill="none"
	xmlns="http://www.w3.org/2000/svg"
>
	<path
		d="M3.28907 3.37461V14.3498H4.54094V3.37461H3.28907ZM13.4513 3.37461V14.3498H14.7032V3.37461H13.4513ZM2.40266 15H15.5973C16.4008 15 17.0021 14.8039 17.4013 14.4118C17.8004 14.0196 18 13.4288 18 12.6393V5.10836C18 4.31372 17.8004 3.72291 17.4013 3.33591C17.0021 2.94376 16.4008 2.74768 15.5973 2.74768H2.40266C1.60436 2.74768 1.00305 2.94376 0.59872 3.33591C0.199573 3.72291 0 4.31372 0 5.10836V12.6393C0 13.4288 0.199573 14.0196 0.59872 14.4118C1.00305 14.8039 1.60436 15 2.40266 15ZM2.41821 13.7616C2.0398 13.7616 1.74951 13.6636 1.54734 13.4675C1.35036 13.2714 1.25187 12.9747 1.25187 12.5774V5.17028C1.25187 4.77296 1.35036 4.47626 1.54734 4.28019C1.74951 4.08411 2.0398 3.98607 2.41821 3.98607H15.5818C15.9602 3.98607 16.2479 4.08411 16.4449 4.28019C16.647 4.47626 16.7481 4.77296 16.7481 5.17028V12.5774C16.7481 12.9747 16.647 13.2714 16.4449 13.4675C16.2479 13.6636 15.9602 13.7616 15.5818 13.7616H2.41821ZM5.05413 3.42105H6.25935V2.05108C6.25935 1.75697 6.34229 1.52993 6.50817 1.36997C6.67405 1.21001 6.90991 1.13003 7.21575 1.13003H10.7843C11.0849 1.13003 11.3182 1.21001 11.4841 1.36997C11.6499 1.52993 11.7329 1.75697 11.7329 2.05108V3.40557H12.9381V2.13622C12.9381 1.40867 12.7515 0.872033 12.3783 0.526316C12.005 0.175439 11.4659 0 10.7609 0H7.2313C6.56778 0 6.03904 0.175439 5.64508 0.526316C5.25111 0.872033 5.05413 1.40867 5.05413 2.13622V3.42105Z"
		fill="currentColor"
	/>
</svg>
