<svg
	color="rgb(var(--foreground, 0, 0, 0))"
	viewBox="0 0 19 19"
	fill="none"
	xmlns="http://www.w3.org/2000/svg"
>
	<path
		d="M0.627651 14.5787H14.56C15.2883 14.5787 15.823 14.4137 16.1639 14.0838C16.5101 13.7487 16.6831 13.2284 16.6831 12.5228V4.95431C16.6831 4.30964 17.006 3.98731 17.6517 3.98731H18.3801C18.5454 3.98731 18.6901 3.9264 18.814 3.80457C18.938 3.68274 19 3.53807 19 3.37056C19 3.20812 18.938 3.06599 18.814 2.94416C18.6901 2.82234 18.5454 2.76142 18.3801 2.76142H17.5587C16.8303 2.76142 16.2931 2.92893 15.947 3.26396C15.606 3.59391 15.4356 4.11168 15.4356 4.81726V12.3858C15.4356 13.0305 15.1127 13.3528 14.467 13.3528H0.627651C0.457178 13.3528 0.309951 13.4112 0.185971 13.5279C0.0619902 13.6447 0 13.7893 0 13.9619C0 14.1345 0.0619902 14.2817 0.185971 14.4036C0.309951 14.5203 0.457178 14.5787 0.627651 14.5787ZM3.37072 18.5C3.62901 18.5 3.86664 18.434 4.08361 18.302C4.30057 18.1751 4.47363 18.0051 4.60277 17.7919C4.73709 17.5787 4.80424 17.3452 4.80424 17.0914C4.80424 16.8325 4.73709 16.5939 4.60277 16.3756C4.47363 16.1624 4.30057 15.9898 4.08361 15.8579C3.86664 15.731 3.62901 15.6675 3.37072 15.6675C3.10726 15.6675 2.86705 15.731 2.65008 15.8579C2.43312 15.9898 2.25748 16.1624 2.12316 16.3756C1.99402 16.5939 1.92945 16.8325 1.92945 17.0914C1.92945 17.3452 1.99402 17.5787 2.12316 17.7919C2.25748 18.0051 2.43312 18.1751 2.65008 18.302C2.86705 18.434 3.10726 18.5 3.37072 18.5ZM11.6774 18.5C11.9357 18.5 12.1733 18.434 12.3903 18.302C12.6124 18.1751 12.7881 18.0051 12.9172 17.7919C13.0464 17.5787 13.1109 17.3452 13.1109 17.0914C13.1109 16.8325 13.0464 16.5939 12.9172 16.3756C12.7881 16.1624 12.6124 15.9898 12.3903 15.8579C12.1733 15.731 11.9357 15.6675 11.6774 15.6675C11.4191 15.6675 11.1789 15.731 10.9568 15.8579C10.7398 15.9898 10.5667 16.1624 10.4376 16.3756C10.3085 16.5939 10.2439 16.8325 10.2439 17.0914C10.2439 17.3452 10.3085 17.5787 10.4376 17.7919C10.5667 18.0051 10.7398 18.1751 10.9568 18.302C11.1789 18.434 11.4191 18.5 11.6774 18.5ZM0.00774878 10.5051C0.00774878 11.5964 0.596656 12.1421 1.77447 12.1421H12.3516C13.5345 12.1421 14.126 11.5964 14.126 10.5051V4.32234C14.126 3.23096 13.5345 2.68528 12.3516 2.68528H1.77447C0.596656 2.68528 0.00774878 3.23096 0.00774878 4.32234V10.5051ZM2.30914 12.1421V2.68528H3.27773V12.1421H2.30914ZM10.8483 12.1421V2.68528H11.8169V12.1421H10.8483ZM3.87439 3.30964H4.96697V2.16751C4.96697 1.73604 5.19426 1.5203 5.64886 1.5203H8.47716C8.93692 1.5203 9.1668 1.73604 9.1668 2.16751V3.29442H10.2594V2.23604C10.2594 1.07868 9.65756 0.5 8.45392 0.5H5.6721C5.08836 0.5 4.64152 0.649746 4.33157 0.949239C4.02678 1.24365 3.87439 1.67259 3.87439 2.23604V3.30964Z"
		fill="currentColor"
	/>
</svg>
