<svg
	color="rgb(var(--foreground, 0, 0, 0))"
	viewBox="0 0 19 19"
	fill="none"
	xmlns="http://www.w3.org/2000/svg"
>
	<path
		d="M0.627667 14.5787H14.5598C15.2882 14.5787 15.8229 14.4137 16.1639 14.0838C16.51 13.7487 16.6831 13.2284 16.6831 12.5228V4.95431C16.6831 4.30964 17.0059 3.98731 17.6517 3.98731H18.3801C18.5454 3.98731 18.69 3.9264 18.814 3.80457C18.938 3.68274 19 3.53807 19 3.37056C19 3.20812 18.938 3.06599 18.814 2.94416C18.69 2.82234 18.5454 2.76142 18.3801 2.76142H17.5587C16.8303 2.76142 16.293 2.92893 15.9469 3.26396C15.6059 3.59391 15.4355 4.11168 15.4355 4.81726V12.3858C15.4355 13.0305 15.1126 13.3528 14.4669 13.3528H0.627667C0.457189 13.3528 0.309959 13.4112 0.185975 13.5279C0.0619918 13.6447 0 13.7893 0 13.9619C0 14.1345 0.0619918 14.2817 0.185975 14.4036C0.309959 14.5203 0.457189 14.5787 0.627667 14.5787ZM3.3708 18.5C3.6291 18.5 3.86674 18.434 4.08371 18.302C4.30068 18.1751 4.47374 18.0051 4.60289 17.7919C4.73721 17.5787 4.80436 17.3452 4.80436 17.0914C4.80436 16.8325 4.73721 16.5939 4.60289 16.3756C4.47374 16.1624 4.30068 15.9898 4.08371 15.8579C3.86674 15.731 3.6291 15.6675 3.3708 15.6675C3.10734 15.6675 2.86712 15.731 2.65015 15.8579C2.43318 15.9898 2.25753 16.1624 2.12322 16.3756C1.99407 16.5939 1.92949 16.8325 1.92949 17.0914C1.92949 17.3452 1.99407 17.5787 2.12322 17.7919C2.25753 18.0051 2.43318 18.1751 2.65015 18.302C2.86712 18.434 3.10734 18.5 3.3708 18.5ZM11.6772 18.5C11.9355 18.5 12.1732 18.434 12.3901 18.302C12.6123 18.1751 12.7879 18.0051 12.9171 17.7919C13.0462 17.5787 13.1108 17.3452 13.1108 17.0914C13.1108 16.8325 13.0462 16.5939 12.9171 16.3756C12.7879 16.1624 12.6123 15.9898 12.3901 15.8579C12.1732 15.731 11.9355 15.6675 11.6772 15.6675C11.4189 15.6675 11.1787 15.731 10.9566 15.8579C10.7396 15.9898 10.5665 16.1624 10.4374 16.3756C10.3082 16.5939 10.2437 16.8325 10.2437 17.0914C10.2437 17.3452 10.3082 17.5787 10.4374 17.7919C10.5665 18.0051 10.7396 18.1751 10.9566 18.302C11.1787 18.434 11.4189 18.5 11.6772 18.5ZM1.77452 12.1421H12.3514C12.9145 12.1421 13.351 12 13.661 11.7157C13.9709 11.4315 14.1259 11.0279 14.1259 10.5051V4.32234C14.1259 3.80457 13.9709 3.40355 13.661 3.11929C13.351 2.82995 12.9145 2.68528 12.3514 2.68528H1.77452C1.21142 2.68528 0.774897 2.82995 0.464938 3.11929C0.160145 3.40355 0.00774897 3.80457 0.00774897 4.32234V10.5051C0.00774897 11.0279 0.160145 11.4315 0.464938 11.7157C0.774897 12 1.21142 12.1421 1.77452 12.1421ZM1.78226 11.0381C1.35349 11.0381 1.1391 10.8452 1.1391 10.4594V4.36802C1.1391 3.98731 1.35349 3.79695 1.78226 3.79695H12.3436C12.7776 3.79695 12.9945 3.98731 12.9945 4.36802V10.4594C12.9945 10.8452 12.7776 11.0381 12.3436 11.0381H1.78226ZM2.54166 11.6777H3.66526V3.5H2.54166V11.6777ZM10.4606 11.6777H11.5842V3.19543H10.4606V11.6777ZM3.87449 3.34772H4.96709V2.16751C4.96709 1.73604 5.1944 1.5203 5.649 1.5203H8.47689C8.93667 1.5203 9.16655 1.73604 9.16655 2.16751V3.33249H10.2592V2.23604C10.2592 1.07868 9.65732 0.5 8.45365 0.5H5.67225C5.08849 0.5 4.64164 0.649746 4.33168 0.949239C4.02688 1.24365 3.87449 1.67259 3.87449 2.23604V3.34772Z"
		fill="currentColor"
	/>
</svg>
