<svg
	color="rgb(var(--foreground, 0, 0, 0))"
	viewBox="0 0 23 17"
	fill="none"
	xmlns="http://www.w3.org/2000/svg"
>
	<path
		d="M4.67511 16.5H18.3172C18.6391 16.5 18.8818 16.4137 19.0453 16.2412C19.2139 16.0739 19.3085 15.8648 19.3289 15.6138C19.3493 15.3681 19.2982 15.1198 19.1756 14.8688L15.3359 6.98748L21.7124 16.1079C21.8095 16.2491 21.9142 16.3458 22.0267 16.3981C22.1391 16.4503 22.2515 16.4765 22.3639 16.4765C22.5274 16.4765 22.673 16.4242 22.8007 16.3196C22.9336 16.2151 23 16.0478 23 15.8177V13.4729C23 13.3265 22.9489 13.2011 22.8467 13.0965C22.7445 12.9919 22.6219 12.9397 22.4788 12.9397C22.3409 12.9397 22.2208 12.9919 22.1186 13.0965C22.0164 13.2011 21.9653 13.3265 21.9653 13.4729V14.6728L12.4235 1.03529C12.26 0.794797 12.0633 0.63534 11.8334 0.556919C11.6086 0.478497 11.3838 0.481111 11.1589 0.564761C10.9341 0.643182 10.7374 0.800025 10.5688 1.03529L1.03466 14.6728V13.4729C1.03466 13.3265 0.983561 13.2011 0.881373 13.0965C0.779185 12.9919 0.659114 12.9397 0.52116 12.9397C0.378096 12.9397 0.25547 12.9919 0.153282 13.0965C0.0510941 13.2011 0 13.3265 0 13.4729V15.8177C0 16.0478 0.0638676 16.2151 0.191603 16.3196C0.324447 16.4242 0.47262 16.4765 0.636121 16.4765C0.748528 16.4765 0.860935 16.4503 0.973342 16.3981C1.08575 16.3458 1.19049 16.2491 1.28757 16.1079L7.66411 6.98748L3.82439 14.8688C3.70177 15.1198 3.65067 15.3681 3.67111 15.6138C3.69155 15.8648 3.78352 16.0739 3.94702 16.2412C4.11563 16.4137 4.35833 16.5 4.67511 16.5ZM7.63346 15.3002L11.0057 8.04617C11.0619 7.93115 11.1334 7.8475 11.2203 7.79522C11.3071 7.73771 11.3991 7.70895 11.4962 7.70895C11.5932 7.70895 11.6852 7.73771 11.7721 7.79522C11.8589 7.8475 11.9279 7.93115 11.979 8.04617L15.3589 15.3002H12.7301L11.4962 9.74791L10.2546 15.3002H7.63346Z"
		fill="currentColor"
	/>
</svg>
