<svg
	color="rgb(var(--foreground, 0, 0, 0))"
	viewBox="0 0 18 15"
	fill="none"
	xmlns="http://www.w3.org/2000/svg"
>
	<path
		d="M1.08855 8.46749H16.9114V7.29876H1.08855V8.46749ZM4.15205 9.52786H6.08035C6.35508 9.52786 6.5676 9.45562 6.71793 9.31114C6.86825 9.16151 6.94341 8.95253 6.94341 8.68421V7.09752C6.94341 6.82405 6.86825 6.61507 6.71793 6.47059C6.5676 6.32095 6.35508 6.24613 6.08035 6.24613H4.15205C3.87732 6.24613 3.66479 6.32095 3.51447 6.47059C3.36933 6.61507 3.29676 6.82405 3.29676 7.09752V8.68421C3.29676 8.95253 3.36933 9.16151 3.51447 9.31114C3.66479 9.45562 3.87732 9.52786 4.15205 9.52786ZM11.9119 9.52786H13.8402C14.1149 9.52786 14.3274 9.45562 14.4778 9.31114C14.6281 9.16151 14.7032 8.95253 14.7032 8.68421V7.09752C14.7032 6.82405 14.6281 6.61507 14.4778 6.47059C14.3274 6.32095 14.1149 6.24613 13.8402 6.24613H11.9119C11.6371 6.24613 11.4246 6.32095 11.2743 6.47059C11.124 6.61507 11.0488 6.82405 11.0488 7.09752V8.68421C11.0488 8.95253 11.124 9.16151 11.2743 9.31114C11.4246 9.45562 11.6371 9.52786 11.9119 9.52786ZM2.40259 15H15.5974C16.4009 15 17.0022 14.8039 17.4013 14.4118C17.8004 14.0196 18 13.4288 18 12.6393V5.10836C18 4.31372 17.8004 3.72291 17.4013 3.33591C17.0022 2.94376 16.4009 2.74768 15.5974 2.74768H2.40259C1.60432 2.74768 1.00302 2.94376 0.598704 3.33591C0.199568 3.72291 0 4.31372 0 5.10836V12.6393C0 13.4288 0.199568 14.0196 0.598704 14.4118C1.00302 14.8039 1.60432 15 2.40259 15ZM2.41814 13.7616C2.03974 13.7616 1.74946 13.6636 1.5473 13.4675C1.35032 13.2714 1.25184 12.9747 1.25184 12.5774V5.17028C1.25184 4.77296 1.35032 4.47626 1.5473 4.28019C1.74946 4.08411 2.03974 3.98607 2.41814 3.98607H15.5819C15.9603 3.98607 16.2479 4.08411 16.4449 4.28019C16.6471 4.47626 16.7482 4.77296 16.7482 5.17028V12.5774C16.7482 12.9747 16.6471 13.2714 16.4449 13.4675C16.2479 13.6636 15.9603 13.7616 15.5819 13.7616H2.41814ZM5.054 3.42105H6.25918V2.05108C6.25918 1.75697 6.34212 1.52993 6.50799 1.36997C6.67387 1.21001 6.90972 1.13003 7.21555 1.13003H10.7844C11.0851 1.13003 11.3184 1.21001 11.4842 1.36997C11.6501 1.52993 11.733 1.75697 11.733 2.05108V3.40557H12.9382V2.13622C12.9382 1.40867 12.7516 0.872033 12.3784 0.526316C12.0052 0.175439 11.4661 0 10.7611 0H7.2311C6.5676 0 6.03888 0.175439 5.64492 0.526316C5.25097 0.872033 5.054 1.40867 5.054 2.13622V3.42105Z"
		fill="currentColor"
	/>
</svg>
