<svg
	color="rgb(var(--foreground, 0, 0, 0))"
	viewBox="0 0 11 17"
	fill="none"
	xmlns="http://www.w3.org/2000/svg"
>
	<path
		d="M0 8.35635C0 9.39923 0.204985 10.3251 0.614955 11.1338C1.03005 11.9426 1.60657 12.5917 2.34451 13.0812C3.08246 13.5654 3.94083 13.8501 4.91964 13.9352V15.7948H2.06778C1.9038 15.7948 1.76543 15.8534 1.65269 15.9704C1.53995 16.0875 1.48358 16.2311 1.48358 16.4014C1.48358 16.5664 1.53995 16.7074 1.65269 16.8244C1.76543 16.9415 1.9038 17 2.06778 17H8.93221C9.0962 17 9.23457 16.9415 9.34731 16.8244C9.46005 16.7074 9.51642 16.5664 9.51642 16.4014C9.51642 16.2311 9.46005 16.0875 9.34731 15.9704C9.23457 15.8534 9.0962 15.7948 8.93221 15.7948H6.08036V13.9352C7.05917 13.8501 7.91754 13.5654 8.65549 13.0812C9.39343 12.5917 9.96739 11.9426 10.3774 11.1338C10.7925 10.3251 11 9.39923 11 8.35635V6.73615C11 6.57121 10.9436 6.43021 10.8309 6.31315C10.7181 6.19609 10.5823 6.13756 10.4235 6.13756C10.2595 6.13756 10.1211 6.19609 10.0084 6.31315C9.89564 6.43021 9.83927 6.57121 9.83927 6.73615V8.30846C9.83927 9.213 9.65991 10.0058 9.30119 10.6869C8.94246 11.3679 8.43769 11.8974 7.78686 12.2751C7.14116 12.6476 6.38015 12.8338 5.50384 12.8338C4.62753 12.8338 3.86396 12.6476 3.21314 12.2751C2.56231 11.8974 2.05754 11.3679 1.69881 10.6869C1.34009 10.0058 1.16073 9.213 1.16073 8.30846V6.73615C1.16073 6.57121 1.10436 6.43021 0.991614 6.31315C0.878873 6.19609 0.740508 6.13756 0.57652 6.13756C0.417657 6.13756 0.281854 6.19609 0.169113 6.31315C0.0563708 6.43021 0 6.57121 0 6.73615V8.35635ZM5.50384 11.1179C6.01118 11.1179 6.45702 10.9955 6.84137 10.7507C7.23084 10.506 7.53063 10.1681 7.74074 9.7371C7.95598 9.3008 8.06359 8.79798 8.06359 8.22865V2.8892C8.06359 2.31987 7.95598 1.81972 7.74074 1.38873C7.53063 0.952425 7.23084 0.611894 6.84137 0.367136C6.45702 0.122379 6.01118 0 5.50384 0C4.99138 0 4.54298 0.122379 4.15863 0.367136C3.77428 0.611894 3.47449 0.952425 3.25926 1.38873C3.04403 1.81972 2.93641 2.31987 2.93641 2.8892V8.22865C2.93641 8.79798 3.04403 9.3008 3.25926 9.7371C3.47449 10.1681 3.77428 10.506 4.15863 10.7507C4.54298 10.9955 4.99138 11.1179 5.50384 11.1179Z"
		fill="currentColor"
	/>
</svg>
