<svg
	color="rgb(var(--foreground, 0, 0, 0))"
	viewBox="0 0 13 17"
	fill="none"
	xmlns="http://www.w3.org/2000/svg"
>
	<path
		d="M0.917108 8.39674C0.917108 9.43475 1.12091 10.3562 1.52851 11.1612C1.94121 11.9662 2.5144 12.6123 3.24809 13.0995C3.98178 13.5815 4.83519 13.8648 5.80835 13.9495V15.8005H2.97296C2.80992 15.8005 2.67235 15.8587 2.56026 15.9752C2.44817 16.0917 2.39212 16.2347 2.39212 16.4042C2.39212 16.5684 2.44817 16.7087 2.56026 16.8252C2.67235 16.9417 2.80992 17 2.97296 17H9.79777C9.96081 17 10.0984 16.9417 10.2105 16.8252C10.3226 16.7087 10.3786 16.5684 10.3786 16.4042C10.3786 16.2347 10.3226 16.0917 10.2105 15.9752C10.0984 15.8587 9.96081 15.8005 9.79777 15.8005H6.96237V13.9495C7.39545 13.9178 7.80306 13.841 8.18518 13.7192C8.57241 13.5974 8.93416 13.4385 9.27043 13.2425L8.44503 12.3925C8.14952 12.5408 7.82853 12.6547 7.48207 12.7341C7.1407 12.8136 6.77641 12.8533 6.38918 12.8533C5.51793 12.8533 4.75877 12.6679 4.1117 12.2972C3.46463 11.9212 2.96277 11.3943 2.60611 10.7164C2.24946 10.0385 2.07113 9.24939 2.07113 8.34908V6.78412C2.07113 6.61994 2.01509 6.4796 1.903 6.36309C1.79091 6.24658 1.65334 6.18832 1.4903 6.18832C1.33235 6.18832 1.19733 6.24658 1.08524 6.36309C0.973153 6.4796 0.917108 6.61994 0.917108 6.78412V8.39674ZM10.4321 10.0332L11.3263 10.9626C11.6778 10.1947 11.8536 9.33942 11.8536 8.39674V6.78412C11.8536 6.61994 11.7976 6.4796 11.6855 6.36309C11.5734 6.24658 11.4384 6.18832 11.2804 6.18832C11.1174 6.18832 10.9798 6.24658 10.8677 6.36309C10.7556 6.4796 10.6996 6.61994 10.6996 6.78412V8.34908C10.6996 8.95282 10.6104 9.51419 10.4321 10.0332ZM6.38918 11.2248C6.66431 11.2248 6.9318 11.1798 7.19165 11.0897L6.02234 9.86637C5.97648 9.89285 5.91025 9.90609 5.82363 9.90609C5.59436 9.85843 5.40329 9.74721 5.25044 9.57244C5.09759 9.39768 4.99569 9.18849 4.94474 8.94487L4.9371 8.74627L3.60729 7.36403V8.11076C3.60729 8.7198 3.72448 9.25998 3.95885 9.73132C4.19322 10.1974 4.5193 10.5628 4.9371 10.8276C5.35489 11.0924 5.83892 11.2248 6.38918 11.2248ZM9.16343 3.11402C9.16343 2.50498 9.04625 1.96745 8.81188 1.5014C8.5775 1.03006 8.25142 0.661994 7.83363 0.397197C7.41583 0.132399 6.93435 0 6.38918 0C5.88477 0 5.43641 0.113863 5.04409 0.341589C4.65177 0.564019 4.33333 0.87648 4.08877 1.27897C3.84421 1.67617 3.69391 2.13956 3.63786 2.66916V2.98692L4.76132 4.14673V3.11402C4.76132 2.52617 4.90907 2.05748 5.20459 1.70794C5.50519 1.35841 5.90006 1.18364 6.38918 1.18364C6.87831 1.18364 7.27063 1.35841 7.56614 1.70794C7.86165 2.05748 8.00941 2.52617 8.00941 3.11402V7.33225C8.00941 7.36403 8.00941 7.3958 8.00941 7.42758C8.00941 7.45406 8.00686 7.48318 8.00176 7.51496L9.11758 8.67478C9.14815 8.48413 9.16343 8.29612 9.16343 8.11076V3.11402ZM11.9988 14.736C12.1109 14.8525 12.2485 14.9108 12.4115 14.9108C12.5797 14.9108 12.7198 14.8525 12.8319 14.736C12.944 14.6142 13 14.4686 13 14.2991C13 14.1296 12.944 13.9866 12.8319 13.8701L1.00882 1.58878C0.891632 1.47227 0.751519 1.41402 0.588477 1.41402C0.425436 1.41402 0.285322 1.47227 0.168136 1.58878C0.0560455 1.7053 0 1.85093 0 2.0257C0 2.20047 0.0560455 2.34346 0.168136 2.45467L11.9988 14.736Z"
		fill="currentColor"
	/>
</svg>
