<svg
	color="rgb(var(--foreground, 0, 0, 0))"
	viewBox="0 0 11 17"
	fill="none"
	xmlns="http://www.w3.org/2000/svg"
>
	<path
		d="M0 8.39674C0 9.43475 0.204985 10.3562 0.614955 11.1612C1.03005 11.9662 1.60657 12.6123 2.34451 13.0995C3.08246 13.5815 3.94083 13.8648 4.91964 13.9495V15.8005H2.06778C1.9038 15.8005 1.76543 15.8587 1.65269 15.9752C1.53995 16.0917 1.48358 16.2347 1.48358 16.4042C1.48358 16.5684 1.53995 16.7087 1.65269 16.8252C1.76543 16.9417 1.9038 17 2.06778 17H8.93221C9.0962 17 9.23457 16.9417 9.34731 16.8252C9.46005 16.7087 9.51642 16.5684 9.51642 16.4042C9.51642 16.2347 9.46005 16.0917 9.34731 15.9752C9.23457 15.8587 9.0962 15.8005 8.93221 15.8005H6.08036V13.9495C7.05917 13.8648 7.91754 13.5815 8.65549 13.0995C9.39343 12.6123 9.96739 11.9662 10.3774 11.1612C10.7925 10.3562 11 9.43475 11 8.39674V6.78412C11 6.61994 10.9436 6.4796 10.8309 6.36309C10.7181 6.24658 10.5823 6.18832 10.4235 6.18832C10.2595 6.18832 10.1211 6.24658 10.0084 6.36309C9.89564 6.4796 9.83927 6.61994 9.83927 6.78412V8.34908C9.83927 9.24939 9.65991 10.0385 9.30119 10.7164C8.94246 11.3943 8.43769 11.9212 7.78686 12.2972C7.14116 12.6679 6.38015 12.8533 5.50384 12.8533C4.62753 12.8533 3.86396 12.6679 3.21314 12.2972C2.56231 11.9212 2.05754 11.3943 1.69881 10.7164C1.34009 10.0385 1.16073 9.24939 1.16073 8.34908V6.78412C1.16073 6.61994 1.10436 6.4796 0.991614 6.36309C0.878873 6.24658 0.740508 6.18832 0.57652 6.18832C0.417657 6.18832 0.281854 6.24658 0.169113 6.36309C0.0563708 6.4796 0 6.61994 0 6.78412V8.39674ZM2.7058 8.11076C2.7058 8.7198 2.82367 9.25998 3.0594 9.73132C3.29513 10.1974 3.62311 10.5628 4.04333 10.8276C4.46355 11.0924 4.95038 11.2248 5.50384 11.2248C6.05218 11.2248 6.53645 11.0924 6.95667 10.8276C7.37689 10.5628 7.70487 10.1974 7.9406 9.73132C8.17633 9.25998 8.2942 8.7198 8.2942 8.11076V3.11402C8.2942 2.50498 8.17633 1.96745 7.9406 1.5014C7.70487 1.03006 7.37689 0.661994 6.95667 0.397197C6.53645 0.132399 6.05218 0 5.50384 0C4.95038 0 4.46355 0.132399 4.04333 0.397197C3.62311 0.661994 3.29513 1.03006 3.0594 1.5014C2.82367 1.96745 2.7058 2.50498 2.7058 3.11402V8.11076ZM3.86653 8.11076V3.11402C3.86653 2.52617 4.01514 2.05748 4.31237 1.70794C4.61472 1.35841 5.01188 1.18364 5.50384 1.18364C5.99581 1.18364 6.3904 1.35841 6.68763 1.70794C6.98486 2.05748 7.13347 2.52617 7.13347 3.11402V8.11076C7.13347 8.69861 6.98486 9.1673 6.68763 9.51684C6.3904 9.86637 5.99581 10.0411 5.50384 10.0411C5.01188 10.0411 4.61472 9.86637 4.31237 9.51684C4.01514 9.1673 3.86653 8.69861 3.86653 8.11076Z"
		fill="currentColor"
	/>
</svg>
