<svg
	color="rgb(var(--foreground, 0, 0, 0))"
	viewBox="0 0 13 17"
	fill="none"
	xmlns="http://www.w3.org/2000/svg"
>
	<path
		d="M0.917108 8.35635C0.917108 9.39923 1.12091 10.3251 1.52851 11.1338C1.94121 11.9426 2.5144 12.5917 3.24809 13.0812C3.98178 13.5654 4.83519 13.8501 5.80835 13.9352V15.7948H2.97296C2.80992 15.7948 2.67235 15.8534 2.56026 15.9704C2.44817 16.0875 2.39212 16.2311 2.39212 16.4014C2.39212 16.5664 2.44817 16.7074 2.56026 16.8244C2.67235 16.9415 2.80992 17 2.97296 17H9.79777C9.96081 17 10.0984 16.9415 10.2105 16.8244C10.3226 16.7074 10.3786 16.5664 10.3786 16.4014C10.3786 16.2311 10.3226 16.0875 10.2105 15.9704C10.0984 15.8534 9.96081 15.7948 9.79777 15.7948H6.96237V13.9352C7.39545 13.9033 7.80306 13.8288 8.18518 13.7118C8.57241 13.5894 8.93161 13.4297 9.26279 13.2329L8.44503 12.3709C8.14952 12.5199 7.82853 12.6343 7.48207 12.7141C7.1407 12.7939 6.77641 12.8338 6.38918 12.8338C5.51793 12.8338 4.75877 12.6476 4.1117 12.2751C3.46463 11.8974 2.96277 11.3679 2.60611 10.6869C2.24946 10.0058 2.07113 9.213 2.07113 8.30846V6.73615C2.07113 6.57121 2.01509 6.43021 1.903 6.31315C1.79091 6.19609 1.65334 6.13756 1.4903 6.13756C1.33235 6.13756 1.19733 6.19609 1.08524 6.31315C0.973153 6.43021 0.917108 6.57121 0.917108 6.73615V8.35635ZM10.4321 10.0005L11.3263 10.9343C11.6778 10.1628 11.8536 9.30346 11.8536 8.35635V6.73615C11.8536 6.57121 11.7976 6.43021 11.6855 6.31315C11.5734 6.19609 11.4384 6.13756 11.2804 6.13756C11.1174 6.13756 10.9798 6.19609 10.8677 6.31315C10.7556 6.43021 10.6996 6.57121 10.6996 6.73615V8.30846C10.6996 8.91504 10.6104 9.47904 10.4321 10.0005ZM6.38918 11.1179C6.65922 11.1179 6.90378 11.0753 7.12287 10.9902L3.83657 7.55823V8.22865C3.83657 8.79798 3.94356 9.3008 4.15755 9.7371C4.37155 10.1681 4.66961 10.506 5.05173 10.7507C5.43386 10.9955 5.87968 11.1179 6.38918 11.1179ZM6.38918 0C6.89359 0 7.33686 0.122379 7.71899 0.367136C8.10621 0.611894 8.40427 0.952425 8.61317 1.38873C8.82716 1.81972 8.93416 2.31987 8.93416 2.8892V8.22865C8.93416 8.26058 8.93161 8.29516 8.92651 8.33241C8.92651 8.36433 8.92142 8.3936 8.91123 8.4202L3.83657 3.12066V2.80141C3.84676 2.24804 3.95885 1.76119 4.17284 1.34085C4.39193 0.920501 4.68999 0.593271 5.06702 0.359155C5.44405 0.119718 5.88477 0 6.38918 0ZM11.9988 14.7254C12.1109 14.8424 12.2485 14.901 12.4115 14.901C12.5797 14.901 12.7198 14.8424 12.8319 14.7254C12.944 14.603 13 14.4567 13 14.2864C13 14.1161 12.944 13.9725 12.8319 13.8554L1.00882 1.51643C0.891632 1.39937 0.751519 1.34085 0.588477 1.34085C0.425436 1.34085 0.285322 1.39937 0.168136 1.51643C0.0560455 1.63349 0 1.77981 0 1.9554C0 2.13099 0.0560455 2.27465 0.168136 2.38638L11.9988 14.7254Z"
		fill="currentColor"
	/>
</svg>
