<svg
	color="rgb(var(--foreground, 0, 0, 0))"
	viewBox="0 0 16 17"
	fill="none"
	xmlns="http://www.w3.org/2000/svg"
>
	<path
		d="M1.38933 4.45514C1.76687 4.45514 2.08904 4.32305 2.35583 4.05888C2.62262 3.7947 2.75602 3.47321 2.75602 3.09439C2.75602 2.72056 2.62262 2.40156 2.35583 2.13738C2.08904 1.87321 1.76687 1.74112 1.38933 1.74112C1.00173 1.74112 0.672015 1.87321 0.400189 2.13738C0.133396 2.40156 0 2.72056 0 3.09439C0 3.47819 0.133396 3.80218 0.400189 4.06636C0.666981 4.32555 0.996697 4.45514 1.38933 4.45514ZM1.38933 8.35796C1.76687 8.35796 2.08904 8.22587 2.35583 7.96169C2.62262 7.69752 2.75602 7.37602 2.75602 6.9972C2.75602 6.6134 2.62262 6.28941 2.35583 6.02524C2.08904 5.76106 1.76687 5.62897 1.38933 5.62897C0.996697 5.62897 0.666981 5.76106 0.400189 6.02524C0.133396 6.28941 0 6.6134 0 6.9972C0 7.37602 0.133396 7.69752 0.400189 7.96169C0.666981 8.22587 0.996697 8.35796 1.38933 8.35796ZM1.38933 12.2682C1.64103 12.2682 1.87006 12.2059 2.07645 12.0813C2.28284 11.9567 2.44644 11.7922 2.56725 11.5879C2.69309 11.3785 2.75602 11.1467 2.75602 10.8925C2.75602 10.5187 2.62262 10.1997 2.35583 9.93553C2.08904 9.67135 1.76687 9.53926 1.38933 9.53926C1.13261 9.53926 0.898537 9.60157 0.687117 9.72618C0.475696 9.84581 0.307063 10.0078 0.181218 10.2122C0.0604059 10.4165 0 10.6433 0 10.8925C0 11.2813 0.133396 11.6078 0.400189 11.872C0.666981 12.1362 0.996697 12.2682 1.38933 12.2682ZM1.38933 16.1561C1.76687 16.1561 2.08904 16.024 2.35583 15.7598C2.62262 15.4956 2.75602 15.1766 2.75602 14.8028C2.75602 14.424 2.62262 14.1025 2.35583 13.8383C2.08904 13.5742 1.76687 13.4421 1.38933 13.4421C0.996697 13.4421 0.666981 13.5742 0.400189 13.8383C0.133396 14.1025 0 14.424 0 14.8028C0 15.1766 0.133396 15.4956 0.400189 15.7598C0.672015 16.024 1.00173 16.1561 1.38933 16.1561ZM5.1949 8.40282C5.1949 9.37976 5.39626 10.2471 5.79896 11.0047C6.2067 11.7623 6.77301 12.3704 7.49788 12.829C8.22275 13.2826 9.06591 13.5492 10.0274 13.629V15.371H7.22605C7.06497 15.371 6.92905 15.4259 6.81831 15.5355C6.70757 15.6452 6.65219 15.7797 6.65219 15.9393C6.65219 16.0938 6.70757 16.2259 6.81831 16.3355C6.92905 16.4452 7.06497 16.5 7.22605 16.5H13.9689C14.1299 16.5 14.2658 16.4452 14.3766 16.3355C14.4873 16.2259 14.5427 16.0938 14.5427 15.9393C14.5427 15.7797 14.4873 15.6452 14.3766 15.5355C14.2658 15.4259 14.1299 15.371 13.9689 15.371H11.1675V13.629C12.129 13.5492 12.9722 13.2826 13.697 12.829C14.4219 12.3704 14.9857 11.7623 15.3884 11.0047C15.7961 10.2471 16 9.37976 16 8.40282V6.88505C16 6.73053 15.9446 6.59844 15.8339 6.48879C15.7231 6.37913 15.5897 6.3243 15.4337 6.3243C15.2726 6.3243 15.1367 6.37913 15.026 6.48879C14.9152 6.59844 14.8598 6.73053 14.8598 6.88505V8.35796C14.8598 9.20531 14.6837 9.94799 14.3313 10.586C13.9789 11.224 13.4831 11.72 12.8438 12.0738C12.2095 12.4228 11.4595 12.5972 10.5937 12.5972C9.73289 12.5972 8.98285 12.4228 8.34356 12.0738C7.7093 11.72 7.21598 11.224 6.86361 10.586C6.51125 9.94799 6.33506 9.20531 6.33506 8.35796V6.88505C6.33506 6.73053 6.27969 6.59844 6.16895 6.48879C6.0582 6.37913 5.92229 6.3243 5.76121 6.3243C5.60516 6.3243 5.47176 6.37913 5.36102 6.48879C5.25028 6.59844 5.1949 6.73053 5.1949 6.88505V8.40282ZM7.85276 8.13366C7.85276 8.70687 7.96854 9.21528 8.20009 9.65889C8.43165 10.0975 8.75381 10.4414 9.16659 10.6907C9.57936 10.9399 10.0551 11.0645 10.5937 11.0645C11.1373 11.0645 11.6155 10.9399 12.0283 10.6907C12.4411 10.4414 12.7633 10.0975 12.9948 9.65889C13.2264 9.21528 13.3421 8.70687 13.3421 8.13366V3.43084C13.3421 2.85763 13.2264 2.35171 12.9948 1.91308C12.7633 1.46947 12.4411 1.12305 12.0283 0.873832C11.6155 0.624611 11.1373 0.5 10.5937 0.5C10.0551 0.5 9.57936 0.624611 9.16659 0.873832C8.75381 1.12305 8.43165 1.46947 8.20009 1.91308C7.96854 2.35171 7.85276 2.85763 7.85276 3.43084V8.13366ZM8.99292 8.13366V3.43084C8.99292 2.87757 9.1389 2.43645 9.43086 2.10748C9.72283 1.7785 10.1104 1.61402 10.5937 1.61402C11.0769 1.61402 11.4645 1.7785 11.7565 2.10748C12.0535 2.43645 12.202 2.87757 12.202 3.43084V8.13366C12.202 8.68693 12.0535 9.12805 11.7565 9.45702C11.4645 9.78599 11.0769 9.95048 10.5937 9.95048C10.1104 9.95048 9.72283 9.78599 9.43086 9.45702C9.1389 9.12805 8.99292 8.68693 8.99292 8.13366Z"
		fill="currentColor"
	/>
</svg>
