<svg
	color="rgb(var(--foreground, 0, 0, 0))"
	viewBox="0 0 16 17"
	fill="none"
	xmlns="http://www.w3.org/2000/svg"
>
	<path
		d="M1.38933 4.39859C1.76687 4.39859 2.08904 4.26588 2.35583 4.00047C2.62262 3.73506 2.75602 3.41205 2.75602 3.03146C2.75602 2.65587 2.62262 2.33537 2.35583 2.06995C2.08904 1.80454 1.76687 1.67183 1.38933 1.67183C1.00173 1.67183 0.672015 1.80454 0.400189 2.06995C0.133396 2.33537 0 2.65587 0 3.03146C0 3.41706 0.133396 3.74257 0.400189 4.00798C0.666981 4.26839 0.996697 4.39859 1.38933 4.39859ZM1.38933 8.31973C1.76687 8.31973 2.08904 8.18702 2.35583 7.92161C2.62262 7.65619 2.75602 7.33318 2.75602 6.95259C2.75602 6.56698 2.62262 6.24147 2.35583 5.97606C2.08904 5.71064 1.76687 5.57794 1.38933 5.57794C0.996697 5.57794 0.666981 5.71064 0.400189 5.97606C0.133396 6.24147 0 6.56698 0 6.95259C0 7.33318 0.133396 7.65619 0.400189 7.92161C0.666981 8.18702 0.996697 8.31973 1.38933 8.31973ZM1.38933 12.2484C1.64103 12.2484 1.87006 12.1858 2.07645 12.0606C2.28284 11.9354 2.44644 11.7701 2.56725 11.5648C2.69309 11.3545 2.75602 11.1216 2.75602 10.8662C2.75602 10.4906 2.62262 10.1701 2.35583 9.90471C2.08904 9.63929 1.76687 9.50659 1.38933 9.50659C1.13261 9.50659 0.898537 9.56918 0.687117 9.69438C0.475696 9.81457 0.307063 9.97732 0.181218 10.1826C0.0604059 10.388 0 10.6158 0 10.8662C0 11.2568 0.133396 11.5848 0.400189 11.8502C0.666981 12.1157 0.996697 12.2484 1.38933 12.2484ZM1.38933 16.1545C1.76687 16.1545 2.08904 16.0218 2.35583 15.7563C2.62262 15.4909 2.75602 15.1704 2.75602 14.7948C2.75602 14.4143 2.62262 14.0913 2.35583 13.8258C2.08904 13.5604 1.76687 13.4277 1.38933 13.4277C0.996697 13.4277 0.666981 13.5604 0.400189 13.8258C0.133396 14.0913 0 14.4143 0 14.7948C0 15.1704 0.133396 15.4909 0.400189 15.7563C0.672015 16.0218 1.00173 16.1545 1.38933 16.1545ZM5.1949 8.3648C5.1949 9.34633 5.39626 10.2177 5.79896 10.9789C6.2067 11.7401 6.77301 12.351 7.49788 12.8118C8.22275 13.2675 9.06591 13.5354 10.0274 13.6155V15.3657H7.22605C7.06497 15.3657 6.92905 15.4208 6.81831 15.531C6.70757 15.6412 6.65219 15.7764 6.65219 15.9366C6.65219 16.0919 6.70757 16.2246 6.81831 16.3347C6.92905 16.4449 7.06497 16.5 7.22605 16.5H13.9689C14.1299 16.5 14.2658 16.4449 14.3766 16.3347C14.4873 16.2246 14.5427 16.0919 14.5427 15.9366C14.5427 15.7764 14.4873 15.6412 14.3766 15.531C14.2658 15.4208 14.1299 15.3657 13.9689 15.3657H11.1675V13.6155C12.129 13.5354 12.9722 13.2675 13.697 12.8118C14.4219 12.351 14.9857 11.7401 15.3884 10.9789C15.7961 10.2177 16 9.34633 16 8.3648V6.83991C16 6.68467 15.9446 6.55196 15.8339 6.44179C15.7231 6.33161 15.5897 6.27653 15.4337 6.27653C15.2726 6.27653 15.1367 6.33161 15.026 6.44179C14.9152 6.55196 14.8598 6.68467 14.8598 6.83991V8.31973C14.8598 9.17106 14.6837 9.91723 14.3313 10.5582C13.9789 11.1992 13.4831 11.6975 12.8438 12.0531C12.2095 12.4036 11.4595 12.5789 10.5937 12.5789C9.73289 12.5789 8.98285 12.4036 8.34356 12.0531C7.7093 11.6975 7.21598 11.1992 6.86361 10.5582C6.51125 9.91723 6.33506 9.17106 6.33506 8.31973V6.83991C6.33506 6.68467 6.27969 6.55196 6.16895 6.44179C6.0582 6.33161 5.92229 6.27653 5.76121 6.27653C5.60516 6.27653 5.47176 6.33161 5.36102 6.44179C5.25028 6.55196 5.1949 6.68467 5.1949 6.83991V8.3648ZM10.5937 10.9639C11.0971 10.9639 11.5375 10.8487 11.9151 10.6183C12.2926 10.388 12.5871 10.07 12.7985 9.66433C13.0099 9.25369 13.1156 8.78045 13.1156 8.24461V3.21925C13.1156 2.68341 13.0099 2.21268 12.7985 1.80704C12.5871 1.3964 12.2926 1.0759 11.9151 0.84554C11.5375 0.61518 11.0971 0.5 10.5937 0.5C10.0953 0.5 9.65739 0.61518 9.27985 0.84554C8.90231 1.0759 8.60783 1.3964 8.39641 1.80704C8.18499 2.21268 8.07928 2.68341 8.07928 3.21925V8.24461C8.07928 8.78045 8.18499 9.25369 8.39641 9.66433C8.60783 10.07 8.90231 10.388 9.27985 10.6183C9.65739 10.8487 10.0953 10.9639 10.5937 10.9639Z"
		fill="currentColor"
	/>
</svg>
