<svg
	color="rgb(var(--foreground, 0, 0, 0))"
	viewBox="0 0 15 15"
	fill="none"
	xmlns="http://www.w3.org/2000/svg"
>
	<path
		d="M4.11003 10.8643C4.88673 11.6397 5.70658 12.3398 6.56958 12.9645C7.43258 13.5891 8.29558 14.0845 9.15858 14.4507C10.0216 14.8169 10.8387 15 11.61 15C12.1332 15 12.6214 14.9058 13.0744 14.7173C13.5275 14.5288 13.9374 14.2326 14.3042 13.8288C14.52 13.5918 14.6899 13.336 14.8139 13.0614C14.938 12.7921 15 12.5202 15 12.2456C15 12.0409 14.9595 11.8471 14.8786 11.664C14.7977 11.4755 14.6602 11.3139 14.466 11.1793L11.9822 9.41842C11.7934 9.28918 11.6181 9.19225 11.4563 9.12762C11.2945 9.063 11.1408 9.03069 10.9951 9.03069C10.8118 9.03069 10.6338 9.08185 10.4612 9.18417C10.2886 9.2811 10.1106 9.42111 9.92719 9.6042L9.35275 10.1696C9.27184 10.2558 9.16936 10.2989 9.04531 10.2989C8.98058 10.2989 8.91855 10.2881 8.85922 10.2666C8.80529 10.245 8.75944 10.2262 8.72168 10.21C8.46818 10.0754 8.14455 9.84383 7.75081 9.51535C7.35707 9.18147 6.96063 8.81529 6.56149 8.4168C6.16775 8.01831 5.80367 7.62251 5.46926 7.2294C5.13484 6.8363 4.90291 6.51589 4.77346 6.26817C4.75189 6.22509 4.73031 6.17663 4.70874 6.12278C4.69256 6.06354 4.68447 6.00431 4.68447 5.94507C4.68447 5.8266 4.72492 5.72698 4.80583 5.6462L5.38026 5.05654C5.55825 4.87345 5.69849 4.69575 5.80097 4.52342C5.90345 4.3511 5.95469 4.1734 5.95469 3.99031C5.95469 3.84491 5.91963 3.69144 5.84951 3.52989C5.78479 3.36834 5.68501 3.19332 5.55016 3.00485L3.81068 0.557351C3.67044 0.363489 3.50324 0.223479 3.30906 0.137318C3.11489 0.0457727 2.90992 0 2.69417 0C2.13862 0 1.61812 0.234249 1.13269 0.702746C0.738943 1.0797 0.450378 1.49704 0.26699 1.95477C0.0889968 2.40711 0 2.89176 0 3.40872C0 4.18417 0.18069 5 0.542071 5.85622C0.903452 6.70705 1.39428 7.56058 2.01456 8.4168C2.63484 9.27302 3.33333 10.0889 4.11003 10.8643Z"
		fill="currentColor"
	/>
</svg>
