<svg
	color="rgb(var(--foreground, 0, 0, 0))"
	viewBox="0 0 19 7"
	fill="none"
	xmlns="http://www.w3.org/2000/svg"
>
	<path
		d="M9.49813 0C8.32936 0 7.20367 0.084805 6.12107 0.254415C5.04385 0.418725 4.06897 0.67314 3.19643 1.01766C2.32388 1.36218 1.61562 1.80211 1.07162 2.33745C0.699983 2.70317 0.4226 3.10864 0.239473 3.55387C0.0563466 3.99379 -0.0217515 4.48142 0.00517892 5.01676C0.0213371 5.34007 0.0778909 5.63954 0.17484 5.91516C0.277176 6.19077 0.425293 6.42134 0.619191 6.60685C0.764615 6.74996 0.931584 6.85861 1.1201 6.93282C1.314 7.00172 1.52674 7.01762 1.75835 6.98052L4.7557 6.47964C5.19735 6.40544 5.52052 6.26763 5.72519 6.06622C5.85984 5.93901 5.95141 5.78 5.99988 5.58919C6.04835 5.39838 6.07259 5.17841 6.07259 4.9293V4.1263C6.07259 4.0203 6.11837 3.91959 6.20994 3.82418C6.24764 3.77648 6.29342 3.74203 6.34728 3.72083C6.40653 3.69433 6.4577 3.67578 6.50078 3.66518C6.77547 3.60157 7.17674 3.54592 7.70457 3.49822C8.23779 3.44521 8.83565 3.41871 9.49813 3.41871C10.1606 3.41871 10.7558 3.44256 11.2836 3.49027C11.8115 3.53267 12.2154 3.59362 12.4955 3.67313C12.5386 3.68373 12.5844 3.70228 12.6328 3.72878C12.6867 3.74998 12.7352 3.78178 12.7783 3.82418C12.859 3.90899 12.9021 4.00705 12.9075 4.11835L12.9156 4.9293C12.921 5.17841 12.9479 5.39838 12.9964 5.58919C13.0449 5.78 13.1337 5.93901 13.263 6.06622C13.3653 6.16692 13.4973 6.25173 13.6589 6.32063C13.8205 6.38954 14.0144 6.44254 14.2406 6.47964L17.1975 6.97257C17.4345 7.01497 17.6527 6.99907 17.8519 6.92487C18.0566 6.84536 18.237 6.73141 18.3932 6.583C18.781 6.21198 18.983 5.68724 18.9992 5.0088C19.0099 4.47347 18.9157 3.98584 18.7164 3.54592C18.5225 3.10069 18.2424 2.69787 17.8762 2.33745C17.3322 1.79681 16.6266 1.35423 15.7594 1.00971C14.8923 0.66519 13.9228 0.410774 12.851 0.246465C11.7791 0.0821549 10.6615 0 9.49813 0Z"
		fill="currentColor"
	/>
</svg>
