<svg
	color="rgb(var(--foreground, 0, 0, 0))"
	viewBox="0 0 31 11"
	fill="none"
	xmlns="http://www.w3.org/2000/svg"
>
	<path
		d="M0 5.50001C0 6.50042 0.174743 7.45185 0.52423 8.35429C0.878933 9.25158 1.3823 10.0509 2.03433 10.7522C2.1856 10.9121 2.35512 10.9946 2.54291 10.9997C2.73591 11.0049 2.895 10.9353 3.02019 10.7909C3.14538 10.6517 3.19233 10.4969 3.16103 10.3268C3.13495 10.1566 3.05149 9.99158 2.91065 9.83172C2.38381 9.25416 1.97956 8.59666 1.69788 7.85924C1.4162 7.11666 1.27537 6.33025 1.27537 5.50001C1.27537 4.6646 1.4162 3.87818 1.69788 3.14076C1.97956 2.40334 2.38381 1.74584 2.91065 1.16828C3.05149 1.00842 3.13495 0.843404 3.16103 0.673229C3.19233 0.503055 3.14538 0.348351 3.02019 0.209117C2.895 0.0647268 2.73591 -0.00489007 2.54291 0.000266731C2.35512 0.000266731 2.1856 0.0827756 2.03433 0.247793C1.3823 0.943962 0.878933 1.74327 0.52423 2.64571C0.174743 3.54815 0 4.49959 0 5.50001ZM3.13756 5.50001C3.13756 6.06725 3.23145 6.6113 3.41923 7.13213C3.60702 7.64781 3.87044 8.1145 4.20949 8.5322C4.34511 8.70754 4.51203 8.79778 4.71025 8.80294C4.91368 8.80294 5.0806 8.73074 5.211 8.58635C5.33619 8.44712 5.38053 8.29499 5.34402 8.12997C5.31272 7.9598 5.23448 7.7922 5.10929 7.62719C4.87456 7.33841 4.69982 7.01353 4.58506 6.65255C4.4703 6.28642 4.41292 5.90224 4.41292 5.50001C4.41292 5.09262 4.4703 4.70844 4.58506 4.34746C4.70503 3.98133 4.87978 3.65644 5.10929 3.37282C5.23448 3.20264 5.31272 3.03505 5.34402 2.87003C5.38053 2.70501 5.33619 2.55288 5.211 2.41365C5.0806 2.26926 4.91368 2.19964 4.71025 2.2048C4.51203 2.2048 4.34511 2.29247 4.20949 2.4678C3.87044 2.8855 3.60702 3.35477 3.41923 3.87561C3.23145 4.39129 3.13756 4.93276 3.13756 5.50001ZM6.30641 6.06467C6.32206 6.37408 6.37944 6.66286 6.47855 6.93102C6.57765 7.19917 6.71849 7.42607 6.90106 7.61172C7.0419 7.74579 7.2036 7.84893 7.38617 7.92112C7.57395 7.98816 7.77999 8.00363 8.00429 7.96753L10.9071 7.48022C11.3348 7.41318 11.6478 7.28168 11.846 7.08572C11.9764 6.96196 12.0651 6.80725 12.1121 6.62161C12.159 6.43596 12.1825 6.21938 12.1825 5.97185L12.1903 5.19833C12.1903 5.0952 12.232 4.99722 12.3155 4.90439C12.352 4.85798 12.3963 4.82446 12.4485 4.80384C12.5059 4.77805 12.5554 4.76 12.5972 4.74969C12.8632 4.68781 13.2518 4.63108 13.763 4.57952C14.2794 4.52795 14.8584 4.50216 15.5 4.50216C16.1416 4.50216 16.718 4.52795 17.2292 4.57952C17.7456 4.63108 18.1368 4.68781 18.4028 4.74969C18.4446 4.76 18.4915 4.77805 18.5437 4.80384C18.601 4.82446 18.648 4.85798 18.6845 4.90439C18.7732 4.99722 18.8175 5.0952 18.8175 5.19833V5.97185C18.8175 6.21938 18.841 6.43596 18.8879 6.62161C18.9349 6.80725 19.0236 6.96196 19.154 7.08572C19.3522 7.28168 19.6652 7.41318 20.0929 7.48022L22.9957 7.96753C23.22 8.00363 23.4234 7.98816 23.606 7.92112C23.7938 7.84893 23.9581 7.74579 24.0989 7.61172C24.2867 7.42607 24.4276 7.19917 24.5215 6.93102C24.6206 6.66286 24.6779 6.37408 24.6936 6.06467C24.7197 5.54384 24.644 5.06683 24.4667 4.63366C24.2893 4.20049 24.0207 3.80857 23.6608 3.4579C23.1339 2.93191 22.448 2.50132 21.603 2.16612C20.758 1.83093 19.8112 1.58341 18.7627 1.42354C17.7195 1.25853 16.6319 1.17602 15.5 1.17602C14.3681 1.17602 13.2805 1.25853 12.2373 1.42354C11.194 1.58341 10.2499 1.83093 9.40485 2.16612C8.55982 2.50132 7.87128 2.93191 7.33922 3.4579C6.98452 3.80857 6.71588 4.20049 6.53332 4.63366C6.35597 5.06683 6.28033 5.54384 6.30641 6.06467ZM27.8703 5.50001C27.8703 4.93276 27.7764 4.39129 27.5886 3.87561C27.4008 3.35477 27.1348 2.8855 26.7905 2.4678C26.6549 2.29247 26.4854 2.2048 26.2819 2.2048C26.0837 2.19964 25.9194 2.26926 25.789 2.41365C25.6638 2.55288 25.6169 2.70501 25.6482 2.87003C25.6847 3.03505 25.7655 3.20264 25.8907 3.37282C26.1254 3.6616 26.3002 3.98906 26.4149 4.35519C26.5349 4.71617 26.5949 5.09777 26.5949 5.50001C26.5949 5.90224 26.5349 6.28642 26.4149 6.65255C26.3002 7.01353 26.1254 7.33841 25.8907 7.62719C25.7655 7.7922 25.6847 7.9598 25.6482 8.12997C25.6169 8.29499 25.6638 8.44712 25.789 8.58635C25.9194 8.73074 26.0837 8.80294 26.2819 8.80294C26.4854 8.79778 26.6549 8.70754 26.7905 8.5322C27.1348 8.1145 27.4008 7.64781 27.5886 7.13213C27.7764 6.6113 27.8703 6.06725 27.8703 5.50001ZM31 5.50001C31 4.49959 30.8227 3.54815 30.4679 2.64571C30.1185 1.74327 29.6203 0.943962 28.9735 0.247793C28.8222 0.0827756 28.6501 0.000266731 28.4571 0.000266731C28.2641 -0.00489007 28.105 0.0647268 27.9798 0.209117C27.8546 0.348351 27.8051 0.503055 27.8311 0.673229C27.8624 0.843404 27.9485 1.00842 28.0893 1.16828C28.6162 1.74584 29.0204 2.40334 29.3021 3.14076C29.5838 3.87818 29.7246 4.6646 29.7246 5.50001C29.7246 6.33025 29.5838 7.11666 29.3021 7.85924C29.0204 8.59666 28.6162 9.25416 28.0893 9.83172C27.9485 9.99158 27.8624 10.1566 27.8311 10.3268C27.8051 10.4969 27.8546 10.6517 27.9798 10.7909C28.105 10.9353 28.2641 11.0049 28.4571 10.9997C28.6501 10.9946 28.8222 10.9121 28.9735 10.7522C29.6203 10.0509 30.1185 9.25158 30.4679 8.35429C30.8227 7.45185 31 6.50042 31 5.50001Z"
		fill="currentColor"
	/>
</svg>
