<svg
	color="rgb(var(--foreground, 0, 0, 0))"
	viewBox="0 0 23 11"
	fill="none"
	xmlns="http://www.w3.org/2000/svg"
>
	<path
		d="M0 5.5C0 6.19019 0.128938 6.83692 0.386815 7.44019C0.649849 8.04346 1.01088 8.57516 1.4699 9.03528C1.93407 9.4954 2.47046 9.85583 3.07904 10.1166C3.69279 10.3722 4.3478 10.5 5.04406 10.5H17.9559C18.6522 10.5 19.3046 10.3722 19.9132 10.1166C20.527 9.85583 21.0633 9.4954 21.5224 9.03528C21.9865 8.57516 22.3476 8.04346 22.6054 7.44019C22.8685 6.83692 23 6.19019 23 5.5C23 4.80982 22.8685 4.16309 22.6054 3.55982C22.3476 2.95143 21.9865 2.41973 21.5224 1.96472C21.0633 1.5046 20.527 1.14673 19.9132 0.891104C19.3046 0.630368 18.6522 0.5 17.9559 0.5C17.2597 0.5 16.6072 0.630368 15.9987 0.891104C15.3901 1.14673 14.8537 1.5046 14.3895 1.96472C13.9253 2.41973 13.5617 2.95143 13.2987 3.55982C13.0408 4.16309 12.9119 4.80982 12.9119 5.5C12.9119 5.9908 12.9815 6.46371 13.1208 6.91871C13.2652 7.36861 13.4663 7.78528 13.7242 8.16871C13.9821 8.55215 14.2915 8.89213 14.6525 9.18865H8.34746C8.70849 8.89213 9.01794 8.55215 9.27582 8.16871C9.53369 7.78528 9.73226 7.36861 9.87151 6.91871C10.0159 6.46371 10.0881 5.9908 10.0881 5.5C10.0881 4.80982 9.95661 4.16309 9.69357 3.55982C9.4357 2.95143 9.07467 2.41973 8.61049 1.96472C8.14632 1.5046 7.60993 1.14673 7.00135 0.891104C6.39276 0.630368 5.74033 0.5 5.04406 0.5C4.3478 0.5 3.69279 0.630368 3.07904 0.891104C2.47046 1.14673 1.93407 1.5046 1.4699 1.96472C1.01088 2.41973 0.649849 2.95143 0.386815 3.55982C0.128938 4.16309 0 4.80982 0 5.5ZM1.32291 5.49234C1.32291 4.98109 1.41832 4.50307 1.60915 4.05829C1.80514 3.6135 2.07333 3.22239 2.41372 2.88497C2.75412 2.54754 3.14867 2.28425 3.59738 2.09509C4.05124 1.90082 4.53605 1.80368 5.0518 1.80368C5.56239 1.80368 6.04204 1.90082 6.49075 2.09509C6.94461 2.28425 7.34174 2.54754 7.68214 2.88497C8.02254 3.22239 8.28815 3.6135 8.47898 4.05829C8.66981 4.50307 8.76522 4.98109 8.76522 5.49234C8.76522 6.00358 8.66981 6.4816 8.47898 6.92638C8.28815 7.37117 8.02254 7.76483 7.68214 8.10736C7.34174 8.44479 6.94461 8.71064 6.49075 8.90491C6.04204 9.09407 5.56239 9.18865 5.0518 9.18865C4.53605 9.18865 4.05124 9.09407 3.59738 8.90491C3.14867 8.71064 2.75412 8.44479 2.41372 8.10736C2.07333 7.76483 1.80514 7.37117 1.60915 6.92638C1.41832 6.4816 1.32291 6.00358 1.32291 5.49234ZM14.2348 5.49234C14.2348 4.98109 14.3302 4.50307 14.521 4.05829C14.7119 3.6135 14.9775 3.22239 15.3179 2.88497C15.6634 2.54754 16.0605 2.28425 16.5092 2.09509C16.958 1.90082 17.4376 1.80368 17.9482 1.80368C18.464 1.80368 18.9462 1.90082 19.3949 2.09509C19.8487 2.28425 20.2459 2.54754 20.5863 2.88497C20.9267 3.22239 21.1923 3.6135 21.3831 4.05829C21.5791 4.50307 21.6771 4.98109 21.6771 5.49234C21.6771 6.00358 21.5791 6.4816 21.3831 6.92638C21.1923 7.37117 20.9267 7.76483 20.5863 8.10736C20.2459 8.44479 19.8487 8.71064 19.3949 8.90491C18.9462 9.09407 18.464 9.18865 17.9482 9.18865C17.4376 9.18865 16.958 9.09407 16.5092 8.90491C16.0605 8.71064 15.6634 8.44479 15.3179 8.10736C14.9775 7.76483 14.7119 7.37117 14.521 6.92638C14.3302 6.4816 14.2348 6.00358 14.2348 5.49234Z"
		fill="currentColor"
	/>
</svg>
