<svg
	color="rgb(var(--foreground, 0, 0, 0))"
	viewBox="0 0 16 17"
	fill="none"
	xmlns="http://www.w3.org/2000/svg"
>
	<path
		d="M0.643203 10.3921C0.830803 10.3921 0.986244 10.327 1.10952 10.1968C1.23281 10.0666 1.29445 9.91193 1.29445 9.7329V7.26712C1.29445 7.08809 1.23281 6.93347 1.10952 6.80326C0.986244 6.66763 0.830803 6.59982 0.643203 6.59982C0.460962 6.59982 0.308201 6.66763 0.184921 6.80326C0.0616402 6.93347 0 7.08809 0 7.26712V9.7329C0 9.91193 0.0616402 10.0666 0.184921 10.1968C0.308201 10.327 0.460962 10.3921 0.643203 10.3921ZM3.34465 13.7205C3.53225 13.7205 3.6877 13.6581 3.81098 13.5333C3.93962 13.4031 4.00394 13.2457 4.00394 13.0613V6.73002L2.70949 5.41982V13.0613C2.70949 13.2457 2.76845 13.4031 2.88637 13.5333C3.00965 13.6581 3.16241 13.7205 3.34465 13.7205ZM6.0461 0C5.86386 0 5.7111 0.0651027 5.58782 0.195309C5.4699 0.320089 5.41094 0.474709 5.41094 0.659167V3.23073L6.70539 4.54093V0.659167C6.70539 0.474709 6.64107 0.320089 6.51243 0.195309C6.38915 0.0651027 6.23371 0 6.0461 0ZM6.0461 17C6.23371 17 6.38915 16.9349 6.51243 16.8047C6.64107 16.6799 6.70539 16.5253 6.70539 16.3408V9.46435L5.41094 8.16229V16.3408C5.41094 16.5253 5.4699 16.6799 5.58782 16.8047C5.7111 16.9349 5.86386 17 6.0461 17ZM8.76364 4.26424C8.57604 4.26424 8.4206 4.32935 8.29731 4.45955C8.17403 4.58433 8.11239 4.73895 8.11239 4.92341V5.9732L9.40684 7.2834V4.92341C9.40684 4.73895 9.3452 4.58433 9.22192 4.45955C9.09864 4.32935 8.94588 4.26424 8.76364 4.26424ZM8.76364 13.4356C8.94588 13.4356 9.09864 13.3732 9.22192 13.2485C9.3452 13.1183 9.40684 12.9609 9.40684 12.7765V12.1987L8.11239 10.8885V12.7765C8.11239 12.9609 8.17403 13.1183 8.29731 13.2485C8.42595 13.3732 8.5814 13.4356 8.76364 13.4356ZM11.4651 1.79847C11.2775 1.79847 11.122 1.86357 10.9988 1.99378C10.8808 2.12398 10.8219 2.2786 10.8219 2.45764V8.70753L12.1163 10.0177V2.45764C12.1163 2.2786 12.052 2.12398 11.9234 1.99378C11.8001 1.86357 11.6473 1.79847 11.4651 1.79847ZM14.1665 5.89996C13.9843 5.89996 13.8315 5.96506 13.7083 6.09527C13.585 6.22547 13.5233 6.38009 13.5233 6.55913V10.4409C13.5233 10.6199 13.585 10.7745 13.7083 10.9048C13.8315 11.0295 13.9843 11.0919 14.1665 11.0919C14.3488 11.0919 14.5015 11.0295 14.6248 10.9048C14.7535 10.7745 14.8178 10.6199 14.8178 10.4409V6.55913C14.8178 6.38009 14.7535 6.22547 14.6248 6.09527C14.5015 5.96506 14.3488 5.89996 14.1665 5.89996ZM14.9464 16.235C15.0697 16.3544 15.2171 16.4141 15.3886 16.4141C15.5601 16.4141 15.7049 16.3544 15.8228 16.235C15.9407 16.1103 15.9997 15.9611 15.9997 15.7875C16.005 15.6139 15.9461 15.4674 15.8228 15.348L1.40701 0.748683C1.28373 0.629327 1.13364 0.56965 0.956764 0.56965C0.785243 0.564225 0.640523 0.623902 0.522602 0.748683C0.404682 0.868038 0.345721 1.01723 0.345721 1.19627C0.345721 1.36987 0.404682 1.51635 0.522602 1.63571L14.9464 16.235Z"
		fill="currentColor"
	/>
</svg>
