<svg
	color="rgb(var(--foreground, 0, 0, 0))"
	viewBox="0 0 15 17"
	fill="none"
	xmlns="http://www.w3.org/2000/svg"
>
	<path
		d="M0.642973 10.3923C0.832881 10.3923 0.990233 10.3272 1.11503 10.197C1.24525 10.0667 1.31036 9.91209 1.31036 9.73304V7.26695C1.31036 7.08789 1.24525 6.93325 1.11503 6.80303C0.990233 6.66738 0.832881 6.59956 0.642973 6.59956C0.463918 6.59956 0.311991 6.66738 0.187195 6.80303C0.0623983 6.93325 0 7.08789 0 7.26695V9.73304C0 9.91209 0.0623983 10.0667 0.187195 10.197C0.311991 10.3272 0.463918 10.3923 0.642973 10.3923ZM3.38578 13.7211C3.57569 13.7211 3.73304 13.6587 3.85784 13.5339C3.98264 13.4037 4.04504 13.2463 4.04504 13.0618V3.93813C4.04504 3.75365 3.98264 3.5963 3.85784 3.46607C3.73304 3.33585 3.57569 3.27074 3.38578 3.27074C3.2013 3.27074 3.04666 3.33585 2.92187 3.46607C2.79707 3.5963 2.73467 3.75365 2.73467 3.93813V13.0618C2.73467 13.2463 2.79707 13.4037 2.92187 13.5339C3.04666 13.6587 3.2013 13.7211 3.38578 13.7211ZM6.12046 17.0011C6.31036 17.0011 6.46772 16.9359 6.59251 16.8057C6.72273 16.6809 6.78785 16.5263 6.78785 16.3418V0.658152C6.78785 0.47367 6.72273 0.319031 6.59251 0.194235C6.46772 0.0640123 6.31036 -0.00109863 6.12046 -0.00109863C5.93597 -0.00109863 5.78133 0.0640123 5.65654 0.194235C5.53717 0.319031 5.47748 0.47367 5.47748 0.658152V16.3418C5.47748 16.5263 5.53717 16.6809 5.65654 16.8057C5.78133 16.9359 5.93597 17.0011 6.12046 17.0011ZM8.86327 12.7282C9.04775 12.7282 9.20239 12.6658 9.32718 12.541C9.45741 12.4162 9.52252 12.2615 9.52252 12.077V4.92294C9.52252 4.73846 9.45741 4.58382 9.32718 4.45902C9.20239 4.3288 9.04775 4.26369 8.86327 4.26369C8.67879 4.26369 8.52415 4.3288 8.39935 4.45902C8.27455 4.58382 8.21215 4.73846 8.21215 4.92294V12.077C8.21215 12.2615 8.27455 12.4162 8.39935 12.541C8.52415 12.6658 8.67879 12.7282 8.86327 12.7282ZM11.6061 15.1942C11.7906 15.1942 11.9452 15.1291 12.07 14.9989C12.1948 14.8741 12.2572 14.7222 12.2572 14.5431V2.45685C12.2572 2.27779 12.1948 2.12315 12.07 1.99293C11.9452 1.86271 11.7906 1.7976 11.6061 1.7976C11.4162 1.7976 11.2588 1.86271 11.134 1.99293C11.0092 2.12315 10.9468 2.27779 10.9468 2.45685V14.5431C10.9468 14.7222 11.0092 14.8741 11.134 14.9989C11.2588 15.1291 11.4162 15.1942 11.6061 15.1942ZM14.3407 11.0922C14.5252 11.0922 14.6799 11.0298 14.8047 10.905C14.9349 10.7748 15 10.6202 15 10.4411V6.55886C15 6.37981 14.9349 6.22516 14.8047 6.09494C14.6799 5.96472 14.5252 5.89961 14.3407 5.89961C14.1508 5.89961 13.9935 5.96472 13.8687 6.09494C13.7493 6.22516 13.6896 6.37981 13.6896 6.55886V10.4411C13.6896 10.6202 13.7493 10.7748 13.8687 10.905C13.9935 11.0298 14.1508 11.0922 14.3407 11.0922Z"
		fill="currentColor"
	/>
</svg>
