<svg
	color="rgb(var(--foreground, 0, 0, 0))"
	viewBox="0 0 20 16"
	fill="none"
	xmlns="http://www.w3.org/2000/svg"
>
	<path
		d="M0.115247 14.6333C0.0213393 14.8397 -0.0151767 15.0461 0.00569169 15.2525C0.0265601 15.4589 0.110025 15.63 0.256104 15.7659C0.402182 15.9069 0.613453 15.9773 0.889959 15.9773C1.04647 15.9773 1.19514 15.9421 1.336 15.8716C1.47687 15.8062 1.64119 15.7005 1.829 15.5545L3.97315 13.8254C4.05663 13.7599 4.12183 13.7272 4.16879 13.7272C4.21574 13.7272 4.28095 13.7599 4.36442 13.8254L6.50882 15.5545C6.69142 15.7005 6.85313 15.8062 6.99399 15.8716C7.14007 15.9421 7.29135 15.9773 7.44786 15.9773C7.72437 15.9773 7.93564 15.9069 8.08172 15.7659C8.2278 15.63 8.31126 15.4589 8.33213 15.2525C8.353 15.0461 8.31648 14.8397 8.22257 14.6333L4.76352 7.09014V3.5866C4.76352 3.01274 4.78699 2.49677 4.83395 2.0387C4.88612 1.58062 4.93567 1.20308 4.98263 0.906088C5.0348 0.609092 5.06088 0.420324 5.06088 0.339783C5.06088 0.234073 5.02958 0.151015 4.96698 0.0906087C4.90437 0.0302028 4.82091 0 4.71656 0C4.59657 0 4.4479 0.0931256 4.27052 0.279377L2.54894 2.18971C2.4759 2.27025 2.44721 2.35331 2.46286 2.43889C2.47851 2.51943 2.53067 2.58235 2.61937 2.62765C2.96891 2.7686 3.21409 2.89445 3.35495 3.00519C3.49581 3.11594 3.56623 3.30974 3.56623 3.5866V7.08259L0.115247 14.6333ZM5.96862 13.2591C5.86428 13.2591 5.77299 13.2238 5.69474 13.1534C5.6217 13.0779 5.58518 12.9873 5.58518 12.8815C5.58518 12.7809 5.6243 12.6928 5.70256 12.6173C5.78082 12.5367 5.8695 12.4965 5.96862 12.4965C6.07818 12.4965 6.17233 12.5367 6.25058 12.6173C6.32884 12.6928 6.36796 12.7809 6.36796 12.8815C6.36796 12.9822 6.32623 13.0703 6.24276 13.1458C6.1645 13.2213 6.07297 13.2591 5.96862 13.2591ZM5.54605 12.285C5.44171 12.285 5.35042 12.2498 5.27217 12.1793C5.19391 12.1038 5.15479 12.0132 5.15479 11.9075C5.15479 11.8068 5.19391 11.7187 5.27217 11.6432C5.35042 11.5627 5.44171 11.5224 5.54605 11.5224C5.65561 11.5224 5.74951 11.5602 5.82777 11.6357C5.90602 11.7112 5.94515 11.8018 5.94515 11.9075C5.94515 12.0082 5.90602 12.0963 5.82777 12.1718C5.74951 12.2473 5.65561 12.285 5.54605 12.285ZM5.12348 11.3034C5.01914 11.3034 4.92785 11.2682 4.8496 11.1977C4.77134 11.1222 4.73222 11.0341 4.73222 10.9335C4.73222 10.8328 4.77134 10.7422 4.8496 10.6616C4.92785 10.5811 5.01914 10.5408 5.12348 10.5408C5.22783 10.5408 5.31912 10.5811 5.39737 10.6616C5.47563 10.7371 5.51475 10.8277 5.51475 10.9335C5.51475 11.0341 5.47563 11.1222 5.39737 11.1977C5.31912 11.2682 5.22783 11.3034 5.12348 11.3034ZM10.398 16C11.0919 16 11.6996 15.8742 12.2213 15.6225C12.7483 15.3758 13.1554 15.0285 13.4423 14.5805C13.7345 14.1325 13.8806 13.6064 13.8806 13.0024C13.8806 12.6299 13.831 12.3027 13.7319 12.0208C13.6328 11.7389 13.518 11.4947 13.3876 11.2883C13.2624 11.082 13.15 10.9007 13.0508 10.7447C12.9569 10.5886 12.91 10.4477 12.91 10.3218C12.91 10.1255 12.9543 9.93676 13.043 9.75554C13.1317 9.57433 13.2206 9.38304 13.3093 9.18169C13.398 8.98033 13.4423 8.75381 13.4423 8.50212C13.4423 8.2303 13.3586 8.00881 13.1917 7.83766C13.0247 7.66147 12.8109 7.57338 12.55 7.57338C12.31 7.57338 12.1144 7.63127 11.9631 7.74705C11.8118 7.86283 11.6866 7.98867 11.5875 8.12459C11.5092 8.2303 11.4388 8.31839 11.3762 8.38886C11.3136 8.45934 11.2562 8.49457 11.204 8.49457C11.1362 8.49457 11.0867 8.46185 11.0554 8.39641C11.0241 8.33097 11.0032 8.25043 10.9928 8.15479C10.9823 8.05411 10.9771 7.96099 10.9771 7.87541L10.9849 3.23926C10.9849 3.12349 10.9928 3.0505 11.0084 3.02029C11.0241 2.98506 11.0658 2.95737 11.1336 2.93723C11.2223 2.90703 11.2823 2.86676 11.3136 2.81642C11.3449 2.76608 11.3658 2.68806 11.3762 2.58235L11.5327 1.042C11.5431 0.901054 11.491 0.780242 11.3762 0.679566L10.7032 0.113261C10.6145 0.0377536 10.5128 0 10.398 0C10.278 0 10.1737 0.0377536 10.085 0.113261L9.41203 0.679566C9.29725 0.780242 9.24509 0.901054 9.25552 1.042L9.41203 2.58235C9.4329 2.77867 9.51636 2.89696 9.66244 2.93723C9.71983 2.95234 9.75635 2.97751 9.772 3.01274C9.79287 3.04798 9.8033 3.12349 9.8033 3.23926L9.81895 7.86786C9.81895 7.97861 9.81112 8.0818 9.79547 8.17744C9.78504 8.27308 9.76157 8.35111 9.72505 8.41151C9.69374 8.46689 9.65201 8.49457 9.59984 8.49457C9.54245 8.49457 9.48246 8.45682 9.41986 8.38131C9.36247 8.3058 9.28944 8.22023 9.20075 8.12459C9.10162 7.98867 8.97642 7.86283 8.82513 7.74705C8.67905 7.63127 8.48864 7.57338 8.25388 7.57338C7.9878 7.57338 7.77132 7.66147 7.60437 7.83766C7.43742 8.00881 7.35396 8.2303 7.35396 8.50212C7.35396 8.75381 7.3983 8.98033 7.48699 9.18169C7.57568 9.38304 7.66175 9.57433 7.74523 9.75554C7.83392 9.93676 7.87826 10.1255 7.87826 10.3218C7.87826 10.4678 7.81305 10.6314 7.68262 10.8126C7.55741 10.9939 7.427 11.2179 7.29136 11.4847L8.48081 14.0821C8.59559 14.3338 8.67644 14.5427 8.7234 14.7088C8.77557 14.8749 8.80165 15.0411 8.80165 15.2072C8.80165 15.3783 8.77035 15.5394 8.70775 15.6904C8.96338 15.7911 9.23204 15.8666 9.51376 15.9169C9.79548 15.9723 10.0902 16 10.398 16ZM8.67645 12.874C8.59297 12.8488 8.53037 12.796 8.48864 12.7154C8.45212 12.6299 8.4469 12.5493 8.47299 12.4738L9.14597 10.6918C9.17727 10.6113 9.23465 10.5534 9.31813 10.5182C9.4016 10.4779 9.48506 10.4729 9.56854 10.5031C9.65201 10.5282 9.71461 10.5836 9.75635 10.6692C9.79808 10.7497 9.8033 10.8303 9.772 10.9108L9.09902 12.6852C9.06771 12.7658 9.01033 12.8262 8.92686 12.8664C8.84338 12.9017 8.75992 12.9042 8.67645 12.874ZM12.1196 12.874C12.0309 12.9042 11.9448 12.9017 11.8614 12.8664C11.7831 12.8262 11.7283 12.7658 11.697 12.6852L11.0241 10.9108C10.9928 10.8303 10.998 10.7497 11.0397 10.6692C11.0814 10.5836 11.1414 10.5282 11.2197 10.5031C11.3084 10.4729 11.3918 10.4779 11.4701 10.5182C11.5536 10.5534 11.611 10.6113 11.6423 10.6918L12.3152 12.4738C12.3465 12.5493 12.3413 12.6299 12.2996 12.7154C12.2579 12.796 12.1979 12.8488 12.1196 12.874ZM16.5334 15.9547C17.5924 15.9547 18.4349 15.7282 19.061 15.2751C19.687 14.8271 20 14.218 20 13.4479C20 13.0602 19.9478 12.7381 19.8435 12.4814C19.7392 12.2246 19.6166 12.0057 19.4757 11.8244C19.3401 11.6432 19.2175 11.4771 19.1079 11.3261C19.0036 11.1751 18.9514 11.0165 18.9514 10.8504C18.9514 10.5937 18.9905 10.342 19.0688 10.0953C19.147 9.84867 19.1862 9.56929 19.1862 9.2572C19.1862 8.74375 19.0062 8.33097 18.6462 8.01888C18.2862 7.70678 17.7776 7.51298 17.1203 7.43747V2.95989C17.1203 2.7988 17.1359 2.68554 17.1672 2.6201C17.1985 2.55466 17.2611 2.49174 17.355 2.43134C17.4959 2.34073 17.5611 2.23753 17.5507 2.12176L17.4333 0.256725C17.4281 0.181218 17.3994 0.120812 17.3472 0.0755073C17.3002 0.0251691 17.2403 0 17.1672 0H15.8839C15.816 0 15.756 0.0251691 15.7039 0.0755073C15.6569 0.120812 15.6308 0.181218 15.6256 0.256725L15.5082 2.12176C15.4978 2.23753 15.563 2.34073 15.7039 2.43134C15.7978 2.49678 15.8604 2.56221 15.8917 2.62765C15.923 2.69309 15.9386 2.80384 15.9386 2.95989V7.43747C15.2813 7.51298 14.7727 7.70678 14.4127 8.01888C14.0527 8.33097 13.8727 8.74375 13.8727 9.2572C13.8727 9.56929 13.9119 9.84867 13.9901 10.0953C14.0684 10.342 14.1075 10.5937 14.1075 10.8504C14.1075 10.9309 14.0918 11.009 14.0605 11.0845C14.0345 11.1549 13.9979 11.2254 13.951 11.2959C14.0605 11.5224 14.1544 11.7791 14.2327 12.0661C14.3162 12.353 14.3579 12.6651 14.3579 13.0024C14.3579 13.395 14.3005 13.7599 14.1858 14.0972C14.0762 14.4395 13.9171 14.7491 13.7084 15.026C14.0058 15.3229 14.3944 15.552 14.8744 15.7131C15.3544 15.8742 15.9073 15.9547 16.5334 15.9547ZM16.5334 11.4696C16.2882 11.4696 16.0795 11.389 15.9073 11.2279C15.7352 11.0618 15.6491 10.863 15.6491 10.6314C15.6491 10.3999 15.7352 10.201 15.9073 10.0349C16.0795 9.8688 16.2882 9.78575 16.5334 9.78575C16.7733 9.78575 16.9768 9.8688 17.1437 10.0349C17.3159 10.201 17.402 10.3999 17.402 10.6314C17.402 10.863 17.3159 11.0618 17.1437 11.2279C16.9768 11.389 16.7733 11.4696 16.5334 11.4696ZM15.5004 13.5989C15.4013 13.5989 15.3152 13.5636 15.2422 13.4932C15.1744 13.4277 15.1404 13.3497 15.1404 13.2591C15.1404 13.1634 15.1744 13.0804 15.2422 13.0099C15.3152 12.9394 15.4013 12.9042 15.5004 12.9042H17.5507C17.6446 12.9042 17.7254 12.9394 17.7932 13.0099C17.8663 13.0753 17.9028 13.1584 17.9028 13.2591C17.9028 13.3497 17.8663 13.4277 17.7932 13.4932C17.7254 13.5636 17.6446 13.5989 17.5507 13.5989H15.5004Z"
		fill="currentColor"
	/>
</svg>
