<svg
	color="rgb(var(--foreground, 0, 0, 0))"
	viewBox="0 0 20 16"
	fill="none"
	xmlns="http://www.w3.org/2000/svg"
>
	<path
		d="M0.117233 14.5933C0.0185077 14.804 -0.017861 15.0146 0.00811925 15.2252C0.0340995 15.4408 0.122424 15.6189 0.273109 15.7593C0.423795 15.9047 0.639653 15.9774 0.92024 15.9774C1.07612 15.9774 1.22419 15.9448 1.36449 15.8796C1.50998 15.8195 1.68143 15.7091 1.87888 15.5487L4.01439 13.826C4.09233 13.7659 4.14948 13.7358 4.18585 13.7358C4.22222 13.7358 4.27937 13.7659 4.35732 13.826L6.49282 15.5487C6.69547 15.7091 6.86692 15.8195 7.00721 15.8796C7.1527 15.9448 7.30078 15.9774 7.45146 15.9774C7.73205 15.9774 7.94791 15.9047 8.09859 15.7593C8.25447 15.6189 8.3428 15.4408 8.36358 15.2252C8.38956 15.0146 8.35319 14.804 8.25447 14.5933L4.81715 7.09356V3.6032C4.81715 3.0315 4.84053 2.51747 4.88729 2.06112C4.93926 1.60476 4.98861 1.22865 5.03538 0.932769C5.08734 0.636891 5.11332 0.448833 5.11332 0.368594C5.11332 0.258267 5.07954 0.170506 5.012 0.105313C4.94445 0.0351042 4.85612 0 4.74701 0C4.61191 0 4.45344 0.095283 4.27158 0.285849L2.55694 2.189C2.479 2.27425 2.44783 2.36452 2.46342 2.4598C2.4842 2.55007 2.54395 2.62279 2.64267 2.67795C2.98561 2.81837 3.22461 2.94123 3.35971 3.04655C3.5 3.15186 3.57014 3.33741 3.57014 3.6032V7.07099L0.117233 14.5933ZM0.92024 14.8942L4.13909 7.80818H4.23261L7.45146 14.8942C7.49303 14.9895 7.48524 15.0547 7.42808 15.0898C7.37092 15.1299 7.30598 15.1199 7.23323 15.0597L4.83274 13.1265C4.57813 12.9309 4.36252 12.8331 4.18585 12.8331C4.00918 12.8331 3.79357 12.9309 3.53896 13.1265L1.13847 15.0597C1.06572 15.1199 1.00078 15.1299 0.943621 15.0898C0.886465 15.0547 0.878671 14.9895 0.92024 14.8942ZM5.81476 13.3446C5.91868 13.3446 6.0096 13.3095 6.08754 13.2393C6.16548 13.1641 6.20445 13.0788 6.20445 12.9835C6.20445 12.8883 6.16548 12.803 6.08754 12.7278C6.0148 12.6526 5.92388 12.615 5.81476 12.615C5.72123 12.615 5.6381 12.6526 5.56536 12.7278C5.49261 12.803 5.45624 12.8883 5.45624 12.9835C5.45624 13.0838 5.49001 13.1691 5.55756 13.2393C5.63031 13.3095 5.71603 13.3446 5.81476 13.3446ZM5.41727 12.4043C5.516 12.4043 5.60432 12.3692 5.68226 12.299C5.76021 12.2288 5.79917 12.1436 5.79917 12.0433C5.79917 11.943 5.76021 11.8577 5.68226 11.7875C5.60432 11.7123 5.516 11.6747 5.41727 11.6747C5.31335 11.6747 5.22243 11.7123 5.14449 11.7875C5.07175 11.8627 5.03538 11.948 5.03538 12.0433C5.03538 12.1436 5.07175 12.2288 5.14449 12.299C5.22243 12.3692 5.31335 12.4043 5.41727 12.4043ZM5.0042 11.4565C5.10812 11.4565 5.19645 11.4239 5.26919 11.3587C5.34194 11.2885 5.37831 11.2033 5.37831 11.103C5.37831 11.0027 5.34194 10.9149 5.26919 10.8397C5.19645 10.7645 5.10812 10.7268 5.0042 10.7268C4.90548 10.7268 4.81715 10.767 4.73921 10.8472C4.66647 10.9224 4.6301 11.0077 4.6301 11.103C4.6301 11.1982 4.66647 11.281 4.73921 11.3512C4.81715 11.4214 4.90548 11.4565 5.0042 11.4565ZM7.2722 11.4791L7.82581 12.6676C7.86218 12.2865 7.9557 11.9705 8.10639 11.7198C8.25707 11.464 8.39995 11.2308 8.53505 11.0202C8.67534 10.8096 8.74548 10.5764 8.74548 10.3206C8.74548 10.0649 8.70132 9.8367 8.61298 9.63611C8.52465 9.43551 8.43633 9.24495 8.34799 9.06441C8.25966 8.88388 8.2155 8.69331 8.2155 8.49271C8.2155 8.41248 8.24927 8.37236 8.31682 8.37236C8.40515 8.37236 8.48828 8.41749 8.56622 8.50776C8.64416 8.59803 8.72729 8.70334 8.81562 8.8237C8.90915 8.94405 9.01826 9.05187 9.14296 9.14716C9.27287 9.23742 9.43393 9.28256 9.62618 9.28256C9.80285 9.28256 9.95612 9.23241 10.086 9.13211C10.2159 9.03181 10.3094 8.88638 10.3666 8.69582H10.4289C10.4913 8.8914 10.5874 9.03934 10.7173 9.13963C10.8472 9.23492 11.0005 9.28256 11.1772 9.28256C11.3642 9.28256 11.5227 9.23742 11.6526 9.14716C11.7825 9.05187 11.8916 8.94405 11.9799 8.8237C12.0682 8.70334 12.1514 8.59803 12.2293 8.50776C12.3073 8.41749 12.3878 8.37236 12.4709 8.37236C12.5489 8.37236 12.5878 8.41248 12.5878 8.49271C12.5878 8.69331 12.5437 8.88388 12.4553 9.06441C12.367 9.24495 12.2761 9.43551 12.1826 9.63611C12.0942 9.8367 12.0501 10.0649 12.0501 10.3206C12.0501 10.5313 12.0968 10.7243 12.1903 10.8999C12.2891 11.0704 12.4008 11.2509 12.5255 11.4415C12.6554 11.632 12.7671 11.8502 12.8606 12.0959C12.9593 12.3416 13.0087 12.6375 13.0087 12.9835C13.0087 13.6555 12.7775 14.1821 12.315 14.5632C11.8526 14.9444 11.2136 15.1349 10.3978 15.1349C10.0808 15.1349 9.78467 15.1048 9.50927 15.0447C9.23388 14.9845 8.97411 14.8967 8.72989 14.7814C8.77146 14.9569 8.78705 15.1149 8.77666 15.2553C8.77146 15.3957 8.73509 15.5361 8.66754 15.6765C8.94293 15.7819 9.22349 15.8621 9.50927 15.9173C9.80025 15.9724 10.0964 16 10.3978 16C11.0992 16 11.7123 15.8746 12.2371 15.6239C12.7619 15.3731 13.1698 15.0221 13.4607 14.5708C13.7517 14.1194 13.8972 13.5903 13.8972 12.9835C13.8972 12.6074 13.8478 12.279 13.7491 11.9981C13.6556 11.7173 13.5439 11.4741 13.414 11.2685C13.2893 11.0578 13.1776 10.8773 13.0788 10.7268C12.9801 10.5714 12.9308 10.4335 12.9308 10.3131C12.9308 10.1226 12.9749 9.937 13.0633 9.75647C13.1516 9.57593 13.2399 9.38536 13.3282 9.18477C13.4166 8.98417 13.4607 8.756 13.4607 8.50024C13.4607 8.2194 13.375 7.99122 13.2035 7.8157C13.0321 7.63517 12.8113 7.5449 12.5411 7.5449C12.2969 7.5449 12.0942 7.60257 11.9332 7.71791C11.7773 7.83326 11.6526 7.96364 11.559 8.10908C11.4915 8.21439 11.4266 8.29964 11.3642 8.36483C11.3019 8.43003 11.2473 8.46262 11.2005 8.46262C11.1486 8.46262 11.1096 8.43755 11.0836 8.3874C11.0576 8.33224 11.0369 8.25952 11.0213 8.16925C11.0109 8.07397 11.0083 7.96866 11.0135 7.85332L11.0213 3.25717C11.0213 3.14684 11.0265 3.07914 11.0369 3.05407C11.0473 3.02398 11.081 3.00141 11.1382 2.98637C11.2941 2.94123 11.3824 2.81335 11.4032 2.60273L11.5668 1.06817C11.5772 0.917725 11.5201 0.789845 11.3954 0.684532L10.7251 0.120357C10.6316 0.0401191 10.5225 0 10.3978 0C10.2731 0 10.1614 0.0401191 10.0626 0.120357L9.40016 0.684532C9.27546 0.789845 9.2183 0.917725 9.2287 1.06817L9.38457 2.60273C9.40536 2.80834 9.49628 2.93622 9.65736 2.98637C9.70932 2.9964 9.74049 3.01896 9.75088 3.05407C9.76647 3.08416 9.77426 3.15186 9.77426 3.25717L9.78985 7.85332C9.78985 7.96364 9.78466 8.06645 9.77426 8.16173C9.76387 8.252 9.74309 8.32472 9.71191 8.37988C9.68593 8.43504 9.64956 8.46262 9.6028 8.46262C9.55084 8.46262 9.49369 8.42752 9.43134 8.35731C9.37418 8.2871 9.30923 8.20436 9.23649 8.10908C9.13257 7.97367 9.00268 7.84579 8.8468 7.72544C8.69611 7.60508 8.50128 7.5449 8.26226 7.5449C7.99207 7.5449 7.76842 7.63266 7.59175 7.80818C7.42028 7.9837 7.33455 8.21439 7.33455 8.50024C7.33455 8.756 7.37872 8.98417 7.46705 9.18477C7.55538 9.38536 7.64395 9.57593 7.73228 9.75647C7.82062 9.937 7.86478 10.1226 7.86478 10.3131C7.86478 10.4535 7.79959 10.6165 7.66969 10.8021C7.53979 10.9826 7.4073 11.2083 7.2722 11.4791ZM8.85459 12.8557C8.93773 12.8858 9.01826 12.8832 9.0962 12.8481C9.17414 12.808 9.2287 12.7504 9.25987 12.6751L9.90676 10.96C9.93274 10.8798 9.92754 10.8021 9.89117 10.7268C9.8548 10.6466 9.79765 10.594 9.71971 10.5689C9.63657 10.5388 9.55344 10.5438 9.4703 10.5839C9.39236 10.619 9.33781 10.6742 9.30663 10.7494L8.65975 12.472C8.63377 12.5473 8.63896 12.625 8.67533 12.7052C8.71171 12.7804 8.77146 12.8306 8.85459 12.8557ZM11.9409 12.8557C12.0241 12.8306 12.0838 12.7804 12.1202 12.7052C12.1566 12.625 12.1592 12.5473 12.128 12.472L11.4811 10.7494C11.4499 10.6742 11.3954 10.619 11.3174 10.5839C11.2395 10.5438 11.159 10.5388 11.0758 10.5689C10.9979 10.594 10.9407 10.6466 10.9044 10.7268C10.868 10.8021 10.8628 10.8798 10.8888 10.96L11.5357 12.6751C11.5668 12.7504 11.6214 12.808 11.6993 12.8481C11.7773 12.8832 11.8578 12.8858 11.9409 12.8557ZM16.5084 15.9549C17.5736 15.9549 18.4204 15.7267 19.0492 15.2703C19.6831 14.814 20 14.1997 20 13.4274C20 13.0362 19.9454 12.7127 19.8363 12.457C19.7324 12.1962 19.6103 11.9756 19.47 11.795C19.3349 11.6145 19.2128 11.4515 19.1037 11.3061C18.9998 11.1606 18.9478 11.0052 18.9478 10.8397C18.9478 10.5889 18.9868 10.3407 19.0647 10.095C19.1427 9.84423 19.1817 9.56339 19.1817 9.25247C19.1817 8.73594 19.0024 8.3197 18.6439 8.00376C18.2853 7.68782 17.7788 7.49224 17.1241 7.41702V2.97884C17.1241 2.8284 17.1371 2.72308 17.163 2.66291C17.1942 2.59771 17.254 2.53503 17.3423 2.47485C17.493 2.38458 17.5631 2.27425 17.5527 2.14386L17.4358 0.285849C17.4306 0.200596 17.3995 0.132895 17.3423 0.0827457C17.2903 0.0275819 17.2228 0 17.1397 0H15.8615C15.7835 0 15.716 0.0275819 15.6588 0.0827457C15.6069 0.132895 15.5783 0.200596 15.5731 0.285849L15.4562 2.14386C15.451 2.27425 15.5211 2.38458 15.6666 2.47485C15.7602 2.54004 15.8199 2.60523 15.8459 2.67043C15.8719 2.73061 15.8849 2.83341 15.8849 2.97884V7.41702C15.2302 7.49224 14.7234 7.68782 14.3648 8.00376C14.0063 8.3197 13.8271 8.73594 13.8271 9.25247C13.8271 9.56339 13.866 9.84423 13.944 10.095C14.0219 10.3407 14.0609 10.5889 14.0609 10.8397C14.0609 10.8948 14.0505 10.9575 14.0297 11.0277C14.0089 11.0979 13.9699 11.1882 13.9128 11.2985C13.9907 11.459 14.0531 11.617 14.0998 11.7725C14.1518 11.9229 14.196 12.0759 14.2323 12.2313C14.3986 12.0307 14.5597 11.8151 14.7155 11.5844C14.8714 11.3487 14.9496 11.0954 14.9496 10.8246C14.9496 10.5588 14.9078 10.2931 14.8247 10.0273C14.7467 9.75647 14.7078 9.4982 14.7078 9.25247C14.7078 8.86131 14.8717 8.5905 15.199 8.44006C15.5264 8.2846 15.9628 8.20687 16.5084 8.20687C17.0384 8.20687 17.4696 8.28209 17.8021 8.43254C18.1347 8.57797 18.3009 8.85128 18.3009 9.25247C18.3009 9.4982 18.2594 9.75647 18.1762 10.0273C18.0983 10.2931 18.0593 10.5588 18.0593 10.8246C18.0593 11.0553 18.1113 11.2659 18.2152 11.4565C18.3243 11.6421 18.449 11.8301 18.5893 12.0207C18.7296 12.2062 18.8517 12.4118 18.9556 12.6375C19.0595 12.8582 19.1115 13.1215 19.1115 13.4274C19.1115 13.9489 18.8803 14.3576 18.4179 14.6535C17.9606 14.9544 17.3242 15.1048 16.5084 15.1048C15.3289 15.1048 14.5233 14.8065 14.092 14.2097C14.0297 14.3752 13.9621 14.5206 13.8894 14.646C13.8219 14.7714 13.7439 14.8942 13.6556 15.0146C13.9674 15.3255 14.3674 15.5587 14.8558 15.7142C15.3443 15.8746 15.8952 15.9549 16.5084 15.9549ZM16.5084 11.4339C16.737 11.4339 16.9344 11.3562 17.1007 11.2008C17.267 11.0403 17.3501 10.8472 17.3501 10.6215C17.3501 10.3959 17.267 10.2028 17.1007 10.0423C16.9344 9.88184 16.737 9.8016 16.5084 9.8016C16.2745 9.8016 16.0719 9.88184 15.9005 10.0423C15.7342 10.2028 15.651 10.3959 15.651 10.6215C15.651 10.8472 15.7342 11.0403 15.9005 11.2008C16.0667 11.3562 16.2694 11.4339 16.5084 11.4339ZM15.5108 13.5628H17.4904C17.5839 13.5628 17.6619 13.5302 17.7242 13.465C17.7918 13.4048 17.8255 13.3296 17.8255 13.2393C17.8255 13.144 17.7918 13.0638 17.7242 12.9986C17.6619 12.9334 17.5839 12.9008 17.4904 12.9008H15.5108C15.4172 12.9008 15.3367 12.9359 15.2692 13.0061C15.2016 13.0713 15.1678 13.149 15.1678 13.2393C15.1678 13.3296 15.2016 13.4048 15.2692 13.465C15.3367 13.5302 15.4172 13.5628 15.5108 13.5628Z"
		fill="currentColor"
	/>
</svg>
