<svg
	color="rgb(var(--foreground, 0, 0, 0))"
	viewBox="0 0 15 16"
	fill="none"
	xmlns="http://www.w3.org/2000/svg"
>
	<path
		d="M2.16049 15.5H12.8395C13.2922 15.5 13.678 15.4045 13.9969 15.2135C14.321 15.0225 14.5679 14.7669 14.7377 14.4468C14.9126 14.1319 15 13.7886 15 13.4169C15 13.0142 14.8997 12.6089 14.6991 12.2011L14.4599 11.7442H0.540123L0.300926 12.2088C0.100309 12.6012 0 13.0039 0 13.4169C0 13.7886 0.0848765 14.1319 0.25463 14.4468C0.429527 14.7669 0.67644 15.0225 0.99537 15.2135C1.31944 15.4045 1.70782 15.5 2.16049 15.5ZM1.07253 10.691H5.06944L2.42284 8.03485L1.07253 10.691ZM6.21914 10.691H7.97068L1.31944 4.01575C1.19084 3.88668 1.04681 3.82215 0.887346 3.82215C0.727881 3.82215 0.581276 3.88668 0.447531 4.01575C0.308642 4.14997 0.24177 4.29969 0.246914 4.46489C0.252058 4.62494 0.31893 4.77207 0.447531 4.9063L6.21914 10.691ZM9.17438 10.691H13.9275L9.33642 1.65385C9.16152 1.30279 8.90175 1.02401 8.5571 0.817501C8.21245 0.605834 7.86008 0.5 7.5 0.5C7.13992 0.5 6.78755 0.605834 6.4429 0.817501C6.09825 1.02401 5.83848 1.30279 5.66358 1.65385L3.80401 5.30898L6.9213 8.42979V4.22483C6.9213 4.03382 6.97531 3.88152 7.08333 3.76794C7.19136 3.6492 7.34054 3.58983 7.53086 3.58983C7.72119 3.58983 7.87037 3.6492 7.97839 3.76794C8.09156 3.88152 8.14815 4.03382 8.14815 4.22483V9.65333L9.17438 10.691Z"
		fill="currentColor"
	/>
</svg>
