<svg
	color="rgb(var(--foreground, 0, 0, 0))"
	viewBox="0 0 15 16"
	fill="none"
	xmlns="http://www.w3.org/2000/svg"
>
	<path
		d="M2.42284 8.03485L0.300926 12.2088C0.100309 12.6115 0 13.0142 0 13.4169C0 13.7886 0.0848765 14.1319 0.25463 14.4468C0.429527 14.7669 0.67644 15.0225 0.99537 15.2135C1.31944 15.4045 1.70782 15.5 2.16049 15.5H12.8395C13.2922 15.5 13.678 15.4045 13.9969 15.2135C14.321 15.0225 14.5679 14.7669 14.7377 14.4468C14.9126 14.1319 15 13.7886 15 13.4169C15 13.0142 14.8997 12.6089 14.6991 12.2011L9.33642 1.65385C9.16152 1.30279 8.90175 1.02401 8.5571 0.817501C8.21245 0.605834 7.86008 0.5 7.5 0.5C7.13992 0.5 6.78755 0.605834 6.4429 0.817501C6.09825 1.02401 5.83848 1.30279 5.66358 1.65385L3.80401 5.30898L4.71451 6.21502L6.72068 2.20367C6.80813 2.03846 6.91872 1.90681 7.05247 1.80872C7.19136 1.70547 7.34054 1.65385 7.5 1.65385C7.66461 1.65385 7.81379 1.70547 7.94753 1.80872C8.08128 1.90681 8.19187 2.03846 8.27932 2.20367L12.4923 10.6291H2.50772L3.34877 8.96412L2.42284 8.03485ZM2.16049 14.2842C1.87757 14.2842 1.65638 14.1913 1.49691 14.0054C1.34259 13.8247 1.26543 13.6131 1.26543 13.3704C1.26543 13.2878 1.27315 13.2052 1.28858 13.1226C1.30916 13.0348 1.34002 12.9497 1.38117 12.8671L1.90586 11.8294L13.0864 11.8139L13.6188 12.8671C13.7011 13.0426 13.7423 13.2078 13.7423 13.3627C13.7423 13.6053 13.6626 13.8196 13.5031 14.0054C13.3436 14.1913 13.1224 14.2842 12.8395 14.2842H2.16049ZM8.14815 9.65333V4.22483C8.14815 4.03382 8.09156 3.88152 7.97839 3.76794C7.87037 3.6492 7.72119 3.58983 7.53086 3.58983C7.34054 3.58983 7.19136 3.6492 7.08333 3.76794C6.97531 3.88152 6.9213 4.03382 6.9213 4.22483V8.42204L8.14815 9.65333ZM7.10648 11.5738L7.97839 10.691L1.31944 4.01575C1.19084 3.88668 1.04681 3.82215 0.887346 3.82215C0.727881 3.82215 0.581276 3.88668 0.447531 4.01575C0.308642 4.14997 0.24177 4.29969 0.246914 4.46489C0.252058 4.62494 0.31893 4.77207 0.447531 4.9063L7.10648 11.5738Z"
		fill="currentColor"
	/>
</svg>
