<svg
	color="rgb(var(--foreground, 0, 0, 0))"
	viewBox="0 0 16 16"
	fill="none"
	xmlns="http://www.w3.org/2000/svg"
>
	<path
		d="M8.21219 16C8.41635 16 8.58827 15.9318 8.72796 15.7953C8.87302 15.6589 8.94555 15.491 8.94555 15.2915V9.45065L11.3552 7.27803C11.8119 7.34101 12.2739 7.28066 12.7413 7.09698C13.2141 6.91331 13.6627 6.61418 14.0872 6.19959L9.65474 1.86223C9.2303 2.27681 8.92675 2.70976 8.74408 3.16108C8.56678 3.61239 8.51037 4.06633 8.57484 4.5229L1.0799 12.4026C0.929465 12.5653 0.848876 12.7489 0.83813 12.9536C0.827385 13.1583 0.916033 13.3551 1.10408 13.544L0.0725305 14.8428C0.0241768 14.9058 0 14.9793 0 15.0633C0 15.1472 0.0376084 15.2233 0.112825 15.2915L0.346535 15.5277C0.416379 15.5907 0.491596 15.6248 0.572185 15.63C0.658147 15.6353 0.738737 15.6117 0.813953 15.5592L2.14368 14.5437C2.32635 14.7274 2.52245 14.814 2.73198 14.8035C2.94689 14.793 3.13493 14.7143 3.29611 14.5673L7.47883 10.7889V15.2915C7.47883 15.491 7.54867 15.6589 7.68836 15.7953C7.83342 15.9318 8.00803 16 8.21219 16ZM1.90997 13.0481L9.01809 5.68005C9.08256 5.79551 9.15509 5.90834 9.23568 6.01854C9.32164 6.1235 9.41566 6.22846 9.51774 6.33342C9.61445 6.43312 9.71653 6.52759 9.82398 6.6168C9.93143 6.70077 10.0389 6.77424 10.1463 6.83721L2.65139 13.7723L1.90997 13.0481ZM10.4606 1.06717L14.9011 5.40454C15.3739 4.94798 15.6936 4.45992 15.8601 3.94038C16.0321 3.42084 16.0455 2.90393 15.9004 2.38964C15.7607 1.87535 15.4652 1.39779 15.0139 0.956968C14.5626 0.521394 14.0737 0.235385 13.5472 0.0989405C13.0261 -0.0427521 12.4995 -0.0322563 11.9677 0.130428C11.4358 0.293112 10.9334 0.60536 10.4606 1.06717Z"
		fill="currentColor"
	/>
</svg>
