<svg
	color="rgb(var(--foreground, 0, 0, 0))"
	viewBox="0 0 17 16"
	fill="none"
	xmlns="http://www.w3.org/2000/svg"
>
	<path
		d="M0 13.1135C0 13.9168 0.195929 14.5141 0.587786 14.9053C0.984733 15.3018 1.57506 15.5 2.35878 15.5H14.6412C15.43 15.5 16.0204 15.3018 16.4122 14.9053C16.8041 14.5141 17 13.9168 17 13.1135V5.5C17 4.70188 16.8041 4.10459 16.4122 3.70814C16.0204 3.31168 15.43 3.11346 14.6412 3.11346H2.35878C1.57506 3.11346 0.984733 3.31168 0.587786 3.70814C0.195929 4.10459 0 4.70188 0 5.5V13.1135ZM2.9084 7.70657C2.56743 7.70657 2.27735 7.58399 2.03817 7.33881C1.79898 7.09364 1.67939 6.79369 1.67939 6.43897C1.67939 6.08946 1.79898 5.79212 2.03817 5.54695C2.27735 5.30177 2.56743 5.17919 2.9084 5.17919C3.25445 5.17919 3.54707 5.30177 3.78626 5.54695C4.02545 5.79212 4.14504 6.08946 4.14504 6.43897C4.14504 6.79369 4.02545 7.09364 3.78626 7.33881C3.54707 7.58399 3.25445 7.70657 2.9084 7.70657ZM6.64122 7.70657C6.29517 7.70657 6.00254 7.58399 5.76336 7.33881C5.52417 7.09364 5.40458 6.79369 5.40458 6.43897C5.40458 6.08946 5.52417 5.79212 5.76336 5.54695C6.00254 5.30177 6.29517 5.17919 6.64122 5.17919C6.98219 5.17919 7.27226 5.30177 7.51145 5.54695C7.75064 5.79212 7.87023 6.08946 7.87023 6.43897C7.87023 6.79369 7.75064 7.09364 7.51145 7.33881C7.27226 7.58399 6.98219 7.70657 6.64122 7.70657ZM10.3588 7.70657C10.0178 7.70657 9.72774 7.58399 9.48855 7.33881C9.24936 7.09364 9.12977 6.79369 9.12977 6.43897C9.12977 6.08946 9.24936 5.79212 9.48855 5.54695C9.72774 5.30177 10.0178 5.17919 10.3588 5.17919C10.7048 5.17919 10.9975 5.30177 11.2366 5.54695C11.4758 5.79212 11.5954 6.08946 11.5954 6.43897C11.5954 6.79369 11.4758 7.09364 11.2366 7.33881C10.9975 7.58399 10.7048 7.70657 10.3588 7.70657ZM14.0916 7.70657C13.7455 7.70657 13.4529 7.58399 13.2137 7.33881C12.9746 7.09364 12.855 6.79369 12.855 6.43897C12.855 6.08946 12.9746 5.79212 13.2137 5.54695C13.4529 5.30177 13.7455 5.17919 14.0916 5.17919C14.4326 5.17919 14.7226 5.30177 14.9618 5.54695C15.2061 5.79212 15.3282 6.08946 15.3282 6.43897C15.3282 6.79369 15.2061 7.09364 14.9618 7.33881C14.7226 7.58399 14.4326 7.70657 14.0916 7.70657ZM1.22901 13.0509V9.27934H15.771V13.0509C15.771 13.4525 15.6743 13.7525 15.4809 13.9507C15.2875 14.1489 15.0025 14.248 14.626 14.248H2.37405C2.00254 14.248 1.71756 14.1489 1.51908 13.9507C1.3257 13.7525 1.22901 13.4525 1.22901 13.0509ZM4.05344 4.0759H5.26718V2.40141C5.26718 2.1771 5.33588 1.99974 5.47328 1.86933C5.61578 1.7337 5.79898 1.66588 6.0229 1.66588H10.9847C11.2137 1.66588 11.3969 1.7337 11.5344 1.86933C11.6718 1.99974 11.7405 2.1771 11.7405 2.40141V4.0759H12.9542V2.32316C12.9542 1.75456 12.7863 1.30855 12.4504 0.985133C12.1145 0.661711 11.6514 0.5 11.0611 0.5H5.94656C5.36132 0.5 4.89822 0.661711 4.55725 0.985133C4.22137 1.30855 4.05344 1.75456 4.05344 2.32316V4.0759Z"
		fill="currentColor"
	/>
</svg>
