<svg
	color="rgb(var(--foreground, 0, 0, 0))"
	viewBox="0 0 19 18"
	fill="none"
	xmlns="http://www.w3.org/2000/svg"
>
	<path
		d="M4.09133 17.5H14.8609C15.4287 17.5 15.8692 17.3435 16.1822 17.0305C16.4953 16.7175 16.6519 16.2776 16.6519 15.711V6.76571L15.3703 5.87524V15.379C15.3703 15.6435 15.304 15.8459 15.1713 15.9862C15.0387 16.1265 14.845 16.1967 14.5903 16.1967H4.36196C4.10725 16.1967 3.91091 16.1265 3.77294 15.9862C3.64027 15.8459 3.57394 15.6435 3.57394 15.379V5.88333L2.29242 6.76571V15.711C2.29242 16.2776 2.44896 16.7175 2.76204 17.0305C3.08044 17.3435 3.52353 17.5 4.09133 17.5ZM0 8.49C0 8.6573 0.061025 8.80841 0.183075 8.94333C0.305125 9.07286 0.47228 9.13762 0.684541 9.13762C0.795978 9.13762 0.896802 9.11064 0.987013 9.05667C1.08253 9.0027 1.17274 8.94333 1.25765 8.87857L9.22539 2.07857C9.3156 1.99762 9.40846 1.95714 9.50398 1.95714C9.6048 1.95714 9.70032 1.99762 9.79053 2.07857L17.7583 8.87857C17.8379 8.94333 17.9228 9.0027 18.013 9.05667C18.1085 9.11064 18.212 9.13762 18.3234 9.13762C18.5091 9.13762 18.6683 9.08365 18.801 8.97571C18.9337 8.86238 19 8.70857 19 8.51429C19 8.28762 18.9177 8.10413 18.7532 7.96381L10.4671 0.880476C10.1699 0.626825 9.8489 0.5 9.50398 0.5C9.16436 0.5 8.84597 0.626825 8.54881 0.880476L0.254713 7.96381C0.0849043 8.10413 0 8.27952 0 8.49ZM14.654 4.83905L16.6519 6.55524V2.81524C16.6519 2.63714 16.5988 2.49683 16.4927 2.39429C16.3918 2.28635 16.2539 2.23238 16.0788 2.23238H15.2271C15.0573 2.23238 14.9193 2.28635 14.8132 2.39429C14.707 2.49683 14.654 2.63714 14.654 2.81524V4.83905ZM11.7566 9C11.9476 8.95143 12.0776 8.88937 12.1466 8.81381C12.2209 8.73286 12.2581 8.57635 12.2581 8.34429V6.73333C12.2581 6.57683 12.2209 6.46889 12.1466 6.40952C12.0776 6.34476 11.937 6.33937 11.7248 6.39333L9.37662 6.98429C9.18028 7.03286 9.05027 7.09762 8.98659 7.17857C8.92822 7.25413 8.89904 7.41333 8.89904 7.65619V11.3395C8.89904 11.523 8.87516 11.6471 8.8274 11.7119C8.78495 11.7713 8.6629 11.8279 8.46125 11.8819L7.72099 12.0843C7.35484 12.1814 7.0391 12.346 6.77377 12.5781C6.50845 12.8048 6.37579 13.1178 6.37579 13.5171C6.37579 13.8625 6.49518 14.1486 6.73398 14.3752C6.97277 14.6019 7.29381 14.7152 7.69711 14.7152C8.27021 14.7152 8.73453 14.5263 9.09007 14.1486C9.44561 13.7708 9.62338 13.2851 9.62338 12.6914V9.88238C9.62338 9.73127 9.64195 9.62873 9.6791 9.57476C9.71624 9.52079 9.77992 9.48302 9.87013 9.46143L11.7566 9Z"
		fill="currentColor"
	/>
</svg>
