<svg
	color="rgb(var(--foreground, 0, 0, 0))"
	viewBox="0 0 18 14"
	fill="none"
	xmlns="http://www.w3.org/2000/svg"
>
	<path
		d="M5.91607 0.920152H3.38169V7.41445C3.38169 7.69328 3.45547 7.891 3.60305 8.00761C3.75064 8.12421 3.91601 8.18251 4.09922 8.18251H5.20605C5.38926 8.18251 5.55209 8.12421 5.69459 8.00761C5.84217 7.891 5.91607 7.69328 5.91607 7.41445V0.920152ZM10.2672 0.920152H7.73281V7.41445C7.73281 7.69328 7.80659 7.891 7.95417 8.00761C8.10176 8.12421 8.26459 8.18251 8.44271 8.18251H9.55729C9.7405 8.18251 9.90333 8.12421 10.0458 8.00761C10.1934 7.891 10.2672 7.69328 10.2672 7.41445V0.920152ZM14.6183 0.920152H12.0839V7.41445C12.0839 7.69328 12.1552 7.891 12.2977 8.00761C12.4452 8.12421 12.6107 8.18251 12.7939 8.18251H13.9084C14.0916 8.18251 14.2545 8.12421 14.3969 8.00761C14.5445 7.891 14.6183 7.69328 14.6183 7.41445V0.920152ZM4.29769 6.82129V13.1407H5.00759V6.82129H4.29769ZM8.64881 6.82129V13.1407H9.35883V6.82129H8.64881ZM13 6.82129V13.1407H13.7099V6.82129H13ZM2.39699 14H15.603C16.4071 14 17.0077 13.8023 17.4046 13.4068C17.8015 13.0165 18 12.4309 18 11.6502V2.35741C18 1.57668 17.8015 0.988593 17.4046 0.593156C17.0077 0.197719 16.4071 0 15.603 0H2.39699C1.598 0 0.997436 0.197719 0.5954 0.593156C0.198453 0.983524 0 1.57161 0 2.35741V11.6502C0 12.4309 0.198453 13.0165 0.5954 13.4068C0.997436 13.8023 1.598 14 2.39699 14ZM2.41225 12.7757C2.03057 12.7757 1.73786 12.6768 1.5343 12.4791C1.33074 12.2763 1.22897 11.9772 1.22897 11.5817V2.42586C1.22897 2.03042 1.33074 1.73131 1.5343 1.52852C1.73786 1.32573 2.03057 1.22433 2.41225 1.22433H15.5877C15.9643 1.22433 16.2545 1.32573 16.4581 1.52852C16.6667 1.73131 16.771 2.03042 16.771 2.42586V11.5817C16.771 11.9772 16.6667 12.2763 16.4581 12.4791C16.2545 12.6768 15.9643 12.7757 15.5877 12.7757H2.41225Z"
		fill="currentColor"
	/>
</svg>
