<svg
	color="rgb(var(--foreground, 0, 0, 0))"
	viewBox="0 0 18 16"
	fill="none"
	xmlns="http://www.w3.org/2000/svg"
>
	<path
		d="M0 13.9047C0 14.3168 0.0938314 14.6807 0.281494 14.9965C0.47437 15.3123 0.737619 15.5585 1.07124 15.7351C1.41008 15.9117 1.79583 16 2.2285 16C2.52042 16 2.83058 15.9411 3.15899 15.8234C3.49261 15.7056 3.80539 15.521 4.09731 15.2694C4.39444 15.0179 4.63684 14.6861 4.8245 14.274C5.01216 13.8618 5.10599 13.3641 5.10599 12.7807V4.63221C5.10599 4.48771 5.05387 4.36193 4.94961 4.25489C4.85056 4.14785 4.72806 4.09433 4.5821 4.09433C4.43614 4.09433 4.31103 4.14785 4.20678 4.25489C4.10252 4.36193 4.05039 4.48771 4.05039 4.63221V10.5329C4.05039 10.7309 4.01129 10.8941 3.9331 11.0226C3.85491 11.1457 3.7298 11.2233 3.55778 11.2554L2.31451 11.5203C1.52737 11.6916 0.943527 11.9806 0.562989 12.3874C0.187663 12.7888 0 13.2945 0 13.9047ZM7.09991 9.81034C7.09991 10.2224 7.19374 10.5864 7.38141 10.9022C7.57428 11.2126 7.83753 11.4588 8.17115 11.6407C8.50999 11.8174 8.89574 11.9057 9.32841 11.9057C9.61512 11.9057 9.92528 11.8468 10.2589 11.7291C10.5925 11.6113 10.9053 11.4267 11.1972 11.1751C11.4944 10.9182 11.7368 10.5864 11.9244 10.1796C12.1121 9.76752 12.2059 9.2671 12.2059 8.67837V0.537883C12.2059 0.388025 12.1538 0.262251 12.0495 0.160562C11.9505 0.0535207 11.828 0 11.682 0C11.5361 0 11.4109 0.0535207 11.3067 0.160562C11.2024 0.262251 11.1503 0.388025 11.1503 0.537883V6.43853C11.1503 6.63656 11.1112 6.79712 11.033 6.92022C10.9548 7.04332 10.8297 7.1236 10.6577 7.16106L9.41442 7.42599C8.62207 7.59726 8.03823 7.88359 7.6629 8.285C7.28758 8.6864 7.09991 9.19485 7.09991 9.81034ZM12.894 13.9047C12.894 14.3168 12.9878 14.6807 13.1755 14.9965C13.3684 15.3123 13.6316 15.5585 13.9652 15.7351C14.2989 15.9117 14.6846 16 15.1225 16C15.4092 16 15.7168 15.9411 16.0452 15.8234C16.3788 15.711 16.6942 15.5263 16.9913 15.2694C17.2884 15.0179 17.5308 14.6861 17.7185 14.274C17.9062 13.8672 18 13.3695 18 12.7807V4.63221C18 4.48771 17.9479 4.36193 17.8436 4.25489C17.7394 4.14785 17.6169 4.09433 17.4761 4.09433C17.3301 4.09433 17.205 4.14785 17.1008 4.25489C16.9965 4.36193 16.9444 4.48771 16.9444 4.63221V10.5329C16.9444 10.7309 16.9027 10.8941 16.8193 11.0226C16.7411 11.1457 16.6186 11.2233 16.4518 11.2554L15.2007 11.5283C14.4136 11.6943 13.8323 11.9806 13.457 12.3874C13.0817 12.7888 12.894 13.2945 12.894 13.9047Z"
		fill="currentColor"
	/>
</svg>
