<svg
	color="rgb(var(--foreground, 0, 0, 0))"
	viewBox="0 0 26 18"
	fill="none"
	xmlns="http://www.w3.org/2000/svg"
>
	<path
		d="M9.30152 15.2736C10.5694 14.9359 11.5859 14.404 12.3507 13.6781C13.1156 12.9471 13.6109 12.0573 13.8367 11.0088C14.0677 9.95515 14.0061 8.77803 13.6519 7.4774L12.2045 2.18412C12.0094 1.46827 11.6758 0.981796 11.2035 0.724694C10.7313 0.462551 10.1254 0.429783 9.38621 0.62639L1.75582 2.61515C1.01152 2.80671 0.503387 3.13187 0.231331 3.59062C-0.035592 4.04937 -0.0715203 4.64172 0.123539 5.36765L1.55564 10.6609C1.90469 11.9565 2.44618 13.0051 3.18022 13.8066C3.91426 14.6032 4.79987 15.13 5.83677 15.3871C6.8788 15.6442 8.03363 15.6064 9.30152 15.2736ZM8.97044 14.0713C7.96435 14.3334 7.04561 14.3612 6.21404 14.1545C5.38761 13.9428 4.68187 13.5142 4.09669 12.869C3.51152 12.2237 3.07757 11.3793 2.79525 10.3358L1.36315 5.09543C1.27075 4.75766 1.28615 4.48292 1.40935 4.27119C1.53254 4.05946 1.76351 3.9057 2.1023 3.80992L9.69419 1.8136C10.033 1.72285 10.3127 1.74302 10.5334 1.87409C10.7542 2.00012 10.9084 2.23202 10.9956 2.56978L12.42 7.81012C12.7075 8.85869 12.7614 9.80644 12.5817 10.6534C12.4021 11.4952 12.0069 12.2086 11.396 12.7934C10.7903 13.3781 9.98167 13.8041 8.97044 14.0713ZM8.55467 12.5211C9.36571 12.2993 10.015 11.9086 10.5026 11.349C10.9903 10.7844 11.2472 10.1266 11.2728 9.37541C11.278 9.18385 11.2112 9.05782 11.0726 8.99732C10.934 8.93683 10.7824 8.9696 10.6181 9.09563C10.0945 9.45859 9.58128 9.72578 9.07823 9.89718C8.58032 10.0635 8.20051 10.182 7.93872 10.2526C7.67693 10.3232 7.28428 10.4089 6.7607 10.5097C6.24225 10.6105 5.6597 10.6307 5.01293 10.5702C4.8076 10.545 4.65876 10.5929 4.56636 10.7139C4.4791 10.8348 4.48936 10.971 4.59716 11.1222C5.00268 11.7624 5.55956 12.2086 6.26794 12.4606C6.97631 12.7077 7.7385 12.7278 8.55467 12.5211ZM4.78964 7.70425C5.06683 7.63368 5.2824 7.63368 5.4364 7.70425C5.59039 7.76979 5.72641 7.78743 5.84447 7.75719C5.9266 7.73702 5.98306 7.67905 6.01386 7.58326C6.04465 7.48748 6.04209 7.37153 6.00616 7.23542C5.92403 6.89766 5.72385 6.64056 5.4056 6.46411C5.09248 6.28767 4.76656 6.24986 4.42777 6.35069C4.08385 6.43639 3.81928 6.63047 3.63449 6.93295C3.44969 7.23542 3.40607 7.55302 3.5036 7.88574C3.54466 8.02689 3.60393 8.13275 3.68092 8.20333C3.75792 8.26887 3.83748 8.29155 3.91961 8.27139C4.03254 8.2361 4.13775 8.1504 4.23528 8.01429C4.33281 7.87817 4.51759 7.77483 4.78964 7.70425ZM9.34772 6.4868C9.6249 6.41622 9.84048 6.41622 9.99447 6.4868C10.1485 6.55234 10.2845 6.5725 10.4025 6.54729C10.4847 6.52209 10.5411 6.46159 10.5719 6.36581C10.6079 6.27003 10.6053 6.15408 10.5642 6.01797C10.4821 5.68021 10.2845 5.42562 9.97137 5.25422C9.65825 5.07778 9.33233 5.03997 8.99354 5.1408C8.64449 5.22146 8.37759 5.41554 8.1928 5.72306C8.00801 6.02553 7.96438 6.3406 8.06191 6.66828C8.10297 6.80944 8.162 6.9153 8.239 6.98588C8.31599 7.05646 8.39555 7.07914 8.47768 7.05394C8.59574 7.01865 8.70096 6.93295 8.79336 6.79683C8.89089 6.66072 9.07566 6.55738 9.34772 6.4868ZM16.7009 17.2246C17.9637 17.5523 19.1136 17.5875 20.1505 17.3304C21.1874 17.0733 22.0702 16.544 22.7991 15.7425C23.5332 14.946 24.0772 13.8999 24.4314 12.6043L25.8791 7.3186C26.0742 6.60275 26.0331 6.01545 25.756 5.5567C25.4839 5.0929 24.9755 4.76271 24.2312 4.5661L16.6085 2.56222C15.8694 2.37065 15.2663 2.40594 14.7992 2.66808C14.332 2.93022 13.9984 3.42174 13.7982 4.14264L13.1669 6.41118L13.6904 9.33004L15.007 4.51317C15.0994 4.1754 15.2534 3.94603 15.469 3.82504C15.6846 3.69901 15.9618 3.68136 16.3006 3.77211L23.8925 5.76087C24.2312 5.85161 24.4622 6.00536 24.5854 6.22214C24.7086 6.43891 24.724 6.7187 24.6316 7.0615L23.1995 12.2943C22.9172 13.3428 22.4835 14.1873 21.8983 14.8275C21.3131 15.4728 20.6074 15.8987 19.7809 16.1054C18.9545 16.3121 18.033 16.2844 17.0166 16.0223C15.8411 15.7047 14.9326 15.1652 14.291 14.404C13.6545 13.6428 13.3388 12.7102 13.344 11.6062L12.2968 13.4739C12.5894 14.3965 13.1104 15.1753 13.8598 15.8105C14.6093 16.4457 15.5562 16.9171 16.7009 17.2246ZM16.4545 9.2393C16.7369 9.31492 17.0063 9.28215 17.263 9.141C17.5248 8.9948 17.6942 8.78055 17.7712 8.49824C17.8481 8.21593 17.8122 7.94875 17.6634 7.69669C17.5145 7.43959 17.2938 7.27071 17.0012 7.19005C16.7189 7.11443 16.4494 7.15224 16.1928 7.30348C15.9361 7.44967 15.7667 7.66392 15.6846 7.94623C15.6076 8.22854 15.6435 8.49572 15.7924 8.74778C15.9464 8.99984 16.1671 9.16368 16.4545 9.2393ZM20.9744 10.4265C21.2618 10.4971 21.5338 10.4593 21.7905 10.3131C22.0472 10.1669 22.214 9.95263 22.291 9.67032C22.368 9.38802 22.332 9.12083 22.1832 8.86877C22.0343 8.61671 21.8162 8.45287 21.5287 8.37725C21.2413 8.30164 20.9692 8.33692 20.7126 8.48312C20.4559 8.62427 20.2917 8.836 20.2198 9.11831C20.1377 9.40062 20.171 9.67032 20.3199 9.92743C20.4688 10.1795 20.6869 10.3458 20.9744 10.4265ZM17.7327 13.3227C18.1587 13.4336 18.5542 13.5924 18.9186 13.7991C19.2882 14.0007 19.6731 14.278 20.0735 14.6309C20.2275 14.767 20.3815 14.7998 20.5355 14.7292C20.6895 14.6636 20.7613 14.5301 20.7511 14.3284C20.7254 13.663 20.4816 13.0757 20.0196 12.5665C19.5576 12.0523 18.9571 11.7019 18.218 11.5154C17.4788 11.3188 16.7779 11.3289 16.1158 11.5457C15.4587 11.7624 14.948 12.1506 14.5836 12.7102C14.4758 12.8715 14.4707 13.0227 14.5682 13.1639C14.6708 13.305 14.8248 13.3529 15.0301 13.3076C15.5435 13.1967 16.0157 13.1437 16.4468 13.1488C16.878 13.1488 17.3066 13.2067 17.7327 13.3227Z"
		fill="currentColor"
	/>
</svg>
