<svg
	color="rgb(var(--foreground, 0, 0, 0))"
	viewBox="0 0 26 18"
	fill="none"
	xmlns="http://www.w3.org/2000/svg"
>
	<path
		d="M9.29295 15.2687C10.5609 14.9358 11.5774 14.4037 12.3423 13.6724C13.1123 12.941 13.6102 12.0508 13.8361 11.0016C14.0671 9.95252 14.0029 8.7773 13.6436 7.47598L12.2037 2.17994C12.0087 1.46876 11.6725 0.984546 11.1951 0.72731C10.7228 0.465029 10.1194 0.429722 9.38535 0.621389L1.75456 2.61119C1.01535 2.8079 0.509756 3.13575 0.237686 3.59474C-0.034385 4.04869 -0.0728816 4.63882 0.122188 5.36513L1.55436 10.6536C1.90856 11.9499 2.45032 12.999 3.17927 13.801C3.91335 14.5979 4.79877 15.125 5.83572 15.3822C6.87266 15.6395 8.025 15.6016 9.29295 15.2687ZM8.56916 12.5602C7.76322 12.7619 6.99842 12.7392 6.27461 12.4921C5.5508 12.2399 4.98361 11.791 4.57294 11.1454C4.49081 11.0243 4.47797 10.9184 4.53444 10.8276C4.59604 10.7318 4.70383 10.6889 4.85783 10.699C5.36604 10.7394 5.90243 10.7242 6.4671 10.6536C7.03178 10.583 7.5348 10.4897 7.97627 10.3737C8.40748 10.2627 8.88227 10.1013 9.40075 9.88947C9.91922 9.67763 10.3917 9.42543 10.8178 9.13289C10.9461 9.0421 11.0616 9.02445 11.1643 9.07993C11.2669 9.13037 11.3157 9.23377 11.3105 9.39013C11.2797 10.1467 11.018 10.81 10.5252 11.3799C10.0324 11.9448 9.38024 12.3383 8.56916 12.5602ZM4.68844 7.58947C4.49337 7.64495 4.34708 7.71557 4.24955 7.80131C4.15201 7.88706 4.06989 7.96776 4.00315 8.04342C3.94155 8.11403 3.86969 8.15438 3.78756 8.16447C3.72596 8.17456 3.66436 8.15186 3.60276 8.09638C3.54116 8.03585 3.49496 7.95011 3.46416 7.83914C3.37176 7.51634 3.41282 7.20866 3.58736 6.91612C3.76703 6.61853 4.02367 6.42939 4.35734 6.34868C4.69102 6.26798 5.00669 6.31085 5.30443 6.4773C5.60216 6.64375 5.79465 6.88333 5.88191 7.19605C5.91785 7.31206 5.92298 7.41041 5.89731 7.49112C5.87165 7.57182 5.82802 7.62226 5.76642 7.64243C5.67402 7.67774 5.57649 7.68026 5.47382 7.65C5.37629 7.61469 5.26336 7.58443 5.13503 7.55921C5.01183 7.53399 4.86297 7.54408 4.68844 7.58947ZM9.38535 6.34112C9.19541 6.3966 9.04912 6.46721 8.94645 6.55296C8.84892 6.6387 8.76679 6.71688 8.70006 6.7875C8.63846 6.85811 8.5666 6.89846 8.48446 6.90855C8.428 6.92368 8.36897 6.90099 8.30737 6.84046C8.24577 6.77993 8.197 6.69671 8.16107 6.59079C8.06867 6.27303 8.1123 5.96535 8.29197 5.66776C8.47164 5.37018 8.72571 5.18103 9.05425 5.10033C9.39306 5.01458 9.70897 5.05746 10.0016 5.22895C10.2993 5.3954 10.4918 5.63498 10.5791 5.9477C10.615 6.06371 10.6201 6.16206 10.5945 6.24276C10.5688 6.32346 10.5252 6.3739 10.4636 6.39408C10.3712 6.42939 10.2736 6.43191 10.171 6.40164C10.0734 6.36634 9.96027 6.33607 9.83194 6.31085C9.70873 6.28564 9.55988 6.29572 9.38535 6.34112ZM24.2311 4.57073L16.608 2.56579C15.9304 2.38422 15.3581 2.3943 14.891 2.59606C14.429 2.79781 14.1005 3.19375 13.9054 3.78388L13.813 4.10921L14.66 7.21118C15.0861 8.75964 15.1348 10.1694 14.8063 11.4405C14.4829 12.7115 13.8284 13.7707 12.8428 14.6181C13.2176 15.2334 13.7334 15.763 14.3905 16.2069C15.0476 16.6508 15.8201 16.9887 16.7081 17.2207C17.9658 17.5536 19.1107 17.5889 20.1425 17.3266C21.1795 17.0694 22.0623 16.5398 22.7913 15.7378C23.5253 14.9409 24.0697 13.8943 24.4239 12.598L25.8791 7.3171C26.0742 6.60088 26.0331 6.01327 25.7559 5.55428C25.4787 5.09529 24.9703 4.76744 24.2311 4.57073ZM16.4694 9.15559C16.2076 9.09002 16.0075 8.94122 15.8689 8.70921C15.7303 8.47719 15.6969 8.22752 15.7688 7.96019C15.8406 7.70296 15.9946 7.50625 16.2308 7.37006C16.4669 7.23388 16.7184 7.20109 16.9853 7.27171C17.2523 7.34232 17.4553 7.49616 17.5939 7.73322C17.7325 7.97028 17.7658 8.21743 17.694 8.47467C17.6221 8.73695 17.4655 8.93366 17.2243 9.0648C16.9881 9.19594 16.7364 9.2262 16.4694 9.15559ZM20.9895 10.3434C20.7277 10.2728 20.5275 10.1215 20.3889 9.88947C20.2554 9.65241 20.2246 9.40274 20.2965 9.14046C20.3632 8.87817 20.5147 8.68147 20.7508 8.55032C20.9869 8.41918 21.2384 8.38892 21.5054 8.45954C21.7775 8.52511 21.9802 8.67642 22.1137 8.91348C22.2523 9.1455 22.2856 9.39265 22.2138 9.65493C22.1419 9.91216 21.9879 10.1089 21.7518 10.2451C21.5156 10.3812 21.2616 10.414 20.9895 10.3434ZM17.7479 13.2487C17.3475 13.1377 16.9443 13.0822 16.5387 13.0822C16.1332 13.0772 15.6841 13.1276 15.1913 13.2335C15.0373 13.2688 14.9218 13.2361 14.8448 13.1352C14.7729 13.0343 14.778 12.9233 14.8602 12.8023C15.0809 12.4593 15.3658 12.1869 15.7149 11.9852C16.0691 11.7834 16.4566 11.6573 16.8775 11.6069C17.2985 11.5565 17.7273 11.5918 18.1637 11.7128C18.8361 11.8793 19.3828 12.197 19.8037 12.6661C20.2298 13.1301 20.4531 13.6648 20.4736 14.2701C20.4839 14.4214 20.43 14.5222 20.3119 14.5727C20.199 14.6231 20.0861 14.5979 19.9731 14.497C19.5881 14.154 19.2211 13.8867 18.872 13.6951C18.5281 13.4983 18.1534 13.3496 17.7479 13.2487Z"
		fill="currentColor"
	/>
</svg>
