<svg
	color="rgb(var(--foreground, 0, 0, 0))"
	viewBox="0 0 17 18"
	fill="none"
	xmlns="http://www.w3.org/2000/svg"
>
	<path
		d="M4.38287 8.87495V11.9357L1.18434 15.1499L2.33646 16.2967L5.47859 13.1552L8.65295 13.1471C8.91076 13.1471 9.16858 13.1013 9.4264 13.0098C9.68421 12.9183 9.90711 12.7783 10.0951 12.5899L16.7661 5.99993C16.9272 5.83842 17.0051 5.64459 16.9997 5.41847C16.9944 5.19234 16.9165 5.00121 16.7661 4.84508C16.6103 4.68356 16.417 4.6028 16.186 4.6028C15.9604 4.6028 15.7697 4.68356 15.614 4.84508L9.20081 11.2816C9.08264 11.3946 8.95373 11.4835 8.81408 11.5481C8.67443 11.6127 8.52135 11.645 8.35485 11.645H6.10702L5.98616 11.4996V9.07685C5.98616 8.90995 6.01571 8.7565 6.07479 8.61652C6.13924 8.47116 6.22787 8.34194 6.34066 8.22888L12.6733 1.89738C12.829 1.73586 12.9042 1.54204 12.8989 1.31592C12.8989 1.08979 12.8237 0.895971 12.6733 0.734453C12.5175 0.578319 12.3241 0.500252 12.0932 0.500252C11.8676 0.494868 11.6769 0.575627 11.5212 0.742529L4.94684 7.42937C4.74811 7.62857 4.60577 7.8547 4.51984 8.10774C4.4339 8.3554 4.38824 8.61114 4.38287 8.87495ZM1.50661 17.5C1.78591 17.5 2.03836 17.43 2.26395 17.29C2.49491 17.1554 2.67753 16.9724 2.81181 16.7409C2.95146 16.5147 3.02128 16.2617 3.02128 15.9817C3.02128 15.7018 2.95146 15.446 2.81181 15.2145C2.67753 14.983 2.49491 14.8 2.26395 14.6654C2.03836 14.5308 1.78591 14.4635 1.50661 14.4635C1.22731 14.4635 0.974867 14.5335 0.749278 14.6734C0.523689 14.808 0.341069 14.9884 0.201419 15.2145C0.0671396 15.446 0 15.7018 0 15.9817C0 16.2617 0.0671396 16.5147 0.201419 16.7409C0.341069 16.9724 0.523689 17.1554 0.749278 17.29C0.980238 17.43 1.23268 17.5 1.50661 17.5Z"
		fill="currentColor"
	/>
</svg>
