<svg
	color="rgb(var(--foreground, 0, 0, 0))"
	viewBox="0 0 13 20"
	fill="none"
	xmlns="http://www.w3.org/2000/svg"
>
	<path
		d="M4.0858 20H8.9142C10.2892 20 11.3165 19.6491 11.9961 18.9474C12.6758 18.2456 13.0103 17.193 12.9998 15.7895C12.984 14.1839 12.9681 12.7884 12.9523 11.6029C12.9365 10.412 12.9102 9.38065 12.8733 8.50877C12.8154 7.22754 12.6705 6.15896 12.4387 5.30303C12.2069 4.44179 11.8486 3.7613 11.364 3.26156C10.8845 2.76183 10.2471 2.40564 9.45156 2.19298C8.66132 1.97501 7.67878 1.86603 6.50395 1.86603C5.32385 1.86603 4.33605 1.97501 3.54054 2.19298C2.75029 2.40564 2.11283 2.76183 1.62814 3.26156C1.14873 3.7613 0.79312 4.44179 0.561315 5.30303C0.32951 6.15896 0.184632 7.22754 0.12668 8.50877C0.0898023 9.38065 0.0634608 10.412 0.047656 11.6029C0.0318511 12.7884 0.0160462 14.1839 0.000241296 15.7895C-0.0102953 17.193 0.324241 18.2456 1.00385 18.9474C1.68346 19.6491 2.71078 20 4.0858 20ZM3.85663 16.8341C3.51946 16.8341 3.24815 16.7305 3.04268 16.5231C2.84249 16.3211 2.74239 16.0526 2.74239 15.7177V11.6029C2.74239 11.2626 2.84249 10.9915 3.04268 10.7895C3.24815 10.5821 3.51946 10.4785 3.85663 10.4785H9.15127C9.48844 10.4785 9.75712 10.5821 9.95732 10.7895C10.1575 10.9915 10.2576 11.2626 10.2576 11.6029V15.7177C10.2576 16.0526 10.1575 16.3211 9.95732 16.5231C9.75712 16.7305 9.48844 16.8341 9.15127 16.8341H3.85663ZM2.74239 13.5486H10.2576V12.5997H2.74239V13.5486ZM6.50395 0C5.9982 0 5.55039 0.106326 5.16054 0.318979C4.77595 0.531632 4.47302 0.821372 4.25176 1.1882C4.03049 1.55502 3.91985 1.97501 3.91985 2.44817H5.0341C5.0341 2.06007 5.17107 1.74375 5.44502 1.4992C5.71898 1.24934 6.07195 1.1244 6.50395 1.1244C6.93595 1.1244 7.28893 1.24934 7.56288 1.4992C7.83683 1.74375 7.97381 2.06007 7.97381 2.44817H9.08805C9.08805 1.97501 8.97742 1.55502 8.75615 1.1882C8.53488 0.821372 8.22932 0.531632 7.83946 0.318979C7.45488 0.106326 7.00971 0 6.50395 0Z"
		fill="currentColor"
	/>
</svg>
