<svg
	color="rgb(var(--foreground, 0, 0, 0))"
	viewBox="0 0 13 20"
	fill="none"
	xmlns="http://www.w3.org/2000/svg"
>
	<path
		d="M4.0858 20H8.9142C10.2892 20 11.3165 19.6491 11.9961 18.9474C12.6758 18.2456 13.0103 17.193 12.9998 15.7895C12.984 14.1839 12.9681 12.7884 12.9523 11.6029C12.9365 10.412 12.9102 9.38065 12.8733 8.50877C12.8154 7.22754 12.6705 6.15896 12.4387 5.30303C12.2069 4.44179 11.8486 3.7613 11.364 3.26156C10.8845 2.76183 10.2471 2.40564 9.45156 2.19298C8.66132 1.97501 7.67878 1.86603 6.50395 1.86603C5.32385 1.86603 4.33605 1.97501 3.54054 2.19298C2.75029 2.40564 2.11283 2.76183 1.62814 3.26156C1.14873 3.7613 0.79312 4.44179 0.561315 5.30303C0.32951 6.15896 0.184632 7.22754 0.12668 8.50877C0.0898023 9.38065 0.0634608 10.412 0.047656 11.6029C0.0318511 12.7884 0.0160462 14.1839 0.000241296 15.7895C-0.0102953 17.193 0.324241 18.2456 1.00385 18.9474C1.68346 19.6491 2.71078 20 4.0858 20ZM4.0858 18.8278C3.03741 18.8278 2.28405 18.5912 1.82571 18.118C1.37263 17.6502 1.15136 16.8793 1.1619 15.8054C1.17771 14.1999 1.19351 12.807 1.20931 11.6268C1.22512 10.4466 1.2541 9.42584 1.29624 8.56459C1.34366 7.43753 1.45429 6.51515 1.62814 5.79745C1.802 5.07443 2.07595 4.51356 2.45 4.11483C2.82932 3.71079 3.34561 3.43169 3.99888 3.27751C4.65215 3.12334 5.48717 3.04625 6.50395 3.04625C7.51546 3.04625 8.34785 3.12334 9.00112 3.27751C9.65966 3.43169 10.176 3.71079 10.55 4.11483C10.9293 4.51356 11.2033 5.07443 11.3719 5.79745C11.5457 6.51515 11.659 7.43753 11.7117 8.56459C11.7485 9.42584 11.7749 10.4466 11.7907 11.6268C11.8065 12.807 11.8223 14.1999 11.8381 15.8054C11.8486 16.8793 11.6247 17.6502 11.1664 18.118C10.7133 18.5912 9.96259 18.8278 8.9142 18.8278H4.0858ZM6.50395 0C5.9982 0 5.55039 0.106326 5.16054 0.318979C4.77595 0.531632 4.47302 0.821372 4.25176 1.1882C4.03049 1.55502 3.91985 1.97501 3.91985 2.44817H5.0341C5.0341 2.06007 5.17107 1.74375 5.44502 1.4992C5.71898 1.24934 6.07195 1.1244 6.50395 1.1244C6.93595 1.1244 7.28893 1.24934 7.56288 1.4992C7.83683 1.74375 7.97381 2.06007 7.97381 2.44817H9.08805C9.08805 1.97501 8.97742 1.55502 8.75615 1.1882C8.53488 0.821372 8.22932 0.531632 7.83946 0.318979C7.45488 0.106326 7.00971 0 6.50395 0ZM3.90405 16.8581H9.10386C9.45683 16.8581 9.74132 16.7491 9.95732 16.5311C10.1733 16.3184 10.2813 16.034 10.2813 15.6778V11.6348C10.2813 11.2733 10.1733 10.9862 9.95732 10.7735C9.74132 10.5556 9.45683 10.4466 9.10386 10.4466H3.90405C3.55107 10.4466 3.26395 10.5556 3.04268 10.7735C2.82668 10.9915 2.71868 11.2786 2.71868 11.6348V15.6778C2.71868 16.0287 2.82668 16.3131 3.04268 16.5311C3.26395 16.7491 3.55107 16.8581 3.90405 16.8581ZM4.09371 15.7416C4.01468 15.7416 3.95146 15.7177 3.90405 15.6699C3.85663 15.622 3.83293 15.5609 3.83293 15.4864V11.8262C3.83293 11.7464 3.85663 11.6826 3.90405 11.6348C3.95146 11.5869 4.01468 11.563 4.09371 11.563H8.90629C8.98532 11.563 9.04854 11.5869 9.09595 11.6348C9.14337 11.6826 9.16707 11.7464 9.16707 11.8262V15.4864C9.16707 15.5609 9.14337 15.622 9.09595 15.6699C9.04854 15.7177 8.98532 15.7416 8.90629 15.7416H4.09371ZM3.35088 13.5885H9.64912V12.5837H3.35088V13.5885Z"
		fill="currentColor"
	/>
</svg>
