<svg
	color="rgb(var(--foreground, 0, 0, 0))"
	viewBox="0 0 19 18"
	fill="none"
	xmlns="http://www.w3.org/2000/svg"
>
	<path
		d="M0.976843 17.9454H2.47785C2.79552 17.9454 3.03642 17.8589 3.20055 17.6859C3.36998 17.5129 3.45469 17.267 3.45469 16.948V3.25175C3.45469 2.93279 3.36998 2.68681 3.20055 2.51382C3.03642 2.33542 2.79552 2.24622 2.47785 2.24622H0.976843C0.659171 2.24622 0.415622 2.33542 0.246196 2.51382C0.0820654 2.68681 0 2.93279 0 3.25175V16.948C0 17.267 0.0820654 17.5129 0.246196 17.6859C0.415622 17.8589 0.659171 17.9454 0.976843 17.9454ZM5.36073 17.9454H8.57716C8.89483 17.9454 9.13574 17.8589 9.29987 17.6859C9.46929 17.5129 9.554 17.267 9.554 16.948V6.01695C9.554 5.7034 9.46929 5.46012 9.29987 5.28713C9.13574 5.10873 8.89483 5.01953 8.57716 5.01953H5.36073C5.04305 5.01953 4.7995 5.10873 4.63008 5.28713C4.46065 5.46012 4.37594 5.7034 4.37594 6.01695V16.948C4.37594 17.267 4.46065 17.5129 4.63008 17.6859C4.7995 17.8589 5.04305 17.9454 5.36073 17.9454ZM6.1152 7.91448C5.97225 7.91448 5.85312 7.86582 5.75782 7.76851C5.66252 7.6712 5.61486 7.55227 5.61486 7.41171C5.61486 7.27116 5.66252 7.15492 5.75782 7.06302C5.85312 6.96571 5.97225 6.91706 6.1152 6.91706H7.83857C7.97623 6.91706 8.09006 6.96571 8.18007 7.06302C8.27537 7.15492 8.32302 7.27116 8.32302 7.41171C8.32302 7.55227 8.27537 7.6712 8.18007 7.76851C8.09006 7.86582 7.97623 7.91448 7.83857 7.91448H6.1152ZM6.1152 16.056C5.97225 16.056 5.85312 16.0074 5.75782 15.91C5.66252 15.8127 5.61486 15.6938 5.61486 15.5532C5.61486 15.4127 5.66252 15.2938 5.75782 15.1964C5.85312 15.1045 5.97225 15.0586 6.1152 15.0586H7.83857C7.97623 15.0586 8.09006 15.1045 8.18007 15.1964C8.27537 15.2938 8.32302 15.4127 8.32302 15.5532C8.32302 15.6938 8.27537 15.8127 8.18007 15.91C8.09006 16.0074 7.97623 16.056 7.83857 16.056H6.1152ZM11.46 17.9454H13.4217C13.7393 17.9454 13.9802 17.8589 14.1444 17.6859C14.3138 17.5129 14.3985 17.267 14.3985 16.948V1.00553C14.3985 0.68657 14.3138 0.440594 14.1444 0.2676C13.9802 0.0892 13.7393 0 13.4217 0H11.46C11.1424 0 10.8988 0.0892 10.7294 0.2676C10.5653 0.440594 10.4832 0.68657 10.4832 1.00553V16.948C10.4832 17.267 10.5653 17.5129 10.7294 17.6859C10.8988 17.8589 11.1424 17.9454 11.46 17.9454ZM16.8605 17.986L18.1391 17.7995C18.4515 17.7562 18.6792 17.64 18.8221 17.4508C18.9704 17.2616 19.0259 17.0075 18.9889 16.6885L17.472 3.23553C17.4349 2.92198 17.3237 2.68681 17.1384 2.53004C16.9584 2.37326 16.7096 2.3165 16.3919 2.35975L15.1212 2.54626C14.8088 2.5895 14.5785 2.70573 14.4303 2.89495C14.2873 3.08416 14.2317 3.33554 14.2635 3.64909L15.7883 17.1021C15.8254 17.421 15.9339 17.6589 16.1139 17.8157C16.2993 17.9725 16.5481 18.0292 16.8605 17.986Z"
		fill="currentColor"
	/>
</svg>
