<svg
	color="rgb(var(--foreground, 0, 0, 0))"
	viewBox="0 0 19 18"
	fill="none"
	xmlns="http://www.w3.org/2000/svg"
>
	<path
		d="M0 16.1018C0 16.7244 0.143547 17.1899 0.430641 17.4985C0.722862 17.8124 1.16376 17.9694 1.75333 17.9694H12.258C12.8475 17.9694 13.2859 17.8124 13.573 17.4985C13.8652 17.1899 14.0113 16.7244 14.0113 16.1018V1.87571C14.0113 1.25318 13.8652 0.784928 13.573 0.470957C13.2859 0.156986 12.8475 0 12.258 0H10.7507C10.1611 0 9.72025 0.156986 9.42803 0.470957C9.14093 0.784928 8.99739 1.25318 8.99739 1.87571V5.09932C8.81283 5.0506 8.61801 5.02624 8.41295 5.02624H5.0601C4.85503 5.02624 4.65765 5.0506 4.46796 5.09932V4.12493C4.46796 3.5024 4.32436 3.03415 4.03726 2.72018C3.75017 2.40621 3.31184 2.24922 2.72227 2.24922H1.75333C1.16376 2.24922 0.722862 2.40621 0.430641 2.72018C0.143547 3.03415 0 3.5024 0 4.12493V16.1018ZM1.16119 16.0044V4.21425C1.16119 3.97606 1.22015 3.79472 1.33806 3.67021C1.45598 3.54029 1.63541 3.47533 1.87637 3.47533H2.59923C2.84018 3.47533 3.01705 3.54029 3.12984 3.67021C3.24775 3.79472 3.30671 3.97606 3.30671 4.21425V16.7433H1.87637C1.63541 16.7433 1.45598 16.6811 1.33806 16.5566C1.22015 16.4321 1.16119 16.248 1.16119 16.0044ZM4.46796 16.7433V6.99127C4.46796 6.75308 4.52692 6.57174 4.64483 6.44723C4.76787 6.31731 4.94731 6.25236 5.18314 6.25236H8.28991C8.53086 6.25236 8.70773 6.31731 8.82052 6.44723C8.93843 6.57174 8.99739 6.75308 8.99739 6.99127V16.7433H4.46796ZM10.1586 16.7433V1.96503C10.1586 1.72684 10.2175 1.5455 10.3355 1.42099C10.4585 1.29107 10.6379 1.22611 10.8738 1.22611H12.1349C12.3759 1.22611 12.5553 1.29107 12.6732 1.42099C12.7911 1.5455 12.8501 1.72684 12.8501 1.96503V16.0044C12.8501 16.248 12.7911 16.4321 12.6732 16.5566C12.5553 16.6811 12.3759 16.7433 12.1349 16.7433H10.1586ZM5.16776 7.82762C5.16776 7.96837 5.21133 8.08746 5.29849 8.1849C5.39077 8.28234 5.50868 8.33106 5.65223 8.33106H7.83619C7.97461 8.33106 8.0874 8.28234 8.17455 8.1849C8.26684 8.08746 8.31298 7.96837 8.31298 7.82762C8.31298 7.68688 8.26684 7.57049 8.17455 7.47847C8.0874 7.38103 7.97461 7.33231 7.83619 7.33231H5.65223C5.50868 7.33231 5.39077 7.38103 5.29849 7.47847C5.21133 7.57049 5.16776 7.68688 5.16776 7.82762ZM5.16776 15.1681C5.16776 15.3088 5.21133 15.4279 5.29849 15.5253C5.39077 15.6228 5.50868 15.6715 5.65223 15.6715H7.83619C7.97461 15.6715 8.0874 15.6228 8.17455 15.5253C8.26684 15.4279 8.31298 15.3088 8.31298 15.1681C8.31298 15.0273 8.26684 14.9109 8.17455 14.8189C8.0874 14.7215 7.97461 14.6727 7.83619 14.6727H5.65223C5.50868 14.6727 5.39077 14.7215 5.29849 14.8189C5.21133 14.9109 5.16776 15.0273 5.16776 15.1681ZM14.7034 16.3292C14.7752 16.9463 14.97 17.3956 15.2878 17.6771C15.6057 17.9586 16.0594 18.056 16.649 17.9694L17.4487 17.8558C18.0383 17.7691 18.4561 17.558 18.7022 17.2224C18.9534 16.8868 19.0457 16.4104 18.979 15.7933L17.6564 3.65397C17.5897 3.03686 17.3949 2.58755 17.0719 2.30606C16.7541 2.01916 16.3003 1.92172 15.7108 2.01375L14.911 2.12742C14.3163 2.21404 13.8934 2.42516 13.6422 2.76078C13.391 3.0964 13.3012 3.57277 13.373 4.18989L14.7034 16.3292ZM15.8415 16.0856L14.5419 4.14117C14.5163 3.90299 14.5547 3.71623 14.6572 3.58089C14.7598 3.44556 14.9315 3.35895 15.1725 3.32106L15.7262 3.24798C15.962 3.21008 16.1465 3.25068 16.2798 3.36978C16.4131 3.48345 16.4926 3.65668 16.5182 3.88945L17.8178 15.8339C17.8435 16.0775 17.805 16.267 17.7025 16.4023C17.6 16.5376 17.4308 16.6215 17.195 16.654L16.6259 16.7352C16.3901 16.7731 16.2055 16.7352 16.0722 16.6215C15.944 16.5078 15.8671 16.3292 15.8415 16.0856Z"
		fill="currentColor"
	/>
</svg>
