<svg
	color="rgb(var(--foreground, 0, 0, 0))"
	viewBox="0 0 13 18"
	fill="none"
	xmlns="http://www.w3.org/2000/svg"
>
	<path
		d="M2.37277 17.5H12.3817C12.5517 17.5 12.696 17.4365 12.8145 17.3096C12.9382 17.188 13 17.0399 13 16.8654C13 16.7279 12.9588 16.6009 12.8763 16.4846C12.7939 16.3735 12.6908 16.2969 12.5672 16.2545C12.2426 16.1223 12.0081 15.9055 11.8639 15.6041C11.7247 15.3079 11.6912 14.98 11.7634 14.6204C11.8355 14.2555 12.0313 13.9064 12.3508 13.5733C12.495 13.4252 12.6393 13.2401 12.7836 13.018C12.9279 12.7958 13 12.4865 13 12.0898V2.9909C13 2.16589 12.799 1.54449 12.3971 1.12669C12.0004 0.708897 11.4027 0.5 10.604 0.5H2.39596C1.5973 0.5 0.997027 0.708897 0.595125 1.12669C0.198375 1.5392 0 2.1606 0 2.9909V15.0488C0 15.8632 0.198375 16.474 0.595125 16.8812C0.991875 17.2937 1.58442 17.5 2.37277 17.5ZM1.24435 12.9148V3.0147C1.24435 2.61806 1.34483 2.31397 1.54578 2.10243C1.75188 1.8856 2.05331 1.77718 2.45006 1.77718H10.5422C10.9441 1.77718 11.2455 1.8856 11.4465 2.10243C11.6526 2.31397 11.7556 2.61806 11.7556 3.0147V11.9153C11.7556 12.3648 11.5315 12.5896 11.0832 12.5896H2.50416C2.25168 12.5896 2.01982 12.6187 1.80856 12.6769C1.60246 12.7297 1.41439 12.8091 1.24435 12.9148ZM2.44233 16.2228C2.05073 16.2228 1.75188 16.1197 1.54578 15.9134C1.34483 15.7072 1.24435 15.4163 1.24435 15.0408C1.24435 14.6865 1.35771 14.4036 1.58442 14.192C1.81629 13.9752 2.12545 13.8668 2.51189 13.8668H10.4417C10.5396 13.8668 10.6298 13.8588 10.7122 13.843C10.5319 14.2555 10.452 14.668 10.4727 15.0805C10.4984 15.4983 10.6143 15.8791 10.8205 16.2228H2.44233ZM2.15636 13.2718H3.16885V1.4678H2.15636V13.2718Z"
		fill="currentColor"
	/>
</svg>
