<svg
	color="rgb(var(--foreground, 0, 0, 0))"
	viewBox="0 0 18 14"
	fill="none"
	xmlns="http://www.w3.org/2000/svg"
>
	<path
		d="M4.40816 0C3.835 0 3.26704 0.0839695 2.7043 0.251908C2.14676 0.419847 1.63873 0.661578 1.1802 0.977099C0.721667 1.29262 0.359531 1.67684 0.0937907 2.12977C0.0468954 2.20611 0.0182371 2.2799 0.00781589 2.35115C0.0026053 2.4173 0 2.52163 0 2.66412V13.4351C0 13.6132 0.0547112 13.7506 0.164134 13.8473C0.273556 13.9491 0.424663 14 0.617455 14C0.711246 14 0.799826 13.9847 0.883196 13.9542C0.971776 13.9237 1.05254 13.8779 1.12549 13.8168C1.62049 13.4046 2.18063 13.0916 2.80591 12.8779C3.43118 12.6692 4.06947 12.5649 4.7208 12.5649C5.12722 12.5649 5.52063 12.6081 5.901 12.6947C6.28137 12.7863 6.6409 12.9135 6.97959 13.0763C7.31828 13.2443 7.62571 13.4453 7.90187 13.6794C7.98524 13.7506 8.07642 13.7863 8.17542 13.7863C8.264 13.7863 8.33695 13.7557 8.39427 13.6947C8.45679 13.6387 8.48806 13.5623 8.48806 13.4656V2.17557C8.48806 2.07379 8.47764 2 8.45679 1.9542C8.44116 1.9084 8.39687 1.83206 8.32393 1.72519C7.93834 1.18575 7.39383 0.763359 6.6904 0.458015C5.99218 0.152672 5.23144 0 4.40816 0ZM13.5918 0C12.7686 0 12.0052 0.152672 11.3018 0.458015C10.6036 0.763359 10.0617 1.18575 9.67607 1.72519C9.60313 1.83206 9.55623 1.9084 9.53539 1.9542C9.51976 2 9.51194 2.07379 9.51194 2.17557V13.4656C9.51194 13.5623 9.5406 13.6387 9.59792 13.6947C9.66044 13.7557 9.736 13.7863 9.82458 13.7863C9.92358 13.7863 10.0148 13.7506 10.0981 13.6794C10.3743 13.4453 10.6817 13.2443 11.0204 13.0763C11.3591 12.9135 11.7186 12.7863 12.099 12.6947C12.4794 12.6081 12.8728 12.5649 13.2792 12.5649C13.9305 12.5649 14.5688 12.6692 15.1941 12.8779C15.8194 13.0916 16.3795 13.4046 16.8745 13.8168C16.9475 13.8779 17.0256 13.9237 17.109 13.9542C17.1976 13.9847 17.2888 14 17.3825 14C17.5753 14 17.7264 13.9491 17.8359 13.8473C17.9453 13.7506 18 13.6132 18 13.4351V2.66412C18 2.52163 17.9948 2.41476 17.9844 2.34351C17.9792 2.27226 17.9531 2.20102 17.9062 2.12977C17.6405 1.67684 17.2783 1.29262 16.8198 0.977099C16.3613 0.661578 15.8506 0.419847 15.2879 0.251908C14.7304 0.0839695 14.165 0 13.5918 0Z"
		fill="currentColor"
	/>
</svg>
