<svg
	color="rgb(var(--foreground, 0, 0, 0))"
	viewBox="0 0 13 18"
	fill="none"
	xmlns="http://www.w3.org/2000/svg"
>
	<path
		d="M2.37277 17.5H12.3817C12.5517 17.5 12.696 17.4365 12.8145 17.3096C12.9382 17.188 13 17.0399 13 16.8654C13 16.7279 12.9588 16.6009 12.8763 16.4846C12.7939 16.3735 12.6908 16.2969 12.5672 16.2545C12.2426 16.1223 12.0081 15.9055 11.8639 15.6041C11.7247 15.3079 11.6912 14.98 11.7634 14.6204C11.8355 14.2555 12.0313 13.9064 12.3508 13.5733C12.495 13.4252 12.6393 13.2401 12.7836 13.018C12.9279 12.7958 13 12.4865 13 12.0898V2.9909C13 2.16589 12.799 1.54449 12.3971 1.12669C12.0004 0.708897 11.4027 0.5 10.604 0.5H2.39596C1.5973 0.5 0.997027 0.708897 0.595125 1.12669C0.198375 1.5392 0 2.1606 0 2.9909V15.0488C0 15.8632 0.198375 16.474 0.595125 16.8812C0.991875 17.2937 1.58442 17.5 2.37277 17.5ZM2.44233 16.2228C2.05073 16.2228 1.75188 16.1197 1.54578 15.9134C1.34483 15.7072 1.24435 15.4163 1.24435 15.0408C1.24435 14.6865 1.35771 14.4036 1.58442 14.192C1.81629 13.9752 2.12545 13.8668 2.51189 13.8668H10.4417C10.5396 13.8668 10.6298 13.8588 10.7122 13.843C10.5319 14.2555 10.452 14.668 10.4727 15.0805C10.4984 15.4983 10.6143 15.8791 10.8205 16.2228H2.44233ZM2.21046 12.661C2.09195 12.661 1.9889 12.616 1.90131 12.5261C1.81371 12.4362 1.76992 12.3278 1.76992 12.2009V2.18175C1.76992 2.05483 1.81371 1.94906 1.90131 1.86444C1.9889 1.77454 2.09195 1.72958 2.21046 1.72958C2.32897 1.72958 2.43203 1.77454 2.51962 1.86444C2.61237 1.94906 2.65874 2.05483 2.65874 2.18175V12.2009C2.65874 12.3278 2.61237 12.4362 2.51962 12.5261C2.43203 12.616 2.32897 12.661 2.21046 12.661ZM5.23246 10.2811C5.07273 10.2811 4.94649 10.2362 4.85375 10.1463C4.761 10.0564 4.71463 9.94004 4.71463 9.79725C4.71463 9.74436 4.71978 9.68883 4.73008 9.63066C4.74039 9.57248 4.761 9.50373 4.79191 9.42441L6.71641 4.09356C6.85553 3.71807 7.11316 3.53033 7.4893 3.53033C7.86544 3.53033 8.12307 3.71807 8.26219 4.09356L10.2021 9.42441C10.2279 9.50373 10.2459 9.57248 10.2562 9.63066C10.2665 9.68883 10.2717 9.74436 10.2717 9.79725C10.2717 9.94004 10.2228 10.0564 10.1249 10.1463C10.0321 10.2362 9.91102 10.2811 9.76159 10.2811C9.63793 10.2811 9.52973 10.2468 9.43698 10.178C9.34939 10.1093 9.27983 9.99292 9.2283 9.82898L8.71819 8.32968H6.26813L5.76576 9.82898C5.70908 9.99821 5.63694 10.1172 5.54935 10.186C5.46175 10.2494 5.35612 10.2811 5.23246 10.2811ZM6.53864 7.47293H8.44768L7.52794 4.74405H7.45838L6.53864 7.47293Z"
		fill="currentColor"
	/>
</svg>
