<svg
	color="rgb(var(--foreground, 0, 0, 0))"
	viewBox="0 0 18 14"
	fill="none"
	xmlns="http://www.w3.org/2000/svg"
>
	<path
		d="M0 12.7485C0 13.0601 0.0918505 13.2813 0.275552 13.412C0.459253 13.5426 0.67267 13.608 0.915804 13.608C1.05088 13.608 1.18325 13.5753 1.31292 13.51C1.44259 13.4497 1.58307 13.3743 1.73435 13.2838C2.1828 13.0023 2.67177 12.7787 3.20126 12.6128C3.73615 12.452 4.28726 12.3741 4.85457 12.3791C5.43809 12.3841 6.0081 12.4872 6.56461 12.6882C7.12652 12.8892 7.6344 13.1933 8.08825 13.6004C8.26655 13.7512 8.42593 13.8542 8.56641 13.9095C8.70689 13.9698 8.85277 14 9.00405 14C9.14993 14 9.29311 13.9698 9.43359 13.9095C9.57947 13.8542 9.73886 13.7512 9.91175 13.6004C10.3656 13.1933 10.8708 12.8892 11.4273 12.6882C11.9892 12.4872 12.5646 12.3841 13.1535 12.3791C13.7154 12.3741 14.2611 12.452 14.7906 12.6128C15.3255 12.7787 15.8172 13.0023 16.2656 13.2838C16.4169 13.3743 16.5574 13.4497 16.6871 13.51C16.8167 13.5753 16.9518 13.608 17.0923 13.608C17.33 13.608 17.5407 13.5426 17.7244 13.412C17.9081 13.2813 18 13.0601 18 12.7485V2.51804C18 2.4527 17.9946 2.39239 17.9838 2.3371C17.973 2.28182 17.946 2.2215 17.9027 2.15617C17.665 1.76916 17.3111 1.41231 16.8411 1.08562C16.371 0.75893 15.8172 0.497577 15.1796 0.301562C14.5475 0.100521 13.8613 0 13.1211 0C12.235 0 11.4273 0.148268 10.6979 0.444803C9.97389 0.736313 9.40928 1.11578 9.00405 1.5832C8.59343 1.11578 8.02341 0.736313 7.29401 0.444803C6.57001 0.148268 5.76767 0 4.88699 0C4.14138 0 3.4498 0.100521 2.81225 0.301562C2.1801 0.497577 1.629 0.75893 1.15894 1.08562C0.694282 1.41231 0.340387 1.76916 0.0972535 2.15617C0.0540297 2.2215 0.0270149 2.28182 0.0162089 2.3371C0.00540297 2.39239 0 2.4527 0 2.51804V12.7485ZM1.30482 12.1077V2.69144C1.52094 2.3949 1.8154 2.13606 2.1882 1.91492C2.56101 1.69377 2.97704 1.52289 3.43629 1.40226C3.90095 1.27661 4.38451 1.21379 4.88699 1.21379C5.65421 1.21379 6.35119 1.352 6.97794 1.62843C7.60468 1.90486 8.06123 2.27428 8.34759 2.73667V12.2359C8.07204 12.0298 7.75056 11.8463 7.38316 11.6855C7.02116 11.5247 6.62674 11.399 6.19991 11.3086C5.77308 11.2131 5.33543 11.1653 4.88699 11.1653C4.1792 11.1653 3.51193 11.2508 2.88519 11.4216C2.25844 11.5925 1.73165 11.8212 1.30482 12.1077ZM9.65241 12.2359V2.73667C9.93877 2.27428 10.3953 1.90486 11.0221 1.62843C11.6488 1.352 12.3485 1.21379 13.1211 1.21379C13.6182 1.21379 14.0964 1.27661 14.5556 1.40226C15.0203 1.52289 15.439 1.69377 15.8118 1.91492C16.1846 2.13606 16.4791 2.3949 16.6952 2.69144V12.1077C16.2683 11.8212 15.7416 11.5925 15.1148 11.4216C14.4881 11.2508 13.8235 11.1653 13.1211 11.1653C12.6673 11.1653 12.2269 11.2131 11.8001 11.3086C11.3787 11.399 10.9842 11.5247 10.6168 11.6855C10.2494 11.8463 9.92796 12.0298 9.65241 12.2359Z"
		fill="currentColor"
	/>
</svg>
