<svg
	color="rgb(var(--foreground, 0, 0, 0))"
	viewBox="0 0 25 10"
	fill="none"
	xmlns="http://www.w3.org/2000/svg"
>
	<path
		d="M6.47366 10C7.15512 10 7.7945 9.8718 8.39144 9.61539C8.98838 9.35363 9.51131 8.99573 9.96033 8.54167C10.4146 8.08226 10.7685 7.55075 11.0221 6.94712C11.281 6.33814 11.4104 5.6891 11.4104 5C11.4104 4.3109 11.281 3.66453 11.0221 3.0609C10.7685 2.45726 10.4146 1.92575 9.96033 1.46635C9.51131 1.00694 8.98838 0.649038 8.39144 0.392628C7.7945 0.130876 7.15512 0 6.47366 0C5.78692 0 5.14514 0.130876 4.5482 0.392628C3.95126 0.649038 3.42569 1.00694 2.97139 1.46635C2.51708 1.92575 2.16054 2.45726 1.90169 3.0609C1.64812 3.66453 1.52135 4.3109 1.52135 5C1.52135 5.6891 1.64812 6.33814 1.90169 6.94712C2.16054 7.55075 2.51708 8.08226 2.97139 8.54167C3.42569 8.99573 3.95126 9.35363 4.5482 9.61539C5.14514 9.8718 5.78692 10 6.47366 10ZM6.47366 8.64583C5.97181 8.64583 5.5017 8.55235 5.06324 8.36539C4.63006 8.17842 4.24711 7.91934 3.91431 7.58814C3.58678 7.2516 3.32796 6.86165 3.13778 6.41827C2.95289 5.97489 2.86045 5.50214 2.86045 5C2.86045 4.49786 2.95289 4.02778 3.13778 3.58974C3.32796 3.14637 3.58678 2.75908 3.91431 2.42788C4.24711 2.09135 4.63006 1.82959 5.06324 1.64263C5.5017 1.45032 5.97181 1.35417 6.47366 1.35417C6.96494 1.35417 7.42738 1.45032 7.86055 1.64263C8.29901 1.82959 8.68196 2.09135 9.00949 2.42788C9.3423 2.75908 9.60112 3.14637 9.78601 3.58974C9.97619 4.02778 10.0713 4.49786 10.0713 5C10.0713 5.50214 9.97619 5.97489 9.78601 6.41827C9.60112 6.8563 9.3423 7.24359 9.00949 7.58013C8.68196 7.91132 8.29901 8.17308 7.86055 8.36539C7.42738 8.55235 6.96494 8.64583 6.47366 8.64583ZM18.5419 10C19.2234 10 19.8625 9.8718 20.4595 9.61539C21.0564 9.35363 21.5796 8.99573 22.0286 8.54167C22.4829 8.08226 22.8368 7.55075 23.0904 6.94712C23.3492 6.33814 23.4787 5.6891 23.4787 5C23.4787 4.3109 23.3492 3.66453 23.0904 3.0609C22.8368 2.45726 22.4829 1.92575 22.0286 1.46635C21.5796 1.00694 21.0564 0.649038 20.4595 0.392628C19.8625 0.130876 19.2234 0 18.5419 0C17.8552 0 17.2134 0.130876 16.6165 0.392628C16.0195 0.649038 15.494 1.00694 15.0397 1.46635C14.5854 1.92575 14.2286 2.45726 13.9697 3.0609C13.7162 3.66453 13.5894 4.3109 13.5894 5C13.5894 5.6891 13.7162 6.33814 13.9697 6.94712C14.2286 7.55075 14.5854 8.08226 15.0397 8.54167C15.494 8.99573 16.0195 9.35363 16.6165 9.61539C17.2134 9.8718 17.8552 10 18.5419 10ZM18.5419 8.64583C18.0401 8.64583 17.57 8.55235 17.1315 8.36539C16.6983 8.17308 16.3154 7.91132 15.9826 7.58013C15.6551 7.24359 15.3962 6.8563 15.2061 6.41827C15.0212 5.97489 14.9287 5.50214 14.9287 5C14.9287 4.49786 15.0212 4.02778 15.2061 3.58974C15.3962 3.14637 15.6551 2.75908 15.9826 2.42788C16.3154 2.09135 16.6983 1.82959 17.1315 1.64263C17.57 1.45032 18.0401 1.35417 18.5419 1.35417C19.0385 1.35417 19.5033 1.45032 19.9365 1.64263C20.375 1.82959 20.7579 2.09135 21.0854 2.42788C21.4183 2.75908 21.6773 3.14637 21.8622 3.58974C22.0471 4.02778 22.1395 4.49786 22.1395 5C22.1395 5.50214 22.0471 5.97489 21.8622 6.41827C21.6773 6.86165 21.4183 7.2516 21.0854 7.58814C20.7579 7.91934 20.375 8.17842 19.9365 8.36539C19.5033 8.55235 19.0385 8.64583 18.5419 8.64583ZM2.04431 4.01442H0.594277C0.198079 4.01442 0 4.21474 0 4.61538V4.94391C0 5.34989 0.198079 5.55289 0.594277 5.55289H2.04431V4.01442ZM22.9557 5.55289H24.4136C24.8046 5.55289 25 5.34989 25 4.94391V4.61538C25 4.21474 24.8046 4.01442 24.4136 4.01442H22.9557V5.55289ZM11.0221 5.28846C11.2228 5.1656 11.4526 5.07211 11.7115 5.00801C11.9756 4.94391 12.2397 4.91186 12.5038 4.91186C12.7627 4.91186 13.0242 4.94391 13.2883 5.00801C13.5524 5.07211 13.7848 5.1656 13.9856 5.28846V3.83814C13.7584 3.7313 13.5102 3.65652 13.2407 3.61378C12.9713 3.56571 12.7257 3.54167 12.5038 3.54167C12.2767 3.54167 12.0284 3.56571 11.759 3.61378C11.4896 3.65652 11.244 3.7313 11.0221 3.83814V5.28846Z"
		fill="currentColor"
	/>
</svg>
