<svg
	color="rgb(var(--foreground, 0, 0, 0))"
	viewBox="0 0 21 20"
	fill="none"
	xmlns="http://www.w3.org/2000/svg"
>
	<path
		d="M10.4961 10.8886C10.8257 10.8938 11.1604 10.8523 11.5002 10.7639C11.8452 10.6756 12.2236 10.5379 12.6355 10.3509L20.2431 6.84401C20.4954 6.72971 20.6833 6.56866 20.8069 6.36084C20.9356 6.14783 21 5.92443 21 5.69063C21 5.46204 20.9356 5.24383 20.8069 5.03601C20.6833 4.823 20.4954 4.65935 20.2431 4.54505L12.6355 1.03816C12.2236 0.851122 11.8452 0.713444 11.5002 0.625122C11.1604 0.536801 10.8257 0.495238 10.4961 0.500433C10.1666 0.495238 9.82935 0.536801 9.48437 0.625122C9.14454 0.713444 8.76866 0.851122 8.35675 1.03816L0.756896 4.54505C0.504597 4.65935 0.314086 4.823 0.185362 5.03601C0.0617874 5.24383 0 5.46204 0 5.69063C0 5.92443 0.0617874 6.14783 0.185362 6.36084C0.314086 6.56866 0.504597 6.72971 0.756896 6.84401L8.35675 10.3509C8.76866 10.5379 9.14454 10.6756 9.48437 10.7639C9.82935 10.8523 10.1666 10.8938 10.4961 10.8886ZM10.4961 9.65732C10.2387 9.65732 9.97867 9.62355 9.71607 9.55601C9.45348 9.48327 9.15741 9.37157 8.82788 9.22091L1.7146 5.9556C1.58073 5.89326 1.51379 5.80493 1.51379 5.69063C1.51379 5.58153 1.58073 5.49581 1.7146 5.43346L8.82788 2.16816C9.15741 2.01749 9.45348 1.90839 9.71607 1.84085C9.97867 1.76811 10.2387 1.73174 10.4961 1.73174C10.7536 1.73174 11.0136 1.76811 11.2762 1.84085C11.544 1.90839 11.8426 2.01749 12.1721 2.16816L19.2854 5.43346C19.4193 5.49581 19.4862 5.58153 19.4862 5.69063C19.4862 5.80493 19.4193 5.89326 19.2854 5.9556L12.1721 9.22091C11.8426 9.37157 11.544 9.48327 11.2762 9.55601C11.0136 9.62355 10.7536 9.65732 10.4961 9.65732ZM3.01214 11.551C3.01214 12.1329 3.1872 12.6836 3.53733 13.2032C3.88746 13.7227 4.38948 14.1799 5.0434 14.5748C5.70246 14.9748 6.49025 15.2865 7.40677 15.5099C8.32843 15.7385 9.35822 15.8528 10.4961 15.8528C11.6341 15.8528 12.6638 15.7385 13.5855 15.5099C14.5072 15.2865 15.295 14.9748 15.9489 14.5748C16.6028 14.1799 17.1048 13.7227 17.4549 13.2032C17.8102 12.6836 17.9879 12.1329 17.9879 11.551V7.43629H16.7444V11.551C16.7444 11.9563 16.5976 12.3459 16.3042 12.72C16.0107 13.0941 15.591 13.4292 15.0452 13.7253C14.4994 14.0163 13.843 14.2475 13.0758 14.4189C12.3086 14.5903 11.4487 14.6761 10.4961 14.6761C9.54873 14.6761 8.68886 14.5903 7.91651 14.4189C7.14932 14.2475 6.49283 14.0163 5.94704 13.7253C5.40125 13.4292 4.98161 13.0941 4.68812 12.72C4.39978 12.3459 4.25561 11.9563 4.25561 11.551V7.43629H3.01214V11.551ZM10.527 6.57905C10.8051 6.57905 11.0677 6.54008 11.3148 6.46215C11.5671 6.38422 11.7705 6.28031 11.925 6.15043C12.0846 6.01535 12.1644 5.86208 12.1644 5.69063C12.1644 5.52438 12.0846 5.37631 11.925 5.24643C11.7705 5.11654 11.5671 5.01523 11.3148 4.9425C11.0677 4.86457 10.8051 4.8256 10.527 4.8256C10.2541 4.8256 9.99154 4.86457 9.73924 4.9425C9.48694 5.01523 9.28099 5.11654 9.12137 5.24643C8.96175 5.37631 8.88194 5.52438 8.88194 5.69063C8.88194 5.86208 8.96175 6.01535 9.12137 6.15043C9.28099 6.28031 9.48694 6.38422 9.73924 6.46215C9.99154 6.54008 10.2541 6.57905 10.527 6.57905ZM5.83119 8.63642L10.4112 6.18939L9.98639 5.3867L4.82714 8.0987L5.83119 8.63642ZM4.82714 16.2815H5.83119V8.63642L4.82714 8.13767V16.2815ZM4.21699 16.4373V18.4869C4.21699 18.7934 4.3071 19.0376 4.48731 19.2194C4.67267 19.4065 4.91725 19.5 5.22104 19.5H5.42957C5.73336 19.5 5.97536 19.4065 6.15557 19.2194C6.34093 19.0376 6.43362 18.7934 6.43362 18.4869V16.4373C6.43362 16.1308 6.34093 15.884 6.15557 15.697C5.97536 15.5151 5.73336 15.4242 5.42957 15.4242H5.22104C4.91725 15.4242 4.67267 15.5151 4.48731 15.697C4.3071 15.884 4.21699 16.1308 4.21699 16.4373Z"
		fill="currentColor"
	/>
</svg>
