<svg
	color="rgb(var(--foreground, 0, 0, 0))"
	viewBox="0 0 21 20"
	fill="none"
	xmlns="http://www.w3.org/2000/svg"
>
	<path
		d="M20.2564 4.54091L12.5937 1.01927C12.1919 0.835856 11.8215 0.702223 11.4823 0.618374C11.1483 0.534526 10.8196 0.495222 10.4961 0.500462C10.1778 0.495222 9.84905 0.534526 9.50988 0.618374C9.1707 0.702223 8.80022 0.835856 8.39843 1.01927L0.743571 4.54091C0.493105 4.65096 0.305255 4.80032 0.180022 4.98898C0.0600075 5.17763 0 5.37153 0 5.57067C0 5.77505 0.0600075 5.96895 0.180022 6.15237C0.305255 6.33579 0.493105 6.48515 0.743571 6.60044L3.96832 8.07827L8.92285 5.74361C8.8811 5.69121 8.86023 5.63356 8.86023 5.57067C8.86023 5.40298 8.94111 5.25362 9.10287 5.12261C9.26463 4.9916 9.47335 4.88941 9.72903 4.81604C9.98472 4.73743 10.2508 4.69813 10.5274 4.69813C10.8092 4.69813 11.0753 4.73743 11.3258 4.81604C11.5814 4.88941 11.7876 4.9916 11.9441 5.12261C12.1059 5.25362 12.1867 5.40298 12.1867 5.57067C12.1867 5.74361 12.1059 5.89821 11.9441 6.03446C11.7876 6.16547 11.5814 6.27028 11.3258 6.34889C11.0753 6.4275 10.8092 6.4668 10.5274 6.4668C10.2613 6.4668 10.0134 6.43274 9.78382 6.36461L5.05628 8.58922L8.39843 10.1299C8.80544 10.3134 9.17592 10.447 9.50988 10.5308C9.84905 10.6147 10.1778 10.654 10.4961 10.6487C10.8196 10.654 11.1483 10.6147 11.4823 10.5308C11.8215 10.447 12.1919 10.3134 12.5937 10.1299L20.2564 6.60044C20.5069 6.48515 20.6921 6.33579 20.8122 6.15237C20.9374 5.96895 21 5.77505 21 5.57067C21 5.37153 20.9374 5.17763 20.8122 4.98898C20.6921 4.80032 20.5069 4.65096 20.2564 4.54091ZM5.02497 9.75262V14.532C5.68245 14.9355 6.47298 15.2499 7.39657 15.4753C8.32538 15.7059 9.35855 15.8211 10.4961 15.8211C11.6493 15.8211 12.6929 15.7059 13.6269 15.4753C14.5609 15.2499 15.3593 14.9355 16.022 14.532C16.6847 14.1337 17.1934 13.6725 17.5483 13.1485C17.9083 12.6244 18.0883 12.0689 18.0883 11.482V8.77788L13.0399 11.0968C12.1163 11.5213 11.2684 11.7309 10.4961 11.7257C9.72904 11.7309 8.8811 11.5213 7.95229 11.0968L5.02497 9.75262ZM2.91167 8.77788V11.482C2.91167 11.8226 3.00559 12.1947 3.19344 12.5982C3.38129 12.9965 3.65263 13.3764 4.00745 13.738V9.28883L2.91167 8.77788ZM4.00745 16.3557H5.02497V14.532C4.8319 14.4114 4.64927 14.2857 4.47708 14.1547C4.30488 14.0236 4.14834 13.8848 4.00745 13.738V16.3557ZM3.38912 16.4107V18.4781C3.38912 18.7873 3.48043 19.0336 3.66306 19.217C3.85091 19.4057 4.09877 19.5 4.40663 19.5H4.61797C4.92583 19.5 5.17108 19.4057 5.35371 19.217C5.54156 19.0336 5.63548 18.7873 5.63548 18.4781V16.4107C5.63548 16.1015 5.54156 15.8526 5.35371 15.6639C5.17108 15.4805 4.92583 15.3888 4.61797 15.3888H4.40663C4.09877 15.3888 3.85091 15.4805 3.66306 15.6639C3.48043 15.8526 3.38912 16.1015 3.38912 16.4107Z"
		fill="currentColor"
	/>
</svg>
