<svg
	color="rgb(var(--foreground, 0, 0, 0))"
	viewBox="0 0 13 18"
	fill="none"
	xmlns="http://www.w3.org/2000/svg"
>
	<path
		d="M1.53755 16.3869L10.4374 17.9491C10.9689 18.0409 11.4245 18.0085 11.8041 17.852C12.1892 17.6955 12.4848 17.4257 12.6909 17.0425C12.897 16.6648 13 16.1872 13 15.6098V5.83962C13 5.04635 12.7966 4.47703 12.3899 4.13166C11.9885 3.78089 11.3919 3.53536 10.6001 3.39505L1.96058 1.88136C1.56466 1.81121 1.22028 1.83279 0.927409 1.94612C0.634543 2.05404 0.406758 2.24022 0.244055 2.50464C0.0813517 2.76907 0 3.09285 0 3.476V14.6223C0 15.1187 0.127451 15.5127 0.382353 15.8041C0.642678 16.1009 1.02774 16.2951 1.53755 16.3869ZM2.09887 6.70574V4.99778C2.09887 4.70098 2.18565 4.48782 2.3592 4.35831C2.53817 4.22879 2.78223 4.19102 3.09136 4.24498L4.84043 4.55258C4.99228 4.57956 5.09804 4.65241 5.1577 4.77113C5.22278 4.88985 5.24176 5.01667 5.21464 5.15158C5.19295 5.28649 5.13058 5.39981 5.02753 5.49155C4.92991 5.57789 4.79433 5.60757 4.62078 5.58059L3.54693 5.38632C3.29203 5.34855 3.16458 5.44029 3.16458 5.66154V6.74622C3.16458 6.90811 3.11035 7.02953 3.00188 7.11047C2.89883 7.18602 2.7768 7.2238 2.63579 7.2238C2.49479 7.2184 2.37005 7.17253 2.26158 7.08619C2.15311 6.99985 2.09887 6.87303 2.09887 6.70574ZM9.77034 8.02516V6.99715C9.77034 6.87303 9.7378 6.75161 9.67272 6.63289C9.60763 6.50877 9.45578 6.42513 9.21715 6.38196L8.54193 6.26054C8.35753 6.22816 8.22737 6.15261 8.15144 6.03389C8.08093 5.91517 8.05653 5.78835 8.07822 5.65344C8.09992 5.51314 8.165 5.39981 8.27347 5.31347C8.38736 5.22713 8.5365 5.20015 8.7209 5.23252L9.56696 5.37823C10.0171 5.45917 10.3398 5.60218 10.535 5.80724C10.7357 6.00691 10.836 6.29562 10.836 6.67336V8.02516C10.836 8.20864 10.7818 8.34625 10.6733 8.43799C10.5649 8.52433 10.4401 8.5648 10.2991 8.55941C10.1581 8.55401 10.0334 8.50544 9.92491 8.4137C9.82186 8.32196 9.77034 8.19245 9.77034 8.02516ZM3.16458 11.862V12.89C3.16458 13.0087 3.19712 13.1302 3.2622 13.2543C3.32728 13.3784 3.47914 13.462 3.71777 13.5052L4.39299 13.6266C4.57739 13.6536 4.70755 13.7292 4.78348 13.8533C4.85941 13.972 4.88381 14.0988 4.8567 14.2337C4.835 14.3686 4.76721 14.482 4.65332 14.5737C4.54485 14.66 4.39841 14.687 4.21402 14.6546L3.36796 14.5089C2.91781 14.428 2.59241 14.2877 2.39174 14.088C2.1965 13.883 2.09887 13.5915 2.09887 13.2138V11.862C2.09887 11.6785 2.15311 11.5436 2.26158 11.4573C2.37005 11.3655 2.49479 11.3224 2.63579 11.3278C2.7768 11.3332 2.89883 11.3817 3.00188 11.4735C3.11035 11.5652 3.16458 11.6947 3.16458 11.862ZM10.836 13.1814V14.8894C10.836 15.1862 10.7466 15.3993 10.5676 15.5289C10.394 15.6584 10.1527 15.6961 9.84355 15.6422L8.10263 15.3346C7.94535 15.3076 7.83417 15.2348 7.76909 15.116C7.70943 14.9973 7.69045 14.8705 7.71214 14.7356C7.73926 14.6007 7.80163 14.4901 7.89925 14.4037C8.00229 14.312 8.14059 14.2796 8.31414 14.3066L9.38799 14.5008C9.64289 14.5386 9.77034 14.4469 9.77034 14.2256V13.141C9.77034 12.9791 9.82186 12.8603 9.92491 12.7848C10.0334 12.7038 10.1581 12.6661 10.2991 12.6715C10.4401 12.6715 10.5649 12.7146 10.6733 12.801C10.7818 12.8819 10.836 13.0087 10.836 13.1814ZM3.75845 1.07999L10.7954 2.31037C11.4787 2.43449 12.059 2.62337 12.5363 2.877V2.25371C12.5363 1.40108 12.2651 0.783192 11.7228 0.400048C11.1804 0.0169034 10.4266 -0.0910246 9.4612 0.0762638L3.75845 1.07999Z"
		fill="currentColor"
	/>
</svg>
