<svg
	color="rgb(var(--foreground, 0, 0, 0))"
	viewBox="0 0 13 18"
	fill="none"
	xmlns="http://www.w3.org/2000/svg"
>
	<path
		d="M1.54091 16.3355L10.4344 17.9459C10.9663 18.0421 11.4226 18.01 11.8032 17.8498C12.1891 17.6895 12.4838 17.4118 12.6871 17.0165C12.8957 16.6266 13 16.1352 13 15.5423V5.63129C13 4.81405 12.7966 4.2265 12.3899 3.86862C11.9832 3.51075 11.3835 3.2597 10.5909 3.11548L1.9633 1.56113C1.56699 1.48635 1.22022 1.50772 0.922984 1.62523C0.630967 1.7374 0.404132 1.92969 0.242479 2.2021C0.0808263 2.47451 0 2.80835 0 3.20362V14.5167C0 15.0295 0.127758 15.4381 0.383273 15.7426C0.644003 16.047 1.02988 16.2447 1.54091 16.3355ZM1.84597 15.0616C1.64781 15.0295 1.4992 14.9521 1.40012 14.8292C1.30626 14.7117 1.25933 14.5461 1.25933 14.3325V3.41994C1.25933 3.20629 1.32451 3.04871 1.45487 2.94723C1.59045 2.84574 1.77296 2.81369 2.00241 2.85108L10.5283 4.38941C10.9246 4.46419 11.2244 4.59505 11.4278 4.782C11.6364 4.96361 11.7407 5.24136 11.7407 5.61526V15.3981C11.7407 15.8521 11.6181 16.1859 11.373 16.3996C11.1332 16.6186 10.802 16.688 10.3797 16.6079L1.84597 15.0616ZM11.0445 4.10899H12.3039V2.23415C12.3039 1.39021 12.0431 0.778614 11.5217 0.399373C11.0002 0.0147916 10.2754 -0.0920367 9.34717 0.0788886L1.17329 1.55312L1.6426 2.67482L9.79302 1.28872C10.1841 1.21928 10.4892 1.26468 10.7082 1.42492C10.9324 1.58517 11.0445 1.83888 11.0445 2.18608V4.10899ZM2.29964 6.58473C2.29964 6.75566 2.35179 6.88385 2.45608 6.96931C2.56037 7.04943 2.68031 7.09216 2.81588 7.09751C2.95146 7.09751 3.06879 7.06012 3.16787 6.98534C3.27216 6.90522 3.32431 6.78503 3.32431 6.62479V5.55117C3.32431 5.33217 3.44685 5.24136 3.69194 5.27875L4.72443 5.47105C4.8913 5.49775 5.02166 5.46838 5.11552 5.38291C5.2146 5.29211 5.27457 5.17994 5.29543 5.0464C5.3215 4.91287 5.30325 4.78734 5.24067 4.66983C5.18331 4.55232 5.07902 4.48021 4.9278 4.45351L3.25391 4.14905C2.95668 4.09563 2.72202 4.13302 2.54994 4.26122C2.38307 4.38941 2.29964 4.6004 2.29964 4.89417V6.58473ZM9.67569 7.89071C9.67569 8.05629 9.72523 8.18448 9.82431 8.27529C9.9286 8.36609 10.0485 8.41417 10.1841 8.41951C10.3197 8.42485 10.4396 8.38479 10.5439 8.29932C10.6482 8.20852 10.7004 8.07231 10.7004 7.89071V6.55268C10.7004 6.17878 10.6039 5.89302 10.411 5.69538C10.2232 5.49241 9.91296 5.35086 9.48014 5.27074L8.66667 5.12652C8.48937 5.09448 8.34597 5.12118 8.23646 5.20665C8.13217 5.29211 8.0696 5.40428 8.04874 5.54316C8.02788 5.67669 8.05134 5.80221 8.11913 5.91972C8.19214 6.03724 8.31729 6.11202 8.49459 6.14406L9.1438 6.26425C9.37325 6.30698 9.51925 6.38977 9.58183 6.51262C9.64441 6.63013 9.67569 6.75031 9.67569 6.87317V7.89071ZM3.32431 11.6885C3.32431 11.5229 3.27216 11.3947 3.16787 11.3039C3.06879 11.2131 2.95146 11.165 2.81588 11.1597C2.68031 11.1543 2.56037 11.197 2.45608 11.2878C2.35179 11.3733 2.29964 11.5068 2.29964 11.6885V13.0265C2.29964 13.4004 2.3935 13.6888 2.58123 13.8918C2.77417 14.0894 3.08704 14.2283 3.51986 14.3084L4.33333 14.4526C4.51063 14.4847 4.65142 14.458 4.75572 14.3725C4.86522 14.2817 4.93041 14.1695 4.95126 14.036C4.97734 13.9025 4.95387 13.7769 4.88087 13.6594C4.80786 13.5366 4.68271 13.4618 4.50542 13.4351L3.8562 13.3149C3.62676 13.2722 3.48075 13.1894 3.41817 13.0665C3.3556 12.9437 3.32431 12.8235 3.32431 12.706V11.6885ZM10.7004 12.9944C10.7004 12.8235 10.6482 12.698 10.5439 12.6179C10.4396 12.5324 10.3197 12.4897 10.1841 12.4897C10.0485 12.4843 9.9286 12.5217 9.82431 12.6018C9.72523 12.6766 9.67569 12.7941 9.67569 12.9544V14.028C9.67569 14.247 9.55315 14.3378 9.30806 14.3004L8.27557 14.1081C8.1087 14.0814 7.97573 14.1135 7.87666 14.2043C7.78279 14.2897 7.72282 14.3992 7.69675 14.5328C7.67589 14.6663 7.69414 14.7918 7.7515 14.9093C7.81408 15.0268 7.92098 15.0989 8.0722 15.1257L9.74609 15.4301C10.0433 15.4835 10.2754 15.4461 10.4422 15.3179C10.6143 15.1897 10.7004 14.9788 10.7004 14.685V12.9944Z"
		fill="currentColor"
	/>
</svg>
