<svg
	color="rgb(var(--foreground, 0, 0, 0))"
	viewBox="0 0 12 18"
	fill="none"
	xmlns="http://www.w3.org/2000/svg"
>
	<path
		d="M0 15.0182C0 15.8481 0.198198 16.4692 0.594595 16.8815C0.996139 17.2938 1.59588 17.5 2.39382 17.5H9.6139C10.4067 17.5 11.0013 17.2938 11.3977 16.8815C11.7992 16.4692 12 15.8481 12 15.0182V2.98974C12 2.16511 11.7992 1.544 11.3977 1.1264C11.0013 0.7088 10.4067 0.5 9.6139 0.5H2.39382C1.59588 0.5 0.996139 0.7088 0.594595 1.1264C0.198198 1.544 0 2.16511 0 2.98974V15.0182ZM1.24324 14.9944V3.01353C1.24324 2.61707 1.34363 2.31312 1.5444 2.10168C1.75032 1.88495 2.05405 1.77659 2.4556 1.77659H9.5444C9.94595 1.77659 10.2471 1.88495 10.4479 2.10168C10.6538 2.31312 10.7568 2.61707 10.7568 3.01353V14.9944C10.7568 15.3909 10.6538 15.6948 10.4479 15.9062C10.2471 16.1177 9.94595 16.2234 9.5444 16.2234H2.4556C2.05405 16.2234 1.75032 16.1177 1.5444 15.9062C1.34363 15.6948 1.24324 15.3909 1.24324 14.9944ZM4.16216 3.6875H7.84556C7.98456 3.6875 8.10296 3.63728 8.20077 3.53685C8.29858 3.43641 8.34749 3.31483 8.34749 3.17211C8.34749 3.02938 8.29858 2.9078 8.20077 2.80737C8.10296 2.70693 7.98456 2.65672 7.84556 2.65672H4.16216C4.02831 2.65672 3.90991 2.70693 3.80695 2.80737C3.70914 2.9078 3.66023 3.02938 3.66023 3.17211C3.66023 3.31483 3.70914 3.43641 3.80695 3.53685C3.90991 3.63728 4.02831 3.6875 4.16216 3.6875Z"
		fill="currentColor"
	/>
</svg>
