<svg
	color="rgb(var(--foreground, 0, 0, 0))"
	viewBox="0 0 14 20"
	fill="none"
	xmlns="http://www.w3.org/2000/svg"
>
	<path
		d="M0 17.198C0 17.5114 0.0479726 17.7708 0.143918 17.9761C0.239863 18.1815 0.434418 18.3571 0.727584 18.503C1.41519 18.8056 2.22273 19.0461 3.1502 19.2244C4.083 19.4081 5.11441 19.5 6.24443 19.5C6.80411 19.5 7.37445 19.4757 7.95545 19.427C8.54179 19.3838 9.12012 19.3136 9.69046 19.2163C10.2608 19.119 10.8098 18.992 11.3375 18.8353C11.8706 18.6786 12.3609 18.4895 12.8087 18.2679C13.2884 18.0356 13.6056 17.787 13.7601 17.5222C13.92 17.2574 14 16.8737 14 16.3712V3.92875C14 2.65344 13.3923 2.01578 12.177 2.01578H11.4255V1.69155C11.4255 1.29167 11.3295 0.994454 11.1376 0.799915C10.9457 0.599972 10.6739 0.5 10.3221 0.5C10.1995 0.5 10.0662 0.516212 9.92233 0.548635C9.77841 0.575654 9.62117 0.616183 9.4506 0.670222C8.24062 1.07011 7.04931 1.38894 5.87664 1.62671C4.70398 1.86448 3.41138 1.98336 1.99886 1.98336H1.35922C0.92747 1.98336 0.591662 2.10225 0.351799 2.34002C0.117266 2.57238 0 2.88851 0 3.2884V17.198ZM2.83838 8.12756V5.3878C2.83838 5.2527 2.90234 5.17975 3.03027 5.16894C3.95774 5.13652 4.8479 5.03385 5.70074 4.86092C6.55359 4.688 7.40643 4.44482 8.25928 4.1314C8.30725 4.10978 8.36322 4.11249 8.42719 4.1395C8.49115 4.16652 8.52313 4.22867 8.52313 4.32594V7.18729C8.52313 7.26834 8.48582 7.32509 8.41119 7.35751C7.91548 7.56286 7.37445 7.73848 6.78812 7.88439C6.20179 8.02489 5.58881 8.13296 4.94917 8.20862C4.31487 8.28427 3.67523 8.3221 3.03027 8.3221C2.90234 8.3221 2.83838 8.25725 2.83838 8.12756ZM3.24615 18.1139C4.03503 18.0923 4.79992 18.022 5.54083 17.9032C6.28707 17.7897 6.99067 17.6357 7.65163 17.4411C8.31791 17.2466 8.92557 17.0196 9.47459 16.7602C10.0236 16.5009 10.4953 16.2171 10.8898 15.9091C11.0763 15.7686 11.2123 15.6092 11.2975 15.4309C11.3828 15.2472 11.4255 14.977 11.4255 14.6203V3.32082H12.185C12.5368 3.32082 12.7127 3.52346 12.7127 3.92875V16.282C12.7127 16.5252 12.6808 16.7062 12.6168 16.8251C12.5582 16.944 12.4142 17.052 12.185 17.1493C11.6573 17.3817 11.0657 17.5843 10.4101 17.7573C9.75976 17.9356 9.07748 18.0707 8.36322 18.1625C7.65429 18.2598 6.94803 18.3084 6.24443 18.3084C5.74338 18.3084 5.24767 18.2922 4.75728 18.2598C4.2669 18.2328 3.76318 18.1842 3.24615 18.1139Z"
		fill="currentColor"
	/>
</svg>
