<svg
	color="rgb(var(--foreground, 0, 0, 0))"
	viewBox="0 0 14 20"
	fill="none"
	xmlns="http://www.w3.org/2000/svg"
>
	<path
		d="M11.2736 3.32082H12.185C12.5368 3.32082 12.7127 3.52346 12.7127 3.92875V16.282C12.7127 16.5252 12.6808 16.7062 12.6168 16.8251C12.5582 16.944 12.4142 17.052 12.185 17.1493C11.6573 17.3817 11.0657 17.5843 10.4101 17.7573C9.75976 17.9356 9.07748 18.0707 8.36322 18.1625C7.65429 18.2598 6.94803 18.3084 6.24443 18.3084C5.62612 18.3084 5.01847 18.2868 4.42147 18.2436C3.82448 18.2004 3.21949 18.1247 2.60651 18.0166V18.122C3.45403 18.1328 4.28022 18.0869 5.08509 17.9842C5.8953 17.8815 6.65486 17.7329 7.36379 17.5384C8.07805 17.3493 8.71769 17.1277 9.2827 16.8737C9.85304 16.6197 10.3221 16.3495 10.6899 16.0631C10.9777 15.847 11.1723 15.6416 11.2736 15.4471C11.3748 15.2526 11.4255 14.977 11.4255 14.6203V1.69155C11.4255 1.29167 11.3295 0.994454 11.1376 0.799915C10.9457 0.599972 10.6739 0.5 10.3221 0.5C10.1995 0.5 10.0662 0.516212 9.92233 0.548635C9.77841 0.575654 9.62117 0.616183 9.4506 0.670222C8.24062 1.07011 7.04931 1.38894 5.87664 1.62671C4.70398 1.86448 3.41138 1.98336 1.99886 1.98336H1.35922C0.92747 1.98336 0.591662 2.10225 0.351799 2.34002C0.117266 2.57238 0 2.88851 0 3.2884V17.198C0 17.5114 0.0479726 17.7708 0.143918 17.9761C0.239863 18.1815 0.434418 18.3571 0.727584 18.503C1.41519 18.8056 2.24405 19.0461 3.21416 19.2244C4.18428 19.4081 5.19437 19.5 6.24443 19.5C6.80411 19.5 7.37445 19.4757 7.95545 19.427C8.54179 19.3838 9.12012 19.3136 9.69046 19.2163C10.2608 19.119 10.8098 18.992 11.3375 18.8353C11.8706 18.6786 12.3609 18.4895 12.8087 18.2679C13.2884 18.0356 13.6056 17.787 13.7601 17.5222C13.92 17.2574 14 16.8737 14 16.3712V3.92875C14 2.65344 13.3923 2.01578 12.177 2.01578H11.2736V3.32082ZM1.28726 16.59V3.63695C1.28726 3.39377 1.39654 3.27218 1.61508 3.27218H2.05483C3.45136 3.27218 4.79459 3.1479 6.08452 2.89932C7.37445 2.65074 8.5791 2.34812 9.69846 1.99147C9.83171 1.94824 9.93832 1.94553 10.0183 1.98336C10.0982 2.02119 10.1382 2.10225 10.1382 2.22654V14.3366C10.1382 14.5582 10.1116 14.7284 10.0583 14.8473C10.0049 14.9608 9.87702 15.085 9.67447 15.2201C9.25871 15.5011 8.77898 15.7524 8.23529 15.974C7.69161 16.1955 7.08129 16.3793 6.40434 16.5252C5.72739 16.6765 4.98648 16.7819 4.18161 16.8413C3.37674 16.9061 2.50524 16.9197 1.5671 16.8818C1.38054 16.871 1.28726 16.7737 1.28726 16.59ZM2.91833 5.41212V8.07082C2.91833 8.19511 2.9823 8.25725 3.11022 8.25725C3.73387 8.25725 4.35485 8.22213 4.97316 8.15188C5.59147 8.07622 6.1858 7.97085 6.75614 7.83575C7.32648 7.69525 7.85151 7.52773 8.33124 7.33319C8.40586 7.29536 8.44318 7.23592 8.44318 7.15486V4.38268C8.44318 4.29081 8.41119 4.23137 8.34723 4.20435C8.28327 4.17733 8.22996 4.17463 8.18732 4.19625C7.36113 4.49886 6.53227 4.73393 5.70074 4.90145C4.87455 5.06897 4.01104 5.16894 3.11022 5.20136C2.9823 5.21217 2.91833 5.28242 2.91833 5.41212Z"
		fill="currentColor"
	/>
</svg>
