<svg
	color="rgb(var(--foreground, 0, 0, 0))"
	viewBox="0 0 13 18"
	fill="none"
	xmlns="http://www.w3.org/2000/svg"
>
	<path
		d="M1.53755 16.3824L10.4374 17.9442C10.9689 18.0413 11.4245 18.0117 11.8041 17.8552C12.1892 17.6987 12.4848 17.429 12.6909 17.046C12.897 16.6629 13 16.1828 13 15.6055V5.83802C13 5.04496 12.7966 4.4758 12.3899 4.13052C11.9885 3.78525 11.3919 3.54248 10.6001 3.40221L1.96058 1.88084C1.56466 1.8161 1.22028 1.84038 0.927409 1.95367C0.634543 2.06157 0.406758 2.2477 0.244055 2.51205C0.0813517 2.771 0 3.0947 0 3.48313V14.6182C0 15.12 0.127451 15.5165 0.382353 15.8078C0.642678 16.1045 1.02774 16.2961 1.53755 16.3824ZM3.00188 6.37211C2.86087 6.35053 2.7524 6.29119 2.67647 6.19408C2.60054 6.09158 2.56258 5.96749 2.56258 5.82183C2.56258 5.64919 2.62224 5.51432 2.74155 5.41721C2.86629 5.31471 3.02628 5.27964 3.22153 5.31201L9.64831 6.42876C9.95202 6.4935 10.1039 6.67693 10.1039 6.97904C10.1039 7.15168 10.0469 7.29195 9.93304 7.39985C9.81915 7.50235 9.66187 7.53742 9.4612 7.50505L3.00188 6.37211ZM3.00188 9.62525C2.86087 9.60367 2.7524 9.54432 2.67647 9.44722C2.60054 9.34471 2.56258 9.22063 2.56258 9.07497C2.56258 8.90772 2.62224 8.77555 2.74155 8.67844C2.86629 8.57594 3.02628 8.54087 3.22153 8.57324L9.64831 9.68999C9.95202 9.74394 10.1039 9.92467 10.1039 10.2322C10.1039 10.4102 10.0469 10.5532 9.93304 10.6611C9.81915 10.7636 9.66187 10.7986 9.4612 10.7663L3.00188 9.62525ZM3.75845 1.0797L10.7954 2.30974C11.4787 2.43382 12.059 2.62534 12.5363 2.8843V2.25309C12.5363 1.4007 12.2651 0.782977 11.7228 0.399938C11.1804 0.0168988 10.4266 -0.0909996 9.4612 0.0762429L3.75845 1.0797Z"
		fill="currentColor"
	/>
</svg>
