<svg
	color="rgb(var(--foreground, 0, 0, 0))"
	viewBox="0 0 13 18"
	fill="none"
	xmlns="http://www.w3.org/2000/svg"
>
	<path
		d="M1.54091 16.3352L10.4344 17.9459C10.9663 18.0421 11.4226 18.01 11.8032 17.8497C12.1891 17.6895 12.4838 17.4117 12.6871 17.0163C12.8957 16.6263 13 16.1348 13 15.5418V5.62895C13 4.81156 12.7966 4.22389 12.3899 3.86595C11.9832 3.50801 11.3835 3.25959 10.5909 3.12068L1.9633 1.55802C1.56699 1.48857 1.22022 1.50994 0.922984 1.62213C0.630967 1.73432 0.404132 1.92665 0.242479 2.19911C0.0808263 2.47158 0 2.80815 0 3.20883V14.5161C0 15.0289 0.127758 15.4376 0.383273 15.7422C0.644003 16.0467 1.02988 16.2443 1.54091 16.3352ZM1.84597 15.061C1.64781 15.0289 1.4992 14.9515 1.40012 14.8286C1.30626 14.7111 1.25933 14.5455 1.25933 14.3318V3.4252C1.25933 3.2115 1.32451 3.0539 1.45487 2.9524C1.59045 2.84555 1.77296 2.81349 2.00241 2.85623L10.5283 4.38684C10.9246 4.46163 11.2244 4.59252 11.4278 4.7795C11.6364 4.96115 11.7407 5.23895 11.7407 5.61292V15.4056C11.7407 15.8597 11.6181 16.1936 11.373 16.4073C11.1332 16.621 10.802 16.6878 10.3797 16.6076L1.84597 15.061ZM11.0445 4.10636H12.3039V2.23117C12.3039 1.38707 12.0431 0.775358 11.5217 0.396046C11.0002 0.0167344 10.2754 -0.0901141 9.34717 0.075501L1.17329 1.55802L1.6426 2.67192L9.79302 1.28556C10.1841 1.21611 10.4892 1.26152 10.7082 1.42179C10.9324 1.58206 11.0445 1.83583 11.0445 2.18309V4.10636ZM3.2148 6.38223L9.24549 7.47209C9.428 7.50414 9.5714 7.46942 9.67569 7.36791C9.7852 7.2664 9.83995 7.13284 9.83995 6.96723C9.83995 6.67339 9.69916 6.49977 9.41757 6.44634L3.41817 5.37251C3.24087 5.34046 3.09487 5.37251 2.98014 5.46868C2.86542 5.5595 2.80806 5.68772 2.80806 5.85333C2.80806 5.99224 2.84196 6.10977 2.90975 6.20593C2.98275 6.3021 3.08444 6.36086 3.2148 6.38223ZM3.2148 9.50755L9.24549 10.5974C9.428 10.6295 9.5714 10.5947 9.67569 10.4932C9.7852 10.3917 9.83995 10.2582 9.83995 10.0925C9.83995 9.79871 9.69916 9.62508 9.41757 9.57166L3.41817 8.49783C3.24087 8.46578 3.09487 8.49783 2.98014 8.59399C2.86542 8.69016 2.80806 8.81838 2.80806 8.97865C2.80806 9.12289 2.84196 9.2431 2.90975 9.33926C2.98275 9.43008 3.08444 9.48618 3.2148 9.50755Z"
		fill="currentColor"
	/>
</svg>
