<svg
	color="rgb(var(--foreground, 0, 0, 0))"
	viewBox="0 0 18 18"
	fill="none"
	xmlns="http://www.w3.org/2000/svg"
>
	<path
		d="M0 8.23088V15.3116C0 15.5019 0.0429722 15.6684 0.128917 15.8111C0.214861 15.9538 0.333035 16.0648 0.483438 16.1441C0.633841 16.2234 0.803044 16.2631 0.991047 16.2631C1.17905 16.2578 1.34825 16.2155 1.49866 16.1362C1.64906 16.0622 1.76723 15.9538 1.85318 15.8111C1.93912 15.6684 1.98209 15.5019 1.98209 15.3116V6.74021H1.58729C1.25962 6.74021 0.977619 6.79835 0.741271 6.91465C0.504924 7.03094 0.322292 7.20274 0.193375 7.43004C0.0644584 7.65205 0 7.919 0 8.23088ZM2.72337 17.5H15.47C16.3133 17.5 16.9445 17.2938 17.3635 16.8815C17.7878 16.4745 18 15.864 18 15.0499V2.95802C18 2.13868 17.7878 1.5255 17.3635 1.11847C16.9445 0.706157 16.3133 0.5 15.47 0.5H6.08326C5.23993 0.5 4.60609 0.706157 4.18174 1.11847C3.76276 1.5255 3.55327 2.13868 3.55327 2.95802V15.8349C3.55327 16.2631 3.49418 16.604 3.37601 16.8577C3.25783 17.1168 3.04029 17.3308 2.72337 17.5ZM6.78424 5.22575C6.63921 5.22575 6.51835 5.17817 6.42167 5.08302C6.32498 4.98259 6.27663 4.86365 6.27663 4.72621C6.27663 4.59406 6.32498 4.48305 6.42167 4.39319C6.51835 4.29804 6.63921 4.25047 6.78424 4.25047H14.7851C14.9248 4.25047 15.043 4.29804 15.1397 4.39319C15.2363 4.48305 15.2847 4.59406 15.2847 4.72621C15.2847 4.86365 15.2363 4.98259 15.1397 5.08302C15.043 5.17817 14.9248 5.22575 14.7851 5.22575H6.78424ZM6.78424 8.01679C6.63921 8.01679 6.51835 7.97186 6.42167 7.882C6.32498 7.78685 6.27663 7.67055 6.27663 7.53312C6.27663 7.39568 6.32498 7.27938 6.42167 7.18424C6.51835 7.08909 6.63921 7.04151 6.78424 7.04151H14.7851C14.9248 7.04151 15.043 7.08909 15.1397 7.18424C15.2363 7.27938 15.2847 7.39568 15.2847 7.53312C15.2847 7.67055 15.2363 7.78685 15.1397 7.882C15.043 7.97186 14.9248 8.01679 14.7851 8.01679H6.78424ZM11.7798 10.8158C11.6347 10.8158 11.5139 10.7708 11.4172 10.681C11.3259 10.5858 11.2802 10.4722 11.2802 10.34C11.2802 10.1973 11.3259 10.0784 11.4172 9.98321C11.5139 9.88806 11.6347 9.84049 11.7798 9.84049H14.7851C14.9248 9.84049 15.0403 9.88806 15.1316 9.98321C15.2283 10.0784 15.2766 10.1973 15.2766 10.34C15.2766 10.4722 15.2283 10.5858 15.1316 10.681C15.0403 10.7708 14.9248 10.8158 14.7851 10.8158H11.7798ZM11.7798 13.6702C11.6347 13.6702 11.5139 13.6253 11.4172 13.5354C11.3259 13.4403 11.2802 13.3266 11.2802 13.1945C11.2802 13.0518 11.3259 12.9328 11.4172 12.8377C11.5139 12.7425 11.6347 12.695 11.7798 12.695H14.7851C14.9248 12.695 15.0403 12.7425 15.1316 12.8377C15.2283 12.9328 15.2766 13.0518 15.2766 13.1945C15.2766 13.3266 15.2283 13.4403 15.1316 13.5354C15.0403 13.6253 14.9248 13.6702 14.7851 13.6702H11.7798ZM7.21934 13.7099C6.91853 13.7099 6.68487 13.628 6.51835 13.4641C6.35184 13.3002 6.26858 13.0729 6.26858 12.7822V10.7761C6.26858 10.4854 6.35184 10.2581 6.51835 10.0942C6.68487 9.92506 6.91853 9.84049 7.21934 9.84049H9.23366C9.5291 9.84049 9.76007 9.92506 9.92659 10.0942C10.0931 10.2581 10.1764 10.4854 10.1764 10.7761V12.7822C10.1764 13.0729 10.0931 13.3002 9.92659 13.4641C9.76007 13.628 9.5291 13.7099 9.23366 13.7099H7.21934Z"
		fill="currentColor"
	/>
</svg>
