<svg
	color="rgb(var(--foreground, 0, 0, 0))"
	viewBox="0 0 17 18"
	fill="none"
	xmlns="http://www.w3.org/2000/svg"
>
	<path
		d="M0 4.37382C0 4.61394 0.0743866 4.80603 0.22316 4.95009C0.371933 5.09416 0.568526 5.1662 0.812939 5.1662H2.88514V14.9868C2.88514 15.8245 3.09236 16.4515 3.5068 16.8677C3.92124 17.2892 4.54555 17.5 5.37975 17.5H14.4895C14.9942 17.5 15.4352 17.3906 15.8125 17.1718C16.1897 16.9584 16.4819 16.6543 16.6892 16.2594C16.8964 15.8699 17 15.411 17 14.8828V12.7057C17 12.4656 16.9256 12.2735 16.7768 12.1295C16.6334 11.9854 16.4368 11.9134 16.1871 11.9134H15.5255V3.01318C15.5255 2.17546 15.3183 1.54849 14.9039 1.1323C14.4948 0.710766 13.8784 0.5 13.0549 0.5H2.08814C1.46648 0.5 0.961713 0.697426 0.57384 1.09228C0.19128 1.48713 0 2.01805 0 2.68503V4.37382ZM4.16831 14.9948V2.68503C4.16831 2.51962 4.16034 2.36221 4.1444 2.21281C4.12846 2.0634 4.10455 1.922 4.07267 1.78861H12.9831C13.3976 1.78861 13.711 1.89532 13.9236 2.10876C14.1361 2.32219 14.2424 2.629 14.2424 3.02919V11.9134H7.39616C7.14643 11.9134 6.94718 11.9854 6.79841 12.1295C6.64963 12.2735 6.57525 12.4656 6.57525 12.7057V14.9948C6.57525 15.3577 6.46101 15.6511 6.23254 15.8752C6.00938 16.0993 5.72511 16.2114 5.37975 16.2114C5.02375 16.2114 4.73152 16.0967 4.50305 15.8672C4.27989 15.6378 4.16831 15.347 4.16831 14.9948ZM1.28317 3.87759V2.68503C1.28317 2.40756 1.35756 2.18879 1.50633 2.02872C1.66042 1.86864 1.85435 1.78861 2.08814 1.78861C2.32724 1.78861 2.51852 1.86864 2.66198 2.02872C2.81075 2.18879 2.88514 2.40756 2.88514 2.68503V3.87759H1.28317ZM7.54759 16.2114C7.75481 15.8432 7.85842 15.4083 7.85842 14.9068V13.202H15.7168V14.8828C15.7168 15.2776 15.6026 15.5978 15.3741 15.8432C15.151 16.0887 14.8561 16.2114 14.4895 16.2114H7.54759ZM6.46367 7.96751H9.32489C9.46835 7.96751 9.58525 7.92216 9.67557 7.83145C9.77121 7.7354 9.81903 7.62068 9.81903 7.48729C9.81903 7.34322 9.77121 7.22316 9.67557 7.12712C9.58525 7.03107 9.46835 6.98305 9.32489 6.98305H6.46367C6.32021 6.98305 6.20066 7.03107 6.10502 7.12712C6.00938 7.22316 5.96156 7.34322 5.96156 7.48729C5.96156 7.62068 6.00938 7.7354 6.10502 7.83145C6.20066 7.92216 6.32021 7.96751 6.46367 7.96751ZM6.46367 5.1742H11.947C12.0905 5.1742 12.2074 5.12618 12.2977 5.03013C12.3933 4.93409 12.4412 4.8167 12.4412 4.67797C12.4412 4.53923 12.3933 4.42451 12.2977 4.3338C12.2074 4.23776 12.0905 4.18974 11.947 4.18974H6.46367C6.32021 4.18974 6.20066 4.23776 6.10502 4.3338C6.00938 4.42451 5.96156 4.53923 5.96156 4.67797C5.96156 4.8167 6.00938 4.93409 6.10502 5.03013C6.20066 5.12618 6.32021 5.1742 6.46367 5.1742Z"
		fill="currentColor"
	/>
</svg>
