<svg
	color="rgb(var(--foreground, 0, 0, 0))"
	viewBox="0 0 17 18"
	fill="none"
	xmlns="http://www.w3.org/2000/svg"
>
	<path
		d="M0 4.37382C0 4.61394 0.074737 4.80603 0.224211 4.95009C0.373685 5.09416 0.571204 5.1662 0.816769 5.1662H1.8097V2.58098C1.8097 2.32486 1.71895 2.11409 1.53745 1.94868C1.35594 1.78327 1.14508 1.70057 0.904852 1.70057C0.664626 1.69523 0.45376 1.77793 0.272256 1.94868C0.0907521 2.11409 0 2.32486 0 2.58098V4.37382ZM2.07395 0.5C2.38358 0.676083 2.59711 0.894852 2.71456 1.15631C2.83734 1.41243 2.89873 1.75392 2.89873 2.18079V15.411C2.89873 15.9766 3.0482 16.4142 3.34715 16.7236C3.6461 17.0331 4.04114 17.1879 4.53227 17.1879C4.99136 17.1879 5.35971 17.0385 5.63731 16.7396C5.9149 16.4408 6.0537 16.0193 6.0537 15.475V13.266C6.0537 12.7218 6.18182 12.3109 6.43806 12.0334C6.6943 11.756 7.09735 11.6172 7.6472 11.6172H15.3585V3.01318C15.3585 2.17546 15.1503 1.54849 14.7339 1.1323C14.3228 0.710766 13.7036 0.5 12.8761 0.5H2.07395ZM5.98964 4.67797C5.98964 4.53923 6.03768 4.42451 6.13377 4.3338C6.22986 4.23776 6.34998 4.18974 6.49411 4.18974H12.0033C12.1474 4.18974 12.2649 4.23776 12.3556 4.3338C12.4517 4.42451 12.4998 4.53923 12.4998 4.67797C12.4998 4.8167 12.4517 4.93409 12.3556 5.03013C12.2649 5.12618 12.1474 5.1742 12.0033 5.1742H6.49411C6.34998 5.1742 6.22986 5.12618 6.13377 5.03013C6.03768 4.93409 5.98964 4.8167 5.98964 4.67797ZM5.98964 7.48729C5.98964 7.34322 6.03768 7.22316 6.13377 7.12712C6.22986 7.03107 6.34998 6.98305 6.49411 6.98305H9.36882C9.51295 6.98305 9.6304 7.03107 9.72115 7.12712C9.81724 7.22316 9.86528 7.34322 9.86528 7.48729C9.86528 7.62068 9.81724 7.73541 9.72115 7.83145C9.6304 7.92216 9.51295 7.96751 9.36882 7.96751H6.49411C6.34998 7.96751 6.22986 7.92216 6.13377 7.83145C6.03768 7.73541 5.98964 7.62068 5.98964 7.48729ZM6.38201 17.5H14.4776C14.9848 17.5 15.4279 17.3906 15.8069 17.1718C16.1859 16.9584 16.4795 16.6543 16.6877 16.2594C16.8959 15.8699 17 15.411 17 14.8828V13.5061C17 13.266 16.9253 13.0739 16.7758 12.9298C16.6317 12.7804 16.4341 12.7057 16.1832 12.7057H7.9675C7.7166 12.7057 7.51641 12.7804 7.36693 12.9298C7.21746 13.0739 7.14272 13.266 7.14272 13.5061V15.0749C7.14272 15.5337 7.09468 15.9659 6.99859 16.3715C6.90784 16.777 6.70231 17.1532 6.38201 17.5Z"
		fill="currentColor"
	/>
</svg>
