<svg
	color="rgb(var(--foreground, 0, 0, 0))"
	viewBox="0 0 15 18"
	fill="none"
	xmlns="http://www.w3.org/2000/svg"
>
	<path
		d="M2.65211 18C2.83411 18 2.96672 17.9512 3.04992 17.8537C3.13833 17.7561 3.20593 17.6179 3.25273 17.439L3.90796 14.8537H11.1388L11.7941 17.439C11.8409 17.6179 11.9111 17.7561 12.0047 17.8537C12.0983 17.9512 12.2283 18 12.3947 18C12.5975 18 12.7483 17.9431 12.8471 17.8293C12.9511 17.7209 13.0031 17.5772 13.0031 17.3984C13.0031 17.3062 12.9927 17.2222 12.9719 17.1463L11.7239 12.2764H12.1763C12.4311 12.2764 12.6417 12.2033 12.8081 12.0569C12.9797 11.9051 13.0655 11.7127 13.0655 11.4797C13.0655 11.2249 12.9875 11.0244 12.8315 10.878C12.6755 10.7263 12.4701 10.6504 12.2153 10.6504H3.30733C3.01612 10.6504 2.78991 10.5745 2.62871 10.4228C2.4675 10.2656 2.3869 10.0407 2.3869 9.74797V7.52032H3.58814V8.12195C3.58814 8.58266 3.69995 8.92412 3.92356 9.14634C4.14717 9.36856 4.48518 9.47968 4.9376 9.47968H10.1638C10.6162 9.47968 10.9516 9.36856 11.17 9.14634C11.3937 8.92412 11.5055 8.58266 11.5055 8.12195V7.52032H14.3136C14.5216 7.52032 14.688 7.46613 14.8128 7.35772C14.9376 7.2439 15 7.08943 15 6.89431C15 6.69919 14.9402 6.54472 14.8206 6.43089C14.701 6.31707 14.5424 6.26016 14.3448 6.26016H0.616225C0.429017 6.26016 0.278211 6.31978 0.163807 6.43902C0.0546022 6.55285 0 6.70461 0 6.89431C0 7.08943 0.0598024 7.2439 0.179407 7.35772C0.299012 7.46613 0.457618 7.52032 0.655226 7.52032H1.17785V10.5691C1.17785 11.1057 1.32605 11.5257 1.62246 11.8293C1.91888 12.1274 2.32449 12.2764 2.83931 12.2764H3.32293L2.08268 17.1463C2.07228 17.1843 2.06188 17.2249 2.05148 17.2683C2.04628 17.3117 2.04368 17.3577 2.04368 17.4065C2.04368 17.5745 2.09048 17.7154 2.18409 17.8293C2.28289 17.9431 2.4389 18 2.65211 18ZM4.23557 13.5854L4.56318 12.2764H10.4836L10.8112 13.5854H4.23557ZM4.9064 5.04878H10.195C11.0998 5.04878 11.5523 4.59079 11.5523 3.6748V1.37398C11.5523 0.457995 11.0998 0 10.195 0H4.9064C4.00156 0 3.54914 0.457995 3.54914 1.37398V3.6748C3.54914 4.59079 4.00156 5.04878 4.9064 5.04878Z"
		fill="currentColor"
	/>
</svg>
