<svg
	color="rgb(var(--foreground, 0, 0, 0))"
	viewBox="0 0 18 14"
	fill="none"
	xmlns="http://www.w3.org/2000/svg"
>
	<path
		d="M10.8015 4.4943C10.6641 4.4943 10.5496 4.44867 10.458 4.35741C10.3664 4.26616 10.3206 4.15463 10.3206 4.02281C10.3206 3.891 10.3664 3.782 10.458 3.69582C10.5496 3.60456 10.6641 3.55894 10.8015 3.55894H14.9695C15.1018 3.55894 15.2137 3.60456 15.3053 3.69582C15.3969 3.782 15.4427 3.891 15.4427 4.02281C15.4427 4.15463 15.3969 4.26616 15.3053 4.35741C15.2137 4.44867 15.1018 4.4943 14.9695 4.4943H10.8015ZM10.8015 7.47529C10.6641 7.47529 10.5496 7.42966 10.458 7.3384C10.3664 7.24715 10.3206 7.13308 10.3206 6.9962C10.3206 6.86945 10.3664 6.76299 10.458 6.67681C10.5496 6.58555 10.6641 6.53992 10.8015 6.53992H14.9695C15.1018 6.53992 15.2137 6.58555 15.3053 6.67681C15.3969 6.76299 15.4427 6.86945 15.4427 6.9962C15.4427 7.13308 15.3969 7.24715 15.3053 7.3384C15.2137 7.42966 15.1018 7.47529 14.9695 7.47529H10.8015ZM10.8015 10.4487C10.6641 10.4487 10.5496 10.4056 10.458 10.3194C10.3664 10.2281 10.3206 10.1191 10.3206 9.9924C10.3206 9.86058 10.3664 9.74905 10.458 9.65779C10.5496 9.56147 10.6641 9.51331 10.8015 9.51331H14.9695C15.1018 9.51331 15.2137 9.56147 15.3053 9.65779C15.3969 9.74905 15.4427 9.86058 15.4427 9.9924C15.4427 10.1191 15.3969 10.2281 15.3053 10.3194C15.2137 10.4056 15.1018 10.4487 14.9695 10.4487H10.8015ZM2.84733 10.5019C2.72519 10.5019 2.63104 10.4639 2.56489 10.3878C2.50382 10.3118 2.47328 10.218 2.47328 10.1065C2.47328 9.92395 2.53944 9.69328 2.67176 9.41445C2.80916 9.13054 3.01527 8.84664 3.29008 8.56274C3.56997 8.27376 3.91858 8.03295 4.33588 7.8403C4.75827 7.64766 5.25445 7.55133 5.82443 7.55133C6.3944 7.55133 6.89059 7.64766 7.31298 7.8403C7.73537 8.03295 8.08397 8.27376 8.35878 8.56274C8.63868 8.84664 8.84478 9.13054 8.9771 9.41445C9.1145 9.69328 9.18321 9.92395 9.18321 10.1065C9.18321 10.218 9.15013 10.3118 9.08397 10.3878C9.0229 10.4639 8.9313 10.5019 8.80916 10.5019H2.84733ZM5.82443 7.01901C5.36641 7.01901 4.97201 6.84664 4.64122 6.5019C4.31552 6.15716 4.15267 5.7237 4.15267 5.20152C4.15267 4.87706 4.22646 4.58048 4.37405 4.31179C4.52672 4.04309 4.73028 3.82763 4.98473 3.6654C5.23919 3.50317 5.51908 3.42205 5.82443 3.42205C6.13486 3.42205 6.41476 3.50317 6.66412 3.6654C6.91857 3.82763 7.11959 4.04309 7.26718 4.31179C7.41985 4.58048 7.49618 4.87706 7.49618 5.20152C7.49618 5.7237 7.33333 6.15716 7.00763 6.5019C6.68193 6.84664 6.28753 7.01901 5.82443 7.01901ZM2.39695 14H15.6031C16.4071 14 17.0076 13.8023 17.4046 13.4068C17.8015 13.0165 18 12.4309 18 11.6502V2.35741C18 1.57668 17.8015 0.988593 17.4046 0.593156C17.0076 0.197719 16.4071 0 15.6031 0H2.39695C1.59796 0 0.997455 0.197719 0.59542 0.593156C0.198473 0.983523 0 1.57161 0 2.35741V11.6502C0 12.4309 0.198473 13.0165 0.59542 13.4068C0.997455 13.8023 1.59796 14 2.39695 14Z"
		fill="currentColor"
	/>
</svg>
