<svg
	color="rgb(var(--foreground, 0, 0, 0))"
	viewBox="0 0 18 14"
	fill="none"
	xmlns="http://www.w3.org/2000/svg"
>
	<path
		d="M10.8015 4.4943H14.9695C15.1018 4.4943 15.2137 4.44867 15.3053 4.35741C15.3969 4.26616 15.4427 4.15463 15.4427 4.02281C15.4427 3.891 15.3969 3.782 15.3053 3.69582C15.2137 3.60456 15.1018 3.55894 14.9695 3.55894H10.8015C10.6641 3.55894 10.5496 3.60456 10.458 3.69582C10.3664 3.782 10.3206 3.891 10.3206 4.02281C10.3206 4.15463 10.3664 4.26616 10.458 4.35741C10.5496 4.44867 10.6641 4.4943 10.8015 4.4943ZM10.8015 7.47529H14.9695C15.1018 7.47529 15.2137 7.42966 15.3053 7.3384C15.3969 7.24715 15.4427 7.13308 15.4427 6.9962C15.4427 6.86945 15.3969 6.76299 15.3053 6.67681C15.2137 6.58555 15.1018 6.53992 14.9695 6.53992H10.8015C10.6641 6.53992 10.5496 6.58555 10.458 6.67681C10.3664 6.76299 10.3206 6.86945 10.3206 6.9962C10.3206 7.13308 10.3664 7.24715 10.458 7.3384C10.5496 7.42966 10.6641 7.47529 10.8015 7.47529ZM10.8015 10.4487H14.9695C15.1018 10.4487 15.2137 10.4056 15.3053 10.3194C15.3969 10.2281 15.4427 10.1191 15.4427 9.9924C15.4427 9.86058 15.3969 9.74905 15.3053 9.65779C15.2137 9.56147 15.1018 9.51331 14.9695 9.51331H10.8015C10.6641 9.51331 10.5496 9.56147 10.458 9.65779C10.3664 9.74905 10.3206 9.86058 10.3206 9.9924C10.3206 10.1191 10.3664 10.2281 10.458 10.3194C10.5496 10.4056 10.6641 10.4487 10.8015 10.4487ZM2.84733 10.4487H8.80916C8.9313 10.4487 9.0229 10.4106 9.08397 10.3346C9.15013 10.2586 9.18321 10.1648 9.18321 10.0532C9.18321 9.87579 9.1145 9.64512 8.9771 9.36122C8.84478 9.07731 8.63868 8.79341 8.35878 8.50951C8.08397 8.22053 7.73537 7.97972 7.31298 7.78707C6.89059 7.59442 6.3944 7.4981 5.82443 7.4981C5.25445 7.4981 4.75827 7.59442 4.33588 7.78707C3.91858 7.97972 3.56997 8.22053 3.29008 8.50951C3.01527 8.79341 2.80916 9.07731 2.67176 9.36122C2.53944 9.64512 2.47328 9.87579 2.47328 10.0532C2.47328 10.1648 2.50382 10.2586 2.56489 10.3346C2.63104 10.4106 2.72519 10.4487 2.84733 10.4487ZM5.82443 6.96578C6.28753 6.96578 6.68193 6.79341 7.00763 6.44867C7.33333 6.10393 7.49618 5.67047 7.49618 5.14829C7.49618 4.82383 7.41985 4.52725 7.26718 4.25856C7.11959 3.98986 6.91857 3.7744 6.66412 3.61217C6.41476 3.44994 6.13486 3.36882 5.82443 3.36882C5.51908 3.36882 5.23919 3.44994 4.98473 3.61217C4.73028 3.7744 4.52672 3.98986 4.37405 4.25856C4.22646 4.52725 4.15267 4.82383 4.15267 5.14829C4.15267 5.67047 4.31552 6.10393 4.64122 6.44867C4.97201 6.79341 5.36641 6.96578 5.82443 6.96578ZM2.39695 14H15.6031C16.4071 14 17.0076 13.8023 17.4046 13.4068C17.8015 13.0165 18 12.4309 18 11.6502V2.35741C18 1.57668 17.8015 0.988593 17.4046 0.593156C17.0076 0.197719 16.4071 0 15.6031 0H2.39695C1.59796 0 0.997455 0.197719 0.59542 0.593156C0.198473 0.983523 0 1.57161 0 2.35741V11.6502C0 12.4309 0.198473 13.0165 0.59542 13.4068C0.997455 13.8023 1.59796 14 2.39695 14ZM2.41221 12.7757C2.03053 12.7757 1.73791 12.6768 1.53435 12.4791C1.33079 12.2763 1.22901 11.9772 1.22901 11.5817V2.42586C1.22901 2.03042 1.33079 1.73131 1.53435 1.52852C1.73791 1.32573 2.03053 1.22433 2.41221 1.22433H15.5878C15.9644 1.22433 16.2545 1.32573 16.458 1.52852C16.6667 1.73131 16.771 2.03042 16.771 2.42586V11.5817C16.771 11.9772 16.6667 12.2763 16.458 12.4791C16.2545 12.6768 15.9644 12.7757 15.5878 12.7757H2.41221Z"
		fill="currentColor"
	/>
</svg>
