<svg
	color="rgb(var(--foreground, 0, 0, 0))"
	viewBox="0 0 18 14"
	fill="none"
	xmlns="http://www.w3.org/2000/svg"
>
	<path
		d="M3.15267 10.2966C2.40458 10.2966 2.03053 9.92902 2.03053 9.19392V4.82129C2.03053 4.08618 2.40458 3.71863 3.15267 3.71863H7.50382C8.257 3.71863 8.63359 4.08618 8.63359 4.82129V9.19392C8.63359 9.92902 8.257 10.2966 7.50382 10.2966H3.15267ZM2.94656 9.55894H7.71756C7.64122 9.32066 7.49364 9.10013 7.27481 8.89734C7.06107 8.68948 6.7888 8.52218 6.45802 8.39544C6.12723 8.26362 5.75318 8.19772 5.33588 8.19772C4.9084 8.19772 4.52926 8.26362 4.19847 8.39544C3.87277 8.52218 3.60051 8.68948 3.38168 8.89734C3.16794 9.10013 3.0229 9.32066 2.94656 9.55894ZM5.32824 7.64259C5.6743 7.64259 5.96692 7.51331 6.20611 7.25475C6.44529 6.9962 6.56489 6.67681 6.56489 6.29658C6.56489 5.93663 6.44529 5.62991 6.20611 5.37643C5.96692 5.11787 5.6743 4.98859 5.32824 4.98859C4.98728 4.98859 4.6972 5.11787 4.45802 5.37643C4.21883 5.62991 4.09924 5.93663 4.09924 6.29658C4.09924 6.67681 4.21883 6.9962 4.45802 7.25475C4.6972 7.51331 4.98728 7.64259 5.32824 7.64259ZM13.1145 10.2129C12.4733 10.2129 11.9109 10.0811 11.4275 9.81749C10.944 9.5488 10.5674 9.17364 10.2977 8.69202C10.0331 8.21039 9.90076 7.65019 9.90076 7.01141C9.90076 6.37262 10.0356 5.81242 10.3053 5.3308C10.5751 4.84411 10.9491 4.46641 11.4275 4.19772C11.9059 3.92395 12.4606 3.78707 13.0916 3.78707C13.7023 3.78707 14.2392 3.90875 14.7023 4.15209C15.1705 4.39544 15.5369 4.73511 15.8015 5.1711C16.0662 5.6071 16.1985 6.11153 16.1985 6.68441C16.1985 7.30798 16.0636 7.80735 15.7939 8.18251C15.5293 8.55767 15.1756 8.74525 14.7328 8.74525C14.3155 8.74525 14.0178 8.59062 13.8397 8.28137C13.6005 8.59062 13.2875 8.74525 12.9008 8.74525C12.4733 8.74525 12.1247 8.58555 11.855 8.26616C11.5852 7.94677 11.4504 7.53105 11.4504 7.01901C11.4504 6.52218 11.5827 6.11153 11.8473 5.78707C12.117 5.46261 12.4606 5.30038 12.8779 5.30038C13.0662 5.30038 13.2265 5.3308 13.3588 5.39163C13.4911 5.45247 13.6056 5.53612 13.7023 5.64259V5.58175C13.7532 5.39417 13.8804 5.30038 14.084 5.30038C14.1959 5.30038 14.2901 5.34094 14.3664 5.42205C14.4427 5.4981 14.4809 5.59696 14.4809 5.71863V7.6654C14.4809 7.77693 14.5064 7.85805 14.5573 7.90875C14.6081 7.95944 14.6921 7.98479 14.8092 7.98479C14.9975 7.98479 15.145 7.87326 15.2519 7.65019C15.3639 7.42712 15.4198 7.12041 15.4198 6.73004C15.4198 6.29404 15.3206 5.91382 15.1221 5.58935C14.9288 5.26489 14.6565 5.01141 14.3053 4.8289C13.9593 4.64639 13.5547 4.55513 13.0916 4.55513C12.6234 4.55513 12.2112 4.65906 11.855 4.86692C11.5038 5.07478 11.229 5.36375 11.0305 5.73384C10.8321 6.10393 10.7328 6.53232 10.7328 7.01901C10.7328 7.51584 10.8321 7.94423 11.0305 8.30418C11.229 8.66413 11.514 8.94043 11.8855 9.13308C12.257 9.32573 12.6972 9.42205 13.2061 9.42205C13.4504 9.42205 13.6387 9.40684 13.771 9.37643C13.9084 9.34094 14.0356 9.31305 14.1527 9.29278C14.2087 9.28264 14.2545 9.27503 14.2901 9.26996C14.3257 9.25982 14.3639 9.25475 14.4046 9.25475C14.5064 9.25475 14.5903 9.29024 14.6565 9.36122C14.7226 9.42712 14.7557 9.51077 14.7557 9.61217C14.7557 9.79468 14.6412 9.93663 14.4122 10.038C14.2595 10.0989 14.0687 10.1445 13.8397 10.1749C13.6107 10.2003 13.369 10.2129 13.1145 10.2129ZM13.0229 7.94677C13.2366 7.94677 13.4071 7.86058 13.5344 7.68821C13.6616 7.51584 13.7252 7.2801 13.7252 6.98099C13.7252 6.70215 13.6616 6.48162 13.5344 6.31939C13.4122 6.15716 13.2443 6.07605 13.0305 6.07605C12.8168 6.07605 12.6463 6.15716 12.5191 6.31939C12.3969 6.48162 12.3359 6.70976 12.3359 7.0038C12.3359 7.29785 12.3969 7.52852 12.5191 7.69582C12.6412 7.86312 12.8092 7.94677 13.0229 7.94677ZM2.39695 14H15.6031C16.4071 14 17.0076 13.8023 17.4046 13.4068C17.8015 13.0165 18 12.4309 18 11.6502V2.35741C18 1.57668 17.8015 0.988593 17.4046 0.593156C17.0076 0.197719 16.4071 0 15.6031 0H2.39695C1.59796 0 0.997455 0.197719 0.59542 0.593156C0.198473 0.983523 0 1.57161 0 2.35741V11.6502C0 12.4309 0.198473 13.0165 0.59542 13.4068C0.997455 13.8023 1.59796 14 2.39695 14Z"
		fill="currentColor"
	/>
</svg>
