<svg
	color="rgb(var(--foreground, 0, 0, 0))"
	viewBox="0 0 18 14"
	fill="none"
	xmlns="http://www.w3.org/2000/svg"
>
	<path
		d="M3.38168 10.1977H7.60305C8.33079 10.1977 8.69466 9.84284 8.69466 9.13308V4.88213C8.69466 4.17237 8.33079 3.81749 7.60305 3.81749H3.38168C2.65394 3.81749 2.29008 4.17237 2.29008 4.88213V9.13308C2.29008 9.84284 2.65394 10.1977 3.38168 10.1977ZM3.17557 9.48289C3.25191 9.25475 3.3944 9.03929 3.60305 8.8365C3.8117 8.63371 4.07634 8.47148 4.39695 8.34981C4.71756 8.22307 5.08397 8.1597 5.49618 8.1597C5.90331 8.1597 6.26718 8.22307 6.58779 8.34981C6.9084 8.47148 7.17303 8.63371 7.38168 8.8365C7.59542 9.03929 7.74046 9.25475 7.81679 9.48289H3.17557ZM5.49618 7.61977C5.16031 7.61977 4.87532 7.49556 4.64122 7.24715C4.41221 6.99873 4.29771 6.68948 4.29771 6.31939C4.29771 5.96451 4.41221 5.6654 4.64122 5.42205C4.87532 5.17364 5.16031 5.04943 5.49618 5.04943C5.82697 5.04943 6.10687 5.17364 6.33588 5.42205C6.56997 5.6654 6.68702 5.96451 6.68702 6.31939C6.68702 6.68948 6.56997 6.99873 6.33588 7.24715C6.10687 7.49556 5.82697 7.61977 5.49618 7.61977ZM12.7481 10.1141C12.9924 10.1141 13.2265 10.1014 13.4504 10.076C13.6743 10.0507 13.8601 10.0076 14.0076 9.94677C14.2265 9.85551 14.3359 9.71863 14.3359 9.53612C14.3359 9.4398 14.3053 9.35868 14.2443 9.29278C14.1832 9.22687 14.1018 9.19392 14 9.19392C13.9644 9.19392 13.9262 9.19899 13.8855 9.20913C13.8499 9.2142 13.8066 9.2218 13.7557 9.23194C13.6438 9.24715 13.5216 9.2725 13.3893 9.30798C13.257 9.3384 13.0712 9.35361 12.8321 9.35361C12.3384 9.35361 11.9109 9.25982 11.5496 9.07224C11.1934 8.88466 10.9186 8.61597 10.7252 8.26616C10.5318 7.91635 10.4351 7.50063 10.4351 7.01901C10.4351 6.54753 10.5318 6.13181 10.7252 5.77186C10.9186 5.41191 11.1858 5.13054 11.5267 4.92776C11.8728 4.72497 12.2723 4.62357 12.7252 4.62357C13.1781 4.62357 13.5725 4.71229 13.9084 4.88973C14.2494 5.06717 14.514 5.31559 14.7023 5.63498C14.8906 5.9493 14.9847 6.31686 14.9847 6.73764C14.9847 7.11787 14.9313 7.41698 14.8244 7.63498C14.7176 7.85298 14.5725 7.96198 14.3893 7.96198C14.1756 7.96198 14.0687 7.85551 14.0687 7.64259V5.75665C14.0687 5.64005 14.0331 5.54373 13.9618 5.46768C13.8906 5.39163 13.799 5.35361 13.687 5.35361C13.4936 5.35361 13.3715 5.44487 13.3206 5.62738V5.68821C13.229 5.58175 13.117 5.50063 12.9847 5.44487C12.8575 5.38403 12.7023 5.35361 12.5191 5.35361C12.117 5.35361 11.7863 5.51077 11.5267 5.82509C11.2723 6.13942 11.145 6.53739 11.145 7.01901C11.145 7.51584 11.2748 7.91888 11.5344 8.22814C11.7939 8.53739 12.1298 8.69202 12.542 8.69202C12.9186 8.69202 13.2214 8.54246 13.4504 8.24335C13.6285 8.54246 13.9186 8.69202 14.3206 8.69202C14.7481 8.69202 15.0916 8.50951 15.3511 8.14449C15.6107 7.77947 15.7405 7.29531 15.7405 6.69202C15.7405 6.13942 15.6107 5.65272 15.3511 5.23194C15.0967 4.80608 14.743 4.47655 14.2901 4.24335C13.8371 4.00507 13.3155 3.88593 12.7252 3.88593C12.1145 3.88593 11.5751 4.01774 11.1069 4.28137C10.6438 4.53992 10.2799 4.90494 10.0153 5.37643C9.75573 5.84791 9.62595 6.3929 9.62595 7.01141C9.62595 7.62991 9.75573 8.17237 10.0153 8.63878C10.2748 9.1052 10.6387 9.46768 11.1069 9.72624C11.5802 9.98479 12.1272 10.1141 12.7481 10.1141ZM12.6565 7.92395C12.4529 7.92395 12.2901 7.84284 12.1679 7.68061C12.0509 7.51838 11.9924 7.29278 11.9924 7.0038C11.9924 6.7199 12.0509 6.49937 12.1679 6.34221C12.2901 6.17997 12.4555 6.09886 12.6641 6.09886C12.8728 6.09886 13.0382 6.17744 13.1603 6.3346C13.2824 6.49176 13.3435 6.70722 13.3435 6.98099C13.3435 7.27503 13.2824 7.5057 13.1603 7.673C13.0382 7.8403 12.8702 7.92395 12.6565 7.92395ZM2.39695 14H15.6031C16.4071 14 17.0076 13.8023 17.4046 13.4068C17.8015 13.0165 18 12.4309 18 11.6502V2.35741C18 1.57668 17.8015 0.988593 17.4046 0.593156C17.0076 0.197719 16.4071 0 15.6031 0H2.39695C1.59796 0 0.997455 0.197719 0.59542 0.593156C0.198473 0.983523 0 1.57161 0 2.35741V11.6502C0 12.4309 0.198473 13.0165 0.59542 13.4068C0.997455 13.8023 1.59796 14 2.39695 14ZM2.41221 12.7757C2.03053 12.7757 1.73791 12.6768 1.53435 12.4791C1.33079 12.2763 1.22901 11.9772 1.22901 11.5817V2.42586C1.22901 2.03042 1.33079 1.73131 1.53435 1.52852C1.73791 1.32573 2.03053 1.22433 2.41221 1.22433H15.5878C15.9644 1.22433 16.2545 1.32573 16.458 1.52852C16.6667 1.73131 16.771 2.03042 16.771 2.42586V11.5817C16.771 11.9772 16.6667 12.2763 16.458 12.4791C16.2545 12.6768 15.9644 12.7757 15.5878 12.7757H2.41221Z"
		fill="currentColor"
	/>
</svg>
