<svg color="rgb(var(--foreground, 0, 0, 0))" viewBox="0 0 20 14" fill="none">
	<path
		d="M15.72 14C16.3193 14 16.8788 13.8953 17.3986 13.6858C17.9183 13.4818 18.3718 13.1972 18.759 12.832C19.1514 12.4668 19.4564 12.0426 19.6738 11.5593C19.8913 11.0759 20 10.5577 20 10.0046C20 9.44074 19.8992 8.91178 19.6977 8.41772C19.4962 7.9183 19.2071 7.47794 18.8305 7.09666C18.454 6.71001 18.0058 6.4066 17.4861 6.18642C17.4861 5.2896 17.3402 4.46529 17.0485 3.71346C16.7568 2.95627 16.3458 2.30111 15.8154 1.74799C15.2904 1.18949 14.6752 0.759877 13.9698 0.459148C13.2697 0.153049 12.5113 0 11.6945 0C10.9732 0 10.3209 0.118143 9.73747 0.35443C9.15937 0.585347 8.64492 0.896816 8.19411 1.28884C7.74861 1.67549 7.36675 2.1051 7.04853 2.57768C6.56059 2.43268 6.07266 2.4112 5.58473 2.51323C5.1021 2.6099 4.66189 2.80859 4.26412 3.10932C3.86635 3.40468 3.54548 3.78059 3.30151 4.23705C3.05754 4.68815 2.93026 5.19563 2.91965 5.75949C2.32034 5.85616 1.80058 6.08707 1.36038 6.45224C0.925484 6.81741 0.588703 7.27656 0.35004 7.82969C0.11668 8.38281 0 8.98696 0 9.64212C0 10.2328 0.119332 10.7913 0.357995 11.3176C0.596659 11.8439 0.930788 12.3084 1.36038 12.7112C1.79528 13.1086 2.30178 13.4227 2.87987 13.6536C3.45797 13.8845 4.08645 14 4.76531 14H15.72ZM7.35084 10.6007V7.62831C7.35084 7.11277 7.56298 6.84426 7.98727 6.82278V5.94476C7.98727 5.25738 8.1729 4.70426 8.54415 4.28539C8.92071 3.86114 9.40864 3.64902 10.008 3.64902C10.6073 3.64902 11.0925 3.86114 11.4638 4.28539C11.8351 4.70426 12.0207 5.25738 12.0207 5.94476V6.82278C12.4503 6.84426 12.6651 7.11277 12.6651 7.62831V10.6007C12.6651 11.1377 12.4132 11.4062 11.9093 11.4062H8.09865C7.60011 11.4062 7.35084 11.1377 7.35084 10.6007ZM8.76691 6.81473H11.249V5.85616C11.249 5.42117 11.135 5.06943 10.9069 4.80092C10.6789 4.53241 10.3792 4.39816 10.008 4.39816C9.6367 4.39816 9.33705 4.53241 9.10899 4.80092C8.88093 5.06943 8.76691 5.42117 8.76691 5.85616V6.81473Z"
		fill="currentColor"
	/>
</svg>
