<svg color="rgb(var(--foreground, 0, 0, 0))" viewBox="0 0 20 14" fill="none">
	<path
		d="M15.72 14C16.3193 14 16.8788 13.8953 17.3986 13.6858C17.9183 13.4818 18.3718 13.1972 18.759 12.832C19.1514 12.4668 19.4564 12.0426 19.6738 11.5593C19.8913 11.0759 20 10.5577 20 10.0046C20 9.44074 19.8992 8.91178 19.6977 8.41772C19.4962 7.9183 19.2071 7.47794 18.8305 7.09666C18.454 6.71001 18.0058 6.4066 17.4861 6.18642C17.4861 5.2896 17.3402 4.46529 17.0485 3.71346C16.7568 2.95627 16.3458 2.30111 15.8154 1.74799C15.2904 1.18949 14.6752 0.759877 13.9698 0.459148C13.2697 0.153049 12.5113 0 11.6945 0C10.9732 0 10.3209 0.118143 9.73747 0.35443C9.15937 0.585347 8.64492 0.896816 8.19411 1.28884C7.74861 1.67549 7.36675 2.1051 7.04853 2.57768C6.56059 2.43268 6.07266 2.4112 5.58473 2.51323C5.1021 2.6099 4.66189 2.80859 4.26412 3.10932C3.86635 3.40468 3.54548 3.78059 3.30151 4.23705C3.05754 4.68815 2.93026 5.19563 2.91965 5.75949C2.32034 5.85616 1.80058 6.08707 1.36038 6.45224C0.925484 6.81741 0.588703 7.27656 0.35004 7.82969C0.11668 8.38281 0 8.98696 0 9.64212C0 10.2328 0.119332 10.7913 0.357995 11.3176C0.596659 11.8439 0.930788 12.3084 1.36038 12.7112C1.79528 13.1086 2.30178 13.4227 2.87987 13.6536C3.45797 13.8845 4.08645 14 4.76531 14H15.72ZM8.36118 10.5604C8.22859 10.6839 8.08274 10.7403 7.92363 10.7296C7.76452 10.7135 7.62662 10.649 7.50994 10.5362C7.39326 10.4288 7.32962 10.2946 7.31901 10.1335C7.30841 9.96701 7.36675 9.81933 7.49403 9.69045L9.1249 8.02301L7.49403 6.35558C7.36675 6.2267 7.31106 6.0817 7.32697 5.9206C7.34288 5.75949 7.40387 5.61987 7.50994 5.50173C7.62132 5.38358 7.75656 5.32183 7.91567 5.31646C8.08008 5.30572 8.22859 5.3621 8.36118 5.48562L10 7.13694L11.6388 5.48562C11.7661 5.35673 11.9093 5.30034 12.0684 5.31646C12.2328 5.33257 12.3734 5.39432 12.4901 5.50173C12.6067 5.6145 12.6677 5.75412 12.673 5.9206C12.6836 6.0817 12.628 6.2267 12.506 6.35558L10.8751 8.02301L12.506 9.69045C12.628 9.81933 12.681 9.96433 12.6651 10.1254C12.6545 10.2865 12.5935 10.4262 12.4821 10.5443C12.376 10.6624 12.2408 10.7269 12.0764 10.7376C11.912 10.743 11.7661 10.6839 11.6388 10.5604L10 8.90909L8.36118 10.5604Z"
		fill="currentColor"
	/>
</svg>
