<svg color="rgb(var(--foreground, 0, 0, 0))" viewBox="0 0 20 14" fill="none">
	<path
		d="M6.07796 12.5742C6.26889 12.1392 6.56325 11.7096 6.96102 11.2854C7.35879 10.8611 7.85733 10.5121 8.45664 10.2382C9.05595 9.95896 9.75603 9.81933 10.5569 9.81933C11.3577 9.81933 12.0578 9.95896 12.6571 10.2382C13.2564 10.5121 13.755 10.8611 14.1527 11.2854C14.5505 11.7096 14.8449 12.1392 15.0358 12.5742H6.07796ZM10.5569 8.82048C10.1591 8.81511 9.79581 8.70502 9.46698 8.49022C9.13816 8.27004 8.87563 7.98005 8.6794 7.62025C8.48847 7.25508 8.393 6.855 8.393 6.42002C8.393 5.99041 8.48847 5.60107 8.6794 5.25201C8.87563 4.89758 9.13816 4.61565 9.46698 4.40621C9.79581 4.19141 10.1591 4.084 10.5569 4.084C10.9547 4.084 11.3153 4.19141 11.6388 4.40621C11.9676 4.61565 12.2302 4.89758 12.4264 5.25201C12.6226 5.60107 12.7208 5.99041 12.7208 6.42002C12.7208 6.855 12.6226 7.25508 12.4264 7.62025C12.2302 7.98542 11.9676 8.2781 11.6388 8.49827C11.3153 8.71845 10.9547 8.82585 10.5569 8.82048ZM15.72 14C16.3193 14 16.8788 13.8953 17.3986 13.6858C17.9183 13.4818 18.3718 13.1972 18.759 12.832C19.1514 12.4668 19.4564 12.0426 19.6738 11.5593C19.8913 11.0759 20 10.5577 20 10.0046C20 9.44074 19.8992 8.91178 19.6977 8.41772C19.4962 7.9183 19.2071 7.47794 18.8305 7.09666C18.454 6.71001 18.0058 6.4066 17.4861 6.18642C17.4861 5.2896 17.3402 4.46529 17.0485 3.71346C16.7568 2.95627 16.3458 2.30111 15.8154 1.74799C15.2904 1.18949 14.6752 0.759877 13.9698 0.459148C13.2697 0.153049 12.5113 0 11.6945 0C10.9732 0 10.3209 0.118143 9.73747 0.35443C9.15937 0.585347 8.64492 0.896816 8.19411 1.28884C7.74861 1.67549 7.36675 2.1051 7.04853 2.57768C6.56059 2.43268 6.07266 2.4112 5.58473 2.51323C5.1021 2.6099 4.66189 2.80859 4.26412 3.10932C3.86635 3.40468 3.54548 3.78059 3.30151 4.23705C3.05754 4.68815 2.93026 5.19563 2.91965 5.75949C2.32034 5.85616 1.80058 6.08707 1.36038 6.45224C0.925484 6.81741 0.588703 7.27656 0.35004 7.82969C0.11668 8.38281 0 8.98696 0 9.64212C0 10.2328 0.119332 10.7913 0.357995 11.3176C0.596659 11.8439 0.930788 12.3084 1.36038 12.7112C1.79528 13.1086 2.30178 13.4227 2.87987 13.6536C3.45797 13.8845 4.08645 14 4.76531 14H15.72Z"
		fill="currentColor"
	/>
</svg>
