<svg color="rgb(var(--foreground, 0, 0, 0))" viewBox="0 0 20 16" fill="none">
	<path
		d="M4.76531 13.8073H12.3787L11.0899 12.5283H4.76531C4.09706 12.5283 3.5004 12.3906 2.97534 12.1152C2.45028 11.8345 2.0366 11.4664 1.73429 11.0109C1.43198 10.5501 1.28083 10.0497 1.28083 9.50943C1.28083 8.97981 1.38425 8.50049 1.59109 8.0715C1.79793 7.63721 2.09759 7.29295 2.49006 7.03873C2.88783 6.78451 3.36781 6.6574 3.92999 6.6574C4.03076 6.6574 4.08115 6.60443 4.08115 6.49851C4.08115 6.33962 4.09175 6.19133 4.11297 6.05362C4.13418 5.91592 4.166 5.78616 4.20843 5.66435L3.15036 4.60775C3.07611 4.76663 3.01777 4.93611 2.97534 5.11619C2.93821 5.29626 2.91965 5.48428 2.91965 5.68024C2.32034 5.77557 1.80058 6.00331 1.36038 6.36345C0.925484 6.7236 0.588703 7.17643 0.35004 7.72195C0.11668 8.26746 0 8.86329 0 9.50943C0 10.092 0.119332 10.6428 0.357995 11.1619C0.596659 11.6809 0.930788 12.139 1.36038 12.5362C1.79528 12.9282 2.30178 13.238 2.87987 13.4657C3.45797 13.6935 4.08645 13.8073 4.76531 13.8073ZM16.6667 13.6723C17.3243 13.5399 17.9024 13.2936 18.401 12.9335C18.9048 12.568 19.2973 12.1205 19.5784 11.5909C19.8595 11.0612 20 10.4866 20 9.86693C20 9.31082 19.8992 8.78914 19.6977 8.30189C19.4962 7.80933 19.2071 7.37504 18.8305 6.99901C18.454 6.61768 18.0058 6.31844 17.4861 6.10129C17.4861 5.21681 17.3402 4.40384 17.0485 3.66236C16.7568 2.91559 16.3458 2.26945 15.8154 1.72393C15.2904 1.17312 14.6752 0.749421 13.9698 0.45283C13.2697 0.150943 12.5113 0 11.6945 0C10.9732 0 10.3209 0.116518 9.73747 0.349553C9.15937 0.577292 8.64492 0.884475 8.19411 1.2711C7.74861 1.65243 7.36675 2.07613 7.04853 2.5422C6.79926 2.47335 6.54468 2.44158 6.28481 2.44687C6.02493 2.44687 5.7677 2.47865 5.51313 2.5422L6.73031 3.7577C6.85229 3.7524 6.97693 3.76034 7.10422 3.78153C7.2315 3.79742 7.35614 3.8239 7.47812 3.86097C7.56828 3.88745 7.63458 3.86097 7.67701 3.78153C7.93689 3.32605 8.24715 2.90765 8.6078 2.52632C8.96844 2.14499 9.40069 1.8431 9.90453 1.62066C10.4137 1.39292 11.0103 1.27905 11.6945 1.27905C12.5643 1.27905 13.3333 1.4856 14.0016 1.89871C14.6698 2.30652 15.2002 2.84674 15.5927 3.51936C15.9851 4.19199 16.2026 4.92022 16.245 5.70407C16.2556 5.88944 16.2556 6.0854 16.245 6.29196C16.2397 6.49321 16.2291 6.68653 16.2132 6.8719C16.2026 6.97253 16.245 7.03343 16.3405 7.05462C17.0618 7.2135 17.6372 7.54187 18.0668 8.03972C18.5017 8.53757 18.7192 9.14664 18.7192 9.86693C18.7192 10.3595 18.5866 10.807 18.3214 11.2095C18.0562 11.612 17.6956 11.9325 17.2395 12.1708C16.7887 12.4091 16.2822 12.5283 15.72 12.5283H15.5211L16.6667 13.6723ZM15.7359 15.8252C15.8579 15.9417 16.0011 16 16.1655 16C16.3352 16 16.481 15.9417 16.603 15.8252C16.7197 15.7034 16.778 15.5578 16.778 15.3883C16.7833 15.2188 16.725 15.0758 16.603 14.9593L3.32538 1.70804C3.20339 1.58623 3.05489 1.52797 2.87987 1.53327C2.71016 1.53327 2.56696 1.59153 2.45028 1.70804C2.3336 1.82456 2.27526 1.97021 2.27526 2.14498C2.28056 2.31976 2.3389 2.46276 2.45028 2.57398L15.7359 15.8252Z"
		fill="currentColor"
	/>
</svg>
