<svg color="rgb(var(--foreground, 0, 0, 0))" viewBox="0 0 20 18" fill="none">
	<path
		d="M0 9.88202C0 10.5954 0.177672 11.242 0.533015 11.8216C0.893662 12.4013 1.39751 12.8639 2.04455 13.2095C2.69159 13.555 3.45001 13.7278 4.31981 13.7278H9.41925V17.3562C9.41925 17.529 9.48024 17.6795 9.60223 17.8077C9.72952 17.9359 9.88067 18 10.0557 18C10.2254 18 10.3713 17.9359 10.4932 17.8077C10.6205 17.6795 10.6842 17.529 10.6842 17.3562V13.7278H16.1734C16.9372 13.7278 17.6054 13.5745 18.1782 13.268C18.751 12.9614 19.1965 12.5462 19.5147 12.0223C19.8382 11.4928 20 10.8992 20 10.2415C20 9.4222 19.7746 8.66698 19.3238 7.97585C18.8783 7.27914 18.2657 6.7608 17.4861 6.42081C17.4861 5.49001 17.3402 4.63446 17.0485 3.85416C16.7568 3.06828 16.3458 2.3883 15.8154 1.81421C15.2904 1.24013 14.6752 0.794241 13.9698 0.476544C13.2697 0.158848 12.5113 0 11.6945 0C10.9732 0 10.3209 0.12262 9.73747 0.367859C9.15937 0.607524 8.64492 0.930794 8.19411 1.33767C7.74861 1.74454 7.36675 2.19043 7.04853 2.67534C6.59772 2.54714 6.131 2.536 5.64837 2.6419C5.17104 2.74779 4.72819 2.95402 4.31981 3.26057C3.91143 3.56154 3.5773 3.94334 3.31742 4.40595C3.06285 4.86856 2.93026 5.39526 2.91965 5.98607C2.32034 6.08639 1.80058 6.32327 1.36038 6.6967C0.925484 7.06456 0.588703 7.52717 0.35004 8.08453C0.11668 8.63632 0 9.23549 0 9.88202ZM9.41925 13.385V9.07942L9.46698 7.83372L7.72474 9.77334C7.61337 9.90711 7.46752 9.97399 7.28719 9.97399C7.12278 9.97399 6.98488 9.91825 6.87351 9.80678C6.76744 9.69531 6.7144 9.55597 6.7144 9.38876C6.7144 9.22712 6.77804 9.07942 6.90533 8.94566L9.59427 6.22016C9.67383 6.13655 9.74808 6.07803 9.81703 6.04459C9.89128 6.01115 9.97083 5.99443 10.0557 5.99443C10.1352 5.99443 10.2095 6.01115 10.2784 6.04459C10.3527 6.07803 10.4296 6.13655 10.5091 6.22016L13.1981 8.94566C13.3254 9.07942 13.389 9.22712 13.389 9.38876C13.389 9.55597 13.3333 9.69531 13.222 9.80678C13.1106 9.91825 12.9727 9.97399 12.8083 9.97399C12.6333 9.97399 12.4901 9.90711 12.3787 9.77334L10.6364 7.83372L10.6842 9.07942V13.385C10.6842 13.569 10.6205 13.725 10.4932 13.8532C10.3713 13.9814 10.2254 14.0455 10.0557 14.0455C9.88067 14.0455 9.72952 13.9814 9.60223 13.8532C9.48024 13.725 9.41925 13.569 9.41925 13.385Z"
		fill="currentColor"
	/>
</svg>
