<svg color="rgb(var(--foreground, 0, 0, 0))" viewBox="0 0 20 18" fill="none">
	<path
		d="M12.1161 12.376V13.7214H16.0939C16.9106 13.7214 17.6107 13.5655 18.1941 13.2535C18.7775 12.9359 19.223 12.5098 19.5306 11.9749C19.8435 11.4345 20 10.8273 20 10.1532C20 9.30641 19.7746 8.5571 19.3238 7.90529C18.8783 7.24791 18.2657 6.75209 17.4861 6.41783C17.4861 5.48747 17.3402 4.63231 17.0485 3.85237C16.7568 3.06685 16.3458 2.38719 15.8154 1.81337C15.2904 1.23955 14.6752 0.793872 13.9698 0.476323C13.2697 0.158774 12.5113 0 11.6945 0C10.9732 0 10.3209 0.122563 9.73747 0.367688C9.15937 0.607242 8.64492 0.930362 8.19411 1.33705C7.74861 1.74373 7.36675 2.18942 7.04853 2.67409C6.59772 2.54596 6.131 2.53482 5.64837 2.64067C5.17104 2.74652 4.72819 2.95265 4.31981 3.25905C3.91143 3.55989 3.5773 3.9415 3.31742 4.4039C3.06285 4.8663 2.93026 5.39276 2.91965 5.98329C2.32034 6.078 1.80058 6.30362 1.36038 6.66017C0.925484 7.01114 0.588703 7.45682 0.35004 7.99721C0.11668 8.5376 0 9.13649 0 9.79387C0 10.5181 0.164413 11.1783 0.493238 11.7744C0.827367 12.3649 1.30469 12.8384 1.92522 13.195C2.54574 13.546 3.2909 13.7214 4.1607 13.7214H7.95545V12.376H4.15274C3.52692 12.376 2.9992 12.2618 2.56961 12.0334C2.14532 11.7994 1.82445 11.4875 1.607 11.0975C1.38955 10.7075 1.28083 10.273 1.28083 9.79387C1.28083 8.99164 1.51154 8.32869 1.97295 7.80501C2.43437 7.27577 3.08671 7.01114 3.92999 7.01114C4.03076 7.01114 4.08115 6.95265 4.08115 6.83566C4.08115 5.97772 4.25086 5.32033 4.59029 4.86351C4.92973 4.40111 5.35932 4.11142 5.87908 3.99443C6.39883 3.87187 6.93185 3.89415 7.47812 4.06128C7.56828 4.08914 7.63458 4.06407 7.67701 3.98607C7.93689 3.50139 8.24715 3.06128 8.6078 2.66574C8.96844 2.26462 9.40069 1.94429 9.90453 1.70474C10.4137 1.46518 11.0103 1.3454 11.6945 1.3454C12.5643 1.3454 13.3333 1.56267 14.0016 1.99721C14.6698 2.42618 15.2002 2.99443 15.5927 3.70195C15.9851 4.40947 16.2026 5.17827 16.245 6.00836C16.2556 6.19777 16.2556 6.40111 16.245 6.61838C16.2397 6.83008 16.2291 7.03343 16.2132 7.22841C16.2026 7.33983 16.245 7.4039 16.3405 7.42061C17.0618 7.58774 17.6372 7.90529 18.0668 8.37326C18.5017 8.84123 18.7192 9.43454 18.7192 10.1532C18.7192 10.7939 18.4964 11.3259 18.0509 11.7493C17.6107 12.1671 16.9557 12.376 16.0859 12.376H12.1161ZM10.0398 18C10.2095 18 10.3553 17.9359 10.4773 17.8078C10.6046 17.6797 10.6683 17.5292 10.6683 17.3565V9.51811L10.6205 7.97215L11.1535 8.56546L12.3628 9.8273C12.4901 9.961 12.6333 10.0279 12.7924 10.0279C12.9568 10.0279 13.0947 9.97493 13.206 9.86908C13.3174 9.75766 13.3731 9.6156 13.3731 9.4429C13.3731 9.26462 13.3095 9.11699 13.1822 9L10.4932 6.35933C10.4137 6.28134 10.3368 6.22563 10.2625 6.1922C10.1936 6.15877 10.1193 6.14206 10.0398 6.14206C9.95492 6.14206 9.87802 6.15877 9.80907 6.1922C9.74012 6.22563 9.66322 6.28134 9.57836 6.35933L6.88942 9C6.76213 9.11699 6.69849 9.26462 6.69849 9.4429C6.69849 9.6156 6.75152 9.75766 6.8576 9.86908C6.96897 9.97493 7.10687 10.0279 7.27128 10.0279C7.43569 10.0279 7.58154 9.961 7.70883 9.8273L8.91806 8.56546L9.45107 7.97215L9.40334 9.51811V17.3565C9.40334 17.5292 9.46433 17.6797 9.58632 17.8078C9.7136 17.9359 9.86476 18 10.0398 18Z"
		fill="currentColor"
	/>
</svg>
