<svg viewBox="0 0 20 14" fill="none" color="rgb(var(--foreground, 0, 0, 0))">
	<path
		d="M15.72 14C16.3193 14 16.8788 13.8953 17.3986 13.6858C17.9183 13.4818 18.3718 13.1972 18.759 12.832C19.1514 12.4668 19.4564 12.0426 19.6738 11.5593C19.8913 11.0759 20 10.5577 20 10.0046C20 9.44074 19.8992 8.91178 19.6977 8.41772C19.4962 7.9183 19.2071 7.47794 18.8305 7.09666C18.454 6.71001 18.0058 6.4066 17.4861 6.18642C17.4861 5.2896 17.3402 4.46529 17.0485 3.71346C16.7568 2.95627 16.3458 2.30111 15.8154 1.74799C15.2904 1.18949 14.6752 0.759877 13.9698 0.459148C13.2697 0.153049 12.5113 0 11.6945 0C10.9732 0 10.3209 0.118143 9.73747 0.35443C9.15937 0.585347 8.64492 0.896816 8.19411 1.28884C7.74861 1.67549 7.36675 2.1051 7.04853 2.57768C6.56059 2.43268 6.07266 2.4112 5.58473 2.51323C5.1021 2.6099 4.66189 2.80859 4.26412 3.10932C3.86635 3.40468 3.54548 3.78059 3.30151 4.23705C3.05754 4.68815 2.93026 5.19563 2.91965 5.75949C2.32034 5.85616 1.80058 6.08707 1.36038 6.45224C0.925484 6.81741 0.588703 7.27656 0.35004 7.82969C0.11668 8.38281 0 8.98696 0 9.64212C0 10.2328 0.119332 10.7913 0.357995 11.3176C0.596659 11.8439 0.930788 12.3084 1.36038 12.7112C1.79528 13.1086 2.30178 13.4227 2.87987 13.6536C3.45797 13.8845 4.08645 14 4.76531 14H15.72ZM7.07239 8.0069C7.07239 7.39471 7.2209 6.84158 7.5179 6.34753C7.8149 5.8481 8.20207 5.45339 8.6794 5.16341C9.16203 4.87342 9.68178 4.72842 10.2387 4.72842C10.2705 4.72842 10.3023 4.73111 10.3341 4.73648C10.3713 4.73648 10.4031 4.73916 10.4296 4.74453L9.92045 4.20483C9.87802 4.16187 9.84354 4.11086 9.81703 4.05178C9.79581 3.98734 9.7852 3.92558 9.7852 3.86651C9.7852 3.73226 9.83028 3.6168 9.92045 3.52014C10.0159 3.42348 10.1273 3.37514 10.2546 3.37514C10.3182 3.37514 10.3819 3.38857 10.4455 3.41542C10.5091 3.44227 10.5595 3.47986 10.5967 3.52819L12.0127 4.99425C12.1029 5.08017 12.148 5.19563 12.148 5.34062C12.148 5.48562 12.1029 5.60376 12.0127 5.69505L10.5807 7.14499C10.4906 7.23629 10.3845 7.28193 10.2625 7.28193C10.1299 7.28193 10.0159 7.23629 9.92045 7.14499C9.83028 7.0537 9.7852 6.93824 9.7852 6.79862C9.7852 6.66973 9.83294 6.55696 9.9284 6.4603L10.6364 5.75144C10.5675 5.73533 10.4826 5.72727 10.3819 5.72727C9.95757 5.72727 9.57306 5.83199 9.22832 6.04143C8.88359 6.24549 8.6078 6.52206 8.40096 6.87112C8.19942 7.22018 8.09865 7.60683 8.09865 8.03107C8.09865 8.46068 8.19942 8.8527 8.40096 9.20713C8.6078 9.55619 8.88359 9.83544 9.22832 10.0449C9.57306 10.2543 9.95757 10.359 10.3819 10.359C10.8008 10.359 11.1827 10.2543 11.5274 10.0449C11.8722 9.83544 12.1453 9.55619 12.3469 9.20713C12.5537 8.8527 12.6571 8.46068 12.6571 8.03107C12.6571 7.89145 12.7075 7.7733 12.8083 7.67664C12.909 7.57461 13.031 7.52359 13.1742 7.52359C13.3121 7.52359 13.4315 7.57461 13.5322 7.67664C13.633 7.7733 13.6834 7.89145 13.6834 8.03107C13.6834 8.65401 13.5349 9.22056 13.2379 9.73072C12.9409 10.2355 12.5431 10.6383 12.0446 10.939C11.546 11.2397 10.9918 11.3901 10.3819 11.3901C9.77194 11.3901 9.21506 11.2397 8.71122 10.939C8.21268 10.6383 7.8149 10.2328 7.5179 9.72267C7.2209 9.20713 7.07239 8.63521 7.07239 8.0069Z"
		fill="currentColor"
	/>
</svg>
