<svg color="rgb(var(--foreground, 0, 0, 0))" viewBox="0 0 20 14" fill="none">
	<path
		d="M15.72 14C16.3193 14 16.8788 13.8953 17.3986 13.6858C17.9183 13.4818 18.3718 13.1972 18.759 12.832C19.1514 12.4668 19.4564 12.0426 19.6738 11.5593C19.8913 11.0759 20 10.5577 20 10.0046C20 9.44074 19.8992 8.91178 19.6977 8.41772C19.4962 7.9183 19.2071 7.47794 18.8305 7.09666C18.454 6.71001 18.0058 6.4066 17.4861 6.18642C17.4861 5.2896 17.3402 4.46529 17.0485 3.71346C16.7568 2.95627 16.3458 2.30111 15.8154 1.74799C15.2904 1.18949 14.6752 0.759877 13.9698 0.459148C13.2697 0.153049 12.5113 0 11.6945 0C10.9732 0 10.3209 0.118143 9.73747 0.35443C9.15937 0.585347 8.64492 0.896816 8.19411 1.28884C7.74861 1.67549 7.36675 2.1051 7.04853 2.57768C6.56059 2.43268 6.07266 2.4112 5.58473 2.51323C5.1021 2.6099 4.66189 2.80859 4.26412 3.10932C3.86635 3.40468 3.54548 3.78059 3.30151 4.23705C3.05754 4.68815 2.93026 5.19563 2.91965 5.75949C2.32034 5.85616 1.80058 6.08707 1.36038 6.45224C0.925484 6.81741 0.588703 7.27656 0.35004 7.82969C0.11668 8.38281 0 8.98696 0 9.64212C0 10.2328 0.119332 10.7913 0.357995 11.3176C0.596659 11.8439 0.930788 12.3084 1.36038 12.7112C1.79528 13.1086 2.30178 13.4227 2.87987 13.6536C3.45797 13.8845 4.08645 14 4.76531 14H15.72ZM15.72 12.7031H4.76531C4.09706 12.7031 3.5004 12.5635 2.97534 12.2842C2.45028 11.9996 2.0366 11.6264 1.73429 11.1646C1.43198 10.6974 1.28083 10.1899 1.28083 9.64212C1.28083 9.1051 1.38425 8.6191 1.59109 8.18412C1.79793 7.74377 2.09759 7.39471 2.49006 7.13694C2.88783 6.87917 3.36781 6.75029 3.92999 6.75029C4.03076 6.75029 4.08115 6.69659 4.08115 6.58918C4.08115 5.96624 4.17926 5.45339 4.3755 5.05063C4.57704 4.6425 4.84222 4.33372 5.17104 4.12428C5.49987 3.90947 5.86317 3.78865 6.26094 3.7618C6.66401 3.72957 7.06974 3.78059 7.47812 3.91484C7.56828 3.9417 7.63458 3.91484 7.67701 3.83429C7.93689 3.37246 8.24715 2.94822 8.6078 2.56156C8.96844 2.17491 9.40069 1.86881 9.90453 1.64327C10.4137 1.41235 11.0103 1.29689 11.6945 1.29689C12.5643 1.29689 13.3333 1.50633 14.0016 1.9252C14.6698 2.3387 15.2002 2.88646 15.5927 3.56847C15.9851 4.25048 16.2026 4.98888 16.245 5.78366C16.2556 5.97161 16.2556 6.17031 16.245 6.37975C16.2397 6.58381 16.2291 6.77982 16.2132 6.96778C16.2026 7.06981 16.245 7.13157 16.3405 7.15305C17.0618 7.31415 17.6372 7.6471 18.0668 8.1519C18.5017 8.65669 18.7192 9.27426 18.7192 10.0046C18.7192 10.504 18.5866 10.9578 18.3214 11.3659C18.0562 11.7741 17.6956 12.099 17.2395 12.3406C16.7887 12.5823 16.2822 12.7031 15.72 12.7031ZM13.3731 7.99079C13.3731 7.39471 13.2299 6.85769 12.9435 6.37975C12.6571 5.89643 12.2806 5.51515 11.8138 5.2359C11.3471 4.95128 10.8433 4.80898 10.3023 4.80898C10.2705 4.80898 10.2387 4.81166 10.2068 4.81703C10.175 4.81703 10.1432 4.81972 10.1114 4.82509L10.6126 4.3015C10.655 4.25853 10.6868 4.20752 10.708 4.14845C10.7346 4.08937 10.7478 4.0303 10.7478 3.97123C10.7478 3.84235 10.7027 3.73226 10.6126 3.64097C10.5277 3.5443 10.4216 3.49597 10.2944 3.49597C10.2307 3.49597 10.1697 3.5094 10.1114 3.53625C10.053 3.5631 10.0027 3.60069 9.96022 3.64902L8.58393 5.06674C8.49907 5.15267 8.45399 5.26544 8.44869 5.40506C8.44869 5.53932 8.49377 5.65209 8.58393 5.74338L9.97613 7.15305C10.061 7.23897 10.1644 7.28193 10.2864 7.28193C10.4137 7.28193 10.5224 7.23897 10.6126 7.15305C10.7027 7.06176 10.7478 6.95167 10.7478 6.82278C10.7478 6.69927 10.7001 6.58918 10.6046 6.49252L9.91249 5.79977C9.94962 5.7944 9.98939 5.78903 10.0318 5.78366C10.0796 5.77829 10.1246 5.7756 10.1671 5.7756C10.5807 5.7756 10.9547 5.87764 11.2888 6.0817C11.6229 6.2804 11.8881 6.54891 12.0843 6.88723C12.2859 7.22555 12.3866 7.60146 12.3866 8.01496C12.3866 8.43383 12.2859 8.81511 12.0843 9.1588C11.8881 9.49712 11.6229 9.76832 11.2888 9.97238C10.9547 10.1711 10.5807 10.2704 10.1671 10.2704C9.75869 10.2704 9.38743 10.1711 9.0533 9.97238C8.71917 9.76832 8.45134 9.49712 8.2498 9.1588C8.05357 8.81511 7.95545 8.43383 7.95545 8.01496C7.95545 7.8807 7.90507 7.76525 7.8043 7.66858C7.70883 7.57192 7.5948 7.52359 7.46221 7.52359C7.32962 7.52359 7.21294 7.57192 7.11217 7.66858C7.01671 7.76525 6.96897 7.8807 6.96897 8.01496C6.96897 8.61642 7.11217 9.16417 7.39857 9.65823C7.68496 10.1469 8.06948 10.5389 8.55211 10.8343C9.04004 11.1243 9.57836 11.2693 10.1671 11.2693C10.7611 11.2693 11.2994 11.1243 11.782 10.8343C12.27 10.5389 12.6571 10.1442 12.9435 9.65017C13.2299 9.15612 13.3731 8.60299 13.3731 7.99079Z"
		fill="currentColor"
	/>
</svg>
