<svg color="rgb(var(--foreground, 0, 0, 0))" viewBox="0 0 20 18" fill="none">
	<path
		d="M12.1161 11.9222V13.2182H16.0939C16.9106 13.2182 17.6107 13.068 18.1941 12.7674C18.7775 12.4615 19.223 12.051 19.5306 11.5358C19.8435 11.0152 20 10.4302 20 9.78086C20 8.96512 19.7746 8.24329 19.3238 7.61538C18.8783 6.98211 18.2657 6.50447 17.4861 6.18247C17.4861 5.28623 17.3402 4.46243 17.0485 3.71109C16.7568 2.95438 16.3458 2.29964 15.8154 1.74687C15.2904 1.1941 14.6752 0.764759 13.9698 0.458855C13.2697 0.152952 12.5113 0 11.6945 0C10.9732 0 10.3209 0.118068 9.73747 0.354204C9.15937 0.584973 8.64492 0.896243 8.19411 1.28801C7.74861 1.67979 7.36675 2.10912 7.04853 2.57603C6.59772 2.45259 6.131 2.44186 5.64837 2.54383C5.17104 2.6458 4.72819 2.84437 4.31981 3.13953C3.91143 3.42934 3.5773 3.79696 3.31742 4.2424C3.06285 4.68784 2.93026 5.19499 2.91965 5.76386C2.32034 5.8551 1.80058 6.07245 1.36038 6.41592C0.925484 6.75402 0.588703 7.18336 0.35004 7.70394C0.11668 8.22451 0 8.80143 0 9.4347C0 10.1324 0.164413 10.7683 0.493238 11.3426C0.827367 11.9114 1.30469 12.3676 1.92522 12.7111C2.54574 13.0492 3.2909 13.2182 4.1607 13.2182H7.95545V11.9222H4.15274C3.52692 11.9222 2.9992 11.8122 2.56961 11.5921C2.14532 11.3667 1.82445 11.0662 1.607 10.6905C1.38955 10.3148 1.28083 9.89624 1.28083 9.4347C1.28083 8.6619 1.51154 8.02326 1.97295 7.51878C2.43437 7.00894 3.08671 6.75402 3.92999 6.75402C4.03076 6.75402 4.08115 6.69767 4.08115 6.58497C4.08115 5.7585 4.25086 5.12522 4.59029 4.68515C4.92973 4.23971 5.35932 3.96064 5.87908 3.84794C6.39883 3.72987 6.93185 3.75134 7.47812 3.91234C7.56828 3.93918 7.63458 3.91503 7.67701 3.83989C7.93689 3.37299 8.24715 2.94902 8.6078 2.56798C8.96844 2.18157 9.40069 1.87299 9.90453 1.64222C10.4137 1.41145 11.0103 1.29606 11.6945 1.29606C12.5643 1.29606 13.3333 1.50537 14.0016 1.92397C14.6698 2.33721 15.2002 2.88462 15.5927 3.56619C15.9851 4.24776 16.2026 4.98837 16.245 5.78801C16.2556 5.97048 16.2556 6.16637 16.245 6.37567C16.2397 6.57961 16.2291 6.77549 16.2132 6.96333C16.2026 7.07066 16.245 7.13238 16.3405 7.14848C17.0618 7.30948 17.6372 7.61538 18.0668 8.06619C18.5017 8.51699 18.7192 9.08855 18.7192 9.78086C18.7192 10.398 18.4964 10.9106 18.0509 11.3184C17.6107 11.7209 16.9557 11.9222 16.0859 11.9222H12.1161ZM10.0398 18C10.1193 18 10.1936 17.9812 10.2625 17.9436C10.3368 17.9114 10.4137 17.8578 10.4932 17.7826L13.1822 15.2388C13.3095 15.1261 13.3731 14.9839 13.3731 14.8122C13.3731 14.6512 13.3174 14.517 13.206 14.4097C13.0947 14.3023 12.9568 14.2487 12.7924 14.2487C12.6333 14.2487 12.4901 14.3131 12.3628 14.4419L11.1535 15.6655L10.6205 16.229L10.6683 15.0295V8.12254C10.6683 7.9508 10.6046 7.80322 10.4773 7.67979C10.3553 7.55635 10.2095 7.49463 10.0398 7.49463C9.86476 7.49463 9.7136 7.55635 9.58632 7.67979C9.46433 7.80322 9.40334 7.9508 9.40334 8.12254V15.0295L9.45107 16.237L8.91806 15.6655L7.70883 14.4419C7.58154 14.3131 7.43569 14.2487 7.27128 14.2487C7.10687 14.2487 6.96897 14.3023 6.8576 14.4097C6.75152 14.517 6.69849 14.6512 6.69849 14.8122C6.69849 14.9839 6.76213 15.1261 6.88942 15.2388L9.57836 17.7826C9.66322 17.8578 9.74012 17.9114 9.80907 17.9436C9.87802 17.9812 9.95492 18 10.0398 18Z"
		fill="currentColor"
	/>
</svg>
