<svg color="rgb(var(--foreground, 0, 0, 0))" viewBox="0 0 20 14" fill="none">
	<path
		d="M15.72 14C16.3193 14 16.8788 13.8953 17.3986 13.6858C17.9183 13.4818 18.3718 13.1972 18.759 12.832C19.1514 12.4668 19.4564 12.0426 19.6738 11.5593C19.8913 11.0759 20 10.5577 20 10.0046C20 9.44074 19.8992 8.91178 19.6977 8.41772C19.4962 7.9183 19.2071 7.47794 18.8305 7.09666C18.454 6.71001 18.0058 6.4066 17.4861 6.18642C17.4861 5.2896 17.3402 4.46529 17.0485 3.71346C16.7568 2.95627 16.3458 2.30111 15.8154 1.74799C15.2904 1.18949 14.6752 0.759877 13.9698 0.459148C13.2697 0.153049 12.5113 0 11.6945 0C10.9732 0 10.3209 0.118143 9.73747 0.35443C9.15937 0.585347 8.64492 0.896816 8.19411 1.28884C7.74861 1.67549 7.36675 2.1051 7.04853 2.57768C6.56059 2.43268 6.07266 2.4112 5.58473 2.51323C5.1021 2.6099 4.66189 2.80859 4.26412 3.10932C3.86635 3.40468 3.54548 3.78059 3.30151 4.23705C3.05754 4.68815 2.93026 5.19563 2.91965 5.75949C2.32034 5.85616 1.80058 6.08707 1.36038 6.45224C0.925484 6.81741 0.588703 7.27656 0.35004 7.82969C0.11668 8.38281 0 8.98696 0 9.64212C0 10.2328 0.119332 10.7913 0.357995 11.3176C0.596659 11.8439 0.930788 12.3084 1.36038 12.7112C1.79528 13.1086 2.30178 13.4227 2.87987 13.6536C3.45797 13.8845 4.08645 14 4.76531 14H15.72ZM15.72 12.7031H4.76531C4.09706 12.7031 3.5004 12.5635 2.97534 12.2842C2.45028 11.9996 2.0366 11.6264 1.73429 11.1646C1.43198 10.6974 1.28083 10.1899 1.28083 9.64212C1.28083 9.1051 1.38425 8.6191 1.59109 8.18412C1.79793 7.74377 2.09759 7.39471 2.49006 7.13694C2.88783 6.87917 3.36781 6.75029 3.92999 6.75029C4.03076 6.75029 4.08115 6.69659 4.08115 6.58918C4.08115 5.96624 4.17926 5.45339 4.3755 5.05063C4.57704 4.6425 4.84222 4.33372 5.17104 4.12428C5.49987 3.90947 5.86317 3.78865 6.26094 3.7618C6.66401 3.72957 7.06974 3.78059 7.47812 3.91484C7.56828 3.9417 7.63458 3.91484 7.67701 3.83429C7.93689 3.37246 8.24715 2.94822 8.6078 2.56156C8.96844 2.17491 9.40069 1.86881 9.90453 1.64327C10.4137 1.41235 11.0103 1.29689 11.6945 1.29689C12.5643 1.29689 13.3333 1.50633 14.0016 1.9252C14.6698 2.3387 15.2002 2.88646 15.5927 3.56847C15.9851 4.25048 16.2026 4.98888 16.245 5.78366C16.2556 5.97161 16.2556 6.17031 16.245 6.37975C16.2397 6.58381 16.2291 6.77982 16.2132 6.96778C16.2026 7.06981 16.245 7.13157 16.3405 7.15305C17.0618 7.31415 17.6372 7.6471 18.0668 8.1519C18.5017 8.65669 18.7192 9.27426 18.7192 10.0046C18.7192 10.504 18.5866 10.9578 18.3214 11.3659C18.0562 11.7741 17.6956 12.099 17.2395 12.3406C16.7887 12.5823 16.2822 12.7031 15.72 12.7031ZM7.17582 7.99079C7.17582 8.60299 7.31901 9.15612 7.60541 9.65017C7.89181 10.1442 8.27632 10.5389 8.75895 10.8343C9.24688 11.1243 9.78786 11.2693 10.3819 11.2693C10.9706 11.2693 11.5062 11.1243 11.9889 10.8343C12.4768 10.5389 12.864 10.1469 13.1504 9.65823C13.4368 9.16417 13.58 8.61642 13.58 8.01496C13.58 7.8807 13.5296 7.76525 13.4288 7.66858C13.3333 7.57192 13.2193 7.52359 13.0867 7.52359C12.9541 7.52359 12.8374 7.57192 12.7367 7.66858C12.6412 7.76525 12.5935 7.8807 12.5935 8.01496C12.5935 8.43383 12.4927 8.81511 12.2912 9.1588C12.0949 9.49712 11.8298 9.76832 11.4956 9.97238C11.1615 10.1711 10.7902 10.2704 10.3819 10.2704C9.96818 10.2704 9.59427 10.1711 9.26014 9.97238C8.92601 9.76832 8.65818 9.49712 8.45664 9.1588C8.26041 8.81511 8.16229 8.43383 8.16229 8.01496C8.16229 7.60146 8.26041 7.22555 8.45664 6.88723C8.65818 6.54891 8.92601 6.2804 9.26014 6.0817C9.59427 5.87764 9.96818 5.7756 10.3819 5.7756C10.4243 5.7756 10.4667 5.77829 10.5091 5.78366C10.5569 5.78903 10.5993 5.7944 10.6364 5.79977L9.94431 6.49252C9.84885 6.58918 9.80111 6.69927 9.80111 6.82278C9.80111 6.95167 9.8462 7.06176 9.93636 7.15305C10.0265 7.23897 10.1352 7.28193 10.2625 7.28193C10.3845 7.28193 10.4879 7.23897 10.5728 7.15305L11.965 5.74338C12.0552 5.65209 12.0976 5.53932 12.0923 5.40506C12.0923 5.26544 12.0499 5.15267 11.965 5.06674L10.5887 3.64902C10.5516 3.60069 10.5012 3.5631 10.4375 3.53625C10.3792 3.5094 10.3182 3.49597 10.2546 3.49597C10.1273 3.49597 10.0186 3.5443 9.9284 3.64097C9.84354 3.73226 9.80111 3.84235 9.80111 3.97123C9.80111 4.0303 9.81172 4.08937 9.83294 4.14845C9.85945 4.20752 9.89393 4.25853 9.93636 4.3015L10.4375 4.82509C10.411 4.81972 10.3792 4.81703 10.3421 4.81703C10.3103 4.81166 10.2784 4.80898 10.2466 4.80898C9.70565 4.80898 9.2018 4.95128 8.73508 5.2359C8.26836 5.51515 7.89181 5.89643 7.60541 6.37975C7.31901 6.85769 7.17582 7.39471 7.17582 7.99079Z"
		fill="currentColor"
	/>
</svg>
