<svg color="rgb(var(--foreground, 0, 0, 0))" viewBox="0 0 20 14" fill="none">
	<path
		d="M15.72 14C16.3193 14 16.8788 13.8953 17.3986 13.6858C17.9183 13.4818 18.3718 13.1972 18.759 12.832C19.1514 12.4668 19.4564 12.0426 19.6738 11.5593C19.8913 11.0759 20 10.5577 20 10.0046C20 9.44074 19.8992 8.91178 19.6977 8.41772C19.4962 7.9183 19.2071 7.47794 18.8305 7.09666C18.454 6.71001 18.0058 6.4066 17.4861 6.18642C17.4861 5.2896 17.3402 4.46529 17.0485 3.71346C16.7568 2.95627 16.3458 2.30111 15.8154 1.74799C15.2904 1.18949 14.6752 0.759877 13.9698 0.459148C13.2697 0.153049 12.5113 0 11.6945 0C10.9732 0 10.3209 0.118143 9.73747 0.35443C9.15937 0.585347 8.64492 0.896816 8.19411 1.28884C7.74861 1.67549 7.36675 2.1051 7.04853 2.57768C6.56059 2.43268 6.07266 2.4112 5.58473 2.51323C5.1021 2.6099 4.66189 2.80859 4.26412 3.10932C3.86635 3.40468 3.54548 3.78059 3.30151 4.23705C3.05754 4.68815 2.93026 5.19563 2.91965 5.75949C2.32034 5.85616 1.80058 6.08707 1.36038 6.45224C0.925484 6.81741 0.588703 7.27656 0.35004 7.82969C0.11668 8.38281 0 8.98696 0 9.64212C0 10.2328 0.119332 10.7913 0.357995 11.3176C0.596659 11.8439 0.930788 12.3084 1.36038 12.7112C1.79528 13.1086 2.30178 13.4227 2.87987 13.6536C3.45797 13.8845 4.08645 14 4.76531 14H15.72ZM13.4765 7.99885C13.4765 8.62716 13.328 9.19908 13.031 9.71461C12.734 10.2248 12.3363 10.6302 11.8377 10.931C11.3392 11.2317 10.7823 11.382 10.1671 11.382C9.55715 11.382 9.00292 11.2317 8.50438 10.931C8.00583 10.6302 7.60806 10.2275 7.31106 9.72267C7.01405 9.2125 6.86555 8.64595 6.86555 8.02301C6.86555 7.88339 6.91594 7.76525 7.01671 7.66858C7.11748 7.56655 7.23681 7.51553 7.3747 7.51553C7.5179 7.51553 7.63988 7.56655 7.74065 7.66858C7.84142 7.76525 7.89181 7.88339 7.89181 8.02301C7.89181 8.45263 7.99257 8.84465 8.19411 9.19908C8.40095 9.54814 8.67674 9.82739 9.02148 10.0368C9.36622 10.2463 9.74808 10.351 10.1671 10.351C10.5914 10.351 10.9759 10.2463 11.3206 10.0368C11.6653 9.82739 11.9385 9.54814 12.14 9.19908C12.3469 8.84465 12.4503 8.45263 12.4503 8.02301C12.4503 7.59877 12.3469 7.21212 12.14 6.86306C11.9385 6.514 11.6653 6.23744 11.3206 6.03337C10.9759 5.82394 10.5914 5.71922 10.1671 5.71922C10.0716 5.71922 9.98674 5.72727 9.91249 5.74338L10.6205 6.45224C10.716 6.54891 10.7637 6.66168 10.7637 6.79056C10.7637 6.93019 10.716 7.04565 10.6205 7.13694C10.5304 7.22823 10.419 7.27388 10.2864 7.27388C10.1644 7.27388 10.0583 7.22823 9.96818 7.13694L8.5362 5.687C8.44604 5.5957 8.40096 5.47756 8.40096 5.33257C8.40096 5.18757 8.44604 5.07211 8.5362 4.98619L9.95227 3.52014C9.9947 3.47181 10.0451 3.43422 10.1034 3.40736C10.1671 3.38051 10.2307 3.36709 10.2944 3.36709C10.4216 3.36709 10.5304 3.41542 10.6205 3.51208C10.716 3.60875 10.7637 3.7242 10.7637 3.85846C10.7637 3.91753 10.7505 3.97929 10.7239 4.04373C10.7027 4.1028 10.6709 4.15382 10.6285 4.19678L10.1193 4.73648C10.1512 4.73111 10.183 4.72842 10.2148 4.72842C10.2466 4.72305 10.2784 4.72037 10.3103 4.72037C10.8671 4.72037 11.3842 4.86536 11.8616 5.15535C12.3442 5.44534 12.734 5.84005 13.031 6.33947C13.328 6.83352 13.4765 7.38665 13.4765 7.99885Z"
		fill="currentColor"
	/>
</svg>
