<svg color="rgb(var(--foreground, 0, 0, 0))" viewBox="0 0 20 14" fill="none">
	<path
		d="M15.72 14C16.3193 14 16.8788 13.8953 17.3986 13.6858C17.9183 13.4818 18.3718 13.1972 18.759 12.832C19.1514 12.4668 19.4564 12.0426 19.6738 11.5593C19.8913 11.0759 20 10.5577 20 10.0046C20 9.44074 19.8992 8.91178 19.6977 8.41772C19.4962 7.9183 19.2071 7.47794 18.8305 7.09666C18.454 6.71001 18.0058 6.4066 17.4861 6.18642C17.4861 5.2896 17.3402 4.46529 17.0485 3.71346C16.7568 2.95627 16.3458 2.30111 15.8154 1.74799C15.2904 1.18949 14.6752 0.759877 13.9698 0.459148C13.2697 0.153049 12.5113 0 11.6945 0C10.9732 0 10.3209 0.118143 9.73747 0.35443C9.15937 0.585347 8.64492 0.896816 8.19411 1.28884C7.74861 1.67549 7.36675 2.1051 7.04853 2.57768C6.56059 2.43268 6.07266 2.4112 5.58473 2.51323C5.1021 2.6099 4.66189 2.80859 4.26412 3.10932C3.86635 3.40468 3.54548 3.78059 3.30151 4.23705C3.05754 4.68815 2.93026 5.19563 2.91965 5.75949C2.32034 5.85616 1.80058 6.08707 1.36038 6.45224C0.925484 6.81741 0.588703 7.27656 0.35004 7.82969C0.11668 8.38281 0 8.98696 0 9.64212C0 10.2328 0.119332 10.7913 0.357995 11.3176C0.596659 11.8439 0.930788 12.3084 1.36038 12.7112C1.79528 13.1086 2.30178 13.4227 2.87987 13.6536C3.45797 13.8845 4.08645 14 4.76531 14H15.72ZM10.008 8.68354C9.57836 8.68354 9.35561 8.458 9.3397 8.0069L9.23628 4.4626C9.22567 4.24242 9.29197 4.06252 9.43516 3.9229C9.58366 3.77791 9.77194 3.70541 10 3.70541C10.2228 3.70541 10.4084 3.77791 10.5569 3.9229C10.7107 4.06789 10.7849 4.25048 10.7796 4.47066L10.6603 8.0069C10.6444 8.458 10.4269 8.68354 10.008 8.68354ZM10 11.6559C9.77194 11.6559 9.5651 11.5727 9.37948 11.4062C9.19915 11.2397 9.10899 11.033 9.10899 10.786C9.10899 10.5336 9.19915 10.3268 9.37948 10.1657C9.5598 9.99923 9.76664 9.91599 10 9.91599C10.2334 9.91599 10.4402 9.99923 10.6205 10.1657C10.8008 10.3268 10.891 10.5336 10.891 10.786C10.891 11.0384 10.7982 11.2478 10.6126 11.4143C10.4322 11.5754 10.2281 11.6559 10 11.6559Z"
		fill="currentColor"
	/>
</svg>
