<svg color="rgb(var(--foreground, 0, 0, 0))" viewBox="0 0 20 16" fill="none">
	<path
		d="M4.76531 13.8073H12.3787L3.1424 4.5998C3.07346 4.76399 3.01777 4.93611 2.97534 5.11619C2.93821 5.29626 2.91965 5.48428 2.91965 5.68024C2.32034 5.77557 1.80058 6.00331 1.36038 6.36345C0.925484 6.7236 0.588703 7.17643 0.35004 7.72195C0.11668 8.26746 0 8.86329 0 9.50943C0 10.092 0.119332 10.6428 0.357995 11.1619C0.596659 11.6809 0.930788 12.139 1.36038 12.5362C1.79528 12.9335 2.30178 13.2433 2.87987 13.4657C3.45797 13.6935 4.08645 13.8073 4.76531 13.8073ZM16.6667 13.6723C17.319 13.5399 17.8945 13.2936 18.393 12.9335C18.8968 12.568 19.2893 12.1205 19.5704 11.5909C19.8568 11.0612 20 10.4866 20 9.86693C20 9.31082 19.8992 8.78914 19.6977 8.30189C19.4962 7.80933 19.2071 7.37504 18.8305 6.99901C18.454 6.61768 18.0058 6.31844 17.4861 6.10129C17.4861 5.21681 17.3402 4.40384 17.0485 3.66236C16.7568 2.91559 16.3458 2.26945 15.8154 1.72393C15.2904 1.17312 14.6752 0.749421 13.9698 0.45283C13.2697 0.150943 12.5113 0 11.6945 0C10.9732 0 10.3209 0.116518 9.73747 0.349553C9.15937 0.577292 8.64492 0.884475 8.19411 1.2711C7.74861 1.65243 7.36675 2.07613 7.04853 2.5422C6.80986 2.46806 6.55529 2.43098 6.28481 2.43098C6.01962 2.42569 5.75709 2.45746 5.49722 2.52632L16.6667 13.6723ZM15.7359 15.8252C15.8579 15.9417 16.0011 16 16.1655 16C16.3352 16 16.481 15.9417 16.603 15.8252C16.7197 15.7034 16.778 15.5578 16.778 15.3883C16.7833 15.2188 16.725 15.0758 16.603 14.9593L3.32538 1.70804C3.20339 1.58623 3.05489 1.52797 2.87987 1.53327C2.71016 1.53327 2.56696 1.59153 2.45028 1.70804C2.3336 1.82456 2.27526 1.97021 2.27526 2.14498C2.28056 2.31976 2.3389 2.46276 2.45028 2.57398L15.7359 15.8252Z"
		fill="currentColor"
	/>
</svg>
