<svg color="rgb(var(--foreground, 0, 0, 0))" viewBox="0 0 20 14" fill="none">
	<path
		d="M15.72 14C16.3193 14 16.8788 13.8953 17.3986 13.6858C17.9183 13.4818 18.3718 13.1972 18.759 12.832C19.1514 12.4668 19.4564 12.0426 19.6738 11.5593C19.8913 11.0759 20 10.5577 20 10.0046C20 9.44074 19.8992 8.91178 19.6977 8.41772C19.4962 7.9183 19.2071 7.47794 18.8305 7.09666C18.454 6.71001 18.0058 6.4066 17.4861 6.18642C17.4861 5.2896 17.3402 4.46529 17.0485 3.71346C16.7568 2.95627 16.3458 2.30111 15.8154 1.74799C15.2904 1.18949 14.6752 0.759877 13.9698 0.459148C13.2697 0.153049 12.5113 0 11.6945 0C10.9732 0 10.3209 0.118143 9.73747 0.35443C9.15937 0.585347 8.64492 0.896816 8.19411 1.28884C7.74861 1.67549 7.36675 2.1051 7.04853 2.57768C6.56059 2.43268 6.07266 2.4112 5.58473 2.51323C5.1021 2.6099 4.66189 2.80859 4.26412 3.10932C3.86635 3.40468 3.54548 3.78059 3.30151 4.23705C3.05754 4.68815 2.93026 5.19563 2.91965 5.75949C2.32034 5.85616 1.80058 6.08707 1.36038 6.45224C0.925484 6.81741 0.588703 7.27656 0.35004 7.82969C0.11668 8.38281 0 8.98696 0 9.64212C0 10.2328 0.119332 10.7913 0.357995 11.3176C0.596659 11.8439 0.930788 12.3084 1.36038 12.7112C1.79528 13.1086 2.30178 13.4227 2.87987 13.6536C3.45797 13.8845 4.08645 14 4.76531 14H15.72ZM5.48926 7.93441C5.48926 7.47794 5.59798 7.06176 5.81543 6.68584C6.03819 6.30993 6.33254 6.01189 6.69849 5.79171C7.06974 5.57154 7.47812 5.46145 7.92363 5.46145C8.43808 5.46145 8.90215 5.60644 9.31583 5.89643C9.73482 6.18105 10.0345 6.56502 10.2148 7.04833H14.0016C14.0864 7.04833 14.1687 7.08324 14.2482 7.15305L14.8767 7.79747C14.9138 7.83506 14.9324 7.8807 14.9324 7.93441C14.9377 7.98274 14.9191 8.02838 14.8767 8.07135L13.6754 9.29574C13.633 9.34407 13.5853 9.36824 13.5322 9.36824C13.4845 9.36824 13.4394 9.34407 13.397 9.29574L12.6492 8.53049L11.615 9.58573C11.5831 9.62869 11.5407 9.64749 11.4877 9.64212C11.4399 9.63675 11.3949 9.61258 11.3524 9.56962L10.3182 8.53855C10.0849 9.14001 9.75869 9.60184 9.3397 9.92405C8.92071 10.2409 8.44869 10.3993 7.92363 10.3993C7.47812 10.3993 7.06974 10.2892 6.69849 10.069C6.33254 9.84887 6.03819 9.55351 5.81543 9.18297C5.59798 8.80706 5.48926 8.39087 5.48926 7.93441ZM6.65871 7.92635C6.65871 8.13579 6.73296 8.31569 6.88146 8.46605C7.02997 8.61105 7.20499 8.68354 7.40652 8.68354C7.62397 8.68354 7.8043 8.61105 7.94749 8.46605C8.096 8.31569 8.17025 8.13579 8.17025 7.92635C8.17025 7.71691 8.096 7.5397 7.94749 7.39471C7.8043 7.24434 7.62397 7.16916 7.40652 7.16916C7.20499 7.16916 7.02997 7.24166 6.88146 7.38665C6.73296 7.53164 6.65871 7.71154 6.65871 7.92635Z"
		fill="currentColor"
	/>
</svg>
