<svg viewBox="0 0 16 16" fill="none" color="rgb(var(--foreground, 0, 0, 0))">
	<path
		d="M8 15.5608C8.54379 15.5608 9.0536 15.3726 9.52941 14.9961C10.0105 14.6196 10.4314 14.0915 10.7922 13.4118C11.1582 12.732 11.4431 11.9346 11.6471 11.0196C11.8562 10.0993 11.9608 9.09804 11.9608 8.01569C11.9608 6.93333 11.8588 5.93203 11.6549 5.01177C11.451 4.08627 11.166 3.28366 10.8 2.60392C10.4392 1.91895 10.0183 1.38824 9.53726 1.01176C9.06144 0.635294 8.54902 0.447059 8 0.447059C7.45098 0.447059 6.93595 0.635294 6.4549 1.01176C5.97909 1.38824 5.56078 1.91895 5.2 2.60392C4.83922 3.28366 4.55425 4.08627 4.3451 5.01177C4.14118 5.93203 4.03922 6.93333 4.03922 8.01569C4.03922 9.09804 4.14118 10.0993 4.3451 11.0196C4.55425 11.9346 4.83922 12.732 5.2 13.4118C5.56601 14.0915 5.98693 14.6196 6.46275 14.9961C6.94379 15.3726 7.45621 15.5608 8 15.5608ZM8 1.39608C8.3817 1.39608 8.74771 1.57386 9.09804 1.92941C9.44837 2.27974 9.75948 2.76078 10.0314 3.37255C10.3033 3.98431 10.5176 4.6902 10.6745 5.4902C10.8314 6.28497 10.9098 7.1268 10.9098 8.01569C10.9098 8.89412 10.8314 9.72811 10.6745 10.5176C10.5176 11.3072 10.3033 12.0105 10.0314 12.6275C9.75948 13.2392 9.44837 13.7203 9.09804 14.0706C8.74771 14.4261 8.3817 14.6039 8 14.6039C7.6183 14.6039 7.25229 14.4261 6.90196 14.0706C6.55163 13.7203 6.24052 13.2392 5.96863 12.6275C5.69673 12.0105 5.48235 11.3072 5.32549 10.5176C5.16863 9.72811 5.0902 8.89412 5.0902 8.01569C5.0902 7.1268 5.16863 6.28497 5.32549 5.4902C5.48235 4.6902 5.69673 3.98431 5.96863 3.37255C6.24052 2.76078 6.55163 2.27974 6.90196 1.92941C7.25229 1.57386 7.6183 1.39608 8 1.39608ZM7.4902 0.556863V15.4118H8.51765V0.556863H7.4902ZM8 10.949C7.19477 10.949 6.43137 11.017 5.7098 11.1529C4.98824 11.2837 4.33726 11.4745 3.75686 11.7255C3.1817 11.9712 2.71111 12.2614 2.3451 12.5961L3.13726 13.2471C3.48235 12.9752 3.89543 12.7451 4.37647 12.5569C4.86275 12.3634 5.40915 12.2196 6.01569 12.1255C6.62745 12.0261 7.28889 11.9765 8 11.9765C8.71111 11.9765 9.36994 12.0261 9.97647 12.1255C10.5882 12.2196 11.1346 12.3634 11.6157 12.5569C12.102 12.7451 12.5176 12.9752 12.8627 13.2471L13.6549 12.5961C13.2889 12.2614 12.8157 11.9712 12.2353 11.7255C11.6601 11.4745 11.0118 11.2837 10.2902 11.1529C9.56863 11.017 8.80523 10.949 8 10.949ZM15.2392 7.48235H0.760784V8.5098H15.2392V7.48235ZM8 5.0902C8.80523 5.0902 9.56863 5.02484 10.2902 4.89412C11.0118 4.75817 11.6601 4.56732 12.2353 4.32157C12.8157 4.07059 13.2889 3.77778 13.6549 3.44314L12.8627 2.79216C12.5176 3.06405 12.102 3.29673 11.6157 3.4902C11.1346 3.67843 10.5882 3.82222 9.97647 3.92157C9.36994 4.01569 8.71111 4.06275 8 4.06275C7.28889 4.06275 6.62745 4.01569 6.01569 3.92157C5.40915 3.82222 4.86275 3.67843 4.37647 3.4902C3.89543 3.29673 3.48235 3.06405 3.13726 2.79216L2.3451 3.44314C2.71111 3.77778 3.1817 4.07059 3.75686 4.32157C4.33726 4.56732 4.98824 4.75817 5.7098 4.89412C6.43137 5.02484 7.19477 5.0902 8 5.0902ZM8 16C9.09281 16 10.1203 15.7909 11.0824 15.3726C12.0497 14.9542 12.902 14.3765 13.6392 13.6392C14.3765 12.902 14.9542 12.0523 15.3726 11.0902C15.7909 10.1229 16 9.09281 16 8C16 6.90719 15.7909 5.87974 15.3726 4.91765C14.9542 3.95033 14.3765 3.09804 13.6392 2.36078C12.902 1.62353 12.0497 1.04575 11.0824 0.627451C10.115 0.20915 9.08497 0 7.99216 0C6.89935 0 5.86928 0.20915 4.90196 0.627451C3.93987 1.04575 3.0902 1.62353 2.35294 2.36078C1.62092 3.09804 1.04575 3.95033 0.627451 4.91765C0.20915 5.87974 0 6.90719 0 8C0 9.09281 0.20915 10.1229 0.627451 11.0902C1.04575 12.0523 1.62353 12.902 2.36078 13.6392C3.09804 14.3765 3.94771 14.9542 4.9098 15.3726C5.87712 15.7909 6.90719 16 8 16ZM8 14.9333C7.0536 14.9333 6.16209 14.7503 5.32549 14.3843C4.48889 14.0235 3.75163 13.5242 3.11373 12.8863C2.47582 12.2484 1.97386 11.5111 1.60784 10.6745C1.24706 9.83791 1.06667 8.94641 1.06667 8C1.06667 7.0536 1.24706 6.16209 1.60784 5.32549C1.97386 4.48889 2.4732 3.75163 3.10588 3.11373C3.74379 2.47582 4.48105 1.97647 5.31765 1.61569C6.15425 1.24967 7.04575 1.06667 7.99216 1.06667C8.93856 1.06667 9.83007 1.24967 10.6667 1.61569C11.5033 1.97647 12.2405 2.47582 12.8784 3.11373C13.5216 3.75163 14.0235 4.48889 14.3843 5.32549C14.7503 6.16209 14.9333 7.0536 14.9333 8C14.9333 8.94641 14.7503 9.83791 14.3843 10.6745C14.0235 11.5111 13.5242 12.2484 12.8863 12.8863C12.2484 13.5242 11.5111 14.0235 10.6745 14.3843C9.83791 14.7503 8.94641 14.9333 8 14.9333Z"
		fill="currentColor"
	/>
</svg>
