<svg
	color="rgb(var(--foreground, 0, 0, 0))"
	viewBox="0 0 18 14"
	fill="none"
	xmlns="http://www.w3.org/2000/svg"
>
	<path
		d="M2.39688 14H15.6031C16.4072 14 17.0076 13.8023 17.4046 13.4068C17.8015 13.0165 18 12.4309 18 11.6502V4.29658C18 3.51584 17.8015 2.93029 17.4046 2.53992C17.0076 2.14449 16.4072 1.94677 15.6031 1.94677H2.39688C1.5979 1.94677 0.997443 2.14449 0.595404 2.53992C0.198455 2.93029 0 3.51584 0 4.29658V11.6502C0 12.4309 0.198455 13.0165 0.595404 13.4068C0.997443 13.8023 1.5979 14 2.39688 14ZM2.67168 7.97719C2.67168 7.80989 2.72766 7.67047 2.83962 7.55894C2.95667 7.4474 3.0966 7.39164 3.25946 7.39164H7.33616C7.49901 7.39164 7.6364 7.4474 7.74836 7.55894C7.86032 7.67047 7.9163 7.80989 7.9163 7.97719C7.9163 8.13942 7.86032 8.2763 7.74836 8.38783C7.6364 8.49937 7.49901 8.55513 7.33616 8.55513H3.25946C3.0966 8.55513 2.95667 8.49937 2.83962 8.38783C2.72766 8.2763 2.67168 8.13942 2.67168 7.97719ZM10.0689 7.97719C10.0689 7.80989 10.1249 7.67047 10.2368 7.55894C10.3488 7.4474 10.4862 7.39164 10.649 7.39164H12.107V5.93916C12.107 5.77693 12.163 5.64005 12.275 5.52852C12.3869 5.41191 12.5243 5.35361 12.6872 5.35361C12.85 5.35361 12.9874 5.41191 13.0994 5.52852C13.2113 5.64005 13.2673 5.77693 13.2673 5.93916V7.39164H14.7253C14.8881 7.39164 15.0255 7.4474 15.1375 7.55894C15.2545 7.67047 15.313 7.80989 15.313 7.97719C15.313 8.13942 15.2545 8.2763 15.1375 8.38783C15.0255 8.49937 14.8881 8.55513 14.7253 8.55513H13.2673V10.0076C13.2673 10.1648 13.2113 10.3016 13.0994 10.4183C12.9874 10.5349 12.85 10.5906 12.6872 10.5856C12.5243 10.5906 12.3869 10.5374 12.275 10.4259C12.163 10.3093 12.107 10.1698 12.107 10.0076V8.55513H10.649C10.4862 8.55513 10.3488 8.49937 10.2368 8.38783C10.1249 8.2763 10.0689 8.13942 10.0689 7.97719ZM3.35869 2.51711H7.45829V0.927757C7.45829 0.638783 7.37688 0.413181 7.21403 0.250951C7.05118 0.0836503 6.82473 0 6.53466 0H4.28233C3.99225 0 3.76581 0.0836503 3.60296 0.250951C3.44011 0.413181 3.35869 0.638783 3.35869 0.927757V2.51711ZM10.5345 2.51711H14.626V0.927757C14.626 0.638783 14.5446 0.413181 14.3818 0.250951C14.224 0.0836503 13.9976 0 13.7024 0H11.4506C11.1605 0 10.934 0.0836503 10.7712 0.250951C10.6134 0.413181 10.5345 0.638783 10.5345 0.927757V2.51711Z"
		fill="currentColor"
	/>
</svg>
