<svg
	color="rgb(var(--foreground, 0, 0, 0))"
	viewBox="0 0 23 10"
	fill="none"
	xmlns="http://www.w3.org/2000/svg"
>
	<path
		d="M4.14186 10H16.3567C17.0198 10 17.6258 9.95073 18.1749 9.85218C18.724 9.74871 19.1979 9.50727 19.5968 9.12786C19.9905 8.75339 20.2391 8.30747 20.3427 7.7901C20.4515 7.2678 20.5058 6.6913 20.5058 6.06061V3.93939C20.5058 3.3087 20.4515 2.73466 20.3427 2.21729C20.2391 1.695 19.9905 1.24661 19.5968 0.872136C19.1979 0.492732 18.724 0.253757 18.1749 0.155211C17.6258 0.0517369 17.0198 0 16.3567 0H4.12633C3.47363 0 2.87279 0.0517369 2.3237 0.155211C1.77978 0.258684 1.30795 0.49766 0.909083 0.872136C0.515393 1.25154 0.264182 1.69993 0.155399 2.21729C0.0517961 2.73466 0 3.30131 0 3.91722V6.06061C0 6.6913 0.0517961 7.2678 0.155399 7.7901C0.259002 8.30747 0.510213 8.75339 0.909083 9.12786C1.30795 9.50727 1.77978 9.74871 2.3237 9.85218C2.87279 9.95073 3.47881 10 4.14186 10ZM3.93208 8.81005C3.53321 8.81005 3.13956 8.77556 2.75104 8.70658C2.36772 8.63267 2.05694 8.48485 1.81865 8.26312C1.58555 8.03646 1.43226 7.74329 1.35974 7.38359C1.28722 7.01897 1.25096 6.64449 1.25096 6.26016V3.75462C1.25096 3.36536 1.28722 2.98842 1.35974 2.6238C1.43226 2.25425 1.58555 1.95861 1.81865 1.73688C2.05176 1.51022 2.36253 1.3624 2.75104 1.29342C3.14474 1.22444 3.54616 1.18995 3.95539 1.18995H16.5743C16.9731 1.18995 17.3642 1.2269 17.7475 1.30081C18.136 1.3698 18.4468 1.51515 18.6799 1.73688C18.9182 1.96354 19.0736 2.25918 19.1461 2.6238C19.2186 2.98349 19.2549 3.35304 19.2549 3.73245V6.26016C19.2549 6.64449 19.2186 7.01897 19.1461 7.38359C19.0736 7.74329 18.9182 8.03646 18.6799 8.26312C18.4468 8.48485 18.136 8.63267 17.7475 8.70658C17.3642 8.77556 16.9731 8.81005 16.5743 8.81005H3.93208ZM21.5626 6.91057C21.7698 6.89579 21.9847 6.80956 22.2075 6.65188C22.4302 6.48928 22.6167 6.26755 22.7669 5.9867C22.9223 5.70584 23 5.37571 23 4.9963C23 4.62183 22.9223 4.29416 22.7669 4.0133C22.6167 3.73245 22.4302 3.51072 22.2075 3.34812C21.9847 3.18551 21.7698 3.09929 21.5626 3.08943V6.91057Z"
		fill="currentColor"
	/>
</svg>
