<svg
	color="rgb(var(--foreground, 0, 0, 0))"
	viewBox="0 0 18 14"
	fill="none"
	xmlns="http://www.w3.org/2000/svg"
>
	<path
		d="M2.39688 14H15.6031C16.4072 14 17.0076 13.8023 17.4046 13.4068C17.8015 13.0165 18 12.4284 18 11.6426V4.29658C18 3.51077 17.8015 2.92269 17.4046 2.53232C17.0076 2.13688 16.4072 1.93916 15.6031 1.93916H2.39688C1.5979 1.93916 0.997443 2.13688 0.595404 2.53232C0.198455 2.92269 0 3.51077 0 4.29658V11.6426C0 12.4284 0.198455 13.0165 0.595404 13.4068C0.997443 13.8023 1.5979 14 2.39688 14ZM6.50412 8.4943C6.50412 8.42332 6.5372 8.34727 6.60336 8.26616L9.75594 4.31939C9.83737 4.22307 9.92387 4.17744 10.0155 4.18251C10.1122 4.18251 10.186 4.22053 10.2368 4.29658C10.2928 4.37262 10.2979 4.47148 10.2521 4.59316L9.21397 7.37643H11.1605C11.2317 7.37643 11.2953 7.40177 11.3513 7.45247C11.4073 7.4981 11.4353 7.55386 11.4353 7.61977C11.4353 7.70596 11.3997 7.782 11.3284 7.84791L8.18347 11.7947C8.10204 11.8961 8.01299 11.9468 7.9163 11.9468C7.81961 11.9417 7.74328 11.9011 7.6873 11.8251C7.63641 11.749 7.63386 11.6477 7.67966 11.5209L8.72544 8.74525H6.77129C6.70004 8.74525 6.63644 8.72243 6.58046 8.67681C6.52956 8.62611 6.50412 8.56527 6.50412 8.4943ZM3.35869 2.50951H7.45829V0.927757C7.45829 0.633714 7.37688 0.405577 7.21403 0.243346C7.05118 0.0811153 6.82473 0 6.53466 0H4.28233C3.99225 0 3.76581 0.0811153 3.60296 0.243346C3.44011 0.405577 3.35869 0.633714 3.35869 0.927757V2.50951ZM10.5345 2.50951H14.626V0.927757C14.626 0.633714 14.5446 0.405577 14.3818 0.243346C14.224 0.0811153 13.9976 0 13.7024 0H11.4506C11.1605 0 10.934 0.0811153 10.7712 0.243346C10.6134 0.405577 10.5345 0.633714 10.5345 0.927757V2.50951Z"
		fill="currentColor"
	/>
</svg>
