<svg
	color="rgb(var(--foreground, 0, 0, 0))"
	viewBox="0 0 18 14"
	fill="none"
	xmlns="http://www.w3.org/2000/svg"
>
	<path
		d="M2.39688 14H15.6031C16.4072 14 17.0076 13.8023 17.4046 13.4068C17.8015 13.0165 18 12.4309 18 11.6502V4.29658C18 3.51584 17.8015 2.93029 17.4046 2.53992C17.0076 2.14449 16.4072 1.94677 15.6031 1.94677H2.39688C1.5979 1.94677 0.997443 2.14449 0.595404 2.53992C0.198455 2.93029 0 3.51584 0 4.29658V11.6502C0 12.4309 0.198455 13.0165 0.595404 13.4068C0.997443 13.8023 1.5979 14 2.39688 14ZM2.41215 12.7757C2.03047 12.7757 1.73787 12.6768 1.53431 12.4791C1.33075 12.2763 1.22898 11.9772 1.22898 11.5818V4.36502C1.22898 3.96958 1.33075 3.673 1.53431 3.47529C1.73787 3.2725 2.03047 3.1711 2.41215 3.1711H15.5879C15.9644 3.1711 16.2545 3.2725 16.4581 3.47529C16.6667 3.673 16.771 3.96958 16.771 4.36502V11.5818C16.771 11.9772 16.6667 12.2763 16.4581 12.4791C16.2545 12.6768 15.9644 12.7757 15.5879 12.7757H2.41215ZM3.35869 2.51711H7.45829V0.927757C7.45829 0.638783 7.37688 0.413181 7.21403 0.250951C7.05118 0.0836503 6.82473 0 6.53466 0H4.28233C3.99225 0 3.76581 0.0836503 3.60296 0.250951C3.44011 0.413181 3.35869 0.638783 3.35869 0.927757V2.51711ZM10.5345 2.51711H14.626V0.927757C14.626 0.638783 14.5446 0.413181 14.3818 0.250951C14.224 0.0836503 13.9976 0 13.7024 0H11.4506C11.1605 0 10.934 0.0836503 10.7712 0.250951C10.6134 0.413181 10.5345 0.638783 10.5345 0.927757V2.51711ZM6.58046 8.46388C6.58046 8.53485 6.6059 8.59316 6.65679 8.63878C6.70768 8.68441 6.76874 8.70723 6.83999 8.70723H8.73307L7.71783 11.4068C7.67203 11.5234 7.67457 11.6198 7.72546 11.6958C7.78144 11.7719 7.85523 11.8124 7.94683 11.8175C8.04352 11.8175 8.13003 11.7668 8.20637 11.6654L11.2597 7.84791C11.3259 7.77693 11.359 7.70342 11.359 7.62738C11.359 7.5564 11.331 7.4981 11.275 7.45247C11.2241 7.40684 11.163 7.38403 11.0918 7.38403H9.20634L10.2139 4.69202C10.2597 4.57034 10.2547 4.47148 10.1987 4.39544C10.1478 4.31939 10.0765 4.28137 9.98495 4.28137C9.89334 4.28137 9.80938 4.32953 9.73304 4.42586L6.67206 8.25095C6.61099 8.33207 6.58046 8.40304 6.58046 8.46388Z"
		fill="currentColor"
	/>
</svg>
