<svg
	color="rgb(var(--foreground, 0, 0, 0))"
	viewBox="0 0 18 14"
	fill="none"
	xmlns="http://www.w3.org/2000/svg"
>
	<path
		d="M2.39688 14H15.6031C16.4072 14 17.0076 13.8023 17.4046 13.4068C17.8015 13.0165 18 12.4309 18 11.6502V4.29658C18 3.51584 17.8015 2.93029 17.4046 2.53992C17.0076 2.14449 16.4072 1.94677 15.6031 1.94677H2.39688C1.5979 1.94677 0.997443 2.14449 0.595404 2.53992C0.198455 2.93029 0 3.51584 0 4.29658V11.6502C0 12.4309 0.198455 13.0165 0.595404 13.4068C0.997443 13.8023 1.5979 14 2.39688 14ZM2.41215 12.7757C2.03047 12.7757 1.73787 12.6768 1.53431 12.4791C1.33075 12.2763 1.22898 11.9772 1.22898 11.5818V4.36502C1.22898 3.96958 1.33075 3.673 1.53431 3.47529C1.73787 3.2725 2.03047 3.1711 2.41215 3.1711H15.5879C15.9644 3.1711 16.2545 3.2725 16.4581 3.47529C16.6667 3.673 16.771 3.96958 16.771 4.36502V11.5818C16.771 11.9772 16.6667 12.2763 16.4581 12.4791C16.2545 12.6768 15.9644 12.7757 15.5879 12.7757H2.41215ZM3.35869 2.51711H7.45829V0.927757C7.45829 0.638783 7.37688 0.413181 7.21403 0.250951C7.05118 0.0836503 6.82473 0 6.53466 0H4.28233C3.99225 0 3.76581 0.0836503 3.60296 0.250951C3.44011 0.413181 3.35869 0.638783 3.35869 0.927757V2.51711ZM10.5345 2.51711H14.626V0.927757C14.626 0.638783 14.5446 0.413181 14.3818 0.250951C14.224 0.0836503 13.9976 0 13.7024 0H11.4506C11.1605 0 10.934 0.0836503 10.7712 0.250951C10.6134 0.413181 10.5345 0.638783 10.5345 0.927757V2.51711ZM2.86252 7.97719C2.86252 8.12928 2.91595 8.26109 3.02282 8.37262C3.13478 8.47909 3.26963 8.53232 3.42739 8.53232H7.38959C7.54736 8.53232 7.67966 8.47909 7.78653 8.37262C7.8934 8.26109 7.94683 8.12928 7.94683 7.97719C7.94683 7.82003 7.8934 7.68821 7.78653 7.58175C7.67966 7.47022 7.54736 7.41445 7.38959 7.41445H3.42739C3.26963 7.41445 3.13478 7.47022 3.02282 7.58175C2.91595 7.68821 2.86252 7.82003 2.86252 7.97719ZM10.0384 7.97719C10.0384 8.12928 10.0918 8.26109 10.1987 8.37262C10.3056 8.47909 10.4379 8.53232 10.5956 8.53232H12.0154V9.94677C12.0154 10.1039 12.0689 10.2383 12.1757 10.3498C12.2877 10.4563 12.4225 10.507 12.5803 10.5019C12.7381 10.507 12.8704 10.4563 12.9772 10.3498C13.0841 10.2383 13.1375 10.1039 13.1375 9.94677V8.53232H14.5573C14.7151 8.53232 14.8474 8.47909 14.9543 8.37262C15.0662 8.26109 15.1222 8.12928 15.1222 7.97719C15.1222 7.82003 15.0662 7.68821 14.9543 7.58175C14.8474 7.47022 14.7151 7.41445 14.5573 7.41445H13.1375V6C13.1375 5.84284 13.0841 5.71103 12.9772 5.60456C12.8704 5.49303 12.7381 5.43726 12.5803 5.43726C12.4225 5.43726 12.2877 5.49303 12.1757 5.60456C12.0689 5.71103 12.0154 5.84284 12.0154 6V7.41445H10.5956C10.4379 7.41445 10.3056 7.47022 10.1987 7.58175C10.0918 7.68821 10.0384 7.82003 10.0384 7.97719Z"
		fill="currentColor"
	/>
</svg>
