<svg
	color="rgb(var(--foreground, 0, 0, 0))"
	viewBox="0 0 17 15"
	fill="none"
	xmlns="http://www.w3.org/2000/svg"
>
	<path
		d="M0 5.74022C0 6.78433 0.178835 7.77731 0.536505 8.71917C0.899513 9.66103 1.41466 10.4952 2.08196 11.2218C2.23677 11.394 2.41027 11.4828 2.60245 11.4882C2.79997 11.4882 2.96279 11.4129 3.09091 11.2622C3.21903 11.1169 3.26707 10.9554 3.23504 10.7778C3.20835 10.6002 3.12294 10.428 2.9788 10.2611C2.43963 9.65833 2.02591 8.97213 1.73764 8.20249C1.44936 7.42748 1.30523 6.60672 1.30523 5.74022C1.30523 4.87371 1.44936 4.05564 1.73764 3.28601C2.02591 2.511 2.43963 1.8221 2.9788 1.21931C3.12294 1.05247 3.20835 0.88024 3.23504 0.702633C3.26707 0.525026 3.21903 0.363565 3.09091 0.218251C2.96279 0.0675537 2.79997 -0.00510365 2.60245 0.000278381C2.41027 0.000278381 2.23677 0.0863908 2.08196 0.258616C1.63888 0.742999 1.26252 1.27851 0.952897 1.86515C0.643272 2.44641 0.405715 3.06265 0.240226 3.71388C0.0800754 4.36511 0 5.04055 0 5.74022ZM3.37117 5.74022C3.37117 6.33224 3.46726 6.90004 3.65944 7.44363C3.85163 7.98183 4.12121 8.4689 4.46821 8.90485C4.607 9.08784 4.77783 9.18202 4.98069 9.18741C5.18888 9.18741 5.35971 9.11206 5.49317 8.96136C5.62129 8.81605 5.66667 8.65728 5.6293 8.48505C5.59727 8.31283 5.51719 8.13791 5.38907 7.9603C5.14885 7.65891 4.97001 7.31984 4.85257 6.9431C4.73512 6.56098 4.6764 6.16001 4.6764 5.74022C4.6764 5.32042 4.73779 4.92215 4.86057 4.5454C4.98336 4.16866 5.15952 3.8269 5.38907 3.52013C5.51719 3.34252 5.59727 3.1676 5.6293 2.99538C5.66667 2.82315 5.62129 2.66438 5.49317 2.51907C5.35971 2.36837 5.18888 2.29571 4.98069 2.3011C4.77783 2.3011 4.607 2.39259 4.46821 2.57558C4.12121 3.01153 3.85163 3.50129 3.65944 4.04488C3.46726 4.58308 3.37117 5.14819 3.37117 5.74022ZM7.06265 5.74022C7.06265 6.03085 7.13738 6.29456 7.28686 6.53137C7.44167 6.7628 7.64186 6.93503 7.88742 7.04805V14.3057C7.88742 14.5102 7.94348 14.6771 8.05558 14.8062C8.17303 14.9354 8.3225 15 8.504 15C8.69085 15 8.83765 14.9354 8.94442 14.8062C9.05652 14.6825 9.11258 14.5156 9.11258 14.3057V7.04805C9.3528 6.93503 9.55032 6.7628 9.70513 6.53137C9.85995 6.29456 9.93735 6.03085 9.93735 5.74022C9.93735 5.47111 9.87329 5.22623 9.74517 5.00557C9.61705 4.7849 9.44355 4.60999 9.22468 4.48082C9.01115 4.34627 8.77092 4.27899 8.504 4.27899C8.23175 4.27899 7.98618 4.34627 7.76731 4.48082C7.55378 4.60999 7.38295 4.7849 7.25483 5.00557C7.12671 5.22623 7.06265 5.47111 7.06265 5.74022ZM11.5068 8.96136C11.6403 9.11206 11.8084 9.18741 12.0113 9.18741C12.2195 9.18202 12.393 9.08784 12.5318 8.90485C12.8788 8.4689 13.1484 7.98183 13.3406 7.44363C13.5327 6.90004 13.6288 6.33224 13.6288 5.74022C13.6288 5.14819 13.5327 4.58308 13.3406 4.04488C13.1484 3.50129 12.8788 3.01153 12.5318 2.57558C12.393 2.39259 12.2195 2.3011 12.0113 2.3011C11.8084 2.29571 11.6403 2.36837 11.5068 2.51907C11.3787 2.66438 11.3307 2.82315 11.3627 2.99538C11.4001 3.1676 11.4828 3.34252 11.6109 3.52013C11.8405 3.8269 12.0166 4.16866 12.1394 4.5454C12.2622 4.92215 12.3236 5.32042 12.3236 5.74022C12.3236 6.16001 12.2649 6.56098 12.1474 6.9431C12.03 7.31984 11.8512 7.65891 11.6109 7.9603C11.4828 8.13791 11.4001 8.31283 11.3627 8.48505C11.3307 8.65728 11.3787 8.81605 11.5068 8.96136ZM13.9091 11.2622C14.0372 11.4129 14.2 11.4882 14.3976 11.4882C14.5951 11.4828 14.7686 11.394 14.918 11.2218C15.5853 10.4952 16.0978 9.66103 16.4555 8.71917C16.8185 7.77731 17 6.78433 17 5.74022C17 5.04055 16.9173 4.36511 16.7518 3.71388C16.5916 3.06265 16.3567 2.44641 16.0471 1.86515C15.7375 1.27851 15.3611 0.742999 14.918 0.258616C14.7686 0.0863908 14.5951 0.000278381 14.3976 0.000278381C14.2 -0.00510365 14.0372 0.0675537 13.9091 0.218251C13.781 0.363565 13.7303 0.525026 13.7569 0.702633C13.789 0.88024 13.8771 1.05247 14.0212 1.21931C14.5604 1.8221 14.9741 2.511 15.2624 3.28601C15.5506 4.05564 15.6948 4.87371 15.6948 5.74022C15.6948 6.60672 15.5506 7.42748 15.2624 8.20249C14.9741 8.97213 14.5604 9.65833 14.0212 10.2611C13.8771 10.428 13.789 10.6002 13.7569 10.7778C13.7303 10.9554 13.781 11.1169 13.9091 11.2622Z"
		fill="currentColor"
	/>
</svg>
