<svg
	color="rgb(var(--foreground, 0, 0, 0))"
	viewBox="0 0 17 17"
	fill="none"
	xmlns="http://www.w3.org/2000/svg"
>
	<path
		d="M3.09091 13.2591C3.21903 13.1137 3.26707 12.9521 3.23504 12.7743C3.20835 12.5966 3.12294 12.4242 2.9788 12.2572C2.43963 11.6539 2.02591 10.9672 1.73764 10.1969C1.44936 9.42125 1.30523 8.59982 1.30523 7.7326C1.30523 7.0162 1.40399 6.33481 1.60151 5.68844C1.79903 5.04206 2.08196 4.44686 2.45031 3.90283L1.51342 2.9575C1.02763 3.62542 0.653949 4.36606 0.392369 5.17942C0.13079 5.99277 0 6.84383 0 7.7326C0 8.77757 0.178835 9.77137 0.536505 10.714C0.899513 11.6566 1.41466 12.4915 2.08196 13.2187C2.23677 13.3911 2.41027 13.4799 2.60245 13.4853C2.79997 13.4853 2.96279 13.4099 3.09091 13.2591ZM5.49317 10.9564C5.62129 10.811 5.66667 10.6521 5.6293 10.4797C5.59727 10.3073 5.51719 10.1323 5.38907 9.95451C5.14885 9.65287 4.97001 9.31352 4.85257 8.93647C4.73512 8.55403 4.6764 8.15274 4.6764 7.7326C4.6764 7.49559 4.69775 7.26667 4.74046 7.04582C4.78851 6.82498 4.85524 6.61222 4.94065 6.40753L3.93971 5.39757C3.75287 5.74769 3.6114 6.12205 3.51531 6.52065C3.41922 6.91386 3.37117 7.31784 3.37117 7.7326C3.37117 8.32511 3.46726 8.89338 3.65944 9.43741C3.85163 9.97606 4.12121 10.4635 4.46821 10.8998C4.607 11.083 4.77783 11.1772 4.98069 11.1826C5.18888 11.1826 5.35971 11.1072 5.49317 10.9564ZM8.504 17C8.69085 17 8.83765 16.9354 8.94442 16.8061C9.05652 16.6822 9.11258 16.5152 9.11258 16.3051V10.6251L7.88742 9.38893V16.3051C7.88742 16.5098 7.94348 16.6768 8.05558 16.8061C8.17303 16.9354 8.3225 17 8.504 17ZM13.1404 9.89795C13.3005 9.56938 13.4206 9.22465 13.5007 8.86375C13.5861 8.49748 13.6288 8.12042 13.6288 7.7326C13.6288 7.14009 13.5327 6.57451 13.3406 6.03586C13.1484 5.49183 12.8788 5.00166 12.5318 4.56536C12.393 4.38222 12.2195 4.29065 12.0113 4.29065C11.8084 4.28526 11.6403 4.35798 11.5068 4.5088C11.3787 4.65424 11.3307 4.81314 11.3627 4.9855C11.4001 5.15787 11.4828 5.33293 11.6109 5.51068C11.8405 5.81771 12.0166 6.15975 12.1394 6.5368C12.2622 6.91386 12.3236 7.31245 12.3236 7.7326C12.3236 7.9319 12.3049 8.1285 12.2675 8.32242C12.2355 8.51633 12.1848 8.69947 12.1154 8.87183L13.1404 9.89795ZM15.5907 12.3784C16.0391 11.7105 16.3861 10.9833 16.6317 10.1969C16.8772 9.41048 17 8.58905 17 7.7326C17 7.03236 16.9173 6.35636 16.7518 5.7046C16.5916 5.05283 16.3567 4.43609 16.0471 3.85435C15.7375 3.26722 15.3611 2.73127 14.918 2.24649C14.7686 2.07412 14.5951 1.98794 14.3976 1.98794C14.2 1.98255 14.0372 2.05527 13.9091 2.20609C13.781 2.35153 13.7303 2.51312 13.7569 2.69087C13.789 2.86863 13.8771 3.04099 14.0212 3.20797C14.5604 3.81126 14.9741 4.50072 15.2624 5.27637C15.5506 6.04664 15.6948 6.86538 15.6948 7.7326C15.6948 8.41668 15.604 9.06844 15.4225 9.68788C15.241 10.3073 14.9794 10.8837 14.6378 11.4169L15.5907 12.3784ZM15.4866 15.5537C15.6094 15.6722 15.7562 15.7315 15.927 15.7315C16.1032 15.7315 16.2473 15.6722 16.3594 15.5537C16.4822 15.4298 16.5436 15.2817 16.5436 15.1094C16.5436 14.937 16.4822 14.7916 16.3594 14.673L2.00188 0.17809C1.8791 0.0595877 1.7323 0.000336654 1.56147 0.000336654C1.39064 -0.00504981 1.24384 0.0542012 1.12106 0.17809C1.00361 0.296592 0.944889 0.44472 0.944889 0.622473C0.944889 0.794839 1.00361 0.940274 1.12106 1.05878L15.4866 15.5537Z"
		fill="currentColor"
	/>
</svg>
