<svg
	color="rgb(var(--foreground, 0, 0, 0))"
	viewBox="0 0 22 11"
	fill="none"
	xmlns="http://www.w3.org/2000/svg"
>
	<path
		d="M0.279286 8.59061C0.0930953 8.83873 0 9.06796 0 9.27832C0.00531973 9.48867 0.0744762 9.66127 0.207469 9.79612C0.345782 9.92557 0.518674 10.0011 0.726143 10.0227C0.938932 10.0442 1.15438 9.99029 1.37249 9.86084L7.1577 6.51133L14.0201 10.2411C14.1797 10.322 14.3287 10.3867 14.467 10.4353C14.6053 10.4784 14.741 10.5 14.874 10.5C15.2517 10.5 15.5921 10.3058 15.8954 9.91748L21.7683 2.3932C21.9279 2.18824 22.0051 1.98328 21.9997 1.77832C21.9997 1.56796 21.9386 1.38997 21.8162 1.24434C21.6939 1.09331 21.5289 0.998921 21.3215 0.961165C21.1193 0.923409 20.8986 0.974649 20.6592 1.11489L14.874 4.48867L8.00353 0.7589C7.68967 0.5863 7.40506 0.5 7.14972 0.5C6.77734 0.5 6.43953 0.694175 6.13631 1.08252L0.279286 8.59061ZM2.09065 8.27508C2.04278 8.30205 2.0082 8.30205 1.98692 8.27508C1.97096 8.24272 1.97894 8.20766 2.01086 8.1699L7.06194 1.9644C7.16302 1.83495 7.28537 1.80798 7.429 1.8835L14.5867 5.7589C14.7569 5.85059 14.8819 5.88835 14.9617 5.87217C15.0469 5.85599 15.1559 5.80475 15.2889 5.71845L19.9649 2.70065C20.0022 2.67907 20.0341 2.68177 20.0607 2.70874C20.0873 2.73571 20.0846 2.76807 20.0527 2.80583L14.9777 9.0356C14.8713 9.16505 14.749 9.19202 14.6106 9.1165L7.44496 5.2411C7.28005 5.14941 7.15504 5.11165 7.06992 5.12783C6.98481 5.14401 6.87575 5.19256 6.74276 5.27346L2.09065 8.27508Z"
		fill="currentColor"
	/>
</svg>
