<svg
	color="rgb(var(--foreground, 0, 0, 0))"
	viewBox="0 0 11 19"
	fill="none"
	xmlns="http://www.w3.org/2000/svg"
>
	<path
		d="M8.28779 9.49701C8.28779 10.2747 8.41728 11.0195 8.67628 11.7316C8.93527 12.4385 9.30599 13.0748 9.78842 13.6404C9.9103 13.7868 10.0398 13.8777 10.1769 13.9131C10.3191 13.9434 10.4486 13.9358 10.5654 13.8904C10.6873 13.8399 10.7863 13.7641 10.8625 13.6631C10.9437 13.5571 10.9869 13.4409 10.992 13.3147C11.0021 13.1884 10.9615 13.0647 10.8701 12.9435C10.408 12.3678 10.0779 11.8174 9.87983 11.2922C9.68686 10.762 9.59037 10.1636 9.59037 9.49701C9.59037 8.83043 9.68686 8.23455 9.87983 7.70937C10.0779 7.17914 10.408 6.62618 10.8701 6.0505C10.9615 5.9293 11.0047 5.80558 10.9996 5.67934C10.9945 5.54804 10.9514 5.4319 10.8701 5.3309C10.7939 5.22485 10.6949 5.14911 10.573 5.10366C10.4511 5.05316 10.3216 5.04558 10.1845 5.08093C10.0474 5.11123 9.91538 5.1996 9.78842 5.34605C9.30599 5.91163 8.93527 6.55043 8.67628 7.26246C8.41728 7.96943 8.28779 8.71428 8.28779 9.49701ZM4.15151 9.49701C4.15151 10.6837 4.33179 11.825 4.69235 12.9208C5.05799 14.0115 5.58105 15.0089 6.26154 15.9128C6.37835 16.0795 6.50784 16.1855 6.65003 16.2309C6.79731 16.2764 6.93696 16.2764 7.06899 16.2309C7.20103 16.1905 7.30767 16.1173 7.38893 16.0113C7.47526 15.9052 7.51842 15.7815 7.51842 15.6401C7.5235 15.4987 7.46764 15.3548 7.35084 15.2084C6.73129 14.3953 6.25901 13.504 5.93399 12.5345C5.61406 11.5649 5.45409 10.5524 5.45409 9.49701C5.45409 8.44159 5.61406 7.4291 5.93399 6.45954C6.25901 5.48492 6.73129 4.59363 7.35084 3.78565C7.46764 3.63416 7.5235 3.48771 7.51842 3.34632C7.51842 3.20492 7.47526 3.08373 7.38893 2.98273C7.30767 2.87669 7.20103 2.80346 7.06899 2.76306C6.93696 2.71762 6.79731 2.71762 6.65003 2.76306C6.50784 2.80851 6.37835 2.91203 6.26154 3.07363C5.58105 3.9826 5.05799 4.98246 4.69235 6.07322C4.33179 7.16399 4.15151 8.30525 4.15151 9.49701ZM0 9.49701C0 11.0978 0.241219 12.6329 0.723658 14.1024C1.21117 15.5669 1.89928 16.9177 2.78799 18.1549C2.90479 18.3115 3.03428 18.4125 3.17648 18.4579C3.31867 18.5084 3.45324 18.5135 3.5802 18.4731C3.71224 18.4377 3.81888 18.367 3.90013 18.261C3.98647 18.16 4.03217 18.0388 4.03725 17.8974C4.04233 17.756 3.98647 17.607 3.86966 17.4505C3.03682 16.3092 2.40204 15.0644 1.9653 13.7161C1.52857 12.3678 1.3102 10.9615 1.3102 9.49701C1.3102 8.02751 1.52857 6.61861 1.9653 5.2703C2.40204 3.922 3.03682 2.67722 3.86966 1.53596C3.98647 1.37941 4.04233 1.23044 4.03725 1.08905C4.03725 0.947652 3.99408 0.828981 3.90775 0.733035C3.82142 0.632038 3.71224 0.563865 3.5802 0.528517C3.44817 0.488118 3.31105 0.490643 3.16886 0.536091C3.02667 0.58154 2.89971 0.682536 2.78799 0.839081C1.89421 2.07629 1.2061 3.42964 0.723658 4.89914C0.241219 6.36359 0 7.89621 0 9.49701Z"
		fill="currentColor"
	/>
</svg>
