<svg
	color="rgb(var(--foreground, 0, 0, 0))"
	viewBox="0 0 11 19"
	fill="none"
	xmlns="http://www.w3.org/2000/svg"
>
	<path
		d="M2.71793 9.497C2.71793 8.71428 2.58853 7.96943 2.32971 7.26246C2.0709 6.55043 1.70044 5.91163 1.21833 5.34605C1.09146 5.1996 0.95698 5.11123 0.814885 5.08093C0.677866 5.04558 0.548458 5.05316 0.426663 5.10366C0.309943 5.14911 0.210985 5.22485 0.129788 5.3309C0.053666 5.4319 0.0105302 5.54804 0.00038061 5.67934C-0.00469419 5.80558 0.040979 5.9293 0.1374 6.0505C0.594132 6.62618 0.918919 7.17914 1.11176 7.70937C1.30968 8.23455 1.40864 8.83043 1.40864 9.497C1.40864 10.1636 1.30968 10.762 1.11176 11.2922C0.918919 11.8174 0.594132 12.3678 0.1374 12.9435C0.0460538 13.0647 0.00291801 13.1884 0.0079928 13.3147C0.0181424 13.4409 0.0612781 13.5571 0.1374 13.6631C0.213522 13.7641 0.312481 13.8399 0.434276 13.8904C0.556071 13.9358 0.685478 13.9434 0.822497 13.9131C0.959517 13.8777 1.09146 13.7868 1.21833 13.6404C1.70044 13.0748 2.0709 12.4385 2.32971 11.7316C2.58853 11.0195 2.71793 10.2747 2.71793 9.497ZM6.85135 9.497C6.85135 8.30525 6.66866 7.16399 6.30328 6.07322C5.94297 4.98246 5.4228 3.9826 4.74278 3.07363C4.62098 2.91203 4.4865 2.80851 4.33933 2.76306C4.19724 2.71762 4.06022 2.71762 3.92827 2.76306C3.8014 2.80346 3.69483 2.87668 3.60856 2.98273C3.52736 3.08373 3.48423 3.20492 3.47915 3.34632C3.47915 3.48771 3.53498 3.63416 3.64662 3.78565C4.26575 4.59363 4.7377 5.48492 5.06249 6.45954C5.38728 7.4291 5.54967 8.44159 5.54967 9.497C5.54967 10.5524 5.38728 11.5649 5.06249 12.5345C4.7377 13.504 4.26575 14.3953 3.64662 15.2084C3.53498 15.3548 3.47915 15.4987 3.47915 15.6401C3.48423 15.7815 3.52736 15.9052 3.60856 16.0113C3.69483 16.1173 3.8014 16.1905 3.92827 16.2309C4.06022 16.2764 4.19724 16.2764 4.33933 16.2309C4.4865 16.1855 4.62098 16.0795 4.74278 15.9128C5.4228 15.0089 5.94297 14.0115 6.30328 12.9208C6.66866 11.825 6.85135 10.6837 6.85135 9.497ZM11 9.497C11 7.89621 10.7564 6.36359 10.2692 4.89914C9.78712 3.42964 9.09949 2.07629 8.20632 0.839081C8.09975 0.682536 7.97542 0.58154 7.83333 0.536091C7.69123 0.490643 7.55421 0.488118 7.42227 0.528517C7.29032 0.563865 7.18122 0.632038 7.09494 0.733035C7.00867 0.828981 6.963 0.947652 6.95792 1.08905C6.95285 1.23044 7.01121 1.37941 7.13301 1.53596C7.96527 2.67722 8.59962 3.922 9.03605 5.2703C9.47249 6.6186 9.6907 8.0275 9.6907 9.497C9.6907 10.9615 9.47249 12.3678 9.03605 13.7161C8.59962 15.0644 7.96527 16.3092 7.13301 17.4505C7.01628 17.607 6.95792 17.756 6.95792 17.8974C6.963 18.0388 7.00867 18.16 7.09494 18.261C7.18122 18.367 7.28779 18.4377 7.41466 18.4731C7.5466 18.5135 7.68362 18.5084 7.82572 18.4579C7.96781 18.4125 8.09468 18.3115 8.20632 18.1549C9.09949 16.9177 9.78712 15.5669 10.2692 14.1024C10.7564 12.6329 11 11.0978 11 9.497Z"
		fill="currentColor"
	/>
</svg>
