<svg
	color="rgb(var(--foreground, 0, 0, 0))"
	viewBox="0 0 13 17"
	fill="none"
	xmlns="http://www.w3.org/2000/svg"
>
	<path
		d="M0 8.484C0 8.75147 0.066503 8.9971 0.199509 9.22089C0.332515 9.43923 0.510743 9.61663 0.734193 9.75309C0.957643 9.8841 1.19971 9.9496 1.46041 9.9496C1.72642 9.9496 1.96849 9.8841 2.18662 9.75309C2.40475 9.61663 2.57765 9.4365 2.70534 9.21271C2.83835 8.98345 2.90485 8.73509 2.90485 8.46763C2.90485 8.05824 2.76386 7.7089 2.48189 7.41961C2.20524 7.12485 1.86474 6.97747 1.46041 6.97747C1.19439 6.97747 0.949662 7.0457 0.726212 7.18216C0.508083 7.31862 0.332515 7.50148 0.199509 7.73074C0.066503 7.95999 0 8.21108 0 8.484ZM4.48496 11.7673C4.61797 11.9201 4.78555 11.9965 4.98772 11.9965C5.19521 11.9911 5.36812 11.8955 5.50645 11.7099C5.85758 11.2678 6.12891 10.7738 6.32044 10.228C6.51197 9.67667 6.60773 9.10081 6.60773 8.50038C6.60773 7.89995 6.51197 7.32408 6.32044 6.77278C6.12891 6.22148 5.85758 5.72749 5.50645 5.29081C5.36812 5.09977 5.19521 5.00424 4.98772 5.00424C4.78555 4.99879 4.61797 5.0752 4.48496 5.2335C4.35727 5.38088 4.31205 5.5419 4.34929 5.71657C4.38654 5.89124 4.46634 6.06864 4.5887 6.24877C4.82279 6.55444 5.00102 6.90105 5.12339 7.2886C5.24575 7.67069 5.30694 8.07462 5.30694 8.50038C5.30694 8.92614 5.24575 9.33279 5.12339 9.72034C5.00634 10.1024 4.82812 10.4463 4.5887 10.752C4.46102 10.9267 4.37856 11.1041 4.34131 11.2842C4.30939 11.4589 4.35727 11.6199 4.48496 11.7673ZM6.71946 14.1007C6.84715 14.2536 7.00941 14.33 7.20626 14.33C7.40311 14.3245 7.57868 14.2345 7.73296 14.0598C8.39267 13.3229 8.90076 12.4769 9.25721 11.5216C9.61899 10.5664 9.79988 9.55932 9.79988 8.50038C9.79988 7.79078 9.72007 7.10575 9.56047 6.44527C9.40086 5.77934 9.16677 5.15162 8.8582 4.56211C8.54962 3.96714 8.17454 3.42675 7.73296 2.94095C7.57868 2.76628 7.40311 2.67894 7.20626 2.67894C7.00941 2.67349 6.84715 2.74717 6.71946 2.90001C6.59177 3.04739 6.54123 3.21114 6.56783 3.39127C6.59975 3.5714 6.68754 3.74607 6.83118 3.91528C7.37385 4.52117 7.78617 5.21712 8.06814 6.00314C8.35543 6.7837 8.49908 7.61611 8.49908 8.50038C8.49908 9.37919 8.35543 10.2116 8.06814 10.9976C7.78085 11.7782 7.36853 12.4741 6.83118 13.0855C6.68754 13.2547 6.59975 13.4294 6.56783 13.6095C6.54123 13.7842 6.59177 13.9479 6.71946 14.1007ZM9.02578 16.2787C9.14815 16.4206 9.3051 16.4943 9.49662 16.4997C9.68815 16.5052 9.8584 16.426 10.0074 16.2623C10.9597 15.2416 11.6965 14.0653 12.2179 12.7334C12.7393 11.4015 13 9.99053 13 8.50038C13 7.00476 12.7393 5.59103 12.2179 4.25917C11.7019 2.92185 10.965 1.74555 10.0074 0.730278C9.8584 0.566525 9.68815 0.490107 9.49662 0.501023C9.3051 0.506482 9.14815 0.577442 9.02578 0.713903C8.90342 0.855823 8.85287 1.01958 8.87416 1.20516C8.89544 1.39075 8.9779 1.55996 9.12155 1.7128C9.95682 2.59707 10.5953 3.62053 11.0368 4.78318C11.4784 5.94583 11.6992 7.18489 11.6992 8.50038C11.6992 9.81586 11.4758 11.0522 11.0289 12.2094C10.582 13.3666 9.94618 14.39 9.12155 15.2798C8.9779 15.4381 8.89544 15.6073 8.87416 15.7874C8.85287 15.973 8.90342 16.1367 9.02578 16.2787Z"
		fill="currentColor"
	/>
</svg>
