<svg
	color="rgb(var(--foreground, 0, 0, 0))"
	viewBox="0 0 20 15"
	fill="none"
	xmlns="http://www.w3.org/2000/svg"
>
	<path
		d="M0 7.50037C0 8.80608 0.230326 10.0416 0.690979 11.2068C1.15163 12.3721 1.80166 13.3995 2.64107 14.289C2.77927 14.4347 2.93026 14.5049 3.09405 14.4997C3.26296 14.4945 3.40115 14.4295 3.50864 14.3047C3.62124 14.185 3.66731 14.0446 3.64683 13.8833C3.62636 13.722 3.55214 13.5712 3.42418 13.4307C2.68714 12.6504 2.12412 11.753 1.73512 10.7386C1.34613 9.71904 1.15163 8.63962 1.15163 7.50037C1.15163 6.36112 1.34613 5.28429 1.73512 4.26989C2.12412 3.25029 2.68714 2.35034 3.42418 1.57003C3.55214 1.42957 3.62636 1.27871 3.64683 1.11745C3.66731 0.956187 3.62124 0.81313 3.50864 0.688281C3.40115 0.568634 3.26296 0.506209 3.09405 0.501007C2.93026 0.490603 2.77927 0.56083 2.64107 0.71169C1.80166 1.60124 1.15163 2.62865 0.690979 3.79391C0.230326 4.95396 0 6.18945 0 7.50037ZM2.74856 7.50037C2.74856 8.42633 2.90467 9.30808 3.21689 10.1456C3.53423 10.9779 3.9872 11.7166 4.57582 12.3617C4.70889 12.5177 4.86244 12.5984 5.03647 12.6036C5.21049 12.6036 5.35381 12.536 5.46641 12.4007C5.57901 12.2707 5.62252 12.1276 5.59693 11.9715C5.57646 11.8155 5.49968 11.6646 5.3666 11.519C4.89059 10.9779 4.52463 10.3641 4.26871 9.67743C4.01791 8.99076 3.89251 8.26507 3.89251 7.50037C3.89251 6.73567 4.01791 6.00998 4.26871 5.32331C4.52463 4.63664 4.89059 4.0228 5.3666 3.48178C5.49968 3.33613 5.57646 3.18527 5.59693 3.0292C5.62252 2.87314 5.57901 2.72749 5.46641 2.59223C5.35381 2.46218 5.21049 2.39976 5.03647 2.40496C4.86244 2.40496 4.70889 2.48039 4.57582 2.63125C3.9872 3.2763 3.53423 4.01759 3.21689 4.85512C2.90467 5.69266 2.74856 6.5744 2.74856 7.50037ZM5.48944 7.50037C5.48944 8.02578 5.5739 8.52777 5.7428 9.00636C5.91171 9.48495 6.14971 9.91672 6.45681 10.3017C6.57965 10.4681 6.73065 10.554 6.90979 10.5592C7.09405 10.5644 7.24504 10.4994 7.36276 10.3641C7.47537 10.234 7.51631 10.0936 7.4856 9.94273C7.45489 9.78667 7.38324 9.62801 7.27063 9.46675C7.06078 9.20144 6.90211 8.90232 6.79463 8.56939C6.69226 8.23126 6.64107 7.87492 6.64107 7.50037C6.64107 7.12582 6.69226 6.77208 6.79463 6.43915C6.90211 6.10102 7.06078 5.7967 7.27063 5.52619C7.38324 5.37013 7.45489 5.21667 7.4856 5.06581C7.51631 4.90975 7.47537 4.76669 7.36276 4.63664C7.24504 4.50139 7.09405 4.43636 6.90979 4.44156C6.73065 4.44676 6.57965 4.53 6.45681 4.69126C6.14971 5.08141 5.91171 5.51579 5.7428 5.99437C5.5739 6.47296 5.48944 6.97496 5.48944 7.50037ZM14.5106 7.50037C14.5106 6.97496 14.4261 6.47296 14.2572 5.99437C14.0883 5.51579 13.8503 5.08141 13.5432 4.69126C13.4152 4.53 13.2617 4.44676 13.0825 4.44156C12.9034 4.43636 12.755 4.50139 12.6372 4.63664C12.5195 4.76669 12.476 4.90975 12.5067 5.06581C12.5425 5.21667 12.6168 5.37013 12.7294 5.52619C12.9341 5.7967 13.0902 6.10102 13.1977 6.43915C13.3052 6.77208 13.3589 7.12582 13.3589 7.50037C13.3589 7.87492 13.3052 8.23126 13.1977 8.56939C13.0902 8.90232 12.9341 9.20144 12.7294 9.46675C12.6168 9.62801 12.5425 9.78667 12.5067 9.94273C12.476 10.0936 12.5195 10.234 12.6372 10.3641C12.755 10.4994 12.9034 10.5644 13.0825 10.5592C13.2617 10.554 13.4152 10.4681 13.5432 10.3017C13.8503 9.91672 14.0883 9.48495 14.2572 9.00636C14.4261 8.52777 14.5106 8.02578 14.5106 7.50037ZM17.2514 7.50037C17.2514 6.5744 17.0928 5.69266 16.7754 4.85512C16.4632 4.01759 16.0128 3.2763 15.4242 2.63125C15.286 2.48039 15.1299 2.40496 14.9559 2.40496C14.7869 2.39976 14.6462 2.46218 14.5336 2.59223C14.421 2.72749 14.3749 2.87314 14.3954 3.0292C14.421 3.18527 14.4978 3.33613 14.6257 3.48178C15.1068 4.0228 15.4728 4.63664 15.7236 5.32331C15.9795 6.00998 16.1075 6.73567 16.1075 7.50037C16.1075 8.26507 15.9795 8.99076 15.7236 9.67743C15.4728 10.3641 15.1068 10.9779 14.6257 11.519C14.4978 11.6646 14.421 11.8155 14.3954 11.9715C14.3749 12.1276 14.421 12.2707 14.5336 12.4007C14.6462 12.536 14.7869 12.6036 14.9559 12.6036C15.1299 12.5984 15.286 12.5177 15.4242 12.3617C16.0128 11.7166 16.4632 10.9779 16.7754 10.1456C17.0928 9.30808 17.2514 8.42633 17.2514 7.50037ZM20 7.50037C20 6.18945 19.7671 4.95396 19.3013 3.79391C18.8407 2.62865 18.1932 1.60124 17.3589 0.71169C17.2207 0.56083 17.0672 0.490603 16.8983 0.501007C16.7345 0.506209 16.5988 0.568634 16.4914 0.688281C16.3788 0.81313 16.3327 0.956187 16.3532 1.11745C16.3736 1.27871 16.4479 1.42957 16.5758 1.57003C17.3129 2.35034 17.8759 3.25029 18.2649 4.26989C18.6539 5.28429 18.8484 6.36112 18.8484 7.50037C18.8484 8.63962 18.6539 9.71904 18.2649 10.7386C17.8759 11.753 17.3129 12.6504 16.5758 13.4307C16.4479 13.5712 16.3736 13.722 16.3532 13.8833C16.3327 14.0446 16.3788 14.185 16.4914 14.3047C16.5988 14.4295 16.7345 14.4945 16.8983 14.4997C17.0672 14.5049 17.2207 14.4347 17.3589 14.289C18.1932 13.3995 18.8407 12.3721 19.3013 11.2068C19.7671 10.0416 20 8.80608 20 7.50037ZM8.59885 7.51597C8.59885 7.77088 8.66283 8.00497 8.79079 8.21825C8.92386 8.42633 9.09533 8.5954 9.30518 8.72545C9.52015 8.8503 9.7556 8.91273 10.0115 8.91273C10.2623 8.91273 10.4926 8.8503 10.7025 8.72545C10.9123 8.5954 11.0787 8.42373 11.2015 8.21045C11.3295 7.99196 11.3935 7.75527 11.3935 7.50037C11.3935 7.11021 11.2578 6.77728 10.9866 6.50157C10.7204 6.22066 10.3954 6.08021 10.0115 6.08021C9.75048 6.08021 9.51248 6.14523 9.2975 6.27529C9.08765 6.40534 8.91875 6.57961 8.79079 6.79809C8.66283 7.01658 8.59885 7.25587 8.59885 7.51597Z"
		fill="currentColor"
	/>
</svg>
