<svg
	color="rgb(var(--foreground, 0, 0, 0))"
	viewBox="0 0 22 15"
	fill="none"
	xmlns="http://www.w3.org/2000/svg"
>
	<path
		d="M2.14221 15H19.8578C20.5154 15 21.0368 14.8059 21.4221 14.4176C21.8074 14.0294 22 13.5047 22 12.8437V10.3332C22 9.66684 21.8074 9.14218 21.4221 8.75918C21.0368 8.37093 20.5154 8.17681 19.8578 8.17681H2.14221C1.48465 8.17681 0.963222 8.37093 0.577933 8.75918C0.192644 9.14218 0 9.66684 0 10.3332V12.8437C0 13.5047 0.192644 14.0294 0.577933 14.4176C0.963222 14.8059 1.48465 15 2.14221 15ZM2.92049 11.8206C2.7561 11.8206 2.61996 11.7681 2.51208 11.6632C2.40934 11.553 2.35797 11.4166 2.35797 11.2539C2.35797 11.086 2.40934 10.947 2.51208 10.8368C2.61996 10.7267 2.7561 10.6716 2.92049 10.6716H5.61751C5.7819 10.6716 5.91547 10.7267 6.01821 10.8368C6.12609 10.947 6.18004 11.086 6.18004 11.2539C6.18004 11.4166 6.12609 11.553 6.01821 11.6632C5.91547 11.7681 5.7819 11.8206 5.61751 11.8206H2.92049ZM9.63993 12.639C9.35225 12.639 9.10566 12.5367 8.90018 12.3321C8.69983 12.1222 8.59965 11.8704 8.59965 11.5766C8.59965 11.2933 8.69983 11.0493 8.90018 10.8447C9.10566 10.6348 9.35225 10.5299 9.63993 10.5299C9.92247 10.5299 10.1639 10.6348 10.3643 10.8447C10.5698 11.0493 10.6725 11.2933 10.6725 11.5766C10.6725 11.8704 10.5698 12.1222 10.3643 12.3321C10.1639 12.5367 9.92247 12.639 9.63993 12.639ZM12.6452 12.639C12.3575 12.639 12.1109 12.5367 11.9054 12.3321C11.7051 12.1222 11.6049 11.8704 11.6049 11.5766C11.6049 11.2933 11.7051 11.0493 11.9054 10.8447C12.1109 10.6348 12.3575 10.5299 12.6452 10.5299C12.9277 10.5299 13.1692 10.6348 13.3695 10.8447C13.575 11.0493 13.6778 11.2933 13.6778 11.5766C13.6778 11.8704 13.575 12.1222 13.3695 12.3321C13.1692 12.5367 12.9277 12.639 12.6452 12.639ZM15.6504 12.639C15.3679 12.639 15.1239 12.5367 14.9184 12.3321C14.7129 12.1222 14.6102 11.8704 14.6102 11.5766C14.6102 11.2933 14.7129 11.0493 14.9184 10.8447C15.1239 10.6348 15.3679 10.5299 15.6504 10.5299C15.933 10.5299 16.1744 10.6348 16.3748 10.8447C16.5803 11.0493 16.683 11.2933 16.683 11.5766C16.683 11.8704 16.5803 12.1222 16.3748 12.3321C16.1744 12.5367 15.933 12.639 15.6504 12.639ZM18.6557 12.639C18.3731 12.639 18.1291 12.5367 17.9236 12.3321C17.7182 12.1222 17.6154 11.873 17.6154 11.5845C17.6154 11.2959 17.7182 11.0493 17.9236 10.8447C18.1291 10.6348 18.3731 10.5299 18.6557 10.5299C18.9382 10.5299 19.1823 10.6348 19.3877 10.8447C19.5932 11.0493 19.696 11.2959 19.696 11.5845C19.696 11.873 19.5932 12.1222 19.3877 12.3321C19.1823 12.5367 18.9382 12.639 18.6557 12.639ZM10.9961 0C10.1126 0 9.25464 0.128541 8.42242 0.385624C7.59533 0.642707 6.84273 1.01259 6.16462 1.49528C6.04133 1.59496 5.96427 1.71826 5.93345 1.86516C5.90263 2.00682 5.92831 2.13799 6.01051 2.25866C6.10298 2.38458 6.21856 2.45803 6.35727 2.47901C6.50111 2.49475 6.63724 2.4554 6.76567 2.36097C7.34618 1.94648 8.00374 1.62644 8.73835 1.40084C9.47297 1.16999 10.2256 1.05456 10.9961 1.05456C11.7821 1.05456 12.5399 1.16737 13.2694 1.39297C13.9988 1.61857 14.6538 1.94124 15.2343 2.36097C15.3628 2.4554 15.4963 2.49475 15.635 2.47901C15.7789 2.45803 15.8945 2.38458 15.9818 2.25866C16.0691 2.13274 16.0974 1.99895 16.0665 1.85729C16.0409 1.71039 15.9638 1.58972 15.8354 1.49528C15.1521 1.01259 14.3944 0.642707 13.5622 0.385624C12.7351 0.128541 11.8797 0 10.9961 0ZM10.9961 2.46327C10.354 2.46327 9.7324 2.55771 9.13135 2.74659C8.5303 2.93022 7.98832 3.1978 7.50543 3.54932C7.38214 3.64376 7.30765 3.76181 7.28196 3.90346C7.25628 4.04512 7.2871 4.17891 7.37443 4.30483C7.45663 4.4255 7.56964 4.49633 7.71349 4.51731C7.85733 4.5383 7.99603 4.50157 8.1296 4.40714C8.92072 3.82476 9.87624 3.53358 10.9961 3.53358C12.1161 3.53358 13.0741 3.82476 13.8704 4.40714C14.004 4.50157 14.1427 4.5383 14.2865 4.51731C14.4304 4.49633 14.5434 4.4255 14.6256 4.30483C14.7129 4.17891 14.7437 4.04512 14.718 3.90346C14.6924 3.76181 14.6153 3.64376 14.4869 3.54932C14.0194 3.1978 13.4851 2.93022 12.8841 2.74659C12.283 2.55771 11.6537 2.46327 10.9961 2.46327ZM10.9961 4.92655C10.5954 4.92655 10.205 4.98426 9.82487 5.09969C9.44472 5.21511 9.12107 5.37775 8.85394 5.58762C8.73578 5.67681 8.6613 5.79486 8.63047 5.94176C8.59965 6.08342 8.62534 6.21459 8.70753 6.33526C8.80514 6.46642 8.92586 6.5425 9.0697 6.56348C9.21868 6.58447 9.36252 6.54774 9.50123 6.45331C9.89679 6.149 10.3951 5.99685 10.9961 5.99685C11.6177 5.99685 12.1186 6.149 12.4988 6.45331C12.6375 6.55299 12.7813 6.59234 12.9303 6.57135C13.0793 6.55037 13.2026 6.47167 13.3002 6.33526C13.3772 6.21459 13.4003 6.08342 13.3695 5.94176C13.3438 5.79486 13.2719 5.67681 13.1538 5.58762C12.5527 5.1469 11.8335 4.92655 10.9961 4.92655Z"
		fill="currentColor"
	/>
</svg>
