<svg
	color="rgb(var(--foreground, 0, 0, 0))"
	viewBox="0 0 22 15"
	fill="none"
	xmlns="http://www.w3.org/2000/svg"
>
	<path
		d="M2.14221 15H19.8578C20.5154 15 21.0368 14.8059 21.4221 14.4176C21.8074 14.0294 22 13.5047 22 12.8437V10.3332C22 9.66684 21.8074 9.14218 21.4221 8.75918C21.0368 8.37093 20.5154 8.17681 19.8578 8.17681H2.14221C1.48465 8.17681 0.963222 8.37093 0.577933 8.75918C0.192644 9.14218 0 9.66684 0 10.3332V12.8437C0 13.5047 0.192644 14.0294 0.577933 14.4176C0.963222 14.8059 1.48465 15 2.14221 15ZM2.14221 13.7329C1.8648 13.7329 1.6439 13.6516 1.47951 13.489C1.32026 13.3316 1.24063 13.1165 1.24063 12.8437V10.3332C1.24063 10.0551 1.32026 9.83736 1.47951 9.67996C1.6439 9.52256 1.8648 9.44386 2.14221 9.44386H19.8578C20.1352 9.44386 20.3535 9.52256 20.5128 9.67996C20.6772 9.83736 20.7594 10.0551 20.7594 10.3332V12.8437C20.7594 13.1165 20.6772 13.3316 20.5128 13.489C20.3535 13.6516 20.1352 13.7329 19.8578 13.7329H2.14221ZM3.16708 11.8127H5.77933C5.93859 11.8127 6.06959 11.7629 6.17233 11.6632C6.27507 11.5582 6.32644 11.4244 6.32644 11.2618C6.32644 11.0992 6.27507 10.9654 6.17233 10.8604C6.06959 10.7555 5.93859 10.703 5.77933 10.703H3.16708C3.01296 10.703 2.88453 10.7555 2.78179 10.8604C2.67904 10.9654 2.62767 11.0992 2.62767 11.2618C2.62767 11.4244 2.67904 11.5582 2.78179 11.6632C2.88453 11.7629 3.01296 11.8127 3.16708 11.8127ZM9.68616 12.6076C9.9533 12.6076 10.1845 12.5079 10.3797 12.3085C10.58 12.1039 10.6802 11.8599 10.6802 11.5766C10.6802 11.3038 10.58 11.0677 10.3797 10.8683C10.1845 10.6637 9.9533 10.5614 9.68616 10.5614C9.40876 10.5614 9.16988 10.6637 8.96953 10.8683C8.77431 11.0677 8.67671 11.3038 8.67671 11.5766C8.67671 11.8599 8.77431 12.1039 8.96953 12.3085C9.16988 12.5079 9.40876 12.6076 9.68616 12.6076ZM12.5989 12.6076C12.8712 12.6076 13.105 12.5079 13.3002 12.3085C13.4954 12.1039 13.593 11.8599 13.593 11.5766C13.593 11.3038 13.4954 11.0677 13.3002 10.8683C13.105 10.6637 12.8712 10.5614 12.5989 10.5614C12.3215 10.5614 12.0827 10.6637 11.8823 10.8683C11.6871 11.0677 11.5895 11.3038 11.5895 11.5766C11.5895 11.8599 11.6871 12.1039 11.8823 12.3085C12.0827 12.5079 12.3215 12.6076 12.5989 12.6076ZM15.5117 12.6076C15.784 12.6076 16.0177 12.5079 16.213 12.3085C16.4082 12.1039 16.5058 11.8599 16.5058 11.5766C16.5058 11.3038 16.4082 11.0677 16.213 10.8683C16.0177 10.6637 15.784 10.5614 15.5117 10.5614C15.2343 10.5614 14.9954 10.6637 14.7951 10.8683C14.5999 11.0677 14.5023 11.3038 14.5023 11.5766C14.5023 11.8599 14.5999 12.1039 14.7951 12.3085C14.9954 12.5079 15.2343 12.6076 15.5117 12.6076ZM18.4245 12.6076C18.6968 12.6076 18.9305 12.5079 19.1257 12.3085C19.3261 12.1091 19.4263 11.8678 19.4263 11.5845C19.4263 11.3064 19.3261 11.0677 19.1257 10.8683C18.9305 10.6637 18.6968 10.5614 18.4245 10.5614C18.1471 10.5614 17.9082 10.6637 17.7079 10.8683C17.5127 11.0677 17.4151 11.3064 17.4151 11.5845C17.4151 11.8678 17.5127 12.1091 17.7079 12.3085C17.9082 12.5079 18.1471 12.6076 18.4245 12.6076ZM10.9884 0C10.1048 0 9.24693 0.128541 8.41471 0.385624C7.58762 0.642707 6.83503 1.01259 6.15692 1.49528C6.03363 1.59496 5.95657 1.71826 5.92574 1.86516C5.89492 2.00682 5.92061 2.13799 6.0028 2.25866C6.09527 2.38458 6.21086 2.45803 6.34956 2.47901C6.4934 2.49475 6.62954 2.4554 6.75797 2.36097C7.33847 1.94648 7.99603 1.62644 8.73065 1.40084C9.46527 1.16999 10.2179 1.05456 10.9884 1.05456C11.7744 1.05456 12.5322 1.16737 13.2616 1.39297C13.9911 1.61857 14.6461 1.94124 15.2266 2.36097C15.355 2.4554 15.4886 2.49475 15.6273 2.47901C15.7712 2.45803 15.8867 2.38458 15.9741 2.25866C16.0614 2.13274 16.0897 1.99895 16.0588 1.85729C16.0332 1.71039 15.9561 1.58972 15.8277 1.49528C15.1444 1.01259 14.3867 0.642707 13.5545 0.385624C12.7274 0.128541 11.872 0 10.9884 0ZM10.9961 2.46327C10.354 2.46327 9.7324 2.55771 9.13135 2.74659C8.5303 2.93022 7.98832 3.1978 7.50543 3.54932C7.38214 3.64376 7.30765 3.76181 7.28196 3.90346C7.25628 4.04512 7.2871 4.17891 7.37443 4.30483C7.45663 4.4255 7.56964 4.49633 7.71349 4.51731C7.85733 4.5383 7.99603 4.50157 8.1296 4.40714C8.92072 3.82476 9.87624 3.53358 10.9961 3.53358C12.1161 3.53358 13.0741 3.82476 13.8704 4.40714C14.004 4.50157 14.1427 4.5383 14.2865 4.51731C14.4304 4.49633 14.5434 4.4255 14.6256 4.30483C14.7129 4.17891 14.7437 4.04512 14.718 3.90346C14.6924 3.76181 14.6153 3.64376 14.4869 3.54932C14.0194 3.1978 13.4851 2.93022 12.8841 2.74659C12.283 2.55771 11.6537 2.46327 10.9961 2.46327ZM10.9884 4.92655C10.5877 4.92655 10.1973 4.98426 9.81716 5.09969C9.43701 5.21511 9.11337 5.37775 8.84623 5.58762C8.72808 5.67681 8.65359 5.79486 8.62277 5.94176C8.59194 6.08342 8.61763 6.21459 8.69982 6.33526C8.79743 6.46642 8.91816 6.5425 9.062 6.56348C9.21097 6.58447 9.35482 6.54774 9.49352 6.45331C9.88908 6.149 10.3874 5.99685 10.9884 5.99685C11.61 5.99685 12.1109 6.149 12.4911 6.45331C12.6298 6.55299 12.7736 6.59234 12.9226 6.57135C13.0716 6.55037 13.1949 6.47167 13.2925 6.33526C13.3695 6.21459 13.3926 6.08342 13.3618 5.94176C13.3361 5.79486 13.2642 5.67681 13.1461 5.58762C12.545 5.1469 11.8258 4.92655 10.9884 4.92655Z"
		fill="currentColor"
	/>
</svg>
