<svg
	color="rgb(var(--foreground, 0, 0, 0))"
	viewBox="0 0 12 13"
	fill="none"
	xmlns="http://www.w3.org/2000/svg"
>
	<path
		d="M1.13642 12.5C1.44371 12.5 1.70596 12.3914 1.92318 12.1742C2.1457 11.9517 2.25695 11.6868 2.25695 11.3795C2.25695 11.0669 2.14834 10.802 1.93113 10.5848C1.71391 10.3623 1.44901 10.251 1.13642 10.251C0.829139 10.251 0.561589 10.3649 0.333775 10.5927C0.111258 10.8152 0 11.0854 0 11.4033C0 11.6947 0.113907 11.9517 0.341722 12.1742C0.569536 12.3914 0.834437 12.5 1.13642 12.5ZM0.119205 7.65232C0.119205 7.82715 0.182781 7.97815 0.309934 8.1053C0.437086 8.22715 0.58808 8.28808 0.762914 8.28808C1.39338 8.28808 1.96821 8.44437 2.48742 8.75695C3.01192 9.06954 3.43046 9.48808 3.74305 10.0126C4.05563 10.5318 4.21192 11.1066 4.21192 11.7371C4.21192 11.9119 4.27285 12.0629 4.3947 12.1901C4.52185 12.3172 4.67285 12.3808 4.84768 12.3808C5.02252 12.3808 5.17351 12.3172 5.30066 12.1901C5.42781 12.0629 5.49139 11.9119 5.49139 11.7371C5.49139 11.0854 5.36689 10.4735 5.11788 9.90133C4.87417 9.32914 4.5351 8.82848 4.10066 8.39934C3.66623 7.9649 3.16291 7.62583 2.59073 7.38212C2.01854 7.13311 1.40927 7.00861 0.762914 7.00861C0.58808 7.00861 0.437086 7.07219 0.309934 7.19934C0.182781 7.32649 0.119205 7.47748 0.119205 7.65232ZM0.119205 4.49735C0.119205 4.67219 0.182781 4.82318 0.309934 4.95033C0.437086 5.07219 0.58808 5.13311 0.762914 5.13311C1.67417 5.13311 2.52715 5.3053 3.32185 5.64967C4.12185 5.98874 4.82384 6.46291 5.42781 7.07219C6.03709 7.67616 6.51126 8.37815 6.85033 9.17815C7.1947 9.97285 7.36689 10.8258 7.36689 11.7371C7.36689 11.9119 7.42781 12.0629 7.54967 12.1901C7.67682 12.3172 7.82782 12.3808 8.00265 12.3808C8.17748 12.3808 8.32848 12.3172 8.45563 12.1901C8.58278 12.0629 8.64636 11.9119 8.64636 11.7371C8.64636 10.651 8.43974 9.63113 8.02649 8.67748C7.61854 7.72384 7.05166 6.88675 6.32583 6.16622C5.6053 5.44569 4.76821 4.88146 3.81457 4.47351C2.86623 4.06027 1.84901 3.85364 0.762914 3.85364C0.58808 3.85364 0.437086 3.91722 0.309934 4.04437C0.182781 4.17152 0.119205 4.32252 0.119205 4.49735ZM0.119205 1.13576C0.119205 1.3106 0.182781 1.46159 0.309934 1.58874C0.437086 1.71589 0.58808 1.77947 0.762914 1.77947C1.8596 1.77947 2.90596 1.94636 3.90199 2.28013C4.89801 2.61391 5.80927 3.08808 6.63576 3.70265C7.46755 4.31192 8.18808 5.03245 8.79735 5.86424C9.40662 6.69073 9.87815 7.60199 10.2119 8.59801C10.551 9.59404 10.7205 10.6404 10.7205 11.7371C10.7205 11.9119 10.7841 12.0629 10.9113 12.1901C11.0384 12.3172 11.1894 12.3808 11.3642 12.3808C11.5391 12.3808 11.6874 12.3172 11.8093 12.1901C11.9364 12.0629 12 11.9119 12 11.7371C12 10.4974 11.8093 9.31854 11.4278 8.20066C11.0517 7.07748 10.5192 6.04702 9.83046 5.10927C9.14172 4.17152 8.32848 3.35828 7.39073 2.66954C6.45298 1.98079 5.42252 1.44834 4.29934 1.07219C3.17616 0.690728 1.99735 0.5 0.762914 0.5C0.58808 0.5 0.437086 0.563576 0.309934 0.690728C0.182781 0.812583 0.119205 0.960927 0.119205 1.13576Z"
		fill="currentColor"
	/>
</svg>
