<svg
	color="rgb(var(--foreground, 0, 0, 0))"
	viewBox="0 0 19 15"
	fill="none"
	xmlns="http://www.w3.org/2000/svg"
>
	<path
		d="M2.45515 14.5H10.8918C11.7102 14.5 12.3226 14.2901 12.7292 13.8702C13.141 13.4504 13.3469 12.826 13.3469 11.9971V3.00288C13.3469 2.16859 13.141 1.54421 12.7292 1.12976C12.3226 0.709919 11.7102 0.5 10.8918 0.5H2.45515C1.63676 0.5 1.02167 0.709919 0.609877 1.12976C0.203292 1.54421 0 2.16859 0 3.00288V11.9971C0 12.8314 0.203292 13.4558 0.609877 13.8702C1.02167 14.2901 1.63676 14.5 2.45515 14.5ZM6.24733 7.95213C6.10659 7.95213 5.98931 7.90369 5.89548 7.8068C5.80165 7.70992 5.75474 7.58881 5.75474 7.44348V3.51153C5.75474 3.36621 5.80165 3.2451 5.89548 3.14821C5.98931 3.05133 6.10659 3.00288 6.24733 3.00288C6.38807 3.00288 6.50535 3.05133 6.59918 3.14821C6.69301 3.2451 6.73992 3.36621 6.73992 3.51153V7.44348C6.73992 7.58881 6.69301 7.70992 6.59918 7.8068C6.50535 7.90369 6.38807 7.95213 6.24733 7.95213ZM8.29589 7.95213C8.16036 7.95213 8.04569 7.90369 7.95186 7.8068C7.85803 7.70992 7.81112 7.58881 7.81112 7.44348V3.51153C7.81112 3.36621 7.85803 3.2451 7.95186 3.14821C8.04569 3.05133 8.16036 3.00288 8.29589 3.00288C8.43663 3.00288 8.55392 3.05133 8.64774 3.14821C8.74157 3.2451 8.78848 3.36621 8.78848 3.51153V7.44348C8.78848 7.58881 8.74157 7.70992 8.64774 7.8068C8.55392 7.90369 8.43663 7.95213 8.29589 7.95213ZM10.3523 7.95213C10.2115 7.95213 10.0942 7.90369 10.0004 7.8068C9.90659 7.70992 9.85968 7.58881 9.85968 7.44348V3.51153C9.85968 3.36621 9.90659 3.2451 10.0004 3.14821C10.0942 3.05133 10.2115 3.00288 10.3523 3.00288C10.493 3.00288 10.6103 3.05133 10.7041 3.14821C10.798 3.2451 10.8449 3.36621 10.8449 3.51153V7.44348C10.8449 7.58881 10.798 7.70992 10.7041 7.8068C10.6103 7.90369 10.493 7.95213 10.3523 7.95213ZM14.8638 7.95213C14.968 8.08131 15.1036 8.14591 15.2704 8.14591C15.4424 8.14052 15.5883 8.05709 15.7082 7.89562C15.9584 7.55652 16.1539 7.18243 16.2946 6.77336C16.4354 6.3589 16.5058 5.92561 16.5058 5.47347C16.5058 5.02134 16.4354 4.58804 16.2946 4.17359C16.1539 3.75913 15.9584 3.38504 15.7082 3.05133C15.5936 2.88985 15.4502 2.80911 15.2782 2.80911C15.1114 2.80373 14.9759 2.86294 14.8716 2.98674C14.7621 3.10515 14.7204 3.23702 14.7465 3.38235C14.7726 3.52768 14.8351 3.67301 14.9342 3.81834C15.101 4.06055 15.2261 4.32161 15.3095 4.6015C15.3929 4.88139 15.4346 5.17205 15.4346 5.47347C15.4346 5.77489 15.3929 6.06555 15.3095 6.34544C15.2261 6.61995 15.101 6.88101 14.9342 7.1286C14.8351 7.26855 14.77 7.41119 14.7387 7.55652C14.7126 7.69646 14.7543 7.82833 14.8638 7.95213ZM16.6543 9.69608C16.7638 9.82526 16.8993 9.88985 17.0609 9.88985C17.2225 9.88447 17.3658 9.80911 17.4909 9.66378C17.9809 9.09862 18.3536 8.45809 18.6091 7.74221C18.8697 7.02634 19 6.27009 19 5.47347C19 4.67147 18.8697 3.91253 18.6091 3.19666C18.3536 2.48078 17.9809 1.84025 17.4909 1.27509C17.3711 1.13514 17.2303 1.06248 17.0687 1.05709C16.9071 1.05171 16.7742 1.11092 16.67 1.23472C16.5605 1.35852 16.5136 1.49577 16.5292 1.64648C16.5501 1.79719 16.6204 1.94252 16.7403 2.08247C17.5326 3.01365 17.9288 4.14398 17.9288 5.47347C17.9288 6.79758 17.5326 7.92522 16.7403 8.8564C16.6257 8.99635 16.5579 9.14168 16.537 9.29239C16.5162 9.43772 16.5553 9.57228 16.6543 9.69608Z"
		fill="currentColor"
	/>
</svg>
