<svg
	color="rgb(var(--foreground, 0, 0, 0))"
	viewBox="0 0 19 15"
	fill="none"
	xmlns="http://www.w3.org/2000/svg"
>
	<path
		d="M2.45515 14.5H10.8918C11.7101 14.5 12.3226 14.2901 12.7292 13.8702C13.141 13.4504 13.3469 12.826 13.3469 11.9971V3.00288C13.3469 2.16859 13.141 1.54421 12.7292 1.12976C12.3226 0.709919 11.7101 0.5 10.8918 0.5H2.45515C1.63676 0.5 1.02167 0.709919 0.609877 1.12976C0.203292 1.54421 0 2.16859 0 3.00288V11.9971C0 12.8314 0.203292 13.4558 0.609877 13.8702C1.02167 14.2901 1.63676 14.5 2.45515 14.5ZM2.47078 13.2001C2.07984 13.2001 1.78011 13.0925 1.57161 12.8772C1.3631 12.6619 1.25885 12.3443 1.25885 11.9245V3.06747C1.25885 2.65302 1.3631 2.33814 1.57161 2.12284C1.78011 1.90754 2.07984 1.79988 2.47078 1.79988H10.8761C11.2619 1.79988 11.559 1.90754 11.7675 2.12284C11.9812 2.33814 12.0881 2.65302 12.0881 3.06747V11.9245C12.0881 12.3443 11.9812 12.6619 11.7675 12.8772C11.559 13.0925 11.2619 13.2001 10.8761 13.2001H2.47078ZM6.30988 7.8714C6.44541 7.8714 6.55748 7.82564 6.6461 7.73414C6.73992 7.63725 6.78684 7.52153 6.78684 7.38697V3.56805C6.78684 3.43349 6.73992 3.32045 6.6461 3.22895C6.55748 3.13206 6.44541 3.08362 6.30988 3.08362C6.17957 3.08362 6.06749 3.13206 5.97367 3.22895C5.88505 3.32045 5.84075 3.43349 5.84075 3.56805V7.38697C5.84075 7.52153 5.88505 7.63725 5.97367 7.73414C6.06749 7.82564 6.17957 7.8714 6.30988 7.8714ZM8.29589 7.8714C8.43142 7.8714 8.54349 7.82564 8.63211 7.73414C8.72593 7.63725 8.77285 7.52153 8.77285 7.38697V3.56805C8.77285 3.43349 8.72593 3.32045 8.63211 3.22895C8.54349 3.13206 8.43142 3.08362 8.29589 3.08362C8.16558 3.08362 8.0535 3.13206 7.95968 3.22895C7.87106 3.32045 7.82676 3.43349 7.82676 3.56805V7.38697C7.82676 7.52153 7.87106 7.63725 7.95968 7.73414C8.0535 7.82564 8.16558 7.8714 8.29589 7.8714ZM10.2897 7.8714C10.42 7.8714 10.5295 7.82564 10.6181 7.73414C10.7119 7.63725 10.7588 7.52153 10.7588 7.38697V3.56805C10.7588 3.43349 10.7119 3.32045 10.6181 3.22895C10.5295 3.13206 10.42 3.08362 10.2897 3.08362C10.1542 3.08362 10.0395 3.13206 9.94567 3.22895C9.85706 3.32045 9.81275 3.43349 9.81275 3.56805V7.38697C9.81275 7.52153 9.85706 7.63725 9.94567 7.73414C10.0395 7.82564 10.1542 7.8714 10.2897 7.8714ZM14.8638 7.95213C14.968 8.08131 15.1036 8.14591 15.2704 8.14591C15.4424 8.14052 15.5883 8.05709 15.7082 7.89562C15.9584 7.55652 16.1539 7.18243 16.2946 6.77336C16.4354 6.3589 16.5058 5.92561 16.5058 5.47347C16.5058 5.02134 16.4354 4.58804 16.2946 4.17359C16.1539 3.75913 15.9584 3.38504 15.7082 3.05133C15.5936 2.88985 15.4502 2.80911 15.2782 2.80911C15.1114 2.80373 14.9759 2.86294 14.8716 2.98674C14.7621 3.10515 14.7204 3.23702 14.7465 3.38235C14.7726 3.52768 14.8351 3.67301 14.9342 3.81834C15.101 4.06055 15.2261 4.32161 15.3095 4.6015C15.3929 4.88139 15.4346 5.17205 15.4346 5.47347C15.4346 5.77489 15.3929 6.06555 15.3095 6.34544C15.2261 6.61995 15.101 6.88101 14.9342 7.1286C14.8351 7.26855 14.77 7.41119 14.7387 7.55652C14.7126 7.69646 14.7543 7.82833 14.8638 7.95213ZM16.6543 9.69608C16.7638 9.82526 16.8993 9.88985 17.0609 9.88985C17.2225 9.88447 17.3658 9.80911 17.4909 9.66378C17.9809 9.09862 18.3536 8.45809 18.6091 7.74221C18.8697 7.02634 19 6.27009 19 5.47347C19 4.67147 18.8697 3.91253 18.6091 3.19666C18.3536 2.48078 17.9809 1.84025 17.4909 1.27509C17.3711 1.13514 17.2303 1.06248 17.0687 1.05709C16.9071 1.05171 16.7742 1.11092 16.67 1.23472C16.5605 1.35852 16.5136 1.49577 16.5292 1.64648C16.5501 1.79719 16.6204 1.94252 16.7403 2.08247C17.5326 3.01365 17.9288 4.14398 17.9288 5.47347C17.9288 6.79758 17.5326 7.92522 16.7403 8.8564C16.6257 8.99635 16.5579 9.14168 16.537 9.29239C16.5162 9.43772 16.5553 9.57228 16.6543 9.69608Z"
		fill="currentColor"
	/>
</svg>
