<svg
	color="rgb(var(--foreground, 0, 0, 0))"
	viewBox="0 0 21 15"
	fill="none"
	xmlns="http://www.w3.org/2000/svg"
>
	<path
		d="M6.91339 14.5C7.85302 14.5 8.73753 14.3165 9.56693 13.9496C10.4016 13.5826 11.1365 13.0774 11.7717 12.4339C12.4121 11.7904 12.9134 11.0459 13.2756 10.2003C13.6378 9.3547 13.8189 8.45594 13.8189 7.50399C13.8189 6.54672 13.6378 5.64796 13.2756 4.80769C12.9134 3.96211 12.4121 3.21757 11.7717 2.57407C11.1365 1.92526 10.4016 1.41738 9.56693 1.05043C8.73228 0.683476 7.84252 0.5 6.89764 0.5C5.95801 0.5 5.07087 0.683476 4.23622 1.05043C3.40682 1.41738 2.67454 1.92526 2.03937 2.57407C1.4042 3.21757 0.905512 3.96211 0.543307 4.80769C0.181102 5.64796 0 6.54672 0 7.50399C0 8.45594 0.181102 9.3547 0.543307 10.2003C0.905512 11.0459 1.4042 11.7904 2.03937 12.4339C2.67979 13.0774 3.4147 13.5826 4.24409 13.9496C5.07874 14.3165 5.9685 14.5 6.91339 14.5ZM6.92126 5.44587C6.68504 5.44587 6.46982 5.39003 6.27559 5.27835C6.08136 5.16135 5.92651 5.00712 5.81102 4.81567C5.69554 4.6189 5.6378 4.40085 5.6378 4.16154C5.6378 3.92222 5.69554 3.70418 5.81102 3.50741C5.92651 3.31064 6.08136 3.15641 6.27559 3.04473C6.46982 2.92773 6.68504 2.86923 6.92126 2.86923C7.15223 2.86923 7.3622 2.92773 7.55118 3.04473C7.74541 3.15641 7.90026 3.31064 8.01575 3.50741C8.13123 3.69886 8.18898 3.9169 8.18898 4.16154C8.18898 4.39554 8.13123 4.61092 8.01575 4.80769C7.90026 5.00446 7.74541 5.16135 7.55118 5.27835C7.3622 5.39003 7.15223 5.44587 6.92126 5.44587ZM15.748 10.6869C15.8793 10.8358 16.0446 10.9103 16.2441 10.9103C16.4488 10.9049 16.622 10.8119 16.7638 10.6311C17.105 10.2003 17.3701 9.71899 17.5591 9.18718C17.748 8.65005 17.8425 8.08898 17.8425 7.50399C17.8425 6.91899 17.748 6.36059 17.5591 5.82877C17.3701 5.29164 17.105 4.80769 16.7638 4.37692C16.622 4.19611 16.4488 4.1057 16.2441 4.1057C16.0446 4.10038 15.8793 4.17217 15.748 4.32108C15.622 4.46467 15.5774 4.62156 15.6142 4.79174C15.6509 4.96192 15.7297 5.13476 15.8504 5.31026C16.0866 5.60807 16.2625 5.94577 16.378 6.32336C16.4987 6.69563 16.5591 7.08917 16.5591 7.50399C16.5591 7.9188 16.4987 8.315 16.378 8.69259C16.2625 9.06486 16.0866 9.39991 15.8504 9.69772C15.7297 9.8679 15.6509 10.0407 15.6142 10.2162C15.5774 10.3864 15.622 10.5433 15.748 10.6869ZM17.9528 12.9604C18.084 13.1093 18.2441 13.1811 18.4331 13.1758C18.6273 13.1705 18.8005 13.0854 18.9528 12.9205C19.6089 12.1972 20.1129 11.3729 20.4646 10.4476C20.8215 9.5169 21 8.53571 21 7.50399C21 6.47227 20.8215 5.49107 20.4646 4.5604C20.1129 3.62972 19.6089 2.80541 18.9528 2.08746C18.8005 1.91728 18.6273 1.83219 18.4331 1.83219C18.2441 1.82688 18.084 1.89867 17.9528 2.04758C17.8268 2.19117 17.7769 2.35071 17.8032 2.52621C17.8346 2.70171 17.9239 2.87189 18.0709 3.03675C18.5958 3.63238 19 4.31045 19.2835 5.07094C19.5722 5.83143 19.7165 6.64245 19.7165 7.50399C19.7165 8.36021 19.5722 9.17122 19.2835 9.93704C19 10.6975 18.5958 11.3756 18.0709 11.9712C17.9239 12.1361 17.8346 12.3063 17.8032 12.4818C17.7769 12.6573 17.8268 12.8168 17.9528 12.9604Z"
		fill="currentColor"
	/>
</svg>
