<svg
	color="rgb(var(--foreground, 0, 0, 0))"
	viewBox="0 0 22 13"
	fill="none"
	xmlns="http://www.w3.org/2000/svg"
>
	<path
		d="M4.44901 9.07248H5.06927C5.04885 8.88084 5.03098 8.68427 5.01566 8.4828C5.00545 8.27641 5.01311 8.07739 5.03864 7.88575H4.53324C3.90533 7.88575 3.34888 7.75553 2.86391 7.49509C2.37893 7.22973 1.99861 6.86364 1.72294 6.39681C1.44727 5.92998 1.30943 5.39189 1.30943 4.78256C1.30943 4.17813 1.44727 3.64251 1.72294 3.17568C1.99861 2.70885 2.37893 2.34521 2.86391 2.08477C3.34888 1.81941 3.90533 1.68673 4.53324 1.68673H11.3254C11.9483 1.68673 12.5021 1.81941 12.9871 2.08477C13.4721 2.34521 13.8524 2.70885 14.1281 3.17568C14.4089 3.64251 14.5493 4.17813 14.5493 4.78256C14.5493 5.39189 14.4114 5.92998 14.1357 6.39681C13.8601 6.86364 13.4772 7.22973 12.9871 7.49509C12.5021 7.75553 11.9483 7.88575 11.3254 7.88575H8.63766C8.60703 7.95946 8.58661 8.04791 8.5764 8.15111C8.5713 8.24939 8.5764 8.35504 8.59172 8.46806C8.60703 8.57617 8.63256 8.68428 8.66829 8.79238C8.70403 8.89558 8.74997 8.98894 8.80613 9.07248H11.4097C12.2775 9.07248 13.0458 8.89066 13.7146 8.52703C14.3833 8.16339 14.9066 7.6597 15.2844 7.01597C15.6672 6.37224 15.8587 5.62776 15.8587 4.78256C15.8587 3.94226 15.6672 3.20025 15.2844 2.55651C14.9066 1.90786 14.3833 1.40418 13.7146 1.04545C13.0458 0.681818 12.2775 0.5 11.4097 0.5H4.44901C3.58116 0.5 2.81286 0.681818 2.1441 1.04545C1.47535 1.40418 0.94953 1.90786 0.566655 2.55651C0.188885 3.20025 0 3.94226 0 4.78256C0 5.62776 0.188885 6.37224 0.566655 7.01597C0.94953 7.6597 1.47535 8.16339 2.1441 8.52703C2.81286 8.89066 3.58116 9.07248 4.44901 9.07248ZM10.5903 12.5H17.551C18.4188 12.5 19.1871 12.3182 19.8559 11.9545C20.5247 11.5909 21.0479 11.0872 21.4257 10.4435C21.8086 9.79975 22 9.05528 22 8.21007C22 7.36978 21.8086 6.62776 21.4257 5.98403C21.0479 5.33538 20.5247 4.8317 19.8559 4.47297C19.1871 4.10934 18.4188 3.92752 17.551 3.92752H16.9231C16.9486 4.11425 16.9665 4.31081 16.9767 4.5172C16.992 4.72359 16.9869 4.9226 16.9614 5.11425H17.4591C18.087 5.11425 18.6435 5.24693 19.1284 5.51228C19.6134 5.77273 19.9937 6.13636 20.2694 6.60319C20.5502 7.07002 20.6906 7.60565 20.6906 8.21007C20.6906 8.81941 20.5502 9.35749 20.2694 9.82432C19.9937 10.2912 19.6134 10.6572 19.1284 10.9226C18.6435 11.183 18.087 11.3133 17.4591 11.3133H10.6746C10.0466 11.3133 9.4902 11.183 9.00522 10.9226C8.52025 10.6572 8.13992 10.2912 7.86425 9.82432C7.58858 9.35749 7.45075 8.81941 7.45075 8.21007C7.45075 7.60565 7.58858 7.07002 7.86425 6.60319C8.13992 6.13636 8.52025 5.77273 9.00522 5.51228C9.4902 5.24693 10.0466 5.11425 10.6746 5.11425H13.3623C13.3981 5.01597 13.4159 4.89558 13.4159 4.75307C13.421 4.61056 13.4032 4.4656 13.3623 4.31818C13.3266 4.17076 13.2679 4.04054 13.1862 3.92752H10.5903C9.72247 3.92752 8.95417 4.10934 8.28542 4.47297C7.61666 4.8317 7.09085 5.33538 6.70797 5.98403C6.3302 6.62776 6.14132 7.36978 6.14132 8.21007C6.14132 9.05528 6.3302 9.79975 6.70797 10.4435C7.09085 11.0872 7.61666 11.5909 8.28542 11.9545C8.95417 12.3182 9.72247 12.5 10.5903 12.5Z"
		fill="currentColor"
	/>
</svg>
