<svg
	color="rgb(var(--foreground, 0, 0, 0))"
	viewBox="0 0 18 15"
	fill="none"
	xmlns="http://www.w3.org/2000/svg"
>
	<path
		d="M3.36083 3.29679C2.7043 3.63327 2.09726 4.01969 1.53973 4.45607C0.982197 4.89244 0.495006 5.36036 0.0781589 5.85982C0.026053 5.92817 0 6.00177 0 6.08064C0 6.1595 0.0338689 6.23573 0.101607 6.30934L1.18802 7.39764C1.26096 7.4765 1.34694 7.51594 1.44594 7.51594C1.54494 7.51068 1.63092 7.46862 1.70386 7.38976C2.69909 6.32774 3.82458 5.54174 5.08033 5.03176L3.36083 3.29679ZM8.66001 4.29046C8.71733 4.27994 8.77725 4.27205 8.83977 4.2668C8.9023 4.26154 8.96222 4.25891 9.01954 4.25891C10.4837 4.2852 11.8228 4.5691 13.0369 5.11063C14.2562 5.65215 15.3452 6.41975 16.304 7.41341C16.3769 7.48702 16.4603 7.52382 16.5541 7.52382C16.6531 7.51857 16.739 7.4765 16.812 7.39764L17.8906 6.30934C17.9635 6.23573 18 6.1595 18 6.08064C18 6.00177 17.9739 5.92817 17.9218 5.85982C17.2914 5.108 16.5098 4.43241 15.5771 3.83305C14.6496 3.2337 13.6231 2.76052 12.4976 2.41352C11.3721 2.06653 10.205 1.89303 8.99609 1.89303C8.6053 1.89303 8.20929 1.91406 7.80808 1.95612C7.40686 1.99818 6.9848 2.0639 6.5419 2.15328L8.66001 4.29046ZM6.84672 6.79829C6.08076 7.00859 5.38254 7.31089 4.75206 7.70521C4.12679 8.09952 3.60573 8.54641 3.18888 9.04587C3.13157 9.11422 3.10551 9.18782 3.11072 9.26669C3.11594 9.34555 3.15241 9.41915 3.22015 9.4875L4.43161 10.702C4.51498 10.7808 4.60356 10.8177 4.69735 10.8124C4.79635 10.8019 4.88493 10.7546 4.96309 10.6704C5.27573 10.3234 5.64047 10.0185 6.05732 9.75564C6.47416 9.4875 6.92488 9.2772 7.40947 9.12473C7.89405 8.96701 8.39166 8.88552 8.9023 8.88026L6.84672 6.79829ZM14.2953 9.97645L14.7799 9.4875C14.8476 9.41915 14.8815 9.34555 14.8815 9.26669C14.8867 9.18782 14.8632 9.11422 14.8111 9.04587C14.4203 8.55167 13.8993 8.10215 13.2479 7.69732C12.5966 7.29249 11.901 6.99807 11.1611 6.81406L14.2953 9.97645ZM9.00391 11.1042C8.44637 11.1042 7.93574 11.233 7.47199 11.4906C7.01346 11.7482 6.65914 12.0479 6.40903 12.3896C6.36735 12.4527 6.35432 12.5185 6.36995 12.5868C6.38558 12.6552 6.42206 12.7182 6.47937 12.7761L8.37864 14.6215C8.53495 14.7687 8.6574 14.8686 8.74598 14.9211C8.83456 14.9737 8.92054 15 9.00391 15C9.09249 15 9.18107 14.9737 9.26965 14.9211C9.35823 14.8686 9.48068 14.7687 9.63699 14.6215L11.5284 12.7761C11.591 12.7182 11.6274 12.6499 11.6379 12.571C11.6483 12.4869 11.6274 12.4107 11.5753 12.3423C11.32 12.0111 10.9657 11.7219 10.5124 11.4748C10.0591 11.2277 9.55623 11.1042 9.00391 11.1042ZM15.5849 14.2981C15.7047 14.4138 15.848 14.4716 16.0148 14.4716C16.1815 14.4716 16.3222 14.4138 16.4368 14.2981C16.5515 14.1772 16.6088 14.0326 16.6088 13.8644C16.614 13.6961 16.5567 13.5542 16.4368 13.4385L3.29831 0.173826C3.17846 0.0581612 3.03257 0.000328594 2.86062 0.000328594C2.69388 -0.00492891 2.55319 0.0529037 2.43856 0.173826C2.32393 0.289492 2.26661 0.434073 2.26661 0.607571C2.26661 0.781069 2.32393 0.923021 2.43856 1.03343L15.5849 14.2981Z"
		fill="currentColor"
	/>
</svg>
