<svg
	color="rgb(var(--foreground, 0, 0, 0))"
	viewBox="0 0 18 13"
	fill="none"
	xmlns="http://www.w3.org/2000/svg"
>
	<path
		d="M8.99967 12.9976C9.08829 12.9976 9.1769 12.9716 9.26552 12.9194C9.35414 12.8725 9.47403 12.7735 9.62519 12.6223L11.533 10.7927C11.5904 10.7353 11.6243 10.6676 11.6347 10.5894C11.6503 10.506 11.6295 10.4304 11.5721 10.3626C11.3167 10.0342 10.9596 9.74753 10.5009 9.50253C10.0474 9.25754 9.547 9.13504 8.99967 9.13504C8.43671 9.13504 7.92586 9.26275 7.46715 9.51817C7.00843 9.77359 6.65137 10.0707 6.39595 10.4095C6.35946 10.4721 6.34643 10.5372 6.35685 10.605C6.37249 10.6728 6.41158 10.7353 6.47414 10.7927L8.37415 12.6223C8.52532 12.7683 8.64521 12.8673 8.73383 12.9194C8.82244 12.9716 8.91106 12.9976 8.99967 12.9976ZM4.42556 8.74409C4.50896 8.82228 4.60018 8.85877 4.69922 8.85355C4.79826 8.84313 4.88688 8.79622 4.96507 8.71281C5.43421 8.19155 6.02845 7.7615 6.7478 7.42268C7.46715 7.08385 8.21777 6.91705 8.99967 6.92226C9.792 6.91705 10.5478 7.08907 11.2672 7.43831C11.9865 7.78235 12.586 8.215 13.0656 8.73627C13.1385 8.81446 13.2193 8.85355 13.3079 8.85355C13.4018 8.85355 13.4904 8.81446 13.5738 8.73627L14.7857 7.53214C14.8483 7.46959 14.8822 7.39922 14.8874 7.32103C14.8926 7.23763 14.8665 7.16204 14.8092 7.09428C14.4182 6.6095 13.923 6.17685 13.3236 5.79632C12.7293 5.4158 12.0621 5.11607 11.3219 4.89714C10.5869 4.67299 9.81285 4.56092 8.99967 4.56092C8.1865 4.56092 7.40981 4.67299 6.66961 4.89714C5.93462 5.11607 5.27001 5.4158 4.67576 5.79632C4.08152 6.17685 3.58632 6.6095 3.19015 7.09428C3.13281 7.16204 3.10414 7.23502 3.10414 7.31321C3.10936 7.3914 3.14585 7.46438 3.21361 7.53214L4.42556 8.74409ZM1.18067 5.47574C1.25886 5.55393 1.34748 5.59303 1.44652 5.59303C1.54556 5.58782 1.63157 5.54611 1.70454 5.46793C2.66367 4.44624 3.76355 3.67216 5.00416 3.14568C6.24999 2.61399 7.58183 2.34814 8.99967 2.34814C10.4279 2.34814 11.765 2.61399 13.0108 3.14568C14.2567 3.67737 15.3565 4.45406 16.3104 5.47574C16.3834 5.54872 16.4668 5.58521 16.5607 5.58521C16.6545 5.58 16.7405 5.5383 16.8187 5.46011L17.8977 4.38108C17.9655 4.30811 17.9993 4.23252 17.9993 4.15433C18.0046 4.07614 17.9785 4.00317 17.9212 3.9354C17.3113 3.17956 16.5398 2.50713 15.6067 1.9181C14.6737 1.32385 13.6416 0.857319 12.5104 0.518496C11.3793 0.174459 10.209 0.00244141 8.99967 0.00244141C7.79033 0.00244141 6.62009 0.171853 5.48894 0.510677C4.35779 0.8495 3.32568 1.31603 2.39262 1.91028C1.45955 2.50452 0.688072 3.17956 0.07819 3.9354C0.0260633 4.00317 0 4.07614 0 4.15433C0.00521267 4.23252 0.039095 4.30811 0.101647 4.38108L1.18067 5.47574Z"
		fill="currentColor"
	/>
</svg>
