<svg
	color="rgb(var(--foreground, 0, 0, 0))"
	viewBox="0 0 16 17"
	fill="none"
	xmlns="http://www.w3.org/2000/svg"
>
	<path
		d="M1.26275 5.17451C1.91111 5.85948 2.63529 6.4451 3.43529 6.93137C4.24052 7.41765 5.09804 7.78889 6.00784 8.0451C6.92288 8.29608 7.86405 8.42157 8.83137 8.42157C9.97647 8.41634 11.0797 8.2281 12.1412 7.85686C13.2078 7.48562 14.183 6.95229 15.0667 6.25686L14.6196 5.37843C13.8092 6.05294 12.9098 6.57059 11.9216 6.93137C10.9333 7.28693 9.90327 7.46732 8.83137 7.47255C7.44052 7.47778 6.12288 7.19281 4.87843 6.61765C3.63922 6.04248 2.58039 5.23726 1.70196 4.20196L1.26275 5.17451ZM0.423529 9.65294C1.44314 10.5209 2.55425 11.2137 3.75686 11.7314C4.96471 12.2438 6.21177 12.5732 7.49804 12.7196C8.78954 12.866 10.0758 12.8242 11.3569 12.5941C12.6379 12.3641 13.8667 11.9405 15.0431 11.3235L15.0196 10.249C13.8797 10.9078 12.6771 11.3654 11.4118 11.6216C10.1464 11.8726 8.87582 11.9248 7.6 11.7784C6.32941 11.632 5.10065 11.2922 3.91373 10.7588C2.7268 10.2203 1.64183 9.49608 0.658824 8.58628L0.423529 9.65294ZM4.31373 15.0412L5.43529 15.3C5.17386 14.6673 4.97255 14.019 4.83137 13.3549C4.6902 12.6909 4.61438 12.0163 4.60392 11.3314C4.53072 10.0294 4.65882 8.76405 4.98824 7.53529C5.32288 6.30654 5.83529 5.15882 6.52549 4.09216C7.21569 3.02026 8.06013 2.07647 9.05882 1.26078L8.0549 0.868627C7.06667 1.74706 6.23268 2.74575 5.55294 3.86471C4.8732 4.97843 4.36863 6.17059 4.03922 7.44118C3.71503 8.70654 3.58693 10.0085 3.6549 11.3471C3.66536 11.9745 3.72549 12.5967 3.83529 13.2137C3.9451 13.8307 4.10458 14.4399 4.31373 15.0412ZM9.48235 15.8176L10.3686 15.4255C9.6366 14.3902 9.07451 13.2712 8.68235 12.0686C8.29542 10.8608 8.10196 9.61634 8.10196 8.33529C8.10196 7.11699 8.27451 5.93791 8.61961 4.79804C8.96471 3.65817 9.46928 2.59412 10.1333 1.60588L9.20784 1.27647C8.53856 2.32745 8.02876 3.45163 7.67843 4.64902C7.3281 5.84641 7.15294 7.07516 7.15294 8.33529C7.15294 9.68954 7.35163 11.002 7.74902 12.2725C8.14641 13.5379 8.72418 14.7196 9.48235 15.8176ZM14.102 12.9L14.7373 12.1784C13.8588 11.6765 13.098 11.0464 12.4549 10.2882C11.817 9.53007 11.3203 8.68562 10.9647 7.7549C10.6144 6.82418 10.4314 5.84641 10.4157 4.82157C10.4105 4.27255 10.4549 3.72876 10.549 3.1902C10.6431 2.65163 10.7895 2.13137 10.9882 1.62941L10.0706 1.37059C9.86144 1.91961 9.70719 2.48431 9.60784 3.06471C9.5085 3.63987 9.46144 4.2281 9.46667 4.82941C9.48235 5.94314 9.67843 7.0098 10.0549 8.02941C10.4314 9.04379 10.9647 9.96928 11.6549 10.8059C12.3451 11.6373 13.1608 12.3353 14.102 12.9ZM4.59608 8.32745C4.93072 8.32745 5.21569 8.20719 5.45098 7.96667C5.6915 7.72614 5.81177 7.43595 5.81177 7.09608C5.81177 6.75621 5.6915 6.46863 5.45098 6.23333C5.21569 5.99281 4.93072 5.87255 4.59608 5.87255C4.25098 5.87255 3.95817 5.99281 3.71765 6.23333C3.48235 6.46863 3.36471 6.75621 3.36471 7.09608C3.36471 7.43595 3.48235 7.72614 3.71765 7.96667C3.95817 8.20719 4.25098 8.32745 4.59608 8.32745ZM10.6039 8.97843C10.9333 8.97843 11.2157 8.86079 11.451 8.62549C11.6863 8.38497 11.8039 8.09739 11.8039 7.76274C11.8039 7.43333 11.6863 7.15098 11.451 6.91569C11.2157 6.68039 10.9333 6.56275 10.6039 6.56275C10.2641 6.56275 9.97647 6.68039 9.74118 6.91569C9.50588 7.15098 9.38824 7.43333 9.38824 7.76274C9.38824 8.09739 9.50588 8.38497 9.74118 8.62549C9.97647 8.86079 10.2641 8.97843 10.6039 8.97843ZM8.26667 13.5118C8.60131 13.5118 8.88628 13.3941 9.12157 13.1588C9.36209 12.9183 9.48235 12.6281 9.48235 12.2882C9.48235 11.9484 9.36209 11.6608 9.12157 11.4255C8.88628 11.185 8.60131 11.0647 8.26667 11.0647C7.92157 11.0647 7.62876 11.185 7.38824 11.4255C7.15294 11.6608 7.03529 11.9484 7.03529 12.2882C7.03529 12.6281 7.15294 12.9183 7.38824 13.1588C7.62876 13.3941 7.92157 13.5118 8.26667 13.5118ZM8 16.5C9.09281 16.5 10.1203 16.2909 11.0824 15.8726C12.0497 15.4542 12.902 14.8765 13.6392 14.1392C14.3765 13.402 14.9542 12.5523 15.3726 11.5902C15.7909 10.6229 16 9.59281 16 8.5C16 7.40719 15.7909 6.37974 15.3726 5.41765C14.9542 4.45033 14.3765 3.59804 13.6392 2.86078C12.902 2.12353 12.0497 1.54575 11.0824 1.12745C10.115 0.70915 9.08497 0.5 7.99216 0.5C6.89935 0.5 5.86928 0.70915 4.90196 1.12745C3.93987 1.54575 3.0902 2.12353 2.35294 2.86078C1.62092 3.59804 1.04575 4.45033 0.627451 5.41765C0.20915 6.37974 0 7.40719 0 8.5C0 9.59281 0.20915 10.6229 0.627451 11.5902C1.04575 12.5523 1.62353 13.402 2.36078 14.1392C3.09804 14.8765 3.94771 15.4542 4.9098 15.8726C5.87712 16.2909 6.90719 16.5 8 16.5ZM8 15.4333C7.05359 15.4333 6.16209 15.2503 5.32549 14.8843C4.48889 14.5235 3.75163 14.0242 3.11373 13.3863C2.47582 12.7484 1.97386 12.0111 1.60784 11.1745C1.24706 10.3379 1.06667 9.44641 1.06667 8.5C1.06667 7.55359 1.24706 6.66209 1.60784 5.82549C1.97386 4.98889 2.4732 4.25163 3.10588 3.61373C3.74379 2.97582 4.48105 2.47647 5.31765 2.11569C6.15425 1.74967 7.04575 1.56667 7.99216 1.56667C8.93856 1.56667 9.83007 1.74967 10.6667 2.11569C11.5033 2.47647 12.2405 2.97582 12.8784 3.61373C13.5216 4.25163 14.0235 4.98889 14.3843 5.82549C14.7503 6.66209 14.9333 7.55359 14.9333 8.5C14.9333 9.44641 14.7503 10.3379 14.3843 11.1745C14.0235 12.0111 13.5242 12.7484 12.8863 13.3863C12.2484 14.0242 11.5111 14.5235 10.6745 14.8843C9.83791 15.2503 8.94641 15.4333 8 15.4333Z"
		fill="currentColor"
	/>
</svg>
